<svg viewBox="0 0 24 24" fill="none" xmlns="http://www.w3.org/2000/svg">
<g clip-path="url(#clip0_1265_22643)">
<path d="M12 24C18.6274 24 24 18.6274 24 12C24 5.37258 18.6274 0 12 0C5.37258 0 0 5.37258 0 12C0 18.6274 5.37258 24 12 24Z" fill="#F5EB16"/>
<path d="M11.9985 5C8.13248 5.00059 5 8.13541 5 12.0015C5.00059 15.8669 8.13541 19.0006 12.0015 19C15.8669 18.9988 19.0006 15.8646 19 11.9985C18.9998 11.0793 18.8186 10.169 18.4667 9.31982C18.1147 8.47059 17.599 7.69901 16.9488 7.04913C16.2986 6.39925 15.5268 5.8838 14.6775 5.5322C13.8281 5.18061 12.9178 4.99977 11.9985 5ZM9.15631 8.06681C9.15678 8.04778 9.16474 8.02971 9.17847 8.01653C9.1922 8.00334 9.21058 7.99612 9.22961 7.99644H12.1457C12.7575 7.98498 13.364 8.11081 13.9207 8.36469C14.0263 8.41629 14.1301 8.47376 14.2303 8.53592L12.3322 9.62249H11.3418C11.3323 9.62272 11.323 9.62481 11.3143 9.62865C11.3056 9.63249 11.2978 9.63799 11.2913 9.64486C11.2848 9.65172 11.2796 9.6598 11.2762 9.66864C11.2728 9.67748 11.2712 9.6869 11.2714 9.69638V10.2429L9.15631 11.4661V8.06681ZM8.37114 14.211L7.10337 12.9303L11.2785 10.5214V12.0824C11.2789 12.1014 11.2869 12.1195 11.3006 12.1327C11.3143 12.1458 11.3327 12.1531 11.3517 12.1528H11.9481L8.37525 14.211H8.37114ZM14.6232 13.0206C14.011 13.5319 13.1707 13.7876 12.1023 13.7876H11.3418C11.3227 13.7876 11.3043 13.7952 11.2908 13.8087C11.2773 13.8223 11.2697 13.8406 11.2697 13.8597V15.4359L10.2083 16.047L9.2173 16.6199L9.15456 16.655V14.0427L12.4401 12.1522C12.7209 12.1436 12.9899 12.0372 13.2006 11.8514C13.2755 11.7771 13.3384 11.6916 13.3871 11.598L15.4852 10.3836C15.5204 10.576 15.538 10.7706 15.5374 10.9665C15.5397 11.8244 15.2348 12.5087 14.6226 13.0206H14.6232ZM13.4973 11.2503C13.5114 11.1606 13.5185 11.0691 13.519 10.9782C13.5368 10.6211 13.4188 10.2705 13.1889 9.99661C13.06 9.85359 12.8949 9.74804 12.711 9.6911L15.6271 8.00758L16.9066 9.28767L13.4973 11.2503Z" fill="black"/>
</g>
<defs>
<clipPath id="clip0_1265_22643">
<rect width="24" height="24" fill="white"/>
</clipPath>
</defs>
</svg>