<svg width="24" height="24" viewBox="0 0 24 24" fill="none" xmlns="http://www.w3.org/2000/svg">
<g clip-path="url(#clip0_1265_22673)">
<path d="M12 24C18.6274 24 24 18.6274 24 12C24 5.37258 18.6274 0 12 0C5.37258 0 0 5.37258 0 12C0 18.6274 5.37258 24 12 24Z" fill="#FF914D"/>
<path fill-rule="evenodd" clip-rule="evenodd" d="M5 12C5 15.8662 8.13377 19 12 19C15.8662 19 19 15.8662 19 12C19 8.13377 15.8662 5 12 5C8.13377 5 5 8.13377 5 12ZM18.5884 12C18.5884 15.6387 15.6387 18.5884 12 18.5884C8.36134 18.5884 5.41162 15.6387 5.41162 12C5.41162 8.36134 8.36134 5.41162 12 5.41162C15.6387 5.41162 18.5884 8.36134 18.5884 12ZM12.1523 16.0272C11.5697 16.5278 10.9666 16.9929 10.8124 17.0563H10.8117C10.6656 17.1185 10.6495 17.1042 10.5071 16.7783C10.1676 16.0104 9.49668 13.6719 9.12797 11.9794C9.03532 11.5529 8.98558 11.1929 8.99802 11.0493C9.01667 10.8633 9.2573 10.5792 10.1265 9.72487C11.6089 8.26742 13.2827 6.87525 13.4699 6.94738C13.777 7.06489 15.2861 12.5397 15.148 13.0377C15.1089 13.1795 14.872 13.4537 14.234 14.0916C13.569 14.7672 12.8744 15.4131 12.1523 16.0272Z" fill="white"/>
</g>
<defs>
<clipPath id="clip0_1265_22673">
<rect width="24" height="24" fill="white"/>
</clipPath>
</defs>
</svg>
