<svg viewBox="0 0 24 24" fill="none" xmlns="http://www.w3.org/2000/svg">
<path fill-rule="evenodd" clip-rule="evenodd" d="M4 0C1.79086 0 0 1.79086 0 4V20C0 22.2091 1.79086 24 4 24H20C22.2091 24 24 22.2091 24 20V4C24 1.79086 22.2091 0 20 0H4ZM13.7872 6.91089H20.1194V5H11.8024V13.0448H13.8439C14.0329 12.5098 14.3353 12.0894 14.7512 11.7837C15.1796 11.4652 15.7026 11.3059 16.32 11.3059C17.2021 11.3059 17.87 11.5544 18.3237 12.0512C18.7773 12.5353 19.0041 13.2359 19.0041 14.1532C19.0041 15.0577 18.7773 15.7838 18.3237 16.3316C17.8826 16.8794 17.2147 17.1533 16.32 17.1533C15.6018 17.1533 15.0032 16.9813 14.5243 16.6373C14.0455 16.2806 13.7367 15.8029 13.5981 15.2042H11.5C11.6638 16.3379 12.1616 17.2488 12.9933 17.9367C13.825 18.6246 14.9276 18.9686 16.3011 18.9686C17.3344 18.9686 18.2039 18.7584 18.9096 18.338C19.6279 17.9176 20.1635 17.3443 20.5163 16.6182C20.8817 15.8793 21.0645 15.0385 21.0645 14.0958C21.0645 13.3187 20.9195 12.5799 20.6297 11.8792C20.3525 11.1785 19.8799 10.5989 19.2121 10.1403C18.5568 9.68168 17.6999 9.45237 16.6414 9.45237C16.0491 9.45237 15.4883 9.5734 14.9591 9.81544C14.4424 10.0575 14.0518 10.3569 13.7872 10.7136V6.91089ZM3.06836 7.02554V5.03822H7V18.9686H4.82625V7.02554H3.06836ZM9.478 19C9.08736 19 8.75972 18.8662 8.49509 18.5987C8.23046 18.3312 8.09815 18 8.09815 17.6051C8.09815 17.2101 8.23046 16.8789 8.49509 16.6114C8.75972 16.3439 9.08736 16.2101 9.478 16.2101C9.85604 16.2101 10.1774 16.3439 10.442 16.6114C10.7066 16.8789 10.839 17.2101 10.839 17.6051C10.839 18 10.7066 18.3312 10.442 18.5987C10.1774 18.8662 9.85604 19 9.478 19Z" fill="currentColor"/>
</svg>