<svg viewBox="0 0 24 24" fill="none" xmlns="http://www.w3.org/2000/svg">
<g clip-path="url(#clip0_1265_22656)">
<circle cx="12" cy="12" r="12" fill="#EEEFF1"/>
<path d="M7.77974 12.77L8.14436 10.0305L4.98169 7.83494L7.87138 8.81377L8.55383 7.7667L11.0458 6.22046L16.5385 9.24664L16.8232 13.8639L14.3761 17.2645L12.4419 17.5608L13.4421 15.7299V13.9673L12.7148 12.5907L11.9758 12.1012L10.8391 13.2731V14.5132L9.95188 15.3439L8.82487 15.4803L8.3257 15.7631L7.50676 15.5018L7.16553 14.2734L7.77974 13.4096V12.77Z" fill="white"/>
<path d="M12.8299 7.81158C12.2274 7.68678 11.5683 7.71993 11.5683 7.71993C11.5683 7.71993 11.3519 8.72021 10.0104 8.98344C10.0201 8.98344 11.7828 9.58595 12.8299 7.81158Z" fill="#EEEFF1"/>
<path d="M13.3758 16.8882C14.1031 16.3189 14.6491 15.535 14.9006 14.6479C14.9123 14.6147 15.0137 14.5562 15.0819 14.5114C15.195 14.4431 15.3101 14.3866 15.3315 14.2949C15.3764 14.0337 15.3998 13.7607 15.3998 13.4877C15.3998 13.3863 15.2964 13.283 15.195 13.1816C15.1151 13.1133 15.0351 13.0334 15.0351 12.9768C14.922 11.9415 14.4443 10.9743 13.6819 10.2704L13.602 10.3504C14.341 11.0445 14.8187 11.9882 14.922 12.9885C14.9337 13.0802 15.0234 13.1699 15.1151 13.2615C15.195 13.3298 15.2867 13.4331 15.2867 13.4779C15.2867 13.7392 15.2633 14.0005 15.2184 14.2618C15.2067 14.3066 15.1053 14.3534 15.0254 14.3983C14.9123 14.4548 14.809 14.5114 14.7875 14.603C14.5145 15.5701 13.8886 16.4125 13.058 16.9584C13.2062 16.6406 13.6722 15.6052 13.9218 15.0807L13.8769 13.398L12.4321 11.9999L11.6131 12.113L10.7142 13.5696C10.7142 13.5696 11.1354 14.1038 10.5427 14.7298C9.96355 15.344 9.50728 15.4805 9.50728 15.4805L9.08611 15.2523C9.2109 15.0924 9.46244 14.8545 9.65547 14.6947C9.985 14.4217 10.3145 14.3983 10.3145 14.1038C10.3282 13.4877 9.66717 13.6573 9.66717 13.6573L9.42734 13.8855L9.32595 14.7278L8.82678 15.3537L8.77024 15.342L7.95129 15.1607C7.95129 15.1607 8.45241 14.8994 8.53235 14.603C8.6123 14.3183 8.37246 13.3746 8.36076 13.3181C8.37246 13.3298 8.6006 13.5228 8.70199 13.8406C8.88333 13.3395 9.12316 12.8618 9.19141 12.8169C9.25965 12.7721 10.18 12.2827 10.18 12.2827L9.87386 13.0899L10.102 12.9651L10.648 11.6236C10.648 11.6236 11.1822 11.3623 11.58 11.3623C12.2956 11.3506 13.3544 10.4752 12.8766 8.90552C13.0131 8.96206 15.3783 10.1456 15.7878 12.466C16.0939 14.2501 15.0819 15.9211 13.3758 16.8882Z" fill="#EEEFF1"/>
<path d="M10.6695 8.06122C10.9308 7.75315 10.8294 7.29883 10.8294 7.29883L10.067 8.42585C10.0553 8.42585 10.338 8.43755 10.6695 8.06122Z" fill="#1B314F"/>
<path d="M8.10923 14.2149L8.20087 13.7606C8.20087 13.7606 7.82455 14.4197 7.7914 14.5113C7.75631 14.6147 7.8148 14.796 7.96104 14.7843C8.10923 14.7726 8.29057 14.5562 8.29057 14.3982C8.29057 14.1935 8.10923 14.2149 8.10923 14.2149Z" fill="#1B314F"/>
<path d="M15.0312 6.78874C15.0312 6.78874 15.6095 6.81252 16.2097 6.88187C14.8569 5.81781 13.5754 5.50672 12.5355 5.50672C11.1035 5.50672 10.133 6.0972 10.0736 6.13089L10.5252 5.41359C10.5252 5.41359 8.72275 5.23922 8.08696 7.14739C7.92454 6.74317 7.77599 6.15268 7.77599 6.15268C7.77599 6.15268 6.83914 6.975 7.27884 8.33826C6.20334 7.94593 4.66833 7.40102 4.60891 7.39111C4.5277 7.37922 4.50393 7.41489 4.50393 7.41489C4.50393 7.41489 4.48016 7.44858 4.54949 7.50802C4.67823 7.60908 7.10455 9.40232 7.63735 9.74908C7.52247 10.1652 7.52247 10.3614 7.63735 10.5575C7.79976 10.823 7.80966 10.9618 7.78788 11.1579C7.76411 11.3541 7.55614 13.0542 7.51058 13.2623C7.46503 13.4703 6.97976 14.2094 7.00155 14.4294C7.02532 14.6493 7.3244 15.5846 7.59179 15.6896C7.78788 15.7589 8.27314 15.9095 8.59599 15.9095C8.71087 15.9095 8.81584 15.8858 8.8614 15.8402C9.05748 15.6678 9.11492 15.6321 9.25357 15.6321C9.26545 15.6321 9.27734 15.6321 9.28724 15.6321C9.34468 15.6321 9.414 15.644 9.49521 15.644C9.67941 15.644 9.92303 15.6083 10.0954 15.4478C10.3489 15.1942 10.7886 14.8475 10.9272 14.685C11.1015 14.465 11.1926 14.1658 11.1471 13.8646C11.1114 13.5872 11.262 13.3435 11.4363 13.1018C11.6561 12.8125 12.0602 12.2933 12.0602 12.2933C12.8584 12.8917 13.3555 13.8052 13.3555 14.8217C13.3555 16.6248 11.7849 18.0812 9.84381 18.0812C9.54275 18.0812 9.25555 18.0476 8.96637 17.9782C9.85569 18.2893 10.6064 18.3943 11.2204 18.3943C12.5256 18.3943 13.2189 17.9207 13.2189 17.9207C13.2189 17.9207 12.9772 18.2338 12.5831 18.5905C12.595 18.5905 12.595 18.5905 12.595 18.5905C14.7559 18.2893 15.8076 16.5099 15.8076 16.5099C15.8076 16.5099 15.7264 17.0885 15.6234 17.4808C18.4973 15.319 18.0121 12.6143 18.0002 12.5232C18.024 12.5569 18.3131 12.9036 18.4617 13.0899C18.9252 8.32638 15.0312 6.78874 15.0312 6.78874ZM10.6064 14.3957C10.5608 14.4531 10.3647 14.6275 10.2261 14.7543C10.0874 14.8811 9.9369 15.008 9.82202 15.1249C9.77646 15.1704 9.68337 15.1942 9.54473 15.1942C9.49917 15.1942 9.45163 15.1942 9.41796 15.1942C9.3942 15.1942 9.37241 15.1942 9.34864 15.1942C9.32487 15.1942 9.31299 15.1942 9.30308 15.1942C9.26743 15.1942 9.23376 15.1942 9.19811 15.1942C9.37241 14.9624 9.87946 14.4313 10.0538 14.3164C10.2617 14.1777 10.3667 14.039 10.238 13.7973C10.1112 13.5535 9.77646 13.613 9.77646 13.613C9.77646 13.613 9.97255 13.5317 10.1468 13.5317C9.92699 13.4743 9.6497 13.5317 9.52294 13.6586C9.38429 13.7854 9.40806 14.2372 9.35062 14.5245C9.29318 14.8257 9.0971 14.9762 8.79603 15.2537C8.63362 15.4042 8.51874 15.4498 8.42565 15.4498C8.22956 15.4161 7.99783 15.3567 7.83541 15.2992C7.72053 15.1486 7.54623 14.6513 7.50068 14.4432C7.53435 14.3283 7.673 14.0846 7.74232 13.9459C7.88097 13.6804 7.96217 13.5298 7.98594 13.3911C8.0315 13.1949 8.18203 11.9802 8.23947 11.473C8.39 11.6691 8.59797 11.9941 8.55043 12.2022C8.88516 11.7286 8.64352 11.2649 8.52666 11.0806C8.42367 10.8964 8.28502 10.5258 8.3999 10.1335C8.51478 9.74116 8.93072 8.65332 8.93072 8.65332C8.93072 8.65332 9.06937 8.89704 9.26545 8.84949C9.46154 8.80391 11.0441 6.42216 11.0441 6.42216C11.0441 6.42216 11.4719 7.35743 11.0203 8.04104C10.5588 8.72267 10.1072 8.84949 10.1072 8.84949C10.1072 8.84949 10.743 8.96441 11.3313 8.53641C11.5729 9.10312 11.8047 9.69162 11.8165 9.77286C11.7809 9.8541 11.3194 10.9637 11.2738 11.0331C11.2501 11.0569 11.0896 11.1024 10.9728 11.1262C10.7767 11.1837 10.6618 11.2193 10.6143 11.253C10.5331 11.3224 10.1627 12.3389 9.99038 12.8362C9.78241 12.8937 9.57444 13.0106 9.42391 13.2405C9.50511 13.183 9.75864 13.1473 9.94482 13.1255C10.1072 13.1136 10.6024 13.3792 10.7311 13.8765C10.7311 13.8884 10.7311 13.8884 10.7311 13.9003C10.7569 14.0826 10.6995 14.257 10.6064 14.3957ZM9.52096 14.5344C9.62593 14.3838 9.61405 14.1302 9.62593 14.0489C9.63782 13.9677 9.65961 13.8171 9.7527 13.7953C9.84579 13.7715 10.0656 13.8072 10.0656 13.9677C10.0656 14.1183 9.90323 14.1519 9.78835 14.257C9.70516 14.3362 9.54275 14.5106 9.52096 14.5344ZM14.13 12.325C14.2448 11.7365 14.2567 11.2273 14.2231 10.8112C14.6727 11.4116 14.95 12.1407 15.0312 12.8917C15.0431 12.9849 15.1342 13.076 15.2273 13.1691C15.3085 13.2385 15.4016 13.3316 15.4016 13.3891C15.4016 13.6546 15.3778 13.9201 15.3322 14.1876C15.3203 14.2213 15.2174 14.2807 15.1361 14.3263C15.0213 14.3838 14.9163 14.4412 14.8945 14.5344C14.641 15.4241 14.0963 16.2107 13.3694 16.7655C14.4429 15.644 14.9618 13.7933 14.13 12.325ZM13.4031 16.8686C14.1537 16.29 14.7321 15.4815 14.9856 14.5681C14.9975 14.5344 15.1005 14.4749 15.1698 14.4294C15.2847 14.3719 15.4016 14.3025 15.4233 14.2094C15.4689 13.9439 15.4927 13.6665 15.4927 13.3891C15.4927 13.286 15.3877 13.181 15.2847 13.078C15.2273 13.0086 15.1342 12.9274 15.1342 12.8699C15.0411 12.0258 14.7063 11.2293 14.1874 10.5694C13.9557 9.18238 13.0327 8.75438 13.0089 8.74249C13.0327 8.77815 13.6328 9.64406 13.2169 10.6606C12.7891 11.689 11.6918 11.5285 11.5987 11.5384C11.5056 11.5384 11.1491 12.0001 10.6975 12.8561C10.64 12.8323 10.3964 12.7748 10.1191 12.8224C10.3271 12.2438 10.64 11.4234 10.6975 11.3541C10.7212 11.3303 10.8936 11.2847 11.0104 11.2511C11.2303 11.1936 11.3333 11.1579 11.3689 11.1123C11.3927 11.0767 11.5076 10.8112 11.6224 10.5338C11.7274 10.5338 11.9928 10.51 12.0146 10.4981C12.0384 10.4743 12.2582 9.90958 12.2582 9.84023C12.2582 9.78277 11.8066 8.66125 11.6343 8.23324C11.7155 8.14011 11.7967 8.02519 11.876 7.89837C14.2448 8.15399 16.0948 10.1652 16.0948 12.6024C16.0948 14.4749 14.9975 16.1057 13.4031 16.8686Z" fill="#1B314F"/>
<path d="M10.2364 10.758C10.4529 10.5084 10.3398 10.0424 9.94005 9.96242C10.0434 9.72454 10.1896 9.24683 10.1896 9.24683C10.1896 9.24683 9.02946 11.066 8.92807 11.1011C8.82473 11.1362 8.72334 10.7365 8.72334 10.7365C8.5069 11.5672 9.08796 11.6803 9.15621 11.419C9.47403 11.3371 10.02 10.9959 10.2364 10.758Z" fill="#1B314F"/>
<path d="M9.24597 11.2005L9.83678 10.1885C9.83678 10.1885 10.178 10.3601 10.0064 10.633C9.79193 10.9509 9.24597 11.2005 9.24597 11.2005Z" fill="#FFD923"/>
<path d="M16.5599 15.8879C16.3883 16.1161 16.1953 16.354 15.9691 16.5821C17.4354 13.7606 16.0374 11.179 15.9808 11.0776C16.0842 11.181 16.1855 11.2941 16.2772 11.3955C17.4023 12.6453 17.5387 14.523 16.5599 15.8879Z" fill="#D82122"/>
<path d="M17.9247 12.2592C17.4119 10.8826 16.6846 9.7107 15.0818 8.65388C13.5356 7.6302 11.8743 7.71014 11.7827 7.72184C11.771 7.72184 11.7593 7.72184 11.7593 7.72184C11.8158 7.69845 11.8724 7.68675 11.9289 7.677C12.2818 7.56391 12.7362 7.47226 13.1924 7.41572C14.3994 7.24218 15.6161 7.65165 16.4467 8.52909C16.4584 8.54079 16.4584 8.54079 16.4701 8.55248C17.4139 9.55276 17.9033 10.8026 17.9247 12.2592Z" fill="#D82122"/>
<path d="M14.7173 6.62818C13.0229 6.31035 11.931 6.46829 11.1452 6.76467C11.1218 6.67303 11.0418 6.49169 10.9736 6.3435C10.7377 6.62818 10.4861 6.96941 10.3282 7.18584C9.89533 7.48222 9.71399 7.7669 9.71399 7.7669C9.96357 6.91286 10.6928 6.27721 11.58 6.11732C11.8296 6.07247 12.1026 6.04907 12.3989 6.04907C13.1828 6.06077 13.9666 6.25381 14.7173 6.62818Z" fill="#D82122"/>
<path d="M8.45037 8.81188C7.12057 8.76703 7.56318 7.21884 7.58658 7.12915C7.58658 7.14085 7.67627 8.34586 8.45037 8.81188Z" fill="#D82122"/>
<path d="M9.75885 6.02551C8.73518 6.63972 8.93991 8.10601 8.93991 8.10601C7.96108 6.61827 9.67891 6.06061 9.75885 6.02551Z" fill="#D82122"/>
<path d="M8.076 9.22136C8.14424 9.2779 8.21249 9.38124 8.13254 9.52943C8.0877 9.60938 8.01945 9.59768 7.91611 9.55283C7.77962 9.48459 6.96068 9.00687 6.22168 8.51746C7.06402 8.81383 7.91611 9.13166 8.0526 9.19991C8.0526 9.19991 8.0643 9.21161 8.076 9.22136Z" fill="white"/>
</g>
<defs>
<clipPath id="clip0_1265_22656">
<rect width="24" height="24" fill="white"/>
</clipPath>
</defs>
</svg>