<svg viewBox="0 0 24 24" fill="none" xmlns="http://www.w3.org/2000/svg">
<g clip-path="url(#clip0_1265_22647)">
<path d="M12 24C18.6274 24 24 18.6274 24 12C24 5.37258 18.6274 0 12 0C5.37258 0 0 5.37258 0 12C0 18.6274 5.37258 24 12 24Z" fill="#E9B113"/>
<path fill-rule="evenodd" clip-rule="evenodd" d="M14.3676 9.35256V8.96192H17.9188V11.7023H15.1607V10.9151H14.7641V10.5245H14.3676V10.1398H13.971V9.7432H14.3676V10.1338H14.7582V9.7432H15.1548V9.35256H14.3676ZM15.5513 11.3176H17.5223V9.35256H15.5513V11.3176ZM9.51416 8.50025C9.27149 8.48841 8.96371 8.4529 8.69145 8.26942C8.34816 8.03859 8.17652 7.65978 8.18243 7.15077C8.18243 6.91993 8.2357 6.5944 8.49613 6.34581C8.87543 5.97819 9.45608 5.99602 9.65955 6.00226C9.66246 6.00235 9.6653 6.00244 9.66805 6.00252H9.69172C9.8101 6.00252 10.2363 6.06171 10.7334 6.34581C11.2129 6.61808 11.6449 6.95545 11.9764 7.45263L12.006 7.49998L12.0415 7.41119C12.3552 6.96728 12.7399 6.61216 13.1838 6.36357C13.6869 6.07947 14.1131 6.01436 14.2314 6.01436H14.2551L14.2636 6.0141C14.4671 6.00785 15.0477 5.99002 15.427 6.35765C15.5691 6.4997 15.7407 6.74829 15.7407 7.1626C15.7407 7.67754 15.5691 8.05634 15.2258 8.28717C14.9535 8.46474 14.6457 8.50617 14.4031 8.51801C14.19 8.52393 13.8467 8.52984 13.4797 8.52984H13.4797C12.8878 8.52984 12.219 8.52984 12.0001 8.52393C11.9786 8.52393 11.9093 8.52313 11.8064 8.52196C11.5117 8.51859 10.9421 8.51209 10.4375 8.51209C10.0705 8.51209 9.72132 8.51209 9.51416 8.50025ZM14.2374 6.66543C14.2137 6.66543 13.8941 6.70094 13.4738 6.94361C13.0828 7.17255 12.7536 7.49359 12.515 7.87878C13.095 7.8847 13.9888 7.89062 14.3735 7.87286C14.8292 7.84918 15.0956 7.72489 15.0956 7.1626C15.0956 7.00872 15.0541 6.90218 14.9772 6.82523C14.8529 6.70686 14.6162 6.65359 14.2788 6.66543H14.2374ZM9.54376 6.64767C9.25373 6.64767 9.0525 6.70094 8.94004 6.80748C8.86309 6.88442 8.82758 6.99096 8.82758 7.14485C8.82758 7.70713 9.09393 7.83143 9.54967 7.8551C9.93439 7.87286 10.8281 7.86694 11.4141 7.86102C11.1537 7.45854 10.8281 7.14485 10.4493 6.92585C10.0291 6.68318 9.70948 6.64767 9.68581 6.64767H9.54376ZM12.3966 17.2127H12.7872V16.8221H13.1838V16.4256H13.5803V16.0349H13.1838V15.6384H13.5803V15.2477H13.971V14.8571H15.1547V14.4605H13.971V13.6733H13.5803L13.1838 13.6792V13.2827H13.5803V12.4955H13.971V13.2827H14.3675V12.8861H14.7641V12.4955H15.1547V12.892H14.7641V14.0699H15.1547V13.6733H15.5513V13.2827H16.3385V12.1048H16.7351V13.2827H16.3444V13.6792H16.7351V14.4605H15.9479V14.0699H15.5513V15.6384H14.3675V17.6034H16.3385V15.6384H16.7351V18H13.5803V17.6034H13.971V17.2128H13.5803V16.8221H13.1838V17.2127H12.7932V17.9999H12.3966V17.2127ZM10.8162 10.5305V10.1399H11.2068V9.7433H10.8162V8.96202H9.63245V9.35266H10.4196V9.7433H10.0231V10.1339H9.63245V9.7433H9.24181V8.96202H6.08118V11.7143H9.24181V11.3177H9.63245V10.5305H10.029V10.9211H10.4256V10.5305H10.8162ZM9.63245 10.1339V10.5246H9.24181V10.1399H8.83933V9.74922H9.23589V10.1339H9.63245ZM8.44869 11.3177H6.47774V9.35266H8.44869V11.3177ZM8.83933 11.3177V10.5305H9.23589V11.3177H8.83933ZM10.4196 10.1339V9.74922H10.8162V10.1339H10.4196ZM13.5803 14.4606V14.0699H12.7872V13.2827H12.3965V12.099H11.6093V12.4955H11.2068V13.2827H10.8162V13.6734H11.2128V13.2827H11.6034V14.4606H10.8162V14.0699H10.4196V13.2827H10.029V12.8921H9.23589V12.5015H8.83933V12.1108H8.05213V12.5015H7.65557V12.8921H8.05213V13.2827H8.44869V13.6734H8.84525V14.064H9.23589V13.6734H9.63245V14.064H9.24181V14.8512H10.029V15.2478H9.23589V14.8571H8.83933V15.2478H8.05213V14.8571H7.66149V15.2478H7.26493V18H10.029V15.6384H10.4196V16.8222H11.2128V16.4315H11.6093V15.6384H11.2128V15.2478H10.8162V15.6384H10.4256V14.8512H11.6093V15.2419H12.0059V14.4606H12.7872V14.8571H13.1837V14.4606H13.5803ZM9.63245 13.6734V13.2827H10.0231V13.6734H9.63245ZM8.44869 13.2827V12.8921H8.84525V13.2827H8.44869ZM12.3965 13.2827V13.6734H12.0059V13.2827H12.3965ZM9.63245 17.6034H7.66149V15.6384H9.63245V17.6034ZM10.029 14.4606H9.63245V14.0699H10.029V14.4606ZM10.8162 16.035H11.2128V16.4256H10.8162V16.035ZM13.5803 8.96202H13.9709V9.7433H13.5803V8.96202ZM12.7872 9.7433H13.5803V10.5305H14.3675V11.3177H13.9709V11.7143H13.5803V10.9211H13.1837V11.7083H12.7872V10.9211H12.3965V10.5305H12V10.1399H11.6035V10.5305H11.2128V10.1399H11.6034V9.7433H12V10.1399H12.3965V8.96202H12.7872V9.7433ZM11.2128 11.3177H10.8163V11.7083H10.4256V10.9211H10.8163V10.5305H11.2128V11.3177ZM11.2128 11.3177H11.6035V11.7083H11.2128V11.3177ZM11.6035 17.2128V18H12V16.8222H12.3966V16.4256H12.7872V15.2478H12.3966V16.4256H12V16.8222H11.2128V17.2128H11.6035ZM7.65562 12.8921H7.26498V14.8571H7.65562V14.0699H8.05218V13.2827H7.65562V12.8921ZM8.05218 16.035H9.23594V17.2128H8.05218V16.035ZM7.26498 12.1049H7.66154V12.4955H7.26498V12.1049ZM9.6325 11.3177H10.0291V11.7143H9.6325V11.3177ZM12 10.9211H12.3966V11.7083H12V10.9211ZM6.86843 9.7433H8.05218V10.9211H6.86843V9.7433ZM10.4197 17.2128H10.8163V18H10.4197V17.2128ZM9.23594 12.1049H10.4197V12.4955H9.23594V12.1049ZM13.1837 14.8571H13.5803V15.2478H13.1837V14.8571ZM15.1547 12.8921H15.5513V13.2827H15.1547V12.8921ZM15.9478 14.8571H16.735V15.2537H15.9478V14.8571ZM15.9478 9.74922H17.1316V10.9271H15.9478V9.74922ZM14.3675 11.3177H14.7641V11.7143H14.3675V11.3177ZM12.7872 12.1049H13.1837V12.4955H12.7872V12.1049ZM15.5513 12.1049H15.9478V12.4955H15.5513V12.1049ZM14.7641 16.035H15.9478V17.2128H14.7641V16.035ZM14.3675 12.1049H14.7641V12.4955H14.3675V12.1049Z" fill="white"/>
</g>
<defs>
<clipPath id="clip0_1265_22647">
<rect width="24" height="24" fill="white"/>
</clipPath>
</defs>
</svg>