<svg viewBox="0 0 24 24" fill="none" xmlns="http://www.w3.org/2000/svg">
<path fill-rule="evenodd" clip-rule="evenodd" d="M4 0C1.79086 0 0 1.79086 0 4V20C0 22.2091 1.79086 24 4 24H20C22.2091 24 24 22.2091 24 20V4C24 1.79086 22.2091 0 20 0H4ZM6.21505 13.7124C5.52509 14.3772 4.57796 15.2303 3.37366 16.2715L2.01882 17.4382V19H11.164V17.2124H5.19892L6.0457 16.4597C7.02419 15.5941 7.82706 14.8351 8.4543 14.1828C9.09409 13.5179 9.63978 12.7715 10.0914 11.9435C10.5556 11.103 10.7876 10.2312 10.7876 9.32796C10.7876 8.07347 10.3987 7.06989 9.62097 6.3172C8.85573 5.56452 7.78943 5.18817 6.42204 5.18817C5.15502 5.18817 4.10753 5.57079 3.27957 6.33602C2.46416 7.08871 2.03763 8.18011 2 9.61021H4.06989C4.09498 8.81989 4.30824 8.19265 4.70968 7.72849C5.12366 7.25179 5.70072 7.01344 6.44086 7.01344C7.20609 7.01344 7.76434 7.2267 8.11559 7.65322C8.47939 8.07975 8.66129 8.66935 8.66129 9.42204C8.66129 10.1496 8.42921 10.8772 7.96505 11.6048C7.5009 12.3324 6.91756 13.0349 6.21505 13.7124ZM22 19L18.6505 13.75L22 8.63172H19.7608L17.6532 12.1505L15.414 8.63172H12.9866L16.336 13.9005L12.9866 19H15.2258L17.3333 15.4812L19.5726 19H22Z" fill="currentColor"/>
</svg>