<svg width="24" height="24" viewBox="0 0 24 24" fill="none" xmlns="http://www.w3.org/2000/svg">
<path fill-rule="evenodd" clip-rule="evenodd" d="M20.5558 17.3333H3.44417C2.64833 17.3333 2 16.6975 2 15.9167V5.41667C2 4.63583 2.64833 4 3.44417 4H20.5558C21.3517 4 22 4.63583 22 5.41667V15.9167C22 16.6975 21.3517 17.3333 20.5558 17.3333ZM20.3333 5.66667H3.66667V15.6667H20.3333V5.66667ZM9.66665 7.66667C9.88248 7.38001 10.2583 7.26334 10.5966 7.37584C10.9375 7.49001 11.1666 7.80751 11.1666 8.16667V13.1667C11.1666 13.6267 10.7933 14 10.3333 14C9.87332 14 9.49998 13.6267 9.49998 13.1667V12.3333H7.83332C7.51748 12.3333 7.22915 12.155 7.08832 11.8725C6.94665 11.5908 6.97748 11.2525 7.16665 11L9.66665 7.66667ZM12.8333 7.33334C13.2933 7.33334 13.6667 7.70667 13.6667 8.16667V9.48834L15.5775 7.5775C15.9033 7.25167 16.43 7.25167 16.7558 7.5775C17.0817 7.9025 17.0817 8.43001 16.7558 8.75584L14.845 10.6667L16.7558 12.5775C17.0817 12.9033 17.0817 13.43 16.7558 13.7558C16.5933 13.9183 16.38 14 16.1667 14C15.9533 14 15.74 13.9183 15.5775 13.7558L13.6667 11.845V13.1667C13.6667 13.6267 13.2933 14 12.8333 14C12.3733 14 12 13.6267 12 13.1667V8.16667C12 7.70667 12.3733 7.33334 12.8333 7.33334ZM7 19H17C17.46 19 17.8333 19.3733 17.8333 19.8333C17.8333 20.2933 17.46 20.6667 17 20.6667H7C6.54 20.6667 6.16667 20.2933 6.16667 19.8333C6.16667 19.3733 6.54 19 7 19Z" fill="#6B7084"/>
</svg>
