<svg width="24" height="24" viewBox="0 0 24 24" fill="none" xmlns="http://www.w3.org/2000/svg">
<path d="M22 12.0017C22.0068 17.4733 17.5722 22 12.0017 22C6.43118 22 1.99659 17.4699 2 11.9949C2.00341 6.51987 6.43118 2 12.0051 2C17.5791 2 22.0102 6.53352 22 12.0017Z" fill="#FE9B00"/>
<path d="M19.6872 13.2434C19.6701 13.2093 19.6838 13.182 19.6838 13.1547C19.7417 12.5612 19.3631 12.0359 18.79 11.9131C18.4148 11.8346 18.0805 11.9403 17.7939 12.1859C17.446 12.4827 17.1151 12.8 16.7876 13.1206C16.3885 13.5129 15.9974 13.912 15.6142 14.318C15.3447 14.6045 15.0308 14.8262 14.6556 14.9559C13.5981 15.3174 12.4417 14.7512 12.0392 13.7688C11.9914 13.6494 11.9949 13.6255 12.0904 13.5436C12.3121 13.3492 12.5372 13.1581 12.759 12.9637C12.7658 12.9569 12.7726 12.9535 12.7794 12.9467C12.8067 12.9296 12.8272 12.8887 12.8613 12.9057C12.8954 12.9228 12.8749 12.9603 12.8784 12.9876C12.8918 13.2513 12.997 13.5021 13.1758 13.6964C13.3546 13.8908 13.5957 14.0165 13.8574 14.0519C14.3998 14.1269 14.9422 13.796 15.1059 13.2775C15.3003 12.6635 14.9763 12.0529 14.3486 11.8517C13.9665 11.7288 13.6186 11.8107 13.315 12.0631C13.066 12.2678 12.8272 12.4827 12.585 12.6976C12.4247 12.8409 12.2643 12.9876 12.1006 13.1274C12.0381 13.1811 11.996 13.2545 11.9812 13.3355C11.8516 13.9939 11.4832 14.4851 10.8999 14.8092C10.5346 15.0129 10.1148 15.0975 9.6991 15.0514C9.247 15.0127 8.81966 14.8284 8.48129 14.526C8.24206 14.3162 8.05516 14.0534 7.9355 13.7585C7.92834 13.7443 7.92263 13.7295 7.91844 13.7142C7.90644 13.6892 7.90362 13.6608 7.91049 13.634C7.91735 13.6072 7.93345 13.5836 7.95597 13.5675C8.03442 13.5027 8.10947 13.4379 8.18793 13.3731C8.34826 13.2332 8.50858 13.0933 8.67232 12.9569C8.69961 12.933 8.7269 12.8921 8.76101 12.9057C8.79513 12.9194 8.78148 12.9671 8.78489 13.0012C8.79279 13.2587 8.88631 13.5061 9.05065 13.7045C9.21499 13.9028 9.44078 14.0406 9.69228 14.0962C9.97665 14.1568 10.2734 14.1065 10.522 13.9556C10.7705 13.8047 10.952 13.5646 11.0295 13.2844C11.2342 12.5305 10.6372 11.7868 9.85943 11.8244C9.6224 11.8314 9.3949 11.9192 9.21471 12.0734C8.99298 12.2576 8.77466 12.4486 8.55975 12.6396C8.33802 12.8341 8.1197 13.0319 7.89797 13.2264C7.86825 13.2506 7.84448 13.2814 7.82851 13.3163C7.81254 13.3512 7.8048 13.3893 7.80587 13.4276V14.9081C7.80587 15.048 7.78541 15.0684 7.64555 15.065C7.51411 15.065 7.38423 15.0366 7.26474 14.9819C7.14524 14.9271 7.03894 14.8473 6.95307 14.7478C6.88484 14.6693 6.8712 14.6693 6.77909 14.7205C6.44138 14.9081 6.0832 15.0104 5.69774 14.9968C4.90633 14.9695 4.30255 14.6113 3.8932 13.9325C3.70049 13.6126 3.60122 13.2451 3.60666 12.8716C3.60703 12.3814 3.77969 11.9068 4.09446 11.531C4.41512 11.1387 4.82446 10.8829 5.32591 10.801C5.99451 10.6952 6.60853 10.8181 7.12363 11.2854C7.28729 11.4346 7.42962 11.6056 7.54662 11.7937C7.5634 11.8314 7.59217 11.8626 7.62849 11.8824C7.6535 11.8663 7.6739 11.8441 7.68766 11.8177C7.70142 11.7914 7.70807 11.7619 7.70695 11.7323C7.70354 11.3945 7.70695 11.0568 7.70695 10.7157C7.70695 9.94819 7.70581 9.1818 7.70354 8.41655C7.70354 8.26646 7.72059 8.24941 7.8741 8.24941C8.10046 8.24968 8.31879 8.3333 8.48741 8.48431C8.65604 8.63532 8.76315 8.84314 8.7883 9.0681C8.79511 9.12241 8.79853 9.1771 8.79854 9.23184V11.0227C8.80195 11.1046 8.81901 11.1148 8.89405 11.0773C9.11335 10.9612 9.3511 10.8838 9.59676 10.8488C10.2074 10.7635 10.7532 10.917 11.2376 11.299C11.3997 11.4293 11.5412 11.5835 11.6571 11.7561C11.6639 11.7683 11.6719 11.7797 11.681 11.7902C11.7049 11.8244 11.7254 11.8619 11.7697 11.8687C11.7936 11.8721 11.8618 11.7834 11.8652 11.7459C11.871 11.6995 11.8733 11.6528 11.872 11.606V9.20796C11.872 8.71333 12.1791 8.34151 12.6669 8.24941C12.7205 8.23682 12.7755 8.23108 12.8306 8.23235C12.9022 8.23576 12.9329 8.26305 12.95 8.33127C12.9613 8.38508 12.9659 8.44008 12.9636 8.49501V11.0159C12.9705 11.0602 12.9841 11.0739 13.0285 11.0568C13.0864 11.033 13.1444 11.0057 13.2024 10.9818C14.0211 10.6543 14.9387 10.8522 15.5323 11.4866C15.7315 11.7012 15.8868 11.9527 15.9894 12.2269L16.0099 12.2883C16.044 12.377 16.0542 12.3804 16.1258 12.3156L17.0878 11.4662C17.3574 11.2204 17.6848 11.0467 18.0395 10.9613C18.5374 10.8447 19.0605 10.9112 19.5134 11.1486C19.9662 11.386 20.3185 11.7784 20.5059 12.2542C20.5255 12.2931 20.5314 12.3374 20.5228 12.3801C20.5141 12.4228 20.4913 12.4614 20.4581 12.4895C20.2227 12.7215 19.9942 12.9569 19.7588 13.1923C19.7388 13.2141 19.7143 13.2316 19.6872 13.2434Z" fill="#191C31"/>
<path d="M18.7627 14.1677C18.7619 14.1807 18.758 14.1933 18.7515 14.2045C18.745 14.2158 18.736 14.2254 18.7252 14.2325C18.4761 14.4816 18.2271 14.7306 17.9815 14.983C17.9615 15.0065 17.9344 15.0229 17.9042 15.0297C17.8741 15.0364 17.8425 15.0332 17.8144 15.0205C17.2276 14.8022 16.8126 14.4054 16.5693 13.83C16.5318 13.7447 16.5386 13.7174 16.6068 13.6595C16.849 13.448 17.0946 13.2365 17.3368 13.0284C17.3521 13.0112 17.3724 12.9993 17.3948 12.9943C17.4187 13.0181 17.4119 13.0488 17.4153 13.0761C17.4275 13.2366 17.4679 13.3936 17.5347 13.5401C17.695 13.8744 17.9679 14.0654 18.3192 14.1507C18.3941 14.1678 18.471 14.1746 18.5478 14.1711C18.616 14.1643 18.6876 14.1677 18.7627 14.1677Z" fill="#191C31"/>
<path d="M6.87467 12.8989C6.89173 13.5061 6.37323 14.0348 5.74215 14.0417C5.44064 14.0432 5.15079 13.9253 4.936 13.7137C4.72121 13.5021 4.59896 13.214 4.59598 12.9125C4.58575 12.2917 5.07355 11.7595 5.74215 11.7459C6.35958 11.7322 6.87808 12.2371 6.87467 12.8989Z" fill="#FF9C00"/>
</svg>
