<svg width="24" height="24" viewBox="0 0 24 24" fill="none" xmlns="http://www.w3.org/2000/svg">
<g clip-path="url(#clip0_1265_22561)">
<path d="M12 24C18.6274 24 24 18.6274 24 12C24 5.37258 18.6274 0 12 0C5.37258 0 0 5.37258 0 12C0 18.6274 5.37258 24 12 24Z" fill="#3EFFFF"/>
<path d="M6 8.49173L12.0455 5L18.0909 8.49173V15.5083L12.0455 19L6 15.5083V8.49173ZM6.58036 14.8363L9.00491 13.4331L10.235 11.279L6.58036 9.16436V14.8363ZM6.87118 15.3396L11.7725 18.1708V15.4618L9.20282 13.9899L6.87118 15.339V15.3396ZM17.5105 9.18409L13.8884 11.2796L15.1178 13.4318L17.5105 14.8165V9.18409ZM17.2369 8.66991L12.3528 5.84891V8.591L13.6001 10.7744L17.2369 8.66991ZM13.3888 11.5685L12.643 12L14.1225 12.8559L13.3888 11.5685ZM13.1005 11.0633L12.3528 9.75236V11.496L13.1005 11.0633ZM10.0053 12.8546L11.4816 12L10.7377 11.5698L10.0059 12.8546H10.0053ZM9.78509 13.6539L11.7725 14.7917V12.504L9.78509 13.6539ZM6.87055 8.66036L10.5233 10.7731L11.7725 8.58718V5.82918L6.87055 8.66036ZM17.2369 15.3301L14.9231 13.9912L12.3528 15.4809V18.1511L17.2369 15.3301ZM14.3427 13.6552L12.3528 12.504V14.8089L14.3427 13.6545V13.6552ZM11.026 11.0645L11.7725 11.496V9.75555L11.026 11.0645Z" fill="#181818"/>
</g>
<defs>
<clipPath id="clip0_1265_22561">
<rect width="24" height="24" fill="white"/>
</clipPath>
</defs>
</svg>
