<svg viewBox="0 0 24 24" fill="none" xmlns="http://www.w3.org/2000/svg">
<path fill-rule="evenodd" clip-rule="evenodd" d="M11.9965 22C14.6691 22 17.1807 20.96 19.0692 19.0717C20.9593 17.1825 22 14.6708 22 12C22 9.32917 20.9593 6.8175 19.0692 4.92917C17.1807 3.04 14.6691 2 11.9965 2C9.32481 2 6.81326 3.04 4.92393 4.92917C1.02536 8.8275 1.02536 15.1717 4.92393 19.0708C6.81326 20.96 9.32481 22 11.9965 22ZM11.9965 3.66667C14.2238 3.66667 16.3169 4.53333 17.8909 6.1075C19.4658 7.68167 20.3329 9.77417 20.3329 12C20.3329 14.2258 19.4658 16.3192 17.8909 17.8925C16.3169 19.4667 14.2238 20.3333 11.9965 20.3333C9.77011 20.3333 7.67701 19.4667 6.10299 17.8925C2.85348 14.6433 2.85348 9.35667 6.10299 6.1075C7.67701 4.53333 9.77011 3.66667 11.9965 3.66667ZM11.9999 8.90904C11.1966 8.90904 10.5454 8.25783 10.5454 7.45452C10.5454 6.65121 11.1966 6 11.9999 6C12.8032 6 13.4544 6.65121 13.4544 7.45452C13.4544 8.25783 12.8032 8.90904 11.9999 8.90904ZM8.32345 10.2412C7.98943 10.0181 7.89948 9.56654 8.12254 9.23252C8.3456 8.8985 8.7972 8.80855 9.13122 9.03161C10.1192 9.69137 11.0771 10.013 12.0151 10.013C12.9514 10.013 13.8971 9.69253 14.8636 9.03509C15.1957 8.80918 15.6481 8.89526 15.874 9.22736C16.0999 9.55946 16.0138 10.0118 15.6817 10.2377C14.7137 10.8962 13.7268 11.2939 12.7271 11.422V13.1817L14.1159 16.221C14.2828 16.5863 14.122 17.0178 13.7567 17.1847C13.3913 17.3517 12.9599 17.1908 12.7929 16.8255L11.9999 15.09L11.2068 16.8255C11.0399 17.1908 10.6084 17.3517 10.2431 17.1847C9.87778 17.0178 9.71696 16.5863 9.88389 16.221L11.2726 13.1819V11.4181C10.2815 11.2863 9.29673 10.8912 8.32345 10.2412Z" fill="currentColor"/>
</svg>