<svg viewBox="0 0 24 24" fill="none" xmlns="http://www.w3.org/2000/svg">
<g clip-path="url(#clip0_1265_22557)">
<path d="M12 24C18.6274 24 24 18.6274 24 12C24 5.37258 18.6274 0 12 0C5.37258 0 0 5.37258 0 12C0 18.6274 5.37258 24 12 24Z" fill="#767DFF"/>
<path fill-rule="evenodd" clip-rule="evenodd" d="M10.6628 6.60315H13.3372C13.4299 6.6031 13.5209 6.62774 13.6009 6.67454C13.6809 6.72133 13.747 6.78859 13.7923 6.86939L17.9335 14.2565C17.9771 14.3343 18 14.4221 18 14.5113C18 14.6005 17.9771 14.6883 17.9335 14.7662L16.6083 17.13C16.563 17.2108 16.4971 17.2781 16.4172 17.325C16.3373 17.3719 16.2464 17.3967 16.1538 17.3968H7.84624C7.75351 17.3968 7.66245 17.3721 7.58245 17.3252C7.50246 17.2783 7.43641 17.2109 7.39111 17.13L6.06648 14.7662C6.02289 14.6883 6 14.6005 6 14.5113C6 14.4221 6.02289 14.3343 6.06648 14.2565L10.2077 6.86939C10.253 6.78859 10.3191 6.72133 10.3991 6.67454C10.4791 6.62774 10.5701 6.6031 10.6628 6.60315ZM12 9.54202L9.20984 14.5113H14.7902L12 9.54202Z" fill="white"/>
</g>
<defs>
<clipPath id="clip0_1265_22557">
<rect width="24" height="24" fill="white"/>
</clipPath>
</defs>
</svg>