<svg viewBox="0 0 24 24" fill="none" xmlns="http://www.w3.org/2000/svg">
<g clip-path="url(#clip0_1265_22553)">
<path d="M12 24C18.6274 24 24 18.6274 24 12C24 5.37258 18.6274 0 12 0C5.37258 0 0 5.37258 0 12C0 18.6274 5.37258 24 12 24Z" fill="#FF0000"/>
<path d="M4.27067 16.1407L7.82867 9.66267C7.976 9.392 8.22067 9.31867 8.46867 9.46533H8.49467C8.55025 9.49876 8.61217 9.52028 8.6765 9.52854C8.74083 9.5368 8.80617 9.53162 8.8684 9.51332C8.93062 9.49502 8.98837 9.46401 9.03799 9.42224C9.08761 9.38047 9.12802 9.32886 9.15667 9.27067L11.656 5.44133C11.7407 5.28 11.8487 5.13133 11.976 5C12.088 5.13733 12.1713 5.29533 12.2207 5.46533L13.3007 8.14067C13.5453 8.75533 14.134 9.19667 14.7487 9.19667H14.944C15.2593 9.20867 15.558 9.34 15.7793 9.56467L16.5633 10.398C16.796 10.6447 17.01 10.9067 17.2033 11.184L19.7313 14.816C19.826 14.96 19.916 15.1073 20 15.2573V15.2813C19.8638 15.1755 19.7403 15.0542 19.632 14.92L16.2207 11.3807C16.01 11.1681 15.8282 10.9287 15.68 10.6687C15.408 10.08 15.0653 9.83333 14.5267 9.85933H13.84C13.424 9.85933 13.3247 9.786 13.2 9.368L12.2207 6.30133C12.0493 5.68667 12.024 5.68667 11.8527 6.30133L11.1907 8.38133C11.0433 8.79667 10.9933 9.48467 11.0673 9.48467C11.0927 9.48467 11.264 9.16467 11.534 8.60133C11.5853 8.48667 11.6507 8.37933 11.7293 8.28133C11.792 8.516 11.8253 8.75733 11.8293 9C11.7573 9.16933 11.6753 9.33333 11.5827 9.49133L11.5587 9.56467C11.264 10.104 11.264 10.1293 11.5827 10.6447L11.8767 11.1347C11.9887 11.2853 12.0793 11.4507 12.1473 11.6253C12.0082 11.7429 11.8605 11.8499 11.7053 11.9453L10.184 12.9267C9.91247 13.0755 9.61008 13.1593 9.30067 13.1713C8.76 13.1473 8.294 13.418 7.87667 13.9807L7.288 14.816C7.076 15.0773 6.83733 15.316 6.576 15.528L6.03667 15.9693C5.75915 16.1618 5.46326 16.3264 5.15333 16.4607L4.85933 16.534C4.646 16.6113 4.42267 16.6607 4.19667 16.68C4.096 16.68 4 16.68 4 16.656C4.07667 16.4773 4.16667 16.3053 4.27067 16.1407Z" fill="white"/>
</g>
<defs>
<clipPath id="clip0_1265_22553">
<rect width="24" height="24" fill="white"/>
</clipPath>
</defs>
</svg>