<svg viewBox="0 0 24 24" fill="none" xmlns="http://www.w3.org/2000/svg">
<g clip-path="url(#clip0_1265_22548)">
<path d="M12 24C18.6274 24 24 18.6274 24 12C24 5.37258 18.6274 0 12 0C5.37258 0 0 5.37258 0 12C0 18.6274 5.37258 24 12 24Z" fill="#0061FF"/>
<path d="M11.816 5.2406C12.1428 5.0721 12.5418 5.46162 12.3686 5.78292C12.2669 6.04488 11.8842 6.11446 11.6891 5.91458C11.4824 5.72358 11.5499 5.34429 11.816 5.23992V5.2406ZM8.2994 5.61306C8.49791 5.53257 8.74963 5.7113 8.72916 5.92482C8.74963 6.15539 8.46312 6.32593 8.26051 6.2161C7.99242 6.11378 8.02312 5.68537 8.2994 5.61306ZM15.5018 6.22224C15.1914 6.18541 15.1423 5.70516 15.4404 5.60829C15.6723 5.49778 15.8851 5.70584 15.9193 5.92209C15.8701 6.10627 15.7132 6.27545 15.5018 6.22224ZM9.09958 7.08519C9.4318 6.87849 9.90523 7.18615 9.85407 7.56612C9.83701 7.94882 9.31993 8.17121 9.02796 7.91198C8.74554 7.7087 8.78851 7.24209 9.09958 7.08519ZM14.1681 7.30485C14.3162 6.92966 14.9165 6.91738 15.085 7.28302C15.2521 7.56749 15.0468 7.92017 14.75 8.01704C14.3564 8.08935 13.9833 7.6705 14.1681 7.30485ZM11.3924 7.99589C11.389 7.67254 11.6877 7.43242 11.9995 7.4099C12.2069 7.45083 12.432 7.53747 12.5207 7.7428C12.6864 8.02659 12.5391 8.41611 12.241 8.5464C12.1046 8.62144 11.9422 8.59347 11.7935 8.58461C11.5663 8.47546 11.3746 8.25921 11.3924 7.99589ZM6.16283 8.46659C6.4664 8.2824 6.8757 8.61667 6.76042 8.94138C6.69766 9.22175 6.31428 9.33568 6.0953 9.15695C5.86131 8.98913 5.89815 8.58597 6.16351 8.46591L6.16283 8.46659ZM17.3928 8.46522C17.6499 8.26876 18.0749 8.49456 18.0435 8.81382C18.0613 9.1051 17.6936 9.32544 17.4385 9.17537C17.1574 9.05053 17.1281 8.62485 17.3928 8.46591V8.46522ZM12.8631 9.04575C13.2874 8.89568 13.7922 9.07509 14.0337 9.44824C14.353 9.90324 14.1838 10.5963 13.6879 10.8576C13.1749 11.1666 12.4252 10.9054 12.2348 10.3405C12.02 9.83571 12.3338 9.20402 12.8624 9.04575H12.8631ZM10.3712 9.09555C10.8419 8.87726 11.4756 9.06008 11.7028 9.53351C11.9702 9.99466 11.7635 10.6366 11.2853 10.8747C10.8064 11.1428 10.1303 10.9395 9.89909 10.4449C9.63918 9.966 9.86976 9.31589 10.3712 9.09555ZM7.87645 9.93394C7.9126 9.63583 8.19843 9.44141 8.48699 9.42095C8.63748 9.43684 8.77813 9.50332 8.88593 9.60951C8.99374 9.71571 9.06233 9.85534 9.08048 10.0056C9.06002 10.3125 8.81921 10.6113 8.48904 10.61C8.12544 10.6407 7.80687 10.2846 7.87645 9.93394ZM15.2453 9.48644C15.6184 9.27292 16.1362 9.5833 16.1198 10.0049C16.1451 10.4517 15.572 10.7662 15.2009 10.5042C14.8148 10.2859 14.8448 9.67199 15.2453 9.48644ZM9.35813 11.0602C9.79335 10.9422 10.2927 11.1441 10.5062 11.5384C10.7402 11.9354 10.6447 12.4866 10.2811 12.7786C9.81382 13.2056 8.9536 13.0337 8.70529 12.4512C8.41946 11.917 8.76668 11.2007 9.35745 11.0595L9.35813 11.0602ZM14.0835 11.0582C14.5072 10.9388 15.0051 11.0991 15.233 11.4791C15.5345 11.9136 15.3906 12.5624 14.9424 12.842C14.4717 13.1674 13.7445 12.9969 13.4853 12.488C13.1715 11.962 13.4873 11.2185 14.0835 11.0582ZM6.55235 11.5534C6.92891 11.4136 7.3464 11.8222 7.19359 12.1899C7.10082 12.5241 6.62125 12.6483 6.37362 12.4014C6.0837 12.1694 6.1908 11.6544 6.55235 11.5534ZM16.7638 12.0869C16.7567 11.9367 16.8092 11.7898 16.9099 11.6782C17.0106 11.5665 17.1512 11.4991 17.3013 11.4907C17.5592 11.5316 17.8102 11.7362 17.7898 12.0125C17.8137 12.3775 17.3668 12.6251 17.0503 12.4539C16.9023 12.3795 16.8265 12.2301 16.7638 12.0869ZM4.70026 11.7349C4.92674 11.6373 5.20711 11.8304 5.15526 12.078C5.14299 12.3584 4.72208 12.4668 4.56791 12.2322C4.43148 12.0691 4.51334 11.8188 4.70026 11.7342V11.7349ZM18.9911 11.7287C19.1507 11.6175 19.4072 11.6974 19.47 11.8809C19.5771 12.0814 19.3806 12.3557 19.1514 12.3222C18.8294 12.3509 18.7257 11.8686 18.9911 11.7287ZM10.5888 13.0747C11.185 12.9225 11.8262 13.4117 11.8303 14.0161C11.8685 14.6266 11.2368 15.1676 10.627 15.027C10.1549 14.952 9.78448 14.5045 9.80018 14.0358C9.79881 13.587 10.1426 13.1695 10.5888 13.0747ZM12.9504 13.074C13.5555 12.9075 14.2159 13.4055 14.2063 14.0236C14.2384 14.6225 13.6265 15.1457 13.0289 15.0264C12.4661 14.9554 12.0513 14.3476 12.2082 13.81C12.2874 13.4526 12.5916 13.162 12.9504 13.0733V13.074ZM8.39626 13.4458C8.81512 13.3755 9.20805 13.8346 9.03819 14.2262C8.91403 14.6437 8.29735 14.7562 8.02448 14.4158C7.70522 14.0884 7.94398 13.4908 8.39626 13.4458ZM15.323 13.4642C15.6969 13.31 16.1553 13.6279 16.1266 14.027C16.1416 14.4656 15.5754 14.7685 15.2105 14.512C14.7964 14.2821 14.8721 13.6047 15.323 13.4642ZM17.259 15.3743C17.1131 15.1062 17.3784 14.7508 17.682 14.8006C17.8321 14.7978 17.9378 14.9145 18.034 15.0127C18.0538 15.1717 18.0872 15.3613 17.9528 15.4834C17.7707 15.7106 17.358 15.6458 17.259 15.3743ZM6.16147 14.8749C6.44457 14.69 6.85183 14.9663 6.7877 15.291C6.75359 15.5796 6.38522 15.744 6.14305 15.5803C5.88246 15.4322 5.89201 15.01 6.16147 14.8749ZM11.7505 15.4773C12.1209 15.317 12.593 15.6342 12.5575 16.0353C12.5848 16.4787 12.0015 16.7857 11.6393 16.5196C11.2368 16.2911 11.3044 15.6185 11.7505 15.4773ZM9.16234 16.0714C9.47751 15.9084 9.90045 16.1901 9.8718 16.5381C9.88135 16.8232 9.59893 17.0661 9.31242 17.0238C9.07571 17.019 8.92154 16.8096 8.84513 16.611C8.84923 16.3948 8.93996 16.154 9.16234 16.0721V16.0714ZM14.4055 16.0769C14.7302 15.8791 15.1914 16.1629 15.1607 16.534C15.1689 16.9228 14.6477 17.1711 14.3455 16.916C14.0535 16.7161 14.089 16.2358 14.4055 16.0769ZM15.3176 18.294C15.173 18.0798 15.3428 17.8212 15.5768 17.7721C15.7658 17.8096 15.9656 17.9495 15.9254 18.1637C15.8981 18.455 15.4656 18.5436 15.3176 18.2946V18.294ZM8.07905 18.1077C8.13636 17.9372 8.27552 17.7687 8.47949 17.813C8.77623 17.8335 8.86423 18.2742 8.60433 18.4099C8.37102 18.5648 8.09952 18.3526 8.07905 18.1077ZM11.5718 18.3035C11.6284 18.0511 11.9592 17.929 12.1775 18.0627C12.3222 18.1241 12.3645 18.2824 12.4013 18.4174C12.3818 18.4876 12.3636 18.5581 12.3467 18.6289C12.2574 18.7326 12.1421 18.837 11.9934 18.8336C11.7171 18.8656 11.4674 18.558 11.5711 18.3035H11.5718Z" fill="white"/>
</g>
<defs>
<clipPath id="clip0_1265_22548">
<rect width="24" height="24" fill="white"/>
</clipPath>
</defs>
</svg>