<svg width="24" height="24" viewBox="0 0 24 24" fill="none" xmlns="http://www.w3.org/2000/svg">
<g clip-path="url(#clip0_1265_22544)">
<path d="M12 24C18.6274 24 24 18.6274 24 12C24 5.37258 18.6274 0 12 0C5.37258 0 0 5.37258 0 12C0 18.6274 5.37258 24 12 24Z" fill="#FEC807"/>
<path fill-rule="evenodd" clip-rule="evenodd" d="M17.0847 12.9334H14.2113L13.6982 11.3941H17.08C17.1957 11.3941 17.3066 11.3482 17.3884 11.2664C17.4702 11.1846 17.5162 11.0737 17.5162 10.958C17.5162 10.8423 17.4702 10.7314 17.3884 10.6496C17.3066 10.5678 17.1957 10.5219 17.08 10.5219H13.4207L11.9531 6.04798C11.9345 5.90017 11.8638 5.76384 11.7537 5.66347C11.6436 5.5631 11.5014 5.50526 11.3525 5.50034C11.2036 5.49542 11.0578 5.54375 10.9413 5.63664C10.8249 5.72954 10.7453 5.86091 10.717 6.00717L7.20695 16.679C7.19762 16.7373 7.19762 16.7957 7.20695 16.854C7.20938 16.9962 7.26308 17.1327 7.35818 17.2384C7.45327 17.3442 7.58336 17.412 7.7245 17.4295C7.86564 17.4469 8.00833 17.4128 8.12632 17.3334C8.24432 17.254 8.32967 17.1347 8.36667 16.9974L11.3117 8.01817L12.1531 10.5219H11.4243C11.3086 10.5219 11.1977 10.5678 11.1159 10.6496C11.0341 10.7314 10.9881 10.8423 10.9881 10.958C10.9881 11.0737 11.0341 11.1846 11.1159 11.2664C11.1977 11.3482 11.3086 11.3941 11.4243 11.3941H12.4505L12.9636 12.9334H11.4243C11.367 12.9334 11.3103 12.9447 11.2574 12.9666C11.2045 12.9885 11.1564 13.0207 11.1159 13.0612C11.0754 13.1017 11.0433 13.1497 11.0213 13.2027C10.9994 13.2556 10.9881 13.3123 10.9881 13.3696C10.9881 13.4268 10.9994 13.4835 11.0213 13.5365C11.0433 13.5894 11.0754 13.6374 11.1159 13.6779C11.1564 13.7184 11.2045 13.7506 11.2574 13.7725C11.3103 13.7944 11.367 13.8057 11.4243 13.8057H13.2668L14.0976 16.2686H9.69023C9.52693 16.2686 9.37032 16.3334 9.25485 16.4489C9.13938 16.5644 9.07451 16.721 9.07451 16.8843C9.07451 17.0476 9.13938 17.2042 9.25485 17.3197C9.37032 17.4351 9.52693 17.5 9.69023 17.5H14.9034C15.2265 17.5 15.4882 17.2382 15.4882 16.9152C15.4886 16.8265 15.4692 16.7389 15.4317 16.6586L14.493 13.8057H17.0584C17.1157 13.8057 17.1724 13.7944 17.2253 13.7725C17.2783 13.7506 17.3263 13.7184 17.3668 13.6779C17.4073 13.6374 17.4395 13.5894 17.4614 13.5365C17.4833 13.4835 17.4946 13.4268 17.4946 13.3696C17.4946 13.3123 17.4833 13.2556 17.4614 13.2027C17.4395 13.1497 17.4073 13.1017 17.3668 13.0612C17.3263 13.0207 17.2783 12.9885 17.2253 12.9666C17.1724 12.9447 17.1157 12.9334 17.0584 12.9334H17.0841H17.0847Z" fill="black"/>
</g>
<defs>
<clipPath id="clip0_1265_22544">
<rect width="24" height="24" fill="white"/>
</clipPath>
</defs>
</svg>
