<svg viewBox="0 0 24 24" fill="none" xmlns="http://www.w3.org/2000/svg">
<path fill-rule="evenodd" clip-rule="evenodd" d="M21.1667 22H6.16667C5.70667 22 5.33333 21.6267 5.33333 21.1667V6.16667C5.33333 5.70667 5.70667 5.33333 6.16667 5.33333H21.1667C21.6267 5.33333 22 5.70667 22 6.16667V21.1667C22 21.6267 21.6267 22 21.1667 22ZM20.3333 7H7V20.3333H20.3333V7ZM10.3333 12.8333H12.8333V10.3333C12.8333 9.87333 13.2067 9.5 13.6667 9.5C14.1267 9.5 14.5 9.87333 14.5 10.3333V12.8333H17C17.46 12.8333 17.8333 13.2067 17.8333 13.6667C17.8333 14.1267 17.46 14.5 17 14.5H14.5V17C14.5 17.46 14.1267 17.8333 13.6667 17.8333C13.2067 17.8333 12.8333 17.46 12.8333 17V14.5H10.3333C9.87333 14.5 9.5 14.1267 9.5 13.6667C9.5 13.2067 9.87333 12.8333 10.3333 12.8333ZM17.8333 3.66667H3.66667V17.8333C3.66667 18.2933 3.29333 18.6667 2.83333 18.6667C2.37333 18.6667 2 18.2933 2 17.8333V2.83333C2 2.37333 2.37333 2 2.83333 2H17.8333C18.2933 2 18.6667 2.37333 18.6667 2.83333C18.6667 3.29333 18.2933 3.66667 17.8333 3.66667Z" fill="currentColor"/>
</svg>