<svg width="24" height="24" viewBox="0 0 24 24" fill="none" xmlns="http://www.w3.org/2000/svg">
<g clip-path="url(#clip0_1265_22540)">
<path d="M12 24C18.6274 24 24 18.6274 24 12C24 5.37258 18.6274 0 12 0C5.37258 0 0 5.37258 0 12C0 18.6274 5.37258 24 12 24Z" fill="#1B75BC"/>
<path fill-rule="evenodd" clip-rule="evenodd" d="M9.42583 7.6845L12.0001 10.3713L14.5113 7.6845L16.0834 9.29333L13.5191 12L16.0834 14.6851L14.5113 16.3143L12.0001 13.6287L9.42583 16.3143L7.91675 14.73L10.4601 11.9848L7.91675 9.29333L9.42583 7.68508V7.6845ZM9.63292 7.46517L11.9896 5L14.3462 7.46517L13.1061 8.78642L11.9896 7.55325L10.8731 8.78642L9.63292 7.46517ZM9.63292 16.5348L10.8731 15.2136L11.9896 16.4467L13.1061 15.2136L14.3462 16.5348L11.9896 19L9.63292 16.5348Z" fill="white"/>
</g>
<defs>
<clipPath id="clip0_1265_22540">
<rect width="24" height="24" fill="white"/>
</clipPath>
</defs>
</svg>
