<svg width="24" height="24" viewBox="0 0 24 24" fill="none" xmlns="http://www.w3.org/2000/svg">
<g clip-path="url(#clip0_1265_22536)">
<path d="M12 24C18.6274 24 24 18.6274 24 12C24 5.37258 18.6274 0 12 0C5.37258 0 0 5.37258 0 12C0 18.6274 5.37258 24 12 24Z" fill="#DE3F6B"/>
<path d="M8.024 9H8.59927C9.49845 9.08527 10.3302 9.52245 10.9455 10.1518C12.224 11.4494 12.9265 13.2802 14.5537 14.2455C15.7297 14.9436 17.3747 14.3728 17.9525 13.193C18.2465 13.1879 18.5425 13.1879 18.8365 13.1892C18.4317 14.3875 17.2525 15.2485 15.9633 15.3636H15.4885C14.695 15.3 13.9231 15.0047 13.323 14.4944C12.4512 13.7797 11.8912 12.7991 11.2135 11.926C10.6305 11.1541 10.0362 10.2861 9.07145 9.93545C7.87955 9.50336 6.42418 10.1792 5.98955 11.3272C5.60773 12.2728 5.91827 13.445 6.77227 14.0508C7.41245 14.5294 8.304 14.7082 9.07273 14.4295C9.92673 14.1316 10.5605 13.4545 11.0467 12.7367C11.2383 13.0021 11.4247 13.2713 11.6093 13.5424C10.8533 14.4632 9.80455 15.2542 8.55727 15.3636H8.04627C6.47445 15.258 5.10818 13.9662 5 12.4402V11.9406C5.10182 10.4178 6.45091 9.11073 8.024 9ZM15.4567 9H15.934C17.5205 9.09991 18.8695 10.4178 19 11.9438V12.7265C17.691 12.738 16.3807 12.7304 15.0717 12.7316C15.073 12.5025 15.073 12.2754 15.0717 12.0463C16.1065 12.0437 17.1399 12.0507 18.1727 12.0437C18.0995 11.639 18.0047 11.2247 17.7565 10.8817C17.152 9.98827 15.8735 9.623 14.8515 10.0099C14.037 10.3026 13.4235 10.9428 12.9507 11.6263C12.7687 11.3736 12.588 11.1172 12.413 10.8588C13.1595 9.92464 14.2012 9.11645 15.4567 9Z" fill="white"/>
</g>
<defs>
<clipPath id="clip0_1265_22536">
<rect width="24" height="24" fill="white"/>
</clipPath>
</defs>
</svg>
