<svg width="24" height="24" viewBox="0 0 24 24" fill="none" xmlns="http://www.w3.org/2000/svg">
<g clip-path="url(#clip0_1265_22528)">
<path d="M12 24C18.6274 24 24 18.6274 24 12C24 5.37258 18.6274 0 12 0C5.37258 0 0 5.37258 0 12C0 18.6274 5.37258 24 12 24Z" fill="#134451"/>
<path fill-rule="evenodd" clip-rule="evenodd" d="M8.7574 17.049C9.1089 17.0352 9.4582 16.9869 9.8003 16.905C10.922 16.6437 12.151 16.0547 13.3296 15.2222C13.6264 15.1617 13.9209 15.0912 14.2054 15.0124C12.9989 17.4134 11.2959 18.8634 9.97925 18.4208C9.4341 18.2377 9.02168 17.7482 8.7574 17.049ZM15.3454 6.95777C14.9941 6.96967 14.6448 7.01612 14.3025 7.09643C13.1785 7.35301 11.9465 7.9349 10.7679 8.76448C10.4687 8.82195 10.1742 8.8901 9.88977 8.96832C11.1039 6.57557 12.8146 5.13329 14.1283 5.58126C14.6741 5.76673 15.0835 6.25855 15.3454 6.95777ZM12.3152 15.3869C11.7955 15.4474 11.2806 15.4758 10.781 15.4758C9.59237 15.4758 8.48133 15.3087 7.55635 14.981C7.17387 14.8495 6.80798 14.6739 6.46604 14.4578C6.33983 15.1203 6.42456 15.704 6.74988 16.1383C7.68434 17.3868 10.2993 16.9892 12.8864 15.3087C12.6968 15.3372 12.5072 15.3632 12.3152 15.3869ZM11.7084 8.63357C13.4624 8.42914 15.1529 8.57313 16.4666 9.03888C16.8495 9.17056 17.2158 9.34635 17.5581 9.5627C17.6831 8.90022 17.599 8.31655 17.2737 7.88221C16.3386 6.63369 13.7243 7.03129 11.1372 8.71178C11.3268 8.68038 11.5188 8.65431 11.7084 8.63357ZM11.6468 8.81653C15.2377 8.39996 18.3083 9.48671 18.5027 11.2431C18.6976 12.9994 15.947 14.7611 12.3531 15.1776C8.76045 15.5936 5.69219 14.5074 5.49724 12.7511C5.30288 10.9942 8.0559 9.2325 11.6468 8.81653ZM13.1554 12.5129C13.8517 12.5099 14.382 12.3819 14.7459 12.1224C15.1097 11.8658 15.2886 11.4943 15.2857 11.0102C15.2833 10.6938 15.179 10.4419 14.9657 10.2612C14.7559 10.0805 14.4614 9.9892 14.0875 9.99157C13.7918 9.99116 13.4991 10.0508 13.2271 10.167C12.9337 10.2957 12.6649 10.4748 12.4331 10.6961C12.3075 10.4265 12.0568 10.2381 11.8317 10.1516C11.6136 10.068 11.3422 10.0283 11.0139 10.0283C10.7748 10.0295 10.536 10.0471 10.2993 10.081C10.0534 10.1125 9.80513 10.1622 9.54677 10.225L9.37493 11.1465C9.58232 11.041 9.80039 10.9628 10.0256 10.9106C10.2531 10.8585 10.4943 10.8294 10.7449 10.8294C11.0092 10.8294 11.2113 10.8662 11.347 10.942C11.4827 11.0155 11.552 11.1251 11.552 11.2745V11.2745C11.552 11.2851 11.552 11.2982 11.5496 11.3112C11.5489 11.3333 11.5453 11.3552 11.5389 11.3764L11.5182 11.4736L10.8427 11.4759C10.1458 11.4789 9.61551 11.6069 9.25227 11.8658C8.89081 12.1224 8.7089 12.4916 8.71186 12.9786C8.71423 13.2951 8.81911 13.5469 9.03184 13.727C9.2416 13.9078 9.5367 13.9996 9.91001 13.9967C10.2059 13.9972 10.4989 13.9375 10.771 13.8213C11.0644 13.6927 11.3332 13.5138 11.565 13.2927C11.69 13.5623 11.9413 13.7508 12.1665 13.8373C12.3845 13.9208 12.6559 13.9605 12.9836 13.9605C13.2227 13.9593 13.4615 13.9417 13.6982 13.9078C13.9441 13.8764 14.1924 13.8266 14.4508 13.7638L14.6226 12.8424C14.4152 12.9472 14.1972 13.0255 13.972 13.0782C13.7444 13.1303 13.5033 13.1588 13.2526 13.1588C12.9883 13.1588 12.7869 13.1226 12.6506 13.0462C12.5149 12.9733 12.4456 12.8637 12.4456 12.7144V12.7144C12.4456 12.7037 12.4456 12.6907 12.4485 12.677C12.4491 12.655 12.4525 12.6331 12.4586 12.6119L12.4793 12.5153L13.1554 12.5129ZM10.1481 12.3422C10.3022 12.248 10.525 12.1983 10.8195 12.1983H11.3878L11.3629 12.3375C11.3084 12.6095 11.1987 12.8216 11.037 12.9733C10.8758 13.1226 10.6731 13.1985 10.4302 13.1985C10.2738 13.1985 10.1481 13.1594 10.0587 13.0806C9.97155 13.0024 9.92533 12.8921 9.92533 12.7559C9.92533 12.5733 9.99999 12.4341 10.1481 12.3422ZM13.5678 10.7957C13.7236 10.7957 13.8492 10.8348 13.9387 10.913C14.0288 10.9918 14.072 11.0991 14.072 11.2354C14.072 11.4185 13.9974 11.5571 13.8492 11.649C13.6958 11.7432 13.473 11.7929 13.1785 11.7929L12.6096 11.7953L12.6351 11.6567C12.689 11.3847 12.7992 11.1725 12.9604 11.0208C13.1216 10.8715 13.3242 10.7957 13.5678 10.7957Z" fill="white"/>
</g>
<defs>
<clipPath id="clip0_1265_22528">
<rect width="24" height="24" fill="white"/>
</clipPath>
</defs>
</svg>
