<svg width="24" height="24" viewBox="0 0 24 24" fill="none" xmlns="http://www.w3.org/2000/svg">
<path fill-rule="evenodd" clip-rule="evenodd" d="M19.6667 19.4996H13V21.166C13 21.4289 12.8767 21.6761 12.6667 21.833C12.52 21.9424 12.3442 22 12.1667 22C12.0883 22 12.0092 21.9883 11.9325 21.9658L3.59917 19.5221C3.24333 19.4178 3 19.0922 3 18.7223V5.27758C3 4.9069 3.24333 4.5813 3.59917 4.47778L11.9325 2.03412C12.1833 1.95982 12.4558 2.00824 12.6667 2.16603C12.8767 2.32298 13 2.57094 13 2.83309V4.50032H19.6667C20.1267 4.50032 20.5 4.87267 20.5 5.33352V18.6664C20.5 19.1264 20.1267 19.4996 19.6667 19.4996ZM11.3333 3.94597L4.66667 5.90123V18.0987L11.3333 20.0531V3.94597ZM18.8333 6.16672H13V8.66631H16.3333C16.7933 8.66631 17.1667 9.0395 17.1667 9.50035C17.1667 9.95953 16.7933 10.3335 16.3333 10.3335H13V11.1667H16.3333C16.7933 11.1667 17.1667 11.5399 17.1667 11.9999C17.1667 12.46 16.7933 12.8331 16.3333 12.8331H13V13.6663H16.3333C16.7933 13.6663 17.1667 14.0395 17.1667 14.4995C17.1667 14.9596 16.7933 15.3327 16.3333 15.3327H13V17.8332H18.8333V6.16672Z" fill="#6B7084"/>
</svg>
2667 6.5 8.66667C6.5 8.20667 6.87333 7.83333 7.33333 7.83333H12.3333C12.7933 7.83333 13.1667 8.20667 13.1667 8.66667C13.1667 9.12667 12.7933 9.5 12.3333 9.5Z" fill="#6B7084"/>
</svg>
