<svg viewBox="0 0 24 24" fill="none" xmlns="http://www.w3.org/2000/svg">
<path fill-rule="evenodd" clip-rule="evenodd" d="M19.1925 20.3333H18.1667C18.1667 21.2525 17.4192 22 16.5 22H5.66667C4.7475 22 4 21.2525 4 20.3333V3.66667C4 2.7475 4.7475 2 5.66667 2H19C19.9192 2 20.6667 2.7475 20.6667 3.66667V7C20.6667 7.91917 19.9192 8.66667 19 8.66667H18.1667V10.3333H19.1925C20.005 10.3333 20.6667 10.9875 20.6667 11.7917V15.3333V18.875C20.6667 19.6792 20.005 20.3333 19.1925 20.3333ZM19 7V3.66667H5.66667V20.3333H16.4975L16.5 8.66667C16.5 7.7475 17.2475 7 18.1667 7H19ZM19 12H18.1667V14.5H19V12ZM19 16.1667H18.1667V18.6667H19V16.1667ZM14.8333 17H7.33333C6.87333 17 6.5 16.6267 6.5 16.1667C6.5 15.7067 6.87333 15.3333 7.33333 15.3333H14.8333C15.2933 15.3333 15.6667 15.7067 15.6667 16.1667C15.6667 16.6267 15.2933 17 14.8333 17ZM14.8333 13.6667H7.33333C6.87333 13.6667 6.5 13.2933 6.5 12.8333C6.5 12.3733 6.87333 12 7.33333 12H14.8333C15.2933 12 15.6667 12.3733 15.6667 12.8333C15.6667 13.2933 15.2933 13.6667 14.8333 13.6667ZM12.3333 9.5H7.33333C6.87333 9.5 6.5 9.12667 6.5 8.66667C6.5 8.20667 6.87333 7.83333 7.33333 7.83333H12.3333C12.7933 7.83333 13.1667 8.20667 13.1667 8.66667C13.1667 9.12667 12.7933 9.5 12.3333 9.5Z" fill="currentColor"/>
</svg>