<svg viewBox="0 0 24 24" fill="none" xmlns="http://www.w3.org/2000/svg">
<g clip-path="url(#clip0_1265_22522)">
<path d="M12 24C18.6274 24 24 18.6274 24 12C24 5.37258 18.6274 0 12 0C5.37258 0 0 5.37258 0 12C0 18.6274 5.37258 24 12 24Z" fill="#15073A"/>
<path fill-rule="evenodd" clip-rule="evenodd" d="M14.6094 12.8314C15.1596 13.4689 15.4916 14.2657 15.5569 15.1053C15.6197 15.9193 15.4133 16.7319 14.9659 17.4233C14.506 18.0462 13.9225 18.5675 13.252 18.9546C13.213 18.9907 13.1581 19.0059 13.1055 18.9979C13.0528 18.99 13.0059 18.9568 12.9806 18.9106C12.968 18.8937 12.9592 18.8743 12.9546 18.8537C12.9501 18.8331 12.9499 18.8117 12.9542 18.7911C12.9585 18.7704 12.9671 18.7509 12.9795 18.7338C12.9919 18.7167 13.0078 18.7025 13.0261 18.692C13.5793 18.2766 14.0274 17.7373 14.3344 17.1173C14.608 16.5284 14.6873 15.871 14.5603 15.2366C14.4703 14.6267 14.1664 14.0686 13.703 13.662C13.1762 13.2239 12.601 12.8422 11.989 12.5246C11.2774 12.1744 10.6234 11.7173 10.0499 11.1694C9.75893 10.8569 9.51574 10.503 9.32828 10.1194C9.15504 9.73173 9.04819 9.31774 9.0122 8.8947C8.94326 8.05741 9.16806 7.22226 9.64798 6.5327C10.0771 5.87634 10.6886 5.35964 11.4074 5.04608C11.4268 5.02824 11.45 5.01501 11.4753 5.00741C11.5005 4.99981 11.5271 4.99803 11.5532 5.00219C11.5792 5.00636 11.604 5.01637 11.6256 5.03147C11.6472 5.04657 11.6651 5.06637 11.678 5.08938C11.6949 5.12589 11.6995 5.16685 11.6914 5.20622C11.6832 5.24558 11.6626 5.28128 11.6325 5.30805C11.0989 5.7502 10.6667 6.30201 10.3653 6.92601C10.1137 7.48689 10.0368 8.11051 10.1445 8.71573C10.2658 9.30191 10.5649 9.83641 11.0011 10.2464C11.5315 10.6975 12.1056 11.0945 12.715 11.4313C13.4137 11.7995 14.0524 12.2715 14.6094 12.8314ZM12.9161 5.18389C12.9269 5.23217 12.955 5.27483 12.9952 5.30377C13.3574 5.65233 13.6851 6.03264 13.9737 6.4411C14.3111 7.02202 14.4812 7.68491 14.4653 8.35648C14.4494 9.02805 14.248 9.68214 13.8835 10.2464C13.8353 10.3276 13.8137 10.4218 13.8217 10.5159C13.8297 10.61 13.867 10.6992 13.9283 10.7711C14.0049 10.8727 14.1165 10.9424 14.2415 10.9667C14.3665 10.9909 14.4961 10.968 14.6052 10.9024C15.3605 10.2857 15.4851 9.05832 15.5352 8.5653C15.5419 8.49873 15.5473 8.44555 15.5527 8.40907C15.552 8.09876 15.5058 7.78916 15.417 7.49112C15.324 7.20318 15.2034 6.92534 15.0562 6.65977C14.9169 6.39925 14.7336 6.16254 14.515 5.95976C14.1308 5.56524 13.6704 5.25293 13.1619 5.0418C13.1283 5.02026 13.0892 5.00881 13.0493 5.00881C13.0094 5.00881 12.9703 5.02026 12.9367 5.0418C12.9127 5.08505 12.9054 5.13561 12.9161 5.18389ZM11.7099 18.9323C11.7546 18.8883 11.7546 18.801 11.6644 18.7137C11.2971 18.3665 10.9644 17.9855 10.6721 17.5763C10.3349 16.9955 10.1649 16.3327 10.1808 15.6613C10.1967 14.9899 10.398 14.3359 10.7623 13.7717C10.828 13.7 10.8644 13.6063 10.8644 13.509C10.8644 13.4118 10.828 13.3181 10.7623 13.2464C10.6857 13.1449 10.5742 13.0753 10.4494 13.0511C10.3246 13.0268 10.1952 13.0496 10.0861 13.115C9.33095 13.7316 9.20626 14.9591 9.15619 15.452C9.14942 15.5187 9.14402 15.5719 9.1386 15.6084C9.1394 15.9195 9.1851 16.2289 9.27427 16.527C9.36732 16.815 9.48817 17.0931 9.6351 17.3577C9.77543 17.6194 9.95835 17.856 10.1763 18.0577C10.5605 18.4522 11.0209 18.7645 11.5295 18.9756C11.5742 19.0196 11.6651 18.9763 11.7099 18.9323Z" fill="white"/>
</g>
<defs>
<clipPath id="clip0_1265_22522">
<rect width="24" height="24" fill="white"/>
</clipPath>
</defs>
</svg>