<svg viewBox="0 0 24 24" fill="none" xmlns="http://www.w3.org/2000/svg">
<g clip-path="url(#clip0_1265_22518)">
<path d="M12 24C18.6274 24 24 18.6274 24 12C24 5.37258 18.6274 0 12 0C5.37258 0 0 5.37258 0 12C0 18.6274 5.37258 24 12 24Z" fill="#F49E00"/>
<path d="M14.5031 12.8898C16.0006 10.5436 17.1666 6.66675 17.1666 6.66675L14.6698 7.23278L13.7558 10.4663C13.6698 8.04216 12.0077 7.15478 12.0077 7.15478C10.6762 6.50607 9.48951 6.79142 8.63413 7.23745C7.5754 7.78815 6.80536 8.7482 6.43667 9.8536C5.91264 11.4264 5.97664 13.1911 6.04598 13.9898C6.07398 14.3645 6.15665 14.7332 6.29266 15.0852C7.21138 17.4674 9.75619 17.332 9.75619 17.332C12.0877 17.2494 13.5044 14.5039 13.5044 14.5039L14.1724 16.5226C14.7711 17.5354 16.0972 17.156 16.3699 17.0993C16.4179 17.0887 16.4606 17.0833 16.5092 17.0727L18 16.8453V16.1966C14.7545 16.2846 14.5031 12.8904 14.5031 12.8904V12.8898ZM11.3436 15.3299C11.1429 15.5357 10.8898 15.6827 10.6116 15.7553C10.0069 15.9059 9.54218 15.6519 9.2215 15.3406C8.86322 14.9788 8.61791 14.5206 8.51546 14.0218C7.92742 10.695 8.74014 9.2369 9.28017 8.56686C9.42726 8.37903 9.61689 8.22885 9.83342 8.12869C10.05 8.02854 10.2872 7.98129 10.5256 7.99082C12.6217 8.10016 13.0924 12.4857 13.0924 12.4857C12.499 14.0425 11.7343 14.9459 11.3436 15.3299Z" fill="white"/>
</g>
<defs>
<clipPath id="clip0_1265_22518">
<rect width="24" height="24" fill="white"/>
</clipPath>
</defs>
</svg>