<svg width="24" height="24" viewBox="0 0 24 24" fill="none" xmlns="http://www.w3.org/2000/svg">
<g clip-path="url(#clip0_1265_22512)">
<path d="M12 24C18.6274 24 24 18.6274 24 12C24 5.37258 18.6274 0 12 0C5.37258 0 0 5.37258 0 12C0 18.6274 5.37258 24 12 24Z" fill="#00BFEC"/>
<path d="M11.9621 16.5573C9.43549 16.5573 7.38013 14.5127 7.38013 12.0003C7.38013 9.48729 9.43613 7.44337 11.9621 7.44337C14.4887 7.44337 16.544 9.48729 16.544 12.0003C16.544 14.5127 14.4887 16.5573 11.9621 16.5573ZM11.9621 8.33559C9.93098 8.33559 8.27787 9.97941 8.27787 12.0003C8.27787 14.0206 9.93098 15.6644 11.9621 15.6644C13.9938 15.6644 15.6463 14.0206 15.6463 12.0003C15.6463 9.97941 13.9938 8.33559 11.9621 8.33559ZM15.1706 6.7921C14.204 6.20296 13.0938 5.89203 11.9621 5.89349C10.9204 5.89306 9.89546 6.15646 8.98279 6.65916L8.54605 5.87943C9.59232 5.30239 10.7675 4.99984 11.9621 5C13.2646 5 14.5366 5.35663 15.6405 6.03155L15.1706 6.7921ZM16.5083 17.344L15.9279 16.6621C16.6085 16.0912 17.1558 15.378 17.5315 14.5726C17.9071 13.7672 18.1018 12.8892 18.102 12.0003H18.9997C18.9997 14.0621 18.0918 16.0095 16.5083 17.3434V17.344ZM11.9621 18.9994C10.3294 18.9994 8.73824 18.4305 7.48229 17.3984L8.05439 16.7107C9.15694 17.6136 10.5376 18.1069 11.9621 18.1071C12.9582 18.1071 13.9083 17.8771 14.7856 17.4246L15.1987 18.2171C14.1972 18.7315 13.0877 18.9998 11.9621 19V18.9994Z" fill="white"/>
<path opacity="0.5" d="M17.9509 10.3417C17.7162 9.49893 17.3033 8.71646 16.7403 8.04725L17.315 7.57046C17.9462 8.32074 18.4089 9.19804 18.6718 10.1429L17.9516 10.3417H17.9509ZM6.14486 15.8068C5.39655 14.6788 4.99823 13.3543 5.00001 12.0002C5.00001 10.1071 5.75345 8.33933 7.12178 7.02209L7.64152 7.55704C7.04085 8.13001 6.56312 8.8195 6.23751 9.58343C5.9119 10.3474 5.74524 11.1697 5.7477 12.0002C5.7477 13.2139 6.10144 14.3886 6.76932 15.3978L6.14486 15.8068Z" fill="white"/>
</g>
<defs>
<clipPath id="clip0_1265_22512">
<rect width="24" height="24" fill="white"/>
</clipPath>
</defs>
</svg>
