<svg width="24" height="24" viewBox="0 0 24 24" fill="none" xmlns="http://www.w3.org/2000/svg">
<path fill-rule="evenodd" clip-rule="evenodd" d="M21.1667 15.3333H17C16.54 15.3333 16.1667 14.9608 16.1667 14.5C16.1667 14.0392 16.54 13.6667 17 13.6667H20.3333V3.66667H3.66667V13.6667H7C7.46 13.6667 7.83333 14.0392 7.83333 14.5C7.83333 14.9608 7.46 15.3333 7 15.3333H2.83333C2.37333 15.3333 2 14.9608 2 14.5V2.83333C2 2.3725 2.37333 2 2.83333 2H21.1667C21.6267 2 22 2.3725 22 2.83333V14.5C22 14.9608 21.6267 15.3333 21.1667 15.3333ZM10.9684 11.8417C11.4492 11.09 12.5434 11.0833 13.0309 11.8417L17.6617 19.3692C17.915 19.76 17.9467 20.2133 17.7467 20.5808C17.5467 20.9475 17.1484 21.1667 16.6792 21.1667H7.3192C6.85171 21.1667 6.45254 20.9475 6.25337 20.5808C6.05337 20.215 6.08504 19.76 6.3392 19.3683L10.9684 11.8417ZM15.765 19.5L12 13.32L8.23505 19.5H15.765Z" fill="#6B7084"/>
</svg>
