<svg viewBox="0 0 24 24" fill="none" xmlns="http://www.w3.org/2000/svg">
<path fill-rule="evenodd" clip-rule="evenodd" d="M21.7942 7.65974C21.6286 7.84724 21.3982 7.94434 21.167 7.94434C20.9711 7.94434 20.7761 7.87654 20.618 7.73759L15.7289 3.46029C15.3825 3.15811 15.3472 2.63077 15.6498 2.28507C15.9534 1.9377 16.4797 1.90338 16.8261 2.20639L21.7152 6.48369C22.0616 6.7867 22.0969 7.3132 21.7942 7.65974ZM20.3338 13.6672C20.3338 18.2618 16.5948 22 12 22C7.40512 22 3.66702 18.2618 3.66702 13.6672C3.66702 9.07183 7.40512 5.33359 12 5.33359C16.5948 5.33359 20.3338 9.07183 20.3338 13.6672ZM12 7.00015C8.32413 7.00015 5.33349 9.99092 5.33349 13.6672C5.33349 17.3427 8.32413 20.3334 12 20.3334C15.6759 20.3334 18.6665 17.3427 18.6665 13.6672C18.6665 9.99092 15.6759 7.00015 12 7.00015ZM15.3337 14.5001H12.8332V17.0003C12.8332 17.4599 12.4607 17.8332 12 17.8332C11.5392 17.8332 11.1668 17.4599 11.1668 17.0003V14.5001H8.66629C8.20638 14.5001 7.83308 14.1268 7.83308 13.6672C7.83308 13.2068 8.20638 12.8335 8.66629 12.8335H11.1668V10.3333C11.1668 9.87289 11.5392 9.50041 12 9.50041C12.4607 9.50041 12.8332 9.87289 12.8332 10.3333V12.8335H15.3337C15.7936 12.8335 16.1669 13.2068 16.1669 13.6672C16.1669 14.1268 15.7936 14.5001 15.3337 14.5001ZM3.38202 7.73759C3.22396 7.87654 3.0289 7.94434 2.833 7.94434C2.60178 7.94434 2.37141 7.84724 2.20577 7.65974C1.90309 7.3132 1.93841 6.7867 2.28481 6.48369L7.17393 2.20639C7.51949 1.90338 8.04582 1.9377 8.35018 2.28507C8.65286 2.63077 8.61755 3.15811 8.27115 3.46029L3.38202 7.73759Z" fill="currentColor"/>
</svg>