<svg width="24" height="24" viewBox="0 0 24 24" fill="none" xmlns="http://www.w3.org/2000/svg">
<path fill-rule="evenodd" clip-rule="evenodd" d="M21.7942 7.65995C21.6286 7.84744 21.3982 7.94454 21.167 7.94454C20.9711 7.94454 20.7761 7.8759 20.618 7.73779L15.7289 3.46055C15.3825 3.15838 15.3472 2.63105 15.6498 2.28535C15.9542 1.93715 16.4797 1.90367 16.8261 2.20667L21.7152 6.48391C22.0616 6.78692 22.0969 7.31341 21.7942 7.65995ZM20.3329 13.6673C20.3329 18.2618 16.5948 22 12 22C7.40512 22 3.66702 18.2618 3.66702 13.6673C3.66702 9.07202 7.40512 5.33383 12 5.33383C16.5948 5.33383 20.3329 9.07202 20.3329 13.6673ZM12 7.00037C8.32413 7.00037 5.33349 9.99109 5.33349 13.6673C5.33349 17.3428 8.32413 20.3335 12 20.3335C15.6759 20.3335 18.6665 17.3428 18.6665 13.6673C18.6665 9.99109 15.6759 7.00037 12 7.00037ZM14.4996 17.0004C14.2642 17.0004 14.0296 16.9008 13.864 16.7066L11.3644 13.7628C11.3374 13.7301 11.3274 13.6916 11.3063 13.6573C11.2761 13.6087 11.2441 13.5627 11.2248 13.5091C11.2029 13.4505 11.197 13.3928 11.1886 13.3325C11.1836 13.2949 11.1668 13.2614 11.1668 13.222V9.50058C11.1668 9.04021 11.5392 8.6669 12 8.6669C12.4607 8.6669 12.8332 9.04021 12.8332 9.50058V12.9157L15.1352 15.6268C15.4337 15.9784 15.39 16.5049 15.0394 16.802C14.8822 16.9351 14.6913 17.0004 14.4996 17.0004ZM3.38202 7.73779C3.22396 7.8759 3.0289 7.94454 2.83384 7.94454C2.60178 7.94454 2.37141 7.84744 2.20577 7.65995C1.90309 7.31341 1.93841 6.78692 2.28481 6.48391L7.17393 2.20667C7.51949 1.90367 8.04498 1.93715 8.35018 2.28535C8.65286 2.63105 8.61755 3.15838 8.27115 3.46055L3.38202 7.73779Z" fill="#6B7084"/>
</svg>
