<svg width="24" height="24" viewBox="0 0 24 24" fill="none" xmlns="http://www.w3.org/2000/svg">
<path fill-rule="evenodd" clip-rule="evenodd" d="M21.7942 7.65974C21.6286 7.84724 21.3982 7.94434 21.167 7.94434C20.9711 7.94434 20.7761 7.87654 20.618 7.73759L15.7289 3.46029C15.3825 3.15811 15.3472 2.63161 15.6498 2.28507C15.9534 1.9377 16.4805 1.90338 16.8261 2.20639L21.7152 6.48369C22.0616 6.7867 22.0969 7.3132 21.7942 7.65974ZM20.3329 13.6672C20.3329 18.2618 16.5948 22 12 22C7.40512 22 3.66702 18.2618 3.66702 13.6672C3.66702 9.07183 7.40512 5.33359 12 5.33359C16.5948 5.33359 20.3329 9.07183 20.3329 13.6672ZM12 7.00015C8.32413 7.00015 5.33349 9.99092 5.33349 13.6672C5.33349 17.3427 8.32413 20.3334 12 20.3334C15.6759 20.3334 18.6665 17.3427 18.6665 13.6672C18.6665 9.99092 15.6759 7.00015 12 7.00015ZM11.8075 16.7007C11.657 16.8806 11.4384 16.9886 11.2038 16.9995C11.192 16.9995 11.1786 17.0003 11.1668 17.0003C10.9465 17.0003 10.7338 16.9133 10.5774 16.7559L8.07778 14.2565C7.7524 13.9309 7.7524 13.4027 8.07778 13.0779C8.40316 12.7523 8.93033 12.7523 9.25571 13.0779L11.1105 14.932L14.693 10.6338C14.9881 10.2805 15.5119 10.232 15.8676 10.5266C16.2207 10.8213 16.2686 11.3469 15.9735 11.7002L11.8075 16.7007ZM3.38202 7.73759C3.22396 7.87654 3.0289 7.94434 2.83384 7.94434C2.60178 7.94434 2.37141 7.84724 2.20577 7.65974C1.90309 7.3132 1.93841 6.7867 2.28481 6.48369L7.17393 2.20639C7.51949 1.90338 8.04582 1.9377 8.35018 2.28507C8.65286 2.63161 8.61755 3.15811 8.27115 3.46029L3.38202 7.73759Z" fill="#6B7084"/>
</svg>
