<svg viewBox="0 0 24 24" fill="none" xmlns="http://www.w3.org/2000/svg">
<path fill-rule="evenodd" clip-rule="evenodd" d="M21.7555 3.42276L3.42253 21.7556C3.25953 21.9188 3.04696 22 2.83355 22C2.62015 22 2.40674 21.9188 2.24458 21.7556C1.91858 21.4308 1.91858 20.9026 2.24458 20.5779L4.86346 17.9588C4.0846 16.6647 3.66702 15.1848 3.66702 13.6673C3.66702 9.07193 7.40504 5.33372 12 5.33372C13.5015 5.33372 14.9735 5.73717 16.2573 6.50139C16.2707 6.50976 16.2775 6.52315 16.2901 6.53152L17.6663 5.15543L15.7288 3.46126C15.3827 3.15825 15.3474 2.63092 15.6498 2.28438C15.954 1.93785 16.48 1.90437 16.8261 2.2057L18.8476 3.97437L20.5776 2.24421C20.9027 1.9186 21.4304 1.9186 21.7555 2.24421C22.0815 2.56981 22.0815 3.09715 21.7555 3.42276ZM12.0001 7.00027C8.32421 7.00027 5.33313 9.99101 5.33313 13.6673C5.33313 14.7412 5.60451 15.785 6.09434 16.7283L15.0617 7.7603C14.119 7.27063 13.073 7.00027 12.0001 7.00027ZM3.38219 7.73771C3.22423 7.87666 3.02846 7.94446 2.83354 7.94446C2.60165 7.94446 2.37143 7.84736 2.20592 7.65903C1.90345 7.31333 1.9379 6.78683 2.28489 6.48382L7.17397 2.20655C7.51929 1.90355 8.04609 1.93786 8.35024 2.2844C8.65271 2.63093 8.61826 3.15827 8.27126 3.46044L3.38219 7.73771ZM9.00893 19.6262C9.94154 20.0957 10.9472 20.3335 12 20.3335C15.6758 20.3335 18.6669 17.3427 18.6669 13.6673C18.6669 12.6436 18.4426 11.6634 17.9981 10.7527C17.7965 10.3392 17.9687 9.84034 18.3821 9.63861C18.8005 9.43605 19.2946 9.61015 19.497 10.0228C20.0516 11.1629 20.333 12.3883 20.333 13.6673C20.333 18.2618 16.595 22 12 22C10.6851 22 9.42566 21.702 8.25948 21.1152C7.84862 20.9085 7.6831 20.408 7.88979 19.9961C8.09648 19.5843 8.59807 19.4194 9.00893 19.6262Z" fill="currentColor"/>
</svg>