<svg viewBox="0 0 24 24" fill="none" xmlns="http://www.w3.org/2000/svg">
<g clip-path="url(#clip0_1265_22508)">
<path d="M12 24C18.6274 24 24 18.6274 24 12C24 5.37258 18.6274 0 12 0C5.37258 0 0 5.37258 0 12C0 18.6274 5.37258 24 12 24Z" fill="#005B9A"/>
<path d="M11.4043 5.5L8.97183 9.6962C8.92218 9.66329 8.85599 9.66329 8.7898 9.66329H8.75671C8.69052 9.66329 8.60778 9.67975 8.54159 9.71266C8.4754 9.74557 8.40921 9.79494 8.35957 9.8443L6.02637 8.56076L11.4043 5.5ZM12.6123 5.5L17.9737 8.56076L15.6239 9.8443C15.5743 9.77848 15.5246 9.72911 15.4419 9.6962C15.3757 9.66329 15.293 9.64684 15.2268 9.64684H15.1937C15.1606 9.64684 15.111 9.64684 15.0779 9.66329L12.6123 5.5ZM11.6691 5.66456V11.6544L9.31932 10.3709C9.35242 10.2063 9.30278 10.0418 9.22004 9.91013L11.6691 5.66456ZM12.331 5.6481L14.8131 9.82785C14.7469 9.89367 14.6973 9.97595 14.6807 10.0747C14.6642 10.1734 14.6642 10.2722 14.6807 10.3544L12.331 11.638V5.6481ZM12.331 12L14.8462 10.6177C14.9124 10.6671 14.9786 10.7 15.0613 10.7329V13.2506C14.9786 13.2835 14.9124 13.3165 14.8462 13.3823L12.331 12ZM11.6691 12L9.12075 13.3987C9.07111 13.3494 9.00492 13.3 8.92218 13.2835V10.7658C9.00492 10.7494 9.08766 10.7 9.15385 10.6506L11.6691 12ZM8.60778 13.2671V10.9304L6.29113 14.9291L8.21064 13.8924C8.19409 13.7608 8.22719 13.6291 8.30993 13.5139C8.37612 13.3987 8.49195 13.3165 8.60778 13.2671ZM15.7729 13.8924L17.7089 14.9456L15.3923 10.8152V13.2671C15.5246 13.3165 15.6239 13.3987 15.6901 13.5139C15.7563 13.6291 15.7894 13.7608 15.7729 13.8924ZM18.1226 8.84051V15.0278L15.6405 10.6013C15.7067 10.5354 15.7398 10.4696 15.7729 10.3709C15.7894 10.2886 15.806 10.2063 15.7729 10.1076L18.1226 8.84051ZM5.87744 8.84051L8.21064 10.1241C8.19409 10.2063 8.19409 10.2886 8.21064 10.3709C8.24374 10.4861 8.30993 10.5848 8.40921 10.6506L5.87744 15.0278V8.84051ZM11.6691 12.362V18.1051L9.20349 14.1886C9.26968 14.1228 9.30278 14.0241 9.31932 13.9418C9.33587 13.843 9.31932 13.7608 9.28623 13.6785L11.6691 12.362ZM12.331 12.362L14.6807 13.6456C14.6476 13.7443 14.6476 13.8266 14.6642 13.9253C14.6807 14.0241 14.7304 14.1063 14.7966 14.1722L12.331 18.2696V12.362ZM17.8909 15.4063L12.6123 18.4177L15.0779 14.3367C15.1771 14.3696 15.2599 14.3696 15.3592 14.3532C15.4585 14.3367 15.5412 14.2873 15.6074 14.2215C15.6239 14.2051 15.6239 14.2051 15.6405 14.1886L17.8909 15.4063ZM6.10911 15.4063L8.34302 14.1886C8.42576 14.2709 8.5085 14.3203 8.62433 14.3532C8.72361 14.3861 8.83945 14.3861 8.93873 14.3532L11.5367 18.5L6.10911 15.4063Z" fill="white"/>
</g>
<defs>
<clipPath id="clip0_1265_22508">
<rect width="24" height="24" fill="white"/>
</clipPath>
</defs>
</svg>