<svg viewBox="0 0 24 24" fill="none" xmlns="http://www.w3.org/2000/svg">
<path fill-rule="evenodd" clip-rule="evenodd" d="M21.1667 19.5C20.7067 19.5 20.3333 19.1267 20.3333 18.6667V3.66667H5.33333C4.87333 3.66667 4.5 3.29333 4.5 2.83333C4.5 2.37333 4.87333 2 5.33333 2H21.1667C21.6267 2 22 2.37333 22 2.83333V18.6667C22 19.1267 21.6267 19.5 21.1667 19.5ZM19.5 5.33333V21.1667C19.5 21.6267 19.1267 22 18.6667 22H2.83333C2.37333 22 2 21.6267 2 21.1667V5.33333C2 4.87333 2.37333 4.5 2.83333 4.5H18.6667C19.1267 4.5 19.5 4.87333 19.5 5.33333ZM17.8333 6.16667H3.66667V20.3333H17.8333V6.16667ZM8.66667 13.6667C9.28167 13.6667 9.84417 13.795 10.3333 14.0042V7.83334C10.3333 7.51334 10.5167 7.22084 10.8058 7.0825C11.0933 6.94417 11.4358 6.9825 11.6875 7.18251L15.8533 10.5158C16.2133 10.8033 16.2717 11.3283 15.9842 11.6867C15.6967 12.0475 15.1708 12.105 14.8125 11.8175L12 9.5675V16.1667C12 16.1675 12 16.1675 12 16.1683C12 16.17 12 16.1708 12 16.1717C12 17.5708 10.5358 18.6667 8.66667 18.6667C6.7975 18.6667 5.33333 17.5708 5.33333 16.1717C5.33333 14.7667 6.7975 13.6667 8.66667 13.6667ZM8.66667 17C9.66833 17 10.3333 16.5017 10.3333 16.1717C10.3333 15.83 9.68417 15.3333 8.66667 15.3333C7.64917 15.3333 7 15.83 7 16.1717C7 16.5017 7.665 17 8.66667 17Z" fill="currentColor"/>
</svg>