<svg width="24" height="24" viewBox="0 0 24 24" fill="none" xmlns="http://www.w3.org/2000/svg">
<g clip-path="url(#clip0_1265_22504)">
<path d="M12 24C18.6274 24 24 18.6274 24 12C24 5.37258 18.6274 0 12 0C5.37258 0 0 5.37258 0 12C0 18.6274 5.37258 24 12 24Z" fill="black"/>
<path d="M8.09487 18L9.83124 14.9947L11.5661 12L13.2912 8.99472L13.5777 8.51822L13.7036 8.99472L14.2328 10.9731L13.6402 12L11.9054 14.9947L10.1803 18H12.2537L13.9893 14.9947L14.8888 13.4393L15.3125 14.9947L16.1162 18H17.9785L17.1748 14.9947L16.3703 12L16.1592 11.2272L17.45 8.99472H15.5666L15.5025 8.7723L14.8466 6.31742L14.7621 6H12.9526L12.9104 6.06333L11.217 8.99472L9.4814 12L7.7571 14.9947L6.02148 18H8.09487Z" fill="white"/>
</g>
<defs>
<clipPath id="clip0_1265_22504">
<rect width="24" height="24" fill="white"/>
</clipPath>
</defs>
</svg>
