<svg width="24" height="24" viewBox="0 0 24 24" fill="none" xmlns="http://www.w3.org/2000/svg">
<g clip-path="url(#clip0_1265_22500)">
<path d="M12 24C18.6274 24 24 18.6274 24 12C24 5.37258 18.6274 0 12 0C5.37258 0 0 5.37258 0 12C0 18.6274 5.37258 24 12 24Z" fill="#3C5BE0"/>
<path d="M19 12.1459V12.151C18.9979 12.2018 18.9842 12.2514 18.9599 12.2961C18.8708 12.4584 16.7384 16.2727 12.0006 16.2727C7.26291 16.2727 5.12918 12.4584 5.04073 12.2961C5.01622 12.2515 5.00228 12.2018 5 12.151V12.1224L5.00064 12.1077C5.00434 12.0658 5.016 12.025 5.035 11.9875L5.03627 11.9849L5.04009 11.9773C5.12918 11.8144 7.26227 8 12 8C16.7377 8 18.8708 11.815 18.9593 11.9773L18.9631 11.9849L18.965 11.9881C18.9837 12.0255 18.9951 12.0661 18.9987 12.1077V12.137L19 12.1459ZM18.2936 12.1364C17.9354 11.5802 16.5888 9.72264 14.1477 8.97555C14.9337 9.52618 15.4865 10.3496 15.6985 11.2855C15.8659 11.3237 15.9862 11.4739 15.9894 11.6483C15.9925 11.8226 15.878 11.9766 15.7113 12.0212C15.5445 12.0657 15.3708 11.9894 15.2881 11.8366C15.2481 11.7623 15.2338 11.6767 15.2475 11.5934C15.2612 11.51 15.3021 11.4336 15.3638 11.3759C15.0495 9.96127 13.8862 8.86864 12.4531 8.67836C12.4423 8.67705 12.4316 8.67471 12.4213 8.67136C12.1404 8.6563 11.8589 8.6563 11.5781 8.67136C11.5677 8.67471 11.5571 8.67705 11.5463 8.67836C10.9878 8.75353 10.4566 8.96558 9.99991 9.29564C9.97766 9.31145 9.95199 9.32177 9.92499 9.32577C9.89799 9.32977 9.87043 9.32732 9.84455 9.31863C9.81868 9.30995 9.79522 9.29527 9.7761 9.27578C9.75699 9.2563 9.74274 9.23258 9.73455 9.20655C9.72342 9.17126 9.72363 9.13337 9.73516 9.09821C9.74669 9.06305 9.76895 9.03239 9.79882 9.01055C9.8142 8.99938 9.82969 8.98835 9.84527 8.97745C7.408 9.72645 6.064 11.5802 5.70636 12.1364C6.06082 12.6881 7.38636 14.5164 9.78545 15.2768C8.99418 14.6991 8.45354 13.8409 8.27409 12.8777C8.11245 12.8173 8.01318 12.6531 8.03227 12.4794C8.05136 12.3056 8.185 12.1675 8.35555 12.1453C8.52609 12.123 8.69027 12.2216 8.75264 12.3852C8.78276 12.4642 8.78585 12.5509 8.76144 12.6319C8.73704 12.7128 8.6865 12.7834 8.61773 12.8325C8.89136 14.2389 9.98464 15.3315 11.3745 15.588C11.7912 15.6223 12.2101 15.6223 12.6268 15.588C13.1453 15.4906 13.6343 15.2745 14.0555 14.9567C14.0797 14.9379 14.1085 14.9259 14.139 14.922C14.1694 14.9181 14.2003 14.9224 14.2285 14.9345C14.2569 14.947 14.2814 14.9668 14.2997 14.9918C14.3179 15.0168 14.3293 15.0462 14.3326 15.077C14.336 15.1078 14.3312 15.139 14.3187 15.1673C14.3063 15.1957 14.2866 15.2203 14.2616 15.2386L14.2063 15.28C16.6105 14.5208 17.9385 12.6887 18.2936 12.1364ZM15.0673 12.1472C15.0673 13.8635 13.6915 15.2603 12 15.2603C10.3085 15.2603 8.93273 13.8635 8.93273 12.1472C8.93273 10.4309 10.3085 9.03473 12 9.03473C13.6915 9.03473 15.0673 10.4303 15.0673 12.1472ZM14.7211 12.1472C14.7211 10.625 13.5005 9.386 12 9.386C10.4995 9.386 9.27827 10.6244 9.27827 12.1478C9.27827 13.6713 10.4995 14.9084 12 14.9084C13.5005 14.9084 14.7211 13.67 14.7211 12.1472ZM13.0029 11.2925C13.0029 11.626 12.8381 11.9365 12.5638 12.1198L12.8375 13.7915C12.8437 13.8212 12.8432 13.8518 12.8359 13.8812C12.8286 13.9106 12.8147 13.938 12.7953 13.9612C12.7758 13.9844 12.7514 14.0029 12.7237 14.0153C12.6961 14.0277 12.666 14.0337 12.6357 14.0327H11.4139C11.3836 14.0337 11.3535 14.0277 11.3259 14.0153C11.2982 14.0029 11.2737 13.9844 11.2542 13.9612C11.2348 13.938 11.2208 13.9107 11.2134 13.8813C11.206 13.8519 11.2054 13.8212 11.2115 13.7915L11.4839 12.1198C11.0945 11.8583 10.9417 11.353 11.1193 10.9145C11.2968 10.4761 11.7556 10.2266 12.2138 10.3183C12.6726 10.4105 13.0029 10.8185 13.0029 11.2925ZM15.7692 12.5926C15.6803 13.3898 15.3443 14.1392 14.8083 14.7359C14.7881 14.759 14.762 14.7763 14.7329 14.786C14.7037 14.7957 14.6725 14.7973 14.6425 14.7908C14.6125 14.7843 14.5847 14.7699 14.5622 14.7491C14.5396 14.7282 14.5231 14.7017 14.5143 14.6723C14.505 14.6426 14.5036 14.611 14.5103 14.5806C14.517 14.5503 14.5315 14.5222 14.5525 14.4992C15.0395 13.957 15.3447 13.2762 15.4255 12.5519C15.4307 12.5061 15.4537 12.4643 15.4896 12.4354C15.5255 12.4066 15.5713 12.3931 15.6171 12.3979C15.7125 12.4094 15.78 12.4965 15.7692 12.5926ZM9.48827 9.49482C9.5217 9.52707 9.54111 9.57117 9.5423 9.61761C9.54349 9.66404 9.52637 9.70908 9.49464 9.743C9.00649 10.2655 8.69041 10.9252 8.58909 11.633C8.58232 11.6786 8.55777 11.7197 8.5208 11.7472C8.48383 11.7748 8.43745 11.7866 8.39182 11.78C8.34622 11.7726 8.30535 11.7476 8.27807 11.7103C8.2508 11.673 8.23931 11.6265 8.24609 11.5808C8.35789 10.8021 8.70595 10.0764 9.24327 9.50182C9.25884 9.48514 9.27757 9.47172 9.29837 9.46236C9.31917 9.45299 9.34163 9.44786 9.36444 9.44727C9.38724 9.44668 9.40994 9.45064 9.4312 9.45891C9.45246 9.46718 9.47186 9.4796 9.48827 9.49545V9.49482Z" fill="white"/>
</g>
<defs>
<clipPath id="clip0_1265_22500">
<rect width="24" height="24" fill="white"/>
</clipPath>
</defs>
</svg>
