<svg width="24" height="24" viewBox="0 0 24 24" fill="none" xmlns="http://www.w3.org/2000/svg">
<g clip-path="url(#clip0_1265_22496)">
<path d="M12 24C18.6274 24 24 18.6274 24 12C24 5.37258 18.6274 0 12 0C5.37258 0 0 5.37258 0 12C0 18.6274 5.37258 24 12 24Z" fill="#2DAEE4"/>
<path fill-rule="evenodd" clip-rule="evenodd" d="M6.67177 9.04735H6.74327C7.36924 9.03565 7.91331 8.79905 8.37482 8.33818C8.82333 7.85327 9.04824 7.2975 9.04824 6.67089C9.04824 6.35173 9.16329 6.07677 9.39405 5.84601C9.50341 5.73389 9.63457 5.64537 9.77946 5.58589C9.92435 5.52642 10.0799 5.49725 10.2365 5.5002C10.555 5.5002 10.8306 5.61526 11.0607 5.84601C11.2915 6.07677 11.4065 6.35173 11.4065 6.67089C11.4065 6.9894 11.2973 7.265 11.0789 7.49576C10.9785 7.60621 10.8569 7.6953 10.7213 7.75773C10.5857 7.82016 10.439 7.85464 10.2898 7.85912C9.61571 7.83507 9.03654 8.06583 8.55163 8.55074C8.06671 9.03565 7.83661 9.60312 7.86001 10.2538C7.88341 10.9272 8.12651 11.4888 8.58738 11.938C9.09569 12.3871 9.66316 12.6062 10.2898 12.5945C10.439 12.5991 10.5858 12.6337 10.7214 12.6962C10.857 12.7587 10.9786 12.848 11.0789 12.9585C11.2973 13.1886 11.4065 13.4577 11.4065 13.7645C11.4065 14.096 11.2915 14.3769 11.0607 14.6076C10.9542 14.7185 10.8261 14.8063 10.6844 14.8658C10.5426 14.9253 10.3902 14.9551 10.2365 14.9534C9.90496 14.9534 9.62481 14.8377 9.39405 14.6076C9.28193 14.4983 9.1934 14.3671 9.13393 14.2222C9.07445 14.0773 9.04529 13.9218 9.04824 13.7652C9.05325 13.4616 8.99603 13.1602 8.8801 12.8796C8.76416 12.599 8.59198 12.3452 8.37417 12.1336C8.16381 11.9105 7.91131 11.7313 7.63127 11.6063C7.35122 11.4814 7.04919 11.4131 6.74262 11.4056C6.51837 11.418 6.32661 11.3822 6.16671 11.2997C6.00962 11.2191 5.87545 11.1002 5.7767 10.9539C5.67485 10.8033 5.6025 10.6348 5.56349 10.4572C5.52261 10.28 5.5138 10.0968 5.53749 9.91643C5.69089 9.33726 6.0692 9.04735 6.67177 9.04735ZM6.68802 12.5945C6.99548 12.5945 7.26459 12.707 7.4947 12.9319C7.72545 13.1561 7.84636 13.4226 7.85871 13.7301C7.84636 14.3801 8.07126 14.9476 8.53212 15.4325C8.99364 15.9051 9.54875 16.1417 10.1994 16.1417H10.2527C10.891 16.1417 11.4403 15.9051 11.9018 15.4325C12.3744 14.9593 12.6051 14.3925 12.5934 13.7294C12.5925 13.4192 12.5275 13.1126 12.4023 12.8288C12.2771 12.545 12.0945 12.2902 11.8661 12.0803C11.3994 11.6364 10.8566 11.4115 10.2365 11.4063H10.1637C10.0145 11.4018 9.86772 11.3673 9.73214 11.3049C9.59656 11.2425 9.47495 11.1534 9.37455 11.0429C9.26822 10.9338 9.18449 10.8048 9.12816 10.6632C9.07183 10.5217 9.044 10.3704 9.04629 10.218C9.04629 9.89953 9.16199 9.62392 9.3921 9.39316C9.58776 9.19816 9.81981 9.08506 10.0876 9.05515L10.1656 9.04735L10.1955 9.048C10.2265 9.04719 10.2575 9.0474 10.2885 9.04865C10.8995 9.04085 11.4312 8.8101 11.8856 8.35573C12.3705 7.87082 12.6071 7.2975 12.5947 6.63514C12.5947 6.37513 12.6838 6.13852 12.8612 5.92597L12.8788 5.90841L12.8963 5.89021C12.8963 5.87851 12.9029 5.87266 12.9139 5.87266L12.9321 5.85511V5.83756H12.9497V5.81871C12.9614 5.81871 12.9672 5.81286 12.9672 5.80116L12.9848 5.78361H13.0205C13.0205 5.77126 13.027 5.76541 13.0381 5.76541L13.0563 5.74786V5.73031H13.0914C13.0914 5.71796 13.0979 5.71211 13.1089 5.71211L13.1271 5.69456L13.1447 5.67701H13.1622C13.1622 5.66531 13.1687 5.65946 13.1804 5.65946C13.1921 5.65946 13.198 5.65296 13.198 5.64126H13.2155L13.2331 5.62371H13.2688V5.60616H13.2864L13.3046 5.58796H13.3397V5.57171H13.3754L13.393 5.55415H13.4287L13.4463 5.5366H13.4996L13.5171 5.5184H13.5704C13.5821 5.5184 13.588 5.51255 13.588 5.50085H13.9604L13.9695 5.50995C13.9754 5.5158 13.9838 5.5184 13.9955 5.5184H14.0313L14.0404 5.5275C14.0462 5.53335 14.0547 5.5366 14.0664 5.5366H14.1021L14.1197 5.55415H14.1554L14.173 5.57171H14.2087C14.2204 5.58341 14.2321 5.58926 14.2438 5.58926L14.262 5.60746H14.2971V5.62501H14.3153L14.3329 5.64256L14.3413 5.65166C14.3478 5.65816 14.3563 5.66076 14.368 5.66076L14.3862 5.67831H14.4037C14.4037 5.69001 14.4154 5.69586 14.4388 5.69586L14.457 5.71341V5.73161H14.4746C14.4746 5.74331 14.4863 5.74916 14.5103 5.74916C14.5103 5.76086 14.5162 5.76671 14.5279 5.76671V5.78491H14.5454L14.5636 5.80246C14.5753 5.81416 14.587 5.82001 14.5987 5.82001L14.6163 5.83821C14.6163 5.84991 14.6228 5.85576 14.6345 5.85576V5.87331H14.6521C14.6521 5.88501 14.6553 5.89411 14.6612 5.89931L14.6696 5.90907C14.6696 5.92077 14.6761 5.92662 14.6878 5.92662L14.7054 5.94417C14.7054 5.95587 14.708 5.96497 14.7138 5.97082L14.7229 5.97992L14.7405 5.99747L14.7587 6.01502V6.05077L14.7762 6.06832V6.08522H14.7938C14.7938 6.09757 14.797 6.10602 14.8029 6.11187L14.8113 6.12097C14.8113 6.13267 14.8178 6.13852 14.8295 6.13852V6.15672C14.8295 6.16842 14.8321 6.17687 14.838 6.18272L14.8471 6.19182L14.8646 6.20937C14.8646 6.23342 14.8711 6.24512 14.8828 6.24512V6.26267C14.8828 6.27503 14.8854 6.28348 14.8913 6.28933L14.9004 6.29843V6.33353L14.9179 6.35173V6.40503C14.9296 6.41673 14.9355 6.42843 14.9355 6.44013V6.49343C14.9478 6.50513 14.9537 6.51683 14.9537 6.52918V6.67024C14.9537 7.29685 15.1779 7.85262 15.6271 8.33753C16.0886 8.7984 16.6385 9.035 17.2768 9.0467C17.5953 9.035 17.8794 9.14421 18.1284 9.37496C18.376 9.60507 18.5002 9.88588 18.5002 10.2174C18.5002 10.5482 18.3851 10.8284 18.1544 11.0598C18.0478 11.1708 17.9196 11.2587 17.7777 11.3181C17.6359 11.3776 17.4833 11.4074 17.3295 11.4056C17.1773 11.4078 17.0261 11.38 16.8847 11.3236C16.7432 11.2673 16.6143 11.1836 16.5053 11.0774C16.3934 10.9742 16.3034 10.8496 16.2409 10.7108C16.1783 10.5721 16.1445 10.4222 16.1412 10.27C16.1536 9.62002 15.917 9.04671 15.4327 8.55009C14.9595 8.07688 14.3862 7.84677 13.7121 7.85847C13.4056 7.86591 13.1036 7.93403 12.8236 8.05887C12.5435 8.18372 12.291 8.36283 12.0806 8.58584C11.8627 8.79733 11.6905 9.05121 11.5746 9.33182C11.4587 9.61243 11.4015 9.91381 11.4065 10.2174L11.4059 10.272C11.4189 10.8765 11.6431 11.4141 12.0793 11.884C12.5401 12.3455 13.0901 12.5822 13.7284 12.5939C14.1535 12.5705 14.4791 12.7239 14.7034 13.0554C14.9283 13.3739 14.9992 13.7119 14.9166 14.0661C14.7509 14.6577 14.3725 14.9528 13.7817 14.9528H13.7284C13.066 14.9762 12.5161 15.2193 12.0793 15.6801C11.6295 16.1293 11.4052 16.6792 11.4052 17.3292C11.4052 17.6484 11.2902 17.9234 11.0594 18.1541C10.9528 18.2651 10.8246 18.353 10.6828 18.4124C10.5409 18.4719 10.3883 18.5017 10.2345 18.4999H10.1994C9.88026 18.4999 9.60791 18.3849 9.38365 18.1541C9.27494 18.0463 9.18905 17.9177 9.13109 17.776C9.07313 17.6343 9.04429 17.4823 9.04629 17.3292C9.04629 16.6792 8.82203 16.1293 8.37287 15.6801C8.16246 15.4571 7.90993 15.278 7.62989 15.1532C7.34985 15.0283 7.04784 14.9602 6.74132 14.9528C6.5803 14.9617 6.41917 14.9372 6.26812 14.8807C6.11708 14.8242 5.9794 14.737 5.8638 14.6245C5.74579 14.515 5.65234 14.3818 5.58959 14.2336C5.52685 14.0853 5.49624 13.9255 5.49979 13.7645C5.49979 13.4454 5.61484 13.1704 5.8456 12.9397C5.95496 12.8275 6.08612 12.739 6.23101 12.6795C6.3759 12.6201 6.53143 12.5909 6.68802 12.5939V12.5945Z" fill="white"/>
</g>
<defs>
<clipPath id="clip0_1265_22496">
<rect width="24" height="24" fill="white"/>
</clipPath>
</defs>
</svg>
