<svg viewBox="0 0 24 24" fill="none" xmlns="http://www.w3.org/2000/svg">
<g clip-path="url(#clip0_1265_22492)">
<path d="M12 24C18.6274 24 24 18.6274 24 12C24 5.37258 18.6274 0 12 0C5.37258 0 0 5.37258 0 12C0 18.6274 5.37258 24 12 24Z" fill="black"/>
<path d="M6.00779 18C5.9979 17.8333 5.99742 17.6662 6.00638 17.4995C6.06285 17.4826 6.12074 17.4713 6.18003 17.4642C6.35085 17.4353 6.51956 17.3958 6.68615 17.3464C6.73132 17.3322 6.7765 17.3167 6.82026 17.2998C7.03909 17.2158 7.2325 17.0774 7.37932 16.8981C7.48097 16.7732 7.56991 16.6384 7.64615 16.4958C7.75344 16.3009 7.84874 16.0998 7.93274 15.8936C8.10285 15.4786 8.27227 15.0621 8.44097 14.6449L10.1767 10.344C10.7252 8.98094 11.2638 7.61435 11.7911 6.24353C11.8017 6.21529 11.8137 6.18847 11.8257 6.16024C12.0205 6.10659 12.2125 6.05153 12.4116 6C12.4229 6.02824 12.4341 6.05224 12.4433 6.07765L13.1139 7.91365C13.8733 10.0009 14.6435 12.0842 15.4243 14.1635C15.6389 14.7318 15.8549 15.3 16.073 15.8661C16.1591 16.0976 16.26 16.3235 16.3758 16.5424C16.4267 16.6359 16.4818 16.727 16.541 16.8155C16.7224 17.0922 17.004 17.292 17.3294 17.3739C17.5045 17.4198 17.6824 17.4544 17.8617 17.4776L17.9894 17.496C18.0078 17.5518 17.9965 17.6054 17.9979 17.6584C18 17.712 17.9979 17.7713 17.9979 17.8285C18 17.8835 17.9986 17.9379 17.9951 17.9929C17.9767 17.9958 17.9626 17.9986 17.9485 18H13.457C13.4523 17.9904 13.4489 17.9802 13.4471 17.9696V17.5186C13.4482 17.5118 13.4501 17.5052 13.4527 17.4988C13.4899 17.4885 13.528 17.4814 13.5664 17.4776C13.7513 17.4544 13.9334 17.4191 14.1141 17.3732C14.1861 17.3534 14.2574 17.328 14.328 17.3026C14.3633 17.2885 14.3972 17.2722 14.4297 17.2532C14.6069 17.1558 14.6781 17.0033 14.6626 16.8085C14.6547 16.7202 14.6389 16.6328 14.6153 16.5473C14.58 16.4132 14.5306 16.284 14.484 16.1541C13.5537 13.6119 12.6334 11.066 11.7233 8.51647C11.7134 8.48823 11.7106 8.45788 11.6817 8.43318C11.6725 8.43882 11.6605 8.44306 11.6534 8.45082C11.6461 8.46369 11.6404 8.47745 11.6365 8.49176C11.1918 9.74541 10.7181 10.9892 10.2459 12.2329C9.89791 13.1548 9.54921 14.0753 9.2245 15.0049C9.09489 15.3778 8.969 15.7519 8.84685 16.1273C8.799 16.2706 8.76358 16.4177 8.74097 16.5671C8.72369 16.6666 8.72083 16.7681 8.7325 16.8685C8.74016 16.9339 8.76146 16.9969 8.79502 17.0536C8.82858 17.1103 8.87365 17.1593 8.92732 17.1974C8.99932 17.2475 9.07838 17.2878 9.16168 17.3153C9.29438 17.3612 9.43132 17.3958 9.57038 17.4184C9.72356 17.4459 9.87815 17.4671 10.032 17.4911L10.0652 17.4967C10.0689 17.5077 10.0713 17.5191 10.0723 17.5306V17.9668C10.0712 17.9755 10.0693 17.984 10.0666 17.9922C10.0529 17.9953 10.039 17.9977 10.025 17.9993H6.00779V18Z" fill="white"/>
</g>
<defs>
<clipPath id="clip0_1265_22492">
<rect width="24" height="24" fill="white"/>
</clipPath>
</defs>
</svg>