<svg width="24" height="24" viewBox="0 0 24 24" fill="none" xmlns="http://www.w3.org/2000/svg">
<path d="M4.25236 20C4.24124 19.7777 4.23754 19.5555 4.24865 19.3332C4.32275 19.311 4.39684 19.2961 4.47463 19.285C4.69691 19.248 4.91918 19.1924 5.13404 19.1294C5.19332 19.1109 5.25259 19.0887 5.31186 19.0665C5.59711 18.9553 5.84902 18.7701 6.04166 18.533C6.17503 18.3663 6.28987 18.1848 6.38989 17.9958C6.53066 17.7365 6.65291 17.4661 6.76405 17.1919C6.98633 16.6363 7.2086 16.0843 7.42717 15.5286C8.1829 13.617 8.93863 11.7055 9.69436 9.79393C10.4093 7.97499 11.1132 6.15605 11.8023 4.326C11.8171 4.28896 11.8319 4.25191 11.8467 4.21486C12.1023 4.14448 12.3505 4.07039 12.6098 4C12.6247 4.03705 12.6395 4.07039 12.6506 4.10373C12.9433 4.91873 13.2359 5.73373 13.5249 6.55244C14.5214 9.33457 15.5179 12.113 16.5404 14.884C16.8219 15.6397 17.1035 16.3992 17.3887 17.1549C17.4999 17.4624 17.6332 17.7662 17.7851 18.0551C17.8518 18.1811 17.9222 18.2996 18 18.4182C18.2371 18.7886 18.6038 19.0516 19.0299 19.1628C19.2595 19.222 19.4892 19.2702 19.7263 19.2998L19.893 19.3258C19.9152 19.3999 19.9041 19.4702 19.9041 19.5406C19.9041 19.611 19.9041 19.6925 19.9041 19.7666C19.9078 19.8407 19.9041 19.9111 19.9004 19.9852C19.8782 19.9889 19.8597 19.9926 19.8375 19.9963C19.8115 19.9963 19.7856 19.9963 19.7597 19.9963H13.9768C13.9694 19.9852 13.9657 19.9704 13.962 19.9555C13.962 19.7555 13.962 19.5555 13.962 19.3554C13.962 19.348 13.9657 19.3369 13.9694 19.3295C14.0176 19.3147 14.0657 19.3072 14.1176 19.2998C14.3584 19.2665 14.5955 19.222 14.8326 19.1591C14.9252 19.1331 15.0215 19.0998 15.1104 19.0627C15.1549 19.0442 15.1993 19.022 15.2438 18.9961C15.4772 18.8664 15.5698 18.6627 15.5476 18.4033C15.5365 18.2848 15.5179 18.1699 15.4846 18.0551C15.4364 17.8773 15.3735 17.7032 15.3142 17.5328C14.0991 14.1431 12.8988 10.7497 11.7096 7.34892C11.6985 7.31188 11.6911 7.27113 11.6541 7.23779C11.643 7.2452 11.6244 7.2526 11.617 7.26001C11.6059 7.27854 11.5985 7.29706 11.5948 7.31558C11.0132 8.98634 10.3945 10.646 9.77956 12.3019C9.3239 13.5281 8.86824 14.758 8.44592 15.9954C8.27551 16.4918 8.11251 16.9919 7.95322 17.492C7.89024 17.6847 7.84578 17.881 7.81615 18.0773C7.79392 18.2107 7.79022 18.3441 7.80503 18.4811C7.82356 18.6552 7.91617 18.8145 8.06065 18.9183C8.15326 18.985 8.25699 19.0368 8.36813 19.0739C8.54224 19.1368 8.72006 19.1813 8.90158 19.2109C9.10163 19.248 9.30168 19.2776 9.50543 19.3072C9.52025 19.311 9.53136 19.311 9.54988 19.3147C9.55359 19.3295 9.55729 19.3443 9.561 19.3591C9.561 19.5517 9.561 19.7481 9.561 19.9407C9.561 19.9518 9.55729 19.963 9.55359 19.9741C9.53506 19.9778 9.51654 19.9815 9.49802 19.9815C9.47209 19.9815 9.44615 19.9815 9.42022 19.9815L4.25236 20Z" fill="black"/>
</svg>
