<svg width="24" height="24" viewBox="0 0 24 24" fill="none" xmlns="http://www.w3.org/2000/svg">
<rect x="2" y="2" width="20" height="20" rx="10" fill="#1E1E1E"/>
<path opacity="0.4" d="M17.6891 14.0884C18.0356 14.683 18.0371 15.4176 17.693 16.0136C17.349 16.6096 16.712 16.9756 16.0238 16.9728C15.3357 16.97 14.7017 16.5988 14.3625 16L10.3365 9.02723C9.80856 8.10861 10.1253 6.93595 11.0439 6.40803C11.9625 5.8801 13.1352 6.19681 13.6631 7.11543L17.6891 14.0884Z" fill="#4BDB4B"/>
<path opacity="0.8" d="M9.63823 16C9.10683 16.9113 7.93942 17.2228 7.02473 16.6972C6.11003 16.1717 5.79114 15.0063 6.31083 14.0882L10.3364 7.11562C10.6742 6.51381 11.3091 6.13975 11.9992 6.13601C12.6893 6.13228 13.3282 6.49945 13.6724 7.09758C14.0167 7.6957 14.0131 8.43261 13.6632 9.02742L9.63823 16Z" fill="#4BDB4B"/>
<path d="M13.6519 7.09608C13.6297 7.05828 13.6057 7.02208 13.5813 6.98628C13.5695 6.96908 13.5583 6.95148 13.5459 6.93468C13.5221 6.90208 13.4965 6.87128 13.4709 6.84068C13.4553 6.82188 13.4403 6.80268 13.4239 6.78448C13.4007 6.75888 13.3763 6.73508 13.3521 6.71088C13.3279 6.68668 13.3097 6.66808 13.2873 6.64768C13.2649 6.62728 13.2437 6.61088 13.2217 6.59268C13.1941 6.56988 13.1667 6.54688 13.1375 6.52548C13.1175 6.51068 13.0965 6.49728 13.0759 6.48348C13.0435 6.46148 13.0109 6.43968 12.9759 6.41948C12.9687 6.41528 12.9623 6.41028 12.9559 6.40608C12.9407 6.39728 12.9247 6.39068 12.9091 6.38228C12.8767 6.36488 12.8441 6.34788 12.8111 6.33248C12.7833 6.31928 12.7549 6.30748 12.7263 6.29588C12.6977 6.28428 12.6705 6.27328 12.6423 6.26328C12.6091 6.25154 12.5758 6.24074 12.5423 6.23088C12.5175 6.22348 12.4929 6.21648 12.4679 6.21088C12.4321 6.20188 12.3959 6.19408 12.3597 6.18708C12.3351 6.18248 12.3103 6.17808 12.2857 6.17428C12.2503 6.16908 12.2149 6.16488 12.1791 6.16148C12.1516 6.15881 12.1242 6.15681 12.0969 6.15548C12.0648 6.15388 12.0326 6.15308 12.0003 6.15308C11.9685 6.15308 11.9369 6.15308 11.9051 6.15548C11.8773 6.15688 11.8493 6.15888 11.8213 6.16148C11.7863 6.16488 11.7511 6.16888 11.7163 6.17428C11.6911 6.17808 11.6659 6.18248 11.6409 6.18728C11.6049 6.19408 11.5692 6.20188 11.5339 6.21068C11.5085 6.21708 11.4833 6.22428 11.4581 6.23168C11.4248 6.24154 11.3914 6.25221 11.3581 6.26368C11.3293 6.27388 11.3007 6.28528 11.2723 6.29688C11.2439 6.30848 11.2167 6.31988 11.1895 6.33268C11.1557 6.34848 11.1223 6.36588 11.0895 6.38368C11.0745 6.39188 11.0591 6.39828 11.0443 6.40688C11.0373 6.41088 11.0311 6.41568 11.0243 6.41968C10.9891 6.43968 10.9553 6.46288 10.9221 6.48548C10.9021 6.49868 10.8821 6.51148 10.8635 6.52548C10.8329 6.54808 10.8035 6.57208 10.7747 6.59628C10.7547 6.61308 10.7347 6.62928 10.7147 6.64708C10.6901 6.66928 10.6671 6.69288 10.6439 6.71608C10.6207 6.73928 10.5983 6.75988 10.5783 6.78268C10.5583 6.80548 10.5421 6.82548 10.5241 6.84708C10.5013 6.87488 10.4781 6.90268 10.4567 6.93188C10.4415 6.95188 10.4279 6.97368 10.4137 6.99468C10.3921 7.02648 10.3707 7.05868 10.3509 7.09228C9.99799 7.68705 9.99279 8.4258 10.3373 9.02548L12.0007 11.9067L13.6639 9.02548C14.0077 8.42712 14.0031 7.69011 13.6519 7.09608Z" fill="#4BDB4B"/>
</svg>
