<svg width="24" height="24" viewBox="0 0 24 24" fill="none" xmlns="http://www.w3.org/2000/svg">
<g clip-path="url(#clip0_1265_22488)">
<path d="M12 24C18.6274 24 24 18.6274 24 12C24 5.37258 18.6274 0 12 0C5.37258 0 0 5.37258 0 12C0 18.6274 5.37258 24 12 24Z" fill="#2CD3E1"/>
<path d="M6.88682 13.3805C6.88268 13.3134 6.88056 13.2461 6.88045 13.1788C6.88045 10.9407 8.62536 9.12136 10.8081 9.04373C10.8603 9.04373 10.9163 9.04373 10.9685 9.04818L10.4479 8.53082C10.4479 8.53082 12.5435 8.18082 15.234 9.79845C15.234 9.79845 15.2735 9.88055 15.234 10.1217C15.234 10.1217 16.5016 10.6652 16.6098 11.7215C16.718 12.7779 16.046 13.3818 15.5032 13.4677C15.5032 13.4677 15.7851 13.0325 15.3517 12.7995C15.2572 12.7484 15.1504 12.7247 15.0431 12.7308C14.2145 12.7308 14.1191 13.6707 14.1191 13.6707C14.1102 13.7178 14.1102 13.7655 14.1102 13.8126C14.1102 13.8126 13.9893 15.0084 15.9696 15.149C16.4222 14.5653 16.8187 13.9401 17.1539 13.2819C17.683 12.2442 18.0791 11.144 18.3331 10.0072C17.1794 9.06155 15.8188 8.25082 14.3558 7.57182C13.8073 7.31727 13.2759 7.09645 12.7725 6.90682C12.5159 6.80951 12.2571 6.71827 11.9962 6.63318C11.7913 6.69936 11.5316 6.78973 11.2198 6.90682C10.7171 7.09582 10.1851 7.31727 9.63718 7.57182C8.17545 8.25018 6.81427 9.06091 5.66055 10.0078C5.72291 10.3082 5.81773 10.683 5.95391 11.1183C6.19677 11.8987 6.50899 12.6558 6.88682 13.3805ZM19 9.75582L18.9682 9.934C18.9516 10.0721 18.839 10.5672 18.7003 11.0413C18.4469 11.9086 18.1126 12.7501 17.7018 13.5549C17.1253 14.6787 16.4253 15.6587 15.6222 16.4656C14.6314 17.459 13.4846 18.1927 12.2068 18.6496L12.1355 18.6751L12 18.7273L11.8657 18.6802L11.7906 18.6541C10.5027 18.1916 9.33561 17.4449 8.37591 16.4695C7.569 15.6549 6.86964 14.6768 6.29627 13.5587C5.76183 12.5082 5.35792 11.3963 5.09355 10.2477C5.06173 10.1052 5.02673 9.927 5.03309 9.95245L5 9.76918L5.07636 9.70555L5.13236 9.65782C6.30582 8.67018 7.69373 7.82318 9.19236 7.11109C10.0358 6.70613 10.9046 6.35603 11.7932 6.063L11.9955 6L12.1336 6.04136L12.2024 6.06364C12.8896 6.28445 13.8028 6.63636 14.8013 7.11109C16.298 7.82191 17.684 8.66764 18.8562 9.65336L19 9.75518V9.75582ZM14.1624 10.2165C14.1974 10.1994 14.31 10.1434 14.4405 10.0097C14.7007 10.0441 14.9565 10.1262 14.9565 10.1262C14.4837 9.84173 13.8365 9.67309 13.1206 9.67755C13.1206 9.67755 13.3943 10.0657 14.1535 10.2248L14.1624 10.2165Z" fill="black"/>
</g>
<defs>
<clipPath id="clip0_1265_22488">
<rect width="24" height="24" fill="white"/>
</clipPath>
</defs>
</svg>
