<svg width="24" height="24" viewBox="0 0 24 24" fill="none" xmlns="http://www.w3.org/2000/svg">
<path fill-rule="evenodd" clip-rule="evenodd" d="M18.3843 18.8195C18.231 18.941 18.0494 18.9992 17.8685 18.9992C17.6227 18.9992 17.3786 18.8912 17.2144 18.6829C16.9294 18.321 16.9911 17.7972 17.3519 17.513C19.2476 16.0133 20.3351 13.8237 20.3351 11.5076C20.3351 9.17627 19.2385 6.98159 17.3252 5.48952C16.9627 5.20696 16.8977 4.68233 17.1802 4.31965C17.4635 3.95696 17.9877 3.89539 18.3485 4.17542C20.6701 5.98547 22 8.65838 22 11.5076C22 14.3374 20.6826 17.0027 18.3843 18.8195ZM16.6919 15.2432C16.5352 15.3757 16.3452 15.4398 16.1561 15.4398C15.9186 15.4398 15.6836 15.3394 15.5186 15.1437C15.2219 14.7911 15.2669 14.2657 15.6186 13.9696C16.5019 13.2248 16.9877 12.2667 16.9877 11.2714C16.9877 10.2787 16.5019 9.32134 15.6186 8.57741C15.2669 8.28051 15.2219 7.75504 15.5186 7.40247C15.8144 7.05075 16.3411 7.00521 16.6919 7.30295C17.9568 8.36907 18.6535 9.77849 18.6535 11.2714C18.6535 12.7669 17.9568 14.178 16.6919 15.2432ZM13.2746 13.6331L16.8669 19.3922C17.1103 19.781 16.9911 20.2964 16.6011 20.5401C16.2103 20.7831 15.697 20.6633 15.4537 20.2736L12.0013 14.738L8.53978 20.2753C8.38145 20.5275 8.1098 20.6667 7.83314 20.6667C7.68231 20.6667 7.52899 20.6253 7.39233 20.5393C7.00234 20.2947 6.88401 19.781 7.12817 19.3905L10.723 13.6407C9.99055 13.2046 9.49391 12.4126 9.49391 11.4991C9.49391 10.1201 10.6147 8.99914 11.9921 8.99914C13.3696 8.99914 14.4904 10.1201 14.4904 11.4991C14.4904 12.4067 13.9996 13.1953 13.2746 13.6331ZM11.9921 10.6658C11.533 10.6658 11.1596 11.0395 11.1596 11.4991C11.1596 11.9597 11.533 12.3325 11.9921 12.3325C12.4513 12.3325 12.8246 11.9597 12.8246 11.4991C12.8246 11.0395 12.4513 10.6658 11.9921 10.6658ZM8.48143 15.1437C8.31727 15.3394 8.08144 15.4398 7.84479 15.4398C7.65479 15.4398 7.4648 15.3757 7.30814 15.2432C6.0432 14.178 5.34656 12.7669 5.34656 11.2714C5.34656 9.77849 6.0432 8.36908 7.30814 7.30295C7.65979 7.00437 8.18561 7.05076 8.48143 7.40248C8.77808 7.75504 8.73308 8.28051 8.38143 8.57741C7.49813 9.32134 7.01232 10.2787 7.01232 11.2714C7.01232 12.2667 7.49813 13.2249 8.38143 13.9696C8.73308 14.2657 8.77808 14.7912 8.48143 15.1437ZM3.66493 11.5076C3.66493 13.8246 4.75239 16.0133 6.64731 17.513C7.00729 17.7972 7.06896 18.321 6.78397 18.6829C6.61981 18.8912 6.37648 18.9992 6.13066 18.9992C5.949 18.9992 5.76734 18.941 5.61402 18.8195C3.31745 17.0035 2 14.3382 2 11.5076C2 8.65839 3.33078 5.98547 5.65151 4.17542C6.014 3.89455 6.53648 3.95696 6.8198 4.31965C7.10312 4.68233 7.03812 5.20696 6.67481 5.48952C4.76238 6.98159 3.66493 9.17627 3.66493 11.5076Z" fill="#6B7084"/>
</svg>
