<svg viewBox="0 0 24 24" fill="none" xmlns="http://www.w3.org/2000/svg">
<path d="M12.0601 3.34982C13.841 3.34982 15.5583 4.01767 16.7986 5.25795C18.0707 6.49823 18.7703 8.12014 18.7703 9.86926V20.6502H5.34982V9.86926C5.34982 8.12014 6.04947 6.49823 7.32156 5.25795C8.56184 4.01767 10.2474 3.34982 12.0601 3.34982ZM12.0601 3C10.1837 3 8.40283 3.69965 7.06714 5.00353C5.73145 6.30742 5 8.02473 5 9.86926V21H19.1201V9.86926C19.1201 8.02473 18.3887 6.30742 17.053 5.03534C15.7173 3.69965 13.9364 3 12.0601 3Z" fill="#070001"/>
<path d="M16.2146 5.89895L15.8966 5.58093C14.8471 4.65867 13.5114 4.18164 12.0803 4.18164C10.522 4.18164 9.02735 4.78588 7.94607 5.89895C6.833 7.01203 6.22876 8.47493 6.22876 10.0332V19.7647H17.9319V10.065C17.9319 8.47493 17.2959 7.01203 16.2146 5.89895ZM14.4019 19.1604C13.8613 19.3513 13.257 19.4467 12.6528 19.4467H8.42311V17.5067C8.3277 17.4113 8.23229 17.2841 8.16869 17.1887C7.43724 16.2346 7.05561 15.058 7.05561 13.8495V10.1922C7.05561 8.76115 7.59625 7.42546 8.55031 6.37599C8.67752 6.37599 8.83653 6.37599 8.99554 6.40779C9.98141 6.5032 11.3171 6.85302 12.462 7.64807C13.4796 8.34772 14.7199 9.6198 14.7199 11.6869V19.065C14.6245 19.0968 14.5291 19.1286 14.4019 19.1604Z" fill="#070001"/>
<path d="M12.4938 7.64806C11.3489 6.88481 10.0132 6.50319 9.02733 6.40778C8.86832 6.40778 8.70931 6.37598 8.5821 6.37598C7.62804 7.42545 7.0874 8.76114 7.0874 10.1922V13.8495C7.0874 15.058 7.46903 16.2346 8.20048 17.1887C8.29588 17.2841 8.35949 17.4113 8.45489 17.5067V19.4466H12.6846C13.2888 19.4466 13.8613 19.3512 14.4337 19.1604C14.5609 19.1286 14.6563 19.0968 14.7835 19.0332V11.6551C14.7517 9.58799 13.5114 8.34771 12.4938 7.64806ZM8.77291 19.0968V17.8565C9.34535 18.3972 10.0132 18.8424 10.7446 19.0968H8.77291ZM14.4019 18.8106C13.8613 19.0014 13.257 19.0968 12.6528 19.0968C11.2535 19.0968 9.94959 18.5562 8.93193 17.5385L8.74111 17.3477C8.6139 17.2205 8.4867 17.0615 8.39129 16.9025C7.72344 16.012 7.37362 14.9307 7.37362 13.8177V10.1922C7.37362 8.92015 7.85065 7.67986 8.67751 6.7258C10.9037 6.82121 14.3701 8.34771 14.3701 11.6551V18.8106H14.4019Z" fill="#070001"/>
<path d="M10.7234 14.843C10.628 14.843 10.5326 14.7476 10.5326 14.6522V11.4084C10.5326 10.5497 11.2322 9.8501 12.0909 9.8501C12.9496 9.8501 13.6492 10.5497 13.6492 11.4084C13.6492 11.5038 13.5538 11.5992 13.4584 11.5992C13.363 11.5992 13.2676 11.5038 13.2676 11.4084C13.2676 10.7724 12.7269 10.2317 12.0909 10.2317C11.4549 10.2317 10.9142 10.7724 10.9142 11.4084V14.6522C10.9142 14.7476 10.8188 14.843 10.7234 14.843Z" fill="#070001"/>
<path d="M12.6633 12.3306C12.5679 12.3306 12.4725 12.2352 12.4725 12.1398C12.4725 11.9172 12.3135 11.7582 12.0909 11.7582C11.8683 11.7582 11.7093 11.9172 11.7093 12.1398C11.7093 12.2352 11.6139 12.3306 11.5184 12.3306C11.423 12.3306 11.3276 12.2352 11.3276 12.1398C11.3276 11.6945 11.6775 11.3447 12.1227 11.3447C12.5679 11.3447 12.9177 11.6945 12.9177 12.1398C12.8541 12.2352 12.7587 12.3306 12.6633 12.3306Z" fill="#070001"/>
<path d="M10.7234 14.8428C10.151 14.8428 9.67395 14.3658 9.67395 13.7934C9.67395 13.6979 9.76936 13.6025 9.86476 13.6025C9.96017 13.6025 10.0556 13.6979 10.0556 13.7934C10.0556 14.1432 10.3418 14.4294 10.6916 14.4294C11.0414 14.4294 11.3277 14.1432 11.3277 13.7934C11.3277 13.6979 11.4231 13.6025 11.5185 13.6025C11.6139 13.6025 11.7093 13.6979 11.7093 13.7934C11.7411 14.3658 11.2959 14.8428 10.7234 14.8428Z" fill="#070001"/>
<path d="M9.61035 12.6486C9.54675 12.6486 9.51495 12.6168 9.48314 12.585L8.62449 11.7263V12.4578C8.62449 12.5532 8.52908 12.6486 8.43367 12.6486C8.33827 12.6486 8.21106 12.5532 8.21106 12.426V11.2493C8.21106 11.1539 8.27466 11.0903 8.33827 11.0585C8.43367 11.0267 8.49728 11.0267 8.56088 11.0903L9.41954 11.9489V11.4401C9.41954 11.3447 9.51495 11.2493 9.61035 11.2493C9.70576 11.2493 9.80117 11.3447 9.80117 11.4401V12.426C9.80117 12.5214 9.73756 12.585 9.67396 12.6168C9.67396 12.6486 9.64216 12.6486 9.61035 12.6486Z" fill="#070001"/>
<path d="M10.6917 11.6312C10.5963 11.6312 10.5009 11.5358 10.5009 11.4404C10.5009 11.4086 10.5009 10.6136 9.96022 10.6136C9.86482 10.6136 9.76941 10.5182 9.76941 10.4227C9.76941 10.3273 9.86482 10.2319 9.96022 10.2319C10.6917 10.2319 10.8825 11.027 10.8825 11.4404C10.8825 11.5358 10.7871 11.6312 10.6917 11.6312Z" fill="#070001"/>
</svg>