<svg viewBox="0 0 24 24" fill="none" xmlns="http://www.w3.org/2000/svg">
<g clip-path="url(#clip0_1265_22484)">
<path d="M12 24C18.6274 24 24 18.6274 24 12C24 5.37258 18.6274 0 12 0C5.37258 0 0 5.37258 0 12C0 18.6274 5.37258 24 12 24Z" fill="#1F4C9F"/>
<path fill-rule="evenodd" clip-rule="evenodd" d="M5.5 14.7625L12 6.47498L18.5 14.7625V17.525L12 9.23748L5.5 17.525V14.7625ZM12.325 15.575C11.894 15.575 11.4807 15.4038 11.176 15.099C10.8712 14.7943 10.7 14.381 10.7 13.95C10.7 13.519 10.8712 13.1057 11.176 12.8009C11.4807 12.4962 11.894 12.325 12.325 12.325C12.756 12.325 13.1693 12.4962 13.474 12.8009C13.7788 13.1057 13.95 13.519 13.95 13.95C13.95 14.381 13.7788 14.7943 13.474 15.099C13.1693 15.4038 12.756 15.575 12.325 15.575Z" fill="white"/>
</g>
<defs>
<clipPath id="clip0_1265_22484">
<rect width="24" height="24" fill="white"/>
</clipPath>
</defs>
</svg>