<svg viewBox="0 0 24 24" fill="none" xmlns="http://www.w3.org/2000/svg">
<rect x="2" y="2" width="20" height="20" rx="10" fill="url(#paint0_linear_620_19328)"/>
<path d="M10.6994 13.0708L12.0296 9.02277L13.3844 13.0708H10.6994ZM16.3383 15.6306L15.238 12.6089H15.8949C16.0207 12.6079 16.141 12.5573 16.2297 12.4681C16.3185 12.379 16.3686 12.2585 16.3691 12.1327C16.3691 12.0734 16.3574 12.0147 16.3347 11.9599C16.312 11.9051 16.2787 11.8553 16.2368 11.8134C16.1949 11.7714 16.1451 11.7382 16.0903 11.7155C16.0355 11.6928 15.9768 11.6811 15.9175 11.6811H14.8911L14.7269 11.211H15.8949C16.018 11.211 16.1363 11.163 16.2245 11.0771C16.3127 10.9912 16.3638 10.8743 16.367 10.7512C16.3673 10.6888 16.3552 10.6271 16.3315 10.5694C16.3078 10.5117 16.2728 10.4594 16.2288 10.4153C16.1847 10.3712 16.1323 10.3363 16.0746 10.3125C16.017 10.2888 15.9552 10.2767 15.8928 10.277H14.3759L13.5548 8.01897C13.4321 7.69635 13.2293 7.41026 12.9656 7.1876C12.7051 6.97332 12.3749 6.86228 12.0378 6.87558C11.6998 6.86484 11.3692 6.97554 11.1058 7.1876C10.8419 7.41056 10.6386 7.69651 10.5146 8.01897L9.65452 10.2975H8.14575C8.02524 10.2975 7.90964 10.3453 7.82423 10.4303C7.73883 10.5153 7.69058 10.6307 7.69003 10.7512C7.69003 10.8764 7.73978 10.9965 7.82832 11.085C7.91686 11.1736 8.03695 11.2233 8.16217 11.2233H9.30761L9.13107 11.6811H8.10469C7.98383 11.6811 7.86792 11.7291 7.78245 11.8146C7.69699 11.9 7.64898 12.0159 7.64898 12.1368C7.64898 12.2606 7.69801 12.3793 7.78534 12.467C7.87266 12.5547 7.99118 12.6043 8.11496 12.6048H8.77389L7.65514 15.6306C7.58638 15.8012 7.54816 15.9825 7.54224 16.1664C7.5539 16.4242 7.66587 16.6673 7.85426 16.8438C8.06156 17.0233 8.32722 17.1211 8.60146 17.1188C8.83181 17.1315 9.05951 17.0645 9.24637 16.9292C9.43324 16.7939 9.56792 16.5985 9.62784 16.3757L10.061 15.0846H14.0454L14.4785 16.4065C14.5463 16.6218 14.6842 16.8083 14.8701 16.9363C15.0561 17.0642 15.2795 17.1263 15.5049 17.1127C15.6774 17.1161 15.8476 17.0729 15.9975 16.9875C16.1276 16.8909 16.243 16.7762 16.3403 16.6467C16.4251 16.501 16.4684 16.3349 16.4656 16.1664C16.4384 15.9872 16.3958 15.8107 16.3383 15.6388V15.6306Z" fill="#FEFEFE"/>
<defs>
<linearGradient id="paint0_linear_620_19328" x1="6.16547" y1="5.68097" x2="19.7335" y2="20.3761" gradientUnits="userSpaceOnUse">
<stop stop-color="#FC8F55"/>
<stop offset="0.44" stop-color="#FE7A6A"/>
<stop offset="1" stop-color="#FE687C"/>
</linearGradient>
</defs>
</svg>