<svg width="24" height="24" viewBox="0 0 24 24" fill="none" xmlns="http://www.w3.org/2000/svg">
<g clip-path="url(#clip0_1265_22480)">
<path d="M12 24C18.6274 24 24 18.6274 24 12C24 5.37258 18.6274 0 12 0C5.37258 0 0 5.37258 0 12C0 18.6274 5.37258 24 12 24Z" fill="#FD875E"/>
<path d="M10.3099 13.3627L12.0331 8.22633L13.7881 13.3627H10.3099ZM17.6129 16.6105L16.188 12.7763H17.0387C17.1999 12.7765 17.3546 12.7132 17.4695 12.6003C17.5844 12.4873 17.6502 12.3336 17.6526 12.1725C17.6526 12.0208 17.5905 11.8742 17.4815 11.7673C17.3724 11.6604 17.2229 11.5991 17.0676 11.5991H15.7388L15.5257 11.0025H17.0387C17.1964 11.0039 17.3484 10.9439 17.4625 10.835C17.5766 10.7262 17.6437 10.5772 17.6497 10.4197C17.6505 10.2594 17.5862 10.1062 17.4706 9.99358C17.3551 9.88091 17.1991 9.81736 17.0359 9.81808H15.0714L14.0076 6.95234C13.8475 6.54119 13.5847 6.17792 13.2442 5.89719C12.9047 5.62474 12.4782 5.48418 12.0432 5.50142C11.6069 5.48732 11.1796 5.62746 10.8364 5.89719C10.496 6.17818 10.2326 6.541 10.0708 6.95162L8.95647 9.84336H7.0036C6.84919 9.84201 6.70051 9.90176 6.58998 10.0096C6.47944 10.1174 6.41603 10.2646 6.41355 10.419C6.41355 10.7497 6.68727 11.0177 7.02527 11.0177H8.50797L8.27975 11.5983H6.95088C6.87415 11.5975 6.79801 11.6117 6.72679 11.6403C6.65557 11.6689 6.59068 11.7112 6.53583 11.7649C6.48097 11.8185 6.43721 11.8824 6.40706 11.953C6.37691 12.0236 6.36096 12.0994 6.36011 12.1761C6.36011 12.504 6.63022 12.769 6.96388 12.7705H7.81681L6.36805 16.6098C6.27922 16.8264 6.23011 17.0561 6.22217 17.2894C6.23661 17.6165 6.3825 17.9249 6.62661 18.1488C6.89681 18.3776 7.24035 18.5014 7.59437 18.4976C7.89012 18.5155 8.18309 18.4318 8.42476 18.2604C8.66643 18.089 8.8423 17.8402 8.92324 17.5551L9.48368 15.9164H14.6432L15.2043 17.5941C15.2954 17.8695 15.4753 18.1069 15.7158 18.2689C15.9563 18.431 16.2438 18.5087 16.5332 18.4897C16.7571 18.4947 16.9774 18.4391 17.1716 18.3308C17.3399 18.208 17.4894 18.0636 17.6151 17.8989C17.7247 17.7147 17.781 17.5037 17.7776 17.2894C17.7424 17.0618 17.6873 16.8378 17.6129 16.6199V16.6105Z" fill="#FEFEFE"/>
</g>
<defs>
<clipPath id="clip0_1265_22480">
<rect width="24" height="24" fill="white"/>
</clipPath>
</defs>
</svg>
