<svg width="24" height="24" viewBox="0 0 24 24" fill="none" xmlns="http://www.w3.org/2000/svg">
<path fill-rule="evenodd" clip-rule="evenodd" d="M15.1658 17C14.15 17 13.9517 17.2075 13.95 17.21C13.8825 17.3658 14.0958 17.9842 14.21 18.3175C14.4942 19.1442 14.8483 20.1733 14.2433 21.0208C13.6175 21.8983 12.3142 22 11.3883 22C5.94833 22 2 17.7942 2 12C2 6.48583 6.48583 2 12 2C17.5142 2 22 6.48583 22 12C22 13.8567 20.5608 17 15.1658 17ZM12 3.66667C7.405 3.66667 3.66667 7.405 3.66667 12C3.66667 16.8292 6.91333 20.3333 11.3883 20.3333C12.6725 20.3333 12.885 20.055 12.8867 20.0525C12.9933 19.9033 12.75 19.1983 12.6342 18.8592C12.3575 18.055 12.0133 17.055 12.5933 16.2417C13.1733 15.4275 14.34 15.3333 15.1658 15.3333C19.245 15.3333 20.3333 13.2375 20.3333 12C20.3333 7.405 16.595 3.66667 12 3.66667ZM17 12.8333C16.08 12.8333 15.3333 12.0867 15.3333 11.1667C15.3333 10.2467 16.08 9.5 17 9.5C17.9208 9.5 18.6667 10.2467 18.6667 11.1667C18.6667 12.0867 17.9208 12.8333 17 12.8333ZM13.6667 8.66667C12.7467 8.66667 12 7.92 12 7C12 6.08083 12.7467 5.33333 13.6667 5.33333C14.5875 5.33333 15.3333 6.08083 15.3333 7C15.3333 7.92 14.5875 8.66667 13.6667 8.66667ZM8.66833 10.3333C7.74667 10.3333 7 9.5875 7 8.66667C7 7.74667 7.74667 7 8.66833 7C9.5875 7 10.3333 7.74667 10.3333 8.66667C10.3333 9.5875 9.5875 10.3333 8.66833 10.3333ZM9.5 13.6667C9.5 14.5867 8.75333 15.3333 7.835 15.3333C6.9125 15.3333 6.16667 14.5867 6.16667 13.6667C6.16667 12.7458 6.9125 12 7.835 12C8.75333 12 9.5 12.7458 9.5 13.6667Z" fill="#6B7084"/>
</svg>
