<svg width="24" height="24" viewBox="0 0 24 24" fill="none" xmlns="http://www.w3.org/2000/svg">
<g clip-path="url(#clip0_1265_22470)">
<path d="M12 24C18.6274 24 24 18.6274 24 12C24 5.37258 18.6274 0 12 0C5.37258 0 0 5.37258 0 12C0 18.6274 5.37258 24 12 24Z" fill="#A71435"/>
<path d="M8.89574 5.72789C10.3444 5.01003 11.9972 4.81573 13.573 5.17802C15.1488 5.54031 16.5504 6.43683 17.5393 7.71509C18.5282 8.99335 19.0433 10.5744 18.9971 12.1893C18.9509 13.8043 18.3462 15.3534 17.2859 16.5731C16.9372 15.8142 16.6699 15.0183 16.371 14.2348L14.5658 9.50907C14.3917 9.03006 14.0992 8.56978 13.645 8.3209C13.009 8.01455 12.2961 7.90407 11.5971 8.00351C11.0368 8.06617 10.4519 8.25883 10.0721 8.70037C9.71102 9.11673 9.54926 9.65196 9.34412 10.1556L8.04296 13.4513C7.60748 14.496 7.23999 15.5782 6.767 16.6164C6.08569 15.8812 5.58503 14.9977 5.30465 14.0357C4.82015 12.4487 4.91593 10.7413 5.57491 9.21837C6.23389 7.69541 7.41316 6.45601 8.90219 5.72145L8.89574 5.72731V5.72789Z" fill="white"/>
<path d="M11.4976 10.4911C11.6218 10.1181 12.12 9.99335 12.4436 10.2053C12.6176 10.3359 12.6804 10.5596 12.7612 10.7587C13.5701 12.8727 14.3672 14.9996 15.1702 17.1206C15.2757 17.4251 15.431 17.7173 15.4937 18.0341C15.4427 18.0884 15.3838 18.1346 15.319 18.1712C14.4409 18.6406 13.4727 18.9178 12.479 18.9843C11.4853 19.0509 10.4888 18.9052 9.55581 18.5571C9.20708 18.4136 8.84662 18.2895 8.54126 18.0716C8.57232 17.7858 8.71533 17.5305 8.82142 17.2694C9.71758 15.0125 10.595 12.7486 11.4976 10.4911Z" fill="white"/>
</g>
<defs>
<clipPath id="clip0_1265_22470">
<rect width="24" height="24" fill="white"/>
</clipPath>
</defs>
</svg>
