<svg width="24" height="24" viewBox="0 0 24 24" fill="none" xmlns="http://www.w3.org/2000/svg">
<g clip-path="url(#clip0_1265_22462)">
<path d="M12 24C18.6274 24 24 18.6274 24 12C24 5.37258 18.6274 0 12 0C5.37258 0 0 5.37258 0 12C0 18.6274 5.37258 24 12 24Z" fill="#0092B5"/>
<path d="M9.24378 10.4413L12.0271 5.5416C12.0323 5.5325 12.0427 5.52665 12.0791 5.5416L14.7272 10.3523C14.6529 10.4129 14.5934 10.4895 14.553 10.5764C14.5126 10.6633 14.4924 10.7583 14.494 10.8541C14.4956 10.9499 14.5188 11.0441 14.562 11.1297C14.6052 11.2153 14.6672 11.2899 14.7434 11.348L12.2975 15.7602C12.2104 15.7184 12.1151 15.6964 12.0184 15.6957C11.9218 15.695 11.8262 15.7157 11.7385 15.7563L9.22103 11.272C9.32467 11.1597 9.38402 11.0136 9.38809 10.8608C9.39215 10.708 9.34065 10.559 9.24313 10.4413H9.24378ZM8.97728 11.4384L11.5045 15.9397C11.4499 16.0079 11.4101 16.0867 11.3875 16.171C9.34713 15.6822 8.07963 15.38 7.58368 15.2636C7.37393 14.9687 7.19037 14.6559 7.03508 14.3289L8.65488 11.478C8.76392 11.4919 8.87469 11.4785 8.97728 11.439V11.4384ZM8.62693 10.2144L6.62038 6.63945C7.98798 5.9134 9.68513 5.5325 11.7131 5.5L9.00783 10.2619C8.88845 10.2084 8.75579 10.1919 8.62693 10.2144ZM8.35393 10.3288C8.27054 10.389 8.20301 10.4686 8.15715 10.5606C8.11128 10.6526 8.08845 10.7544 8.09063 10.8573C8.0928 10.9601 8.11991 11.0608 8.16963 11.1508C8.21934 11.2409 8.29017 11.3175 8.37603 11.374L6.88753 13.9935C6.64022 13.381 6.49317 12.7327 6.45203 12.0735L6.15108 7.27515C6.14548 7.18275 6.16216 7.09035 6.19971 7.00574C6.23727 6.92113 6.2946 6.84678 6.36688 6.78895L8.35393 10.3288ZM12.6439 16.1775C12.6222 16.0937 12.5835 16.0151 12.5302 15.9468L15.0119 11.4703C15.119 11.4917 15.2298 11.4864 15.3343 11.4546L16.9424 14.3758C16.8059 14.6566 16.6486 14.9269 16.4718 15.185L12.6439 16.1775ZM12.1623 16.9576C12.28 16.9309 12.388 16.8718 12.4738 16.7869C12.5596 16.7019 12.6199 16.5947 12.6478 16.4772L16.1942 15.5574C15.7655 16.0904 15.2526 16.5497 14.6758 16.9172L12.3209 18.4213C12.2718 18.4528 12.2184 18.4769 12.1623 18.4928V16.9576ZM11.8672 16.9576V18.5C11.8003 18.4848 11.7365 18.4582 11.6787 18.4213L9.32373 16.9172C8.7731 16.5663 8.28055 16.1316 7.86383 15.629C8.50733 15.7817 9.67928 16.0612 11.3797 16.4681C11.4317 16.7106 11.6228 16.9023 11.8672 16.9582V16.9576ZM15.3577 10.2404C15.2397 10.1997 15.1125 10.1934 14.9911 10.2222L12.393 5.50195C14.3638 5.5455 16.02 5.92185 17.3597 6.6297L15.3577 10.2404ZM15.6066 10.3971L17.6151 6.7753C17.6927 6.83253 17.7547 6.90823 17.7956 6.99552C17.8365 7.08281 17.8549 7.17893 17.8491 7.27515L17.5482 12.0741C17.5058 12.7501 17.3521 13.4144 17.0932 14.0403L15.5891 11.3084C15.6515 11.2505 15.7015 11.1807 15.7363 11.103C15.7711 11.0254 15.7898 10.9415 15.7915 10.8565C15.7931 10.7714 15.7776 10.6869 15.7458 10.608C15.7141 10.529 15.6667 10.4573 15.6066 10.3971ZM11.9998 8.5771C11.9078 8.57857 11.8198 8.61547 11.7543 8.68012C11.6888 8.74478 11.6508 8.8322 11.6481 8.9242V10.1943L9.77223 11.35L9.97308 11.7835L11.6481 11.2349V12.5051L11.1788 12.8515V13.1979L11.9998 12.9665L12.8207 13.1973V12.8508L12.3514 12.5044V11.2343L13.9979 11.8128L14.2273 11.35L12.3514 10.1943V8.9242C12.3486 8.83243 12.3106 8.74526 12.2452 8.68076C12.1799 8.61626 12.0922 8.57938 12.0004 8.57775L11.9998 8.5771Z" fill="white"/>
</g>
<defs>
<clipPath id="clip0_1265_22462">
<rect width="24" height="24" fill="white"/>
</clipPath>
</defs>
</svg>
