<svg viewBox="0 0 24 24" fill="none" xmlns="http://www.w3.org/2000/svg">
<g clip-path="url(#clip0_1265_22456)">
<path d="M12 24C18.6274 24 24 18.6274 24 12C24 5.37258 18.6274 0 12 0C5.37258 0 0 5.37258 0 12C0 18.6274 5.37258 24 12 24Z" fill="#436697"/>
<path fill-rule="evenodd" clip-rule="evenodd" d="M13.9596 15.0126C13.9285 15.0111 13.8984 15.001 13.8728 14.9832C13.8495 14.9687 13.8299 14.9491 13.8153 14.9258H13.8096L12.3941 17.4116C13.1526 17.245 13.9097 17.0766 14.6668 16.9083L14.667 16.9082C15.3456 16.7573 16.0242 16.6064 16.7038 16.4568C16.6709 16.4161 16.6403 16.3738 16.6119 16.3298C16.5791 16.283 16.5502 16.2286 16.5188 16.1696L16.497 16.1288C16.4603 16.0608 16.4258 15.9916 16.3936 15.9214V15.9156C16.3936 15.9099 16.3873 15.9041 16.3873 15.9041C16.3189 15.7588 16.2557 15.6111 16.1977 15.4612C16.1912 15.4461 16.1856 15.4318 16.1801 15.418C16.171 15.3951 16.1625 15.3736 16.1518 15.3521C16.0642 15.1354 15.9816 14.9166 15.9042 14.696C15.6623 14.742 15.4612 14.7822 15.3234 14.8109C15.317 14.8109 15.3113 14.8109 15.3055 14.8167C15.093 14.8626 14.8913 14.9028 14.6961 14.9379C14.6302 14.9513 14.5667 14.9608 14.5053 14.97C14.4643 14.9761 14.4243 14.9821 14.3853 14.989C14.372 14.9927 14.3569 14.9942 14.3399 14.996H14.3399C14.3273 14.9973 14.3137 14.9987 14.2991 15.0011C14.2991 15.0011 14.2295 15.0126 14.1376 15.0183C14.078 15.0229 14.0181 15.0207 13.9589 15.012L13.9596 15.0126ZM15.2826 12.814C15.2519 12.7041 15.227 12.5927 15.2079 12.4802L14.1261 14.3795L14.1325 14.3731C14.1778 14.3565 14.2295 14.3393 14.2934 14.3221C14.4276 14.2802 14.5896 14.2388 14.7841 14.1892L14.7841 14.1892L14.8511 14.1721C14.949 14.1471 15.0544 14.1209 15.1679 14.0926C15.315 14.056 15.4757 14.0161 15.6508 13.9711C15.6295 13.9071 15.6076 13.8425 15.5855 13.7773C15.5419 13.6487 15.4974 13.5177 15.4555 13.3839C15.3907 13.1963 15.3332 13.0061 15.2832 12.814H15.2826ZM16.9514 9.4482H16.9284L15.5308 11.9052C15.5326 11.9052 15.5352 11.906 15.5386 11.9069C15.5447 11.9086 15.5535 11.911 15.5646 11.911C15.571 11.911 15.571 11.911 15.5761 11.9167C15.5825 11.9167 15.5825 11.9167 15.5876 11.9225C15.591 11.9225 15.5926 11.9241 15.5941 11.9256C15.5954 11.9269 15.5967 11.9282 15.5991 11.9282C15.6055 11.9282 15.6055 11.9282 15.6106 11.934C15.6276 11.943 15.6431 11.9547 15.6565 11.9684C15.6718 11.9837 15.6849 11.999 15.6936 12.0092L15.6936 12.0093C15.6979 12.0144 15.7012 12.0182 15.7031 12.0201C15.7059 12.0232 15.7073 12.026 15.7087 12.0287C15.7102 12.0316 15.7116 12.0344 15.7146 12.0373C15.7274 12.0557 15.7389 12.0749 15.7491 12.0948C15.7778 12.1465 15.795 12.1752 15.795 12.1752C15.8639 12.3079 15.9329 12.463 16.0018 12.6475L16.012 12.6743C16.0786 12.8503 16.1494 13.0372 16.2149 13.2346C16.2236 13.2576 16.2307 13.2791 16.2379 13.3006C16.2451 13.3222 16.2523 13.3437 16.2609 13.3667C16.2839 13.4359 16.3106 13.5143 16.3401 13.6009L16.3402 13.6013C16.3623 13.6663 16.386 13.7358 16.4109 13.8096C16.4874 13.795 16.5628 13.7804 16.6373 13.7661C16.7976 13.7351 16.9536 13.7049 17.1065 13.6775C17.3311 13.6373 17.5328 13.6086 17.7166 13.5913C17.9011 13.5735 18.0561 13.562 18.1889 13.5677C18.2635 13.5677 18.321 13.5741 18.3727 13.5856C18.3784 13.5856 18.3856 13.587 18.3928 13.5885C18.4 13.5899 18.4071 13.5913 18.4129 13.5913C18.3703 13.4722 18.3268 13.3478 18.2817 13.2188L18.2816 13.2187C18.2113 13.0175 18.137 12.8051 18.0561 12.5843L16.9521 9.4482H16.9514ZM18.2693 14.1032C18.1103 14.1616 17.9489 14.2133 17.7855 14.2583C17.771 14.2631 17.7565 14.2669 17.7424 14.2706L17.7424 14.2706L17.7424 14.2706C17.7231 14.2757 17.7045 14.2806 17.6879 14.2876C17.6735 14.2905 17.6592 14.2948 17.6448 14.2991C17.6305 14.3034 17.6161 14.3077 17.6017 14.3106C17.5218 14.3325 17.4411 14.3517 17.3599 14.368C17.3143 14.3809 17.2683 14.3924 17.222 14.4025H17.2156C17.0778 14.4369 16.894 14.4772 16.6808 14.5237C16.7268 14.6846 16.7849 14.8626 16.8531 15.0643L16.8827 15.1571L16.8827 15.1572C16.9364 15.3256 16.9887 15.4897 17.0318 15.645C17.0404 15.6738 17.0476 15.7012 17.0548 15.7286L17.0548 15.7286C17.062 15.7561 17.0692 15.7835 17.0778 15.8122C17.1071 15.8984 17.1301 15.9846 17.1473 16.0886C17.1502 16.0971 17.1516 16.1056 17.153 16.1141L17.1531 16.1141C17.1545 16.1227 17.1559 16.1313 17.1588 16.1396C17.1818 16.2322 17.1876 16.3011 17.1818 16.3528C17.1818 16.3528 17.423 16.3068 17.5443 16.2781C18.0216 15.6632 18.393 14.973 18.6433 14.2359C18.626 14.1839 18.6088 14.1335 18.5916 14.0831C18.5743 14.0326 18.5571 13.9822 18.5399 13.9302C18.4876 13.9998 18.4014 14.0515 18.2693 14.1032ZM10.7022 5.18444H10.7252C10.7482 5.18444 10.7776 5.19592 10.812 5.2189C10.8168 5.22206 10.8219 5.22522 10.8273 5.22849C10.8414 5.23714 10.857 5.24661 10.8695 5.25911C10.8938 5.27653 10.9168 5.29573 10.9384 5.31654C11.0418 5.40844 11.1573 5.51821 11.2894 5.65032C11.4157 5.77668 11.5485 5.91517 11.6863 6.06514L11.7367 6.11971L11.7367 6.11973C11.8494 6.24183 11.9537 6.35487 12.0488 6.44997C12.1005 6.39828 12.1522 6.34084 12.2046 6.27766L12.2235 6.25681C12.2804 6.19426 12.3372 6.13171 12.3941 6.0645C12.4118 6.04538 12.4294 6.02582 12.4471 6.00617L12.4471 6.00616C12.4932 5.95498 12.5398 5.9032 12.59 5.85709C12.6532 5.78817 12.7164 5.72499 12.7796 5.66181L12.8715 5.56991C12.8888 5.55289 12.906 5.53713 12.9224 5.52207L12.9224 5.52206C12.9392 5.50661 12.9552 5.49191 12.9697 5.47737L12.9854 5.46341C13.0367 5.4178 13.0836 5.37603 13.1306 5.33952C13.2403 5.24762 13.3207 5.20741 13.3839 5.20741C13.4069 5.20741 13.4299 5.21316 13.4529 5.2189L13.3897 5.14359L13.2225 5.10913C13.2167 5.10913 13.211 5.10913 13.2052 5.10339C13.1548 5.09204 13.1031 5.08629 13.052 5.08062L13.052 5.08062L13.0502 5.08041H13.0387C13.0128 5.07754 12.9855 5.07323 12.9583 5.06892C12.931 5.06462 12.9037 5.06031 12.8778 5.05744H12.8715C12.5843 5.02298 12.2907 5 11.9914 5H11.8299C11.8037 5 11.7787 5.00168 11.7543 5.00332C11.7312 5.00487 11.7087 5.00638 11.6863 5.00638H11.6691C11.6174 5.00638 11.5715 5.01149 11.5198 5.01723H11.5134C11.2492 5.03446 10.9901 5.06892 10.7367 5.11487C10.7187 5.13288 10.7042 5.15127 10.6878 5.17221L10.6878 5.17221L10.6735 5.19018C10.6793 5.19018 10.6836 5.18859 10.6879 5.18699C10.6922 5.18539 10.6965 5.1838 10.7022 5.1838V5.18444ZM6.75503 8.45836L6.77025 8.44581C6.79628 8.42404 6.82858 8.39703 6.87628 8.37795C6.94315 8.34724 7.0153 8.32969 7.0888 8.32626C7.17199 8.32082 7.2385 8.34132 7.28162 8.35461L7.28164 8.35462C7.28913 8.35693 7.29592 8.35902 7.30196 8.36072C7.78573 7.81584 8.26969 7.27239 8.75363 6.72895L8.75378 6.72878C9.18464 6.24496 9.61548 5.76114 10.0462 5.27634L9.82218 5.34526C9.30971 5.51757 8.63067 5.8054 7.92292 6.31212C7.3047 6.7611 6.7611 7.3047 6.31212 7.92292C6.28786 7.95965 6.262 7.9946 6.23613 8.02956C6.21301 8.0608 6.18988 8.09206 6.16789 8.12459C6.26875 8.18076 6.3696 8.23863 6.47037 8.29645L6.47044 8.29649C6.5654 8.35098 6.66029 8.40542 6.75503 8.45836ZM6.60569 9.14314C6.56372 9.06529 6.54179 8.97822 6.54187 8.88978V8.84957C6.54187 8.84957 6.54825 8.82086 6.54825 8.80937L5.95474 8.47559C5.3726 9.46573 5.0446 10.5846 5 11.7323V12.216C5.01723 12.7566 5.0919 13.2805 5.22464 13.7809C5.4772 13.0484 5.73131 12.3173 5.98544 11.5862L5.98548 11.5861L5.98557 11.5858C6.24642 10.8354 6.50728 10.0848 6.76652 9.33268C6.6998 9.28191 6.64492 9.21724 6.60569 9.14314ZM13.5913 5.54693C13.5781 5.58789 13.5587 5.62661 13.5339 5.66181C13.4951 5.73303 13.4527 5.80226 13.4069 5.86922C13.3782 5.90942 13.3495 5.95537 13.3207 6.00132C13.2456 6.11132 13.1668 6.2188 13.0846 6.32361C13.0591 6.35277 13.0359 6.38424 13.0121 6.41656L13.0121 6.41657C12.9984 6.43518 12.9844 6.45406 12.9697 6.47295C12.9665 6.47622 12.9635 6.48067 12.9607 6.48501L12.9607 6.48501C12.958 6.48912 12.9553 6.49313 12.9525 6.49592C12.8778 6.58846 12.7968 6.6861 12.7106 6.78375L12.6688 6.83297C12.6207 6.88964 12.574 6.9446 12.5205 7.00265C12.5498 7.03568 12.5804 7.06937 12.6118 7.10396C12.6733 7.17163 12.7379 7.24275 12.8025 7.31919C12.837 7.35365 12.8715 7.39386 12.9008 7.43406C12.9697 7.50873 13.0329 7.5834 13.0961 7.65871L13.2805 7.87697C13.3954 8.0212 13.4931 8.14756 13.5741 8.26244C13.643 8.36646 13.6775 8.44113 13.689 8.49857V8.52154C13.689 8.57898 13.6603 8.63642 13.6086 8.68875H16.3592C16.3764 8.64353 16.3996 8.60081 16.4281 8.56175L13.6137 5.4027V5.41419C13.6154 5.4595 13.6078 5.50467 13.5913 5.54693ZM15.2423 5.79965C15.2393 5.79812 15.2366 5.79658 15.2341 5.79515C15.2274 5.79125 15.222 5.78817 15.2136 5.78817C15.1366 5.74643 15.0579 5.7081 14.9775 5.67329C14.9624 5.66917 14.9485 5.66126 14.9373 5.65032C14.8612 5.61478 14.7846 5.58032 14.7075 5.54693L14.6899 5.54016L14.6899 5.54016C14.6808 5.53661 14.6723 5.53328 14.6616 5.5297C14.5785 5.49348 14.494 5.46069 14.4082 5.43142C14.4025 5.42855 14.3967 5.42711 14.391 5.42567C14.3853 5.42424 14.3795 5.4228 14.3738 5.41993C14.2898 5.38633 14.1997 5.3582 14.1101 5.3302L14.1032 5.32803C14.4003 5.66151 14.6974 5.99563 14.9946 6.32995L14.9954 6.33088L14.9955 6.33091C15.5905 7.00014 16.1863 7.67022 16.7849 8.33774C16.7906 8.33774 16.7978 8.33615 16.805 8.33455C16.8121 8.33296 16.8193 8.33136 16.8251 8.33136H16.9457C16.9526 8.33291 16.961 8.33442 16.9705 8.33615C17.0002 8.34154 17.0416 8.34906 17.0899 8.36646C17.0957 8.36646 17.1014 8.37221 17.1071 8.37795C17.11 8.38082 17.1143 8.38226 17.1186 8.38369C17.1229 8.38513 17.1272 8.38657 17.1301 8.38944C17.1733 8.41152 17.2138 8.4385 17.2507 8.46985C17.2536 8.46985 17.255 8.47129 17.2565 8.47272C17.2579 8.47416 17.2594 8.47559 17.2622 8.47559C17.274 8.48344 17.2831 8.49398 17.2913 8.50353L17.2914 8.50355C17.2952 8.50797 17.2988 8.51217 17.3024 8.5158C17.3733 8.47516 17.444 8.43522 17.5144 8.39547L17.5146 8.39539L17.5146 8.39536C17.6332 8.32841 17.7509 8.26197 17.8666 8.19351C17.2621 7.26934 16.4503 6.49903 15.4957 5.94389H15.49C15.4299 5.90529 15.3663 5.86954 15.3045 5.83477L15.3045 5.83477C15.2835 5.82297 15.2627 5.81129 15.2423 5.79965ZM13.0846 8.6077C13.0703 8.59621 13.0573 8.58472 13.0444 8.57324C13.0315 8.56175 13.0186 8.55026 13.0042 8.53877L12.8255 8.37795L12.7336 8.28541C12.6315 8.18614 12.5336 8.08266 12.44 7.97525C12.4052 7.93714 12.3717 7.89919 12.3391 7.86207C12.3072 7.82584 12.276 7.79039 12.2448 7.75635C12.2027 7.70719 12.1585 7.66024 12.1152 7.61423L12.1151 7.61422C12.0927 7.59035 12.0704 7.56674 12.0488 7.5432C11.8363 7.76209 11.6576 7.95164 11.5083 8.1131C11.4911 8.13033 11.4737 8.149 11.4563 8.16766C11.4389 8.18633 11.4215 8.205 11.4043 8.22223L11.3928 8.23372C11.3567 8.26975 11.3238 8.30438 11.2925 8.33744L11.2924 8.33745C11.2638 8.36763 11.2364 8.39649 11.209 8.4239L11.1286 8.50431C11.0593 8.57185 10.9862 8.63535 10.9097 8.69449H13.1823C13.1792 8.69108 13.1745 8.68804 13.1699 8.68507C13.1659 8.68247 13.162 8.67994 13.1593 8.67726C13.1447 8.65865 13.1281 8.64491 13.1119 8.63149C13.1025 8.62375 13.0933 8.61611 13.0846 8.6077ZM7.62999 8.68875H10.4725C10.4668 8.68301 10.461 8.67567 10.4553 8.66833C10.4495 8.66099 10.4438 8.65365 10.438 8.64791C10.4298 8.63968 10.4245 8.62851 10.4198 8.61861C10.418 8.61468 10.4162 8.61096 10.4144 8.6077C10.4029 8.57898 10.3914 8.55026 10.3914 8.52154C10.3914 8.50984 10.3944 8.49548 10.3979 8.47846L10.3979 8.47846C10.3995 8.47044 10.4013 8.46182 10.4029 8.45262C10.4029 8.44934 10.4046 8.4464 10.4063 8.44354C10.4078 8.44083 10.4093 8.43818 10.4093 8.43539L10.4123 8.42842C10.417 8.41749 10.4229 8.40346 10.4323 8.38944C10.4495 8.35498 10.4725 8.31413 10.5012 8.27456C10.5033 8.2722 10.5047 8.26992 10.5058 8.26799C10.5077 8.26471 10.5091 8.26244 10.5127 8.26244C10.6851 8.02006 10.8714 7.7878 11.0705 7.56681C11.1072 7.52306 11.1455 7.4807 11.1854 7.43981C11.2064 7.41913 11.2257 7.39692 11.245 7.37477L11.245 7.37476C11.2632 7.35385 11.2813 7.33297 11.3009 7.31345L11.3235 7.28759L11.3236 7.28755C11.4021 7.19805 11.4798 7.10945 11.5485 7.02562L11.5512 7.02269C11.5559 7.01761 11.56 7.01323 11.56 7.00839C11.35 6.76495 11.1446 6.5175 10.9441 6.26617C10.912 6.22402 10.8816 6.18208 10.8521 6.14122C10.8288 6.10908 10.8061 6.07762 10.7833 6.04727C10.698 5.92691 10.6192 5.80207 10.5472 5.67329L10.5127 5.60437C10.5078 5.59459 10.504 5.58481 10.5003 5.57543C10.4953 5.56276 10.4906 5.55081 10.484 5.54055L10.479 5.52332C10.4694 5.49041 10.461 5.46169 10.461 5.43716L7.60638 8.63642C7.60937 8.64449 7.61348 8.65271 7.6176 8.66094L7.6176 8.66094C7.62227 8.67026 7.62694 8.6796 7.62999 8.68875ZM12.2562 18.9943C14.0942 18.9275 15.8315 18.1376 17.0899 16.7963L17.0891 16.7965L17.0889 16.7966C15.4778 17.1532 13.8667 17.5099 12.2562 17.8608V18.9943ZM18.9196 13.0329C18.9225 13.0213 18.9239 13.0112 18.9254 13.001L18.9254 13.001C18.9268 12.9909 18.9283 12.9808 18.9311 12.9691C18.934 12.9404 18.9383 12.9133 18.9426 12.8861C18.9469 12.859 18.9512 12.8319 18.9541 12.8032V12.7968L18.9713 12.6181C18.9713 12.6099 18.9727 12.6015 18.9741 12.5931C18.9756 12.5844 18.977 12.5757 18.977 12.567C18.977 12.5498 18.9785 12.5339 18.9799 12.5179C18.9814 12.5019 18.9828 12.486 18.9828 12.4688C18.9943 12.2901 19 12.1241 19 11.9684C18.9949 10.9215 18.755 9.88911 18.298 8.94722L18.2808 8.91275C18.2693 8.88691 18.2564 8.8625 18.2434 8.83809C18.2305 8.81368 18.2176 8.78926 18.2061 8.76342L18.1716 8.69449C18.1595 8.67235 18.1473 8.64929 18.1351 8.62614L18.1351 8.6261L18.1351 8.62609C18.1185 8.59455 18.1018 8.56283 18.0849 8.53303C17.9786 8.59365 17.8736 8.65268 17.7687 8.7117L17.7686 8.71175C17.6636 8.77078 17.5586 8.8298 17.4524 8.89042C17.4524 8.90701 17.4524 8.92424 17.446 8.94147C17.4418 8.96972 17.4368 8.99454 17.4319 9.01839L17.4319 9.0184L17.4288 9.03401C17.4259 9.04263 17.423 9.04981 17.4202 9.05699L17.4202 9.05703C17.4173 9.06419 17.4144 9.07136 17.4116 9.07996C17.3952 9.12245 17.374 9.16292 17.3484 9.20058C17.3426 9.20632 17.3383 9.21207 17.334 9.21781C17.3297 9.22356 17.3254 9.2293 17.3197 9.23504C17.5219 9.81801 17.724 10.4 17.9261 10.9819L17.9279 10.9872C18.2258 11.8451 18.5236 12.7025 18.8213 13.562C18.8473 13.4552 18.8683 13.3438 18.8887 13.2355L18.8888 13.2355L18.8966 13.1937C18.8966 13.1886 18.8978 13.1834 18.8991 13.1777L18.8991 13.1777C18.9006 13.1708 18.9024 13.163 18.9024 13.1535C18.9094 13.1133 18.9151 13.0729 18.9196 13.0323V13.0329ZM16.5315 9.32118C16.4567 9.26046 16.399 9.18126 16.3643 9.09143H7.62995C7.6 9.16379 7.55694 9.22999 7.50295 9.28672L12.0258 17.245L16.5315 9.32118ZM11.6691 14.4312C11.6691 14.3514 11.7335 14.2876 11.8127 14.2876C11.8316 14.2875 11.8503 14.2912 11.8678 14.2983C11.8853 14.3055 11.9012 14.3161 11.9146 14.3294C11.928 14.3428 11.9386 14.3586 11.9459 14.3761C11.9532 14.3935 11.9569 14.4123 11.9569 14.4312V14.4337C11.9575 14.453 11.9542 14.4721 11.9472 14.49C11.9402 14.5079 11.9296 14.5242 11.9162 14.538C11.9027 14.5517 11.8866 14.5625 11.8688 14.5698C11.851 14.5772 11.8319 14.5808 11.8127 14.5805L11.7744 14.5754C11.7131 14.5595 11.6691 14.5039 11.6691 14.4337V14.4312ZM10.519 12.8954C10.5428 12.8793 10.5708 12.8708 10.5995 12.8708C10.6799 12.8708 10.7431 12.9346 10.7431 13.015C10.7431 13.0954 10.6799 13.1586 10.5995 13.1586C10.519 13.1586 10.4559 13.0954 10.4559 13.0144L10.461 12.9761L10.4661 12.9608C10.4768 12.9342 10.4952 12.9114 10.519 12.8954ZM12.3749 10.1266C12.4489 10.0494 12.6193 9.93321 12.9072 10.0398L13.5626 10.2766L13.8734 10.385C13.9272 10.4073 13.986 10.4148 14.0437 10.4067C14.1013 10.3986 14.1558 10.3753 14.2014 10.3391L14.5352 10.1151C14.5352 10.1151 14.7139 9.97086 14.9034 10.0685C14.9063 10.0685 14.9087 10.0701 14.9125 10.0758C14.9117 10.0752 14.9106 10.0749 14.9092 10.0749L14.9136 10.0774C14.9133 10.0768 14.9129 10.0763 14.9125 10.0758C14.914 10.0767 14.915 10.0782 14.9162 10.0802C14.9173 10.082 14.9186 10.0841 14.9207 10.0864C14.9551 10.2931 14.7656 10.4259 14.7656 10.4259L14.4548 10.6729C14.4113 10.7043 14.3757 10.7454 14.3508 10.7929C14.3258 10.8404 14.3123 10.893 14.3112 10.9467V10.9722L14.3571 12.0022C14.3801 12.4336 14.0521 12.5083 14.0463 12.5083C14.0406 12.5083 14.0406 12.5083 14.0349 12.5032C14.031 12.5032 14.0297 12.5007 14.0291 12.4968C14.0291 12.4968 14.0234 12.4917 14.0234 12.4853C13.9384 11.941 13.8696 11.5308 13.8353 11.3261L13.8338 11.3174L13.8274 11.2887L13.827 11.2866C13.823 11.2693 13.8153 11.236 13.8006 11.2121C13.7953 11.2061 13.7891 11.2009 13.7821 11.1968C13.7364 11.1717 13.6731 11.208 13.6238 11.2363C13.6167 11.2404 13.6099 11.2443 13.6034 11.2479L13.5639 11.2734C13.341 11.4164 13.122 11.5653 12.9072 11.7201C12.8826 11.7375 12.8593 11.7567 12.8376 11.7776C12.8179 11.7975 12.8025 11.8211 12.7923 11.8471C12.7923 11.8499 12.7908 11.8526 12.7892 11.8553C12.7876 11.8582 12.7859 11.8611 12.7859 11.8644C12.7744 11.8873 12.7629 11.9103 12.7744 12.0195C12.7744 12.0482 12.7744 12.1005 12.7514 12.1516C12.7455 12.1705 12.7333 12.1869 12.717 12.1981C12.7152 12.1999 12.713 12.2016 12.7105 12.2035C12.7048 12.2079 12.698 12.2131 12.694 12.2211C12.6871 12.2281 12.678 12.2329 12.6681 12.2382C12.6617 12.2417 12.6549 12.2453 12.6481 12.2498H12.6308L12.6276 12.2454L12.6251 12.2441C12.6193 12.2384 12.6193 12.2326 12.6193 12.2269V12.1579C12.6193 12.1169 12.6135 12.0761 12.6021 12.0367C12.596 12.0088 12.5864 11.9817 12.5734 11.9563L12.5274 11.8931L12.4751 11.8178C12.4577 11.7934 12.4385 11.7704 12.4177 11.7489C12.4019 11.7336 12.3854 11.7193 12.3681 11.7058C12.3719 11.7084 12.3756 11.7111 12.3794 11.7138L12.3576 11.6979C12.3546 11.6957 12.3517 11.6935 12.3487 11.6914L12.3576 11.6979C12.3611 11.7005 12.3646 11.7031 12.3681 11.7058C12.3296 11.6795 12.2885 11.6574 12.2454 11.6397C12.2332 11.6325 12.2193 11.6286 12.2052 11.6282C12.1937 11.6225 12.1879 11.6225 12.1764 11.6225L12.1681 11.6187L12.1662 11.6136C12.1618 11.611 12.156 11.611 12.1471 11.611C12.1471 11.6053 12.1471 11.5995 12.1528 11.5938C12.1643 11.5819 12.1769 11.5711 12.1904 11.5616C12.1883 11.5633 12.1861 11.5651 12.184 11.5667L12.1937 11.5593C12.1926 11.5601 12.1915 11.5608 12.1904 11.5616C12.1935 11.559 12.1965 11.5563 12.1994 11.5536C12.2052 11.5507 12.2095 11.5478 12.2138 11.545C12.2181 11.5421 12.2224 11.5392 12.2281 11.5363L12.2856 11.5191C12.3303 11.5143 12.3756 11.5202 12.4177 11.5363C12.5153 11.5766 12.5389 11.5766 12.5676 11.5766H12.5849C12.6131 11.5751 12.6406 11.5672 12.6653 11.5536C12.6911 11.5431 12.7146 11.5274 12.7342 11.5076C13.2167 11.1317 13.3048 11.0603 13.3705 11.0054L13.396 10.9837L13.4254 10.9575L13.4503 10.9333C13.479 10.9026 13.5007 10.8682 13.4937 10.8343C13.4888 10.8005 13.4515 10.7784 13.4295 10.7654C13.4253 10.763 13.4217 10.7608 13.419 10.759L13.4018 10.7475C13.2352 10.6614 12.8491 10.4661 12.3373 10.2127C12.3351 10.2105 12.3329 10.2092 12.331 10.208C12.328 10.2062 12.3258 10.2048 12.3258 10.2012C12.3218 10.2012 12.3228 10.1991 12.324 10.196C12.3248 10.1941 12.3258 10.192 12.3258 10.1898C12.3374 10.1688 12.352 10.1497 12.3692 10.133L12.3749 10.1266ZM10.2158 10.4275C10.2427 10.4005 10.2792 10.3852 10.3174 10.385C10.3556 10.385 10.3923 10.4002 10.4194 10.4273C10.4464 10.4543 10.4616 10.491 10.4616 10.5293V10.5318C10.4622 10.5511 10.4589 10.5702 10.4519 10.5881C10.4449 10.606 10.4344 10.6223 10.4209 10.6361C10.4074 10.6498 10.3913 10.6606 10.3735 10.6679C10.3557 10.6752 10.3366 10.6789 10.3174 10.6786L10.2791 10.6735C10.2178 10.6569 10.1738 10.602 10.1738 10.5318V10.5293C10.1738 10.4911 10.1889 10.4545 10.2158 10.4275ZM11.3033 9.70827C11.3302 9.68124 11.3667 9.66597 11.4049 9.6658C11.4431 9.6658 11.4798 9.681 11.5068 9.70805C11.5339 9.7351 11.5491 9.77178 11.5491 9.81003V9.81259C11.5497 9.83181 11.5464 9.85096 11.5394 9.86887C11.5324 9.88679 11.5218 9.9031 11.5084 9.91682C11.4949 9.93053 11.4788 9.94138 11.461 9.94869C11.4432 9.95601 11.4241 9.95964 11.4049 9.95937L11.3666 9.95427C11.3053 9.93767 11.2613 9.88279 11.2613 9.81259V9.81003C11.2613 9.77189 11.2764 9.7353 11.3033 9.70827ZM8.72031 9.67678C8.73781 9.66953 8.75657 9.6658 8.77551 9.6658C8.85528 9.6658 8.9191 9.73026 8.9191 9.81003V9.81259C8.91971 9.83181 8.91641 9.85096 8.90941 9.86887C8.90241 9.88679 8.89185 9.9031 8.87837 9.91682C8.86489 9.93053 8.84877 9.94138 8.83098 9.94869C8.81319 9.95601 8.7941 9.95964 8.77487 9.95937L8.73658 9.95427C8.67531 9.93767 8.63192 9.88279 8.63192 9.81259L8.63128 9.81003C8.63128 9.79109 8.63501 9.77234 8.64226 9.75484C8.6495 9.73734 8.66013 9.72144 8.67352 9.70805C8.68691 9.69465 8.70281 9.68403 8.72031 9.67678ZM6.99687 15.7886C6.96177 15.9214 6.93369 16.0362 6.91071 16.146C6.89321 16.2174 6.88527 16.2908 6.8871 16.3643C6.8178 16.3486 6.74974 16.3338 6.68171 16.3191C6.60313 16.3021 6.52458 16.2851 6.44419 16.2666C6.01852 15.7146 5.679 15.1045 5.43138 14.4427C5.45666 14.3721 5.48073 14.3017 5.50476 14.2314C5.52987 14.158 5.55495 14.0846 5.58136 14.0113C5.60849 14.031 5.63732 14.0483 5.66751 14.0629C5.7068 14.0823 5.74706 14.0995 5.78813 14.1146C5.80239 14.1194 5.81675 14.1251 5.83154 14.131C5.85251 14.1394 5.87433 14.1481 5.8979 14.1548C5.98802 14.188 6.08988 14.2173 6.20062 14.2492C6.22399 14.2559 6.24775 14.2627 6.27188 14.2697C6.46234 14.3223 6.65407 14.3702 6.84689 14.4133C6.96772 14.4385 7.08393 14.4656 7.1918 14.4908C7.25884 14.5065 7.32265 14.5214 7.38234 14.5346C7.36627 14.5741 7.35283 14.6146 7.34213 14.6558C7.32136 14.7168 7.30123 14.7806 7.28083 14.8453C7.2724 14.872 7.26392 14.8989 7.25533 14.9258C7.24727 14.958 7.23637 14.9906 7.22485 15.0251C7.21996 15.0397 7.21497 15.0546 7.21002 15.07C7.14046 15.271 7.08302 15.467 7.03133 15.6508L6.99687 15.7886ZM5.87493 13.5735C5.81685 13.5735 5.7709 13.5792 5.72495 13.5856L5.72559 13.5849L7.14684 9.49413L8.51002 11.9282C8.47972 11.9276 8.44987 11.9356 8.42386 11.9512C8.40917 11.9588 8.39563 11.9685 8.38366 11.9799C8.3602 12.0047 8.33905 12.0316 8.32048 12.0603C8.29686 12.0948 8.27389 12.135 8.25091 12.1873C8.21424 12.259 8.17976 12.3318 8.14753 12.4056C8.03241 12.6801 7.92683 12.9585 7.83098 13.2403C7.76206 13.4471 7.69888 13.6366 7.6357 13.8153C7.4228 13.7687 7.21457 13.7315 7.01148 13.6951C6.98932 13.6911 6.96722 13.6872 6.94517 13.6832C6.72627 13.643 6.52461 13.6143 6.34081 13.5971C6.16211 13.5798 6.00703 13.5735 5.87493 13.5735ZM9.27234 14.9287C9.29675 14.933 9.32116 14.9373 9.34414 14.943C9.36572 14.9457 9.38717 14.9496 9.40912 14.9536C9.43454 14.9582 9.46063 14.9629 9.48837 14.966C9.61029 14.9875 9.73289 15.0049 9.85597 15.0183C10.0059 15.0298 10.1042 15.0241 10.1559 14.9953C10.1687 14.9895 10.1804 14.9815 10.1904 14.9717L10.2134 14.9488L11.6461 17.4058L7.34213 16.4568C7.37619 16.4207 7.40517 16.3801 7.42828 16.3362C7.51057 16.2022 7.58535 16.0637 7.65229 15.9214C7.69488 15.8341 7.73531 15.7458 7.77355 15.6565C7.81375 15.5589 7.85396 15.4612 7.89417 15.3578C7.93996 15.2518 7.98232 15.1443 8.02117 15.0356C8.06712 14.92 8.10732 14.8109 8.14753 14.6954C8.33197 14.7305 8.52725 14.7707 8.74041 14.8167L8.89549 14.8511C8.99671 14.8744 9.09842 14.8954 9.20054 14.9143C9.22352 14.92 9.24793 14.9243 9.27234 14.9287ZM8.76883 12.7815C8.7821 12.7297 8.7946 12.6809 8.80359 12.6359C8.81292 12.5793 8.82636 12.5234 8.8438 12.4687L9.93766 14.391C9.92259 14.386 9.90711 14.3806 9.89105 14.3749C9.85131 14.361 9.80805 14.3458 9.75896 14.3335C9.69004 14.3106 9.60324 14.2876 9.51134 14.264C9.46539 14.2467 9.41881 14.2353 9.36775 14.2238L9.2867 14.2065C9.26702 14.1967 9.24312 14.1915 9.21862 14.1863C9.21452 14.1854 9.2104 14.1845 9.20629 14.1836C9.17359 14.1738 9.1409 14.1658 9.10714 14.1576C9.0816 14.1514 9.05545 14.145 9.02823 14.1376C8.97705 14.1284 8.92628 14.1155 8.87263 14.1019C8.85938 14.0985 8.84596 14.0951 8.83231 14.0917C8.77139 14.0758 8.70668 14.0599 8.63942 14.0434C8.56081 14.0241 8.47872 14.0039 8.39515 13.9819C8.41391 13.9309 8.4313 13.8782 8.44895 13.8246C8.46311 13.7817 8.47744 13.7382 8.49279 13.6947C8.52273 13.5941 8.55529 13.4943 8.59043 13.3954C8.63618 13.2632 8.67343 13.1351 8.70927 13.0118C8.71392 12.9958 8.71855 12.9798 8.72318 12.964L8.75764 12.8255C8.76139 12.8106 8.76514 12.796 8.76883 12.7815ZM8.47556 18.0446C8.34345 17.97 8.2222 17.8953 8.10732 17.8206V17.82C7.66093 17.5156 7.24806 17.1648 6.87561 16.7733C7.70436 16.9546 8.53167 17.1373 9.35898 17.32C10.1862 17.5027 11.0134 17.6853 11.842 17.8666V19C11.1292 18.9843 10.4229 18.8602 9.74748 18.6318C9.64919 18.5973 9.56304 18.5628 9.47688 18.5284C9.17183 18.4071 8.83231 18.252 8.47556 18.0446Z" fill="white"/>
</g>
<defs>
<clipPath id="clip0_1265_22456">
<rect width="24" height="24" fill="white"/>
</clipPath>
</defs>
</svg>