<svg width="24" height="24" viewBox="0 0 24 24" fill="none" xmlns="http://www.w3.org/2000/svg">
<path fill-rule="evenodd" clip-rule="evenodd" d="M17.0004 15H4.84483L6.75617 16.9108C7.08156 17.2358 7.08156 17.7633 6.75617 18.0892C6.59306 18.2517 6.37976 18.3333 6.16646 18.3333C5.95316 18.3333 5.74069 18.2517 5.57758 18.0892L2.24425 14.7558C2.16813 14.6792 2.10707 14.5875 2.06441 14.485C1.97992 14.2817 1.97992 14.0517 2.06441 13.8475C2.10707 13.7458 2.16729 13.6542 2.24425 13.5775L5.57758 10.2442C5.90297 9.91833 6.43078 9.91833 6.75617 10.2442C7.08156 10.5692 7.08156 11.0975 6.75617 11.4225L4.84567 13.3333H17.0004C18.8381 13.3333 20.3338 11.8375 20.3338 10C20.3338 8.16167 18.8381 6.66667 17.0004 6.66667H2.83312C2.37307 6.66667 2 6.29333 2 5.83333C2 5.37333 2.37307 5 2.83312 5H17.0004C19.7574 5 22 7.24333 22 10C22 12.7567 19.7574 15 17.0004 15Z" fill="#6B7084"/>
</svg>
 15 17.0004 15Z" fill="#6B7084"/>
</svg>
