<svg viewBox="0 0 24 24" fill="none" xmlns="http://www.w3.org/2000/svg">
<path fill-rule="evenodd" clip-rule="evenodd" d="M17.0004 15H4.84483L6.75617 16.9108C7.08156 17.2358 7.08156 17.7642 6.75617 18.0892C6.59306 18.2525 6.37976 18.3333 6.16646 18.3333C5.95399 18.3333 5.74069 18.2525 5.57758 18.0892L2.24425 14.7558C2.24425 14.7558 2.24425 14.755 2.24341 14.755C2.16729 14.6783 2.10623 14.5867 2.06441 14.485C2.02258 14.3833 2 14.275 2 14.1667C2 14.1633 2.00251 14.16 2.00251 14.1567C2.00335 14.0517 2.02342 13.9467 2.06441 13.8483C2.10707 13.7458 2.16813 13.6533 2.24509 13.5767L5.57758 10.2442C5.90297 9.91833 6.43078 9.91833 6.75617 10.2442C7.08156 10.57 7.08156 11.0967 6.75617 11.4225L4.84483 13.3333H17.0004C18.8381 13.3333 20.3338 11.8383 20.3338 10V5.83333C20.3338 5.37333 20.7068 5 21.1669 5C21.6269 5 22 5.37333 22 5.83333V10C22 12.7567 19.7574 15 17.0004 15Z" fill="currentColor"/>
</svg>