<svg width="24" height="24" viewBox="0 0 24 24" fill="none" xmlns="http://www.w3.org/2000/svg">
<path fill-rule="evenodd" clip-rule="evenodd" d="M21.9658 19.716C21.9398 20.1582 21.5732 20.5 21.1359 20.5C21.1208 20.5 21.1048 20.5 21.0888 20.4992C20.6314 20.4733 20.2808 20.0821 20.3043 19.6233C20.3068 19.5531 20.3598 17.7587 18.8429 16.179C17.448 14.7256 15.1895 13.9274 12.1381 13.7862V17.1703C12.1381 17.4904 11.8 17.7787 11.5116 17.9174C11.3973 17.9726 11.2745 18.0002 11.1517 18.0002C10.9668 18.0002 10.7826 17.9383 10.6321 17.818L2.31195 11.151C2.1152 10.993 2 10.7532 2 10.4999C2 10.2475 2.1152 10.0077 2.31195 9.84969L10.6321 3.1827C10.8827 2.98211 11.2249 2.94366 11.5116 3.0824C11.8 3.22114 12.1381 3.47773 12.1381 3.79783V7.29472C13.7113 7.44767 16.8089 8.05778 19.1414 10.4799C21.2469 12.6671 22.1979 15.7745 21.9658 19.716ZM17.9542 11.6483C15.2836 8.86347 11.2131 8.9086 11.1686 8.9086C11.1652 8.90944 11.1627 8.90693 11.1585 8.90693C11.1568 8.90693 11.1543 8.9086 11.1517 8.9086C11.14 8.9086 11.1324 8.90192 11.1215 8.90108C10.6977 8.89272 10.3294 8.53585 10.321 8.09289C10.3176 7.92657 10.3756 7.77947 10.4564 7.64742V5.46938L4.16349 10.4999L10.4564 15.4987V13.3541C10.3773 13.2271 10.3193 13.085 10.3193 12.9237C10.3193 12.464 10.6918 12.0904 11.1517 12.0904C15.0045 12.0904 17.9062 12.9914 19.7864 14.7699C19.3886 13.5505 18.7774 12.5075 17.9542 11.6483Z" fill="#6B7084"/>
</svg>
