<svg viewBox="0 0 24 24" fill="none" xmlns="http://www.w3.org/2000/svg">
<path fill-rule="evenodd" clip-rule="evenodd" d="M12 3.63265C7.37884 3.63265 3.63265 7.37884 3.63265 12C3.63265 16.6212 7.37884 20.3673 12 20.3673C16.6212 20.3673 20.3673 16.6212 20.3673 12C20.3673 7.37884 16.6212 3.63265 12 3.63265ZM2 12C2 6.47715 6.47715 2 12 2C17.5228 2 22 6.47715 22 12C22 17.5228 17.5228 22 12 22C6.47715 22 2 17.5228 2 12ZM12.1881 8.36155C12.5069 8.04275 13.0237 8.04275 13.3425 8.36155L16.4038 11.4228C16.5569 11.5759 16.6429 11.7835 16.6429 12C16.6429 12.2165 16.5569 12.4241 16.4038 12.5772L13.3425 15.6385C13.0237 15.9573 12.5069 15.9573 12.1881 15.6385C11.8693 15.3197 11.8693 14.8028 12.1881 14.484L13.8557 12.8163L8.17347 12.8163C7.72263 12.8163 7.35714 12.4508 7.35714 12C7.35714 11.5492 7.72263 11.1837 8.17347 11.1837L13.8557 11.1837L12.1881 9.51601C11.8693 9.19721 11.8693 8.68034 12.1881 8.36155Z" fill="currentColor"/>
</svg>