<svg width="24" height="24" viewBox="0 0 24 24" fill="none" xmlns="http://www.w3.org/2000/svg">
<path fill-rule="evenodd" clip-rule="evenodd" d="M3.63265 12C3.63265 16.6212 7.37884 20.3673 12 20.3673C16.6212 20.3673 20.3673 16.6212 20.3673 12C20.3673 7.37884 16.6212 3.63265 12 3.63265C7.37884 3.63265 3.63265 7.37884 3.63265 12ZM12 22C6.47715 22 2 17.5228 2 12C2 6.47715 6.47715 2 12 2C17.5228 2 22 6.47715 22 12C22 17.5228 17.5229 22 12 22ZM8.36155 11.8119C8.04275 11.4931 8.04275 10.9763 8.36155 10.6575L11.4228 7.59624C11.5759 7.44315 11.7835 7.35714 12 7.35714C12.2165 7.35714 12.4241 7.44315 12.5772 7.59624L15.6385 10.6575C15.9573 10.9763 15.9573 11.4931 15.6385 11.8119C15.3197 12.1307 14.8028 12.1307 14.484 11.8119L12.8163 10.1443L12.8163 15.8265C12.8163 16.2774 12.4508 16.6429 12 16.6429C11.5492 16.6429 11.1837 16.2774 11.1837 15.8265L11.1837 10.1443L9.51601 11.8119C9.19721 12.1307 8.68034 12.1307 8.36155 11.8119Z" fill="#6B7084"/>
</svg>
