<svg viewBox="0 0 24 24" fill="none" xmlns="http://www.w3.org/2000/svg">
<path fill-rule="evenodd" clip-rule="evenodd" d="M18.4225 10.0894C18.2596 10.2517 18.0463 10.3328 17.8331 10.3328C17.6198 10.3328 17.4066 10.2517 17.2445 10.0894C16.9188 9.76315 16.9188 9.23533 17.2445 8.91078L19.1899 6.96513H6.15012C6.11318 6.96513 6.07204 6.95007 6.03342 6.94589C5.94862 6.97433 5.8613 6.99942 5.76726 6.99942C4.60946 6.99942 3.6666 7.93461 3.6666 9.08309C3.6666 10.2316 4.60946 11.1668 5.76726 11.1668C5.78909 11.1668 5.80673 11.1768 5.82855 11.1785C5.84954 11.1768 5.86802 11.1668 5.88901 11.1668H18.111C18.1412 11.1668 18.1664 11.1801 18.1958 11.1835C18.2243 11.1801 18.2504 11.1668 18.2798 11.1668C20.3317 11.1668 22 12.8489 22 14.9159C22 16.9845 20.3317 18.6666 18.2798 18.6666C18.2504 18.6666 18.2243 18.6524 18.1958 18.6491C18.1664 18.6524 18.1412 18.6666 18.111 18.6666H4.84539L6.75631 20.5771C7.08123 20.9025 7.08123 21.4304 6.75631 21.7557C6.59343 21.9189 6.38017 22 6.16691 22C5.95365 22 5.7404 21.9189 5.57752 21.7557L2.24432 18.4224C2.16792 18.3454 2.10663 18.2534 2.06465 18.1522C2.02267 18.0501 2 17.9414 2 17.8327C2 17.8318 2.00084 17.8318 2.00084 17.831C2.00084 17.7231 2.02267 17.616 2.06465 17.5148C2.10663 17.4127 2.16792 17.3199 2.24516 17.2429L5.57752 13.9104C5.90328 13.585 6.43054 13.585 6.75631 13.9104C7.08123 14.2358 7.08123 14.7636 6.75631 15.089L4.84539 16.9995H18.111C18.1412 16.9995 18.1664 17.0138 18.1958 17.0171C18.2243 17.0138 18.2504 16.9995 18.2798 16.9995C19.4124 16.9995 20.3334 16.0652 20.3334 14.9159C20.3334 13.7674 19.4124 12.833 18.2798 12.833C18.2504 12.833 18.2243 12.8188 18.1958 12.8163C18.1664 12.8188 18.1412 12.833 18.111 12.833H5.88901C5.86802 12.833 5.84954 12.8222 5.82855 12.8205C5.80673 12.8222 5.78909 12.833 5.76726 12.833C3.69011 12.833 2 11.1509 2 9.08309C2 7.01532 3.69011 5.33316 5.76726 5.33316C5.78909 5.33316 5.80673 5.3432 5.82855 5.34487C5.84954 5.3432 5.86802 5.33316 5.88901 5.33316H19.1546L17.2445 3.4218C16.9188 3.09725 16.9188 2.5686 17.2445 2.24404C17.5695 1.91865 18.0967 1.91865 18.4225 2.24404L21.7557 5.57657C21.8329 5.65353 21.8934 5.74554 21.9362 5.84759C21.9773 5.94881 21.9992 6.05671 22 6.16462C22 6.16546 22 6.16546 22 6.16629C22 6.45153 21.8833 6.67822 21.6935 6.81791L18.4225 10.0894Z" fill="currentColor"/>
</svg>