<svg width="24" height="24" viewBox="0 0 24 24" fill="none" xmlns="http://www.w3.org/2000/svg">
<path fill-rule="evenodd" clip-rule="evenodd" d="M20.3673 12C20.3673 7.37884 16.6212 3.63265 12 3.63265C7.37884 3.63265 3.63265 7.37884 3.63265 12C3.63265 16.6212 7.37884 20.3673 12 20.3673C16.6212 20.3673 20.3673 16.6212 20.3673 12ZM12 2C17.5228 2 22 6.47715 22 12C22 17.5229 17.5228 22 12 22C6.47715 22 2 17.5228 2 12C2 6.47715 6.47715 2 12 2ZM15.6385 12.1881C15.9572 12.5069 15.9572 13.0237 15.6385 13.3425L12.5772 16.4038C12.4241 16.5569 12.2165 16.6429 12 16.6429C11.7835 16.6429 11.5759 16.5569 11.4228 16.4038L8.36154 13.3425C8.04275 13.0237 8.04275 12.5069 8.36155 12.1881C8.68034 11.8693 9.19721 11.8693 9.51601 12.1881L11.1837 13.8557L11.1837 8.17347C11.1837 7.72263 11.5492 7.35714 12 7.35714C12.4508 7.35714 12.8163 7.72263 12.8163 8.17347L12.8163 13.8557L14.484 12.1881C14.8028 11.8693 15.3197 11.8693 15.6385 12.1881Z" fill="#6B7084"/>
</svg>
