<svg viewBox="0 0 24 24" fill="none" xmlns="http://www.w3.org/2000/svg">
<path d="M6.12187 7.14371C5.70766 7.14371 5.37187 7.47949 5.37187 7.89371C5.37187 8.30792 5.70766 8.64371 6.12187 8.64371H11.1219C11.5361 8.64371 11.8719 8.30792 11.8719 7.89371C11.8719 7.47949 11.5361 7.14371 11.1219 7.14371H6.12187Z" fill="currentColor"/>
<path d="M5.37186 10.8152C5.37186 10.401 5.70764 10.0652 6.12186 10.0652H16.1219C16.5361 10.0652 16.8719 10.401 16.8719 10.8152C16.8719 11.2294 16.5361 11.5652 16.1219 11.5652H6.12186C5.70764 11.5652 5.37186 11.2294 5.37186 10.8152Z" fill="currentColor"/>
<path d="M6.12186 13.148C5.70764 13.148 5.37186 13.4838 5.37186 13.898C5.37186 14.3122 5.70764 14.648 6.12186 14.648H16.1219C16.5361 14.648 16.8719 14.3122 16.8719 13.898C16.8719 13.4838 16.5361 13.148 16.1219 13.148H6.12186Z" fill="currentColor"/>
<path fill-rule="evenodd" clip-rule="evenodd" d="M17 2C17.8559 2 18.6615 2.21504 19.3658 2.59403C20.9181 3.28718 22 4.8444 22 6.6543C22 6.70072 21.9986 6.7468 21.9958 6.7925C21.9986 6.86132 22 6.93049 22 7V17C22 19.7614 19.7614 22 17 22H7C4.23858 22 2 19.7614 2 17V7C2 4.23858 4.23858 2 7 2H17ZM17 3.75H16.7186C16.3033 3.87155 16 4.25528 16 4.70986V7.37653H19.7778C19.9583 7.37653 20.1234 7.31028 20.25 7.20077V7C20.25 5.20507 18.7949 3.75 17 3.75ZM19.7778 8.87653C19.9398 8.87653 20.0978 8.85918 20.25 8.82625V17C20.25 18.7949 18.7949 20.25 17 20.25H7C5.20507 20.25 3.75 18.7949 3.75 17V7C3.75 5.20507 5.20507 3.75 7 3.75H14.6909C14.5679 4.04555 14.5 4.36977 14.5 4.70986V7.62653C14.5 8.31688 15.0596 8.87653 15.75 8.87653H19.7778Z" fill="currentColor"/>
</svg>