<svg width="24" height="24" viewBox="0 0 24 24" fill="none" xmlns="http://www.w3.org/2000/svg">
<g clip-path="url(#clip0_1265_22452)">
<path d="M12 24C18.6274 24 24 18.6274 24 12C24 5.37258 18.6274 0 12 0C5.37258 0 0 5.37258 0 12C0 18.6274 5.37258 24 12 24Z" fill="#343434"/>
<path d="M17.7179 15.6905C17.8452 15.6466 17.9546 15.562 18.029 15.4497C18.1034 15.3374 18.1388 15.2038 18.1295 15.0694V15.8638C18.1305 15.999 18.0897 16.1311 18.0128 16.2423C17.9359 16.3534 17.8266 16.4381 17.6998 16.4849L12.2196 18.4588C12.0814 18.5138 11.9274 18.5138 11.7891 18.4588L6.30893 16.4856C6.18153 16.4398 6.07164 16.3553 5.9946 16.2439C5.91756 16.1326 5.87722 15.9999 5.87921 15.8645V15.0701C5.87921 15.3438 6.04893 15.5995 6.30893 15.6912L11.8072 17.6643C11.9452 17.7191 12.0989 17.7191 12.2369 17.6643L17.7179 15.6905ZM17.7179 14.2836C17.844 14.2378 17.952 14.1528 18.0261 14.0409C18.1003 13.9291 18.1365 13.7965 18.1295 13.6625V14.4569C18.1305 14.5921 18.0897 14.7242 18.0128 14.8354C17.9359 14.9465 17.8266 15.0313 17.6998 15.078L12.2196 17.0519C12.0814 17.1069 11.9274 17.1069 11.7891 17.0519L6.30893 15.0788C6.18153 15.0329 6.07164 14.9484 5.9946 14.837C5.91756 14.7257 5.87722 14.593 5.87921 14.4576V13.6538C5.87921 13.9369 6.04893 14.1832 6.30893 14.2836L11.8072 16.2574C11.9452 16.3122 12.0989 16.3122 12.2369 16.2574L17.7179 14.2836ZM17.7179 12.868C17.8434 12.8231 17.9517 12.7397 18.0272 12.6298C18.1028 12.5199 18.1419 12.389 18.1389 12.2556V13.05C18.1398 13.1853 18.0989 13.3175 18.0219 13.4286C17.9449 13.5398 17.8354 13.6245 17.7085 13.6711L12.2283 15.645C12.0903 15.6998 11.9365 15.6998 11.7985 15.645L6.30893 13.6625C6.18153 13.6166 6.07164 13.5321 5.9946 13.4207C5.91756 13.3094 5.87722 13.1768 5.87921 13.0414V12.2469C5.87921 12.5206 6.04893 12.7763 6.30893 12.868L11.8072 14.8411C11.9452 14.896 12.0989 14.896 12.2369 14.8411L17.7179 12.868ZM5.86115 8.14471C5.85917 8.00932 5.89951 7.87669 5.97655 7.76534C6.05359 7.65399 6.16348 7.56947 6.29088 7.5236L11.7805 5.5411C11.9185 5.4863 12.0722 5.4863 12.2102 5.5411L17.6998 7.5236C17.8272 7.56947 17.9371 7.65399 18.0141 7.76534C18.0912 7.87669 18.1315 8.00932 18.1295 8.14471V11.6345C18.1305 11.7696 18.0897 11.9018 18.0128 12.0129C17.9359 12.1241 17.8266 12.2088 17.6998 12.2556L12.2015 14.2287C12.0635 14.2835 11.9098 14.2835 11.7718 14.2287L6.29088 12.2556C6.16348 12.2097 6.05359 12.1252 5.97655 12.0139C5.89951 11.9025 5.85917 11.7699 5.86115 11.6345V8.14471Z" fill="white"/>
</g>
<defs>
<clipPath id="clip0_1265_22452">
<rect width="24" height="24" fill="white"/>
</clipPath>
</defs>
</svg>
