<svg viewBox="0 0 24 24" fill="none" xmlns="http://www.w3.org/2000/svg">
<path fill-rule="evenodd" clip-rule="evenodd" d="M20.3408 20H3.65917C2.74417 20 2 19.2567 2 18.3417V6.65917C2 5.74417 2.74417 5 3.65917 5H20.3408C21.2558 5 22 5.74417 22 6.65917V18.3417C22 19.2567 21.2558 20 20.3408 20ZM20.3333 6.65916L3.65914 6.66666L3.66664 18.3417L20.3333 18.3333V6.65916ZM20.3409 18.3333V19.1667V18.3333ZM5.33333 7.5H7.83333C8.29333 7.5 8.66667 7.87333 8.66667 8.33333C8.66667 8.79333 8.29333 9.16667 7.83333 9.16667H6.16667V10.8333C6.16667 11.2933 5.79333 11.6667 5.33333 11.6667C4.87333 11.6667 4.5 11.2933 4.5 10.8333V8.33333C4.5 7.87333 4.87333 7.5 5.33333 7.5ZM16.1667 15.8333H17.8333V14.1667C17.8333 13.7067 18.2067 13.3333 18.6667 13.3333C19.1267 13.3333 19.5 13.7067 19.5 14.1667V16.6667C19.5 17.1267 19.1267 17.5 18.6667 17.5H16.1667C15.7067 17.5 15.3333 17.1267 15.3333 16.6667C15.3333 16.2067 15.7067 15.8333 16.1667 15.8333Z" fill="currentColor"/>
</svg>