<svg width="24" height="24" viewBox="0 0 24 24" fill="none" xmlns="http://www.w3.org/2000/svg">
<g clip-path="url(#clip0_1265_22448)">
<path d="M12 24C18.6274 24 24 18.6274 24 12C24 5.37258 18.6274 0 12 0C5.37258 0 0 5.37258 0 12C0 18.6274 5.37258 24 12 24Z" fill="#0061FF"/>
<path d="M12.008 4L20 12.112L19.7 12.384C19.5636 12.5129 19.4216 12.6356 19.2744 12.752C19.0136 12.9608 18.7384 13.1688 18.4616 13.3536C17.3423 14.1114 16.0974 14.6646 14.7848 14.9872C13.876 15.2112 12.9432 15.3232 12.008 15.3232C10.824 15.3232 9.648 15.1472 8.52 14.7872C7.36601 14.4247 6.27696 13.8811 5.2936 13.1768C4.95358 12.9274 4.62473 12.6632 4.308 12.3848L4 12.112L4.876 11.2224L12.008 4ZM18.9984 12.376C19.1168 12.28 19.2344 12.184 19.3376 12.08L12 4.648L4.6632 12.08L4.8128 12.208C5.0576 12.408 5.3016 12.608 5.5544 12.784C7.43448 14.1349 9.69292 14.858 12.008 14.8504C12.9094 14.8494 13.8074 14.7393 14.6824 14.5224C15.9436 14.2108 17.14 13.6795 18.2168 12.9528C18.4872 12.7752 18.748 12.5824 18.9984 12.3768V12.376ZM6.9744 11.992C8.51929 11.3037 10.1903 10.9438 11.8816 10.9352C13.8704 10.9352 15.8264 11.4632 17.5384 12.4728L17.6496 12.5368L17.5384 12.6088C16.4072 13.335 15.1448 13.8329 13.8224 14.0744L13.7912 14.0824L13.7672 14.0664C11.7525 12.8112 9.42654 12.1452 7.0528 12.144H6.6192L6.9744 11.992ZM13.8856 13.5936C14.8872 13.4016 15.8424 13.0576 16.7256 12.5608C15.2231 11.7949 13.5601 11.3968 11.8736 11.3992C10.8576 11.3992 9.8472 11.5352 8.868 11.8072C10.644 12.0472 12.3512 12.6552 13.8856 13.5936ZM16.5288 15.1712C16.1724 15.656 15.7933 16.1238 15.3928 16.5728L12.008 20L9.6256 17.5896L10.1296 17.5576C11.8149 17.4532 13.4537 16.9627 14.9192 16.124C15.3608 15.908 16.5288 15.1712 16.5288 15.1712ZM10.6512 17.9744L12.008 19.3512L14.4064 16.9168C13.2247 17.4825 11.9544 17.8402 10.6512 17.9744Z" fill="white"/>
</g>
<defs>
<clipPath id="clip0_1265_22448">
<rect width="24" height="24" fill="white"/>
</clipPath>
</defs>
</svg>
