<svg width="24" height="24" viewBox="0 0 24 24" fill="none" xmlns="http://www.w3.org/2000/svg">
<path fill-rule="evenodd" clip-rule="evenodd" d="M17.7628 6.23707C14.58 3.0543 9.41975 3.0543 6.23698 6.23707C3.05421 9.41985 3.05421 14.5801 6.23698 17.7629C9.41975 20.9457 14.58 20.9457 17.7628 17.7629C18.0948 17.431 18.633 17.431 18.9649 17.7629C19.2968 18.0949 19.2968 18.633 18.9649 18.965C15.1182 22.8117 8.88156 22.8117 5.0349 18.965C1.18824 15.1183 1.18824 8.88166 5.0349 5.03499C8.88156 1.18833 15.1182 1.18833 18.9649 5.03499C20.8881 6.95816 21.8499 9.48049 21.8499 12C21.8499 12.9946 21.5486 13.9277 21.0209 14.6313C20.493 15.3352 19.6987 15.85 18.7499 15.85C17.8611 15.85 17.108 15.3983 16.5823 14.7626C15.6455 16.3133 13.9438 17.35 11.9999 17.35C9.04518 17.35 6.6499 14.9547 6.6499 12C6.6499 9.04527 9.04518 6.64999 11.9999 6.64999C13.4172 6.64999 14.7057 7.20109 15.663 8.10069C15.7335 7.70245 16.0814 7.39999 16.4999 7.39999C16.9693 7.39999 17.3499 7.78055 17.3499 8.24999V12C17.3499 12.6623 17.5523 13.2292 17.8389 13.6113C18.1253 13.9932 18.4561 14.15 18.7499 14.15C19.0437 14.15 19.3745 13.9932 19.6609 13.6113C19.9475 13.2292 20.1499 12.6623 20.1499 12C20.1499 9.91292 19.3544 7.82863 17.7628 6.23707ZM15.6499 12C15.6499 9.98415 14.0157 8.34999 11.9999 8.34999C9.98406 8.34999 8.3499 9.98416 8.3499 12C8.3499 14.0158 9.98406 15.65 11.9999 15.65C14.0157 15.65 15.6499 14.0158 15.6499 12Z" fill="#6B7084"/>
</svg>
