<svg viewBox="0 0 24 24" fill="none" xmlns="http://www.w3.org/2000/svg">
<g clip-path="url(#clip0_1265_22444)">
<path d="M12 24C18.6274 24 24 18.6274 24 12C24 5.37258 18.6274 0 12 0C5.37258 0 0 5.37258 0 12C0 18.6274 5.37258 24 12 24Z" fill="#346FCE"/>
<path fill-rule="evenodd" clip-rule="evenodd" d="M14.6215 13.8346L15.2177 14.9553C15.5568 15.5933 15.6287 16.3398 15.4175 17.0308C15.2063 17.7217 14.7293 18.3005 14.0914 18.6398L14.0141 18.6809C13.6982 18.849 13.3522 18.9531 12.9961 18.9874C12.6399 19.0218 12.2804 18.9856 11.9383 18.881C11.5961 18.7764 11.2778 18.6055 11.0017 18.3779C10.7256 18.1503 10.497 17.8706 10.329 17.5546L8.31899 13.7741C7.99219 13.1596 7.91298 12.4433 8.0976 11.7722C8.28222 11.1011 8.71668 10.526 9.31182 10.1651L8.71562 9.04444C8.37653 8.4064 8.30476 7.6598 8.5161 6.96884C8.72743 6.27789 9.20456 5.69917 9.84254 5.35997L9.91987 5.31881C10.5578 4.97968 11.3044 4.90782 11.9953 5.11903C12.6863 5.33024 13.265 5.80723 13.6043 6.44511L15.6143 10.2256C15.9412 10.8401 16.0205 11.5564 15.836 12.2275C15.6515 12.8985 15.2172 13.4736 14.6221 13.8346H14.6215ZM14.6215 13.8346L13.2077 11.1748C12.8684 10.5369 12.2896 10.0599 11.5987 9.84872C10.9077 9.6375 10.1612 9.70937 9.52324 10.0485L9.44591 10.089C9.40038 10.114 9.35548 10.1389 9.31182 10.1651L10.7262 12.8249C11.0655 13.4628 11.6443 13.9398 12.3353 14.151C13.0262 14.3622 13.7727 14.2904 14.4107 13.9512L14.488 13.9107C14.5336 13.8858 14.5785 13.8608 14.6221 13.8346H14.6215Z" fill="white"/>
</g>
<defs>
<clipPath id="clip0_1265_22444">
<rect width="24" height="24" fill="white"/>
</clipPath>
</defs>
</svg>