<svg viewBox="0 0 24 24" fill="none" xmlns="http://www.w3.org/2000/svg">
<path fill-rule="evenodd" clip-rule="evenodd" d="M20.5558 8.66667H20.3333C19.8725 8.66667 19.5 8.29333 19.5 7.83333C19.5 7.37333 19.8725 7 20.3333 7V3.66667H3.66667V7C4.1275 7 4.5 7.37333 4.5 7.83333C4.5 8.29333 4.1275 8.66667 3.66667 8.66667H3.44417C2.6475 8.66667 2 8.04333 2 7.2775V3.38833C2 2.62333 2.6475 2 3.44417 2H20.5558C21.3525 2 22 2.62333 22 3.38833V7.2775C22 8.04333 21.3525 8.66667 20.5558 8.66667ZM6.16667 5.33333H17.8333C18.2942 5.33333 18.6667 5.70667 18.6667 6.16667V21.1667C18.6667 21.6267 18.2942 22 17.8333 22H6.16667C5.70583 22 5.33333 21.6267 5.33333 21.1667V6.16667C5.33333 5.70667 5.70583 5.33333 6.16667 5.33333ZM7 20.3333H17V7H7V20.3333ZM12 12.8333C13.4025 12.8333 14.5 13.7483 14.5 14.9167C14.5 15.8467 13.8 16.6075 12.81 16.8825C12.8158 16.9225 12.8333 16.9583 12.8333 17V17.8333C12.8333 18.2933 12.4608 18.6667 12 18.6667C11.5392 18.6667 11.1667 18.2933 11.1667 17.8333V17H10.3333C9.8725 17 9.5 16.6267 9.5 16.1667C9.5 15.7067 9.8725 15.3333 10.3333 15.3333H12C12.5167 15.3333 12.8333 15.0633 12.8333 14.9167C12.8333 14.77 12.5167 14.5 12 14.5C10.5975 14.5 9.5 13.585 9.5 12.4167C9.5 11.4867 10.2 10.7267 11.19 10.4508C11.1842 10.4108 11.1667 10.375 11.1667 10.3333V9.5C11.1667 9.04 11.5392 8.66667 12 8.66667C12.4608 8.66667 12.8333 9.04 12.8333 9.5V10.3333H13.6667C14.1275 10.3333 14.5 10.7067 14.5 11.1667C14.5 11.6267 14.1275 12 13.6667 12H12C11.4833 12 11.1667 12.27 11.1667 12.4167C11.1667 12.5633 11.4833 12.8333 12 12.8333Z" fill="currentColor"/>
</svg>