<svg width="24" height="24" viewBox="0 0 24 24" fill="none" xmlns="http://www.w3.org/2000/svg">
<g clip-path="url(#clip0_1265_22433)">
<path d="M12 24C18.6274 24 24 18.6274 24 12C24 5.37258 18.6274 0 12 0C5.37258 0 0 5.37258 0 12C0 18.6274 5.37258 24 12 24Z" fill="#2E3148"/>
<path d="M12.0001 4.5C11.0742 4.5 10.3235 7.8582 10.3235 12C10.3235 16.1418 11.0742 19.5 12.0001 19.5C12.9252 19.5 13.676 16.1418 13.676 12C13.676 7.8582 12.9252 4.5 12.0001 4.5ZM12.1159 19.076C12.0101 19.2176 11.9036 19.1118 11.9036 19.1118C11.4774 18.617 11.2644 17.6997 11.2644 17.6997C10.5187 15.2996 10.696 10.1468 10.696 10.1468C11.0463 6.05648 11.6841 5.08985 11.9007 4.87536C11.9229 4.85336 11.9522 4.83993 11.9833 4.83744C12.0144 4.83495 12.0455 4.84357 12.0709 4.86177C12.3854 5.08556 12.65 6.01787 12.65 6.01787C13.4293 8.91206 13.3585 11.6289 13.3585 11.6289C13.4293 13.994 12.9681 16.6408 12.9681 16.6408C12.6128 18.6528 12.1159 19.076 12.1159 19.076Z" fill="white"/>
<path d="M18.5048 8.26788C18.0436 7.46426 14.7583 8.48451 11.1642 10.5458C7.57006 12.607 5.03478 14.9285 5.49451 15.7321C5.95566 16.5358 9.24165 15.5155 12.8358 13.4542C16.4299 11.393 18.9659 9.07079 18.5055 8.26788H18.5048ZM5.9192 15.6213C5.74332 15.5999 5.78335 15.454 5.78335 15.454C5.99927 14.8391 6.6885 14.1971 6.6885 14.1971C8.39942 12.3561 12.958 9.9459 12.958 9.9459C16.6802 8.21426 17.8363 8.28718 18.1294 8.36726C18.1597 8.37557 18.186 8.39437 18.2037 8.4203C18.2214 8.44623 18.2292 8.47761 18.2259 8.50882C18.1902 8.89276 17.511 9.58628 17.511 9.58628C15.3904 11.7033 12.9981 12.9952 12.9981 12.9952C10.9819 14.2336 8.4559 15.1494 8.4559 15.1494C6.53407 15.8415 5.9192 15.6213 5.9192 15.6213Z" fill="white"/>
<path d="M18.4882 15.7586C18.9529 14.9579 16.4241 12.6249 12.8414 10.5479C9.25942 8.47168 5.97486 7.43927 5.51085 8.24146C5.04612 9.04437 7.57567 11.3752 11.1591 13.4521C14.7432 15.5284 18.0242 16.5608 18.4882 15.7586ZM5.819 8.55105C5.74965 8.38803 5.89479 8.34871 5.89479 8.34871C6.53611 8.22717 7.43697 8.50386 7.43697 8.50386C9.88716 9.06153 14.2563 11.7984 14.2563 11.7984C17.6202 14.1521 18.1364 15.1895 18.2137 15.4834C18.2215 15.5136 18.2184 15.5455 18.2049 15.5737C18.1914 15.6018 18.1684 15.6243 18.14 15.6371C17.7897 15.7979 16.8495 15.5584 16.8495 15.5584C13.9539 14.782 11.6381 13.3599 11.6381 13.3599C9.55756 12.2374 7.49989 10.5108 7.49989 10.5108C5.93625 9.1938 5.81972 8.55176 5.81972 8.55176L5.81829 8.55105H5.819Z" fill="white"/>
<path d="M11.9821 12.8643C12.4694 12.8643 12.8644 12.4693 12.8644 11.982C12.8644 11.4947 12.4694 11.0997 11.9821 11.0997C11.4949 11.0997 11.0999 11.4947 11.0999 11.982C11.0999 12.4693 11.4949 12.8643 11.9821 12.8643Z" fill="white"/>
<path d="M15.6 9.30884C15.9948 9.30884 16.3149 8.98874 16.3149 8.59387C16.3149 8.19901 15.9948 7.87891 15.6 7.87891C15.2051 7.87891 14.885 8.19901 14.885 8.59387C14.885 8.98874 15.2051 9.30884 15.6 9.30884Z" fill="white"/>
<path d="M7.19959 11.1091C7.59445 11.1091 7.91455 10.789 7.91455 10.3942C7.91455 9.9993 7.59445 9.6792 7.19959 9.6792C6.80472 9.6792 6.48462 9.9993 6.48462 10.3942C6.48462 10.789 6.80472 11.1091 7.19959 11.1091Z" fill="white"/>
<path d="M10.9413 17.6025C11.3362 17.6025 11.6563 17.2824 11.6563 16.8876C11.6563 16.4927 11.3362 16.1726 10.9413 16.1726C10.5464 16.1726 10.2263 16.4927 10.2263 16.8876C10.2263 17.2824 10.5464 17.6025 10.9413 17.6025Z" fill="white"/>
</g>
<defs>
<clipPath id="clip0_1265_22433">
<rect width="24" height="24" fill="white"/>
</clipPath>
</defs>
</svg>
