<svg viewBox="0 0 24 24" fill="none" xmlns="http://www.w3.org/2000/svg">
<path fill-rule="evenodd" clip-rule="evenodd" d="M11.2755 19.5C11.0625 19.5 10.8494 19.4181 10.6865 19.2568C10.3607 18.9317 10.3607 18.4059 10.6865 18.0816L19.3333 9.46408C19.9782 8.82205 20.3333 7.96709 20.3333 7.0589C20.3333 6.15072 19.9782 5.29658 19.3333 4.65536C18.0024 3.3287 15.837 3.32952 14.507 4.65536L4.4767 14.6511C3.91111 15.2154 3.6396 15.7583 3.66967 16.2661C3.69891 16.7607 4.0122 17.1423 4.19683 17.3249C4.50762 17.6353 4.8443 17.7647 5.22191 17.7164C5.69644 17.6574 6.24198 17.3323 6.80089 16.7754L14.6715 8.93096C14.9965 8.60667 15.5245 8.60667 15.8495 8.93096C16.1753 9.25526 16.1753 9.78183 15.8495 10.1053L7.97969 17.9506C7.14425 18.7826 6.28626 19.2584 5.42827 19.3649C4.52934 19.4762 3.69641 19.1765 3.01803 18.5001C2.4115 17.8957 2.05143 17.1374 2.00548 16.3652C1.94533 15.3628 2.38059 14.3907 3.2979 13.4768L13.3282 3.48021C15.309 1.5066 18.5321 1.5066 20.5121 3.48021C21.4712 4.43507 22 5.70686 22 7.0589C22 8.41095 21.4712 9.68274 20.5121 10.6392L11.8653 19.2568C11.7024 19.4181 11.4894 19.5 11.2755 19.5Z" fill="currentColor"/>
</svg>