<svg viewBox="0 0 24 24" fill="none" xmlns="http://www.w3.org/2000/svg">
<path fill-rule="evenodd" clip-rule="evenodd" d="M21.7557 11.7558L16.7559 16.7545C16.593 16.9168 16.3797 16.9988 16.1665 16.9988C15.9532 16.9988 15.74 16.9168 15.5771 16.7545C15.2891 16.4659 15.2715 16.0268 15.4931 15.7022L12.526 12.6508L3.42227 21.7558C3.25939 21.918 3.04614 22 2.83288 22C2.61962 22 2.4072 21.918 2.24432 21.7558C1.91856 21.4304 1.91856 20.9026 2.24432 20.5772L11.3648 11.4555L8.41787 8.42416C8.25498 8.58393 8.04509 8.66506 7.83351 8.66506C7.62025 8.66506 7.40699 8.58393 7.24411 8.42082C6.91835 8.09543 6.91835 7.56762 7.24411 7.24224L12.2439 2.24435C12.5697 1.91897 13.0969 1.91813 13.4227 2.24435C13.7107 2.5321 13.7283 2.9704 13.5075 3.29495L20.5811 10.5747C20.9068 10.2527 21.4316 10.2527 21.7557 10.5772C22.0814 10.9034 22.0814 11.4304 21.7557 11.7558ZM12.3497 4.49528L9.59664 7.24642L16.6501 14.5028L19.4023 11.7525L12.3497 4.49528ZM14.4999 20.3329H21.1663C21.6272 20.3329 22 20.7068 22 21.1669C22 21.6269 21.6272 22 21.1663 22H14.4999C14.0389 22 13.6662 21.6269 13.6662 21.1669C13.6662 20.7068 14.0389 20.3329 14.4999 20.3329Z" fill="currentColor"/>
</svg>