<svg viewBox="0 0 24 24" fill="none" xmlns="http://www.w3.org/2000/svg">
<g clip-path="url(#clip0_1265_22429)">
<path d="M24 12C24 14.3734 23.2962 16.6935 21.9776 18.6668C20.6591 20.6402 18.7849 22.1783 16.5922 23.0866C14.3995 23.9948 11.9867 24.2324 9.65892 23.7694C7.33115 23.3064 5.19295 22.1635 3.51472 20.4853C1.83649 18.8071 0.693605 16.6689 0.230582 14.3411C-0.232441 12.0133 0.00519936 9.60051 0.913451 7.4078C1.8217 5.21509 3.35977 3.34094 5.33316 2.02236C7.30655 0.703788 9.62663 0 12 0C15.1826 0 18.2348 1.26428 20.4853 3.51472C22.7357 5.76516 24 8.8174 24 12Z" fill="#001B69"/>
<path fill-rule="evenodd" clip-rule="evenodd" d="M18.845 14.7509C18.9507 14.4988 19.0034 14.2277 18.9998 13.9544C19.0027 13.6863 18.9515 13.4205 18.8492 13.1727C18.7536 12.9451 18.6087 12.7416 18.425 12.5766C18.2174 12.3855 17.9821 12.2267 17.7271 12.1057C17.417 11.9534 17.0983 11.8192 16.7726 11.7038V9.05226C17.074 9.07698 17.372 9.13387 17.6613 9.22196C17.9269 9.29729 18.1867 9.39158 18.4388 9.50408L18.846 8.59408C18.5446 8.45558 18.2307 8.34619 17.9085 8.26742C17.5361 8.1757 17.1557 8.12099 16.7726 8.10409V7H15.9241V8.12954C15.6196 8.16417 15.3215 8.24128 15.0385 8.35863C14.7888 8.45855 14.5589 8.60222 14.3597 8.78287C14.1749 8.95347 14.0279 9.16085 13.928 9.39166C13.8264 9.63397 13.7758 9.89466 13.7795 10.1574C13.7742 10.4327 13.818 10.7068 13.9089 10.9667C13.9974 11.1976 14.1336 11.4072 14.3088 11.5818C14.506 11.7712 14.7305 11.93 14.9748 12.0527C15.2835 12.2061 15.6025 12.338 15.9294 12.4473V15.1772C15.7268 15.1764 15.5247 15.1594 15.3248 15.1263C15.1191 15.0892 14.9186 15.0425 14.7203 14.9885C14.522 14.9344 14.3332 14.8739 14.1518 14.806C13.975 14.7311 13.8188 14.6604 13.683 14.5939V15.6736C13.8288 15.7504 13.9815 15.8133 14.1391 15.8613C14.3215 15.9185 14.507 15.9649 14.6948 16.0003C14.8935 16.0427 15.0975 16.072 15.3068 16.0883C15.5161 16.1046 15.7236 16.1127 15.9294 16.1127V17.5H16.7779V16.0565C17.0956 16.0141 17.4067 15.9318 17.7038 15.8115C17.96 15.7072 18.1959 15.5585 18.4006 15.3724C18.5919 15.1998 18.7436 14.9878 18.845 14.7509ZM17.8512 13.5779C17.8942 13.6987 17.9154 13.8261 17.9138 13.9544C17.9217 14.2371 17.8185 14.5116 17.6263 14.7191C17.4439 14.9238 17.1607 15.0553 16.7779 15.1136V12.7633C16.9604 12.8269 17.1377 12.9045 17.3082 12.9956C17.4375 13.0635 17.5544 13.1528 17.6539 13.2597C17.7436 13.3489 17.8111 13.4579 17.8512 13.5779ZM14.9133 10.5774C14.8788 10.4441 14.862 10.3068 14.8635 10.1691C14.8532 9.90903 14.944 9.6551 15.117 9.4606C15.2902 9.27181 15.5596 9.14418 15.9251 9.07772V11.393C15.7498 11.3337 15.5804 11.2581 15.4192 11.1671C15.2965 11.0981 15.1862 11.0092 15.0926 10.9041C15.0125 10.8077 14.9516 10.6968 14.9133 10.5774ZM10.5247 13.9098L11.5132 16.7533H12.6851L9.36438 7.53987H8.31544L5 16.7533H6.1603L7.16045 13.9098H10.5247ZM9.24241 10.2136L10.1609 12.8747H7.53272L8.42786 10.2136C8.45332 10.1426 8.48302 10.0577 8.51483 9.94956C8.52648 9.90996 8.53941 9.86965 8.55273 9.82811C8.5758 9.75616 8.60005 9.68053 8.62089 9.5985C8.65377 9.46911 8.68983 9.33441 8.72695 9.19653C8.76408 9.05865 8.79695 8.92502 8.82665 8.79456C8.84103 8.84814 8.85522 8.90296 8.86953 8.95824C8.89006 9.03755 8.91084 9.11778 8.93271 9.19653L8.93794 9.21535C8.97323 9.34242 9.00769 9.4665 9.04407 9.58577C9.06097 9.64116 9.07725 9.69551 9.09299 9.74808C9.11282 9.8143 9.13181 9.87771 9.15013 9.93683C9.1869 10.0464 9.21766 10.1387 9.24241 10.2136Z" fill="white"/>
</g>
<defs>
<clipPath id="clip0_1265_22429">
<rect width="24" height="24" fill="white"/>
</clipPath>
</defs>
</svg>