<svg viewBox="0 0 24 24" fill="none" xmlns="http://www.w3.org/2000/svg">
<path fill-rule="evenodd" clip-rule="evenodd" d="M13.1797 4.23153C14.3065 4.70979 14.8461 5.82165 15.1476 6.90909C15.4516 8.00594 15.5794 9.32635 15.6982 10.5546L15.7027 10.6006C15.8268 11.8837 15.944 13.0683 16.2062 14.0139C16.474 14.9802 16.8285 15.4537 17.2439 15.6286C17.2602 15.6355 17.2763 15.6429 17.2921 15.6508C17.5514 15.7804 17.933 15.7804 18.1923 15.6508C18.2066 15.6437 18.2211 15.6369 18.2357 15.6307C18.6929 15.4347 19.029 14.834 19.2157 13.9596C19.3783 13.198 19.3723 12.4871 19.371 12.3308C19.3709 12.3207 19.3708 12.313 19.3708 12.3076C19.3708 11.8579 19.7354 11.4933 20.1851 11.4933C20.6348 11.4933 20.9994 11.8579 20.9994 12.3076C20.9994 12.3071 21.0007 12.4014 20.9995 12.508C20.9983 12.6223 20.9945 12.7754 20.9841 12.9562C20.9634 13.3153 20.9164 13.794 20.8084 14.2996C20.6095 15.2316 20.1356 16.575 18.8989 17.1182C18.1924 17.4624 17.295 17.4628 16.588 17.1194C15.4725 16.6373 14.9367 15.531 14.6367 14.4489C14.3327 13.3521 14.2049 12.0317 14.0861 10.8035L14.0816 10.7575C13.9575 9.47431 13.8403 8.28973 13.5782 7.34417C13.3103 6.37786 12.9558 5.9043 12.5404 5.7294L12.5257 5.72303C12.3265 5.6345 12.0918 5.6152 11.8788 5.63649C11.7756 5.64682 11.6933 5.66523 11.6439 5.67981C11.6428 5.68013 11.6418 5.68044 11.6408 5.68074C11.6004 5.70451 11.5579 5.72482 11.5137 5.74137C10.9278 5.96109 10.4323 6.64595 10.057 7.97186C9.69346 9.25624 9.51518 10.8776 9.35112 12.5694C9.33666 12.7185 9.32231 12.8682 9.30793 13.0183C9.16299 14.5306 9.01476 16.0773 8.72279 17.3254C8.56167 18.0142 8.34477 18.6697 8.02592 19.2036C7.70273 19.7448 7.23915 20.2173 6.576 20.4163C6.53993 20.4271 6.50321 20.4354 6.46609 20.4411L6.44491 20.4467C6.38806 20.4617 6.29076 20.4866 6.17216 20.5035C5.93545 20.5373 5.6134 20.5399 5.25695 20.4047C4.37272 20.1173 3.88496 19.3009 3.60485 18.5433C3.30933 17.7441 3.15632 16.7769 3.07754 15.8473C2.91916 13.9784 3.04582 12.0511 3.08661 11.4392C3.11653 10.9904 3.50455 10.6509 3.95328 10.6808C4.40201 10.7107 4.74152 11.0988 4.71161 11.5475C4.67097 12.157 4.55335 13.9755 4.70032 15.7098C4.77422 16.5818 4.91131 17.3807 5.13237 17.9785C5.36554 18.6091 5.61264 18.8105 5.76718 18.858C5.78846 18.8646 5.80946 18.872 5.83013 18.8803C5.86827 18.8955 5.90055 18.8972 5.94185 18.8913C5.96576 18.8879 5.9906 18.8822 6.03044 18.8717C6.03249 18.8712 6.03526 18.8705 6.0386 18.8696C6.0556 18.865 6.08729 18.8566 6.11303 18.8505C6.12225 18.8484 6.13403 18.8457 6.14771 18.8428C6.28991 18.7884 6.45331 18.6606 6.62768 18.3686C6.82287 18.0417 6.99275 17.5712 7.137 16.9545C7.40244 15.8197 7.54031 14.3856 7.68887 12.8401C7.7025 12.6984 7.71621 12.5557 7.73012 12.4122C7.89178 10.7451 8.07994 8.97691 8.48997 7.5283C8.8797 6.15142 9.54422 4.78935 10.8547 4.25071C10.9035 4.22299 10.9426 4.20585 10.9609 4.19782L10.9635 4.19667C11.0342 4.16562 11.1095 4.13947 11.1833 4.11771C11.3323 4.07376 11.5147 4.03619 11.7168 4.01598C12.1128 3.97638 12.6485 3.99742 13.1797 4.23153Z" fill="currentColor"/>
</svg>