<svg viewBox="0 0 24 24" fill="none" xmlns="http://www.w3.org/2000/svg">
<path fill-rule="evenodd" clip-rule="evenodd" d="M20.5133 20.3001L12.1633 21.9833C12.1083 21.995 12.0533 22 11.9992 22C11.8133 22 11.6383 21.9339 11.4958 21.8244C11.4425 21.8294 11.3925 21.8512 11.3375 21.8512C11.2325 21.8512 11.1258 21.8403 11.0192 21.8186L3.48667 20.3001C2.65333 20.1321 2 19.3294 2 18.4732V3.52965C2 3.05723 2.19833 2.62244 2.545 2.33648C2.89083 2.04968 3.35583 1.94098 3.81333 2.03129L11.3467 3.54888C11.5067 3.58066 11.6525 3.65507 11.7967 3.73032C11.8108 3.72698 11.8217 3.71611 11.8367 3.7136L20.1858 2.03212C20.6475 1.93931 21.1092 2.04968 21.455 2.33648C21.8017 2.62244 22 3.05723 22 3.52965V18.4732C22 19.3294 21.3467 20.1321 20.5133 20.3001ZM20.3333 3.71444L12.8067 5.23036C12.8108 5.27969 12.8333 5.32652 12.8333 5.37585V6.88843C12.8333 7.35165 12.46 7.72791 12 7.72791C11.54 7.72791 11.1667 7.35165 11.1667 6.88843V5.37585C11.1667 5.31565 11.0783 5.20695 11.0192 5.19524L3.66667 3.71444V18.4732C3.66667 18.5334 3.755 18.6421 3.81417 18.6538L11.1667 20.1362V17.8017C11.1667 17.3385 11.54 16.9631 12 16.9631C12.46 16.9631 12.8333 17.3385 12.8333 17.8017V20.1362L20.1858 18.6538C20.245 18.6421 20.3333 18.5334 20.3333 18.4732V3.71444ZM15.715 12.9956L9.88167 16.03C9.7625 16.0918 9.63083 16.1228 9.5 16.1228C9.34917 16.1228 9.19917 16.0826 9.06667 16.0007C8.81833 15.8477 8.66667 15.5759 8.66667 15.2833V9.40689C8.66667 9.11759 8.81417 8.84918 9.0575 8.69533C9.30083 8.54232 9.605 8.5256 9.86333 8.65102L15.6958 11.4939C15.98 11.6327 16.1625 11.9212 16.1667 12.2389C16.1708 12.5575 15.9958 12.8501 15.715 12.9956ZM10.3333 10.7455V13.9053L13.47 12.274L10.3333 10.7455Z" fill="currentColor"/>
</svg>