<svg viewBox="0 0 24 24" fill="none" xmlns="http://www.w3.org/2000/svg">
<g clip-path="url(#clip0_1265_22425)">
<path d="M12 24C18.6274 24 24 18.6274 24 12C24 5.37258 18.6274 0 12 0C5.37258 0 0 5.37258 0 12C0 18.6274 5.37258 24 12 24Z" fill="#34318A"/>
<path d="M8.12825 10.3893L10.2535 11.5196L11.3839 10.9544L8.68224 9.49089V6.91348L13.8765 9.60981L15.0068 9.04464L8.35432 5.55708C8.27846 5.51722 8.1936 5.49764 8.10794 5.50023C8.02229 5.50281 7.93876 5.52748 7.86545 5.57184C7.79213 5.61619 7.73151 5.67874 7.68947 5.75341C7.64743 5.82807 7.62539 5.91234 7.62549 5.99803V9.56977C7.62726 9.91535 7.82094 10.2315 8.12825 10.3893ZM16.2272 9.78996C16.1538 9.71858 16.0601 9.67163 15.9589 9.65551C15.8578 9.63939 15.7541 9.65488 15.6621 9.69988L8.12825 13.6107C7.81918 13.7697 7.6249 14.0882 7.62549 14.4361V18.002C7.62539 18.0877 7.64743 18.1719 7.68947 18.2466C7.73151 18.3213 7.79213 18.3838 7.86545 18.4282C7.93876 18.4725 8.02229 18.4972 8.10794 18.4998C8.1936 18.5024 8.27846 18.4828 8.35432 18.4429L15.8711 14.5433C16.1849 14.3808 16.3797 14.0546 16.3744 13.7014V10.1408C16.3744 10.0755 16.3614 10.0108 16.3362 9.95058C16.3109 9.89033 16.2739 9.83573 16.2272 9.78996ZM15.323 13.639L8.68224 17.0865V14.5091L15.323 11.0616V13.639Z" fill="white"/>
</g>
<defs>
<clipPath id="clip0_1265_22425">
<rect width="24" height="24" fill="white"/>
</clipPath>
</defs>
</svg>