<svg viewBox="0 0 24 24" fill="none" xmlns="http://www.w3.org/2000/svg">
<g clip-path="url(#clip0_1265_22421)">
<path d="M12 24C18.6274 24 24 18.6274 24 12C24 5.37258 18.6274 0 12 0C5.37258 0 0 5.37258 0 12C0 18.6274 5.37258 24 12 24Z" fill="#FAB431"/>
<path fill-rule="evenodd" clip-rule="evenodd" d="M18 14.3061L15.0459 12.5336L15.3847 11.1296L16.6461 11.8743V9.31057L12.5944 6.89504V12.4715L11.6308 13.0045L16.9518 16.1597L12 19.0588L6 15.5449V8.51787L12 4.94116L18 8.51787V14.3061ZM7.35388 9.31057V13.8833L11.2489 11.6245V6.98822L7.35388 9.30987V9.31057ZM10.2459 13.7887L8.03082 15.1433L12 17.467L14.2412 16.1541L10.2459 13.788V13.7887Z" fill="white"/>
</g>
<defs>
<clipPath id="clip0_1265_22421">
<rect width="24" height="24" fill="white"/>
</clipPath>
</defs>
</svg>