<svg width="24" height="24" viewBox="0 0 24 24" fill="none" xmlns="http://www.w3.org/2000/svg">
<path fill-rule="evenodd" clip-rule="evenodd" d="M12.1648 3.7016C12.11 3.70053 12.0551 3.7 12 3.7C11.7797 3.7 11.5617 3.70855 11.3463 3.72528L11.2146 2.03039C11.4738 2.01025 11.7357 2 12 2C12.2643 2 12.5262 2.01025 12.7854 2.03039C17.9411 2.43092 22 6.74146 22 12C22 17.2585 17.9411 21.5691 12.7854 21.9696C12.5262 21.9897 12.2643 22 12 22C11.7357 22 11.4738 21.9897 11.2146 21.9696L11.3463 20.2747C11.5617 20.2915 11.7797 20.3 12 20.3C12.0843 20.3 12.1683 20.2987 12.252 20.2963C16.7194 20.1631 20.3 16.4997 20.3 12C20.3 7.4711 16.6727 3.78939 12.1648 3.7016ZM9.66454 2.27419L10.0601 3.92753C9.63412 4.02944 9.22095 4.16425 8.82331 4.32914L8.17212 2.75881C8.65189 2.55985 9.1505 2.39717 9.66454 2.27419ZM6.7744 3.47231L7.66401 4.92097C7.29257 5.14906 6.94023 5.40572 6.61011 5.68793L5.50545 4.39576C5.90272 4.05614 6.32692 3.74711 6.7744 3.47231ZM4.39576 5.50545L5.68793 6.61011C5.40572 6.94023 5.14906 7.29257 4.92097 7.66401L3.47231 6.7744C3.74711 6.32692 4.05614 5.90272 4.39576 5.50545ZM2.7588 8.17212L4.32914 8.82331C4.16425 9.22095 4.02944 9.63413 3.92753 10.0601L2.27419 9.66454C2.39717 9.1505 2.55985 8.65189 2.7588 8.17212ZM2.03039 11.2146C2.01025 11.4738 2 11.7357 2 12C2 12.2643 2.01025 12.5262 2.03039 12.7854L3.72528 12.6537C3.70855 12.4383 3.7 12.2203 3.7 12C3.7 11.7797 3.70855 11.5617 3.72528 11.3463L2.03039 11.2146ZM2.27419 14.3355L3.92753 13.9399C4.02944 14.3659 4.16425 14.779 4.32914 15.1767L2.75881 15.8279C2.55985 15.3481 2.39717 14.8495 2.27419 14.3355ZM3.47231 17.2256L4.92097 16.336C5.14906 16.7074 5.40572 17.0598 5.68793 17.3899L4.39576 18.4946C4.05614 18.0973 3.74711 17.6731 3.47231 17.2256ZM5.50545 19.6042L6.61011 18.3121C6.94023 18.5943 7.29257 18.8509 7.66401 19.079L6.7744 20.5277C6.32692 20.2529 5.90272 19.9439 5.50545 19.6042ZM8.17212 21.2412L8.82331 19.6709C9.22095 19.8358 9.63413 19.9706 10.0601 20.0725L9.66454 21.7258C9.1505 21.6028 8.65189 21.4401 8.17212 21.2412ZM15.7687 11.1706C16.3571 11.567 16.3571 12.433 15.7687 12.8294L11.0587 16.0019C10.3944 16.4493 9.5 15.9734 9.5 15.1725L9.5 8.82744C9.5 8.02658 10.3944 7.55064 11.0587 7.99804L15.7687 11.1706Z" fill="#6B7084"/>
</svg>
