<svg width="24" height="24" viewBox="0 0 24 24" fill="none" xmlns="http://www.w3.org/2000/svg">
<path fill-rule="evenodd" clip-rule="evenodd" d="M20.3965 3.39892C20.0646 3.06698 19.5264 3.06698 19.1945 3.39892L3.19447 19.3989C2.86252 19.7309 2.86252 20.2691 3.19447 20.601C3.52641 20.933 4.0646 20.933 4.39655 20.601L20.3965 4.601C20.7285 4.26906 20.7285 3.73087 20.3965 3.39892Z" fill="#6B7084"/>
<path fill-rule="evenodd" clip-rule="evenodd" d="M12 3.7C12.0551 3.7 12.11 3.70053 12.1648 3.7016C14.6389 3.74978 16.8478 4.88055 18.3373 6.6398L19.5428 5.43426C17.8705 3.51471 15.4775 2.23953 12.7854 2.03039C12.5262 2.01025 12.2643 2 12 2C11.7357 2 11.4738 2.01025 11.2146 2.03039L11.3463 3.72528C11.5617 3.70855 11.7797 3.7 12 3.7ZM20.5577 6.82356L19.312 8.06922C19.9423 9.23924 20.3 10.5779 20.3 12C20.3 16.4997 16.7194 20.1631 12.252 20.2963C12.1683 20.2987 12.0843 20.3 12 20.3C11.7797 20.3 11.5617 20.2915 11.3463 20.2747L11.2146 21.9696C11.4738 21.9897 11.7357 22 12 22C12.2643 22 12.5262 21.9897 12.7854 21.9696C17.9411 21.5691 22 17.2585 22 12C22 10.1053 21.473 8.33359 20.5577 6.82356ZM14.5962 10.3809L11.0587 7.99804C10.3944 7.55064 9.5 8.02658 9.5 8.82744L9.5 15.1725C9.5 15.2671 9.51246 15.3571 9.53553 15.4415L14.5962 10.3809ZM12.041 15.3402L15.9982 11.3831C16.3432 11.8219 16.2667 12.4939 15.7687 12.8294L12.041 15.3402ZM6.63977 18.3373L6.28666 18.6904L6.61011 18.3121C6.61998 18.3205 6.62986 18.3289 6.63977 18.3373ZM10.0601 3.92753L9.66454 2.27419C9.1505 2.39717 8.65189 2.55985 8.17212 2.75881L8.82331 4.32914C9.22095 4.16425 9.63412 4.02944 10.0601 3.92753ZM7.66401 4.92097L6.7744 3.47231C6.32692 3.74711 5.90272 4.05614 5.50545 4.39576L6.61011 5.68793C6.94023 5.40572 7.29257 5.14906 7.66401 4.92097ZM5.68793 6.61011L4.39576 5.50545C4.05614 5.90272 3.74711 6.32692 3.47231 6.7744L4.92097 7.66401C5.14906 7.29257 5.40572 6.94023 5.68793 6.61011ZM4.32914 8.82331L2.7588 8.17212C2.55985 8.65189 2.39717 9.1505 2.27419 9.66454L3.92753 10.0601C4.02944 9.63413 4.16425 9.22095 4.32914 8.82331ZM2 12C2 11.7357 2.01025 11.4738 2.03039 11.2146L3.72528 11.3463C3.70855 11.5617 3.7 11.7797 3.7 12C3.7 12.2203 3.70855 12.4383 3.72528 12.6537L2.03039 12.7854C2.01025 12.5262 2 12.2643 2 12ZM3.92753 13.9399L2.27419 14.3355C2.39717 14.8495 2.55985 15.3481 2.75881 15.8279L4.32914 15.1767C4.16425 14.779 4.02944 14.3659 3.92753 13.9399ZM4.92097 16.336L3.47231 17.2256C3.74711 17.6731 4.05614 18.0973 4.39576 18.4946L5.68793 17.3899C5.40572 17.0598 5.14906 16.7074 4.92097 16.336ZM8.82331 19.6709L8.17212 21.2412C8.65189 21.4401 9.1505 21.6028 9.66454 21.7258L10.0601 20.0725C9.63413 19.9706 9.22095 19.8358 8.82331 19.6709Z" fill="#6B7084"/>
</svg>
