<svg width="24" height="24" viewBox="0 0 24 24" fill="none" xmlns="http://www.w3.org/2000/svg">
<g clip-path="url(#clip0_1265_22414)">
<path d="M12 24C18.6274 24 24 18.6274 24 12C24 5.37258 18.6274 0 12 0C5.37258 0 0 5.37258 0 12C0 18.6274 5.37258 24 12 24Z" fill="#3355B5"/>
<path fill-rule="evenodd" clip-rule="evenodd" d="M12 5C8.13425 5 5 8.13425 5 12C5 15.8657 8.13425 19 12 19C15.8657 19 19 15.8657 19 12C19 10.1435 18.2625 8.36301 16.9497 7.05025C15.637 5.7375 13.8565 5 12 5ZM12 18.8658C8.20833 18.8658 5.13417 15.7917 5.13417 12C5.13417 8.20833 8.20833 5.13417 12 5.13417C15.7917 5.13417 18.8658 8.20833 18.8658 12C18.8658 13.8209 18.1425 15.5673 16.8549 16.8549C15.5673 18.1425 13.8209 18.8658 12 18.8658ZM13.9192 10.5417L13.9017 10.4775L13.8842 10.4134L13.8667 10.3434L13.8433 10.285L13.8258 10.2209L13.8025 10.1625L13.7733 10.0984L13.75 10.04L13.7208 9.98753L13.6917 9.9292L13.6625 9.8767L13.6275 9.8242L13.5983 9.77753L13.5633 9.72503L13.5283 9.6842L13.4875 9.63753L13.4525 9.5967L13.4175 9.55586L13.3767 9.52086L13.3358 9.48586L13.295 9.45086L13.2542 9.4217L13.2075 9.39253L13.1667 9.3692L13.12 9.34003L13.0792 9.32253L13.0325 9.2992L12.9858 9.2817L12.9392 9.2642L12.8867 9.25253L12.84 9.24086L12.7933 9.2292L12.7408 9.22336L12.6883 9.21753L12.6417 9.2117H12.4842L12.4317 9.21753L12.3792 9.22336L12.3208 9.2292L12.2683 9.24086L12.2158 9.25253L12.1633 9.2642L12.105 9.2817L12.0525 9.2992L11.9942 9.3167L11.9358 9.34003L11.8833 9.36336L11.825 9.39253L11.7725 9.41586L11.7142 9.44503L11.6558 9.48003L11.6033 9.5092L11.545 9.5442L11.4867 9.58503L11.4342 9.62003L11.3758 9.66086L11.3175 9.70753L11.2592 9.74836L11.2067 9.79503L11.1483 9.8417L11.0958 9.8942L11.0375 9.9467L10.9792 9.9992L10.9267 10.0575L10.8683 10.1159L10.8158 10.1742L10.7633 10.2325L10.705 10.2967L10.6525 10.3609L10.6 10.425L10.5475 10.495L10.495 10.565L10.4425 10.6409L10.3725 10.74L10.3025 10.845L10.2325 10.9559L10.1683 11.0609L10.1042 11.1775L10.04 11.2884L9.98168 11.3992L9.92335 11.5159L9.87085 11.6325L9.81835 11.7492L9.77168 11.8659L9.73085 11.9592L13.925 10.5884L13.9192 10.5417ZM10.1333 12.5892L13.8492 12.56L13.8667 12.4784L13.8842 12.3967L13.9017 12.315L13.9192 12.2275L13.9308 12.1459L13.9483 12.0642L13.96 11.9825L13.9658 11.9009L13.9775 11.8192L13.9833 11.7375L13.9892 11.6617L13.995 11.58L14.0008 11.4984V11.3292L10.1333 12.5892ZM5.32661 12C5.32661 8.31453 8.31444 5.3267 11.9999 5.3267C12.8763 5.3267 13.7441 5.49931 14.5537 5.83468C15.3634 6.17004 16.099 6.6616 16.7187 7.28127C17.3384 7.90095 17.8299 8.63661 18.1653 9.44626C18.5007 10.2559 18.6733 11.1237 18.6733 12C18.6733 15.6855 15.6854 18.6734 11.9999 18.6734C8.31444 18.6734 5.32661 15.6855 5.32661 12ZM15.6633 13.225L15.7799 12.5367L14.7591 12.5542V12.4784L14.7999 12.3034L14.8349 12.1284L14.8641 11.9534V11.0025L15.6108 10.7575L15.4124 10.0634L14.8291 10.25V9.21753L14.7999 9.13003L14.7649 9.04253L14.7299 8.96087L14.6949 8.8792L14.6599 8.79753L14.6191 8.7217L14.5783 8.64587L14.5374 8.57587L14.4908 8.50587L14.4441 8.4417L14.3974 8.37753L14.3508 8.31337L14.2983 8.25503L14.2458 8.1967L14.1933 8.1442L14.1408 8.0917L14.0824 8.04503L14.0241 7.99837L13.9658 7.95753L13.9074 7.9167L13.8433 7.8817L13.7791 7.8467L13.7149 7.81753L13.6508 7.78837H12.2449L12.1633 7.81753L12.0816 7.85253L11.9999 7.88753L11.8949 7.9167L11.8191 7.98087L11.7316 8.02753L11.6441 8.0742L11.5566 8.1267L11.4691 8.1792L11.3816 8.23753L11.2941 8.3017L11.2066 8.36587L11.1191 8.43003L11.0316 8.50003L10.9674 8.5642L10.8858 8.64003L10.8041 8.71587L10.7224 8.7917L10.6408 8.87337L10.5591 8.95503L10.4774 9.0367L10.4016 9.1242L10.3258 9.2117L10.2499 9.2992L10.1508 9.38087L10.0749 9.4742L10.0049 9.56753L9.93494 9.6667L9.87077 9.77753L9.80077 9.8767L9.73077 9.97587L9.66661 10.0809L9.60244 10.1917L9.53827 10.2967L9.47411 10.4017L9.40994 10.5125L9.35161 10.6234L9.29327 10.7342L9.23494 10.845L9.17661 10.9559L9.12411 11.0667L9.07161 11.1834L9.01911 11.3L8.96661 11.4167L8.91994 11.5334L8.87327 11.65L8.82661 11.7667L8.77994 11.8834L8.73911 12L8.68077 12.1109L8.63994 12.2334V12.3092L7.65994 12.63L7.85827 13.3242L7.97494 13.2834H8.28994V15.115L9.37494 14.3625V13.2834L13.6158 13.2484V13.3184L13.5866 13.4L13.5516 13.4817L13.5166 13.5634L13.4816 13.645L13.4466 13.7267L13.4116 13.8084L13.3708 13.89L13.3299 13.9717L13.2891 14.0534L13.2483 14.135L13.2074 14.2109L13.1608 14.2867L13.1141 14.3625L13.0674 14.4384L13.0208 14.5142L12.9741 14.59L12.9216 14.6659L12.8691 14.7417L13.4116 15.6517L13.4641 15.5759L13.5166 15.5L13.6333 15.3484L13.7324 15.1909L13.8258 15.0334L13.9191 14.8759L14.0066 14.7125L14.0941 14.5492L14.1758 14.38L14.2574 14.2109L14.3333 14.0417L14.3858 13.8667L14.4558 13.6917L14.5199 13.5167L14.5841 13.3417L14.6191 13.225H15.6633Z" fill="white"/>
</g>
<defs>
<clipPath id="clip0_1265_22414">
<rect width="24" height="24" fill="white"/>
</clipPath>
</defs>
</svg>
