<svg width="24" height="24" viewBox="0 0 24 24" fill="none" xmlns="http://www.w3.org/2000/svg">
<g clip-path="url(#clip0_1265_22410)">
<path d="M12 24C18.6274 24 24 18.6274 24 12C24 5.37258 18.6274 0 12 0C5.37258 0 0 5.37258 0 12C0 18.6274 5.37258 24 12 24Z" fill="#F19F13"/>
<path d="M16.2313 11.1406H19.275L19.5 9.89062H16.5563C15.9759 9.90868 15.4134 10.0955 14.9375 10.4281C14.7625 9.80313 13.0625 9.89062 13.0625 9.89062L13.2875 8.64062H12.625L12.4 9.89062H11.7062L11.9 8.64062H11.1812L10.9188 9.89062H10.175L9.79375 11.8406L9.2875 9.92813H7.625L4.5 14.5219H7.075L7.3375 13.3031H6.8125L8.3125 11.1094L8.875 13.3156H8.3125L8.06875 14.5219H9.98125L9.825 15.3594H10.575L10.75 14.5219H11.375L11.2188 15.3594H12L12.1562 14.5219H13.1312C13.5796 14.471 13.9945 14.2602 14.3 13.9281C14.6641 14.2967 15.1571 14.5095 15.675 14.5219H18.6187L18.8125 13.3031H16.1687C14.35 13.2719 15.125 11.1281 16.2313 11.1406ZM12.925 13.2719H10.975L11.1312 12.6781H13.0063C13.4813 12.7094 13.325 13.2719 12.925 13.2719ZM13.2188 11.6719H11.2688L11.425 11.0781H13.3C13.775 11.1094 13.6 11.6969 13.2188 11.6969V11.6719Z" fill="white"/>
</g>
<defs>
<clipPath id="clip0_1265_22410">
<rect width="24" height="24" fill="white"/>
</clipPath>
</defs>
</svg>
