<svg viewBox="0 0 24 24" fill="none" xmlns="http://www.w3.org/2000/svg">
<path fill-rule="evenodd" clip-rule="evenodd" d="M20.5 13.2228C20.5 18.0627 16.5751 22 11.7504 22C6.9249 22 3 18.0627 3 13.2228C3 12.7619 3.37158 12.3889 3.83064 12.3889C4.28886 12.3889 4.66127 12.7619 4.66127 13.2228C4.66127 17.1434 7.84135 20.3337 11.7504 20.3337C15.6587 20.3337 18.8387 17.1434 18.8387 13.2228C18.8387 9.33906 15.667 6.17968 11.7679 6.17968H11.6579L12.7185 7.24368C13.0434 7.56907 13.0434 8.09688 12.7185 8.42228C12.5569 8.58539 12.3436 8.66653 12.1312 8.66653C11.9187 8.66653 11.7063 8.58539 11.5438 8.42228L9.05189 5.92288C8.72697 5.59665 8.72697 5.06967 9.05189 4.74428L11.5438 2.24404C11.8687 1.91865 12.3944 1.91865 12.7185 2.24404C13.0434 2.56943 13.0434 3.09725 12.7185 3.42264L11.6313 4.51341H11.7679C16.5834 4.51341 20.5 8.41977 20.5 13.2228Z" fill="currentColor"/>
</svg>