<svg viewBox="0 0 24 24" fill="none" xmlns="http://www.w3.org/2000/svg">
<g clip-path="url(#clip0_1265_22403)">
<path d="M12 24C18.6274 24 24 18.6274 24 12C24 5.37258 18.6274 0 12 0C5.37258 0 0 5.37258 0 12C0 18.6274 5.37258 24 12 24Z" fill="#1E1E1E"/>
<path d="M11.9997 16.8933C8.40978 16.8933 5.5 15.8564 5.5 14.4666C5.5 13.7414 6.29217 13.0883 7.56094 12.6272C8.55147 13.2629 10.2125 13.5888 12.0963 13.5888C13.9357 13.5888 15.5612 13.1914 16.5595 12.5828C17.7568 13.0381 18.5 13.6738 18.5 14.3745C18.5 15.7663 15.5902 16.8933 11.9997 16.8933Z" fill="white"/>
<path d="M12.0383 13.2765C9.3166 13.2765 7.11011 12.4232 7.11011 11.3702C7.11011 10.7867 7.79022 10.2637 8.85675 9.91528C9.61801 10.3127 10.7586 10.5664 12.0383 10.5664C13.318 10.5664 14.4586 10.3127 15.2199 9.91593C16.2884 10.2656 16.9665 10.7867 16.9665 11.3702C16.9685 12.4232 14.7613 13.2765 12.0383 13.2765Z" fill="white"/>
<path d="M12.0204 10.2495C9.91627 10.2495 8.21021 9.54491 8.21021 8.67803C8.21021 7.81179 9.91692 7.10657 12.0204 7.10657C14.1238 7.10657 15.8305 7.81179 15.8305 8.67803C15.8305 9.54491 14.1238 10.2495 12.0204 10.2495Z" fill="white"/>
</g>
<defs>
<clipPath id="clip0_1265_22403">
<rect width="24" height="24" fill="white"/>
</clipPath>
</defs>
</svg>