<svg width="24" height="24" viewBox="0 0 24 24" fill="none" xmlns="http://www.w3.org/2000/svg">
<g clip-path="url(#clip0_1265_22397)">
<path d="M12 24C18.6274 24 24 18.6274 24 12C24 5.37258 18.6274 0 12 0C5.37258 0 0 5.37258 0 12C0 18.6274 5.37258 24 12 24Z" fill="#516AFF"/>
<path d="M13.4616 9.71823L14.8975 10.5386V6.4359L12.0257 5L7.56396 7.51282V16.4356L12.0257 19L16.4359 16.3847V11.9745L12.1791 9.41016L10.7432 10.1281L15 12.6409L15.0509 15.6668L12.0257 17.3592L8.9483 15.6152V8.23077L12.0257 6.53837L13.4616 7.30788V9.71823Z" fill="white"/>
<path d="M11.8716 12.1796L12.8461 11.6666L13.923 12.3336L10.7432 14.1285V10.4363L11.8716 11.1027" fill="white"/>
</g>
<defs>
<clipPath id="clip0_1265_22397">
<rect width="24" height="24" fill="white"/>
</clipPath>
</defs>
</svg>
