<svg width="24" height="24" viewBox="0 0 24 24" fill="none" xmlns="http://www.w3.org/2000/svg">
<path fill-rule="evenodd" clip-rule="evenodd" d="M21.1674 11.1663C21.1632 11.1671 21.1574 11.1663 21.1515 11.1663H18.6536V17.833H21.1515C21.6113 17.833 21.9841 18.2066 21.9841 18.6671V21.1668C21.9841 21.6264 21.6113 22 21.1515 22H2.83305C2.37327 22 2.00043 21.6264 2.00043 21.1668V18.6671C2.00043 18.2066 2.37327 17.833 2.83305 17.833H5.3309V11.1663H2.83305C2.48111 11.1663 2.16679 10.9448 2.04808 10.613C1.93021 10.2812 2.03387 9.91101 2.30639 9.68787L11.4786 2.18794C11.7854 1.93722 12.2259 1.93722 12.5327 2.18877L21.5862 9.61266C21.8345 9.7564 22 10.0255 22 10.3331C22 10.7927 21.628 11.1663 21.1674 11.1663ZM12.8245 17.833H16.9884V11.1663H12.8245V17.833ZM3.66567 20.3335H20.3189V19.5003H3.66567V20.3335ZM11.1592 17.833V11.1663H6.9719V17.833H11.1592ZM12.0044 3.90956L5.16872 9.49983H18.8217L12.0044 3.90956Z" fill="#6B7084"/>
</svg>
