<svg width="24" height="24" viewBox="0 0 24 24" fill="none" xmlns="http://www.w3.org/2000/svg">
<path fill-rule="evenodd" clip-rule="evenodd" d="M21.1667 19H20.3333V20.6667C20.3333 21.1267 19.9608 21.5 19.5 21.5H12C11.5392 21.5 11.1667 21.1267 11.1667 20.6667V18.1667C11.1667 17.7067 11.5392 17.3333 12 17.3333H12.8333V16.5H11.1667C10.7058 16.5 10.3333 16.1267 10.3333 15.6667V13.1667C10.3333 12.7067 10.7058 12.3333 11.1667 12.3333H11.5833H12.4167H18.6667C19.1275 12.3333 19.5 12.7067 19.5 13.1667V14.8333H21.1667C21.6275 14.8333 22 15.2067 22 15.6667V18.1667C22 18.6267 21.6275 19 21.1667 19ZM12.8333 19.8333H18.6667V19H13.6667H12.8333V19.8333ZM17.8333 14H12.4167H12V14.8333H13.6667H17.8333V14ZM20.3333 16.5H18.6667H14.5V17.3333H19.5H20.3333V16.5ZM21.1667 14.0008C20.7058 14.0008 20.3333 13.6275 20.3333 13.1675V5.66667H3.66667V14.8333H8.66667C9.1275 14.8333 9.5 15.2067 9.5 15.6667C9.5 16.1267 9.1275 16.5 8.66667 16.5H2.83333C2.3725 16.5 2 16.1267 2 15.6667V4.83333C2 4.37333 2.3725 4 2.83333 4H21.1667C21.6275 4 22 4.37333 22 4.83333V13.1675C22 13.6275 21.6275 14.0008 21.1667 14.0008ZM8.76334 10.8142C8.73584 10.62 8.72167 10.42 8.72167 10.2167C8.72167 8.13667 10.205 6.445 12.0275 6.445C13.8508 6.445 15.3333 8.13667 15.3333 10.2167C15.3333 10.4375 15.3167 10.655 15.2842 10.8667C15.2217 11.2783 14.8658 11.5733 14.4617 11.5733C14.42 11.5733 14.3775 11.57 14.335 11.5633C13.88 11.4942 13.5675 11.0692 13.6375 10.6133C13.6567 10.485 13.6667 10.3517 13.6667 10.2167C13.6667 9.21584 13.1192 8.37917 12.3892 8.16667H11.6658C10.9358 8.37917 10.3883 9.21584 10.3883 10.2167C10.3883 10.3417 10.3975 10.4642 10.4142 10.5833C10.4775 11.04 10.16 11.4608 9.70417 11.5242C9.24751 11.5858 8.82667 11.27 8.76334 10.8142Z" fill="#6B7084"/>
</svg>
