<svg viewBox="0 0 24 24" fill="none" xmlns="http://www.w3.org/2000/svg">
<path fill-rule="evenodd" clip-rule="evenodd" d="M21.1667 18.5H2.83333C2.3725 18.5 2 18.1267 2 17.6667V6.83333C2 6.37333 2.3725 6 2.83333 6H21.1667C21.6275 6 22 6.37333 22 6.83333V17.6667C22 18.1267 21.6275 18.5 21.1667 18.5ZM20.3333 7.66667H3.66667V16.8333H20.3333V7.66667ZM5.33333 14.3333H6.16667C6.6275 14.3333 7 14.7067 7 15.1667C7 15.6267 6.6275 16 6.16667 16H5.33333C4.8725 16 4.5 15.6267 4.5 15.1667C4.5 14.7067 4.8725 14.3333 5.33333 14.3333ZM12.0283 8.445C13.8508 8.445 15.3333 10.1358 15.3333 12.2158C15.3333 14.2958 13.8508 15.9883 12.0283 15.9883C10.2058 15.9883 8.72167 14.2958 8.72167 12.2158C8.72167 10.1358 10.2058 8.445 12.0283 8.445ZM12.0283 14.3208C12.9317 14.3208 13.6667 13.3767 13.6667 12.2158C13.6667 11.0558 12.9317 10.1108 12.0283 10.1108C11.1242 10.1108 10.3883 11.0558 10.3883 12.2158C10.3883 13.3767 11.1242 14.3208 12.0283 14.3208ZM17.8333 8.5H18.6667C19.1275 8.5 19.5 8.87333 19.5 9.33333C19.5 9.79333 19.1275 10.1667 18.6667 10.1667H17.8333C17.3725 10.1667 17 9.79333 17 9.33333C17 8.87333 17.3725 8.5 17.8333 8.5Z" fill="currentColor"/>
</svg>