<svg width="24" height="24" viewBox="0 0 24 24" fill="none" xmlns="http://www.w3.org/2000/svg">
<path fill-rule="evenodd" clip-rule="evenodd" d="M21.1667 21.5H2.83333C2.3725 21.5 2 21.1267 2 20.6667V9.83333C2 9.37333 2.3725 9 2.83333 9H21.1667C21.6275 9 22 9.37333 22 9.83333V20.6667C22 21.1267 21.6275 21.5 21.1667 21.5ZM20.3333 10.6667H3.66667V19.8333H20.3333V10.6667ZM5.33333 17.3333H6.16667C6.6275 17.3333 7 17.7067 7 18.1667C7 18.6267 6.6275 19 6.16667 19H5.33333C4.8725 19 4.5 18.6267 4.5 18.1667C4.5 17.7067 4.8725 17.3333 5.33333 17.3333ZM12.0283 11.445C13.8508 11.445 15.3333 13.1367 15.3333 15.2158C15.3333 17.2958 13.8508 18.9875 12.0283 18.9875C10.2058 18.9875 8.72165 17.2958 8.72165 15.2158C8.72165 13.1367 10.2058 11.445 12.0283 11.445ZM12.0283 17.3208C12.9316 17.3208 13.6666 16.3767 13.6666 15.2158C13.6666 14.0558 12.9316 13.1117 12.0283 13.1117C11.1241 13.1117 10.3883 14.0558 10.3883 15.2158C10.3883 16.3767 11.1241 17.3208 12.0283 17.3208ZM17.8333 11.5H18.6667C19.1275 11.5 19.5 11.8733 19.5 12.3333C19.5 12.7933 19.1275 13.1667 18.6667 13.1667H17.8333C17.3725 13.1667 17 12.7933 17 12.3333C17 11.8733 17.3725 11.5 17.8333 11.5ZM19.5 8.16667H4.5C4.03917 8.16667 3.66667 7.79333 3.66667 7.33333C3.66667 6.87333 4.03917 6.5 4.5 6.5H19.5C19.9608 6.5 20.3333 6.87333 20.3333 7.33333C20.3333 7.79333 19.9608 8.16667 19.5 8.16667ZM17.8333 5.66667H6.16667C5.70583 5.66667 5.33333 5.29333 5.33333 4.83333C5.33333 4.37333 5.70583 4 6.16667 4H17.8333C18.2942 4 18.6667 4.37333 18.6667 4.83333C18.6667 5.29333 18.2942 5.66667 17.8333 5.66667Z" fill="#6B7084"/>
</svg>
