<svg width="24" height="24" viewBox="0 0 24 24" fill="none" xmlns="http://www.w3.org/2000/svg">
<path fill-rule="evenodd" clip-rule="evenodd" d="M21.0107 22H18.5315C18.0743 22 17.8361 21.647 17.8361 21.1869V11.1493C17.8361 10.6892 18.0743 9.50062 18.5315 9.50062H21.0107C21.4679 9.50062 22 9.85278 22 10.3128V21.1869C22 21.647 21.4679 22 21.0107 22ZM20.3345 11.1493H19.5017V20.3505H20.3345V11.1493ZM21.8376 2.83396V6.16729C21.8376 6.62735 21.4679 7.00042 21.0107 7.00042C20.5543 7.00042 20.1845 6.62735 20.1845 6.16729V4.84483L14.983 10.0895C14.684 10.3906 14.2102 10.4157 13.8821 10.1506L10.3269 7.28398L3.41073 14.256C3.24917 14.4191 3.03764 14.5002 2.82695 14.5002C2.61459 14.5002 2.4039 14.4191 2.24234 14.256C1.91922 13.9306 1.91922 13.4028 2.24234 13.0782L9.68155 5.57758C9.97968 5.27645 10.4535 5.25136 10.7825 5.51652L14.3368 8.3831L19.0153 3.66708H17.7045C17.2482 3.66708 16.8784 3.29402 16.8784 2.83396C16.8784 2.3739 17.2482 2 17.7045 2H21.0107C21.0173 2 21.0223 2.00335 21.0281 2.00418C21.1297 2.00586 21.2313 2.02509 21.3263 2.06441C21.5286 2.14889 21.6902 2.31117 21.7735 2.51527C21.816 2.61731 21.8376 2.72522 21.8376 2.83396ZM3.65307 16.1665H6.13308C6.58944 16.1665 6.9592 16.5404 6.9592 17.0004V21.1669C6.9592 21.6278 6.58944 22 6.13308 22H3.65307C3.19587 22 2.82695 21.6278 2.82695 21.1669V17.0004C2.82695 16.5404 3.19587 16.1665 3.65307 16.1665ZM4.48001 20.3337H5.30613V17.8335H4.48001V20.3337ZM8.61226 12.0008H11.0923C11.5486 12.0008 11.9184 12.3731 11.9184 12.834V21.1669C11.9184 21.6278 11.5486 22 11.0923 22H8.61226C8.15589 22 7.84277 21.647 7.84277 21.187V12.8223C7.84277 12.3622 8.15589 12.0008 8.61226 12.0008ZM9.43922 20.3338H10.2653V13.6671H9.43922V20.3338ZM13.5714 13.6671H16.0515C16.5087 13.6671 17.0033 14.0351 17.0033 14.4952V21.187C17.0033 21.647 16.5087 22 16.0515 22H13.5714C13.1151 22 12.8394 21.647 12.8394 21.187V14.4952C12.8394 14.0351 13.1151 13.6671 13.5714 13.6671ZM14.3984 20.3337L15.3378 20.3505V15.3317L14.3984 15.3342V20.3337Z" fill="#6B7084"/>
</svg>
