<svg width="24" height="24" viewBox="0 0 24 24" fill="none" xmlns="http://www.w3.org/2000/svg">
<path fill-rule="evenodd" clip-rule="evenodd" d="M20.3333 22H16.1667C15.7058 22 15.3333 21.6267 15.3333 21.1667V2.83333C15.3333 2.37333 15.7058 2 16.1667 2H20.3333C20.7942 2 21.1667 2.37333 21.1667 2.83333V21.1667C21.1667 21.6267 20.7942 22 20.3333 22ZM19.5 3.66667H17V20.3333H19.5V3.66667ZM13.6667 22H9.5C9.03917 22 8.66667 21.6267 8.66667 21.1667V12.8333C8.66667 12.3733 9.03917 12 9.5 12H13.6667C14.1275 12 14.5 12.3733 14.5 12.8333V21.1667C14.5 21.6267 14.1275 22 13.6667 22ZM12.8333 13.6667H10.3333V20.3333H12.8333V13.6667ZM7 22H2.83333C2.3725 22 2 21.6267 2 21.1667V8.66667C2 8.20667 2.3725 7.83333 2.83333 7.83333H7C7.46083 7.83333 7.83333 8.20667 7.83333 8.66667V21.1667C7.83333 21.6267 7.46083 22 7 22ZM6.16667 9.5H3.66667V20.3333H6.16667V9.5Z" fill="#6B7084"/>
</svg>
