<svg viewBox="0 0 24 24" fill="none" xmlns="http://www.w3.org/2000/svg">
<path fill-rule="evenodd" clip-rule="evenodd" d="M22 13.6664C22 13.6673 22 13.6673 22 13.6673C22 13.7752 21.9773 13.8831 21.9354 13.9851C21.8934 14.0872 21.8329 14.1792 21.7557 14.2561C21.7548 14.257 21.7532 14.2578 21.7515 14.2586C21.6759 14.3339 21.5852 14.3941 21.4853 14.4351C21.3829 14.4778 21.2754 14.4995 21.1663 14.4995H17.8331C17.373 14.4995 17.0002 14.1265 17.0002 13.6664C17.0002 13.2064 17.373 12.8333 17.8331 12.8333H19.1546L13.6049 7.28345L10.0207 10.1508C9.68985 10.416 9.21212 10.39 8.91071 10.0889L2.24432 3.42239C1.91856 3.09701 1.91856 2.56921 2.24432 2.24466C2.56925 1.91845 3.09735 1.91845 3.42227 2.24466L9.5614 8.38339L13.1456 5.51603C13.4773 5.25087 13.9558 5.2768 14.2556 5.57709L20.3334 11.6548V10.3332C20.3334 9.87311 20.7062 9.50005 21.1663 9.50005C21.6272 9.50005 22 9.87311 22 10.3332V13.6664ZM2.83288 9.50005H5.33319C5.79413 9.50005 6.16691 9.87311 6.16691 10.3332V21.1669C6.16691 21.6269 5.79413 22 5.33319 22H2.83288C2.37278 22 2 21.6269 2 21.1669V10.3332C2 9.87311 2.37278 9.50005 2.83288 9.50005ZM3.66659 20.3329H4.49947V11.1663H3.66659V20.3329ZM7.83351 13.6664H10.333C10.7939 13.6664 11.1667 14.0395 11.1667 14.4995V21.1669C11.1667 21.6269 10.7939 22 10.333 22H7.83351C7.37258 22 6.9998 21.6269 6.9998 21.1669V14.4995C6.9998 14.0395 7.37258 13.6664 7.83351 13.6664ZM8.66638 20.333H9.50009V15.3335H8.66638V20.333ZM12.8333 12.0002H15.3336C15.7937 12.0002 16.1665 12.3733 16.1665 12.8333V21.1669C16.1665 21.6269 15.7937 22 15.3336 22H12.8333C12.3724 22 11.9996 21.6269 11.9996 21.1669V12.8333C11.9996 12.3733 12.3724 12.0002 12.8333 12.0002ZM13.6662 20.333H14.4999V13.6664H13.6662V20.333ZM17.8331 16.1666H20.3334C20.7935 16.1666 21.1663 16.5396 21.1663 16.9997V21.1669C21.1663 21.6269 20.7935 22 20.3334 22H17.8331C17.373 22 17.0984 21.6487 17.0984 21.1886V17.0072C17.0984 16.5463 17.373 16.1666 17.8331 16.1666ZM18.6668 20.3329H19.4997V17.8336H18.6668V20.3329Z" fill="currentColor"/>
</svg>