<svg viewBox="0 0 24 24" fill="none" xmlns="http://www.w3.org/2000/svg">
<path fill-rule="evenodd" clip-rule="evenodd" d="M21.756 15.0714C21.5928 15.2339 21.3796 15.3147 21.1663 15.3147C20.953 15.3147 20.7397 15.2339 20.5774 15.0714L16.8653 11.3642C16.1576 11.7484 15.3605 11.9858 14.4998 11.9858C11.7429 11.9858 9.50038 9.74602 9.50038 6.99292C9.50038 4.23981 11.7429 2 14.4998 2C17.2567 2 19.5001 4.23981 19.5001 6.99292C19.5001 8.28114 18.9949 9.44605 18.1894 10.3335L21.756 13.894C22.0813 14.219 22.0813 14.7456 21.756 15.0714ZM14.4998 3.66402C12.6613 3.66402 11.1666 5.15723 11.1666 6.99291C11.1666 8.82859 12.6613 10.3218 14.4998 10.3218C16.3383 10.3218 17.833 8.82859 17.833 6.99291C17.833 5.15723 16.3383 3.66402 14.4998 3.66402ZM13.6667 13.6507C14.1268 13.6507 14.4998 14.0232 14.4998 14.4831V21.1401C14.4998 21.6 14.1268 21.9725 13.6667 21.9725H9.5004C9.03952 21.9725 8.66646 21.6 8.66646 21.1401V14.4831C8.66646 14.0232 9.03952 13.6507 9.5004 13.6507H13.6667ZM10.3335 20.3085L12.8989 20.3351V15.3355L10.3335 15.3147V20.3085ZM7.00026 21.9725H2.8331C2.37305 21.9725 2 21.6 2 21.1401V9.48937C2 9.02941 2.37305 8.65694 2.8331 8.65694H7.00026C7.46031 8.65694 7.83336 9.02941 7.83336 9.48937V21.1401C7.83336 21.6 7.46031 21.9725 7.00026 21.9725ZM6.2073 10.336L3.66702 10.3218V20.3085L6.2073 20.3351V10.336ZM16.1669 16.9796H20.3332C20.7941 16.9796 21.1663 17.352 21.1663 17.8112V21.1676C21.1663 21.6275 20.7941 22 20.3332 22H16.1669C15.706 22 15.3329 21.6275 15.3329 21.1676V17.8112C15.3329 17.352 15.706 16.9796 16.1669 16.9796ZM16.9999 20.3351H19.5904V18.6686L16.9999 18.6436V20.3351Z" fill="currentColor"/>
</svg>