<svg width="24" height="24" viewBox="0 0 24 24" fill="none" xmlns="http://www.w3.org/2000/svg">
<path fill-rule="evenodd" clip-rule="evenodd" d="M21.1667 20C20.7058 20 20.3333 19.6267 20.3333 19.1667V5.83333C20.3333 5.37333 20.7058 5 21.1667 5C21.6275 5 22 5.37333 22 5.83333V19.1667C22 19.6267 21.6275 20 21.1667 20ZM18.6667 20C18.2058 20 17.8333 19.6267 17.8333 19.1667V5.83333C17.8333 5.37333 18.2058 5 18.6667 5C19.1275 5 19.5 5.37333 19.5 5.83333V19.1667C19.5 19.6267 19.1275 20 18.6667 20ZM16.1667 20H15.3333C14.8725 20 14.5 19.6267 14.5 19.1667V5.83333C14.5 5.37333 14.8725 5 15.3333 5H16.1667C16.6275 5 17 5.37333 17 5.83333V19.1667C17 19.6267 16.6275 20 16.1667 20ZM12.8333 20C12.3725 20 12 19.6267 12 19.1667V5.83333C12 5.37333 12.3725 5 12.8333 5C13.2942 5 13.6667 5.37333 13.6667 5.83333V19.1667C13.6667 19.6267 13.2942 20 12.8333 20ZM9.5 20H8.66667C8.20583 20 7.83333 19.6267 7.83333 19.1667V5.83333C7.83333 5.37333 8.20583 5 8.66667 5H9.5C9.96083 5 10.3333 5.37333 10.3333 5.83333V19.1667C10.3333 19.6267 9.96083 20 9.5 20ZM5.33333 20C4.8725 20 4.5 19.6267 4.5 19.1667V5.83333C4.5 5.37333 4.8725 5 5.33333 5C5.79417 5 6.16667 5.37333 6.16667 5.83333V19.1667C6.16667 19.6267 5.79417 20 5.33333 20ZM2.83333 20C2.3725 20 2 19.6267 2 19.1667V5.83333C2 5.37333 2.3725 5 2.83333 5C3.29417 5 3.66667 5.37333 3.66667 5.83333V19.1667C3.66667 19.6267 3.29417 20 2.83333 20Z" fill="#6B7084"/>
</svg>
