<svg width="24" height="24" viewBox="0 0 24 24" fill="none" xmlns="http://www.w3.org/2000/svg">
<path fill-rule="evenodd" clip-rule="evenodd" d="M20.0558 20.6667H17.8333C17.3725 20.6667 17 20.2933 17 19.8333C17 19.3733 17.3725 19 17.8333 19H20.0558C20.2067 19 20.3333 18.8725 20.3333 18.7217V16.5C20.3333 16.04 20.7058 15.6667 21.1667 15.6667C21.6275 15.6667 22 16.04 22 16.5V18.7217C22 19.7942 21.1275 20.6667 20.0558 20.6667ZM21.1667 9C20.7058 9 20.3333 8.62667 20.3333 8.16667V5.945C20.3333 5.79417 20.2067 5.66667 20.0558 5.66667H17.8333C17.3725 5.66667 17 5.29333 17 4.83333C17 4.37333 17.3725 4 17.8333 4H20.0558C21.1275 4 22 4.8725 22 5.945V8.16667C22 8.62667 21.6275 9 21.1667 9ZM17.8333 8.16667V16.5C17.8333 16.96 17.4608 17.3333 17 17.3333H16.1667C15.7058 17.3333 15.3333 16.96 15.3333 16.5V8.16667C15.3333 7.70667 15.7058 7.33333 16.1667 7.33333H17C17.4608 7.33333 17.8333 7.70667 17.8333 8.16667ZM13.6667 17.3333C13.2058 17.3333 12.8333 16.96 12.8333 16.5V8.16667C12.8333 7.70667 13.2058 7.33333 13.6667 7.33333C14.1275 7.33333 14.5 7.70667 14.5 8.16667V16.5C14.5 16.96 14.1275 17.3333 13.6667 17.3333ZM10.3333 17.3333H9.5C9.03917 17.3333 8.66667 16.96 8.66667 16.5V8.16667C8.66667 7.70667 9.03917 7.33333 9.5 7.33333H10.3333C10.7942 7.33333 11.1667 7.70667 11.1667 8.16667V16.5C11.1667 16.96 10.7942 17.3333 10.3333 17.3333ZM7 17.3333C6.53917 17.3333 6.16667 16.96 6.16667 16.5V8.16667C6.16667 7.70667 6.53917 7.33333 7 7.33333C7.46083 7.33333 7.83333 7.70667 7.83333 8.16667V16.5C7.83333 16.96 7.46083 17.3333 7 17.3333ZM6.16667 5.66667H3.94417C3.79333 5.66667 3.66667 5.79417 3.66667 5.945V8.16667C3.66667 8.62667 3.29417 9 2.83333 9C2.3725 9 2 8.62667 2 8.16667V5.945C2 4.8725 2.8725 4 3.94417 4H6.16667C6.6275 4 7 4.37333 7 4.83333C7 5.29333 6.6275 5.66667 6.16667 5.66667ZM2.83333 15.6667C3.29417 15.6667 3.66667 16.04 3.66667 16.5V18.7217C3.66667 18.8725 3.79333 19 3.94417 19H6.16667C6.6275 19 7 19.3733 7 19.8333C7 20.2933 6.6275 20.6667 6.16667 20.6667H3.94417C2.8725 20.6667 2 19.7942 2 18.7217V16.5C2 16.04 2.3725 15.6667 2.83333 15.6667Z" fill="#6B7084"/>
</svg>
