<svg viewBox="0 0 24 24" fill="none" xmlns="http://www.w3.org/2000/svg">
<path fill-rule="evenodd" clip-rule="evenodd" d="M21.1412 12.2021C21.0298 12.649 20.5757 12.9194 20.1316 12.8089C19.6843 12.6968 19.4128 12.2448 19.5251 11.7987L20.4341 9.46288H3.6782L5.94444 18.6674H12.8336C13.2944 18.6674 13.6664 19.0398 13.6664 19.5001C13.6664 19.9604 13.2944 20.3337 12.8336 20.3337H5.27839C4.88881 20.3337 4.55035 20.0634 4.46489 19.6834L2.02021 8.85108C1.96491 8.60335 2.0244 8.34474 2.18274 8.14723C2.34108 7.94888 2.58069 7.83422 2.83371 7.83422H6.38763L7.8655 2.60763C7.98949 2.16322 8.4486 1.90629 8.89431 2.03182C9.33666 2.15736 9.59387 2.61767 9.4682 3.0604L8.11851 7.83422H15.8815L14.5318 3.0604C14.4062 2.61767 14.6634 2.15736 15.1066 2.03182C15.5456 1.90712 16.0097 2.16322 16.1345 2.60763L17.6132 7.83422H21.1663C21.4227 7.83422 21.6656 7.95223 21.8232 8.15476C21.9815 8.35646 22.0376 8.62009 21.9748 8.86866L21.1412 12.2021ZM16.7562 18.0782L17.9207 19.2423V15.3213C17.9207 14.861 18.2064 14.5003 18.6664 14.5003C19.1272 14.5003 19.5 14.8736 19.5 15.3339V19.1553L20.5774 18.0782C20.9033 17.7526 21.4303 17.7526 21.7562 18.0782C22.0812 18.4029 22.0812 18.931 21.7562 19.2566L19.257 21.7539C19.18 21.8318 19.0878 21.8937 18.9847 21.9364C18.8825 21.9782 18.7753 22 18.6664 22C18.4536 22 18.2399 21.9188 18.0774 21.7556L15.5774 19.2566C15.2524 18.931 15.2524 18.4029 15.5774 18.0782C15.9033 17.7526 16.4303 17.7526 16.7562 18.0782Z" fill="currentColor"/>
</svg>