<svg viewBox="0 0 24 24" fill="none" xmlns="http://www.w3.org/2000/svg">
<path fill-rule="evenodd" clip-rule="evenodd" d="M21.1412 12.2021C21.0297 12.6482 20.5756 12.9194 20.1316 12.8089C19.685 12.6968 19.4127 12.2448 19.525 11.7979L20.4357 9.46455H3.67923L5.94386 18.6665H12.8333C13.2933 18.6665 13.6669 19.0398 13.6669 19.5001C13.6669 19.9604 13.2933 20.3337 12.8333 20.3337H5.27779C4.88821 20.3337 4.54973 20.0634 4.46427 19.6834L2.02033 8.85109C1.96504 8.60336 2.02369 8.34391 2.18203 8.14723C2.34038 7.94888 2.58 7.83339 2.83302 7.83339H6.38707L7.865 2.6068C7.98899 2.16323 8.44812 1.90629 8.89301 2.03183C9.33621 2.15737 9.59343 2.61768 9.46775 3.06041L8.11802 7.83339H15.8813L14.5316 3.06041C14.4059 2.61768 14.6631 2.15737 15.1063 2.03183C15.5453 1.90713 16.0095 2.16323 16.1352 2.6068L17.6131 7.83339H21.1663C21.4227 7.83339 21.6656 7.95139 21.8231 8.15393C21.9815 8.35646 22.0376 8.6201 21.9748 8.86866L21.1412 12.2021ZM18.0764 14.7455C18.1534 14.6685 18.2456 14.6066 18.3487 14.5639C18.4458 14.5246 18.5481 14.5053 18.652 14.5028C18.657 14.5028 18.6612 14.5003 18.6662 14.5003C18.6729 14.5003 18.6788 14.5037 18.6846 14.5037C18.7868 14.5062 18.8882 14.5246 18.9846 14.5639C19.0876 14.6066 19.1798 14.6685 19.2569 14.7464L21.7561 17.2438C22.0812 17.5693 22.0812 18.0974 21.7561 18.4221C21.5927 18.5853 21.3799 18.6665 21.1663 18.6665C20.9535 18.6665 20.7398 18.5853 20.5773 18.4221L19.4998 17.345V21.1664C19.4998 21.6267 19.127 22 18.6662 22C18.2062 22 17.8334 21.6267 17.8334 21.1664V17.345L16.756 18.4221C16.43 18.7485 15.9031 18.7485 15.5771 18.4221C15.2521 18.0974 15.2521 17.5693 15.5771 17.2438L18.0764 14.7455Z" fill="currentColor"/>
</svg>