<svg viewBox="0 0 24 24" fill="none" xmlns="http://www.w3.org/2000/svg">
<path fill-rule="evenodd" clip-rule="evenodd" d="M19.8489 14.4795C19.4 14.3773 19.1183 13.9311 19.2203 13.4823L20.3765 9.46951H3.65624L5.9444 18.6664H13.6666C14.1273 18.6664 14.5001 19.0398 14.5001 19.4995C14.5001 19.9599 14.1273 20.3333 13.6666 20.3333H5.2781C4.88852 20.3333 4.55077 20.0629 4.4655 19.6836L2.02016 8.84996C1.96499 8.60298 2.02434 8.34344 2.18235 8.14669C2.34119 7.94827 2.58029 7.83273 2.8336 7.83273H6.38749L7.86472 2.60678C7.98928 2.16221 8.44993 1.90686 8.89385 2.03161C9.3361 2.15635 9.59359 2.61683 9.46819 3.05972L8.11887 7.83273H15.8812L14.5319 3.05972C14.4065 2.61683 14.6632 2.15635 15.1062 2.03161C15.5443 1.90686 16.01 2.16305 16.1345 2.60678L17.6126 7.83273H21.1665C21.4198 7.83273 21.6597 7.94911 21.8177 8.14669C21.9749 8.34428 22.0351 8.60382 21.9791 8.8508L20.8455 13.8507C20.7443 14.2995 20.2945 14.5799 19.8489 14.4795ZM16.1663 16.1665H21.1665C21.6272 16.1665 22 16.5399 22 16.9995C22 17.46 21.6272 17.8334 21.1665 17.8334H16.1663C15.7057 17.8334 15.3328 17.46 15.3328 16.9995C15.3328 16.5399 15.7057 16.1665 16.1663 16.1665Z" fill="currentColor"/>
</svg>