<svg viewBox="0 0 24 24" fill="none" xmlns="http://www.w3.org/2000/svg">
<path fill-rule="evenodd" clip-rule="evenodd" d="M19.845 18.6665L21.7561 20.5772C22.0812 20.902 22.0812 21.4301 21.7561 21.7556C21.5936 21.9188 21.38 22 21.1671 22C20.9535 22 20.7407 21.9188 20.5773 21.7556L18.6671 19.8449L16.756 21.7556C16.5934 21.9188 16.3798 22 16.167 22C15.9533 22 15.7405 21.9188 15.5771 21.7556C15.2521 21.4301 15.2521 20.902 15.5771 20.5772L17.4882 18.6665L15.5771 16.7558C15.2521 16.4303 15.2521 15.9022 15.5771 15.5774C15.9031 15.2519 16.4301 15.2519 16.756 15.5774L18.6671 17.4881L20.5773 15.5774C20.9032 15.2519 21.4302 15.2519 21.7561 15.5774C22.0812 15.9022 22.0812 16.4303 21.7561 16.7558L19.845 18.6665ZM20.1701 13.65C19.7194 13.5605 19.4261 13.1211 19.5166 12.67L20.4483 9.4612H3.69169L5.94378 18.6665H12.8333C13.2941 18.6665 13.6669 19.0398 13.6669 19.4993C13.6669 19.9604 13.2941 20.3328 12.8333 20.3328H5.2777C4.88811 20.3328 4.55047 20.0634 4.46501 19.6834L2.02022 8.85025C1.96492 8.60336 2.02441 8.34391 2.18192 8.1464C2.34027 7.94888 2.57989 7.83339 2.83292 7.83339H6.38699L7.86492 2.6068C7.98976 2.16323 8.44973 1.90629 8.89378 2.03183C9.33615 2.15737 9.59337 2.61768 9.46769 3.06041L8.11878 7.83339H15.8813L14.5315 3.06041C14.4067 2.61768 14.6631 2.15737 15.1063 2.03183C15.5445 1.90629 16.0103 2.16323 16.1351 2.6068L17.6131 7.83339H21.1671C21.4168 7.83339 21.6523 7.94553 21.8114 8.13886C21.969 8.33136 22.0326 8.58494 21.984 8.83016L21.1504 12.9964C21.0599 13.4475 20.6184 13.7404 20.1701 13.65Z" fill="currentColor"/>
</svg>