<svg viewBox="0 0 24 24" fill="none" xmlns="http://www.w3.org/2000/svg">
<path fill-rule="evenodd" clip-rule="evenodd" d="M19.5345 20.6836C19.4492 21.0629 19.1114 21.3333 18.7219 21.3333H5.27778C4.8882 21.3333 4.55045 21.0629 4.46517 20.6836L2.02064 9.84992C1.96463 9.60294 2.02399 9.34424 2.18199 9.14665C2.34084 8.94823 2.57994 8.83353 2.83326 8.83353H6.38719L7.86527 3.60672C7.98984 3.16299 8.44965 2.9068 8.89358 3.03155C9.33667 3.15629 9.59333 3.6176 9.46793 4.0605L8.11859 8.83353H15.8811L14.5317 4.0605C14.4063 3.6176 14.663 3.15629 15.1061 3.03155C15.545 2.9068 16.0106 3.16299 16.1344 3.60672L17.6125 8.83353H21.1664C21.4197 8.83353 21.6588 8.94823 21.8176 9.14665C21.9757 9.34424 22.035 9.60294 21.9798 9.84992L19.5345 20.6836ZM3.65339 10.4678L5.94409 19.6664H18.0555L20.3738 10.4678H3.65339Z" fill="currentColor"/>
</svg>