<svg viewBox="0 0 24 24" fill="none" xmlns="http://www.w3.org/2000/svg">
<path fill-rule="evenodd" clip-rule="evenodd" d="M20.1693 13.65C19.7188 13.5605 19.4254 13.1211 19.5156 12.67L20.3725 9.4612H3.65403L5.94445 18.6665H12.8333C13.2939 18.6665 13.6667 19.0398 13.6667 19.4993C13.6667 19.9604 13.2939 20.3328 12.8333 20.3328H5.27823C4.88785 20.3328 4.55014 20.0634 4.46487 19.6834L2.02064 8.85025C1.96463 8.60336 2.02398 8.34391 2.18197 8.1464C2.3408 7.94888 2.57987 7.83339 2.83316 7.83339H6.38666L7.8654 2.6068C7.98912 2.16323 8.44971 1.90629 8.89359 2.03183C9.33662 2.15737 9.59325 2.61768 9.46786 3.06041L8.11869 7.83339H15.8811L14.5319 3.06041C14.4065 2.61768 14.6631 2.15737 15.1062 2.03183C15.545 1.90629 16.0098 2.16323 16.1343 2.6068L17.6122 7.83339H21.1666C21.4165 7.83339 21.6523 7.94553 21.8111 8.13886C21.9691 8.33136 22.0326 8.58494 21.9833 8.83016L21.1499 12.9964C21.0596 13.4475 20.6191 13.7404 20.1693 13.65ZM16.1661 17.833H17.8329V16.1666C17.8329 15.7063 18.2058 15.3331 18.6664 15.3331C19.1269 15.3331 19.4998 15.7063 19.4998 16.1666V17.833H21.1666C21.6272 17.833 22 18.2062 22 18.6665C22 19.1268 21.6272 19.4993 21.1666 19.4993H19.4998V21.1664C19.4998 21.6267 19.1269 22 18.6664 22C18.2058 22 17.8329 21.6267 17.8329 21.1664V19.4993H16.1661C15.7055 19.4993 15.3335 19.1268 15.3335 18.6665C15.3335 18.2062 15.7055 17.833 16.1661 17.833Z" fill="currentColor"/>
</svg>