<svg width="24" height="24" viewBox="0 0 24 24" fill="none" xmlns="http://www.w3.org/2000/svg">
<path fill-rule="evenodd" clip-rule="evenodd" d="M12 22C6.48583 22 2 17.5142 2 12C2 6.48583 6.48583 2 12 2C17.5142 2 22 6.48583 22 12C22 17.5142 17.5142 22 12 22ZM5.33335 16.9683C6.26585 15.7467 6.80752 14.3083 6.95419 12.8333H3.70919C3.86335 14.3767 4.45169 15.7883 5.33335 16.9683ZM6.95419 11.1667C6.80669 9.6925 6.26502 8.25417 5.33252 7.0325C4.45085 8.2125 3.86335 9.62417 3.70919 11.1667H6.95419ZM11.1666 3.70834C9.37081 3.88834 7.75831 4.66 6.47998 5.79917C7.74748 7.36167 8.46165 9.2425 8.62165 11.1667H11.1666V3.70834ZM11.1667 12.8333H8.62171C8.46254 14.7575 7.74838 16.6392 6.48171 18.2025C7.75921 19.3408 9.37088 20.1117 11.1667 20.2908V12.8333ZM20.29 12.8333H17.045C17.1925 14.3083 17.7341 15.7458 18.6666 16.9683C19.5483 15.7883 20.1366 14.3767 20.29 12.8333ZM12.8333 20.2908C14.6292 20.1117 16.2408 19.34 17.5192 18.2017C16.2517 16.6392 15.5375 14.7575 15.3783 12.8333H12.8333V20.2908ZM12.8333 3.70834V11.1667H15.3783C15.5375 9.2425 16.2517 7.36084 17.5192 5.79834C16.2408 4.65917 14.6292 3.88834 12.8333 3.70834ZM18.6675 7.03166C17.7341 8.25416 17.1925 9.69166 17.045 11.1667H20.29C20.1366 9.62333 19.5491 8.21166 18.6675 7.03166Z" fill="#6B7084"/>
</svg>
