<svg width="24" height="24" viewBox="0 0 24 24" fill="none" xmlns="http://www.w3.org/2000/svg">
<path fill-rule="evenodd" clip-rule="evenodd" d="M20.1701 13.6508C19.7189 13.5605 19.4262 13.1219 19.516 12.6708L20.4594 9.46288H3.68738L5.94405 18.6674H11.1669C11.6273 18.6674 11.9996 19.0398 11.9996 19.5001C11.9996 19.9604 11.6273 20.3337 11.1669 20.3337H5.27737C4.88826 20.3337 4.5503 20.0634 4.46476 19.6834L2.02024 8.85025C1.96489 8.60335 2.02443 8.34474 2.18209 8.14723C2.34058 7.94888 2.58042 7.83422 2.83284 7.83422H6.38684L7.86529 2.60763C7.99024 2.16322 8.44812 1.90629 8.89341 2.03182C9.3362 2.15736 9.59365 2.61767 9.46786 3.0604L8.11855 7.83422H15.8815L14.5313 3.0604C14.4064 2.61767 14.6638 2.15736 15.1066 2.03182C15.546 1.90712 16.0098 2.16322 16.1347 2.60763L17.6132 7.83422H21.1663C21.4162 7.83422 21.6527 7.94553 21.8112 8.13886C21.9689 8.33219 22.0326 8.58578 21.984 8.83016L21.1504 12.9972C21.0598 13.4491 20.6196 13.7412 20.1701 13.6508ZM15.089 18.0782L16.944 19.932L20.5265 15.6335C20.8209 15.2803 21.3458 15.2318 21.7006 15.5264C22.0536 15.8218 22.1014 16.3466 21.8071 16.7006L17.6401 21.7004C17.49 21.8803 17.2719 21.9883 17.0371 21.9992C17.0254 22 17.0119 22 17.0002 22C16.7797 22 16.5667 21.9121 16.4107 21.7556L13.9108 19.2566C13.5854 18.931 13.5854 18.4029 13.9108 18.0782C14.2362 17.7526 14.7637 17.7526 15.089 18.0782Z" fill="#6B7084"/>
</svg>
