<svg width="24" height="24" viewBox="0 0 24 24" fill="none" xmlns="http://www.w3.org/2000/svg">
<path fill-rule="evenodd" clip-rule="evenodd" d="M21.1667 15H19.5V17.5C19.5 17.9608 19.1267 18.3333 18.6667 18.3333H2.83333C2.37333 18.3333 2 17.9608 2 17.5V5.83333C2 5.3725 2.37333 5 2.83333 5H18.6667C19.1267 5 19.5 5.3725 19.5 5.83333V8.33333H21.1667C21.6267 8.33333 22 8.70583 22 9.16667V14.1667C22 14.6275 21.6267 15 21.1667 15ZM17.8333 6.66667H3.66667V16.6667H17.8333V6.66667ZM20.3333 10H19.5V13.3333H20.3333V10ZM8.6925 11.5367C8.7 11.4925 8.69417 11.4475 8.70917 11.4033L9.5425 8.90333C9.68833 8.46666 10.1583 8.22916 10.5967 8.37666C11.0333 8.52166 11.27 8.99333 11.1242 9.43083L10.6567 10.8333H11.1667C11.1717 10.8333 11.175 10.8358 11.18 10.8358C11.2633 10.8367 11.3467 10.8492 11.43 10.8767C11.44 10.88 11.4467 10.8883 11.4567 10.8917C11.5158 10.9142 11.565 10.9492 11.6167 10.9833C11.6567 11.0092 11.6992 11.03 11.7333 11.0625C11.7733 11.0992 11.7992 11.145 11.8308 11.1892C11.8625 11.2317 11.8967 11.2708 11.9192 11.3192C11.9392 11.3633 11.9458 11.4125 11.9583 11.46C11.9733 11.5183 11.9917 11.5742 11.9933 11.635C11.9942 11.6467 12 11.6558 12 11.6667C12 11.7133 11.9808 11.7533 11.9733 11.7975C11.9667 11.8425 11.9717 11.8867 11.9575 11.9308L11.1242 14.43C11.0075 14.7792 10.6825 15 10.3333 15C10.2458 15 10.1575 14.9858 10.07 14.9567C9.63333 14.8117 9.39667 14.34 9.5425 13.9033L10.0108 12.5H9.5C9.41333 12.5 9.32417 12.4858 9.23667 12.4567C9.22583 12.4533 9.21917 12.445 9.20917 12.4417C9.15167 12.42 9.10417 12.3858 9.05417 12.3525C9.0125 12.3258 8.9675 12.3042 8.9325 12.2708C8.89417 12.2342 8.86833 12.1892 8.8375 12.1467C8.805 12.1025 8.77 12.0633 8.7475 12.0142C8.7275 11.97 8.72083 11.9217 8.70833 11.8742C8.69333 11.8158 8.675 11.76 8.67333 11.6983C8.6725 11.6875 8.66667 11.6783 8.66667 11.6667C8.66667 11.6208 8.68583 11.5808 8.6925 11.5367Z" fill="#6B7084"/>
</svg>
