<svg width="24" height="24" viewBox="0 0 24 24" fill="none" xmlns="http://www.w3.org/2000/svg">
<path fill-rule="evenodd" clip-rule="evenodd" d="M21.1667 15H19.5V17.5C19.5 17.9608 19.1267 18.3333 18.6667 18.3333H2.83333C2.37333 18.3333 2 17.9608 2 17.5V5.83333C2 5.3725 2.37333 5 2.83333 5H18.6667C19.1267 5 19.5 5.3725 19.5 5.83333V8.33333H21.1667C21.6267 8.33333 22 8.70583 22 9.16667V14.1667C22 14.6275 21.6267 15 21.1667 15ZM17.8333 6.66667H3.66667V16.6667H17.8333V6.66667ZM20.3333 10H19.5V13.3333H20.3333V10ZM8.34334 11.8408L9.82001 12.985L12.9958 8.6725C13.2683 8.30167 13.79 8.22334 14.1608 8.495C14.5317 8.76917 14.6108 9.29 14.3375 9.66084L10.6558 14.6608C10.5233 14.8417 10.3225 14.9608 10.1 14.9917C10.0617 14.9975 10.0233 15 9.98501 15C9.80167 15 9.62167 14.9392 9.47501 14.8258L7.32334 13.1592C6.95917 12.8767 6.89251 12.3533 7.17501 11.99C7.45667 11.625 7.98001 11.56 8.34334 11.8408Z" fill="#6B7084"/>
</svg>
