<svg width="24" height="24" viewBox="0 0 24 24" fill="none" xmlns="http://www.w3.org/2000/svg">
<path fill-rule="evenodd" clip-rule="evenodd" d="M21.1667 14.0003H19.5V16.4995C19.5 16.9604 19.1275 17.3329 18.6667 17.3329C18.2058 17.3329 17.8333 16.9604 17.8333 16.4995V5.66671H3.66667V15.6662C4.1275 15.6662 4.5 16.0395 4.5 16.4995C4.5 16.9604 4.1275 17.3329 3.66667 17.3329H2.83333C2.3725 17.3329 2 16.9604 2 16.4995V4.83336C2 4.37251 2.3725 4 2.83333 4H18.6667C19.1275 4 19.5 4.37251 19.5 4.83336V7.33343H21.1667C21.6275 7.33343 22 7.70594 22 8.16678V13.1661C22 13.6269 21.6275 14.0003 21.1667 14.0003ZM20.3333 8.9993H19.5V12.3327H20.3333V8.9993ZM5.33333 13.1661V8.16678C5.33333 7.70593 5.70583 7.33342 6.16667 7.33342C6.6275 7.33342 7 7.70593 7 8.16678V13.1661C7 13.6269 6.6275 14.0003 6.16667 14.0003C5.70583 14.0003 5.33333 13.6269 5.33333 13.1661ZM10.4325 8.60512C10.7242 8.06427 11.6092 8.06427 11.9008 8.60512L17.6633 19.3071C17.7808 19.4513 17.8492 19.6338 17.8492 19.8329C17.8492 20.2938 17.4767 20.6663 17.0167 20.6663C17.0133 20.6663 17.0067 20.6671 17 20.6663H5.33334C5.04001 20.6663 4.76834 20.513 4.61834 20.2604C4.46751 20.0088 4.46084 19.6963 4.59917 19.4379L10.4325 8.60512ZM15.605 18.9996L11.1666 10.7577L6.72829 18.9996H15.605ZM12 14.0003V15.6662C12 16.127 11.6275 16.4995 11.1667 16.4995C10.7058 16.4995 10.3333 16.127 10.3333 15.6662V14.0003C10.3333 13.5394 10.7058 13.1661 11.1667 13.1661C11.6275 13.1661 12 13.5394 12 14.0003ZM11.7583 16.7412C11.9083 16.8995 12 17.117 12 17.3329C12 17.5495 11.9083 17.7662 11.7583 17.9246C11.5992 18.0746 11.3833 18.1662 11.1667 18.1662C10.9417 18.1662 10.7325 18.0746 10.575 17.9171C10.4242 17.7662 10.3333 17.5579 10.3333 17.3329C10.3333 17.117 10.4242 16.8995 10.575 16.7412C10.8742 16.4328 11.4417 16.4328 11.7583 16.7412Z" fill="#6B7084"/>
</svg>
