<svg viewBox="0 0 24 24" fill="none" xmlns="http://www.w3.org/2000/svg">
<g clip-path="url(#clip0_1265_22382)">
<path d="M12 24C18.6274 24 24 18.6274 24 12C24 5.37258 18.6274 0 12 0C5.37258 0 0 5.37258 0 12C0 18.6274 5.37258 24 12 24Z" fill="#6356AB"/>
<path d="M16.4095 11.9831C16.4472 11.9408 16.4895 11.8986 16.5317 11.8557C16.6682 11.7088 16.8177 11.5521 16.9588 11.4007C17.5239 10.8116 17.8398 10.0272 17.8408 9.21085C17.8408 9.1543 17.8499 8.9216 17.8499 8.88845C17.7843 7.02165 16.2126 5.5 14.3549 5.5H8.50485V7.86015H6.1499V18.5H14.4485C16.2925 18.5 17.8499 16.8601 17.8499 14.9172C17.8545 13.5282 16.9958 12.5473 16.4095 11.9831ZM9.67745 9.0451L14.336 9.04965L11.4091 12.0169L14.3035 14.9549H9.67745V9.0451ZM14.4485 17.3105H7.3225V9.04055H8.5055V16.1353H14.3035C14.7819 16.1353 15.209 15.8461 15.3916 15.4008C15.4815 15.1841 15.5055 14.9457 15.4604 14.7154C15.4153 14.4852 15.3031 14.2734 15.1381 14.1066L13.0698 12.0117L15.1713 9.8836C15.5093 9.54235 15.6074 9.03535 15.4248 8.5901C15.337 8.3732 15.1865 8.18742 14.9926 8.05657C14.7986 7.92571 14.57 7.85574 14.336 7.8556H9.682V6.6804H14.3594C15.5983 6.6804 16.6396 7.68985 16.6819 8.91705C16.6819 8.96905 16.6721 9.17315 16.6721 9.1777V9.2011C16.672 9.71578 16.4721 10.2103 16.1144 10.5804C15.9688 10.7325 15.8187 10.893 15.6828 11.0354C15.4527 11.2772 15.2558 11.4858 15.1615 11.5807L14.739 11.9974L15.157 12.4199C15.2135 12.4764 15.2837 12.5427 15.3682 12.6233C15.8557 13.0783 16.6773 13.8362 16.6773 14.9074C16.6819 16.1873 15.6406 17.3105 14.4485 17.3105Z" fill="white"/>
</g>
<defs>
<clipPath id="clip0_1265_22382">
<rect width="24" height="24" fill="white"/>
</clipPath>
</defs>
</svg>