<svg width="24" height="24" viewBox="0 0 24 24" fill="none" xmlns="http://www.w3.org/2000/svg">
<g clip-path="url(#clip0_1265_22378)">
<path d="M12 24C18.6274 24 24 18.6274 24 12C24 5.37258 18.6274 0 12 0C5.37258 0 0 5.37258 0 12C0 18.6274 5.37258 24 12 24Z" fill="#004AB5"/>
<path d="M9.85873 6.71758C9.05542 7.02027 8.33713 7.51253 7.76496 8.15248C7.19279 8.79243 6.78367 9.56113 6.57242 10.3932C6.36118 11.2252 6.35405 12.096 6.55165 12.9314C6.74924 13.7667 7.14572 14.542 7.70734 15.1913C8.26896 15.8405 8.9791 16.3444 9.77734 16.6602C10.5756 16.976 11.4383 17.0943 12.2921 17.0051C13.1459 16.9158 13.9654 16.6216 14.6811 16.1475C15.3968 15.6734 15.9873 15.0335 16.4025 14.2821L11.7385 11.7042L13.631 6.72184C12.4163 6.26072 11.075 6.25921 9.85934 6.71758H9.85873ZM10.1911 7.67509C11.1757 7.30385 12.262 7.30515 13.2456 7.67875L11.7135 11.7127L15.49 13.8006C15.1537 14.4089 14.6755 14.9269 14.0961 15.3107C13.5166 15.6944 12.853 15.9325 12.1618 16.0047C11.4705 16.0769 10.772 15.9811 10.1258 15.7254C9.47952 15.4697 8.90459 15.0616 8.44989 14.536C7.99519 14.0104 7.67418 13.3827 7.51417 12.7063C7.35416 12.03 7.35988 11.325 7.53084 10.6514C7.7018 9.97771 8.03295 9.35531 8.49612 8.83712C8.95929 8.31894 9.54076 7.92029 10.1911 7.67509ZM11.9783 5.00525C12.7033 5.03386 13.4185 5.17995 14.0966 5.43744L11.7135 11.7127L17.5883 14.9603C17.0102 16.0061 16.1635 16.8787 15.1355 17.4879C14.1076 18.0971 12.9356 18.4209 11.7407 18.4259C10.5457 18.4308 9.37116 18.1167 8.3382 17.516C7.30523 16.9152 6.45134 16.0497 5.86469 15.0087C5.27804 13.9676 4.9799 12.7889 5.00105 11.5941C5.02221 10.3994 5.36189 9.23193 5.98502 8.21232C6.60815 7.19272 7.49215 6.35792 8.54573 5.79414C9.59931 5.23036 10.7843 4.95802 11.9783 5.00525ZM16.5613 7.32569C16.722 7.32569 16.8718 7.34456 17.0094 7.38352C17.4148 7.49491 17.6887 7.74692 17.8311 8.13894C17.9182 8.37695 17.9371 8.6107 17.8884 8.84018C17.8445 9.06785 17.7392 9.27238 17.5724 9.45499C17.8853 9.44099 18.1586 9.51099 18.3942 9.66317C18.6273 9.81048 18.7996 10.0363 18.9098 10.3395C19.0662 10.7692 19.0194 11.1618 18.768 11.5173C18.5196 11.8667 18.0758 12.1583 17.4361 12.3908L14.9014 13.3137L13.1172 8.41165L15.5119 7.53996C15.9039 7.39752 16.2539 7.32569 16.5613 7.32569ZM16.19 8.33982C16.0439 8.33982 15.8753 8.37512 15.683 8.44512L14.5556 8.8554L14.9756 10.0114L16.1036 9.60048C16.3836 9.49882 16.5784 9.37281 16.6867 9.22185C16.7963 9.07089 16.8158 8.89984 16.7458 8.7087C16.6764 8.51756 16.5522 8.4013 16.3733 8.36051C16.3133 8.34603 16.2517 8.33908 16.19 8.33982ZM17.1408 10.2402C16.9874 10.2421 16.8073 10.2804 16.6003 10.3559L15.2769 10.8374L15.7177 12.0487L17.041 11.5673C17.3393 11.4583 17.5463 11.328 17.6595 11.1752C17.7782 11.0212 17.7995 10.8417 17.7252 10.6359C17.6278 10.3699 17.433 10.2378 17.1408 10.2402Z" fill="white"/>
</g>
<defs>
<clipPath id="clip0_1265_22378">
<rect width="24" height="24" fill="white"/>
</clipPath>
</defs>
</svg>
