<svg width="24" height="24" viewBox="0 0 24 24" fill="none" xmlns="http://www.w3.org/2000/svg">
<g clip-path="url(#clip0_1265_22374)">
<path d="M12 24C18.6274 24 24 18.6274 24 12C24 5.37258 18.6274 0 12 0C5.37258 0 0 5.37258 0 12C0 18.6274 5.37258 24 12 24Z" fill="#F7931C"/>
<path d="M7.00001 13.8866C6.99494 11.9769 8.33972 10.3741 10.2634 10.0133C10.4282 9.98289 10.4751 9.92773 10.4707 9.76668C10.4602 9.33793 10.4602 8.90899 10.4707 8.48024C10.4739 8.32617 10.425 8.23423 10.2925 8.14801C9.83032 7.84684 9.64138 7.29904 9.81067 6.8064C9.89206 6.55714 10.0536 6.34178 10.2701 6.19385C10.4866 6.04593 10.7459 5.97373 11.0077 5.9885C11.4959 6.01132 11.9429 6.37462 12.0748 6.85712C12.2079 7.34152 12.0228 7.8684 11.5929 8.14167C11.4408 8.23804 11.3932 8.33504 11.3983 8.5075C11.411 8.93611 11.4065 9.36471 11.4008 9.79395C11.3989 9.91822 11.4173 9.98479 11.565 10.0038C11.8459 10.0412 12.1204 10.1167 12.3804 10.2283C12.478 10.2701 12.5307 10.2447 12.596 10.1725C13.5058 9.17006 14.4188 8.16956 15.3337 7.1716C15.4282 7.06889 15.4009 6.99851 15.3578 6.89263C15.1346 6.34229 15.2652 5.7482 15.6862 5.3551C16.0704 4.99688 16.7057 4.8948 17.1648 5.11734C17.705 5.3792 18.0017 5.88135 17.9649 6.471C17.9155 7.25973 17.1483 7.85382 16.3697 7.69214C16.2118 7.65917 16.1205 7.69721 16.0185 7.81007C15.1716 8.74616 14.3211 9.67904 13.4671 10.6087C13.3638 10.7209 13.3492 10.7811 13.4779 10.8927C14.8753 12.1113 15.2557 13.9475 14.4594 15.62C14.3991 15.7469 14.4125 15.8191 14.5101 15.9117C14.7428 16.133 14.9679 16.3619 15.191 16.5933C15.2798 16.6852 15.3629 16.7093 15.4947 16.6757C16.0083 16.5464 16.5409 16.7772 16.797 17.2229C16.924 17.4435 16.9764 17.6991 16.9466 17.9518C16.9168 18.2046 16.8063 18.441 16.6316 18.626C16.2803 18.9994 15.7065 19.1078 15.2608 18.8847C14.7739 18.6412 14.505 18.1207 14.6204 17.5862C14.654 17.4327 14.6185 17.3452 14.5158 17.2482C14.3267 17.0694 14.1434 16.8846 13.9661 16.6941C13.8628 16.5825 13.7987 16.5806 13.6808 16.6916C12.4768 17.8138 11.0806 18.1042 9.53994 17.5564C8.00812 17.013 7.00445 15.5237 7.00001 13.8872" fill="#FEFDFC"/>
</g>
<defs>
<clipPath id="clip0_1265_22374">
<rect width="24" height="24" fill="white"/>
</clipPath>
</defs>
</svg>
