<svg viewBox="0 0 24 24" fill="none" xmlns="http://www.w3.org/2000/svg">
<g clip-path="url(#clip0_1265_22370)">
<path d="M12 24C18.6274 24 24 18.6274 24 12C24 5.37258 18.6274 0 12 0C5.37258 0 0 5.37258 0 12C0 18.6274 5.37258 24 12 24Z" fill="#ECAE00"/>
<path d="M17.268 6.55527L17.3296 6.69207L14.8864 7.81367L15.9856 11.4537L19.6024 9.62727L19.6504 9.72247L19.6648 9.70487L17.3216 6.58007L17.268 6.55527ZM17.136 6.49367L14.9176 5.46167H9.1808L6.8112 6.54967L9.2752 7.58647H14.7552L17.136 6.49367ZM6.6128 6.74967L4.3944 9.63047L8.0056 11.4545L9.1096 7.80007L6.6128 6.74967ZM9.3648 7.84807L8.2248 11.6241L11.9952 18.2897L15.7664 11.6241L14.6256 7.84807H9.3648ZM19.3744 10.0345L16 11.7393L12.636 17.6857L19.3744 10.0345ZM11.3368 17.6537L7.9912 11.7393L4.6344 10.0441L11.3368 17.6537ZM4.3448 9.71447L4.3712 9.66087L4.3368 9.70567L4.3448 9.71447ZM6.5776 6.36967L9.124 5.20007H14.9736L17.4888 6.36967L20 9.71847L12 18.8001L4 9.71687L6.5776 6.36967ZM13.9384 10.6673C13.9856 11.1529 13.7848 11.4449 13.4632 11.6105C13.992 11.7385 14.3232 12.0569 14.2576 12.7705C14.1776 13.6553 13.5256 13.8921 12.5944 13.9465V14.8769H12.0408V13.9593C11.8968 13.9593 11.7504 13.9577 11.5984 13.9545V14.8769H11.0456V13.9441C10.916 13.9433 10.784 13.9409 10.6496 13.9409H9.9296L10.0392 13.2713C10.0392 13.2713 10.4488 13.2777 10.4416 13.2713C10.5984 13.2713 10.64 13.1569 10.6496 13.0857V11.6161H10.7088C10.6892 11.6134 10.6694 11.6121 10.6496 11.6121V10.5633C10.6288 10.4489 10.556 10.3177 10.3312 10.3169C10.3384 10.3089 9.9296 10.3169 9.9296 10.3169V9.71847H10.6928V9.72167C10.808 9.72167 10.9248 9.71927 11.0448 9.71687V8.79607H11.5992V9.69927C11.7464 9.69607 11.8952 9.69287 12.0408 9.69287V8.79687L12.5944 8.79607V9.71687C13.3096 9.78087 13.8752 10.0033 13.9384 10.6673ZM13.164 12.6593C13.164 11.9329 11.9872 12.0425 11.612 12.0425V13.2769C11.9872 13.2769 13.164 13.3553 13.164 12.6593ZM12.9064 10.9177C12.9064 10.2569 11.924 10.3577 11.612 10.3577V11.4777C11.924 11.4777 12.9064 11.5513 12.9064 10.9177Z" fill="white"/>
</g>
<defs>
<clipPath id="clip0_1265_22370">
<rect width="24" height="24" fill="white"/>
</clipPath>
</defs>
</svg>