<svg width="24" height="24" viewBox="0 0 24 24" fill="none" xmlns="http://www.w3.org/2000/svg">
<g clip-path="url(#clip0_1265_22367)">
<path d="M24 12C24 14.3734 23.2962 16.6935 21.9776 18.6668C20.6591 20.6402 18.7849 22.1783 16.5922 23.0866C14.3995 23.9948 11.9867 24.2324 9.65892 23.7694C7.33115 23.3064 5.19295 22.1635 3.51472 20.4853C1.83649 18.8071 0.693605 16.6689 0.230582 14.3411C-0.232441 12.0133 0.00519936 9.60051 0.913451 7.4078C1.8217 5.21509 3.35977 3.34094 5.33316 2.02236C7.30655 0.703788 9.62663 0 12 0C15.1826 0 18.2348 1.26428 20.4853 3.51472C22.7357 5.76516 24 8.8174 24 12Z" fill="#43A047"/>
<path fill-rule="evenodd" clip-rule="evenodd" d="M9.20076 6.75481L11.419 7.34887L11.9157 5.5L13.0249 5.80098L12.5475 7.57263L13.4513 7.81569L13.9278 6.02562L15.0562 6.32659L14.5701 8.1272C14.5701 8.1272 16.4128 8.53523 16.8472 10.034C17.2816 11.5327 15.8951 12.3207 15.4695 12.3506C15.4695 12.3506 17.085 13.2359 16.5304 14.9778C15.9758 16.7196 14.2726 17.0311 12.4826 16.6318L11.9956 18.5L10.8671 18.199L11.3638 16.3563L10.4679 16.1159L9.96944 17.9665L8.85064 17.6655L9.34642 15.8228L7.06934 15.2085L7.64409 13.9344C7.64409 13.9344 8.28554 14.1099 8.52948 14.1678C8.77342 14.2258 8.92786 13.973 8.9963 13.7203C9.06475 13.4676 10.0958 9.27935 10.1932 8.93449C10.2906 8.58964 10.2511 8.32025 9.8422 8.21407C9.43329 8.1079 8.87696 7.94205 8.87696 7.94205L9.20076 6.75481ZM11.4384 12.3014L10.8241 14.7435C10.8241 14.7435 13.869 15.843 14.2586 14.2959C14.6482 12.7489 11.4384 12.3014 11.4384 12.3014ZM11.7209 11.1431L12.3237 8.90553C12.3237 8.90553 14.9316 9.37236 14.6105 10.6175C14.2893 11.8627 12.7493 11.3853 11.7209 11.1431Z" fill="white"/>
</g>
<defs>
<clipPath id="clip0_1265_22367">
<rect width="24" height="24" fill="white"/>
</clipPath>
</defs>
</svg>
