<svg width="24" height="24" viewBox="0 0 24 24" fill="none" xmlns="http://www.w3.org/2000/svg">
<g clip-path="url(#clip0_1265_22359)">
<path d="M12 24C18.6274 24 24 18.6274 24 12C24 5.37258 18.6274 0 12 0C5.37258 0 0 5.37258 0 12C0 18.6274 5.37258 24 12 24Z" fill="#3F43AD"/>
<path d="M9.25438 6.60555C9.10681 6.61419 8.96813 6.6789 8.86671 6.78643C8.76529 6.89397 8.7088 7.03619 8.7088 7.18401C8.7088 7.33183 8.76529 7.47405 8.86671 7.58159C8.96813 7.68912 9.10681 7.75383 9.25438 7.76247C9.40194 7.75383 9.54062 7.68912 9.64204 7.58159C9.74346 7.47405 9.79995 7.33183 9.79995 7.18401C9.79995 7.03619 9.74346 6.89397 9.64204 6.78643C9.54062 6.6789 9.40194 6.61419 9.25438 6.60555ZM11.9303 5C11.7816 5.00711 11.6413 5.07119 11.5386 5.17896C11.4358 5.28672 11.3785 5.4299 11.3785 5.57879C11.3785 5.72768 11.4358 5.87086 11.5386 5.97862C11.6413 6.08639 11.7816 6.15047 11.9303 6.15758C12.079 6.15047 12.2193 6.08639 12.322 5.97862C12.4248 5.87086 12.4821 5.72768 12.4821 5.57879C12.4821 5.4299 12.4248 5.28672 12.322 5.17896C12.2193 5.07119 12.079 5.00711 11.9303 5ZM11.9303 11.4215C11.7827 11.4302 11.6441 11.4949 11.5426 11.6024C11.4412 11.71 11.3847 11.8522 11.3847 12C11.3847 12.1478 11.4412 12.29 11.5426 12.3976C11.6441 12.5051 11.7827 12.5698 11.9303 12.5785C12.0779 12.5698 12.2165 12.5051 12.318 12.3976C12.4194 12.29 12.4759 12.1478 12.4759 12C12.4759 11.8522 12.4194 11.71 12.318 11.6024C12.2165 11.4949 12.0779 11.4302 11.9303 11.4215ZM14.6056 9.81599C14.5295 9.81608 14.4542 9.83114 14.384 9.86033C14.3138 9.88951 14.25 9.93224 14.1962 9.98608C14.1425 10.0399 14.0999 10.1038 14.0709 10.1741C14.0419 10.2444 14.027 10.3197 14.0271 10.3958C14.0272 10.4718 14.0422 10.5471 14.0714 10.6173C14.1006 10.6876 14.1433 10.7514 14.1972 10.8051C14.251 10.8588 14.3149 10.9014 14.3852 10.9304C14.4555 10.9594 14.5308 10.9743 14.6069 10.9742C14.7605 10.9741 14.9077 10.9129 15.0162 10.8041C15.1247 10.6954 15.1855 10.548 15.1853 10.3944C15.1852 10.2409 15.124 10.0936 15.0152 9.98514C14.9065 9.87666 14.7591 9.81581 14.6056 9.81599ZM17.2808 8.2111C17.2031 8.20857 17.1257 8.22169 17.0532 8.2497C16.9807 8.2777 16.9145 8.32001 16.8587 8.37411C16.8029 8.42821 16.7585 8.49299 16.7282 8.5646C16.6979 8.6362 16.6824 8.71316 16.6825 8.7909C16.6826 8.86865 16.6983 8.94557 16.7287 9.01711C16.7592 9.08864 16.8037 9.15332 16.8596 9.20729C16.9156 9.26126 16.9818 9.30343 17.0544 9.33127C17.127 9.35911 17.2044 9.37206 17.2821 9.36934C17.4323 9.3641 17.5746 9.3007 17.679 9.19253C17.7833 9.08436 17.8415 8.93988 17.8414 8.78958C17.8412 8.63929 17.7826 8.49494 17.678 8.38701C17.5735 8.27907 17.431 8.216 17.2808 8.2111ZM9.25438 13.0271C9.10681 13.0357 8.96813 13.1004 8.86671 13.208C8.76529 13.3155 8.7088 13.4577 8.7088 13.6056C8.7088 13.7534 8.76529 13.8956 8.86671 14.0031C8.96813 14.1107 9.10681 14.1754 9.25438 14.184C9.40194 14.1754 9.54062 14.1107 9.64204 14.0031C9.74346 13.8956 9.79995 13.7534 9.79995 13.6056C9.79995 13.4577 9.74346 13.3155 9.64204 13.208C9.54062 13.1004 9.40194 13.0357 9.25438 13.0271ZM6.57846 8.2111C6.50245 8.21119 6.42721 8.22624 6.35702 8.25541C6.28683 8.28458 6.22307 8.32728 6.16939 8.38109C6.1157 8.4349 6.07314 8.49875 6.04414 8.56901C6.01513 8.63926 6.00024 8.71454 6.00033 8.79055C6.00042 8.86656 6.01547 8.94181 6.04464 9.012C6.07381 9.08218 6.11651 9.14594 6.17032 9.19963C6.22413 9.25331 6.28798 9.29587 6.35824 9.32488C6.42849 9.35388 6.50377 9.36877 6.57978 9.36868C6.73329 9.36851 6.88044 9.30736 6.98886 9.19869C7.09728 9.09002 7.15809 8.94274 7.15791 8.78923C7.15774 8.63573 7.09659 8.48858 6.98792 8.38016C6.87925 8.27174 6.73197 8.21093 6.57846 8.2111ZM6.57846 14.632C6.50241 14.6321 6.42712 14.6471 6.35689 14.6763C6.28666 14.7055 6.22287 14.7482 6.16915 14.8021C6.06067 14.9108 5.99983 15.0582 6 15.2118C6.00018 15.3654 6.06136 15.5126 6.17009 15.6211C6.27882 15.7296 6.42619 15.7904 6.57978 15.7902C6.73338 15.79 6.88061 15.7289 6.98909 15.6201C7.09757 15.5114 7.15842 15.364 7.15824 15.2104C7.15807 15.0568 7.09689 14.9096 6.98815 14.8011C6.87942 14.6926 6.73205 14.6318 6.57846 14.632ZM6.57846 11.4215C6.4309 11.4302 6.29222 11.4949 6.1908 11.6024C6.08938 11.71 6.03289 11.8522 6.03289 12C6.03289 12.1478 6.08938 12.29 6.1908 12.3976C6.29222 12.5051 6.4309 12.5698 6.57846 12.5785C6.72602 12.5698 6.86471 12.5051 6.96613 12.3976C7.06755 12.29 7.12404 12.1478 7.12404 12C7.12404 11.8522 7.06755 11.71 6.96613 11.6024C6.86471 11.4949 6.72602 11.4302 6.57846 11.4215ZM11.9303 8.2111C11.8526 8.20848 11.7752 8.22151 11.7026 8.24943C11.6301 8.27736 11.5639 8.31959 11.508 8.37363C11.4521 8.42766 11.4076 8.49239 11.3773 8.56396C11.3469 8.63553 11.3313 8.71248 11.3313 8.79022C11.3313 8.86796 11.3469 8.94491 11.3773 9.01648C11.4076 9.08805 11.4521 9.15278 11.508 9.20682C11.5639 9.26085 11.6301 9.30309 11.7026 9.33101C11.7752 9.35893 11.8526 9.37197 11.9303 9.36934C12.0805 9.36427 12.2229 9.30103 12.3273 9.19298C12.4318 9.08493 12.4902 8.94051 12.4902 8.79022C12.4902 8.63993 12.4318 8.49552 12.3273 8.38746C12.2229 8.27941 12.0805 8.21617 11.9303 8.2111ZM14.6056 6.60555C14.5279 6.60302 14.4504 6.61614 14.3779 6.64415C14.3054 6.67215 14.2393 6.71446 14.1834 6.76856C14.1276 6.82266 14.0832 6.88744 14.0529 6.95905C14.0227 7.03065 14.0071 7.10761 14.0072 7.18536C14.0073 7.2631 14.023 7.34002 14.0535 7.41156C14.0839 7.48309 14.1284 7.54777 14.1844 7.60174C14.2403 7.65571 14.3066 7.69788 14.3792 7.72572C14.4517 7.75356 14.5292 7.7665 14.6069 7.76379C14.7571 7.75855 14.8994 7.69515 15.0037 7.58698C15.1081 7.47881 15.1663 7.33433 15.1661 7.18403C15.1659 7.03374 15.1074 6.88939 15.0028 6.78146C14.8982 6.67352 14.7558 6.61045 14.6056 6.60555ZM14.6056 13.0271C14.5295 13.0271 14.4543 13.0421 14.3841 13.0713C14.3139 13.1004 14.2501 13.1431 14.1964 13.1968C14.1427 13.2506 14.1001 13.3145 14.071 13.3847C14.042 13.4549 14.027 13.5302 14.0271 13.6062C14.0271 13.6822 14.0421 13.7575 14.0713 13.8277C14.1004 13.8979 14.1431 13.9617 14.1968 14.0154C14.2506 14.0691 14.3145 14.1117 14.3847 14.1407C14.4549 14.1698 14.5302 14.1847 14.6062 14.1847C14.7597 14.1846 14.9069 14.1235 15.0154 14.0149C15.1239 13.9063 15.1848 13.7591 15.1847 13.6056C15.1846 13.452 15.1235 13.3049 15.0149 13.1964C14.9063 13.0879 14.7591 13.027 14.6056 13.0271ZM17.2808 11.4215C17.1332 11.4302 16.9946 11.4949 16.8931 11.6024C16.7917 11.71 16.7352 11.8522 16.7352 12C16.7352 12.1478 16.7917 12.29 16.8931 12.3976C16.9946 12.5051 17.1332 12.5698 17.2808 12.5785C17.4284 12.5698 17.5671 12.5051 17.6685 12.3976C17.7699 12.29 17.8264 12.1478 17.8264 12C17.8264 11.8522 17.7699 11.71 17.6685 11.6024C17.5671 11.4949 17.4284 11.4302 17.2808 11.4215ZM14.6056 16.2375C14.5295 16.2376 14.4542 16.2526 14.384 16.2817C14.3137 16.3109 14.2499 16.3536 14.1961 16.4074C14.1424 16.4612 14.0998 16.5251 14.0707 16.5953C14.0417 16.6656 14.0267 16.7409 14.0268 16.817C14.0268 16.893 14.0418 16.9683 14.071 17.0386C14.1001 17.1088 14.1428 17.1726 14.1966 17.2264C14.2504 17.2801 14.3143 17.3228 14.3846 17.3518C14.4548 17.3809 14.5302 17.3958 14.6062 17.3958C14.7598 17.3957 14.9071 17.3346 15.0156 17.2259C15.1242 17.1172 15.1851 16.9699 15.185 16.8163C15.1849 16.6627 15.1238 16.5155 15.0151 16.4069C14.9065 16.2984 14.7591 16.2374 14.6056 16.2375ZM17.2808 14.632C17.1321 14.6391 16.9918 14.7032 16.8891 14.8109C16.7863 14.9187 16.729 15.0619 16.729 15.2108C16.729 15.3597 16.7863 15.5028 16.8891 15.6106C16.9918 15.7184 17.1321 15.7825 17.2808 15.7896C17.4295 15.7825 17.5698 15.7184 17.6725 15.6106C17.7753 15.5028 17.8326 15.3597 17.8326 15.2108C17.8326 15.0619 17.7753 14.9187 17.6725 14.8109C17.5698 14.7032 17.4295 14.6391 17.2808 14.632ZM11.9303 17.8431C11.7827 17.8517 11.6441 17.9164 11.5426 18.024C11.4412 18.1315 11.3847 18.2737 11.3847 18.4215C11.3847 18.5694 11.4412 18.7116 11.5426 18.8191C11.6441 18.9267 11.7827 18.9914 11.9303 19C12.0836 18.9998 12.2306 18.9389 12.3391 18.8305C12.4476 18.7222 12.5087 18.5752 12.5091 18.4219C12.5089 18.2684 12.4479 18.1213 12.3394 18.0128C12.2309 17.9043 12.0837 17.8433 11.9303 17.8431ZM11.9303 14.632C11.8542 14.632 11.7789 14.6471 11.7086 14.6762C11.6383 14.7054 11.5744 14.7481 11.5207 14.8019C11.4669 14.8558 11.4242 14.9197 11.3952 14.99C11.3661 15.0603 11.3511 15.1357 11.3512 15.2118C11.3512 15.2879 11.3662 15.3632 11.3954 15.4335C11.4246 15.5038 11.4673 15.5676 11.5211 15.6214C11.575 15.6752 11.6389 15.7178 11.7092 15.7469C11.7795 15.776 11.8549 15.7909 11.931 15.7909C12.0846 15.7908 12.232 15.7297 12.3406 15.6209C12.4492 15.5122 12.5102 15.3648 12.5101 15.2111C12.51 15.0574 12.4489 14.9101 12.3401 14.8015C12.2314 14.6929 12.084 14.6319 11.9303 14.632ZM9.25438 9.81599C9.10681 9.82463 8.96813 9.88934 8.86671 9.99687C8.76529 10.1044 8.7088 10.2466 8.7088 10.3944C8.7088 10.5423 8.76529 10.6845 8.86671 10.792C8.96813 10.8996 9.10681 10.9643 9.25438 10.9729C9.40095 10.963 9.53829 10.8978 9.6386 10.7904C9.73892 10.6831 9.79472 10.5417 9.79472 10.3948C9.79472 10.2479 9.73892 10.1064 9.6386 9.99912C9.53829 9.89179 9.40095 9.82657 9.25438 9.81665V9.81599ZM9.25438 16.2375C9.10681 16.2462 8.96813 16.3109 8.86671 16.4184C8.76529 16.5259 8.7088 16.6682 8.7088 16.816C8.7088 16.9638 8.76529 17.106 8.86671 17.2136C8.96813 17.3211 9.10681 17.3858 9.25438 17.3945C9.40194 17.3858 9.54062 17.3211 9.64204 17.2136C9.74346 17.106 9.79995 16.9638 9.79995 16.816C9.79995 16.6682 9.74346 16.5259 9.64204 16.4184C9.54062 16.3109 9.40194 16.2462 9.25438 16.2375Z" fill="white"/>
</g>
<defs>
<clipPath id="clip0_1265_22359">
<rect width="24" height="24" fill="white"/>
</clipPath>
</defs>
</svg>
