<svg width="24" height="24" viewBox="0 0 24 24" fill="none" xmlns="http://www.w3.org/2000/svg">
<g clip-path="url(#clip0_1265_22355)">
<path d="M12 24C18.6274 24 24 18.6274 24 12C24 5.37258 18.6274 0 12 0C5.37258 0 0 5.37258 0 12C0 18.6274 5.37258 24 12 24Z" fill="#F04086"/>
<path d="M17.8002 12.7007C17.3467 12.1998 16.6947 11.8888 15.8425 11.7679V11.7499C16.5889 11.629 17.1754 11.3231 17.5742 10.8337C17.9788 10.3484 18.1986 9.73541 18.1946 9.10349C18.1946 8.05197 17.8563 7.33728 17.1553 6.77517C16.4543 6.21378 15.402 6.02881 13.9763 6.02881H8.59196V11.0403H5.5V12.9598H13.9403C14.6046 12.9598 15.1033 13.0066 15.433 13.2722C15.7626 13.5377 15.931 13.8811 15.931 14.3885C15.931 14.8959 15.7648 15.3291 15.433 15.6012C15.1019 15.8725 14.6024 16.0518 13.9403 16.0518H11.0441V14.559H8.59196V17.9713H14.1533C15.5676 17.9713 16.6486 17.6021 17.3986 17.0284C18.1478 16.4548 18.4997 15.6077 18.4997 14.5677C18.5091 13.8796 18.2594 13.2132 17.8002 12.7007ZM13.6308 11.0352H11.0441V7.94329H13.6308C14.9608 7.94329 15.6244 8.46221 15.6244 9.48927C15.6244 10.5163 14.9608 11.0352 13.6308 11.0352Z" fill="white"/>
</g>
<defs>
<clipPath id="clip0_1265_22355">
<rect width="24" height="24" fill="white"/>
</clipPath>
</defs>
</svg>
