<svg viewBox="0 0 24 24" fill="none" xmlns="http://www.w3.org/2000/svg">
<g clip-path="url(#clip0_1265_22351)">
<path d="M12 24C18.6274 24 24 18.6274 24 12C24 5.37258 18.6274 0 12 0C5.37258 0 0 5.37258 0 12C0 18.6274 5.37258 24 12 24Z" fill="#2C76B7"/>
<path d="M10.6853 15.3782L9.63114 14.7846C9.36514 15.1451 8.93254 15.3796 8.44254 15.3796C7.95254 15.3796 7.51854 15.1444 7.25325 14.7825L6.91095 14.9764C6.94148 15.0496 6.95718 15.1281 6.95715 15.2074C6.95614 15.2889 6.93909 15.3694 6.90695 15.4444C6.87481 15.5193 6.82823 15.5872 6.76986 15.6442C6.71149 15.7011 6.64247 15.746 6.56675 15.7763C6.49103 15.8065 6.41009 15.8216 6.32855 15.8206C5.98135 15.8206 5.69995 15.5462 5.69995 15.2074C5.69995 14.8686 5.98135 14.5935 6.32855 14.5935C6.53085 14.5935 6.71005 14.6866 6.82555 14.8315L7.16155 14.6411C7.0425 14.431 6.98003 14.1937 6.98025 13.9523C6.98025 13.1823 7.60464 12.5551 8.38584 12.5257V11.4379C7.62494 11.4085 7.01805 10.7974 7.01805 10.0477C7.01805 9.80968 7.07965 9.58428 7.18815 9.38829L6.83115 9.18949C6.77174 9.26609 6.69552 9.32803 6.60838 9.37051C6.52123 9.41299 6.42549 9.43488 6.32855 9.43448C5.98135 9.43448 5.69995 9.15939 5.69995 8.82059C5.69995 8.48179 5.98135 8.20739 6.32855 8.20739C6.67575 8.20739 6.95715 8.48179 6.95715 8.82059C6.95715 8.89899 6.94175 8.97459 6.91445 9.04319L7.27845 9.24619C7.53604 8.88919 7.96164 8.65679 8.44254 8.65679C8.93394 8.65679 9.36654 8.89899 9.62274 9.26789L10.6958 8.67359C10.5978 8.48319 10.5418 8.26759 10.5418 8.04009C10.5418 7.28969 11.1424 6.67649 11.8998 6.63309V6.2215C11.7511 6.20302 11.6141 6.13116 11.5143 6.01928C11.4145 5.9074 11.3587 5.7631 11.3573 5.6132C11.3573 5.2744 11.6387 5 11.9859 5C12.3331 5 12.6145 5.2744 12.6145 5.6132C12.6145 5.924 12.3779 6.1802 12.0713 6.2215V6.63309C12.8287 6.67649 13.4293 7.28969 13.4293 8.04009C13.4293 8.26829 13.3733 8.48459 13.2746 8.67569L14.3456 9.27839C14.4772 9.0819 14.6554 8.92103 14.8642 8.81012C15.0731 8.69922 15.3061 8.64173 15.5426 8.64279C16.0389 8.64279 16.475 8.88989 16.7305 9.26509L17.084 9.04039C17.0566 8.97036 17.0426 8.8958 17.0427 8.82059C17.0427 8.48179 17.3241 8.20739 17.6713 8.20739C18.0185 8.20739 18.2999 8.48179 18.2999 8.82059C18.2999 9.15939 18.0185 9.43448 17.6713 9.43448C17.574 9.43484 17.4778 9.41273 17.3904 9.36988C17.303 9.32702 17.2267 9.26457 17.1673 9.18739L16.8173 9.40999C16.9132 9.59758 16.9678 9.80898 16.9678 10.0337C16.9678 10.7974 16.3378 11.4176 15.5573 11.4246V12.5572C16.3483 12.5642 16.9867 13.1928 16.9867 13.9663C16.9867 14.2008 16.9279 14.422 16.8236 14.6173L17.1834 14.8203C17.2431 14.749 17.3178 14.6917 17.4021 14.6525C17.4864 14.6133 17.5783 14.5931 17.6713 14.5935C18.0185 14.5935 18.2999 14.8686 18.2999 15.2074C18.2999 15.5462 18.0185 15.8206 17.6713 15.8206C17.5898 15.8216 17.5088 15.8065 17.4331 15.7763C17.3574 15.746 17.2884 15.7011 17.23 15.6442C17.1716 15.5872 17.125 15.5193 17.0929 15.4444C17.0608 15.3694 17.0437 15.2889 17.0427 15.2074C17.0425 15.1232 17.0602 15.0399 17.0945 14.9631L16.7354 14.7601C16.4757 15.1311 16.0382 15.3754 15.5426 15.3754C15.0519 15.3754 14.6186 15.136 14.3575 14.7706L13.2837 15.3747C13.4006 15.5812 13.4671 15.8192 13.4671 16.0719C13.4671 16.8328 12.8651 17.4565 12.1 17.5139V17.7827C12.243 17.807 12.373 17.8808 12.467 17.9912C12.5611 18.1017 12.6133 18.2417 12.6145 18.3868C12.6135 18.4683 12.5965 18.5488 12.5643 18.6238C12.5322 18.6987 12.4856 18.7666 12.4272 18.8236C12.3689 18.8805 12.2999 18.9254 12.2241 18.9556C12.1484 18.9859 12.0675 19.001 11.9859 19C11.9044 19.001 11.8235 18.9859 11.7477 18.9556C11.672 18.9254 11.603 18.8805 11.5446 18.8236C11.4862 18.7666 11.4397 18.6987 11.4075 18.6238C11.3754 18.5488 11.3583 18.4683 11.3573 18.3868C11.3573 18.0662 11.6079 17.8037 11.9285 17.7757V17.5167C11.1375 17.4873 10.5047 16.8517 10.5047 16.0719C10.5047 15.8199 10.5698 15.584 10.6853 15.3782ZM10.7763 15.2361C10.9154 15.046 11.0975 14.8916 11.3078 14.7855C11.518 14.6794 11.7504 14.6247 11.9859 14.6257C12.4829 14.6257 12.9239 14.8658 13.1927 15.2333L14.2679 14.6278C14.157 14.4249 14.099 14.1974 14.0992 13.9663C14.0992 13.2397 14.662 12.6419 15.3858 12.5649V11.4169C14.6725 11.3399 14.1181 10.7505 14.1181 10.0337C14.1181 9.81528 14.1692 9.60808 14.2616 9.42469L13.1878 8.81989C12.9288 9.19929 12.4878 9.44918 11.9859 9.44918C11.4833 9.44918 11.0409 9.19859 10.7819 8.81919L9.71094 9.41209C9.81104 9.60248 9.86774 9.81808 9.86774 10.0477C9.86774 10.7785 9.29094 11.3777 8.55734 11.4337V12.5292C9.31124 12.5852 9.90554 13.2012 9.90554 13.9523C9.90554 14.2029 9.83904 14.4381 9.72284 14.6432L10.7763 15.2361ZM8.44254 14.6999C8.86604 14.6999 9.20904 14.3653 9.20904 13.9523C9.20904 13.5393 8.86604 13.2047 8.44254 13.2047C8.01974 13.2047 7.67674 13.5393 7.67674 13.9523C7.67674 14.3653 8.01974 14.6999 8.44254 14.6999ZM8.44254 10.7764C8.85554 10.7764 9.18944 10.4502 9.18944 10.0484C9.18944 9.64658 8.85484 9.31899 8.44254 9.31899C8.03024 9.31899 7.69634 9.64518 7.69634 10.0477C7.69634 10.4502 8.03024 10.7764 8.44254 10.7764ZM11.9859 8.77789C12.4031 8.77789 12.7419 8.44749 12.7419 8.04009C12.7419 7.63199 12.4031 7.30159 11.9859 7.30159C11.568 7.30159 11.2299 7.63199 11.2299 8.04009C11.2299 8.44749 11.568 8.77789 11.9859 8.77789ZM15.5426 10.7624C15.9556 10.7624 16.2895 10.4362 16.2895 10.0344C16.2895 9.63118 15.9549 9.30499 15.5426 9.30499C15.1303 9.30499 14.7964 9.63118 14.7964 10.0337C14.7964 10.4362 15.1303 10.7624 15.5426 10.7624ZM15.5426 14.7041C15.9605 14.7041 16.2986 14.3737 16.2986 13.9663C16.2986 13.5582 15.9605 13.2278 15.5426 13.2278C15.1254 13.2278 14.7866 13.5582 14.7866 13.9663C14.7866 14.3737 15.1254 14.7041 15.5426 14.7041ZM11.9859 16.83C12.4143 16.83 12.7615 16.4905 12.7615 16.0726C12.7615 15.6547 12.4143 15.3152 11.9859 15.3152C11.5568 15.3152 11.2096 15.654 11.2096 16.0726C11.2096 16.4912 11.5568 16.83 11.9859 16.83ZM11.9859 14.044C10.8295 14.044 9.89224 13.1291 9.89224 12.0007C9.89224 10.8723 10.8295 9.95668 11.9852 9.95668C13.1423 9.95668 14.0796 10.8723 14.0796 12.0007C14.0796 13.1291 13.1416 14.044 11.9859 14.044ZM11.9859 12.8015C12.4388 12.8015 12.8063 12.4431 12.8063 12.0007C12.8063 11.5583 12.4388 11.1999 11.9859 11.1999C11.5323 11.1999 11.1648 11.5583 11.1648 12.0007C11.1648 12.4431 11.5323 12.8015 11.9859 12.8015Z" fill="white"/>
</g>
<defs>
<clipPath id="clip0_1265_22351">
<rect width="24" height="24" fill="white"/>
</clipPath>
</defs>
</svg>