<svg width="24" height="24" viewBox="0 0 24 24" fill="none" xmlns="http://www.w3.org/2000/svg">
<g clip-path="url(#clip0_1265_22347)">
<path d="M12 24C18.6274 24 24 18.6274 24 12C24 5.37258 18.6274 0 12 0C5.37258 0 0 5.37258 0 12C0 18.6274 5.37258 24 12 24Z" fill="#404040"/>
<path d="M12 19C8.13409 19 5 15.8659 5 12C5 8.13409 8.13409 5 12 5C15.8659 5 19 8.13409 19 12C19 15.8659 15.8659 19 12 19ZM12 18.2987C15.4784 18.2987 18.2987 15.4784 18.2987 12C18.2987 8.52164 15.4784 5.70127 12 5.70127C8.52164 5.70127 5.70127 8.52164 5.70127 12C5.70127 15.4784 8.52164 18.2987 12 18.2987ZM15.8455 9.53091C15.9505 11.4005 14.2228 11.8944 14.2228 11.8944C16.1975 12.1763 16.0918 13.8696 16.0918 13.8696C16.0918 16.62 13.0233 16.7275 13.0233 16.7275H8.71955V7.27309H12.6001C15.8455 7.41436 15.8455 9.53091 15.8455 9.53091ZM10.9417 8.96645V11.2586H12.4945C12.4945 11.2586 13.5877 11.2236 13.6577 10.3416V9.77718C13.6577 9.77718 13.6577 9.03709 12.5995 8.96645H10.9417ZM13.869 14.1528V13.5877C13.869 13.5877 13.869 12.8464 12.8114 12.7757H10.9411V15.0698H12.7057C12.7057 15.0698 13.799 15.0348 13.8696 14.1522L13.869 14.1528Z" fill="white"/>
</g>
<defs>
<clipPath id="clip0_1265_22347">
<rect width="24" height="24" fill="white"/>
</clipPath>
</defs>
</svg>
