<svg width="24" height="24" viewBox="0 0 24 24" fill="none" xmlns="http://www.w3.org/2000/svg">
<g clip-path="url(#clip0_1265_22343)">
<path d="M12 24C18.6274 24 24 18.6274 24 12C24 5.37258 18.6274 0 12 0C5.37258 0 0 5.37258 0 12C0 18.6274 5.37258 24 12 24Z" fill="#E54C40"/>
<path d="M8.01148 7.19261C7.99843 7.09668 8.08848 7.03926 8.14003 6.974C8.78873 6.33216 9.43434 5.6872 10.0768 5.03915C10.0677 6.81151 10.0821 8.58387 10.0697 10.3562C11.4068 9.61883 13.091 9.5862 14.4653 10.2466C14.464 10.3608 14.464 10.4743 14.464 10.5892C13.3671 9.99928 12.0182 9.92358 10.8482 10.3347C9.50193 10.798 8.42912 11.938 8.00952 13.2947C8.01148 11.26 8.00887 9.22664 8.01148 7.19261ZM16.7493 14.8028C16.7084 15.8816 16.2671 16.9064 15.5114 17.6773C14.8008 18.4077 13.8573 18.8667 12.8441 18.9752C11.8309 19.0836 10.8117 18.8346 9.96264 18.2711C8.99685 17.6356 8.29861 16.6045 8.08457 15.4677C7.89859 14.5672 8.02453 13.6112 8.4115 12.7792C8.85122 11.8434 9.60615 11.0922 10.5441 10.6571C11.7735 10.0776 13.2718 10.1265 14.4621 10.7823C14.4549 11.7573 14.4555 12.7322 14.4627 13.7071C14.2682 13.3045 13.9798 12.9443 13.5981 12.7054C12.843 12.218 11.7937 12.2408 11.0648 12.7694C10.2622 13.3215 9.89999 14.4165 10.2191 15.3372C10.5043 16.2449 11.4068 16.9112 12.3608 16.9008C13.2783 16.9236 14.1638 16.3239 14.4921 15.4684C14.7009 14.9835 14.6487 14.4478 14.6533 13.9349C14.6572 11.2887 14.6467 8.6426 14.648 5.99711C14.6487 5.66431 14.6546 5.3315 14.635 5C15.3463 5.70085 16.051 6.41019 16.7558 7.11822C16.7415 9.67952 16.7558 12.2408 16.7493 14.8034V14.8028Z" fill="white"/>
</g>
<defs>
<clipPath id="clip0_1265_22343">
<rect width="24" height="24" fill="white"/>
</clipPath>
</defs>
</svg>
