<svg viewBox="0 0 24 24" fill="none" xmlns="http://www.w3.org/2000/svg">
<g clip-path="url(#clip0_1265_22339)">
<path d="M12 24C18.6274 24 24 18.6274 24 12C24 5.37258 18.6274 0 12 0C5.37258 0 0 5.37258 0 12C0 18.6274 5.37258 24 12 24Z" fill="#0B76FF"/>
<path d="M18.9759 10.4095V9.0819L14.6552 11.5983L11.9879 7V10.0172L13.3457 12.3707L12.7966 12.6966L11.9879 11.2724L11.119 12.8172L10.5155 12.5698L11.9879 10.0172V7L9.06724 11.9724L5 10.2888V11.8276L8.62069 12.7207L6.32759 16.6552H11.9879V15.0319H9.09741L10.1776 13.1371L10.8293 13.3L10.1776 14.4466H13.7983L13.2552 13.4871L13.9733 13.4328L14.8966 15.0319H11.9879V16.6552H17.6724L15.7172 13.3181L19 13.0767V11.7431L15.3069 12.6543L18.994 11.7069V10.5L14.9931 12.1233L18.9759 10.4095ZM13.7259 13.0345L13.0741 13.1974L13.7138 13.0345H13.7259ZM13.5207 12.6724L12.9172 12.9138L13.5207 12.6664V12.6724Z" fill="white"/>
</g>
<defs>
<clipPath id="clip0_1265_22339">
<rect width="24" height="24" fill="white"/>
</clipPath>
</defs>
</svg>