<svg width="24" height="24" viewBox="0 0 24 24" fill="none" xmlns="http://www.w3.org/2000/svg">
<path fill-rule="evenodd" clip-rule="evenodd" d="M18.962 18.3503C18.9077 18.2899 18.8141 18.2859 18.7547 18.3422L18.7528 18.3453C18.6933 18.4016 18.6923 18.4953 18.7507 18.5527L22 21.7537L18.962 18.3503Z" fill="black"/>
<path fill-rule="evenodd" clip-rule="evenodd" d="M17.7363 13.3344L17.7333 13.3375C17.6739 13.3938 17.6739 13.4874 17.7312 13.5448L21.1195 16.8777L17.9436 13.3425C17.8893 13.2821 17.7957 13.2781 17.7363 13.3344Z" fill="black"/>
<path fill-rule="evenodd" clip-rule="evenodd" d="M14.9661 12.6691L12.864 10.615C12.8323 11.6989 12.6618 13.9375 12.2285 14.9845C12.2218 15.0006 12.2123 15.0173 12.2046 15.0336C12.5107 15.2286 13.1547 15.6053 13.4109 15.6053C13.7308 15.6045 14.3686 15.251 14.5994 15.0294C14.7997 14.8355 15.0118 14.4468 15.2171 14.0708C15.3826 13.7675 15.5538 13.4538 15.7317 13.2132C15.8383 13.0695 15.9371 12.9641 16.0336 12.8909C16.2337 12.7405 16.5638 12.6194 16.9132 12.4913C17.3808 12.3199 17.9108 12.1255 18.0721 11.8616C18.2337 11.5979 18.1386 10.6832 18.0736 10.2482C17.632 10.2963 15.8393 10.4297 14.5473 9.60015C13.9323 9.20489 13.0262 8.34087 12.6073 7.92908C12.7575 8.81275 12.8561 9.72621 12.8656 10.34L14.9661 12.6691Z" fill="#FECD0F"/>
<path fill-rule="evenodd" clip-rule="evenodd" d="M14.8291 18.7941L14.8271 18.7962C14.7678 18.8525 14.7668 18.9471 14.8251 19.0035L18.0865 22.2196L15.0365 18.8022C14.9821 18.7418 14.8885 18.7378 14.8291 18.7941Z" fill="black"/>
<path fill-rule="evenodd" clip-rule="evenodd" d="M15.4563 15.8882C15.4201 15.8882 15.3849 15.9012 15.3567 15.9284C15.2973 15.9848 15.2963 16.0793 15.3557 16.1368L17.6467 18.3442L15.5651 15.9385C15.5368 15.9052 15.4966 15.8882 15.4563 15.8882Z" fill="black"/>
<path fill-rule="evenodd" clip-rule="evenodd" d="M12.1758 18.2175V18.4752L12.6651 18.1003C12.7097 18.0663 12.7694 18.0582 12.8212 18.0795C12.8732 18.1007 12.9089 18.1468 12.9167 18.2024C12.9328 18.4568 12.9938 19.1426 13.0904 19.3496C13.1814 19.5442 13.5112 19.9283 14.0191 20.4309C14.0335 20.4452 14.0492 20.4425 14.0571 20.4396C14.0655 20.4366 14.0797 20.4287 14.0817 20.4083C14.1048 20.291 14.1235 20.1507 14.117 20.1143C14 19.4672 13.0173 17.8243 12.8215 17.5016C12.809 17.4811 12.7912 17.4646 12.769 17.4529L11.9482 17.0211V17.3455L12.1758 17.5279V18.2175Z" fill="#FECD0F"/>
<path fill-rule="evenodd" clip-rule="evenodd" d="M10.7392 19.7907H10.7382C10.6788 19.8471 10.6778 19.9417 10.7361 19.999L13.1168 22.3203L10.9475 19.8018C10.8932 19.7393 10.7986 19.7343 10.7392 19.7907Z" fill="black"/>
<mask id="mask0_620_19274" style="mask-type:alpha" maskUnits="userSpaceOnUse" x="3" y="1" width="10" height="18">
<path d="M10.9243 11.3389L11.1504 11.5992L10.9663 11.6244C10.6678 11.6651 10.2018 11.7677 10.1003 11.8679C9.96296 12.004 9.82897 12.6056 9.7768 12.9528L9.77287 12.9789L9.75665 12.9997C9.66703 13.1146 9.35759 13.4901 9.13696 13.4994C9.13322 13.4996 9.12942 13.4996 9.12562 13.4996C8.98643 13.4996 8.82671 13.3933 8.63922 13.1781C8.46055 13.1669 8.03601 13.1108 7.88662 12.8347C7.80004 12.6747 7.95818 12.3183 8.03773 12.1588C8.03506 12.1381 8.03354 12.1172 8.03354 12.0963C8.03703 11.8823 8.25728 11.4722 8.45839 11.3712C8.60284 11.2979 8.81878 11.3212 9.04753 11.3457C9.24991 11.3672 9.47916 11.3919 9.56657 11.3263C9.69789 11.2284 9.7607 10.6382 9.76185 10.2701L9.76267 10.0018L10.2564 10.5701C10.3497 10.3382 10.4516 10.0405 10.4417 9.92679C10.4273 9.76948 10.1716 9.34216 10.0138 9.10999L10.1803 8.99672C10.2251 9.0627 10.6183 9.64791 10.6422 9.90885C10.66 10.1123 10.4758 10.5704 10.4039 10.7399L10.7881 11.1822C10.9753 10.9122 11.2934 10.4135 11.3051 10.2053C11.3199 9.93167 10.9925 9.23624 10.7076 8.72367C10.6915 8.69338 10.6823 8.67766 10.6817 8.67658L10.8552 8.57447C10.8552 8.57447 10.866 8.59292 10.8845 8.62752C11.0351 8.89842 11.5275 9.81847 11.5062 10.2164C11.4893 10.5135 11.0726 11.1286 10.9243 11.3389ZM7.343 7.86852C7.26142 8.0226 7.16781 8.17352 7.04199 8.30542C7.02285 8.32456 7.00276 8.34471 6.98159 8.36278C7.07223 8.34471 7.1789 8.35276 7.26548 8.44733C7.35605 8.54703 7.33894 8.91642 7.22219 8.98284C7.05207 9.07747 6.57493 8.70402 6.4481 8.60135C6.34745 8.62651 6.2468 8.64666 6.14412 8.66175C6.08771 8.6698 6.03739 8.62854 6.03238 8.57219C6.02832 8.51882 6.06864 8.47249 6.12194 8.46748C6.25587 8.45639 6.39074 8.4363 6.52055 8.40607C6.60111 8.38699 6.68065 8.3648 6.75411 8.33362C6.82757 8.3044 6.89298 8.26618 6.95744 8.21281C7.08427 8.11013 7.19202 7.97627 7.28963 7.83639C7.38629 7.69543 7.47382 7.54641 7.5493 7.39043C7.49296 7.55453 7.42349 7.71355 7.343 7.86852ZM4.55266 7.23337C3.97791 7.23337 3.51187 6.76732 3.51187 6.19359C3.51187 5.61884 3.97791 5.15273 4.55266 5.15273C4.65331 5.15273 4.75099 5.16788 4.84359 5.195C4.80733 5.06418 4.78724 4.92626 4.78724 4.78435C4.78724 3.91259 5.49287 3.20702 6.36457 3.20702C7.23525 3.20702 7.94088 3.91259 7.94088 4.78435C7.94088 5.65503 7.23525 6.36066 6.36457 6.36066C6.08271 6.36066 5.81897 6.28619 5.59048 6.15733C5.5915 6.16944 5.59251 6.18148 5.59251 6.19359C5.59251 6.76732 5.12646 7.23337 4.55266 7.23337ZM12.6649 10.5189H12.7655L12.693 10.4485L12.7655 10.379L12.6649 10.38C12.6583 9.7054 12.5361 8.63431 12.3535 7.65144C12.2805 7.25315 12.2023 6.90055 12.1271 6.63143C11.5508 4.56644 10.0035 2.94564 7.77025 2.0676C7.09752 1.80349 5.55606 1.80241 5.00952 2.1514C2.36871 3.83539 3.10071 6.52457 3.34124 7.40831C3.57626 8.27309 4.28139 9.4094 5.49503 9.76612L6.29104 9.84148L5.61368 9.9003C5.62838 9.96514 5.61659 10.043 5.592 10.1197L5.96995 10.1365L5.56031 10.2045C5.52602 10.2845 5.48558 10.3539 5.46017 10.3884C5.37904 10.4974 5.23972 10.618 5.09236 10.7457C4.91191 10.902 4.70738 11.0791 4.64374 11.2142C4.62276 11.2586 4.60185 11.3099 4.57992 11.3706C4.45062 11.7368 4.37862 12.2897 4.37748 12.9269C4.37551 13.7213 4.48459 14.5398 4.65541 15.0124C4.85398 15.563 5.81701 16.4129 6.3446 16.6953C6.47872 16.7667 6.6752 16.8281 6.92841 16.8775L6.90883 16.9777L6.91041 16.976L6.92968 16.8785C7.47039 16.9853 8.15866 17.0147 8.56976 16.9976C8.938 16.982 10.0436 16.6691 10.3931 16.5678L10.1418 15.9535L10.328 15.8772L11.2109 18.0353L11.9743 18.1069V17.6246L11.2774 17.0657L10.9549 15.559L11.1517 15.5167L11.2672 16.0563C11.4914 15.7644 11.8306 15.3078 11.9866 15.0216C12.0081 14.9829 12.0273 14.9435 12.0426 14.9072C12.4397 13.9475 12.6317 11.7844 12.6639 10.5647L12.6649 10.5189Z" fill="white"/>
</mask>
<g mask="url(#mask0_620_19274)">
<path fill-rule="evenodd" clip-rule="evenodd" d="M10.9243 11.3389L11.1504 11.5992L10.9663 11.6244C10.6678 11.6651 10.2018 11.7677 10.1003 11.8679C9.96296 12.004 9.82897 12.6056 9.7768 12.9528L9.77287 12.9789L9.75665 12.9997C9.66703 13.1146 9.35759 13.4901 9.13696 13.4994C9.13322 13.4996 9.12942 13.4996 9.12562 13.4996C8.98643 13.4996 8.82671 13.3933 8.63922 13.1781C8.46055 13.1669 8.03601 13.1108 7.88662 12.8347C7.80004 12.6747 7.95818 12.3183 8.03773 12.1588C8.03506 12.1381 8.03354 12.1172 8.03354 12.0963C8.03703 11.8823 8.25728 11.4722 8.45839 11.3712C8.60284 11.2979 8.81878 11.3212 9.04753 11.3457C9.24991 11.3672 9.47916 11.3919 9.56657 11.3263C9.69789 11.2284 9.7607 10.6382 9.76185 10.2701L9.76267 10.0018L10.2564 10.5701C10.3497 10.3382 10.4516 10.0405 10.4417 9.92679C10.4273 9.76948 10.1716 9.34216 10.0138 9.10999L10.1803 8.99672C10.2251 9.0627 10.6183 9.64791 10.6422 9.90885C10.66 10.1123 10.4758 10.5704 10.4039 10.7399L10.7881 11.1822C10.9753 10.9122 11.2934 10.4135 11.3051 10.2053C11.3199 9.93167 10.9925 9.23624 10.7076 8.72367C10.6915 8.69338 10.6823 8.67766 10.6817 8.67658L10.8552 8.57447C10.8552 8.57447 10.866 8.59292 10.8845 8.62752C11.0351 8.89842 11.5275 9.81847 11.5062 10.2164C11.4893 10.5135 11.0726 11.1286 10.9243 11.3389ZM7.343 7.86852C7.26142 8.0226 7.16781 8.17352 7.04199 8.30542C7.02285 8.32456 7.00276 8.34471 6.98159 8.36278C7.07223 8.34471 7.1789 8.35276 7.26548 8.44733C7.35605 8.54703 7.33894 8.91642 7.22219 8.98284C7.05207 9.07747 6.57493 8.70402 6.4481 8.60135C6.34745 8.62651 6.2468 8.64666 6.14412 8.66175C6.08771 8.6698 6.03739 8.62854 6.03238 8.57219C6.02832 8.51882 6.06864 8.47249 6.12194 8.46748C6.25587 8.45639 6.39074 8.4363 6.52055 8.40607C6.60111 8.38699 6.68065 8.3648 6.75411 8.33362C6.82757 8.3044 6.89298 8.26618 6.95744 8.21281C7.08427 8.11013 7.19202 7.97627 7.28963 7.83639C7.38629 7.69543 7.47382 7.54641 7.5493 7.39043C7.49296 7.55453 7.42349 7.71355 7.343 7.86852ZM4.55266 7.23337C3.97791 7.23337 3.51187 6.76732 3.51187 6.19359C3.51187 5.61884 3.97791 5.15273 4.55266 5.15273C4.65331 5.15273 4.75099 5.16788 4.84359 5.195C4.80733 5.06418 4.78724 4.92626 4.78724 4.78435C4.78724 3.91259 5.49287 3.20702 6.36457 3.20702C7.23525 3.20702 7.94088 3.91259 7.94088 4.78435C7.94088 5.65503 7.23525 6.36066 6.36457 6.36066C6.08271 6.36066 5.81897 6.28619 5.59048 6.15733C5.5915 6.16944 5.59251 6.18148 5.59251 6.19359C5.59251 6.76732 5.12646 7.23337 4.55266 7.23337ZM12.6649 10.5189H12.7655L12.693 10.4485L12.7655 10.379L12.6649 10.38C12.6583 9.7054 12.5361 8.63431 12.3535 7.65144C12.2805 7.25315 12.2023 6.90055 12.1271 6.63143C11.5508 4.56644 10.0035 2.94564 7.77025 2.0676C7.09752 1.80349 5.55606 1.80241 5.00952 2.1514C2.36871 3.83539 3.10071 6.52457 3.34124 7.40831C3.57626 8.27309 4.28139 9.4094 5.49503 9.76612L6.29104 9.84148L5.61368 9.9003C5.62838 9.96514 5.61659 10.043 5.592 10.1197L5.96995 10.1365L5.56031 10.2045C5.52602 10.2845 5.48558 10.3539 5.46017 10.3884C5.37904 10.4974 5.23972 10.618 5.09236 10.7457C4.91191 10.902 4.70738 11.0791 4.64374 11.2142C4.62276 11.2586 4.60185 11.3099 4.57992 11.3706C4.45062 11.7368 4.37862 12.2897 4.37748 12.9269C4.37551 13.7213 4.48459 14.5398 4.65541 15.0124C4.85398 15.563 5.81701 16.4129 6.3446 16.6953C6.47872 16.7667 6.6752 16.8281 6.92841 16.8775L6.90883 16.9777L6.91041 16.976L6.92968 16.8785C7.47039 16.9853 8.15866 17.0147 8.56976 16.9976C8.938 16.982 10.0436 16.6691 10.3931 16.5678L10.1418 15.9535L10.328 15.8772L11.2109 18.0353L11.9743 18.1069V17.6246L11.2774 17.0657L10.9549 15.559L11.1517 15.5167L11.2672 16.0563C11.4914 15.7644 11.8306 15.3078 11.9866 15.0216C12.0081 14.9829 12.0273 14.9435 12.0426 14.9072C12.4397 13.9475 12.6317 11.7844 12.6639 10.5647L12.6649 10.5189Z" fill="url(#paint0_linear_620_19274)"/>
</g>
<mask id="mask1_620_19274" style="mask-type:alpha" maskUnits="userSpaceOnUse" x="6" y="16" width="2" height="3">
<path d="M6.44446 16.9574C6.54137 17.3278 6.71821 17.9252 6.86272 18.1103C7.00438 18.2906 7.54046 18.6032 7.85946 18.776V17.6251C7.68345 17.6339 7.36914 17.6377 7.23927 17.5685C7.1035 17.4949 6.92306 17.2014 6.84478 17.0658C6.69216 17.0343 6.55798 16.9982 6.44446 16.9574Z" fill="white"/>
</mask>
<g mask="url(#mask1_620_19274)">
<path fill-rule="evenodd" clip-rule="evenodd" d="M6.44446 16.9574C6.54137 17.3278 6.71821 17.9252 6.86272 18.1103C7.00438 18.2906 7.54046 18.6032 7.85946 18.776V17.6251C7.68345 17.6339 7.36914 17.6377 7.23927 17.5685C7.1035 17.4949 6.92306 17.2014 6.84478 17.0658C6.69216 17.0343 6.55798 16.9982 6.44446 16.9574Z" fill="#356C00"/>
</g>
<path fill-rule="evenodd" clip-rule="evenodd" d="M9.68707 11.4875C9.53648 11.6003 9.28859 11.5738 9.02606 11.5458C8.92497 11.535 8.8162 11.5234 8.72405 11.5234C8.6516 11.5234 8.58942 11.5306 8.54905 11.551C8.4252 11.6132 8.2374 11.9403 8.23486 12.098C8.23486 12.1195 8.23759 12.1427 8.2431 12.1651L8.24355 12.1673C8.29793 12.4137 8.59468 12.7999 8.69217 12.9268C8.71112 12.9515 8.73488 12.9819 8.76239 13.0133C8.98816 13.2823 9.09889 13.2973 9.12855 13.2983C9.21196 13.2948 9.42594 13.0914 9.5818 12.8963C9.60968 12.7194 9.74342 11.9382 9.95879 11.7248C10.0982 11.587 10.5072 11.497 10.7577 11.4533L9.95493 10.5304C9.93642 10.8523 9.87684 11.3462 9.68707 11.4875Z" fill="#FECD0F"/>
<path fill-rule="evenodd" clip-rule="evenodd" d="M8.46898 17.6185H8.06067V18.5831L9.39175 19.9021L8.46898 17.6185Z" fill="#FECD0F"/>
<path fill-rule="evenodd" clip-rule="evenodd" d="M8.0643 12.7399C8.12717 12.8518 8.29579 12.918 8.47368 12.9519C8.35438 12.7975 8.22417 12.6144 8.13638 12.4417C8.08067 12.5812 8.04891 12.7032 8.0643 12.7399Z" fill="#FECD0F"/>
<path fill-rule="evenodd" clip-rule="evenodd" d="M5.00575 4.78436C5.00575 4.36661 5.34294 4.02941 5.7607 4.02941C6.17743 4.02941 6.51564 4.36661 6.51564 4.78436C6.51564 5.20103 6.17743 5.5393 5.7607 5.5393C5.34294 5.5393 5.00575 5.20103 5.00575 4.78436ZM4.41788 6.73006C4.12195 6.73006 3.88135 6.48953 3.88135 6.1936C3.88135 5.89665 4.12195 5.65605 4.41788 5.65605C4.71483 5.65605 4.95543 5.89665 4.95543 6.1936C4.95543 6.48953 4.71483 6.73006 4.41788 6.73006ZM6.36466 6.36067C7.23534 6.36067 7.94098 5.65504 7.94098 4.78436C7.94098 3.9126 7.23534 3.20703 6.36466 3.20703C5.49297 3.20703 4.78734 3.9126 4.78734 4.78436C4.78734 4.92627 4.80743 5.06419 4.84368 5.19501C4.75108 5.16788 4.65341 5.15273 4.55276 5.15273C3.97801 5.15273 3.51196 5.61885 3.51196 6.1936C3.51196 6.76733 3.97801 7.23338 4.55276 7.23338C5.12656 7.23338 5.59261 6.76733 5.59261 6.1936C5.59261 6.18149 5.59159 6.16945 5.59058 6.15734C5.81907 6.2862 6.0828 6.36067 6.36466 6.36067Z" fill="white"/>
<path fill-rule="evenodd" clip-rule="evenodd" d="M6.95745 8.21276C6.89299 8.26613 6.82758 8.30435 6.75412 8.33357C6.68066 8.36475 6.60111 8.38694 6.52055 8.40601C6.39075 8.43625 6.25587 8.45634 6.12194 8.46743C6.06864 8.47244 6.02833 8.51877 6.03239 8.57214C6.03739 8.62849 6.08772 8.66975 6.14413 8.6617C6.24681 8.64661 6.34746 8.62646 6.44811 8.60129C6.48734 8.59128 6.52563 8.5812 6.56391 8.57011C6.64941 8.54393 6.73498 8.51376 6.81858 8.47345C6.87797 8.44531 6.93228 8.40601 6.9816 8.36272C7.00277 8.34466 7.02286 8.32451 7.042 8.30536C7.16781 8.17347 7.26143 8.02255 7.343 7.86847C7.4235 7.7135 7.49296 7.55448 7.54931 7.39038C7.47382 7.54636 7.38629 7.69538 7.28963 7.83634C7.19202 7.97622 7.08427 8.11008 6.95745 8.21276Z" fill="black"/>
<path fill-rule="evenodd" clip-rule="evenodd" d="M6.56404 8.57022C6.52576 8.58132 6.48748 8.59139 6.44824 8.60141C6.57507 8.70409 7.05221 9.07753 7.22233 8.98291C7.33908 8.91648 7.35619 8.54709 7.26562 8.44739C7.17904 8.35282 7.07237 8.34477 6.98173 8.36284C6.93242 8.40613 6.8781 8.44543 6.81871 8.47357C6.73511 8.51388 6.64954 8.54405 6.56404 8.57022Z" fill="#CA1117"/>
<path fill-rule="evenodd" clip-rule="evenodd" d="M6.5155 4.78436C6.5155 4.36661 6.1773 4.02942 5.76056 4.02942C5.34281 4.02942 5.00562 4.36661 5.00562 4.78436C5.00562 5.20104 5.34281 5.53931 5.76056 5.53931C6.1773 5.53931 6.5155 5.20104 6.5155 4.78436Z" fill="black"/>
<path fill-rule="evenodd" clip-rule="evenodd" d="M4.41788 5.65613C4.12195 5.65613 3.88135 5.89673 3.88135 6.19367C3.88135 6.4896 4.12195 6.73014 4.41788 6.73014C4.71482 6.73014 4.95542 6.4896 4.95542 6.19367C4.95542 5.89673 4.71482 5.65613 4.41788 5.65613Z" fill="black"/>
<path fill-rule="evenodd" clip-rule="evenodd" d="M3.48528 11.1168C3.40605 11.1213 3.3542 11.1475 3.32701 11.1972C3.24221 11.3523 3.38799 11.7188 3.55265 12.0101L3.55937 12.022C3.56305 12.0288 3.56609 12.0347 3.56926 12.039C3.58136 12.0582 3.58612 12.0678 3.58612 12.0678L3.49611 12.1129C3.49561 12.112 3.49231 12.1055 3.4861 12.0955C3.48325 12.0921 3.47761 12.0823 3.47121 12.0707L3.46594 12.0612C3.30299 11.7967 3.06943 11.5218 2.90704 11.5448C2.79853 11.5598 2.73274 11.7138 2.69661 11.8403C2.68425 11.8839 2.75505 11.9801 2.80671 12.0503C2.85101 12.1105 2.89284 12.1675 2.90939 12.2174C2.92701 12.2693 2.9317 12.3428 2.93664 12.4208C2.94247 12.5131 2.94906 12.6179 2.97885 12.6621C3.04249 12.7538 3.21818 12.9328 3.33652 12.9328C3.33722 12.9328 3.33798 12.9328 3.33874 12.9328C3.37537 12.9325 3.45105 12.8435 3.49637 12.764L3.62884 12.5312L3.58986 12.7962C3.57376 12.9058 3.58219 13.0252 3.60729 13.0419C3.74508 13.1355 4.01984 13.0168 4.17627 12.9287C4.17627 12.928 4.1762 12.9272 4.1762 12.9264C4.17728 12.2982 4.24713 11.7468 4.37225 11.3605C4.27793 11.3142 4.0419 11.2004 3.94752 11.1746C3.8366 11.1437 3.60158 11.1114 3.48528 11.1168Z" fill="#FECD0F"/>
<path fill-rule="evenodd" clip-rule="evenodd" d="M11.9867 15.0216C11.8306 15.3078 11.4915 15.7644 11.2673 16.0563L11.1517 15.5167L10.955 15.559L11.2775 17.0657L11.9744 17.6246V18.1069L11.211 18.0353L10.3281 15.8772L10.1418 15.9535L10.3931 16.5678C10.0437 16.669 8.93806 16.982 8.56981 16.9976C8.15871 17.0147 7.47045 16.9853 6.92973 16.8785L6.91046 16.976L6.90888 16.9777L6.92847 16.8775C6.67525 16.8281 6.47877 16.7667 6.34465 16.6953C5.81706 16.4129 4.85403 15.563 4.65546 15.0124C4.48464 14.5398 4.37556 13.7213 4.37753 12.9269C4.37867 12.2897 4.45067 11.7368 4.57997 11.3706C4.6019 11.3098 4.62282 11.2586 4.6438 11.2142C4.70743 11.0791 4.91196 10.902 5.09241 10.7457C5.23978 10.618 5.37909 10.4974 5.46022 10.3884C5.48564 10.3538 5.52607 10.2844 5.56036 10.2045L5.97 10.1364L5.59205 10.1197C5.61665 10.043 5.62844 9.96512 5.61373 9.90028L6.2911 9.84147L5.49508 9.7661C4.28144 9.40939 3.57631 8.27308 3.34129 7.40829C3.10076 6.52456 2.36876 3.83538 5.00957 2.15138C5.55612 1.8024 7.09757 1.80348 7.77031 2.06759C10.0035 2.94562 11.5509 4.56643 12.1271 6.63142C12.2024 6.90054 12.2806 7.25313 12.3535 7.65143C12.5362 8.63429 12.6584 9.70538 12.6649 10.38L12.7656 10.379L12.6931 10.4485L12.7656 10.5189H12.6649L12.664 10.5647C12.6318 11.7844 12.4397 13.9475 12.0426 14.9072C12.0274 14.9435 12.0082 14.9829 11.9867 15.0216ZM11.9482 17.0211L12.7689 17.4528C12.7912 17.4646 12.8089 17.4811 12.8215 17.5016C13.0173 17.8242 14 19.4671 14.1169 20.1142C14.1234 20.1506 14.1047 20.291 14.0817 20.4083C14.0796 20.4286 14.0654 20.4365 14.057 20.4395C14.0491 20.4425 14.0335 20.4452 14.0191 20.4308C13.5112 19.9283 13.1814 19.5442 13.0903 19.3496C12.9937 19.1425 12.9327 18.4568 12.9167 18.2024C12.9088 18.1467 12.8732 18.1007 12.8212 18.0794C12.7693 18.0581 12.7096 18.0662 12.665 18.1003L12.1757 18.4752V17.5279L11.9482 17.3455V17.0211ZM7.23923 17.5684C7.3691 17.6377 7.68341 17.6338 7.85942 17.625V18.7759C7.54042 18.6031 7.00433 18.2905 6.86267 18.1102C6.71816 17.9252 6.54133 17.3277 6.44442 16.9573C6.55793 16.9981 6.69211 17.0343 6.84474 17.0658C6.92301 17.2013 7.10346 17.4948 7.23923 17.5684ZM4.17623 12.9264C4.17623 12.9272 4.17629 12.928 4.17629 12.9287C4.01986 13.0167 3.7451 13.1354 3.60731 13.0419C3.58221 13.0252 3.57378 12.9057 3.58988 12.7962L3.62886 12.5311L3.49639 12.7639C3.45107 12.8435 3.37539 12.9324 3.33876 12.9328C3.338 12.9328 3.33724 12.9328 3.33654 12.9328C3.21821 12.9328 3.04251 12.7537 2.97888 12.662C2.94909 12.6179 2.94249 12.5131 2.93666 12.4208C2.93172 12.3428 2.92703 12.2693 2.90941 12.2174C2.89287 12.1675 2.85103 12.1105 2.80673 12.0503C2.75507 11.9801 2.68428 11.8838 2.69663 11.8403C2.73276 11.7138 2.79855 11.5598 2.90706 11.5448C3.06945 11.5218 3.30301 11.7967 3.46597 12.0612L3.47123 12.0706C3.47763 12.0822 3.48327 12.092 3.48612 12.0955C3.49233 12.1055 3.49563 12.112 3.49614 12.1128L3.58614 12.0678C3.58614 12.0678 3.58139 12.0582 3.56928 12.0389C3.56611 12.0346 3.56307 12.0287 3.55939 12.0219L3.55267 12.0101C3.38801 11.7188 3.24223 11.3522 3.32703 11.1972C3.35422 11.1475 3.40607 11.1212 3.4853 11.1168C3.6016 11.1113 3.83662 11.1437 3.94754 11.1745C4.04192 11.2003 4.27795 11.3141 4.37227 11.3605C4.24715 11.7467 4.1773 12.2982 4.17623 12.9264ZM14.5472 9.60011C15.8392 10.4297 17.6319 10.2963 18.0736 10.2482C18.1385 10.6832 18.2336 11.5978 18.072 11.8616C17.9107 12.1254 17.3807 12.3198 16.9131 12.4912C16.5637 12.6194 16.2336 12.7404 16.0336 12.8908C15.937 12.964 15.8383 13.0695 15.7317 13.2132C15.5537 13.4538 15.3826 13.7675 15.217 14.0708C15.0118 14.4467 14.7996 14.8355 14.5993 15.0294C14.3686 15.2509 13.7308 15.6044 13.4108 15.6053C13.1546 15.6053 12.5106 15.2286 12.2045 15.0335C12.2122 15.0172 12.2217 15.0006 12.2285 14.9844C12.6617 13.9375 12.8322 11.6989 12.8639 10.6149L14.9661 12.6691L12.8655 10.34C12.856 9.72617 12.7575 8.81271 12.6072 7.92904C13.0261 8.34083 13.9322 9.20486 14.5472 9.60011ZM8.06072 17.6185H8.46903L9.39181 19.902L8.06072 18.5831V17.6185ZM13.4111 15.8067C13.794 15.8055 14.4805 15.4224 14.739 15.1744C14.9616 14.9589 15.1716 14.5743 15.3938 14.1672C15.556 13.8699 15.7238 13.5624 15.8934 13.333C15.9884 13.2049 16.0741 13.1128 16.1549 13.0515C16.3308 12.9192 16.6473 12.8031 16.9824 12.6802C17.5053 12.4886 18.0459 12.2903 18.2437 11.9667C18.4889 11.5667 18.2816 10.2668 18.2572 10.1199L18.2411 10.023L18.1437 10.0367C18.1228 10.0398 16.0444 10.3222 14.6561 9.43075C13.9237 8.96014 12.7192 7.7586 12.5458 7.58411C12.4734 7.19298 12.3958 6.84514 12.321 6.57723C11.7274 4.45 10.1374 2.78197 7.84383 1.88023C7.19435 1.62525 5.55022 1.56732 4.90125 1.98171C2.13558 3.74531 2.89686 6.54218 3.14703 7.46115C3.39453 8.37164 4.13832 9.56708 5.42048 9.95308C5.42713 10.0069 5.36813 10.1738 5.29847 10.2685C5.23065 10.3596 5.09951 10.4732 4.96058 10.5936C4.75554 10.7712 4.54359 10.9548 4.4617 11.1283C4.44287 11.1682 4.42418 11.2141 4.4051 11.2645C4.30191 11.2139 4.07393 11.1048 3.97442 11.0775C3.85577 11.0445 3.6087 11.0097 3.47997 11.0163C3.36456 11.0227 3.28336 11.0673 3.23874 11.1489C3.17308 11.2689 3.20274 11.45 3.26524 11.6299C3.14899 11.5122 3.01862 11.427 2.89331 11.4451C2.76306 11.4631 2.66431 11.5868 2.59985 11.8128C2.57393 11.9038 2.65106 12.0086 2.72566 12.1099C2.76338 12.1611 2.80236 12.2141 2.81396 12.2494C2.82739 12.289 2.83183 12.3592 2.8362 12.427C2.84311 12.5374 2.85034 12.6513 2.89578 12.7189C2.94262 12.7863 3.15711 13.0383 3.34034 13.0335C3.39086 13.0329 3.44036 12.9967 3.48169 12.9535C3.48619 13.0237 3.50374 13.0939 3.55103 13.1254C3.60465 13.1619 3.66854 13.1762 3.73629 13.1762C3.88987 13.1762 4.06252 13.1022 4.17699 13.0425C4.18535 13.8216 4.2964 14.6113 4.46607 15.0808C4.67828 15.6691 5.63623 16.5275 6.20952 16.8499C6.26086 17.0593 6.49024 17.9605 6.70416 18.2343C6.92866 18.5201 7.81385 18.9811 7.91399 19.0327L8.06072 19.1082V18.8666L9.32627 20.1206C9.3612 20.1554 9.40658 20.1734 9.4524 20.1734C9.48644 20.1734 9.52079 20.1636 9.5514 20.1433C9.62347 20.0956 9.6511 20.0062 9.61865 19.9261L8.60473 17.4172H8.06072V17.409L7.95221 17.4175C7.74654 17.4337 7.41873 17.4361 7.33462 17.3912C7.28676 17.3652 7.19765 17.2486 7.1105 17.1139C7.52083 17.1768 7.97706 17.2035 8.33206 17.2035C8.42137 17.2035 8.50427 17.2018 8.5783 17.1987C8.98122 17.1817 10.1386 16.8518 10.4699 16.7553L11.0708 18.2244L11.9744 18.3091V18.5697C11.9744 18.6291 12.0076 18.6823 12.0611 18.7085C12.1144 18.7347 12.177 18.7281 12.2239 18.6919L12.7225 18.3099C12.7405 18.5543 12.7971 19.1971 12.9079 19.4349C13.0373 19.7113 13.5066 20.2068 13.8771 20.5736C13.9227 20.619 13.9824 20.6432 14.0441 20.6432C14.0708 20.6432 14.0979 20.6386 14.1242 20.6292C14.2118 20.5983 14.2723 20.5216 14.2806 20.4385C14.2928 20.3772 14.3313 20.1703 14.3151 20.0789C14.195 19.4135 13.2733 17.858 12.9933 17.3967C12.9618 17.3453 12.9167 17.3032 12.8628 17.2748L11.9929 16.8172C11.94 16.7902 11.8781 16.7925 11.8273 16.8236C11.7769 16.8544 11.7469 16.9081 11.7469 16.9671V17.184L11.4593 16.9534L11.3225 16.314C11.5478 16.0253 11.9082 15.5495 12.1095 15.2118C12.3691 15.3767 13.077 15.8067 13.4111 15.8067Z" fill="black"/>
<path fill-rule="evenodd" clip-rule="evenodd" d="M9.9589 11.7248C9.74353 11.9382 9.60979 12.7194 9.5819 12.8962C9.42605 13.0914 9.21207 13.2948 9.12866 13.2983C9.099 13.2973 8.98827 13.2822 8.7625 13.0133C8.73499 12.9819 8.71123 12.9515 8.69227 12.9268C8.59479 12.7999 8.29804 12.4136 8.24366 12.1673L8.24321 12.1651C8.2377 12.1427 8.23497 12.1195 8.23497 12.0979C8.23751 11.9402 8.42531 11.6132 8.54916 11.551C8.58953 11.5305 8.65171 11.5234 8.72416 11.5234C8.81631 11.5234 8.92508 11.535 9.02617 11.5458C9.2887 11.5738 9.53659 11.6003 9.68718 11.4875C9.87695 11.3462 9.93653 10.8523 9.95503 10.5304L10.7578 11.4533C10.5073 11.497 10.0983 11.5869 9.9589 11.7248ZM8.06422 12.7399C8.04939 12.7032 8.08 12.5812 8.13369 12.4416C8.2183 12.6143 8.3438 12.7974 8.45877 12.9518C8.28733 12.918 8.12481 12.8517 8.06422 12.7399ZM10.8553 8.57446L10.6818 8.67657C10.6824 8.67765 10.6916 8.69337 10.7078 8.72366C10.9926 9.23624 11.32 9.93166 11.3053 10.2053C11.2935 10.4135 10.9754 10.9122 10.7883 11.1822L10.404 10.7398C10.4759 10.5704 10.6602 10.1123 10.6424 9.90885C10.6185 9.6479 10.2252 9.0627 10.1804 8.99671L10.0139 9.10998C10.1717 9.34215 10.4274 9.76947 10.4418 9.92678C10.4518 10.0405 10.3498 10.3382 10.2565 10.57L9.7628 10.0018L9.76197 10.2701C9.76083 10.6382 9.69802 11.2284 9.56669 11.3263C9.47929 11.3919 9.25004 11.3672 9.04766 11.3457C8.81891 11.3212 8.60297 11.2979 8.45852 11.3712C8.25741 11.4722 8.03716 11.8822 8.03367 12.0963C8.03367 12.1172 8.03519 12.1381 8.03785 12.1588C7.95831 12.3183 7.80017 12.6746 7.88675 12.8347C8.03614 13.1108 8.46068 13.1669 8.63935 13.1781C8.82683 13.3933 8.98656 13.4996 9.12574 13.4996C9.12955 13.4996 9.13335 13.4996 9.13709 13.4994C9.35772 13.4901 9.66715 13.1146 9.75678 12.9997L9.773 12.9789L9.77693 12.9528C9.82909 12.6056 9.96308 12.004 10.1004 11.8679C10.2019 11.7677 10.668 11.6651 10.9664 11.6243L11.1505 11.5992L10.9244 11.3389C11.0727 11.1286 11.4895 10.5135 11.5063 10.2164C11.5277 9.81846 11.0352 8.89841 10.8846 8.62751C10.8662 8.59291 10.8553 8.57446 10.8553 8.57446Z" fill="black"/>
<defs>
<linearGradient id="paint0_linear_620_19274" x1="6.83907" y1="1.87854" x2="12.1986" y2="15.8372" gradientUnits="userSpaceOnUse">
<stop stop-color="#B8E27F"/>
<stop offset="1" stop-color="#2A6700"/>
</linearGradient>
</defs>
</svg>
