<svg viewBox="0 0 24 24" fill="none" xmlns="http://www.w3.org/2000/svg">
<g clip-path="url(#clip0_1265_22335)">
<path d="M12 24C18.6274 24 24 18.6274 24 12C24 5.37258 18.6274 0 12 0C5.37258 0 0 5.37258 0 12C0 18.6274 5.37258 24 12 24Z" fill="#13A0F6"/>
<path fill-rule="evenodd" clip-rule="evenodd" d="M6.85774 9.36787C6.59162 9.22828 6.36876 9.01854 6.21333 8.76135C6.05789 8.50417 5.97579 8.20935 5.97593 7.90885C5.85973 7.68851 5.79516 7.44463 5.78711 7.19566C5.77906 6.9467 5.82775 6.69916 5.92947 6.47178C6.0312 6.2444 6.18331 6.04313 6.3743 5.88321C6.56529 5.72329 6.79014 5.6089 7.03186 5.54869C7.27357 5.48849 7.52581 5.48405 7.7695 5.53571C8.01318 5.58737 8.24192 5.69378 8.43842 5.84688C8.63491 5.99998 8.79401 6.19577 8.90368 6.41943C9.01335 6.64309 9.07071 6.88876 9.07142 7.13786C9.99977 6.59498 11.0561 6.30959 12.1316 6.31113C15.4902 6.31113 18.2138 9.04016 18.2138 12.4056C18.2138 15.771 15.4908 18.5 12.1316 18.5C8.77228 18.5 6.04936 15.7716 6.04936 12.4056C6.04779 11.3396 6.32658 10.292 6.85774 9.36787ZM12.1316 15.4038C13.7837 15.4038 15.123 14.0617 15.123 12.4056C15.123 10.7494 13.7837 9.4073 12.1316 9.4073C10.4795 9.4073 9.14009 10.7501 9.14009 12.4056C9.14009 14.0611 10.4795 15.4038 12.1316 15.4038Z" fill="white"/>
</g>
<defs>
<clipPath id="clip0_1265_22335">
<rect width="24" height="24" fill="white"/>
</clipPath>
</defs>
</svg>