<svg viewBox="0 0 24 24" fill="none" xmlns="http://www.w3.org/2000/svg">
<path fill-rule="evenodd" clip-rule="evenodd" d="M19.9833 7.91333V20.3326C19.9833 21.252 19.2368 22 18.3185 22H6.66482C5.74658 22 5 21.252 5 20.3326V3.6666C5 2.74805 5.74658 2 6.66482 2H14.1565C14.1948 2 14.2273 2.01672 14.264 2.02173C14.3006 2.02675 14.3331 2.03343 14.369 2.04346C14.5123 2.08191 14.6448 2.14376 14.7464 2.24489L19.6492 7.15358C19.6759 7.17197 19.6884 7.20373 19.7125 7.22546C19.7367 7.24802 19.7559 7.27394 19.7775 7.29985C19.9058 7.44611 20 7.6233 20 7.83309C20 7.86151 19.9867 7.88575 19.9833 7.91333ZM14.9889 4.84508V6.99978H17.142L14.9889 4.84508ZM18.3185 8.66639H14.1565C13.6965 8.66639 13.3241 8.29362 13.3241 7.83309V3.62731H6.66814L6.66481 20.3326H18.3185V8.66639ZM8.32964 11.1663H13.3241C13.784 11.1663 14.1565 11.5399 14.1565 11.9996C14.1565 12.4601 13.784 12.8329 13.3241 12.8329H8.32964C7.86969 12.8329 7.49723 12.4601 7.49723 11.9996C7.49723 11.5399 7.86969 11.1663 8.32964 11.1663ZM8.32964 13.6662H13.3241C13.784 13.6662 14.1565 14.0398 14.1565 14.5003C14.1565 14.96 13.784 15.3336 13.3241 15.3336H8.32964C7.86969 15.3336 7.49723 14.96 7.49723 14.5003C7.49723 14.0398 7.86969 13.6662 8.32964 13.6662ZM8.32964 16.1669H13.3241C13.784 16.1669 14.1565 16.5397 14.1565 16.9994C14.1565 17.4599 13.784 17.8327 13.3241 17.8327H8.32964C7.86969 17.8327 7.49723 17.4599 7.49723 16.9994C7.49723 16.5397 7.86969 16.1669 8.32964 16.1669ZM15.8213 11.1663H16.6537C17.1137 11.1663 17.4861 11.5399 17.4861 11.9996C17.4861 12.4601 17.1137 12.8329 16.6537 12.8329H15.8213C15.3613 12.8329 14.9889 12.4601 14.9889 11.9996C14.9889 11.5399 15.3613 11.1663 15.8213 11.1663ZM15.8213 13.6662H16.6537C17.1137 13.6662 17.4861 14.0398 17.4861 14.5003C17.4861 14.96 17.1137 15.3336 16.6537 15.3336H15.8213C15.3613 15.3336 14.9889 14.96 14.9889 14.5003C14.9889 14.0398 15.3613 13.6662 15.8213 13.6662ZM15.8213 16.1669H16.6537C17.1137 16.1669 17.4861 16.5397 17.4861 16.9994C17.4861 17.4599 17.1137 17.8327 16.6537 17.8327H15.8213C15.3613 17.8327 14.9889 17.4599 14.9889 16.9994C14.9889 16.5397 15.3613 16.1669 15.8213 16.1669Z" fill="currentColor"/>
</svg>