<svg width="24" height="24" viewBox="0 0 24 24" fill="none" xmlns="http://www.w3.org/2000/svg">
<path fill-rule="evenodd" clip-rule="evenodd" d="M21.2983 12.1508C21.254 12.1575 21.2097 12.1608 21.1663 12.1608C20.7634 12.1608 20.4099 11.8692 20.3439 11.4592C20.2001 10.5608 19.8926 9.54583 19.5416 8.81083C19.3435 8.395 19.519 7.89833 19.9344 7.69917C20.3472 7.50083 20.847 7.67667 21.0451 8.0925C21.4663 8.975 21.8198 10.135 21.9895 11.1958C22.0622 11.65 21.753 12.0775 21.2983 12.1508ZM19.061 7.16917C18.8136 7.16917 18.5679 7.05833 18.4033 6.8475C16.8296 4.82583 14.4636 3.66667 11.9129 3.66667C10.559 3.66667 9.28695 3.94917 8.13278 4.50583C7.71825 4.705 7.22014 4.5325 7.01957 4.11667C6.81982 3.7025 6.99366 3.20417 7.40819 3.005C8.79051 2.33833 10.3066 2 11.9129 2C14.9817 2 17.8258 3.39333 19.7187 5.82333C20.0012 6.18583 19.936 6.71 19.5733 6.99333C19.4212 7.11167 19.2407 7.16917 19.061 7.16917ZM10.3935 6.045C10.5807 6.46583 10.3902 6.9575 9.96977 7.14416C8.04003 8 6.69281 10.0017 6.69281 12.0125C6.69281 12.3033 6.69866 12.565 6.70869 12.8025C6.72791 13.2625 6.37021 13.6508 5.90971 13.67C5.89801 13.67 5.88715 13.67 5.87545 13.67C5.43083 13.67 5.06143 13.3192 5.04304 12.8708C5.03301 12.6125 5.02633 12.3283 5.02633 12.0125C5.02633 9.3625 6.7814 6.73416 9.29449 5.62C9.7157 5.43416 10.208 5.62416 10.3935 6.045ZM3.66648 11.9875C3.66648 13.1467 3.79769 13.8583 3.93643 14.6125C4.05176 15.2433 4.17211 15.8958 4.23312 16.8292C4.2632 17.2883 3.9147 17.685 3.45587 17.715C3.43749 17.7158 3.4191 17.7167 3.40071 17.7167C2.96529 17.7167 2.5984 17.3783 2.56998 16.9375C2.51566 16.1017 2.4045 15.4975 2.29669 14.9133C2.15043 14.12 2 13.2992 2 11.9875C2 9.015 3.1199 6.36166 5.15495 4.51833C5.49593 4.20833 6.02245 4.235 6.33251 4.57583C6.6409 4.9175 6.615 5.44416 6.27401 5.75333C4.59249 7.2775 3.66648 9.49083 3.66648 11.9875ZM5.536 18.585C5.67056 18.185 5.75915 17.92 5.75915 17.5092C5.75915 16.7375 5.6271 16.25 5.49923 15.7783L5.40981 15.4383C5.29949 14.9917 5.57194 14.54 6.01823 14.4292C6.46368 14.3175 6.91666 14.5917 7.02781 15.0383L7.10804 15.3425C7.24928 15.865 7.42646 16.5167 7.42646 17.5092C7.42646 18.1925 7.26851 18.6617 7.1164 19.115C7.05539 19.2983 6.98853 19.4967 6.92501 19.7333C6.82473 20.105 6.48875 20.3508 6.12019 20.3508C6.04915 20.3508 5.97644 20.3417 5.90457 20.3225C5.45995 20.2033 5.19585 19.7467 5.31537 19.3017C5.38808 19.0283 5.46496 18.7975 5.536 18.585ZM8.22134 20.2725C8.57569 19.4875 8.8097 18.9692 8.8097 17.6525C8.8097 15.7492 8.60578 15.0658 8.40771 14.4058C8.23304 13.8225 8.05252 13.2208 8.05252 12.0125C8.05252 9.79334 9.71231 8.11917 11.9128 8.11917C12.1694 8.11917 12.4243 8.1425 12.67 8.18667C13.123 8.26834 13.4239 8.70167 13.342 9.155C13.2601 9.6075 12.8271 9.9075 12.3742 9.82667C12.2237 9.8 12.07 9.78667 11.9128 9.78667C10.6216 9.78667 9.71983 10.7017 9.71983 12.0125C9.71983 12.9758 9.84519 13.3967 10.004 13.9275C10.2255 14.6675 10.4762 15.5042 10.4762 17.6525C10.4762 19.3275 10.1185 20.12 9.73989 20.9583C9.67136 21.1108 9.59948 21.2692 9.52761 21.4408C9.39305 21.7583 9.08466 21.9492 8.75956 21.9492C8.65175 21.9492 8.54143 21.9283 8.43529 21.8833C8.01156 21.7042 7.81349 21.215 7.99234 20.7908C8.07007 20.6067 8.14696 20.4375 8.22134 20.2725ZM12.6699 17.195C12.6674 17.195 12.6641 17.195 12.6616 17.195C12.2019 17.1908 11.8325 16.8142 11.8359 16.3542C11.8568 14.1233 11.2174 12.5125 11.1447 12.3358L11.9127 12.0125L12.7075 11.76C12.8262 12.0392 13.5257 13.8625 13.5032 16.37C13.4982 16.8275 13.1263 17.195 12.6699 17.195ZM11.8635 18.7883C11.9178 18.3317 12.3365 18.0058 12.7895 18.0608C13.2467 18.1158 13.5726 18.5308 13.5174 18.9875C13.2985 20.8175 12.6516 21.5958 12.5246 21.7333C12.3608 21.91 12.1368 22 11.9128 22C11.7106 22 11.5066 21.9267 11.347 21.7775C11.0144 21.47 10.9901 20.9542 11.2877 20.6158C11.3153 20.5808 11.7106 20.0558 11.8635 18.7883ZM15.3327 9.92833C15.7129 10.4933 15.977 11.1817 16.1191 11.975L16.1659 12.2375C16.4785 13.9667 16.7735 15.5992 16.2177 19.3025C16.2152 19.3175 15.972 20.8558 15.6185 21.52C15.4681 21.8017 15.1806 21.9625 14.8822 21.9625C14.7501 21.9625 14.6156 21.9308 14.4911 21.8642C14.0849 21.6475 13.9311 21.1433 14.1467 20.7367C14.2713 20.5025 14.4869 19.6008 14.5696 19.0542C15.0844 15.6242 14.8262 14.1917 14.5262 12.5333L14.4785 12.2683C14.3782 11.7042 14.2002 11.2308 13.9495 10.8592C13.6929 10.4775 13.7941 9.96 14.1752 9.7025C14.5579 9.445 15.0753 9.54666 15.3327 9.92833ZM12.0708 6.7275C11.612 6.695 11.266 6.29583 11.2986 5.83667C11.332 5.3775 11.7265 5.035 12.1895 5.065C16.1334 5.34667 18.196 8.03833 18.812 10.4625L18.8713 10.6942C19.3845 12.7125 19.5976 13.5483 19.5566 16.0175C19.5274 17.7892 19.2307 19.1767 19.0568 19.8467C18.9591 20.2217 18.6206 20.47 18.2503 20.47C18.181 20.47 18.1108 20.4617 18.0397 20.4433C17.5951 20.3275 17.3277 19.8725 17.4438 19.4267C17.5993 18.8292 17.8642 17.5883 17.8901 15.99C17.9269 13.7433 17.7572 13.0783 17.2558 11.105L17.1965 10.8733C16.7243 9.01167 15.1297 6.94583 12.0708 6.7275Z" fill="#6B7084"/>
</svg>
