<svg width="24" height="24" viewBox="0 0 24 24" fill="none" xmlns="http://www.w3.org/2000/svg">
<path fill-rule="evenodd" clip-rule="evenodd" d="M17.6667 15.75C17.6667 18.2767 15.61 20.3333 13.0833 20.3333H12.6667V21.1667C12.6667 21.6267 12.2942 22 11.8333 22C11.3725 22 11 21.6267 11 21.1667V20.3333H9.33333V21.1667C9.33333 21.6267 8.96083 22 8.5 22C8.03917 22 7.66667 21.6267 7.66667 21.1667V20.3333H6.83333C6.3725 20.3333 6 19.96 6 19.5V4.5C6 4.04 6.3725 3.66667 6.83333 3.66667H7.66667V2.83333C7.66667 2.37333 8.03917 2 8.5 2C8.96083 2 9.33333 2.37333 9.33333 2.83333V3.66667H11V2.83333C11 2.37333 11.3725 2 11.8333 2C12.2942 2 12.6667 2.37333 12.6667 2.83333V3.70917C14.9958 3.92333 16.8333 5.865 16.8333 8.25C16.8333 9.64167 16.1967 10.8758 15.2133 11.7167C16.665 12.4867 17.6667 13.9958 17.6667 15.75ZM12.25 5.33333C12.1758 5.33333 12.11 5.30916 12.0417 5.29166C11.9733 5.30916 11.9075 5.33333 11.8333 5.33333H7.66667V11.1667H12.25C13.8583 11.1667 15.1667 9.85833 15.1667 8.25C15.1667 6.64166 13.8583 5.33333 12.25 5.33333ZM13.0833 12.8333H7.66667V18.6667H13.0833C14.6917 18.6667 16 17.3583 16 15.75C16 14.1417 14.6917 12.8333 13.0833 12.8333Z" fill="#6B7084"/>
</svg>
