<svg width="24" height="24" viewBox="0 0 24 24" fill="none" xmlns="http://www.w3.org/2000/svg">
<path fill-rule="evenodd" clip-rule="evenodd" d="M12 22C6.48583 22 2 17.5133 2 12C2 6.48583 6.48583 2 12 2C17.5142 2 22 6.48583 22 12C22 17.5133 17.5142 22 12 22ZM12 3.66667C7.405 3.66667 3.66667 7.405 3.66667 12C3.66667 16.595 7.405 20.3333 12 20.3333C16.595 20.3333 20.3333 16.595 20.3333 12C20.3333 7.405 16.595 3.66667 12 3.66667ZM12.8333 16.9775V17C12.8333 17.46 12.4608 17.8333 12 17.8333C11.5392 17.8333 11.1667 17.46 11.1667 17C11.1667 17.46 10.7942 17.8333 10.3333 17.8333C9.8725 17.8333 9.5 17.46 9.5 17C9.03917 17 8.66667 16.6267 8.66667 16.1667V7.83333C8.66667 7.37333 9.03917 7 9.5 7C9.5 6.54 9.8725 6.16667 10.3333 6.16667C10.7942 6.16667 11.1667 6.54 11.1667 7C11.1667 6.54 11.5392 6.16667 12 6.16667C12.4608 6.16667 12.8333 6.54 12.8333 7V7.17917C13.8008 7.58167 14.5 8.65083 14.5 9.91667C14.5 10.5467 14.3242 11.1267 14.0317 11.6033C14.8092 12.1167 15.3333 13.0317 15.3333 14.0833C15.3333 15.615 14.2275 16.8608 12.8333 16.9775ZM12 8.66667H10.3333V11.1667H12C12.4433 11.1667 12.8333 10.5825 12.8333 9.91667C12.8333 9.25083 12.4433 8.66667 12 8.66667ZM12.625 12.8333H10.3333V15.3333H12.625C13.1992 15.3333 13.6667 14.7725 13.6667 14.0833C13.6667 13.3942 13.1992 12.8333 12.625 12.8333Z" fill="#6B7084"/>
</svg>
