<svg viewBox="0 0 24 24" fill="none" xmlns="http://www.w3.org/2000/svg">
<path d="M3.68229 18.45C4.51131 19.3378 9.0701 23.5913 16.225 18.6545C21.3999 14.5862 21.2701 5.76634 20.7734 3.10133C20.6003 3.48929 14.5964 16.7776 3.68229 18.45ZM20.7734 3.09958C20.7094 3.07337 14.0529 2.15765 7.47262 6.4374C3.38633 9.09367 2.84461 12.9837 3.03153 15.5823C12.5974 14.4953 20.5553 3.4054 20.7734 3.09958Z" fill="#97C554"/>
<path d="M20.7734 3.09958C20.7094 3.07337 14.0529 2.15765 7.47262 6.4374C3.38633 9.09367 2.84461 12.9837 3.03153 15.5823C12.5974 14.4953 20.5553 3.4054 20.7734 3.09958Z" fill="#709B30"/>
</svg>