<svg viewBox="0 0 24 24" fill="none" xmlns="http://www.w3.org/2000/svg">
<path d="M5.34938 6.76318H8.16887L5.97663 12.1774C5.97663 12.1774 4.83063 12.1585 4.48022 11.1474C4.38207 10.8472 4.37382 10.5244 4.45653 10.2194L5.34938 6.76318Z" fill="#D53127"/>
<path d="M16.2845 6.87907L12.6994 6.81611L13.5062 4.12916C13.5805 3.88319 13.5968 3.62308 13.5538 3.36961C13.5107 3.11615 13.4095 2.87637 13.2583 2.66946C13.1071 2.46254 12.91 2.29423 12.6828 2.17799C12.4556 2.06174 12.2046 2.00079 11.9499 2H8.67779L4.93677 15.567C4.93677 15.567 3.59623 21.3689 8.67779 21.894C8.67779 21.894 16.711 23.5523 19.2886 13.7513C19.2886 13.7513 20.6491 7.8234 16.2845 6.87907ZM13.8342 13.6078C13.8342 13.6078 13.6908 16.1109 11.8202 16.5503C11.5441 16.6204 11.2522 16.5901 10.996 16.4647C10.7029 16.3136 10.3999 16.0001 10.4074 15.3428C10.4123 15.1528 10.4425 14.9644 10.4972 14.7825L11.188 12.1774H13.0735C13.0735 12.1774 13.9277 12.4582 13.8342 13.6078Z" fill="#F47320"/>
<path d="M19.4607 11.019C19.1178 7.03638 16.2846 6.879 16.2846 6.879L12.6995 6.81604L11.1594 12.2088H13.0399C13.3853 12.2277 14.0151 12.8031 13.8106 13.8217" fill="url(#paint0_linear_620_19193)"/>
<defs>
<linearGradient id="paint0_linear_620_19193" x1="18.8023" y1="16.3463" x2="13.0752" y2="7.64228" gradientUnits="userSpaceOnUse">
<stop offset="0.41" stop-color="#F47320"/>
<stop offset="0.5" stop-color="#F16D21"/>
<stop offset="0.62" stop-color="#E95C22"/>
<stop offset="0.75" stop-color="#DC4125"/>
<stop offset="0.81" stop-color="#D53127"/>
</linearGradient>
</defs>
</svg>