<svg width="24" height="24" viewBox="0 0 24 24" fill="none" xmlns="http://www.w3.org/2000/svg">
<path d="M18.0771 11.6933C18.9205 10.6265 19.3782 9.3058 19.3761 7.94592C19.3761 4.60072 16.6657 2 13.322 2H5.97034V2.75658H13.159C16.1141 2.75658 18.5099 5.04485 18.5099 8.00001C18.5117 9.14887 18.1422 10.2676 17.4565 11.1893L18.0771 11.6933Z" fill="#55A49F"/>
<path d="M17.2573 11.0668C18.0619 10.2489 18.5121 9.14715 18.5107 7.99987C18.5107 6.8387 18.0495 5.72508 17.2285 4.90395C16.4075 4.08281 15.2939 3.6214 14.1328 3.62122H7.91638V4.37851H14.2943C14.763 4.37823 15.2271 4.47029 15.6601 4.64944C16.0932 4.82859 16.4867 5.09131 16.8181 5.42259C17.1496 5.75386 17.4126 6.14721 17.592 6.58015C17.7714 7.01309 17.8637 7.47714 17.8637 7.94578C17.8643 8.46613 17.7508 8.98028 17.5312 9.452C17.3116 9.92373 16.9912 10.3416 16.5926 10.676L17.2573 11.0668Z" fill="#4A8C89"/>
<path d="M16.0579 10.4961C17.0807 10.0491 17.8636 9.07547 17.8636 7.94593C17.8636 6.39362 16.3889 5.13525 14.8366 5.13525H9.42944V5.56728H14.7811C16.0622 5.56728 17.3213 6.60857 17.3213 7.89184C17.3213 8.9317 16.4971 9.81355 15.5013 10.1089L16.0579 10.4961Z" fill="#5AABA5"/>
<path d="M3.80811 21.2434H4.99743V22H3.80811V21.2434Z" fill="#4A8C8A"/>
<path d="M4.99744 19.7297H9.75403V20.2699H4.99744V19.7297Z" fill="#5AABA6"/>
<path d="M4.99744 16.3788H10.0786V16.8115H4.99744V16.3788Z" fill="#4B8F8E"/>
<path d="M11.0516 16.3788H14.2951V16.8115H11.0516V16.3788Z" fill="#7CC6C7"/>
<path d="M5.97034 14.8649H7.69988V15.2976H5.97034V14.8649Z" fill="#5AB5B4"/>
<path d="M8.67297 14.8649H14.2943V15.2976H8.67297V14.8649Z" fill="#428989"/>
<path d="M10.5106 8.05432H14.1861V8.48706H10.5106V8.05432Z" fill="#549391"/>
<path d="M6.18677 5.13525H8.24086V5.56799H6.18677V5.13525Z" fill="#306563"/>
<path d="M6.72705 6.75659H14.2943V7.18933H6.72705V6.75659Z" fill="#64B9B9"/>
<path d="M4.78113 8.05432H9.42953V8.48706H4.78113V8.05432Z" fill="#7FD6D5"/>
<path d="M6.07861 21.1353V21.8919H14.2943C17.6395 21.8919 20.3484 19.2897 20.3484 15.9459C20.3484 14.3403 19.7105 12.8004 18.5752 11.6651C17.4398 10.5297 15.8999 9.89185 14.2943 9.89185H8.99748V10.541H14.1327C15.5519 10.5411 16.913 11.1051 17.9164 12.1087C18.9199 13.1123 19.4836 14.4734 19.4836 15.8926C19.4836 18.8484 17.0879 21.136 14.1327 21.136L6.07861 21.1353Z" fill="#55A49F"/>
<path d="M7.37537 11.5132V12.2705H15.2672C15.7357 12.2704 16.1997 12.3626 16.6325 12.5418C17.0654 12.721 17.4588 12.9838 17.7901 13.3151C18.1214 13.6463 18.3842 14.0396 18.5636 14.4724C18.7429 14.9053 18.8352 15.3692 18.8352 15.8377C18.8352 16.784 18.4593 17.6916 17.7901 18.3607C17.121 19.0298 16.2135 19.4057 15.2672 19.4057H10.6188V20.2705H15.1028C15.6778 20.2705 16.2471 20.1572 16.7783 19.9372C17.3095 19.7171 17.7922 19.3946 18.1987 18.988C18.6052 18.5814 18.9277 18.0987 19.1477 17.5674C19.3676 17.0362 19.4808 16.4668 19.4807 15.8918C19.4807 14.7307 19.0195 13.617 18.1985 12.7959C17.3775 11.9748 16.2639 11.5134 15.1028 11.5132H7.37537Z" fill="#4A8C89"/>
<path d="M9.64587 13.1353V13.5673H15.7541C17.0352 13.5673 18.2943 14.6086 18.2943 15.8918C18.2943 17.173 17.0381 18.2164 15.7541 18.2164H3.69995V18.7566H15.8082C17.3605 18.7566 18.8352 17.4983 18.8352 15.9459C18.8352 14.3936 17.3605 13.1353 15.8082 13.1353H9.64587Z" fill="#5AABA5"/>
</svg>
