<svg width="24" height="24" viewBox="0 0 24 24" fill="none" xmlns="http://www.w3.org/2000/svg">
<path d="M14.6301 5.88556L14.2935 5.96971V7.18986C14.2935 7.82097 13.8728 8.36794 13.2837 8.57831L9.87573 9.63017V11.4814L14.3356 10.093C15.3875 9.75639 16.0186 8.87283 16.0186 7.65268V6.81119C16.0606 6.26423 15.3875 5.63311 14.6301 5.88556Z" fill="#0E0E0E"/>
<path d="M7.5196 5.3386L13.8307 3.36111C14.5039 3.15074 15.0509 3.15073 15.3875 3.19281L14.5881 2.60377C14.2094 2.35132 13.1155 1.72021 11.727 2.14095L5.79456 4.07637L7.5196 5.3386Z" fill="#0E0E0E"/>
<path d="M17.1125 10.8083C17.1125 10.8083 18.2065 9.79852 18.2065 7.61066V6.68502C18.2065 5.2545 16.5656 2.94041 13.9149 3.7819L7.72997 5.75939V17.3298L9.49709 16.7828V13.9218L15.135 12.1547C16.1869 11.8181 17.0705 12.6596 17.0705 13.5852V14.7212C17.0705 15.8572 16.0607 17.4981 14.4619 18.003L5.79456 20.6957L7.5196 22L15.3033 19.5597C16.9442 19.0549 18.7534 17.6243 18.7534 14.6371V13.5011C18.7955 11.6498 17.1125 10.8083 17.1125 10.8083ZM14.5039 10.5138L9.49709 12.1126V7.06369L14.5039 5.46487C15.5558 5.12827 16.4814 5.96976 16.4814 6.85332V7.6948C16.4814 9.08325 15.682 10.1351 14.5039 10.5138Z" fill="#0E0E0E"/>
<path d="M16.6076 14.679V13.5851C16.6076 12.954 15.9765 12.365 15.2612 12.5753L14.8826 12.7016V14.2583C14.8826 15.0156 14.3777 15.6888 13.6624 15.9413L7.26712 17.9188V5.67515L5.5 4.37085V20.317L14.2935 17.5401C15.682 17.1193 16.6076 15.7309 16.6076 14.679Z" fill="#0E0E0E"/>
</svg>
