<svg viewBox="0 0 24 24" fill="none" xmlns="http://www.w3.org/2000/svg">
<path fill-rule="evenodd" clip-rule="evenodd" d="M13.1938 10.8485C12.8452 10.7934 12.4872 10.8127 12.1355 10.8095C11.6131 10.8095 11.0907 10.8163 10.571 10.8064C10.5647 11.7517 10.5647 12.6969 10.571 13.642C11.1982 13.6353 11.8228 13.6388 12.4487 13.6388C12.7807 13.6388 13.1207 13.6514 13.4388 13.5322C13.6534 13.4554 13.845 13.3255 13.9957 13.1545C14.1463 12.9835 14.2512 12.7771 14.3004 12.5546C14.3743 12.1805 14.3358 11.771 14.1212 11.4484C13.9178 11.1258 13.5616 10.9224 13.1938 10.8485Z" fill="#149F49"/>
<path fill-rule="evenodd" clip-rule="evenodd" d="M12 2C6.47715 2 2 6.47715 2 12C2 17.5228 6.47715 22 12 22C17.5228 22 22 17.5228 22 12C22 6.47715 17.5228 2 12 2ZM7.83333 13.7518C8.36559 13.7612 8.875 13.4225 9.09453 12.9418C9.1966 12.7165 9.24095 12.4694 9.22357 12.2227C9.24597 11.7451 9.01389 11.2581 8.60753 10.9969C8.38351 10.8356 8.10753 10.7728 7.83647 10.7549C7.83333 10.3772 7.83647 10.0031 7.83333 9.62903C8.22357 9.64516 8.60394 9.46461 8.8638 9.17742C9.11501 8.89494 9.24391 8.52435 9.22222 8.14695C9.17742 7.68907 8.9086 7.24686 8.49328 7.03719C8.29301 6.92115 8.06407 6.87903 7.83513 6.86962C7.82841 6.45654 7.83513 6.04704 7.83199 5.6371C9.60932 5.63396 11.3866 5.63082 13.1671 5.6371C13.8737 5.6819 14.5901 5.931 15.1156 6.41801C15.4694 6.74943 15.7069 7.18603 15.793 7.66308C15.8705 8.23387 15.819 8.85663 15.4736 9.33737C15.2545 9.67921 14.9189 9.92742 14.5609 10.1147C15.1156 10.3275 15.6125 10.7177 15.8898 11.25C16.2706 11.9794 16.2608 12.9019 15.8513 13.6147C15.5703 14.1147 15.0995 14.4919 14.5739 14.7115C14.0484 14.931 13.4642 15.0081 12.8965 15.0018H7.83378C7.83244 14.5838 7.83557 14.1676 7.83244 13.7518H7.83333ZM16.1667 18.3611C15.0345 18.3741 13.8992 18.3647 12.7616 18.3678C11.1196 18.3647 9.47805 18.3741 7.83602 18.3611C7.82616 17.9162 7.82616 17.4677 7.83602 17.0193C9.55197 17.0063 11.2684 17.0193 12.9884 17.0161C14.0466 17.0193 15.108 17.0063 16.1658 17.0193C16.1743 17.4677 16.1743 17.9162 16.1644 18.3611H16.1667Z" fill="#149F49"/>
<path fill-rule="evenodd" clip-rule="evenodd" d="M12.2679 9.58054C12.5483 9.57427 12.8324 9.60653 13.103 9.51916C13.5483 9.39327 13.9484 9.0223 14.0192 8.55142C14.0837 8.16433 14.0098 7.73556 13.7387 7.43852C13.4515 7.11908 13.0062 6.96451 12.5837 6.98064H10.5645C10.5676 7.84847 10.5676 8.71271 10.5645 9.5792L12.2679 9.58054Z" fill="#149F49"/>
<path d="M12.8968 15C13.4644 15.0063 14.0482 14.9355 14.5742 14.7097C15.1002 14.4839 15.5706 14.1129 15.8515 13.6129C16.261 12.9001 16.2709 11.9776 15.8901 11.2482C15.6127 10.716 15.1159 10.3258 14.5612 10.1129C14.9196 9.92566 15.2548 9.67745 15.4739 9.33561C15.8193 8.85487 15.8708 8.23211 15.7933 7.66132C15.7072 7.18427 15.4697 6.74767 15.1159 6.41625C14.5894 5.92924 13.8726 5.68059 13.1674 5.63534C11.3869 5.62906 9.60961 5.6322 7.83228 5.63534C7.83541 6.04528 7.82869 6.45478 7.83541 6.86786C8.06435 6.87727 8.2933 6.91939 8.49357 7.03543C8.90934 7.2451 9.17726 7.68731 9.22251 8.14519C9.2442 8.52259 9.1153 8.89318 8.86409 9.17566C8.60244 9.46285 8.22206 9.6434 7.83362 9.62727C7.83676 10.0014 7.83362 10.3755 7.83676 10.7532C8.10781 10.7724 8.38514 10.8338 8.60781 10.9951C9.01418 11.2563 9.24626 11.7433 9.22385 12.2209C9.24123 12.4676 9.19689 12.7147 9.09482 12.94C8.87529 13.4207 8.36588 13.7594 7.83362 13.75C7.83676 14.1658 7.83362 14.582 7.83362 14.9982L12.8968 15ZM14.3 12.5547C14.2508 12.7772 14.146 12.9836 13.9953 13.1546C13.8446 13.3256 13.653 13.4555 13.4385 13.5323C13.1226 13.6515 12.7803 13.6389 12.4483 13.6389C11.8211 13.6389 11.1965 13.6353 10.5706 13.6421C10.5644 12.6967 10.5644 11.7515 10.5706 10.8065C11.0903 10.8163 11.6127 10.8096 12.1351 10.8096C12.4868 10.8128 12.8448 10.7935 13.1934 10.8486C13.5612 10.9225 13.9161 11.1259 14.119 11.4485C14.3354 11.7711 14.3739 12.1806 14.3 12.5547ZM10.5644 6.98077H12.5836C13.0061 6.96464 13.4515 7.11921 13.7386 7.43865C14.0097 7.7357 14.0836 8.16446 14.0191 8.55156C13.9483 9.02243 13.5482 9.3934 13.1029 9.5193C12.8341 9.60666 12.5482 9.57441 12.2678 9.58068H10.5653C10.5675 8.71285 10.5675 7.8486 10.5644 6.98077Z" fill="white"/>
<path d="M12.9871 17.0162C11.268 17.0193 9.55163 17.0063 7.83479 17.0193C7.82493 17.4674 7.82493 17.9154 7.83479 18.3612C9.47681 18.3742 11.1184 18.3648 12.7604 18.3679C13.8962 18.3648 15.0315 18.3742 16.1654 18.3612C16.1753 17.9163 16.1753 17.4678 16.1654 17.0193C15.1067 17.0063 14.0454 17.0193 12.9871 17.0162Z" fill="#73C692"/>
</svg>