<svg viewBox="0 0 24 24" fill="none" xmlns="http://www.w3.org/2000/svg">
<g clip-path="url(#clip0_1265_22327)">
<path d="M12 24C18.6274 24 24 18.6274 24 12C24 5.37258 18.6274 0 12 0C5.37258 0 0 5.37258 0 12C0 18.6274 5.37258 24 12 24Z" fill="#2AABE4"/>
<path fill-rule="evenodd" clip-rule="evenodd" d="M7.05 6.5H10.8389C10.9848 6.5 11.1247 6.55795 11.2278 6.66109C11.3309 6.76424 11.3889 6.90413 11.3889 7.05V10.8389C11.3889 10.9848 11.3309 11.1247 11.2278 11.2278C11.1247 11.3309 10.9848 11.3889 10.8389 11.3889H7.05C6.90413 11.3889 6.76424 11.3309 6.66109 11.2278C6.55795 11.1247 6.5 10.9848 6.5 10.8389V7.05C6.5 6.90413 6.55795 6.76424 6.66109 6.66109C6.76424 6.55795 6.90413 6.5 7.05 6.5ZM13.1611 6.5H16.95C17.0959 6.5 17.2358 6.55795 17.3389 6.66109C17.4421 6.76424 17.5 6.90413 17.5 7.05V10.8389C17.5 10.9848 17.4421 11.1247 17.3389 11.2278C17.2358 11.3309 17.0959 11.3889 16.95 11.3889H13.1611C13.0152 11.3889 12.8753 11.3309 12.7722 11.2278C12.6691 11.1247 12.6111 10.9848 12.6111 10.8389V7.05C12.6111 6.90413 12.6691 6.76424 12.7722 6.66109C12.8753 6.55795 13.0152 6.5 13.1611 6.5ZM13.1611 12.6111H16.95C17.0959 12.6111 17.2358 12.6691 17.3389 12.7722C17.4421 12.8753 17.5 13.0152 17.5 13.1611V16.95C17.5 17.0959 17.4421 17.2358 17.3389 17.3389C17.2358 17.4421 17.0959 17.5 16.95 17.5H13.1611C13.0152 17.5 12.8753 17.4421 12.7722 17.3389C12.6691 17.2358 12.6111 17.0959 12.6111 16.95V13.1611C12.6111 13.0152 12.6691 12.8753 12.7722 12.7722C12.8753 12.6691 13.0152 12.6111 13.1611 12.6111ZM7.05 12.6111H10.8389C10.9848 12.6111 11.1247 12.6691 11.2278 12.7722C11.3309 12.8753 11.3889 13.0152 11.3889 13.1611V16.95C11.3889 17.0959 11.3309 17.2358 11.2278 17.3389C11.1247 17.4421 10.9848 17.5 10.8389 17.5H7.05C6.90413 17.5 6.76424 17.4421 6.66109 17.3389C6.55795 17.2358 6.5 17.0959 6.5 16.95V13.1611C6.5 13.0152 6.55795 12.8753 6.66109 12.7722C6.76424 12.6691 6.90413 12.6111 7.05 12.6111Z" fill="white"/>
</g>
<defs>
<clipPath id="clip0_1265_22327">
<rect width="24" height="24" fill="white"/>
</clipPath>
</defs>
</svg>