<svg width="24" height="24" viewBox="0 0 24 24" fill="none" xmlns="http://www.w3.org/2000/svg">
<g clip-path="url(#clip0_1265_22323)">
<path d="M12 24C18.6274 24 24 18.6274 24 12C24 5.37258 18.6274 0 12 0C5.37258 0 0 5.37258 0 12C0 18.6274 5.37258 24 12 24Z" fill="#181818"/>
<path d="M16.7669 8.48285C16.7944 9.06009 16.6392 9.63133 16.3234 10.1153C16.0075 10.5992 15.547 10.9712 15.0075 11.1782C15.0075 11.1782 15.7384 10.456 15.7044 8.60491C15.6698 6.75381 14.3105 5.83873 14.3105 5.83873C14.3105 5.83873 16.7329 6.37824 16.7661 8.48212L16.7669 8.48285ZM8.70378 18.3696L6.22217 18.4916V18.2598C6.22217 18.2598 7.74104 18.1031 7.74104 15.3781V8.41568C7.74104 6.10885 6.22217 5.70945 6.22217 5.70945V5.5L8.70378 5.62134V18.3696ZM12.6703 18.4996C11.5906 18.509 9.5878 18.358 9.5878 18.358V5.63939C10.9081 5.62134 11.3696 5.43933 12.4573 5.59606C13.5457 5.75206 14.4802 6.83903 14.7352 7.926C14.9902 9.01297 14.7186 10.0479 14.3697 10.6127C14.0209 11.1775 13.2568 11.5697 13.2568 11.5697C13.2568 11.5697 14.4124 11.9698 14.8204 12.3172C15.2285 12.6653 16.0193 13.6129 15.7131 15.6742C15.4069 17.7354 13.7493 18.4909 12.6703 18.4996ZM15.5383 18.0301C15.5383 18.0301 16.7156 17.0045 16.6636 14.9238C16.6116 12.843 15.5383 11.8651 15.5383 11.8651C15.5383 11.8651 17.7527 12.4212 17.7773 14.8999C17.8033 17.3779 15.5383 18.0308 15.5383 18.0308V18.0301ZM13.2994 10.5665C14.0924 9.51132 13.8432 7.52588 12.8827 6.84698C11.9221 6.16807 10.9109 6.50752 10.7159 6.69892C10.5195 6.89031 10.5282 11.3429 10.5282 11.3429C10.5282 11.3429 12.5056 11.6217 13.2987 10.5665H13.2994ZM13.446 12.4624C12.7035 12.1316 10.5282 12.2183 10.5282 12.2183C10.5282 12.2183 10.4942 13.3428 10.5737 15.4474C10.6531 17.552 11.3558 17.5404 12.0867 17.5693C12.8177 17.5982 14.2116 17.5462 14.6702 15.7312C15.1295 13.917 14.1885 12.7924 13.446 12.4624Z" fill="white"/>
</g>
<defs>
<clipPath id="clip0_1265_22323">
<rect width="24" height="24" fill="white"/>
</clipPath>
</defs>
</svg>
