<svg width="24" height="24" viewBox="0 0 24 24" fill="none" xmlns="http://www.w3.org/2000/svg">
<g clip-path="url(#clip0_1265_22317)">
<path d="M12 24C18.6274 24 24 18.6274 24 12C24 5.37258 18.6274 0 12 0C5.37258 0 0 5.37258 0 12C0 18.6274 5.37258 24 12 24Z" fill="#101341"/>
<path fill-rule="evenodd" clip-rule="evenodd" d="M8.91839 6.42859H15.25L18.5 12L15.25 17.5714H8.86206L12.0563 12L8.91777 6.42859H8.91839ZM12.2798 8.38849L14.3542 12L12.2804 15.6115H14.1301L16.2027 12L14.1289 8.38849H12.2804H12.2798Z" fill="white"/>
<path opacity="0.5" fill-rule="evenodd" clip-rule="evenodd" d="M9.59376 8.92085L7.79728 12L9.57766 15.0519L8.43923 17.0384L5.5 12L8.46461 6.91699L9.59376 8.92085Z" fill="white"/>
</g>
<defs>
<clipPath id="clip0_1265_22317">
<rect width="24" height="24" fill="white"/>
</clipPath>
</defs>
</svg>
