<svg width="24" height="24" viewBox="0 0 24 24" fill="none" xmlns="http://www.w3.org/2000/svg">
<path fill-rule="evenodd" clip-rule="evenodd" d="M14.9885 8.39819L10.0116 12L14.9885 15.6026C15.196 15.7533 15.3236 15.9911 15.3329 16.2482C15.3413 16.5044 15.2321 16.7513 15.0355 16.9163L9.20187 21.8058C9.16239 21.8392 9.11535 21.8552 9.07167 21.8803C9.03723 21.9004 9.00699 21.9246 8.96919 21.9389C8.87091 21.9774 8.76928 22 8.6668 22C8.54668 22 8.43412 21.9732 8.33081 21.9272C8.30561 21.9163 8.28713 21.8945 8.26277 21.8811C8.18549 21.8376 8.11409 21.7882 8.05529 21.7229C8.04689 21.7145 8.03513 21.7112 8.02757 21.7028C8.00237 21.6718 7.99313 21.635 7.97297 21.6015C7.9419 21.5521 7.91082 21.5052 7.88982 21.4491C7.86966 21.393 7.86378 21.3369 7.85622 21.2791C7.85034 21.2406 7.83354 21.2071 7.83354 21.1669V13.5774L3.322 16.8426C3.17417 16.9489 3.00365 17.0008 2.83397 17.0008C2.5761 17.0008 2.32075 16.8803 2.15863 16.6551C1.88816 16.2825 1.97216 15.7617 2.34511 15.4921L7.16911 12L2.34511 8.50871C1.97216 8.23912 1.88816 7.71751 2.15863 7.34578C2.42742 6.97321 2.94905 6.88948 3.322 7.15824L7.83354 10.4235V2.83389C7.83354 2.7937 7.85034 2.76021 7.85622 2.7217C7.86378 2.66393 7.86966 2.607 7.88982 2.55174C7.91082 2.49565 7.9419 2.44876 7.97297 2.39936C7.99313 2.36587 8.00237 2.32904 8.02757 2.29806C8.03597 2.28885 8.04773 2.28466 8.05613 2.27545C8.09561 2.23192 8.14433 2.20177 8.19221 2.16745C8.23337 2.13731 8.27117 2.10382 8.31653 2.08289C8.36021 2.06279 8.40808 2.05526 8.45596 2.0427C8.51476 2.02763 8.57104 2.01005 8.63152 2.00754C8.64412 2.0067 8.6542 2 8.6668 2C8.70544 2 8.7382 2.01758 8.77516 2.02261C8.83479 2.03014 8.89191 2.03684 8.94987 2.05777C9.00447 2.07786 9.04983 2.108 9.09855 2.13898C9.13299 2.15908 9.17079 2.16829 9.20187 2.19508L15.0355 7.08372C15.2321 7.2495 15.3413 7.49565 15.3329 7.75268C15.3236 8.00971 15.196 8.24665 14.9885 8.39819ZM9.5001 19.3803L13.1456 16.3252L9.5001 13.687V19.3803ZM9.5001 4.61973V10.313L13.1456 7.67482L9.5001 4.61973Z" fill="#6B7084"/>
</svg>
