<svg viewBox="0 0 24 24" fill="none" xmlns="http://www.w3.org/2000/svg">
<g clip-path="url(#clip0_1265_22313)">
<path d="M12 24C18.6274 24 24 18.6274 24 12C24 5.37258 18.6274 0 12 0C5.37258 0 0 5.37258 0 12C0 18.6274 5.37258 24 12 24Z" fill="#18578C"/>
<path d="M8.5931 15.0352C9.0565 15.5077 9.0565 16.2735 8.5931 16.746C8.1297 17.2185 7.3779 17.2199 6.9131 16.7481C6.6891 16.5213 6.5631 16.2126 6.5631 15.8906C6.5631 15.5686 6.6891 15.2606 6.9131 15.0331C7.02254 14.9211 7.15328 14.8322 7.29762 14.7716C7.44196 14.7109 7.59698 14.6798 7.75354 14.68C7.91011 14.6802 8.06505 14.7117 8.20923 14.7727C8.35342 14.8337 8.48394 14.923 8.5931 15.0352ZM16.3372 6.9082C16.5559 7.00203 16.7422 7.15824 16.8727 7.35731C17.0031 7.55638 17.0721 7.78948 17.0708 8.0275C17.0708 8.5175 16.781 8.9585 16.3372 9.1461C15.8934 9.3337 15.3817 9.2301 15.0422 8.8836C14.8183 8.65491 14.6932 8.34751 14.6936 8.0275C14.6936 7.7055 14.8189 7.3975 15.0422 7.1714C15.2067 7.00255 15.4182 6.88718 15.6492 6.84036C15.8802 6.79353 16.12 6.81742 16.3372 6.9089V6.9082ZM8.437 14.1021L9.5829 12.9289C9.69509 13.2163 9.86433 13.4779 10.0804 13.6981C10.2965 13.9182 10.5549 14.0923 10.8401 14.2099L9.6914 15.3796L8.437 14.1021ZM15.2249 9.8062L14.0762 10.9766C13.9647 10.6892 13.7956 10.4276 13.5792 10.208C13.3642 9.98869 13.1067 9.81553 12.8225 9.6991L13.9705 8.5287L15.2249 9.8062ZM14.744 15.3656C14.8319 15.1459 14.9834 14.9575 15.1791 14.8244C15.3748 14.6914 15.6057 14.6197 15.8423 14.6187C16.3232 14.6187 16.7565 14.9134 16.9406 15.3656C17.124 15.8185 17.0225 16.3386 16.683 16.6851C16.5736 16.7974 16.4429 16.8867 16.2986 16.9478C16.1542 17.0089 15.9991 17.0405 15.8423 17.0407C15.6857 17.0404 15.5307 17.0087 15.3864 16.9477C15.2422 16.8866 15.1116 16.7973 15.0023 16.6851C14.8355 16.5142 14.7222 16.2983 14.6763 16.0639C14.6305 15.8295 14.654 15.5868 14.744 15.3656ZM6.7745 7.457C6.86232 7.23719 7.01377 7.04861 7.20944 6.91542C7.40512 6.78222 7.6361 6.71049 7.8728 6.7094C8.3537 6.7094 8.787 7.0041 8.9711 7.457C9.1545 7.9092 9.053 8.43 8.7135 8.7765C8.60408 8.88869 8.47335 8.97787 8.32898 9.03882C8.18461 9.09976 8.02951 9.13124 7.8728 9.1314C7.71621 9.13115 7.56125 9.09963 7.417 9.03868C7.27276 8.97774 7.14213 8.8886 7.0328 8.7765C6.86601 8.60556 6.75273 8.38966 6.70684 8.15528C6.66096 7.92089 6.68448 7.67822 6.7745 7.457ZM13.876 15.3278L12.7245 14.1609C13.0097 14.0433 13.2681 13.8692 13.4842 13.6491C13.7003 13.4289 13.8695 13.1673 13.9817 12.8799L15.1297 14.0503L13.876 15.3278ZM9.7873 8.4608L10.9353 9.6319C10.6518 9.74683 10.3951 9.91914 10.1814 10.138C9.9658 10.3578 9.7957 10.621 9.6816 10.9094L8.5336 9.739L9.7873 8.4608ZM11.8467 7.4241C11.1894 7.4241 10.6567 6.8816 10.6567 6.2117C10.6567 5.5418 11.1894 5 11.8467 5C12.1617 5 12.4648 5.1274 12.6881 5.3549C12.9114 5.5824 13.0367 5.8904 13.036 6.2117C13.036 6.8816 12.504 7.4241 11.846 7.4241H11.8467ZM13.0367 17.7883C13.0367 18.4575 12.5033 19 11.8467 19C11.1901 19 10.6567 18.4575 10.6567 17.7883C10.6567 17.1191 11.1894 16.5759 11.8467 16.5759C12.1617 16.5759 12.4648 16.7033 12.6881 16.9308C12.9114 17.1583 13.0367 17.4663 13.036 17.7883H13.0367ZM12.2786 8.0583V9.5591C12.0309 9.51533 11.7773 9.51533 11.5296 9.5591V8.0583H12.2786ZM12.2786 14.5067V16.0082H11.5296V14.506C11.7774 14.5501 12.0308 14.5501 12.2786 14.506V14.5067ZM16.011 12.1323C15.9209 11.9109 15.8973 11.668 15.9432 11.4333C15.989 11.1987 16.1024 10.9826 16.2693 10.8114C16.4339 10.6423 16.6456 10.5268 16.8769 10.4798C17.1082 10.4329 17.3482 10.4567 17.5657 10.5482C18.0102 10.7358 18.3 11.1782 18.3 11.6682C18.3 11.9902 18.1747 12.2982 17.9521 12.5257C17.8146 12.6668 17.6439 12.7712 17.4556 12.8293C17.2673 12.8874 17.0674 12.8973 16.8743 12.8582C16.6812 12.819 16.501 12.7321 16.3501 12.6053C16.1993 12.4785 16.0827 12.3158 16.011 12.1323ZM5 11.874C5 11.2048 5.532 10.6623 6.19 10.6623C6.8466 10.6623 7.3793 11.2041 7.38 11.8733C7.38 12.1953 7.254 12.5033 7.0314 12.7308C6.92183 12.843 6.79097 12.9321 6.64649 12.9931C6.502 13.054 6.34681 13.0855 6.19 13.0857C5.5327 13.0857 5 12.5432 5 11.8747V11.874ZM15.5581 12.2555L14.0853 12.2541C14.1283 12.0016 14.1283 11.7436 14.0853 11.4911H15.5581V12.2555ZM9.508 12.2555H8.0345V11.4925H9.508C9.46505 11.745 9.46505 12.003 9.508 12.2555ZM11.811 13.6814C10.8793 13.6814 10.124 12.9121 10.124 11.9636C10.124 11.0151 10.8793 10.2451 11.811 10.2451C12.742 10.2451 13.4973 11.0151 13.498 11.9636C13.498 12.9121 12.742 13.6814 11.811 13.6814Z" fill="white"/>
</g>
<defs>
<clipPath id="clip0_1265_22313">
<rect width="24" height="24" fill="white"/>
</clipPath>
</defs>
</svg>