<svg viewBox="0 0 24 24" fill="none" xmlns="http://www.w3.org/2000/svg">
<g clip-path="url(#clip0_1265_22309)">
<path d="M12 24C18.6274 24 24 18.6274 24 12C24 5.37258 18.6274 0 12 0C5.37258 0 0 5.37258 0 12C0 18.6274 5.37258 24 12 24Z" fill="#F8D339"/>
<path d="M9.4754 10.9626L12 8.438L14.5259 10.9639L15.9949 9.4949L12 5.5L8.0064 9.4936L9.4754 10.9626ZM5.5 12L6.969 10.531L8.438 12L6.969 13.469L5.5 12ZM9.4754 13.0374L12 15.562L14.5259 13.0361L15.9949 14.5044L12 18.5L8.0064 14.5064L8.00445 14.5044L9.4754 13.0374ZM15.562 12L17.031 10.531L18.5 12L17.031 13.469L15.562 12ZM13.4898 11.9987H13.4911V12L12 13.4911L10.5108 12.0026L10.5082 12L10.5108 11.998L10.7715 11.7368L10.8983 11.61L12 10.5089L13.4904 11.9993L13.4898 11.9987Z" fill="#0B0E11"/>
</g>
<defs>
<clipPath id="clip0_1265_22309">
<rect width="24" height="24" fill="white"/>
</clipPath>
</defs>
</svg>