<svg width="24" height="24" viewBox="0 0 24 24" fill="none" xmlns="http://www.w3.org/2000/svg">
<g clip-path="url(#clip0_1265_22305)">
<path d="M12 24C18.6274 24 24 18.6274 24 12C24 5.37258 18.6274 0 12 0C5.37258 0 0 5.37258 0 12C0 18.6274 5.37258 24 12 24Z" fill="#000D2B"/>
<path d="M11.6173 5.5L8.59426 7.27112L11.6173 9.0429L14.6972 7.27112L11.6173 5.5ZM12.1144 14.9571V18.5L16.2207 16.1575V12.6139L12.1144 14.9571ZM15.1943 8.38517V11.9287L12.1137 13.7005V10.157L15.1943 8.38517ZM7.7793 11.9287L10.8598 13.7005V10.157L7.7793 8.38517V11.9287ZM7.7793 16.7289L10.8598 18.5V14.9571L7.7793 13.186V16.7282V16.7289Z" fill="white"/>
</g>
<defs>
<clipPath id="clip0_1265_22305">
<rect width="24" height="24" fill="white"/>
</clipPath>
</defs>
</svg>
