<svg viewBox="0 0 24 24" fill="none" xmlns="http://www.w3.org/2000/svg">
<g clip-path="url(#clip0_1265_22301)">
<path d="M12 24C18.6274 24 24 18.6274 24 12C24 5.37258 18.6274 0 12 0C5.37258 0 0 5.37258 0 12C0 18.6274 5.37258 24 12 24Z" fill="#FD7A3D"/>
<path d="M17.8511 14.1636C18.3411 14.4309 18.5046 15.0456 18.1775 15.5267C17.9058 16.0078 17.2803 16.1682 16.7903 15.9009C16.6427 15.8158 16.5183 15.6957 16.4281 15.5513C16.3379 15.4068 16.2846 15.2423 16.2729 15.0724H13.7688L12.5712 17.103C12.5712 17.1297 12.5438 17.1565 12.5171 17.1832C12.7888 17.3435 12.9797 17.6643 12.9797 18.0117C12.9797 18.5463 12.5171 19 11.9724 19C11.4283 19 10.9656 18.5724 10.9656 18.0117C10.9656 17.6643 11.1565 17.3703 11.4283 17.1832C11.4283 17.1565 11.4009 17.1297 11.3735 17.103L10.1765 15.073H7.67244C7.64508 15.4198 7.45481 15.7138 7.15508 15.9003C6.66508 16.1675 6.03953 16.0078 5.76717 15.5267C5.49481 15.0456 5.65835 14.4315 6.14835 14.1643C6.47481 13.9772 6.82862 13.9772 7.12835 14.1375C7.15508 14.1108 7.15508 14.0574 7.18244 14.0306L8.40744 12L7.20981 9.97C7.18098 9.9406 7.16188 9.90306 7.15508 9.86245C6.85599 9.99609 6.47481 10.0228 6.17508 9.83573C6.05977 9.77212 5.95829 9.68618 5.87656 9.58292C5.79483 9.47966 5.73449 9.36115 5.69906 9.23431C5.66363 9.10748 5.65383 8.97485 5.67022 8.84419C5.68662 8.71352 5.72887 8.58743 5.79453 8.47327C6.06626 7.99218 6.69244 7.83182 7.18244 8.09909C7.5089 8.28618 7.67244 8.60691 7.69981 8.92764H10.2306L11.4283 6.897C11.4283 6.87027 11.4556 6.84355 11.4824 6.81682C11.341 6.72964 11.2242 6.60775 11.1433 6.46272C11.0623 6.3177 11.0198 6.15437 11.0197 5.98827C11.0197 5.45373 11.4824 5 12.0271 5C12.5712 5 13.0338 5.42764 13.0338 5.98827C13.0338 6.33573 12.8429 6.62973 12.5712 6.81682C12.5712 6.84355 12.5985 6.87027 12.6259 6.897L13.8229 8.927H16.327C16.3544 8.58018 16.5446 8.28618 16.8444 8.09973C17.3344 7.83245 17.9599 7.99218 18.2323 8.47327C18.2979 8.58747 18.3401 8.71359 18.3565 8.84429C18.3728 8.97498 18.363 9.10762 18.3275 9.23446C18.292 9.3613 18.2316 9.4798 18.1498 9.58303C18.068 9.68627 17.9664 9.77217 17.8511 9.83573C17.5246 10.0228 17.1708 10.0228 16.8711 9.86245C16.8444 9.88918 16.8444 9.94264 16.817 9.96936L15.6194 12L16.817 14.03C16.8458 14.0594 16.8649 14.0969 16.8717 14.1375C17.1708 14.0039 17.552 13.9772 17.8517 14.1643L17.8511 14.1636ZM13.3062 11.3318C13.3062 10.7712 12.8435 10.3168 12.2721 10.3168H10.9656C10.9337 10.3164 10.902 10.3223 10.8724 10.3342C10.8428 10.3461 10.8158 10.3637 10.793 10.3861C10.7702 10.4084 10.7521 10.4351 10.7397 10.4645C10.7273 10.4939 10.7208 10.5254 10.7206 10.5574V13.4426C10.7206 13.5763 10.8294 13.6832 10.9656 13.6832H12.2721C12.8435 13.6832 13.3062 13.2288 13.3062 12.6682C13.3062 12.4276 13.2247 12.1871 13.0612 12.0267C13.1974 11.8129 13.3062 11.5991 13.3062 11.3318Z" fill="white"/>
</g>
<defs>
<clipPath id="clip0_1265_22301">
<rect width="24" height="24" fill="white"/>
</clipPath>
</defs>
</svg>