<svg viewBox="0 0 24 24" fill="none" xmlns="http://www.w3.org/2000/svg">
<path fill-rule="evenodd" clip-rule="evenodd" d="M20.5142 20.3009L12.1633 21.9841C12.1092 21.995 12.0558 22 12.0033 22C12.0025 22 12.0017 22 12.0008 22H12H11.9992C11.9983 22 11.9975 22 11.9967 22C11.9442 22 11.8908 21.995 11.8367 21.9841L3.48667 20.3009C2.6525 20.132 2 19.3293 2 18.4731V3.53018C2 3.05692 2.19917 2.62128 2.54583 2.33531C2.89167 2.04935 3.3525 1.93981 3.815 2.03179L11.8417 3.64891C11.8942 3.63804 11.9433 3.61881 12 3.61881C12.0542 3.61881 12.1025 3.63972 12.1542 3.64975L20.1867 2.03179C20.6442 1.93981 21.1083 2.04935 21.4542 2.33531C21.8008 2.62128 22 3.05692 22 3.53018V18.4731C22 19.3293 21.3475 20.132 20.5142 20.3009ZM11.1667 5.22507L3.66667 3.71413V18.4731C3.66667 18.5358 3.75417 18.642 3.815 18.6545L11.1667 20.1362V5.22507ZM20.3333 3.71413L12.8333 5.22507V20.1362L20.1858 18.6545C20.2467 18.642 20.3333 18.5358 20.3333 18.4731V3.71413ZM18.83 16.1076L14.6634 16.9463C14.6084 16.958 14.5534 16.963 14.4992 16.963C14.11 16.963 13.7617 16.6871 13.6834 16.2882C13.5925 15.8334 13.885 15.391 14.3367 15.3007L18.5034 14.4604C18.9584 14.3676 19.3942 14.6644 19.4842 15.1193C19.5742 15.5742 19.2817 16.0165 18.83 16.1076ZM18.83 11.9093L14.6634 12.7488C14.6084 12.7605 14.5534 12.7647 14.4992 12.7647C14.11 12.7647 13.7617 12.4896 13.6834 12.0907C13.5925 11.635 13.885 11.1935 14.3367 11.1024L18.5034 10.2629C18.9584 10.1693 19.3942 10.4661 19.4842 10.921C19.5742 11.3758 19.2817 11.8181 18.83 11.9093ZM18.83 7.71095L14.6634 8.55128C14.6084 8.56299 14.5534 8.56717 14.4992 8.56717C14.11 8.56717 13.7617 8.29208 13.6834 7.8924C13.5925 7.43753 13.885 6.9952 14.3367 6.9049L18.5034 6.0654C18.9584 5.97008 19.3942 6.26858 19.4842 6.72345C19.5742 7.17832 19.2817 7.62065 18.83 7.71095ZM5.49664 6.0654L9.66331 6.9049C10.115 6.9952 10.4075 7.43753 10.3166 7.8924C10.2383 8.29208 9.88998 8.56717 9.50081 8.56717C9.44664 8.56717 9.39164 8.56299 9.33664 8.55129L5.16998 7.71095C4.71831 7.62065 4.42581 7.17832 4.51581 6.72345C4.60581 6.26858 5.04414 5.96924 5.49664 6.0654ZM5.49664 10.2629L9.66331 11.1024C10.115 11.1935 10.4075 11.635 10.3166 12.0907C10.2383 12.4896 9.88998 12.7647 9.50081 12.7647C9.44664 12.7647 9.39164 12.7605 9.33664 12.7488L5.16998 11.9093C4.71831 11.8181 4.42581 11.3758 4.51581 10.921C4.60581 10.4661 5.04414 10.1684 5.49664 10.2629ZM5.49664 14.4604L9.66331 15.3007C10.115 15.391 10.4075 15.8334 10.3166 16.2882C10.2383 16.6871 9.88998 16.963 9.50081 16.963C9.44664 16.963 9.39164 16.958 9.33664 16.9463L5.16998 16.1076C4.71831 16.0165 4.42581 15.5742 4.51581 15.1193C4.60581 14.6644 5.04414 14.3676 5.49664 14.4604Z" fill="currentColor"/>
</svg>