<svg viewBox="0 0 24 24" fill="none" xmlns="http://www.w3.org/2000/svg">
<path fill-rule="evenodd" clip-rule="evenodd" d="M21.1666 20.5H14.4972C13.5763 20.5 12.8288 21.2483 12.8288 22.1667C12.8288 22.6275 12.4554 23 11.9946 23C11.5346 23 11.1612 22.6275 11.1612 22.1667C11.1612 21.2483 10.4129 20.5 9.49281 20.5H2.8342C2.37335 20.5 2 20.1275 2 19.6667V3.83333C2 3.3725 2.37335 3 2.8342 3H9.53698C9.53948 3 9.54115 3.00083 9.54281 3.00083C9.54448 3.00083 9.54615 3 9.54865 3C10.5254 3 11.3929 3.4375 11.9946 4.11583C12.5963 3.4375 13.4646 3 14.4405 3C14.4447 3 14.448 3.0025 14.4522 3.0025C14.4564 3.0025 14.4597 3 14.4639 3H21.1666C21.6266 3 22 3.3725 22 3.83333V19.6667C22 20.1275 21.6266 20.5 21.1666 20.5ZM9.54866 4.66666C9.54616 4.66666 9.54449 4.66583 9.54283 4.66583C9.54116 4.66583 9.53949 4.66666 9.53699 4.66666H3.66758V18.8333H9.53699C9.55283 18.8333 9.56616 18.8417 9.582 18.8425C10.1579 18.8575 10.6929 19.0242 11.1612 19.2967V6.27749C11.1612 5.38916 10.4379 4.66666 9.54866 4.66666ZM20.3325 4.66667H14.4639C14.4597 4.66667 14.4564 4.665 14.4522 4.665C14.448 4.665 14.4447 4.66667 14.4405 4.66667C13.5513 4.66667 12.8288 5.38917 12.8288 6.2775V19.2967C13.303 19.0208 13.8455 18.8517 14.4305 18.84C14.4422 18.8392 14.4514 18.8333 14.4639 18.8333H20.3325V4.66667Z" fill="currentColor"/>
</svg>