<svg width="24" height="24" viewBox="0 0 24 24" fill="none" xmlns="http://www.w3.org/2000/svg">
<path fill-rule="evenodd" clip-rule="evenodd" d="M20.5142 20.3009L12.1633 21.9841C12.1092 21.995 12.0558 22 12.0033 22C12.0025 22 12.0017 22 12.0008 22H12H11.9992C11.9983 22 11.9975 22 11.9967 22C11.9442 22 11.8908 21.995 11.8367 21.9841L3.48667 20.3009C2.6525 20.132 2 19.3293 2 18.4731V3.53018C2 3.05692 2.19917 2.62128 2.54583 2.33531C2.89167 2.04935 3.3525 1.93981 3.815 2.03179L11.8417 3.64891C11.8942 3.63804 11.9442 3.61881 12 3.61881C12.055 3.61881 12.1025 3.63972 12.1542 3.64975L20.1867 2.03179C20.6442 1.94065 21.1075 2.04935 21.4542 2.33531C21.8008 2.62128 22 3.05692 22 3.53018V18.4731C22 19.3293 21.3475 20.132 20.5142 20.3009ZM11.1667 5.22507L3.66667 3.71413V18.4731C3.66667 18.5358 3.75333 18.642 3.815 18.6545L11.1667 20.1362V5.22507ZM17.8333 4.2175L15.3333 4.72086V7.92751L15.9433 7.19003C16.2333 6.84051 16.75 6.787 17.1033 7.07129L17.8333 7.65995V4.2175ZM20.3333 3.71413L19.5 3.8822V9.40667C19.5 9.72943 19.3167 10.0238 19.0275 10.1634C18.7392 10.303 18.3967 10.2646 18.1458 10.0631L16.7008 8.89746L15.14 10.7847C14.9792 10.9795 14.7425 11.0857 14.5 11.0857C14.405 11.0857 14.3092 11.0698 14.2167 11.0355C13.8867 10.9151 13.6667 10.5999 13.6667 10.2462V5.057L12.8333 5.22507V20.1362L20.1858 18.6545C20.2458 18.642 20.3333 18.5358 20.3333 18.4731V3.71413Z" fill="#6B7084"/>
</svg>
