<svg width="24" height="24" viewBox="0 0 24 24" fill="none" xmlns="http://www.w3.org/2000/svg">
<path fill-rule="evenodd" clip-rule="evenodd" d="M21.1666 19.5H14.4972C13.5763 19.5 12.8288 20.2483 12.8288 21.1667C12.8288 21.6275 12.4554 22 11.9946 22C11.5346 22 11.1612 21.6275 11.1612 21.1667C11.1612 20.2483 10.4129 19.5 9.49281 19.5H2.8342C2.37335 19.5 2 19.1275 2 18.6667V2.83333C2 2.3725 2.37335 2 2.8342 2H9.53698C9.53948 2 9.54115 2.00083 9.54281 2.00083C9.54448 2.00083 9.54615 2 9.54865 2C10.5254 2 11.3929 2.4375 11.9946 3.11583C12.5963 2.4375 13.4646 2 14.4405 2C14.4447 2 14.448 2.0025 14.4522 2.0025C14.4564 2.0025 14.4597 2 14.4639 2H21.1666C21.6266 2 22 2.3725 22 2.83333V18.6667C22 19.1275 21.6266 19.5 21.1666 19.5ZM9.54866 3.66666C9.54616 3.66666 9.54449 3.66583 9.54283 3.66583C9.54116 3.66583 9.53949 3.66666 9.53699 3.66666H3.66758V17.8333H9.53699C9.55283 17.8333 9.56616 17.8417 9.582 17.8425C10.1579 17.8575 10.6929 18.0242 11.1612 18.2967V5.27749C11.1612 4.38916 10.4379 3.66666 9.54866 3.66666ZM20.3325 3.66667H14.4639C14.4597 3.66667 14.4564 3.665 14.4522 3.665C14.448 3.665 14.4447 3.66667 14.4405 3.66667C13.5513 3.66667 12.8288 4.38917 12.8288 5.2775V18.2967C13.303 18.0208 13.8455 17.8517 14.4305 17.84C14.4422 17.8392 14.4514 17.8333 14.4639 17.8333H20.3325V3.66667Z" fill="#6B7084"/>
</svg>
