<svg width="24" height="24" viewBox="0 0 24 24" fill="none" xmlns="http://www.w3.org/2000/svg">
<path fill-rule="evenodd" clip-rule="evenodd" d="M7.29486 4.00793C8.66804 3.92416 10.2294 4.50518 12.0036 5.71381C13.5902 4.63434 15.0063 4.05785 16.2852 4.0088L16.5095 4.00562L16.7051 4.01281C18.1168 4.09892 19.7154 4.67072 21.5145 5.71265C21.7401 5.84327 21.8892 6.07141 21.9207 6.32644L21.9269 6.42319L22 18.829C22.0039 19.5011 21.2469 19.8968 20.6974 19.5099C19.3111 18.534 18.0832 18.0041 17.0247 17.901C16.0693 17.8079 14.6039 18.3058 12.682 19.4317L12.5381 19.5182C12.4101 19.6302 12.25 19.7042 12.0728 19.715C11.8234 19.7474 11.5976 19.6541 11.4321 19.4954C9.45229 18.3202 7.9489 17.8012 6.9753 17.8961C5.91678 17.9993 4.68891 18.5292 3.3026 19.5051C2.77922 19.8735 2.06767 19.5321 2.00451 18.9182L2 18.8242L2.07304 6.41831C2.07476 6.12509 2.23168 5.85472 2.48544 5.70777C4.28459 4.66584 5.88322 4.09404 7.29486 4.00793ZM16.4719 5.65851C15.6096 5.64973 14.5262 6.04867 13.2396 6.8781L12.996 7.03867L12.8333 7.14903L12.8267 12.219L12.8333 17.4583L12.9587 17.3934C14.4594 16.6273 15.7305 16.2368 16.7934 16.2368L17.0032 16.2419L17.1851 16.2553C18.0462 16.3392 18.9489 16.6209 19.896 17.0957L20.1814 17.244L20.3367 17.3301L20.2755 6.91258L20.0987 6.81749C18.946 6.20623 17.9251 5.83886 17.0506 5.70923L16.835 5.68177L16.6256 5.6642L16.4719 5.65851ZM7.3956 5.6583L7.54632 5.65349L7.71095 5.65768C8.60279 5.70548 9.71502 6.16184 11.0309 7.05192L11.1659 7.1449L11.1733 12.2214L11.1659 17.4533L11.0414 17.3885L10.7462 17.2413C9.18804 16.4822 7.88608 16.1461 6.815 16.2505L6.55541 16.2816L6.26404 16.33C5.48287 16.4786 4.66835 16.7828 3.8186 17.2391L3.66255 17.3252L3.72372 6.90928L3.9014 6.81261L4.18691 6.66487C5.41233 6.04663 6.48431 5.71389 7.3956 5.6583Z" fill="#6B7084"/>
</svg>
621 7C13.6621 6.53917 14.0355 6.16667 14.4963 6.16667H18.6648C19.1257 6.16667 19.4991 6.53917 19.4991 7C19.4991 7.46083 19.1257 7.83333 18.6648 7.83333ZM5.32428 14.5C4.86343 14.5 4.49008 14.1275 4.49008 13.6667C4.49008 13.2058 4.86343 12.8333 5.32428 12.8333H9.49279C9.95364 12.8333 10.327 13.2058 10.327 13.6667C10.327 14.1275 9.95364 14.5 9.49279 14.5H5.32428ZM9.49279 11.1667H5.32428C4.86343 11.1667 4.49008 10.7933 4.49008 10.3333C4.49008 9.8725 4.86343 9.5 5.32428 9.5H9.49279C9.95364 9.5 10.327 9.8725 10.327 10.3333C10.327 10.7933 9.95364 11.1667 9.49279 11.1667ZM9.49279 7.83333H5.32428C4.86343 7.83333 4.49008 7.46083 4.49008 7C4.49008 6.53917 4.86343 6.16667 5.32428 6.16667H9.49279C9.95364 6.16667 10.327 6.53917 10.327 7C10.327 7.46083 9.95364 7.83333 9.49279 7.83333Z" fill="#6B7084"/>
</svg>
