<svg width="24" height="24" viewBox="0 0 24 24" fill="none" xmlns="http://www.w3.org/2000/svg">
<g clip-path="url(#clip0_1265_22297)">
<path d="M12 24C18.6274 24 24 18.6274 24 12C24 5.37258 18.6274 0 12 0C5.37258 0 0 5.37258 0 12C0 18.6274 5.37258 24 12 24Z" fill="#00B4F4"/>
<path d="M7.20092 15.908V15.9977H6.26175V14.3006L6.23258 14.3943L5.33425 14.1241L5.84175 12.4885L5.77875 12.5799L5 12.0626L5.973 10.6408L5.88025 10.7149L5.28933 9.9954L6.68933 8.87816L6.51083 8.94598L6.17425 8.08161L7.84667 7.44943L7.65125 7.46264L7.58592 6.53966L9.33708 6.41897L9.17958 6.38276L9.39075 5.48046L11.0638 5.86149L10.9582 5.80172L11.4277 5L12.8872 5.82988L12.8301 5.77012L13.5173 5.13851L14.6536 6.33966L14.6297 6.29023L15.4737 5.88448L16.2029 7.3569L16.1965 7.31552L17.124 7.17069L17.3976 8.87184L17.4168 8.75057L18.3449 8.8954L18.0672 10.6213L18.1361 10.4828L18.9807 10.8885L18.1991 12.4672L18.3128 12.3466L19 12.9782L17.7855 14.2609L17.9325 14.1776L18.4021 14.9793L16.8755 15.8471L17.0289 15.8126L17.2401 16.7144L15.5531 17.0983L15.6832 17.1069L15.6172 18.0305L13.9285 17.9138L14.0148 17.9466L13.6783 18.8103L12.0612 18.1994L12.1633 18.2805L11.5724 19L10.2378 17.9356L10.3037 18.0316L9.52492 18.5489L8.57117 17.1563L8.59975 17.2477L7.70083 17.5178L7.20092 15.908ZM7.20092 14.808L7.78775 14.6316L8.24392 16.1011L8.75142 15.7638L9.61825 17.0305L10.0056 16.5592L11.2072 17.5178L11.4225 16.9661L12.8703 17.5138L12.9129 16.9161L14.4622 17.023L14.3228 16.4282L15.8424 16.0822L15.5274 15.5454L16.8837 14.7741L16.4187 14.3477L17.4903 13.2155L16.9187 12.9414L17.6076 11.55L16.9828 11.4523L17.2278 9.92471L16.6305 10.0178L16.3855 8.49023L15.8471 8.74885L15.1628 7.36782L14.7242 7.77069L13.666 6.65287L13.3627 7.16954L12.0233 6.40747L11.8851 6.99828L10.3777 6.65517L10.4215 7.27184L8.8745 7.37816L9.10317 7.96552L7.64658 8.51609L8.03858 8.9931L6.81533 9.96897L7.33158 10.3115L6.45017 11.5989L7.044 11.7782L6.58317 13.2621H7.20092V14.808ZM9.27758 9.1477H11.1717C11.3922 9.1477 11.6109 9.16322 11.8285 9.19368C12.0461 9.22414 12.2374 9.28563 12.4025 9.37759C12.5676 9.46954 12.6936 9.5977 12.7793 9.76264C12.8657 9.92759 12.8896 10.1471 12.8511 10.4201C12.8132 10.7034 12.6994 10.9374 12.5104 11.1236C12.3214 11.3098 12.0904 11.4431 11.818 11.523V11.5374C11.9802 11.5609 12.1254 11.6069 12.252 11.6753C12.3786 11.7437 12.483 11.8305 12.5641 11.9368C12.6457 12.0431 12.7029 12.1667 12.7362 12.308C12.77 12.4494 12.7747 12.6 12.7508 12.7603C12.7123 13.0247 12.6242 13.2448 12.4853 13.4213C12.3491 13.5961 12.1782 13.7417 11.9831 13.8494C11.7813 13.9599 11.5632 14.0386 11.3367 14.0828C11.1103 14.1291 10.8797 14.1527 10.6484 14.1534H8.56708L9.277 9.1477H9.27758ZM10.11 11.1494H10.9208C11.0066 11.1494 11.0929 11.1397 11.1793 11.1207C11.2637 11.1024 11.3448 11.0714 11.4196 11.0287C11.4937 10.9864 11.5574 10.9285 11.6062 10.8592C11.6564 10.7885 11.6885 10.704 11.7031 10.6046C11.7196 10.5173 11.7082 10.4272 11.6704 10.3466C11.6361 10.2797 11.5825 10.2243 11.5164 10.1874C11.4438 10.1477 11.3649 10.1204 11.2831 10.1063C11.1968 10.09 11.1091 10.0818 11.0212 10.0816H10.2605L10.11 11.1494ZM9.81542 13.2207H10.8205C10.9062 13.2207 10.9961 13.2109 11.0888 13.192C11.2713 13.1572 11.4338 13.0563 11.5444 12.9092C11.6044 12.8281 11.6418 12.733 11.6529 12.6333C11.6669 12.5161 11.6506 12.4207 11.6027 12.3477C11.554 12.2736 11.4839 12.2156 11.4015 12.181C11.3112 12.1422 11.2157 12.1161 11.118 12.1034C11.0218 12.0898 10.9247 12.0827 10.8275 12.0822H9.9805L9.81542 13.2201V13.2207ZM15.2171 9.22759L14.0288 13.5034L13.0477 13.4356L13.7873 9.02759L15.2165 9.22759H15.2171ZM14.1811 13.9494L13.8725 15.4598L12.5676 15.0851L12.8663 13.6362L14.1811 13.9488V13.9494Z" fill="#FEFFFF"/>
</g>
<defs>
<clipPath id="clip0_1265_22297">
<rect width="24" height="24" fill="white"/>
</clipPath>
</defs>
</svg>
