<svg viewBox="0 0 24 24" fill="none" xmlns="http://www.w3.org/2000/svg">
<g clip-path="url(#clip0_1265_22293)">
<path d="M12 24C18.6274 24 24 18.6274 24 12C24 5.37258 18.6274 0 12 0C5.37258 0 0 5.37258 0 12C0 18.6274 5.37258 24 12 24Z" fill="#00A8D6"/>
<path fill-rule="evenodd" clip-rule="evenodd" d="M10.6212 13.9667V12.6887H12.5905C13.9038 12.6887 14.5605 12.3607 14.5605 11.7047V8.262C14.5605 7.60667 13.9038 7.27867 12.5905 7.27867H9.43984V9.344H7.6665V6H12.3932C15.0198 6 16.3332 6.72133 16.3332 8.164V11.8033C16.3332 13.246 15.0198 13.9673 12.3932 13.9673H10.6212V13.9667ZM14.5605 14.754H16.3332V15.836C16.3332 17.2787 15.0198 18 12.3932 18H7.6665V10.328H12.3932C12.6712 10.328 12.9332 10.336 13.1818 10.352V11.6327C12.9853 11.6142 12.7879 11.6053 12.5905 11.606H9.43984V16.7213H12.5912C13.9045 16.7213 14.5612 16.3933 14.5612 15.738V14.7533L14.5605 14.754Z" fill="white"/>
</g>
<defs>
<clipPath id="clip0_1265_22293">
<rect width="24" height="24" fill="white"/>
</clipPath>
</defs>
</svg>