<svg width="24" height="24" viewBox="0 0 24 24" fill="none" xmlns="http://www.w3.org/2000/svg">
<g clip-path="url(#clip0_1265_22289)">
<path d="M12 24C18.6274 24 24 18.6274 24 12C24 5.37258 18.6274 0 12 0C5.37258 0 0 5.37258 0 12C0 18.6274 5.37258 24 12 24Z" fill="#0F63D8"/>
<path d="M18.2895 15.0147C18.2282 15.1409 18.1609 15.2641 18.0878 15.3838C18.0388 15.4716 17.9917 15.5594 17.9401 15.6428C17.9166 15.6816 17.8975 15.7217 17.874 15.7592H17.8663C17.3723 16.5443 16.7257 17.2222 15.965 17.7529C15.2042 18.2836 14.3448 18.6563 13.4374 18.8489C12.5301 19.0415 11.5933 19.0501 10.6826 18.8742C9.77183 18.6983 8.90565 18.3414 8.13529 17.8248C8.10347 17.8032 8.07611 17.7796 8.04493 17.7586C7.9245 17.6807 7.80792 17.5971 7.69557 17.5079C7.51784 17.3725 7.34787 17.2272 7.18649 17.0726C7.10932 17.0012 7.03399 16.9278 6.96059 16.8525C6.88168 16.7716 6.81296 16.6934 6.73278 16.6024C6.65217 16.5117 6.57367 16.4192 6.49733 16.3249C6.43762 16.2487 6.3797 16.171 6.3236 16.092C6.24553 15.9849 6.17041 15.8756 6.09834 15.7643C6.05188 15.6918 6.00861 15.6179 5.9647 15.5429C5.89281 15.4231 5.8251 15.3008 5.76171 15.1763C5.72416 15.1025 5.68916 15.0274 5.65417 14.9523C5.59547 14.8257 5.53967 14.6978 5.48681 14.5686C5.45499 14.4884 5.42635 14.407 5.39772 14.3255C5.35381 14.1983 5.31054 14.0653 5.27299 13.9405C5.24754 13.8502 5.23163 13.7643 5.20363 13.6714C5.17179 13.5471 5.14357 13.4219 5.119 13.2959C5.10627 13.2005 5.08527 13.0999 5.07636 13.0096C5.0578 12.8848 5.04231 12.7596 5.02991 12.6341C5.021 12.5355 5.01018 12.4368 5.01018 12.3376C5 12.2129 5 12.0875 5 11.9621C5 11.8667 5.00764 11.7712 5.00764 11.6751C5.01776 11.4537 5.03815 11.2329 5.06873 11.0133C5.13141 10.5658 5.23711 10.1253 5.38435 9.698C5.43844 9.54146 5.4989 9.38619 5.56571 9.23156C5.58035 9.19656 5.59753 9.15393 5.60644 9.12529C5.61675 9.09376 5.63416 9.06502 5.65735 9.04129C5.72289 8.90002 5.79544 8.76003 5.8718 8.6213C5.90807 8.54367 5.95198 8.46731 5.99716 8.39222C6.02897 8.33749 6.05061 8.28595 6.09261 8.22613C6.13334 8.16568 6.18106 8.10331 6.2237 8.04095C6.27827 7.95532 6.33622 7.87189 6.39742 7.79087C6.4776 7.68269 6.56096 7.57769 6.64751 7.47524C6.79907 7.29603 6.95942 7.12443 7.12795 6.96107C7.19031 6.90253 7.25204 6.84335 7.31567 6.78735C7.48726 6.64014 7.66363 6.49858 7.84448 6.3629C7.96411 6.28018 8.08629 6.19618 8.20974 6.11282C8.27553 6.06962 8.34237 6.02803 8.41019 5.98809C8.53555 5.91555 8.66027 5.84555 8.78564 5.78001C9.06864 5.63346 9.36167 5.50715 9.66252 5.40202C9.97622 5.28983 10.2978 5.20113 10.6247 5.13666C10.8387 5.09487 11.0544 5.06218 11.2712 5.03866C11.4125 5.02339 11.555 5.01321 11.6988 5.00684C11.7765 5.00048 11.8554 5.00048 11.9343 5.00048C12.1605 4.99775 12.3867 5.00667 12.612 5.02721C12.9785 5.05888 13.3418 5.1206 13.6982 5.21175C13.7892 5.23593 13.8809 5.26138 13.9719 5.28811C14.1055 5.32629 14.2309 5.36765 14.3562 5.41347C14.4498 5.4472 14.5439 5.48347 14.6362 5.52229C14.7062 5.55156 14.7775 5.57383 14.8475 5.60501V5.61519C15.6978 5.98753 16.4647 6.52684 17.1027 7.20114C17.7407 7.87543 18.2368 8.67098 18.5615 9.5406C18.8863 10.4102 19.0331 11.3362 18.9932 12.2636C18.9534 13.1911 18.7277 14.101 18.3296 14.9396C18.3169 14.9663 18.3016 14.9886 18.2895 15.0147ZM9.34499 17.8783V17.877C10.7739 18.5172 12.3868 18.6163 13.8833 18.1559C15.3799 17.6955 16.6581 16.7069 17.4801 15.3742C17.5259 15.2979 17.5691 15.219 17.6124 15.1413C17.6722 15.0268 17.7397 14.9161 17.7976 14.7913C18.1823 14.0002 18.4003 13.1383 18.4381 12.2594C18.4758 11.3804 18.3324 10.5031 18.0169 9.68187C17.7013 8.86065 17.2203 8.11305 16.6037 7.48551C15.9871 6.85797 15.2481 6.36388 14.4326 6.03391C14.3501 5.99878 14.2667 5.96589 14.1825 5.93528C13.9821 5.86417 13.7787 5.80196 13.5729 5.74883C13.24 5.66377 12.9008 5.6061 12.5585 5.57638L12.3447 5.5611C12.2066 5.55474 12.0698 5.55156 11.933 5.55156H11.7179C11.5849 5.55729 11.4532 5.56683 11.3215 5.58019C11.2419 5.5891 11.163 5.59928 11.0848 5.6101C10.8729 5.63877 10.6628 5.67914 10.4554 5.73101C10.2465 5.78128 10.0404 5.84289 9.83815 5.91555C9.74843 5.94609 9.66189 5.97918 9.57852 6.01291C9.3928 6.08883 9.21023 6.17226 9.03127 6.263C8.8496 6.35707 8.67211 6.45898 8.49928 6.56844C8.38274 6.64089 8.26957 6.7186 8.1601 6.80135C8.10283 6.84016 8.04556 6.88216 7.98956 6.92607C7.82261 7.05811 7.66207 7.19805 7.50848 7.34542C7.41494 7.4396 7.32331 7.53506 7.23295 7.63178C7.09072 7.78765 6.95588 7.9501 6.82886 8.11859C6.69685 8.29616 6.57326 8.47984 6.45851 8.66903C6.41715 8.73775 6.3796 8.80648 6.34079 8.8752C6.26442 9.00375 6.20206 9.1342 6.1397 9.26974C6.02134 9.52525 5.91973 9.78819 5.83553 10.0569C5.76533 10.2632 5.70857 10.4739 5.66562 10.6875C5.63826 10.8212 5.61535 10.9567 5.59689 11.0916C5.58671 11.1692 5.57526 11.2481 5.56826 11.3258C5.55553 11.4511 5.54153 11.5759 5.54153 11.7012C5.5339 11.7865 5.5339 11.873 5.5339 11.9589C5.5339 12.0779 5.54408 12.1963 5.54408 12.3153C5.55507 12.5219 5.57588 12.7279 5.60644 12.9326C5.62298 13.0185 5.63698 13.0999 5.65289 13.1922C5.6758 13.3099 5.70316 13.4276 5.7318 13.5454C5.75216 13.6249 5.77189 13.7051 5.79544 13.7865C5.83043 13.9074 5.87052 14.0264 5.91316 14.1454C5.93925 14.218 5.96407 14.2918 5.99334 14.3643C6.04107 14.4846 6.09325 14.6011 6.14224 14.7245C6.1747 14.7932 6.20588 14.8626 6.24088 14.9301C6.30324 15.044 6.36369 15.1566 6.4286 15.2673C6.47124 15.3367 6.51133 15.4041 6.55396 15.4716C6.61887 15.574 6.69014 15.6739 6.76141 15.7745C6.81423 15.847 6.85241 15.9069 6.92177 15.9896C6.9905 16.0723 7.06813 16.162 7.13558 16.2397C7.20304 16.3173 7.27813 16.4013 7.34558 16.4713C7.41303 16.5413 7.46585 16.5909 7.55303 16.6737C7.70083 16.8164 7.85678 16.9505 8.02011 17.0752C8.42784 17.3952 8.87268 17.6648 9.34499 17.8783ZM11.9871 17.3533C10.9276 17.354 9.89163 17.0406 9.01026 16.4525C8.1289 15.8645 7.44171 15.0283 7.03561 14.0497C6.62951 13.0711 6.52273 11.994 6.72878 10.9547C6.93484 9.91542 7.44447 8.96057 8.19322 8.21093C8.94197 7.46129 9.89621 6.95052 10.9353 6.74323C11.9743 6.53595 13.0515 6.64144 14.0306 7.04638C15.0097 7.45132 15.8467 8.13751 16.4358 9.01818C17.0249 9.89884 17.3396 10.9344 17.3401 11.9939C17.3391 13.4139 16.775 14.7755 15.7715 15.7802C14.768 16.7849 13.4071 17.3506 11.9871 17.3533ZM11.9871 8.39476C11.2744 8.39388 10.5776 8.60443 9.98461 8.99977C9.39167 9.39511 8.92933 9.95747 8.65612 10.6157C8.38291 11.2739 8.31109 11.9983 8.44977 12.6974C8.58844 13.3964 8.93138 14.0386 9.43517 14.5426C9.93895 15.0467 10.581 15.39 11.2799 15.529C11.9789 15.668 12.7034 15.5966 13.3617 15.3238C14.0201 15.0509 14.5827 14.5888 14.9783 13.9961C15.374 13.4034 15.5849 12.7066 15.5844 11.9939C15.5834 11.0398 15.2042 10.1249 14.5299 9.44983C13.8556 8.77472 12.9413 8.39441 11.9871 8.39222V8.39476Z" fill="white"/>
</g>
<defs>
<clipPath id="clip0_1265_22289">
<rect width="24" height="24" fill="white"/>
</clipPath>
</defs>
</svg>
