<svg width="24" height="24" viewBox="0 0 24 24" fill="none" xmlns="http://www.w3.org/2000/svg">
<g clip-path="url(#clip0_1265_22285)">
<path d="M12 24C18.6274 24 24 18.6274 24 12C24 5.37258 18.6274 0 12 0C5.37258 0 0 5.37258 0 12C0 18.6274 5.37258 24 12 24Z" fill="#1D1D1D"/>
<path fill-rule="evenodd" clip-rule="evenodd" d="M7.63917 11.9668C7.63926 12.333 7.71171 12.6956 7.85235 13.0337C7.993 13.3718 8.19906 13.6788 8.45872 13.9371C8.71837 14.1953 9.02649 14.3997 9.36538 14.5385C9.70427 14.6773 10.0672 14.7478 10.4334 14.7459C11.966 14.7365 13.2111 13.5066 13.2118 12.0014C13.2152 11.6342 13.1455 11.27 13.0067 10.93C12.868 10.59 12.663 10.281 12.4037 10.0209C12.1444 9.76088 11.836 9.55502 11.4964 9.41531C11.1567 9.27561 10.7927 9.20485 10.4255 9.20717C8.88572 9.20933 7.63917 10.4436 7.63917 11.9668ZM7.64206 14.9568V15.8762H6.22217V5.5C6.62589 5.50722 6.96678 5.65167 7.2405 5.93694C7.50267 6.21139 7.63339 6.54 7.63195 6.92133C7.62833 7.60528 7.6305 8.28922 7.6305 9.00567C8.62211 8.17728 9.72639 7.76922 11.0127 7.96567C12.2874 8.16067 13.266 8.802 13.9333 9.89906C14.9408 11.5566 14.6144 13.6734 13.1548 14.9907C11.7313 16.2763 9.366 16.4756 7.64206 14.9568ZM12.2347 15.8574C12.291 15.8234 12.3206 15.8032 12.3517 15.7873C12.7989 15.5675 13.2027 15.2685 13.5433 14.9048C13.5778 14.8656 13.6199 14.8339 13.6671 14.8117C13.7144 14.7894 13.7656 14.7771 13.8178 14.7755C15.0239 14.7062 16.1108 13.7355 16.3152 12.5482C16.5839 10.9882 15.6363 9.61161 14.0691 9.31261C13.8538 9.28003 13.6569 9.17263 13.513 9.00928C13.2241 8.69006 12.8731 8.44089 12.4997 8.22639C12.4679 8.20833 12.4376 8.18883 12.3856 8.15706C13.0963 7.96206 13.7889 7.91583 14.4909 8.07544C15.1893 8.23361 15.7909 8.57594 16.3542 9.04322V8.12239H17.7777V18.5C17.5886 18.4988 17.4016 18.4598 17.2278 18.3851C17.054 18.3104 16.8969 18.2017 16.7659 18.0652C16.6363 17.9347 16.5342 17.7795 16.4657 17.6088C16.3973 17.4381 16.3638 17.2553 16.3672 17.0714V14.9987C15.1409 16.0264 13.7846 16.3341 12.2347 15.8574Z" fill="white"/>
</g>
<defs>
<clipPath id="clip0_1265_22285">
<rect width="24" height="24" fill="white"/>
</clipPath>
</defs>
</svg>
