<svg viewBox="0 0 24 24" fill="none" xmlns="http://www.w3.org/2000/svg">
<path d="M12.1205 16.7681C12.9238 16.7681 13.727 16.529 14.5302 16.1305C16.7792 14.8551 17.5824 11.9058 16.2973 9.67393C15.0121 7.44205 12.0402 6.64495 9.79123 7.92031C8.66673 8.55799 7.94384 9.59422 7.54223 10.7899C7.22095 11.9855 7.38159 13.2609 8.02416 14.3768C8.82738 15.971 10.4338 16.7681 12.1205 16.7681ZM8.98802 11.2681C9.22898 10.471 9.71091 9.75364 10.5141 9.35509C10.996 9.03625 11.5583 8.95654 12.1205 8.95654C13.245 8.95654 14.2892 9.51451 14.9318 10.5507C15.8153 12.0652 15.2531 14.058 13.727 14.9348C12.2009 15.8116 10.1928 15.2536 9.3093 13.7391C8.9077 12.942 8.74705 12.0652 8.98802 11.2681Z" fill="black"/>
<path d="M17.4217 8.95655C18.0643 9.99278 19.0282 10.7899 20.233 11.1087C20.6346 11.1884 21.0362 11.2681 21.4378 11.2681C21.6788 11.2681 21.8394 11.2681 22.0804 11.1884C22.0001 10.7102 21.9197 10.2319 21.8394 9.67394C21.4378 9.75365 21.0362 9.67394 20.6346 9.59423C19.8314 9.3551 19.1888 8.87684 18.7069 8.15945C18.3053 7.44206 18.1446 6.64496 18.3856 5.84786C18.4659 5.44931 18.7069 5.13047 18.9478 4.81162C18.5462 4.49278 18.225 4.17394 17.743 3.8551C17.3414 4.33336 17.1005 4.89133 16.9398 5.44931C16.6185 6.72467 16.7792 7.92032 17.4217 8.95655Z" fill="black"/>
<path d="M20.233 13.0217C19.0282 13.3406 18.0643 14.0579 17.4217 15.1739C16.7792 16.2101 16.6185 17.4855 16.9398 18.6811C17.1005 19.3188 17.4217 19.7971 17.743 20.2753C18.1446 19.9565 18.5462 19.6377 18.9478 19.3188C18.7069 19 18.5462 18.6811 18.3856 18.2826C18.1446 17.4855 18.3053 16.6884 18.7069 15.971C19.1085 15.2536 19.8314 14.7753 20.6346 14.5362C21.0362 14.4565 21.4378 14.3768 21.8394 14.4565C21.9197 13.9782 22.0001 13.5 22.0804 12.942C21.4378 12.7826 20.8756 12.8623 20.233 13.0217Z" fill="black"/>
<path d="M12.0402 19.7174C13.3254 19.7174 14.4499 20.5145 14.9318 21.6304C15.4137 21.471 15.8957 21.3116 16.3776 21.0724C15.6547 19.3985 14.0483 18.2029 12.1206 18.2029C10.1928 18.2029 8.5061 19.3985 7.86353 21.0724C8.34545 21.3116 8.82738 21.471 9.30931 21.6304C9.71092 20.5145 10.7551 19.7174 12.0402 19.7174Z" fill="black"/>
<path d="M12.0402 5.92754C13.9679 5.92754 15.6547 4.73188 16.2973 3.05797C15.8153 2.81884 15.4137 2.65942 14.8515 2.5C14.3695 3.61594 13.245 4.41304 11.9599 4.41304C10.6748 4.41304 9.55027 3.61594 9.06834 2.5C8.58641 2.65942 8.10449 2.81884 7.62256 3.05797C8.50609 4.73188 10.1125 5.92754 12.0402 5.92754Z" fill="black"/>
<path d="M6.73896 15.1739C6.09639 14.1377 5.13253 13.3406 3.92771 13.0217C3.28514 12.8623 2.72289 12.8623 2.08032 12.942C2.16064 13.4203 2.24096 13.8985 2.32129 14.4565C2.48193 14.4565 2.56225 14.4565 2.72289 14.4565C2.96386 14.4565 3.28514 14.4565 3.52611 14.5362C4.32932 14.7753 4.97189 15.2536 5.45382 15.971C6.09639 17.0869 5.93574 18.442 5.21285 19.3985C5.61446 19.7174 5.93574 20.0362 6.41767 20.3551C7.46185 18.8406 7.70281 16.7681 6.73896 15.1739Z" fill="black"/>
<path d="M3.92771 11.1087C5.13253 10.7899 6.09639 10.0725 6.73896 8.95655C7.38153 7.92032 7.54217 6.64496 7.22088 5.44931C7.06024 4.81162 6.73896 4.33336 6.41767 3.8551C5.93574 4.17394 5.53414 4.49278 5.21285 4.81162C5.45382 5.13047 5.61446 5.44931 5.7751 5.84786C6.01606 6.64496 5.85542 7.44206 5.45382 8.15945C5.05221 8.87684 4.32932 9.3551 3.52611 9.59423C3.1245 9.67394 2.72289 9.75365 2.32129 9.67394C2.24096 10.1522 2.16064 10.6305 2.08032 11.1884C2.32129 11.1884 2.48193 11.2681 2.72289 11.2681C3.1245 11.2681 3.52611 11.2681 3.92771 11.1087Z" fill="black"/>
</svg>