<svg viewBox="0 0 24 24" fill="none" xmlns="http://www.w3.org/2000/svg">
<path fill-rule="evenodd" clip-rule="evenodd" d="M7.61989 2.23976C8.03977 2.02982 8.55035 2.20001 8.76029 2.6199L9.34416 3.78764C10.1592 3.37236 11.0682 3.15003 12 3.15003C12.9319 3.15003 13.8408 3.37236 14.6559 3.78764L15.2398 2.6199C15.4497 2.20001 15.9603 2.02982 16.3802 2.23976C16.8 2.44971 16.9702 2.96028 16.7603 3.38016L16.0575 4.7858C16.0841 4.81141 16.1104 4.8373 16.1366 4.86345C17.2337 5.96054 17.85 7.44851 17.85 9.00003V17C17.85 17.4907 17.6551 17.9612 17.3082 18.3082C16.9612 18.6551 16.4907 18.85 16 18.85H15.85V21C15.85 21.4695 15.4695 21.85 15 21.85C14.5306 21.85 14.15 21.4695 14.15 21V18.85H9.85002V21C9.85002 21.4695 9.46947 21.85 9.00002 21.85C8.53058 21.85 8.15002 21.4695 8.15002 21V18.85H8.00002C7.50938 18.85 7.03882 18.6551 6.69188 18.3082C6.34493 17.9612 6.15002 17.4907 6.15002 17V9.00003C6.15002 7.44851 6.76636 5.96054 7.86345 4.86345C7.88961 4.8373 7.91599 4.81141 7.94258 4.7858L7.23976 3.38016C7.02982 2.96028 7.20001 2.44971 7.61989 2.23976ZM9.49853 5.68866C9.34653 5.80349 9.20178 5.92929 9.06553 6.06553C8.49076 6.64031 8.102 7.36631 7.93799 8.15003H16.0621C15.8981 7.36631 15.5093 6.64031 14.9345 6.06553C14.7983 5.92929 14.6535 5.80349 14.5015 5.68867C14.4933 5.68271 14.4852 5.67663 14.4772 5.67042C13.7655 5.14089 12.8977 4.85003 12 4.85003C11.1023 4.85003 10.2346 5.14089 9.52284 5.67043C9.51487 5.67663 9.50676 5.68271 9.49853 5.68866ZM16.15 9.85003H7.85002V17C7.85002 17.0398 7.86583 17.078 7.89396 17.1061C7.92209 17.1342 7.96024 17.15 8.00002 17.15H16C16.0398 17.15 16.078 17.1342 16.1061 17.1061C16.1342 17.078 16.15 17.0398 16.15 17V9.85003ZM4.00002 9.15003C4.46947 9.15003 4.85002 9.53059 4.85002 10V16C4.85002 16.4695 4.46947 16.85 4.00002 16.85C3.53058 16.85 3.15002 16.4695 3.15002 16V10C3.15002 9.53059 3.53058 9.15003 4.00002 9.15003ZM20 9.15003C20.4695 9.15003 20.85 9.53059 20.85 10V16C20.85 16.4695 20.4695 16.85 20 16.85C19.5306 16.85 19.15 16.4695 19.15 16V10C19.15 9.53059 19.5306 9.15003 20 9.15003Z" fill="currentColor"/>
</svg>