<svg viewBox="0 0 24 24" fill="none" xmlns="http://www.w3.org/2000/svg">
<path fill-rule="evenodd" clip-rule="evenodd" d="M11.9848 1.98477C12.5192 1.45029 13.2442 1.15002 14 1.15002C14.2255 1.15002 14.4417 1.23958 14.6011 1.39898C14.7605 1.55839 14.85 1.77459 14.85 2.00002C14.85 2.75589 14.5498 3.4808 14.0153 4.01528C13.4808 4.54976 12.7559 4.85002 12 4.85002C11.7746 4.85002 11.5584 4.76047 11.399 4.60107C11.2396 4.44166 11.15 4.22546 11.15 4.00002C11.15 3.24416 11.4503 2.51925 11.9848 1.98477ZM15.5616 6.15223C15.9525 6.1794 16.6688 6.33679 17.4244 6.68077C18.1903 7.02941 19.074 7.60477 19.7011 8.51934C19.8369 8.71744 19.8826 8.96377 19.8268 9.19741C19.771 9.43104 19.619 9.63017 19.4083 9.74554C19.333 9.78678 19.2486 9.82091 19.1523 9.85983C18.9236 9.95229 18.628 10.0718 18.2286 10.378C17.7311 10.7595 17.3441 11.2725 17.35 11.9915C17.3686 13.6896 18.7171 14.0466 19.1708 14.1667C19.2213 14.1801 19.2607 14.1905 19.2859 14.1995C19.6242 14.3203 19.85 14.6408 19.85 15C19.85 16.2884 19.0823 17.7274 18.2222 18.786C17.7777 19.3331 17.2688 19.829 16.7461 20.1958C16.2445 20.5478 15.6321 20.85 15 20.85C14.129 20.85 13.6146 20.6989 13.1751 20.561C13.1631 20.5573 13.1511 20.5535 13.1393 20.5498C12.7738 20.435 12.5033 20.35 12 20.35C11.4489 20.35 11.0542 20.4418 10.6309 20.5543C10.5906 20.565 10.5495 20.576 10.5076 20.5873C10.1074 20.6952 9.62884 20.8242 9.03593 20.8493C9.02397 20.8498 9.012 20.85 9.00002 20.85C8.1765 20.85 7.47215 20.393 6.93023 19.851C6.3761 19.2969 5.88999 18.5556 5.48976 17.7551C4.69265 16.1609 4.15002 14.1562 4.15002 12.5C4.15002 11.1587 4.41488 9.61829 5.14238 8.38154C5.89529 7.1016 7.15289 6.15001 9.00002 6.15001C9.76747 6.15001 10.5116 6.49023 11.0216 6.7319C11.0953 6.76688 11.1643 6.79993 11.2294 6.83115C11.418 6.92157 11.5744 6.99656 11.7233 7.05803C11.9028 7.13209 11.9822 7.14668 11.9977 7.14941C11.9987 7.14908 12.0008 7.14858 12.0039 7.14781C12.0278 7.14193 12.1151 7.12048 12.3031 7.04271C12.4404 6.9859 12.5586 6.9322 12.6937 6.8708C12.8156 6.81539 12.9514 6.75371 13.1274 6.67782C13.7545 6.40749 14.6252 6.08084 15.5616 6.15223ZM12.953 8.61359C12.7098 8.71418 12.355 8.85001 12 8.85001C11.6524 8.85001 11.3173 8.72955 11.0749 8.62949C10.8778 8.54815 10.6605 8.44393 10.461 8.34817C10.4034 8.32052 10.3472 8.29359 10.2935 8.26811C9.74843 8.00979 9.33258 7.85001 9.00002 7.85001C7.84716 7.85001 7.10476 8.39842 6.60767 9.24348C6.08517 10.1317 5.85002 11.3413 5.85002 12.5C5.85002 13.8438 6.3074 15.5891 7.01029 16.9949C7.36006 17.6944 7.74895 18.2656 8.13232 18.649C8.51744 19.0341 8.80784 19.1442 8.98577 19.1498C9.37225 19.131 9.67397 19.0503 10.0794 18.9419C10.1168 18.9319 10.1551 18.9217 10.1944 18.9113C10.6689 18.7852 11.2302 18.65 12 18.65C12.765 18.65 13.2373 18.7986 13.6407 18.9254C13.6552 18.9299 13.6696 18.9345 13.6839 18.939C14.0415 19.0511 14.371 19.15 15 19.15C15.1179 19.15 15.3805 19.0772 15.7696 18.8042C16.1375 18.546 16.5348 18.1669 16.9028 17.714C17.4733 17.0119 17.8866 16.2432 18.0599 15.6026C17.1638 15.2275 15.6742 14.2505 15.6501 12.0092L15.6501 12.0075C15.6374 10.557 16.4582 9.59333 17.1942 9.02898C17.3234 8.92986 17.4616 8.83655 17.599 8.75119C17.3232 8.53812 17.0216 8.36524 16.7201 8.22799C16.1216 7.95553 15.6019 7.85881 15.4429 7.84808L15.4344 7.84751L15.4344 7.84747C14.9393 7.80912 14.3966 7.98192 13.8004 8.23895C13.6983 8.28295 13.5726 8.33953 13.4439 8.39749C13.2687 8.47637 13.0878 8.55781 12.953 8.61359Z" fill="currentColor"/>
</svg>