<svg width="24" height="24" viewBox="0 0 24 24" fill="none" xmlns="http://www.w3.org/2000/svg">
<g clip-path="url(#clip0_1265_22281)">
<path d="M12 24C18.6274 24 24 18.6274 24 12C24 5.37258 18.6274 0 12 0C5.37258 0 0 5.37258 0 12C0 18.6274 5.37258 24 12 24Z" fill="#FE5D86"/>
<path d="M6.5 7.21431C6.5 6.81969 6.80542 6.5 7.18202 6.5H12.0921C14.9884 6.5 16.0101 6.863 16.7142 7.60069C16.9319 7.83563 17.1008 8.11646 17.21 8.42506C17.3192 8.73366 17.3663 9.06317 17.3483 9.39231C17.3483 10.6649 16.7032 11.5277 14.9625 11.9065C16.6436 12.2186 17.4971 12.9446 17.4971 14.4049C17.5131 14.7454 17.4627 15.0858 17.3491 15.4048C17.2355 15.7237 17.0612 16.0143 16.8371 16.2584C16.148 16.9802 15.022 17.5 11.9918 17.5H7.18202C7.00245 17.5013 6.82974 17.4267 6.70186 17.2928C6.57397 17.1589 6.50137 16.9765 6.5 16.7857V7.21431ZM10.2278 11.3132C10.2278 11.0499 10.4317 10.8367 10.6827 10.8367H12.2635C13.1656 10.8367 13.8405 10.79 14.153 10.4462C14.2258 10.365 14.282 10.2687 14.3179 10.1632C14.3539 10.0578 14.3689 9.94559 14.362 9.83368C14.3814 9.61368 14.3115 9.39506 14.1679 9.23212C13.8508 8.90075 13.1766 8.84231 12.2635 8.84231H9.32127V15.1893H12.2331C13.2245 15.1893 13.9589 15.1109 14.3018 14.7479C14.4597 14.5761 14.5413 14.3423 14.5257 14.1037C14.54 13.8611 14.4591 13.6225 14.3018 13.4437C13.955 13.0814 13.2212 13.0539 12.2331 13.0539H10.6931C10.6314 13.0556 10.57 13.0439 10.5126 13.0197C10.4552 12.9955 10.403 12.9592 10.3592 12.913C10.3157 12.8673 10.2815 12.8126 10.2588 12.7523C10.236 12.692 10.2253 12.6273 10.2272 12.5624L10.2278 11.3132Z" fill="white"/>
</g>
<defs>
<clipPath id="clip0_1265_22281">
<rect width="24" height="24" fill="white"/>
</clipPath>
</defs>
</svg>
