<svg viewBox="0 0 24 24" fill="none" xmlns="http://www.w3.org/2000/svg">
<path fill-rule="evenodd" clip-rule="evenodd" d="M20.3333 21.1667H3.66667C2.7475 21.1667 2 20.4192 2 19.5V7C2 6.08083 2.7475 5.33333 3.66667 5.33333H7.83333V4.5C7.83333 3.12167 8.955 2 10.3333 2H13.6667C15.045 2 16.1667 3.12167 16.1667 4.5V5.33333H20.3333C21.2517 5.33333 22 6.08083 22 7V19.5C22 20.4192 21.2517 21.1667 20.3333 21.1667ZM3.66667 19.5H20.3308L20.3325 12.8333H14.5C14.5 14.2117 13.3783 15.3333 12 15.3333C11.34 15.3333 10.7142 15.0725 10.2375 14.6C9.76 14.1225 9.5 13.4958 9.5 12.8333H3.66667V19.5ZM11.1667 12.8333C11.1667 13.0517 11.2542 13.26 11.4142 13.42C11.5708 13.5758 11.7858 13.6667 12 13.6667C12.46 13.6667 12.8333 13.2933 12.8333 12.8333V11.1667C12.8333 10.9483 12.745 10.74 12.5858 10.58C12.4292 10.425 12.2142 10.3333 12 10.3333C11.54 10.3333 11.1667 10.7075 11.1667 11.1667V12.8333ZM14.5 4.5C14.5 4.04083 14.1267 3.66667 13.6667 3.66667H10.3333C9.87333 3.66667 9.5 4.04083 9.5 4.5V5.33333H14.5V4.5ZM3.66667 7V11.1667H9.5C9.5 9.78833 10.6217 8.66667 12 8.66667C12.66 8.66667 13.2858 8.9275 13.7625 9.4C14.2392 9.8775 14.5 10.5042 14.5 11.1667H20.3325L20.3333 7H3.66667Z" fill="currentColor"/>
</svg>