<svg width="24" height="24" viewBox="0 0 24 24" fill="none" xmlns="http://www.w3.org/2000/svg">
<path fill-rule="evenodd" clip-rule="evenodd" d="M3.23328 7.93212L11.575 2.62377C11.8343 2.45874 12.1657 2.45874 12.425 2.62377L20.7667 7.93212C21.2234 8.22275 21.5 8.72657 21.5 9.26792V19.9167C21.5 20.7911 20.7911 21.5 19.9167 21.5H14.3805C14.3787 21.5 14.3768 21.5 14.375 21.5C14.3731 21.5 14.3713 21.5 14.3694 21.5H9.63052C9.62867 21.5 9.62681 21.5 9.62496 21.5C9.62311 21.5 9.62126 21.5 9.61941 21.5H4.08333C3.20888 21.5 2.5 20.7911 2.5 19.9167V9.26792C2.5 8.72657 2.77657 8.22275 3.23328 7.93212ZM10.4166 19.9167H13.5833V12.7917H10.4166V19.9167ZM15.1666 19.9167V12C15.1666 11.5628 14.8122 11.2084 14.375 11.2084H9.62496C9.18774 11.2084 8.83329 11.5628 8.83329 12V19.9167H4.08329V9.26793L12 4.23005L19.9166 9.26793V19.9167H15.1666Z" fill="#6B7084"/>
</svg>
