<svg width="24" height="24" viewBox="0 0 24 24" fill="none" xmlns="http://www.w3.org/2000/svg">
<path fill-rule="evenodd" clip-rule="evenodd" d="M17.7 3.54H6.3C5.88026 3.54 5.54 3.88026 5.54 4.3V19.7C5.54 20.1197 5.88026 20.46 6.3 20.46H17.7C18.1197 20.46 18.46 20.1197 18.46 19.7V4.3C18.46 3.88026 18.1197 3.54 17.7 3.54ZM6.3 2C5.02975 2 4 3.02974 4 4.3V19.7C4 20.9703 5.02975 22 6.3 22H17.7C18.9703 22 20 20.9703 20 19.7V4.3C20 3.02974 18.9703 2 17.7 2H6.3Z" fill="#6B7084"/>
<path fill-rule="evenodd" clip-rule="evenodd" d="M17.7 3.54H6.3C5.88026 3.54 5.54 3.88026 5.54 4.3V5.46H18.46V4.3C18.46 3.88026 18.1197 3.54 17.7 3.54ZM6.3 2C5.02975 2 4 3.02974 4 4.3V7H20V4.3C20 3.02974 18.9703 2 17.7 2H6.3Z" fill="#6B7084"/>
<path fill-rule="evenodd" clip-rule="evenodd" d="M8.8 12.9239H11.2V10.5239C11.2 10.0823 11.5584 9.72394 12 9.72394C12.4416 9.72394 12.8 10.0823 12.8 10.5239V12.9239H15.2C15.6416 12.9239 16 13.2823 16 13.7239C16 14.1655 15.6416 14.5239 15.2 14.5239H12.8V16.9239C12.8 17.3655 12.4416 17.7239 12 17.7239C11.5584 17.7239 11.2 17.3655 11.2 16.9239V14.5239H8.8C8.3584 14.5239 8 14.1655 8 13.7239C8 13.2823 8.3584 12.9239 8.8 12.9239Z" fill="#6B7084"/>
</svg>
