<svg viewBox="0 0 24 24" fill="none" xmlns="http://www.w3.org/2000/svg">
<path fill-rule="evenodd" clip-rule="evenodd" d="M3.53849 5.8385V18.1615C3.53849 19.4328 4.56763 20.4615 5.83853 20.4615H18.1615C19.4328 20.4615 20.4616 19.4324 20.4616 18.1615V5.8385C20.4616 4.56722 19.4324 3.53846 18.1615 3.53846H5.83853C4.56725 3.53846 3.53849 4.5676 3.53849 5.8385ZM2 5.8385C2 3.71806 3.71743 2 5.8385 2H18.1615C20.2819 2 22 3.71743 22 5.8385V18.1615C22 20.2819 20.2826 22 18.1615 22H5.8385C3.71806 22 2 20.2826 2 18.1615V5.8385Z" fill="currentColor"/>
<path fill-rule="evenodd" clip-rule="evenodd" d="M8.8 11.2H11.2V8.8C11.2 8.3584 11.5584 8 12 8C12.4416 8 12.8 8.3584 12.8 8.8V11.2H15.2C15.6416 11.2 16 11.5584 16 12C16 12.4416 15.6416 12.8 15.2 12.8H12.8V15.2C12.8 15.6416 12.4416 16 12 16C11.5584 16 11.2 15.6416 11.2 15.2V12.8H8.8C8.3584 12.8 8 12.4416 8 12C8 11.5584 8.3584 11.2 8.8 11.2Z" fill="currentColor"/>
</svg>