<svg width="24" height="24" viewBox="0 0 24 24" fill="none" xmlns="http://www.w3.org/2000/svg">
<path fill-rule="evenodd" clip-rule="evenodd" d="M13.3378 20.3333H17C17.4602 20.3333 17.8333 19.9602 17.8333 19.5V17.3657C17.8333 16.9055 18.2064 16.5324 18.6667 16.5324C19.5871 16.5324 20.3333 15.7862 20.3333 14.8657C20.3333 13.9453 19.5871 13.1991 18.6667 13.1991C18.2064 13.1991 17.8333 12.826 17.8333 12.3657V7C17.8333 6.53976 17.4602 6.16667 17 6.16667H13.6667C13.2064 6.16667 12.8333 5.79357 12.8333 5.33333C12.8333 4.41286 12.0871 3.66667 11.1667 3.66667C10.2462 3.66667 9.5 4.41286 9.5 5.33333C9.5 5.79357 9.1269 6.16667 8.66667 6.16667H4.5C4.03976 6.16667 3.66667 6.53976 3.66667 7V9.60501C5.10436 9.97505 6.16667 11.2801 6.16667 12.8333C6.16667 14.3865 5.10436 15.6916 3.66667 16.0617V19.5C3.66667 19.9602 4.03976 20.3333 4.5 20.3333H6.80451C7.11335 18.8118 8.45852 17.6667 10.0712 17.6667C11.6838 17.6667 13.029 18.8118 13.3378 20.3333ZM19.5 19.5C19.5 20.8807 18.3807 22 17 22H12.5657C12.0839 22 11.7025 21.5927 11.7342 21.1119C11.7366 21.0749 11.7378 21.0375 11.7378 21C11.7378 20.0795 10.9916 19.3333 10.0712 19.3333C9.15069 19.3333 8.40449 20.0795 8.40449 21C8.40449 21.0375 8.40572 21.0749 8.40816 21.1119C8.4398 21.5927 8.0584 22 7.57663 22H4.5C3.11929 22 2 20.8807 2 19.5V15.3333C2 14.8731 2.3731 14.5 2.83333 14.5C3.75381 14.5 4.5 13.7538 4.5 12.8333C4.5 11.9129 3.75381 11.1667 2.83333 11.1667C2.3731 11.1667 2 10.7936 2 10.3333V7C2 5.61929 3.11929 4.5 4.5 4.5H7.93835C8.30838 3.06231 9.61347 2 11.1667 2C12.7199 2 14.0249 3.06231 14.395 4.5H17C18.3807 4.5 19.5 5.61929 19.5 7V11.6374C20.9377 12.0075 22 13.3125 22 14.8657C22 16.4189 20.9377 17.724 19.5 18.0941V19.5Z" fill="#6B7084"/>
</svg>
