<svg viewBox="0 0 24 24" fill="none" xmlns="http://www.w3.org/2000/svg">
<path fill-rule="evenodd" clip-rule="evenodd" d="M20.1439 7.32763C21.2182 7.65071 22 8.64716 22 9.82608C22 11.2667 20.8326 12.4348 19.3908 12.4348C17.95 12.4348 16.7826 11.2667 16.7826 9.82608C16.7826 8.7967 17.3787 7.90643 18.2446 7.48207C16.8587 5.21913 14.3633 3.73913 11.5652 3.73913C7.24299 3.73913 3.73913 7.24299 3.73913 11.5652C3.73913 15.8874 7.24299 19.3913 11.5652 19.3913C13.7399 19.3913 15.7703 18.5011 17.2391 16.9555C17.5699 16.6074 18.1203 16.5933 18.4685 16.9242C18.8166 17.255 18.8306 17.8054 18.4998 18.1535C16.7059 20.0411 14.2215 21.1304 11.5652 21.1304C6.28249 21.1304 2 16.8479 2 11.5652C2 6.28249 6.28249 2 11.5652 2C15.2864 2 18.5689 4.14092 20.1439 7.32763Z" fill="currentColor"/>
</svg>