<svg viewBox="0 0 24 24" fill="none" xmlns="http://www.w3.org/2000/svg">
<path fill-rule="evenodd" clip-rule="evenodd" d="M18.2259 2H17.3891H7.34728H6.51046C5.08787 2 4 3.08787 4 4.51046V7.85774V9.53138V11.1213V12.8787V19.4895C4 20.9121 5.08787 22 6.51046 22H18.2259C19.6485 22 20.7364 20.9121 20.7364 19.4895V12.8787V11.1213V9.53138V7.85774V4.51046C20.7364 3.08787 19.6485 2 18.2259 2ZM6.51046 3.67364H18.2259C18.728 3.67364 19.0628 4.00837 19.0628 4.51046V5.51464C18.8117 5.43096 18.5607 5.34728 18.2259 5.34728H17.3891H7.34728H6.51046C6.17573 5.34728 5.92469 5.43096 5.67364 5.51464V4.51046C5.67364 4.00837 6.00837 3.67364 6.51046 3.67364ZM5.67364 7.85774C5.67364 7.35565 6.00837 7.02092 6.51046 7.02092H18.2259C18.728 7.02092 19.0628 7.35565 19.0628 7.85774V8.77824C18.8117 8.69456 18.5607 8.61088 18.2259 8.61088H17.3891H7.34728H6.51046C6.17573 8.61088 5.92469 8.69456 5.67364 8.77824V7.85774ZM19.0628 12.0418V12.8787V15.2218V17.8996V19.4895C19.0628 19.9916 18.728 20.3264 18.2259 20.3264H6.51046C6.00837 20.3264 5.67364 19.9916 5.67364 19.4895V17.8996V15.2218V12.8787V12.0418V11.1213C5.67364 10.6192 6.00837 10.2845 6.51046 10.2845H18.2259C18.728 10.2845 19.0628 10.6192 19.0628 11.1213V12.0418Z" fill="currentColor"/>
</svg>