<svg width="24" height="24" viewBox="0 0 24 24" fill="none" xmlns="http://www.w3.org/2000/svg">
<path fill-rule="evenodd" clip-rule="evenodd" d="M17.7 3.54H6.3C5.88026 3.54 5.54 3.88026 5.54 4.3V19.7C5.54 20.1197 5.88026 20.46 6.3 20.46H17.7C18.1197 20.46 18.46 20.1197 18.46 19.7V4.3C18.46 3.88026 18.1197 3.54 17.7 3.54ZM6.3 2C5.02975 2 4 3.02974 4 4.3V19.7C4 20.9703 5.02975 22 6.3 22H17.7C18.9703 22 20 20.9703 20 19.7V4.3C20 3.02974 18.9703 2 17.7 2H6.3Z" fill="#6B7084"/>
<path fill-rule="evenodd" clip-rule="evenodd" d="M10.3029 7.82843L12 9.52548L13.6971 7.82843C14.0093 7.51617 14.5162 7.51617 14.8284 7.82843C15.1407 8.14069 15.1407 8.64754 14.8284 8.9598L13.1314 10.6569L14.8284 12.3539C15.1407 12.6662 15.1407 13.173 14.8284 13.4853C14.5162 13.7975 14.0093 13.7975 13.6971 13.4853L12 11.7882L10.3029 13.4853C9.99068 13.7975 9.48383 13.7975 9.17157 13.4853C8.85931 13.173 8.85931 12.6662 9.17157 12.3539L10.8686 10.6569L9.17157 8.9598C8.85931 8.64754 8.85931 8.14069 9.17157 7.82843C9.48383 7.51617 9.99068 7.51617 10.3029 7.82843Z" fill="#6B7084"/>
<path d="M8.37135 18.6766C8.37135 18.2513 8.71609 17.9066 9.14135 17.9066H14.8587C15.2839 17.9066 15.6287 18.2513 15.6287 18.6766C15.6287 19.1018 15.2839 19.4466 14.8587 19.4466H9.14135C8.71609 19.4466 8.37135 19.1018 8.37135 18.6766Z" fill="#6B7084"/>
</svg>
