<svg viewBox="0 0 24 24" fill="none" xmlns="http://www.w3.org/2000/svg">
<path fill-rule="evenodd" clip-rule="evenodd" d="M5.80942 4.71431C5.80942 4.52189 5.87077 4.33447 5.98456 4.1793C6.28004 3.77638 6.84621 3.68927 7.24914 3.98475L17.1843 11.2705C17.2587 11.3251 17.3243 11.3907 17.3788 11.4651C17.6743 11.868 17.5872 12.4342 17.1843 12.7297L7.24914 20.0154C7.09396 20.1292 6.90655 20.1906 6.71412 20.1906C6.21447 20.1906 5.80942 19.7855 5.80942 19.2859L5.80942 4.71431ZM4 4.71431L4 19.2859C4 20.7848 5.21516 22 6.71412 22C7.2914 22 7.85364 21.8159 8.31916 21.4746L18.2543 14.1888C19.4631 13.3023 19.7244 11.6038 18.8379 10.3951C18.6743 10.1719 18.4775 9.97507 18.2543 9.81141L8.31916 2.52563C7.11039 1.63919 5.41188 1.9005 4.52544 3.10927C4.18406 3.57479 4 4.13703 4 4.71431Z" fill="currentColor"/>
</svg>