<svg viewBox="0 0 24 24" fill="none" xmlns="http://www.w3.org/2000/svg">
<path fill-rule="evenodd" clip-rule="evenodd" d="M17.1906 4.71431C17.1906 4.52189 17.1292 4.33447 17.0154 4.1793C16.72 3.77638 16.1538 3.68927 15.7509 3.98475L5.81572 11.2705C5.74134 11.3251 5.67573 11.3907 5.62118 11.4651C5.3257 11.868 5.4128 12.4342 5.81572 12.7297L15.7509 20.0154C15.906 20.1292 16.0935 20.1906 16.2859 20.1906C16.7855 20.1906 17.1906 19.7855 17.1906 19.2859L17.1906 4.71431ZM19 4.71431L19 19.2859C19 20.7848 17.7848 22 16.2859 22C15.7086 22 15.1464 21.8159 14.6808 21.4746L4.7457 14.1888C3.53692 13.3023 3.27562 11.6038 4.16206 10.3951C4.32571 10.1719 4.52253 9.97507 4.7457 9.81141L14.6808 2.52563C15.8896 1.63919 17.5881 1.9005 18.4746 3.10927C18.8159 3.57479 19 4.13703 19 4.71431Z" fill="currentColor"/>
</svg>