<svg width="24" height="24" viewBox="0 0 24 24" fill="none" xmlns="http://www.w3.org/2000/svg">
<path fill-rule="evenodd" clip-rule="evenodd" d="M20.5238 21.9227C20.2333 22.0601 19.8922 22.0115 19.6492 21.798L14.4545 17.2538L9.25907 21.7988C9.10771 21.9311 8.91789 21.999 8.72643 21.999C8.61025 21.999 8.49407 21.9738 8.38443 21.9227C8.0948 21.7862 7.90825 21.4906 7.90825 21.164V6.13122C7.90825 5.66977 8.27562 5.34985 8.72725 5.34985H20.1818C20.6334 5.34985 21 5.66977 21 6.13122V21.164C21 21.4906 20.8134 21.7862 20.5238 21.9227ZM19.3636 6.96631H9.54464V19.3485L13.9219 15.5187C14.2287 15.2515 14.6804 15.2507 14.9872 15.5195L19.3636 19.3485V6.96631ZM15.2719 3.62639H4.63636V16.0906L5.31955 15.5345C5.673 15.2481 6.18682 15.3067 6.46909 15.6677C6.75136 16.0286 6.69245 16.5546 6.339 16.8418L4.32791 18.4774C4.17982 18.5972 3.99982 18.6592 3.81818 18.6592C3.69709 18.6592 3.576 18.6315 3.46309 18.5754C3.18 18.4372 3 18.1441 3 17.8242V2.79058C3 2.32913 3.36655 2 3.81818 2H15.2727C15.7244 2 16.0901 2.32913 16.0901 2.79058C16.0901 3.25203 15.7235 3.62639 15.2719 3.62639Z" fill="#6B7084"/>
</svg>
