<svg width="24" height="24" viewBox="0 0 24 24" fill="none" xmlns="http://www.w3.org/2000/svg">
<path fill-rule="evenodd" clip-rule="evenodd" d="M20.4835 18.0525C20.2427 18.4425 19.8089 18.6667 19.2954 18.6667H15.6679C15.6679 20.5042 14.1718 22 12.3333 22C10.4948 22 8.99952 20.5042 8.99952 18.6667H5.37374C4.86021 18.6667 4.42639 18.4425 4.18557 18.0525C3.94475 17.6625 3.93803 17.1742 4.16711 16.715L6.50066 12.6125V7.83333C6.50066 4.61667 9.117 2 12.3333 2C15.5504 2 18.1684 4.61667 18.1684 7.83333V12.6125L20.481 16.6758C20.7311 17.1742 20.7252 17.6625 20.4835 18.0525ZM12.3333 20.3333C13.253 20.3333 14.0015 19.5858 14.0015 18.6667H10.666C10.666 19.5858 11.4136 20.3333 12.3333 20.3333ZM16.6111 13.245C16.4919 13.0367 16.4776 12.8 16.5439 12.5875V8.0425C16.5255 7.97417 16.502 7.9075 16.502 7.83333C16.502 5.53583 14.6316 3.66667 12.3333 3.66667C10.0367 3.66667 8.16798 5.53583 8.16798 7.83333V12.8333C8.16798 12.85 8.15875 12.8633 8.15791 12.88C8.15539 12.9358 8.13945 12.9875 8.12519 13.0425C8.11092 13.0975 8.09833 13.1508 8.07316 13.2C8.06645 13.215 8.06645 13.2308 8.0589 13.245L5.92169 17H18.7483L16.6111 13.245Z" fill="#6B7084"/>
</svg>
