<svg viewBox="0 0 24 24" fill="none" xmlns="http://www.w3.org/2000/svg">
<rect x="4.77" y="2.77" width="14.46" height="18.46" rx="1.53" stroke="#6B7084" stroke-width="1.54"/>
<path fill-rule="evenodd" clip-rule="evenodd" d="M11.3121 7.90126C11.4835 7.52417 11.3167 7.07954 10.9396 6.90815C10.5625 6.73677 10.1179 6.90353 9.94652 7.28062L9.03942 9.27649C8.86804 9.65359 9.0348 10.0982 9.4119 10.2696L11.4084 11.177C11.7855 11.3484 12.2301 11.1816 12.4015 10.8045C12.5729 10.4274 12.4061 9.98279 12.0291 9.81141L11.718 9.67004C11.8107 9.66064 11.9047 9.65582 12 9.65582C13.5188 9.65582 14.75 10.887 14.75 12.4058C14.75 13.9246 13.5188 15.1558 12 15.1558C10.4812 15.1558 9.25 13.9246 9.25 12.4058C9.25 11.9916 8.91421 11.6558 8.5 11.6558C8.08579 11.6558 7.75 11.9916 7.75 12.4058C7.75 14.753 9.65279 16.6558 12 16.6558C14.3472 16.6558 16.25 14.753 16.25 12.4058C16.25 10.0586 14.3472 8.15582 12 8.15582C11.7122 8.15582 11.4307 8.18453 11.1585 8.23927L11.3121 7.90126Z" fill="currentColor"/>
</svg>