<svg width="24" height="24" viewBox="0 0 24 24" fill="none" xmlns="http://www.w3.org/2000/svg">
<path fill-rule="evenodd" clip-rule="evenodd" d="M17.7 3.54H6.3C5.88026 3.54 5.54 3.88026 5.54 4.3V19.7C5.54 20.1197 5.88026 20.46 6.3 20.46H17.7C18.1197 20.46 18.46 20.1197 18.46 19.7V4.3C18.46 3.88026 18.1197 3.54 17.7 3.54ZM6.3 2C5.02975 2 4 3.02974 4 4.3V19.7C4 20.9703 5.02975 22 6.3 22H17.7C18.9703 22 20 20.9703 20 19.7V4.3C20 3.02974 18.9703 2 17.7 2H6.3Z" fill="#6B7084"/>
<path fill-rule="evenodd" clip-rule="evenodd" d="M10.3029 8.82843L12 10.5255L13.6971 8.82843C14.0093 8.51617 14.5162 8.51617 14.8284 8.82843C15.1407 9.14069 15.1407 9.64754 14.8284 9.9598L13.1314 11.6569L14.8284 13.3539C15.1407 13.6662 15.1407 14.173 14.8284 14.4853C14.5162 14.7975 14.0093 14.7975 13.6971 14.4853L12 12.7882L10.3029 14.4853C9.99068 14.7975 9.48383 14.7975 9.17157 14.4853C8.85931 14.173 8.85931 13.6662 9.17157 13.3539L10.8686 11.6569L9.17157 9.9598C8.85931 9.64754 8.85931 9.14069 9.17157 8.82843C9.48383 8.51617 9.99068 8.51617 10.3029 8.82843Z" fill="#6B7084"/>
</svg>
