<svg viewBox="0 0 24 24" fill="none" xmlns="http://www.w3.org/2000/svg">
<path fill-rule="evenodd" clip-rule="evenodd" d="M3.53849 18.1615V5.8385C3.53849 4.5676 4.56725 3.53846 5.83853 3.53846H18.1615C19.4324 3.53846 20.4616 4.56722 20.4616 5.8385V18.1615C20.4616 19.4324 19.4328 20.4615 18.1615 20.4615H5.83853C4.56763 20.4615 3.53849 19.4328 3.53849 18.1615ZM5.8385 2C3.71743 2 2 3.71806 2 5.8385V18.1615C2 20.2826 3.71806 22 5.8385 22H18.1615C20.2826 22 22 20.2819 22 18.1615V5.8385C22 3.71743 20.2819 2 18.1615 2H5.8385ZM13.3374 16H11.9517V9.646H11.8604L9.93213 10.9995V9.66748L11.957 8.24951H13.3374V16Z" fill="currentColor"/>
</svg>