<svg viewBox="0 0 24 24" fill="none" xmlns="http://www.w3.org/2000/svg">
<path fill-rule="evenodd" clip-rule="evenodd" d="M18.5699 21.9113C18.4602 21.9707 18.3404 22 18.2222 22C18.0573 22 17.8932 21.9431 17.7556 21.8327L12 17.1998L6.24444 21.8327C6.008 22.0234 5.693 22.0519 5.43011 21.9113C5.16644 21.7699 5 21.4812 5 21.165V2.80074C5 2.33971 5.34844 2 5.77778 2H18.2222C18.6516 2 19 2.33971 19 2.80074V21.165C19 21.4812 18.8336 21.7699 18.5699 21.9113ZM17.4445 3.63574H6.55557V19.4957L11.5334 15.4895C11.6718 15.3774 11.8359 15.3221 12 15.3221C12.1641 15.3221 12.3282 15.3774 12.4667 15.4895L17.4445 19.4957V3.63574ZM11.2222 11.9829V10.3137H9.66669C9.23735 10.3137 8.88891 9.9405 8.88891 9.47863C8.88891 9.0176 9.23735 8.64442 9.66669 8.64442H11.2222V6.97434C11.2222 6.51331 11.5707 6.14014 12 6.14014C12.4294 6.14014 12.7778 6.51331 12.7778 6.97434V8.64442H14.3334C14.7627 8.64442 15.1111 9.0176 15.1111 9.47863C15.1111 9.9405 14.7627 10.3137 14.3334 10.3137H12.7778V11.9829C12.7778 12.4439 12.4294 12.818 12 12.818C11.5707 12.818 11.2222 12.4439 11.2222 11.9829Z" fill="currentColor"/>
</svg>