<svg viewBox="0 0 24 24" fill="none" xmlns="http://www.w3.org/2000/svg">
<path fill-rule="evenodd" clip-rule="evenodd" d="M15.7 2H8.3C7.02975 2 6 3.02974 6 4.3V19.7C6 20.9703 7.02975 22 8.3 22H15.7C16.9703 22 18 20.9703 18 19.7V4.3C18 3.02974 16.9703 2 15.7 2ZM7.54 19.7V9.06403H14.1502C14.5755 9.06403 14.9202 8.71929 14.9202 8.29403V6.55052H16.46V19.7C16.46 20.1197 16.1197 20.46 15.7 20.46H8.3C7.88026 20.46 7.54 20.1197 7.54 19.7ZM16.3758 4.3C16.3758 3.88026 16.0355 3.54 15.6158 3.54H8.38496C7.96523 3.54 7.62496 3.88026 7.62496 4.3V5.01052H16.3758V4.3ZM9.72496 6.60403H7.62496V7.52403H9.72496V6.60403ZM11.2802 6.60403H13.3802V7.52403H11.2802V6.60403Z" fill="currentColor"/>
</svg>