<svg width="24" height="24" viewBox="0 0 24 24" fill="none" xmlns="http://www.w3.org/2000/svg">
<path fill-rule="evenodd" clip-rule="evenodd" d="M2 5.81818C2 4.81403 2.81403 4 3.81818 4H20.1818C21.186 4 22 4.81403 22 5.81818V16.7273C22 17.7314 21.186 18.5455 20.1818 18.5455H15.6364V19.4545C15.6364 19.9566 15.2294 20.3636 14.7273 20.3636H9.27273C8.77065 20.3636 8.36364 19.9566 8.36364 19.4545V18.5455H3.81818C2.81403 18.5455 2 17.7314 2 16.7273V5.81818ZM20.1818 5.81818H3.81818V16.7273H20.1818V5.81818ZM6.54545 7.63636C6.04338 7.63636 5.63636 8.04338 5.63636 8.54545V9.45455C5.63636 9.95662 6.04338 10.3636 6.54545 10.3636H10.1818C10.6839 10.3636 11.0909 9.95662 11.0909 9.45455V8.54545C11.0909 8.04338 10.6839 7.63636 10.1818 7.63636H6.54545ZM12.9091 8.54545C12.9091 8.04338 13.3161 7.63636 13.8182 7.63636H17.4545C17.9566 7.63636 18.3636 8.04338 18.3636 8.54545V9.45455C18.3636 9.95662 17.9566 10.3636 17.4545 10.3636H13.8182C13.3161 10.3636 12.9091 9.95662 12.9091 9.45455V8.54545ZM6.54545 12.1818C6.04338 12.1818 5.63636 12.5888 5.63636 13.0909V14C5.63636 14.5021 6.04338 14.9091 6.54545 14.9091H10.1818C10.6839 14.9091 11.0909 14.5021 11.0909 14V13.0909C11.0909 12.5888 10.6839 12.1818 10.1818 12.1818H6.54545ZM12.9091 13.0909C12.9091 12.5888 13.3161 12.1818 13.8182 12.1818H17.4545C17.9566 12.1818 18.3636 12.5888 18.3636 13.0909V14C18.3636 14.5021 17.9566 14.9091 17.4545 14.9091H13.8182C13.3161 14.9091 12.9091 14.5021 12.9091 14V13.0909Z" fill="#6B7084"/>
</svg>
