<svg viewBox="0 0 24 24" fill="none" xmlns="http://www.w3.org/2000/svg">
<path fill-rule="evenodd" clip-rule="evenodd" d="M20.4615 19.6923C20.4615 20.1162 20.1169 20.4615 19.6923 20.4615H11.2307C10.8061 20.4615 10.4615 20.1162 10.4615 19.6923V17.3846H12.7692C14.0415 17.3846 15.0769 16.3492 15.0769 15.0769V8.15385H19.6923C20.1169 8.15385 20.4615 8.49923 20.4615 8.92308V19.6923ZM3.53849 15.0769V4.30769C3.53849 3.88385 3.88311 3.53846 4.30772 3.53846H12.7693C13.1939 3.53846 13.5385 3.88385 13.5385 4.30769V15.0769C13.5385 15.5008 13.1939 15.8462 12.7693 15.8462H4.30772C3.88311 15.8462 3.53849 15.5008 3.53849 15.0769ZM19.6923 6.61538H15.0769V4.30769C15.0769 3.03538 14.0415 2 12.7692 2H4.30769C3.03538 2 2 3.03538 2 4.30769V15.0769C2 16.3492 3.03538 17.3846 4.30769 17.3846H8.92308V19.6923C8.92308 20.9646 9.95846 22 11.2308 22H19.6923C20.9646 22 22 20.9646 22 19.6923V8.92308C22 7.65077 20.9646 6.61538 19.6923 6.61538Z" fill="currentColor"/>
</svg>