<svg viewBox="0 0 24 24" fill="none" xmlns="http://www.w3.org/2000/svg">
<rect x="4.27" y="2.77" width="12.46" height="15.46" rx="1.53" stroke="#6B7084" stroke-width="1.54"/>
<path d="M6.5 19.0001V19.7001C6.5 20.9703 7.52975 22.0001 8.8 22.0001H18.2C19.4703 22.0001 20.5 20.9703 20.5 19.7001V7.30006C20.5 6.02981 19.4703 5.00006 18.2 5.00006H17.5V6.54006H18.2C18.6197 6.54006 18.96 6.88032 18.96 7.30006V19.7001C18.96 20.1198 18.6197 20.4601 18.2 20.4601H8.8C8.38026 20.4601 8.04 20.1198 8.04 19.7001V19.0001H6.5Z" fill="currentColor"/>
<path fill-rule="evenodd" clip-rule="evenodd" d="M8.80294 7.67163L10.5 9.36869L12.1971 7.67163C12.5093 7.35937 13.0162 7.35937 13.3284 7.67163C13.6407 7.98389 13.6407 8.49075 13.3284 8.803L11.6314 10.5001L13.3284 12.1971C13.6407 12.5094 13.6407 13.0162 13.3284 13.3285C13.0162 13.6407 12.5093 13.6407 12.1971 13.3285L10.5 11.6314L8.80294 13.3285C8.49068 13.6407 7.98383 13.6407 7.67157 13.3285C7.35931 13.0162 7.35931 12.5094 7.67157 12.1971L9.36863 10.5001L7.67157 8.803C7.35931 8.49075 7.35931 7.98389 7.67157 7.67163C7.98383 7.35937 8.49068 7.35937 8.80294 7.67163Z" fill="currentColor"/>
</svg>