<svg viewBox="0 0 24 24" fill="none" xmlns="http://www.w3.org/2000/svg">
<path fill-rule="evenodd" clip-rule="evenodd" d="M15.2 3.54H5.8C5.38026 3.54 5.04 3.88026 5.04 4.3V16.7C5.04 17.1197 5.38026 17.46 5.8 17.46H15.2C15.6197 17.46 15.96 17.1197 15.96 16.7V4.3C15.96 3.88026 15.6197 3.54 15.2 3.54ZM5.8 2C4.52974 2 3.5 3.02975 3.5 4.3V16.7C3.5 17.9703 4.52975 19 5.8 19H15.2C16.4703 19 17.5 17.9703 17.5 16.7V4.3C17.5 3.02974 16.4703 2 15.2 2H5.8Z" fill="currentColor"/>
<path d="M6.5 19.0001V19.7001C6.5 20.9703 7.52975 22.0001 8.8 22.0001H18.2C19.4703 22.0001 20.5 20.9703 20.5 19.7001V7.30006C20.5 6.02981 19.4703 5.00006 18.2 5.00006H17.5V6.54006H18.2C18.6197 6.54006 18.96 6.88032 18.96 7.30006V19.7001C18.96 20.1198 18.6197 20.4601 18.2 20.4601H8.8C8.38026 20.4601 8.04 20.1198 8.04 19.7001V19.0001H6.5Z" fill="currentColor"/>
<path fill-rule="evenodd" clip-rule="evenodd" d="M7.3 9.7H9.7V7.3C9.7 6.8584 10.0584 6.5 10.5 6.5C10.9416 6.5 11.3 6.8584 11.3 7.3V9.7H13.7C14.1416 9.7 14.5 10.0584 14.5 10.5C14.5 10.9416 14.1416 11.3 13.7 11.3H11.3V13.7C11.3 14.1416 10.9416 14.5 10.5 14.5C10.0584 14.5 9.7 14.1416 9.7 13.7V11.3H7.3C6.8584 11.3 6.5 10.9416 6.5 10.5C6.5 10.0584 6.8584 9.7 7.3 9.7Z" fill="currentColor"/>
</svg>