<svg viewBox="0 0 24 24" fill="none" xmlns="http://www.w3.org/2000/svg">
<path fill-rule="evenodd" clip-rule="evenodd" d="M18.5699 21.9113C18.4602 21.9707 18.3404 22 18.2222 22C18.0573 22 17.8932 21.9431 17.7556 21.8327L12 17.1998L6.24444 21.8327C6.008 22.0234 5.693 22.0519 5.43011 21.9113C5.16644 21.7699 5 21.4812 5 21.165V2.80074C5 2.33971 5.34844 2 5.77778 2H18.2222C18.6516 2 19 2.33971 19 2.80074V21.165C19 21.4812 18.8336 21.7699 18.5699 21.9113ZM17.4445 3.63574H6.55557V19.4957L11.5334 15.4895C11.6718 15.3774 11.8359 15.3221 12 15.3221C12.1641 15.3221 12.3282 15.3774 12.4667 15.4895L17.4445 19.4957V3.63574ZM11.2572 12.817C11.2456 12.8179 11.2339 12.8179 11.2222 12.8179C11.0161 12.8179 10.8186 12.73 10.6723 12.5735L8.339 10.0692C8.03489 9.74293 8.03489 9.21496 8.339 8.88864C8.64312 8.56316 9.13467 8.56316 9.43878 8.88864L11.1701 10.7461L14.5138 6.43958C14.7883 6.08565 15.2791 6.03879 15.6089 6.33331C15.9387 6.62867 15.9838 7.15497 15.7084 7.5089L11.8196 12.5175C11.6796 12.6982 11.4758 12.8061 11.2572 12.817Z" fill="currentColor"/>
</svg>