<svg width="24" height="24" viewBox="0 0 24 24" fill="none" xmlns="http://www.w3.org/2000/svg">
<g clip-path="url(#clip0_3713_14996)">
<path d="M12 24C18.6274 24 24 18.6274 24 12C24 5.37258 18.6274 0 12 0C5.37258 0 0 5.37258 0 12C0 18.6274 5.37258 24 12 24Z" fill="#F8D339"/>
<path d="M13.2399 16.406V17.9003L11.9372 18.6666L10.6729 17.9003V16.406L11.9372 17.1723L13.2399 16.406ZM6.26672 11.2336L7.53109 11.9999V14.567L9.715 15.8697V17.3639L6.26672 15.3333V11.2336ZM17.6077 11.2336V15.3333L14.1211 17.3639V15.8697L16.305 14.567V11.9999L17.6077 11.2336ZM14.1211 9.20298L15.4238 9.96927V11.4635L13.2399 12.7662V15.3716L11.9755 16.1379L10.7112 15.3716V12.7662L8.45063 11.4635V9.96927L9.75331 9.20298L11.9372 10.5057L14.1211 9.20298ZM8.45063 12.5363L9.715 13.3026V14.7969L8.45063 14.0306V12.5363ZM15.4238 12.5363V14.0306L14.1594 14.7969V13.3026L15.4238 12.5363ZM7.53109 7.9003L8.83377 8.66659L7.53109 9.43287V10.9271L6.26672 10.1608V8.66659L7.53109 7.9003ZM16.3434 7.9003L17.646 8.66659V10.1608L16.3434 10.9271V9.43287L15.079 8.66659L16.3434 7.9003ZM11.9372 7.9003L13.2399 8.66659L11.9372 9.43287L10.6729 8.66659L11.9372 7.9003ZM11.9372 5.33325L15.4238 7.3639L14.1594 8.13019L11.9755 6.8275L9.75331 8.13019L8.48895 7.3639L11.9372 5.33325Z" fill="black"/>
</g>
<defs>
<clipPath id="clip0_3713_14996">
<rect width="24" height="24" fill="white"/>
</clipPath>
</defs>
</svg>
