<svg width="24" height="24" viewBox="0 0 24 24" fill="none" xmlns="http://www.w3.org/2000/svg">
<g clip-path="url(#clip0_1265_22273)">
<path d="M12 24C18.6274 24 24 18.6274 24 12C24 5.37258 18.6274 0 12 0C5.37258 0 0 5.37258 0 12C0 18.6274 5.37258 24 12 24Z" fill="#EAB304"/>
<path d="M15.7778 10.4968L15.8194 10.4137C15.8194 10.3721 15.8194 10.3305 15.9026 10.3602C15.909 10.3229 15.909 10.2847 15.9026 10.2474C15.9226 10.1938 15.9226 10.1347 15.9026 10.0811C15.8183 9.87568 15.8037 9.64831 15.861 9.43379C15.8675 9.40647 15.8675 9.37798 15.861 9.35065L15.9026 9.30908C15.9194 9.32435 15.9335 9.34244 15.9441 9.36253C15.9507 9.38986 15.9507 9.41834 15.9441 9.44567V9.48724C15.9441 9.52881 16.0154 9.44567 16.0451 9.41598C16.0818 9.38767 16.1216 9.36375 16.1639 9.34471C16.1718 9.23611 16.1576 9.12703 16.1223 9.02402C16.0561 8.80048 16.0709 8.56079 16.1639 8.34701C16.1639 8.38859 16.2173 8.41828 16.2173 8.45985C16.2274 8.61426 16.2927 8.75975 16.4014 8.86962C16.522 9.00799 16.6128 9.16952 16.6686 9.34471C16.6686 9.34471 16.6686 9.39816 16.7102 9.39816C16.8812 9.44745 17.0368 9.53891 17.1616 9.6654C17.3053 9.79487 17.4419 9.93145 17.5713 10.0752C17.5937 10.0996 17.6118 10.1278 17.6248 10.1583H17.6663C17.6733 10.0278 17.6733 9.89692 17.6663 9.76636C17.6663 9.65352 17.7198 9.54069 17.8326 9.55851H17.8861C17.8886 9.50838 17.9073 9.46043 17.9395 9.42187C17.9716 9.38331 18.0154 9.35623 18.0642 9.34471C18.0851 9.38083 18.0961 9.42179 18.0961 9.46349C18.0961 9.50518 18.0851 9.54615 18.0642 9.58226C18.1474 9.68322 18.1652 9.73667 18.0642 9.8495C17.9633 9.96234 18.0108 9.97421 18.0642 10.087C18.0758 10.0216 18.1 9.9591 18.1355 9.90295C18.1652 9.84356 18.1771 9.74854 18.2483 9.71885C18.2714 9.7107 18.2965 9.7107 18.3196 9.71885C18.3882 9.73245 18.4588 9.73245 18.5275 9.71885C18.5708 9.71528 18.6142 9.7254 18.6514 9.74777C18.6887 9.77014 18.7181 9.80365 18.7353 9.84356L18.5393 9.93858C18.5809 10.0217 18.5393 10.0514 18.4562 10.1049C18.4148 10.1429 18.377 10.1846 18.3434 10.2296C18.4195 10.2161 18.4949 10.1982 18.569 10.1761C18.6195 10.1633 18.6728 10.1688 18.7196 10.1916C18.7663 10.2145 18.8035 10.2532 18.8244 10.3008C18.8403 10.3344 18.8649 10.3631 18.8956 10.384C18.9532 10.4339 18.9893 10.5041 18.9966 10.58C19.0011 10.5975 19.0011 10.6159 18.9966 10.6334L18.8838 10.5503C18.8694 10.5365 18.8502 10.5288 18.8303 10.5288C18.8104 10.5288 18.7913 10.5365 18.7769 10.5503C18.7569 10.5695 18.7303 10.5802 18.7026 10.5802C18.6749 10.5802 18.6483 10.5695 18.6284 10.5503C18.588 10.5262 18.5418 10.5135 18.4948 10.5135C18.4478 10.5135 18.4016 10.5262 18.3612 10.5503C18.2981 10.5917 18.2327 10.6294 18.1652 10.6631C18.2431 10.6736 18.3176 10.7021 18.3825 10.7465C18.4475 10.7908 18.5012 10.8497 18.5393 10.9185C18.5809 11.0016 18.6403 11.0847 18.6819 11.1738C18.6981 11.2093 18.6998 11.2498 18.6864 11.2864C18.6731 11.3231 18.6458 11.3531 18.6106 11.3698H18.5809V11.3401C18.5809 11.2688 18.5393 11.257 18.4681 11.2688C18.4486 11.2753 18.428 11.2778 18.4075 11.2762C18.3871 11.2746 18.3671 11.2689 18.3489 11.2595C18.3306 11.2501 18.3144 11.2372 18.3013 11.2214C18.2881 11.2057 18.2782 11.1875 18.2721 11.1679C18.2032 11.0296 18.0874 10.9201 17.9455 10.8591L17.8207 10.8056C17.8114 10.8597 17.7934 10.9118 17.7673 10.96C17.7478 10.9911 17.7237 11.0191 17.696 11.0432C17.6129 11.1144 17.6129 11.1263 17.696 11.2273C17.7792 11.3282 17.7376 11.2807 17.7673 11.3282C17.7226 11.3308 17.6779 11.323 17.6367 11.3055C17.5955 11.288 17.5589 11.2612 17.5298 11.2273C17.456 11.1442 17.3959 11.05 17.3516 10.9482C17.3344 10.9006 17.3332 10.8488 17.3482 10.8006C17.3632 10.7523 17.3936 10.7103 17.4347 10.6809C17.4764 10.6396 17.5106 10.5914 17.5357 10.5384L17.114 10.4256C17.1208 10.4907 17.1208 10.5564 17.114 10.6215C17.1283 10.8609 17.1283 11.1008 17.114 11.3401C17.0997 11.6958 17.0439 12.0485 16.9478 12.3913C16.8782 12.6552 16.7786 12.9102 16.6508 13.1514C16.5437 13.3688 16.4227 13.579 16.2886 13.7809C16.174 13.9486 16.047 14.1074 15.9085 14.256C15.7683 14.4204 15.6133 14.5715 15.4453 14.7073C15.2612 14.8617 15.0652 14.9865 14.8514 15.1171C14.5636 15.2998 14.2518 15.4417 13.925 15.5388C13.7045 15.6034 13.4804 15.655 13.2539 15.6932C13.1283 15.7179 13.0014 15.7357 12.8738 15.7466C12.8348 15.759 12.7993 15.7805 12.7704 15.8095C12.7415 15.8384 12.7199 15.8739 12.7075 15.9129C12.6901 16.007 12.6538 16.0966 12.6007 16.1762C12.5476 16.2558 12.4789 16.3238 12.3987 16.3761C12.3275 16.4296 12.2443 16.4771 12.1612 16.5305L12.2028 16.4058C12.2099 16.3787 12.2099 16.3501 12.2026 16.323C12.1953 16.296 12.181 16.2712 12.1612 16.2514C12.1196 16.2098 12.0602 16.2514 12.0068 16.2514C11.9533 16.2514 11.9058 16.3227 11.8939 16.4058C11.8825 16.482 11.852 16.5541 11.8053 16.6153C11.7586 16.6766 11.6972 16.725 11.6267 16.7562H11.5554C11.5741 16.7061 11.588 16.6544 11.597 16.6018C11.597 16.5602 11.5554 16.5186 11.5257 16.4771C11.4961 16.4355 11.4723 16.4771 11.4426 16.4771L11.1872 16.6018L11.1041 16.6433L11.3298 16.7443C11.4519 16.8028 11.5504 16.9013 11.6089 17.0234C11.633 17.0561 11.646 17.0956 11.646 17.1363C11.646 17.1769 11.633 17.2164 11.6089 17.2491C11.602 17.2597 11.5983 17.2721 11.5983 17.2847C11.5983 17.2974 11.602 17.3098 11.6089 17.3204C11.6283 17.3907 11.6335 17.4642 11.6243 17.5365C11.6152 17.6089 11.5918 17.6787 11.5554 17.742C11.5554 17.7836 11.4842 17.8251 11.4545 17.8667L11.4129 17.5817C11.4129 17.5675 11.4073 17.5539 11.3973 17.5439C11.3872 17.5338 11.3736 17.5282 11.3595 17.5282C11.2756 17.5319 11.1925 17.5115 11.1198 17.4694C11.0472 17.4273 10.9882 17.3653 10.9497 17.2907L10.9081 17.2372C10.8346 17.3425 10.7245 17.4166 10.5993 17.4451C10.5144 17.4835 10.4391 17.5401 10.3785 17.611C10.318 17.6818 10.2737 17.765 10.2489 17.8548C10.2286 17.9578 10.1946 18.0577 10.148 18.1518C10.1227 18.2164 10.0732 18.2687 10.01 18.2976C9.94682 18.3264 9.8749 18.3295 9.80947 18.3062V18.5318C9.77731 18.5236 9.74711 18.509 9.72067 18.4889C9.69422 18.4688 9.67205 18.4437 9.65546 18.4149C9.63886 18.3861 9.62818 18.3544 9.62403 18.3214C9.61988 18.2885 9.62236 18.255 9.63131 18.223C9.63854 18.1898 9.63854 18.1553 9.63131 18.1221C9.58998 18.0414 9.57986 17.9484 9.60287 17.8607C9.62588 17.773 9.68041 17.6969 9.75602 17.647C9.87231 17.5622 9.97282 17.4577 10.053 17.3382C10.0571 17.3246 10.0571 17.3102 10.053 17.2966L9.63131 17.2432C9.57969 17.229 9.52573 17.2253 9.47266 17.2325C9.4196 17.2396 9.36853 17.2574 9.3225 17.2847L9.23936 17.3916C9.11464 17.5342 9.05526 17.546 8.88897 17.4629C8.82348 17.5781 8.7984 17.7119 8.81771 17.843C8.7548 17.7817 8.71141 17.7032 8.693 17.6173C8.68574 17.5701 8.68574 17.522 8.693 17.4748V17.3916C8.67942 17.3512 8.67942 17.3074 8.693 17.2669C8.74275 17.1525 8.834 17.0613 8.94836 17.0115C9.07447 16.9289 9.21961 16.8798 9.37001 16.869C9.48284 16.8619 9.59568 16.8619 9.70851 16.869H9.79165C9.76645 16.8074 9.72858 16.7518 9.68049 16.7057C9.63241 16.6597 9.57519 16.6243 9.51254 16.6018L9.19185 16.4771C9.15646 16.4822 9.12047 16.4733 9.0916 16.4522C9.06273 16.4311 9.04329 16.3995 9.03744 16.3642C9.03744 16.3501 9.03181 16.3365 9.02179 16.3264C9.01176 16.3164 8.99817 16.3108 8.98399 16.3108C8.88481 16.3105 8.78772 16.3394 8.70487 16.3939C8.74645 16.2692 8.80583 16.1386 8.94242 16.1148C9.00358 16.1077 9.06536 16.1077 9.12652 16.1148H9.17997C9.26311 15.9901 9.38782 16.0138 9.50066 16.0732C9.66516 16.1516 9.80175 16.2775 9.89261 16.4355C9.91333 16.4765 9.94261 16.5125 9.97847 16.5412C10.0143 16.5699 10.0559 16.5906 10.1005 16.6018C10.1084 16.4932 10.0942 16.3841 10.0589 16.2811C10.0568 16.2333 10.0395 16.1874 10.0097 16.15C9.97977 16.1127 9.93878 16.0858 9.89261 16.0732C9.75008 16.0317 9.70851 15.9307 9.77978 15.7763C9.73283 15.7346 9.6757 15.7061 9.61417 15.6935C9.55264 15.681 9.4889 15.685 9.42939 15.705C9.47096 15.5922 9.63725 15.5506 9.75008 15.5625C9.85206 15.6235 9.96998 15.6524 10.0886 15.6457C10.1284 15.6531 10.1658 15.6699 10.1978 15.6947C10.2298 15.7195 10.2555 15.7515 10.2727 15.7882L10.3558 15.9545C10.4271 16.0792 10.4805 16.2217 10.5399 16.3464C10.6231 16.1089 10.724 15.8535 10.819 15.5863L10.6765 15.5328L10.2667 15.3665C9.95413 15.2313 9.65738 15.062 9.38188 14.8617C9.33366 14.8357 9.28151 14.8176 9.22748 14.8083C9.18591 14.8083 9.12652 14.8617 9.15621 14.9093C9.18591 14.9568 9.22748 14.9627 9.25717 15.0102C9.28687 15.0577 9.25717 15.0518 9.31062 15.0815H9.23936C9.14287 15.0837 9.048 15.0565 8.96737 15.0034C8.88674 14.9504 8.82418 14.874 8.78802 14.7845C8.70052 14.6083 8.64808 14.4166 8.63361 14.2204C8.63639 14.2138 8.63782 14.2067 8.63782 14.1996C8.63782 14.1924 8.63639 14.1854 8.63361 14.1788L8.25354 13.7572C8.22507 13.8297 8.22507 13.9103 8.25354 13.9828L8.29511 14.066V14.1669H8.18227C8.11813 14.0967 8.06596 14.0165 8.02787 13.9294C7.97442 13.7215 7.94472 13.5077 7.90315 13.2999C7.89294 13.1958 7.87507 13.0925 7.84971 12.9911C7.81894 12.8722 7.78126 12.7552 7.73687 12.6407V12.9673C7.73687 12.997 7.66561 12.9673 7.65373 12.9139C7.58928 12.8032 7.5507 12.6793 7.54089 12.5516C7.53394 12.2518 7.57606 11.9529 7.66561 11.6667C7.69283 11.5618 7.72655 11.4587 7.76656 11.3579C7.75293 11.3918 7.73497 11.4237 7.71312 11.4529L7.65967 11.5064V11.4351C7.65794 11.3016 7.69286 11.1701 7.76062 11.0551C7.86158 10.8294 7.98629 10.6037 8.09913 10.384C8.14574 10.3055 8.19732 10.2302 8.25354 10.1583L8.15258 10.2652L8.08131 10.3068V10.2652C8.11953 10.2016 8.16116 10.1402 8.20603 10.0811C8.33962 9.91927 8.49559 9.7773 8.66924 9.65946C8.70963 9.64543 8.75357 9.64543 8.79396 9.65946L9.38782 9.78418L9.59568 9.83762C9.53911 9.89585 9.49111 9.96184 9.45315 10.0336C9.4349 10.0695 9.42538 10.1092 9.42538 10.1494C9.42538 10.1897 9.4349 10.2293 9.45315 10.2652C9.46336 10.2801 9.46883 10.2977 9.46883 10.3157C9.46883 10.3337 9.46336 10.3513 9.45315 10.3662C9.31798 10.4827 9.20353 10.6212 9.11464 10.7759V10.8294C9.11464 10.8294 9.31062 11.0254 9.41158 11.1382C9.41752 11.156 9.41752 11.1738 9.41158 11.1916C9.36668 11.2682 9.34302 11.3553 9.34302 11.444C9.34302 11.5328 9.36668 11.6199 9.41158 11.6964C9.41839 11.7229 9.43052 11.7477 9.44722 11.7694C9.46391 11.7911 9.48484 11.8091 9.50871 11.8224C9.53259 11.8357 9.55893 11.8441 9.58613 11.8469C9.61333 11.8498 9.64082 11.8471 9.66694 11.839C9.66197 11.9544 9.6977 12.0679 9.7679 12.1596C9.80947 12.2012 9.86886 12.2309 9.91043 12.2725C9.9354 12.2899 9.95413 12.3149 9.96387 12.3437C9.99692 12.4496 10.0589 12.5441 10.1429 12.6165C10.2269 12.6889 10.3294 12.7364 10.439 12.7535C10.61 12.7773 10.7834 12.7416 10.9319 12.6526C10.9853 12.6526 11.0031 12.611 11.015 12.6526C11.0483 12.8598 11.1148 13.06 11.211 13.2464C11.3339 13.4638 11.486 13.6633 11.6623 13.8403C11.8209 13.9917 12.0151 14.1016 12.2265 14.161C12.4878 14.2198 12.761 14.1461 12.957 13.965C13.0801 13.8404 13.1841 13.6983 13.2658 13.5434L13.5211 13.1336C13.6335 12.9788 13.7772 12.8493 13.9428 12.7535C13.9703 12.7324 14.0021 12.7176 14.036 12.7104C14.07 12.7032 14.1051 12.7038 14.1388 12.7119L14.0972 12.7951C14.0656 12.8459 14.0489 12.9045 14.0489 12.9643C14.0489 13.0242 14.0656 13.0828 14.0972 13.1336C14.1388 13.187 14.1685 13.187 14.1982 13.1336C14.2278 13.0801 14.2813 12.9792 14.3941 12.9911C14.507 13.0029 14.507 12.9198 14.5188 12.8485C14.5306 12.5393 14.6227 12.2384 14.7861 11.9755C14.8166 11.9442 14.8504 11.9163 14.887 11.8924V12.1181C14.8983 12.181 14.9167 12.2428 14.9405 12.3022L14.9761 12.225C14.9862 12.2036 15.0022 12.1856 15.0222 12.173C15.0422 12.1604 15.0653 12.1537 15.089 12.1537C15.1169 12.1488 15.1422 12.1341 15.1602 12.1121C15.1994 12.0661 15.2264 12.0111 15.2389 11.9519C15.2513 11.8928 15.2488 11.8315 15.2315 11.7736C15.2174 11.6851 15.2174 11.5949 15.2315 11.5064C15.2312 11.3941 15.2598 11.2837 15.3146 11.1857C15.3276 11.1551 15.3456 11.127 15.3681 11.1026H15.4096V11.2985C15.4051 11.3161 15.4051 11.3345 15.4096 11.352H15.4631L15.57 11.2807C15.6104 11.2084 15.629 11.1259 15.6234 11.0432C15.6152 10.996 15.6152 10.9478 15.6234 10.9006V10.4137C15.6234 10.3484 15.6234 10.3424 15.665 10.3008L15.7303 10.2652V10.5265C15.7347 10.5176 15.7415 10.5102 15.7499 10.5049C15.7583 10.4997 15.768 10.4969 15.7778 10.4968ZM8.4792 7.78878L8.82959 7.4384C8.84985 7.41635 8.87401 7.39823 8.90085 7.38495C8.94242 7.34338 8.90085 7.30181 8.90085 7.26024C8.90085 7.21867 8.8474 7.26024 8.79989 7.26024H8.74645V7.18897C8.76121 7.14032 8.78639 7.09547 8.82023 7.05752C8.85408 7.01958 8.89577 6.98945 8.94242 6.96924C9.09596 6.91392 9.26398 6.91392 9.41752 6.96924C9.43047 6.97554 9.44468 6.97882 9.45909 6.97882C9.47349 6.97882 9.48771 6.97554 9.50066 6.96924L9.83916 6.78514C9.89261 6.78514 9.88073 6.73169 9.83916 6.702C9.79759 6.67231 9.7382 6.63074 9.68476 6.702C9.66723 6.70653 9.64884 6.70653 9.63131 6.702C9.63131 6.60104 9.73227 6.5179 9.82729 6.47633C9.98763 6.42704 10.1599 6.42704 10.3202 6.47633H10.344C10.3855 6.47633 10.5102 6.52978 10.6112 6.47633L10.819 6.40507C10.8725 6.40507 10.8725 6.3635 10.819 6.3338C10.7656 6.30411 10.7478 6.25066 10.6943 6.29223C10.6409 6.3338 10.6943 6.29223 10.6409 6.29223C10.6296 6.28014 10.6233 6.26422 10.6233 6.24769C10.6233 6.23116 10.6296 6.21524 10.6409 6.20315C10.7444 6.12505 10.8746 6.09091 11.0031 6.10813C11.12 6.11715 11.2316 6.16054 11.3238 6.23285H11.3654C11.3854 6.2563 11.4116 6.27372 11.441 6.28316C11.4703 6.2926 11.5017 6.29368 11.5317 6.28629C11.5658 6.26589 11.6048 6.25511 11.6445 6.25511C11.6843 6.25511 11.7233 6.26589 11.7574 6.28629H11.7989V6.23285C11.7895 6.19626 11.7679 6.16397 11.7377 6.14131C11.7074 6.11864 11.6704 6.10694 11.6326 6.10813H11.5911C11.6616 6.05308 11.7453 6.01752 11.8339 6.00501C11.9225 5.99251 12.0129 6.00349 12.0959 6.03687C12.2182 6.08675 12.3251 6.16871 12.4047 6.27442C12.4359 6.29364 12.4699 6.30768 12.5056 6.31599C12.5868 6.31345 12.6677 6.3276 12.7432 6.35756C12.8144 6.39913 12.7847 6.35756 12.7966 6.41101C12.8056 6.39191 12.8108 6.37121 12.8118 6.35012C12.8128 6.32902 12.8096 6.30793 12.8025 6.28807C12.7953 6.2682 12.7842 6.24995 12.77 6.23436C12.7558 6.21876 12.7386 6.20614 12.7194 6.19721H12.6006V6.10813C12.6654 6.09548 12.7319 6.09548 12.7966 6.10813C12.9843 6.13011 13.1529 6.23166 13.2598 6.38725C13.3014 6.45852 13.3359 6.53394 13.3608 6.61292C13.4113 6.60671 13.4626 6.61386 13.5095 6.63366C13.5564 6.65346 13.5973 6.68522 13.628 6.72576H13.6696C13.6942 6.72077 13.7182 6.71279 13.7409 6.702C13.7396 6.6557 13.7241 6.61091 13.6964 6.57373C13.6688 6.53654 13.6304 6.50876 13.5865 6.49415H13.5449C13.5983 6.49415 13.6459 6.45258 13.6993 6.49415C13.7884 6.50246 13.8745 6.52681 13.9547 6.56541C14.1661 6.65152 14.3241 6.83206 14.3823 7.05238C14.4832 7.10583 14.5485 7.16522 14.6198 7.20679H14.7029V7.08208C14.6942 7.03967 14.6757 6.99989 14.6489 6.96588C14.6221 6.93186 14.5877 6.90455 14.5485 6.8861L14.4951 6.84453C14.5601 6.82995 14.6277 6.83271 14.6913 6.85251C14.7549 6.87231 14.8121 6.90847 14.8573 6.95736C14.9672 7.05001 15.0492 7.17116 15.0949 7.30775C15.0997 7.32999 15.1097 7.35076 15.1242 7.36832C15.1387 7.38589 15.1571 7.39973 15.178 7.4087C15.2232 7.44255 15.2647 7.47997 15.3027 7.52154C15.3562 7.36713 15.2315 7.28399 15.1899 7.17116C15.2352 7.17211 15.2798 7.18265 15.3208 7.2021C15.3617 7.22155 15.3981 7.24946 15.4275 7.28399C15.5106 7.3707 15.5854 7.46393 15.6531 7.56311C15.6959 7.63556 15.7434 7.70504 15.7957 7.77096C15.8384 7.85054 15.8663 7.93725 15.8788 8.02633C15.8872 8.22768 15.859 8.42888 15.7957 8.62019C15.7885 8.75075 15.7885 8.88159 15.7957 9.01215C15.8016 9.02996 15.8016 9.04778 15.7957 9.0656C15.7432 9.10881 15.6999 9.16206 15.6683 9.22223C15.6367 9.28239 15.6174 9.34826 15.6116 9.41598C15.5834 9.59302 15.5834 9.77341 15.6116 9.95046V9.99203C15.5299 10.0458 15.4627 10.119 15.4161 10.205C15.3695 10.291 15.3448 10.3871 15.3443 10.4849V10.7938C15.2588 10.8111 15.1795 10.8511 15.1147 10.9096C15.0499 10.9681 15.0021 11.043 14.9761 11.1263C14.9345 11.2095 14.9227 11.3104 14.8752 11.3936C14.8277 11.4767 14.8217 11.447 14.792 11.4767V11.3639C14.8275 11.178 14.8414 10.9887 14.8336 10.7997C14.8394 10.5207 14.7868 10.2436 14.6792 9.98609V9.88513C14.7723 9.79024 14.8308 9.66686 14.8455 9.53475C14.8604 9.33708 14.8604 9.13856 14.8455 8.94088C14.8479 8.80069 14.797 8.66481 14.7029 8.56081C14.6547 8.51126 14.5926 8.4774 14.5248 8.46363C14.457 8.44986 14.3866 8.45682 14.3229 8.4836C14.24 8.51865 14.1694 8.57734 14.1197 8.65234C14.0701 8.72734 14.0436 8.81531 14.0437 8.90525V9.1131C13.8338 8.90261 13.5805 8.74048 13.3014 8.63801C13.1412 8.58159 12.9762 8.53985 12.8085 8.5133H12.4462C12.2121 8.51416 11.9796 8.55225 11.7574 8.62613C11.6326 8.6677 11.5198 8.72709 11.3951 8.76866C11.3823 8.77542 11.368 8.77896 11.3535 8.77896C11.339 8.77896 11.3248 8.77542 11.312 8.76866C11.0455 8.60794 10.7576 8.48596 10.4568 8.4064C10.3151 8.36803 10.1698 8.34415 10.0233 8.33514C9.72633 8.27575 9.42939 8.23418 9.17997 8.15698C8.95668 8.10369 8.7439 8.01336 8.55047 7.88974C8.53717 7.8498 8.51238 7.81468 8.4792 7.78878ZM14.0913 10.58C14.0913 10.6809 13.9072 10.7047 13.7112 10.6512V10.8591C13.7142 10.8827 13.7142 10.9067 13.7112 10.9303H13.628C13.5692 10.8827 13.5136 10.8311 13.4618 10.7759C13.4269 10.791 13.396 10.8138 13.3713 10.8426C13.3466 10.8714 13.3288 10.9055 13.3192 10.9422C13.2777 11.0551 13.2183 11.0669 13.1351 10.9422C13.1045 10.9111 13.0706 10.8832 13.0342 10.8591C12.9961 10.9133 12.9544 10.9648 12.9095 11.0135C12.8991 11.0256 12.8864 11.0356 12.8721 11.0427C12.8578 11.0499 12.8423 11.0541 12.8263 11.0551C12.805 11.0341 12.787 11.0101 12.7729 10.9838C12.7668 10.9424 12.7668 10.9004 12.7729 10.8591C12.7016 11.0432 12.6185 11.1976 12.4106 11.2392C12.403 11.1615 12.4174 11.0833 12.4522 11.0135C12.4938 10.9422 12.4522 11.0135 12.4522 10.9719C12.3595 11.061 12.3043 11.182 12.2978 11.3104C12.3073 11.5676 12.3738 11.8194 12.4938 12.0468C12.5769 12.2547 12.6779 12.4566 12.761 12.6407C12.837 12.8289 12.8715 13.0314 12.8619 13.2345C12.8715 13.3378 12.8508 13.4416 12.8024 13.5333C12.754 13.625 12.68 13.7006 12.5893 13.751C12.4987 13.8013 12.3953 13.8243 12.2919 13.8169C12.1885 13.8096 12.0894 13.7723 12.0068 13.7096C11.871 13.6255 11.7522 13.5167 11.6564 13.389C11.5733 13.2761 11.4901 13.1633 11.4189 13.0504C11.379 12.9679 11.3453 12.8826 11.3179 12.7951V12.7119C11.3511 12.7099 11.384 12.7186 11.4118 12.7368C11.4396 12.755 11.4609 12.7817 11.4723 12.8129C11.502 12.8604 11.6267 13.0504 11.7098 13.1633C11.7781 13.2999 11.8809 13.4163 12.0068 13.5018C12.0485 13.5194 12.0933 13.5285 12.1385 13.5288C12.1838 13.5291 12.2287 13.5204 12.2706 13.5033C12.3125 13.4862 12.3507 13.461 12.3828 13.4292C12.415 13.3973 12.4406 13.3594 12.4581 13.3177V13.2761C12.4831 13.2022 12.4924 13.1238 12.4852 13.046C12.478 12.9683 12.4547 12.8929 12.4165 12.8248C12.3156 12.5991 12.1909 12.3734 12.078 12.1537C11.9475 11.9169 11.8572 11.66 11.8108 11.3936C11.8038 11.3284 11.8038 11.2627 11.8108 11.1976C11.7217 11.2047 11.6326 11.2047 11.5436 11.1976L11.2763 11.1263L11.1516 11.2095C11.1572 11.182 11.1572 11.1537 11.1516 11.1263C11.1528 11.0719 11.1391 11.0182 11.1119 10.9711C11.0846 10.9239 11.045 10.8852 10.9972 10.8591C10.9673 10.8591 10.9386 10.871 10.9174 10.8921C10.8963 10.9133 10.8844 10.942 10.8844 10.9719C10.88 11.0325 10.8921 11.0931 10.9192 11.1475C10.9464 11.2018 10.9877 11.2478 11.0388 11.2807L11.2763 11.447C11.3595 11.5005 11.3476 11.5005 11.3892 11.447C11.3949 11.4196 11.3949 11.3913 11.3892 11.3639C11.502 11.3639 11.5436 11.4351 11.5554 11.548C11.5828 11.6905 11.6208 11.8318 11.6683 11.9696C11.6709 11.9995 11.6675 12.0296 11.6583 12.0581C11.6491 12.0867 11.6343 12.1131 11.6148 12.1359C11.5415 12.2283 11.4453 12.3 11.3357 12.3437C11.2459 12.3786 11.1464 12.3786 11.0566 12.3437C11.1084 12.2922 11.164 12.2446 11.2229 12.2012C11.2478 12.1759 11.2658 12.1445 11.2752 12.1102C11.2845 12.0759 11.2849 12.0398 11.2763 12.0052C11.2721 11.9941 11.2648 11.9843 11.2554 11.977C11.246 11.9697 11.2347 11.9651 11.2229 11.9637C11.1677 11.9568 11.1118 11.9568 11.0566 11.9637C11.0136 11.9667 10.9734 11.9858 10.9438 12.0171C10.8464 12.0944 10.7432 12.1639 10.6349 12.225C10.5468 12.2707 10.4464 12.2873 10.3482 12.2724C10.25 12.2574 10.1591 12.2117 10.0886 12.1418C10.0379 12.085 9.99944 12.0183 9.97575 11.9459L9.93418 11.8627C9.91325 11.884 9.88922 11.902 9.86292 11.9162C9.83322 11.9162 9.82135 11.8449 9.86292 11.833C9.88014 11.7558 9.90449 11.6804 9.93418 11.6074C9.94094 11.5945 9.94448 11.5803 9.94448 11.5658C9.94448 11.5513 9.94094 11.537 9.93418 11.5242C9.88668 11.4582 9.82338 11.4051 9.75008 11.3698C9.69663 11.3282 9.64913 11.3698 9.60755 11.3698H9.53629C9.53772 11.3461 9.53772 11.3223 9.53629 11.2985C9.54632 11.236 9.57401 11.1776 9.61609 11.1303C9.65818 11.0829 9.7129 11.0486 9.77384 11.0313H9.8451C9.67485 10.9663 9.52083 10.865 9.39376 10.7344C9.35219 10.6928 9.34031 10.6631 9.39376 10.6215C9.44721 10.58 9.54817 10.4849 9.63131 10.4256C9.79073 10.3689 9.96479 10.3689 10.1242 10.4256C10.2709 10.4742 10.4051 10.555 10.5162 10.6631L10.5577 10.7047C10.5242 10.603 10.4677 10.5104 10.3925 10.4342C10.3173 10.3579 10.2255 10.3001 10.1242 10.2652C9.94335 10.1979 9.7529 10.1598 9.56004 10.1524C9.56959 10.1164 9.58919 10.0839 9.61653 10.0587C9.64387 10.0334 9.67784 10.0165 9.71445 10.0098L10.0351 9.95046C10.1492 9.92508 10.2552 9.87206 10.344 9.79605C10.2866 9.74882 10.225 9.70706 10.1599 9.67134C9.99357 9.60008 9.82135 9.51693 9.65506 9.46349C9.50398 9.39683 9.34389 9.35281 9.17997 9.33284C8.95111 9.30087 8.7262 9.24514 8.5089 9.16655C8.24667 9.09497 7.9965 8.9849 7.76656 8.83993C7.52902 8.68552 7.3271 8.4836 7.1727 8.24606C7.1367 8.18456 7.10876 8.1187 7.08955 8.05008V7.97882H7.16082L7.25584 8.03226C7.41024 8.15698 7.55277 8.31138 7.70718 8.42422C7.89659 8.5617 8.11012 8.66243 8.33668 8.72115C8.52078 8.76272 8.69894 8.80429 8.88304 8.83399C9.06713 8.86368 9.19185 8.83399 9.34625 8.87556L9.68476 8.91713C9.81363 8.92604 9.94131 8.94979 10.0648 8.98839C10.2608 9.05966 10.4449 9.1428 10.629 9.21406C10.6396 9.22096 10.652 9.22464 10.6646 9.22464C10.6773 9.22464 10.6897 9.22096 10.7003 9.21406C10.7775 9.19684 10.8529 9.17249 10.9259 9.1428V9.07747C10.789 9.00107 10.6483 8.93169 10.5043 8.86962C10.2343 8.76344 9.95016 8.69742 9.661 8.67364L9.26905 8.63207C9.05422 8.59652 8.84195 8.54693 8.63361 8.4836C8.41795 8.40513 8.21715 8.29068 8.03974 8.1451C7.89041 8.02982 7.77878 7.87271 7.71905 7.69376V7.56905C7.73504 7.56235 7.7522 7.5589 7.76953 7.5589C7.78687 7.5589 7.80402 7.56235 7.82001 7.56905L7.97442 7.73533C8.05756 7.81847 8.1407 7.90161 8.24166 7.99069C8.47683 8.17479 8.74763 8.30841 9.03744 8.38265C9.20372 8.42422 9.37595 8.45391 9.54223 8.4836C9.80947 8.52518 10.0886 8.56675 10.3558 8.62613C10.6727 8.68296 10.9682 8.82457 11.211 9.0359C11.312 9.11904 11.3951 9.07747 11.4901 9.0359C11.5404 9.02638 11.5925 9.03339 11.6385 9.05586C11.6845 9.07833 11.722 9.11508 11.7455 9.16061C11.8167 9.35243 11.8167 9.56266 11.7455 9.75448C11.7391 9.78998 11.7436 9.82658 11.7584 9.85945C11.7733 9.89233 11.7978 9.91992 11.8286 9.93858H11.8999C11.9828 9.9046 12.0732 9.89328 12.1619 9.90581C12.2506 9.91833 12.3344 9.95424 12.4047 10.0098C12.4267 10.0272 12.4539 10.0366 12.4819 10.0366C12.5099 10.0366 12.5371 10.0272 12.5591 10.0098C12.6755 9.95541 12.7886 9.89393 12.8976 9.82575C13.0104 9.75448 12.951 9.72479 12.9807 9.67134C13.0212 9.58913 13.0867 9.52185 13.1678 9.47917C13.2489 9.43649 13.3414 9.42061 13.4321 9.43379C13.5597 9.43379 13.6874 9.44745 13.8121 9.47536C13.9133 9.5026 14.0198 9.5026 14.121 9.47536C14.1847 9.46771 14.2443 9.44 14.2913 9.39624C14.3383 9.35247 14.3701 9.29492 14.3823 9.23188V8.8518C14.3823 8.81023 14.3823 8.76866 14.4535 8.76866C14.5248 8.76866 14.507 8.82211 14.507 8.86962C14.5497 9.0656 14.5497 9.26751 14.507 9.46349C14.4951 9.54817 14.4506 9.62484 14.3828 9.67702C14.3151 9.72921 14.2296 9.75276 14.1447 9.7426H13.6399C13.5716 9.73828 13.5039 9.7587 13.4494 9.80014C13.3949 9.84158 13.3571 9.90126 13.343 9.96827C13.3364 9.9956 13.3364 10.0241 13.343 10.0514C13.3846 10.1346 13.4142 10.2058 13.539 10.1939C13.6055 10.1999 13.6577 10.2521 13.6637 10.3187C13.6766 10.3898 13.7128 10.4546 13.7665 10.503C13.8203 10.5513 13.8885 10.5805 13.9606 10.5859L14.0913 10.58ZM10.7834 10.1702C10.8547 10.2432 10.9301 10.3127 11.0091 10.378C11.0493 10.4084 11.0983 10.4248 11.1486 10.4248C11.199 10.4248 11.248 10.4084 11.2882 10.378C11.3666 10.3314 11.442 10.2799 11.5139 10.2236V10.1821C11.5072 10.1552 11.4946 10.1301 11.4772 10.1085C11.4598 10.087 11.4378 10.0695 11.4129 10.0574C11.3623 10.044 11.3091 10.044 11.2585 10.0574L11.1575 10.0989C11.0564 10.1262 10.9499 10.1262 10.8487 10.0989L10.7834 10.1702ZM12.7194 10.3662C12.7436 10.3861 12.7721 10.4003 12.8026 10.4077C12.9065 10.4276 13.0007 10.482 13.0698 10.5621C13.1387 10.5687 13.2088 10.5687 13.2777 10.5621C13.3192 10.5621 13.3489 10.5206 13.3905 10.5087C13.3565 10.4676 13.3187 10.4298 13.2777 10.3959C13.1007 10.3213 12.9033 10.3108 12.7194 10.3662ZM5.31983 12.1953C5.3941 12.2747 5.48876 12.3322 5.59348 12.3616C5.69821 12.3909 5.80897 12.3909 5.9137 12.3616C5.94864 12.3512 5.98074 12.333 6.00752 12.3083C6.03429 12.2836 6.05502 12.253 6.0681 12.219C5.84547 12.2705 5.61179 12.241 5.40891 12.1359C5.31294 12.0811 5.22953 12.0069 5.16406 11.9179C5.0986 11.8289 5.05253 11.7271 5.02883 11.6192C4.98436 11.4611 4.99148 11.2929 5.04916 11.1391C5.10683 10.9853 5.21205 10.8539 5.34952 10.7641C5.28819 10.9609 5.30753 11.1741 5.4033 11.3567C5.49907 11.5394 5.66342 11.6765 5.86025 11.738H5.94339C6.12044 11.7748 6.30472 11.7516 6.46712 11.672C6.62951 11.5925 6.76076 11.461 6.84013 11.2985C6.7779 11.3466 6.71842 11.3982 6.66197 11.4529C6.40245 11.6311 6.06038 11.6311 5.80086 11.4529C5.73047 11.4065 5.67223 11.3439 5.63099 11.2703C5.58975 11.1967 5.56671 11.1143 5.56381 11.0301C5.5609 10.9458 5.57821 10.862 5.61428 10.7858C5.65035 10.7095 5.70415 10.643 5.77117 10.5918C5.77915 10.6414 5.79826 10.6885 5.82706 10.7297C5.85586 10.7708 5.8936 10.8049 5.93745 10.8294C6.02463 10.8774 6.11881 10.9115 6.21657 10.9303C6.32305 10.9474 6.43203 10.9397 6.53504 10.9078C6.63804 10.8758 6.73229 10.8206 6.81044 10.7462C6.89642 10.658 6.96315 10.5528 7.00641 10.4374C7.11925 10.1702 7.20239 9.89107 7.3271 9.62383C7.40785 9.46092 7.49705 9.30234 7.59434 9.14874C7.59434 9.10717 7.64779 9.14874 7.67748 9.14874L7.98629 9.31502L8.18227 9.39816L8.09913 9.46943C7.91305 9.66779 7.75337 9.88935 7.62404 10.1286C7.52308 10.3127 7.42806 10.479 7.34492 10.6631C7.26178 10.8472 7.17863 11.0847 7.10737 11.2926L6.94109 11.7677C6.89952 11.8924 6.84013 12.0052 6.78668 12.13C6.70707 12.3105 6.56901 12.459 6.39473 12.5516C6.29235 12.6014 6.18157 12.6316 6.0681 12.6407C5.95571 12.6548 5.84199 12.6548 5.7296 12.6407C5.63863 12.6337 5.55192 12.5993 5.48089 12.5421C5.40986 12.4848 5.35785 12.4074 5.33171 12.32C5.33993 12.2781 5.3358 12.2348 5.31983 12.1953ZM13.6755 11.7202C13.6827 11.7855 13.6827 11.8508 13.6755 11.9162C13.6755 11.9993 13.6221 11.9993 13.5508 11.9577L13.3846 11.8746H13.3133C13.3373 11.9225 13.3498 11.9754 13.3498 12.029C13.3498 12.0826 13.3373 12.1355 13.3133 12.1834C13.3035 12.2123 13.2848 12.2372 13.2598 12.2547H13.1945L13.1529 12.13C13.1386 12.097 13.1118 12.0711 13.0785 12.0578C13.0451 12.0444 13.0079 12.0448 12.9748 12.0587C12.9197 12.0738 12.8676 12.0978 12.8204 12.13H12.7372C12.6347 11.9336 12.5683 11.7203 12.5413 11.5005L12.6006 11.5717C12.6493 11.6088 12.7087 11.6289 12.7699 11.6289C12.8311 11.6289 12.8905 11.6088 12.9392 11.5717C12.9535 11.541 12.9609 11.5076 12.9609 11.4737C12.9609 11.4399 12.9535 11.4064 12.9392 11.3757C12.9392 11.3342 12.8976 11.3045 12.8857 11.2629C12.9688 11.2629 12.9688 11.1916 13.1826 11.447L13.337 11.3639C13.3905 11.3639 13.337 11.2807 13.337 11.251V11.1263L13.438 11.1679C13.4669 11.1776 13.4918 11.1964 13.5093 11.2213C13.5979 11.3213 13.6975 11.4109 13.8062 11.4886C13.8392 11.5159 13.8655 11.5505 13.883 11.5896C13.9005 11.6288 13.9088 11.6714 13.9072 11.7142V11.7677H13.8656C13.7171 11.7202 13.7171 11.7202 13.6755 11.7202ZM6.66197 10.7759C6.54739 10.7084 6.41421 10.6793 6.28189 10.6928C6.22668 10.6996 6.17083 10.6996 6.11561 10.6928C6.08103 10.6871 6.04826 10.6733 6.0199 10.6527C5.99154 10.6321 5.96837 10.6052 5.95224 10.5741C5.9361 10.5429 5.92743 10.5085 5.92693 10.4734C5.92642 10.4384 5.93409 10.4037 5.94933 10.3721C6.00278 10.3721 6.05029 10.4434 6.10373 10.4731C6.15718 10.5028 6.175 10.4731 6.175 10.4315C6.17311 10.3968 6.18173 10.3624 6.19975 10.3327C6.21777 10.3031 6.24433 10.2795 6.27596 10.2652C6.3212 10.2493 6.36988 10.2459 6.4169 10.2553C6.46392 10.2647 6.50754 10.2866 6.5432 10.3187C6.66316 10.4374 6.70948 10.6132 6.66197 10.7759Z" fill="black"/>
</g>
<defs>
<clipPath id="clip0_1265_22273">
<rect width="24" height="24" fill="white"/>
</clipPath>
</defs>
</svg>
