<svg viewBox="0 0 24 24" fill="none" xmlns="http://www.w3.org/2000/svg">
<g clip-path="url(#clip0_1265_22262)">
<path d="M12 24C18.6274 24 24 18.6274 24 12C24 5.37258 18.6274 0 12 0C5.37258 0 0 5.37258 0 12C0 18.6274 5.37258 24 12 24Z" fill="#FF6600"/>
<path d="M12.7007 14.1814C16.0027 13.1629 14.8242 9.73932 12.7007 9.60932C13.2402 9.60932 13.6809 8.06427 13.6809 6.15002C18.8653 6.51857 21.3008 15.0622 13.5249 17.735C13.5749 17.0414 13.2909 15.1057 12.7013 14.1814H12.7007ZM5.5 13.17V9.61647H5.5065C7.38175 9.60932 8.8943 8.05647 8.8878 6.15717H12.5018C12.5024 10.0351 9.37075 13.17 5.5 13.17ZM10.2365 12.5265C12.3815 14.2893 12.5024 17.2579 12.5024 17.85H8.8878C8.8878 15.8857 7.60925 14.2965 6.02585 14.2965C8.71035 13.8636 9.257 13.4086 10.2365 12.5272V12.5265Z" fill="white"/>
</g>
<defs>
<clipPath id="clip0_1265_22262">
<rect width="24" height="24" fill="white"/>
</clipPath>
</defs>
</svg>