<svg viewBox="0 0 24 24" fill="none" xmlns="http://www.w3.org/2000/svg">
<g clip-path="url(#clip0_1265_22255)">
<path d="M12 24C18.6274 24 24 18.6274 24 12C24 5.37258 18.6274 0 12 0C5.37258 0 0 5.37258 0 12C0 18.6274 5.37258 24 12 24Z" fill="#4700C2"/>
<path fill-rule="evenodd" clip-rule="evenodd" d="M10.4029 11.5871C10.1986 11.7202 9.96468 11.8612 9.72221 12.0088V13.3405C9.94228 13.2291 10.1689 13.1164 10.4029 13.0051V11.5865V11.5871ZM6.99833 14.0494C7.06018 14.1693 7.16676 14.2601 7.295 14.302C7.42324 14.3439 7.56284 14.3337 7.68358 14.2735L8.32008 13.9526C8.32403 13.4176 8.32666 13.011 8.32666 12.8496V12.8068C7.78637 13.0756 7.37653 13.2818 7.21906 13.3602C7.09844 13.4224 7.00744 13.5299 6.96605 13.6591C6.92466 13.7884 6.93627 13.9288 6.99833 14.0494ZM10.5952 13.9144C10.595 13.9812 10.6079 14.0473 10.6333 14.1091C10.6587 14.1709 10.696 14.2271 10.7431 14.2744C10.7903 14.3217 10.8463 14.3593 10.908 14.3849C10.9697 14.4105 11.0358 14.4237 11.1026 14.4237H11.1085C11.2435 14.4235 11.3729 14.3698 11.4683 14.2743C11.5636 14.1788 11.6172 14.0493 11.6172 13.9144V9.69544C11.6172 9.62293 11.6016 9.55127 11.5717 9.48523C11.5418 9.41919 11.4981 9.36029 11.4436 9.31246C11.3891 9.26464 11.325 9.22898 11.2557 9.20788C11.1863 9.18677 11.1132 9.1807 11.0413 9.19007C10.9186 9.2052 10.8056 9.26477 10.7238 9.35752C10.642 9.45027 10.5969 9.56978 10.5972 9.69346V11.8006C10.5952 12.5083 10.5952 13.2107 10.5952 13.9144Z" fill="white"/>
<path fill-rule="evenodd" clip-rule="evenodd" d="M17.8503 10.6469C17.818 10.4005 17.6546 10.2634 17.4062 10.1988C17.2085 10.1481 17.0043 10.1382 16.7961 10.1362C16.3111 10.1343 15.8301 10.2127 15.3531 10.3056C14.6639 10.4393 13.9826 10.6106 13.3125 10.8195C13.1102 10.8815 12.9105 10.946 12.7083 11.0106L12.7063 11.0027L12.7425 10.9724C13.1326 10.639 13.52 10.3056 13.9127 9.97613C14.7732 9.24871 15.5494 8.45078 16.2703 7.60871C16.4666 7.38007 16.6359 7.13562 16.7229 6.85691C16.8547 6.43851 16.7071 6.17824 16.2828 6.06096C16.1029 6.01744 15.9183 5.99707 15.7333 6.00034C15.3287 5.99836 14.9294 6.06491 14.5347 6.1453C14.1229 6.23095 13.5266 6.3825 13.1227 6.50506C12.4763 6.70272 11.6777 7.04272 10.9648 7.33131C10.6011 7.47298 10.2137 7.65483 9.85127 7.7965L8.48142 8.35392C6.66287 9.13603 6.13377 8.57399 6.13377 8.57399C6.13377 8.57663 6.13443 8.57861 6.13575 8.58058C6.1323 8.57552 6.12963 8.56997 6.12784 8.56411C5.77401 9.26123 6.06854 10.5276 8.11376 9.62296C8.4353 9.49777 8.76212 9.36204 9.08168 9.23882C9.69775 8.99833 10.3079 8.70116 10.9266 8.4633C11.3522 8.28824 11.7812 8.12172 12.2134 7.96386L12.6035 7.81231C13.0034 7.68053 13.4034 7.55007 13.8112 7.4486C14.256 7.33395 14.6441 7.26476 14.8787 7.29507C14.9024 7.29705 14.9268 7.29903 14.9492 7.30364C15.0559 7.31748 15.1126 7.37414 15.1027 7.4486C15.0987 7.5639 14.9129 7.94607 13.2215 9.35413C13.0983 9.45955 12.9751 9.5663 12.8519 9.67106C12.6621 9.83513 12.4783 9.99656 12.2918 10.1586L12.1363 10.2957L12.1344 10.2977L12.0619 10.3622C12.0562 10.3682 12.05 10.3738 12.0434 10.3787L12.0256 10.3945L11.884 10.5019C11.8743 10.5112 11.8642 10.52 11.8537 10.5283V12.3159C12.4519 12.1116 15.363 11.1404 15.6766 11.425C15.701 11.458 16.0706 11.6879 12.6859 14.0033C12.5528 14.1041 12.4236 14.2049 12.2905 14.3064L11.801 14.68C11.1888 15.1228 10.5807 15.5669 9.96922 16.0097L9.70368 16.2014C9.69973 16.6844 9.69775 17.1469 9.69577 17.5719L16.153 12.8068C16.5468 12.4749 16.92 12.1193 17.2705 11.742C17.4681 11.5305 17.646 11.3058 17.7633 11.0495C17.8239 10.9157 17.8687 10.7866 17.8503 10.6475V10.6469ZM7.32967 17.9751C7.24644 18.0789 7.204 18.2095 7.21031 18.3424C7.21661 18.4752 7.27125 18.6012 7.36393 18.6966C7.44852 18.7863 7.56119 18.8444 7.68329 18.8613C7.80539 18.8782 7.9296 18.8529 8.03535 18.7895L8.29364 18.5998C8.29562 18.2117 8.30023 17.7393 8.30352 17.2293L7.43114 17.8763C7.39345 17.905 7.35938 17.9382 7.32967 17.9751Z" fill="white"/>
<path fill-rule="evenodd" clip-rule="evenodd" d="M9.53439 10.5561C9.50235 10.4364 9.42783 10.3325 9.32477 10.2637C9.2217 10.195 9.09713 10.1661 8.97433 10.1825C8.85157 10.1976 8.73862 10.2572 8.65679 10.3499C8.57497 10.4427 8.52995 10.5622 8.53023 10.6859V12.793C8.53023 13.2193 8.51178 15.335 8.49597 17.0903C8.49202 17.5937 8.4874 18.0662 8.48543 18.4608C8.48147 18.9616 8.4795 19.3372 8.4795 19.4907C8.47924 19.5575 8.49217 19.6237 8.51755 19.6855C8.54293 19.7473 8.58026 19.8034 8.6274 19.8507C8.67453 19.8981 8.73055 19.9356 8.79224 19.9612C8.85392 19.9868 8.92005 20 8.98685 20H8.99278C9.12786 20 9.25741 19.9464 9.35293 19.8509C9.44844 19.7553 9.50211 19.6258 9.50211 19.4907C9.50211 19.1375 9.50606 18.4925 9.51001 17.7025C9.51199 17.2808 9.5166 16.8156 9.51792 16.3326C9.53242 14.1365 9.55218 11.549 9.55086 10.6859C9.55041 10.6421 9.54488 10.5985 9.53439 10.5561Z" fill="white"/>
</g>
<defs>
<clipPath id="clip0_1265_22255">
<rect width="24" height="24" fill="white"/>
</clipPath>
</defs>
</svg>