<svg viewBox="0 0 24 24" fill="none" xmlns="http://www.w3.org/2000/svg">
<g clip-path="url(#clip0_1265_22251)">
<path d="M12 24C18.6274 24 24 18.6274 24 12C24 5.37258 18.6274 0 12 0C5.37258 0 0 5.37258 0 12C0 18.6274 5.37258 24 12 24Z" fill="#272D63"/>
<path d="M15.0647 6.28L14.6097 8.1273C16.0163 8.6187 17.0518 9.3558 16.8496 10.7208C16.7911 11.1355 16.6481 11.5508 16.353 11.8648C16.1002 12.1358 15.705 12.2795 15.3676 12.39C14.9631 12.5268 14.5401 12.6011 14.1131 12.6103C13.8271 12.6103 13.5489 12.6019 13.2629 12.5765C12.8001 12.5421 12.3282 12.4999 11.8739 12.3985C11.7309 12.3647 11.5957 12.3393 11.4696 12.3048L10.8547 14.7878L10.4926 16.1437L10.0376 18.0001L8.91835 17.7206L9.3818 15.8474C9.1205 15.7797 8.85075 15.7037 8.58165 15.6355L7.125 15.2715L7.68075 13.9909C7.68075 13.9909 8.50625 14.212 8.49715 14.1951C8.8176 14.2711 8.95215 14.0592 9.01065 13.924L9.64245 11.3812L9.9369 10.2034L10.2742 8.8475C10.2905 8.61025 10.2066 8.3054 9.75165 8.1949C9.76855 8.18645 8.93525 7.99145 8.93525 7.99145L9.2297 6.7883L10.7702 7.1783C11.0068 7.2368 11.2421 7.28815 11.4865 7.3473L11.9415 5.5L13.0608 5.7795L12.6149 7.593C12.9093 7.66125 13.2129 7.72885 13.5073 7.8049L13.9448 5.99985L15.0647 6.28ZM14.9724 12.975C15.2838 12.9236 15.6627 12.7969 15.9318 12.6864C15.9403 12.6779 15.9578 12.678 15.9656 12.6695C16.5467 13.1863 16.8243 14.0254 16.4453 15.1018C15.8473 16.8477 14.4082 16.9913 12.505 16.6273L12.0422 18.5L10.9307 18.2205L11.3597 16.4324L11.3766 16.3732L11.714 14.9997C12.7072 15.2207 14.0462 15.3644 14.2984 14.3302C14.4336 13.7797 14.1723 13.3812 13.7511 13.0933L14.1892 13.0673C14.5012 13.051 14.6604 13.0257 14.9724 12.9743V12.975ZM14.6435 10.7032C14.9724 9.3727 12.934 9.08475 12.3035 8.91575L11.7471 11.1693C12.3789 11.3305 14.3322 11.9746 14.6435 10.7032Z" fill="#FEFEFE"/>
</g>
<defs>
<clipPath id="clip0_1265_22251">
<rect width="24" height="24" fill="white"/>
</clipPath>
</defs>
</svg>