<svg width="24" height="24" viewBox="0 0 24 24" fill="none" xmlns="http://www.w3.org/2000/svg">
<g clip-path="url(#clip0_1265_22247)">
<path d="M12 24C18.6274 24 24 18.6274 24 12C24 5.37258 18.6274 0 12 0C5.37258 0 0 5.37258 0 12C0 18.6274 5.37258 24 12 24Z" fill="#E9B113"/>
<path d="M12 19C8.13982 19 5 15.8602 5 12C5 8.13982 8.14173 5 12 5C15.8583 5 19 8.14173 19 12C19 12.6376 18.9135 13.2727 18.7423 13.8875C18.6993 14.0287 18.6028 14.1476 18.4733 14.2186C18.3438 14.2896 18.1917 14.3071 18.0495 14.2674C17.9072 14.2276 17.7862 14.1338 17.7123 14.0059C17.6384 13.8781 17.6175 13.7263 17.6541 13.5833C17.7973 13.0678 17.8705 12.5352 17.8698 12C17.8698 8.76345 15.2365 6.13018 12 6.13018C8.76345 6.13018 6.13018 8.76345 6.13018 12C6.13018 15.2365 8.76345 17.8698 12 17.8698C12.6058 17.8698 13.2085 17.7769 13.7856 17.593C13.8569 17.5684 13.9323 17.5583 14.0075 17.5634C14.0827 17.5684 14.1562 17.5884 14.2235 17.6222C14.2909 17.656 14.3508 17.703 14.3997 17.7603C14.4486 17.8176 14.4856 17.8841 14.5084 17.956C14.5313 18.0278 14.5395 18.1034 14.5327 18.1785C14.5258 18.2536 14.504 18.3265 14.4686 18.393C14.4331 18.4595 14.3848 18.5182 14.3263 18.5658C14.2678 18.6133 14.2004 18.6486 14.128 18.6697C13.44 18.8892 12.7221 19.0006 12 19ZM14.1477 11.9835C14.3895 12.1858 14.5525 12.4785 14.6365 12.861C14.6912 13.0812 14.6874 13.3122 14.6263 13.5305C14.5652 13.7329 14.4575 13.9181 14.3119 14.0714C14.1525 14.2373 13.9656 14.3744 13.7595 14.4767C13.5419 14.5894 13.4904 14.6256 13.2307 14.6829L13.0691 14.7217C13.0212 14.7334 12.9797 14.7634 12.9536 14.8053C12.9276 14.8471 12.919 14.8976 12.9297 14.9457L13.0252 15.3734C13.0305 15.3976 13.031 15.4226 13.0267 15.447C13.0224 15.4714 13.0132 15.4947 12.9999 15.5155C12.9865 15.5364 12.9692 15.5544 12.9488 15.5686C12.9285 15.5827 12.9056 15.5927 12.8814 15.598L12.4505 15.6935C12.4264 15.6988 12.4014 15.6993 12.3771 15.695C12.3527 15.6907 12.3294 15.6817 12.3086 15.6684C12.2877 15.6551 12.2697 15.6378 12.2555 15.6175C12.2413 15.5973 12.2313 15.5744 12.2259 15.5503L12.1317 15.1258C12.1264 15.1017 12.1163 15.0788 12.1021 15.0585C12.088 15.0383 12.0699 15.021 12.0491 15.0077C12.0282 14.9944 12.0049 14.9853 11.9806 14.981C11.9562 14.9767 11.9312 14.9773 11.9071 14.9826L10.7406 15.241C10.6217 15.2671 10.4972 15.2449 10.3945 15.1793C10.2919 15.1137 10.2195 15.01 10.1934 14.891L9.14336 10.1444C9.11723 10.0254 9.13942 9.90089 9.20505 9.79826C9.27069 9.69564 9.37439 9.62327 9.49336 9.59709L10.6598 9.33873C10.684 9.33338 10.7068 9.32333 10.7271 9.30914C10.7474 9.29496 10.7646 9.27692 10.7779 9.25606C10.7912 9.2352 10.8003 9.21193 10.8046 9.18757C10.8089 9.16321 10.8083 9.13824 10.803 9.11409L10.7075 8.68645C10.7023 8.66226 10.7019 8.63727 10.7063 8.61292C10.7107 8.58856 10.7199 8.56532 10.7333 8.54451C10.7468 8.52371 10.7641 8.50575 10.7845 8.49167C10.8049 8.47759 10.8278 8.46766 10.852 8.46245L11.2828 8.367C11.307 8.36165 11.3319 8.36111 11.3563 8.36541C11.3807 8.36971 11.4039 8.37877 11.4248 8.39207C11.4456 8.40536 11.4637 8.42264 11.4779 8.4429C11.4921 8.46317 11.5021 8.48603 11.5075 8.51018L11.6016 8.93527C11.6126 8.98393 11.6424 9.02626 11.6845 9.05298C11.7266 9.07971 11.7776 9.08864 11.8263 9.07782L12.1826 9.00018C12.3672 8.95691 12.56 8.96009 12.7426 9.00973C12.917 9.05745 13.0799 9.13891 13.2218 9.24964C13.5102 9.47987 13.7109 9.80192 13.7907 10.1622C13.8505 10.4295 13.8385 10.7082 13.7564 10.9704C13.6713 11.2423 13.4999 11.4791 13.2683 11.6449C13.5903 11.6602 13.8983 11.7785 14.1477 11.9835ZM10.6923 10.9672L10.7546 11.2383C10.7808 11.3572 10.8532 11.4609 10.9558 11.5266C11.0584 11.5922 11.1829 11.6144 11.3019 11.5883L12.1336 11.4037C12.2743 11.3738 12.399 11.2929 12.4836 11.1765C12.5734 11.0569 12.5963 10.8965 12.5517 10.6948C12.5104 10.509 12.4295 10.3766 12.3099 10.2977C12.2537 10.2591 12.19 10.2327 12.1229 10.2202C12.0558 10.2077 11.9868 10.2094 11.9205 10.2252L11.0423 10.4193C10.9833 10.4322 10.9275 10.4567 10.8779 10.4913C10.8284 10.5258 10.7862 10.5698 10.7537 10.6207C10.7212 10.6716 10.699 10.7284 10.6885 10.7878C10.678 10.8473 10.6792 10.9082 10.6923 10.9672ZM13.1798 13.3644H13.1811C13.2244 13.2943 13.253 13.2161 13.265 13.1345C13.2771 13.053 13.2723 12.9699 13.2511 12.8903C13.2196 12.7275 13.1309 12.5815 13.001 12.4785C12.9431 12.4305 12.8749 12.3965 12.8017 12.3793C12.7285 12.3621 12.6523 12.3621 12.5791 12.3793L11.5253 12.6128C11.4063 12.639 11.3026 12.7114 11.237 12.814C11.1713 12.9166 11.1491 13.0411 11.1753 13.1601L11.2491 13.4955C11.2621 13.5544 11.2865 13.6103 11.3211 13.6598C11.3556 13.7093 11.3996 13.7515 11.4505 13.784C11.5014 13.8165 11.5582 13.8387 11.6176 13.8492C11.6771 13.8598 11.738 13.8585 11.797 13.8455L12.7955 13.6246C12.8739 13.6099 12.9485 13.5792 13.0147 13.5344C13.0808 13.4896 13.137 13.4318 13.1798 13.3644ZM15.2785 16.7899L16.2541 15.6241C16.2757 15.5984 16.2895 15.567 16.2938 15.5337C16.2982 15.5004 16.2929 15.4665 16.2787 15.4361C16.2644 15.4057 16.2418 15.3799 16.2134 15.3619C16.1851 15.344 16.1521 15.3345 16.1185 15.3345H15.4618C15.4386 15.3346 15.4156 15.3301 15.3942 15.3213C15.3727 15.3125 15.3532 15.2995 15.3368 15.2831C15.3203 15.2668 15.3073 15.2473 15.2984 15.2259C15.2895 15.2044 15.2849 15.1815 15.2849 15.1583V15.0208C15.2849 14.9235 15.3638 14.8445 15.4618 14.8445H16.9624C17.0091 14.8445 17.0539 14.8631 17.087 14.8962C17.1201 14.9292 17.1386 14.9741 17.1386 15.0208V15.2015C17.1386 15.2413 17.1252 15.2799 17.1005 15.311L16.1669 16.4832C16.1461 16.5091 16.1332 16.5404 16.1294 16.5735C16.1257 16.6065 16.1314 16.6399 16.1458 16.6698C16.1602 16.6998 16.1828 16.725 16.211 16.7427C16.2392 16.7603 16.2718 16.7696 16.305 16.7695H16.9738C17.0712 16.7695 17.1507 16.8485 17.1507 16.9458V17.0826C17.1507 17.1058 17.1461 17.1288 17.1372 17.1502C17.1283 17.1717 17.1153 17.1911 17.0989 17.2075C17.0824 17.2239 17.0629 17.2369 17.0415 17.2457C17.02 17.2545 16.997 17.259 16.9738 17.2589H15.4135C15.3667 17.2589 15.3219 17.2403 15.2888 17.2073C15.2558 17.1742 15.2372 17.1294 15.2372 17.0826V16.9045C15.2371 16.8626 15.2517 16.822 15.2785 16.7899Z" fill="white"/>
</g>
<defs>
<clipPath id="clip0_1265_22247">
<rect width="24" height="24" fill="white"/>
</clipPath>
</defs>
</svg>
