<svg width="24" height="24" viewBox="0 0 24 24" fill="none" xmlns="http://www.w3.org/2000/svg">
<g clip-path="url(#clip0_1265_22241)">
<path d="M12 24C18.6274 24 24 18.6274 24 12C24 5.37258 18.6274 0 12 0C5.37258 0 0 5.37258 0 12C0 18.6274 5.37258 24 12 24Z" fill="#00AAFF"/>
<path d="M11.9795 6.04456C8.70132 6.04456 6.04456 8.70132 6.04456 11.9795C6.04456 15.2571 8.70132 17.9149 11.9795 17.9149C15.2571 17.9149 17.9149 15.2571 17.9149 11.9795C17.9149 8.70132 15.2571 6.04456 11.9795 6.04456ZM11.9983 6.98471C12.4732 6.98456 12.9411 7.0991 13.3623 7.31859C13.7834 7.53808 14.1453 7.85603 14.4172 8.24539C14.6891 8.63475 14.8629 9.08402 14.924 9.55499C14.985 10.026 14.9313 10.5047 14.7676 10.9505C14.5127 10.9057 14.2513 10.9128 13.9991 10.9712C13.7469 11.0297 13.5091 11.1384 13.2998 11.2908C13.4828 11.1157 13.6285 10.9054 13.7279 10.6724C13.8273 10.4395 13.8784 10.1888 13.8781 9.93548C13.878 9.43654 13.6798 8.95806 13.3271 8.60511C12.9745 8.25215 12.4962 8.05359 11.9972 8.05302C11.5316 8.05339 11.0826 8.2264 10.7371 8.5386C10.3916 8.85079 10.1741 9.28 10.1266 9.74325C9.7729 9.68006 9.4111 9.67641 9.05617 9.73248C9.10732 8.98699 9.43951 8.28869 9.98563 7.77866C10.5317 7.26862 11.2511 6.98487 11.9983 6.98471ZM13.0833 12.5266L12.0398 11.9019C12.0058 11.8814 11.9667 11.8707 11.927 11.871C11.8873 11.8713 11.8484 11.8826 11.8147 11.9036L10.8993 12.4689C10.8635 12.4908 10.8349 12.5226 10.8169 12.5605C10.7989 12.5983 10.7924 12.6406 10.7981 12.6822C10.8222 12.8563 10.8094 13.0335 10.7607 13.2023C10.712 13.3712 10.6283 13.5279 10.5152 13.6624C10.4021 13.7969 10.262 13.9062 10.1039 13.9831C9.94592 14.0601 9.77351 14.103 9.59786 14.1091C9.43019 14.1144 9.26316 14.0859 9.10673 14.0253C8.95029 13.9647 8.80765 13.8732 8.68728 13.7564C8.56691 13.6395 8.47128 13.4996 8.40607 13.3451C8.34086 13.1905 8.30741 13.0244 8.30771 12.8566C8.3096 12.529 8.43929 12.2149 8.66918 11.9814C8.89908 11.7479 9.21102 11.6133 9.53863 11.6063C9.71855 11.6033 9.897 11.6391 10.0618 11.7114C10.2265 11.7837 10.3738 11.8908 10.4933 12.0252C10.5601 12.1006 10.671 12.1168 10.7582 12.0683L11.6402 11.5735C11.6737 11.5545 11.7016 11.5271 11.7211 11.4939C11.7406 11.4607 11.751 11.423 11.7512 11.3845V11.3306C11.7509 11.2851 11.7363 11.2409 11.7096 11.2041C11.6828 11.1673 11.6452 11.1398 11.602 11.1255C11.3152 11.0298 11.0726 10.8336 10.9191 10.573C10.7657 10.3125 10.7116 10.0052 10.767 9.70795C10.8224 9.41068 10.9835 9.14349 11.2205 8.95569C11.4575 8.7679 11.7544 8.6722 12.0565 8.68625C12.3615 8.70198 12.6503 8.82831 12.869 9.04158C13.0876 9.25486 13.221 9.54048 13.2443 9.84502C13.266 10.1369 13.1846 10.4271 13.0142 10.6651C12.8439 10.9031 12.5955 11.0739 12.3122 11.1476C12.2652 11.1592 12.2234 11.1861 12.1933 11.2241C12.1633 11.2622 12.1468 11.3091 12.1464 11.3576V11.3667C12.1464 11.4421 12.1862 11.5116 12.2498 11.5514L13.1765 12.1211C13.2211 12.1488 13.2742 12.1593 13.326 12.1505C13.3777 12.1418 13.4245 12.1145 13.4576 12.0737C13.578 11.9234 13.7316 11.8029 13.9062 11.7217C14.0809 11.6404 14.2719 11.6006 14.4645 11.6052C14.7965 11.618 15.1099 11.7622 15.3356 12.006C15.5613 12.2498 15.681 12.5733 15.6682 12.9054C15.6554 13.2374 15.5113 13.5507 15.2675 13.7765C15.0236 14.0022 14.7001 14.1219 14.3681 14.1091C14.199 14.0999 14.0335 14.0565 13.8815 13.9817C13.7296 13.9068 13.5944 13.802 13.484 13.6735C13.3737 13.545 13.2904 13.3956 13.2393 13.2341C13.1882 13.0726 13.1703 12.9024 13.1867 12.7339C13.191 12.693 13.1836 12.6519 13.1653 12.6151C13.1469 12.5784 13.1185 12.5477 13.0833 12.5266ZM9.55802 15.7751C9.17455 15.7752 8.79482 15.6998 8.44051 15.5532C8.0862 15.4065 7.76426 15.1915 7.49309 14.9203C7.22191 14.6492 7.00681 14.3273 6.86008 13.973C6.71336 13.6187 6.63787 13.239 6.63794 12.8556C6.63766 12.4246 6.73279 11.999 6.9165 11.6092C7.10021 11.2194 7.36795 10.8751 7.70048 10.6011C8.03301 10.327 8.4221 10.13 8.83981 10.0241C9.25751 9.91827 9.69348 9.9062 10.1164 9.98879C10.1304 10.4824 10.3381 10.9507 10.6947 11.2924C10.3653 11.0517 9.96765 10.9223 9.55963 10.923C9.05261 10.9315 8.56921 11.1388 8.21364 11.5004C7.85808 11.8619 7.65882 12.3487 7.65882 12.8558C7.65882 13.3629 7.85808 13.8497 8.21364 14.2113C8.56921 14.5728 9.05261 14.7802 9.55963 14.7886C9.94598 14.7886 10.3234 14.6726 10.6431 14.4556C10.9628 14.2386 11.21 13.9307 11.3527 13.5717C11.4448 13.9734 11.6149 14.3444 11.8443 14.6718C11.5712 15.0164 11.2237 15.2947 10.8278 15.4859C10.4318 15.6771 9.9977 15.7761 9.55802 15.7756V15.7751ZM14.4343 15.7751C13.6943 15.775 12.9818 15.494 12.4409 14.9889C11.9001 14.4837 11.5712 13.7921 11.5207 13.0537C11.8494 13.1038 12.1839 13.1018 12.512 13.0478C12.5469 13.3973 12.6762 13.7306 12.8863 14.0121C13.0963 14.2936 13.3791 14.5125 13.7042 14.6454C14.0293 14.7783 14.3845 14.8201 14.7315 14.7663C15.0786 14.7125 15.4045 14.5652 15.6741 14.3402C15.9438 14.1152 16.147 13.8209 16.262 13.4891C16.3771 13.1573 16.3995 12.8004 16.3269 12.4567C16.2544 12.1131 16.0896 11.7957 15.8503 11.5387C15.6109 11.2817 15.3061 11.0947 14.9685 10.9979C15.0806 10.6851 15.142 10.3565 15.1505 10.0243C15.8397 10.2 16.4411 10.621 16.8419 11.2086C17.2427 11.7961 17.4153 12.5096 17.3275 13.2154C17.2396 13.9212 16.8972 14.5706 16.3645 15.0419C15.8319 15.5131 15.1455 15.7739 14.4343 15.7751Z" fill="white"/>
<path d="M12 5C8.13438 5 5 8.13438 5 12C5 15.8656 8.13438 19 12 19C15.8656 19 19 15.8656 19 12C19 8.13438 15.8656 5 12 5ZM11.9795 18.4734C8.39338 18.4734 5.48677 15.5668 5.48677 11.9806C5.48677 8.39446 8.39338 5.48838 11.9795 5.48838C15.5652 5.48838 18.4718 8.395 18.4718 11.9806C18.4718 15.5668 15.5652 18.4734 11.9795 18.4734Z" fill="white"/>
</g>
<defs>
<clipPath id="clip0_1265_22241">
<rect width="24" height="24" fill="white"/>
</clipPath>
</defs>
</svg>
