<svg viewBox="0 0 24 24" fill="none" xmlns="http://www.w3.org/2000/svg">
<g clip-path="url(#clip0_1265_22237)">
<path d="M12 24C18.6274 24 24 18.6274 24 12C24 5.37258 18.6274 0 12 0C5.37258 0 0 5.37258 0 12C0 18.6274 5.37258 24 12 24Z" fill="#EBA809"/>
<path fill-rule="evenodd" clip-rule="evenodd" d="M12 19C8.13409 19 5 15.8659 5 12C5 8.13409 8.13409 5 12 5C15.8659 5 19 8.13409 19 12C19 15.8659 15.8659 19 12 19ZM11.3713 6.10727C11.3725 6.66409 11.3725 7.22091 11.3725 7.77773L12.2062 7.779C12.2081 7.20818 12.2094 6.63673 12.2062 6.06591C11.9281 6.07545 11.6487 6.08882 11.3713 6.10727ZM13.3771 7.80445C14.1102 7.90309 14.898 8.01509 15.4815 8.50955C16.3731 9.30945 16.2579 10.9888 15.1665 11.5685C15.8201 11.7213 16.4673 12.1559 16.6283 12.8425C16.8383 13.7424 16.6715 14.8216 15.948 15.4555C15.2315 16.0441 14.2616 16.1217 13.3752 16.2064C13.379 16.7269 13.3777 17.2475 13.3765 17.7693C15.241 17.3143 16.851 15.927 17.5351 14.1325C18.1842 12.4766 18.0315 10.5287 17.1138 9.00336C16.3037 7.62882 14.9266 6.617 13.3803 6.23009C13.3765 6.75509 13.3765 7.28009 13.3777 7.80445H13.3771ZM7.81145 7.78218C8.61964 7.82036 9.42782 7.81273 10.236 7.81145C10.236 7.32018 10.2379 6.82891 10.2335 6.33764C9.32855 6.631 8.52291 7.15727 7.81082 7.78218H7.81145ZM6.86836 9.04855C5.91827 10.6649 5.81136 12.7388 6.60364 14.4398C7.28773 15.9645 8.64509 17.1507 10.2341 17.6617C10.2373 17.1717 10.236 16.6805 10.236 16.1905C9.42464 16.1822 8.61136 16.2121 7.80191 16.1682C7.81082 15.7164 7.91645 15.2747 8.07109 14.8503C8.46818 14.842 8.88245 14.9114 9.26618 14.7822C9.49018 14.5938 9.42655 14.2826 9.438 14.0249C9.42655 12.5524 9.44436 11.0792 9.43036 9.60664C9.445 9.36927 9.29609 9.11282 9.04855 9.06573C8.64127 8.98491 8.22318 9.01673 7.81145 9.01418C7.76309 8.68327 7.758 8.34791 7.75227 8.01255C7.75892 7.97853 7.75833 7.9435 7.75054 7.90974C7.74276 7.87597 7.72795 7.84422 7.70709 7.81655C7.47418 8.25818 7.10382 8.60755 6.86836 9.04791V9.04855ZM11.4056 9.11282V11.2841C12.1317 11.2714 12.9367 11.3515 13.5718 10.9303C14.0987 10.586 14.065 9.71227 13.5209 9.403C12.8858 9.02627 12.1107 9.13318 11.4063 9.11282H11.4056ZM11.4056 12.4525V14.8611C12.3016 14.7885 13.3071 14.9394 14.0866 14.3991C14.6441 14.0294 14.5773 13.1143 14.0026 12.7942C13.2218 12.3277 12.273 12.476 11.4063 12.4525H11.4056ZM11.3732 16.2229C11.3732 16.7797 11.3719 17.3365 11.37 17.8946C11.6602 17.9137 11.9504 17.9252 12.2405 17.9328C12.2431 17.3633 12.2418 16.7931 12.2418 16.2229H11.3732Z" fill="white"/>
</g>
<defs>
<clipPath id="clip0_1265_22237">
<rect width="24" height="24" fill="white"/>
</clipPath>
</defs>
</svg>