<svg viewBox="0 0 24 24" fill="none" xmlns="http://www.w3.org/2000/svg">
<g clip-path="url(#clip0_1265_22233)">
<path d="M12 24C18.6274 24 24 18.6274 24 12C24 5.37258 18.6274 0 12 0C5.37258 0 0 5.37258 0 12C0 18.6274 5.37258 24 12 24Z" fill="#504C4C"/>
<path d="M8.63755 11.5944L7.5033 13.9981L8.0311 15.9689L9.374 16.3277L11.0406 17.9963L10.5388 18.5L6.566 17.434L5.5 13.4612L6.2995 12.663L9.7718 9.19005L8.63755 11.5944L7.5033 13.9981L11.0406 10.4608L9.7718 9.19005L8.63755 11.5944ZM10.4608 12.9594L13.9981 16.4967L15.9689 15.9689L16.329 14.626L17.9963 12.9594L18.5 13.4612L17.4353 17.4353L13.4612 18.5L9.19135 14.2282L10.4608 12.9594ZM13.5392 11.0406L10.0019 7.5033L8.0298 8.0311L7.671 9.37205L6.00375 11.0406L5.5 10.5388L6.566 6.5647L10.5388 5.5L11.337 6.2995L14.808 9.7705L13.5392 11.0406ZM14.626 7.671L12.9594 6.00375L13.4612 5.5L17.4353 6.5647L18.5 10.5388L14.2282 14.8086L12.9594 13.5392L16.498 10.0006L15.9689 8.0298L14.626 7.671Z" fill="white"/>
</g>
<defs>
<clipPath id="clip0_1265_22233">
<rect width="24" height="24" fill="white"/>
</clipPath>
</defs>
</svg>