<svg viewBox="0 0 24 24" fill="none" xmlns="http://www.w3.org/2000/svg">
<g clip-path="url(#clip0_1265_22229)">
<path d="M12 24C18.6274 24 24 18.6274 24 12C24 5.37258 18.6274 0 12 0C5.37258 0 0 5.37258 0 12C0 18.6274 5.37258 24 12 24Z" fill="#35BAEB"/>
<path d="M8.00011 4L11.901 7.46005C11.9464 7.50171 11.9955 7.53653 12.0334 7.58129C12.0378 7.6078 12.0396 7.63465 12.039 7.6615C12.0371 9.15184 12.0427 10.6409 12.0371 12.1294C11.842 12.1696 11.655 12.2421 11.4838 12.3439L8.03741 8.89817C8.02413 8.88737 8.0138 8.87338 8.00738 8.8575C8.00097 8.84163 7.99868 8.82439 8.00073 8.80739C8.00446 7.20451 8.00073 5.60288 8.00446 4.00124L8.00011 4ZM12.6303 9.35142C13.575 9.41461 14.4729 9.78542 15.1869 10.4072C14.9836 10.6248 14.7642 10.8299 14.554 11.0432C14.1101 11.4859 13.6692 11.9323 13.2235 12.3707C13.0434 12.2532 12.8424 12.1713 12.6315 12.1294C12.6266 11.2049 12.6315 10.2785 12.6315 9.35142H12.6303ZM8.00197 9.76675C9.01419 10.7696 10.0202 11.7794 11.0305 12.7841C10.9124 12.9675 10.8278 13.1696 10.7806 13.3829H8.00011V9.76489L8.00197 9.76675ZM15.218 11.2173C15.3505 11.0905 15.4717 10.9543 15.6116 10.8318C16.2334 11.543 16.6047 12.4385 16.6686 13.381C15.7565 13.3847 14.8425 13.381 13.9304 13.3829C13.8757 13.3953 13.8757 13.3319 13.8651 13.2977C13.8214 13.1176 13.7458 12.9469 13.6419 12.7934C14.1642 12.2674 14.692 11.7433 15.218 11.2192V11.2173ZM8.00011 13.9742H10.3758C10.512 13.9742 10.6482 13.9679 10.7862 13.9773C10.8285 14.1874 10.9105 14.3876 11.0268 14.5667L9.09937 16.4891C9.08507 16.5003 9.06144 16.5345 9.04465 16.5078C8.42954 15.7997 8.06273 14.91 8.00011 13.9742ZM13.8831 13.9773C14.2748 13.9686 14.6628 13.9773 15.0545 13.9742H16.6686C16.6076 14.9022 16.2459 15.785 15.6383 16.4891L14.5142 15.3687C14.2332 15.0858 13.9465 14.8079 13.6686 14.5213C13.7725 14.3547 13.8452 14.17 13.8831 13.9773ZM13.1035 15.0529C13.147 15.028 13.1905 15.0019 13.234 14.9801L15.1963 16.9387C14.4814 17.5657 13.5792 17.9388 12.6303 18V15.2251C12.7955 15.1919 12.9545 15.1332 13.1016 15.051L13.1035 15.0529ZM10.249 16.1683C10.6482 15.7729 11.043 15.3725 11.4459 14.9808C11.6262 15.0964 11.827 15.1797 12.0365 15.2251V18C11.0915 17.9384 10.1931 17.5674 9.47988 16.9443C9.73044 16.6813 9.99345 16.4295 10.249 16.1702V16.1683Z" fill="white"/>
</g>
<defs>
<clipPath id="clip0_1265_22229">
<rect width="24" height="24" fill="white"/>
</clipPath>
</defs>
</svg>