<svg width="24" height="24" viewBox="0 0 24 24" fill="none" xmlns="http://www.w3.org/2000/svg">
<g clip-path="url(#clip0_1265_22221)">
<path d="M12 24C18.6274 24 24 18.6274 24 12C24 5.37258 18.6274 0 12 0C5.37258 0 0 5.37258 0 12C0 18.6274 5.37258 24 12 24Z" fill="black"/>
<path d="M18.8563 10.5929C18.7636 10.1425 18.6265 9.70242 18.4471 9.27903C18.2703 8.86201 18.0539 8.46288 17.801 8.08711C17.5502 7.71586 17.2641 7.36971 16.9468 7.05348C16.6303 6.73609 16.284 6.45002 15.9125 6.19926C15.5362 5.94761 15.1374 5.73133 14.7212 5.55317C13.8605 5.18812 12.9352 5 12.0002 5C11.0653 5 10.14 5.18812 9.27928 5.55317C8.44701 5.90422 7.69109 6.41401 7.05373 7.05407C6.73639 7.37011 6.45032 7.71606 6.1995 8.08711C5.94782 8.46363 5.73154 8.86264 5.55341 9.27903C5.18837 10.1397 5.00024 11.0651 5.00024 12C5.00024 12.9349 5.18837 13.8603 5.55341 14.721C5.72578 15.1372 5.94857 15.5318 6.1995 15.9123C6.45031 16.2837 6.73637 16.6301 7.05373 16.9465C7.37014 17.2639 7.71649 17.55 8.08794 17.8007C8.46082 18.0517 8.86301 18.2674 9.27928 18.4468C10.14 18.8119 11.0653 19 12.0002 19C12.9352 19 13.8605 18.8119 14.7212 18.4468C15.1375 18.2745 15.532 18.0517 15.9125 17.8007C16.284 17.55 16.6303 17.2639 16.9468 16.9465C17.2642 16.6301 17.5502 16.2838 17.801 15.9123C18.0519 15.5394 18.2677 15.1372 18.4471 14.721C18.9994 13.4184 19.1421 11.9786 18.8563 10.5929ZM12.0067 18.1238C8.62556 18.1238 5.89053 15.3811 5.89053 12.007C5.89053 8.63294 8.63319 5.89028 12.0067 5.89028C15.3808 5.89028 18.1234 8.63294 18.1234 12.007C18.1234 15.3811 15.3814 18.1238 12.0067 18.1238Z" fill="white"/>
<path d="M12.1152 17.5926H12.2805C12.3092 17.5926 12.3374 17.5926 12.3661 17.585H12.3737C12.4025 17.585 12.4236 17.585 12.4523 17.5779H12.474C12.4957 17.5779 12.5174 17.5779 12.5385 17.5709H12.5602C12.5819 17.5709 12.6036 17.5638 12.6323 17.5638H12.6464C12.6751 17.5638 12.7038 17.5562 12.7325 17.5562C12.7613 17.5562 12.783 17.5492 12.8117 17.5422H12.8258C12.8475 17.5422 12.8691 17.5351 12.8903 17.5351H12.9049C12.9336 17.5275 12.9553 17.5275 12.9841 17.5205C13.0409 17.5134 13.0984 17.4988 13.1488 17.4847H13.1635C13.1846 17.4777 13.2133 17.4777 13.235 17.47H13.242C13.2995 17.456 13.3499 17.4413 13.4074 17.4272C12.8696 17.4443 12.3319 17.3937 11.8068 17.2766C11.0165 17.1042 10.2631 16.7958 9.62404 16.264C9.12023 15.8448 8.71591 15.3188 8.44031 14.7241C8.16472 14.1294 8.02474 13.4809 8.0305 12.8255C8.03567 11.8477 8.3836 10.9026 9.01371 10.1549C9.83217 9.18578 10.9954 8.67571 12.1867 8.64698H12.352V7.6925H12.1656C11.8032 7.69914 11.4423 7.74236 11.0886 7.82149C10.7326 7.90198 10.3861 8.0199 10.055 8.17326C9.71726 8.33156 9.40125 8.52503 9.10693 8.74782C8.80279 8.97901 8.52586 9.24395 8.28144 9.53756C8.05129 9.80928 7.85155 10.1054 7.68577 10.4205C7.52175 10.7243 7.38934 11.0441 7.29061 11.375C7.19376 11.7007 7.12896 12.0351 7.09713 12.3734L7.07544 12.6889V12.8753C7.08247 13.2417 7.12586 13.6005 7.20442 13.9523C7.28357 14.3117 7.40552 14.6559 7.5562 14.9865C7.73619 15.3811 8.05923 15.9627 8.53999 16.4007C9.52161 17.1745 10.7356 17.5945 11.9856 17.5926H12.1152Z" fill="white"/>
<path d="M13.6797 16.6734C13.3256 16.6608 12.9729 16.6224 12.6244 16.5585C11.1458 16.2929 9.87472 15.3883 9.40862 14.0246C8.8411 12.366 9.70998 10.5713 11.361 10.0261C11.6756 9.92064 12.0053 9.86717 12.3371 9.86778C12.761 9.86778 13.1843 9.95396 13.5724 10.1117L13.9741 9.25745C13.8533 9.20903 13.7313 9.16367 13.6082 9.12143C13.1969 8.99234 12.7682 8.92689 12.3371 8.92737C11.9052 8.92818 11.4762 8.99846 11.0666 9.1355C10.5439 9.30792 10.0624 9.58658 9.65252 9.95396C9.45483 10.1301 9.27459 10.3248 9.11431 10.5356C8.95586 10.7439 8.81876 10.9676 8.70508 11.2033C8.47358 11.6773 8.33696 12.1919 8.30288 12.7183C8.26712 13.2636 8.33865 13.8088 8.51805 14.3259C8.70085 14.8579 8.99462 15.3449 9.3799 15.7547C9.73167 16.1352 10.1409 16.4225 10.6357 16.6881C11.1528 16.9607 11.7919 17.1043 12.4591 17.1981C12.89 17.255 13.4646 17.2697 13.8017 17.2697C14.096 17.1618 14.218 17.1114 14.3762 17.0469C14.5129 16.9824 14.6489 16.9179 14.7855 16.8388C14.9221 16.7596 14.9438 16.7449 15.173 16.5949C15.1934 16.5822 15.2127 16.5676 15.2305 16.5515C14.4407 16.6881 14.2396 16.6805 13.6797 16.6734Z" fill="white"/>
<path d="M15.4462 15.6039C15.2234 15.618 14.9074 15.6391 14.5486 15.6391C13.9095 15.6391 13.1268 15.5822 12.4596 15.3594C11.4254 15.0153 10.4492 14.1323 10.4492 13.0407C10.449 12.7823 10.4997 12.5264 10.5985 12.2877C10.6973 12.0489 10.8422 11.832 11.0249 11.6493C11.2076 11.4666 11.4245 11.3217 11.6632 11.2229C11.902 11.1242 12.1579 11.0734 12.4162 11.0737C13.1556 11.0737 13.7946 11.4829 14.1323 12.0786L14.9865 11.6553C14.8526 11.4031 14.6806 11.1731 14.4765 10.9734C14.206 10.7025 13.8849 10.4876 13.5313 10.341C13.1777 10.1944 12.7987 10.1189 12.416 10.1189C12.0332 10.1189 11.6542 10.1944 11.3006 10.341C10.9471 10.4876 10.6259 10.7025 10.3554 10.9734C10.0846 11.2438 9.86982 11.565 9.72324 11.9185C9.57666 12.272 9.50122 12.6509 9.50122 13.0336C9.50313 13.4347 9.58901 13.831 9.75333 14.1968C9.90341 14.5269 10.1121 14.8359 10.3777 15.1232C10.8444 15.625 11.4829 16.0272 12.1653 16.2571C12.8184 16.4722 13.7805 16.5514 14.7139 16.4869C14.9719 16.4652 15.1659 16.4435 15.496 16.372C15.8146 16.1206 16.1037 15.834 16.3579 15.5177C16.1351 15.5394 15.7258 15.5822 15.4462 15.6039Z" fill="white"/>
</g>
<defs>
<clipPath id="clip0_1265_22221">
<rect width="24" height="24" fill="white"/>
</clipPath>
</defs>
</svg>
