<svg width="24" height="24" viewBox="0 0 24 24" fill="none" xmlns="http://www.w3.org/2000/svg">
<g clip-path="url(#clip0_1265_22217)">
<path d="M12 24C18.6274 24 24 18.6274 24 12C24 5.37258 18.6274 0 12 0C5.37258 0 0 5.37258 0 12C0 18.6274 5.37258 24 12 24Z" fill="#FB2EA3"/>
<path d="M14.9647 10.7691C14.8218 11.7355 14.286 12.2033 13.5752 12.367C14.5511 12.8751 15.0485 13.6552 14.575 15.0063C13.9876 16.6848 12.5924 16.8258 10.737 16.4751L10.2856 18.2802L9.19762 18.0088L9.64212 16.2283C9.35212 16.1563 9.06291 16.0812 8.77453 16.0029L8.32878 17.7922L7.24146 17.5215L7.69226 15.7127C7.4379 15.6478 7.17976 15.5786 6.91596 15.5125L5.5 15.1599L6.04019 13.9133C6.04019 13.9133 6.8423 14.1274 6.83097 14.111C7.13947 14.1872 7.27609 13.9863 7.33024 13.8529L8.04168 10.9995L8.1569 11.0279C8.11995 11.0134 8.0821 11.0014 8.04357 10.992L8.55103 8.95522C8.56425 8.72353 8.48492 8.43266 8.0442 8.32185C8.0612 8.31052 7.25343 8.12542 7.25343 8.12542L7.54304 6.96318L9.044 7.33779L9.04274 7.34409C9.26814 7.39949 9.50109 7.45301 9.73782 7.50715L10.1842 5.71973L11.2721 5.99045L10.8352 7.74325C11.1267 7.80999 11.4207 7.87672 11.7066 7.9485L12.141 6.20766L13.2289 6.47839L12.7832 8.26645C14.1576 8.7399 15.1624 9.44946 14.9647 10.7691ZM12.4778 14.2558C12.8304 12.8468 10.4644 12.4822 9.72648 12.2978L9.129 14.6934C9.86688 14.8766 12.1422 15.6075 12.4785 14.2558H12.4778ZM12.8147 10.7496C13.1345 9.46709 11.1563 9.18188 10.5418 9.02826L10.0004 11.201C10.6142 11.3546 12.508 11.9792 12.8147 10.7496ZM15.9815 15.5528C15.9288 15.5457 15.8751 15.5491 15.8237 15.5629C15.7723 15.5766 15.7241 15.6003 15.6818 15.6327C15.6 15.7029 15.5445 15.7988 15.5244 15.9047C15.5115 15.9636 15.5073 16.024 15.5118 16.0841C15.5172 16.1526 15.5393 16.2188 15.5761 16.2768C15.6138 16.3398 15.6743 16.3989 15.7561 16.4544C15.838 16.5091 15.9513 16.5532 16.0961 16.5866C16.1742 16.6055 16.2548 16.6143 16.3373 16.6136C16.4204 16.6136 16.4972 16.6004 16.5677 16.574C16.6423 16.5477 16.7087 16.5024 16.7606 16.4427C16.8125 16.383 16.8479 16.3109 16.8636 16.2334C16.8784 16.1781 16.8822 16.1204 16.8746 16.0637C16.8671 16.0069 16.8483 15.9523 16.8195 15.9028C16.7616 15.8059 16.6665 15.7316 16.5337 15.6799L16.6306 15.2606C16.8699 15.357 17.0374 15.4948 17.1343 15.673C17.2313 15.8518 17.2514 16.064 17.1948 16.3095C17.1661 16.4457 17.1092 16.5744 17.0279 16.6873C16.9548 16.7869 16.8612 16.8696 16.7533 16.9298C16.6454 16.99 16.5259 17.0262 16.4027 17.0361C16.2673 17.0484 16.1307 17.0384 15.9985 17.0065C15.8625 16.9762 15.7319 16.9252 15.6113 16.8554C15.5001 16.7917 15.4031 16.706 15.3261 16.6036C15.2512 16.5018 15.2001 16.3845 15.1763 16.2604C15.1509 16.118 15.1562 15.9718 15.192 15.8317C15.2161 15.7253 15.2549 15.6227 15.3072 15.527C15.3582 15.4338 15.4206 15.3551 15.4955 15.2909C15.5698 15.2266 15.6554 15.18 15.7524 15.1511C15.8499 15.1215 15.9582 15.1158 16.0785 15.1328L15.9815 15.5528ZM17.6764 14.2224C17.6467 14.3624 17.5891 14.495 17.507 14.6122C17.4296 14.7192 17.3371 14.8035 17.23 14.8659C17.1193 14.9288 16.9966 14.9678 16.8699 14.9805C16.7293 14.9945 16.5873 14.9847 16.4499 14.9515C16.3131 14.9213 16.1824 14.8681 16.0634 14.7941C15.9551 14.7272 15.8621 14.6384 15.7901 14.5335C15.7195 14.428 15.6723 14.3086 15.6516 14.1834C15.6294 14.0423 15.6358 13.8982 15.6705 13.7597C15.7002 13.6197 15.7578 13.4872 15.8399 13.37C15.9179 13.2629 16.0099 13.1779 16.1175 13.1162C16.2283 13.0533 16.3509 13.0143 16.4777 13.0016C16.6099 12.9872 16.7484 12.9966 16.8932 13.03C17.0312 13.0602 17.1632 13.1134 17.2835 13.1874C17.3969 13.2591 17.4875 13.346 17.5568 13.4487C17.626 13.5513 17.672 13.6678 17.6953 13.7981C17.7176 13.9394 17.7112 14.0837 17.6764 14.2224ZM16.0243 12.4608L16.1156 12.0673L16.4833 12.1523L16.4852 12.1448C16.4339 12.1183 16.3883 12.0819 16.3511 12.0377C16.2657 11.9384 16.2091 11.8175 16.1874 11.6883C16.1769 11.623 16.179 11.5563 16.1937 11.4919C16.2051 11.4387 16.2211 11.3867 16.2416 11.3364L16.6464 11.4295C16.6346 11.4585 16.6235 11.4876 16.613 11.5171C16.6024 11.5461 16.5936 11.5757 16.5866 11.6058C16.5692 11.6749 16.5676 11.747 16.582 11.8168C16.5964 11.8866 16.6264 11.9522 16.6697 12.0088C16.7187 12.0721 16.7794 12.1256 16.8485 12.1662C16.9234 12.2121 17.0134 12.2474 17.1192 12.2719L18.0246 12.481L17.9276 12.9003L16.0243 12.4608ZM17.4598 11.082C17.5329 11.0996 17.6065 11.1053 17.6802 11.1009C17.7501 11.0965 17.8186 11.0785 17.8817 11.048C17.9442 11.0174 17.9991 10.973 18.0422 10.9183C18.0908 10.8542 18.1244 10.78 18.1404 10.7011C18.1696 10.5976 18.1659 10.4876 18.1297 10.3863C18.0888 10.2931 18.0194 10.2152 17.9314 10.1641L18.0227 9.76677C18.1592 9.82885 18.276 9.92754 18.3599 10.0519C18.4438 10.1763 18.4916 10.3214 18.498 10.4713C18.5043 10.572 18.4955 10.674 18.4722 10.7773C18.4376 10.9271 18.3822 11.0543 18.3066 11.1582C18.234 11.2602 18.1396 11.3447 18.0303 11.4057C17.921 11.4667 17.7994 11.5026 17.6745 11.5108C17.3987 11.5328 17.123 11.4676 16.8863 11.3244C16.778 11.2567 16.6836 11.1691 16.608 11.0663C16.5343 10.9647 16.4827 10.8489 16.4562 10.7263C16.4279 10.6016 16.4311 10.4681 16.4632 10.3252C16.4932 10.1846 16.5574 10.0536 16.6502 9.94369C16.737 9.84183 16.8451 9.76018 16.9668 9.70444C17.0913 9.64933 17.2255 9.61937 17.3616 9.6163C17.5039 9.61126 17.6437 9.63393 17.7822 9.68367L17.4592 11.0826L17.4598 11.082ZM17.3452 14.1462C17.366 14.0656 17.366 13.981 17.3453 13.9003C17.3246 13.8196 17.2839 13.7455 17.2269 13.6848C17.1718 13.6247 17.1066 13.5748 17.0342 13.5374C16.884 13.4584 16.716 13.4194 16.5463 13.4241C16.4649 13.4257 16.3844 13.4421 16.3089 13.4726C16.2314 13.5025 16.1627 13.5514 16.1091 13.6149C16.0555 13.6784 16.0188 13.7544 16.0023 13.8359C15.9813 13.9162 15.981 14.0006 16.0012 14.0811C16.0215 14.1617 16.0617 14.2358 16.1182 14.2967C16.1704 14.3559 16.2346 14.4044 16.3108 14.444C16.4611 14.5228 16.6291 14.5618 16.7987 14.5574C16.8803 14.5554 16.9609 14.5389 17.0367 14.5089C17.1145 14.4793 17.1836 14.4306 17.2375 14.3672C17.2915 14.3038 17.3285 14.2278 17.3452 14.1462ZM17.4095 10.0394C17.3427 10.029 17.2749 10.0283 17.208 10.0375C17.1443 10.0446 17.0827 10.0643 17.0266 10.0953C16.9705 10.1263 16.9211 10.168 16.8812 10.2182C16.8399 10.274 16.8103 10.3375 16.7941 10.405C16.7779 10.4725 16.7754 10.5426 16.7868 10.6111C16.7994 10.6772 16.8227 10.737 16.8579 10.7905C16.9357 10.9031 17.0511 10.9842 17.1834 11.019L17.4095 10.0394Z" fill="white"/>
</g>
<defs>
<clipPath id="clip0_1265_22217">
<rect width="24" height="24" fill="white"/>
</clipPath>
</defs>
</svg>
