<svg viewBox="0 0 24 24" fill="none" xmlns="http://www.w3.org/2000/svg">
<path fill-rule="evenodd" clip-rule="evenodd" d="M21.7658 21.7656C21.6093 21.9216 21.4043 22 21.2002 22C20.9953 22 20.7903 21.9216 20.6346 21.7656L18.8152 19.9464C18.3391 20.2272 17.7921 20.4 17.1999 20.4C15.4361 20.4 13.9999 18.9648 13.9999 17.2C13.9999 15.4352 15.4361 14 17.1999 14C18.9644 14 20.3998 15.4352 20.3998 17.2C20.3998 17.792 20.228 18.3392 19.9464 18.8152L21.7658 20.6344C22.0781 20.9472 22.0781 21.4536 21.7658 21.7656ZM17.1999 15.6C16.318 15.6 15.5999 16.3176 15.5999 17.2C15.5999 18.0816 16.318 18.8 17.1999 18.8C18.0826 18.8 18.7998 18.0816 18.7998 17.2C18.7998 16.3176 18.0826 15.6 17.1999 15.6ZM19.9673 8.3816C19.8697 8.6224 19.6607 8.8 19.4082 8.8584L16.8642 9.4504C17.128 9.904 17.3451 10.392 17.5258 10.9032L20.583 11.6208C21.013 11.7224 21.2793 12.1536 21.1784 12.5824C21.0921 12.952 20.7637 13.2 20.4006 13.2C20.3401 13.2 20.2788 13.1928 20.2175 13.1784L16.7391 12.3616C16.7279 12.3592 16.7206 12.3512 16.7093 12.348C16.6278 12.3256 16.552 12.2904 16.481 12.2432C16.4705 12.236 16.4567 12.2328 16.4463 12.2248C16.3704 12.1688 16.3059 12.0976 16.2534 12.0168C16.2373 11.9912 16.2292 11.9624 16.2163 11.936C16.1929 11.8896 16.1647 11.8464 16.1501 11.7944C15.7661 10.3912 14.973 9.22 13.9176 8.4976C13.8587 8.4576 13.8192 8.4024 13.7748 8.3504C13.4375 8.4656 13.0551 8.3584 12.8509 8.0448C12.6089 7.6752 12.713 7.1792 13.0833 6.9384C13.1237 6.9104 13.2003 6.7856 13.2003 6.6408C13.2003 6.0624 12.0812 6 11.6003 6C11.1186 6 10.0003 6.0624 10.0003 6.6408C10.0003 6.7872 10.0689 6.916 10.1036 6.94C10.4586 7.1864 10.574 7.6848 10.3384 8.0472C10.1827 8.2848 9.93015 8.4192 9.66954 8.4192C9.58724 8.4192 9.50737 8.3784 9.42587 8.3504C9.3815 8.4032 9.34116 8.4584 9.28145 8.4992C7.75086 9.5464 6.80039 11.5304 6.80039 13.68C6.80039 16.9408 10.6595 19.6 11.6003 19.6C11.6294 19.6 11.7924 19.5928 12.1328 19.4504C12.5395 19.2808 13.0091 19.4736 13.1793 19.8816C13.3496 20.2896 13.1567 20.7568 12.7485 20.9272C12.3152 21.1088 11.9287 21.2 11.6003 21.2C10.1666 21.2 6.97467 19.0888 5.72325 16.1224L4.57026 16.3888L3.54879 19.0832C3.42696 19.4032 3.12358 19.6 2.80084 19.6C2.70564 19.6 2.61043 19.5832 2.51683 19.5472C2.10373 19.392 1.89556 18.9296 2.05209 18.516L3.22605 15.4224C3.32045 15.1736 3.53346 14.988 3.79327 14.9264L5.27787 14.5824C5.23188 14.2864 5.20041 13.9864 5.20041 13.68C5.20041 13.2992 5.22623 12.924 5.27545 12.5544L3.01143 13.172C2.94043 13.192 2.86943 13.2 2.80004 13.2C2.44825 13.2 2.12632 12.9664 2.02869 12.6104C1.9125 12.184 2.16343 11.7448 2.59026 11.628L5.52315 10.828C5.58689 10.8096 5.64983 10.816 5.71276 10.8144C5.883 10.3376 6.07907 9.8752 6.32677 9.448L3.79246 8.8584C3.53992 8.8 3.33094 8.6224 3.23331 8.3816L2.05935 5.5016C1.89314 5.0928 2.09001 4.6256 2.49828 4.4592C2.90815 4.2888 3.37451 4.4888 3.54153 4.8984L4.55897 7.3944L7.30548 8.0336C7.32807 8.0384 7.34421 8.0536 7.36518 8.0608C7.67824 7.7344 8.01066 7.4304 8.37859 7.1792C8.40441 7.1616 8.43426 7.1584 8.46169 7.144C8.42216 6.9816 8.40037 6.812 8.40037 6.6408C8.40037 6.312 8.49074 5.5176 9.28548 4.9688C9.2758 4.9384 9.25482 4.9136 9.24837 4.8808C9.21771 4.7256 9.19996 4.5648 9.19996 4.4C9.19996 3.0768 10.2771 2 11.6003 2C12.9236 2 13.9999 3.0768 13.9999 4.4C13.9999 4.5936 13.9741 4.788 13.9265 4.9784C14.7091 5.5272 14.8003 6.3136 14.8003 6.6408C14.8003 6.8104 14.7769 6.9784 14.7357 7.1408C14.764 7.1552 14.7946 7.1592 14.8213 7.1776C15.1908 7.4296 15.5289 7.7288 15.8435 8.0568C15.8621 8.0512 15.8758 8.0376 15.8944 8.0336L18.6417 7.3944L19.6591 4.8984C19.8253 4.4888 20.2909 4.2888 20.7016 4.4592C21.1107 4.6256 21.3075 5.0928 21.1413 5.5016L19.9673 8.3816ZM11.6003 3.6C11.159 3.6 10.7999 3.9584 10.7999 4.4C10.7999 4.4208 10.8048 4.44 10.8064 4.46C11.0517 4.4288 11.3026 4.4 11.6003 4.4C11.8973 4.4 12.1482 4.4288 12.3927 4.46C12.3943 4.44 12.3999 4.42 12.3999 4.4C12.3999 3.9584 12.0417 3.6 11.6003 3.6Z" fill="currentColor"/>
</svg>