<svg width="24" height="24" viewBox="0 0 24 24" fill="none" xmlns="http://www.w3.org/2000/svg">
<path fill-rule="evenodd" clip-rule="evenodd" d="M21.9383 5.6475L20.7164 8.6475C20.6136 8.89833 20.3963 9.08333 20.1328 9.14417L17.4927 9.75833C17.7504 10.2033 17.955 10.6858 18.1327 11.1825C18.1984 11.1842 18.2633 11.1775 18.3298 11.1958L21.3858 12.0292C21.8296 12.1508 22.0915 12.6083 21.9703 13.0525C21.8692 13.4233 21.5332 13.6667 21.1669 13.6667C21.0945 13.6667 21.0212 13.6583 20.9471 13.6375L18.5883 12.9942C18.6397 13.3792 18.6666 13.77 18.6666 14.1667C18.6666 14.9275 18.5218 15.6992 18.2346 16.4608C18.222 16.495 18.2068 16.5283 18.1892 16.5608L17.7513 17.3775C17.6014 17.6575 17.3133 17.8167 17.0161 17.8167C16.8839 17.8167 16.7491 17.7858 16.6237 17.7183C16.2178 17.5008 16.0653 16.9958 16.2826 16.59L16.6935 15.8233C16.8973 15.2675 17.0001 14.71 17.0001 14.1667C17.0001 11.9292 16.0089 9.86083 14.4139 8.76833C14.3525 8.72667 14.3112 8.66917 14.2649 8.615C13.9129 8.735 13.5154 8.62333 13.3023 8.29667C13.0514 7.91167 13.1592 7.395 13.5449 7.14417C13.5878 7.115 13.667 6.985 13.667 6.83417C13.667 6.23167 12.5015 6.16667 12.0004 6.16667C11.4985 6.16667 10.3339 6.23167 10.3339 6.83417C10.3339 6.98667 10.4046 7.12083 10.4417 7.14583C10.8113 7.4025 10.9309 7.92167 10.6859 8.29917C10.5233 8.54667 10.2606 8.68667 9.98944 8.68667C9.90354 8.68667 9.82018 8.64417 9.73512 8.615C9.6888 8.67 9.6467 8.7275 9.58522 8.77C7.99025 9.86083 6.99992 11.9275 6.99992 14.1667C6.99992 17.5633 11.0202 20.3333 12.0004 20.3333C12.0299 20.3333 12.1992 20.3258 12.5419 20.1858C12.9689 20.0133 13.4556 20.2175 13.6282 20.6442C13.8017 21.0708 13.5962 21.5567 13.1701 21.7308C12.7305 21.9092 12.3364 22 12.0004 22C10.5065 22 7.18182 19.8008 5.87822 16.7108L4.67735 16.9883L3.61292 19.795C3.4866 20.1283 3.16996 20.3333 2.83396 20.3333C2.73543 20.3333 2.63522 20.3158 2.53837 20.2783C2.10805 20.1167 1.89162 19.635 2.05415 19.2042L3.27691 15.9817C3.37544 15.7225 3.59692 15.5292 3.86808 15.465L5.41421 15.1067C5.36621 14.7983 5.33336 14.4858 5.33336 14.1667C5.33336 13.77 5.36031 13.3792 5.41168 12.9942L3.05291 13.6375C2.97964 13.6583 2.90554 13.6667 2.83311 13.6667C2.46679 13.6667 2.13079 13.4233 2.02973 13.0525C1.90931 12.6083 2.17037 12.1508 2.61416 12.0292L5.67021 11.1958C5.73674 11.1767 5.80158 11.1833 5.86727 11.1817C6.04496 10.685 6.24959 10.2033 6.50728 9.75833L3.86724 9.14417C3.60365 9.08333 3.38639 8.89833 3.28449 8.6475L2.06173 5.6475C1.88826 5.22167 2.09289 4.735 2.519 4.56167C2.94427 4.38417 3.43186 4.5925 3.60534 5.01917L4.66556 7.61917L7.52708 8.285C7.54982 8.29 7.56666 8.30583 7.58856 8.31333C7.91446 7.97333 8.26057 7.65667 8.64458 7.395C8.67152 7.37667 8.70268 7.37333 8.73047 7.35833C8.68921 7.18917 8.66731 7.0125 8.66731 6.83417C8.66731 6.49167 8.76163 5.66417 9.58943 5.0925C9.57849 5.06083 9.55743 5.035 9.5507 5.00083C9.51785 4.83917 9.50017 4.67167 9.50017 4.5C9.50017 3.12167 10.6219 2 12.0004 2C13.379 2 14.4998 3.12167 14.4998 4.5C14.4998 4.70167 14.4729 4.90417 14.4232 5.1025C15.2384 5.67417 15.3335 6.49333 15.3335 6.83417C15.3335 7.01083 15.3091 7.18583 15.2662 7.355C15.2956 7.37 15.3285 7.37417 15.3563 7.39333C15.7394 7.65583 16.0855 7.9725 16.4114 8.31333C16.4333 8.30583 16.4502 8.29 16.4738 8.285L19.3353 7.61917L20.3947 5.01917C20.5681 4.5925 21.0532 4.38417 21.481 4.56167C21.9071 4.735 22.1117 5.22167 21.9383 5.6475ZM12.0004 3.66667C11.5406 3.66667 11.1667 4.04 11.1667 4.5C11.1667 4.52167 11.1718 4.54167 11.1735 4.5625C11.4286 4.53 11.6905 4.5 12.0004 4.5C12.3095 4.5 12.5705 4.53 12.8257 4.5625C12.8274 4.54167 12.8333 4.52083 12.8333 4.5C12.8333 4.04 12.4594 3.66667 12.0004 3.66667ZM13.8337 18.1675C14.1091 17.7983 14.6312 17.7242 15 18L17.6073 19.9558L20.4595 15.3908C20.7037 15.0008 21.2183 14.8817 21.6082 15.1267C21.9989 15.37 22.1168 15.8842 21.8734 16.275L18.5403 21.6083C18.4165 21.8067 18.2153 21.9433 17.9862 21.9858C17.9357 21.995 17.8843 22 17.8329 22C17.6544 22 17.4784 21.9425 17.3336 21.8333L13.9996 19.3333C13.6316 19.0575 13.5575 18.535 13.8337 18.1675Z" fill="#6B7084"/>
</svg>
