<svg width="24" height="24" viewBox="0 0 24 24" fill="none" xmlns="http://www.w3.org/2000/svg">
<path fill-rule="evenodd" clip-rule="evenodd" d="M21.938 5.6475L20.7163 8.64833C20.6136 8.89833 20.3964 9.08417 20.1321 9.145L17.4927 9.7575C17.7503 10.2033 17.9549 10.6858 18.1325 11.1825C18.1982 11.1842 18.2639 11.1775 18.3295 11.1958L21.3857 12.0292C21.8294 12.1508 22.0912 12.6083 21.97 13.0525C21.8689 13.4233 21.533 13.6667 21.1668 13.6667C21.0944 13.6667 21.0203 13.6583 20.947 13.6375L18.588 12.9942C18.6394 13.3792 18.6663 13.77 18.6663 14.1667C18.6663 14.4858 18.6335 14.7983 18.5855 15.1075L20.1321 15.4667C20.4032 15.5292 20.6246 15.7233 20.7231 15.9825L21.9455 19.2042C22.1089 19.635 21.8925 20.1167 21.4614 20.2783C21.3646 20.3158 21.2644 20.3333 21.1659 20.3333C20.83 20.3333 20.5134 20.1283 20.3872 19.795L19.323 16.9892L18.1216 16.71C16.8183 19.8008 13.4936 22 12 22C10.5065 22 7.18178 19.8008 5.8785 16.71L4.67709 16.9892L3.61291 19.795C3.48663 20.1283 3.17007 20.3333 2.8333 20.3333C2.7348 20.3333 2.63545 20.3158 2.53863 20.2783C2.10757 20.1167 1.8912 19.635 2.05453 19.2042L3.27699 15.9825C3.37549 15.7233 3.59692 15.5292 3.86717 15.4667L5.4146 15.1075C5.36661 14.7983 5.33378 14.4858 5.33378 14.1667C5.33378 13.77 5.36072 13.3783 5.41208 12.9942L3.05304 13.6375C2.97979 13.6583 2.90571 13.6667 2.8333 13.6667C2.46707 13.6667 2.13115 13.4233 2.02928 13.0525C1.90888 12.6083 2.17072 12.1508 2.61441 12.0292L5.6697 11.1958C5.73621 11.1767 5.80188 11.1833 5.86755 11.1817C6.04435 10.685 6.24894 10.2025 6.50656 9.7575L3.86717 9.145C3.60365 9.08417 3.38644 8.89833 3.28372 8.64833L2.06211 5.6475C1.88868 5.22167 2.09326 4.735 2.51927 4.56167C2.94528 4.38417 3.43106 4.5925 3.60533 5.01917L4.66446 7.61917L7.52612 8.28417C7.54969 8.28917 7.56653 8.305 7.58926 8.3125C7.91424 7.9725 8.26111 7.65583 8.64418 7.39417C8.67112 7.37583 8.70227 7.3725 8.73089 7.3575C8.68964 7.18833 8.66691 7.0125 8.66691 6.83417C8.66691 6.49167 8.7612 5.66417 9.5888 5.0925C9.5787 5.06083 9.55765 5.03583 9.55091 5.0025C9.51808 4.84 9.5004 4.67167 9.5004 4.5C9.5004 3.12167 10.6218 2 12 2C13.3782 2 14.4997 3.12167 14.4997 4.5C14.4997 4.70333 14.4719 4.905 14.4231 5.1025C15.238 5.67333 15.3332 6.49333 15.3332 6.83417C15.3332 7.01167 15.3087 7.18667 15.2658 7.35583C15.2953 7.37167 15.3273 7.375 15.3551 7.39417C15.739 7.65667 16.085 7.9725 16.4108 8.3125C16.4327 8.30583 16.4504 8.28917 16.474 8.28417L19.3356 7.61917L20.3947 5.01917C20.5673 4.5925 21.054 4.38417 21.4808 4.56167C21.9068 4.735 22.1114 5.22167 21.938 5.6475ZM12 3.66667C11.5404 3.66667 11.1665 4.04 11.1665 4.5C11.1665 4.52083 11.1716 4.54167 11.1733 4.5625C11.4284 4.53 11.6902 4.5 12 4.5C12.309 4.5 12.5709 4.53 12.8251 4.5625C12.8268 4.54167 12.8335 4.52083 12.8335 4.5C12.8335 4.04 12.4597 3.66667 12 3.66667ZM14.4146 8.76917C14.3523 8.7275 14.3111 8.66917 14.2648 8.615C13.9129 8.73417 13.5138 8.62167 13.3016 8.295C13.0507 7.90917 13.1602 7.39333 13.5458 7.14167C13.587 7.115 13.6662 6.98333 13.6662 6.83417C13.6662 6.23167 12.501 6.16667 12 6.16667C11.4983 6.16667 10.3331 6.23167 10.3331 6.83417C10.3331 6.98667 10.4038 7.11833 10.44 7.145C10.8087 7.40167 10.9291 7.92 10.6833 8.29667C10.5216 8.545 10.259 8.68583 9.98787 8.68583C9.90283 8.68583 9.81949 8.64417 9.73614 8.615C9.68899 8.67 9.64689 8.72833 9.58459 8.77083C7.99085 9.86 6.99992 11.9267 6.99992 14.1667C6.99992 17.5633 11.0201 20.3333 12 20.3333C12.98 20.3333 17.0001 17.5633 17.0001 14.1667C17.0001 11.9283 16.0092 9.86083 14.4146 8.76917Z" fill="#6B7084"/>
</svg>
