<svg width="24" height="24" viewBox="0 0 24 24" fill="none" xmlns="http://www.w3.org/2000/svg">
<g clip-path="url(#clip0_1265_22213)">
<path d="M12 24C18.6274 24 24 18.6274 24 12C24 5.37258 18.6274 0 12 0C5.37258 0 0 5.37258 0 12C0 18.6274 5.37258 24 12 24Z" fill="#2D2D2D"/>
<path d="M8.39415 13.9071L3 12.1389H6.60846L6.96546 10.4289L10.17 10.431L10.9694 6H14.1936C16.3762 6 17.261 6.87849 16.9341 8.69147L16.8641 9.07997C16.673 10.1363 16.1907 10.8384 15.3619 11.2436C16.183 11.6636 16.4588 12.4581 16.2523 13.6026L16.0927 14.4888C15.7735 16.257 14.4729 17.1999 12.3603 17.1999H8.94784L9.83193 12.3048H8.76094L8.39415 13.9071ZM11.9403 11.9842L11.2795 15.6452H12.641C13.4488 15.6452 13.8975 15.2868 14.0501 14.4412L14.2216 13.4941C14.4162 12.414 14.0424 11.9842 12.9833 11.9842H11.9403ZM12.7404 7.55399L12.1636 10.7488H13.152C14.0536 10.7488 14.5807 10.3638 14.7424 9.46777L14.8523 8.86157C15.0098 7.98868 14.6836 7.55399 13.8569 7.55399H12.8699H12.7404Z" fill="white"/>
</g>
<defs>
<clipPath id="clip0_1265_22213">
<rect width="24" height="24" fill="white"/>
</clipPath>
</defs>
</svg>
