<svg width="24" height="24" viewBox="0 0 24 24" fill="none" xmlns="http://www.w3.org/2000/svg">
<g clip-path="url(#clip0_2117_18141)">
<path d="M12 24C18.6274 24 24 18.6274 24 12C24 5.37258 18.6274 0 12 0C5.37258 0 0 5.37258 0 12C0 18.6274 5.37258 24 12 24Z" fill="#F8D339"/>
<path fill-rule="evenodd" clip-rule="evenodd" d="M13.6104 7.14436L11.9999 5.5L7.94462 9.58188L9.55511 11.1876L13.6104 7.14436ZM16.0553 9.58194L14.4448 7.93758L7.94462 14.457L9.55511 16.0626L16.0553 9.58194ZM7.11025 10.3749L8.72074 12.0193L7.11025 13.625L5.49976 12.0193L7.11025 10.3749ZM18.5001 12.0193L16.8896 10.3749L10.3895 16.8943L12 18.5L18.5001 12.0193Z" fill="#0B0E11"/>
</g>
<defs>
<clipPath id="clip0_2117_18141">
<rect width="24" height="24" fill="white"/>
</clipPath>
</defs>
</svg>
