<svg viewBox="0 0 24 24" fill="none" xmlns="http://www.w3.org/2000/svg">
<g clip-path="url(#clip0_1265_22209)">
<path d="M12 24C18.6274 24 24 18.6274 24 12C24 5.37258 18.6274 0 12 0C5.37258 0 0 5.37258 0 12C0 18.6274 5.37258 24 12 24Z" fill="#00AEEF"/>
<path d="M10.3857 18.787H6.19453L7.01684 14.1338L11.3679 10.2146H7.66746L10.6598 8.38061H15.5251L9.23251 14.5922L8.80956 16.9648C8.80956 16.9648 10.2147 17.0679 11.3222 16.9648C12.4304 16.8506 13.6749 16.3923 13.6749 16.3923L10.3857 18.787ZM16.9759 8.82787L15.1029 10.6619C15.1029 10.6619 16.679 12.4155 15.2282 14.822C13.8009 17.1829 9.06082 16.7474 9.06082 16.7474L9.4263 14.6732L16.0962 8.16324H10.5684L11.1284 5H8.45588L7.49652 10.4091H10.9L6.85694 14.0543L6 18.9594C6 18.9594 9.23251 19.0508 11.9735 18.9594C14.7256 18.8673 17.9346 16.5065 18.4032 13.8362C19.0428 10.2257 16.9759 8.82787 16.9759 8.82787Z" fill="white"/>
</g>
<defs>
<clipPath id="clip0_1265_22209">
<rect width="24" height="24" fill="white"/>
</clipPath>
</defs>
</svg>