<svg width="24" height="24" viewBox="0 0 24 24" fill="none" xmlns="http://www.w3.org/2000/svg">
<path fill-rule="evenodd" clip-rule="evenodd" d="M6.64286 2C7.0937 2 7.45918 2.36548 7.45918 2.81633V4.29592H16.5408V2.81633C16.5408 2.36548 16.9063 2 17.3571 2C17.808 2 18.1735 2.36548 18.1735 2.81633V4.29592H18.8878C20.6066 4.29592 22 5.68932 22 7.40816V18.8878C22 20.6066 20.6066 22 18.8878 22H5.11225C3.3934 22 2 20.6066 2 18.8878V7.40816C2 5.68932 3.3934 4.29592 5.11225 4.29592H5.82653V2.81633C5.82653 2.36548 6.19201 2 6.64286 2ZM5.11225 5.92857C4.29509 5.92857 3.63265 6.59101 3.63265 7.40816V8.49597C4.07272 8.25773 4.57668 8.12245 5.11225 8.12245H18.8878C19.4233 8.12245 19.9273 8.25773 20.3673 8.49597V7.40816C20.3673 6.59101 19.7049 5.92857 18.8878 5.92857H5.11225ZM20.3673 11.2347C20.3673 10.4175 19.7049 9.7551 18.8878 9.7551H5.11225C4.29509 9.7551 3.63265 10.4175 3.63265 11.2347V18.8878C3.63265 19.7049 4.29509 20.3673 5.11225 20.3673H18.8878C19.7049 20.3673 20.3673 19.7049 20.3673 18.8878V11.2347ZM11.6692 17.6744C11.5159 17.8536 11.2926 17.9586 11.0567 17.9636C11.0501 17.9644 11.0442 17.9644 11.0376 17.9644C10.8076 17.9644 10.5892 17.8702 10.4309 17.7027L8.06092 15.1894C7.74508 14.8552 7.76008 14.3277 8.09425 14.0119C8.43008 13.6961 8.95675 13.7111 9.27342 14.0461L11.0084 15.8861L14.7009 11.5877C15.0026 11.2386 15.5284 11.2002 15.8759 11.4994C16.2251 11.7986 16.2651 12.3252 15.9659 12.6744L11.6692 17.6744Z" fill="#6B7084"/>
</svg>
