<svg viewBox="0 0 24 24" fill="none" xmlns="http://www.w3.org/2000/svg">
<path fill-rule="evenodd" clip-rule="evenodd" d="M19.5 22H2.83333C2.3725 22 2 21.6267 2 21.1667V4.5C2 4.04 2.3725 3.66667 2.83333 3.66667H7V2.83333C7 2.37333 7.3725 2 7.83333 2C8.29417 2 8.66667 2.37333 8.66667 2.83333V3.66667H13.6667V2.83333C13.6667 2.37333 14.0392 2 14.5 2C14.9608 2 15.3333 2.37333 15.3333 2.83333V3.66667H19.5C19.9608 3.66667 20.3333 4.04 20.3333 4.5V21.1667C20.3333 21.6267 19.9608 22 19.5 22ZM18.6667 5.33333H15.3333C15.3333 5.79333 14.9608 6.16667 14.5 6.16667C14.0392 6.16667 13.6667 5.79333 13.6667 5.33333H8.66667C8.66667 5.79333 8.29417 6.16667 7.83333 6.16667C7.3725 6.16667 7 5.79333 7 5.33333H3.66667V7H18.6667V5.33333ZM18.6667 8.66667H3.66667V20.3333H18.6667V8.66667ZM11.5833 15.3333C10.4342 15.3333 9.5 14.3983 9.5 13.25C9.5 12.3975 10.0158 11.6658 10.75 11.3433V11.1667C10.75 10.7067 11.1225 10.3333 11.5833 10.3333C12.0442 10.3333 12.4167 10.7067 12.4167 11.1667H12.8333C13.2942 11.1667 13.6667 11.54 13.6667 12C13.6667 12.46 13.2942 12.8333 12.8333 12.8333H11.5833C11.3542 12.8333 11.1667 13.02 11.1667 13.25C11.1667 13.48 11.3542 13.6667 11.5833 13.6667C12.7325 13.6667 13.6667 14.6017 13.6667 15.75C13.6667 16.6025 13.1517 17.3342 12.4167 17.6567V17.8333C12.4167 18.2933 12.0442 18.6667 11.5833 18.6667C11.1225 18.6667 10.75 18.2933 10.75 17.8333H10.3333C9.8725 17.8333 9.5 17.46 9.5 17C9.5 16.54 9.8725 16.1667 10.3333 16.1667H11.5833C11.8125 16.1667 12 15.98 12 15.75C12 15.52 11.8125 15.3333 11.5833 15.3333Z" fill="currentColor"/>
</svg>