<svg viewBox="0 0 24 24" fill="none" xmlns="http://www.w3.org/2000/svg">
<path fill-rule="evenodd" clip-rule="evenodd" d="M17.5563 21.9886C15.1052 21.9886 13.1111 19.9945 13.1111 17.5441C13.1111 15.093 15.1052 13.0997 17.5563 13.0997C20.0066 13.0997 22 15.093 22 17.5441C22 19.9945 20.0066 21.9886 17.5563 21.9886ZM17.5562 14.5811C15.9222 14.5811 14.5925 15.9108 14.5925 17.5441C14.5925 19.1774 15.9222 20.5071 17.5562 20.5071C19.1896 20.5071 20.5185 19.1774 20.5185 17.5441C20.5185 15.9108 19.1896 14.5811 17.5562 14.5811ZM16.8147 16.8034V17.5441V18.2849H19.7777V16.8034H18.2962V15.3219H16.8147V16.8034ZM7.45918 2.81633C7.45918 2.36548 7.0937 2 6.64286 2C6.19201 2 5.82653 2.36548 5.82653 2.81633V4.29592H5.11225C3.3934 4.29592 2 5.68932 2 7.40816V18.8878C2 20.6066 3.3934 22 5.11225 22H13.9988C13.4362 21.55 12.9604 20.996 12.6007 20.3673H5.11225C4.29509 20.3673 3.63265 19.7049 3.63265 18.8878V11.2347C3.63265 10.4175 4.29509 9.7551 5.11225 9.7551H18.8878C19.7049 9.7551 20.3673 10.4175 20.3673 11.2347V12.5821C20.9954 12.9393 21.5494 13.4124 22 13.9721V7.40816C22 5.68932 20.6066 4.29592 18.8878 4.29592H18.1735V2.81633C18.1735 2.36548 17.808 2 17.3571 2C16.9063 2 16.5408 2.36548 16.5408 2.81633V4.29592H7.45918V2.81633ZM15.0449 12.4231C14.9155 12.1432 14.6322 11.949 14.3036 11.949H14.2959C13.8451 11.949 13.4796 12.3145 13.4796 12.7653V12.773C13.4796 12.9922 13.566 13.1913 13.7067 13.338C14.1051 12.9732 14.5553 12.664 15.0449 12.4231ZM12.6761 14.5925C12.5284 14.3823 12.2841 14.2449 12.0077 14.2449H12C11.5492 14.2449 11.1837 14.6104 11.1837 15.0612V15.0689C11.1837 15.5197 11.5492 15.8852 12 15.8852H12.0077C12.0385 15.8852 12.069 15.8835 12.099 15.8801C12.2383 15.4242 12.4334 14.9923 12.6761 14.5925ZM11.9395 16.543C11.5169 16.574 11.1837 16.9266 11.1837 17.3571V17.3648C11.1837 17.777 11.4891 18.1178 11.886 18.1732C11.8633 17.9666 11.8516 17.7567 11.8516 17.5441C11.8516 17.2027 11.8817 16.8681 11.9395 16.543ZM3.63265 7.40816C3.63265 6.59101 4.29509 5.92857 5.11225 5.92857H18.8878C19.7049 5.92857 20.3673 6.59101 20.3673 7.40816V8.49597C19.9273 8.25773 19.4233 8.12245 18.8878 8.12245H5.11225C4.57668 8.12245 4.07272 8.25773 3.63265 8.49597V7.40816ZM12 11.949C11.5492 11.949 11.1837 12.3145 11.1837 12.7653V12.773C11.1837 13.2238 11.5492 13.5893 12 13.5893H12.0077C12.4585 13.5893 12.824 13.2238 12.824 12.773V12.7653C12.824 12.3145 12.4585 11.949 12.0077 11.949H12ZM7.40816 14.2449C6.95732 14.2449 6.59184 14.6104 6.59184 15.0612V15.0689C6.59184 15.5197 6.95732 15.8852 7.40816 15.8852H7.41582C7.86666 15.8852 8.23214 15.5197 8.23214 15.0689V15.0612C8.23214 14.6104 7.86666 14.2449 7.41582 14.2449H7.40816ZM9.70408 14.2449C9.25324 14.2449 8.88776 14.6104 8.88776 15.0612V15.0689C8.88776 15.5197 9.25324 15.8852 9.70408 15.8852H9.71174C10.1626 15.8852 10.5281 15.5197 10.5281 15.0689V15.0612C10.5281 14.6104 10.1626 14.2449 9.71174 14.2449H9.70408ZM7.40816 16.5408C6.95732 16.5408 6.59184 16.9063 6.59184 17.3571V17.3648C6.59184 17.8156 6.95732 18.1811 7.40816 18.1811H7.41582C7.86666 18.1811 8.23214 17.8156 8.23214 17.3648V17.3571C8.23214 16.9063 7.86666 16.5408 7.41582 16.5408H7.40816ZM9.70408 16.5408C9.25324 16.5408 8.88776 16.9063 8.88776 17.3571V17.3648C8.88776 17.8156 9.25324 18.1811 9.70408 18.1811H9.71174C10.1626 18.1811 10.5281 17.8156 10.5281 17.3648V17.3571C10.5281 16.9063 10.1626 16.5408 9.71174 16.5408H9.70408Z" fill="currentColor"/>
</svg>