<svg viewBox="0 0 24 24" fill="none" xmlns="http://www.w3.org/2000/svg">
<path fill-rule="evenodd" clip-rule="evenodd" d="M17.8319 22C15.6833 22 11.763 19.5211 8.07722 15.8316C5.94724 13.7021 4.18229 11.455 3.10756 9.50565C1.84143 7.21022 1.66019 5.586 2.56723 4.67883L5.33916 2.20998C5.506 2.0624 5.72535 1.98819 5.9464 2.00153C6.16913 2.01654 6.37663 2.1191 6.52229 2.28752L10.1327 6.45397C10.3537 6.70828 10.3994 7.07098 10.2487 7.37198L8.85129 10.1685L13.8336 15.1512L16.6293 13.7538C16.9299 13.6037 17.2907 13.6479 17.5456 13.868L21.7107 17.46C21.8793 17.6051 21.9826 17.811 21.9978 18.0337C22.0139 18.2554 21.9394 18.4739 21.7929 18.6415L19.3784 21.3888C19.0709 21.6982 18.6068 22 17.8319 22ZM3.76983 5.83447C3.63179 6.02958 3.5327 6.82585 4.56677 8.70104C5.56782 10.517 7.23284 12.6315 9.2561 14.6543C12.941 18.343 16.4252 20.3333 17.8319 20.3333C18.0148 20.3333 18.1165 20.2974 18.1469 20.2666L19.9864 18.1729L16.8783 15.4931L14.042 16.9114C13.7202 17.0715 13.3331 17.0081 13.0799 16.7546L7.24893 10.9214C6.99486 10.6688 6.93219 10.2811 7.09225 9.96006L8.50913 7.12518L5.81512 4.0168L3.76983 5.83447Z" fill="currentColor"/>
</svg>