<svg width="24" height="24" viewBox="0 0 24 24" fill="none" xmlns="http://www.w3.org/2000/svg">
<g clip-path="url(#clip0_1265_22203)">
<path d="M12 24C18.6274 24 24 18.6274 24 12C24 5.37258 18.6274 0 12 0C5.37258 0 0 5.37258 0 12C0 18.6274 5.37258 24 12 24Z" fill="#FBB413"/>
<path d="M12.0137 15.3363C12.401 15.3539 12.7876 15.2873 13.1465 15.1412C13.2889 15.0907 13.4249 15.0239 13.5521 14.9427C13.5634 14.9327 13.5766 14.9253 13.591 14.9209C13.6054 14.9165 13.6205 14.9152 13.6354 14.917C13.6504 14.9189 13.6647 14.9239 13.6775 14.9317C13.6903 14.9396 13.7013 14.95 13.7097 14.9624L14.6313 15.9058C14.6973 15.9743 14.6949 15.9963 14.6161 16.0503C14.296 16.2686 13.9483 16.4437 13.5819 16.5711C13.1285 16.7253 12.6548 16.8125 12.1759 16.83C11.5662 16.8613 10.9561 16.7784 10.3771 16.5856C9.87871 16.4138 9.41519 16.1546 9.0085 15.8204C8.64122 15.5183 8.3186 15.1661 8.05016 14.7743C7.89854 14.5607 7.76761 14.3333 7.65912 14.0951C7.57718 13.9067 7.50338 13.715 7.43792 13.5203C7.32919 13.1632 7.26011 12.7952 7.23189 12.4231C7.20147 12.1499 7.20539 11.8739 7.24356 11.6017C7.27275 11.3323 7.3206 11.0652 7.38656 10.8022C7.49679 10.4003 7.65697 10.0136 7.86339 9.65104C8.30687 8.88762 8.95758 8.26391 9.74097 7.85136C10.0382 7.69107 10.3521 7.56338 10.6771 7.47053C10.9408 7.39202 11.2115 7.33951 11.4855 7.31378C11.6965 7.28743 11.9096 7.28257 12.1216 7.29927C12.1596 7.30159 12.1975 7.30159 12.2349 7.29927C12.5821 7.30811 12.9267 7.36237 13.2597 7.46066C13.544 7.53613 13.8189 7.64295 14.078 7.78112C14.3517 7.9158 14.6091 8.07951 14.8473 8.26993C14.8939 8.31115 14.9307 8.29199 14.9675 8.25252L15.5354 7.6563L16.3536 6.7913C16.4493 6.68854 16.4739 6.68564 16.5772 6.77852C16.8923 7.06125 17.1842 7.36951 17.4468 7.70042C17.7806 8.11273 18.0652 8.56217 18.2948 9.03973C18.4787 9.4345 18.6298 9.8432 18.7471 10.2618C18.8458 10.6066 18.8773 10.9584 18.9538 11.3033C18.9545 11.3098 18.9545 11.3164 18.9538 11.323C18.9538 11.6429 19.025 11.9633 18.9905 12.2832C18.9514 12.6478 18.9316 13.017 18.8551 13.3764C18.7903 13.6782 18.708 13.9755 18.61 14.2681C18.3688 14.9941 18.0074 15.6749 17.5408 16.2826C17.4696 16.3754 17.4474 16.3778 17.3657 16.2826C17.096 16.0109 16.8258 15.7351 16.5527 15.4663C16.496 15.41 16.5036 15.3659 16.5527 15.3049C16.8404 14.9037 17.0735 14.4665 17.246 14.0045C17.4007 13.5708 17.5069 13.1215 17.5629 12.6646C17.5968 12.3146 17.6038 11.9622 17.5851 11.6115C17.5768 11.4118 17.5528 11.213 17.5133 11.017C17.3644 10.2123 17.037 9.45078 16.555 8.78777C16.5036 8.71463 16.4394 8.64844 16.3927 8.57065C16.346 8.49228 16.3414 8.51434 16.297 8.55846C16.0367 8.8197 15.7688 9.07398 15.5155 9.34045C15.4274 9.43333 15.3264 9.50648 15.243 9.60169C15.1595 9.69748 15.0585 9.78746 14.9651 9.88035L14.6803 10.1642C14.636 10.2084 14.6015 10.1909 14.5718 10.1497C14.3306 9.79826 14.0205 9.4989 13.6601 9.26962C13.3119 9.04653 12.9214 8.89677 12.5127 8.82957C12.1938 8.78081 11.8697 8.77671 11.5497 8.81738C11.1563 8.8592 10.7753 8.97882 10.4291 9.16919C10.0574 9.37223 9.73115 9.64836 9.47016 9.98078C9.24298 10.267 9.0676 10.5903 8.95188 10.9364C8.82159 11.3464 8.76257 11.7756 8.77737 12.2054C8.77214 12.9766 9.06004 13.7212 9.58338 14.2901C9.89776 14.636 10.2833 14.9104 10.7139 15.0948C11.1224 15.2736 11.5678 15.3566 12.0137 15.3363Z" fill="white"/>
<path d="M17.2782 16.4433L14.7919 13.9255C14.7376 13.8692 14.6926 13.8674 14.6489 13.9255C14.4732 14.1803 14.2604 14.4077 14.0174 14.6001C13.9584 14.6465 13.9584 14.6831 14.0174 14.7371C14.2409 14.9594 14.4621 15.187 14.6833 15.4094C14.971 15.7002 15.2582 15.9911 15.5483 16.2819C15.5996 16.333 15.5973 16.3574 15.5483 16.4015C15.4327 16.4874 15.3195 16.5757 15.1992 16.6459C14.569 17.0787 13.8537 17.3737 13.1005 17.5115C12.8078 17.5775 12.5088 17.612 12.2087 17.6143H12.0884C11.876 17.6288 11.6624 17.6224 11.4523 17.5945C11.206 17.5579 10.9748 17.5283 10.7414 17.4772C10.4456 17.4102 10.1562 17.3177 9.87642 17.2009C9.40123 17.0041 8.95545 16.7433 8.55155 16.4259C8.15267 16.1136 7.79673 15.7505 7.49283 15.3461C7.17246 14.9224 6.91734 14.4536 6.73584 13.9551C6.53699 13.467 6.42388 12.9486 6.40142 12.4225C6.39723 12.367 6.39723 12.3113 6.40142 12.2559V11.6794C6.38801 11.6172 6.38801 11.5529 6.40142 11.4907C6.40142 11.4443 6.42126 11.4007 6.42885 11.3543C6.45336 11.1377 6.49188 10.9229 6.54441 10.711C6.61153 10.4266 6.70082 10.1479 6.8123 9.87739C7.30702 8.6723 8.20681 7.67531 9.35815 7.05654C10.0392 6.68051 10.7936 6.45478 11.5702 6.39473H11.712C12.5205 6.34369 13.3303 6.47055 14.0839 6.76627L14.2952 6.85393C14.6173 6.99601 14.9258 7.16701 15.2167 7.36481C15.2272 7.37431 15.2395 7.38152 15.253 7.38598C15.2664 7.39043 15.2806 7.39202 15.2947 7.39065C15.3088 7.38928 15.3224 7.38498 15.3347 7.37803C15.3471 7.37108 15.3578 7.36163 15.3662 7.35029C15.627 7.05422 15.9019 6.77324 16.1751 6.48993C16.2264 6.43594 16.2288 6.38718 16.1751 6.34306C15.2743 5.69153 14.2306 5.26251 13.1302 5.09141C12.8145 5.04151 12.496 5.01126 12.1766 5.00085C11.6816 4.99306 11.1872 5.039 10.7023 5.13785C10.3925 5.19909 10.0872 5.28074 9.78829 5.38226C9.25601 5.55933 8.74824 5.80199 8.27666 6.10329C7.71053 6.46323 7.19867 6.8998 6.75569 7.40138C6.16402 8.06928 5.70762 8.84457 5.41156 9.68465C5.28783 10.0399 5.18978 10.4034 5.11915 10.7726C5.06488 11.0959 5.02811 11.4228 5.00826 11.7502C4.98823 12.102 5.00465 12.4549 5.05729 12.8033C5.09581 13.1499 5.16234 13.4924 5.25631 13.828C5.32285 14.055 5.38938 14.2825 5.47518 14.5026C5.64677 14.9438 5.86213 15.3676 6.11893 15.7664C6.43839 16.257 6.81534 16.7082 7.24186 17.1103C7.51792 17.3635 7.81383 17.5939 8.12666 17.8C8.54572 18.0851 8.99629 18.3225 9.46904 18.5065C9.93945 18.6923 10.4303 18.8247 10.9305 18.9025C11.3058 18.9582 11.6845 18.9907 12.0639 19C12.309 19 12.5553 18.9611 12.7859 18.9559C12.961 18.9431 13.1343 18.917 13.3047 18.8781C13.4938 18.8462 13.6806 18.7968 13.8674 18.748C14.5658 18.5663 15.2298 18.2723 15.8331 17.8778C16.3799 17.5295 16.876 17.1086 17.3079 16.6268C17.3791 16.5455 17.3768 16.5315 17.2788 16.4433H17.2782Z" fill="white"/>
</g>
<defs>
<clipPath id="clip0_1265_22203">
<rect width="24" height="24" fill="white"/>
</clipPath>
</defs>
</svg>
