<svg viewBox="0 0 24 24" fill="none" xmlns="http://www.w3.org/2000/svg">
<path fill-rule="evenodd" clip-rule="evenodd" d="M20.3646 10.3266V8.65887H22V10.3266H20.3646ZM17.0938 8.65887H18.7292V10.3266H17.0938V8.65887ZM21.5674 17.4596C21.7351 17.6047 21.8373 17.8115 21.8528 18.0333C21.8684 18.2551 21.7948 18.4744 21.6492 18.6412L19.2501 21.3888C18.9467 21.699 18.4855 22 17.7153 22C15.5811 22 11.6872 19.5217 8.02551 15.8318C4.04004 11.8184 0.627774 6.61588 2.55264 4.67796L5.30502 2.21053C5.47101 2.0621 5.6877 1.98622 5.90848 2.00206C6.12926 2.01624 6.33532 2.11964 6.48005 2.28808L10.0665 6.45495C10.2856 6.70928 10.3314 7.07201 10.1818 7.37304L8.79333 10.169L13.7429 15.1522L16.5198 13.7555C16.8174 13.6054 17.1772 13.6496 17.4299 13.8689L21.5674 17.4596ZM16.7667 15.4941L13.9497 16.9117C13.63 17.0718 13.2457 17.0093 12.9947 16.7549L7.20126 10.9228C6.94941 10.6693 6.88645 10.2824 7.0459 9.96055L8.45398 7.12621L5.77846 4.0167L3.70314 5.87374C3.23542 6.34738 4.50858 9.93386 9.19563 14.6536C12.8573 18.3435 16.3186 20.3339 17.7152 20.3339C17.8968 20.3339 17.9974 20.2981 18.0276 20.2672L19.8544 18.1725L16.7667 15.4941ZM13.823 8.65887H15.4584V10.3266H13.823V8.65887Z" fill="currentColor"/>
</svg>