<svg viewBox="0 0 24 24" fill="none" xmlns="http://www.w3.org/2000/svg">
<path fill-rule="evenodd" clip-rule="evenodd" d="M21.8263 11.1662C21.3663 11.1662 20.9936 10.7935 20.9936 10.3324V9.49941H19.3284C19.0124 9.49941 18.7245 9.32097 18.5829 9.03914C18.4422 8.75647 18.4727 8.41878 18.6619 8.16613L21.1606 4.83253C21.3754 4.54569 21.7489 4.42896 22.0895 4.54153C22.4302 4.65576 22.8333 4.96427 22.8333 5.32365V10.3266C22.8333 10.7868 22.287 11.1662 21.8263 11.1662ZM17.9198 10.3324C17.9198 10.7935 17.5471 11.1662 17.0863 11.1662H13.7558C13.3987 11.1662 13.0803 10.9386 12.9668 10.5992C12.8524 10.2598 12.9668 9.88629 13.2514 9.6695L16.0595 7.53159C16.1854 7.3815 16.2537 7.19556 16.2537 6.99962C16.2537 6.54018 15.881 6.1658 15.4211 6.1658C14.962 6.1658 14.5884 6.54018 14.5884 6.99962C14.5884 7.45988 14.2157 7.8326 13.7558 7.8326C13.2951 7.8326 12.9223 7.45988 12.9223 6.99962C12.9223 5.62048 14.0438 4.499 15.4211 4.499C16.7992 4.499 17.9198 5.62048 17.9198 6.99962C17.9198 7.64416 17.6738 8.25618 17.2287 8.72395C17.1982 8.75564 17.1645 8.78482 17.1299 8.8115L16.2266 9.4994H17.0863C17.5471 9.4994 17.9198 9.87295 17.9198 10.3324ZM8.83651 10.1681L13.8167 15.1519L16.6116 13.7544C16.9119 13.6051 17.2739 13.6493 17.5273 13.8686L21.6913 17.4599C21.8608 17.6041 21.9637 17.8117 21.9793 18.0327C21.9941 18.2553 21.9209 18.4746 21.7736 18.6405L19.3596 21.388C19.0536 21.6982 18.5903 22 17.8153 22C15.6663 22 11.7483 19.5211 8.06394 15.8314C4.05297 11.8182 0.618765 6.61606 2.55637 4.67743L5.32661 2.21017C5.49281 2.06175 5.70179 1.98754 5.93381 2.00171C6.15595 2.01589 6.36246 2.11928 6.50892 2.28771L10.1184 6.4543C10.3389 6.70861 10.3841 7.07132 10.2336 7.37233L8.83651 10.1681ZM5.80218 4.01622L3.71401 5.87313C3.24257 6.34757 4.52443 9.93299 9.24132 14.6532C12.9256 18.3429 16.4084 20.3332 17.8153 20.3332C17.9972 20.3332 18.0984 20.2973 18.1288 20.2673L19.9668 18.1728L16.8601 15.4937L14.0249 16.9104C13.7056 17.0705 13.3189 17.0088 13.0639 16.7545L7.23461 10.9227C6.98037 10.6684 6.91784 10.2815 7.07828 9.96051L8.49508 7.12553L5.80218 4.01622Z" fill="currentColor"/>
</svg>