<svg width="24" height="24" viewBox="0 0 24 24" fill="none" xmlns="http://www.w3.org/2000/svg">
<path fill-rule="evenodd" clip-rule="evenodd" d="M19.5 20.6667H4.5C3.12167 20.6667 2 19.545 2 18.1667V9C2 7.62167 3.12167 6.5 4.5 6.5H6.49917L7.59417 4.4425C7.73833 4.17 8.02167 4 8.33 4H15.67C15.9783 4 16.2617 4.17 16.4058 4.4425L17.5008 6.5H19.5C20.8783 6.5 22 7.62167 22 9V18.1667C22 19.545 20.8783 20.6667 19.5 20.6667ZM20.3333 9C20.3333 8.54083 19.9592 8.16667 19.5 8.16667H17C16.86 8.16667 16.7342 8.12333 16.6183 8.0625C16.5867 8.04583 16.5617 8.025 16.5317 8.00417C16.4417 7.94083 16.3683 7.86417 16.3092 7.77167C16.2967 7.7525 16.275 7.745 16.2642 7.725L15.17 5.66667H8.83L7.73583 7.725C7.71667 7.76 7.685 7.7825 7.6625 7.81417C7.62833 7.86167 7.59667 7.90833 7.55333 7.94667C7.5125 7.98333 7.4675 8.00833 7.42083 8.03583C7.37583 8.06333 7.33333 8.09083 7.2825 8.11C7.2275 8.13 7.17083 8.13583 7.1125 8.14417C7.07417 8.14917 7.04 8.16667 7 8.16667H4.5C4.04083 8.16667 3.66667 8.54083 3.66667 9V18.1667C3.66667 18.6258 4.04083 19 4.5 19H19.5C19.9592 19 20.3333 18.6258 20.3333 18.1667V9ZM16.9959 14.4267C16.7809 14.4267 16.565 14.3433 16.4025 14.1775L16.3642 14.1383C15.935 15.5108 14.8767 16.6183 13.4084 17.0942C12.9125 17.255 12.4025 17.3342 11.8984 17.3342C10.8492 17.3342 9.82337 16.9917 8.98587 16.3358C8.62337 16.0517 8.56003 15.5275 8.8442 15.1658C9.12753 14.8025 9.6517 14.74 10.0142 15.0242C10.8167 15.6533 11.8917 15.8333 12.8942 15.5083C13.5384 15.3 14.06 14.9017 14.4125 14.3908C14.2267 14.3717 14.0434 14.3008 13.9017 14.1567C13.5792 13.8292 13.5834 13.3017 13.9117 12.9783L15.1717 11.7392C15.4984 11.4175 16.0267 11.4208 16.3492 11.7483L17.5892 13.0083C17.9125 13.3358 17.9084 13.8642 17.5809 14.1867C17.4184 14.3467 17.2075 14.4267 16.9959 14.4267ZM13.9817 10.4758C13.1792 9.84833 12.1017 9.66667 11.1017 9.99167C10.4575 10.2 9.93502 10.5983 9.58252 11.11C9.76919 11.1292 9.95169 11.1992 10.0942 11.3433C10.4167 11.6725 10.4125 12.1992 10.0842 12.5217L8.82419 13.7608C8.66252 13.92 8.45085 14 8.24002 14C8.02502 14 7.80919 13.9167 7.64669 13.7517L6.40669 12.4917C6.08335 12.1642 6.08752 11.6358 6.41502 11.3133C6.74335 10.9908 7.27169 10.9942 7.59335 11.3225L7.63169 11.3617C8.06085 9.98917 9.11919 8.88167 10.5875 8.40583C12.1175 7.90917 13.7709 8.1925 15.01 9.16417C15.3717 9.4475 15.4359 9.97167 15.1517 10.3342C14.8675 10.6967 14.3442 10.76 13.9817 10.4758Z" fill="#6B7084"/>
</svg>
