<svg viewBox="0 0 24 24" fill="none" xmlns="http://www.w3.org/2000/svg">
<path fill-rule="evenodd" clip-rule="evenodd" d="M19.5 20.6667H4.5C3.12167 20.6667 2 19.545 2 18.1667V9C2 7.62167 3.12167 6.5 4.5 6.5H6.49917L7.59417 4.4425C7.73833 4.17 8.02167 4 8.33 4H15.67C15.9783 4 16.2617 4.17 16.4058 4.4425L17.5008 6.5H19.5C20.8783 6.5 22 7.62167 22 9V18.1667C22 19.545 20.8783 20.6667 19.5 20.6667ZM20.3333 9C20.3333 8.54083 19.9592 8.16667 19.5 8.16667H17C16.86 8.16667 16.7342 8.12333 16.6183 8.0625C16.5867 8.04583 16.5617 8.025 16.5317 8.00417C16.4417 7.94083 16.3675 7.86417 16.3083 7.77083C16.2967 7.7525 16.275 7.745 16.2642 7.725L15.17 5.66667H8.83L7.73583 7.725C7.71667 7.76083 7.685 7.7825 7.6625 7.81417C7.62833 7.86167 7.59667 7.9075 7.55333 7.94667C7.5125 7.98333 7.4675 8.00833 7.42083 8.03583C7.37583 8.06333 7.33333 8.09167 7.2825 8.11C7.2275 8.13 7.17083 8.13583 7.1125 8.14417C7.07417 8.14917 7.04 8.16667 7 8.16667H4.5C4.04083 8.16667 3.66667 8.54083 3.66667 9V18.1667C3.66667 18.6258 4.04083 19 4.5 19H19.5C19.9592 19 20.3333 18.6258 20.3333 18.1667V9ZM12 17.3333C9.4725 17.3333 7.41667 15.2775 7.41667 12.7508C7.41667 10.2233 9.4725 8.16751 12 8.16751C14.5275 8.16751 16.5833 10.2233 16.5833 12.7508C16.5833 15.2775 14.5275 17.3333 12 17.3333ZM12 9.83417C10.3917 9.83417 9.08333 11.1425 9.08333 12.7508C9.08333 14.3583 10.3917 15.6667 12 15.6667C13.6083 15.6667 14.9167 14.3583 14.9167 12.7508C14.9167 11.1425 13.6083 9.83417 12 9.83417Z" fill="currentColor"/>
</svg>