<svg viewBox="0 0 24 24" fill="none" xmlns="http://www.w3.org/2000/svg">
<path fill-rule="evenodd" clip-rule="evenodd" d="M21.7563 3.42258L3.4231 21.7558C3.26022 21.918 3.04696 22 2.83371 22C2.62045 22 2.4072 21.918 2.24432 21.7558C1.91856 21.4304 1.91856 20.9026 2.24432 20.5772L3.00079 19.8211C2.39125 19.3593 2 18.6358 2 17.8328V8.66708C2 7.28779 3.12169 6.16695 4.50029 6.16695H6.50018L7.59416 4.10847C7.73857 3.83662 8.02235 3.66682 8.33048 3.66682H15.6701C15.9783 3.66682 16.2621 3.83662 16.4065 4.10847L17.2074 5.6149L20.5775 2.24403C20.9033 1.91866 21.4306 1.91866 21.7563 2.24403C22.0812 2.56941 22.0812 3.09721 21.7563 3.42258ZM9.55793 13.2642L12.431 10.391C12.2883 10.3659 12.1464 10.3341 12.0003 10.3341C10.6217 10.3341 9.5 11.4558 9.5 12.8334C9.5 12.9798 9.53274 13.1212 9.55793 13.2642ZM15.3788 5.32883H8.66207L7.76959 7.31622C7.76707 7.32208 7.76455 7.3271 7.76203 7.33295L7.73601 7.3915C7.71754 7.42663 7.68563 7.44922 7.66296 7.481C7.62854 7.52784 7.59664 7.57468 7.55382 7.61316C7.51268 7.64996 7.46734 7.67506 7.42116 7.70266C7.37582 7.73026 7.33301 7.75786 7.28347 7.77627C7.22806 7.79634 7.17097 7.8022 7.11219 7.81056C7.07357 7.81558 7.03999 7.83314 7.00053 7.83314H4.50024C4.04099 7.83314 3.62455 8.2154 3.62455 8.67461V17.8755C3.62455 18.2276 3.88566 18.4953 4.21478 18.6065L8.23052 14.5916C7.97445 14.0421 7.8334 13.444 7.8334 12.8334C7.8334 10.5365 9.70316 8.66792 12.0003 8.66792C12.6098 8.66792 13.2084 8.80844 13.7575 9.06439L16.0135 6.80766L15.3788 5.32883ZM11.1666 16.1666C11.1666 15.7066 11.5402 15.3327 12.0003 15.3327C13.3789 15.3327 14.5006 14.2119 14.5006 12.8334C14.5006 12.3734 14.8733 12.0011 15.3334 12.0011C15.7935 12.0011 16.1671 12.3734 16.1671 12.8334C16.1671 15.1311 14.2974 16.9997 12.0003 16.9997C11.5402 16.9997 11.1666 16.6267 11.1666 16.1666ZM8.66211 18.7119H19.5767C20.036 18.7119 20.4163 18.3347 20.4163 17.8755V8.67462C20.4163 8.47052 20.2576 8.26559 20.1191 8.11169C19.8127 7.76958 19.8404 7.24262 20.1829 6.93481C20.5255 6.62784 21.0519 6.65544 21.36 6.99838C21.7731 7.45843 21.9998 8.05063 21.9998 8.66709V17.8328C21.9998 19.2121 20.8789 20.333 19.5003 20.333H8.66714C8.20705 20.333 7.83344 19.9599 7.83344 19.4999C7.83344 19.0398 8.20201 18.7119 8.66211 18.7119Z" fill="currentColor"/>
</svg>