<svg width="24" height="24" viewBox="0 0 24 24" fill="none" xmlns="http://www.w3.org/2000/svg">
<path fill-rule="evenodd" clip-rule="evenodd" d="M7.09078 18.0657L12.5908 12.5657C12.9032 12.2533 12.9032 11.7467 12.5908 11.4343L7.09078 5.93433C6.77836 5.62191 6.27183 5.62191 5.95941 5.93433C5.64699 6.24675 5.64699 6.75328 5.95941 7.0657L10.8937 12L5.95941 16.9343C5.64699 17.2467 5.64699 17.7533 5.95941 18.0657C6.27183 18.3781 6.77836 18.3781 7.09078 18.0657ZM12.5407 18.0657L18.0407 12.5657C18.3532 12.2533 18.3532 11.7468 18.0407 11.4343L12.5407 5.93433C12.2283 5.62191 11.7218 5.62191 11.4094 5.93433C11.0969 6.24675 11.0969 6.75328 11.4094 7.0657L16.3437 12L11.4094 16.9343C11.0969 17.2468 11.0969 17.7533 11.4094 18.0657C11.7218 18.3781 12.2283 18.3781 12.5407 18.0657Z" fill="#6B7084"/>
</svg>
