<svg viewBox="0 0 24 24" fill="none" xmlns="http://www.w3.org/2000/svg">
<path fill-rule="evenodd" clip-rule="evenodd" d="M5.90912 11.4343C5.5967 11.7467 5.5967 12.2533 5.90912 12.5657L11.4091 18.0657C11.7215 18.3781 12.2281 18.3781 12.5405 18.0657C12.8529 17.7533 12.8529 17.2467 12.5405 16.9343L7.60618 12L12.5405 7.0657C12.8529 6.75328 12.8529 6.24675 12.5405 5.93433C12.2281 5.62191 11.7215 5.62191 11.4091 5.93433L5.90912 11.4343ZM11.4593 11.4343C11.1468 11.7467 11.1468 12.2533 11.4593 12.5657L16.9593 18.0657C17.2717 18.3781 17.7782 18.3781 18.0906 18.0657C18.4031 17.7533 18.4031 17.2467 18.0906 16.9343L13.1563 12L18.0906 7.0657C18.4031 6.75328 18.4031 6.24675 18.0906 5.93433C17.7782 5.62191 17.2717 5.62191 16.9593 5.93433L11.4593 11.4343Z" fill="currentColor"/>
</svg>