<svg width="24" height="24" viewBox="0 0 24 24" fill="none" xmlns="http://www.w3.org/2000/svg">
<path fill-rule="evenodd" clip-rule="evenodd" d="M21.9642 8.9075L19.4478 17.2408C19.3417 17.5925 19.0186 17.8333 18.6504 17.8333H10.8508C10.85 17.8333 10.85 17.8333 10.85 17.8333C10.7464 17.8333 10.6479 17.81 10.5536 17.7733C10.5218 17.7608 10.4951 17.7425 10.4651 17.7267C10.4066 17.6958 10.3524 17.6608 10.3031 17.6175C10.2747 17.5925 10.2513 17.5658 10.2263 17.5367C10.1862 17.49 10.1528 17.44 10.1228 17.3833C10.1044 17.3483 10.0869 17.3142 10.0735 17.2758C10.066 17.2558 10.0526 17.24 10.0468 17.2192L6.63287 4.66C6.49094 4.14 5.87227 3.66667 5.33293 3.66667H2.83323C2.37237 3.66667 2 3.29333 2 2.83333C2 2.37333 2.37237 2 2.83323 2H5.33293C6.62536 2 7.90276 2.97667 8.24089 4.22333L9.22273 7.83333H21.1668C21.4307 7.83333 21.6786 7.95833 21.8356 8.17C21.9926 8.38167 22.041 8.655 21.9642 8.9075ZM9.67527 9.5L11.4878 16.1667H18.0318L20.0448 9.5H9.67527ZM12.0004 18.6667C12.9197 18.6667 13.6669 19.4142 13.6669 20.3333C13.6669 21.2525 12.9197 22 12.0004 22C11.0812 22 10.3331 21.2525 10.3331 20.3333C10.3331 19.4142 11.0812 18.6667 12.0004 18.6667ZM17.833 18.6667C18.7523 18.6667 19.5003 19.4142 19.5003 20.3333C19.5003 21.2525 18.7523 22 17.833 22C16.9146 22 16.1666 21.2525 16.1666 20.3333C16.1666 19.4142 16.9146 18.6667 17.833 18.6667Z" fill="#6B7084"/>
</svg>
