<svg width="24" height="24" viewBox="0 0 24 24" fill="none" xmlns="http://www.w3.org/2000/svg">
<path fill-rule="evenodd" clip-rule="evenodd" d="M21.9642 8.9075L19.4478 17.2408C19.3426 17.5925 19.0186 17.8333 18.6504 17.8333H10.8508H10.85C10.7464 17.8333 10.6479 17.81 10.5536 17.7733C10.5218 17.7608 10.4951 17.7425 10.4651 17.7267C10.4066 17.6958 10.3532 17.6608 10.3031 17.6175C10.2747 17.5925 10.2513 17.5658 10.2263 17.5367C10.1862 17.49 10.1528 17.4392 10.1228 17.3833C10.1044 17.3483 10.0869 17.3142 10.0735 17.2758C10.066 17.2558 10.0526 17.24 10.0468 17.2192L6.63287 4.66C6.49094 4.14 5.87227 3.66667 5.33376 3.66667H2.83323C2.3732 3.66667 2 3.29333 2 2.83333C2 2.37333 2.3732 2 2.83323 2H5.33376C6.62536 2 7.90276 2.97667 8.24089 4.22333L9.22273 7.83333H10.3332C10.794 7.83333 11.1672 8.20667 11.1672 8.66667C11.1672 9.12667 10.794 9.5 10.3332 9.5H9.67525L11.4878 16.1667H18.0318L20.0581 9.45333C19.7333 9.34 19.5004 9.03083 19.5004 8.66667C19.5004 8.20667 19.8727 7.83333 20.3336 7.83333H21.1668C21.4307 7.83333 21.6786 7.95833 21.8356 8.17C21.9926 8.38167 22.041 8.655 21.9642 8.9075ZM18.4225 11.7558C18.2597 11.9183 18.0468 12 17.833 12C17.6201 12 17.4072 11.9183 17.2444 11.7558L15.3333 9.845L13.4223 11.7558C13.2594 11.9183 13.0465 12 12.8336 12C12.6199 12 12.407 11.9183 12.2442 11.7558C11.9186 11.4308 11.9186 10.9025 12.2442 10.5775L14.1553 8.66667L12.2442 6.75584C11.9186 6.43001 11.9186 5.9025 12.2442 5.5775C12.5698 5.25167 13.0975 5.25167 13.4223 5.5775L15.3333 7.48834L17.2444 5.5775C17.57 5.25167 18.0969 5.25167 18.4225 5.5775C18.7481 5.9025 18.7481 6.43001 18.4225 6.75584L16.5114 8.66667L18.4225 10.5775C18.7481 10.9025 18.7481 11.4308 18.4225 11.7558ZM12.0013 18.6667C12.9197 18.6667 13.6669 19.4142 13.6669 20.3333C13.6669 21.2525 12.9197 22 12.0013 22C11.0812 22 10.3331 21.2525 10.3331 20.3333C10.3331 19.4142 11.0812 18.6667 12.0013 18.6667ZM17.833 18.6667C18.7523 18.6667 19.5003 19.4142 19.5003 20.3333C19.5003 21.2525 18.7523 22 17.833 22C16.9146 22 16.1666 21.2525 16.1666 20.3333C16.1666 19.4142 16.9146 18.6667 17.833 18.6667Z" fill="#6B7084"/>
</svg>
