<svg width="24" height="24" viewBox="0 0 24 24" fill="none" xmlns="http://www.w3.org/2000/svg">
<path fill-rule="evenodd" clip-rule="evenodd" d="M21.1667 17.8333H8.91917C8.91667 17.8333 8.91417 17.8333 8.9125 17.8333C8.80417 17.8333 8.70083 17.81 8.60417 17.7708C8.57167 17.7575 8.54583 17.735 8.515 17.7183C8.45583 17.685 8.39833 17.6525 8.34917 17.6058C8.31917 17.5783 8.2975 17.5442 8.2725 17.5125C8.23417 17.465 8.1975 17.4175 8.17 17.3608C8.15083 17.3208 8.14 17.2775 8.1275 17.2342C8.11583 17.1958 8.095 17.1617 8.08917 17.1208L6.19333 4.16167C6.15417 3.91 5.87 3.66667 5.60833 3.66667H2.83333C2.3725 3.66667 2 3.29333 2 2.83333C2 2.37333 2.3725 2 2.83333 2H5.60833C6.695 2 7.675 2.84083 7.84167 3.91417L9.63333 16.1667H21.1667C21.6275 16.1667 22 16.54 22 17C22 17.46 21.6275 17.8333 21.1667 17.8333ZM20.3333 15.3333H16.1667H11.1667C10.7058 15.3333 10.3333 14.96 10.3333 14.5V6.16667C10.3333 5.70667 10.7058 5.33333 11.1667 5.33333H16.1667C16.6275 5.33333 17 5.70667 17 6.16667V8.66667H19.5C19.9608 8.66667 20.3333 9.04 20.3333 9.5V11.1667C20.7942 11.1667 21.1667 11.54 21.1667 12V14.5C21.1667 14.96 20.7942 15.3333 20.3333 15.3333ZM15.3333 7H12V13.6667H15.3333V12V9.5V7ZM18.6667 10.3333H17V11.1667H18.6667V10.3333ZM17 12.8333V13.6667H19.5V12.8333H17ZM10.3333 18.6667C11.2525 18.6667 12 19.4142 12 20.3333C12 21.2525 11.2525 22 10.3333 22C9.415 22 8.66667 21.2525 8.66667 20.3333C8.66667 19.4142 9.415 18.6667 10.3333 18.6667ZM18.6667 18.6667C19.5858 18.6667 20.3333 19.4142 20.3333 20.3333C20.3333 21.2525 19.5858 22 18.6667 22C17.7483 22 17 21.2525 17 20.3333C17 19.4142 17.7483 18.6667 18.6667 18.6667Z" fill="#6B7084"/>
</svg>
