<svg viewBox="0 0 24 24" fill="none" xmlns="http://www.w3.org/2000/svg">
<path fill-rule="evenodd" clip-rule="evenodd" d="M21.964 8.9075L19.4485 17.2408C19.3424 17.5925 19.0185 17.8333 18.6503 17.8333H10.8516C10.8507 17.8333 10.8507 17.8333 10.8507 17.8333C10.8507 17.8333 10.8507 17.8333 10.8499 17.8333C10.7472 17.8333 10.6478 17.81 10.5543 17.7733C10.5218 17.7608 10.4951 17.7425 10.465 17.7267C10.4074 17.6958 10.3531 17.6608 10.3039 17.6175C10.2755 17.5925 10.2513 17.5658 10.2262 17.5367C10.1861 17.49 10.1527 17.44 10.1235 17.3842C10.1043 17.3483 10.0868 17.3142 10.0734 17.2758C10.0659 17.2558 10.0526 17.2392 10.0467 17.2183L6.63367 4.66C6.49173 4.14 5.87224 3.66667 5.33373 3.66667H2.83322C2.3732 3.66667 2 3.29333 2 2.83333C2 2.37333 2.3732 2 2.83322 2H5.33373C6.62615 2 7.90271 2.97667 8.24167 4.22333L9.22267 7.83333H12.0004C12.4612 7.83333 12.8336 8.20667 12.8336 8.66667C12.8336 9.12667 12.4612 9.5 12.0004 9.5H9.67602L11.4877 16.1667H18.0325L20.0446 9.5H18.667C18.2061 9.5 17.8338 9.12667 17.8338 8.66667C17.8338 8.20667 18.2061 7.83333 18.667 7.83333H21.1667C21.4305 7.83333 21.6785 7.95833 21.8354 8.17C21.9932 8.38167 22.0408 8.655 21.964 8.9075ZM18.4224 10.5775C18.748 10.9025 18.748 11.4308 18.4224 11.7558L15.9235 14.255C15.8467 14.3325 15.7541 14.3933 15.6522 14.4358C15.5503 14.4783 15.4418 14.5 15.3333 14.5C15.2247 14.5 15.117 14.4783 15.0152 14.4358C14.9125 14.3933 14.8206 14.3325 14.7438 14.255L12.2442 11.7558C11.9185 11.4308 11.9185 10.9025 12.2442 10.5775C12.5698 10.2517 13.0974 10.2517 13.423 10.5775L14.5 11.655V7C14.5 6.54 14.8732 6.16667 15.3333 6.16667C15.7941 6.16667 16.1665 6.54 16.1665 7V11.655L17.2443 10.5775C17.5699 10.2517 18.0976 10.2517 18.4224 10.5775ZM12.0012 18.6667C12.9196 18.6667 13.6668 19.4142 13.6668 20.3333C13.6668 21.2525 12.9196 22 12.0012 22C11.0812 22 10.3339 21.2525 10.3339 20.3333C10.3339 19.4142 11.0812 18.6667 12.0012 18.6667ZM17.8338 18.6667C18.7522 18.6667 19.5002 19.4142 19.5002 20.3333C19.5002 21.2525 18.7522 22 17.8338 22C16.9146 22 16.1665 21.2525 16.1665 20.3333C16.1665 19.4142 16.9146 18.6667 17.8338 18.6667Z" fill="currentColor"/>
</svg>