<svg width="24" height="24" viewBox="0 0 24 24" fill="none" xmlns="http://www.w3.org/2000/svg">
<path fill-rule="evenodd" clip-rule="evenodd" d="M21.964 8.9075L19.4485 17.2408C19.3424 17.5925 19.0185 17.8333 18.6503 17.8333H10.8516C10.8507 17.8333 10.8507 17.8333 10.8507 17.8333C10.7472 17.8333 10.6478 17.81 10.5543 17.7733C10.5218 17.7608 10.4951 17.7425 10.465 17.7267C10.4074 17.6958 10.3531 17.6608 10.3039 17.6175C10.2755 17.5925 10.2513 17.5658 10.2262 17.5367C10.1861 17.49 10.1527 17.4392 10.1235 17.3833C10.1043 17.3483 10.0868 17.3142 10.0734 17.2758C10.0659 17.2558 10.0526 17.24 10.0467 17.2192L6.63367 4.66C6.49173 4.14 5.87224 3.66667 5.33373 3.66667H2.83322C2.3732 3.66667 2 3.29333 2 2.83333C2 2.37333 2.3732 2 2.83322 2H5.33373C6.62615 2 7.90271 2.97667 8.24167 4.22333L9.22267 7.83333H10.3339C10.7939 7.83333 11.1671 8.20667 11.1671 8.66667C11.1671 9.12667 10.7939 9.5 10.3339 9.5H9.67602L11.4877 16.1667H18.0325L20.0588 9.45333C19.734 9.34 19.5002 9.03083 19.5002 8.66667C19.5002 8.20667 19.8726 7.83333 20.3335 7.83333H21.1667C21.4305 7.83333 21.6785 7.95833 21.8354 8.17C21.9932 8.38167 22.0408 8.655 21.964 8.9075ZM17.0006 9.50083H13.6669C13.206 9.50083 12.8336 9.1275 12.8336 8.6675C12.8336 8.2075 13.206 7.83417 13.6669 7.83417H17.0006C17.4606 7.83417 17.8338 8.2075 17.8338 8.6675C17.8338 9.1275 17.4606 9.50083 17.0006 9.50083ZM12.0012 18.6667C12.9196 18.6667 13.6668 19.4142 13.6668 20.3333C13.6668 21.2525 12.9196 22 12.0012 22C11.0812 22 10.3339 21.2525 10.3339 20.3333C10.3339 19.4142 11.0812 18.6667 12.0012 18.6667ZM17.8337 18.6667C18.7521 18.6667 19.5002 19.4142 19.5002 20.3333C19.5002 21.2525 18.7521 22 17.8337 22C16.9145 22 16.1665 21.2525 16.1665 20.3333C16.1665 19.4142 16.9145 18.6667 17.8337 18.6667Z" fill="#6B7084"/>
</svg>
