<svg viewBox="0 0 24 24" fill="none" xmlns="http://www.w3.org/2000/svg">
<path fill-rule="evenodd" clip-rule="evenodd" d="M21.9642 8.9075L19.4479 17.2408C19.3416 17.5925 19.0185 17.8333 18.6502 17.8333H10.8512H10.8504C10.7466 17.8333 10.6478 17.81 10.554 17.7733C10.5214 17.7608 10.4946 17.7425 10.4653 17.7267C10.4067 17.6958 10.3532 17.6608 10.3038 17.6175C10.2753 17.5925 10.251 17.5658 10.2268 17.5367C10.1857 17.49 10.1523 17.4392 10.123 17.3833C10.1045 17.3483 10.087 17.3142 10.0736 17.2758C10.066 17.2558 10.0526 17.24 10.0468 17.2192L6.6332 4.66C6.49173 4.14 5.8723 3.66667 5.33322 3.66667H2.83372C2.37333 3.66667 2 3.29333 2 2.83333C2 2.37333 2.37333 2 2.83372 2H5.33322C6.62566 2 7.9022 2.97667 8.24122 4.22333L11.4874 16.1667H18.0316L20.3687 8.42583C20.5018 7.985 20.9647 7.73667 21.4075 7.86833C21.8478 8.00167 22.0973 8.46667 21.9642 8.9075ZM15.1403 11.7C14.9897 11.88 14.772 11.9883 14.5377 11.9992C14.5251 12 14.5117 12 14.5 12C14.2798 12 14.0672 11.9125 13.9107 11.7558L11.4112 9.25584C11.0856 8.93084 11.0856 8.4025 11.4112 8.0775C11.736 7.7525 12.2633 7.7525 12.589 8.0775L14.4439 9.93167L18.0257 5.63334C18.3212 5.28 18.8452 5.23084 19.2002 5.52667C19.5534 5.82084 19.6019 6.34667 19.3073 6.7L15.1403 11.7ZM12.0005 18.6667C12.9196 18.6667 13.6663 19.4142 13.6663 20.3333C13.6663 21.2525 12.9196 22 12.0005 22C11.0814 22 10.333 21.2525 10.333 20.3333C10.333 19.4142 11.0814 18.6667 12.0005 18.6667ZM17.8333 18.6667C18.7524 18.6667 19.4999 19.4142 19.4999 20.3333C19.4999 21.2525 18.7524 22 17.8333 22C16.9142 22 16.1667 21.2525 16.1667 20.3333C16.1667 19.4142 16.9142 18.6667 17.8333 18.6667Z" fill="currentColor"/>
</svg>