<svg viewBox="0 0 24 24" fill="none" xmlns="http://www.w3.org/2000/svg">
<path fill-rule="evenodd" clip-rule="evenodd" d="M21.9645 8.9075L19.4481 17.2408C19.3421 17.5925 19.0181 17.8333 18.6508 17.8333H10.851C10.851 17.8333 10.851 17.8333 10.8501 17.8333C10.7466 17.8333 10.6481 17.81 10.5537 17.7733C10.522 17.7608 10.4944 17.7425 10.4652 17.7267C10.4068 17.6958 10.3525 17.6608 10.3033 17.6175C10.2749 17.5925 10.2507 17.5658 10.2264 17.5367C10.1855 17.49 10.1521 17.4392 10.1229 17.3833C10.1037 17.3483 10.087 17.3142 10.0728 17.2758C10.0661 17.2558 10.0528 17.24 10.0469 17.2192L6.63296 4.66C6.49102 4.14 5.87151 3.66667 5.33299 3.66667H2.83325C2.37237 3.66667 2 3.29333 2 2.83333C2 2.37333 2.37237 2 2.83325 2H5.33299C6.62544 2 7.90203 2.97667 8.24101 4.22333L9.22203 7.83333H10.3333C10.7942 7.83333 11.1666 8.20667 11.1666 8.66667C11.1666 9.12667 10.7942 9.5 10.3333 9.5H9.67539L11.488 16.1667H18.0321L20.0584 9.45333C19.7336 9.34 19.4999 9.03083 19.4999 8.66667C19.4999 8.20667 19.8731 7.83333 20.3331 7.83333H21.1664C21.4302 7.83333 21.679 7.95833 21.836 8.17C21.9929 8.38167 22.0405 8.655 21.9645 8.9075ZM17.8334 9.50083H16.1677V11.1675C16.1677 11.6275 15.7945 12.0008 15.3345 12.0008C14.8736 12.0008 14.5313 11.6267 14.5313 11.1667V9.50083H12.833C12.373 9.50083 11.9998 9.1275 11.9998 8.6675C11.9998 8.2075 12.373 7.83417 12.833 7.83417H14.5313V6.16667C14.5313 5.70667 14.8736 5.33333 15.3345 5.33333C15.7945 5.33333 16.1677 5.70667 16.1677 6.16667V7.83417H17.8334C18.2942 7.83417 18.6666 8.2075 18.6666 8.6675C18.6666 9.1275 18.2942 9.50083 17.8334 9.50083ZM12.0007 18.6667C12.9199 18.6667 13.6663 19.4142 13.6663 20.3333C13.6663 21.2525 12.9199 22 12.0007 22C11.0814 22 10.3333 21.2525 10.3333 20.3333C10.3333 19.4142 11.0814 18.6667 12.0007 18.6667ZM17.8334 18.6667C18.7518 18.6667 19.4999 19.4142 19.4999 20.3333C19.4999 21.2525 18.7518 22 17.8334 22C16.915 22 16.1669 21.2525 16.1669 20.3333C16.1669 19.4142 16.915 18.6667 17.8334 18.6667Z" fill="currentColor"/>
</svg>