<svg width="24" height="24" viewBox="0 0 24 24" fill="none" xmlns="http://www.w3.org/2000/svg">
<path fill-rule="evenodd" clip-rule="evenodd" d="M21.9645 8.9075L19.4481 17.2408C19.3421 17.5925 19.0181 17.8333 18.6508 17.8333H10.851C10.851 17.8333 10.851 17.8333 10.8501 17.8333C10.7466 17.8333 10.6481 17.81 10.5537 17.7733C10.522 17.7608 10.4944 17.7425 10.4652 17.7267C10.4068 17.6958 10.3525 17.6608 10.3033 17.6175C10.2749 17.5925 10.2507 17.5658 10.2264 17.5367C10.1855 17.49 10.1521 17.4392 10.1229 17.3833C10.1037 17.3483 10.087 17.3142 10.0728 17.2758C10.0661 17.2558 10.0528 17.24 10.0469 17.2192L6.63296 4.66C6.49102 4.14 5.87151 3.66667 5.33299 3.66667H2.83325C2.37237 3.66667 2 3.29333 2 2.83333C2 2.37333 2.37237 2 2.83325 2H5.33299C6.62544 2 7.90203 2.97667 8.24101 4.22333L9.22203 7.83333H11.9998C12.4607 7.83333 12.833 8.20667 12.833 8.66667C12.833 9.12667 12.4607 9.5 11.9998 9.5H9.67539L11.488 16.1667H18.0321L20.0442 9.5H18.6666C18.2066 9.5 17.8334 9.12667 17.8334 8.66667C17.8334 8.20667 18.2066 7.83333 18.6666 7.83333H21.1672C21.4302 7.83333 21.679 7.95833 21.836 8.17C21.9929 8.38167 22.0405 8.655 21.9645 8.9075ZM17.8334 7C17.6204 7 17.4067 6.91833 17.2439 6.75583L16.1669 5.67833V10.3333C16.1669 10.7933 15.7936 11.1667 15.3336 11.1667C14.8727 11.1667 14.4995 10.7933 14.4995 10.3333V5.67833L13.4225 6.75583C13.0969 7.08167 12.57 7.08167 12.2444 6.75583C11.9188 6.43 11.9188 5.9025 12.2444 5.5775L14.7425 3.07917C14.8201 3.00167 14.9128 2.94 15.0155 2.8975C15.1165 2.85583 15.2251 2.83333 15.3336 2.83333H15.3344C15.443 2.83417 15.5499 2.85583 15.6517 2.8975C15.7544 2.94 15.8462 3.00167 15.9239 3.07917L18.4228 5.5775C18.7484 5.9025 18.7484 6.43 18.4228 6.75583C18.26 6.91833 18.0463 7 17.8334 7ZM12.0007 18.6667C12.9199 18.6667 13.6663 19.4142 13.6663 20.3333C13.6663 21.2525 12.9199 22 12.0007 22C11.0814 22 10.3333 21.2525 10.3333 20.3333C10.3333 19.4142 11.0814 18.6667 12.0007 18.6667ZM17.8334 18.6667C18.7526 18.6667 19.4999 19.4142 19.4999 20.3333C19.4999 21.2525 18.7526 22 17.8334 22C16.915 22 16.1669 21.2525 16.1669 20.3333C16.1669 19.4142 16.915 18.6667 17.8334 18.6667Z" fill="#6B7084"/>
</svg>
