<svg viewBox="0 0 24 24" fill="none" xmlns="http://www.w3.org/2000/svg">
<path d="M22.0803 12C22.0803 6.47715 17.6032 2 12.0803 2C6.55747 2 2.08032 6.47715 2.08032 12C2.08032 17.5228 6.55747 22 12.0803 22C17.6032 22 22.0803 17.5228 22.0803 12Z" fill="#FF0012"/>
<mask id="mask0_620_19123" style="mask-type:alpha" maskUnits="userSpaceOnUse" x="6" y="5" width="12" height="14">
<path d="M6.08032 5.5H17.0803V18.5H6.08032V5.5Z" fill="white"/>
</mask>
<g mask="url(#mask0_620_19123)">
<path fill-rule="evenodd" clip-rule="evenodd" d="M16.4451 15.5534C16.1401 15.5534 15.8855 15.7749 15.8242 16.0702L13.4258 15.951C13.4328 15.9047 13.4376 15.8576 13.4376 15.8092C13.4376 15.7218 13.4249 15.6376 13.4026 15.5576L14.2734 15.0413C14.3899 15.1875 14.5667 15.2809 14.7647 15.2809C15.1155 15.2809 15.3998 14.9881 15.3998 14.627C15.3998 14.2658 15.1155 13.973 14.7647 13.973C14.4139 13.973 14.1295 14.2658 14.1295 14.627C14.1295 14.7332 14.1546 14.8332 14.1983 14.9219L13.3531 15.423C13.2118 15.1139 12.9076 14.8995 12.5539 14.8995C12.0658 14.8995 11.6701 15.3068 11.6701 15.8092C11.6701 15.9167 11.6891 16.0193 11.7224 16.115L10.1567 16.5093C10.1449 16.2811 10.0523 16.0751 9.90669 15.9219L10.1891 15.5189C10.2526 15.5409 10.3205 15.5534 10.3913 15.5534C10.7421 15.5534 11.0265 15.2606 11.0265 14.8995C11.0265 14.5383 10.7421 14.2455 10.3913 14.2455C10.0405 14.2455 9.75614 14.5383 9.75614 14.8995C9.75614 15.1362 9.87874 15.3429 10.0618 15.4577L9.80191 15.8285C9.65474 15.7157 9.47294 15.6482 9.27534 15.6482C9.23606 15.6482 9.19769 15.6517 9.15978 15.6569L8.88928 14.0702C9.28466 13.9797 9.58051 13.6171 9.58051 13.1827C9.58051 12.6803 9.18486 12.2729 8.6968 12.2729C8.54917 12.2729 8.41031 12.3107 8.28799 12.3766L7.6068 11.0103C7.75219 10.9346 7.87415 10.819 7.95966 10.6772L8.524 10.8307C8.51971 10.8616 8.51669 10.8928 8.51669 10.9249C8.51669 11.286 8.80108 11.5788 9.15188 11.5788C9.50268 11.5788 9.78706 11.286 9.78706 10.9249C9.78706 10.5637 9.50268 10.2709 9.15188 10.2709C8.88046 10.2709 8.64948 10.4465 8.55853 10.6931L8.02507 10.548C8.06855 10.4404 8.09281 10.3224 8.09281 10.1986C8.09281 10.124 8.08313 10.0519 8.06668 9.98253L9.63596 9.23967C9.79803 9.44517 10.0451 9.5768 10.3223 9.5768C10.8103 9.5768 11.206 9.16946 11.206 8.667C11.206 8.48953 11.1559 8.32447 11.0705 8.18448L12.0763 7.17456C12.1959 7.25385 12.335 7.30407 12.4848 7.31602V7.7612C12.1665 7.79666 11.9187 8.07401 11.9187 8.41109C11.9187 8.77224 12.2031 9.06502 12.5539 9.06502C12.9047 9.06502 13.189 8.77224 13.189 8.41109C13.189 8.07401 12.9412 7.79666 12.6229 7.7612V7.31602C12.7521 7.30572 12.8735 7.26739 12.9811 7.20602L14.0822 8.50058C13.9694 8.65336 13.9017 8.8433 13.9017 9.04997C13.9017 9.55244 14.2974 9.95977 14.7855 9.95977C15.2735 9.95977 15.6691 9.55244 15.6691 9.04997C15.6691 8.94191 15.6499 8.83869 15.6163 8.74257L15.9592 8.54379C16.0757 8.68628 16.2501 8.77699 16.4451 8.77699C16.7959 8.77699 17.0803 8.48426 17.0803 8.12311C17.0803 7.76196 16.7959 7.46918 16.4451 7.46918C16.0943 7.46918 15.81 7.76196 15.81 8.12311C15.81 8.23221 15.8363 8.33486 15.8822 8.42529L15.56 8.61203C15.4096 8.33086 15.1192 8.14018 14.7855 8.14018C14.5483 8.14018 14.3333 8.23691 14.1746 8.3935L13.097 7.12646C13.2035 7.04083 13.29 6.93069 13.3493 6.80415L14.2931 6.96587C14.3566 7.25813 14.6095 7.47665 14.9125 7.47665C15.2633 7.47665 15.5477 7.18388 15.5477 6.82272C15.5477 6.46162 15.2633 6.16884 14.9125 6.16884C14.5629 6.16884 14.2794 6.45969 14.2775 6.81915L13.4007 6.66886C13.4244 6.5867 13.4376 6.4999 13.4376 6.40984C13.4376 5.90738 13.0419 5.5 12.5539 5.5C12.0658 5.5 11.6701 5.90738 11.6701 6.40984C11.6701 6.67934 11.7846 6.92068 11.9655 7.08729L10.9875 8.06931C10.8397 7.89513 10.6289 7.77973 10.3913 7.76078V7.07614C10.7096 7.04073 10.9574 6.76338 10.9574 6.42625C10.9574 6.0651 10.6731 5.77237 10.3223 5.77237C9.97146 5.77237 9.68712 6.0651 9.68712 6.42625C9.68712 6.76338 9.93497 7.04073 10.2532 7.07614V7.76078C9.79752 7.79718 9.43855 8.18852 9.43855 8.667C9.43855 8.83234 9.48208 8.98696 9.55699 9.12056L8.02402 9.8463C7.96825 9.70974 7.8811 9.59015 7.77179 9.49709L8.37203 8.38908C8.42356 8.40295 8.47736 8.41109 8.53309 8.41109C8.88389 8.41109 9.16828 8.11836 9.16828 7.75716C9.16828 7.39605 8.88389 7.10327 8.53309 7.10327C8.18229 7.10327 7.8979 7.39605 7.8979 7.75716C7.8979 8.01011 8.03763 8.22906 8.24167 8.33782L7.65773 9.41573C7.52609 9.3356 7.37308 9.28881 7.20909 9.28881C6.72103 9.28881 6.32538 9.69615 6.32538 10.1986C6.32538 10.7011 6.72103 11.1084 7.20909 11.1084C7.30319 11.1084 7.39372 11.0929 7.47882 11.0649L8.17083 12.4529C7.99949 12.584 7.87525 12.7766 7.83099 12.9997L7.33064 12.8474C7.34325 12.796 7.35069 12.7425 7.35069 12.6871C7.35069 12.3259 7.06631 12.0332 6.71551 12.0332C6.36475 12.0332 6.08032 12.3259 6.08032 12.6871C6.08032 13.0482 6.36475 13.341 6.71551 13.341C6.96349 13.341 7.17776 13.1943 7.28236 12.9809L7.81505 13.1431C7.8145 13.1563 7.81308 13.1693 7.81308 13.1827C7.81308 13.5036 7.97487 13.7851 8.2186 13.9471L7.87662 14.4089C7.76476 14.3075 7.61836 14.2455 7.45762 14.2455C7.10682 14.2455 6.82248 14.5383 6.82248 14.8995C6.82248 15.2606 7.10682 15.5534 7.45762 15.5534C7.80842 15.5534 8.09281 15.2606 8.09281 14.8995C8.09281 14.7559 8.04731 14.6236 7.97113 14.5157L8.34161 14.0154C8.45037 14.0647 8.57036 14.0925 8.6968 14.0925C8.71557 14.0925 8.73393 14.0908 8.75243 14.0897L9.02458 15.6859C8.65875 15.7973 8.39167 16.1453 8.39167 16.558C8.39167 17.0604 8.78728 17.4678 9.27534 17.4678C9.56078 17.4678 9.81383 17.3279 9.97539 17.1117L11.2548 17.6982C11.2441 17.7458 11.2379 17.7951 11.2379 17.8461C11.2379 18.2073 11.5222 18.5 11.873 18.5C12.2238 18.5 12.5082 18.2073 12.5082 17.8461C12.5082 17.485 12.2238 17.1922 11.873 17.1922C11.6206 17.1922 11.4033 17.3441 11.3008 17.5637L10.0525 16.9914C10.1061 16.8899 10.1412 16.7766 10.1537 16.6564L11.7792 16.247C11.9295 16.5283 12.22 16.7191 12.5539 16.7191C12.7605 16.7191 12.9501 16.6455 13.1006 16.5232L13.709 17.0636C13.6725 17.146 13.6517 17.2373 13.6517 17.3338C13.6517 17.695 13.9361 17.9878 14.2869 17.9878C14.6377 17.9878 14.922 17.695 14.922 17.3338C14.922 16.9727 14.6377 16.6799 14.2869 16.6799C14.0801 16.6799 13.8969 16.7821 13.7809 16.9397L13.2023 16.4258C13.2876 16.3308 13.3537 16.2175 13.3936 16.0917L15.8102 16.2118C15.8126 16.5708 16.0958 16.8612 16.4451 16.8612C16.7959 16.8612 17.0803 16.5684 17.0803 16.2073C17.0803 15.8461 16.7959 15.5534 16.4451 15.5534Z" fill="white"/>
</g>
</svg>