<svg width="24" height="24" viewBox="0 0 24 24" fill="none" xmlns="http://www.w3.org/2000/svg">
<g clip-path="url(#clip0_1265_22197)">
<path d="M12 24C18.6274 24 24 18.6274 24 12C24 5.37258 18.6274 0 12 0C5.37258 0 0 5.37258 0 12C0 18.6274 5.37258 24 12 24Z" fill="#36B0F3"/>
<path fill-rule="evenodd" clip-rule="evenodd" d="M10.8765 5.12324C11.3448 5.02948 11.8219 4.98905 12.299 5.00253C12.5964 5.00253 12.8938 5.02948 13.1871 5.08281C13.7578 5.16133 14.3081 5.34299 14.8449 5.54691C15.2354 5.72153 15.6446 5.88561 15.9619 6.18212C16.0503 6.24657 16.0028 6.37549 15.9244 6.42647C15.7429 6.54308 15.5246 6.57648 15.3173 6.62219C14.383 6.78275 13.4324 6.85483 12.5145 7.10387C12.1029 7.19646 11.7072 7.34764 11.3156 7.5041C10.5879 7.82991 9.91881 8.30865 9.43469 8.94855C9.34218 9.08394 9.25317 9.22169 9.16775 9.36167C9.09106 9.5111 9.01379 9.66052 8.95115 9.81698C8.90432 9.9289 8.861 10.042 8.82002 10.1557C8.73748 10.3977 8.69709 10.6503 8.63562 10.8987C8.6163 11.0616 8.60518 11.2257 8.57123 11.3868C8.54957 11.756 8.56011 12.1252 8.56303 12.4943C8.56303 12.6174 8.5964 12.7381 8.59816 12.8618C8.59991 12.9754 8.61572 13.0885 8.64616 13.1981C8.7047 13.5058 8.77612 13.8175 8.90666 14.1052C9.07584 14.5136 9.33927 14.8963 9.71392 15.1395C10.0248 15.3704 10.4094 15.4688 10.7864 15.5274C11.2898 15.593 11.8009 15.5333 12.2967 15.443C12.556 15.3961 12.8136 15.3375 13.0694 15.269C13.2316 15.2233 13.3984 15.1928 13.5588 15.1383C13.6203 15.1277 13.6826 15.1218 13.745 15.1207C13.5442 15.3 13.3422 15.4782 13.1151 15.6229C12.3412 16.1222 11.4414 16.3824 10.544 16.5499C10.1383 16.6332 9.72563 16.6824 9.31702 16.7527C8.85163 16.8201 8.36927 16.8758 7.94954 17.1043C7.82426 17.1922 7.72709 17.3117 7.63986 17.436C7.61352 17.4899 7.56376 17.436 7.53449 17.4166C7.43907 17.307 7.31672 17.2268 7.21311 17.1254C7.10258 17.0188 6.99406 16.9102 6.88763 16.7996C6.71728 16.6009 6.54225 16.4052 6.3918 16.1913C6.09208 15.7846 5.82689 15.3493 5.63254 14.8828L5.59859 14.8676C5.574 14.7334 5.50609 14.615 5.46102 14.4879C5.35473 14.2093 5.26864 13.9233 5.20344 13.6323C5.1777 13.5434 5.15756 13.453 5.14315 13.3616C5.1117 13.2588 5.09283 13.1525 5.08695 13.0452C5.02958 12.7932 5.04012 12.533 5.00382 12.2787C5.00382 12.0666 4.98977 11.8527 5.01553 11.6412C5.04363 11.4654 5.03192 11.2855 5.06822 11.1102C5.10393 10.9679 5.0969 10.819 5.14198 10.679C5.19822 10.3656 5.28046 10.0575 5.38784 9.7578C5.42999 9.64763 5.46804 9.53629 5.50727 9.42554C5.53068 9.37456 5.55 9.32241 5.5658 9.26908L5.59683 9.23217C5.63435 9.12212 5.68279 9.01611 5.74142 8.91574C5.79972 8.79354 5.86319 8.67389 5.93168 8.55711C5.95158 8.51551 5.97383 8.47507 5.99724 8.43406C6.36604 7.85569 6.79689 7.30779 7.31555 6.85541C7.95896 6.28211 8.69779 5.82615 9.4985 5.50823C9.94368 5.33306 10.4056 5.20405 10.8771 5.12324H10.8765Z" fill="white"/>
<path fill-rule="evenodd" clip-rule="evenodd" d="M16.2333 6.95676C16.3621 6.88176 16.4505 6.76046 16.5395 6.64502C17.2422 7.24639 17.8194 7.98065 18.238 8.80572C18.6567 9.63079 18.9086 10.5304 18.9793 11.4531C19.05 12.3758 18.9381 13.3034 18.65 14.1828C18.362 15.0621 17.9034 15.8759 17.3005 16.5775C16.2252 17.842 14.6809 18.7011 13.0353 18.929C12.2784 19.0404 11.5074 19.0111 10.7511 18.9073C10.1716 18.8253 9.60491 18.6671 9.06693 18.4356C8.77423 18.3067 8.48329 18.1555 8.2544 17.927C8.19527 17.8754 8.15781 17.7899 8.19703 17.7154C8.25557 17.6246 8.36094 17.5795 8.46046 17.5473C8.74438 17.4652 9.03649 17.4172 9.3286 17.3721C9.85663 17.2801 10.3899 17.2209 10.9139 17.1054C11.7843 16.9173 12.6548 16.6507 13.4076 16.162C13.9193 15.835 14.37 15.4096 14.702 14.8998C15.1785 14.1802 15.3986 13.3182 15.4513 12.4638C15.4776 11.8281 15.463 11.1864 15.3301 10.5617C15.2089 10.0226 14.9964 9.47943 14.5942 9.08682C14.2869 8.77097 13.8683 8.57467 13.4363 8.49966C12.7192 8.36547 11.9869 8.49497 11.2844 8.65319C10.9554 8.73113 10.6311 8.82899 10.2986 8.89344C10.7716 8.44751 11.3506 8.12873 11.9588 7.91075C12.3083 7.78124 12.6712 7.6951 13.0324 7.61014C13.8239 7.432 14.634 7.36402 15.4325 7.2269C15.7112 7.1683 15.9945 7.11205 16.2333 6.95676Z" fill="white"/>
</g>
<defs>
<clipPath id="clip0_1265_22197">
<rect width="24" height="24" fill="white"/>
</clipPath>
</defs>
</svg>
