<svg width="24" height="24" viewBox="0 0 24 24" fill="none" xmlns="http://www.w3.org/2000/svg">
<g clip-path="url(#clip0_1265_22193)">
<path d="M12 24C18.6274 24 24 18.6274 24 12C24 5.37258 18.6274 0 12 0C5.37258 0 0 5.37258 0 12C0 18.6274 5.37258 24 12 24Z" fill="#F70808"/>
<path d="M11.6507 5L10.4887 7.1112C10.3571 7.3408 10.1212 7.3198 9.8846 7.1917L9.0446 6.7668L9.6704 10.0099C9.8027 10.6028 9.3799 10.6028 9.1713 10.3459L7.7027 8.745L7.4647 9.5584C7.4367 9.6655 7.3163 9.7775 7.135 9.7509L5.28 9.3701L5.7665 11.0977C5.8715 11.482 5.9527 11.6409 5.6615 11.7417L5 12.0455L8.1941 14.5739C8.25758 14.6221 8.30531 14.6881 8.33124 14.7635C8.35716 14.8389 8.3601 14.9203 8.3397 14.9974L8.0597 15.892C9.1601 15.7681 10.1457 15.5826 11.2461 15.4678C11.3434 15.458 11.5058 15.6141 11.5051 15.724L11.3602 19H11.895L11.811 15.731C11.8103 15.6211 11.958 15.458 12.0546 15.4678C13.155 15.5826 14.1406 15.7688 15.2403 15.892L14.961 14.9974C14.9405 14.9203 14.9434 14.8389 14.9693 14.7635C14.9953 14.6881 15.043 14.6221 15.1066 14.5739L18.3007 12.0455L17.6392 11.7424C17.348 11.6409 17.4292 11.482 17.5342 11.0977L18.0214 9.3701L16.1657 9.7509C15.9844 9.7775 15.8633 9.6655 15.8367 9.5584L15.598 8.745L14.1301 10.3466C13.9215 10.6028 13.4987 10.6028 13.631 10.0106L14.2575 6.7668L13.4168 7.1917C13.1802 7.3198 12.9443 7.3408 12.8127 7.1112L11.6507 5Z" fill="white"/>
</g>
<defs>
<clipPath id="clip0_1265_22193">
<rect width="24" height="24" fill="white"/>
</clipPath>
</defs>
</svg>
