<svg width="24" height="24" viewBox="0 0 24 24" fill="none" xmlns="http://www.w3.org/2000/svg">
<g clip-path="url(#clip0_1265_22189)">
<path d="M12 24C18.6274 24 24 18.6274 24 12C24 5.37258 18.6274 0 12 0C5.37258 0 0 5.37258 0 12C0 18.6274 5.37258 24 12 24Z" fill="#272731"/>
<path d="M17.318 12.0177C17.318 13.7373 16.6414 15.3859 15.4354 16.602C14.8405 17.203 14.1324 17.6802 13.3521 18.006C12.5717 18.3317 11.7345 18.4996 10.8889 18.5V16.8443C13.2218 16.8514 15.2173 15.156 15.6067 12.8367H13.3081C13.3991 12.5673 13.4458 12.2848 13.4464 12C13.4426 11.7157 13.396 11.4336 13.3081 11.1633H15.6067C15.212 8.84691 13.2195 7.15455 10.8889 7.15573V5.5C14.4391 5.53427 17.3032 8.438 17.318 12.0177ZM13.0315 13.4117H14.8468C14.1755 15.3646 12.2043 16.5435 10.1828 16.2008C8.16187 15.8569 6.68164 14.0924 6.68164 12.0254C6.68164 9.95841 8.16187 8.19455 10.1828 7.85123C12.2043 7.5085 14.1755 8.68736 14.8468 10.6403H13.0315C12.8272 10.3297 12.5628 10.0631 12.2539 9.85618C11.9715 9.67452 11.6559 9.55064 11.3253 9.49173C10.9947 9.43281 10.6557 9.44002 10.3279 9.51294C10.0002 9.58586 9.6901 9.72304 9.41567 9.91655C9.14124 10.1101 8.9079 10.3561 8.72914 10.6403C7.97041 11.8381 8.31846 13.4294 9.50678 14.1946C9.78915 14.3763 10.1047 14.5002 10.4353 14.5592C10.7659 14.6182 11.1048 14.611 11.4326 14.5381C11.7604 14.4653 12.0705 14.3281 12.3449 14.1347C12.6194 13.9412 12.8527 13.6953 13.0315 13.4111V13.4117Z" fill="white"/>
</g>
<defs>
<clipPath id="clip0_1265_22189">
<rect width="24" height="24" fill="white"/>
</clipPath>
</defs>
</svg>
