<svg viewBox="0 0 24 24" fill="none" xmlns="http://www.w3.org/2000/svg">
<g clip-path="url(#clip0_3713_14994)">
<path d="M12 24C18.6274 24 24 18.6274 24 12C24 5.37258 18.6274 0 12 0C5.37258 0 0 5.37258 0 12C0 18.6274 5.37258 24 12 24Z" fill="black"/>
<path d="M10.5952 17.2632C12.7046 17.2632 14.4146 15.5352 14.4146 13.4035C14.4146 11.2719 12.7046 9.54389 10.5952 9.54389C8.48573 9.54389 6.77573 11.2719 6.77573 13.4035C6.77573 15.5352 8.48573 17.2632 10.5952 17.2632ZM10.5952 18.6667C7.71879 18.6667 5.38684 16.3102 5.38684 13.4035C5.38684 10.4969 7.71879 8.14038 10.5952 8.14038C13.4716 8.14038 15.8035 10.4969 15.8035 13.4035C15.8035 16.3102 13.4716 18.6667 10.5952 18.6667Z" fill="#FBCC5C"/>
<path d="M13.373 14.4561C15.4825 14.4561 17.1925 12.7281 17.1925 10.5964C17.1925 8.46476 15.4825 6.73676 13.373 6.73676C11.2636 6.73676 9.55356 8.46476 9.55356 10.5964C9.55356 12.7281 11.2636 14.4561 13.373 14.4561ZM13.373 15.8596C10.4966 15.8596 8.16467 13.5031 8.16467 10.5964C8.16467 7.68974 10.4966 5.33325 13.373 5.33325C16.2494 5.33325 18.5813 7.68974 18.5813 10.5964C18.5813 13.5031 16.2494 15.8596 13.373 15.8596Z" fill="#35D07F"/>
<path d="M13.5438 15.8568C13.9047 15.4148 14.1634 14.8969 14.301 14.341C14.8511 14.202 15.3636 13.9406 15.801 13.5759C15.781 14.2196 15.6438 14.8541 15.3963 15.4475C14.809 15.6978 14.181 15.8365 13.5439 15.8568H13.5438ZM9.66724 9.65858C9.1171 9.79755 8.60463 10.0589 8.16724 10.4236C8.18718 9.77994 8.32438 9.14547 8.57196 8.55205C9.15929 8.30183 9.78724 8.16318 10.4243 8.14307C10.0635 8.58498 9.8048 9.10275 9.66724 9.65858Z" fill="#5EA33B"/>
</g>
<defs>
<clipPath id="clip0_3713_14994">
<rect width="24" height="24" fill="white"/>
</clipPath>
</defs>
</svg>