<svg viewBox="0 0 24 24" fill="none" xmlns="http://www.w3.org/2000/svg">
<path fill-rule="evenodd" clip-rule="evenodd" d="M12 22C6.48583 22 2 17.5133 2 12C2 6.48583 6.48583 2 12 2C17.5142 2 22 6.48583 22 12C22 17.5133 17.5142 22 12 22ZM12 3.66667C7.405 3.66667 3.66667 7.405 3.66667 12C3.66667 16.595 7.405 20.3333 12 20.3333C16.595 20.3333 20.3333 16.595 20.3333 12C20.3333 7.405 16.595 3.66667 12 3.66667ZM14.8875 8.23584C14.9858 8.34834 15.0925 8.44751 15.1817 8.57501C15.4467 8.95167 15.3558 9.47084 14.9792 9.73584C14.7492 9.89667 14.4717 9.91167 14.2258 9.82501L11.9783 15.2183C12.6158 15.44 13.3067 15.1967 13.8183 14.4675C14.0833 14.0908 14.6025 13.9992 14.9792 14.265C15.3558 14.53 15.4467 15.0492 15.1817 15.4258C14.4792 16.4258 13.475 17 12.4292 17C12.4292 17 12.4292 17 12.4283 17C12.0525 17 11.6883 16.9017 11.3358 16.7608L11.1025 17.32C10.9692 17.6408 10.66 17.8333 10.3333 17.8333C10.2258 17.8333 10.1175 17.8133 10.0125 17.7692C9.58751 17.5925 9.38668 17.1042 9.56418 16.68L9.95335 15.7458C9.86085 15.6383 9.76001 15.5458 9.67585 15.4258C8.32668 13.5042 8.32668 10.495 9.67585 8.57501C10.38 7.57417 11.3833 7.00001 12.4283 7.00001C12.7975 7.00001 13.1542 7.09501 13.5008 7.23084L13.7308 6.68001C13.9083 6.25334 14.3975 6.05501 14.8208 6.23084C15.245 6.40751 15.4467 6.89584 15.2692 7.32084L14.8875 8.23584ZM11.04 9.53333C10.2233 10.6958 10.1183 12.555 10.7225 13.9008L12.8592 8.7725C12.2275 8.56333 11.5458 8.8125 11.04 9.53333Z" fill="currentColor"/>
</svg>