<svg width="24" height="24" viewBox="0 0 24 24" fill="none" xmlns="http://www.w3.org/2000/svg">
<path d="M22.0803 12C22.0803 6.47715 17.6032 2 12.0803 2C6.55748 2 2.08032 6.47715 2.08032 12C2.08032 17.5228 6.55748 22 12.0803 22C17.6032 22 22.0803 17.5228 22.0803 12Z" fill="black"/>
<path d="M6.80261 15.3343C6.4163 14.5195 6.20052 13.6106 6.20052 12.652C6.20052 9.14746 9.08422 6.30653 12.6415 6.30653C14.6222 6.30653 16.394 7.1874 17.5755 8.57314L18.2804 7.99047C16.9301 6.40675 14.9051 5.40002 12.6415 5.40002C8.57605 5.40002 5.2804 8.64683 5.2804 12.652C5.2804 13.7475 5.52699 14.7863 5.96849 15.7175L6.80261 15.3343Z" fill="white"/>
<path d="M12.6876 17.3698C10.3192 17.3698 8.39917 15.391 8.39917 12.9501C8.39917 10.5092 10.3192 8.53043 12.6876 8.53043C14.0064 8.53043 15.1859 9.14414 15.9725 10.1093L16.6643 9.51108C15.7121 8.3427 14.284 7.59998 12.6876 7.59998C9.82053 7.59998 7.49634 9.99531 7.49634 12.9501C7.49634 15.9049 9.82053 18.3003 12.6876 18.3003V17.3698Z" fill="white"/>
<path d="M14.4548 14.2855C14.0709 14.7223 13.4953 15 12.8517 15C11.6958 15 10.7588 14.1046 10.7588 13C10.7588 11.8954 11.6958 11 12.8517 11C13.4953 11 14.0709 11.2777 14.4548 11.7145L15.2564 11.0717C14.6805 10.4166 13.8171 10 12.8517 10C11.1179 10 9.7124 11.3431 9.7124 13C9.7124 14.6568 11.1179 16 12.8517 16C13.7364 16 14.5354 15.65 15.106 15.0872L14.4548 14.2855Z" fill="white"/>
</svg>
