<svg viewBox="0 0 24 24" fill="none" xmlns="http://www.w3.org/2000/svg">
<path fill-rule="evenodd" clip-rule="evenodd" d="M17.3118 6.84915C16.9345 7.1139 16.4148 7.02342 16.1492 6.64641C15.9523 6.36658 15.7363 6.12948 15.5179 5.90244L9.91029 18.224C10.7204 19.0291 11.6636 19.4707 12.645 19.4707C12.645 19.4707 12.645 19.4707 12.6458 19.4707C13.9449 19.4707 15.1894 18.7192 16.1492 17.3544C16.4132 16.9782 16.9345 16.8869 17.3118 17.1516C17.6883 17.4164 17.7801 17.9358 17.5153 18.312C16.2336 20.1334 14.5043 21.1371 12.6458 21.1371H12.645C11.3955 21.1371 10.2123 20.6712 9.18462 19.8167L8.41344 21.5116C8.27443 21.819 7.97159 22 7.65385 22C7.53884 22 7.42134 21.9757 7.30881 21.9254C6.88929 21.7344 6.70395 21.2409 6.89509 20.822L7.95256 18.4971C7.92112 18.4536 7.88636 18.4159 7.85492 18.3715C5.38169 14.8586 5.38169 9.14222 7.85492 5.62931C9.11015 3.84563 10.8114 2.86288 12.645 2.86288C13.4062 2.86372 14.1435 3.0405 14.8402 3.36473L15.2382 2.48922C15.4285 2.07116 15.92 1.88349 16.3437 2.07535C16.7632 2.26637 16.9477 2.75983 16.7574 3.17874L16.2518 4.28966C16.7061 4.68343 17.1322 5.14422 17.5153 5.68796C17.7801 6.06413 17.6883 6.58441 17.3118 6.84915ZM12.645 4.52927C11.3707 4.52927 10.1544 5.26067 9.22019 6.58776C7.28315 9.33827 7.15489 13.6613 8.78827 16.6615L14.1385 4.90545C13.6569 4.67924 13.158 4.53011 12.645 4.52927Z" fill="currentColor"/>
</svg>