<svg width="24" height="24" viewBox="0 0 24 24" fill="none" xmlns="http://www.w3.org/2000/svg">
<g clip-path="url(#clip0_1265_22185)">
<path d="M12 24C18.6274 24 24 18.6274 24 12C24 5.37258 18.6274 0 12 0C5.37258 0 0 5.37258 0 12C0 18.6274 5.37258 24 12 24Z" fill="#3089F2"/>
<path d="M16.3768 13.4605C16.0486 13.7428 15.7546 13.994 15.4637 14.2484C15.431 14.2771 15.3983 14.3285 15.3983 14.3697C15.3937 14.8659 15.3952 15.3614 15.3952 15.8747C16.1427 15.5589 16.5331 14.5991 16.3768 13.4605ZM15.4761 10.4295C16.3091 9.93329 16.4079 9.7614 16.411 8.77674C16.411 8.69896 16.4133 8.62196 16.4102 8.54496C16.3744 7.64042 15.7553 6.84164 14.8982 6.65031C14.1282 6.4792 13.352 6.33687 12.5743 6.20543C12.1784 6.13776 11.7731 6.08021 11.3742 6.09343C10.8912 6.10898 10.4968 6.36254 10.1336 6.77631C11.014 6.94042 11.8315 7.1092 12.6544 7.24297C13.7845 7.42653 14.647 7.99352 15.1183 9.07385C15.3011 9.49307 15.3595 9.96829 15.4761 10.4295ZM8.61384 8.08997C7.94496 8.5053 7.61518 9.0684 7.60507 9.7684C7.58226 11.6583 7.58044 13.5484 7.59963 15.4384C7.60741 16.3538 8.21173 17.1386 9.08439 17.3517C9.83105 17.5337 10.5948 17.6457 11.3508 17.7919C11.8299 17.8852 12.3044 18.0268 12.799 17.9039C13.2035 17.8028 13.5644 17.6324 13.849 17.2327C12.9421 17.0623 12.0905 16.8749 11.2303 16.7473C9.75794 16.5288 8.61618 15.2245 8.61462 13.7063C8.61229 11.9703 8.61384 10.2351 8.61384 8.49907V8.08997ZM9.6545 7.81697C9.64517 8.00908 9.63117 8.15219 9.63117 8.2953C9.62883 10.0422 9.62883 11.789 9.63117 13.5359C9.6335 14.6839 10.3273 15.5084 11.4294 15.7012C12.2258 15.8412 13.0191 15.9968 13.814 16.1446C13.8692 16.1547 13.9252 16.1601 13.9812 16.1663C14.3585 16.2083 14.3717 16.2013 14.374 15.8233C14.3779 15.2439 14.3585 14.6645 14.3857 14.0866C14.3935 13.9155 14.4798 13.7 14.6035 13.5904C15.2342 13.028 15.8891 12.4937 16.5354 11.9493C16.7112 11.8015 16.8917 11.7004 17.1281 11.8147C17.3778 11.9353 17.4431 12.1437 17.4392 12.4058C17.4299 13.0623 17.4439 13.7195 17.4237 14.3744C17.3855 15.5581 16.5269 16.7232 15.4248 17.0966C15.3314 17.1252 15.2447 17.1724 15.1699 17.2352C15.0951 17.2979 15.0337 17.3751 14.9892 17.4621C14.3102 18.6677 13.1467 19.1328 11.8999 18.9679C10.8779 18.8318 9.86372 18.6163 8.85417 18.4001C7.55374 18.1217 6.59319 16.9114 6.57219 15.4632C6.54419 13.5141 6.55353 11.5643 6.58697 9.61595C6.60719 8.39797 7.51252 7.26709 8.66051 6.89376C8.78825 6.84649 8.89625 6.7574 8.96695 6.64098C9.73694 5.30477 10.9876 4.76266 12.4739 5.09555C13.2984 5.27988 14.1376 5.40121 14.9667 5.56999C16.4382 5.87021 17.4213 7.08509 17.4408 8.61419C17.4462 9.04896 17.4493 9.48373 17.4252 9.91695C17.4182 10.0546 17.3575 10.2304 17.2595 10.3167C16.5541 10.9389 15.8401 11.5518 15.1082 12.1414C14.9955 12.2324 14.7427 12.2534 14.6167 12.1857C14.493 12.1188 14.3888 11.9018 14.3802 11.7447C14.3499 11.2259 14.4075 10.6994 14.3569 10.1837C14.2558 9.15007 13.5519 8.46719 12.491 8.29063C11.6479 8.15063 10.8064 7.99897 9.96405 7.8543C9.87383 7.83875 9.78205 7.83175 9.6545 7.81697Z" fill="white"/>
</g>
<defs>
<clipPath id="clip0_1265_22185">
<rect width="24" height="24" fill="white"/>
</clipPath>
</defs>
</svg>
