<svg width="24" height="24" viewBox="0 0 24 24" fill="none" xmlns="http://www.w3.org/2000/svg">
<g clip-path="url(#clip0_620_19062)">
<path d="M3.22631 8.1355C3.21056 8.17534 3.19573 8.21518 3.18091 8.25595L3.20222 8.24576L3.22631 8.1355Z" fill="black"/>
<path d="M12.2778 17.6666H12.4251H12.8995L12.5873 17.1265L12.2778 17.6629V17.6666Z" fill="#19A6F2"/>
<path d="M11.8479 19.4697C11.6477 19.4697 11.4495 19.4585 11.254 19.4391L9.90125 21.7813C10.5396 21.927 11.1922 22.0004 11.8469 22H15.3983L13.9372 19.4697H11.8479Z" fill="#19A6F2"/>
<path d="M18.1768 15.3011L12.587 17.1301L12.8993 17.6703H16.1607L16.143 17.6536L18.6771 15.3011H18.1768Z" fill="#18C1F3"/>
<path d="M13.9379 19.4696L15.399 21.9999H17.3706L18.3111 19.4696H13.9379Z" fill="#18C1F3"/>
<path d="M18.8838 17.6701H18.9764L19.0265 17.5358L18.8838 17.6701Z" fill="#18C1F3"/>
<path d="M11.4131 15.0973C10.3068 14.634 9.51652 13.4388 9.51652 12.0398C9.51652 11.9675 9.51652 11.8952 9.523 11.8248L8.57516 10.1812L7.96643 15.3271L7.95068 15.4624L8.10356 15.517L12.5833 17.1301L11.4131 15.0973Z" fill="#17B8F3"/>
<path d="M8.1073 15.5172C8.59498 16.1669 9.22341 16.6978 9.94549 17.0701C10.6676 17.4424 11.4645 17.6464 12.2767 17.6668L12.5871 17.1303L8.1073 15.5172Z" fill="#18C2F2"/>
<path d="M8.15662 18.267L8.37342 21.2837C8.86644 21.4959 9.37786 21.6624 9.90126 21.7813L11.254 19.439C10.1361 19.3288 9.06743 18.9244 8.15662 18.267Z" fill="#18C2F2"/>
<path d="M18.1766 15.3011H12.4247C12.0773 15.3009 11.7334 15.2316 11.413 15.0973L12.5869 17.1301L18.1766 15.3011Z" fill="#18F2F2"/>
<path d="M9.52328 11.8211C9.54561 11.4192 9.63648 11.024 9.79197 10.6528L8.57544 10.1812L9.52328 11.8211Z" fill="#18F2F2"/>
<path d="M11.2935 12.0501C11.2979 12.3851 11.4344 12.7048 11.6734 12.9396C11.9123 13.1743 12.2343 13.3052 12.5693 13.3037H16.583L11.514 11.3284C11.3683 11.5407 11.2913 11.7926 11.2935 12.0501Z" fill="#18F2F2"/>
<path d="M9.79197 10.6557C9.88063 10.4433 9.99085 10.2406 10.1209 10.0507L8.57544 10.1813L9.79197 10.6557Z" fill="#18D1F4"/>
<path d="M18.0536 10.7733H12.5584C12.3524 10.7749 12.1499 10.8264 11.968 10.9231C11.7862 11.0199 11.6305 11.1593 11.5142 11.3292L16.5832 13.3037H19.3804L18.0536 10.7733Z" fill="#18D1F4"/>
<path d="M17.3707 21.9999H21.4354V19.4696H18.3112L17.3707 21.9999Z" fill="#19DEF3"/>
<path d="M19.0294 17.536L18.9794 17.6704H21.4356V16.3732L20.9455 15.7524L19.0294 17.536Z" fill="#19DEF3"/>
<path d="M21.4353 16.3768V15.3011L20.9452 15.7561L21.4353 16.3768Z" fill="#19A7F3"/>
<path d="M2.55371 13.0728C2.62031 13.7406 2.75062 14.4006 2.94285 15.0436L4.06117 13.0562L2.55371 13.0728Z" fill="#19D1F3"/>
<path d="M5.25109 13.7909L4.06143 13.0562L2.94312 15.0436C3.22194 15.9771 3.63218 16.8662 4.1615 17.6842L6.35829 16.3972C5.83347 15.6032 5.45823 14.7199 5.25109 13.7909Z" fill="#02C1E9"/>
<path d="M3.2022 8.24585L3.18089 8.25604C2.72856 9.45241 2.4978 10.7211 2.49989 12.0001C2.49989 12.1123 2.49989 12.2234 2.50545 12.3346L4.06109 13.0564L3.2022 8.24585Z" fill="#18A8F2"/>
<path d="M2.50549 12.3345C2.51291 12.5828 2.52958 12.8292 2.55367 13.0757L4.06113 13.059L2.50549 12.3345Z" fill="#18F2F2"/>
<path d="M4.06116 13.0564L5.25082 13.7911C5.11811 13.2034 5.0513 12.6027 5.05162 12.0001C5.0522 11.7086 5.06828 11.4172 5.0998 11.1273L3.20227 8.24585L4.06116 13.0564Z" fill="#18C2F3"/>
<path d="M7.4252 9.76697C7.11597 10.4843 6.95825 11.2577 6.96193 12.0388C6.95375 13.2116 7.30419 14.359 7.96629 15.3271L8.57502 10.1811L7.4252 9.76697Z" fill="#18E9F3"/>
<path d="M5.0998 11.1273C5.17207 10.4346 5.33466 9.75434 5.58344 9.10381L3.20227 8.24585L5.0998 11.1273Z" fill="#18E9F3"/>
<path d="M6.35793 16.3973L4.16113 17.6843C5.17827 19.2743 6.64405 20.5269 8.37312 21.2838L8.15631 18.2671C7.44864 17.7578 6.8393 17.1243 6.35793 16.3973Z" fill="#19E0F3"/>
<path d="M18.6125 8.77566L18.3123 8.51624L18.0436 8.77566H18.6125Z" fill="#19DFF3"/>
<path d="M19.3756 13.3037H19.9834L19.7833 10.7733H18.0535L19.3756 13.3037Z" fill="#19DFF3"/>
<path d="M20.027 13.3037L21.4937 12.127L20.09 10.7733H19.7833L19.9835 13.3037H20.027Z" fill="#18C3F3"/>
<path d="M21.3708 8.77574V7.0033L19.6901 7.32387L21.3708 8.77574Z" fill="#18C3F3"/>
<path d="M17.8805 4.53034L16.4212 2H15.314L15.0166 4.53034H17.8805Z" fill="#19E0F4"/>
<path d="M18.819 6.56775L19.2971 6.98191L19.0589 6.56775H18.819Z" fill="#19E0F4"/>
<path d="M18.0433 8.77557L18.312 8.51614L16.0605 6.57043H15.4611L16.9185 8.77835L18.0433 8.77557Z" fill="#18F3E8"/>
<path d="M21.3705 4.53034V4.005L18.0999 2H16.421L17.8803 4.53034H21.3705Z" fill="#19F3E7"/>
<path d="M21.3704 7.00322V6.56775H19.0587L19.2968 6.98191L19.6897 7.32101L21.3704 7.00322Z" fill="#19F3E7"/>
<path d="M21.3705 2H18.0999L21.3705 4.005V2Z" fill="#18CAF2"/>
<path d="M9.39694 7.44238C8.52386 8.00474 7.8376 8.81388 7.42529 9.76703L8.57511 10.1812L9.39694 7.44238Z" fill="#18A7F3"/>
<path d="M3.20227 8.24564L5.58344 9.1036C6.40713 6.95962 8.11657 5.3243 10.205 4.74893L10.3958 4.11426L3.20227 8.24564Z" fill="#18A7F3"/>
<path d="M13.6454 6.56773H12.4252C11.3526 6.56108 10.3011 6.86484 9.39727 7.44238L8.57544 10.1812L13.6454 6.56773Z" fill="#18C9F3"/>
<path d="M10.2049 4.75259C10.6585 4.62826 11.1248 4.55614 11.5947 4.53764L10.3902 4.11792L10.1993 4.75259H10.2049Z" fill="#18C9F3"/>
<path d="M10.0503 2.1853C9.29466 2.3438 8.56298 2.60047 7.8739 2.94876L10.3959 4.11804L10.0503 2.1853Z" fill="#18F3E6"/>
<path d="M10.3958 4.11801L7.87382 2.94873C5.79006 4.00034 4.12324 5.85432 3.22636 8.13543L3.20227 8.24568L10.3958 4.11801Z" fill="#009FDC"/>
<path d="M11.5955 4.53776C11.6789 4.53776 11.7632 4.53034 11.8475 4.53034H13.9109L11.7919 2C11.2066 2.0032 10.623 2.06528 10.05 2.18531L10.3956 4.11711L11.6001 4.53683L11.5955 4.53776Z" fill="#17E6F2"/>
<path d="M15.0166 4.53034L15.314 2H11.7932L13.9122 4.52942L15.0166 4.53034Z" fill="#18CFF2"/>
<path d="M10.1209 10.0506C10.6536 9.27599 11.4875 8.77566 12.4252 8.77566H16.9188L15.4614 6.56775H13.6454L8.57544 10.1812L10.1209 10.0506Z" fill="#17E7F2"/>
</g>
<defs>
<clipPath id="clip0_620_19062">
<rect width="18.9929" height="20" fill="white" transform="translate(2.5 2)"/>
</clipPath>
</defs>
</svg>
