<svg width="24" height="24" viewBox="0 0 24 24" fill="none" xmlns="http://www.w3.org/2000/svg">
<g clip-path="url(#clip0_1265_22179)">
<path d="M12 24C18.6274 24 24 18.6274 24 12C24 5.37258 18.6274 0 12 0C5.37258 0 0 5.37258 0 12C0 18.6274 5.37258 24 12 24Z" fill="#00ACED"/>
<path fill-rule="evenodd" clip-rule="evenodd" d="M6 8.49988V10.9964L12.0607 14.4969L15.993 12.2215V14.2519L18.1098 15.5002V8.49988L12.0552 12.0003L6 8.49988Z" fill="white"/>
<path opacity="0.7" fill-rule="evenodd" clip-rule="evenodd" d="M12.0552 5L6 8.49985V15.5002L12.0552 19L18.0927 15.5002L15.952 14.2519L12.0552 16.5034L8.14131 14.2519V9.74813L12.0552 7.49657L15.952 9.74813L18.0927 8.49985L12.0552 5Z" fill="white"/>
</g>
<defs>
<clipPath id="clip0_1265_22179">
<rect width="24" height="24" fill="white"/>
</clipPath>
</defs>
</svg>
