<svg width="24" height="24" viewBox="0 0 24 24" fill="none" xmlns="http://www.w3.org/2000/svg">
<path fill-rule="evenodd" clip-rule="evenodd" d="M21.1662 20.6665C20.7476 20.6665 20.2018 20.4496 19.8511 19.9142C19.1856 20.287 18.2563 20.6665 17.2083 20.6665C15.0568 20.6665 13.6664 19.4702 13.6664 17.6196C13.6664 15.1322 16.1501 13.9996 18.4581 13.9996H19.4995C19.4995 11.4997 18.6146 11.4997 17.8336 11.4997C16.4632 11.4997 16.1886 12.3442 16.1468 12.5134C16.0388 12.9549 15.5934 13.2389 15.1531 13.1375C14.7103 13.0387 14.4265 12.6114 14.5169 12.1674C14.681 11.3598 15.5851 9.83253 17.8336 9.83253C21.1662 9.83253 21.1662 12.9691 21.1662 13.9996V18.583C21.1662 18.867 21.2256 18.9759 21.2449 19.0036C21.6685 19.0429 22 19.399 22 19.833C22 20.2929 21.6266 20.6665 21.1662 20.6665ZM18.4581 15.6667C17.3774 15.6667 15.3331 16.0747 15.3331 17.6196C15.3331 18.5361 15.9643 19.0002 17.2083 19.0002C18.1861 19.0002 19.0692 18.4749 19.4995 18.1708V15.6667H18.4581ZM12.2382 20.6313C11.7987 20.7637 11.3325 20.5124 11.2019 20.0717L9.8859 15.6667H5.00878L3.62919 20.0818C3.51785 20.4387 3.18886 20.6665 2.83392 20.6665C2.75104 20.6665 2.66733 20.654 2.58529 20.6288C2.1458 20.4906 1.90135 20.024 2.03781 19.5841L6.72573 4.58392C6.83456 4.23625 7.15685 4 7.52101 4C7.52268 4 7.52435 4 7.52603 4C7.89269 4.00168 8.21499 4.24379 8.31963 4.59481L12.7983 19.595C12.9305 20.0357 12.6794 20.5007 12.2382 20.6313ZM7.50257 7.68534L5.52946 13.9996H9.38863L7.50257 7.68534Z" fill="#6B7084"/>
</svg>
