<svg width="24" height="24" viewBox="0 0 24 24" fill="none" xmlns="http://www.w3.org/2000/svg">
<path fill-rule="evenodd" clip-rule="evenodd" d="M19.2508 12H14.6667V16.1667C14.6667 16.6275 14.2942 17 13.8333 17H13V21.1667C13 21.6267 12.6275 22 12.1667 22C11.7058 22 11.3333 21.6267 11.3333 21.1667V17H10.5C10.0392 17 9.66667 16.6275 9.66667 16.1667V12H5.0825C3.93417 12 3 11.0517 3 9.885V2.83333C3 2.3725 3.3725 2 3.83333 2C4.29417 2 4.66667 2.3725 4.66667 2.83333V9.885C4.66667 10.1283 4.85667 10.3333 5.0825 10.3333H19.2508C19.4767 10.3333 19.6667 10.1283 19.6667 9.885V2.83333C19.6667 2.3725 20.0392 2 20.5 2C20.9608 2 21.3333 2.3725 21.3333 2.83333V9.885C21.3333 11.0517 20.3992 12 19.2508 12ZM13 12H11.3333V15.3333H13V12ZM12.1917 8.66667C11.7317 8.66667 11.3542 8.29417 11.3542 7.83333C11.3542 7.3725 11.7234 7 12.1834 7H12.1917C12.6517 7 13.025 7.3725 13.025 7.83333C13.025 8.29417 12.6517 8.66667 12.1917 8.66667Z" fill="#6B7084"/>
</svg>
