<svg viewBox="0 0 24 24" fill="none" xmlns="http://www.w3.org/2000/svg">
<g clip-path="url(#clip0_1265_22175)">
<path d="M12 24C18.6274 24 24 18.6274 24 12C24 5.37258 18.6274 0 12 0C5.37258 0 0 5.37258 0 12C0 18.6274 5.37258 24 12 24Z" fill="#1C98F7"/>
<path fill-rule="evenodd" clip-rule="evenodd" d="M12.182 16.7612C12.6394 16.7294 13.0928 16.6554 13.5366 16.5402C14.0842 16.7073 14.6632 16.7451 15.2279 16.6507C15.2502 16.6471 15.2729 16.6454 15.2955 16.6455C15.497 16.6455 15.7615 16.7625 16.147 17.0095V16.6033C16.1471 16.533 16.1658 16.464 16.2014 16.4033C16.2369 16.3427 16.2879 16.2926 16.3491 16.2581C16.5168 16.1632 16.6729 16.054 16.8152 15.9338C17.3768 15.458 17.694 14.8236 17.694 14.1515C17.694 13.9259 17.6582 13.7069 17.5906 13.4976C17.7603 13.181 17.8974 12.8482 17.9982 12.5031C18.3239 12.9912 18.4985 13.5646 18.5 14.1515C18.5 15.0647 18.0749 15.9162 17.3397 16.5389C17.217 16.6428 17.0879 16.7387 16.953 16.8262V17.7759C16.953 18.1028 16.576 18.2907 16.3102 18.0963C16.0588 17.9084 15.7985 17.7327 15.5301 17.5698C15.4533 17.5238 15.3734 17.4832 15.2909 17.4483C15.0699 17.4814 14.8438 17.4983 14.6156 17.4983C13.6978 17.4983 12.8502 17.2234 12.1826 16.7612H12.182ZM7.3291 14.8619C6.1695 13.8785 5.5 12.5388 5.5 11.103C5.5 8.1695 8.2677 5.82495 11.647 5.82495C15.027 5.82495 17.7948 8.1695 17.7948 11.103C17.7948 14.0371 15.0264 16.3816 11.647 16.3816C11.2674 16.3816 10.8917 16.3524 10.5238 16.2939C10.3646 16.3316 9.72825 16.7099 8.8111 17.3794C8.47895 17.6225 8.0077 17.3878 8.0077 16.979V15.3592C7.77019 15.2094 7.54344 15.0433 7.3291 14.8619ZM10.5459 15.2948C10.5739 15.2948 10.6025 15.2968 10.6304 15.3013C10.9619 15.3572 11.3025 15.3858 11.647 15.3858C14.5019 15.3858 16.7866 13.4501 16.7866 11.103C16.7866 8.75645 14.5019 6.82075 11.647 6.82075C8.79355 6.82075 6.5075 8.75645 6.5075 11.103C6.5075 12.2379 7.04115 13.3065 7.98495 14.106C8.2222 14.3062 8.48285 14.4882 8.76235 14.6468C8.919 14.7352 9.01585 14.9003 9.01585 15.0784V16.0124C9.74125 15.5256 10.2183 15.2948 10.5459 15.2948ZM9.0269 12.0994C8.58165 12.0994 8.2209 11.7419 8.2209 11.3025C8.2209 10.8625 8.58165 10.5056 9.0269 10.5056C9.47215 10.5056 9.8329 10.8625 9.8329 11.3025C9.8329 11.7426 9.47215 12.0994 9.0269 12.0994ZM11.647 12.0994C11.2018 12.0994 10.841 11.7419 10.841 11.3025C10.841 10.8625 11.2018 10.5056 11.647 10.5056C12.0923 10.5056 12.4531 10.8625 12.4531 11.3025C12.4531 11.7426 12.0923 12.0994 11.647 12.0994ZM14.2672 12.0994C13.8219 12.0994 13.4612 11.7419 13.4612 11.3025C13.4612 10.8625 13.8219 10.5056 14.2672 10.5056C14.7125 10.5056 15.0732 10.8625 15.0732 11.3025C15.0732 11.7426 14.7125 12.0994 14.2672 12.0994Z" fill="white"/>
</g>
<defs>
<clipPath id="clip0_1265_22175">
<rect width="24" height="24" fill="white"/>
</clipPath>
</defs>
</svg>