<svg viewBox="0 0 24 24" fill="none" xmlns="http://www.w3.org/2000/svg">
<path fill-rule="evenodd" clip-rule="evenodd" d="M12 3.53846C7.32682 3.53846 3.53846 7.32682 3.53846 12C3.53846 16.6732 7.32682 20.4615 12 20.4615C16.6732 20.4615 20.4615 16.6732 20.4615 12C20.4615 7.32682 16.6732 3.53846 12 3.53846ZM2 12C2 6.47715 6.47715 2 12 2C17.5228 2 22 6.47715 22 12C22 17.5228 17.5228 22 12 22C6.47715 22 2 17.5228 2 12ZM15.524 9.06636C15.8697 9.31329 15.9498 9.79371 15.7029 10.1394L11.8567 15.524C11.7253 15.708 11.5196 15.8249 11.2942 15.8435C11.0689 15.8622 10.8467 15.7807 10.6868 15.6209L8.37915 13.3132C8.07875 13.0128 8.07875 12.5257 8.37915 12.2253C8.67955 11.9249 9.1666 11.9249 9.46701 12.2253L11.1326 13.8909L14.451 9.2452C14.6979 8.8995 15.1783 8.81943 15.524 9.06636Z" fill="currentColor"/>
</svg>