<svg viewBox="0 0 24 24" fill="none" xmlns="http://www.w3.org/2000/svg">
<path fill-rule="evenodd" clip-rule="evenodd" d="M4 2C2.89543 2 2 2.89543 2 4V20C2 21.1046 2.89543 22 4 22H20C21.1046 22 22 21.1046 22 20V4C22 2.89543 21.1046 2 20 2H4ZM16.4268 10.6382C16.7612 10.3087 16.765 9.77049 16.4355 9.43617C16.106 9.10184 15.5678 9.09796 15.2334 9.42751L11.0475 13.5536L9.25415 11.7992C8.91857 11.471 8.38042 11.4769 8.05214 11.8125C7.72387 12.148 7.72979 12.6862 8.06537 13.0145L10.4554 15.3525C10.7867 15.6765 11.3164 15.6755 11.6465 15.3502L16.4268 10.6382Z" fill="currentColor"/>
</svg>