<svg width="24" height="24" viewBox="0 0 24 24" fill="none" xmlns="http://www.w3.org/2000/svg">
<path fill-rule="evenodd" clip-rule="evenodd" d="M2 12C2 6.47715 6.47715 2 12 2C17.5228 2 22 6.47715 22 12C22 17.5228 17.5228 22 12 22C6.47715 22 2 17.5228 2 12ZM15.7029 10.1394C15.9498 9.79371 15.8697 9.31329 15.524 9.06636C15.1783 8.81943 14.6979 8.8995 14.451 9.2452L11.1326 13.8909L9.46701 12.2253C9.1666 11.9249 8.67955 11.9249 8.37915 12.2253C8.07875 12.5257 8.07875 13.0128 8.37915 13.3132L10.6868 15.6209C10.8467 15.7807 11.0689 15.8622 11.2942 15.8435C11.5196 15.8249 11.7253 15.708 11.8567 15.524L15.7029 10.1394Z" fill="#6B7084"/>
</svg>
