<svg width="24" height="24" viewBox="0 0 24 24" fill="none" xmlns="http://www.w3.org/2000/svg">
<g clip-path="url(#clip0_1265_22171)">
<path d="M12 24C18.6274 24 24 18.6274 24 12C24 5.37258 18.6274 0 12 0C5.37258 0 0 5.37258 0 12C0 18.6274 5.37258 24 12 24Z" fill="#598182"/>
<path fill-rule="evenodd" clip-rule="evenodd" d="M9.98391 18.5847C10.5756 17.8201 11.1673 17.0555 11.759 16.2909C12.4233 16.3945 13.0777 16.3357 13.7035 16.0641C13.9296 15.9661 14.1319 15.8135 14.3447 15.6847C14.3748 15.6665 14.4028 15.6427 14.4258 15.6252L16.5761 17.7517C16.3976 17.8707 16.2205 17.9995 16.0323 18.1101C15.3038 18.5324 14.5008 18.8105 13.6671 18.929C13.1752 18.998 12.6775 19.0168 12.1818 18.985C11.4345 18.9507 10.6953 18.8161 9.98391 18.5847ZM9.30775 18.3215C9.06882 18.2147 8.83606 18.0946 8.61059 17.9617C7.4583 17.294 6.54871 16.2765 6.01374 15.0569C5.73138 14.4208 5.5457 13.746 5.46288 13.055C5.39788 12.519 5.38335 11.9782 5.41948 11.4395C5.50557 10.0571 5.92625 8.78664 6.7739 7.66881C7.55645 6.63707 8.58399 5.93081 9.79982 5.47794C10.3766 5.25902 10.9807 5.12007 11.5952 5.06496C12.0593 5.02507 12.5283 4.98517 12.9923 5.00547C13.2793 5.01737 13.5614 5.04536 13.8393 5.08946C13.2392 5.96068 12.6391 6.83189 12.039 7.70311C11.4386 7.75342 10.8595 7.94948 10.3521 8.27427C9.42114 8.86504 8.86398 9.71619 8.60219 10.7661C8.49111 11.2085 8.44026 11.6639 8.451 12.1198C8.4573 12.3592 8.4776 12.5937 8.5133 12.8226L8.29771 13.1355C8.12412 13.3875 8.33761 13.7207 8.64629 13.6801L8.72468 13.6703C8.90527 14.1805 9.17896 14.6572 9.55764 15.0947C9.79282 15.3649 10.0553 15.5916 10.3444 15.7736L9.33295 18.2172C9.31906 18.2506 9.31055 18.2861 9.30775 18.3222V18.3215ZM14.5175 5.23365C15.1407 5.39968 15.7314 5.66969 16.2646 6.03231C16.3612 6.0981 16.4494 6.1758 16.5418 6.24789C16.5593 6.26119 16.5775 6.27309 16.5999 6.28849C16.5705 6.32209 16.5537 6.34449 16.5334 6.36409C15.8958 6.99265 15.2567 7.61911 14.6211 8.24977C14.5511 8.31977 14.507 8.33097 14.4223 8.27077C14.1658 8.08842 13.8821 7.94763 13.5817 7.8536L14.4797 5.49124L14.5035 5.43034C14.5274 5.36758 14.5323 5.29917 14.5175 5.23365ZM11.9249 12.8968L8.59799 13.3315L14.1333 5.29385L14.1641 5.30785L12.0257 10.9292L15.928 10.3133L9.69903 18.3698L9.66893 18.3488L11.9249 12.8968Z" fill="white"/>
</g>
<defs>
<clipPath id="clip0_1265_22171">
<rect width="24" height="24" fill="white"/>
</clipPath>
</defs>
</svg>
