<svg viewBox="0 0 24 24" fill="none" xmlns="http://www.w3.org/2000/svg">
<path d="M12 17.9973C15.3137 17.9973 18 15.311 18 11.9973C18 8.6836 15.3137 5.99731 12 5.99731C8.68629 5.99731 6 8.6836 6 11.9973C6 15.311 8.68629 17.9973 12 17.9973Z" fill="white"/>
<path d="M12 6.00001H22.3905C21.3376 4.1757 19.823 2.66076 17.9989 1.60752C16.1748 0.554276 14.1055 -0.000146935 11.9992 2.92099e-08C9.89283 0.000146993 7.82365 0.554858 5.99969 1.60836C4.17573 2.66186 2.66129 4.17701 1.60864 6.00146L6.80393 15L6.80858 14.9988C6.28008 14.0874 6.00118 13.0528 6 11.9993C5.99882 10.9458 6.27539 9.9106 6.80184 8.99805C7.32828 8.0855 8.086 7.32787 8.99861 6.80152C9.91122 6.27517 10.9465 5.99871 12 6.00001Z" fill="url(#paint0_linear_112_5753)"/>
<path d="M12 16.75C14.6233 16.75 16.75 14.6233 16.75 12C16.75 9.37664 14.6233 7.25 12 7.25C9.37664 7.25 7.25 9.37664 7.25 12C7.25 14.6233 9.37664 16.75 12 16.75Z" fill="#1A73E8"/>
<path d="M17.1957 15.0015L12.0004 24C14.1067 24.0003 16.176 23.446 18.0002 22.3929C19.8244 21.3398 21.3391 19.825 22.3921 18.0007C23.4452 16.1765 23.9994 14.1072 23.999 12.0009C23.9986 9.89454 23.4437 7.82543 22.39 6.00159H11.9995L11.9982 6.00624C13.0517 6.0042 14.0872 6.27995 15.0001 6.80568C15.9131 7.3314 16.6714 8.08853 17.1984 9.00072C17.7255 9.91292 18.0028 10.9479 18.0023 12.0015C18.0018 13.055 17.7236 14.0898 17.1957 15.0015Z" fill="url(#paint1_linear_112_5753)"/>
<path d="M6.8043 15.0016L1.60901 6.00305C0.555575 7.82705 0.000932998 9.89625 0.000854501 12.0026C0.000776003 14.1089 0.555264 16.1782 1.60856 18.0023C2.66186 19.8263 4.17685 21.3409 6.00118 22.3938C7.82552 23.4466 9.89489 24.0006 12.0012 24L17.1965 15.0015L17.1932 14.9981C16.6682 15.9115 15.9116 16.6703 14.9999 17.1981C14.0881 17.7259 13.0533 18.0039 11.9998 18.0043C10.9462 18.0046 9.91124 17.7273 8.9991 17.2001C8.08697 16.6729 7.32993 15.9146 6.8043 15.0016Z" fill="url(#paint2_linear_112_5753)"/>
<defs>
<linearGradient id="paint0_linear_112_5753" x1="1.60864" y1="7.50001" x2="22.3905" y2="7.50001" gradientUnits="userSpaceOnUse">
<stop stop-color="#D93025"/>
<stop offset="1" stop-color="#EA4335"/>
</linearGradient>
<linearGradient id="paint1_linear_112_5753" x1="10.361" y1="23.8395" x2="20.752" y2="5.84189" gradientUnits="userSpaceOnUse">
<stop stop-color="#FCC934"/>
<stop offset="1" stop-color="#FBBC04"/>
</linearGradient>
<linearGradient id="paint2_linear_112_5753" x1="13.299" y1="23.2508" x2="2.90806" y2="5.25305" gradientUnits="userSpaceOnUse">
<stop stop-color="#1E8E3E"/>
<stop offset="1" stop-color="#34A853"/>
</linearGradient>
</defs>
</svg>