<svg width="24" height="24" viewBox="0 0 24 24" fill="none" xmlns="http://www.w3.org/2000/svg">
<path d="M20.1799 4H3.82012C2.81763 4 2 4.81763 2 5.82012V8.18H3.82012V5.82012H20.1799V18.17H13.82V19.99H20.1799C21.1824 19.99 22 19.1725 22 18.17V5.82012C22 4.81763 21.1824 4 20.1799 4ZM2 17.26V19.99H4.73018C4.73018 18.4827 3.5144 17.26 2 17.26ZM2 13.9964V15.45C4.50978 15.45 6.54319 17.4802 6.54319 19.99H8.36331C8.36331 16.4706 5.51937 13.9964 2 13.9964ZM2 9.99V11.81C6.51475 11.81 10.1763 15.4752 10.1763 19.99H11.9964C11.9964 14.4656 7.51724 9.99 2 9.99Z" fill="#6B7084"/>
</svg>
