<svg width="24" height="24" viewBox="0 0 24 24" fill="none" xmlns="http://www.w3.org/2000/svg">
<g clip-path="url(#clip0_1265_22165)">
<path d="M12 24C18.6274 24 24 18.6274 24 12C24 5.37258 18.6274 0 12 0C5.37258 0 0 5.37258 0 12C0 18.6274 5.37258 24 12 24Z" fill="#0576B4"/>
<path d="M18.0172 13.6769L17.3203 13.2406L18.8406 13.2228L18.8722 13.2057V13.2221L19.5001 13.2156L18.4345 14.9492L18.3391 14.1133L13.4924 16.7874L11.6541 14.3331L6.50073 17.0487V16.43L11.8141 13.6309L13.6517 16.0851L18.0179 13.6769H18.0172ZM11.3619 13.0813L9.34794 14.1416V6.95117H11.3619V13.0813ZM17.057 13.3979L15.043 14.5167V6.95117H17.057V13.3979Z" fill="white"/>
<path opacity="0.5" d="M14.2097 14.9801L13.7773 15.2197L12.1951 13.107V7.77393H14.2091V14.9801H14.2097ZM8.51398 14.5806L6.5 15.6416V8.7072H8.51398V14.5806Z" fill="white"/>
</g>
<defs>
<clipPath id="clip0_1265_22165">
<rect width="24" height="24" fill="white"/>
</clipPath>
</defs>
</svg>
