<svg viewBox="0 0 24 24" fill="none" xmlns="http://www.w3.org/2000/svg">
<g clip-path="url(#clip0_1265_22161)">
<path d="M12 24C18.6274 24 24 18.6274 24 12C24 5.37258 18.6274 0 12 0C5.37258 0 0 5.37258 0 12C0 18.6274 5.37258 24 12 24Z" fill="#20C5D3"/>
<path d="M13.267 6.609V6.5467C13.3909 6.4942 13.6366 6.4445 14.0594 6.5579C14.5431 6.6881 14.9169 7.1739 15.0884 7.4357L15.087 7.6037C15.0786 8.541 14.7804 10.8566 14.2638 12.5926C13.8123 14.1095 12.8274 16.1276 12.6272 16.5308C12.5288 16.5091 12.4292 16.4935 12.329 16.4839C12.4123 15.9722 12.7756 13.693 13.0045 11.6161C13.2474 9.4125 13.2663 7.2271 13.2663 6.6097L13.267 6.609ZM15.2963 7.6058V7.5981C15.4783 7.5939 15.8815 7.6268 16.3414 7.9229C16.7866 8.2092 17.0162 8.7538 17.1114 9.0464L17.0673 9.2193C16.9588 9.6407 16.1552 11.8128 15.2907 13.4501C14.5571 14.8375 13.386 16.3726 13.1305 16.7016C13.0341 16.6557 12.9347 16.6167 12.833 16.5847C13.071 16.1038 14.0209 14.141 14.464 12.6507C14.9862 10.8965 15.2872 8.5543 15.2963 7.6058ZM15.4762 13.5446C16.2994 11.9857 17.131 9.7982 17.2682 9.2767C17.4495 9.3425 17.8387 9.5168 18.0921 9.8626C18.3091 10.158 18.3798 10.5577 18.4029 10.809L18.3182 11.0064C18.1544 11.3865 17.1562 13.1379 16.1503 14.386C15.2795 15.4668 13.9712 16.7492 13.6576 17.053C13.552 16.9583 13.4376 16.8739 13.316 16.801C13.6107 16.4202 14.7531 14.9131 15.4762 13.5446ZM8.50346 7.7682L8.47896 7.5764C8.59306 7.3279 8.84506 6.9135 9.32736 6.693C9.85236 6.4536 10.2605 6.5187 10.4432 6.5719L10.4446 6.6132C10.4586 7.0297 10.5685 9.08 10.8366 11.4999C11.083 13.714 11.4799 16.0688 11.5562 16.5161C11.4512 16.535 11.3483 16.5609 11.2475 16.5931C11.0529 16.1801 10.1863 14.3041 9.60386 12.4246C8.95426 10.3281 8.58186 8.3821 8.50346 7.7682ZM10.6532 6.6062L10.6504 6.5103C10.8422 6.3381 11.2888 6 11.8474 6C12.4046 6 12.861 6.3381 13.0577 6.511V6.609C13.0577 7.2243 13.0388 9.4006 12.7966 11.593C12.5649 13.6958 12.1946 16.0079 12.119 16.4727L12.0644 16.4713C11.9636 16.4713 11.8635 16.4769 11.7634 16.4867C11.6892 16.0562 11.2909 13.6958 11.0445 11.4775C10.7771 9.0639 10.6679 7.0206 10.6532 6.6055V6.6062ZM12.0644 16.6771C13.1963 16.6771 13.7178 17.3638 13.8753 17.6256C13.0178 18.2276 12.3199 18.6 12.0735 18.6C11.8271 18.6 11.2146 18.292 10.2514 17.5955C10.4054 17.347 10.9248 16.6771 12.0644 16.6771ZM18.5051 11.0995C18.6773 11.2115 19.0308 11.5132 18.9979 12.0935C18.9545 12.8579 17.6434 14.3727 15.997 15.905C15.3796 16.4784 14.7274 17.0131 14.044 17.5059C13.9738 17.3965 13.8939 17.2936 13.8053 17.1986C14.1245 16.8899 15.4377 15.6026 16.3141 14.5141C17.3221 13.2639 18.3252 11.5076 18.5051 11.0995ZM5.57396 10.9511C5.52298 10.8245 5.47467 10.6968 5.42906 10.5682C5.42817 10.3415 5.48348 10.118 5.59006 9.9179C5.82946 9.4839 6.43706 9.2851 6.67786 9.2214L6.67926 9.2256L6.70516 9.3166C6.88016 9.9263 7.28896 11.355 8.36556 13.42C9.32666 15.2631 10.3711 16.5371 10.6637 16.878C10.5852 16.9316 10.5104 16.9903 10.4397 17.0537C9.45191 16.1984 8.53669 15.2628 7.70336 14.2565C6.66596 13.0021 5.94986 11.8905 5.57396 10.9511ZM10.292 17.2007C10.215 17.2847 10.145 17.3757 10.082 17.4723C9.47504 17.0197 8.88434 16.5457 8.31096 16.0513C6.20256 14.2488 5.04896 12.9951 5.00276 12.2034C4.96776 11.5993 5.27436 11.2584 5.42276 11.1303C5.81616 12.0662 6.52736 13.1603 7.54096 14.3867C8.37922 15.3984 9.29932 16.3393 10.292 17.2V17.2007ZM6.88086 9.1689C6.85808 9.0911 6.83661 9.01292 6.81646 8.9344C6.87036 8.6782 7.00336 8.2946 7.32886 8.058C7.60832 7.8552 7.94857 7.75372 8.29346 7.7703L8.29696 7.7941C8.37606 8.4136 8.75056 10.3757 9.40436 12.4841C9.98396 14.3538 10.8415 16.22 11.0515 16.6666C10.9802 16.6965 10.9106 16.7302 10.8429 16.7674C10.5874 16.472 9.52756 15.1973 8.55246 13.3262C7.48496 11.2794 7.08036 9.8647 6.90746 9.2606L6.88086 9.1689Z" fill="white"/>
</g>
<defs>
<clipPath id="clip0_1265_22161">
<rect width="24" height="24" fill="white"/>
</clipPath>
</defs>
</svg>