<svg viewBox="0 0 24 24" fill="none" xmlns="http://www.w3.org/2000/svg">
<path fill-rule="evenodd" clip-rule="evenodd" d="M19.1667 22H5.83333C5.37333 22 5 21.6275 5 21.1667V5.33333C5 4.8725 5.37333 4.5 5.83333 4.5H8.95917C9.3375 4.01083 9.85917 3.65167 10.4642 3.49083C10.76 2.62583 11.5567 2 12.5 2C13.4433 2 14.24 2.62583 14.5358 3.49083C15.1408 3.65167 15.6625 4.01083 16.0408 4.5H19.1667C19.6267 4.5 20 4.8725 20 5.33333V21.1667C20 21.6275 19.6267 22 19.1667 22ZM12.5 3.66667C12.2242 3.66667 12 3.91583 12 4.2225C12 4.68333 11.6275 5.05583 11.1667 5.05583C10.5675 5.05583 10.0717 5.5425 10.0067 6.16667H14.9933C14.9283 5.5425 14.4325 5.05583 13.8333 5.05583C13.3725 5.05583 13 4.68333 13 4.2225C13 3.91583 12.7758 3.66667 12.5 3.66667ZM18.3333 6.16667H16.6533C16.655 6.21333 16.6667 6.2575 16.6667 6.305V7C16.6667 7.46083 16.2933 7.83333 15.8333 7.83333H9.16667C8.70667 7.83333 8.33333 7.46083 8.33333 7V6.305C8.33333 6.2575 8.345 6.21333 8.34667 6.16667H6.66667V20.3333H18.3333V6.16667Z" fill="currentColor"/>
</svg>