<svg width="24" height="24" viewBox="0 0 24 24" fill="none" xmlns="http://www.w3.org/2000/svg">
<path fill-rule="evenodd" clip-rule="evenodd" d="M19.1667 22H5.83333C5.37333 22 5 21.6275 5 21.1667V4.5C5 4.03917 5.37333 3.66667 5.83333 3.66667H8.33333V2.83333C8.33333 2.3725 8.70667 2 9.16667 2H15.8333C16.2933 2 16.6667 2.3725 16.6667 2.83333V3.66667H19.1667C19.6267 3.66667 20 4.03917 20 4.5V21.1667C20 21.6275 19.6267 22 19.1667 22ZM15 3.66667H10V4.08333C10 4.31 10.2283 4.5 10.5 4.5H14.5C14.7717 4.5 15 4.31 15 4.08333V3.66667ZM18.3333 5.33333H16.2225C15.8267 5.83667 15.205 6.16667 14.5 6.16667H10.5C9.795 6.16667 9.17333 5.83667 8.7775 5.33333H6.66667V20.3333H18.3333V5.33333ZM10.5892 13.0775L11.6667 14.155L14.4108 11.4108C14.7367 11.0858 15.2633 11.0858 15.5892 11.4108C15.915 11.7367 15.915 12.2642 15.5892 12.5892L12.2558 15.9225C12.0933 16.085 11.88 16.1667 11.6667 16.1667C11.4533 16.1667 11.24 16.085 11.0775 15.9225L9.41084 14.2558C9.085 13.93 9.085 13.4033 9.41084 13.0775C9.73667 12.7517 10.2633 12.7517 10.5892 13.0775Z" fill="#6B7084"/>
</svg>
