<svg width="24" height="24" viewBox="0 0 24 24" fill="none" xmlns="http://www.w3.org/2000/svg">
<g clip-path="url(#clip0_1265_22157)">
<path d="M12 24C18.6274 24 24 18.6274 24 12C24 5.37258 18.6274 0 12 0C5.37258 0 0 5.37258 0 12C0 18.6274 5.37258 24 12 24Z" fill="#FF3A00"/>
<path d="M12.0019 5C15.8627 5.00636 19.0013 8.14745 19 12.0019C18.9987 15.8608 15.8576 19 11.9975 19H11.9911C8.13473 18.9962 4.99809 15.8519 5 11.9911C5.00191 8.13727 8.14364 5 12.0019 5ZM12 5.90236C8.64191 5.90236 5.90873 8.63745 5.90746 11.9987C5.90682 15.3562 8.63618 18.09 11.9924 18.0925C15.3543 18.0925 18.0919 15.3587 18.0945 11.9987C18.0968 11.1982 17.9403 10.4052 17.6339 9.66568C17.3275 8.92614 16.8773 8.25479 16.3095 7.69055C15.7453 7.12236 15.074 6.67175 14.3345 6.3648C13.595 6.05785 12.802 5.90067 12.0013 5.90236H12ZM15.0087 11.3745C15.2245 12.4684 14.947 13.3873 14.1611 14.1853L14.0529 14.2941L13.9155 14.2266C13.8394 14.1894 13.7621 14.1546 13.6838 14.1223L13.3726 13.9925L13.6234 13.7672C14.1127 13.3281 14.373 12.7547 14.3978 12.0636C14.4233 11.3725 14.1783 10.7699 13.6705 10.2729C13.2253 9.83622 12.6261 9.59249 12.0025 9.59455C11.6617 9.59428 11.3248 9.66675 11.0142 9.80711C10.7037 9.94746 10.4266 10.1525 10.2016 10.4085C9.69382 10.9875 9.49973 11.6926 9.64164 12.4467C9.72936 12.9456 9.97841 13.4019 10.3505 13.7455L10.5968 13.974L10.2856 14.0994C10.208 14.1305 10.1265 14.1643 10.0394 14.2012L9.90573 14.2572L9.80391 14.1535C9.28018 13.6138 8.99637 12.9927 8.93718 12.2545C8.81182 10.6986 9.82046 9.32791 11.3363 8.99573C11.5599 8.94625 11.7882 8.92107 12.0172 8.92064C12.7224 8.92132 13.4056 9.1661 13.9509 9.6134C14.4961 10.0607 14.8696 10.683 15.0081 11.3745H15.0087ZM8.16464 15.3772C7.22536 14.3297 6.46364 12.4715 7.14455 10.3983C7.48102 9.37682 8.13112 8.48753 9.00231 7.85696C9.87349 7.22639 10.9214 6.88668 11.9968 6.88618C13.0631 6.88494 14.1031 7.2174 14.971 7.83695C15.8389 8.4565 16.4912 9.3321 16.8364 10.341C17.4384 12.105 17.0196 14.1108 15.7705 15.451L15.6114 15.6209L15.0405 14.9833L15.1665 14.8414C15.948 13.9613 16.3107 12.9176 16.2452 11.7404C16.1841 10.6649 15.7565 9.72818 14.9737 8.95691C14.1834 8.17516 13.1155 7.73835 12.0038 7.74209C10.9827 7.74254 9.99569 8.10948 9.22227 8.77618C8.62301 9.28749 8.17994 9.95729 7.94382 10.7088C7.70392 11.4558 7.67747 12.255 7.86746 13.0163C8.0255 13.6682 8.33756 14.2726 8.77746 14.779L8.90218 14.9235L8.31927 15.5509L8.16464 15.3772Z" fill="white"/>
</g>
<defs>
<clipPath id="clip0_1265_22157">
<rect width="24" height="24" fill="white"/>
</clipPath>
</defs>
</svg>
