<svg width="24" height="24" viewBox="0 0 24 24" fill="none" xmlns="http://www.w3.org/2000/svg">
<path fill-rule="evenodd" clip-rule="evenodd" d="M2 12C2 17.5228 6.47715 22 12 22C17.5228 22 22 17.5228 22 12C22 6.47715 17.5228 2 12 2C6.47715 2 2 6.47715 2 12ZM20.3333 12C20.3333 16.6024 16.6024 20.3333 12 20.3333C7.39763 20.3333 3.66667 16.6024 3.66667 12C3.66667 7.39763 7.39763 3.66667 12 3.66667C16.6024 3.66667 20.3333 7.39763 20.3333 12ZM13.3326 12C13.1975 11.7664 13.0028 11.5717 12.7692 11.4366V8.15384C12.7692 7.72901 12.4248 7.38461 12 7.38461C11.5752 7.38461 11.2308 7.72901 11.2308 8.15384V11.4366C10.7709 11.7026 10.4615 12.1998 10.4615 12.7692C10.4615 13.6189 11.1503 14.3077 12 14.3077C12.5694 14.3077 13.0666 13.9983 13.3326 13.5385H17.3846C17.8094 13.5385 18.1538 13.1941 18.1538 12.7692C18.1538 12.3444 17.8094 12 17.3846 12H13.3326Z" fill="#6B7084"/>
</svg>
