<svg width="24" height="24" viewBox="0 0 24 24" fill="none" xmlns="http://www.w3.org/2000/svg">
<path fill-rule="evenodd" clip-rule="evenodd" d="M5.99211 5.99211C5.66016 6.32406 5.66016 6.86225 5.99211 7.1942L10.7979 12L5.98807 16.8098C5.65612 17.1417 5.65612 17.6799 5.98807 18.0118C6.32001 18.3438 6.85821 18.3438 7.19015 18.0118L12 13.202L16.8057 18.0078C17.1376 18.3397 17.6758 18.3397 18.0078 18.0078C18.3397 17.6758 18.3397 17.1377 18.0078 16.8057L13.202 12L18.0116 7.19034C18.3436 6.8584 18.3436 6.32021 18.0116 5.98826C17.6797 5.65632 17.1415 5.65632 16.8096 5.98826L12 10.7979L7.19419 5.99211C6.86224 5.66017 6.32405 5.66017 5.99211 5.99211Z" fill="#6B7084"/>
</svg>
