<svg width="24" height="24" viewBox="0 0 24 24" fill="none" xmlns="http://www.w3.org/2000/svg">
<path fill-rule="evenodd" clip-rule="evenodd" d="M17.5208 19.1667H6.16667C3.67417 19.1667 2 17.705 2 15.5308C2 13.83 2.96167 12.305 4.45083 11.5525C4.44667 11.4642 4.445 11.3767 4.445 11.2883C4.445 7.82083 7.28583 5 10.7775 5C13.2533 5 15.49 6.44083 16.5192 8.64083C19.5633 8.76667 22 11.265 22 14.3183C22 17.0825 20.0742 19.1667 17.5208 19.1667ZM16.2775 10.3025C16.2042 10.3025 16.1308 10.3075 16.0583 10.3158C15.6733 10.36 15.31 10.1308 15.1808 9.765C14.5258 7.91167 12.7558 6.66667 10.7775 6.66667C8.205 6.66667 6.11167 8.74 6.11167 11.2883C6.11167 11.5008 6.13 11.7167 6.1675 11.9483C6.23333 12.3525 5.99417 12.7458 5.60417 12.8733C4.44583 13.2533 3.66667 14.3217 3.66667 15.5308C3.66667 17.3575 5.58 17.5 6.16667 17.5H17.5208C18.9183 17.5 20.3333 16.4067 20.3333 14.3183C20.3333 12.1033 18.5133 10.3025 16.2775 10.3025ZM14.5 15.8333C14.2867 15.8333 14.0734 15.7517 13.9109 15.5892C13.8942 15.575 13.2659 15 12 15C10.7342 15 10.1059 15.575 10.08 15.5992C9.74671 15.91 9.22254 15.9008 8.90671 15.575C8.59004 15.2475 8.58921 14.7325 8.91087 14.4108C9.02087 14.3 10.0442 13.3333 12 13.3333C13.9559 13.3333 14.9792 14.3 15.0892 14.4108C15.415 14.7367 15.415 15.2642 15.0892 15.5892C14.9267 15.7517 14.7134 15.8333 14.5 15.8333ZM12.8333 10.8333H14.5V12.5H12.8333V10.8333ZM9.5 10.8333H11.1667V12.5H9.5V10.8333Z" fill="#6B7084"/>
</svg>
 20.5825 17.2417 20.425C17.0917 20.2667 17 20.05 17 19.8333C17 19.6167 17.0917 19.4 17.2417 19.2417C17.55 18.9333 18.1083 18.9333 18.425 19.2417Z" fill="#6B7084"/>
</svg>
