<svg width="24" height="24" viewBox="0 0 24 24" fill="none" xmlns="http://www.w3.org/2000/svg">
<path fill-rule="evenodd" clip-rule="evenodd" d="M17.5208 19.1667H6.16667C3.67417 19.1667 2 17.705 2 15.5308C2 13.8292 2.96167 12.305 4.45083 11.5517C4.44667 11.4642 4.445 11.3758 4.445 11.2883C4.445 7.82083 7.28583 5 10.7775 5C13.2533 5 15.49 6.44 16.5192 8.64083C19.5633 8.76667 22 11.2658 22 14.3183C22 17.0825 20.0742 19.1667 17.5208 19.1667ZM10.7775 6.66667C8.205 6.66667 6.11167 8.74 6.11167 11.2883C6.11167 11.5008 6.13 11.7158 6.1675 11.9483C6.23333 12.3525 5.99417 12.7458 5.60417 12.8733C4.44583 13.2533 3.66667 14.3217 3.66667 15.5308C3.66667 17.3575 5.58 17.5 6.16667 17.5H17.5208C18.9183 17.5 20.3333 16.4067 20.3333 14.3183C20.3333 12.1033 18.5133 10.3025 16.2775 10.3025C16.2042 10.3025 16.1308 10.3075 16.0583 10.3158C15.6767 10.3608 15.31 10.13 15.1808 9.765C14.5258 7.91167 12.7558 6.66667 10.7775 6.66667Z" fill="#6B7084"/>
</svg>
