<svg width="24" height="24" viewBox="0 0 24 24" fill="none" xmlns="http://www.w3.org/2000/svg">
<path fill-rule="evenodd" clip-rule="evenodd" d="M21.1667 14C20.7058 14 20.3333 13.6275 20.3333 13.1667C20.3333 11.0008 18.5517 9.3025 16.2775 9.3025C16.2042 9.3025 16.1308 9.3075 16.0583 9.31583C15.6808 9.35583 15.31 9.13083 15.1808 8.765C14.5258 6.91167 12.7558 5.66667 10.7775 5.66667C8.20417 5.66667 6.11167 7.73917 6.11167 10.2875C6.11167 10.5008 6.12917 10.7167 6.1675 10.9483C6.23333 11.3525 5.99417 11.7458 5.60417 11.8733C4.44583 12.2533 3.66667 13.3217 3.66667 14.5308C3.66667 16.0758 4.9375 17.3333 6.5 17.3333H11.1667C11.6275 17.3333 12 17.7067 12 18.1667C12 18.6275 11.6275 19 11.1667 19H6.5C4.01917 19 2 16.995 2 14.5308C2 12.83 2.96083 11.305 4.45083 10.5525C4.4475 10.4633 4.445 10.375 4.445 10.2875C4.445 6.82083 7.28583 4 10.7775 4C13.2533 4 15.4883 5.44083 16.5192 7.64083C19.6117 7.75917 22 10.1433 22 13.1667C22 13.6275 21.6275 14 21.1667 14ZM14.5 16.5C14.9608 16.5 15.3333 16.8725 15.3333 17.3333C15.3333 18.2525 16.0808 19 17 19C17.9183 19 18.6667 18.2525 18.6667 17.3333C18.6667 16.5525 18.1242 15.9 17.3983 15.72L17.5892 15.9108C17.915 16.2367 17.915 16.7642 17.5892 17.0892C17.4267 17.2517 17.2133 17.3333 17 17.3333C16.7867 17.3333 16.5733 17.2517 16.4108 17.0892L14.7442 15.4225C14.4183 15.0967 14.4183 14.57 14.7442 14.2442L16.4108 12.5775C16.7367 12.2517 17.2633 12.2517 17.5892 12.5775C17.915 12.9025 17.915 13.43 17.5892 13.7558L17.3117 14.0333C19.01 14.2 20.3333 15.6067 20.3333 17.3333C20.3333 19.1717 18.8383 20.6667 17 20.6667C15.1617 20.6667 13.6667 19.1717 13.6667 17.3333C13.6667 16.8725 14.0392 16.5 14.5 16.5Z" fill="#6B7084"/>
</svg>
