<svg viewBox="0 0 24 24" fill="none" xmlns="http://www.w3.org/2000/svg">
<path fill-rule="evenodd" clip-rule="evenodd" d="M21.8533 14.6033C21.75 15.0525 21.3042 15.3333 20.8542 15.2283C20.4058 15.1258 20.1258 14.6783 20.2292 14.2292C20.2983 13.93 20.3333 13.6233 20.3333 13.3183C20.3333 11.1042 18.5133 9.3025 16.2775 9.3025C16.2042 9.3025 16.1308 9.3075 16.0583 9.31583C15.675 9.35583 15.31 9.13 15.1808 8.765C14.5258 6.91167 12.7558 5.66667 10.7775 5.66667C8.205 5.66667 6.11167 7.74 6.11167 10.2875C6.11167 10.5008 6.13 10.7158 6.1675 10.9483C6.23333 11.3525 5.99417 11.7458 5.60417 11.8733C4.44583 12.2533 3.66667 13.3208 3.66667 14.5308C3.66667 16.0758 4.9375 17.3333 6.5 17.3333H13.6667C14.1267 17.3333 14.5 17.7058 14.5 18.1667C14.5 18.6275 14.1267 19 13.6667 19H6.5C4.01917 19 2 16.995 2 14.5308C2 12.83 2.96167 11.305 4.45083 10.5517C4.44667 10.4633 4.445 10.375 4.445 10.2875C4.445 6.82083 7.28583 4 10.7775 4C13.2533 4 15.49 5.44 16.5192 7.64083C19.5633 7.76667 22 10.2658 22 13.3183C22 13.7492 21.9508 14.1817 21.8533 14.6033ZM17.0017 12.3333C18.3792 12.3333 19.5 13.455 19.5 14.8333C19.5 15.9183 18.8017 16.8342 17.835 17.1792V17.3333C17.835 17.7942 17.4617 18.1667 17.0017 18.1667C16.5417 18.1667 16.1683 17.7942 16.1683 17.3333V17.0083C16.1683 17.005 16.1667 17.0025 16.1667 17C16.1667 16.9967 16.1683 16.9942 16.1683 16.9917V16.6942C16.1683 16.66 16.1842 16.6308 16.1875 16.5975C16.1842 16.5642 16.1683 16.5342 16.1683 16.5C16.1683 16.0392 16.5417 15.6667 17.0017 15.6667C17.46 15.6667 17.8333 15.2933 17.8333 14.8333C17.8333 14.3733 17.46 14 17.0017 14C16.5417 14 16.1667 14.3733 16.1667 14.8333C16.1667 15.2942 15.7933 15.6667 15.3333 15.6667C14.8733 15.6667 14.5 15.2942 14.5 14.8333C14.5 13.455 15.6225 12.3333 17.0017 12.3333ZM17.5917 19.2417C17.75 19.4 17.8333 19.6167 17.8333 19.8333C17.8333 20.05 17.75 20.2667 17.5917 20.425C17.4333 20.5825 17.2167 20.6667 17 20.6667C16.7833 20.6667 16.5667 20.575 16.4167 20.425C16.2583 20.2667 16.1667 20.05 16.1667 19.8333C16.1667 19.6167 16.2583 19.4 16.4167 19.2417C16.7167 18.9333 17.275 18.9333 17.5917 19.2417Z" fill="currentColor"/>
</svg>