<svg viewBox="0 0 24 24" fill="none" xmlns="http://www.w3.org/2000/svg">
<path fill-rule="evenodd" clip-rule="evenodd" d="M22 15.6667V17.3325H21.0483C20.97 17.6358 20.85 17.9192 20.6942 18.1825L21.3683 18.855L20.1908 20.035L19.515 19.3608C19.2525 19.5158 18.9692 19.6358 18.6675 19.7142L18.6667 20.6667L17 20.665L17.0008 19.7142C16.6975 19.6358 16.4142 19.5158 16.1508 19.36L15.4475 20.0633L14.2692 18.885L14.9725 18.1817C14.8175 17.9183 14.6975 17.635 14.6192 17.3325H13.6667V15.6667H14.6192C14.6975 15.3642 14.8175 15.0808 14.9725 14.8175L14.2975 14.1425L15.4758 12.9642L16.1508 13.6392C16.4142 13.4842 16.6983 13.3642 17.0008 13.285V12.3333H18.6675V13.2858C18.97 13.3642 19.2533 13.4842 19.5158 13.6392L20.1608 12.9933L21.3392 14.1717L20.695 14.8175C20.85 15.0808 20.97 15.3642 21.0483 15.6667H22ZM17.8333 14.8333C16.915 14.8333 16.1675 15.5808 16.1675 16.4992C16.1675 17.4183 16.915 18.1658 17.8333 18.1658C18.7525 18.1658 19.5 17.4183 19.5 16.4992C19.5 15.5808 18.7525 14.8333 17.8333 14.8333ZM19.7708 11.275C19.0433 10.0583 17.705 9.3025 16.2775 9.3025C16.2042 9.3025 16.1308 9.3075 16.0583 9.315C15.6767 9.35583 15.31 9.13 15.1808 8.765C14.5258 6.91167 12.7558 5.66667 10.7775 5.66667C8.205 5.66667 6.11167 7.73917 6.11167 10.2875C6.11167 10.5 6.13 10.7158 6.16667 10.9483C6.23333 11.3525 5.99417 11.7458 5.60417 11.8733C4.44583 12.2533 3.66667 13.3208 3.66667 14.53C3.66667 16.075 4.9375 17.3325 6.5 17.3325H12C12.46 17.3325 12.8333 17.7058 12.8333 18.1658C12.8333 18.6267 12.46 18.9992 12 18.9992H6.5C4.01833 18.9992 2 16.9942 2 14.53C2 12.8292 2.96167 11.3042 4.45083 10.5517C4.44667 10.4633 4.445 10.375 4.445 10.2875C4.445 6.82 7.28583 4 10.7775 4C13.2533 4 15.4892 5.44 16.5192 7.64083C18.4383 7.72333 20.2158 8.77167 21.2008 10.4183C21.4375 10.8142 21.3083 11.3267 20.9133 11.5625C20.5192 11.7975 20.0067 11.67 19.7708 11.275Z" fill="currentColor"/>
</svg>