<svg width="24" height="24" viewBox="0 0 24 24" fill="none" xmlns="http://www.w3.org/2000/svg">
<path fill-rule="evenodd" clip-rule="evenodd" d="M21.1667 14C20.7067 14 20.3333 13.6275 20.3333 13.1667C20.3333 11.0008 18.5517 9.3025 16.2775 9.3025L16.0583 9.31583C15.6742 9.35333 15.31 9.13083 15.1808 8.765C14.5258 6.91167 12.7558 5.66667 10.7775 5.66667C8.205 5.66667 6.11167 7.73917 6.11167 10.2875C6.11167 10.5008 6.13 10.7167 6.1675 10.9483C6.23333 11.3525 5.99417 11.7458 5.60417 11.8733C4.44583 12.2533 3.66667 13.3217 3.66667 14.5308C3.66667 16.0758 4.9375 17.3333 6.5 17.3333H12.8333C13.2933 17.3333 13.6667 17.7067 13.6667 18.1667C13.6667 18.6275 13.2933 19 12.8333 19H6.5C4.01917 19 2 16.995 2 14.5308C2 12.83 2.96167 11.305 4.45083 10.5525C4.44667 10.4633 4.445 10.375 4.445 10.2875C4.445 6.82083 7.28583 4 10.7775 4C13.2533 4 15.4892 5.44083 16.5192 7.64083C19.6117 7.75917 22 10.1433 22 13.1667C22 13.6275 21.6267 14 21.1667 14ZM16.1667 16.5H17.8317V14.8333C17.8317 14.3725 18.205 14 18.665 14C19.125 14 19.4983 14.3725 19.4983 14.8333V16.5H21.1667C21.6267 16.5 22 16.8725 22 17.3333C22 17.7933 21.6267 18.1667 21.1667 18.1667H19.4983V19.8333C19.4983 20.2942 19.125 20.6667 18.665 20.6667C18.205 20.6667 17.8317 20.2942 17.8317 19.8333V18.1667H16.1667C15.7067 18.1667 15.3333 17.7933 15.3333 17.3333C15.3333 16.8725 15.7067 16.5 16.1667 16.5Z" fill="#6B7084"/>
</svg>
