<svg viewBox="0 0 24 24" fill="none" xmlns="http://www.w3.org/2000/svg">
<path fill-rule="evenodd" clip-rule="evenodd" d="M21.4567 12.2758C21.0198 12.44 20.53 12.2258 20.3631 11.795C19.7752 10.2808 18.2582 9.3025 16.4979 9.3025C16.4233 9.3025 16.3495 9.3075 16.2757 9.31583C15.8849 9.35333 15.5151 9.13083 15.3843 8.765C14.7192 6.91167 12.9221 5.66667 10.9136 5.66667C8.3005 5.66667 6.17462 7.73917 6.17462 10.2875C6.17462 10.5008 6.19307 10.7167 6.23164 10.9483C6.29789 11.3525 6.05553 11.7458 5.65971 11.8733C4.48313 12.2533 3.69232 13.3217 3.69232 14.5308C3.69232 16.0758 4.98295 17.3333 6.5696 17.3333H13.0009C13.468 17.3333 13.8471 17.7067 13.8471 18.1667C13.8471 18.6275 13.468 19 13.0009 19H6.5696C4.04957 19 2 16.995 2 14.5308C2 12.83 2.97615 11.305 4.489 10.5525C4.48397 10.4633 4.4823 10.375 4.4823 10.2875C4.4823 6.82083 7.36713 4 10.9136 4C13.4278 4 15.6979 5.44083 16.7437 7.64083C19.106 7.73083 21.1313 9.1075 21.9439 11.2C22.1108 11.63 21.8927 12.1108 21.4567 12.2758ZM15.8245 18.1667L19.7065 14.3408L19.7467 14.3017C20.14 13.9142 20.7748 13.84 21.1682 14.2275C21.5615 14.6142 21.5615 15.2417 21.1682 15.6275L21.1279 15.6667L17.2476 19.4925L17.246 19.4917L15.4756 19.8333L15.8228 18.165L15.8245 18.1667Z" fill="currentColor"/>
</svg>