<svg viewBox="0 0 24 24" fill="none" xmlns="http://www.w3.org/2000/svg">
<path fill-rule="evenodd" clip-rule="evenodd" d="M21.1924 14C20.7279 13.9958 20.3477 13.6517 20.3335 13.1925C20.266 11.0108 18.4848 9.3025 16.2792 9.3025C16.2059 9.3025 16.1325 9.3075 16.0599 9.31583C15.6747 9.35583 15.3111 9.13 15.1827 8.765C14.5273 6.91167 12.7578 5.66667 10.779 5.66667C8.20568 5.66667 6.11182 7.74 6.11182 10.2875C6.11182 10.5008 6.13017 10.7158 6.16769 10.9483C6.23357 11.3525 5.99425 11.7458 5.60483 11.8733C4.44575 12.2533 3.66691 13.3208 3.66691 14.5308C3.66691 16.0758 4.93857 17.3333 6.50124 17.3333H10.3346C10.7949 17.3333 11.1676 17.7058 11.1676 18.1667C11.1676 18.6275 10.7949 19 10.3346 19H6.50124C4.01881 19 2 16.995 2 14.5308C2 12.83 2.96145 11.305 4.45158 10.5517C4.44658 10.4633 4.44491 10.375 4.44491 10.2875C4.44491 6.82083 7.28592 4 10.779 4C13.2548 4 15.4912 5.44 16.5211 7.64083C19.5205 7.7625 21.907 10.135 21.9996 13.1408C22.0138 13.6008 21.6527 13.985 21.1924 14ZM16.1692 13.1667C18.0071 13.1667 19.5022 14.6617 19.5022 16.5C19.5022 17.1167 19.3229 17.6867 19.0302 18.1825L20.0917 19.2442C20.417 19.5692 20.417 20.0967 20.0917 20.4225C19.9283 20.5858 19.7157 20.6667 19.5022 20.6667C19.2887 20.6667 19.0761 20.5858 18.9126 20.4225L17.8511 19.3608C17.3558 19.6542 16.7854 19.8333 16.1692 19.8333C14.3305 19.8333 12.8346 18.3383 12.8346 16.5C12.8346 14.6617 14.3305 13.1667 16.1692 13.1667ZM16.1692 18.1667C17.0881 18.1667 17.8352 17.4192 17.8352 16.5C17.8352 15.5808 17.0881 14.8333 16.1692 14.8333C15.2494 14.8333 14.5014 15.5808 14.5014 16.5C14.5014 17.4192 15.2494 18.1667 16.1692 18.1667Z" fill="currentColor"/>
</svg>