<svg width="24" height="24" viewBox="0 0 24 24" fill="none" xmlns="http://www.w3.org/2000/svg">
<path fill-rule="evenodd" clip-rule="evenodd" d="M17.8333 17.9387C17.3733 17.9387 17 17.557 17 17.0852C17 16.6133 17.3733 16.2317 17.8333 16.2317C18.9892 16.2317 20.3333 14.6207 20.3333 12.5446C20.3333 10.2764 18.5133 8.43164 16.2775 8.43164C16.2042 8.43164 16.1308 8.43665 16.0583 8.445C15.675 8.48509 15.31 8.25459 15.1808 7.88046C14.5258 5.98222 12.7558 4.70699 10.7775 4.70699C8.205 4.70699 6.11167 6.83071 6.11167 9.4413C6.11167 9.65843 6.13 9.87974 6.1675 10.1169C6.23333 10.532 5.99417 10.9345 5.60417 11.0656C4.44583 11.4548 3.66667 12.5488 3.66667 13.7873C3.66667 15.374 4.955 16.2317 6.16667 16.2317C6.62667 16.2317 7 16.6133 7 17.0852C7 17.557 6.62667 17.9387 6.16667 17.9387C4.11833 17.9387 2 16.3862 2 13.7873C2 12.0452 2.96167 10.4827 4.45083 9.71188C4.44667 9.62085 4.445 9.5315 4.445 9.4413C4.445 5.88869 7.28583 3 10.7775 3C13.2533 3 15.49 4.47483 16.5192 6.72882C19.5633 6.85827 22 9.41792 22 12.5446C22 15.4191 20.0533 17.9387 17.8333 17.9387ZM10.0892 16.4814L11.1667 17.5854V11.9625C11.1667 11.4915 11.54 11.109 12 11.109C12.46 11.109 12.8333 11.4915 12.8333 11.9625V17.5854L13.9108 16.4814C14.2367 16.1482 14.7633 16.1482 15.0892 16.4814C15.415 16.8154 15.415 17.3549 15.0892 17.689L12.59 20.2486C12.5133 20.328 12.4208 20.3906 12.3183 20.434C12.2167 20.4775 12.1083 20.5 12 20.5C11.8917 20.5 11.7833 20.4775 11.6817 20.434C11.5792 20.3906 11.4867 20.328 11.41 20.2486L8.91084 17.689C8.585 17.3549 8.585 16.8154 8.91084 16.4814C9.23667 16.1482 9.76334 16.1482 10.0892 16.4814Z" fill="#6B7084"/>
</svg>
