<svg viewBox="0 0 24 24" fill="none" xmlns="http://www.w3.org/2000/svg">
<path fill-rule="evenodd" clip-rule="evenodd" d="M21.1667 14C20.7067 14 20.3333 13.6267 20.3333 13.1667C20.3333 11 18.5517 9.3025 16.2775 9.3025L16.0583 9.31583C15.6725 9.35583 15.31 9.13 15.1808 8.765C14.5258 6.91167 12.7558 5.66667 10.7775 5.66667C8.205 5.66667 6.11167 7.74 6.11167 10.2875C6.11167 10.5008 6.13 10.7158 6.16667 10.9483C6.23333 11.3525 5.99417 11.7458 5.60417 11.8733C4.44583 12.2533 3.66667 13.3208 3.66667 14.5308C3.66667 16.0758 4.9375 17.3333 6.5 17.3333H11.1667C11.6267 17.3333 12 17.7058 12 18.1667C12 18.6275 11.6267 19 11.1667 19H6.5C4.01917 19 2 16.995 2 14.5308C2 12.83 2.96167 11.305 4.45083 10.5517C4.44667 10.4633 4.445 10.375 4.445 10.2875C4.445 6.82083 7.28583 4 10.7775 4C13.2533 4 15.4892 5.44 16.5192 7.64083C19.6117 7.75917 22 10.1433 22 13.1667C22 13.6267 21.6267 14 21.1667 14ZM14.5 15.6667V14.8333C14.5 13.455 15.6208 12.3333 16.9983 12.3333C18.3775 12.3333 19.5 13.455 19.5 14.8333V15.6633C19.5 15.665 19.4992 15.6658 19.4992 15.6667H19.5C19.96 15.6667 20.3333 16.0392 20.3333 16.5V19.8333C20.3333 20.2942 19.96 20.6667 19.5 20.6667H14.5C14.04 20.6667 13.6667 20.2942 13.6667 19.8333V16.5C13.6667 16.0392 14.04 15.6667 14.5 15.6667ZM17.8333 15.6633V14.8333C17.8333 14.3733 17.4583 14 16.9983 14C16.54 14 16.1667 14.3733 16.1667 14.8333V15.6667H17.8342C17.8342 15.6658 17.8333 15.665 17.8333 15.6633ZM15.3333 19H18.6667V17.3333H15.3333V19Z" fill="currentColor"/>
</svg>