<svg viewBox="0 0 24 24" fill="none" xmlns="http://www.w3.org/2000/svg">
<path fill-rule="evenodd" clip-rule="evenodd" d="M17.9117 17.1667C17.4508 17.1667 17.0783 16.7942 17.0783 16.3333C17.0783 15.8725 17.4508 15.5 17.9117 15.5C19.2917 15.5 20.3333 14.0667 20.3333 12.1667C20.3333 10 18.5517 8.30333 16.2775 8.30333C16.2042 8.30333 16.1308 8.3075 16.0583 8.31583C15.6725 8.35667 15.31 8.13083 15.1808 7.765C14.5258 5.91167 12.7558 4.66667 10.7775 4.66667C8.205 4.66667 6.11167 6.74 6.11167 9.28833C6.11167 9.50083 6.13 9.71667 6.1675 9.94833C6.23333 10.3525 5.99417 10.7458 5.60417 10.8733C4.44583 11.2533 3.66667 12.3217 3.66667 13.5308C3.66667 15.2442 5.70583 15.5 6.92167 15.5C7.3825 15.5 7.755 15.8725 7.755 16.3333C7.755 16.7942 7.3825 17.1667 6.92167 17.1667C3.84 17.1667 2 15.8075 2 13.5308C2 11.83 2.96167 10.305 4.45083 9.55167C4.44667 9.46417 4.445 9.37667 4.445 9.28833C4.445 5.82083 7.28583 3 10.7775 3C13.2533 3 15.4892 4.44083 16.5192 6.64083C19.6117 6.75833 22 9.14333 22 12.1667C22 15.0175 20.2425 17.1667 17.9117 17.1667ZM8.25 18C8.41417 18 8.57083 18.0175 8.7225 18.045L8.73167 13.8317C8.7325 13.4617 8.97833 13.1358 9.33333 13.0325L15.1025 11.3658C15.1408 11.355 15.1792 11.3617 15.2175 11.3567C15.2567 11.3508 15.2925 11.3333 15.3333 11.3333C15.3508 11.3333 15.365 11.3417 15.3825 11.3433C15.4392 11.3467 15.4908 11.3608 15.545 11.3758C15.5975 11.39 15.6483 11.4008 15.6958 11.4242C15.7417 11.4467 15.7792 11.4783 15.8208 11.5083C15.8658 11.5417 15.91 11.5725 15.9475 11.6142C15.9808 11.6508 16.0042 11.6942 16.0308 11.7375C16.0617 11.7875 16.0908 11.835 16.1108 11.8917C16.1167 11.9075 16.1292 11.9192 16.1342 11.9358C16.1458 11.975 16.1383 12.0133 16.1433 12.0533C16.1492 12.0917 16.1667 12.1267 16.1667 12.1667V18.0633C16.1667 18.1858 16.1375 18.2992 16.09 18.4042C16.135 18.5417 16.1667 18.685 16.1667 18.8358C16.1667 19.7692 15.2517 20.5 14.0833 20.5C12.915 20.5 12 19.7692 12 18.8358C12 17.9 12.915 17.1667 14.0833 17.1667C14.2267 17.1667 14.3658 17.1783 14.5 17.1992V13.3133L10.3333 14.6667V19.6667C10.3333 19.6667 10.3333 19.6667 10.3333 19.6675C10.3333 19.6675 10.3333 19.6683 10.3333 19.6692C10.3333 20.6025 9.41833 21.3333 8.25 21.3333C7.08167 21.3333 6.16667 20.6025 6.16667 19.6692C6.16667 18.7333 7.08167 18 8.25 18Z" fill="currentColor"/>
</svg>