<svg viewBox="0 0 24 24" fill="none" xmlns="http://www.w3.org/2000/svg">
<path fill-rule="evenodd" clip-rule="evenodd" d="M21.1667 14C20.7067 14 20.3333 13.6275 20.3333 13.1667C20.3333 11.0008 18.5517 9.3025 16.2775 9.3025C16.2042 9.3025 16.1308 9.3075 16.0583 9.31583C15.6758 9.35333 15.31 9.13083 15.1808 8.765C14.5258 6.91167 12.7558 5.66667 10.7775 5.66667C8.205 5.66667 6.11167 7.73917 6.11167 10.2875C6.11167 10.5008 6.13 10.7167 6.16667 10.9483C6.23333 11.3525 5.99417 11.7458 5.60417 11.8733C4.44583 12.2533 3.66667 13.3217 3.66667 14.5308C3.66667 16.0758 4.9375 17.3333 6.5 17.3333H9.5C9.96 17.3333 10.3333 17.7067 10.3333 18.1667C10.3333 18.6275 9.96 19 9.5 19H6.5C4.01917 19 2 16.995 2 14.5308C2 12.83 2.96167 11.305 4.45083 10.5525C4.44667 10.4633 4.445 10.375 4.445 10.2875C4.445 6.82083 7.28583 4 10.7775 4C13.2533 4 15.4892 5.44083 16.5192 7.64083C19.6117 7.75917 22 10.1433 22 13.1667C22 13.6275 21.6267 14 21.1667 14ZM13.4651 16.79L14.9917 18.565L18.0426 15.1158C18.3467 14.7708 18.8734 14.7392 19.2192 15.0433C19.5634 15.3475 19.5959 15.875 19.2909 16.2192L15.6076 20.385C15.4492 20.5642 15.2226 20.6667 14.9834 20.6667C14.9817 20.6667 14.9801 20.6667 14.9776 20.6667C14.7367 20.665 14.5084 20.5592 14.3517 20.3767L12.2017 17.8767C11.9017 17.5275 11.9409 17.0008 12.2901 16.7017C12.6384 16.4 13.1651 16.4417 13.4651 16.79Z" fill="currentColor"/>
</svg>