<svg width="24" height="24" viewBox="0 0 24 24" fill="none" xmlns="http://www.w3.org/2000/svg">
<path fill-rule="evenodd" clip-rule="evenodd" d="M17.1208 16.9908C17.08 16.9975 17.0392 17 16.9992 17C16.5917 17 16.2358 16.7025 16.1758 16.2867C16.1092 15.8325 16.4242 15.4092 16.8792 15.3425C18.8483 15.0542 20.3333 13.3242 20.3333 11.3175C20.3333 9.10333 18.5133 7.3025 16.2775 7.3025C16.2042 7.3025 16.1308 7.3075 16.0583 7.31583C15.6725 7.35917 15.31 7.13 15.1808 6.765C14.5258 4.91167 12.7558 3.66667 10.7775 3.66667C8.205 3.66667 6.11167 5.73917 6.11167 8.2875C6.11167 8.50083 6.13 8.71667 6.16667 8.94833C6.23333 9.3525 5.99417 9.74583 5.60417 9.87333C4.44583 10.2542 3.66667 11.3208 3.66667 12.53C3.66667 14.0758 4.9375 15.3333 6.5 15.3333H7C7.46 15.3333 7.83333 15.7058 7.83333 16.1667C7.83333 16.6275 7.46 17 7 17H6.5C4.01917 17 2 14.995 2 12.53C2 10.83 2.96167 9.305 4.45083 8.55167C4.44667 8.46333 4.445 8.37583 4.445 8.2875C4.445 4.82083 7.28583 2 10.7775 2C13.2533 2 15.4892 3.44083 16.5192 5.64083C19.5633 5.7675 22 8.265 22 11.3175C22 14.145 19.9025 16.5842 17.1208 16.9908ZM9.5 8.66667H14.5C14.96 8.66667 15.3333 9.03917 15.3333 9.5V21.1667C15.3333 21.6267 14.96 22 14.5 22H9.5C9.04 22 8.66667 21.6267 8.66667 21.1667V9.5C8.66667 9.03917 9.04 8.66667 9.5 8.66667ZM10.3333 20.3333H13.6667V10.3333H10.3333V20.3333ZM11.1667 17.8333H12.8333V19.5H11.1667V17.8333ZM11.1667 13.6667H12.8333V15.3333H11.1667V13.6667ZM11.1667 11.1667H12.8333V12.8333H11.1667V11.1667Z" fill="#6B7084"/>
</svg>
