<svg viewBox="0 0 24 24" fill="none" xmlns="http://www.w3.org/2000/svg">
<path fill-rule="evenodd" clip-rule="evenodd" d="M21.8533 13.6042C21.75 14.0517 21.3058 14.3358 20.8542 14.2292C20.4058 14.1258 20.1258 13.6775 20.2292 13.2292C20.2983 12.93 20.3333 12.6233 20.3333 12.3183C20.3333 10.1033 18.5133 8.30333 16.2775 8.30333C16.2042 8.30333 16.1308 8.3075 16.0583 8.31583C15.6767 8.35667 15.31 8.13083 15.1808 7.765C14.5258 5.91167 12.7558 4.66667 10.7775 4.66667C8.205 4.66667 6.11167 6.73917 6.11167 9.2875C6.11167 9.50083 6.13 9.71667 6.1675 9.94833C6.23333 10.3525 5.99417 10.7458 5.60417 10.8733C4.44583 11.2533 3.66667 12.3217 3.66667 13.5308C3.66667 15.0758 4.9375 16.3333 6.5 16.3333H9.5C9.96 16.3333 10.3333 16.7058 10.3333 17.1667C10.3333 17.6275 9.96 18 9.5 18H6.5C4.01917 18 2 15.995 2 13.5308C2 11.83 2.96167 10.305 4.45083 9.55167C4.44667 9.46333 4.445 9.375 4.445 9.2875C4.445 5.82083 7.28583 3 10.7775 3C13.2533 3 15.49 4.44083 16.5192 6.64083C19.5633 6.76667 22 9.26583 22 12.3183C22 12.7492 21.9508 13.1817 21.8533 13.6042ZM12.4475 16.9C12.6075 15.24 14.2017 13.8333 16.0267 13.8333C16.4775 13.8333 16.915 13.9208 17.325 14.0958C17.7492 14.275 17.9467 14.7642 17.7675 15.1883C17.5875 15.6117 17.0992 15.8083 16.675 15.63C16.4708 15.5442 16.2533 15.5 16.0267 15.5C15.1517 15.5 14.3183 16.1217 14.1258 16.8517C14.4383 16.6917 14.8267 16.7317 15.0892 16.9942C15.415 17.32 15.415 17.8467 15.0892 18.1725L13.8392 19.4225C13.6767 19.585 13.4633 19.6667 13.25 19.6667C13.0367 19.6667 12.8233 19.585 12.6608 19.4225L11.4108 18.1725C11.085 17.8467 11.085 17.32 11.4108 16.9942C11.6942 16.7108 12.125 16.6892 12.4475 16.9ZM15.6575 19.5358C15.8625 19.6225 16.0817 19.6667 16.3083 19.6667C17.1825 19.6667 18.015 19.045 18.2083 18.315C17.895 18.475 17.5067 18.435 17.2442 18.1725C16.9183 17.8467 16.9183 17.32 17.2442 16.9942L18.4942 15.7442C18.82 15.4183 19.3467 15.4183 19.6725 15.7442L20.9225 16.9942C21.2483 17.32 21.2483 17.8467 20.9225 18.1725C20.76 18.335 20.5467 18.4167 20.3333 18.4167C20.175 18.4167 20.0233 18.3567 19.8858 18.2667C19.7267 19.9267 18.1325 21.3333 16.3083 21.3333C15.8583 21.3333 15.4208 21.2458 15.0092 21.0717C14.5858 20.8933 14.3867 20.4042 14.5658 19.98C14.7442 19.5558 15.2325 19.3592 15.6575 19.5358Z" fill="currentColor"/>
</svg>