<svg viewBox="0 0 24 24" fill="none" xmlns="http://www.w3.org/2000/svg">
<path fill-rule="evenodd" clip-rule="evenodd" d="M21.1667 14C20.7067 14 20.3333 13.6275 20.3333 13.1667C20.3333 11.0008 18.5517 9.3025 16.2775 9.3025C16.2042 9.3025 16.1308 9.3075 16.0583 9.31583C15.6725 9.35333 15.31 9.13083 15.1808 8.765C14.5258 6.91167 12.7558 5.66667 10.7775 5.66667C8.205 5.66667 6.11167 7.73917 6.11167 10.2875C6.11167 10.5008 6.13 10.7167 6.1675 10.9483C6.23333 11.3525 5.99417 11.7458 5.60417 11.8733C4.44583 12.2533 3.66667 13.3217 3.66667 14.5308C3.66667 16.0758 4.9375 17.3333 6.5 17.3333H10.3333C10.7933 17.3333 11.1667 17.7067 11.1667 18.1667C11.1667 18.6275 10.7933 19 10.3333 19H6.5C4.01917 19 2 16.995 2 14.5308C2 12.83 2.96167 11.305 4.45083 10.5525C4.44667 10.4633 4.445 10.375 4.445 10.2875C4.445 6.82083 7.28583 4 10.7775 4C13.2533 4 15.4892 5.44083 16.5192 7.64083C19.6117 7.75917 22 10.1433 22 13.1667C22 13.6275 21.6267 14 21.1667 14ZM16.1667 15.6658H17.4867L17.2442 15.4225C16.9183 15.0967 16.9183 14.57 17.2442 14.2442C17.57 13.9183 18.0967 13.9183 18.4225 14.2442L20.0892 15.9108C20.415 16.2367 20.415 16.7642 20.0892 17.0892L18.4225 18.7558C18.26 18.9183 18.0467 19 17.8333 19C17.62 19 17.4067 18.9183 17.2442 18.7558C16.9183 18.43 16.9183 17.9025 17.2442 17.5775L17.4892 17.3325H16.1667C14.7883 17.3325 13.6667 18.455 13.6667 19.8333C13.6667 20.2942 13.2933 20.6667 12.8333 20.6667C12.3733 20.6667 12 20.2942 12 19.8333C12 17.535 13.8692 15.6658 16.1667 15.6658Z" fill="currentColor"/>
</svg>