<svg width="24" height="24" viewBox="0 0 24 24" fill="none" xmlns="http://www.w3.org/2000/svg">
<path fill-rule="evenodd" clip-rule="evenodd" d="M21.7557 3.42258L3.42247 21.7558C3.25959 21.918 3.04633 22 2.83308 22C2.61982 22 2.40657 21.918 2.24369 21.7558C1.91877 21.4304 1.91877 20.9026 2.24369 20.5772L4.44005 18.3815C2.91788 17.8596 2.00021 16.6484 2.00021 15.0299C2.00021 13.3294 2.96154 11.8046 4.45096 11.0518C4.44676 10.964 4.44425 10.8761 4.44425 10.7883C4.44425 7.32041 7.28541 4.49992 10.7772 4.49992C12.7662 4.49992 14.6343 5.44259 15.8223 6.99922L20.5769 2.24403C20.9027 1.91866 21.4299 1.91866 21.7557 2.24403C22.0814 2.56941 22.0814 3.09721 21.7557 3.42258ZM10.7772 6.16696C8.20473 6.16696 6.1108 8.2405 6.1108 10.7883C6.1108 11.0008 6.12928 11.2166 6.16706 11.4483C6.23254 11.8531 5.9941 12.2454 5.60453 12.3734C4.44507 12.754 3.66677 13.8213 3.66677 15.0299C3.66677 16.4268 4.74396 16.855 5.64819 16.968C5.70444 16.9747 5.75062 17.0023 5.80184 17.0198L14.6242 8.19701C13.7594 6.94067 12.3212 6.16696 10.7772 6.16696ZM11.1794 17.0683H17.8961C19.294 17.0683 20.3334 15.9073 20.3334 13.8179C20.3334 12.4804 19.6626 11.2341 18.5409 10.4855C18.1581 10.2304 18.0548 9.71265 18.31 9.32955C18.5661 8.9473 19.0825 8.84525 19.4662 9.0987C21.0521 10.1576 22 11.9217 22 13.8179C22 16.5824 20.074 18.6668 17.5208 18.6668H11.1668C10.7067 18.6668 10.3331 18.2937 10.3331 17.8328C10.3331 17.3728 10.7193 17.0683 11.1794 17.0683Z" fill="#6B7084"/>
</svg>
