<svg width="24" height="24" viewBox="0 0 24 24" fill="none" xmlns="http://www.w3.org/2000/svg">
<path fill-rule="evenodd" clip-rule="evenodd" d="M21.1667 15C20.7067 15 20.3333 14.6275 20.3333 14.1667C20.3333 12 18.5517 10.3025 16.2775 10.3025L16.0583 10.3158C15.6767 10.3533 15.31 10.13 15.1808 9.765C14.5258 7.91167 12.7558 6.66667 10.7775 6.66667C8.205 6.66667 6.11167 8.73917 6.11167 11.2875C6.11167 11.5008 6.13 11.7158 6.16667 11.9483C6.23333 12.3525 5.99417 12.7458 5.60417 12.8733C4.44583 13.2533 3.66667 14.3217 3.66667 15.5308C3.66667 17.0758 4.9375 18.3333 6.5 18.3333H12.8333C13.2933 18.3333 13.6667 18.7058 13.6667 19.1667C13.6667 19.6275 13.2933 20 12.8333 20H6.5C4.01917 20 2 17.995 2 15.5308C2 13.8292 2.96167 12.305 4.45083 11.5517C4.44667 11.4633 4.445 11.375 4.445 11.2875C4.445 7.82083 7.28583 5 10.7775 5C13.2533 5 15.4892 6.44 16.5192 8.64083C19.6117 8.75917 22 11.1433 22 14.1667C22 14.6275 21.6267 15 21.1667 15ZM16.1667 16.6667H21.1667C21.6267 16.6667 22 17.0392 22 17.5C22 17.96 21.6267 18.3333 21.1667 18.3333H16.1667C15.7067 18.3333 15.3333 17.96 15.3333 17.5C15.3333 17.0392 15.7067 16.6667 16.1667 16.6667Z" fill="#6B7084"/>
</svg>
