<svg width="24" height="24" viewBox="0 0 24 24" fill="none" xmlns="http://www.w3.org/2000/svg">
<path fill-rule="evenodd" clip-rule="evenodd" d="M17.8333 10.3342H15.3333V13.6667H17.8333C20.1308 13.6667 22 15.5367 22 17.8342C22 20.1308 20.1308 22 17.8333 22C15.5358 22 13.6667 20.1308 13.6667 17.8342C13.6667 17.81 13.6783 17.7892 13.6808 17.765C13.6783 17.7417 13.6667 17.7208 13.6667 17.6967V15.3333H10.3333V17.6967C10.3333 17.7208 10.3217 17.7417 10.3192 17.765C10.3217 17.7892 10.3333 17.81 10.3333 17.8342C10.3333 20.1308 8.465 22 6.16833 22C3.87 22 2 20.1308 2 17.8342C2 15.5367 3.87 13.6667 6.16833 13.6667H8.6675V10.3342H6.16833C3.87 10.3342 2 8.46417 2 6.16667C2 3.86917 3.87 2 6.16833 2C8.46583 2 10.335 3.86917 10.335 6.16667L10.3342 8.6675H13.6667V6.16667C13.6667 3.86917 15.5358 2 17.8333 2C20.1308 2 22 3.86917 22 6.16667C22 8.46417 20.1308 10.3342 17.8333 10.3342ZM6.16833 3.66667C4.78917 3.66667 3.66667 4.78833 3.66667 6.16667C3.66667 7.54583 4.78917 8.6675 6.16833 8.6675H8.6675L8.66833 6.16667C8.66833 4.78833 7.54667 3.66667 6.16833 3.66667ZM8.66667 17.6967V15.3333H6.16833C4.78917 15.3333 3.66667 16.455 3.66667 17.8342C3.66667 19.2125 4.78917 20.3333 6.16833 20.3333C7.54583 20.3333 8.66667 19.2125 8.66667 17.8342C8.66667 17.81 8.67833 17.7892 8.68083 17.765C8.67833 17.7417 8.66667 17.7208 8.66667 17.6967ZM13.6666 10.3342H10.3341V13.6667H13.6666V10.3342ZM17.8333 20.3333C19.2116 20.3333 20.3333 19.2125 20.3333 17.8342C20.3333 16.455 19.2116 15.3333 17.8333 15.3333H15.3333V17.6967C15.3333 17.7208 15.3216 17.7417 15.3191 17.765C15.3216 17.7892 15.3333 17.81 15.3333 17.8342C15.3333 19.2125 16.455 20.3333 17.8333 20.3333ZM17.8333 3.66667C16.455 3.66667 15.3333 4.78833 15.3333 6.16667V8.6675H17.8333C19.2117 8.6675 20.3333 7.54583 20.3333 6.16667C20.3333 4.78833 19.2117 3.66667 17.8333 3.66667Z" fill="#6B7084"/>
</svg>
