<svg viewBox="0 0 24 24" fill="none" xmlns="http://www.w3.org/2000/svg">
<g clip-path="url(#clip0_1265_22153)">
<path d="M12 24C18.6274 24 24 18.6274 24 12C24 5.37258 18.6274 0 12 0C5.37258 0 0 5.37258 0 12C0 18.6274 5.37258 24 12 24Z" fill="#2FD2E5"/>
<path d="M11.8545 5.0042C10.2586 4.94876 8.69221 5.44358 7.41781 6.40572C7.29425 6.49859 7.19289 6.61777 7.12106 6.75464C7.04924 6.89151 7.00875 7.04263 7.00254 7.19708C6.99632 7.35152 7.02452 7.50542 7.08511 7.64762C7.1457 7.78982 7.23715 7.91676 7.35284 8.01926C7.7202 8.36654 8.286 8.39371 8.68526 8.08364C9.66288 7.32281 10.8901 6.95596 12.1249 7.05545C13.3597 7.15494 14.5124 7.71355 15.3556 8.6211C15.7041 8.98137 15.7147 9.54894 15.3804 9.92221C15.2964 10.0123 15.1954 10.085 15.0833 10.1361C14.9712 10.1872 14.8501 10.2157 14.727 10.22C14.6039 10.2242 14.4811 10.2042 14.3657 10.161C14.2503 10.1178 14.1446 10.0523 14.0545 9.96828L14.009 9.92221C13.5886 9.46115 13.0385 9.13801 12.4311 8.99523C11.8236 8.85245 11.1872 8.89669 10.6054 9.12216C10.0235 9.34762 9.52349 9.74376 9.17087 10.2586C8.81825 10.7734 8.62956 11.3828 8.62956 12.0068C8.62956 12.6308 8.81825 13.2402 9.17087 13.755C9.52349 14.2698 10.0235 14.6659 10.6054 14.8914C11.1872 15.1168 11.8236 15.1611 12.4311 15.0183C13.0385 14.8755 13.5886 14.5524 14.009 14.0913C14.1437 13.9406 14.3243 13.8385 14.5229 13.8008C14.7215 13.7631 14.927 13.7919 15.1075 13.8828C15.236 13.9473 15.3478 14.0405 15.4342 14.1553C15.5207 14.2701 15.5794 14.4033 15.6058 14.5446C15.6322 14.6858 15.6256 14.8313 15.5865 14.9695C15.5474 15.1078 15.4769 15.2352 15.3804 15.3416C14.5407 16.2609 13.3865 16.8314 12.1462 16.9403C10.906 17.0493 9.67 16.6887 8.68289 15.9299C8.48756 15.7811 8.24597 15.706 8.0007 15.7179C7.75543 15.7298 7.52223 15.8279 7.34221 15.9949C7.22728 16.1002 7.13712 16.2296 7.07822 16.374C7.01931 16.5183 6.99312 16.6739 7.00154 16.8295C7.00995 16.9852 7.05276 17.137 7.12688 17.2742C7.20101 17.4113 7.3046 17.5303 7.43021 17.6226C8.3112 18.2759 9.3334 18.7131 10.4144 18.8989C11.4954 19.0846 12.6049 19.0138 13.6534 18.692C14.702 18.3702 15.6603 17.8066 16.451 17.0465C17.2417 16.2863 17.8427 15.351 18.2056 14.316C18.5685 13.2809 18.6831 12.1751 18.5401 11.0876C18.3971 10.0002 18.0006 8.96151 17.3825 8.05543C16.7644 7.14935 15.942 6.4012 14.9817 5.8713C14.0214 5.3414 12.95 5.04459 11.8539 5.00479L11.8545 5.0042ZM11.7245 13.7381C11.4971 13.7373 11.272 13.6916 11.0621 13.6038C10.8523 13.516 10.6618 13.3876 10.5015 13.2262C10.3413 13.0647 10.2144 12.8733 10.1281 12.6628C10.0419 12.4523 9.99792 12.2269 9.99877 11.9994C9.99962 11.7719 10.0453 11.5468 10.1331 11.337C10.221 11.1271 10.3493 10.9366 10.5107 10.7764C10.6722 10.6161 10.8636 10.4893 11.0741 10.403C11.2846 10.3167 11.51 10.2728 11.7375 10.2736C12.197 10.2753 12.6369 10.4593 12.9606 10.7854C13.2843 11.1114 13.4652 11.5527 13.4636 12.0121C13.4619 12.4715 13.2779 12.9115 12.9518 13.2352C12.6258 13.5589 12.1845 13.7398 11.7251 13.7381H11.7245Z" fill="white"/>
</g>
<defs>
<clipPath id="clip0_1265_22153">
<rect width="24" height="24" fill="white"/>
</clipPath>
</defs>
</svg>