<svg viewBox="0 0 24 24" fill="none" xmlns="http://www.w3.org/2000/svg">
<g clip-path="url(#clip0_1265_22149)">
<path d="M12 24C18.6274 24 24 18.6274 24 12C24 5.37258 18.6274 0 12 0C5.37258 0 0 5.37258 0 12C0 18.6274 5.37258 24 12 24Z" fill="#C1A05C"/>
<path fill-rule="evenodd" clip-rule="evenodd" d="M12.184 18.3336C10.638 18.3296 9.25395 17.8549 8.01793 16.9469C7.68925 16.7056 7.67925 16.5669 7.95926 16.2662L7.98459 16.2395C8.3266 15.8689 8.3246 15.8709 8.73061 16.1629C9.66622 16.8465 10.7877 17.2292 11.946 17.2602C13.1767 17.3029 14.3074 17.0089 15.3294 16.3495C16.5554 15.5589 17.3914 14.4575 17.7414 13.0515C18.1808 11.2861 17.8541 9.65142 16.6968 8.21473C15.8861 7.20804 14.8327 6.55936 13.56 6.25202C12.424 5.97735 11.308 6.04469 10.2113 6.42203C9.63062 6.62203 9.09395 6.9167 8.60927 7.29538C8.36993 7.48205 8.27927 7.47805 8.07593 7.25004C7.9781 7.14378 7.88639 7.03204 7.80126 6.91537C7.67592 6.73803 7.69325 6.6327 7.86259 6.49803C8.66719 5.85982 9.60465 5.41012 10.606 5.182C11.5122 4.96721 12.453 4.94224 13.3694 5.10867C14.6147 5.33401 15.7227 5.84602 16.6741 6.67537C17.3781 7.29004 17.9474 8.00872 18.3435 8.84874C18.8888 10.0061 19.1108 11.2181 18.9475 12.4968C18.8018 13.6636 18.3434 14.7693 17.6208 15.6969C16.8828 16.6582 15.9381 17.3596 14.8087 17.8202C13.9767 18.1643 13.0843 18.3388 12.184 18.3336ZM11.76 14.0782C11.7153 14.1462 11.692 14.1968 11.6547 14.2355C11.4293 14.4722 11.154 14.6142 10.822 14.6248C10.592 14.6315 10.3613 14.6122 10.1313 14.6175C10.0423 14.6167 9.95465 14.6387 9.87663 14.6815C8.81394 15.3482 7.66992 15.4455 6.46456 15.1895C6.06789 15.1055 5.71255 14.9529 5.40988 14.6929C5.18187 14.4975 5.0212 14.2668 5.00187 13.9428C4.96854 13.3782 5.38654 12.9928 5.81722 12.8668C6.61257 12.6335 7.36925 12.7755 8.09326 13.1268C8.42393 13.2868 8.73327 13.4908 9.04928 13.6802C9.23062 13.7875 9.28462 13.7835 9.37529 13.5982C9.78529 12.7608 9.52062 11.8375 8.51927 11.4961C7.64059 11.1961 6.78124 11.2261 5.93522 11.6161C5.81122 11.6735 5.67522 11.7828 5.52921 11.6655C5.37788 11.5428 5.47921 11.3968 5.51788 11.2675C5.79588 10.3314 6.07789 9.39742 6.3639 8.46407C6.42656 8.2594 6.5899 8.15406 6.82857 8.16673C7.17991 8.18606 7.52925 8.23873 7.88059 8.24673C8.40727 8.26006 8.93594 8.26473 9.46195 8.23873C9.8533 8.21873 10.1966 8.04672 10.4986 7.79739C10.5353 7.76739 10.6093 7.73272 10.6333 7.74872C10.6686 7.77205 10.69 7.83739 10.6933 7.88672C10.718 8.29073 10.5446 8.60207 10.2233 8.84407C9.8433 9.13075 9.40929 9.26408 8.93528 9.27541C8.44393 9.28675 7.95259 9.29342 7.46192 9.29541C7.35125 9.29675 7.29258 9.33675 7.26658 9.44075C7.22258 9.61409 7.17591 9.78809 7.12591 9.96076C7.08791 10.0894 7.13658 10.1408 7.26658 10.1354C7.57592 10.1241 7.88526 10.1034 8.19393 10.1054C8.90444 10.1013 9.59053 10.3645 10.116 10.8428C10.6313 11.3015 10.84 11.8935 10.8713 12.5548C10.896 13.0848 10.7946 13.5922 10.5033 14.0488C10.424 14.1735 10.46 14.2275 10.594 14.2628C10.95 14.3568 11.2787 14.2928 11.5927 14.1175C11.6193 14.1028 11.644 14.0862 11.6713 14.0735C11.6807 14.0695 11.6947 14.0742 11.76 14.0782ZM8.71461 14.2288L8.70394 14.1642C8.65927 14.1368 8.61727 14.1028 8.5686 14.0815C8.21526 13.9248 7.86659 13.7515 7.50392 13.6195C7.13391 13.4842 6.74924 13.3875 6.34656 13.4815C6.16522 13.5235 5.98389 13.5695 5.93122 13.7782C5.87255 14.0082 6.01322 14.1515 6.17722 14.2768C6.22856 14.3162 6.29189 14.3442 6.35323 14.3682C6.97591 14.6082 7.60792 14.6148 8.2426 14.4268C8.40527 14.3788 8.55794 14.2955 8.71461 14.2288Z" fill="white"/>
</g>
<defs>
<clipPath id="clip0_1265_22149">
<rect width="24" height="24" fill="white"/>
</clipPath>
</defs>
</svg>