<svg viewBox="0 0 24 24" fill="none" xmlns="http://www.w3.org/2000/svg">
<g clip-path="url(#clip0_1265_22145)">
<path d="M12 24C18.6274 24 24 18.6274 24 12C24 5.37258 18.6274 0 12 0C5.37258 0 0 5.37258 0 12C0 18.6274 5.37258 24 12 24Z" fill="#383939"/>
<path fill-rule="evenodd" clip-rule="evenodd" d="M13.9824 9.06135L15.716 8.6642L16.3874 7.55855L15.7244 6.4711L14.8755 5.8848L13.1316 5.5L12.0558 6.10645L10.3346 5.79965L7.9712 7.437L7.78725 9.3493L6.7843 9.7679L6.9 11.5417L6.19995 12.0994L6.89935 14.0962L7.00465 14.3056L7.74435 16.3615L9.2647 16.8997L10.3918 18.0463L11.6879 18.5L12.2742 18.331L13.2044 18.2238L14.5681 17.8331L16.6 16.6858L16.0683 14.585L15.0452 14.182L14.5356 14.7651L13.1023 15.1174L11.0178 14.7872L10.345 14.0091L10.579 13.248L9.5936 11.6886L10.4224 10.6772L10.5108 8.958L11.6977 8.2768L12.5115 7.9518L13.6165 8.15135L13.9824 9.06135Z" fill="white"/>
</g>
<defs>
<clipPath id="clip0_1265_22145">
<rect width="24" height="24" fill="white"/>
</clipPath>
</defs>
</svg>