<svg width="24" height="24" viewBox="0 0 24 24" fill="none" xmlns="http://www.w3.org/2000/svg">
<g clip-path="url(#clip0_1265_22139)">
<path d="M12 24C18.6274 24 24 18.6274 24 12C24 5.37258 18.6274 0 12 0C5.37258 0 0 5.37258 0 12C0 18.6274 5.37258 24 12 24Z" fill="#4C6BAE"/>
<path opacity="0.5" fill-rule="evenodd" clip-rule="evenodd" d="M5.88009 12.6428L5 12.7338C5.47091 11.4165 6.40191 10.3627 7.79427 9.57236C7.926 10.6644 8.44336 11.5674 9.347 12.2826L8.51973 12.3685C8.60033 13.1281 8.92707 13.8405 9.45016 14.3972C9.97324 14.9538 10.664 15.3241 11.4171 15.4517C10.8625 15.8689 10.206 16.1293 9.51627 16.2058C9.94964 16.9695 10.4625 17.595 11.0544 18.0812C9.71293 17.8721 8.47824 17.2255 7.54243 16.2419C6.60663 15.2583 6.02219 13.993 5.88009 12.6428ZM18.1199 11.3574L19 11.2664C18.5291 12.5836 17.5981 13.6375 16.2057 14.4278C16.074 13.3358 15.5566 12.4328 14.653 11.7175L15.4803 11.6316C15.3988 10.864 15.0661 10.1448 14.5337 9.58588C14.0013 9.02692 13.2992 8.65952 12.5365 8.54081C13.0891 8.12797 13.7421 7.87027 14.4277 7.79436C13.9905 7.025 13.4738 6.3969 12.8763 5.90881C14.2319 6.1043 15.4835 6.74626 16.4333 7.73309C17.383 8.71993 17.9765 9.99529 18.1199 11.3574Z" fill="white"/>
<path fill-rule="evenodd" clip-rule="evenodd" d="M12.5867 18.1256L12.6777 19C11.3604 18.5291 10.3066 17.5981 9.51624 16.2057C10.6076 16.074 11.5106 15.5566 12.2259 14.653L12.3124 15.4866C13.091 15.4166 13.8237 15.0882 14.394 14.5536C14.9642 14.0189 15.3392 13.3089 15.4592 12.5365C15.8721 13.0891 16.1298 13.7421 16.2057 14.4277C16.9751 13.9905 17.6031 13.4738 18.0912 12.8763C17.8944 14.2414 17.2448 15.5009 16.2467 16.4528C15.2485 17.4047 13.9596 17.9938 12.5867 18.1256ZM11.3572 5.88009L11.2662 5C12.5835 5.47091 13.6373 6.40191 14.4277 7.79427C13.3357 7.926 12.4327 8.44336 11.7174 9.347L11.6315 8.51973C10.8639 8.60116 10.1447 8.93393 9.58575 9.4663C9.0268 9.99868 8.6594 10.7008 8.54069 11.4635C8.12785 10.9109 7.87015 10.2579 7.79424 9.57227C7.02487 10.0095 6.39678 10.5262 5.90869 11.1237C6.10418 9.76815 6.74614 8.51647 7.73297 7.56674C8.7198 6.61702 9.99516 6.0235 11.3572 5.88009Z" fill="white"/>
</g>
<defs>
<clipPath id="clip0_1265_22139">
<rect width="24" height="24" fill="white"/>
</clipPath>
</defs>
</svg>
