<svg viewBox="0 0 24 24" fill="none" xmlns="http://www.w3.org/2000/svg">
<g clip-path="url(#clip0_1265_22135)">
<path d="M12 24C18.6274 24 24 18.6274 24 12C24 5.37258 18.6274 0 12 0C5.37258 0 0 5.37258 0 12C0 18.6274 5.37258 24 12 24Z" fill="#FF4314"/>
<path fill-rule="evenodd" clip-rule="evenodd" d="M7.82672 6.80554H16.2698V7.98193H7.82611L7.82672 6.80554ZM6.88561 10.2528H17.3191V11.4414H14.123V15.4179C14.123 15.7235 14.2556 15.8763 14.5324 15.8763H15.8598C16.0046 15.8763 16.125 15.7828 16.1971 15.6062C16.2821 15.4179 16.3419 14.841 16.3664 13.8883L17.5 14.2415C17.4157 15.5707 17.2586 16.359 17.0417 16.6065C16.8247 16.8412 16.5112 16.9708 16.0883 16.9708H14.1713C13.3145 16.9708 12.8928 16.5357 12.8928 15.6764V11.4414H11.1072V11.6767C11.0473 13.1709 10.7099 14.3705 10.0946 15.2652C9.49139 16.0883 8.52644 16.7355 7.17528 17.1944L6.5 16.1592C7.80289 15.7119 8.67128 15.1472 9.12961 14.4884C9.58794 13.7588 9.82872 12.8293 9.877 11.6767V11.4414H6.88622L6.88561 10.2528Z" fill="white"/>
</g>
<defs>
<clipPath id="clip0_1265_22135">
<rect width="24" height="24" fill="white"/>
</clipPath>
</defs>
</svg>