<svg width="24" height="24" viewBox="0 0 24 24" fill="none" xmlns="http://www.w3.org/2000/svg">
<g clip-path="url(#clip0_1265_22131)">
<path d="M12 24C18.6274 24 24 18.6274 24 12C24 5.37258 18.6274 0 12 0C5.37258 0 0 5.37258 0 12C0 18.6274 5.37258 24 12 24Z" fill="#13BF99"/>
<path d="M12 18.6H8.8248L10.4152 15.8301H13.5848L15.1752 18.6H12ZM10.4159 8.7692H10.4152L8.8248 6H15.1752L13.5848 8.7692H10.4152H10.4159ZM17.4152 15.4465H17.4138H17.4152L15.8241 18.2171L14.2393 15.4472H14.24L15.8241 12.6766H19L17.4152 15.4465ZM6.5848 9.1472L8.1752 6.3773L9.76 9.1472L8.1752 11.9164H5L6.5848 9.1472ZM9.7593 15.4472H9.76L8.1752 18.2171L6.5848 15.4472L5 12.6759H8.1752L9.76 15.4458L9.7593 15.4472ZM17.4152 9.1472L19 11.9171H15.8248L14.2393 9.1472L15.8241 6.3773L17.4152 9.1472Z" fill="white"/>
</g>
<defs>
<clipPath id="clip0_1265_22131">
<rect width="24" height="24" fill="white"/>
</clipPath>
</defs>
</svg>
