<svg viewBox="0 0 24 24" fill="none" xmlns="http://www.w3.org/2000/svg">
<path fill-rule="evenodd" clip-rule="evenodd" d="M21.7559 12.7562L17.5884 16.925C17.4259 17.0875 17.2125 17.1687 16.9992 17.1687C16.7859 17.1687 16.5725 17.0875 16.41 16.925C16.0842 16.5993 16.0842 16.0717 16.41 15.7467L19.9884 12.1667L16.41 8.5916C16.0842 8.26667 16.0842 7.73824 16.41 7.41247C16.7359 7.08755 17.2625 7.08755 17.5884 7.41247L21.7559 11.5779C21.9125 11.7345 22 11.9456 22 12.1667C22 12.3877 21.9125 12.6004 21.7559 12.7562ZM10.2983 20.7404C10.19 21.1014 9.85918 21.3333 9.50001 21.3333C9.42085 21.3333 9.34085 21.3224 9.26085 21.299C8.82001 21.1667 8.57001 20.7011 8.70168 20.2614L13.7017 3.59456C13.8333 3.15407 14.2958 2.902 14.7392 3.03599C15.18 3.1683 15.43 3.63225 15.2983 4.07274L10.2983 20.7404ZM7.59 16.9233C7.4275 17.0858 7.21417 17.167 7.00083 17.167C6.7875 17.167 6.57417 17.0858 6.41167 16.9233L2.24417 12.7579C2.08833 12.6021 2 12.3903 2 12.1692C2 11.9489 2.08833 11.7362 2.24417 11.5796L6.41167 7.41164C6.7375 7.08587 7.26417 7.08587 7.59 7.41164C7.91583 7.73657 7.91583 8.26416 7.59 8.58993L4.01167 12.1692L7.59 15.7442C7.91583 16.0692 7.91583 16.5976 7.59 16.9233Z" fill="currentColor"/>
</svg>