<svg viewBox="0 0 24 24" fill="none" xmlns="http://www.w3.org/2000/svg">
<path d="M21.9986 11.9559C22.0073 13.9334 21.4294 15.8692 20.338 17.5183C19.2466 19.1674 17.6906 20.4559 15.8669 21.2207C14.0432 21.9855 12.0337 22.1923 10.0924 21.8151C8.15113 21.4378 6.36534 20.4933 4.96085 19.1011C3.55637 17.7089 2.59628 15.9314 2.20198 13.9935C1.80769 12.0557 1.9969 10.0444 2.7457 8.21403C3.4945 6.38368 4.76924 4.81649 6.40874 3.71064C8.04823 2.60478 9.97883 2.00993 11.9564 2.00132C14.6081 1.98976 17.1558 3.03203 19.0391 4.89886C20.9224 6.76568 21.9869 9.30415 21.9986 11.9559Z" fill="#8DC63F"/>
<path d="M21.2489 11.9594C21.2571 13.7883 20.7229 15.5787 19.7137 17.104C18.7044 18.6293 17.2655 19.8211 15.579 20.5287C13.8924 21.2362 12.0339 21.4278 10.2384 21.079C8.44299 20.7303 6.79128 19.857 5.49218 18.5696C4.19308 17.2821 3.30493 15.6384 2.94005 13.8461C2.57516 12.0539 2.74994 10.1938 3.44226 8.50087C4.13459 6.80799 5.31338 5.35842 6.82955 4.33548C8.34572 3.31254 10.1312 2.76218 11.9602 2.754C14.4125 2.74321 16.7688 3.70694 18.5107 5.43322C20.2526 7.15951 21.2375 9.50698 21.2489 11.9594Z" fill="#F9E988"/>
<path d="M12.1702 3.3534C12.758 3.24906 13.3596 3.24906 13.9475 3.3534C14.541 3.44738 15.1147 3.6396 15.6451 3.92217C16.1726 4.21199 16.6283 4.60542 17.0819 4.97421C17.5354 5.34301 17.9868 5.7205 18.4165 6.13349C18.8551 6.54004 19.2378 7.00296 19.5547 7.51013C19.881 8.01328 20.1485 8.55225 20.3517 9.11645C20.7379 10.2511 20.872 11.4734 20.6792 12.6392H20.622C20.4285 11.4835 20.1663 10.3822 19.7525 9.33454C19.5584 8.80696 19.3299 8.29264 19.0686 7.79487C18.7959 7.29703 18.4955 6.81493 18.1687 6.35085C17.8363 5.88169 17.429 5.47045 16.963 5.13361C16.4935 4.79887 15.9537 4.58223 15.4313 4.37646C14.9089 4.17069 14.3909 3.95767 13.846 3.80117C13.3012 3.64467 12.7476 3.52729 12.1694 3.41354L12.1702 3.3534Z" fill="white"/>
<path d="M16.6906 8.69543C16.0197 8.50125 15.3241 8.22592 14.6198 7.9477C14.5793 7.77091 14.4228 7.55064 14.1061 7.28184C13.6461 6.88261 12.7817 6.89276 12.0347 7.06955C11.2101 6.87537 10.3957 6.80653 9.61395 6.99709C3.21982 8.75846 6.84546 13.0558 4.49792 17.3755C4.83194 18.0841 8.43221 22.2184 13.6417 21.1091C13.6417 21.1091 11.86 16.8277 15.8806 14.7729C19.1417 13.0999 21.498 10.0047 16.6906 8.69543Z" fill="#8BC53F"/>
<path d="M17.4803 11.5073C17.4808 11.584 17.4585 11.659 17.4162 11.723C17.374 11.787 17.3137 11.837 17.2431 11.8667C17.1724 11.8965 17.0945 11.9046 17.0192 11.8901C16.9439 11.8755 16.8747 11.839 16.8202 11.7851C16.7656 11.7312 16.7283 11.6623 16.713 11.5872C16.6976 11.5121 16.7048 11.4341 16.7338 11.3631C16.7627 11.2921 16.812 11.2313 16.8755 11.1884C16.9391 11.1454 17.0139 11.1223 17.0905 11.1218C17.1933 11.1214 17.292 11.1618 17.3651 11.234C17.4381 11.3063 17.4796 11.4045 17.4803 11.5073Z" fill="white"/>
<path d="M12.0347 7.06652C12.5006 7.09985 14.1851 7.64616 14.6199 7.94467C14.2576 6.89408 13.0382 6.75424 12.0347 7.06652Z" fill="#009345"/>
<path d="M12.4781 9.72349C12.4782 10.0772 12.3735 10.423 12.1771 10.7171C11.9807 11.0113 11.7015 11.2406 11.3747 11.3761C11.048 11.5115 10.6884 11.547 10.3415 11.4781C9.99458 11.4092 9.67589 11.239 9.42574 10.9889C9.17558 10.7389 9.0052 10.4202 8.93615 10.0733C8.86709 9.72644 8.90246 9.36686 9.03778 9.04008C9.1731 8.71329 9.4023 8.43397 9.69638 8.23745C9.99046 8.04093 10.3362 7.93604 10.6899 7.93604C10.9247 7.93594 11.1572 7.9821 11.3742 8.07189C11.5911 8.16167 11.7883 8.29332 11.9543 8.45931C12.1204 8.6253 12.2521 8.82238 12.342 9.03929C12.4318 9.2562 12.4781 9.4887 12.4781 9.72349Z" fill="white"/>
<path d="M11.9478 9.7395C11.9478 9.98827 11.874 10.2315 11.7358 10.4383C11.5976 10.6452 11.4011 10.8064 11.1713 10.9016C10.9415 10.9968 10.6886 11.0217 10.4446 10.9731C10.2006 10.9246 9.97644 10.8048 9.80054 10.6289C9.62463 10.453 9.50483 10.2289 9.4563 9.98489C9.40776 9.7409 9.43267 9.48799 9.52788 9.25816C9.62308 9.02832 9.78429 8.83188 9.99114 8.69367C10.198 8.55546 10.4412 8.48169 10.6899 8.48169C11.0235 8.48169 11.3435 8.61421 11.5794 8.85009C11.8152 9.08598 11.9478 9.40591 11.9478 9.7395Z" fill="#58595B"/>
<path d="M18.9287 12.2957C17.4796 13.3165 15.832 14.0911 13.4946 14.0911C12.4005 14.0911 12.1788 12.9318 11.4557 13.4984C11.0826 13.7926 9.76681 14.4505 8.72274 14.4005C7.67867 14.3505 5.98612 13.7382 5.51444 11.5095C5.32751 13.7382 5.23187 15.3801 4.39502 17.2617C6.06148 19.9302 10.0349 21.9887 13.6417 21.1018C13.2541 18.3956 15.619 15.7452 16.9514 14.3889C17.4586 13.8752 18.4222 13.0369 18.9287 12.2942V12.2957Z" fill="#8BC53F"/>
<path d="M18.8722 12.3623C18.4223 12.7724 17.8869 13.076 17.342 13.3441C16.7905 13.6059 16.2156 13.8153 15.6248 13.9693C15.0336 14.1222 14.417 14.2374 13.7924 14.1809C13.1679 14.1244 12.5296 13.9121 12.1158 13.4441L12.1354 13.4216C12.6426 13.7505 13.228 13.8665 13.8106 13.8831C14.401 13.9011 14.9916 13.8525 15.5712 13.7382C16.1567 13.6157 16.7294 13.4386 17.2819 13.2093C17.8347 12.9811 18.3817 12.7166 18.8527 12.3398L18.8722 12.3623Z" fill="#58595B"/>
</svg>