<svg width="24" height="24" viewBox="0 0 24 24" fill="none" xmlns="http://www.w3.org/2000/svg">
<path fill-rule="evenodd" clip-rule="evenodd" d="M17 21.3333C16.7975 21.3333 16.6 21.3092 16.4017 21.2858C16.3258 21.3092 16.25 21.3333 16.1667 21.3333H4.5C4.03917 21.3333 3.66667 20.96 3.66667 20.5V17.1667C3.66667 16.7067 4.03917 16.3333 4.5 16.3333H5.33333V14.6667H2.83333C2.3725 14.6667 2 14.2933 2 13.8333V10.5C2 10.04 2.3725 9.66667 2.83333 9.66667V7.16667C2.83333 6.70667 3.20583 6.33333 3.66667 6.33333H4.5V3.83333C4.5 3.37333 4.8725 3 5.33333 3H15.3333C15.7942 3 16.1667 3.37333 16.1667 3.83333V7.16667C16.1667 7.62667 15.7942 8 15.3333 8H14.5V10.5C14.5 10.96 14.1275 11.3333 13.6667 11.3333V12.6283C14.0617 12.2725 14.5008 11.9658 14.9958 11.7467C15.6408 11.4708 16.3117 11.3333 17 11.3333C19.7575 11.3333 22 13.5767 22 16.3333C22 19.09 19.7575 21.3333 17 21.3333ZM12.3067 14.6667H7V16.3333H12C12 15.7617 12.1175 15.2058 12.3067 14.6667ZM5.33333 19.6667H13.2875C12.9308 19.2708 12.6292 18.8258 12.4133 18.3375C12.3642 18.2183 12.3292 18.11 12.2908 18H6.16667H5.33333V19.6667ZM3.66667 11.3333V13H6.16667H12V11.3333H3.66667ZM4.5 8V9.66667H12.8333V8H5.33333H4.5ZM14.5 6.33333V4.66667H6.16667V6.33333H13.6667H14.5ZM17 13C16.5375 13 16.0875 13.0925 15.6608 13.275C14.9075 13.6083 14.2758 14.2408 13.9367 15.005C13.7592 15.4217 13.6667 15.8733 13.6667 16.3333C13.6667 16.5733 13.6875 16.7942 13.7308 16.99C13.7758 17.215 13.8442 17.4325 13.9475 17.6858C14.1708 18.1892 14.5383 18.6517 15.0017 19.0017C15.5758 19.4375 16.2667 19.6667 17 19.6667C18.8383 19.6667 20.3333 18.1717 20.3333 16.3333C20.3333 14.495 18.8383 13 17 13Z" fill="#6B7084"/>
</svg>
