<svg width="24" height="24" viewBox="0 0 24 24" fill="none" xmlns="http://www.w3.org/2000/svg">
<path fill-rule="evenodd" clip-rule="evenodd" d="M15.3325 18.3333C14.77 18.3333 14.2167 18.25 13.6767 18.1117C13.14 18.2508 12.5792 18.3333 11.9992 18.3333C11.4375 18.3333 10.8842 18.25 10.3442 18.1117C9.80667 18.2517 9.24667 18.3333 8.66667 18.3333C4.99083 18.3333 2 15.3425 2 11.6667C2 7.99083 4.99083 5 8.66667 5C9.24583 5 9.80583 5.08167 10.3417 5.22167C10.8817 5.08333 11.4358 5 11.9992 5C12.5792 5 13.1383 5.08167 13.675 5.22167C14.2142 5.08333 14.7692 5 15.3325 5C19.0092 5 22 7.99083 22 11.6667C22 15.3425 19.0092 18.3333 15.3325 18.3333ZM8.66667 6.66667C5.90917 6.66667 3.66667 8.91 3.66667 11.6667C3.66667 14.4233 5.90917 16.6667 8.66667 16.6667C11.4242 16.6667 13.6675 14.4233 13.6675 11.6667C13.6675 8.91 11.4242 6.66667 8.66667 6.66667ZM13.2617 6.84834C14.5358 8.06334 15.3342 9.77167 15.3342 11.6667C15.3342 13.5617 14.5358 15.27 13.2617 16.485C15.4058 15.9217 17 13.985 17 11.6667C17 9.34834 15.4058 7.41167 13.2617 6.84834ZM16.5942 6.8475C17.8683 8.0625 18.6667 9.77166 18.6667 11.6667C18.6667 13.5617 17.8683 15.2708 16.5942 16.4858C18.7392 15.9225 20.3333 13.985 20.3333 11.6667C20.3333 9.34833 18.7392 7.41083 16.5942 6.8475ZM8.66667 10.8333C10.0692 10.8333 11.1667 11.7483 11.1667 12.9167C11.1667 13.8392 10.4775 14.5958 9.5 14.8767V15C9.5 15.46 9.1275 15.8333 8.66667 15.8333C8.20583 15.8333 7.83333 15.46 7.83333 15H7C6.53917 15 6.16667 14.6267 6.16667 14.1667C6.16667 13.7067 6.53917 13.3333 7 13.3333H8.66667C9.18333 13.3333 9.5 13.0633 9.5 12.9167C9.5 12.77 9.18333 12.5 8.66667 12.5C7.26417 12.5 6.16667 11.5842 6.16667 10.4158C6.16667 9.49417 6.855 8.7375 7.83333 8.45667V8.33333C7.83333 7.87333 8.20583 7.5 8.66667 7.5C9.1275 7.5 9.5 7.87333 9.5 8.33333H10.3333C10.7942 8.33333 11.1667 8.70667 11.1667 9.16667C11.1667 9.62667 10.7942 10 10.3333 10H8.66667C8.15 10 7.83333 10.2692 7.83333 10.4158C7.83333 10.5633 8.15 10.8333 8.66667 10.8333Z" fill="#6B7084"/>
</svg>
