<svg width="24" height="24" viewBox="0 0 24 24" fill="none" xmlns="http://www.w3.org/2000/svg">
<path fill-rule="evenodd" clip-rule="evenodd" d="M12 2C17.5049 2 22 6.46254 22 12C22 17.5049 17.5375 22 12 22C6.46254 22 2 17.5049 2 12C2 6.46254 6.46254 2 12 2Z" fill="#FDFF7F"/>
<path d="M11.9999 4.1499C16.3322 4.1499 19.8501 7.66782 19.8501 12.0001C19.8501 16.3323 16.3322 19.8502 11.9999 19.8502C9.81751 19.8502 7.86312 18.9707 6.42989 17.5375C4.99667 16.1043 4.11719 14.1499 4.11719 11.9675C4.11719 9.78508 4.99667 7.83068 6.42989 6.39746C7.86312 5.02938 9.81751 4.1499 11.9999 4.1499ZM14.9315 9.68736C15.3875 9.68736 15.7784 10.0457 15.7784 10.5343C15.7784 10.9903 15.4201 11.3812 14.9315 11.3812C14.4755 11.3812 14.0846 11.0229 14.0846 10.5343C14.0846 10.0782 14.4755 9.68736 14.9315 9.68736ZM7.43966 10.8926L8.77517 9.75251L9.03575 9.5245L9.29634 9.75251L10.6318 10.8926L10.0781 11.544L9.00318 10.6646L7.92826 11.544L7.43966 10.8926ZM15.355 13.7916C15.355 14.7036 14.9641 15.5506 14.3778 16.1694C13.7589 16.7883 12.9445 17.1466 11.9999 17.1466C11.0879 17.1466 10.241 16.7558 9.62207 16.1694C9.00318 15.5506 8.64487 14.7362 8.64487 13.7916H9.49178C9.49178 14.4756 9.78494 15.0945 10.2084 15.5506C10.6644 16.0066 11.2833 16.2672 11.9674 16.2672C12.6514 16.2672 13.2703 15.974 13.7263 15.5506C14.1823 15.0945 14.4429 14.4756 14.4429 13.7916H15.355ZM19.1335 12.0001C19.1335 8.0587 15.9413 4.86651 11.9999 4.86651C10.013 4.86651 8.25399 5.68085 6.95106 6.95121C5.64813 8.25414 4.86637 10.0457 4.86637 12.0001C4.86637 13.9545 5.68071 15.746 6.95106 17.0489C8.25399 18.3519 10.0455 19.1336 11.9999 19.1336C15.9413 19.1336 19.1335 15.9414 19.1335 12.0001Z" fill="#1F1F1F"/>
</svg>
