<svg width="24" height="24" viewBox="0 0 24 24" fill="none" xmlns="http://www.w3.org/2000/svg">
<path fill-rule="evenodd" clip-rule="evenodd" d="M16.9992 18C16.5384 18 16.1659 17.6267 16.1659 17.1667C16.1659 16.7067 16.5384 16.3333 16.9992 16.3333C19.3025 16.3333 20.3334 15.915 20.3334 15.5V14.2325C19.1634 14.665 17.6892 14.6667 16.9992 14.6667C16.5384 14.6667 16.1659 14.2933 16.1659 13.8333C16.1659 13.3733 16.5384 13 16.9992 13C19.3025 13 20.3334 12.5817 20.3334 12.1667V10.8992C19.1634 11.3325 17.6892 11.3333 16.9992 11.3333C16.5384 11.3333 16.1659 10.96 16.1659 10.5C16.1659 10.04 16.5384 9.66667 16.9992 9.66667C19.3025 9.66667 20.3334 9.24833 20.3334 8.83333V7.25667C18.5084 7.965 15.7809 8 15.3325 8C14.885 8 12.1575 7.965 10.3325 7.25667V8.0175C10.3325 8.4775 9.96002 8.85 9.49919 8.85C9.03835 8.85 8.66585 8.4775 8.66585 8.0175V5.5C8.66585 3.07 14.6509 3 15.3325 3C16.015 3 22 3.07 22 5.5V12.1667V15.5C22 18 18.2359 18 16.9992 18ZM15.3325 4.66667C12.7175 4.66667 11.0358 5.15333 10.475 5.5C11.0358 5.84667 12.7175 6.33333 15.3325 6.33333C17.9475 6.33333 19.6292 5.84667 20.1908 5.5C19.63 5.15417 17.9483 4.66667 15.3325 4.66667ZM15.3342 12.1667V18.8333C15.3342 21.2633 9.34917 21.3333 8.66667 21.3333C7.985 21.3333 2 21.2633 2 18.8333V12.1667C2 9.73667 7.985 9.66667 8.66667 9.66667C9.34917 9.66667 15.3342 9.73667 15.3342 12.1667ZM3.66667 18.7267C4.0175 19.0683 5.76917 19.6667 8.66667 19.6667C11.565 19.6667 13.3167 19.0683 13.6675 18.7258V17.2567C11.8425 17.965 9.115 18 8.66667 18C8.21917 18 5.49167 17.965 3.66667 17.2567V18.7267ZM3.66667 15.3917C4.01083 15.7325 5.7625 16.3333 8.66667 16.3333C11.5708 16.3333 13.3225 15.7325 13.6675 15.3917V13.9233C11.8425 14.6317 9.115 14.6667 8.66667 14.6667C8.21917 14.6667 5.49167 14.6317 3.66667 13.9233V15.3917ZM8.66668 13C11.2817 13 12.9634 12.5133 13.525 12.1667C12.9634 11.82 11.2817 11.3333 8.66668 11.3333C6.05168 11.3333 4.37002 11.82 3.80918 12.1667C4.37002 12.5133 6.05168 13 8.66668 13Z" fill="#6B7084"/>
</svg>
