<svg viewBox="0 0 24 24" fill="none" xmlns="http://www.w3.org/2000/svg">
<path d="M22 12C22 6.47715 17.5228 2 12 2C6.47715 2 2 6.47715 2 12C2 17.5228 6.47715 22 12 22C17.5228 22 22 17.5228 22 12Z" fill="#0052FF"/>
<path d="M12.0028 15.5156C10.0604 15.5156 8.48718 13.9424 8.48718 12C8.48718 10.0576 10.0604 8.48438 12.0028 8.48438C13.7431 8.48438 15.1874 9.75293 15.4657 11.4141H19.0077C18.7089 7.80469 15.6884 4.96875 12.0028 4.96875C8.12097 4.96875 4.97156 8.11816 4.97156 12C4.97156 15.8818 8.12097 19.0312 12.0028 19.0312C15.6884 19.0312 18.7089 16.1953 19.0077 12.5859H15.4628C15.1845 14.2471 13.7431 15.5156 12.0028 15.5156Z" fill="white"/>
</svg>