<svg width="24" height="24" viewBox="0 0 24 24" fill="none" xmlns="http://www.w3.org/2000/svg">
<path fill-rule="evenodd" clip-rule="evenodd" d="M3.1499 5.99999C3.1499 5.53055 3.53046 5.14999 3.9999 5.14999H9.4999C9.96934 5.14999 10.3499 5.53055 10.3499 5.99999C10.3499 6.46944 9.96934 6.84999 9.4999 6.84999H3.9999C3.53046 6.84999 3.1499 6.46944 3.1499 5.99999Z" fill="#6B7084"/>
<path fill-rule="evenodd" clip-rule="evenodd" d="M3.1499 9.99999C3.1499 9.53055 3.53046 9.14999 3.9999 9.14999H9.4999C9.96934 9.14999 10.3499 9.53055 10.3499 9.99999C10.3499 10.4694 9.96934 10.85 9.4999 10.85H3.9999C3.53046 10.85 3.1499 10.4694 3.1499 9.99999Z" fill="#6B7084"/>
<path fill-rule="evenodd" clip-rule="evenodd" d="M3.1499 14C3.1499 13.5306 3.53046 13.15 3.9999 13.15H9.4999C9.96934 13.15 10.3499 13.5306 10.3499 14C10.3499 14.4694 9.96934 14.85 9.4999 14.85H3.9999C3.53046 14.85 3.1499 14.4694 3.1499 14Z" fill="#6B7084"/>
<path fill-rule="evenodd" clip-rule="evenodd" d="M3.1499 18C3.1499 17.5306 3.53046 17.15 3.9999 17.15H9.4999C9.96934 17.15 10.3499 17.5306 10.3499 18C10.3499 18.4694 9.96934 18.85 9.4999 18.85H3.9999C3.53046 18.85 3.1499 18.4694 3.1499 18Z" fill="#6B7084"/>
<path fill-rule="evenodd" clip-rule="evenodd" d="M13.6499 5.99999C13.6499 5.53055 14.0305 5.14999 14.4999 5.14999H19.9999C20.4693 5.14999 20.8499 5.53055 20.8499 5.99999C20.8499 6.46944 20.4693 6.84999 19.9999 6.84999H14.4999C14.0305 6.84999 13.6499 6.46944 13.6499 5.99999Z" fill="#6B7084"/>
<path fill-rule="evenodd" clip-rule="evenodd" d="M13.6499 9.99999C13.6499 9.53055 14.0305 9.14999 14.4999 9.14999H19.9999C20.4693 9.14999 20.8499 9.53055 20.8499 9.99999C20.8499 10.4694 20.4693 10.85 19.9999 10.85H14.4999C14.0305 10.85 13.6499 10.4694 13.6499 9.99999Z" fill="#6B7084"/>
<path fill-rule="evenodd" clip-rule="evenodd" d="M13.6499 14C13.6499 13.5306 14.0305 13.15 14.4999 13.15H19.9999C20.4693 13.15 20.8499 13.5306 20.8499 14C20.8499 14.4694 20.4693 14.85 19.9999 14.85H14.4999C14.0305 14.85 13.6499 14.4694 13.6499 14Z" fill="#6B7084"/>
<path fill-rule="evenodd" clip-rule="evenodd" d="M13.6499 18C13.6499 17.5306 14.0305 17.15 14.4999 17.15H19.9999C20.4693 17.15 20.8499 17.5306 20.8499 18C20.8499 18.4694 20.4693 18.85 19.9999 18.85H14.4999C14.0305 18.85 13.6499 18.4694 13.6499 18Z" fill="#6B7084"/>
</svg>
