<svg viewBox="0 0 24 24" fill="none" xmlns="http://www.w3.org/2000/svg">
<g clip-path="url(#clip0_1265_22127)">
<path d="M12 24C18.6274 24 24 18.6274 24 12C24 5.37258 18.6274 0 12 0C5.37258 0 0 5.37258 0 12C0 18.6274 5.37258 24 12 24Z" fill="#77C3B0"/>
<path d="M17.6827 10.1428L16.7121 9.17222C16.5663 9.02564 16.3928 8.9095 16.2017 8.83054C16.0106 8.75158 15.8057 8.71136 15.599 8.71223H15.4495V8.55698C15.4495 8.28501 15.3851 8.02627 15.2494 7.7934C15.1795 7.65835 15.0876 7.53592 14.9774 7.43116L14.0068 6.46001C13.8609 6.31336 13.6873 6.19718 13.4961 6.11822C13.3049 6.03925 13.0999 5.99907 12.8931 6.00002H8.42083C7.99994 6.00002 7.6055 6.16216 7.30766 6.46001L6.33708 7.43058C6.1901 7.5748 6.07363 7.74711 5.9946 7.93726C5.91558 8.12741 5.87561 8.33152 5.87709 8.53743L5.85122 12.732C5.84547 13.1523 6.01336 13.5599 6.31121 13.8578L7.28178 14.8289C7.42765 14.9754 7.60117 15.0915 7.79227 15.1703C7.98337 15.2492 8.18823 15.2893 8.39496 15.2883H8.56975V15.4436C8.56975 15.7156 8.63473 15.9743 8.77042 16.2072C8.84172 16.3434 8.932 16.4659 9.04239 16.5694L10.013 17.5411C10.159 17.6874 10.3325 17.8033 10.5236 17.882C10.7147 17.9608 10.9195 18.0009 11.1261 18H15.6053C16.0262 18 16.4206 17.8384 16.7185 17.5406L17.6896 16.57C17.836 16.424 17.9519 16.2505 18.0308 16.0594C18.1096 15.8683 18.1498 15.6635 18.149 15.4568V11.2496C18.1479 11.0436 18.1062 10.8398 18.0263 10.6499C17.9464 10.4599 17.8298 10.2876 17.6833 10.1428H17.6827ZM8.39496 13.8641C8.35388 13.8642 8.31443 13.848 8.28514 13.8193L7.79985 13.3334L7.31398 12.8481C7.29314 12.8236 7.27766 12.795 7.26856 12.7642V8.54433C7.26856 8.49833 7.28811 8.45981 7.31456 8.43393L8.28514 7.46336C8.29778 7.45013 8.31101 7.44381 8.32366 7.43748C8.34764 7.42497 8.37423 7.41827 8.40128 7.41793H12.8804C12.9063 7.41793 12.9259 7.42426 12.9517 7.43748C12.9713 7.44381 12.9839 7.45703 12.9971 7.46968L13.9677 8.44083C13.9819 8.45298 13.993 8.46836 13.9999 8.48568C14.0068 8.49258 14.0068 8.49891 14.0068 8.50523C14.0068 8.51156 14.0126 8.51846 14.0126 8.52478C14.0126 8.53111 14.0195 8.55066 14.0195 8.56331V8.7703C14.0195 8.86115 13.9482 8.92555 13.8642 8.92555H13.088C13.0467 8.92575 13.007 8.90963 12.9776 8.8807L12.5372 8.44083H8.74455L8.58298 8.60183L8.36276 8.82263V12.4663L8.74455 12.8481H12.5308L12.9713 12.4019L12.977 12.395C12.9902 12.3887 13.0035 12.3755 13.0161 12.3691C13.0357 12.3565 13.0621 12.3565 13.0811 12.3565H13.8573C13.9091 12.3565 13.9551 12.3824 13.9873 12.4209C14.0074 12.447 14.0187 12.4788 14.0195 12.5117V12.732C14.0194 12.7731 14.0031 12.8126 13.9741 12.8418L13.4888 13.3271L13.0035 13.8124C12.9972 13.8193 12.9839 13.8256 12.9776 13.8319C12.9776 13.8319 12.9713 13.8382 12.9644 13.8382C12.9581 13.8451 12.9517 13.8451 12.9448 13.8451C12.9391 13.8451 12.9391 13.8451 12.9322 13.8515C12.9259 13.8515 12.919 13.8578 12.9126 13.8578H8.39496V13.8641ZM16.7317 15.4436C16.7314 15.4848 16.7149 15.5243 16.6857 15.5534L15.7151 16.5246C15.7038 16.5353 15.6908 16.5441 15.6766 16.5504C15.6526 16.563 15.626 16.5697 15.599 16.57H11.1198C11.0948 16.5696 11.0702 16.5629 11.0485 16.5504C11.0312 16.5435 11.0158 16.5324 11.0037 16.5182L10.0325 15.5471C10.0199 15.5344 10.0066 15.5212 10.0003 15.5017C9.99342 15.4959 9.99342 15.489 9.99342 15.4827C9.99342 15.4758 9.98767 15.4695 9.98767 15.4631C9.98767 15.4568 9.98077 15.4373 9.98077 15.424V15.217C9.98077 15.1268 10.0521 15.0618 10.136 15.0618H10.9122C10.9582 15.0618 10.9968 15.0814 11.0226 15.1072L11.4631 15.5471H15.2494L15.4109 15.3855L15.6312 15.1653V11.5216L15.2494 11.1392H11.4694L11.0295 11.586L11.0226 11.5923C11.01 11.5992 10.9968 11.6119 10.9841 11.6182C10.9646 11.6314 10.9387 11.6314 10.9191 11.6314H10.1429C10.1178 11.6309 10.0931 11.6249 10.0706 11.6136C10.0481 11.6024 10.0284 11.5863 10.013 11.5665C9.99295 11.5405 9.98167 11.5089 9.98077 11.4762V11.256C9.98076 11.2356 9.98476 11.2154 9.99256 11.1965C10.0004 11.1777 10.0118 11.1606 10.0262 11.1461L10.5115 10.6609L10.9968 10.175C11.0037 10.1687 11.0163 10.1623 11.0226 10.1554C11.0226 10.1554 11.0295 10.1497 11.0359 10.1497C11.0422 10.1428 11.0485 10.1428 11.0554 10.1428C11.0612 10.1428 11.0612 10.1428 11.0681 10.1365C11.0744 10.1365 11.0813 10.1296 11.0876 10.1296H15.599C15.6438 10.1296 15.6829 10.1491 15.7088 10.1756L16.1941 10.6609L16.6799 11.1461C16.6857 11.1525 16.6926 11.1588 16.6989 11.172C16.7104 11.19 16.7191 11.2096 16.7248 11.2301V11.2623C16.7317 11.2496 16.7317 15.4436 16.7317 15.4436Z" fill="white"/>
</g>
<defs>
<clipPath id="clip0_1265_22127">
<rect width="24" height="24" fill="white"/>
</clipPath>
</defs>
</svg>