<svg width="24" height="24" viewBox="0 0 24 24" fill="none" xmlns="http://www.w3.org/2000/svg">
<path fill-rule="evenodd" clip-rule="evenodd" d="M5.43492 5.70568C7.57733 5.39067 9.76951 5.22746 12.0003 5.22746C14.2308 5.22746 16.4228 5.39064 18.5651 5.70559C19.6679 5.86774 20.4834 6.84592 20.4834 8.01472V13.7198C20.4834 14.8886 19.6679 15.8668 18.565 16.029C16.8311 16.2839 15.0645 16.4394 13.2713 16.4894C12.7132 16.5049 12.1747 16.7292 11.7728 17.131L9.20379 19.7001V17.1286C9.20379 16.7324 8.89888 16.403 8.50393 16.3725C7.47062 16.2927 6.44722 16.1777 5.43492 16.0289C4.33208 15.8667 3.51659 14.8885 3.51659 13.7197V8.0148C3.51659 6.84602 4.33208 5.86783 5.43492 5.70568ZM12.0003 3.71088C9.69544 3.71088 7.42953 3.87951 5.2143 4.20522C3.31421 4.4846 2 6.14836 2 8.0148V13.7197C2 15.5862 3.3142 17.2499 5.2143 17.5293C6.03188 17.6495 6.85638 17.7483 7.6872 17.8252V21.5308C7.6872 21.8375 7.87196 22.114 8.15531 22.2314C8.43867 22.3487 8.76482 22.2838 8.98169 22.067L12.8452 18.2034C12.966 18.0827 13.1329 18.0104 13.3135 18.0054C15.1666 17.9537 16.9928 17.793 18.7856 17.5294C20.6858 17.2501 22 15.5863 22 13.7198V8.01472C22 6.14827 20.6858 4.48449 18.7857 4.20514C16.5706 3.87948 14.3049 3.71088 12.0003 3.71088ZM8.96334 12.5009C8.60584 12.7709 8.52417 13.2775 8.78334 13.6459C8.94584 13.8767 9.20417 14 9.46584 14C9.63167 14 9.79834 13.9509 9.94501 13.8484C10.07 13.76 11.1667 12.9242 11.1667 10.7217C11.1667 10.679 11.1559 10.6399 11.1451 10.6008C11.1403 10.5834 11.1355 10.566 11.1317 10.5484V9.00002C11.1317 8.54002 10.7583 8.16669 10.2983 8.16669H8.63167C8.17167 8.16669 7.79834 8.54002 7.79834 9.00002V10.6667C7.79834 11.1267 8.17167 11.5 8.63167 11.5H9.42834C9.29084 12.1934 9.00001 12.4692 8.96334 12.5009ZM15.3333 8.16669H13.6667C13.2067 8.16669 12.8333 8.54002 12.8333 9.00002V10.6667C12.8333 11.1267 13.2067 11.5 13.6667 11.5H14.4283C14.2908 12.1934 14 12.4692 13.9633 12.5009C13.6058 12.7709 13.5242 13.2775 13.7833 13.6459C13.9458 13.8767 14.2042 14 14.4658 14C14.6317 14 14.7983 13.9509 14.945 13.8484C15.07 13.76 16.1667 12.9242 16.1667 10.7217C16.1667 10.7168 16.1653 10.7122 16.1638 10.7075C16.1625 10.7032 16.1612 10.6989 16.1608 10.6942C16.1612 10.6901 16.1624 10.6862 16.1636 10.6822C16.1651 10.6773 16.1667 10.6722 16.1667 10.6667V9.00002C16.1667 8.54002 15.7933 8.16669 15.3333 8.16669Z" fill="#6B7084"/>
</svg>
