<svg viewBox="0 0 24 24" fill="none" xmlns="http://www.w3.org/2000/svg">
<path fill-rule="evenodd" clip-rule="evenodd" d="M5.43492 5.70568C7.57733 5.39067 9.76951 5.22746 12.0003 5.22746C14.2308 5.22746 16.4228 5.39064 18.5651 5.70559C19.6679 5.86774 20.4834 6.84592 20.4834 8.01472V13.7198C20.4834 14.8886 19.6679 15.8668 18.565 16.029C16.8311 16.2839 15.0645 16.4394 13.2713 16.4894C12.7132 16.5049 12.1747 16.7292 11.7728 17.131L9.20379 19.7001V17.1286C9.20379 16.7324 8.89888 16.403 8.50393 16.3725C7.47062 16.2927 6.44722 16.1777 5.43492 16.0289C4.33208 15.8667 3.51659 14.8885 3.51659 13.7197V8.0148C3.51659 6.84602 4.33208 5.86783 5.43492 5.70568ZM12.0003 3.71088C9.69544 3.71088 7.42953 3.87951 5.2143 4.20522C3.31421 4.4846 2 6.14836 2 8.0148V13.7197C2 15.5862 3.3142 17.2499 5.2143 17.5293C6.03188 17.6495 6.85638 17.7483 7.6872 17.8252V21.5308C7.6872 21.8375 7.87196 22.114 8.15531 22.2314C8.43867 22.3487 8.76482 22.2838 8.98169 22.067L12.8452 18.2034C12.966 18.0827 13.1329 18.0104 13.3135 18.0054C15.1666 17.9537 16.9928 17.793 18.7856 17.5294C20.6858 17.2501 22 15.5863 22 13.7198V8.01472C22 6.14827 20.6858 4.48449 18.7857 4.20514C16.5706 3.87948 14.3049 3.71088 12.0003 3.71088ZM7.24413 11.7442C6.9183 12.0692 6.9183 12.5967 7.24413 12.9225C7.32246 13.0009 9.18663 14.8334 12 14.8334C14.8125 14.8334 16.6775 13.0009 16.7558 12.9225C17.0816 12.5967 17.0816 12.0692 16.7558 11.7442C16.43 11.4184 15.9033 11.4184 15.5775 11.7442C15.5633 11.7584 14.13 13.1667 12 13.1667C9.91724 13.1667 8.46594 11.7856 8.42335 11.745C8.42289 11.7446 8.4226 11.7443 8.42246 11.7442C8.09663 11.4184 7.56996 11.4184 7.24413 11.7442ZM13.6666 9.00002C13.6666 9.46085 14.0391 9.83335 14.5 9.83335C14.9608 9.83335 15.3333 9.46085 15.3333 9.00002C15.3333 8.53919 14.9608 8.16669 14.5 8.16669C14.0391 8.16669 13.6666 8.53919 13.6666 9.00002ZM8.66663 9.00002C8.66663 9.46085 9.03913 9.83335 9.49996 9.83335C9.96079 9.83335 10.3333 9.46085 10.3333 9.00002C10.3333 8.53919 9.96079 8.16669 9.49996 8.16669C9.03913 8.16669 8.66663 8.53919 8.66663 9.00002Z" fill="currentColor"/>
</svg>