<svg viewBox="0 0 24 24" fill="none" xmlns="http://www.w3.org/2000/svg">
<path fill-rule="evenodd" clip-rule="evenodd" d="M5.43492 5.70568C7.57733 5.39067 9.76951 5.22746 12.0003 5.22746C14.2308 5.22746 16.4228 5.39064 18.5651 5.70559C19.6679 5.86774 20.4834 6.84592 20.4834 8.01472V13.7198C20.4834 14.8886 19.6679 15.8668 18.565 16.029C16.8311 16.2839 15.0645 16.4394 13.2713 16.4894C12.7132 16.5049 12.1747 16.7292 11.7728 17.131L9.20379 19.7001V17.1286C9.20379 16.7324 8.89888 16.403 8.50393 16.3725C7.47062 16.2927 6.44722 16.1777 5.43492 16.0289C4.33208 15.8667 3.51659 14.8885 3.51659 13.7197V8.0148C3.51659 6.84602 4.33208 5.86783 5.43492 5.70568ZM12.0003 3.71088C9.69544 3.71088 7.42953 3.87951 5.2143 4.20522C3.31421 4.4846 2 6.14836 2 8.0148V13.7197C2 15.5862 3.3142 17.2499 5.2143 17.5293C6.03188 17.6495 6.85638 17.7483 7.6872 17.8252V21.5308C7.6872 21.8375 7.87196 22.114 8.15531 22.2314C8.43867 22.3487 8.76482 22.2838 8.98169 22.067L12.8452 18.2034C12.966 18.0827 13.1329 18.0104 13.3135 18.0054C15.1666 17.9537 16.9928 17.793 18.7856 17.5294C20.6858 17.2501 22 15.5863 22 13.7198V8.01472C22 6.14827 20.6858 4.48449 18.7857 4.20514C16.5706 3.87948 14.3049 3.71088 12.0003 3.71088ZM8.87159 13.1667L8.69909 13.7708C8.57242 14.2133 8.82825 14.675 9.27075 14.8008C9.34742 14.8233 9.42492 14.8342 9.49992 14.8342C9.86242 14.8342 10.1966 14.595 10.3008 14.2292L10.6049 13.1667H12.2049L12.0324 13.7708C11.9058 14.2133 12.1616 14.675 12.6041 14.8008C12.6808 14.8233 12.7583 14.8342 12.8333 14.8342C13.1958 14.8342 13.5299 14.595 13.6341 14.2292L13.9383 13.1667H14.4999C14.9599 13.1667 15.3333 12.7933 15.3333 12.3333C15.3333 11.8733 14.9599 11.5 14.4999 11.5H14.4141L14.6524 10.6667H15.3333C15.7933 10.6667 16.1666 10.2933 16.1666 9.83334C16.1666 9.37334 15.7933 9 15.3333 9H15.1283L15.3008 8.39584C15.4274 7.95334 15.1716 7.49167 14.7291 7.36584C14.2866 7.23834 13.8249 7.495 13.6991 7.9375L13.3949 9H11.7949L11.9674 8.39584C12.0941 7.95334 11.8383 7.49167 11.3958 7.36584C10.9533 7.23834 10.4916 7.495 10.3658 7.9375L10.0616 9H9.49992C9.03992 9 8.66659 9.37334 8.66659 9.83334C8.66659 10.2933 9.03992 10.6667 9.49992 10.6667H9.58575L9.34742 11.5H8.66659C8.20659 11.5 7.83325 11.8733 7.83325 12.3333C7.83325 12.7933 8.20659 13.1667 8.66659 13.1667H8.87159ZM12.9191 10.6667L12.6807 11.5H11.0807L11.3191 10.6667H12.9191Z" fill="currentColor"/>
</svg>