<svg width="24" height="24" viewBox="0 0 24 24" fill="none" xmlns="http://www.w3.org/2000/svg">
<g clip-path="url(#clip0_1265_22123)">
<path d="M12 24C18.6274 24 24 18.6274 24 12C24 5.37258 18.6274 0 12 0C5.37258 0 0 5.37258 0 12C0 18.6274 5.37258 24 12 24Z" fill="#00D395"/>
<path fill-rule="evenodd" clip-rule="evenodd" d="M6.97391 15.9108C6.79992 15.8079 6.65557 15.6617 6.55496 15.4864C6.45436 15.311 6.40093 15.1126 6.3999 14.9105V12.6333C6.3999 12.3624 6.62531 12.1433 6.90111 12.1447C6.98931 12.1447 7.07612 12.1678 7.15312 12.2112L12.4053 15.208C12.7126 15.383 12.9023 15.705 12.9023 16.0529V18.4119C12.9019 18.4899 12.886 18.567 12.8556 18.6389C12.8253 18.7107 12.781 18.7758 12.7254 18.8304C12.6697 18.8851 12.6039 18.9282 12.5315 18.9573C12.4592 18.9864 12.3818 19.0009 12.3038 19C12.193 19 12.0842 18.9703 11.9888 18.9139L6.97391 15.9108ZM14.8029 11.5875C15.1109 11.7625 15.2985 12.0852 15.2999 12.4324V17.2205C15.2999 17.3619 15.2229 17.4928 15.0962 17.5614L13.9467 18.1942C13.932 18.2025 13.9162 18.2088 13.8998 18.2131V15.5545C13.8998 15.2101 13.7157 14.8909 13.4126 14.7145L8.80095 12.0138V9.01287C8.80095 8.74196 9.02635 8.52286 9.30286 8.52426C9.39096 8.52439 9.47753 8.5473 9.55416 8.59076L14.8043 11.5875H14.8029ZM17.1024 8.05105C17.4104 8.22605 17.6001 8.54806 17.6001 8.89736V15.8905C17.5992 15.9616 17.5792 16.0311 17.5421 16.0917C17.505 16.1523 17.4523 16.2018 17.3894 16.2349L16.2995 16.811V11.9417C16.2995 11.598 16.1147 11.2795 15.8144 11.1024L11.0991 8.33525V5.4897C11.0991 5.4029 11.1236 5.3182 11.1663 5.24329C11.2349 5.13071 11.3447 5.04926 11.4724 5.01621C11.6 4.98315 11.7355 5.00108 11.8502 5.06619L17.1024 8.05175V8.05105Z" fill="white"/>
</g>
<defs>
<clipPath id="clip0_1265_22123">
<rect width="24" height="24" fill="white"/>
</clipPath>
</defs>
</svg>
