<svg viewBox="0 0 24 24" fill="none" xmlns="http://www.w3.org/2000/svg">
<path fill-rule="evenodd" clip-rule="evenodd" d="M13.8208 20.3333H2.83333C2.37333 20.3333 2 19.96 2 19.5C2 19.04 2.37333 18.6667 2.83333 18.6667H13.8208C14.1658 17.6983 15.0817 17 16.1667 17C17.2517 17 18.1675 17.6983 18.5133 18.6667H21.1667C21.6267 18.6667 22 19.04 22 19.5C22 19.96 21.6267 20.3333 21.1667 20.3333H18.5133C18.1675 21.3008 17.2517 22 16.1667 22C15.0817 22 14.1658 21.3008 13.8208 20.3333ZM17 19.5C17 19.0408 16.6267 18.6667 16.1667 18.6667C15.7075 18.6667 15.3333 19.0408 15.3333 19.5C15.3333 19.9592 15.7075 20.3333 16.1667 20.3333C16.6267 20.3333 17 19.9592 17 19.5ZM5.48667 12.8333H2.83333C2.37333 12.8333 2 12.46 2 12C2 11.54 2.37333 11.1667 2.83333 11.1667H5.48667C5.8325 10.1992 6.74833 9.5 7.83333 9.5C8.91833 9.5 9.83417 10.1992 10.18 11.1667H21.1667C21.6267 11.1667 22 11.54 22 12C22 12.46 21.6267 12.8333 21.1667 12.8333H10.18C9.83417 13.8017 8.91833 14.5 7.83333 14.5C6.74833 14.5 5.8325 13.8017 5.48667 12.8333ZM8.66667 12C8.66667 11.5408 8.29333 11.1667 7.83333 11.1667C7.37333 11.1667 7 11.5408 7 12C7 12.4592 7.37333 12.8333 7.83333 12.8333C8.29333 12.8333 8.66667 12.4592 8.66667 12ZM9.65333 5.33333L2.83333 5.33333C2.37333 5.33333 2 4.96 2 4.5C2 4.04 2.37333 3.66667 2.83333 3.66667L9.65333 3.66667C9.99833 2.69833 10.915 2 12 2C13.085 2 14.0017 2.69833 14.3467 3.66667L21.1667 3.66667C21.6267 3.66667 22 4.04 22 4.5C22 4.96 21.6267 5.33333 21.1667 5.33333L14.3467 5.33333C14.0017 6.30083 13.085 7 12 7C10.915 7 9.99833 6.30083 9.65333 5.33333ZM12.8333 4.5C12.8333 4.04083 12.4592 3.66667 12 3.66667C11.5408 3.66667 11.1667 4.04083 11.1667 4.5C11.1667 4.95917 11.5408 5.33333 12 5.33333C12.4592 5.33333 12.8333 4.95917 12.8333 4.5Z" fill="currentColor"/>
</svg>