<svg width="24" height="24" viewBox="0 0 24 24" fill="none" xmlns="http://www.w3.org/2000/svg">
<circle cx="12" cy="12" r="8" fill="white"/>
<path d="M12 2C10.0222 2 8.08879 2.58649 6.4443 3.6853C4.79981 4.78412 3.51809 6.3459 2.76121 8.17316C2.00433 10.0004 1.8063 12.0111 2.19215 13.9509C2.578 15.8907 3.53041 17.6725 4.92894 19.0711C6.32746 20.4696 8.10929 21.422 10.0491 21.8078C11.9889 22.1937 13.9996 21.9957 15.8268 21.2388C17.6541 20.4819 19.2159 19.2002 20.3147 17.5557C21.4135 15.9112 22 13.9778 22 12C22 9.34783 20.9464 6.80429 19.0711 4.92893C17.1957 3.05357 14.6522 2 12 2V2ZM18.1471 14.951C17.7203 15.8324 17.1086 16.6116 16.3537 17.2353C15.5987 17.8591 14.7182 18.3128 13.772 18.5657C12.8259 18.8185 11.8364 18.8645 10.8709 18.7004C9.90546 18.5364 8.98666 18.1663 8.17712 17.6152C7.36757 17.0641 6.68629 16.345 6.17967 15.5069C5.67305 14.6688 5.35299 13.7314 5.24129 12.7584C5.12958 11.7855 5.22886 10.7999 5.53235 9.86884C5.83584 8.93774 6.33642 8.08297 7 7.36274C7.04902 7.30392 7.13726 7.37255 7.10785 7.44117C6.62416 8.31018 6.37419 9.2898 6.38236 10.2843C6.38236 13.0882 8.28432 15.3627 10.6177 15.3627C12.0882 15.3627 13.3922 14.4608 14.1471 13.0882C14.1547 13.075 14.1667 13.0648 14.181 13.0594C14.1953 13.054 14.211 13.0538 14.2255 13.0588L18.1078 14.8725C18.1471 14.8725 18.1667 14.9118 18.1471 14.951ZM18.1176 9.09804L14.1667 10.9412C14.151 10.9485 14.1331 10.9495 14.1167 10.944C14.1003 10.9386 14.0866 10.927 14.0784 10.9118C13.9043 10.5737 13.6501 10.2834 13.3382 10.066C13.0262 9.84859 12.6658 9.71074 12.2883 9.66444C11.9109 9.61813 11.5279 9.66477 11.1726 9.80029C10.8173 9.93582 10.5005 10.1561 10.2498 10.442C9.99911 10.7279 9.82208 11.0708 9.73413 11.4407C9.64618 11.8107 9.64998 12.1965 9.7452 12.5647C9.84042 12.9328 10.0242 13.2721 10.2805 13.553C10.5367 13.8339 10.8578 14.048 11.2157 14.1765C11.2353 14.1863 11.2255 14.1961 11.2059 14.1961H11.1373C9.05883 14.1961 7.36275 12.1765 7.36275 9.67647V9.51961C7.43138 7.15686 9.36275 5.26471 11.7255 5.17647C11.8137 5.17647 11.902 5.16667 12 5.16667C13.2805 5.16719 14.535 5.52784 15.6202 6.20742C16.7054 6.88699 17.5777 7.8581 18.1373 9.0098C18.1667 9.03921 18.1471 9.07843 18.1176 9.09804Z" fill="url(#paint0_linear_620_19007)"/>
<defs>
<linearGradient id="paint0_linear_620_19007" x1="20.849" y1="20.9382" x2="1.73138" y2="1.62745" gradientUnits="userSpaceOnUse">
<stop stop-color="#3DEDD6"/>
<stop offset="1" stop-color="#2C55DD"/>
</linearGradient>
</defs>
</svg>
