<svg viewBox="0 0 24 24" fill="none" xmlns="http://www.w3.org/2000/svg">
<g clip-path="url(#clip0_620_19010)">
<path d="M11.1384 21.8C11.123 21.8 11.1077 21.8154 11.1077 21.8307C11.1077 21.8461 11.123 21.8615 11.1384 21.8615C11.1538 21.8615 11.1692 21.8461 11.1692 21.8307C11.1846 21.8 11.1692 21.8 11.1384 21.8ZM10.2154 21.4615C10.1846 21.4615 10.1538 21.4923 10.1538 21.5231C10.1538 21.5538 10.1846 21.5846 10.2154 21.5846C10.2461 21.5846 10.2769 21.5538 10.2769 21.5231C10.2769 21.4923 10.2461 21.4615 10.2154 21.4615ZM9.30766 21.0461C9.24612 21.0461 9.19997 21.0923 9.19997 21.1538C9.19997 21.2154 9.24612 21.2615 9.30766 21.2615C9.3692 21.2615 9.41535 21.2154 9.41535 21.1538C9.41535 21.0923 9.3692 21.0461 9.30766 21.0461ZM8.4615 20.5384C8.38458 20.5384 8.32304 20.6 8.32304 20.6769C8.32304 20.7538 8.38458 20.8154 8.4615 20.8154C8.53843 20.8154 8.59997 20.7538 8.59997 20.6769C8.58458 20.6 8.52304 20.5384 8.4615 20.5384ZM7.6615 19.9384C7.5692 19.9384 7.49227 20.0154 7.49227 20.1077C7.49227 20.2 7.5692 20.2769 7.6615 20.2769C7.75381 20.2769 7.83074 20.2 7.83074 20.1077C7.83074 20 7.75381 19.9384 7.6615 19.9384ZM6.92304 19.2461C6.81535 19.2461 6.72304 19.3384 6.72304 19.4461C6.72304 19.5538 6.81535 19.6461 6.92304 19.6461C7.03074 19.6461 7.12304 19.5538 7.12304 19.4461C7.12304 19.3384 7.03074 19.2461 6.92304 19.2461ZM6.2615 18.4923C6.13843 18.4923 6.03074 18.6 6.03074 18.723C6.03074 18.8461 6.13843 18.9538 6.2615 18.9538C6.38458 18.9538 6.49227 18.8461 6.49227 18.723C6.49227 18.6 6.38458 18.4923 6.2615 18.4923ZM5.67689 17.6769C5.52304 17.6769 5.39997 17.8 5.39997 17.9538C5.39997 18.1077 5.52304 18.2307 5.67689 18.2307C5.83074 18.2307 5.95381 18.1077 5.95381 17.9538C5.95381 17.8 5.83074 17.6769 5.67689 17.6769ZM5.50766 17.0923C5.50766 16.923 5.3692 16.7846 5.19997 16.7846C5.03074 16.7846 4.89227 16.923 4.89227 17.0923C4.89227 17.2615 5.03074 17.4 5.19997 17.4C5.3692 17.3846 5.50766 17.2461 5.50766 17.0923ZM5.18458 16.1692C5.18458 15.9846 5.03074 15.8307 4.84612 15.8307C4.6615 15.8307 4.50766 15.9846 4.50766 16.1692C4.50766 16.3538 4.6615 16.5077 4.84612 16.5077C5.03074 16.5077 5.18458 16.3692 5.18458 16.1692ZM4.98458 15.2307C4.98458 15.0307 4.81535 14.8615 4.61535 14.8615C4.41535 14.8615 4.24612 15.0307 4.24612 15.2307C4.24612 15.4307 4.41535 15.6 4.61535 15.6C4.81535 15.6 4.98458 15.4307 4.98458 15.2307ZM4.90766 14.2461C4.90766 14.0154 4.72304 13.8461 4.50766 13.8461C4.29227 13.8461 4.10766 14.0307 4.10766 14.2461C4.10766 14.4615 4.29227 14.6461 4.50766 14.6461C4.72304 14.6615 4.90766 14.4769 4.90766 14.2461ZM4.50766 13.7077C4.75381 13.7077 4.93843 13.5077 4.93843 13.2615C4.93843 13.0154 4.73843 12.8307 4.50766 12.8307C4.2615 12.8307 4.0615 13.0307 4.0615 13.2615C4.07689 13.5077 4.27689 13.7077 4.50766 13.7077ZM4.18458 12.3077C4.18458 12.5692 4.39997 12.7846 4.6615 12.7846C4.92304 12.7846 5.13843 12.5692 5.13843 12.3077C5.13843 12.0461 4.92304 11.8307 4.6615 11.8307C4.39997 11.8307 4.18458 12.0461 4.18458 12.3077ZM18.3692 19.5384C18.3538 19.5384 18.3384 19.5538 18.3384 19.5692C18.3384 19.5846 18.3538 19.6 18.3692 19.6C18.3846 19.6 18.4 19.5846 18.4 19.5692C18.3846 19.5538 18.3846 19.5384 18.3692 19.5384ZM17.4923 19.9692C17.4615 19.9692 17.4307 20 17.4307 20.0307C17.4307 20.0615 17.4615 20.0923 17.4923 20.0923C17.523 20.0923 17.5538 20.0615 17.5538 20.0307C17.5538 19.9846 17.523 19.9692 17.4923 19.9692ZM16.5846 20.2923C16.5384 20.2923 16.4923 20.3384 16.4923 20.3846C16.4923 20.4307 16.5384 20.4769 16.5846 20.4769C16.6307 20.4769 16.6769 20.4307 16.6769 20.3846C16.6769 20.3384 16.6307 20.2923 16.5846 20.2923ZM15.6461 20.5231C15.5846 20.5231 15.523 20.5692 15.523 20.6461C15.523 20.7077 15.5692 20.7692 15.6461 20.7692C15.7077 20.7692 15.7692 20.7077 15.7692 20.6461C15.7538 20.5846 15.7077 20.5231 15.6461 20.5231ZM14.6769 20.6615C14.6 20.6615 14.523 20.7231 14.523 20.8154C14.523 20.8923 14.5846 20.9692 14.6769 20.9692C14.7538 20.9692 14.8307 20.9077 14.8307 20.8154C14.8307 20.7231 14.7538 20.6615 14.6769 20.6615ZM13.6923 20.6923C13.6 20.6923 13.5077 20.7692 13.5077 20.8769C13.5077 20.9692 13.5846 21.0615 13.6923 21.0615C13.7846 21.0615 13.8769 20.9846 13.8769 20.8769C13.8769 20.7692 13.8 20.6923 13.6923 20.6923ZM12.723 20.6154C12.6153 20.6154 12.5077 20.7077 12.5077 20.8307C12.5077 20.9384 12.6 21.0461 12.723 21.0461C12.8307 21.0461 12.9384 20.9538 12.9384 20.8307C12.923 20.7077 12.8307 20.6154 12.723 20.6154ZM11.7538 20.4461C11.6154 20.4461 11.523 20.5538 11.523 20.6769C11.523 20.8154 11.6307 20.923 11.7538 20.923C11.8923 20.923 12 20.8154 12 20.6769C11.9846 20.5538 11.8769 20.4461 11.7538 20.4461ZM10.8153 20.1538C10.6615 20.1538 10.5538 20.2769 10.5538 20.4154C10.5538 20.5692 10.6769 20.6769 10.8153 20.6769C10.9692 20.6769 11.0769 20.5538 11.0769 20.4154C11.0769 20.2615 10.9538 20.1538 10.8153 20.1538ZM9.90766 19.723C9.73843 19.723 9.61535 19.8615 9.61535 20.0154C9.61535 20.1846 9.75381 20.3077 9.90766 20.3077C10.0769 20.3077 10.2 20.1692 10.2 20.0154C10.2154 19.8615 10.0769 19.723 9.90766 19.723ZM9.39997 19.5231C9.39997 19.3384 9.24612 19.2 9.07689 19.2C8.89227 19.2 8.75381 19.3384 8.75381 19.5231C8.75381 19.7077 8.90766 19.8461 9.07689 19.8461C9.24612 19.8461 9.39997 19.7077 9.39997 19.5231ZM8.30766 18.5538C8.10766 18.5538 7.95381 18.7077 7.95381 18.9077C7.95381 19.1077 8.10766 19.2615 8.30766 19.2615C8.50766 19.2615 8.6615 19.1077 8.6615 18.9077C8.6615 18.7077 8.50766 18.5538 8.30766 18.5538ZM7.63073 17.8154C7.41535 17.8154 7.24612 17.9846 7.24612 18.2C7.24612 18.4154 7.41535 18.5846 7.63073 18.5846C7.84612 18.5846 8.01535 18.4154 8.01535 18.2C8.01535 17.9846 7.84612 17.8154 7.63073 17.8154ZM7.04612 17.8307C7.27689 17.8307 7.4615 17.6461 7.4615 17.4154C7.4615 17.1846 7.27689 17 7.04612 17C6.81535 17 6.63074 17.1846 6.63074 17.4154C6.63074 17.6461 6.81535 17.8307 7.04612 17.8307ZM7.01535 16.5692C7.01535 16.323 6.81535 16.1231 6.5692 16.1231C6.32304 16.1231 6.12304 16.323 6.12304 16.5692C6.12304 16.8154 6.32304 17.0154 6.5692 17.0154C6.81535 17.0154 7.01535 16.8154 7.01535 16.5692ZM21.8769 12.8461C21.8615 12.8461 21.8461 12.8615 21.8461 12.8769C21.8461 12.8923 21.8615 12.9077 21.8769 12.9077C21.8923 12.9077 21.9077 12.8923 21.9077 12.8769C21.8923 12.8461 21.8769 12.8461 21.8769 12.8461ZM21.5846 13.7538C21.5538 13.7538 21.5384 13.7846 21.5384 13.8C21.5384 13.8307 21.5692 13.8461 21.5846 13.8461C21.6154 13.8461 21.6307 13.8154 21.6307 13.8C21.6307 13.7692 21.6 13.7538 21.5846 13.7538ZM21.1846 14.6154C21.1384 14.6154 21.1077 14.6461 21.1077 14.6923C21.1077 14.7384 21.1384 14.7692 21.1846 14.7692C21.2307 14.7692 21.2615 14.7384 21.2615 14.6923C21.2769 14.6615 21.2307 14.6154 21.1846 14.6154ZM20.7077 15.4461C20.6461 15.4461 20.6 15.4923 20.6 15.5538C20.6 15.6154 20.6461 15.6615 20.7077 15.6615C20.7692 15.6615 20.8153 15.6154 20.8153 15.5538C20.8153 15.4923 20.7692 15.4461 20.7077 15.4461ZM20.1384 16.2154C20.0615 16.2154 20 16.2769 20 16.3538C20 16.4307 20.0615 16.4923 20.1384 16.4923C20.2153 16.4923 20.2769 16.4307 20.2769 16.3538C20.2769 16.2769 20.2153 16.2154 20.1384 16.2154ZM19.4923 16.923C19.4 16.923 19.3384 17 19.3384 17.0769C19.3384 17.1692 19.4153 17.2307 19.4923 17.2307C19.5846 17.2307 19.6461 17.1538 19.6461 17.0769C19.6615 17 19.5846 16.923 19.4923 16.923ZM18.7692 17.5692C18.6615 17.5692 18.5846 17.6461 18.5846 17.7538C18.5846 17.8615 18.6615 17.9384 18.7692 17.9384C18.8769 17.9384 18.9538 17.8615 18.9538 17.7538C18.9538 17.6461 18.8769 17.5692 18.7692 17.5692ZM17.9846 18.1077C17.8615 18.1077 17.7692 18.2 17.7692 18.323C17.7692 18.4461 17.8615 18.5384 17.9846 18.5384C18.1077 18.5384 18.2 18.4461 18.2 18.323C18.2 18.2154 18.1077 18.1077 17.9846 18.1077ZM17.123 18.5692C16.9846 18.5692 16.8769 18.6769 16.8769 18.8154C16.8769 18.9538 16.9846 19.0615 17.123 19.0615C17.2615 19.0615 17.3692 18.9538 17.3692 18.8154C17.3692 18.6769 17.2615 18.5692 17.123 18.5692ZM16.2154 18.8923C16.0615 18.8923 15.9538 19.0154 15.9538 19.1538C15.9538 19.3077 16.0769 19.4154 16.2154 19.4154C16.3692 19.4154 16.4769 19.2923 16.4769 19.1538C16.4769 19.0154 16.3692 18.8923 16.2154 18.8923ZM15.2615 19.1077C15.0923 19.1077 14.9692 19.2461 14.9692 19.4C14.9692 19.5692 15.1077 19.6923 15.2615 19.6923C15.4307 19.6923 15.5538 19.5538 15.5538 19.4C15.5538 19.2461 15.4307 19.1077 15.2615 19.1077ZM14.2923 19.1846C14.1077 19.1846 13.9692 19.3231 13.9692 19.5077C13.9692 19.6769 14.1077 19.8307 14.2923 19.8307C14.4769 19.8307 14.6153 19.6923 14.6153 19.5077C14.6153 19.3384 14.4769 19.1846 14.2923 19.1846ZM13.6615 19.4923C13.6615 19.3077 13.5077 19.1384 13.3077 19.1384C13.123 19.1384 12.9692 19.2923 12.9692 19.4923C12.9692 19.6769 13.123 19.8461 13.3077 19.8461C13.5077 19.8461 13.6615 19.6923 13.6615 19.4923ZM12.723 19.3538C12.723 19.1538 12.5538 18.9846 12.3538 18.9846C12.1538 18.9846 11.9846 19.1538 11.9846 19.3538C11.9846 19.5538 12.1538 19.723 12.3538 19.723C12.5538 19.723 12.723 19.5538 12.723 19.3538ZM11.8 19.0769C11.8 18.8615 11.6153 18.6769 11.4 18.6769C11.1846 18.6769 11 18.8615 11 19.0769C11 19.2923 11.1846 19.4769 11.4 19.4769C11.6307 19.4769 11.8 19.2923 11.8 19.0769ZM10.9384 18.6923C10.9384 18.4615 10.7538 18.2615 10.5077 18.2615C10.2769 18.2615 10.0769 18.4461 10.0769 18.6923C10.0769 18.923 10.2615 19.1231 10.5077 19.1231C10.7384 19.1077 10.9384 18.923 10.9384 18.6923ZM19.6153 5.6769C19.6307 5.6769 19.6461 5.66151 19.6461 5.64613C19.6461 5.63074 19.6307 5.61536 19.6153 5.61536C19.6 5.61536 19.5846 5.63074 19.5846 5.64613C19.5846 5.66151 19.6 5.6769 19.6153 5.6769ZM20.0615 6.5692C20.0923 6.5692 20.1077 6.53843 20.1077 6.52305C20.1077 6.49228 20.0769 6.4769 20.0615 6.4769C20.0307 6.4769 20.0153 6.50767 20.0153 6.52305C20.0153 6.53843 20.0307 6.5692 20.0615 6.5692ZM20.4307 7.50767C20.4769 7.50767 20.5077 7.4769 20.5077 7.43074C20.5077 7.38459 20.4769 7.35382 20.4307 7.35382C20.3846 7.35382 20.3538 7.38459 20.3538 7.43074C20.3538 7.46151 20.3846 7.50767 20.4307 7.50767ZM20.6923 8.4769C20.7538 8.4769 20.8 8.43074 20.8 8.3692C20.8 8.30767 20.7538 8.26151 20.6923 8.26151C20.6307 8.26151 20.5846 8.30767 20.5846 8.3692C20.5846 8.43074 20.6307 8.4769 20.6923 8.4769ZM20.723 9.33843C20.723 9.41536 20.7846 9.4769 20.8615 9.4769C20.9384 9.4769 21 9.41536 21 9.33843C21 9.26151 20.9384 9.19997 20.8615 9.19997C20.7846 9.19997 20.723 9.26151 20.723 9.33843ZM20.9077 10.1538C20.8153 10.1538 20.7538 10.2307 20.7538 10.3077C20.7538 10.4 20.8307 10.4615 20.9077 10.4615C21 10.4615 21.0615 10.3846 21.0615 10.3077C21.0769 10.2154 21 10.1538 20.9077 10.1538ZM20.8769 11.1077C20.7692 11.1077 20.6923 11.1846 20.6923 11.2923C20.6923 11.4 20.7692 11.4769 20.8769 11.4769C20.9846 11.4769 21.0615 11.4 21.0615 11.2923C21.0615 11.1846 20.9692 11.1077 20.8769 11.1077ZM20.723 12.0461C20.6 12.0461 20.5077 12.1384 20.5077 12.2615C20.5077 12.3846 20.6 12.4769 20.723 12.4769C20.8461 12.4769 20.9384 12.3846 20.9384 12.2615C20.9384 12.1384 20.8461 12.0461 20.723 12.0461ZM20.6923 13.2C20.6923 13.0615 20.5846 12.9538 20.4461 12.9538C20.3077 12.9538 20.2 13.0615 20.2 13.2C20.2 13.3384 20.3077 13.4461 20.4461 13.4461C20.5846 13.4461 20.6923 13.3384 20.6923 13.2ZM20.0615 13.8307C19.9077 13.8307 19.8 13.9538 19.8 14.0923C19.8 14.2461 19.923 14.3538 20.0615 14.3538C20.2153 14.3538 20.323 14.2307 20.323 14.0923C20.3384 13.9538 20.2153 13.8307 20.0615 13.8307ZM19.5692 14.6461C19.4 14.6461 19.2769 14.7846 19.2769 14.9384C19.2769 15.1077 19.4153 15.2307 19.5692 15.2307C19.7384 15.2307 19.8615 15.0923 19.8615 14.9384C19.8615 14.7692 19.723 14.6461 19.5692 14.6461ZM18.9538 15.3846C18.7846 15.3846 18.6307 15.5231 18.6307 15.7077C18.6307 15.8923 18.7692 16.0307 18.9538 16.0307C19.1384 16.0307 19.2769 15.8923 19.2769 15.7077C19.2769 15.5231 19.123 15.3846 18.9538 15.3846ZM18.2461 16.0307C18.0615 16.0307 17.8923 16.1846 17.8923 16.3846C17.8923 16.5692 18.0461 16.7384 18.2461 16.7384C18.4307 16.7384 18.6 16.5846 18.6 16.3846C18.6 16.1846 18.4461 16.0307 18.2461 16.0307ZM17.4615 16.5846C17.2615 16.5846 17.0923 16.7538 17.0923 16.9538C17.0923 17.1538 17.2615 17.323 17.4615 17.323C17.6615 17.323 17.8307 17.1538 17.8307 16.9538C17.8307 16.7538 17.6615 16.5846 17.4615 16.5846ZM16.6 17.0307C16.3846 17.0307 16.2 17.2154 16.2 17.4307C16.2 17.6461 16.3846 17.8307 16.6 17.8307C16.8153 17.8307 17 17.6461 17 17.4307C17 17.2154 16.8307 17.0307 16.6 17.0307ZM15.6923 17.3692C15.4615 17.3692 15.2615 17.5538 15.2615 17.8C15.2615 18.0307 15.4461 18.2307 15.6923 18.2307C15.923 18.2307 16.123 18.0461 16.123 17.8C16.123 17.5692 15.923 17.3692 15.6923 17.3692ZM12.9077 2.1692C12.923 2.1692 12.9384 2.15382 12.9384 2.13844C12.9384 2.12305 12.923 2.10767 12.9077 2.10767C12.8923 2.10767 12.8769 2.12305 12.8769 2.13844C12.8769 2.15382 12.8923 2.1692 12.9077 2.1692ZM13.8461 2.4769C13.8769 2.4769 13.8923 2.44613 13.8923 2.43074C13.8923 2.39997 13.8615 2.38459 13.8461 2.38459C13.8153 2.38459 13.7846 2.41536 13.7846 2.43074C13.7846 2.46151 13.8153 2.4769 13.8461 2.4769ZM14.7384 2.89228C14.7846 2.89228 14.8154 2.86151 14.8154 2.81536C14.8154 2.7692 14.7846 2.73844 14.7384 2.73844C14.6923 2.73844 14.6615 2.7692 14.6615 2.81536C14.6615 2.86151 14.6923 2.89228 14.7384 2.89228ZM15.6 3.39997C15.6615 3.39997 15.7077 3.35382 15.7077 3.29228C15.7077 3.23074 15.6615 3.18459 15.6 3.18459C15.5384 3.18459 15.4923 3.23074 15.4923 3.29228C15.4923 3.35382 15.5384 3.39997 15.6 3.39997ZM16.4 3.99997C16.4769 3.99997 16.5384 3.93844 16.5384 3.86151C16.5384 3.78459 16.4769 3.72305 16.4 3.72305C16.323 3.72305 16.2615 3.78459 16.2615 3.86151C16.2615 3.93844 16.323 3.99997 16.4 3.99997ZM17.123 4.6769C17.2154 4.6769 17.2769 4.59997 17.2769 4.52305C17.2769 4.43074 17.2 4.3692 17.123 4.3692C17.0307 4.3692 16.9692 4.44613 16.9692 4.52305C16.9692 4.59997 17.0461 4.6769 17.123 4.6769ZM17.7846 5.41536C17.8923 5.41536 17.9692 5.33843 17.9692 5.23074C17.9692 5.12305 17.8923 5.04613 17.7846 5.04613C17.6769 5.04613 17.6 5.12305 17.6 5.23074C17.6 5.33843 17.6923 5.41536 17.7846 5.41536ZM18.3692 6.23074C18.4923 6.23074 18.5846 6.13843 18.5846 6.01536C18.5846 5.89228 18.4923 5.79997 18.3692 5.79997C18.2461 5.79997 18.1538 5.89228 18.1538 6.01536C18.1538 6.13843 18.2461 6.23074 18.3692 6.23074ZM18.8461 7.12305C18.9846 7.12305 19.0923 7.01536 19.0923 6.8769C19.0923 6.73843 18.9846 6.63074 18.8461 6.63074C18.7077 6.63074 18.6 6.73843 18.6 6.8769C18.6 7.01536 18.7077 7.12305 18.8461 7.12305ZM18.9384 7.78459C18.9384 7.93843 19.0615 8.04613 19.2 8.04613C19.3538 8.04613 19.4615 7.92305 19.4615 7.78459C19.4615 7.63074 19.3384 7.52305 19.2 7.52305C19.0615 7.52305 18.9384 7.64613 18.9384 7.78459ZM19.1538 8.73843C19.1538 8.90767 19.2923 9.03074 19.4461 9.03074C19.6 9.03074 19.7384 8.89228 19.7384 8.73843C19.7384 8.5692 19.6 8.44613 19.4461 8.44613C19.2769 8.44613 19.1538 8.58459 19.1538 8.73843ZM19.2307 9.70767C19.2307 9.89228 19.3692 10.0307 19.5538 10.0307C19.7384 10.0307 19.8769 9.89228 19.8769 9.70767C19.8769 9.52305 19.7384 9.38459 19.5538 9.38459C19.3846 9.39997 19.2307 9.53843 19.2307 9.70767ZM19.8769 10.6923C19.8769 10.5077 19.723 10.3384 19.523 10.3384C19.3384 10.3384 19.1692 10.4923 19.1692 10.6923C19.1692 10.8769 19.323 11.0461 19.523 11.0461C19.723 11.0461 19.8769 10.8923 19.8769 10.6923ZM19.7692 11.6615C19.7692 11.4615 19.6 11.2923 19.4 11.2923C19.2 11.2923 19.0307 11.4615 19.0307 11.6615C19.0307 11.8615 19.2 12.0307 19.4 12.0307C19.6 12.0307 19.7692 11.8615 19.7692 11.6615ZM19.523 12.6C19.523 12.3846 19.3384 12.2 19.123 12.2C18.9077 12.2 18.723 12.3846 18.723 12.6C18.723 12.8154 18.9077 13 19.123 13C19.3384 13 19.523 12.8307 19.523 12.6ZM18.723 13.0769C18.4923 13.0769 18.2923 13.2615 18.2923 13.5077C18.2923 13.7384 18.4769 13.9384 18.723 13.9384C18.9538 13.9384 19.1538 13.7538 19.1538 13.5077C19.1538 13.2615 18.9692 13.0769 18.723 13.0769ZM5.69227 4.43074C5.70766 4.43074 5.72304 4.41536 5.72304 4.39997C5.72304 4.38459 5.70766 4.3692 5.69227 4.3692C5.67689 4.3692 5.6615 4.38459 5.6615 4.39997C5.6615 4.41536 5.67689 4.43074 5.69227 4.43074ZM6.55381 3.99997C6.58458 3.99997 6.61535 3.9692 6.61535 3.95382C6.61535 3.92305 6.58458 3.90767 6.55381 3.90767C6.52304 3.90767 6.50766 3.93844 6.50766 3.95382C6.50766 3.9692 6.52304 3.99997 6.55381 3.99997ZM7.4615 3.66151C7.50766 3.66151 7.53843 3.63074 7.53843 3.58459C7.53843 3.53844 7.50766 3.50767 7.4615 3.50767C7.41535 3.50767 7.38458 3.53844 7.38458 3.58459C7.38458 3.63074 7.41535 3.66151 7.4615 3.66151ZM8.41535 3.43074C8.47689 3.43074 8.52304 3.38459 8.52304 3.32305C8.52304 3.26151 8.47689 3.21536 8.41535 3.21536C8.35381 3.21536 8.30766 3.26151 8.30766 3.32305C8.30766 3.3692 8.35381 3.43074 8.41535 3.43074ZM9.3692 3.29228C9.44612 3.29228 9.50766 3.23074 9.50766 3.15382C9.50766 3.0769 9.44612 3.01536 9.3692 3.01536C9.29227 3.01536 9.23073 3.0769 9.23073 3.15382C9.24612 3.23074 9.30766 3.29228 9.3692 3.29228ZM10.3538 3.24613C10.4461 3.24613 10.5077 3.1692 10.5077 3.09228C10.5077 2.99997 10.4307 2.93844 10.3538 2.93844C10.2615 2.93844 10.2 3.01536 10.2 3.09228C10.1846 3.18459 10.2615 3.24613 10.3538 3.24613ZM11.3384 3.32305C11.4461 3.32305 11.523 3.24613 11.523 3.13844C11.523 3.03074 11.4461 2.95382 11.3384 2.95382C11.2307 2.95382 11.1538 3.03074 11.1538 3.13844C11.1384 3.24613 11.2307 3.32305 11.3384 3.32305ZM12.2923 3.49228C12.4153 3.49228 12.5077 3.39997 12.5077 3.2769C12.5077 3.15382 12.4153 3.06151 12.2923 3.06151C12.1692 3.06151 12.0769 3.15382 12.0769 3.2769C12.0923 3.39997 12.1846 3.49228 12.2923 3.49228ZM13.2461 3.78459C13.3846 3.78459 13.4923 3.6769 13.4923 3.53844C13.4923 3.39997 13.3846 3.29228 13.2461 3.29228C13.1077 3.29228 13 3.39997 13 3.53844C13 3.6769 13.1077 3.78459 13.2461 3.78459ZM14.1384 4.19997C14.2923 4.19997 14.4 4.0769 14.4 3.93844C14.4 3.78459 14.2769 3.6769 14.1384 3.6769C13.9846 3.6769 13.8769 3.79997 13.8769 3.93844C13.8769 4.09228 14 4.19997 14.1384 4.19997ZM14.6923 4.44613C14.6923 4.61536 14.8307 4.73843 14.9846 4.73843C15.1538 4.73843 15.2769 4.59997 15.2769 4.44613C15.2769 4.2769 15.1384 4.15382 14.9846 4.15382C14.8153 4.15382 14.6923 4.2769 14.6923 4.44613ZM15.7384 5.3692C15.9077 5.3692 16.0615 5.23074 16.0615 5.04613C16.0615 4.8769 15.923 4.72305 15.7384 4.72305C15.5538 4.72305 15.4153 4.86151 15.4153 5.04613C15.4307 5.23074 15.5692 5.3692 15.7384 5.3692ZM16.4307 6.10767C16.6153 6.10767 16.7846 5.95382 16.7846 5.75382C16.7846 5.5692 16.6307 5.39997 16.4307 5.39997C16.2461 5.39997 16.0769 5.55382 16.0769 5.75382C16.0769 5.95382 16.2307 6.10767 16.4307 6.10767ZM17 6.1692C16.8 6.1692 16.6307 6.33843 16.6307 6.53843C16.6307 6.73843 16.8 6.90767 17 6.90767C17.2 6.90767 17.3692 6.73843 17.3692 6.53843C17.3846 6.33843 17.2154 6.1692 17 6.1692ZM17.0769 7.39997C17.0769 7.61536 17.2615 7.79997 17.4769 7.79997C17.6923 7.79997 17.8769 7.61536 17.8769 7.39997C17.8769 7.18459 17.6923 6.99997 17.4769 6.99997C17.2615 6.99997 17.0769 7.18459 17.0769 7.39997ZM17.4153 8.30767C17.4153 8.53843 17.6 8.73843 17.8461 8.73843C18.0769 8.73843 18.2769 8.55382 18.2769 8.30767C18.2769 8.0769 18.0923 7.8769 17.8461 7.8769C17.6 7.89228 17.4153 8.0769 17.4153 8.30767ZM18.0769 8.81536C17.8307 8.81536 17.6307 9.01536 17.6307 9.2769C17.6307 9.52305 17.8307 9.72305 18.0769 9.72305C18.323 9.72305 18.523 9.52305 18.523 9.2769C18.523 9.01536 18.323 8.81536 18.0769 8.81536ZM2.18458 11.0461C2.15381 11.0461 2.13843 11.0615 2.13843 11.0923C2.13843 11.123 2.1692 11.1384 2.18458 11.1384C2.21535 11.1384 2.23074 11.123 2.23074 11.0923C2.23074 11.0769 2.21535 11.0461 2.18458 11.0461ZM2.47689 10.0615C2.41535 10.0615 2.3692 10.1077 2.3692 10.1692C2.3692 10.2307 2.41535 10.2769 2.47689 10.2769C2.53843 10.2769 2.58458 10.2307 2.58458 10.1692C2.5692 10.1077 2.52304 10.0615 2.47689 10.0615ZM3.01535 9.26151C3.01535 9.18459 2.95381 9.10767 2.8615 9.10767C2.78458 9.10767 2.70766 9.1692 2.70766 9.26151C2.70766 9.33843 2.7692 9.41536 2.8615 9.41536C2.93843 9.41536 3.01535 9.35382 3.01535 9.26151ZM3.33843 8.61536C3.44612 8.61536 3.53843 8.52305 3.53843 8.41536C3.53843 8.30767 3.44612 8.21536 3.33843 8.21536C3.23074 8.21536 3.13843 8.30767 3.13843 8.41536C3.13843 8.52305 3.23074 8.61536 3.33843 8.61536ZM3.90766 7.86151C4.04612 7.86151 4.15381 7.75382 4.15381 7.61536C4.15381 7.4769 4.04612 7.3692 3.90766 7.3692C3.7692 7.3692 3.6615 7.4769 3.6615 7.61536C3.6615 7.75382 3.7692 7.86151 3.90766 7.86151ZM4.55381 7.18459C4.72304 7.18459 4.8615 7.04613 4.8615 6.8769C4.8615 6.70767 4.72304 6.5692 4.55381 6.5692C4.38458 6.5692 4.24612 6.70767 4.24612 6.8769C4.2615 7.04613 4.38458 7.18459 4.55381 7.18459ZM5.27689 6.5692C5.47689 6.5692 5.63074 6.41536 5.63074 6.21536C5.63074 6.01536 5.47689 5.86151 5.27689 5.86151C5.07689 5.86151 4.92304 6.01536 4.92304 6.21536C4.92304 6.41536 5.07689 6.5692 5.27689 6.5692ZM6.0615 6.04613C6.29227 6.04613 6.4615 5.86151 6.4615 5.64613C6.4615 5.43074 6.27689 5.24613 6.0615 5.24613C5.84612 5.24613 5.6615 5.43074 5.6615 5.64613C5.6615 5.86151 5.84612 6.04613 6.0615 6.04613ZM6.92304 5.59997C7.1692 5.59997 7.3692 5.39997 7.3692 5.15382C7.3692 4.90767 7.1692 4.70767 6.92304 4.70767C6.67689 4.70767 6.47689 4.90767 6.47689 5.15382C6.4615 5.39997 6.6615 5.59997 6.92304 5.59997Z" fill="black"/>
<path d="M7.83079 5.29235C8.07695 5.29235 8.29233 5.10773 8.3231 4.86158C8.41541 5.00004 8.58464 5.09235 8.76925 5.09235C8.98464 5.09235 9.16925 4.96927 9.26156 4.80004C9.36925 4.9385 9.55387 5.04619 9.73848 5.04619C9.9231 5.04619 10.0769 4.96927 10.1846 4.84619C10.3077 5.01542 10.4923 5.12311 10.7231 5.12311C10.8616 5.12311 10.9846 5.07696 11.0923 5.00004C11.1231 5.04619 11.1385 5.07696 11.1693 5.10773C11 5.12311 10.8616 5.20004 10.7385 5.30773C10.6154 5.20004 10.4462 5.12311 10.2616 5.12311C10.0308 5.12311 9.83079 5.23081 9.69233 5.41542C9.58464 5.32311 9.44618 5.27696 9.29233 5.27696C9.03079 5.27696 8.80002 5.43081 8.69233 5.66158C8.61541 5.58465 8.49233 5.5385 8.35387 5.5385C8.06156 5.5385 7.81541 5.7385 7.75387 6.01542C7.66156 5.95388 7.55387 5.92311 7.44618 5.92311C7.1231 5.92311 6.86156 6.18465 6.86156 6.50773C6.78464 6.46158 6.69233 6.43081 6.58464 6.43081C6.27695 6.43081 6.04618 6.67696 6.04618 6.96927C6.04618 7.01542 6.06156 7.07696 6.06156 7.12311C5.98464 7.07696 5.89233 7.04619 5.80002 7.04619C5.5231 7.04619 5.29233 7.27696 5.29233 7.55388C5.29233 7.83081 5.5231 8.06158 5.80002 8.06158C6.07695 8.06158 6.30771 7.83081 6.30771 7.55388C6.30771 7.50773 6.30771 7.46158 6.29233 7.43081C6.38464 7.49235 6.47695 7.52311 6.58464 7.52311C6.87695 7.52311 7.1231 7.29235 7.1231 7.00004C7.21541 7.06158 7.3231 7.09235 7.43079 7.09235H7.46156C7.33848 7.20004 7.26156 7.35388 7.24618 7.5385C7.20002 7.5385 7.16925 7.52311 7.1231 7.52311C6.76925 7.52311 6.47695 7.81542 6.47695 8.16927V8.24619H6.40002C6.06156 8.24619 5.80002 8.52311 5.80002 8.84619C5.80002 8.90773 5.81541 8.98465 5.83079 9.04619H5.80002C5.47695 9.04619 5.23079 9.30773 5.23079 9.61542C5.23079 9.72311 5.26156 9.83081 5.3231 9.90773H5.30771C5.01541 9.90773 4.76925 10.1539 4.76925 10.4462C4.76925 10.6 4.83079 10.7385 4.93848 10.8462H4.9231C4.64618 10.8462 4.41541 11.077 4.41541 11.3539C4.41541 11.6308 4.64618 11.8616 4.9231 11.8616C5.20002 11.8616 5.43079 11.6308 5.43079 11.3539C5.43079 11.2154 5.36925 11.0923 5.27695 11H5.30771C5.46156 11 5.60002 10.9385 5.70772 10.8308V10.8462C5.70772 10.9847 5.75387 11.1077 5.83079 11.2154C5.60002 11.2923 5.43079 11.5231 5.43079 11.7693C5.43079 11.9539 5.50772 12.1077 5.64618 12.2154C5.44618 12.3077 5.3231 12.5077 5.3231 12.7231C5.3231 12.9385 5.44618 13.1231 5.63079 13.2308C5.46156 13.3231 5.33848 13.4923 5.33848 13.7077C5.33848 13.9693 5.5231 14.1693 5.75387 14.2308C5.58464 14.3077 5.47695 14.477 5.47695 14.677C5.47695 14.9539 5.70772 15.1847 5.98464 15.1847C6.01541 15.1847 6.04618 15.1847 6.07695 15.1693C5.87695 15.2308 5.73848 15.4154 5.73848 15.6154C5.73848 15.877 5.95387 16.0923 6.21541 16.0923C6.47695 16.0923 6.69233 15.877 6.69233 15.6154C6.69233 15.3539 6.47695 15.1385 6.21541 15.1385C6.18464 15.1385 6.15387 15.1385 6.1231 15.1539C6.3231 15.0923 6.47695 14.8923 6.47695 14.677V14.6462C6.55387 14.7385 6.66156 14.8 6.76925 14.8154C6.69233 14.9077 6.63079 15.0462 6.63079 15.1847C6.63079 15.4923 6.87695 15.7385 7.18464 15.7385H7.20002C7.13848 15.8308 7.09233 15.9385 7.09233 16.0462C7.09233 16.3385 7.33848 16.5847 7.63079 16.5847C7.69233 16.5847 7.73848 16.5693 7.78464 16.5693C7.73848 16.6462 7.70772 16.7385 7.70772 16.8462C7.70772 17.1231 7.93848 17.3539 8.21541 17.3539C8.33848 17.3539 8.44618 17.3077 8.5231 17.2462C8.44618 17.3231 8.40002 17.4462 8.40002 17.5539C8.40002 17.8154 8.61541 18.0308 8.87695 18.0308C9.13848 18.0308 9.35387 17.8154 9.35387 17.5539C9.35387 17.4308 9.30771 17.3077 9.21541 17.2308C9.27695 17.2308 9.33848 17.2154 9.40002 17.2C9.40002 17.4308 9.5231 17.6308 9.7231 17.7231C9.69233 17.7231 9.66156 17.7077 9.63079 17.7077C9.38464 17.7077 9.18464 17.9077 9.18464 18.1539C9.18464 18.4 9.38464 18.6154 9.63079 18.6154C9.87695 18.6154 10.0923 18.4154 10.0923 18.1539C10.0923 17.9847 10 17.8308 9.84618 17.7539C9.89233 17.7693 9.93848 17.7693 9.98464 17.7693C10.0923 17.7693 10.2 17.7385 10.2923 17.677C10.3231 17.9693 10.5539 18.1847 10.8462 18.1847C11 18.1847 11.1539 18.1231 11.2462 18.0154C11.2923 18.277 11.5077 18.4616 11.7693 18.4616C11.9693 18.4616 12.1539 18.3539 12.2462 18.1847C12.2923 18.4154 12.4923 18.5847 12.7385 18.5847C13 18.5847 13.2154 18.3847 13.2462 18.1385C13.2616 18.3847 13.4616 18.5847 13.7231 18.5847C13.9846 18.5847 14.2 18.3693 14.2 18.1077C14.2 17.8462 13.9846 17.6308 13.7385 17.6308C13.7846 17.5847 13.8154 17.5385 13.8462 17.477C13.9539 17.5847 14.1077 17.6616 14.2616 17.6616C14.3231 17.6616 14.3846 17.6462 14.4462 17.6308C14.3231 17.7077 14.2462 17.8462 14.2462 18C14.2462 18.2462 14.4462 18.4616 14.7077 18.4616C14.9539 18.4616 15.1539 18.2616 15.1539 18C15.1539 17.7539 14.9539 17.5539 14.7077 17.5539C14.6616 17.5539 14.6154 17.5693 14.5846 17.5693C14.7231 17.4923 14.8154 17.3539 14.8462 17.2C14.9385 17.277 15.0769 17.3385 15.2 17.3385C15.5077 17.3385 15.7693 17.0923 15.7693 16.7847V16.7693C15.8616 16.8308 15.9693 16.877 16.0769 16.877C16.3693 16.877 16.6154 16.6308 16.6154 16.3385C16.6154 16.277 16.6154 16.2308 16.5846 16.1847C16.6616 16.2308 16.7539 16.277 16.8616 16.277C17.1385 16.277 17.3693 16.0462 17.3693 15.7693C17.3693 15.6462 17.3231 15.5385 17.2616 15.4616C17.3385 15.5385 17.4462 15.5847 17.5693 15.5847C17.8308 15.5847 18.0462 15.3693 18.0462 15.1077C18.0462 14.8462 17.8308 14.6308 17.5693 14.6308C17.4462 14.6308 17.3231 14.677 17.2308 14.7693C17.2308 14.7077 17.2154 14.6462 17.2 14.5847C17.4308 14.5847 17.6308 14.4616 17.7231 14.2616C17.7231 14.2923 17.7077 14.3231 17.7077 14.3539C17.7077 14.6 17.9077 14.8 18.1693 14.8C18.4154 14.8 18.6308 14.6 18.6308 14.3539C18.6308 14.1077 18.4308 13.9077 18.1693 13.9077C18 13.9077 17.8462 14 17.7693 14.1539C17.7846 14.1077 17.7846 14.0616 17.7846 14.0154C17.7846 13.9077 17.7539 13.8 17.6923 13.7077C17.9846 13.6923 18.2 13.4462 18.2 13.1539C18.2 13 18.1385 12.8462 18.0308 12.7539C18.2923 12.7077 18.4769 12.4923 18.4769 12.2308C18.4769 12.0308 18.3693 11.8462 18.2 11.7539C18.4308 11.7077 18.6 11.5077 18.6 11.2616C18.6 11 18.4 10.7847 18.1385 10.7539C18.3846 10.7385 18.5846 10.5231 18.5846 10.277C18.5846 10.0154 18.3693 9.80004 18.1077 9.80004C17.8462 9.80004 17.6308 10.0154 17.6308 10.277C17.6308 10.5231 17.8154 10.7231 18.0616 10.7539C17.8 10.7693 17.5846 10.9847 17.5846 11.2616C17.5846 11.4462 17.6923 11.6154 17.8462 11.7077C17.6 11.7539 17.4 11.9693 17.4 12.2308C17.4 12.3847 17.4616 12.5077 17.5539 12.6C17.2769 12.6308 17.0616 12.877 17.0616 13.1539C17.0616 13.2616 17.0923 13.3539 17.1385 13.4308C16.8308 13.4462 16.5846 13.7077 16.5846 14.0154C16.5846 14.077 16.6 14.1385 16.6154 14.1847H16.5846C16.2462 14.1847 15.9693 14.4616 15.9693 14.8V14.8462C15.9385 14.8462 15.9077 14.8308 15.8769 14.8308C15.5539 14.8308 15.2923 15.077 15.2462 15.3847C15.1846 15.3693 15.1385 15.3539 15.0769 15.3539C14.8154 15.3539 14.5846 15.5077 14.4769 15.7385C14.3385 15.6308 14.1693 15.5847 14 15.6154C13.8 15.6462 13.6462 15.7847 13.5693 15.9539C13.4462 15.8154 13.2616 15.7385 13.0616 15.7693C12.8616 15.8 12.7077 15.9077 12.6308 16.077C12.5231 15.9385 12.3539 15.8616 12.1693 15.8616C12 15.8616 11.8462 15.9385 11.7385 16.0462C11.6769 15.8923 11.5385 15.7693 11.3693 15.7231C11.1846 15.6616 11 15.7077 10.8616 15.8C10.8154 15.6308 10.7077 15.477 10.5385 15.4C10.3693 15.3231 10.2 15.3231 10.0462 15.4C10.0462 15.2308 9.96925 15.077 9.83079 14.9539C9.69233 14.8462 9.5231 14.8154 9.36925 14.8308C9.41541 14.6616 9.36925 14.4923 9.26156 14.3385C9.15387 14.1847 8.96925 14.1077 8.80002 14.1077C8.86156 13.9539 8.86156 13.7693 8.78464 13.6C8.70771 13.4462 8.56925 13.3539 8.41541 13.3077C8.50771 13.1847 8.55387 13.0154 8.5231 12.8616C8.49233 12.677 8.38464 12.5231 8.23079 12.4462C8.36925 12.3385 8.46156 12.1693 8.46156 11.9693C8.46156 11.8 8.38464 11.6462 8.26156 11.5385C8.41541 11.4616 8.5231 11.3231 8.56925 11.1539C8.61541 10.9847 8.56925 10.8154 8.47695 10.677C8.63079 10.6462 8.76925 10.5385 8.86156 10.4C8.95387 10.2462 8.96925 10.0616 8.90771 9.90773C9.07695 9.92311 9.24618 9.84619 9.36925 9.70773C9.49233 9.56927 9.53848 9.40004 9.50771 9.23081C9.66156 9.27696 9.84618 9.24619 9.98464 9.1385C10.1385 9.03081 10.2154 8.87696 10.2308 8.70773C10.3846 8.78465 10.5693 8.80004 10.7385 8.72311C10.8923 8.66158 11.0154 8.52311 11.0616 8.38465C11.1846 8.49235 11.3385 8.55388 11.5077 8.5385C11.6923 8.52311 11.8616 8.41542 11.9539 8.26158C12.0462 8.40004 12.2154 8.49235 12.3846 8.50773C12.5539 8.52311 12.7231 8.46158 12.8308 8.3385C12.8923 8.49235 13.0154 8.61542 13.2 8.67696C13.3693 8.7385 13.5693 8.70773 13.7077 8.61542C13.7385 8.78465 13.8462 8.9385 14 9.03081C14.1385 9.10773 14.2769 9.12311 14.4154 9.09235C14.4308 9.10773 14.4462 9.1385 14.4616 9.15388C14.4616 9.27696 14.5231 9.40004 14.6154 9.50773L14.6308 9.52312C14.9231 9.83081 15.6308 10.6 15.4923 11.6154C15.4616 11.877 15.6 12 15.7846 11.8C16.8923 10.6154 16.7231 9.1385 16.6923 8.96927C16.6923 8.86158 16.6616 8.75388 16.6154 8.64619C16.6308 8.58465 16.6308 8.52311 16.6308 8.46158C16.6308 8.15388 16.4769 7.87696 16.2616 7.70773C16.2769 7.64619 16.2769 7.60004 16.2769 7.5385C16.2769 7.15388 16.0462 6.83081 15.7077 6.69235C15.6923 6.26158 15.3846 5.92311 14.9693 5.84619C14.8923 5.46158 14.5693 5.16927 14.1539 5.16927H14.1077C14 4.86158 13.7077 4.63081 13.3693 4.63081C13.3077 4.63081 13.2308 4.64619 13.1693 4.66158C13.0462 4.40004 12.8 4.23081 12.4923 4.23081C12.3693 4.23081 12.2616 4.26158 12.1693 4.30773C12.0462 4.10773 11.8308 3.96927 11.5693 3.96927C11.4 3.96927 11.2616 4.03081 11.1385 4.12311C11.0154 3.95388 10.8308 3.84619 10.6154 3.84619C10.4154 3.84619 10.2308 3.9385 10.1077 4.09235C10 3.95388 9.83079 3.86158 9.63079 3.86158C9.38464 3.86158 9.16925 4.00004 9.07695 4.21542C8.96925 4.09235 8.83079 4.01542 8.64618 4.01542C8.35387 4.01542 8.1231 4.23081 8.09233 4.50773C8.00002 4.38465 7.86156 4.30773 7.69233 4.30773C7.41541 4.30773 7.18464 4.5385 7.18464 4.81542C7.3231 5.06158 7.55387 5.29235 7.83079 5.29235ZM4.44618 18.277C4.43079 18.277 4.41541 18.2923 4.41541 18.3231C4.41541 18.3385 4.43079 18.3693 4.44618 18.3693C4.46156 18.3693 4.49233 18.3539 4.49233 18.3231C4.47695 18.2923 4.46156 18.277 4.44618 18.277ZM3.98464 17.3693C3.93848 17.3693 3.90771 17.4 3.90771 17.4462C3.90771 17.4923 3.93848 17.5231 3.98464 17.5231C4.03079 17.5231 4.06156 17.4923 4.06156 17.4462C4.06156 17.4154 4.03079 17.3693 3.98464 17.3693ZM3.63079 16.4308C3.56925 16.4308 3.50771 16.477 3.50771 16.5539C3.50771 16.6154 3.55387 16.677 3.63079 16.677C3.69233 16.677 3.75387 16.6308 3.75387 16.5539C3.73848 16.477 3.69233 16.4308 3.63079 16.4308ZM3.35387 15.4462C3.26156 15.4462 3.20002 15.5231 3.20002 15.6C3.20002 15.6923 3.26156 15.7539 3.35387 15.7539C3.44618 15.7539 3.50771 15.6923 3.50771 15.6C3.5231 15.5077 3.44618 15.4462 3.35387 15.4462ZM3.38464 14.6308C3.38464 14.5231 3.29233 14.4308 3.18464 14.4308C3.07695 14.4308 2.98464 14.5231 2.98464 14.6308C2.98464 14.7385 3.07695 14.8308 3.18464 14.8308C3.30771 14.8308 3.38464 14.7385 3.38464 14.6308ZM3.36925 13.6616C3.36925 13.5385 3.26156 13.4308 3.13848 13.4308C3.01541 13.4308 2.90771 13.5385 2.90771 13.6616C2.90771 13.7847 3.01541 13.8923 3.13848 13.8923C3.26156 13.8923 3.36925 13.7847 3.36925 13.6616ZM2.90771 12.677C2.90771 12.8308 3.03079 12.9539 3.18464 12.9539C3.33848 12.9539 3.46156 12.8308 3.46156 12.677C3.46156 12.5231 3.33848 12.4 3.18464 12.4C3.03079 12.4 2.90771 12.5231 2.90771 12.677ZM3.3231 12.0154C3.49233 12.0154 3.63079 11.877 3.63079 11.7077C3.63079 11.5385 3.49233 11.4 3.3231 11.4C3.15387 11.4 3.01541 11.5385 3.01541 11.7077C3.01541 11.877 3.15387 12.0154 3.3231 12.0154ZM3.60002 10.4154C3.40002 10.4154 3.24618 10.5693 3.24618 10.7693C3.24618 10.9693 3.40002 11.1231 3.60002 11.1231C3.80002 11.1231 3.95387 10.9693 3.95387 10.7693C3.93848 10.5693 3.78464 10.4154 3.60002 10.4154ZM3.98464 10.2616C4.20002 10.2616 4.36925 10.0923 4.36925 9.87696C4.36925 9.66158 4.20002 9.49235 3.98464 9.49235C3.76925 9.49235 3.60002 9.66158 3.60002 9.87696C3.60002 10.077 3.76925 10.2616 3.98464 10.2616Z" fill="black"/>
<path d="M4.49229 9.46159C4.72306 9.46159 4.92306 9.27697 4.92306 9.03082C4.92306 8.80005 4.73845 8.60005 4.49229 8.60005C4.26152 8.60005 4.06152 8.78466 4.06152 9.03082C4.06152 9.26159 4.24614 9.46159 4.49229 9.46159ZM5.56922 8.26159C5.56922 8.00005 5.35383 7.80005 5.10768 7.80005C4.84614 7.80005 4.64614 8.01543 4.64614 8.26159C4.64614 8.52313 4.86152 8.72313 5.10768 8.72313C5.35383 8.73851 5.56922 8.52313 5.56922 8.26159Z" fill="black"/>
</g>
<defs>
<clipPath id="clip0_620_19010">
<rect width="20" height="20" fill="white" transform="translate(2 2)"/>
</clipPath>
</defs>
</svg>