<svg width="24" height="24" viewBox="0 0 24 24" fill="none" xmlns="http://www.w3.org/2000/svg">
<path fill-rule="evenodd" clip-rule="evenodd" d="M21.1667 13H14.5C14.04 13 13.6667 12.6267 13.6667 12.1667C13.6667 11.7067 14.04 11.3333 14.5 11.3333H21.1667C21.6267 11.3333 22 11.7067 22 12.1667C22 12.6267 21.6267 13 21.1667 13ZM21.1667 8.83333H14.5C14.04 8.83333 13.6667 8.46 13.6667 8C13.6667 7.54 14.04 7.16667 14.5 7.16667H21.1667C21.6267 7.16667 22 7.54 22 8C22 8.46 21.6267 8.83333 21.1667 8.83333ZM21.1667 4.66667H14.5C14.04 4.66667 13.6667 4.29333 13.6667 3.83333C13.6667 3.37333 14.04 3 14.5 3H21.1667C21.6267 3 22 3.37333 22 3.83333C22 4.29333 21.6267 4.66667 21.1667 4.66667ZM11.1667 13H2.83333C2.37333 13 2 12.6267 2 12.1667V3.83333C2 3.37333 2.37333 3 2.83333 3H11.1667C11.6267 3 12 3.37333 12 3.83333V12.1667C12 12.6267 11.6267 13 11.1667 13ZM10.3333 4.66667H3.66667V11.3333H10.3333V4.66667ZM2.83333 15.5H21.1667C21.6267 15.5 22 15.8733 22 16.3333C22 16.7933 21.6267 17.1667 21.1667 17.1667H2.83333C2.37333 17.1667 2 16.7933 2 16.3333C2 15.8733 2.37333 15.5 2.83333 15.5ZM2.83333 19.6667H16.1667C16.6267 19.6667 17 20.04 17 20.5C17 20.96 16.6267 21.3333 16.1667 21.3333H2.83333C2.37333 21.3333 2 20.96 2 20.5C2 20.04 2.37333 19.6667 2.83333 19.6667Z" fill="#6B7084"/>
</svg>
7 19.8333H11.1667C10.7067 19.8333 10.3333 19.46 10.3333 19C10.3333 18.54 10.7067 18.1667 11.1667 18.1667Z" fill="#6B7084"/>
</svg>
