<svg width="24" height="24" viewBox="0 0 24 24" fill="none" xmlns="http://www.w3.org/2000/svg">
<path fill-rule="evenodd" clip-rule="evenodd" d="M16.0604 8.99988H18.7497C19.1645 8.99988 19.5 9.33564 19.5 9.74969C19.5 10.1638 19.2613 10.4724 18.8464 10.4724H14.3897C14.3428 10.4814 14.2975 10.4995 14.2499 10.4995C14.058 10.4995 13.866 10.4265 13.7194 10.2797C13.4988 10.0591 13.4451 9.73539 13.557 9.46437V5.2026C13.557 4.78854 13.835 4.49945 14.2499 4.49945C14.664 4.49945 14.9995 4.83597 14.9995 5.24927V7.93914L19.7192 3.21964C20.0124 2.92679 20.4869 2.92679 20.7801 3.21964C21.0733 3.51249 21.0733 3.98753 20.7801 4.27962L16.0604 8.99988ZM10.4997 18.7499C10.4997 19.1639 10.1642 19.5004 9.75009 19.5004C9.33525 19.5004 8.99975 19.1639 8.99975 18.7499V16.0608L4.28005 20.7803C4.13345 20.9271 3.94152 21.0001 3.74959 21.0001C3.55766 21.0001 3.36573 20.9271 3.21989 20.7803C2.9267 20.4874 2.9267 20.0124 3.21989 19.7203L7.93884 15H5.24953C4.83544 15 4.49994 14.6643 4.49994 14.2502C4.49994 13.8354 4.83544 13.4996 5.24953 13.4996H9.75009C9.75463 13.4996 9.75841 13.5019 9.76294 13.5026C9.85588 13.5042 9.94883 13.5215 10.0365 13.5576C10.2201 13.6336 10.3659 13.7797 10.4423 13.9634C10.48 14.0552 10.4997 14.1523 10.4997 14.2502V18.7499ZM10.2798 10.2797C10.134 10.4265 9.94203 10.4995 9.75009 10.4995C9.70249 10.4995 9.65715 10.4814 9.6103 10.4724H5.24499C4.83015 10.4724 4.49994 10.1638 4.49994 9.74969C4.49994 9.33564 4.83544 8.99988 5.24953 8.99988H7.93959L3.21989 4.27962C2.9267 3.98753 2.9267 3.51249 3.21989 3.21964C3.51232 2.92679 3.98686 2.92679 4.28005 3.21964L8.99975 7.93914V5.24927C8.99975 4.83597 9.33525 4.49945 9.75009 4.49945C10.1642 4.49945 10.4997 4.83597 10.4997 5.24927V9.74969C10.4997 9.96199 10.4181 10.1442 10.2843 10.2737C10.2828 10.2752 10.2821 10.2782 10.2798 10.2797ZM14.2348 13.5026C14.2401 13.5026 14.2446 13.4996 14.2499 13.4996H18.7497C19.1645 13.4996 19.5 13.8354 19.5 14.2502C19.5 14.6643 19.1645 15 18.7497 15H16.0604L20.7801 19.7203C21.0733 20.0124 21.0733 20.4874 20.7801 20.7803C20.6335 20.9271 20.4416 21.0001 20.2496 21.0001C20.0577 21.0001 19.8658 20.9271 19.7192 20.7803L14.9995 16.0608V18.7499C14.9995 19.1639 14.664 19.5004 14.2499 19.5004C13.835 19.5004 13.557 19.1677 13.557 18.7536V14.5355C13.4451 14.2638 13.4988 13.94 13.7194 13.7195C13.8622 13.5772 14.0481 13.5064 14.2348 13.5026Z" fill="#6B7084"/>
</svg>
