<svg width="24" height="24" viewBox="0 0 24 24" fill="none" xmlns="http://www.w3.org/2000/svg">
<path fill-rule="evenodd" clip-rule="evenodd" d="M12.8082 13.213C12.8837 13.0301 13.0303 12.884 13.2132 12.808C13.3054 12.7703 13.4021 12.75 13.5003 12.75L19.5001 12.75C19.9142 12.75 20.2497 13.0858 20.2497 13.5006C20.2497 13.9146 19.9142 14.2496 19.5001 14.2496L15.3055 14.2451L20.7801 19.7197C21.0733 20.0125 21.0733 20.4875 20.7801 20.7804C20.4869 21.0732 20.0124 21.0732 19.72 20.7804L14.157 15.217L14.157 19.5134C14.157 19.9274 13.9144 20.2504 13.5003 20.2504C13.0855 20.2504 12.75 19.9146 12.75 19.4998L12.75 13.5006C12.75 13.5006 12.75 13.5006 12.75 13.4998C12.75 13.4027 12.7696 13.3048 12.8082 13.213ZM3.75035 3.00012C3.94228 3.00012 4.13421 3.0739 4.28005 3.21995L9.76596 8.70577L9.75009 4.5005C9.75009 4.08645 10.0856 3.75069 10.5004 3.75069C10.9145 3.75069 11.25 4.08645 11.25 4.5005L11.25 10.5005C11.25 10.5013 11.25 10.502 11.25 10.5028C11.2493 10.5991 11.2296 10.6962 11.1926 10.7873C11.1163 10.9703 10.9704 11.1163 10.7868 11.1923C10.6946 11.2307 10.5972 11.2503 10.4989 11.2503L4.49994 11.2503C4.08585 11.2503 3.75035 10.9146 3.75035 10.5005C3.75035 10.0864 4.0662 9.80037 4.48029 9.80037L8.73981 9.80037L3.21989 4.28067C2.9267 3.98783 2.9267 3.51279 3.21989 3.21995C3.36648 3.0739 3.55841 3.00012 3.75035 3.00012Z" fill="#6B7084"/>
</svg>
