<svg viewBox="0 0 24 24" fill="none" xmlns="http://www.w3.org/2000/svg">
<path fill-rule="evenodd" clip-rule="evenodd" d="M21.1667 16.5H11.1667C10.7067 16.5 10.3333 16.1267 10.3333 15.6667C10.3333 15.2067 10.7067 14.8333 11.1667 14.8333H21.1667C21.6267 14.8333 22 15.2067 22 15.6667C22 16.1267 21.6267 16.5 21.1667 16.5ZM21.1667 9.83333H11.1667C10.7067 9.83333 10.3333 9.46 10.3333 9C10.3333 8.54 10.7067 8.16667 11.1667 8.16667H21.1667C21.6267 8.16667 22 8.54 22 9C22 9.46 21.6267 9.83333 21.1667 9.83333ZM21.1667 6.5H11.1667C10.7067 6.5 10.3333 6.12667 10.3333 5.66667C10.3333 5.20667 10.7067 4.83333 11.1667 4.83333H21.1667C21.6267 4.83333 22 5.20667 22 5.66667C22 6.12667 21.6267 6.5 21.1667 6.5ZM7.83333 20.6667H2.83333C2.37333 20.6667 2 20.2933 2 19.8333V14.8333C2 14.3733 2.37333 14 2.83333 14H7.83333C8.29333 14 8.66667 14.3733 8.66667 14.8333V19.8333C8.66667 20.2933 8.29333 20.6667 7.83333 20.6667ZM7 15.6667H3.66667V19H7V15.6667ZM7.83333 10.6667H2.83333C2.37333 10.6667 2 10.2933 2 9.83333V4.83333C2 4.37333 2.37333 4 2.83333 4H7.83333C8.29333 4 8.66667 4.37333 8.66667 4.83333V9.83333C8.66667 10.2933 8.29333 10.6667 7.83333 10.6667ZM7 5.66667H3.66667V9H7V5.66667ZM11.1667 18.1667H21.1667C21.6267 18.1667 22 18.54 22 19C22 19.46 21.6267 19.8333 21.1667 19.8333H11.1667C10.7067 19.8333 10.3333 19.46 10.3333 19C10.3333 18.54 10.7067 18.1667 11.1667 18.1667Z" fill="currentColor"/>
</svg>