<svg viewBox="0 0 24 24" fill="none" xmlns="http://www.w3.org/2000/svg">
<path d="M10.4692 9.77073C11.2018 9.77073 11.7956 9.17758 11.7956 8.44589C11.7956 7.71421 11.2018 7.12106 10.4692 7.12106C9.73655 7.12106 9.14266 7.71421 9.14266 8.44589C9.14266 9.17758 9.73655 9.77073 10.4692 9.77073Z" fill="currentColor"/>
<path d="M8.42839 14.8663C9.161 14.8663 9.75489 14.2731 9.75489 13.5414C9.75489 12.8097 9.161 12.2166 8.42839 12.2166C7.69579 12.2166 7.1019 12.8097 7.1019 13.5414C7.1019 14.2731 7.69579 14.8663 8.42839 14.8663Z" fill="currentColor"/>
<path d="M15 16.5C15.8284 16.5 16.5 15.8284 16.5 15C16.5 14.1716 15.8284 13.5 15 13.5C14.1716 13.5 13.5 14.1716 13.5 15C13.5 15.8284 14.1716 16.5 15 16.5Z" fill="currentColor"/>
<path fill-rule="evenodd" clip-rule="evenodd" d="M19.0808 6.99134C18.7349 8.07036 18.9871 9.06379 19.5465 9.81124C20.1284 10.5887 21.045 11.1035 21.9653 11.1782C22.4478 17.0259 17.8315 22 11.9997 22C6.47993 22 2 17.5257 2 12.0128C2 6.47482 7.02152 0.873049 13.8868 2.19619C13.4374 5.15382 16.1185 7.69559 19.0808 6.99134ZM12.2553 3.64082L12.2827 3.80628C12.697 6.30898 14.6902 8.29832 17.2031 8.67232L17.3458 8.69356L17.3734 8.83501C17.4418 9.18645 17.8826 11.3296 20.2363 12.3874L20.3657 12.4456L20.3562 12.587C20.0527 17.0912 16.2449 20.3694 11.9997 20.3694C7.38714 20.3694 3.63261 16.6196 3.63261 12.0128C3.63261 10.2769 4.3468 8.14674 5.75551 6.46907C7.16897 4.78575 9.28742 3.55217 12.0875 3.6358L12.2553 3.64082Z" fill="currentColor"/>
</svg>