<svg width="24" height="24" viewBox="0 0 24 24" fill="none" xmlns="http://www.w3.org/2000/svg">
<path fill-rule="evenodd" clip-rule="evenodd" d="M2.5 5.70166C2.5 3.93343 3.93343 2.5 5.70166 2.5H14.3619C16.1301 2.5 17.5635 3.93343 17.5635 5.70166V7.22376H18.2983C20.0666 7.22376 21.5 8.65719 21.5 10.4254V18.2983C21.5 20.0666 20.0666 21.5 18.2983 21.5H10.4254C8.65719 21.5 7.22376 20.0666 7.22376 18.2983V17.5635H5.70166C3.93343 17.5635 2.5 16.1301 2.5 14.3619V5.70166ZM7.22376 15.884V10.4254C7.22376 8.65719 8.65719 7.22376 10.4254 7.22376H15.884V5.70166C15.884 4.86103 15.2025 4.17956 14.3619 4.17956H5.70166C4.86103 4.17956 4.17956 4.86103 4.17956 5.70166V14.3619C4.17956 15.2025 4.86103 15.884 5.70166 15.884H7.22376ZM10.4254 8.90332C9.58478 8.90332 8.90332 9.58478 8.90332 10.4254V18.2983C8.90332 19.139 9.58478 19.8204 10.4254 19.8204H18.2983C19.139 19.8204 19.8204 19.139 19.8204 18.2983V10.4254C19.8204 9.58478 19.139 8.90332 18.2983 8.90332H10.4254Z" fill="#6B7084"/>
</svg>
