<svg width="24" height="24" viewBox="0 0 24 24" fill="none" xmlns="http://www.w3.org/2000/svg">
<path fill-rule="evenodd" clip-rule="evenodd" d="M20.3333 18.6667H17.8333C17.3733 18.6667 17 18.2933 17 17.8333C17 17.3725 17.3733 17 17.8333 17H18.2175L17.8458 16.1642C17.8417 16.1642 17.8375 16.1667 17.8333 16.1667H14.5C14.4958 16.1667 14.4917 16.1642 14.4875 16.1642L14.1158 17H14.5C14.96 17 15.3333 17.3725 15.3333 17.8333C15.3333 18.2933 14.96 18.6667 14.5 18.6667H12C11.54 18.6667 11.1667 18.2933 11.1667 17.8333C11.1667 17.3725 11.54 17 12 17H12.2917L14.8842 11.1667H14.5C14.04 11.1667 13.6667 10.7942 13.6667 10.3333C13.6667 9.8725 14.04 9.5 14.5 9.5H16.1667C16.2683 9.5 16.3642 9.52417 16.4567 9.55833C16.4833 9.56833 16.5083 9.58167 16.5342 9.59417C16.5983 9.62667 16.6575 9.66667 16.7117 9.71417C16.7317 9.73167 16.7525 9.74667 16.7708 9.76583C16.8333 9.8325 16.8892 9.9075 16.9283 9.995L16.9333 10.0075C16.9342 10.0083 16.9342 10.0092 16.935 10.01L20.0417 17H20.3333C20.7933 17 21.1667 17.3725 21.1667 17.8333C21.1667 18.2933 20.7933 18.6667 20.3333 18.6667ZM16.1666 12.385L15.2266 14.5H17.1066L16.1666 12.385ZM16.1667 7.83333C15.7067 7.83333 15.3333 7.46083 15.3333 7V6.16667H13.6533C13.655 6.21333 13.6667 6.2575 13.6667 6.305V7C13.6667 7.46083 13.2933 7.83333 12.8333 7.83333H6.16667C5.70667 7.83333 5.33333 7.46083 5.33333 7V6.305C5.33333 6.2575 5.345 6.21333 5.34667 6.16667H3.66667V20.3333H16.1667C16.6267 20.3333 17 20.7058 17 21.1667C17 21.6275 16.6267 22 16.1667 22H2.83333C2.37333 22 2 21.6275 2 21.1667V5.33333C2 4.8725 2.37333 4.5 2.83333 4.5H5.95917C6.3375 4.01083 6.85917 3.65167 7.46417 3.49083C7.76 2.62583 8.55667 2 9.5 2C10.4433 2 11.24 2.62583 11.5358 3.49083C12.1408 3.65167 12.6625 4.01083 13.0408 4.5H16.1667C16.6267 4.5 17 4.8725 17 5.33333V7C17 7.46083 16.6267 7.83333 16.1667 7.83333ZM10.8334 5.05583C10.3725 5.05583 10 4.68333 10 4.2225C10 3.91583 9.77588 3.66667 9.50005 3.66667C9.22421 3.66667 9.00005 3.91583 9.00005 4.2225C9.00005 4.68333 8.62755 5.05583 8.16671 5.05583C7.56755 5.05583 7.07171 5.5425 7.00671 6.16667H11.9934C11.9284 5.5425 11.4325 5.05583 10.8334 5.05583Z" fill="#6B7084"/>
</svg>
