<svg width="24" height="24" viewBox="0 0 24 24" fill="none" xmlns="http://www.w3.org/2000/svg">
<path fill-rule="evenodd" clip-rule="evenodd" d="M20.3333 12H12.8333C12.3733 12 12 11.6275 12 11.1667C12 10.7058 12.3733 10.3333 12.8333 10.3333H20.3333C20.7933 10.3333 21.1667 10.7058 21.1667 11.1667C21.1667 11.6275 20.7933 12 20.3333 12ZM16.1667 8.66667C15.7067 8.66667 15.3333 8.29417 15.3333 7.83333V6.16667H13.6533C13.655 6.21333 13.6667 6.2575 13.6667 6.305V7C13.6667 7.46083 13.2933 7.83333 12.8333 7.83333H6.16667C5.70667 7.83333 5.33333 7.46083 5.33333 7V6.305C5.33333 6.2575 5.345 6.21333 5.34667 6.16667H3.66667V20.3333H16.1667C16.6267 20.3333 17 20.7058 17 21.1667C17 21.6275 16.6267 22 16.1667 22H2.83333C2.37333 22 2 21.6275 2 21.1667V5.33333C2 4.8725 2.37333 4.5 2.83333 4.5H5.95917C6.3375 4.01083 6.85917 3.65167 7.46417 3.49083C7.76 2.62583 8.55667 2 9.5 2C10.4433 2 11.24 2.62583 11.5358 3.49083C12.1408 3.65167 12.6625 4.01083 13.0408 4.5H16.1667C16.6267 4.5 17 4.8725 17 5.33333V7.83333C17 8.29417 16.6267 8.66667 16.1667 8.66667ZM10.8334 5.05583C10.3725 5.05583 10 4.68333 10 4.2225C10 3.91583 9.77588 3.66667 9.50005 3.66667C9.22421 3.66667 9.00005 3.91583 9.00005 4.2225C9.00005 4.68333 8.62755 5.05583 8.16671 5.05583C7.56755 5.05583 7.07171 5.5425 7.00671 6.16667H11.9934C11.9284 5.5425 11.4325 5.05583 10.8334 5.05583ZM12 17.8333C12 17.3725 12.3733 17 12.8333 17H17.8333C18.2933 17 18.6667 17.3725 18.6667 17.8333C18.6667 18.2933 18.2933 18.6667 17.8333 18.6667H12.8333C12.3733 18.6667 12 18.2933 12 17.8333ZM12 14.5C12 14.0392 12.3733 13.6667 12.8333 13.6667H20.3333C20.7933 13.6667 21.1667 14.0392 21.1667 14.5C21.1667 14.9608 20.7933 15.3333 20.3333 15.3333H12.8333C12.3733 15.3333 12 14.9608 12 14.5Z" fill="#6B7084"/>
</svg>
