<svg width="24" height="24" viewBox="0 0 24 24" fill="none" xmlns="http://www.w3.org/2000/svg">
<g clip-path="url(#clip0_1265_22119)">
<path d="M12 24C18.6274 24 24 18.6274 24 12C24 5.37258 18.6274 0 12 0C5.37258 0 0 5.37258 0 12C0 18.6274 5.37258 24 12 24Z" fill="#71C800"/>
<path fill-rule="evenodd" clip-rule="evenodd" d="M17.8024 11.2407C17.3374 11.2626 16.8706 11.2897 16.4055 11.2732C15.9883 11.2578 15.5729 11.1887 15.1569 11.1402C15.1139 11.1329 15.0737 11.1142 15.0405 11.0859C14.3521 10.5215 13.6755 9.94422 13.0822 9.2759C12.866 9.03185 12.691 8.7683 12.5929 8.44803C12.4612 8.01607 11.9075 7.85002 11.4974 8.09998C11.0672 8.36234 10.9933 8.97276 11.3556 9.32258C11.4197 9.38633 11.499 9.4327 11.586 9.45731C11.8992 9.53294 12.1415 9.71967 12.3702 9.93122C12.7803 10.31 13.1478 10.729 13.5047 11.158C13.607 11.2803 13.555 11.4221 13.3984 11.4398C13.1561 11.4682 12.912 11.4936 12.668 11.5036C12.2083 11.5226 11.7479 11.5409 11.2876 11.5361C11.0306 11.5332 10.7723 11.4936 10.5177 11.4511C10.3976 11.4276 10.2828 11.3824 10.1791 11.3175C9.83692 11.1125 9.48237 11.2525 9.28501 11.4546C9.16577 11.5768 9.08965 11.7345 9.06821 11.9039C9.04677 12.0732 9.08119 12.2449 9.16624 12.393C9.33051 12.6742 9.65433 12.8385 9.94506 12.7771C10.029 12.7593 10.1117 12.7221 10.1862 12.679C10.3812 12.5679 10.5927 12.5159 10.8113 12.5023C11.1623 12.481 11.5157 12.4609 11.8673 12.4692C12.3146 12.4798 12.762 12.5194 13.2093 12.5472C13.2701 12.5513 13.3316 12.5543 13.3919 12.5637C13.5597 12.5909 13.6081 12.7251 13.497 12.8568C13.3635 13.0152 13.2347 13.1789 13.0905 13.3266C12.7872 13.6375 12.4789 13.9434 12.1657 14.2443C12.0236 14.3803 11.8474 14.4754 11.6558 14.5197C11.2681 14.6124 11.0767 14.9865 11.131 15.3647C11.1854 15.7405 11.521 16.023 11.901 16.0235C12.2532 16.0235 12.5238 15.8356 12.6178 15.4988C12.7141 15.1525 12.9363 14.8914 13.1679 14.6367C13.7393 14.0097 14.3816 13.4584 15.037 12.923C15.0753 12.8919 15.1212 12.8715 15.1699 12.8639C15.5014 12.8208 15.8329 12.767 16.1656 12.7463C16.5407 12.722 16.9168 12.7169 17.2925 12.731C17.6843 12.7469 18.0743 12.7983 18.4761 12.8356C18.469 12.9715 18.4672 13.0873 18.4566 13.2019C18.3845 13.9465 18.1948 14.6597 17.8444 15.3221C16.9793 16.956 15.645 17.9789 13.8398 18.3777C13.4352 18.4632 13.0224 18.5039 12.6089 18.4989C12.1687 18.4983 11.7284 18.5024 11.2882 18.4977C10.068 18.4847 8.95173 18.1372 7.95841 17.4258C6.76299 16.569 5.99066 15.4185 5.65857 13.9831C5.58395 13.6626 5.53963 13.3358 5.5262 13.0069C5.4983 12.3857 5.49279 11.7636 5.50966 11.142C5.54569 9.89567 5.9818 8.694 6.75352 7.71466C7.52524 6.73532 8.59161 6.0303 9.79497 5.70382C10.2759 5.5727 10.772 5.50555 11.2705 5.50409C11.781 5.50232 12.291 5.49464 12.801 5.50645C14.0218 5.53482 15.1309 5.90709 16.1118 6.63628C17.2848 7.50788 18.0311 8.6643 18.3455 10.0925C18.4217 10.4353 18.4483 10.7886 18.4997 11.1544C18.2456 11.1869 18.0252 11.2301 17.8024 11.2407Z" fill="white"/>
</g>
<defs>
<clipPath id="clip0_1265_22119">
<rect width="24" height="24" fill="white"/>
</clipPath>
</defs>
</svg>
