<svg viewBox="0 0 24 24" fill="none" xmlns="http://www.w3.org/2000/svg">
<path d="M12 22C17.5228 22 22 17.5228 22 12C22 6.47715 17.5228 2 12 2C6.47715 2 2 6.47715 2 12C2 17.5228 6.47715 22 12 22Z" fill="#2E3148"/>
<path d="M12.0001 17.8025C15.2047 17.8025 17.8026 15.2046 17.8026 12C17.8026 8.79537 15.2047 6.19751 12.0001 6.19751C8.79549 6.19751 6.19763 8.79537 6.19763 12C6.19763 15.2046 8.79549 17.8025 12.0001 17.8025Z" fill="#1B1E36"/>
<path d="M12.0206 3.27576C10.9412 3.27576 10.0659 7.19096 10.0659 12.0206C10.0659 16.8503 10.9412 20.7655 12.0206 20.7655C13.1001 20.7655 13.9754 16.8503 13.9754 12.0206C13.9754 7.19096 13.1001 3.27576 12.0206 3.27576ZM12.1556 20.272C12.0322 20.4366 11.9087 20.3131 11.9087 20.3131C11.4116 19.7371 11.163 18.667 11.163 18.667C10.2935 15.8687 10.5005 9.86048 10.5005 9.86048C10.9091 5.09056 11.6525 3.96376 11.9054 3.7136C11.9313 3.68807 11.9653 3.67246 12.0015 3.66954C12.0377 3.66661 12.0738 3.67655 12.1034 3.6976C12.4704 3.95768 12.7782 5.04536 12.7782 5.04536C13.6873 8.41984 13.605 11.5886 13.605 11.5886C13.6873 14.3458 13.1494 17.4322 13.1494 17.4322C12.7354 19.7778 12.1556 20.272 12.1556 20.272Z" fill="#6F7390"/>
<path d="M19.6058 7.66877C19.0683 6.73213 15.2371 7.92141 11.0458 10.3248C6.8545 12.7281 3.89801 15.4359 4.43505 16.3721C4.97209 17.3084 8.80378 16.1195 12.9951 13.7161C17.1863 11.3128 20.1428 8.60501 19.6058 7.66877ZM4.93089 16.2436C4.72513 16.2177 4.77161 16.0486 4.77161 16.0486C5.02401 15.3309 5.82721 14.5828 5.82721 14.5828C7.82266 12.4359 13.1375 9.62557 13.1375 9.62557C17.4779 7.60621 18.826 7.69141 19.168 7.78557C19.2031 7.79536 19.2336 7.81727 19.2541 7.84741C19.2746 7.87754 19.2838 7.91396 19.28 7.95021C19.2389 8.39821 18.4467 9.20621 18.4467 9.20621C15.9737 11.6749 13.184 13.1807 13.184 13.1807C10.8334 14.6247 7.88858 15.6934 7.88858 15.6934C5.64785 16.5008 4.93097 16.2436 4.93097 16.2436H4.93089Z" fill="#6F7390"/>
<path d="M19.5867 16.4034C20.1283 15.4692 17.1793 12.7491 13.0027 10.3277C8.82619 7.90623 4.9954 6.70224 4.45428 7.63799C3.91317 8.57375 6.86171 11.2923 11.0407 13.7137C15.2196 16.1351 19.0456 17.3392 19.5867 16.4034ZM4.81316 7.99895C4.73316 7.80927 4.90204 7.76359 4.90204 7.76359C5.64972 7.62239 6.69995 7.94415 6.69995 7.94415C9.55714 8.59479 14.6519 11.7861 14.6519 11.7861C18.5745 14.531 19.1761 15.74 19.2663 16.0832C19.2755 16.1184 19.2719 16.1557 19.2562 16.1886C19.2406 16.2214 19.2138 16.2476 19.1807 16.2627C18.7717 16.4499 17.6762 16.1709 17.6762 16.1709C14.2996 15.2656 11.5992 13.6068 11.5992 13.6068C9.17291 12.2981 6.77371 10.2845 6.77371 10.2845C4.95068 8.74959 4.81372 8.00103 4.81372 8.00103L4.81316 7.99895Z" fill="#6F7390"/>
<path d="M12 13.0289C12.5682 13.0289 13.0288 12.5683 13.0288 12.0001C13.0288 11.4319 12.5682 10.9713 12 10.9713C11.4318 10.9713 10.9712 11.4319 10.9712 12.0001C10.9712 12.5683 11.4318 13.0289 12 13.0289Z" fill="#B7B9C8"/>
<path d="M16.2182 8.66657C16.5477 8.66657 16.8149 8.3902 16.8149 8.04929C16.8149 7.70837 16.5477 7.43201 16.2182 7.43201C15.8886 7.43201 15.6215 7.70837 15.6215 8.04929C15.6215 8.3902 15.8886 8.66657 16.2182 8.66657Z" fill="#B7B9C8"/>
<path d="M6.42387 10.7654C6.75343 10.7654 7.02059 10.4891 7.02059 10.1482C7.02059 9.80725 6.75343 9.53088 6.42387 9.53088C6.09431 9.53088 5.82715 9.80725 5.82715 10.1482C5.82715 10.4891 6.09431 10.7654 6.42387 10.7654Z" fill="#B7B9C8"/>
<path d="M10.7859 18.3374C11.1155 18.3374 11.3827 18.0611 11.3827 17.7202C11.3827 17.3793 11.1155 17.1029 10.7859 17.1029C10.4564 17.1029 10.1892 17.3793 10.1892 17.7202C10.1892 18.0611 10.4564 18.3374 10.7859 18.3374Z" fill="#B7B9C8"/>
</svg>