<svg viewBox="0 0 27 21" fill="none" xmlns="http://www.w3.org/2000/svg">
<g filter="url(#filter0_dd_701_20257)">
<g clip-path="url(#clip0_701_20257)">
<mask id="mask0_701_20257" style="mask-type:alpha" maskUnits="userSpaceOnUse" x="1" y="1" width="25" height="18">
<rect x="1.5" y="1" width="24" height="18" fill="white"/>
</mask>
<g mask="url(#mask0_701_20257)">
<path fill-rule="evenodd" clip-rule="evenodd" d="M1.5 1V19H25.5V1H1.5Z" fill="#F7FCFF"/>
<mask id="mask1_701_20257" style="mask-type:alpha" maskUnits="userSpaceOnUse" x="1" y="1" width="25" height="18">
<path fill-rule="evenodd" clip-rule="evenodd" d="M1.5 1V19H25.5V1H1.5Z" fill="white"/>
</mask>
<g mask="url(#mask1_701_20257)">
<path fill-rule="evenodd" clip-rule="evenodd" d="M1.5 1V7H25.5V1H1.5Z" fill="#3D58DB"/>
<path fill-rule="evenodd" clip-rule="evenodd" d="M1.5 13V19H25.5V13H1.5Z" fill="#3D58DB"/>
<path d="M15.944 9.8937C15.944 11.3331 14.7771 12.5 13.3377 12.5C11.8983 12.5 10.7314 11.3331 10.7314 9.8937C10.7314 8.45425 11.8983 7.28735 13.3377 7.28735C14.7771 7.28735 15.944 8.45425 15.944 9.8937Z" stroke="#E8AA00"/>
<path fill-rule="evenodd" clip-rule="evenodd" d="M11.858 8.24683C11.858 8.24683 11.1436 9.42257 11.1436 10.2297C11.1436 11.0369 11.9987 12.0514 13.3441 12.0514C14.6565 12.0514 15.5997 11.2675 15.6283 10.2297C15.6568 9.19197 14.9223 8.45321 14.9223 8.45321C14.9223 8.45321 15.338 9.94729 15.1301 10.5527C14.9223 11.1581 14.2495 11.8906 13.3441 11.7974C12.4388 11.7041 11.5795 10.5897 11.5795 10.2297C11.5795 9.86971 11.858 8.24683 11.858 8.24683Z" fill="#1E601B"/>
<path d="M12.1204 10.2463H14.5258" stroke="#188396"/>
<path d="M12.3442 9.85447H14.4139" stroke="#E8AA00"/>
<path d="M14.0679 10.1835H12.6663L13.3735 9.01006L14.0679 10.1835Z" stroke="#E8AA00"/>
</g>
</g>
</g>
<rect x="1.75" y="1.25" width="23.5" height="17.5" stroke="black" stroke-opacity="0.1" stroke-width="0.5" shape-rendering="crispEdges"/>
</g>
<defs>
<filter id="filter0_dd_701_20257" x="0" y="0" width="27" height="21" filterUnits="userSpaceOnUse" color-interpolation-filters="sRGB">
<feFlood flood-opacity="0" result="BackgroundImageFix"/>
<feColorMatrix in="SourceAlpha" type="matrix" values="0 0 0 0 0 0 0 0 0 0 0 0 0 0 0 0 0 0 127 0" result="hardAlpha"/>
<feOffset dy="0.5"/>
<feGaussianBlur stdDeviation="0.75"/>
<feComposite in2="hardAlpha" operator="out"/>
<feColorMatrix type="matrix" values="0 0 0 0 0 0 0 0 0 0 0 0 0 0 0 0 0 0 0.1 0"/>
<feBlend mode="multiply" in2="BackgroundImageFix" result="effect1_dropShadow_701_20257"/>
<feColorMatrix in="SourceAlpha" type="matrix" values="0 0 0 0 0 0 0 0 0 0 0 0 0 0 0 0 0 0 127 0" result="hardAlpha"/>
<feOffset/>
<feGaussianBlur stdDeviation="0.5"/>
<feComposite in2="hardAlpha" operator="out"/>
<feColorMatrix type="matrix" values="0 0 0 0 0 0 0 0 0 0 0 0 0 0 0 0 0 0 0.11 0"/>
<feBlend mode="multiply" in2="effect1_dropShadow_701_20257" result="effect2_dropShadow_701_20257"/>
<feBlend mode="normal" in="SourceGraphic" in2="effect2_dropShadow_701_20257" result="shape"/>
</filter>
<clipPath id="clip0_701_20257">
<rect x="1.5" y="1" width="24" height="18" fill="white"/>
</clipPath>
</defs>
</svg>