<svg width="27" height="21" viewBox="0 0 27 21" fill="none" xmlns="http://www.w3.org/2000/svg">
<g filter="url(#filter0_dd_701_25277)">
<g clip-path="url(#clip0_701_25277)">
<mask id="mask0_701_25277" style="mask-type:alpha" maskUnits="userSpaceOnUse" x="1" y="1" width="25" height="18">
<rect x="1.5" y="1" width="24" height="18" fill="white"/>
</mask>
<g mask="url(#mask0_701_25277)">
<path fill-rule="evenodd" clip-rule="evenodd" d="M7.5 1H19.5V19H7.5V1Z" fill="#FFD018"/>
<path fill-rule="evenodd" clip-rule="evenodd" d="M1.5 1H7.5V19H1.5V1Z" fill="#2E42A5"/>
<path fill-rule="evenodd" clip-rule="evenodd" d="M19.5 1H25.5V19H19.5V1Z" fill="#E31D1C"/>
<path fill-rule="evenodd" clip-rule="evenodd" d="M13.7243 15.5678C13.8901 15.5212 14.0326 15.2329 14.0326 15.2329C14.0326 15.2329 14.1409 15.3175 14.3125 15.4036C14.4841 15.4897 14.6626 15.2329 14.6626 15.2329C14.6626 15.2329 14.9063 15.2329 15.0132 14.9453C15.1201 14.6578 14.7999 14.5345 14.7999 14.5345C14.7999 14.5345 15.1742 14.1413 15.8062 14.1413C16.4382 14.1413 16.93 14.1413 17.3424 13.9663C17.7548 13.7912 18.1555 13.4902 18.3054 12.8652C18.4553 12.2402 17.9808 11.8466 17.9808 11.8466C17.9808 11.8466 18.0859 11.8799 18.3054 11.7003C18.5249 11.5207 18.171 10.943 17.9808 10.943C17.7906 10.943 17.7679 11.0499 17.7679 11.0499C17.7679 11.0499 17.6504 10.9479 17.4894 10.6011C17.3283 10.2543 17.6504 9.94981 17.6504 9.94981C17.6504 9.94981 17.8269 10.0509 17.9808 9.88409C18.1348 9.71725 17.9009 9.46161 17.9009 9.46161C17.9009 9.46161 18.6419 9.20939 18.5348 8.26136C18.4276 7.31333 17.4505 7.36725 17.4505 7.36725C17.4505 7.36725 17.4801 7.20962 17.3424 7.11979C17.2047 7.02996 17.1027 7.20962 17.1027 7.20962C16.9947 6.95957 17.3115 6.61751 17.565 6.34376C17.6435 6.25893 17.716 6.18066 17.7679 6.11372C17.9872 5.83077 17.8495 5.4812 17.0482 5.09966C16.2469 4.71811 15.8094 5.2309 15.7452 5.41261C15.6809 5.59431 15.9296 5.70675 15.9296 5.70675C15.7268 5.88472 15.3346 5.95267 15.0673 5.82971C14.7999 5.70675 14.9184 5.33282 14.9737 5.2309C14.9797 5.21975 14.9878 5.20623 14.997 5.19062C15.0726 5.06361 15.2306 4.79804 15.0673 4.53978C14.8838 4.24979 14.5662 4.24979 14.3125 4.41447C14.0954 4.55541 13.7867 4.63014 13.7022 4.64876C13.6178 4.63014 13.3091 4.55541 13.0919 4.41447C12.8382 4.24979 12.5206 4.24979 12.3372 4.53978C12.1738 4.79804 12.3318 5.06361 12.4074 5.19062C12.4167 5.20623 12.4247 5.21975 12.4308 5.2309C12.486 5.33282 12.6045 5.70675 12.3372 5.82971C12.0698 5.95267 11.6776 5.88472 11.4749 5.70675C11.4749 5.70675 11.7235 5.59431 11.6593 5.41261C11.595 5.2309 11.1575 4.71811 10.3562 5.09966C9.5549 5.4812 9.41719 5.83077 9.63652 6.11372C9.68841 6.18066 9.76089 6.25893 9.83945 6.34376C10.093 6.61751 10.4098 6.95957 10.3017 7.20962C10.3017 7.20962 10.1997 7.02996 10.062 7.11979C9.92435 7.20962 9.95399 7.36725 9.95399 7.36725C9.95399 7.36725 8.97681 7.31333 8.86968 8.26136C8.76254 9.20939 9.50357 9.46161 9.50357 9.46161C9.50357 9.46161 9.26967 9.71725 9.42362 9.88409C9.57756 10.0509 9.75405 9.94981 9.75405 9.94981C9.75405 9.94981 10.0761 10.2543 9.91508 10.6011C9.75405 10.9479 9.63652 11.0499 9.63652 11.0499C9.63652 11.0499 9.61383 10.943 9.42362 10.943C9.2334 10.943 8.87952 11.5207 9.09903 11.7003C9.31854 11.8799 9.42362 11.8466 9.42362 11.8466C9.42362 11.8466 8.94912 12.2402 9.09903 12.8652C9.24895 13.4902 9.64964 13.7912 10.062 13.9663C10.4744 14.1413 10.9663 14.1413 11.5983 14.1413C12.2303 14.1413 12.6045 14.5345 12.6045 14.5345C12.6045 14.5345 12.2843 14.6578 12.3912 14.9453C12.4981 15.2329 12.7418 15.2329 12.7418 15.2329C12.7418 15.2329 12.9203 15.4897 13.0919 15.4036C13.2635 15.3175 13.3718 15.2329 13.3718 15.2329C13.3718 15.2329 13.5144 15.5212 13.6801 15.5678V15.5741C13.6875 15.5741 13.6949 15.5735 13.7022 15.5725C13.7095 15.5735 13.7169 15.5741 13.7243 15.5741V15.5678Z" fill="#BF9937"/>
<path d="M10.5826 12.9984L10.6614 12.8079C11.5672 13.1961 12.598 13.3905 13.7544 13.3905C14.9102 13.3905 15.9132 13.1963 16.7641 12.8088L16.847 12.9975C15.9685 13.3977 14.9374 13.5973 13.7544 13.5973C12.5719 13.5973 11.5144 13.3979 10.5826 12.9984Z" fill="#805440"/>
<path fill-rule="evenodd" clip-rule="evenodd" d="M10.8587 6.42456H13.6511H13.7217H16.514V11.6969C16.514 11.6969 16.513 12.1623 16.021 12.3657C15.5291 12.5692 14.9504 12.4964 14.9504 12.4964C14.9504 12.4964 14.3967 12.3773 14.1043 12.4964C13.9252 12.5693 13.7953 12.6054 13.7217 12.6225V12.6363C13.7217 12.6363 13.7097 12.6348 13.6864 12.6301C13.663 12.6348 13.6511 12.6363 13.6511 12.6363V12.6225C13.5774 12.6054 13.4476 12.5693 13.2684 12.4964C12.9761 12.3773 12.4224 12.4964 12.4224 12.4964C12.4224 12.4964 11.8437 12.5692 11.3517 12.3657C10.8597 12.1623 10.8587 11.6969 10.8587 11.6969V6.42456Z" fill="#BF9937"/>
<mask id="mask1_701_25277" style="mask-type:alpha" maskUnits="userSpaceOnUse" x="10" y="6" width="7" height="7">
<path fill-rule="evenodd" clip-rule="evenodd" d="M10.8587 6.42456H13.6511H13.7217H16.514V11.6969C16.514 11.6969 16.513 12.1623 16.021 12.3657C15.5291 12.5692 14.9504 12.4964 14.9504 12.4964C14.9504 12.4964 14.3967 12.3773 14.1043 12.4964C13.9252 12.5693 13.7953 12.6054 13.7217 12.6225V12.6363C13.7217 12.6363 13.7097 12.6348 13.6864 12.6301C13.663 12.6348 13.6511 12.6363 13.6511 12.6363V12.6225C13.5774 12.6054 13.4476 12.5693 13.2684 12.4964C12.9761 12.3773 12.4224 12.4964 12.4224 12.4964C12.4224 12.4964 11.8437 12.5692 11.3517 12.3657C10.8597 12.1623 10.8587 11.6969 10.8587 11.6969V6.42456Z" fill="white"/>
</mask>
<g mask="url(#mask1_701_25277)">
<rect x="10.7797" y="6.3584" width="2.74219" height="2.925" fill="#D00F3A"/>
<path fill-rule="evenodd" clip-rule="evenodd" d="M13.8266 6.3584H16.6703V9.2834H13.8266V6.3584Z" fill="#FEDF00"/>
<path fill-rule="evenodd" clip-rule="evenodd" d="M13.8266 9.6084H16.5687V12.6417H13.8266V9.6084Z" fill="#FEDF00"/>
<rect x="10.7797" y="9.6084" width="2.74219" height="3.03333" fill="#FEDF00"/>
<path fill-rule="evenodd" clip-rule="evenodd" d="M15.8578 10.974C15.8578 10.974 15.9852 10.8447 15.9852 10.5394C15.9852 10.2342 16.0926 10.0323 15.8578 10.0323C15.623 10.0323 15.3041 10.0323 15.0795 10.0323C14.855 10.0323 14.9703 10.168 14.7445 10.0323C14.5188 9.89656 14.3368 9.93974 14.3368 10.0323C14.3368 10.1248 14.5647 10.0841 14.5647 10.272C14.5647 10.46 14.6509 10.2965 14.6509 10.6353C14.6509 10.974 14.6985 10.9171 14.7215 10.9171C14.7445 10.9171 14.7445 10.8559 14.7445 10.7669C14.7445 10.6778 14.7331 10.3186 14.7957 10.429C14.8584 10.5394 14.8893 10.4873 14.9202 10.6128C14.9512 10.7382 15.0343 10.8603 14.9773 10.9171C14.9202 10.974 14.8051 11.0228 14.8912 11.0228C14.9773 11.0228 15.1024 10.8784 15.0398 10.6353C14.9773 10.3921 15.1175 10.6128 15.1175 10.6128C15.1175 10.6128 15.4492 10.6864 15.4705 10.5854C15.4918 10.4844 15.5222 10.6819 15.6121 10.6819C15.702 10.6819 15.5254 10.8852 15.4512 10.9171C15.3769 10.949 15.4512 10.974 15.4512 10.974C15.4512 10.974 15.5204 11.0309 15.5662 10.974C15.6121 10.9171 15.7762 10.7311 15.7762 10.6353C15.7762 10.5394 15.8814 10.597 15.8814 10.6819C15.8814 10.7669 15.7838 11.0717 15.8208 11.0228C15.8578 10.974 15.8578 10.974 15.8578 10.974Z" fill="#D00F3A"/>
<path fill-rule="evenodd" clip-rule="evenodd" d="M15.8578 12.1656C15.8578 12.1656 15.9852 12.0363 15.9852 11.7311C15.9852 11.4258 16.0926 11.2239 15.8578 11.2239C15.623 11.2239 15.3041 11.2239 15.0795 11.2239C14.855 11.2239 14.9703 11.3596 14.7445 11.2239C14.5188 11.0882 14.3368 11.1314 14.3368 11.2239C14.3368 11.3164 14.5647 11.2757 14.5647 11.4637C14.5647 11.6516 14.6509 11.4882 14.6509 11.8269C14.6509 12.1656 14.6985 12.1088 14.7215 12.1088C14.7445 12.1088 14.7445 12.0476 14.7445 11.9585C14.7445 11.8695 14.7331 11.5103 14.7957 11.6207C14.8584 11.7311 14.8893 11.679 14.9202 11.8044C14.9512 11.9299 15.0343 12.0519 14.9773 12.1088C14.9202 12.1656 14.8051 12.2145 14.8912 12.2145C14.9773 12.2145 15.1024 12.07 15.0398 11.8269C14.9773 11.5838 15.1175 11.8044 15.1175 11.8044C15.1175 11.8044 15.4492 11.878 15.4705 11.777C15.4918 11.676 15.5222 11.8736 15.6121 11.8736C15.702 11.8736 15.5254 12.0769 15.4512 12.1088C15.3769 12.1406 15.4512 12.1656 15.4512 12.1656C15.4512 12.1656 15.5204 12.2225 15.5662 12.1656C15.6121 12.1088 15.7762 11.9227 15.7762 11.8269C15.7762 11.7311 15.8814 11.7887 15.8814 11.8736C15.8814 11.9585 15.7838 12.2633 15.8208 12.2145C15.8578 12.1656 15.8578 12.1656 15.8578 12.1656Z" fill="#D00F3A"/>
<path fill-rule="evenodd" clip-rule="evenodd" d="M12.1575 8.72323C12.1575 8.84704 12.0945 8.94159 11.951 9.0864L11.8936 9.14399C11.8728 9.16513 11.8568 9.18192 11.8429 9.19766C11.7203 9.33612 11.5058 9.21675 11.4509 9.08235C11.4421 9.06083 11.3991 8.98355 11.3291 8.86255L11.3252 8.8559L11.284 8.78477L11.2464 8.72024C11.2189 8.67291 11.2045 8.64781 11.1973 8.63458C11.1923 8.62545 11.164 8.63607 11.1142 8.69961C11.0952 8.72382 11.1341 8.80662 11.258 8.93911L11.1878 9.01734C11.0154 8.84926 10.932 8.74037 10.932 8.66487C10.932 8.53887 11.0333 8.47124 11.222 8.47124C11.3407 8.47124 11.4041 8.55483 11.4991 8.76521L11.5233 8.81913C11.5702 8.92303 11.6003 8.97965 11.6368 9.02576C11.6801 9.08052 11.7061 9.07795 11.7509 9.02149C11.7949 8.96593 11.8357 8.87928 11.8969 8.72321C11.9033 8.70675 11.909 8.69284 11.9137 8.68121C11.9269 8.64882 11.9329 8.63408 11.9291 8.63093C11.926 8.62829 11.9161 8.63373 11.8979 8.64371C11.8913 8.64728 11.8838 8.65144 11.875 8.65602L11.8276 8.68091L11.3971 7.6465L12.2117 6.65744V8.71728L12.1595 8.67011C12.1583 8.68421 12.1575 8.70206 12.1575 8.72323ZM12.2156 8.72081L12.2117 8.72434V8.71728L12.2156 8.72081ZM12.2195 8.71728V8.72434L12.2156 8.72081L12.2195 8.71728ZM12.2195 6.65744L13.0341 7.6465L12.6036 8.68091L12.5562 8.65602C12.5232 8.63866 12.5064 8.62735 12.5021 8.63093C12.497 8.63521 12.5099 8.6609 12.5344 8.72321C12.5955 8.87928 12.6363 8.96593 12.6804 9.02149C12.7251 9.07795 12.7511 9.08052 12.7945 9.02576C12.831 8.97965 12.8611 8.92303 12.9079 8.81913L12.9321 8.76521C13.0272 8.55483 13.0905 8.47124 13.2092 8.47124C13.398 8.47124 13.4992 8.53887 13.4992 8.66487C13.4992 8.74037 13.4159 8.84926 13.2435 9.01734L13.1733 8.93911C13.2971 8.80662 13.336 8.72382 13.3171 8.69961C13.2673 8.63607 13.2389 8.62545 13.2339 8.63458C13.2268 8.64781 13.2123 8.67291 13.1848 8.72024L13.1473 8.78477L13.106 8.8559L13.1022 8.86255C13.0322 8.98355 12.9891 9.06083 12.9803 9.08235C12.9254 9.21675 12.711 9.33612 12.5883 9.19766C12.5744 9.18192 12.5585 9.16513 12.5376 9.14399L12.4803 9.0864C12.3368 8.94159 12.2738 8.84704 12.2738 8.72323C12.2738 8.70206 12.273 8.68421 12.2717 8.67011L12.2195 8.71728V6.65744ZM12.2195 6.65744L12.2156 6.65269L12.2195 6.64795V6.65744ZM12.2156 6.65269L12.2117 6.65744V6.64795L12.2156 6.65269ZM12.1653 8.63773L12.1668 8.63519L12.1664 8.63612L12.1653 8.63773Z" fill="white"/>
<path fill-rule="evenodd" clip-rule="evenodd" d="M12.2089 8.53728V6.86719L12.9149 7.66591L12.5523 8.53728C12.4186 8.49074 12.3718 8.58937 12.4407 8.76502C12.4817 8.86968 12.5141 8.94506 12.5457 9.0033C12.4255 8.88138 12.3754 8.80515 12.3754 8.72324C12.3754 8.65696 12.3692 8.61139 12.3531 8.58142C12.3456 8.56731 12.2822 8.55372 12.2414 8.545C12.2256 8.54161 12.2132 8.53895 12.2089 8.53728ZM11.879 8.53728L11.5163 7.66591L12.2052 6.87333V8.54342C12.2007 8.54515 12.189 8.54742 12.1744 8.55026C12.1387 8.5572 12.0856 8.56751 12.0781 8.58142C12.062 8.61139 12.0559 8.65696 12.0559 8.72324C12.0559 8.80515 12.0058 8.88138 11.8855 9.0033C11.9171 8.94506 11.9496 8.86968 11.9906 8.76502C12.0595 8.58937 12.0127 8.49074 11.879 8.53728Z" fill="#FEDF00"/>
<path fill-rule="evenodd" clip-rule="evenodd" d="M11.3891 9.6084H11.0844V12.6417H11.3891V9.6084ZM11.9984 9.6084H11.6937V12.6417H11.9984V9.6084ZM12.3031 9.6084H12.6078V12.6417H12.3031V9.6084ZM13.2172 9.6084H12.9125V12.6417H13.2172V9.6084Z" fill="#D00F3A"/>
<path fill-rule="evenodd" clip-rule="evenodd" d="M14.5375 6.3584H14.2328V9.39173H14.5375V6.3584ZM15.1469 6.3584H14.8422V9.39173H15.1469V6.3584ZM15.4516 6.3584H15.7562V9.39173H15.4516V6.3584ZM16.3656 6.3584H16.0609V9.39173H16.3656V6.3584Z" fill="#D00F3A"/>
</g>
</g>
</g>
<rect x="1.75" y="1.25" width="23.5" height="17.5" stroke="black" stroke-opacity="0.1" stroke-width="0.5" shape-rendering="crispEdges"/>
</g>
<defs>
<filter id="filter0_dd_701_25277" x="0" y="0" width="27" height="21" filterUnits="userSpaceOnUse" color-interpolation-filters="sRGB">
<feFlood flood-opacity="0" result="BackgroundImageFix"/>
<feColorMatrix in="SourceAlpha" type="matrix" values="0 0 0 0 0 0 0 0 0 0 0 0 0 0 0 0 0 0 127 0" result="hardAlpha"/>
<feOffset dy="0.5"/>
<feGaussianBlur stdDeviation="0.75"/>
<feComposite in2="hardAlpha" operator="out"/>
<feColorMatrix type="matrix" values="0 0 0 0 0 0 0 0 0 0 0 0 0 0 0 0 0 0 0.1 0"/>
<feBlend mode="multiply" in2="BackgroundImageFix" result="effect1_dropShadow_701_25277"/>
<feColorMatrix in="SourceAlpha" type="matrix" values="0 0 0 0 0 0 0 0 0 0 0 0 0 0 0 0 0 0 127 0" result="hardAlpha"/>
<feOffset/>
<feGaussianBlur stdDeviation="0.5"/>
<feComposite in2="hardAlpha" operator="out"/>
<feColorMatrix type="matrix" values="0 0 0 0 0 0 0 0 0 0 0 0 0 0 0 0 0 0 0.11 0"/>
<feBlend mode="multiply" in2="effect1_dropShadow_701_25277" result="effect2_dropShadow_701_25277"/>
<feBlend mode="normal" in="SourceGraphic" in2="effect2_dropShadow_701_25277" result="shape"/>
</filter>
<clipPath id="clip0_701_25277">
<rect x="1.5" y="1" width="24" height="18" fill="white"/>
</clipPath>
</defs>
</svg>
