<svg viewBox="0 0 27 21" fill="none" xmlns="http://www.w3.org/2000/svg">
<g filter="url(#filter0_dd_701_21945)">
<g clip-path="url(#clip0_701_21945)">
<mask id="mask0_701_21945" style="mask-type:alpha" maskUnits="userSpaceOnUse" x="1" y="1" width="25" height="18">
<rect x="1.5" y="1" width="24" height="18" fill="white"/>
</mask>
<g mask="url(#mask0_701_21945)">
<path fill-rule="evenodd" clip-rule="evenodd" d="M1.5 14.5H25.5V19H1.5V14.5Z" fill="#55BA07"/>
<path fill-rule="evenodd" clip-rule="evenodd" d="M1.5 5.5H25.5V14.5H1.5V5.5Z" fill="#1D1D1D"/>
<path fill-rule="evenodd" clip-rule="evenodd" d="M1.5 1H25.5V5.5H1.5V1Z" fill="#E11C1B"/>
<path fill-rule="evenodd" clip-rule="evenodd" d="M13.3481 12.2995C12.0041 12.0217 11.6554 11.3184 11.6698 10.2336C11.6698 9.0857 12.2742 7.92383 13.3345 7.79681C14.3947 7.66979 15.2631 8.06528 15.7183 8.61717C15.3375 7.11904 14.0764 6.95519 13.108 6.95519C11.6502 6.94245 10.155 8.05023 10.155 10.1341C10.155 11.9496 11.4729 13.3146 13.1501 13.3484C15.247 13.3484 15.5751 11.9004 15.6355 11.4071C15.5142 11.4941 15.4014 11.598 15.2856 11.7046C14.8639 12.0927 14.4026 12.5174 13.3481 12.2995ZM16.6973 9.46847L15.7043 9.78091L16.8163 10.216L16.6615 11.3815L17.4151 10.5795L18.5085 10.8047L17.7696 9.94081L18.4237 9.05804L17.5105 9.25076L16.8653 8.52161L16.6973 9.46847Z" fill="white"/>
</g>
</g>
<rect x="1.75" y="1.25" width="23.5" height="17.5" stroke="black" stroke-opacity="0.1" stroke-width="0.5" shape-rendering="crispEdges"/>
</g>
<defs>
<filter id="filter0_dd_701_21945" x="0" y="0" width="27" height="21" filterUnits="userSpaceOnUse" color-interpolation-filters="sRGB">
<feFlood flood-opacity="0" result="BackgroundImageFix"/>
<feColorMatrix in="SourceAlpha" type="matrix" values="0 0 0 0 0 0 0 0 0 0 0 0 0 0 0 0 0 0 127 0" result="hardAlpha"/>
<feOffset dy="0.5"/>
<feGaussianBlur stdDeviation="0.75"/>
<feComposite in2="hardAlpha" operator="out"/>
<feColorMatrix type="matrix" values="0 0 0 0 0 0 0 0 0 0 0 0 0 0 0 0 0 0 0.1 0"/>
<feBlend mode="multiply" in2="BackgroundImageFix" result="effect1_dropShadow_701_21945"/>
<feColorMatrix in="SourceAlpha" type="matrix" values="0 0 0 0 0 0 0 0 0 0 0 0 0 0 0 0 0 0 127 0" result="hardAlpha"/>
<feOffset/>
<feGaussianBlur stdDeviation="0.5"/>
<feComposite in2="hardAlpha" operator="out"/>
<feColorMatrix type="matrix" values="0 0 0 0 0 0 0 0 0 0 0 0 0 0 0 0 0 0 0.11 0"/>
<feBlend mode="multiply" in2="effect1_dropShadow_701_21945" result="effect2_dropShadow_701_21945"/>
<feBlend mode="normal" in="SourceGraphic" in2="effect2_dropShadow_701_21945" result="shape"/>
</filter>
<clipPath id="clip0_701_21945">
<rect x="1.5" y="1" width="24" height="18" fill="white"/>
</clipPath>
</defs>
</svg>