<svg viewBox="0 0 27 21" fill="none" xmlns="http://www.w3.org/2000/svg">
<g filter="url(#filter0_dd_701_19208)">
<g clip-path="url(#clip0_701_19208)">
<mask id="mask0_701_19208" style="mask-type:alpha" maskUnits="userSpaceOnUse" x="1" y="1" width="25" height="18">
<rect x="1.5" y="1" width="24" height="18" fill="white"/>
</mask>
<g mask="url(#mask0_701_19208)">
<path fill-rule="evenodd" clip-rule="evenodd" d="M1.5 1H25.5V19H1.5V1Z" fill="#F7FCFF"/>
<path fill-rule="evenodd" clip-rule="evenodd" d="M1.5 1V7H25.5V1H1.5Z" fill="#C51918"/>
<path fill-rule="evenodd" clip-rule="evenodd" d="M1.5 13V19H25.5V13H1.5Z" fill="#5EAA22"/>
<path fill-rule="evenodd" clip-rule="evenodd" d="M1.5 -0.5L14.0022 10L1.5 20.5V-0.5Z" fill="#272727"/>
<mask id="path-8-outside-1_701_19208" maskUnits="userSpaceOnUse" x="-0.5" y="-6.51611" width="28" height="32" fill="black">
<rect fill="white" x="-0.5" y="-6.51611" width="28" height="32"/>
<path fill-rule="evenodd" clip-rule="evenodd" d="M1.5 -1.51611L14.5562 8.5001H25.5V11.5001H14.377L1.5 21.1087V17.7552L12 10.0001L1.5 2.15098V-1.51611Z"/>
</mask>
<path fill-rule="evenodd" clip-rule="evenodd" d="M1.5 -1.51611L14.5562 8.5001H25.5V11.5001H14.377L1.5 21.1087V17.7552L12 10.0001L1.5 2.15098V-1.51611Z" fill="#FFD018"/>
<path d="M14.5562 8.5001L13.3389 10.0869L13.8774 10.5001H14.5562V8.5001ZM1.5 -1.51611L2.71736 -3.10295L-0.5 -5.57117V-1.51611H1.5ZM25.5 8.5001H27.5V6.5001H25.5V8.5001ZM25.5 11.5001V13.5001H27.5V11.5001H25.5ZM14.377 11.5001V9.5001H13.7131L13.181 9.89717L14.377 11.5001ZM1.5 21.1087H-0.5V25.0965L2.69608 22.7117L1.5 21.1087ZM1.5 17.7552L0.311785 16.1465L-0.5 16.746V17.7552H1.5ZM12 10.0001L13.1882 11.6089L15.3533 10.0098L13.1975 8.3982L12 10.0001ZM1.5 2.15098H-0.5V3.15295L0.302528 3.75287L1.5 2.15098ZM15.7736 6.91326L2.71736 -3.10295L0.282644 0.0707214L13.3389 10.0869L15.7736 6.91326ZM25.5 6.5001H14.5562V10.5001H25.5V6.5001ZM27.5 11.5001V8.5001H23.5V11.5001H27.5ZM14.377 13.5001H25.5V9.5001H14.377V13.5001ZM2.69608 22.7117L15.5731 13.103L13.181 9.89717L0.303918 19.5058L2.69608 22.7117ZM-0.5 17.7552V21.1087H3.5V17.7552H-0.5ZM10.8118 8.39133L0.311785 16.1465L2.68821 19.364L13.1882 11.6089L10.8118 8.39133ZM0.302528 3.75287L10.8025 11.602L13.1975 8.3982L2.69747 0.549083L0.302528 3.75287ZM-0.5 -1.51611V2.15098H3.5V-1.51611H-0.5Z" fill="#272727" mask="url(#path-8-outside-1_701_19208)"/>
<path d="M5.15527 13.5761L5.15676 12.3909C6.21301 12.1578 6.91272 11.8547 7.25331 11.4902C8.09199 10.4566 7.53447 8.03497 5.81144 8.0508C4.9578 8.0508 4.07506 8.45759 4.07506 9.41499C4.07506 10.6041 4.31976 11.1124 5.15676 11.1124C5.98855 11.1124 6.29351 11.1568 6.84142 10.4101L7.43601 10.5938C6.84887 11.394 6.05744 12.0262 5.15527 12.0262C3.66911 12.0262 2.86034 10.9056 2.86034 9.60969C2.86034 8.00986 4.1591 6.8894 5.72506 6.8894C6.89349 6.8894 8.7416 8.32056 8.7416 9.60969C8.7416 10.8988 8.7416 11.4902 7.72822 12.3909C7.32005 12.7536 6.30871 13.4015 5.15527 13.5761Z" fill="#FFD018"/>
<path fill-rule="evenodd" clip-rule="evenodd" d="M5.24357 8.41007C5.18635 8.39496 5.12773 8.4291 5.11262 8.48631L5.07166 8.64142C5.06961 8.63877 5.06756 8.63611 5.0655 8.63345C5.02933 8.58661 4.96205 8.57797 4.91522 8.61414C4.86838 8.65031 4.85974 8.71759 4.89591 8.76443C4.92073 8.79657 4.94522 8.82833 4.96938 8.85972L4.84591 8.97373C4.80243 9.01388 4.79973 9.08166 4.83988 9.12514C4.88002 9.16861 4.94781 9.17131 4.99128 9.13117L5.10039 9.03042C5.16553 9.11557 5.22795 9.19758 5.2876 9.27635L5.0822 9.38662C5.03007 9.41461 5.01049 9.47957 5.03848 9.5317C5.06647 9.58384 5.13142 9.60341 5.18356 9.57542L5.41814 9.44948C5.47442 9.52445 5.52778 9.59599 5.57816 9.66397L5.29649 9.81519C5.24435 9.84318 5.22478 9.90814 5.25277 9.96027C5.28076 10.0124 5.34571 10.032 5.39784 10.004L5.7065 9.83829C5.78858 9.95059 5.86055 10.0507 5.92199 10.138L5.72506 10.2438C5.67292 10.2718 5.65335 10.3367 5.68134 10.3888C5.70933 10.441 5.77428 10.4606 5.82642 10.4326L6.04438 10.3155C6.13503 10.4506 6.18197 10.5317 6.18197 10.553C6.18197 10.6122 6.22994 10.6601 6.28911 10.6601C6.34829 10.6601 6.39626 10.6122 6.39626 10.553C6.39626 10.4988 6.33984 10.3847 6.22195 10.2019C6.22366 10.199 6.22523 10.1959 6.22665 10.1928L6.38519 9.84368C6.40966 9.78981 6.38582 9.72629 6.33195 9.70182C6.27807 9.67736 6.21456 9.70119 6.19009 9.75507L6.08178 9.99356C6.01411 9.89616 5.93512 9.78591 5.84443 9.66214L5.95662 9.41511C5.98109 9.36124 5.95725 9.29772 5.90338 9.27325C5.8495 9.24878 5.78599 9.27262 5.76152 9.3265L5.69862 9.46498C5.66396 9.4185 5.62794 9.37043 5.59055 9.32075L5.74234 8.98654C5.76681 8.93266 5.74297 8.86915 5.68909 8.84468C5.63521 8.82021 5.5717 8.84405 5.54723 8.89793L5.44348 9.12637C5.37813 9.0404 5.30923 8.95023 5.2367 8.85575L5.31981 8.54102C5.33491 8.4838 5.30078 8.42518 5.24357 8.41007Z" fill="#FFD018"/>
<path fill-rule="evenodd" clip-rule="evenodd" d="M5.96414 8.41007C6.02135 8.39496 6.07998 8.4291 6.09509 8.48631L6.13604 8.64142C6.13809 8.63877 6.14015 8.63611 6.1422 8.63345C6.17837 8.58661 6.24566 8.57797 6.29249 8.61414C6.33932 8.65031 6.34797 8.71759 6.3118 8.76443C6.28698 8.79657 6.26249 8.82833 6.23832 8.85972L6.3618 8.97373C6.40527 9.01388 6.40797 9.08166 6.36783 9.12514C6.32769 9.16861 6.2599 9.17131 6.21643 9.13117L6.10732 9.03042C6.04218 9.11557 5.97975 9.19758 5.92011 9.27635L6.12551 9.38662C6.17764 9.41461 6.19721 9.47957 6.16923 9.5317C6.14124 9.58384 6.07628 9.60341 6.02415 9.57542L5.78957 9.44948C5.73329 9.52445 5.67993 9.59599 5.62954 9.66398L5.91122 9.81519C5.96335 9.84318 5.98293 9.90814 5.95494 9.96027C5.92695 10.0124 5.862 10.032 5.80986 10.004L5.50121 9.83829C5.41912 9.95059 5.34716 10.0507 5.28571 10.138L5.48265 10.2438C5.53478 10.2718 5.55436 10.3367 5.52637 10.3888C5.49838 10.441 5.43343 10.4606 5.38129 10.4326L5.16333 10.3155C5.07267 10.4506 5.02574 10.5317 5.02574 10.553C5.02574 10.6122 4.97777 10.6601 4.91859 10.6601C4.85942 10.6601 4.81145 10.6122 4.81145 10.553C4.81145 10.4988 4.86786 10.3847 4.98575 10.2019C4.98405 10.199 4.98248 10.1959 4.98106 10.1928L4.82251 9.84368C4.79804 9.78981 4.82188 9.72629 4.87576 9.70182C4.92964 9.67736 4.99315 9.70119 5.01762 9.75507L5.12593 9.99356C5.1936 9.89616 5.27259 9.78591 5.36328 9.66214L5.25108 9.41511C5.22661 9.36124 5.25045 9.29772 5.30433 9.27325C5.35821 9.24878 5.42172 9.27262 5.44619 9.3265L5.50908 9.46498C5.54375 9.4185 5.57977 9.37043 5.61716 9.32075L5.46537 8.98654C5.4409 8.93266 5.46474 8.86915 5.51862 8.84468C5.57249 8.82021 5.63601 8.84405 5.66047 8.89793L5.76423 9.12637C5.82957 9.0404 5.89848 8.95023 5.97101 8.85575L5.8879 8.54102C5.87279 8.4838 5.90693 8.42518 5.96414 8.41007Z" fill="#FFD018"/>
</g>
</g>
<rect x="1.75" y="1.25" width="23.5" height="17.5" stroke="black" stroke-opacity="0.1" stroke-width="0.5" shape-rendering="crispEdges"/>
</g>
<defs>
<filter id="filter0_dd_701_19208" x="0" y="0" width="27" height="21" filterUnits="userSpaceOnUse" color-interpolation-filters="sRGB">
<feFlood flood-opacity="0" result="BackgroundImageFix"/>
<feColorMatrix in="SourceAlpha" type="matrix" values="0 0 0 0 0 0 0 0 0 0 0 0 0 0 0 0 0 0 127 0" result="hardAlpha"/>
<feOffset dy="0.5"/>
<feGaussianBlur stdDeviation="0.75"/>
<feComposite in2="hardAlpha" operator="out"/>
<feColorMatrix type="matrix" values="0 0 0 0 0 0 0 0 0 0 0 0 0 0 0 0 0 0 0.1 0"/>
<feBlend mode="multiply" in2="BackgroundImageFix" result="effect1_dropShadow_701_19208"/>
<feColorMatrix in="SourceAlpha" type="matrix" values="0 0 0 0 0 0 0 0 0 0 0 0 0 0 0 0 0 0 127 0" result="hardAlpha"/>
<feOffset/>
<feGaussianBlur stdDeviation="0.5"/>
<feComposite in2="hardAlpha" operator="out"/>
<feColorMatrix type="matrix" values="0 0 0 0 0 0 0 0 0 0 0 0 0 0 0 0 0 0 0.11 0"/>
<feBlend mode="multiply" in2="effect1_dropShadow_701_19208" result="effect2_dropShadow_701_19208"/>
<feBlend mode="normal" in="SourceGraphic" in2="effect2_dropShadow_701_19208" result="shape"/>
</filter>
<clipPath id="clip0_701_19208">
<rect x="1.5" y="1" width="24" height="18" fill="white"/>
</clipPath>
</defs>
</svg>