<svg width="27" height="21" viewBox="0 0 27 21" fill="none" xmlns="http://www.w3.org/2000/svg">
<g filter="url(#filter0_dd_701_24984)">
<g clip-path="url(#clip0_701_24984)">
<mask id="mask0_701_24984" style="mask-type:alpha" maskUnits="userSpaceOnUse" x="1" y="1" width="25" height="18">
<rect x="1.5" y="1" width="24" height="18" fill="white"/>
</mask>
<g mask="url(#mask0_701_24984)">
<path fill-rule="evenodd" clip-rule="evenodd" d="M1.5 1V19H25.5V1H1.5Z" fill="#AF0100"/>
<mask id="mask1_701_24984" style="mask-type:alpha" maskUnits="userSpaceOnUse" x="1" y="1" width="25" height="18">
<path fill-rule="evenodd" clip-rule="evenodd" d="M1.5 1V19H25.5V1H1.5Z" fill="white"/>
</mask>
<g mask="url(#mask1_701_24984)">
<path fill-rule="evenodd" clip-rule="evenodd" d="M1.5 1V7H25.5V1H1.5Z" fill="#3CA5D9"/>
<path fill-rule="evenodd" clip-rule="evenodd" d="M1.5 13V19H25.5V13H1.5Z" fill="#73BE4A"/>
<path fill-rule="evenodd" clip-rule="evenodd" d="M14.3549 12.268C13.3447 12.035 12.4577 11.1654 12.4682 9.99999C12.478 8.90903 13.1199 8.02588 14.2311 7.77508C15.3422 7.52429 16.4942 8.00086 16.4942 8.00086C16.1879 7.31993 15.1219 6.84244 14.2474 6.84473C12.6197 6.849 10.8832 8.09162 10.8662 9.98919C10.8485 11.9565 12.7208 13.0749 14.3686 13.0706C15.6895 13.0671 16.3171 12.2169 16.4473 11.8554C16.4473 11.8554 15.3652 12.5009 14.3549 12.268ZM15.0133 11.0655L15.895 10.452L16.7767 11.0655L16.4656 10.0374L17.3216 9.38847L16.2477 9.36659L15.895 8.352L15.5423 9.36659L14.4684 9.38847L15.3244 10.0374L15.0133 11.0655Z" fill="#F7FCFF"/>
</g>
</g>
</g>
<rect x="1.75" y="1.25" width="23.5" height="17.5" stroke="black" stroke-opacity="0.1" stroke-width="0.5" shape-rendering="crispEdges"/>
</g>
<defs>
<filter id="filter0_dd_701_24984" x="0" y="0" width="27" height="21" filterUnits="userSpaceOnUse" color-interpolation-filters="sRGB">
<feFlood flood-opacity="0" result="BackgroundImageFix"/>
<feColorMatrix in="SourceAlpha" type="matrix" values="0 0 0 0 0 0 0 0 0 0 0 0 0 0 0 0 0 0 127 0" result="hardAlpha"/>
<feOffset dy="0.5"/>
<feGaussianBlur stdDeviation="0.75"/>
<feComposite in2="hardAlpha" operator="out"/>
<feColorMatrix type="matrix" values="0 0 0 0 0 0 0 0 0 0 0 0 0 0 0 0 0 0 0.1 0"/>
<feBlend mode="multiply" in2="BackgroundImageFix" result="effect1_dropShadow_701_24984"/>
<feColorMatrix in="SourceAlpha" type="matrix" values="0 0 0 0 0 0 0 0 0 0 0 0 0 0 0 0 0 0 127 0" result="hardAlpha"/>
<feOffset/>
<feGaussianBlur stdDeviation="0.5"/>
<feComposite in2="hardAlpha" operator="out"/>
<feColorMatrix type="matrix" values="0 0 0 0 0 0 0 0 0 0 0 0 0 0 0 0 0 0 0.11 0"/>
<feBlend mode="multiply" in2="effect1_dropShadow_701_24984" result="effect2_dropShadow_701_24984"/>
<feBlend mode="normal" in="SourceGraphic" in2="effect2_dropShadow_701_24984" result="shape"/>
</filter>
<clipPath id="clip0_701_24984">
<rect x="1.5" y="1" width="24" height="18" fill="white"/>
</clipPath>
</defs>
</svg>
