<svg viewBox="0 0 27 21" fill="none" xmlns="http://www.w3.org/2000/svg">
<g filter="url(#filter0_dd_701_19140)">
<g clip-path="url(#clip0_701_19140)">
<rect x="1.5" y="1" width="24" height="18" fill="white"/>
<path d="M9.81778 16.9217C9.31837 17.0726 8.59888 17.3821 8.31108 17.5557C8.21797 17.616 8.22643 17.684 8.37033 17.9406C8.47191 18.1066 8.57348 18.25 8.59041 18.25C8.6158 18.25 8.89514 18.1368 9.20833 17.9934C9.52152 17.8575 9.92169 17.6783 10.1056 17.6462C10.2462 17.6217 10.3746 17.5985 10.4541 17.569C10.4861 17.6384 10.4664 17.5997 10.5248 17.7086C10.6086 17.865 10.5564 17.8615 10.7014 17.9043C10.8543 17.9495 11.2314 17.767 11.2314 17.767C11.6715 17.6311 11.917 17.616 13.4999 17.616C15.0828 17.616 15.3282 17.6311 15.7684 17.7745C15.7684 17.7745 16.1226 17.882 16.1681 17.895C16.2134 17.9079 16.2372 17.9181 16.285 17.9078C16.3286 17.8985 16.374 17.8391 16.3941 17.8032C16.3941 17.8032 16.4915 17.5946 16.5165 17.5215C16.6008 17.5576 16.7545 17.6047 16.9026 17.6462C17.0804 17.6991 17.4782 17.8575 17.7914 17.9934C18.1046 18.1368 18.3839 18.25 18.4093 18.25C18.4263 18.25 18.5278 18.1066 18.6294 17.9406C18.8326 17.5858 18.8495 17.616 18.1131 17.2764C17.1312 16.8236 16.1493 16.6198 16.0562 16.8387C16.0393 16.8802 16.0249 16.9045 16.0016 16.9583C15.9032 16.9381 15.6457 16.884 15.3875 16.8462C14.5918 16.7179 12.4079 16.7179 11.6123 16.8462C11.3541 16.884 11.1796 16.9469 11.0337 16.983C10.9511 16.8357 10.9684 16.8943 10.9515 16.8528C10.8838 16.7018 10.4357 16.7255 9.81777 16.9217H9.81778Z" fill="#DFDFDF"/>
<path d="M10.5371 7.59475C10.52 7.84069 10.5712 8.01465 10.7048 8.14662C10.7645 8.2096 10.8156 8.28459 10.8156 8.28459C10.8156 8.28459 10.7474 8.35957 10.6906 8.41655C10.557 8.54852 10.503 8.71948 10.503 8.89944C10.503 9.08539 10.557 9.21436 10.7019 9.38232C10.7019 9.38232 10.8243 9.44391 10.8213 9.52029C10.8183 9.59667 10.6906 9.67325 10.6906 9.67325C10.4291 9.97918 10.4376 10.3301 10.7105 10.621L10.827 10.75H13.5045H16.1792L16.3099 10.603C16.5629 10.3181 16.5629 10.0092 16.3128 9.68226C16.3128 9.68226 16.1869 9.59248 16.1849 9.51729C16.1828 9.44211 16.3042 9.36733 16.3042 9.36733C16.5657 9.03741 16.56 8.73448 16.29 8.41655C16.1678 8.27559 16.165 8.24859 16.2616 8.18261C16.4179 8.07163 16.5146 7.69672 16.4435 7.46878C16.3383 7.12686 15.8864 6.89891 15.6107 7.04888C15.5595 7.07587 15.4572 7.15085 15.3805 7.21384C15.3037 7.27982 15.2327 7.33081 15.2185 7.33081C15.2071 7.33081 15.1389 7.27682 15.0678 7.21084C14.7921 6.9619 14.4601 6.9319 14.1844 7.21384C14.1844 7.21384 14.1451 7.36466 14.0872 7.3698C14.0293 7.37494 13.9479 7.23483 13.9479 7.23483C13.6665 6.9559 13.3141 6.9679 13.027 7.26183C13.027 7.26183 12.9868 7.38461 12.9218 7.3698C12.8569 7.35499 12.8036 7.21084 12.8036 7.21084C12.6359 7.04887 12.5296 7.05188 12.3363 7.04888C12.2251 7.04707 12.0235 7.07414 11.9018 7.16515C11.78 7.25616 11.8015 7.36519 11.7735 7.3578C11.7032 7.33925 11.6257 7.22583 11.6257 7.22583C11.3529 6.97989 11.134 6.9379 10.8697 7.08487C10.6622 7.19884 10.5541 7.3668 10.5371 7.59475Z" fill="#171796"/>
<path d="M10.7136 11.8689C10.7136 11.8689 10.8226 11.922 10.8188 11.99C10.8151 12.058 10.6994 12.1258 10.6994 12.1258C10.634 12.1996 10.5629 12.3059 10.5402 12.359C10.4492 12.5863 10.5175 12.8904 10.6966 13.0646C10.8046 13.1739 10.8075 13.2181 10.7051 13.3481C10.6596 13.4041 10.6056 13.4839 10.5857 13.5252C10.3724 13.9444 10.6909 14.4699 11.1629 14.4699C11.3505 14.4699 11.4927 14.4079 11.6206 14.2662C11.723 14.154 11.777 14.1511 11.868 14.2515C12.0016 14.405 12.1779 14.4995 12.3258 14.4995C12.4992 14.4995 12.6072 14.4434 12.7835 14.2692C12.7835 14.2692 12.8534 14.1326 12.9171 14.1334C12.9809 14.1341 13.0394 14.2721 13.0394 14.2721C13.3038 14.5674 13.5711 14.5762 13.9265 14.2957C13.9265 14.2957 14.0046 14.1821 14.0715 14.1836C14.1384 14.185 14.1966 14.3017 14.1966 14.3017C14.353 14.4434 14.4696 14.4995 14.6231 14.4995C14.7766 14.4995 14.8904 14.4375 15.0695 14.2544C15.0695 14.2544 15.162 14.1155 15.2173 14.1068C15.2727 14.098 15.3311 14.2131 15.3311 14.2131C15.55 14.4168 15.6694 14.4817 15.8286 14.4817C15.9935 14.4817 16.1101 14.4257 16.275 14.2721C16.4286 14.1275 16.511 13.9592 16.4911 13.8204C16.4712 13.6699 16.3404 13.3953 16.2437 13.3008C16.2437 13.3008 16.1468 13.2924 16.1613 13.2181C16.1758 13.1439 16.2892 13.0676 16.2892 13.0676C16.5679 12.7281 16.5707 12.4653 16.2949 12.1287C16.2949 12.1287 16.1797 12.0622 16.1812 11.987C16.1827 11.9118 16.3006 11.8365 16.3006 11.8365C16.5679 11.5088 16.565 11.2047 16.2949 10.9065L16.1499 10.75L13.4886 10.753L10.8274 10.7559L10.708 10.8947C10.4293 11.2165 10.4322 11.5442 10.7136 11.8689Z" fill="#D42E12"/>
<path fill-rule="evenodd" clip-rule="evenodd" d="M14.8654 11.2163C14.9943 11.2163 15.1015 11.3041 15.1237 11.4198L15.1279 11.4643V11.9255L15.6796 11.6326C15.8017 11.5678 15.9539 11.613 16.0194 11.7337C16.0778 11.841 16.048 11.9717 15.955 12.045L15.9171 12.0696L15.4547 12.3151L15.9171 12.5606L15.955 12.5852C16.048 12.6585 16.0778 12.7892 16.0194 12.8965C15.9539 13.0172 15.8017 13.0624 15.6796 12.9976L15.1279 12.7047V13.2183C15.1279 13.3553 15.0104 13.4663 14.8654 13.4663C14.7366 13.4663 14.6294 13.3786 14.6072 13.2629L14.6029 13.2183V12.7673L14.1692 12.9976C14.0471 13.0624 13.8949 13.0172 13.8293 12.8965C13.771 12.7892 13.8007 12.6585 13.8938 12.5852L13.9316 12.5606L14.3941 12.3151L13.9316 12.0696L13.8938 12.045C13.8007 11.9717 13.771 11.841 13.8293 11.7337C13.8949 11.613 14.0471 11.5678 14.1692 11.6326L14.6029 11.8629V11.4643C14.6029 11.3274 14.7205 11.2163 14.8654 11.2163Z" fill="#E9D315"/>
<path fill-rule="evenodd" clip-rule="evenodd" d="M12.3161 11.2163C12.4449 11.2163 12.5521 11.3041 12.5743 11.4198L12.5786 11.4643V11.9255L13.1302 11.6326C13.2523 11.5678 13.4045 11.613 13.4701 11.7337C13.5284 11.841 13.4987 11.9717 13.4056 12.045L13.3677 12.0696L12.9053 12.3151L13.3677 12.5606L13.4056 12.5852C13.4987 12.6585 13.5284 12.7892 13.4701 12.8965C13.4045 13.0172 13.2523 13.0624 13.1302 12.9976L12.5786 12.7047V13.2183C12.5786 13.3553 12.461 13.4663 12.3161 13.4663C12.1872 13.4663 12.08 13.3786 12.0578 13.2629L12.0536 13.2183V12.7673L11.6198 12.9976C11.4977 13.0624 11.3455 13.0172 11.2799 12.8965C11.2216 12.7892 11.2513 12.6585 11.3444 12.5852L11.3823 12.5606L11.8447 12.3151L11.3823 12.0696L11.3444 12.045C11.2513 11.9717 11.2216 11.841 11.2799 11.7337C11.3455 11.613 11.4977 11.5678 11.6198 11.6326L12.0536 11.8629V11.4643C12.0536 11.3274 12.1711 11.2163 12.3161 11.2163Z" fill="#E9D315"/>
<path d="M9.60214 10.6424H9.75214V10.6424C9.75214 10.643 9.75215 10.6663 9.75217 10.709C9.66725 10.7064 9.6039 10.6442 9.60217 10.6425L9.60214 10.6425L9.60214 10.6426L9.60214 10.643L9.60214 10.6448L9.60214 10.6516L9.60215 10.6785L9.60221 10.7815L9.60246 11.1559L9.60353 12.3554C9.60452 13.2672 9.60613 14.2953 9.60856 14.7641C9.60354 14.8681 9.63335 14.9493 9.69385 15.0168C9.71999 15.0459 9.74947 15.0698 9.77463 15.0892C9.78718 15.0989 9.79766 15.1068 9.80777 15.1144C9.82181 15.1249 9.83515 15.1349 9.85238 15.1486C9.92633 15.2072 10.0487 15.2508 10.1816 15.2852C10.3221 15.3214 10.4989 15.3532 10.7011 15.3772C11.1042 15.425 11.6173 15.4429 12.1614 15.4002C12.3849 15.4026 12.5468 15.4461 12.6694 15.5053C12.7934 15.5653 12.8848 15.645 12.9629 15.7295C13.0025 15.7724 13.0379 15.8156 13.0739 15.8596L13.0764 15.8626C13.1104 15.9042 13.1467 15.9486 13.184 15.9875C13.2605 16.0675 13.3646 16.15 13.514 16.15C13.6641 16.15 13.7672 16.0667 13.842 15.9854C13.8792 15.9451 13.9148 15.8992 13.9478 15.8565L13.9498 15.854C13.9834 15.8106 14.0162 15.7683 14.0529 15.7263C14.1265 15.642 14.2119 15.5632 14.3284 15.5041C14.4443 15.4453 14.5988 15.402 14.8153 15.4002C15.4297 15.4096 15.954 15.3947 16.3489 15.3576C16.5463 15.3391 16.7148 15.3148 16.8475 15.2841C16.9705 15.2557 17.0885 15.2166 17.1632 15.153L17.1684 15.1488C17.1729 15.145 17.1792 15.1398 17.1866 15.1332C17.2015 15.1203 17.2216 15.1018 17.2432 15.0795C17.2821 15.0394 17.3427 14.9701 17.3705 14.8885C17.3954 14.8156 17.4019 14.7495 17.4021 14.7014C17.4023 14.6772 17.4008 14.657 17.3992 14.642C17.3988 14.638 17.3983 14.6343 17.3979 14.6311V10.6424V6.25V6.1H17.2479H13.5H9.75214H9.60214V6.25V10.6424Z" stroke="black" stroke-width="0.3"/>
<path d="M12.6516 8.39924C12.4502 8.77408 12.4417 8.94227 12.609 9.24262C12.7394 9.47329 12.8926 9.61986 13.1024 9.71357C13.6496 9.96105 14.35 9.77844 14.625 9.31711C14.7951 9.03358 14.7753 8.56023 14.5881 8.35359L14.5371 8.29833L14.4889 8.46172C14.4209 8.69479 14.3528 8.81252 14.2167 8.93747C13.9615 9.17054 13.6099 9.2234 13.247 9.07923C12.9663 8.9663 12.8529 8.81012 12.748 8.37522L12.7224 8.26709L12.6515 8.39924L12.6516 8.39924Z" fill="white"/>
<path fill-rule="evenodd" clip-rule="evenodd" d="M15.3589 3.625C15.3589 4.27445 14.8913 4.75 14.2336 4.75C13.5758 4.75 13.1123 4.27445 13.1123 3.625C13.1123 2.972 13.5758 2.5 14.2336 2.5C14.8913 2.5 15.3589 2.972 15.3589 3.625ZM6.39226 4.71451V3.19913L7.06189 4.71451H7.35509L8.00887 3.19913V4.71451H8.40509V2.53549H7.94547L7.21245 4.21057L6.47151 2.53549H6V4.71451H6.39226ZM9.16981 4.71451L9.41943 4.1112H10.3506L10.6002 4.71451H11.0202L10.0851 2.53549H9.68887L8.75377 4.71451H9.16981ZM9.88302 2.9862L9.55019 3.7918H10.2158L9.88302 2.9862ZM12.1891 4.71451V3.84503L13.0726 2.53549H12.6368L11.9949 3.51144L11.3491 2.53549H10.9013L11.7809 3.84503V4.71451H12.1891ZM14.2336 4.41995C13.8057 4.41995 13.5283 4.08636 13.5283 3.625C13.5283 3.16364 13.8057 2.83005 14.2336 2.83005C14.6615 2.83005 14.9428 3.16364 14.9428 3.625C14.9428 4.08636 14.6615 4.41995 14.2336 4.41995ZM16.6981 2.86199V4.71451H16.286V2.86199H15.4777V2.53549H17.5064V2.86199H16.6981ZM18.9645 4.71451V2.86199H19.7728V2.53549H17.7442V2.86199H18.5525V4.71451H18.9645ZM21.75 4.38446V4.71451H20.1611V2.53549H21.75V2.86199H20.5653V3.43691H21.6391V3.75986H20.5653V4.38446H21.75Z" fill="#FF2500"/>
<path fill-rule="evenodd" clip-rule="evenodd" d="M21.5824 15.1C21.5824 15.1 21.3273 14.5977 21.9723 14.3498C22.6172 14.1019 22.9324 14.4254 23.2165 14.7256C23.5006 15.0258 23.4693 15.932 23.4693 15.932L22.7674 17.0547L20.614 17.4999L19.756 17.0547L18.75 15.1L18.8252 13.181C18.8252 13.181 18.9269 12.4459 18.9269 12.2937C18.9269 12.1416 19.3943 10.9621 19.3943 10.9621L19.8369 10.5237L21.0886 9.85784L21.6779 9.56344L22.4098 8.63841L22.3288 7.902L21.4948 8.9644H20.7883L20.0529 9.27246L19.756 9.55234L19.3943 9.56344L19.2526 9.27246L19.6475 8.63841L20.244 8.03788L19.9696 7.53004L20.3757 7.34503L20.2976 7.0651L20.7484 7.34503L21.0886 7.0651L21.1534 6.80764L20.3757 6.3909C20.3757 6.3909 21.1366 6.07164 21.4948 6.10495C21.853 6.13827 22.1909 6.55974 22.1909 6.55974L23.2165 6.3909C23.2165 6.3909 22.9419 7.0651 23.0306 7.0651C23.1194 7.0651 23.6764 7.0651 23.6764 7.0651L23.4693 7.902H24.2635L23.6764 8.54674L24.1347 8.79808L23.4374 9.27246L24.1347 9.7417L23.4863 10.1676L23.8517 10.8739L24.4266 10.5237L24.75 10.9621L24.2635 12.0418L23.4693 12.6052L22.7128 12.7958L21.9723 12.9882L21.6779 13.181L21.4948 12.4423L20.244 13.3001L19.5942 14.6452L19.7855 15.8674L20.244 16.4932L21.0886 16.7957L22.1909 16.5885L22.7674 15.8871L22.905 15.1713C22.905 15.1713 22.571 14.6853 22.3288 14.7256C22.0866 14.766 21.5824 15.1 21.5824 15.1Z" fill="#DFDFDF" stroke="black" stroke-width="0.3"/>
<path d="M20.3117 10.1683L20.284 10.4671C21.1497 10.5473 21.7225 10.5041 22.0217 10.3178L22.0816 10.2756L21.8949 10.0408C21.7128 10.1856 21.2379 10.2395 20.4893 10.1833L20.3117 10.1683Z" fill="black"/>
<path d="M19.3078 11.0341L19.2801 11.3328C20.1458 11.4131 20.7185 11.3698 21.0178 11.1835L21.0777 11.1414L20.891 10.9065C20.7088 11.0513 20.2339 11.1053 19.4854 11.049L19.3078 11.0341Z" fill="black"/>
<path d="M19.0665 11.8412L19.0168 12.137C19.5268 12.2228 19.8468 12.1834 19.9546 11.9603L19.9772 11.9006L19.6886 11.8186C19.6736 11.8714 19.5118 11.903 19.1825 11.8588L19.0665 11.8412Z" fill="black"/>
<path fill-rule="evenodd" clip-rule="evenodd" d="M20.8125 8.125C20.7089 8.125 20.625 8.04105 20.625 7.9375C20.625 7.83395 20.7089 7.75 20.8125 7.75C20.9161 7.75 21 7.83395 21 7.9375C21 8.04105 20.9161 8.125 20.8125 8.125Z" fill="black"/>
<path fill-rule="evenodd" clip-rule="evenodd" d="M5.41765 15.1C5.41765 15.1 5.67268 14.5977 5.02775 14.3498C4.38281 14.1019 4.06759 14.4254 3.78352 14.7256C3.49944 15.0258 3.53065 15.932 3.53065 15.932L4.23261 17.0547L6.38596 17.4999L7.24399 17.0547L8.25 15.1L8.17482 13.181C8.17482 13.181 8.07307 12.4459 8.07307 12.2937C8.07307 12.1416 7.6057 10.9621 7.6057 10.9621L7.16313 10.5237L5.91145 9.85784L5.32205 9.56344L4.59022 8.63841L4.67119 7.902L5.50523 8.9644H6.2117L6.94707 9.27246L7.24399 9.55234L7.6057 9.56344L7.74742 9.27246L7.35252 8.63841L6.75605 8.03788L7.0304 7.53004L6.62428 7.34503L6.70241 7.0651L6.25163 7.34503L5.91145 7.0651L5.84664 6.80764L6.62428 6.3909C6.62428 6.3909 5.86342 6.07164 5.50523 6.10495C5.14704 6.13827 4.80911 6.55974 4.80911 6.55974L3.78352 6.3909C3.78352 6.3909 4.05809 7.0651 3.96935 7.0651C3.88062 7.0651 3.3236 7.0651 3.3236 7.0651L3.53065 7.902H2.73647L3.3236 8.54674L2.86525 8.79808L3.56263 9.27246L2.86525 9.7417L3.51366 10.1676L3.14834 10.8739L2.57338 10.5237L2.25 10.9621L2.73647 12.0418L3.53065 12.6052L4.28724 12.7958L5.02775 12.9882L5.32205 13.181L5.50523 12.4423L6.75605 13.3001L7.40581 14.6452L7.21453 15.8674L6.75605 16.4932L5.91145 16.7957L4.80911 16.5885L4.23261 15.8871L4.09495 15.1713C4.09495 15.1713 4.42896 14.6853 4.67119 14.7256C4.91341 14.766 5.41765 15.1 5.41765 15.1Z" fill="#DFDFDF" stroke="black" stroke-width="0.3"/>
<path d="M6.68831 10.1683L6.71601 10.4671C5.8503 10.5473 5.27752 10.5041 4.97831 10.3178L4.91837 10.2756L5.10507 10.0408C5.28722 10.1856 5.76212 10.2395 6.51071 10.1833L6.68831 10.1683Z" fill="black"/>
<path d="M7.69226 11.0341L7.71996 11.3328C6.85425 11.4131 6.28147 11.3698 5.98226 11.1835L5.92233 11.1414L6.10902 10.9065C6.29117 11.0513 6.76607 11.1053 7.51466 11.049L7.69226 11.0341Z" fill="black"/>
<path d="M7.93348 11.8412L7.98322 12.137C7.47322 12.2228 7.15316 12.1834 7.04534 11.9603L7.02282 11.9006L7.31138 11.8186C7.32641 11.8714 7.48822 11.903 7.8175 11.8588L7.93348 11.8412Z" fill="black"/>
<path fill-rule="evenodd" clip-rule="evenodd" d="M6.1875 8.125C6.29105 8.125 6.375 8.04105 6.375 7.9375C6.375 7.83395 6.29105 7.75 6.1875 7.75C6.08395 7.75 6 7.83395 6 7.9375C6 8.04105 6.08395 8.125 6.1875 8.125Z" fill="black"/>
</g>
<rect x="1.75" y="1.25" width="23.5" height="17.5" stroke="black" stroke-opacity="0.1" stroke-width="0.5" shape-rendering="crispEdges"/>
</g>
<defs>
<filter id="filter0_dd_701_19140" x="0" y="0" width="27" height="21" filterUnits="userSpaceOnUse" color-interpolation-filters="sRGB">
<feFlood flood-opacity="0" result="BackgroundImageFix"/>
<feColorMatrix in="SourceAlpha" type="matrix" values="0 0 0 0 0 0 0 0 0 0 0 0 0 0 0 0 0 0 127 0" result="hardAlpha"/>
<feOffset dy="0.5"/>
<feGaussianBlur stdDeviation="0.75"/>
<feComposite in2="hardAlpha" operator="out"/>
<feColorMatrix type="matrix" values="0 0 0 0 0 0 0 0 0 0 0 0 0 0 0 0 0 0 0.1 0"/>
<feBlend mode="multiply" in2="BackgroundImageFix" result="effect1_dropShadow_701_19140"/>
<feColorMatrix in="SourceAlpha" type="matrix" values="0 0 0 0 0 0 0 0 0 0 0 0 0 0 0 0 0 0 127 0" result="hardAlpha"/>
<feOffset/>
<feGaussianBlur stdDeviation="0.5"/>
<feComposite in2="hardAlpha" operator="out"/>
<feColorMatrix type="matrix" values="0 0 0 0 0 0 0 0 0 0 0 0 0 0 0 0 0 0 0.11 0"/>
<feBlend mode="multiply" in2="effect1_dropShadow_701_19140" result="effect2_dropShadow_701_19140"/>
<feBlend mode="normal" in="SourceGraphic" in2="effect2_dropShadow_701_19140" result="shape"/>
</filter>
<clipPath id="clip0_701_19140">
<rect x="1.5" y="1" width="24" height="18" fill="white"/>
</clipPath>
</defs>
</svg>