<svg viewBox="0 0 27 21" fill="none" xmlns="http://www.w3.org/2000/svg">
<g filter="url(#filter0_dd_701_20085)">
<g clip-path="url(#clip0_701_20085)">
<mask id="mask0_701_20085" style="mask-type:alpha" maskUnits="userSpaceOnUse" x="1" y="1" width="25" height="18">
<rect x="1.5" y="1" width="24" height="18" fill="white"/>
</mask>
<g mask="url(#mask0_701_20085)">
<path d="M1.5 0H0.5V1V19V20H1.5H25.5H26.5V19V1V0H25.5H1.5Z" fill="#5EAA22" stroke="#F7FCFF" stroke-width="2"/>
<path fill-rule="evenodd" clip-rule="evenodd" d="M1.5 5.5V8.5H25.5V5.5H1.5Z" fill="#FECA00"/>
<path fill-rule="evenodd" clip-rule="evenodd" d="M1.5 11.5V14.5H25.5V11.5H1.5Z" fill="#FECA00"/>
<rect x="1.5" y="1" width="12" height="10.5" fill="#F50101"/>
<path fill-rule="evenodd" clip-rule="evenodd" d="M7.6875 8.60818L4.89801 10.3343L5.98097 7.43659L3.75 5.48443H6.48584L7.6875 2.59741L8.60452 5.48443H11.3074L9.40907 7.43659L10.3433 10.1921L7.6875 8.60818Z" fill="#F7FCFF"/>
</g>
</g>
<rect x="1.75" y="1.25" width="23.5" height="17.5" stroke="black" stroke-opacity="0.1" stroke-width="0.5" shape-rendering="crispEdges"/>
</g>
<defs>
<filter id="filter0_dd_701_20085" x="0" y="0" width="27" height="21" filterUnits="userSpaceOnUse" color-interpolation-filters="sRGB">
<feFlood flood-opacity="0" result="BackgroundImageFix"/>
<feColorMatrix in="SourceAlpha" type="matrix" values="0 0 0 0 0 0 0 0 0 0 0 0 0 0 0 0 0 0 127 0" result="hardAlpha"/>
<feOffset dy="0.5"/>
<feGaussianBlur stdDeviation="0.75"/>
<feComposite in2="hardAlpha" operator="out"/>
<feColorMatrix type="matrix" values="0 0 0 0 0 0 0 0 0 0 0 0 0 0 0 0 0 0 0.1 0"/>
<feBlend mode="multiply" in2="BackgroundImageFix" result="effect1_dropShadow_701_20085"/>
<feColorMatrix in="SourceAlpha" type="matrix" values="0 0 0 0 0 0 0 0 0 0 0 0 0 0 0 0 0 0 127 0" result="hardAlpha"/>
<feOffset/>
<feGaussianBlur stdDeviation="0.5"/>
<feComposite in2="hardAlpha" operator="out"/>
<feColorMatrix type="matrix" values="0 0 0 0 0 0 0 0 0 0 0 0 0 0 0 0 0 0 0.11 0"/>
<feBlend mode="multiply" in2="effect1_dropShadow_701_20085" result="effect2_dropShadow_701_20085"/>
<feBlend mode="normal" in="SourceGraphic" in2="effect2_dropShadow_701_20085" result="shape"/>
</filter>
<clipPath id="clip0_701_20085">
<rect x="1.5" y="1" width="24" height="18" fill="white"/>
</clipPath>
</defs>
</svg>