<svg width="27" height="21" viewBox="0 0 27 21" fill="none" xmlns="http://www.w3.org/2000/svg">
<g filter="url(#filter0_dd_701_20166)">
<g clip-path="url(#clip0_701_20166)">
<mask id="mask0_701_20166" style="mask-type:alpha" maskUnits="userSpaceOnUse" x="1" y="1" width="25" height="18">
<rect x="1.5" y="1" width="24" height="18" fill="white"/>
</mask>
<g mask="url(#mask0_701_20166)">
<path fill-rule="evenodd" clip-rule="evenodd" d="M1.5 1H25.5V19H1.5V1Z" fill="#3D58DB"/>
<path d="M1.5 4.5H0.5V5.5V14.5V15.5H1.5H25.5H26.5V14.5V5.5V4.5H25.5H1.5Z" fill="#C51918" stroke="#FFD018" stroke-width="2"/>
<path d="M6.86199 7.99797C6.77203 7.99797 6.6991 7.79457 6.6991 7.54366C6.6991 7.29276 6.77203 7.08936 6.86199 7.08936H19.9201C20.01 7.08936 20.083 7.29276 20.083 7.54366C20.083 7.79457 20.01 7.99797 19.9201 7.99797H6.86199Z" fill="#FFD018"/>
<path fill-rule="evenodd" clip-rule="evenodd" d="M19.5714 7.45147L20.3297 6.48413L21.6714 7.45147L20.3297 8.44426L19.5714 7.45147Z" fill="#F7FCFF"/>
<path d="M6.86199 10.998C6.77203 10.998 6.6991 10.7946 6.6991 10.5437C6.6991 10.2928 6.77203 10.0894 6.86199 10.0894H19.9201C20.01 10.0894 20.083 10.2928 20.083 10.5437C20.083 10.7946 20.01 10.998 19.9201 10.998H6.86199Z" fill="#FFD018"/>
<path fill-rule="evenodd" clip-rule="evenodd" d="M19.5714 10.4515L20.3297 9.48413L21.6714 10.4515L20.3297 11.4443L19.5714 10.4515Z" fill="#F7FCFF"/>
<path d="M4.75913 12.8661C4.63851 12.8661 4.54073 12.6352 4.54073 12.3503C4.54073 12.0654 4.63851 11.8345 4.75913 11.8345H22.2673C22.3879 11.8345 22.4857 12.0654 22.4857 12.3503C22.4857 12.6352 22.3879 12.8661 22.2673 12.8661H4.75913Z" fill="#FFD018"/>
<path fill-rule="evenodd" clip-rule="evenodd" d="M8.11298 10.0395C8.11298 10.0395 10.244 5.55444 13.2919 5.55444C16.3399 5.55444 18.5425 10.0395 18.5425 10.0395C18.5425 10.0395 15.8529 14.4655 13.3278 14.4655C10.8026 14.4655 8.11298 10.0395 8.11298 10.0395Z" fill="#F7FCFF"/>
<mask id="mask1_701_20166" style="mask-type:alpha" maskUnits="userSpaceOnUse" x="8" y="5" width="11" height="10">
<path fill-rule="evenodd" clip-rule="evenodd" d="M8.11298 10.0395C8.11298 10.0395 10.244 5.55444 13.2919 5.55444C16.3399 5.55444 18.5425 10.0395 18.5425 10.0395C18.5425 10.0395 15.8529 14.4655 13.3278 14.4655C10.8026 14.4655 8.11298 10.0395 8.11298 10.0395Z" fill="white"/>
</mask>
<g mask="url(#mask1_701_20166)">
<path fill-rule="evenodd" clip-rule="evenodd" d="M13.4432 5.26001C13.4432 5.26001 12.7478 6.10466 12.9796 6.9101C13.2114 7.71554 13.7515 7.63046 13.7515 8.33979C13.7515 9.04911 13.502 9.77252 13.7515 9.77252C14.001 9.77252 14.0875 10.262 13.8594 10.5938C13.6314 10.9257 13.4297 10.9359 13.4432 11.476C13.4567 12.0161 14.6372 12.5463 14.0654 12.5463C13.4935 12.5463 12.7398 13.1013 12.9796 13.1013C13.2194 13.1013 14.474 13.5338 14.474 14.1014C14.474 14.6689 14.474 15.1231 14.474 15.1231H7.92845V5.26001H13.4432Z" fill="#272727"/>
<path fill-rule="evenodd" clip-rule="evenodd" d="M10.3643 8.44214H10.0385V9.76906H10.3643V8.44214ZM11.3253 8.44214H10.9996V9.76906H11.3253V8.44214ZM10.519 8.44214H10.8448V9.76906H10.519V8.44214ZM11.8059 8.44214H11.4801V9.76906H11.8059V8.44214ZM11.9606 8.44214H12.2864V9.76906H11.9606V8.44214ZM12.767 8.44214H12.4412V9.76906H12.767V8.44214ZM10.0385 10.346H10.3643V11.6729H10.0385V10.346ZM11.3253 10.346H10.9996V11.6729H11.3253V10.346ZM10.519 10.346H10.8448V11.6729H10.519V10.346ZM11.8059 10.346H11.4801V11.6729H11.8059V10.346ZM11.9606 10.346H12.2864V11.6729H11.9606V10.346ZM12.767 10.346H12.4412V11.6729H12.767V10.346Z" fill="#F7FCFF"/>
<path fill-rule="evenodd" clip-rule="evenodd" d="M14.233 8.44214H13.9072V9.76906H14.233V8.44214ZM15.1941 8.44214H14.8683V9.76906H15.1941V8.44214ZM14.3878 8.44214H14.7136V9.76906H14.3878V8.44214ZM15.6747 8.44214H15.3489V9.76906H15.6747V8.44214ZM15.8294 8.44214H16.1552V9.76906H15.8294V8.44214ZM16.6357 8.44214H16.31V9.76906H16.6357V8.44214ZM13.9072 10.346H14.233V11.6729H13.9072V10.346ZM15.1941 10.346H14.8683V11.6729H15.1941V10.346ZM14.3878 10.346H14.7136V11.6729H14.3878V10.346ZM15.6747 10.346H15.3489V11.6729H15.6747V10.346ZM15.8294 10.346H16.1552V11.6729H15.8294V10.346ZM16.6357 10.346H16.31V11.6729H16.6357V10.346Z" fill="#272727"/>
<path fill-rule="evenodd" clip-rule="evenodd" d="M11.4237 6.30359C10.9673 6.44498 10.7585 7.64184 10.8095 7.93114C10.8605 8.22043 11.0154 7.89484 11.0154 7.89484C11.0154 7.89484 11.3311 8.58116 11.3637 8.76581C11.3963 8.95047 11.5626 8.4867 11.5626 8.4867C11.5626 8.4867 12.1103 8.86404 12.1844 9.2845C12.2586 9.70496 12.3701 8.80336 12.3701 8.80336L12.4942 8.78148L12.4157 8.33627L12.6523 8.5386L12.5793 8.12458C12.5793 8.12458 12.7575 8.35747 12.7123 8.10113C12.6671 7.84479 12.6419 7.70168 12.6419 7.70168L12.5801 7.35131L12.8143 7.31002C12.8143 7.31002 11.8801 6.16219 11.4237 6.30359Z" fill="#3D58DB"/>
</g>
<path fill-rule="evenodd" clip-rule="evenodd" d="M21.0662 11.2717C20.5922 11.3317 20.1787 12.4741 20.1787 12.7679C20.1787 13.0616 20.3878 12.7679 20.3878 12.7679C20.3878 12.7679 20.5796 13.4986 20.5796 13.6861C20.5796 13.8736 20.8239 13.4458 20.8239 13.4458C20.8239 13.4458 21.2978 13.9125 21.2978 14.3394C21.2978 14.7664 21.5641 13.8978 21.5641 13.8978H21.6901V13.4458L21.888 13.6861V13.2657C21.888 13.2657 22.0231 13.526 22.0231 13.2657C22.0231 13.0054 22.0231 12.8601 22.0231 12.8601V12.5043H22.2609C22.2609 12.5043 21.5402 11.2117 21.0662 11.2717Z" fill="#3D58DB"/>
<path fill-rule="evenodd" clip-rule="evenodd" d="M5.69468 11.0986C6.16868 11.1586 6.58218 12.301 6.58218 12.5948C6.58218 12.8885 6.37315 12.5948 6.37315 12.5948C6.37315 12.5948 6.18134 13.3255 6.18134 13.513C6.18134 13.7005 5.93704 13.2727 5.93704 13.2727C5.93704 13.2727 5.46314 13.7394 5.46314 14.1663C5.46314 14.5933 5.19677 13.7247 5.19677 13.7247H5.07078V13.2727L4.87288 13.513V13.0926C4.87288 13.0926 4.73783 13.3529 4.73783 13.0926C4.73783 12.8323 4.73783 12.687 4.73783 12.687V12.3312H4.5C4.5 12.3312 5.22068 11.0386 5.69468 11.0986Z" fill="#3D58DB"/>
</g>
</g>
<rect x="1.75" y="1.25" width="23.5" height="17.5" stroke="black" stroke-opacity="0.1" stroke-width="0.5" shape-rendering="crispEdges"/>
</g>
<defs>
<filter id="filter0_dd_701_20166" x="0" y="0" width="27" height="21" filterUnits="userSpaceOnUse" color-interpolation-filters="sRGB">
<feFlood flood-opacity="0" result="BackgroundImageFix"/>
<feColorMatrix in="SourceAlpha" type="matrix" values="0 0 0 0 0 0 0 0 0 0 0 0 0 0 0 0 0 0 127 0" result="hardAlpha"/>
<feOffset dy="0.5"/>
<feGaussianBlur stdDeviation="0.75"/>
<feComposite in2="hardAlpha" operator="out"/>
<feColorMatrix type="matrix" values="0 0 0 0 0 0 0 0 0 0 0 0 0 0 0 0 0 0 0.1 0"/>
<feBlend mode="multiply" in2="BackgroundImageFix" result="effect1_dropShadow_701_20166"/>
<feColorMatrix in="SourceAlpha" type="matrix" values="0 0 0 0 0 0 0 0 0 0 0 0 0 0 0 0 0 0 127 0" result="hardAlpha"/>
<feOffset/>
<feGaussianBlur stdDeviation="0.5"/>
<feComposite in2="hardAlpha" operator="out"/>
<feColorMatrix type="matrix" values="0 0 0 0 0 0 0 0 0 0 0 0 0 0 0 0 0 0 0.11 0"/>
<feBlend mode="multiply" in2="effect1_dropShadow_701_20166" result="effect2_dropShadow_701_20166"/>
<feBlend mode="normal" in="SourceGraphic" in2="effect2_dropShadow_701_20166" result="shape"/>
</filter>
<clipPath id="clip0_701_20166">
<rect x="1.5" y="1" width="24" height="18" fill="white"/>
</clipPath>
</defs>
</svg>
