<svg viewBox="0 0 27 21" fill="none" xmlns="http://www.w3.org/2000/svg">
<g filter="url(#filter0_dd_701_22063)">
<g clip-path="url(#clip0_701_22063)">
<mask id="mask0_701_22063" style="mask-type:alpha" maskUnits="userSpaceOnUse" x="1" y="1" width="25" height="18">
<rect x="1.5" y="1" width="24" height="18" fill="white"/>
</mask>
<g mask="url(#mask0_701_22063)">
<path fill-rule="evenodd" clip-rule="evenodd" d="M25.5 1H1.5V5.5H25.5V1ZM25.5 14.5H1.5V19H25.5V14.5Z" fill="#F50101"/>
<path fill-rule="evenodd" clip-rule="evenodd" d="M1.5 5.5H25.5V14.5H1.5V5.5Z" fill="#F7FCFF"/>
<path fill-rule="evenodd" clip-rule="evenodd" d="M17.6361 10.385C17.692 11.0355 15.2914 10.1151 15.2914 10.3755C15.2914 10.636 17.8631 11.0933 17.8588 11.6764C17.8545 12.2594 14.8095 11.51 15.4923 11.7722C16.1752 12.0344 17.6413 12.6621 17.4746 13.0532C17.1188 13.8883 14.7551 12.4738 14.5585 12.7527C14.2412 13.2024 16.3027 14.2517 16.2853 14.3519C16.2517 14.5442 14.8773 14.0497 14.5585 14.449C14.3004 14.3762 14.1811 14.0286 14.1009 13.9825L13.5937 7.43999C13.5937 7.43999 14.0491 13.6 13.4672 13.7772C12.8852 13.9544 11.2687 14.493 11.2216 14.224C11.2041 14.1237 13.1681 13.2024 12.8508 12.7527C12.6172 12.4212 10.247 13.5966 10.0958 12.916C9.42218 12.4304 12.2774 12.0102 12.2774 11.5136C12.2774 11.017 9.66541 12.1014 9.97788 11.4101C10.2903 10.7188 12.3814 10.4713 12.4204 10.3755C12.4917 10.2004 10.0958 10.6481 10.0958 10.3755C10.0958 9.85976 11.5299 9.75827 12.4204 9.29412C12.473 8.76446 10.2602 9.81556 10.0958 9.39097C9.93142 8.96638 12.9242 7.8664 12.8508 7.78071C12.735 7.64538 10.3231 8.25601 10.7208 7.93535C11.4928 7.313 12.9997 6.46671 13.3464 6.24097C13.3464 6.24097 13.3882 6.1558 13.4328 6.18471C13.4775 6.1558 13.5267 6.12415 13.5267 6.12415C13.5267 6.12415 13.5267 6.65667 13.5193 6.24097C13.5119 5.82528 17.0515 7.64422 17.0917 8.10533C17.1384 8.64401 14.9046 7.69923 14.9571 8.22889C15.4112 8.51023 16.7028 9.0547 17.2364 9.29412C17.4785 9.40271 15.4531 9.06427 15.4959 9.23044C15.6049 9.65393 17.5778 9.70651 17.6361 10.385Z" fill="#52AB0B"/>
</g>
</g>
<rect x="1.75" y="1.25" width="23.5" height="17.5" stroke="black" stroke-opacity="0.1" stroke-width="0.5" shape-rendering="crispEdges"/>
</g>
<defs>
<filter id="filter0_dd_701_22063" x="0" y="0" width="27" height="21" filterUnits="userSpaceOnUse" color-interpolation-filters="sRGB">
<feFlood flood-opacity="0" result="BackgroundImageFix"/>
<feColorMatrix in="SourceAlpha" type="matrix" values="0 0 0 0 0 0 0 0 0 0 0 0 0 0 0 0 0 0 127 0" result="hardAlpha"/>
<feOffset dy="0.5"/>
<feGaussianBlur stdDeviation="0.75"/>
<feComposite in2="hardAlpha" operator="out"/>
<feColorMatrix type="matrix" values="0 0 0 0 0 0 0 0 0 0 0 0 0 0 0 0 0 0 0.1 0"/>
<feBlend mode="multiply" in2="BackgroundImageFix" result="effect1_dropShadow_701_22063"/>
<feColorMatrix in="SourceAlpha" type="matrix" values="0 0 0 0 0 0 0 0 0 0 0 0 0 0 0 0 0 0 127 0" result="hardAlpha"/>
<feOffset/>
<feGaussianBlur stdDeviation="0.5"/>
<feComposite in2="hardAlpha" operator="out"/>
<feColorMatrix type="matrix" values="0 0 0 0 0 0 0 0 0 0 0 0 0 0 0 0 0 0 0.11 0"/>
<feBlend mode="multiply" in2="effect1_dropShadow_701_22063" result="effect2_dropShadow_701_22063"/>
<feBlend mode="normal" in="SourceGraphic" in2="effect2_dropShadow_701_22063" result="shape"/>
</filter>
<clipPath id="clip0_701_22063">
<rect x="1.5" y="1" width="24" height="18" fill="white"/>
</clipPath>
</defs>
</svg>