<svg viewBox="0 0 27 21" fill="none" xmlns="http://www.w3.org/2000/svg">
<g filter="url(#filter0_dd_701_20040)">
<g clip-path="url(#clip0_701_20040)">
<mask id="mask0_701_20040" style="mask-type:alpha" maskUnits="userSpaceOnUse" x="1" y="1" width="25" height="18">
<rect x="1.5" y="1" width="24" height="18" fill="white"/>
</mask>
<g mask="url(#mask0_701_20040)">
<path fill-rule="evenodd" clip-rule="evenodd" d="M1.5 1V19H25.5V1H1.5Z" fill="#2E42A5"/>
<mask id="mask1_701_20040" style="mask-type:alpha" maskUnits="userSpaceOnUse" x="1" y="1" width="25" height="18">
<path fill-rule="evenodd" clip-rule="evenodd" d="M1.5 1V19H25.5V1H1.5Z" fill="white"/>
</mask>
<g mask="url(#mask1_701_20040)">
<path fill-rule="evenodd" clip-rule="evenodd" d="M3.97086 8.54754L3.30669 8.95851L3.56454 8.26859L3 7.74628H3.68475L3.97086 7L4.1892 7.74628H4.875L4.38076 8.26859L4.62274 8.95851L3.97086 8.54754Z" fill="#F7FCFF"/>
<path fill-rule="evenodd" clip-rule="evenodd" d="M6.97086 5.54754L6.30669 5.95851L6.56454 5.26859L6 4.74628H6.68475L6.97086 4L7.1892 4.74628H7.875L7.38076 5.26859L7.62274 5.95851L6.97086 5.54754Z" fill="#F7FCFF"/>
<path fill-rule="evenodd" clip-rule="evenodd" d="M9.97086 8.54754L9.30669 8.95851L9.56454 8.26859L9 7.74628H9.68475L9.97086 7L10.1892 7.74628H10.875L10.3808 8.26859L10.6227 8.95851L9.97086 8.54754Z" fill="#F7FCFF"/>
<path fill-rule="evenodd" clip-rule="evenodd" d="M6.97086 11.5475L6.30669 11.9585L6.56454 11.2686L6 10.7463H6.68475L6.97086 10L7.1892 10.7463H7.875L7.38076 11.2686L7.62274 11.9585L6.97086 11.5475Z" fill="#F7FCFF"/>
<path fill-rule="evenodd" clip-rule="evenodd" d="M20.1315 5.09741C17.0689 6.61028 7.00592 13.409 7.00592 13.409H23.7693C23.6019 13.3716 23.4457 13.3405 23.2984 13.3111C22.0678 13.0661 21.4604 12.9452 20.1315 10.2979C18.6436 7.33382 20.1315 5.09741 20.1315 5.09741ZM6.46177 14.4739L6.23254 15.0439L6.46177 15.6701L23.527 16.0001L24 15.1303L23.527 14.5041L6.46177 14.4739Z" fill="#FECA00"/>
</g>
</g>
</g>
<rect x="1.75" y="1.25" width="23.5" height="17.5" stroke="black" stroke-opacity="0.1" stroke-width="0.5" shape-rendering="crispEdges"/>
</g>
<defs>
<filter id="filter0_dd_701_20040" x="0" y="0" width="27" height="21" filterUnits="userSpaceOnUse" color-interpolation-filters="sRGB">
<feFlood flood-opacity="0" result="BackgroundImageFix"/>
<feColorMatrix in="SourceAlpha" type="matrix" values="0 0 0 0 0 0 0 0 0 0 0 0 0 0 0 0 0 0 127 0" result="hardAlpha"/>
<feOffset dy="0.5"/>
<feGaussianBlur stdDeviation="0.75"/>
<feComposite in2="hardAlpha" operator="out"/>
<feColorMatrix type="matrix" values="0 0 0 0 0 0 0 0 0 0 0 0 0 0 0 0 0 0 0.1 0"/>
<feBlend mode="multiply" in2="BackgroundImageFix" result="effect1_dropShadow_701_20040"/>
<feColorMatrix in="SourceAlpha" type="matrix" values="0 0 0 0 0 0 0 0 0 0 0 0 0 0 0 0 0 0 127 0" result="hardAlpha"/>
<feOffset/>
<feGaussianBlur stdDeviation="0.5"/>
<feComposite in2="hardAlpha" operator="out"/>
<feColorMatrix type="matrix" values="0 0 0 0 0 0 0 0 0 0 0 0 0 0 0 0 0 0 0.11 0"/>
<feBlend mode="multiply" in2="effect1_dropShadow_701_20040" result="effect2_dropShadow_701_20040"/>
<feBlend mode="normal" in="SourceGraphic" in2="effect2_dropShadow_701_20040" result="shape"/>
</filter>
<clipPath id="clip0_701_20040">
<rect x="1.5" y="1" width="24" height="18" fill="white"/>
</clipPath>
</defs>
</svg>