<svg width="27" height="21" viewBox="0 0 27 21" fill="none" xmlns="http://www.w3.org/2000/svg">
<g filter="url(#filter0_dd_701_23582)">
<g clip-path="url(#clip0_701_23582)">
<mask id="mask0_701_23582" style="mask-type:alpha" maskUnits="userSpaceOnUse" x="1" y="1" width="25" height="18">
<rect x="1.5" y="1" width="24" height="18" fill="white"/>
</mask>
<g mask="url(#mask0_701_23582)">
<path fill-rule="evenodd" clip-rule="evenodd" d="M1.5 1V19H25.5V1H1.5Z" fill="#2E42A5"/>
<mask id="mask1_701_23582" style="mask-type:alpha" maskUnits="userSpaceOnUse" x="1" y="1" width="25" height="18">
<path fill-rule="evenodd" clip-rule="evenodd" d="M1.5 1V19H25.5V1H1.5Z" fill="white"/>
</mask>
<g mask="url(#mask1_701_23582)">
<path d="M20.9627 15.723C20.201 15.723 19.6797 15.5434 19.3119 15.2378C18.9419 14.9303 18.6952 14.4689 18.5361 13.8429C18.3766 13.2154 18.3107 12.4447 18.2862 11.5442C18.2689 10.9114 18.2721 10.2253 18.2755 9.48827C18.2766 9.25541 18.2777 9.01747 18.2782 8.77454H23.7186C23.8154 10.5601 23.8455 12.2861 23.4988 13.5807C23.319 14.2521 23.0434 14.7842 22.6438 15.1481C22.2494 15.5072 21.7116 15.723 20.9627 15.723Z" fill="#6DC2FF" stroke="#F7FCFF" stroke-width="0.5"/>
<mask id="mask2_701_23582" style="mask-type:alpha" maskUnits="userSpaceOnUse" x="18" y="8" width="7" height="8">
<path d="M20.9627 15.723C20.201 15.723 19.6797 15.5434 19.3119 15.2378C18.9419 14.9303 18.6952 14.4689 18.5361 13.8429C18.3766 13.2154 18.3107 12.4447 18.2862 11.5442C18.2689 10.9114 18.2721 10.2253 18.2755 9.48827C18.2766 9.25541 18.2777 9.01747 18.2782 8.77454H23.7186C23.8154 10.5601 23.8455 12.2861 23.4988 13.5807C23.319 14.2521 23.0434 14.7842 22.6438 15.1481C22.2494 15.5072 21.7116 15.723 20.9627 15.723Z" fill="white" stroke="white" stroke-width="0.5"/>
</mask>
<g mask="url(#mask2_701_23582)">
<path fill-rule="evenodd" clip-rule="evenodd" d="M19.8914 11.1902C19.8914 11.1902 19.5954 10.9713 19.4685 10.6166C19.3416 10.262 19.0904 9.31776 19.0904 9.23577C19.0904 9.15378 18.7562 9.23577 18.7562 9.23577C18.7562 9.23577 18.7609 8.83648 18.887 8.83648C19.0131 8.83648 19.0178 8.46626 19.3238 8.55949C19.6298 8.65272 19.8704 8.99463 20.1823 8.99463C20.4941 8.99463 21.7976 9.09406 22.0071 9.09406C22.2166 9.09406 22.7689 9.53631 22.7689 9.86734C22.7689 10.1984 22.6183 10.6916 22.4999 10.6916C22.3814 10.6916 22.2323 10.9785 22.0071 10.8838C21.7819 10.7891 21.2442 10.594 20.7626 10.6916C20.281 10.7891 20.1823 10.7278 20.1823 10.8838C20.1823 11.0398 19.8914 11.1902 19.8914 11.1902Z" fill="#E1E5E8"/>
<path fill-rule="evenodd" clip-rule="evenodd" d="M19.2 10.959H23.0667L22.4007 11.8196H19.6686L19.2 10.959Z" fill="#49801E"/>
<path d="M19.1497 14.7218C19.1497 14.7218 19.8179 14.9608 20.0972 14.9317C20.4065 14.8996 20.6804 14.547 20.8871 14.547C21.0934 14.547 21.4907 14.8997 21.7992 14.9317C22.0789 14.9608 22.6245 14.7218 22.6245 14.7218" stroke="white" stroke-width="1.06667"/>
<path d="M18.4158 13.7021C18.6469 13.5065 19.1497 13.4922 19.1497 13.4922C19.1497 13.4922 19.8179 13.7312 20.0972 13.7021C20.4065 13.67 20.6804 13.3174 20.8871 13.3174C21.0934 13.3174 21.4907 13.6701 21.7992 13.7021C22.0789 13.7312 22.6245 13.4922 22.6245 13.4922C22.6245 13.4922 22.9293 13.1494 23.3122 13.5113" stroke="white" stroke-width="1.06667"/>
<path d="M18.3456 12.6473L17.8398 12.0275C18.0381 11.8657 18.3711 11.7062 18.8572 11.5299L19.0931 11.5186C19.5971 11.6481 19.934 11.7042 20.0574 11.6918C20.0981 11.6878 20.1661 11.6547 20.2904 11.5723C20.6433 11.3382 20.6776 11.3191 20.8871 11.3191C21.0786 11.3191 21.1181 11.3375 21.5184 11.5536C21.5927 11.5935 21.6206 11.608 21.6608 11.6273C21.7453 11.6678 21.8059 11.6885 21.8391 11.6918C21.9353 11.7015 22.1287 11.6566 22.3996 11.5476C22.7517 11.2275 23.1978 11.2607 23.5816 11.6103C23.8376 11.8435 24.0431 12.032 24.1982 12.1757L23.6544 12.7625C23.5012 12.6205 23.2973 12.4335 23.0428 12.2017C22.9416 12.1095 22.9634 12.1101 22.9184 12.1588L22.7801 12.256C22.3599 12.4334 22.0281 12.5148 21.7594 12.4879C21.6151 12.4734 21.4756 12.4258 21.3146 12.3485C21.2607 12.3226 21.2222 12.3026 21.1382 12.2575C20.945 12.1532 20.8717 12.1191 20.8871 12.1191C20.9207 12.1191 20.8741 12.1451 20.7326 12.2389C20.505 12.3899 20.3467 12.4668 20.1371 12.4878C19.9055 12.5111 19.5443 12.4552 19.016 12.3242C18.6728 12.454 18.4448 12.5664 18.3456 12.6473Z" fill="white"/>
</g>
<path d="M18.7224 14.7953C18.7224 14.7953 19.4604 15.5021 19.0148 15.9811C18.5692 16.46 18.1606 16.1818 18.1606 16.1818" stroke="#B85F3C"/>
<path d="M23.2874 14.7953C23.2874 14.7953 22.5494 15.5021 22.995 15.9811C23.4406 16.46 23.8492 16.1818 23.8492 16.1818" stroke="#B85F3C"/>
<path d="M18.2405 15.3649C18.2405 15.3649 19.5119 16.5798 21.0749 16.5798C22.6379 16.5798 23.8956 15.6516 23.8956 15.6516" stroke="#CB8B73"/>
<rect x="-2.5" y="-2" width="18" height="14" fill="#2B409A"/>
<mask id="mask3_701_23582" style="mask-type:alpha" maskUnits="userSpaceOnUse" x="-3" y="-2" width="19" height="14">
<rect x="-2.5" y="-2" width="18" height="14" fill="white"/>
</mask>
<g mask="url(#mask3_701_23582)">
<path d="M-4.50427 10.9997L-0.543322 12.7369L15.5899 -0.11134L17.6792 -2.69287L13.4435 -3.27349L6.86317 2.2632L1.56667 5.99363L-4.50427 10.9997Z" fill="#F7FCFF"/>
<path d="M-3.96201 12.217L-1.94408 13.2251L16.9289 -2.93262H14.0955L-3.96201 12.217Z" fill="#F50100"/>
<path d="M17.5043 10.9997L13.5433 12.7369L-2.58989 -0.11134L-4.6792 -2.69287L-0.443533 -3.27349L6.13681 2.2632L11.4333 5.99363L17.5043 10.9997Z" fill="#F7FCFF"/>
<path d="M17.3691 11.8733L15.3512 12.8815L7.31486 5.96351L4.93226 5.19059L-4.88023 -2.68395H-2.04684L7.76015 5.00368L10.3651 5.9305L17.3691 11.8733Z" fill="#F50100"/>
<mask id="path-22-outside-1_701_23582" maskUnits="userSpaceOnUse" x="-4.5" y="-4" width="22" height="18" fill="black">
<rect fill="white" x="-4.5" y="-4" width="22" height="18"/>
<path fill-rule="evenodd" clip-rule="evenodd" d="M7.48451 -2H5.48451V4H-2.5V6H5.48451V12H7.48451V6H15.5V4H7.48451V-2Z"/>
</mask>
<path fill-rule="evenodd" clip-rule="evenodd" d="M7.48451 -2H5.48451V4H-2.5V6H5.48451V12H7.48451V6H15.5V4H7.48451V-2Z" fill="#F50100"/>
<path d="M5.48451 -2V-3.5H3.98451V-2H5.48451ZM7.48451 -2H8.98451V-3.5H7.48451V-2ZM5.48451 4V5.5H6.98451V4H5.48451ZM-2.5 4V2.5H-4V4H-2.5ZM-2.5 6H-4V7.5H-2.5V6ZM5.48451 6H6.98451V4.5H5.48451V6ZM5.48451 12H3.98451V13.5H5.48451V12ZM7.48451 12V13.5H8.98451V12H7.48451ZM7.48451 6V4.5H5.98451V6H7.48451ZM15.5 6V7.5H17V6H15.5ZM15.5 4H17V2.5H15.5V4ZM7.48451 4H5.98451V5.5H7.48451V4ZM5.48451 -0.5H7.48451V-3.5H5.48451V-0.5ZM6.98451 4V-2H3.98451V4H6.98451ZM-2.5 5.5H5.48451V2.5H-2.5V5.5ZM-1 6V4H-4V6H-1ZM5.48451 4.5H-2.5V7.5H5.48451V4.5ZM6.98451 12V6H3.98451V12H6.98451ZM7.48451 10.5H5.48451V13.5H7.48451V10.5ZM5.98451 6V12H8.98451V6H5.98451ZM15.5 4.5H7.48451V7.5H15.5V4.5ZM14 4V6H17V4H14ZM7.48451 5.5H15.5V2.5H7.48451V5.5ZM5.98451 -2V4H8.98451V-2H5.98451Z" fill="#F7FCFF" mask="url(#path-22-outside-1_701_23582)"/>
</g>
</g>
</g>
</g>
<rect x="1.75" y="1.25" width="23.5" height="17.5" stroke="black" stroke-opacity="0.1" stroke-width="0.5" shape-rendering="crispEdges"/>
</g>
<defs>
<filter id="filter0_dd_701_23582" x="0" y="0" width="27" height="21" filterUnits="userSpaceOnUse" color-interpolation-filters="sRGB">
<feFlood flood-opacity="0" result="BackgroundImageFix"/>
<feColorMatrix in="SourceAlpha" type="matrix" values="0 0 0 0 0 0 0 0 0 0 0 0 0 0 0 0 0 0 127 0" result="hardAlpha"/>
<feOffset dy="0.5"/>
<feGaussianBlur stdDeviation="0.75"/>
<feComposite in2="hardAlpha" operator="out"/>
<feColorMatrix type="matrix" values="0 0 0 0 0 0 0 0 0 0 0 0 0 0 0 0 0 0 0.1 0"/>
<feBlend mode="multiply" in2="BackgroundImageFix" result="effect1_dropShadow_701_23582"/>
<feColorMatrix in="SourceAlpha" type="matrix" values="0 0 0 0 0 0 0 0 0 0 0 0 0 0 0 0 0 0 127 0" result="hardAlpha"/>
<feOffset/>
<feGaussianBlur stdDeviation="0.5"/>
<feComposite in2="hardAlpha" operator="out"/>
<feColorMatrix type="matrix" values="0 0 0 0 0 0 0 0 0 0 0 0 0 0 0 0 0 0 0.11 0"/>
<feBlend mode="multiply" in2="effect1_dropShadow_701_23582" result="effect2_dropShadow_701_23582"/>
<feBlend mode="normal" in="SourceGraphic" in2="effect2_dropShadow_701_23582" result="shape"/>
</filter>
<clipPath id="clip0_701_23582">
<rect x="1.5" y="1" width="24" height="18" fill="white"/>
</clipPath>
</defs>
</svg>
