<svg width="27" height="21" viewBox="0 0 27 21" fill="none" xmlns="http://www.w3.org/2000/svg">
<g filter="url(#filter0_dd_701_21150)">
<g clip-path="url(#clip0_701_21150)">
<mask id="mask0_701_21150" style="mask-type:alpha" maskUnits="userSpaceOnUse" x="1" y="1" width="25" height="18">
<rect x="1.5" y="1" width="24" height="18" fill="white"/>
</mask>
<g mask="url(#mask0_701_21150)">
<path fill-rule="evenodd" clip-rule="evenodd" d="M7.5 1H25.5V19H7.5V1Z" fill="#2F8D00"/>
<path fill-rule="evenodd" clip-rule="evenodd" d="M1.5 1H7.5V19H1.5V1Z" fill="#F7FCFF"/>
<path fill-rule="evenodd" clip-rule="evenodd" d="M18.3221 12.4796C18.3221 12.4796 14.9728 13.3529 12.3143 11.5716C9.65577 9.79043 10.9921 5.68579 10.9921 5.68579C9.60544 5.88758 7.4277 10.947 10.938 13.4846C14.4483 16.0221 17.8111 13.5829 18.3221 12.4796ZM14.6054 7.64983L12.8267 8.51956L14.7031 8.85375L14.9564 10.6879L16.0192 9.1258L18.1106 9.26682L16.4725 8.04514L17.3445 6.41287L15.7138 7.15976L14.5023 6.02075L14.6054 7.64983Z" fill="#F1F9FF"/>
</g>
</g>
<rect x="1.75" y="1.25" width="23.5" height="17.5" stroke="black" stroke-opacity="0.1" stroke-width="0.5" shape-rendering="crispEdges"/>
</g>
<defs>
<filter id="filter0_dd_701_21150" x="0" y="0" width="27" height="21" filterUnits="userSpaceOnUse" color-interpolation-filters="sRGB">
<feFlood flood-opacity="0" result="BackgroundImageFix"/>
<feColorMatrix in="SourceAlpha" type="matrix" values="0 0 0 0 0 0 0 0 0 0 0 0 0 0 0 0 0 0 127 0" result="hardAlpha"/>
<feOffset dy="0.5"/>
<feGaussianBlur stdDeviation="0.75"/>
<feComposite in2="hardAlpha" operator="out"/>
<feColorMatrix type="matrix" values="0 0 0 0 0 0 0 0 0 0 0 0 0 0 0 0 0 0 0.1 0"/>
<feBlend mode="multiply" in2="BackgroundImageFix" result="effect1_dropShadow_701_21150"/>
<feColorMatrix in="SourceAlpha" type="matrix" values="0 0 0 0 0 0 0 0 0 0 0 0 0 0 0 0 0 0 127 0" result="hardAlpha"/>
<feOffset/>
<feGaussianBlur stdDeviation="0.5"/>
<feComposite in2="hardAlpha" operator="out"/>
<feColorMatrix type="matrix" values="0 0 0 0 0 0 0 0 0 0 0 0 0 0 0 0 0 0 0.11 0"/>
<feBlend mode="multiply" in2="effect1_dropShadow_701_21150" result="effect2_dropShadow_701_21150"/>
<feBlend mode="normal" in="SourceGraphic" in2="effect2_dropShadow_701_21150" result="shape"/>
</filter>
<clipPath id="clip0_701_21150">
<rect x="1.5" y="1" width="24" height="18" fill="white"/>
</clipPath>
</defs>
</svg>
