<svg viewBox="0 0 27 21" fill="none" xmlns="http://www.w3.org/2000/svg">
<g filter="url(#filter0_dd_701_19574)">
<g clip-path="url(#clip0_701_19574)">
<mask id="mask0_701_19574" style="mask-type:alpha" maskUnits="userSpaceOnUse" x="1" y="1" width="25" height="18">
<rect x="1.5" y="1" width="24" height="18" fill="white"/>
</mask>
<g mask="url(#mask0_701_19574)">
<path fill-rule="evenodd" clip-rule="evenodd" d="M1.5 1H25.5V19H1.5V1Z" fill="#F7FCFF"/>
<path fill-rule="evenodd" clip-rule="evenodd" d="M1.5 12V13.5H25.5V12H1.5Z" fill="#E31D1C"/>
<path fill-rule="evenodd" clip-rule="evenodd" d="M1.5 14.75V16.25H25.5V14.75H1.5Z" fill="#E31D1C"/>
<path fill-rule="evenodd" clip-rule="evenodd" d="M1.5 6.5V8H25.5V6.5H1.5Z" fill="#E31D1C"/>
<path fill-rule="evenodd" clip-rule="evenodd" d="M1.5 17.5V19H25.5V17.5H1.5Z" fill="#E31D1C"/>
<path fill-rule="evenodd" clip-rule="evenodd" d="M1.5 9.25V10.75H25.5V9.25H1.5Z" fill="#E31D1C"/>
<path fill-rule="evenodd" clip-rule="evenodd" d="M1.5 1V2.5H25.5V1H1.5Z" fill="#E31D1C"/>
<path fill-rule="evenodd" clip-rule="evenodd" d="M1.5 3.75V5.25H25.5V3.75H1.5Z" fill="#E31D1C"/>
<rect x="1.5" y="1" width="15" height="9.75" fill="#2E42A5"/>
<path fill-rule="evenodd" clip-rule="evenodd" d="M2.79153 3.20391L2.24712 3.58557L2.43092 2.90637L1.94738 2.47593H2.57895L2.79077 1.92163L3.03915 2.47593H3.57754L3.15451 2.90637L3.31828 3.58557L2.79153 3.20391ZM5.79153 3.20391L5.24712 3.58557L5.43092 2.90637L4.94738 2.47593H5.57895L5.79077 1.92163L6.03915 2.47593H6.57754L6.15451 2.90637L6.31828 3.58557L5.79153 3.20391ZM8.24712 3.58557L8.79153 3.20391L9.31828 3.58557L9.15451 2.90637L9.57754 2.47593H9.03915L8.79077 1.92163L8.57895 2.47593H7.94738L8.43092 2.90637L8.24712 3.58557ZM11.7915 3.20391L11.2471 3.58557L11.4309 2.90637L10.9474 2.47593H11.5789L11.7908 1.92163L12.0391 2.47593H12.5775L12.1545 2.90637L12.3183 3.58557L11.7915 3.20391ZM2.24712 6.58557L2.79153 6.20391L3.31828 6.58557L3.15451 5.90637L3.57754 5.47593H3.03915L2.79077 4.92163L2.57895 5.47593H1.94738L2.43092 5.90637L2.24712 6.58557ZM5.79153 6.20391L5.24712 6.58557L5.43092 5.90637L4.94738 5.47593H5.57895L5.79077 4.92163L6.03915 5.47593H6.57754L6.15451 5.90637L6.31828 6.58557L5.79153 6.20391ZM8.24712 6.58557L8.79153 6.20391L9.31828 6.58557L9.15451 5.90637L9.57754 5.47593H9.03915L8.79077 4.92163L8.57895 5.47593H7.94738L8.43092 5.90637L8.24712 6.58557ZM11.7915 6.20391L11.2471 6.58557L11.4309 5.90637L10.9474 5.47593H11.5789L11.7908 4.92163L12.0391 5.47593H12.5775L12.1545 5.90637L12.3183 6.58557L11.7915 6.20391ZM2.24712 9.58557L2.79153 9.20391L3.31828 9.58557L3.15451 8.90637L3.57754 8.47593H3.03915L2.79077 7.92163L2.57895 8.47593H1.94738L2.43092 8.90637L2.24712 9.58557ZM5.79153 9.20391L5.24712 9.58557L5.43092 8.90637L4.94738 8.47593H5.57895L5.79077 7.92163L6.03915 8.47593H6.57754L6.15451 8.90637L6.31828 9.58557L5.79153 9.20391ZM8.24712 9.58557L8.79153 9.20391L9.31828 9.58557L9.15451 8.90637L9.57754 8.47593H9.03915L8.79077 7.92163L8.57895 8.47593H7.94738L8.43092 8.90637L8.24712 9.58557ZM11.7915 9.20391L11.2471 9.58557L11.4309 8.90637L10.9474 8.47593H11.5789L11.7908 7.92163L12.0391 8.47593H12.5775L12.1545 8.90637L12.3183 9.58557L11.7915 9.20391ZM14.2471 3.58557L14.7915 3.20391L15.3183 3.58557L15.1545 2.90637L15.5775 2.47593H15.0391L14.7908 1.92163L14.5789 2.47593H13.9474L14.4309 2.90637L14.2471 3.58557ZM14.7915 6.20391L14.2471 6.58557L14.4309 5.90637L13.9474 5.47593H14.5789L14.7908 4.92163L15.0391 5.47593H15.5775L15.1545 5.90637L15.3183 6.58557L14.7915 6.20391ZM14.2471 9.58557L14.7915 9.20391L15.3183 9.58557L15.1545 8.90637L15.5775 8.47593H15.0391L14.7908 7.92163L14.5789 8.47593H13.9474L14.4309 8.90637L14.2471 9.58557ZM4.29153 4.70391L3.74712 5.08557L3.93092 4.40637L3.44738 3.97593H4.07895L4.29077 3.42163L4.53915 3.97593H5.07754L4.65451 4.40637L4.81828 5.08557L4.29153 4.70391ZM6.74712 5.08557L7.29153 4.70391L7.81828 5.08557L7.65451 4.40637L8.07754 3.97593H7.53915L7.29077 3.42163L7.07895 3.97593H6.44738L6.93092 4.40637L6.74712 5.08557ZM10.2915 4.70391L9.74712 5.08557L9.93092 4.40637L9.44738 3.97593H10.0789L10.2908 3.42163L10.5391 3.97593H11.0775L10.6545 4.40637L10.8183 5.08557L10.2915 4.70391ZM3.74712 8.08557L4.29153 7.70391L4.81828 8.08557L4.65451 7.40637L5.07754 6.97593H4.53915L4.29077 6.42163L4.07895 6.97593H3.44738L3.93092 7.40637L3.74712 8.08557ZM7.29153 7.70391L6.74712 8.08557L6.93092 7.40637L6.44738 6.97593H7.07895L7.29077 6.42163L7.53915 6.97593H8.07754L7.65451 7.40637L7.81828 8.08557L7.29153 7.70391ZM9.74712 8.08557L10.2915 7.70391L10.8183 8.08557L10.6545 7.40637L11.0775 6.97593H10.5391L10.2908 6.42163L10.0789 6.97593H9.44738L9.93092 7.40637L9.74712 8.08557ZM13.2915 4.70391L12.7471 5.08557L12.9309 4.40637L12.4474 3.97593H13.0789L13.2908 3.42163L13.5391 3.97593H14.0775L13.6545 4.40637L13.8183 5.08557L13.2915 4.70391ZM12.7471 8.08557L13.2915 7.70391L13.8183 8.08557L13.6545 7.40637L14.0775 6.97593H13.5391L13.2908 6.42163L13.0789 6.97593H12.4474L12.9309 7.40637L12.7471 8.08557Z" fill="#F7FCFF"/>
</g>
</g>
<rect x="1.75" y="1.25" width="23.5" height="17.5" stroke="black" stroke-opacity="0.1" stroke-width="0.5" shape-rendering="crispEdges"/>
</g>
<defs>
<filter id="filter0_dd_701_19574" x="0" y="0" width="27" height="21" filterUnits="userSpaceOnUse" color-interpolation-filters="sRGB">
<feFlood flood-opacity="0" result="BackgroundImageFix"/>
<feColorMatrix in="SourceAlpha" type="matrix" values="0 0 0 0 0 0 0 0 0 0 0 0 0 0 0 0 0 0 127 0" result="hardAlpha"/>
<feOffset dy="0.5"/>
<feGaussianBlur stdDeviation="0.75"/>
<feComposite in2="hardAlpha" operator="out"/>
<feColorMatrix type="matrix" values="0 0 0 0 0 0 0 0 0 0 0 0 0 0 0 0 0 0 0.1 0"/>
<feBlend mode="multiply" in2="BackgroundImageFix" result="effect1_dropShadow_701_19574"/>
<feColorMatrix in="SourceAlpha" type="matrix" values="0 0 0 0 0 0 0 0 0 0 0 0 0 0 0 0 0 0 127 0" result="hardAlpha"/>
<feOffset/>
<feGaussianBlur stdDeviation="0.5"/>
<feComposite in2="hardAlpha" operator="out"/>
<feColorMatrix type="matrix" values="0 0 0 0 0 0 0 0 0 0 0 0 0 0 0 0 0 0 0.11 0"/>
<feBlend mode="multiply" in2="effect1_dropShadow_701_19574" result="effect2_dropShadow_701_19574"/>
<feBlend mode="normal" in="SourceGraphic" in2="effect2_dropShadow_701_19574" result="shape"/>
</filter>
<clipPath id="clip0_701_19574">
<rect x="1.5" y="1" width="24" height="18" fill="white"/>
</clipPath>
</defs>
</svg>