<svg viewBox="0 0 27 21" fill="none" xmlns="http://www.w3.org/2000/svg">
<g filter="url(#filter0_dd_701_24462)">
<g clip-path="url(#clip0_701_24462)">
<mask id="mask0_701_24462" style="mask-type:alpha" maskUnits="userSpaceOnUse" x="1" y="1" width="25" height="18">
<rect x="1.5" y="1" width="24" height="18" fill="white"/>
</mask>
<g mask="url(#mask0_701_24462)">
<path fill-rule="evenodd" clip-rule="evenodd" d="M1.5 1H25.5V19H1.5V1Z" fill="#73BE4A"/>
<path fill-rule="evenodd" clip-rule="evenodd" d="M1.5 1V13H25.5V1H1.5Z" fill="#AF0100"/>
<rect x="1.5" y="1" width="4.5" height="18" fill="#F7FCFF"/>
<path fill-rule="evenodd" clip-rule="evenodd" d="M1.83316 2.67703L2.92263 1.0426L3.98405 2.67698L2.9226 4.2365L1.83316 2.67703ZM2.91862 3.569L3.52925 2.67184L2.91859 1.73155L2.29184 2.6718L2.91862 3.569ZM3 2.54837H2.8125V2.93546H3V2.54837Z" fill="#B20000"/>
<path fill-rule="evenodd" clip-rule="evenodd" d="M2.35279 4.1394L1.83316 4.88242L2.35278 5.59137L2.85905 4.8824L2.35279 4.1394ZM2.59584 4.89501L2.3617 5.21285L2.12475 4.87605L2.36107 4.52726L2.59584 4.89501Z" fill="#B20000"/>
<path fill-rule="evenodd" clip-rule="evenodd" d="M3.47779 4.1394L2.95816 4.88242L3.47778 5.59137L3.98405 4.8824L3.47779 4.1394ZM3.72084 4.89501L3.4867 5.21285L3.24975 4.87605L3.48607 4.52726L3.72084 4.89501Z" fill="#B20000"/>
<path fill-rule="evenodd" clip-rule="evenodd" d="M4.22779 4.1394L3.70816 4.88242L4.22778 5.59137L4.73405 4.8824L4.22779 4.1394ZM4.47084 4.89501L4.2367 5.21285L3.99975 4.87605L4.23607 4.52726L4.47084 4.89501Z" fill="#B20000"/>
<path fill-rule="evenodd" clip-rule="evenodd" d="M5.35279 4.1394L4.83316 4.88242L5.35278 5.59137L5.85905 4.8824L5.35279 4.1394ZM5.59584 4.89501L5.3617 5.21285L5.12475 4.87605L5.36107 4.52726L5.59584 4.89501Z" fill="#B20000"/>
<path fill-rule="evenodd" clip-rule="evenodd" d="M3.70816 2.67703L4.79763 1.0426L5.85905 2.67698L4.7976 4.2365L3.70816 2.67703ZM4.79362 3.569L5.40425 2.67184L4.79359 1.73155L4.16684 2.6718L4.79362 3.569ZM4.875 2.54837H4.6875V2.93546H4.875V2.54837Z" fill="#B20000"/>
<path d="M2.74214 10.3045L1.52777 8.26524L1.84724 8.06253L2.72758 9.54087L3.80174 7.56689L4.9026 9.54558L5.68041 8.25459L5.99885 8.45903L4.88978 10.2998L3.80536 8.35066L2.74214 10.3045Z" fill="#B20000"/>
<path fill-rule="evenodd" clip-rule="evenodd" d="M2.0625 1.38708H2.26411V1.77418H2.0625V1.38708Z" fill="#B20000"/>
<path fill-rule="evenodd" clip-rule="evenodd" d="M3.75 1H3.95161V1.3871H3.75V1Z" fill="#B20000"/>
<path fill-rule="evenodd" clip-rule="evenodd" d="M5.4375 1.38708H5.63911V1.77418H5.4375V1.38708Z" fill="#B20000"/>
<path fill-rule="evenodd" clip-rule="evenodd" d="M2.0625 3.70972H2.25V4.09681H2.0625V3.70972ZM3.75 3.70972H3.9375V4.09681H3.75V3.70972ZM5.625 3.70972H5.4375V4.09681H5.625V3.70972Z" fill="#B20000"/>
<path fill-rule="evenodd" clip-rule="evenodd" d="M2.0625 5.64514H2.25V6.03224H2.0625V5.64514ZM3.75 5.64514H3.9375V6.03224H3.75V5.64514ZM5.625 5.64514H5.4375V6.03224H5.625V5.64514Z" fill="#B20000"/>
<path fill-rule="evenodd" clip-rule="evenodd" d="M3.15615 7.71604L2.658 8.44221L1.87225 7.02703L2.90707 5.41016L3.797 6.81955L4.68692 5.41016L5.72174 7.02703L4.936 8.44221L4.43785 7.71604L4.83115 6.89833L4.68692 6.5661L3.84674 7.92891V8.09029L3.797 8.0096L3.74725 8.09029V7.92891L2.90707 6.5661L2.76285 6.89833L3.15615 7.71604Z" fill="#B20000"/>
<path fill-rule="evenodd" clip-rule="evenodd" d="M3.75 8.93542H3.9375V9.32252H3.75V8.93542ZM3.75 10.8709H3.9375V11.258H3.75V10.8709ZM3.75 9.51607H3.5625V9.90317H3.75V10.0967H3.5625V10.4838H3.75V10.2903H3.9375V10.4838H4.125V10.0967H3.9375V9.90317H4.125V9.51607H3.9375V9.90317H3.75V9.51607ZM3.1875 9.90317H3.375V10.2903H3.1875V9.90317ZM4.5 9.90317H4.3125V10.2903H4.5V9.90317ZM1.875 9.90317H2.0625V10.2903H1.875V9.90317ZM5.8125 9.90317H5.625V10.2903H5.8125V9.90317Z" fill="#B20000"/>
<path fill-rule="evenodd" clip-rule="evenodd" d="M1.83316 17.323L2.92263 18.9574L3.98405 17.323L2.9226 15.7635L1.83316 17.323ZM2.91862 16.431L3.52925 17.3282L2.91859 18.2684L2.29184 17.3282L2.91862 16.431ZM3 17.4516H2.8125V17.0645H3V17.4516Z" fill="#B20000"/>
<path fill-rule="evenodd" clip-rule="evenodd" d="M2.35279 15.8606L1.83316 15.1176L2.35278 14.4086L2.85905 15.1176L2.35279 15.8606ZM2.59584 15.105L2.3617 14.7871L2.12475 15.1239L2.36107 15.4727L2.59584 15.105Z" fill="#B20000"/>
<path fill-rule="evenodd" clip-rule="evenodd" d="M3.47779 15.8606L2.95816 15.1176L3.47778 14.4086L3.98405 15.1176L3.47779 15.8606ZM3.72084 15.105L3.4867 14.7871L3.24975 15.1239L3.48607 15.4727L3.72084 15.105Z" fill="#B20000"/>
<path fill-rule="evenodd" clip-rule="evenodd" d="M4.22779 15.8606L3.70816 15.1176L4.22778 14.4086L4.73405 15.1176L4.22779 15.8606ZM4.47084 15.105L4.2367 14.7871L3.99975 15.1239L4.23607 15.4727L4.47084 15.105Z" fill="#B20000"/>
<path fill-rule="evenodd" clip-rule="evenodd" d="M5.35279 15.8606L4.83316 15.1176L5.35278 14.4086L5.85905 15.1176L5.35279 15.8606ZM5.59584 15.105L5.3617 14.7871L5.12475 15.1239L5.36107 15.4727L5.59584 15.105Z" fill="#B20000"/>
<path fill-rule="evenodd" clip-rule="evenodd" d="M3.70816 17.323L4.79763 18.9574L5.85905 17.323L4.7976 15.7635L3.70816 17.323ZM4.79362 16.431L5.40425 17.3282L4.79359 18.2684L4.16684 17.3282L4.79362 16.431ZM4.875 17.4516H4.6875V17.0645H4.875V17.4516Z" fill="#B20000"/>
<path d="M2.74214 9.69548L1.52777 11.7348L1.84724 11.9375L2.72758 10.4591L3.80174 12.4331L4.9026 10.4544L5.68041 11.7454L5.99885 11.541L4.88978 9.70018L3.80536 11.6493L2.74214 9.69548Z" fill="#B20000"/>
<path fill-rule="evenodd" clip-rule="evenodd" d="M2.0625 18.6129H2.26411V18.2258H2.0625V18.6129Z" fill="#B20000"/>
<path fill-rule="evenodd" clip-rule="evenodd" d="M3.75 19H3.95161V18.6129H3.75V19Z" fill="#B20000"/>
<path fill-rule="evenodd" clip-rule="evenodd" d="M5.4375 18.6129H5.63911V18.2258H5.4375V18.6129Z" fill="#B20000"/>
<path fill-rule="evenodd" clip-rule="evenodd" d="M2.0625 16.2903H2.25V15.9032H2.0625V16.2903ZM3.75 16.2903H3.9375V15.9032H3.75V16.2903ZM5.625 16.2903H5.4375V15.9032H5.625V16.2903Z" fill="#B20000"/>
<path fill-rule="evenodd" clip-rule="evenodd" d="M2.0625 14.3549H2.25V13.9678H2.0625V14.3549ZM3.75 14.3549H3.9375V13.9678H3.75V14.3549ZM5.625 14.3549H5.4375V13.9678H5.625V14.3549Z" fill="#B20000"/>
<path fill-rule="evenodd" clip-rule="evenodd" d="M3.15615 12.3946L2.658 11.6684L1.87225 13.0836L2.90707 14.7004L3.797 13.291L4.68692 14.7004L5.72174 13.0836L4.936 11.6684L4.43785 12.3946L4.83115 13.2123L4.68692 13.5445L3.84674 12.1817V12.0203L3.797 12.101L3.74725 12.0203V12.1817L2.90707 13.5445L2.76285 13.2123L3.15615 12.3946Z" fill="#B20000"/>
</g>
</g>
<rect x="1.75" y="1.25" width="23.5" height="17.5" stroke="black" stroke-opacity="0.1" stroke-width="0.5" shape-rendering="crispEdges"/>
</g>
<defs>
<filter id="filter0_dd_701_24462" x="0" y="0" width="27" height="21" filterUnits="userSpaceOnUse" color-interpolation-filters="sRGB">
<feFlood flood-opacity="0" result="BackgroundImageFix"/>
<feColorMatrix in="SourceAlpha" type="matrix" values="0 0 0 0 0 0 0 0 0 0 0 0 0 0 0 0 0 0 127 0" result="hardAlpha"/>
<feOffset dy="0.5"/>
<feGaussianBlur stdDeviation="0.75"/>
<feComposite in2="hardAlpha" operator="out"/>
<feColorMatrix type="matrix" values="0 0 0 0 0 0 0 0 0 0 0 0 0 0 0 0 0 0 0.1 0"/>
<feBlend mode="multiply" in2="BackgroundImageFix" result="effect1_dropShadow_701_24462"/>
<feColorMatrix in="SourceAlpha" type="matrix" values="0 0 0 0 0 0 0 0 0 0 0 0 0 0 0 0 0 0 127 0" result="hardAlpha"/>
<feOffset/>
<feGaussianBlur stdDeviation="0.5"/>
<feComposite in2="hardAlpha" operator="out"/>
<feColorMatrix type="matrix" values="0 0 0 0 0 0 0 0 0 0 0 0 0 0 0 0 0 0 0.11 0"/>
<feBlend mode="multiply" in2="effect1_dropShadow_701_24462" result="effect2_dropShadow_701_24462"/>
<feBlend mode="normal" in="SourceGraphic" in2="effect2_dropShadow_701_24462" result="shape"/>
</filter>
<clipPath id="clip0_701_24462">
<rect x="1.5" y="1" width="24" height="18" fill="white"/>
</clipPath>
</defs>
</svg>