<svg viewBox="0 0 27 21" fill="none" xmlns="http://www.w3.org/2000/svg">
<g filter="url(#filter0_dd_701_21367)">
<g clip-path="url(#clip0_701_21367)">
<mask id="mask0_701_21367" style="mask-type:alpha" maskUnits="userSpaceOnUse" x="1" y="1" width="25" height="18">
<rect x="1.5" y="1" width="24" height="18" fill="white"/>
</mask>
<g mask="url(#mask0_701_21367)">
<path fill-rule="evenodd" clip-rule="evenodd" d="M1.5 1V19H25.5V1H1.5Z" fill="#2E42A5"/>
<mask id="mask1_701_21367" style="mask-type:alpha" maskUnits="userSpaceOnUse" x="1" y="1" width="25" height="18">
<path fill-rule="evenodd" clip-rule="evenodd" d="M1.5 1V19H25.5V1H1.5Z" fill="white"/>
</mask>
<g mask="url(#mask1_701_21367)">
<path fill-rule="evenodd" clip-rule="evenodd" d="M1.5 13V19H25.5V13H1.5Z" fill="#FECA00"/>
<mask id="mask2_701_21367" style="mask-type:alpha" maskUnits="userSpaceOnUse" x="1" y="1" width="25" height="12">
<rect x="1.5" y="1" width="24" height="12" fill="white"/>
</mask>
<g mask="url(#mask2_701_21367)">
<path d="M-0.196625 12.347L4.56041 13.4475L14.7012 7.84432L15.7743 7.21685L25.407 2.18011L27.689 0.589336L22.4692 0.107942L14.053 4.85545L7.97099 7.84432L-0.196625 12.347Z" fill="white"/>
<path d="M0.221313 13.0141L2.78252 13.8542L26.7367 0.389486H23.1405L0.221313 13.0141Z" fill="#F50100"/>
<path d="M27.2781 12.0481L27.4669 13.1806L22.4396 13.4475L14.335 8.7005L13.5709 8.96157L-1.56031 1.30799L4.68706 0.105482L13.039 4.71939L19.5726 7.87634L27.2781 12.0481Z" fill="white"/>
<path d="M27.2954 12.7278L24.7342 13.5679L14.5342 7.80291L11.5102 7.1588L-0.944139 0.596691H2.6521L15.0994 7.00304L18.4057 7.7754L27.2954 12.7278Z" fill="#F50100"/>
<path d="M11.0793 -0.25V-1.5H9.82925V-0.25H11.0793ZM11.0793 4.25V5.5H12.3293V4.25H11.0793ZM0.25 4.25V3H-1V4.25H0.25ZM0.25 9.75H-1V11H0.25V9.75ZM11.0793 9.75H12.3293V8.5H11.0793V9.75ZM11.0793 15.75H9.82925V17H11.0793V15.75ZM15.9707 15.75V17H17.2207V15.75H15.9707ZM15.9707 9.75V8.5H14.7207V9.75H15.9707ZM26.75 9.75V11H28V9.75H26.75ZM26.75 4.25H28V3H26.75V4.25ZM15.9707 4.25H14.7207V5.5H15.9707V4.25ZM15.9707 -0.25H17.2207V-1.5H15.9707V-0.25ZM11.0793 6.75H12.3293V5.5H11.0793V6.75ZM2.75 6.75V5.5H1.5V6.75H2.75ZM2.75 7.25H1.5V8.5H2.75V7.25ZM11.0793 7.25V8.5H12.3293V7.25H11.0793ZM15.9707 6.75V5.5H14.7207V6.75H15.9707ZM15.9707 7.25H14.7207V8.5H15.9707V7.25ZM24.25 6.75H25.5V5.5H24.25V6.75ZM24.25 7.25V8.5H25.5V7.25H24.25ZM11.0793 1H12.3293V-1.5H11.0793V1ZM12.3293 1V-0.25H9.82925V1H12.3293ZM12.3293 4.25V1H9.82925V4.25H12.3293ZM1.5 5.5H11.0793V3H1.5V5.5ZM0.25 5.5H1.5V3H0.25V5.5ZM1.5 5.5V4.25H-1V5.5H1.5ZM1.5 8.5V5.5H-1V8.5H1.5ZM1.5 9.75V8.5H-1V9.75H1.5ZM1.5 8.5H0.25V11H1.5V8.5ZM11.0793 8.5H1.5V11H11.0793V8.5ZM12.3293 14.5V9.75H9.82925V14.5H12.3293ZM12.3293 15.75V14.5H9.82925V15.75H12.3293ZM12.3293 14.5H11.0793V17H12.3293V14.5ZM14.7207 14.5H12.3293V17H14.7207V14.5ZM15.9707 14.5H14.7207V17H15.9707V14.5ZM14.7207 14.5V15.75H17.2207V14.5H14.7207ZM14.7207 9.75V14.5H17.2207V9.75H14.7207ZM25.5 8.5H15.9707V11H25.5V8.5ZM26.75 8.5H25.5V11H26.75V8.5ZM25.5 8.5V9.75H28V8.5H25.5ZM25.5 5.5V8.5H28V5.5H25.5ZM25.5 4.25V5.5H28V4.25H25.5ZM25.5 5.5H26.75V3H25.5V5.5ZM15.9707 5.5H25.5V3H15.9707V5.5ZM14.7207 1V4.25H17.2207V1H14.7207ZM14.7207 -0.25V1H17.2207V-0.25H14.7207ZM14.7207 1H15.9707V-1.5H14.7207V1ZM12.3293 1H14.7207V-1.5H12.3293V1ZM11.0793 5.5H2.75V8H11.0793V5.5ZM1.5 6.75V7.25H4V6.75H1.5ZM2.75 8.5H11.0793V6H2.75V8.5ZM12.3293 7.25V6.75H9.82925V7.25H12.3293ZM14.7207 6.75V7.25H17.2207V6.75H14.7207ZM24.25 5.5H15.9707V8H24.25V5.5ZM25.5 7.25V6.75H23V7.25H25.5ZM15.9707 8.5H24.25V6H15.9707V8.5Z" fill="white"/>
<path fill-rule="evenodd" clip-rule="evenodd" d="M14.7692 0H12.2308V5.5H1.5V8.5H12.2308V15.5H14.7692V8.5H27V5.5H14.7692V0Z" fill="#F50100"/>
</g>
<path fill-rule="evenodd" clip-rule="evenodd" d="M13.55 8.59985C15.0688 8.59985 16.3 7.36864 16.3 5.84985C16.3 4.33107 15.0688 3.09985 13.55 3.09985C12.0313 3.09985 10.8 4.33107 10.8 5.84985C10.8 7.36864 12.0313 8.59985 13.55 8.59985Z" fill="#2E42A5"/>
<path fill-rule="evenodd" clip-rule="evenodd" d="M13.6 6.69115L12.3021 7.59429L12.76 6.08086L11.5 5.12559L13.0809 5.09338L13.6 3.59985L14.1191 5.09338L15.7 5.12559L14.44 6.08086L14.8979 7.59429L13.6 6.69115Z" fill="#FECA00"/>
<path fill-rule="evenodd" clip-rule="evenodd" d="M6.82501 7.43206L6.01384 7.99652L6.30001 7.05063L5.51251 6.45359L6.50054 6.43345L6.82501 5.5L7.14948 6.43345L8.13751 6.45359L7.35001 7.05063L7.63618 7.99652L6.82501 7.43206Z" fill="#FECA00"/>
<path fill-rule="evenodd" clip-rule="evenodd" d="M22.6 6.57608L21.5184 7.3287L21.9 6.0675L20.85 5.27145L22.1674 5.2446L22.6 4L23.0326 5.2446L24.35 5.27145L23.3 6.0675L23.6816 7.3287L22.6 6.57608Z" fill="#FECA00"/>
<path fill-rule="evenodd" clip-rule="evenodd" d="M13.6 1.77603L12.5184 2.52865L12.9 1.26745L11.85 0.471401L13.1674 0.444554L13.6 -0.800049L14.0326 0.444554L15.35 0.471401L14.3 1.26745L14.6816 2.52865L13.6 1.77603Z" fill="#FECA00"/>
<path fill-rule="evenodd" clip-rule="evenodd" d="M13.6 12.3761L12.5184 13.1287L12.9 11.8676L11.85 11.0715L13.1674 11.0447L13.6 9.80005L14.0326 11.0447L15.35 11.0715L14.3 11.8676L14.6816 13.1287L13.6 12.3761Z" fill="#FECA00"/>
</g>
</g>
</g>
<rect x="1.75" y="1.25" width="23.5" height="17.5" stroke="black" stroke-opacity="0.1" stroke-width="0.5" shape-rendering="crispEdges"/>
</g>
<defs>
<filter id="filter0_dd_701_21367" x="0" y="0" width="27" height="21" filterUnits="userSpaceOnUse" color-interpolation-filters="sRGB">
<feFlood flood-opacity="0" result="BackgroundImageFix"/>
<feColorMatrix in="SourceAlpha" type="matrix" values="0 0 0 0 0 0 0 0 0 0 0 0 0 0 0 0 0 0 127 0" result="hardAlpha"/>
<feOffset dy="0.5"/>
<feGaussianBlur stdDeviation="0.75"/>
<feComposite in2="hardAlpha" operator="out"/>
<feColorMatrix type="matrix" values="0 0 0 0 0 0 0 0 0 0 0 0 0 0 0 0 0 0 0.1 0"/>
<feBlend mode="multiply" in2="BackgroundImageFix" result="effect1_dropShadow_701_21367"/>
<feColorMatrix in="SourceAlpha" type="matrix" values="0 0 0 0 0 0 0 0 0 0 0 0 0 0 0 0 0 0 127 0" result="hardAlpha"/>
<feOffset/>
<feGaussianBlur stdDeviation="0.5"/>
<feComposite in2="hardAlpha" operator="out"/>
<feColorMatrix type="matrix" values="0 0 0 0 0 0 0 0 0 0 0 0 0 0 0 0 0 0 0.11 0"/>
<feBlend mode="multiply" in2="effect1_dropShadow_701_21367" result="effect2_dropShadow_701_21367"/>
<feBlend mode="normal" in="SourceGraphic" in2="effect2_dropShadow_701_21367" result="shape"/>
</filter>
<clipPath id="clip0_701_21367">
<rect x="1.5" y="1" width="24" height="18" fill="white"/>
</clipPath>
</defs>
</svg>