<svg viewBox="0 0 27 21" fill="none" xmlns="http://www.w3.org/2000/svg">
<g filter="url(#filter0_dd_701_23436)">
<g clip-path="url(#clip0_701_23436)">
<mask id="mask0_701_23436" style="mask-type:alpha" maskUnits="userSpaceOnUse" x="1" y="1" width="25" height="18">
<rect x="1.5" y="1" width="24" height="18" fill="white"/>
</mask>
<g mask="url(#mask0_701_23436)">
<path fill-rule="evenodd" clip-rule="evenodd" d="M1.5 1V19H25.5V1H1.5Z" fill="#F7FCFF"/>
<mask id="mask1_701_23436" style="mask-type:alpha" maskUnits="userSpaceOnUse" x="1" y="1" width="25" height="18">
<path fill-rule="evenodd" clip-rule="evenodd" d="M1.5 1V19H25.5V1H1.5Z" fill="white"/>
</mask>
<g mask="url(#mask1_701_23436)">
<path fill-rule="evenodd" clip-rule="evenodd" d="M12 1H15V8.5H25.5V11.5H15V19H12V11.5H1.5V8.5H12V1Z" fill="#E31D1C"/>
<path fill-rule="evenodd" clip-rule="evenodd" d="M8.99901 13.9165L10.65 13.75V15.25C10.65 15.25 8.99901 15.1466 8.99901 15.1765C8.99901 15.2063 9.14999 16.75 9.14999 16.75H7.64999L7.77016 15.25H6.14999V13.75L7.77016 13.9165L7.64999 12.25H9.14999L8.99901 13.9165Z" fill="#E31D1C"/>
<path fill-rule="evenodd" clip-rule="evenodd" d="M8.99901 4.91646L10.65 4.75V6.25C10.65 6.25 8.99901 6.14662 8.99901 6.17647C8.99901 6.20631 9.14999 7.75 9.14999 7.75H7.64999L7.77016 6.25H6.14999V4.75L7.77016 4.91646L7.64999 3.25H9.14999L8.99901 4.91646Z" fill="#E31D1C"/>
<path fill-rule="evenodd" clip-rule="evenodd" d="M19.499 4.91646L21.15 4.75V6.25C21.15 6.25 19.499 6.14662 19.499 6.17647C19.499 6.20631 19.65 7.75 19.65 7.75H18.15L18.2702 6.25H16.65V4.75L18.2702 4.91646L18.15 3.25H19.65L19.499 4.91646Z" fill="#E31D1C"/>
<path fill-rule="evenodd" clip-rule="evenodd" d="M19.499 13.9165L21.15 13.75V15.25C21.15 15.25 19.499 15.1466 19.499 15.1765C19.499 15.2063 19.65 16.75 19.65 16.75H18.15L18.2702 15.25H16.65V13.75L18.2702 13.9165L18.15 12.25H19.65L19.499 13.9165Z" fill="#E31D1C"/>
</g>
</g>
</g>
<rect x="1.75" y="1.25" width="23.5" height="17.5" stroke="black" stroke-opacity="0.1" stroke-width="0.5" shape-rendering="crispEdges"/>
</g>
<defs>
<filter id="filter0_dd_701_23436" x="0" y="0" width="27" height="21" filterUnits="userSpaceOnUse" color-interpolation-filters="sRGB">
<feFlood flood-opacity="0" result="BackgroundImageFix"/>
<feColorMatrix in="SourceAlpha" type="matrix" values="0 0 0 0 0 0 0 0 0 0 0 0 0 0 0 0 0 0 127 0" result="hardAlpha"/>
<feOffset dy="0.5"/>
<feGaussianBlur stdDeviation="0.75"/>
<feComposite in2="hardAlpha" operator="out"/>
<feColorMatrix type="matrix" values="0 0 0 0 0 0 0 0 0 0 0 0 0 0 0 0 0 0 0.1 0"/>
<feBlend mode="multiply" in2="BackgroundImageFix" result="effect1_dropShadow_701_23436"/>
<feColorMatrix in="SourceAlpha" type="matrix" values="0 0 0 0 0 0 0 0 0 0 0 0 0 0 0 0 0 0 127 0" result="hardAlpha"/>
<feOffset/>
<feGaussianBlur stdDeviation="0.5"/>
<feComposite in2="hardAlpha" operator="out"/>
<feColorMatrix type="matrix" values="0 0 0 0 0 0 0 0 0 0 0 0 0 0 0 0 0 0 0.11 0"/>
<feBlend mode="multiply" in2="effect1_dropShadow_701_23436" result="effect2_dropShadow_701_23436"/>
<feBlend mode="normal" in="SourceGraphic" in2="effect2_dropShadow_701_23436" result="shape"/>
</filter>
<clipPath id="clip0_701_23436">
<rect x="1.5" y="1" width="24" height="18" fill="white"/>
</clipPath>
</defs>
</svg>