<svg viewBox="0 0 27 21" fill="none" xmlns="http://www.w3.org/2000/svg">
<g filter="url(#filter0_dd_701_22021)">
<g clip-path="url(#clip0_701_22021)">
<mask id="mask0_701_22021" style="mask-type:alpha" maskUnits="userSpaceOnUse" x="1" y="1" width="25" height="18">
<rect x="1.5" y="1" width="24" height="18" fill="white"/>
</mask>
<g mask="url(#mask0_701_22021)">
<path fill-rule="evenodd" clip-rule="evenodd" d="M1.5 1H25.5V19H1.5V1Z" fill="#FECA00"/>
<rect x="3" y="2.5" width="4.5" height="15" fill="#1F8A6E"/>
<rect x="7.5" y="2.5" width="4.5" height="15" fill="#F56800"/>
<rect x="12" y="2.5" width="12" height="15" fill="#B01D00"/>
<rect x="10.5" y="2.5" width="1.5" height="15" fill="#E8AA00"/>
<path fill-rule="evenodd" clip-rule="evenodd" d="M14.3253 5.63013C14.3253 5.63013 13.3701 5.62735 13.3701 7.29071V9.72984C13.3701 9.72984 12.9153 9.81092 12.9153 10.0934C12.9153 10.3759 13.0117 10.6231 13.1909 10.6231C13.3701 10.6231 13.5492 11.4518 13.3701 11.4518C13.1909 11.4518 13.0117 11.8073 13.1909 11.8073C13.2337 11.8073 13.2664 11.8015 13.2912 11.7971C13.3701 11.783 13.3701 11.783 13.3701 12.0287C13.3701 12.3516 13.1909 12.4822 13.1909 12.4822C13.1909 12.4822 13.0221 12.4351 13.0221 12.6251C13.0221 12.8152 13.1909 12.8633 13.1909 12.8633C13.1909 12.8633 13.2875 12.905 13.1014 12.995C12.9153 13.085 12.9153 13.1285 12.9153 13.1285H13.3701L13.5978 13.5452L13.8151 13.1285H14.264C14.264 13.1285 14.038 12.9839 14.0115 12.9536C13.985 12.9233 13.9529 12.8791 14.0115 12.8284C14.0285 12.8136 14.0535 12.8023 14.0804 12.7902C14.1456 12.7608 14.2218 12.7264 14.2218 12.6251C14.2218 12.4822 13.9352 12.4822 13.9352 12.4822C13.9352 12.4822 13.7604 12.1665 13.8151 12.0287C13.8304 11.9901 13.8392 11.9558 13.8466 11.9264C13.8659 11.8507 13.877 11.8073 13.971 11.8073C14.1015 11.8073 14.1764 11.6426 14.0115 11.4518C14.0115 11.4518 14.2005 11.6549 14.1449 11.9186C14.0894 12.1822 14.2027 12.3016 14.264 12.3016C14.3253 12.3016 14.4229 12.211 14.4229 12.211C14.4229 12.211 14.9325 12.6666 15.1565 12.6666C15.3805 12.6666 15.7015 12.3016 15.7015 12.3016L16.1625 12.5605C16.1625 12.5605 16.5 13.0332 16.4502 13.3582C16.4005 13.6832 16.2082 13.8643 15.9818 13.814C15.7555 13.7638 15.3873 13.8669 15.3593 14.0071C15.355 14.0283 15.3487 14.0541 15.3418 14.0825C15.303 14.2416 15.245 14.4798 15.4224 14.421C15.6315 14.3518 15.6725 14.2986 15.6725 14.2986C15.6725 14.2986 15.645 14.421 15.8134 14.421C15.9818 14.421 16.0305 14.2986 16.0305 14.2986C16.0305 14.2986 16.2051 14.421 16.3277 14.421C16.4502 14.421 16.5876 14.3267 16.5876 14.3267C16.5876 14.3267 16.6779 14.4668 16.8778 14.421C17.0777 14.3752 17.2288 13.8535 17.0834 13.7367C17.0834 13.7367 17.5656 13.6667 17.6894 13.2476C17.6894 13.2476 17.2229 13.2407 17.271 12.9536C17.3191 12.6666 17.5654 12.4822 17.5654 12.4822C17.5654 12.4822 18.2747 12.1388 18.5799 12.0287C18.8851 11.9186 19.3923 11.8073 19.518 11.8073C19.5692 11.8073 19.6057 11.9267 19.6552 12.0886C19.7274 12.3244 19.8271 12.6504 20.0399 12.8284C20.3986 13.1285 20.154 13.814 20.154 13.814C20.154 13.814 19.3557 13.8945 19.3557 14.1106C19.3557 14.3267 19.3685 14.421 19.518 14.421C19.6676 14.421 19.6645 14.2986 19.6645 14.2986C19.6645 14.2986 19.7533 14.421 19.8966 14.421C20.0399 14.421 20.154 14.2986 20.154 14.2986C20.154 14.2986 20.1921 14.421 20.3798 14.421C20.5675 14.421 20.5662 14.2986 20.5662 14.2986C20.5662 14.2986 20.6 14.421 20.7654 14.421C20.9309 14.421 21.2705 14.2986 21.2705 14.2986C21.2705 14.2986 21.3237 14.421 21.4955 14.421C21.6674 14.421 21.6714 14.2986 21.6714 14.2986C21.6714 14.2986 21.7632 14.421 21.912 14.421C22.0608 14.421 22.1481 14.2986 22.1481 14.2986C22.1481 14.2986 22.362 14.421 22.5097 14.421C22.6573 14.421 22.6042 14.2001 22.5097 14.0071C22.4857 13.9582 22.458 13.9165 22.4327 13.8784C22.3579 13.7659 22.3041 13.6848 22.4307 13.5452C22.4666 13.5056 22.5077 13.4656 22.5489 13.4256L22.5489 13.4256C22.7023 13.2764 22.8565 13.1264 22.7435 12.995C22.71 12.956 22.6707 12.9288 22.6313 12.9013C22.502 12.8115 22.3703 12.7201 22.4307 12.211C22.4669 11.9061 22.5357 11.6583 22.5996 11.4281L22.5996 11.4281C22.675 11.1566 22.7435 10.9098 22.7435 10.6231C22.7435 10.0934 22.4307 9.48774 22.4307 9.48774C22.4307 9.48774 22.8519 9.19378 22.8519 8.59581C22.8519 7.99785 21.912 7.93263 21.912 7.93263C21.912 7.93263 20.9784 8.17295 20.5662 8.05279C20.4732 8.02568 20.3953 8.00618 20.3306 7.98995L20.3305 7.98995C20.1083 7.93427 20.0399 7.91713 20.0399 7.76307C20.0399 7.56411 19.7398 7.93263 19.7398 7.93263C19.7398 7.93263 19.5046 7.83823 19.6645 7.64292C19.8244 7.4476 19.8966 7.37102 19.8966 7.37102C19.8966 7.37102 19.7557 7.21039 19.518 7.29071C19.2804 7.37102 19.238 7.50412 19.238 7.50412C19.238 7.50412 18.967 7.22674 19.1358 7.02533C19.3047 6.82393 19.518 7.02533 19.518 7.02533C19.518 7.02533 19.7607 7.15207 19.7803 6.98571C19.7999 6.81936 19.7803 6.6867 19.7803 6.6867C19.7803 6.6867 20.3893 6.86137 20.2172 7.13304C20.0451 7.40472 20.154 7.50412 20.154 7.50412C20.154 7.50412 20.5725 7.52988 20.6482 7.24114C20.6768 7.13194 20.672 7.02603 20.6511 6.9428C20.7717 6.99961 20.9083 7.06692 20.8702 7.17859C20.8001 7.38374 20.6482 7.64292 20.6482 7.64292C20.6482 7.64292 21.0664 7.61847 21.191 7.29071C21.3157 6.96294 21.2705 7.37102 21.2705 7.37102C21.2705 7.37102 21.4308 7.36532 21.6714 7.50412C21.912 7.64292 21.6714 7.29071 21.6714 7.29071C21.6714 7.29071 22.1708 7.90992 22.6432 7.8365C23.1155 7.76307 23.0893 7.37102 23.0893 7.37102C23.0893 7.37102 22.9774 7.17859 22.7435 7.17859C22.5097 7.17859 22.6432 7.37102 22.6432 7.37102C22.6432 7.37102 22.8712 7.50091 22.5097 7.37102C22.4049 7.3334 22.2487 7.21197 22.0547 7.06128C21.5792 6.69172 20.8772 6.14622 20.154 6.22976C19.1358 6.34737 18.7806 6.80235 18.7806 6.80235V6.42351C18.7806 6.42351 18.6095 6.6867 18.45 6.6867C18.2905 6.6867 17.8476 6.42351 17.8476 6.42351L17.5654 6.6867C17.5654 6.6867 17.4586 6.42351 17.271 6.42351C17.0834 6.42351 17.0834 6.6867 17.0834 6.6867C17.0834 6.6867 16.8474 6.57068 16.5876 6.57068C16.4811 6.57068 16.3905 6.53179 16.3207 6.50181C16.2201 6.45862 16.1625 6.43391 16.1625 6.57068C16.1625 6.59844 16.1632 6.62493 16.1638 6.65014C16.1684 6.8353 16.1712 6.95084 15.9018 6.98571C15.5957 7.02533 15.3593 7.02533 15.3593 7.02533C15.3593 7.02533 15.176 6.80235 15.0335 6.80235C14.8909 6.80235 14.7258 6.97538 14.7258 7.13304C14.7258 7.29071 14.9105 7.74036 15.0335 7.8365C15.0659 7.86182 15.0599 7.85905 15.0334 7.84687C14.9595 7.81282 14.7258 7.70517 14.7258 7.93263C14.7258 8.08946 14.7649 8.12866 14.7935 8.1573C14.8212 8.18505 14.839 8.20287 14.8017 8.30816C14.7861 8.35198 14.7648 8.40266 14.7425 8.45556C14.6561 8.66093 14.5556 8.89966 14.7258 8.89966C14.8177 8.89966 14.9047 8.87941 14.9666 8.865L14.9666 8.865C15.0489 8.84584 15.0869 8.83699 15.0335 8.89966C15.0122 8.92464 14.9835 8.95471 14.9547 8.98503C14.8565 9.08806 14.7555 9.19407 14.9303 9.11362C15.0222 9.07133 15.0997 9.00998 15.1637 8.95939L15.1637 8.95938C15.2573 8.88541 15.3217 8.83444 15.3593 8.89966C15.383 8.94091 15.364 8.99603 15.3477 9.04328C15.3206 9.12185 15.301 9.17865 15.498 9.11362C15.567 9.09082 15.6075 9.07304 15.63 9.06027C15.6309 9.07306 15.6415 9.09085 15.6725 9.11362C15.7386 9.16216 15.7259 9.20813 15.7162 9.24327C15.7053 9.28305 15.6982 9.30894 15.8134 9.30894C15.9237 9.30894 16.0794 9.22345 16.1716 9.17278L16.1716 9.17278C16.2609 9.12372 16.2908 9.10731 16.1625 9.23275C16.0817 9.3118 15.9648 9.3645 15.8349 9.42299C15.546 9.55318 15.1934 9.71207 15.0335 10.2541C14.8176 10.9857 14.9143 11.1364 14.9286 11.1537L14.264 10.426C14.264 10.426 14.4229 10.3018 14.4229 10.0934C14.4229 9.885 14.0115 9.72984 14.0115 9.72984C14.0115 9.72984 14.0258 7.13652 14.1449 6.57068C14.264 6.00483 14.3253 5.63013 14.3253 5.63013ZM15.6507 9.03577C15.6432 9.03578 15.6288 9.04396 15.63 9.06027C15.6588 9.04391 15.6582 9.03576 15.6507 9.03577ZM20.6511 6.9428L20.6423 6.93866C20.545 6.89289 20.4613 6.85351 20.4935 6.80235C20.5387 6.73044 20.6167 6.80597 20.6511 6.9428ZM21.0909 12.5542C21.0909 12.5542 20.776 12.8631 20.9759 12.931C21.0366 12.9516 21.1104 12.9631 21.179 12.9738C21.3365 12.9983 21.4667 13.0186 21.3473 13.1352C21.1759 13.3026 21.0309 13.5288 21.0309 13.7348C21.0309 13.9408 21.0358 14.1146 21.0909 14.0277C21.1212 13.98 21.2456 13.93 21.3795 13.8762C21.4896 13.8319 21.6062 13.7851 21.6824 13.7348C21.8263 13.6396 21.8243 13.5367 21.8205 13.3519C21.8199 13.3199 21.8192 13.2855 21.8192 13.2482C21.8192 12.9955 21.0909 12.5542 21.0909 12.5542ZM18.6472 8.41722C18.7207 8.35887 18.7254 7.63874 18.7254 7.63874C18.7254 7.63874 18.9829 7.72448 18.9829 7.83697C18.9829 7.90703 18.9634 7.9471 18.934 8.00758C18.9162 8.04421 18.8947 8.08834 18.8717 8.15115C18.8151 8.30585 18.9691 8.40277 19.1121 8.49279C19.123 8.49966 19.1339 8.50649 19.1445 8.5133C19.2415 8.57511 19.2688 8.44099 19.2898 8.33746C19.3014 8.28007 19.3112 8.23208 19.3298 8.23208C19.3822 8.23208 19.7724 8.32056 20.0662 8.46983C20.3225 8.60006 20.574 8.53613 21.15 8.38968C21.2341 8.36829 21.3252 8.34513 21.4242 8.32056C22.2011 8.12782 22.3031 8.41722 22.3827 8.64505C22.4624 8.87289 21.8593 9.18861 21.4242 9.24583C21.2331 9.27097 21.0675 9.26297 20.9152 9.25561C20.7208 9.24622 20.548 9.23788 20.3712 9.30074C20.0941 9.39928 19.2274 9.38947 18.889 9.38564C18.8423 9.38511 18.8057 9.38469 18.7821 9.38469C18.6268 9.38469 18.5974 9.33566 18.5384 9.2373C18.5234 9.2123 18.5065 9.18411 18.4852 9.15274C18.3798 8.9979 18.5077 8.89666 18.5906 8.89666C18.6735 8.89666 18.6472 8.71542 18.5906 8.64505C18.5339 8.57469 18.5738 8.47556 18.6472 8.41722Z" fill="#FECA00"/>
<path fill-rule="evenodd" clip-rule="evenodd" d="M12.1284 2.5917V2.86248C12.1284 2.89582 12.114 2.9413 12.0979 2.99228C12.0468 3.15386 11.9782 3.37071 12.2949 3.43166C12.7115 3.51183 13.0185 3.69403 13.1118 3.86603C13.1716 3.97626 13.1548 3.79258 13.1349 3.57654C13.1238 3.45547 13.1118 3.32423 13.1118 3.22887C13.1118 2.96334 12.8144 2.44591 12.6036 2.5917C12.3928 2.73749 12.1284 2.5917 12.1284 2.5917ZM12.1284 17.1304V17.4012C12.1284 17.4012 12.3928 17.2554 12.6036 17.4012C12.8144 17.547 13.1118 17.0296 13.1118 16.7641C13.1118 16.6687 13.1238 16.5374 13.1349 16.4164C13.1548 16.2003 13.1716 16.0167 13.1118 16.1269C13.0185 16.2989 12.7115 16.4811 12.2949 16.5613C11.9782 16.6222 12.0468 16.8391 12.0979 17.0006C12.114 17.0516 12.1284 17.0971 12.1284 17.1304ZM23.8767 17.1304V17.4012C23.8767 17.4012 23.6123 17.2554 23.4015 17.4012C23.1908 17.547 22.8933 17.0296 22.8933 16.7641C22.8933 16.6687 22.8813 16.5374 22.8702 16.4164C22.8504 16.2003 22.8335 16.0167 22.8933 16.1269C22.9867 16.2989 23.2936 16.4811 23.7103 16.5613C24.027 16.6222 23.9584 16.8391 23.9073 17.0006C23.8911 17.0516 23.8767 17.0971 23.8767 17.1304ZM23.8767 2.86248V2.5917C23.8767 2.5917 23.6123 2.73749 23.4015 2.5917C23.1908 2.44591 22.8933 2.96334 22.8933 3.22887C22.8933 3.32423 22.8813 3.45547 22.8702 3.57654C22.8504 3.79258 22.8335 3.97626 22.8933 3.86603C22.9867 3.69403 23.2936 3.51183 23.7103 3.43166C24.027 3.37071 23.9584 3.15386 23.9073 2.99228C23.8911 2.9413 23.8767 2.89582 23.8767 2.86248Z" fill="#FECA00"/>
</g>
</g>
<rect x="1.75" y="1.25" width="23.5" height="17.5" stroke="black" stroke-opacity="0.1" stroke-width="0.5" shape-rendering="crispEdges"/>
</g>
<defs>
<filter id="filter0_dd_701_22021" x="0" y="0" width="27" height="21" filterUnits="userSpaceOnUse" color-interpolation-filters="sRGB">
<feFlood flood-opacity="0" result="BackgroundImageFix"/>
<feColorMatrix in="SourceAlpha" type="matrix" values="0 0 0 0 0 0 0 0 0 0 0 0 0 0 0 0 0 0 127 0" result="hardAlpha"/>
<feOffset dy="0.5"/>
<feGaussianBlur stdDeviation="0.75"/>
<feComposite in2="hardAlpha" operator="out"/>
<feColorMatrix type="matrix" values="0 0 0 0 0 0 0 0 0 0 0 0 0 0 0 0 0 0 0.1 0"/>
<feBlend mode="multiply" in2="BackgroundImageFix" result="effect1_dropShadow_701_22021"/>
<feColorMatrix in="SourceAlpha" type="matrix" values="0 0 0 0 0 0 0 0 0 0 0 0 0 0 0 0 0 0 127 0" result="hardAlpha"/>
<feOffset/>
<feGaussianBlur stdDeviation="0.5"/>
<feComposite in2="hardAlpha" operator="out"/>
<feColorMatrix type="matrix" values="0 0 0 0 0 0 0 0 0 0 0 0 0 0 0 0 0 0 0.11 0"/>
<feBlend mode="multiply" in2="effect1_dropShadow_701_22021" result="effect2_dropShadow_701_22021"/>
<feBlend mode="normal" in="SourceGraphic" in2="effect2_dropShadow_701_22021" result="shape"/>
</filter>
<clipPath id="clip0_701_22021">
<rect x="1.5" y="1" width="24" height="18" fill="white"/>
</clipPath>
</defs>
</svg>