<svg viewBox="0 0 27 21" fill="none" xmlns="http://www.w3.org/2000/svg">
<g filter="url(#filter0_dd_701_19765)">
<g clip-path="url(#clip0_701_19765)">
<mask id="mask0_701_19765" style="mask-type:alpha" maskUnits="userSpaceOnUse" x="1" y="1" width="25" height="18">
<rect x="1.5" y="1" width="24" height="18" fill="white"/>
</mask>
<g mask="url(#mask0_701_19765)">
<path fill-rule="evenodd" clip-rule="evenodd" d="M1.5 1V19H25.5V1H1.5Z" fill="#29C470"/>
<mask id="mask1_701_19765" style="mask-type:alpha" maskUnits="userSpaceOnUse" x="1" y="1" width="25" height="18">
<path fill-rule="evenodd" clip-rule="evenodd" d="M1.5 1V19H25.5V1H1.5Z" fill="white"/>
</mask>
<g mask="url(#mask1_701_19765)">
<rect x="3" y="0.757812" width="7.5" height="19.7422" fill="#C51918"/>
<mask id="mask2_701_19765" style="mask-type:alpha" maskUnits="userSpaceOnUse" x="3" y="0" width="8" height="21">
<rect x="3" y="0.757812" width="7.5" height="19.7422" fill="white"/>
</mask>
<g mask="url(#mask2_701_19765)">
<path fill-rule="evenodd" clip-rule="evenodd" d="M3.44652 1.67922L3.03695 2.20551L3 2.16898L3.39737 1.65837V1.55587L3.39886 1.54634L3.44506 1.40408L3.41679 1.35452L3.18245 1.58883L3.63416 0.885326V1.12572L3.72085 1.20397L3.92791 0.84182L3.72015 0.493282L3.57022 0.60851L3.63102 0.730661L3.58921 0.759692L3.25073 0.193428L3.46637 0.340877L3.50436 0.285794L3.29772 0.0753073L3.38912 -0.0253498L3.0871 -0.466137L3.126 -0.5L3.45476 -0.0201846L3.36948 0.0737333L3.57117 0.279181L3.47831 0.413835L3.41646 0.371547L3.53445 0.568943L3.73335 0.416088L3.98674 0.841185L3.73265 1.28559L3.58501 1.15233V1.05636L3.4368 1.28719L3.49962 1.39727L3.44652 1.56078V1.67922ZM3.03695 5.97268L3.44652 5.44639V5.32795L3.49962 5.16444L3.4368 5.05436L3.58501 4.82353V4.9195L3.73265 5.05276L3.98674 4.60836L3.73335 4.18326L3.53445 4.33611L3.41646 4.13872L3.47831 4.18101L3.57117 4.04635L3.36948 3.8409L3.45476 3.74699L3.126 3.26717L3.0871 3.30103L3.38912 3.74182L3.29772 3.84248L3.50436 4.05296L3.46637 4.10805L3.25073 3.9606L3.58921 4.52686L3.63102 4.49783L3.57022 4.37568L3.72015 4.26045L3.92791 4.60899L3.72085 4.97114L3.63416 4.89289V4.6525L3.18245 5.356L3.41679 5.12169L3.44506 5.17125L3.39886 5.31351L3.39737 5.32304V5.42554L3 5.93615L3.03695 5.97268ZM3.44652 8.88116L3.03695 9.40745L3 9.37092L3.39737 8.86031V8.75781L3.39886 8.74829L3.44506 8.60602L3.41679 8.55647L3.18245 8.79078L3.63416 8.08727V8.32766L3.72085 8.40591L3.92791 8.04376L3.72015 7.69523L3.57022 7.81045L3.63102 7.9326L3.58921 7.96164L3.25073 7.39537L3.46637 7.54282L3.50436 7.48774L3.29772 7.27725L3.38912 7.17659L3.0871 6.73581L3.126 6.70194L3.45476 7.18176L3.36948 7.27568L3.57117 7.48112L3.47831 7.61578L3.41646 7.57349L3.53445 7.77089L3.73335 7.61803L3.98674 8.04313L3.73265 8.48754L3.58501 8.35427V8.25831L3.4368 8.48913L3.49962 8.59921L3.44652 8.76272V8.88116ZM3.03695 12.8976L3.44652 12.3713V12.2529L3.49962 12.0894L3.4368 11.9793L3.58501 11.7485V11.8444L3.73265 11.9777L3.98674 11.5333L3.73335 11.1082L3.53445 11.2611L3.41646 11.0637L3.47831 11.106L3.57117 10.9713L3.36948 10.7658L3.45476 10.6719L3.126 10.1921L3.0871 10.226L3.38912 10.6668L3.29772 10.7674L3.50436 10.9779L3.46637 11.033L3.25073 10.8855L3.58921 11.4518L3.63102 11.4228L3.57022 11.3006L3.72015 11.1854L3.92791 11.5339L3.72085 11.8961L3.63416 11.8178V11.5774L3.18245 12.2809L3.41679 12.0466L3.44506 12.0962L3.39886 12.2385L3.39737 12.248V12.3505L3 12.8611L3.03695 12.8976ZM3.03695 16L3.44652 15.4737V15.3553L3.49962 15.1918L3.4368 15.0817L3.58501 14.8509V14.9468L3.73265 15.0801L3.98674 14.6357L3.73335 14.2106L3.53445 14.3634L3.41646 14.166L3.47831 14.2083L3.57117 14.0737L3.36948 13.8682L3.45476 13.7743L3.126 13.2945L3.0871 13.3284L3.38912 13.7691L3.29772 13.8698L3.50436 14.0803L3.46637 14.1354L3.25073 13.9879L3.58921 14.5542L3.63102 14.5252L3.57022 14.403L3.72015 14.2878L3.92791 14.6363L3.72085 14.9985L3.63416 14.9202V14.6798L3.18245 15.3833L3.41679 15.149L3.44506 15.1986L3.39886 15.3408L3.39737 15.3504V15.4529L3 15.9635L3.03695 16ZM10.4631 16L10.0535 15.4737V15.3553L10.0004 15.1918L10.0632 15.0817L9.91499 14.8509V14.9468L9.76735 15.0801L9.51326 14.6357L9.76665 14.2106L9.96555 14.3634L10.0835 14.166L10.0217 14.2083L9.92883 14.0737L10.1305 13.8682L10.0452 13.7743L10.374 13.2945L10.4129 13.3284L10.1109 13.7691L10.2023 13.8698L9.99564 14.0803L10.0336 14.1354L10.2493 13.9879L9.91079 14.5542L9.86898 14.5252L9.92978 14.403L9.77985 14.2878L9.57209 14.6363L9.77915 14.9985L9.86584 14.9202V14.6798L10.3176 15.3833L10.0832 15.149L10.0549 15.1986L10.1011 15.3408L10.1026 15.3504V15.4529L10.5 15.9635L10.4631 16ZM10.0535 12.3713L10.4631 12.8976L10.5 12.8611L10.1026 12.3505V12.248L10.1011 12.2385L10.0549 12.0962L10.0832 12.0466L10.3176 12.2809L9.86584 11.5774V11.8178L9.77915 11.8961L9.57209 11.5339L9.77985 11.1854L9.92978 11.3006L9.86898 11.4228L9.91079 11.4518L10.2493 10.8855L10.0336 11.033L9.99564 10.9779L10.2023 10.7674L10.1109 10.6668L10.4129 10.226L10.374 10.1921L10.0452 10.6719L10.1305 10.7658L9.92883 10.9713L10.0217 11.106L10.0835 11.0637L9.96555 11.2611L9.76665 11.1082L9.51326 11.5333L9.76735 11.9777L9.91499 11.8444V11.7485L10.0632 11.9793L10.0004 12.0894L10.0535 12.2529V12.3713ZM10.4631 9.40745L10.0535 8.88116V8.76272L10.0004 8.59921L10.0632 8.48913L9.91499 8.25831V8.35427L9.76735 8.48754L9.51326 8.04313L9.76665 7.61803L9.96555 7.77089L10.0835 7.57349L10.0217 7.61578L9.92883 7.48112L10.1305 7.27568L10.0452 7.18176L10.374 6.70194L10.4129 6.73581L10.1109 7.17659L10.2023 7.27725L9.99564 7.48774L10.0336 7.54282L10.2493 7.39537L9.91079 7.96164L9.86898 7.9326L9.92978 7.81045L9.77985 7.69523L9.57209 8.04376L9.77915 8.40591L9.86584 8.32766V8.08727L10.3176 8.79078L10.0832 8.55647L10.0549 8.60602L10.1011 8.74829L10.1026 8.75781V8.86031L10.5 9.37092L10.4631 9.40745ZM10.0535 5.44639L10.4631 5.97268L10.5 5.93615L10.1026 5.42554V5.32304L10.1011 5.31351L10.0549 5.17125L10.0832 5.12169L10.3176 5.356L9.86584 4.6525V4.89289L9.77915 4.97114L9.57209 4.60899L9.77985 4.26045L9.92978 4.37568L9.86898 4.49783L9.91079 4.52686L10.2493 3.9606L10.0336 4.10805L9.99564 4.05296L10.2023 3.84248L10.1109 3.74182L10.4129 3.30103L10.374 3.26717L10.0452 3.74699L10.1305 3.8409L9.92883 4.04635L10.0217 4.18101L10.0835 4.13872L9.96555 4.33611L9.76665 4.18326L9.51326 4.60836L9.76735 5.05276L9.91499 4.9195V4.82353L10.0632 5.05436L10.0004 5.16444L10.0535 5.32795V5.44639ZM10.4631 2.20551L10.0535 1.67922V1.56078L10.0004 1.39727L10.0632 1.28719L9.91499 1.05636V1.15233L9.76735 1.28559L9.51326 0.841185L9.76665 0.416088L9.96555 0.568943L10.0835 0.371547L10.0217 0.413835L9.92883 0.279181L10.1305 0.0737333L10.0452 -0.0201846L10.374 -0.5L10.4129 -0.466137L10.1109 -0.0253498L10.2023 0.0753073L9.99564 0.285794L10.0336 0.340877L10.2493 0.193428L9.91079 0.759692L9.86898 0.730661L9.92978 0.60851L9.77985 0.493282L9.57209 0.84182L9.77915 1.20397L9.86584 1.12572V0.885326L10.3176 1.58883L10.0832 1.35452L10.0549 1.40408L10.1011 1.54634L10.1026 1.55587V1.65837L10.5 2.16898L10.4631 2.20551Z" fill="#E8AA00"/>
<path fill-rule="evenodd" clip-rule="evenodd" d="M6.98001 11.9233H8.14513V12.1968H8.41062V12.4155H8.7292V13.1264H8.41062V13.3452H8.14513V13.5639H7.01109L6.69735 13.8428L6.38212 13.5639H5.33097V13.3452H5.06549V13.1264H4.8V12.4155H5.06549V12.1968H5.33097V11.9233H6.41335L6.69735 11.6721L6.98001 11.9233Z" fill="#389F5D"/>
<path d="M8.14513 11.9233H8.39513V11.6733H8.14513V11.9233ZM6.98001 11.9233L6.81393 12.1102L6.88497 12.1733H6.98001V11.9233ZM8.14513 12.1968H7.89513V12.4468H8.14513V12.1968ZM8.41062 12.1968H8.66062V11.9468H8.41062V12.1968ZM8.41062 12.4155H8.16062V12.6655H8.41062V12.4155ZM8.7292 12.4155H8.9792V12.1655H8.7292V12.4155ZM8.7292 13.1264V13.3764H8.9792V13.1264H8.7292ZM8.41062 13.1264V12.8764H8.16062V13.1264H8.41062ZM8.41062 13.3452V13.5952H8.66062V13.3452H8.41062ZM8.14513 13.3452V13.0952H7.89513V13.3452H8.14513ZM8.14513 13.5639V13.8139H8.39513V13.5639H8.14513ZM7.01109 13.5639V13.3139H6.91606L6.84502 13.3771L7.01109 13.5639ZM6.69735 13.8428L6.53172 14.03L6.69775 14.1769L6.86343 14.0296L6.69735 13.8428ZM6.38212 13.5639L6.54775 13.3767L6.47682 13.3139H6.38212V13.5639ZM5.33097 13.5639H5.08097V13.8139H5.33097V13.5639ZM5.33097 13.3452H5.58097V13.0952H5.33097V13.3452ZM5.06549 13.3452H4.81549V13.5952H5.06549V13.3452ZM5.06549 13.1264H5.31549V12.8764H5.06549V13.1264ZM4.8 13.1264H4.55V13.3764H4.8V13.1264ZM4.8 12.4155V12.1655H4.55V12.4155H4.8ZM5.06549 12.4155V12.6655H5.31549V12.4155H5.06549ZM5.06549 12.1968V11.9468H4.81549V12.1968H5.06549ZM5.33097 12.1968V12.4468H5.58097V12.1968H5.33097ZM5.33097 11.9233V11.6733H5.08097V11.9233H5.33097ZM6.41335 11.9233V12.1733H6.50805L6.57899 12.1106L6.41335 11.9233ZM6.69735 11.6721L6.86343 11.4853L6.69775 11.338L6.53172 11.4849L6.69735 11.6721ZM8.14513 11.6733H6.98001V12.1733H8.14513V11.6733ZM8.39513 12.1968V11.9233H7.89513V12.1968H8.39513ZM8.41062 11.9468H8.14513V12.4468H8.41062V11.9468ZM8.66062 12.4155V12.1968H8.16062V12.4155H8.66062ZM8.7292 12.1655H8.41062V12.6655H8.7292V12.1655ZM8.9792 13.1264V12.4155H8.4792V13.1264H8.9792ZM8.41062 13.3764H8.7292V12.8764H8.41062V13.3764ZM8.66062 13.3452V13.1264H8.16062V13.3452H8.66062ZM8.14513 13.5952H8.41062V13.0952H8.14513V13.5952ZM8.39513 13.5639V13.3452H7.89513V13.5639H8.39513ZM7.01109 13.8139H8.14513V13.3139H7.01109V13.8139ZM6.86343 14.0296L7.17717 13.7508L6.84502 13.3771L6.53128 13.6559L6.86343 14.0296ZM6.21649 13.7512L6.53172 14.03L6.86299 13.6555L6.54775 13.3767L6.21649 13.7512ZM5.33097 13.8139H6.38212V13.3139H5.33097V13.8139ZM5.08097 13.3452V13.5639H5.58097V13.3452H5.08097ZM5.06549 13.5952H5.33097V13.0952H5.06549V13.5952ZM4.81549 13.1264V13.3452H5.31549V13.1264H4.81549ZM4.8 13.3764H5.06549V12.8764H4.8V13.3764ZM4.55 12.4155V13.1264H5.05V12.4155H4.55ZM5.06549 12.1655H4.8V12.6655H5.06549V12.1655ZM4.81549 12.1968V12.4155H5.31549V12.1968H4.81549ZM5.33097 11.9468H5.06549V12.4468H5.33097V11.9468ZM5.08097 11.9233V12.1968H5.58097V11.9233H5.08097ZM6.41335 11.6733H5.33097V12.1733H6.41335V11.6733ZM6.57899 12.1106L6.86299 11.8594L6.53172 11.4849L6.24772 11.7361L6.57899 12.1106ZM6.53128 11.859L6.81393 12.1102L7.14608 11.7365L6.86343 11.4853L6.53128 11.859Z" fill="#E8AA00"/>
<path fill-rule="evenodd" clip-rule="evenodd" d="M5.48642 12.5554V12.0723H6.04935L5.48642 12.5554ZM7.85466 12.5554V12.0723H7.29173L7.85466 12.5554ZM5.48642 13.4304V12.9473L6.04935 13.4304H5.48642ZM7.85466 12.9473V13.4304H7.29173L7.85466 12.9473Z" fill="#C51918"/>
<path fill-rule="evenodd" clip-rule="evenodd" d="M6.48383 12.1138L6.67814 11.8594L6.87002 12.1138H6.48383ZM6.48383 12.3516L6.67814 12.606L6.87002 12.3516H6.48383ZM6.67814 12.9531L6.48383 13.2076H6.87002L6.67814 12.9531ZM6.48383 13.4453L6.67814 13.6998L6.87002 13.4453H6.48383Z" fill="#E8AA00"/>
<path fill-rule="evenodd" clip-rule="evenodd" d="M6.48784 12.0837V12.1931H6.37628V12.3431H6.48784V12.4525H6.87716V12.3431H6.98872V12.1931H6.87716V12.0837H6.48784ZM6.87716 13.2869V13.1775H6.48784V13.2869H6.37628V13.4369H6.48784V13.5462H6.87716V13.4369H6.98872V13.2869H6.87716Z" fill="#AF0100"/>
<path fill-rule="evenodd" clip-rule="evenodd" d="M5.74047 12.6619L5.92543 12.4062L6.10807 12.6619H5.74047ZM5.74047 12.9006L5.92543 13.1562L6.10807 12.9006H5.74047ZM7.46526 12.4062L7.28029 12.6619H7.6479L7.46526 12.4062ZM7.28029 12.9006L7.46526 13.1562L7.6479 12.9006H7.28029Z" fill="#AF0100"/>
<path fill-rule="evenodd" clip-rule="evenodd" d="M5.73911 12.6306V12.7422H5.63292V12.8952H5.73911V13.0067H6.10969V12.8952H6.21589V12.7422H6.10969V12.6306H5.73911ZM7.64952 12.7422V12.6306H7.27894V12.7422H7.17274V12.8952H7.27894V13.0067H7.64952V12.8952H7.75571V12.7422H7.64952Z" fill="#E8AA00"/>
<mask id="mask3_701_19765" style="mask-type:alpha" maskUnits="userSpaceOnUse" x="4" y="13" width="5" height="4">
<path fill-rule="evenodd" clip-rule="evenodd" d="M6.16276 13.9382L4.83408 14.6874V15.9291L6.16276 16.7086H7.60185L8.96213 15.9291V14.6874L7.60185 13.9382H6.16276Z" fill="white"/>
</mask>
<g mask="url(#mask3_701_19765)">
<path d="M4.8531 15.322H6.92389V16.6892H4.8531V15.322Z" fill="#E8AA00"/>
<rect x="4.64071" y="13.9548" width="2.28319" height="1.36719" fill="#F9E8E7"/>
<path d="M5.17168 14.7516L5.85906 14.3376V14.7516H5.17168Z" fill="#E8AA00"/>
<rect width="2.28319" height="1.36719" transform="matrix(-1 0 0 1 9.20708 13.9548)" fill="#E8AA00"/>
<path d="M8.51681 14.7516L7.82942 14.3376V14.7516H8.51681Z" fill="#F9E8E7"/>
<rect x="8.99469" y="16.6892" width="2.0708" height="1.36719" transform="rotate(-180 8.99469 16.6892)" fill="#F9E8E7"/>
<path d="M8.46371 15.8925L7.77633 16.3064V15.8925H8.46371Z" fill="#E8AA00"/>
<path d="M5.17168 15.806L5.85907 16.22V15.806H5.17168Z" fill="#FCFCFC"/>
</g>
<path fill-rule="evenodd" clip-rule="evenodd" d="M6.18053 14.7751H6.52566L6.8708 14.6658L7.21593 14.7751H7.56106V15.8142H7.21593L6.8708 15.9783L6.52566 15.8142H6.18053V14.7751Z" fill="#C51918"/>
<path fill-rule="evenodd" clip-rule="evenodd" d="M7.34867 14.1533H7.53617V14.3649H7.613V14.5149H7.53617V14.5956H7.34867V14.1533ZM5.46537 14.8096H5.27787V15.2519H5.46537V15.1712H5.54221V15.0212H5.46537V14.8096ZM5.73086 14.8096H5.54336V15.2519H5.73086V14.8096ZM5.46537 15.3564H5.27787V15.7988H5.46537V15.718H5.54221V15.568H5.46537V15.3564ZM5.54336 15.3564H5.73086V15.7988H5.54336V15.3564ZM8.19823 14.8096H8.38573V15.0212H8.46256V15.1712H8.38573V15.2519H8.19823V14.8096ZM8.65121 14.8096H8.46371V15.2519H8.65121V14.8096ZM8.38573 15.3564H8.19823V15.7988H8.38573V15.718H8.46256V15.568H8.38573V15.3564ZM8.46371 15.3564H8.65121V15.7988H8.46371V15.3564ZM7.80166 14.1533H7.61416V14.5956H7.80166V14.1533ZM6.26183 14.1533H6.07433V14.5956H6.26183V14.5149H6.33867V14.3649H6.26183V14.1533ZM6.33982 14.1533H6.52732V14.5956H6.33982V14.1533ZM7.34867 16.0127H7.53617V16.2243H7.613V16.3743H7.53617V16.455H7.34867V16.0127ZM7.80166 16.0127H7.61416V16.455H7.80166V16.0127ZM6.26183 16.0127H6.07433V16.455H6.26183V16.3743H6.33867V16.2243H6.26183V16.0127ZM6.33982 16.0127H6.52732V16.455H6.33982V16.0127Z" fill="#C9343F"/>
<path fill-rule="evenodd" clip-rule="evenodd" d="M6.76883 14.9998H6.82192V14.8511H6.55663V15.0211H6.33801V15.2648H6.54129V15.2101H6.39111V15.0758H6.57142L6.84282 15.3106L6.57142 15.5455H6.39111V15.4112H6.54129V15.3565H6.33801V15.6002H6.55663V15.7702H6.82192V15.6215H6.76883V15.7155H6.60973V15.5838L6.88573 15.3449L7.16172 15.5838V15.7155H7.00262V15.6215H6.94953V15.7702H7.21482V15.6002H7.43344V15.3565H7.23016V15.4112H7.38034V15.5455H7.20003L6.92863 15.3106L7.20003 15.0758H7.38034V15.2101H7.23016V15.2648H7.43344V15.0211H7.21482V14.8511H6.94953V14.9998H7.00262V14.9058H7.16172V15.0375L6.88573 15.2763L6.60973 15.0375V14.9058H6.76883V14.9998Z" fill="white"/>
<path fill-rule="evenodd" clip-rule="evenodd" d="M7.18831 4.6001H6.25325V7.6001H7.18831V4.6001ZM5.08442 5.23471H5.66883V6.8501H5.08442V5.23471ZM7.83117 5.23471H8.41558V6.8501H7.83117V5.23471Z" fill="#E8AA00"/>
<path fill-rule="evenodd" clip-rule="evenodd" d="M6.25325 4.83081H5.66883V7.1385H6.25325V4.83081ZM5.08442 5.46543H4.5V6.56158H5.08442V5.46543ZM8.41558 5.46543H9V6.56158H8.41558V5.46543ZM7.77273 4.83081H7.18831V7.1385H7.77273V4.83081Z" fill="#389F5D"/>
<path fill-rule="evenodd" clip-rule="evenodd" d="M6.13636 5.11937C6.13636 5.21495 6.05787 5.29244 5.96104 5.29244C5.86421 5.29244 5.78571 5.21495 5.78571 5.11937C5.78571 5.02378 5.86421 4.94629 5.96104 4.94629C6.05787 4.94629 6.13636 5.02378 6.13636 5.11937ZM4.96753 5.69629C4.96753 5.79188 4.88904 5.86937 4.79221 5.86937C4.69538 5.86937 4.61688 5.79188 4.61688 5.69629C4.61688 5.6007 4.69538 5.52321 4.79221 5.52321C4.88904 5.52321 4.96753 5.6007 4.96753 5.69629ZM4.96753 6.3309C4.96753 6.42649 4.88904 6.50398 4.79221 6.50398C4.69538 6.50398 4.61688 6.42649 4.61688 6.3309C4.61688 6.23532 4.69538 6.15783 4.79221 6.15783C4.88904 6.15783 4.96753 6.23532 4.96753 6.3309ZM5.96104 7.02321C6.05787 7.02321 6.13636 6.94572 6.13636 6.85014C6.13636 6.75455 6.05787 6.67706 5.96104 6.67706C5.86421 6.67706 5.78571 6.75455 5.78571 6.85014C5.78571 6.94572 5.86421 7.02321 5.96104 7.02321ZM8.70779 5.86937C8.80462 5.86937 8.88312 5.79188 8.88312 5.69629C8.88312 5.6007 8.80462 5.52321 8.70779 5.52321C8.61096 5.52321 8.53247 5.6007 8.53247 5.69629C8.53247 5.79188 8.61096 5.86937 8.70779 5.86937ZM8.88312 6.3309C8.88312 6.42649 8.80462 6.50398 8.70779 6.50398C8.61096 6.50398 8.53247 6.42649 8.53247 6.3309C8.53247 6.23532 8.61096 6.15783 8.70779 6.15783C8.80462 6.15783 8.88312 6.23532 8.88312 6.3309ZM7.48052 7.02321C7.57735 7.02321 7.65584 6.94572 7.65584 6.85014C7.65584 6.75455 7.57735 6.67706 7.48052 6.67706C7.38369 6.67706 7.30519 6.75455 7.30519 6.85014C7.30519 6.94572 7.38369 7.02321 7.48052 7.02321ZM7.65584 5.11937C7.65584 5.21495 7.57735 5.29244 7.48052 5.29244C7.38369 5.29244 7.30519 5.21495 7.30519 5.11937C7.30519 5.02378 7.38369 4.94629 7.48052 4.94629C7.57735 4.94629 7.65584 5.02378 7.65584 5.11937Z" fill="#E1E5E8"/>
<path fill-rule="evenodd" clip-rule="evenodd" d="M6.8961 4.88865C6.8961 4.98424 6.81761 5.06173 6.72078 5.06173C6.62395 5.06173 6.54545 4.98424 6.54545 4.88865C6.54545 4.79307 6.62395 4.71558 6.72078 4.71558C6.81761 4.71558 6.8961 4.79307 6.8961 4.88865ZM5.55195 5.52327C5.55195 5.61886 5.47345 5.69635 5.37662 5.69635C5.27979 5.69635 5.2013 5.61886 5.2013 5.52327C5.2013 5.42768 5.27979 5.35019 5.37662 5.35019C5.47345 5.35019 5.55195 5.42768 5.55195 5.52327ZM6.72078 7.5425C6.81761 7.5425 6.8961 7.46501 6.8961 7.36942C6.8961 7.27383 6.81761 7.19635 6.72078 7.19635C6.62395 7.19635 6.54545 7.27383 6.54545 7.36942C6.54545 7.46501 6.62395 7.5425 6.72078 7.5425ZM8.2987 5.52327C8.2987 5.61886 8.2202 5.69635 8.12338 5.69635C8.02655 5.69635 7.94805 5.61886 7.94805 5.52327C7.94805 5.42768 8.02655 5.35019 8.12338 5.35019C8.2202 5.35019 8.2987 5.42768 8.2987 5.52327ZM5.37662 6.73481C5.47345 6.73481 5.55195 6.65732 5.55195 6.56173C5.55195 6.46614 5.47345 6.38865 5.37662 6.38865C5.27979 6.38865 5.2013 6.46614 5.2013 6.56173C5.2013 6.65732 5.27979 6.73481 5.37662 6.73481ZM8.2987 6.56173C8.2987 6.65732 8.2202 6.73481 8.12338 6.73481C8.02655 6.73481 7.94805 6.65732 7.94805 6.56173C7.94805 6.46614 8.02655 6.38865 8.12338 6.38865C8.2202 6.38865 8.2987 6.46614 8.2987 6.56173Z" fill="#C51918"/>
<path fill-rule="evenodd" clip-rule="evenodd" d="M5.70489 5.7936L6.27382 5.27979H7.19758L7.84591 5.86926H8.70779V6.10003H7.86927V6.11207L7.19758 6.79522H6.27382L5.70489 6.17865V6.10003H4.73376V5.86926H5.70489V5.7936Z" fill="#C51918"/>
<path fill-rule="evenodd" clip-rule="evenodd" d="M6.75828 5.70738L7.03456 5.98737L6.74452 6.26211L6.45448 5.98737L6.73075 5.70738L6.74452 5.69468L6.75828 5.70738ZM6.80859 6.3834L6.84094 6.35345L6.80782 6.32208L7.09573 6.04936L7.39601 6.35369L7.26088 6.49621H7.18075L7.0317 6.58997L6.80859 6.3834ZM6.74452 6.44273L6.46764 6.69908L6.28273 6.58275H6.19014L5.97182 6.35249L6.33005 5.98944L5.96951 5.64791L6.20609 5.41834L6.29183 5.4857L6.41589 5.36038L6.3786 5.32259L6.44139 5.26221L6.74452 5.56941L7.04764 5.26221L7.11044 5.32259L7.07314 5.36038L7.1972 5.4857L7.28295 5.41834L7.51953 5.64791L7.15898 5.98944L7.51722 6.35249L7.29889 6.58275H7.2063L7.02139 6.69908L6.74452 6.44273ZM6.89902 5.72599L6.90266 5.72214L6.81964 5.64554L6.80922 5.63498L7.02516 5.43573L7.18984 5.60207L7.27682 5.53374L7.3937 5.64716L7.09781 5.92745L6.89902 5.72599ZM6.71357 6.35273L6.45733 6.58997L6.30829 6.49621H6.22816L6.09302 6.35369L6.39331 6.04936L6.71357 6.35273ZM6.09533 5.64716L6.39122 5.92745L6.67981 5.63498L6.46387 5.43573L6.29919 5.60207L6.21221 5.53374L6.09533 5.64716Z" fill="#E8AA00"/>
<path fill-rule="evenodd" clip-rule="evenodd" d="M4.83627 17.0813C4.6795 16.8823 4.5737 16.748 4.54582 16.75C4.45833 16.7564 4.37627 17.6828 5.51358 18.3877C5.51358 18.3877 5.68146 18.481 5.77924 18.3877C5.87702 18.2943 5.77924 18.157 5.77924 18.157C5.4116 17.8115 5.06817 17.3756 4.83627 17.0813ZM8.66373 17.0813C8.8205 16.8823 8.9263 16.748 8.95418 16.75C9.04167 16.7564 9.12373 17.6828 7.98642 18.3877C7.98642 18.3877 7.81854 18.481 7.72076 18.3877C7.62298 18.2943 7.72076 18.157 7.72076 18.157C8.0884 17.8115 8.43183 17.3756 8.66373 17.0813ZM8.58053 18.3278C8.20681 18.4382 7.77397 18.4613 7.60846 18.3899C7.55567 18.3672 7.49962 18.3493 7.44072 18.3359C7.27607 18.2985 7.11558 18.2982 6.92514 18.3191L6.8548 18.3272L6.84997 18.3278C6.83203 18.3298 6.82168 18.3307 6.8197 18.3307C6.80854 18.3307 6.7963 18.3323 6.78288 18.3354C6.76946 18.3323 6.75723 18.3307 6.74606 18.3307C6.74409 18.3307 6.73373 18.3298 6.7158 18.3278C6.71553 18.3277 6.71379 18.3275 6.71097 18.3272C6.69702 18.3256 6.65687 18.3208 6.64063 18.3191C6.45018 18.2982 6.28969 18.2985 6.12505 18.3359C6.06615 18.3493 6.0101 18.3672 5.9573 18.3899C5.79179 18.4613 5.35896 18.4382 4.98523 18.3278C4.98523 18.3278 5.66531 18.6009 6.06922 18.4799C6.10838 18.463 6.14969 18.4498 6.19316 18.4399C6.30813 18.4138 6.42589 18.4115 6.56756 18.4247C6.50798 18.4525 6.4387 18.4842 6.35813 18.5169V18.55C6.51719 18.4854 6.70359 18.4549 6.78288 18.4455C6.86217 18.4549 7.04857 18.4854 7.20763 18.55V18.5169C7.12706 18.4842 7.05779 18.4525 6.99821 18.4247C7.13987 18.4115 7.25763 18.4138 7.37261 18.4399C7.41607 18.4498 7.45738 18.463 7.49655 18.4799C7.90045 18.6009 8.58053 18.3278 8.58053 18.3278Z" fill="#E8AA00"/>
<path fill-rule="evenodd" clip-rule="evenodd" d="M5.823 8.48291L4.88405 9.31036V10.0984L5.70491 10.9233H7.38099L8.30512 10.0432V9.37223L7.38099 8.48291H5.823Z" fill="#389F5D"/>
<path fill-rule="evenodd" clip-rule="evenodd" d="M6.14602 8.57056H5.93363V8.73462H6.14602V8.57056ZM6.14602 10.7156H5.93363V10.8796H6.14602V10.7156ZM6.4646 10.7156H6.67699V10.8796H6.4646V10.7156ZM6.67699 8.57056H6.4646V8.73462H6.67699V8.57056ZM6.99557 10.7156H7.20796V10.8796H6.99557V10.7156ZM7.20796 8.57056H6.99557V8.73462H7.20796V8.57056Z" fill="#C51918"/>
<path fill-rule="evenodd" clip-rule="evenodd" d="M6.41531 8.52808H6.19912V8.69214H6.41531V8.52808ZM6.41531 10.7156H6.19912V10.8796H6.41531V10.7156ZM6.73961 8.52808H6.95581V8.69214H6.73961V8.52808ZM6.95581 10.7156H6.73961V10.8796H6.95581V10.7156Z" fill="#E8AA00"/>
<path fill-rule="evenodd" clip-rule="evenodd" d="M5.18529 8.38135H8.02031V8.81944H8.42625V10.6305H8.02031V11.0049H5.18529V10.6305H4.74449V8.81944H5.18529V8.38135ZM5.34458 8.9835H4.90378V10.4665H5.34458V10.8409H7.86102V10.4665H8.26696V8.9835H7.86102V8.54541H5.34458V8.9835Z" fill="#750100"/>
<path fill-rule="evenodd" clip-rule="evenodd" d="M6.30531 8.19995H6.03982V8.47339H6.30531V8.19995ZM6.73009 8.19995H6.4646V8.47339H6.73009V8.19995ZM6.88938 8.19995H7.15487V8.47339H6.88938V8.19995ZM6.30531 10.9343H6.03982V11.2078H6.30531V10.9343ZM6.4646 10.9343H6.73009V11.2078H6.4646V10.9343ZM7.15487 10.9343H6.88938V11.2078H7.15487V10.9343ZM4.49603 10.3288V10.0633H4.76946V10.3288H4.49603ZM4.49603 9.6258V9.89129H4.76946V9.6258H4.49603ZM4.49603 9.45379V9.1883H4.76946V9.45379H4.49603ZM8.31903 10.0633V10.3288H8.59247V10.0633H8.31903ZM8.31903 9.89129V9.6258H8.59247V9.89129H8.31903ZM8.31903 9.1883V9.45379H8.59247V9.1883H8.31903Z" fill="#389F5D"/>
<path fill-rule="evenodd" clip-rule="evenodd" d="M5.83377 8.71338L5.37588 9.11164V10.4003L5.75589 10.6693H7.40337L7.78282 10.4003V9.11164L7.35456 8.71338H5.83377Z" fill="#C51918"/>
<path fill-rule="evenodd" clip-rule="evenodd" d="M6.60245 9.24756L6.04994 9.71964H6.60245V9.24756Z" fill="#E1E5E8"/>
<path d="M6.60245 10.1479L6.04994 9.67587H6.60245V10.1479Z" fill="#E8AA00"/>
<path fill-rule="evenodd" clip-rule="evenodd" d="M6.55433 9.24756L7.10684 9.71964H6.55433V9.24756Z" fill="#E8AA00"/>
<path fill-rule="evenodd" clip-rule="evenodd" d="M6.57885 9.84714C6.67127 9.84714 6.74619 9.77222 6.74619 9.67979C6.74619 9.58737 6.67127 9.51245 6.57885 9.51245C6.48643 9.51245 6.41151 9.58737 6.41151 9.67979C6.41151 9.77222 6.48643 9.84714 6.57885 9.84714Z" fill="#29AE66"/>
<path d="M6.55433 10.1479L7.10684 9.67587H6.55433V10.1479Z" fill="#E1E5E8"/>
<path fill-rule="evenodd" clip-rule="evenodd" d="M5.40265 9.51245H4.92478V9.66545H5.40265V9.51245ZM5.40265 9.79136H4.92478V9.94436H5.40265V9.79136ZM7.79203 9.51245H8.26991V9.66545H7.79203V9.51245ZM8.26991 9.79136H7.79203V9.94436H8.26991V9.79136Z" fill="#C51918"/>
<path fill-rule="evenodd" clip-rule="evenodd" d="M5.34956 9.34839H4.92478V9.51573H5.34956V9.34839ZM5.34956 9.62729H4.92478V9.79464H5.34956V9.62729ZM4.92478 9.9062H5.34956V10.0735H4.92478V9.9062ZM8.21681 9.34839H7.79203V9.51573H8.21681V9.34839ZM7.79203 9.62729H8.21681V9.79464H7.79203V9.62729ZM8.21681 9.9062H7.79203V10.0735H8.21681V9.9062Z" fill="#E8AA00"/>
<path fill-rule="evenodd" clip-rule="evenodd" d="M8.98874 2.19266L8.98712 2.49654H6.76793L6.76635 3.87654H6.07049C5.94903 3.87654 5.61598 3.64329 5.61598 3.64329H5.05097L4.79013 3.37682V3.10906L4.51018 2.77666L4.51179 2.47277H6.73098L6.73257 1.09277H7.42842C7.54989 1.09277 7.88293 1.32602 7.88293 1.32602H8.44795L8.70879 1.5925V1.86025L8.98874 2.19266Z" fill="#E8AA00"/>
<path fill-rule="evenodd" clip-rule="evenodd" d="M4.51018 2.19266L4.51179 2.49654H6.73099L6.73257 3.87654H7.42842C7.54989 3.87654 7.88293 3.64329 7.88293 3.64329H8.44795L8.70879 3.37682V3.10906L8.98874 2.77666L8.98713 2.47277H6.76793L6.76635 1.09277H6.07049C5.94903 1.09277 5.61598 1.32602 5.61598 1.32602H5.05097L4.79013 1.5925V1.86025L4.51018 2.19266Z" fill="#E1E5E8"/>
<path fill-rule="evenodd" clip-rule="evenodd" d="M6.00163 1.51398L5.97733 1.39661L6.45603 1.28653C6.5135 1.25878 6.61323 1.17973 6.75059 1.05127L6.81495 1.1237L6.826 1.11127C6.96336 1.23973 7.06309 1.31878 7.12056 1.34653L7.59926 1.45661L7.57496 1.57398L7.30948 1.51914L7.33489 1.54185C7.31664 1.55278 7.2968 1.56871 7.27553 1.58955L7.16345 1.57305L7.17387 1.53514L7.14574 1.53056C7.12512 1.56945 7.10154 1.62509 7.07636 1.69648L6.96427 1.66348L7.00965 1.44606L6.75631 1.20845L6.57882 1.37492C6.6009 1.39493 6.62292 1.41791 6.64497 1.44391C6.62614 1.45107 6.60813 1.4574 6.59095 1.46288L6.58335 1.46469L6.61232 1.60348L6.50023 1.63648C6.4856 1.595 6.47151 1.55884 6.45823 1.52819L6.44899 1.52955C6.42772 1.50871 6.40788 1.49278 6.38963 1.48185L6.42137 1.45348C6.41616 1.44458 6.41118 1.43687 6.40644 1.43036L6.00163 1.51398ZM6.02133 1.94373L6.08525 1.84325L5.75463 1.62158L5.7914 1.57017L5.69719 1.49915L5.65663 1.55587L5.52542 1.4679L5.46151 1.56837L5.58735 1.65274L5.56143 1.68898L5.65565 1.76L5.68536 1.71846L6.02133 1.94373ZM5.61224 2.06373L5.67615 1.96325L5.34554 1.74158L5.38231 1.69017L5.2881 1.61915L5.24753 1.67587L5.11633 1.5879L5.05242 1.68837L5.17826 1.77274L5.15234 1.80898L5.24655 1.88L5.27627 1.83846L5.61224 2.06373ZM5.43692 2.42373L5.50083 2.32325L5.17022 2.10158L5.20699 2.05017L5.11277 1.97915L5.07221 2.03587L4.94101 1.9479L4.87709 2.04837L5.00293 2.13274L4.97701 2.16898L5.07123 2.24L5.10094 2.19846L5.43692 2.42373ZM5.44239 2.71174L5.37848 2.61127L5.0425 2.83654L5.01279 2.79499L4.91857 2.86601L4.94449 2.90225L4.81865 2.98663L4.88256 3.0871L5.01377 2.99913L5.05433 3.05585L5.14854 2.98483L5.11178 2.93341L5.44239 2.71174ZM5.5538 2.97127L5.61771 3.07174L5.2871 3.29341L5.32387 3.34483L5.22965 3.41585L5.18909 3.35913L5.05789 3.4471L4.99398 3.34663L5.11982 3.26225L5.0939 3.22601L5.18811 3.15499L5.21782 3.19654L5.5538 2.97127ZM5.96289 3.09127L6.0268 3.19174L5.69619 3.41341L5.73296 3.46483L5.63874 3.53585L5.59818 3.47913L5.46698 3.5671L5.40307 3.46663L5.52891 3.38225L5.50299 3.34601L5.5972 3.27499L5.62692 3.31654L5.96289 3.09127ZM6.58653 3.66476C6.56769 3.65759 6.54969 3.65127 6.53251 3.64578L6.51026 3.64048L6.55388 3.43152L6.44179 3.39852C6.40598 3.50004 6.37341 3.5697 6.348 3.60464L5.94319 3.52102L5.91889 3.63839L6.38028 3.74449L6.38015 3.74493L6.44688 3.78925L6.45566 3.78377C6.51382 3.82433 6.59323 3.89122 6.69215 3.98373L6.72985 3.94129L6.76755 3.98373C6.90492 3.85527 7.00465 3.77622 7.06212 3.74847L7.07765 3.74489C7.09782 3.76212 7.11807 3.77689 7.13848 3.78925L7.20521 3.74493L7.19846 3.72206L7.2059 3.7154L7.54082 3.63839L7.51651 3.52102L7.11171 3.60464C7.08629 3.5697 7.05373 3.50004 7.01792 3.39852L6.90583 3.43152L6.95121 3.64893L6.72985 3.85655L6.55868 3.696C6.56796 3.68612 6.57724 3.6757 6.58653 3.66476ZM8.01732 2.71174L8.08123 2.61127L8.41721 2.83654L8.44692 2.79499L8.54113 2.86601L8.51522 2.90225L8.64105 2.98663L8.57714 3.0871L8.44594 2.99913L8.40538 3.05585L8.31116 2.98483L8.34793 2.93341L8.01732 2.71174ZM7.84199 3.07174L7.90591 2.97127L8.24188 3.19654L8.27159 3.15499L8.36581 3.22601L8.33989 3.26225L8.46573 3.34663L8.40182 3.4471L8.27061 3.35913L8.23005 3.41585L8.13584 3.34483L8.1726 3.29341L7.84199 3.07174ZM7.4329 3.19174L7.49681 3.09127L7.83279 3.31654L7.8625 3.27499L7.95672 3.34601L7.9308 3.38225L8.05664 3.46663L7.99273 3.5671L7.86152 3.47913L7.82096 3.53585L7.72675 3.46483L7.76351 3.41341L7.4329 3.19174ZM8.07576 2.38325L8.13967 2.48373L8.47565 2.25846L8.50536 2.3L8.59958 2.22898L8.57366 2.19274L8.6995 2.10837L8.63558 2.0079L8.50438 2.09587L8.46382 2.03915L8.3696 2.11017L8.40637 2.16158L8.07576 2.38325ZM7.90044 2.02325L7.96435 2.12373L8.30032 1.89846L8.33004 1.94L8.42425 1.86898L8.39833 1.83274L8.52417 1.74837L8.46026 1.6479L8.32906 1.73587L8.2885 1.67915L8.19428 1.75017L8.23105 1.80158L7.90044 2.02325ZM7.49134 1.90325L7.55526 2.00373L7.89123 1.77846L7.92094 1.82L8.01516 1.74898L7.98924 1.71274L8.11508 1.62837L8.05117 1.5279L7.91996 1.61587L7.8794 1.55915L7.78519 1.63017L7.82196 1.68158L7.49134 1.90325Z" fill="#C51918"/>
<path fill-rule="evenodd" clip-rule="evenodd" d="M6.1557 1.86468L6.8176 1.51367V2.47367H8.45397L8.06405 2.75449V3.12191H7.44693L6.78502 3.47291V2.51291H5.14866L5.53857 2.23209V1.86468H6.1557Z" fill="#C51918"/>
<path fill-rule="evenodd" clip-rule="evenodd" d="M7.44693 1.86468L6.78502 1.51367V2.47367H5.14866L5.53857 2.75449V3.12191H6.1557L6.8176 3.47291V2.51291H8.45397L8.06406 2.23209V1.86468H7.44693Z" fill="#29AE66"/>
<path fill-rule="evenodd" clip-rule="evenodd" d="M5.83416 2.11348L5.94217 1.90063L6.21692 2.04759L6.29262 1.93497L6.48502 2.07128L6.42584 2.15933L7.23907 2.59429L7.2892 2.5197L7.48161 2.65601L7.44799 2.70603L7.53583 2.75302L7.42783 2.96586L7.31419 2.90509L7.22195 3.04232L7.02955 2.90601L7.10528 2.79335L6.29205 2.35839L6.22537 2.45759L6.03297 2.32128L6.08313 2.24664L5.83416 2.11348Z" fill="#29AE66"/>
<path fill-rule="evenodd" clip-rule="evenodd" d="M7.56723 2.0551L7.44464 1.85031L7.1808 2.01607L7.09744 1.909L6.91501 2.0584L6.98019 2.14211L6.19928 2.63274L6.14407 2.56183L5.96164 2.71123L5.99867 2.75878L5.91432 2.81178L6.03691 3.01658L6.14602 2.94802L6.24761 3.07849L6.43004 2.92909L6.34664 2.82198L7.12754 2.33135L7.20098 2.42566L7.38341 2.27626L7.32815 2.20531L7.56723 2.0551Z" fill="#C51918"/>
</g>
<path fill-rule="evenodd" clip-rule="evenodd" d="M15.805 2.5C15.805 2.5 17.5527 6.6412 16 8.39989C14.4473 10.1586 10.5 9.8195 10.5 9.8195C10.5 9.8195 15.5673 12.1082 17.7751 8.9568C19.9829 5.80535 15.805 2.5 15.805 2.5Z" fill="#F7FCFF"/>
<path fill-rule="evenodd" clip-rule="evenodd" d="M12.6332 4.93633L12.1708 5.26181L12.3339 4.71639L11.885 4.37212L12.4482 4.36051L12.6332 3.82227L12.8182 4.36051L13.3814 4.37212L12.9325 4.71639L13.0956 5.26181L12.6332 4.93633ZM12.7227 6.44033L12.2602 6.76581L12.4234 6.22039L11.9745 5.87612L12.5377 5.86451L12.7227 5.32627L12.9076 5.86451L13.4709 5.87612L13.0219 6.22039L13.1851 6.76581L12.7227 6.44033ZM10.8545 6.88197L11.3169 6.55649L11.7793 6.88197L11.6162 6.33655L12.0651 5.99228L11.5019 5.98067L11.3169 5.44243L11.132 5.98067L10.5687 5.99228L11.0176 6.33655L10.8545 6.88197ZM12.7227 8.01793L12.2602 8.34341L12.4234 7.79799L11.9745 7.45372L12.5377 7.44211L12.7227 6.90387L12.9076 7.44211L13.4709 7.45372L13.0219 7.79799L13.1851 8.34341L12.7227 8.01793ZM13.7884 6.30615L14.2509 5.98067L14.7133 6.30615L14.5501 5.76073L14.9991 5.41646L14.4358 5.40485L14.2509 4.86661L14.0659 5.40485L13.5027 5.41646L13.9516 5.76073L13.7884 6.30615Z" fill="#F7FCFF"/>
</g>
</g>
</g>
<rect x="1.75" y="1.25" width="23.5" height="17.5" stroke="black" stroke-opacity="0.1" stroke-width="0.5" shape-rendering="crispEdges"/>
</g>
<defs>
<filter id="filter0_dd_701_19765" x="0" y="0" width="27" height="21" filterUnits="userSpaceOnUse" color-interpolation-filters="sRGB">
<feFlood flood-opacity="0" result="BackgroundImageFix"/>
<feColorMatrix in="SourceAlpha" type="matrix" values="0 0 0 0 0 0 0 0 0 0 0 0 0 0 0 0 0 0 127 0" result="hardAlpha"/>
<feOffset dy="0.5"/>
<feGaussianBlur stdDeviation="0.75"/>
<feComposite in2="hardAlpha" operator="out"/>
<feColorMatrix type="matrix" values="0 0 0 0 0 0 0 0 0 0 0 0 0 0 0 0 0 0 0.1 0"/>
<feBlend mode="multiply" in2="BackgroundImageFix" result="effect1_dropShadow_701_19765"/>
<feColorMatrix in="SourceAlpha" type="matrix" values="0 0 0 0 0 0 0 0 0 0 0 0 0 0 0 0 0 0 127 0" result="hardAlpha"/>
<feOffset/>
<feGaussianBlur stdDeviation="0.5"/>
<feComposite in2="hardAlpha" operator="out"/>
<feColorMatrix type="matrix" values="0 0 0 0 0 0 0 0 0 0 0 0 0 0 0 0 0 0 0.11 0"/>
<feBlend mode="multiply" in2="effect1_dropShadow_701_19765" result="effect2_dropShadow_701_19765"/>
<feBlend mode="normal" in="SourceGraphic" in2="effect2_dropShadow_701_19765" result="shape"/>
</filter>
<clipPath id="clip0_701_19765">
<rect x="1.5" y="1" width="24" height="18" fill="white"/>
</clipPath>
</defs>
</svg>