<svg viewBox="0 0 27 21" fill="none" xmlns="http://www.w3.org/2000/svg">
<g filter="url(#filter0_dd_701_20560)">
<g clip-path="url(#clip0_701_20560)">
<mask id="mask0_701_20560" style="mask-type:alpha" maskUnits="userSpaceOnUse" x="1" y="1" width="25" height="18">
<rect x="1.5" y="1" width="24" height="18" fill="white"/>
</mask>
<g mask="url(#mask0_701_20560)">
<path fill-rule="evenodd" clip-rule="evenodd" d="M1.5 1V19H25.5V1H1.5Z" fill="#3D58DB"/>
<mask id="mask1_701_20560" style="mask-type:alpha" maskUnits="userSpaceOnUse" x="1" y="1" width="25" height="18">
<path fill-rule="evenodd" clip-rule="evenodd" d="M1.5 1V19H25.5V1H1.5Z" fill="white"/>
</mask>
<g mask="url(#mask1_701_20560)">
<path fill-rule="evenodd" clip-rule="evenodd" d="M1.5 19H25.5V1L1.5 19Z" fill="#579D20"/>
<path d="M0.913511 19.5589L-0.439301 17.6868L26.7564 -0.46582L28.1092 1.40625L0.913511 19.5589Z" fill="#FECA00"/>
<path fill-rule="evenodd" clip-rule="evenodd" d="M4.23996 5.90996L5.26264 5.20061L6.33366 5.83825L5.95853 4.69501L6.70755 3.87694H5.69273L5.26264 2.67554L4.83255 3.87694L3.81599 3.9189L4.56675 4.69501L4.23996 5.90996ZM8.4836 5.90996L9.50627 5.20061L10.5773 5.83825L10.2022 4.69501L10.9512 3.87694H9.93636L9.50627 2.67554L9.07619 3.87694L8.05963 3.9189L8.81038 4.69501L8.4836 5.90996Z" fill="#F7FCFF"/>
<path fill-rule="evenodd" clip-rule="evenodd" d="M6.48599 8.09086L7.50867 7.38151L8.57968 8.01915L8.20456 6.87592L8.95358 6.05785H7.93875L7.50867 4.85645L7.07858 6.05785L6.06202 6.09981L6.81277 6.87592L6.48599 8.09086ZM5.26264 9.70054L4.23996 10.4099L4.56675 9.19494L3.81599 8.41883L4.83255 8.37687L5.26264 7.17547L5.69273 8.37687H6.70755L5.95853 9.19494L6.33366 10.3382L5.26264 9.70054ZM9.50627 9.70054L8.4836 10.4099L8.81038 9.19494L8.05963 8.41883L9.07619 8.37687L9.50627 7.17547L9.93636 8.37687H10.9512L10.2022 9.19494L10.5773 10.3382L9.50627 9.70054Z" fill="#F7FCFF"/>
</g>
</g>
</g>
<rect x="1.75" y="1.25" width="23.5" height="17.5" stroke="black" stroke-opacity="0.1" stroke-width="0.5" shape-rendering="crispEdges"/>
</g>
<defs>
<filter id="filter0_dd_701_20560" x="0" y="0" width="27" height="21" filterUnits="userSpaceOnUse" color-interpolation-filters="sRGB">
<feFlood flood-opacity="0" result="BackgroundImageFix"/>
<feColorMatrix in="SourceAlpha" type="matrix" values="0 0 0 0 0 0 0 0 0 0 0 0 0 0 0 0 0 0 127 0" result="hardAlpha"/>
<feOffset dy="0.5"/>
<feGaussianBlur stdDeviation="0.75"/>
<feComposite in2="hardAlpha" operator="out"/>
<feColorMatrix type="matrix" values="0 0 0 0 0 0 0 0 0 0 0 0 0 0 0 0 0 0 0.1 0"/>
<feBlend mode="multiply" in2="BackgroundImageFix" result="effect1_dropShadow_701_20560"/>
<feColorMatrix in="SourceAlpha" type="matrix" values="0 0 0 0 0 0 0 0 0 0 0 0 0 0 0 0 0 0 127 0" result="hardAlpha"/>
<feOffset/>
<feGaussianBlur stdDeviation="0.5"/>
<feComposite in2="hardAlpha" operator="out"/>
<feColorMatrix type="matrix" values="0 0 0 0 0 0 0 0 0 0 0 0 0 0 0 0 0 0 0.11 0"/>
<feBlend mode="multiply" in2="effect1_dropShadow_701_20560" result="effect2_dropShadow_701_20560"/>
<feBlend mode="normal" in="SourceGraphic" in2="effect2_dropShadow_701_20560" result="shape"/>
</filter>
<clipPath id="clip0_701_20560">
<rect x="1.5" y="1" width="24" height="18" fill="white"/>
</clipPath>
</defs>
</svg>