<svg viewBox="0 0 27 21" fill="none" xmlns="http://www.w3.org/2000/svg">
<g filter="url(#filter0_dd_701_21979)">
<g clip-path="url(#clip0_701_21979)">
<mask id="mask0_701_21979" style="mask-type:alpha" maskUnits="userSpaceOnUse" x="1" y="1" width="25" height="18">
<rect x="1.5" y="1" width="24" height="18" fill="white"/>
</mask>
<g mask="url(#mask0_701_21979)">
<path fill-rule="evenodd" clip-rule="evenodd" d="M1.5 13H25.5V19H1.5V13Z" fill="#55BA07"/>
<path fill-rule="evenodd" clip-rule="evenodd" d="M1.5 7H25.5V13H1.5V7Z" fill="#F7FCFF"/>
<path fill-rule="evenodd" clip-rule="evenodd" d="M1.5 1H25.5V7H1.5V1Z" fill="#3D58DB"/>
<path fill-rule="evenodd" clip-rule="evenodd" d="M12.9375 7.18022C12.5455 7.28547 12.3385 7.55638 12.3385 8.03572C12.3385 8.58352 12.6075 9.09769 12.9375 9.36286V7.18022ZM13.875 9.34819C14.1959 9.07936 14.4538 8.57476 14.4538 8.03712C14.4538 7.57157 14.25 7.30187 13.875 7.18996V9.34819ZM13.8434 6.79921C14.4572 6.93555 14.9014 7.35358 14.9014 8.03274C14.9014 8.52672 14.6664 9.12722 14.3021 9.53931L16.1274 11.3296L16.5776 11.1813L17.25 12.2011C17.25 12.2011 15.5506 13 13.4501 13C11.3496 13 9.75 12.2011 9.75 12.2011L10.3224 11.3296L10.7846 11.4811L12.4781 9.57036C12.0978 9.15782 11.8508 8.53927 11.8508 8.03274C11.8508 7.32956 12.3269 6.9063 12.9745 6.7858C13.0458 6.61782 13.2123 6.5 13.4062 6.5C13.6053 6.5 13.7754 6.62412 13.8434 6.79921ZM10.5013 11.7223L10.3111 11.9866H10.6812L10.5013 11.7223ZM10.7181 12.0909L10.3912 12.1567L10.7181 12.2706V12.0909ZM10.8848 11.7102L11.0519 12.1004L11.467 11.9872L11.3847 11.8303L10.8848 11.7102ZM11.7876 12.4884L11.178 12.3682L11.1082 12.2511L11.568 12.151L11.7876 12.4884ZM11.8232 11.93L12.0127 12.2709L12.4293 12.1441L12.3134 11.9912L11.8232 11.93ZM12.1648 12.5564L12.0902 12.4154L12.5513 12.2923L12.8166 12.6166L12.1648 12.5564ZM13.0258 12.3224L13.62 12.1652L13.5469 12.0303H12.7757L13.0258 12.3224ZM13.2388 12.6227L13.1444 12.4768L13.7151 12.2899L14.0179 12.6227H13.2388ZM13.9609 12.0406L14.1434 12.2642L14.6376 12.0929L14.5757 11.9762L13.9609 12.0406ZM15.0335 12.5055L14.3691 12.5793L14.2713 12.4143L14.7738 12.2493L15.0335 12.5055ZM14.9914 11.9327L15.1774 12.1615L15.6235 11.9327L15.4997 11.864L14.9914 11.9327ZM15.3772 12.444L15.2965 12.3202L15.721 12.0655L15.9367 12.3202L15.3772 12.444ZM15.7986 11.7323L16.0681 11.9894L16.3304 11.7323L16.2474 11.6276L15.7986 11.7323ZM16.2259 12.0778L16.4457 11.8604L16.6035 12.0778L16.2259 12.1992V12.0778Z" fill="#1D1D1D"/>
</g>
</g>
<rect x="1.75" y="1.25" width="23.5" height="17.5" stroke="black" stroke-opacity="0.1" stroke-width="0.5" shape-rendering="crispEdges"/>
</g>
<defs>
<filter id="filter0_dd_701_21979" x="0" y="0" width="27" height="21" filterUnits="userSpaceOnUse" color-interpolation-filters="sRGB">
<feFlood flood-opacity="0" result="BackgroundImageFix"/>
<feColorMatrix in="SourceAlpha" type="matrix" values="0 0 0 0 0 0 0 0 0 0 0 0 0 0 0 0 0 0 127 0" result="hardAlpha"/>
<feOffset dy="0.5"/>
<feGaussianBlur stdDeviation="0.75"/>
<feComposite in2="hardAlpha" operator="out"/>
<feColorMatrix type="matrix" values="0 0 0 0 0 0 0 0 0 0 0 0 0 0 0 0 0 0 0.1 0"/>
<feBlend mode="multiply" in2="BackgroundImageFix" result="effect1_dropShadow_701_21979"/>
<feColorMatrix in="SourceAlpha" type="matrix" values="0 0 0 0 0 0 0 0 0 0 0 0 0 0 0 0 0 0 127 0" result="hardAlpha"/>
<feOffset/>
<feGaussianBlur stdDeviation="0.5"/>
<feComposite in2="hardAlpha" operator="out"/>
<feColorMatrix type="matrix" values="0 0 0 0 0 0 0 0 0 0 0 0 0 0 0 0 0 0 0.11 0"/>
<feBlend mode="multiply" in2="effect1_dropShadow_701_21979" result="effect2_dropShadow_701_21979"/>
<feBlend mode="normal" in="SourceGraphic" in2="effect2_dropShadow_701_21979" result="shape"/>
</filter>
<clipPath id="clip0_701_21979">
<rect x="1.5" y="1" width="24" height="18" fill="white"/>
</clipPath>
</defs>
</svg>