<svg width="27" height="21" viewBox="0 0 27 21" fill="none" xmlns="http://www.w3.org/2000/svg">
<g filter="url(#filter0_dd_701_24713)">
<g clip-path="url(#clip0_701_24713)">
<mask id="mask0_701_24713" style="mask-type:alpha" maskUnits="userSpaceOnUse" x="1" y="1" width="25" height="18">
<rect x="1.5" y="1" width="24" height="18" fill="white"/>
</mask>
<g mask="url(#mask0_701_24713)">
<path fill-rule="evenodd" clip-rule="evenodd" d="M1.5 1V19H25.5V1H1.5Z" fill="#FECA00"/>
<mask id="mask1_701_24713" style="mask-type:alpha" maskUnits="userSpaceOnUse" x="1" y="1" width="25" height="18">
<path fill-rule="evenodd" clip-rule="evenodd" d="M1.5 1V19H25.5V1H1.5Z" fill="white"/>
</mask>
<g mask="url(#mask1_701_24713)">
<path fill-rule="evenodd" clip-rule="evenodd" d="M1.5 1V7H25.5V1H1.5Z" fill="#DB501C"/>
<path fill-rule="evenodd" clip-rule="evenodd" d="M1.5 13V19H25.5V13H1.5Z" fill="#5EAA22"/>
<path d="M10.8345 8.46931L10.8618 8.44287L16.2765 13.6514L16.2493 13.6779L10.8345 8.46931Z" fill="#864C26"/>
<path d="M16.666 13.3131L16.6426 13.3428L10.3433 8.71561L10.3666 8.68591L16.666 13.3131Z" fill="#864C26"/>
<path d="M16.7987 12.8513L16.7797 12.8838L9.77249 9.06962L9.79145 9.03711L16.7987 12.8513Z" fill="#A05A2C"/>
<path fill-rule="evenodd" clip-rule="evenodd" d="M10.2013 7.83423L10.732 8.18529L10.7024 8.20552C10.7144 8.21247 10.7269 8.21993 10.7398 8.22789C10.7547 8.23714 10.7652 8.2483 10.7714 8.26111C10.7821 8.22942 10.7818 8.19093 10.7704 8.14504L10.7425 8.03326L10.8054 8.13124C10.9054 8.28693 10.9203 8.39833 10.8425 8.46136C10.7665 8.52293 10.647 8.50687 10.4855 8.41812L10.4198 8.38206L10.4947 8.38319C10.5562 8.38412 10.609 8.37686 10.6531 8.36155L10.6225 8.35334C10.5965 8.34639 10.5773 8.32823 10.5643 8.29976L10.5122 8.33527L10.2013 7.83423ZM9.56501 8.23104L10.1486 8.48461L10.1222 8.51034C10.1358 8.51526 10.15 8.52063 10.1646 8.52648C10.1809 8.53299 10.1932 8.54215 10.2014 8.55368C10.2065 8.52066 10.1995 8.48288 10.1803 8.43978L10.1334 8.33454L10.2124 8.4201C10.3379 8.55607 10.3719 8.66319 10.3062 8.73877C10.2421 8.8126 10.1216 8.81754 9.94713 8.75818L9.87623 8.73406L9.95017 8.72217C10.0111 8.71238 10.0619 8.69601 10.1027 8.67319L10.0709 8.6704C10.0436 8.66802 10.0213 8.653 10.0033 8.6264L9.95819 8.67048L9.56501 8.23104ZM9.60343 8.83987L9 8.63812L9.42999 9.04163L9.47102 8.9939C9.49131 9.01922 9.51506 9.03243 9.54259 9.03243H9.57466C9.53595 9.05878 9.48672 9.07954 9.42683 9.09463L9.35421 9.11291L9.42694 9.13076C9.60593 9.17468 9.72555 9.15926 9.783 9.08012C9.84182 8.99911 9.79861 8.89536 9.66172 8.77085L9.57558 8.6925L9.63146 8.79324C9.65431 8.83445 9.66456 8.87144 9.66247 8.90474C9.65321 8.89399 9.64023 8.88595 9.62343 8.88089C9.60805 8.87626 9.59324 8.87206 9.57899 8.8683L9.60343 8.83987ZM9.53744 8.85823L9.53806 8.8575L9.15148 8.72825L9.42695 8.98676L9.44963 8.96038C9.44556 8.95254 9.44167 8.94409 9.43795 8.93504L9.44051 8.93406L9.42213 8.91427L9.49605 8.85023L9.50536 8.85187C9.51565 8.85367 9.52635 8.85579 9.53744 8.85823Z" fill="#E7E7E7"/>
<path fill-rule="evenodd" clip-rule="evenodd" d="M11.6035 13.1599L12.2295 12.0433L13.1077 12.2798L12.4757 13.2989H12.2295V13.41L11.6035 13.1599Z" fill="#925229"/>
<path fill-rule="evenodd" clip-rule="evenodd" d="M11.3351 8.86658L10.9208 9.29721L10.77 12.1428L12.2631 12.3605C12.2631 12.3605 11.6125 11.7893 11.5166 11.4367C11.4206 11.0842 11.39 9.76804 11.5715 9.56793L11.7132 9.65067L11.8272 9.31208" fill="#FFE000"/>
<path fill-rule="evenodd" clip-rule="evenodd" d="M9.89191 9.06054C9.89191 9.06054 9.73145 11.2825 9.73145 11.6728C9.73145 12.063 10.0628 12.9923 10.818 12.9923C11.5732 12.9923 12.6096 12.5765 12.6096 12.4069C12.6096 12.2374 12.3002 12.1159 12.3002 12.1159C12.3002 12.1159 10.9113 12.2109 10.9113 11.6728C10.9113 11.1347 11.0056 9.5419 11.0881 9.3541C11.1705 9.16629 11.4563 8.88308 11.4563 8.88308L10.9113 8.47803L10.818 8.88308L10.4685 8.76418L10.3619 9.3541L9.89191 9.06054Z" fill="#D52C1E"/>
<path fill-rule="evenodd" clip-rule="evenodd" d="M11.8324 9.30713L11.732 9.6214L11.5291 9.53581C11.5291 9.53581 11.2258 10.9579 11.5291 11.5537C11.8324 12.1494 12.5962 12.1927 12.5962 12.1927L12.2735 9.6214L11.8324 9.30713Z" fill="#027934"/>
<path fill-rule="evenodd" clip-rule="evenodd" d="M11.7878 11.2288L11.06 11.8044C11.06 11.8044 10.8603 12.0905 11.06 12.3071C11.2596 12.5237 11.813 12.7446 11.9436 12.4831C12.0742 12.2216 12.4621 11.9153 12.4621 11.9153L11.7878 11.2288Z" fill="#E8A30C"/>
<path fill-rule="evenodd" clip-rule="evenodd" d="M12.3591 9.05693C12.5362 8.90298 12.6249 8.71514 12.5573 8.63737C12.4898 8.55961 12.2914 8.62137 12.1143 8.77532C11.9372 8.92927 11.8484 9.11712 11.916 9.19488C11.9836 9.27265 12.182 9.21088 12.3591 9.05693Z" fill="#E1E5E8"/>
<path fill-rule="evenodd" clip-rule="evenodd" d="M11.9125 7.97755C11.9125 7.97755 11.8412 7.96295 11.8089 7.95806C11.5787 7.92316 11.4636 7.97011 11.4636 8.0989C11.4636 8.31915 11.6103 8.55699 11.6103 8.72335C11.6103 8.88971 11.6175 9.14864 11.688 9.01917C11.7586 8.88971 12.1176 8.50055 12.1176 8.50055L11.9125 8.16299C11.9125 8.16299 12.4216 8.22025 12.1981 8.0989" fill="#D52C1E"/>
<path fill-rule="evenodd" clip-rule="evenodd" d="M13.4775 12.5337L13.0957 12.5298C12.8122 12.8101 12.786 13.1873 13.0092 13.6428C13.0092 13.6428 13.0825 13.7487 13.1081 13.7388C13.144 13.7249 13.1939 13.5715 13.1939 13.5715C13.1769 13.1267 13.4605 12.8321 13.4775 12.5337Z" fill="#D52C1E"/>
<path fill-rule="evenodd" clip-rule="evenodd" d="M12.9939 12.5453L13.1312 12.4814C13.2665 12.7626 13.1987 13.0536 12.9376 13.3427L12.824 13.2437C12.9376 12.9121 12.9376 12.7747 12.9939 12.5453Z" fill="#FFE000"/>
<path d="M12.8186 12.5362L12.9618 12.4943C13.0307 12.7297 12.9963 12.9726 12.861 13.219L12.7302 13.1472C12.8471 12.9341 12.8758 12.7318 12.8186 12.5362Z" fill="#027934"/>
<path d="M16.1655 8.46931L16.1382 8.44287L10.7235 13.6514L10.7507 13.6779L16.1655 8.46931Z" fill="#864C26"/>
<path d="M10.334 13.3131L10.3574 13.3428L16.6567 8.71561L16.6334 8.68591L10.334 13.3131Z" fill="#864C26"/>
<path d="M10.2013 12.8513L10.2203 12.8838L17.2275 9.06962L17.2085 9.03711L10.2013 12.8513Z" fill="#A05A2C"/>
<path fill-rule="evenodd" clip-rule="evenodd" d="M16.7987 7.83423L16.268 8.18529L16.2976 8.20552C16.2856 8.21247 16.2731 8.21993 16.2602 8.22789C16.2453 8.23714 16.2348 8.2483 16.2286 8.26111C16.2179 8.22942 16.2182 8.19093 16.2296 8.14504L16.2575 8.03326L16.1946 8.13124C16.0946 8.28693 16.0797 8.39833 16.1575 8.46136C16.2335 8.52293 16.353 8.50687 16.5145 8.41812L16.5802 8.38206L16.5053 8.38319C16.4438 8.38412 16.391 8.37686 16.3469 8.36155L16.3775 8.35334C16.4035 8.34639 16.4227 8.32823 16.4357 8.29976L16.4878 8.33527L16.7987 7.83423ZM17.435 8.23104L16.8514 8.48461L16.8778 8.51034C16.8642 8.51526 16.85 8.52063 16.8354 8.52648C16.8191 8.53299 16.8068 8.54215 16.7986 8.55368C16.7935 8.52066 16.8005 8.48288 16.8197 8.43978L16.8666 8.33454L16.7876 8.4201C16.6621 8.55607 16.6281 8.66319 16.6938 8.73877C16.7579 8.8126 16.8784 8.81754 17.0529 8.75818L17.1238 8.73406L17.0498 8.72217C16.9889 8.71238 16.9381 8.69601 16.8973 8.67319L16.9291 8.6704C16.9564 8.66802 16.9787 8.653 16.9967 8.6264L17.0418 8.67048L17.435 8.23104ZM17.3966 8.83987L18 8.63812L17.57 9.04163L17.529 8.9939C17.5087 9.01922 17.4849 9.03243 17.4574 9.03243H17.4253C17.4641 9.05878 17.5133 9.07954 17.5732 9.09463L17.6458 9.11291L17.5731 9.13076C17.3941 9.17468 17.2744 9.15926 17.217 9.08012C17.1582 8.99911 17.2014 8.89536 17.3383 8.77085L17.4244 8.6925L17.3685 8.79324C17.3457 8.83445 17.3354 8.87144 17.3375 8.90474C17.3468 8.89399 17.3598 8.88595 17.3766 8.88089C17.3919 8.87626 17.4068 8.87206 17.421 8.8683L17.3966 8.83987ZM17.4626 8.85823L17.4619 8.8575L17.8485 8.72825L17.5731 8.98676L17.5504 8.96038C17.5544 8.95254 17.5583 8.94409 17.562 8.93504L17.5595 8.93406L17.5779 8.91427L17.5039 8.85023L17.4946 8.85187C17.4843 8.85367 17.4737 8.85579 17.4626 8.85823Z" fill="#E7E7E7"/>
<path fill-rule="evenodd" clip-rule="evenodd" d="M15.3965 13.1599L14.7705 12.0433L13.8923 12.2798L14.5243 13.2989H14.7705V13.41L15.3965 13.1599Z" fill="#925229"/>
<path fill-rule="evenodd" clip-rule="evenodd" d="M15.6649 8.86646L16.0792 9.29708L16.23 12.1427L14.7369 12.3604C14.7369 12.3604 15.3875 11.7891 15.4834 11.4366C15.5794 11.084 15.61 9.76792 15.4285 9.56781L15.2868 9.65055L15.1728 9.31196" fill="#FFE000"/>
<path fill-rule="evenodd" clip-rule="evenodd" d="M17.1081 9.06054C17.1081 9.06054 17.2686 11.2825 17.2686 11.6728C17.2686 12.063 16.9372 12.9923 16.182 12.9923C15.4268 12.9923 14.3904 12.5765 14.3904 12.4069C14.3904 12.2374 14.6998 12.1159 14.6998 12.1159C14.6998 12.1159 16.0887 12.2109 16.0887 11.6728C16.0887 11.1347 15.9944 9.5419 15.9119 9.3541C15.8295 9.16629 15.5437 8.88308 15.5437 8.88308L16.0887 8.47803L16.182 8.88308L16.5315 8.76418L16.6381 9.3541L17.1081 9.06054Z" fill="#D52C1E"/>
<path fill-rule="evenodd" clip-rule="evenodd" d="M15.1676 9.30713L15.268 9.6214L15.4709 9.53581C15.4709 9.53581 15.7742 10.9579 15.4709 11.5537C15.1676 12.1494 14.4038 12.1927 14.4038 12.1927L14.7265 9.6214L15.1676 9.30713Z" fill="#027934"/>
<path fill-rule="evenodd" clip-rule="evenodd" d="M15.2122 11.2286L15.94 11.8043C15.94 11.8043 16.1397 12.0904 15.94 12.307C15.7404 12.5236 15.187 12.7444 15.0564 12.483C14.9258 12.2215 14.5379 11.9152 14.5379 11.9152L15.2122 11.2286Z" fill="#E8A30C"/>
<path fill-rule="evenodd" clip-rule="evenodd" d="M14.6409 9.05693C14.4638 8.90298 14.3751 8.71514 14.4427 8.63737C14.5102 8.55961 14.7086 8.62137 14.8857 8.77532C15.0628 8.92927 15.1516 9.11712 15.084 9.19488C15.0164 9.27265 14.818 9.21088 14.6409 9.05693Z" fill="#E1E5E8"/>
<path fill-rule="evenodd" clip-rule="evenodd" d="M13.5225 12.5337L13.9043 12.5298C14.1878 12.8101 14.214 13.1873 13.9908 13.6428C13.9908 13.6428 13.9175 13.7487 13.8919 13.7388C13.856 13.7249 13.8061 13.5715 13.8061 13.5715C13.8231 13.1267 13.5395 12.8321 13.5225 12.5337Z" fill="#D52C1E"/>
<path fill-rule="evenodd" clip-rule="evenodd" d="M14.0061 12.5453L13.8688 12.4814C13.7335 12.7626 13.8013 13.0536 14.0624 13.3427L14.176 13.2437C14.0624 12.9121 14.0624 12.7747 14.0061 12.5453Z" fill="#FFE000"/>
<path d="M14.1814 12.5362L14.0382 12.4943C13.9693 12.7297 14.0037 12.9726 14.139 13.219L14.2698 13.1472C14.1529 12.9341 14.1242 12.7318 14.1814 12.5362Z" fill="#027934"/>
<path fill-rule="evenodd" clip-rule="evenodd" d="M11.6652 10.6157C11.6652 11.695 12.4622 12.5933 13.4807 12.5933C14.4991 12.5933 15.2961 11.695 15.2961 10.6157C15.2961 9.53631 14.4991 8.63806 13.4807 8.63806C12.4622 8.63806 11.6652 9.53631 11.6652 10.6157ZM14.8712 10.6157C14.8712 11.4812 14.2487 12.1828 13.4807 12.1828C12.7127 12.1828 12.0901 11.4812 12.0901 10.6157C12.0901 9.75015 12.7127 9.04851 13.4807 9.04851C14.2487 9.04851 14.8712 9.75015 14.8712 10.6157Z" fill="#00A6DE"/>
<path fill-rule="evenodd" clip-rule="evenodd" d="M13.4807 12.1828C14.2487 12.1828 14.8712 11.4811 14.8712 10.6156C14.8712 9.75011 14.2487 9.04846 13.4807 9.04846C12.7127 9.04846 12.0901 9.75011 12.0901 10.6156C12.0901 11.4811 12.7127 12.1828 13.4807 12.1828Z" fill="#FFC036"/>
<mask id="mask2_701_24713" style="mask-type:alpha" maskUnits="userSpaceOnUse" x="12" y="9" width="3" height="4">
<path fill-rule="evenodd" clip-rule="evenodd" d="M13.4807 12.1828C14.2487 12.1828 14.8712 11.4811 14.8712 10.6156C14.8712 9.75011 14.2487 9.04846 13.4807 9.04846C12.7127 9.04846 12.0901 9.75011 12.0901 10.6156C12.0901 11.4811 12.7127 12.1828 13.4807 12.1828Z" fill="white"/>
</mask>
<g mask="url(#mask2_701_24713)">
<path fill-rule="evenodd" clip-rule="evenodd" d="M13.4807 10.3358L13.3002 10.7079L13.3047 10.297L12.9749 10.5566L13.1636 10.1883L12.7499 10.284L13.0853 10.0312L12.6695 9.94398L13.0853 9.8568L12.7499 9.604L13.1636 9.6997L12.9749 9.33135L13.3047 9.59099L13.3002 9.18005L13.4807 9.55219L13.6612 9.18005L13.6567 9.59099L13.9864 9.33135L13.7978 9.6997L14.2115 9.604L13.8761 9.8568L14.2918 9.94398L13.8761 10.0312L14.2115 10.284L13.7978 10.1883L13.9864 10.5566L13.6567 10.297L13.6612 10.7079L13.4807 10.3358Z" fill="#D52C1E"/>
<path fill-rule="evenodd" clip-rule="evenodd" d="M12.0309 10.7058C12.0309 10.7058 13.1183 9.94006 13.3855 9.94006C13.6526 9.94006 14.7923 10.71 15.0254 10.8147C15.2585 10.9194 15.0254 12.9731 15.0254 12.9731H11.9407L12.0309 10.7058Z" fill="#027934"/>
</g>
<path fill-rule="evenodd" clip-rule="evenodd" d="M12.0228 9.79433L12.0899 9.8314C12.4563 9.21303 12.9225 8.90635 13.4911 8.90635C14.1278 8.94178 14.6046 9.2893 14.9229 9.95376L14.993 9.92242C14.6633 9.23412 14.1623 8.86894 13.4934 8.83179C12.8924 8.83173 12.4021 9.15426 12.0228 9.79433ZM11.7528 10.9869L11.8777 10.903L12.0026 10.9869L11.9585 10.8462L12.0797 10.7575L11.9276 10.7545L11.8777 10.6156L11.8277 10.7545L11.6756 10.7575L11.7969 10.8462L11.7528 10.9869ZM12.0322 11.4627L11.9073 11.5466L11.9514 11.4059L11.8301 11.3172L11.9822 11.3142L12.0322 11.1753L12.0821 11.3142L12.2342 11.3172L12.113 11.4059L12.1571 11.5466L12.0322 11.4627ZM12.2163 11.9944L12.3412 11.9104L12.4661 11.9944L12.422 11.8537L12.5432 11.7649L12.3911 11.7619L12.3412 11.6231L12.2912 11.7619L12.1391 11.7649L12.2604 11.8537L12.2163 11.9944ZM12.8047 12.2836L12.6798 12.3675L12.7239 12.2268L12.6027 12.138L12.7548 12.1351L12.8047 11.9962L12.8547 12.1351L13.0068 12.138L12.8855 12.2268L12.9296 12.3675L12.8047 12.2836ZM13.3365 12.5541L13.4614 12.4701L13.5862 12.5541L13.5422 12.4134L13.6634 12.3246L13.5113 12.3216L13.4614 12.1828L13.4114 12.3216L13.2593 12.3246L13.3805 12.4134L13.3365 12.5541ZM15.0837 10.903L15.2086 10.9869L15.1645 10.8462L15.2857 10.7575L15.1336 10.7545L15.0837 10.6156L15.0337 10.7545L14.8816 10.7575L15.0029 10.8462L14.9588 10.9869L15.0837 10.903ZM15.0541 11.5466L14.9292 11.4627L14.8043 11.5466L14.8484 11.4059L14.7271 11.3172L14.8792 11.3142L14.9292 11.1753L14.9791 11.3142L15.1312 11.3172L15.01 11.4059L15.0541 11.5466ZM14.6202 11.9104L14.745 11.9944L14.701 11.8537L14.8222 11.7649L14.6701 11.7619L14.6202 11.6231L14.5702 11.7619L14.4181 11.7649L14.5393 11.8537L14.4953 11.9944L14.6202 11.9104ZM14.2815 12.3675L14.1566 12.2836L14.0318 12.3675L14.0758 12.2268L13.9546 12.138L14.1067 12.1351L14.1566 11.9962L14.2066 12.1351L14.3587 12.138L14.2375 12.2268L14.2815 12.3675Z" fill="#FFC036"/>
<path d="M12.5125 6.25525L12.6616 6.36371C12.2795 6.70653 12.2077 7.08882 12.2809 7.41724C12.3571 7.7594 12.6959 8.12438 13.3119 8.49918L13.0854 8.84647C12.382 8.41849 11.977 8.02247 11.8719 7.55086C11.7638 7.06551 12.0292 6.68891 12.5125 6.25525Z" fill="#036A2D"/>
<path d="M14.54 6.25525L14.3909 6.36371C14.773 6.70653 14.8448 7.08882 14.7716 7.41724C14.6954 7.7594 14.3566 8.12438 13.7407 8.49918L13.9671 8.84647C14.6705 8.41849 15.0755 8.02247 15.1806 7.55086C15.2887 7.06551 15.0233 6.68891 14.54 6.25525Z" fill="#036A2D"/>
<path fill-rule="evenodd" clip-rule="evenodd" d="M11.0813 7.64619C11.0813 7.64619 11.7334 7.19535 12.0428 7.19535C12.3522 7.19535 12.7652 7.09208 12.8299 7.32927C12.8947 7.56647 13.017 7.49778 13.2567 7.49778C13.4963 7.49778 13.9672 7.49778 13.9672 7.49778C13.9672 7.49778 13.8266 7.19535 14.0872 7.19535C14.3479 7.19535 15.4364 7.34936 15.765 7.49778C16.0936 7.64619 16.1101 7.73393 16.1101 7.73393C16.1101 7.73393 15.8061 7.55845 15.4696 7.64619C15.1332 7.73393 14.5231 8.12022 14.2452 8.12022C13.9672 8.12022 13.7448 8.41883 13.7448 8.41883C13.7448 8.41883 13.7631 8.26577 13.5099 8.3423C13.2567 8.41883 13.2626 8.77934 13.0463 8.71315C12.8299 8.64696 13.1086 8.12022 13.0463 8.12022C12.9839 8.12022 12.5422 7.94709 12.5422 7.94709C12.5422 7.94709 12.1136 7.55845 11.4771 7.64619C10.8406 7.73393 11.0813 7.64619 11.0813 7.64619Z" fill="#452C24"/>
<path fill-rule="evenodd" clip-rule="evenodd" d="M13.4035 7.96648C13.5314 7.96648 13.6352 7.8746 13.6352 7.76125C13.6352 7.64791 13.5314 7.55603 13.4035 7.55603C13.2755 7.55603 13.1717 7.64791 13.1717 7.76125C13.1717 7.8746 13.2755 7.96648 13.4035 7.96648Z" fill="#E7E7E7"/>
<path fill-rule="evenodd" clip-rule="evenodd" d="M12.9028 7.75536C12.9028 7.75536 12.9777 7.61365 13.1263 7.61365C13.2748 7.61365 13.5533 7.61365 13.5533 7.68451C13.5533 7.75536 13.5757 7.84793 13.351 7.84793C13.1263 7.84793 13.2702 7.75536 13.1263 7.75536C12.9823 7.75536 12.9028 7.75536 12.9028 7.75536Z" fill="#E8A30C"/>
<path fill-rule="evenodd" clip-rule="evenodd" d="M15.5523 8.71249C15.6386 8.62207 15.6869 8.40277 15.6869 8.40277C15.6869 8.40277 15.3012 8.4645 15.2115 8.40277C15.1217 8.34105 15.0751 8.16016 15.0751 8.16016C15.0751 8.16016 14.7277 8.31891 14.8602 8.31891C14.9927 8.31891 15.0751 8.43632 15.0751 8.43632L15.3447 8.53565C15.3447 8.53565 15.1657 8.71249 15.2552 8.71249C15.3447 8.71249 15.4659 8.80292 15.5523 8.71249Z" fill="#E1E5E8"/>
<path d="M14.8731 8.7879L14.8245 8.72989L15.1633 8.46472L15.2118 8.52273L14.8731 8.7879Z" fill="#925229"/>
</g>
</g>
</g>
<rect x="1.75" y="1.25" width="23.5" height="17.5" stroke="black" stroke-opacity="0.1" stroke-width="0.5" shape-rendering="crispEdges"/>
</g>
<defs>
<filter id="filter0_dd_701_24713" x="0" y="0" width="27" height="21" filterUnits="userSpaceOnUse" color-interpolation-filters="sRGB">
<feFlood flood-opacity="0" result="BackgroundImageFix"/>
<feColorMatrix in="SourceAlpha" type="matrix" values="0 0 0 0 0 0 0 0 0 0 0 0 0 0 0 0 0 0 127 0" result="hardAlpha"/>
<feOffset dy="0.5"/>
<feGaussianBlur stdDeviation="0.75"/>
<feComposite in2="hardAlpha" operator="out"/>
<feColorMatrix type="matrix" values="0 0 0 0 0 0 0 0 0 0 0 0 0 0 0 0 0 0 0.1 0"/>
<feBlend mode="multiply" in2="BackgroundImageFix" result="effect1_dropShadow_701_24713"/>
<feColorMatrix in="SourceAlpha" type="matrix" values="0 0 0 0 0 0 0 0 0 0 0 0 0 0 0 0 0 0 127 0" result="hardAlpha"/>
<feOffset/>
<feGaussianBlur stdDeviation="0.5"/>
<feComposite in2="hardAlpha" operator="out"/>
<feColorMatrix type="matrix" values="0 0 0 0 0 0 0 0 0 0 0 0 0 0 0 0 0 0 0.11 0"/>
<feBlend mode="multiply" in2="effect1_dropShadow_701_24713" result="effect2_dropShadow_701_24713"/>
<feBlend mode="normal" in="SourceGraphic" in2="effect2_dropShadow_701_24713" result="shape"/>
</filter>
<clipPath id="clip0_701_24713">
<rect x="1.5" y="1" width="24" height="18" fill="white"/>
</clipPath>
</defs>
</svg>
