<svg viewBox="0 0 27 21" fill="none" xmlns="http://www.w3.org/2000/svg">
<g filter="url(#filter0_dd_701_24823)">
<g clip-path="url(#clip0_701_24823)">
<mask id="mask0_701_24823" style="mask-type:alpha" maskUnits="userSpaceOnUse" x="1" y="1" width="25" height="18">
<rect x="1.5" y="1" width="24" height="18" fill="white"/>
</mask>
<g mask="url(#mask0_701_24823)">
<path fill-rule="evenodd" clip-rule="evenodd" d="M1.5 1V19H25.5V1H1.5Z" fill="#FFD221"/>
<mask id="mask1_701_24823" style="mask-type:alpha" maskUnits="userSpaceOnUse" x="1" y="1" width="25" height="18">
<path fill-rule="evenodd" clip-rule="evenodd" d="M1.5 1V19H25.5V1H1.5Z" fill="white"/>
</mask>
<g mask="url(#mask1_701_24823)">
<path d="M-0.800232 8.96141L0.705761 5.5271L26.8258 16.9811L25.3198 20.4154L-0.800232 8.96141Z" fill="#313131"/>
<path d="M-0.762939 5.17714L0.742422 1.74255L28.1614 13.7601L26.656 17.1947L-0.762939 5.17714Z" fill="#FAF9F9"/>
<path fill-rule="evenodd" clip-rule="evenodd" d="M6.99812 10.298C5.93419 8.99244 6.11206 8.10938 6.11206 8.10938C6.11206 8.10938 7.20088 8.14917 7.18874 8.85128C7.18874 9.14796 7.57928 9.42878 7.91574 9.67072C8.17035 9.85379 8.39399 10.0146 8.39399 10.1432C8.39399 10.4416 8.6187 13.4505 8.6187 13.4505C8.6187 13.4505 8.46175 13.7244 7.70998 13.7244C6.95822 13.7244 6.99812 13.2914 6.99812 13.2914C7.45388 12.7326 6.99812 10.298 6.99812 10.298ZM20.0022 10.298C21.0662 8.99244 20.8883 8.10938 20.8883 8.10938C20.8883 8.10938 19.7995 8.14917 19.8116 8.85128C19.8116 9.14796 19.4211 9.42878 19.0846 9.67072C18.83 9.85379 18.6064 10.0146 18.6064 10.1432C18.6064 10.4416 18.3817 13.4505 18.3817 13.4505C18.3817 13.4505 18.5386 13.7244 19.2904 13.7244C20.0421 13.7244 20.0022 13.2914 20.0022 13.2914C19.5465 12.7326 20.0022 10.298 20.0022 10.298Z" fill="#CF1225"/>
<path fill-rule="evenodd" clip-rule="evenodd" d="M13.5598 0.874756L14.6866 1.67911L13.9482 1.87639L14.6866 2.5146L13.7673 2.28171V2.92648H14.6866L14.994 4.43788L14.6382 4.18554L14.2825 4.43788L13.9267 4.18554L13.571 4.43788L13.2045 4.18554L12.8381 4.43788L12.4716 4.18554L12.1051 4.43788L12.5667 2.92648H13.4174V0.874756H13.5598ZM18.5851 5.9514C18.5851 5.9514 18.2416 6.25501 17.505 5.9514C17.259 5.84997 16.9892 5.67264 16.7078 5.48764C16.1469 5.11883 15.5395 4.71953 14.9807 4.83027C14.1416 4.99655 13.7687 5.39703 13.7687 5.39703V4.47467H13.667H13.5094H13.4077V5.39703C13.4077 5.39703 13.0348 4.99655 12.1957 4.83027C11.637 4.71953 11.0296 5.11883 10.4686 5.48764C10.1872 5.67264 9.91748 5.84997 9.67142 5.9514C8.93481 6.25501 8.5914 5.9514 8.5914 5.9514C8.5914 5.9514 8.5914 6.20842 9.13899 6.60425C9.37656 6.77598 9.64821 6.76362 9.87965 6.69457C9.70824 6.82389 9.62516 6.97582 9.89835 7.09756C10.4645 7.34986 11.395 6.68586 11.4971 6.61104C11.3834 6.69555 10.2587 7.54136 10.7742 7.54136C11.3168 7.54136 12.1957 6.83037 12.1957 6.83037C12.1957 6.83037 11.1292 7.85369 11.703 8.01311C12.0682 8.11459 12.5043 7.58235 12.7093 7.26706C12.7159 7.33407 12.7774 7.37508 12.8445 7.41976C12.9305 7.47702 13.0255 7.5403 13.0255 7.67204C13.0255 7.84091 13.0674 7.86989 13.1041 7.8953C13.1328 7.91514 13.1583 7.9328 13.1583 8.01311V8.24642L13.0255 8.44234C13.0255 8.44234 13.0255 8.7471 13.1583 8.98934C13.259 9.17282 13.2072 9.32711 13.1184 9.59152C13.0899 9.6762 13.0577 9.77217 13.0255 9.88402C12.8927 10.3451 13.1583 11.1326 13.1583 11.1326H13.0255C13.0255 11.1326 13.1583 11.2296 13.1583 11.6179C13.1583 11.9341 13.0703 12.1137 12.9039 12.4528C12.866 12.5302 12.824 12.6159 12.778 12.7134C12.5305 13.2382 13.0255 13.9055 13.0255 13.9055C13.0255 13.9055 12.1957 13.5414 12.3621 13.9055C12.4898 14.1852 13.1909 14.4572 13.5094 14.5685V14.621C13.5094 14.621 13.5386 14.612 13.5882 14.5954C13.6379 14.612 13.667 14.621 13.667 14.621V14.5685C13.9856 14.4572 14.6866 14.1852 14.8144 13.9055C14.9807 13.5414 14.1509 13.9055 14.1509 13.9055C14.1509 13.9055 14.646 13.2382 14.3985 12.7134C14.3525 12.6159 14.3105 12.5302 14.2725 12.4528L14.2725 12.4528C14.1062 12.1137 14.0181 11.9341 14.0181 11.6179C14.0181 11.2296 14.1509 11.1326 14.1509 11.1326H14.0181C14.0181 11.1326 14.2838 10.3451 14.1509 9.88402C14.1187 9.77217 14.0865 9.6762 14.0581 9.59152C13.9693 9.32711 13.9175 9.17282 14.0181 8.98934C14.1509 8.7471 14.1509 8.44234 14.1509 8.44234L14.0181 8.24642V8.01311C14.0181 7.9328 14.0436 7.91514 14.0723 7.8953C14.109 7.86989 14.1509 7.84091 14.1509 7.67204C14.1509 7.5403 14.246 7.47702 14.3319 7.41976C14.399 7.37508 14.4606 7.33407 14.4672 7.26706C14.6721 7.58235 15.1082 8.11459 15.4734 8.01311C16.0472 7.85369 14.9807 6.83037 14.9807 6.83037C14.9807 6.83037 15.8597 7.54136 16.4023 7.54136C16.9178 7.54136 15.7931 6.69554 15.6794 6.61104C15.7814 6.68586 16.712 7.34986 17.2781 7.09756C17.5513 6.97582 17.4682 6.82389 17.2968 6.69457C17.5282 6.76362 17.7999 6.77598 18.0375 6.60425C18.5851 6.20842 18.5851 5.9514 18.5851 5.9514ZM16.7612 6.41784C16.7612 6.41784 16.9948 6.60447 17.2968 6.69457C17.092 6.54008 16.7612 6.41784 16.7612 6.41784ZM14.3985 7.09756C14.3085 6.97772 14.3501 7.08702 14.4672 7.26706C14.4714 7.22395 14.4529 7.17009 14.3985 7.09756ZM12.778 7.09756C12.868 6.97772 12.8263 7.08702 12.7093 7.26706C12.705 7.22395 12.7236 7.17009 12.778 7.09756ZM11.5062 6.60425C11.5062 6.60425 11.5031 6.60662 11.4971 6.61104C11.503 6.60659 11.5062 6.60425 11.5062 6.60425ZM10.4152 6.41784C10.4152 6.41784 10.1817 6.60447 9.87965 6.69457C10.0844 6.54008 10.4152 6.41784 10.4152 6.41784Z" fill="#CF1225"/>
<path fill-rule="evenodd" clip-rule="evenodd" d="M8.72926 7.578C8.72926 7.578 7.53562 9.20162 7.66845 10.9364C7.80129 12.6712 9.2167 16.7074 13.4157 16.7074C13.4518 16.7074 13.4877 16.7064 13.5234 16.7064C17.9728 16.7064 19.2358 12.2561 19.2358 10.6558C19.2358 9.04162 18.2291 7.578 18.2291 7.578C18.2291 7.578 18.3467 9.74401 18.2291 10.6558C17.8743 13.4063 16.1415 14.6768 13.4936 14.6768C10.8293 14.6768 9.18063 13.3583 8.72926 10.6558C8.58332 9.78206 8.72926 7.578 8.72926 7.578Z" fill="#CF1225"/>
<path fill-rule="evenodd" clip-rule="evenodd" d="M8.29916 15.8134C8.29916 15.8134 8.46166 15.3481 8.66141 15.3481C8.86117 15.3481 8.27922 14.9442 8.66141 14.83C9.0436 14.7157 9.63172 15.2852 9.63172 14.7157C9.63172 14.1462 9.13436 13.8355 9.4998 13.8355C9.86525 13.8355 10.2465 13.7264 10.2465 13.7264C10.2465 13.7264 11.8014 15.3481 13.358 15.3481C14.9147 15.3481 16.7866 13.8355 16.7866 13.8355C16.7866 13.8355 17.4765 13.66 17.4765 13.9337C17.4765 14.2073 17.3252 14.6204 17.3252 14.6204C17.3252 14.6204 17.8086 14.5251 18.0546 14.6204C18.3005 14.7157 18.0546 15.1717 18.0546 15.1717V15.3481C18.0546 15.3481 18.6945 15.2072 18.6945 15.4593C18.6945 15.7115 18.3856 15.5675 17.7596 15.6395C17.1336 15.7115 16.896 16.2009 16.5028 16.2009C16.1095 16.2009 16.0248 15.8134 16.0248 15.8134C16.0248 15.8134 14.8061 16.474 13.358 16.474C11.91 16.474 11.0352 15.8134 11.0352 15.8134C11.0352 15.8134 11.1718 16.4916 10.7092 16.3462C10.2465 16.2009 9.77321 15.2792 9.21731 15.4593C8.66141 15.6395 8.29916 15.8134 8.29916 15.8134Z" fill="#CF1225"/>
<path fill-rule="evenodd" clip-rule="evenodd" d="M9.56184 14.1648C9.59835 14.1308 9.63501 14.093 9.68309 14.0408C9.81927 13.893 9.85614 13.8538 9.884 13.8359C9.88961 13.8612 9.89343 13.9025 9.89343 13.9592C9.89343 14.3357 9.9068 14.62 9.94346 14.8177C9.96958 14.9585 10.0059 15.0497 10.0699 15.0932C10.1636 15.1566 10.2579 15.1014 10.3455 14.9698C10.5458 14.6687 10.9227 14.6315 10.9227 14.7464C10.9227 14.7762 10.911 14.8084 10.8378 14.9878C10.8251 15.0187 10.8152 15.0438 10.8059 15.0681C10.7545 15.2035 10.7316 15.3014 10.7427 15.3865C10.7594 15.5136 10.853 15.5852 11.0047 15.5852C11.1734 15.5852 11.2843 15.476 11.4068 15.261C11.4187 15.24 11.4508 15.1816 11.4645 15.1568L11.4646 15.1566L11.4646 15.1566L11.4706 15.1456C11.493 15.1053 11.5095 15.0782 11.5246 15.0572C11.5693 14.9949 11.579 14.9997 11.678 15.2336C11.7041 15.2953 11.7576 15.4252 11.8039 15.5377C11.8405 15.6265 11.8727 15.7045 11.8833 15.7294C11.9483 15.8822 11.9938 15.9723 12.0418 16.0353C12.152 16.1801 12.2836 16.1789 12.4407 16.0445C12.4718 16.0179 12.5066 15.9917 12.5467 15.964C12.5676 15.9496 12.6175 15.9176 12.6651 15.887L12.6651 15.887C12.7103 15.8579 12.7535 15.8301 12.7681 15.8199C12.8592 15.7562 12.9045 15.7061 12.9036 15.6321C12.9025 15.5386 12.8244 15.4799 12.6688 15.422C12.6379 15.4105 12.614 15.3997 12.5967 15.3918L12.5966 15.3917L12.5966 15.3917C12.5839 15.3859 12.5747 15.3818 12.5689 15.3802C12.5728 15.3795 12.5785 15.3766 12.5874 15.3721L12.5952 15.3682C12.6928 15.3197 12.8899 15.2842 13.0658 15.2842L13.0668 15.2842C13.075 15.2842 13.08 15.2842 13.0829 15.2866C13.0872 15.2903 13.087 15.2994 13.0865 15.322L13.0864 15.3246C13.0853 15.3776 13.0738 15.4289 13.0304 15.5918L13.0154 15.6489C12.9662 15.8402 12.9525 15.9559 12.9864 16.0557C13.036 16.2019 13.177 16.2527 13.3959 16.2093C13.6922 16.1507 13.8365 16.033 13.8742 15.8527C13.8837 15.8075 13.8855 15.7729 13.8856 15.7024C13.8858 15.5862 13.8864 15.5852 13.9857 15.5852C14.1269 15.5852 14.1828 15.6353 14.2423 15.7743C14.2475 15.7865 14.2527 15.7992 14.2634 15.8251C14.3324 15.9916 14.3966 16.064 14.541 16.064C14.6376 16.064 14.7047 16.0235 14.6928 15.9299C14.6898 15.9061 14.6817 15.8851 14.6673 15.8557L14.6556 15.833L14.6556 15.833C14.6479 15.8179 14.6387 15.8 14.635 15.7924C14.5453 15.609 14.5809 15.4689 14.8893 15.2715C14.9773 15.2151 15.1135 15.1197 15.2314 15.037L15.2314 15.037L15.2314 15.037L15.2315 15.037C15.3164 14.9775 15.3919 14.9246 15.4331 14.8977C15.4364 14.9228 15.4388 14.9572 15.441 15.0073C15.4419 15.0271 15.4441 15.0891 15.446 15.1391L15.4483 15.2035C15.4615 15.5383 15.5311 15.8448 15.6326 15.9692C15.8047 16.1799 15.9708 15.9852 16.0839 15.5215C16.192 15.0779 16.3463 14.6596 16.4966 14.4057C16.5703 14.2813 16.6394 14.2033 16.692 14.1796C16.7268 14.1639 16.7514 14.1751 16.7875 14.2407C16.9234 14.4874 17.1324 14.7163 17.3092 14.7844C17.5714 14.8854 17.7271 14.6726 17.7271 14.1993C17.7271 13.8025 17.7915 13.4861 17.8981 13.242C17.9348 13.158 17.9737 13.0893 18.0122 13.0347C18.0343 13.0034 18.0505 12.9845 18.0581 12.977L17.9449 12.8554C17.8929 12.9063 17.8198 13.0099 17.7485 13.1732C17.6324 13.4392 17.5631 13.7791 17.5631 14.1993C17.5631 14.5735 17.4896 14.6742 17.3668 14.6269C17.2334 14.5755 17.0489 14.3735 16.9302 14.1579C16.8557 14.0225 16.745 13.9719 16.626 14.0256C16.5351 14.0666 16.4462 14.1669 16.3565 14.3184C16.1965 14.5887 16.0366 15.022 15.9248 15.4807C15.8762 15.6801 15.8257 15.807 15.7583 15.8611C15.6867 15.7735 15.6239 15.4969 15.6121 15.1967L15.6098 15.134L15.6098 15.1338C15.608 15.0835 15.6057 15.0203 15.6048 14.9997C15.602 14.9368 15.5988 14.8953 15.5937 14.8616C15.5771 14.7538 15.5225 14.6903 15.4244 14.716C15.3859 14.726 15.201 14.8546 15.0347 14.9703L15.0346 14.9703C14.942 15.0347 14.8551 15.0951 14.8025 15.1288C14.4211 15.373 14.3614 15.608 14.4884 15.8679L14.4986 15.888C14.4681 15.8739 14.4469 15.838 14.4143 15.7593C14.4038 15.7339 14.398 15.72 14.3924 15.7067C14.3094 15.5127 14.2026 15.417 13.9857 15.417C13.777 15.417 13.7219 15.5046 13.7217 15.7022C13.7216 15.7611 13.7202 15.7874 13.7139 15.8174C13.6916 15.9241 13.6019 15.9972 13.3649 16.0441C13.2168 16.0735 13.1589 16.0526 13.1412 16.0004C13.1221 15.9442 13.1332 15.8499 13.1739 15.6918L13.1885 15.6362C13.2366 15.4558 13.2487 15.4016 13.2503 15.3284C13.2532 15.2016 13.1911 15.116 13.0658 15.116C12.8672 15.116 12.6468 15.1557 12.5237 15.2168C12.3219 15.3171 12.3619 15.4868 12.6129 15.5802C12.6622 15.5985 12.6948 15.6142 12.7146 15.6237L12.7146 15.6237C12.7287 15.6305 12.7362 15.6341 12.7387 15.6334C12.7369 15.6338 12.7323 15.6375 12.7246 15.6438C12.7143 15.6521 12.6984 15.6651 12.6759 15.6808C12.6639 15.6892 12.6261 15.7135 12.5842 15.7404L12.5842 15.7405L12.5841 15.7405L12.5841 15.7405L12.5839 15.7406C12.5344 15.7724 12.4795 15.8078 12.4554 15.8243C12.4108 15.855 12.3716 15.8846 12.3357 15.9153C12.2441 15.9937 12.2184 15.994 12.171 15.9317C12.1341 15.8833 12.0932 15.8023 12.0335 15.6621C12.0233 15.638 11.9919 15.5618 11.9558 15.4743C11.9093 15.3613 11.855 15.2295 11.8284 15.1666C11.6874 14.8335 11.5352 14.7587 11.3926 14.9574C11.3729 14.9849 11.3536 15.0167 11.3283 15.0621L11.3208 15.0757C11.3065 15.1017 11.2762 15.1568 11.2653 15.1761C11.1702 15.3429 11.095 15.417 11.0047 15.417C10.9302 15.417 10.9101 15.4016 10.9052 15.3642C10.8989 15.316 10.9169 15.2391 10.9587 15.1293C10.9673 15.1064 10.9768 15.0826 10.989 15.0528C11.0802 14.8293 11.0867 14.8116 11.0867 14.7464C11.0867 14.4053 10.4829 14.4649 10.2101 14.8749C10.1869 14.9098 10.1671 14.9326 10.1525 14.9439C10.1385 14.9223 10.1195 14.8673 10.1045 14.7862C10.0704 14.6023 10.0574 14.3253 10.0574 13.9592C10.0574 13.7273 9.98768 13.6046 9.83784 13.6714C9.77008 13.7017 9.76752 13.7043 9.56396 13.9252C9.51851 13.9746 9.48444 14.0097 9.45166 14.0403C9.40923 14.0798 9.37249 14.1079 9.34091 14.1245C9.29437 14.1491 9.27649 14.1338 9.25136 14.0255C9.22529 13.9131 9.21676 13.7545 9.21685 13.4903L9.21717 13.3796L9.21749 13.2655C9.21749 13.078 9.16729 12.973 9.04491 12.973C9.003 12.973 8.96091 12.9872 8.90767 13.0143C8.88899 13.0238 8.86946 13.0346 8.84329 13.0497L8.83331 13.0555L8.7775 13.0878C8.66464 13.1522 8.58969 13.1814 8.51921 13.1814C8.50606 13.1814 8.49838 13.1835 8.49491 13.1844L8.49491 13.1844C8.49352 13.1848 8.49281 13.185 8.49268 13.1848C8.49255 13.1846 8.49309 13.184 8.4942 13.1826C8.49722 13.179 8.50449 13.1703 8.51405 13.1515C8.56059 13.06 8.68579 12.9124 8.88718 12.7145L8.7738 12.593C8.56015 12.803 8.42595 12.9612 8.36873 13.0737C8.2896 13.2292 8.3509 13.3496 8.51921 13.3496C8.62558 13.3496 8.72143 13.3123 8.85718 13.2348C9.01427 13.1451 9.02205 13.1412 9.04491 13.1412C9.04495 13.1412 9.05355 13.1592 9.05355 13.2655L9.05324 13.3789L9.05292 13.4902C9.05282 13.7679 9.06179 13.9348 9.09188 14.0645C9.1382 14.2641 9.25165 14.3608 9.41587 14.2741C9.46224 14.2497 9.50969 14.2134 9.56184 14.1648ZM9.90125 13.8257C9.90245 13.8259 9.90331 13.8259 9.90368 13.8257L9.90125 13.8257ZM12.564 15.3723C12.5611 15.3703 12.5596 15.3691 12.5596 15.3689C12.5612 15.3758 12.5627 15.38 12.5653 15.3818L12.564 15.3723ZM15.4653 14.879L15.4634 14.8794L15.4646 14.8792L15.4653 14.879Z" fill="#F6E017"/>
<path fill-rule="evenodd" clip-rule="evenodd" d="M11.3326 17.7503C11.2599 17.9465 11.1452 18.0115 11.0155 17.9134C10.9762 17.8836 10.9379 17.8412 10.8845 17.7726L10.8726 17.7569C10.8441 17.7195 10.7735 17.6266 10.7475 17.5943C10.6358 17.4553 10.5397 17.3683 10.4352 17.3238L10.4256 17.3197L10.4256 17.3197C10.2982 17.2654 10.2709 17.2538 10.244 17.241L10.2147 17.2268C10.0615 17.152 9.97403 17.0746 9.88985 16.9296C9.824 16.8162 9.76024 16.6627 9.65222 16.3657L9.8058 16.3069C9.91041 16.5944 9.97153 16.7416 10.0307 16.8435C10.0974 16.9584 10.1599 17.0138 10.2851 17.0749L10.3113 17.0876C10.3369 17.0998 10.363 17.1109 10.4891 17.1646L10.4891 17.1646L10.4981 17.1684C10.6328 17.2259 10.7467 17.3289 10.874 17.4873C10.9024 17.5226 10.9783 17.6224 11.004 17.6563L11.004 17.6563L11.0127 17.6676C11.0575 17.7253 11.0883 17.7595 11.1128 17.778C11.1261 17.7881 11.1269 17.7888 11.1252 17.7898C11.1366 17.7829 11.1568 17.7513 11.1794 17.6905C11.2296 17.5549 11.1855 17.4498 11.0633 17.3404C11.0588 17.3363 11.0463 17.3263 11.0299 17.3132L11.0299 17.3132L11.0299 17.3132L11.0299 17.3132C10.983 17.2756 10.9045 17.2127 10.89 17.1911C10.8434 17.1218 10.8833 17.0515 10.9552 17.0324C10.9876 17.0237 11.0355 17.0205 11.112 17.0205C11.3767 17.0205 11.4495 17.176 11.4986 17.5737L11.4994 17.5802C11.5381 17.8936 11.5772 17.9797 11.711 17.9797C11.8619 17.9797 11.9538 17.9196 12.1142 17.7483L12.1494 17.7107C12.3539 17.4931 12.4971 17.4199 12.7376 17.4865C12.9297 17.5397 13.0118 17.6341 13.0312 17.7806C13.0333 17.797 13.0344 17.8087 13.0365 17.8366C13.0458 17.9601 13.0676 17.9797 13.3067 17.9797C13.488 17.9797 13.6568 17.9894 13.8769 18.0088L13.9035 18.0112C13.9551 18.0159 14.0648 18.0259 14.0978 18.0286C14.1694 18.0345 14.2202 18.0373 14.2604 18.0373C14.289 18.0373 14.3111 18.0358 14.3262 18.0332C14.3324 17.985 14.3608 17.9511 14.4757 17.821C14.489 17.806 14.4992 17.7942 14.5087 17.783C14.5624 17.7196 14.5861 17.6772 14.5846 17.6704C14.5843 17.6691 14.5363 17.6518 14.4066 17.6518C14.2874 17.6518 14.2278 17.637 14.2171 17.5529C14.2081 17.4826 14.2487 17.4487 14.3387 17.4008C14.4419 17.3459 14.6298 17.2746 14.8554 17.2028C15.0725 17.1337 15.3016 17.0715 15.476 17.0349C15.5703 17.0151 15.647 17.0031 15.7029 16.9999C15.8095 16.9939 15.8728 17.0087 15.8728 17.1047C15.8728 17.1447 15.9854 17.2822 16.0976 17.3446C16.2316 17.4191 16.3267 17.3908 16.3924 17.2159C16.4882 16.9605 16.688 16.6847 16.8827 16.5268C16.9872 16.4421 17.0833 16.3965 17.1665 16.404C17.2788 16.4141 17.3375 16.5105 17.3375 16.6561H17.1735C17.1735 16.5878 17.1643 16.5727 17.1522 16.5716C17.1212 16.5688 17.0589 16.5984 16.9844 16.6588C16.8125 16.7982 16.6306 17.0494 16.5454 17.2764C16.442 17.5516 16.236 17.6129 16.0195 17.4925C15.8867 17.4187 15.7599 17.2785 15.721 17.1675C15.6656 17.1705 15.5959 17.1815 15.5088 17.1997C15.3402 17.2351 15.1162 17.2959 14.904 17.3634C14.7634 17.4082 14.6382 17.4527 14.5423 17.4918C14.6593 17.5086 14.727 17.5521 14.7447 17.634C14.7623 17.7158 14.7225 17.787 14.6324 17.8933C14.622 17.9056 14.6111 17.9182 14.5971 17.934C14.5178 18.0238 14.4886 18.0623 14.4886 18.0638C14.4886 18.175 14.4041 18.2056 14.2604 18.2056C14.2149 18.2056 14.1603 18.2025 14.0846 18.1963C14.0508 18.1935 13.9389 18.1833 13.888 18.1787L13.8628 18.1764C13.647 18.1573 13.4825 18.1479 13.3067 18.1479C12.9839 18.1479 12.8892 18.0628 12.873 17.8497C12.8712 17.825 12.8703 17.8153 12.8687 17.8032C12.8583 17.7243 12.8238 17.6846 12.6949 17.6489C12.5267 17.6023 12.4347 17.6494 12.2674 17.8275L12.2325 17.8648C12.0436 18.0665 11.9191 18.1479 11.711 18.1479C11.4756 18.1479 11.3985 18.022 11.3496 17.6964C11.345 17.714 11.3394 17.732 11.3326 17.7503ZM11.3463 17.6014L11.3453 17.5948C11.3298 17.4916 11.3138 17.4125 11.2933 17.3528C11.3744 17.4552 11.4026 17.5681 11.362 17.6964C11.3565 17.6664 11.3513 17.6348 11.3463 17.6014ZM14.3452 17.4792L14.3491 17.4804L14.3472 17.4796L14.3452 17.4792ZM14.342 18.0295L14.3379 18.0309L14.3406 18.0303L14.342 18.0295Z" fill="#F6E017"/>
</g>
</g>
</g>
<rect x="1.75" y="1.25" width="23.5" height="17.5" stroke="black" stroke-opacity="0.1" stroke-width="0.5" shape-rendering="crispEdges"/>
</g>
<defs>
<filter id="filter0_dd_701_24823" x="0" y="0" width="27" height="21" filterUnits="userSpaceOnUse" color-interpolation-filters="sRGB">
<feFlood flood-opacity="0" result="BackgroundImageFix"/>
<feColorMatrix in="SourceAlpha" type="matrix" values="0 0 0 0 0 0 0 0 0 0 0 0 0 0 0 0 0 0 127 0" result="hardAlpha"/>
<feOffset dy="0.5"/>
<feGaussianBlur stdDeviation="0.75"/>
<feComposite in2="hardAlpha" operator="out"/>
<feColorMatrix type="matrix" values="0 0 0 0 0 0 0 0 0 0 0 0 0 0 0 0 0 0 0.1 0"/>
<feBlend mode="multiply" in2="BackgroundImageFix" result="effect1_dropShadow_701_24823"/>
<feColorMatrix in="SourceAlpha" type="matrix" values="0 0 0 0 0 0 0 0 0 0 0 0 0 0 0 0 0 0 127 0" result="hardAlpha"/>
<feOffset/>
<feGaussianBlur stdDeviation="0.5"/>
<feComposite in2="hardAlpha" operator="out"/>
<feColorMatrix type="matrix" values="0 0 0 0 0 0 0 0 0 0 0 0 0 0 0 0 0 0 0.11 0"/>
<feBlend mode="multiply" in2="effect1_dropShadow_701_24823" result="effect2_dropShadow_701_24823"/>
<feBlend mode="normal" in="SourceGraphic" in2="effect2_dropShadow_701_24823" result="shape"/>
</filter>
<clipPath id="clip0_701_24823">
<rect x="1.5" y="1" width="24" height="18" fill="white"/>
</clipPath>
</defs>
</svg>