<svg viewBox="0 0 27 21" fill="none" xmlns="http://www.w3.org/2000/svg">
<g filter="url(#filter0_dd_701_23689)">
<g clip-path="url(#clip0_701_23689)">
<mask id="mask0_701_23689" style="mask-type:alpha" maskUnits="userSpaceOnUse" x="1" y="1" width="25" height="18">
<rect x="1.5" y="1" width="24" height="18" fill="white"/>
</mask>
<g mask="url(#mask0_701_23689)">
<path fill-rule="evenodd" clip-rule="evenodd" d="M1.5 1V19H25.5V1H1.5Z" fill="#FECA00"/>
<mask id="mask1_701_23689" style="mask-type:alpha" maskUnits="userSpaceOnUse" x="1" y="1" width="25" height="18">
<path fill-rule="evenodd" clip-rule="evenodd" d="M1.5 1V19H25.5V1H1.5Z" fill="white"/>
</mask>
<g mask="url(#mask1_701_23689)">
<path fill-rule="evenodd" clip-rule="evenodd" d="M1.5 1V7H25.5V1H1.5Z" fill="#5EAA22"/>
<path fill-rule="evenodd" clip-rule="evenodd" d="M1.5 13V19H25.5V13H1.5Z" fill="#E31D1C"/>
<path fill-rule="evenodd" clip-rule="evenodd" d="M13.5 14.5C15.9853 14.5 18 12.4853 18 10C18 7.51472 15.9853 5.5 13.5 5.5C11.0147 5.5 9 7.51472 9 10C9 12.4853 11.0147 14.5 13.5 14.5Z" fill="#2B77B8"/>
<path fill-rule="evenodd" clip-rule="evenodd" d="M13.5 11.5L11.4285 12.1949L12.0734 10.4635L10.6683 8.78647H12.6183L13.5 7L14.3817 8.78647H16.3747L14.9266 10.4635L15.4406 12.1949L13.5 11.5Z" stroke="#FECA00" stroke-width="1.5"/>
<path d="M13.2721 10.0259L11.7086 13.296" stroke="#2B77B8"/>
<path d="M13.0261 9.60962H10.0261" stroke="#2B77B8"/>
<path d="M13.5911 10.6282L16.5229 11.9813" stroke="#2B77B8"/>
<path d="M14.225 9.90529L16.3472 7.5824" stroke="#2B77B8"/>
</g>
</g>
</g>
<rect x="1.75" y="1.25" width="23.5" height="17.5" stroke="black" stroke-opacity="0.1" stroke-width="0.5" shape-rendering="crispEdges"/>
</g>
<defs>
<filter id="filter0_dd_701_23689" x="0" y="0" width="27" height="21" filterUnits="userSpaceOnUse" color-interpolation-filters="sRGB">
<feFlood flood-opacity="0" result="BackgroundImageFix"/>
<feColorMatrix in="SourceAlpha" type="matrix" values="0 0 0 0 0 0 0 0 0 0 0 0 0 0 0 0 0 0 127 0" result="hardAlpha"/>
<feOffset dy="0.5"/>
<feGaussianBlur stdDeviation="0.75"/>
<feComposite in2="hardAlpha" operator="out"/>
<feColorMatrix type="matrix" values="0 0 0 0 0 0 0 0 0 0 0 0 0 0 0 0 0 0 0.1 0"/>
<feBlend mode="multiply" in2="BackgroundImageFix" result="effect1_dropShadow_701_23689"/>
<feColorMatrix in="SourceAlpha" type="matrix" values="0 0 0 0 0 0 0 0 0 0 0 0 0 0 0 0 0 0 127 0" result="hardAlpha"/>
<feOffset/>
<feGaussianBlur stdDeviation="0.5"/>
<feComposite in2="hardAlpha" operator="out"/>
<feColorMatrix type="matrix" values="0 0 0 0 0 0 0 0 0 0 0 0 0 0 0 0 0 0 0.11 0"/>
<feBlend mode="multiply" in2="effect1_dropShadow_701_23689" result="effect2_dropShadow_701_23689"/>
<feBlend mode="normal" in="SourceGraphic" in2="effect2_dropShadow_701_23689" result="shape"/>
</filter>
<clipPath id="clip0_701_23689">
<rect x="1.5" y="1" width="24" height="18" fill="white"/>
</clipPath>
</defs>
</svg>