<svg width="27" height="21" viewBox="0 0 27 21" fill="none" xmlns="http://www.w3.org/2000/svg">
<g filter="url(#filter0_dd_701_21738)">
<g clip-path="url(#clip0_701_21738)">
<mask id="mask0_701_21738" style="mask-type:alpha" maskUnits="userSpaceOnUse" x="1" y="1" width="25" height="18">
<rect x="1.5" y="1" width="24" height="18" fill="white"/>
</mask>
<g mask="url(#mask0_701_21738)">
<path fill-rule="evenodd" clip-rule="evenodd" d="M1.5 1V19H25.5V1H1.5Z" fill="#1C9975"/>
<mask id="mask1_701_21738" style="mask-type:alpha" maskUnits="userSpaceOnUse" x="1" y="1" width="25" height="18">
<path fill-rule="evenodd" clip-rule="evenodd" d="M1.5 1V19H25.5V1H1.5Z" fill="white"/>
</mask>
<g mask="url(#mask1_701_21738)">
<path fill-rule="evenodd" clip-rule="evenodd" d="M13.5162 6.14025L12.2909 6.87995L12.5704 5.43649L11.55 4.3562L12.9317 4.29779L13.5162 2.94995L14.1007 4.29779H15.48L14.462 5.43649L14.7685 6.87995L13.5162 6.14025Z" fill="#FECA00"/>
<path fill-rule="evenodd" clip-rule="evenodd" d="M10.037 6.6882L9.27935 7.14558L9.45216 6.25305L8.82124 5.58509L9.67554 5.54897L10.037 4.71558L10.3984 5.54897H11.2512L10.6218 6.25305L10.8113 7.14558L10.037 6.6882Z" fill="#FECA00"/>
<path fill-rule="evenodd" clip-rule="evenodd" d="M16.9358 6.6882L16.1781 7.14558L16.3509 6.25305L15.72 5.58509L16.5743 5.54897L16.9358 4.71558L17.2972 5.54897H18.15L17.5206 6.25305L17.7101 7.14558L16.9358 6.6882Z" fill="#FECA00"/>
<path fill-rule="evenodd" clip-rule="evenodd" d="M8.07487 8.20797L7.4669 8.575L7.60558 7.85878L7.09929 7.32276L7.78483 7.29377L8.07487 6.625L8.36491 7.29377H9.04929L8.54417 7.85878L8.69624 8.575L8.07487 8.20797Z" fill="#FECA00"/>
<path fill-rule="evenodd" clip-rule="evenodd" d="M19.1706 8.20797L18.5626 8.575L18.7013 7.85878L18.195 7.32276L18.8806 7.29377L19.1706 6.625L19.4606 7.29377H20.145L19.6399 7.85878L19.792 8.575L19.1706 8.20797Z" fill="#FECA00"/>
<mask id="mask2_701_21738" style="mask-type:alpha" maskUnits="userSpaceOnUse" x="7" y="5" width="13" height="13">
<path fill-rule="evenodd" clip-rule="evenodd" d="M13.5 17.5C16.8137 17.5 19.5 14.8137 19.5 11.5C19.5 8.18629 16.8137 5.5 13.5 5.5C10.1863 5.5 7.5 8.18629 7.5 11.5C7.5 14.8137 10.1863 17.5 13.5 17.5Z" fill="white"/>
</mask>
<g mask="url(#mask2_701_21738)">
<path fill-rule="evenodd" clip-rule="evenodd" d="M11.0107 16.7979H15.9894V17.6021H11.0107V16.7979Z" fill="#F7FCFF"/>
<path fill-rule="evenodd" clip-rule="evenodd" d="M8.96808 15.595H18.5425V16.3322H8.96808V15.595Z" fill="#F7FCFF"/>
<path d="M10.9652 15.2654H8.03667V14.5154L10.9599 14.5154C11.9955 14.5009 12.7521 14.2051 13.257 13.6361L13.5086 13.3525L13.7894 13.6072C14.4637 14.2185 15.1372 14.5154 15.8186 14.5154H19.0468V15.2654H15.8186C15.0358 15.2654 14.2801 14.971 13.5575 14.3944C12.9176 14.9616 12.0486 15.2502 10.9652 15.2654Z" fill="#F7FCFF"/>
</g>
<path fill-rule="evenodd" clip-rule="evenodd" d="M13.526 6.70581C13.526 6.70581 12.2445 7.97181 12.2445 9.70925C12.2445 10.0811 12.3031 10.4323 12.3954 10.7548C11.9825 9.8397 11.9539 8.8474 12.3102 7.76499L11.8252 7.60532C11.4627 8.70643 11.4611 9.74167 11.821 10.7011C11.0766 10.2526 10.2201 9.95117 9.34091 9.85399L9.2848 10.3615C10.0531 10.4465 10.803 10.7027 11.4614 11.0819C11.2989 11.0163 11.1284 10.9593 10.9506 10.914C9.32838 10.4999 7.73686 11.087 7.73686 11.087C7.73686 11.087 8.65493 13.1467 10.4331 13.4504C10.5218 13.4655 10.6094 13.4773 10.6959 13.4861L10.6825 13.4861C9.83467 13.4861 9.04626 13.1395 8.30798 12.4353L7.95553 12.8048C8.78478 13.5957 9.69685 13.9967 10.6825 13.9967C11.6464 13.9967 12.5416 13.6132 13.3596 12.8564C13.4909 12.7772 13.5676 12.7205 13.5799 12.7112L13.6121 12.7386C13.5953 12.7676 13.5868 12.7834 13.5868 12.7834C13.5868 12.7834 13.6674 12.8322 13.8129 12.901C14.6206 13.527 15.6311 13.9967 16.4306 13.9967C17.4162 13.9967 18.3283 13.5957 19.1576 12.8048L18.8051 12.4353C18.0668 13.1395 17.2784 13.4861 16.4306 13.4861C16.1209 13.4861 15.8174 13.4363 15.5197 13.3362C15.9365 13.3586 16.3958 13.3211 16.8712 13.1757C18.6228 12.6402 19.3529 11.0205 19.3529 11.0205C19.3529 11.0205 18.4209 10.5176 17.2372 10.512C17.5024 10.4436 17.7792 10.3934 18.0678 10.3615L18.0117 9.85399C16.9015 9.97671 15.941 10.3514 15.1353 10.9767C15.6064 9.94082 15.6429 8.81266 15.2454 7.60532L14.7604 7.76499C15.0852 8.75158 15.0902 9.6633 14.7758 10.5099C14.8297 10.2596 14.8615 9.99201 14.8615 9.70925C14.8615 7.87764 13.526 6.70581 13.526 6.70581ZM14.0898 12.0665L14.0708 12.0939L14.094 12.0663L14.0898 12.0665ZM12.8511 11.9469L12.9013 11.9008C12.947 11.9766 12.9925 12.048 13.037 12.1146C12.9793 12.0602 12.9173 12.0041 12.8511 11.9469Z" fill="#F7FCFF"/>
</g>
</g>
</g>
<rect x="1.75" y="1.25" width="23.5" height="17.5" stroke="black" stroke-opacity="0.1" stroke-width="0.5" shape-rendering="crispEdges"/>
</g>
<defs>
<filter id="filter0_dd_701_21738" x="0" y="0" width="27" height="21" filterUnits="userSpaceOnUse" color-interpolation-filters="sRGB">
<feFlood flood-opacity="0" result="BackgroundImageFix"/>
<feColorMatrix in="SourceAlpha" type="matrix" values="0 0 0 0 0 0 0 0 0 0 0 0 0 0 0 0 0 0 127 0" result="hardAlpha"/>
<feOffset dy="0.5"/>
<feGaussianBlur stdDeviation="0.75"/>
<feComposite in2="hardAlpha" operator="out"/>
<feColorMatrix type="matrix" values="0 0 0 0 0 0 0 0 0 0 0 0 0 0 0 0 0 0 0.1 0"/>
<feBlend mode="multiply" in2="BackgroundImageFix" result="effect1_dropShadow_701_21738"/>
<feColorMatrix in="SourceAlpha" type="matrix" values="0 0 0 0 0 0 0 0 0 0 0 0 0 0 0 0 0 0 127 0" result="hardAlpha"/>
<feOffset/>
<feGaussianBlur stdDeviation="0.5"/>
<feComposite in2="hardAlpha" operator="out"/>
<feColorMatrix type="matrix" values="0 0 0 0 0 0 0 0 0 0 0 0 0 0 0 0 0 0 0.11 0"/>
<feBlend mode="multiply" in2="effect1_dropShadow_701_21738" result="effect2_dropShadow_701_21738"/>
<feBlend mode="normal" in="SourceGraphic" in2="effect2_dropShadow_701_21738" result="shape"/>
</filter>
<clipPath id="clip0_701_21738">
<rect x="1.5" y="1" width="24" height="18" fill="white"/>
</clipPath>
</defs>
</svg>
