<svg width="27" height="21" viewBox="0 0 27 21" fill="none" xmlns="http://www.w3.org/2000/svg">
<g filter="url(#filter0_dd_701_23352)">
<g clip-path="url(#clip0_701_23352)">
<mask id="mask0_701_23352" style="mask-type:alpha" maskUnits="userSpaceOnUse" x="1" y="1" width="25" height="18">
<rect x="1.5" y="1" width="24" height="18" fill="white"/>
</mask>
<g mask="url(#mask0_701_23352)">
<path fill-rule="evenodd" clip-rule="evenodd" d="M1.5 10H25.5V19H1.5V10Z" fill="#C51918"/>
<mask id="mask1_701_23352" style="mask-type:alpha" maskUnits="userSpaceOnUse" x="1" y="10" width="25" height="9">
<path fill-rule="evenodd" clip-rule="evenodd" d="M1.5 10H25.5V19H1.5V10Z" fill="white"/>
</mask>
<g mask="url(#mask1_701_23352)">
<path fill-rule="evenodd" clip-rule="evenodd" d="M10.5 16C13.8137 16 16.5 13.3137 16.5 10C16.5 6.68629 13.8137 4 10.5 4C7.18629 4 4.5 6.68629 4.5 10C4.5 13.3137 7.18629 16 10.5 16Z" fill="#F7FCFF"/>
</g>
<path fill-rule="evenodd" clip-rule="evenodd" d="M1.5 1H25.5V10H1.5V1Z" fill="#F7FCFF"/>
<mask id="mask2_701_23352" style="mask-type:alpha" maskUnits="userSpaceOnUse" x="1" y="1" width="25" height="9">
<path fill-rule="evenodd" clip-rule="evenodd" d="M1.5 1H25.5V10H1.5V1Z" fill="white"/>
</mask>
<g mask="url(#mask2_701_23352)">
<path fill-rule="evenodd" clip-rule="evenodd" d="M10.5 16C13.8137 16 16.5 13.3137 16.5 10C16.5 6.68629 13.8137 4 10.5 4C7.18629 4 4.5 6.68629 4.5 10C4.5 13.3137 7.18629 16 10.5 16Z" fill="#C51918"/>
</g>
</g>
</g>
<rect x="1.75" y="1.25" width="23.5" height="17.5" stroke="black" stroke-opacity="0.1" stroke-width="0.5" shape-rendering="crispEdges"/>
</g>
<defs>
<filter id="filter0_dd_701_23352" x="0" y="0" width="27" height="21" filterUnits="userSpaceOnUse" color-interpolation-filters="sRGB">
<feFlood flood-opacity="0" result="BackgroundImageFix"/>
<feColorMatrix in="SourceAlpha" type="matrix" values="0 0 0 0 0 0 0 0 0 0 0 0 0 0 0 0 0 0 127 0" result="hardAlpha"/>
<feOffset dy="0.5"/>
<feGaussianBlur stdDeviation="0.75"/>
<feComposite in2="hardAlpha" operator="out"/>
<feColorMatrix type="matrix" values="0 0 0 0 0 0 0 0 0 0 0 0 0 0 0 0 0 0 0.1 0"/>
<feBlend mode="multiply" in2="BackgroundImageFix" result="effect1_dropShadow_701_23352"/>
<feColorMatrix in="SourceAlpha" type="matrix" values="0 0 0 0 0 0 0 0 0 0 0 0 0 0 0 0 0 0 127 0" result="hardAlpha"/>
<feOffset/>
<feGaussianBlur stdDeviation="0.5"/>
<feComposite in2="hardAlpha" operator="out"/>
<feColorMatrix type="matrix" values="0 0 0 0 0 0 0 0 0 0 0 0 0 0 0 0 0 0 0.11 0"/>
<feBlend mode="multiply" in2="effect1_dropShadow_701_23352" result="effect2_dropShadow_701_23352"/>
<feBlend mode="normal" in="SourceGraphic" in2="effect2_dropShadow_701_23352" result="shape"/>
</filter>
<clipPath id="clip0_701_23352">
<rect x="1.5" y="1" width="24" height="18" fill="white"/>
</clipPath>
</defs>
</svg>
