<svg viewBox="0 0 27 21" fill="none" xmlns="http://www.w3.org/2000/svg">
<g filter="url(#filter0_dd_701_25178)">
<g clip-path="url(#clip0_701_25178)">
<mask id="mask0_701_25178" style="mask-type:alpha" maskUnits="userSpaceOnUse" x="1" y="1" width="25" height="18">
<rect x="1.5" y="1" width="24" height="18" fill="white"/>
</mask>
<g mask="url(#mask0_701_25178)">
<path fill-rule="evenodd" clip-rule="evenodd" d="M1.5 1V19H25.5V1H1.5Z" fill="#2E42A5"/>
<mask id="mask1_701_25178" style="mask-type:alpha" maskUnits="userSpaceOnUse" x="1" y="1" width="25" height="18">
<path fill-rule="evenodd" clip-rule="evenodd" d="M1.5 1V19H25.5V1H1.5Z" fill="white"/>
</mask>
<g mask="url(#mask1_701_25178)">
<path fill-rule="evenodd" clip-rule="evenodd" d="M17.2073 9.89219L17.2097 10.155C17.2298 12.3675 17.3115 13.8149 17.4567 14.5083C17.5773 15.0841 18.0156 16.0389 18.5312 16.8045C19.1794 17.7671 19.8709 18.3527 20.5328 18.3527C21.1971 18.3527 21.8892 17.8082 22.5346 16.9009C23.0643 16.1562 23.518 15.2115 23.6986 14.5153C23.9222 13.6536 24.0264 12.2018 24.0138 10.1527L24.0122 9.89178L23.7737 10.0152C23.2932 10.2639 22.7759 10.3881 22.2193 10.3881C21.6692 10.3881 21.1382 10.2237 20.6233 9.89228L20.535 9.83545L20.4454 9.89037C19.902 10.2235 19.3913 10.3881 18.9127 10.3881C18.4279 10.3881 17.9404 10.2641 17.4485 10.0146L17.2073 9.89219ZM17.6165 14.4772C17.474 13.7971 17.3927 12.3559 17.3726 10.1536C17.8872 10.4147 18.4005 10.5452 18.9127 10.5452C19.4248 10.5452 19.9648 10.3712 20.5328 10.023C21.0738 10.3712 21.636 10.5452 22.2193 10.5452C22.8026 10.5452 23.3465 10.4147 23.8508 10.1536C23.8634 12.1904 23.76 13.6316 23.5405 14.4772C23.2114 15.7456 21.8312 18.1955 20.5328 18.1955C19.2344 18.1955 17.8302 15.4974 17.6165 14.4772Z" fill="#FBE625"/>
<path fill-rule="evenodd" clip-rule="evenodd" d="M17.3726 10.1536C17.3726 10.1536 17.4027 13.457 17.6164 14.4771C17.8301 15.4973 19.2344 18.1955 20.5328 18.1955C21.8312 18.1955 23.2114 15.7455 23.5405 14.4771C23.8697 13.2088 23.8508 10.1536 23.8508 10.1536C23.8508 10.1536 23.0943 10.5452 22.2193 10.5452C21.3443 10.5452 20.5328 10.0229 20.5328 10.0229C20.5328 10.0229 19.6808 10.5452 18.9126 10.5452C18.1445 10.5452 17.3726 10.1536 17.3726 10.1536Z" fill="#F5FBFF"/>
<mask id="mask2_701_25178" style="mask-type:alpha" maskUnits="userSpaceOnUse" x="17" y="10" width="7" height="9">
<path fill-rule="evenodd" clip-rule="evenodd" d="M17.3726 10.1536C17.3726 10.1536 17.4027 13.457 17.6164 14.4771C17.8301 15.4973 19.2344 18.1955 20.5328 18.1955C21.8312 18.1955 23.2114 15.7455 23.5405 14.4771C23.8697 13.2088 23.8508 10.1536 23.8508 10.1536C23.8508 10.1536 23.0943 10.5452 22.2193 10.5452C21.3443 10.5452 20.5328 10.0229 20.5328 10.0229C20.5328 10.0229 19.6808 10.5452 18.9126 10.5452C18.1445 10.5452 17.3726 10.1536 17.3726 10.1536Z" fill="white"/>
</mask>
<g mask="url(#mask2_701_25178)">
<path fill-rule="evenodd" clip-rule="evenodd" d="M19.9799 12.6161C19.9799 12.8319 19.6716 13.46 19.493 13.6207C19.3608 13.7397 19.4016 13.4633 19.4318 13.2593L19.4318 13.2593L19.4318 13.2593L19.4318 13.2593C19.4423 13.1877 19.4516 13.1251 19.4516 13.0915L19.4516 13.0768C19.4517 13.0344 19.4517 13.0113 19.4474 12.9891C19.4424 12.9624 19.4312 12.9369 19.4065 12.8808L19.4065 12.8808L19.4065 12.8807L19.4064 12.8806C19.3972 12.8596 19.3861 12.8344 19.3727 12.8031C19.0866 12.1927 19.2891 11.9004 19.379 11.7706C19.3927 11.7507 19.4039 11.7347 19.4102 11.7219C19.4238 11.6944 19.4493 11.6697 19.4779 11.6422C19.5497 11.573 19.6403 11.4856 19.6061 11.2896C19.5584 11.0157 19.848 10.6644 19.848 10.6644C19.848 10.6644 19.7777 11.3457 20.1105 11.1788C20.3268 11.0703 20.7189 11.226 21.0675 11.3644C21.2553 11.439 21.4305 11.5085 21.5589 11.5292C21.8183 11.5709 21.9603 11.4619 22.0483 11.3945C22.0847 11.3666 22.1119 11.3457 22.1342 11.3457C22.2105 11.3457 22.3005 11.361 22.3005 11.4167C22.3005 11.4724 21.9589 11.6353 21.7871 11.6862C21.6577 11.7245 21.7905 11.8301 21.9018 11.9185C21.9382 11.9475 21.9723 11.9746 21.9941 11.9969C22.0828 12.0874 22.164 12.5812 21.9589 12.2706C21.7537 11.9599 21.317 11.7523 20.9459 11.7219C20.5747 11.6914 20.1067 11.9732 20.0505 12.2706C19.9943 12.5679 20.4895 12.5134 20.4895 12.5134C20.4895 12.5134 20.4534 12.5598 20.2936 12.6161C20.1339 12.6725 19.9799 12.6161 19.9799 12.6161ZM19.6065 12.5928C19.6065 12.6362 19.57 12.6714 19.525 12.6714C19.48 12.6714 19.4435 12.6362 19.4435 12.5928C19.4435 12.5494 19.48 12.5142 19.525 12.5142C19.57 12.5142 19.6065 12.5494 19.6065 12.5928ZM21.4365 14.0508C21.2094 13.9725 20.5106 14.0073 20.3218 14.1119C20.3218 14.1119 20.2964 13.9499 20.1697 13.8375C20.043 13.7252 19.9849 13.716 19.9849 13.716C19.9849 13.716 20.2727 14.1228 19.9854 14.2178C19.698 14.3128 19.2247 14.04 19.0714 13.7007C18.918 13.3613 18.8879 12.8786 19.0601 12.5486C19.2323 12.2186 18.8399 12.5291 18.8037 12.6505C18.7948 12.6804 18.7876 12.7234 18.7799 12.7692L18.7799 12.7692C18.7565 12.9094 18.7285 13.0767 18.6323 12.9821C18.5046 12.8566 18.1964 12.6368 18.1477 12.6638C18.099 12.6908 18.1293 12.7769 18.1663 12.8436C18.1771 12.8632 18.2085 12.8768 18.2506 12.8952C18.3522 12.9394 18.5163 13.0108 18.6056 13.2579C18.6498 13.3802 18.6739 13.5672 18.6997 13.7675C18.7477 14.1396 18.8016 14.5579 19.0014 14.6945C19.3087 14.9047 18.6788 15.1735 18.6788 15.1735C18.6788 15.1735 19.1264 15.2565 19.3428 15.082C19.4976 14.9571 19.618 14.994 19.7134 15.0232C19.7513 15.0348 19.7853 15.0452 19.8159 15.0438C19.8301 15.0431 19.8496 15.045 19.8736 15.0474C20.0308 15.0631 20.3846 15.0985 20.7797 14.5523C20.8006 14.5254 20.8174 14.5034 20.8313 14.4851C20.8684 14.4364 20.8853 14.4142 20.9061 14.3968C20.9236 14.3823 20.9438 14.3712 20.9808 14.3507L20.9937 14.3435C21.0231 14.3273 21.0824 14.305 21.1501 14.2795C21.3431 14.207 21.6047 14.1087 21.4365 14.0508ZM20.4966 14.4112C20.5345 14.3901 20.583 14.405 20.6048 14.4444C20.6266 14.4837 20.6135 14.5327 20.5756 14.5537C20.5376 14.5748 20.4892 14.5599 20.4674 14.5205C20.4455 14.4812 20.4586 14.4322 20.4966 14.4112ZM20.8813 12.1557C20.9394 12.3888 21.3493 12.9559 21.5398 13.0572C21.5398 13.0572 21.4177 13.1667 21.3925 13.3342C21.3672 13.5017 21.3912 13.5554 21.3912 13.5554C21.3912 13.5554 21.5756 13.0925 21.8118 13.2817C22.048 13.471 22.077 14.0165 21.8759 14.3299C21.6748 14.6434 21.2864 14.9315 20.9158 14.9668C20.5453 15.0021 21.0194 15.1622 21.1409 15.1264C21.1709 15.1176 21.2108 15.1002 21.2534 15.0816C21.3838 15.0249 21.5393 14.9572 21.5124 15.0895C21.4767 15.265 21.4602 15.6431 21.5094 15.6692C21.5585 15.6954 21.6143 15.6231 21.6501 15.5558C21.6606 15.536 21.6549 15.5023 21.6474 15.457C21.6291 15.3477 21.5996 15.1711 21.7582 14.9617C21.8367 14.858 21.9804 14.736 22.1344 14.6052C22.4203 14.3623 22.7417 14.0893 22.7475 13.8473C22.7564 13.4751 23.325 13.857 23.325 13.857C23.325 13.857 23.1507 13.4364 22.8865 13.35C22.6974 13.2881 22.6628 13.1671 22.6354 13.0712C22.6245 13.0331 22.6147 12.9989 22.5968 12.974C22.5885 12.9624 22.5795 12.9451 22.5684 12.9236C22.496 12.7832 22.333 12.4673 21.6597 12.4333C21.6258 12.4305 21.5982 12.4284 21.5753 12.4267C21.5142 12.4221 21.4864 12.42 21.4605 12.412C21.4388 12.4053 21.4184 12.3944 21.381 12.3745C21.3769 12.3723 21.3726 12.37 21.3681 12.3676C21.3384 12.3518 21.2874 12.3142 21.2292 12.2713C21.0632 12.1489 20.8384 11.9831 20.8813 12.1557ZM21.7214 12.7775C21.6831 12.7571 21.6692 12.7084 21.6903 12.6687C21.7114 12.6289 21.7596 12.6132 21.7979 12.6336C21.8362 12.654 21.8502 12.7027 21.829 12.7424C21.8079 12.7822 21.7597 12.7979 21.7214 12.7775Z" fill="#FF9800"/>
<path fill-rule="evenodd" clip-rule="evenodd" d="M17.5694 15.8143H23.0287V18.4072H17.5694V15.8143Z" fill="#36C6FF"/>
</g>
<rect x="-2.5" y="-2" width="18" height="14" fill="#2B409A"/>
<mask id="mask3_701_25178" style="mask-type:alpha" maskUnits="userSpaceOnUse" x="-3" y="-2" width="19" height="14">
<rect x="-2.5" y="-2" width="18" height="14" fill="white"/>
</mask>
<g mask="url(#mask3_701_25178)">
<path d="M-4.50427 10.9997L-0.543322 12.7369L15.5899 -0.11134L17.6792 -2.69287L13.4435 -3.27349L6.86317 2.2632L1.56667 5.99363L-4.50427 10.9997Z" fill="#F7FCFF"/>
<path d="M-3.96201 12.217L-1.94408 13.2251L16.9289 -2.93262H14.0955L-3.96201 12.217Z" fill="#F50100"/>
<path d="M17.5043 10.9997L13.5433 12.7369L-2.58987 -0.11134L-4.67919 -2.69287L-0.443518 -3.27349L6.13683 2.2632L11.4333 5.99363L17.5043 10.9997Z" fill="#F7FCFF"/>
<path d="M17.3691 11.8733L15.3512 12.8815L7.31486 5.96351L4.93226 5.19059L-4.88023 -2.68395H-2.04684L7.76015 5.00368L10.3651 5.9305L17.3691 11.8733Z" fill="#F50100"/>
<mask id="path-17-outside-1_701_25178" maskUnits="userSpaceOnUse" x="-4.5" y="-4" width="22" height="18" fill="black">
<rect fill="white" x="-4.5" y="-4" width="22" height="18"/>
<path fill-rule="evenodd" clip-rule="evenodd" d="M7.48451 -2H5.48451V4H-2.5V6H5.48451V12H7.48451V6H15.5V4H7.48451V-2Z"/>
</mask>
<path fill-rule="evenodd" clip-rule="evenodd" d="M7.48451 -2H5.48451V4H-2.5V6H5.48451V12H7.48451V6H15.5V4H7.48451V-2Z" fill="#F50100"/>
<path d="M5.48451 -2V-3.5H3.98451V-2H5.48451ZM7.48451 -2H8.98451V-3.5H7.48451V-2ZM5.48451 4V5.5H6.98451V4H5.48451ZM-2.5 4V2.5H-4V4H-2.5ZM-2.5 6H-4V7.5H-2.5V6ZM5.48451 6H6.98451V4.5H5.48451V6ZM5.48451 12H3.98451V13.5H5.48451V12ZM7.48451 12V13.5H8.98451V12H7.48451ZM7.48451 6V4.5H5.98451V6H7.48451ZM15.5 6V7.5H17V6H15.5ZM15.5 4H17V2.5H15.5V4ZM7.48451 4H5.98451V5.5H7.48451V4ZM5.48451 -0.5H7.48451V-3.5H5.48451V-0.5ZM6.98451 4V-2H3.98451V4H6.98451ZM-2.5 5.5H5.48451V2.5H-2.5V5.5ZM-1 6V4H-4V6H-1ZM5.48451 4.5H-2.5V7.5H5.48451V4.5ZM6.98451 12V6H3.98451V12H6.98451ZM7.48451 10.5H5.48451V13.5H7.48451V10.5ZM5.98451 6V12H8.98451V6H5.98451ZM15.5 4.5H7.48451V7.5H15.5V4.5ZM14 4V6H17V4H14ZM7.48451 5.5H15.5V2.5H7.48451V5.5ZM5.98451 -2V4H8.98451V-2H5.98451Z" fill="#F7FCFF" mask="url(#path-17-outside-1_701_25178)"/>
</g>
</g>
</g>
</g>
<rect x="1.75" y="1.25" width="23.5" height="17.5" stroke="black" stroke-opacity="0.1" stroke-width="0.5" shape-rendering="crispEdges"/>
</g>
<defs>
<filter id="filter0_dd_701_25178" x="0" y="0" width="27" height="21" filterUnits="userSpaceOnUse" color-interpolation-filters="sRGB">
<feFlood flood-opacity="0" result="BackgroundImageFix"/>
<feColorMatrix in="SourceAlpha" type="matrix" values="0 0 0 0 0 0 0 0 0 0 0 0 0 0 0 0 0 0 127 0" result="hardAlpha"/>
<feOffset dy="0.5"/>
<feGaussianBlur stdDeviation="0.75"/>
<feComposite in2="hardAlpha" operator="out"/>
<feColorMatrix type="matrix" values="0 0 0 0 0 0 0 0 0 0 0 0 0 0 0 0 0 0 0.1 0"/>
<feBlend mode="multiply" in2="BackgroundImageFix" result="effect1_dropShadow_701_25178"/>
<feColorMatrix in="SourceAlpha" type="matrix" values="0 0 0 0 0 0 0 0 0 0 0 0 0 0 0 0 0 0 127 0" result="hardAlpha"/>
<feOffset/>
<feGaussianBlur stdDeviation="0.5"/>
<feComposite in2="hardAlpha" operator="out"/>
<feColorMatrix type="matrix" values="0 0 0 0 0 0 0 0 0 0 0 0 0 0 0 0 0 0 0.11 0"/>
<feBlend mode="multiply" in2="effect1_dropShadow_701_25178" result="effect2_dropShadow_701_25178"/>
<feBlend mode="normal" in="SourceGraphic" in2="effect2_dropShadow_701_25178" result="shape"/>
</filter>
<clipPath id="clip0_701_25178">
<rect x="1.5" y="1" width="24" height="18" fill="white"/>
</clipPath>
</defs>
</svg>