<svg width="27" height="21" viewBox="0 0 27 21" fill="none" xmlns="http://www.w3.org/2000/svg">
<g filter="url(#filter0_dd_701_19648)">
<g clip-path="url(#clip0_701_19648)">
<mask id="mask0_701_19648" style="mask-type:alpha" maskUnits="userSpaceOnUse" x="1" y="1" width="25" height="18">
<rect x="1.5" y="1" width="24" height="18" fill="white"/>
</mask>
<g mask="url(#mask0_701_19648)">
<path fill-rule="evenodd" clip-rule="evenodd" d="M1.5 1V19H25.5V1H1.5Z" fill="#FECA00"/>
<mask id="mask1_701_19648" style="mask-type:alpha" maskUnits="userSpaceOnUse" x="1" y="1" width="25" height="18">
<path fill-rule="evenodd" clip-rule="evenodd" d="M1.5 1V19H25.5V1H1.5Z" fill="white"/>
</mask>
<g mask="url(#mask1_701_19648)">
<rect x="1.5" y="1" width="24" height="3" fill="#272727"/>
<rect x="1.5" y="7" width="24" height="3" fill="#D74800"/>
<rect x="1.5" y="10" width="24" height="3" fill="#272727"/>
<rect x="1.5" y="16" width="24" height="3" fill="#D74800"/>
<path fill-rule="evenodd" clip-rule="evenodd" d="M13.5 14.5C15.9853 14.5 18 12.4853 18 10C18 7.51472 15.9853 5.5 13.5 5.5C11.0147 5.5 9 7.51472 9 10C9 12.4853 11.0147 14.5 13.5 14.5Z" fill="#F7FCFF"/>
<path fill-rule="evenodd" clip-rule="evenodd" d="M11.7597 7.2466L10.9662 7.50696L11.7597 7.5749C11.7597 7.5749 11.888 7.88866 11.7597 8.1336C11.7271 8.19578 11.6431 8.27544 11.5359 8.37713C11.2207 8.676 10.705 9.16512 10.705 9.9598C10.705 11.0248 12.7604 11.5078 12.7604 11.5078V12.0138C12.7604 12.0138 12.9989 12.1619 11.6378 12.1619C10.4574 12.1619 10.5313 12.61 10.5717 12.8553C10.5779 12.8929 10.5833 12.9257 10.5833 12.9514C10.5833 13.1451 11.1506 12.7577 11.4162 12.3721C11.556 12.1691 12.1414 12.1798 12.7422 12.2355C12.7897 12.2399 13.2278 13.1679 12.8474 13.6473C12.6877 13.8487 12.1359 13.8749 11.7912 13.8913C11.6154 13.8997 11.4935 13.9055 11.5048 13.9306C11.5133 13.9495 11.6172 13.9433 11.7683 13.9343C11.9569 13.923 12.219 13.9074 12.4605 13.9306C12.4971 13.9342 12.355 14.0575 12.2113 14.1823C12.0633 14.3107 11.9136 14.4407 11.9557 14.4426C12.0032 14.4449 12.2803 14.2913 12.5322 14.1518C12.7405 14.0364 12.9315 13.9306 12.9606 13.9306C13.1506 13.9306 13.3222 13.9541 13.4727 13.9746C13.7242 14.009 13.9169 14.0353 14.0381 13.9306C14.0755 13.8984 13.859 13.8465 13.6382 13.7936C13.4108 13.7391 13.1788 13.6836 13.2154 13.6473C13.4244 13.4398 13.3371 13.005 13.2683 12.6625C13.2375 12.5088 13.2103 12.3737 13.2154 12.2861C13.2333 11.9751 13.5623 12.1382 13.8209 12.2665C13.9342 12.3226 14.0339 12.3721 14.0881 12.3721C14.5779 12.3721 13.9698 11.7527 13.636 11.4127C13.6067 11.3829 13.5796 11.3552 13.5555 11.3303C13.3857 11.1551 13.5048 11.1786 13.7739 11.2318C13.9793 11.2725 14.272 11.3303 14.5905 11.3303C15.3262 11.3303 15.8632 11.0913 15.6766 10.4441C15.5536 10.0172 14.8797 9.87187 14.1757 9.72008C13.8127 9.64179 13.4415 9.56177 13.1338 9.44048C12.3767 9.14207 12.4153 8.70701 12.448 8.33913C12.4543 8.26758 12.4605 8.19857 12.4605 8.1336C12.4605 7.73459 13.1338 7.2466 13.1338 7.2466C13.1338 7.2466 12.8265 6.73169 12.3169 6.73169C11.8073 6.73169 11.7597 7.2466 11.7597 7.2466ZM13.1458 11.9325V11.5562C13.1458 11.5562 13.4605 11.5458 13.5709 11.8105C13.6812 12.0752 13.1458 11.9325 13.1458 11.9325Z" fill="#272727"/>
<path fill-rule="evenodd" clip-rule="evenodd" d="M11.3077 6.03352L12.0679 6.93498L12.4615 6.84238L12.2727 5.93237L11.3077 6.03352Z" fill="#D74800"/>
<path fill-rule="evenodd" clip-rule="evenodd" d="M12.2946 5.81557L12.3436 7.17086L12.9927 7.01114L13.2691 6.1235L12.2946 5.81557Z" fill="#FFD018"/>
<path fill-rule="evenodd" clip-rule="evenodd" d="M11.6827 8.07925C11.8261 8.07925 11.9423 7.96592 11.9423 7.82612C11.9423 7.68633 11.8261 7.573 11.6827 7.573C11.5393 7.573 11.4231 7.68633 11.4231 7.82612C11.4231 7.96592 11.5393 8.07925 11.6827 8.07925Z" fill="#D74800"/>
<path fill-rule="evenodd" clip-rule="evenodd" d="M13.3323 6.06957L12.5766 6.97473L12.7361 7.34634L13.5995 7.00239L13.3323 6.06957Z" fill="#D74800"/>
<path fill-rule="evenodd" clip-rule="evenodd" d="M15.089 12.9199C15.089 12.9199 16.4183 12.3261 16.4183 11.4956C16.4183 10.6651 14.2598 9.7605 14.2598 9.7605C14.2598 9.7605 12.9901 10.0511 13.5624 10.44C14.1347 10.8288 14.9015 10.9782 14.9015 11.4956C14.9015 12.0129 15.1115 12.5063 14.6857 12.5063C14.2598 12.5063 15.089 12.9199 15.089 12.9199Z" fill="#D74800"/>
<path fill-rule="evenodd" clip-rule="evenodd" d="M13.1711 9.60864C13.1711 9.60864 12.701 9.69123 12.7233 9.7676C12.785 9.9787 13.4279 10.2537 13.708 10.444C14.2803 10.8329 14.8229 10.7892 15.2266 10.5362C15.6303 10.2831 13.1711 9.60864 13.1711 9.60864Z" fill="#FFFDFF"/>
</g>
</g>
</g>
<rect x="1.75" y="1.25" width="23.5" height="17.5" stroke="black" stroke-opacity="0.1" stroke-width="0.5" shape-rendering="crispEdges"/>
</g>
<defs>
<filter id="filter0_dd_701_19648" x="0" y="0" width="27" height="21" filterUnits="userSpaceOnUse" color-interpolation-filters="sRGB">
<feFlood flood-opacity="0" result="BackgroundImageFix"/>
<feColorMatrix in="SourceAlpha" type="matrix" values="0 0 0 0 0 0 0 0 0 0 0 0 0 0 0 0 0 0 127 0" result="hardAlpha"/>
<feOffset dy="0.5"/>
<feGaussianBlur stdDeviation="0.75"/>
<feComposite in2="hardAlpha" operator="out"/>
<feColorMatrix type="matrix" values="0 0 0 0 0 0 0 0 0 0 0 0 0 0 0 0 0 0 0.1 0"/>
<feBlend mode="multiply" in2="BackgroundImageFix" result="effect1_dropShadow_701_19648"/>
<feColorMatrix in="SourceAlpha" type="matrix" values="0 0 0 0 0 0 0 0 0 0 0 0 0 0 0 0 0 0 127 0" result="hardAlpha"/>
<feOffset/>
<feGaussianBlur stdDeviation="0.5"/>
<feComposite in2="hardAlpha" operator="out"/>
<feColorMatrix type="matrix" values="0 0 0 0 0 0 0 0 0 0 0 0 0 0 0 0 0 0 0.11 0"/>
<feBlend mode="multiply" in2="effect1_dropShadow_701_19648" result="effect2_dropShadow_701_19648"/>
<feBlend mode="normal" in="SourceGraphic" in2="effect2_dropShadow_701_19648" result="shape"/>
</filter>
<clipPath id="clip0_701_19648">
<rect x="1.5" y="1" width="24" height="18" fill="white"/>
</clipPath>
</defs>
</svg>
