<svg width="27" height="21" viewBox="0 0 27 21" fill="none" xmlns="http://www.w3.org/2000/svg">
<g filter="url(#filter0_dd_701_20127)">
<g clip-path="url(#clip0_701_20127)">
<mask id="mask0_701_20127" style="mask-type:alpha" maskUnits="userSpaceOnUse" x="1" y="1" width="25" height="18">
<rect x="1.5" y="1" width="24" height="18" fill="white"/>
</mask>
<g mask="url(#mask0_701_20127)">
<path fill-rule="evenodd" clip-rule="evenodd" d="M1.5 1V19H25.5V1H1.5Z" fill="#2E42A5"/>
<mask id="mask1_701_20127" style="mask-type:alpha" maskUnits="userSpaceOnUse" x="1" y="1" width="25" height="18">
<path fill-rule="evenodd" clip-rule="evenodd" d="M1.5 1V19H25.5V1H1.5Z" fill="white"/>
</mask>
<g mask="url(#mask1_701_20127)">
<path fill-rule="evenodd" clip-rule="evenodd" d="M17.285 8.52441C17.285 8.52441 17.9495 17.4729 20.9465 17.4729C23.9434 17.4729 24.6805 8.52441 24.6805 8.52441H17.285Z" fill="#FECA00" stroke="#F7FCFF" stroke-width="0.5"/>
<path fill-rule="evenodd" clip-rule="evenodd" d="M20.9334 8.96637L21.0432 8.84242L21.5636 9.17397C21.639 9.05677 21.7732 9.00225 21.9612 9.01124L21.7714 8.72217L21.926 8.63982L22.2863 9.07356C22.298 9.07714 22.3099 9.08087 22.3219 9.08475L22.2306 8.5211L22.4117 8.5L22.53 9.23039C22.5329 9.23024 22.5358 9.23017 22.5386 9.23017C22.5896 9.23017 22.6471 9.25478 22.7062 9.29385L22.8348 8.5L23.0159 8.5211L22.9246 9.08475C22.9366 9.08087 22.9484 9.07714 22.9602 9.07356L23.3205 8.63982L23.4751 8.72217L23.2853 9.01124C23.4732 9.00225 23.6075 9.05677 23.6829 9.17397L24.2033 8.84242L24.3131 8.96637L23.7421 9.33014C23.7499 9.37126 23.7538 9.41632 23.7538 9.46532V9.54969L24.5419 9.37696L24.6 9.52354L23.7538 9.82336V9.92572L24.5561 9.86075L24.5802 10.0143L23.7538 10.1346V10.3114L24.5823 10.4483L24.5489 10.6007L23.7538 10.4819V12.2055H23.6319V10.4637L23.0986 10.3839C23.0388 10.8057 22.9715 11.3366 22.9809 11.5286C22.9902 11.7183 23.1318 11.7996 23.2312 11.8566C23.3086 11.901 23.3604 11.9307 23.3045 11.9854C23.1769 12.1104 22.8578 12.2302 22.5386 12.2302C22.2195 12.2302 21.9047 12.1104 21.8365 11.9854C21.8243 11.9631 21.8259 11.9649 21.8368 11.9775C21.8871 12.0352 22.1361 12.3208 22.1556 11.5286C22.1663 11.0939 22.1025 10.7016 22.0292 10.4017L21.6145 10.4637V12.2055H21.4927V10.4819L20.6976 10.6007L20.6642 10.4483L21.4927 10.3114V10.1346L20.6662 10.0143L20.6904 9.86075L21.4927 9.92572V9.82336L20.6465 9.52354L20.7046 9.37696L21.4927 9.54969V9.46532C21.4927 9.41632 21.4966 9.37126 21.5044 9.33014L20.9334 8.96637ZM21.9764 10.205C21.9788 10.2133 21.9813 10.2218 21.9837 10.2303L21.6145 10.2913V10.1523L21.9764 10.205ZM21.9841 9.63574C21.9785 9.64185 21.9731 9.64788 21.9677 9.65382L21.6145 9.5764V9.46532C21.6145 9.44315 21.6154 9.42204 21.6171 9.40197L21.9841 9.63574ZM22.2188 9.40361C22.1778 9.4389 22.1374 9.47695 22.0991 9.51509L21.6629 9.23725C21.7242 9.1309 21.8448 9.09223 22.0326 9.12005L22.2188 9.40361ZM23.0208 9.59573L23.5835 9.23725C23.5223 9.1309 23.4016 9.09223 23.2139 9.12005L22.9528 9.51759C22.9766 9.54391 22.9994 9.57025 23.0208 9.59573ZM23.2106 9.66875L23.6294 9.40197C23.6311 9.42204 23.6319 9.44315 23.6319 9.46532V9.57641L23.2106 9.66875ZM23.3793 9.95606L23.6319 9.86654V9.9356L23.3793 9.95606ZM23.1847 10.2174L23.6319 10.1523V10.2913L23.1847 10.2174ZM21.6145 9.86654V9.9356L21.8672 9.95606L21.6145 9.86654Z" fill="#CF6900"/>
<path fill-rule="evenodd" clip-rule="evenodd" d="M20.1585 12.8821C20.1585 12.8821 19.1732 14.5322 19.1732 15.5323C19.1732 15.5323 19.8446 16.0648 20.9994 16.0648C22.1541 16.0648 22.7483 15.5323 22.7483 15.5323C22.4232 14.3467 21.8698 12.8821 21.8698 12.8821H20.1585Z" fill="#00A727"/>
<path fill-rule="evenodd" clip-rule="evenodd" d="M20.2065 12.4263C20.2065 11.9719 20.5748 11.6035 21.0292 11.6035C21.4837 11.6035 21.852 11.9719 21.852 12.4263V12.9892H20.2065V12.4263Z" fill="#E31D1C"/>
<path fill-rule="evenodd" clip-rule="evenodd" d="M17.6394 10.6252C17.6394 10.6252 18.9398 10.8931 18.9398 11.3155C18.9398 11.738 19.4634 11.8903 19.592 11.7761C19.7207 11.6619 20.6268 11.582 20.6268 11.0314C20.6268 10.4807 20.7025 10.3308 20.4824 9.98119C20.2623 9.63153 19.8033 8.44958 19.6976 8.92313C19.592 9.39668 19.433 9.7475 19.1394 9.46522C18.8457 9.18294 18.4685 8.58532 18.3361 8.92313C18.2037 9.26094 18.7557 9.60002 18.3361 9.60002C17.9165 9.60002 18.2122 9.62217 18.2122 9.9082C18.2122 10.1942 18.262 10.4638 17.9507 10.4638C17.6394 10.4638 17.6394 10.6252 17.6394 10.6252Z" fill="#FF927F"/>
<rect x="-2.5" y="-2" width="18" height="14" fill="#2B409A"/>
<mask id="mask2_701_20127" style="mask-type:alpha" maskUnits="userSpaceOnUse" x="-3" y="-2" width="19" height="14">
<rect x="-2.5" y="-2" width="18" height="14" fill="white"/>
</mask>
<g mask="url(#mask2_701_20127)">
<path d="M-4.50427 10.9999L-0.543322 12.7371L15.5899 -0.111217L17.6792 -2.69275L13.4435 -3.27337L6.86317 2.26332L1.56667 5.99375L-4.50427 10.9999Z" fill="#F7FCFF"/>
<path d="M-3.96201 12.217L-1.94408 13.2251L16.9289 -2.93262H14.0955L-3.96201 12.217Z" fill="#F50100"/>
<path d="M17.5043 10.9999L13.5433 12.7371L-2.58989 -0.111217L-4.6792 -2.69275L-0.443533 -3.27337L6.13681 2.26332L11.4333 5.99375L17.5043 10.9999Z" fill="#F7FCFF"/>
<path d="M17.3691 11.8732L15.3512 12.8813L7.31486 5.96339L4.93226 5.19046L-4.88023 -2.68407H-2.04684L7.76015 5.00356L10.3651 5.93038L17.3691 11.8732Z" fill="#F50100"/>
<mask id="path-17-outside-1_701_20127" maskUnits="userSpaceOnUse" x="-4.5" y="-4" width="22" height="18" fill="black">
<rect fill="white" x="-4.5" y="-4" width="22" height="18"/>
<path fill-rule="evenodd" clip-rule="evenodd" d="M7.48451 -2H5.48451V4H-2.5V6H5.48451V12H7.48451V6H15.5V4H7.48451V-2Z"/>
</mask>
<path fill-rule="evenodd" clip-rule="evenodd" d="M7.48451 -2H5.48451V4H-2.5V6H5.48451V12H7.48451V6H15.5V4H7.48451V-2Z" fill="#F50100"/>
<path d="M5.48451 -2V-3.5H3.98451V-2H5.48451ZM7.48451 -2H8.98451V-3.5H7.48451V-2ZM5.48451 4V5.5H6.98451V4H5.48451ZM-2.5 4V2.5H-4V4H-2.5ZM-2.5 6H-4V7.5H-2.5V6ZM5.48451 6H6.98451V4.5H5.48451V6ZM5.48451 12H3.98451V13.5H5.48451V12ZM7.48451 12V13.5H8.98451V12H7.48451ZM7.48451 6V4.5H5.98451V6H7.48451ZM15.5 6V7.5H17V6H15.5ZM15.5 4H17V2.5H15.5V4ZM7.48451 4H5.98451V5.5H7.48451V4ZM5.48451 -0.5H7.48451V-3.5H5.48451V-0.5ZM6.98451 4V-2H3.98451V4H6.98451ZM-2.5 5.5H5.48451V2.5H-2.5V5.5ZM-1 6V4H-4V6H-1ZM5.48451 4.5H-2.5V7.5H5.48451V4.5ZM6.98451 12V6H3.98451V12H6.98451ZM7.48451 10.5H5.48451V13.5H7.48451V10.5ZM5.98451 6V12H8.98451V6H5.98451ZM15.5 4.5H7.48451V7.5H15.5V4.5ZM14 4V6H17V4H14ZM7.48451 5.5H15.5V2.5H7.48451V5.5ZM5.98451 -2V4H8.98451V-2H5.98451Z" fill="#F7FCFF" mask="url(#path-17-outside-1_701_20127)"/>
</g>
</g>
</g>
</g>
<rect x="1.75" y="1.25" width="23.5" height="17.5" stroke="black" stroke-opacity="0.1" stroke-width="0.5" shape-rendering="crispEdges"/>
</g>
<defs>
<filter id="filter0_dd_701_20127" x="0" y="0" width="27" height="21" filterUnits="userSpaceOnUse" color-interpolation-filters="sRGB">
<feFlood flood-opacity="0" result="BackgroundImageFix"/>
<feColorMatrix in="SourceAlpha" type="matrix" values="0 0 0 0 0 0 0 0 0 0 0 0 0 0 0 0 0 0 127 0" result="hardAlpha"/>
<feOffset dy="0.5"/>
<feGaussianBlur stdDeviation="0.75"/>
<feComposite in2="hardAlpha" operator="out"/>
<feColorMatrix type="matrix" values="0 0 0 0 0 0 0 0 0 0 0 0 0 0 0 0 0 0 0.1 0"/>
<feBlend mode="multiply" in2="BackgroundImageFix" result="effect1_dropShadow_701_20127"/>
<feColorMatrix in="SourceAlpha" type="matrix" values="0 0 0 0 0 0 0 0 0 0 0 0 0 0 0 0 0 0 127 0" result="hardAlpha"/>
<feOffset/>
<feGaussianBlur stdDeviation="0.5"/>
<feComposite in2="hardAlpha" operator="out"/>
<feColorMatrix type="matrix" values="0 0 0 0 0 0 0 0 0 0 0 0 0 0 0 0 0 0 0.11 0"/>
<feBlend mode="multiply" in2="effect1_dropShadow_701_20127" result="effect2_dropShadow_701_20127"/>
<feBlend mode="normal" in="SourceGraphic" in2="effect2_dropShadow_701_20127" result="shape"/>
</filter>
<clipPath id="clip0_701_20127">
<rect x="1.5" y="1" width="24" height="18" fill="white"/>
</clipPath>
</defs>
</svg>
