<svg viewBox="0 0 27 21" fill="none" xmlns="http://www.w3.org/2000/svg">
<g filter="url(#filter0_dd_701_23960)">
<g clip-path="url(#clip0_701_23960)">
<mask id="mask0_701_23960" style="mask-type:alpha" maskUnits="userSpaceOnUse" x="1" y="1" width="25" height="18">
<rect x="1.5" y="1" width="24" height="18" fill="white"/>
</mask>
<g mask="url(#mask0_701_23960)">
<path fill-rule="evenodd" clip-rule="evenodd" d="M1.5 1V19H25.5V1H1.5Z" fill="#C51918"/>
<mask id="mask1_701_23960" style="mask-type:alpha" maskUnits="userSpaceOnUse" x="1" y="1" width="25" height="18">
<path fill-rule="evenodd" clip-rule="evenodd" d="M1.5 1V19H25.5V1H1.5Z" fill="white"/>
</mask>
<g mask="url(#mask1_701_23960)">
<rect x="1.5" y="1" width="10.5" height="7.5" fill="#4257BF"/>
<rect x="15" y="11.5" width="10.5" height="7.5" fill="#4257BF"/>
<path fill-rule="evenodd" clip-rule="evenodd" d="M11.25 1H15.75V7.75H25.5V12.25H15.75V19H11.25V12.25H1.5V7.75H11.25V1Z" fill="#F7FCFF"/>
<path fill-rule="evenodd" clip-rule="evenodd" d="M11.8991 8.89361C11.8708 8.76229 11.8388 8.6001 11.8388 8.6001C11.7678 8.77296 11.7454 8.93022 11.774 9.07085C11.7437 9.11517 11.7164 9.15669 11.6919 9.19542C11.6155 9.08779 11.5202 8.88647 11.5202 8.88647C11.5235 8.94508 11.522 9.00489 11.5205 9.06296V9.06296V9.06296V9.06296V9.06296V9.06296V9.06296V9.06296V9.06296C11.5171 9.1994 11.5139 9.32629 11.574 9.40574L11.5733 9.40733C11.5613 9.43365 11.5499 9.45993 11.5392 9.48615C11.4564 9.3981 11.319 9.23933 11.319 9.23933C11.3298 9.42972 11.3792 9.57975 11.4689 9.6868C11.4527 9.74261 11.4393 9.79811 11.4286 9.85326C11.3592 9.77666 11.2923 9.70099 11.2923 9.70099C11.3021 9.87472 11.3293 9.98949 11.4001 10.0859C11.3987 10.1134 11.398 10.1407 11.3979 10.1679C11.3246 10.0872 11.25 10.0029 11.25 10.0029C11.2603 10.1863 11.3274 10.3069 11.4156 10.4073C11.4244 10.4654 11.4364 10.5228 11.4515 10.5796L11.4599 10.611C11.358 10.5576 11.2459 10.4968 11.2459 10.4968C11.3139 10.6551 11.4099 10.7445 11.5184 10.808C11.5421 10.8815 11.5671 10.9525 11.5933 11.0209C11.4733 10.9841 11.2933 10.9238 11.2933 10.9238C11.4015 11.0891 11.5303 11.1587 11.6679 11.2005C11.6961 11.2635 11.7255 11.3236 11.7559 11.3807C11.6417 11.3447 11.5066 11.2995 11.5066 11.2995C11.6117 11.4599 11.7362 11.5302 11.8692 11.5725C11.9572 11.7059 12.0515 11.8154 12.1499 11.897C12.0367 11.9441 11.8918 12.0012 11.8918 12.0012C12.0524 12.0496 12.1801 12.0356 12.2959 11.9958L12.3039 11.9999C12.3514 12.0242 12.4045 12.0471 12.4644 12.0694C12.3711 12.1074 12.2816 12.1427 12.2816 12.1427C12.4392 12.1902 12.565 12.1777 12.6791 12.1395L12.6846 12.1412C12.7382 12.1567 12.7928 12.1716 12.8646 12.1906C12.8171 12.1781 12.9925 12.2242 13.0282 12.2339C13.1422 12.2649 13.2072 12.2866 13.2384 12.3053C13.2413 12.3071 13.2434 12.3085 13.2447 12.3094L13.2448 12.3094C13.2461 12.3104 13.2467 12.3107 13.2464 12.3103L13.3336 12.2427C13.3235 12.2278 13.3095 12.216 13.2913 12.2051C13.2485 12.1794 13.1791 12.1561 13.0548 12.1224C13.0194 12.1128 12.8495 12.0681 12.8879 12.0783C12.8181 12.0598 12.765 12.0453 12.713 12.0301L12.6726 12.0182C12.6821 11.8981 12.664 11.7727 12.5796 11.631C12.5796 11.631 12.5506 11.851 12.5306 11.972C12.4614 11.9473 12.4019 11.9224 12.3504 11.8961C12.3355 11.8885 12.3206 11.8801 12.3058 11.871C12.2954 11.748 12.2565 11.6247 12.1461 11.4967C12.1461 11.4967 12.152 11.6333 12.1552 11.7513C12.0819 11.6796 12.0106 11.5898 11.943 11.4841L12.0068 11.5195C12.0072 11.3687 11.9792 11.2192 11.844 11.0624C11.844 11.0624 11.8504 11.2102 11.8535 11.3311C11.8137 11.2569 11.7755 11.1768 11.7393 11.0915C11.7729 10.9709 11.7795 10.8404 11.7187 10.6799C11.7187 10.6799 11.6881 10.7769 11.6557 10.8754C11.6462 10.8484 11.6369 10.8211 11.6278 10.7933C11.6982 10.6672 11.743 10.5274 11.7059 10.3325C11.7059 10.3325 11.6273 10.4836 11.5674 10.5928L11.5552 10.5481C11.5423 10.4995 11.5318 10.4503 11.5239 10.4005C11.6248 10.309 11.7066 10.1952 11.7366 10.0104C11.7366 10.0104 11.601 10.1347 11.5065 10.2172C11.5052 10.1754 11.5056 10.1332 11.5079 10.0908C11.6168 10.0192 11.711 9.92228 11.77 9.75334C11.77 9.75334 11.6346 9.83957 11.5292 9.90375C11.5364 9.86269 11.5453 9.82138 11.5558 9.77984C11.6855 9.70494 11.7999 9.60595 11.8676 9.41179C11.8676 9.41179 11.7313 9.49865 11.6257 9.5629C11.6394 9.52794 11.6542 9.49283 11.6703 9.45759C11.6892 9.41604 11.7161 9.36639 11.751 9.30873C11.8669 9.26687 11.9756 9.19739 12.0706 9.05782C12.0706 9.05782 11.9741 9.08823 11.8751 9.11814C11.9307 9.03744 11.9959 8.94709 12.0707 8.8472L11.9864 8.7754C11.9557 8.81635 11.9266 8.85575 11.8991 8.89361Z" fill="#5AB92D"/>
<path fill-rule="evenodd" clip-rule="evenodd" d="M14.9346 8.89361C14.9629 8.76229 14.9948 8.6001 14.9948 8.6001C15.0659 8.77296 15.0882 8.93022 15.0597 9.07085C15.0899 9.11517 15.1172 9.15669 15.1417 9.19542C15.2181 9.08778 15.3134 8.88647 15.3134 8.88647C15.3101 8.94508 15.3116 9.00489 15.3131 9.06296V9.06296V9.06296V9.06296V9.06296V9.06296V9.06296V9.06296V9.06296C15.3165 9.1994 15.3197 9.32629 15.2597 9.40574L15.2604 9.40733C15.2724 9.43365 15.2837 9.45993 15.2945 9.48615C15.3773 9.3981 15.5146 9.23933 15.5146 9.23933C15.5039 9.42972 15.4545 9.57975 15.3647 9.6868C15.381 9.74261 15.3944 9.79811 15.405 9.85326C15.4744 9.77666 15.5414 9.70099 15.5414 9.70099C15.5316 9.87472 15.5043 9.98949 15.4335 10.0859C15.435 10.1134 15.4357 10.1407 15.4357 10.1679C15.5091 10.0872 15.5837 10.0029 15.5837 10.0029C15.5733 10.1863 15.5063 10.3069 15.418 10.4073C15.4092 10.4654 15.3973 10.5228 15.3822 10.5796L15.3737 10.611C15.4757 10.5576 15.5877 10.4968 15.5877 10.4968C15.5198 10.6551 15.4237 10.7445 15.3152 10.808C15.2916 10.8815 15.2666 10.9525 15.2403 11.0209C15.3603 10.9841 15.5404 10.9238 15.5404 10.9238C15.4321 11.0891 15.3033 11.1587 15.1658 11.2005C15.1375 11.2635 15.1082 11.3236 15.0778 11.3807C15.1919 11.3447 15.3271 11.2995 15.3271 11.2995C15.2219 11.4599 15.0975 11.5302 14.9644 11.5725C14.8764 11.7059 14.7821 11.8154 14.6838 11.897C14.797 11.9441 14.9419 12.0012 14.9419 12.0012C14.7812 12.0496 14.6536 12.0356 14.5377 11.9958L14.5298 11.9999C14.4823 12.0242 14.4291 12.0471 14.3692 12.0694C14.4625 12.1074 14.5521 12.1427 14.5521 12.1427C14.3945 12.1902 14.2687 12.1777 14.1545 12.1395L14.149 12.1412C14.0954 12.1567 14.0409 12.1716 13.969 12.1906C14.0166 12.1781 13.8411 12.2242 13.8055 12.2339C13.6914 12.2649 13.6265 12.2866 13.5953 12.3053C13.5924 12.3071 13.5903 12.3085 13.5889 12.3094L13.5889 12.3094C13.5875 12.3104 13.587 12.3107 13.5873 12.3103L13.5 12.2427C13.5101 12.2278 13.5242 12.216 13.5423 12.2051C13.5851 12.1794 13.6546 12.1561 13.7789 12.1224C13.8143 12.1128 13.9842 12.0681 13.9457 12.0783C14.0155 12.0598 14.0687 12.0453 14.1207 12.0301L14.161 12.0182C14.1515 11.8981 14.1697 11.7727 14.2541 11.631C14.2541 11.631 14.283 11.851 14.303 11.972C14.3722 11.9473 14.4318 11.9224 14.4832 11.8961C14.4981 11.8885 14.513 11.8801 14.5279 11.871C14.5382 11.748 14.5771 11.6247 14.6876 11.4967C14.6876 11.4967 14.6816 11.6333 14.6784 11.7513C14.7518 11.6796 14.823 11.5898 14.8907 11.4841L14.8268 11.5195C14.8265 11.3687 14.8545 11.2192 14.9897 11.0624C14.9897 11.0624 14.9832 11.2102 14.9801 11.3311C15.0199 11.2569 15.0581 11.1768 15.0943 11.0915C15.0607 10.9709 15.0541 10.8404 15.115 10.6799C15.115 10.6799 15.1455 10.7769 15.1779 10.8754C15.1874 10.8484 15.1967 10.8211 15.2058 10.7933C15.1355 10.6672 15.0907 10.5274 15.1277 10.3325C15.1277 10.3325 15.2064 10.4836 15.2663 10.5928L15.2784 10.5481C15.2914 10.4995 15.3018 10.4503 15.3097 10.4005C15.2088 10.309 15.127 10.1952 15.097 10.0104C15.097 10.0104 15.2326 10.1347 15.3271 10.2172C15.3285 10.1754 15.328 10.1332 15.3258 10.0908C15.2169 10.0192 15.1226 9.92228 15.0637 9.75334C15.0637 9.75334 15.199 9.83957 15.3044 9.90375C15.2972 9.86269 15.2884 9.82138 15.2778 9.77984C15.1482 9.70494 15.0338 9.60595 14.966 9.41179C14.966 9.41179 15.1024 9.49865 15.2079 9.5629C15.1943 9.52794 15.1794 9.49283 15.1634 9.45759C15.1445 9.41604 15.1175 9.36639 15.0827 9.30873C14.9668 9.26687 14.858 9.19739 14.7631 9.05782C14.7631 9.05782 14.8595 9.08823 14.9585 9.11814C14.903 9.03744 14.8378 8.94709 14.763 8.8472L14.8473 8.7754C14.8779 8.81635 14.907 8.85575 14.9346 8.89361Z" fill="#5AB92D"/>
<path d="M11.4386 7.98688C11.7384 7.77611 12.2879 7.59416 12.5706 7.59416C12.5721 7.59416 12.5751 7.59348 12.583 7.59019C12.6065 7.58048 12.7614 7.48456 12.7711 7.47901C12.9709 7.36463 13.18 7.30444 13.4648 7.30444V7.80444C13.2603 7.80444 13.1267 7.84291 12.9927 7.91959C13.016 7.90625 12.8162 8.03004 12.7525 8.05636C12.6933 8.08089 12.6337 8.09416 12.5706 8.09416C12.3813 8.09416 11.9211 8.24653 11.6966 8.40434C11.616 8.46106 11.6234 8.44374 11.6259 8.47756C11.6349 8.6005 11.6256 8.67567 11.55 8.77165C11.5402 8.78415 11.5245 8.85292 11.5232 8.97351L11.0545 8.96761C11.0567 8.77073 11.0865 8.6154 11.1574 8.49864C11.1471 8.29676 11.2181 8.14195 11.4386 7.98688Z" fill="#003994"/>
<path d="M11.6893 8.174L11.6375 8.0906C11.8781 7.92078 12.1025 7.83511 12.3107 7.83511C12.3797 7.83511 12.4584 7.81676 12.5498 7.78143C12.6111 7.75776 12.6739 7.72851 12.7581 7.68566C13.0635 7.53044 13.0722 7.52649 13.1529 7.52649H13.4293V7.62649H13.1529C13.0945 7.62649 13.0756 7.63505 12.7985 7.77593C12.7117 7.82006 12.6465 7.85046 12.5817 7.87546C12.4809 7.91441 12.3922 7.93511 12.3107 7.93511C12.1228 7.93511 11.9157 8.01422 11.6893 8.174Z" fill="#EBCA5E"/>
<path d="M15.3739 7.98688C15.0741 7.77611 14.5246 7.59416 14.2419 7.59416C14.2404 7.59416 14.2374 7.59348 14.2295 7.59019C14.206 7.58048 14.0511 7.48456 14.0414 7.47901C13.8416 7.36463 13.6325 7.30444 13.3477 7.30444V7.80444C13.5522 7.80444 13.6858 7.84291 13.8198 7.91959C13.7965 7.90625 13.9963 8.03004 14.06 8.05636C14.1192 8.08089 14.1788 8.09416 14.2419 8.09416C14.4312 8.09416 14.8914 8.24653 15.1159 8.40434C15.1965 8.46106 15.1891 8.44374 15.1866 8.47756C15.1776 8.6005 15.1869 8.67567 15.2625 8.77165C15.2723 8.78415 15.288 8.85292 15.2893 8.97351L15.758 8.96761C15.7558 8.77073 15.726 8.6154 15.6551 8.49864C15.6654 8.29676 15.5944 8.14195 15.3739 7.98688Z" fill="#003994"/>
<path d="M15.0857 8.174L15.1375 8.0906C14.8968 7.92078 14.6725 7.83511 14.4643 7.83511C14.3953 7.83511 14.3166 7.81676 14.2252 7.78143C14.1639 7.75776 14.1011 7.72851 14.0168 7.68566C13.7115 7.53044 13.7028 7.52649 13.6221 7.52649H13.3457V7.62649H13.6221C13.6805 7.62649 13.6994 7.63505 13.9765 7.77593C14.0633 7.82006 14.1285 7.85046 14.1933 7.87546C14.2941 7.91441 14.3828 7.93511 14.4643 7.93511C14.6522 7.93511 14.8593 8.01422 15.0857 8.174Z" fill="#EBCA5E"/>
<path d="M11.8666 8.51453L12.1112 8.78049V9.88506H12.3581V9.95536L12.7195 10.1291C12.7195 10.1291 12.7741 9.39842 12.6041 9.20587C12.4342 9.01333 12.7195 8.96599 12.7195 8.96599L13.1534 9.40039V8.51453H11.8666Z" fill="#003994"/>
<path d="M14.8034 8.51453L14.5588 8.78049V9.88506H14.3119V9.95536L13.9504 10.1291C13.9504 10.1291 13.8958 9.39842 14.0658 9.20587C14.2358 9.01333 13.9504 8.96599 13.9504 8.96599L13.5166 9.40039V8.51453H14.8034Z" fill="#D62818"/>
<path d="M12.6577 8.94751L12.6208 8.99285L13.3422 9.65961L13.3809 9.65765L13.9775 8.99089L13.9368 8.94947L13.3587 9.59554L12.6577 8.94751Z" fill="#FFC300"/>
<path d="M12.5554 9.22754L12.5083 9.27288L13.429 9.93964L13.4785 9.93768L14.24 9.27092L14.188 9.2295L13.4502 9.87557L12.5554 9.22754Z" fill="#FFC300"/>
<path d="M12.1325 10.3165H12.4492L12.6652 10.3825C12.6652 10.3825 12.7347 10.8783 13.0818 10.8783L13.1387 11.513L12.8697 11.3677C12.8697 11.3677 12.6948 11.4449 12.6652 11.4449C12.6356 11.4449 12.3863 11.5847 12.3863 11.4449C12.3863 11.3051 12.1325 11.0788 12.1325 11.0788V10.3165Z" fill="#D62818"/>
<path d="M14.6387 10.3165H14.322L14.106 10.3825C14.106 10.3825 14.0365 10.8783 13.6894 10.8783L13.6325 11.513L13.9015 11.3677C13.9015 11.3677 14.0764 11.4449 14.106 11.4449C14.1356 11.4449 14.3849 11.5847 14.3849 11.4449C14.3849 11.3051 14.6387 11.0788 14.6387 11.0788V10.3165Z" fill="#003994"/>
<path d="M13.9603 10.3765L14.3353 10.3766C14.3352 10.6571 14.2363 10.8844 14.0412 11.0383L13.8183 10.7166C13.9139 10.6412 13.9603 10.5346 13.9603 10.3765Z" fill="#D62818"/>
<path d="M12.978 9.6051V10.1311H13.414C13.414 10.1311 13.373 10.5255 13.373 10.7743C13.373 11.0231 13.414 11.346 13.414 11.346C13.414 11.346 13.5207 11.2927 13.5207 10.9562C13.5207 10.6197 13.5207 10.0946 13.5207 10.0946L13.8652 10.1311L13.8288 9.65673H13.6835C13.6835 9.65673 13.9069 9.95234 13.6835 9.95234C13.4601 9.95234 13.2034 10.0101 13.1547 10.0101C13.106 10.0101 12.978 9.6051 12.978 9.6051Z" fill="#D62818"/>
<path d="M13.3572 10.2407C13.3572 10.2407 13.1122 10.385 13.1122 10.6197C13.1122 10.8544 13.2347 11.122 13.2347 11.122C13.2347 11.122 13.1766 10.5934 13.2669 10.4529C13.3572 10.3123 13.3572 10.2407 13.3572 10.2407Z" fill="#003994"/>
<path d="M12.9585 10.4144C12.9585 10.4144 12.9447 10.5843 13.0453 10.5843C13.146 10.5843 12.9585 10.4144 12.9585 10.4144Z" fill="#003994"/>
<path d="M13.8207 9.95798L13.8592 10.0918L13.2183 10.3017L13.0747 9.70486L13.2018 9.67004L13.3113 10.1248L13.8207 9.95798Z" fill="#373737"/>
<path fill-rule="evenodd" clip-rule="evenodd" d="M12.0269 12.5565L11.9707 12.6043C11.9519 12.5791 11.9358 12.5537 11.9224 12.5284C11.8659 12.5089 11.8126 12.4829 11.7687 12.452C11.7078 12.4092 11.645 12.4092 11.5655 12.4561L11.4748 12.281C11.613 12.1996 11.7503 12.1996 11.8719 12.2851C11.8734 12.2861 11.8749 12.2871 11.8764 12.2882C11.8933 12.1893 11.958 12.1014 12.0695 12.038C12.2607 11.9291 13.097 11.8145 13.3511 11.8145V12.1345C13.1449 12.1345 12.3443 12.2442 12.2108 12.3202C12.2068 12.3225 12.2032 12.3245 12.1999 12.3264C12.1822 12.3362 12.1728 12.3415 12.171 12.3487C12.1696 12.3547 12.1736 12.3621 12.1828 12.3748C12.19 12.3742 12.1949 12.3729 12.1968 12.3708L12.3298 12.5117C12.2747 12.5709 12.1524 12.5809 12.0269 12.5565ZM11.131 12.5622C11.131 12.5622 11.4082 12.8058 11.6084 12.7467C11.8085 12.6876 11.8705 12.6212 11.8705 12.6212C11.8705 12.6212 11.6707 12.5945 11.4586 12.5622C11.2465 12.5298 11.131 12.5622 11.131 12.5622Z" fill="#D62818"/>
<path fill-rule="evenodd" clip-rule="evenodd" d="M12.0489 12.3846L12.0826 12.3365C11.9836 12.2574 12.0093 12.2131 12.199 12.1705C12.2155 12.1668 12.2323 12.1631 12.2492 12.1595L12.2492 12.1596C12.4239 12.1223 12.6147 12.0907 12.8051 12.0678C13.0145 12.0426 13.2241 12.0278 13.4105 12.0278C13.2241 12.0278 13.0148 12.0425 12.8051 12.0678C12.6136 12.0908 12.4224 12.1225 12.2492 12.1595L12.2382 12.1007C12.4146 12.0631 12.6073 12.0312 12.7995 12.008C13.0107 11.9827 13.2221 11.9678 13.4105 11.9678C13.2221 11.9678 13.0111 11.9826 12.7995 12.008C12.5873 12.0335 12.3754 12.0696 12.1874 12.1118C11.9587 12.1631 11.8995 12.2651 12.0489 12.3846Z" fill="#EBCA5E"/>
<path fill-rule="evenodd" clip-rule="evenodd" d="M14.5981 12.5565L14.6543 12.6043C14.6731 12.5791 14.6892 12.5537 14.7026 12.5284C14.7591 12.5089 14.8124 12.4829 14.8563 12.452C14.9172 12.4092 14.98 12.4092 15.0595 12.4561L15.1502 12.281C15.012 12.1996 14.8747 12.1996 14.7531 12.2851C14.7516 12.2861 14.7501 12.2871 14.7486 12.2882C14.7317 12.1893 14.667 12.1014 14.5555 12.038C14.3643 11.9291 13.528 11.8145 13.2739 11.8145V12.1345C13.4801 12.1345 14.2807 12.2442 14.4142 12.3202C14.4182 12.3225 14.4218 12.3245 14.4251 12.3264C14.4428 12.3362 14.4522 12.3415 14.454 12.3487C14.4554 12.3547 14.4514 12.3621 14.4422 12.3748C14.435 12.3742 14.4301 12.3729 14.4282 12.3708L14.2952 12.5117C14.3503 12.5709 14.4726 12.5809 14.5981 12.5565ZM15.494 12.5622C15.494 12.5622 15.2168 12.8058 15.0166 12.7467C14.8165 12.6876 14.7545 12.6212 14.7545 12.6212C14.7545 12.6212 14.9543 12.5945 15.1664 12.5622C15.3785 12.5298 15.494 12.5622 15.494 12.5622Z" fill="#D62818"/>
<path fill-rule="evenodd" clip-rule="evenodd" d="M14.5761 12.3846L14.5424 12.3365C14.6414 12.2574 14.6157 12.2131 14.426 12.1705C14.4095 12.1668 14.3927 12.1631 14.3758 12.1595L14.3758 12.1596C14.2011 12.1223 14.0103 12.0907 13.8199 12.0678C13.6105 12.0426 13.4009 12.0278 13.2145 12.0278C13.4009 12.0278 13.6102 12.0425 13.8199 12.0678C14.0114 12.0908 14.2026 12.1225 14.3758 12.1595L14.3868 12.1007C14.2104 12.0631 14.0177 12.0312 13.8255 12.008C13.6143 11.9827 13.4029 11.9678 13.2145 11.9678C13.4029 11.9678 13.6139 11.9826 13.8255 12.008C14.0377 12.0335 14.2496 12.0696 14.4376 12.1118C14.6663 12.1631 14.7255 12.2651 14.5761 12.3846Z" fill="#EBCA5E"/>
<path d="M13.0242 12.6329L12.8784 12.3764C13.0112 12.2906 13.1816 12.2496 13.3886 12.2496C13.5964 12.2496 13.7649 12.2909 13.893 12.3783L13.7414 12.631C13.6643 12.5784 13.547 12.5496 13.3886 12.5496C13.2292 12.5496 13.1081 12.5787 13.0242 12.6329Z" fill="#D62818"/>
</g>
</g>
</g>
<rect x="1.75" y="1.25" width="23.5" height="17.5" stroke="black" stroke-opacity="0.1" stroke-width="0.5" shape-rendering="crispEdges"/>
</g>
<defs>
<filter id="filter0_dd_701_23960" x="0" y="0" width="27" height="21" filterUnits="userSpaceOnUse" color-interpolation-filters="sRGB">
<feFlood flood-opacity="0" result="BackgroundImageFix"/>
<feColorMatrix in="SourceAlpha" type="matrix" values="0 0 0 0 0 0 0 0 0 0 0 0 0 0 0 0 0 0 127 0" result="hardAlpha"/>
<feOffset dy="0.5"/>
<feGaussianBlur stdDeviation="0.75"/>
<feComposite in2="hardAlpha" operator="out"/>
<feColorMatrix type="matrix" values="0 0 0 0 0 0 0 0 0 0 0 0 0 0 0 0 0 0 0.1 0"/>
<feBlend mode="multiply" in2="BackgroundImageFix" result="effect1_dropShadow_701_23960"/>
<feColorMatrix in="SourceAlpha" type="matrix" values="0 0 0 0 0 0 0 0 0 0 0 0 0 0 0 0 0 0 127 0" result="hardAlpha"/>
<feOffset/>
<feGaussianBlur stdDeviation="0.5"/>
<feComposite in2="hardAlpha" operator="out"/>
<feColorMatrix type="matrix" values="0 0 0 0 0 0 0 0 0 0 0 0 0 0 0 0 0 0 0.11 0"/>
<feBlend mode="multiply" in2="effect1_dropShadow_701_23960" result="effect2_dropShadow_701_23960"/>
<feBlend mode="normal" in="SourceGraphic" in2="effect2_dropShadow_701_23960" result="shape"/>
</filter>
<clipPath id="clip0_701_23960">
<rect x="1.5" y="1" width="24" height="18" fill="white"/>
</clipPath>
</defs>
</svg>