<svg width="27" height="21" viewBox="0 0 27 21" fill="none" xmlns="http://www.w3.org/2000/svg">
<g filter="url(#filter0_dd_701_23290)">
<g clip-path="url(#clip0_701_23290)">
<path d="M1.5 1V6.25H25.5V1L1.5 1Z" fill="#002488"/>
<path d="M1.50052 6.25V19H25.5005V6.25L1.50052 6.25Z" fill="#DA121A"/>
<path d="M5.27111 1.59211C4.98447 2.06481 4.95027 2.44292 5.14591 3.09582C5.2401 3.40051 5.34357 3.85551 5.38704 4.10216C5.44501 4.45037 5.43894 4.48348 5.44708 4.55919C5.51954 4.55919 5.6842 4.55947 5.76034 4.55901C5.77128 4.43845 5.78014 4.2993 5.80584 4.10796C5.83581 3.88485 5.9247 3.41824 6.0203 3.09414C6.21135 2.44649 6.19856 2.04914 5.90149 1.59937C5.7928 1.43251 5.64789 1.29468 5.58268 1.29468C5.51747 1.29468 5.36995 1.42207 5.27111 1.59211Z" fill="#FCDD09"/>
<path d="M5.89569 4.24982C5.87107 4.37454 5.86507 4.41857 5.85272 4.55914C5.94055 4.5595 5.97507 4.5601 6.06068 4.55959C6.07942 4.46502 6.09292 4.4151 6.13422 4.28087C6.29796 3.76173 6.78024 3.55339 6.7585 4.03944C6.75126 4.17365 6.69468 4.24858 6.63171 4.32053C6.70955 4.3011 6.87487 4.22385 7.00892 4.14768C7.75522 3.6979 7.46133 2.5958 6.6788 2.9295C6.27304 3.10361 6.029 3.5856 5.89569 4.24982Z" fill="#FCDD09"/>
<path d="M5.02078 4.74226C5.34825 4.74394 5.91421 4.74695 6.18604 4.74527C6.18636 4.66464 6.18738 4.70579 6.18804 4.64063C5.98792 4.63871 5.22159 4.64189 5.02233 4.64189C5.02279 4.68404 5.02188 4.70445 5.02078 4.74226L5.02078 4.74226Z" fill="#FCDD09"/>
<path d="M4.81464 5.33521C4.81464 5.33521 4.97776 5.35358 5.12989 5.34247C5.28201 5.33136 5.36642 5.31235 5.45633 5.26862C5.43192 5.45012 5.43052 5.62539 5.43052 5.62539C5.45264 5.85897 5.47768 5.91874 5.52827 6.03242C5.59691 6.12725 5.63682 6.12777 5.68728 6.02764C5.74182 5.91552 5.77772 5.80021 5.78911 5.6243C5.78515 5.49246 5.77779 5.43205 5.7466 5.27089C5.85186 5.31649 5.91835 5.32831 6.07538 5.34247C6.23608 5.35695 6.38378 5.34985 6.38378 5.34985C6.38378 5.34985 6.16672 5.24079 6.07118 5.10702C5.97687 4.97498 5.99698 4.99743 5.92841 4.82733C5.84508 4.82338 5.42261 4.82727 5.28856 4.82727C5.21515 4.98235 5.20777 5.01473 5.11709 5.11259C4.99904 5.23998 4.81464 5.33521 4.81464 5.33521Z" fill="#FCDD09"/>
<path d="M4.52057 2.92926C4.92633 3.10337 5.17037 3.58535 5.30368 4.24957C5.3283 4.3743 5.33431 4.41833 5.34665 4.5589C5.25883 4.55926 5.22431 4.55986 5.13869 4.55934C5.11995 4.46478 5.10646 4.41485 5.06515 4.28062C4.90141 3.76149 4.41913 3.55314 4.44087 4.03919C4.44812 4.1734 4.50469 4.24834 4.56766 4.32028C4.48982 4.30085 4.3245 4.2236 4.19046 4.14743C3.44415 3.69766 3.73804 2.59555 4.52057 2.92926V2.92926Z" fill="#FCDD09"/>
<path d="M12.7711 1.59211C12.4845 2.06481 12.4503 2.44292 12.6459 3.09582C12.7401 3.40051 12.8436 3.85551 12.887 4.10216C12.945 4.45037 12.9389 4.48348 12.9471 4.55919C13.0195 4.55919 13.1842 4.55947 13.2603 4.55901C13.2713 4.43845 13.2801 4.2993 13.3058 4.10796C13.3358 3.88485 13.4247 3.41824 13.5203 3.09414C13.7114 2.44649 13.6986 2.04914 13.4015 1.59937C13.2928 1.43251 13.1479 1.29468 13.0827 1.29468C13.0175 1.29468 12.8699 1.42207 12.7711 1.59211Z" fill="#FCDD09"/>
<path d="M14.1788 2.9295C13.773 3.10361 13.529 3.5856 13.3957 4.24982C13.3711 4.37454 13.3651 4.41857 13.3527 4.55914C13.4405 4.5595 13.4751 4.5601 13.5607 4.55959C13.5794 4.46502 13.5929 4.4151 13.6342 4.28087C13.798 3.76173 14.2802 3.55339 14.2585 4.03944C14.2513 4.17365 14.1947 4.24858 14.1317 4.32053C14.2096 4.3011 14.3749 4.22385 14.5089 4.14768C15.2552 3.6979 14.9613 2.5958 14.1788 2.9295V2.9295Z" fill="#FCDD09"/>
<path d="M12.5208 4.74226C12.8483 4.74394 13.4142 4.74695 13.686 4.74527C13.6864 4.66464 13.6874 4.70579 13.688 4.64063C13.4879 4.63871 12.7216 4.64189 12.5223 4.64189C12.5228 4.68404 12.5219 4.70445 12.5208 4.74226L12.5208 4.74226Z" fill="#FCDD09"/>
<path d="M12.6171 5.11259C12.499 5.23998 12.3146 5.33521 12.3146 5.33521C12.3146 5.33521 12.4778 5.35358 12.6299 5.34247C12.782 5.33136 12.8664 5.31235 12.9563 5.26862C12.9319 5.45012 12.9305 5.62539 12.9305 5.62539C12.9526 5.85897 12.9777 5.91874 13.0283 6.03242C13.0969 6.12725 13.1368 6.12777 13.1873 6.02764C13.2418 5.91552 13.2777 5.80021 13.2891 5.6243C13.2852 5.49246 13.2778 5.43205 13.2466 5.27089C13.3519 5.31649 13.4183 5.32831 13.5754 5.34247C13.7361 5.35695 13.8838 5.34985 13.8838 5.34985C13.8838 5.34985 13.6667 5.24079 13.5712 5.10702C13.4769 4.97498 13.497 4.99743 13.4284 4.82733C13.3451 4.82338 12.9226 4.82727 12.7886 4.82727C12.7151 4.98235 12.7078 5.01473 12.6171 5.11259V5.11259Z" fill="#FCDD09"/>
<path d="M12.0206 2.92926C12.4263 3.10337 12.6704 3.58535 12.8037 4.24957C12.8283 4.3743 12.8343 4.41833 12.8467 4.5589C12.7588 4.55926 12.7243 4.55986 12.6387 4.55934C12.62 4.46478 12.6065 4.41485 12.5652 4.28062C12.4014 3.76149 11.9191 3.55314 11.9409 4.03919C11.9481 4.1734 12.0047 4.24834 12.0677 4.32028C11.9898 4.30085 11.8245 4.2236 11.6905 4.14743C10.9442 3.69766 11.238 2.59555 12.0206 2.92926V2.92926Z" fill="#FCDD09"/>
<path d="M20.2711 1.59211C19.9845 2.06481 19.9503 2.44292 20.1459 3.09582C20.2401 3.40051 20.3436 3.85551 20.387 4.10216C20.445 4.45037 20.4389 4.48348 20.4471 4.55919C20.5195 4.55919 20.6842 4.55947 20.7603 4.55901C20.7713 4.43845 20.7801 4.2993 20.8058 4.10796C20.8358 3.88485 20.9247 3.41824 21.0203 3.09414C21.2114 2.44649 21.1986 2.04914 20.9015 1.59937C20.7928 1.43251 20.6479 1.29468 20.5827 1.29468C20.5175 1.29468 20.3699 1.42207 20.2711 1.59211Z" fill="#FCDD09"/>
<path d="M21.6788 2.9295C21.273 3.10361 21.029 3.5856 20.8957 4.24982C20.8711 4.37454 20.8651 4.41857 20.8527 4.55914C20.9405 4.5595 20.9751 4.5601 21.0607 4.55959C21.0794 4.46502 21.0929 4.4151 21.1342 4.28087C21.298 3.76173 21.7802 3.55339 21.7585 4.03944C21.7513 4.17365 21.6947 4.24858 21.6317 4.32053C21.7096 4.3011 21.8749 4.22385 22.0089 4.14768C22.7552 3.6979 22.4613 2.5958 21.6788 2.9295V2.9295Z" fill="#FCDD09"/>
<path d="M20.0208 4.74226C20.3483 4.74394 20.9142 4.74695 21.186 4.74527C21.1864 4.66464 21.1874 4.70579 21.188 4.64063C20.9879 4.63871 20.2216 4.64189 20.0223 4.64189C20.0228 4.68404 20.0219 4.70445 20.0208 4.74226L20.0208 4.74226Z" fill="#FCDD09"/>
<path d="M20.1171 5.11259C19.999 5.23998 19.8146 5.33521 19.8146 5.33521C19.8146 5.33521 19.9778 5.35358 20.1299 5.34247C20.282 5.33136 20.3664 5.31235 20.4563 5.26862C20.4319 5.45012 20.4305 5.62539 20.4305 5.62539C20.4526 5.85897 20.4777 5.91874 20.5283 6.03242C20.5969 6.12725 20.6368 6.12777 20.6873 6.02764C20.7418 5.91552 20.7777 5.80021 20.7891 5.6243C20.7852 5.49246 20.7778 5.43205 20.7466 5.27089C20.8519 5.31649 20.9183 5.32831 21.0754 5.34247C21.2361 5.35695 21.3838 5.34985 21.3838 5.34985C21.3838 5.34985 21.1667 5.24079 21.0712 5.10702C20.9769 4.97498 20.997 4.99743 20.9284 4.82733C20.8451 4.82338 20.4226 4.82727 20.2886 4.82727C20.2151 4.98235 20.2078 5.01473 20.1171 5.11259V5.11259Z" fill="#FCDD09"/>
<path d="M19.5206 2.92926C19.9263 3.10337 20.1704 3.58535 20.3037 4.24957C20.3283 4.3743 20.3343 4.41833 20.3467 4.5589C20.2588 4.55926 20.2243 4.55986 20.1387 4.55934C20.12 4.46478 20.1065 4.41485 20.0652 4.28062C19.9014 3.76149 19.4191 3.55314 19.4409 4.03919C19.4481 4.1734 19.5047 4.24834 19.5677 4.32028C19.4898 4.30085 19.3245 4.2236 19.1905 4.14743C18.4442 3.69766 18.738 2.59555 19.5206 2.92926V2.92926Z" fill="#FCDD09"/>
<path d="M9.97409 10.8463C10.1314 10.9197 10.3323 10.9776 10.4336 10.981C10.5533 10.9851 10.5215 10.9556 10.2981 10.8686C10.1232 10.8002 9.91399 10.6853 9.82114 10.6141C9.65469 10.4779 9.65469 10.4779 9.67213 10.5977C9.6821 10.6661 9.80756 10.7726 9.97409 10.8463Z" fill="#008000"/>
<path d="M8.99551 9.43093C9.09695 9.83718 9.5172 10.5844 9.66212 10.6134C9.79254 10.6352 9.79254 10.6279 9.68385 10.5046C9.50271 10.2942 9.11145 9.52523 9.11145 9.38014C9.11145 9.30035 9.07522 9.24231 9.03174 9.24231C8.98102 9.24231 8.96653 9.31485 8.99551 9.43093Z" fill="#008000"/>
<path d="M4.64034 8.9215C4.63782 8.93579 4.77383 9.04083 4.94426 9.15932C5.11468 9.2778 5.31324 9.44545 5.37915 9.53075C5.49208 9.68328 6.1318 10.0614 6.19181 10.0131C6.25057 9.97188 5.42655 9.30339 5.07814 9.10929C4.66342 8.87401 4.64915 8.87149 4.64034 8.9215Z" fill="#008000"/>
<path d="M4.87376 9.47961C4.87376 9.49412 5.02592 9.57392 5.21431 9.66097C5.4027 9.74802 5.62731 9.8786 5.70702 9.95115C5.84468 10.0817 6.54027 10.3429 6.59099 10.2849C6.64171 10.2341 5.71426 9.71901 5.33749 9.58843C4.88826 9.42883 4.87376 9.42883 4.87376 9.47961Z" fill="#008000"/>
<path d="M8.46141 9.53768C8.46141 9.61748 8.74399 10.1688 8.91064 10.401C9.00484 10.5315 9.11352 10.6041 9.2367 10.6041C9.41784 10.6041 9.41784 10.6041 9.1425 10.2921C8.9831 10.1253 8.77297 9.87139 8.66429 9.73355C8.5556 9.59572 8.46141 9.50866 8.46141 9.53768H8.46141Z" fill="#008000"/>
<path d="M7.29486 11.7709C6.81665 11.9595 6.71521 12.0248 6.71521 12.1264C6.71521 12.1699 6.76593 12.1627 6.84563 12.0974C6.91084 12.0321 7.14995 11.945 7.36732 11.8943C7.58469 11.8435 7.84553 11.7564 7.94697 11.7056L8.12812 11.6113H7.91075C7.79481 11.6186 7.51223 11.6911 7.29486 11.7709Z" fill="#008000"/>
<path d="M6.34673 10.6341C6.22355 10.7284 6.2308 10.7357 6.49889 10.6921C6.65829 10.6704 6.89016 10.6268 7.00609 10.5978C7.19447 10.547 7.17998 10.5398 6.85393 10.5325C6.63656 10.5253 6.43368 10.5688 6.34673 10.6341Z" fill="#008000"/>
<path d="M4.54667 9.87136C5.7422 10.089 8.14052 10.8942 7.99561 11.0321C7.95938 11.0683 7.28553 10.9015 7.19134 10.8362C7.15511 10.7999 6.80007 10.8144 6.4088 10.8652C5.67699 10.945 5.55382 11.0103 5.56831 11.3077C5.57555 11.4528 5.57555 11.4528 5.61178 11.3077C5.67699 11.0393 5.78568 10.9813 6.19868 10.9813C6.64791 10.9813 7.87968 11.1627 8.4231 11.3077C9.14767 11.5109 9.1694 11.5109 8.9303 11.3803C8.61873 11.2062 8.14777 10.887 8.06082 10.7927C7.90141 10.6113 5.01039 9.81332 4.59014 9.82783C4.39451 9.84234 4.38726 9.84234 4.54667 9.87136Z" fill="#008000"/>
<path d="M5.09631 10.258C5.00937 10.3233 4.91517 10.4756 4.89344 10.5989C4.84996 10.8093 4.84996 10.8093 4.96589 10.6715C5.27021 10.287 5.29195 10.2725 5.66872 10.2652C5.97304 10.258 6.01651 10.2435 5.8716 10.1999C5.56728 10.1056 5.26296 10.1274 5.09631 10.258Z" fill="#008000"/>
<path d="M8.78955 10.7056C8.84751 10.8071 9.41267 11.0901 9.45615 11.0465C9.47789 11.0248 9.41267 10.9667 9.32573 10.916C9.23153 10.8652 9.10836 10.7854 9.05764 10.7273C8.94171 10.6185 8.72434 10.5968 8.78955 10.7056Z" fill="#008000"/>
<path d="M8.83314 11.3948C8.89111 11.4963 9.45627 11.7793 9.49974 11.7357C9.52148 11.714 9.45627 11.6559 9.36932 11.6052C9.27513 11.5544 9.15195 11.4746 9.10123 11.4165C8.9853 11.3077 8.76793 11.286 8.83314 11.3948Z" fill="#008000"/>
<path d="M8.02309 10.5311C8.03352 10.521 8.19655 10.5752 8.38996 10.6504C8.58337 10.7256 8.83322 10.7967 8.9407 10.8037C9.13015 10.8121 9.80098 11.1317 9.79452 11.2085C9.79327 11.2803 8.77895 10.9702 8.4234 10.7895C7.99667 10.5768 7.9866 10.5664 8.02309 10.5311Z" fill="#008000"/>
<path d="M9.22322 11.0613C9.08805 11.1136 8.95212 11.2082 8.90988 11.2759C8.85997 11.3558 8.90221 11.3566 9.07654 11.2689C9.21325 11.2005 9.41063 11.1443 9.51892 11.1351C9.72168 11.1251 9.72168 11.1251 9.59265 11.0443C9.51891 10.9982 9.36223 11.0028 9.22322 11.0613Z" fill="#008000"/>
<path d="M5.83228 8.61635C6.0569 9.04436 6.96985 10.031 7.47705 10.4082C7.61472 10.5098 7.86107 10.6113 8.01323 10.6331L8.29581 10.6766L8.08569 10.4445C7.74514 10.0745 7.22345 9.36356 7.0568 9.05162C6.87566 8.71066 6.85392 8.79771 7.00608 9.23298C7.06405 9.40709 7.29591 9.7553 7.52052 10.002C7.74514 10.2559 7.89005 10.4662 7.85383 10.4662C7.75963 10.4662 7.151 9.74805 6.71625 9.12416C6.24529 8.44224 6.22355 8.42048 6.35397 8.79771C6.41918 8.97907 6.5641 9.24749 6.68727 9.39258C6.8032 9.54492 6.87566 9.66825 6.83943 9.66825C6.76697 9.66825 6.44817 9.30552 6.04965 8.7832C5.94097 8.63086 5.78881 8.43499 5.7236 8.34793C5.65114 8.25362 5.70186 8.37695 5.83228 8.61635Z" fill="#008000"/>
<path d="M6.25664 11.4239C5.94508 11.4964 5.77843 11.6052 5.77843 11.7358C5.77843 11.7866 5.80741 11.7793 5.84364 11.7213C5.9016 11.627 6.49575 11.4529 6.55371 11.5109C6.56821 11.5254 6.54647 11.6342 6.50299 11.743C6.45952 11.8519 6.44503 11.9607 6.46677 11.9824C6.4885 12.0115 6.52473 11.9534 6.54647 11.8736C6.63342 11.5617 6.90151 11.4674 7.54637 11.5254C7.87243 11.5544 8.23471 11.5907 8.35064 11.598C8.47382 11.6052 8.64047 11.6487 8.72741 11.6995C8.9158 11.8011 9.64761 11.8083 9.5824 11.7068C9.56067 11.6705 9.423 11.6197 9.27084 11.598C9.12593 11.5762 8.82161 11.5037 8.59699 11.4456C8.14776 11.3295 6.71312 11.315 6.25664 11.4239Z" fill="#008000"/>
<path d="M8.90254 12.2612C8.35646 12.1637 8.09674 12.2508 7.87585 12.5917L7.68738 12.8844L7.92978 12.6543C8.25907 12.3342 8.49838 12.3033 9.09029 12.4755C9.36718 12.5575 9.60201 12.6111 9.61011 12.599C9.65468 12.5329 9.18767 12.305 8.90254 12.2612Z" fill="#008000"/>
<path d="M9.05141 12.4136C8.54421 12.6385 8.37756 12.8561 8.38481 13.2623L8.39205 13.6106L8.46451 13.2841C8.5587 12.8343 8.73985 12.6747 9.32674 12.4861C9.60208 12.3991 9.8267 12.312 9.8267 12.2975C9.8267 12.2177 9.31225 12.2902 9.05141 12.4136Z" fill="#008000"/>
<path d="M8.95514 13.0363C8.86819 13.1524 8.80298 13.3047 8.80298 13.3845C8.80298 13.4788 8.83921 13.4571 8.94065 13.2902C9.02035 13.1596 9.15802 13.0073 9.24496 12.942C9.41161 12.8259 9.41161 12.8259 9.25946 12.8259C9.17251 12.8259 9.04209 12.913 8.95514 13.0363Z" fill="#008000"/>
<path d="M16.7889 14.2185C17.0242 14.3206 18.2449 14.6288 19.1086 14.8821C19.9723 15.1353 20.9821 15.4269 21.2057 15.4583C21.5252 14.7611 20.9437 16.0652 21.2755 15.2748C20.8442 15.1648 19.1439 14.7643 18.4616 14.568C17.8733 14.4031 17.0389 14.1459 16.8252 14.0988C16.6114 14.0516 16.6085 14.14 16.7889 14.2185Z" fill="#008000"/>
<path d="M16.9381 14.0375C17.1768 14.1313 18.4075 14.3967 19.2796 14.6196C20.1516 14.8425 21.1709 15.0986 21.3954 15.1222C21.6904 14.4142 21.1548 15.7379 21.4589 14.9364C21.0239 14.8416 19.3107 14.5007 18.622 14.3283C18.0284 14.1841 17.1854 13.9562 16.9702 13.9166C16.755 13.8769 16.7551 13.9654 16.9381 14.0375Z" fill="#008000"/>
<path d="M16.6002 14.3501C16.8298 14.4644 18.0327 14.8361 18.882 15.1343C19.7313 15.4324 20.7245 15.7765 20.9461 15.8196C21.3016 15.1401 20.6528 16.4119 21.0255 15.64C20.6005 15.5076 18.9235 15.0185 18.2523 14.7867C17.6735 14.5912 16.8536 14.2906 16.6427 14.2324C16.4317 14.1741 16.4242 14.2622 16.6002 14.3501Z" fill="#008000"/>
<path d="M16.4537 14.4987C16.677 14.6248 17.8588 15.0591 18.6914 15.4014C19.5239 15.7436 20.4978 16.1392 20.7168 16.1939C21.1073 15.5339 20.3929 16.77 20.8055 16.0187C20.3879 15.8642 18.7388 15.2879 18.0807 15.0213C17.5129 14.7957 16.7099 14.4526 16.5022 14.3833C16.2946 14.3141 16.2825 14.4017 16.4537 14.4987Z" fill="#008000"/>
<path d="M16.3157 14.6858C16.5345 14.8197 17.7005 15.295 18.5205 15.6662C19.3406 16.0373 20.3001 16.4667 20.5171 16.529C20.9304 15.883 20.1734 17.0934 20.6118 16.357C20.1999 16.188 18.5719 15.5545 17.9235 15.265C17.3639 15.0197 16.5733 14.6487 16.3682 14.5723C16.1631 14.4958 16.1479 14.5829 16.3157 14.6858Z" fill="#008000"/>
<path d="M13.8714 16.5662C14.2079 16.8009 14.3929 17.127 14.3745 17.4636L14.3621 17.7415L14.4725 17.468C14.5934 17.1818 14.5767 16.7485 14.434 16.4275L14.3508 16.2404L14.6151 16.3556C14.9929 16.5151 15.2417 16.7956 15.2936 17.1287L15.3392 17.4032L15.3904 17.1126C15.4491 16.8074 15.3429 16.3872 15.1366 16.1029L15.0163 15.9371L15.2989 15.9948C15.7015 16.0722 16.003 16.2948 16.1231 16.6098L16.2246 16.8688L16.2144 16.5739C16.2085 16.2632 16.0172 15.8742 15.7565 15.6391L15.6044 15.502L15.8927 15.4996C16.3026 15.4915 16.6438 15.6464 16.8266 15.9297L16.9797 16.1618L16.9085 15.8755C16.8382 15.573 16.5704 15.2322 16.2665 15.0566L16.0892 14.954L16.3708 14.8918C16.7701 14.7984 17.136 14.879 17.3736 15.118L17.5715 15.3132L17.4423 15.048C17.3108 14.7666 16.978 14.489 16.6443 14.3804L16.4496 14.3172L16.7121 14.1976C17.0832 14.0232 17.4579 14.0259 17.7399 14.2101L17.9741 14.3599L17.7927 14.1273C17.6056 13.8794 17.2225 13.6772 16.8735 13.6406L16.67 13.6192L16.9019 13.4475C17.2287 13.1998 17.5957 13.1243 17.9098 13.2458L18.17 13.3435L17.9443 13.1539C17.7098 12.9504 17.2931 12.8323 16.9441 12.8691L16.7406 12.8904L16.9318 12.6743C17.2 12.3639 17.5433 12.2137 17.8758 12.2672L18.1506 12.3086L17.8904 12.1701C17.6187 12.0199 17.1866 11.9911 16.8529 12.0997L16.6582 12.163L16.8003 11.9118C16.9982 11.5523 17.3028 11.334 17.6392 11.317L17.9166 11.3004L17.6333 11.2191C17.3364 11.1287 16.9077 11.1906 16.6038 11.3661L16.4265 11.4686L16.5135 11.1933C16.6324 10.8005 16.885 10.5236 17.2105 10.437L17.4784 10.3629L17.1844 10.3424C16.8752 10.3157 16.4688 10.4654 16.208 10.7005L16.0559 10.8376L16.0837 10.5503C16.1184 10.1412 16.308 9.81779 16.6084 9.66527L16.8551 9.53713L16.5633 9.57816C16.2553 9.6165 15.8888 9.84752 15.6826 10.1318L15.5623 10.2976L15.5298 10.0107C15.4789 9.60346 15.5971 9.24746 15.8593 9.03588L16.0739 8.85916L15.797 8.96003C15.5037 9.06163 15.1933 9.36389 15.0505 9.68485L14.9673 9.87214L14.876 9.59825C14.7415 9.21049 14.7833 8.8377 14.9958 8.57617L15.1691 8.35864L14.9191 8.51491C14.6534 8.67534 14.4125 9.0356 14.3395 9.37926L14.297 9.57977L14.1507 9.33095C13.9387 8.97952 13.9022 8.60631 14.0557 8.30616L14.18 8.05735L13.968 8.2622C13.7413 8.47451 13.5805 8.87714 13.5805 9.22843V9.43333L13.3858 9.22038C13.1055 8.92092 12.9923 8.56331 13.0801 8.23782L13.1499 7.96851L12.9851 8.21316C12.8075 8.46788 12.7338 8.89516 12.8068 9.2389L12.8493 9.43932L12.6146 9.27152C12.2782 9.03688 12.0932 8.71075 12.1115 8.37405L12.1239 8.09609L12.0135 8.36971C11.8927 8.6559 11.9093 9.08913 12.052 9.41009L12.1352 9.59738L11.8709 9.4821C11.4931 9.32262 11.2443 9.04215 11.1924 8.70906L11.1468 8.43458L11.0957 8.72512C11.0369 9.03016 11.1431 9.45058 11.3494 9.7348L11.4697 9.90054L11.1872 9.84281C10.7845 9.76545 10.483 9.54294 10.363 9.22783L10.2614 8.96886L10.2717 9.26374C10.2776 9.57441 10.4688 9.96345 10.7296 10.1985L10.8817 10.3356L10.5933 10.338C10.1834 10.3461 9.84225 10.1912 9.65943 9.90805L9.50632 9.67583L9.5776 9.96207C9.64787 10.2647 9.91567 10.6055 10.2196 10.7812L10.3968 10.8837L10.1153 10.9459C9.716 11.0392 9.3501 10.9587 9.11251 10.7198L8.91452 10.5245L9.04369 10.7897C9.17529 11.0711 9.50801 11.3486 9.84174 11.4572L10.0364 11.5205L9.77394 11.6401C9.40278 11.8145 9.02816 11.8118 8.7461 11.6276L8.51189 11.4778L8.69329 11.7103C8.88044 11.9582 9.26352 12.1604 9.61251 12.1971L9.81607 12.2186L9.58413 12.3901C9.2573 12.638 8.89031 12.7134 8.57618 12.5918L8.31596 12.4942L8.54168 12.6838C8.77622 12.8873 9.19292 13.0054 9.54192 12.9686L9.74547 12.9473L9.55425 13.1633C9.28604 13.4738 8.94272 13.6239 8.61022 13.5705L8.33543 13.529L8.59564 13.6676C8.86732 13.8178 9.29943 13.8466 9.63316 13.738L9.82785 13.6747L9.68571 13.9259C9.48782 14.2854 9.18319 14.5038 8.84685 14.5206L8.56946 14.5372L8.85275 14.6186C9.14965 14.709 9.57829 14.6471 9.88218 14.4715L10.0595 14.369L9.97261 14.6443C9.85367 15.0372 9.60109 15.3142 9.27558 15.4007L9.00769 15.4748L9.30167 15.4954C9.61086 15.5219 10.0173 15.3722 10.2781 15.1371L10.4302 15L10.4023 15.2875C10.3676 15.6964 10.178 16.0199 9.87761 16.1723L9.63097 16.3006L9.9228 16.2596C10.2308 16.2212 10.5972 15.9901 10.8035 15.7059L10.9238 15.5401L10.9563 15.827C11.0072 16.2343 10.889 16.5901 10.6268 16.8018L10.4121 16.9785L10.689 16.8777C10.9823 16.7761 11.2928 16.4737 11.4355 16.1528L11.5187 15.9656L11.6101 16.2394C11.7445 16.6272 11.7027 16.9999 11.4902 17.2615L11.3169 17.4791L11.5669 17.3227C11.8326 17.1624 12.0736 16.802 12.1465 16.4584L12.1891 16.2579L12.3353 16.5068C12.5473 16.8581 12.5838 17.2314 12.4303 17.5315L12.306 17.7804L12.518 17.5754C12.7447 17.3632 12.9055 16.9606 12.9055 16.6093V16.4043L13.1002 16.6173C13.3805 16.9168 13.4937 17.2744 13.406 17.5999L13.3361 17.8692L13.5009 17.6245C13.6785 17.3697 13.7522 16.9425 13.6792 16.5988L13.6367 16.3984L13.8714 16.5662Z" fill="#FCDD09"/>
</g>
<rect x="1.75" y="1.25" width="23.5" height="17.5" stroke="black" stroke-opacity="0.1" stroke-width="0.5" shape-rendering="crispEdges"/>
</g>
<defs>
<filter id="filter0_dd_701_23290" x="0" y="0" width="27" height="21" filterUnits="userSpaceOnUse" color-interpolation-filters="sRGB">
<feFlood flood-opacity="0" result="BackgroundImageFix"/>
<feColorMatrix in="SourceAlpha" type="matrix" values="0 0 0 0 0 0 0 0 0 0 0 0 0 0 0 0 0 0 127 0" result="hardAlpha"/>
<feOffset dy="0.5"/>
<feGaussianBlur stdDeviation="0.75"/>
<feComposite in2="hardAlpha" operator="out"/>
<feColorMatrix type="matrix" values="0 0 0 0 0 0 0 0 0 0 0 0 0 0 0 0 0 0 0.1 0"/>
<feBlend mode="multiply" in2="BackgroundImageFix" result="effect1_dropShadow_701_23290"/>
<feColorMatrix in="SourceAlpha" type="matrix" values="0 0 0 0 0 0 0 0 0 0 0 0 0 0 0 0 0 0 127 0" result="hardAlpha"/>
<feOffset/>
<feGaussianBlur stdDeviation="0.5"/>
<feComposite in2="hardAlpha" operator="out"/>
<feColorMatrix type="matrix" values="0 0 0 0 0 0 0 0 0 0 0 0 0 0 0 0 0 0 0.11 0"/>
<feBlend mode="multiply" in2="effect1_dropShadow_701_23290" result="effect2_dropShadow_701_23290"/>
<feBlend mode="normal" in="SourceGraphic" in2="effect2_dropShadow_701_23290" result="shape"/>
</filter>
<clipPath id="clip0_701_23290">
<rect x="1.5" y="1" width="24" height="18" fill="white"/>
</clipPath>
</defs>
</svg>
