<svg width="27" height="21" viewBox="0 0 27 21" fill="none" xmlns="http://www.w3.org/2000/svg">
<g filter="url(#filter0_dd_701_21407)">
<g clip-path="url(#clip0_701_21407)">
<rect x="1.5" y="1" width="24" height="18" fill="white"/>
<path d="M10.1159 10.3201L16.9325 18.5H2V1.84227L16.0392 9.5H10.5H9.43248L10.1159 10.3201Z" fill="#C51918" stroke="#4857A1"/>
<mask id="mask0_701_21407" style="mask-type:alpha" maskUnits="userSpaceOnUse" x="1" y="1" width="17" height="18">
<path d="M10.1159 10.3201L16.9325 18.5H2V1.84227L16.0392 9.5H10.5H9.43248L10.1159 10.3201Z" fill="white" stroke="white"/>
</mask>
<g mask="url(#mask0_701_21407)">
<path fill-rule="evenodd" clip-rule="evenodd" d="M5.87222 16.0077L4.95335 17.2002L4.91093 15.6953L3.46658 16.12L4.31682 14.8776L2.89868 14.3722L4.31682 13.8668L3.46658 12.6244L4.91093 13.0491L4.95335 11.5442L5.87222 12.7368L6.7911 11.5442L6.83351 13.0491L8.27787 12.6244L7.42763 13.8668L8.84576 14.3722L7.42763 14.8776L8.27787 16.12L6.83351 15.6953L6.7911 17.2002L5.87222 16.0077Z" fill="#F7FCFF"/>
<path fill-rule="evenodd" clip-rule="evenodd" d="M5.85004 7.1041L5.37016 7.72691L5.34801 6.94098L4.5937 7.16278L5.03774 6.51393L4.29712 6.25L5.03774 5.98607L4.5937 5.33722L5.34801 5.55902L5.37016 4.77309L5.85004 5.3959L6.32991 4.77309L6.35207 5.55902L7.10637 5.33722L6.66234 5.98607L7.40295 6.25L6.66234 6.51393L7.10637 7.16278L6.35207 6.94098L6.32991 7.72691L5.85004 7.1041Z" fill="#F7FCFF"/>
<path fill-rule="evenodd" clip-rule="evenodd" d="M5.74954 6.9206C7.41928 6.92727 8.30953 5.98003 8.30953 5.98003C8.48565 7.0609 7.12589 7.78003 5.76582 7.78003C4.40575 7.78003 3.5823 6.79977 3.07498 5.98003C3.07498 5.98003 4.0798 6.91393 5.74954 6.9206Z" fill="#F9FAFA"/>
</g>
</g>
<rect x="1.75" y="1.25" width="23.5" height="17.5" stroke="black" stroke-opacity="0.1" stroke-width="0.5" shape-rendering="crispEdges"/>
</g>
<defs>
<filter id="filter0_dd_701_21407" x="0" y="0" width="27" height="21" filterUnits="userSpaceOnUse" color-interpolation-filters="sRGB">
<feFlood flood-opacity="0" result="BackgroundImageFix"/>
<feColorMatrix in="SourceAlpha" type="matrix" values="0 0 0 0 0 0 0 0 0 0 0 0 0 0 0 0 0 0 127 0" result="hardAlpha"/>
<feOffset dy="0.5"/>
<feGaussianBlur stdDeviation="0.75"/>
<feComposite in2="hardAlpha" operator="out"/>
<feColorMatrix type="matrix" values="0 0 0 0 0 0 0 0 0 0 0 0 0 0 0 0 0 0 0.1 0"/>
<feBlend mode="multiply" in2="BackgroundImageFix" result="effect1_dropShadow_701_21407"/>
<feColorMatrix in="SourceAlpha" type="matrix" values="0 0 0 0 0 0 0 0 0 0 0 0 0 0 0 0 0 0 127 0" result="hardAlpha"/>
<feOffset/>
<feGaussianBlur stdDeviation="0.5"/>
<feComposite in2="hardAlpha" operator="out"/>
<feColorMatrix type="matrix" values="0 0 0 0 0 0 0 0 0 0 0 0 0 0 0 0 0 0 0.11 0"/>
<feBlend mode="multiply" in2="effect1_dropShadow_701_21407" result="effect2_dropShadow_701_21407"/>
<feBlend mode="normal" in="SourceGraphic" in2="effect2_dropShadow_701_21407" result="shape"/>
</filter>
<clipPath id="clip0_701_21407">
<rect x="1.5" y="1" width="24" height="18" fill="white"/>
</clipPath>
</defs>
</svg>
