<svg width="27" height="21" viewBox="0 0 27 21" fill="none" xmlns="http://www.w3.org/2000/svg">
<g filter="url(#filter0_dd_701_24852)">
<g clip-path="url(#clip0_701_24852)">
<mask id="mask0_701_24852" style="mask-type:alpha" maskUnits="userSpaceOnUse" x="1" y="1" width="25" height="18">
<rect x="1.5" y="1" width="24" height="18" fill="white"/>
</mask>
<g mask="url(#mask0_701_24852)">
<path fill-rule="evenodd" clip-rule="evenodd" d="M1.5 1V19H25.5V1H1.5Z" fill="#AF0100"/>
<mask id="mask1_701_24852" style="mask-type:alpha" maskUnits="userSpaceOnUse" x="1" y="1" width="25" height="18">
<path fill-rule="evenodd" clip-rule="evenodd" d="M1.5 1V19H25.5V1H1.5Z" fill="white"/>
</mask>
<g mask="url(#mask1_701_24852)">
<path fill-rule="evenodd" clip-rule="evenodd" d="M17.2723 9.28198L23.9389 9.28198V16.0244C23.9389 16.0244 23.7319 16.9526 22.4487 17.5655C21.1654 18.1784 20.6056 18.1784 20.6056 18.1784C20.6056 18.1784 18.5615 17.6761 18.1389 17.2058C17.7163 16.7354 17.2723 16.5615 17.2723 15.7393C17.2723 14.9171 17.2723 9.28198 17.2723 9.28198Z" fill="white"/>
<mask id="mask2_701_24852" style="mask-type:alpha" maskUnits="userSpaceOnUse" x="17" y="9" width="7" height="10">
<path fill-rule="evenodd" clip-rule="evenodd" d="M17.2723 9.28198L23.9389 9.28198V16.0244C23.9389 16.0244 23.7319 16.9526 22.4487 17.5655C21.1654 18.1784 20.6056 18.1784 20.6056 18.1784C20.6056 18.1784 18.5615 17.6761 18.1389 17.2058C17.7163 16.7354 17.2723 16.5615 17.2723 15.7393C17.2723 14.9171 17.2723 9.28198 17.2723 9.28198Z" fill="white"/>
</mask>
<g mask="url(#mask2_701_24852)">
<path fill-rule="evenodd" clip-rule="evenodd" d="M20.5916 9.67749C20.6166 9.64138 20.6297 9.60681 20.6297 9.60681L20.6274 9.71961C20.6512 9.74179 20.6805 9.75835 20.7149 9.75835L20.8627 9.67082C20.8627 9.67082 20.8287 9.86422 20.8733 9.85875C20.8733 9.85875 21.0111 9.76768 21.0657 9.81685C21.0657 9.81685 20.9053 10.0006 21.0985 10.0018C21.0985 10.0018 21.3412 9.96274 21.3202 10.0755C21.3202 10.0755 21.1383 10.4095 21.2147 10.4307L21.5151 10.4219C21.5151 10.4219 21.3138 10.5969 21.3192 10.6706L21.4195 10.7494C21.4195 10.7494 21.4757 10.611 21.523 10.7242C21.523 10.7242 21.5292 10.9298 21.4977 10.9298L21.2307 11.0153C21.2307 11.0153 21.2134 11.1159 21.3089 11.1159C21.3089 11.1159 21.5298 11.0223 21.5361 11.1173C21.5361 11.1173 21.507 11.2272 21.4941 11.3199C21.4941 11.3199 21.4801 11.6563 21.478 11.6853C21.478 11.6853 21.4955 11.6727 21.6635 11.8707C21.6635 11.8707 22.0876 12.1387 22.1654 12.077C22.1868 12.06 22.2008 12.0251 22.2167 11.9857C22.2583 11.8823 22.3125 11.7474 22.547 11.8202L22.5491 11.8209C22.8713 11.9209 22.9496 11.9452 22.8682 12.077C22.7865 12.2092 22.4764 12.524 22.4764 12.524L22.2075 13.6025H22.7834C22.9572 13.6025 23.1168 13.6699 23.1474 13.8139C23.178 13.958 23.186 14.238 23.186 14.2713C23.186 14.2759 23.1853 14.2821 23.1844 14.2894C23.1789 14.3362 23.168 14.429 23.3056 14.429C23.3056 14.429 23.5811 14.4646 23.524 14.4846C23.524 14.4846 23.3288 14.447 23.3274 14.6188C23.3274 14.6188 23.2524 14.6409 23.2887 14.8531C23.2887 14.8531 23.4402 15.3179 23.3397 15.2221C23.3397 15.2221 23.1338 14.9804 23.1338 14.8775C23.1338 14.8775 22.9868 14.9354 22.9913 15.0869C22.9913 15.0869 22.8522 15.273 22.8564 15.091C22.8564 15.091 23.0921 14.644 22.9604 14.7453C22.9604 14.7453 22.7897 15.1144 22.7673 15.0584L22.1344 14.8873L21.8932 15.9483C21.8932 15.9483 21.9575 16.1474 22.1344 16.1474C22.1985 16.1474 22.2554 16.1224 22.3074 16.0995C22.3988 16.0594 22.4747 16.026 22.547 16.1474C22.6606 16.3379 22.7111 16.3557 22.7673 16.3557C22.8236 16.3557 22.8892 16.4288 22.8564 16.5405C22.8236 16.6523 22.6761 16.7363 22.6116 16.7363C22.5878 16.7363 22.5941 16.7565 22.602 16.782C22.6157 16.8258 22.6342 16.8854 22.514 16.8854C22.4188 16.8854 22.3712 16.874 22.3236 16.8626C22.2762 16.8512 22.2288 16.8399 22.1344 16.8399C22.1122 16.8399 22.0902 16.8401 22.0687 16.8404C21.9062 16.8422 21.768 16.8438 21.768 16.7363C21.768 16.6321 21.6428 16.5398 21.5319 16.458C21.5133 16.4443 21.4951 16.4309 21.478 16.4178C21.3587 16.3265 21.0985 15.2944 21.0985 15.2944L20.6063 12.1945L20.5916 11.475L20.5769 12.1945L20.0847 15.2944C20.0847 15.2944 19.8244 16.3265 19.7052 16.4178C19.688 16.4309 19.6699 16.4443 19.6513 16.458C19.5404 16.5398 19.4151 16.6321 19.4151 16.7363C19.4151 16.8438 19.277 16.8422 19.1144 16.8404C19.0929 16.8401 19.0709 16.8399 19.0488 16.8399C18.9543 16.8399 18.907 16.8512 18.8595 16.8626C18.812 16.874 18.7643 16.8854 18.6691 16.8854C18.5489 16.8854 18.5675 16.8258 18.5811 16.782C18.5891 16.7565 18.5953 16.7363 18.5716 16.7363C18.5071 16.7363 18.3596 16.6523 18.3267 16.5405C18.2939 16.4288 18.3596 16.3557 18.4158 16.3557C18.472 16.3557 18.5225 16.3379 18.6361 16.1474C18.7085 16.026 18.7844 16.0594 18.8757 16.0995C18.9277 16.1224 18.9846 16.1474 19.0488 16.1474C19.2257 16.1474 19.2899 15.9483 19.2899 15.9483L19.0488 14.8873L18.4158 15.0584C18.3934 15.1144 18.2228 14.7453 18.2228 14.7453C18.0911 14.644 18.3267 15.091 18.3267 15.091C18.331 15.273 18.1918 15.0869 18.1918 15.0869C18.1964 14.9354 18.0494 14.8775 18.0494 14.8775C18.0494 14.9804 17.8435 15.2221 17.8435 15.2221C17.743 15.3179 17.8944 14.8531 17.8944 14.8531C17.9308 14.6409 17.8557 14.6188 17.8557 14.6188C17.8544 14.447 17.6591 14.4846 17.6591 14.4846C17.6021 14.4646 17.8776 14.429 17.8776 14.429C18.0151 14.429 18.0042 14.3362 17.9987 14.2894C17.9978 14.2821 17.9971 14.2759 17.9971 14.2713C17.9971 14.238 18.0051 13.958 18.0357 13.8139C18.0663 13.6699 18.226 13.6025 18.3997 13.6025H18.9756L18.7067 12.524C18.7067 12.524 18.3966 12.2092 18.315 12.077C18.2335 11.9452 18.3118 11.9209 18.634 11.8209L18.6361 11.8202C18.8706 11.7474 18.9249 11.8823 18.9665 11.9857C18.9823 12.0251 18.9963 12.06 19.0178 12.077C19.0955 12.1387 19.5196 11.8707 19.5196 11.8707C19.6877 11.6727 19.7052 11.6853 19.7052 11.6853C19.7031 11.6563 19.689 11.3199 19.689 11.3199C19.6762 11.2272 19.647 11.1173 19.647 11.1173C19.6533 11.0223 19.8743 11.1159 19.8743 11.1159C19.9697 11.1159 19.9525 11.0153 19.9525 11.0153L19.6854 10.9298C19.6539 10.9298 19.6601 10.7242 19.6601 10.7242C19.7075 10.611 19.7637 10.7494 19.7637 10.7494L19.8639 10.6706C19.8693 10.5969 19.668 10.4219 19.668 10.4219L19.9684 10.4307C20.0449 10.4095 19.8629 10.0755 19.8629 10.0755C19.8419 9.96274 20.0847 10.0018 20.0847 10.0018C20.2778 10.0006 20.1174 9.81685 20.1174 9.81685C20.172 9.76768 20.3098 9.85875 20.3098 9.85875C20.3544 9.86422 20.3205 9.67082 20.3205 9.67082L20.4682 9.75835C20.5026 9.75835 20.5319 9.74179 20.5557 9.71961L20.5534 9.60681C20.5534 9.60681 20.5665 9.64138 20.5916 9.67749Z" fill="#CF142B"/>
<path fill-rule="evenodd" clip-rule="evenodd" d="M17.4168 16L17.1715 15.7589V18.4911H20.0756H21.0959H24V15.7589L23.7547 16C23.7915 15.7118 23.7358 15.8045 23.6693 15.9152C23.6378 15.9676 23.6039 16.0241 23.5762 16.0461C23.5502 16.0669 23.5443 15.9827 23.5384 15.9001C23.5333 15.8272 23.5282 15.7555 23.5094 15.7589C23.5094 15.7589 23.4351 15.6405 23.3895 15.6853C23.3804 15.6943 23.3736 15.7602 23.3659 15.8349C23.3576 15.9155 23.3483 16.0062 23.3338 16.0461C23.317 16.0926 23.2642 16 23.2642 16C23.2642 16 23.2668 15.6499 23.2132 15.5972C23.1596 15.5445 23.1543 16 23.1543 16C23.1543 16 23.0721 15.6625 22.9891 15.6853C22.9752 15.6891 22.9679 15.7774 22.9602 15.8723C22.9526 15.9646 22.9445 16.0632 22.9292 16.0967C22.8979 16.1653 22.8245 15.6853 22.8245 15.6853C22.8245 15.6853 22.8027 16.0784 22.7294 16.0967C22.7171 16.0997 22.7058 16.0362 22.6933 15.966C22.6813 15.8986 22.6682 15.8251 22.6521 15.7985C22.6182 15.7424 22.4583 15.9621 22.4583 15.9621L22.3466 15.5085L22.0378 15.7589H21.0959H20.0756H19.1337L18.825 15.5085L18.7132 15.9621C18.7132 15.9621 18.5533 15.7424 18.5194 15.7985C18.5033 15.8251 18.4902 15.8986 18.4782 15.966C18.4657 16.0362 18.4544 16.0997 18.4421 16.0967C18.3688 16.0784 18.347 15.6853 18.347 15.6853C18.347 15.6853 18.2736 16.1653 18.2423 16.0967C18.227 16.0632 18.2189 15.9646 18.2114 15.8723C18.2036 15.7774 18.1963 15.6891 18.1824 15.6853C18.0995 15.6625 18.0173 16 18.0173 16C18.0173 16 18.0119 15.5445 17.9583 15.5972C17.9047 15.6499 17.9073 16 17.9073 16C17.9073 16 17.8545 16.0926 17.8377 16.0461C17.8232 16.0062 17.8139 15.9155 17.8056 15.8349C17.7979 15.7602 17.7911 15.6943 17.782 15.6853C17.7364 15.6405 17.6621 15.7589 17.6621 15.7589C17.6433 15.7555 17.6382 15.8272 17.6331 15.9001C17.6273 15.9827 17.6213 16.0669 17.5953 16.0461C17.5676 16.0241 17.5337 15.9676 17.5022 15.9152C17.4357 15.8045 17.38 15.7118 17.4168 16Z" fill="#5DC852"/>
<path fill-rule="evenodd" clip-rule="evenodd" d="M22.6352 12.2049C22.6352 12.2049 22.6674 12.2877 22.6352 12.3693V12.2049ZM20.6144 12.0719C20.6696 12.0802 20.7193 12.0936 20.7617 12.1051C20.8605 12.1319 20.92 12.148 20.92 12.0639C20.92 12.0027 21.0822 12.0819 21.3059 12.1912C21.5973 12.3335 21.993 12.5268 22.2703 12.5268C22.5119 12.5268 22.604 12.4486 22.6352 12.3693V12.6882C22.6352 12.7451 22.6478 12.8127 22.6596 12.8762C22.6812 12.9927 22.7003 13.0959 22.6352 13.0959C22.5347 13.0959 22.0843 13.4126 22.0843 13.7774C22.0843 14.1422 22.6352 14.4419 22.6352 14.4419C22.6352 14.4419 22.2703 15.7262 21.9511 15.9224C21.7573 16.0414 21.6424 15.9437 21.5821 15.8923C21.543 15.8591 21.5267 15.8452 21.5267 15.9224C21.5267 16.1186 21.25 16.3953 20.92 16.5045C20.7067 16.5751 20.7692 16.6293 20.8401 16.6907C20.8788 16.7243 20.92 16.76 20.92 16.8018C20.92 16.8962 20.6597 16.7642 20.5552 16.7074C20.4508 16.7642 20.1904 16.8962 20.1904 16.8018C20.1904 16.76 20.2317 16.7243 20.2704 16.6907C20.3413 16.6293 20.4038 16.5751 20.1904 16.5045C19.8605 16.3953 19.5837 16.1186 19.5837 15.9224C19.5837 15.8452 19.5675 15.8591 19.5284 15.8923C19.468 15.9437 19.3532 16.0414 19.1594 15.9224C18.8402 15.7262 18.4752 14.4419 18.4752 14.4419C18.4752 14.4419 19.0261 14.1422 19.0261 13.7774C19.0261 13.4126 18.5758 13.0959 18.4752 13.0959C18.4102 13.0959 18.4293 12.9927 18.4509 12.8762C18.4627 12.8127 18.4752 12.7451 18.4752 12.6882V12.3693C18.5065 12.4486 18.5986 12.5268 18.8402 12.5268C19.1175 12.5268 19.5132 12.3335 19.8046 12.1912C20.0283 12.0819 20.1904 12.0027 20.1904 12.0639C20.1904 12.148 20.25 12.1319 20.3488 12.1051C20.3912 12.0936 20.4408 12.0802 20.4961 12.0719C20.5013 12.0666 20.5068 12.0639 20.5126 12.0639C20.5271 12.0639 20.5413 12.0645 20.5552 12.0654C20.5692 12.0645 20.5834 12.0639 20.5979 12.0639C20.6036 12.0639 20.6092 12.0666 20.6144 12.0719ZM18.4752 12.2049C18.4752 12.2049 18.4431 12.2877 18.4752 12.3693V12.2049Z" fill="#4ABCE6"/>
<mask id="mask3_701_24852" style="mask-type:alpha" maskUnits="userSpaceOnUse" x="18" y="12" width="5" height="5">
<path fill-rule="evenodd" clip-rule="evenodd" d="M22.6352 12.2049C22.6352 12.2049 22.6674 12.2877 22.6352 12.3693V12.2049ZM20.6144 12.0719C20.6696 12.0802 20.7193 12.0936 20.7617 12.1051C20.8605 12.1319 20.92 12.148 20.92 12.0639C20.92 12.0027 21.0822 12.0819 21.3059 12.1912C21.5973 12.3335 21.993 12.5268 22.2703 12.5268C22.5119 12.5268 22.604 12.4486 22.6352 12.3693V12.6882C22.6352 12.7451 22.6478 12.8127 22.6596 12.8762C22.6812 12.9927 22.7003 13.0959 22.6352 13.0959C22.5347 13.0959 22.0843 13.4126 22.0843 13.7774C22.0843 14.1422 22.6352 14.4419 22.6352 14.4419C22.6352 14.4419 22.2703 15.7262 21.9511 15.9224C21.7573 16.0414 21.6424 15.9437 21.5821 15.8923C21.543 15.8591 21.5267 15.8452 21.5267 15.9224C21.5267 16.1186 21.25 16.3953 20.92 16.5045C20.7067 16.5751 20.7692 16.6293 20.8401 16.6907C20.8788 16.7243 20.92 16.76 20.92 16.8018C20.92 16.8962 20.6597 16.7642 20.5552 16.7074C20.4508 16.7642 20.1904 16.8962 20.1904 16.8018C20.1904 16.76 20.2317 16.7243 20.2704 16.6907C20.3413 16.6293 20.4038 16.5751 20.1904 16.5045C19.8605 16.3953 19.5837 16.1186 19.5837 15.9224C19.5837 15.8452 19.5675 15.8591 19.5284 15.8923C19.468 15.9437 19.3532 16.0414 19.1594 15.9224C18.8402 15.7262 18.4752 14.4419 18.4752 14.4419C18.4752 14.4419 19.0261 14.1422 19.0261 13.7774C19.0261 13.4126 18.5758 13.0959 18.4752 13.0959C18.4102 13.0959 18.4293 12.9927 18.4509 12.8762C18.4627 12.8127 18.4752 12.7451 18.4752 12.6882V12.3693C18.5065 12.4486 18.5986 12.5268 18.8402 12.5268C19.1175 12.5268 19.5132 12.3335 19.8046 12.1912C20.0283 12.0819 20.1904 12.0027 20.1904 12.0639C20.1904 12.148 20.25 12.1319 20.3488 12.1051C20.3912 12.0936 20.4408 12.0802 20.4961 12.0719C20.5013 12.0666 20.5068 12.0639 20.5126 12.0639C20.5271 12.0639 20.5413 12.0645 20.5552 12.0654C20.5692 12.0645 20.5834 12.0639 20.5979 12.0639C20.6036 12.0639 20.6092 12.0666 20.6144 12.0719ZM18.4752 12.2049C18.4752 12.2049 18.4431 12.2877 18.4752 12.3693V12.2049Z" fill="white"/>
</mask>
<g mask="url(#mask3_701_24852)">
<path fill-rule="evenodd" clip-rule="evenodd" d="M18.3488 13.6696C18.3488 13.6696 19.9888 13.4949 20.9517 13.4949C21.9147 13.4949 21.3969 13.5541 21.767 13.5957C22.1371 13.6372 22.5087 13.6696 22.5087 13.6696V16.9642H18.3488V13.6696Z" fill="white"/>
<path fill-rule="evenodd" clip-rule="evenodd" d="M18.7386 13.2045C18.7386 13.2045 18.6046 12.9419 19.1483 12.848C19.692 12.754 19.8602 12.7145 20.0663 12.9595C20.2723 13.2045 20.6911 14.2593 20.3787 14.5428C20.0663 14.8262 19.8486 15.1245 19.725 15.0207C19.6014 14.917 19.8658 14.5428 19.2121 14.5428C18.5584 14.5428 18.3351 14.5428 18.3351 14.5428L18.7386 13.2045Z" fill="#FFDA3A"/>
<path fill-rule="evenodd" clip-rule="evenodd" d="M21.493 13.4591L20.3208 13.8185C20.3208 13.8185 20.4271 14.6186 20.1247 14.6186C19.8224 14.6186 19.6936 12.8867 19.6936 12.8867H19.5687L19.967 14.7914L19.6936 14.9683L20.5308 15.3405L21.9502 14.6186L21.493 13.4591Z" fill="#B35A1F"/>
</g>
<path fill-rule="evenodd" clip-rule="evenodd" d="M19.8046 12.1912C19.5132 12.3335 19.1175 12.5268 18.8402 12.5268C18.6464 12.5268 18.5247 12.4891 18.4752 12.4136L18.4752 12.2049C18.4413 12.2922 18.4413 12.3618 18.4752 12.4136V12.6882C18.4752 12.7451 18.4627 12.8127 18.4509 12.8762C18.4293 12.9927 18.4102 13.0959 18.4752 13.0959C18.5758 13.0959 19.0261 13.4126 19.0261 13.7774C19.0261 14.0206 18.8425 14.2421 18.4752 14.4419C18.7185 15.2981 18.9466 15.7916 19.1594 15.9224C19.3307 16.0276 19.4403 15.9635 19.5081 15.9093C19.5155 15.9033 19.5222 15.8976 19.5284 15.8923C19.5675 15.8591 19.5837 15.8452 19.5837 15.9224C19.5837 15.9295 19.5841 15.9367 19.5853 15.9484C19.6079 16.1423 19.8748 16.4001 20.1904 16.5045C20.4038 16.5751 20.3413 16.6293 20.2704 16.6907C20.2317 16.7243 20.1904 16.76 20.1904 16.8018C20.1904 16.8763 20.312 16.845 20.5552 16.708C20.7984 16.845 20.92 16.8763 20.92 16.8018C20.92 16.76 20.8788 16.7243 20.8401 16.6907C20.7692 16.6293 20.7067 16.5751 20.92 16.5045C21.2356 16.4001 21.5025 16.1423 21.5256 15.944C21.5264 15.9367 21.5267 15.9295 21.5267 15.9224C21.5267 15.8453 21.5429 15.859 21.5839 15.8938C21.5904 15.8993 21.5975 15.9054 21.6053 15.9117C21.6702 15.9635 21.7798 16.0276 21.9511 15.9224C22.1639 15.7916 22.3919 15.2981 22.6352 14.4419C22.268 14.2421 22.0843 14.0206 22.0843 13.7774C22.0843 13.4126 22.5347 13.0959 22.6352 13.0959C22.7003 13.0959 22.6812 12.9927 22.6596 12.8762C22.6478 12.8127 22.6352 12.7451 22.6352 12.6882V12.4136C22.6692 12.3618 22.6692 12.2922 22.6352 12.2049V12.4136C22.5857 12.4891 22.4641 12.5268 22.2703 12.5268C21.993 12.5268 21.5973 12.3335 21.3059 12.1912C21.0822 12.0819 20.92 12.0027 20.92 12.0639C20.92 12.148 20.8605 12.1319 20.7617 12.1051C20.72 12.0939 20.6715 12.0807 20.6174 12.0724C20.6112 12.0667 20.6047 12.0639 20.5979 12.0639C20.5834 12.0639 20.5692 12.0645 20.5552 12.0654C20.5413 12.0645 20.5271 12.0639 20.5126 12.0639C20.5058 12.0639 20.4993 12.0667 20.493 12.0724C20.439 12.0807 20.3904 12.0939 20.3488 12.1051C20.25 12.1319 20.1904 12.148 20.1904 12.0639C20.1904 12.0027 20.0283 12.0819 19.8046 12.1912ZM22.2703 12.6072C22.1241 12.6072 21.947 12.5605 21.7324 12.4744C21.6502 12.4414 21.5642 12.4034 21.4671 12.3577C21.4518 12.3505 21.4108 12.3307 21.3601 12.3062L21.36 12.3062L21.3599 12.3061L21.3598 12.3061C21.2528 12.2543 21.1026 12.1817 21.0599 12.163C21.0299 12.1498 21.0051 12.1399 20.9856 12.1331C20.9659 12.1797 20.9243 12.207 20.8677 12.207C20.8446 12.207 20.8204 12.2029 20.7879 12.195C20.7768 12.1922 20.7443 12.1835 20.7233 12.1779L20.7055 12.1732C20.668 12.1634 20.637 12.1567 20.6057 12.1518L20.583 12.1483C20.5727 12.1448 20.5666 12.1452 20.5604 12.1456L20.5364 12.1448L20.5316 12.1446L20.5047 12.1518C20.4734 12.1567 20.4425 12.1634 20.405 12.1732L20.3871 12.1779L20.3871 12.1779C20.3662 12.1835 20.3337 12.1922 20.3225 12.195C20.29 12.2029 20.2659 12.207 20.2428 12.207C20.1862 12.207 20.1446 12.1797 20.1248 12.1331C20.1053 12.1399 20.0805 12.1498 20.0505 12.163C20.0079 12.1817 19.8577 12.2543 19.7507 12.3061L19.7506 12.3061L19.7506 12.3061L19.7506 12.3061C19.6998 12.3306 19.6587 12.3505 19.6434 12.3577C19.5463 12.4034 19.4602 12.4414 19.3781 12.4744C19.1635 12.5605 18.9864 12.6072 18.8402 12.6072C18.7247 12.6072 18.6284 12.5927 18.5537 12.5644V12.6882C18.5537 12.7306 18.5484 12.7764 18.5378 12.8375L18.53 12.8805C18.5147 12.9635 18.5099 12.9933 18.5091 13.0187C18.727 13.0583 19.1046 13.4515 19.1046 13.7774C19.1046 14.0427 18.9217 14.2764 18.5683 14.4812C18.7991 15.2786 19.0157 15.7403 19.1998 15.8535C19.305 15.9181 19.3735 15.9104 19.4453 15.8573C19.4447 15.8577 19.5106 15.8019 19.533 15.7927C19.5795 15.7734 19.6303 15.7933 19.6508 15.8427C19.6597 15.8641 19.6622 15.8875 19.6622 15.9224C19.6622 16.0803 19.9194 16.3303 20.2146 16.4281C20.391 16.4865 20.4655 16.5721 20.3894 16.6822C20.379 16.6974 20.3716 16.7063 20.3557 16.7212C20.4005 16.7009 20.4545 16.673 20.5174 16.6376L20.5552 16.6163L20.5931 16.6376C20.656 16.673 20.71 16.7009 20.7547 16.7212C20.7388 16.7063 20.7315 16.6974 20.721 16.6822C20.645 16.5721 20.7195 16.4865 20.8959 16.4281C21.1911 16.3303 21.4482 16.0803 21.4482 15.9224C21.4482 15.8875 21.4507 15.8641 21.4596 15.8427C21.4801 15.7933 21.531 15.7734 21.5775 15.7927C21.5999 15.8019 21.6658 15.8577 21.6652 15.8573C21.7369 15.9104 21.8055 15.9181 21.9107 15.8535C22.0947 15.7403 22.3114 15.2786 22.5421 14.4812C22.1888 14.2764 22.0058 14.0427 22.0058 13.7774C22.0058 13.4515 22.3835 13.0583 22.6013 13.0187C22.6006 12.9933 22.5958 12.9635 22.5805 12.8805L22.5727 12.8375C22.5621 12.7764 22.5567 12.7306 22.5567 12.6882V12.5644C22.482 12.5927 22.3858 12.6072 22.2703 12.6072ZM20.5144 12.1443L20.5126 12.1443L20.5177 12.1441L20.5144 12.1443Z" fill="#FFD129"/>
<path fill-rule="evenodd" clip-rule="evenodd" d="M23.9389 9.28198H17.2723V15.7393C17.2723 16.3733 17.5363 16.6218 17.8509 16.9181C17.9443 17.006 18.0422 17.0981 18.1389 17.2058C18.4207 17.5193 19.2429 17.8435 20.6056 18.1784C20.9788 18.1784 21.5931 17.9741 22.4487 17.5655C23.3042 17.1569 23.8009 16.6432 23.9389 16.0244V9.28198ZM17.8569 16.7046C17.5423 16.4003 17.4293 16.1793 17.4293 15.7393V9.4427H23.7819V16.0058C23.6508 16.5619 23.1895 17.0343 22.3823 17.4198C21.5608 17.8122 20.9697 18.0108 20.6235 18.0175C19.3038 17.6921 18.5057 17.3766 18.2544 17.097C18.2346 17.0749 18.2142 17.0529 18.1932 17.0308C18.1408 16.9757 18.0874 16.9231 18.0184 16.8575C18.022 16.861 17.8913 16.7378 17.8569 16.7046Z" fill="black"/>
</g>
<rect x="-2.5" y="-2" width="18" height="14" fill="#2B409A"/>
<mask id="mask4_701_24852" style="mask-type:alpha" maskUnits="userSpaceOnUse" x="-3" y="-2" width="19" height="14">
<rect x="-2.5" y="-2" width="18" height="14" fill="white"/>
</mask>
<g mask="url(#mask4_701_24852)">
<path d="M-4.50424 10.9997L-0.543292 12.7369L15.5899 -0.11134L17.6792 -2.69287L13.4435 -3.27349L6.8632 2.2632L1.5667 5.99363L-4.50424 10.9997Z" fill="#F7FCFF"/>
<path d="M-3.96198 12.217L-1.94405 13.2251L16.929 -2.93262H14.0956L-3.96198 12.217Z" fill="#F50100"/>
<path d="M17.5043 10.9997L13.5433 12.7369L-2.58987 -0.11134L-4.67919 -2.69287L-0.443518 -3.27349L6.13683 2.2632L11.4333 5.99363L17.5043 10.9997Z" fill="#F7FCFF"/>
<path d="M17.3691 11.8733L15.3512 12.8815L7.31486 5.96351L4.93226 5.19059L-4.88023 -2.68395H-2.04684L7.76015 5.00368L10.3651 5.9305L17.3691 11.8733Z" fill="#F50100"/>
<mask id="path-23-outside-1_701_24852" maskUnits="userSpaceOnUse" x="-4.5" y="-4" width="22" height="18" fill="black">
<rect fill="white" x="-4.5" y="-4" width="22" height="18"/>
<path fill-rule="evenodd" clip-rule="evenodd" d="M7.48451 -2H5.48451V4H-2.5V6H5.48451V12H7.48451V6H15.5V4H7.48451V-2Z"/>
</mask>
<path fill-rule="evenodd" clip-rule="evenodd" d="M7.48451 -2H5.48451V4H-2.5V6H5.48451V12H7.48451V6H15.5V4H7.48451V-2Z" fill="#F50100"/>
<path d="M5.48451 -2V-3.5H3.98451V-2H5.48451ZM7.48451 -2H8.98451V-3.5H7.48451V-2ZM5.48451 4V5.5H6.98451V4H5.48451ZM-2.5 4V2.5H-4V4H-2.5ZM-2.5 6H-4V7.5H-2.5V6ZM5.48451 6H6.98451V4.5H5.48451V6ZM5.48451 12H3.98451V13.5H5.48451V12ZM7.48451 12V13.5H8.98451V12H7.48451ZM7.48451 6V4.5H5.98451V6H7.48451ZM15.5 6V7.5H17V6H15.5ZM15.5 4H17V2.5H15.5V4ZM7.48451 4H5.98451V5.5H7.48451V4ZM5.48451 -0.5H7.48451V-3.5H5.48451V-0.5ZM6.98451 4V-2H3.98451V4H6.98451ZM-2.5 5.5H5.48451V2.5H-2.5V5.5ZM-1 6V4H-4V6H-1ZM5.48451 4.5H-2.5V7.5H5.48451V4.5ZM6.98451 12V6H3.98451V12H6.98451ZM7.48451 10.5H5.48451V13.5H7.48451V10.5ZM5.98451 6V12H8.98451V6H5.98451ZM15.5 4.5H7.48451V7.5H15.5V4.5ZM14 4V6H17V4H14ZM7.48451 5.5H15.5V2.5H7.48451V5.5ZM5.98451 -2V4H8.98451V-2H5.98451Z" fill="#F7FCFF" mask="url(#path-23-outside-1_701_24852)"/>
</g>
</g>
</g>
</g>
<rect x="1.75" y="1.25" width="23.5" height="17.5" stroke="black" stroke-opacity="0.1" stroke-width="0.5" shape-rendering="crispEdges"/>
</g>
<defs>
<filter id="filter0_dd_701_24852" x="0" y="0" width="27" height="21" filterUnits="userSpaceOnUse" color-interpolation-filters="sRGB">
<feFlood flood-opacity="0" result="BackgroundImageFix"/>
<feColorMatrix in="SourceAlpha" type="matrix" values="0 0 0 0 0 0 0 0 0 0 0 0 0 0 0 0 0 0 127 0" result="hardAlpha"/>
<feOffset dy="0.5"/>
<feGaussianBlur stdDeviation="0.75"/>
<feComposite in2="hardAlpha" operator="out"/>
<feColorMatrix type="matrix" values="0 0 0 0 0 0 0 0 0 0 0 0 0 0 0 0 0 0 0.1 0"/>
<feBlend mode="multiply" in2="BackgroundImageFix" result="effect1_dropShadow_701_24852"/>
<feColorMatrix in="SourceAlpha" type="matrix" values="0 0 0 0 0 0 0 0 0 0 0 0 0 0 0 0 0 0 127 0" result="hardAlpha"/>
<feOffset/>
<feGaussianBlur stdDeviation="0.5"/>
<feComposite in2="hardAlpha" operator="out"/>
<feColorMatrix type="matrix" values="0 0 0 0 0 0 0 0 0 0 0 0 0 0 0 0 0 0 0.11 0"/>
<feBlend mode="multiply" in2="effect1_dropShadow_701_24852" result="effect2_dropShadow_701_24852"/>
<feBlend mode="normal" in="SourceGraphic" in2="effect2_dropShadow_701_24852" result="shape"/>
</filter>
<clipPath id="clip0_701_24852">
<rect x="1.5" y="1" width="24" height="18" fill="white"/>
</clipPath>
</defs>
</svg>
