<svg width="27" height="21" viewBox="0 0 27 21" fill="none" xmlns="http://www.w3.org/2000/svg">
<g filter="url(#filter0_dd_701_23119)">
<g clip-path="url(#clip0_701_23119)">
<mask id="mask0_701_23119" style="mask-type:alpha" maskUnits="userSpaceOnUse" x="1" y="1" width="25" height="18">
<rect x="1.5" y="1" width="24" height="18" fill="white"/>
</mask>
<g mask="url(#mask0_701_23119)">
<path fill-rule="evenodd" clip-rule="evenodd" d="M19.5 -2H29.5V22H19.5V-2Z" fill="#58A5FF"/>
<path fill-rule="evenodd" clip-rule="evenodd" d="M1.5 1H10.5V19H1.5V1Z" fill="#58A5FF"/>
<path fill-rule="evenodd" clip-rule="evenodd" d="M7.5 -2H19.5V22H7.5V-2Z" fill="white"/>
<path fill-rule="evenodd" clip-rule="evenodd" d="M9.26843 13.7185L9.79016 14.4015L12.1595 11.1896V10.621L9.26843 13.7185Z" fill="#6C301F"/>
<path d="M10.9043 10.1357L11.0775 9.89709C13.3213 11.5842 14.9109 12.8793 15.7998 13.9585L15.2448 14.4157C14.3999 13.3899 13.1063 11.7914 10.9043 10.1357Z" fill="#979797"/>
<path d="M14.521 8.72561L14.2628 8.47535L15.6776 7.01615L15.9876 7.31728L17.4564 5.94958L17.7014 6.2127L15.9823 7.81343L15.6852 7.5248L14.521 8.72561Z" fill="#979797"/>
<path fill-rule="evenodd" clip-rule="evenodd" d="M10.0058 6.44546C9.93028 6.11714 9.84511 5.71167 9.84511 5.71167C9.65567 6.14382 9.59602 6.53698 9.67208 6.88855C9.59153 6.99936 9.51861 7.10316 9.45331 7.19999C9.24959 6.93089 8.99541 6.42759 8.99541 6.42759C9.00423 6.57414 9.00022 6.72364 8.99632 6.86882C8.98716 7.20994 8.97864 7.52714 9.13881 7.72578L9.13688 7.72974C9.10492 7.79555 9.07464 7.86124 9.04603 7.9268C8.82526 7.70667 8.45891 7.30975 8.45891 7.30975C8.48757 7.78573 8.61929 8.1608 8.85865 8.42844C8.81532 8.56794 8.77957 8.70669 8.75126 8.84457C8.56614 8.65309 8.38761 8.46389 8.38761 8.46389C8.41376 8.89823 8.48644 9.18516 8.67518 9.42626C8.67138 9.49485 8.66943 9.56317 8.66932 9.63121C8.47374 9.42946 8.27487 9.21871 8.27487 9.21871C8.30247 9.67705 8.4812 9.97865 8.7166 10.2297C8.73995 10.3749 8.77187 10.5184 8.81214 10.6603L8.83365 10.7352C8.5675 10.6066 8.27657 10.4605 8.27657 10.4605C8.45025 10.861 8.70384 11.0816 8.99227 11.2359C9.05394 11.4154 9.11902 11.5889 9.18721 11.7559C8.87495 11.671 8.40872 11.5315 8.40872 11.5315C8.68523 11.9501 9.02444 12.1165 9.38891 12.2122C9.46335 12.3678 9.54068 12.5164 9.62063 12.6576C9.32478 12.5746 8.97753 12.4706 8.97753 12.4706C9.24609 12.8772 9.57379 13.0459 9.92634 13.1429C10.1589 13.4735 10.4079 13.7451 10.6676 13.9485C10.3814 14.0785 10.0209 14.234 10.0209 14.234C10.428 14.355 10.7533 14.3087 11.0502 14.194C11.0618 14.1998 11.0735 14.2056 11.0852 14.2112C11.2133 14.2726 11.3568 14.3304 11.5187 14.3869C11.2839 14.4914 11.0603 14.5878 11.0603 14.5878C11.4579 14.706 11.7776 14.6646 12.0689 14.5557L12.1005 14.5643C12.2435 14.6032 12.3889 14.6405 12.5805 14.688C12.4538 14.6566 12.9216 14.772 13.0167 14.7962C13.3208 14.8736 13.494 14.9279 13.5772 14.9748C13.5849 14.9791 13.5906 14.9827 13.5942 14.985L13.5942 14.985C13.5979 14.9873 13.5993 14.9883 13.5986 14.9872L13.8313 14.8182C13.8043 14.781 13.7668 14.7515 13.7184 14.7242C13.6043 14.6599 13.4191 14.6018 13.0876 14.5174C12.9933 14.4934 12.5401 14.3817 12.6427 14.4071C12.4565 14.3609 12.3148 14.3246 12.1761 14.2868C12.1348 14.2755 12.0944 14.2643 12.0549 14.2531C12.0881 13.9473 12.0495 13.6303 11.841 13.2771C11.841 13.2771 11.7503 13.8288 11.6886 14.1409C11.5047 14.0795 11.3463 14.0173 11.2094 13.9518C11.1632 13.9296 11.117 13.9049 11.0711 13.8776C11.0527 13.5656 10.961 13.2553 10.69 12.9386C10.69 12.9386 10.694 13.2892 10.6925 13.5931C10.5035 13.4205 10.3199 13.2058 10.1449 12.9538L10.2675 13.0188C10.281 12.6297 10.221 12.2462 9.88442 11.8528C9.88442 11.8528 9.88879 12.232 9.88672 12.5435C9.77741 12.3527 9.67265 12.1465 9.57341 11.9263C9.66557 11.6238 9.68782 11.2978 9.5397 10.9028C9.5397 10.9028 9.45166 11.1536 9.35934 11.4066C9.33228 11.3347 9.30579 11.2616 9.27988 11.1873C9.46844 10.8708 9.58947 10.5203 9.49955 10.0377C9.49955 10.0377 9.28521 10.419 9.12176 10.6955C9.11064 10.6578 9.09966 10.6199 9.08883 10.5818C9.05445 10.4607 9.02666 10.3382 9.00561 10.2145C9.27434 9.9868 9.49161 9.7031 9.5687 9.2397C9.5687 9.2397 9.2093 9.54841 8.95886 9.75309C8.95541 9.65016 8.95654 9.54644 8.96234 9.442C9.25172 9.26631 9.50089 9.0265 9.65126 8.60055C9.65126 8.60055 9.29687 8.81065 9.02021 8.9672C9.03985 8.86252 9.06412 8.7572 9.0931 8.65127L9.09347 8.66143C9.43719 8.47856 9.73933 8.23488 9.91169 7.74666C9.91169 7.74666 9.55559 7.95778 9.27864 8.11445C9.31453 8.02843 9.3535 7.94208 9.3956 7.8554C9.44565 7.75235 9.51669 7.62939 9.60863 7.48671C9.9155 7.3895 10.2011 7.22096 10.4441 6.86677C10.4441 6.86677 10.1987 6.93556 9.94422 7.00367C10.0918 6.80271 10.2649 6.57787 10.4633 6.32944L10.2386 6.14993C10.1568 6.2523 10.0792 6.35081 10.0058 6.44546Z" fill="#5AB92D"/>
<path fill-rule="evenodd" clip-rule="evenodd" d="M17.1337 6.44546C17.2092 6.11714 17.2944 5.71167 17.2944 5.71167C17.4838 6.14382 17.5434 6.53698 17.4674 6.88855C17.5479 6.99936 17.6209 7.10316 17.6862 7.19999C17.8899 6.93089 18.1441 6.42759 18.1441 6.42759C18.1352 6.57414 18.1392 6.72364 18.1431 6.86882C18.1523 7.20994 18.1608 7.52714 18.0007 7.72578L18.0026 7.72974C18.0345 7.79555 18.0648 7.86124 18.0934 7.9268C18.3142 7.70667 18.6806 7.30975 18.6806 7.30975C18.6519 7.78573 18.5202 8.1608 18.2808 8.42844C18.3241 8.56794 18.3599 8.70669 18.3882 8.84457C18.5733 8.65309 18.7519 8.46389 18.7519 8.46389C18.7257 8.89823 18.653 9.18516 18.4643 9.42626C18.4681 9.49484 18.47 9.56317 18.4701 9.63121C18.6657 9.42946 18.8646 9.21871 18.8646 9.21871C18.837 9.67705 18.6583 9.97865 18.4229 10.2297C18.3995 10.3749 18.3676 10.5184 18.3273 10.6603L18.3058 10.7352C18.572 10.6066 18.8629 10.4605 18.8629 10.4605C18.6892 10.861 18.4356 11.0816 18.1472 11.236C18.0855 11.4154 18.0204 11.5889 17.9523 11.7559C18.2645 11.671 18.7307 11.5315 18.7307 11.5315C18.4542 11.9501 18.115 12.1165 17.7506 12.2122C17.6761 12.3678 17.5988 12.5164 17.5188 12.6576C17.8147 12.5746 18.1619 12.4706 18.1619 12.4706C17.8934 12.8772 17.5657 13.0459 17.2131 13.1429C16.9806 13.4735 16.7316 13.7451 16.4718 13.9485C16.7581 14.0785 17.1186 14.234 17.1186 14.234C16.7115 14.355 16.3862 14.3087 16.0893 14.194C16.0776 14.1998 16.066 14.2056 16.0543 14.2112C15.9261 14.2726 15.7827 14.3304 15.6208 14.3869C15.8556 14.4914 16.0792 14.5878 16.0792 14.5878C15.6815 14.706 15.3619 14.6646 15.0705 14.5557L15.0389 14.5643C14.896 14.6032 14.7506 14.6405 14.5589 14.688C14.6857 14.6566 14.2178 14.772 14.1228 14.7962C13.8186 14.8736 13.6454 14.9279 13.5623 14.9748C13.5546 14.9791 13.5489 14.9827 13.5453 14.985L13.5453 14.985C13.5416 14.9873 13.5401 14.9883 13.5409 14.9872L13.3082 14.8182C13.3352 14.781 13.3727 14.7515 13.4211 14.7242C13.5352 14.6599 13.7204 14.6018 14.0519 14.5174C14.1462 14.4934 14.5994 14.3817 14.4967 14.4071C14.683 14.3609 14.8247 14.3246 14.9633 14.2868C15.0047 14.2755 15.0451 14.2643 15.0845 14.2531C15.0514 13.9473 15.09 13.6303 15.2985 13.2771C15.2985 13.2771 15.3892 13.8288 15.4508 14.1409C15.6347 14.0795 15.7932 14.0173 15.9301 13.9518C15.9763 13.9296 16.0224 13.9049 16.0684 13.8776C16.0868 13.5656 16.1784 13.2553 16.4495 12.9386C16.4495 12.9386 16.4454 13.2892 16.447 13.5931C16.636 13.4205 16.8196 13.2058 16.9945 12.9538L16.872 13.0188C16.8585 12.6297 16.9184 12.2462 17.255 11.8528C17.255 11.8528 17.2507 12.232 17.2527 12.5435C17.3621 12.3527 17.4668 12.1465 17.5661 11.9263C17.4739 11.6238 17.4516 11.2978 17.5998 10.9028C17.5998 10.9028 17.6878 11.1536 17.7801 11.4066C17.8072 11.3347 17.8337 11.2616 17.8596 11.1873C17.671 10.8708 17.55 10.5203 17.6399 10.0377C17.6399 10.0377 17.8543 10.419 18.0177 10.6955C18.0288 10.6578 18.0398 10.6199 18.0506 10.5818C18.085 10.4607 18.1128 10.3382 18.1339 10.2145C17.8651 9.9868 17.6479 9.7031 17.5708 9.2397C17.5708 9.2397 17.9302 9.54841 18.1806 9.75309C18.1841 9.65016 18.1829 9.54644 18.1771 9.442C17.8877 9.26631 17.6386 9.0265 17.4882 8.60055C17.4882 8.60055 17.8426 8.81065 18.1193 8.9672C18.0996 8.86252 18.0753 8.7572 18.0464 8.65127L18.046 8.66143C17.7023 8.47856 17.4001 8.23488 17.2278 7.74666C17.2278 7.74666 17.5839 7.95778 17.8608 8.11445C17.8249 8.02843 17.786 7.94208 17.7439 7.8554C17.6938 7.75235 17.6228 7.62939 17.5308 7.48671C17.224 7.3895 16.9383 7.22096 16.6954 6.86677C16.6954 6.86677 16.9408 6.93556 17.1952 7.00367C17.0477 6.80271 16.8746 6.57787 16.6762 6.32944L16.9009 6.14993C16.9827 6.2523 17.0602 6.35081 17.1337 6.44546Z" fill="#5AB92D"/>
<path fill-rule="evenodd" clip-rule="evenodd" d="M10.9173 7.32297L12.1245 10.5222H11.2371C11.2371 10.5222 10.9173 11.5318 11.5209 11.5318C12.1245 11.5318 15.2349 11.5318 15.2349 11.5318C15.2349 11.5318 15.6393 11.2787 15.4371 10.5222C15.2349 9.76572 14.2133 7.67747 14.2133 7.67747C14.2133 7.67747 14.6499 7.3309 14.6499 7.07401C14.6499 6.81711 14.2133 6.78882 14.2133 6.78882H11.4578C11.1061 6.84582 10.9173 7.32297 10.9173 7.32297Z" fill="#EFE298"/>
<path d="M11.944 8.5008L13.8189 8.38436L11.944 8.5008Z" fill="#C5A042"/>
<path d="M11.944 8.5008L13.8189 8.38436" stroke="#B47D00" stroke-width="0.5"/>
<path d="M12.4002 9.52106L14.2751 9.40462L12.4002 9.52106Z" fill="#C5A042"/>
<path d="M12.4002 9.52106L14.2751 9.40462" stroke="#B47D00" stroke-width="0.5"/>
<path d="M12.7566 10.5414L14.6315 10.425L12.7566 10.5414Z" fill="#C5A042"/>
<path d="M12.7566 10.5414L14.6315 10.425" stroke="#B47D00" stroke-width="0.5"/>
<path fill-rule="evenodd" clip-rule="evenodd" d="M13.3804 5.58765C13.3804 5.58765 13.0917 5.6463 13.0917 5.82871C13.0917 6.01112 13.0136 6.16665 13.0136 6.16665C13.0136 6.16665 13.1018 6.99862 13.7601 7.19168C14.4184 7.38474 14.8044 7.4311 15.0815 7.81837C15.3586 8.20564 16.2088 9.29897 15.8679 10.2419C15.5269 11.1848 15.2592 11.666 15.2592 11.666C15.2592 11.666 16.5028 10.4946 16.5028 9.93919C16.5028 9.38382 16.3191 8.84568 15.7681 8.14049C15.2172 7.43531 14.9608 7.02307 14.5504 6.70534C14.1399 6.38761 13.5518 6.09442 13.5518 6.09442C13.5518 6.09442 13.7611 5.87059 13.6565 5.76535C13.5518 5.66011 13.3804 5.58765 13.3804 5.58765Z" fill="#5AB92D"/>
</g>
</g>
<rect x="1.75" y="1.25" width="23.5" height="17.5" stroke="black" stroke-opacity="0.1" stroke-width="0.5" shape-rendering="crispEdges"/>
</g>
<defs>
<filter id="filter0_dd_701_23119" x="0" y="0" width="27" height="21" filterUnits="userSpaceOnUse" color-interpolation-filters="sRGB">
<feFlood flood-opacity="0" result="BackgroundImageFix"/>
<feColorMatrix in="SourceAlpha" type="matrix" values="0 0 0 0 0 0 0 0 0 0 0 0 0 0 0 0 0 0 127 0" result="hardAlpha"/>
<feOffset dy="0.5"/>
<feGaussianBlur stdDeviation="0.75"/>
<feComposite in2="hardAlpha" operator="out"/>
<feColorMatrix type="matrix" values="0 0 0 0 0 0 0 0 0 0 0 0 0 0 0 0 0 0 0.1 0"/>
<feBlend mode="multiply" in2="BackgroundImageFix" result="effect1_dropShadow_701_23119"/>
<feColorMatrix in="SourceAlpha" type="matrix" values="0 0 0 0 0 0 0 0 0 0 0 0 0 0 0 0 0 0 127 0" result="hardAlpha"/>
<feOffset/>
<feGaussianBlur stdDeviation="0.5"/>
<feComposite in2="hardAlpha" operator="out"/>
<feColorMatrix type="matrix" values="0 0 0 0 0 0 0 0 0 0 0 0 0 0 0 0 0 0 0.11 0"/>
<feBlend mode="multiply" in2="effect1_dropShadow_701_23119" result="effect2_dropShadow_701_23119"/>
<feBlend mode="normal" in="SourceGraphic" in2="effect2_dropShadow_701_23119" result="shape"/>
</filter>
<clipPath id="clip0_701_23119">
<rect x="1.5" y="1" width="24" height="18" fill="white"/>
</clipPath>
</defs>
</svg>
