<svg viewBox="0 0 27 21" fill="none" xmlns="http://www.w3.org/2000/svg">
<g filter="url(#filter0_dd_701_23364)">
<g clip-path="url(#clip0_701_23364)">
<mask id="mask0_701_23364" style="mask-type:alpha" maskUnits="userSpaceOnUse" x="1" y="1" width="25" height="18">
<rect x="1.5" y="1" width="24" height="18" fill="white"/>
</mask>
<g mask="url(#mask0_701_23364)">
<rect x="1.5" y="1" width="24" height="18" fill="#F7FCFF"/>
<path fill-rule="evenodd" clip-rule="evenodd" d="M1.5 13H25.5V19H1.5V13Z" fill="#C51918"/>
<path fill-rule="evenodd" clip-rule="evenodd" d="M14.5417 4.75H11.7083V8.21154H11V6.13462H8.16667V8.21154H6.75V8.90385L7.45833 8.90385V12.3654H6.75V13.0577H19.5V12.3654H18.7917V8.90385L19.5 8.90385V8.21154H18.0833V6.13462H15.25V8.21154H14.5417V4.75Z" fill="#DB000B"/>
<path d="M8.875 7.44204C8.875 7.10231 9.1504 6.8269 9.49013 6.8269C9.82986 6.8269 10.1053 7.10231 10.1053 7.44204V8.34998H8.875V7.44204Z" fill="#272727"/>
<path d="M15.9583 7.44204C15.9583 7.10231 16.2337 6.8269 16.5735 6.8269C16.9132 6.8269 17.1886 7.10231 17.1886 7.44204V8.34998H15.9583V7.44204Z" fill="#272727"/>
<path fill-rule="evenodd" clip-rule="evenodd" d="M8.67554 11.103C8.67554 10.6532 9.04024 10.2885 9.49012 10.2885C9.94 10.2885 10.3047 10.6532 10.3047 11.103V12.5038H8.67554V11.103Z" fill="#272727"/>
<path d="M15.7589 11.103C15.7589 10.6532 16.1236 10.2885 16.5735 10.2885C17.0233 10.2885 17.388 10.6532 17.388 11.103V12.5038H15.7589V11.103Z" fill="#272727"/>
<path fill-rule="evenodd" clip-rule="evenodd" d="M11.9209 11.2296C11.9209 10.6531 12.3883 10.1858 12.9648 10.1858C13.5413 10.1858 14.0086 10.6531 14.0086 11.2297V13.2319H11.9209V11.2296Z" fill="#272727"/>
<path d="M12.4167 6.74977C12.4167 6.41005 12.6921 6.13464 13.0318 6.13464C13.3715 6.13464 13.6469 6.41005 13.6469 6.74977V8.35003H12.4167V6.74977Z" fill="#272727"/>
<rect x="6.75" y="7.51929" width="0.708333" height="0.692308" fill="#DE1A23"/>
<path fill-rule="evenodd" clip-rule="evenodd" d="M7.875 5.5H8.625V6.25H7.875V5.5ZM10.7386 5.5H11.4886V6.25H10.7386V5.5ZM10.3125 5.5H9.1875V6.25H10.3125V5.5Z" fill="#DE1A23"/>
<path fill-rule="evenodd" clip-rule="evenodd" d="M15.068 5.5H15.818V6.25H15.068V5.5ZM17.8637 5.5H18.6137V6.25H17.8637V5.5ZM17.4032 5.5H16.2782V6.25H17.4032V5.5Z" fill="#DE1A23"/>
<path fill-rule="evenodd" clip-rule="evenodd" d="M11.8498 4.01709H11.0998V4.76709H11.8498V4.01709ZM12.9748 4.01709H12.2248V4.76709H12.9748V4.01709ZM13.3498 4.01709H14.0998V4.76709H13.3498V4.01709ZM15.2248 4.01709H14.4748V4.76709H15.2248V4.01709Z" fill="#DE1A23"/>
<rect x="18.7495" y="7.58105" width="0.75" height="0.629022" fill="#DE1A23"/>
<path fill-rule="evenodd" clip-rule="evenodd" d="M13.0797 14.8399L15.1142 13.5095L12.9435 12.4944L10.7728 13.7421L13.0797 14.8399ZM12.2853 13.6313L12.9509 13.1852L13.6541 13.5682L13.0217 13.9817L12.2853 13.6313Z" fill="#E8AA00"/>
<path fill-rule="evenodd" clip-rule="evenodd" d="M11.6067 16.755H12.712V17.5853V17.305H12.0251V17.5853H11.6067V16.755Z" fill="#E8AA00"/>
<path fill-rule="evenodd" clip-rule="evenodd" d="M12.6118 14.5852H13.5499V17.5852H12.6118V14.5852Z" fill="#E8AA00"/>
</g>
</g>
<rect x="1.75" y="1.25" width="23.5" height="17.5" stroke="black" stroke-opacity="0.1" stroke-width="0.5" shape-rendering="crispEdges"/>
</g>
<defs>
<filter id="filter0_dd_701_23364" x="0" y="0" width="27" height="21" filterUnits="userSpaceOnUse" color-interpolation-filters="sRGB">
<feFlood flood-opacity="0" result="BackgroundImageFix"/>
<feColorMatrix in="SourceAlpha" type="matrix" values="0 0 0 0 0 0 0 0 0 0 0 0 0 0 0 0 0 0 127 0" result="hardAlpha"/>
<feOffset dy="0.5"/>
<feGaussianBlur stdDeviation="0.75"/>
<feComposite in2="hardAlpha" operator="out"/>
<feColorMatrix type="matrix" values="0 0 0 0 0 0 0 0 0 0 0 0 0 0 0 0 0 0 0.1 0"/>
<feBlend mode="multiply" in2="BackgroundImageFix" result="effect1_dropShadow_701_23364"/>
<feColorMatrix in="SourceAlpha" type="matrix" values="0 0 0 0 0 0 0 0 0 0 0 0 0 0 0 0 0 0 127 0" result="hardAlpha"/>
<feOffset/>
<feGaussianBlur stdDeviation="0.5"/>
<feComposite in2="hardAlpha" operator="out"/>
<feColorMatrix type="matrix" values="0 0 0 0 0 0 0 0 0 0 0 0 0 0 0 0 0 0 0.11 0"/>
<feBlend mode="multiply" in2="effect1_dropShadow_701_23364" result="effect2_dropShadow_701_23364"/>
<feBlend mode="normal" in="SourceGraphic" in2="effect2_dropShadow_701_23364" result="shape"/>
</filter>
<clipPath id="clip0_701_23364">
<rect x="1.5" y="1" width="24" height="18" fill="white"/>
</clipPath>
</defs>
</svg>