<svg width="27" height="21" viewBox="0 0 27 21" fill="none" xmlns="http://www.w3.org/2000/svg">
<g filter="url(#filter0_dd_701_20315)">
<g clip-path="url(#clip0_701_20315)">
<mask id="mask0_701_20315" style="mask-type:alpha" maskUnits="userSpaceOnUse" x="1" y="1" width="25" height="18">
<rect x="1.5" y="1" width="24" height="18" fill="white"/>
</mask>
<g mask="url(#mask0_701_20315)">
<path fill-rule="evenodd" clip-rule="evenodd" d="M1.5 1V19H25.5V1H1.5Z" fill="#F7FCFF"/>
<mask id="mask1_701_20315" style="mask-type:alpha" maskUnits="userSpaceOnUse" x="1" y="1" width="25" height="18">
<path fill-rule="evenodd" clip-rule="evenodd" d="M1.5 1V19H25.5V1H1.5Z" fill="white"/>
</mask>
<g mask="url(#mask1_701_20315)">
<path fill-rule="evenodd" clip-rule="evenodd" d="M1.5 10V19H25.5V10H1.5Z" fill="#56C6F5"/>
<path fill-rule="evenodd" clip-rule="evenodd" d="M9.19062 7.77154C9.18505 7.70816 9.17179 7.65337 9.14887 7.61066C8.95622 7.25159 9.01846 6.80229 9.01846 6.80229C9.01846 6.80229 8.78841 7.32846 8.65343 7.82384C8.51154 7.59315 8.46194 7.36203 8.46194 7.36203C8.46194 7.36203 8.37011 8.81522 8.65086 9.15953C8.93162 9.50385 9.11879 9.65514 9.11879 9.65514C9.11879 9.65514 9.14005 9.05172 9.0583 8.57981C9.11591 8.38294 9.16787 8.16727 9.18648 7.98159C9.22333 7.9543 9.32044 7.88139 9.44197 7.78223C9.39076 8.06481 9.38822 8.21835 9.38822 8.21835C9.38822 8.21835 10.4461 7.4502 10.473 7.04361C10.4999 6.63701 10.7908 6.28896 10.7908 6.28896C10.7908 6.28896 10.5503 6.45356 10.2756 6.67426C10.3483 6.33296 10.5731 6.06396 10.5731 6.06396C10.5731 6.06396 9.37141 6.88627 9.27293 7.31949C9.2301 7.50793 9.20514 7.65993 9.19062 7.77154ZM9.24208 10.2693C9.12686 10.0518 8.62546 9.13985 8.27572 9.0605C7.87833 8.97033 7.58008 8.62859 7.58008 8.62859C7.58008 8.62859 8.20428 9.94409 8.61676 10.1091C8.94801 10.2417 9.16612 10.2946 9.23919 10.3103C9.22716 10.4876 9.22506 10.6101 9.22506 10.6101C9.22506 10.6101 9.4199 10.4688 9.71829 10.1397C10.0167 9.81053 10.001 8.35453 10.001 8.35453C10.001 8.35453 9.88277 8.79243 9.56513 9.04768C9.35204 9.2189 9.27181 9.86352 9.24208 10.2693ZM8.30352 10.1317C8.7575 10.129 9.45592 11.2423 9.45592 11.2423C9.45592 11.2423 9.18534 11.2571 8.71267 11.1824C8.24 11.1077 7.50328 9.83925 7.50328 9.83925C7.50328 9.83925 7.84953 10.1344 8.30352 10.1317ZM10.5165 12.7244C10.5165 12.7244 10.7859 11.3058 10.3814 10.9751C9.97684 10.6444 9.90548 10.1502 9.90548 10.1502C9.90548 10.1502 9.54612 11.7233 9.90548 12.1307C10.2648 12.5381 10.5165 12.7244 10.5165 12.7244ZM8.88427 12.3414C9.14844 12.6546 9.99009 12.3414 9.99009 12.3414C9.99009 12.3414 10.1755 12.5098 9.50806 11.8998C8.84058 11.2897 7.48239 11.675 7.84791 11.675C8.21343 11.675 8.6201 12.0282 8.88427 12.3414ZM9.50806 14.0066C9.99775 14.4214 11.0559 13.4353 11.0559 13.4353C11.0559 13.4353 10.7835 13.1054 10.2786 12.8622C9.77378 12.6191 7.91152 12.8622 7.91152 12.8622L8.74027 13.2311C8.74027 13.2311 7.81777 13.5919 8.06263 13.5718C8.3075 13.5517 9.01837 13.5919 9.50806 14.0066Z" fill="#006923"/>
<path fill-rule="evenodd" clip-rule="evenodd" d="M15.9101 13.1474C15.9101 13.1474 15.4891 12.4398 15.9101 12.098C16.3311 11.7562 16.4978 11.9836 16.4978 11.5906C16.4978 11.1976 16.5403 11.3146 16.7472 11.1195C16.9541 10.9244 16.8075 10.4505 17.0846 10.6875C17.3616 10.9244 17.4134 10.4701 17.4134 11.4139C17.4134 12.3577 17.4134 10.5578 17.4134 10.0277C17.4134 9.4976 17.0846 9.6231 17.0846 9.26758C17.0846 8.91206 16.7558 8.38109 17.0846 8.38109C17.4134 8.38109 17.6066 8.77614 17.6066 8.77614C17.6066 8.77614 17.9297 9.32675 17.9297 8.77614C17.9297 8.22552 17.3545 8.38922 17.0846 7.78161C16.8146 7.17401 16.8573 7.84976 16.4978 7.06682C16.1382 6.28388 15.7101 6.03543 16.1039 6.03543C16.4978 6.03543 16.4099 6.03543 16.7472 6.03543C17.0846 6.03543 17.6066 5.75521 17.6066 6.03543C17.6066 6.31565 17.6066 6.18724 17.6066 6.62703C17.6066 7.06682 17.9297 7.06682 17.9297 7.06682C17.9297 7.06682 18.1053 6.18724 18.326 6.62703C18.5466 7.06682 18.3964 7.78161 18.5578 7.78161C18.7193 7.78161 18.5856 7.04293 18.9382 7.6087C19.2909 8.17447 18.9382 8.55788 18.9382 8.77614C18.9382 8.9944 18.5578 9.52912 18.5578 9.52912C18.5578 9.52912 18.6321 9.79066 18.9382 9.52912C19.2444 9.26758 19.5348 9.00604 19.5348 9.26758C19.5348 9.52912 20.1314 9.61037 19.5348 10.0277C18.9382 10.4451 19.3187 10.8629 18.9382 10.8629C18.5578 10.8629 18.1096 11.4139 17.9297 11.4139C17.7498 11.4139 17.077 11.8357 17.4134 11.8357C17.7498 11.8357 18.0941 10.9921 18.326 11.4139C18.5578 11.8357 18.5548 11.3454 18.7465 11.5906C18.9382 11.8357 19.13 13.166 18.9382 12.632C18.7465 12.098 18.446 12.098 17.9297 12.098C17.4134 12.098 16.4099 12.1366 16.7472 12.3843C17.0846 12.632 17.4635 12.1366 17.6066 12.3843C17.7498 12.632 17.7081 12.8797 17.9297 12.632C18.1512 12.3843 18.3691 12.632 18.5578 12.632C18.7465 12.632 18.3691 12.9093 18.5578 13.1474C18.7465 13.3854 19.1671 13.7025 18.7465 13.7025C18.326 13.7025 18.1096 13.3662 17.9297 13.7025C17.7498 14.0387 17.7422 14.6227 17.4134 14.1626C17.0846 13.7025 16.4978 13.936 16.4978 13.7025C16.4978 13.4689 16.6261 13.4312 16.2681 13.4312C15.9101 13.4312 15.9101 13.1474 15.9101 13.1474Z" fill="#009933"/>
<path fill-rule="evenodd" clip-rule="evenodd" d="M17.6371 8.08765C17.6371 8.1912 17.5559 8.27515 17.4557 8.27515C17.3554 8.27515 17.2742 8.1912 17.2742 8.08765C17.2742 7.98409 17.3554 7.90015 17.4557 7.90015C17.5559 7.90015 17.6371 7.98409 17.6371 8.08765ZM9.25404 8.50015C9.35425 8.50015 9.43549 8.4162 9.43549 8.31265C9.43549 8.20909 9.35425 8.12515 9.25404 8.12515C9.15382 8.12515 9.07259 8.20909 9.07259 8.31265C9.07259 8.4162 9.15382 8.50015 9.25404 8.50015ZM9.43549 9.28765C9.43549 9.3912 9.35425 9.47515 9.25404 9.47515C9.15382 9.47515 9.07259 9.3912 9.07259 9.28765C9.07259 9.18409 9.15382 9.10015 9.25404 9.10015C9.35425 9.10015 9.43549 9.18409 9.43549 9.28765ZM9.54436 11.2001C9.64457 11.2001 9.72581 11.1162 9.72581 11.0126C9.72581 10.9091 9.64457 10.8251 9.54436 10.8251C9.44415 10.8251 9.36291 10.9091 9.36291 11.0126C9.36291 11.1162 9.44415 11.2001 9.54436 11.2001ZM10.996 13.0751C11.0962 13.0751 11.1774 12.9912 11.1774 12.8876C11.1774 12.7841 11.0962 12.7001 10.996 12.7001C10.8958 12.7001 10.8145 12.7841 10.8145 12.8876C10.8145 12.9912 10.8958 13.0751 10.996 13.0751ZM17.9637 10.2251C18.0639 10.2251 18.1452 10.1412 18.1452 10.0376C18.1452 9.93409 18.0639 9.85015 17.9637 9.85015C17.8635 9.85015 17.7823 9.93409 17.7823 10.0376C17.7823 10.1412 17.8635 10.2251 17.9637 10.2251ZM17.5645 11.5376C17.5645 11.6412 17.4833 11.7251 17.3831 11.7251C17.2829 11.7251 17.2016 11.6412 17.2016 11.5376C17.2016 11.4341 17.2829 11.3501 17.3831 11.3501C17.4833 11.3501 17.5645 11.4341 17.5645 11.5376ZM15.8589 13.3751C15.9591 13.3751 16.0403 13.2912 16.0403 13.1876C16.0403 13.0841 15.9591 13.0001 15.8589 13.0001C15.7587 13.0001 15.6774 13.0841 15.6774 13.1876C15.6774 13.2912 15.7587 13.3751 15.8589 13.3751ZM11.25 13.4126C11.25 13.5162 11.1688 13.6001 11.0686 13.6001C10.9683 13.6001 10.8871 13.5162 10.8871 13.4126C10.8871 13.3091 10.9683 13.2251 11.0686 13.2251C11.1688 13.2251 11.25 13.3091 11.25 13.4126Z" fill="#C51918"/>
<path fill-rule="evenodd" clip-rule="evenodd" d="M15.0283 15.865C15.0283 15.7113 12.7029 14.1087 12.0788 13.7553C11.4547 13.4018 8.4068 11.4563 9.23681 8.50024H9.1112C9.1112 8.50024 8.5495 12.1426 12.4195 14.4067C14.1816 15.5888 14.2693 15.865 14.2693 15.865C14.2693 15.865 15.0283 16.0186 15.0283 15.865Z" fill="#FECA00"/>
<path fill-rule="evenodd" clip-rule="evenodd" d="M11.9432 15.865C11.9432 15.7113 14.2686 14.1087 14.8928 13.7553C15.5169 13.4018 18.5648 11.4563 17.7348 8.50024H17.8604C17.8604 8.50024 18.4221 12.1426 14.552 14.4067C12.7899 15.5888 12.7022 15.865 12.7022 15.865C12.7022 15.865 11.9432 16.0186 11.9432 15.865Z" fill="#FECA00"/>
<path fill-rule="evenodd" clip-rule="evenodd" d="M13.5363 13.6644C15.1597 13.6644 16.4758 11.563 16.4758 9.51265C16.4758 7.46229 15.1597 6.40015 13.5363 6.40015C11.9128 6.40015 10.5968 7.46229 10.5968 9.51265C10.5968 11.563 11.9128 13.6644 13.5363 13.6644Z" fill="#56C6F5"/>
<path fill-rule="evenodd" clip-rule="evenodd" d="M12.2349 8.15427C12.2349 8.15427 12.6876 7.75498 12.4612 7.75498C12.4173 7.75498 12.3639 7.7464 12.3063 7.73716C12.0667 7.69873 11.7548 7.64869 11.7548 8.15427V9.02307L11.7547 9.02511H11.6879C11.6465 9.02511 11.6129 9.05869 11.6129 9.10011C11.6129 9.14153 11.6465 9.17511 11.6879 9.17511H11.7466C11.7366 9.36069 11.7188 9.69071 11.7014 10.0205L11.6423 10.0257C11.5832 10.0309 11.5394 10.083 11.5446 10.1422L11.5454 10.1521C11.5506 10.2113 11.6028 10.255 11.6619 10.2499L11.6894 10.2475C11.6693 10.6328 11.6523 10.9701 11.6523 11.0114C11.6523 11.1127 12.341 11.0735 12.341 11.0735C12.341 11.0735 12.3196 10.6669 12.296 10.1944L12.3153 10.1927C12.3745 10.1875 12.4183 10.1354 12.4131 10.0762L12.4122 10.0663C12.4071 10.0071 12.3549 9.96337 12.2957 9.96855L12.2848 9.9695C12.2709 9.68649 12.2573 9.39912 12.2478 9.17511H12.3363C12.3777 9.17511 12.4113 9.14153 12.4113 9.10011C12.4113 9.05869 12.3777 9.02511 12.3363 9.02511H12.2417C12.2374 8.91317 12.2349 8.82904 12.2349 8.78666V8.15427Z" fill="white"/>
<path fill-rule="evenodd" clip-rule="evenodd" d="M11.9032 9.25H12.1452V9.57258H11.9032V9.25Z" fill="black"/>
<path fill-rule="evenodd" clip-rule="evenodd" d="M11.8306 10.375H12.2339V11.125H11.8306V10.375Z" fill="black"/>
<path fill-rule="evenodd" clip-rule="evenodd" d="M13.7591 8.15427C13.7591 8.15427 14.2118 7.75498 13.9854 7.75498C13.9415 7.75498 13.8881 7.7464 13.8305 7.73716C13.5909 7.69873 13.279 7.64869 13.279 8.15427V9.02307L13.2789 9.02511H13.2121C13.1707 9.02511 13.1371 9.05869 13.1371 9.10011C13.1371 9.14153 13.1707 9.17511 13.2121 9.17511H13.2708C13.2607 9.36069 13.243 9.69071 13.2255 10.0205L13.1665 10.0257C13.1073 10.0309 13.0636 10.083 13.0688 10.1422L13.0696 10.1521C13.0748 10.2113 13.127 10.255 13.1861 10.2499L13.2136 10.2475C13.1935 10.6328 13.1765 10.9701 13.1765 11.0114C13.1765 11.1127 13.8652 11.0735 13.8652 11.0735C13.8652 11.0735 13.8438 10.6669 13.8202 10.1944L13.8395 10.1927C13.8987 10.1875 13.9425 10.1354 13.9373 10.0762L13.9364 10.0663C13.9312 10.0071 13.8791 9.96337 13.8199 9.96855L13.809 9.9695C13.7951 9.68649 13.7815 9.39912 13.772 9.17511H13.8605C13.9019 9.17511 13.9355 9.14153 13.9355 9.10011C13.9355 9.05869 13.9019 9.02511 13.8605 9.02511H13.7659C13.7616 8.91317 13.7591 8.82904 13.7591 8.78666V8.15427Z" fill="white"/>
<path fill-rule="evenodd" clip-rule="evenodd" d="M13.4274 9.25H13.6693V9.57258H13.4274V9.25Z" fill="black"/>
<path fill-rule="evenodd" clip-rule="evenodd" d="M13.3548 10.375H13.7581V11.125H13.3548V10.375Z" fill="black"/>
<path fill-rule="evenodd" clip-rule="evenodd" d="M15.2107 8.15427C15.2107 8.15427 15.6634 7.75498 15.437 7.75498C15.3931 7.75498 15.3397 7.7464 15.2821 7.73716C15.0425 7.69873 14.7306 7.64869 14.7306 8.15427V9.02307L14.7305 9.02511H14.6637C14.6223 9.02511 14.5887 9.05869 14.5887 9.10011C14.5887 9.14153 14.6223 9.17511 14.6637 9.17511H14.7224C14.7124 9.36069 14.6946 9.69071 14.6772 10.0205L14.6181 10.0257C14.559 10.0309 14.5152 10.083 14.5204 10.1422L14.5212 10.1521C14.5264 10.2113 14.5786 10.255 14.6377 10.2499L14.6652 10.2475C14.6451 10.6328 14.6281 10.9701 14.6281 11.0114C14.6281 11.1127 15.3168 11.0735 15.3168 11.0735C15.3168 11.0735 15.2954 10.6669 15.2718 10.1944L15.2911 10.1927C15.3503 10.1875 15.3941 10.1354 15.3889 10.0762L15.388 10.0663C15.3829 10.0071 15.3307 9.96337 15.2715 9.96855L15.2606 9.9695C15.2467 9.68649 15.2331 9.39912 15.2236 9.17511H15.3121C15.3535 9.17511 15.3871 9.14153 15.3871 9.10011C15.3871 9.05869 15.3535 9.02511 15.3121 9.02511H15.2175C15.2132 8.91317 15.2107 8.82904 15.2107 8.78666V8.15427Z" fill="white"/>
<path fill-rule="evenodd" clip-rule="evenodd" d="M14.879 9.25H15.121V9.57258H14.879V9.25Z" fill="black"/>
<path fill-rule="evenodd" clip-rule="evenodd" d="M14.8064 10.375H15.2097V11.125H14.8064V10.375Z" fill="black"/>
<path fill-rule="evenodd" clip-rule="evenodd" d="M15.3871 5.80005H11.5403V6.37428L11.5145 6.37658C11.5145 6.37658 9.62984 7.84113 10.1529 10.035C10.6759 12.2289 12.7536 13.8559 12.7536 13.8559L12.8583 13.4773C12.8583 13.4773 10.8786 10.7854 10.8786 9.70977C10.8786 8.63414 11.2521 7.62456 11.6476 7.46758C11.8854 7.37316 11.9265 7.39232 11.9913 7.42259C12.0342 7.44265 12.0876 7.46758 12.2157 7.46758C12.5369 7.46758 12.8583 7.23765 12.8583 7.23765C12.8583 7.23765 13.0818 7.46758 13.2894 7.46758C13.497 7.46758 13.4999 7.23765 13.4999 7.23765V6.47505H13.5231V7.23765C13.5231 7.23765 13.526 7.46758 13.7336 7.46758C13.9412 7.46758 14.1647 7.23765 14.1647 7.23765C14.1647 7.23765 14.4862 7.46758 14.8074 7.46758C14.9354 7.46758 14.9888 7.44265 15.0317 7.42259C15.0965 7.39232 15.1376 7.37316 15.3754 7.46758C15.7709 7.62456 16.1444 8.63414 16.1444 9.70977C16.1444 10.7854 14.1647 13.4773 14.1647 13.4773L14.2695 13.8559C14.2695 13.8559 16.3471 12.2289 16.8701 10.035C17.3932 7.84113 15.5085 6.37658 15.5085 6.37658L15.3871 6.36573V5.80005Z" fill="#E8AA00"/>
<path d="M11.5403 5.80005V5.30005H11.0403V5.80005H11.5403ZM15.3871 5.80005H15.8871V5.30005H15.3871V5.80005ZM11.5403 6.37428L11.5848 6.87229L12.0403 6.83157V6.37428H11.5403ZM11.5145 6.37658L11.47 5.87857L11.3237 5.89165L11.2077 5.98177L11.5145 6.37658ZM10.1529 10.035L10.6393 9.91907H10.6393L10.1529 10.035ZM12.7536 13.8559L12.4453 14.2496L13.0356 14.7118L13.2355 13.9892L12.7536 13.8559ZM12.8583 13.4773L13.3402 13.6106L13.4049 13.3766L13.2611 13.181L12.8583 13.4773ZM11.6476 7.46758L11.4631 7.00285V7.00285L11.6476 7.46758ZM11.9913 7.42259L12.2029 6.96955L12.2029 6.96955L11.9913 7.42259ZM12.8583 7.23765L13.2169 6.88916L12.9171 6.58081L12.5674 6.83098L12.8583 7.23765ZM13.4999 7.23765L13.9999 7.24397V7.23765H13.4999ZM13.4999 6.47505V5.97505H12.9999V6.47505H13.4999ZM13.5231 6.47505H14.0231V5.97505H13.5231V6.47505ZM13.5231 7.23765H13.0231L13.0232 7.24397L13.5231 7.23765ZM14.1647 7.23765L14.4556 6.83098L14.1059 6.58081L13.8062 6.88916L14.1647 7.23765ZM15.0317 7.42259L15.2433 7.87563L15.2433 7.87563L15.0317 7.42259ZM15.3754 7.46758L15.5599 7.00285L15.5599 7.00285L15.3754 7.46758ZM14.1647 13.4773L13.7619 13.181L13.6181 13.3766L13.6828 13.6106L14.1647 13.4773ZM14.2695 13.8559L13.7876 13.9892L13.9875 14.7118L14.5777 14.2496L14.2695 13.8559ZM16.8701 10.035L16.3838 9.91907L16.8701 10.035ZM15.5085 6.37658L15.8153 5.98177L15.6993 5.89165L15.553 5.87857L15.5085 6.37658ZM15.3871 6.36573H14.8871V6.82302L15.3426 6.86374L15.3871 6.36573ZM11.5403 6.30005H15.3871V5.30005H11.5403V6.30005ZM12.0403 6.37428V5.80005H11.0403V6.37428H12.0403ZM11.559 6.8746L11.5848 6.87229L11.4958 5.87626L11.47 5.87857L11.559 6.8746ZM10.6393 9.91907C10.4187 8.99376 10.7006 8.21773 11.0599 7.65072C11.2397 7.36705 11.4349 7.14283 11.5849 6.99005C11.6596 6.91403 11.7221 6.85671 11.7644 6.8196C11.7855 6.80107 11.8015 6.78765 11.8113 6.77954C11.8162 6.77548 11.8196 6.77276 11.8213 6.77139C11.8222 6.77071 11.8226 6.77037 11.8226 6.77037C11.8226 6.77037 11.8225 6.77045 11.8223 6.77062C11.8222 6.77071 11.8221 6.77081 11.8219 6.77094C11.8218 6.77101 11.8217 6.77112 11.8216 6.77115C11.8215 6.77127 11.8213 6.77139 11.5145 6.37658C11.2077 5.98177 11.2075 5.98191 11.2074 5.98205C11.2073 5.9821 11.2071 5.98225 11.207 5.98236C11.2067 5.98258 11.2064 5.98282 11.206 5.98308C11.2054 5.98361 11.2046 5.98423 11.2037 5.98494C11.2019 5.98637 11.1996 5.98816 11.1969 5.99031C11.1915 5.99462 11.1844 6.00039 11.1756 6.0076C11.1581 6.02201 11.1341 6.0422 11.1047 6.068C11.046 6.11955 10.9653 6.19379 10.8715 6.28935C10.6845 6.47973 10.4412 6.75876 10.2152 7.11547C9.76294 7.8292 9.36408 8.88239 9.66653 10.151L10.6393 9.91907ZM12.7536 13.8559C13.0618 13.4622 13.0619 13.4623 13.062 13.4624C13.062 13.4624 13.0621 13.4625 13.0622 13.4625C13.0622 13.4625 13.0623 13.4626 13.0623 13.4626C13.0623 13.4626 13.0622 13.4625 13.062 13.4623C13.0615 13.462 13.0606 13.4613 13.0592 13.4601C13.0564 13.4579 13.0517 13.4541 13.0452 13.4488C13.0322 13.4383 13.012 13.4217 12.9856 13.3995C12.9328 13.3549 12.8551 13.2876 12.7594 13.1995C12.5677 13.0231 12.3059 12.7652 12.0287 12.4424C11.4683 11.7898 10.8745 10.9059 10.6393 9.91907L9.66653 10.151C9.95431 11.358 10.6609 12.3846 11.27 13.0939C11.5777 13.4521 11.8679 13.7381 12.0821 13.9353C12.1894 14.034 12.2781 14.1109 12.3409 14.1639C12.3724 14.1904 12.3974 14.211 12.4151 14.2253C12.4239 14.2325 12.4309 14.2381 12.436 14.2422C12.4385 14.2442 12.4406 14.2458 12.4421 14.2471C12.4429 14.2477 12.4436 14.2482 12.4441 14.2486C12.4444 14.2488 12.4446 14.249 12.4448 14.2492C12.4449 14.2492 12.445 14.2493 12.4451 14.2494C12.4452 14.2495 12.4453 14.2496 12.7536 13.8559ZM12.3764 13.344L12.2717 13.7226L13.2355 13.9892L13.3402 13.6106L12.3764 13.344ZM10.3786 9.70977C10.3786 10.0962 10.5457 10.5523 10.7336 10.9611C10.9309 11.3901 11.1897 11.8463 11.4422 12.2582C11.6957 12.6718 11.9484 13.0497 12.1373 13.3237C12.232 13.4609 12.311 13.5726 12.3665 13.6503C12.3943 13.6892 12.4163 13.7196 12.4314 13.7405C12.439 13.7509 12.4449 13.759 12.4489 13.7645C12.451 13.7673 12.4525 13.7694 12.4536 13.771C12.4542 13.7717 12.4546 13.7723 12.4549 13.7727C12.4551 13.7729 12.4552 13.7731 12.4553 13.7732C12.4554 13.7733 12.4554 13.7734 12.4554 13.7734C12.4555 13.7735 12.4555 13.7735 12.8583 13.4773C13.2611 13.181 13.2611 13.1811 13.2611 13.1811C13.2611 13.1811 13.2611 13.1811 13.2611 13.1811C13.2611 13.181 13.2611 13.181 13.261 13.1809C13.2608 13.1806 13.2605 13.1802 13.2601 13.1797C13.2593 13.1786 13.2581 13.1769 13.2563 13.1745C13.2529 13.1698 13.2477 13.1626 13.2407 13.1531C13.2269 13.134 13.2063 13.1055 13.18 13.0687C13.1273 12.995 13.0516 12.888 12.9606 12.756C12.7783 12.4917 12.5361 12.1294 12.2947 11.7356C12.0523 11.3401 11.8161 10.9216 11.6422 10.5433C11.459 10.1449 11.3786 9.86114 11.3786 9.70977H10.3786ZM11.4631 7.00285C11.2293 7.09566 11.0616 7.28299 10.9469 7.45209C10.8253 7.63116 10.7242 7.84753 10.643 8.07844C10.4805 8.54104 10.3786 9.11864 10.3786 9.70977H11.3786C11.3786 9.22528 11.4634 8.76026 11.5865 8.40992C11.6482 8.23435 11.7146 8.10167 11.7743 8.01368C11.8408 7.91572 11.8681 7.91799 11.832 7.93231L11.4631 7.00285ZM12.2029 6.96955C12.1539 6.94671 12.0309 6.88736 11.8508 6.89945C11.7194 6.90827 11.5878 6.95338 11.4631 7.00285L11.832 7.93231C11.8829 7.91213 11.9136 7.90191 11.9306 7.89701C11.9482 7.89195 11.9408 7.89566 11.9178 7.8972C11.9052 7.89805 11.8885 7.89822 11.8687 7.89632C11.8486 7.89437 11.8292 7.89065 11.8114 7.88574C11.7941 7.881 11.7815 7.87605 11.7758 7.8737C11.7719 7.87208 11.7698 7.87099 11.7797 7.87563L12.2029 6.96955ZM12.2157 6.96758C12.1998 6.96758 12.1912 6.9668 12.1883 6.96647C12.1856 6.96618 12.1879 6.96628 12.1936 6.96773C12.1964 6.96843 12.1994 6.96929 12.2026 6.97032C12.2057 6.97134 12.2083 6.97233 12.2103 6.9731C12.2122 6.97385 12.213 6.97423 12.212 6.97379C12.2106 6.97315 12.2087 6.97228 12.2029 6.96955L11.7797 7.87563C11.805 7.88744 11.8656 7.91634 11.9495 7.93748C12.0315 7.95811 12.1188 7.96758 12.2157 7.96758V6.96758ZM12.8583 7.23765C12.5674 6.83098 12.5675 6.83091 12.5676 6.83085C12.5676 6.83083 12.5677 6.83076 12.5678 6.83072C12.5679 6.83064 12.568 6.83056 12.5681 6.83048C12.5683 6.83033 12.5685 6.83019 12.5687 6.83006C12.5691 6.82981 12.5693 6.82961 12.5696 6.82946C12.57 6.82915 12.5701 6.82905 12.57 6.82913C12.5698 6.82929 12.5685 6.83018 12.5662 6.83169C12.5617 6.83475 12.5533 6.84022 12.5417 6.84733C12.5181 6.86177 12.4835 6.88162 12.4422 6.90132C12.3499 6.94534 12.2681 6.96758 12.2157 6.96758V7.96758C12.4844 7.96758 12.724 7.87485 12.8727 7.8039C12.9519 7.76612 13.0177 7.72849 13.0644 7.69982C13.088 7.68537 13.1072 7.67288 13.1215 7.66336C13.1286 7.65859 13.1346 7.65455 13.1392 7.65134C13.1415 7.64973 13.1435 7.64833 13.1452 7.64716C13.146 7.64657 13.1468 7.64604 13.1475 7.64557C13.1478 7.64533 13.1481 7.64511 13.1484 7.6449C13.1485 7.64479 13.1487 7.64469 13.1488 7.6446C13.1489 7.64455 13.149 7.64448 13.149 7.64445C13.1491 7.64439 13.1492 7.64432 12.8583 7.23765ZM13.2894 6.96758C13.3269 6.96758 13.343 6.97707 13.3319 6.9723C13.3227 6.96832 13.3058 6.95921 13.2834 6.94349C13.2621 6.92848 13.2429 6.91253 13.2291 6.90025C13.2225 6.89435 13.2178 6.88992 13.2155 6.88771C13.2144 6.88661 13.2139 6.88612 13.2141 6.88632C13.2142 6.88642 13.2144 6.88669 13.2149 6.88716C13.2151 6.8874 13.2154 6.88768 13.2157 6.88801C13.2159 6.88818 13.2161 6.88836 13.2163 6.88855C13.2164 6.88864 13.2164 6.88874 13.2165 6.88884C13.2166 6.88889 13.2167 6.88897 13.2167 6.889C13.2168 6.88908 13.2169 6.88916 12.8583 7.23765C12.4998 7.58614 12.4998 7.58622 12.4999 7.58631C12.5 7.58633 12.5 7.58642 12.5001 7.58648C12.5002 7.58659 12.5003 7.58671 12.5004 7.58684C12.5007 7.58708 12.5009 7.58734 12.5012 7.58762C12.5018 7.58817 12.5024 7.58879 12.503 7.58945C12.5043 7.59079 12.5059 7.59236 12.5077 7.59415C12.5113 7.59771 12.5158 7.60216 12.5211 7.60735C12.5319 7.61771 12.5463 7.63124 12.5639 7.6469C12.5985 7.67773 12.6481 7.71927 12.7086 7.76174C12.8086 7.832 13.0241 7.96758 13.2894 7.96758V6.96758ZM13.4999 7.23765C12.9999 7.23133 12.9999 7.23111 12.9999 7.23089C12.9999 7.23081 12.9999 7.2306 12.9999 7.23045C12.9999 7.23016 12.9999 7.22988 13 7.22959C13 7.22902 13 7.22846 13 7.22791C13 7.22681 13 7.22574 13.0001 7.22471C13.0001 7.22264 13.0002 7.2207 13.0003 7.21888C13.0004 7.21524 13.0006 7.212 13.0008 7.20907C13.0013 7.20338 13.0019 7.19817 13.0027 7.19308C13.004 7.18535 13.0074 7.16697 13.0189 7.14213C13.0308 7.11665 13.0583 7.06932 13.1146 7.02811C13.1767 6.98273 13.2426 6.96758 13.2894 6.96758V7.96758C13.44 7.96758 13.5841 7.92369 13.7051 7.8352C13.8203 7.75087 13.8875 7.64606 13.926 7.56309C13.9642 7.48078 13.9814 7.40491 13.9897 7.35407C13.994 7.32743 13.9965 7.30425 13.9979 7.28598C13.9986 7.27677 13.9991 7.26859 13.9993 7.26158C13.9995 7.25808 13.9996 7.25484 13.9997 7.25191C13.9997 7.25044 13.9998 7.24904 13.9998 7.24772C13.9998 7.24706 13.9998 7.24642 13.9998 7.24579C13.9998 7.24548 13.9998 7.24517 13.9998 7.24487C13.9998 7.24472 13.9998 7.24449 13.9998 7.24442C13.9998 7.24419 13.9998 7.24397 13.4999 7.23765ZM12.9999 6.47505V7.23765H13.9999V6.47505H12.9999ZM13.5231 5.97505H13.4999V6.97505H13.5231V5.97505ZM13.0231 6.47505V7.23765H14.0231V6.47505H13.0231ZM13.5231 7.23765C13.0232 7.24397 13.0232 7.24419 13.0232 7.24442C13.0232 7.24449 13.0232 7.24472 13.0232 7.24487C13.0232 7.24517 13.0232 7.24548 13.0232 7.24579C13.0232 7.24642 13.0232 7.24706 13.0232 7.24772C13.0233 7.24904 13.0233 7.25044 13.0233 7.25191C13.0234 7.25484 13.0235 7.25808 13.0237 7.26158C13.024 7.26859 13.0244 7.27677 13.0251 7.28598C13.0266 7.30425 13.029 7.32743 13.0334 7.35407C13.0417 7.40491 13.0588 7.48078 13.097 7.56309C13.1355 7.64606 13.2027 7.75087 13.318 7.8352C13.4389 7.92369 13.583 7.96758 13.7336 7.96758V6.96758C13.7804 6.96758 13.8464 6.98273 13.9084 7.02811C13.9647 7.06932 13.9923 7.11665 14.0041 7.14213C14.0156 7.16697 14.0191 7.18535 14.0203 7.19308C14.0211 7.19817 14.0217 7.20338 14.0222 7.20907C14.0224 7.212 14.0226 7.21524 14.0228 7.21888C14.0228 7.2207 14.0229 7.22264 14.023 7.22471C14.023 7.22574 14.023 7.22681 14.023 7.22791C14.0231 7.22846 14.0231 7.22902 14.0231 7.22959C14.0231 7.22988 14.0231 7.23016 14.0231 7.23045C14.0231 7.2306 14.0231 7.23081 14.0231 7.23089C14.0231 7.23111 14.0231 7.23133 13.5231 7.23765ZM13.7336 7.96758C13.999 7.96758 14.2144 7.832 14.3145 7.76174C14.3749 7.71927 14.4246 7.67773 14.4592 7.6469C14.4767 7.63124 14.4911 7.61771 14.5019 7.60735C14.5073 7.60216 14.5118 7.59771 14.5153 7.59415C14.5171 7.59236 14.5187 7.59079 14.52 7.58945C14.5207 7.58879 14.5213 7.58817 14.5218 7.58762C14.5221 7.58734 14.5223 7.58708 14.5226 7.58683C14.5227 7.58671 14.5228 7.58659 14.5229 7.58648C14.523 7.58642 14.5231 7.58633 14.5231 7.5863C14.5232 7.58622 14.5233 7.58614 14.1647 7.23765C13.8062 6.88916 13.8063 6.88908 13.8063 6.889C13.8064 6.88897 13.8064 6.88889 13.8065 6.88884C13.8066 6.88874 13.8067 6.88864 13.8068 6.88855C13.807 6.88836 13.8071 6.88818 13.8073 6.88801C13.8076 6.88768 13.8079 6.8874 13.8081 6.88716C13.8086 6.88669 13.8089 6.88642 13.809 6.88632C13.8092 6.88612 13.8087 6.88661 13.8075 6.88771C13.8052 6.88992 13.8006 6.89435 13.7939 6.90025C13.7802 6.91253 13.761 6.92848 13.7396 6.94349C13.7172 6.95921 13.7004 6.96832 13.6911 6.9723C13.68 6.97707 13.6962 6.96758 13.7336 6.96758V7.96758ZM14.1647 7.23765C13.8738 7.64432 13.8739 7.64439 13.874 7.64445C13.874 7.64448 13.8741 7.64455 13.8742 7.6446C13.8743 7.64469 13.8745 7.64479 13.8746 7.6449C13.8749 7.64511 13.8752 7.64533 13.8756 7.64557C13.8762 7.64604 13.877 7.64657 13.8778 7.64716C13.8795 7.64833 13.8815 7.64973 13.8838 7.65134C13.8884 7.65455 13.8944 7.65859 13.9015 7.66336C13.9158 7.67288 13.935 7.68537 13.9586 7.69982C14.0054 7.72849 14.0711 7.76612 14.1503 7.8039C14.2991 7.87485 14.5386 7.96758 14.8074 7.96758V6.96758C14.7549 6.96758 14.6731 6.94534 14.5808 6.90132C14.5395 6.88162 14.5049 6.86177 14.4813 6.84733C14.4697 6.84022 14.4614 6.83475 14.4568 6.83169C14.4545 6.83018 14.4532 6.82929 14.453 6.82913C14.4529 6.82905 14.453 6.82915 14.4535 6.82946C14.4537 6.82961 14.454 6.82981 14.4543 6.83006C14.4545 6.83019 14.4547 6.83033 14.4549 6.83048C14.455 6.83056 14.4551 6.83064 14.4553 6.83072C14.4553 6.83076 14.4554 6.83083 14.4554 6.83085C14.4555 6.83091 14.4556 6.83098 14.1647 7.23765ZM14.8074 7.96758C14.9042 7.96758 14.9916 7.95811 15.0735 7.93748C15.1575 7.91634 15.218 7.88744 15.2433 7.87563L14.8202 6.96955C14.8143 6.97228 14.8125 6.97315 14.811 6.97379C14.81 6.97423 14.8108 6.97385 14.8127 6.9731C14.8147 6.97233 14.8173 6.97134 14.8205 6.97032C14.8236 6.96929 14.8266 6.96843 14.8294 6.96773C14.8351 6.96628 14.8374 6.96618 14.8348 6.96647C14.8318 6.9668 14.8232 6.96758 14.8074 6.96758V7.96758ZM15.2433 7.87563C15.2532 7.87099 15.2511 7.87208 15.2472 7.8737C15.2415 7.87605 15.2289 7.881 15.2117 7.88574C15.1938 7.89065 15.1744 7.89437 15.1543 7.89632C15.1345 7.89822 15.1178 7.89805 15.1052 7.8972C15.0822 7.89566 15.0748 7.89195 15.0924 7.89701C15.1094 7.90191 15.1401 7.91213 15.191 7.93231L15.5599 7.00285C15.4353 6.95338 15.3036 6.90827 15.1722 6.89945C14.9921 6.88736 14.8691 6.94671 14.8202 6.96955L15.2433 7.87563ZM15.191 7.93231C15.1549 7.91799 15.1822 7.91572 15.2487 8.01368C15.3085 8.10167 15.3748 8.23435 15.4365 8.40992C15.5596 8.76026 15.6444 9.22528 15.6444 9.70977H16.6444C16.6444 9.11864 16.5425 8.54104 16.38 8.07844C16.2989 7.84753 16.1977 7.63116 16.0762 7.45209C15.9614 7.28299 15.7937 7.09566 15.5599 7.00285L15.191 7.93231ZM15.6444 9.70977C15.6444 9.86114 15.564 10.1449 15.3808 10.5433C15.2069 10.9216 14.9707 11.3401 14.7283 11.7356C14.4869 12.1294 14.2447 12.4917 14.0624 12.756C13.9714 12.888 13.8958 12.995 13.8431 13.0687C13.8167 13.1055 13.7961 13.134 13.7823 13.1531C13.7754 13.1626 13.7701 13.1698 13.7667 13.1745C13.765 13.1769 13.7637 13.1786 13.7629 13.1797C13.7625 13.1802 13.7622 13.1806 13.7621 13.1809C13.762 13.181 13.7619 13.181 13.7619 13.1811C13.7619 13.1811 13.7619 13.1811 13.7619 13.1811C13.7619 13.1811 13.7619 13.181 14.1647 13.4773C14.5675 13.7735 14.5675 13.7735 14.5676 13.7734C14.5676 13.7734 14.5677 13.7733 14.5677 13.7732C14.5678 13.7731 14.5679 13.7729 14.5681 13.7727C14.5684 13.7723 14.5688 13.7717 14.5694 13.771C14.5705 13.7694 14.5721 13.7673 14.5741 13.7645C14.5782 13.759 14.584 13.7509 14.5916 13.7405C14.6068 13.7196 14.6287 13.6892 14.6565 13.6503C14.7121 13.5726 14.7911 13.4609 14.8857 13.3237C15.0746 13.0497 15.3273 12.6718 15.5809 12.2582C15.8334 11.8463 16.0921 11.3901 16.2894 10.9611C16.4774 10.5523 16.6444 10.0962 16.6444 9.70977H15.6444ZM13.6828 13.6106L13.7876 13.9892L14.7514 13.7226L14.6466 13.344L13.6828 13.6106ZM14.2695 13.8559C14.5777 14.2496 14.5778 14.2495 14.578 14.2494C14.578 14.2493 14.5781 14.2492 14.5782 14.2492C14.5784 14.249 14.5787 14.2488 14.5789 14.2486C14.5795 14.2482 14.5801 14.2477 14.5809 14.2471C14.5824 14.2458 14.5845 14.2442 14.587 14.2422C14.5921 14.2381 14.5991 14.2325 14.608 14.2253C14.6257 14.211 14.6507 14.1904 14.6821 14.1639C14.7449 14.1109 14.8336 14.034 14.9409 13.9353C15.1551 13.7381 15.4454 13.4521 15.753 13.0939C16.3621 12.3846 17.0687 11.358 17.3565 10.151L16.3838 9.91907C16.1485 10.9059 15.5547 11.7898 14.9943 12.4424C14.7172 12.7652 14.4553 13.0231 14.2636 13.1995C14.168 13.2876 14.0902 13.3549 14.0374 13.3995C14.011 13.4217 13.9909 13.4383 13.9779 13.4488C13.9714 13.4541 13.9666 13.4579 13.9638 13.4601C13.9624 13.4613 13.9615 13.462 13.961 13.4623C13.9608 13.4625 13.9607 13.4626 13.9607 13.4626C13.9608 13.4626 13.9608 13.4625 13.9609 13.4625C13.9609 13.4625 13.961 13.4624 13.961 13.4624C13.9611 13.4623 13.9612 13.4622 14.2695 13.8559ZM17.3565 10.151C17.6589 8.88239 17.2601 7.8292 16.8078 7.11547C16.5818 6.75876 16.3385 6.47973 16.1515 6.28935C16.0577 6.19379 15.977 6.11955 15.9183 6.068C15.8889 6.0422 15.8649 6.02201 15.8474 6.0076C15.8386 6.00039 15.8315 5.99462 15.8261 5.99031C15.8234 5.98816 15.8212 5.98637 15.8194 5.98494C15.8185 5.98423 15.8177 5.98361 15.817 5.98308C15.8166 5.98282 15.8163 5.98258 15.8161 5.98236C15.8159 5.98225 15.8157 5.9821 15.8157 5.98205C15.8155 5.98191 15.8153 5.98177 15.5085 6.37658C15.2017 6.77139 15.2016 6.77127 15.2014 6.77115C15.2014 6.77112 15.2012 6.77101 15.2011 6.77094C15.201 6.77081 15.2008 6.77071 15.2007 6.77062C15.2005 6.77045 15.2004 6.77037 15.2004 6.77037C15.2004 6.77037 15.2008 6.77071 15.2017 6.77139C15.2034 6.77276 15.2068 6.77548 15.2117 6.77954C15.2216 6.78765 15.2375 6.80107 15.2587 6.8196C15.301 6.85671 15.3634 6.91403 15.4381 6.99005C15.5881 7.14283 15.7834 7.36705 15.9631 7.65072C16.3224 8.21773 16.6044 8.99376 16.3838 9.91907L17.3565 10.151ZM15.553 5.87857L15.4316 5.86771L15.3426 6.86374L15.464 6.8746L15.553 5.87857ZM14.8871 5.80005V6.36573H15.8871V5.80005H14.8871Z" fill="#FFD018"/>
<path fill-rule="evenodd" clip-rule="evenodd" d="M11.3276 11.3388C11.3276 11.3388 11.5635 10.7054 11.9759 10.9165C12.3884 11.1276 12.3524 11.8626 12.7276 11.6007C13.1029 11.3388 12.8902 10.9165 13.4462 10.9165C14.0023 10.9165 13.9204 11.6007 14.2539 11.6007C14.5874 11.6007 14.6163 10.9165 14.9891 10.9165C15.3619 10.9165 15.7399 11.3388 15.7399 11.3388L13.5338 14.3406L11.3276 11.3388Z" fill="#8FC753"/>
<path fill-rule="evenodd" clip-rule="evenodd" d="M7.44666 14.8431L7.20938 14.5233C7.20938 14.5233 8.19343 14.5233 8.32693 14.7547C8.36456 14.8199 8.38097 14.8698 8.39347 14.9077C8.42531 15.0043 8.43169 15.0236 8.69862 15.0236C9.07031 15.0236 8.69862 14.6549 8.54385 14.5233C8.38908 14.3918 8.48333 14.1626 8.69862 14.1626C8.78159 14.1626 8.926 14.1435 9.10352 14.1202C9.38662 14.0829 9.75392 14.0345 10.0905 14.0345C10.638 14.0345 10.1841 14.5233 10.1841 14.5233C10.1841 14.5233 10.893 14.5233 10.717 14.3199C10.541 14.1164 11.3079 13.8689 11.6393 13.8689C11.9482 13.8689 13.3388 13.9382 13.5259 13.9476C13.7215 13.9382 15.1752 13.8689 15.4841 13.8689C15.8154 13.8689 16.5823 14.1164 16.4064 14.3199C16.2304 14.5233 16.9393 14.5233 16.9393 14.5233C16.9393 14.5233 16.4854 14.0345 17.0329 14.0345C17.3695 14.0345 17.7368 14.0829 18.0199 14.1202C18.1974 14.1435 18.3418 14.1626 18.4248 14.1626C18.6401 14.1626 18.7343 14.3918 18.5795 14.5233C18.4248 14.6549 18.0531 15.0236 18.4248 15.0236C18.6917 15.0236 18.6981 15.0043 18.7299 14.9077C18.7424 14.8698 18.7588 14.8199 18.7965 14.7547C18.9252 14.5315 19.8453 14.5236 19.9104 14.5234C19.8956 14.4962 19.8871 14.4648 19.8871 14.4314C19.8871 14.3278 19.9683 14.2439 20.0685 14.2439C20.1688 14.2439 20.25 14.3278 20.25 14.4314C20.25 14.5349 20.1688 14.6189 20.0685 14.6189C20.0018 14.6189 19.9434 14.5816 19.9119 14.5261L19.6767 14.8431L19.9216 15.1463C19.9546 15.0994 20.0081 15.0689 20.0685 15.0689C20.1688 15.0689 20.25 15.1528 20.25 15.2564C20.25 15.3599 20.1688 15.4439 20.0685 15.4439C19.9683 15.4439 19.8871 15.3599 19.8871 15.2564C19.8871 15.235 19.8906 15.2144 19.897 15.1953C19.7582 15.1279 19.5185 15.0236 19.363 15.0236H18.93C19.0389 15.0236 19.6386 15.4193 19.457 15.5908L19.4262 15.62C19.2481 15.7893 19.0157 16.0102 18.7965 15.8898C18.5644 15.7623 18.4248 15.5908 18.4248 15.5908L18.2429 15.0236C18.2429 15.0236 17.1711 14.747 17.1711 14.9385C17.1711 15.13 17.168 15.2238 16.7879 15.2238C16.5752 15.2238 16.3697 15.1877 16.1887 15.1559C16.0463 15.1309 15.9191 15.1086 15.8154 15.1086C15.6672 15.1086 15.4382 15.1543 15.2687 15.1881C15.1692 15.208 15.0902 15.2238 15.0602 15.2238C14.979 15.2238 14.545 15.2042 14.8424 15.0236C15.1399 14.8431 15.2084 14.6549 15.2084 14.6549C15.2084 14.6549 14.0178 14.8317 13.5467 14.8426V14.8431L13.5254 14.8429L13.5041 14.8431V14.8426C13.0371 14.8316 11.9149 14.6549 11.9149 14.6549C11.9149 14.6549 11.9835 14.8431 12.2809 15.0236C12.5784 15.2042 12.1444 15.2238 12.0632 15.2238C12.0332 15.2238 11.9542 15.208 11.8547 15.1881C11.6852 15.1543 11.4562 15.1086 11.3079 15.1086C11.2043 15.1086 11.0771 15.1309 10.9347 15.1559C10.7537 15.1877 10.5482 15.2238 10.3355 15.2238C9.95537 15.2238 9.95232 15.13 9.95232 14.9385C9.95232 14.747 8.88046 15.0236 8.88046 15.0236L8.69862 15.5908C8.69862 15.5908 8.55902 15.7623 8.32693 15.8898C8.10769 16.0102 7.87531 15.7893 7.69715 15.62L7.66639 15.5908C7.48476 15.4193 8.08451 15.0236 8.19343 15.0236H7.76037C7.53059 15.0236 7.11699 15.2512 7.11699 15.2512L7.44666 14.8431ZM6.93145 14.6189C7.03166 14.6189 7.1129 14.5349 7.1129 14.4314C7.1129 14.3278 7.03166 14.2439 6.93145 14.2439C6.83124 14.2439 6.75 14.3278 6.75 14.4314C6.75 14.5349 6.83124 14.6189 6.93145 14.6189ZM6.93145 15.4439C7.03166 15.4439 7.1129 15.3599 7.1129 15.2564C7.1129 15.1528 7.03166 15.0689 6.93145 15.0689C6.83124 15.0689 6.75 15.1528 6.75 15.2564C6.75 15.3599 6.83124 15.4439 6.93145 15.4439Z" fill="white"/>
<path fill-rule="evenodd" clip-rule="evenodd" d="M13.4208 2.52222H13.5708V2.68299H13.755V2.83299H13.5708V3.10602C13.7776 3.14097 13.9355 3.32649 13.9355 3.55011C13.9355 3.79864 13.7405 4.00011 13.5 4.00011C13.2595 4.00011 13.0645 3.79864 13.0645 3.55011C13.0645 3.32953 13.2181 3.14602 13.4208 3.10753V2.83299H13.2515V2.68299H13.4208V2.52222Z" fill="#FFD018"/>
<path fill-rule="evenodd" clip-rule="evenodd" d="M11.8101 4.9194C11.6001 4.9194 11.1574 5.14393 11.1574 5.14393L11.5016 5.90739L13.5781 5.82949L15.6546 5.90739L15.9989 5.14393C15.9989 5.14393 15.5561 4.9194 15.3462 4.9194C15.254 4.9194 15.2423 4.86515 15.2291 4.80429C15.2124 4.72656 15.1933 4.63806 15.0012 4.63806C14.8652 4.63806 14.7692 4.66061 14.6914 4.67887C14.5732 4.70662 14.4973 4.72445 14.3878 4.63806C14.3832 4.63445 14.3786 4.63084 14.3741 4.62723C14.1968 4.48722 14.0127 4.3418 13.7149 4.3418C13.6555 4.3418 13.6111 4.39798 13.5781 4.48848C13.5452 4.39798 13.5008 4.3418 13.4414 4.3418C13.1435 4.3418 12.9595 4.48722 12.7822 4.62723C12.7776 4.63084 12.7731 4.63445 12.7685 4.63806C12.659 4.72445 12.5831 4.70662 12.4649 4.67887C12.3871 4.66061 12.2911 4.63806 12.1551 4.63806C11.963 4.63806 11.9439 4.72656 11.9271 4.80429C11.914 4.86515 11.9023 4.9194 11.8101 4.9194Z" fill="#E31D1C"/>
<path fill-rule="evenodd" clip-rule="evenodd" d="M13.206 3.67651L13.0603 3.72708C12.6751 3.8607 12.3416 3.90477 12.0598 3.86135C11.4798 3.77196 10.7229 4.07377 10.8177 4.51576C10.8593 4.70946 10.9806 5.07528 11.1067 5.38533C11.2818 5.81555 11.4043 6.03256 11.5476 6.03256C11.5662 6.03256 11.7607 6.04318 11.8256 6.04673C11.8373 6.04736 11.8448 6.04777 11.8463 6.04785C12.057 6.05852 12.2428 6.06416 12.4216 6.06333C12.9384 6.06091 13.2588 6.01017 13.3732 5.85511L13.4068 5.80948L13.3909 5.75452C13.2551 5.28782 13.1923 4.64757 13.2038 3.83537L13.206 3.67651ZM11.0303 4.46705C10.9838 4.25033 11.5758 4.01425 12.0277 4.08389C12.3092 4.12727 12.6282 4.09462 12.9848 3.98733C12.9829 4.70926 13.0418 5.29567 13.1624 5.74769C13.059 5.80176 12.7875 5.83662 12.4206 5.83833C12.2464 5.83914 12.0642 5.83361 11.8569 5.82312C11.8588 5.82321 11.6434 5.81128 11.5697 5.80825C11.5673 5.80576 11.5644 5.80264 11.5612 5.79889C11.5417 5.77624 11.5174 5.73962 11.49 5.69114C11.4361 5.59555 11.3731 5.45931 11.3075 5.29812C11.1859 4.99948 11.0686 4.64564 11.0303 4.46705Z" fill="#FFD018"/>
<path fill-rule="evenodd" clip-rule="evenodd" d="M13.841 3.67651L13.9868 3.72708C14.372 3.8607 14.7055 3.90477 14.9873 3.86135C15.5673 3.77196 16.3242 4.07377 16.2294 4.51576C16.1878 4.70946 16.0665 5.07528 15.9403 5.38533C15.7653 5.81555 15.6428 6.03256 15.4994 6.03256C15.4809 6.03256 15.2864 6.04318 15.2215 6.04673C15.2098 6.04736 15.2023 6.04777 15.2008 6.04785C14.99 6.05852 14.8042 6.06416 14.6255 6.06333C14.1087 6.06091 13.7883 6.01017 13.6739 5.85511L13.6402 5.80948L13.6562 5.75452C13.7919 5.28782 13.8548 4.64757 13.8433 3.83537L13.841 3.67651ZM16.0168 4.46705C16.0633 4.25033 15.4713 4.01425 15.0194 4.08389C14.7379 4.12727 14.4189 4.09462 14.0623 3.98733C14.0642 4.70926 14.0053 5.29567 13.8847 5.74769C13.988 5.80176 14.2596 5.83662 14.6265 5.83833C14.8007 5.83914 14.9829 5.83361 15.1902 5.82312C15.1883 5.82321 15.4037 5.81128 15.4774 5.80825C15.4798 5.80576 15.4827 5.80264 15.4859 5.79889C15.5054 5.77624 15.5297 5.73962 15.557 5.69114C15.611 5.59555 15.674 5.45931 15.7396 5.29812C15.8611 4.99948 15.9785 4.64564 16.0168 4.46705Z" fill="#FFD018"/>
<path fill-rule="evenodd" clip-rule="evenodd" d="M11.1275 5.85346C11.1277 5.81184 11.1037 5.73666 11.0513 5.59706C10.9791 5.40473 10.9297 5.34645 10.8247 5.28233C10.7716 5.24987 10.7508 5.22174 10.7258 5.1249C10.7058 5.04743 10.6855 4.98698 10.6622 4.93126C10.6575 4.91993 10.6473 4.89738 10.6376 4.87568L10.6376 4.87567C10.6276 4.85338 10.618 4.83198 10.615 4.82451C10.5988 4.78375 10.5921 4.7475 10.5921 4.68874C10.5921 4.62175 10.6096 4.56809 10.6559 4.47051C10.6835 4.41223 10.6871 4.40449 10.6969 4.37991C10.7168 4.33004 10.727 4.28693 10.727 4.24291V3.95405C10.727 3.78537 10.7337 3.7751 10.8165 3.78629C10.8248 3.78741 10.8329 3.78869 10.8413 3.79021C10.8382 3.78966 10.8811 3.79801 10.8913 3.79921C10.911 3.80155 10.9272 3.79997 10.9436 3.79258C10.9733 3.77917 10.9951 3.75286 11.0473 3.6747C11.0719 3.63789 11.0984 3.6415 11.1925 3.68731C11.2058 3.69382 11.2137 3.6976 11.2223 3.70155C11.3185 3.74572 11.3853 3.74701 11.4421 3.67761C11.5294 3.57098 11.5871 3.57778 11.6929 3.6807C11.7452 3.73154 11.7716 3.75078 11.8051 3.7557L11.8079 3.75611C11.8431 3.76133 11.8453 3.76165 11.9446 3.70078C11.9514 3.71487 11.9661 3.7203 11.9899 3.72586C12.0218 3.73329 12.0691 3.7358 12.1008 3.73085C12.1272 3.72673 12.1459 3.71858 12.1582 3.69284C12.2002 3.69157 12.2499 3.69089 12.3073 3.69089V3.61589C12.2338 3.61589 12.1725 3.61698 12.123 3.61906L12.1091 3.60699C12.0819 3.58301 12.0396 3.54577 12.0196 3.55169C12.0169 3.55248 12.009 3.55951 11.998 3.56919C11.9807 3.58461 11.9557 3.60676 11.9322 3.62115C11.8337 3.68163 11.8299 3.68359 11.8153 3.68144C11.8023 3.67954 11.7837 3.66598 11.7427 3.62608C11.6098 3.49687 11.5051 3.48453 11.3867 3.62917C11.3567 3.66585 11.3219 3.66518 11.2518 3.63301C11.2438 3.62935 11.2363 3.62576 11.2234 3.61947C11.0979 3.55832 11.042 3.55071 10.9876 3.63208C10.9445 3.69658 10.9263 3.71853 10.9145 3.72385L10.9119 3.7252C10.9094 3.72639 10.9059 3.72577 10.8735 3.71988L10.8538 3.71633C10.8444 3.71463 10.8353 3.71319 10.8259 3.71192C10.6888 3.6934 10.6545 3.74628 10.6545 3.95405V4.24291C10.6545 4.27575 10.6464 4.30975 10.6298 4.3513C10.6208 4.37371 10.6174 4.38113 10.5907 4.43752C10.5399 4.54476 10.5195 4.60705 10.5195 4.68874C10.5195 4.75713 10.528 4.80305 10.5479 4.853C10.5515 4.86214 10.5624 4.88646 10.5731 4.9103L10.5731 4.9103L10.5731 4.91031L10.5731 4.91032L10.5731 4.91035C10.5824 4.93097 10.5915 4.95122 10.5956 4.96098C10.6174 5.01334 10.6366 5.07033 10.6557 5.14425C10.6856 5.26014 10.7184 5.30447 10.7878 5.34689C10.8791 5.40265 10.9175 5.44794 10.9836 5.62419C11.018 5.71576 11.0394 5.78 11.0496 5.82018C11.0517 5.82849 11.0532 5.83545 11.0543 5.84105C11.0438 5.84948 11.045 5.85544 11.0485 5.87206C11.0521 5.88029 11.0521 5.88029 11.0544 5.88344L11.0544 5.88344C11.0586 5.88852 11.0586 5.88852 11.0636 5.89269C11.0657 5.89425 11.0679 5.89566 11.0701 5.89688C11.0688 5.89667 11.0677 5.89623 11.0664 5.89532C11.0707 5.90042 11.0766 5.90769 11.0839 5.91723C11.155 6.01017 11.2444 6.01017 11.33 5.92028L11.2783 5.86767C11.2221 5.92669 11.1837 5.92669 11.1408 5.87072L11.1275 5.85346ZM11.9992 3.65099L11.9978 3.65031L11.9984 3.65057L11.9992 3.65099ZM15.8364 5.85346C15.8362 5.81184 15.8602 5.73666 15.9126 5.59706C15.9848 5.40473 16.0342 5.34645 16.1392 5.28233C16.1923 5.24987 16.2131 5.22174 16.2381 5.1249C16.2581 5.04743 16.2784 4.98698 16.3017 4.93126C16.3065 4.91993 16.3166 4.89737 16.3263 4.87566L16.3264 4.87561C16.3364 4.85334 16.346 4.83197 16.3489 4.82451C16.3651 4.78375 16.3718 4.7475 16.3718 4.68874C16.3718 4.62175 16.3543 4.56809 16.308 4.47051C16.2804 4.41223 16.2769 4.40449 16.267 4.37991C16.2471 4.33004 16.2369 4.28693 16.2369 4.24291V3.95405C16.2369 3.78537 16.2302 3.7751 16.1474 3.78629C16.1391 3.78741 16.131 3.78869 16.1226 3.79021C16.1257 3.78966 16.0828 3.79801 16.0726 3.79921C16.0529 3.80155 16.0367 3.79997 16.0204 3.79258C15.9906 3.77917 15.9688 3.75286 15.9166 3.6747C15.892 3.63789 15.8655 3.6415 15.7715 3.68731C15.7581 3.69382 15.7502 3.6976 15.7416 3.70155C15.6454 3.74572 15.5786 3.74701 15.5218 3.67761C15.4345 3.57098 15.3768 3.57778 15.271 3.6807C15.2187 3.73154 15.1923 3.75078 15.1588 3.7557L15.1561 3.75611C15.1208 3.76133 15.1187 3.76165 15.0193 3.70078C15.0125 3.71487 14.9978 3.7203 14.974 3.72586C14.9422 3.73329 14.8948 3.7358 14.8631 3.73085C14.8368 3.72673 14.818 3.71858 14.8057 3.69284C14.7637 3.69157 14.714 3.69089 14.6566 3.69089V3.61589C14.7302 3.61589 14.7914 3.61698 14.8409 3.61906L14.8548 3.60699C14.882 3.58301 14.9243 3.54577 14.9444 3.55169C14.947 3.55248 14.9549 3.5595 14.9659 3.56917L14.9659 3.56918L14.9659 3.56919C14.9826 3.58399 15.0063 3.605 15.0289 3.61939L15.0317 3.62115C15.1302 3.68163 15.134 3.68359 15.1486 3.68144C15.1616 3.67954 15.1802 3.66598 15.2213 3.62608C15.3541 3.49687 15.4588 3.48453 15.5772 3.62917C15.6072 3.66585 15.6421 3.66518 15.7121 3.63301C15.7201 3.62935 15.7276 3.62576 15.7405 3.61947C15.866 3.55832 15.9219 3.55071 15.9763 3.63208C16.0194 3.69658 16.0376 3.71853 16.0494 3.72385L16.052 3.7252C16.0546 3.72639 16.058 3.72577 16.0905 3.71988L16.1101 3.71633C16.1196 3.71463 16.1286 3.71319 16.138 3.71192C16.2751 3.6934 16.3095 3.74628 16.3095 3.95405V4.24291C16.3095 4.27575 16.3175 4.30975 16.3341 4.3513C16.3431 4.37371 16.3465 4.38113 16.3732 4.43752C16.4241 4.54476 16.4444 4.60705 16.4444 4.68874C16.4444 4.75713 16.4359 4.80305 16.4161 4.853C16.4124 4.86213 16.4015 4.88641 16.3908 4.91022L16.3908 4.91024L16.3908 4.91028L16.3908 4.9103L16.3907 4.91048C16.3815 4.93105 16.3724 4.95124 16.3684 4.96098C16.3465 5.01334 16.3273 5.07033 16.3082 5.14425C16.2783 5.26014 16.2456 5.30447 16.1761 5.34689C16.0848 5.40265 16.0465 5.44794 15.9803 5.62419C15.9459 5.71576 15.9246 5.78 15.9144 5.82018C15.9122 5.82849 15.9107 5.83545 15.9097 5.84105C15.9202 5.84948 15.9189 5.85544 15.9154 5.87206L15.9154 5.87207L15.9154 5.8721C15.913 5.87777 15.9122 5.87952 15.9112 5.8811L15.9095 5.88344C15.9074 5.88599 15.9064 5.88726 15.9052 5.88841C15.9046 5.889 15.904 5.88955 15.9032 5.89022C15.9025 5.89088 15.9016 5.89166 15.9003 5.89269L15.9003 5.89269C15.8982 5.89425 15.8961 5.89566 15.8938 5.89688C15.8951 5.89667 15.8962 5.89623 15.8975 5.89532C15.8932 5.90042 15.8873 5.90769 15.88 5.91723C15.8089 6.01017 15.7195 6.01017 15.6339 5.92028L15.6856 5.86767C15.7418 5.92669 15.7803 5.92669 15.8231 5.87072L15.8364 5.85346Z" fill="#5E5E5E"/>
<path d="M11.8305 14.414L11.8761 14.0417C12.682 14.1404 13.2201 14.1897 13.4912 14.1899C13.9001 14.2083 14.3875 14.1787 14.9525 14.1006L15.0039 14.4721C14.4177 14.5531 13.9081 14.584 13.4828 14.5647C13.1998 14.5647 12.6515 14.5145 11.8305 14.414Z" fill="#272727"/>
</g>
</g>
</g>
<rect x="1.75" y="1.25" width="23.5" height="17.5" stroke="black" stroke-opacity="0.1" stroke-width="0.5" shape-rendering="crispEdges"/>
</g>
<defs>
<filter id="filter0_dd_701_20315" x="0" y="0" width="27" height="21" filterUnits="userSpaceOnUse" color-interpolation-filters="sRGB">
<feFlood flood-opacity="0" result="BackgroundImageFix"/>
<feColorMatrix in="SourceAlpha" type="matrix" values="0 0 0 0 0 0 0 0 0 0 0 0 0 0 0 0 0 0 127 0" result="hardAlpha"/>
<feOffset dy="0.5"/>
<feGaussianBlur stdDeviation="0.75"/>
<feComposite in2="hardAlpha" operator="out"/>
<feColorMatrix type="matrix" values="0 0 0 0 0 0 0 0 0 0 0 0 0 0 0 0 0 0 0.1 0"/>
<feBlend mode="multiply" in2="BackgroundImageFix" result="effect1_dropShadow_701_20315"/>
<feColorMatrix in="SourceAlpha" type="matrix" values="0 0 0 0 0 0 0 0 0 0 0 0 0 0 0 0 0 0 127 0" result="hardAlpha"/>
<feOffset/>
<feGaussianBlur stdDeviation="0.5"/>
<feComposite in2="hardAlpha" operator="out"/>
<feColorMatrix type="matrix" values="0 0 0 0 0 0 0 0 0 0 0 0 0 0 0 0 0 0 0.11 0"/>
<feBlend mode="multiply" in2="effect1_dropShadow_701_20315" result="effect2_dropShadow_701_20315"/>
<feBlend mode="normal" in="SourceGraphic" in2="effect2_dropShadow_701_20315" result="shape"/>
</filter>
<clipPath id="clip0_701_20315">
<rect x="1.5" y="1" width="24" height="18" fill="white"/>
</clipPath>
</defs>
</svg>
