<svg viewBox="0 0 27 21" fill="none" xmlns="http://www.w3.org/2000/svg">
<g filter="url(#filter0_dd_701_21001)">
<g clip-path="url(#clip0_701_21001)">
<mask id="mask0_701_21001" style="mask-type:alpha" maskUnits="userSpaceOnUse" x="1" y="1" width="25" height="18">
<rect x="1.5" y="1" width="24" height="18" fill="white"/>
</mask>
<g mask="url(#mask0_701_21001)">
<path fill-rule="evenodd" clip-rule="evenodd" d="M1.5 1V19H25.5V1H1.5Z" fill="#2E42A5"/>
<mask id="mask1_701_21001" style="mask-type:alpha" maskUnits="userSpaceOnUse" x="1" y="1" width="25" height="18">
<path fill-rule="evenodd" clip-rule="evenodd" d="M1.5 1V19H25.5V1H1.5Z" fill="white"/>
</mask>
<g mask="url(#mask1_701_21001)">
<rect x="-2.5" y="-2" width="18" height="14" fill="#2B409A"/>
<mask id="mask2_701_21001" style="mask-type:alpha" maskUnits="userSpaceOnUse" x="-3" y="-2" width="19" height="14">
<rect x="-2.5" y="-2" width="18" height="14" fill="white"/>
</mask>
<g mask="url(#mask2_701_21001)">
<path d="M-4.50424 10.9999L-0.543292 12.7371L15.5899 -0.111217L17.6792 -2.69275L13.4435 -3.27337L6.8632 2.26332L1.5667 5.99375L-4.50424 10.9999Z" fill="#F7FCFF"/>
<path d="M-3.96198 12.217L-1.94405 13.2251L16.929 -2.93262H14.0956L-3.96198 12.217Z" fill="#F50100"/>
<path d="M17.5043 10.9999L13.5433 12.7371L-2.58987 -0.111217L-4.67919 -2.69275L-0.443518 -3.27337L6.13683 2.26332L11.4333 5.99375L17.5043 10.9999Z" fill="#F7FCFF"/>
<path d="M17.3691 11.8732L15.3512 12.8813L7.31486 5.96339L4.93226 5.19046L-4.88023 -2.68407H-2.04684L7.76015 5.00356L10.3651 5.93038L17.3691 11.8732Z" fill="#F50100"/>
<mask id="path-12-outside-1_701_21001" maskUnits="userSpaceOnUse" x="-4.5" y="-4" width="22" height="18" fill="black">
<rect fill="white" x="-4.5" y="-4" width="22" height="18"/>
<path fill-rule="evenodd" clip-rule="evenodd" d="M7.48451 -2H5.48451V4H-2.5V6H5.48451V12H7.48451V6H15.5V4H7.48451V-2Z"/>
</mask>
<path fill-rule="evenodd" clip-rule="evenodd" d="M7.48451 -2H5.48451V4H-2.5V6H5.48451V12H7.48451V6H15.5V4H7.48451V-2Z" fill="#F50100"/>
<path d="M5.48451 -2V-3.5H3.98451V-2H5.48451ZM7.48451 -2H8.98451V-3.5H7.48451V-2ZM5.48451 4V5.5H6.98451V4H5.48451ZM-2.5 4V2.5H-4V4H-2.5ZM-2.5 6H-4V7.5H-2.5V6ZM5.48451 6H6.98451V4.5H5.48451V6ZM5.48451 12H3.98451V13.5H5.48451V12ZM7.48451 12V13.5H8.98451V12H7.48451ZM7.48451 6V4.5H5.98451V6H7.48451ZM15.5 6V7.5H17V6H15.5ZM15.5 4H17V2.5H15.5V4ZM7.48451 4H5.98451V5.5H7.48451V4ZM5.48451 -0.5H7.48451V-3.5H5.48451V-0.5ZM6.98451 4V-2H3.98451V4H6.98451ZM-2.5 5.5H5.48451V2.5H-2.5V5.5ZM-1 6V4H-4V6H-1ZM5.48451 4.5H-2.5V7.5H5.48451V4.5ZM6.98451 12V6H3.98451V12H6.98451ZM7.48451 10.5H5.48451V13.5H7.48451V10.5ZM5.98451 6V12H8.98451V6H5.98451ZM15.5 4.5H7.48451V7.5H15.5V4.5ZM14 4V6H17V4H14ZM7.48451 5.5H15.5V2.5H7.48451V5.5ZM5.98451 -2V4H8.98451V-2H5.98451Z" fill="#F7FCFF" mask="url(#path-12-outside-1_701_21001)"/>
</g>
<path fill-rule="evenodd" clip-rule="evenodd" d="M16.9621 9.06754C16.9621 9.06754 17.0361 9.88856 16.8738 10.3538C16.7114 10.819 16.6289 11.089 16.6289 10.7917C16.6289 10.4943 16.5149 10.2586 16.4232 10.2586C16.3314 10.2586 16.4038 10.5535 16.3117 10.5535C16.2195 10.5535 15.902 10.6042 15.902 10.4314C15.902 10.2586 15.8602 10.895 16.0662 10.9519C16.2723 11.0088 15.9662 11.1854 15.8296 11.1307C15.8296 11.1307 16.3916 11.3134 16.6121 11.4691C16.6121 11.4691 17.2728 12.294 17.8909 12.1933C17.8909 12.1933 17.0493 11.9028 17.1976 11.3478C17.3459 10.7927 17.8909 10.7124 17.8909 10.7124C17.8909 10.7124 18.1466 10.798 18.1389 11.022C18.1313 11.2461 18.3259 10.9519 18.3259 10.9519C18.3259 10.9519 18.3573 10.6688 18.3227 10.5997C18.2882 10.5307 18.9085 10.3969 18.9477 10.1054C18.9477 10.1054 18.3138 10.1344 18.2703 10.0595C18.2268 9.98465 18.4665 9.86725 18.3915 9.72126C18.3165 9.57528 17.1976 10.5535 17.1976 10.5535C17.1976 10.5535 17.584 9.8877 17.584 9.53013C17.584 9.17257 17.4858 8.92822 17.1976 8.92822C16.9093 8.92822 16.9621 9.06754 16.9621 9.06754Z" fill="#5EAA22"/>
<path fill-rule="evenodd" clip-rule="evenodd" d="M22.7891 9.26012C22.7881 9.26174 22.7902 9.26318 22.7916 9.26187C22.8391 9.21567 23.0912 8.98971 23.303 9.17356C23.5379 9.37747 23.1846 9.57617 23.1846 9.57617C23.1846 9.57617 23.3498 9.73634 23.5386 9.73634C23.7275 9.73634 23.7738 9.57617 23.7738 9.57617C23.7738 9.57617 23.7882 9.93262 24.4041 10.0676C24.4041 10.0676 24.6239 9.75207 24.4041 9.57934C24.4041 9.57934 24.6638 9.52547 24.6449 9.3152C24.6449 9.3152 24.4315 9.38792 24.2793 9.22083C24.1271 9.05374 23.8305 8.97668 23.6148 9.01521C23.0748 8.82043 22.8276 9.19425 22.7891 9.26012Z" fill="#5EAA22"/>
<path fill-rule="evenodd" clip-rule="evenodd" d="M19.0528 11.0613C19.0528 11.0613 19.6897 12.2593 19.2916 12.5075C18.8935 12.7558 21.1844 12.5792 21.4003 12.5075C21.6161 12.4359 21.3567 12.0582 21.1173 11.9533C20.878 11.8484 19.8938 11.4995 19.632 11.2364C19.3702 10.9733 19.5301 10.8799 19.7409 10.6201C19.9518 10.3604 20.7324 10.2565 20.7324 10.0137C20.7324 9.77095 21.2276 8.76967 21.5736 8.69412C21.9197 8.61858 21.7327 8.49961 21.6532 8.49961C21.5736 8.49961 21.0952 8.99276 20.9138 8.90378C20.7324 8.81481 20.7103 8.82107 20.9138 8.60601C21.1173 8.39095 21.2706 8.14341 21.0015 8.32151C20.7324 8.49961 20.2888 8.78148 20.0755 8.78148C19.8623 8.78148 19.1031 8.68534 19.1974 8.90378C19.2916 9.12223 19.3316 9.5014 19.7409 9.75757C20.1503 10.0137 19.9724 10.2012 19.632 10.448C19.2916 10.6949 19.0528 11.0613 19.0528 11.0613Z" fill="#96877D"/>
<path d="M23.279 9.47705L22.0654 11.9111C22.0654 11.9111 22.03 12.5986 22.8976 12.1405C23.7653 11.6823 23.7311 11.3574 23.9813 11.3574C24.2314 11.3574 24.3109 11.2185 24.3109 11.2185L24.1442 11.0874C24.1442 11.0874 24.125 10.8484 24.2305 10.7947C24.2305 10.7947 24.0235 10.6807 23.9939 10.7759C23.9643 10.8711 23.8183 10.5767 23.9009 10.5767C23.9009 10.5767 23.7183 10.8723 23.6798 10.9876C23.6798 10.9876 23.4156 10.8802 23.4283 10.3826C23.4409 9.88496 23.279 9.47705 23.279 9.47705Z" fill="#FFD018"/>
<path d="M17.5023 9.09158C17.5023 9.09158 16.8843 9.23544 16.9509 9.38516C17.0176 9.53488 17.1158 9.38112 16.8132 9.56154C16.8132 9.56154 16.2817 9.97253 16.1658 9.92799C16.05 9.88345 16.2479 10.0315 16.2479 9.56154C16.2479 9.09158 15.9392 9.47413 16.2479 9.1604C16.5565 8.84667 16.6648 9.09158 16.8132 8.91105C16.9616 8.73053 16.8282 8.82652 17.2309 8.82652C17.6335 8.82652 17.5023 9.09158 17.5023 9.09158Z" fill="#FFD018"/>
<path d="M19.388 11.5105C19.388 11.5105 17.6577 12.8703 17.3118 12.9718C16.966 13.0732 18.0231 12.9438 18.2814 12.7643C18.5396 12.5848 19.388 11.5105 19.388 11.5105Z" fill="#FFD018"/>
<path fill-rule="evenodd" clip-rule="evenodd" d="M22.8184 13.8959C22.8184 13.8959 22.9845 14.9672 22.5509 14.8618C22.1174 14.7564 21.9374 14.7018 21.9374 14.7018C21.9374 14.7018 22.0965 15.2008 22.3237 15.2008C22.3237 15.2008 22.7109 15.9553 22.5619 16.1936C22.5619 16.1936 23.2288 15.6525 23.121 15.2223C23.0132 14.7922 23.2934 15.2931 23.2934 15.2931C23.2934 15.2931 23.5388 15.4116 23.7162 15.2793C23.8936 15.1469 23.714 15.2058 23.5366 14.9538C23.3591 14.7018 23.4029 13.9942 22.8633 13.6274C22.3237 13.2607 22.1981 13.2724 22.1981 13.2724C22.1981 13.2724 21.8007 12.6226 22.0388 12.6656C22.0388 12.6656 23.7451 13.2505 23.7895 13.4004C23.8338 13.5504 24.2863 13.5229 24.0601 13.0942C23.8338 12.6656 22.6141 12.4072 22.4689 12.2863C22.3237 12.1655 22.4588 11.707 22.1981 11.6071C21.9374 11.5072 21.2252 10.7984 21.2257 10.4569C21.2261 10.1153 20.8909 9.95454 20.5995 9.95454C20.3082 9.95454 19.7595 9.87036 19.5277 9.87036C19.2959 9.87036 19.0798 10.2581 19.3038 10.2581C19.5277 10.2581 19.3364 10.9841 18.9614 11.1428C18.5865 11.3014 18.2966 11.5295 17.8684 11.5295C17.4403 11.5295 18.4745 11.8986 18.6394 11.7529C18.8043 11.6071 18.7502 11.3898 19.3038 11.1428C19.8574 10.8957 20.3857 10.7494 20.3188 10.9461C20.2519 11.1428 20.4226 11.4717 20.6834 11.3527C20.9442 11.2336 21.0279 10.9328 21.0279 11.1428C21.0279 11.3527 21.4277 12.4308 21.7333 12.8516C22.0388 13.2724 22.8184 13.8959 22.8184 13.8959Z" fill="#5EAA22"/>
<path d="M19.1783 9.95898C19.1783 9.95898 18.9755 10.2822 19.1783 10.2822C19.3812 10.2822 19.7075 10.2822 19.5087 10.1206C19.3099 9.95898 19.1783 9.95898 19.1783 9.95898Z" fill="#FFD018"/>
<path d="M19.8562 9.95141C19.8562 9.95141 19.8572 10.1663 19.9978 10.1663C20.1384 10.1663 20.2635 10.3812 20.2635 10.1663C20.2635 9.95141 20.4589 10.0227 20.1576 9.95141C19.8562 9.88014 19.8562 9.95141 19.8562 9.95141Z" fill="#FFD018"/>
<path d="M20.7222 10.0005C20.7222 10.0005 20.5867 10.1025 20.6544 10.2846C20.7222 10.4666 20.8755 10.8269 20.6544 10.8269C20.4334 10.8269 20.2515 10.9567 20.4242 10.9567C20.5969 10.9567 20.9041 11.0866 20.9041 10.9567C20.9041 10.8269 21.0291 11.1709 21.0291 10.9567C21.0291 10.7426 21.0291 10.6402 21.0291 10.5147C21.0291 10.3891 21.1541 10.353 21.0291 10.1767C20.9041 10.0005 20.7222 10.0005 20.7222 10.0005Z" fill="#FFD018"/>
<path d="M21.0354 11.2537C21.0354 11.2537 21.3179 12.1427 21.4715 12.2574C21.6251 12.372 21.694 13.3375 21.7614 13.4425C21.8288 13.5475 22.7474 14.0773 22.7474 14.3617C22.7474 14.646 23.0303 14.1432 22.8889 13.8616C22.7474 13.5801 22.3022 12.9806 21.9819 12.8498C21.6617 12.7191 21.7023 12.4025 21.635 12.1801C21.5677 11.9576 22.0334 12.3598 21.635 11.8552C21.2365 11.3505 21.2471 11.6213 21.3593 11.6213C21.4715 11.6213 21.5837 11.5617 21.4715 11.4833C21.3593 11.4048 21.0354 11.2537 21.0354 11.2537Z" fill="#FFD018"/>
<path d="M18.0406 13.0872C18.0406 13.0872 17.123 14.7076 16.9593 14.7913C16.7955 14.8751 16.6735 14.8921 16.5898 14.7913C16.5061 14.6906 16.4975 15.0617 16.5898 15.1633C16.6821 15.2649 16.9593 15.2649 17.1131 15.0845C17.1131 15.0845 17.1374 15.5404 17.3771 15.884C17.6167 16.2277 17.7165 16.1328 17.7165 16.3272C17.7165 16.5215 17.7732 16.7789 17.8463 16.7789C17.9195 16.7789 17.9761 17.3906 17.8463 17.3906C17.7165 17.3906 18.1471 17.4408 18.3347 17.2878C18.5224 17.1348 18.6026 17.0183 18.5625 17.0183C18.5224 17.0183 18.0406 16.7646 18.0406 16.5852C18.0406 16.4057 17.7165 16.2652 17.7165 15.9988C17.7165 15.7323 17.5482 15.4156 17.5482 15.2894C17.5482 15.1633 17.6921 15.3381 17.8463 15.2187C18.0005 15.0992 18.0406 14.7913 18.0406 14.7913C18.0406 14.7913 17.7977 14.9542 17.7165 14.8728C17.6354 14.7913 17.3799 14.6306 17.5482 14.3547C17.7165 14.0788 18.0406 13.0872 18.0406 13.0872Z" fill="#FFD018"/>
<path fill-rule="evenodd" clip-rule="evenodd" d="M19.6307 7.97656C19.6307 7.97656 19.3021 8.1227 19.4116 8.33983C19.5212 8.55696 19.5605 8.65311 19.6307 8.60504C19.7008 8.55696 20.1931 8.46607 20.0828 8.22132C19.9725 7.97656 19.7415 7.97656 19.7415 7.97656H19.6307Z" fill="#5EAA22"/>
<path d="M20.7704 7.8592C20.7704 7.8592 20.3365 7.66717 20.4811 7.8592C20.6258 8.05123 20.8109 8.15246 20.944 8.15246C21.0771 8.15246 21.3538 8.11277 21.2154 8.0353C21.0771 7.95782 20.7704 7.8592 20.7704 7.8592Z" fill="#FFD018"/>
<path fill-rule="evenodd" clip-rule="evenodd" d="M16.4838 12.8632C16.4864 12.8476 16.4677 12.8367 16.4563 12.8478C16.3579 12.9438 16.1083 13.2205 16.2195 13.4623C16.3568 13.7604 16.494 13.8639 16.494 13.8639C16.494 13.8639 16.5776 14.3204 16.7503 14.4446C16.7503 14.4446 16.9823 14.4327 16.9938 14.0774C16.9938 14.0774 17.3878 13.9618 17.5036 14.2079C17.5036 14.2079 17.4272 14.2355 17.4272 14.4446C17.4272 14.6536 17.6055 14.8801 17.6055 14.8801C17.6055 14.8801 17.6871 14.1591 18.054 13.6942C18.4209 13.2293 18.5259 13.1376 18.5259 13.1376V12.6145C18.5259 12.6145 17.7668 13.233 17.6055 13.7473C17.6055 13.7473 17.2232 13.7601 17.0679 13.6942C16.9126 13.6284 17.2619 13.5203 17.0679 13.2863C16.8739 13.0523 16.9629 13.6158 16.7503 13.4623C16.4286 13.3728 16.4605 12.9998 16.4838 12.8632Z" fill="#5EAA22"/>
<path fill-rule="evenodd" clip-rule="evenodd" d="M18.1401 12.396L22.0286 12.396V14.7717C22.0286 14.7717 21.7116 16.7129 20.0182 17.6693C20.0182 17.6693 18.3779 16.6998 18.1401 14.7717V12.396Z" fill="#5EAA22"/>
<mask id="mask3_701_21001" style="mask-type:alpha" maskUnits="userSpaceOnUse" x="18" y="12" width="5" height="6">
<path fill-rule="evenodd" clip-rule="evenodd" d="M18.1401 12.396L22.0286 12.396V14.7717C22.0286 14.7717 21.7116 16.7129 20.0182 17.6693C20.0182 17.6693 18.3779 16.6998 18.1401 14.7717V12.396Z" fill="white"/>
</mask>
<g mask="url(#mask3_701_21001)">
<path fill-rule="evenodd" clip-rule="evenodd" d="M19.9888 12.2676L18.2899 15.7931L20.5938 13.7009L22.1795 16.3291V12.2676L20.5938 13.5674L19.9888 12.2676Z" fill="#58A5FF"/>
<path d="M19.9352 14.8101C19.9352 14.7401 19.9919 14.6833 20.0619 14.6833C20.1319 14.6833 20.1887 14.7401 20.1887 14.8101V17.0739C20.1887 17.1439 20.1319 17.2006 20.0619 17.2006C19.9919 17.2006 19.9352 17.1439 19.9352 17.0739L19.9352 14.8101Z" fill="#FFD018"/>
<path d="M19.4944 15.3682C19.4256 15.3682 19.3698 15.3125 19.3698 15.2437C19.3698 15.1749 19.4256 15.1191 19.4944 15.1191H20.6398C20.7086 15.1191 20.7643 15.1749 20.7643 15.2437C20.7643 15.3125 20.7086 15.3682 20.6398 15.3682H19.4944Z" fill="#FFD018"/>
<path d="M20.112 17.1164L20.0138 17.1961C19.8692 17.0204 19.7374 16.9359 19.6209 16.9359C19.4492 16.9359 19.3097 16.7928 19.1959 16.5213L19.3129 16.4729C19.4092 16.7026 19.5139 16.81 19.6209 16.81C19.7828 16.81 19.9457 16.9144 20.112 17.1164Z" fill="#FFD018"/>
<path fill-rule="evenodd" clip-rule="evenodd" d="M19.0833 16.0899C19.0822 16.0889 19.0805 16.0897 19.0805 16.0911V16.7016C19.0805 16.7027 19.0817 16.7035 19.0828 16.7031L19.5419 16.5141C19.543 16.5136 19.5433 16.5122 19.5424 16.5114L19.0833 16.0899Z" fill="#FFD018"/>
<path d="M20.0077 17.1164L20.1059 17.1961C20.2505 17.0204 20.3823 16.9359 20.4989 16.9359C20.6705 16.9359 20.81 16.7928 20.9238 16.5213L20.8068 16.4729C20.7105 16.7026 20.6058 16.81 20.4989 16.81C20.3369 16.81 20.174 16.9144 20.0077 17.1164Z" fill="#FFD018"/>
<path fill-rule="evenodd" clip-rule="evenodd" d="M21.0365 16.0899C21.0375 16.0889 21.0392 16.0897 21.0392 16.0911V16.7016C21.0392 16.7027 21.038 16.7035 21.0369 16.7031L20.5778 16.5141C20.5767 16.5136 20.5764 16.5122 20.5773 16.5114L21.0365 16.0899Z" fill="#FFD018"/>
<rect x="19.8063" y="13.7939" width="0.507042" height="0.755496" fill="white"/>
</g>
</g>
</g>
</g>
<rect x="1.75" y="1.25" width="23.5" height="17.5" stroke="black" stroke-opacity="0.1" stroke-width="0.5" shape-rendering="crispEdges"/>
</g>
<defs>
<filter id="filter0_dd_701_21001" x="0" y="0" width="27" height="21" filterUnits="userSpaceOnUse" color-interpolation-filters="sRGB">
<feFlood flood-opacity="0" result="BackgroundImageFix"/>
<feColorMatrix in="SourceAlpha" type="matrix" values="0 0 0 0 0 0 0 0 0 0 0 0 0 0 0 0 0 0 127 0" result="hardAlpha"/>
<feOffset dy="0.5"/>
<feGaussianBlur stdDeviation="0.75"/>
<feComposite in2="hardAlpha" operator="out"/>
<feColorMatrix type="matrix" values="0 0 0 0 0 0 0 0 0 0 0 0 0 0 0 0 0 0 0.1 0"/>
<feBlend mode="multiply" in2="BackgroundImageFix" result="effect1_dropShadow_701_21001"/>
<feColorMatrix in="SourceAlpha" type="matrix" values="0 0 0 0 0 0 0 0 0 0 0 0 0 0 0 0 0 0 127 0" result="hardAlpha"/>
<feOffset/>
<feGaussianBlur stdDeviation="0.5"/>
<feComposite in2="hardAlpha" operator="out"/>
<feColorMatrix type="matrix" values="0 0 0 0 0 0 0 0 0 0 0 0 0 0 0 0 0 0 0.11 0"/>
<feBlend mode="multiply" in2="effect1_dropShadow_701_21001" result="effect2_dropShadow_701_21001"/>
<feBlend mode="normal" in="SourceGraphic" in2="effect2_dropShadow_701_21001" result="shape"/>
</filter>
<clipPath id="clip0_701_21001">
<rect x="1.5" y="1" width="24" height="18" fill="white"/>
</clipPath>
</defs>
</svg>