<svg width="27" height="21" viewBox="0 0 27 21" fill="none" xmlns="http://www.w3.org/2000/svg">
<g filter="url(#filter0_dd_701_19055)">
<g clip-path="url(#clip0_701_19055)">
<rect x="1.5" y="1" width="24" height="18" fill="#19BFBF"/>
<path fill-rule="evenodd" clip-rule="evenodd" d="M16.1215 16.3071L15.27 15.4555C15.2334 15.419 15.2058 15.3743 15.1894 15.3253L14.708 13.8808C14.6691 13.7643 14.56 13.6856 14.4371 13.6856C14.2514 13.6856 14.1151 13.8602 14.1602 14.0404L14.5971 15.7882C14.6255 15.9018 14.5922 16.022 14.5094 16.1048L14.3072 16.3071C14.177 16.4372 13.9659 16.4372 13.8358 16.3071L13.5977 16.069C13.5352 16.0065 13.5 15.9217 13.5 15.8333V14.9072C13.5 14.8554 13.488 14.8044 13.4648 14.7581L13.0207 13.8699C12.9643 13.757 12.8489 13.6856 12.7226 13.6856H11.293C11.2413 13.6856 11.1902 13.6977 11.1439 13.7208L10.195 14.1953C10.1159 14.2348 10.0558 14.3042 10.0278 14.388L9.5437 15.8403C9.51574 15.9242 9.45562 15.9935 9.37654 16.0331L8.50625 16.4682C8.41241 16.5151 8.30195 16.5151 8.20811 16.4682L7.39859 16.0635C7.28566 16.007 7.21432 15.8916 7.21432 15.7653V14.019C7.21432 13.8349 7.36356 13.6856 7.54766 13.6856H8.59528C8.77937 13.6856 8.92861 13.5364 8.92861 13.3523V12.5969C8.92861 12.561 8.93439 12.5254 8.94572 12.4914L9.42406 11.0564C9.46944 10.9203 9.59682 10.8285 9.74029 10.8285H10.5642C10.616 10.8285 10.667 10.8164 10.7133 10.7933L11.7154 10.2922C11.7617 10.2691 11.8127 10.257 11.8644 10.257H12.5953C12.7794 10.257 12.9286 10.1078 12.9286 9.92371V9.82369C12.9286 9.73528 12.9637 9.6505 13.0262 9.58799L13.173 9.44121C13.3339 9.28033 13.6051 9.32434 13.7069 9.52784L13.9793 10.0728C14.0358 10.1857 14.1512 10.257 14.2775 10.257H15.5455C15.689 10.257 15.8164 10.1652 15.8617 10.0291L16.2812 8.77068C16.3266 8.63457 16.454 8.54276 16.5974 8.54276H17.2143C17.3721 8.54276 17.5 8.41484 17.5 8.25705C17.5 8.09925 17.3721 7.97133 17.2143 7.97133H16.6905C16.5064 7.97133 16.3572 7.82209 16.3572 7.638V6.90716C16.3572 6.85541 16.3692 6.80438 16.3924 6.75809L16.8212 5.90051C16.8853 5.77218 16.8602 5.61719 16.7587 5.51573L16.5929 5.34989C16.4627 5.21972 16.2517 5.21972 16.1215 5.34989L15.312 6.15941C15.2494 6.22193 15.2143 6.30671 15.2143 6.39512V7.34581C15.2143 7.38164 15.2085 7.41723 15.1972 7.45122L14.7189 8.88626C14.6735 9.02238 14.5461 9.11419 14.4026 9.11419H14.2095C14.1211 9.11419 14.0363 9.07907 13.9738 9.01656L13.5824 8.62512C13.5297 8.57238 13.5 8.50086 13.5 8.42629C13.5 8.21727 13.2801 8.08132 13.0931 8.1748L12.5721 8.43532C12.4437 8.49948 12.2888 8.47433 12.1873 8.37288L11.8834 8.06896C11.8209 8.00645 11.7858 7.92167 11.7858 7.83326V6.96655C11.7858 6.87814 11.8209 6.79335 11.8834 6.73084L12.9286 5.68562L14.5873 4.02697C14.6238 3.99038 14.6685 3.96281 14.7175 3.94645L16.3059 3.41701C16.3399 3.40568 16.3754 3.3999 16.4113 3.3999H17.294C17.4203 3.3999 17.5357 3.47124 17.5922 3.58416L18.0363 4.47238C18.0594 4.51866 18.0715 4.5697 18.0715 4.62145V6.11897C18.0715 6.20738 18.1066 6.29216 18.1691 6.35468L18.4972 6.6828C18.5865 6.77208 18.6177 6.90414 18.5777 7.02391L18.152 8.30123C18.1044 8.44383 18.1582 8.60061 18.2833 8.68399L19.7858 9.68562L20.5909 10.0882C20.7702 10.1778 20.8304 10.4044 20.7192 10.5712L19.8417 11.8874C19.8052 11.9421 19.7858 12.0064 19.7858 12.0723V13.4454C19.7858 13.5888 19.6939 13.7162 19.5578 13.7616L18.2025 14.2134C18.1186 14.2413 18.0493 14.3015 18.0097 14.3805L17.5242 15.3515C17.5082 15.3836 17.4871 15.4128 17.4618 15.4382L16.5929 16.3071C16.4627 16.4372 16.2517 16.4372 16.1215 16.3071ZM11.2143 15.9714C11.5299 15.9714 11.7858 15.7156 11.7858 15.4C11.7858 15.0844 11.5299 14.8285 11.2143 14.8285C10.8988 14.8285 10.6429 15.0844 10.6429 15.4C10.6429 15.7156 10.8988 15.9714 11.2143 15.9714ZM9.50004 8.5428C9.50004 8.85839 9.2442 9.11423 8.92861 9.11423C8.61302 9.11423 8.35718 8.85839 8.35718 8.5428C8.35718 8.22721 8.61302 7.97137 8.92861 7.97137C9.2442 7.97137 9.50004 8.22721 9.50004 8.5428Z" fill="white"/>
<path fill-rule="evenodd" clip-rule="evenodd" d="M10.0363 8.49902C10.0594 8.45274 10.0715 8.4017 10.0715 8.34995V7.9359C10.0715 7.88415 10.0594 7.83312 10.0363 7.78683L9.74123 7.19676C9.63042 6.97513 9.79158 6.71436 10.0394 6.71436H10.3096C10.4936 6.71436 10.6429 6.86359 10.6429 7.04769V8.34995C10.6429 8.4017 10.6549 8.45274 10.6781 8.49902L10.9731 9.08909C11.0839 9.31073 10.9228 9.5715 10.675 9.5715H10.0394C9.79158 9.5715 9.63042 9.31073 9.74123 9.08909L10.0363 8.49902Z" fill="white"/>
</g>
<rect x="1.75" y="1.25" width="23.5" height="17.5" stroke="black" stroke-opacity="0.1" stroke-width="0.5" shape-rendering="crispEdges"/>
</g>
<defs>
<filter id="filter0_dd_701_19055" x="0" y="0" width="27" height="21" filterUnits="userSpaceOnUse" color-interpolation-filters="sRGB">
<feFlood flood-opacity="0" result="BackgroundImageFix"/>
<feColorMatrix in="SourceAlpha" type="matrix" values="0 0 0 0 0 0 0 0 0 0 0 0 0 0 0 0 0 0 127 0" result="hardAlpha"/>
<feOffset dy="0.5"/>
<feGaussianBlur stdDeviation="0.75"/>
<feComposite in2="hardAlpha" operator="out"/>
<feColorMatrix type="matrix" values="0 0 0 0 0 0 0 0 0 0 0 0 0 0 0 0 0 0 0.1 0"/>
<feBlend mode="multiply" in2="BackgroundImageFix" result="effect1_dropShadow_701_19055"/>
<feColorMatrix in="SourceAlpha" type="matrix" values="0 0 0 0 0 0 0 0 0 0 0 0 0 0 0 0 0 0 127 0" result="hardAlpha"/>
<feOffset/>
<feGaussianBlur stdDeviation="0.5"/>
<feComposite in2="hardAlpha" operator="out"/>
<feColorMatrix type="matrix" values="0 0 0 0 0 0 0 0 0 0 0 0 0 0 0 0 0 0 0.11 0"/>
<feBlend mode="multiply" in2="effect1_dropShadow_701_19055" result="effect2_dropShadow_701_19055"/>
<feBlend mode="normal" in="SourceGraphic" in2="effect2_dropShadow_701_19055" result="shape"/>
</filter>
<clipPath id="clip0_701_19055">
<rect x="1.5" y="1" width="24" height="18" fill="white"/>
</clipPath>
</defs>
</svg>
