<svg width="27" height="21" viewBox="0 0 27 21" fill="none" xmlns="http://www.w3.org/2000/svg">
<g filter="url(#filter0_dd_701_24176)">
<g clip-path="url(#clip0_701_24176)">
<mask id="mask0_701_24176" style="mask-type:alpha" maskUnits="userSpaceOnUse" x="1" y="1" width="25" height="18">
<rect x="1.5" y="1" width="24" height="18" fill="white"/>
</mask>
<g mask="url(#mask0_701_24176)">
<path fill-rule="evenodd" clip-rule="evenodd" d="M1.5 1V19H25.5V1H1.5Z" fill="#2E42A5"/>
<mask id="mask1_701_24176" style="mask-type:alpha" maskUnits="userSpaceOnUse" x="1" y="1" width="25" height="18">
<path fill-rule="evenodd" clip-rule="evenodd" d="M1.5 1V19H25.5V1H1.5Z" fill="white"/>
</mask>
<g mask="url(#mask1_701_24176)">
<path fill-rule="evenodd" clip-rule="evenodd" d="M4.69082 5.61192L3.19918 6.39919L3.91938 4.9979L3 3.97236L4.14251 3.93019L4.69082 2.5L5.10925 3.93019L6.44623 3.97236L5.4836 4.9979L6.09429 6.39919L4.69082 5.61192Z" fill="#F7FCFF"/>
<path fill-rule="evenodd" clip-rule="evenodd" d="M10.0142 9.30743L8.17323 10.0786L8.89546 8.14614L7.29483 6.84948H9.2128L10.0142 4.75916L10.6258 6.84948H12.5467L11.1817 8.14614L11.8595 10.0786L10.0142 9.30743Z" fill="#F7FCFF"/>
<path fill-rule="evenodd" clip-rule="evenodd" d="M1.5 11.5V14.5H25.5V11.5H1.5Z" fill="#F9E813"/>
</g>
</g>
</g>
<rect x="1.75" y="1.25" width="23.5" height="17.5" stroke="black" stroke-opacity="0.1" stroke-width="0.5" shape-rendering="crispEdges"/>
</g>
<defs>
<filter id="filter0_dd_701_24176" x="0" y="0" width="27" height="21" filterUnits="userSpaceOnUse" color-interpolation-filters="sRGB">
<feFlood flood-opacity="0" result="BackgroundImageFix"/>
<feColorMatrix in="SourceAlpha" type="matrix" values="0 0 0 0 0 0 0 0 0 0 0 0 0 0 0 0 0 0 127 0" result="hardAlpha"/>
<feOffset dy="0.5"/>
<feGaussianBlur stdDeviation="0.75"/>
<feComposite in2="hardAlpha" operator="out"/>
<feColorMatrix type="matrix" values="0 0 0 0 0 0 0 0 0 0 0 0 0 0 0 0 0 0 0.1 0"/>
<feBlend mode="multiply" in2="BackgroundImageFix" result="effect1_dropShadow_701_24176"/>
<feColorMatrix in="SourceAlpha" type="matrix" values="0 0 0 0 0 0 0 0 0 0 0 0 0 0 0 0 0 0 127 0" result="hardAlpha"/>
<feOffset/>
<feGaussianBlur stdDeviation="0.5"/>
<feComposite in2="hardAlpha" operator="out"/>
<feColorMatrix type="matrix" values="0 0 0 0 0 0 0 0 0 0 0 0 0 0 0 0 0 0 0.11 0"/>
<feBlend mode="multiply" in2="effect1_dropShadow_701_24176" result="effect2_dropShadow_701_24176"/>
<feBlend mode="normal" in="SourceGraphic" in2="effect2_dropShadow_701_24176" result="shape"/>
</filter>
<clipPath id="clip0_701_24176">
<rect x="1.5" y="1" width="24" height="18" fill="white"/>
</clipPath>
</defs>
</svg>
