<svg width="27" height="21" viewBox="0 0 27 21" fill="none" xmlns="http://www.w3.org/2000/svg">
<g filter="url(#filter0_dd_701_21591)">
<g clip-path="url(#clip0_701_21591)">
<mask id="mask0_701_21591" style="mask-type:alpha" maskUnits="userSpaceOnUse" x="1" y="1" width="25" height="18">
<rect x="1.5" y="1" width="24" height="18" fill="white"/>
</mask>
<g mask="url(#mask0_701_21591)">
<path fill-rule="evenodd" clip-rule="evenodd" d="M1.5 1H25.5V17C25.5 18.1046 24.6046 19 23.5 19H3.5C2.39543 19 1.5 18.1046 1.5 17V1Z" fill="#C51918"/>
<path fill-rule="evenodd" clip-rule="evenodd" d="M1.5 1H25.5V19H1.5V1Z" fill="#C51918"/>
<path fill-rule="evenodd" clip-rule="evenodd" d="M6 5.5H21V14.5H6V5.5Z" fill="#579D20"/>
<path d="M7 6.5H20V13.5H7V6.5Z" stroke="#B6EB9A" stroke-opacity="0.238111" stroke-width="2"/>
<mask id="mask1_701_21591" style="mask-type:alpha" maskUnits="userSpaceOnUse" x="6" y="5" width="15" height="10">
<path fill-rule="evenodd" clip-rule="evenodd" d="M6 5.5H21V14.5H6V5.5Z" fill="white"/>
<path d="M7 6.5H20V13.5H7V6.5Z" stroke="white" stroke-width="2"/>
</mask>
<g mask="url(#mask1_701_21591)">
<path fill-rule="evenodd" clip-rule="evenodd" d="M13.5247 10.3468C13.512 12.6461 15.3221 13.872 15.3221 13.872C13.2567 14.1145 11.8825 12.2421 11.8825 10.3692C11.8825 8.49637 13.7557 6.94932 15.3221 6.25073C15.3221 6.25073 13.5375 8.04754 13.5247 10.3468Z" fill="#F9FAFA"/>
</g>
</g>
</g>
<rect x="1.75" y="1.25" width="23.5" height="17.5" stroke="black" stroke-opacity="0.1" stroke-width="0.5" shape-rendering="crispEdges"/>
</g>
<defs>
<filter id="filter0_dd_701_21591" x="0" y="0" width="27" height="21" filterUnits="userSpaceOnUse" color-interpolation-filters="sRGB">
<feFlood flood-opacity="0" result="BackgroundImageFix"/>
<feColorMatrix in="SourceAlpha" type="matrix" values="0 0 0 0 0 0 0 0 0 0 0 0 0 0 0 0 0 0 127 0" result="hardAlpha"/>
<feOffset dy="0.5"/>
<feGaussianBlur stdDeviation="0.75"/>
<feComposite in2="hardAlpha" operator="out"/>
<feColorMatrix type="matrix" values="0 0 0 0 0 0 0 0 0 0 0 0 0 0 0 0 0 0 0.1 0"/>
<feBlend mode="multiply" in2="BackgroundImageFix" result="effect1_dropShadow_701_21591"/>
<feColorMatrix in="SourceAlpha" type="matrix" values="0 0 0 0 0 0 0 0 0 0 0 0 0 0 0 0 0 0 127 0" result="hardAlpha"/>
<feOffset/>
<feGaussianBlur stdDeviation="0.5"/>
<feComposite in2="hardAlpha" operator="out"/>
<feColorMatrix type="matrix" values="0 0 0 0 0 0 0 0 0 0 0 0 0 0 0 0 0 0 0.11 0"/>
<feBlend mode="multiply" in2="effect1_dropShadow_701_21591" result="effect2_dropShadow_701_21591"/>
<feBlend mode="normal" in="SourceGraphic" in2="effect2_dropShadow_701_21591" result="shape"/>
</filter>
<clipPath id="clip0_701_21591">
<rect x="1.5" y="1" width="24" height="18" fill="white"/>
</clipPath>
</defs>
</svg>
