<svg viewBox="0 0 27 21" fill="none" xmlns="http://www.w3.org/2000/svg">
<g filter="url(#filter0_dd_701_23018)">
<g clip-path="url(#clip0_701_23018)">
<mask id="mask0_701_23018" style="mask-type:alpha" maskUnits="userSpaceOnUse" x="1" y="1" width="25" height="18">
<rect x="1.5" y="1" width="24" height="18" fill="white"/>
</mask>
<g mask="url(#mask0_701_23018)">
<path fill-rule="evenodd" clip-rule="evenodd" d="M1.5 1V19H25.5V1H1.5Z" fill="#F7FCFF"/>
<mask id="mask1_701_23018" style="mask-type:alpha" maskUnits="userSpaceOnUse" x="1" y="1" width="25" height="18">
<path fill-rule="evenodd" clip-rule="evenodd" d="M1.5 1V19H25.5V1H1.5Z" fill="white"/>
</mask>
<g mask="url(#mask1_701_23018)">
<path fill-rule="evenodd" clip-rule="evenodd" d="M1.5 1V7H25.5V1H1.5Z" fill="#4564F9"/>
<path fill-rule="evenodd" clip-rule="evenodd" d="M1.5 13V19H25.5V13H1.5Z" fill="#4564F9"/>
<path fill-rule="evenodd" clip-rule="evenodd" d="M13.8016 10.5031L13.1517 10.8385L13.2758 10.1281L12.75 9.57318H13.4766L13.8016 8.875L14.1265 9.57318H14.8532L14.3274 10.1281L14.4515 10.8385L13.8016 10.5031Z" fill="#4564F9"/>
<path fill-rule="evenodd" clip-rule="evenodd" d="M9.23855 8.87702L8.58864 9.21243L8.71276 8.50202L8.18697 7.94708H8.91359L9.23855 7.2489L9.56351 7.94708H10.2901L9.76434 8.50202L9.88847 9.21243L9.23855 8.87702Z" fill="#4564F9"/>
<path fill-rule="evenodd" clip-rule="evenodd" d="M9.23855 12.027L8.58864 12.3625L8.71276 11.652L8.18697 11.0971H8.91359L9.23855 10.3989L9.56351 11.0971H10.2901L9.76434 11.652L9.88847 12.3625L9.23855 12.027Z" fill="#4564F9"/>
<path fill-rule="evenodd" clip-rule="evenodd" d="M18.2386 8.87702L17.5886 9.21243L17.7128 8.50202L17.187 7.94708H17.9136L18.2386 7.2489L18.5635 7.94708H19.2901L18.7643 8.50202L18.8885 9.21243L18.2386 8.87702Z" fill="#4564F9"/>
<path fill-rule="evenodd" clip-rule="evenodd" d="M18.2386 12.027L17.5886 12.3625L17.7128 11.652L17.187 11.0971H17.9136L18.2386 10.3989L18.5635 11.0971H19.2901L18.7643 11.652L18.8885 12.3625L18.2386 12.027Z" fill="#4564F9"/>
</g>
</g>
</g>
<rect x="1.75" y="1.25" width="23.5" height="17.5" stroke="black" stroke-opacity="0.1" stroke-width="0.5" shape-rendering="crispEdges"/>
</g>
<defs>
<filter id="filter0_dd_701_23018" x="0" y="0" width="27" height="21" filterUnits="userSpaceOnUse" color-interpolation-filters="sRGB">
<feFlood flood-opacity="0" result="BackgroundImageFix"/>
<feColorMatrix in="SourceAlpha" type="matrix" values="0 0 0 0 0 0 0 0 0 0 0 0 0 0 0 0 0 0 127 0" result="hardAlpha"/>
<feOffset dy="0.5"/>
<feGaussianBlur stdDeviation="0.75"/>
<feComposite in2="hardAlpha" operator="out"/>
<feColorMatrix type="matrix" values="0 0 0 0 0 0 0 0 0 0 0 0 0 0 0 0 0 0 0.1 0"/>
<feBlend mode="multiply" in2="BackgroundImageFix" result="effect1_dropShadow_701_23018"/>
<feColorMatrix in="SourceAlpha" type="matrix" values="0 0 0 0 0 0 0 0 0 0 0 0 0 0 0 0 0 0 127 0" result="hardAlpha"/>
<feOffset/>
<feGaussianBlur stdDeviation="0.5"/>
<feComposite in2="hardAlpha" operator="out"/>
<feColorMatrix type="matrix" values="0 0 0 0 0 0 0 0 0 0 0 0 0 0 0 0 0 0 0.11 0"/>
<feBlend mode="multiply" in2="effect1_dropShadow_701_23018" result="effect2_dropShadow_701_23018"/>
<feBlend mode="normal" in="SourceGraphic" in2="effect2_dropShadow_701_23018" result="shape"/>
</filter>
<clipPath id="clip0_701_23018">
<rect x="1.5" y="1" width="24" height="18" fill="white"/>
</clipPath>
</defs>
</svg>