<svg viewBox="0 0 27 21" fill="none" xmlns="http://www.w3.org/2000/svg">
<g filter="url(#filter0_dd_701_25228)">
<g clip-path="url(#clip0_701_25228)">
<mask id="mask0_701_25228" style="mask-type:alpha" maskUnits="userSpaceOnUse" x="1" y="1" width="25" height="18">
<rect x="1.5" y="1" width="24" height="18" fill="white"/>
</mask>
<g mask="url(#mask0_701_25228)">
<path fill-rule="evenodd" clip-rule="evenodd" d="M18 1H25.5V19H18V1Z" fill="#67BD38"/>
<path fill-rule="evenodd" clip-rule="evenodd" d="M9 1H18V19H9V1Z" fill="#D51700"/>
<path fill-rule="evenodd" clip-rule="evenodd" d="M1.5 1H9V19H1.5V1Z" fill="#272727"/>
<path fill-rule="evenodd" clip-rule="evenodd" d="M10.8658 6.98267L11.1253 7.14553C10.6928 7.8734 10.4023 8.54037 10.2521 9.14664C10.3157 9.20528 10.3555 9.25665 10.3962 9.32711C10.5135 9.53034 10.6122 9.72761 10.6922 9.91903L10.3473 10.0659C10.2932 9.93628 10.2294 9.80304 10.1559 9.66617C10.1208 9.96194 10.1232 10.2414 10.1629 10.5046C10.226 10.5111 10.2789 10.5243 10.3402 10.5466C10.5607 10.6269 10.7631 10.7146 10.9474 10.8098L10.7776 11.144C10.6205 11.0628 10.4479 10.987 10.2599 10.9167L10.2636 10.928C10.4239 11.4125 10.6692 11.8582 11.0003 12.2654C11.052 12.2542 11.1002 12.25 11.1565 12.25C11.3912 12.25 11.6114 12.2632 11.8172 12.2897L11.7719 12.6618C11.6318 12.6437 11.4837 12.6323 11.3275 12.6276C11.625 12.9253 11.9742 13.1998 12.3754 13.4512L12.2171 13.7181C11.7195 13.4062 11.296 13.0585 10.9472 12.6752C10.9017 12.6929 10.8463 12.7165 10.7759 12.7473L10.7494 12.7588C11.0539 13.078 11.4139 13.3717 11.8298 13.6398L11.6682 13.9045C11.1876 13.5947 10.7763 13.2505 10.4346 12.8722C10.2714 12.9141 10.1339 12.9132 9.97297 12.866L10.0731 12.5054C10.0973 12.5125 10.121 12.5178 10.1448 12.5211C9.82745 12.0989 9.58836 11.6384 9.42803 11.14C9.39971 11.0519 9.37545 10.9623 9.35525 10.8711C9.23098 10.8474 9.12614 10.8007 9.01733 10.7207L9.23478 10.4161C9.25355 10.4299 9.27245 10.4421 9.29193 10.4527C9.25298 9.99338 9.30666 9.4975 9.45221 8.96517C9.36106 8.86025 9.30531 8.75152 9.27097 8.61009L9.58953 8.52784C9.76123 8.04159 10.0041 7.52708 10.3175 6.98434L10.579 7.14385C10.2372 7.73567 9.98394 8.28855 9.81848 8.80256C9.86485 8.84464 9.92158 8.88973 9.99105 8.94125C10.1572 8.3367 10.4492 7.68379 10.8658 6.98267ZM9.89861 9.33888C9.86493 9.31266 9.82446 9.28235 9.77525 9.24607C9.75162 9.22866 9.729 9.21169 9.70733 9.19508C9.59152 9.67198 9.55737 10.1126 9.60419 10.5171C9.66002 10.5176 9.72328 10.5152 9.79629 10.5106L9.85575 10.507C9.80617 10.142 9.82061 9.75264 9.89861 9.33888ZM9.81243 10.8837C9.85696 10.8809 9.89587 10.8786 9.93023 10.877C9.94402 10.9281 9.95919 10.9786 9.97574 11.0287C10.1366 11.5148 10.3766 11.9638 10.6951 12.3753L10.6331 12.4022C10.5799 12.4254 10.532 12.4453 10.4882 12.4618C10.1396 12.0311 9.8827 11.5579 9.71671 11.0419C9.70067 10.992 9.68607 10.9414 9.67293 10.8903C9.71672 10.8891 9.76308 10.8868 9.81243 10.8837Z" fill="#F7FCFF"/>
<path fill-rule="evenodd" clip-rule="evenodd" d="M16.1243 6.98267L15.8648 7.14553C16.2972 7.8734 16.5877 8.54037 16.7379 9.14664C16.6744 9.20528 16.6345 9.25665 16.5938 9.32711C16.4765 9.53034 16.3778 9.72761 16.2979 9.91903L16.6428 10.0659C16.6969 9.93628 16.7607 9.80304 16.8342 9.66617C16.8693 9.96194 16.8669 10.2414 16.8271 10.5046C16.7641 10.5111 16.7111 10.5243 16.6498 10.5466C16.4293 10.6269 16.2269 10.7146 16.0426 10.8098L16.2124 11.144C16.3696 11.0628 16.5422 10.987 16.7302 10.9167L16.7265 10.928C16.5661 11.4125 16.3208 11.8582 15.9898 12.2654C15.938 12.2542 15.8898 12.25 15.8335 12.25C15.5988 12.25 15.3787 12.2632 15.1729 12.2897L15.2182 12.6618C15.3582 12.6437 15.5064 12.6323 15.6626 12.6276C15.3651 12.9253 15.0159 13.1998 14.6146 13.4512L14.7729 13.7181C15.2705 13.4062 15.694 13.0585 16.0429 12.6752C16.0883 12.6929 16.1437 12.7165 16.2142 12.7473L16.2407 12.7588C15.9361 13.078 15.5761 13.3717 15.1603 13.6398L15.3218 13.9045C15.8024 13.5947 16.2138 13.2505 16.5555 12.8722C16.7186 12.9141 16.8562 12.9132 17.0171 12.866L16.9169 12.5054C16.8927 12.5125 16.8691 12.5178 16.8453 12.5211C17.1626 12.0989 17.4017 11.6384 17.562 11.14C17.5903 11.0519 17.6146 10.9623 17.6348 10.8711C17.7591 10.8474 17.8639 10.8007 17.9727 10.7207L17.7553 10.4161C17.7365 10.4299 17.7176 10.4421 17.6981 10.4527C17.7371 9.99338 17.6834 9.4975 17.5378 8.96517C17.629 8.86025 17.6847 8.75152 17.7191 8.61009L17.4005 8.52784C17.2288 8.04159 16.986 7.52708 16.6725 6.98434L16.4111 7.14385C16.7529 7.73567 17.0061 8.28855 17.1716 8.80256C17.1252 8.84464 17.0685 8.88973 16.999 8.94125C16.8328 8.3367 16.5408 7.68379 16.1243 6.98267ZM17.0914 9.33888C17.1251 9.31266 17.1656 9.28235 17.2148 9.24607C17.2384 9.22866 17.2611 9.21169 17.2827 9.19508C17.3985 9.67198 17.4327 10.1126 17.3859 10.5171C17.33 10.5176 17.2668 10.5152 17.1938 10.5106L17.1343 10.507C17.1839 10.142 17.1694 9.75264 17.0914 9.33888ZM17.1776 10.8837C17.1331 10.8809 17.0942 10.8786 17.0598 10.877C17.046 10.9281 17.0309 10.9786 17.0143 11.0287C16.8534 11.5148 16.6134 11.9638 16.2949 12.3753L16.357 12.4022C16.4102 12.4254 16.4581 12.4453 16.5019 12.4618C16.8504 12.0311 17.1073 11.5579 17.2733 11.0419C17.2894 10.992 17.304 10.9414 17.3171 10.8903C17.2733 10.8891 17.227 10.8868 17.1776 10.8837Z" fill="#F7FCFF"/>
<path fill-rule="evenodd" clip-rule="evenodd" d="M12.1898 13.1981L11.3525 14.0266C11.3525 14.0266 12.0745 14.4687 13.4352 14.4687C14.796 14.4687 15.5883 14.0266 15.5883 14.0266L14.9519 13.1981C14.9519 13.1981 14.0847 13.5342 13.4704 13.5342C12.8562 13.5342 12.1898 13.1981 12.1898 13.1981Z" fill="#F7FCFF"/>
<path d="M12.2073 13.7268C12.2073 13.7268 12.9161 13.8941 13.4595 13.8941C14.0029 13.8941 14.7117 13.7268 14.7117 13.7268" stroke="#C00001" stroke-width="0.5"/>
<path fill-rule="evenodd" clip-rule="evenodd" d="M14.1689 8.09375C14.1689 8.42167 13.8694 8.6875 13.5 8.6875C13.1306 8.6875 12.8311 8.42167 12.8311 8.09375C12.8311 7.76583 13.1306 7.5 13.5 7.5C13.8694 7.5 14.1689 7.76583 14.1689 8.09375ZM13.5 8.6875H12.7799L12.5815 8.83953H12.5428V7.651H12.178V8.83953H11.8581V9.04223H12.178V11.1854C12.1347 11.5278 12.0347 11.7214 11.8945 11.7886L11.1497 12.146H15.6327L15.3105 11.8241C15.0276 11.5413 14.8923 11.3239 14.8923 11.1973V9.04223H15.0203V8.83953H14.8923V7.651H14.5274V8.83953H14.4095L14.1744 8.6875H13.5ZM12.5428 9.04223H14.5274V11.1973C14.5274 11.3711 14.6096 11.5598 14.7701 11.771H12.3923C12.4658 11.6232 12.5149 11.4389 12.5428 11.209V9.04223ZM13.5608 10H12.7703V11.5625H14.3513L13.5608 10Z" fill="#F7FCFF"/>
<path fill-rule="evenodd" clip-rule="evenodd" d="M14.3772 5.61719L14.3786 5.61946L14.3783 5.6186L14.3772 5.61719ZM15.5331 6.0234L15.5338 6.03037L15.5334 6.0253L15.5331 6.0234ZM15.7576 6.05107L15.7588 6.04765L15.7582 6.04933L15.7576 6.05107ZM14.8488 6.51132L14.8531 6.51129L14.851 6.51155L14.8488 6.51132Z" fill="#F7FCFF"/>
<path fill-rule="evenodd" clip-rule="evenodd" d="M11.2447 9.0011L11.0952 9.10864L11.2493 9.33481C11.1173 9.38216 10.9051 9.50213 10.9051 9.78403C10.9051 10.1932 10.7614 10.5284 10.7614 10.5284L11.1906 10.804C11.1906 10.804 11.2353 10.3268 11.3521 10.0554C11.4107 9.91934 11.5019 9.8515 11.5783 9.81767L12.2454 10.7969L12.3948 10.6894L11.2447 9.0011Z" fill="#F7FCFF"/>
<path fill-rule="evenodd" clip-rule="evenodd" d="M15.8034 9.0011L15.9529 9.10864L15.7988 9.33481C15.9308 9.38216 16.143 9.50213 16.143 9.78403C16.143 10.1932 16.2867 10.5284 16.2867 10.5284L15.8575 10.804C15.8575 10.804 15.8128 10.3268 15.696 10.0554C15.6374 9.91934 15.5462 9.8515 15.4698 9.81767L14.8027 10.7969L14.6533 10.6894L15.8034 9.0011Z" fill="#F7FCFF"/>
</g>
</g>
<rect x="1.75" y="1.25" width="23.5" height="17.5" stroke="black" stroke-opacity="0.1" stroke-width="0.5" shape-rendering="crispEdges"/>
</g>
<defs>
<filter id="filter0_dd_701_25228" x="0" y="0" width="27" height="21" filterUnits="userSpaceOnUse" color-interpolation-filters="sRGB">
<feFlood flood-opacity="0" result="BackgroundImageFix"/>
<feColorMatrix in="SourceAlpha" type="matrix" values="0 0 0 0 0 0 0 0 0 0 0 0 0 0 0 0 0 0 127 0" result="hardAlpha"/>
<feOffset dy="0.5"/>
<feGaussianBlur stdDeviation="0.75"/>
<feComposite in2="hardAlpha" operator="out"/>
<feColorMatrix type="matrix" values="0 0 0 0 0 0 0 0 0 0 0 0 0 0 0 0 0 0 0.1 0"/>
<feBlend mode="multiply" in2="BackgroundImageFix" result="effect1_dropShadow_701_25228"/>
<feColorMatrix in="SourceAlpha" type="matrix" values="0 0 0 0 0 0 0 0 0 0 0 0 0 0 0 0 0 0 127 0" result="hardAlpha"/>
<feOffset/>
<feGaussianBlur stdDeviation="0.5"/>
<feComposite in2="hardAlpha" operator="out"/>
<feColorMatrix type="matrix" values="0 0 0 0 0 0 0 0 0 0 0 0 0 0 0 0 0 0 0.11 0"/>
<feBlend mode="multiply" in2="effect1_dropShadow_701_25228" result="effect2_dropShadow_701_25228"/>
<feBlend mode="normal" in="SourceGraphic" in2="effect2_dropShadow_701_25228" result="shape"/>
</filter>
<clipPath id="clip0_701_25228">
<rect x="1.5" y="1" width="24" height="18" fill="white"/>
</clipPath>
</defs>
</svg>