<svg width="27" height="21" viewBox="0 0 27 21" fill="none" xmlns="http://www.w3.org/2000/svg">
<g filter="url(#filter0_dd_701_24185)">
<g clip-path="url(#clip0_701_24185)">
<mask id="mask0_701_24185" style="mask-type:alpha" maskUnits="userSpaceOnUse" x="1" y="1" width="25" height="18">
<rect x="1.5" y="1" width="24" height="18" fill="white"/>
</mask>
<g mask="url(#mask0_701_24185)">
<path fill-rule="evenodd" clip-rule="evenodd" d="M1.5 1V19H25.5V1H1.5Z" fill="#4141DB"/>
<mask id="mask1_701_24185" style="mask-type:alpha" maskUnits="userSpaceOnUse" x="1" y="1" width="25" height="18">
<path fill-rule="evenodd" clip-rule="evenodd" d="M1.5 1V19H25.5V1H1.5Z" fill="white"/>
</mask>
<g mask="url(#mask1_701_24185)">
<path d="M1.5 10.5H0.5V11.5V13V14H1.5H25.5H26.5V13V11.5V10.5H25.5H1.5Z" fill="#F90000" stroke="#F7FCFF" stroke-width="2"/>
<g filter="url(#filter1_d_701_24185)">
<path fill-rule="evenodd" clip-rule="evenodd" d="M8.84688 8.69458L9.39129 8.31292L9.91805 8.69458L9.75428 8.01537L10.1773 7.58494H9.63891L9.39053 7.03064L9.17871 7.58494H8.54715L9.03068 8.01537L8.84688 8.69458ZM11.0969 9.89458L11.6413 9.51292L12.168 9.89458L12.0043 9.21537L12.4273 8.78494H11.8889L11.6405 8.23064L11.4287 8.78494H10.7971L11.2807 9.21537L11.0969 9.89458ZM13.4413 11.3129L12.8969 11.6946L13.0807 11.0154L12.5971 10.5849H13.2287L13.4405 10.0306L13.6889 10.5849H14.2273L13.8043 11.0154L13.968 11.6946L13.4413 11.3129ZM12.8969 14.6946L13.4413 14.3129L13.968 14.6946L13.8043 14.0154L14.2273 13.5849H13.6889L13.4405 13.0306L13.2287 13.5849H12.5971L13.0807 14.0154L12.8969 14.6946ZM11.6413 16.1129L11.0969 16.4946L11.2807 15.8154L10.7971 15.3849H11.4287L11.6405 14.8306L11.8889 15.3849H12.4273L12.0043 15.8154L12.168 16.4946L11.6413 16.1129ZM8.84688 17.6946L9.39129 17.3129L9.91805 17.6946L9.75428 17.0154L10.1773 16.5849H9.63891L9.39053 16.0306L9.17871 16.5849H8.54715L9.03068 17.0154L8.84688 17.6946ZM7.14129 16.1129L6.59688 16.4946L6.78068 15.8154L6.29715 15.3849H6.92871L7.14053 14.8306L7.38891 15.3849H7.9273L7.50428 15.8154L7.66805 16.4946L7.14129 16.1129ZM4.79689 14.6946L5.34129 14.3129L5.86805 14.6946L5.70428 14.0154L6.1273 13.5849H5.58891L5.34053 13.0306L5.12871 13.5849H4.49715L4.98068 14.0154L4.79689 14.6946ZM5.34129 11.3129L4.79689 11.6946L4.98068 11.0154L4.49715 10.5849H5.12871L5.34053 10.0306L5.58891 10.5849H6.1273L5.70428 11.0154L5.86805 11.6946L5.34129 11.3129ZM6.59688 9.89458L7.14129 9.51292L7.66805 9.89458L7.50428 9.21537L7.9273 8.78494H7.38891L7.14053 8.23064L6.92871 8.78494H6.29715L6.78068 9.21537L6.59688 9.89458Z" fill="#FFDE00"/>
</g>
</g>
</g>
</g>
<rect x="1.75" y="1.25" width="23.5" height="17.5" stroke="black" stroke-opacity="0.1" stroke-width="0.5" shape-rendering="crispEdges"/>
</g>
<defs>
<filter id="filter0_dd_701_24185" x="0" y="0" width="27" height="21" filterUnits="userSpaceOnUse" color-interpolation-filters="sRGB">
<feFlood flood-opacity="0" result="BackgroundImageFix"/>
<feColorMatrix in="SourceAlpha" type="matrix" values="0 0 0 0 0 0 0 0 0 0 0 0 0 0 0 0 0 0 127 0" result="hardAlpha"/>
<feOffset dy="0.5"/>
<feGaussianBlur stdDeviation="0.75"/>
<feComposite in2="hardAlpha" operator="out"/>
<feColorMatrix type="matrix" values="0 0 0 0 0 0 0 0 0 0 0 0 0 0 0 0 0 0 0.1 0"/>
<feBlend mode="multiply" in2="BackgroundImageFix" result="effect1_dropShadow_701_24185"/>
<feColorMatrix in="SourceAlpha" type="matrix" values="0 0 0 0 0 0 0 0 0 0 0 0 0 0 0 0 0 0 127 0" result="hardAlpha"/>
<feOffset/>
<feGaussianBlur stdDeviation="0.5"/>
<feComposite in2="hardAlpha" operator="out"/>
<feColorMatrix type="matrix" values="0 0 0 0 0 0 0 0 0 0 0 0 0 0 0 0 0 0 0.11 0"/>
<feBlend mode="multiply" in2="effect1_dropShadow_701_24185" result="effect2_dropShadow_701_24185"/>
<feBlend mode="normal" in="SourceGraphic" in2="effect2_dropShadow_701_24185" result="shape"/>
</filter>
<filter id="filter1_d_701_24185" x="0.497147" y="3.03064" width="17.7302" height="18.6639" filterUnits="userSpaceOnUse" color-interpolation-filters="sRGB">
<feFlood flood-opacity="0" result="BackgroundImageFix"/>
<feColorMatrix in="SourceAlpha" type="matrix" values="0 0 0 0 0 0 0 0 0 0 0 0 0 0 0 0 0 0 127 0" result="hardAlpha"/>
<feOffset/>
<feGaussianBlur stdDeviation="2"/>
<feColorMatrix type="matrix" values="0 0 0 0 0 0 0 0 0 0 0 0 0 0 0 0 0 0 0.24 0"/>
<feBlend mode="normal" in2="BackgroundImageFix" result="effect1_dropShadow_701_24185"/>
<feBlend mode="normal" in="SourceGraphic" in2="effect1_dropShadow_701_24185" result="shape"/>
</filter>
<clipPath id="clip0_701_24185">
<rect x="1.5" y="1" width="24" height="18" fill="white"/>
</clipPath>
</defs>
</svg>
