<svg viewBox="0 0 27 21" fill="none" xmlns="http://www.w3.org/2000/svg">
<g filter="url(#filter0_dd_701_19293)">
<g clip-path="url(#clip0_701_19293)">
<mask id="mask0_701_19293" style="mask-type:alpha" maskUnits="userSpaceOnUse" x="1" y="1" width="25" height="18">
<rect x="1.5" y="1" width="24" height="18" fill="white"/>
</mask>
<g mask="url(#mask0_701_19293)">
<path fill-rule="evenodd" clip-rule="evenodd" d="M1.5 1V19H25.5V1H1.5Z" fill="#2E42A5"/>
<mask id="mask1_701_19293" style="mask-type:alpha" maskUnits="userSpaceOnUse" x="1" y="1" width="25" height="18">
<path fill-rule="evenodd" clip-rule="evenodd" d="M1.5 1V19H25.5V1H1.5Z" fill="white"/>
</mask>
<g mask="url(#mask1_701_19293)">
<rect x="-2.5" y="-2" width="18" height="14" fill="#2B409A"/>
<mask id="mask2_701_19293" style="mask-type:alpha" maskUnits="userSpaceOnUse" x="-3" y="-2" width="19" height="14">
<rect x="-2.5" y="-2" width="18" height="14" fill="white"/>
</mask>
<g mask="url(#mask2_701_19293)">
<path d="M-4.50424 10.9999L-0.543292 12.7371L15.5899 -0.111217L17.6792 -2.69275L13.4435 -3.27337L6.8632 2.26332L1.5667 5.99375L-4.50424 10.9999Z" fill="#F7FCFF"/>
<path d="M-3.96198 12.217L-1.94405 13.2251L16.929 -2.93262H14.0956L-3.96198 12.217Z" fill="#F50100"/>
<path d="M17.5043 10.9999L13.5433 12.7371L-2.58987 -0.111217L-4.67919 -2.69275L-0.443518 -3.27337L6.13683 2.26332L11.4333 5.99375L17.5043 10.9999Z" fill="#F7FCFF"/>
<path d="M17.3691 11.8732L15.3512 12.8813L7.31486 5.96339L4.93226 5.19046L-4.88023 -2.68407H-2.04684L7.76015 5.00356L10.3651 5.93038L17.3691 11.8732Z" fill="#F50100"/>
<mask id="path-12-outside-1_701_19293" maskUnits="userSpaceOnUse" x="-4.5" y="-4" width="22" height="18" fill="black">
<rect fill="white" x="-4.5" y="-4" width="22" height="18"/>
<path fill-rule="evenodd" clip-rule="evenodd" d="M7.48451 -2H5.48451V4H-2.5V6H5.48451V12H7.48451V6H15.5V4H7.48451V-2Z"/>
</mask>
<path fill-rule="evenodd" clip-rule="evenodd" d="M7.48451 -2H5.48451V4H-2.5V6H5.48451V12H7.48451V6H15.5V4H7.48451V-2Z" fill="#F50100"/>
<path d="M5.48451 -2V-3.5H3.98451V-2H5.48451ZM7.48451 -2H8.98451V-3.5H7.48451V-2ZM5.48451 4V5.5H6.98451V4H5.48451ZM-2.5 4V2.5H-4V4H-2.5ZM-2.5 6H-4V7.5H-2.5V6ZM5.48451 6H6.98451V4.5H5.48451V6ZM5.48451 12H3.98451V13.5H5.48451V12ZM7.48451 12V13.5H8.98451V12H7.48451ZM7.48451 6V4.5H5.98451V6H7.48451ZM15.5 6V7.5H17V6H15.5ZM15.5 4H17V2.5H15.5V4ZM7.48451 4H5.98451V5.5H7.48451V4ZM5.48451 -0.5H7.48451V-3.5H5.48451V-0.5ZM6.98451 4V-2H3.98451V4H6.98451ZM-2.5 5.5H5.48451V2.5H-2.5V5.5ZM-1 6V4H-4V6H-1ZM5.48451 4.5H-2.5V7.5H5.48451V4.5ZM6.98451 12V6H3.98451V12H6.98451ZM7.48451 10.5H5.48451V13.5H7.48451V10.5ZM5.98451 6V12H8.98451V6H5.98451ZM15.5 4.5H7.48451V7.5H15.5V4.5ZM14 4V6H17V4H14ZM7.48451 5.5H15.5V2.5H7.48451V5.5ZM5.98451 -2V4H8.98451V-2H5.98451Z" fill="#F7FCFF" mask="url(#path-12-outside-1_701_19293)"/>
</g>
<path fill-rule="evenodd" clip-rule="evenodd" d="M17.7467 8.03271V14.5619C17.7467 14.5619 17.6499 19.964 22.6287 19.964C27.6074 19.964 27.6074 14.5619 27.6074 14.5619V8.03271H17.7467Z" fill="#3B7E05" stroke="#F7FCFF" stroke-width="0.5"/>
<path fill-rule="evenodd" clip-rule="evenodd" d="M17.7371 17.8888L18.5303 17.0925C19.7698 18.6234 21.0736 19.3685 22.4599 19.3685C23.8461 19.3685 25.1489 18.6236 26.3865 17.0928L26.8379 17.5454L26.8571 17.517C27.1331 17.7507 27.3151 17.9693 27.4024 18.2226C27.5447 18.6351 27.3927 19.0315 27.0592 19.2412C26.9765 19.2932 26.9108 19.3307 26.8524 19.3579C26.717 19.4209 26.6085 19.4483 26.4474 19.4029C26.2834 19.3566 26.1455 19.2304 26.0742 19.0567C24.9493 20.0517 23.742 20.5577 22.4599 20.5577C21.1889 20.5577 19.9908 20.0604 18.873 19.0822C18.7984 19.253 18.659 19.3756 18.4952 19.4187C18.3333 19.4613 18.2253 19.432 18.0911 19.3666C18.0331 19.3384 17.9681 19.2998 17.8863 19.2464C17.5565 19.0309 17.4115 18.6319 17.5609 18.222C17.6016 18.1104 17.6669 18.007 17.7513 17.9064C17.7466 17.9006 17.7418 17.8947 17.7371 17.8888Z" fill="#FFD018"/>
<path d="M18.5303 17.0925L18.7245 16.9352L18.5495 16.719L18.3531 16.9161L18.5303 17.0925ZM17.7371 17.8888L17.56 17.7124L17.4014 17.8716L17.5428 18.0462L17.7371 17.8888ZM26.3865 17.0928L26.5635 16.9163L26.367 16.7193L26.1921 16.9357L26.3865 17.0928ZM26.8379 17.5454L26.6609 17.722L26.8753 17.9369L27.0451 17.6853L26.8379 17.5454ZM26.8571 17.517L27.0186 17.3262L26.8059 17.1461L26.6499 17.3771L26.8571 17.517ZM27.4024 18.2226L27.6388 18.1411V18.1411L27.4024 18.2226ZM27.0592 19.2412L26.9261 19.0296V19.0296L27.0592 19.2412ZM26.8524 19.3579L26.7469 19.1312L26.8524 19.3579ZM26.4474 19.4029L26.3796 19.6435L26.4474 19.4029ZM26.0742 19.0567L26.3055 18.9617L26.1719 18.6365L25.9086 18.8695L26.0742 19.0567ZM18.873 19.0822L19.0377 18.8941L18.7808 18.6693L18.644 18.9821L18.873 19.0822ZM18.4952 19.4187L18.4316 19.1769H18.4316L18.4952 19.4187ZM18.0911 19.3666L18.2005 19.1419L18.2005 19.1419L18.0911 19.3666ZM17.8863 19.2464L17.7496 19.4557L17.7496 19.4557L17.8863 19.2464ZM17.5609 18.222L17.7958 18.3076V18.3076L17.5609 18.222ZM17.7513 17.9064L17.9428 18.0672L18.0756 17.909L17.9453 17.7487L17.7513 17.9064ZM18.3531 16.9161L17.56 17.7124L17.9142 18.0653L18.7074 17.269L18.3531 16.9161ZM22.4599 19.1185C21.1756 19.1185 19.9364 18.4318 18.7245 16.9352L18.336 17.2498C19.6033 18.815 20.9716 19.6185 22.4599 19.6185V19.1185ZM26.1921 16.9357C24.9822 18.432 23.7441 19.1185 22.4599 19.1185V19.6185C23.9482 19.6185 25.3155 18.8151 26.5809 17.25L26.1921 16.9357ZM27.0149 17.3689L26.5635 16.9163L26.2095 17.2694L26.6609 17.722L27.0149 17.3689ZM26.6499 17.3771L26.6307 17.4055L27.0451 17.6853L27.0643 17.6569L26.6499 17.3771ZM27.6388 18.1411C27.5302 17.8262 27.3093 17.5723 27.0186 17.3262L26.6956 17.7078C26.9569 17.9291 27.1 18.1124 27.1661 18.3041L27.6388 18.1411ZM27.1923 19.4528C27.6249 19.1808 27.8187 18.6626 27.6388 18.1411L27.1661 18.3041C27.2708 18.6076 27.1606 18.8821 26.9261 19.0296L27.1923 19.4528ZM26.9579 19.5845C27.0301 19.5509 27.1059 19.5071 27.1923 19.4528L26.9261 19.0296C26.8471 19.0793 26.7915 19.1105 26.7469 19.1312L26.9579 19.5845ZM26.3796 19.6435C26.4889 19.6743 26.5915 19.6831 26.6945 19.6686C26.7942 19.6545 26.881 19.6203 26.9579 19.5845L26.7469 19.1312C26.6885 19.1584 26.6534 19.1694 26.6247 19.1735C26.5993 19.1771 26.567 19.1768 26.5152 19.1622L26.3796 19.6435ZM25.843 19.1517C25.9409 19.3901 26.1352 19.5746 26.3796 19.6435L26.5152 19.1622C26.4316 19.1386 26.3502 19.0707 26.3055 18.9617L25.843 19.1517ZM22.4599 20.8077C23.814 20.8077 25.0782 20.2714 26.2399 19.244L25.9086 18.8695C24.8204 19.832 23.6699 20.3077 22.4599 20.3077V20.8077ZM18.7084 19.2704C19.8629 20.2806 21.1176 20.8077 22.4599 20.8077V20.3077C21.2602 20.3077 20.1187 19.8401 19.0377 18.8941L18.7084 19.2704ZM18.5589 19.6605C18.8029 19.5962 18.9995 19.417 19.1021 19.1824L18.644 18.9821C18.5972 19.0891 18.5152 19.1549 18.4316 19.1769L18.5589 19.6605ZM17.9816 19.5914C18.0579 19.6286 18.1441 19.6643 18.2436 19.6801C18.3463 19.6964 18.449 19.6894 18.5589 19.6605L18.4316 19.1769C18.3796 19.1906 18.3473 19.1903 18.322 19.1863C18.2934 19.1817 18.2584 19.1701 18.2005 19.1419L17.9816 19.5914ZM17.7496 19.4557C17.835 19.5115 17.91 19.5566 17.9816 19.5914L18.2005 19.1419C18.1563 19.1203 18.1013 19.0882 18.0231 19.0371L17.7496 19.4557ZM17.3261 18.1363C17.1371 18.6546 17.3218 19.1762 17.7496 19.4557L18.0231 19.0371C17.7912 18.8856 17.6858 18.6092 17.7958 18.3076L17.3261 18.1363ZM17.5599 17.7456C17.4622 17.8619 17.3793 17.9904 17.3261 18.1363L17.7958 18.3076C17.8239 18.2305 17.8715 18.152 17.9428 18.0672L17.5599 17.7456ZM17.5428 18.0462C17.5476 18.0522 17.5525 18.0581 17.5573 18.0641L17.9453 17.7487C17.9407 17.743 17.936 17.7373 17.9314 17.7315L17.5428 18.0462Z" fill="white"/>
<path fill-rule="evenodd" clip-rule="evenodd" d="M19.4558 9.46042L19.5671 9.5012C19.658 9.29328 19.6731 9.13487 19.5671 9.03317L19.5641 9.02848C19.5394 8.98991 19.4956 8.92141 19.5671 8.77504L19.5161 8.67041C19.4125 8.88232 19.3658 9.03525 19.4468 9.13835L19.451 9.14361L19.4558 9.14801C19.5027 9.19022 19.5224 9.3082 19.4558 9.46042ZM19.4558 10.9739L19.5671 11.0147C19.658 10.8068 19.6731 10.6484 19.5671 10.5467L19.5641 10.542C19.5394 10.5034 19.4956 10.4349 19.5671 10.2886L19.5161 10.1839C19.4125 10.3958 19.3658 10.5488 19.4468 10.6519L19.451 10.6571L19.4558 10.6615C19.5027 10.7037 19.5224 10.8217 19.4558 10.9739ZM19.5671 12.3661L19.4558 12.3253C19.5224 12.1731 19.5027 12.0551 19.4558 12.0129L19.451 12.0085L19.4468 12.0032C19.3658 11.9001 19.4125 11.7472 19.5161 11.5353L19.5671 11.6399C19.4956 11.7863 19.5394 11.8548 19.5641 11.8933L19.5671 11.898C19.6731 11.9997 19.658 12.1581 19.5671 12.3661ZM20.2325 13.9469L20.3438 13.9877C20.4347 13.7798 20.4498 13.6214 20.3438 13.5197L20.3408 13.515C20.3161 13.4764 20.2723 13.4079 20.3438 13.2615L20.2928 13.1569C20.1892 13.3688 20.1425 13.5217 20.2235 13.6248L20.2277 13.6301L20.2325 13.6345C20.2794 13.6767 20.2991 13.7947 20.2325 13.9469ZM19.4215 15.285L19.3102 15.2442C19.3768 15.092 19.3571 14.974 19.3102 14.9318L19.3053 14.9274L19.3012 14.9221C19.2202 14.819 19.2669 14.6661 19.3705 14.4542L19.4215 14.5588C19.3499 14.7052 19.3938 14.7737 19.4185 14.8123L19.4215 14.8169C19.5274 14.9187 19.5124 15.0771 19.4215 15.285ZM19.3102 16.7577L19.4215 16.7985C19.5124 16.5906 19.5274 16.4322 19.4215 16.3305L19.4185 16.3258C19.3938 16.2872 19.3499 16.2187 19.4215 16.0723L19.3705 15.9677C19.2669 16.1796 19.2202 16.3325 19.3012 16.4356L19.3053 16.4409L19.3102 16.4453C19.3571 16.4875 19.3768 16.6055 19.3102 16.7577ZM24.2273 16.7985L24.116 16.7577C24.1826 16.6055 24.1629 16.4875 24.116 16.4453L24.1112 16.4409L24.107 16.4356C24.026 16.3325 24.0727 16.1796 24.1763 15.9677L24.2273 16.0723C24.1558 16.2187 24.1996 16.2872 24.2243 16.3258L24.2273 16.3305C24.3332 16.4322 24.3182 16.5906 24.2273 16.7985ZM24.116 15.2983L24.2273 15.339C24.3182 15.1311 24.3332 14.9727 24.2273 14.871L24.2243 14.8663C24.1996 14.8277 24.1558 14.7592 24.2273 14.6129L24.1763 14.5082C24.0727 14.7202 24.026 14.8731 24.107 14.9762L24.1112 14.9814L24.116 14.9858C24.1629 15.0281 24.1826 15.146 24.116 15.2983ZM24.2273 13.8796L24.116 13.8388C24.1826 13.6866 24.1629 13.5686 24.116 13.5264L24.1112 13.522L24.107 13.5167C24.026 13.4136 24.0727 13.2607 24.1763 13.0488L24.2273 13.1534C24.1558 13.2998 24.1996 13.3683 24.2243 13.4069L24.2273 13.4115C24.3332 13.5132 24.3182 13.6717 24.2273 13.8796ZM24.0675 12.4334L24.1788 12.4742C24.2697 12.2663 24.2847 12.1078 24.1788 12.0061L24.1758 12.0015C24.1511 11.9629 24.1072 11.8944 24.1788 11.748L24.1277 11.6434C24.0242 11.8553 23.9775 12.0082 24.0585 12.1113L24.0626 12.1166L24.0675 12.121C24.1144 12.1632 24.1341 12.2812 24.0675 12.4334ZM24.1788 10.9607L24.0675 10.9199C24.1341 10.7677 24.1144 10.6497 24.0675 10.6075L24.0626 10.6031L24.0585 10.5978C23.9775 10.4947 24.0242 10.3418 24.1277 10.1299L24.1788 10.2345C24.1072 10.3809 24.1511 10.4494 24.1758 10.4879L24.1788 10.4926C24.2847 10.5943 24.2697 10.7527 24.1788 10.9607ZM24.0675 9.51447L24.1788 9.55526C24.2697 9.34733 24.2847 9.18892 24.1788 9.08722C24.1778 9.08571 24.1768 9.08415 24.1758 9.08253C24.1511 9.04396 24.1072 8.97546 24.1788 8.82909L24.1277 8.72446C24.0242 8.93638 23.9775 9.08931 24.0585 9.1924L24.0626 9.19766L24.0675 9.20206C24.1144 9.24427 24.1341 9.36226 24.0675 9.51447Z" fill="#F50100"/>
<path fill-rule="evenodd" clip-rule="evenodd" d="M20.2602 8.81505C20.2682 8.79947 20.2728 8.78152 20.2728 8.7624C20.2728 8.7027 20.2281 8.6543 20.1728 8.6543C20.1176 8.6543 20.0728 8.7027 20.0728 8.7624C20.0728 8.78815 20.0812 8.81178 20.0951 8.83035L19.7167 9.41626L19.7561 9.44782L20.1343 8.86219C20.1461 8.86755 20.1592 8.87051 20.1728 8.87051C20.1923 8.87051 20.2105 8.86451 20.2258 8.85412L20.6238 9.4482L20.6627 9.41588L20.2602 8.81505ZM20.2466 9.3219C20.2629 9.30266 20.2728 9.27703 20.2728 9.24889C20.2728 9.18919 20.2281 9.14078 20.1728 9.14078C20.1176 9.14078 20.0728 9.18919 20.0728 9.24889C20.0728 9.2853 20.0895 9.31751 20.115 9.3371L20.0202 9.45113H19.3778C19.3778 9.45113 19.4482 9.61215 19.6672 9.65467C19.7341 9.71824 19.9052 9.83656 19.9052 9.83656L19.8076 9.95511H20.5002V9.83656C20.669 9.8353 20.7323 9.70205 20.7549 9.65449C20.7643 9.63487 20.7667 9.62983 20.7667 9.65467C20.7667 9.73971 20.8899 9.65467 20.8899 9.65467C20.8899 9.65467 21.0943 9.45113 21.0943 9.25715C21.0943 9.06317 20.6667 9.45113 20.6667 9.45113H20.3766L20.2466 9.3219ZM19.3778 10.9646H20.0202L20.115 10.8506C20.0895 10.831 20.0728 10.7988 20.0728 10.7624C20.0728 10.7027 20.1176 10.6543 20.1728 10.6543C20.2281 10.6543 20.2728 10.7027 20.2728 10.7624C20.2728 10.7905 20.2629 10.8162 20.2466 10.8354L20.3766 10.9646H20.6667C20.6667 10.9646 21.0943 10.5767 21.0943 10.7707C21.0943 10.9646 20.8899 11.1682 20.8899 11.1682C20.8899 11.1682 20.7667 11.2532 20.7667 11.1682C20.7667 11.1433 20.7643 11.1484 20.7549 11.168C20.7323 11.2156 20.669 11.3488 20.5002 11.3501V11.4686H19.8076L19.9052 11.3501C19.9052 11.3501 19.7341 11.2318 19.6672 11.1682C19.4482 11.1257 19.3778 10.9646 19.3778 10.9646ZM20.2602 10.3286C20.2682 10.313 20.2728 10.295 20.2728 10.2759C20.2728 10.2162 20.2281 10.1678 20.1728 10.1678C20.1176 10.1678 20.0728 10.2162 20.0728 10.2759C20.0728 10.3017 20.0812 10.3253 20.0951 10.3439L19.7167 10.9298L19.7561 10.9613L20.1343 10.3757C20.1461 10.3811 20.1592 10.384 20.1728 10.384C20.1923 10.384 20.2105 10.378 20.2258 10.3676L20.6238 10.9617L20.6627 10.9294L20.2602 10.3286ZM19.3778 12.316H20.0202L20.115 12.202C20.0895 12.1824 20.0728 12.1502 20.0728 12.1138C20.0728 12.054 20.1176 12.0056 20.1728 12.0056C20.2281 12.0056 20.2728 12.054 20.2728 12.1138C20.2728 12.1419 20.2629 12.1675 20.2466 12.1868L20.3766 12.316H20.6667C20.6667 12.316 21.0943 11.928 21.0943 12.122C21.0943 12.316 20.8899 12.5195 20.8899 12.5195C20.8899 12.5195 20.7667 12.6046 20.7667 12.5195C20.7667 12.4947 20.7643 12.4997 20.7549 12.5194C20.7323 12.5669 20.669 12.7002 20.5002 12.7014V12.82H19.8076L19.9052 12.7014C19.9052 12.7014 19.7341 12.5831 19.6672 12.5195C19.4482 12.477 19.3778 12.316 19.3778 12.316ZM20.2602 11.6799C20.2682 11.6643 20.2728 11.6464 20.2728 11.6273C20.2728 11.5676 20.2281 11.5192 20.1728 11.5192C20.1176 11.5192 20.0728 11.5676 20.0728 11.6273C20.0728 11.653 20.0812 11.6766 20.0951 11.6952L19.7167 12.2811L19.7561 12.3127L20.1343 11.7271C20.1461 11.7324 20.1592 11.7354 20.1728 11.7354C20.1923 11.7354 20.2105 11.7294 20.2258 11.719L20.6238 12.3131L20.6627 12.2807L20.2602 11.6799ZM20.1545 13.9376H20.7969L20.8917 13.8236C20.8662 13.804 20.8495 13.7718 20.8495 13.7354C20.8495 13.6757 20.8943 13.6273 20.9495 13.6273C21.0048 13.6273 21.0495 13.6757 21.0495 13.7354C21.0495 13.7635 21.0396 13.7891 21.0233 13.8084L21.1533 13.9376H21.4434C21.4434 13.9376 21.871 13.5497 21.871 13.7436C21.871 13.9376 21.6666 14.1412 21.6666 14.1412C21.6666 14.1412 21.5434 14.2262 21.5434 14.1412C21.5434 14.1163 21.541 14.1214 21.5316 14.141C21.509 14.1885 21.4457 14.3218 21.2769 14.323V14.4416H20.5843L20.6819 14.323C20.6819 14.323 20.5108 14.2047 20.4439 14.1412C20.2248 14.0986 20.1545 13.9376 20.1545 13.9376ZM21.0369 13.3015C21.0449 13.286 21.0495 13.268 21.0495 13.2489C21.0495 13.1892 21.0048 13.1408 20.9495 13.1408C20.8943 13.1408 20.8495 13.1892 20.8495 13.2489C20.8495 13.2746 20.8579 13.2983 20.8718 13.3168L20.4934 13.9027L20.5328 13.9343L20.911 13.3487C20.9228 13.354 20.9359 13.357 20.9495 13.357C20.969 13.357 20.9871 13.351 21.0025 13.3406L21.4005 13.9347L21.4394 13.9024L21.0369 13.3015ZM19.2321 15.2349H19.8746L19.9694 15.1209C19.9439 15.1013 19.9272 15.0691 19.9272 15.0327C19.9272 14.973 19.972 14.9246 20.0272 14.9246C20.0824 14.9246 20.1272 14.973 20.1272 15.0327C20.1272 15.0608 20.1173 15.0864 20.101 15.1057L20.231 15.2349H20.5211C20.5211 15.2349 20.9487 14.847 20.9487 15.0409C20.9487 15.2349 20.7442 15.4385 20.7442 15.4385C20.7442 15.4385 20.621 15.5235 20.621 15.4385C20.621 15.4136 20.6186 15.4186 20.6093 15.4383C20.5867 15.4858 20.5233 15.6191 20.3546 15.6203V15.7389H19.662L19.7596 15.6203C19.7596 15.6203 19.5884 15.502 19.5216 15.4385C19.3025 15.3959 19.2321 15.2349 19.2321 15.2349ZM20.1146 14.5988C20.1226 14.5833 20.1272 14.5653 20.1272 14.5462C20.1272 14.4865 20.0824 14.4381 20.0272 14.4381C19.972 14.4381 19.9272 14.4865 19.9272 14.5462C19.9272 14.5719 19.9355 14.5956 19.9494 14.6141L19.571 15.2L19.6105 15.2316L19.9887 14.646C20.0005 14.6513 20.0135 14.6543 20.0272 14.6543C20.0467 14.6543 20.0648 14.6483 20.0802 14.6379L20.4781 15.232L20.5171 15.1997L20.1146 14.5988ZM19.2321 16.7484H19.8746L19.9694 16.6344C19.9439 16.6148 19.9272 16.5826 19.9272 16.5462C19.9272 16.4865 19.972 16.4381 20.0272 16.4381C20.0824 16.4381 20.1272 16.4865 20.1272 16.5462C20.1272 16.5743 20.1173 16.6 20.101 16.6192L20.231 16.7484H20.5211C20.5211 16.7484 20.9487 16.3605 20.9487 16.5544C20.9487 16.7484 20.7442 16.952 20.7442 16.952C20.7442 16.952 20.621 17.037 20.621 16.952C20.621 16.9271 20.6186 16.9322 20.6093 16.9518C20.5867 16.9993 20.5233 17.1326 20.3546 17.1339V17.2524H19.662L19.7596 17.1339C19.7596 17.1339 19.5884 17.0155 19.5216 16.952C19.3025 16.9094 19.2321 16.7484 19.2321 16.7484ZM20.1146 16.1123C20.1226 16.0968 20.1272 16.0788 20.1272 16.0597C20.1272 16 20.0824 15.9516 20.0272 15.9516C19.972 15.9516 19.9272 16 19.9272 16.0597C19.9272 16.0854 19.9355 16.1091 19.9494 16.1276L19.571 16.7136L19.6105 16.7451L19.9887 16.1595C20.0005 16.1648 20.0135 16.1678 20.0272 16.1678C20.0467 16.1678 20.0648 16.1618 20.0802 16.1514L20.4781 16.7455L20.5171 16.7132L20.1146 16.1123ZM24.038 16.7484H24.6804L24.7752 16.6344C24.7497 16.6148 24.733 16.5826 24.733 16.5462C24.733 16.4865 24.7778 16.4381 24.833 16.4381C24.8883 16.4381 24.933 16.4865 24.933 16.5462C24.933 16.5743 24.9231 16.6 24.9068 16.6192L25.0368 16.7484H25.3269C25.3269 16.7484 25.7545 16.3605 25.7545 16.5544C25.7545 16.7484 25.5501 16.952 25.5501 16.952C25.5501 16.952 25.4269 17.037 25.4269 16.952C25.4269 16.9271 25.4245 16.9322 25.4151 16.9518C25.3925 16.9993 25.3292 17.1326 25.1604 17.1339V17.2524H24.4678L24.5654 17.1339C24.5654 17.1339 24.3943 17.0155 24.3274 16.952C24.1083 16.9094 24.038 16.7484 24.038 16.7484ZM24.9204 16.1123C24.9284 16.0968 24.933 16.0788 24.933 16.0597C24.933 16 24.8883 15.9516 24.833 15.9516C24.7778 15.9516 24.733 16 24.733 16.0597C24.733 16.0854 24.7414 16.1091 24.7552 16.1276L24.3769 16.7136L24.4163 16.7451L24.7945 16.1595C24.8063 16.1648 24.8194 16.1678 24.833 16.1678C24.8525 16.1678 24.8706 16.1618 24.886 16.1514L25.284 16.7455L25.3229 16.7132L24.9204 16.1123ZM24.038 15.289H24.6804L24.7752 15.1749C24.7497 15.1553 24.733 15.1231 24.733 15.0867C24.733 15.027 24.7778 14.9786 24.833 14.9786C24.8883 14.9786 24.933 15.027 24.933 15.0867C24.933 15.1149 24.9231 15.1405 24.9068 15.1597L25.0368 15.289H25.3269C25.3269 15.289 25.7545 14.901 25.7545 15.095C25.7545 15.289 25.5501 15.4925 25.5501 15.4925C25.5501 15.4925 25.4269 15.5775 25.4269 15.4925C25.4269 15.4677 25.4245 15.4727 25.4151 15.4923C25.3925 15.5399 25.3292 15.6731 25.1604 15.6744V15.7929H24.4678L24.5654 15.6744C24.5654 15.6744 24.3943 15.5561 24.3274 15.4925C24.1083 15.45 24.038 15.289 24.038 15.289ZM24.9204 14.6529C24.9284 14.6373 24.933 14.6194 24.933 14.6002C24.933 14.5405 24.8883 14.4921 24.833 14.4921C24.7778 14.4921 24.733 14.5405 24.733 14.6002C24.733 14.626 24.7414 14.6496 24.7552 14.6682L24.3769 15.2541L24.4163 15.2857L24.7945 14.7C24.8063 14.7054 24.8194 14.7084 24.833 14.7084C24.8525 14.7084 24.8706 14.7023 24.886 14.692L25.284 15.286L25.3229 15.2537L24.9204 14.6529ZM24.038 13.8295H24.6804L24.7752 13.7155C24.7497 13.6959 24.733 13.6637 24.733 13.6273C24.733 13.5676 24.7778 13.5192 24.833 13.5192C24.8883 13.5192 24.933 13.5676 24.933 13.6273C24.933 13.6554 24.9231 13.681 24.9068 13.7003L25.0368 13.8295H25.3269C25.3269 13.8295 25.7545 13.4415 25.7545 13.6355C25.7545 13.8295 25.5501 14.033 25.5501 14.033C25.5501 14.033 25.4269 14.1181 25.4269 14.033C25.4269 14.0082 25.4245 14.0132 25.4151 14.0329C25.3925 14.0804 25.3292 14.2137 25.1604 14.2149V14.3335H24.4678L24.5654 14.2149C24.5654 14.2149 24.3943 14.0966 24.3274 14.033C24.1083 13.9905 24.038 13.8295 24.038 13.8295ZM24.9204 13.1934C24.9284 13.1778 24.933 13.1599 24.933 13.1408C24.933 13.0811 24.8883 13.0327 24.833 13.0327C24.7778 13.0327 24.733 13.0811 24.733 13.1408C24.733 13.1665 24.7414 13.1902 24.7552 13.2087L24.3769 13.7946L24.4163 13.8262L24.7945 13.2406C24.8063 13.2459 24.8194 13.2489 24.833 13.2489C24.8525 13.2489 24.8706 13.2429 24.886 13.2325L25.284 13.8266L25.3229 13.7943L24.9204 13.1934ZM23.9894 12.4241H24.6319L24.7267 12.3101C24.7011 12.2905 24.6845 12.2583 24.6845 12.2219C24.6845 12.1622 24.7293 12.1138 24.7845 12.1138C24.8397 12.1138 24.8845 12.1622 24.8845 12.2219C24.8845 12.25 24.8745 12.2756 24.8582 12.2949L24.9882 12.4241H25.2784C25.2784 12.4241 25.706 12.0361 25.706 12.2301C25.706 12.4241 25.5015 12.6276 25.5015 12.6276C25.5015 12.6276 25.3783 12.7127 25.3783 12.6276C25.3783 12.6028 25.3759 12.6078 25.3666 12.6275C25.344 12.675 25.2806 12.8083 25.1118 12.8095V12.9281H24.4193L24.5168 12.8095C24.5168 12.8095 24.3457 12.6912 24.2789 12.6276C24.0598 12.5851 23.9894 12.4241 23.9894 12.4241ZM24.8719 11.788C24.8799 11.7724 24.8845 11.7545 24.8845 11.7354C24.8845 11.6757 24.8397 11.6273 24.7845 11.6273C24.7293 11.6273 24.6845 11.6757 24.6845 11.7354C24.6845 11.7611 24.6928 11.7848 24.7067 11.8033L24.3283 12.3892L24.3677 12.4208L24.7459 11.8352C24.7578 11.8405 24.7708 11.8435 24.7845 11.8435C24.8039 11.8435 24.8221 11.8375 24.8375 11.8271L25.2354 12.4212L25.2743 12.3889L24.8719 11.788ZM23.9894 10.9106H24.6319L24.7267 10.7966C24.7011 10.777 24.6845 10.7448 24.6845 10.7084C24.6845 10.6486 24.7293 10.6002 24.7845 10.6002C24.8397 10.6002 24.8845 10.6486 24.8845 10.7084C24.8845 10.7365 24.8745 10.7621 24.8582 10.7814L24.9882 10.9106H25.2784C25.2784 10.9106 25.706 10.5226 25.706 10.7166C25.706 10.9106 25.5015 11.1141 25.5015 11.1141C25.5015 11.1141 25.3783 11.1992 25.3783 11.1141C25.3783 11.0893 25.3759 11.0943 25.3666 11.1139C25.344 11.1615 25.2806 11.2948 25.1118 11.296V11.4146H24.4193L24.5168 11.296C24.5168 11.296 24.3457 11.1777 24.2789 11.1141C24.0598 11.0716 23.9894 10.9106 23.9894 10.9106ZM24.8719 10.2745C24.8799 10.2589 24.8845 10.241 24.8845 10.2219C24.8845 10.1622 24.8397 10.1138 24.7845 10.1138C24.7293 10.1138 24.6845 10.1622 24.6845 10.2219C24.6845 10.2476 24.6928 10.2712 24.7067 10.2898L24.3283 10.8757L24.3677 10.9073L24.7459 10.3216C24.7578 10.327 24.7708 10.33 24.7845 10.33C24.8039 10.33 24.8221 10.324 24.8375 10.3136L25.2354 10.9077L25.2743 10.8753L24.8719 10.2745Z" fill="#FFD018"/>
<path fill-rule="evenodd" clip-rule="evenodd" d="M22.1398 10.5857L21.8034 11.6792C21.8034 11.6792 21.24 12.4082 21.136 12.7654C21.0321 13.1227 20.9751 13.3601 21.0036 13.3601C21.0321 13.3601 21.2623 13.2583 21.2623 13.0119C21.2623 12.7654 22.1398 11.9729 22.1398 11.9729L22.4017 10.5857H22.1398Z" fill="#FFC6B5"/>
<path fill-rule="evenodd" clip-rule="evenodd" d="M24.8718 8.869C24.8799 8.85342 24.8845 8.83547 24.8845 8.81636C24.8845 8.75665 24.8397 8.70825 24.7845 8.70825C24.7292 8.70825 24.6845 8.75665 24.6845 8.81636C24.6845 8.8421 24.6928 8.86574 24.7067 8.88431L24.3283 9.47021L24.3677 9.50177L24.7459 8.91614C24.7578 8.92151 24.7708 8.92447 24.7845 8.92447C24.8039 8.92447 24.8221 8.91846 24.8374 8.90807L25.2354 9.50215L25.2743 9.46983L24.8718 8.869ZM24.8582 9.37585C24.8745 9.35662 24.8845 9.33099 24.8845 9.30285C24.8845 9.24314 24.8397 9.19474 24.7845 9.19474C24.7292 9.19474 24.6845 9.24314 24.6845 9.30285C24.6845 9.33926 24.7011 9.37146 24.7266 9.39105L24.6318 9.50508H23.9894C23.9894 9.50508 24.0598 9.6661 24.2789 9.70862C24.3457 9.7722 24.5168 9.89052 24.5168 9.89052L24.4192 10.0091H25.1118V9.89052C25.2806 9.88925 25.344 9.75601 25.3666 9.70844C25.3759 9.68882 25.3783 9.68378 25.3783 9.70862C25.3783 9.79367 25.5015 9.70862 25.5015 9.70862C25.5015 9.70862 25.706 9.50508 25.706 9.3111C25.706 9.11713 25.2784 9.50508 25.2784 9.50508H24.9882L24.8582 9.37585Z" fill="#FFD018"/>
<path fill-rule="evenodd" clip-rule="evenodd" d="M22.9601 10.1481C22.9696 10.1681 22.9767 10.183 22.9767 10.2041C22.9767 10.2672 22.7094 10.3598 22.5166 10.3598C22.3238 10.3598 22.3994 10.2041 22.5166 10.1178C22.6338 10.0315 22.5071 9.88294 22.3994 9.88294C22.2971 9.88294 22.2975 9.73843 22.2978 9.62229C22.2978 9.61616 22.2978 9.6101 22.2978 9.60414V9.15167C22.2978 8.97012 22.347 8.99138 22.441 9.03203C22.4963 9.05593 22.5671 9.08655 22.6525 9.08655C22.796 9.08655 22.804 9.11961 22.8255 9.20911C22.8386 9.26349 22.8567 9.3387 22.9133 9.43999C23.0033 9.6013 22.985 9.63842 22.9561 9.69687C22.937 9.73552 22.9133 9.78351 22.9133 9.88294C22.9133 10.0491 22.9413 10.1085 22.9601 10.1481ZM23.1982 11.3087L23.2549 10.6937C23.2549 10.6937 23.1982 10.4687 23.3311 10.4687C23.4639 10.4687 23.6703 11.5443 23.7449 11.9755C23.7926 12.2513 23.7487 12.3025 23.6222 12.4503C23.5509 12.5336 23.4533 12.6476 23.3311 12.8498C23.1277 13.1862 23.1408 13.383 23.1508 13.533C23.1575 13.6332 23.1628 13.7125 23.1013 13.7985C22.9583 13.9984 22.8997 13.8092 22.8425 13.6247C22.8382 13.6109 22.834 13.5972 22.8297 13.5837C22.7751 13.4111 23.0243 12.8878 23.1935 12.5323C23.2156 12.4858 23.2364 12.4422 23.2549 12.4026C23.4152 12.0604 23.4002 11.9409 23.3311 11.7976C23.262 11.6543 23.1982 11.3087 23.1982 11.3087Z" fill="#FFC6B5"/>
<path fill-rule="evenodd" clip-rule="evenodd" d="M23.5194 17.3698C23.5194 17.5262 23.3999 17.653 23.2524 17.653C23.105 17.653 22.9854 17.5262 22.9854 17.3698C22.9854 17.2134 23.105 17.0867 23.2524 17.0867C23.3999 17.0867 23.5194 17.2134 23.5194 17.3698ZM22.0995 17.4485C21.9797 17.549 21.8337 17.5722 21.7734 17.5003C21.7131 17.4284 21.7613 17.2887 21.8811 17.1882C22.0009 17.0877 22.1469 17.0644 22.2072 17.1363C22.2675 17.2082 22.2193 17.348 22.0995 17.4485Z" fill="#FFD018"/>
<path fill-rule="evenodd" clip-rule="evenodd" d="M22.4511 8.78478C22.4511 8.78478 22.1734 8.84116 22.266 8.98019C22.3585 9.11922 22.1454 9.08327 22.4511 9.10125C22.7568 9.11922 22.8405 9.23051 22.7986 9.31273C22.7568 9.39494 22.7239 9.5991 22.7986 9.72211C22.8733 9.84512 22.897 10.0592 23.029 9.95215C23.161 9.84512 23.4144 9.69807 23.3368 9.5054C23.2591 9.31273 23.3681 9.08859 23.1986 8.98019C23.029 8.87179 22.9911 8.93808 22.8941 8.78478C22.7971 8.63148 22.6541 8.58927 22.5526 8.68703C22.4511 8.78478 22.4511 8.78478 22.4511 8.78478Z" fill="#A95601"/>
<path fill-rule="evenodd" clip-rule="evenodd" d="M22.396 10.1777C22.396 10.1777 21.838 10.8496 21.9293 11.0864C22.0207 11.3231 22.1573 11.3356 22.089 11.6722C22.0207 12.0088 22.1305 12.5291 21.9293 13.1911C21.7281 13.8531 21.5959 15.4063 21.662 15.4063C21.7281 15.4063 21.82 16.2643 21.741 16.6492C21.662 17.0341 21.1112 17.3562 21.662 17.3562C22.2128 17.3562 22.2782 17.4325 22.4983 17.3562C22.7184 17.2799 23.0307 17.5757 23.0307 17.3562C23.0307 17.1366 23.0543 17.0917 23.222 17.0917C23.3898 17.0917 23.3813 17.0917 23.5299 17.0917C23.6784 17.0917 23.8731 17.2299 23.8731 16.9019C23.8731 16.5739 23.9094 15.8692 23.7196 15.3219C23.5299 14.7746 23.5943 15.1241 23.4082 14.3922C23.2979 13.9587 23.2128 13.7866 23.1457 13.6352C23.0996 13.531 22.9678 13.7139 22.9366 13.5508C22.9259 13.4955 23.0161 13.1708 23.017 13.1292C23.023 12.8693 23.222 12.8251 23.222 12.3781C23.222 11.8595 23.0977 11.2897 23.222 11.0046C23.3464 10.7195 23.6516 10.8909 23.5299 10.6136C23.4082 10.3363 23.3686 10.1777 23.1395 10.1777C22.9105 10.1777 22.396 10.1777 22.396 10.1777Z" fill="#F7FCFF"/>
<path d="M18.4868 18.1457L18.5802 18.0213C19.9163 19.2658 21.1514 19.8859 22.2851 19.8859C23.4198 19.8859 24.8015 19.2277 26.4272 17.9077L26.513 18.0387C24.8647 19.3771 23.4562 20.048 22.2851 20.048C21.1127 20.048 19.8468 19.4125 18.4868 18.1457Z" fill="#272727"/>
</g>
</g>
</g>
<rect x="1.75" y="1.25" width="23.5" height="17.5" stroke="black" stroke-opacity="0.1" stroke-width="0.5" shape-rendering="crispEdges"/>
</g>
<defs>
<filter id="filter0_dd_701_19293" x="0" y="0" width="27" height="21" filterUnits="userSpaceOnUse" color-interpolation-filters="sRGB">
<feFlood flood-opacity="0" result="BackgroundImageFix"/>
<feColorMatrix in="SourceAlpha" type="matrix" values="0 0 0 0 0 0 0 0 0 0 0 0 0 0 0 0 0 0 127 0" result="hardAlpha"/>
<feOffset dy="0.5"/>
<feGaussianBlur stdDeviation="0.75"/>
<feComposite in2="hardAlpha" operator="out"/>
<feColorMatrix type="matrix" values="0 0 0 0 0 0 0 0 0 0 0 0 0 0 0 0 0 0 0.1 0"/>
<feBlend mode="multiply" in2="BackgroundImageFix" result="effect1_dropShadow_701_19293"/>
<feColorMatrix in="SourceAlpha" type="matrix" values="0 0 0 0 0 0 0 0 0 0 0 0 0 0 0 0 0 0 127 0" result="hardAlpha"/>
<feOffset/>
<feGaussianBlur stdDeviation="0.5"/>
<feComposite in2="hardAlpha" operator="out"/>
<feColorMatrix type="matrix" values="0 0 0 0 0 0 0 0 0 0 0 0 0 0 0 0 0 0 0.11 0"/>
<feBlend mode="multiply" in2="effect1_dropShadow_701_19293" result="effect2_dropShadow_701_19293"/>
<feBlend mode="normal" in="SourceGraphic" in2="effect2_dropShadow_701_19293" result="shape"/>
</filter>
<clipPath id="clip0_701_19293">
<rect x="1.5" y="1" width="24" height="18" fill="white"/>
</clipPath>
</defs>
</svg>