<svg width="27" height="21" viewBox="0 0 27 21" fill="none" xmlns="http://www.w3.org/2000/svg">
<g filter="url(#filter0_dd_701_22610)">
<g clip-path="url(#clip0_701_22610)">
<mask id="mask0_701_22610" style="mask-type:alpha" maskUnits="userSpaceOnUse" x="1" y="1" width="25" height="18">
<rect x="1.5" y="1" width="24" height="18" fill="white"/>
</mask>
<g mask="url(#mask0_701_22610)">
<path fill-rule="evenodd" clip-rule="evenodd" d="M1.5 1H25.5V19H1.5V1Z" fill="#009933"/>
<path d="M1.60939 -0.0411313L-0.6 -1.86484V1V19V21.8648L1.60939 20.0411L12.5127 11.0411L13.774 10L12.5127 8.95887L1.60939 -0.0411313Z" fill="#272727" stroke="#FECA00" stroke-width="2.7"/>
<path d="M25.4141 -0.0600954L27.6 -1.78365V1V19V21.7837L25.4141 20.0601L14 11.0601L12.6555 10L14 8.9399L25.4141 -0.0600954Z" fill="#272727" stroke="#FECA00" stroke-width="2.7"/>
</g>
</g>
<rect x="1.75" y="1.25" width="23.5" height="17.5" stroke="black" stroke-opacity="0.1" stroke-width="0.5" shape-rendering="crispEdges"/>
</g>
<defs>
<filter id="filter0_dd_701_22610" x="0" y="0" width="27" height="21" filterUnits="userSpaceOnUse" color-interpolation-filters="sRGB">
<feFlood flood-opacity="0" result="BackgroundImageFix"/>
<feColorMatrix in="SourceAlpha" type="matrix" values="0 0 0 0 0 0 0 0 0 0 0 0 0 0 0 0 0 0 127 0" result="hardAlpha"/>
<feOffset dy="0.5"/>
<feGaussianBlur stdDeviation="0.75"/>
<feComposite in2="hardAlpha" operator="out"/>
<feColorMatrix type="matrix" values="0 0 0 0 0 0 0 0 0 0 0 0 0 0 0 0 0 0 0.1 0"/>
<feBlend mode="multiply" in2="BackgroundImageFix" result="effect1_dropShadow_701_22610"/>
<feColorMatrix in="SourceAlpha" type="matrix" values="0 0 0 0 0 0 0 0 0 0 0 0 0 0 0 0 0 0 127 0" result="hardAlpha"/>
<feOffset/>
<feGaussianBlur stdDeviation="0.5"/>
<feComposite in2="hardAlpha" operator="out"/>
<feColorMatrix type="matrix" values="0 0 0 0 0 0 0 0 0 0 0 0 0 0 0 0 0 0 0.11 0"/>
<feBlend mode="multiply" in2="effect1_dropShadow_701_22610" result="effect2_dropShadow_701_22610"/>
<feBlend mode="normal" in="SourceGraphic" in2="effect2_dropShadow_701_22610" result="shape"/>
</filter>
<clipPath id="clip0_701_22610">
<rect x="1.5" y="1" width="24" height="18" fill="white"/>
</clipPath>
</defs>
</svg>
