<svg viewBox="0 0 27 21" fill="none" xmlns="http://www.w3.org/2000/svg">
<g filter="url(#filter0_dd_701_20450)">
<g clip-path="url(#clip0_701_20450)">
<mask id="mask0_701_20450" style="mask-type:alpha" maskUnits="userSpaceOnUse" x="1" y="1" width="25" height="18">
<rect x="1.5" y="1" width="24" height="18" fill="white"/>
</mask>
<g mask="url(#mask0_701_20450)">
<path fill-rule="evenodd" clip-rule="evenodd" d="M1.5 1V19H25.5V1H1.5Z" fill="#2E42A5"/>
<mask id="mask1_701_20450" style="mask-type:alpha" maskUnits="userSpaceOnUse" x="1" y="1" width="25" height="18">
<path fill-rule="evenodd" clip-rule="evenodd" d="M1.5 1V19H25.5V1H1.5Z" fill="white"/>
</mask>
<g mask="url(#mask1_701_20450)">
<rect x="-2.5" y="-2" width="18" height="14" fill="#2B409A"/>
<mask id="mask2_701_20450" style="mask-type:alpha" maskUnits="userSpaceOnUse" x="-3" y="-2" width="19" height="14">
<rect x="-2.5" y="-2" width="18" height="14" fill="white"/>
</mask>
<g mask="url(#mask2_701_20450)">
<path d="M-4.50424 10.9999L-0.543292 12.7371L15.5899 -0.111217L17.6792 -2.69275L13.4435 -3.27337L6.8632 2.26332L1.5667 5.99375L-4.50424 10.9999Z" fill="#F7FCFF"/>
<path d="M-3.96198 12.217L-1.94405 13.2251L16.929 -2.93262H14.0956L-3.96198 12.217Z" fill="#F50100"/>
<path d="M17.5043 10.9999L13.5433 12.7371L-2.58987 -0.111217L-4.67919 -2.69275L-0.443518 -3.27337L6.13683 2.26332L11.4333 5.99375L17.5043 10.9999Z" fill="#F7FCFF"/>
<path d="M17.3691 11.8732L15.3512 12.8813L7.31486 5.96339L4.93226 5.19046L-4.88023 -2.68407H-2.04684L7.76015 5.00356L10.3651 5.93038L17.3691 11.8732Z" fill="#F50100"/>
<mask id="path-12-outside-1_701_20450" maskUnits="userSpaceOnUse" x="-4.5" y="-4" width="22" height="18" fill="black">
<rect fill="white" x="-4.5" y="-4" width="22" height="18"/>
<path fill-rule="evenodd" clip-rule="evenodd" d="M7.48451 -2H5.48451V4H-2.5V6H5.48451V12H7.48451V6H15.5V4H7.48451V-2Z"/>
</mask>
<path fill-rule="evenodd" clip-rule="evenodd" d="M7.48451 -2H5.48451V4H-2.5V6H5.48451V12H7.48451V6H15.5V4H7.48451V-2Z" fill="#F50100"/>
<path d="M5.48451 -2V-3.5H3.98451V-2H5.48451ZM7.48451 -2H8.98451V-3.5H7.48451V-2ZM5.48451 4V5.5H6.98451V4H5.48451ZM-2.5 4V2.5H-4V4H-2.5ZM-2.5 6H-4V7.5H-2.5V6ZM5.48451 6H6.98451V4.5H5.48451V6ZM5.48451 12H3.98451V13.5H5.48451V12ZM7.48451 12V13.5H8.98451V12H7.48451ZM7.48451 6V4.5H5.98451V6H7.48451ZM15.5 6V7.5H17V6H15.5ZM15.5 4H17V2.5H15.5V4ZM7.48451 4H5.98451V5.5H7.48451V4ZM5.48451 -0.5H7.48451V-3.5H5.48451V-0.5ZM6.98451 4V-2H3.98451V4H6.98451ZM-2.5 5.5H5.48451V2.5H-2.5V5.5ZM-1 6V4H-4V6H-1ZM5.48451 4.5H-2.5V7.5H5.48451V4.5ZM6.98451 12V6H3.98451V12H6.98451ZM7.48451 10.5H5.48451V13.5H7.48451V10.5ZM5.98451 6V12H8.98451V6H5.98451ZM15.5 4.5H7.48451V7.5H15.5V4.5ZM14 4V6H17V4H14ZM7.48451 5.5H15.5V2.5H7.48451V5.5ZM5.98451 -2V4H8.98451V-2H5.98451Z" fill="#F7FCFF" mask="url(#path-12-outside-1_701_20450)"/>
</g>
<path d="M19.538 7.78271H19.288V8.03271C19.288 8.46586 19.286 8.89022 19.2841 9.30443C19.2795 10.2917 19.2752 11.2214 19.2984 12.0748C19.3315 13.2865 19.4204 14.3664 19.6494 15.2675C19.8787 16.17 20.2541 16.9153 20.8765 17.4324C21.5011 17.9513 22.3425 18.214 23.4502 18.214C24.5707 18.214 25.4351 17.8867 26.0845 17.2954C26.7287 16.7088 27.1387 15.8831 27.3952 14.9252C27.9061 13.0179 27.8309 10.4946 27.6896 8.01848L27.6762 7.78271H27.44H19.538Z" fill="#B7E1FF" stroke="#F7FCFF" stroke-width="0.5"/>
<mask id="mask3_701_20450" style="mask-type:alpha" maskUnits="userSpaceOnUse" x="19" y="7" width="10" height="12">
<path d="M19.538 7.78271H19.288V8.03271C19.288 8.46586 19.286 8.89022 19.2841 9.30443C19.2795 10.2917 19.2752 11.2214 19.2984 12.0748C19.3315 13.2865 19.4204 14.3664 19.6494 15.2675C19.8787 16.17 20.2541 16.9153 20.8765 17.4324C21.5011 17.9513 22.3425 18.214 23.4502 18.214C24.5707 18.214 25.4351 17.8867 26.0845 17.2954C26.7287 16.7088 27.1387 15.8831 27.3952 14.9252C27.9061 13.0179 27.8309 10.4946 27.6896 8.01848L27.6762 7.78271H27.44H19.538Z" fill="white" stroke="white" stroke-width="0.5"/>
</mask>
<g mask="url(#mask3_701_20450)">
<rect x="21.5" y="16" width="6" height="2" fill="#2E42A5"/>
<g filter="url(#filter1_d_701_20450)">
<rect x="17.5" y="6" width="12" height="6" fill="#FDFF00"/>
</g>
<path d="M22.6792 8.87655C22.6715 8.80142 22.6596 8.70424 22.6283 8.60204L23.1007 10.0696C23.0569 10.0262 23.0104 9.9869 22.9763 9.95832C22.9697 9.95279 22.9634 9.94752 22.9574 9.94245C22.9278 9.91765 22.9039 9.89766 22.8793 9.87557C22.7783 9.78497 22.7289 9.71715 22.7213 9.58849C22.7153 9.48653 22.7104 9.38845 22.7059 9.29675C22.6977 9.13085 22.6905 8.98584 22.6792 8.87655ZM22.3054 11.4585C22.3054 11.4585 22.3055 11.4585 22.3055 11.4585L22.3936 11.5294L22.3936 11.5294L22.3054 11.4585Z" fill="#F7FCFF" stroke="#272727"/>
<path d="M22.3263 12.0442H22.5263V15.9994H22.3263V12.0442Z" fill="#FDFF00"/>
<path fill-rule="evenodd" clip-rule="evenodd" d="M21.6003 14.8125H23.3831C23.3831 14.8125 23.4003 15.3269 23.1297 15.2318C22.859 15.1366 23.1568 15.3269 22.745 15.2318C22.3333 15.1366 21.9704 15.5305 21.8781 15.3335C21.7858 15.1366 21.4276 15.3895 21.5139 15.101C21.6003 14.8125 21.6003 14.8125 21.6003 14.8125Z" fill="#F7FCFF"/>
<rect x="21.6333" y="14.7639" width="1.73333" height="0.2" fill="#212123"/>
<path fill-rule="evenodd" clip-rule="evenodd" d="M21.8469 14.0654H23.2731C23.2731 14.0654 23.2869 14.477 23.0704 14.4008C22.8539 14.3247 23.0921 14.477 22.7627 14.4008C22.4333 14.3247 22.143 14.6398 22.0691 14.4822C21.9953 14.3247 21.7087 14.527 21.7778 14.2962C21.8469 14.0654 21.8469 14.0654 21.8469 14.0654Z" fill="#F7FCFF"/>
<rect x="21.8733" y="14.0266" width="1.38667" height="0.2" fill="#212123"/>
<path fill-rule="evenodd" clip-rule="evenodd" d="M21.5869 13.2449H23.132C23.132 13.2449 23.1469 13.6564 22.9124 13.5803C22.6778 13.5041 22.9359 13.6564 22.579 13.5803C22.2222 13.5041 21.9077 13.8192 21.8277 13.6617C21.7476 13.5041 21.4372 13.7064 21.5121 13.4757C21.5869 13.2449 21.5869 13.2449 21.5869 13.2449Z" fill="#F7FCFF"/>
<rect x="21.6155" y="13.2061" width="1.50222" height="0.2" fill="#212123"/>
<path fill-rule="evenodd" clip-rule="evenodd" d="M21.7136 12.5562H23.1398C23.1398 12.5562 23.1536 13.0706 22.9371 12.9754C22.7205 12.8802 22.9588 13.0706 22.6294 12.9754C22.2999 12.8802 22.0097 13.2741 21.9358 13.0772C21.8619 12.8802 21.5754 13.1331 21.6445 12.8446C21.7136 12.5562 21.7136 12.5562 21.7136 12.5562Z" fill="#F7FCFF"/>
<rect x="21.74" y="12.5076" width="1.38667" height="0.2" fill="#212123"/>
<path d="M24.2424 12.5442H24.4424V16.4994H24.2424V12.5442Z" fill="#FDFF00"/>
<path fill-rule="evenodd" clip-rule="evenodd" d="M23.6003 14.9758H25.3831C25.3831 14.9758 25.4003 15.3874 25.1297 15.3112C24.859 15.2351 25.1568 15.3874 24.745 15.3112C24.3333 15.2351 23.9704 15.5502 23.8781 15.3926C23.7858 15.2351 23.4276 15.4374 23.5139 15.2066C23.6003 14.9758 23.6003 14.9758 23.6003 14.9758Z" fill="#F7FCFF"/>
<rect x="23.6333" y="14.937" width="1.73333" height="0.2" fill="#212123"/>
<path fill-rule="evenodd" clip-rule="evenodd" d="M23.8645 14.2305H25.2653C25.2653 14.2305 25.2788 14.5391 25.0662 14.482C24.8535 14.4249 25.0875 14.5391 24.764 14.482C24.4404 14.4249 24.1553 14.6612 24.0828 14.5431C24.0102 14.4249 23.7288 14.5766 23.7967 14.4036C23.8645 14.2305 23.8645 14.2305 23.8645 14.2305Z" fill="#F7FCFF"/>
<rect x="23.8905" y="14.2007" width="1.3619" height="0.2" fill="#212123"/>
<path fill-rule="evenodd" clip-rule="evenodd" d="M23.586 13.4099H25.1141C25.1141 13.4099 25.1288 13.7186 24.8968 13.6615C24.6649 13.6044 24.9201 13.7186 24.5672 13.6615C24.2142 13.6044 23.9032 13.8407 23.8241 13.7225C23.7449 13.6044 23.4379 13.7561 23.5119 13.583C23.586 13.4099 23.586 13.4099 23.586 13.4099Z" fill="#F7FCFF"/>
<rect x="23.6143" y="13.3801" width="1.48571" height="0.2" fill="#212123"/>
<path fill-rule="evenodd" clip-rule="evenodd" d="M23.7217 12.7192H25.1224C25.1224 12.7192 25.136 13.1308 24.9233 13.0546C24.7107 12.9785 24.9447 13.1308 24.6211 13.0546C24.2976 12.9785 24.0125 13.2936 23.9399 13.1361C23.8674 12.9785 23.5859 13.1808 23.6538 12.95C23.7217 12.7192 23.7217 12.7192 23.7217 12.7192Z" fill="#F7FCFF"/>
<rect x="23.7476" y="12.6804" width="1.3619" height="0.2" fill="#212123"/>
<path fill-rule="evenodd" clip-rule="evenodd" d="M21.6851 15.6867C21.6851 15.6867 22.6107 16.1897 24.022 16.103C25.4333 16.0164 25.332 16.2888 25.698 15.9012C26.0641 15.5137 26.0962 15.6001 26.5528 15.3966C27.0094 15.1932 27.0749 15.0013 27.3103 15.0013C27.5457 15.0013 30.0524 14.9006 30.0524 14.9006C30.0524 14.9006 29.823 15.1066 29.823 15.3966C29.823 15.6867 29.9759 15.7164 29.823 15.9794C29.6701 16.2425 29.4973 16.5942 29.2754 16.6962C29.0534 16.7983 26.0574 16.8628 25.2935 16.8628C24.5295 16.8628 22.9604 16.9479 22.7799 16.8628C22.5993 16.7778 21.6851 15.6867 21.6851 15.6867Z" fill="#272727"/>
<path fill-rule="evenodd" clip-rule="evenodd" d="M19.6176 13.6863L20.5109 12.8635C20.5109 12.8635 20.5499 12.8635 20.7159 13.2749C20.8818 13.6863 20.8897 14.249 21.0624 14.1085C21.2351 13.9679 21.5008 14.0977 21.6127 13.6863C21.7246 13.2749 21.7175 12.7422 21.8598 13.0086C22.0021 13.2749 21.9176 12.8855 22.1446 13.497C22.3717 14.1085 22.4616 13.2343 22.5865 14.1085C22.7113 14.9826 22.817 15.2843 22.817 15.4876C22.817 15.691 23.9542 16.2968 23.518 16.7141C23.0818 17.1313 23.2053 16.9347 22.817 17.1971C22.4287 17.4595 22.0309 17.3069 22.5865 17.513C23.142 17.7191 23.0625 18.0927 23.0625 18.3682C23.0625 18.6436 23.0283 18.7671 22.5865 18.7053C22.1446 18.6436 21.6073 18.8635 21.5 18.8635C21.3927 18.8635 20.0974 18.5996 20.0974 18.0563C20.0974 17.513 19.6176 13.6863 19.6176 13.6863Z" fill="#CE6201"/>
</g>
</g>
</g>
</g>
<rect x="1.75" y="1.25" width="23.5" height="17.5" stroke="black" stroke-opacity="0.1" stroke-width="0.5" shape-rendering="crispEdges"/>
</g>
<defs>
<filter id="filter0_dd_701_20450" x="0" y="0" width="27" height="21" filterUnits="userSpaceOnUse" color-interpolation-filters="sRGB">
<feFlood flood-opacity="0" result="BackgroundImageFix"/>
<feColorMatrix in="SourceAlpha" type="matrix" values="0 0 0 0 0 0 0 0 0 0 0 0 0 0 0 0 0 0 127 0" result="hardAlpha"/>
<feOffset dy="0.5"/>
<feGaussianBlur stdDeviation="0.75"/>
<feComposite in2="hardAlpha" operator="out"/>
<feColorMatrix type="matrix" values="0 0 0 0 0 0 0 0 0 0 0 0 0 0 0 0 0 0 0.1 0"/>
<feBlend mode="multiply" in2="BackgroundImageFix" result="effect1_dropShadow_701_20450"/>
<feColorMatrix in="SourceAlpha" type="matrix" values="0 0 0 0 0 0 0 0 0 0 0 0 0 0 0 0 0 0 127 0" result="hardAlpha"/>
<feOffset/>
<feGaussianBlur stdDeviation="0.5"/>
<feComposite in2="hardAlpha" operator="out"/>
<feColorMatrix type="matrix" values="0 0 0 0 0 0 0 0 0 0 0 0 0 0 0 0 0 0 0.11 0"/>
<feBlend mode="multiply" in2="effect1_dropShadow_701_20450" result="effect2_dropShadow_701_20450"/>
<feBlend mode="normal" in="SourceGraphic" in2="effect2_dropShadow_701_20450" result="shape"/>
</filter>
<filter id="filter1_d_701_20450" x="17.5" y="6" width="12" height="7" filterUnits="userSpaceOnUse" color-interpolation-filters="sRGB">
<feFlood flood-opacity="0" result="BackgroundImageFix"/>
<feColorMatrix in="SourceAlpha" type="matrix" values="0 0 0 0 0 0 0 0 0 0 0 0 0 0 0 0 0 0 127 0" result="hardAlpha"/>
<feOffset dy="1"/>
<feColorMatrix type="matrix" values="0 0 0 0 0 0 0 0 0 0 0 0 0 0 0 0 0 0 0.5 0"/>
<feBlend mode="normal" in2="BackgroundImageFix" result="effect1_dropShadow_701_20450"/>
<feBlend mode="normal" in="SourceGraphic" in2="effect1_dropShadow_701_20450" result="shape"/>
</filter>
<clipPath id="clip0_701_20450">
<rect x="1.5" y="1" width="24" height="18" fill="white"/>
</clipPath>
</defs>
</svg>