<svg viewBox="0 0 27 21" fill="none" xmlns="http://www.w3.org/2000/svg">
<g filter="url(#filter0_dd_701_21552)">
<g clip-path="url(#clip0_701_21552)">
<mask id="mask0_701_21552" style="mask-type:alpha" maskUnits="userSpaceOnUse" x="1" y="1" width="25" height="18">
<rect x="1.5" y="1" width="24" height="18" fill="white"/>
</mask>
<g mask="url(#mask0_701_21552)">
<path fill-rule="evenodd" clip-rule="evenodd" d="M18 1H25.5V19H18V1Z" fill="#D9071E"/>
<path fill-rule="evenodd" clip-rule="evenodd" d="M1.5 1H10.5V19H1.5V1Z" fill="#006923"/>
<path fill-rule="evenodd" clip-rule="evenodd" d="M9 1H18V19H9V1Z" fill="white"/>
<path fill-rule="evenodd" clip-rule="evenodd" d="M11.2917 7.25636C11.2119 7.59773 11.2638 7.6783 11.6493 7.6783C11.6693 7.6783 11.701 7.73488 11.7356 7.79643C11.7735 7.86394 11.8147 7.93743 11.8476 7.94879C11.8335 7.96741 11.687 8.23227 11.6863 8.69879C11.6861 8.79486 11.7308 8.95317 11.7737 9.10522C11.8204 9.2706 11.865 9.42859 11.8476 9.49102C11.8191 9.59265 11.6917 9.4819 11.593 9.39608C11.5366 9.347 11.4895 9.30608 11.4757 9.3177C11.4052 9.37701 11.3688 8.9074 11.3468 8.62366C11.337 8.49732 11.3301 8.40783 11.3242 8.41828C11.2996 8.36402 11.2896 8.29735 11.2796 8.23148C11.2581 8.08825 11.237 7.94879 11.068 7.94879H10.633V8.26911C10.633 8.26911 10.8847 8.26911 10.8847 8.86504C10.8888 8.95411 11.0063 9.73772 11.2917 9.74176C11.1244 9.74554 11.1257 9.77891 11.1264 9.79843L11.1265 9.80194C11.1265 10.2813 11.5272 10.3331 11.9016 10.1978C12.1267 10.1165 12.3656 9.95772 12.5445 9.76199C12.7969 9.48582 12.8281 9.12821 12.4966 8.93213C12.3786 8.86232 12.2505 8.83537 12.0714 8.82539C12.1069 8.7203 12.0733 8.62641 12.0472 8.55317C12.0253 8.49193 12.0086 8.44512 12.0417 8.41828C12.4171 8.11377 12.4506 7.8331 12.1774 7.58134C12.142 7.54868 12.1076 7.50441 12.0723 7.45883C12.0058 7.37291 11.9356 7.28238 11.8476 7.25636C11.8883 7.17422 11.9431 7.0747 12.012 6.96005L11.369 6.57397C11.2524 6.76812 11.2719 6.91997 11.2889 7.05232C11.2982 7.12495 11.3068 7.19171 11.2917 7.25636ZM11.9909 9.25596L11.9792 9.26846L11.9872 9.26128C11.9884 9.25914 11.9896 9.25736 11.9909 9.25596ZM11.6506 9.49102C11.6505 9.49109 11.6509 9.49099 11.6517 9.49081L11.6506 9.49102ZM11.2917 9.74176C11.2941 9.74171 11.2965 9.74166 11.299 9.74162L11.2917 9.74176ZM11.3242 9.74141C11.3154 9.74141 11.307 9.74148 11.299 9.74162L11.3128 9.74134L11.3242 9.74141Z" fill="#A8AC71"/>
<path fill-rule="evenodd" clip-rule="evenodd" d="M12.2881 6.93506C12.2881 6.93506 11.773 7.33455 11.8693 7.76046C11.9656 8.18637 12.9808 7.76046 12.858 7.34776C12.7353 6.93506 12.2881 6.93506 12.2881 6.93506Z" fill="#FCCA3D"/>
<path fill-rule="evenodd" clip-rule="evenodd" d="M15.9498 10.3021C15.9498 10.3021 16.6436 8.24613 15.5408 7.18185C14.438 6.11758 13.1637 6.18879 13.1637 6.18879C13.1637 6.18879 12.7967 6.46145 13.1637 6.66939C13.5307 6.87734 13.3769 7.07672 13.3769 7.07672C13.3769 7.07672 12.7623 6.45269 12.3543 6.81727C11.9464 7.18185 12.7352 7.12637 12.6517 7.40088C12.5682 7.6754 12.2144 8.89419 12.7314 9.50952C13.2483 10.1249 12.2426 9.99132 12.4471 9.99132C12.6517 9.99132 13.3769 10.1345 13.3769 9.99132C13.3769 9.84809 13.629 10.5482 13.8448 10.5482C14.0606 10.5482 14.2271 10.3021 14.2271 10.3021C14.2271 10.3021 14.5296 10.5482 14.7139 10.5482C14.8981 10.5482 15.5408 10.3872 15.5408 10.3872L14.3262 9.36377C14.3262 9.36377 14.3994 8.91237 14.2271 8.81467C14.0548 8.71697 15.6084 9.6805 15.7301 9.99132C15.8518 10.3021 15.9498 10.3021 15.9498 10.3021Z" fill="#8F4620"/>
<path d="M9.79984 9.79493C9.79984 9.79493 9.91245 9.43602 10.033 9.4111C10.1375 9.38951 10.3571 9.5831 10.3571 9.5831C10.7473 11.7505 11.6907 12.597 13.2562 12.597C14.84 12.597 15.8 11.9538 16.3602 9.95484C16.3602 9.95484 16.658 9.65071 16.763 9.68452C16.8774 9.72132 17.0208 10.1237 17.0208 10.1237C16.3781 12.4169 15.1639 13.4379 13.2562 13.4379C11.33 13.4379 10.2478 12.2836 9.79984 9.79493Z" fill="#9FAB2F"/>
<path fill-rule="evenodd" clip-rule="evenodd" d="M11.5007 11.2422C11.5007 11.2422 13.7539 11.7202 14.6433 11.7202C15.5327 11.7202 13.863 12.446 13.2115 12.446C12.9265 12.446 12.583 12.2733 12.1809 11.9277C12.1089 11.8658 12.1787 11.7272 11.9592 11.7254C11.6531 11.7227 11.2729 11.6509 11.3092 11.6072C11.3438 11.5655 11.7892 11.553 11.7462 11.5075C11.6754 11.4325 11.5007 11.2422 11.5007 11.2422Z" fill="#2FC2DC"/>
<rect x="12.5" y="11.575" width="1.5" height="0.803571" rx="0.166667" fill="#F9AA51"/>
<path d="M10.6316 10.1019C10.6316 10.1019 10.6316 9.82056 10.8221 9.67111C11.0405 9.49979 11.2456 9.67111 11.2456 9.67111C12.0447 10.8101 13.2396 11.1848 14.911 10.7937C14.911 10.7937 15.4107 10.957 15.4358 11.0643C15.4676 11.2004 15.0818 11.524 15.0818 11.524C13.1281 11.9811 11.6179 11.5076 10.6316 10.1019Z" fill="#259485"/>
<path fill-rule="evenodd" clip-rule="evenodd" d="M13.9435 10.2627C13.9435 10.2627 13.0332 10.7419 13.3367 10.7419C13.6401 10.7419 14.8275 10.9814 14.5965 10.7419C14.3654 10.5023 13.9435 10.2627 13.9435 10.2627Z" fill="#FCCA3D"/>
<path fill-rule="evenodd" clip-rule="evenodd" d="M12.8673 9.69119C12.8673 9.69119 12.6943 9.19165 12.3344 9.19165C11.9745 9.19165 12.0761 9.60143 11.903 9.60143C11.7299 9.60143 12.0643 9.8898 12.2133 9.8898C12.3623 9.8898 12.8673 9.69119 12.8673 9.69119Z" fill="#FCCA3D"/>
</g>
</g>
<rect x="1.75" y="1.25" width="23.5" height="17.5" stroke="black" stroke-opacity="0.1" stroke-width="0.5" shape-rendering="crispEdges"/>
</g>
<defs>
<filter id="filter0_dd_701_21552" x="0" y="0" width="27" height="21" filterUnits="userSpaceOnUse" color-interpolation-filters="sRGB">
<feFlood flood-opacity="0" result="BackgroundImageFix"/>
<feColorMatrix in="SourceAlpha" type="matrix" values="0 0 0 0 0 0 0 0 0 0 0 0 0 0 0 0 0 0 127 0" result="hardAlpha"/>
<feOffset dy="0.5"/>
<feGaussianBlur stdDeviation="0.75"/>
<feComposite in2="hardAlpha" operator="out"/>
<feColorMatrix type="matrix" values="0 0 0 0 0 0 0 0 0 0 0 0 0 0 0 0 0 0 0.1 0"/>
<feBlend mode="multiply" in2="BackgroundImageFix" result="effect1_dropShadow_701_21552"/>
<feColorMatrix in="SourceAlpha" type="matrix" values="0 0 0 0 0 0 0 0 0 0 0 0 0 0 0 0 0 0 127 0" result="hardAlpha"/>
<feOffset/>
<feGaussianBlur stdDeviation="0.5"/>
<feComposite in2="hardAlpha" operator="out"/>
<feColorMatrix type="matrix" values="0 0 0 0 0 0 0 0 0 0 0 0 0 0 0 0 0 0 0.11 0"/>
<feBlend mode="multiply" in2="effect1_dropShadow_701_21552" result="effect2_dropShadow_701_21552"/>
<feBlend mode="normal" in="SourceGraphic" in2="effect2_dropShadow_701_21552" result="shape"/>
</filter>
<clipPath id="clip0_701_21552">
<rect x="1.5" y="1" width="24" height="18" fill="white"/>
</clipPath>
</defs>
</svg>