<svg width="27" height="21" viewBox="0 0 27 21" fill="none" xmlns="http://www.w3.org/2000/svg">
<g filter="url(#filter0_dd_701_19426)">
<g clip-path="url(#clip0_701_19426)">
<mask id="mask0_701_19426" style="mask-type:alpha" maskUnits="userSpaceOnUse" x="1" y="1" width="25" height="18">
<rect x="1.5" y="1" width="24" height="18" fill="white"/>
</mask>
<g mask="url(#mask0_701_19426)">
<path fill-rule="evenodd" clip-rule="evenodd" d="M1.5 1H25.5V19H1.5V1Z" fill="#F7FCFF"/>
<path fill-rule="evenodd" clip-rule="evenodd" d="M1.5 1H12V19H1.5V1Z" fill="#FFDC17"/>
<path d="M18.5862 10.5635L18.3274 10.5803C18.3892 11.4697 18.5803 12.1566 18.9045 12.6414C19.4274 13.4233 20.1174 14.0278 20.5792 14.0278C20.6841 14.0278 20.7085 14.0667 20.6739 14.1629C20.6247 14.2996 20.4691 14.4341 20.269 14.4857C19.9362 14.5715 19.1792 14.6159 18.0109 14.6159V14.8671C19.2026 14.8671 19.9733 14.8219 20.3358 14.7284C20.6174 14.6558 20.8408 14.4626 20.9189 14.2455C21.0092 13.9943 20.8729 13.7766 20.5792 13.7766C20.2362 13.7766 19.6 13.2193 19.1223 12.505C18.8254 12.061 18.6454 11.4138 18.5862 10.5635Z" fill="#AF0100"/>
<path d="M17.3602 10.5635L17.6191 10.5803C17.5573 11.4697 17.3662 12.1566 17.042 12.6414C16.5191 13.4233 15.829 14.0278 15.3673 14.0278C15.2624 14.0278 15.238 14.0667 15.2726 14.1629C15.3218 14.2996 15.4773 14.4341 15.6775 14.4857C16.0103 14.5715 16.7673 14.6159 17.9355 14.6159V14.8671C16.7439 14.8671 15.9732 14.8219 15.6107 14.7284C15.3291 14.6558 15.1057 14.4626 15.0276 14.2455C14.9372 13.9943 15.0736 13.7766 15.3673 13.7766C15.7102 13.7766 16.3464 13.2193 16.8242 12.505C17.1211 12.061 17.3011 11.4138 17.3602 10.5635Z" fill="#AF0100"/>
<path fill-rule="evenodd" clip-rule="evenodd" d="M22.5502 6.09863L15.6941 11.4431C15.454 11.3649 15.1919 11.3221 14.9189 11.3221C13.8066 11.3221 12.8757 12.0326 12.8757 12.9547C12.8757 13.8767 13.8066 14.5872 14.9189 14.5872C15.0465 14.5872 15.1717 14.5779 15.2934 14.56C15.1808 14.4721 15.0968 14.3622 15.0547 14.2454C15.0042 14.1048 15.0246 13.9748 15.1039 13.8874C15.0436 13.8934 14.9819 13.8965 14.9189 13.8965C14.1684 13.8965 13.5892 13.4544 13.5892 12.9547C13.5892 12.4549 14.1684 12.0128 14.9189 12.0128C15.6694 12.0128 16.2487 12.4549 16.2487 12.9547C16.2487 13.1076 16.1945 13.2551 16.0977 13.3862C16.1159 13.3699 16.1342 13.3533 16.1525 13.3362C16.3901 13.115 15.8562 14.0277 15.3945 14.0277C15.2896 14.0277 15.2652 14.0666 15.2998 14.1628C15.3458 14.2909 15.4852 14.417 15.6672 14.4748C16.4192 14.2397 16.9622 13.6589 16.9622 12.9547C16.9622 12.6666 16.8713 12.3992 16.7125 12.1677L20.3971 9.04048L20.6438 9.29529L20.8213 9.13428L21.4368 9.59042L21.1794 9.78882L21.7047 10.4274L22.7645 9.61036L22.7825 9.60108L22.7793 9.59892L22.845 9.54829L22.3197 8.90975L22.0657 9.10555L21.3775 8.62976L21.4582 8.5566L21.2368 8.32785L21.5697 8.04527L21.7465 8.22785L21.9362 8.05574L22.5329 8.52804L22.2821 8.72138L22.8074 9.35991L23.7153 8.66005L23.8193 8.60312L23.8041 8.59154L23.9477 8.48084L23.4224 7.84231L23.1257 8.07105L22.4722 7.56964L22.5609 7.48916L22.4094 7.33263L23.0878 6.75691L22.5502 6.09863Z" fill="#F4B300"/>
<path fill-rule="evenodd" clip-rule="evenodd" d="M13.2649 12.0441C13.4619 12.0441 13.6217 11.9176 13.6217 11.7616C13.6217 11.6055 13.4619 11.479 13.2649 11.479C13.0679 11.479 12.9081 11.6055 12.9081 11.7616C12.9081 11.9176 13.0679 12.0441 13.2649 12.0441ZM13.3946 14.6185C13.5917 14.6185 13.7514 14.492 13.7514 14.336C13.7514 14.1799 13.5917 14.0534 13.3946 14.0534C13.1976 14.0534 13.0379 14.1799 13.0379 14.336C13.0379 14.492 13.1976 14.6185 13.3946 14.6185ZM16.9298 14.336C16.9298 14.492 16.77 14.6185 16.573 14.6185C16.376 14.6185 16.2163 14.492 16.2163 14.336C16.2163 14.1799 16.376 14.0534 16.573 14.0534C16.77 14.0534 16.9298 14.1799 16.9298 14.336Z" fill="#BFBFBF"/>
<path fill-rule="evenodd" clip-rule="evenodd" d="M19.0378 12.9546C19.0378 12.5402 19.2259 12.1685 19.534 11.8849L15.5968 8.83584L15.5519 8.87041L15.6667 8.9745L15.3563 9.29525L15.1928 9.14699L14.5901 9.61112L14.8206 9.78878L14.2953 10.4273L13.2468 9.61904L13.2176 9.60104L13.2207 9.59888L13.155 9.54825L13.6803 8.90971L13.9343 9.10552L14.6225 8.62972L14.5418 8.55656L14.8393 8.24921L14.4927 7.98076L14.2536 8.22781L14.0709 8.06215L13.4819 8.53939L13.7179 8.72134L13.1926 9.35987L12.3136 8.68227L12.1808 8.60308L12.1959 8.5915L12.0523 8.4808L12.5776 7.84227L12.8743 8.07101L13.5279 7.5696L13.4391 7.48912L13.6185 7.30379L12.9123 6.75687L13.358 6.21753L20.1693 11.4924C20.4451 11.383 20.7553 11.3221 21.0811 11.3221C22.1934 11.3221 23.1243 12.0326 23.1243 12.9546C23.1243 13.8767 22.1934 14.5872 21.0811 14.5872C20.9535 14.5872 20.8283 14.5779 20.7067 14.5599C20.8192 14.472 20.9033 14.3622 20.9453 14.2453C20.9958 14.1048 20.9754 13.9747 20.8961 13.8874C20.9564 13.8934 21.0181 13.8965 21.0811 13.8965C21.8316 13.8965 22.4108 13.4544 22.4108 12.9546C22.4108 12.4549 21.8316 12.0128 21.0811 12.0128C20.3306 12.0128 19.7514 12.4549 19.7514 12.9546C19.7514 13.1075 19.8056 13.255 19.9023 13.3861C19.8841 13.3699 19.8658 13.3532 19.8475 13.3362C19.6099 13.1149 20.1438 14.0276 20.6056 14.0276C20.7105 14.0276 20.7349 14.0666 20.7003 14.1628C20.6542 14.2908 20.5148 14.4169 20.3329 14.4748C19.5808 14.2396 19.0378 13.6588 19.0378 12.9546Z" fill="#BFBFBF"/>
<path fill-rule="evenodd" clip-rule="evenodd" d="M22.7351 12.0441C22.5381 12.0441 22.3784 11.9176 22.3784 11.7616C22.3784 11.6055 22.5381 11.479 22.7351 11.479C22.9322 11.479 23.0919 11.6055 23.0919 11.7616C23.0919 11.9176 22.9322 12.0441 22.7351 12.0441ZM22.6054 14.6185C22.4084 14.6185 22.2486 14.492 22.2486 14.336C22.2486 14.1799 22.4084 14.0534 22.6054 14.0534C22.8024 14.0534 22.9622 14.1799 22.9622 14.336C22.9622 14.492 22.8024 14.6185 22.6054 14.6185ZM19.0703 14.336C19.0703 14.492 19.23 14.6185 19.427 14.6185C19.6241 14.6185 19.7838 14.492 19.7838 14.336C19.7838 14.1799 19.6241 14.0534 19.427 14.0534C19.23 14.0534 19.0703 14.1799 19.0703 14.336Z" fill="#F4B300"/>
<path fill-rule="evenodd" clip-rule="evenodd" d="M17.8378 9.84644C17.7662 9.84644 17.7081 9.90452 17.7081 9.97617V10.3488H17.3482C17.2962 10.3488 17.2541 10.3909 17.2541 10.4429C17.2541 10.495 17.2962 10.5371 17.3482 10.5371H17.7081V15.8702C17.7081 15.9418 17.7662 15.9999 17.8378 15.9999H17.9676C18.0392 15.9999 18.0973 15.9418 18.0973 15.8702V10.5371H18.6518C18.7038 10.5371 18.746 10.495 18.746 10.4429C18.746 10.3909 18.7038 10.3488 18.6518 10.3488H18.0973V9.97617C18.0973 9.90452 18.0392 9.84644 17.9676 9.84644H17.8378Z" fill="#AF0100"/>
<path fill-rule="evenodd" clip-rule="evenodd" d="M14.0659 6.69536L14.2247 6.8043C14.5947 6.29907 14.9276 6.19759 15.2663 6.46275C15.851 6.92054 15.9016 8.03745 15.2763 8.41141C14.5306 8.85741 14.1526 9.72719 14.4833 10.2006C14.7884 10.6374 15.524 10.4721 16.2503 9.92342C16.3792 9.82602 16.5021 9.72202 16.6176 9.61275L16.4642 9.49431C16.359 9.59272 16.2474 9.68664 16.1306 9.77492C15.4828 10.2643 14.8604 10.4041 14.6445 10.095C14.3867 9.72604 14.7162 8.96782 15.3786 8.57167C16.1279 8.12355 16.0701 6.84986 15.3887 6.31629C14.9491 5.97214 14.494 6.11086 14.0659 6.69536ZM16.9219 8.98381L17.0802 9.09361C17.3556 8.72195 17.5437 8.31944 17.6062 7.923L17.4138 7.89461C17.3563 8.25972 17.1804 8.63498 16.9219 8.98381Z" fill="#979797"/>
<path fill-rule="evenodd" clip-rule="evenodd" d="M21.9521 6.69536L21.7934 6.8043C21.4234 6.29907 21.0904 6.19759 20.7518 6.46275C20.1671 6.92054 20.1164 8.03745 20.7417 8.41141C21.4875 8.85741 21.8654 9.72719 21.5348 10.2006C21.2296 10.6374 20.494 10.4721 19.7678 9.92342C19.6388 9.82602 19.5159 9.72202 19.4004 9.61276L19.5538 9.49432C19.659 9.59272 19.7706 9.68664 19.8875 9.77492C20.5353 10.2643 21.1576 10.4041 21.3736 10.095C21.6313 9.72604 21.3018 8.96782 20.6394 8.57167C19.8901 8.12355 19.9479 6.84986 20.6294 6.31629C21.0689 5.97214 21.5241 6.11086 21.9521 6.69536ZM19.0962 8.98381L18.9379 9.09361C18.6624 8.72195 18.4743 8.31944 18.4118 7.923L18.6042 7.89461C18.6617 8.25972 18.8377 8.63498 19.0962 8.98381Z" fill="#979797"/>
<path fill-rule="evenodd" clip-rule="evenodd" d="M17.9027 16.0125C18.1177 16.0125 18.2919 15.9254 18.2919 15.8179C18.2919 15.7104 18.1177 15.6233 17.9027 15.6233C17.6878 15.6233 17.5135 15.7104 17.5135 15.8179C17.5135 15.9254 17.6878 16.0125 17.9027 16.0125Z" fill="#AF0100"/>
<path fill-rule="evenodd" clip-rule="evenodd" d="M17.8378 7.9145C18.5901 7.9145 19.2 7.81286 19.2 7.68748C19.2 7.56209 18.5901 7.46045 17.8378 7.46045C17.0855 7.46045 16.4757 7.56209 16.4757 7.68748C16.4757 7.81286 17.0855 7.9145 17.8378 7.9145Z" fill="#AF0100"/>
<path fill-rule="evenodd" clip-rule="evenodd" d="M17.9145 2.52881H17.72V2.75315H17.5357V2.94153H17.72V3.49127H17.9145V2.94153H18.1391V2.75315H17.9145V2.52881ZM16.4513 5.24255L16.3644 5.09623C16.412 5.07628 16.4606 5.05745 16.5101 5.03975L16.257 4.48458L16.435 4.4085L16.6956 4.98004C16.7509 4.96412 16.8072 4.94946 16.8647 4.93607C16.8247 4.89079 16.8 4.82883 16.8 4.76049C16.8 4.62178 16.9017 4.50933 17.027 4.50933C17.1524 4.50933 17.2541 4.62178 17.2541 4.76049C17.2541 4.79964 17.246 4.83669 17.2315 4.86972C17.3857 4.84928 17.5467 4.83663 17.7145 4.83173V4.61889H17.4708V4.46739H17.7145V4.28695H17.9719V4.46739H18.2689V4.61889H17.9719V4.83025C18.163 4.83357 18.3422 4.84687 18.5093 4.87022C18.4947 4.83707 18.4865 4.79984 18.4865 4.76049C18.4865 4.62178 18.5882 4.50933 18.7135 4.50933C18.8389 4.50933 18.9406 4.62178 18.9406 4.76049C18.9406 4.83153 18.9139 4.89568 18.8711 4.94137C18.9436 4.96029 19.0133 4.98161 19.0801 5.00535L19.2663 4.59688L19.4444 4.67295L19.2596 5.07816C19.2742 5.08489 19.2886 5.09176 19.3029 5.09877L19.2049 5.24002L19.1892 5.23243L19.1593 5.298L18.9813 5.22192L19.0104 5.15814C18.7265 5.05626 18.3805 5.00122 17.9719 4.9938V5.06104H17.7145V4.99535C17.2294 5.01014 16.8086 5.09273 16.4513 5.24255ZM16.3644 5.41019L16.4099 5.48668L16.257 5.55202L16.5101 6.10719C16.4606 6.1249 16.412 6.14372 16.3644 6.16368L16.4513 6.30999C16.8086 6.16017 17.2294 6.07758 17.7145 6.06279V6.12848H17.9719V6.06124C18.3805 6.06866 18.7265 6.1237 19.0104 6.22559L18.9813 6.28936L19.1593 6.36544L19.1892 6.29987L19.2049 6.30746L19.3029 6.16621C19.2886 6.1592 19.2742 6.15233 19.2596 6.14561L19.4444 5.74039L19.2663 5.66432L19.0801 6.07279C19.0133 6.04905 18.9436 6.02773 18.8711 6.00881C18.9139 5.96313 18.9406 5.89898 18.9406 5.82794C18.9406 5.68922 18.8389 5.57677 18.7135 5.57677C18.5882 5.57677 18.4865 5.68922 18.4865 5.82794C18.4865 5.86728 18.4947 5.90451 18.5093 5.93766C18.3422 5.91431 18.163 5.90101 17.9719 5.89769V5.68633H18.2689V5.53483H17.9719V5.35439H17.7145V5.53483H17.4708V5.68633H17.7145V5.89917C17.5467 5.90407 17.3857 5.91672 17.2315 5.93716C17.246 5.90414 17.2541 5.86708 17.2541 5.82794C17.2541 5.68922 17.1524 5.57677 17.027 5.57677C16.9017 5.57677 16.8 5.68922 16.8 5.82794C16.8 5.89627 16.8247 5.95823 16.8647 6.00351C16.8072 6.0169 16.7509 6.03156 16.6956 6.04748L16.4685 5.54938C16.8612 5.38797 17.3299 5.30689 17.8754 5.30689C18.4271 5.30689 18.87 5.38984 19.2049 5.55397L19.3029 5.41272C18.9353 5.23256 18.4592 5.14337 17.8754 5.14337C17.2932 5.14337 16.7893 5.23204 16.3644 5.41019ZM16.3644 6.47763L16.4099 6.55412L16.257 6.61946L16.5101 7.17463C16.4606 7.19234 16.412 7.21117 16.3644 7.23112L16.4513 7.37743C16.8086 7.22761 17.2294 7.14502 17.7145 7.13024V7.19592H17.9719V7.12869C18.3805 7.1361 18.7265 7.19114 19.0104 7.29303L18.9813 7.3568L19.1593 7.43288L19.1892 7.36731L19.2049 7.3749L19.3029 7.23365C19.2886 7.22664 19.2742 7.21978 19.2596 7.21305L19.4444 6.80784L19.2663 6.73176L19.0801 7.14023C19.0133 7.11649 18.9436 7.09517 18.8711 7.07625C18.9139 7.03057 18.9406 6.96642 18.9406 6.89538C18.9406 6.75667 18.8389 6.64422 18.7135 6.64422C18.5882 6.64422 18.4865 6.75667 18.4865 6.89538C18.4865 6.93472 18.4947 6.97195 18.5093 7.00511C18.3422 6.98176 18.163 6.96845 17.9719 6.96513V6.75377H18.2689V6.60227H17.9719V6.42183H17.7145V6.60227H17.4708V6.75377H17.7145V6.96662C17.5467 6.97151 17.3857 6.98417 17.2315 7.0046C17.246 6.97158 17.2541 6.93452 17.2541 6.89538C17.2541 6.75667 17.1524 6.64422 17.027 6.64422C16.9017 6.64422 16.8 6.75667 16.8 6.89538C16.8 6.96371 16.8247 7.02567 16.8647 7.07095C16.8072 7.08435 16.7509 7.099 16.6956 7.11492L16.4685 6.61682C16.8612 6.45542 17.3299 6.37433 17.8754 6.37433C18.4271 6.37433 18.87 6.45729 19.2049 6.62141L19.3029 6.48016C18.9353 6.3 18.4592 6.21081 17.8754 6.21081C17.2932 6.21081 16.7893 6.29949 16.3644 6.47763ZM16.3644 7.54507L16.4513 7.69138C16.8475 7.52524 17.3219 7.44177 17.8754 7.44177C18.4271 7.44177 18.87 7.52473 19.2049 7.68885L19.3029 7.5476C18.9353 7.36744 18.4592 7.27825 17.8754 7.27825C17.2932 7.27825 16.7893 7.36693 16.3644 7.54507Z" fill="#F4B300"/>
</g>
</g>
<rect x="1.75" y="1.25" width="23.5" height="17.5" stroke="black" stroke-opacity="0.1" stroke-width="0.5" shape-rendering="crispEdges"/>
</g>
<defs>
<filter id="filter0_dd_701_19426" x="0" y="0" width="27" height="21" filterUnits="userSpaceOnUse" color-interpolation-filters="sRGB">
<feFlood flood-opacity="0" result="BackgroundImageFix"/>
<feColorMatrix in="SourceAlpha" type="matrix" values="0 0 0 0 0 0 0 0 0 0 0 0 0 0 0 0 0 0 127 0" result="hardAlpha"/>
<feOffset dy="0.5"/>
<feGaussianBlur stdDeviation="0.75"/>
<feComposite in2="hardAlpha" operator="out"/>
<feColorMatrix type="matrix" values="0 0 0 0 0 0 0 0 0 0 0 0 0 0 0 0 0 0 0.1 0"/>
<feBlend mode="multiply" in2="BackgroundImageFix" result="effect1_dropShadow_701_19426"/>
<feColorMatrix in="SourceAlpha" type="matrix" values="0 0 0 0 0 0 0 0 0 0 0 0 0 0 0 0 0 0 127 0" result="hardAlpha"/>
<feOffset/>
<feGaussianBlur stdDeviation="0.5"/>
<feComposite in2="hardAlpha" operator="out"/>
<feColorMatrix type="matrix" values="0 0 0 0 0 0 0 0 0 0 0 0 0 0 0 0 0 0 0.11 0"/>
<feBlend mode="multiply" in2="effect1_dropShadow_701_19426" result="effect2_dropShadow_701_19426"/>
<feBlend mode="normal" in="SourceGraphic" in2="effect2_dropShadow_701_19426" result="shape"/>
</filter>
<clipPath id="clip0_701_19426">
<rect x="1.5" y="1" width="24" height="18" fill="white"/>
</clipPath>
</defs>
</svg>
