<svg width="27" height="21" viewBox="0 0 27 21" fill="none" xmlns="http://www.w3.org/2000/svg">
<g filter="url(#filter0_dd_701_20989)">
<g clip-path="url(#clip0_701_20989)">
<mask id="mask0_701_20989" style="mask-type:alpha" maskUnits="userSpaceOnUse" x="1" y="1" width="25" height="18">
<rect x="1.5" y="1" width="24" height="18" fill="white"/>
</mask>
<g mask="url(#mask0_701_20989)">
<path fill-rule="evenodd" clip-rule="evenodd" d="M1.5 1V19H25.5V1H1.5Z" fill="#EF0000"/>
<mask id="mask1_701_20989" style="mask-type:alpha" maskUnits="userSpaceOnUse" x="1" y="1" width="25" height="18">
<path fill-rule="evenodd" clip-rule="evenodd" d="M1.5 1V19H25.5V1H1.5Z" fill="white"/>
</mask>
<g mask="url(#mask1_701_20989)">
<path d="M1.5 6.5H-0.5V8.5V11.5V13.5H1.5H25.5H27.5V11.5V8.5V6.5H25.5H1.5Z" fill="#EF0000" stroke="#F7FCFF" stroke-width="4"/>
</g>
<path fill-rule="evenodd" clip-rule="evenodd" d="M1.5 1V19L15 10L1.5 1Z" fill="#3D58DB"/>
<mask id="mask2_701_20989" style="mask-type:alpha" maskUnits="userSpaceOnUse" x="1" y="1" width="14" height="18">
<path fill-rule="evenodd" clip-rule="evenodd" d="M1.5 1V19L15 10L1.5 1Z" fill="white"/>
</mask>
<g mask="url(#mask2_701_20989)">
<path fill-rule="evenodd" clip-rule="evenodd" d="M6.51584 11.6627L3.76189 13.1161L5.10264 10.1957L3.39415 8.6356L5.50351 8.55775L6.51584 5.91724L7.28837 8.55775H9.39415L7.99061 10.1957L9.10701 13.1161L6.51584 11.6627Z" fill="#F7FCFF"/>
</g>
</g>
</g>
<rect x="1.75" y="1.25" width="23.5" height="17.5" stroke="black" stroke-opacity="0.1" stroke-width="0.5" shape-rendering="crispEdges"/>
</g>
<defs>
<filter id="filter0_dd_701_20989" x="0" y="0" width="27" height="21" filterUnits="userSpaceOnUse" color-interpolation-filters="sRGB">
<feFlood flood-opacity="0" result="BackgroundImageFix"/>
<feColorMatrix in="SourceAlpha" type="matrix" values="0 0 0 0 0 0 0 0 0 0 0 0 0 0 0 0 0 0 127 0" result="hardAlpha"/>
<feOffset dy="0.5"/>
<feGaussianBlur stdDeviation="0.75"/>
<feComposite in2="hardAlpha" operator="out"/>
<feColorMatrix type="matrix" values="0 0 0 0 0 0 0 0 0 0 0 0 0 0 0 0 0 0 0.1 0"/>
<feBlend mode="multiply" in2="BackgroundImageFix" result="effect1_dropShadow_701_20989"/>
<feColorMatrix in="SourceAlpha" type="matrix" values="0 0 0 0 0 0 0 0 0 0 0 0 0 0 0 0 0 0 127 0" result="hardAlpha"/>
<feOffset/>
<feGaussianBlur stdDeviation="0.5"/>
<feComposite in2="hardAlpha" operator="out"/>
<feColorMatrix type="matrix" values="0 0 0 0 0 0 0 0 0 0 0 0 0 0 0 0 0 0 0.11 0"/>
<feBlend mode="multiply" in2="effect1_dropShadow_701_20989" result="effect2_dropShadow_701_20989"/>
<feBlend mode="normal" in="SourceGraphic" in2="effect2_dropShadow_701_20989" result="shape"/>
</filter>
<clipPath id="clip0_701_20989">
<rect x="1.5" y="1" width="24" height="18" fill="white"/>
</clipPath>
</defs>
</svg>
