<svg viewBox="0 0 27 21" fill="none" xmlns="http://www.w3.org/2000/svg">
<g filter="url(#filter0_dd_701_22617)">
<g clip-path="url(#clip0_701_22617)">
<mask id="mask0_701_22617" style="mask-type:alpha" maskUnits="userSpaceOnUse" x="1" y="1" width="25" height="18">
<rect x="1.5" y="1" width="24" height="18" fill="white"/>
</mask>
<g mask="url(#mask0_701_22617)">
<path fill-rule="evenodd" clip-rule="evenodd" d="M1.5 1H25.5V19H1.5V1Z" fill="#F7FCFF"/>
<path d="M-0.351481 1.64482L-2.40002 0.406122V2.80005V17.8V20.194L-0.351481 18.9553L12.0519 11.4553L13.9623 10.3L12.0519 9.14482L-0.351481 1.64482Z" fill="#F7FCFF" stroke="#E31D1C" stroke-width="2.7"/>
<path d="M32.4209 -0.767383L34.4488 -1.94515V0.400024V20.4V22.7452L32.4209 21.5674L15.202 11.5674L13.1919 10.4L15.202 9.23262L32.4209 -0.767383Z" fill="#F7FCFF" stroke="#E31D1C" stroke-width="2.7"/>
<path fill-rule="evenodd" clip-rule="evenodd" d="M11.1747 2.70308C11.1747 2.70308 10.3161 6.50139 13.2808 7.9602C13.2808 7.9602 16.127 6.40887 15.4877 2.70308C15.4877 2.70308 14.2654 2.29419 13.2934 2.29419C12.3215 2.29419 11.1747 2.70308 11.1747 2.70308Z" fill="#E31D1C"/>
<path fill-rule="evenodd" clip-rule="evenodd" d="M11.4824 3.49858C11.4824 3.49858 11.7995 3.3582 11.9565 3.49858C12.1135 3.63895 12.2421 3.48694 12.2421 3.40226C12.2421 3.31758 12.4913 3.02689 12.4913 3.26273C12.4913 3.49858 12.4137 3.63174 12.6328 3.63174C12.8518 3.63174 13.8383 3.30595 14.0749 3.40226C14.3114 3.49858 14.4924 3.47462 14.4323 3.33643C14.3722 3.19824 14.2176 3.11187 13.92 3.1873C13.6225 3.26273 13.6927 3.33643 13.4355 3.33643C13.1783 3.33643 12.892 3.26273 12.892 3.26273C12.892 3.26273 12.9724 3.1388 13.2661 3.22695C13.5597 3.31511 13.9647 3.11778 14.0749 3.11778C14.185 3.11778 14.4882 3.11187 14.5182 3.1873C14.5483 3.26273 14.7313 3.33195 14.5918 3.40226C14.4523 3.47258 14.2222 3.51663 14.3805 3.60672C14.5388 3.69682 14.9028 3.67945 14.9204 3.77317C14.9379 3.86688 15.1105 4.00683 15.0412 4.00683C14.972 4.00683 14.8468 4.13881 14.7303 4.09862C14.6138 4.05843 14.6001 4.02315 14.7118 3.99059C14.8235 3.95804 14.8225 3.82113 14.7303 3.82113C14.6381 3.82113 14.6831 3.8691 14.4733 3.82113C14.2634 3.77317 13.9857 3.71985 14.0024 3.82113C14.0191 3.92242 14.1557 4.0779 13.9037 4.09862C13.6516 4.11934 13.5336 4.20254 13.4845 4.13554C13.4355 4.06854 13.2601 3.97927 13.398 3.95065C13.5359 3.92202 13.6677 4.04795 13.7174 4.02739C13.767 4.00683 13.8796 3.99538 13.7853 3.90826C13.691 3.82113 13.5356 3.76984 13.6797 3.70463C13.8238 3.63942 13.7101 3.63808 13.4355 3.77317C13.1609 3.90826 13.0082 4.02306 12.7671 4.00683C12.5261 3.99059 12.4358 4.01249 12.3583 3.99059C12.2808 3.9687 11.9035 4.23254 11.7948 4.16558C11.6862 4.09862 11.3354 4.07293 11.3985 3.99059C11.4617 3.90826 11.5464 3.86587 11.6409 3.90826C11.7353 3.95065 11.8291 3.99304 11.8928 3.95065C11.9565 3.90826 12.1404 3.7628 12.0941 3.73371C12.0479 3.70463 12.0926 3.60672 11.8307 3.60672C11.5688 3.60672 11.4767 3.71584 11.4146 3.64709C11.3524 3.57834 11.4824 3.49858 11.4824 3.49858Z" fill="#FFD100"/>
<path fill-rule="evenodd" clip-rule="evenodd" d="M11.7441 4.74674C11.7441 4.74674 12.0229 4.62332 12.1609 4.74674C12.2989 4.87015 12.4119 4.73651 12.4119 4.66206C12.4119 4.58762 12.6311 4.33205 12.6311 4.53939C12.6311 4.74674 12.5629 4.86381 12.7555 4.86381C12.948 4.86381 13.8153 4.57739 14.0233 4.66206C14.2313 4.74674 14.3904 4.72568 14.3375 4.60419C14.2847 4.4827 14.1488 4.40676 13.8872 4.47308C13.6255 4.53939 13.6873 4.60419 13.4612 4.60419C13.235 4.60419 12.9834 4.53939 12.9834 4.53939C12.9834 4.53939 13.0541 4.43044 13.3122 4.50794C13.5704 4.58544 13.9264 4.41196 14.0233 4.41196C14.1201 4.41196 14.3867 4.40676 14.4131 4.47308C14.4395 4.53939 14.6004 4.60024 14.4778 4.66206C14.3551 4.72389 14.1528 4.76261 14.292 4.84182C14.4312 4.92102 14.7512 4.90576 14.7666 4.98815C14.782 5.07054 14.9337 5.19357 14.8729 5.19357C14.812 5.19357 14.702 5.3096 14.5995 5.27427C14.4971 5.23894 14.485 5.20792 14.5833 5.1793C14.6815 5.15068 14.6805 5.03032 14.5995 5.03032C14.5185 5.03032 14.558 5.07249 14.3735 5.03032C14.1891 4.98815 13.9449 4.94127 13.9596 5.03032C13.9743 5.11937 14.0944 5.25606 13.8728 5.27427C13.6512 5.29249 13.5474 5.36563 13.5043 5.30673C13.4612 5.24783 13.307 5.16935 13.4282 5.14418C13.5495 5.11901 13.6653 5.22973 13.709 5.21165C13.7526 5.19357 13.8516 5.18351 13.7687 5.10691C13.6858 5.03032 13.5492 4.98522 13.6759 4.92789C13.8025 4.87056 13.7026 4.86938 13.4612 4.98815C13.2198 5.10691 13.0855 5.20784 12.8736 5.19357C12.6616 5.1793 12.5823 5.19855 12.5141 5.1793C12.446 5.16005 12.1143 5.39201 12.0187 5.33314C11.9232 5.27427 11.6148 5.25169 11.6703 5.1793C11.7259 5.10691 11.8004 5.06965 11.8834 5.10691C11.9664 5.14418 12.0489 5.18145 12.1049 5.14418C12.1609 5.10691 12.3226 4.97903 12.2819 4.95346C12.2412 4.92789 12.2806 4.84182 12.0503 4.84182C11.8201 4.84182 11.7391 4.93775 11.6844 4.8773C11.6298 4.81686 11.7441 4.74674 11.7441 4.74674Z" fill="#FFD100"/>
<path fill-rule="evenodd" clip-rule="evenodd" d="M12.1142 6.01358C12.1142 6.01358 12.3256 5.91999 12.4303 6.01358C12.5349 6.10716 12.6206 6.00582 12.6206 5.94937C12.6206 5.89292 12.7868 5.69912 12.7868 5.85635C12.7868 6.01358 12.7351 6.10235 12.8811 6.10235C13.0272 6.10235 13.6848 5.88516 13.8425 5.94937C14.0002 6.01358 14.1209 5.99761 14.0808 5.90548C14.0407 5.81335 13.9377 5.75577 13.7393 5.80606C13.5409 5.85635 13.5877 5.90548 13.4163 5.90548C13.2448 5.90548 13.054 5.85635 13.054 5.85635C13.054 5.85635 13.1076 5.77373 13.3033 5.8325C13.4991 5.89126 13.7691 5.75972 13.8425 5.75972C13.916 5.75972 14.1181 5.75577 14.1381 5.80606C14.1581 5.85635 14.2802 5.90249 14.1871 5.94937C14.0941 5.99625 13.9407 6.02561 14.0463 6.08568C14.1518 6.14574 14.3945 6.13416 14.4062 6.19664C14.4179 6.25911 14.5329 6.35241 14.4868 6.35241C14.4406 6.35241 14.3572 6.4404 14.2795 6.41361C14.2018 6.38682 14.1927 6.36329 14.2671 6.34159C14.3416 6.31988 14.3409 6.22861 14.2795 6.22861C14.218 6.22861 14.248 6.26059 14.1081 6.22861C13.9682 6.19664 13.7831 6.16109 13.7942 6.22861C13.8053 6.29614 13.8964 6.39979 13.7284 6.41361C13.5603 6.42742 13.4817 6.48288 13.449 6.43822C13.4163 6.39356 13.2994 6.33404 13.3913 6.31496C13.4832 6.29587 13.5711 6.37982 13.6042 6.36612C13.6373 6.35241 13.7123 6.34478 13.6495 6.2867C13.5866 6.22861 13.483 6.19442 13.5791 6.15095C13.6751 6.10747 13.5993 6.10658 13.4163 6.19664C13.2332 6.2867 13.1314 6.36323 12.9707 6.35241C12.81 6.34159 12.7498 6.35619 12.6981 6.34159C12.6465 6.32699 12.3949 6.50289 12.3225 6.45825C12.25 6.41361 12.0162 6.39648 12.0583 6.34159C12.1004 6.2867 12.1569 6.25844 12.2199 6.2867C12.2828 6.31496 12.3454 6.34322 12.3878 6.31496C12.4303 6.2867 12.5529 6.18972 12.522 6.17033C12.4912 6.15095 12.521 6.08568 12.3464 6.08568C12.1718 6.08568 12.1104 6.15842 12.069 6.11258C12.0275 6.06675 12.1142 6.01358 12.1142 6.01358Z" fill="#FFD100"/>
</g>
</g>
<rect x="1.75" y="1.25" width="23.5" height="17.5" stroke="black" stroke-opacity="0.1" stroke-width="0.5" shape-rendering="crispEdges"/>
</g>
<defs>
<filter id="filter0_dd_701_22617" x="0" y="0" width="27" height="21" filterUnits="userSpaceOnUse" color-interpolation-filters="sRGB">
<feFlood flood-opacity="0" result="BackgroundImageFix"/>
<feColorMatrix in="SourceAlpha" type="matrix" values="0 0 0 0 0 0 0 0 0 0 0 0 0 0 0 0 0 0 127 0" result="hardAlpha"/>
<feOffset dy="0.5"/>
<feGaussianBlur stdDeviation="0.75"/>
<feComposite in2="hardAlpha" operator="out"/>
<feColorMatrix type="matrix" values="0 0 0 0 0 0 0 0 0 0 0 0 0 0 0 0 0 0 0.1 0"/>
<feBlend mode="multiply" in2="BackgroundImageFix" result="effect1_dropShadow_701_22617"/>
<feColorMatrix in="SourceAlpha" type="matrix" values="0 0 0 0 0 0 0 0 0 0 0 0 0 0 0 0 0 0 127 0" result="hardAlpha"/>
<feOffset/>
<feGaussianBlur stdDeviation="0.5"/>
<feComposite in2="hardAlpha" operator="out"/>
<feColorMatrix type="matrix" values="0 0 0 0 0 0 0 0 0 0 0 0 0 0 0 0 0 0 0.11 0"/>
<feBlend mode="multiply" in2="effect1_dropShadow_701_22617" result="effect2_dropShadow_701_22617"/>
<feBlend mode="normal" in="SourceGraphic" in2="effect2_dropShadow_701_22617" result="shape"/>
</filter>
<clipPath id="clip0_701_22617">
<rect x="1.5" y="1" width="24" height="18" fill="white"/>
</clipPath>
</defs>
</svg>