<svg viewBox="0 0 27 21" fill="none" xmlns="http://www.w3.org/2000/svg">
<g filter="url(#filter0_dd_701_22275)">
<g clip-path="url(#clip0_701_22275)">
<mask id="mask0_701_22275" style="mask-type:alpha" maskUnits="userSpaceOnUse" x="1" y="1" width="25" height="18">
<rect x="1.5" y="1" width="24" height="18" fill="white"/>
</mask>
<g mask="url(#mask0_701_22275)">
<path fill-rule="evenodd" clip-rule="evenodd" d="M1.5 1V19H25.5V1H1.5Z" fill="#F7FCFF"/>
<mask id="mask1_701_22275" style="mask-type:alpha" maskUnits="userSpaceOnUse" x="1" y="1" width="25" height="18">
<path fill-rule="evenodd" clip-rule="evenodd" d="M1.5 1V19H25.5V1H1.5Z" fill="white"/>
</mask>
<g mask="url(#mask1_701_22275)">
<path fill-rule="evenodd" clip-rule="evenodd" d="M13.5 14.6647C15.902 14.6647 17.8493 12.5967 17.8493 10.0458C17.8493 7.49483 15.902 5.42688 13.5 5.42688C11.0979 5.42688 9.1507 7.49483 9.1507 10.0458C9.1507 12.5967 11.0979 14.6647 13.5 14.6647Z" fill="#3D58DB"/>
<mask id="mask2_701_22275" style="mask-type:alpha" maskUnits="userSpaceOnUse" x="9" y="5" width="9" height="10">
<path fill-rule="evenodd" clip-rule="evenodd" d="M13.5 14.6647C15.902 14.6647 17.8493 12.5967 17.8493 10.0458C17.8493 7.49483 15.902 5.42688 13.5 5.42688C11.0979 5.42688 9.1507 7.49483 9.1507 10.0458C9.1507 12.5967 11.0979 14.6647 13.5 14.6647Z" fill="white"/>
</mask>
<g mask="url(#mask2_701_22275)">
<path fill-rule="evenodd" clip-rule="evenodd" d="M18.0014 10.3996C18.0014 10.3996 17.7573 8.22166 15.9493 8.10343C14.1413 7.9852 13.6538 9.70062 13.5495 10.1551C13.4451 10.6096 13.1811 11.822 11.2774 11.822C9.37383 11.822 9.20212 8.73913 9.20212 8.73913V5.104H18.0014V10.3996Z" fill="#E31D1C"/>
</g>
<path fill-rule="evenodd" clip-rule="evenodd" d="M6.9745 2.53918L7.66073 3.15983L4.48053 6.87376L3.79431 6.25311L6.9745 2.53918ZM8.10625 3.54355L8.79247 4.1642L5.72627 7.82432L5.04005 7.20368L8.10625 3.54355ZM9.91903 5.18094L9.23281 4.5603L6.15809 8.2482L6.84431 8.86884L9.91903 5.18094Z" fill="#272727"/>
<path fill-rule="evenodd" clip-rule="evenodd" d="M20.5228 2.27893L19.8364 2.89725L21.027 4.29438L21.7134 3.67606L20.5228 2.27893ZM22.639 4.84891L21.9526 5.46723L23.1432 6.86436L23.8296 6.24603L22.639 4.84891ZM17.571 4.90964L18.2573 4.29132L19.4479 5.68845L18.7615 6.30677L17.571 4.90964ZM20.3736 6.8613L19.6872 7.47962L20.8777 8.87675L21.5641 8.25843L20.3736 6.8613ZM18.7467 3.87344L19.433 3.25512L22.747 7.29076L22.0606 7.90909L18.7467 3.87344Z" fill="#272727"/>
<path fill-rule="evenodd" clip-rule="evenodd" d="M21.0412 11.6824L20.349 11.0616L19.1485 12.4642L19.8406 13.085L21.0412 11.6824ZM19.0227 14.1506L18.3306 13.5299L17.13 14.9325L17.8221 15.5532L19.0227 14.1506ZM22.5349 13.0247L23.227 13.6454L22.0264 15.048L21.3343 14.4272L22.5349 13.0247ZM21.3072 16.1709L20.6151 15.5501L19.4145 16.9527L20.1067 17.5735L21.3072 16.1709ZM19.4749 14.4836L20.167 15.1043L18.9138 16.602L18.2217 15.9813L19.4749 14.4836ZM22.2231 12.6087L21.531 11.988L20.2778 13.4857L20.9699 14.1064L22.2231 12.6087Z" fill="#272727"/>
<path fill-rule="evenodd" clip-rule="evenodd" d="M6.3049 12.1675L6.9913 11.5485L10.0547 15.0588L9.36834 15.6778L6.3049 12.1675ZM7.0195 15.2377L7.7059 14.6187L8.99988 16.0404L8.31348 16.6594L7.0195 15.2377ZM4.73205 13.5182L4.04564 14.1372L7.12499 17.6947L7.8114 17.0757L4.73205 13.5182ZM5.22043 13.1142L5.90684 12.4952L7.02859 13.8106L6.34218 14.4296L5.22043 13.1142Z" fill="#272727"/>
</g>
</g>
</g>
<rect x="1.75" y="1.25" width="23.5" height="17.5" stroke="black" stroke-opacity="0.1" stroke-width="0.5" shape-rendering="crispEdges"/>
</g>
<defs>
<filter id="filter0_dd_701_22275" x="0" y="0" width="27" height="21" filterUnits="userSpaceOnUse" color-interpolation-filters="sRGB">
<feFlood flood-opacity="0" result="BackgroundImageFix"/>
<feColorMatrix in="SourceAlpha" type="matrix" values="0 0 0 0 0 0 0 0 0 0 0 0 0 0 0 0 0 0 127 0" result="hardAlpha"/>
<feOffset dy="0.5"/>
<feGaussianBlur stdDeviation="0.75"/>
<feComposite in2="hardAlpha" operator="out"/>
<feColorMatrix type="matrix" values="0 0 0 0 0 0 0 0 0 0 0 0 0 0 0 0 0 0 0.1 0"/>
<feBlend mode="multiply" in2="BackgroundImageFix" result="effect1_dropShadow_701_22275"/>
<feColorMatrix in="SourceAlpha" type="matrix" values="0 0 0 0 0 0 0 0 0 0 0 0 0 0 0 0 0 0 127 0" result="hardAlpha"/>
<feOffset/>
<feGaussianBlur stdDeviation="0.5"/>
<feComposite in2="hardAlpha" operator="out"/>
<feColorMatrix type="matrix" values="0 0 0 0 0 0 0 0 0 0 0 0 0 0 0 0 0 0 0.11 0"/>
<feBlend mode="multiply" in2="effect1_dropShadow_701_22275" result="effect2_dropShadow_701_22275"/>
<feBlend mode="normal" in="SourceGraphic" in2="effect2_dropShadow_701_22275" result="shape"/>
</filter>
<clipPath id="clip0_701_22275">
<rect x="1.5" y="1" width="24" height="18" fill="white"/>
</clipPath>
</defs>
</svg>