<svg viewBox="0 0 27 21" fill="none" xmlns="http://www.w3.org/2000/svg">
<g filter="url(#filter0_dd_701_19096)">
<g clip-path="url(#clip0_701_19096)">
<mask id="mask0_701_19096" style="mask-type:alpha" maskUnits="userSpaceOnUse" x="1" y="1" width="25" height="18">
<rect x="1.5" y="1" width="24" height="18" fill="white"/>
</mask>
<g mask="url(#mask0_701_19096)">
<path fill-rule="evenodd" clip-rule="evenodd" d="M1.5 1V19H25.5V1H1.5Z" fill="#F7FCFF"/>
<mask id="mask1_701_19096" style="mask-type:alpha" maskUnits="userSpaceOnUse" x="1" y="1" width="25" height="18">
<path fill-rule="evenodd" clip-rule="evenodd" d="M1.5 1V19H25.5V1H1.5Z" fill="white"/>
</mask>
<g mask="url(#mask1_701_19096)">
<path fill-rule="evenodd" clip-rule="evenodd" d="M1.5 2.5V17.5H25.5V2.5H1.5Z" fill="#FECA00"/>
<path d="M1.5 6.75H-0.25V8.5V11.5V13.25H1.5H25.5H27.25V11.5V8.5V6.75H25.5H1.5Z" fill="#272727" stroke="#E31D1C" stroke-width="3.5"/>
<path fill-rule="evenodd" clip-rule="evenodd" d="M1.5 4V1H25.5V4H1.5ZM1.5 19V16H25.5V19H1.5Z" fill="#5EAA22"/>
</g>
<path d="M2.09696 0.19773L0.5 -0.990553V1V19V20.9609L2.08722 19.8094L14.3357 10.9234L15.4373 10.1242L14.3454 9.3117L2.09696 0.19773Z" fill="#F7FCFF" stroke="#272727" stroke-width="2"/>
<mask id="mask2_701_19096" style="mask-type:alpha" maskUnits="userSpaceOnUse" x="-1" y="-3" width="19" height="26">
<path d="M2.09696 0.19773L0.5 -0.990553V1V19V20.9609L2.08722 19.8094L14.3357 10.9234L15.4373 10.1242L14.3454 9.3117L2.09696 0.19773Z" fill="white" stroke="white" stroke-width="2"/>
</mask>
<g mask="url(#mask2_701_19096)">
<path fill-rule="evenodd" clip-rule="evenodd" d="M7.10884 11.7088L4.27463 13.9966L5.57466 10.9391L3.34085 8.78798H5.97756L7.05949 6.19385L8.20863 8.78798H10.8409L8.48904 10.9391L9.66605 13.9966L7.10884 11.7088Z" fill="#E31D1C"/>
<path fill-rule="evenodd" clip-rule="evenodd" d="M5.26322 7.31619C5.26322 7.31619 5.22208 7.217 5.46495 7.12929C5.70781 7.04159 5.7819 6.85575 5.97228 6.99252C6.16267 7.12929 6.28177 6.85431 6.33639 7.24871C6.39102 7.64311 6.54158 8.26503 6.54158 8.26503L9.00726 10.118H8.544C8.544 10.118 7.82262 11.1779 7.94172 12.1079C7.94172 12.1079 7.44399 12.0322 6.76936 12.0322C6.09472 12.0322 5.65286 12.1938 5.65286 12.1938L5.26322 10.7511C5.26322 10.7511 5.4043 10.5087 5.46495 10.3134C5.52559 10.118 5.7767 10.082 5.7767 9.92657C5.7767 9.77117 5.52901 9.6409 5.65286 9.23865C5.7767 8.8364 5.7767 7.6331 5.7767 7.6331C5.7767 7.6331 5.3853 7.46099 5.46495 7.46099C5.5446 7.46099 5.72616 7.31619 5.59555 7.31619C5.46495 7.31619 5.26322 7.31619 5.26322 7.31619Z" fill="#FECA00"/>
<path d="M6.54158 8.26503L6.42009 8.29444L6.43064 8.33802L6.46648 8.36495L8.63287 9.99302H8.544H8.47787L8.44066 10.0477L8.544 10.118L8.44062 10.0477L8.44056 10.0478L8.4404 10.0481L8.43987 10.0489L8.43806 10.0516L8.43149 10.0615C8.42585 10.07 8.41777 10.0825 8.40761 10.0985C8.38731 10.1306 8.35871 10.1771 8.3249 10.2357C8.25734 10.3526 8.16857 10.5185 8.08353 10.7144C7.93298 11.0613 7.78818 11.5157 7.80475 11.9644C7.75395 11.9586 7.69178 11.9521 7.61981 11.9455C7.40816 11.9263 7.11121 11.9072 6.76936 11.9072C6.42215 11.9072 6.13443 11.9488 5.93272 11.9906C5.85539 12.0067 5.79061 12.0228 5.73987 12.0366L5.3972 10.7677C5.4118 10.7411 5.43146 10.7044 5.45297 10.6617C5.49676 10.5749 5.5509 10.4581 5.58433 10.3504C5.60081 10.2973 5.64286 10.2619 5.71865 10.2049L5.7218 10.2026C5.75417 10.1782 5.79726 10.1459 5.83102 10.1069C5.86905 10.063 5.9017 10.0037 5.9017 9.92657C5.9017 9.85533 5.87331 9.79502 5.85049 9.75177C5.8403 9.73245 5.8312 9.7163 5.82266 9.70116C5.80839 9.67584 5.7957 9.65333 5.78215 9.6235C5.74701 9.54612 5.72029 9.44445 5.77232 9.27543C5.80714 9.16233 5.83128 9.00127 5.8488 8.83087C5.86656 8.65814 5.8783 8.46736 5.8861 8.29054C5.89391 8.1135 5.8978 7.94931 5.89975 7.82943C5.90072 7.76946 5.90121 7.72051 5.90146 7.68649L5.90167 7.64714L5.9017 7.63677L5.9017 7.63408L5.9017 7.63337L5.9017 7.63318V7.63313L5.7767 7.6331H5.9017V7.55152L5.82702 7.51868L5.82702 7.51868L5.82702 7.51868L5.82698 7.51866L5.8268 7.51858L5.82604 7.51824L5.82293 7.51687L5.81098 7.51156L5.76857 7.49244C5.75092 7.48441 5.73063 7.47508 5.7094 7.46513C5.71886 7.45514 5.72829 7.44385 5.7366 7.43139C5.74758 7.41493 5.76676 7.38161 5.76644 7.33789C5.76602 7.28078 5.73324 7.23557 5.6898 7.21226C5.66816 7.20065 5.64585 7.1953 5.62628 7.19293C5.64794 7.1811 5.66788 7.16914 5.68628 7.15761C5.70889 7.14344 5.72645 7.13185 5.74166 7.1218C5.76284 7.10782 5.77949 7.09682 5.79894 7.08603C5.82699 7.07047 5.8392 7.06878 5.84538 7.06885C5.85004 7.0689 5.86588 7.07 5.89935 7.09404C6.01446 7.17674 6.13955 7.16153 6.18903 7.15271C6.19555 7.17197 6.20437 7.20658 6.21258 7.26586C6.24058 7.46805 6.29274 7.72602 6.33732 7.93129C6.35971 8.03439 6.38037 8.12506 6.39544 8.18996L6.41339 8.26643L6.41833 8.28711L6.41963 8.29252L6.41997 8.29393L6.42005 8.29429L6.42008 8.29439L6.42009 8.29442L6.54158 8.26503Z" stroke="#0A0A0A" stroke-width="0.25"/>
</g>
</g>
</g>
<rect x="1.75" y="1.25" width="23.5" height="17.5" stroke="black" stroke-opacity="0.1" stroke-width="0.5" shape-rendering="crispEdges"/>
</g>
<defs>
<filter id="filter0_dd_701_19096" x="0" y="0" width="27" height="21" filterUnits="userSpaceOnUse" color-interpolation-filters="sRGB">
<feFlood flood-opacity="0" result="BackgroundImageFix"/>
<feColorMatrix in="SourceAlpha" type="matrix" values="0 0 0 0 0 0 0 0 0 0 0 0 0 0 0 0 0 0 127 0" result="hardAlpha"/>
<feOffset dy="0.5"/>
<feGaussianBlur stdDeviation="0.75"/>
<feComposite in2="hardAlpha" operator="out"/>
<feColorMatrix type="matrix" values="0 0 0 0 0 0 0 0 0 0 0 0 0 0 0 0 0 0 0.1 0"/>
<feBlend mode="multiply" in2="BackgroundImageFix" result="effect1_dropShadow_701_19096"/>
<feColorMatrix in="SourceAlpha" type="matrix" values="0 0 0 0 0 0 0 0 0 0 0 0 0 0 0 0 0 0 127 0" result="hardAlpha"/>
<feOffset/>
<feGaussianBlur stdDeviation="0.5"/>
<feComposite in2="hardAlpha" operator="out"/>
<feColorMatrix type="matrix" values="0 0 0 0 0 0 0 0 0 0 0 0 0 0 0 0 0 0 0.11 0"/>
<feBlend mode="multiply" in2="effect1_dropShadow_701_19096" result="effect2_dropShadow_701_19096"/>
<feBlend mode="normal" in="SourceGraphic" in2="effect2_dropShadow_701_19096" result="shape"/>
</filter>
<clipPath id="clip0_701_19096">
<rect x="1.5" y="1" width="24" height="18" fill="white"/>
</clipPath>
</defs>
</svg>