<svg width="27" height="21" viewBox="0 0 27 21" fill="none" xmlns="http://www.w3.org/2000/svg">
<g filter="url(#filter0_dd_701_24916)">
<g clip-path="url(#clip0_701_24916)">
<mask id="mask0_701_24916" style="mask-type:alpha" maskUnits="userSpaceOnUse" x="1" y="1" width="25" height="18">
<rect x="1.5" y="1" width="24" height="18" fill="white"/>
</mask>
<g mask="url(#mask0_701_24916)">
<rect x="1.5" y="1" width="24" height="18" rx="2" fill="#5EAA22"/>
<mask id="path-5-outside-1_701_24916" maskUnits="userSpaceOnUse" x="-6.5" y="-2" width="40" height="24" fill="black">
<rect fill="white" x="-6.5" y="-2" width="40" height="24"/>
<path fill-rule="evenodd" clip-rule="evenodd" d="M13.5 10L25.5 1H1.5L13.5 10ZM13.5 10L1.5 19H25.5L13.5 10Z"/>
</mask>
<path fill-rule="evenodd" clip-rule="evenodd" d="M13.5 10L25.5 1H1.5L13.5 10ZM13.5 10L1.5 19H25.5L13.5 10Z" fill="#DD2C2B"/>
<path d="M25.5 1L27 3L33 -1.5H25.5V1ZM1.5 1V-1.5H-6L-1.19209e-07 3L1.5 1ZM1.5 19L-1.19209e-07 17L-6 21.5H1.5V19ZM25.5 19V21.5H33L27 17L25.5 19ZM24 -1L12 8L15 12L27 3L24 -1ZM1.5 3.5H25.5V-1.5H1.5V3.5ZM15 8L3 -1L-1.19209e-07 3L12 12L15 8ZM12 8L-1.19209e-07 17L3 21L15 12L12 8ZM1.5 21.5H25.5V16.5H1.5V21.5ZM27 17L15 8L12 12L24 21L27 17Z" fill="white" mask="url(#path-5-outside-1_701_24916)"/>
<path fill-rule="evenodd" clip-rule="evenodd" d="M13.5 14.5C15.9853 14.5 18 12.4853 18 10C18 7.51472 15.9853 5.5 13.5 5.5C11.0147 5.5 9 7.51472 9 10C9 12.4853 11.0147 14.5 13.5 14.5Z" fill="white"/>
<path fill-rule="evenodd" clip-rule="evenodd" d="M13.0725 8.79047L12.201 8.80001L12.645 8.05001L12.201 7.30001L13.0725 7.30956L13.5 6.55001L13.9275 7.30956L14.799 7.30001L14.355 8.05001L14.799 8.80001L13.9275 8.79047L13.5 9.55001L13.0725 8.79047Z" fill="#DD2C2B" stroke="#5EAA22" stroke-width="0.25"/>
<path fill-rule="evenodd" clip-rule="evenodd" d="M11.1975 11.8654L10.326 11.875L10.77 11.125L10.326 10.375L11.1975 10.3845L11.625 9.62497L12.0525 10.3845L12.924 10.375L12.48 11.125L12.924 11.875L12.0525 11.8654L11.625 12.625L11.1975 11.8654Z" fill="#DD2C2B" stroke="#5EAA22" stroke-width="0.25"/>
<path fill-rule="evenodd" clip-rule="evenodd" d="M14.9475 11.8654L14.076 11.875L14.52 11.125L14.076 10.375L14.9475 10.3845L15.375 9.62497L15.8025 10.3845L16.674 10.375L16.23 11.125L16.674 11.875L15.8025 11.8654L15.375 12.625L14.9475 11.8654Z" fill="#DD2C2B" stroke="#5EAA22" stroke-width="0.25"/>
</g>
</g>
<rect x="1.75" y="1.25" width="23.5" height="17.5" stroke="black" stroke-opacity="0.1" stroke-width="0.5" shape-rendering="crispEdges"/>
</g>
<defs>
<filter id="filter0_dd_701_24916" x="0" y="0" width="27" height="21" filterUnits="userSpaceOnUse" color-interpolation-filters="sRGB">
<feFlood flood-opacity="0" result="BackgroundImageFix"/>
<feColorMatrix in="SourceAlpha" type="matrix" values="0 0 0 0 0 0 0 0 0 0 0 0 0 0 0 0 0 0 127 0" result="hardAlpha"/>
<feOffset dy="0.5"/>
<feGaussianBlur stdDeviation="0.75"/>
<feComposite in2="hardAlpha" operator="out"/>
<feColorMatrix type="matrix" values="0 0 0 0 0 0 0 0 0 0 0 0 0 0 0 0 0 0 0.1 0"/>
<feBlend mode="multiply" in2="BackgroundImageFix" result="effect1_dropShadow_701_24916"/>
<feColorMatrix in="SourceAlpha" type="matrix" values="0 0 0 0 0 0 0 0 0 0 0 0 0 0 0 0 0 0 127 0" result="hardAlpha"/>
<feOffset/>
<feGaussianBlur stdDeviation="0.5"/>
<feComposite in2="hardAlpha" operator="out"/>
<feColorMatrix type="matrix" values="0 0 0 0 0 0 0 0 0 0 0 0 0 0 0 0 0 0 0.11 0"/>
<feBlend mode="multiply" in2="effect1_dropShadow_701_24916" result="effect2_dropShadow_701_24916"/>
<feBlend mode="normal" in="SourceGraphic" in2="effect2_dropShadow_701_24916" result="shape"/>
</filter>
<clipPath id="clip0_701_24916">
<rect x="1.5" y="1" width="24" height="18" fill="white"/>
</clipPath>
</defs>
</svg>
