<svg width="27" height="21" viewBox="0 0 27 21" fill="none" xmlns="http://www.w3.org/2000/svg">
<g filter="url(#filter0_dd_701_21788)">
<g clip-path="url(#clip0_701_21788)">
<mask id="mask0_701_21788" style="mask-type:alpha" maskUnits="userSpaceOnUse" x="1" y="1" width="25" height="18">
<rect x="1.5" y="1" width="24" height="18" fill="white"/>
</mask>
<g mask="url(#mask0_701_21788)">
<path fill-rule="evenodd" clip-rule="evenodd" d="M1.5 13H25.5V19H1.5V13Z" fill="#E31D1C"/>
<path fill-rule="evenodd" clip-rule="evenodd" d="M1.5 7H25.5V13H1.5V7Z" fill="#5EAA22"/>
<path fill-rule="evenodd" clip-rule="evenodd" d="M1.5 1H25.5V7H1.5V1Z" fill="#FFD018"/>
<path fill-rule="evenodd" clip-rule="evenodd" d="M13.5465 12.9817L9.68331 15.4379L10.9791 11.1381L8.22364 8.3289L12.0225 8.24591L13.7032 4.00104L15.2348 8.30198L19.0246 8.36813L16.1766 11.2289L17.5065 15.3194L13.5465 12.9817Z" fill="#F7FCFF"/>
</g>
</g>
<rect x="1.75" y="1.25" width="23.5" height="17.5" stroke="black" stroke-opacity="0.1" stroke-width="0.5" shape-rendering="crispEdges"/>
</g>
<defs>
<filter id="filter0_dd_701_21788" x="0" y="0" width="27" height="21" filterUnits="userSpaceOnUse" color-interpolation-filters="sRGB">
<feFlood flood-opacity="0" result="BackgroundImageFix"/>
<feColorMatrix in="SourceAlpha" type="matrix" values="0 0 0 0 0 0 0 0 0 0 0 0 0 0 0 0 0 0 127 0" result="hardAlpha"/>
<feOffset dy="0.5"/>
<feGaussianBlur stdDeviation="0.75"/>
<feComposite in2="hardAlpha" operator="out"/>
<feColorMatrix type="matrix" values="0 0 0 0 0 0 0 0 0 0 0 0 0 0 0 0 0 0 0.1 0"/>
<feBlend mode="multiply" in2="BackgroundImageFix" result="effect1_dropShadow_701_21788"/>
<feColorMatrix in="SourceAlpha" type="matrix" values="0 0 0 0 0 0 0 0 0 0 0 0 0 0 0 0 0 0 127 0" result="hardAlpha"/>
<feOffset/>
<feGaussianBlur stdDeviation="0.5"/>
<feComposite in2="hardAlpha" operator="out"/>
<feColorMatrix type="matrix" values="0 0 0 0 0 0 0 0 0 0 0 0 0 0 0 0 0 0 0.11 0"/>
<feBlend mode="multiply" in2="effect1_dropShadow_701_21788" result="effect2_dropShadow_701_21788"/>
<feBlend mode="normal" in="SourceGraphic" in2="effect2_dropShadow_701_21788" result="shape"/>
</filter>
<clipPath id="clip0_701_21788">
<rect x="1.5" y="1" width="24" height="18" fill="white"/>
</clipPath>
</defs>
</svg>
