<svg width="27" height="21" viewBox="0 0 27 21" fill="none" xmlns="http://www.w3.org/2000/svg">
<g filter="url(#filter0_dd_701_23060)">
<g clip-path="url(#clip0_701_23060)">
<mask id="mask0_701_23060" style="mask-type:alpha" maskUnits="userSpaceOnUse" x="1" y="1" width="25" height="18">
<rect x="1.5" y="1" width="24" height="18" fill="white"/>
</mask>
<g mask="url(#mask0_701_23060)">
<path fill-rule="evenodd" clip-rule="evenodd" d="M1.5 1V19H25.5V1H1.5Z" fill="#EA1A1A"/>
<mask id="mask1_701_23060" style="mask-type:alpha" maskUnits="userSpaceOnUse" x="1" y="1" width="25" height="18">
<path fill-rule="evenodd" clip-rule="evenodd" d="M1.5 1V19H25.5V1H1.5Z" fill="white"/>
</mask>
<g mask="url(#mask1_701_23060)">
<path fill-rule="evenodd" clip-rule="evenodd" d="M13.4021 9.6811C13.4021 9.6811 9.05987 5.80865 14.2415 3.55237C14.2415 3.55237 15.7484 5.21483 14.6179 7.08118C14.2471 7.6933 13.9343 8.13041 13.6992 8.4589C13.2176 9.1319 13.0622 9.34897 13.4021 9.6811ZM6.99356 6.90066C6.69534 12.5443 12.1005 10.3916 12.1005 10.3916C11.6517 10.547 11.527 10.3111 11.1404 9.57966L11.1404 9.57966C10.9516 9.22252 10.7004 8.74725 10.3186 8.14176C9.15464 6.29604 6.99356 6.90066 6.99356 6.90066ZM15.1786 9.87031C15.1786 9.87031 20.7525 11.539 17.0145 15.7777C17.0145 15.7777 14.945 14.9098 15.1786 12.7405C15.2553 12.0292 15.3534 11.5009 15.4272 11.1038C15.5784 10.2899 15.6271 10.0273 15.1786 9.87031ZM13.7136 11.1713C13.7136 11.1713 14.7128 16.903 9.25026 15.4545C9.25026 15.4545 9.10154 13.2155 11.1464 12.4546C11.8171 12.205 12.3337 12.0566 12.7219 11.945L12.7219 11.945L12.7219 11.945L12.7219 11.945C13.5172 11.7164 13.7737 11.6426 13.7136 11.1713ZM20.609 8.70651C17.1924 4.20487 14.4554 9.33888 14.4554 9.33888C14.6978 8.93026 14.9454 9.0299 15.7127 9.33869C16.0875 9.48952 16.5863 9.69025 17.2691 9.90603C19.3495 10.5635 20.609 8.70651 20.609 8.70651Z" fill="white"/>
<path d="M8.96268 8.75665L9.27919 8.55554C9.97394 9.64895 10.8756 10.187 12.0009 10.187V10.562C10.742 10.562 9.72373 9.9544 8.96268 8.75665Z" fill="#EA1A1A"/>
<path fill-rule="evenodd" clip-rule="evenodd" d="M17.8125 9.0625C18.1232 9.0625 18.375 8.81066 18.375 8.5C18.375 8.18934 18.1232 7.9375 17.8125 7.9375C17.5018 7.9375 17.25 8.18934 17.25 8.5C17.25 8.81066 17.5018 9.0625 17.8125 9.0625Z" fill="#EA1A1A"/>
<path fill-rule="evenodd" clip-rule="evenodd" d="M16.4689 12.796C16.7796 12.796 17.0314 12.5442 17.0314 12.2335C17.0314 11.9229 16.7796 11.671 16.4689 11.671C16.1582 11.671 15.9064 11.9229 15.9064 12.2335C15.9064 12.5442 16.1582 12.796 16.4689 12.796Z" fill="#EA1A1A"/>
<path fill-rule="evenodd" clip-rule="evenodd" d="M11.9689 14.296C12.2796 14.296 12.5314 14.0442 12.5314 13.7335C12.5314 13.4229 12.2796 13.171 11.9689 13.171C11.6582 13.171 11.4064 13.4229 11.4064 13.7335C11.4064 14.0442 11.6582 14.296 11.9689 14.296Z" fill="#EA1A1A"/>
<path fill-rule="evenodd" clip-rule="evenodd" d="M8.96889 9.04602C9.27956 9.04602 9.53139 8.79418 9.53139 8.48352C9.53139 8.17286 9.27956 7.92102 8.96889 7.92102C8.65823 7.92102 8.40639 8.17286 8.40639 8.48352C8.40639 8.79418 8.65823 9.04602 8.96889 9.04602Z" fill="#EA1A1A"/>
<path fill-rule="evenodd" clip-rule="evenodd" d="M13.4689 6.79602C13.7796 6.79602 14.0314 6.54418 14.0314 6.23352C14.0314 5.92286 13.7796 5.67102 13.4689 5.67102C13.1582 5.67102 12.9064 5.92286 12.9064 6.23352C12.9064 6.54418 13.1582 6.79602 13.4689 6.79602Z" fill="#EA1A1A"/>
<path d="M13.2259 6.28953L13.5556 6.46824C12.9312 7.62023 12.8871 8.68278 13.4159 9.67731L13.0848 9.85336C12.4943 8.74286 12.5439 7.54778 13.2259 6.28953Z" fill="#EA1A1A"/>
<path d="M18.0112 8.26441L17.955 8.63518C16.4882 8.4128 15.3902 8.72227 14.6384 9.55724L14.3597 9.30632C15.2032 8.36957 16.4279 8.02438 18.0112 8.26441Z" fill="#EA1A1A"/>
<path d="M16.7634 12.5237L16.3958 12.5977C16.1031 11.1432 15.4367 10.2173 14.395 9.7964L14.5354 9.4487C15.7042 9.9209 16.4474 10.9537 16.7634 12.5237Z" fill="#EA1A1A"/>
<path d="M11.9299 13.8625L11.7346 13.5424C13.0012 12.7699 13.6434 11.827 13.6826 10.7041L14.0574 10.7172C14.0134 11.977 13.2971 13.0287 11.9299 13.8625Z" fill="#EA1A1A"/>
</g>
</g>
</g>
<rect x="1.75" y="1.25" width="23.5" height="17.5" stroke="black" stroke-opacity="0.1" stroke-width="0.5" shape-rendering="crispEdges"/>
</g>
<defs>
<filter id="filter0_dd_701_23060" x="0" y="0" width="27" height="21" filterUnits="userSpaceOnUse" color-interpolation-filters="sRGB">
<feFlood flood-opacity="0" result="BackgroundImageFix"/>
<feColorMatrix in="SourceAlpha" type="matrix" values="0 0 0 0 0 0 0 0 0 0 0 0 0 0 0 0 0 0 127 0" result="hardAlpha"/>
<feOffset dy="0.5"/>
<feGaussianBlur stdDeviation="0.75"/>
<feComposite in2="hardAlpha" operator="out"/>
<feColorMatrix type="matrix" values="0 0 0 0 0 0 0 0 0 0 0 0 0 0 0 0 0 0 0.1 0"/>
<feBlend mode="multiply" in2="BackgroundImageFix" result="effect1_dropShadow_701_23060"/>
<feColorMatrix in="SourceAlpha" type="matrix" values="0 0 0 0 0 0 0 0 0 0 0 0 0 0 0 0 0 0 127 0" result="hardAlpha"/>
<feOffset/>
<feGaussianBlur stdDeviation="0.5"/>
<feComposite in2="hardAlpha" operator="out"/>
<feColorMatrix type="matrix" values="0 0 0 0 0 0 0 0 0 0 0 0 0 0 0 0 0 0 0.11 0"/>
<feBlend mode="multiply" in2="effect1_dropShadow_701_23060" result="effect2_dropShadow_701_23060"/>
<feBlend mode="normal" in="SourceGraphic" in2="effect2_dropShadow_701_23060" result="shape"/>
</filter>
<clipPath id="clip0_701_23060">
<rect x="1.5" y="1" width="24" height="18" fill="white"/>
</clipPath>
</defs>
</svg>
