<svg viewBox="0 0 27 21" fill="none" xmlns="http://www.w3.org/2000/svg">
<g filter="url(#filter0_dd_701_22765)">
<g clip-path="url(#clip0_701_22765)">
<mask id="mask0_701_22765" style="mask-type:alpha" maskUnits="userSpaceOnUse" x="1" y="1" width="25" height="18">
<rect x="1.5" y="1" width="24" height="18" fill="white"/>
</mask>
<g mask="url(#mask0_701_22765)">
<path fill-rule="evenodd" clip-rule="evenodd" d="M1.5 1V19H25.5V1H1.5Z" fill="#F7FCFF"/>
<mask id="mask1_701_22765" style="mask-type:alpha" maskUnits="userSpaceOnUse" x="1" y="1" width="25" height="18">
<path fill-rule="evenodd" clip-rule="evenodd" d="M1.5 1V19H25.5V1H1.5Z" fill="white"/>
</mask>
<g mask="url(#mask1_701_22765)">
<path fill-rule="evenodd" clip-rule="evenodd" d="M0.370728 3.46862L1.48609 4.53138C2.40711 3.66075 3.27614 3.25 4.10202 3.25C4.50104 3.25 4.67096 3.34638 5.13114 3.78138C5.86107 4.47138 6.35231 4.75 7.27563 4.75C8.19895 4.75 8.69019 4.47138 9.42011 3.78138C9.88029 3.34638 10.0502 3.25 10.4492 3.25C10.8483 3.25 11.0182 3.34638 11.4784 3.78138C12.2083 4.47138 12.6995 4.75 13.6229 4.75C14.5462 4.75 15.0374 4.47138 15.7673 3.78138C16.2275 3.34638 16.3974 3.25 16.7965 3.25C17.1955 3.25 17.3654 3.34638 17.8256 3.78138C18.5555 4.47138 19.0468 4.75 19.9701 4.75C20.8934 4.75 21.3846 4.47138 22.1146 3.78138C22.5747 3.34638 22.7447 3.25 23.1437 3.25C23.9696 3.25 24.8386 3.66075 25.7596 4.53138L26.875 3.46862C25.6803 2.33925 24.4336 1.75 23.1437 1.75C22.2204 1.75 21.7291 2.02862 20.9992 2.71862C20.539 3.15362 20.3691 3.25 19.9701 3.25C19.5711 3.25 19.4011 3.15362 18.9409 2.71862C18.211 2.02862 17.7198 1.75 16.7965 1.75C15.8731 1.75 15.3819 2.02862 14.652 2.71862C14.1918 3.15362 14.0219 3.25 13.6229 3.25C13.2238 3.25 13.0539 3.15362 12.5937 2.71862C11.8638 2.02862 11.3726 1.75 10.4492 1.75C9.52592 1.75 9.03468 2.02862 8.30476 2.71862C7.84458 3.15362 7.67465 3.25 7.27563 3.25C6.87661 3.25 6.70668 3.15362 6.2465 2.71862C5.51658 2.02862 5.02534 1.75 4.10202 1.75C2.81215 1.75 1.56545 2.33925 0.370728 3.46862ZM1.48609 7.53138L0.370728 6.46862C1.56545 5.33925 2.81215 4.75 4.10202 4.75C5.02534 4.75 5.51658 5.02862 6.2465 5.71862C6.70668 6.15362 6.87661 6.25 7.27563 6.25C7.67465 6.25 7.84458 6.15362 8.30476 5.71862C9.03468 5.02862 9.52592 4.75 10.4492 4.75C11.3726 4.75 11.8638 5.02862 12.5937 5.71862C13.0539 6.15362 13.2238 6.25 13.6229 6.25C14.0219 6.25 14.1918 6.15362 14.652 5.71862C15.3819 5.02862 15.8731 4.75 16.7965 4.75C17.7198 4.75 18.211 5.02862 18.9409 5.71862C19.4011 6.15362 19.5711 6.25 19.9701 6.25C20.3691 6.25 20.539 6.15362 20.9992 5.71862C21.7291 5.02862 22.2204 4.75 23.1437 4.75C24.4336 4.75 25.6803 5.33925 26.875 6.46862L25.7596 7.53138C24.8386 6.66075 23.9696 6.25 23.1437 6.25C22.7447 6.25 22.5747 6.34638 22.1146 6.78138C21.3846 7.47138 20.8934 7.75 19.9701 7.75C19.0468 7.75 18.5555 7.47138 17.8256 6.78138C17.3654 6.34638 17.1955 6.25 16.7965 6.25C16.3974 6.25 16.2275 6.34638 15.7673 6.78138C15.0374 7.47138 14.5462 7.75 13.6229 7.75C12.6995 7.75 12.2083 7.47138 11.4784 6.78138C11.0182 6.34638 10.8483 6.25 10.4492 6.25C10.0502 6.25 9.88029 6.34638 9.42011 6.78138C8.69019 7.47138 8.19895 7.75 7.27563 7.75C6.35231 7.75 5.86107 7.47138 5.13114 6.78138C4.67096 6.34638 4.50104 6.25 4.10202 6.25C3.27614 6.25 2.40711 6.66075 1.48609 7.53138ZM1.48609 10.5314L0.370728 9.46862C1.56545 8.33925 2.81215 7.75 4.10202 7.75C5.02534 7.75 5.51658 8.02862 6.2465 8.71862C6.70668 9.15362 6.87661 9.25 7.27563 9.25C7.67465 9.25 7.84458 9.15362 8.30476 8.71862C9.03468 8.02862 9.52592 7.75 10.4492 7.75C11.3726 7.75 11.8638 8.02862 12.5937 8.71862C13.0539 9.15362 13.2238 9.25 13.6229 9.25C14.0219 9.25 14.1918 9.15362 14.652 8.71862C15.3819 8.02862 15.8731 7.75 16.7965 7.75C17.7198 7.75 18.211 8.02862 18.9409 8.71862C19.4011 9.15362 19.5711 9.25 19.9701 9.25C20.3691 9.25 20.539 9.15362 20.9992 8.71862C21.7291 8.02862 22.2204 7.75 23.1437 7.75C24.4336 7.75 25.6803 8.33925 26.875 9.46862L25.7596 10.5314C24.8386 9.66075 23.9696 9.25 23.1437 9.25C22.7447 9.25 22.5747 9.34638 22.1146 9.78138C21.3846 10.4714 20.8934 10.75 19.9701 10.75C19.0468 10.75 18.5555 10.4714 17.8256 9.78138C17.3654 9.34638 17.1955 9.25 16.7965 9.25C16.3974 9.25 16.2275 9.34638 15.7673 9.78138C15.0374 10.4714 14.5462 10.75 13.6229 10.75C12.6995 10.75 12.2083 10.4714 11.4784 9.78138C11.0182 9.34638 10.8483 9.25 10.4492 9.25C10.0502 9.25 9.88029 9.34638 9.42011 9.78138C8.69019 10.4714 8.19895 10.75 7.27563 10.75C6.35231 10.75 5.86107 10.4714 5.13114 9.78138C4.67096 9.34638 4.50104 9.25 4.10202 9.25C3.27614 9.25 2.40711 9.66075 1.48609 10.5314ZM1.48609 13.5314L0.370728 12.4686C1.56545 11.3393 2.81215 10.75 4.10202 10.75C5.02534 10.75 5.51658 11.0286 6.2465 11.7186C6.70668 12.1536 6.87661 12.25 7.27563 12.25C7.67465 12.25 7.84458 12.1536 8.30476 11.7186C9.03468 11.0286 9.52592 10.75 10.4492 10.75C11.3726 10.75 11.8638 11.0286 12.5937 11.7186C13.0539 12.1536 13.2238 12.25 13.6229 12.25C14.0219 12.25 14.1918 12.1536 14.652 11.7186C15.3819 11.0286 15.8731 10.75 16.7965 10.75C17.7198 10.75 18.211 11.0286 18.9409 11.7186C19.4011 12.1536 19.5711 12.25 19.9701 12.25C20.3691 12.25 20.539 12.1536 20.9992 11.7186C21.7291 11.0286 22.2204 10.75 23.1437 10.75C24.4336 10.75 25.6803 11.3393 26.875 12.4686L25.7596 13.5314C24.8386 12.6607 23.9696 12.25 23.1437 12.25C22.7447 12.25 22.5747 12.3464 22.1146 12.7814C21.3846 13.4714 20.8934 13.75 19.9701 13.75C19.0468 13.75 18.5555 13.4714 17.8256 12.7814C17.3654 12.3464 17.1955 12.25 16.7965 12.25C16.3974 12.25 16.2275 12.3464 15.7673 12.7814C15.0374 13.4714 14.5462 13.75 13.6229 13.75C12.6995 13.75 12.2083 13.4714 11.4784 12.7814C11.0182 12.3464 10.8483 12.25 10.4492 12.25C10.0502 12.25 9.88029 12.3464 9.42011 12.7814C8.69019 13.4714 8.19895 13.75 7.27563 13.75C6.35231 13.75 5.86107 13.4714 5.13114 12.7814C4.67096 12.3464 4.50104 12.25 4.10202 12.25C3.27614 12.25 2.40711 12.6607 1.48609 13.5314ZM1.48609 16.5314L0.370728 15.4686C1.56545 14.3393 2.81215 13.75 4.10202 13.75C5.02534 13.75 5.51658 14.0286 6.2465 14.7186C6.70668 15.1536 6.87661 15.25 7.27563 15.25C7.67465 15.25 7.84458 15.1536 8.30476 14.7186C9.03468 14.0286 9.52592 13.75 10.4492 13.75C11.3726 13.75 11.8638 14.0286 12.5937 14.7186C13.0539 15.1536 13.2238 15.25 13.6229 15.25C14.0219 15.25 14.1918 15.1536 14.652 14.7186C15.3819 14.0286 15.8731 13.75 16.7965 13.75C17.7198 13.75 18.211 14.0286 18.9409 14.7186C19.4011 15.1536 19.5711 15.25 19.9701 15.25C20.3691 15.25 20.539 15.1536 20.9992 14.7186C21.7291 14.0286 22.2204 13.75 23.1437 13.75C24.4336 13.75 25.6803 14.3393 26.875 15.4686L25.7596 16.5314C24.8386 15.6607 23.9696 15.25 23.1437 15.25C22.7447 15.25 22.5747 15.3464 22.1146 15.7814C21.3846 16.4714 20.8934 16.75 19.9701 16.75C19.0468 16.75 18.5555 16.4714 17.8256 15.7814C17.3654 15.3464 17.1955 15.25 16.7965 15.25C16.3974 15.25 16.2275 15.3464 15.7673 15.7814C15.0374 16.4714 14.5462 16.75 13.6229 16.75C12.6995 16.75 12.2083 16.4714 11.4784 15.7814C11.0182 15.3464 10.8483 15.25 10.4492 15.25C10.0502 15.25 9.88029 15.3464 9.42011 15.7814C8.69019 16.4714 8.19895 16.75 7.27563 16.75C6.35231 16.75 5.86107 16.4714 5.13114 15.7814C4.67096 15.3464 4.50104 15.25 4.10202 15.25C3.27614 15.25 2.40711 15.6607 1.48609 16.5314ZM1.48609 19.5314L0.370728 18.4686C1.56545 17.3393 2.81215 16.75 4.10202 16.75C5.02534 16.75 5.51658 17.0286 6.2465 17.7186C6.70668 18.1536 6.87661 18.25 7.27563 18.25C7.67465 18.25 7.84458 18.1536 8.30476 17.7186C9.03468 17.0286 9.52592 16.75 10.4492 16.75C11.3726 16.75 11.8638 17.0286 12.5937 17.7186C13.0539 18.1536 13.2238 18.25 13.6229 18.25C14.0219 18.25 14.1918 18.1536 14.652 17.7186C15.3819 17.0286 15.8731 16.75 16.7965 16.75C17.7198 16.75 18.211 17.0286 18.9409 17.7186C19.4011 18.1536 19.5711 18.25 19.9701 18.25C20.3691 18.25 20.539 18.1536 20.9992 17.7186C21.7291 17.0286 22.2204 16.75 23.1437 16.75C24.4336 16.75 25.6803 17.3393 26.875 18.4686L25.7596 19.5314C24.8386 18.6607 23.9696 18.25 23.1437 18.25C22.7447 18.25 22.5747 18.3464 22.1146 18.7814C21.3846 19.4714 20.8934 19.75 19.9701 19.75C19.0468 19.75 18.5555 19.4714 17.8256 18.7814C17.3654 18.3464 17.1955 18.25 16.7965 18.25C16.3974 18.25 16.2275 18.3464 15.7673 18.7814C15.0374 19.4714 14.5462 19.75 13.6229 19.75C12.6995 19.75 12.2083 19.4714 11.4784 18.7814C11.0182 18.3464 10.8483 18.25 10.4492 18.25C10.0502 18.25 9.88029 18.3464 9.42011 18.7814C8.69019 19.4714 8.19895 19.75 7.27563 19.75C6.35231 19.75 5.86107 19.4714 5.13114 18.7814C4.67096 18.3464 4.50104 18.25 4.10202 18.25C3.27614 18.25 2.40711 18.6607 1.48609 19.5314Z" fill="#2E42A5"/>
<mask id="mask2_701_22765" style="mask-type:alpha" maskUnits="userSpaceOnUse" x="1" y="1" width="11" height="8">
<rect x="1.5" y="1" width="10.5" height="7.5" fill="white"/>
</mask>
<g mask="url(#mask2_701_22765)">
<rect x="1.5" y="1" width="10.5" height="9" fill="#2E42A5"/>
<path d="M-0.118332 9.49983L2.62386 10.658L13.793 2.09244L15.2394 0.371419L12.3071 -0.0156631L7.75144 3.67546L4.08463 6.16242L-0.118332 9.49983Z" fill="white"/>
<path d="M0.25708 10.3113L1.6541 10.9834L14.72 0.211588H12.7585L0.25708 10.3113Z" fill="#F50100"/>
<path d="M15.1183 9.49983L12.3762 10.658L1.20702 2.09244L-0.239431 0.371419L2.69295 -0.0156631L7.24858 3.67546L10.9154 6.16242L15.1183 9.49983Z" fill="white"/>
<path d="M15.0248 10.0822L13.6278 10.7543L8.06415 6.1423L6.41466 5.62702L-0.378611 0.377329H1.58297L8.37242 5.50241L10.1758 6.12029L15.0248 10.0822Z" fill="#F50100"/>
<mask id="path-13-outside-1_701_22765" maskUnits="userSpaceOnUse" x="0.511627" y="0" width="13" height="10" fill="black">
<rect fill="white" x="0.511627" width="13" height="10"/>
<path fill-rule="evenodd" clip-rule="evenodd" d="M7.50001 1H6.00001V4H1.51163V5.5H6.00001V8.5H7.50001V5.5H12.0116V4H7.50001V1Z"/>
</mask>
<path fill-rule="evenodd" clip-rule="evenodd" d="M7.50001 1H6.00001V4H1.51163V5.5H6.00001V8.5H7.50001V5.5H12.0116V4H7.50001V1Z" fill="#F50100"/>
<path d="M6.00001 1V0H5.00001V1H6.00001ZM7.50001 1H8.50001V0H7.50001V1ZM6.00001 4V5H7.00001V4H6.00001ZM1.51163 4V3H0.511627V4H1.51163ZM1.51163 5.5H0.511627V6.5H1.51163V5.5ZM6.00001 5.5H7.00001V4.5H6.00001V5.5ZM6.00001 8.5H5.00001V9.5H6.00001V8.5ZM7.50001 8.5V9.5H8.50001V8.5H7.50001ZM7.50001 5.5V4.5H6.50001V5.5H7.50001ZM12.0116 5.5V6.5H13.0116V5.5H12.0116ZM12.0116 4H13.0116V3H12.0116V4ZM7.50001 4H6.50001V5H7.50001V4ZM6.00001 2H7.50001V0H6.00001V2ZM7.00001 4V1H5.00001V4H7.00001ZM1.51163 5H6.00001V3H1.51163V5ZM2.51163 5.5V4H0.511627V5.5H2.51163ZM6.00001 4.5H1.51163V6.5H6.00001V4.5ZM7.00001 8.5V5.5H5.00001V8.5H7.00001ZM7.50001 7.5H6.00001V9.5H7.50001V7.5ZM6.50001 5.5V8.5H8.50001V5.5H6.50001ZM12.0116 4.5H7.50001V6.5H12.0116V4.5ZM11.0116 4V5.5H13.0116V4H11.0116ZM7.50001 5H12.0116V3H7.50001V5ZM6.50001 1V4H8.50001V1H6.50001Z" fill="#F7FCFF" mask="url(#path-13-outside-1_701_22765)"/>
</g>
<rect x="16.8" y="8.03394" width="0.75" height="9.46602" rx="0.375" fill="#D86D00"/>
<mask id="path-16-outside-2_701_22765" maskUnits="userSpaceOnUse" x="12.1344" y="0.543091" width="10" height="10" fill="black">
<rect fill="white" x="12.1344" y="0.543091" width="10" height="10"/>
<path fill-rule="evenodd" clip-rule="evenodd" d="M16.8032 2.54309C17.4236 3.39397 17.6781 4.39948 17.7009 5.42249C18.4013 4.47337 19.5696 3.69802 20.1159 3.36645C19.6146 3.71702 19.3542 4.23676 19.0613 4.82158L19.0613 4.82159C18.9175 5.1086 18.7659 5.41128 18.5741 5.71734C19.7677 5.28851 20.9534 5.17841 20.9534 5.17841C20.158 5.40412 19.4242 5.86496 18.7112 6.31274L18.7112 6.31275C18.451 6.47615 18.1936 6.63781 17.937 6.78567C20.2408 7.6534 20.5953 8.9083 20.5953 8.9083C20.3128 8.65898 19.7035 8.39221 18.5529 7.88842L18.5529 7.88841C18.3325 7.79188 18.0921 7.68665 17.8304 7.57117C18.0022 8.20396 18.2107 8.69896 18.4096 9.17154L18.4688 9.31232C18.4688 9.31232 16.8746 8.88188 16.5718 7.64594C15.6775 8.36414 14.7111 8.77295 14.2578 8.93492C14.2578 8.93492 15.3373 7.7631 16.13 6.98546C15.0891 6.86812 13.1344 6.77206 13.1344 6.77206L13.2733 6.73901C14.0593 6.55174 15.2754 6.26201 16.3898 6.27717C15.1947 5.60756 14.4598 4.7011 14.234 4.39647C14.4243 4.56461 14.954 4.77513 15.6769 5.06239L15.677 5.06241C15.9821 5.18364 16.3215 5.31854 16.6844 5.46969C16.7535 4.20673 16.8032 2.54309 16.8032 2.54309ZM14.1594 4.29173C14.1669 4.32485 14.1923 4.35965 14.234 4.39647C14.1844 4.3296 14.1594 4.29173 14.1594 4.29173ZM20.4146 3.19275C20.306 3.24465 20.207 3.30276 20.1159 3.36645C20.301 3.25415 20.4146 3.19275 20.4146 3.19275ZM17.0172 6.26218C17.0637 6.24157 17.1151 6.23011 17.1692 6.23011C17.1976 6.23011 17.2253 6.23328 17.2519 6.23927C17.2597 6.21711 17.2679 6.19499 17.2764 6.17293L17.028 6.19003L17.0172 6.26218Z"/>
</mask>
<path fill-rule="evenodd" clip-rule="evenodd" d="M16.8032 2.54309C17.4236 3.39397 17.6781 4.39948 17.7009 5.42249C18.4013 4.47337 19.5696 3.69802 20.1159 3.36645C19.6146 3.71702 19.3542 4.23676 19.0613 4.82158L19.0613 4.82159C18.9175 5.1086 18.7659 5.41128 18.5741 5.71734C19.7677 5.28851 20.9534 5.17841 20.9534 5.17841C20.158 5.40412 19.4242 5.86496 18.7112 6.31274L18.7112 6.31275C18.451 6.47615 18.1936 6.63781 17.937 6.78567C20.2408 7.6534 20.5953 8.9083 20.5953 8.9083C20.3128 8.65898 19.7035 8.39221 18.5529 7.88842L18.5529 7.88841C18.3325 7.79188 18.0921 7.68665 17.8304 7.57117C18.0022 8.20396 18.2107 8.69896 18.4096 9.17154L18.4688 9.31232C18.4688 9.31232 16.8746 8.88188 16.5718 7.64594C15.6775 8.36414 14.7111 8.77295 14.2578 8.93492C14.2578 8.93492 15.3373 7.7631 16.13 6.98546C15.0891 6.86812 13.1344 6.77206 13.1344 6.77206L13.2733 6.73901C14.0593 6.55174 15.2754 6.26201 16.3898 6.27717C15.1947 5.60756 14.4598 4.7011 14.234 4.39647C14.4243 4.56461 14.954 4.77513 15.6769 5.06239L15.677 5.06241C15.9821 5.18364 16.3215 5.31854 16.6844 5.46969C16.7535 4.20673 16.8032 2.54309 16.8032 2.54309ZM14.1594 4.29173C14.1669 4.32485 14.1923 4.35965 14.234 4.39647C14.1844 4.3296 14.1594 4.29173 14.1594 4.29173ZM20.4146 3.19275C20.306 3.24465 20.207 3.30276 20.1159 3.36645C20.301 3.25415 20.4146 3.19275 20.4146 3.19275ZM17.0172 6.26218C17.0637 6.24157 17.1151 6.23011 17.1692 6.23011C17.1976 6.23011 17.2253 6.23328 17.2519 6.23927C17.2597 6.21711 17.2679 6.19499 17.2764 6.17293L17.028 6.19003L17.0172 6.26218Z" fill="#449A01"/>
<path d="M17.7009 5.42249L17.351 5.4303L17.3739 6.4551L17.9825 5.63031L17.7009 5.42249ZM16.8032 2.54309L17.086 2.33688L16.4839 1.51113L16.4534 2.53263L16.8032 2.54309ZM19.0613 4.82158L19.3525 5.01573L19.3645 4.99771L19.3742 4.97835L19.0613 4.82158ZM19.0613 4.82159L18.7701 4.62744L18.758 4.64546L18.7483 4.66483L19.0613 4.82159ZM18.5741 5.71734L18.2775 5.53147L17.7402 6.38881L18.6924 6.04673L18.5741 5.71734ZM20.9534 5.17841L21.049 5.51511L20.9211 4.82991L20.9534 5.17841ZM18.7112 6.31274L18.8877 6.61523L18.8974 6.60914L18.7112 6.31274ZM18.7112 6.31275L18.5348 6.01027L18.5251 6.01635L18.7112 6.31275ZM17.937 6.78567L17.7623 6.48241L17.1206 6.85216L17.8136 7.11321L17.937 6.78567ZM20.5953 8.9083L20.3636 9.17069L21.2554 9.9579L20.9321 8.81317L20.5953 8.9083ZM18.5529 7.88842L18.4049 8.20567L18.4126 8.20903L18.5529 7.88842ZM18.5529 7.88841L18.701 7.57115L18.6933 7.56779L18.5529 7.88841ZM17.8304 7.57117L17.9717 7.25096L17.3003 6.95474L17.4926 7.66289L17.8304 7.57117ZM18.4096 9.17154L18.7323 9.0359L18.7322 9.03571L18.4096 9.17154ZM18.4688 9.31232L18.3776 9.65022L19.069 9.83691L18.7915 9.17668L18.4688 9.31232ZM16.5718 7.64594L16.9117 7.56264L16.781 7.02905L16.3526 7.37304L16.5718 7.64594ZM14.2578 8.93492L14.0004 8.69779L14.3756 9.26452L14.2578 8.93492ZM16.13 6.98546L16.3751 7.23532L16.9004 6.72008L16.1692 6.63766L16.13 6.98546ZM13.1344 6.77206L13.0534 6.43155L13.1172 7.12164L13.1344 6.77206ZM13.2733 6.73901L13.3543 7.07952L13.3544 7.07948L13.2733 6.73901ZM16.3898 6.27717L16.385 6.62714L16.5609 5.97184L16.3898 6.27717ZM15.6769 5.06239L15.5477 5.38765L15.5478 5.38769L15.6769 5.06239ZM15.677 5.06241L15.8062 4.73715L15.8061 4.73711L15.677 5.06241ZM16.6844 5.46969L16.5498 5.79278L17.0069 5.98316L17.0339 5.48881L16.6844 5.46969ZM14.1594 4.29173L14.4513 4.09867L13.8182 4.36962L14.1594 4.29173ZM20.4146 3.19275L20.5809 3.50072L20.2637 2.87695L20.4146 3.19275ZM17.0172 6.26218L16.671 6.2105L16.577 6.84042L17.1592 6.58209L17.0172 6.26218ZM17.2519 6.23927L17.175 6.58072L17.4787 6.64911L17.582 6.35552L17.2519 6.23927ZM17.2764 6.17293L17.6029 6.29888L17.8008 5.78599L17.2523 5.82375L17.2764 6.17293ZM17.028 6.19003L17.0039 5.84086L16.7233 5.86018L16.6818 6.13836L17.028 6.19003ZM18.0508 5.41468C18.0268 4.33987 17.7588 3.25955 17.086 2.33688L16.5204 2.7493C17.0885 3.52838 17.3293 4.45909 17.351 5.4303L18.0508 5.41468ZM19.9343 3.06724C19.3834 3.40162 18.1633 4.20646 17.4193 5.21467L17.9825 5.63031C18.6393 4.74028 19.7558 3.99442 20.2975 3.66565L19.9343 3.06724ZM19.3742 4.97835C19.6746 4.37861 19.8999 3.94461 20.3165 3.65327L19.9153 3.07962C19.3293 3.48944 19.0338 4.09491 18.7483 4.66482L19.3742 4.97835ZM19.3525 5.01573L19.3525 5.01573L18.7701 4.62744L18.7701 4.62744L19.3525 5.01573ZM18.8706 5.9032C19.0726 5.58093 19.2312 5.26378 19.3742 4.97835L18.7483 4.66483C18.6038 4.95341 18.4591 5.24163 18.2775 5.53147L18.8706 5.9032ZM20.9534 5.17841C20.9211 4.82991 20.921 4.82991 20.921 4.82992C20.921 4.82992 20.9209 4.82992 20.9208 4.82993C20.9208 4.82994 20.9206 4.82995 20.9205 4.82996C20.9202 4.82999 20.9199 4.83002 20.9195 4.83006C20.9187 4.83013 20.9176 4.83024 20.9162 4.83038C20.9134 4.83065 20.9095 4.83103 20.9045 4.83154C20.8945 4.83255 20.8801 4.83406 20.8616 4.8361C20.8247 4.84019 20.7714 4.84645 20.704 4.85528C20.5693 4.87295 20.378 4.90097 20.1487 4.94272C19.6914 5.02597 19.0765 5.16492 18.4557 5.38795L18.6924 6.04673C19.2653 5.84092 19.8401 5.71041 20.2741 5.6314C20.4904 5.59202 20.6701 5.56572 20.795 5.54934C20.8575 5.54115 20.9061 5.53546 20.9387 5.53185C20.955 5.53005 20.9672 5.52877 20.9752 5.52796C20.9792 5.52756 20.9821 5.52727 20.9838 5.5271C20.9847 5.52701 20.9853 5.52695 20.9857 5.52692C20.9858 5.52691 20.9859 5.5269 20.9859 5.5269C20.986 5.52689 20.986 5.52689 20.9859 5.5269C20.9859 5.5269 20.9859 5.5269 20.9859 5.5269C20.9858 5.5269 20.9858 5.52691 20.9534 5.17841ZM18.8974 6.60914C19.619 6.15592 20.3102 5.72474 21.049 5.51511L20.8579 4.8417C20.0058 5.0835 19.2294 5.574 18.5251 6.01635L18.8974 6.60914ZM18.8876 6.61507L18.8876 6.61507L18.5349 6.01042L18.5349 6.01043L18.8876 6.61507ZM18.1117 7.08893C18.3751 6.93717 18.6383 6.77187 18.8974 6.60914L18.5251 6.01635C18.2638 6.18042 18.0121 6.33845 17.7623 6.48241L18.1117 7.08893ZM20.5953 8.9083C20.9321 8.81317 20.932 8.81291 20.9319 8.81265C20.9319 8.81256 20.9318 8.81229 20.9318 8.81211C20.9317 8.81174 20.9316 8.81135 20.9314 8.81093C20.9312 8.81011 20.9309 8.80921 20.9307 8.80824C20.9301 8.80628 20.9294 8.80402 20.9286 8.80146C20.927 8.79634 20.925 8.79002 20.9225 8.78255C20.9175 8.76761 20.9105 8.74807 20.9012 8.72435C20.8825 8.67691 20.8543 8.61278 20.8134 8.53534C20.7316 8.38027 20.5993 8.17268 20.3913 7.93941C19.9738 7.47139 19.2604 6.91014 18.0604 6.45813L17.8136 7.11321C18.9174 7.52894 19.5332 8.02899 19.8689 8.40536C20.0374 8.59428 20.1377 8.75465 20.1943 8.86199C20.2227 8.91575 20.2402 8.95644 20.2499 8.98101C20.2548 8.9933 20.2576 9.00157 20.2589 9.00544C20.2596 9.00737 20.2598 9.0082 20.2597 9.00788C20.2597 9.00772 20.2596 9.00728 20.2593 9.00654C20.2592 9.00617 20.2591 9.00572 20.2589 9.00521C20.2589 9.00495 20.2588 9.00467 20.2587 9.00437C20.2587 9.00423 20.2586 9.00399 20.2586 9.00392C20.2585 9.00367 20.2584 9.00343 20.5953 8.9083ZM18.4126 8.20903C18.9905 8.46209 19.423 8.65154 19.7469 8.80867C20.0767 8.96871 20.2613 9.08036 20.3636 9.17069L20.8269 8.64591C20.6468 8.48692 20.3856 8.34053 20.0525 8.1789C19.7134 8.01437 19.266 7.81854 18.6933 7.5678L18.4126 8.20903ZM18.4049 8.20557L18.4049 8.20558L18.7009 7.57125L18.7009 7.57124L18.4049 8.20557ZM17.6891 7.89139C17.9513 8.00709 18.1921 8.11251 18.4125 8.20902L18.6933 7.56779C18.4728 7.47125 18.2329 7.36621 17.9717 7.25096L17.6891 7.89139ZM18.7322 9.03571C18.5332 8.56305 18.3332 8.0873 18.1682 7.47945L17.4926 7.66289C17.6712 8.32062 17.8881 8.83487 18.0871 9.30736L18.7322 9.03571ZM18.7915 9.17668L18.7323 9.0359L18.087 9.30718L18.1462 9.44796L18.7915 9.17668ZM16.2318 7.72923C16.4157 8.47946 16.9835 8.96028 17.4537 9.24265C17.6932 9.38654 17.921 9.48728 18.0887 9.55216C18.1729 9.58474 18.2428 9.60863 18.2928 9.62466C18.3177 9.63268 18.3378 9.63875 18.3521 9.64297C18.3593 9.64509 18.3651 9.64674 18.3694 9.64794C18.3715 9.64854 18.3733 9.64903 18.3746 9.64941C18.3753 9.6496 18.3759 9.64976 18.3764 9.6499C18.3767 9.64996 18.3769 9.65002 18.3771 9.65008C18.3772 9.6501 18.3773 9.65014 18.3774 9.65015C18.3775 9.65019 18.3776 9.65022 18.4688 9.31232C18.5601 8.97442 18.5602 8.97445 18.5603 8.97447C18.5603 8.97448 18.5604 8.97451 18.5604 8.97452C18.5605 8.97455 18.5606 8.97457 18.5607 8.97458C18.5608 8.97461 18.5608 8.97462 18.5607 8.97459C18.5605 8.97455 18.56 8.9744 18.5591 8.97415C18.5573 8.97365 18.5541 8.97274 18.5496 8.97139C18.5404 8.96871 18.5259 8.96432 18.5067 8.95816C18.4683 8.94582 18.4113 8.92643 18.3413 8.89934C18.2006 8.84489 18.0109 8.76077 17.8141 8.64256C17.4114 8.40073 17.0307 8.04835 16.9117 7.56264L16.2318 7.72923ZM14.3756 9.26452C14.8499 9.09505 15.8555 8.6701 16.7909 7.91883L16.3526 7.37304C15.4995 8.05818 14.5724 8.45084 14.14 8.60533L14.3756 9.26452ZM15.8849 6.7356C15.4837 7.12913 15.0121 7.62033 14.6423 8.01133C14.4571 8.2072 14.2968 8.37866 14.1827 8.50119C14.1256 8.56246 14.0802 8.61152 14.0489 8.6453C14.0332 8.66219 14.0212 8.67527 14.013 8.68414C14.0089 8.68858 14.0058 8.69197 14.0036 8.69426C14.0026 8.6954 14.0018 8.69627 14.0012 8.69687C14.001 8.69716 14.0008 8.69739 14.0006 8.69754C14.0005 8.69762 14.0005 8.69768 14.0004 8.69772C14.0004 8.69774 14.0004 8.69776 14.0004 8.69777C14.0004 8.69778 14.0004 8.69779 14.2578 8.93492C14.5152 9.17206 14.5152 9.17206 14.5152 9.17205C14.5152 9.17204 14.5153 9.17203 14.5153 9.17202C14.5153 9.17199 14.5153 9.17194 14.5154 9.17188C14.5155 9.17175 14.5157 9.17155 14.516 9.17127C14.5165 9.17073 14.5172 9.16991 14.5182 9.16881C14.5202 9.16662 14.5233 9.16334 14.5273 9.159C14.5353 9.15033 14.5472 9.13747 14.5626 9.1208C14.5935 9.08746 14.6385 9.0389 14.695 8.97816C14.8081 8.85667 14.9672 8.68657 15.1509 8.49229C15.5191 8.10296 15.9835 7.61943 16.3751 7.23532L15.8849 6.7356ZM13.1344 6.77206C13.1172 7.12164 13.1172 7.12164 13.1172 7.12164C13.1172 7.12164 13.1172 7.12164 13.1172 7.12164C13.1173 7.12164 13.1174 7.12165 13.1175 7.12165C13.1177 7.12166 13.118 7.12168 13.1185 7.1217C13.1194 7.12175 13.1208 7.12182 13.1226 7.12191C13.1263 7.12209 13.1318 7.12236 13.139 7.12273C13.1534 7.12345 13.1748 7.12453 13.2024 7.12595C13.2576 7.12879 13.3377 7.13299 13.4371 7.13839C13.6359 7.14919 13.9118 7.16481 14.22 7.18408C14.8387 7.22275 15.5799 7.27566 16.0908 7.33326L16.1692 6.63766C15.6393 6.57792 14.8826 6.52413 14.2637 6.48544C13.9531 6.46603 13.6753 6.4503 13.475 6.43942C13.3749 6.43398 13.2942 6.42975 13.2384 6.42688C13.2105 6.42544 13.1888 6.42435 13.1741 6.42361C13.1668 6.42324 13.1612 6.42296 13.1574 6.42277C13.1555 6.42268 13.154 6.4226 13.153 6.42256C13.1526 6.42253 13.1522 6.42251 13.1519 6.4225C13.1518 6.42249 13.1517 6.42249 13.1516 6.42249C13.1516 6.42249 13.1516 6.42248 13.1516 6.42248C13.1515 6.42248 13.1515 6.42248 13.1344 6.77206ZM13.1924 6.39851L13.0534 6.43155L13.2153 7.11256L13.3543 7.07952L13.1924 6.39851ZM16.3945 5.92721C15.2295 5.91135 13.9712 6.21295 13.1922 6.39854L13.3544 7.07948C14.1475 6.89054 15.3213 6.61266 16.385 6.62714L16.3945 5.92721ZM13.9528 4.60491C14.1939 4.93002 14.9636 5.87927 16.2187 6.58251L16.5609 5.97184C15.4258 5.33584 14.7258 4.47219 14.5152 4.18804L13.9528 4.60491ZM15.8062 4.73713C15.4424 4.59257 15.1366 4.471 14.8978 4.36491C14.646 4.25302 14.5148 4.17749 14.4658 4.13421L14.0022 4.65874C14.1435 4.7836 14.3723 4.89739 14.6136 5.00462C14.868 5.11764 15.1886 5.24496 15.5477 5.38765L15.8062 4.73713ZM15.8061 4.73711L15.8061 4.73709L15.5478 5.38769L15.5478 5.38771L15.8061 4.73711ZM16.819 5.1466C16.4531 4.99419 16.1111 4.85829 15.8062 4.73715L15.5477 5.38767C15.853 5.50899 16.19 5.64289 16.5498 5.79278L16.819 5.1466ZM16.8032 2.54309C16.4534 2.53263 16.4534 2.53264 16.4534 2.53265C16.4534 2.53266 16.4534 2.53267 16.4534 2.5327C16.4534 2.53274 16.4534 2.53282 16.4534 2.53291C16.4533 2.53311 16.4533 2.5334 16.4533 2.53379C16.4533 2.53458 16.4533 2.53577 16.4532 2.53734C16.4531 2.54049 16.453 2.5452 16.4528 2.55141C16.4524 2.56383 16.4519 2.58224 16.4511 2.60614C16.4496 2.65394 16.4474 2.72368 16.4445 2.81134C16.4388 2.98667 16.4305 3.23361 16.4199 3.51994C16.3989 4.09302 16.3693 4.82223 16.3349 5.45058L17.0339 5.48881C17.0686 4.8542 17.0984 4.12011 17.1195 3.54562C17.13 3.25817 17.1384 3.01027 17.1442 2.8342C17.147 2.74616 17.1493 2.67606 17.1508 2.62794C17.1515 2.60389 17.1521 2.58532 17.1525 2.57275C17.1527 2.56647 17.1528 2.56168 17.1529 2.55846C17.153 2.55685 17.153 2.55563 17.153 2.55481C17.153 2.5544 17.153 2.55409 17.153 2.55388C17.153 2.55377 17.153 2.55369 17.153 2.55364C17.153 2.55361 17.153 2.55359 17.153 2.55357C17.1531 2.55356 17.1531 2.55355 16.8032 2.54309ZM13.8182 4.36962C13.8501 4.50974 13.9415 4.60508 14.0022 4.65874L14.4658 4.13421C14.4585 4.12777 14.4614 4.12911 14.4684 4.13883C14.4753 4.1485 14.4915 4.17378 14.5006 4.21385L13.8182 4.36962ZM14.5152 4.18804C14.4924 4.15734 14.4757 4.13381 14.465 4.11854C14.4597 4.1109 14.4558 4.10534 14.4536 4.10198C14.4524 4.1003 14.4517 4.09918 14.4513 4.09862C14.4511 4.09834 14.451 4.0982 14.451 4.09821C14.451 4.09821 14.451 4.09825 14.4511 4.09833C14.4511 4.09837 14.4512 4.09842 14.4512 4.09847C14.4512 4.0985 14.4512 4.09853 14.4513 4.09856C14.4513 4.09858 14.4513 4.0986 14.4513 4.09861C14.4513 4.09862 14.4513 4.09864 14.4513 4.09864C14.4513 4.09865 14.4513 4.09867 14.1594 4.29173C13.8675 4.4848 13.8675 4.48481 13.8675 4.48482C13.8675 4.48483 13.8675 4.48484 13.8675 4.48485C13.8675 4.48487 13.8675 4.48489 13.8675 4.48491C13.8676 4.48496 13.8676 4.485 13.8676 4.48505C13.8677 4.48514 13.8677 4.48524 13.8678 4.48536C13.868 4.48558 13.8681 4.48584 13.8683 4.48614C13.8687 4.48673 13.8692 4.48747 13.8698 4.48836C13.871 4.49014 13.8726 4.49249 13.8746 4.49541C13.8786 4.50124 13.8841 4.50932 13.8912 4.51951C13.9055 4.5399 13.926 4.56874 13.9528 4.60491L14.5152 4.18804ZM20.2637 2.87695C20.1379 2.93706 20.0223 3.00484 19.9153 3.07962L20.3165 3.65327C20.3917 3.60068 20.4741 3.55224 20.5655 3.50856L20.2637 2.87695ZM20.2975 3.66565C20.3871 3.61131 20.459 3.56951 20.508 3.54156C20.5325 3.52758 20.5513 3.51708 20.5637 3.51022C20.5699 3.50679 20.5744 3.50427 20.5774 3.50268C20.5788 3.50188 20.5798 3.50132 20.5804 3.50099C20.5807 3.50083 20.5809 3.50072 20.581 3.50068C20.5811 3.50065 20.5811 3.50064 20.5811 3.50065C20.5811 3.50066 20.581 3.50066 20.581 3.50067C20.581 3.50068 20.581 3.50068 20.581 3.50069C20.581 3.5007 20.581 3.5007 20.581 3.5007C20.581 3.50071 20.5809 3.50072 20.4146 3.19275C20.2483 2.88479 20.2483 2.8848 20.2483 2.88481C20.2483 2.88481 20.2483 2.88482 20.2483 2.88482C20.2482 2.88483 20.2482 2.88485 20.2482 2.88486C20.2482 2.88488 20.2481 2.88491 20.248 2.88495C20.2479 2.88501 20.2478 2.8851 20.2476 2.88519C20.2472 2.88539 20.2468 2.88564 20.2462 2.88595C20.245 2.88658 20.2434 2.88745 20.2414 2.88855C20.2374 2.89075 20.2317 2.89391 20.2243 2.89799C20.2096 2.90614 20.1884 2.91801 20.1613 2.93342C20.1073 2.96424 20.0298 3.00929 19.9343 3.06724L20.2975 3.66565ZM17.1692 5.88011C17.0652 5.88011 16.9655 5.9022 16.8753 5.94226L17.1592 6.58209C17.1618 6.58094 17.1649 6.58011 17.1692 6.58011V5.88011ZM17.3288 5.89783C17.2771 5.88618 17.2236 5.88011 17.1692 5.88011V6.58011C17.1715 6.58011 17.1735 6.58037 17.175 6.58072L17.3288 5.89783ZM17.582 6.35552C17.5887 6.33668 17.5956 6.3178 17.6029 6.29888L16.9498 6.04697C16.9401 6.07219 16.9307 6.09754 16.9218 6.12303L17.582 6.35552ZM17.2523 5.82375L17.0039 5.84086L17.052 6.53921L17.3004 6.5221L17.2523 5.82375ZM16.6818 6.13836L16.671 6.2105L17.3634 6.31385L17.3741 6.24171L16.6818 6.13836Z" fill="white" mask="url(#path-16-outside-2_701_22765)"/>
<path fill-rule="evenodd" clip-rule="evenodd" d="M19.7138 12.8641V12.7288C19.3188 12.3876 18.9051 12.217 18.4728 12.217C18.0584 11.9963 17.6388 11.9106 17.2143 11.9599C17.2144 11.9584 17.2144 11.9576 17.2144 11.9576C16.5761 11.8824 15.9327 12.217 15.9327 12.217C15.2842 12.217 14.6917 12.7288 14.6917 12.7288V12.8641L15.4663 13.8004C15.4663 13.8004 15.6843 14.7015 17.2113 14.4897V14.492C17.2113 14.492 18.2223 14.4588 18.2933 14.4304C18.3215 14.4191 18.3507 14.4088 18.3806 14.3983C18.5786 14.3288 18.8047 14.2493 18.9392 13.8004L19.7138 12.8641ZM17.2113 12.0013C17.1892 12.3131 17.0634 14.1921 17.2113 14.4834V12.0013Z" fill="#F50100"/>
<path fill-rule="evenodd" clip-rule="evenodd" d="M15.9498 11.8125C16.0321 11.5086 16.1764 11.4057 16.5275 11.4057C16.7456 11.4057 16.9103 11.4668 17.0249 11.5866V12.3988H17.0862V12.4951C17.0375 12.5308 17.0126 12.6087 17.0287 12.6915C17.0342 12.7199 17.0439 12.7459 17.0567 12.7685C17.0309 12.7591 17.0018 12.7539 16.971 12.7539C16.865 12.7539 16.779 12.816 16.779 12.8925C16.779 12.9691 16.865 13.0312 16.971 13.0312C17.077 13.0312 17.163 12.9691 17.163 12.8926C17.163 12.9311 17.1848 12.966 17.22 12.9911H17.1258H17.1233C17.1233 13.2 17.0346 13.3331 16.902 13.3331C16.8092 13.3331 16.744 13.282 16.6967 13.1696L16.5654 12.8576L16.5515 13.2069C16.5466 13.3301 16.502 13.379 16.3913 13.379C16.2837 13.379 16.2065 13.2992 16.1543 13.1191C16.1698 13.122 16.1862 13.1236 16.203 13.1236C16.309 13.1236 16.395 13.0615 16.395 12.985C16.395 12.9084 16.309 12.8463 16.203 12.8463C16.1818 12.8463 16.1614 12.8488 16.1423 12.8534C16.1544 12.8177 16.1574 12.7751 16.1489 12.731C16.1286 12.6269 16.0513 12.5544 15.9761 12.569C15.901 12.5836 15.8564 12.6798 15.8767 12.7839C15.8822 12.8123 15.8919 12.8383 15.9047 12.8609C15.8789 12.8516 15.8498 12.8463 15.819 12.8463C15.713 12.8463 15.627 12.9084 15.627 12.985C15.627 13.0615 15.713 13.1236 15.819 13.1236C15.905 13.1236 15.9777 13.0828 16.0022 13.0266L15.9962 13.1081C15.9791 13.3382 15.927 13.4461 15.8498 13.4613C15.7446 13.4819 15.6647 13.4721 15.609 13.4358L15.4956 13.362V13.4876C15.46 13.4921 15.3988 13.4841 15.3152 13.4622L15.3021 13.5346L15.1612 13.3751C15.2039 13.3812 15.254 13.3724 15.3012 13.3474C15.3948 13.2976 15.4416 13.2024 15.4056 13.1348C15.3697 13.0672 15.2646 13.0527 15.171 13.1025C15.1514 13.113 15.1338 13.1254 15.1186 13.1392C15.1168 13.124 15.1136 13.1085 15.1089 13.093C15.0778 12.9916 14.9934 12.9276 14.9201 12.9499C14.8874 12.96 14.8624 12.9856 14.8476 13.02L14.7908 12.9556L14.7381 13.0229L14.8345 13.132C14.8363 13.1459 14.8394 13.16 14.8437 13.1741C14.8705 13.2616 14.9371 13.3213 15.0019 13.3216L15.2831 13.64L15.2826 13.6428L15.2865 13.6438L15.4426 13.8206C15.4654 13.8712 15.4857 13.918 15.5035 13.9609C15.5225 14.0526 15.551 14.1542 15.5915 14.2163C15.5952 14.2344 15.5971 14.2493 15.5971 14.2611C15.5971 14.3564 15.8031 14.413 16.2051 14.4711C16.52 14.5166 16.8917 14.5471 17.1957 14.5517V14.5523L17.2343 14.5521L17.2728 14.5523V14.5517C17.5768 14.5471 17.9485 14.5166 18.2635 14.4711C18.6655 14.413 18.8714 14.3564 18.8714 14.2611C18.8714 14.1987 18.9232 14.0483 19.026 13.8206L19.7304 13.0229L19.6778 12.9556L19.5023 13.1544L19.505 13.1458C19.536 13.0444 19.5018 12.944 19.4286 12.9216C19.3554 12.8992 19.2709 12.9633 19.2399 13.0647C19.2351 13.0802 19.2319 13.0957 19.2301 13.1109C19.2149 13.0971 19.1974 13.0847 19.1777 13.0742C19.0841 13.0244 18.9791 13.0389 18.9431 13.1065C18.9072 13.1741 18.9539 13.2693 19.0475 13.319C19.1412 13.3688 19.2462 13.3544 19.2822 13.2868C19.2842 13.2829 19.286 13.2789 19.2876 13.2748C19.2963 13.2809 19.3059 13.2857 19.3163 13.2888C19.3391 13.2958 19.3629 13.2944 19.3859 13.2862L19.1117 13.5966L19.0874 13.4622C19.0038 13.4841 18.9426 13.4921 18.907 13.4876V13.362L18.7936 13.4358C18.7379 13.4721 18.658 13.4819 18.5529 13.4613C18.4756 13.4461 18.4235 13.3382 18.4065 13.1081L18.4051 13.0898C18.4315 13.1056 18.4633 13.117 18.4981 13.1219C18.6031 13.1366 18.6969 13.0871 18.7076 13.0113C18.7182 12.9355 18.6417 12.862 18.5367 12.8473C18.5126 12.8439 18.489 12.8439 18.4669 12.8468C18.486 12.8122 18.4963 12.7679 18.4938 12.7202C18.4882 12.6143 18.4218 12.5317 18.3453 12.5357C18.2688 12.5397 18.2113 12.6288 18.2169 12.7347C18.2182 12.7596 18.2229 12.7833 18.2303 12.8048C18.2082 12.7943 18.1832 12.7867 18.1565 12.783C18.0514 12.7682 17.9577 12.8177 17.947 12.8935C17.9364 12.9694 18.0129 13.0428 18.1179 13.0576C18.1774 13.0659 18.2333 13.0536 18.2725 13.0276L18.2566 13.0888C18.2044 13.2902 18.1248 13.379 18.0113 13.379C17.9006 13.379 17.856 13.3301 17.8511 13.2069L17.8372 12.8576L17.7059 13.1696C17.6586 13.282 17.5934 13.3331 17.5006 13.3331C17.3742 13.3331 17.2878 13.2122 17.2799 13.0202C17.303 13.0273 17.3284 13.0312 17.355 13.0312C17.461 13.0312 17.547 12.9691 17.547 12.8925C17.547 12.816 17.461 12.7539 17.355 12.7539C17.3338 12.7539 17.3134 12.7564 17.2943 12.761C17.3064 12.7253 17.3094 12.6827 17.3009 12.6386C17.2924 12.5953 17.2741 12.5575 17.2502 12.5291H17.3934L17.3934 12.4131V11.6009C17.508 11.4811 17.6726 11.42 17.8907 11.42C18.2419 11.42 18.3861 11.5229 18.4685 11.8268C18.521 12.0205 18.4701 12.1858 18.305 12.3401L18.3992 12.4861C18.5837 12.3137 18.6651 12.1079 18.6365 11.8799C19.0315 11.8641 19.3268 11.9148 19.5207 12.0287C19.6895 12.1279 19.7204 12.3796 19.5926 12.8174L19.7376 12.8787C19.8879 12.3634 19.845 12.0135 19.5881 11.8626C19.3617 11.7296 19.0317 11.6754 18.5966 11.6967L18.597 11.71C18.4871 11.367 18.2817 11.2351 17.8907 11.2351C17.6922 11.2351 17.5259 11.2812 17.3934 11.3745V11.3275H17.0862V11.4089C16.9451 11.2829 16.758 11.2208 16.5275 11.2208C16.1446 11.2208 15.9396 11.3474 15.8281 11.6749L15.8305 11.6042C15.3954 11.583 15.0654 11.6371 14.839 11.7701C14.5821 11.9211 14.5391 12.271 14.6895 12.7862L14.8344 12.725C14.7066 12.2872 14.7375 12.0355 14.9064 11.9363C15.1011 11.8219 15.398 11.7712 15.7956 11.7877C15.7362 12.0469 15.8138 12.28 16.0191 12.4718L16.1133 12.3258C15.9482 12.1715 15.8972 12.0062 15.9498 11.8125ZM17.1702 12.8547C17.165 12.8541 17.1597 12.8531 17.1546 12.8518C17.16 12.8647 17.163 12.8784 17.163 12.8925C17.163 12.8794 17.1655 12.8667 17.1702 12.8547ZM16.0073 12.9578C16.006 12.9531 16.0044 12.9486 16.0026 12.9442L16.0082 12.9455L16.0073 12.9578ZM19.0577 13.6577C18.9319 13.6845 18.8411 13.6818 18.7929 13.6346C18.7176 13.661 18.6291 13.6635 18.5282 13.6437C18.4204 13.6226 18.3453 13.5363 18.3001 13.3931C18.2411 13.4836 18.1665 13.5394 18.0772 13.5574C18.5687 13.6413 18.9129 13.7592 18.9129 13.7592C18.9129 13.7592 18.9044 13.8468 18.8838 13.9498C18.9057 13.8959 18.9315 13.836 18.9615 13.7699L18.9689 13.7583L19.0577 13.6577ZM17.8453 13.5223C17.8025 13.4967 17.7684 13.4597 17.7437 13.4119C17.7071 13.4509 17.6654 13.4793 17.6191 13.4969C17.6964 13.504 17.772 13.5126 17.8453 13.5223ZM17.348 13.4789C17.2882 13.4457 17.2385 13.3924 17.2013 13.3241C17.1644 13.3919 17.1151 13.4449 17.0559 13.4782C17.091 13.477 17.1263 13.4761 17.1618 13.4756V13.4752L17.1925 13.4753L17.2233 13.4752V13.4756C17.2652 13.4762 17.3067 13.4773 17.348 13.4789ZM15.4941 13.752L15.4225 13.6709C15.5084 13.6812 15.5721 13.6714 15.6097 13.6346C15.6851 13.661 15.7735 13.6635 15.8744 13.6437C15.9822 13.6226 16.0573 13.5363 16.1025 13.3931C16.1598 13.4809 16.2318 13.5361 16.3177 13.5558C15.8939 13.6274 15.5778 13.7249 15.4941 13.752ZM16.7801 13.4956C16.7057 13.5023 16.6329 13.5103 16.562 13.5194C16.6026 13.494 16.6351 13.4579 16.6589 13.4119C16.6946 13.4499 16.7352 13.478 16.7801 13.4956ZM18.6695 14.263C18.7233 14.2933 18.7665 14.263 18.8006 14.205C18.7976 14.221 18.7958 14.2355 18.795 14.2485C18.7905 14.252 18.7836 14.2563 18.7745 14.2609C18.7492 14.2737 18.7106 14.2873 18.6604 14.3011C18.5616 14.3283 18.4209 14.3552 18.2543 14.3793C17.9289 14.4263 17.5419 14.4573 17.2343 14.4597C16.9266 14.4573 16.5397 14.4263 16.2142 14.3793C16.0476 14.3552 15.907 14.3283 15.8082 14.3011C15.7661 14.2896 15.7321 14.2781 15.7073 14.2672C15.71 14.2659 15.7128 14.2645 15.7156 14.263C15.8833 14.1685 16.9928 14.0798 17.1925 14.0645C17.3923 14.0798 18.5017 14.1685 18.6695 14.263ZM18.8925 14.246L18.8913 14.2476L18.892 14.2465L18.8925 14.246Z" fill="#FECA00"/>
<path d="M15.8496 11.5288L15.8482 11.6212C15.1672 11.6069 14.7766 11.7265 14.6775 11.9648C14.5749 12.2113 14.594 12.5109 14.7377 12.8667L14.6686 12.9071C14.5153 12.5274 14.4944 12.1985 14.6088 11.9235C14.7265 11.6404 15.1398 11.5139 15.8496 11.5288Z" fill="white"/>
<path d="M15.9813 12.3483L15.9419 12.4277C15.7936 12.3211 15.7194 12.1392 15.7194 11.8886C15.7194 11.5284 15.8736 11.3172 16.2146 11.1726C16.4323 11.0804 16.7296 11.1182 17.1075 11.2831L17.0813 11.3699C16.7186 11.2117 16.4379 11.176 16.2402 11.2598C15.9273 11.3924 15.7962 11.572 15.7962 11.8886C15.7962 12.1085 15.8579 12.2596 15.9813 12.3483Z" fill="white"/>
<path d="M18.5296 11.6212L18.531 11.7136C19.212 11.6993 19.6026 11.8189 19.7017 12.0572C19.8042 12.3037 19.7852 12.6033 19.6415 12.9591L19.7106 12.9995C19.8639 12.6198 19.8848 12.2909 19.7704 12.0159C19.6526 11.7328 19.2394 11.6063 18.5296 11.6212Z" fill="white"/>
<path d="M18.2891 12.3675L18.3285 12.4468C18.4768 12.3403 18.551 12.1584 18.551 11.9078C18.551 11.5476 18.3969 11.3363 18.0558 11.1918C17.8382 11.0995 17.5408 11.1374 17.163 11.3022L17.1892 11.3891C17.5519 11.2308 17.8325 11.1951 18.0303 11.279C18.3431 11.4115 18.4742 11.5912 18.4742 11.9078C18.4742 12.1277 18.4126 12.2788 18.2891 12.3675Z" fill="white"/>
</g>
</g>
</g>
<rect x="1.75" y="1.25" width="23.5" height="17.5" stroke="black" stroke-opacity="0.1" stroke-width="0.5" shape-rendering="crispEdges"/>
</g>
<defs>
<filter id="filter0_dd_701_22765" x="0" y="0" width="27" height="21" filterUnits="userSpaceOnUse" color-interpolation-filters="sRGB">
<feFlood flood-opacity="0" result="BackgroundImageFix"/>
<feColorMatrix in="SourceAlpha" type="matrix" values="0 0 0 0 0 0 0 0 0 0 0 0 0 0 0 0 0 0 127 0" result="hardAlpha"/>
<feOffset dy="0.5"/>
<feGaussianBlur stdDeviation="0.75"/>
<feComposite in2="hardAlpha" operator="out"/>
<feColorMatrix type="matrix" values="0 0 0 0 0 0 0 0 0 0 0 0 0 0 0 0 0 0 0.1 0"/>
<feBlend mode="multiply" in2="BackgroundImageFix" result="effect1_dropShadow_701_22765"/>
<feColorMatrix in="SourceAlpha" type="matrix" values="0 0 0 0 0 0 0 0 0 0 0 0 0 0 0 0 0 0 127 0" result="hardAlpha"/>
<feOffset/>
<feGaussianBlur stdDeviation="0.5"/>
<feComposite in2="hardAlpha" operator="out"/>
<feColorMatrix type="matrix" values="0 0 0 0 0 0 0 0 0 0 0 0 0 0 0 0 0 0 0.11 0"/>
<feBlend mode="multiply" in2="effect1_dropShadow_701_22765" result="effect2_dropShadow_701_22765"/>
<feBlend mode="normal" in="SourceGraphic" in2="effect2_dropShadow_701_22765" result="shape"/>
</filter>
<clipPath id="clip0_701_22765">
<rect x="1.5" y="1" width="24" height="18" fill="white"/>
</clipPath>
</defs>
</svg>