<svg width="27" height="21" viewBox="0 0 27 21" fill="none" xmlns="http://www.w3.org/2000/svg">
<g filter="url(#filter0_dd_701_24699)">
<g clip-path="url(#clip0_701_24699)">
<mask id="mask0_701_24699" style="mask-type:alpha" maskUnits="userSpaceOnUse" x="1" y="1" width="25" height="18">
<rect x="1.5" y="1" width="24" height="18" fill="white"/>
</mask>
<g mask="url(#mask0_701_24699)">
<path fill-rule="evenodd" clip-rule="evenodd" d="M1.5 1H25.5V19H1.5V1Z" fill="white"/>
<path fill-rule="evenodd" clip-rule="evenodd" d="M1.5 9.2V1H13.5L1.5 9.2Z" fill="#FEDA00"/>
<path fill-rule="evenodd" clip-rule="evenodd" d="M1.5 19H25.5068V1L1.5 19Z" fill="#00268D"/>
<mask id="path-7-inside-1_701_24699" fill="white">
<path fill-rule="evenodd" clip-rule="evenodd" d="M8.515 4.75L8.91016 5.59842C10.5195 5.79046 11.7732 7.14074 11.814 8.79199L12.53 9.15L11.7477 9.54113C11.4675 10.9082 10.3419 11.9671 8.94113 12.1477L8.515 13L8.08887 12.1477C6.68808 11.9671 5.56248 10.9082 5.28226 9.54113L4.5 9.15L5.21602 8.79199C5.25657 7.14993 6.49658 5.80549 8.09302 5.60173L8.515 4.75Z"/>
</mask>
<path fill-rule="evenodd" clip-rule="evenodd" d="M8.515 4.75L8.91016 5.59842C10.5195 5.79046 11.7732 7.14074 11.814 8.79199L12.53 9.15L11.7477 9.54113C11.4675 10.9082 10.3419 11.9671 8.94113 12.1477L8.515 13L8.08887 12.1477C6.68808 11.9671 5.56248 10.9082 5.28226 9.54113L4.5 9.15L5.21602 8.79199C5.25657 7.14993 6.49658 5.80549 8.09302 5.60173L8.515 4.75Z" fill="white"/>
<path d="M8.91016 5.59842L8.19221 5.93281L8.37841 6.33258L8.81631 6.38484L8.91016 5.59842ZM8.515 4.75L9.23295 4.41561L8.53705 2.92149L7.80532 4.3984L8.515 4.75ZM11.814 8.79199L11.0222 8.81154L11.034 9.28747L11.4598 9.50037L11.814 8.79199ZM12.53 9.15L12.8842 9.85839L14.301 9.15L12.8842 8.44161L12.53 9.15ZM11.7477 9.54113L11.3935 8.83275L11.0492 9.00493L10.9719 9.3821L11.7477 9.54113ZM8.94113 12.1477L8.83986 11.3622L8.42142 11.4162L8.23274 11.7935L8.94113 12.1477ZM8.515 13L7.80661 13.3542L8.515 14.771L9.22339 13.3542L8.515 13ZM8.08887 12.1477L8.79726 11.7935L8.60858 11.4162L8.19014 11.3622L8.08887 12.1477ZM5.28226 9.54113L6.05813 9.3821L5.98082 9.00493L5.63646 8.83274L5.28226 9.54113ZM4.5 9.15L4.14581 8.44161L2.72903 9.15L4.14581 9.85839L4.5 9.15ZM5.21602 8.79199L5.57022 9.50037L5.99603 9.28747L6.00778 8.81154L5.21602 8.79199ZM8.09302 5.60173L8.19329 6.38735L8.61428 6.33362L8.80269 5.95333L8.09302 5.60173ZM9.6281 5.26402L9.23295 4.41561L7.79705 5.08439L8.19221 5.93281L9.6281 5.26402ZM12.6057 8.77244C12.5552 6.72392 11.0005 5.05025 9.004 4.81199L8.81631 6.38484C10.0385 6.53068 10.9913 7.55757 11.0222 8.81154L12.6057 8.77244ZM12.8842 8.44161L12.1682 8.0836L11.4598 9.50037L12.1758 9.85839L12.8842 8.44161ZM12.1019 10.2495L12.8842 9.85839L12.1758 8.44161L11.3935 8.83275L12.1019 10.2495ZM9.0424 12.9332C10.7812 12.7091 12.1759 11.3963 12.5236 9.70017L10.9719 9.3821C10.7591 10.4201 9.90261 11.2252 8.83986 11.3622L9.0424 12.9332ZM8.23274 11.7935L7.80661 12.6458L9.22339 13.3542L9.64952 12.5019L8.23274 11.7935ZM9.22339 12.6458L8.79726 11.7935L7.38048 12.5019L7.80661 13.3542L9.22339 12.6458ZM4.50639 9.70016C4.85406 11.3963 6.24877 12.7091 7.9876 12.9332L8.19014 11.3622C7.12739 11.2252 6.2709 10.4201 6.05813 9.3821L4.50639 9.70016ZM4.14581 9.85839L4.92807 10.2495L5.63646 8.83274L4.85419 8.44161L4.14581 9.85839ZM4.86183 8.0836L4.14581 8.44161L4.85419 9.85839L5.57022 9.50037L4.86183 8.0836ZM7.99274 4.8161C6.01224 5.06889 4.47456 6.73527 4.42426 8.77244L6.00778 8.81154C6.03857 7.56459 6.98092 6.5421 8.19329 6.38735L7.99274 4.8161ZM7.80532 4.3984L7.38334 5.25012L8.80269 5.95333L9.22468 5.1016L7.80532 4.3984Z" fill="black" mask="url(#path-7-inside-1_701_24699)"/>
<path fill-rule="evenodd" clip-rule="evenodd" d="M8.53184 7.22498L8.04506 8.04177H7.08499L7.56372 8.8999L7.08499 9.72302H8.04506L8.53184 10.5628L9.02603 9.72302H9.97747L9.51045 8.8999L9.97747 8.04177H9.02603L8.53184 7.22498Z" fill="#F00A17"/>
</g>
</g>
<rect x="1.75" y="1.25" width="23.5" height="17.5" stroke="black" stroke-opacity="0.1" stroke-width="0.5" shape-rendering="crispEdges"/>
</g>
<defs>
<filter id="filter0_dd_701_24699" x="0" y="0" width="27" height="21" filterUnits="userSpaceOnUse" color-interpolation-filters="sRGB">
<feFlood flood-opacity="0" result="BackgroundImageFix"/>
<feColorMatrix in="SourceAlpha" type="matrix" values="0 0 0 0 0 0 0 0 0 0 0 0 0 0 0 0 0 0 127 0" result="hardAlpha"/>
<feOffset dy="0.5"/>
<feGaussianBlur stdDeviation="0.75"/>
<feComposite in2="hardAlpha" operator="out"/>
<feColorMatrix type="matrix" values="0 0 0 0 0 0 0 0 0 0 0 0 0 0 0 0 0 0 0.1 0"/>
<feBlend mode="multiply" in2="BackgroundImageFix" result="effect1_dropShadow_701_24699"/>
<feColorMatrix in="SourceAlpha" type="matrix" values="0 0 0 0 0 0 0 0 0 0 0 0 0 0 0 0 0 0 127 0" result="hardAlpha"/>
<feOffset/>
<feGaussianBlur stdDeviation="0.5"/>
<feComposite in2="hardAlpha" operator="out"/>
<feColorMatrix type="matrix" values="0 0 0 0 0 0 0 0 0 0 0 0 0 0 0 0 0 0 0.11 0"/>
<feBlend mode="multiply" in2="effect1_dropShadow_701_24699" result="effect2_dropShadow_701_24699"/>
<feBlend mode="normal" in="SourceGraphic" in2="effect2_dropShadow_701_24699" result="shape"/>
</filter>
<clipPath id="clip0_701_24699">
<rect x="1.5" y="1" width="24" height="18" fill="white"/>
</clipPath>
</defs>
</svg>
