<svg width="27" height="21" viewBox="0 0 27 21" fill="none" xmlns="http://www.w3.org/2000/svg">
<g filter="url(#filter0_dd_701_24334)">
<g clip-path="url(#clip0_701_24334)">
<mask id="mask0_701_24334" style="mask-type:alpha" maskUnits="userSpaceOnUse" x="1" y="1" width="25" height="18">
<rect x="1.5" y="1" width="24" height="18" fill="white"/>
</mask>
<g mask="url(#mask0_701_24334)">
<path fill-rule="evenodd" clip-rule="evenodd" d="M1.5 1H25.5V19H1.5V1Z" fill="#5EAA22"/>
<path fill-rule="evenodd" clip-rule="evenodd" d="M19.5 6.25L18.75 6.79904L18.8505 5.875L18 5.5L18.8505 5.125L18.75 4.20096L19.5 4.75L20.25 4.20096L20.1495 5.125L21 5.5L20.1495 5.875L20.25 6.79904L19.5 6.25Z" fill="#FECA00"/>
<path fill-rule="evenodd" clip-rule="evenodd" d="M18.7221 11.259L17.9721 11.808L18.0726 10.884L17.2221 10.509L18.0726 10.134L17.9721 9.20996L18.7221 9.759L19.4721 9.20996L19.3716 10.134L20.2221 10.509L19.3716 10.884L19.4721 11.808L18.7221 11.259Z" fill="#FECA00"/>
<path fill-rule="evenodd" clip-rule="evenodd" d="M21 15.25L20.25 15.799L20.3505 14.875L19.5 14.5L20.3505 14.125L20.25 13.201L21 13.75L21.75 13.201L21.6495 14.125L22.5 14.5L21.6495 14.875L21.75 15.799L21 15.25Z" fill="#FECA00"/>
<path fill-rule="evenodd" clip-rule="evenodd" d="M21.75 8.125L21.375 8.39952L21.4252 7.9375L21 7.75L21.4252 7.5625L21.375 7.10048L21.75 7.375L22.125 7.10048L22.0748 7.5625L22.5 7.75L22.0748 7.9375L22.125 8.39952L21.75 8.125Z" fill="#FECA00"/>
<path fill-rule="evenodd" clip-rule="evenodd" d="M6.75 11.5C8.82107 11.5 10.5 9.82107 10.5 7.75C10.5 5.67893 8.82107 4 6.75 4C4.67893 4 3 5.67893 3 7.75C3 9.82107 4.67893 11.5 6.75 11.5Z" fill="#FECA00"/>
<path fill-rule="evenodd" clip-rule="evenodd" d="M16.4233 12.2087C15.9297 13.0559 15.1452 13.4404 14.0952 13.4404C12.5238 13.4404 11.25 12.1665 11.25 10.5952C11.25 9.02384 12.5238 7.75 14.0952 7.75C15.2941 7.75 16.2507 8.16946 16.6895 9.31195C16.3421 8.96743 15.8044 8.73111 15 8.76106C13.7574 8.76106 12.949 9.72914 12.949 10.5576C12.949 11.386 13.7574 12.5121 15 12.5121C15.625 12.5028 16.0867 12.3885 16.4233 12.2087Z" fill="#FECA00"/>
<path d="M7.18686 7.52017C7.18686 7.52017 6.45363 10.2059 6.15087 10.46C6.01685 10.5191 7.36486 10.46 7.36486 10.46C7.36486 10.46 6.85953 10.2389 7.03753 9.94463C7.21554 9.65036 7.44807 7.75705 7.36486 7.11215C7.28164 6.46725 7.18686 7.52017 7.18686 7.52017Z" fill="#915E2B"/>
<path fill-rule="evenodd" clip-rule="evenodd" d="M7.34286 7.61996C7.34286 7.61996 8.12911 7.85607 8.12911 8.25785C8.12911 8.65963 8.78319 9.22434 8.78319 8.68955C8.78319 8.15475 8.66083 7.61996 8.39497 7.61996C8.12911 7.61996 8.52501 7.26041 8.75237 7.559C8.97972 7.85758 9.77696 7.53092 9.61503 7.32138C9.4531 7.11183 8.8783 6.85071 8.78319 6.85071C8.68808 6.85071 9.43728 6.3403 8.78319 6.3403C8.12911 6.3403 8.50422 6.77628 8.06096 6.3134C7.6177 5.85052 8.24968 6.53935 8.24968 5.76204C8.24968 4.98473 8.07036 4.66713 7.47828 5.10344C6.88621 5.53976 6.99973 5.26303 6.789 5.09852C6.57826 4.934 6.39333 5.70083 6.62524 5.85736C6.85714 6.0139 7.11422 6.40186 6.88232 6.40186C6.65041 6.40186 6.48668 6.17799 6.48668 6.01768C6.48668 5.85736 5.85564 5.57422 5.25672 5.57422C4.65779 5.57422 5.0453 6.01768 5.25672 6.01768C5.46813 6.01768 6.41489 6.3403 5.94151 6.3403C5.46813 6.3403 5.97807 6.1016 5.38139 6.1016C4.78471 6.1016 4.09111 5.82988 4.09111 6.3403C4.09111 6.85071 4.68732 7.07683 4.87357 6.85071C5.05983 6.62459 5.27516 6.2434 5.27516 6.62397C5.27516 7.00454 4.80058 6.84916 4.09111 7.08527C3.38163 7.32138 3.58522 7.94384 4.43158 7.79182C5.27795 7.6398 5.18637 7.64808 5.52617 7.41198C5.86597 7.17587 6.2865 7.2417 5.94151 7.61996C5.59651 7.99822 5.25152 8.68955 5.59651 8.68955C5.94151 8.68955 6.16391 8.78361 6.16391 8.41816C6.16391 8.05271 6.36418 7.34122 6.36418 7.79182C6.36418 8.24242 6.62524 8.58207 6.85714 8.41816C7.08905 8.25426 6.80314 7.7414 7.06788 7.7414C7.33261 7.7414 7.34286 7.61996 7.34286 7.61996Z" fill="#5EAA22"/>
</g>
</g>
<rect x="1.75" y="1.25" width="23.5" height="17.5" stroke="black" stroke-opacity="0.1" stroke-width="0.5" shape-rendering="crispEdges"/>
</g>
<defs>
<filter id="filter0_dd_701_24334" x="0" y="0" width="27" height="21" filterUnits="userSpaceOnUse" color-interpolation-filters="sRGB">
<feFlood flood-opacity="0" result="BackgroundImageFix"/>
<feColorMatrix in="SourceAlpha" type="matrix" values="0 0 0 0 0 0 0 0 0 0 0 0 0 0 0 0 0 0 127 0" result="hardAlpha"/>
<feOffset dy="0.5"/>
<feGaussianBlur stdDeviation="0.75"/>
<feComposite in2="hardAlpha" operator="out"/>
<feColorMatrix type="matrix" values="0 0 0 0 0 0 0 0 0 0 0 0 0 0 0 0 0 0 0.1 0"/>
<feBlend mode="multiply" in2="BackgroundImageFix" result="effect1_dropShadow_701_24334"/>
<feColorMatrix in="SourceAlpha" type="matrix" values="0 0 0 0 0 0 0 0 0 0 0 0 0 0 0 0 0 0 127 0" result="hardAlpha"/>
<feOffset/>
<feGaussianBlur stdDeviation="0.5"/>
<feComposite in2="hardAlpha" operator="out"/>
<feColorMatrix type="matrix" values="0 0 0 0 0 0 0 0 0 0 0 0 0 0 0 0 0 0 0.11 0"/>
<feBlend mode="multiply" in2="effect1_dropShadow_701_24334" result="effect2_dropShadow_701_24334"/>
<feBlend mode="normal" in="SourceGraphic" in2="effect2_dropShadow_701_24334" result="shape"/>
</filter>
<clipPath id="clip0_701_24334">
<rect x="1.5" y="1" width="24" height="18" fill="white"/>
</clipPath>
</defs>
</svg>
