<svg width="27" height="21" viewBox="0 0 27 21" fill="none" xmlns="http://www.w3.org/2000/svg">
<g filter="url(#filter0_dd_701_19041)">
<g clip-path="url(#clip0_701_19041)">
<rect x="1.5" y="1" width="24" height="18" fill="#19BFBF"/>
<path fill-rule="evenodd" clip-rule="evenodd" d="M13.0397 3.97133C12.9675 3.97133 12.8974 3.99472 12.8397 4.038L10.6967 5.64523C10.6611 5.67189 10.6206 5.69117 10.5775 5.70194L8.39261 6.24817C8.36902 6.25407 8.34614 6.26253 8.32438 6.27341L6.17078 7.35021C6.10627 7.38247 6.05396 7.43477 6.02171 7.49928L5.01505 9.5126C4.96155 9.61959 4.96949 9.74704 5.03584 9.84657L6.01541 11.3159C6.05192 11.3707 6.0714 11.435 6.0714 11.5008V12.9761C6.0714 13.0645 6.10652 13.1493 6.16903 13.2118L7.04437 14.0872C7.14582 14.1886 7.30081 14.2138 7.42914 14.1496L10.5724 12.578C10.6187 12.5548 10.6698 12.5428 10.7215 12.5428H12.8079C12.8858 12.5428 12.9613 12.5701 13.0213 12.62L16.2644 15.3226C16.3243 15.3726 16.3998 15.3999 16.4778 15.3999H18.4644C18.5759 15.3999 18.68 15.3442 18.7418 15.2515L20.8726 12.0553C20.9091 12.0006 20.9285 11.9362 20.9285 11.8704V9.78654C20.9285 9.72073 20.9091 9.6564 20.8726 9.60164L18.6428 6.25705L17.0256 3.56174C16.9654 3.46134 16.8569 3.3999 16.7398 3.3999H16.408C16.1784 3.3999 16.0633 3.67756 16.2257 3.83995C16.3042 3.91841 16.3236 4.03827 16.274 4.13751L15.8778 4.92993C15.8214 5.04285 15.7059 5.11419 15.5797 5.11419H14.2774C14.1512 5.11419 14.0357 5.04285 13.9793 4.92993L13.5921 4.15559C13.5356 4.04267 13.4202 3.97133 13.294 3.97133H13.0397ZM18.0715 15.9714H16.9286L17.2643 16.3071C17.3945 16.4373 17.6055 16.4373 17.7357 16.3071L18.0715 15.9714Z" fill="white"/>
</g>
<rect x="1.75" y="1.25" width="23.5" height="17.5" stroke="black" stroke-opacity="0.1" stroke-width="0.5" shape-rendering="crispEdges"/>
</g>
<defs>
<filter id="filter0_dd_701_19041" x="0" y="0" width="27" height="21" filterUnits="userSpaceOnUse" color-interpolation-filters="sRGB">
<feFlood flood-opacity="0" result="BackgroundImageFix"/>
<feColorMatrix in="SourceAlpha" type="matrix" values="0 0 0 0 0 0 0 0 0 0 0 0 0 0 0 0 0 0 127 0" result="hardAlpha"/>
<feOffset dy="0.5"/>
<feGaussianBlur stdDeviation="0.75"/>
<feComposite in2="hardAlpha" operator="out"/>
<feColorMatrix type="matrix" values="0 0 0 0 0 0 0 0 0 0 0 0 0 0 0 0 0 0 0.1 0"/>
<feBlend mode="multiply" in2="BackgroundImageFix" result="effect1_dropShadow_701_19041"/>
<feColorMatrix in="SourceAlpha" type="matrix" values="0 0 0 0 0 0 0 0 0 0 0 0 0 0 0 0 0 0 127 0" result="hardAlpha"/>
<feOffset/>
<feGaussianBlur stdDeviation="0.5"/>
<feComposite in2="hardAlpha" operator="out"/>
<feColorMatrix type="matrix" values="0 0 0 0 0 0 0 0 0 0 0 0 0 0 0 0 0 0 0.11 0"/>
<feBlend mode="multiply" in2="effect1_dropShadow_701_19041" result="effect2_dropShadow_701_19041"/>
<feBlend mode="normal" in="SourceGraphic" in2="effect2_dropShadow_701_19041" result="shape"/>
</filter>
<clipPath id="clip0_701_19041">
<rect x="1.5" y="1" width="24" height="18" fill="white"/>
</clipPath>
</defs>
</svg>
