<svg viewBox="0 0 27 21" fill="none" xmlns="http://www.w3.org/2000/svg">
<g filter="url(#filter0_dd_701_21261)">
<g clip-path="url(#clip0_701_21261)">
<mask id="mask0_701_21261" style="mask-type:alpha" maskUnits="userSpaceOnUse" x="1" y="1" width="25" height="18">
<rect x="1.5" y="1" width="24" height="18" fill="white"/>
</mask>
<g mask="url(#mask0_701_21261)">
<path fill-rule="evenodd" clip-rule="evenodd" d="M7.5 1H20.25V19H7.5V1Z" fill="#F7FCFF"/>
<path fill-rule="evenodd" clip-rule="evenodd" d="M19.5 1H25.5V19H19.5V1Z" fill="#F50101"/>
<path fill-rule="evenodd" clip-rule="evenodd" d="M1.5 1H7.5V19H1.5V1Z" fill="#F50101"/>
<path d="M13.306 7.55874L13.3311 7.8302C12.5823 7.90593 12.1777 7.54004 12.1777 6.78064C12.1777 6.0271 12.5736 5.62657 13.3178 5.62183L13.3194 5.89455C12.7164 5.89839 12.4386 6.17948 12.4386 6.78064C12.4386 7.37593 12.7077 7.61925 13.306 7.55874Z" fill="#A2BB6A"/>
<path d="M13.6376 7.55874L13.6125 7.8302C14.3614 7.90593 14.7659 7.54004 14.7659 6.78064C14.7659 6.0271 14.3701 5.62657 13.6259 5.62183L13.6243 5.89455C14.2273 5.89839 14.505 6.17948 14.505 6.78064C14.505 7.37593 14.236 7.61925 13.6376 7.55874Z" fill="#A2BB6A"/>
<path fill-rule="evenodd" clip-rule="evenodd" d="M12.8547 13.8418C12.6394 13.919 11.1796 13.8418 11.1796 13.8418V14.2484H12.1474C12.4704 14.2484 12.5924 14.3062 12.7044 14.3592C12.7993 14.4042 12.887 14.4457 13.0835 14.4457C13.4662 14.4457 13.4592 14.161 13.4534 13.924C13.4527 13.8957 13.452 13.8682 13.452 13.8418C13.452 13.7411 13.4677 13.6849 13.48 13.6412C13.4978 13.5776 13.5082 13.5404 13.452 13.431C13.3572 13.2463 12.4556 13.2709 12.4556 13.431C12.4556 13.5064 12.5923 13.585 12.7141 13.655C12.8506 13.7334 12.9685 13.8011 12.8547 13.8418ZM14.1668 13.8418C14.3821 13.919 15.842 13.8418 15.842 13.8418V14.2484H14.8741C14.5512 14.2484 14.4291 14.3062 14.3171 14.3592C14.2222 14.4042 14.1345 14.4457 13.938 14.4457C13.5553 14.4457 13.5623 14.161 13.5682 13.924C13.5689 13.8957 13.5695 13.8682 13.5695 13.8418C13.5695 13.7411 13.5538 13.6849 13.5416 13.6412C13.5238 13.5776 13.5133 13.5404 13.5695 13.431C13.6643 13.2463 14.5659 13.2709 14.5659 13.431C14.5659 13.5064 14.4293 13.585 14.3074 13.655C14.1709 13.7334 14.053 13.8011 14.1668 13.8418Z" fill="#E31D1C"/>
<path fill-rule="evenodd" clip-rule="evenodd" d="M13.8053 13.8808C13.8053 13.8808 14.9445 13.7676 15.2022 13.3568C15.4598 12.946 15.889 12.2446 16.0399 12.0748C16.1908 11.905 16.2006 12.3173 16.2006 12.3173C16.2006 12.3173 16.4495 12.6704 16.4495 12.2189C16.4495 11.7674 16.2724 12.0829 16.0399 11.4035C15.8073 10.7241 15.6765 10.0578 15.7419 9.95689C15.8073 9.85603 15.9622 10.0578 15.9622 9.95689C15.9622 9.85603 15.9622 9.65859 15.9622 9.65859L16.2006 9.95689L16.4495 9.8624C16.4495 9.8624 16.6545 10.3013 16.7807 10.4372C16.9069 10.5731 16.9808 10.2552 16.9438 9.95689C16.9069 9.65859 16.4495 9.65859 16.4495 9.65859C16.4495 9.65859 15.8645 9.34326 15.8645 9.21111C15.8645 9.07896 16.1174 9.11832 16.1174 9.11832L16.0399 8.70912C16.0399 8.70912 16.2489 8.95765 16.3492 8.83339C16.4495 8.70912 16.2006 8.49106 16.2006 8.49106H16.5974V8.29942L16.7807 8.40199L16.5974 7.98352C16.5974 7.98352 16.06 8.06445 15.9622 7.98352C15.8645 7.90259 15.5567 7.58713 15.5567 7.58713V7.43738H15.3793L15.5567 7.137V6.65867L16.2006 6.78703V6.43335C16.2006 6.43335 17.107 6.87522 16.9438 7.23118C16.7807 7.58713 16.7807 7.98352 16.7807 7.98352V8.29942C16.7807 8.29942 16.8078 8.20272 16.9438 8.20272C17.0798 8.20272 17.2346 8.27299 17.2346 8.49106C17.2346 8.70912 17.5115 8.40199 17.5115 8.40199V9.3092C17.5115 9.3092 17.5766 9.40728 17.719 9.3092C17.8613 9.21111 17.7989 9.28762 17.3714 9.8624C16.9438 10.4372 17.0978 10.4387 17.2346 10.2979C17.3714 10.1571 17.9264 9.75671 17.719 9.95689C17.5115 10.1571 17.4978 10.5765 17.719 10.4372C17.9402 10.2979 17.8975 10.1988 17.8975 10.4372C17.8975 10.6756 17.5082 11.4869 17.3714 11.614C17.2346 11.7412 17.107 11.8193 16.9438 11.947C16.7807 12.0748 16.5974 12.2257 16.5974 12.3173C16.5974 12.4089 16.9438 12.2189 16.9438 12.2189L16.7807 12.8013H17.0978C17.0978 12.8013 16.8454 13.5747 16.3492 13.5747C15.853 13.5747 15.479 13.5747 15.3793 13.5747C15.2796 13.5747 14.8292 13.7872 14.8292 13.7872L14.4996 13.8808C14.4996 13.8808 15.025 13.931 15.2022 14.0888C15.3793 14.2465 15.2022 14.3565 15.2022 14.3565C15.2022 14.3565 14.7159 14.3083 14.3529 14.1985C13.9899 14.0888 13.8053 14.2967 13.8053 14.0888C13.8053 13.8808 13.8053 13.8808 13.8053 13.8808Z" fill="#00A854"/>
<path fill-rule="evenodd" clip-rule="evenodd" d="M17.087 7.68153C17.087 7.75684 17.0286 7.81789 16.9565 7.81789C16.8845 7.81789 16.8261 7.75684 16.8261 7.68153C16.8261 7.60622 16.8845 7.54517 16.9565 7.54517C17.0286 7.54517 17.087 7.60622 17.087 7.68153ZM16.4348 8.22698C16.4348 8.3023 16.3764 8.36335 16.3043 8.36335C16.2323 8.36335 16.1739 8.3023 16.1739 8.22698C16.1739 8.15167 16.2323 8.09062 16.3043 8.09062C16.3764 8.09062 16.4348 8.15167 16.4348 8.22698ZM17.087 8.09062C17.159 8.09062 17.2174 8.02957 17.2174 7.95426C17.2174 7.87895 17.159 7.81789 17.087 7.81789C17.0149 7.81789 16.9565 7.87895 16.9565 7.95426C16.9565 8.02957 17.0149 8.09062 17.087 8.09062ZM16.8261 10.1361C16.8261 10.2114 16.7677 10.2724 16.6957 10.2724C16.6236 10.2724 16.5652 10.2114 16.5652 10.1361C16.5652 10.0608 16.6236 9.99971 16.6957 9.99971C16.7677 9.99971 16.8261 10.0608 16.8261 10.1361ZM16.1739 11.9088C16.246 11.9088 16.3043 11.8478 16.3043 11.7724C16.3043 11.6971 16.246 11.6361 16.1739 11.6361C16.1019 11.6361 16.0435 11.6971 16.0435 11.7724C16.0435 11.8478 16.1019 11.9088 16.1739 11.9088ZM17.2174 12.1815C17.2174 12.2568 17.159 12.3179 17.087 12.3179C17.0149 12.3179 16.9565 12.2568 16.9565 12.1815C16.9565 12.1062 17.0149 12.0452 17.087 12.0452C17.159 12.0452 17.2174 12.1062 17.2174 12.1815ZM17.3478 12.0452C17.4199 12.0452 17.4783 11.9841 17.4783 11.9088C17.4783 11.8335 17.4199 11.7724 17.3478 11.7724C17.2758 11.7724 17.2174 11.8335 17.2174 11.9088C17.2174 11.9841 17.2758 12.0452 17.3478 12.0452ZM17.3478 9.99971C17.3478 10.075 17.2894 10.1361 17.2174 10.1361C17.1454 10.1361 17.087 10.075 17.087 9.99971C17.087 9.9244 17.1454 9.86335 17.2174 9.86335C17.2894 9.86335 17.3478 9.9244 17.3478 9.99971Z" fill="#C51918"/>
<path fill-rule="evenodd" clip-rule="evenodd" d="M13.2642 13.6408C13.2642 13.6408 11.1914 13.2312 11.0781 12.4383C10.9647 11.6454 10.9663 10.8012 10.9663 10.8012L10.7741 11.3171C10.7741 11.3171 10.7644 10.6148 11.1586 10.1139C11.5529 9.61294 10.6658 10.4458 10.6658 10.4458C10.6658 10.4458 11.115 9.73763 11.3019 9.67021C11.4889 9.60279 10.5506 10.1139 10.5506 10.1139C10.5506 10.1139 10.8194 9.51964 11.0284 9.35156C11.2373 9.18347 10.5506 9.67021 10.5506 9.67021C10.5506 9.67021 10.706 9.08081 10.8918 8.9402C11.0777 8.79959 10.2845 9.67021 10.2845 9.67021C10.2845 9.67021 10.7029 8.32346 10.9387 8.19778C11.1744 8.0721 10.5506 8.4447 10.5506 8.4447C10.5506 8.4447 10.9327 7.86871 11.275 7.58237C11.6172 7.29603 10.6564 7.70447 10.7741 7.70447C10.7741 7.70447 11.1216 7.31209 11.3212 7.20134C11.5208 7.09059 10.5506 7.58237 10.5506 7.58237C10.5506 7.58237 11.247 6.81387 11.4558 6.70073C11.6646 6.58759 10.431 7.31103 10.431 7.31103C10.431 7.31103 10.503 6.97592 10.5341 6.73643C10.5652 6.49694 9.96259 7.39278 10.0444 8.19778C10.1262 9.00278 9.71657 7.58237 9.71657 7.58237C9.71657 7.58237 9.55173 7.89074 9.95218 8.69846L9.51815 8.09015C9.51815 8.09015 9.5775 8.64218 9.71657 8.9402C9.85564 9.23822 9.32183 8.4447 9.32183 8.4447C9.32183 8.4447 9.2197 8.9402 9.32183 8.9402C9.32183 8.9402 9.93136 9.75455 9.95396 9.99198C9.97656 10.2294 9.2694 9.14425 9.17476 9.14425C9.08012 9.14425 9.02769 9.49277 9.17476 9.49277C9.32183 9.49277 9.60041 9.99198 9.60041 9.99198C9.60041 9.99198 9.23836 9.73033 9.16073 9.71487C9.08311 9.69941 9.22167 9.87008 9.32183 9.99198C9.32183 9.99198 9.03861 10.2229 9.06013 10.3978C9.08165 10.5728 9.83203 10.6098 10.159 11.4402C10.159 11.4402 9.48292 11.0827 9.32183 11.0827C9.16073 11.0827 9.58124 11.456 9.71657 11.5792C9.8519 11.7024 9.50806 11.456 9.41494 11.5792C9.32183 11.7024 9.92978 12.2287 10.0444 12.2287C10.159 12.2287 9.60041 12.2287 9.60041 12.2287C9.60041 12.2287 9.74888 12.4383 9.95396 12.4383C10.159 12.4383 10.8918 12.7676 10.8918 12.8743C10.8918 12.981 10.2737 12.7378 10.159 12.7378C10.0444 12.7378 10.9661 13.6077 11.4558 13.6408C11.9455 13.674 12.2549 13.8055 12.466 13.8055C12.6772 13.8055 12.8256 13.8055 12.8256 13.8055L11.8282 14.3136C11.8282 14.3136 11.7275 14.3136 12.1602 14.3136C12.5929 14.3136 12.9238 14.4339 13.094 14.1853C13.2642 13.9367 13.2642 13.6408 13.2642 13.6408Z" fill="#00A854"/>
<mask id="path-13-outside-1_701_21261" maskUnits="userSpaceOnUse" x="9.38274" y="5.66089" width="8" height="9" fill="black">
<rect fill="white" x="9.38274" y="5.66089" width="8" height="9"/>
<path fill-rule="evenodd" clip-rule="evenodd" d="M13.5651 7.67885C13.5851 7.66753 13.5962 7.66089 13.5962 7.66089V7.69623C13.7406 7.77589 14.1041 7.96255 14.3405 7.96255C14.641 7.96255 15.0495 7.66089 15.0495 7.66089L15.733 8.62594C15.733 8.62594 15.2727 9.59066 15.6249 10.7695C15.9771 11.9484 15.6062 12.8574 14.04 12.9583C14.04 12.9583 13.7314 13.0169 13.5962 13.1104V13.1967C13.5962 13.1752 13.5847 13.1548 13.5651 13.1356C13.5455 13.1548 13.534 13.1752 13.534 13.1967V13.1104C13.3988 13.0169 13.0902 12.9583 13.0902 12.9583C11.5239 12.8574 11.1531 11.9484 11.5053 10.7695C11.8575 9.59066 11.3972 8.62594 11.3972 8.62594L12.0807 7.66089C12.0807 7.66089 12.4891 7.96255 12.7897 7.96255C13.026 7.96255 13.3896 7.77589 13.534 7.69623V7.66089C13.534 7.66089 13.5451 7.66753 13.5651 7.67885Z"/>
</mask>
<path fill-rule="evenodd" clip-rule="evenodd" d="M13.5651 7.67885C13.5851 7.66753 13.5962 7.66089 13.5962 7.66089V7.69623C13.7406 7.77589 14.1041 7.96255 14.3405 7.96255C14.641 7.96255 15.0495 7.66089 15.0495 7.66089L15.733 8.62594C15.733 8.62594 15.2727 9.59066 15.6249 10.7695C15.9771 11.9484 15.6062 12.8574 14.04 12.9583C14.04 12.9583 13.7314 13.0169 13.5962 13.1104V13.1967C13.5962 13.1752 13.5847 13.1548 13.5651 13.1356C13.5455 13.1548 13.534 13.1752 13.534 13.1967V13.1104C13.3988 13.0169 13.0902 12.9583 13.0902 12.9583C11.5239 12.8574 11.1531 11.9484 11.5053 10.7695C11.8575 9.59066 11.3972 8.62594 11.3972 8.62594L12.0807 7.66089C12.0807 7.66089 12.4891 7.96255 12.7897 7.96255C13.026 7.96255 13.3896 7.77589 13.534 7.69623V7.66089C13.534 7.66089 13.5451 7.66753 13.5651 7.67885Z" fill="#E8AA00"/>
<path d="M13.5962 7.66089H14.5962V5.90052L13.0841 6.80194L13.5962 7.66089ZM13.5651 7.67885L13.072 8.54881L13.5651 8.82832L14.0582 8.54881L13.5651 7.67885ZM13.5962 7.69623H12.5962V8.28662L13.1131 8.57182L13.5962 7.69623ZM14.3405 7.96255V6.96255V7.96255ZM15.0495 7.66089L15.8656 7.08293L15.276 6.25047L14.4554 6.85648L15.0495 7.66089ZM15.733 8.62594L16.6355 9.05656L16.8882 8.5269L16.549 8.04799L15.733 8.62594ZM15.6249 10.7695L16.583 10.4833V10.4833L15.6249 10.7695ZM14.04 12.9583L13.9757 11.9604L13.914 11.9643L13.8533 11.9759L14.04 12.9583ZM13.5962 13.1104L13.0276 12.2878L12.5962 12.5859V13.1104H13.5962ZM13.5651 13.1356L14.2653 12.4217L13.5651 11.7349L12.8649 12.4217L13.5651 13.1356ZM13.534 13.1104H14.534V12.5859L14.1026 12.2878L13.534 13.1104ZM13.0902 12.9583L13.2768 11.9759L13.2161 11.9643L13.1545 11.9604L13.0902 12.9583ZM11.5053 10.7695L10.5471 10.4833L11.5053 10.7695ZM11.3972 8.62594L10.5811 8.04799L10.242 8.5269L10.4947 9.05656L11.3972 8.62594ZM12.0807 7.66089L12.6747 6.85648L11.8542 6.25047L11.2646 7.08293L12.0807 7.66089ZM12.7897 7.96255V6.96255H12.7897L12.7897 7.96255ZM13.534 7.69623L14.0171 8.57182L14.534 8.28662V7.69623H13.534ZM13.534 7.66089L14.0461 6.80194L12.534 5.90052V7.66089H13.534ZM13.5962 7.66089C13.0841 6.80194 13.0842 6.80193 13.0842 6.80192C13.0842 6.80192 13.0842 6.80191 13.0842 6.8019C13.0842 6.80189 13.0842 6.80188 13.0843 6.80186C13.0843 6.80184 13.0843 6.80181 13.0844 6.80179C13.0845 6.80174 13.0845 6.80169 13.0846 6.80165C13.0848 6.80156 13.0849 6.80147 13.0851 6.80139C13.0853 6.80124 13.0855 6.8011 13.0857 6.80099C13.0861 6.80077 13.0863 6.80065 13.0864 6.80061C13.0865 6.80054 13.086 6.80083 13.0849 6.80145C13.0828 6.8027 13.0784 6.80525 13.072 6.80888L14.0582 8.54881C14.0718 8.54112 14.0829 8.5347 14.0913 8.52979C14.0955 8.52734 14.0991 8.52527 14.1019 8.5236C14.1033 8.52276 14.1046 8.52203 14.1056 8.5214C14.1062 8.52109 14.1066 8.5208 14.1071 8.52054C14.1073 8.52041 14.1075 8.52028 14.1077 8.52017C14.1078 8.52011 14.1079 8.52005 14.108 8.52C14.108 8.51997 14.1081 8.51994 14.1081 8.51992C14.1082 8.5199 14.1082 8.51989 14.1082 8.51988C14.1082 8.51987 14.1082 8.51986 14.1082 8.51986C14.1082 8.51985 14.1083 8.51984 13.5962 7.66089ZM14.5962 7.69623V7.66089H12.5962V7.69623H14.5962ZM13.1131 8.57182C13.2025 8.62115 13.367 8.70786 13.5554 8.78489C13.712 8.84889 14.0153 8.96255 14.3405 8.96255V6.96255C14.4021 6.96255 14.4286 6.97296 14.4049 6.96657C14.3873 6.96182 14.3562 6.95157 14.3123 6.93365C14.2237 6.89743 14.1342 6.85098 14.0793 6.82065L13.1131 8.57182ZM14.3405 8.96255C14.7583 8.96255 15.1255 8.7766 15.2828 8.69166C15.3843 8.63687 15.4701 8.58326 15.5306 8.54345C15.5613 8.52324 15.5867 8.50578 15.6057 8.49245C15.6153 8.48576 15.6233 8.48005 15.6296 8.47549C15.6328 8.4732 15.6355 8.4712 15.6379 8.46949C15.639 8.46864 15.6401 8.46786 15.6411 8.46716C15.6415 8.46681 15.642 8.46648 15.6424 8.46617C15.6426 8.46602 15.6428 8.46587 15.643 8.46572C15.6431 8.46565 15.6433 8.46554 15.6433 8.46551C15.6434 8.4654 15.6436 8.4653 15.0495 7.66089C14.4554 6.85648 14.4556 6.85638 14.4557 6.85628C14.4558 6.85625 14.4559 6.85615 14.456 6.85608C14.4561 6.85596 14.4563 6.85583 14.4565 6.85571C14.4568 6.85548 14.4571 6.85525 14.4574 6.85505C14.4579 6.85464 14.4584 6.8543 14.4588 6.85401C14.4596 6.85345 14.46 6.85314 14.4601 6.85307C14.4603 6.85292 14.4592 6.85369 14.457 6.85525C14.4525 6.85842 14.4437 6.86453 14.4314 6.87259C14.4059 6.88935 14.3708 6.91115 14.3326 6.93179C14.2924 6.95349 14.2628 6.96627 14.2468 6.97188C14.2236 6.98002 14.2605 6.96255 14.3405 6.96255V8.96255ZM14.2334 8.23884L14.9169 9.2039L16.549 8.04799L15.8656 7.08293L14.2334 8.23884ZM15.733 8.62594C14.8304 8.19532 14.8303 8.19567 14.8301 8.19601C14.8301 8.19613 14.8299 8.19649 14.8298 8.19673C14.8295 8.19722 14.8293 8.19772 14.8291 8.19823C14.8286 8.19927 14.8281 8.20037 14.8275 8.20153C14.8264 8.20385 14.8252 8.20642 14.8239 8.20925C14.8213 8.21489 14.8183 8.22154 14.8149 8.22916C14.8081 8.2444 14.7997 8.26359 14.7902 8.28652C14.7712 8.33233 14.7474 8.39343 14.7215 8.46825C14.6699 8.61737 14.6092 8.82421 14.5632 9.07578C14.4716 9.57678 14.4345 10.2784 14.6667 11.0558L16.583 10.4833C16.4631 10.0818 16.4801 9.71162 16.5305 9.43553C16.5556 9.29857 16.5879 9.19055 16.6116 9.12195C16.6234 9.08791 16.6328 9.06442 16.6376 9.05287C16.64 9.04712 16.6412 9.04443 16.6409 9.04496C16.6408 9.04523 16.6403 9.04632 16.6394 9.04824C16.639 9.0492 16.6384 9.05038 16.6378 9.05176C16.6375 9.05245 16.6371 9.0532 16.6367 9.054C16.6365 9.0544 16.6363 9.05481 16.6361 9.05524C16.636 9.05545 16.6359 9.05578 16.6358 9.05589C16.6357 9.05622 16.6355 9.05656 15.733 8.62594ZM14.6667 11.0558C14.8056 11.5205 14.7283 11.6994 14.7063 11.7343C14.7015 11.7419 14.5936 11.9205 13.9757 11.9604L14.1043 13.9562C15.0526 13.8951 15.9133 13.5688 16.3974 12.802C16.8644 12.0624 16.7964 11.1974 16.583 10.4833L14.6667 11.0558ZM14.04 12.9583C13.8533 11.9759 13.8532 11.9759 13.8531 11.9759C13.8531 11.9759 13.853 11.9759 13.8529 11.9759C13.8528 11.976 13.8526 11.976 13.8525 11.976C13.8522 11.9761 13.8518 11.9762 13.8515 11.9762C13.8508 11.9764 13.85 11.9765 13.8491 11.9767C13.8474 11.977 13.8454 11.9774 13.843 11.9779C13.8383 11.9788 13.8324 11.98 13.8255 11.9814C13.8115 11.9843 13.793 11.9882 13.771 11.9931C13.7276 12.0028 13.6672 12.0173 13.5991 12.0363C13.505 12.0627 13.2467 12.1363 13.0276 12.2878L14.1648 13.933C14.1059 13.9737 14.0683 13.9857 14.0849 13.9792C14.0928 13.9762 14.1109 13.97 14.1385 13.9622C14.1645 13.955 14.1896 13.9489 14.2084 13.9447C14.2174 13.9427 14.224 13.9413 14.2275 13.9406C14.2292 13.9402 14.2301 13.9401 14.23 13.9401C14.23 13.9401 14.2297 13.9401 14.2291 13.9402C14.2289 13.9403 14.2285 13.9404 14.2281 13.9404C14.2279 13.9405 14.2277 13.9405 14.2275 13.9406C14.2273 13.9406 14.2272 13.9406 14.2271 13.9406C14.227 13.9406 14.2269 13.9407 14.2269 13.9407C14.2268 13.9407 14.2267 13.9407 14.04 12.9583ZM14.5962 13.1967V13.1104H12.5962V13.1967H14.5962ZM12.8649 13.8495C12.7884 13.7745 12.5962 13.5534 12.5962 13.1967H14.5962C14.5962 12.7971 14.381 12.5351 14.2653 12.4217L12.8649 13.8495ZM12.8649 12.4217C12.7492 12.5351 12.534 12.7971 12.534 13.1967H14.534C14.534 13.5534 14.3418 13.7745 14.2653 13.8495L12.8649 12.4217ZM14.534 13.1967V13.1104H12.534V13.1967H14.534ZM13.0902 12.9583C12.9035 13.9407 12.9034 13.9407 12.9033 13.9407C12.9033 13.9407 12.9032 13.9406 12.9031 13.9406C12.903 13.9406 12.9029 13.9406 12.9027 13.9406C12.9025 13.9405 12.9023 13.9405 12.9021 13.9404C12.9017 13.9404 12.9013 13.9403 12.9011 13.9402C12.9005 13.9401 12.9002 13.9401 12.9002 13.9401C12.9001 13.9401 12.9009 13.9402 12.9027 13.9406C12.9061 13.9413 12.9128 13.9427 12.9218 13.9447C12.9405 13.9489 12.9657 13.955 12.9917 13.9622C13.0193 13.97 13.0374 13.9762 13.0453 13.9792C13.0619 13.9857 13.0243 13.9737 12.9654 13.933L14.1026 12.2878C13.8835 12.1363 13.6251 12.0627 13.5311 12.0363C13.463 12.0173 13.4026 12.0028 13.3592 11.9931C13.3372 11.9882 13.3187 11.9843 13.3047 11.9814C13.2977 11.98 13.2919 11.9788 13.2872 11.9779C13.2848 11.9774 13.2828 11.977 13.2811 11.9767C13.2802 11.9765 13.2794 11.9764 13.2787 11.9762C13.2784 11.9762 13.278 11.9761 13.2777 11.976C13.2776 11.976 13.2774 11.976 13.2773 11.9759C13.2772 11.9759 13.2771 11.9759 13.2771 11.9759C13.277 11.9759 13.2768 11.9759 13.0902 12.9583ZM10.5471 10.4833C10.3338 11.1974 10.2658 12.0624 10.7327 12.802C11.2169 13.5688 12.0776 13.8951 13.0259 13.9562L13.1545 11.9604C12.5365 11.9205 12.4287 11.7419 12.4239 11.7343C12.4019 11.6994 12.3246 11.5205 12.4634 11.0558L10.5471 10.4833ZM11.3972 8.62594C10.4947 9.05656 10.4945 9.05622 10.4944 9.05589C10.4943 9.05578 10.4941 9.05545 10.494 9.05524C10.4938 9.05481 10.4936 9.0544 10.4935 9.054C10.4931 9.0532 10.4927 9.05245 10.4924 9.05176C10.4917 9.05038 10.4912 9.0492 10.4908 9.04824C10.4899 9.04632 10.4894 9.04523 10.4893 9.04496C10.489 9.04443 10.4902 9.04712 10.4926 9.05287C10.4974 9.06442 10.5068 9.0879 10.5185 9.12194C10.5423 9.19055 10.5746 9.29857 10.5996 9.43553C10.6501 9.71162 10.6671 10.0818 10.5471 10.4833L12.4634 11.0558C12.6957 10.2784 12.6586 9.57678 12.567 9.07578C12.521 8.82421 12.4603 8.61737 12.4087 8.46825C12.3828 8.39343 12.359 8.33233 12.34 8.28652C12.3305 8.26359 12.3221 8.2444 12.3153 8.22916C12.3119 8.22154 12.3089 8.21489 12.3063 8.20925C12.305 8.20642 12.3038 8.20385 12.3027 8.20153C12.3021 8.20037 12.3016 8.19927 12.3011 8.19823C12.3009 8.19772 12.3006 8.19722 12.3004 8.19673C12.3003 8.19649 12.3001 8.19613 12.3001 8.19601C12.2999 8.19567 12.2997 8.19532 11.3972 8.62594ZM11.2646 7.08293L10.5811 8.04799L12.2133 9.2039L12.8967 8.23884L11.2646 7.08293ZM12.7897 6.96255C12.8697 6.96255 12.9066 6.98002 12.8834 6.97188C12.8674 6.96627 12.8378 6.95349 12.7976 6.93179C12.7594 6.91115 12.7243 6.88935 12.6988 6.87259C12.6865 6.86453 12.6777 6.85842 12.6732 6.85525C12.671 6.85369 12.6699 6.85292 12.6701 6.85307C12.6702 6.85314 12.6706 6.85345 12.6714 6.85401C12.6718 6.8543 12.6723 6.85464 12.6728 6.85505C12.6731 6.85525 12.6734 6.85548 12.6737 6.85571C12.6739 6.85583 12.674 6.85596 12.6742 6.85608C12.6743 6.85615 12.6744 6.85625 12.6745 6.85628C12.6746 6.85638 12.6747 6.85648 12.0807 7.66089C11.4866 8.4653 11.4867 8.4654 11.4869 8.46551C11.4869 8.46554 11.4871 8.46565 11.4872 8.46572C11.4874 8.46587 11.4876 8.46602 11.4878 8.46617C11.4882 8.46648 11.4887 8.46681 11.4891 8.46716C11.4901 8.46786 11.4911 8.46864 11.4923 8.46949C11.4946 8.4712 11.4974 8.4732 11.5006 8.47548C11.5069 8.48005 11.5149 8.48576 11.5244 8.49245C11.5434 8.50578 11.5689 8.52324 11.5996 8.54345C11.6601 8.58326 11.7459 8.63687 11.8474 8.69166C12.0047 8.7766 12.3719 8.96255 12.7897 8.96255L12.7897 6.96255ZM13.0509 6.82065C12.9959 6.85098 12.9064 6.89743 12.8179 6.93365C12.774 6.95157 12.7429 6.96182 12.7253 6.96657C12.7015 6.97296 12.7281 6.96255 12.7897 6.96255V8.96255C13.1149 8.96255 13.4182 8.84889 13.5748 8.78489C13.7632 8.70785 13.9276 8.62115 14.0171 8.57182L13.0509 6.82065ZM14.534 7.69623V7.66089H12.534V7.69623H14.534ZM13.534 7.66089C13.0219 8.51984 13.0219 8.51985 13.022 8.51986C13.022 8.51986 13.022 8.51987 13.022 8.51988C13.022 8.51989 13.022 8.5199 13.0221 8.51992C13.0221 8.51994 13.0221 8.51997 13.0222 8.52C13.0223 8.52005 13.0224 8.52011 13.0225 8.52017C13.0227 8.52028 13.0229 8.52041 13.0231 8.52054C13.0235 8.5208 13.024 8.52109 13.0246 8.5214C13.0256 8.52203 13.0269 8.52276 13.0283 8.5236C13.0311 8.52527 13.0346 8.52734 13.0389 8.52979C13.0473 8.5347 13.0584 8.54112 13.072 8.54881L14.0582 6.80888C14.0518 6.80525 14.0474 6.8027 14.0453 6.80145C14.0442 6.80083 14.0437 6.80054 14.0438 6.80061C14.0439 6.80065 14.0441 6.80077 14.0445 6.80099C14.0446 6.8011 14.0449 6.80124 14.0451 6.80139C14.0453 6.80147 14.0454 6.80156 14.0456 6.80165C14.0456 6.80169 14.0457 6.80174 14.0458 6.80179C14.0458 6.80181 14.0459 6.80184 14.0459 6.80186C14.0459 6.80188 14.046 6.80189 14.046 6.8019C14.046 6.80191 14.046 6.80192 14.046 6.80192C14.046 6.80193 14.0461 6.80194 13.534 7.66089Z" fill="#E8AA00" mask="url(#path-13-outside-1_701_21261)"/>
<mask id="mask1_701_21261" style="mask-type:alpha" maskUnits="userSpaceOnUse" x="10" y="5" width="7" height="9">
<mask id="path-15-outside-2_701_21261" maskUnits="userSpaceOnUse" x="9.38274" y="5.66089" width="8" height="9" fill="black">
<rect fill="white" x="9.38274" y="5.66089" width="8" height="9"/>
<path fill-rule="evenodd" clip-rule="evenodd" d="M13.5651 7.67885C13.5851 7.66753 13.5962 7.66089 13.5962 7.66089V7.69623C13.7406 7.77589 14.1041 7.96255 14.3405 7.96255C14.641 7.96255 15.0495 7.66089 15.0495 7.66089L15.733 8.62594C15.733 8.62594 15.2727 9.59066 15.6249 10.7695C15.9771 11.9484 15.6062 12.8574 14.04 12.9583C14.04 12.9583 13.7314 13.0169 13.5962 13.1104V13.1967C13.5962 13.1752 13.5847 13.1548 13.5651 13.1356C13.5455 13.1548 13.534 13.1752 13.534 13.1967V13.1104C13.3988 13.0169 13.0902 12.9583 13.0902 12.9583C11.5239 12.8574 11.1531 11.9484 11.5053 10.7695C11.8575 9.59066 11.3972 8.62594 11.3972 8.62594L12.0807 7.66089C12.0807 7.66089 12.4891 7.96255 12.7897 7.96255C13.026 7.96255 13.3896 7.77589 13.534 7.69623V7.66089C13.534 7.66089 13.5451 7.66753 13.5651 7.67885Z"/>
</mask>
<path fill-rule="evenodd" clip-rule="evenodd" d="M13.5651 7.67885C13.5851 7.66753 13.5962 7.66089 13.5962 7.66089V7.69623C13.7406 7.77589 14.1041 7.96255 14.3405 7.96255C14.641 7.96255 15.0495 7.66089 15.0495 7.66089L15.733 8.62594C15.733 8.62594 15.2727 9.59066 15.6249 10.7695C15.9771 11.9484 15.6062 12.8574 14.04 12.9583C14.04 12.9583 13.7314 13.0169 13.5962 13.1104V13.1967C13.5962 13.1752 13.5847 13.1548 13.5651 13.1356C13.5455 13.1548 13.534 13.1752 13.534 13.1967V13.1104C13.3988 13.0169 13.0902 12.9583 13.0902 12.9583C11.5239 12.8574 11.1531 11.9484 11.5053 10.7695C11.8575 9.59066 11.3972 8.62594 11.3972 8.62594L12.0807 7.66089C12.0807 7.66089 12.4891 7.96255 12.7897 7.96255C13.026 7.96255 13.3896 7.77589 13.534 7.69623V7.66089C13.534 7.66089 13.5451 7.66753 13.5651 7.67885Z" fill="white"/>
<path d="M13.5962 7.66089H14.5962V5.90052L13.0841 6.80194L13.5962 7.66089ZM13.5651 7.67885L13.072 8.54881L13.5651 8.82832L14.0582 8.54881L13.5651 7.67885ZM13.5962 7.69623H12.5962V8.28662L13.1131 8.57182L13.5962 7.69623ZM14.3405 7.96255V6.96255V7.96255ZM15.0495 7.66089L15.8656 7.08293L15.276 6.25047L14.4554 6.85648L15.0495 7.66089ZM15.733 8.62594L16.6355 9.05656L16.8882 8.5269L16.549 8.04799L15.733 8.62594ZM15.6249 10.7695L16.583 10.4833V10.4833L15.6249 10.7695ZM14.04 12.9583L13.9757 11.9604L13.914 11.9643L13.8533 11.9759L14.04 12.9583ZM13.5962 13.1104L13.0276 12.2878L12.5962 12.5859V13.1104H13.5962ZM13.5651 13.1356L14.2653 12.4217L13.5651 11.7349L12.8649 12.4217L13.5651 13.1356ZM13.534 13.1104H14.534V12.5859L14.1026 12.2878L13.534 13.1104ZM13.0902 12.9583L13.2768 11.9759L13.2161 11.9643L13.1545 11.9604L13.0902 12.9583ZM11.5053 10.7695L10.5471 10.4833L11.5053 10.7695ZM11.3972 8.62594L10.5811 8.04799L10.242 8.5269L10.4947 9.05656L11.3972 8.62594ZM12.0807 7.66089L12.6747 6.85648L11.8542 6.25047L11.2646 7.08293L12.0807 7.66089ZM12.7897 7.96255V6.96255H12.7897L12.7897 7.96255ZM13.534 7.69623L14.0171 8.57182L14.534 8.28662V7.69623H13.534ZM13.534 7.66089L14.0461 6.80194L12.534 5.90052V7.66089H13.534ZM13.5962 7.66089C13.0841 6.80194 13.0842 6.80193 13.0842 6.80192C13.0842 6.80192 13.0842 6.80191 13.0842 6.8019C13.0842 6.80189 13.0842 6.80188 13.0843 6.80186C13.0843 6.80184 13.0843 6.80181 13.0844 6.80179C13.0845 6.80174 13.0845 6.80169 13.0846 6.80165C13.0848 6.80156 13.0849 6.80147 13.0851 6.80139C13.0853 6.80124 13.0855 6.8011 13.0857 6.80099C13.0861 6.80077 13.0863 6.80065 13.0864 6.80061C13.0865 6.80054 13.086 6.80083 13.0849 6.80145C13.0828 6.8027 13.0784 6.80525 13.072 6.80888L14.0582 8.54881C14.0718 8.54112 14.0829 8.5347 14.0913 8.52979C14.0955 8.52734 14.0991 8.52527 14.1019 8.5236C14.1033 8.52276 14.1046 8.52203 14.1056 8.5214C14.1062 8.52109 14.1066 8.5208 14.1071 8.52054C14.1073 8.52041 14.1075 8.52028 14.1077 8.52017C14.1078 8.52011 14.1079 8.52005 14.108 8.52C14.108 8.51997 14.1081 8.51994 14.1081 8.51992C14.1082 8.5199 14.1082 8.51989 14.1082 8.51988C14.1082 8.51987 14.1082 8.51986 14.1082 8.51986C14.1082 8.51985 14.1083 8.51984 13.5962 7.66089ZM14.5962 7.69623V7.66089H12.5962V7.69623H14.5962ZM13.1131 8.57182C13.2025 8.62115 13.367 8.70786 13.5554 8.78489C13.712 8.84889 14.0153 8.96255 14.3405 8.96255V6.96255C14.4021 6.96255 14.4286 6.97296 14.4049 6.96657C14.3873 6.96182 14.3562 6.95157 14.3123 6.93365C14.2237 6.89743 14.1342 6.85098 14.0793 6.82065L13.1131 8.57182ZM14.3405 8.96255C14.7583 8.96255 15.1255 8.7766 15.2828 8.69166C15.3843 8.63687 15.4701 8.58326 15.5306 8.54345C15.5613 8.52324 15.5867 8.50578 15.6057 8.49245C15.6153 8.48576 15.6233 8.48005 15.6296 8.47549C15.6328 8.4732 15.6355 8.4712 15.6379 8.46949C15.639 8.46864 15.6401 8.46786 15.6411 8.46716C15.6415 8.46681 15.642 8.46648 15.6424 8.46617C15.6426 8.46602 15.6428 8.46587 15.643 8.46572C15.6431 8.46565 15.6433 8.46554 15.6433 8.46551C15.6434 8.4654 15.6436 8.4653 15.0495 7.66089C14.4554 6.85648 14.4556 6.85638 14.4557 6.85628C14.4558 6.85625 14.4559 6.85615 14.456 6.85608C14.4561 6.85596 14.4563 6.85583 14.4565 6.85571C14.4568 6.85548 14.4571 6.85525 14.4574 6.85505C14.4579 6.85464 14.4584 6.8543 14.4588 6.85401C14.4596 6.85345 14.46 6.85314 14.4601 6.85307C14.4603 6.85292 14.4592 6.85369 14.457 6.85525C14.4525 6.85842 14.4437 6.86453 14.4314 6.87259C14.4059 6.88935 14.3708 6.91115 14.3326 6.93179C14.2924 6.95349 14.2628 6.96627 14.2468 6.97188C14.2236 6.98002 14.2605 6.96255 14.3405 6.96255V8.96255ZM14.2334 8.23884L14.9169 9.2039L16.549 8.04799L15.8656 7.08293L14.2334 8.23884ZM15.733 8.62594C14.8304 8.19532 14.8303 8.19567 14.8301 8.19601C14.8301 8.19613 14.8299 8.19649 14.8298 8.19673C14.8295 8.19722 14.8293 8.19772 14.8291 8.19823C14.8286 8.19927 14.8281 8.20037 14.8275 8.20153C14.8264 8.20385 14.8252 8.20642 14.8239 8.20925C14.8213 8.21489 14.8183 8.22154 14.8149 8.22916C14.8081 8.2444 14.7997 8.26359 14.7902 8.28652C14.7712 8.33233 14.7474 8.39343 14.7215 8.46825C14.6699 8.61737 14.6092 8.82421 14.5632 9.07578C14.4716 9.57678 14.4345 10.2784 14.6667 11.0558L16.583 10.4833C16.4631 10.0818 16.4801 9.71162 16.5305 9.43553C16.5556 9.29857 16.5879 9.19055 16.6116 9.12195C16.6234 9.08791 16.6328 9.06442 16.6376 9.05287C16.64 9.04712 16.6412 9.04443 16.6409 9.04496C16.6408 9.04523 16.6403 9.04632 16.6394 9.04824C16.639 9.0492 16.6384 9.05038 16.6378 9.05176C16.6375 9.05245 16.6371 9.0532 16.6367 9.054C16.6365 9.0544 16.6363 9.05481 16.6361 9.05524C16.636 9.05545 16.6359 9.05578 16.6358 9.05589C16.6357 9.05622 16.6355 9.05656 15.733 8.62594ZM14.6667 11.0558C14.8056 11.5205 14.7283 11.6994 14.7063 11.7343C14.7015 11.7419 14.5936 11.9205 13.9757 11.9604L14.1043 13.9562C15.0526 13.8951 15.9133 13.5688 16.3974 12.802C16.8644 12.0624 16.7964 11.1974 16.583 10.4833L14.6667 11.0558ZM14.04 12.9583C13.8533 11.9759 13.8532 11.9759 13.8531 11.9759C13.8531 11.9759 13.853 11.9759 13.8529 11.9759C13.8528 11.976 13.8526 11.976 13.8525 11.976C13.8522 11.9761 13.8518 11.9762 13.8515 11.9762C13.8508 11.9764 13.85 11.9765 13.8491 11.9767C13.8474 11.977 13.8454 11.9774 13.843 11.9779C13.8383 11.9788 13.8324 11.98 13.8255 11.9814C13.8115 11.9843 13.793 11.9882 13.771 11.9931C13.7276 12.0028 13.6672 12.0173 13.5991 12.0363C13.505 12.0627 13.2467 12.1363 13.0276 12.2878L14.1648 13.933C14.1059 13.9737 14.0683 13.9857 14.0849 13.9792C14.0928 13.9762 14.1109 13.97 14.1385 13.9622C14.1645 13.955 14.1896 13.9489 14.2084 13.9447C14.2174 13.9427 14.224 13.9413 14.2275 13.9406C14.2292 13.9402 14.2301 13.9401 14.23 13.9401C14.23 13.9401 14.2297 13.9401 14.2291 13.9402C14.2289 13.9403 14.2285 13.9404 14.2281 13.9404C14.2279 13.9405 14.2277 13.9405 14.2275 13.9406C14.2273 13.9406 14.2272 13.9406 14.2271 13.9406C14.227 13.9406 14.2269 13.9407 14.2269 13.9407C14.2268 13.9407 14.2267 13.9407 14.04 12.9583ZM14.5962 13.1967V13.1104H12.5962V13.1967H14.5962ZM12.8649 13.8495C12.7884 13.7745 12.5962 13.5534 12.5962 13.1967H14.5962C14.5962 12.7971 14.381 12.5351 14.2653 12.4217L12.8649 13.8495ZM12.8649 12.4217C12.7492 12.5351 12.534 12.7971 12.534 13.1967H14.534C14.534 13.5534 14.3418 13.7745 14.2653 13.8495L12.8649 12.4217ZM14.534 13.1967V13.1104H12.534V13.1967H14.534ZM13.0902 12.9583C12.9035 13.9407 12.9034 13.9407 12.9033 13.9407C12.9033 13.9407 12.9032 13.9406 12.9031 13.9406C12.903 13.9406 12.9029 13.9406 12.9027 13.9406C12.9025 13.9405 12.9023 13.9405 12.9021 13.9404C12.9017 13.9404 12.9013 13.9403 12.9011 13.9402C12.9005 13.9401 12.9002 13.9401 12.9002 13.9401C12.9001 13.9401 12.9009 13.9402 12.9027 13.9406C12.9061 13.9413 12.9128 13.9427 12.9218 13.9447C12.9405 13.9489 12.9657 13.955 12.9917 13.9622C13.0193 13.97 13.0374 13.9762 13.0453 13.9792C13.0619 13.9857 13.0243 13.9737 12.9654 13.933L14.1026 12.2878C13.8835 12.1363 13.6251 12.0627 13.5311 12.0363C13.463 12.0173 13.4026 12.0028 13.3592 11.9931C13.3372 11.9882 13.3187 11.9843 13.3047 11.9814C13.2977 11.98 13.2919 11.9788 13.2872 11.9779C13.2848 11.9774 13.2828 11.977 13.2811 11.9767C13.2802 11.9765 13.2794 11.9764 13.2787 11.9762C13.2784 11.9762 13.278 11.9761 13.2777 11.976C13.2776 11.976 13.2774 11.976 13.2773 11.9759C13.2772 11.9759 13.2771 11.9759 13.2771 11.9759C13.277 11.9759 13.2768 11.9759 13.0902 12.9583ZM10.5471 10.4833C10.3338 11.1974 10.2658 12.0624 10.7327 12.802C11.2169 13.5688 12.0776 13.8951 13.0259 13.9562L13.1545 11.9604C12.5365 11.9205 12.4287 11.7419 12.4239 11.7343C12.4019 11.6994 12.3246 11.5205 12.4634 11.0558L10.5471 10.4833ZM11.3972 8.62594C10.4947 9.05656 10.4945 9.05622 10.4944 9.05589C10.4943 9.05578 10.4941 9.05545 10.494 9.05524C10.4938 9.05481 10.4936 9.0544 10.4935 9.054C10.4931 9.0532 10.4927 9.05245 10.4924 9.05176C10.4917 9.05038 10.4912 9.0492 10.4908 9.04824C10.4899 9.04632 10.4894 9.04523 10.4893 9.04496C10.489 9.04443 10.4902 9.04712 10.4926 9.05287C10.4974 9.06442 10.5068 9.0879 10.5185 9.12194C10.5423 9.19055 10.5746 9.29857 10.5996 9.43553C10.6501 9.71162 10.6671 10.0818 10.5471 10.4833L12.4634 11.0558C12.6957 10.2784 12.6586 9.57678 12.567 9.07578C12.521 8.82421 12.4603 8.61737 12.4087 8.46825C12.3828 8.39343 12.359 8.33233 12.34 8.28652C12.3305 8.26359 12.3221 8.2444 12.3153 8.22916C12.3119 8.22154 12.3089 8.21489 12.3063 8.20925C12.305 8.20642 12.3038 8.20385 12.3027 8.20153C12.3021 8.20037 12.3016 8.19927 12.3011 8.19823C12.3009 8.19772 12.3006 8.19722 12.3004 8.19673C12.3003 8.19649 12.3001 8.19613 12.3001 8.19601C12.2999 8.19567 12.2997 8.19532 11.3972 8.62594ZM11.2646 7.08293L10.5811 8.04799L12.2133 9.2039L12.8967 8.23884L11.2646 7.08293ZM12.7897 6.96255C12.8697 6.96255 12.9066 6.98002 12.8834 6.97188C12.8674 6.96627 12.8378 6.95349 12.7976 6.93179C12.7594 6.91115 12.7243 6.88935 12.6988 6.87259C12.6865 6.86453 12.6777 6.85842 12.6732 6.85525C12.671 6.85369 12.6699 6.85292 12.6701 6.85307C12.6702 6.85314 12.6706 6.85345 12.6714 6.85401C12.6718 6.8543 12.6723 6.85464 12.6728 6.85505C12.6731 6.85525 12.6734 6.85548 12.6737 6.85571C12.6739 6.85583 12.674 6.85596 12.6742 6.85608C12.6743 6.85615 12.6744 6.85625 12.6745 6.85628C12.6746 6.85638 12.6747 6.85648 12.0807 7.66089C11.4866 8.4653 11.4867 8.4654 11.4869 8.46551C11.4869 8.46554 11.4871 8.46565 11.4872 8.46572C11.4874 8.46587 11.4876 8.46602 11.4878 8.46617C11.4882 8.46648 11.4887 8.46681 11.4891 8.46716C11.4901 8.46786 11.4911 8.46864 11.4923 8.46949C11.4946 8.4712 11.4974 8.4732 11.5006 8.47548C11.5069 8.48005 11.5149 8.48576 11.5244 8.49245C11.5434 8.50578 11.5689 8.52324 11.5996 8.54345C11.6601 8.58326 11.7459 8.63687 11.8474 8.69166C12.0047 8.7766 12.3719 8.96255 12.7897 8.96255L12.7897 6.96255ZM13.0509 6.82065C12.9959 6.85098 12.9064 6.89743 12.8179 6.93365C12.774 6.95157 12.7429 6.96182 12.7253 6.96657C12.7015 6.97296 12.7281 6.96255 12.7897 6.96255V8.96255C13.1149 8.96255 13.4182 8.84889 13.5748 8.78489C13.7632 8.70785 13.9276 8.62115 14.0171 8.57182L13.0509 6.82065ZM14.534 7.69623V7.66089H12.534V7.69623H14.534ZM13.534 7.66089C13.0219 8.51984 13.0219 8.51985 13.022 8.51986C13.022 8.51986 13.022 8.51987 13.022 8.51988C13.022 8.51989 13.022 8.5199 13.0221 8.51992C13.0221 8.51994 13.0221 8.51997 13.0222 8.52C13.0223 8.52005 13.0224 8.52011 13.0225 8.52017C13.0227 8.52028 13.0229 8.52041 13.0231 8.52054C13.0235 8.5208 13.024 8.52109 13.0246 8.5214C13.0256 8.52203 13.0269 8.52276 13.0283 8.5236C13.0311 8.52527 13.0346 8.52734 13.0389 8.52979C13.0473 8.5347 13.0584 8.54112 13.072 8.54881L14.0582 6.80888C14.0518 6.80525 14.0474 6.8027 14.0453 6.80145C14.0442 6.80083 14.0437 6.80054 14.0438 6.80061C14.0439 6.80065 14.0441 6.80077 14.0445 6.80099C14.0446 6.8011 14.0449 6.80124 14.0451 6.80139C14.0453 6.80147 14.0454 6.80156 14.0456 6.80165C14.0456 6.80169 14.0457 6.80174 14.0458 6.80179C14.0458 6.80181 14.0459 6.80184 14.0459 6.80186C14.0459 6.80188 14.046 6.80189 14.046 6.8019C14.046 6.80191 14.046 6.80192 14.046 6.80192C14.046 6.80193 14.0461 6.80194 13.534 7.66089Z" fill="white" mask="url(#path-15-outside-2_701_21261)"/>
</mask>
<g mask="url(#mask1_701_21261)">
<rect x="11.4783" y="7.54517" width="2.08696" height="2.86364" fill="#67BAFF"/>
<rect x="13.5652" y="7.54517" width="2.08696" height="2.86364" fill="white"/>
<rect x="11.2174" y="10.6816" width="5.21739" height="3.27273" fill="#C51918"/>
<path d="M14.5761 10.2059H14.3152V8.24487H14.5761V10.2059Z" fill="#C9A951"/>
<path d="M14.4704 9.31392L14.3432 9.54169L13.8929 9.29027L14.0201 9.0625L14.4704 9.31392Z" fill="#C9A951"/>
<path d="M14.4704 8.76851L14.3432 8.99628L13.8929 8.74486L14.0201 8.51709L14.4704 8.76851Z" fill="#C9A951"/>
<path d="M14.4147 9.31392L14.5419 9.54169L14.9921 9.29027L14.865 9.0625L14.4147 9.31392Z" fill="#C9A951"/>
<path d="M14.4147 8.76851L14.5419 8.99628L14.9921 8.74486L14.865 8.51709L14.4147 8.76851Z" fill="#C9A951"/>
<path fill-rule="evenodd" clip-rule="evenodd" d="M14.7968 11.2785C14.7968 11.2785 14.9783 11.071 14.9783 11.1748C14.9783 11.2785 14.9783 11.453 14.8876 11.453C14.7968 11.453 14.3742 11.37 14.2131 11.1748C14.0521 10.9796 13.7114 10.6397 13.2729 10.7197C12.8344 10.7998 12.3143 11.3682 12.1861 11.3682C12.0579 11.3682 11.777 11.8064 11.9815 12.1486C12.1861 12.4908 12.5341 12.3846 12.5341 12.4839C12.5341 12.5832 12.6212 12.5946 12.947 12.5946C13.2729 12.5946 13.3921 12.7095 13.6742 12.7095C13.9564 12.7095 13.5811 12.7053 14.0355 12.5946C14.4899 12.4839 14.8341 12.1486 14.5693 12.1486C14.3045 12.1486 14.219 12.1486 14.0355 12.1486C13.8521 12.1486 13.4438 12.2808 13.4438 12.1486C13.4438 12.0164 13.5344 11.7333 13.785 11.8749C14.0355 12.0164 14.7316 12.1243 14.9783 11.8749C15.225 11.6254 15.3113 11.475 15.2682 11.1748C15.225 10.8745 14.8876 10.9609 14.8876 10.9609L14.7968 11.2785Z" fill="#FBCD17"/>
<path fill-rule="evenodd" clip-rule="evenodd" d="M13.0321 8.17725C12.8749 8.31478 12.9763 8.81741 12.7187 8.81741C12.461 8.81741 12.0984 8.44104 12.0071 8.68939C11.9158 8.93774 12.0071 8.8543 12.0071 9.06582C12.0071 9.27735 11.7884 9.86513 11.8977 9.96449C12.0071 10.0639 12.1191 10.3257 12.0997 10.2031C12.0803 10.0806 11.9976 9.90056 12.0321 9.70504C11.9988 9.50305 12.2164 9.30877 12.2164 9.30877C12.2164 9.30877 12.1928 9.51848 12.1756 9.59667C12.1756 9.59667 12.1039 9.75449 12.133 9.85931C12.133 9.85931 12.2067 10.1547 12.2371 10.1752C12.2371 10.1752 12.2568 9.47563 12.2792 9.36034C12.3017 9.24506 12.4616 9.49038 12.5148 9.46258C12.5148 9.46258 12.533 9.94091 12.5054 9.99791C12.5054 9.99791 12.4493 10.1111 12.4701 10.1472C12.4701 10.1472 12.5222 10.2781 12.5665 10.24C12.5665 10.24 12.5681 10.2373 12.5906 10.1098C12.5906 10.1098 12.5645 10.0329 12.6054 9.85761C12.6054 9.85761 12.6485 9.47171 12.6663 9.55544C12.6663 9.55544 12.6583 9.73763 12.6788 9.83154C12.6788 9.83154 12.7117 10.0647 12.7182 10.0903C12.7182 10.0903 12.8757 10.3145 12.8799 10.2198C12.8799 10.2198 12.7289 10.0399 12.7613 9.90293C12.7613 9.90293 12.6749 9.515 12.7955 9.4285C12.7955 9.4285 13.1154 9.2805 13.1347 9.02717C13.1347 9.02717 13.181 8.73846 13.1894 8.60611C13.1894 8.60611 13.1192 8.56719 13.2643 8.49886C13.2643 8.49886 13.4978 8.40922 13.3523 8.28456" fill="#D18219"/>
</g>
</g>
</g>
<rect x="1.75" y="1.25" width="23.5" height="17.5" stroke="black" stroke-opacity="0.1" stroke-width="0.5" shape-rendering="crispEdges"/>
</g>
<defs>
<filter id="filter0_dd_701_21261" x="0" y="0" width="27" height="21" filterUnits="userSpaceOnUse" color-interpolation-filters="sRGB">
<feFlood flood-opacity="0" result="BackgroundImageFix"/>
<feColorMatrix in="SourceAlpha" type="matrix" values="0 0 0 0 0 0 0 0 0 0 0 0 0 0 0 0 0 0 127 0" result="hardAlpha"/>
<feOffset dy="0.5"/>
<feGaussianBlur stdDeviation="0.75"/>
<feComposite in2="hardAlpha" operator="out"/>
<feColorMatrix type="matrix" values="0 0 0 0 0 0 0 0 0 0 0 0 0 0 0 0 0 0 0.1 0"/>
<feBlend mode="multiply" in2="BackgroundImageFix" result="effect1_dropShadow_701_21261"/>
<feColorMatrix in="SourceAlpha" type="matrix" values="0 0 0 0 0 0 0 0 0 0 0 0 0 0 0 0 0 0 127 0" result="hardAlpha"/>
<feOffset/>
<feGaussianBlur stdDeviation="0.5"/>
<feComposite in2="hardAlpha" operator="out"/>
<feColorMatrix type="matrix" values="0 0 0 0 0 0 0 0 0 0 0 0 0 0 0 0 0 0 0.11 0"/>
<feBlend mode="multiply" in2="effect1_dropShadow_701_21261" result="effect2_dropShadow_701_21261"/>
<feBlend mode="normal" in="SourceGraphic" in2="effect2_dropShadow_701_21261" result="shape"/>
</filter>
<clipPath id="clip0_701_21261">
<rect x="1.5" y="1" width="24" height="18" fill="white"/>
</clipPath>
</defs>
</svg>