<svg width="27" height="21" viewBox="0 0 27 21" fill="none" xmlns="http://www.w3.org/2000/svg">
<g filter="url(#filter0_dd_701_21700)">
<g clip-path="url(#clip0_701_21700)">
<mask id="mask0_701_21700" style="mask-type:alpha" maskUnits="userSpaceOnUse" x="1" y="1" width="25" height="18">
<rect x="1.5" y="1" width="24" height="18" fill="white"/>
</mask>
<g mask="url(#mask0_701_21700)">
<path fill-rule="evenodd" clip-rule="evenodd" d="M1.5 1H27V19H1.5V1Z" fill="#2993EC"/>
<path fill-rule="evenodd" clip-rule="evenodd" d="M6.15958 9.6875C6.15958 13.657 9.446 16.875 13.5 16.875C17.554 16.875 20.8404 13.657 20.8404 9.6875C20.8404 5.71795 17.554 2.5 13.5 2.5C9.446 2.5 6.15958 5.71795 6.15958 9.6875ZM19.2447 9.6875C19.2447 12.7941 16.6727 15.3125 13.5 15.3125C10.3273 15.3125 7.75532 12.7941 7.75532 9.6875C7.75532 6.5809 10.3273 4.0625 13.5 4.0625C16.6727 4.0625 19.2447 6.5809 19.2447 9.6875Z" fill="#F1F9FF"/>
<path fill-rule="evenodd" clip-rule="evenodd" d="M6.79788 9.6875C6.79788 13.3119 9.79853 16.25 13.5 16.25C17.2015 16.25 20.2021 13.3119 20.2021 9.6875C20.2021 6.06313 17.2015 3.125 13.5 3.125C9.79853 3.125 6.79788 6.06313 6.79788 9.6875ZM19.883 9.6875C19.883 13.1393 17.0252 15.9375 13.5 15.9375C9.97479 15.9375 7.11703 13.1393 7.11703 9.6875C7.11703 6.23572 9.97479 3.4375 13.5 3.4375C17.0252 3.4375 19.883 6.23572 19.883 9.6875Z" fill="#E31D1C"/>
<path fill-rule="evenodd" clip-rule="evenodd" d="M13.5 2.65625C13.4191 2.82326 13.3787 3.06057 13.3787 3.3682C13.3787 3.67583 13.2595 3.98377 13.0213 4.29202C12.977 3.95265 12.9549 3.64471 12.9549 3.3682C12.9549 3.0917 13.1366 2.85438 13.5 2.65625ZM15.1772 2.91022C15.0608 3.05474 14.968 3.27688 14.8988 3.57662C14.8296 3.87637 14.6443 4.14962 14.3428 4.39638C14.376 4.05574 14.4237 3.75072 14.4859 3.4813C14.5481 3.21188 14.7785 3.02152 15.1772 2.91022ZM16.3298 4.12591C16.4694 3.85181 16.6132 3.65872 16.7611 3.54665C16.3474 3.5582 16.0777 3.68717 15.9522 3.93353C15.8267 4.1799 15.7066 4.46432 15.5919 4.7868C15.9442 4.6203 16.1901 4.4 16.3298 4.12591ZM18.1434 4.513C17.9741 4.58892 17.7905 4.74472 17.5928 4.98037C17.3951 5.21603 17.1059 5.37536 16.7252 5.45835C16.9095 5.16993 17.0905 4.91982 17.2682 4.708C17.4459 4.49619 17.7377 4.43119 18.1434 4.513ZM18.621 6.09707C18.8667 5.91194 19.0805 5.80142 19.2626 5.76553C18.8857 5.59455 18.5868 5.59226 18.366 5.75866C18.1451 5.92506 17.9125 6.12806 17.6681 6.36764C18.0577 6.3724 18.3753 6.28221 18.621 6.09707ZM20.0599 7.25218C19.8746 7.24296 19.6403 7.29845 19.3572 7.41865C19.074 7.53885 18.744 7.54952 18.3672 7.45066C18.6623 7.27733 18.9371 7.13664 19.1916 7.0286C19.4461 6.92056 19.7356 6.99509 20.0599 7.25218ZM19.7643 8.86817C20.0673 8.81475 20.308 8.81338 20.4866 8.86406C20.2283 8.54059 19.9631 8.40286 19.6908 8.45087C19.4185 8.49889 19.119 8.57415 18.7925 8.67666C19.1374 8.85776 19.4614 8.92159 19.7643 8.86817ZM6.06302 8.32725C6.21344 8.43592 6.44012 8.51697 6.74308 8.57039C7.04604 8.62381 7.32861 8.7946 7.59081 9.08274C7.24891 9.06739 6.9418 9.03571 6.6695 8.98769C6.3972 8.93968 6.19504 8.71953 6.06302 8.32725ZM7.2159 7.14031C6.93273 7.02011 6.73008 6.89015 6.60796 6.75042C6.64835 7.16234 6.79581 7.42233 7.05033 7.53037C7.30486 7.6384 7.59696 7.73836 7.92665 7.83023C7.73599 7.49049 7.49907 7.26051 7.2159 7.14031ZM7.52037 5.3302C7.60506 5.49532 7.77024 5.67045 8.01592 5.85558C8.26161 6.04072 8.43585 6.32118 8.53866 6.69696C8.24099 6.52805 7.98174 6.3604 7.76091 6.194C7.54009 6.02759 7.45991 5.73966 7.52037 5.3302ZM9.09376 4.78601C8.89602 4.55035 8.77447 4.34255 8.7291 4.16261C8.57807 4.54798 8.59143 4.84657 8.76916 5.05838C8.9469 5.2702 9.16178 5.49187 9.41383 5.72341C9.39819 5.33413 9.2915 5.02167 9.09376 4.78601ZM10.1795 3.29918C10.1832 3.48471 10.2549 3.71453 10.3946 3.98863C10.5342 4.26273 10.5679 4.59119 10.4956 4.974C10.3021 4.6917 10.1426 4.42737 10.017 4.181C9.89149 3.93463 9.94565 3.64069 10.1795 3.29918ZM11.8508 3.5086C11.7816 3.20886 11.7676 2.96852 11.8089 2.7876C11.4993 3.0624 11.3757 3.3345 11.4379 3.60392C11.5001 3.87334 11.5909 4.16841 11.7104 4.48913C11.8732 4.13519 11.92 3.80835 11.8508 3.5086Z" fill="#FDDA33"/>
<path fill-rule="evenodd" clip-rule="evenodd" d="M12.6181 5.3125C12.2513 5.3125 11.9785 5.6515 12.0569 6.00978L12.2842 7.04834C12.3217 7.21974 12.4335 7.35914 12.5812 7.43573C12.442 7.52583 12.3435 7.67489 12.3226 7.85025L11.3074 16.3708C11.282 16.5845 11.3782 16.7945 11.5666 16.8983C11.9853 17.129 12.7825 17.5 13.5798 17.5C14.3771 17.5 15.1743 17.129 15.593 16.8983C15.7814 16.7945 15.8776 16.5845 15.8522 16.3708L14.837 7.85025C14.8161 7.67489 14.7176 7.52583 14.5784 7.43573C14.7262 7.35914 14.8379 7.21974 14.8755 7.04835L15.1027 6.00978C15.1812 5.6515 14.9083 5.3125 14.5416 5.3125H12.6181Z" fill="#A7A7A7"/>
<path d="M6.38946 10.0096C6.42814 9.88583 6.56198 9.81619 6.68839 9.85407C6.8148 9.89195 6.88591 10.023 6.84723 10.1468C6.78031 10.3609 6.78031 10.6772 6.85414 11.0911C6.88246 11.2498 6.91613 11.3724 6.95754 11.4806C6.97403 11.5238 6.99109 11.5633 7.01389 11.6122C7.00374 11.5904 7.05937 11.7086 7.0729 11.7392C7.14444 11.9011 7.17608 12.043 7.17608 12.2509C7.17608 12.3804 7.06891 12.4853 6.93672 12.4853C6.80452 12.4853 6.69735 12.3804 6.69735 12.2509C6.69735 12.1089 6.67977 12.03 6.63353 11.9253C6.62264 11.9007 6.57067 11.7903 6.57824 11.8066C6.55123 11.7485 6.53007 11.6996 6.50922 11.645C6.45726 11.5092 6.41589 11.3586 6.38256 11.1717C6.2969 10.6916 6.2969 10.3058 6.38946 10.0096Z" fill="#73BE4A"/>
<path fill-rule="evenodd" clip-rule="evenodd" d="M13.6596 13.1344L10.5737 15.237L11.6624 11.7135L8.66653 9.48958L12.4252 9.41458L13.6596 5.9375L14.8939 9.41458L18.6526 9.48958L15.6568 11.7135L16.7454 15.237L13.6596 13.1344Z" fill="#F7FCFF"/>
<path d="M20.6696 10.3221C20.6309 10.1983 20.4971 10.1287 20.3707 10.1666C20.2443 10.2044 20.1732 10.3355 20.2118 10.4593C20.2788 10.6734 20.2788 10.9897 20.2049 11.4036C20.1766 11.5623 20.143 11.6849 20.1015 11.7931C20.0851 11.8363 20.068 11.8758 20.0452 11.9247C20.0553 11.9029 19.9997 12.0211 19.9862 12.0517C19.9146 12.2136 19.883 12.3555 19.883 12.5634C19.883 12.6929 19.9902 12.7978 20.1224 12.7978C20.2546 12.7978 20.3617 12.6929 20.3617 12.5634C20.3617 12.4214 20.3793 12.3425 20.4256 12.2378C20.4364 12.2132 20.4884 12.1028 20.4808 12.1191C20.5079 12.061 20.529 12.0121 20.5499 11.9575C20.6018 11.8217 20.6432 11.6711 20.6765 11.4842C20.7622 11.0041 20.7622 10.6183 20.6696 10.3221Z" fill="#73BE4A"/>
<path d="M13.5457 3.3606C13.5457 3.3606 14.4189 3.74965 14.0418 4.36221" stroke="#73BE4A" stroke-linecap="round" stroke-linejoin="round"/>
<path d="M14.184 3.3606C14.184 3.3606 15.0572 3.74965 14.6801 4.36221" stroke="#73BE4A" stroke-linecap="round" stroke-linejoin="round"/>
<path d="M8.44488 5.76764C8.5082 5.65805 8.64118 5.62505 8.74191 5.69393C8.84264 5.76282 8.87297 5.9075 8.80966 6.01709C8.68818 6.22735 8.62494 6.51584 8.62494 6.88574C8.62494 7.01518 8.52849 7.12011 8.40952 7.12011C8.29054 7.12011 8.19409 7.01518 8.19409 6.88574C8.19409 6.43368 8.27602 6.05991 8.44488 5.76764Z" fill="#73BE4A"/>
<path d="M8.10639 7.90943C8.10639 8.03888 8.00994 8.14381 7.89096 8.14381C7.77199 8.14381 7.67554 8.03888 7.67554 7.90943V7.24181C7.67554 6.76941 7.74964 6.39738 7.90588 6.12571C7.96899 6.01598 8.10191 5.98269 8.20277 6.05135C8.30363 6.12001 8.33423 6.26462 8.27113 6.37435C8.16398 6.56065 8.10639 6.84981 8.10639 7.24181V7.90943Z" fill="#73BE4A"/>
<path d="M19.1132 7.59693C19.1132 7.72638 19.2096 7.83131 19.3286 7.83131C19.4476 7.83131 19.544 7.72638 19.544 7.59693V6.92931C19.544 6.45691 19.4699 6.08488 19.3137 5.81321C19.2506 5.70348 19.1176 5.67019 19.0168 5.73885C18.9159 5.80751 18.8853 5.95212 18.9484 6.06185C19.0556 6.24815 19.1132 6.53731 19.1132 6.92931V7.59693Z" fill="#73BE4A"/>
<path d="M19.7515 8.69068C19.7515 8.82013 19.8479 8.92506 19.9669 8.92506C20.0859 8.92506 20.1823 8.82013 20.1823 8.69068V8.02306C20.1823 7.55066 20.1082 7.17863 19.952 6.90696C19.8889 6.79723 19.7559 6.76394 19.6551 6.8326C19.5542 6.90126 19.5236 7.04587 19.5867 7.1556C19.6939 7.3419 19.7515 7.63106 19.7515 8.02306V8.69068Z" fill="#73BE4A"/>
</g>
</g>
<rect x="1.75" y="1.25" width="23.5" height="17.5" stroke="black" stroke-opacity="0.1" stroke-width="0.5" shape-rendering="crispEdges"/>
</g>
<defs>
<filter id="filter0_dd_701_21700" x="0" y="0" width="27" height="21" filterUnits="userSpaceOnUse" color-interpolation-filters="sRGB">
<feFlood flood-opacity="0" result="BackgroundImageFix"/>
<feColorMatrix in="SourceAlpha" type="matrix" values="0 0 0 0 0 0 0 0 0 0 0 0 0 0 0 0 0 0 127 0" result="hardAlpha"/>
<feOffset dy="0.5"/>
<feGaussianBlur stdDeviation="0.75"/>
<feComposite in2="hardAlpha" operator="out"/>
<feColorMatrix type="matrix" values="0 0 0 0 0 0 0 0 0 0 0 0 0 0 0 0 0 0 0.1 0"/>
<feBlend mode="multiply" in2="BackgroundImageFix" result="effect1_dropShadow_701_21700"/>
<feColorMatrix in="SourceAlpha" type="matrix" values="0 0 0 0 0 0 0 0 0 0 0 0 0 0 0 0 0 0 127 0" result="hardAlpha"/>
<feOffset/>
<feGaussianBlur stdDeviation="0.5"/>
<feComposite in2="hardAlpha" operator="out"/>
<feColorMatrix type="matrix" values="0 0 0 0 0 0 0 0 0 0 0 0 0 0 0 0 0 0 0.11 0"/>
<feBlend mode="multiply" in2="effect1_dropShadow_701_21700" result="effect2_dropShadow_701_21700"/>
<feBlend mode="normal" in="SourceGraphic" in2="effect2_dropShadow_701_21700" result="shape"/>
</filter>
<clipPath id="clip0_701_21700">
<rect x="1.5" y="1" width="24" height="18" fill="white"/>
</clipPath>
</defs>
</svg>
