<svg width="27" height="21" viewBox="0 0 27 21" fill="none" xmlns="http://www.w3.org/2000/svg">
<g filter="url(#filter0_dd_701_22919)">
<g clip-path="url(#clip0_701_22919)">
<mask id="mask0_701_22919" style="mask-type:alpha" maskUnits="userSpaceOnUse" x="1" y="1" width="25" height="18">
<rect x="1.5" y="1" width="24" height="18" fill="white"/>
</mask>
<g mask="url(#mask0_701_22919)">
<path fill-rule="evenodd" clip-rule="evenodd" d="M1.5 1V19H25.5V1H1.5Z" fill="#2E42A5"/>
<mask id="mask1_701_22919" style="mask-type:alpha" maskUnits="userSpaceOnUse" x="1" y="1" width="25" height="18">
<path fill-rule="evenodd" clip-rule="evenodd" d="M1.5 1V19H25.5V1H1.5Z" fill="white"/>
</mask>
<g mask="url(#mask1_701_22919)">
<path fill-rule="evenodd" clip-rule="evenodd" d="M1.5 10V19H25.5V10H1.5Z" fill="#E31D1C"/>
<rect x="9" y="7" width="9" height="6" fill="white"/>
<mask id="mask2_701_22919" style="mask-type:alpha" maskUnits="userSpaceOnUse" x="9" y="7" width="9" height="6">
<rect x="9" y="7" width="9" height="6" fill="white"/>
</mask>
<g mask="url(#mask2_701_22919)">
<path fill-rule="evenodd" clip-rule="evenodd" d="M9 11.9333C9 11.9333 11.1603 11.3653 13.5 11.3999C15.8397 11.4346 18 12.0666 18 12.0666V12.9999H9V11.9333Z" fill="#279E19"/>
<path d="M13.5552 7.67586C13.5552 7.67586 12.8569 7.36133 12.3695 7.36133C11.882 7.36133 11.6112 7.84141 11.6112 7.84141" stroke="#026A16" stroke-width="0.5"/>
<path d="M13.7104 7.99117C13.7104 7.99117 13.0678 7.76135 12.6193 7.76135C12.1707 7.76135 11.9215 8.11213 11.9215 8.11213" stroke="#026A16" stroke-width="0.5"/>
<path d="M13.7104 8.25777C13.7104 8.25777 13.235 8.02795 12.9032 8.02795C12.5714 8.02795 12.3871 8.37873 12.3871 8.37873" stroke="#026A16" stroke-width="0.5"/>
<path d="M13.515 8.52449C13.515 8.52449 13.2213 8.29468 13.0163 8.29468C12.8113 8.29468 12.6974 8.64545 12.6974 8.64545" stroke="#026A16" stroke-width="0.5"/>
<path d="M13.4898 8.70637C13.4898 8.70637 13.3724 8.56128 13.2904 8.56128C13.2085 8.56128 13.1629 8.78274 13.1629 8.78274" stroke="#026A16" stroke-width="0.5"/>
<path d="M13.4448 7.67586C13.4448 7.67586 14.1431 7.36133 14.6305 7.36133C15.118 7.36133 15.3888 7.84141 15.3888 7.84141" stroke="#026A16" stroke-width="0.5"/>
<path d="M13.2896 7.99117C13.2896 7.99117 13.9322 7.76135 14.3807 7.76135C14.8293 7.76135 15.0784 8.11213 15.0784 8.11213" stroke="#026A16" stroke-width="0.5"/>
<path d="M13.2896 8.25777C13.2896 8.25777 13.7649 8.02795 14.0968 8.02795C14.4286 8.02795 14.6129 8.37873 14.6129 8.37873" stroke="#026A16" stroke-width="0.5"/>
<path d="M13.485 8.52449C13.485 8.52449 13.7787 8.29468 13.9837 8.29468C14.1887 8.29468 14.3026 8.64545 14.3026 8.64545" stroke="#026A16" stroke-width="0.5"/>
<path d="M13.5101 8.70637C13.5101 8.70637 13.6276 8.56128 13.7095 8.56128C13.7915 8.56128 13.837 8.78274 13.837 8.78274" stroke="#026A16" stroke-width="0.5"/>
<path fill-rule="evenodd" clip-rule="evenodd" d="M13.4157 8.79871C13.4157 8.79871 13.33 9.80177 13.33 10.21C13.33 10.6182 13.4157 11.499 13.4157 11.499H13.636C13.636 11.499 13.636 10.5508 13.636 10.21C13.636 9.8692 13.5067 8.79871 13.5067 8.79871H13.4157Z" fill="#FECA00"/>
<path fill-rule="evenodd" clip-rule="evenodd" d="M12.549 9.93884C12.549 9.93884 12.0059 10.2296 12.0059 11.0902L12.549 12.1293H13.5292V10.4181L12.549 9.93884Z" fill="#C51918"/>
<path fill-rule="evenodd" clip-rule="evenodd" d="M11.7442 9.11951C11.7442 9.11951 10.4761 9.49518 10.4761 10.881L12.1191 11.0212C12.1191 11.0212 12.0293 10.216 12.5349 9.84359L11.7442 9.11951Z" fill="#0A328C"/>
<path d="M11.2207 8.5907L13.3961 10.5842" stroke="#FFD018" stroke-width="0.5"/>
<path d="M10.4651 9.04211L13.4992 11.0123" stroke="#FFD018" stroke-width="0.5"/>
<path d="M9.94287 9.80469L13.3626 11.3686" stroke="#FFD018" stroke-width="0.5"/>
<path fill-rule="evenodd" clip-rule="evenodd" d="M10.4848 10.8701L12.7541 11.1238L12.6263 11.4405H12.2666L12.5116 11.6195L13.0641 11.7488V11.4405H13.548V12.0954H12.5116L12.1141 11.6195C12.1141 11.6195 11.7802 11.9486 11.4544 11.9486C11.1285 11.9486 10.8073 11.8417 10.8073 11.4828C10.8073 11.1238 10.8073 11.2331 10.8073 11.2331L10.4848 11.1238V10.8701Z" fill="#FECA00"/>
<path fill-rule="evenodd" clip-rule="evenodd" d="M14.1406 9.93884C14.1406 9.93884 14.6838 10.2296 14.6838 11.0902L14.1406 12.1293H13.1604V10.4181L14.1406 9.93884Z" fill="#C51918"/>
<path fill-rule="evenodd" clip-rule="evenodd" d="M14.9455 9.11951C14.9455 9.11951 16.2136 9.49518 16.2136 10.881L14.5706 11.0212C14.5706 11.0212 14.6603 10.216 14.1548 9.84359L14.9455 9.11951Z" fill="#0A328C"/>
<path d="M15.469 8.5907L13.2936 10.5842" stroke="#FFD018" stroke-width="0.5"/>
<path d="M16.2245 9.04211L13.1904 11.0123" stroke="#FFD018" stroke-width="0.5"/>
<path d="M16.7468 9.80469L13.3271 11.3686" stroke="#FFD018" stroke-width="0.5"/>
<path fill-rule="evenodd" clip-rule="evenodd" d="M16.2048 10.8701L13.9356 11.1238L14.0633 11.4405H14.4231L14.1781 11.6195L13.6256 11.7488V11.4405H13.1417V12.0954H14.1781L14.5756 11.6195C14.5756 11.6195 14.9095 11.9486 15.2353 11.9486C15.5611 11.9486 15.8824 11.8417 15.8824 11.4828C15.8824 11.1238 15.8824 11.2331 15.8824 11.2331L16.2048 11.1238V10.8701Z" fill="#FECA00"/>
</g>
</g>
</g>
</g>
<rect x="1.75" y="1.25" width="23.5" height="17.5" stroke="black" stroke-opacity="0.1" stroke-width="0.5" shape-rendering="crispEdges"/>
</g>
<defs>
<filter id="filter0_dd_701_22919" x="0" y="0" width="27" height="21" filterUnits="userSpaceOnUse" color-interpolation-filters="sRGB">
<feFlood flood-opacity="0" result="BackgroundImageFix"/>
<feColorMatrix in="SourceAlpha" type="matrix" values="0 0 0 0 0 0 0 0 0 0 0 0 0 0 0 0 0 0 127 0" result="hardAlpha"/>
<feOffset dy="0.5"/>
<feGaussianBlur stdDeviation="0.75"/>
<feComposite in2="hardAlpha" operator="out"/>
<feColorMatrix type="matrix" values="0 0 0 0 0 0 0 0 0 0 0 0 0 0 0 0 0 0 0.1 0"/>
<feBlend mode="multiply" in2="BackgroundImageFix" result="effect1_dropShadow_701_22919"/>
<feColorMatrix in="SourceAlpha" type="matrix" values="0 0 0 0 0 0 0 0 0 0 0 0 0 0 0 0 0 0 127 0" result="hardAlpha"/>
<feOffset/>
<feGaussianBlur stdDeviation="0.5"/>
<feComposite in2="hardAlpha" operator="out"/>
<feColorMatrix type="matrix" values="0 0 0 0 0 0 0 0 0 0 0 0 0 0 0 0 0 0 0.11 0"/>
<feBlend mode="multiply" in2="effect1_dropShadow_701_22919" result="effect2_dropShadow_701_22919"/>
<feBlend mode="normal" in="SourceGraphic" in2="effect2_dropShadow_701_22919" result="shape"/>
</filter>
<clipPath id="clip0_701_22919">
<rect x="1.5" y="1" width="24" height="18" fill="white"/>
</clipPath>
</defs>
</svg>
