<svg width="27" height="21" viewBox="0 0 27 21" fill="none" xmlns="http://www.w3.org/2000/svg">
<g filter="url(#filter0_dd_701_19069)">
<g clip-path="url(#clip0_701_19069)">
<rect x="1.5" y="1" width="24" height="18" fill="#19BFBF"/>
<path fill-rule="evenodd" clip-rule="evenodd" d="M12.9286 13.6856L12.4493 12.727C12.3928 12.6141 12.2774 12.5428 12.1511 12.5428H11.9238C11.8354 12.5428 11.7506 12.5076 11.6881 12.4451L9.59765 10.3547C9.53514 10.2922 9.50002 10.2074 9.50002 10.119V9.25226C9.50002 9.16385 9.4649 9.07907 9.40239 9.01656L8.42245 8.03662C8.37973 7.9939 8.34942 7.94037 8.33477 7.88176L7.83011 5.86314C7.80247 5.75257 7.72026 5.66379 7.61214 5.62775L6.09392 5.12168C6.07896 5.11669 6.06437 5.11065 6.05026 5.10359L5.11285 4.63489C4.99992 4.57843 4.92859 4.46301 4.92859 4.33675V3.73324C4.92859 3.54914 5.07783 3.3999 5.26192 3.3999H5.93337C6.02178 3.3999 6.10656 3.43502 6.16908 3.49753L6.54524 3.8737C6.60776 3.93621 6.69254 3.97133 6.78095 3.97133H7.64766C7.73607 3.97133 7.82085 3.93621 7.88336 3.8737L8.25953 3.49753C8.32204 3.43502 8.40683 3.3999 8.49523 3.3999H10.5642C10.6159 3.3999 10.667 3.41195 10.7133 3.43509L11.7153 3.93614C11.7616 3.95928 11.8127 3.97133 11.8644 3.97133H12.8499C12.9016 3.97133 12.9527 3.95928 12.999 3.93614L14.0011 3.43509C14.0473 3.41195 14.0984 3.3999 14.1501 3.3999H16.0238C16.2079 3.3999 16.3572 3.54914 16.3572 3.73324V4.20943C16.3572 4.39352 16.2079 4.54276 16.0238 4.54276H15.5476C15.3635 4.54276 15.2143 4.692 15.2143 4.87609V6.05103C15.2143 6.17729 15.2856 6.29271 15.3986 6.34918L15.8748 6.58727C16.0964 6.69809 16.3572 6.53692 16.3572 6.28913V5.44752C16.3572 5.26343 16.5064 5.11419 16.6905 5.11419H17.7857C17.9435 5.11419 18.0714 5.24211 18.0714 5.3999C18.0714 5.5577 18.1994 5.68562 18.3572 5.68562H19.4524C19.6365 5.68562 19.7857 5.83486 19.7857 6.01895V6.77438C19.7857 6.81021 19.78 6.8458 19.7686 6.87979L19.2392 8.46811C19.2228 8.5172 19.1953 8.56181 19.1587 8.5984L17.5383 10.2188C17.5129 10.2441 17.4918 10.2734 17.4758 10.3054L16.9638 11.3295C16.9406 11.3758 16.9286 11.4268 16.9286 11.4786V12.2094C16.9286 12.3935 16.7794 12.5428 16.5953 12.5428H16.5632C16.4369 12.5428 16.3215 12.4714 16.265 12.3585L15.8779 11.5842C15.8214 11.4712 15.706 11.3999 15.5797 11.3999H14.2775C14.1512 11.3999 14.0358 11.4712 13.9793 11.5842L13.5746 12.3937C13.5276 12.4875 13.5276 12.598 13.5746 12.6918L13.9793 13.5014C14.0358 13.6143 14.1512 13.6856 14.2775 13.6856H15.0762C15.1646 13.6856 15.2494 13.7207 15.3119 13.7832L16.2595 14.7308C16.322 14.7934 16.3572 14.8781 16.3572 14.9665V15.638C16.3572 15.8221 16.2079 15.9713 16.0238 15.9713H15.4203C15.2941 15.9713 15.1786 15.9 15.1222 15.7871L14.735 15.0127C14.6785 14.8998 14.5631 14.8285 14.4369 14.8285H13.706C13.5798 14.8285 13.4644 14.7571 13.4079 14.6442L12.9286 13.6856Z" fill="white"/>
</g>
<rect x="1.75" y="1.25" width="23.5" height="17.5" stroke="black" stroke-opacity="0.1" stroke-width="0.5" shape-rendering="crispEdges"/>
</g>
<defs>
<filter id="filter0_dd_701_19069" x="0" y="0" width="27" height="21" filterUnits="userSpaceOnUse" color-interpolation-filters="sRGB">
<feFlood flood-opacity="0" result="BackgroundImageFix"/>
<feColorMatrix in="SourceAlpha" type="matrix" values="0 0 0 0 0 0 0 0 0 0 0 0 0 0 0 0 0 0 127 0" result="hardAlpha"/>
<feOffset dy="0.5"/>
<feGaussianBlur stdDeviation="0.75"/>
<feComposite in2="hardAlpha" operator="out"/>
<feColorMatrix type="matrix" values="0 0 0 0 0 0 0 0 0 0 0 0 0 0 0 0 0 0 0.1 0"/>
<feBlend mode="multiply" in2="BackgroundImageFix" result="effect1_dropShadow_701_19069"/>
<feColorMatrix in="SourceAlpha" type="matrix" values="0 0 0 0 0 0 0 0 0 0 0 0 0 0 0 0 0 0 127 0" result="hardAlpha"/>
<feOffset/>
<feGaussianBlur stdDeviation="0.5"/>
<feComposite in2="hardAlpha" operator="out"/>
<feColorMatrix type="matrix" values="0 0 0 0 0 0 0 0 0 0 0 0 0 0 0 0 0 0 0.11 0"/>
<feBlend mode="multiply" in2="effect1_dropShadow_701_19069" result="effect2_dropShadow_701_19069"/>
<feBlend mode="normal" in="SourceGraphic" in2="effect2_dropShadow_701_19069" result="shape"/>
</filter>
<clipPath id="clip0_701_19069">
<rect x="1.5" y="1" width="24" height="18" fill="white"/>
</clipPath>
</defs>
</svg>
