<svg width="27" height="21" viewBox="0 0 27 21" fill="none" xmlns="http://www.w3.org/2000/svg">
<g filter="url(#filter0_dd_701_23895)">
<g clip-path="url(#clip0_701_23895)">
<mask id="mask0_701_23895" style="mask-type:alpha" maskUnits="userSpaceOnUse" x="1" y="1" width="25" height="18">
<rect x="1.5" y="1" width="24" height="18" fill="white"/>
</mask>
<g mask="url(#mask0_701_23895)">
<path fill-rule="evenodd" clip-rule="evenodd" d="M1.5 1V19H25.5V1H1.5Z" fill="#2E42A5"/>
<mask id="mask1_701_23895" style="mask-type:alpha" maskUnits="userSpaceOnUse" x="1" y="1" width="25" height="18">
<path fill-rule="evenodd" clip-rule="evenodd" d="M1.5 1V19H25.5V1H1.5Z" fill="white"/>
</mask>
<g mask="url(#mask1_701_23895)">
<path fill-rule="evenodd" clip-rule="evenodd" d="M1.5 1V10H25.5V1H1.5Z" fill="#FECA00"/>
<path fill-rule="evenodd" clip-rule="evenodd" d="M1.5 14.5V19H25.5V14.5H1.5Z" fill="#E31D1C"/>
<path fill-rule="evenodd" clip-rule="evenodd" d="M8.7878 5.28568C8.7878 5.28568 11.905 3.87746 12.1883 4.03744C12.4716 4.19742 12.54 4.6534 12.7846 4.6534C13.0292 4.6534 13.5216 4.50931 13.7272 4.50931C13.9328 4.50931 14.136 4.6534 14.136 4.6534H15.014V4.16516L18.9952 5.28568C18.9952 5.28568 16.6732 5.58903 16.4982 5.58903C16.3231 5.58903 16.4982 5.83925 16.4982 5.83925C16.4982 5.83925 16.167 5.58903 15.6628 5.58903C15.1586 5.58903 14.136 6.10996 14.136 6.10996L14.5077 6.90957L14.136 7.1447L13.7272 6.90957C13.7272 6.90957 13.7537 6.252 13.5776 6.252C13.4015 6.252 13.2732 6.67444 13.2732 6.90957C13.2732 7.1447 12.7846 7.1447 12.7846 7.1447L13.0028 6.70452C13.0028 6.70452 13.2197 5.97474 12.7846 5.97474C12.3495 5.97474 10.366 5.58903 10.366 5.58903L9.85878 5.83925L10.0401 5.28568H8.7878Z" fill="#7B2900"/>
<path fill-rule="evenodd" clip-rule="evenodd" d="M10.1259 12.8307C9.6394 11.7373 10.1259 9.31494 10.1259 9.31494L11.0714 9.81073C10.9593 10.3761 10.9417 11.4444 11.2955 12.3181C11.6493 13.1918 12.9868 13.8799 12.9868 13.8799C12.9868 13.8799 13.6615 14.0304 12.6363 14.1388C11.6112 14.2472 10.6125 13.9241 10.1259 12.8307ZM12.5499 17.1376C12.2453 17.1376 13.1591 15.1059 13.1591 15.1059L13.4411 14.5414C13.4411 14.5414 13.4756 16.933 13.2825 17.1376C13.1587 17.2688 13.0177 17.2317 12.8522 17.1883C12.7596 17.164 12.6592 17.1376 12.5499 17.1376Z" fill="#E31D1C"/>
<path fill-rule="evenodd" clip-rule="evenodd" d="M9.24511 12.4736C8.8375 10.8409 9.4734 8.62378 9.4734 8.62378L10.1134 9.08104C10.0194 9.92525 10.0194 12.1084 10.5607 13.0543C11.102 14.0003 13.4761 14.3976 13.4761 14.3976C13.4761 14.3976 13.0077 14.7439 12.1488 14.9058C11.29 15.0676 9.65272 14.1064 9.24511 12.4736ZM11.9668 16.9129L12.3434 15.5686L12.8741 14.9192H13.2557C13.2557 14.9192 12.7185 17.2297 12.3434 17.2297C12.0997 17.2297 12.1726 17.096 12.2536 16.9475C12.2973 16.8674 12.3434 16.783 12.3434 16.7129C12.3434 16.5129 11.9668 16.9129 11.9668 16.9129Z" fill="#2E42A5"/>
<path fill-rule="evenodd" clip-rule="evenodd" d="M8.62339 12.7533C8.42112 11.3479 8.82566 7.98999 8.82566 7.98999L9.46563 8.44725C9.17638 9.26062 9.26595 11.5946 9.46563 12.7533C9.66532 13.9121 11.5548 14.6106 11.5548 14.6106C11.5548 14.6106 11.0865 14.9569 10.2276 15.1187C9.36871 15.2806 8.82566 14.1587 8.62339 12.7533ZM11.7649 15.5617C11.4005 15.5617 11.9237 15.0392 11.9237 15.0392H12.7961C12.7961 15.0392 12.4976 15.7772 12.1292 15.7772C11.9445 15.7772 11.945 15.723 11.9455 15.669C11.946 15.6153 11.9465 15.5617 11.7649 15.5617Z" fill="#FECA00"/>
<path fill-rule="evenodd" clip-rule="evenodd" d="M16.7741 12.8307C17.2606 11.7373 16.7741 9.31494 16.7741 9.31494L15.8285 9.81073C15.9407 10.3761 15.9583 11.4444 15.6045 12.3181C15.2507 13.1918 13.9132 13.8799 13.9132 13.8799C13.9132 13.8799 13.2385 14.0304 14.2636 14.1388C15.2888 14.2472 16.2875 13.9241 16.7741 12.8307ZM14.3501 17.1376C14.6547 17.1376 13.7409 15.1059 13.7409 15.1059L13.4589 14.5414C13.4589 14.5414 13.4244 16.933 13.6175 17.1376C13.7413 17.2688 13.8822 17.2317 14.0478 17.1883C14.1404 17.164 14.2408 17.1376 14.3501 17.1376Z" fill="#E31D1C"/>
<path fill-rule="evenodd" clip-rule="evenodd" d="M17.6549 12.4736C18.0625 10.8409 17.4266 8.62378 17.4266 8.62378L16.7866 9.08104C16.8806 9.92525 16.8806 12.1084 16.3393 13.0543C15.798 14.0003 13.4239 14.3976 13.4239 14.3976C13.4239 14.3976 13.8923 14.7439 14.7512 14.9058C15.61 15.0676 17.2473 14.1064 17.6549 12.4736ZM14.9332 16.9129L14.5566 15.5686L14.0259 14.9192H13.6443C13.6443 14.9192 14.1815 17.2297 14.5566 17.2297C14.8003 17.2297 14.7274 17.096 14.6464 16.9475C14.6027 16.8674 14.5566 16.783 14.5566 16.7129C14.5566 16.5129 14.9332 16.9129 14.9332 16.9129Z" fill="#2E42A5"/>
<path fill-rule="evenodd" clip-rule="evenodd" d="M18.2766 12.7533C18.4789 11.3479 18.0743 7.98999 18.0743 7.98999L17.4344 8.44725C17.7236 9.26062 17.6341 11.5946 17.4344 12.7533C17.2347 13.9121 15.3452 14.6106 15.3452 14.6106C15.3452 14.6106 15.8136 14.9569 16.6724 15.1187C17.5313 15.2806 18.0743 14.1587 18.2766 12.7533ZM15.1352 15.5617C15.4995 15.5617 14.9763 15.0392 14.9763 15.0392H14.1039C14.1039 15.0392 14.4024 15.7772 14.7708 15.7772C14.9555 15.7772 14.955 15.723 14.9545 15.669C14.954 15.6153 14.9535 15.5617 15.1352 15.5617Z" fill="#FECA00"/>
<path d="M9.15211 8.83453L9.22079 8.42025L10.4215 8.49798L9.51073 7.55454L9.81759 7.26265L11.0493 8.53862L9.99627 6.55863L10.3603 6.34211L11.3191 7.75239L10.8618 6.28652L11.255 6.13013L12.7292 9.07015L12.1637 9.03354L12.2191 9.21114L12.7005 9.33881L12.5909 9.74639L12.3676 9.68719L12.5762 10.3557L12.2139 9.82278L12.8447 11.0082L11.2949 9.40273L9.15211 8.83453Z" fill="#6FAE21"/>
<path d="M17.9446 8.83453L17.876 8.42025L16.6753 8.49798L17.586 7.55454L17.2792 7.26265L16.0474 8.53862L17.1005 6.55863L16.7364 6.34211L15.7777 7.75239L16.235 6.28652L15.8418 6.13013L14.3675 9.07015L14.9331 9.03354L14.8777 9.21114L14.3962 9.33881L14.5059 9.74639L14.7292 9.68719L14.5206 10.3557L14.8829 9.82278L14.2521 11.0082L15.8019 9.40273L17.9446 8.83453Z" fill="#6FAE21"/>
<path d="M9.80005 16.9834L9.49081 16.694L18.6336 7.06787L18.9428 7.35727L9.80005 16.9834Z" fill="#171401"/>
<path fill-rule="evenodd" clip-rule="evenodd" d="M18.4014 7.14201L18.8701 7.58409L19.1343 6.85327L18.4014 7.14201Z" fill="#CECECC"/>
<path fill-rule="evenodd" clip-rule="evenodd" d="M10.0323 16.9814L9.49384 16.6275L9.31941 17.3531L10.0323 16.9814Z" fill="#CECECC"/>
<path d="M9.12004 15.549L8.81081 15.2596L17.9536 5.63354L18.2628 5.92295L9.12004 15.549Z" fill="#171401"/>
<path fill-rule="evenodd" clip-rule="evenodd" d="M17.7213 5.70769L18.1901 6.14976L18.4543 5.41895L17.7213 5.70769Z" fill="#CECECC"/>
<path fill-rule="evenodd" clip-rule="evenodd" d="M9.35224 15.5471L8.81383 15.1932L8.6394 15.9188L9.35224 15.5471Z" fill="#CECECC"/>
<path d="M17.4399 16.9834L17.7492 16.694L8.6064 7.06787L8.29716 7.35727L17.4399 16.9834Z" fill="#171401"/>
<path fill-rule="evenodd" clip-rule="evenodd" d="M8.83864 7.14201L8.36987 7.58409L8.10566 6.85327L8.83864 7.14201Z" fill="#CECECC"/>
<path fill-rule="evenodd" clip-rule="evenodd" d="M17.2077 16.9814L17.7462 16.6275L17.9206 17.3531L17.2077 16.9814Z" fill="#CECECC"/>
<path d="M18.2899 15.8866L18.5992 15.5972L9.45637 5.97107L9.14714 6.26047L18.2899 15.8866Z" fill="#171401"/>
<path fill-rule="evenodd" clip-rule="evenodd" d="M9.68863 6.04521L9.21986 6.48729L8.95565 5.75647L9.68863 6.04521Z" fill="#CECECC"/>
<path fill-rule="evenodd" clip-rule="evenodd" d="M18.0577 15.8846L18.5961 15.5307L18.7706 16.2563L18.0577 15.8846Z" fill="#CECECC"/>
<rect x="11.75" y="13.2812" width="3.4" height="1.6875" fill="#B74E01"/>
<path d="M13.4608 14.0276C14.164 14.0276 14.7637 13.5755 15.175 12.9223C15.5883 12.2658 15.8358 11.3743 15.8358 10.4026C15.8358 9.43091 15.5883 8.5394 15.175 7.8829C14.7637 7.22969 14.164 6.77759 13.4608 6.77759C12.7576 6.77759 12.1579 7.22969 11.7467 7.8829C11.3333 8.5394 11.0858 9.43091 11.0858 10.4026C11.0858 11.3743 11.3333 12.2658 11.7467 12.9223C12.1579 13.5755 12.7576 14.0276 13.4608 14.0276Z" fill="#7DB8FF" stroke="#FECA00" stroke-width="0.5"/>
<mask id="mask2_701_23895" style="mask-type:alpha" maskUnits="userSpaceOnUse" x="10" y="6" width="7" height="9">
<path d="M13.4608 14.0276C14.164 14.0276 14.7637 13.5755 15.175 12.9223C15.5883 12.2658 15.8358 11.3743 15.8358 10.4026C15.8358 9.43091 15.5883 8.5394 15.175 7.8829C14.7637 7.22969 14.164 6.77759 13.4608 6.77759C12.7576 6.77759 12.1579 7.22969 11.7467 7.8829C11.3333 8.5394 11.0858 9.43091 11.0858 10.4026C11.0858 11.3743 11.3333 12.2658 11.7467 12.9223C12.1579 13.5755 12.7576 14.0276 13.4608 14.0276Z" fill="white" stroke="white" stroke-width="0.5"/>
</mask>
<g mask="url(#mask2_701_23895)">
<path fill-rule="evenodd" clip-rule="evenodd" d="M11.1596 10.4574H12.3688C12.3688 10.4574 13.2 10.6416 12.7844 10.7865C12.3688 10.9314 12.3688 10.9793 12.3688 11.186C12.3688 11.3926 12.3688 12.1489 12.3688 12.3104C12.3688 12.4719 12.6645 12.8177 12.0413 12.8177C11.4181 12.8177 10.8811 10.2556 10.8811 10.2556L11.1596 10.4574Z" fill="#6FAE21"/>
<path fill-rule="evenodd" clip-rule="evenodd" d="M15.8843 10.5966C15.8843 10.5966 14.761 10.8185 13.9915 10.7445C13.222 10.6705 12.8843 10.5966 12.8843 10.5966C12.8843 10.5966 13.4207 10.8755 13.6113 11.1093C13.8019 11.3431 14.1922 11.7473 14.59 11.7473C14.9879 11.7473 15.5977 12.1247 15.5977 12.1247L15.8843 10.5966Z" fill="#6FAE21"/>
<path fill-rule="evenodd" clip-rule="evenodd" d="M11.4891 8.60168C11.4891 8.60168 12.4151 8.78064 12.6381 9.0486C12.8611 9.31656 12.3435 9.58452 13.6927 9.31656C15.042 9.0486 16.113 8.58119 16.113 9.31656C16.113 10.0519 15.9951 10.7293 15.4145 10.7293C14.8339 10.7293 14.6023 10.7293 12.8316 10.7293C11.0608 10.7293 10.0956 11.2709 10.2196 10.3995C10.3435 9.52807 11.4891 8.60168 11.4891 8.60168Z" fill="#F7FCFF"/>
</g>
</g>
</g>
</g>
<rect x="1.75" y="1.25" width="23.5" height="17.5" stroke="black" stroke-opacity="0.1" stroke-width="0.5" shape-rendering="crispEdges"/>
</g>
<defs>
<filter id="filter0_dd_701_23895" x="0" y="0" width="27" height="21" filterUnits="userSpaceOnUse" color-interpolation-filters="sRGB">
<feFlood flood-opacity="0" result="BackgroundImageFix"/>
<feColorMatrix in="SourceAlpha" type="matrix" values="0 0 0 0 0 0 0 0 0 0 0 0 0 0 0 0 0 0 127 0" result="hardAlpha"/>
<feOffset dy="0.5"/>
<feGaussianBlur stdDeviation="0.75"/>
<feComposite in2="hardAlpha" operator="out"/>
<feColorMatrix type="matrix" values="0 0 0 0 0 0 0 0 0 0 0 0 0 0 0 0 0 0 0.1 0"/>
<feBlend mode="multiply" in2="BackgroundImageFix" result="effect1_dropShadow_701_23895"/>
<feColorMatrix in="SourceAlpha" type="matrix" values="0 0 0 0 0 0 0 0 0 0 0 0 0 0 0 0 0 0 127 0" result="hardAlpha"/>
<feOffset/>
<feGaussianBlur stdDeviation="0.5"/>
<feComposite in2="hardAlpha" operator="out"/>
<feColorMatrix type="matrix" values="0 0 0 0 0 0 0 0 0 0 0 0 0 0 0 0 0 0 0.11 0"/>
<feBlend mode="multiply" in2="effect1_dropShadow_701_23895" result="effect2_dropShadow_701_23895"/>
<feBlend mode="normal" in="SourceGraphic" in2="effect2_dropShadow_701_23895" result="shape"/>
</filter>
<clipPath id="clip0_701_23895">
<rect x="1.5" y="1" width="24" height="18" fill="white"/>
</clipPath>
</defs>
</svg>
