<svg width="27" height="21" viewBox="0 0 27 21" fill="none" xmlns="http://www.w3.org/2000/svg">
<g filter="url(#filter0_dd_701_25140)">
<g clip-path="url(#clip0_701_25140)">
<mask id="mask0_701_25140" style="mask-type:alpha" maskUnits="userSpaceOnUse" x="1" y="1" width="25" height="18">
<rect x="1.5" y="1" width="24" height="18" fill="white"/>
</mask>
<g mask="url(#mask0_701_25140)">
<path fill-rule="evenodd" clip-rule="evenodd" d="M1.5 1V19H25.5V1H1.5Z" fill="#1D1D1D"/>
<mask id="mask1_701_25140" style="mask-type:alpha" maskUnits="userSpaceOnUse" x="1" y="1" width="25" height="18">
<path fill-rule="evenodd" clip-rule="evenodd" d="M1.5 1V19H25.5V1H1.5Z" fill="white"/>
</mask>
<g mask="url(#mask1_701_25140)">
<path fill-rule="evenodd" clip-rule="evenodd" d="M1.5 1V10H25.5V1H1.5Z" fill="#F50100"/>
<path d="M8.94976 5.42254L9.26983 4.3689C11.67 5.10142 13.117 6.3856 13.524 8.21766C13.7941 9.43305 13.6713 10.5194 13.2346 11.4868C12.9235 12.1761 12.5283 12.6906 11.9601 13.2698C11.0126 14.2357 9.45404 14.8521 8.04695 14.5907C7.06617 14.4086 6.16268 14.0646 5.33981 13.5592L5.91391 12.6201C6.62088 13.0543 7.39751 13.35 8.24715 13.5078C9.26321 13.6965 10.4679 13.2201 11.1765 12.4976C11.6621 12.0027 11.9861 11.5808 12.2335 11.0328C12.5736 10.2793 12.6689 9.43583 12.4515 8.45707C12.1409 7.0593 11.0026 6.04905 8.94976 5.42254Z" fill="#FFEA42"/>
<g filter="url(#filter1_d_701_25140)">
<path fill-rule="evenodd" clip-rule="evenodd" d="M8.8846 8.09827L8.17248 8.59128L8.42371 7.76511L7.73236 7.24365L8.59975 7.22606L8.8846 6.41077L9.16945 7.22606L10.0368 7.24365L9.3455 7.76511L9.59673 8.59128L8.8846 8.09827Z" fill="#FCFF01"/>
<path fill-rule="evenodd" clip-rule="evenodd" d="M8.8846 8.09827L8.17248 8.59128L8.42371 7.76511L7.73236 7.24365L8.59975 7.22606L8.8846 6.41077L9.16945 7.22606L10.0368 7.24365L9.3455 7.76511L9.59673 8.59128L8.8846 8.09827Z" fill="#FFEA42"/>
</g>
<g filter="url(#filter2_d_701_25140)">
<path fill-rule="evenodd" clip-rule="evenodd" d="M7.21057 8.39478C7.21057 8.39478 5.94768 10.2462 6.94212 10.923C7.93656 11.5999 13.195 14.4531 13.195 14.4531C13.195 14.4531 14.2815 14.4468 14.4361 14.678C14.5907 14.9091 14.9123 15.1809 15.0478 15.1809C15.1834 15.1809 15.5335 14.9361 15.5335 14.9361C15.5335 14.9361 15.8065 14.7128 15.5335 14.4531C15.2606 14.1934 13.8179 13.3042 13.8179 13.3042C13.8179 13.3042 8.18696 9.71061 7.70813 9.35483C7.22931 8.99906 7.21057 8.39478 7.21057 8.39478Z" fill="#FCFF01"/>
<path fill-rule="evenodd" clip-rule="evenodd" d="M7.21057 8.39478C7.21057 8.39478 5.94768 10.2462 6.94212 10.923C7.93656 11.5999 13.195 14.4531 13.195 14.4531C13.195 14.4531 14.2815 14.4468 14.4361 14.678C14.5907 14.9091 14.9123 15.1809 15.0478 15.1809C15.1834 15.1809 15.5335 14.9361 15.5335 14.9361C15.5335 14.9361 15.8065 14.7128 15.5335 14.4531C15.2606 14.1934 13.8179 13.3042 13.8179 13.3042C13.8179 13.3042 8.18696 9.71061 7.70813 9.35483C7.22931 8.99906 7.21057 8.39478 7.21057 8.39478Z" fill="#FFEA42"/>
</g>
<path fill-rule="evenodd" clip-rule="evenodd" d="M10.2838 4.05566L9.99145 4.7178L10.9501 5.13284L11.222 4.47054L10.2838 4.05566ZM12.2434 5.1131L11.7156 5.60837L12.4359 6.36501L12.9449 5.86157L12.2434 5.1131ZM12.9645 7.10239L13.6394 6.84091L14.0095 7.79767L13.3489 8.07376L12.9645 7.10239ZM14.2792 8.97712L13.5558 8.95409L13.5301 9.99845L14.246 10.0024L14.2792 8.97712ZM13.3853 10.8956L14.0475 11.1879L13.6326 12.1261L12.9703 11.8543L13.3853 10.8956ZM12.9927 13.1515L12.4974 12.6237L11.7408 13.344L12.2442 13.853L12.9927 13.1515ZM11.0074 13.8754L11.2689 14.5503L10.3121 14.9203L10.036 14.2598L11.0074 13.8754ZM9.13737 15.191L9.16039 14.4676L8.11603 14.4419L8.11208 15.1578L9.13737 15.191ZM7.22364 14.2962L6.93129 14.9584L5.9931 14.5435L6.26495 13.8812L7.22364 14.2962Z" fill="#FFEA42"/>
</g>
</g>
</g>
<rect x="1.75" y="1.25" width="23.5" height="17.5" stroke="black" stroke-opacity="0.1" stroke-width="0.5" shape-rendering="crispEdges"/>
</g>
<defs>
<filter id="filter0_dd_701_25140" x="0" y="0" width="27" height="21" filterUnits="userSpaceOnUse" color-interpolation-filters="sRGB">
<feFlood flood-opacity="0" result="BackgroundImageFix"/>
<feColorMatrix in="SourceAlpha" type="matrix" values="0 0 0 0 0 0 0 0 0 0 0 0 0 0 0 0 0 0 127 0" result="hardAlpha"/>
<feOffset dy="0.5"/>
<feGaussianBlur stdDeviation="0.75"/>
<feComposite in2="hardAlpha" operator="out"/>
<feColorMatrix type="matrix" values="0 0 0 0 0 0 0 0 0 0 0 0 0 0 0 0 0 0 0.1 0"/>
<feBlend mode="multiply" in2="BackgroundImageFix" result="effect1_dropShadow_701_25140"/>
<feColorMatrix in="SourceAlpha" type="matrix" values="0 0 0 0 0 0 0 0 0 0 0 0 0 0 0 0 0 0 127 0" result="hardAlpha"/>
<feOffset/>
<feGaussianBlur stdDeviation="0.5"/>
<feComposite in2="hardAlpha" operator="out"/>
<feColorMatrix type="matrix" values="0 0 0 0 0 0 0 0 0 0 0 0 0 0 0 0 0 0 0.11 0"/>
<feBlend mode="multiply" in2="effect1_dropShadow_701_25140" result="effect2_dropShadow_701_25140"/>
<feBlend mode="normal" in="SourceGraphic" in2="effect2_dropShadow_701_25140" result="shape"/>
</filter>
<filter id="filter1_d_701_25140" x="7.73236" y="6.41077" width="2.30447" height="2.18054" filterUnits="userSpaceOnUse" color-interpolation-filters="sRGB">
<feFlood flood-opacity="0" result="BackgroundImageFix"/>
<feColorMatrix in="SourceAlpha" type="matrix" values="0 0 0 0 0 0 0 0 0 0 0 0 0 0 0 0 0 0 127 0" result="hardAlpha"/>
<feOffset/>
<feColorMatrix type="matrix" values="0 0 0 0 0 0 0 0 0 0 0 0 0 0 0 0 0 0 0.2 0"/>
<feBlend mode="normal" in2="BackgroundImageFix" result="effect1_dropShadow_701_25140"/>
<feBlend mode="normal" in="SourceGraphic" in2="effect1_dropShadow_701_25140" result="shape"/>
</filter>
<filter id="filter2_d_701_25140" x="6.56042" y="8.39478" width="9.09442" height="6.78613" filterUnits="userSpaceOnUse" color-interpolation-filters="sRGB">
<feFlood flood-opacity="0" result="BackgroundImageFix"/>
<feColorMatrix in="SourceAlpha" type="matrix" values="0 0 0 0 0 0 0 0 0 0 0 0 0 0 0 0 0 0 127 0" result="hardAlpha"/>
<feOffset/>
<feColorMatrix type="matrix" values="0 0 0 0 0 0 0 0 0 0 0 0 0 0 0 0 0 0 0.2 0"/>
<feBlend mode="normal" in2="BackgroundImageFix" result="effect1_dropShadow_701_25140"/>
<feBlend mode="normal" in="SourceGraphic" in2="effect1_dropShadow_701_25140" result="shape"/>
</filter>
<clipPath id="clip0_701_25140">
<rect x="1.5" y="1" width="24" height="18" fill="white"/>
</clipPath>
</defs>
</svg>
