<svg width="27" height="21" viewBox="0 0 27 21" fill="none" xmlns="http://www.w3.org/2000/svg">
<g filter="url(#filter0_dd_701_21340)">
<g clip-path="url(#clip0_701_21340)">
<mask id="mask0_701_21340" style="mask-type:alpha" maskUnits="userSpaceOnUse" x="1" y="1" width="25" height="18">
<rect x="1.5" y="1" width="24" height="18" fill="white"/>
</mask>
<g mask="url(#mask0_701_21340)">
<path fill-rule="evenodd" clip-rule="evenodd" d="M1.5 1V19H25.5V1H1.5Z" fill="#2E42A5"/>
<mask id="mask1_701_21340" style="mask-type:alpha" maskUnits="userSpaceOnUse" x="1" y="1" width="25" height="18">
<path fill-rule="evenodd" clip-rule="evenodd" d="M1.5 1V19H25.5V1H1.5Z" fill="white"/>
</mask>
<g mask="url(#mask1_701_21340)">
<rect x="-2.5" y="-2" width="18" height="14" fill="#2B409A"/>
<mask id="mask2_701_21340" style="mask-type:alpha" maskUnits="userSpaceOnUse" x="-3" y="-2" width="19" height="14">
<rect x="-2.5" y="-2" width="18" height="14" fill="white"/>
</mask>
<g mask="url(#mask2_701_21340)">
<path d="M-4.50424 10.9999L-0.543292 12.7371L15.5899 -0.111217L17.6792 -2.69275L13.4435 -3.27337L6.8632 2.26332L1.5667 5.99375L-4.50424 10.9999Z" fill="#F7FCFF"/>
<path d="M-3.96198 12.217L-1.94405 13.2251L16.929 -2.93262H14.0956L-3.96198 12.217Z" fill="#F50100"/>
<path d="M17.5043 10.9999L13.5433 12.7371L-2.58987 -0.111217L-4.67919 -2.69275L-0.443518 -3.27337L6.13683 2.26332L11.4333 5.99375L17.5043 10.9999Z" fill="#F7FCFF"/>
<path d="M17.3691 11.8732L15.3512 12.8813L7.31486 5.96339L4.93226 5.19046L-4.88023 -2.68407H-2.04684L7.76015 5.00356L10.3651 5.93038L17.3691 11.8732Z" fill="#F50100"/>
<mask id="path-12-outside-1_701_21340" maskUnits="userSpaceOnUse" x="-4.5" y="-4" width="22" height="18" fill="black">
<rect fill="white" x="-4.5" y="-4" width="22" height="18"/>
<path fill-rule="evenodd" clip-rule="evenodd" d="M7.48451 -2H5.48451V4H-2.5V6H5.48451V12H7.48451V6H15.5V4H7.48451V-2Z"/>
</mask>
<path fill-rule="evenodd" clip-rule="evenodd" d="M7.48451 -2H5.48451V4H-2.5V6H5.48451V12H7.48451V6H15.5V4H7.48451V-2Z" fill="#F50100"/>
<path d="M5.48451 -2V-3.5H3.98451V-2H5.48451ZM7.48451 -2H8.98451V-3.5H7.48451V-2ZM5.48451 4V5.5H6.98451V4H5.48451ZM-2.5 4V2.5H-4V4H-2.5ZM-2.5 6H-4V7.5H-2.5V6ZM5.48451 6H6.98451V4.5H5.48451V6ZM5.48451 12H3.98451V13.5H5.48451V12ZM7.48451 12V13.5H8.98451V12H7.48451ZM7.48451 6V4.5H5.98451V6H7.48451ZM15.5 6V7.5H17V6H15.5ZM15.5 4H17V2.5H15.5V4ZM7.48451 4H5.98451V5.5H7.48451V4ZM5.48451 -0.5H7.48451V-3.5H5.48451V-0.5ZM6.98451 4V-2H3.98451V4H6.98451ZM-2.5 5.5H5.48451V2.5H-2.5V5.5ZM-1 6V4H-4V6H-1ZM5.48451 4.5H-2.5V7.5H5.48451V4.5ZM6.98451 12V6H3.98451V12H6.98451ZM7.48451 10.5H5.48451V13.5H7.48451V10.5ZM5.98451 6V12H8.98451V6H5.98451ZM15.5 4.5H7.48451V7.5H15.5V4.5ZM14 4V6H17V4H14ZM7.48451 5.5H15.5V2.5H7.48451V5.5ZM5.98451 -2V4H8.98451V-2H5.98451Z" fill="#F7FCFF" mask="url(#path-12-outside-1_701_21340)"/>
</g>
<path fill-rule="evenodd" clip-rule="evenodd" d="M19.575 6.60307L19.3802 7.73858L20.4 7.20247L21.4198 7.73858L21.225 6.60307L22.05 5.79889L20.9099 5.63322L20.4 4.6001L19.8901 5.63322L18.75 5.79889L19.575 6.60307ZM16.575 10.8031L16.3802 11.9386L17.4 11.4025L18.4198 11.9386L18.225 10.8031L19.05 9.9989L17.9099 9.83323L17.4 8.8001L16.8901 9.83323L15.75 9.9989L16.575 10.8031ZM18.8174 17.0704L20.1399 16.3751L21.4624 17.0704L21.2098 15.5978L22.2798 14.5548L20.8011 14.34L20.1399 13.0001L19.4786 14.34L18 14.5548L19.0699 15.5978L18.8174 17.0704ZM22.6482 11.3996L21.6295 11.9351L21.8241 10.8008L21 9.99757L22.1389 9.83208L22.6482 8.8001L23.1575 9.83208L24.2963 9.99757L23.4723 10.8008L23.6668 11.9351L22.6482 11.3996Z" fill="#F50100"/>
<path d="M19.3802 7.73858L19.1831 7.70478L19.1146 8.10419L19.4733 7.91561L19.3802 7.73858ZM19.575 6.60307L19.7721 6.63688L19.7899 6.53325L19.7146 6.45985L19.575 6.60307ZM20.4 7.20247L20.4931 7.02544L20.4 6.97651L20.3069 7.02544L20.4 7.20247ZM21.4198 7.73858L21.3267 7.91561L21.6854 8.10419L21.6169 7.70478L21.4198 7.73858ZM21.225 6.60307L21.0854 6.45985L21.0101 6.53325L21.0279 6.63688L21.225 6.60307ZM22.05 5.79889L22.1896 5.94211L22.4798 5.65924L22.0788 5.60097L22.05 5.79889ZM20.9099 5.63322L20.7305 5.72174L20.7771 5.81603L20.8811 5.83114L20.9099 5.63322ZM20.4 4.6001L20.5793 4.51158L20.4 4.14819L20.2207 4.51158L20.4 4.6001ZM19.8901 5.63322L19.9189 5.83114L20.0229 5.81603L20.0695 5.72174L19.8901 5.63322ZM18.75 5.79889L18.7212 5.60097L18.3202 5.65924L18.6104 5.94211L18.75 5.79889ZM16.3802 11.9386L16.1831 11.9048L16.1146 12.3042L16.4733 12.1156L16.3802 11.9386ZM16.575 10.8031L16.7721 10.8369L16.7899 10.7333L16.7146 10.6599L16.575 10.8031ZM17.4 11.4025L17.4931 11.2254L17.4 11.1765L17.3069 11.2254L17.4 11.4025ZM18.4198 11.9386L18.3267 12.1156L18.6854 12.3042L18.6169 11.9048L18.4198 11.9386ZM18.225 10.8031L18.0854 10.6599L18.0101 10.7332L18.0279 10.8369L18.225 10.8031ZM19.05 9.9989L19.1896 10.1421L19.4798 9.85925L19.0788 9.80098L19.05 9.9989ZM17.9099 9.83323L17.7305 9.92174L17.7771 10.016L17.8811 10.0311L17.9099 9.83323ZM17.4 8.8001L17.5793 8.71159L17.4 8.34819L17.2207 8.71159L17.4 8.8001ZM16.8901 9.83323L16.9189 10.0311L17.0229 10.016L17.0695 9.92174L16.8901 9.83323ZM15.75 9.9989L15.7212 9.80098L15.3202 9.85925L15.6104 10.1421L15.75 9.9989ZM20.1399 16.3751L20.2329 16.1981L20.1399 16.1492L20.0468 16.1981L20.1399 16.3751ZM18.8174 17.0704L18.6202 17.0366L18.5517 17.436L18.9104 17.2474L18.8174 17.0704ZM21.4624 17.0704L21.3693 17.2474L21.728 17.436L21.6595 17.0366L21.4624 17.0704ZM21.2098 15.5978L21.0702 15.4545L20.9949 15.5279L21.0127 15.6316L21.2098 15.5978ZM22.2798 14.5548L22.4194 14.698L22.7095 14.4152L22.3085 14.3569L22.2798 14.5548ZM20.8011 14.34L20.6218 14.4285L20.6683 14.5228L20.7724 14.5379L20.8011 14.34ZM20.1399 13.0001L20.3192 12.9116L20.1399 12.5482L19.9605 12.9116L20.1399 13.0001ZM19.4786 14.34L19.5074 14.5379L19.6114 14.5228L19.658 14.4285L19.4786 14.34ZM18 14.5548L17.9712 14.3569L17.5702 14.4152L17.8604 14.698L18 14.5548ZM19.0699 15.5978L19.2671 15.6316L19.2848 15.5279L19.2095 15.4545L19.0699 15.5978ZM21.6295 11.9351L21.4324 11.9013L21.3639 12.3007L21.7226 12.1121L21.6295 11.9351ZM22.6482 11.3996L22.7412 11.2226L22.6482 11.1736L22.5551 11.2226L22.6482 11.3996ZM21.8241 10.8008L22.0212 10.8347L22.039 10.731L21.9637 10.6576L21.8241 10.8008ZM21 9.99757L20.9712 9.79964L20.5702 9.85792L20.8604 10.1408L21 9.99757ZM22.1389 9.83208L22.1676 10.03L22.2717 10.0149L22.3182 9.92059L22.1389 9.83208ZM22.6482 8.8001L22.8275 8.71159L22.6482 8.34819L22.4688 8.71159L22.6482 8.8001ZM23.1575 9.83208L22.9781 9.92059L23.0247 10.0149L23.1287 10.03L23.1575 9.83208ZM24.2963 9.99757L24.4359 10.1408L24.7261 9.85792L24.3251 9.79964L24.2963 9.99757ZM23.4723 10.8008L23.3326 10.6576L23.2574 10.731L23.2751 10.8347L23.4723 10.8008ZM23.6668 11.9351L23.5737 12.1121L23.9324 12.3007L23.8639 11.9013L23.6668 11.9351ZM19.5774 7.77239L19.7721 6.63688L19.3779 6.56926L19.1831 7.70478L19.5774 7.77239ZM20.3069 7.02544L19.2872 7.56156L19.4733 7.91561L20.4931 7.37949L20.3069 7.02544ZM21.5128 7.56156L20.4931 7.02544L20.3069 7.37949L21.3267 7.91561L21.5128 7.56156ZM21.0279 6.63688L21.2226 7.77239L21.6169 7.70478L21.4221 6.56926L21.0279 6.63688ZM21.9104 5.65568L21.0854 6.45985L21.3646 6.74629L22.1896 5.94211L21.9104 5.65568ZM20.8811 5.83114L22.0212 5.99681L22.0788 5.60097L20.9386 5.4353L20.8811 5.83114ZM20.2207 4.68861L20.7305 5.72174L21.0892 5.54471L20.5793 4.51158L20.2207 4.68861ZM20.0695 5.72174L20.5793 4.68861L20.2207 4.51158L19.7108 5.54471L20.0695 5.72174ZM18.7788 5.99681L19.9189 5.83114L19.8614 5.4353L18.7212 5.60097L18.7788 5.99681ZM19.7146 6.45985L18.8896 5.65568L18.6104 5.94211L19.4354 6.74629L19.7146 6.45985ZM16.5774 11.9724L16.7721 10.8369L16.3779 10.7693L16.1831 11.9048L16.5774 11.9724ZM17.3069 11.2254L16.2872 11.7616L16.4733 12.1156L17.4931 11.5795L17.3069 11.2254ZM18.5128 11.7616L17.4931 11.2254L17.3069 11.5795L18.3267 12.1156L18.5128 11.7616ZM18.0279 10.8369L18.2226 11.9724L18.6169 11.9048L18.4221 10.7693L18.0279 10.8369ZM18.9104 9.85568L18.0854 10.6599L18.3646 10.9463L19.1896 10.1421L18.9104 9.85568ZM17.8811 10.0311L19.0212 10.1968L19.0788 9.80098L17.9386 9.63531L17.8811 10.0311ZM17.2207 8.88862L17.7305 9.92174L18.0892 9.74471L17.5793 8.71159L17.2207 8.88862ZM17.0695 9.92174L17.5793 8.88862L17.2207 8.71159L16.7108 9.74472L17.0695 9.92174ZM15.7788 10.1968L16.9189 10.0311L16.8614 9.63531L15.7212 9.80098L15.7788 10.1968ZM16.7146 10.6599L15.8896 9.85568L15.6104 10.1421L16.4354 10.9463L16.7146 10.6599ZM20.0468 16.1981L18.7243 16.8934L18.9104 17.2474L20.2329 16.5521L20.0468 16.1981ZM21.5555 16.8934L20.2329 16.1981L20.0468 16.5521L21.3693 17.2474L21.5555 16.8934ZM21.0127 15.6316L21.2653 17.1042L21.6595 17.0366L21.4069 15.5639L21.0127 15.6316ZM22.1402 14.4116L21.0702 15.4545L21.3494 15.741L22.4194 14.698L22.1402 14.4116ZM20.7724 14.5379L22.251 14.7527L22.3085 14.3569L20.8299 14.142L20.7724 14.5379ZM19.9605 13.0886L20.6218 14.4285L20.9805 14.2514L20.3192 12.9116L19.9605 13.0886ZM19.658 14.4285L20.3192 13.0886L19.9605 12.9116L19.2993 14.2514L19.658 14.4285ZM18.0288 14.7527L19.5074 14.5379L19.4499 14.142L17.9712 14.3569L18.0288 14.7527ZM19.2095 15.4545L18.1396 14.4116L17.8604 14.698L18.9303 15.741L19.2095 15.4545ZM19.0145 17.1042L19.2671 15.6316L18.8728 15.5639L18.6202 17.0366L19.0145 17.1042ZM21.7226 12.1121L22.7412 11.5766L22.5551 11.2226L21.5365 11.7581L21.7226 12.1121ZM21.627 10.767L21.4324 11.9013L21.8267 11.9689L22.0212 10.8347L21.627 10.767ZM20.8604 10.1408L21.6845 10.9441L21.9637 10.6576L21.1396 9.85435L20.8604 10.1408ZM22.1101 9.63416L20.9712 9.79964L21.0288 10.1955L22.1676 10.03L22.1101 9.63416ZM22.4688 8.71159L21.9595 9.74357L22.3182 9.92059L22.8275 8.88862L22.4688 8.71159ZM23.3368 9.74357L22.8275 8.71159L22.4688 8.88862L22.9781 9.92059L23.3368 9.74357ZM24.3251 9.79964L23.1862 9.63416L23.1287 10.03L24.2676 10.1955L24.3251 9.79964ZM23.6119 10.9441L24.4359 10.1408L24.1567 9.85435L23.3326 10.6576L23.6119 10.9441ZM23.8639 11.9013L23.6694 10.767L23.2751 10.8347L23.4697 11.9689L23.8639 11.9013ZM22.5551 11.5766L23.5737 12.1121L23.7599 11.7581L22.7412 11.2226L22.5551 11.5766Z" fill="#F7FCFF"/>
</g>
</g>
</g>
<rect x="1.75" y="1.25" width="23.5" height="17.5" stroke="black" stroke-opacity="0.1" stroke-width="0.5" shape-rendering="crispEdges"/>
</g>
<defs>
<filter id="filter0_dd_701_21340" x="0" y="0" width="27" height="21" filterUnits="userSpaceOnUse" color-interpolation-filters="sRGB">
<feFlood flood-opacity="0" result="BackgroundImageFix"/>
<feColorMatrix in="SourceAlpha" type="matrix" values="0 0 0 0 0 0 0 0 0 0 0 0 0 0 0 0 0 0 127 0" result="hardAlpha"/>
<feOffset dy="0.5"/>
<feGaussianBlur stdDeviation="0.75"/>
<feComposite in2="hardAlpha" operator="out"/>
<feColorMatrix type="matrix" values="0 0 0 0 0 0 0 0 0 0 0 0 0 0 0 0 0 0 0.1 0"/>
<feBlend mode="multiply" in2="BackgroundImageFix" result="effect1_dropShadow_701_21340"/>
<feColorMatrix in="SourceAlpha" type="matrix" values="0 0 0 0 0 0 0 0 0 0 0 0 0 0 0 0 0 0 127 0" result="hardAlpha"/>
<feOffset/>
<feGaussianBlur stdDeviation="0.5"/>
<feComposite in2="hardAlpha" operator="out"/>
<feColorMatrix type="matrix" values="0 0 0 0 0 0 0 0 0 0 0 0 0 0 0 0 0 0 0.11 0"/>
<feBlend mode="multiply" in2="effect1_dropShadow_701_21340" result="effect2_dropShadow_701_21340"/>
<feBlend mode="normal" in="SourceGraphic" in2="effect2_dropShadow_701_21340" result="shape"/>
</filter>
<clipPath id="clip0_701_21340">
<rect x="1.5" y="1" width="24" height="18" fill="white"/>
</clipPath>
</defs>
</svg>
