<svg viewBox="0 0 27 21" fill="none" xmlns="http://www.w3.org/2000/svg">
<g filter="url(#filter0_dd_701_22958)">
<g clip-path="url(#clip0_701_22958)">
<mask id="mask0_701_22958" style="mask-type:alpha" maskUnits="userSpaceOnUse" x="1" y="1" width="25" height="18">
<rect x="1.5" y="1" width="24" height="18" fill="white"/>
</mask>
<g mask="url(#mask0_701_22958)">
<path fill-rule="evenodd" clip-rule="evenodd" d="M1.5 1V19H25.5V1H1.5Z" fill="#F7FCFF"/>
<mask id="mask1_701_22958" style="mask-type:alpha" maskUnits="userSpaceOnUse" x="1" y="1" width="25" height="18">
<path fill-rule="evenodd" clip-rule="evenodd" d="M1.5 1V19H25.5V1H1.5Z" fill="white"/>
</mask>
<g mask="url(#mask1_701_22958)">
<path fill-rule="evenodd" clip-rule="evenodd" d="M1.5 1V7H25.5V1H1.5Z" fill="#E31D1C"/>
<path fill-rule="evenodd" clip-rule="evenodd" d="M1.5 13V19H25.5V13H1.5Z" fill="#3D58DB"/>
<rect x="9.05742" y="5.7981" width="8.55" height="3" fill="#E31D1C"/>
<path d="M9.63095 7.8606H16.9478C16.9583 8.4472 16.9617 9.37277 16.9616 10.2712C16.9615 10.8964 16.9599 11.4984 16.9583 11.9441C16.9574 12.167 16.9566 12.3507 16.956 12.4787L16.9553 12.6268L16.9552 12.6368C16.9521 12.6551 16.9472 12.6816 16.9402 12.7151C16.9237 12.7938 16.8958 12.9104 16.8511 13.0523C16.7612 13.3378 16.6068 13.7155 16.3504 14.0898C15.853 14.8161 14.9487 15.5709 13.2374 15.5709C11.5292 15.5709 10.6723 14.8181 10.2169 14.1022C9.98063 13.7307 9.84509 13.3551 9.7691 13.0701C9.73136 12.9286 9.70904 12.8122 9.69639 12.7338C9.69008 12.6946 9.68622 12.6652 9.68407 12.6471L9.68353 12.6422L9.68321 12.616L9.68142 12.4688L9.67506 11.9374C9.66979 11.4943 9.66276 10.8953 9.65573 10.2721C9.6458 9.39119 9.63591 8.46509 9.63095 7.8606ZM16.9599 12.6078L16.9597 12.609L16.9598 12.6085L16.9599 12.6078Z" fill="#F7FCFF" stroke="#E31D1C" stroke-width="1.125"/>
<mask id="mask2_701_22958" style="mask-type:alpha" maskUnits="userSpaceOnUse" x="9" y="7" width="9" height="10">
<path d="M9.63095 7.8606H16.9478C16.9583 8.4472 16.9617 9.37277 16.9616 10.2712C16.9615 10.8964 16.9599 11.4984 16.9583 11.9441C16.9574 12.167 16.9566 12.3507 16.956 12.4787L16.9553 12.6268L16.9552 12.6368C16.9521 12.6551 16.9472 12.6816 16.9402 12.7151C16.9237 12.7938 16.8958 12.9104 16.8511 13.0523C16.7612 13.3378 16.6068 13.7155 16.3504 14.0898C15.853 14.8161 14.9487 15.5709 13.2374 15.5709C11.5292 15.5709 10.6723 14.8181 10.2169 14.1022C9.98063 13.7307 9.84509 13.3551 9.7691 13.0701C9.73136 12.9286 9.70904 12.8122 9.69639 12.7338C9.69008 12.6946 9.68622 12.6652 9.68407 12.6471L9.68353 12.6422L9.68321 12.616L9.68142 12.4688L9.67506 11.9374C9.66979 11.4943 9.66276 10.8953 9.65573 10.2721C9.6458 9.39119 9.63591 8.46509 9.63095 7.8606ZM16.9599 12.6078L16.9597 12.609L16.9598 12.6085L16.9599 12.6078Z" fill="white" stroke="white" stroke-width="1.125"/>
</mask>
<g mask="url(#mask2_701_22958)">
<path fill-rule="evenodd" clip-rule="evenodd" d="M9.37383 7.78003H10.9559V9.38646H9.37383V7.78003ZM12.5379 9.38646H10.9559V10.9929H9.37383V12.5993H10.9559V14.2057H9.37383V15.8122H10.9559V14.2057H12.5379L12.5379 15.8122H14.1199V14.2057H15.702V15.8122H17.284V14.2057H15.702V12.5993H17.284V10.9929H15.702V9.38646H17.284V7.78003H15.702V9.38646H14.1199V7.78003H12.5379L12.5379 9.38646ZM12.5379 10.9929V9.38646H14.1199V10.9929H12.5379ZM12.5379 12.5993V10.9929H10.9559V12.5993H12.5379ZM14.1199 12.5993V14.2057H12.5379V12.5993H14.1199ZM14.1199 12.5993V10.9929H15.702V12.5993H14.1199Z" fill="#F50100"/>
</g>
<path fill-rule="evenodd" clip-rule="evenodd" d="M9.33979 7.12203C9.33979 7.12203 9.82911 6.86066 10.2465 6.72596C10.6638 6.59126 10.9937 6.51767 10.9937 6.51767L10.3728 4.2286L9.12902 3.76392L8.42461 4.92499L9.33979 7.12203Z" fill="#56C6F5" stroke="white" stroke-width="0.5"/>
<path d="M9.13579 5.86814L9.27871 5.79925C9.42629 6.11494 9.62083 6.21245 9.88749 6.11294C10.1599 6.01129 10.2709 5.81906 10.2317 5.51433L10.3886 5.49353C10.4372 5.8718 10.2847 6.13585 9.94206 6.26372C9.5937 6.39372 9.31656 6.25481 9.13579 5.86814Z" fill="white"/>
<path fill-rule="evenodd" clip-rule="evenodd" d="M9.47425 5.15642L9.36391 5.22326C9.3236 5.24768 9.27348 5.21258 9.28264 5.16635L9.30771 5.0398L9.19465 4.97766C9.15335 4.95496 9.15868 4.89401 9.2033 4.87882L9.32543 4.83726L9.32271 4.70828C9.32172 4.66116 9.37717 4.6353 9.41263 4.66635L9.50969 4.75134L9.62003 4.68449C9.66034 4.66008 9.71047 4.69517 9.70131 4.7414L9.67624 4.86795L9.78929 4.93009C9.8306 4.95279 9.82526 5.01375 9.78065 5.02893L9.65852 5.07049L9.66123 5.19947C9.66222 5.24659 9.60677 5.27245 9.57131 5.2414L9.47425 5.15642Z" fill="#FECA00"/>
<path fill-rule="evenodd" clip-rule="evenodd" d="M12.4056 6.30691C12.4056 6.30691 12.8229 6.26966 13.2614 6.27818C13.6998 6.2867 14.0708 6.28982 14.0708 6.28982L14.2849 4.03271L13.3457 3.18417L12.3016 4.05265L12.4056 6.30691Z" fill="#56C6F5" stroke="white" stroke-width="0.5"/>
<path fill-rule="evenodd" clip-rule="evenodd" d="M13.3127 5.93871C13.6744 5.93871 13.7091 5.54799 13.7091 5.28183C13.6166 5.13421 13.6352 5.02856 13.3387 5.02856C13.0422 5.02856 13.0084 5.11816 12.9218 5.28183C12.9218 5.54799 12.9509 5.93871 13.3127 5.93871Z" fill="#FECA00"/>
<path fill-rule="evenodd" clip-rule="evenodd" d="M13.7197 4.83471C14.0815 4.83471 14.1162 4.44399 14.1162 4.17783C14.0237 4.0302 14.0423 3.92456 13.7458 3.92456C13.4493 3.92456 13.4154 4.01416 13.3289 4.17783C13.3289 4.44399 13.358 4.83471 13.7197 4.83471Z" fill="#FECA00"/>
<path fill-rule="evenodd" clip-rule="evenodd" d="M12.9287 4.83471C13.2905 4.83471 13.3251 4.44399 13.3251 4.17783C13.2326 4.0302 13.2513 3.92456 12.9548 3.92456C12.6583 3.92456 12.6244 4.01416 12.5379 4.17783C12.5379 4.44399 12.567 4.83471 12.9287 4.83471Z" fill="#FECA00"/>
<path d="M10.7195 6.53785L10.7915 6.78254L11.0347 6.70561L11.0347 6.70561L11.0347 6.70561L11.0347 6.70561L11.0349 6.70555L11.0357 6.70528L11.0394 6.70411L11.0545 6.69944L11.1114 6.68213C11.1599 6.66754 11.2277 6.64768 11.3042 6.62663C11.4607 6.58355 11.6411 6.53902 11.7694 6.52118C11.9061 6.5022 12.0775 6.48819 12.2181 6.47888C12.2877 6.47428 12.3484 6.47091 12.3916 6.4687L12.4421 6.46624L12.4555 6.46565L12.4588 6.46551L12.4596 6.46547L12.4597 6.46547L12.4597 6.46547L12.4597 6.46546L12.721 6.45473L12.6985 6.19419L12.5093 4.00088L12.4994 3.88556L12.405 3.81854L11.383 3.09268L11.2076 2.96814L11.0583 3.12294L10.1294 4.08588L10.0285 4.19054L10.0695 4.33004L10.7195 6.53785Z" fill="#2E42A5" stroke="white" stroke-width="0.5"/>
<mask id="mask3_701_22958" style="mask-type:alpha" maskUnits="userSpaceOnUse" x="9" y="2" width="4" height="6">
<path d="M10.7195 6.53785L10.7915 6.78254L11.0347 6.70561L11.0347 6.70561L11.0347 6.70561L11.0347 6.70561L11.0349 6.70555L11.0357 6.70528L11.0394 6.70411L11.0545 6.69944L11.1114 6.68213C11.1599 6.66754 11.2277 6.64768 11.3042 6.62663C11.4607 6.58355 11.6411 6.53902 11.7694 6.52118C11.9061 6.5022 12.0775 6.48819 12.2181 6.47888C12.2877 6.47428 12.3484 6.47091 12.3916 6.4687L12.4421 6.46624L12.4555 6.46565L12.4588 6.46551L12.4596 6.46547L12.4597 6.46547L12.4597 6.46547L12.4597 6.46546L12.721 6.45473L12.6985 6.19419L12.5093 4.00088L12.4994 3.88556L12.405 3.81854L11.383 3.09268L11.2076 2.96814L11.0583 3.12294L10.1294 4.08588L10.0285 4.19054L10.0695 4.33004L10.7195 6.53785Z" fill="white" stroke="white" stroke-width="0.5"/>
</mask>
<g mask="url(#mask3_701_22958)">
<path d="M10.8273 5.97843L10.6394 5.53587C11.0429 5.35925 11.7246 5.25087 12.4418 5.2085L12.4694 5.68961C11.8026 5.729 11.1719 5.82761 10.8273 5.97843Z" fill="#C51918"/>
<path d="M10.5103 4.90794L10.3224 4.46537C10.7259 4.28875 11.5932 4.14577 12.3105 4.10339L12.338 4.58451C11.6712 4.6239 10.8548 4.75712 10.5103 4.90794Z" fill="#C51918"/>
</g>
<path d="M15.8378 6.53239L15.7698 6.78431L15.521 6.70561L15.521 6.70561L15.521 6.70561L15.521 6.70561L15.5208 6.70555L15.52 6.70528L15.5162 6.70411L15.5012 6.69944L15.4443 6.68213C15.3957 6.66754 15.328 6.64768 15.2515 6.62663C15.095 6.58355 14.9146 6.53902 14.7863 6.52118C14.6496 6.5022 14.4782 6.48819 14.3376 6.47888C14.268 6.47428 14.2073 6.47091 14.1641 6.4687L14.1135 6.46624L14.1002 6.46565L14.0969 6.46551L14.0961 6.46547L14.096 6.46547L14.096 6.46547L14.0959 6.46546L13.8347 6.45473L13.8571 6.19419L14.0463 4.00088L14.0563 3.88556L14.1507 3.81854L15.1727 3.09268L15.353 2.96464L15.5021 3.12795L16.3779 4.08725L16.4703 4.18854L16.4346 4.32095L15.8378 6.53239Z" fill="#2E42A5" stroke="white" stroke-width="0.5"/>
<mask id="mask4_701_22958" style="mask-type:alpha" maskUnits="userSpaceOnUse" x="13" y="2" width="4" height="6">
<path d="M15.8378 6.53239L15.7698 6.78431L15.521 6.70561L15.521 6.70561L15.521 6.70561L15.521 6.70561L15.5208 6.70555L15.52 6.70528L15.5162 6.70411L15.5012 6.69944L15.4443 6.68213C15.3957 6.66754 15.328 6.64768 15.2515 6.62663C15.095 6.58355 14.9146 6.53902 14.7863 6.52118C14.6496 6.5022 14.4782 6.48819 14.3376 6.47888C14.268 6.47428 14.2073 6.47091 14.1641 6.4687L14.1135 6.46624L14.1002 6.46565L14.0969 6.46551L14.0961 6.46547L14.096 6.46547L14.096 6.46547L14.0959 6.46546L13.8347 6.45473L13.8571 6.19419L14.0463 4.00088L14.0563 3.88556L14.1507 3.81854L15.1727 3.09268L15.353 2.96464L15.5021 3.12795L16.3779 4.08725L16.4703 4.18854L16.4346 4.32095L15.8378 6.53239Z" fill="white" stroke="white" stroke-width="0.5"/>
</mask>
<g mask="url(#mask4_701_22958)">
<path fill-rule="evenodd" clip-rule="evenodd" d="M15.2984 5.84995C15.2984 5.84995 15.5188 5.72723 15.5506 5.52032C15.5824 5.31341 15.9234 5.05856 15.7529 5.08889C15.5824 5.11922 15.6799 5.14291 15.433 5.08889C15.1861 5.03487 14.8665 4.99914 14.8665 4.84735C14.8665 4.69555 15.0253 4.57508 14.8955 4.57508C14.7656 4.57508 14.4886 4.43142 14.5442 4.54122C14.5999 4.65103 14.4162 4.52687 14.508 4.75484C14.5999 4.98281 14.4886 5.21248 14.5442 5.27291C14.5999 5.33335 14.508 5.62974 14.508 5.62974C14.508 5.62974 14.5418 5.73982 14.6008 5.57494C14.6598 5.41005 14.7888 5.29448 14.7243 5.43471C14.6598 5.57494 14.5774 5.90848 14.6509 5.84995C14.7243 5.79142 14.7973 5.62956 14.7973 5.57494C14.7973 5.52032 14.9827 5.30592 14.9827 5.46783C14.9827 5.62974 14.8083 5.75724 14.8955 5.75724C14.9827 5.75724 15.0315 5.79165 15.0863 5.62974C15.1411 5.46783 15.2743 5.36072 15.3289 5.46783C15.3835 5.57494 15.3714 5.56921 15.2984 5.70958C15.2253 5.84995 15.2984 5.84995 15.2984 5.84995Z" fill="#FECA00"/>
<path fill-rule="evenodd" clip-rule="evenodd" d="M14.7804 4.64992L14.6983 4.51259C14.8456 4.42183 14.9809 4.39765 15.0996 4.44825C15.1536 4.47126 15.1943 4.49747 15.3004 4.57206L15.3142 4.58179C15.4246 4.65923 15.4831 4.69077 15.5191 4.69077V4.85141C15.4367 4.85141 15.3655 4.81297 15.2243 4.71397L15.2103 4.70411C15.1148 4.63697 15.078 4.61323 15.0384 4.59638C14.9727 4.56839 14.8882 4.5835 14.7804 4.64992ZM14.5207 5.69763C14.5673 5.69763 14.6051 5.66032 14.6051 5.61429C14.6051 5.56827 14.5673 5.53096 14.5207 5.53096C14.4741 5.53096 14.4363 5.56827 14.4363 5.61429C14.4363 5.66032 14.4741 5.69763 14.5207 5.69763ZM14.7633 5.77494C14.7633 5.82096 14.7255 5.85827 14.6789 5.85827C14.6323 5.85827 14.5945 5.82096 14.5945 5.77494C14.5945 5.72891 14.6323 5.6916 14.6789 5.6916C14.7255 5.6916 14.7633 5.72891 14.7633 5.77494ZM14.9631 5.85207C15.0097 5.85207 15.0474 5.81476 15.0474 5.76874C15.0474 5.72272 15.0097 5.68541 14.9631 5.68541C14.9165 5.68541 14.8787 5.72272 14.8787 5.76874C14.8787 5.81476 14.9165 5.85207 14.9631 5.85207ZM15.3118 5.9021C15.3118 5.94813 15.274 5.98544 15.2274 5.98544C15.1808 5.98544 15.143 5.94813 15.143 5.9021C15.143 5.85608 15.1808 5.81877 15.2274 5.81877C15.274 5.81877 15.3118 5.85608 15.3118 5.9021Z" fill="#C51918"/>
</g>
<path d="M17.5717 7.16441L17.4637 7.41314L17.2246 7.28541L17.2246 7.28541L17.2246 7.2854L17.2246 7.28539L17.2244 7.28533L17.2236 7.2849L17.22 7.28296L17.2048 7.27501C17.1914 7.26799 17.1715 7.25768 17.1462 7.24484C17.0955 7.21912 17.0236 7.18336 16.939 7.14353C16.7681 7.06304 16.5526 6.96924 16.3589 6.90672C16.1556 6.84114 15.9735 6.79035 15.8422 6.756C15.7767 6.73885 15.724 6.72585 15.688 6.71719L15.647 6.70751L15.6368 6.70517L15.6345 6.70463L15.634 6.70452L15.634 6.70452L15.6339 6.70451L15.6339 6.70451L15.6339 6.7045L15.3755 6.64686L15.4479 6.39215L16.0824 4.16024L16.117 4.03865L16.2354 3.99441L17.4791 3.52973L17.673 3.45729L17.7804 3.63424L18.4848 4.79532L18.5519 4.90589L18.5004 5.02452L17.5717 7.16441Z" fill="#56C6F5" stroke="white" stroke-width="0.5"/>
<mask id="mask5_701_22958" style="mask-type:alpha" maskUnits="userSpaceOnUse" x="15" y="3" width="4" height="5">
<path d="M17.5717 7.16441L17.4637 7.41314L17.2246 7.28541L17.2246 7.28541L17.2246 7.2854L17.2246 7.28539L17.2244 7.28533L17.2236 7.2849L17.22 7.28296L17.2048 7.27501C17.1914 7.26799 17.1715 7.25768 17.1462 7.24484C17.0955 7.21912 17.0236 7.18336 16.939 7.14353C16.7681 7.06304 16.5526 6.96924 16.3589 6.90672C16.1556 6.84114 15.9735 6.79035 15.8422 6.756C15.7767 6.73885 15.724 6.72585 15.688 6.71719L15.647 6.70751L15.6368 6.70517L15.6345 6.70463L15.634 6.70452L15.634 6.70452L15.6339 6.70451L15.6339 6.70451L15.6339 6.7045L15.3755 6.64686L15.4479 6.39215L16.0824 4.16024L16.117 4.03865L16.2354 3.99441L17.4791 3.52973L17.673 3.45729L17.7804 3.63424L18.4848 4.79532L18.5519 4.90589L18.5004 5.02452L17.5717 7.16441Z" fill="white" stroke="white" stroke-width="0.5"/>
</mask>
<g mask="url(#mask5_701_22958)">
<path fill-rule="evenodd" clip-rule="evenodd" d="M17.3456 4.81692L17.2596 4.9131C17.2282 4.94823 17.17 4.92933 17.1652 4.88244L17.1522 4.75409L17.0259 4.72772C16.9798 4.71809 16.9671 4.65824 17.0053 4.63067L17.1099 4.55522L17.0696 4.43267C17.0549 4.3879 17.1004 4.34695 17.1434 4.36628L17.261 4.41917L17.347 4.32299C17.3784 4.28786 17.4366 4.30676 17.4414 4.35365L17.4544 4.482L17.5807 4.50837C17.6268 4.518 17.6395 4.57785 17.6013 4.60542L17.4967 4.68087L17.537 4.80342C17.5517 4.84819 17.5062 4.88913 17.4632 4.86981L17.3456 4.81692Z" fill="#FECA00"/>
<path d="M15.7464 5.86577L15.9057 5.2439C16.6112 5.43027 17.3468 5.66914 17.8863 5.90012L17.6405 6.49222C17.1308 6.27402 16.4239 6.04474 15.7464 5.86577Z" fill="#E31D1C"/>
<path d="M15.9623 5.29155L15.9999 5.1355C16.6763 5.30336 17.3953 5.5712 17.9177 5.82067L17.8504 5.96604C17.338 5.72137 16.629 5.45698 15.9623 5.29155Z" fill="white"/>
<path d="M15.7619 5.93242L15.7994 5.77637C16.4759 5.94423 17.1011 6.172 17.6235 6.42147L17.5562 6.56684C17.0438 6.32217 16.4285 6.09785 15.7619 5.93242Z" fill="white"/>
<path d="M16.0672 5.63132L16.212 5.56592C16.273 5.70865 16.3483 5.7401 16.4743 5.67892C16.7717 5.53443 17.5094 5.73635 17.5094 6.00863C17.5094 6.11485 17.4478 6.17925 17.3538 6.17552C17.3007 6.17341 17.2441 6.15245 17.161 6.11138C17.151 6.1064 17.1443 6.10306 17.128 6.09475C17.0361 6.04791 17.0292 6.04449 17.0047 6.03568L17.0571 5.88219C17.0909 5.8944 17.0963 5.89701 17.1983 5.94905C17.214 5.95705 17.2202 5.96014 17.2296 5.96479C17.2933 5.99627 17.3358 6.01203 17.3599 6.01299C17.3621 6.01308 17.3512 6.02455 17.3512 6.00863C17.3512 5.88883 16.7507 5.72448 16.5418 5.82598C16.3335 5.92719 16.1632 5.85609 16.0672 5.63132Z" fill="#272727"/>
</g>
</g>
</g>
</g>
<rect x="1.75" y="1.25" width="23.5" height="17.5" stroke="black" stroke-opacity="0.1" stroke-width="0.5" shape-rendering="crispEdges"/>
</g>
<defs>
<filter id="filter0_dd_701_22958" x="0" y="0" width="27" height="21" filterUnits="userSpaceOnUse" color-interpolation-filters="sRGB">
<feFlood flood-opacity="0" result="BackgroundImageFix"/>
<feColorMatrix in="SourceAlpha" type="matrix" values="0 0 0 0 0 0 0 0 0 0 0 0 0 0 0 0 0 0 127 0" result="hardAlpha"/>
<feOffset dy="0.5"/>
<feGaussianBlur stdDeviation="0.75"/>
<feComposite in2="hardAlpha" operator="out"/>
<feColorMatrix type="matrix" values="0 0 0 0 0 0 0 0 0 0 0 0 0 0 0 0 0 0 0.1 0"/>
<feBlend mode="multiply" in2="BackgroundImageFix" result="effect1_dropShadow_701_22958"/>
<feColorMatrix in="SourceAlpha" type="matrix" values="0 0 0 0 0 0 0 0 0 0 0 0 0 0 0 0 0 0 127 0" result="hardAlpha"/>
<feOffset/>
<feGaussianBlur stdDeviation="0.5"/>
<feComposite in2="hardAlpha" operator="out"/>
<feColorMatrix type="matrix" values="0 0 0 0 0 0 0 0 0 0 0 0 0 0 0 0 0 0 0.11 0"/>
<feBlend mode="multiply" in2="effect1_dropShadow_701_22958" result="effect2_dropShadow_701_22958"/>
<feBlend mode="normal" in="SourceGraphic" in2="effect2_dropShadow_701_22958" result="shape"/>
</filter>
<clipPath id="clip0_701_22958">
<rect x="1.5" y="1" width="24" height="18" fill="white"/>
</clipPath>
</defs>
</svg>