<svg viewBox="0 0 27 21" fill="none" xmlns="http://www.w3.org/2000/svg">
<g filter="url(#filter0_dd_701_21160)">
<g clip-path="url(#clip0_701_21160)">
<mask id="mask0_701_21160" style="mask-type:alpha" maskUnits="userSpaceOnUse" x="1" y="1" width="25" height="18">
<rect x="1.5" y="1" width="24" height="18" fill="white"/>
</mask>
<g mask="url(#mask0_701_21160)">
<path fill-rule="evenodd" clip-rule="evenodd" d="M1.5 1V19H25.5V1H1.5Z" fill="#BF2714"/>
<mask id="mask1_701_21160" style="mask-type:alpha" maskUnits="userSpaceOnUse" x="1" y="1" width="25" height="18">
<path fill-rule="evenodd" clip-rule="evenodd" d="M1.5 1V19H25.5V1H1.5Z" fill="white"/>
</mask>
<g mask="url(#mask1_701_21160)">
<path fill-rule="evenodd" clip-rule="evenodd" d="M1.5 -0.5V10H25.5V-0.5H1.5Z" fill="#3D58DB"/>
</g>
<path fill-rule="evenodd" clip-rule="evenodd" d="M1.5 1V19L15 10L1.5 1Z" fill="#F7FCFF"/>
<mask id="mask2_701_21160" style="mask-type:alpha" maskUnits="userSpaceOnUse" x="1" y="1" width="14" height="18">
<path fill-rule="evenodd" clip-rule="evenodd" d="M1.5 1V19L15 10L1.5 1Z" fill="white"/>
</mask>
<g mask="url(#mask2_701_21160)">
<path fill-rule="evenodd" clip-rule="evenodd" d="M11.7038 9.19013L12.6607 9.55915L13.23 8.88916L13.2451 9.78523L14.1258 10.0717L13.1988 10.3863L13.2599 11.2098L12.6494 10.579L11.6897 10.7615L12.2563 10.0351L11.7038 9.19013Z" fill="#FECA00"/>
<path fill-rule="evenodd" clip-rule="evenodd" d="M2.7038 13.6901L3.58337 14.079L4.23004 13.3892L4.16781 14.3051L5.12584 14.5717L4.1215 14.9062L4.25993 15.7098L3.56066 15.1356L2.68965 15.2615L3.17893 14.5549L2.7038 13.6901Z" fill="#FECA00"/>
<path fill-rule="evenodd" clip-rule="evenodd" d="M2.7038 4.69013L3.67711 5.0488L4.23004 4.38916L4.26155 5.27487L5.12584 5.57168L4.21524 5.87599L4.25993 6.70976L3.6544 6.10536L2.68965 6.26155L3.27267 5.52471L2.7038 4.69013Z" fill="#FECA00"/>
<path fill-rule="evenodd" clip-rule="evenodd" d="M7.59113 11.8997C8.62666 11.8997 9.46613 11.0602 9.46613 10.0247C9.46613 8.98912 8.62666 8.14966 7.59113 8.14966C6.55559 8.14966 5.71613 8.98912 5.71613 10.0247C5.71613 11.0602 6.55559 11.8997 7.59113 11.8997Z" fill="#FECA00"/>
<path fill-rule="evenodd" clip-rule="evenodd" d="M7.36949 7.1798L7.47024 8.3843C7.47988 8.45744 7.53615 8.51571 7.60891 8.52789C7.70032 8.54319 7.78682 8.4815 7.80212 8.39009L7.9351 7.18967C7.93743 7.17571 7.93873 7.1616 7.93898 7.14745C7.94174 6.98952 7.81595 6.85926 7.65802 6.85651C7.64387 6.85626 7.62972 6.85706 7.61569 6.85891C7.45909 6.87954 7.34886 7.0232 7.36949 7.1798ZM7.05591 7.76192L7.21162 8.2859C7.22607 8.33454 7.27465 8.36466 7.32958 8.35497C7.37461 8.34433 7.40249 8.29919 7.39185 8.25416L7.26758 7.7283C7.25329 7.66782 7.1947 7.62866 7.13336 7.63859C7.12926 7.63925 7.12521 7.64018 7.12123 7.64136C7.0699 7.65662 7.04065 7.71059 7.05591 7.76192ZM7.89802 8.30773C7.88582 8.35237 7.9121 8.39844 7.96164 8.41183C8.0113 8.42225 8.06089 8.39384 8.07704 8.34574L8.25094 7.82752C8.26798 7.77675 8.24063 7.72179 8.18987 7.70475C8.18593 7.70343 8.18191 7.70236 8.17784 7.70156C8.11688 7.68949 8.05696 7.72658 8.04057 7.78652L7.89802 8.30773ZM9.45586 7.78111L8.61758 8.70676C8.57267 8.76529 8.57125 8.84629 8.61409 8.90635C8.66791 8.98181 8.7727 8.99935 8.84815 8.94553L9.84883 8.18804C9.86035 8.17982 9.87125 8.17076 9.88143 8.16092C9.99505 8.0512 9.99821 7.87015 9.88849 7.75653C9.87865 7.74635 9.86808 7.73691 9.85685 7.7283C9.73154 7.63215 9.55201 7.65579 9.45586 7.78111ZM9.20085 9.74607L10.4526 9.64919C10.6092 9.62857 10.7528 9.7388 10.7735 9.89539C10.7753 9.90943 10.7761 9.92358 10.7759 9.93773C10.7731 10.0957 10.6428 10.2214 10.4849 10.2187C10.4708 10.2184 10.4566 10.2171 10.4427 10.2148L9.19505 10.0779C9.10365 10.0626 9.04195 9.97614 9.05725 9.88473C9.06943 9.81197 9.12771 9.7557 9.20085 9.74607ZM9.85048 11.7397L8.87838 10.8934C8.81985 10.8485 8.73886 10.8471 8.6788 10.8899C8.60334 10.9437 8.5858 11.0485 8.63961 11.124L9.44355 12.1327C9.45177 12.1442 9.46083 12.1551 9.47066 12.1653C9.58038 12.2789 9.76143 12.2821 9.87505 12.1723C9.88524 12.1625 9.89467 12.1519 9.90329 12.1407C9.99944 12.0154 9.97579 11.8359 9.85048 11.7397ZM7.83908 11.4767L7.9133 12.7404C7.93392 12.897 7.82369 13.0407 7.6671 13.0613C7.65306 13.0632 7.63891 13.064 7.62476 13.0637C7.46684 13.061 7.34105 12.9307 7.3438 12.7728C7.34405 12.7586 7.34535 12.7445 7.34768 12.7306L7.5072 11.4709C7.5225 11.3795 7.60901 11.3178 7.70041 11.3331C7.77317 11.3453 7.82945 11.4035 7.83908 11.4767ZM5.86577 12.1594L6.69175 11.1542C6.73665 11.0957 6.73807 11.0147 6.69523 10.9546C6.64142 10.8792 6.53662 10.8616 6.46117 10.9154L5.47281 11.7525C5.46128 11.7607 5.45039 11.7698 5.44021 11.7796C5.32659 11.8893 5.32343 12.0704 5.43315 12.184C5.44298 12.1942 5.45355 12.2036 5.46478 12.2122C5.5901 12.3084 5.76963 12.2847 5.86577 12.1594ZM6.10847 10.1149L4.84907 10.2187C4.69247 10.2393 4.54881 10.1291 4.52818 9.97248C4.52633 9.95845 4.52553 9.9443 4.52578 9.93015C4.52853 9.77222 4.65879 9.64644 4.81672 9.64919C4.83087 9.64944 4.84498 9.65074 4.85894 9.65307L6.11427 9.78303C6.20567 9.79833 6.26737 9.88483 6.25207 9.97624C6.23989 10.049 6.18162 10.1053 6.10847 10.1149ZM5.36277 8.1416L6.43094 8.96757C6.48947 9.01248 6.57046 9.01389 6.63053 8.97105C6.70598 8.91724 6.72352 8.81245 6.66971 8.737L5.7697 7.74863C5.76148 7.73711 5.75241 7.72621 5.74258 7.71603C5.63286 7.60241 5.45181 7.59925 5.33819 7.70897C5.32801 7.7188 5.31857 7.72938 5.30995 7.74061C5.21381 7.86592 5.23745 8.04545 5.36277 8.1416ZM8.50428 8.45431L8.76468 7.9737C8.79019 7.92662 8.84904 7.90913 8.89612 7.93464C8.89977 7.93661 8.90329 7.93882 8.90666 7.94125C8.95705 7.97761 8.9708 8.04673 8.93814 8.0996L8.65417 8.55931C8.62985 8.59868 8.57822 8.61088 8.53885 8.58656C8.49316 8.55457 8.48011 8.49892 8.50428 8.45431ZM9.82322 9.33173L9.29925 9.48744C9.25061 9.5019 9.22049 9.55047 9.23018 9.60541C9.24082 9.65044 9.28595 9.67832 9.33099 9.66768L9.85685 9.54341C9.91733 9.52912 9.95648 9.47053 9.94656 9.40918C9.94589 9.40508 9.94497 9.40103 9.94378 9.39705C9.92853 9.34572 9.87455 9.31648 9.82322 9.33173ZM9.13084 10.7801L9.61145 11.0405C9.65853 11.066 9.67602 11.1249 9.65051 11.1719C9.64853 11.1756 9.64632 11.1791 9.64389 11.1825C9.60754 11.2329 9.53842 11.2466 9.48555 11.214L9.02584 10.93C8.98647 10.9057 8.97427 10.854 8.99859 10.8147C9.03058 10.769 9.08623 10.7559 9.13084 10.7801ZM8.25342 12.099L8.0977 11.5751C8.08325 11.5264 8.03468 11.4963 7.97974 11.506C7.93471 11.5166 7.90683 11.5618 7.91747 11.6068L8.04174 12.1327C8.05603 12.1932 8.11462 12.2323 8.17597 12.2224C8.18006 12.2217 8.18412 12.2208 8.18809 12.2196C8.23942 12.2044 8.26867 12.1504 8.25342 12.099ZM6.80504 11.4067L6.54464 11.8873C6.51913 11.9344 6.46028 11.9518 6.4132 11.9263C6.40955 11.9244 6.40603 11.9221 6.40267 11.9197C6.35227 11.8834 6.33853 11.8142 6.37118 11.7614L6.65516 11.3017C6.67947 11.2623 6.7311 11.2501 6.77047 11.2744C6.81616 11.3064 6.82921 11.3621 6.80504 11.4067ZM5.4861 10.5292L6.01007 10.3735C6.05871 10.3591 6.08883 10.3105 6.07914 10.2556C6.0685 10.2105 6.02337 10.1827 5.97834 10.1933L5.45247 10.3176C5.39199 10.3319 5.35284 10.3904 5.36277 10.4518C5.36343 10.4559 5.36436 10.4599 5.36554 10.4639C5.38079 10.5152 5.43477 10.5445 5.4861 10.5292ZM6.17848 9.08087L5.69787 8.82046C5.65079 8.79495 5.6333 8.73611 5.65881 8.68903C5.66079 8.68538 5.663 8.68186 5.66543 8.67849C5.70178 8.62809 5.7709 8.61435 5.82377 8.64701L6.28349 8.93098C6.32285 8.9553 6.33505 9.00693 6.31074 9.04629C6.27874 9.09199 6.2231 9.10504 6.17848 9.08087ZM8.9742 8.95511C8.93401 8.97804 8.92002 9.02921 8.94558 9.0737C8.97333 9.11618 9.02848 9.13117 9.07391 9.10857L9.56332 8.8651C9.61126 8.84125 9.63079 8.78304 9.60694 8.7351C9.60509 8.73138 9.60301 8.72779 9.6007 8.72434C9.56612 8.6727 9.49752 8.65656 9.44355 8.68735L8.9742 8.95511ZM9.17331 10.2375C9.1867 10.1879 9.23278 10.1616 9.27741 10.1738L9.79862 10.3164C9.85856 10.3328 9.89565 10.3927 9.88359 10.4537C9.88278 10.4577 9.88172 10.4618 9.8804 10.4657C9.86336 10.5165 9.8084 10.5438 9.75763 10.5268L9.23941 10.3529C9.1913 10.3367 9.1629 10.2871 9.17331 10.2375ZM8.63004 11.25C8.60711 11.2098 8.55594 11.1958 8.51145 11.2214C8.46896 11.2492 8.45398 11.3043 8.47658 11.3497L8.72005 11.8391C8.7439 11.8871 8.8021 11.9066 8.85005 11.8828C8.85376 11.8809 8.85736 11.8788 8.86081 11.8765C8.91244 11.8419 8.92859 11.7733 8.89779 11.7194L8.63004 11.25ZM7.34768 11.4491C7.39722 11.4625 7.42351 11.5086 7.4113 11.5532L7.26876 12.0744C7.25236 12.1344 7.19244 12.1715 7.13148 12.1594C7.12741 12.1586 7.12339 12.1575 7.11946 12.1562C7.06869 12.1392 7.04135 12.0842 7.05838 12.0335L7.23228 11.5152C7.24843 11.4671 7.29802 11.4387 7.34768 11.4491ZM6.33512 10.9059C6.37531 10.8829 6.3893 10.8318 6.36375 10.7873C6.336 10.7448 6.28084 10.7298 6.23541 10.7524L5.746 10.9959C5.69806 11.0197 5.67853 11.0779 5.70238 11.1259C5.70423 11.1296 5.70632 11.1332 5.70863 11.1366C5.7432 11.1883 5.8118 11.2044 5.86577 11.1736L6.33512 10.9059ZM6.13601 9.62351C6.12262 9.67304 6.07654 9.69933 6.03191 9.68713L5.5107 9.54458C5.45076 9.52819 5.41367 9.46827 5.42573 9.4073C5.42654 9.40323 5.4276 9.39922 5.42893 9.39528C5.44596 9.34451 5.50093 9.31717 5.55169 9.33421L6.06991 9.50811C6.11802 9.52425 6.14642 9.57385 6.13601 9.62351ZM6.67928 8.61094C6.70221 8.65114 6.75338 8.66513 6.79788 8.63957C6.84036 8.61182 6.85534 8.55667 6.83274 8.51124L6.58927 8.02183C6.56542 7.97389 6.50722 7.95436 6.45928 7.97821C6.45556 7.98006 6.45196 7.98214 6.44852 7.98445C6.39688 8.01903 6.38073 8.08762 6.41153 8.1416L6.67928 8.61094Z" fill="#FECA00"/>
</g>
</g>
</g>
<rect x="1.75" y="1.25" width="23.5" height="17.5" stroke="black" stroke-opacity="0.1" stroke-width="0.5" shape-rendering="crispEdges"/>
</g>
<defs>
<filter id="filter0_dd_701_21160" x="0" y="0" width="27" height="21" filterUnits="userSpaceOnUse" color-interpolation-filters="sRGB">
<feFlood flood-opacity="0" result="BackgroundImageFix"/>
<feColorMatrix in="SourceAlpha" type="matrix" values="0 0 0 0 0 0 0 0 0 0 0 0 0 0 0 0 0 0 127 0" result="hardAlpha"/>
<feOffset dy="0.5"/>
<feGaussianBlur stdDeviation="0.75"/>
<feComposite in2="hardAlpha" operator="out"/>
<feColorMatrix type="matrix" values="0 0 0 0 0 0 0 0 0 0 0 0 0 0 0 0 0 0 0.1 0"/>
<feBlend mode="multiply" in2="BackgroundImageFix" result="effect1_dropShadow_701_21160"/>
<feColorMatrix in="SourceAlpha" type="matrix" values="0 0 0 0 0 0 0 0 0 0 0 0 0 0 0 0 0 0 127 0" result="hardAlpha"/>
<feOffset/>
<feGaussianBlur stdDeviation="0.5"/>
<feComposite in2="hardAlpha" operator="out"/>
<feColorMatrix type="matrix" values="0 0 0 0 0 0 0 0 0 0 0 0 0 0 0 0 0 0 0.11 0"/>
<feBlend mode="multiply" in2="effect1_dropShadow_701_21160" result="effect2_dropShadow_701_21160"/>
<feBlend mode="normal" in="SourceGraphic" in2="effect2_dropShadow_701_21160" result="shape"/>
</filter>
<clipPath id="clip0_701_21160">
<rect x="1.5" y="1" width="24" height="18" fill="white"/>
</clipPath>
</defs>
</svg>