<svg viewBox="0 0 27 21" fill="none" xmlns="http://www.w3.org/2000/svg">
<g filter="url(#filter0_dd_701_20411)">
<g clip-path="url(#clip0_701_20411)">
<mask id="mask0_701_20411" style="mask-type:alpha" maskUnits="userSpaceOnUse" x="1" y="1" width="25" height="18">
<rect x="1.5" y="1" width="24" height="18" fill="white"/>
</mask>
<g mask="url(#mask0_701_20411)">
<path fill-rule="evenodd" clip-rule="evenodd" d="M1.5 1V19H25.5V1H1.5Z" fill="#3D58DB"/>
<mask id="mask1_701_20411" style="mask-type:alpha" maskUnits="userSpaceOnUse" x="1" y="1" width="25" height="18">
<path fill-rule="evenodd" clip-rule="evenodd" d="M1.5 1V19H25.5V1H1.5Z" fill="white"/>
</mask>
<g mask="url(#mask1_701_20411)">
<path fill-rule="evenodd" clip-rule="evenodd" d="M1.5 1V7H25.5V1H1.5Z" fill="#F7FCFF"/>
<path fill-rule="evenodd" clip-rule="evenodd" d="M1.5 13V19H25.5V13H1.5Z" fill="#E31D1C"/>
<path d="M13.2029 5.52271L13.7001 5.46981L13.6526 5.02271H13.2029H6.25862H5.7912L5.75975 5.48907L6.25862 5.52271L5.75975 5.48914L5.75974 5.48931L5.7597 5.48992L5.75954 5.49225L5.75894 5.50125L5.75664 5.53607L5.74812 5.66848C5.74087 5.78295 5.7307 5.94761 5.71899 6.14881C5.69559 6.55107 5.66601 7.10018 5.64136 7.68692C5.59302 8.83768 5.55991 10.2019 5.64568 10.8464C5.81177 12.0945 6.57363 14.9158 9.5353 16.1951L9.73704 16.2823L9.93766 16.1926C12.7466 14.9366 13.6843 12.407 13.9004 10.8492C14.0097 10.0607 13.9539 8.69398 13.8787 7.57159C13.8405 7.00028 13.7959 6.47546 13.7609 6.09362C13.7434 5.90259 13.7282 5.7471 13.7174 5.63916L13.7048 5.51436L13.7014 5.48149L13.7005 5.47293L13.7002 5.47068L13.7002 5.47007L13.7001 5.46989L13.2029 5.52271Z" fill="#E31D1C" stroke="white"/>
<mask id="mask2_701_20411" style="mask-type:alpha" maskUnits="userSpaceOnUse" x="5" y="4" width="10" height="13">
<path d="M13.2029 5.52271L13.7001 5.46981L13.6526 5.02271H13.2029H6.25862H5.7912L5.75975 5.48907L6.25862 5.52271L5.75975 5.48914L5.75974 5.48931L5.7597 5.48992L5.75954 5.49225L5.75894 5.50125L5.75664 5.53607L5.74812 5.66848C5.74087 5.78295 5.7307 5.94761 5.71899 6.14881C5.69559 6.55107 5.66601 7.10018 5.64136 7.68692C5.59302 8.83768 5.55991 10.2019 5.64568 10.8464C5.81177 12.0945 6.57363 14.9158 9.5353 16.1951L9.73704 16.2823L9.93766 16.1926C12.7466 14.9366 13.6843 12.407 13.9004 10.8492C14.0097 10.0607 13.9539 8.69398 13.8787 7.57159C13.8405 7.00028 13.7959 6.47546 13.7609 6.09362C13.7434 5.90259 13.7282 5.7471 13.7174 5.63916L13.7048 5.51436L13.7014 5.48149L13.7005 5.47293L13.7002 5.47068L13.7002 5.47007L13.7001 5.46989L13.2029 5.52271Z" fill="white" stroke="white"/>
</mask>
<g mask="url(#mask2_701_20411)">
<path fill-rule="evenodd" clip-rule="evenodd" d="M9.19283 5.94238C9.19283 5.94238 9.34769 6.17835 9.41702 6.53916C9.48635 6.89997 9.49831 7.53216 9.49831 7.53216L8.02915 7.35127V8.46524L9.53113 8.27396L9.50672 9.33126C9.50672 9.33126 9.05738 9.37784 8.68884 9.33126C8.32031 9.28468 7.59429 9.08953 7.59429 9.08953V10.3648C7.59429 10.3648 8.33191 10.1288 8.68884 10.0747C9.04577 10.0205 9.50672 10.0747 9.50672 10.0747V11.6409H10.1165V10.0747C10.1165 10.0747 10.7831 10.0167 11.1807 10.0795C11.5783 10.1422 11.9555 10.3648 11.9555 10.3648V9.08953C11.9555 9.08953 11.5734 9.27991 11.213 9.32729C10.8526 9.37466 10.1165 9.33126 10.1165 9.33126L10.1409 8.27396C10.1409 8.27396 10.6398 8.2223 10.9197 8.2603C11.1997 8.2983 11.55 8.46524 11.55 8.46524V7.35127C11.55 7.35127 11.2085 7.53708 10.9399 7.57078C10.6712 7.60449 10.1081 7.53216 10.1081 7.53216C10.1081 7.53216 10.1181 6.87976 10.1758 6.56209C10.2336 6.24442 10.3972 5.94238 10.3972 5.94238H9.19283Z" fill="#F7FCFF"/>
<path fill-rule="evenodd" clip-rule="evenodd" d="M6.673 13.1839C6.673 13.1839 7.00262 12.4765 7.53897 12.342C8.07532 12.2074 8.63773 12.7629 8.63773 12.7629C8.63773 12.7629 8.98116 11.6406 9.81824 11.6406C10.6553 11.6406 10.9491 12.7629 10.9491 12.7629C10.9491 12.7629 11.3062 12.342 11.8198 12.342C12.3334 12.342 12.8092 13.1839 12.8092 13.1839C12.8092 13.1839 11.2752 15.969 9.74111 15.969C8.20706 15.969 6.673 13.1839 6.673 13.1839Z" fill="#2E42A5"/>
</g>
</g>
</g>
</g>
<rect x="1.75" y="1.25" width="23.5" height="17.5" stroke="black" stroke-opacity="0.1" stroke-width="0.5" shape-rendering="crispEdges"/>
</g>
<defs>
<filter id="filter0_dd_701_20411" x="0" y="0" width="27" height="21" filterUnits="userSpaceOnUse" color-interpolation-filters="sRGB">
<feFlood flood-opacity="0" result="BackgroundImageFix"/>
<feColorMatrix in="SourceAlpha" type="matrix" values="0 0 0 0 0 0 0 0 0 0 0 0 0 0 0 0 0 0 127 0" result="hardAlpha"/>
<feOffset dy="0.5"/>
<feGaussianBlur stdDeviation="0.75"/>
<feComposite in2="hardAlpha" operator="out"/>
<feColorMatrix type="matrix" values="0 0 0 0 0 0 0 0 0 0 0 0 0 0 0 0 0 0 0.1 0"/>
<feBlend mode="multiply" in2="BackgroundImageFix" result="effect1_dropShadow_701_20411"/>
<feColorMatrix in="SourceAlpha" type="matrix" values="0 0 0 0 0 0 0 0 0 0 0 0 0 0 0 0 0 0 127 0" result="hardAlpha"/>
<feOffset/>
<feGaussianBlur stdDeviation="0.5"/>
<feComposite in2="hardAlpha" operator="out"/>
<feColorMatrix type="matrix" values="0 0 0 0 0 0 0 0 0 0 0 0 0 0 0 0 0 0 0.11 0"/>
<feBlend mode="multiply" in2="effect1_dropShadow_701_20411" result="effect2_dropShadow_701_20411"/>
<feBlend mode="normal" in="SourceGraphic" in2="effect2_dropShadow_701_20411" result="shape"/>
</filter>
<clipPath id="clip0_701_20411">
<rect x="1.5" y="1" width="24" height="18" fill="white"/>
</clipPath>
</defs>
</svg>