<svg viewBox="0 0 27 21" fill="none" xmlns="http://www.w3.org/2000/svg">
<g filter="url(#filter0_dd_701_19531)">
<g clip-path="url(#clip0_701_19531)">
<mask id="mask0_701_19531" style="mask-type:alpha" maskUnits="userSpaceOnUse" x="1" y="1" width="25" height="18">
<rect x="1.5" y="1" width="24" height="18" fill="white"/>
</mask>
<g mask="url(#mask0_701_19531)">
<path fill-rule="evenodd" clip-rule="evenodd" d="M1.5 1V19H25.5V1H1.5Z" fill="#F7FCFF"/>
<mask id="mask1_701_19531" style="mask-type:alpha" maskUnits="userSpaceOnUse" x="1" y="1" width="25" height="18">
<path fill-rule="evenodd" clip-rule="evenodd" d="M1.5 1V19H25.5V1H1.5Z" fill="white"/>
</mask>
<g mask="url(#mask1_701_19531)">
<rect x="1.5" y="2.5" width="24" height="2.25" fill="#2E42A5"/>
<rect x="1.5" y="7" width="24" height="2.25" fill="#2E42A5"/>
<rect x="1.5" y="11.5" width="24" height="2.25" fill="#2E42A5"/>
<rect x="1.5" y="15.25" width="24" height="2.25" fill="#2E42A5"/>
<rect x="1.5" y="1" width="10.5" height="10.5" fill="#F7FCFF"/>
<path fill-rule="evenodd" clip-rule="evenodd" d="M5.08683 2.93675C5.03187 2.93306 4.98388 2.97424 4.97965 3.02872C4.95909 3.29357 5.19222 3.53436 5.3213 3.66766L5.33402 3.68081C5.35441 3.70192 5.37529 3.72277 5.40145 3.74831C5.40143 3.7483 5.46248 3.80756 5.47919 3.82409C5.59128 3.93493 5.61558 4.03876 5.64285 4.15533L5.64961 4.184C5.6614 4.2334 5.67353 4.29311 5.68685 4.35867L5.68686 4.35868L5.68686 4.35869L5.68686 4.35869C5.7459 4.64929 5.8283 5.0549 6.00829 5.18712C6.05238 5.21951 6.36124 5.02713 6.39434 4.98316C6.40601 4.96766 6.44053 4.94199 6.4784 4.91384L6.4784 4.91384C6.54787 4.86219 6.62858 4.80218 6.60004 4.78122C6.41156 4.64277 6.26838 4.30722 6.08235 3.82409C5.98302 3.59661 5.72294 3.45201 5.50712 3.33201C5.32277 3.22952 5.17071 3.14498 5.1787 3.04208C5.18293 2.9876 5.1418 2.94044 5.08683 2.93675ZM8.12231 3.01132C8.09547 2.96322 8.0348 2.9454 7.9868 2.97152C7.75348 3.09852 7.67852 3.42519 7.63702 3.60604L7.63291 3.62388C7.62632 3.65247 7.6202 3.68134 7.61303 3.71719C7.61303 3.71717 7.59658 3.80065 7.59182 3.82366C7.55991 3.97804 7.48606 4.05496 7.40315 4.14133L7.38278 4.16261C7.34778 4.1994 7.30432 4.24209 7.25659 4.28897L7.25657 4.28898L7.25657 4.28899C7.045 4.49677 6.74971 4.78679 6.73685 5.00977C6.7337 5.06437 7.06326 5.21863 7.11816 5.22244C7.13753 5.22379 7.17786 5.23876 7.22209 5.25518C7.30324 5.28531 7.39752 5.32032 7.39956 5.28498C7.41302 5.0515 7.61645 4.74866 7.92032 4.32951C8.05701 4.12231 8.03663 3.82544 8.01972 3.57908C8.00527 3.36865 7.99335 3.19507 8.08401 3.14573C8.132 3.1196 8.14915 3.05943 8.12231 3.01132ZM10.062 4.773C10.1149 4.78662 10.1471 4.84103 10.134 4.89452C10.1208 4.94801 10.0672 4.98032 10.0143 4.9667C9.91434 4.94096 9.80468 5.07603 9.67173 5.23978C9.51608 5.43149 9.32852 5.66251 9.08725 5.72083C8.57915 5.82013 8.22384 5.90288 8.05476 6.06445C8.02916 6.08891 7.98408 5.99901 7.94528 5.92163C7.92413 5.87945 7.90485 5.84099 7.8916 5.8268C7.85405 5.78657 7.71823 5.449 7.75778 5.41121C7.91925 5.25691 8.333 5.24619 8.62944 5.23851L8.62947 5.23851C8.69635 5.23678 8.75725 5.2352 8.80794 5.23216L8.83735 5.23049C8.95689 5.22387 9.06336 5.21797 9.19199 5.12683C9.21116 5.11325 9.28012 5.06342 9.28011 5.06343C9.3098 5.0421 9.33396 5.02516 9.35829 5.00875L9.37346 4.9985C9.52715 4.89454 9.80475 4.70675 10.062 4.773ZM3.24206 5.10545C3.20058 5.1417 3.19576 5.20475 3.2313 5.24626C3.40404 5.44809 3.73915 5.45349 3.92467 5.45649C3.93095 5.45659 3.93705 5.45669 3.94298 5.45679C3.97231 5.4573 4.00182 5.45728 4.03838 5.45684C4.03836 5.45684 4.12344 5.45558 4.14693 5.45545C4.30458 5.45457 4.39517 5.5108 4.49689 5.57395C4.50515 5.57908 4.51349 5.58425 4.52194 5.58944C4.56521 5.61603 4.61601 5.64968 4.6718 5.68663C4.91903 5.85037 5.26411 6.07891 5.48488 6.04513C5.53895 6.03686 5.62131 5.68243 5.61363 5.62794C5.61092 5.60871 5.61718 5.56615 5.62405 5.51947C5.63665 5.43383 5.65129 5.33433 5.61629 5.33968C5.38511 5.37506 5.0466 5.23904 4.57343 5.02895C4.34235 4.93833 4.05619 5.01999 3.81873 5.08776C3.6159 5.14564 3.4486 5.19338 3.38149 5.11497C3.34596 5.07345 3.28353 5.06919 3.24206 5.10545Z" fill="#FFC125"/>
<path d="M4.97965 3.02872L4.90488 3.02291V3.02291L4.97965 3.02872ZM5.08683 2.93675L5.08181 3.01158L5.08683 2.93675ZM5.3213 3.66766L5.3752 3.61551L5.37518 3.61549L5.3213 3.66766ZM5.33402 3.68081L5.38797 3.62871L5.38793 3.62867L5.33402 3.68081ZM5.40145 3.74831L5.34922 3.80214L5.45385 3.69465L5.40145 3.74831ZM5.47919 3.82409L5.42645 3.87741V3.87741L5.47919 3.82409ZM5.64285 4.15533L5.56983 4.17242L5.56985 4.17253L5.64285 4.15533ZM5.64961 4.184L5.57661 4.2012L5.57666 4.20142L5.64961 4.184ZM5.68685 4.35867L5.76058 4.34485L5.76035 4.34374L5.68685 4.35867ZM5.68686 4.35868L5.76065 4.34527L5.76057 4.34486L5.68686 4.35868ZM5.68686 4.35869L5.61271 4.37217L5.61474 4.37929L5.68686 4.35869ZM5.68686 4.35869L5.76058 4.34372L5.75897 4.33809L5.68686 4.35869ZM6.00829 5.18712L5.96389 5.24757L5.96389 5.24757L6.00829 5.18712ZM6.39434 4.98316L6.33442 4.93806L6.33442 4.93806L6.39434 4.98316ZM6.4784 4.91384L6.52314 4.97403L6.5234 4.97384L6.4784 4.91384ZM6.4784 4.91384L6.43365 4.85365L6.4334 4.85384L6.4784 4.91384ZM6.60004 4.78122L6.64445 4.72078L6.60004 4.78122ZM6.08235 3.82409L6.15241 3.79711L6.15108 3.79407L6.08235 3.82409ZM5.50712 3.33201L5.47067 3.39756L5.50712 3.33201ZM5.1787 3.04208L5.25347 3.04788V3.04788L5.1787 3.04208ZM7.9868 2.97152L8.02266 3.03739L8.02266 3.03739L7.9868 2.97152ZM8.12231 3.01132L8.05681 3.04787L8.12231 3.01132ZM7.63702 3.60604L7.71011 3.62284L7.71012 3.62281L7.63702 3.60604ZM7.63291 3.62388L7.70599 3.64075L7.70601 3.64068L7.63291 3.62388ZM7.61303 3.71719L7.53946 3.70261L7.68657 3.73191L7.61303 3.71719ZM7.59182 3.82366L7.66527 3.83884V3.83884L7.59182 3.82366ZM7.40315 4.14133L7.34905 4.08939L7.34897 4.08947L7.40315 4.14133ZM7.38278 4.16261L7.3286 4.11075L7.32845 4.11091L7.38278 4.16261ZM7.25659 4.28897L7.30857 4.34303L7.30914 4.34247L7.25659 4.28897ZM7.25657 4.28898L7.20443 4.23475L7.20051 4.23916L7.25657 4.28898ZM7.25657 4.28899L7.30924 4.34262L7.31262 4.33881L7.25657 4.28899ZM6.73685 5.00977L6.81173 5.01408L6.73685 5.00977ZM7.11816 5.22244L7.12336 5.14762L7.11816 5.22244ZM7.22209 5.25518L7.24819 5.18487L7.22209 5.25518ZM7.39956 5.28498L7.47444 5.28929L7.39956 5.28498ZM7.92032 4.32951L7.9811 4.37357L7.98293 4.37081L7.92032 4.32951ZM8.01972 3.57908L7.94489 3.58421V3.58421L8.01972 3.57908ZM8.08401 3.14573L8.11986 3.2116L8.11986 3.2116L8.08401 3.14573ZM10.134 4.89452L10.0611 4.87658L10.134 4.89452ZM10.062 4.773L10.0433 4.84563H10.0433L10.062 4.773ZM10.0143 4.9667L9.99559 5.03933L9.99559 5.03933L10.0143 4.9667ZM9.67173 5.23978L9.61351 5.19251L9.67173 5.23978ZM9.08725 5.72083L9.10165 5.7945L9.10487 5.79373L9.08725 5.72083ZM8.05476 6.06445L8.10657 6.11868L8.05476 6.06445ZM7.94528 5.92163L8.01232 5.88801V5.88801L7.94528 5.92163ZM7.8916 5.8268L7.83677 5.87798V5.87798L7.8916 5.8268ZM7.75778 5.41121L7.70596 5.35699H7.70596L7.75778 5.41121ZM8.62944 5.23851L8.63138 5.31348L8.63149 5.31348L8.62944 5.23851ZM8.62947 5.23851L8.62753 5.16353L8.62742 5.16354L8.62947 5.23851ZM8.80794 5.23216L8.80368 5.15728L8.80346 5.1573L8.80794 5.23216ZM8.83735 5.23049L8.8332 5.1556L8.83309 5.15561L8.83735 5.23049ZM9.19199 5.12683L9.23535 5.18803V5.18803L9.19199 5.12683ZM9.28011 5.06343L9.23636 5.00251L9.32336 5.1247L9.28011 5.06343ZM9.35829 5.00875L9.40023 5.07093L9.40029 5.07089L9.35829 5.00875ZM9.37346 4.9985L9.41545 5.06064L9.41548 5.06062L9.37346 4.9985ZM3.2313 5.24626L3.17432 5.29503L3.17432 5.29503L3.2313 5.24626ZM3.24206 5.10545L3.29142 5.16191L3.24206 5.10545ZM3.92467 5.45649L3.92588 5.3815H3.92588L3.92467 5.45649ZM3.94298 5.45679L3.94167 5.53178H3.94167L3.94298 5.45679ZM4.03838 5.45684L4.03929 5.53184L4.03749 5.38185L4.03838 5.45684ZM4.14693 5.45545L4.14735 5.53045H4.14735L4.14693 5.45545ZM4.49689 5.57395L4.53644 5.51023L4.53644 5.51023L4.49689 5.57395ZM4.52194 5.58944L4.48267 5.65334H4.48267L4.52194 5.58944ZM4.6718 5.68663L4.71321 5.6241H4.71321L4.6718 5.68663ZM5.48488 6.04513L5.49623 6.11927L5.48488 6.04513ZM5.61363 5.62794L5.53937 5.63841L5.61363 5.62794ZM5.62405 5.51947L5.69825 5.53039V5.53039L5.62405 5.51947ZM5.61629 5.33968L5.62764 5.41382L5.61629 5.33968ZM4.57343 5.02895L4.60389 4.96034L4.60081 4.95913L4.57343 5.02895ZM3.81873 5.08776L3.79815 5.01563L3.81873 5.08776ZM3.38149 5.11497L3.32451 5.16373L3.32451 5.16373L3.38149 5.11497ZM5.05443 3.03452C5.05543 3.0216 5.06731 3.01061 5.08181 3.01158L5.09186 2.86192C4.99643 2.85552 4.91233 2.92688 4.90488 3.02291L5.05443 3.03452ZM5.37518 3.61549C5.3102 3.54839 5.22454 3.45964 5.15715 3.3565C5.08947 3.25291 5.04598 3.14333 5.05443 3.03452L4.90488 3.02291C4.89276 3.17896 4.95556 3.3222 5.03157 3.43854C5.10788 3.55533 5.20331 3.65363 5.26741 3.71983L5.37518 3.61549ZM5.38793 3.62867L5.3752 3.61551L5.26739 3.71981L5.28012 3.73296L5.38793 3.62867ZM5.45385 3.69465C5.42802 3.66943 5.40769 3.64913 5.38797 3.62871L5.28007 3.73292C5.30113 3.75472 5.32256 3.77611 5.34905 3.80197L5.45385 3.69465ZM5.53193 3.77076C5.52331 3.76223 5.50361 3.74304 5.48635 3.72624C5.47766 3.71779 5.46949 3.70985 5.4635 3.70403C5.46051 3.70112 5.45805 3.69874 5.45635 3.69708C5.4555 3.69626 5.45483 3.69561 5.45438 3.69517C5.45415 3.69495 5.45398 3.69478 5.45387 3.69467C5.45381 3.69461 5.45376 3.69457 5.45373 3.69454C5.45372 3.69453 5.45371 3.69452 5.4537 3.69451C5.4537 3.69451 5.45369 3.6945 5.45369 3.6945C5.45369 3.6945 5.45369 3.6945 5.45369 3.6945C5.45369 3.6945 5.45527 3.80055 5.34922 3.80214L5.45368 3.69449C5.34763 3.69608 5.34921 3.80213 5.34921 3.80213C5.34921 3.80213 5.34921 3.80213 5.34921 3.80213C5.34921 3.80213 5.34922 3.80213 5.34922 3.80214C5.34923 3.80215 5.34924 3.80216 5.34925 3.80217C5.34928 3.8022 5.34932 3.80224 5.34938 3.8023C5.3495 3.80241 5.34967 3.80257 5.34989 3.80279C5.35034 3.80323 5.351 3.80387 5.35185 3.80469C5.35355 3.80634 5.35599 3.80872 5.35898 3.81162C5.36495 3.81742 5.37309 3.82533 5.38175 3.83376C5.39918 3.85072 5.41837 3.86942 5.42645 3.87741L5.53193 3.77076ZM5.71588 4.13824C5.68825 4.02015 5.66029 3.8977 5.53193 3.77076L5.42645 3.87741C5.52228 3.97217 5.5429 4.05736 5.56983 4.17242L5.71588 4.13824ZM5.72261 4.1668L5.71585 4.13813L5.56985 4.17253L5.57661 4.2012L5.72261 4.1668ZM5.76035 4.34374C5.74711 4.27858 5.73471 4.21748 5.72256 4.16658L5.57666 4.20142C5.58809 4.24931 5.59995 4.30764 5.61335 4.3736L5.76035 4.34374ZM5.76057 4.34486L5.76057 4.34485L5.61314 4.37249L5.61314 4.3725L5.76057 4.34486ZM5.76065 4.34527L5.76065 4.34527L5.61306 4.3721L5.61307 4.37211L5.76065 4.34527ZM5.75897 4.33809L5.75897 4.33809L5.61474 4.37929L5.61474 4.3793L5.75897 4.33809ZM6.0527 5.12668C5.98354 5.07588 5.92375 4.96253 5.8735 4.80898C5.82461 4.65958 5.79004 4.48989 5.76036 4.34376L5.61336 4.37362C5.64271 4.5181 5.67887 4.69652 5.73094 4.85563C5.78165 5.01059 5.85305 5.16615 5.96389 5.24757L6.0527 5.12668ZM6.33442 4.93806C6.33647 4.93534 6.3347 4.93807 6.32306 4.94743C6.31323 4.95533 6.29984 4.96522 6.2836 4.97644C6.2512 4.99884 6.20996 5.02486 6.16828 5.04863C6.1262 5.07262 6.08587 5.09308 6.05487 5.1054C6.03904 5.11168 6.02863 5.11464 6.02314 5.1156C6.02042 5.11609 6.02153 5.11559 6.02525 5.11587C6.0285 5.11612 6.0401 5.11743 6.0527 5.12668L5.96389 5.24757C5.982 5.26087 6.00118 5.26447 6.01381 5.26544C6.02691 5.26644 6.03922 5.26509 6.04922 5.26332C6.0692 5.25979 6.0904 5.25268 6.11024 5.2448C6.15059 5.22878 6.1978 5.20447 6.24259 5.17892C6.28777 5.15315 6.33271 5.12485 6.3689 5.09983C6.38696 5.08734 6.40348 5.07524 6.41704 5.06433C6.42881 5.05488 6.44393 5.04199 6.45425 5.02827L6.33442 4.93806ZM6.43365 4.85365C6.41505 4.86748 6.39575 4.88181 6.37966 4.89471C6.36547 4.90607 6.3467 4.92174 6.33442 4.93806L6.45425 5.02827C6.45314 5.02976 6.45363 5.02883 6.45782 5.02497C6.46157 5.02153 6.46672 5.01716 6.47344 5.01178C6.48698 5.00092 6.50388 4.98835 6.52314 4.97403L6.43365 4.85365ZM6.4334 4.85384L6.4334 4.85384L6.5234 4.97384L6.5234 4.97384L6.4334 4.85384ZM6.55564 4.84167C6.54386 4.83301 6.53326 4.81786 6.53126 4.79854C6.52962 4.78273 6.53466 4.77221 6.53562 4.77027C6.53718 4.76712 6.53589 4.77062 6.52426 4.7817C6.50301 4.80193 6.4697 4.82684 6.43365 4.85365L6.52315 4.97402C6.55656 4.94918 6.59835 4.91827 6.62768 4.89034C6.64135 4.87734 6.65923 4.85868 6.67007 4.83677C6.67567 4.82545 6.68287 4.8064 6.68046 4.78309C6.67768 4.75629 6.66336 4.73467 6.64445 4.72078L6.55564 4.84167ZM6.01236 3.85103C6.10528 4.09237 6.18886 4.3005 6.2735 4.46605C6.3575 4.63036 6.44691 4.76179 6.55564 4.84167L6.64445 4.72078C6.5647 4.6622 6.48827 4.55663 6.40706 4.39777C6.32647 4.24015 6.24544 4.03894 6.15234 3.79714L6.01236 3.85103ZM5.47067 3.39756C5.5794 3.45801 5.69356 3.52163 5.79296 3.59739C5.89231 3.67312 5.97112 3.75678 6.01361 3.8541L6.15108 3.79407C6.09425 3.66391 5.99336 3.56154 5.88388 3.47809C5.77445 3.39468 5.65066 3.32601 5.54356 3.26646L5.47067 3.39756ZM5.10392 3.03627C5.09671 3.12914 5.16264 3.198 5.22467 3.24635C5.29034 3.29753 5.38033 3.34734 5.47067 3.39756L5.54356 3.26646C5.44955 3.2142 5.37134 3.17049 5.31688 3.12804C5.2588 3.08278 5.25269 3.05792 5.25347 3.04788L5.10392 3.03627ZM5.08181 3.01158C5.09572 3.01252 5.10488 3.02397 5.10392 3.03627L5.25347 3.04788C5.26098 2.95122 5.18787 2.86837 5.09186 2.86192L5.08181 3.01158ZM8.02266 3.03739C8.03405 3.0312 8.04973 3.03517 8.05681 3.04787L8.1878 2.97478C8.1412 2.89126 8.03555 2.8596 7.95095 2.90565L8.02266 3.03739ZM7.71012 3.62281C7.73101 3.53178 7.75878 3.41159 7.80858 3.2989C7.85859 3.18572 7.92681 3.08957 8.02266 3.03739L7.95095 2.90565C7.81347 2.98048 7.72755 3.11116 7.67137 3.23827C7.61499 3.36588 7.58453 3.49945 7.56392 3.58926L7.71012 3.62281ZM7.70601 3.64068L7.71011 3.62284L7.56392 3.58923L7.55982 3.60707L7.70601 3.64068ZM7.68657 3.73191C7.69365 3.69651 7.69961 3.6684 7.70599 3.64075L7.55984 3.60701C7.55302 3.63654 7.54675 3.66617 7.53949 3.70247L7.68657 3.73191ZM7.66527 3.83884C7.66772 3.82697 7.67309 3.8 7.67778 3.77637C7.68014 3.76448 7.68234 3.75331 7.68396 3.74511C7.68477 3.74102 7.68543 3.73766 7.68589 3.73533C7.68612 3.73416 7.6863 3.73326 7.68643 3.73264C7.68649 3.73233 7.68653 3.73209 7.68656 3.73193C7.68658 3.73185 7.68659 3.73179 7.6866 3.73175C7.6866 3.73173 7.68661 3.73172 7.68661 3.73171C7.68661 3.7317 7.68661 3.7317 7.68661 3.73169C7.68661 3.73169 7.68661 3.73169 7.68661 3.73169C7.68661 3.73168 7.62756 3.64361 7.53946 3.70261L7.6866 3.73177C7.59849 3.79077 7.53944 3.70269 7.53944 3.70269C7.53944 3.70269 7.53944 3.70269 7.53944 3.70269C7.53944 3.70269 7.53944 3.7027 7.53944 3.7027C7.53944 3.70271 7.53943 3.70272 7.53943 3.70274C7.53942 3.70278 7.53941 3.70284 7.5394 3.70292C7.53937 3.70308 7.53932 3.70331 7.53926 3.70362C7.53914 3.70423 7.53896 3.70514 7.53873 3.7063C7.53827 3.70862 7.53761 3.71196 7.53681 3.71605C7.53519 3.72422 7.53299 3.73535 7.53064 3.7472C7.52591 3.77106 7.52068 3.79734 7.51837 3.80847L7.66527 3.83884ZM7.45725 4.19327C7.54125 4.10577 7.62872 4.01563 7.66527 3.83884L7.51837 3.80847C7.49109 3.94045 7.43088 4.00414 7.34905 4.08939L7.45725 4.19327ZM7.43697 4.21446L7.45733 4.19318L7.34897 4.08947L7.3286 4.11075L7.43697 4.21446ZM7.30914 4.34247C7.35658 4.29588 7.40106 4.25221 7.43712 4.2143L7.32845 4.11091C7.29451 4.14658 7.25206 4.18829 7.20403 4.23546L7.30914 4.34247ZM7.30855 4.34305L7.30857 4.34303L7.2046 4.2349L7.20459 4.23492L7.30855 4.34305ZM7.31262 4.33881L7.31262 4.33881L7.20051 4.23916L7.20051 4.23916L7.31262 4.33881ZM6.81173 5.01408C6.81667 4.92842 6.87917 4.81653 6.98058 4.69076C7.07925 4.56839 7.20274 4.44698 7.30912 4.3425L7.20401 4.23548C7.09883 4.33878 6.96889 4.46628 6.86381 4.59661C6.76147 4.72353 6.66989 4.86814 6.66198 5.00545L6.81173 5.01408ZM7.12336 5.14762C7.12675 5.14786 7.1235 5.14787 7.10931 5.1432C7.09733 5.13926 7.08175 5.13342 7.06349 5.12591C7.02705 5.11094 6.98277 5.09051 6.94014 5.06851C6.8971 5.04629 6.85797 5.02361 6.83076 5.00432C6.81687 4.99446 6.80872 4.98734 6.80492 4.98327C6.80303 4.98124 6.80406 4.98191 6.80585 4.98518C6.8074 4.98804 6.81263 4.99848 6.81173 5.01408L6.66198 5.00545C6.66068 5.02788 6.66811 5.04592 6.67418 5.05704C6.68047 5.06858 6.68831 5.07816 6.69524 5.08559C6.70907 5.10042 6.72659 5.11433 6.744 5.12668C6.77941 5.15179 6.82552 5.17815 6.87134 5.2018C6.91756 5.22565 6.96576 5.24792 7.00647 5.26465C7.02677 5.273 7.04592 5.28026 7.06245 5.28569C7.07679 5.29041 7.09584 5.29607 7.11296 5.29726L7.12336 5.14762ZM7.24819 5.18487C7.22646 5.17681 7.20394 5.16843 7.18435 5.16195C7.16709 5.15624 7.14373 5.14904 7.12336 5.14762L7.11296 5.29726C7.11111 5.29713 7.11216 5.29704 7.11768 5.29845C7.1226 5.29972 7.12908 5.30166 7.13725 5.30436C7.15373 5.30982 7.17348 5.31714 7.19598 5.32549L7.24819 5.18487ZM7.32468 5.28066C7.32553 5.26606 7.33246 5.24892 7.34757 5.23672C7.35994 5.22674 7.3715 5.22523 7.37366 5.22498C7.37715 5.22457 7.37351 5.2254 7.35789 5.22168C7.32934 5.21487 7.29031 5.20051 7.24819 5.18487L7.19598 5.32549C7.23501 5.33999 7.2837 5.35819 7.3231 5.36759C7.34144 5.37196 7.36683 5.3768 7.39111 5.37396C7.40365 5.37249 7.42356 5.36816 7.44179 5.35344C7.46276 5.33651 7.47308 5.31273 7.47444 5.28929L7.32468 5.28066ZM7.8596 4.28548C7.70781 4.49486 7.57878 4.67831 7.48603 4.83946C7.39399 4.9994 7.33245 5.14596 7.32468 5.28066L7.47444 5.28929C7.48013 5.19051 7.52704 5.06892 7.61604 4.91428C7.70434 4.76085 7.82896 4.58331 7.98105 4.37353L7.8596 4.28548ZM7.94489 3.58421C7.95341 3.70832 7.96223 3.83872 7.95283 3.96334C7.94343 4.0879 7.91619 4.19957 7.85772 4.28821L7.98293 4.37081C8.06114 4.25225 8.09205 4.11188 8.10241 3.97462C8.11276 3.83741 8.10293 3.69619 8.09454 3.57394L7.94489 3.58421ZM8.04815 3.07986C7.96634 3.12439 7.94449 3.21718 7.93773 3.29555C7.93057 3.37849 7.93781 3.48109 7.94489 3.58421L8.09454 3.57394C8.08717 3.46663 8.08124 3.37723 8.08717 3.30844C8.0935 3.23508 8.11102 3.21642 8.11986 3.2116L8.04815 3.07986ZM8.05681 3.04787C8.06361 3.06004 8.05899 3.07396 8.04815 3.07986L8.11986 3.2116C8.20502 3.16525 8.23469 3.05882 8.1878 2.97478L8.05681 3.04787ZM10.2068 4.91246C10.2297 4.8196 10.174 4.72439 10.0807 4.70037L10.0433 4.84563C10.0559 4.84886 10.0646 4.86246 10.0611 4.87658L10.2068 4.91246ZM9.99559 5.03933C10.0895 5.06351 10.1838 5.0059 10.2068 4.91246L10.0611 4.87658C10.0578 4.89012 10.0449 4.89714 10.033 4.89407L9.99559 5.03933ZM9.72996 5.28705C9.79775 5.20355 9.85438 5.13412 9.90564 5.08786C9.9603 5.03852 9.98584 5.03682 9.99559 5.03933L10.033 4.89407C9.94279 4.87084 9.86353 4.92381 9.80514 4.9765C9.74333 5.03228 9.67866 5.11226 9.61351 5.19251L9.72996 5.28705ZM9.10487 5.79373C9.24292 5.76036 9.36126 5.67878 9.46245 5.58546C9.56359 5.49217 9.65272 5.38218 9.72996 5.28705L9.61351 5.19251C9.53509 5.28909 9.45262 5.39047 9.36075 5.4752C9.26892 5.55989 9.17285 5.62298 9.06963 5.64792L9.10487 5.79373ZM8.10657 6.11868C8.17811 6.05031 8.29534 5.99338 8.4659 5.94098C8.63511 5.88899 8.84734 5.84414 9.10164 5.79443L9.07286 5.64722C8.81906 5.69682 8.59958 5.74299 8.42184 5.7976C8.24545 5.85179 8.10048 5.91702 8.00294 6.01023L8.10657 6.11868ZM7.87824 5.95524C7.8969 5.99246 7.92009 6.03898 7.94249 6.07272C7.95293 6.08844 7.9682 6.10929 7.98789 6.12377C7.99807 6.13125 8.01558 6.14165 8.03895 6.14332C8.06583 6.14524 8.0896 6.13489 8.10657 6.11868L8.00294 6.01023C8.01351 6.00013 8.03028 5.99232 8.04964 5.9937C8.0655 5.99484 8.07498 6.00162 8.07673 6.00291C8.07956 6.00499 8.07633 6.00312 8.06745 5.98974C8.05121 5.96529 8.03246 5.92817 8.01232 5.88801L7.87824 5.95524ZM7.83677 5.87798C7.83551 5.87662 7.83634 5.87726 7.83941 5.88206C7.84215 5.88635 7.84556 5.89219 7.84969 5.89973C7.85803 5.91496 7.86748 5.93379 7.87824 5.95524L8.01232 5.88801C8.00193 5.86729 7.99117 5.8458 7.98127 5.82771C7.97254 5.81176 7.96036 5.79055 7.94643 5.77563L7.83677 5.87798ZM7.70596 5.35699C7.68972 5.37251 7.68284 5.39077 7.6797 5.40304C7.67644 5.41577 7.67563 5.42812 7.67563 5.43828C7.67564 5.45857 7.67896 5.48068 7.68327 5.50159C7.69205 5.54411 7.70779 5.59483 7.72517 5.64337C7.7427 5.69234 7.76277 5.7415 7.78113 5.7815C7.79029 5.80145 7.79934 5.81982 7.80772 5.83507C7.81499 5.84829 7.82506 5.86543 7.83677 5.87798L7.94643 5.77563C7.94875 5.77812 7.94637 5.7759 7.93918 5.76282C7.9331 5.75176 7.92569 5.73686 7.91745 5.71892C7.90102 5.68312 7.88256 5.63798 7.86639 5.59281C7.85006 5.54721 7.83692 5.50394 7.83017 5.47127C7.82673 5.45459 7.82563 5.44382 7.82563 5.43825C7.82563 5.43548 7.82593 5.43667 7.825 5.44028C7.82419 5.44343 7.82089 5.45463 7.80959 5.46543L7.70596 5.35699ZM8.6275 5.16354C8.48012 5.16735 8.29814 5.17198 8.1324 5.19563C7.97099 5.21866 7.80539 5.26197 7.70596 5.35699L7.80959 5.46543C7.87163 5.40615 7.99365 5.36695 8.15359 5.34412C8.30921 5.32192 8.48233 5.31735 8.63138 5.31348L8.6275 5.16354ZM8.62742 5.16354L8.6274 5.16354L8.63149 5.31348L8.63151 5.31348L8.62742 5.16354ZM8.80346 5.1573C8.75431 5.16024 8.69482 5.16179 8.62753 5.16353L8.63141 5.31348C8.69788 5.31176 8.7602 5.31016 8.81243 5.30703L8.80346 5.1573ZM8.83309 5.15561L8.80368 5.15728L8.81221 5.30704L8.84161 5.30537L8.83309 5.15561ZM9.14863 5.06564C9.03867 5.14355 8.95119 5.14907 8.8332 5.1556L8.8415 5.30537C8.9626 5.29867 9.08805 5.2924 9.23535 5.18803L9.14863 5.06564ZM9.32336 5.1247C9.21911 5.10706 9.23611 5.00269 9.23614 5.00267C9.23615 5.00266 9.23616 5.00266 9.23616 5.00265C9.23616 5.00265 9.23616 5.00265 9.23616 5.00265C9.23615 5.00266 9.23614 5.00266 9.23613 5.00268C9.2361 5.0027 9.23605 5.00273 9.23598 5.00278C9.23586 5.00287 9.23566 5.00301 9.23541 5.0032C9.2349 5.00356 9.23415 5.0041 9.2332 5.00479C9.23128 5.00618 9.22852 5.00817 9.22514 5.01061C9.21839 5.01549 9.20918 5.02213 9.19938 5.02919C9.17965 5.04342 9.15791 5.05906 9.14863 5.06564L9.23535 5.18803C9.24524 5.18102 9.26756 5.16496 9.2871 5.15087C9.29694 5.14378 9.30617 5.13712 9.31294 5.13223C9.31633 5.12978 9.3191 5.12778 9.32103 5.12639C9.32199 5.1257 9.32274 5.12515 9.32325 5.12478C9.32351 5.1246 9.3237 5.12446 9.32383 5.12436C9.3239 5.12431 9.32395 5.12428 9.32399 5.12425C9.324 5.12424 9.32402 5.12423 9.32403 5.12422C9.32403 5.12422 9.32404 5.12421 9.32405 5.12421C9.32405 5.1242 9.32407 5.1242 9.32407 5.12419C9.3241 5.12417 9.34111 5.01979 9.23686 5.00216L9.32336 5.1247ZM9.31635 4.94657C9.29122 4.96352 9.26643 4.98092 9.23636 5.00251L9.32385 5.12435C9.35318 5.10329 9.3767 5.08679 9.40023 5.07093L9.31635 4.94657ZM9.33146 4.93636L9.31629 4.94661L9.40029 5.07089L9.41545 5.06064L9.33146 4.93636ZM10.0807 4.70037C9.92914 4.66134 9.77717 4.69831 9.6494 4.75296C9.52113 4.80783 9.40776 4.88475 9.33144 4.93638L9.41548 5.06062C9.49284 5.00829 9.59512 4.93933 9.70839 4.89088C9.82216 4.84221 9.93763 4.81841 10.0433 4.84563L10.0807 4.70037ZM3.28828 5.1975C3.27984 5.18765 3.28047 5.17148 3.29142 5.16191L3.19269 5.04898C3.12069 5.11193 3.11168 5.22186 3.17432 5.29503L3.28828 5.1975ZM3.92588 5.3815C3.83249 5.37999 3.70916 5.37781 3.58858 5.35253C3.46747 5.32714 3.35924 5.28041 3.28828 5.1975L3.17432 5.29503C3.27609 5.41395 3.42179 5.47082 3.5578 5.49934C3.69434 5.52797 3.83133 5.52999 3.92346 5.53148L3.92588 5.3815ZM3.94428 5.3818C3.9383 5.3817 3.93215 5.3816 3.92588 5.3815L3.92346 5.53148C3.92975 5.53158 3.9358 5.53168 3.94167 5.53178L3.94428 5.3818ZM4.03749 5.38185C4.00139 5.38228 3.97266 5.38229 3.94428 5.3818L3.94167 5.53178C3.97197 5.53231 4.00226 5.53228 4.03927 5.53184L4.03749 5.38185ZM4.14651 5.38045C4.13439 5.38052 4.10689 5.38087 4.08281 5.3812C4.07069 5.38137 4.0593 5.38153 4.05095 5.38165C4.04677 5.38171 4.04335 5.38176 4.04098 5.3818C4.03979 5.38181 4.03886 5.38183 4.03823 5.38184C4.03792 5.38184 4.03768 5.38184 4.03751 5.38185C4.03743 5.38185 4.03737 5.38185 4.03733 5.38185C4.03731 5.38185 4.03729 5.38185 4.03728 5.38185C4.03728 5.38185 4.03727 5.38185 4.03727 5.38185C4.03726 5.38185 4.03726 5.38185 4.03726 5.38185C4.03725 5.38185 3.96339 5.45787 4.03929 5.53184L4.03747 5.38185C4.11338 5.45582 4.03952 5.53183 4.03951 5.53183C4.03951 5.53183 4.03951 5.53183 4.03951 5.53183C4.03951 5.53183 4.03951 5.53183 4.03951 5.53183C4.03952 5.53183 4.03954 5.53183 4.03956 5.53183C4.0396 5.53183 4.03966 5.53183 4.03974 5.53183C4.0399 5.53183 4.04013 5.53182 4.04045 5.53182C4.04107 5.53181 4.04199 5.5318 4.04318 5.53178C4.04554 5.53174 4.04895 5.53169 4.05311 5.53163C4.06144 5.53151 4.07279 5.53135 4.08487 5.53119C4.10919 5.53085 4.13598 5.53051 4.14735 5.53045L4.14651 5.38045ZM4.53644 5.51023C4.4334 5.44626 4.32704 5.37944 4.14651 5.38045L4.14735 5.53045C4.28211 5.5297 4.35694 5.57535 4.45733 5.63767L4.53644 5.51023ZM4.5612 5.52555C4.55292 5.52046 4.54473 5.51537 4.53644 5.51023L4.45733 5.63767C4.46557 5.64278 4.47405 5.64805 4.48267 5.65334L4.5612 5.52555ZM4.71321 5.6241C4.65777 5.58738 4.60579 5.55294 4.5612 5.52555L4.48267 5.65334C4.52462 5.67912 4.57426 5.71198 4.63038 5.74916L4.71321 5.6241ZM5.47354 5.97099C5.38871 5.98397 5.26628 5.9461 5.12217 5.87305C4.98196 5.80198 4.83753 5.70643 4.71321 5.6241L4.63038 5.74916C4.7533 5.83056 4.90503 5.93116 5.05435 6.00685C5.19978 6.08056 5.36028 6.14007 5.49623 6.11927L5.47354 5.97099ZM5.53937 5.63841C5.53889 5.63504 5.53958 5.63822 5.53796 5.65306C5.5366 5.66561 5.53412 5.68206 5.53058 5.70148C5.52351 5.74023 5.51273 5.78779 5.50007 5.83407C5.48729 5.88079 5.47324 5.92378 5.46003 5.9544C5.45328 5.97004 5.448 5.9795 5.44481 5.98406C5.44322 5.98632 5.44366 5.98518 5.44649 5.98275C5.44896 5.98064 5.45809 5.97336 5.47354 5.97099L5.49623 6.11927C5.51843 6.11587 5.53454 6.10485 5.54415 6.0966C5.55413 6.08805 5.56187 6.07839 5.5677 6.07007C5.57933 6.05345 5.5893 6.03343 5.59775 6.01383C5.61495 5.97397 5.63115 5.92339 5.64475 5.87366C5.65848 5.82349 5.67024 5.7717 5.67814 5.72841C5.68208 5.70682 5.6852 5.68657 5.68708 5.66927C5.68871 5.65427 5.69029 5.63446 5.6879 5.61746L5.53937 5.63841ZM5.54985 5.50855C5.54647 5.53149 5.54297 5.55526 5.5407 5.57577C5.53871 5.59384 5.53651 5.61819 5.53937 5.63841L5.6879 5.61746C5.68816 5.6193 5.68784 5.6183 5.68808 5.6126C5.6883 5.60752 5.68885 5.60079 5.6898 5.59223C5.6917 5.57498 5.69476 5.55413 5.69825 5.53039L5.54985 5.50855ZM5.62764 5.41382C5.61319 5.41603 5.59497 5.41281 5.5799 5.40057C5.56757 5.39055 5.56369 5.37955 5.56299 5.37749C5.56187 5.37417 5.56344 5.37755 5.56304 5.3936C5.56232 5.42294 5.55639 5.4641 5.54985 5.50856L5.69825 5.53039C5.70431 5.4892 5.712 5.43779 5.713 5.3973C5.71346 5.37844 5.71292 5.3526 5.70509 5.32945C5.70104 5.31748 5.69267 5.29892 5.67448 5.28414C5.65356 5.26715 5.62815 5.26199 5.60495 5.26554L5.62764 5.41382ZM4.54299 5.0975C4.77935 5.20244 4.98562 5.29051 5.16253 5.34773C5.33811 5.40451 5.49427 5.43423 5.62764 5.41382L5.60495 5.26554C5.50714 5.28051 5.37845 5.25991 5.20869 5.205C5.04025 5.15053 4.84068 5.06555 4.60386 4.9604L4.54299 5.0975ZM3.83931 5.15988C3.95894 5.12574 4.08465 5.09 4.2085 5.07329C4.3323 5.05658 4.44719 5.06001 4.54605 5.09877L4.60081 4.95913C4.46858 4.90728 4.32485 4.90622 4.18844 4.92463C4.05208 4.94304 3.91598 4.98201 3.79815 5.01563L3.83931 5.15988ZM3.32451 5.16373C3.38508 5.2345 3.48039 5.23658 3.55845 5.2269C3.64107 5.21666 3.73992 5.18824 3.83931 5.15988L3.79815 5.01563C3.69472 5.04515 3.60851 5.06955 3.53999 5.07804C3.46691 5.0871 3.44501 5.07385 3.43847 5.0662L3.32451 5.16373ZM3.29142 5.16191C3.30192 5.15274 3.31649 5.15436 3.32451 5.16373L3.43847 5.0662C3.37542 4.99254 3.26514 4.98564 3.19269 5.04898L3.29142 5.16191Z" fill="#984111"/>
<path fill-rule="evenodd" clip-rule="evenodd" d="M5.06669 9.4341C5.01173 9.43779 4.96374 9.39661 4.95951 9.34213C4.93895 9.07727 5.17208 8.83649 5.30115 8.70319L5.31388 8.69004C5.33426 8.66893 5.35515 8.64808 5.38131 8.62254L5.38131 8.62253C5.38183 8.62203 5.44242 8.56321 5.45905 8.54676C5.57114 8.43592 5.59543 8.33209 5.62271 8.21552L5.62947 8.18685C5.64126 8.13745 5.65339 8.07774 5.66671 8.01218L5.66671 8.01217L5.66671 8.01216C5.72575 7.72156 5.80816 7.31595 5.98815 7.18372C6.03224 7.15134 6.34109 7.34372 6.37419 7.38768C6.38587 7.40319 6.42039 7.42886 6.45825 7.45701L6.45825 7.45701L6.45826 7.45701C6.52772 7.50866 6.60844 7.56867 6.5799 7.58963C6.39142 7.72808 6.24824 8.06363 6.06221 8.54676C5.96288 8.77424 5.7028 8.91884 5.48697 9.03883C5.30262 9.14133 5.15057 9.22587 5.15856 9.32877C5.16279 9.38325 5.12166 9.43041 5.06669 9.4341ZM8.10217 9.35953C8.07532 9.40763 8.01466 9.42545 7.96666 9.39933C7.73333 9.27232 7.65837 8.94566 7.61687 8.76481L7.61277 8.74697C7.60617 8.71838 7.60006 8.68951 7.59289 8.65366C7.59289 8.65368 7.57644 8.5702 7.57168 8.54719C7.53976 8.39281 7.46592 8.31589 7.38301 8.22952L7.36264 8.20824C7.32756 8.17137 7.28344 8.12805 7.2348 8.08031C7.01983 7.86928 6.71671 7.57173 6.71671 7.36108C6.71671 7.2654 7.04312 7.15222 7.09802 7.14841C7.11738 7.14706 7.15771 7.13209 7.20194 7.11567C7.2831 7.08553 7.37738 7.05053 7.37942 7.08587C7.39288 7.31935 7.59631 7.62219 7.90018 8.04134C8.03687 8.24854 8.01649 8.54541 7.99957 8.79177C7.98513 9.0022 7.97321 9.17578 8.06387 9.22512C8.11186 9.25124 8.12901 9.31142 8.10217 9.35953ZM10.0419 7.59785C10.0948 7.58423 10.127 7.52982 10.1138 7.47633C10.1007 7.42284 10.0471 7.39053 9.99415 7.40415C9.8942 7.42989 9.78454 7.29482 9.65159 7.13107C9.49594 6.93936 9.30838 6.70834 9.06711 6.65002C8.55901 6.55072 8.2037 6.46797 8.03462 6.3064C8.00902 6.28194 7.96394 6.37184 7.92514 6.44922C7.90399 6.4914 7.88471 6.52986 7.87146 6.54405C7.83391 6.58428 7.69809 6.92185 7.73763 6.95964C7.8991 7.11394 8.31286 7.12466 8.6093 7.13234C8.67619 7.13407 8.73711 7.13565 8.7878 7.13869L8.81721 7.14036C8.93675 7.14698 9.04321 7.15288 9.17184 7.24402C9.19102 7.2576 9.25998 7.30743 9.25996 7.30742C9.28966 7.32875 9.31382 7.34569 9.33815 7.3621L9.35332 7.37235C9.50701 7.47631 9.78461 7.6641 10.0419 7.59785ZM3.22191 7.2654C3.18044 7.22915 3.17562 7.1661 3.21115 7.12458C3.3839 6.92276 3.719 6.91736 3.90453 6.91436C3.91081 6.91426 3.91691 6.91416 3.92283 6.91406C3.95217 6.91355 3.98168 6.91357 4.01824 6.91401C4.01822 6.91401 4.1033 6.91527 4.12679 6.9154C4.28443 6.91628 4.37503 6.86004 4.47675 6.7969C4.48501 6.79177 4.49334 6.7866 4.50179 6.7814C4.54506 6.75482 4.59587 6.72117 4.65165 6.68422C4.89889 6.52048 5.24397 6.29194 5.46474 6.32572C5.51881 6.33399 5.60117 6.68842 5.59349 6.74291C5.59078 6.76214 5.59704 6.8047 5.60391 6.85138C5.61651 6.93702 5.63115 7.03652 5.59615 7.03117C5.36497 6.99579 5.02646 7.13181 4.55329 7.3419C4.3222 7.43252 4.03605 7.35086 3.79859 7.28309C3.59576 7.22521 3.42846 7.17747 3.36135 7.25588C3.32581 7.2974 3.26339 7.30166 3.22191 7.2654Z" fill="#FFC125"/>
<path d="M4.95951 9.34213L4.88474 9.34794V9.34794L4.95951 9.34213ZM5.06669 9.4341L5.06167 9.35926L5.06669 9.4341ZM5.30115 8.70319L5.35506 8.75534L5.35503 8.75536L5.30115 8.70319ZM5.31388 8.69004L5.36783 8.74214L5.36778 8.74218L5.31388 8.69004ZM5.38131 8.62254L5.32888 8.56885L5.33063 8.56725L5.38131 8.62254ZM5.38131 8.62253L5.43358 8.67636L5.43199 8.67782L5.38131 8.62253ZM5.45905 8.54676L5.40631 8.49344L5.40631 8.49344L5.45905 8.54676ZM5.62271 8.21552L5.54968 8.19843L5.54971 8.19832L5.62271 8.21552ZM5.62947 8.18685L5.55646 8.16965L5.55652 8.16943L5.62947 8.18685ZM5.66671 8.01218L5.74043 8.026L5.74021 8.02711L5.66671 8.01218ZM5.66671 8.01217L5.7405 8.02558L5.74043 8.02599L5.66671 8.01217ZM5.66671 8.01216L5.59291 7.99874L5.59322 7.99723L5.66671 8.01216ZM5.98815 7.18372L5.94375 7.12328L5.94375 7.12328L5.98815 7.18372ZM6.37419 7.38768L6.31428 7.43279H6.31428L6.37419 7.38768ZM6.45825 7.45701L6.41522 7.51848L6.4135 7.5172L6.45825 7.45701ZM6.45825 7.45701L6.50129 7.39553L6.50325 7.39701L6.45825 7.45701ZM6.45826 7.45701L6.41351 7.5172L6.41326 7.51701L6.45826 7.45701ZM6.5799 7.58963L6.6243 7.65007L6.5799 7.58963ZM6.06221 8.54676L6.13226 8.57374L6.13094 8.57678L6.06221 8.54676ZM5.48697 9.03883L5.45053 8.97328L5.48697 9.03883ZM5.15856 9.32877L5.23333 9.32297V9.32297L5.15856 9.32877ZM7.96666 9.39933L8.00252 9.33346L8.00252 9.33346L7.96666 9.39933ZM8.10217 9.35953L8.16766 9.39607L8.10217 9.35953ZM7.61687 8.76481L7.68997 8.74801L7.68997 8.74804L7.61687 8.76481ZM7.61277 8.74697L7.68585 8.7301L7.68587 8.73017L7.61277 8.74697ZM7.59289 8.65366L7.51932 8.66824L7.66643 8.63894L7.59289 8.65366ZM7.57168 8.54719L7.64513 8.53201V8.53201L7.57168 8.54719ZM7.38301 8.22952L7.3289 8.28146L7.32882 8.28138L7.38301 8.22952ZM7.36264 8.20824L7.30846 8.2601L7.3083 8.25994L7.36264 8.20824ZM7.2348 8.08031L7.18226 8.13383L7.18226 8.13383L7.2348 8.08031ZM7.09802 7.14841L7.10322 7.22323L7.09802 7.14841ZM7.20194 7.11567L7.22805 7.18598L7.20194 7.11567ZM7.37942 7.08587L7.45429 7.08155V7.08156L7.37942 7.08587ZM7.90018 8.04134L7.96096 7.99728L7.96279 8.00004L7.90018 8.04134ZM7.99957 8.79177L7.92475 8.78664V8.78664L7.99957 8.79177ZM8.06387 9.22512L8.09972 9.15925L8.09972 9.15925L8.06387 9.22512ZM10.1138 7.47633L10.041 7.49427L10.1138 7.47633ZM10.0419 7.59785L10.0232 7.52522H10.0232L10.0419 7.59785ZM9.99415 7.40415L9.97545 7.33152L9.97545 7.33152L9.99415 7.40415ZM9.65159 7.13107L9.70982 7.0838L9.65159 7.13107ZM9.06711 6.65002L9.08151 6.57635L9.08473 6.57712L9.06711 6.65002ZM8.03462 6.3064L8.08643 6.25217L8.03462 6.3064ZM7.92514 6.44922L7.99218 6.48284V6.48284L7.92514 6.44922ZM7.87146 6.54405L7.81663 6.49287L7.81663 6.49287L7.87146 6.54405ZM7.73763 6.95964L7.78945 6.90542L7.73763 6.95964ZM8.6093 7.13234L8.60736 7.20731L8.6093 7.13234ZM8.7878 7.13869L8.78354 7.21357L8.78332 7.21355L8.7878 7.13869ZM8.81721 7.14036L8.81306 7.21525L8.81295 7.21524L8.81721 7.14036ZM9.17184 7.24402L9.21521 7.18282L9.21521 7.18282L9.17184 7.24402ZM9.25996 7.30742L9.21622 7.36834L9.30322 7.24615L9.25996 7.30742ZM9.33815 7.3621L9.38009 7.29992L9.38014 7.29996L9.33815 7.3621ZM9.35332 7.37235L9.39531 7.31021L9.39534 7.31023L9.35332 7.37235ZM3.21115 7.12458L3.15418 7.07582L3.15418 7.07582L3.21115 7.12458ZM3.22191 7.2654L3.27128 7.20894L3.22191 7.2654ZM3.90453 6.91436L3.90574 6.98935H3.90574L3.90453 6.91436ZM3.92283 6.91406L3.92153 6.83907H3.92153L3.92283 6.91406ZM4.01824 6.91401L4.01915 6.83901L4.01735 6.989L4.01824 6.91401ZM4.12679 6.9154L4.12721 6.8404H4.12721L4.12679 6.9154ZM4.47675 6.7969L4.5163 6.86062L4.5163 6.86062L4.47675 6.7969ZM4.50179 6.7814L4.46253 6.71751H4.46253L4.50179 6.7814ZM4.65165 6.68422L4.61024 6.62169L4.65165 6.68422ZM5.46474 6.32572L5.47608 6.25158L5.46474 6.32572ZM5.59349 6.74291L5.51922 6.73244V6.73244L5.59349 6.74291ZM5.60391 6.85138L5.67811 6.84046V6.84046L5.60391 6.85138ZM5.59615 7.03117L5.6075 6.95703L5.59615 7.03117ZM4.55329 7.3419L4.58375 7.41051L4.58067 7.41172L4.55329 7.3419ZM3.79859 7.28309L3.77801 7.35521L3.79859 7.28309ZM3.36135 7.25588L3.30437 7.20712L3.30437 7.20712L3.36135 7.25588ZM5.03429 9.33633C5.03529 9.34925 5.04716 9.36024 5.06167 9.35926L5.07171 9.50893C4.97629 9.51533 4.89219 9.44397 4.88474 9.34794L5.03429 9.33633ZM5.35503 8.75536C5.29006 8.82246 5.20439 8.91121 5.13701 9.01435C5.06932 9.11794 5.02584 9.22752 5.03429 9.33633L4.88474 9.34794C4.87262 9.19189 4.93542 9.04865 5.01143 8.93231C5.08774 8.81552 5.18317 8.71722 5.24727 8.65102L5.35503 8.75536ZM5.36778 8.74218L5.35506 8.75534L5.24725 8.65104L5.25998 8.63789L5.36778 8.74218ZM5.43371 8.6762C5.40787 8.70142 5.38754 8.72172 5.36783 8.74214L5.25993 8.63793C5.28099 8.61613 5.30242 8.59474 5.32891 8.56888L5.43371 8.6762ZM5.43199 8.67782L5.43199 8.67782L5.33063 8.56725L5.33063 8.56725L5.43199 8.67782ZM5.51179 8.60009C5.5032 8.60858 5.48364 8.62764 5.46644 8.64438C5.45778 8.65281 5.44962 8.66074 5.4436 8.66659C5.44059 8.66951 5.43811 8.67192 5.43637 8.67361C5.4355 8.67446 5.43481 8.67512 5.43433 8.67559C5.43409 8.67582 5.43391 8.676 5.43378 8.67613C5.43371 8.67619 5.43366 8.67624 5.43362 8.67628C5.4336 8.67629 5.43359 8.67631 5.43358 8.67632C5.43357 8.67633 5.43356 8.67633 5.43356 8.67633L5.32906 8.56873C5.32978 8.56803 5.39 8.50957 5.40631 8.49344L5.51179 8.60009ZM5.69574 8.2326C5.66811 8.3507 5.64015 8.47315 5.51179 8.60009L5.40631 8.49344C5.50213 8.39868 5.52276 8.31349 5.54968 8.19843L5.69574 8.2326ZM5.70247 8.20405L5.69571 8.23272L5.54971 8.19832L5.55646 8.16965L5.70247 8.20405ZM5.74021 8.02711C5.72697 8.09227 5.71457 8.15337 5.70242 8.20426L5.55652 8.16943C5.56795 8.12154 5.57981 8.06321 5.59321 7.99725L5.74021 8.02711ZM5.74043 8.02599L5.74043 8.026L5.593 7.99836L5.593 7.99835L5.74043 8.02599ZM5.7405 8.02558L5.7405 8.02558L5.59292 7.99875L5.59292 7.99874L5.7405 8.02558ZM6.03255 7.24417C5.9634 7.29497 5.9036 7.40832 5.85335 7.56188C5.80446 7.71128 5.7699 7.88097 5.74021 8.02709L5.59322 7.99723C5.62257 7.85275 5.65872 7.67433 5.71079 7.51522C5.7615 7.36026 5.83291 7.2047 5.94375 7.12328L6.03255 7.24417ZM6.31428 7.43279C6.31632 7.43551 6.31456 7.43278 6.30292 7.42342C6.29308 7.41552 6.2797 7.40563 6.26346 7.39441C6.23106 7.37201 6.18981 7.34599 6.14813 7.32222C6.10606 7.29823 6.06573 7.27777 6.03473 7.26545C6.0189 7.25916 6.00848 7.25621 6.003 7.25525C6.00028 7.25476 6.00139 7.25526 6.00511 7.25498C6.00836 7.25473 6.01996 7.25342 6.03255 7.24417L5.94375 7.12328C5.96186 7.10998 5.98104 7.10638 5.99367 7.10541C6.00677 7.10441 6.01908 7.10576 6.02908 7.10753C6.04905 7.11106 6.07026 7.11817 6.0901 7.12605C6.13044 7.14207 6.17766 7.16638 6.22245 7.19193C6.26763 7.2177 6.31256 7.246 6.34876 7.27102C6.36682 7.28351 6.38334 7.29561 6.3969 7.30652C6.40866 7.31597 6.42379 7.32886 6.43411 7.34258L6.31428 7.43279ZM6.4135 7.5172C6.3949 7.50337 6.37561 7.48904 6.35951 7.47614C6.34533 7.46478 6.32656 7.44911 6.31428 7.43279L6.43411 7.34258C6.43299 7.34109 6.43348 7.34202 6.43768 7.34588C6.44142 7.34932 6.44658 7.35369 6.45329 7.35907C6.46684 7.36992 6.48374 7.3825 6.503 7.39682L6.4135 7.5172ZM6.41524 7.51845L6.41524 7.51845L6.50126 7.39557L6.50126 7.39557L6.41524 7.51845ZM6.41326 7.51701L6.41325 7.51701L6.50325 7.39701L6.50326 7.39701L6.41326 7.51701ZM6.5355 7.52918C6.52372 7.53784 6.51312 7.55299 6.51112 7.57231C6.50948 7.58812 6.51452 7.59864 6.51548 7.60058C6.51703 7.60373 6.51575 7.60022 6.50412 7.58915C6.48286 7.56892 6.44956 7.54401 6.41351 7.5172L6.50301 7.39683C6.53642 7.42167 6.57821 7.45258 6.60754 7.48051C6.6212 7.49351 6.63909 7.51217 6.64993 7.53408C6.65553 7.5454 6.66273 7.56445 6.66032 7.58776C6.65754 7.61456 6.64322 7.63618 6.6243 7.65007L6.5355 7.52918ZM5.99221 8.51981C6.08514 8.27848 6.16872 8.07035 6.25336 7.9048C6.33736 7.74049 6.42677 7.60906 6.5355 7.52918L6.6243 7.65007C6.54456 7.70865 6.46813 7.81422 6.38691 7.97308C6.30633 8.1307 6.2253 8.33191 6.1322 8.57371L5.99221 8.51981ZM5.45053 8.97328C5.55926 8.91283 5.67342 8.84922 5.77281 8.77346C5.87217 8.69773 5.95098 8.61407 5.99347 8.51675L6.13094 8.57678C6.07411 8.70694 5.97322 8.80931 5.86374 8.89276C5.75431 8.97616 5.63052 9.04484 5.52342 9.10439L5.45053 8.97328ZM5.08378 9.33458C5.07657 9.24171 5.1425 9.17285 5.20453 9.12449C5.2702 9.07332 5.36019 9.02351 5.45053 8.97328L5.52342 9.10439C5.42941 9.15665 5.3512 9.20036 5.29674 9.24281C5.23866 9.28807 5.23255 9.31293 5.23333 9.32297L5.08378 9.33458ZM5.06167 9.35926C5.07558 9.35833 5.08474 9.34688 5.08378 9.33458L5.23333 9.32297C5.24084 9.41963 5.16773 9.50248 5.07171 9.50893L5.06167 9.35926ZM8.00252 9.33346C8.01391 9.33965 8.02959 9.33568 8.03667 9.32298L8.16766 9.39607C8.12106 9.47959 8.01541 9.51125 7.93081 9.4652L8.00252 9.33346ZM7.68997 8.74804C7.71086 8.83907 7.73864 8.95926 7.78843 9.07195C7.83845 9.18513 7.90666 9.28128 8.00252 9.33346L7.93081 9.4652C7.79333 9.39037 7.7074 9.25969 7.65123 9.13258C7.59484 9.00497 7.56438 8.8714 7.54377 8.78159L7.68997 8.74804ZM7.68587 8.73017L7.68997 8.74801L7.54378 8.78162L7.53968 8.76378L7.68587 8.73017ZM7.66643 8.63894C7.67351 8.67434 7.67947 8.70245 7.68585 8.7301L7.53969 8.76384C7.53288 8.73431 7.52661 8.70468 7.51934 8.66838L7.66643 8.63894ZM7.64513 8.53201C7.64758 8.54388 7.65295 8.57085 7.65764 8.59448C7.65999 8.60637 7.6622 8.61754 7.66382 8.62574C7.66463 8.62983 7.66529 8.63319 7.66575 8.63552C7.66598 8.63669 7.66616 8.63759 7.66628 8.63821C7.66634 8.63852 7.66639 8.63876 7.66642 8.63892C7.66644 8.639 7.66645 8.63906 7.66646 8.6391C7.66646 8.63912 7.66646 8.63913 7.66647 8.63914C7.66647 8.63915 7.66647 8.63915 7.66647 8.63916C7.66647 8.63916 7.66647 8.63916 7.66647 8.63916C7.66647 8.63917 7.60742 8.72724 7.51932 8.66824L7.66645 8.63908C7.57835 8.58008 7.5193 8.66816 7.5193 8.66816C7.5193 8.66816 7.5193 8.66816 7.5193 8.66816C7.5193 8.66816 7.5193 8.66815 7.5193 8.66815C7.5193 8.66814 7.51929 8.66812 7.51929 8.66811C7.51928 8.66807 7.51927 8.66801 7.51925 8.66793C7.51922 8.66777 7.51918 8.66754 7.51912 8.66723C7.519 8.66662 7.51882 8.66571 7.51859 8.66455C7.51813 8.66223 7.51747 8.65889 7.51666 8.6548C7.51505 8.64663 7.51285 8.6355 7.5105 8.62365C7.50577 8.59979 7.50053 8.57351 7.49823 8.56238L7.64513 8.53201ZM7.43711 8.17758C7.52111 8.26508 7.60858 8.35522 7.64513 8.53201L7.49823 8.56238C7.47095 8.4304 7.41074 8.36671 7.3289 8.28146L7.43711 8.17758ZM7.41683 8.15639L7.43719 8.17767L7.32882 8.28138L7.30846 8.2601L7.41683 8.15639ZM7.28734 8.02679C7.33567 8.07423 7.38083 8.11854 7.41698 8.15655L7.3083 8.25994C7.2743 8.22419 7.2312 8.18187 7.18226 8.13383L7.28734 8.02679ZM6.79171 7.36108C6.79171 7.39672 6.80488 7.44238 6.8339 7.49792C6.86254 7.55272 6.90385 7.61198 6.95349 7.67343C7.05293 7.79656 7.17923 7.92066 7.28734 8.02679L7.18226 8.13383C7.0754 8.02893 6.94265 7.89874 6.83679 7.76768C6.78377 7.70203 6.73588 7.63422 6.70096 7.56739C6.66642 7.50129 6.64171 7.43077 6.64171 7.36108H6.79171ZM7.10322 7.22323C7.10364 7.2232 7.09815 7.22386 7.08455 7.22735C7.07235 7.23049 7.05674 7.23509 7.03877 7.24102C7.0028 7.25289 6.95951 7.26937 6.91814 7.28842C6.87611 7.30777 6.8393 7.3283 6.81421 7.34754C6.80164 7.35718 6.79458 7.36457 6.79122 7.36912C6.78769 7.37391 6.79171 7.37076 6.79171 7.36108H6.64171C6.64171 7.32749 6.65592 7.29987 6.67046 7.28014C6.68517 7.26018 6.70404 7.243 6.72293 7.22851C6.76075 7.1995 6.80897 7.17355 6.85541 7.15217C6.9025 7.13049 6.95111 7.11198 6.99178 7.09857C7.02923 7.08621 7.0684 7.07528 7.09282 7.07359L7.10322 7.22323ZM7.22805 7.18598C7.20632 7.19404 7.18379 7.20242 7.16421 7.2089C7.14695 7.21461 7.12358 7.22181 7.10322 7.22323L7.09282 7.07359C7.09097 7.07372 7.09202 7.07381 7.09753 7.0724C7.10246 7.07113 7.10894 7.06919 7.1171 7.06649C7.13358 7.06103 7.15334 7.05371 7.17584 7.04536L7.22805 7.18598ZM7.30454 7.09019C7.30538 7.10479 7.31232 7.12193 7.32743 7.13413C7.3398 7.14411 7.35136 7.14562 7.35351 7.14587C7.357 7.14628 7.35337 7.14545 7.33775 7.14917C7.3092 7.15598 7.27017 7.17034 7.22805 7.18598L7.17584 7.04536C7.21487 7.03086 7.26356 7.01265 7.30295 7.00326C7.3213 6.99889 7.34669 6.99404 7.37097 6.99689C7.38351 6.99836 7.40341 7.00269 7.42165 7.01741C7.44262 7.03434 7.45294 7.05812 7.45429 7.08155L7.30454 7.09019ZM7.83946 8.08536C7.68767 7.87599 7.55864 7.69254 7.46589 7.53139C7.37384 7.37145 7.31231 7.22489 7.30454 7.09019L7.45429 7.08156C7.45999 7.18034 7.5069 7.30193 7.5959 7.45657C7.6842 7.61 7.80882 7.78754 7.9609 7.99732L7.83946 8.08536ZM7.92475 8.78664C7.93327 8.66253 7.94209 8.53213 7.93269 8.40751C7.92329 8.28295 7.89605 8.17128 7.83758 8.08264L7.96279 8.00004C8.041 8.1186 8.07191 8.25897 8.08226 8.39623C8.09261 8.53344 8.08279 8.67466 8.0744 8.79691L7.92475 8.78664ZM8.02801 9.29099C7.9462 9.24646 7.92435 9.15367 7.91759 9.0753C7.91043 8.99236 7.91767 8.88976 7.92475 8.78664L8.0744 8.79691C8.06703 8.90422 8.06109 8.99362 8.06703 9.06241C8.07336 9.13577 8.09088 9.15443 8.09972 9.15925L8.02801 9.29099ZM8.03667 9.32298C8.04347 9.31081 8.03884 9.29689 8.02801 9.29099L8.09972 9.15925C8.18488 9.2056 8.21455 9.31203 8.16766 9.39607L8.03667 9.32298ZM10.1867 7.45839C10.2095 7.55125 10.1539 7.64646 10.0606 7.67048L10.0232 7.52522C10.0357 7.52199 10.0445 7.50839 10.041 7.49427L10.1867 7.45839ZM9.97545 7.33152C10.0693 7.30734 10.1636 7.36495 10.1867 7.45839L10.041 7.49427C10.0377 7.48073 10.0248 7.47371 10.0129 7.47678L9.97545 7.33152ZM9.70982 7.0838C9.77761 7.1673 9.83424 7.23673 9.8855 7.28299C9.94016 7.33233 9.9657 7.33403 9.97545 7.33152L10.0129 7.47678C9.92265 7.50001 9.84338 7.44704 9.78499 7.39435C9.72319 7.33857 9.65852 7.25859 9.59337 7.17834L9.70982 7.0838ZM9.08473 6.57712C9.22278 6.61049 9.34112 6.69207 9.44231 6.78539C9.54345 6.87868 9.63258 6.98867 9.70982 7.0838L9.59337 7.17834C9.51495 7.08176 9.43248 6.98038 9.34061 6.89565C9.24878 6.81096 9.1527 6.74787 9.04949 6.72293L9.08473 6.57712ZM8.08643 6.25217C8.15797 6.32054 8.2752 6.37747 8.44575 6.42987C8.61497 6.48186 8.82719 6.52671 9.08149 6.57642L9.05272 6.72363C8.79892 6.67403 8.57944 6.62786 8.4017 6.57325C8.22531 6.51906 8.08034 6.45383 7.9828 6.36062L8.08643 6.25217ZM7.85809 6.41561C7.87676 6.37839 7.89995 6.33187 7.92235 6.29813C7.93279 6.28241 7.94805 6.26156 7.96775 6.24708C7.97793 6.2396 7.99544 6.2292 8.01881 6.22753C8.04569 6.22561 8.06946 6.23596 8.08643 6.25217L7.9828 6.36062C7.99337 6.37072 8.01013 6.37853 8.0295 6.37715C8.04536 6.37601 8.05484 6.36923 8.05659 6.36794C8.05942 6.36586 8.05619 6.36773 8.04731 6.38111C8.03107 6.40556 8.01232 6.44268 7.99218 6.48284L7.85809 6.41561ZM7.81663 6.49287C7.81536 6.49423 7.8162 6.49359 7.81927 6.48878C7.82201 6.4845 7.82542 6.47866 7.82955 6.47112C7.83788 6.45589 7.84734 6.43706 7.85809 6.41561L7.99218 6.48284C7.98179 6.50356 7.97103 6.52505 7.96112 6.54314C7.95239 6.55909 7.94022 6.5803 7.92629 6.59522L7.81663 6.49287ZM7.68582 7.01386C7.66958 6.99834 7.6627 6.98008 7.65956 6.96781C7.65629 6.95508 7.65549 6.94273 7.65549 6.93257C7.65549 6.91228 7.65881 6.89017 7.66313 6.86926C7.6719 6.82674 7.68765 6.77602 7.70503 6.72748C7.72256 6.67851 7.74263 6.62934 7.76099 6.58935C7.77015 6.5694 7.7792 6.55103 7.78758 6.53578C7.79485 6.52255 7.80492 6.50542 7.81663 6.49287L7.92629 6.59522C7.92861 6.59273 7.92622 6.59495 7.91903 6.60803C7.91296 6.61909 7.90555 6.63399 7.89731 6.65193C7.88088 6.68773 7.86242 6.73287 7.84625 6.77804C7.82992 6.82364 7.81678 6.86691 7.81003 6.89958C7.80659 6.91626 7.80549 6.92703 7.80549 6.9326C7.80549 6.93537 7.80579 6.93418 7.80486 6.93057C7.80405 6.92742 7.80075 6.91622 7.78945 6.90542L7.68582 7.01386ZM8.60736 7.20731C8.45998 7.2035 8.278 7.19887 8.11226 7.17522C7.95085 7.15219 7.78525 7.10888 7.68582 7.01386L7.78945 6.90542C7.85149 6.9647 7.9735 7.0039 8.13345 7.02673C8.28907 7.04893 8.46218 7.0535 8.61124 7.05736L8.60736 7.20731ZM8.78332 7.21355C8.73416 7.21061 8.67466 7.20906 8.60736 7.20731L8.61124 7.05736C8.67772 7.05909 8.74005 7.06069 8.79229 7.06382L8.78332 7.21355ZM8.81295 7.21524L8.78354 7.21357L8.79206 7.06381L8.82147 7.06548L8.81295 7.21524ZM9.12848 7.30521C9.01852 7.2273 8.93105 7.22178 8.81306 7.21525L8.82136 7.06548C8.94245 7.07218 9.0679 7.07845 9.21521 7.18282L9.12848 7.30521ZM9.30322 7.24615C9.19896 7.26379 9.21597 7.36816 9.216 7.36818C9.216 7.36819 9.21601 7.36819 9.21602 7.3682C9.21602 7.3682 9.21602 7.3682 9.21602 7.3682C9.21601 7.36819 9.216 7.36819 9.21599 7.36817C9.21595 7.36815 9.21591 7.36812 9.21584 7.36807C9.21571 7.36798 9.21552 7.36784 9.21527 7.36765C9.21476 7.36729 9.21401 7.36675 9.21305 7.36606C9.21114 7.36467 9.20837 7.36268 9.205 7.36024C9.19824 7.35536 9.18904 7.34872 9.17924 7.34166C9.15951 7.32743 9.13776 7.31179 9.12848 7.30521L9.21521 7.18282C9.2251 7.18983 9.24742 7.20589 9.26696 7.21998C9.27679 7.22707 9.28603 7.23373 9.2928 7.23862C9.29619 7.24107 9.29896 7.24307 9.30088 7.24446C9.30185 7.24515 9.3026 7.2457 9.30311 7.24607C9.30336 7.24625 9.30356 7.24639 9.30369 7.24649C9.30376 7.24654 9.30381 7.24657 9.30384 7.2466C9.30386 7.24661 9.30388 7.24662 9.30389 7.24663C9.30389 7.24663 9.3039 7.24664 9.30391 7.24664C9.30391 7.24665 9.30392 7.24665 9.30393 7.24666C9.30396 7.24668 9.32096 7.35106 9.21671 7.36869L9.30322 7.24615ZM9.29621 7.42428C9.27108 7.40733 9.24629 7.38993 9.21622 7.36834L9.30371 7.2465C9.33304 7.26756 9.35656 7.28405 9.38009 7.29992L9.29621 7.42428ZM9.31132 7.43449L9.29615 7.42424L9.38014 7.29996L9.39531 7.31021L9.31132 7.43449ZM10.0606 7.67048C9.909 7.70951 9.75703 7.67254 9.62926 7.61789C9.50099 7.56302 9.38762 7.4861 9.31129 7.43447L9.39534 7.31023C9.4727 7.36256 9.57498 7.43152 9.68825 7.47997C9.80202 7.52864 9.91748 7.55244 10.0232 7.52522L10.0606 7.67048ZM3.26813 7.17335C3.2597 7.1832 3.26033 7.19937 3.27128 7.20894L3.17255 7.32187C3.10055 7.25892 3.09154 7.14899 3.15418 7.07582L3.26813 7.17335ZM3.90574 6.98935C3.81235 6.99086 3.68902 6.99304 3.56844 7.01832C3.44733 7.04371 3.3391 7.09044 3.26813 7.17335L3.15418 7.07582C3.25595 6.9569 3.40164 6.90002 3.53766 6.87151C3.6742 6.84288 3.81118 6.84086 3.90332 6.83937L3.90574 6.98935ZM3.92414 6.98905C3.91816 6.98915 3.91201 6.98925 3.90574 6.98935L3.90332 6.83937C3.90961 6.83927 3.91566 6.83917 3.92153 6.83907L3.92414 6.98905ZM4.01735 6.989C3.98125 6.98857 3.95251 6.98855 3.92414 6.98905L3.92153 6.83907C3.95183 6.83854 3.98212 6.83857 4.01913 6.83901L4.01735 6.989ZM4.12637 6.9904C4.11425 6.99033 4.08675 6.98998 4.06267 6.98965C4.05054 6.98948 4.03916 6.98932 4.03081 6.9892C4.02663 6.98914 4.02321 6.98909 4.02084 6.98905C4.01965 6.98904 4.01872 6.98902 4.01809 6.98901C4.01778 6.98901 4.01754 6.98901 4.01737 6.989C4.01729 6.989 4.01723 6.989 4.01719 6.989C4.01717 6.989 4.01715 6.989 4.01714 6.989C4.01713 6.989 4.01713 6.989 4.01713 6.989C4.01712 6.989 4.01712 6.989 4.01712 6.989C4.01711 6.989 3.94325 6.91298 4.01915 6.83901L4.01733 6.989C4.09323 6.91503 4.01937 6.83902 4.01937 6.83902C4.01937 6.83902 4.01936 6.83902 4.01936 6.83902C4.01936 6.83902 4.01937 6.83902 4.01937 6.83902C4.01938 6.83902 4.0194 6.83902 4.01942 6.83902C4.01945 6.83902 4.01951 6.83902 4.01959 6.83902C4.01975 6.83902 4.01999 6.83903 4.02031 6.83903C4.02093 6.83904 4.02185 6.83905 4.02304 6.83907C4.0254 6.83911 4.02881 6.83915 4.03297 6.83922C4.0413 6.83934 4.05265 6.8395 4.06473 6.83966C4.08905 6.84 4.11584 6.84034 4.12721 6.8404L4.12637 6.9904ZM4.5163 6.86062C4.41326 6.92459 4.3069 6.99141 4.12637 6.9904L4.12721 6.8404C4.26197 6.84115 4.3368 6.7955 4.43719 6.73318L4.5163 6.86062ZM4.54106 6.8453C4.53278 6.85039 4.52459 6.85548 4.5163 6.86062L4.43719 6.73318C4.44543 6.72807 4.45391 6.7228 4.46253 6.71751L4.54106 6.8453ZM4.69307 6.74675C4.63762 6.78347 4.58565 6.81791 4.54106 6.8453L4.46253 6.71751C4.50448 6.69172 4.55411 6.65887 4.61024 6.62169L4.69307 6.74675ZM5.45339 6.39986C5.36857 6.38688 5.24614 6.42475 5.10203 6.4978C4.96182 6.56887 4.81739 6.66442 4.69307 6.74675L4.61024 6.62169C4.73316 6.54029 4.88488 6.43969 5.03421 6.364C5.17964 6.29029 5.34013 6.23078 5.47608 6.25158L5.45339 6.39986ZM5.51922 6.73244C5.51875 6.73581 5.51943 6.73263 5.51782 6.71779C5.51646 6.70524 5.51398 6.68879 5.51044 6.66937C5.50336 6.63062 5.49259 6.58306 5.47993 6.53678C5.46715 6.49006 5.4531 6.44707 5.43988 6.41645C5.43314 6.40081 5.42786 6.39135 5.42467 6.38679C5.42308 6.38452 5.42352 6.38567 5.42635 6.3881C5.42882 6.39021 5.43794 6.39749 5.45339 6.39986L5.47608 6.25158C5.49829 6.25498 5.5144 6.266 5.52401 6.27424C5.53399 6.2828 5.54173 6.29246 5.54756 6.30078C5.55919 6.3174 5.56915 6.33742 5.57761 6.35702C5.59481 6.39688 5.61101 6.44746 5.62461 6.49719C5.63834 6.54736 5.6501 6.59915 5.658 6.64244C5.66194 6.66403 5.66506 6.68427 5.66694 6.70157C5.66857 6.71658 5.67015 6.73639 5.66775 6.75338L5.51922 6.73244ZM5.52971 6.86229C5.52633 6.83936 5.52283 6.81559 5.52056 6.79508C5.51856 6.77701 5.51637 6.75266 5.51922 6.73244L5.66775 6.75338C5.66801 6.75154 5.6677 6.75255 5.66794 6.75824C5.66816 6.76333 5.66871 6.77006 5.66965 6.77862C5.67156 6.79587 5.67462 6.81672 5.67811 6.84046L5.52971 6.86229ZM5.6075 6.95703C5.59304 6.95482 5.57483 6.95804 5.55976 6.97028C5.54742 6.9803 5.54355 6.9913 5.54285 6.99335C5.54173 6.99668 5.5433 6.9933 5.5429 6.97724C5.54218 6.94791 5.53625 6.90674 5.52971 6.86229L5.67811 6.84046C5.68417 6.88165 5.69186 6.93306 5.69286 6.97355C5.69332 6.99241 5.69278 7.01825 5.68495 7.0414C5.6809 7.05337 5.67252 7.07193 5.65434 7.08671C5.63342 7.1037 5.60801 7.10886 5.58481 7.1053L5.6075 6.95703ZM4.52285 7.27335C4.75921 7.16841 4.96548 7.08034 5.14239 7.02312C5.31797 6.96634 5.47413 6.93662 5.6075 6.95703L5.58481 7.1053C5.487 7.09034 5.35831 7.11094 5.18855 7.16585C5.02011 7.22032 4.82054 7.3053 4.58372 7.41044L4.52285 7.27335ZM3.81917 7.21097C3.9388 7.24511 4.06451 7.28085 4.18836 7.29756C4.31216 7.31427 4.42705 7.31084 4.52591 7.27207L4.58067 7.41172C4.44844 7.46357 4.30471 7.46462 4.1683 7.44622C4.03194 7.42781 3.89584 7.38884 3.77801 7.35521L3.81917 7.21097ZM3.30437 7.20712C3.36494 7.13635 3.46025 7.13427 3.5383 7.14395C3.62092 7.15419 3.71977 7.18261 3.81917 7.21097L3.77801 7.35521C3.67458 7.3257 3.58836 7.3013 3.51985 7.29281C3.44677 7.28375 3.42487 7.297 3.41833 7.30465L3.30437 7.20712ZM3.27128 7.20894C3.28177 7.21811 3.29635 7.21649 3.30437 7.20712L3.41833 7.30465C3.35528 7.37831 3.245 7.38521 3.17255 7.32187L3.27128 7.20894Z" fill="#984111"/>
<path fill-rule="evenodd" clip-rule="evenodd" d="M6.75 2.54443C6.65442 2.54443 6.57343 2.61482 6.56011 2.70947L6.25 4.91285H7.25L6.9399 2.70947C6.92658 2.61482 6.84559 2.54443 6.75 2.54443ZM9.37027 3.62978C9.30268 3.5622 9.19564 3.5547 9.11929 3.61221L7.34199 4.95096L8.0491 5.65806L9.38784 3.88076C9.44535 3.80441 9.43786 3.69737 9.37027 3.62978ZM10.2906 6.06015C10.3852 6.07348 10.4556 6.15447 10.4556 6.25005C10.4556 6.34563 10.3852 6.42662 10.2906 6.43994L8.0872 6.75005V5.75005L10.2906 6.06015ZM9.37027 8.87031C9.43786 8.80273 9.44535 8.69569 9.38784 8.61934L8.0491 6.84203L7.34199 7.54914L9.11929 8.88789C9.19564 8.9454 9.30268 8.9379 9.37027 8.87031ZM6.9399 9.79062C6.92658 9.88528 6.84559 9.95567 6.75 9.95567C6.65442 9.95567 6.57343 9.88528 6.56011 9.79063L6.25 7.58724H7.25L6.9399 9.79062ZM4.12974 8.87032C4.19733 8.9379 4.30437 8.9454 4.38071 8.88789L6.15802 7.54914L5.45091 6.84204L4.11216 8.61934C4.05465 8.69569 4.06215 8.80273 4.12974 8.87032ZM3.20943 6.43994C3.11478 6.42662 3.04439 6.34563 3.04439 6.25005C3.04439 6.15447 3.11478 6.07348 3.20943 6.06015L5.41281 5.75005V6.75005L3.20943 6.43994ZM4.12974 3.62978C4.06215 3.69737 4.05465 3.80441 4.11216 3.88076L5.45091 5.65806L6.15802 4.95096L4.38071 3.61221C4.30437 3.5547 4.19733 3.5622 4.12974 3.62978Z" fill="#FFC125"/>
<path d="M6.56011 2.70947L6.63438 2.71993V2.71993L6.56011 2.70947ZM6.25 4.91285L6.17574 4.9024L6.16371 4.98785H6.25V4.91285ZM7.25 4.91285V4.98785H7.3363L7.32427 4.9024L7.25 4.91285ZM6.9399 2.70947L6.86563 2.71993V2.71993L6.9399 2.70947ZM9.11929 3.61221L9.16442 3.67212L9.11929 3.61221ZM9.37027 3.62978L9.31724 3.68282V3.68282L9.37027 3.62978ZM7.34199 4.95096L7.29686 4.89105L7.22794 4.94297L7.28896 5.00399L7.34199 4.95096ZM8.0491 5.65806L7.99606 5.7111L8.05708 5.77212L8.109 5.70319L8.0491 5.65806ZM9.38784 3.88076L9.44775 3.92588V3.92588L9.38784 3.88076ZM10.2906 6.06015L10.2801 6.13442H10.2801L10.2906 6.06015ZM10.2906 6.43994L10.2801 6.36568H10.2801L10.2906 6.43994ZM8.0872 6.75005H8.0122V6.83634L8.09765 6.82432L8.0872 6.75005ZM8.0872 5.75005L8.09765 5.67578L8.0122 5.66375V5.75005H8.0872ZM9.38784 8.61934L9.32794 8.66446L9.38784 8.61934ZM8.0491 6.84203L8.109 6.79691L8.05708 6.72798L7.99606 6.789L8.0491 6.84203ZM7.34199 7.54914L7.28896 7.49611L7.22794 7.55713L7.29686 7.60905L7.34199 7.54914ZM9.11929 8.88789L9.16442 8.82798L9.11929 8.88789ZM6.9399 9.79062L6.86563 9.78017V9.78017L6.9399 9.79062ZM6.56011 9.79063L6.63438 9.78017V9.78017L6.56011 9.79063ZM6.25 7.58724V7.51224H6.16371L6.17574 7.5977L6.25 7.58724ZM7.25 7.58724L7.32427 7.5977L7.3363 7.51224H7.25V7.58724ZM4.38071 8.88789L4.33559 8.82798H4.33559L4.38071 8.88789ZM4.12974 8.87032L4.0767 8.92335H4.0767L4.12974 8.87032ZM6.15802 7.54914L6.20314 7.60905L6.27207 7.55713L6.21105 7.49611L6.15802 7.54914ZM5.45091 6.84204L5.50394 6.789L5.44292 6.72798L5.391 6.79691L5.45091 6.84204ZM4.11216 8.61934L4.17207 8.66446H4.17207L4.11216 8.61934ZM3.20943 6.43994L3.21988 6.36568H3.21988L3.20943 6.43994ZM3.20943 6.06015L3.21988 6.13442H3.21988L3.20943 6.06015ZM5.41281 5.75005H5.48781V5.66375L5.40236 5.67578L5.41281 5.75005ZM5.41281 6.75005L5.40236 6.82432L5.48781 6.83634V6.75005H5.41281ZM4.11216 3.88076L4.17207 3.83564L4.11216 3.88076ZM5.45091 5.65806L5.391 5.70319L5.44292 5.77212L5.50394 5.7111L5.45091 5.65806ZM6.15802 4.95096L6.21105 5.00399L6.27207 4.94297L6.20314 4.89105L6.15802 4.95096ZM4.38071 3.61221L4.33559 3.67212L4.38071 3.61221ZM6.63438 2.71993C6.64249 2.66229 6.6918 2.61943 6.75 2.61943V2.46943C6.61704 2.46943 6.50437 2.56735 6.48584 2.69902L6.63438 2.71993ZM6.32427 4.92331L6.63438 2.71993L6.48584 2.69902L6.17574 4.9024L6.32427 4.92331ZM7.25 4.83785H6.25V4.98785H7.25V4.83785ZM6.86563 2.71993L7.17574 4.92331L7.32427 4.9024L7.01417 2.69902L6.86563 2.71993ZM6.75 2.61943C6.8082 2.61943 6.85752 2.66229 6.86563 2.71993L7.01417 2.69902C6.99563 2.56735 6.88297 2.46943 6.75 2.46943V2.61943ZM9.16442 3.67212C9.2109 3.6371 9.27608 3.64166 9.31724 3.68282L9.4233 3.57675C9.32928 3.48273 9.18037 3.4723 9.07417 3.5523L9.16442 3.67212ZM7.38711 5.01086L9.16442 3.67212L9.07417 3.5523L7.29686 4.89105L7.38711 5.01086ZM8.10213 5.60503L7.39502 4.89792L7.28896 5.00399L7.99606 5.7111L8.10213 5.60503ZM9.32794 3.83564L7.98919 5.61294L8.109 5.70319L9.44775 3.92588L9.32794 3.83564ZM9.31724 3.68282C9.35839 3.72397 9.36295 3.78915 9.32794 3.83564L9.44775 3.92588C9.52775 3.81968 9.51732 3.67077 9.4233 3.57675L9.31724 3.68282ZM10.5306 6.25005C10.5306 6.11708 10.4327 6.00442 10.301 5.98589L10.2801 6.13442C10.3378 6.14253 10.3806 6.19185 10.3806 6.25005H10.5306ZM10.301 6.51421C10.4327 6.49568 10.5306 6.38302 10.5306 6.25005H10.3806C10.3806 6.30825 10.3378 6.35756 10.2801 6.36568L10.301 6.51421ZM8.09765 6.82432L10.301 6.51421L10.2801 6.36568L8.07675 6.67578L8.09765 6.82432ZM8.0122 5.75005V6.75005H8.1622V5.75005H8.0122ZM10.301 5.98589L8.09765 5.67578L8.07675 5.82432L10.2801 6.13442L10.301 5.98589ZM9.32794 8.66446C9.36295 8.71095 9.35839 8.77613 9.31724 8.81728L9.4233 8.92335C9.51732 8.82933 9.52775 8.68042 9.44775 8.57421L9.32794 8.66446ZM7.98919 6.88716L9.32794 8.66446L9.44775 8.57421L8.109 6.79691L7.98919 6.88716ZM7.39502 7.60217L8.10213 6.89507L7.99606 6.789L7.28896 7.49611L7.39502 7.60217ZM9.16442 8.82798L7.38711 7.48923L7.29686 7.60905L9.07417 8.9478L9.16442 8.82798ZM9.31724 8.81728C9.27608 8.85844 9.21091 8.863 9.16442 8.82798L9.07417 8.9478C9.18038 9.0278 9.32928 9.01737 9.4233 8.92335L9.31724 8.81728ZM6.75 10.0307C6.88297 10.0307 6.99563 9.93275 7.01417 9.80108L6.86563 9.78017C6.85752 9.8378 6.8082 9.88067 6.75 9.88067V10.0307ZM6.48584 9.80108C6.50437 9.93275 6.61704 10.0307 6.75 10.0307V9.88067C6.6918 9.88067 6.64249 9.83781 6.63438 9.78017L6.48584 9.80108ZM6.17574 7.5977L6.48584 9.80108L6.63438 9.78017L6.32427 7.57679L6.17574 7.5977ZM7.25 7.51224H6.25V7.66224H7.25V7.51224ZM7.01417 9.80108L7.32427 7.5977L7.17574 7.57679L6.86563 9.78017L7.01417 9.80108ZM4.33559 8.82798C4.2891 8.863 4.22392 8.85844 4.18277 8.81728L4.0767 8.92335C4.17073 9.01737 4.31963 9.0278 4.42584 8.9478L4.33559 8.82798ZM6.11289 7.48924L4.33559 8.82798L4.42584 8.9478L6.20314 7.60905L6.11289 7.48924ZM5.39788 6.89507L6.10498 7.60218L6.21105 7.49611L5.50394 6.789L5.39788 6.89507ZM4.17207 8.66446L5.51082 6.88716L5.391 6.79691L4.05226 8.57421L4.17207 8.66446ZM4.18277 8.81728C4.14162 8.77613 4.13705 8.71095 4.17207 8.66446L4.05226 8.57421C3.97226 8.68042 3.98268 8.82933 4.0767 8.92335L4.18277 8.81728ZM2.96939 6.25005C2.96939 6.38302 3.06731 6.49568 3.19898 6.51421L3.21988 6.36568C3.16225 6.35756 3.11939 6.30825 3.11939 6.25005H2.96939ZM3.19898 5.98589C3.06731 6.00442 2.96939 6.11708 2.96939 6.25005H3.11939C3.11939 6.19185 3.16225 6.14253 3.21988 6.13442L3.19898 5.98589ZM5.40236 5.67578L3.19898 5.98589L3.21988 6.13442L5.42326 5.82432L5.40236 5.67578ZM5.48781 6.75005V5.75005H5.33781V6.75005H5.48781ZM3.19898 6.51421L5.40236 6.82432L5.42326 6.67578L3.21988 6.36568L3.19898 6.51421ZM4.17207 3.83564C4.13705 3.78915 4.14162 3.72397 4.18277 3.68282L4.0767 3.57675C3.98268 3.67077 3.97226 3.81968 4.05226 3.92588L4.17207 3.83564ZM5.51082 5.61294L4.17207 3.83564L4.05226 3.92588L5.391 5.70319L5.51082 5.61294ZM6.10498 4.89792L5.39788 5.60503L5.50394 5.7111L6.21105 5.00399L6.10498 4.89792ZM4.33559 3.67212L6.11289 5.01086L6.20314 4.89105L4.42584 3.5523L4.33559 3.67212ZM4.18277 3.68282C4.22392 3.64166 4.2891 3.6371 4.33559 3.67212L4.42584 3.5523C4.31963 3.4723 4.17073 3.48273 4.0767 3.57675L4.18277 3.68282Z" fill="#984111"/>
<path fill-rule="evenodd" clip-rule="evenodd" d="M6.75 7.63162C7.55082 7.63162 8.2 6.99097 8.2 6.2007C8.2 5.41042 7.55082 4.76978 6.75 4.76978C5.94919 4.76978 5.3 5.41042 5.3 6.2007C5.3 6.99097 5.94919 7.63162 6.75 7.63162Z" fill="#FFC125" stroke="#984111" stroke-width="0.15"/>
<path d="M6.61009 5.82734C6.59514 5.81807 6.53173 5.77622 6.51615 5.76636C6.46127 5.73163 6.4175 5.70899 6.37685 5.6963C6.35457 5.68935 6.33423 5.68584 6.31584 5.68584C6.2276 5.68584 6.10293 5.74092 5.94525 5.85317L5.88675 5.77313C6.05994 5.64985 6.20183 5.58716 6.31584 5.58716C6.34521 5.58716 6.37552 5.59239 6.407 5.60221C6.45784 5.61808 6.50846 5.64426 6.57013 5.68329C6.58696 5.69394 6.64983 5.73543 6.66326 5.74376C6.68512 5.7573 6.69926 5.76381 6.69909 5.76381C6.81849 5.76381 6.82572 6.19098 6.74128 6.32196C6.71846 6.35736 6.69044 6.38598 6.65373 6.41478C6.63961 6.42586 6.59528 6.45779 6.58875 6.46282C6.55933 6.4855 6.55 6.49871 6.55 6.51488C6.55 6.51768 6.58594 6.52658 6.66607 6.52282C6.68194 6.52207 6.69771 6.52102 6.72093 6.51926C6.77788 6.51493 6.78524 6.51445 6.80361 6.51445V6.61314C6.78913 6.61314 6.78147 6.61364 6.72861 6.61765C6.70449 6.61948 6.68789 6.62059 6.67082 6.62139C6.52993 6.62801 6.45 6.6082 6.45 6.51488C6.45 6.46128 6.47592 6.42458 6.52719 6.38505C6.53556 6.3786 6.57943 6.347 6.5915 6.33754C6.6202 6.31502 6.6408 6.29397 6.65691 6.26898C6.68277 6.22887 6.69883 6.12448 6.69695 6.01382C6.69609 5.96301 6.69145 5.91638 6.68413 5.88367C6.68193 5.87385 6.67958 5.86577 6.67736 5.85984C6.65839 5.85525 6.63797 5.84461 6.61009 5.82734Z" fill="#984111"/>
<path fill-rule="evenodd" clip-rule="evenodd" d="M7.01367 5.79272C6.99192 5.80693 6.96859 5.82218 6.96026 5.82734C6.93239 5.84461 6.91197 5.85525 6.893 5.85984C6.89078 5.86577 6.88843 5.87385 6.88623 5.88367C6.8789 5.91638 6.87427 5.96301 6.87341 6.01382C6.87153 6.12448 6.88759 6.22887 6.91345 6.26898C6.92956 6.29397 6.95016 6.31502 6.97886 6.33754C6.98589 6.34305 7.00368 6.35605 7.01898 6.36724C7.02997 6.37527 7.03967 6.38236 7.04317 6.38505C7.09444 6.42458 7.12036 6.46128 7.12036 6.51488C7.12036 6.6082 7.04043 6.62801 6.89954 6.62139C6.88247 6.62059 6.86587 6.61948 6.84175 6.61765C6.78889 6.61364 6.78123 6.61314 6.76675 6.61314V6.51445C6.78512 6.51445 6.79248 6.51493 6.84943 6.51926C6.87265 6.52102 6.88841 6.52207 6.90429 6.52282C6.98442 6.52658 7.02036 6.51768 7.02036 6.51488C7.02036 6.49871 7.01103 6.4855 6.98161 6.46282C6.97919 6.46096 6.9716 6.45541 6.96228 6.4486C6.9464 6.43701 6.92552 6.42176 6.91663 6.41478C6.87992 6.38598 6.8519 6.35736 6.82908 6.32196C6.74464 6.19098 6.75187 5.76381 6.87126 5.76381C6.87124 5.76381 6.87153 5.76367 6.87211 5.76338C6.87545 5.76173 6.88847 5.7553 6.90709 5.74376C6.91427 5.73932 6.93552 5.72543 6.95633 5.71182C6.97452 5.69993 6.99238 5.68826 7.00023 5.68329C7.06189 5.64426 7.11252 5.61808 7.16335 5.60221C7.19484 5.59239 7.22515 5.58716 7.25452 5.58716C7.36853 5.58716 7.51042 5.64985 7.68361 5.77313L7.62511 5.85317C7.46743 5.74092 7.34276 5.68584 7.25452 5.68584C7.23612 5.68584 7.21578 5.68935 7.19351 5.6963C7.15286 5.70899 7.10909 5.73163 7.05421 5.76636C7.0473 5.77073 7.03099 5.78139 7.01367 5.79272ZM6.89613 5.85275L6.89494 5.85514L6.89567 5.8535L6.89613 5.85275Z" fill="#984111"/>
<path d="M6.49051 6.77519L6.52402 6.84228L6.49051 6.77519ZM7.01617 6.77686L7.05479 6.71257L7.01617 6.77686ZM7.08485 6.81812L7.14645 6.86089L7.19215 6.79508L7.12347 6.75382L7.08485 6.81812ZM7.03915 6.88393L6.97755 6.84115V6.84115L7.03915 6.88393ZM6.46707 6.89108L6.52402 6.84228V6.84228L6.46707 6.89108ZM6.40456 6.81811L6.37105 6.75102L6.2851 6.79394L6.3476 6.86691L6.40456 6.81811ZM6.6646 6.87106L6.64835 6.79784L6.47843 6.83555L6.62254 6.93315L6.6646 6.87106ZM6.85171 6.8703L6.8987 6.92875L7.01842 6.8325L6.8689 6.7973L6.85171 6.8703ZM6.48638 6.8351L6.44974 6.76966L6.37272 6.81277L6.42771 6.88182L6.48638 6.8351ZM7.01159 6.83444L7.07468 6.87498L7.11398 6.81382L7.05408 6.77264L7.01159 6.83444ZM6.38277 6.72208L6.42224 6.78586L6.38277 6.72208ZM7.1222 6.72955L7.07627 6.78885V6.78885L7.1222 6.72955ZM7.15663 6.75622L7.20256 6.69692L7.20256 6.69692L7.15663 6.75622ZM7.20919 6.79693L7.27357 6.8354L7.30767 6.77833L7.25511 6.73763L7.20919 6.79693ZM7.17509 6.85399L7.23947 6.89246V6.89246L7.17509 6.85399ZM7.15285 6.8912L7.08847 6.85273L7.08847 6.85273L7.15285 6.8912ZM6.34836 6.90168L6.28821 6.94648H6.28821L6.34836 6.90168ZM6.31648 6.85888L6.37663 6.81408V6.81408L6.31648 6.85888ZM6.26765 6.79332L6.22819 6.72954L6.15868 6.77256L6.2075 6.83812L6.26765 6.79332ZM6.33717 6.7503L6.37663 6.81408L6.33717 6.7503ZM6.76196 6.6355C6.65536 6.6355 6.55333 6.65998 6.457 6.70809L6.52402 6.84228C6.60001 6.80433 6.67914 6.7855 6.76196 6.7855V6.6355ZM7.05479 6.71257C6.96665 6.65962 6.86771 6.6355 6.76196 6.6355V6.7855C6.84427 6.7855 6.91578 6.80405 6.97755 6.84115L7.05479 6.71257ZM7.12347 6.75382L7.05479 6.71257L6.97755 6.84115L7.04623 6.88241L7.12347 6.75382ZM7.10076 6.9267L7.14645 6.86089L7.02324 6.77534L6.97755 6.84115L7.10076 6.9267ZM6.76196 7.13023C6.90775 7.13023 7.01942 7.04384 7.10076 6.9267L6.97755 6.84115C6.91186 6.93574 6.8403 6.98023 6.76196 6.98023V7.13023ZM6.41011 6.93987C6.5041 7.04958 6.62131 7.13023 6.76196 7.13023V6.98023C6.68331 6.98023 6.60398 6.93562 6.52402 6.84228L6.41011 6.93987ZM6.3476 6.86691L6.41011 6.93987L6.52402 6.84228L6.46152 6.76932L6.3476 6.86691ZM6.457 6.70809L6.37105 6.75102L6.43807 6.88521L6.52402 6.84228L6.457 6.70809ZM6.76196 6.83023C6.75136 6.83023 6.73329 6.827 6.70666 6.80896L6.62254 6.93315C6.66947 6.96494 6.71633 6.98023 6.76196 6.98023V6.83023ZM6.80471 6.81185C6.79416 6.82034 6.78564 6.82473 6.77921 6.82709C6.77289 6.82941 6.76731 6.83023 6.76196 6.83023V6.98023C6.80786 6.98023 6.85413 6.96459 6.8987 6.92875L6.80471 6.81185ZM6.76196 6.9355C6.78932 6.9355 6.8133 6.93831 6.83452 6.94331L6.8689 6.7973C6.83524 6.78938 6.79963 6.7855 6.76196 6.7855V6.9355ZM6.68084 6.94428C6.70722 6.93842 6.73417 6.9355 6.76196 6.9355V6.7855C6.72352 6.7855 6.68566 6.78956 6.64835 6.79784L6.68084 6.94428ZM6.76196 6.92891C6.7056 6.92891 6.63276 6.89852 6.54504 6.78838L6.42771 6.88182C6.53107 7.01161 6.64269 7.07891 6.76196 7.07891V6.92891ZM6.94849 6.7939C6.87947 6.90131 6.81576 6.92891 6.76196 6.92891V7.07891C6.88344 7.07891 6.98846 7.00918 7.07468 6.87498L6.94849 6.7939ZM6.76196 6.83682C6.84583 6.83682 6.91335 6.85792 6.9691 6.89624L7.05408 6.77264C6.97063 6.71526 6.87273 6.68682 6.76196 6.68682V6.83682ZM6.52301 6.90054C6.59994 6.85748 6.67916 6.83682 6.76196 6.83682V6.68682C6.65266 6.68682 6.54831 6.71448 6.44974 6.76966L6.52301 6.90054ZM6.76196 6.53682C6.61295 6.53682 6.47223 6.57852 6.3433 6.65831L6.42224 6.78586C6.52867 6.72 6.64223 6.68682 6.76196 6.68682V6.53682ZM7.16812 6.67025C7.0514 6.57986 6.91285 6.53682 6.76196 6.53682V6.68682C6.88308 6.68682 6.98847 6.72084 7.07627 6.78885L7.16812 6.67025ZM7.20256 6.69692L7.16812 6.67025L7.07627 6.78885L7.11071 6.81552L7.20256 6.69692ZM7.25511 6.73763L7.20256 6.69692L7.11071 6.81552L7.16327 6.85622L7.25511 6.73763ZM7.23947 6.89246L7.27357 6.8354L7.14481 6.75845L7.11071 6.81552L7.23947 6.89246ZM7.21723 6.92967L7.23947 6.89246L7.11071 6.81552L7.08847 6.85273L7.21723 6.92967ZM6.76196 7.22891C6.96307 7.22891 7.11347 7.1033 7.21723 6.92967L7.08847 6.85273C6.99974 7.00121 6.8904 7.07891 6.76196 7.07891V7.22891ZM6.28821 6.94648C6.41081 7.11109 6.56778 7.22891 6.76196 7.22891V7.07891C6.63518 7.07891 6.51738 7.00306 6.40851 6.85688L6.28821 6.94648ZM6.25633 6.90368L6.28821 6.94648L6.40851 6.85688L6.37663 6.81408L6.25633 6.90368ZM6.2075 6.83812L6.25633 6.90368L6.37663 6.81408L6.3278 6.74852L6.2075 6.83812ZM6.2977 6.68653L6.22819 6.72954L6.30712 6.8571L6.37663 6.81408L6.2977 6.68653ZM6.3433 6.65831L6.2977 6.68653L6.37663 6.81408L6.42224 6.78586L6.3433 6.65831Z" fill="#984111"/>
<path d="M6.04077 5.82281L6.00832 5.75519L6.00832 5.75519L6.04077 5.82281ZM6.04077 6.12774L6.00832 6.19535H6.00832L6.04077 6.12774ZM6.45923 6.12774L6.42678 6.06013L6.42678 6.06013L6.45923 6.12774ZM6.45923 5.82281L6.42678 5.89042L6.42678 5.89042L6.45923 5.82281ZM6.07859 5.97527L6.02654 5.92127L5.97052 5.97527L6.02654 6.02927L6.07859 5.97527ZM6.10568 5.99251L6.13814 5.9249L6.13814 5.9249L6.10568 5.99251ZM6.10568 5.95803L6.13814 6.02565L6.13814 6.02565L6.10568 5.95803ZM6.39432 5.95803L6.36187 6.02565L6.39432 5.95803ZM6.42141 5.97527L6.47346 6.02927L6.52949 5.97527L6.47346 5.92127L6.42141 5.97527ZM6.39432 5.99251L6.36187 5.9249L6.39432 5.99251ZM7.04077 5.82281L7.07323 5.89042V5.89042L7.04077 5.82281ZM7.04077 6.12774L7.07323 6.06013L7.04077 6.12774ZM7.45923 6.12774L7.42678 6.06013L7.42678 6.06013L7.45923 6.12774ZM7.45923 5.82281L7.42678 5.89042L7.42678 5.89042L7.45923 5.82281ZM7.07859 5.97527L7.02654 5.92128L6.97052 5.97527L7.02654 6.02927L7.07859 5.97527ZM7.10568 5.99251L7.07323 6.06013L7.07323 6.06013L7.10568 5.99251ZM7.10568 5.95803L7.07323 5.89042L7.07323 5.89042L7.10568 5.95803ZM7.39433 5.95803L7.42678 5.89042V5.89042L7.39433 5.95803ZM7.42141 5.97527L7.47346 6.02927L7.52948 5.97527L7.47346 5.92128L7.42141 5.97527ZM7.39433 5.99251L7.42678 6.06013L7.39433 5.99251ZM6.07323 5.89042C6.11846 5.86871 6.18096 5.85527 6.25 5.85527V5.70527C6.16356 5.70527 6.07793 5.72178 6.00832 5.75519L6.07323 5.89042ZM6 5.97527C6 5.9426 6.02726 5.91248 6.07323 5.89042L6.00832 5.75519C5.95023 5.78307 5.85 5.85101 5.85 5.97527H6ZM6.07323 6.06013C6.02726 6.03806 6 6.00794 6 5.97527H5.85C5.85 6.09954 5.95023 6.16747 6.00832 6.19535L6.07323 6.06013ZM6.25 6.09527C6.18096 6.09527 6.11846 6.08184 6.07323 6.06013L6.00832 6.19535C6.07793 6.22877 6.16356 6.24527 6.25 6.24527V6.09527ZM6.42678 6.06013C6.38154 6.08184 6.31904 6.09527 6.25 6.09527V6.24527C6.33644 6.24527 6.42207 6.22877 6.49169 6.19535L6.42678 6.06013ZM6.5 5.97527C6.5 6.00794 6.47274 6.03806 6.42678 6.06013L6.49169 6.19535C6.54977 6.16747 6.65 6.09954 6.65 5.97527H6.5ZM6.42678 5.89042C6.47274 5.91248 6.5 5.9426 6.5 5.97527H6.65C6.65 5.85101 6.54977 5.78307 6.49169 5.75519L6.42678 5.89042ZM6.25 5.85527C6.31904 5.85527 6.38154 5.86871 6.42678 5.89042L6.49169 5.75519C6.42207 5.72178 6.33644 5.70527 6.25 5.70527V5.85527ZM6.02654 6.02927C6.03786 6.04018 6.05305 6.05044 6.07323 6.06013L6.13814 5.9249C6.12835 5.9202 6.1276 5.91835 6.13064 5.92127L6.02654 6.02927ZM6.07323 5.89042C6.05305 5.90011 6.03786 5.91036 6.02654 5.92127L6.13064 6.02927C6.1276 6.0322 6.12835 6.03035 6.13814 6.02565L6.07323 5.89042ZM6.25 5.85527C6.18096 5.85527 6.11846 5.86871 6.07323 5.89042L6.13814 6.02565C6.15901 6.01563 6.19839 6.00527 6.25 6.00527V5.85527ZM6.42678 5.89042C6.38154 5.86871 6.31905 5.85527 6.25 5.85527V6.00527C6.30162 6.00527 6.34099 6.01563 6.36187 6.02565L6.42678 5.89042ZM6.47346 5.92127C6.46214 5.91036 6.44696 5.90011 6.42678 5.89042L6.36187 6.02565C6.37166 6.03035 6.3724 6.0322 6.36937 6.02927L6.47346 5.92127ZM6.42678 6.06013C6.44696 6.05044 6.46214 6.04018 6.47346 6.02927L6.36937 5.92127C6.3724 5.91835 6.37166 5.9202 6.36187 5.9249L6.42678 6.06013ZM6.25 6.09527C6.31905 6.09527 6.38154 6.08184 6.42678 6.06013L6.36187 5.9249C6.34099 5.93492 6.30162 5.94527 6.25 5.94527V6.09527ZM6.07323 6.06013C6.11846 6.08184 6.18096 6.09527 6.25 6.09527V5.94527C6.19839 5.94527 6.15901 5.93492 6.13814 5.9249L6.07323 6.06013ZM7.07323 5.89042C7.11846 5.86871 7.18096 5.85527 7.25 5.85527V5.70527C7.16356 5.70527 7.07793 5.72178 7.00832 5.75519L7.07323 5.89042ZM7 5.97527C7 5.9426 7.02726 5.91248 7.07323 5.89042L7.00832 5.75519C6.95023 5.78307 6.85 5.85101 6.85 5.97527H7ZM7.07323 6.06013C7.02726 6.03806 7 6.00794 7 5.97527H6.85C6.85 6.09954 6.95023 6.16747 7.00832 6.19535L7.07323 6.06013ZM7.25 6.09527C7.18096 6.09527 7.11846 6.08184 7.07323 6.06013L7.00832 6.19535C7.07793 6.22877 7.16356 6.24527 7.25 6.24527V6.09527ZM7.42678 6.06013C7.38154 6.08184 7.31904 6.09527 7.25 6.09527V6.24527C7.33644 6.24527 7.42207 6.22877 7.49169 6.19535L7.42678 6.06013ZM7.5 5.97527C7.5 6.00794 7.47274 6.03806 7.42678 6.06013L7.49169 6.19535C7.54977 6.16747 7.65 6.09954 7.65 5.97527H7.5ZM7.42678 5.89042C7.47274 5.91248 7.5 5.9426 7.5 5.97527H7.65C7.65 5.85101 7.54977 5.78307 7.49169 5.75519L7.42678 5.89042ZM7.25 5.85527C7.31904 5.85527 7.38154 5.86871 7.42678 5.89042L7.49169 5.75519C7.42207 5.72178 7.33644 5.70527 7.25 5.70527V5.85527ZM7.02654 6.02927C7.03786 6.04018 7.05305 6.05044 7.07323 6.06013L7.13814 5.9249C7.12835 5.9202 7.1276 5.91835 7.13064 5.92127L7.02654 6.02927ZM7.07323 5.89042C7.05305 5.90011 7.03786 5.91036 7.02654 5.92128L7.13064 6.02927C7.1276 6.0322 7.12835 6.03035 7.13814 6.02565L7.07323 5.89042ZM7.25 5.85527C7.18096 5.85527 7.11846 5.86871 7.07323 5.89042L7.13814 6.02565C7.15901 6.01563 7.19839 6.00527 7.25 6.00527V5.85527ZM7.42678 5.89042C7.38154 5.86871 7.31905 5.85527 7.25 5.85527V6.00527C7.30162 6.00527 7.34099 6.01563 7.36187 6.02565L7.42678 5.89042ZM7.47346 5.92128C7.46214 5.91036 7.44696 5.90011 7.42678 5.89042L7.36187 6.02565C7.37166 6.03035 7.3724 6.0322 7.36936 6.02927L7.47346 5.92128ZM7.42678 6.06013C7.44696 6.05044 7.46214 6.04018 7.47346 6.02927L7.36936 5.92127C7.3724 5.91835 7.37166 5.9202 7.36187 5.9249L7.42678 6.06013ZM7.25 6.09527C7.31905 6.09527 7.38154 6.08184 7.42678 6.06013L7.36187 5.9249C7.34099 5.93492 7.30162 5.94527 7.25 5.94527V6.09527ZM7.07323 6.06013C7.11846 6.08184 7.18096 6.09527 7.25 6.09527V5.94527C7.19839 5.94527 7.15901 5.93492 7.13814 5.9249L7.07323 6.06013Z" fill="#984111"/>
</g>
</g>
</g>
<rect x="1.75" y="1.25" width="23.5" height="17.5" stroke="black" stroke-opacity="0.1" stroke-width="0.5" shape-rendering="crispEdges"/>
</g>
<defs>
<filter id="filter0_dd_701_19531" x="0" y="0" width="27" height="21" filterUnits="userSpaceOnUse" color-interpolation-filters="sRGB">
<feFlood flood-opacity="0" result="BackgroundImageFix"/>
<feColorMatrix in="SourceAlpha" type="matrix" values="0 0 0 0 0 0 0 0 0 0 0 0 0 0 0 0 0 0 127 0" result="hardAlpha"/>
<feOffset dy="0.5"/>
<feGaussianBlur stdDeviation="0.75"/>
<feComposite in2="hardAlpha" operator="out"/>
<feColorMatrix type="matrix" values="0 0 0 0 0 0 0 0 0 0 0 0 0 0 0 0 0 0 0.1 0"/>
<feBlend mode="multiply" in2="BackgroundImageFix" result="effect1_dropShadow_701_19531"/>
<feColorMatrix in="SourceAlpha" type="matrix" values="0 0 0 0 0 0 0 0 0 0 0 0 0 0 0 0 0 0 127 0" result="hardAlpha"/>
<feOffset/>
<feGaussianBlur stdDeviation="0.5"/>
<feComposite in2="hardAlpha" operator="out"/>
<feColorMatrix type="matrix" values="0 0 0 0 0 0 0 0 0 0 0 0 0 0 0 0 0 0 0.11 0"/>
<feBlend mode="multiply" in2="effect1_dropShadow_701_19531" result="effect2_dropShadow_701_19531"/>
<feBlend mode="normal" in="SourceGraphic" in2="effect2_dropShadow_701_19531" result="shape"/>
</filter>
<clipPath id="clip0_701_19531">
<rect x="1.5" y="1" width="24" height="18" fill="white"/>
</clipPath>
</defs>
</svg>