<svg width="27" height="21" viewBox="0 0 27 21" fill="none" xmlns="http://www.w3.org/2000/svg">
<g filter="url(#filter0_dd_701_23487)">
<g clip-path="url(#clip0_701_23487)">
<mask id="mask0_701_23487" style="mask-type:alpha" maskUnits="userSpaceOnUse" x="1" y="1" width="25" height="18">
<rect x="1.5" y="1" width="24" height="18" fill="white"/>
</mask>
<g mask="url(#mask0_701_23487)">
<path fill-rule="evenodd" clip-rule="evenodd" d="M1.5 1V19H25.5V1H1.5Z" fill="#2E42A5"/>
<mask id="mask1_701_23487" style="mask-type:alpha" maskUnits="userSpaceOnUse" x="1" y="1" width="25" height="18">
<path fill-rule="evenodd" clip-rule="evenodd" d="M1.5 1V19H25.5V1H1.5Z" fill="white"/>
</mask>
<g mask="url(#mask1_701_23487)">
<mask id="mask2_701_23487" style="mask-type:alpha" maskUnits="userSpaceOnUse" x="1" y="1" width="25" height="18">
<rect x="1.5" y="1" width="24" height="18" fill="white"/>
</mask>
<g mask="url(#mask2_701_23487)">
<path d="M-1.17236 17.7141L4.10891 19.9476L25.6198 3.42842L28.4056 0.109306L22.758 -0.637211L13.9842 6.48139L6.92224 11.2777L-1.17236 17.7141Z" fill="white"/>
<path d="M-0.449341 19.2789L2.24122 20.5751L27.4052 -0.199131H23.6274L-0.449341 19.2789Z" fill="#F50100"/>
<path d="M28.1724 17.7141L22.8911 19.9476L1.38017 3.42842L-1.40558 0.109306L4.24197 -0.637211L13.0158 6.48139L20.0778 11.2777L28.1724 17.7141Z" fill="white"/>
<path d="M27.9922 18.8371L25.3016 20.1333L14.5865 11.2388L11.4097 10.245L-1.67363 0.120623H2.10423L15.1802 10.0047L18.6535 11.1963L27.9922 18.8371Z" fill="#F50100"/>
<mask id="path-11-inside-1_701_23487" fill="white">
<path fill-rule="evenodd" clip-rule="evenodd" d="M16.3333 -0.5H10.6667V7H0.0206528V13H10.6667V20.5H16.3333V13H27.0207V7H16.3333V-0.5Z"/>
</mask>
<path fill-rule="evenodd" clip-rule="evenodd" d="M16.3333 -0.5H10.6667V7H0.0206528V13H10.6667V20.5H16.3333V13H27.0207V7H16.3333V-0.5Z" fill="#F50100"/>
<path d="M10.6667 -0.5V-2.5H8.66667V-0.5H10.6667ZM16.3333 -0.5H18.3333V-2.5H16.3333V-0.5ZM10.6667 7V9H12.6667V7H10.6667ZM0.0206528 7V5H-1.97935V7H0.0206528ZM0.0206528 13H-1.97935V15H0.0206528V13ZM10.6667 13H12.6667V11H10.6667V13ZM10.6667 20.5H8.66667V22.5H10.6667V20.5ZM16.3333 20.5V22.5H18.3333V20.5H16.3333ZM16.3333 13V11H14.3333V13H16.3333ZM27.0207 13V15H29.0207V13H27.0207ZM27.0207 7H29.0207V5H27.0207V7ZM16.3333 7H14.3333V9H16.3333V7ZM10.6667 1.5H16.3333V-2.5H10.6667V1.5ZM12.6667 7V-0.5H8.66667V7H12.6667ZM0.0206528 9H10.6667V5H0.0206528V9ZM2.02065 13V7H-1.97935V13H2.02065ZM10.6667 11H0.0206528V15H10.6667V11ZM12.6667 20.5V13H8.66667V20.5H12.6667ZM16.3333 18.5H10.6667V22.5H16.3333V18.5ZM14.3333 13V20.5H18.3333V13H14.3333ZM27.0207 11H16.3333V15H27.0207V11ZM25.0207 7V13H29.0207V7H25.0207ZM16.3333 9H27.0207V5H16.3333V9ZM14.3333 -0.5V7H18.3333V-0.5H14.3333Z" fill="white" mask="url(#path-11-inside-1_701_23487)"/>
</g>
</g>
</g>
</g>
<rect x="1.75" y="1.25" width="23.5" height="17.5" stroke="black" stroke-opacity="0.1" stroke-width="0.5" shape-rendering="crispEdges"/>
</g>
<defs>
<filter id="filter0_dd_701_23487" x="0" y="0" width="27" height="21" filterUnits="userSpaceOnUse" color-interpolation-filters="sRGB">
<feFlood flood-opacity="0" result="BackgroundImageFix"/>
<feColorMatrix in="SourceAlpha" type="matrix" values="0 0 0 0 0 0 0 0 0 0 0 0 0 0 0 0 0 0 127 0" result="hardAlpha"/>
<feOffset dy="0.5"/>
<feGaussianBlur stdDeviation="0.75"/>
<feComposite in2="hardAlpha" operator="out"/>
<feColorMatrix type="matrix" values="0 0 0 0 0 0 0 0 0 0 0 0 0 0 0 0 0 0 0.1 0"/>
<feBlend mode="multiply" in2="BackgroundImageFix" result="effect1_dropShadow_701_23487"/>
<feColorMatrix in="SourceAlpha" type="matrix" values="0 0 0 0 0 0 0 0 0 0 0 0 0 0 0 0 0 0 127 0" result="hardAlpha"/>
<feOffset/>
<feGaussianBlur stdDeviation="0.5"/>
<feComposite in2="hardAlpha" operator="out"/>
<feColorMatrix type="matrix" values="0 0 0 0 0 0 0 0 0 0 0 0 0 0 0 0 0 0 0.11 0"/>
<feBlend mode="multiply" in2="effect1_dropShadow_701_23487" result="effect2_dropShadow_701_23487"/>
<feBlend mode="normal" in="SourceGraphic" in2="effect2_dropShadow_701_23487" result="shape"/>
</filter>
<clipPath id="clip0_701_23487">
<rect x="1.5" y="1" width="24" height="18" fill="white"/>
</clipPath>
</defs>
</svg>
