<svg width="27" height="21" viewBox="0 0 27 21" fill="none" xmlns="http://www.w3.org/2000/svg">
<g filter="url(#filter0_dd_701_21624)">
<g clip-path="url(#clip0_701_21624)">
<mask id="mask0_701_21624" style="mask-type:alpha" maskUnits="userSpaceOnUse" x="1" y="1" width="25" height="18">
<rect x="1.5" y="1" width="24" height="18" fill="white"/>
</mask>
<g mask="url(#mask0_701_21624)">
<path fill-rule="evenodd" clip-rule="evenodd" d="M1.5 1V19H25.5V1H1.5Z" fill="#2E42A5"/>
<mask id="mask1_701_21624" style="mask-type:alpha" maskUnits="userSpaceOnUse" x="1" y="1" width="25" height="18">
<path fill-rule="evenodd" clip-rule="evenodd" d="M1.5 1V19H25.5V1H1.5Z" fill="white"/>
</mask>
<g mask="url(#mask1_701_21624)">
<path d="M20.9465 17.2229C19.9842 17.2229 19.3168 17.004 18.8434 16.6254C18.3689 16.2458 18.0574 15.6803 17.8578 14.9239C17.6576 14.1654 17.5753 13.2359 17.5446 12.1532C17.5231 11.3924 17.527 10.567 17.5313 9.6813C17.5328 9.38568 17.5342 9.08334 17.5348 8.77441H24.4446C24.5676 10.936 24.6096 13.0354 24.1717 14.6095C23.9462 15.4202 23.5989 16.0693 23.0895 16.5159C22.5845 16.9586 21.8965 17.2229 20.9465 17.2229Z" fill="#6DC2FF" stroke="#F7FCFF" stroke-width="0.5"/>
<mask id="mask2_701_21624" style="mask-type:alpha" maskUnits="userSpaceOnUse" x="17" y="8" width="8" height="10">
<path d="M20.9465 17.2229C19.9842 17.2229 19.3168 17.004 18.8434 16.6254C18.3689 16.2458 18.0574 15.6803 17.8578 14.9239C17.6576 14.1654 17.5753 13.2359 17.5446 12.1532C17.5231 11.3924 17.527 10.567 17.5313 9.6813C17.5328 9.38568 17.5342 9.08334 17.5348 8.77441H24.4446C24.5676 10.936 24.6096 13.0354 24.1717 14.6095C23.9462 15.4202 23.5989 16.0693 23.0895 16.5159C22.5845 16.9586 21.8965 17.2229 20.9465 17.2229Z" fill="white" stroke="white" stroke-width="0.5"/>
</mask>
<g mask="url(#mask2_701_21624)">
<rect x="17.1994" y="8.5" width="7.5525" height="5.98378" fill="#2EBED7"/>
<rect x="17.1" y="14.4351" width="7.95" height="3.06486" fill="#A95601"/>
<path d="M21.5593 11.0977C21.5593 11.0977 20.1591 11.4153 20.2944 11.0977C20.4298 10.7801 20.792 9.63477 20.792 9.63477" stroke="#FFC6B5"/>
<path fill-rule="evenodd" clip-rule="evenodd" d="M21.9805 11.3242C21.9805 11.3242 21.725 11.1676 21.725 10.8825C21.725 10.5974 21.102 10.4908 21.5413 10.0453C21.9805 9.59986 22.1701 9.79603 22.1701 10.0453C22.1701 10.2946 22.5231 10.8825 22.5231 10.8825L21.9805 11.3242Z" fill="#FFC6B5"/>
<path fill-rule="evenodd" clip-rule="evenodd" d="M21.2738 8.74316H20.5782V9.42425H19.1869V10.1053H20.5782V16.0405H21.2738V10.1053H22.665V9.42425H21.2738V8.74316Z" fill="#272727"/>
<path fill-rule="evenodd" clip-rule="evenodd" d="M22.7716 16.2409C22.7716 16.2409 22.5185 15.0697 22.5185 14.2681C22.5185 13.4664 22.0945 12.893 22.2156 12.469C22.3368 12.0451 22.6286 11.5763 22.4827 11.2861C22.3368 10.996 22.6251 10.8547 22.2156 10.996C21.8062 11.1372 21.6961 10.8547 21.3008 10.996C20.9055 11.1372 20.8555 11.8043 20.8555 11.9946C20.8555 12.1849 21.0312 13.4679 21.0312 13.868C21.0312 14.2681 20.8864 16.7283 21.3008 16.7283C21.7152 16.7283 22.1671 16.088 22.3249 16.088C22.4827 16.088 22.7716 16.2409 22.7716 16.2409Z" fill="#0C7C38"/>
<path fill-rule="evenodd" clip-rule="evenodd" d="M20.2724 13.106C20.0198 13.106 20.2521 13.6928 19.6093 13.95C18.9665 14.2073 18.8404 14.5697 19.0429 14.5697C19.2453 14.5697 20.8464 16.3685 20.8464 16.3685L21.239 15.7616V13.8449C21.239 13.8449 20.525 13.106 20.2724 13.106Z" stroke="#FF9A06"/>
<path d="M22.1574 16.1182C22.1574 16.1182 22.4574 16.7619 22.1574 16.7619" stroke="#979797"/>
<path d="M22.0609 11.3425C22.0609 11.3425 21.9291 12.0647 21.6782 12.2159C21.4272 12.367 20.3964 12.6597 20.3964 12.9096C20.3964 13.1595 20.2941 13.2489 20.2941 13.2489" stroke="#FFC6B5"/>
<path fill-rule="evenodd" clip-rule="evenodd" d="M21.5609 9.85181C21.5609 9.85181 21.8132 10.1516 21.9544 10.6457C22.0956 11.1399 22.5048 11.3082 22.5048 11.0769C22.5048 10.8456 22.8072 9.85181 22.5048 9.85181C22.2023 9.85181 21.5609 9.85181 21.5609 9.85181Z" fill="#FF9A06"/>
</g>
<rect x="-2.5" y="-2" width="18" height="14" fill="#2B409A"/>
<mask id="mask3_701_21624" style="mask-type:alpha" maskUnits="userSpaceOnUse" x="-3" y="-2" width="19" height="14">
<rect x="-2.5" y="-2" width="18" height="14" fill="white"/>
</mask>
<g mask="url(#mask3_701_21624)">
<path d="M-4.50424 10.9999L-0.543292 12.7371L15.5899 -0.111217L17.6792 -2.69275L13.4435 -3.27337L6.8632 2.26332L1.5667 5.99375L-4.50424 10.9999Z" fill="#F7FCFF"/>
<path d="M-3.96198 12.217L-1.94405 13.2251L16.929 -2.93262H14.0956L-3.96198 12.217Z" fill="#F50100"/>
<path d="M17.5043 10.9999L13.5433 12.7371L-2.58987 -0.111217L-4.67919 -2.69275L-0.443518 -3.27337L6.13683 2.26332L11.4333 5.99375L17.5043 10.9999Z" fill="#F7FCFF"/>
<path d="M17.3691 11.8732L15.3512 12.8813L7.31486 5.96339L4.93226 5.19046L-4.88023 -2.68407H-2.04684L7.76015 5.00356L10.3651 5.93038L17.3691 11.8732Z" fill="#F50100"/>
<mask id="path-24-outside-1_701_21624" maskUnits="userSpaceOnUse" x="-4.5" y="-4" width="22" height="18" fill="black">
<rect fill="white" x="-4.5" y="-4" width="22" height="18"/>
<path fill-rule="evenodd" clip-rule="evenodd" d="M7.48451 -2H5.48451V4H-2.5V6H5.48451V12H7.48451V6H15.5V4H7.48451V-2Z"/>
</mask>
<path fill-rule="evenodd" clip-rule="evenodd" d="M7.48451 -2H5.48451V4H-2.5V6H5.48451V12H7.48451V6H15.5V4H7.48451V-2Z" fill="#F50100"/>
<path d="M5.48451 -2V-3.5H3.98451V-2H5.48451ZM7.48451 -2H8.98451V-3.5H7.48451V-2ZM5.48451 4V5.5H6.98451V4H5.48451ZM-2.5 4V2.5H-4V4H-2.5ZM-2.5 6H-4V7.5H-2.5V6ZM5.48451 6H6.98451V4.5H5.48451V6ZM5.48451 12H3.98451V13.5H5.48451V12ZM7.48451 12V13.5H8.98451V12H7.48451ZM7.48451 6V4.5H5.98451V6H7.48451ZM15.5 6V7.5H17V6H15.5ZM15.5 4H17V2.5H15.5V4ZM7.48451 4H5.98451V5.5H7.48451V4ZM5.48451 -0.5H7.48451V-3.5H5.48451V-0.5ZM6.98451 4V-2H3.98451V4H6.98451ZM-2.5 5.5H5.48451V2.5H-2.5V5.5ZM-1 6V4H-4V6H-1ZM5.48451 4.5H-2.5V7.5H5.48451V4.5ZM6.98451 12V6H3.98451V12H6.98451ZM7.48451 10.5H5.48451V13.5H7.48451V10.5ZM5.98451 6V12H8.98451V6H5.98451ZM15.5 4.5H7.48451V7.5H15.5V4.5ZM14 4V6H17V4H14ZM7.48451 5.5H15.5V2.5H7.48451V5.5ZM5.98451 -2V4H8.98451V-2H5.98451Z" fill="#F7FCFF" mask="url(#path-24-outside-1_701_21624)"/>
</g>
</g>
</g>
</g>
<rect x="1.75" y="1.25" width="23.5" height="17.5" stroke="black" stroke-opacity="0.1" stroke-width="0.5" shape-rendering="crispEdges"/>
</g>
<defs>
<filter id="filter0_dd_701_21624" x="0" y="0" width="27" height="21" filterUnits="userSpaceOnUse" color-interpolation-filters="sRGB">
<feFlood flood-opacity="0" result="BackgroundImageFix"/>
<feColorMatrix in="SourceAlpha" type="matrix" values="0 0 0 0 0 0 0 0 0 0 0 0 0 0 0 0 0 0 127 0" result="hardAlpha"/>
<feOffset dy="0.5"/>
<feGaussianBlur stdDeviation="0.75"/>
<feComposite in2="hardAlpha" operator="out"/>
<feColorMatrix type="matrix" values="0 0 0 0 0 0 0 0 0 0 0 0 0 0 0 0 0 0 0.1 0"/>
<feBlend mode="multiply" in2="BackgroundImageFix" result="effect1_dropShadow_701_21624"/>
<feColorMatrix in="SourceAlpha" type="matrix" values="0 0 0 0 0 0 0 0 0 0 0 0 0 0 0 0 0 0 127 0" result="hardAlpha"/>
<feOffset/>
<feGaussianBlur stdDeviation="0.5"/>
<feComposite in2="hardAlpha" operator="out"/>
<feColorMatrix type="matrix" values="0 0 0 0 0 0 0 0 0 0 0 0 0 0 0 0 0 0 0.11 0"/>
<feBlend mode="multiply" in2="effect1_dropShadow_701_21624" result="effect2_dropShadow_701_21624"/>
<feBlend mode="normal" in="SourceGraphic" in2="effect2_dropShadow_701_21624" result="shape"/>
</filter>
<clipPath id="clip0_701_21624">
<rect x="1.5" y="1" width="24" height="18" fill="white"/>
</clipPath>
</defs>
</svg>
