<svg width="27" height="21" viewBox="0 0 27 21" fill="none" xmlns="http://www.w3.org/2000/svg">
<g filter="url(#filter0_dd_701_23097)">
<g clip-path="url(#clip0_701_23097)">
<mask id="mask0_701_23097" style="mask-type:alpha" maskUnits="userSpaceOnUse" x="1" y="1" width="25" height="18">
<rect x="1.5" y="1" width="24" height="18" fill="white"/>
</mask>
<g mask="url(#mask0_701_23097)">
<path fill-rule="evenodd" clip-rule="evenodd" d="M1.5 1H25.5V19H1.5V1Z" fill="#C51918"/>
<path fill-rule="evenodd" clip-rule="evenodd" d="M4.5 4H22.5V16H4.5V4Z" fill="#4564F9"/>
<path d="M5.5 5H21.5V15H5.5V5Z" stroke="#CBDAFF" stroke-opacity="0.1" stroke-width="2"/>
<mask id="mask1_701_23097" style="mask-type:alpha" maskUnits="userSpaceOnUse" x="4" y="4" width="19" height="12">
<path fill-rule="evenodd" clip-rule="evenodd" d="M4.5 4H22.5V16H4.5V4Z" fill="white"/>
<path d="M5.5 5H21.5V15H5.5V5Z" stroke="white" stroke-width="2"/>
</mask>
<g mask="url(#mask1_701_23097)">
<path d="M13.875 4.75L14.4817 3.43301L13.8609 3.14704L13.2452 3.44392L13.875 4.75ZM13.875 4.75C14.4817 3.43301 14.4821 3.43321 14.4825 3.43341L14.4835 3.43385L14.4857 3.43488L14.4913 3.43746L14.5069 3.44479C14.5192 3.45064 14.5355 3.45841 14.5554 3.46809C14.5952 3.48743 14.6496 3.51444 14.7166 3.54897C14.8504 3.61794 15.0355 3.71753 15.255 3.8467C15.6907 4.10314 16.2782 4.48564 16.8729 4.9877C18.0091 5.94691 19.45 7.58228 19.45 9.81475C19.45 12.0187 18.0389 13.7404 16.9273 14.7787C16.3425 15.325 15.7637 15.7539 15.3335 16.0457C15.117 16.1926 14.9346 16.3071 14.8031 16.3867C14.7372 16.4266 14.6839 16.4578 14.6451 16.4802C14.6257 16.4913 14.6099 16.5003 14.598 16.507L14.5831 16.5153L14.5779 16.5182L14.5759 16.5193L14.575 16.5198C14.5746 16.5201 14.5742 16.5203 13.875 15.25M13.875 4.75C13.2452 3.44392 13.2448 3.44412 13.2444 3.44432L13.2434 3.44476L13.2413 3.44579L13.2359 3.44841L13.2207 3.4559C13.2086 3.4619 13.1926 3.46989 13.1729 3.47985C13.1336 3.49977 13.0797 3.52762 13.0133 3.56321C12.8806 3.63427 12.6967 3.73676 12.4785 3.86906C12.0454 4.13177 11.4614 4.5215 10.8702 5.02695C9.7494 5.98526 8.3 7.62106 8.3 9.81475C8.3 11.9791 9.71856 13.7021 10.8167 14.7397C11.3984 15.2893 11.974 15.7253 12.4019 16.0232C12.6172 16.1731 12.7985 16.2904 12.929 16.372C12.9943 16.4129 13.0472 16.445 13.0855 16.4678L13.1319 16.4952L13.1464 16.5037L13.1515 16.5066L13.1534 16.5077L13.1543 16.5082C13.1547 16.5084 13.155 16.5086 13.875 15.25M13.875 15.25L14.5742 16.5203L13.8614 16.9127L13.155 16.5086L13.875 15.25Z" stroke="#C1C9F1" stroke-opacity="0.1182" stroke-width="2.9"/>
<path d="M13.8 5.52759L14.4865 4.25041L13.784 3.87279L13.089 4.26391L13.8 5.52759ZM13.8 5.52759C14.4865 4.25041 14.487 4.25064 14.4874 4.25089L14.4884 4.25141L14.4906 4.25258L14.4957 4.25538L14.5093 4.26284C14.5198 4.26864 14.5332 4.2761 14.5492 4.2852C14.5813 4.3034 14.6242 4.32822 14.6763 4.35956C14.7803 4.42213 14.9223 4.51131 15.0896 4.62622C15.4217 4.85426 15.8672 5.19289 16.3176 5.63661C17.1914 6.49738 18.25 7.92269 18.25 9.82573C18.25 11.705 17.2138 13.198 16.3685 14.1194C15.929 14.5983 15.4937 14.9749 15.1687 15.2322C15.0051 15.3617 14.8665 15.4632 14.7654 15.5346C14.7148 15.5704 14.6734 15.5987 14.6426 15.6194L14.6046 15.6447L14.5919 15.6529L14.5872 15.656L14.5853 15.6572L14.5845 15.6578C14.5841 15.658 14.5837 15.6583 13.8 14.4383M13.8 5.52759C13.089 4.26391 13.0885 4.26414 13.0881 4.26439L13.0872 4.26491L13.0851 4.26607L13.0802 4.26888L13.067 4.27643L13.0279 4.29927C12.9965 4.3179 12.9542 4.34338 12.9028 4.37553C12.8 4.43974 12.6595 4.53119 12.4936 4.64854C12.1645 4.88144 11.7227 5.22562 11.2759 5.6714C10.4159 6.52941 9.35002 7.95449 9.35002 9.82573C9.35002 11.6723 10.3926 13.1661 11.226 14.0849C11.6623 14.566 12.0945 14.948 12.4169 15.21C12.5792 15.3418 12.7165 15.4456 12.8164 15.5185C12.8665 15.555 12.9074 15.584 12.9376 15.605L12.9748 15.6307L12.9871 15.639L12.9916 15.642L12.9934 15.6433L12.9943 15.6438C12.9946 15.6441 12.995 15.6443 13.8 14.4383M13.8 14.4383L14.5837 15.6583L13.7848 16.1715L12.995 15.6443L13.8 14.4383Z" fill="#CCE0E5"/>
<path d="M13.8 5.52759L14.4865 4.25041L13.784 3.87279L13.089 4.26391L13.8 5.52759ZM13.8 5.52759C14.4865 4.25041 14.487 4.25064 14.4874 4.25089L14.4884 4.25141L14.4906 4.25258L14.4957 4.25538L14.5093 4.26284C14.5198 4.26864 14.5332 4.2761 14.5492 4.2852C14.5813 4.3034 14.6242 4.32822 14.6763 4.35956C14.7803 4.42213 14.9223 4.51131 15.0896 4.62622C15.4217 4.85426 15.8672 5.19289 16.3176 5.63661C17.1914 6.49738 18.25 7.92269 18.25 9.82573C18.25 11.705 17.2138 13.198 16.3685 14.1194C15.929 14.5983 15.4937 14.9749 15.1687 15.2322C15.0051 15.3617 14.8665 15.4632 14.7654 15.5346C14.7148 15.5704 14.6734 15.5987 14.6426 15.6194L14.6046 15.6447L14.5919 15.6529L14.5872 15.656L14.5853 15.6572L14.5845 15.6578C14.5841 15.658 14.5837 15.6583 13.8 14.4383M13.8 5.52759C13.089 4.26391 13.0885 4.26414 13.0881 4.26439L13.0872 4.26491L13.0851 4.26607L13.0802 4.26888L13.067 4.27643L13.0279 4.29927C12.9965 4.3179 12.9542 4.34338 12.9028 4.37553C12.8 4.43974 12.6595 4.53119 12.4936 4.64854C12.1645 4.88144 11.7227 5.22562 11.2759 5.6714C10.4159 6.52941 9.35002 7.95449 9.35002 9.82573C9.35002 11.6723 10.3926 13.1661 11.226 14.0849C11.6623 14.566 12.0945 14.948 12.4169 15.21C12.5792 15.3418 12.7165 15.4456 12.8164 15.5185C12.8665 15.555 12.9074 15.584 12.9376 15.605L12.9748 15.6307L12.9871 15.639L12.9916 15.642L12.9934 15.6433L12.9943 15.6438C12.9946 15.6441 12.995 15.6443 13.8 14.4383M13.8 14.4383L14.5837 15.6583L13.7848 16.1715L12.995 15.6443L13.8 14.4383Z" stroke="#C1C9F1" stroke-opacity="0.748217" stroke-width="2.9"/>
<path d="M13.8 5.52759L14.4865 4.25041L13.784 3.87279L13.089 4.26391L13.8 5.52759ZM13.8 5.52759C14.4865 4.25041 14.487 4.25064 14.4874 4.25089L14.4884 4.25141L14.4906 4.25258L14.4957 4.25538L14.5093 4.26284C14.5198 4.26864 14.5332 4.2761 14.5492 4.2852C14.5813 4.3034 14.6242 4.32822 14.6763 4.35956C14.7803 4.42213 14.9223 4.51131 15.0896 4.62622C15.4217 4.85426 15.8672 5.19289 16.3176 5.63661C17.1914 6.49738 18.25 7.92269 18.25 9.82573C18.25 11.705 17.2138 13.198 16.3685 14.1194C15.929 14.5983 15.4937 14.9749 15.1687 15.2322C15.0051 15.3617 14.8665 15.4632 14.7654 15.5346C14.7148 15.5704 14.6734 15.5987 14.6426 15.6194L14.6046 15.6447L14.5919 15.6529L14.5872 15.656L14.5853 15.6572L14.5845 15.6578C14.5841 15.658 14.5837 15.6583 13.8 14.4383M13.8 5.52759C13.089 4.26391 13.0885 4.26414 13.0881 4.26439L13.0872 4.26491L13.0851 4.26607L13.0802 4.26888L13.067 4.27643L13.0279 4.29927C12.9965 4.3179 12.9542 4.34338 12.9028 4.37553C12.8 4.43974 12.6595 4.53119 12.4936 4.64854C12.1645 4.88144 11.7227 5.22562 11.2759 5.6714C10.4159 6.52941 9.35002 7.95449 9.35002 9.82573C9.35002 11.6723 10.3926 13.1661 11.226 14.0849C11.6623 14.566 12.0945 14.948 12.4169 15.21C12.5792 15.3418 12.7165 15.4456 12.8164 15.5185C12.8665 15.555 12.9074 15.584 12.9376 15.605L12.9748 15.6307L12.9871 15.639L12.9916 15.642L12.9934 15.6433L12.9943 15.6438C12.9946 15.6441 12.995 15.6443 13.8 14.4383M13.8 14.4383L14.5837 15.6583L13.7848 16.1715L12.995 15.6443L13.8 14.4383Z" stroke="#C51918" stroke-width="2.9"/>
<mask id="mask2_701_23097" style="mask-type:alpha" maskUnits="userSpaceOnUse" x="10" y="5" width="7" height="10">
<path d="M14.2316 12.1588C14.0897 12.3135 13.9469 12.4545 13.8111 12.5799C13.6702 12.4479 13.5216 12.2994 13.374 12.1366C12.7075 11.4017 12.25 10.5892 12.25 9.82573C12.25 9.08691 12.6841 8.36291 13.3241 7.72437C13.4896 7.55931 13.6565 7.41257 13.8119 7.28646C13.9622 7.40624 14.123 7.5455 14.2824 7.70253C14.9087 8.31944 15.35 9.0432 15.35 9.82573C15.35 10.6321 14.8862 11.4453 14.2316 12.1588Z" fill="white"/>
<path d="M14.2316 12.1588C14.0897 12.3135 13.9469 12.4545 13.8111 12.5799C13.6702 12.4479 13.5216 12.2994 13.374 12.1366C12.7075 11.4017 12.25 10.5892 12.25 9.82573C12.25 9.08691 12.6841 8.36291 13.3241 7.72437C13.4896 7.55931 13.6565 7.41257 13.8119 7.28646C13.9622 7.40624 14.123 7.5455 14.2824 7.70253C14.9087 8.31944 15.35 9.0432 15.35 9.82573C15.35 10.6321 14.8862 11.4453 14.2316 12.1588Z" stroke="white" stroke-width="2.9"/>
</mask>
<g mask="url(#mask2_701_23097)">
<rect x="11.2" y="11.5" width="5.6" height="1.125" fill="#91CBCB"/>
<path fill-rule="evenodd" clip-rule="evenodd" d="M11.7013 12.3985C11.7013 12.3985 15.6719 12.3999 16.0368 12.2629C16.4017 12.1258 15.3517 14.8935 14.0101 14.8935C12.6684 14.8935 11.7013 12.3985 11.7013 12.3985Z" fill="#FDF9A1"/>
<path d="M15.4452 12.0663L14.7319 12.6152C13.6078 11.1543 13.1362 9.643 13.3375 8.10059L14.2299 8.21704C14.0613 9.50893 14.4597 10.7856 15.4452 12.0663Z" fill="#A68861"/>
<path fill-rule="evenodd" clip-rule="evenodd" d="M13.7952 8.22751L13.1482 8.98561C13.1142 9.0255 13.0495 8.99274 13.0615 8.94169L13.2838 7.99776H12.2789C12.2248 7.99776 12.2093 7.9237 12.2589 7.90196L13.1138 7.52714L12.495 6.71126C12.4645 6.67106 12.506 6.61613 12.553 6.63446L13.527 7.01414L13.7466 6.1305C13.7592 6.07988 13.8311 6.07993 13.8436 6.13056L14.0621 7.01414L15.0239 6.63967C15.0719 6.62098 15.1134 6.67831 15.0806 6.71806L14.4139 7.52714L15.3179 7.90156C15.3684 7.9225 15.3534 7.99776 15.2987 7.99776H14.4139L14.5521 8.97228C14.5591 9.02184 14.497 9.04983 14.4645 9.01176L13.7952 8.22751Z" fill="#239E46"/>
<path fill-rule="evenodd" clip-rule="evenodd" d="M13.2 10.75H16.8V11.5375H13.2V10.75Z" fill="#239E46"/>
<path fill-rule="evenodd" clip-rule="evenodd" d="M12.654 10.2944H12.6504C12.64 10.333 12.6146 10.365 12.5742 10.3906C12.5338 10.4162 12.4816 10.429 12.4176 10.429C12.3664 10.429 12.3194 10.4198 12.2766 10.4013C12.2338 10.3828 12.1972 10.3556 12.1668 10.3198C12.1364 10.2839 12.1126 10.2394 12.0954 10.1863C12.0782 10.1331 12.0696 10.0719 12.0696 10.0026C12.0696 9.93409 12.078 9.87326 12.0948 9.8201C12.1116 9.76694 12.1356 9.72245 12.1668 9.68662C12.198 9.65079 12.2356 9.62342 12.2796 9.60452C12.3236 9.58562 12.3724 9.57617 12.426 9.57617C12.5012 9.57617 12.564 9.59271 12.6144 9.62578C12.6648 9.65886 12.7036 9.70257 12.7308 9.7569L12.648 9.80652C12.6288 9.76242 12.6002 9.72777 12.5622 9.70257C12.5242 9.67737 12.4788 9.66477 12.426 9.66477C12.3892 9.66477 12.3556 9.67126 12.3252 9.68426C12.2948 9.69725 12.2686 9.71556 12.2466 9.73918C12.2246 9.76281 12.2076 9.79116 12.1956 9.82423C12.1836 9.85731 12.1776 9.89432 12.1776 9.93527V10.0688C12.1776 10.1097 12.1836 10.1469 12.1956 10.1804C12.2076 10.2139 12.2246 10.2424 12.2466 10.266C12.2686 10.2896 12.2956 10.308 12.3276 10.321C12.3596 10.3339 12.3956 10.3404 12.4356 10.3404C12.4644 10.3404 12.4918 10.3367 12.5178 10.3292C12.5438 10.3217 12.5666 10.3105 12.5862 10.2956C12.6058 10.2806 12.6212 10.2619 12.6324 10.2394C12.6436 10.217 12.6492 10.1904 12.6492 10.1597V10.0782H12.4644V9.99079H12.7476V10.4149H12.654V10.2944ZM13.2804 9.59035V10.1006C13.2804 10.1794 13.2952 10.239 13.3248 10.2796C13.3544 10.3202 13.4064 10.3404 13.4808 10.3404C13.5552 10.3404 13.6072 10.3202 13.6368 10.2796C13.6664 10.239 13.6812 10.1794 13.6812 10.1006V9.59035H13.782V10.077C13.782 10.1369 13.7766 10.1888 13.7658 10.2329C13.755 10.277 13.7376 10.3137 13.7136 10.3428C13.6896 10.3719 13.6582 10.3936 13.6194 10.4078C13.5806 10.4219 13.5332 10.429 13.4772 10.429C13.4212 10.429 13.3742 10.4219 13.3362 10.4078C13.2982 10.3936 13.2676 10.3719 13.2444 10.3428C13.2212 10.3137 13.2046 10.277 13.1946 10.2329C13.1846 10.1888 13.1796 10.1369 13.1796 10.077V9.59035H13.2804ZM14.748 10.4149L14.664 10.1715H14.3256L14.2416 10.4149H14.1396L14.4324 9.59035H14.5608L14.8536 10.4149H14.748ZM14.4972 9.68248H14.4912L14.3496 10.0841H14.6388L14.4972 9.68248ZM15.8856 9.72028H15.8796L15.8088 9.85849L15.6084 10.2176L15.408 9.85849L15.3372 9.72028H15.3312V10.4149H15.2328V9.59035H15.3672L15.6072 10.0345H15.6132L15.8544 9.59035H15.984V10.4149H15.8856V9.72028Z" fill="#C51918"/>
</g>
</g>
</g>
</g>
<rect x="1.75" y="1.25" width="23.5" height="17.5" stroke="black" stroke-opacity="0.1" stroke-width="0.5" shape-rendering="crispEdges"/>
</g>
<defs>
<filter id="filter0_dd_701_23097" x="0" y="0" width="27" height="21" filterUnits="userSpaceOnUse" color-interpolation-filters="sRGB">
<feFlood flood-opacity="0" result="BackgroundImageFix"/>
<feColorMatrix in="SourceAlpha" type="matrix" values="0 0 0 0 0 0 0 0 0 0 0 0 0 0 0 0 0 0 127 0" result="hardAlpha"/>
<feOffset dy="0.5"/>
<feGaussianBlur stdDeviation="0.75"/>
<feComposite in2="hardAlpha" operator="out"/>
<feColorMatrix type="matrix" values="0 0 0 0 0 0 0 0 0 0 0 0 0 0 0 0 0 0 0.1 0"/>
<feBlend mode="multiply" in2="BackgroundImageFix" result="effect1_dropShadow_701_23097"/>
<feColorMatrix in="SourceAlpha" type="matrix" values="0 0 0 0 0 0 0 0 0 0 0 0 0 0 0 0 0 0 127 0" result="hardAlpha"/>
<feOffset/>
<feGaussianBlur stdDeviation="0.5"/>
<feComposite in2="hardAlpha" operator="out"/>
<feColorMatrix type="matrix" values="0 0 0 0 0 0 0 0 0 0 0 0 0 0 0 0 0 0 0.11 0"/>
<feBlend mode="multiply" in2="effect1_dropShadow_701_23097" result="effect2_dropShadow_701_23097"/>
<feBlend mode="normal" in="SourceGraphic" in2="effect2_dropShadow_701_23097" result="shape"/>
</filter>
<clipPath id="clip0_701_23097">
<rect x="1.5" y="1" width="24" height="18" fill="white"/>
</clipPath>
</defs>
</svg>
