<svg width="27" height="21" viewBox="0 0 27 21" fill="none" xmlns="http://www.w3.org/2000/svg">
<g filter="url(#filter0_dd_701_21843)">
<g clip-path="url(#clip0_701_21843)">
<mask id="mask0_701_21843" style="mask-type:alpha" maskUnits="userSpaceOnUse" x="1" y="1" width="25" height="18">
<rect x="1.5" y="1" width="24" height="18" fill="white"/>
</mask>
<g mask="url(#mask0_701_21843)">
<path fill-rule="evenodd" clip-rule="evenodd" d="M1.5 1H25.5V19H1.5V1Z" fill="#E8AA00"/>
<path fill-rule="evenodd" clip-rule="evenodd" d="M4.5 4H22.5V16H4.5V4Z" fill="#C51918"/>
<mask id="mask1_701_21843" style="mask-type:alpha" maskUnits="userSpaceOnUse" x="4" y="4" width="19" height="12">
<path fill-rule="evenodd" clip-rule="evenodd" d="M4.5 4H22.5V16H4.5V4Z" fill="white"/>
</mask>
<g mask="url(#mask1_701_21843)">
<path fill-rule="evenodd" clip-rule="evenodd" d="M16.673 12.8136C16.9789 12.8136 17.2269 12.5595 17.2269 12.246C17.2269 11.9326 16.9789 11.6785 16.673 11.6785C16.3672 11.6785 16.1192 11.9326 16.1192 12.246C16.1192 12.5595 16.3672 12.8136 16.673 12.8136Z" fill="#1E5E91"/>
<path fill-rule="evenodd" clip-rule="evenodd" d="M9.47067 10.2489C8.01774 8.56027 10.1001 5.62988 10.1001 5.62988C10.1001 5.62988 10.4114 7.38005 11.5637 8.55774C11.5637 8.64136 11.4549 8.76475 11.3447 8.88967C11.2678 8.97691 11.1902 9.06489 11.1485 9.14061C11.0472 9.32475 11.395 9.4297 11.5637 9.4297C11.6394 9.4297 11.6812 9.53949 11.719 9.63858C11.7653 9.76026 11.8056 9.8658 11.8948 9.73209C12.0567 9.4895 11.7329 8.95647 11.7329 8.95647L12.2455 8.41572L12.4189 8.06616H12.2455V7.70628L12.1241 7.80604C12.1241 7.80604 11.9908 7.48426 11.7329 7.48426C11.475 7.48426 11.395 7.33711 11.395 7.33711H11.7329C11.9021 7.33711 11.7058 7.11294 11.5637 6.99617C11.5 6.94383 11.4033 6.96188 11.3161 6.97817C11.2087 6.99822 11.1155 7.01562 11.1155 6.89582C11.1155 6.76452 11.2177 6.74712 11.3358 6.72702C11.413 6.71389 11.497 6.69959 11.5637 6.65159C11.674 6.5722 11.8226 6.59661 11.9835 6.62303C12.0687 6.63703 12.1573 6.65159 12.2455 6.65159H12.6633C12.8141 6.65159 12.4189 6.89582 12.4189 6.89582L12.6633 7.11294L13.0266 7.48426L12.8449 7.59211L13.2199 7.95571C13.2199 7.95571 13.0926 8.16265 13.2199 8.16265C13.2723 8.16265 13.3069 8.20565 13.3293 8.25619C13.3518 8.20565 13.3863 8.16265 13.4387 8.16265C13.566 8.16265 13.4387 7.95571 13.4387 7.95571L13.8137 7.59211L13.632 7.48426L13.9953 7.11294L14.2397 6.89582C14.2397 6.89582 13.8445 6.65159 13.9953 6.65159H14.4131C14.5013 6.65159 14.5899 6.63703 14.6752 6.62303C14.836 6.59661 14.9847 6.5722 15.0949 6.65159C15.1616 6.69959 15.2456 6.71389 15.3228 6.72702C15.4409 6.74712 15.5431 6.76452 15.5431 6.89582C15.5431 7.01562 15.45 6.99822 15.3425 6.97817C15.2553 6.96188 15.1586 6.94383 15.0949 6.99617C14.9528 7.11294 14.7566 7.33711 14.9257 7.33711H15.2636C15.2636 7.33711 15.1836 7.48426 14.9257 7.48426C14.6678 7.48426 14.5346 7.80604 14.5346 7.80604L14.4131 7.70628V8.06616H14.2397L14.4131 8.41572L14.9257 8.95647C14.9257 8.95647 14.6019 9.4895 14.7638 9.73209C14.8531 9.8658 14.8933 9.76026 14.9396 9.63858C14.9774 9.53949 15.0192 9.4297 15.0949 9.4297C15.2636 9.4297 15.6114 9.32475 15.5101 9.14061C15.4684 9.06489 15.3908 8.97691 15.3139 8.88967C15.2037 8.76475 15.0949 8.64136 15.0949 8.55774C16.2472 7.38005 16.5585 5.62988 16.5585 5.62988C16.5585 5.62988 18.6409 8.56027 17.1879 10.2489C15.735 11.9374 14.6678 11.4283 14.6678 11.4283L15.2636 11.9625L15.0949 12.1084H15.5913L15.4088 12.2305L15.5431 12.2893L15.6854 12.3516C15.6854 12.3516 15.3019 12.6336 15.6854 12.6336C15.7459 12.6336 15.8101 12.6318 15.8761 12.63C15.9484 12.628 16.023 12.6259 16.0975 12.626C16.1176 12.6261 16.0727 12.5155 16.0282 12.406C15.9843 12.2978 15.9407 12.1906 15.9604 12.1914C16.0018 12.1932 16.0832 12.2915 16.165 12.3902C16.2301 12.4688 16.2954 12.5476 16.3408 12.578C16.37 12.5975 16.4842 12.5579 16.5899 12.5212C16.6794 12.4901 16.7628 12.4611 16.7839 12.4718C16.873 12.5167 16.8502 12.6078 16.8285 12.6945C16.8229 12.7168 16.8174 12.7388 16.8139 12.7597C16.8107 12.7787 16.9249 12.7046 17.0451 12.6266C17.1712 12.5448 17.3039 12.4587 17.314 12.4718C17.3161 12.4745 17.3184 12.4773 17.3208 12.4801C17.3637 12.5317 17.4328 12.6149 16.9228 13.0079C16.9228 13.0835 16.9254 13.1452 16.9276 13.1953C16.9346 13.3561 16.9364 13.3978 16.8275 13.3978C16.7789 13.3978 16.711 13.4218 16.6324 13.4497C16.4307 13.5212 16.1582 13.6178 15.9604 13.3978C15.6854 13.092 15.2636 12.6336 15.2636 12.6336V12.8589L14.7638 12.3516L14.6678 12.6336L13.9953 11.8612L13.8137 11.9625C13.8137 11.9625 14.4327 13.6707 14.7638 13.6826C14.9284 13.6885 14.6785 13.8482 14.3475 14.0597C14.0125 14.2738 13.5943 14.5411 13.4387 14.7557C13.3924 14.8196 13.3567 14.7222 13.3293 14.5104C13.3019 14.7222 13.2662 14.8196 13.2199 14.7557C13.0643 14.5411 12.6461 14.2738 12.3111 14.0597C11.9801 13.8482 11.7303 13.6885 11.8948 13.6826C12.2259 13.6707 12.8449 11.9625 12.8449 11.9625L12.6633 11.8612L11.9908 12.6336L11.8948 12.3516L11.395 12.8589V12.6336C11.395 12.6336 10.9732 13.092 10.6982 13.3978C10.5004 13.6178 10.228 13.5212 10.0262 13.4497C9.94758 13.4218 9.87967 13.3978 9.83113 13.3978C9.65811 13.3978 9.6002 13.1557 9.83113 12.8589C10.0256 12.6089 10.4306 12.6202 10.7826 12.63C10.8486 12.6318 10.9127 12.6336 10.9732 12.6336C11.3567 12.6336 10.9732 12.3516 10.9732 12.3516L11.1155 12.2893L11.2498 12.2305L11.0673 12.1084H11.5637L11.395 11.9625L11.9908 11.4283C11.9908 11.4283 10.9236 11.9374 9.47067 10.2489Z" fill="#F6C540"/>
<path fill-rule="evenodd" clip-rule="evenodd" d="M10.8248 13.7728L10.1685 12.6221C10.1685 12.6221 9.31033 10.6435 9.31033 10.4033C9.31033 10.1631 8.96487 9.45172 8.96487 9.65822C8.96487 9.86472 8.96487 10.4033 8.96487 10.4033L10.4127 13.6651V13.9221H10.6077L10.8248 13.7728Z" fill="#F6C540"/>
<path d="M16.0814 12.2238L16.1812 11.8923L17.4007 12.2597L17.3008 12.5911L16.0814 12.2238Z" fill="#F6C540"/>
<path d="M16.7309 11.6204L17.0606 11.7283L16.7385 12.7618L16.4087 12.6539L16.7309 11.6204Z" fill="#F6C540"/>
<path fill-rule="evenodd" clip-rule="evenodd" d="M17.038 11.2832L16.9671 11.2671L16.9383 11.3811L16.808 11.3491L16.792 11.4187L16.9208 11.4503L16.888 11.5803L16.9588 11.5964L16.9914 11.4677L17.1195 11.4991L17.1355 11.4295L17.0089 11.3984L17.038 11.2832Z" fill="#F6C540"/>
<path fill-rule="evenodd" clip-rule="evenodd" d="M13.2708 4.91699L13.3064 5.04135H13.4147L13.4504 4.91699C13.5405 4.94411 13.6222 4.97498 13.6955 5.00943L13.698 4.9822C14.2769 5.03508 14.5773 5.27738 14.5451 5.70341C14.5184 6.05606 14.3399 6.24081 14.0423 6.23608V6.49949C14.0423 6.49949 13.5577 6.68552 13.3154 6.68552C13.0731 6.68552 12.5885 6.49949 12.5885 6.49949V6.23163C12.3434 6.20132 12.197 6.02004 12.1731 5.70341C12.1409 5.27738 12.4413 5.03508 13.0202 4.9822L13.0228 5.01079C13.0968 4.97579 13.1795 4.94447 13.2708 4.91699ZM12.658 6.00021C12.6253 6.00934 12.6024 6.01608 12.5931 6.01884C12.4602 5.99392 12.3953 5.88773 12.3802 5.68824C12.365 5.48656 12.4598 5.34625 12.6832 5.26532C12.5308 5.46041 12.5196 5.70857 12.658 6.00021ZM12.8643 5.94645C12.9865 5.9171 13.1278 5.88793 13.241 5.8779V5.1499C12.7761 5.31304 12.6644 5.56263 12.8643 5.94645ZM13.4487 5.88445C13.6045 5.90487 13.7936 5.95167 13.9159 5.98459L13.8546 5.95077C14.0621 5.55594 13.9417 5.30262 13.4487 5.13915V5.88445ZM14.0392 5.26686C14.1947 5.46713 14.2018 5.72315 14.0514 6.02457C14.2345 6.02732 14.3203 5.92163 14.3379 5.68824C14.3531 5.48783 14.2596 5.34801 14.0392 5.26686Z" fill="#F6C540"/>
<path fill-rule="evenodd" clip-rule="evenodd" d="M13.3154 5.1394C13.4492 5.1394 13.5577 5.03092 13.5577 4.89709C13.5577 4.76327 13.4492 4.65479 13.3154 4.65479C13.1815 4.65479 13.0731 4.76327 13.0731 4.89709C13.0731 5.03092 13.1815 5.1394 13.3154 5.1394Z" fill="#3D58DB"/>
<path fill-rule="evenodd" clip-rule="evenodd" d="M13.3491 4.37365L13.2764 4.37513L13.2761 4.49272L13.1419 4.4932L13.1432 4.56459L13.2759 4.56412L13.2754 4.69815L13.3481 4.69668L13.3485 4.56386L13.4805 4.56339L13.4792 4.492L13.3488 4.49246L13.3491 4.37365Z" fill="#F6C540"/>
<path fill-rule="evenodd" clip-rule="evenodd" d="M11.9654 8.76966C11.9654 8.76966 12.8186 8.60864 13.2808 8.60864C13.6956 8.60864 14.5961 8.76966 14.5961 8.76966C14.5961 9.7897 14.8832 10.4142 14.5961 11.1109C14.3091 11.8076 13.6076 11.4727 13.2901 12.1394C12.8844 11.507 12.3364 11.8551 11.9654 10.9546C11.5944 10.0541 12.1909 9.63941 11.9654 8.76966Z" fill="#1E5E91"/>
<mask id="mask2_701_21843" style="mask-type:alpha" maskUnits="userSpaceOnUse" x="11" y="8" width="4" height="5">
<path fill-rule="evenodd" clip-rule="evenodd" d="M11.9654 8.76966C11.9654 8.76966 12.8186 8.60864 13.2808 8.60864C13.6956 8.60864 14.5961 8.76966 14.5961 8.76966C14.5961 9.7897 14.8832 10.4142 14.5961 11.1109C14.3091 11.8076 13.6076 11.4727 13.2901 12.1394C12.8844 11.507 12.3364 11.8551 11.9654 10.9546C11.5944 10.0541 12.1909 9.63941 11.9654 8.76966Z" fill="white"/>
</mask>
<g mask="url(#mask2_701_21843)">
<rect x="11.9654" y="10.8979" width="2.63077" height="1.27703" fill="#5EAA22"/>
<path fill-rule="evenodd" clip-rule="evenodd" d="M12.7432 9.27243C12.6427 9.05879 13.2714 9.03394 13.2714 9.03394C13.2714 9.03394 13.407 9.27243 13.2714 9.6118C13.1728 9.8586 13.3373 9.83659 13.5642 9.80623C13.6493 9.79484 13.7432 9.78228 13.8353 9.78228C13.9763 9.78228 14.0505 9.77194 14.1122 9.7951C14.1981 9.82738 14.2596 9.92474 14.4434 10.2059C14.5273 10.3342 14.5236 10.4188 14.473 10.4693C14.4774 10.5999 14.3352 10.7082 14.0725 10.7775L14.038 10.6401C14.1769 10.6034 14.262 10.5683 14.3016 10.5296C14.1036 10.5417 13.8353 10.4438 13.8353 10.3181C13.8353 10.1322 13.2015 10.1713 12.8202 10.1949C12.723 10.2009 12.6423 10.2059 12.5925 10.2059C12.3707 10.2059 12.5408 9.93483 12.6955 9.68816C12.7118 9.66232 12.7278 9.63676 12.7432 9.6118C12.8227 9.48301 12.8485 9.45014 12.8423 9.42515C12.8359 9.39906 12.7946 9.38157 12.7432 9.27243ZM14.2515 9.23936C13.8716 9.17906 13.6586 9.23739 13.6586 9.44995C13.6586 9.65226 13.8608 9.73999 14.2306 9.73864C14.245 9.74333 14.2577 9.74796 14.2685 9.75245C14.2546 9.75899 14.2378 9.76592 14.218 9.77307L14.2639 9.90691C14.4971 9.82283 14.4971 9.6732 14.2611 9.59974L14.2509 9.5966L14.2404 9.59668C13.9329 9.59923 13.797 9.54157 13.797 9.44995C13.797 9.36659 13.926 9.33127 14.2303 9.37958L14.2515 9.23936Z" fill="#F6C540"/>
</g>
</g>
</g>
</g>
<rect x="1.75" y="1.25" width="23.5" height="17.5" stroke="black" stroke-opacity="0.1" stroke-width="0.5" shape-rendering="crispEdges"/>
</g>
<defs>
<filter id="filter0_dd_701_21843" x="0" y="0" width="27" height="21" filterUnits="userSpaceOnUse" color-interpolation-filters="sRGB">
<feFlood flood-opacity="0" result="BackgroundImageFix"/>
<feColorMatrix in="SourceAlpha" type="matrix" values="0 0 0 0 0 0 0 0 0 0 0 0 0 0 0 0 0 0 127 0" result="hardAlpha"/>
<feOffset dy="0.5"/>
<feGaussianBlur stdDeviation="0.75"/>
<feComposite in2="hardAlpha" operator="out"/>
<feColorMatrix type="matrix" values="0 0 0 0 0 0 0 0 0 0 0 0 0 0 0 0 0 0 0.1 0"/>
<feBlend mode="multiply" in2="BackgroundImageFix" result="effect1_dropShadow_701_21843"/>
<feColorMatrix in="SourceAlpha" type="matrix" values="0 0 0 0 0 0 0 0 0 0 0 0 0 0 0 0 0 0 127 0" result="hardAlpha"/>
<feOffset/>
<feGaussianBlur stdDeviation="0.5"/>
<feComposite in2="hardAlpha" operator="out"/>
<feColorMatrix type="matrix" values="0 0 0 0 0 0 0 0 0 0 0 0 0 0 0 0 0 0 0.11 0"/>
<feBlend mode="multiply" in2="effect1_dropShadow_701_21843" result="effect2_dropShadow_701_21843"/>
<feBlend mode="normal" in="SourceGraphic" in2="effect2_dropShadow_701_21843" result="shape"/>
</filter>
<clipPath id="clip0_701_21843">
<rect x="1.5" y="1" width="24" height="18" fill="white"/>
</clipPath>
</defs>
</svg>
