<svg width="27" height="21" viewBox="0 0 27 21" fill="none" xmlns="http://www.w3.org/2000/svg">
<g filter="url(#filter0_dd_701_21573)">
<g clip-path="url(#clip0_701_21573)">
<mask id="mask0_701_21573" style="mask-type:alpha" maskUnits="userSpaceOnUse" x="1" y="1" width="25" height="18">
<rect x="1.5" y="1" width="24" height="18" fill="white"/>
</mask>
<g mask="url(#mask0_701_21573)">
<path fill-rule="evenodd" clip-rule="evenodd" d="M1.5 1V19H25.5V1H1.5Z" fill="#E11C1B"/>
<mask id="mask1_701_21573" style="mask-type:alpha" maskUnits="userSpaceOnUse" x="1" y="1" width="25" height="18">
<path fill-rule="evenodd" clip-rule="evenodd" d="M1.5 1V19H25.5V1H1.5Z" fill="white"/>
</mask>
<g mask="url(#mask1_701_21573)">
<path fill-rule="evenodd" clip-rule="evenodd" d="M1.5 1V8.5H25.5V1H1.5Z" fill="#272727"/>
<path fill-rule="evenodd" clip-rule="evenodd" d="M1.5 13V19H25.5V13H1.5Z" fill="#5EAA22"/>
<path fill-rule="evenodd" clip-rule="evenodd" d="M4.50123 9.95936V9.95753L4.49422 9.95873L4.50123 9.95936ZM4.97257 7.09505H5.04982L4.93143 7.07692L4.97257 7.09505ZM7.16821 7.09505C7.20748 7.01957 7.24848 6.94491 7.29116 6.8711L5.57408 5.73447L7.59936 6.39329C7.71263 6.2349 7.83407 6.08133 7.96318 5.93302L6.47487 4.51604L8.3715 5.50575C8.51063 5.3729 8.65646 5.24538 8.80852 5.12358L7.60486 3.4608L9.30476 4.76122C9.46289 4.6561 9.62634 4.55665 9.7947 4.46322L8.92771 2.60266L10.3637 4.17895C10.5348 4.10243 10.7101 4.0318 10.889 3.96735L10.4009 1.96922L11.5128 3.77218C11.6918 3.72434 11.8739 3.6825 12.0587 3.64692L11.9771 1.58082L12.7167 3.54837C12.8993 3.52869 13.0841 3.51503 13.2708 3.50766L13.6057 1.44995L13.9406 3.50826C14.1271 3.51596 14.3117 3.52993 14.4941 3.54992L15.2342 1.58082L15.1526 3.64976C15.3367 3.68557 15.5181 3.7276 15.6965 3.77558L16.8105 1.96922L16.3211 3.97226C16.4991 4.0367 16.6733 4.10727 16.8434 4.18365L18.2837 2.60266L17.4136 4.46976C17.5806 4.56285 17.7428 4.66187 17.8997 4.76648L19.6065 3.4608L18.3974 5.13109C18.548 5.25214 18.6925 5.37882 18.8303 5.51075L20.7365 4.51604L19.2401 5.94073C19.3678 6.08787 19.4879 6.24016 19.6 6.39719L21.6373 5.73447L19.9095 6.87818C19.9507 6.94968 19.9904 7.02199 20.0284 7.09505H18.5547C17.5391 5.6873 15.6829 4.74483 13.5614 4.74483C11.4398 4.74483 9.58362 5.6873 8.56805 7.09505H7.16821ZM9.41975 7.09505C10.3819 6.10267 11.8927 5.46324 13.5915 5.46324C15.2903 5.46324 16.8011 6.10267 17.7633 7.09505H9.41975ZM22.1616 7.09505H22.2388L22.2799 7.07692L22.1616 7.09505ZM22.7112 9.95772L22.7172 9.95873L22.7112 9.95926V9.95772Z" fill="#E11C1B"/>
</g>
</g>
</g>
<rect x="1.75" y="1.25" width="23.5" height="17.5" stroke="black" stroke-opacity="0.1" stroke-width="0.5" shape-rendering="crispEdges"/>
</g>
<defs>
<filter id="filter0_dd_701_21573" x="0" y="0" width="27" height="21" filterUnits="userSpaceOnUse" color-interpolation-filters="sRGB">
<feFlood flood-opacity="0" result="BackgroundImageFix"/>
<feColorMatrix in="SourceAlpha" type="matrix" values="0 0 0 0 0 0 0 0 0 0 0 0 0 0 0 0 0 0 127 0" result="hardAlpha"/>
<feOffset dy="0.5"/>
<feGaussianBlur stdDeviation="0.75"/>
<feComposite in2="hardAlpha" operator="out"/>
<feColorMatrix type="matrix" values="0 0 0 0 0 0 0 0 0 0 0 0 0 0 0 0 0 0 0.1 0"/>
<feBlend mode="multiply" in2="BackgroundImageFix" result="effect1_dropShadow_701_21573"/>
<feColorMatrix in="SourceAlpha" type="matrix" values="0 0 0 0 0 0 0 0 0 0 0 0 0 0 0 0 0 0 127 0" result="hardAlpha"/>
<feOffset/>
<feGaussianBlur stdDeviation="0.5"/>
<feComposite in2="hardAlpha" operator="out"/>
<feColorMatrix type="matrix" values="0 0 0 0 0 0 0 0 0 0 0 0 0 0 0 0 0 0 0.11 0"/>
<feBlend mode="multiply" in2="effect1_dropShadow_701_21573" result="effect2_dropShadow_701_21573"/>
<feBlend mode="normal" in="SourceGraphic" in2="effect2_dropShadow_701_21573" result="shape"/>
</filter>
<clipPath id="clip0_701_21573">
<rect x="1.5" y="1" width="24" height="18" fill="white"/>
</clipPath>
</defs>
</svg>
