<svg width="27" height="21" viewBox="0 0 27 21" fill="none" xmlns="http://www.w3.org/2000/svg">
<g filter="url(#filter0_dd_701_24051)">
<g clip-path="url(#clip0_701_24051)">
<mask id="mask0_701_24051" style="mask-type:alpha" maskUnits="userSpaceOnUse" x="1" y="1" width="25" height="18">
<rect x="1.5" y="1" width="24" height="18" fill="white"/>
</mask>
<g mask="url(#mask0_701_24051)">
<path fill-rule="evenodd" clip-rule="evenodd" d="M1.5 1V19H25.5V1H1.5Z" fill="#279E19"/>
<mask id="mask1_701_24051" style="mask-type:alpha" maskUnits="userSpaceOnUse" x="1" y="1" width="25" height="18">
<path fill-rule="evenodd" clip-rule="evenodd" d="M1.5 1V19H25.5V1H1.5Z" fill="white"/>
</mask>
<g mask="url(#mask1_701_24051)">
<path fill-rule="evenodd" clip-rule="evenodd" d="M14.25 1H15.75V10.75H25.5V12.25H15.75V19H14.25V12.25H1.5V10.75H14.25V1Z" fill="#F7FCFF"/>
<path fill-rule="evenodd" clip-rule="evenodd" d="M12.75 1H14.25V9.25H25.5V10.75H14.25V19H12.75V10.75H1.5V9.25H12.75V1Z" fill="#272727"/>
<path fill-rule="evenodd" clip-rule="evenodd" d="M11.25 1H12.75V7.75H25.5V9.25H12.75V19H11.25V9.25H1.5V7.75H11.25V1Z" fill="#FECA00"/>
<path fill-rule="evenodd" clip-rule="evenodd" d="M13.5 16C16.8137 16 19.5 13.3137 19.5 10C19.5 6.68629 16.8137 4 13.5 4C10.1863 4 7.5 6.68629 7.5 10C7.5 13.3137 10.1863 16 13.5 16Z" fill="#C51918"/>
<path fill-rule="evenodd" clip-rule="evenodd" d="M12.5444 7.30966C12.5444 7.30966 12.8294 6.38497 13.4914 6.86268C14.5294 7.37395 14.8718 7.96133 15.2726 8.62651C15.6733 9.2917 14.29 8.80453 14.0319 8.43015C13.7738 8.05577 12.3424 7.93438 12.5444 7.62202C12.7465 7.30966 12.5444 7.30966 12.5444 7.30966Z" fill="#804BFF"/>
<path fill-rule="evenodd" clip-rule="evenodd" d="M12.3098 12.0441C12.3098 12.0441 11.6051 13.0082 12.3098 13.0082C13.0146 13.0082 15.8719 12.8008 15.5294 12.5261C15.1869 12.2515 12.6485 12.5261 12.6485 12.5261L12.3098 12.0441Z" fill="#A95601"/>
<path fill-rule="evenodd" clip-rule="evenodd" d="M13.3635 12.0137C13.3203 11.9649 12.6771 11.5425 12.4263 10.5764C12.2529 9.90854 12.3593 8.65925 12.6034 8.4117C13.2004 7.80608 13.5503 8.16195 13.5503 9.07008C13.5503 9.97821 13.5862 12.2381 13.3635 12.0137Z" fill="#804BFF"/>
<path fill-rule="evenodd" clip-rule="evenodd" d="M13.288 11.5408C13.288 11.5408 13.2139 12.2491 13.5781 13.0759C13.9424 13.9028 14.6781 13.8868 14.6781 13.2101C14.6781 12.5333 15.2151 13.1684 15.4213 13.6201C15.6274 14.0718 15.0935 9.60932 14.3358 8.61097C13.5781 7.61263 12.8471 7.54853 13.0675 8.19367C13.288 8.83881 13.288 11.5408 13.288 11.5408Z" fill="#279E19"/>
<path fill-rule="evenodd" clip-rule="evenodd" d="M12.8455 6.69995C12.8455 6.69995 12.525 6.90548 12.525 7.47159C12.525 8.03769 13.2838 7.29631 13.2838 7.29631L12.8455 6.69995Z" fill="#FECA00"/>
<mask id="path-15-inside-1_701_24051" fill="white">
<path fill-rule="evenodd" clip-rule="evenodd" d="M12.9137 6.4851L13.575 6.0137L14.2362 6.4851L13.9923 5.71053L14.6449 5.22731L13.8329 5.21999L13.575 4.44995L13.3171 5.21999L12.505 5.22731L13.1577 5.71053L12.9137 6.4851ZM15.106 6.76769L15.918 6.77501L16.1759 7.54505L16.4338 6.77501L17.2459 6.76769L16.5932 6.28447L16.8372 5.50991L16.1759 5.9813L15.5147 5.50991L15.7587 6.28447L15.106 6.76769ZM17.3661 8.76813L16.7135 8.2849L17.5255 8.27759L17.7834 7.50755L18.0413 8.27759L18.8533 8.2849L18.2007 8.76813L18.4447 9.54269L17.7834 9.0713L17.1221 9.54269L17.3661 8.76813ZM17.1221 10.4572L17.3661 11.2318L16.7135 11.715L17.5255 11.7223L17.7834 12.4923L18.0413 11.7223L18.8533 11.715L18.2007 11.2318L18.4447 10.4572L17.7834 10.9286L17.1221 10.4572ZM15.918 13.2249L16.1759 12.4548L16.4338 13.2249L17.2459 13.2322L16.5932 13.7154L16.8372 14.49L16.1759 14.0186L15.5147 14.49L15.7587 13.7154L15.106 13.2322L15.918 13.2249ZM14.2362 13.5148L13.575 13.9862L12.9137 13.5148L13.1577 14.2894L12.505 14.7726L13.3171 14.7799L13.575 15.5499L13.8329 14.7799L14.6449 14.7726L13.9923 14.2894L14.2362 13.5148ZM11.2319 13.2249L12.044 13.2322L11.3913 13.7154L11.6353 14.49L10.974 14.0186L10.3128 14.49L10.5568 13.7154L9.9041 13.2322L10.7161 13.2249L10.974 12.4548L11.2319 13.2249ZM10.4365 11.715L9.78384 11.2318L10.0278 10.4572L9.36656 10.9286L8.7053 10.4572L8.94929 11.2318L8.29662 11.715L9.10867 11.7223L9.36656 12.4923L9.62445 11.7223L10.4365 11.715ZM9.78384 8.76813L10.0278 9.54269L9.36656 9.0713L8.7053 9.54269L8.94929 8.76813L8.29662 8.2849L9.10867 8.27759L9.36656 7.50755L9.62445 8.27759L10.4365 8.2849L9.78384 8.76813ZM10.974 7.54505L11.2319 6.77501L12.044 6.76769L11.3913 6.28447L11.6353 5.50991L10.974 5.9813L10.3128 5.50991L10.5568 6.28447L9.9041 6.76769L10.7161 6.77501L10.974 7.54505Z"/>
</mask>
<path fill-rule="evenodd" clip-rule="evenodd" d="M12.9137 6.4851L13.575 6.0137L14.2362 6.4851L13.9923 5.71053L14.6449 5.22731L13.8329 5.21999L13.575 4.44995L13.3171 5.21999L12.505 5.22731L13.1577 5.71053L12.9137 6.4851ZM15.106 6.76769L15.918 6.77501L16.1759 7.54505L16.4338 6.77501L17.2459 6.76769L16.5932 6.28447L16.8372 5.50991L16.1759 5.9813L15.5147 5.50991L15.7587 6.28447L15.106 6.76769ZM17.3661 8.76813L16.7135 8.2849L17.5255 8.27759L17.7834 7.50755L18.0413 8.27759L18.8533 8.2849L18.2007 8.76813L18.4447 9.54269L17.7834 9.0713L17.1221 9.54269L17.3661 8.76813ZM17.1221 10.4572L17.3661 11.2318L16.7135 11.715L17.5255 11.7223L17.7834 12.4923L18.0413 11.7223L18.8533 11.715L18.2007 11.2318L18.4447 10.4572L17.7834 10.9286L17.1221 10.4572ZM15.918 13.2249L16.1759 12.4548L16.4338 13.2249L17.2459 13.2322L16.5932 13.7154L16.8372 14.49L16.1759 14.0186L15.5147 14.49L15.7587 13.7154L15.106 13.2322L15.918 13.2249ZM14.2362 13.5148L13.575 13.9862L12.9137 13.5148L13.1577 14.2894L12.505 14.7726L13.3171 14.7799L13.575 15.5499L13.8329 14.7799L14.6449 14.7726L13.9923 14.2894L14.2362 13.5148ZM11.2319 13.2249L12.044 13.2322L11.3913 13.7154L11.6353 14.49L10.974 14.0186L10.3128 14.49L10.5568 13.7154L9.9041 13.2322L10.7161 13.2249L10.974 12.4548L11.2319 13.2249ZM10.4365 11.715L9.78384 11.2318L10.0278 10.4572L9.36656 10.9286L8.7053 10.4572L8.94929 11.2318L8.29662 11.715L9.10867 11.7223L9.36656 12.4923L9.62445 11.7223L10.4365 11.715ZM9.78384 8.76813L10.0278 9.54269L9.36656 9.0713L8.7053 9.54269L8.94929 8.76813L8.29662 8.2849L9.10867 8.27759L9.36656 7.50755L9.62445 8.27759L10.4365 8.2849L9.78384 8.76813ZM10.974 7.54505L11.2319 6.77501L12.044 6.76769L11.3913 6.28447L11.6353 5.50991L10.974 5.9813L10.3128 5.50991L10.5568 6.28447L9.9041 6.76769L10.7161 6.77501L10.974 7.54505Z" fill="#279E19"/>
<path d="M13.575 6.0137L13.633 5.93227L13.575 5.89089L13.5169 5.93227L13.575 6.0137ZM12.9137 6.4851L12.8183 6.45505L12.7286 6.73985L12.9718 6.56652L12.9137 6.4851ZM14.2362 6.4851L14.1782 6.56652L14.4213 6.73985L14.3316 6.45505L14.2362 6.4851ZM13.9923 5.71053L13.9328 5.63016L13.8755 5.67258L13.8969 5.74058L13.9923 5.71053ZM14.6449 5.22731L14.7044 5.30768L14.9444 5.13L14.6458 5.12731L14.6449 5.22731ZM13.8329 5.21999L13.738 5.25175L13.7607 5.31935L13.832 5.31999L13.8329 5.21999ZM13.575 4.44995L13.6698 4.41819L13.575 4.13506L13.4802 4.41819L13.575 4.44995ZM13.3171 5.21999L13.318 5.31999L13.3893 5.31935L13.4119 5.25175L13.3171 5.21999ZM12.505 5.22731L12.5041 5.12731L12.2056 5.13L12.4455 5.30768L12.505 5.22731ZM13.1577 5.71053L13.2531 5.74058L13.2745 5.67258L13.2172 5.63016L13.1577 5.71053ZM15.918 6.77501L16.0129 6.74325L15.9902 6.67565L15.9189 6.67501L15.918 6.77501ZM15.106 6.76769L15.0465 6.68733L14.8065 6.865L15.1051 6.86769L15.106 6.76769ZM16.1759 7.54505L16.0811 7.57681L16.1759 7.85994L16.2708 7.57681L16.1759 7.54505ZM16.4338 6.77501L16.4329 6.67501L16.3616 6.67565L16.339 6.74325L16.4338 6.77501ZM17.2459 6.76769L17.2468 6.86769L17.5454 6.865L17.3054 6.68733L17.2459 6.76769ZM16.5932 6.28447L16.4978 6.25442L16.4764 6.32242L16.5337 6.36484L16.5932 6.28447ZM16.8372 5.50991L16.9326 5.53995L17.0223 5.25515L16.7791 5.42848L16.8372 5.50991ZM16.1759 5.9813L16.1179 6.06273L16.1759 6.10411L16.234 6.06273L16.1759 5.9813ZM15.5147 5.50991L15.5727 5.42848L15.3296 5.25515L15.4193 5.53995L15.5147 5.50991ZM15.7587 6.28447L15.8182 6.36484L15.8755 6.32242L15.854 6.25442L15.7587 6.28447ZM16.7135 8.2849L16.7126 8.18491L16.414 8.1876L16.654 8.36527L16.7135 8.2849ZM17.3661 8.76813L17.4615 8.79817L17.4829 8.73018L17.4256 8.68776L17.3661 8.76813ZM17.5255 8.27759L17.5264 8.37759L17.5977 8.37695L17.6203 8.30935L17.5255 8.27759ZM17.7834 7.50755L17.8782 7.47579L17.7834 7.19265L17.6886 7.47579L17.7834 7.50755ZM18.0413 8.27759L17.9465 8.30935L17.9691 8.37695L18.0404 8.37759L18.0413 8.27759ZM18.8533 8.2849L18.9128 8.36527L19.1528 8.1876L18.8542 8.18491L18.8533 8.2849ZM18.2007 8.76813L18.1412 8.68776L18.0839 8.73018L18.1053 8.79817L18.2007 8.76813ZM18.4447 9.54269L18.3866 9.62412L18.6298 9.79745L18.54 9.51265L18.4447 9.54269ZM17.7834 9.0713L17.8415 8.98987L17.7834 8.94849L17.7254 8.98987L17.7834 9.0713ZM17.1221 9.54269L17.0268 9.51265L16.9371 9.79745L17.1802 9.62412L17.1221 9.54269ZM17.3661 11.2318L17.4256 11.3121L17.4829 11.2697L17.4615 11.2017L17.3661 11.2318ZM17.1221 10.4572L17.1802 10.3758L16.9371 10.2024L17.0268 10.4872L17.1221 10.4572ZM16.7135 11.715L16.654 11.6346L16.414 11.8123L16.7126 11.815L16.7135 11.715ZM17.5255 11.7223L17.6203 11.6905L17.5977 11.6229L17.5264 11.6223L17.5255 11.7223ZM17.7834 12.4923L17.6886 12.5241L17.7834 12.8072L17.8782 12.5241L17.7834 12.4923ZM18.0413 11.7223L18.0404 11.6223L17.9691 11.6229L17.9465 11.6905L18.0413 11.7223ZM18.8533 11.715L18.8542 11.815L19.1528 11.8123L18.9128 11.6346L18.8533 11.715ZM18.2007 11.2318L18.1053 11.2017L18.0839 11.2697L18.1412 11.3121L18.2007 11.2318ZM18.4447 10.4572L18.54 10.4872L18.6298 10.2024L18.3866 10.3758L18.4447 10.4572ZM17.7834 10.9286L17.7254 11.01L17.7834 11.0514L17.8415 11.01L17.7834 10.9286ZM16.1759 12.4548L16.2708 12.4231L16.1759 12.1399L16.0811 12.4231L16.1759 12.4548ZM15.918 13.2249L15.9189 13.3249L15.9902 13.3242L16.0129 13.2566L15.918 13.2249ZM16.4338 13.2249L16.339 13.2566L16.3616 13.3242L16.4329 13.3249L16.4338 13.2249ZM17.2459 13.2322L17.3054 13.3126L17.5454 13.1349L17.2468 13.1322L17.2459 13.2322ZM16.5932 13.7154L16.5337 13.6351L16.4764 13.6775L16.4978 13.7455L16.5932 13.7154ZM16.8372 14.49L16.7791 14.5714L17.0223 14.7447L16.9326 14.4599L16.8372 14.49ZM16.1759 14.0186L16.234 13.9372L16.1759 13.8958L16.1179 13.9372L16.1759 14.0186ZM15.5147 14.49L15.4193 14.4599L15.3296 14.7447L15.5727 14.5714L15.5147 14.49ZM15.7587 13.7154L15.854 13.7455L15.8755 13.6775L15.8182 13.6351L15.7587 13.7154ZM15.106 13.2322L15.1051 13.1322L14.8065 13.1349L15.0465 13.3126L15.106 13.2322ZM13.575 13.9862L13.5169 14.0676L13.575 14.109L13.633 14.0676L13.575 13.9862ZM14.2362 13.5148L14.3316 13.5448L14.4213 13.26L14.1782 13.4334L14.2362 13.5148ZM12.9137 13.5148L12.9718 13.4334L12.7286 13.26L12.8183 13.5448L12.9137 13.5148ZM13.1577 14.2894L13.2172 14.3697L13.2745 14.3273L13.2531 14.2593L13.1577 14.2894ZM12.505 14.7726L12.4455 14.6922L12.2056 14.8699L12.5041 14.8726L12.505 14.7726ZM13.3171 14.7799L13.4119 14.7481L13.3893 14.6805L13.318 14.6799L13.3171 14.7799ZM13.575 15.5499L13.4802 15.5817L13.575 15.8648L13.6698 15.5817L13.575 15.5499ZM13.8329 14.7799L13.832 14.6799L13.7607 14.6805L13.738 14.7481L13.8329 14.7799ZM14.6449 14.7726L14.6458 14.8726L14.9444 14.8699L14.7044 14.6922L14.6449 14.7726ZM13.9923 14.2894L13.8969 14.2593L13.8755 14.3273L13.9328 14.3697L13.9923 14.2894ZM12.044 13.2322L12.1035 13.3126L12.3435 13.1349L12.0449 13.1322L12.044 13.2322ZM11.2319 13.2249L11.1371 13.2566L11.1597 13.3242L11.231 13.3249L11.2319 13.2249ZM11.3913 13.7154L11.3318 13.6351L11.2745 13.6775L11.2959 13.7455L11.3913 13.7154ZM11.6353 14.49L11.5772 14.5714L11.8204 14.7447L11.7307 14.4599L11.6353 14.49ZM10.974 14.0186L11.0321 13.9372L10.974 13.8958L10.916 13.9372L10.974 14.0186ZM10.3128 14.49L10.2174 14.4599L10.1277 14.7447L10.3708 14.5714L10.3128 14.49ZM10.5568 13.7154L10.6521 13.7455L10.6736 13.6775L10.6163 13.6351L10.5568 13.7154ZM9.9041 13.2322L9.9032 13.1322L9.60462 13.1349L9.84459 13.3126L9.9041 13.2322ZM10.7161 13.2249L10.717 13.3249L10.7883 13.3242L10.811 13.2566L10.7161 13.2249ZM10.974 12.4548L11.0689 12.4231L10.974 12.1399L10.8792 12.4231L10.974 12.4548ZM9.78384 11.2318L9.68846 11.2017L9.66704 11.2697L9.72433 11.3121L9.78384 11.2318ZM10.4365 11.715L10.4374 11.815L10.736 11.8123L10.496 11.6346L10.4365 11.715ZM10.0278 10.4572L10.1232 10.4872L10.2129 10.2024L9.96977 10.3758L10.0278 10.4572ZM9.36656 10.9286L9.30851 11.01L9.36656 11.0514L9.42461 11.01L9.36656 10.9286ZM8.7053 10.4572L8.76335 10.3758L8.52021 10.2024L8.60992 10.4872L8.7053 10.4572ZM8.94929 11.2318L9.00879 11.3121L9.06608 11.2697L9.04467 11.2017L8.94929 11.2318ZM8.29662 11.715L8.23712 11.6346L7.99714 11.8123L8.29572 11.815L8.29662 11.715ZM9.10867 11.7223L9.20349 11.6905L9.18086 11.6229L9.10957 11.6223L9.10867 11.7223ZM9.36656 12.4923L9.27174 12.5241L9.36656 12.8072L9.46139 12.5241L9.36656 12.4923ZM9.62445 11.7223L9.62355 11.6223L9.55227 11.6229L9.52963 11.6905L9.62445 11.7223ZM10.0278 9.54269L9.96977 9.62412L10.2129 9.79745L10.1232 9.51265L10.0278 9.54269ZM9.78384 8.76813L9.72433 8.68776L9.66704 8.73018L9.68846 8.79817L9.78384 8.76813ZM9.36656 9.0713L9.42461 8.98987L9.36656 8.94849L9.30851 8.98987L9.36656 9.0713ZM8.7053 9.54269L8.60992 9.51265L8.52021 9.79745L8.76335 9.62412L8.7053 9.54269ZM8.94929 8.76813L9.04467 8.79817L9.06608 8.73018L9.00879 8.68776L8.94929 8.76813ZM8.29662 8.2849L8.29572 8.18491L7.99714 8.1876L8.23712 8.36527L8.29662 8.2849ZM9.10867 8.27759L9.10957 8.37759L9.18086 8.37695L9.20349 8.30935L9.10867 8.27759ZM9.36656 7.50755L9.46139 7.47579L9.36656 7.19265L9.27174 7.47579L9.36656 7.50755ZM9.62445 8.27759L9.52963 8.30935L9.55227 8.37695L9.62355 8.37759L9.62445 8.27759ZM10.4365 8.2849L10.496 8.36527L10.736 8.1876L10.4374 8.18491L10.4365 8.2849ZM11.2319 6.77501L11.231 6.67501L11.1597 6.67565L11.1371 6.74325L11.2319 6.77501ZM10.974 7.54505L10.8792 7.57681L10.974 7.85994L11.0689 7.57681L10.974 7.54505ZM12.044 6.76769L12.0449 6.86769L12.3435 6.865L12.1035 6.68733L12.044 6.76769ZM11.3913 6.28447L11.2959 6.25442L11.2745 6.32242L11.3318 6.36484L11.3913 6.28447ZM11.6353 5.50991L11.7307 5.53995L11.8204 5.25515L11.5772 5.42848L11.6353 5.50991ZM10.974 5.9813L10.916 6.06273L10.974 6.10411L11.0321 6.06273L10.974 5.9813ZM10.3128 5.50991L10.3708 5.42848L10.1277 5.25515L10.2174 5.53995L10.3128 5.50991ZM10.5568 6.28447L10.6163 6.36484L10.6736 6.32242L10.6521 6.25442L10.5568 6.28447ZM9.9041 6.76769L9.84459 6.68733L9.60462 6.865L9.9032 6.86769L9.9041 6.76769ZM10.7161 6.77501L10.811 6.74325L10.7883 6.67565L10.717 6.67501L10.7161 6.77501ZM13.5169 5.93227L12.8557 6.40367L12.9718 6.56652L13.633 6.09513L13.5169 5.93227ZM14.2943 6.40367L13.633 5.93227L13.5169 6.09513L14.1782 6.56652L14.2943 6.40367ZM13.8969 5.74058L14.1409 6.51514L14.3316 6.45505L14.0876 5.68049L13.8969 5.74058ZM14.5854 5.14694L13.9328 5.63016L14.0518 5.7909L14.7044 5.30768L14.5854 5.14694ZM13.832 5.31999L14.644 5.3273L14.6458 5.12731L13.8338 5.12L13.832 5.31999ZM13.4802 4.48171L13.738 5.25175L13.9277 5.18824L13.6698 4.41819L13.4802 4.48171ZM13.4119 5.25175L13.6698 4.48171L13.4802 4.41819L13.2223 5.18824L13.4119 5.25175ZM12.5059 5.3273L13.318 5.31999L13.3162 5.12L12.5041 5.12731L12.5059 5.3273ZM13.2172 5.63016L12.5645 5.14694L12.4455 5.30768L13.0982 5.7909L13.2172 5.63016ZM13.0091 6.51514L13.2531 5.74058L13.0623 5.68049L12.8183 6.45505L13.0091 6.51514ZM15.9189 6.67501L15.1069 6.6677L15.1051 6.86769L15.9171 6.875L15.9189 6.67501ZM16.2708 7.51329L16.0129 6.74325L15.8232 6.80676L16.0811 7.57681L16.2708 7.51329ZM16.339 6.74325L16.0811 7.51329L16.2708 7.57681L16.5286 6.80676L16.339 6.74325ZM17.245 6.6677L16.4329 6.67501L16.4347 6.875L17.2468 6.86769L17.245 6.6677ZM16.5337 6.36484L17.1864 6.84806L17.3054 6.68733L16.6527 6.2041L16.5337 6.36484ZM16.7418 5.47986L16.4978 6.25442L16.6886 6.31451L16.9326 5.53995L16.7418 5.47986ZM16.234 6.06273L16.8952 5.59133L16.7791 5.42848L16.1179 5.89987L16.234 6.06273ZM15.4566 5.59133L16.1179 6.06273L16.234 5.89987L15.5727 5.42848L15.4566 5.59133ZM15.854 6.25442L15.6101 5.47986L15.4193 5.53995L15.6633 6.31451L15.854 6.25442ZM15.1655 6.84806L15.8182 6.36484L15.6991 6.2041L15.0465 6.68733L15.1655 6.84806ZM16.654 8.36527L17.3066 8.8485L17.4256 8.68776L16.773 8.20453L16.654 8.36527ZM17.5246 8.1776L16.7126 8.18491L16.7144 8.3849L17.5264 8.37759L17.5246 8.1776ZM17.6886 7.47579L17.4307 8.24584L17.6203 8.30935L17.8782 7.5393L17.6886 7.47579ZM18.1361 8.24583L17.8782 7.47579L17.6886 7.5393L17.9465 8.30935L18.1361 8.24583ZM18.8542 8.18491L18.0422 8.1776L18.0404 8.37759L18.8524 8.3849L18.8542 8.18491ZM18.2602 8.8485L18.9128 8.36527L18.7938 8.20453L18.1412 8.68776L18.2602 8.8485ZM18.54 9.51265L18.2961 8.73809L18.1053 8.79817L18.3493 9.57274L18.54 9.51265ZM17.7254 9.15273L18.3866 9.62412L18.5027 9.46126L17.8415 8.98987L17.7254 9.15273ZM17.1802 9.62412L17.8415 9.15273L17.7254 8.98987L17.0641 9.46126L17.1802 9.62412ZM17.2707 8.73809L17.0268 9.51265L17.2175 9.57274L17.4615 8.79817L17.2707 8.73809ZM17.4615 11.2017L17.2175 10.4272L17.0268 10.4872L17.2707 11.2618L17.4615 11.2017ZM16.773 11.7954L17.4256 11.3121L17.3066 11.1514L16.654 11.6346L16.773 11.7954ZM17.5264 11.6223L16.7144 11.615L16.7126 11.815L17.5246 11.8223L17.5264 11.6223ZM17.8782 12.4606L17.6203 11.6905L17.4307 11.7541L17.6886 12.5241L17.8782 12.4606ZM17.9465 11.6905L17.6886 12.4606L17.8782 12.5241L18.1361 11.7541L17.9465 11.6905ZM18.8524 11.615L18.0404 11.6223L18.0422 11.8223L18.8542 11.815L18.8524 11.615ZM18.1412 11.3121L18.7938 11.7954L18.9128 11.6346L18.2602 11.1514L18.1412 11.3121ZM18.3493 10.4272L18.1053 11.2017L18.2961 11.2618L18.54 10.4872L18.3493 10.4272ZM17.8415 11.01L18.5027 10.5386L18.3866 10.3758L17.7254 10.8472L17.8415 11.01ZM17.0641 10.5386L17.7254 11.01L17.8415 10.8472L17.1802 10.3758L17.0641 10.5386ZM16.0811 12.4231L15.8232 13.1931L16.0129 13.2566L16.2708 12.4866L16.0811 12.4231ZM16.5286 13.1931L16.2708 12.4231L16.0811 12.4866L16.339 13.2566L16.5286 13.1931ZM17.2468 13.1322L16.4347 13.1249L16.4329 13.3249L17.245 13.3322L17.2468 13.1322ZM16.6527 13.7958L17.3054 13.3126L17.1864 13.1518L16.5337 13.6351L16.6527 13.7958ZM16.9326 14.4599L16.6886 13.6854L16.4978 13.7455L16.7418 14.52L16.9326 14.4599ZM16.1179 14.1L16.7791 14.5714L16.8952 14.4086L16.234 13.9372L16.1179 14.1ZM15.5727 14.5714L16.234 14.1L16.1179 13.9372L15.4566 14.4086L15.5727 14.5714ZM15.6633 13.6854L15.4193 14.4599L15.6101 14.52L15.854 13.7455L15.6633 13.6854ZM15.0465 13.3126L15.6991 13.7958L15.8182 13.6351L15.1655 13.1518L15.0465 13.3126ZM15.9171 13.1249L15.1051 13.1322L15.1069 13.3322L15.9189 13.3249L15.9171 13.1249ZM13.633 14.0676L14.2943 13.5962L14.1782 13.4334L13.5169 13.9048L13.633 14.0676ZM12.8557 13.5962L13.5169 14.0676L13.633 13.9048L12.9718 13.4334L12.8557 13.5962ZM13.2531 14.2593L13.0091 13.4848L12.8183 13.5448L13.0623 14.3194L13.2531 14.2593ZM12.5645 14.853L13.2172 14.3697L13.0982 14.209L12.4455 14.6922L12.5645 14.853ZM13.318 14.6799L12.5059 14.6726L12.5041 14.8726L13.3162 14.8799L13.318 14.6799ZM13.6698 15.5182L13.4119 14.7481L13.2223 14.8117L13.4802 15.5817L13.6698 15.5182ZM13.738 14.7481L13.4802 15.5182L13.6698 15.5817L13.9277 14.8117L13.738 14.7481ZM14.644 14.6726L13.832 14.6799L13.8338 14.8799L14.6458 14.8726L14.644 14.6726ZM13.9328 14.3697L14.5854 14.853L14.7044 14.6922L14.0518 14.209L13.9328 14.3697ZM14.1409 13.4848L13.8969 14.2593L14.0876 14.3194L14.3316 13.5448L14.1409 13.4848ZM12.0449 13.1322L11.2328 13.1249L11.231 13.3249L12.0431 13.3322L12.0449 13.1322ZM11.4508 13.7958L12.1035 13.3126L11.9845 13.1518L11.3318 13.6351L11.4508 13.7958ZM11.7307 14.4599L11.4867 13.6854L11.2959 13.7455L11.5399 14.52L11.7307 14.4599ZM10.916 14.1L11.5772 14.5714L11.6933 14.4086L11.0321 13.9372L10.916 14.1ZM10.3708 14.5714L11.0321 14.1L10.916 13.9372L10.2547 14.4086L10.3708 14.5714ZM10.4614 13.6854L10.2174 14.4599L10.4082 14.52L10.6521 13.7455L10.4614 13.6854ZM9.84459 13.3126L10.4973 13.7958L10.6163 13.6351L9.9636 13.1518L9.84459 13.3126ZM10.7152 13.1249L9.9032 13.1322L9.905 13.3322L10.717 13.3249L10.7152 13.1249ZM10.8792 12.4231L10.6213 13.1931L10.811 13.2566L11.0689 12.4866L10.8792 12.4231ZM11.3267 13.1931L11.0689 12.4231L10.8792 12.4866L11.1371 13.2566L11.3267 13.1931ZM9.72433 11.3121L10.377 11.7954L10.496 11.6346L9.84334 11.1514L9.72433 11.3121ZM9.93244 10.4272L9.68846 11.2017L9.87922 11.2618L10.1232 10.4872L9.93244 10.4272ZM9.42461 11.01L10.0859 10.5386L9.96977 10.3758L9.30851 10.8472L9.42461 11.01ZM8.64726 10.5386L9.30851 11.01L9.42461 10.8472L8.76335 10.3758L8.64726 10.5386ZM9.04467 11.2017L8.80068 10.4272L8.60992 10.4872L8.85391 11.2618L9.04467 11.2017ZM8.35613 11.7954L9.00879 11.3121L8.88978 11.1514L8.23712 11.6346L8.35613 11.7954ZM9.10957 11.6223L8.29752 11.615L8.29572 11.815L9.10777 11.8223L9.10957 11.6223ZM9.46139 12.4606L9.20349 11.6905L9.01385 11.7541L9.27174 12.5241L9.46139 12.4606ZM9.52963 11.6905L9.27174 12.4606L9.46139 12.5241L9.71928 11.7541L9.52963 11.6905ZM10.4356 11.615L9.62355 11.6223L9.62535 11.8223L10.4374 11.815L10.4356 11.615ZM10.1232 9.51265L9.87922 8.73808L9.68846 8.79817L9.93244 9.57274L10.1232 9.51265ZM9.30851 9.15273L9.96977 9.62412L10.0859 9.46126L9.42461 8.98987L9.30851 9.15273ZM8.76335 9.62412L9.42461 9.15273L9.30851 8.98987L8.64726 9.46126L8.76335 9.62412ZM8.85391 8.73808L8.60992 9.51265L8.80068 9.57274L9.04467 8.79817L8.85391 8.73808ZM8.23712 8.36527L8.88978 8.8485L9.00879 8.68776L8.35613 8.20453L8.23712 8.36527ZM9.10777 8.1776L8.29572 8.18491L8.29752 8.3849L9.10957 8.37759L9.10777 8.1776ZM9.27174 7.47579L9.01385 8.24583L9.20349 8.30935L9.46139 7.5393L9.27174 7.47579ZM9.71928 8.24583L9.46139 7.47579L9.27174 7.5393L9.52963 8.30935L9.71928 8.24583ZM10.4374 8.18491L9.62535 8.1776L9.62355 8.37759L10.4356 8.3849L10.4374 8.18491ZM9.84334 8.8485L10.496 8.36527L10.377 8.20453L9.72433 8.68776L9.84334 8.8485ZM11.1371 6.74325L10.8792 7.51329L11.0689 7.57681L11.3267 6.80676L11.1371 6.74325ZM12.0431 6.6677L11.231 6.67501L11.2328 6.875L12.0449 6.86769L12.0431 6.6677ZM11.3318 6.36484L11.9845 6.84806L12.1035 6.68733L11.4508 6.2041L11.3318 6.36484ZM11.5399 5.47986L11.2959 6.25442L11.4867 6.31451L11.7307 5.53995L11.5399 5.47986ZM11.0321 6.06273L11.6933 5.59133L11.5772 5.42848L10.916 5.89987L11.0321 6.06273ZM10.2547 5.59133L10.916 6.06273L11.0321 5.89987L10.3708 5.42848L10.2547 5.59133ZM10.6521 6.25442L10.4082 5.47986L10.2174 5.53995L10.4614 6.31451L10.6521 6.25442ZM9.9636 6.84806L10.6163 6.36484L10.4973 6.2041L9.84459 6.68733L9.9636 6.84806ZM10.717 6.67501L9.905 6.6677L9.9032 6.86769L10.7152 6.875L10.717 6.67501ZM11.0689 7.51329L10.811 6.74325L10.6213 6.80676L10.8792 7.57681L11.0689 7.51329Z" fill="#FECA00" mask="url(#path-15-inside-1_701_24051)"/>
</g>
</g>
</g>
<rect x="1.75" y="1.25" width="23.5" height="17.5" stroke="black" stroke-opacity="0.1" stroke-width="0.5" shape-rendering="crispEdges"/>
</g>
<defs>
<filter id="filter0_dd_701_24051" x="0" y="0" width="27" height="21" filterUnits="userSpaceOnUse" color-interpolation-filters="sRGB">
<feFlood flood-opacity="0" result="BackgroundImageFix"/>
<feColorMatrix in="SourceAlpha" type="matrix" values="0 0 0 0 0 0 0 0 0 0 0 0 0 0 0 0 0 0 127 0" result="hardAlpha"/>
<feOffset dy="0.5"/>
<feGaussianBlur stdDeviation="0.75"/>
<feComposite in2="hardAlpha" operator="out"/>
<feColorMatrix type="matrix" values="0 0 0 0 0 0 0 0 0 0 0 0 0 0 0 0 0 0 0.1 0"/>
<feBlend mode="multiply" in2="BackgroundImageFix" result="effect1_dropShadow_701_24051"/>
<feColorMatrix in="SourceAlpha" type="matrix" values="0 0 0 0 0 0 0 0 0 0 0 0 0 0 0 0 0 0 127 0" result="hardAlpha"/>
<feOffset/>
<feGaussianBlur stdDeviation="0.5"/>
<feComposite in2="hardAlpha" operator="out"/>
<feColorMatrix type="matrix" values="0 0 0 0 0 0 0 0 0 0 0 0 0 0 0 0 0 0 0.11 0"/>
<feBlend mode="multiply" in2="effect1_dropShadow_701_24051" result="effect2_dropShadow_701_24051"/>
<feBlend mode="normal" in="SourceGraphic" in2="effect2_dropShadow_701_24051" result="shape"/>
</filter>
<clipPath id="clip0_701_24051">
<rect x="1.5" y="1" width="24" height="18" fill="white"/>
</clipPath>
</defs>
</svg>
