<svg viewBox="0 0 27 21" fill="none" xmlns="http://www.w3.org/2000/svg">
<g filter="url(#filter0_dd_701_23182)">
<g clip-path="url(#clip0_701_23182)">
<mask id="mask0_701_23182" style="mask-type:alpha" maskUnits="userSpaceOnUse" x="1" y="1" width="25" height="18">
<rect x="1.5" y="1" width="24" height="18" fill="white"/>
</mask>
<g mask="url(#mask0_701_23182)">
<path fill-rule="evenodd" clip-rule="evenodd" d="M1.5 1.07495H25.5V19.075H1.5V1.07495Z" fill="#2B409A"/>
</g>
<rect x="1.5" y="1" width="13.5" height="10.5" fill="#2B409A"/>
<mask id="mask1_701_23182" style="mask-type:alpha" maskUnits="userSpaceOnUse" x="1" y="1" width="14" height="11">
<rect x="1.5" y="1" width="13.5" height="10.5" fill="white"/>
</mask>
<g mask="url(#mask1_701_23182)">
<path d="M-0.00317383 10.7498L2.96754 12.0527L15.0674 2.41653L16.6344 0.480377L13.4577 0.0449095L8.52241 4.19743L4.55003 6.99525L-0.00317383 10.7498Z" fill="#F7FCFF"/>
<path d="M0.403534 11.6627L1.91698 12.4188L16.0717 0.300537H13.9467L0.403534 11.6627Z" fill="#F50100"/>
<path d="M16.5032 10.7498L13.5325 12.0527L1.43259 2.41653L-0.13439 0.480377L3.04236 0.0449095L7.97762 4.19743L11.95 6.99525L16.5032 10.7498Z" fill="#F7FCFF"/>
<path d="M16.4019 11.405L14.8884 12.1611L8.86117 6.97266L7.07422 6.39297L-0.285151 0.48707H1.8399L9.19513 6.25279L11.1488 6.9479L16.4019 11.405Z" fill="#F50100"/>
<mask id="path-11-outside-1_701_23182" maskUnits="userSpaceOnUse" x="-0.5" y="-1" width="17" height="14" fill="black">
<rect fill="white" x="-0.5" y="-1" width="17" height="14"/>
<path fill-rule="evenodd" clip-rule="evenodd" d="M8.98838 1H7.48838V5.5H1.5V7H7.48838V11.5H8.98838V7H15V5.5H8.98838V1Z"/>
</mask>
<path fill-rule="evenodd" clip-rule="evenodd" d="M8.98838 1H7.48838V5.5H1.5V7H7.48838V11.5H8.98838V7H15V5.5H8.98838V1Z" fill="#F50100"/>
<path d="M7.48838 1V-0.5H5.98838V1H7.48838ZM8.98838 1H10.4884V-0.5H8.98838V1ZM7.48838 5.5V7H8.98838V5.5H7.48838ZM1.5 5.5V4H0V5.5H1.5ZM1.5 7H0V8.5H1.5V7ZM7.48838 7H8.98838V5.5H7.48838V7ZM7.48838 11.5H5.98838V13H7.48838V11.5ZM8.98838 11.5V13H10.4884V11.5H8.98838ZM8.98838 7V5.5H7.48838V7H8.98838ZM15 7V8.5H16.5V7H15ZM15 5.5H16.5V4H15V5.5ZM8.98838 5.5H7.48838V7H8.98838V5.5ZM7.48838 2.5H8.98838V-0.5H7.48838V2.5ZM8.98838 5.5V1H5.98838V5.5H8.98838ZM1.5 7H7.48838V4H1.5V7ZM3 7V5.5H0V7H3ZM7.48838 5.5H1.5V8.5H7.48838V5.5ZM8.98838 11.5V7H5.98838V11.5H8.98838ZM8.98838 10H7.48838V13H8.98838V10ZM7.48838 7V11.5H10.4884V7H7.48838ZM15 5.5H8.98838V8.5H15V5.5ZM13.5 5.5V7H16.5V5.5H13.5ZM8.98838 7H15V4H8.98838V7ZM7.48838 1V5.5H10.4884V1H7.48838Z" fill="#F7FCFF" mask="url(#path-11-outside-1_701_23182)"/>
</g>
<path d="M19.7385 14.9136C19.6924 14.9136 19.5252 14.8235 19.5252 14.8235C19.5252 14.8235 19.404 15.0152 19.3406 15.0263C19.2771 15.0376 18.9484 14.9081 18.9484 14.9081C18.9484 14.9081 18.7178 15.0883 18.6658 15.077C18.6139 15.0659 18.0834 14.9532 18.0834 14.9532L17.795 14.7728C17.795 14.7728 17.6336 15.0319 17.6278 15.0263C17.622 15.0206 17.1434 14.9305 17.1434 14.9305C17.1434 14.9305 17.2876 14.7334 17.2876 14.7277C17.2876 14.7221 17.2183 14.6994 17.2183 14.6994L17.1146 14.7841L16.6878 14.8235L16.7916 14.5303L16.9589 14.2825L19.0061 12.3381L20.0153 14.1585L19.8654 14.7051C19.8654 14.7051 19.7846 14.9136 19.7385 14.9136Z" fill="#6A4C2D"/>
<path d="M17.7828 14.5457C17.8541 14.6319 18.7935 15.5921 18.9458 16.0464C19.098 16.5007 17.7105 15.9204 17.7105 15.9204C17.7105 15.9204 19.4577 14.7855 20.3304 14.7855C21.2032 14.7855 22.9186 15.9204 22.9186 15.9204C22.9186 15.9204 21.7675 16.731 21.7793 16.2199C21.7912 15.7087 22.3197 14.7018 22.9504 14.5457" stroke="#FFBB00" stroke-width="0.5" stroke-linecap="round" stroke-linejoin="round"/>
<path d="M23.6563 14.62L23.3694 14.5132L23.1153 14.1766L22.0631 14.0993L21.1039 13.8375L20.6994 14.1073L20.9172 14.3917L21.4494 14.5875L23.6563 14.62Z" fill="#F7FCFF"/>
<path d="M19.4541 8.39956C19.4639 8.42413 19.6784 8.38056 19.724 8.50908C19.9549 8.16808 20.226 8.49328 20.226 8.49328L20.454 8.22327L20.7115 8.46711L20.9477 8.44871L21.1946 9.02813L19.2464 8.99158C19.2464 8.99158 19.4443 8.37499 19.4541 8.39956Z" fill="#656263"/>
<path d="M21.4736 10.8654C21.4579 10.6819 21.2953 10.6605 21.2045 10.6666C21.1135 10.6727 21.0322 10.7491 21.0322 10.7491L20.7318 10.5626C20.7318 10.5626 20.8821 9.63581 21.0416 9.5778C21.1932 9.47097 21.22 9.42475 21.22 9.40046C21.22 9.37594 21.1637 9.27665 21.1637 9.27665L20.184 9.16345L19.2575 9.27052C19.2575 9.27052 19.1856 9.41555 19.195 9.45847C19.2044 9.50116 19.2076 9.54714 19.3734 9.6726C19.557 9.81056 19.6832 10.6024 19.6832 10.6024C19.6832 10.6024 19.4236 10.7277 19.4079 10.7123C19.3922 10.6973 19.314 10.6819 19.2732 10.6881C19.2327 10.6942 19.098 10.7614 19.098 10.9357C19.098 11.1102 19.2327 11.2111 19.2327 11.2111C19.2327 11.2111 20.1183 11.8602 20.2498 12.0986C20.3782 11.8111 21.22 11.1621 21.3201 11.113C21.3609 11.0887 21.4893 11.0489 21.4736 10.8654Z" fill="#656263"/>
<path d="M22.3576 10.0011C22.4312 9.95318 22.9213 9.92913 23.039 10.0011C23.1566 10.073 23.2007 10.4274 23.2007 10.4274C23.2007 10.4274 23.2743 10.5519 23.2792 10.643C23.284 10.734 23.2939 10.7963 23.2939 10.7963C23.2939 10.7963 23.686 11.2945 23.6909 11.7447C23.735 12.0513 23.7251 12.8703 23.6028 13.1816C23.5977 13.5698 23.4312 13.8235 23.4312 13.8235C23.4312 13.8235 23.4703 13.8905 23.4655 13.9624C23.4604 14.0343 23.4213 14.1013 23.4213 14.1013L23.0538 14.2593L22.6469 14.1923L22.186 12.8463L22.2938 10.571L22.3233 10.4562L22.2743 10.1496C22.2743 10.1496 22.2842 10.0489 22.3576 10.0011Z" fill="black"/>
<path d="M19.6965 11.1956C19.6965 11.1956 20.1924 11.1956 20.246 11.3529C20.3399 11.1432 20.7687 11.1564 20.7687 11.1564C21.0279 11.1477 21.2871 11.139 21.546 11.1302C21.5506 11.7415 21.5549 12.3528 21.5595 12.964C21.4077 13.6755 20.8804 14.1778 20.2996 14.3917C19.607 14.1733 19.1692 13.6014 19.0264 12.9508C18.9993 12.3702 18.9726 11.7894 18.9458 11.2088C19.196 11.2043 19.4463 11.2001 19.6965 11.1956Z" fill="#F7FCFF"/>
<path d="M19.2131 11.2019L20.3066 14.0492L21.2943 11.1399C20.9878 11.1592 20.3305 11.0927 20.2489 11.3658C20.1224 11.1215 19.4308 11.2201 19.2131 11.2019V11.2019Z" fill="#006B00"/>
<path fill-rule="evenodd" clip-rule="evenodd" d="M20.4806 11.6485C20.4806 11.6485 20.58 11.9079 20.4806 12.0363C20.3811 12.1648 20.4888 12.27 20.5488 12.27C20.6088 12.27 20.8147 12.4739 20.6476 12.4739C20.4806 12.4739 20.3862 12.4104 20.3862 12.5897C20.3862 12.7689 20.617 13.5761 20.5488 13.7696C20.4806 13.9632 20.4975 14.1113 20.5954 14.0621C20.6933 14.0129 20.7545 13.8864 20.701 13.6429C20.6476 13.3994 20.5954 13.4569 20.5954 13.2465C20.5954 13.036 20.6476 12.8018 20.6476 12.8018C20.6476 12.8018 20.7354 12.8676 20.673 13.1078C20.6105 13.3481 20.7503 13.6795 20.7503 13.7696C20.7503 13.8597 20.7545 14.1078 20.701 14.1324C20.6476 14.1569 20.5986 14.3067 20.5488 14.1926C20.499 14.0784 20.4678 13.8901 20.404 14.0197C20.3401 14.1492 20.3524 14.447 20.2861 14.4614C20.2197 14.4758 20.1206 14.6169 20.1206 14.5603C20.1206 14.5036 20.0271 14.4012 20.0555 14.3059C20.084 14.2105 20.109 14.1993 20.132 14.2907C20.1551 14.3822 20.2521 14.3813 20.2521 14.3059C20.2521 14.2305 20.2181 14.2673 20.2521 14.0956C20.2861 13.9239 20.3238 13.6966 20.2521 13.7103C20.1803 13.724 20.0702 13.8358 20.0555 13.6295C20.0409 13.4233 19.9819 13.3267 20.0294 13.2866C20.0768 13.2465 20.1401 13.103 20.1603 13.2158C20.1806 13.3286 20.0914 13.4364 20.106 13.4771C20.1206 13.5177 20.1287 13.6098 20.1904 13.5327C20.2521 13.4555 20.2884 13.3283 20.3346 13.4463C20.3808 13.5642 20.3817 13.4711 20.2861 13.2465C20.1904 13.0218 20.1091 12.8968 20.1206 12.6996C20.132 12.5024 20.1165 12.4285 20.132 12.3651C20.1476 12.3017 19.9607 11.993 20.0081 11.904C20.0555 11.8151 20.0737 11.5281 20.132 11.5798C20.1904 11.6315 20.2204 11.7008 20.1904 11.7781C20.1603 11.8554 20.1303 11.9321 20.1603 11.9842C20.1904 12.0363 20.2934 12.1868 20.314 12.149C20.3346 12.1111 20.404 12.1477 20.404 11.9334C20.404 11.7191 20.3267 11.6438 20.3754 11.5929C20.4241 11.542 20.4806 11.6485 20.4806 11.6485Z" fill="#FFD100"/>
<path d="M21.3006 11.1404L21.448 11.1368L21.1847 11.4627L21.5006 11.8231L20.8792 12.5881L21.4656 13.2776C21.4012 13.4321 21.3264 13.5727 21.2267 13.6998L20.8898 13.3359L21.5006 12.5916L20.9987 12.0358L21.3006 11.1404Z" fill="#1E5AA6"/>
<path d="M19.036 11.209L19.3309 11.521L19.0186 11.9018L19.668 12.5916L19.1309 13.2948C19.1953 13.4493 19.2877 13.6207 19.3871 13.7476L19.7066 13.3531L19.0503 12.6395L19.5312 12.0426L19.1941 11.2054L19.036 11.209Z" fill="#1E5AA6"/>
<path d="M19.9243 13.0581L19.6927 13.36L20.5211 14.2966C20.6674 14.2245 20.7822 14.1422 20.9075 14.0429L20.4755 13.5557L20.6512 13.0513L20.9038 13.3359L20.114 14.3207C19.9818 14.2658 19.8355 14.1799 19.7033 14.0736L20.121 13.5557L19.9243 13.0581Z" fill="#1E5AA6"/>
<path d="M22.789 10.6383C22.789 10.6861 22.8412 13.5123 22.8984 13.4853C23.0406 13.4181 23.0733 13.5648 23.0733 13.5648C23.0733 13.5648 23.1223 14.0296 22.9997 14.0919C22.7791 14.2067 22.6827 14.2321 22.6827 14.2321L22.4705 14.0775C22.4705 14.0775 22.2547 13.7756 22.2058 13.6415C22.1568 13.5075 22.0979 12.9088 22.1174 12.7793C22.137 12.6501 22.1517 11.8931 22.142 11.8549C22.1322 11.8164 22.0931 11.1842 22.1174 11.0884C22.142 10.9927 22.2938 10.571 22.289 10.571C22.289 10.571 22.789 10.5904 22.789 10.6383Z" fill="url(#paint0_linear_701_23182)"/>
<path d="M22.2989 10.1544C22.4017 10.1544 22.4801 10.2407 22.5048 10.3174C22.5096 10.3509 22.4949 10.3749 22.4997 10.4372C22.5048 10.4994 21.7547 10.4513 21.7499 10.4466C21.7499 10.4466 22.0979 10.1162 22.2989 10.1544Z" fill="#FF7000"/>
<path d="M23.1223 14.25C23.1223 14.25 23.3576 14.1972 23.4213 14.1158C23.4606 14.087 23.6665 14.4177 23.1223 14.25Z" fill="white" stroke="black" stroke-width="0.5" stroke-linejoin="round"/>
<path d="M22.7317 10.3452C22.7317 10.3659 22.7149 10.3827 22.6942 10.3827C22.6735 10.3827 22.6567 10.3659 22.6567 10.3452C22.6567 10.3245 22.6735 10.3077 22.6942 10.3077C22.7149 10.3077 22.7317 10.3245 22.7317 10.3452Z" fill="black"/>
<path d="M20.8655 9.93152C20.8655 9.93152 21.2559 10.3444 21.5086 10.34C21.5544 10.4612 21.3937 10.5739 21.3295 10.6277C21.2009 10.5873 21.0846 10.635 20.7861 10.2761C20.8047 10.0471 20.8701 9.94048 20.8655 9.93152Z" fill="#F7FCFF"/>
<path d="M22.4179 7.85352C22.4546 8.11834 22.4157 8.17984 22.3984 8.29104C22.3812 8.40225 23.0767 8.44331 23.2558 8.22329C23.2374 8.3221 23.0287 8.72417 22.0824 8.71969C22.4408 9.05197 21.9678 9.3168 21.7656 9.23591C22.1377 8.95764 21.6601 8.79162 21.3937 8.97108C21.4441 8.8185 21.8163 8.05114 22.4179 7.85352Z" fill="#F7FCFF"/>
<path fill-rule="evenodd" clip-rule="evenodd" d="M21.7877 9.71241C21.7167 9.42074 21.6824 9.08567 21.8392 8.95755C21.6324 8.81841 21.4075 8.96203 21.4075 8.96203C21.406 8.96551 21.4017 8.97138 21.3957 8.97968C21.3476 9.04612 21.187 9.26823 21.4075 9.66717C20.8196 9.5146 21.0656 10.0482 21.109 10.0886C21.1319 10.0032 21.4442 9.92253 21.5224 10.3579C21.5486 10.4461 21.3903 10.5733 21.3395 10.6141C21.3282 10.6232 21.3222 10.628 21.3247 10.6272C21.3247 10.6272 21.8222 10.7282 21.8866 10.0709C21.9717 10.0202 22.3844 9.74508 22.3718 9.17757C21.9927 9.18536 21.8251 9.6031 21.7877 9.71241Z" fill="#0000FF"/>
<path d="M19.5657 10.0482C19.5657 10.0482 19.1847 10.3713 18.9687 10.268C18.808 10.3623 18.6197 10.1963 18.6197 10.1963C18.6197 10.1963 18.8401 10.9906 19.6302 10.4161C19.6164 10.2411 19.5749 10.0617 19.5657 10.0482Z" fill="#F7FCFF"/>
<path d="M18.9641 10.2546C18.9962 10.0886 19.1294 10.0077 19.2351 10.1648C19.3775 10.1919 19.5198 9.62189 19.0145 9.71598C19.1569 8.97102 18.7299 8.69275 18.7299 8.69275C18.7299 8.69275 18.5783 9.5186 18.6472 9.67118C18.7161 9.82376 18.5462 9.38843 17.9996 9.26721C17.9904 9.8912 18.6105 10.1829 18.6105 10.1829C18.6105 10.1829 18.785 10.34 18.9641 10.2546Z" fill="#0000FF"/>
<path d="M18.4474 9.35414C18.2867 9.40343 17.8958 9.16776 18.1438 8.86237C17.3309 8.84445 16.8883 8.15767 17.1592 8.28863C17.4302 8.41958 17.6237 8.14053 17.8258 8.28863C17.5778 8.06436 17.9124 7.88489 17.9124 7.88489C17.9124 7.88489 18.6059 8.08699 18.7299 8.68834C18.6885 8.80507 18.6702 9.01141 18.661 9.00245C18.661 8.99797 18.2316 8.99498 18.4474 9.35414Z" fill="#F7FCFF"/>
<path d="M19.7453 6.57339C19.7489 6.5528 20.2684 6.37434 20.3034 6.07934C20.3384 5.78433 20.2964 5.98326 20.2964 5.98326C20.2964 5.98326 20.4405 5.84948 20.3879 5.77741C20.3351 5.70538 20.3527 5.87007 20.2684 5.86663C20.1842 5.86318 20.2298 5.68823 20.2298 5.68823C20.2298 5.68823 20.2228 5.66764 20.1982 5.65735C20.163 5.66078 20.0824 5.5853 20.0824 5.5853C20.0824 5.5853 20.0298 5.51668 19.9839 5.73283C20.0085 5.9627 20.1596 5.91808 20.1596 6.06906C20.1596 6.22001 20.0262 6.33665 19.9875 6.34009C19.9489 6.34351 19.9629 6.21315 19.9629 6.21315C19.9629 6.21315 19.9419 6.15139 19.9279 6.15139C19.9139 6.15139 20.0052 6.13766 19.9912 5.96612C19.9596 5.76027 19.9349 6.01416 19.8787 6.00386C19.8225 5.99357 19.8647 5.81517 19.8857 5.79459C19.9067 5.774 19.8611 5.68823 19.7383 5.90781C19.7276 6.01416 19.7136 5.88036 19.689 5.88722C19.647 5.97299 19.654 6.03475 19.7136 6.11366C19.8015 6.19256 19.8577 6.27147 19.8541 6.31264C19.8507 6.35382 19.8049 6.44645 19.7419 6.44645C19.6787 6.44645 19.7453 6.33323 19.7419 6.29547C19.7383 6.25774 19.633 6.12052 19.633 6.12052C19.633 6.12052 19.5592 6.00386 19.5662 6.00044C19.5732 5.99699 19.3978 6.16853 19.503 6.25774C19.4224 6.24746 19.4154 6.27833 19.4154 6.27833C19.4154 6.31951 19.5242 6.33665 19.5382 6.40869C19.5522 6.48076 19.4258 6.52191 19.4258 6.52191C19.4258 6.52191 19.4786 6.59396 19.6258 6.45331C19.6294 6.5425 19.5698 6.60426 19.5698 6.60426C19.6188 6.62598 19.6574 6.62369 19.6644 6.67975C19.6644 6.67974 19.7419 6.59395 19.7453 6.57339Z" fill="#CDAD56"/>
<path d="M19.1827 6.67979C19.1827 6.67979 19.1171 6.58459 19.1142 6.56584C19.1111 6.54711 18.7913 6.58952 18.6401 6.20838C18.5417 6.02731 18.6401 6.13346 18.6401 6.13346L18.646 6.04604C18.646 6.04604 18.5413 5.92086 18.586 5.8553C18.6307 5.78975 18.6123 5.93959 18.6699 5.93989C18.7414 5.93678 18.7027 5.77755 18.7027 5.77755C18.7027 5.77755 18.7086 5.75883 18.7295 5.74947C18.7592 5.75258 18.7715 5.84651 18.7983 5.85276C18.8251 5.85901 18.8806 5.74223 18.898 5.71821C18.9226 5.71478 18.9216 5.62147 18.9605 5.81814C18.9397 6.02731 18.7624 5.98673 18.7624 6.1241C18.7624 6.26144 18.8755 6.36758 18.9084 6.37072C18.9412 6.37383 18.9294 6.25521 18.9294 6.25521C18.9294 6.25521 18.9472 6.19902 18.959 6.19902C18.9711 6.19902 18.8548 6.22083 18.8669 6.06474C18.8936 5.9186 18.953 6.07415 19.0008 6.06476C19.0486 6.0554 18.9952 5.91023 19.009 5.88806C19.0121 5.86589 19.0824 5.77069 19.1096 5.98079C19.1186 6.07757 19.1726 5.89749 19.1934 5.90374C19.2293 5.98178 19.1777 6.08601 19.127 6.15782C19.0524 6.2296 19.0186 6.30827 19.0218 6.34575C19.0247 6.38319 19.0423 6.42975 19.0961 6.42975C19.1497 6.42975 19.1142 6.36447 19.1171 6.33013C19.12 6.2958 19.2095 6.18463 19.2095 6.18463C19.2271 6.15721 19.2124 6.10594 19.231 6.08224C19.2602 6.08254 19.2723 6.04293 19.302 6.15218C19.3319 6.26144 19.3676 6.08037 19.3676 6.08037C19.3676 6.08037 19.4093 6.21463 19.3198 6.2958C19.3884 6.28644 19.3944 6.31452 19.3944 6.31452C19.3944 6.35199 19.3618 6.36758 19.3497 6.43314C19.3377 6.4987 19.3855 6.53617 19.3855 6.53617C19.3855 6.53617 19.3408 6.60173 19.2156 6.47373C19.2124 6.5549 19.2633 6.61109 19.2633 6.61109C19.2214 6.63088 19.1888 6.62878 19.1827 6.67979Z" fill="#CDAD56"/>
<path d="M20.0066 6.60579C19.9299 6.82999 19.6531 6.74493 19.6531 6.74493C19.6531 6.74493 19.6622 6.85713 19.6347 6.91097C19.6574 6.92767 19.821 7.05355 19.9928 7.08602C20.24 7.13271 20.746 7.00497 20.9159 7.19372C21.0858 7.38247 21.0769 7.53481 21.0769 7.53481C21.0769 7.53481 20.8558 7.56006 20.9172 7.63791C20.9571 7.68846 21.0671 7.72602 21.0769 7.77827C21.1079 7.94457 20.9731 8.24378 21.0216 8.35619C20.9451 8.36302 20.9391 8.44132 20.9391 8.44132C20.9347 8.53022 20.7139 8.4774 20.7139 8.4774C20.7139 8.4774 20.8517 8.13168 20.8609 8.05103C20.8701 7.97014 20.7644 7.82653 20.6818 7.82653C20.599 7.82653 20.5394 8.08239 20.5394 8.08239C20.5394 8.08239 20.4982 8.2753 20.5119 8.29322C20.5257 8.31114 20.4567 8.23049 20.4567 8.23049C20.4567 8.23049 20.435 8.30885 20.3994 8.35619C20.3595 8.40943 20.3051 8.43236 20.3051 8.43236C20.3051 8.43236 20.2639 8.31562 20.2776 8.27082C20.2914 8.22601 20.5028 8.05103 20.4844 7.92534C20.4762 7.86986 20.4689 7.77304 20.3994 7.74091C20.3115 7.70024 20.1502 7.72991 20.0527 7.70984C19.9991 7.80106 19.9745 8.30218 20.0112 8.33378C20.0481 8.36515 19.9195 8.43236 19.9195 8.43236L19.7679 8.43684C19.7655 8.36892 19.8572 8.18333 19.8572 8.02627C19.8572 7.86921 19.8688 7.70088 19.8688 7.70088C19.8688 7.70088 19.7669 7.72652 19.7127 7.82653C19.6672 7.91038 19.6672 8.06888 19.6714 8.09136C19.6806 8.14064 19.7264 8.27978 19.7127 8.32034C19.6989 8.36067 19.4603 8.41443 19.4603 8.41443L19.4508 8.28426C19.4508 8.28426 19.552 8.22153 19.552 8.06447C19.552 7.90741 19.5611 7.68291 19.5565 7.66947C19.5538 7.66139 19.4738 7.31769 19.3686 7.08602C19.2984 6.93151 19.1902 6.86071 19.1847 6.84815C19.1709 6.81673 19.1709 6.78082 19.1709 6.78082C19.1709 6.78082 19.0191 6.88854 18.8401 6.65965C19.0042 6.5228 19.1801 6.62374 19.1801 6.62374C19.1801 6.62374 19.2259 6.49807 19.4371 6.50705C19.6485 6.51604 19.6897 6.63272 19.6806 6.61926C19.6806 6.61926 19.8367 6.4846 20.0066 6.60579Z" fill="#923F00"/>
<path d="M20.836 8.9408C20.8396 8.9408 21.226 8.95212 21.2299 9.15398C21.2337 9.35561 21.1114 9.30349 21.1075 9.30349C21.1036 9.30349 20.8244 9.26977 20.8244 9.26977L20.836 8.9408Z" fill="#0000FF"/>
<path d="M20.461 8.88477C20.461 8.88477 20.9429 8.88123 20.9161 9.08663C20.8893 9.29227 20.767 9.25124 20.767 9.25124L20.5336 9.23237L20.461 8.88477Z" fill="#F7FCFF"/>
<path d="M20.1895 8.8623L20.4687 8.88471C20.4687 8.88471 20.6369 8.90711 20.6295 9.06417C20.6217 9.22123 20.4572 9.225 20.4572 9.225L20.1857 9.20991L20.1895 8.8623Z" fill="#0000FF"/>
<path d="M19.5355 8.9408C19.5317 8.9408 19.1453 8.95212 19.1415 9.15398C19.1378 9.35561 19.2602 9.30349 19.2641 9.30349C19.2679 9.30349 19.5471 9.26977 19.5471 9.26977L19.5355 8.9408Z" fill="#F7FCFF"/>
<path d="M19.9103 8.88477C19.9103 8.88477 19.4284 8.88123 19.4552 9.08663C19.482 9.29227 19.6043 9.25124 19.6043 9.25124L19.8377 9.23237L19.9103 8.88477Z" fill="#0000FF"/>
<path d="M20.182 8.8623L19.9028 8.88471C19.9028 8.88471 19.7344 8.90711 19.7421 9.06417C19.7498 9.22123 19.9142 9.225 19.9142 9.225L20.1857 9.20991L20.182 8.8623Z" fill="#F7FCFF"/>
<path d="M21.2151 10.8734C21.289 10.8975 21.2328 11.1213 21.1975 11.142L20.9297 11.1317C20.9297 11.1317 21.1304 10.8426 21.2151 10.8734Z" fill="#5E0043"/>
<path d="M19.5534 11.1833C19.4902 11.0972 19.3985 10.8597 19.314 10.925C19.2399 10.9491 19.2964 11.1729 19.3316 11.1936L19.5534 11.1833Z" fill="#5E0043"/>
<path d="M19.2209 9.52266L20.1871 10.1405L21.0573 9.56865C21.0573 9.56865 21.2388 9.47078 21.2231 9.40051C21.2077 9.32999 21.1449 9.35759 21.1135 9.36985C21.0824 9.38211 20.2028 9.99077 20.2028 9.99077L19.267 9.41253C19.267 9.41253 19.1982 9.39131 19.1856 9.43399C19.1731 9.47691 19.2115 9.5012 19.2209 9.52266Z" fill="#B4B6B9"/>
<path d="M22.4601 14.0705C22.4601 14.0705 22.0378 14.198 22.1555 14.2016C22.2426 14.2043 22.6621 14.2016 22.6621 14.2016L22.4601 14.0705Z" fill="#FF7000"/>
<path d="M22.6312 14.2101L22.2562 14.2207C22.2562 14.2207 22.1618 14.3044 22.1558 14.3244C22.15 14.3447 22.2178 14.3504 22.2178 14.3504C22.2178 14.3504 22.6047 14.4487 22.8974 14.3851C23.0451 14.3346 23.0709 14.274 22.9674 14.2372C22.8641 14.2004 22.6341 14.2115 22.6312 14.2101Z" fill="#FF7000"/>
<path d="M18.293 10.7423C18.293 10.7423 18.2442 10.8923 18.293 10.9673C18.3418 11.0423 18.6488 11.6491 18.6488 11.6491C18.6488 11.6491 18.8582 11.3967 18.9349 11.3899C19.0116 11.3833 18.9766 12.0445 18.9766 12.0445C18.9766 12.0445 18.8512 12.1603 18.7744 12.1535C18.6976 12.1466 18.9626 12.4127 18.9557 12.6376C18.9487 12.8626 18.6069 13.9806 18.4814 14.0009C18.3558 14.0214 18.2474 13.7904 18.2474 13.5907C18.2474 13.391 18.3767 13.0739 18.3697 12.9852C18.3628 12.8966 17.7457 13.9355 17.7084 14.0977C17.7013 14.1284 17.7419 14.2396 17.7419 14.2396C17.7419 14.2396 17.5001 14.2594 17.5535 14.5669C16.8419 14.3214 16.4931 13.8988 16.5001 13.4694C16.5028 13.3048 16.3458 12.9175 16.5001 12.4899C16.7485 11.8015 17.3539 11.0158 17.3582 10.9402C17.3652 10.8173 17.414 10.7628 17.421 10.6947C17.4279 10.6265 17.4 10.2787 17.4698 10.2174C17.5396 10.1561 17.9023 10.0061 17.993 10.0129C18.0837 10.0198 18.1604 10.0811 18.1604 10.0811C18.1604 10.0811 18.5023 10.0811 18.5232 10.2105C18.5441 10.3402 18.4535 10.3879 18.4535 10.3879C18.4535 10.3879 18.5023 10.5721 18.293 10.7423Z" fill="#8A9396"/>
<path d="M18.4965 14.6091C18.6117 14.6888 18.8779 14.7359 18.8779 14.7359C18.8779 14.7359 18.224 14.9121 17.5595 14.5702C17.4988 14.3039 17.7021 14.2445 17.7524 14.2424C17.8697 14.2117 18.3812 14.5291 18.4965 14.6091Z" fill="#2B2B2B"/>
<path d="M19.297 14.5809C20.0125 14.9591 20.0891 14.7045 20.5821 14.3451C20.6163 14.3201 20.779 14.9224 21.4698 14.5809C22.4475 14.0977 20.6317 13.2923 20.3751 13.3098C20.1185 13.3277 18.5814 14.2027 19.297 14.5809Z" fill="#00713D"/>
</g>
<rect x="1.75" y="1.25" width="23.5" height="17.5" stroke="black" stroke-opacity="0.1" stroke-width="0.5" shape-rendering="crispEdges"/>
</g>
<defs>
<filter id="filter0_dd_701_23182" x="0" y="0" width="27" height="21" filterUnits="userSpaceOnUse" color-interpolation-filters="sRGB">
<feFlood flood-opacity="0" result="BackgroundImageFix"/>
<feColorMatrix in="SourceAlpha" type="matrix" values="0 0 0 0 0 0 0 0 0 0 0 0 0 0 0 0 0 0 127 0" result="hardAlpha"/>
<feOffset dy="0.5"/>
<feGaussianBlur stdDeviation="0.75"/>
<feComposite in2="hardAlpha" operator="out"/>
<feColorMatrix type="matrix" values="0 0 0 0 0 0 0 0 0 0 0 0 0 0 0 0 0 0 0.1 0"/>
<feBlend mode="multiply" in2="BackgroundImageFix" result="effect1_dropShadow_701_23182"/>
<feColorMatrix in="SourceAlpha" type="matrix" values="0 0 0 0 0 0 0 0 0 0 0 0 0 0 0 0 0 0 127 0" result="hardAlpha"/>
<feOffset/>
<feGaussianBlur stdDeviation="0.5"/>
<feComposite in2="hardAlpha" operator="out"/>
<feColorMatrix type="matrix" values="0 0 0 0 0 0 0 0 0 0 0 0 0 0 0 0 0 0 0.11 0"/>
<feBlend mode="multiply" in2="effect1_dropShadow_701_23182" result="effect2_dropShadow_701_23182"/>
<feBlend mode="normal" in="SourceGraphic" in2="effect2_dropShadow_701_23182" result="shape"/>
</filter>
<linearGradient id="paint0_linear_701_23182" x1="22.7065" y1="12.7052" x2="23.2634" y2="12.6991" gradientUnits="userSpaceOnUse">
<stop stop-color="#D5DFFF"/>
<stop offset="1" stop-color="white"/>
</linearGradient>
<clipPath id="clip0_701_23182">
<rect x="1.5" y="1" width="24" height="18" fill="white"/>
</clipPath>
</defs>
</svg>