<svg width="27" height="21" viewBox="0 0 27 21" fill="none" xmlns="http://www.w3.org/2000/svg">
<g filter="url(#filter0_dd_701_24115)">
<g clip-path="url(#clip0_701_24115)">
<mask id="mask0_701_24115" style="mask-type:alpha" maskUnits="userSpaceOnUse" x="1" y="1" width="25" height="18">
<rect x="1.5" y="1" width="24" height="18" fill="white"/>
</mask>
<g mask="url(#mask0_701_24115)">
<path fill-rule="evenodd" clip-rule="evenodd" d="M1.5 1V19H25.5V1H1.5Z" fill="#F7FCFF"/>
<mask id="mask1_701_24115" style="mask-type:alpha" maskUnits="userSpaceOnUse" x="1" y="1" width="25" height="18">
<path fill-rule="evenodd" clip-rule="evenodd" d="M1.5 1V19H25.5V1H1.5Z" fill="white"/>
</mask>
<g mask="url(#mask1_701_24115)">
<path fill-rule="evenodd" clip-rule="evenodd" d="M7.19974 11.7406C6.87866 11.5175 7.02308 11.0278 7.02308 11.0278C7.02308 11.0278 7.49973 11.2987 7.66682 11.4244C7.83391 11.5501 7.95444 12.0688 7.95444 12.0688C7.95444 12.0688 7.52082 11.9638 7.19974 11.7406ZM8.05786 12.4407C8.04167 12.2992 8.08131 12.1728 8.08131 12.1728C8.08131 12.1728 8.48365 12.3878 8.6247 12.4876C8.76575 12.5874 8.86748 12.9991 8.86748 12.9991C8.86748 12.9991 8.50146 12.9158 8.23044 12.7386C8.13189 12.6742 8.08529 12.5818 8.06589 12.4904C7.98496 12.5152 7.7786 12.5689 7.56571 12.5485C7.29229 12.5222 7.09502 12.1385 7.09502 12.1385C7.09502 12.1385 7.46808 12.137 7.61557 12.1571C7.73046 12.1728 7.9614 12.3591 8.05786 12.4407ZM9.32656 13.1727C9.32656 13.1727 9.35552 13.5757 9.64727 13.6581C9.93902 13.7404 10.2797 13.7051 10.2797 13.7051C10.2797 13.7051 10.0521 13.3498 9.89769 13.2998C9.74326 13.2498 9.32656 13.1727 9.32656 13.1727ZM11.056 14.2516C10.7544 14.2212 10.6559 13.8293 10.6559 13.8293C10.6559 13.8293 11.0796 13.8328 11.2404 13.8553C11.4012 13.8777 11.687 14.1881 11.687 14.1881C11.687 14.1881 11.3576 14.282 11.056 14.2516ZM11.5915 13.526C11.5915 13.526 11.5507 13.9962 11.8537 14.1538C12.1567 14.3115 12.5341 14.3442 12.5341 14.3442C12.5341 14.3442 12.35 13.8861 12.1908 13.7953C12.0316 13.7045 11.5915 13.526 11.5915 13.526ZM11.8035 14.7267C11.4688 14.7949 11.2047 14.4037 11.2047 14.4037C11.2047 14.4037 11.659 14.2655 11.8399 14.2359C12.0207 14.2063 12.4521 14.4464 12.4521 14.4464C12.4521 14.4464 12.1381 14.6585 11.8035 14.7267ZM9.38354 13.8827C9.38354 13.8827 9.54214 14.2543 9.8448 14.2372C10.1475 14.22 10.4581 14.0757 10.4581 14.0757C10.4581 14.0757 10.1272 13.8139 9.96493 13.8169C9.80264 13.8199 9.38354 13.8827 9.38354 13.8827ZM10.2622 13.4571C9.99153 13.3206 10.04 12.9194 10.04 12.9194C10.04 12.9194 10.4343 13.0746 10.5764 13.1532C10.7185 13.2317 10.8741 13.6239 10.8741 13.6239C10.8741 13.6239 10.5329 13.5936 10.2622 13.4571ZM8.73725 11.9897C8.73725 11.9897 8.73791 12.4853 8.94164 12.679C9.14537 12.8727 9.38978 12.9403 9.38978 12.9403C9.38978 12.9403 9.24527 12.438 9.13775 12.3278C9.03023 12.2175 8.73725 11.9897 8.73725 11.9897ZM7.99023 13.0846C7.99023 13.0846 8.29455 13.4809 8.60796 13.4605C8.92137 13.4402 9.19639 13.2838 9.19639 13.2838C9.19639 13.2838 8.7505 13.0061 8.58017 13.0104C8.40985 13.0148 7.99023 13.0846 7.99023 13.0846ZM8.06357 12.9945C7.89689 13.0098 7.74086 12.8021 7.74086 12.8021C7.74086 12.8021 7.96461 12.7589 8.0551 12.7542C8.14559 12.7495 8.37844 12.8918 8.37844 12.8918C8.37844 12.8918 8.23024 12.9793 8.06357 12.9945ZM8.20232 11.3909C8.20232 11.3909 8.0249 11.5806 8.06887 11.7421C8.11285 11.9036 8.22471 12.0344 8.22471 12.0344C8.22471 12.0344 8.32441 11.7804 8.30409 11.6921C8.28376 11.6038 8.20232 11.3909 8.20232 11.3909ZM9.67147 13.0626C9.56829 13.0238 9.5922 12.8992 9.5922 12.8992C9.5922 12.8992 9.74305 12.9421 9.79711 12.9646C9.85117 12.9871 9.90648 13.1063 9.90648 13.1063C9.90648 13.1063 9.77464 13.1013 9.67147 13.0626ZM9.13568 13.5432C9.13568 13.5432 9.11177 13.6679 9.21494 13.7066C9.31812 13.7454 9.44996 13.7504 9.44996 13.7504C9.44996 13.7504 9.39465 13.6311 9.34059 13.6087C9.28653 13.5862 9.13568 13.5432 9.13568 13.5432ZM11.1171 13.7066C11.0139 13.6679 11.0379 13.5432 11.0379 13.5432C11.0379 13.5432 11.1887 13.5862 11.2428 13.6087C11.2968 13.6311 11.3521 13.7504 11.3521 13.7504C11.3521 13.7504 11.2203 13.7454 11.1171 13.7066ZM10.6574 14.3304C10.6574 14.3304 10.6335 14.4551 10.7367 14.4938C10.8399 14.5326 10.9717 14.5376 10.9717 14.5376C10.9717 14.5376 10.9164 14.4183 10.8623 14.3959C10.8083 14.3734 10.6574 14.3304 10.6574 14.3304ZM12.698 15.1841L12.3637 14.9057C12.572 14.7854 12.7865 14.6895 12.97 14.6176C12.9195 14.5829 12.8738 14.5568 12.837 14.5441V14.4529C12.837 14.4529 12.9618 14.4853 13.1488 14.5511C13.3359 14.4853 13.4607 14.4529 13.4607 14.4529V14.5441C13.4238 14.5568 13.3782 14.5829 13.3277 14.6176C13.5112 14.6895 13.7257 14.7854 13.9339 14.9057L13.5997 15.1841C13.5997 15.1841 13.3702 14.9449 13.1488 14.757C12.9275 14.9449 12.698 15.1841 12.698 15.1841ZM19.2746 11.0278C19.2746 11.0278 19.419 11.5175 19.0979 11.7406C18.7768 11.9638 18.3432 12.0688 18.3432 12.0688C18.3432 12.0688 18.4637 11.5501 18.6308 11.4244C18.7979 11.2987 19.2746 11.0278 19.2746 11.0278ZM18.2398 12.4407C18.256 12.2992 18.2163 12.1728 18.2163 12.1728C18.2163 12.1728 17.814 12.3878 17.673 12.4876C17.5319 12.5874 17.4302 12.9991 17.4302 12.9991C17.4302 12.9991 17.7962 12.9158 18.0672 12.7386C18.1658 12.6742 18.2124 12.5818 18.2318 12.4904C18.3127 12.5152 18.5191 12.5689 18.7319 12.5485C19.0054 12.5222 19.2026 12.1385 19.2026 12.1385C19.2026 12.1385 18.8296 12.137 18.6821 12.1571C18.5672 12.1728 18.3363 12.3591 18.2398 12.4407ZM16.9711 13.1727C16.9711 13.1727 16.9421 13.5757 16.6504 13.6581C16.3586 13.7404 16.0179 13.7051 16.0179 13.7051C16.0179 13.7051 16.2455 13.3498 16.4 13.2998C16.5544 13.2498 16.9711 13.1727 16.9711 13.1727ZM15.2417 14.2516C15.5433 14.2212 15.6418 13.8293 15.6418 13.8293C15.6418 13.8293 15.218 13.8328 15.0573 13.8553C14.8965 13.8777 14.6107 14.1881 14.6107 14.1881C14.6107 14.1881 14.94 14.282 15.2417 14.2516ZM14.7061 13.526C14.7061 13.526 14.747 13.9962 14.444 14.1538C14.141 14.3115 13.7635 14.3442 13.7635 14.3442C13.7635 14.3442 13.9476 13.8861 14.1068 13.7953C14.2661 13.7045 14.7061 13.526 14.7061 13.526ZM14.4942 14.7267C14.8289 14.7949 15.093 14.4037 15.093 14.4037C15.093 14.4037 14.6387 14.2655 14.4578 14.2359C14.2769 14.2063 13.8456 14.4464 13.8456 14.4464C13.8456 14.4464 14.1595 14.6585 14.4942 14.7267ZM16.9141 13.8827C16.9141 13.8827 16.7555 14.2543 16.4529 14.2372C16.1502 14.22 15.8396 14.0757 15.8396 14.0757C15.8396 14.0757 16.1704 13.8139 16.3327 13.8169C16.495 13.8199 16.9141 13.8827 16.9141 13.8827ZM16.0354 13.4571C16.3061 13.3206 16.2576 12.9194 16.2576 12.9194C16.2576 12.9194 15.8633 13.0746 15.7213 13.1532C15.5792 13.2317 15.4236 13.6239 15.4236 13.6239C15.4236 13.6239 15.7648 13.5936 16.0354 13.4571ZM17.5604 11.9897C17.5604 11.9897 17.5597 12.4853 17.356 12.679C17.1523 12.8727 16.9079 12.9403 16.9079 12.9403C16.9079 12.9403 17.0524 12.438 17.1599 12.3278C17.2674 12.2175 17.5604 11.9897 17.5604 11.9897ZM18.3074 13.0846C18.3074 13.0846 18.0031 13.4809 17.6897 13.4605C17.3763 13.4402 17.1013 13.2838 17.1013 13.2838C17.1013 13.2838 17.5472 13.0061 17.7175 13.0104C17.8878 13.0148 18.3074 13.0846 18.3074 13.0846ZM18.2341 12.9945C18.4008 13.0098 18.5568 12.8021 18.5568 12.8021C18.5568 12.8021 18.333 12.7589 18.2426 12.7542C18.1521 12.7495 17.9192 12.8918 17.9192 12.8918C17.9192 12.8918 18.0674 12.9793 18.2341 12.9945ZM18.0953 11.3909C18.0953 11.3909 18.2728 11.5806 18.2288 11.7421C18.1848 11.9036 18.0729 12.0344 18.0729 12.0344C18.0729 12.0344 17.9732 11.7804 17.9936 11.6921C18.0139 11.6038 18.0953 11.3909 18.0953 11.3909ZM16.6262 13.0626C16.7294 13.0238 16.7055 12.8992 16.7055 12.8992C16.7055 12.8992 16.5546 12.9421 16.5005 12.9646C16.4465 12.9871 16.3912 13.1063 16.3912 13.1063C16.3912 13.1063 16.523 13.1013 16.6262 13.0626ZM17.162 13.5432C17.162 13.5432 17.1859 13.6679 17.0827 13.7066C16.9795 13.7454 16.8477 13.7504 16.8477 13.7504C16.8477 13.7504 16.903 13.6311 16.9571 13.6087C17.0111 13.5862 17.162 13.5432 17.162 13.5432ZM15.1805 13.7066C15.2837 13.6679 15.2598 13.5432 15.2598 13.5432C15.2598 13.5432 15.109 13.5862 15.0549 13.6087C15.0008 13.6311 14.9455 13.7504 14.9455 13.7504C14.9455 13.7504 15.0774 13.7454 15.1805 13.7066ZM15.6402 14.3304C15.6402 14.3304 15.6641 14.4551 15.561 14.4938C15.4578 14.5326 15.326 14.5376 15.326 14.5376C15.326 14.5376 15.3813 14.4183 15.4353 14.3959C15.4894 14.3734 15.6402 14.3304 15.6402 14.3304Z" fill="#006B49"/>
<path fill-rule="evenodd" clip-rule="evenodd" d="M22.3546 3.26282C22.3546 3.26282 22.6142 3.59646 22.3546 3.59646C22.0949 3.59646 21.4347 3.95747 21.4347 3.95747C21.4347 3.95747 21.1207 4.42615 20.7404 4.53219C20.36 4.63823 20.2317 5.032 19.675 5.19612C19.1182 5.36024 19.0613 5.40505 19.0613 5.57115C19.0613 5.73725 19.1563 6.01856 18.7761 6.01856C18.3959 6.01856 18.1272 5.48625 17.9214 6.01856C17.7157 6.55087 17.5073 6.70691 17.7923 7.03255C18.0772 7.35819 18.4548 7.67001 18.6154 7.85807C18.7761 8.04613 19.8475 8.5965 19.0613 8.5965C18.2752 8.5965 18.6704 8.09833 18.0652 8.2803C17.4601 8.46228 17.8075 8.73072 17.345 8.5965C16.8825 8.46228 16.5741 8.33982 16.4306 8.40105C16.2871 8.46228 16.0565 8.06084 16.0565 8.5965C16.0565 9.13216 16.4882 8.91502 15.5627 9.50671C14.6372 10.0984 14.821 9.9349 14.3962 9.9349C13.9714 9.9349 13.8222 10.2027 13.5389 10.2027C13.2557 10.2027 13.2903 10.2027 12.9713 10.2027C12.6522 10.2027 12.994 9.86389 12.45 10.2027C11.906 10.5416 11.7112 10.609 11.7112 10.7392C11.7112 10.8694 11.7112 11.2146 11.7112 11.2146C11.7112 11.2146 11.2127 11.4997 11.2127 11.2146C11.2127 10.9295 11.0591 10.8565 10.8524 10.7392C10.6458 10.622 10.2328 10.7064 9.79183 10.7392C9.35082 10.772 8.85224 10.2944 8.4694 10.2944C8.08657 10.2944 8.01534 9.9349 7.91061 9.9349C7.80589 9.9349 8.01987 9.62766 7.5741 9.35197C7.12834 9.07627 6.97231 9.042 6.97231 8.5965C6.97231 8.15101 6.76761 8.02917 6.76761 7.75846C6.76761 7.48776 6.98574 7.85807 7.44818 7.85807C7.91061 7.85807 7.94095 7.57159 8.4694 7.30207C8.99786 7.03255 9.17721 6.88506 9.61784 7.03255C10.0585 7.18005 10.4922 7.72966 10.8524 7.20214C11.2127 6.67462 11.2127 6.07137 11.2127 5.76681C11.2127 5.46224 10.9996 5.37549 11.5748 5.57115C12.15 5.76681 12.4846 5.76681 13.4404 5.76681C14.3962 5.76681 15.5391 6.07938 15.8913 5.76681C16.2435 5.45424 16.62 5.19612 17.5338 5.19612C18.4476 5.19612 18.7461 4.747 19.3606 4.53219C19.9751 4.31738 19.0689 4.77149 20.4472 4.18398C21.8256 3.59646 22.3546 3.26282 22.3546 3.26282Z" fill="#F57A01"/>
</g>
</g>
</g>
<rect x="1.75" y="1.25" width="23.5" height="17.5" stroke="black" stroke-opacity="0.1" stroke-width="0.5" shape-rendering="crispEdges"/>
</g>
<defs>
<filter id="filter0_dd_701_24115" x="0" y="0" width="27" height="21" filterUnits="userSpaceOnUse" color-interpolation-filters="sRGB">
<feFlood flood-opacity="0" result="BackgroundImageFix"/>
<feColorMatrix in="SourceAlpha" type="matrix" values="0 0 0 0 0 0 0 0 0 0 0 0 0 0 0 0 0 0 127 0" result="hardAlpha"/>
<feOffset dy="0.5"/>
<feGaussianBlur stdDeviation="0.75"/>
<feComposite in2="hardAlpha" operator="out"/>
<feColorMatrix type="matrix" values="0 0 0 0 0 0 0 0 0 0 0 0 0 0 0 0 0 0 0.1 0"/>
<feBlend mode="multiply" in2="BackgroundImageFix" result="effect1_dropShadow_701_24115"/>
<feColorMatrix in="SourceAlpha" type="matrix" values="0 0 0 0 0 0 0 0 0 0 0 0 0 0 0 0 0 0 127 0" result="hardAlpha"/>
<feOffset/>
<feGaussianBlur stdDeviation="0.5"/>
<feComposite in2="hardAlpha" operator="out"/>
<feColorMatrix type="matrix" values="0 0 0 0 0 0 0 0 0 0 0 0 0 0 0 0 0 0 0.11 0"/>
<feBlend mode="multiply" in2="effect1_dropShadow_701_24115" result="effect2_dropShadow_701_24115"/>
<feBlend mode="normal" in="SourceGraphic" in2="effect2_dropShadow_701_24115" result="shape"/>
</filter>
<clipPath id="clip0_701_24115">
<rect x="1.5" y="1" width="24" height="18" fill="white"/>
</clipPath>
</defs>
</svg>
