<svg viewBox="0 0 27 21" fill="none" xmlns="http://www.w3.org/2000/svg">
<g filter="url(#filter0_dd_701_22883)">
<g clip-path="url(#clip0_701_22883)">
<mask id="mask0_701_22883" style="mask-type:alpha" maskUnits="userSpaceOnUse" x="1" y="1" width="25" height="18">
<rect x="1.5" y="1" width="24" height="18" fill="white"/>
</mask>
<g mask="url(#mask0_701_22883)">
<path fill-rule="evenodd" clip-rule="evenodd" d="M1.5 1V19H25.5V1H1.5Z" fill="#F7FCFF"/>
<mask id="mask1_701_22883" style="mask-type:alpha" maskUnits="userSpaceOnUse" x="1" y="1" width="25" height="18">
<path fill-rule="evenodd" clip-rule="evenodd" d="M1.5 1V19H25.5V1H1.5Z" fill="white"/>
</mask>
<g mask="url(#mask1_701_22883)">
<path fill-rule="evenodd" clip-rule="evenodd" d="M1.5 3.25V5.5H25.5V3.25H1.5Z" fill="#3D58DB"/>
<path fill-rule="evenodd" clip-rule="evenodd" d="M1.5 14.5V16.75H25.5V14.5H1.5Z" fill="#3D58DB"/>
<path fill-rule="evenodd" clip-rule="evenodd" d="M10.0359 12.2041H17.0687L13.587 5.96521L10.0359 12.2041ZM15.8649 11.4471H11.2654L13.5799 7.34494L15.8649 11.4471Z" fill="#3D58DB"/>
<path fill-rule="evenodd" clip-rule="evenodd" d="M9.948 7.80702H17.0106L13.6019 13.8711L9.948 7.80702ZM15.784 8.53747H11.2883L13.5819 12.6484L15.784 8.53747Z" fill="#3D58DB"/>
</g>
</g>
</g>
<rect x="1.75" y="1.25" width="23.5" height="17.5" stroke="black" stroke-opacity="0.1" stroke-width="0.5" shape-rendering="crispEdges"/>
</g>
<defs>
<filter id="filter0_dd_701_22883" x="0" y="0" width="27" height="21" filterUnits="userSpaceOnUse" color-interpolation-filters="sRGB">
<feFlood flood-opacity="0" result="BackgroundImageFix"/>
<feColorMatrix in="SourceAlpha" type="matrix" values="0 0 0 0 0 0 0 0 0 0 0 0 0 0 0 0 0 0 127 0" result="hardAlpha"/>
<feOffset dy="0.5"/>
<feGaussianBlur stdDeviation="0.75"/>
<feComposite in2="hardAlpha" operator="out"/>
<feColorMatrix type="matrix" values="0 0 0 0 0 0 0 0 0 0 0 0 0 0 0 0 0 0 0.1 0"/>
<feBlend mode="multiply" in2="BackgroundImageFix" result="effect1_dropShadow_701_22883"/>
<feColorMatrix in="SourceAlpha" type="matrix" values="0 0 0 0 0 0 0 0 0 0 0 0 0 0 0 0 0 0 127 0" result="hardAlpha"/>
<feOffset/>
<feGaussianBlur stdDeviation="0.5"/>
<feComposite in2="hardAlpha" operator="out"/>
<feColorMatrix type="matrix" values="0 0 0 0 0 0 0 0 0 0 0 0 0 0 0 0 0 0 0.11 0"/>
<feBlend mode="multiply" in2="effect1_dropShadow_701_22883" result="effect2_dropShadow_701_22883"/>
<feBlend mode="normal" in="SourceGraphic" in2="effect2_dropShadow_701_22883" result="shape"/>
</filter>
<clipPath id="clip0_701_22883">
<rect x="1.5" y="1" width="24" height="18" fill="white"/>
</clipPath>
</defs>
</svg>