<svg width="27" height="21" viewBox="0 0 27 21" fill="none" xmlns="http://www.w3.org/2000/svg">
<g filter="url(#filter0_dd_701_22081)">
<g clip-path="url(#clip0_701_22081)">
<mask id="mask0_701_22081" style="mask-type:alpha" maskUnits="userSpaceOnUse" x="1" y="1" width="25" height="18">
<rect x="1.5" y="1" width="24" height="18" fill="white"/>
</mask>
<g mask="url(#mask0_701_22081)">
<path fill-rule="evenodd" clip-rule="evenodd" d="M1.5 1V19H25.5V1H1.5Z" fill="#4EC7EE"/>
<mask id="mask1_701_22081" style="mask-type:alpha" maskUnits="userSpaceOnUse" x="1" y="1" width="25" height="18">
<path fill-rule="evenodd" clip-rule="evenodd" d="M1.5 1V19H25.5V1H1.5Z" fill="white"/>
</mask>
<g mask="url(#mask1_701_22081)">
<path d="M4.56747 18.4278C4.51987 18.7803 4.74566 19.0314 5.12443 19.193C5.63362 19.4102 6.1474 19.2068 6.62 18.6831L6.00755 18.1304C5.79761 18.363 5.6459 18.4526 5.5288 18.4511C5.75809 18.2873 6.05188 18.0851 6.40973 17.8447L6.58148 17.596C6.71943 17.0042 6.29049 16.6836 5.6363 16.6836C5.25099 16.6836 4.94293 16.7598 4.74748 16.9237C4.42638 17.1929 4.48135 17.6227 4.81926 17.8463C4.84606 17.864 4.87327 17.88 4.90084 17.8942C4.71128 18.0543 4.59559 18.2196 4.56747 18.4278Z" fill="#FFE402"/>
<path d="M4.92368 17.8717C4.92368 17.8717 5.01727 17.6643 4.97048 17.5564" stroke="#FFE402" stroke-width="1.1"/>
<path d="M7.92705 18.4278C7.97464 18.7803 7.74885 19.0314 7.37008 19.193C6.8609 19.4102 6.34712 19.2068 5.87451 18.6831L6.48697 18.1304C6.69691 18.363 6.84861 18.4526 6.96572 18.4511C6.73642 18.2873 6.44264 18.0851 6.08479 17.8447L5.91303 17.596C5.77508 17.0042 6.20403 16.6836 6.85821 16.6836C7.24353 16.6836 7.55158 16.7598 7.74703 16.9237C8.06814 17.1929 8.01316 17.6227 7.67525 17.8463C7.64845 17.864 7.62125 17.88 7.59367 17.8942C7.78323 18.0543 7.89893 18.2196 7.92705 18.4278Z" fill="#FFE402"/>
<path d="M7.94683 17.702L7.19483 18.0413C7.08928 17.8073 7.05774 17.5948 7.14558 17.3922L7.9025 17.7204C7.92795 17.6617 7.9276 17.6593 7.94683 17.702Z" fill="#FFE402"/>
<path d="M4.56747 1.57231C4.51987 1.21981 4.74566 0.968735 5.12443 0.807142C5.63362 0.589911 6.1474 0.793328 6.62 1.31699L6.00755 1.86973C5.79761 1.63711 5.6459 1.54749 5.5288 1.54901C5.75809 1.71283 6.05188 1.91506 6.40973 2.15538L6.58148 2.40417C6.71943 2.99592 6.29049 3.31656 5.6363 3.31656C5.25099 3.31656 4.94293 3.24032 4.74748 3.07644C4.42638 2.80721 4.48135 2.37742 4.81926 2.15382C4.84606 2.13608 4.87327 2.12012 4.90084 2.1059C4.71128 1.94582 4.59559 1.78055 4.56747 1.57231Z" fill="#FFE402"/>
<path d="M7.92705 1.57231C7.97464 1.21981 7.74885 0.968735 7.37008 0.807142C6.8609 0.589911 6.34712 0.793328 5.87451 1.31699L6.48697 1.86973C6.69691 1.63711 6.84861 1.54749 6.96572 1.54901C6.73642 1.71283 6.44264 1.91506 6.08479 2.15538L5.91303 2.40417C5.77508 2.99592 6.20403 3.31656 6.85821 3.31656C7.24353 3.31656 7.55158 3.24032 7.74703 3.07644C8.06814 2.80721 8.01316 2.37742 7.67525 2.15382C7.64845 2.13608 7.62125 2.12012 7.59367 2.1059C7.78323 1.94582 7.89893 1.78055 7.92705 1.57231Z" fill="#FFE402"/>
<path fill-rule="evenodd" clip-rule="evenodd" d="M5.32035 16.0472C4.84708 16.0609 4.55262 16.1585 4.55262 16.6147C4.55262 17.1178 5.04136 17.2751 5.56132 17.2751C6.03234 17.2751 6.56297 16.9828 6.56297 16.4593C6.56297 16.1408 6.158 15.498 5.13828 14.1048C5.10293 14.0719 5.08347 14.0551 5.06788 14.055C5.12972 14.0205 5.23863 13.9802 5.38233 13.9802C5.43222 13.9802 5.49706 14.0054 5.56132 14.0378V14.5842H6.64093V14.1717C6.64093 13.7057 5.952 13.1552 5.38233 13.1552C4.88482 13.1552 4.48541 13.3919 4.2831 13.7324C4.08316 14.0688 4.23605 14.3918 4.52317 14.6488C4.95044 15.238 5.28218 15.7258 5.49023 16.0463C5.41379 16.0457 5.37182 16.0458 5.32035 16.0472ZM5.37106 16.4276C5.35609 16.4243 5.34168 16.4207 5.32823 16.4168C5.33825 16.4273 5.37762 16.4742 5.37762 16.6147C5.37762 16.6912 5.37394 16.745 5.369 16.7828C5.22981 16.6601 5.1909 16.446 5.29275 16.2812L5.29527 16.2771L5.27974 16.2463C5.2818 16.2452 5.28386 16.2442 5.28589 16.2431C5.30988 16.2308 5.32958 16.2206 5.29527 16.2771L5.37106 16.4276ZM5.32823 16.4168L5.31392 16.4124C5.31547 16.4129 5.31748 16.4138 5.31985 16.4154L5.32823 16.4168ZM5.73797 16.4593C5.73797 16.4452 5.73318 16.4368 5.72491 16.4323L5.72971 16.4376C5.73519 16.4489 5.73797 16.4561 5.73797 16.4593Z" fill="#FFE402"/>
<path fill-rule="evenodd" clip-rule="evenodd" d="M7.17416 16.0472C7.64742 16.0609 7.94188 16.1585 7.94188 16.6147C7.94188 17.1178 7.45315 17.2751 6.93319 17.2751C6.46217 17.2751 5.93154 16.9828 5.93154 16.4593C5.93154 16.1408 6.3365 15.498 7.35623 14.1048C7.39157 14.0719 7.41104 14.0551 7.42662 14.055C7.36478 14.0205 7.25588 13.9802 7.11218 13.9802C7.06229 13.9802 6.99745 14.0054 6.93319 14.0378V14.5842H5.85358V14.1717C5.85358 13.7057 6.5425 13.1552 7.11218 13.1552C7.60969 13.1552 8.0091 13.3919 8.21141 13.7324C8.41134 14.0688 8.25846 14.3918 7.97133 14.6488C7.54407 15.238 7.21233 15.7258 7.00427 16.0463C7.08071 16.0457 7.12268 16.0458 7.17416 16.0472ZM7.12345 16.4276C7.13842 16.4243 7.15282 16.4207 7.16628 16.4168C7.15626 16.4273 7.11688 16.4742 7.11688 16.6147C7.11688 16.6912 7.12057 16.745 7.12551 16.7828C7.2647 16.6601 7.30361 16.446 7.20175 16.2812L7.19923 16.2771L7.21477 16.2463C7.2127 16.2452 7.21064 16.2442 7.20861 16.2431C7.18463 16.2308 7.16492 16.2206 7.19923 16.2771L7.12345 16.4276ZM7.16628 16.4168L7.18058 16.4124C7.17904 16.4129 7.17702 16.4138 7.17466 16.4154L7.16628 16.4168ZM6.75653 16.4593C6.75653 16.4452 6.76132 16.4368 6.7696 16.4323L6.7648 16.4376C6.75931 16.4489 6.75653 16.4561 6.75653 16.4593Z" fill="#FFE402"/>
<path fill-rule="evenodd" clip-rule="evenodd" d="M5.32035 11.0161C4.84708 11.0025 4.55262 10.9049 4.55262 10.4487C4.55262 9.94559 5.04136 9.78821 5.56132 9.78821C6.03234 9.78821 6.56297 10.0805 6.56297 10.6041C6.56297 10.9226 6.158 11.5653 5.13828 12.9586C5.10293 12.9915 5.08347 13.0083 5.06788 13.0084C5.12972 13.0428 5.23863 13.0831 5.38233 13.0831C5.43222 13.0831 5.49706 13.0579 5.56132 13.0256V12.4792H6.64093V12.8917C6.64093 13.3577 5.952 13.9081 5.38233 13.9081C4.88482 13.9081 4.48541 13.6715 4.2831 13.331C4.08316 12.9945 4.23605 12.6715 4.52317 12.4146C4.95044 11.8253 5.28218 11.3375 5.49023 11.0171C5.41379 11.0177 5.37182 11.0176 5.32035 11.0161ZM5.37106 10.6357C5.35609 10.639 5.34168 10.6427 5.32823 10.6466C5.33825 10.6361 5.37762 10.5892 5.37762 10.4487C5.37762 10.3722 5.37394 10.3184 5.369 10.2805C5.22981 10.4033 5.1909 10.6174 5.29275 10.7821L5.29527 10.7862L5.27974 10.8171C5.2818 10.8181 5.28386 10.8192 5.28589 10.8202C5.30988 10.8326 5.32958 10.8427 5.29527 10.7862L5.37106 10.6357ZM5.32823 10.6466L5.31392 10.651C5.31547 10.6505 5.31748 10.6495 5.31985 10.648L5.32823 10.6466ZM5.73797 10.6041C5.73797 10.6182 5.73318 10.6265 5.72491 10.631L5.72971 10.6258C5.73519 10.6145 5.73797 10.6072 5.73797 10.6041Z" fill="#FFE402"/>
<path fill-rule="evenodd" clip-rule="evenodd" d="M7.17416 11.0161C7.64742 11.0025 7.94188 10.9049 7.94188 10.4487C7.94188 9.94559 7.45315 9.78821 6.93319 9.78821C6.46217 9.78821 5.93154 10.0805 5.93154 10.6041C5.93154 10.9226 6.3365 11.5653 7.35623 12.9586C7.39157 12.9915 7.41104 13.0083 7.42662 13.0084C7.36478 13.0428 7.25588 13.0831 7.11218 13.0831C7.06229 13.0831 6.99745 13.0579 6.93319 13.0256V12.4792H5.85358V12.8917C5.85358 13.3577 6.5425 13.9081 7.11218 13.9081C7.60969 13.9081 8.0091 13.6715 8.21141 13.331C8.41134 12.9945 8.25846 12.6715 7.97133 12.4146C7.54407 11.8253 7.21233 11.3375 7.00427 11.0171C7.08071 11.0177 7.12268 11.0176 7.17416 11.0161ZM7.12345 10.6357C7.13842 10.639 7.15282 10.6427 7.16628 10.6466C7.15626 10.6361 7.11688 10.5892 7.11688 10.4487C7.11688 10.3722 7.12057 10.3184 7.12551 10.2805C7.2647 10.4033 7.30361 10.6174 7.20175 10.7821L7.19923 10.7862L7.21477 10.8171C7.2127 10.8181 7.21064 10.8192 7.20861 10.8202C7.18463 10.8326 7.16492 10.8427 7.19923 10.7862L7.12345 10.6357ZM7.16628 10.6466L7.18058 10.651C7.17904 10.6505 7.17702 10.6495 7.17466 10.648L7.16628 10.6466ZM6.75653 10.6041C6.75653 10.6182 6.76132 10.6265 6.7696 10.631L6.7648 10.6258C6.75931 10.6145 6.75653 10.6072 6.75653 10.6041Z" fill="#FFE402"/>
<path fill-rule="evenodd" clip-rule="evenodd" d="M5.32035 8.98401C4.84708 8.99763 4.55262 9.09526 4.55262 9.55147C4.55262 10.0545 5.04136 10.2119 5.56132 10.2119C6.03234 10.2119 6.56297 9.91958 6.56297 9.39603C6.56297 9.07753 6.158 8.43481 5.13828 7.04154C5.10293 7.00862 5.08347 6.99185 5.06788 6.99174C5.12972 6.95731 5.23863 6.91698 5.38233 6.91698C5.43222 6.91698 5.49706 6.94221 5.56132 6.97454V7.52097H6.64093V7.10847C6.64093 6.64242 5.952 6.09198 5.38233 6.09198C4.88482 6.09198 4.48541 6.32865 4.2831 6.66913C4.08316 7.00561 4.23605 7.32861 4.52317 7.58552C4.95044 8.1748 5.28218 8.66258 5.49023 8.98307C5.41379 8.98243 5.37182 8.98253 5.32035 8.98401ZM5.37106 9.3644C5.35609 9.36107 5.34168 9.35743 5.32823 9.35353C5.33825 9.36403 5.37762 9.41097 5.37762 9.55147C5.37762 9.62796 5.37394 9.68177 5.369 9.71961C5.22981 9.59682 5.1909 9.38276 5.29275 9.21799L5.29527 9.21388L5.27974 9.18303C5.2818 9.18199 5.28386 9.18093 5.28589 9.17988C5.30988 9.16753 5.32958 9.15739 5.29527 9.21388L5.37106 9.3644ZM5.32823 9.35353L5.31392 9.34915C5.31547 9.34965 5.31748 9.3506 5.31985 9.35213L5.32823 9.35353ZM5.73797 9.39603C5.73797 9.38195 5.73318 9.37357 5.72491 9.36909L5.72971 9.37435C5.73519 9.38563 5.73797 9.39291 5.73797 9.39603Z" fill="#FFE402"/>
<path fill-rule="evenodd" clip-rule="evenodd" d="M7.17416 8.98401C7.64742 8.99763 7.94188 9.09526 7.94188 9.55147C7.94188 10.0545 7.45315 10.2119 6.93319 10.2119C6.46217 10.2119 5.93154 9.91958 5.93154 9.39603C5.93154 9.07753 6.3365 8.43481 7.35623 7.04154C7.39157 7.00862 7.41104 6.99185 7.42662 6.99174C7.36478 6.95731 7.25588 6.91698 7.11218 6.91698C7.06229 6.91698 6.99745 6.94221 6.93319 6.97454V7.52097H5.85358V7.10847C5.85358 6.64242 6.5425 6.09198 7.11218 6.09198C7.60969 6.09198 8.0091 6.32865 8.21141 6.66913C8.41134 7.00561 8.25846 7.32861 7.97133 7.58552C7.54407 8.1748 7.21233 8.66258 7.00427 8.98307C7.08071 8.98243 7.12268 8.98253 7.17416 8.98401ZM7.12345 9.3644C7.13842 9.36107 7.15282 9.35743 7.16628 9.35353C7.15626 9.36403 7.11688 9.41097 7.11688 9.55147C7.11688 9.62796 7.12057 9.68177 7.12551 9.71961C7.2647 9.59682 7.30361 9.38276 7.20175 9.21799L7.19923 9.21388L7.21477 9.18303C7.2127 9.18199 7.21064 9.18093 7.20861 9.17988C7.18463 9.16753 7.16492 9.15739 7.19923 9.21388L7.12345 9.3644ZM7.16628 9.35353L7.18058 9.34915C7.17904 9.34965 7.17702 9.3506 7.17466 9.35213L7.16628 9.35353ZM6.75653 9.39603C6.75653 9.38195 6.76132 9.37357 6.7696 9.36909L6.7648 9.37435C6.75931 9.38563 6.75653 9.39291 6.75653 9.39603Z" fill="#FFE402"/>
<path fill-rule="evenodd" clip-rule="evenodd" d="M5.32035 3.95276C4.84708 3.93913 4.55262 3.84151 4.55262 3.3853C4.55262 2.88224 5.04136 2.72485 5.56132 2.72485C6.03234 2.72485 6.56297 3.01719 6.56297 3.54074C6.56297 3.85924 6.158 4.50196 5.13828 5.89523C5.10293 5.92815 5.08347 5.94492 5.06788 5.94503C5.12972 5.97946 5.23863 6.01979 5.38233 6.01979C5.43222 6.01979 5.49706 5.99455 5.56132 5.96223V5.4158H6.64093V5.8283C6.64093 6.29435 5.952 6.84479 5.38233 6.84479C4.88482 6.84479 4.48541 6.60812 4.2831 6.26764C4.08316 5.93116 4.23605 5.60816 4.52317 5.35124C4.95044 4.76197 5.28218 4.27419 5.49023 3.9537C5.41379 3.95434 5.37182 3.95424 5.32035 3.95276ZM5.37106 3.57236C5.35609 3.5757 5.34168 3.57934 5.32823 3.58324C5.33825 3.57274 5.37762 3.5258 5.37762 3.3853C5.37762 3.30881 5.37394 3.255 5.369 3.21716C5.22981 3.33995 5.1909 3.554 5.29275 3.71878L5.29527 3.72289L5.27974 3.75374C5.2818 3.75478 5.28386 3.75584 5.28589 3.75689C5.30988 3.76923 5.32958 3.77938 5.29527 3.72289L5.37106 3.57236ZM5.32823 3.58324L5.31392 3.58761C5.31547 3.58712 5.31748 3.58617 5.31985 3.58464L5.32823 3.58324ZM5.73797 3.54074C5.73797 3.55482 5.73318 3.56319 5.72491 3.56768L5.72971 3.56242C5.73519 3.55114 5.73797 3.54386 5.73797 3.54074Z" fill="#FFE402"/>
<path fill-rule="evenodd" clip-rule="evenodd" d="M7.17416 3.95276C7.64742 3.93913 7.94188 3.84151 7.94188 3.3853C7.94188 2.88224 7.45315 2.72485 6.93319 2.72485C6.46217 2.72485 5.93154 3.01719 5.93154 3.54074C5.93154 3.85924 6.3365 4.50196 7.35623 5.89523C7.39157 5.92815 7.41104 5.94492 7.42662 5.94503C7.36478 5.97946 7.25588 6.01979 7.11218 6.01979C7.06229 6.01979 6.99745 5.99455 6.93319 5.96223V5.4158H5.85358V5.8283C5.85358 6.29435 6.5425 6.84479 7.11218 6.84479C7.60969 6.84479 8.0091 6.60812 8.21141 6.26764C8.41134 5.93116 8.25846 5.60816 7.97133 5.35124C7.54407 4.76197 7.21233 4.27419 7.00427 3.9537C7.08071 3.95434 7.12268 3.95424 7.17416 3.95276ZM7.12345 3.57236C7.13842 3.5757 7.15282 3.57934 7.16628 3.58324C7.15626 3.57274 7.11688 3.5258 7.11688 3.3853C7.11688 3.30881 7.12057 3.255 7.12551 3.21716C7.2647 3.33995 7.30361 3.554 7.20175 3.71878L7.19923 3.72289L7.21477 3.75374C7.2127 3.75478 7.21064 3.75584 7.20861 3.75689C7.18463 3.76923 7.16492 3.77938 7.19923 3.72289L7.12345 3.57236ZM7.16628 3.58324L7.18058 3.58761C7.17904 3.58712 7.17702 3.58617 7.17466 3.58464L7.16628 3.58324ZM6.75653 3.54074C6.75653 3.55482 6.76132 3.56319 6.7696 3.56768L6.7648 3.56242C6.75931 3.55114 6.75653 3.54386 6.75653 3.54074Z" fill="#FFE402"/>
<path fill-rule="evenodd" clip-rule="evenodd" d="M15.74 3.08862L16.0471 4.23441C16.0471 4.23441 16.0507 4.49472 15.7566 4.49472C15.4626 4.49472 15.4477 4.23441 15.4477 4.23441L15.74 3.08862ZM18.3377 7.46501C18.3377 8.95618 17.1994 10.165 15.7952 10.165C14.3911 10.165 13.2527 8.95618 13.2527 7.46501C13.2527 5.97384 14.3911 4.76501 15.7952 4.76501C17.1994 4.76501 18.3377 5.97384 18.3377 7.46501ZM16.9359 4.46546L16.9772 3.27996L16.3627 4.29022C16.3627 4.29022 16.3008 4.54349 16.582 4.62947C16.8633 4.71545 16.9359 4.46546 16.9359 4.46546ZM18.1055 3.84134L17.7193 4.96296C17.7193 4.96296 17.5768 5.18079 17.333 5.01634C17.0892 4.85189 17.2224 4.62779 17.2224 4.62779L18.1055 3.84134ZM18.3276 5.68273L19.0247 4.72301L17.9504 5.21692C17.9504 5.21692 17.7574 5.39227 17.9425 5.62081C18.1275 5.84936 18.3276 5.68273 18.3276 5.68273ZM19.6582 5.85821L18.6986 6.55552C18.6986 6.55552 18.4569 6.65217 18.3515 6.37763C18.2461 6.10308 18.4838 5.99594 18.4838 5.99594L19.6582 5.85821ZM18.8159 7.51172L19.9374 7.12546L18.7741 6.9138C18.7741 6.9138 18.5154 6.94675 18.5359 7.24012C18.5564 7.53348 18.8159 7.51172 18.8159 7.51172ZM19.8454 8.42196L18.6599 8.46343C18.6599 8.46343 18.4054 8.40839 18.4716 8.12185C18.5377 7.8353 18.7947 7.87941 18.7947 7.87941L19.8454 8.42196ZM18.2444 9.32589L19.3902 9.63283L18.5441 8.8068C18.5441 8.8068 18.3112 8.68949 18.1642 8.94417C18.0171 9.19886 18.2444 9.32589 18.2444 9.32589ZM18.6122 10.6508L17.6062 10.0222C17.6062 10.0222 17.4261 9.8343 17.6411 9.63374C17.8562 9.43318 18.0446 9.61344 18.0446 9.61344L18.6122 10.6508ZM16.8022 10.4903L17.5804 11.3855L17.3409 10.2276C17.3409 10.2276 17.2134 10.0001 16.9491 10.129C16.6848 10.258 16.8022 10.4903 16.8022 10.4903ZM16.3862 11.7721L15.9037 10.6884C15.9037 10.6884 15.8594 10.4319 16.1499 10.3859C16.4403 10.3399 16.4957 10.5947 16.4957 10.5947L16.3862 11.7721ZM14.9992 10.5947L15.1233 11.7744L15.5912 10.6884C15.5912 10.6884 15.6173 10.429 15.3268 10.383C15.0364 10.337 14.9992 10.5947 14.9992 10.5947ZM13.9278 11.392L14.154 10.2276C14.154 10.2276 14.2649 9.99205 14.5292 10.121C14.7936 10.2499 14.6928 10.4904 14.6928 10.4904L13.9278 11.392ZM13.4503 9.61347L12.8935 10.6609L13.8887 10.0223C13.8887 10.0223 14.0554 9.82175 13.8403 9.62119C13.6252 9.42063 13.4503 9.61347 13.4503 9.61347ZM12.1121 9.64568L12.9508 8.80684C12.9508 8.80684 13.1745 8.67356 13.3215 8.92824C13.4686 9.18292 13.2505 9.32592 13.2505 9.32592L12.1121 9.64568ZM12.7002 7.87945L11.6529 8.43642L12.835 8.46347C12.835 8.46347 13.0853 8.39047 13.0192 8.10392C12.953 7.81738 12.7002 7.87945 12.7002 7.87945ZM11.5564 7.14026L12.7208 6.91384C12.7208 6.91384 12.9808 6.9284 12.9603 7.22176C12.9397 7.51513 12.679 7.51177 12.679 7.51177L11.5564 7.14026ZM13.0111 5.99598L11.8313 5.87206L12.7963 6.55556C12.7963 6.55556 13.0446 6.635 13.15 6.36045C13.2554 6.0859 13.0111 5.99598 13.0111 5.99598ZM12.4608 4.73454L13.5445 5.21695C13.5445 5.21695 13.7491 5.37797 13.564 5.60651C13.3789 5.83506 13.1673 5.68276 13.1673 5.68276L12.4608 4.73454ZM14.2724 4.62781L13.3771 3.84963L13.7755 4.96298C13.7755 4.96298 13.9334 5.1705 14.1772 5.00605C14.421 4.8416 14.2724 4.62781 14.2724 4.62781ZM14.5035 3.28429L15.1321 4.29023C15.1321 4.29023 15.2117 4.53811 14.9305 4.62409C14.6492 4.71008 14.5589 4.46547 14.5589 4.46547L14.5035 3.28429Z" fill="#FFE402"/>
<path fill-rule="evenodd" clip-rule="evenodd" d="M10.6657 9.0039C10.6555 8.9645 10.6461 8.92605 10.6376 8.88853L10.6901 8.99419L10.6657 9.0039ZM10.7377 9.25147C10.7102 9.1651 10.6862 9.08261 10.6657 9.0039L10.3443 9.13223L10.3919 9.25147H10.3573L10.3438 9.25814C10.3246 9.16019 10.3149 9.06735 10.3149 8.97927V8.23896L10.6376 8.88853C10.5967 8.70807 10.5762 8.54931 10.5762 8.41094V7.488L10.9495 8.42318L10.595 8.53415L10.7343 8.97927H10.7274L10.6901 8.99419L10.8223 9.26034L10.9498 9.66773C10.8305 9.44874 10.7698 9.30339 10.7698 9.25147H10.7377ZM11.148 10.2914C10.9698 9.89571 10.8328 9.55035 10.7377 9.25147H10.3919L10.7433 10.1315L10.6132 9.99264C10.4769 9.71977 10.3867 9.47627 10.3438 9.25814L10.0578 9.40021L10.0009 9.33946V9.4285L9.98784 9.43498L10.0009 9.46126V9.56195C9.96338 9.44488 9.94477 9.34225 9.94477 9.25147V7.4938L10.3149 8.23896V6.83371L10.5762 7.488V5.71191L11.6192 9.04469L11.5459 9.06858C11.4491 8.77948 11.4012 8.55831 11.4012 8.41094H10.9887L10.9495 8.42318L11.2462 9.16619L11.1746 9.18952C11.1514 9.10714 11.1399 9.03681 11.1399 8.97927H10.7343L10.8223 9.26034L11.2829 10.1877L11.2638 10.195C11.1338 9.99068 11.0289 9.813 10.9498 9.66773L11.1306 10.2456L11.2638 10.195L11.2824 10.224L11.148 10.2914ZM11.291 10.2375L11.1482 10.2918L11.148 10.2914L10.9747 10.3784L10.7433 10.1315L10.8535 10.4076C10.8402 10.3965 10.8321 10.3889 10.8284 10.3852C10.7472 10.248 10.6754 10.1172 10.6132 9.99264L10.0578 9.40021L10.0009 9.4285V9.46126L10.4586 10.3827H10.4134L10.4103 10.3856C10.2068 10.0494 10.0709 9.78049 10.0009 9.56195V10.1645L8.3624 8.99726L10.4491 11.4807C11.1159 12.2743 11.9376 12.8841 12.9096 13.3079L11.0201 13.2678L12.9406 13.8098L11.947 14.5409L13.6631 14.0137L14.131 14.1457C14.7607 14.3235 15.1114 14.5018 15.1343 14.5559L15.2227 14.7649L15.4465 14.8021C15.9369 14.8836 16.8416 14.7565 18.007 14.4982C18.403 14.4104 18.8005 14.3127 19.108 14.2297C19.2369 14.1949 19.3378 14.1659 19.3946 14.1473L19.4164 14.1399C19.4238 14.1373 19.4311 14.1345 19.4479 14.128C19.4671 14.1202 19.4671 14.1202 19.5113 14.0963L19.5113 14.0963L19.5113 14.0963C19.5489 14.0911 19.5766 14.0873 19.5951 14.0723C19.6464 14.0306 19.6276 13.9026 19.5567 13.4199C19.2317 13.3329 19.1864 13.3207 19.1742 13.3356C19.1723 13.3381 19.1712 13.3412 19.1699 13.3448C19.0584 13.3679 18.8846 13.3653 18.6529 13.3355C20.5923 12.3818 21.8662 11.4263 22.4765 10.4432L23.5929 8.64492L22.9166 9.13833L23.1603 8.35492L22.1964 8.97437C22.3204 8.80978 22.4164 8.64594 22.4841 8.4822L23.2102 6.72742L22.0645 7.79624L22.686 5.74782L21.2114 7.72331L15.1742 12.1661L15.08 12.1442C13.5939 11.7997 12.5502 10.7498 11.9291 8.94375L11.6192 9.04469L11.6233 9.05754L11.5502 9.08134L11.5459 9.06858L11.2462 9.16619L11.2512 9.17873L11.1783 9.20247L11.1746 9.18952L11.1448 9.19923C11.2451 9.52522 11.3546 9.83069 11.4732 10.1154L11.2829 10.1877L11.2973 10.2166L11.2824 10.224L11.291 10.2375ZM11.305 10.2322L11.291 10.2375L11.3205 10.2833L11.0247 10.4317L10.9747 10.3784L10.8779 10.4269C10.8684 10.4196 10.8603 10.4132 10.8535 10.4076L10.864 10.4339L10.8779 10.4269C10.8948 10.4397 10.9163 10.4551 10.943 10.4726L10.8954 10.4965C10.8724 10.4589 10.8501 10.4219 10.8284 10.3852L10.8259 10.3827H10.4586L10.5416 10.5497L10.4877 10.5113C10.4609 10.4684 10.4351 10.4265 10.4103 10.3856L10.3675 10.4257L10.0009 10.1645V10.3827C10.0009 10.7731 10.2756 11.0683 10.7475 11.3108L10.5256 11.5513L12.9938 13.3096L12.9096 13.3079C12.9905 13.3431 13.0723 13.377 13.1553 13.4097L13.3695 13.4941L12.9406 13.8098L13.6631 14.0137L14.2391 13.8367L16.2892 14.6444L15.6279 14.1733C15.7086 14.1726 15.787 14.1716 15.8631 14.1703C15.8309 14.1111 15.7899 14.0551 15.7399 14.0017C15.6791 14.0001 15.6263 13.9957 15.5819 13.9883L15.5592 14.1244L14.8685 13.6323C15.1329 13.5411 15.3896 13.4455 15.6387 13.3455C16.6618 13.3345 17.275 13.2797 17.366 13.2122L17.5239 13.0951L17.7143 13.1439C17.8977 13.191 18.0666 13.2302 18.2203 13.2616L18.3511 13.4814C18.4534 13.4328 18.554 13.3841 18.6529 13.3355C18.6284 13.3324 18.6032 13.3289 18.5774 13.3251L22.3692 10.5589L22.0519 10.2644C22.4533 10.0577 22.7149 9.78652 22.8236 9.43729L22.9166 9.13833L22.5079 9.43647L22.4297 9.31475L22.0358 9.19222C21.9994 9.30925 21.8808 9.42633 21.6706 9.53381C21.8814 9.34578 22.0567 9.15961 22.1964 8.97437L21.6009 9.35703L22.3844 8.62611L21.8955 8.28719C21.9381 8.19096 21.9736 8.09602 22.002 8.00231L22.0645 7.79624L21.7884 8.0538L21.3779 7.84632L21.5677 7.4611L21.2114 7.72331L20.3674 8.85388L20.0801 8.6133C19.3094 10.1774 17.9221 11.4192 15.9044 12.3354L15.1742 12.1661L14.9656 12.3196L14.9868 12.1336C13.6112 12.1336 12.5971 11.1135 11.9333 8.95656L11.6233 9.05754L11.918 9.9992L11.6235 10.1111L11.6052 10.0652L11.9004 9.95298C11.7491 9.61708 11.6325 9.32538 11.5502 9.08134L11.2512 9.17873L11.6052 10.0652L11.5799 10.0748L11.5988 10.0653C11.3794 9.70739 11.2406 9.41581 11.1783 9.20247L11.1489 9.21204C11.2572 9.52694 11.3783 9.8232 11.512 10.1006L11.4732 10.1154L11.4777 10.1261L11.2973 10.2166L11.305 10.2322ZM11.4924 10.161L11.305 10.2322L11.3284 10.2793L11.3205 10.2833L11.3488 10.3268L11.0739 10.4841L11.0247 10.4317L10.943 10.4726C10.9639 10.4863 10.988 10.5013 11.0157 10.5175L10.7276 10.6823L10.5416 10.5497L10.634 10.7359L10.7276 10.6823L10.7711 10.7132L10.6581 10.7779C10.5973 10.6849 10.5405 10.5961 10.4877 10.5113L10.3675 10.4257L10.1124 10.6648L10.6417 11.2294L10.9426 10.9473L10.9845 10.8653L12.3289 11.8231L12.8261 12.3534C12.1493 11.9976 11.5683 11.5303 11.0807 10.9499L10.7475 11.3108L10.7551 11.3147L12.8593 12.3888L12.8261 12.3534C13.028 12.4596 13.2385 12.5558 13.4576 12.6421L13.0943 13.3118L12.9938 13.3096L13.0671 13.3619L13.0943 13.3118L13.6026 13.3226L13.3695 13.4941L14.2391 13.8367L14.2696 13.8273C14.4734 13.7647 14.6731 13.6997 14.8685 13.6323L14.7187 13.5255L14.962 13.3465C15.204 13.3482 15.4299 13.3477 15.6387 13.3455C15.9435 13.2231 16.2369 13.0942 16.5188 12.9586H18.0399L18.2203 13.2616C18.2549 13.2687 18.2887 13.2754 18.3218 13.2817L18.4172 13.442L18.5774 13.3251C18.4982 13.3136 18.413 13.2991 18.3218 13.2817L18.1294 12.9586H18.5923L18.0553 12.8341L17.9971 12.7362C19.5928 11.9781 20.7212 11.2336 21.3811 10.5184C21.6357 10.4475 21.8598 10.3633 22.0519 10.2644L21.914 10.1365L22.6527 9.66177L22.5079 9.43647L21.2628 10.3449L21.1071 9.9814C21.3169 9.83076 21.5047 9.68171 21.6706 9.53381C21.5528 9.59404 21.4062 9.65124 21.2292 9.70374L21.6009 9.35703L20.4721 10.0824C21.1757 9.43308 21.6515 8.83892 21.8955 8.28719L21.8457 8.25268L21.9378 8.1293L21.7884 8.0538L20.8392 8.93934L21.3779 7.84632L21.2125 7.76278C21.1116 8.09536 20.861 8.48699 20.4584 8.93003L20.3674 8.85388L19.8588 9.53532L19.9856 9.64966L16.2326 12.4115L15.9044 12.3354C15.5907 12.4778 15.2618 12.6124 14.9176 12.7391L14.9656 12.3196L14.3342 12.7842C13.1236 12.3513 12.1916 11.4735 11.546 10.1702L11.6302 10.128L11.6235 10.1111L11.5337 10.1453L11.5152 10.1073L11.5799 10.0748L11.512 10.1006L11.5152 10.1073L11.4777 10.1261L11.4924 10.161ZM11.5051 10.1907L11.3284 10.2793L11.3729 10.3688L11.1079 10.5205L11.0739 10.4841L11.0157 10.5175C11.0309 10.5264 11.0472 10.5356 11.0647 10.5452L10.7711 10.7132L10.9845 10.8653L11.1302 10.5799C11.1068 10.5679 11.0849 10.5564 11.0647 10.5452L11.1079 10.5205L12.3289 11.8231L14.0115 13.0217L13.6026 13.3226L14.1763 13.3347L14.393 13.7653L14.7187 13.5255L14.4587 13.3403C14.6334 13.3434 14.8013 13.3454 14.962 13.3465L15.4892 12.9586H16.5188C16.7402 12.8521 16.9545 12.7415 17.1617 12.6269L17.9515 12.81L18.0399 12.9586H18.1294L18.0553 12.8341L17.9515 12.81L17.931 12.7755L20.8412 10.6524L21.2076 10.5635C21.2669 10.5491 21.3247 10.5341 21.3811 10.5184C21.4097 10.4874 21.4374 10.4564 21.4643 10.4255L21.914 10.1365L21.7756 10.0081C21.69 10.146 21.5862 10.2851 21.4643 10.4255L21.3333 10.5096L21.2628 10.3449L20.8412 10.6524L19.347 11.0151C19.5143 10.8487 19.6726 10.6771 19.8217 10.5004L20.2999 10.1931L20.4631 10.4073C20.6968 10.2637 20.9115 10.1219 21.1071 9.9814L21.057 9.86443L21.2292 9.70374C21.1616 9.7238 21.0896 9.74317 21.013 9.76175L21.057 9.86443L20.5285 10.3574L20.3694 10.1484L20.4684 10.0848L20.469 10.0853L20.4721 10.0824L20.4684 10.0848L20.2736 9.90919C20.2881 9.88812 20.3025 9.86698 20.3168 9.84578L20.5199 10.0288L21.8457 8.25268L21.7218 8.16678C21.5877 8.4909 21.2338 8.86968 20.6585 9.28752C20.7147 9.1857 20.7687 9.08252 20.8202 8.97799L20.8392 8.93934L20.6643 9.10249L20.4584 8.93003C20.2993 9.10509 20.1164 9.28819 19.9097 9.47883L20.0481 9.60364L19.9856 9.64966L20.0325 9.69192L19.9658 9.75419L20.1823 10.0386C20.0687 10.1963 19.9485 10.3502 19.8217 10.5004L18.8228 11.1423L19.347 11.0151C18.7381 11.6208 18.0093 12.158 17.1617 12.6269L16.2326 12.4115L15.4892 12.9586H14.9868C14.7919 12.9586 14.603 12.9434 14.4201 12.9132C14.4708 12.8963 14.5211 12.8793 14.5712 12.8621C14.6767 12.8939 14.7842 12.9225 14.8937 12.9479L14.9176 12.7391C14.8038 12.781 14.6883 12.822 14.5712 12.8621C14.4911 12.838 14.4121 12.812 14.3342 12.7842L14.2145 12.8723C13.0527 12.601 12.1482 11.6934 11.5051 10.1907ZM11.5051 10.1907L11.546 10.1702L11.5337 10.1453L11.4924 10.161L11.5051 10.1907ZM14.0329 13.037L14.0115 13.0217L14.2145 12.8723C14.2822 12.8881 14.3507 12.9017 14.4201 12.9132C14.293 12.9554 14.1639 12.9967 14.0329 13.037ZM20.2323 9.96841C20.2462 9.94873 20.2599 9.92899 20.2736 9.90919L20.0402 9.69883L20.1075 9.65711L20.3168 9.84578C20.4391 9.66446 20.5529 9.47838 20.6585 9.28752C20.4931 9.40761 20.3094 9.53093 20.1075 9.65711L20.0883 9.63985L20.4222 9.32838L20.6946 9.12788L20.6643 9.10249L20.4222 9.32838L20.0481 9.60364L20.0883 9.63985L20.0325 9.69192L20.0402 9.69883L20.0312 9.70433L20.2323 9.96841ZM20.2323 9.96841L20.3694 10.1484L20.2999 10.1931L20.1823 10.0386C20.1991 10.0153 20.2158 9.99189 20.2323 9.96841ZM14.0329 13.037L14.4587 13.3403C14.3908 13.3392 14.3218 13.3378 14.2518 13.3363L14.1763 13.3347L14.0273 13.0387L14.0329 13.037ZM15.5592 14.1244L15.551 14.1738L15.6279 14.1733L15.5592 14.1244ZM17.8575 13.8748L17.7373 13.7128C17.677 13.7259 17.6174 13.7387 17.5585 13.751L17.5092 13.943C17.5574 13.9554 17.6048 13.9673 17.6513 13.9787C17.7368 13.9482 17.8052 13.9136 17.8575 13.8748Z" fill="#FFE402"/>
</g>
</g>
</g>
<rect x="1.75" y="1.25" width="23.5" height="17.5" stroke="black" stroke-opacity="0.1" stroke-width="0.5" shape-rendering="crispEdges"/>
</g>
<defs>
<filter id="filter0_dd_701_22081" x="0" y="0" width="27" height="21" filterUnits="userSpaceOnUse" color-interpolation-filters="sRGB">
<feFlood flood-opacity="0" result="BackgroundImageFix"/>
<feColorMatrix in="SourceAlpha" type="matrix" values="0 0 0 0 0 0 0 0 0 0 0 0 0 0 0 0 0 0 127 0" result="hardAlpha"/>
<feOffset dy="0.5"/>
<feGaussianBlur stdDeviation="0.75"/>
<feComposite in2="hardAlpha" operator="out"/>
<feColorMatrix type="matrix" values="0 0 0 0 0 0 0 0 0 0 0 0 0 0 0 0 0 0 0.1 0"/>
<feBlend mode="multiply" in2="BackgroundImageFix" result="effect1_dropShadow_701_22081"/>
<feColorMatrix in="SourceAlpha" type="matrix" values="0 0 0 0 0 0 0 0 0 0 0 0 0 0 0 0 0 0 127 0" result="hardAlpha"/>
<feOffset/>
<feGaussianBlur stdDeviation="0.5"/>
<feComposite in2="hardAlpha" operator="out"/>
<feColorMatrix type="matrix" values="0 0 0 0 0 0 0 0 0 0 0 0 0 0 0 0 0 0 0.11 0"/>
<feBlend mode="multiply" in2="effect1_dropShadow_701_22081" result="effect2_dropShadow_701_22081"/>
<feBlend mode="normal" in="SourceGraphic" in2="effect2_dropShadow_701_22081" result="shape"/>
</filter>
<clipPath id="clip0_701_22081">
<rect x="1.5" y="1" width="24" height="18" fill="white"/>
</clipPath>
</defs>
</svg>
