<svg viewBox="0 0 27 21" fill="none" xmlns="http://www.w3.org/2000/svg">
<g filter="url(#filter0_dd_701_25169)">
<g clip-path="url(#clip0_701_25169)">
<mask id="mask0_701_25169" style="mask-type:alpha" maskUnits="userSpaceOnUse" x="1" y="1" width="25" height="18">
<rect x="1.5" y="1" width="24" height="18" fill="white"/>
</mask>
<g mask="url(#mask0_701_25169)">
<path fill-rule="evenodd" clip-rule="evenodd" d="M1.5 1H25.5V19H1.5V1Z" fill="#F50100"/>
<path fill-rule="evenodd" clip-rule="evenodd" d="M13.875 5.66767C13.926 5.6573 14.0533 5.58712 14.3271 5.22744C14.4942 5.00786 14.4866 4.7432 14.48 4.5136C14.4713 4.21269 14.4644 3.97201 14.8549 3.97201C15.175 3.97201 15.4122 3.8801 15.6108 3.80313C15.8394 3.71456 16.017 3.64575 16.2112 3.75946C16.524 3.94258 16.8927 3.96793 16.8925 3.97144C16.8925 3.97201 16.8829 3.97201 16.8621 3.97201C16.7115 3.97201 16.1705 4.28008 16.5888 4.28008C16.7935 4.28008 17.0118 4.13264 17.1815 4.01808C17.3587 3.89843 17.4828 3.81463 17.4828 3.97201C17.4828 3.97201 17.6018 4.31977 17.3145 4.34616C17.3145 4.34616 16.0184 4.47282 16.2717 4.52978C16.2717 4.52978 16.5023 4.62483 16.6601 4.63061C16.6601 4.63061 16.7285 4.87077 16.3084 4.93727C16.3084 4.93727 15.1213 5.15768 15.0669 5.53914C15.0533 5.63491 15.0195 5.76081 14.9832 5.89568C14.875 6.29804 14.7454 6.78024 15.0669 6.78024C15.4963 6.78024 15.7751 6.48619 15.7751 6.15578C15.7751 5.82538 15.8334 5.26726 16.2112 5.24009C16.2112 5.24009 17.1401 4.92644 17.2553 4.94797C17.2987 4.95609 17.2964 4.98461 17.2938 5.01698C17.2894 5.07044 17.2841 5.13443 17.4828 5.13443C17.8018 5.13443 18.7261 4.36813 18.8716 4.0638C19.0171 3.75946 19.2356 4.0638 19.2356 4.0638C19.2356 4.0638 19.3762 4.91574 18.644 5.22744C17.9117 5.53914 17.4828 5.53914 17.4828 5.53914C17.4828 5.53914 17.0262 5.87496 17.3145 5.87496C17.3785 5.87496 17.4586 5.88078 17.5491 5.88736C17.8666 5.91045 18.3127 5.94289 18.644 5.7662C18.7354 5.71743 18.8148 5.67327 18.8832 5.63526C19.1333 5.49631 19.2356 5.43945 19.2356 5.53914V5.5412C19.2356 5.6736 19.2357 6.37829 18.748 6.37829H17.4828C17.3145 6.37829 16.916 6.61802 17.578 6.78024C18.24 6.94246 18.4533 6.87466 18.748 6.78024C19.0427 6.68581 19.2356 6.63217 19.2356 6.78024C19.2356 6.92831 18.8314 7.48226 18.4841 7.48226C18.2806 7.48226 18.064 7.37669 17.8847 7.28927C17.758 7.22747 17.6498 7.17474 17.578 7.17474C17.4045 7.17474 17.2246 7.48226 17.3145 7.48226C17.3437 7.48226 17.3948 7.5292 17.4638 7.59263C17.6077 7.72481 17.8295 7.92862 18.0935 7.92862C18.3088 7.92862 18.4767 7.88466 18.6273 7.84521C18.7499 7.81311 18.861 7.784 18.977 7.784C19.1268 7.784 19.1898 7.76596 19.2163 7.78934C19.2356 7.80632 19.2356 7.84515 19.2356 7.92862C19.2356 8.12701 18.7196 8.34589 18.4841 8.34589C18.377 8.34589 18.1133 8.22843 17.8575 8.11451C17.5507 7.97786 17.2553 7.8463 17.2553 7.92862C17.2553 8.07959 17.8776 8.89148 18.2608 8.89148H18.977C19.2356 8.89148 19.133 9.21985 19.133 9.21985C19.133 9.21985 18.8826 9.44236 18.5717 9.44236C18.3385 9.44236 18.1086 9.26572 17.9285 9.12745C17.8684 9.08131 17.8139 9.03945 17.7667 9.00984C17.578 8.89148 17.3145 8.79982 17.3145 9.00984C17.3145 9.21985 17.9094 10.0589 18.3905 10.0589C18.5827 10.0589 18.7562 10.028 18.8953 10.0033C19.1043 9.96605 19.2356 9.94268 19.2356 10.0589C19.2356 10.2525 19.012 10.6835 18.748 10.5883L18.7424 10.5863C18.4724 10.4889 17.6499 10.1922 17.4828 9.87715C17.3145 9.55991 17.0069 9.69537 17.1311 9.87715C17.2553 10.0589 17.9094 10.999 18.3905 11.0866C18.5182 11.1098 18.6449 11.1253 18.7602 11.1394C19.0792 11.1784 19.311 11.2067 19.2356 11.3595C19.133 11.5674 18.7074 11.858 18.4841 11.7665C18.2608 11.675 17.498 10.9737 17.3145 10.6814C17.1311 10.3891 16.6601 9.82942 16.6601 10.0589C16.6601 10.108 16.6514 10.1751 16.6415 10.2512C16.6051 10.5314 16.5528 10.9333 16.8621 11.0008C17.2553 11.0866 17.4625 11.4651 17.2553 11.4651C17.0481 11.4651 16.3084 11.2878 16.3084 10.8186C16.3084 10.3494 15.9739 10.086 15.9739 10.2177C15.9739 10.2327 15.9735 10.2511 15.973 10.2723C15.969 10.4377 15.961 10.775 16.1243 11.0008C16.3084 11.2555 16.0475 11.4634 15.9739 11.3595C15.9004 11.2555 15.5851 10.7746 15.5851 10.6814C15.5851 10.5883 15.4738 10.3697 15.3431 10.3697C15.2123 10.3697 15.186 10.5976 15.4307 11.0866C15.6754 11.5756 16.2788 11.9666 16.4695 11.9666C16.6601 11.9666 16.4695 12.405 16.4695 12.405L17.7667 12.741C17.7667 12.741 18.2608 12.4864 18.2608 12.405C18.2608 12.3237 18.519 12.1255 18.748 12.1255C18.977 12.1255 18.9952 12.405 18.8716 12.405C18.8106 12.405 18.7241 12.4573 18.6366 12.5102C18.5469 12.5644 18.4561 12.6192 18.3905 12.6192C18.2608 12.6192 17.8642 12.8966 17.8642 12.8966H18.748C18.748 12.8966 18.6065 12.741 18.977 12.741C19.3475 12.741 19.5 12.8966 19.5 12.8966C19.5 12.8966 19.0824 13.1416 18.977 13.1416C18.9504 13.1416 18.9168 13.1471 18.8751 13.1539C18.8135 13.1639 18.7341 13.1768 18.6331 13.1793C18.6048 13.1582 18.5881 13.1628 18.5784 13.1795C18.4885 13.1782 18.3833 13.1681 18.2608 13.1416C17.8642 13.0561 18.5717 13.3195 18.5717 13.3195C18.5717 13.3195 18.5563 13.2178 18.5784 13.1795C18.5973 13.1798 18.6156 13.1797 18.6331 13.1793C18.6599 13.1992 18.697 13.2421 18.748 13.3195C18.977 13.6667 19.012 13.7748 18.748 13.7748C18.4841 13.7748 18.2608 13.6945 18.2608 13.507C18.2608 13.3195 17.7667 13.1416 17.7667 13.1416L17.1311 13.507C17.1311 13.507 17.2498 13.7107 17.0559 13.7748C16.8621 13.839 16.5888 13.7447 16.5888 13.6806C16.5888 13.6164 16.6529 13.3195 16.8176 13.3195C16.9823 13.3195 17.4828 13.0474 17.4828 13.0474L16.2717 12.6855C16.2717 12.6855 15.9324 13.0474 15.8208 13.0474C15.7637 13.0474 15.6514 12.8164 15.5287 12.5641C15.4118 12.3237 15.2856 12.0641 15.1888 11.9666C15.1281 11.9054 15.0743 11.8242 15.0222 11.7457C14.904 11.5675 14.795 11.4031 14.6357 11.5176C14.4061 11.6826 14.3149 12.1911 14.6357 12.6192C14.9564 13.0474 15.5115 13.3857 15.6662 13.3857C15.8208 13.3857 16.1243 13.4002 16.1243 13.507C16.1243 13.6137 15.9893 14.0509 15.6662 13.8658C15.6021 13.829 15.5372 13.7909 15.4738 13.7537C15.2177 13.6031 14.9879 13.468 14.9486 13.507C14.8995 13.5556 15.1015 14.1062 15.3838 14.2376C15.5079 14.2953 15.623 14.2911 15.7131 14.2878C15.8281 14.2836 15.9024 14.2809 15.9024 14.4104C15.9024 14.6414 15.7029 14.8989 15.3431 14.6547C15.1841 14.5467 15.0528 14.4046 14.9503 14.2935C14.8207 14.1531 14.7369 14.0623 14.7006 14.1527C14.6357 14.3146 14.6632 14.947 14.9486 14.947C15.0142 14.947 15.0752 14.9449 15.1302 14.943C15.3141 14.9366 15.4307 14.9325 15.4307 15.0183C15.4307 15.1298 15.3649 15.6052 15.0669 15.4155C14.769 15.2259 14.5511 14.9894 14.4978 14.822C14.4446 14.6547 14.1266 14.8214 14.2268 15.0568C14.3271 15.2921 14.5707 15.7665 14.6357 15.7665C14.7006 15.7665 13.8802 17.2 13.8802 17.2L13.875 15.4351L13.8698 17.2C13.8698 17.2 13.0494 15.7665 13.1143 15.7665C13.1793 15.7665 13.4229 15.2921 13.5232 15.0568C13.6234 14.8214 13.3054 14.6547 13.2522 14.822C13.1989 14.9894 12.981 15.2259 12.6831 15.4155C12.3851 15.6052 12.3193 15.1298 12.3193 15.0183C12.3193 14.9325 12.4359 14.9366 12.6198 14.943C12.6748 14.9449 12.7358 14.947 12.8014 14.947C13.0868 14.947 13.1143 14.3146 13.0494 14.1527C13.0131 14.0623 12.9293 14.1531 12.7997 14.2935C12.6972 14.4046 12.5659 14.5467 12.4069 14.6547C12.0471 14.8989 11.8476 14.6414 11.8476 14.4104C11.8476 14.2809 11.9219 14.2836 12.0369 14.2878C12.127 14.2911 12.2421 14.2953 12.3662 14.2376C12.6485 14.1062 12.8505 13.5556 12.8014 13.507C12.7621 13.468 12.5323 13.6031 12.2762 13.7537C12.2128 13.7909 12.1479 13.829 12.0838 13.8658C11.7607 14.0509 11.6257 13.6137 11.6257 13.507C11.6257 13.4002 11.9292 13.3857 12.0838 13.3857C12.2385 13.3857 12.7936 13.0474 13.1143 12.6192C13.4351 12.1911 13.3439 11.6826 13.1143 11.5176C12.955 11.4031 12.846 11.5675 12.7278 11.7457C12.6757 11.8242 12.6219 11.9054 12.5612 11.9666C12.4644 12.0641 12.3382 12.3237 12.2213 12.5641C12.0986 12.8164 11.9863 13.0474 11.9292 13.0474C11.8176 13.0474 11.4783 12.6855 11.4783 12.6855L10.2672 13.0474C10.2672 13.0474 10.7677 13.3195 10.9324 13.3195C11.0971 13.3195 11.1612 13.6164 11.1612 13.6806C11.1612 13.7447 10.8879 13.839 10.6941 13.7748C10.5002 13.7107 10.6189 13.507 10.6189 13.507L9.98329 13.1416C9.98329 13.1416 9.48924 13.3195 9.48924 13.507C9.48924 13.6945 9.26594 13.7748 9.00199 13.7748C8.73803 13.7748 8.773 13.6667 9.00199 13.3195C9.05304 13.2421 9.0901 13.1992 9.11686 13.1793C9.13444 13.1797 9.15268 13.1798 9.1716 13.1795C9.19374 13.2178 9.17833 13.3195 9.17833 13.3195C9.17833 13.3195 9.88575 13.0561 9.48924 13.1416C9.36667 13.1681 9.26151 13.1782 9.1716 13.1795C9.16195 13.1628 9.14516 13.1582 9.11686 13.1793C9.01591 13.1768 8.93653 13.1639 8.87491 13.1539C8.8332 13.1471 8.79962 13.1416 8.773 13.1416C8.6676 13.1416 8.25 12.8966 8.25 12.8966C8.25 12.8966 8.40253 12.741 8.773 12.741C9.14347 12.741 9.00199 12.8966 9.00199 12.8966H9.88575C9.88575 12.8966 9.48924 12.6192 9.35952 12.6192C9.29387 12.6192 9.20311 12.5644 9.11344 12.5102C9.02592 12.4573 8.93945 12.405 8.8784 12.405C8.75482 12.405 8.773 12.1255 9.00199 12.1255C9.23097 12.1255 9.48924 12.3237 9.48924 12.405C9.48924 12.4864 9.98329 12.741 9.98329 12.741L11.2805 12.405C11.2805 12.405 11.0899 11.9666 11.2805 11.9666C11.4712 11.9666 12.0746 11.5756 12.3193 11.0866C12.564 10.5976 12.5377 10.3697 12.4069 10.3697C12.2762 10.3697 12.1649 10.5883 12.1649 10.6814C12.1649 10.7746 11.8496 11.2555 11.7761 11.3595C11.7025 11.4634 11.4416 11.2555 11.6257 11.0008C11.789 10.775 11.781 10.4377 11.777 10.2723C11.7765 10.2511 11.7761 10.2327 11.7761 10.2177C11.7761 10.086 11.4416 10.3494 11.4416 10.8186C11.4416 11.2878 10.7019 11.4651 10.4947 11.4651C10.2875 11.4651 10.4947 11.0866 10.8879 11.0008C11.1972 10.9333 11.1449 10.5314 11.1085 10.2512C11.0986 10.1751 11.0899 10.108 11.0899 10.0589C11.0899 9.82942 10.6189 10.3891 10.4355 10.6814C10.252 10.9737 9.48924 11.675 9.26594 11.7665C9.04264 11.858 8.61701 11.5674 8.5144 11.3595C8.43903 11.2067 8.67075 11.1784 8.98976 11.1394C9.10507 11.1253 9.23178 11.1098 9.35952 11.0866C9.84064 10.999 10.4947 10.0589 10.6189 9.87715C10.7431 9.69537 10.4355 9.55991 10.2672 9.87715C10.1001 10.1922 9.27758 10.4889 9.00762 10.5863L9.00199 10.5883C8.73803 10.6835 8.5144 10.2525 8.5144 10.0589C8.5144 9.94268 8.64567 9.96605 8.85474 10.0033C8.99382 10.028 9.16732 10.0589 9.35952 10.0589C9.84064 10.0589 10.4355 9.21985 10.4355 9.00984C10.4355 8.79982 10.172 8.89148 9.98329 9.00984C9.93608 9.03945 9.88157 9.08131 9.82149 9.12745C9.64145 9.26572 9.41145 9.44236 9.17833 9.44236C8.86742 9.44236 8.61701 9.21985 8.61701 9.21985C8.61701 9.21985 8.5144 8.89148 8.773 8.89148H9.48924C9.87242 8.89148 10.4947 8.07959 10.4947 7.92862C10.4947 7.8463 10.1993 7.97786 9.89252 8.11451C9.63675 8.22843 9.37304 8.34589 9.26594 8.34589C9.03037 8.34589 8.5144 8.12701 8.5144 7.92862C8.5144 7.84515 8.5144 7.80632 8.53366 7.78934C8.56018 7.76596 8.62321 7.784 8.773 7.784C8.88901 7.784 9.00015 7.81311 9.1227 7.84521C9.27331 7.88466 9.44118 7.92862 9.65654 7.92862C9.92048 7.92862 10.1423 7.72481 10.2862 7.59263C10.3552 7.5292 10.4063 7.48226 10.4355 7.48226C10.5254 7.48226 10.3455 7.17474 10.172 7.17474C10.1002 7.17474 9.99201 7.22747 9.86528 7.28927C9.68596 7.37669 9.46944 7.48226 9.26594 7.48226C8.91861 7.48226 8.5144 6.92831 8.5144 6.78024C8.5144 6.63217 8.7073 6.68581 9.00199 6.78024C9.29667 6.87466 9.51004 6.94246 10.172 6.78024C10.834 6.61802 10.4355 6.37829 10.2672 6.37829H9.00199C8.51431 6.37829 8.51438 5.6736 8.5144 5.5412L8.5144 5.53914C8.5144 5.43945 8.61672 5.49631 8.86675 5.63526C8.93515 5.67327 9.01461 5.71743 9.10605 5.7662C9.4373 5.94289 9.8834 5.91045 10.2009 5.88737C10.2914 5.88078 10.3715 5.87496 10.4355 5.87496C10.7238 5.87496 10.2672 5.53914 10.2672 5.53914C10.2672 5.53914 9.83835 5.53914 9.10605 5.22744C8.37375 4.91574 8.5144 4.0638 8.5144 4.0638C8.5144 4.0638 8.7329 3.75946 8.8784 4.0638C9.0239 4.36813 9.94821 5.13443 10.2672 5.13443C10.4659 5.13443 10.4606 5.07044 10.4562 5.01698C10.4536 4.98461 10.4513 4.95609 10.4947 4.94797C10.6099 4.92644 11.5388 5.24009 11.5388 5.24009C11.9166 5.26726 11.9749 5.82538 11.9749 6.15578C11.9749 6.48619 12.2537 6.78024 12.6831 6.78024C13.0046 6.78024 12.875 6.29804 12.7668 5.89568C12.7305 5.76081 12.6967 5.63491 12.6831 5.53914C12.6287 5.15768 11.4416 4.93727 11.4416 4.93727C11.0215 4.87077 11.0899 4.63061 11.0899 4.63061C11.2477 4.62483 11.4783 4.52978 11.4783 4.52978C11.7316 4.47282 10.4355 4.34616 10.4355 4.34616C10.1482 4.31977 10.2672 3.97201 10.2672 3.97201C10.2672 3.81463 10.3913 3.89843 10.5685 4.01808C10.7382 4.13264 10.9565 4.28008 11.1612 4.28008C11.5795 4.28008 11.0385 3.97201 10.8879 3.97201C10.8671 3.97201 10.8575 3.97201 10.8575 3.97144C10.8573 3.96793 11.226 3.94258 11.5388 3.75946C11.733 3.64575 11.9106 3.71456 12.1392 3.80313C12.3378 3.8801 12.575 3.97201 12.8951 3.97201C13.2856 3.97201 13.2787 4.21269 13.27 4.5136C13.2634 4.7432 13.2558 5.00786 13.4229 5.22744C13.6967 5.58712 13.824 5.6573 13.875 5.66767Z" fill="#1A1A1A"/>
</g>
</g>
<rect x="1.75" y="1.25" width="23.5" height="17.5" stroke="black" stroke-opacity="0.1" stroke-width="0.5" shape-rendering="crispEdges"/>
</g>
<defs>
<filter id="filter0_dd_701_25169" x="0" y="0" width="27" height="21" filterUnits="userSpaceOnUse" color-interpolation-filters="sRGB">
<feFlood flood-opacity="0" result="BackgroundImageFix"/>
<feColorMatrix in="SourceAlpha" type="matrix" values="0 0 0 0 0 0 0 0 0 0 0 0 0 0 0 0 0 0 127 0" result="hardAlpha"/>
<feOffset dy="0.5"/>
<feGaussianBlur stdDeviation="0.75"/>
<feComposite in2="hardAlpha" operator="out"/>
<feColorMatrix type="matrix" values="0 0 0 0 0 0 0 0 0 0 0 0 0 0 0 0 0 0 0.1 0"/>
<feBlend mode="multiply" in2="BackgroundImageFix" result="effect1_dropShadow_701_25169"/>
<feColorMatrix in="SourceAlpha" type="matrix" values="0 0 0 0 0 0 0 0 0 0 0 0 0 0 0 0 0 0 127 0" result="hardAlpha"/>
<feOffset/>
<feGaussianBlur stdDeviation="0.5"/>
<feComposite in2="hardAlpha" operator="out"/>
<feColorMatrix type="matrix" values="0 0 0 0 0 0 0 0 0 0 0 0 0 0 0 0 0 0 0.11 0"/>
<feBlend mode="multiply" in2="effect1_dropShadow_701_25169" result="effect2_dropShadow_701_25169"/>
<feBlend mode="normal" in="SourceGraphic" in2="effect2_dropShadow_701_25169" result="shape"/>
</filter>
<clipPath id="clip0_701_25169">
<rect x="1.5" y="1" width="24" height="18" fill="white"/>
</clipPath>
</defs>
</svg>