<svg viewBox="0 0 27 21" fill="none" xmlns="http://www.w3.org/2000/svg">
<g filter="url(#filter0_dd_701_19509)">
<g clip-path="url(#clip0_701_19509)">
<mask id="mask0_701_19509" style="mask-type:alpha" maskUnits="userSpaceOnUse" x="1" y="1" width="25" height="18">
<rect x="1.5" y="1" width="24" height="18" fill="white"/>
</mask>
<g mask="url(#mask0_701_19509)">
<path fill-rule="evenodd" clip-rule="evenodd" d="M1.5 13H25.5V19H1.5V13Z" fill="#14DC5A"/>
<path fill-rule="evenodd" clip-rule="evenodd" d="M1.5 1H25.5V8.5H1.5V1Z" fill="#0099B5"/>
<path d="M0 8H-0.5V8.5V13V13.5H0H27H27.5V13V8.5V8H27H0Z" fill="#F7FCFF" stroke="#C51918"/>
<path fill-rule="evenodd" clip-rule="evenodd" d="M12.4059 3.25472L11.9012 3.53519L12.0453 2.96516L11.5618 2.54627H12.1934L12.4052 2.00684L12.6536 2.54627H13.1919L12.7689 2.96516L12.9723 3.53519L12.4059 3.25472ZM9.69986 4.97286L10.2046 4.69238L10.771 4.97286L10.5676 4.40282L10.9906 3.98393H10.4523L10.2039 3.4445L9.99205 3.98393H9.36049L9.84402 4.40282L9.69986 4.97286ZM7.82075 6.22074L7.31597 6.50121L7.46014 5.93118L6.9766 5.51229H7.60817L7.81999 4.97285L8.06837 5.51229H8.60676L8.18373 5.93118L8.38713 6.50121L7.82075 6.22074ZM10.2046 6.22074L9.69986 6.50121L9.84402 5.93118L9.36049 5.51229H9.99205L10.2039 4.97285L10.4523 5.51229H10.9906L10.5676 5.93118L10.771 6.50121L10.2046 6.22074ZM12.4396 6.22074L11.9348 6.50121L12.079 5.93118L11.5954 5.51229H12.227L12.4388 4.97285L12.6872 5.51229H13.2256L12.8026 5.93118L13.006 6.50121L12.4396 6.22074ZM11.9348 4.97286L12.4396 4.69238L13.006 4.97286L12.8026 4.40282L13.2256 3.98393H12.6872L12.4388 3.4445L12.227 3.98393H11.5954L12.079 4.40282L11.9348 4.97286ZM14.1843 6.50121L14.6891 6.22074L15.2555 6.50121L15.0521 5.93118L15.4751 5.51229H14.9367L14.6883 4.97285L14.4765 5.51229H13.845L14.3285 5.93118L14.1843 6.50121ZM14.6891 4.69238L14.1843 4.97286L14.3285 4.40282L13.845 3.98393H14.4765L14.6883 3.4445L14.9367 3.98393H15.4751L15.0521 4.40282L15.2555 4.97286L14.6891 4.69238ZM14.1507 3.53519L14.6555 3.25472L15.2218 3.53519L15.0184 2.96516L15.4415 2.54627H14.9031L14.6547 2.00684L14.4429 2.54627H13.8113L14.2948 2.96516L14.1507 3.53519ZM16.9618 6.22074L16.457 6.50121L16.6012 5.93118L16.1176 5.51229H16.7492L16.961 4.97285L17.2094 5.51229H17.7478L17.3247 5.93118L17.5281 6.50121L16.9618 6.22074ZM16.457 4.97286L16.9618 4.69238L17.5281 4.97286L17.3247 4.40282L17.7478 3.98393H17.2094L16.961 3.4445L16.7492 3.98393H16.1176L16.6012 4.40282L16.457 4.97286ZM16.9281 3.25472L16.4233 3.53519L16.5675 2.96516L16.084 2.54627H16.7155L16.9274 2.00684L17.1757 2.54627H17.7141L17.2911 2.96516L17.4945 3.53519L16.9281 3.25472ZM5.91368 7.18041C5.91368 7.18041 4.10179 6.68898 4.13591 4.87137C4.17003 3.05376 6 2.58185 6 2.58185C5.25227 2.29869 3.04136 2.67865 3.00055 4.85294C2.95973 7.02724 5.21695 7.45558 5.91368 7.18041Z" fill="#F7FCFF"/>
</g>
</g>
<rect x="1.75" y="1.25" width="23.5" height="17.5" stroke="black" stroke-opacity="0.1" stroke-width="0.5" shape-rendering="crispEdges"/>
</g>
<defs>
<filter id="filter0_dd_701_19509" x="0" y="0" width="27" height="21" filterUnits="userSpaceOnUse" color-interpolation-filters="sRGB">
<feFlood flood-opacity="0" result="BackgroundImageFix"/>
<feColorMatrix in="SourceAlpha" type="matrix" values="0 0 0 0 0 0 0 0 0 0 0 0 0 0 0 0 0 0 127 0" result="hardAlpha"/>
<feOffset dy="0.5"/>
<feGaussianBlur stdDeviation="0.75"/>
<feComposite in2="hardAlpha" operator="out"/>
<feColorMatrix type="matrix" values="0 0 0 0 0 0 0 0 0 0 0 0 0 0 0 0 0 0 0.1 0"/>
<feBlend mode="multiply" in2="BackgroundImageFix" result="effect1_dropShadow_701_19509"/>
<feColorMatrix in="SourceAlpha" type="matrix" values="0 0 0 0 0 0 0 0 0 0 0 0 0 0 0 0 0 0 127 0" result="hardAlpha"/>
<feOffset/>
<feGaussianBlur stdDeviation="0.5"/>
<feComposite in2="hardAlpha" operator="out"/>
<feColorMatrix type="matrix" values="0 0 0 0 0 0 0 0 0 0 0 0 0 0 0 0 0 0 0.11 0"/>
<feBlend mode="multiply" in2="effect1_dropShadow_701_19509" result="effect2_dropShadow_701_19509"/>
<feBlend mode="normal" in="SourceGraphic" in2="effect2_dropShadow_701_19509" result="shape"/>
</filter>
<clipPath id="clip0_701_19509">
<rect x="1.5" y="1" width="24" height="18" fill="white"/>
</clipPath>
</defs>
</svg>