<svg viewBox="0 0 27 21" fill="none" xmlns="http://www.w3.org/2000/svg">
<g filter="url(#filter0_dd_701_23827)">
<g clip-path="url(#clip0_701_23827)">
<mask id="mask0_701_23827" style="mask-type:alpha" maskUnits="userSpaceOnUse" x="1" y="1" width="26" height="18">
<rect x="1.5" y="1" width="25.5" height="18" fill="white"/>
</mask>
<g mask="url(#mask0_701_23827)">
<path fill-rule="evenodd" clip-rule="evenodd" d="M1.5 1V10H25.5V1H1.5Z" fill="#43B764"/>
<path fill-rule="evenodd" clip-rule="evenodd" d="M1.5 10V19H25.5V10H1.5Z" fill="#B4D7F4"/>
<path fill-rule="evenodd" clip-rule="evenodd" d="M1.5 1L26.25 10L1.5 19V1Z" fill="#BE0027"/>
<path fill-rule="evenodd" clip-rule="evenodd" d="M7.57553 14.8869C7.66967 14.792 7.78951 14.7068 7.94028 14.6555C7.9491 14.1778 7.94346 13.6567 7.91414 13.1614C7.87459 13.102 7.80563 13.0525 7.68565 13.0525C7.38579 13.0525 6.72714 12.7961 6.72714 12.4272C6.72714 12.4272 7.21844 12.6491 7.35555 12.5382C7.41397 12.4909 7.26165 12.3443 7.07754 12.1672C6.82948 11.9285 6.52373 11.6343 6.59791 11.4526C6.59791 11.4526 7.07961 11.879 7.18244 11.879C7.22939 11.879 7.19739 11.7408 7.16522 11.6019C7.12691 11.4365 7.08837 11.27 7.18244 11.3343C7.35555 11.4526 7.83637 12.2685 7.83637 12.5382C7.83637 12.6849 7.87494 12.9157 7.9101 13.0958L7.90977 13.0906C7.88984 12.7799 7.86111 12.5009 7.82288 12.2621C7.60677 10.9123 7.59906 9.52864 7.89967 8.79223C7.74985 8.6994 7.64055 8.58101 7.64055 8.44581C7.64055 8.44581 8.13184 8.64546 8.26896 8.54564C8.32737 8.50311 8.17505 8.37127 7.99094 8.21191C7.74288 7.99722 7.43713 7.73257 7.51131 7.56912C7.51131 7.56912 7.99301 7.95274 8.09584 7.95274C8.14279 7.95274 8.11079 7.82843 8.07862 7.70344C8.04032 7.55465 8.00177 7.40489 8.09584 7.46272C8.26896 7.56912 8.74977 8.30307 8.74977 8.54564L8.7498 8.55137C8.93607 8.32049 9.15323 8.10504 9.26742 8.05106C9.38976 7.99324 9.33963 8.14299 9.28982 8.29178C9.24798 8.41677 9.20637 8.54108 9.26742 8.54108C9.40114 8.54108 10.0275 8.15746 10.0275 8.15746C10.124 8.32092 9.72641 8.58556 9.40384 8.80026C9.16442 8.95961 8.96634 9.09145 9.04231 9.13398C9.22061 9.2338 9.85949 9.03415 9.85949 9.03415C9.85949 9.36604 9.00299 9.59661 8.61305 9.59661C8.46806 9.59661 8.38037 9.63507 8.32742 9.6834C8.30149 9.9134 8.28957 10.1739 8.29093 10.4529C8.48583 10.202 8.72921 9.95536 8.85252 9.89708C8.97486 9.83925 8.92473 9.98901 8.87493 10.1378C8.83309 10.2628 8.79147 10.3871 8.85252 10.3871C8.98625 10.3871 9.61265 10.0035 9.61265 10.0035C9.70911 10.1669 9.31151 10.4316 8.98895 10.6463C8.74953 10.8056 8.55145 10.9375 8.62741 10.98C8.80572 11.0798 9.44459 10.8802 9.44459 10.8802C9.44459 11.1752 8.76765 11.3902 8.34341 11.4343C8.3671 11.6767 8.39861 11.9225 8.43757 12.1659C8.47917 12.4257 8.5098 12.7232 8.53087 13.0516C8.53991 13.1926 8.54705 13.3355 8.55248 13.479C8.57117 13.3597 8.58503 13.2415 8.58503 13.1535C8.58503 12.8838 9.06585 12.0679 9.23896 11.9496C9.33304 11.8853 9.29449 12.0518 9.25619 12.2172C9.22401 12.3562 9.19201 12.4944 9.23896 12.4944C9.34179 12.4944 9.82349 12.0679 9.82349 12.0679C9.89767 12.2496 9.59192 12.5438 9.34387 12.7825C9.15975 12.9597 9.00743 13.1062 9.06585 13.1535C9.20296 13.2645 9.69426 13.0425 9.69426 13.0425C9.69426 13.4115 9.03561 13.6678 8.73575 13.6678C8.65745 13.6678 8.60088 13.6889 8.56003 13.72C8.56794 14.0366 8.56813 14.3522 8.56279 14.6518C8.72631 14.7051 8.85403 14.7982 8.95239 14.9012C9.14496 14.8879 9.33449 14.8587 9.52103 14.8136C9.88117 14.6154 10.6783 13.9773 10.8802 13.7263C11.033 13.5362 11.0914 13.1621 11.1466 12.8085L11.1466 12.8084L11.1466 12.8084L11.1466 12.8084L11.1466 12.8084C11.1782 12.6061 11.2087 12.4105 11.2553 12.26C11.3832 11.8465 11.6096 12.7626 11.6096 12.9053C11.6096 13.0479 11.796 12.3763 11.796 11.9051C11.796 11.669 11.7493 11.5175 11.7026 11.3663C11.6561 11.2156 11.6096 11.0653 11.6096 10.832C11.6096 10.5564 11.7708 10.6053 11.9201 10.7482C11.8518 10.561 11.796 10.3294 11.796 10.0906C11.796 9.78493 11.7577 9.69317 11.741 9.67039C11.7561 9.67709 11.796 9.6809 11.8801 9.63522C12.0245 9.5568 12.0916 9.65302 12.1479 9.73361C12.197 9.80399 12.2378 9.86245 12.3145 9.78215C12.3983 9.69429 12.2174 9.59444 11.9485 9.4461C11.6904 9.30369 11.3513 9.11659 11.0878 8.8525C10.5499 8.31334 11.2553 8.12829 11.3756 8.31628C11.4959 8.50427 12.2127 8.71565 11.796 8.08986C11.5428 7.70947 11.2306 7.7142 10.9465 7.7185C10.7633 7.72127 10.5918 7.72386 10.4554 7.62275C10.2198 7.44814 10.5479 7.26769 10.7266 7.16939C10.8118 7.12253 10.8631 7.09434 10.8032 7.09434C10.7269 7.09434 10.6297 7.06726 10.5152 7.03536C10.3511 6.98964 10.1514 6.93404 9.92706 6.93404C9.5461 6.93404 8.7932 6.59317 9.0536 6.59317C9.14624 6.59317 9.28352 6.56028 9.43431 6.52416C9.59996 6.48447 9.78192 6.44088 9.93887 6.43271C9.48178 6.22139 8.95891 6.0432 8.36961 5.89806L8.46989 5.5C9.05247 5.64348 9.5767 5.81979 10.042 6.02884C9.96182 5.90545 9.87504 5.7715 9.80287 5.64556C9.55359 5.21058 10.3317 5.8861 10.6398 6.33334L10.6406 6.33458C11.1418 6.6254 11.5553 6.96473 11.8801 7.35245V6.47218C12.1711 6.57183 12.3367 7.51191 12.4237 8.22016C12.4872 8.36248 12.5419 8.50954 12.5877 8.66134C12.701 8.35901 12.9148 8.03859 13.1071 8.31628C13.336 8.64682 12.9316 10.522 12.7827 11.17C12.7762 11.238 12.7687 11.3055 12.7603 11.3725C13.115 11.1467 13.2989 10.6253 13.3931 10.3581C13.4744 10.1276 13.489 10.0863 13.489 10.587C13.489 11.2345 12.985 11.8757 12.572 12.2924C12.5128 12.4973 12.4427 12.6968 12.3618 12.8911C12.6463 12.8012 12.8901 12.6435 13.079 12.5212C13.4099 12.3071 13.5722 12.2021 13.489 12.7626C13.3983 13.3738 12.5116 13.5994 11.9542 13.6812C11.9138 13.7462 11.8719 13.8104 11.8285 13.8739L11.8049 13.9025C11.7186 13.9899 11.6314 14.0732 11.5432 14.1526C11.5995 14.1287 11.6535 14.1041 11.7064 14.0801L11.7066 14.08C11.9241 13.9813 12.1222 13.8913 12.373 13.8913C12.5243 13.8913 12.3174 13.9703 12.0245 14.0822C11.6783 14.2144 11.2121 14.3925 11.0753 14.5402C11.0181 14.602 10.9805 14.652 10.9502 14.6924C10.8608 14.8113 10.8339 14.8471 10.5535 14.8547C10.121 15.0845 9.67032 15.2295 9.20209 15.2889C9.23165 15.3592 9.24404 15.4056 9.24404 15.4056H7.27001C7.27001 15.4056 7.28521 15.3487 7.32214 15.2653C6.91166 15.1956 6.51493 15.059 6.13241 14.856C6.12242 14.8563 6.11204 14.8564 6.10129 14.8564C5.67304 14.8564 5.65344 14.8303 5.54985 14.6924C5.51947 14.652 5.48188 14.602 5.42465 14.5402C5.28792 14.3925 4.82168 14.2144 4.47551 14.0822C4.18262 13.9703 3.97568 13.8913 4.12704 13.8913C4.37778 13.8913 4.57593 13.9813 4.79345 14.08C4.86243 14.1114 4.93336 14.1436 5.00853 14.1741C5.07946 14.2029 5.17456 14.2375 5.27919 14.2738C5.14356 14.1593 5.00999 14.0356 4.8785 13.9025L4.8549 13.8739C4.81691 13.8182 4.78002 13.762 4.74423 13.7053C4.22817 13.6489 3.12337 13.4487 3.02154 12.7626C2.93834 12.2021 3.10062 12.3071 3.4315 12.5212C3.63079 12.6502 3.89125 12.8187 4.19608 12.9053C4.25154 12.921 4.30069 12.9339 4.34413 12.9443C4.28545 12.8076 4.23223 12.6682 4.18445 12.5262C3.76334 12.1488 3.02154 11.3725 3.02154 10.587C3.02154 10.0863 3.03613 10.1276 3.11744 10.3581C3.21426 10.6326 3.40568 11.1753 3.77973 11.3903C3.77973 11.3903 3.12584 8.71718 3.40347 8.31628C3.6811 7.91537 4.00351 8.76116 4.00351 8.99928C4.00351 9.04087 4.00755 8.99602 4.01686 8.89274C4.06083 8.40469 4.22236 6.61194 4.63043 6.47218V7.4412C4.63043 7.48638 4.65058 7.50398 4.68595 7.49973C4.95735 7.14127 5.30013 6.8217 5.7136 6.54111C5.77498 6.46519 5.82869 6.39441 5.87076 6.33334C6.17883 5.8861 6.95695 5.21058 6.70767 5.64556C6.6331 5.77568 6.54294 5.91435 6.46055 6.04109C6.43689 6.07747 6.41388 6.11287 6.39206 6.1468C6.91697 5.88535 7.52443 5.66972 8.21353 5.5L8.31381 5.89806C7.71068 6.04661 7.17714 6.22977 6.71248 6.44764C6.83206 6.46566 6.95827 6.4959 7.07623 6.52416C7.22701 6.56028 7.3643 6.59317 7.45694 6.59317C7.71733 6.59317 6.96444 6.93404 6.58348 6.93404C6.35911 6.93404 6.15947 6.98964 5.99536 7.03536C5.88083 7.06726 5.7836 7.09434 5.70735 7.09434C5.64746 7.09434 5.69871 7.12253 5.78391 7.16939C5.96263 7.26769 6.2907 7.44814 6.05516 7.62275C5.91876 7.72386 5.74724 7.72127 5.56399 7.7185C5.36108 7.71543 5.14379 7.71214 4.94389 7.84919C4.8092 8.04217 4.69692 8.2467 4.60689 8.46278C4.6978 8.58188 5.05344 8.44371 5.13498 8.31628C5.25527 8.12829 5.96062 8.31334 5.4227 8.8525C5.15922 9.11658 4.82013 9.30368 4.56203 9.4461L4.56202 9.4461L4.56202 9.4461L4.56202 9.4461L4.56202 9.4461L4.56201 9.4461L4.56201 9.4461C4.47791 9.49251 4.40241 9.53417 4.34092 9.5722C4.3322 9.64604 4.32449 9.71935 4.31779 9.79213C4.33283 9.77634 4.34734 9.75555 4.36266 9.73361C4.4189 9.65302 4.48606 9.5568 4.63043 9.63522C4.7145 9.6809 4.75443 9.67709 4.76953 9.67039C4.75287 9.69317 4.71449 9.78493 4.71449 10.0906C4.71449 10.3294 4.65872 10.561 4.59045 10.7482C4.73977 10.6053 4.90089 10.5564 4.90089 10.832C4.90089 11.0653 4.85448 11.2156 4.80797 11.3663C4.76127 11.5175 4.71449 11.669 4.71449 11.9051C4.71449 12.3763 4.90089 13.0479 4.90089 12.9053C4.90089 12.7626 5.12731 11.8465 5.25527 12.26C5.30184 12.4105 5.33236 12.6061 5.36393 12.8085C5.41911 13.1621 5.47749 13.5362 5.63039 13.7263C5.80547 13.944 6.4286 14.4531 6.82576 14.7136C7.07036 14.7999 7.32024 14.8577 7.57553 14.8869ZM4.77706 9.66405C4.77671 9.66321 4.77385 9.66448 4.76953 9.67039C4.77525 9.66785 4.77741 9.66489 4.77706 9.66405ZM11.741 9.67039C11.7367 9.66448 11.7338 9.66321 11.7335 9.66405C11.7331 9.66489 11.7353 9.66785 11.741 9.67039ZM11.8754 12.965C11.8922 12.9298 11.9086 12.8944 11.9245 12.8588C11.8827 12.8995 11.8513 12.9427 11.8754 12.965ZM8.41248 9.21203C8.40188 9.31298 8.37425 9.43667 8.34458 9.54974C8.36256 9.42576 8.38515 9.31246 8.41248 9.21203Z" fill="#F3E294"/>
</g>
</g>
<rect x="1.75" y="1.25" width="23.5" height="17.5" stroke="black" stroke-opacity="0.1" stroke-width="0.5" shape-rendering="crispEdges"/>
</g>
<defs>
<filter id="filter0_dd_701_23827" x="0" y="0" width="27" height="21" filterUnits="userSpaceOnUse" color-interpolation-filters="sRGB">
<feFlood flood-opacity="0" result="BackgroundImageFix"/>
<feColorMatrix in="SourceAlpha" type="matrix" values="0 0 0 0 0 0 0 0 0 0 0 0 0 0 0 0 0 0 127 0" result="hardAlpha"/>
<feOffset dy="0.5"/>
<feGaussianBlur stdDeviation="0.75"/>
<feComposite in2="hardAlpha" operator="out"/>
<feColorMatrix type="matrix" values="0 0 0 0 0 0 0 0 0 0 0 0 0 0 0 0 0 0 0.1 0"/>
<feBlend mode="multiply" in2="BackgroundImageFix" result="effect1_dropShadow_701_23827"/>
<feColorMatrix in="SourceAlpha" type="matrix" values="0 0 0 0 0 0 0 0 0 0 0 0 0 0 0 0 0 0 127 0" result="hardAlpha"/>
<feOffset/>
<feGaussianBlur stdDeviation="0.5"/>
<feComposite in2="hardAlpha" operator="out"/>
<feColorMatrix type="matrix" values="0 0 0 0 0 0 0 0 0 0 0 0 0 0 0 0 0 0 0.11 0"/>
<feBlend mode="multiply" in2="effect1_dropShadow_701_23827" result="effect2_dropShadow_701_23827"/>
<feBlend mode="normal" in="SourceGraphic" in2="effect2_dropShadow_701_23827" result="shape"/>
</filter>
<clipPath id="clip0_701_23827">
<rect x="1.5" y="1" width="24" height="18" fill="white"/>
</clipPath>
</defs>
</svg>