<svg viewBox="0 0 27 21" fill="none" xmlns="http://www.w3.org/2000/svg">
<g filter="url(#filter0_dd_701_19684)">
<g clip-path="url(#clip0_701_19684)">
<mask id="mask0_701_19684" style="mask-type:alpha" maskUnits="userSpaceOnUse" x="1" y="1" width="25" height="18">
<rect x="1.5" y="1" width="24" height="18" fill="white"/>
</mask>
<g mask="url(#mask0_701_19684)">
<path fill-rule="evenodd" clip-rule="evenodd" d="M1.5 1V19H25.5V1H1.5Z" fill="#EF0000"/>
<mask id="mask1_701_19684" style="mask-type:alpha" maskUnits="userSpaceOnUse" x="1" y="1" width="25" height="18">
<path fill-rule="evenodd" clip-rule="evenodd" d="M1.5 1V19H25.5V1H1.5Z" fill="white"/>
</mask>
<g mask="url(#mask1_701_19684)">
<path fill-rule="evenodd" clip-rule="evenodd" d="M1.5 1V11.5H15V1H1.5Z" fill="#2E42A5"/>
<path fill-rule="evenodd" clip-rule="evenodd" d="M8.04722 9.10801L6.93597 10.4944L6.6668 8.73813L5.01124 9.38315L5.65626 7.72759L3.89999 7.45842L5.28638 6.34717L3.89999 5.23593L5.65626 4.96675L5.01124 3.3112L6.6668 3.95622L6.93597 2.19995L8.04722 3.58633L9.15846 2.19995L9.42764 3.95622L11.0832 3.3112L10.4382 4.96675L12.1944 5.23593L10.8081 6.34717L12.1944 7.45842L10.4382 7.72759L11.0832 9.38315L9.42764 8.73813L9.15846 10.4944L8.04722 9.10801ZM8.04722 8.49393C9.23284 8.49393 10.194 7.5328 10.194 6.34717C10.194 5.16155 9.23284 4.20041 8.04722 4.20041C6.86159 4.20041 5.90046 5.16155 5.90046 6.34717C5.90046 7.5328 6.86159 8.49393 8.04722 8.49393ZM9.76462 6.34717C9.76462 7.29567 8.99571 8.06458 8.04722 8.06458C7.09872 8.06458 6.32981 7.29567 6.32981 6.34717C6.32981 5.39867 7.09872 4.62977 8.04722 4.62977C8.99571 4.62977 9.76462 5.39867 9.76462 6.34717Z" fill="#FEFFFF"/>
</g>
</g>
</g>
<rect x="1.75" y="1.25" width="23.5" height="17.5" stroke="black" stroke-opacity="0.1" stroke-width="0.5" shape-rendering="crispEdges"/>
</g>
<defs>
<filter id="filter0_dd_701_19684" x="0" y="0" width="27" height="21" filterUnits="userSpaceOnUse" color-interpolation-filters="sRGB">
<feFlood flood-opacity="0" result="BackgroundImageFix"/>
<feColorMatrix in="SourceAlpha" type="matrix" values="0 0 0 0 0 0 0 0 0 0 0 0 0 0 0 0 0 0 127 0" result="hardAlpha"/>
<feOffset dy="0.5"/>
<feGaussianBlur stdDeviation="0.75"/>
<feComposite in2="hardAlpha" operator="out"/>
<feColorMatrix type="matrix" values="0 0 0 0 0 0 0 0 0 0 0 0 0 0 0 0 0 0 0.1 0"/>
<feBlend mode="multiply" in2="BackgroundImageFix" result="effect1_dropShadow_701_19684"/>
<feColorMatrix in="SourceAlpha" type="matrix" values="0 0 0 0 0 0 0 0 0 0 0 0 0 0 0 0 0 0 127 0" result="hardAlpha"/>
<feOffset/>
<feGaussianBlur stdDeviation="0.5"/>
<feComposite in2="hardAlpha" operator="out"/>
<feColorMatrix type="matrix" values="0 0 0 0 0 0 0 0 0 0 0 0 0 0 0 0 0 0 0.11 0"/>
<feBlend mode="multiply" in2="effect1_dropShadow_701_19684" result="effect2_dropShadow_701_19684"/>
<feBlend mode="normal" in="SourceGraphic" in2="effect2_dropShadow_701_19684" result="shape"/>
</filter>
<clipPath id="clip0_701_19684">
<rect x="1.5" y="1" width="24" height="18" fill="white"/>
</clipPath>
</defs>
</svg>