<svg viewBox="0 0 27 21" fill="none" xmlns="http://www.w3.org/2000/svg">
<g filter="url(#filter0_dd_701_21315)">
<g clip-path="url(#clip0_701_21315)">
<mask id="mask0_701_21315" style="mask-type:alpha" maskUnits="userSpaceOnUse" x="1" y="1" width="25" height="18">
<rect x="1.5" y="1" width="24" height="18" fill="white"/>
</mask>
<g mask="url(#mask0_701_21315)">
<path fill-rule="evenodd" clip-rule="evenodd" d="M1.5 1V19H25.5V1H1.5Z" fill="#F50101"/>
<mask id="mask1_701_21315" style="mask-type:alpha" maskUnits="userSpaceOnUse" x="1" y="1" width="25" height="18">
<path fill-rule="evenodd" clip-rule="evenodd" d="M1.5 1V19H25.5V1H1.5Z" fill="white"/>
</mask>
<g mask="url(#mask1_701_21315)">
<path fill-rule="evenodd" clip-rule="evenodd" d="M1.5 1V7H25.5V1H1.5Z" fill="#F7FCFF"/>
<path fill-rule="evenodd" clip-rule="evenodd" d="M1.5 13V19H25.5V13H1.5Z" fill="#5EAA22"/>
<rect x="1.5" y="1" width="9" height="18" fill="#F50101"/>
<path fill-rule="evenodd" clip-rule="evenodd" d="M5.76841 6.94724C5.42556 6.91333 3.15953 6.7204 3.15953 7.5448C3.15953 8.03688 3.71069 8.29734 4.40192 8.43197C3.74623 9.02574 3.1252 9.58644 2.80275 9.8774C2.73736 9.9364 2.79141 10.0356 2.87668 10.0136C3.46472 9.86173 4.81421 9.44589 6.10162 8.56762L6.14357 8.56768C6.52289 8.56768 6.78671 8.40313 6.97008 8.1804C8.26769 9.23958 9.72672 9.75884 10.4489 9.96796C10.5416 9.99481 10.5933 9.87601 10.5145 9.82034C9.92875 9.40685 8.7628 8.52273 7.57207 7.26967L7.60513 7.23097C7.86218 6.92762 8.08616 6.6156 8.28132 6.30274C8.36299 6.25499 8.42801 6.18234 8.46574 6.09536H8.66491L8.66491 6.59577C8.66491 6.6438 8.70384 6.68273 8.75187 6.68273H10.2899C10.3379 6.68273 10.3769 6.6438 10.3769 6.59577V5.64469C10.3769 5.59666 10.3379 5.55773 10.2899 5.55773H8.75187C8.70384 5.55773 8.66491 5.59666 8.66491 5.64469L8.66491 5.64734H8.65016C9.29036 4.38161 9.50007 3.19345 9.56769 2.61603C9.57836 2.52495 9.46283 2.48912 9.41583 2.56787C9.1169 3.06884 8.44873 4.12744 7.38519 5.48961V4.80134C7.27808 4.68493 6.9366 4.37174 6.9366 4.37174V3.68451L7.55436 3.12546L6.70591 2.5L5.81165 3.12546L6.48759 3.68451V4.37174C6.48759 4.70129 6.07779 4.80134 6.07779 4.80134L6.00276 5.40756C5.01963 4.13093 4.38486 3.11894 4.08358 2.61007C4.0356 2.52903 3.91718 2.56773 3.93245 2.66067C4.02982 3.25315 4.28833 4.41339 4.93634 5.64734H4.75187L4.75187 5.64469C4.75187 5.59666 4.71294 5.55773 4.66491 5.55773H3.12687C3.07884 5.55773 3.03991 5.59666 3.03991 5.64469V6.59577C3.03991 6.6438 3.07884 6.68273 3.12687 6.68273H4.66491C4.71294 6.68273 4.75187 6.6438 4.75187 6.59577L4.75187 6.09536H4.95104C5.0186 6.25114 5.17374 6.36093 5.35518 6.36411C5.48192 6.55965 5.61937 6.75467 5.76841 6.94724ZM5.73013 5.92063C5.73013 6.12106 5.56589 6.28354 5.36328 6.28354C5.16068 6.28354 4.99643 6.12106 4.99643 5.92063C4.99643 5.72021 5.16068 5.55773 5.36328 5.55773C5.56589 5.55773 5.73013 5.72021 5.73013 5.92063ZM7.68665 5.92063C7.68665 6.12106 7.85089 6.28354 8.0535 6.28354C8.2561 6.28354 8.42035 6.12106 8.42035 5.92063C8.42035 5.72021 8.2561 5.55773 8.0535 5.55773C7.85089 5.55773 7.68665 5.72021 7.68665 5.92063Z" fill="#F7FCFF"/>
</g>
</g>
</g>
<rect x="1.75" y="1.25" width="23.5" height="17.5" stroke="black" stroke-opacity="0.1" stroke-width="0.5" shape-rendering="crispEdges"/>
</g>
<defs>
<filter id="filter0_dd_701_21315" x="0" y="0" width="27" height="21" filterUnits="userSpaceOnUse" color-interpolation-filters="sRGB">
<feFlood flood-opacity="0" result="BackgroundImageFix"/>
<feColorMatrix in="SourceAlpha" type="matrix" values="0 0 0 0 0 0 0 0 0 0 0 0 0 0 0 0 0 0 127 0" result="hardAlpha"/>
<feOffset dy="0.5"/>
<feGaussianBlur stdDeviation="0.75"/>
<feComposite in2="hardAlpha" operator="out"/>
<feColorMatrix type="matrix" values="0 0 0 0 0 0 0 0 0 0 0 0 0 0 0 0 0 0 0.1 0"/>
<feBlend mode="multiply" in2="BackgroundImageFix" result="effect1_dropShadow_701_21315"/>
<feColorMatrix in="SourceAlpha" type="matrix" values="0 0 0 0 0 0 0 0 0 0 0 0 0 0 0 0 0 0 127 0" result="hardAlpha"/>
<feOffset/>
<feGaussianBlur stdDeviation="0.5"/>
<feComposite in2="hardAlpha" operator="out"/>
<feColorMatrix type="matrix" values="0 0 0 0 0 0 0 0 0 0 0 0 0 0 0 0 0 0 0.11 0"/>
<feBlend mode="multiply" in2="effect1_dropShadow_701_21315" result="effect2_dropShadow_701_21315"/>
<feBlend mode="normal" in="SourceGraphic" in2="effect2_dropShadow_701_21315" result="shape"/>
</filter>
<clipPath id="clip0_701_21315">
<rect x="1.5" y="1" width="24" height="18" fill="white"/>
</clipPath>
</defs>
</svg>