<svg viewBox="0 0 27 21" fill="none" xmlns="http://www.w3.org/2000/svg">
<g filter="url(#filter0_dd_701_20614)">
<g clip-path="url(#clip0_701_20614)">
<mask id="mask0_701_20614" style="mask-type:alpha" maskUnits="userSpaceOnUse" x="1" y="1" width="25" height="18">
<rect x="1.5" y="1" width="24" height="18" fill="white"/>
</mask>
<g mask="url(#mask0_701_20614)">
<path fill-rule="evenodd" clip-rule="evenodd" d="M1.5 1V19H25.5V1H1.5Z" fill="#FECA00"/>
<mask id="mask1_701_20614" style="mask-type:alpha" maskUnits="userSpaceOnUse" x="1" y="1" width="25" height="18">
<path fill-rule="evenodd" clip-rule="evenodd" d="M1.5 1V19H25.5V1H1.5Z" fill="white"/>
</mask>
<g mask="url(#mask1_701_20614)">
<path fill-rule="evenodd" clip-rule="evenodd" d="M1.5 1V11.5H25.5V1H1.5Z" fill="#3CA5D9"/>
<path fill-rule="evenodd" clip-rule="evenodd" d="M1.5 14.5V19H25.5V14.5H1.5Z" fill="#5A962A"/>
<path fill-rule="evenodd" clip-rule="evenodd" d="M19.5613 9.8992C19.5365 9.8998 19.5115 9.9001 19.4865 9.9001C19.4651 9.9001 19.4437 9.89988 19.4224 9.89944L18.9691 11.3798L18.8732 9.83783C18.8273 9.82836 18.7817 9.81785 18.7366 9.80632L17.9515 11.1413L18.2174 9.62124C18.1746 9.60137 18.1323 9.58052 18.0907 9.55873L17.0171 10.6771L17.6293 9.26045C17.592 9.23116 17.5554 9.20101 17.5196 9.17003L16.216 10.0122L17.1404 8.77561C17.1105 8.73826 17.0816 8.70018 17.0536 8.6614L15.5915 9.18246L16.7768 8.19215C16.7563 8.14851 16.7368 8.10429 16.7184 8.05953L15.1774 8.23268L16.5598 7.54033C16.55 7.49292 16.5415 7.44509 16.534 7.39687L14.9958 7.21401L16.5015 6.85589C16.503 6.80691 16.5058 6.75822 16.5098 6.70986L15.0566 6.18138L16.6038 6.1764C16.6168 6.12896 16.631 6.08199 16.6463 6.03552L15.3565 5.19045L16.8634 5.5386C16.8871 5.49561 16.9119 5.45327 16.9378 5.41161L15.8793 4.29465L17.2656 4.97772C17.2985 4.94154 17.3324 4.90617 17.3671 4.87165L16.597 3.54227L17.7873 4.52373C17.8276 4.49615 17.8686 4.46951 17.9103 4.44387L17.4706 2.97386L18.4006 4.20109C18.446 4.18357 18.4919 4.16711 18.5384 4.15176L18.4533 2.62008L19.0728 4.02808C19.1206 4.02153 19.1688 4.01611 19.2173 4.01182L19.4919 2.5L19.7667 4.01281C19.815 4.01725 19.8629 4.02282 19.9104 4.02949L20.5306 2.62008L20.4452 4.15529C20.4909 4.17058 20.5361 4.18694 20.5808 4.20433L21.5132 2.97386L21.0719 4.4495C21.1125 4.47467 21.1524 4.50077 21.1917 4.52778L22.3869 3.54227L21.6128 4.87849C21.6463 4.91201 21.679 4.94633 21.7108 4.9814L23.1045 4.29465L22.0395 5.41851C22.0643 5.45866 22.0881 5.49944 22.1109 5.54082L23.6274 5.19045L22.3287 6.04135C22.3432 6.0859 22.3568 6.13092 22.3693 6.17637L23.9273 6.18138L22.4636 6.71368C22.4673 6.75993 22.4699 6.80648 22.4715 6.8533L23.9881 7.21401L22.4388 7.39818C22.4317 7.44429 22.4235 7.49004 22.4142 7.53542L23.8065 8.23268L22.2551 8.05837C22.2375 8.10131 22.2188 8.14375 22.1992 8.18566L23.3923 9.18246L21.9216 8.65834C21.8947 8.69575 21.8669 8.73252 21.8382 8.76861L22.7678 10.0122L21.458 9.16603C21.4233 9.19618 21.3879 9.22554 21.3518 9.2541L21.9668 10.6771L20.8896 9.55495C20.8488 9.57641 20.8075 9.59696 20.7657 9.61658L21.0323 11.1413L20.2458 9.80391C20.2012 9.81546 20.1562 9.82602 20.1108 9.83555L20.0148 11.3798L19.5613 9.8992ZM19.4595 8.81113C20.51 8.81113 21.3615 7.97195 21.3615 6.93677C21.3615 5.90158 20.51 5.0624 19.4595 5.0624C18.4091 5.0624 17.5575 5.90158 17.5575 6.93677C17.5575 7.97195 18.4091 8.81113 19.4595 8.81113ZM20.5535 6.99164C20.5535 7.58364 20.0736 8.06356 19.4816 8.06356C18.8895 8.06356 18.4096 7.58364 18.4096 6.99164C18.4096 6.39963 18.8895 5.91971 19.4816 5.91971C20.0736 5.91971 20.5535 6.39963 20.5535 6.99164Z" fill="#FFDC17"/>
</g>
</g>
</g>
<rect x="1.75" y="1.25" width="23.5" height="17.5" stroke="black" stroke-opacity="0.1" stroke-width="0.5" shape-rendering="crispEdges"/>
</g>
<defs>
<filter id="filter0_dd_701_20614" x="0" y="0" width="27" height="21" filterUnits="userSpaceOnUse" color-interpolation-filters="sRGB">
<feFlood flood-opacity="0" result="BackgroundImageFix"/>
<feColorMatrix in="SourceAlpha" type="matrix" values="0 0 0 0 0 0 0 0 0 0 0 0 0 0 0 0 0 0 127 0" result="hardAlpha"/>
<feOffset dy="0.5"/>
<feGaussianBlur stdDeviation="0.75"/>
<feComposite in2="hardAlpha" operator="out"/>
<feColorMatrix type="matrix" values="0 0 0 0 0 0 0 0 0 0 0 0 0 0 0 0 0 0 0.1 0"/>
<feBlend mode="multiply" in2="BackgroundImageFix" result="effect1_dropShadow_701_20614"/>
<feColorMatrix in="SourceAlpha" type="matrix" values="0 0 0 0 0 0 0 0 0 0 0 0 0 0 0 0 0 0 127 0" result="hardAlpha"/>
<feOffset/>
<feGaussianBlur stdDeviation="0.5"/>
<feComposite in2="hardAlpha" operator="out"/>
<feColorMatrix type="matrix" values="0 0 0 0 0 0 0 0 0 0 0 0 0 0 0 0 0 0 0.11 0"/>
<feBlend mode="multiply" in2="effect1_dropShadow_701_20614" result="effect2_dropShadow_701_20614"/>
<feBlend mode="normal" in="SourceGraphic" in2="effect2_dropShadow_701_20614" result="shape"/>
</filter>
<clipPath id="clip0_701_20614">
<rect x="1.5" y="1" width="24" height="18" fill="white"/>
</clipPath>
</defs>
</svg>