<svg viewBox="0 0 27 21" fill="none" xmlns="http://www.w3.org/2000/svg">
<g filter="url(#filter0_dd_701_19114)">
<g clip-path="url(#clip0_701_19114)">
<mask id="mask0_701_19114" style="mask-type:alpha" maskUnits="userSpaceOnUse" x="1" y="1" width="25" height="18">
<rect x="1.5" y="1" width="24" height="18" fill="white"/>
</mask>
<g mask="url(#mask0_701_19114)">
<path fill-rule="evenodd" clip-rule="evenodd" d="M1.5 1H25.5V19H1.5V1Z" fill="#F7FCFF"/>
<path fill-rule="evenodd" clip-rule="evenodd" d="M1.5 1V19H25.5V1H1.5Z" fill="#5EAA22"/>
<mask id="mask1_701_19114" style="mask-type:alpha" maskUnits="userSpaceOnUse" x="1" y="1" width="25" height="18">
<path fill-rule="evenodd" clip-rule="evenodd" d="M1.5 1V19H25.5V1H1.5Z" fill="white"/>
</mask>
<g mask="url(#mask1_701_19114)">
<rect x="24.5" y="8" width="5" height="14" fill="#FF8126"/>
<rect x="18" y="8.5" width="3.75" height="10.5" fill="#272727"/>
<rect x="14.25" y="8.5" width="3.75" height="10.5" fill="#C51918"/>
<path fill-rule="evenodd" clip-rule="evenodd" d="M19.9102 4.62826C20.2711 4.74021 19.9102 4.91158 19.9102 4.91158C19.9102 4.91158 19.8389 4.84171 19.8389 4.78336C19.8389 4.72501 19.5624 4.78336 19.4199 4.9951C19.2847 5.19576 19.5338 5.19518 19.7955 5.19457C19.81 5.19454 19.8245 5.19451 19.8389 5.19451C19.9868 5.19451 20.2182 5.18221 20.4333 5.17078C20.6204 5.16084 20.7952 5.15155 20.8923 5.15155C21.1012 5.15155 21.2001 5.15155 21.4757 4.9951C21.6548 4.89339 22.2472 4.7689 22.6877 4.67635C22.9248 4.62652 23.1178 4.58595 23.1787 4.56317C23.3525 4.49807 23.0048 4.84171 23.0048 4.84171C23.0048 4.84171 24.3462 4.38526 24.6149 4.22939C24.781 4.13309 24.7057 4.21528 24.5829 4.34948C24.5069 4.43249 24.4127 4.53539 24.3462 4.62826C24.2328 4.78649 24.4637 4.63564 24.7203 4.4681C24.8577 4.37833 25.0025 4.28377 25.1056 4.22939C25.4011 4.07352 25.0305 4.49631 24.8676 4.62826C24.7047 4.76021 25.2501 4.62826 25.4389 4.49631C25.5778 4.39922 25.4509 4.56893 25.3441 4.71181C25.3058 4.7631 25.27 4.81093 25.2501 4.84171L25.2469 4.84661C25.1738 4.95929 25.1506 4.9951 25.3256 4.9951C25.503 4.9951 24.8676 5.41194 24.8676 5.41194C24.8676 5.41194 25.0569 5.38659 24.8676 5.66414C24.756 5.82775 24.2126 5.99303 23.7714 6.12722C23.4641 6.22067 23.2064 6.29904 23.1787 6.35127C23.1289 6.44507 22.634 6.5537 22.4034 6.60432C22.3211 6.62238 22.2725 6.63305 22.2896 6.63305C22.3547 6.63305 22.4629 6.70255 22.3454 6.70255C22.2279 6.70255 22.0215 6.75861 22.0215 6.75861C22.0215 6.75861 22.1301 6.75861 22.0215 6.88921C21.9695 6.95177 21.8783 6.94187 21.8143 6.93492C21.7447 6.92736 21.7073 6.9233 21.7877 7.01982C21.8584 7.10463 21.8854 7.13689 21.8787 7.14694C21.8709 7.15884 21.8159 7.1396 21.7304 7.1396C21.6556 7.1396 21.5756 7.11257 21.4917 7.0842C21.3988 7.05283 21.3012 7.01982 21.2001 7.01982C21.0153 7.01982 21.2008 7.13019 21.3167 7.19913C21.3215 7.20201 21.3262 7.20482 21.3308 7.20754C21.4342 7.26926 21.3911 7.26914 21.2039 7.2686C21.185 7.26854 21.1647 7.26849 21.1429 7.26849C21.0268 7.26849 20.9644 7.2578 20.9308 7.25206C20.8956 7.24603 20.8923 7.24547 20.8923 7.26849C20.8923 7.29056 20.8048 7.25983 20.6995 7.22285C20.5905 7.18457 20.4625 7.1396 20.3927 7.1396C20.2555 7.1396 20.6834 7.37833 20.6834 7.37833C20.6834 7.37833 20.4606 7.31751 20.3399 7.26849C20.2713 7.24062 20.3584 7.37207 20.4371 7.49074C20.4969 7.58084 20.5518 7.66357 20.5298 7.66357C20.5132 7.66357 20.4765 7.6487 20.4346 7.63175C20.3487 7.59696 20.2412 7.55342 20.2412 7.61174C20.2412 7.69847 20.3399 7.76291 20.4606 7.76291C20.5812 7.76291 20.6011 7.89837 20.5298 7.89837C20.5051 7.89837 20.4747 7.88941 20.4455 7.8808C20.3905 7.86459 20.3399 7.84965 20.3399 7.89837C20.3399 7.9298 20.3613 7.95333 20.3861 7.98056C20.4202 8.01795 20.4606 8.0623 20.4606 8.14364C20.4606 8.28421 20.2809 8.30422 20.3399 8.21105C20.3988 8.11789 20.1354 7.89299 20.1354 8.00306V8.14364C20.1354 8.24303 20.1127 8.24938 20.0773 8.25929C20.0554 8.2654 20.0287 8.27286 19.9995 8.30422C19.956 8.35103 19.9494 8.37766 19.9458 8.39257C19.9421 8.40735 19.9413 8.41063 19.9102 8.41063C19.8855 8.41063 19.8649 8.37957 19.8373 8.33782C19.7948 8.27373 19.7357 8.18446 19.6194 8.14364C19.5088 8.10486 19.503 8.133 19.493 8.18163C19.4855 8.21755 19.4758 8.26464 19.4199 8.30422C19.3358 8.3637 19.3591 8.38837 19.3869 8.41786C19.4027 8.43457 19.4199 8.45282 19.4199 8.47983C19.4199 8.5545 19.2728 8.40515 19.2728 8.30422C19.2728 8.2033 19.1057 8.06902 19.1057 8.14364C19.1057 8.21825 19.1057 8.30422 19.0197 8.30422C18.9784 8.30422 18.9768 8.3291 18.9747 8.36252C18.9725 8.39852 18.9697 8.44443 18.9157 8.47983C18.8626 8.51469 18.8638 8.49611 18.8663 8.45528C18.8688 8.41619 18.8725 8.35672 18.8312 8.30422C18.7794 8.23853 18.8227 8.13686 18.8446 8.08515C18.8586 8.05236 18.864 8.03967 18.8312 8.06902C18.7477 8.14367 18.6413 8.14365 18.5693 8.14364H18.5664C18.5302 8.14364 18.4985 8.18254 18.4759 8.21021C18.4537 8.23752 18.4404 8.25387 18.4404 8.21105C18.4404 8.12485 18.547 7.89837 18.7477 7.89837C18.9023 7.89837 18.9801 7.84546 19.047 7.8C19.0669 7.78644 19.0859 7.77355 19.1057 7.76291C19.1916 7.71663 19.1057 7.65624 19.0197 7.61174C18.9807 7.59152 18.9949 7.52634 19.022 7.46811C19.0696 7.44223 19.1057 7.41028 19.1057 7.37833C19.1057 7.3383 19.0545 7.39819 19.022 7.46811C18.9602 7.50165 18.8789 7.52501 18.8312 7.52501C18.7853 7.52501 18.814 7.45504 18.8499 7.36751C18.8803 7.29355 18.9157 7.20703 18.9157 7.1396C18.9157 7.07537 18.9284 7.01954 18.9372 6.98093C18.9485 6.93102 18.9533 6.90989 18.9157 6.93662C18.8691 6.96981 18.6207 6.93331 18.4513 6.90842C18.3786 6.89775 18.3205 6.88921 18.2991 6.88921C18.2674 6.88921 18.2929 6.839 18.3183 6.78907C18.3502 6.72623 18.3819 6.66382 18.2991 6.70255C18.1693 6.76325 17.9053 6.76068 17.7384 6.75906C17.7142 6.75882 17.692 6.75861 17.6726 6.75861C17.5749 6.75861 17.6419 6.68597 17.6779 6.64702C17.6984 6.62477 17.7088 6.61352 17.6726 6.63305C17.573 6.6868 17.4739 6.70255 17.3619 6.70255C17.3114 6.70255 17.2969 6.67728 17.2811 6.64963C17.2619 6.61594 17.2406 6.57871 17.1496 6.57931C16.9839 6.58039 16.9467 6.57822 16.8555 6.5175C16.808 6.4859 16.8347 6.46732 16.8498 6.45677C16.8638 6.44705 16.8679 6.44414 16.7953 6.44414H16.3458C16.1218 6.44414 16.3465 6.297 16.4272 6.297C16.5079 6.297 16.6015 6.16458 16.4272 6.22403C16.3156 6.26209 16.1963 6.25143 16.0551 6.23883C15.9758 6.23174 15.8895 6.22403 15.7939 6.22403C15.5283 6.22403 15.4774 6.12047 15.6344 6.12047C15.7915 6.12047 15.8008 6.0446 15.5566 6.0446C15.4035 6.0446 15.2775 6.00952 15.1837 5.98337C15.1279 5.96784 15.0835 5.95546 15.0514 5.95546C14.9652 5.95546 14.8721 5.85335 15.0514 5.85335C15.2307 5.85335 15.4607 5.76823 15.2645 5.76823C15.1536 5.76823 14.9688 5.71846 14.8079 5.67516C14.6841 5.64182 14.5745 5.61231 14.5239 5.61231C14.485 5.61231 14.5458 5.6013 14.6267 5.58665C14.7881 5.55742 15.0298 5.51366 14.7216 5.51366C14.3924 5.51366 14.0476 5.28735 13.8094 5.13103C13.7127 5.06757 13.6336 5.01565 13.5803 4.9951C13.3955 4.92392 13.5803 4.78336 13.6335 4.84171C13.6867 4.90006 14.0593 4.98978 13.8979 4.91158C13.7365 4.83339 13.6335 4.70031 13.5803 4.62826C13.527 4.55621 13.568 4.50645 13.6335 4.56317C13.6989 4.61989 14.001 4.78336 14.001 4.78336C14.001 4.78336 13.8394 4.62826 13.7111 4.38526C13.5828 4.14225 13.8394 4.20144 14.0593 4.38526C14.2792 4.56907 14.4853 4.6177 14.5888 4.62826C14.6924 4.63882 14.4853 4.49586 14.2861 4.38526C14.0868 4.27465 14.1321 3.87868 14.2861 4.03679C14.3662 4.11904 14.7458 4.27579 15.1171 4.42911C15.4596 4.57049 15.7949 4.70895 15.8817 4.78336C16.032 4.91214 15.9111 4.72017 15.7801 4.51221C15.7533 4.46969 15.7261 4.42651 15.7007 4.38526C15.6138 4.24399 15.9632 4.4045 16.3608 4.58712C16.6471 4.71863 16.9584 4.8616 17.1496 4.91158C17.2813 4.94602 17.4386 5.00115 17.5958 5.05623C17.9836 5.19216 18.3706 5.3278 18.3706 5.15155C18.3706 4.90387 18.7253 4.51631 19.1057 4.38526C19.347 4.30208 19.4607 4.37727 19.6038 4.47193C19.6862 4.52642 19.7783 4.58736 19.9102 4.62826ZM19.5009 7.53524C19.5868 7.53524 19.5633 6.78264 19.5633 6.78264C19.5633 6.78264 19.8167 7.24415 19.8167 7.44386C19.8167 7.53473 19.8091 7.56182 19.8114 7.58804C19.8142 7.61943 19.8312 7.64956 19.8927 7.78649C19.9552 7.92571 19.9138 7.91063 19.8009 7.86952C19.71 7.83643 19.5728 7.78649 19.4062 7.78649C19.0325 7.78649 19.4151 7.53524 19.5009 7.53524Z" fill="#FF8126"/>
<path d="M19.9102 4.91158L19.8227 5.00083L19.885 5.06193L19.9638 5.0245L19.9102 4.91158ZM19.9102 4.62826L19.8731 4.74765H19.8731L19.9102 4.62826ZM19.4199 4.9951L19.3162 4.92528V4.92528L19.4199 4.9951ZM19.7955 5.19457L19.7958 5.31957L19.7955 5.19457ZM20.4333 5.17078L20.4267 5.04596L20.4333 5.17078ZM21.4757 4.9951L21.5374 5.1038L21.4757 4.9951ZM22.6877 4.67635L22.7134 4.79867V4.79867L22.6877 4.67635ZM23.1787 4.56317L23.1349 4.4461V4.4461L23.1787 4.56317ZM23.0048 4.84171L22.9169 4.7528L23.0451 4.96005L23.0048 4.84171ZM24.6149 4.22939L24.5522 4.12126L24.5522 4.12126L24.6149 4.22939ZM24.5829 4.34948L24.4907 4.26508V4.26508L24.5829 4.34948ZM24.3462 4.62826L24.2446 4.55544V4.55544L24.3462 4.62826ZM24.7203 4.4681L24.6519 4.36344V4.36344L24.7203 4.4681ZM25.1056 4.22939L25.0473 4.11883V4.11883L25.1056 4.22939ZM24.8676 4.62826L24.9463 4.72539L24.8676 4.62826ZM25.4389 4.49631L25.3673 4.39385L25.3673 4.39385L25.4389 4.49631ZM25.3441 4.71181L25.4442 4.78666L25.4442 4.78666L25.3441 4.71181ZM25.2501 4.84171L25.355 4.9097L25.355 4.90969L25.2501 4.84171ZM25.2469 4.84661L25.3518 4.91461L25.3518 4.9146L25.2469 4.84661ZM24.8676 5.41194L24.799 5.30742L24.8842 5.53583L24.8676 5.41194ZM24.8676 5.66414L24.9709 5.73457V5.73457L24.8676 5.66414ZM23.7714 6.12722L23.8077 6.24681L23.7714 6.12722ZM23.1787 6.35127L23.2891 6.40989V6.40989L23.1787 6.35127ZM22.4034 6.60432L22.4302 6.72642L22.4034 6.60432ZM22.0215 6.75861L21.9887 6.63798L22.0215 6.88361V6.75861ZM22.0215 6.88921L21.9254 6.80929L21.9254 6.80929L22.0215 6.88921ZM21.8143 6.93492L21.8278 6.81065L21.8143 6.93492ZM21.7877 7.01982L21.8838 6.93981V6.93981L21.7877 7.01982ZM21.8787 7.14694L21.7744 7.07803L21.7744 7.07803L21.8787 7.14694ZM21.4917 7.0842L21.5317 6.96578L21.4917 7.0842ZM21.3167 7.19913L21.2527 7.30655L21.2527 7.30655L21.3167 7.19913ZM21.3308 7.20754L21.3948 7.1002L21.3948 7.1002L21.3308 7.20754ZM21.2039 7.2686L21.2043 7.1436H21.2043L21.2039 7.2686ZM20.9308 7.25206L20.9519 7.12885L20.9308 7.25206ZM20.6995 7.22285L20.6581 7.34079L20.6995 7.22285ZM20.6834 7.37833L20.6505 7.49892L20.7443 7.26917L20.6834 7.37833ZM20.3399 7.26849L20.2928 7.3843L20.3399 7.26849ZM20.4371 7.49074L20.333 7.55983V7.55983L20.4371 7.49074ZM20.4346 7.63175L20.3877 7.7476L20.4346 7.63175ZM20.4455 7.8808L20.4809 7.7609L20.4809 7.7609L20.4455 7.8808ZM20.3861 7.98056L20.4785 7.89639L20.4785 7.89639L20.3861 7.98056ZM20.3399 8.21105L20.2342 8.14425H20.2342L20.3399 8.21105ZM20.0773 8.25929L20.1109 8.37968H20.1109L20.0773 8.25929ZM19.9995 8.30422L19.9081 8.21905L19.908 8.21905L19.9995 8.30422ZM19.9458 8.39257L20.0672 8.42239L20.0672 8.42239L19.9458 8.39257ZM19.8373 8.33782L19.733 8.40682L19.733 8.40682L19.8373 8.33782ZM19.6194 8.14364L19.6607 8.02568H19.6607L19.6194 8.14364ZM19.493 8.18163L19.3705 8.15634V8.15634L19.493 8.18163ZM19.4199 8.30422L19.3477 8.20218V8.20218L19.4199 8.30422ZM19.3869 8.41786L19.4778 8.33209L19.4778 8.33209L19.3869 8.41786ZM18.9747 8.36252L19.0995 8.37025L19.0995 8.37024L18.9747 8.36252ZM18.9157 8.47983L18.8472 8.37532L18.9157 8.47983ZM18.8663 8.45528L18.9911 8.4631L18.8663 8.45528ZM18.8312 8.30422L18.9294 8.22687H18.9294L18.8312 8.30422ZM18.8446 8.08515L18.7296 8.03623L18.7296 8.03623L18.8446 8.08515ZM18.8312 8.06902L18.9145 8.1622L18.9145 8.1622L18.8312 8.06902ZM18.5693 8.14364L18.5693 8.01864H18.5693V8.14364ZM18.4759 8.21021L18.5729 8.28913L18.5729 8.28913L18.4759 8.21021ZM19.047 7.8L18.9767 7.69663L18.9767 7.69663L19.047 7.8ZM19.1057 7.76291L19.0464 7.65286V7.65286L19.1057 7.76291ZM19.0197 7.61174L18.9622 7.72274L18.9622 7.72274L19.0197 7.61174ZM18.8499 7.36751L18.7343 7.32008V7.32008L18.8499 7.36751ZM18.9372 6.98093L18.8153 6.95327V6.95327L18.9372 6.98093ZM18.9157 6.93662L18.8433 6.83479L18.8433 6.83479L18.9157 6.93662ZM18.4513 6.90842L18.4331 7.03209L18.4513 6.90842ZM18.3183 6.78907L18.4297 6.84568L18.3183 6.78907ZM18.2991 6.70255L18.352 6.81578L18.2991 6.70255ZM17.7384 6.75906L17.7372 6.88405H17.7372L17.7384 6.75906ZM17.6779 6.64702L17.7698 6.73177L17.7698 6.73177L17.6779 6.64702ZM17.6726 6.63305L17.6132 6.52304H17.6132L17.6726 6.63305ZM17.2811 6.64963L17.1726 6.71166L17.1726 6.71166L17.2811 6.64963ZM17.1496 6.57931L17.1504 6.7043H17.1504L17.1496 6.57931ZM16.8555 6.5175L16.7862 6.62157V6.62157L16.8555 6.5175ZM16.8498 6.45677L16.7783 6.35422L16.7783 6.35422L16.8498 6.45677ZM16.4272 6.22403L16.3868 6.10573L16.4272 6.22403ZM16.0551 6.23883L16.0663 6.11432H16.0663L16.0551 6.23883ZM15.1837 5.98337L15.1501 6.10379H15.1501L15.1837 5.98337ZM14.8079 5.67516L14.8404 5.55446H14.8404L14.8079 5.67516ZM14.6267 5.58665L14.6044 5.46365H14.6044L14.6267 5.58665ZM13.8094 5.13103L13.878 5.02653H13.878L13.8094 5.13103ZM13.5803 4.9951L13.5353 5.11174L13.5353 5.11174L13.5803 4.9951ZM13.6335 4.84171L13.7258 4.75748L13.7258 4.75748L13.6335 4.84171ZM13.8979 4.91158L13.9524 4.79909H13.9524L13.8979 4.91158ZM13.5803 4.62826L13.4797 4.70252L13.4797 4.70252L13.5803 4.62826ZM13.6335 4.56317L13.5516 4.65763L13.5516 4.65763L13.6335 4.56317ZM14.001 4.78336L13.9415 4.8933L14.0875 4.69318L14.001 4.78336ZM13.7111 4.38526L13.6005 4.44362H13.6005L13.7111 4.38526ZM14.0593 4.38526L14.1394 4.28935L14.0593 4.38526ZM14.5888 4.62826L14.5762 4.75262H14.5762L14.5888 4.62826ZM14.2861 4.03679L14.1965 4.12401V4.12401L14.2861 4.03679ZM15.1171 4.42911L15.1648 4.31357L15.1171 4.42911ZM15.8817 4.78336L15.963 4.68845L15.8817 4.78336ZM15.7801 4.51221L15.8859 4.4456V4.4456L15.7801 4.51221ZM15.7007 4.38526L15.5943 4.45077V4.45077L15.7007 4.38526ZM16.3608 4.58712L16.413 4.47353L16.3608 4.58712ZM17.1496 4.91158L17.1812 4.79065L17.1496 4.91158ZM17.5958 5.05623L17.5544 5.1742L17.5958 5.05623ZM19.1057 4.38526L19.1464 4.50344V4.50344L19.1057 4.38526ZM19.6038 4.47193L19.5348 4.57618L19.5348 4.57618L19.6038 4.47193ZM19.5633 6.78264L19.6729 6.72248L19.4383 6.78654L19.5633 6.78264ZM19.8114 7.58804L19.9359 7.57698V7.57698L19.8114 7.58804ZM19.8927 7.78649L20.0067 7.7353L19.8927 7.78649ZM19.8009 7.86952L19.7581 7.98697L19.7581 7.98697L19.8009 7.86952ZM19.9102 4.91158C19.9638 5.0245 19.9638 5.02448 19.9639 5.02447C19.9639 5.02446 19.9639 5.02444 19.9639 5.02443C19.964 5.0244 19.9641 5.02437 19.9641 5.02433C19.9643 5.02427 19.9644 5.02419 19.9646 5.0241C19.965 5.02392 19.9654 5.0237 19.966 5.02344C19.9671 5.02291 19.9685 5.02221 19.9702 5.02135C19.9736 5.01963 19.9783 5.01723 19.984 5.01421C19.9952 5.00822 20.0105 4.99958 20.0277 4.98873C20.0595 4.9686 20.1076 4.93469 20.1434 4.88962C20.1789 4.84495 20.2242 4.75765 20.1728 4.66106C20.131 4.58241 20.0423 4.53838 19.9472 4.50887L19.8731 4.74765C19.9119 4.75968 19.935 4.77073 19.9476 4.77862C19.9605 4.78665 19.9571 4.78798 19.9521 4.77846C19.9456 4.76622 19.9442 4.75126 19.9469 4.7394C19.9489 4.73058 19.9519 4.72883 19.9476 4.73419C19.9383 4.74595 19.9187 4.76188 19.8942 4.77738C19.8831 4.78435 19.8731 4.78998 19.866 4.79379C19.8625 4.79568 19.8597 4.79707 19.8581 4.79791C19.8572 4.79833 19.8567 4.79861 19.8564 4.79874C19.8563 4.7988 19.8562 4.79883 19.8562 4.79882C19.8562 4.79881 19.8563 4.7988 19.8563 4.79877C19.8564 4.79876 19.8564 4.79874 19.8564 4.79873C19.8564 4.79872 19.8565 4.7987 19.8565 4.7987C19.8565 4.79868 19.8566 4.79867 19.9102 4.91158ZM19.7139 4.78336C19.7139 4.85505 19.7536 4.91522 19.7731 4.94235C19.7852 4.95925 19.7971 4.97332 19.8059 4.98313C19.8104 4.9881 19.8142 4.99217 19.817 4.99515C19.8185 4.99664 19.8197 4.99787 19.8206 4.99883C19.8211 4.9993 19.8215 4.99971 19.8219 5.00005C19.822 5.00021 19.8222 5.00036 19.8223 5.00049C19.8224 5.00056 19.8224 5.00062 19.8225 5.00068C19.8225 5.00071 19.8225 5.00073 19.8226 5.00076C19.8226 5.00077 19.8226 5.00079 19.8226 5.0008C19.8226 5.00082 19.8227 5.00083 19.9102 4.91158C19.9977 4.82233 19.9977 4.82235 19.9977 4.82237C19.9977 4.82237 19.9977 4.82239 19.9978 4.8224C19.9978 4.82242 19.9978 4.82244 19.9978 4.82246C19.9979 4.8225 19.9979 4.82254 19.9979 4.82257C19.998 4.82264 19.998 4.82268 19.9981 4.82272C19.9981 4.82279 19.9982 4.82279 19.9981 4.82274C19.998 4.82264 19.9977 4.82232 19.9972 4.82179C19.9961 4.82072 19.9944 4.81887 19.9922 4.81638C19.9876 4.81127 19.9817 4.80422 19.976 4.79635C19.9701 4.78818 19.9661 4.7813 19.9639 4.77646C19.9614 4.77079 19.9639 4.77374 19.9639 4.78336H19.7139ZM19.5236 5.06492C19.5776 4.98472 19.6593 4.93117 19.7281 4.90447C19.7631 4.89088 19.7872 4.88721 19.796 4.88703C19.8021 4.88691 19.7917 4.88844 19.7749 4.88075C19.7526 4.87059 19.7139 4.83911 19.7139 4.78336H19.9639C19.9639 4.71302 19.9166 4.67061 19.8786 4.6533C19.8461 4.63846 19.8131 4.63663 19.7909 4.63708C19.7435 4.63805 19.6895 4.65126 19.6376 4.67143C19.5325 4.71224 19.4048 4.79374 19.3162 4.92528L19.5236 5.06492ZM19.7952 5.06957C19.729 5.06973 19.6679 5.06984 19.6139 5.06705C19.5583 5.06418 19.52 5.05859 19.4968 5.0512C19.4698 5.04262 19.4947 5.04253 19.5045 5.07513C19.5129 5.10305 19.495 5.10731 19.5236 5.06492L19.3162 4.92528C19.2772 4.98322 19.2398 5.06266 19.265 5.14689C19.2917 5.23579 19.3698 5.27315 19.421 5.28942C19.4759 5.3069 19.5405 5.31359 19.601 5.31671C19.663 5.31992 19.7312 5.31972 19.7958 5.31957L19.7952 5.06957ZM19.8389 5.06951C19.8243 5.06951 19.8097 5.06954 19.7952 5.06957L19.7958 5.31957C19.8103 5.31954 19.8246 5.31951 19.8389 5.31951V5.06951ZM20.4267 5.04596C20.21 5.05747 19.9827 5.06951 19.8389 5.06951V5.31951C19.991 5.31951 20.2263 5.30695 20.44 5.2956L20.4267 5.04596ZM20.8923 5.02655C20.791 5.02655 20.6118 5.03612 20.4267 5.04596L20.44 5.2956C20.6289 5.28556 20.7994 5.27655 20.8923 5.27655V5.02655ZM21.414 4.88639C21.2811 4.96182 21.1995 4.99446 21.1311 5.01016C21.0618 5.02604 20.9991 5.02655 20.8923 5.02655V5.27655C20.9945 5.27655 21.0856 5.27707 21.1869 5.25383C21.289 5.23042 21.3947 5.18483 21.5374 5.1038L21.414 4.88639ZM22.662 4.55402C22.4422 4.6002 22.1819 4.6549 21.9539 4.7109C21.8399 4.7389 21.7325 4.76759 21.6414 4.79611C21.5525 4.82391 21.4711 4.85397 21.414 4.88639L21.5374 5.1038C21.5699 5.08537 21.6296 5.06174 21.716 5.0347C21.8001 5.00837 21.902 4.98109 22.0135 4.95368C22.2366 4.89887 22.4927 4.84505 22.7134 4.79867L22.662 4.55402ZM23.1349 4.4461C23.1141 4.45386 23.0599 4.46788 22.9719 4.48766C22.8874 4.50664 22.7808 4.52904 22.662 4.55402L22.7134 4.79867C22.8316 4.77382 22.9401 4.75102 23.0267 4.73157C23.1097 4.71291 23.1824 4.69525 23.2225 4.68023L23.1349 4.4461ZM23.0048 4.84171C23.0927 4.93062 23.0927 4.93061 23.0927 4.93061C23.0927 4.9306 23.0927 4.93059 23.0927 4.93058C23.0927 4.93056 23.0928 4.93054 23.0928 4.93051C23.0929 4.93045 23.0929 4.93037 23.093 4.93027C23.0932 4.93006 23.0935 4.92978 23.0939 4.92942C23.0946 4.92869 23.0957 4.92765 23.097 4.92632C23.0997 4.92365 23.1035 4.91981 23.1083 4.91498C23.1178 4.90533 23.1312 4.89167 23.1467 4.8755C23.1774 4.84348 23.2176 4.80029 23.2527 4.75834C23.2703 4.73742 23.2877 4.71545 23.3024 4.69444C23.3156 4.67569 23.3327 4.64921 23.3427 4.62088C23.3474 4.60771 23.3557 4.58023 23.3509 4.547C23.3448 4.50442 23.3182 4.46279 23.2719 4.4422C23.2361 4.42635 23.2027 4.42955 23.1867 4.43197C23.1678 4.43482 23.15 4.44042 23.1349 4.4461L23.2225 4.68023C23.2291 4.67777 23.2289 4.67843 23.2241 4.67916C23.222 4.67947 23.199 4.68338 23.1704 4.67069C23.1312 4.65327 23.1084 4.61727 23.1035 4.5824C23.0998 4.55689 23.1064 4.53922 23.107 4.53758C23.1089 4.5323 23.1083 4.53579 23.0977 4.55095C23.0887 4.56385 23.0762 4.57976 23.0612 4.59772C23.0311 4.63354 22.9953 4.67219 22.9662 4.70257C22.9518 4.7176 22.9393 4.73028 22.9305 4.73917C22.9262 4.74361 22.9227 4.74708 22.9203 4.74942C22.9192 4.75059 22.9183 4.75147 22.9177 4.75204C22.9174 4.75232 22.9172 4.75253 22.9171 4.75266C22.917 4.75272 22.917 4.75277 22.917 4.75279C22.9169 4.7528 22.9169 4.75281 22.9169 4.75281C22.9169 4.75281 22.9169 4.75281 22.9169 4.75281C22.9169 4.75281 22.9169 4.7528 23.0048 4.84171ZM24.5522 4.12126C24.4944 4.15476 24.369 4.20928 24.204 4.27459C24.0421 4.33865 23.8505 4.40985 23.6665 4.47647C23.4827 4.54304 23.3072 4.60478 23.1775 4.6499C23.1127 4.67245 23.0594 4.69084 23.0223 4.70358C23.0038 4.70995 22.9893 4.71491 22.9795 4.71827C22.9746 4.71995 22.9708 4.72123 22.9683 4.72209C22.9671 4.72252 22.9661 4.72284 22.9655 4.72306C22.9652 4.72317 22.9649 4.72325 22.9648 4.7233C22.9647 4.72333 22.9646 4.72335 22.9646 4.72336C22.9646 4.72336 22.9646 4.72337 22.9646 4.72337C22.9645 4.72337 22.9645 4.72338 23.0048 4.84171C23.0451 4.96005 23.0451 4.96005 23.0451 4.96004C23.0451 4.96004 23.0451 4.96003 23.0452 4.96002C23.0452 4.96001 23.0453 4.95999 23.0453 4.95996C23.0455 4.9599 23.0458 4.95982 23.0461 4.9597C23.0468 4.95948 23.0477 4.95914 23.049 4.95871C23.0516 4.95783 23.0554 4.95653 23.0604 4.95483C23.0703 4.95142 23.0849 4.94642 23.1036 4.94001C23.1409 4.92718 23.1945 4.90868 23.2597 4.88601C23.39 4.84067 23.5665 4.77856 23.7516 4.71153C23.9366 4.64455 24.1308 4.57241 24.296 4.50705C24.458 4.44294 24.601 4.38195 24.6776 4.33752L24.5522 4.12126ZM24.6751 4.43387C24.7054 4.40076 24.7344 4.36906 24.7575 4.34243C24.7775 4.31938 24.8032 4.28892 24.8177 4.26155C24.8217 4.25394 24.8285 4.24002 24.8325 4.22225C24.8359 4.20715 24.8425 4.1658 24.8162 4.12359C24.7868 4.07626 24.7401 4.06501 24.7164 4.06299C24.6937 4.06106 24.675 4.06528 24.6658 4.06768C24.6321 4.07643 24.5911 4.09871 24.5522 4.12126L24.6776 4.33752C24.6971 4.32623 24.7114 4.31849 24.7216 4.3135C24.7333 4.3077 24.7342 4.30819 24.7287 4.30963C24.7267 4.31016 24.7136 4.31366 24.6952 4.31209C24.6758 4.31044 24.632 4.30063 24.604 4.25578C24.5793 4.21604 24.5862 4.17818 24.5886 4.16754C24.5915 4.15424 24.5961 4.14574 24.5968 4.14445C24.5979 4.14236 24.5921 4.15159 24.5686 4.17869C24.5482 4.2022 24.5218 4.2311 24.4907 4.26508L24.6751 4.43387ZM24.4478 4.70108C24.5091 4.61548 24.5978 4.51835 24.6751 4.43387L24.4907 4.26508C24.4161 4.34663 24.3164 4.45531 24.2446 4.55544L24.4478 4.70108ZM24.6519 4.36344C24.5207 4.44915 24.4057 4.52405 24.3374 4.55917C24.3205 4.56782 24.3115 4.57143 24.3085 4.5724C24.3068 4.57293 24.3113 4.57125 24.3198 4.57048C24.3256 4.56995 24.3523 4.56783 24.3822 4.58473C24.4212 4.60675 24.4385 4.64477 24.4411 4.67588C24.4432 4.69973 24.4368 4.71599 24.4361 4.71784C24.4341 4.72307 24.4349 4.71901 24.4478 4.70108L24.2446 4.55544C24.2291 4.57707 24.2123 4.60291 24.2022 4.62952C24.1975 4.64206 24.1894 4.66688 24.1921 4.69731C24.1953 4.735 24.2154 4.7776 24.2592 4.80237C24.294 4.82201 24.3276 4.8208 24.3423 4.81947C24.3596 4.8179 24.3748 4.81371 24.3856 4.81019C24.4077 4.80305 24.4307 4.7923 24.4516 4.78152C24.5346 4.73889 24.6633 4.65459 24.7886 4.57276L24.6519 4.36344ZM25.0473 4.11883C24.9378 4.17658 24.7873 4.27506 24.6519 4.36344L24.7886 4.57276C24.9282 4.4816 25.0672 4.39096 25.1639 4.33995L25.0473 4.11883ZM24.9463 4.72539C25.0363 4.65244 25.1769 4.50601 25.2589 4.3953C25.2797 4.36726 25.2995 4.33787 25.314 4.31007C25.3212 4.29624 25.3288 4.27959 25.3341 4.26147C25.3388 4.24557 25.3456 4.21566 25.3382 4.18107C25.3288 4.13775 25.2992 4.09915 25.2537 4.08095C25.2176 4.0665 25.1839 4.07002 25.1655 4.07321C25.1273 4.07985 25.0863 4.09827 25.0473 4.11883L25.1639 4.33995C25.1988 4.32155 25.2109 4.31908 25.2083 4.31952C25.2078 4.31961 25.1875 4.3237 25.1609 4.31308C25.125 4.2987 25.101 4.26717 25.0938 4.23373C25.0885 4.20903 25.094 4.19184 25.0942 4.19104C25.0951 4.18803 25.0952 4.18889 25.0923 4.19455C25.0864 4.20571 25.0753 4.22318 25.058 4.24649C24.9879 4.3412 24.8617 4.47214 24.7889 4.53113L24.9463 4.72539ZM25.3673 4.39385C25.2923 4.44626 25.127 4.50783 24.9926 4.5396C24.9605 4.54719 24.9326 4.55246 24.9106 4.55537C24.8863 4.55858 24.8769 4.5578 24.878 4.55795C24.879 4.55808 24.8825 4.55859 24.8875 4.56011C24.8923 4.56157 24.9012 4.56475 24.9116 4.57147C24.9369 4.58782 24.9642 4.62244 24.9626 4.67028C24.9613 4.70532 24.9445 4.72583 24.9434 4.72717C24.9403 4.73115 24.9398 4.7306 24.9463 4.72539L24.7889 4.53113C24.775 4.54242 24.7597 4.5563 24.7468 4.57278C24.7359 4.58661 24.7142 4.61769 24.7127 4.6615C24.7107 4.7181 24.7423 4.75967 24.7757 4.78131C24.8027 4.79876 24.8302 4.80381 24.8452 4.80579C24.8774 4.81005 24.9131 4.80721 24.9434 4.80321C24.976 4.7989 25.0124 4.7918 25.0501 4.7829C25.1948 4.74869 25.3967 4.67831 25.5105 4.59877L25.3673 4.39385ZM25.4442 4.78666C25.4952 4.71843 25.5596 4.63277 25.592 4.57642C25.6 4.56247 25.6103 4.54333 25.6169 4.52308C25.62 4.51361 25.6254 4.49507 25.625 4.4723C25.6246 4.44894 25.617 4.40217 25.5728 4.369C25.5324 4.3386 25.4896 4.34171 25.4724 4.34427C25.453 4.34718 25.437 4.35365 25.4274 4.35804C25.4072 4.3672 25.3866 4.38037 25.3673 4.39385L25.5105 4.59878C25.5259 4.58798 25.5317 4.58522 25.5308 4.58563C25.5308 4.58565 25.5227 4.58954 25.5094 4.59153C25.4983 4.59318 25.4601 4.59702 25.4226 4.56886C25.3815 4.53794 25.3753 4.49492 25.375 4.47668C25.3747 4.45903 25.3788 4.44699 25.3793 4.44523C25.3809 4.44041 25.3812 4.4416 25.3753 4.45173C25.3523 4.49167 25.2998 4.56231 25.244 4.63696L25.4442 4.78666ZM25.355 4.90969C25.372 4.88333 25.4046 4.83969 25.4442 4.78666L25.244 4.63695C25.207 4.6865 25.168 4.73852 25.1452 4.77374L25.355 4.90969ZM25.3518 4.9146L25.355 4.9097L25.1452 4.77372L25.142 4.77862L25.3518 4.9146ZM25.3256 4.8701C25.3056 4.8701 25.2902 4.86958 25.2783 4.86869C25.2662 4.86778 25.2602 4.86664 25.2584 4.86621C25.2559 4.8656 25.2641 4.86704 25.2756 4.87501C25.2819 4.87936 25.2895 4.88588 25.2966 4.8952C25.3039 4.90471 25.3095 4.91556 25.3129 4.92708C25.3197 4.94967 25.3164 4.96711 25.315 4.9727C25.3137 4.97819 25.3125 4.97923 25.3153 4.97378C25.3178 4.96884 25.3219 4.96168 25.3284 4.95115C25.3349 4.94071 25.3425 4.92898 25.3518 4.91461L25.142 4.77862C25.1252 4.80455 25.1057 4.83437 25.0922 4.86092C25.0825 4.88011 25.0545 4.93594 25.0735 4.99914C25.0971 5.07741 25.1676 5.10149 25.2 5.10928C25.2366 5.11808 25.2805 5.1201 25.3256 5.1201V4.8701ZM24.8676 5.41194C24.9362 5.51646 24.9362 5.51645 24.9362 5.51645C24.9362 5.51644 24.9362 5.51643 24.9362 5.51642C24.9362 5.5164 24.9363 5.51638 24.9363 5.51635C24.9364 5.51629 24.9366 5.5162 24.9367 5.51609C24.9371 5.51586 24.9376 5.51554 24.9382 5.51512C24.9395 5.51428 24.9413 5.51306 24.9437 5.51148C24.9485 5.50832 24.9554 5.50373 24.9641 5.49791C24.9815 5.48627 25.0061 5.46968 25.035 5.44979C25.0926 5.41016 25.1683 5.35677 25.2389 5.30292C25.3071 5.25098 25.3788 5.19234 25.4225 5.14312C25.4338 5.13028 25.4461 5.11497 25.4563 5.09804C25.4649 5.08371 25.4805 5.05474 25.4818 5.0173C25.4825 4.99641 25.4788 4.97137 25.4655 4.94658C25.4522 4.92161 25.4331 4.90403 25.4139 4.89256C25.3798 4.87209 25.3445 4.8701 25.3256 4.8701V5.1201C25.3254 5.1201 25.3217 5.12012 25.3157 5.11893C25.3099 5.1178 25.2986 5.11488 25.2854 5.107C25.2714 5.09858 25.2559 5.08477 25.245 5.06422C25.2341 5.04386 25.2314 5.02391 25.2319 5.00872C25.2324 4.99436 25.2357 4.98384 25.2377 4.97856C25.2398 4.97304 25.2417 4.96978 25.2421 4.9691C25.2428 4.96804 25.2413 4.97064 25.2353 4.97734C25.2097 5.00628 25.1559 5.05185 25.0873 5.10412C25.0213 5.15448 24.9493 5.2053 24.8933 5.24383C24.8654 5.26302 24.8417 5.279 24.825 5.29015C24.8167 5.29573 24.8101 5.30009 24.8057 5.30304C24.8035 5.30451 24.8018 5.30563 24.8006 5.30637C24.8001 5.30674 24.7997 5.30701 24.7994 5.30719C24.7993 5.30728 24.7992 5.30734 24.7991 5.30738C24.7991 5.3074 24.799 5.30741 24.799 5.30742C24.799 5.30742 24.799 5.30742 24.799 5.30743C24.799 5.30742 24.799 5.30742 24.8676 5.41194ZM24.9709 5.73457C25.0218 5.65993 25.0549 5.59495 25.0689 5.53705C25.0835 5.47692 25.0802 5.40862 25.0346 5.35387C24.9934 5.30454 24.9384 5.29208 24.9106 5.2884C24.8949 5.28631 24.8812 5.28615 24.8714 5.28646C24.8664 5.28661 24.8621 5.28691 24.8587 5.2872C24.857 5.28736 24.8555 5.28751 24.8542 5.28765C24.8536 5.28773 24.853 5.2878 24.8524 5.28786C24.8522 5.2879 24.8519 5.28793 24.8517 5.28796C24.8516 5.28797 24.8514 5.28799 24.8513 5.288C24.8513 5.28801 24.8512 5.28802 24.8512 5.28803C24.8511 5.28804 24.851 5.28805 24.8676 5.41194C24.8842 5.53583 24.8841 5.53584 24.884 5.53585C24.884 5.53586 24.8839 5.53587 24.8839 5.53588C24.8838 5.53589 24.8837 5.5359 24.8836 5.53591C24.8834 5.53594 24.8832 5.53596 24.883 5.53598C24.8827 5.53603 24.8824 5.53607 24.8821 5.5361C24.8815 5.53616 24.881 5.53621 24.8806 5.53624C24.8799 5.53631 24.8795 5.53633 24.8793 5.53633C24.8791 5.53634 24.8787 5.53636 24.8778 5.53623C24.8771 5.53614 24.8732 5.53561 24.8674 5.53309C24.8613 5.53043 24.8516 5.52481 24.8426 5.51404C24.8206 5.48765 24.8291 5.46505 24.826 5.47823C24.8222 5.49363 24.8081 5.52958 24.7643 5.59371L24.9709 5.73457ZM23.8077 6.24681C24.0273 6.18005 24.2779 6.10387 24.4878 6.02343C24.5928 5.98322 24.691 5.94066 24.7717 5.89608C24.8485 5.85369 24.9255 5.80102 24.9709 5.73457L24.7643 5.59371C24.7539 5.60907 24.7212 5.63841 24.6509 5.67722C24.5845 5.71384 24.4984 5.75166 24.3984 5.78999C24.1983 5.86664 23.9567 5.9402 23.735 6.00762L23.8077 6.24681ZM23.2891 6.40989C23.2788 6.42932 23.2667 6.4361 23.2719 6.43235C23.2747 6.43042 23.2816 6.42607 23.2949 6.41955C23.3213 6.40658 23.3604 6.39086 23.4121 6.37247C23.515 6.33587 23.6531 6.29385 23.8077 6.24681L23.735 6.00762C23.5824 6.05403 23.438 6.09793 23.3283 6.13693C23.2737 6.15634 23.224 6.17585 23.1846 6.19519C23.1651 6.20482 23.145 6.21589 23.1271 6.22861C23.1117 6.23951 23.0855 6.26017 23.0683 6.29265L23.2891 6.40989ZM22.4302 6.72642C22.5449 6.70123 22.73 6.66064 22.8931 6.61421C22.9743 6.59109 23.0537 6.56549 23.1177 6.53835C23.1496 6.52484 23.181 6.50954 23.2081 6.49216C23.2318 6.47691 23.2674 6.45067 23.2891 6.40989L23.0683 6.29265C23.0775 6.27532 23.0867 6.273 23.073 6.28183C23.0625 6.28855 23.0453 6.29752 23.0202 6.30818C22.9702 6.32936 22.9022 6.35167 22.8246 6.37376C22.6701 6.41775 22.4925 6.45679 22.3766 6.48223L22.4302 6.72642ZM22.2896 6.50805C22.2904 6.50805 22.2968 6.508 22.3053 6.50925C22.309 6.5098 22.3194 6.51143 22.3318 6.51629C22.3382 6.51878 22.379 6.53419 22.4002 6.58128C22.4281 6.64331 22.3971 6.69417 22.3832 6.71118C22.3697 6.72775 22.3553 6.73651 22.3515 6.73884C22.3415 6.74493 22.333 6.74794 22.3323 6.74821C22.3274 6.75002 22.3269 6.74979 22.3387 6.74693C22.3573 6.74242 22.3883 6.7356 22.4302 6.72642L22.3766 6.48223C22.3362 6.4911 22.3017 6.49865 22.2797 6.50398C22.2712 6.50605 22.2566 6.50962 22.2449 6.51399C22.2424 6.51491 22.2327 6.51848 22.2219 6.52505C22.2176 6.52763 22.203 6.53661 22.1893 6.55338C22.1753 6.5706 22.1442 6.62164 22.1722 6.68383C22.1935 6.73109 22.2344 6.74664 22.2411 6.74926C22.2539 6.75424 22.2647 6.75597 22.269 6.75661C22.2787 6.75802 22.2867 6.75805 22.2896 6.75805V6.50805ZM22.3454 6.82755C22.3651 6.82755 22.3867 6.8262 22.4078 6.82131C22.4249 6.81732 22.463 6.80633 22.4919 6.77113C22.5305 6.72428 22.5275 6.66859 22.5114 6.63127C22.4986 6.60131 22.4781 6.58197 22.4668 6.57243C22.442 6.5514 22.4118 6.53643 22.386 6.52679C22.3598 6.51702 22.3255 6.50805 22.2896 6.50805V6.75805C22.2862 6.75805 22.2899 6.75777 22.2986 6.76103C22.3077 6.76442 22.3095 6.76682 22.3052 6.76317C22.3042 6.76232 22.2911 6.75166 22.2817 6.72985C22.2764 6.71758 22.2711 6.69861 22.2732 6.67523C22.2754 6.65058 22.2852 6.62886 22.2989 6.61225C22.3225 6.58356 22.3503 6.57801 22.3511 6.57782C22.3558 6.57672 22.3551 6.57755 22.3454 6.57755V6.82755ZM22.0215 6.75861C22.0543 6.87924 22.0543 6.87924 22.0543 6.87924C22.0543 6.87924 22.0543 6.87924 22.0542 6.87924C22.0542 6.87925 22.0542 6.87925 22.0542 6.87925C22.0542 6.87924 22.0543 6.87924 22.0543 6.87923C22.0543 6.87922 22.0544 6.87919 22.0546 6.87915C22.0549 6.87907 22.0554 6.87894 22.0561 6.87876C22.0574 6.8784 22.0595 6.87786 22.0622 6.87715C22.0676 6.87573 22.0756 6.87366 22.0857 6.87117C22.1058 6.86617 22.1339 6.85951 22.1652 6.85287C22.2311 6.83894 22.3009 6.82755 22.3454 6.82755V6.57755C22.2724 6.57755 22.1802 6.59418 22.1135 6.60828C22.0786 6.61566 22.0477 6.62301 22.0255 6.62853C22.0144 6.63129 22.0053 6.6336 21.999 6.63525C21.9959 6.63607 21.9934 6.63673 21.9917 6.6372C21.9908 6.63743 21.9901 6.63761 21.9896 6.63774C21.9894 6.63781 21.9892 6.63786 21.989 6.6379C21.989 6.63792 21.9889 6.63794 21.9888 6.63795C21.9888 6.63796 21.9888 6.63796 21.9888 6.63797C21.9888 6.63797 21.9888 6.63797 21.9888 6.63797C21.9888 6.63798 21.9887 6.63798 22.0215 6.75861ZM22.1176 6.96914C22.1495 6.93082 22.1758 6.89027 22.1878 6.8471C22.2014 6.79812 22.1967 6.74114 22.1583 6.69501C22.1264 6.65657 22.0853 6.64374 22.066 6.63911C22.0546 6.63638 22.0447 6.63506 22.0375 6.63439C22.0338 6.63405 22.0305 6.63386 22.0279 6.63375C22.0265 6.63369 22.0253 6.63366 22.0243 6.63364C22.0237 6.63363 22.0233 6.63362 22.0228 6.63361C22.0226 6.63361 22.0223 6.63361 22.0221 6.63361C22.022 6.63361 22.0219 6.63361 22.0218 6.63361C22.0218 6.63361 22.0217 6.63361 22.0217 6.63361C22.0216 6.63361 22.0215 6.63361 22.0215 6.75861C22.0215 6.88361 22.0214 6.88361 22.0214 6.88361C22.0213 6.88361 22.0213 6.88361 22.0212 6.88361C22.0211 6.88361 22.021 6.88361 22.0209 6.88361C22.0207 6.88361 22.0206 6.8836 22.0204 6.8836C22.02 6.8836 22.0197 6.88359 22.0194 6.88359C22.0187 6.88357 22.0181 6.88356 22.0175 6.88353C22.0164 6.88349 22.0154 6.88342 22.0144 6.88333C22.0127 6.88317 22.0104 6.88288 22.0075 6.88218C22.0053 6.88164 21.9845 6.87697 21.9661 6.85486C21.9557 6.84236 21.9486 6.82709 21.9459 6.811C21.9434 6.7958 21.9456 6.78476 21.9469 6.78032C21.9487 6.77388 21.9478 6.7823 21.9254 6.80929L22.1176 6.96914ZM21.8008 7.05919C21.8306 7.06242 21.8835 7.06869 21.9373 7.06224C21.9934 7.05551 22.0641 7.03345 22.1176 6.96914L21.9254 6.80929C21.9253 6.80943 21.9252 6.80947 21.9252 6.80946C21.9253 6.80945 21.9253 6.80944 21.9253 6.80945C21.9252 6.80946 21.9252 6.80952 21.925 6.80963C21.9248 6.80975 21.9244 6.80993 21.9239 6.81016C21.9218 6.81117 21.9168 6.81291 21.9075 6.81402C21.8867 6.81652 21.862 6.81436 21.8278 6.81065L21.8008 7.05919ZM21.8838 6.93981C21.875 6.92926 21.8688 6.92123 21.8645 6.91528C21.86 6.90904 21.8589 6.90678 21.8594 6.90765C21.8597 6.90822 21.8608 6.91056 21.8622 6.91441C21.8635 6.91815 21.8655 6.92485 21.8666 6.93386C21.8689 6.95335 21.8665 6.9859 21.8428 7.01586C21.8215 7.04283 21.7955 7.05139 21.7857 7.05396C21.78 7.05544 21.7757 7.05598 21.7735 7.0562C21.7724 7.05632 21.7715 7.05637 21.771 7.0564C21.7707 7.05641 21.7705 7.05641 21.7703 7.05642C21.7702 7.05642 21.7701 7.05642 21.7701 7.05642C21.7701 7.05642 21.7703 7.05642 21.7708 7.05643C21.7712 7.05644 21.7718 7.05647 21.7726 7.05651C21.7742 7.05659 21.7764 7.05674 21.7792 7.05698C21.785 7.05748 21.7917 7.0582 21.8008 7.05919L21.8278 6.81065C21.8131 6.80905 21.7895 6.80631 21.7688 6.80642C21.7581 6.80648 21.7412 6.8072 21.7225 6.81207C21.7043 6.81681 21.672 6.8288 21.6467 6.86082C21.619 6.89583 21.615 6.93506 21.6183 6.96323C21.6213 6.98858 21.6304 7.0091 21.637 7.0219C21.6503 7.0478 21.6705 7.07435 21.6917 7.09983L21.8838 6.93981ZM21.983 7.21585C22.0046 7.18311 22.0064 7.14937 22.0037 7.12724C22.0013 7.10668 21.9946 7.09062 21.9904 7.08174C21.9821 7.06404 21.9708 7.04807 21.9627 7.03705C21.9452 7.01346 21.9178 6.98063 21.8838 6.93981L21.6917 7.09983C21.7283 7.14382 21.7497 7.16952 21.7617 7.18578C21.7683 7.19468 21.7669 7.19396 21.764 7.18778C21.7626 7.18467 21.7575 7.17345 21.7555 7.1569C21.7533 7.13879 21.7545 7.10826 21.7744 7.07803L21.983 7.21585ZM21.7304 7.2646C21.764 7.2646 21.7917 7.26831 21.8175 7.27168C21.8278 7.27303 21.8459 7.27552 21.8621 7.27579C21.8702 7.27593 21.8861 7.27582 21.9042 7.27123C21.9221 7.2667 21.958 7.25371 21.983 7.21585L21.7744 7.07803C21.7975 7.04315 21.8299 7.03215 21.843 7.02886C21.8563 7.02549 21.8659 7.02582 21.8664 7.02583C21.8681 7.02586 21.8678 7.02595 21.8642 7.02556C21.8607 7.02519 21.8563 7.02463 21.8499 7.02379C21.8248 7.02051 21.7823 7.0146 21.7304 7.0146V7.2646ZM21.4516 7.20262C21.5301 7.22915 21.6309 7.2646 21.7304 7.2646V7.0146C21.6802 7.0146 21.6211 6.99599 21.5317 6.96578L21.4516 7.20262ZM21.2001 7.14482C21.2772 7.14482 21.3553 7.17006 21.4516 7.20262L21.5317 6.96578C21.4424 6.93561 21.3252 6.89482 21.2001 6.89482V7.14482ZM21.3806 7.09171C21.3512 7.07425 21.3201 7.0557 21.2918 7.03726C21.262 7.01791 21.2421 7.00292 21.2322 6.99341C21.2265 6.98796 21.2312 6.991 21.2368 7.00198C21.2427 7.01362 21.2589 7.05589 21.2315 7.10198C21.2199 7.12154 21.2051 7.13265 21.1956 7.13825C21.1864 7.14368 21.1795 7.14549 21.1781 7.14583C21.1761 7.14636 21.1816 7.14482 21.2001 7.14482V6.89482C21.1724 6.89482 21.1433 6.89672 21.1165 6.90356C21.0939 6.90929 21.0458 6.9252 21.0166 6.9743C20.9824 7.03181 21 7.08777 21.0137 7.11477C21.027 7.1411 21.0459 7.16117 21.0591 7.17383C21.1098 7.22241 21.2007 7.27557 21.2527 7.30655L21.3806 7.09171ZM21.3948 7.1002C21.3902 7.09743 21.3854 7.09458 21.3806 7.09171L21.2527 7.30655C21.2576 7.30944 21.2622 7.3122 21.2667 7.31488L21.3948 7.1002ZM21.2035 7.3936C21.2495 7.39373 21.2897 7.39386 21.3211 7.39291C21.3458 7.39215 21.386 7.39074 21.4185 7.37909C21.4303 7.37485 21.4892 7.35301 21.5066 7.28507C21.5238 7.21757 21.4832 7.17025 21.475 7.16087C21.4521 7.13478 21.4175 7.11371 21.3948 7.1002L21.2667 7.31488C21.2784 7.32184 21.2859 7.32673 21.2906 7.33C21.2965 7.33422 21.2929 7.33249 21.2868 7.32552C21.2862 7.32481 21.2486 7.28469 21.2643 7.22318C21.2802 7.16123 21.3329 7.14418 21.3341 7.14375C21.3431 7.14055 21.3473 7.14075 21.3403 7.1415C21.335 7.14207 21.3264 7.14263 21.3134 7.14302C21.2873 7.14382 21.2519 7.14374 21.2043 7.1436L21.2035 7.3936ZM21.1429 7.39349C21.1645 7.39349 21.1847 7.39354 21.2035 7.3936L21.2043 7.1436C21.1854 7.14354 21.1649 7.14349 21.1429 7.14349V7.39349ZM20.9097 7.37527C20.9478 7.38178 21.0176 7.39349 21.1429 7.39349V7.14349C21.036 7.14349 20.9809 7.13381 20.9519 7.12885L20.9097 7.37527ZM21.0173 7.26849C21.0173 7.26108 21.0182 7.27321 21.0138 7.28883C21.0111 7.29881 21.0051 7.31487 20.9917 7.33108C20.9775 7.34835 20.9599 7.35974 20.9427 7.36624C20.9273 7.37212 20.9144 7.37319 20.9082 7.37344C20.9019 7.37369 20.8976 7.37323 20.8972 7.37319C20.8965 7.37312 20.897 7.37315 20.8995 7.37356C20.9021 7.37395 20.9051 7.37447 20.9097 7.37527L20.9519 7.12885C20.9449 7.12764 20.9332 7.12557 20.9227 7.1245C20.9163 7.12384 20.8865 7.1202 20.854 7.13252C20.8059 7.15079 20.7818 7.18997 20.773 7.22189C20.7669 7.2437 20.7673 7.26438 20.7673 7.26849H21.0173ZM20.6581 7.34079C20.7089 7.35864 20.7622 7.37741 20.8026 7.38842C20.821 7.39345 20.8472 7.39988 20.8725 7.40079C20.8833 7.40117 20.9111 7.40159 20.9408 7.38786C20.9577 7.38006 20.9785 7.36614 20.9946 7.34239C21.0113 7.31794 21.0173 7.29145 21.0173 7.26849H20.7673C20.7673 7.24828 20.7727 7.22414 20.788 7.20164C20.8029 7.17985 20.8217 7.1675 20.836 7.1609C20.8605 7.14957 20.8806 7.15092 20.8815 7.15095C20.8871 7.15115 20.8849 7.15173 20.8683 7.14721C20.8386 7.13913 20.7954 7.12404 20.741 7.10492L20.6581 7.34079ZM20.3927 7.2646C20.4077 7.2646 20.4418 7.27077 20.496 7.28677C20.5468 7.30173 20.6029 7.32142 20.6581 7.34079L20.741 7.10492C20.6871 7.08601 20.6247 7.06407 20.5667 7.04697C20.5123 7.03091 20.4474 7.0146 20.3927 7.0146V7.2646ZM20.6834 7.37833C20.7443 7.26917 20.7443 7.26917 20.7443 7.26917C20.7443 7.26917 20.7443 7.26917 20.7443 7.26917C20.7443 7.26917 20.7443 7.26916 20.7443 7.26916C20.7443 7.26914 20.7442 7.26911 20.7441 7.26906C20.744 7.26897 20.7437 7.26882 20.7433 7.26862C20.7426 7.26821 20.7415 7.26759 20.7401 7.26677C20.7371 7.26512 20.7328 7.26266 20.7273 7.25952C20.7163 7.25322 20.7006 7.24419 20.6822 7.23334C20.6451 7.21148 20.5981 7.18292 20.5558 7.15485C20.5099 7.12437 20.4812 7.10189 20.4718 7.09174C20.47 7.0898 20.4737 7.0933 20.4782 7.10159C20.4812 7.10706 20.4968 7.13609 20.4879 7.17652C20.477 7.22651 20.4399 7.25033 20.4195 7.25844C20.41 7.26221 20.4025 7.26355 20.3989 7.26406C20.395 7.26461 20.3927 7.2646 20.3927 7.2646V7.0146C20.3778 7.0146 20.3531 7.01583 20.3272 7.02611C20.298 7.03772 20.256 7.06668 20.2437 7.12319C20.2334 7.17014 20.251 7.2071 20.259 7.22167C20.2685 7.23905 20.2801 7.25281 20.2888 7.26205C20.321 7.29667 20.3735 7.33387 20.4175 7.36308C20.465 7.39468 20.5164 7.42581 20.5552 7.44871C20.5748 7.46024 20.5915 7.46986 20.6033 7.47662C20.6093 7.48 20.614 7.48267 20.6173 7.48452C20.6189 7.48545 20.6202 7.48617 20.6211 7.48667C20.6215 7.48691 20.6219 7.48711 20.6221 7.48725C20.6222 7.48731 20.6223 7.48737 20.6224 7.48741C20.6224 7.48743 20.6225 7.48744 20.6225 7.48746C20.6225 7.48746 20.6225 7.48747 20.6225 7.48747C20.6225 7.48748 20.6225 7.48748 20.6834 7.37833ZM20.2928 7.3843C20.359 7.41119 20.4498 7.44007 20.5208 7.46148C20.557 7.47238 20.5893 7.4817 20.6126 7.48831C20.6242 7.49161 20.6336 7.49424 20.6402 7.49605C20.6434 7.49696 20.646 7.49767 20.6477 7.49815C20.6486 7.49839 20.6493 7.49858 20.6498 7.49871C20.65 7.49877 20.6502 7.49882 20.6503 7.49885C20.6504 7.49887 20.6504 7.49889 20.6505 7.4989C20.6505 7.4989 20.6505 7.49891 20.6505 7.49891C20.6505 7.49891 20.6505 7.49891 20.6505 7.49891C20.6505 7.49892 20.6505 7.49892 20.6834 7.37833C20.7163 7.25773 20.7163 7.25773 20.7163 7.25774C20.7163 7.25774 20.7163 7.25774 20.7163 7.25774C20.7163 7.25774 20.7163 7.25773 20.7163 7.25773C20.7163 7.25773 20.7163 7.25772 20.7162 7.25771C20.7161 7.25768 20.716 7.25765 20.7158 7.25759C20.7154 7.25749 20.7148 7.25733 20.7141 7.25711C20.7125 7.25668 20.7101 7.25603 20.7071 7.25518C20.7009 7.25348 20.692 7.25097 20.6809 7.24781C20.6586 7.24148 20.6276 7.23253 20.593 7.2221C20.5224 7.20085 20.4414 7.17481 20.3869 7.15268L20.2928 7.3843ZM20.5413 7.42165C20.5004 7.35989 20.4634 7.30384 20.4441 7.26686C20.4396 7.25816 20.4375 7.25331 20.4369 7.2516C20.4351 7.24682 20.4405 7.25824 20.44 7.27774C20.4398 7.2887 20.4375 7.31069 20.423 7.33418C20.4066 7.3607 20.3815 7.37785 20.3557 7.38529C20.3332 7.39176 20.3152 7.38959 20.3074 7.38825C20.299 7.38678 20.2937 7.38465 20.2928 7.3843L20.3869 7.15268C20.3751 7.14787 20.3341 7.13135 20.2865 7.14504C20.2567 7.15364 20.2287 7.17303 20.2103 7.20278C20.1938 7.22949 20.1905 7.25571 20.1901 7.2718C20.1894 7.30156 20.1981 7.32687 20.2026 7.33894C20.2083 7.35409 20.2154 7.36906 20.2224 7.38247C20.2493 7.43391 20.2952 7.50292 20.333 7.55983L20.5413 7.42165ZM20.5298 7.78857C20.5504 7.78857 20.5818 7.7836 20.6109 7.76042C20.6406 7.7368 20.6528 7.70628 20.6572 7.68413C20.6644 7.64795 20.6542 7.61779 20.6518 7.61044C20.6444 7.58775 20.6318 7.56474 20.6224 7.54844C20.6015 7.51234 20.5703 7.46535 20.5413 7.42165L20.333 7.55983C20.3638 7.60623 20.3898 7.64566 20.4059 7.67345C20.4149 7.68909 20.4156 7.6924 20.4142 7.68803C20.4136 7.68615 20.4121 7.68125 20.411 7.67421C20.41 7.66803 20.4084 7.65374 20.412 7.63555C20.4159 7.61584 20.4271 7.58718 20.4552 7.56482C20.4828 7.5429 20.512 7.53857 20.5298 7.53857V7.78857ZM20.3877 7.7476C20.4078 7.75574 20.4303 7.76489 20.45 7.77185C20.4636 7.7767 20.4967 7.78857 20.5298 7.78857V7.53857C20.5365 7.53857 20.5412 7.53927 20.5429 7.53955C20.5448 7.53987 20.5457 7.5401 20.545 7.53994C20.5435 7.53956 20.5399 7.53849 20.5334 7.53618C20.5201 7.53147 20.5033 7.5247 20.4815 7.51589L20.3877 7.7476ZM20.3662 7.61174C20.3662 7.62365 20.3633 7.64541 20.3475 7.66738C20.3315 7.6897 20.3108 7.70026 20.2967 7.70466C20.2841 7.70863 20.2754 7.7082 20.2747 7.70817C20.2734 7.70812 20.2749 7.70807 20.2799 7.70913C20.3042 7.71428 20.341 7.7287 20.3877 7.7476L20.4815 7.51589C20.4423 7.50001 20.3824 7.47527 20.3315 7.46453C20.3091 7.45978 20.2659 7.45234 20.222 7.46608C20.1965 7.47406 20.1668 7.49052 20.1445 7.52148C20.1225 7.55209 20.1162 7.58525 20.1162 7.61174H20.3662ZM20.4606 7.63791C20.4211 7.63791 20.3916 7.62714 20.3758 7.6164C20.3604 7.60593 20.3662 7.6029 20.3662 7.61174H20.1162C20.1162 7.70731 20.1714 7.77986 20.2355 7.8233C20.2991 7.86646 20.3793 7.88791 20.4606 7.88791V7.63791ZM20.5298 8.02337C20.594 8.02337 20.6503 7.98897 20.6781 7.93258C20.7024 7.88349 20.699 7.83134 20.6859 7.79158C20.6576 7.70552 20.5739 7.63791 20.4606 7.63791V7.88791C20.4679 7.88791 20.4545 7.88803 20.4484 7.86971C20.4465 7.86381 20.4423 7.84552 20.454 7.82183C20.4603 7.80901 20.4711 7.79569 20.4869 7.78598C20.5028 7.77626 20.5185 7.77337 20.5298 7.77337V8.02337ZM20.4102 8.0007C20.4333 8.00753 20.4831 8.02337 20.5298 8.02337V7.77337C20.5312 7.77337 20.528 7.77345 20.5175 7.77103C20.5074 7.7687 20.4962 7.76542 20.4809 7.7609L20.4102 8.0007ZM20.4649 7.89837C20.4649 7.90685 20.4623 7.93786 20.4336 7.96447C20.4071 7.98905 20.3791 7.99014 20.3742 7.99022C20.3685 7.99031 20.3681 7.98942 20.3773 7.99157C20.3857 7.99352 20.3956 7.9964 20.4102 8.0007L20.4809 7.7609C20.4613 7.75512 20.4132 7.73952 20.37 7.74025C20.3455 7.74067 20.3014 7.74614 20.2637 7.78111C20.2237 7.81812 20.2149 7.86554 20.2149 7.89837H20.4649ZM20.4785 7.89639C20.472 7.88921 20.4677 7.88446 20.464 7.88012C20.4605 7.87594 20.4592 7.87403 20.459 7.87365C20.4588 7.87342 20.4604 7.8758 20.4619 7.88041C20.4636 7.88537 20.4649 7.89158 20.4649 7.89837H20.2149C20.2149 7.98724 20.278 8.04754 20.2937 8.06474L20.4785 7.89639ZM20.5856 8.14364C20.5856 8.01116 20.5143 7.93568 20.4785 7.89639L20.2937 8.06474C20.3117 8.08449 20.3205 8.09485 20.3267 8.10617C20.3315 8.1148 20.3356 8.12552 20.3356 8.14364H20.5856ZM20.2342 8.14425C20.2124 8.17874 20.1715 8.26997 20.2431 8.34556C20.3011 8.40681 20.38 8.39463 20.4131 8.38502C20.4991 8.35997 20.5856 8.27441 20.5856 8.14364H20.3356C20.3356 8.15345 20.3322 8.14817 20.3432 8.14498C20.3462 8.14409 20.3545 8.14213 20.3669 8.1436C20.3787 8.145 20.4031 8.15087 20.4246 8.17363C20.4487 8.19905 20.4546 8.22994 20.4526 8.25185C20.451 8.2704 20.4443 8.27973 20.4455 8.27786L20.2342 8.14425ZM20.2604 8.00306C20.2604 8.01139 20.257 8.05643 20.2104 8.08409C20.1907 8.09578 20.1721 8.09826 20.1607 8.09839C20.1497 8.09851 20.1423 8.09651 20.1401 8.09585C20.136 8.09465 20.1384 8.09474 20.1471 8.10046C20.1549 8.10556 20.1645 8.11304 20.1748 8.12258C20.1966 8.14269 20.2133 8.16456 20.2212 8.18014C20.2251 8.18781 20.2242 8.18886 20.2237 8.18393C20.223 8.17782 20.2232 8.16171 20.2342 8.14425L20.4455 8.27786C20.4972 8.19608 20.4656 8.10956 20.4443 8.0674C20.4194 8.01805 20.3814 7.9731 20.3446 7.9391C20.3103 7.9073 20.2623 7.87136 20.2113 7.8562C20.188 7.84929 20.1352 7.83804 20.0829 7.86906C20.0221 7.90512 20.0104 7.96721 20.0104 8.00306H20.2604ZM20.2604 8.14364V8.00306H20.0104V8.14364H20.2604ZM20.1109 8.37968C20.1227 8.37639 20.1845 8.36346 20.2238 8.30409C20.2563 8.25512 20.2604 8.19471 20.2604 8.14364H20.0104C20.0104 8.16451 20.0092 8.17532 20.0084 8.17984C20.0075 8.18436 20.0081 8.17705 20.0155 8.16594C20.0193 8.16012 20.0243 8.15439 20.0303 8.14931C20.0362 8.14431 20.0417 8.14107 20.0456 8.13911C20.0493 8.13729 20.0516 8.13658 20.051 8.13678C20.0501 8.13708 20.0486 8.13752 20.0436 8.13891L20.1109 8.37968ZM20.091 8.38939C20.0935 8.38675 20.0951 8.38542 20.0959 8.38487C20.0966 8.38434 20.097 8.38413 20.0972 8.38401C20.0982 8.3835 20.0996 8.38283 20.1109 8.37968L20.0436 8.13891C20.0152 8.14685 19.9612 8.16201 19.9081 8.21905L20.091 8.38939ZM20.0672 8.42239C20.068 8.41883 20.068 8.41899 20.068 8.41926C20.0678 8.41978 20.0678 8.41959 20.0684 8.41842C20.0697 8.4159 20.0751 8.40649 20.091 8.38939L19.908 8.21905C19.8804 8.24875 19.8608 8.27607 19.847 8.30229C19.8325 8.33002 19.827 8.35191 19.8244 8.36276L20.0672 8.42239ZM19.9102 8.53563C19.919 8.53563 19.931 8.53546 19.9432 8.53401C19.9544 8.53267 19.9774 8.52909 20.0015 8.51499C20.0305 8.49801 20.0476 8.47397 20.0571 8.45291C20.061 8.44405 20.0634 8.43636 20.0647 8.43197C20.0659 8.42775 20.0669 8.42364 20.0672 8.42239L19.8244 8.36276C19.8225 8.37023 19.8244 8.36062 19.8291 8.35035C19.8364 8.33406 19.8507 8.3136 19.8751 8.29929C19.8946 8.28786 19.9114 8.28602 19.9136 8.28576C19.9167 8.28539 19.9169 8.28563 19.9102 8.28563V8.53563ZM19.733 8.40682C19.745 8.42488 19.7626 8.45208 19.7819 8.47349C19.7992 8.49278 19.8423 8.53563 19.9102 8.53563V8.28563C19.9317 8.28563 19.948 8.29273 19.9574 8.29845C19.9657 8.3035 19.9691 8.3078 19.9677 8.30627C19.9666 8.30503 19.9639 8.30174 19.959 8.29472C19.954 8.28776 19.9487 8.27964 19.9415 8.26882L19.733 8.40682ZM19.578 8.26159C19.6508 8.28712 19.6899 8.34172 19.733 8.40682L19.9415 8.26882C19.8997 8.20574 19.8207 8.0818 19.6607 8.02568L19.578 8.26159ZM19.6154 8.20692C19.6167 8.20027 19.6174 8.19714 19.618 8.19475C19.6186 8.19249 19.6183 8.19414 19.6168 8.19768C19.6153 8.20141 19.6116 8.20914 19.6044 8.21786C19.5967 8.22716 19.5865 8.23559 19.5744 8.24165C19.5513 8.25318 19.5343 8.24983 19.5387 8.25039C19.5423 8.25084 19.5539 8.25312 19.578 8.26159L19.6607 8.02568C19.6296 8.01476 19.599 8.00602 19.5701 8.00236C19.542 7.99881 19.5021 7.99826 19.4626 8.01806C19.419 8.03984 19.397 8.07531 19.386 8.10177C19.3768 8.12392 19.3723 8.14774 19.3705 8.15634L19.6154 8.20692ZM19.4921 8.40626C19.5892 8.33751 19.6068 8.24844 19.6154 8.20692L19.3705 8.15634C19.3667 8.17517 19.3649 8.18141 19.3623 8.18673C19.3608 8.18966 19.358 8.19488 19.3477 8.20218L19.4921 8.40626ZM19.4778 8.33209C19.474 8.32803 19.4724 8.32634 19.4713 8.32504C19.4703 8.32388 19.4715 8.32513 19.4734 8.32814C19.4778 8.3348 19.488 8.35391 19.4861 8.38104C19.4843 8.40687 19.4727 8.42133 19.4717 8.42255C19.471 8.42336 19.4755 8.41799 19.4921 8.40626L19.3477 8.20218C19.3222 8.22019 19.2981 8.24021 19.279 8.26329C19.2596 8.28679 19.2398 8.32041 19.2367 8.36353C19.2336 8.40795 19.2497 8.44248 19.2635 8.46392C19.2757 8.48274 19.291 8.49837 19.296 8.50363L19.4778 8.33209ZM19.5449 8.47983C19.5449 8.39603 19.4883 8.34315 19.4778 8.33209L19.296 8.50363C19.3002 8.50816 19.3022 8.51023 19.3037 8.51199C19.305 8.51353 19.3045 8.51314 19.3033 8.51128C19.3021 8.50928 19.2998 8.50527 19.298 8.49946C19.296 8.49343 19.2949 8.4867 19.2949 8.47983H19.5449ZM19.1478 8.30422C19.1478 8.3571 19.1661 8.40566 19.1844 8.44154C19.2036 8.47909 19.2285 8.5139 19.2537 8.54175C19.2749 8.56526 19.3102 8.59937 19.3537 8.61538C19.3741 8.6229 19.4312 8.63875 19.4861 8.59965C19.5403 8.56106 19.5449 8.50235 19.5449 8.47983H19.2949C19.2949 8.47597 19.2949 8.42893 19.341 8.39607C19.3878 8.3627 19.4335 8.37835 19.4401 8.38079C19.4509 8.38477 19.4549 8.38882 19.4513 8.38601C19.449 8.38417 19.4447 8.38027 19.439 8.374C19.4275 8.36123 19.4156 8.34444 19.4071 8.32794C19.3979 8.30976 19.3978 8.3018 19.3978 8.30422H19.1478ZM19.2307 8.14364C19.2307 8.15465 19.2272 8.1968 19.1856 8.22662C19.1475 8.25391 19.1104 8.24643 19.1033 8.24476C19.0933 8.24243 19.0897 8.23945 19.0933 8.24165C19.0958 8.2432 19.1005 8.24648 19.1066 8.25185C19.1191 8.2629 19.1316 8.2774 19.1401 8.2913C19.1496 8.30693 19.1478 8.31118 19.1478 8.30422H19.3978C19.3978 8.2468 19.3751 8.19642 19.3533 8.16082C19.3305 8.12349 19.3012 8.09017 19.2719 8.06435C19.2463 8.04178 19.2065 8.01218 19.1603 8.00136C19.1375 7.99601 19.0873 7.9895 19.0401 8.02333C18.9893 8.05969 18.9807 8.11398 18.9807 8.14364H19.2307ZM19.0197 8.42922C19.0629 8.42922 19.1072 8.41802 19.1453 8.38898C19.1823 8.36068 19.2022 8.32399 19.2129 8.29305C19.2321 8.23808 19.2307 8.1743 19.2307 8.14364H18.9807C18.9807 8.16314 18.9806 8.17792 18.9796 8.19118C18.9792 8.19746 18.9786 8.20224 18.978 8.20581C18.9773 8.20941 18.9768 8.21087 18.9769 8.21077C18.9769 8.21064 18.9806 8.20012 18.9935 8.19027C18.9998 8.18548 19.0063 8.18244 19.0118 8.18077C19.017 8.17918 19.0201 8.17922 19.0197 8.17922V8.42922ZM19.0995 8.37024C19.0998 8.3658 19.1 8.36308 19.1002 8.36073C19.1003 8.35847 19.1004 8.3579 19.1004 8.35832C19.1003 8.35873 19.0999 8.36123 19.0988 8.36501C19.0977 8.36885 19.0955 8.37484 19.0916 8.38185C19.0826 8.39792 19.068 8.41257 19.0493 8.42149C19.0331 8.42919 19.0209 8.42922 19.0197 8.42922V8.17922C18.9979 8.17922 18.97 8.18236 18.9418 8.19577C18.9111 8.2104 18.8882 8.23335 18.8734 8.25982C18.8601 8.28357 18.8554 8.30643 18.8533 8.3203C18.8512 8.33404 18.8504 8.34788 18.85 8.35479L19.0995 8.37024ZM18.9843 8.58433C19.0335 8.55209 19.0645 8.51063 19.0815 8.46569C19.0969 8.42513 19.0985 8.38638 19.0995 8.37025L18.85 8.35479C18.8494 8.3644 18.849 8.36913 18.8484 8.37331C18.8479 8.37692 18.8475 8.37774 18.8477 8.37711C18.8481 8.37617 18.8489 8.37471 18.8498 8.37348C18.8508 8.37231 18.8505 8.37312 18.8472 8.37532L18.9843 8.58433ZM18.7416 8.44745C18.7411 8.45496 18.7399 8.472 18.7407 8.48773C18.7411 8.49613 18.7423 8.51019 18.7471 8.52608C18.7519 8.54207 18.7625 8.56737 18.7868 8.58912C18.8431 8.63945 18.9082 8.62074 18.926 8.61462C18.9487 8.60679 18.9693 8.59418 18.9843 8.58433L18.8472 8.37532C18.8356 8.38291 18.8364 8.38105 18.8445 8.37826C18.8476 8.37719 18.9032 8.35783 18.9535 8.40276C18.9748 8.42182 18.9833 8.44323 18.9866 8.45429C18.9899 8.46524 18.9903 8.4733 18.9903 8.47476C18.9904 8.4766 18.9903 8.47601 18.9911 8.4631L18.7416 8.44745ZM18.733 8.38158C18.7418 8.39276 18.7442 8.40623 18.7416 8.44745L18.9911 8.4631C18.9934 8.42616 19.0033 8.32069 18.9294 8.22687L18.733 8.38158ZM18.7296 8.03623C18.7192 8.06073 18.6971 8.11154 18.6872 8.16767C18.6774 8.22288 18.675 8.30802 18.733 8.38158L18.9294 8.22687C18.9356 8.23473 18.9289 8.23619 18.9333 8.21121C18.9376 8.18716 18.9481 8.16128 18.9597 8.13408L18.7296 8.03623ZM18.9145 8.1622C18.9228 8.15475 18.9215 8.15672 18.9152 8.16063C18.913 8.162 18.9084 8.16472 18.9021 8.16752C18.8965 8.16997 18.8841 8.17499 18.8671 8.17684C18.8495 8.17876 18.8186 8.17803 18.7875 8.15813C18.7552 8.13752 18.7408 8.108 18.7351 8.08754C18.7298 8.06878 18.7304 8.05342 18.7309 8.04658C18.7314 8.03875 18.7327 8.03282 18.7333 8.0299C18.7346 8.02423 18.736 8.02085 18.7357 8.02172C18.7351 8.02333 18.7336 8.02682 18.7296 8.03623L18.9597 8.13408C18.9626 8.12709 18.9671 8.11669 18.9704 8.10762C18.9721 8.10315 18.9748 8.09522 18.977 8.0859C18.9778 8.08258 18.9853 8.05386 18.9758 8.02002C18.9698 7.99866 18.955 7.96848 18.9221 7.94747C18.8903 7.92717 18.8586 7.92629 18.84 7.92831C18.8088 7.93171 18.7867 7.94612 18.783 7.94847C18.7689 7.95723 18.7559 7.96863 18.7478 7.97585L18.9145 8.1622ZM18.5692 8.26864C18.6364 8.26865 18.791 8.27265 18.9145 8.1622L18.7478 7.97585C18.7044 8.01469 18.6462 8.01865 18.5693 8.01864L18.5692 8.26864ZM18.5664 8.26864H18.5693V8.01864H18.5664V8.26864ZM18.5729 8.28913C18.5787 8.28196 18.5833 8.2764 18.5879 8.27121C18.5925 8.26607 18.5957 8.26293 18.5977 8.26115C18.5999 8.25924 18.5989 8.26057 18.5946 8.26264C18.59 8.26488 18.5802 8.26864 18.5664 8.26864V8.01864C18.5036 8.01864 18.4579 8.05159 18.4343 8.07194C18.4094 8.0935 18.3891 8.11892 18.379 8.13128L18.5729 8.28913ZM18.3154 8.21105C18.3154 8.22232 18.3155 8.25049 18.3265 8.27855C18.3324 8.29373 18.348 8.32543 18.385 8.34601C18.4263 8.36905 18.467 8.36339 18.4913 8.35484C18.5129 8.34724 18.5278 8.33567 18.5345 8.3302C18.5423 8.32376 18.5485 8.31738 18.5525 8.31301C18.5603 8.30463 18.5682 8.29486 18.5729 8.28913L18.379 8.13128C18.3761 8.13485 18.374 8.1374 18.3722 8.1396C18.3713 8.14064 18.3707 8.14141 18.3702 8.14198C18.3697 8.14256 18.3695 8.14278 18.3695 8.14275C18.3695 8.14274 18.37 8.14224 18.3708 8.14143C18.3716 8.14064 18.3732 8.13917 18.3754 8.13733C18.3783 8.13494 18.3898 8.12554 18.4083 8.11902C18.4296 8.11154 18.4676 8.10586 18.5066 8.1276C18.5412 8.14687 18.5548 8.17599 18.5592 8.1871C18.567 8.20704 18.5654 8.2212 18.5654 8.21105H18.3154ZM18.7477 7.77337C18.5956 7.77337 18.4859 7.86004 18.4197 7.94626C18.3862 7.98987 18.361 8.03661 18.3439 8.08003C18.3276 8.12145 18.3154 8.16808 18.3154 8.21105H18.5654C18.5654 8.21224 18.5653 8.20896 18.5672 8.20078C18.569 8.1931 18.572 8.18316 18.5765 8.17163C18.5857 8.14834 18.5997 8.1223 18.6179 8.09852C18.6552 8.04994 18.6992 8.02337 18.7477 8.02337V7.77337ZM18.9767 7.69663C18.9429 7.71965 18.9168 7.73694 18.8837 7.75022C18.8521 7.76292 18.8098 7.77337 18.7477 7.77337V8.02337C18.9399 8.02337 19.0432 7.95371 19.1173 7.90337L18.9767 7.69663ZM19.0464 7.65286C19.02 7.66709 18.9956 7.68379 18.9767 7.69663L19.1173 7.90337C19.1383 7.8891 19.1519 7.88 19.1649 7.87296L19.0464 7.65286ZM18.9622 7.72274C18.9814 7.73268 18.9984 7.74235 19.0117 7.75135C19.0264 7.76119 19.0308 7.76626 19.0301 7.76547C19.0295 7.76466 19.0249 7.75901 19.0212 7.74851C19.0171 7.73702 19.0141 7.72004 19.0182 7.70048C19.0266 7.66048 19.0543 7.64858 19.0464 7.65286L19.1649 7.87296C19.1999 7.85411 19.2492 7.8173 19.2629 7.75156C19.2768 7.68507 19.2451 7.63364 19.2242 7.60784C19.1842 7.55867 19.1187 7.52221 19.0772 7.50074L18.9622 7.72274ZM18.9086 7.41538C18.8923 7.45052 18.8751 7.49695 18.8714 7.54439C18.8679 7.58862 18.8752 7.67768 18.9622 7.72274L19.0772 7.50074C19.0862 7.50541 19.0949 7.51209 19.1023 7.52063C19.1095 7.52902 19.114 7.53755 19.1167 7.54466C19.1216 7.55778 19.1205 7.56595 19.1207 7.56397C19.1207 7.56273 19.1214 7.55791 19.1241 7.54928C19.1266 7.54099 19.1304 7.5313 19.1353 7.52085L18.9086 7.41538ZM19.0816 7.57796C19.1115 7.56175 19.144 7.5404 19.1708 7.51315C19.1957 7.4878 19.2307 7.44189 19.2307 7.37833H18.9807C18.9807 7.36228 18.9853 7.3505 18.9885 7.34432C18.9915 7.33851 18.9939 7.3365 18.9926 7.33784C18.9914 7.33902 18.9884 7.34173 18.9829 7.34562C18.9775 7.34944 18.9707 7.35373 18.9623 7.35827L19.0816 7.57796ZM19.2307 7.37833C19.2307 7.36597 19.2298 7.3299 19.2053 7.29537C19.1909 7.27522 19.1694 7.25713 19.1411 7.24747C19.1141 7.23825 19.0896 7.23962 19.0722 7.24314C19.0412 7.24945 19.0196 7.26531 19.0109 7.27214C18.9997 7.28089 18.9903 7.29036 18.9831 7.29832C18.9558 7.32867 18.9286 7.37251 18.9086 7.41538L19.1353 7.52085C19.1479 7.4938 19.1625 7.47273 19.1689 7.46566C19.1701 7.46426 19.1687 7.46609 19.1646 7.46928C19.163 7.47054 19.1478 7.4829 19.1221 7.48813C19.1074 7.49111 19.0852 7.49255 19.0603 7.48404C19.0341 7.4751 19.0144 7.45837 19.0015 7.44027C18.9799 7.40986 18.9807 7.38068 18.9807 7.37833H19.2307ZM18.8312 7.65001C18.9058 7.65001 19.0077 7.61808 19.0816 7.57796L18.9623 7.35827C18.9127 7.38522 18.852 7.40001 18.8312 7.40001V7.65001ZM18.7343 7.32008C18.7183 7.3589 18.6964 7.41107 18.6875 7.45356C18.6837 7.47171 18.6758 7.51493 18.6938 7.55944C18.7045 7.58601 18.724 7.6119 18.7538 7.62949C18.7819 7.64606 18.8102 7.65001 18.8312 7.65001V7.40001C18.8407 7.40001 18.8598 7.40177 18.8809 7.41417C18.9036 7.42759 18.9181 7.44734 18.9256 7.46598C18.9323 7.48243 18.9325 7.49546 18.9325 7.4999C18.9324 7.50485 18.9318 7.50684 18.9323 7.50461C18.9333 7.49976 18.9362 7.48983 18.9425 7.47265C18.9487 7.45609 18.9564 7.43733 18.9656 7.41495L18.7343 7.32008ZM18.7907 7.1396C18.7907 7.1539 18.7865 7.17777 18.7752 7.21277C18.7643 7.24666 18.7498 7.28227 18.7343 7.32008L18.9656 7.41495C18.9804 7.37879 18.9988 7.33415 19.0132 7.28944C19.0272 7.24583 19.0407 7.19273 19.0407 7.1396H18.7907ZM18.8153 6.95327C18.8065 6.99187 18.7907 7.05993 18.7907 7.1396H19.0407C19.0407 7.09082 19.0503 7.04721 19.0591 7.0086L18.8153 6.95327ZM18.9882 7.03846C18.9907 7.03674 18.9903 7.03715 18.9879 7.03846C18.9866 7.0392 18.9773 7.04435 18.9627 7.04747C18.9483 7.05058 18.9139 7.05459 18.8778 7.03299C18.8408 7.01083 18.8278 6.97732 18.8236 6.96083C18.8197 6.94513 18.8203 6.93331 18.8205 6.93116C18.8206 6.92772 18.821 6.92631 18.8206 6.92829C18.8199 6.93271 18.8184 6.93954 18.8153 6.95327L19.0591 7.0086C19.0616 6.99737 19.065 6.98285 19.0671 6.9701C19.0682 6.96376 19.0744 6.93234 19.0659 6.89924C19.0607 6.87867 19.0459 6.84226 19.0062 6.81848C18.9674 6.79526 18.9295 6.79892 18.9103 6.80303C18.8777 6.81002 18.8522 6.82844 18.8433 6.83479L18.9882 7.03846ZM18.4331 7.03209C18.517 7.04441 18.625 7.06033 18.7183 7.06879C18.7646 7.07299 18.8109 7.07572 18.8506 7.07467C18.8704 7.07415 18.8916 7.07264 18.9119 7.0689C18.9294 7.06569 18.96 7.05856 18.9882 7.03846L18.8433 6.83479C18.8598 6.82298 18.8725 6.82197 18.8668 6.82302C18.8639 6.82354 18.8568 6.82442 18.844 6.82476C18.8187 6.82543 18.7836 6.82369 18.7408 6.81981C18.6558 6.81209 18.555 6.79731 18.4694 6.78474L18.4331 7.03209ZM18.2991 7.01421C18.2979 7.01421 18.3005 7.01421 18.3092 7.01508C18.317 7.01587 18.3271 7.01708 18.3396 7.01874C18.3648 7.02206 18.3965 7.02671 18.4331 7.03209L18.4694 6.78474C18.4334 6.77946 18.3997 6.7745 18.3723 6.77089C18.3479 6.76767 18.3195 6.76421 18.2991 6.76421V7.01421ZM18.2068 6.73246C18.1963 6.75313 18.1771 6.78998 18.1675 6.82224C18.1639 6.83443 18.1524 6.8735 18.1655 6.9169C18.1737 6.94377 18.1914 6.9723 18.2221 6.99206C18.2506 7.01044 18.2796 7.01421 18.2991 7.01421V6.76421C18.3107 6.76421 18.3335 6.76642 18.3574 6.78186C18.3836 6.79868 18.3983 6.82289 18.4048 6.84428C18.4105 6.86305 18.4095 6.87787 18.4089 6.88352C18.4085 6.88695 18.4081 6.88949 18.4077 6.89095C18.4074 6.89244 18.4072 6.89332 18.4071 6.89349C18.407 6.89369 18.4074 6.8925 18.4086 6.88957C18.4097 6.88675 18.4113 6.88312 18.4134 6.87856C18.4178 6.86912 18.4232 6.85859 18.4297 6.84568L18.2068 6.73246ZM18.352 6.81578C18.3586 6.81272 18.3599 6.81262 18.3574 6.8133C18.3565 6.81354 18.3419 6.81774 18.3206 6.81413C18.2938 6.80959 18.261 6.79287 18.2412 6.75794C18.2251 6.72957 18.2266 6.70425 18.2271 6.69727C18.2283 6.68405 18.2318 6.67986 18.2259 6.69345C18.2214 6.70361 18.2152 6.7159 18.2068 6.73246L18.4297 6.84568C18.4373 6.83082 18.447 6.81174 18.4549 6.79373C18.4613 6.77916 18.4736 6.75 18.4763 6.71817C18.4776 6.70188 18.478 6.66884 18.4587 6.63474C18.4357 6.59406 18.3974 6.57358 18.3624 6.56765C18.3329 6.56265 18.3075 6.56785 18.2926 6.57184C18.2761 6.57627 18.2603 6.58269 18.2461 6.58932L18.352 6.81578ZM17.7372 6.88405C17.82 6.88486 17.9323 6.886 18.0408 6.87891C18.1449 6.8721 18.2641 6.85689 18.352 6.81578L18.2461 6.58932C18.2042 6.6089 18.1266 6.62276 18.0245 6.62944C17.9268 6.63583 17.8237 6.63488 17.7396 6.63406L17.7372 6.88405ZM17.6726 6.88361C17.6913 6.88361 17.7128 6.88382 17.7372 6.88405L17.7396 6.63406C17.7156 6.63383 17.6927 6.63361 17.6726 6.63361V6.88361ZM17.586 6.56226C17.5774 6.57154 17.5635 6.58657 17.5505 6.6029C17.5387 6.61761 17.5204 6.64224 17.5088 6.67174C17.4983 6.69849 17.4789 6.77067 17.5355 6.83169C17.5807 6.88028 17.6431 6.88361 17.6726 6.88361V6.63361C17.6672 6.63361 17.6697 6.63301 17.6767 6.63495C17.6836 6.63688 17.7017 6.64319 17.7188 6.66161C17.7378 6.68205 17.7459 6.70693 17.7468 6.72828C17.7475 6.74672 17.743 6.75935 17.7415 6.76309C17.739 6.76957 17.738 6.76873 17.7459 6.75887C17.7524 6.75062 17.7604 6.74197 17.7698 6.73177L17.586 6.56226ZM17.7319 6.74306C17.7412 6.73809 17.7396 6.73945 17.7333 6.7417C17.7311 6.74247 17.7262 6.74412 17.7196 6.74551C17.7144 6.7466 17.6996 6.74942 17.6806 6.74712C17.661 6.74475 17.6202 6.73434 17.5925 6.69292C17.5663 6.65375 17.5709 6.6148 17.574 6.59969C17.5773 6.58328 17.5832 6.57166 17.5854 6.56737C17.5883 6.56199 17.5909 6.55814 17.5921 6.55637C17.5945 6.55287 17.5962 6.55101 17.5955 6.55179C17.5943 6.55326 17.5918 6.55596 17.586 6.56226L17.7698 6.73177C17.7742 6.72695 17.7807 6.7199 17.7861 6.71362C17.7887 6.71052 17.7931 6.70527 17.7974 6.69898C17.7984 6.69755 17.8133 6.67767 17.819 6.64904C17.8222 6.63314 17.8268 6.59357 17.8003 6.55395C17.7723 6.51208 17.7309 6.50139 17.7106 6.49892C17.6777 6.49495 17.6513 6.50553 17.6499 6.50603C17.6359 6.51097 17.6221 6.51825 17.6132 6.52304L17.7319 6.74306ZM17.3619 6.82755C17.4868 6.82755 17.6082 6.80981 17.7319 6.74306L17.6132 6.52304C17.5377 6.56379 17.4611 6.57755 17.3619 6.57755V6.82755ZM17.1726 6.71166C17.1784 6.72178 17.1965 6.75622 17.2291 6.78306C17.2676 6.81468 17.3137 6.82755 17.3619 6.82755V6.57755C17.3596 6.57755 17.3625 6.57726 17.3685 6.57918C17.375 6.58128 17.3818 6.58495 17.3878 6.58986C17.3905 6.5921 17.3926 6.59416 17.3939 6.59567C17.3946 6.59642 17.395 6.59702 17.3953 6.59742C17.3955 6.59762 17.3956 6.59778 17.3957 6.59788C17.3958 6.59799 17.3958 6.59804 17.3958 6.59804C17.3958 6.59804 17.3958 6.59799 17.3957 6.59789C17.3956 6.59778 17.3955 6.59762 17.3954 6.5974C17.3951 6.59696 17.3947 6.59633 17.3942 6.59545C17.393 6.59349 17.3917 6.59127 17.3896 6.5876L17.1726 6.71166ZM17.1504 6.7043C17.1648 6.70421 17.172 6.70567 17.1743 6.70626C17.1761 6.70672 17.1739 6.70638 17.1703 6.70383C17.1668 6.70133 17.1649 6.69895 17.165 6.69904C17.1652 6.69927 17.1658 6.70017 17.1671 6.70229C17.1685 6.7046 17.17 6.70718 17.1726 6.71166L17.3896 6.58761C17.381 6.57253 17.3589 6.53088 17.3142 6.49939C17.2674 6.46645 17.2112 6.4539 17.1488 6.45431L17.1504 6.7043ZM16.7862 6.62157C16.8388 6.65657 16.8868 6.68192 16.9509 6.69431C17.007 6.70515 17.0715 6.70482 17.1504 6.7043L17.1488 6.45431C17.0619 6.45488 17.025 6.454 16.9983 6.44885C16.9797 6.44524 16.9634 6.43915 16.9247 6.41344L16.7862 6.62157ZM16.7783 6.35422C16.7757 6.35606 16.7632 6.36448 16.7512 6.37596C16.7396 6.38711 16.718 6.41064 16.7083 6.44729C16.6833 6.54177 16.7551 6.60085 16.7862 6.62157L16.9247 6.41344C16.9203 6.41047 16.9293 6.41524 16.9386 6.43024C16.9505 6.44933 16.9586 6.47883 16.95 6.5112C16.9429 6.53794 16.9279 6.55287 16.9241 6.55658C16.9198 6.56062 16.9163 6.56276 16.9213 6.55932L16.7783 6.35422ZM16.7953 6.56914C16.8131 6.56914 16.8242 6.56933 16.8309 6.56963C16.8424 6.57014 16.8326 6.57071 16.8181 6.56625C16.8132 6.56473 16.8034 6.56134 16.7921 6.55447C16.781 6.54777 16.7619 6.53371 16.748 6.50821C16.7128 6.44348 16.748 6.38836 16.757 6.37615C16.763 6.36807 16.7687 6.36263 16.7715 6.36007C16.7745 6.35724 16.777 6.35532 16.778 6.35452C16.7797 6.35326 16.7808 6.35247 16.7783 6.35422L16.9213 6.55932C16.9222 6.55865 16.9266 6.55564 16.9309 6.55236C16.9333 6.55047 16.9462 6.5408 16.9577 6.52525C16.968 6.51139 17.0036 6.45482 16.9677 6.3888C16.9417 6.34113 16.8963 6.32874 16.8919 6.32738C16.8711 6.32097 16.8496 6.32021 16.8419 6.31987C16.8295 6.31932 16.8138 6.31914 16.7953 6.31914V6.56914ZM16.3458 6.56914H16.7953V6.31914H16.3458V6.56914ZM16.4272 6.172C16.3785 6.172 16.3287 6.19115 16.2951 6.20717C16.2583 6.22471 16.2173 6.25002 16.1856 6.28047C16.1705 6.29503 16.1498 6.31801 16.1367 6.3489C16.1223 6.3831 16.1139 6.43814 16.1486 6.49036C16.178 6.53466 16.2227 6.55149 16.2496 6.55862C16.2793 6.56655 16.3124 6.56914 16.3458 6.56914V6.31914C16.3351 6.31914 16.3271 6.3187 16.3215 6.31813C16.3157 6.31754 16.3135 6.31694 16.3138 6.31702C16.3139 6.31704 16.3189 6.31833 16.3264 6.3227C16.334 6.32717 16.3463 6.33613 16.3568 6.35194C16.3679 6.3687 16.3737 6.38808 16.3741 6.40716C16.3745 6.42499 16.3702 6.43854 16.367 6.44627C16.3612 6.45992 16.3549 6.4645 16.3589 6.46067C16.3655 6.45433 16.3817 6.44286 16.4028 6.4328C16.4125 6.42815 16.421 6.42492 16.4272 6.42306C16.4346 6.42084 16.434 6.422 16.4272 6.422V6.172ZM16.4675 6.34234C16.4848 6.33645 16.4947 6.33436 16.4989 6.33375C16.5048 6.33286 16.4953 6.33545 16.4784 6.33072C16.4578 6.32496 16.4214 6.30559 16.4064 6.2603C16.394 6.22272 16.4057 6.19381 16.4091 6.18639C16.4163 6.17054 16.4227 6.16907 16.4169 6.17291C16.4125 6.17579 16.4153 6.172 16.4272 6.172V6.422C16.4794 6.422 16.5242 6.40166 16.5546 6.38156C16.5836 6.36243 16.6176 6.33157 16.6366 6.29004C16.6458 6.26979 16.6594 6.22898 16.6437 6.18168C16.6255 6.12668 16.5808 6.0998 16.5458 6.08998C16.5144 6.08119 16.4842 6.08319 16.4622 6.08645C16.4384 6.08997 16.4131 6.09675 16.3868 6.10573L16.4675 6.34234ZM16.044 6.36333C16.1787 6.37536 16.3262 6.39055 16.4675 6.34234L16.3868 6.10573C16.305 6.13364 16.2138 6.1275 16.0663 6.11432L16.044 6.36333ZM15.7939 6.34903C15.8832 6.34903 15.9643 6.35621 16.044 6.36333L16.0663 6.11432C15.9873 6.10727 15.8958 6.09903 15.7939 6.09903V6.34903ZM15.6344 5.99547C15.5898 5.99547 15.5286 6.00131 15.4815 6.03605C15.4538 6.05652 15.421 6.09563 15.4208 6.15289C15.4207 6.20559 15.4487 6.24232 15.468 6.26133C15.5054 6.29817 15.5584 6.31784 15.6051 6.32927C15.6566 6.34187 15.7199 6.34903 15.7939 6.34903V6.09903C15.7351 6.09903 15.6924 6.09325 15.6646 6.08644C15.6319 6.07844 15.6322 6.07223 15.6434 6.08317C15.6495 6.08923 15.6709 6.11302 15.6708 6.15358C15.6707 6.19871 15.6445 6.22649 15.6299 6.23725C15.6169 6.24683 15.6079 6.24792 15.6117 6.2471C15.614 6.2466 15.6212 6.24547 15.6344 6.24547V5.99547ZM15.5566 6.1696C15.6123 6.1696 15.6473 6.17403 15.6659 6.17829C15.6755 6.18048 15.6765 6.1817 15.6726 6.1797C15.6725 6.17963 15.6473 6.16776 15.6321 6.134C15.6232 6.11431 15.6193 6.09012 15.6243 6.06491C15.6292 6.04098 15.6405 6.02396 15.6495 6.01378C15.6582 6.00384 15.6666 5.99825 15.6709 5.99566C15.6755 5.9929 15.6786 5.9917 15.6793 5.99144C15.6796 5.99134 15.6661 5.99547 15.6344 5.99547V6.24547C15.6813 6.24547 15.7279 6.24011 15.7664 6.22579C15.7841 6.2192 15.8132 6.20604 15.837 6.17914C15.8499 6.16452 15.8636 6.14291 15.8694 6.1143C15.8754 6.08444 15.8709 6.0555 15.8599 6.03107C15.8404 5.98782 15.8046 5.96647 15.7873 5.95752C15.7661 5.94662 15.7433 5.93954 15.7218 5.93462C15.6784 5.92466 15.623 5.9196 15.5566 5.9196V6.1696ZM15.1501 6.10379C15.2442 6.13 15.3848 6.1696 15.5566 6.1696V5.9196C15.4222 5.9196 15.3108 5.88903 15.2172 5.86296L15.1501 6.10379ZM15.0514 6.08046C15.0514 6.08046 15.0514 6.08046 15.0515 6.08046C15.0516 6.08046 15.0518 6.08047 15.0519 6.08048C15.0523 6.08049 15.0528 6.08053 15.0536 6.08059C15.055 6.08071 15.057 6.08093 15.0596 6.08131C15.0649 6.0821 15.0719 6.08341 15.0809 6.08546C15.0995 6.0897 15.1214 6.09579 15.1501 6.10379L15.2172 5.86296C15.1695 5.84965 15.1049 5.83046 15.0514 5.83046V6.08046ZM15.0514 5.72835C15.0012 5.72835 14.9432 5.73433 14.8968 5.76366C14.8706 5.78026 14.8426 5.8081 14.8301 5.84997C14.8177 5.89165 14.8259 5.92956 14.8381 5.95628C14.8601 6.00443 14.9013 6.03404 14.9313 6.04993C14.9646 6.06762 15.0065 6.08046 15.0514 6.08046V5.83046C15.0532 5.83046 15.0512 5.83053 15.0484 5.82908C15.0423 5.82583 15.0553 5.8299 15.0656 5.85253C15.0719 5.86648 15.0785 5.89162 15.0697 5.92135C15.0608 5.95124 15.0416 5.96792 15.0305 5.97494C15.0204 5.98128 15.0148 5.98148 15.0201 5.98046C15.0246 5.97959 15.0344 5.97835 15.0514 5.97835V5.72835ZM15.2645 5.89323C15.2746 5.89323 15.2822 5.89351 15.2878 5.89389C15.2936 5.89429 15.2958 5.89472 15.2955 5.89466C15.2952 5.89461 15.2936 5.8943 15.2911 5.89353C15.2886 5.8928 15.284 5.89127 15.2782 5.88843C15.2701 5.88448 15.2394 5.86829 15.2233 5.82842C15.2041 5.78093 15.2204 5.7398 15.2331 5.72021C15.2441 5.70314 15.2562 5.69464 15.2583 5.69313C15.264 5.68916 15.2644 5.69008 15.2539 5.69411C15.2133 5.70972 15.1262 5.72835 15.0514 5.72835V5.97835C15.1559 5.97835 15.2734 5.95442 15.3436 5.92748C15.3608 5.92087 15.3831 5.91114 15.4028 5.8972C15.4119 5.89071 15.4292 5.87738 15.4431 5.85574C15.4587 5.83157 15.4759 5.78613 15.455 5.73464C15.4373 5.69079 15.4026 5.67094 15.3878 5.66375C15.3706 5.65534 15.354 5.65132 15.3425 5.64913C15.319 5.64461 15.292 5.64323 15.2645 5.64323V5.89323ZM14.7754 5.79586C14.8553 5.81736 14.9444 5.84139 15.0278 5.85995C15.1091 5.87806 15.1944 5.89323 15.2645 5.89323V5.64323C15.2237 5.64323 15.1611 5.63352 15.0821 5.61593C15.0051 5.59877 14.9214 5.57626 14.8404 5.55446L14.7754 5.79586ZM14.5239 5.73731C14.5327 5.73731 14.5593 5.74107 14.6099 5.75292C14.6567 5.76391 14.7129 5.77902 14.7754 5.79586L14.8404 5.55446C14.7791 5.53795 14.7186 5.52164 14.667 5.50953C14.6191 5.4983 14.5656 5.48731 14.5239 5.48731V5.73731ZM14.6044 5.46365C14.5654 5.47072 14.5267 5.4777 14.503 5.483C14.497 5.48435 14.4898 5.48606 14.4829 5.48808C14.4796 5.48905 14.4743 5.49067 14.4684 5.49299C14.4664 5.49378 14.4489 5.50022 14.4316 5.51474C14.4243 5.52089 14.3981 5.54386 14.3894 5.5854C14.378 5.64031 14.4047 5.6828 14.4283 5.70405C14.4472 5.7211 14.4664 5.72787 14.4727 5.72997C14.4812 5.73285 14.4884 5.73427 14.4924 5.73496C14.506 5.73733 14.519 5.73731 14.5239 5.73731V5.48731C14.519 5.48731 14.5254 5.48694 14.5352 5.48865C14.5383 5.48918 14.5447 5.49041 14.5526 5.49308C14.5582 5.49499 14.577 5.50153 14.5957 5.51834C14.619 5.53935 14.6456 5.58158 14.6342 5.63621C14.6257 5.67746 14.5996 5.70014 14.5927 5.70598C14.5762 5.71987 14.56 5.7256 14.56 5.72562C14.556 5.72718 14.5533 5.72796 14.5531 5.72803C14.5523 5.72824 14.5535 5.72789 14.5577 5.72695C14.5749 5.72308 14.6071 5.71724 14.649 5.70965L14.6044 5.46365ZM14.7216 5.63866C14.7589 5.63866 14.7863 5.63933 14.8057 5.6404C14.8273 5.64161 14.8323 5.64302 14.829 5.64219C14.8275 5.64181 14.8233 5.64071 14.8177 5.63839C14.8128 5.6364 14.8013 5.63129 14.7888 5.62085C14.7761 5.61031 14.7548 5.58784 14.7475 5.55126C14.7398 5.51263 14.7521 5.48092 14.7639 5.46219C14.7747 5.44523 14.7869 5.4354 14.7922 5.43143C14.7983 5.42681 14.8033 5.42409 14.8055 5.42294C14.8099 5.4207 14.8119 5.4202 14.8093 5.4211C14.7973 5.42525 14.7695 5.43202 14.7281 5.4404C14.6891 5.44831 14.645 5.45629 14.6044 5.46365L14.649 5.70965C14.7233 5.69619 14.8374 5.67597 14.8912 5.65729C14.8991 5.65454 14.9098 5.6505 14.9206 5.64487C14.9257 5.64226 14.9549 5.6279 14.9752 5.5959C14.988 5.57563 15.0006 5.54242 14.9926 5.50235C14.9851 5.46432 14.9628 5.44045 14.9485 5.42855C14.9238 5.40804 14.897 5.40149 14.8899 5.39971C14.8538 5.39065 14.7944 5.38866 14.7216 5.38866V5.63866ZM13.7408 5.23554C13.8591 5.31316 14.0114 5.41327 14.1769 5.49346C14.3417 5.57328 14.5299 5.63866 14.7216 5.63866V5.38866C14.5841 5.38866 14.4354 5.34088 14.2859 5.26847C14.1372 5.19642 13.9979 5.10522 13.878 5.02653L13.7408 5.23554ZM13.5353 5.11174C13.5729 5.1262 13.6378 5.16795 13.7408 5.23554L13.878 5.02653C13.7876 4.9672 13.6943 4.9051 13.6252 4.87846L13.5353 5.11174ZM13.7258 4.75748C13.6667 4.69269 13.5863 4.69867 13.5433 4.71061C13.4967 4.72353 13.452 4.75225 13.4205 4.79118C13.3886 4.83062 13.3583 4.89783 13.3852 4.97434C13.4106 5.04667 13.4741 5.08814 13.5353 5.11174L13.6252 4.87846C13.5941 4.86647 13.6113 4.86368 13.6211 4.89145C13.6323 4.92341 13.617 4.94579 13.6148 4.94848C13.613 4.95067 13.6129 4.95074 13.6102 4.9515C13.6082 4.95206 13.6003 4.95398 13.5881 4.95199C13.5747 4.94978 13.5563 4.9426 13.5411 4.92594L13.7258 4.75748ZM13.8434 5.02407C13.8653 5.03472 13.8598 5.03436 13.8488 5.02386C13.8452 5.02044 13.8346 5.01003 13.826 4.99277C13.8168 4.97445 13.8045 4.93659 13.8218 4.89292C13.8382 4.85175 13.8701 4.83355 13.8844 4.82709C13.8993 4.82027 13.9118 4.81845 13.9163 4.81787C13.9301 4.8161 13.9353 4.8185 13.9196 4.8159C13.9091 4.81416 13.8943 4.81105 13.8765 4.8066C13.8409 4.79767 13.7993 4.78491 13.7649 4.77162C13.7477 4.76496 13.7342 4.75893 13.725 4.75408C13.7128 4.74764 13.7172 4.74806 13.7258 4.75748L13.5411 4.92594C13.563 4.94995 13.5908 4.96593 13.6085 4.97526C13.6292 4.98619 13.6523 4.99613 13.6749 5.00486C13.7203 5.02237 13.7718 5.03808 13.8158 5.04911C13.8378 5.05463 13.8595 5.05936 13.8788 5.06255C13.8929 5.06488 13.9211 5.06929 13.948 5.06585C13.9558 5.06486 13.9709 5.06238 13.9878 5.05468C14.004 5.04732 14.0372 5.02799 14.0541 4.98543C14.0721 4.94037 14.0596 4.90087 14.0494 4.88064C14.0398 4.86146 14.0275 4.84887 14.0213 4.84299C14 4.82266 13.9708 4.808 13.9524 4.79909L13.8434 5.02407ZM13.4797 4.70252C13.5345 4.77667 13.6527 4.93168 13.8434 5.02407L13.9524 4.79909C13.8203 4.7351 13.7325 4.62395 13.6808 4.554L13.4797 4.70252ZM13.7153 4.4687C13.6889 4.44583 13.6541 4.42374 13.6121 4.41623C13.5671 4.40819 13.5072 4.41759 13.4657 4.46817C13.4282 4.51394 13.4274 4.56763 13.4341 4.60285C13.4411 4.63996 13.4585 4.67374 13.4797 4.70252L13.6808 4.554C13.6755 4.54676 13.678 4.54731 13.6798 4.55659C13.6812 4.56398 13.6848 4.59527 13.659 4.62669C13.6293 4.66291 13.5886 4.666 13.5681 4.66233C13.5505 4.65919 13.5453 4.65214 13.5516 4.65763L13.7153 4.4687ZM14.001 4.78336C14.0605 4.67343 14.0605 4.67343 14.0605 4.67343C14.0605 4.67343 14.0605 4.67343 14.0605 4.67343C14.0605 4.67343 14.0605 4.67342 14.0605 4.67341C14.0604 4.6734 14.0604 4.67337 14.0603 4.67334C14.0602 4.67327 14.06 4.67316 14.0597 4.67301C14.0592 4.67272 14.0584 4.67227 14.0573 4.67169C14.0551 4.67051 14.0519 4.66877 14.0478 4.66652C14.0396 4.66203 14.0277 4.65552 14.0132 4.64752C13.9842 4.63151 13.945 4.60964 13.9039 4.58608C13.8627 4.56243 13.8202 4.5375 13.7845 4.51531C13.7461 4.49151 13.7231 4.47547 13.7153 4.4687L13.5516 4.65763C13.5765 4.67922 13.6158 4.70489 13.6526 4.72769C13.6919 4.7521 13.7372 4.77868 13.7796 4.80299C13.8222 4.82739 13.8626 4.84993 13.8923 4.86634C13.9072 4.87456 13.9194 4.88127 13.928 4.88593C13.9322 4.88827 13.9356 4.89009 13.9379 4.89134C13.939 4.89196 13.9399 4.89244 13.9405 4.89277C13.9408 4.89294 13.9411 4.89306 13.9412 4.89315C13.9413 4.89319 13.9414 4.89323 13.9414 4.89325C13.9414 4.89326 13.9415 4.89327 13.9415 4.89328C13.9415 4.89329 13.9415 4.89329 13.9415 4.89329C13.9415 4.89329 13.9415 4.8933 14.001 4.78336ZM13.6005 4.44362C13.6695 4.57425 13.7471 4.6807 13.8073 4.75448C13.8375 4.79148 13.8636 4.82059 13.8825 4.84073C13.8919 4.85081 13.8995 4.85867 13.905 4.86418C13.9077 4.86693 13.9099 4.8691 13.9115 4.87067C13.9123 4.87145 13.9129 4.87209 13.9134 4.87257C13.9137 4.87281 13.9139 4.87301 13.914 4.87317C13.9141 4.87325 13.9142 4.87333 13.9143 4.87339C13.9143 4.87342 13.9143 4.87345 13.9144 4.87348C13.9144 4.87349 13.9144 4.87351 13.9144 4.87352C13.9144 4.87353 13.9144 4.87355 14.001 4.78336C14.0875 4.69318 14.0876 4.69319 14.0876 4.69321C14.0876 4.69321 14.0876 4.69323 14.0876 4.69323C14.0876 4.69325 14.0876 4.69327 14.0876 4.69328C14.0877 4.6933 14.0877 4.69332 14.0877 4.69333C14.0877 4.69334 14.0877 4.69331 14.0876 4.69325C14.0875 4.69313 14.0872 4.69287 14.0868 4.69245C14.086 4.69163 14.0846 4.69023 14.0826 4.68827C14.0787 4.68435 14.0727 4.67819 14.065 4.66993C14.0495 4.6534 14.0272 4.62854 14.001 4.5964C13.9483 4.53187 13.8809 4.43927 13.8216 4.3269L13.6005 4.44362ZM14.1394 4.28935C14.0782 4.23812 14.0134 4.19479 13.9518 4.16268C13.8923 4.13167 13.8273 4.10671 13.7668 4.10079C13.7365 4.09783 13.6978 4.09866 13.6596 4.1143C13.6171 4.13167 13.5809 4.16537 13.5631 4.21383C13.5471 4.25752 13.5504 4.30106 13.5583 4.33563C13.5663 4.37113 13.5814 4.4074 13.6005 4.44362L13.8216 4.3269C13.8087 4.30236 13.8037 4.28733 13.8021 4.28026C13.8003 4.27228 13.8044 4.28201 13.7978 4.29995C13.7894 4.32266 13.7714 4.33866 13.7542 4.3457C13.7412 4.35101 13.7349 4.34887 13.7424 4.3496C13.7575 4.35108 13.7899 4.3602 13.8363 4.38439C13.8806 4.40749 13.9304 4.44048 13.9791 4.48116L14.1394 4.28935ZM14.6015 4.50391C14.519 4.49549 14.3374 4.45483 14.1394 4.28935L13.9791 4.48116C14.2209 4.68331 14.4517 4.73992 14.5762 4.75262L14.6015 4.50391ZM14.2254 4.49455C14.3225 4.54847 14.4184 4.60862 14.4756 4.65186C14.4896 4.66249 14.4996 4.67086 14.5061 4.67685C14.5146 4.68475 14.5109 4.68303 14.5053 4.67332C14.5027 4.66891 14.4927 4.65126 14.4915 4.62463C14.4901 4.59044 14.5041 4.55328 14.5352 4.52814C14.5595 4.50849 14.5835 4.50513 14.5898 4.50438C14.5982 4.50337 14.6029 4.50405 14.6015 4.50391L14.5762 4.75262C14.5877 4.75379 14.603 4.75459 14.6196 4.7526C14.6341 4.75085 14.6641 4.7454 14.6923 4.72264C14.7273 4.69438 14.743 4.65309 14.7413 4.61384C14.7399 4.58215 14.7277 4.55851 14.7212 4.54728C14.7075 4.52393 14.6887 4.50522 14.676 4.4935C14.6614 4.47988 14.6443 4.46603 14.6265 4.45254C14.5561 4.39928 14.4489 4.33265 14.3467 4.27597L14.2254 4.49455ZM14.3756 3.94956C14.3478 3.92099 14.3112 3.89294 14.2654 3.88092C14.214 3.86744 14.1616 3.87722 14.1194 3.90798C14.0818 3.9354 14.0609 3.97301 14.0491 4.00373C14.0369 4.03566 14.0308 4.06986 14.0288 4.10267C14.0215 4.22277 14.068 4.40716 14.2254 4.49455L14.3467 4.27597C14.3271 4.26504 14.3088 4.24443 14.2954 4.21295C14.2818 4.18108 14.2767 4.14556 14.2784 4.11783C14.2792 4.10412 14.2815 4.09599 14.2826 4.09307C14.2842 4.08894 14.2815 4.09918 14.2667 4.10998C14.2473 4.12412 14.2222 4.12804 14.202 4.12274C14.1873 4.11889 14.1859 4.11306 14.1965 4.12401L14.3756 3.94956ZM15.1648 4.31357C14.9786 4.23666 14.793 4.16002 14.644 4.09246C14.5695 4.05866 14.5061 4.02799 14.4573 4.00143C14.4329 3.98816 14.4134 3.9766 14.3987 3.96682C14.3914 3.96196 14.3858 3.95792 14.3817 3.9547C14.3797 3.95312 14.3782 3.95186 14.3771 3.95093C14.376 3.94999 14.3756 3.94953 14.3756 3.94956L14.1965 4.12401C14.2311 4.15954 14.2853 4.19246 14.3378 4.22102C14.3943 4.25178 14.464 4.2853 14.5408 4.32014C14.6945 4.38984 14.8844 4.46824 15.0694 4.54464L15.1648 4.31357ZM15.963 4.68845C15.9297 4.65989 15.8815 4.6318 15.8317 4.60576C15.7795 4.57841 15.7161 4.54853 15.6464 4.51727C15.5068 4.45477 15.3355 4.38404 15.1648 4.31357L15.0694 4.54464C15.2412 4.61556 15.4087 4.68475 15.5442 4.74543C15.6119 4.77576 15.67 4.80328 15.7158 4.82724C15.764 4.85251 15.7903 4.86963 15.8004 4.87827L15.963 4.68845ZM15.6743 4.57882C15.742 4.68635 15.7998 4.77849 15.8237 4.82819C15.8298 4.841 15.8297 4.84291 15.8285 4.83792C15.8282 4.83655 15.8244 4.82171 15.8275 4.80091C15.8312 4.77576 15.8486 4.72979 15.9007 4.7087C15.9406 4.69256 15.9734 4.70357 15.9788 4.70537C15.9882 4.70849 15.993 4.71176 15.9914 4.71081C15.989 4.70927 15.9802 4.70317 15.963 4.68845L15.8004 4.87827C15.8207 4.89574 15.8411 4.91182 15.8603 4.92362C15.8695 4.92933 15.8833 4.93707 15.8999 4.94259C15.9125 4.94678 15.9508 4.95814 15.9945 4.94043C16.0505 4.91777 16.0702 4.86832 16.0747 4.83793C16.0786 4.81189 16.0741 4.79004 16.0717 4.78006C16.0664 4.75784 16.0568 4.73606 16.049 4.71993C16.0173 4.65385 15.9491 4.54603 15.8859 4.4456L15.6743 4.57882ZM15.5943 4.45077C15.6201 4.49267 15.6476 4.53641 15.6743 4.57882L15.8859 4.4456C15.859 4.40297 15.8322 4.36034 15.8072 4.31974L15.5943 4.45077ZM16.413 4.47353C16.2165 4.3833 16.0238 4.29465 15.8913 4.24708C15.8577 4.235 15.8254 4.22466 15.7964 4.21752C15.7701 4.21102 15.7358 4.20438 15.7021 4.20685C15.685 4.20811 15.658 4.21234 15.6309 4.22867C15.5996 4.24745 15.575 4.27846 15.566 4.31796C15.5581 4.3525 15.5646 4.38241 15.5705 4.40077C15.5768 4.42004 15.5858 4.43702 15.5943 4.45077L15.8072 4.31974C15.8048 4.31583 15.8064 4.31751 15.8084 4.3237C15.8101 4.32898 15.8156 4.34803 15.8097 4.3738C15.8026 4.40452 15.7831 4.42885 15.7597 4.44289C15.7405 4.45447 15.7242 4.45591 15.7204 4.45618C15.7136 4.45669 15.7166 4.45533 15.7367 4.46027C15.7541 4.46456 15.7774 4.47181 15.8068 4.48238C15.9267 4.5254 16.1075 4.60832 16.3086 4.70071L16.413 4.47353ZM17.1812 4.79065C17.0034 4.74416 16.7046 4.60746 16.413 4.47353L16.3086 4.70071C16.5897 4.8298 16.9134 4.97904 17.118 5.03252L17.1812 4.79065ZM17.6371 4.93827C17.4815 4.88371 17.3189 4.82664 17.1812 4.79065L17.118 5.03252C17.2437 5.06539 17.3957 5.11858 17.5544 5.1742L17.6371 4.93827ZM18.2456 5.15155C18.2456 5.14959 18.2468 5.13539 18.2594 5.12108C18.2705 5.10845 18.2805 5.10727 18.2755 5.10844C18.2609 5.11186 18.223 5.11227 18.153 5.09836C18.0184 5.07161 17.8344 5.0074 17.6371 4.93827L17.5544 5.1742C17.745 5.24099 17.9483 5.31257 18.1042 5.34356C18.1795 5.35851 18.2625 5.36828 18.3326 5.35182C18.37 5.34304 18.4133 5.3246 18.4471 5.28619C18.4823 5.24609 18.4956 5.19758 18.4956 5.15155H18.2456ZM19.0649 4.26708C18.8523 4.34033 18.6521 4.48274 18.5046 4.63884C18.4305 4.71733 18.3672 4.80195 18.3218 4.88676C18.2771 4.97021 18.2456 5.06164 18.2456 5.15155H18.4956C18.4956 5.11762 18.5085 5.06772 18.5422 5.00476C18.5752 4.94315 18.6243 4.87624 18.6864 4.8105C18.8114 4.67814 18.9786 4.56124 19.1464 4.50344L19.0649 4.26708ZM19.6728 4.36767C19.6044 4.32246 19.5233 4.26744 19.4236 4.24106C19.3182 4.21318 19.2037 4.21926 19.0649 4.26708L19.1464 4.50344C19.249 4.46808 19.3121 4.47016 19.3596 4.48275C19.4129 4.49683 19.4601 4.52674 19.5348 4.57618L19.6728 4.36767ZM19.9472 4.50887C19.8339 4.47374 19.7548 4.42193 19.6728 4.36767L19.5348 4.57618C19.6176 4.63091 19.7227 4.70098 19.8731 4.74765L19.9472 4.50887ZM19.5633 6.78264C19.4383 6.78654 19.4383 6.78654 19.4383 6.78654C19.4383 6.78654 19.4383 6.78654 19.4383 6.78655C19.4383 6.78656 19.4383 6.78659 19.4384 6.78662C19.4384 6.7867 19.4384 6.78681 19.4384 6.78697C19.4384 6.7873 19.4384 6.7878 19.4384 6.78847C19.4384 6.78982 19.4385 6.79185 19.4386 6.79452C19.4387 6.79986 19.4389 6.80777 19.4392 6.81786C19.4396 6.83806 19.4402 6.867 19.4406 6.90176C19.4415 6.97143 19.4417 7.06379 19.4393 7.15572C19.4369 7.2487 19.432 7.33702 19.4231 7.40033C19.4185 7.43314 19.4138 7.45193 19.4109 7.45974C19.4093 7.46419 19.411 7.45737 19.4193 7.44729C19.4281 7.4366 19.4552 7.41024 19.5009 7.41024V7.66024C19.5574 7.66024 19.5943 7.62801 19.6122 7.6063C19.6296 7.58519 19.6396 7.5622 19.6456 7.54608C19.6578 7.51273 19.6654 7.47272 19.6707 7.43497C19.6816 7.35716 19.6868 7.25734 19.6893 7.16217C19.6917 7.06594 19.6915 6.97016 19.6906 6.89871C19.6902 6.86291 19.6896 6.83306 19.6891 6.8121C19.6889 6.80162 19.6886 6.79335 19.6885 6.78767C19.6884 6.78483 19.6883 6.78263 19.6883 6.78113C19.6883 6.78038 19.6883 6.7798 19.6882 6.7794C19.6882 6.7792 19.6882 6.77905 19.6882 6.77894C19.6882 6.77888 19.6882 6.77884 19.6882 6.77881C19.6882 6.77879 19.6882 6.77877 19.6882 6.77877C19.6882 6.77875 19.6882 6.77874 19.5633 6.78264ZM19.9417 7.44386C19.9417 7.37289 19.9203 7.29074 19.8957 7.21681C19.8701 7.13986 19.8365 7.05918 19.8039 6.98693C19.7712 6.91437 19.7385 6.84852 19.7141 6.8009C19.7019 6.77703 19.6917 6.75763 19.6845 6.7441C19.6809 6.73734 19.678 6.73203 19.6761 6.72837C19.6751 6.72654 19.6743 6.72512 19.6738 6.72413C19.6735 6.72364 19.6733 6.72325 19.6731 6.72297C19.6731 6.72284 19.673 6.72273 19.6729 6.72264C19.6729 6.7226 19.6729 6.72257 19.6729 6.72254C19.6729 6.72253 19.6729 6.72251 19.6729 6.72251C19.6729 6.72249 19.6729 6.72248 19.5633 6.78264C19.4537 6.8428 19.4537 6.8428 19.4537 6.84279C19.4537 6.84279 19.4537 6.84279 19.4537 6.84279C19.4537 6.84279 19.4537 6.84279 19.4537 6.84281C19.4537 6.84284 19.4538 6.8429 19.4538 6.84298C19.4539 6.84315 19.4541 6.84343 19.4543 6.84381C19.4547 6.84458 19.4553 6.84578 19.4562 6.84737C19.4579 6.85057 19.4605 6.85538 19.4638 6.86162C19.4705 6.87412 19.4801 6.89233 19.4916 6.91485C19.5147 6.96 19.5455 7.02201 19.5761 7.08979C19.6068 7.15789 19.6366 7.23002 19.6585 7.29578C19.6814 7.36454 19.6917 7.41498 19.6917 7.44386H19.9417ZM19.9359 7.57698C19.936 7.5784 19.9359 7.57812 19.9361 7.57353C19.9364 7.56794 19.9369 7.56206 19.9378 7.54958C19.9396 7.52602 19.9417 7.49327 19.9417 7.44386H19.6917C19.6917 7.48532 19.69 7.51155 19.6885 7.53081C19.6874 7.54617 19.6846 7.57299 19.6869 7.59909L19.9359 7.57698ZM20.0067 7.7353C19.9746 7.66362 19.9568 7.62598 19.9449 7.59829C19.9333 7.57142 19.9354 7.57155 19.9359 7.57698L19.6869 7.59909C19.6902 7.63592 19.7022 7.66681 19.7152 7.69709C19.7279 7.72655 19.7494 7.77243 19.7787 7.83767L20.0067 7.7353ZM19.7581 7.98697C19.7843 7.9965 19.814 8.00746 19.8394 8.01423C19.8523 8.01768 19.8694 8.02156 19.8879 8.02276C19.905 8.02387 19.9365 8.02373 19.9694 8.00698C20.0085 7.98704 20.0324 7.95253 20.0418 7.91643C20.0498 7.88609 20.0466 7.85868 20.0436 7.84191C20.0376 7.80812 20.0227 7.77094 20.0067 7.7353L19.7787 7.83767C19.7857 7.85334 19.7905 7.86524 19.7937 7.87412C19.7971 7.88347 19.7977 7.88685 19.7976 7.88604C19.7975 7.88543 19.7969 7.88232 19.7968 7.87735C19.7968 7.87245 19.7971 7.86386 19.8 7.85313C19.8029 7.842 19.8085 7.82836 19.8189 7.81494C19.8294 7.80127 19.8424 7.7911 19.8558 7.78428C19.8803 7.77178 19.9007 7.77306 19.9041 7.77328C19.909 7.7736 19.9098 7.77427 19.9039 7.7727C19.8917 7.76944 19.8739 7.76309 19.8436 7.75206L19.7581 7.98697ZM19.4062 7.91149C19.5487 7.91149 19.6675 7.95399 19.7581 7.98697L19.8436 7.75206C19.7525 7.71887 19.597 7.66149 19.4062 7.66149V7.91149ZM19.5009 7.41024C19.4664 7.41024 19.4334 7.4212 19.4122 7.4293C19.3874 7.43878 19.3614 7.4514 19.3363 7.46541C19.2876 7.49268 19.232 7.53125 19.1906 7.57478C19.1705 7.59596 19.1468 7.62552 19.1327 7.662C19.1175 7.70135 19.1104 7.75998 19.1465 7.81546C19.1785 7.8645 19.2287 7.88594 19.2665 7.89627C19.3067 7.90725 19.3539 7.91149 19.4062 7.91149V7.66149C19.3651 7.66149 19.3425 7.65787 19.3324 7.65511C19.3199 7.6517 19.3394 7.65351 19.356 7.679C19.365 7.69286 19.3697 7.70868 19.3702 7.72375C19.3707 7.7377 19.3676 7.7476 19.3659 7.75198C19.3632 7.75902 19.3622 7.75717 19.3719 7.74695C19.3902 7.72767 19.4229 7.70343 19.4584 7.68359C19.4754 7.67405 19.4905 7.66704 19.5016 7.66278C19.5071 7.66066 19.5104 7.6597 19.5117 7.6594C19.5137 7.6589 19.5094 7.66024 19.5009 7.66024V7.41024Z" fill="#272727"/>
</g>
</g>
</g>
<rect x="1.75" y="1.25" width="23.5" height="17.5" stroke="black" stroke-opacity="0.1" stroke-width="0.5" shape-rendering="crispEdges"/>
</g>
<defs>
<filter id="filter0_dd_701_19114" x="0" y="0" width="27" height="21" filterUnits="userSpaceOnUse" color-interpolation-filters="sRGB">
<feFlood flood-opacity="0" result="BackgroundImageFix"/>
<feColorMatrix in="SourceAlpha" type="matrix" values="0 0 0 0 0 0 0 0 0 0 0 0 0 0 0 0 0 0 127 0" result="hardAlpha"/>
<feOffset dy="0.5"/>
<feGaussianBlur stdDeviation="0.75"/>
<feComposite in2="hardAlpha" operator="out"/>
<feColorMatrix type="matrix" values="0 0 0 0 0 0 0 0 0 0 0 0 0 0 0 0 0 0 0.1 0"/>
<feBlend mode="multiply" in2="BackgroundImageFix" result="effect1_dropShadow_701_19114"/>
<feColorMatrix in="SourceAlpha" type="matrix" values="0 0 0 0 0 0 0 0 0 0 0 0 0 0 0 0 0 0 127 0" result="hardAlpha"/>
<feOffset/>
<feGaussianBlur stdDeviation="0.5"/>
<feComposite in2="hardAlpha" operator="out"/>
<feColorMatrix type="matrix" values="0 0 0 0 0 0 0 0 0 0 0 0 0 0 0 0 0 0 0.11 0"/>
<feBlend mode="multiply" in2="effect1_dropShadow_701_19114" result="effect2_dropShadow_701_19114"/>
<feBlend mode="normal" in="SourceGraphic" in2="effect2_dropShadow_701_19114" result="shape"/>
</filter>
<clipPath id="clip0_701_19114">
<rect x="1.5" y="1" width="24" height="18" fill="white"/>
</clipPath>
</defs>
</svg>