<svg width="27" height="21" viewBox="0 0 27 21" fill="none" xmlns="http://www.w3.org/2000/svg">
<g filter="url(#filter0_dd_701_22749)">
<g clip-path="url(#clip0_701_22749)">
<mask id="mask0_701_22749" style="mask-type:alpha" maskUnits="userSpaceOnUse" x="1" y="1" width="25" height="18">
<rect x="1.5" y="1" width="24" height="18" fill="white"/>
</mask>
<g mask="url(#mask0_701_22749)">
<path fill-rule="evenodd" clip-rule="evenodd" d="M1.5 1V19H25.5V1H1.5Z" fill="#F7FCFF"/>
<mask id="mask1_701_22749" style="mask-type:alpha" maskUnits="userSpaceOnUse" x="1" y="1" width="25" height="18">
<path fill-rule="evenodd" clip-rule="evenodd" d="M1.5 1V19H25.5V1H1.5Z" fill="white"/>
</mask>
<g mask="url(#mask1_701_22749)">
<path fill-rule="evenodd" clip-rule="evenodd" d="M1.5 1V7H25.5V1H1.5Z" fill="#BF2714"/>
<path fill-rule="evenodd" clip-rule="evenodd" d="M1.5 13V19H25.5V13H1.5Z" fill="#272727"/>
<path fill-rule="evenodd" clip-rule="evenodd" d="M5.50247 10.6084C6.18467 11.5875 5.25 12.25 5.25 12.25C5.25 12.25 6.06712 12.25 6.38006 11.5942H13.0681V10.1499C13.0681 10.1499 12.9282 9.45624 12.3327 9.45624C11.7371 9.45624 11.6029 10.1499 11.6029 10.1499H9.25059L11.5266 8.14065L11.0841 7.75L8.55601 9.98171V10.4549H12.1448V10.1763C12.1448 10.1763 12.165 10.0151 12.3327 10.0151C12.5003 10.0151 12.4595 10.1763 12.4595 10.1763V10.7713H7.93696V9.95777L7.44726 10.1763V10.7713C7.44726 10.7713 6.84751 10.6084 6.46849 10.6084C6.08948 10.6084 6.06712 10.1763 6.06712 10.1763L5.50247 10.6084ZM14.5849 10.664L14.9517 11.5773H13.4922V7.91078L14.1079 8.10785V10.664H14.5849ZM21.3832 10.664L21.75 11.5773H20.2905V7.91078L20.9061 8.10785V10.664H21.3832ZM19.5761 7.94872L19.1959 8.20611V10.6614H18.8085V8.69222L18.1704 9.0601V10.6614H17.7421V9.54963L17.2571 9.86182V10.1637C17.2571 10.1637 16.324 10.228 16.324 11.5471H19.5723L19.5761 7.94872ZM7.11884 12.2242C7.23617 12.2242 7.33128 12.1403 7.33128 12.0367C7.33128 11.9331 7.23617 11.8492 7.11884 11.8492C7.00151 11.8492 6.90639 11.9331 6.90639 12.0367C6.90639 12.1403 7.00151 12.2242 7.11884 12.2242ZM17.9359 8.23125C17.771 8.44868 17.2704 8.23125 17.2704 8.23125L18.6898 8.06679C18.5432 8.35298 17.9359 8.23125 17.9359 8.23125Z" fill="#009C4E"/>
</g>
</g>
</g>
<rect x="1.75" y="1.25" width="23.5" height="17.5" stroke="black" stroke-opacity="0.1" stroke-width="0.5" shape-rendering="crispEdges"/>
</g>
<defs>
<filter id="filter0_dd_701_22749" x="0" y="0" width="27" height="21" filterUnits="userSpaceOnUse" color-interpolation-filters="sRGB">
<feFlood flood-opacity="0" result="BackgroundImageFix"/>
<feColorMatrix in="SourceAlpha" type="matrix" values="0 0 0 0 0 0 0 0 0 0 0 0 0 0 0 0 0 0 127 0" result="hardAlpha"/>
<feOffset dy="0.5"/>
<feGaussianBlur stdDeviation="0.75"/>
<feComposite in2="hardAlpha" operator="out"/>
<feColorMatrix type="matrix" values="0 0 0 0 0 0 0 0 0 0 0 0 0 0 0 0 0 0 0.1 0"/>
<feBlend mode="multiply" in2="BackgroundImageFix" result="effect1_dropShadow_701_22749"/>
<feColorMatrix in="SourceAlpha" type="matrix" values="0 0 0 0 0 0 0 0 0 0 0 0 0 0 0 0 0 0 127 0" result="hardAlpha"/>
<feOffset/>
<feGaussianBlur stdDeviation="0.5"/>
<feComposite in2="hardAlpha" operator="out"/>
<feColorMatrix type="matrix" values="0 0 0 0 0 0 0 0 0 0 0 0 0 0 0 0 0 0 0.11 0"/>
<feBlend mode="multiply" in2="effect1_dropShadow_701_22749" result="effect2_dropShadow_701_22749"/>
<feBlend mode="normal" in="SourceGraphic" in2="effect2_dropShadow_701_22749" result="shape"/>
</filter>
<clipPath id="clip0_701_22749">
<rect x="1.5" y="1" width="24" height="18" fill="white"/>
</clipPath>
</defs>
</svg>
