<svg width="27" height="21" viewBox="0 0 27 21" fill="none" xmlns="http://www.w3.org/2000/svg">
<g filter="url(#filter0_dd_701_20224)">
<g clip-path="url(#clip0_701_20224)">
<mask id="mask0_701_20224" style="mask-type:alpha" maskUnits="userSpaceOnUse" x="1" y="1" width="25" height="18">
<rect x="1.5" y="1" width="24" height="18" fill="white"/>
</mask>
<g mask="url(#mask0_701_20224)">
<path fill-rule="evenodd" clip-rule="evenodd" d="M1.5 1V19H25.5V1H1.5Z" fill="#E31D1C"/>
<mask id="mask1_701_20224" style="mask-type:alpha" maskUnits="userSpaceOnUse" x="1" y="1" width="25" height="18">
<path fill-rule="evenodd" clip-rule="evenodd" d="M1.5 1V19H25.5V1H1.5Z" fill="white"/>
</mask>
<g mask="url(#mask1_701_20224)">
<path fill-rule="evenodd" clip-rule="evenodd" d="M1.5 10V19H25.5V10H1.5Z" fill="#2E42A5"/>
</g>
<path fill-rule="evenodd" clip-rule="evenodd" d="M1.5 -0.5V20.5L16.5 10L1.5 -0.5Z" fill="#F7FCFF"/>
<mask id="mask2_701_20224" style="mask-type:alpha" maskUnits="userSpaceOnUse" x="1" y="-1" width="16" height="22">
<path fill-rule="evenodd" clip-rule="evenodd" d="M1.5 -0.5V20.5L16.5 10L1.5 -0.5Z" fill="white"/>
</mask>
<g mask="url(#mask2_701_20224)">
<path fill-rule="evenodd" clip-rule="evenodd" d="M7.59439 8.64161C8.67192 8.64161 9.54544 7.93834 9.54544 7.0708C9.54544 6.20327 8.67192 5.5 7.59439 5.5C6.51686 5.5 5.64334 6.20327 5.64334 7.0708C5.64334 7.93834 6.51686 8.64161 7.59439 8.64161Z" fill="#FBCD17"/>
<path fill-rule="evenodd" clip-rule="evenodd" d="M7.76506 5.78906C7.60578 5.78906 7.49261 5.89167 7.49261 6.04612L7.49275 6.06316C7.4842 6.0889 7.4794 6.11758 7.47853 6.14969C7.47632 6.23186 7.50692 6.3004 7.57114 6.36327C7.57509 6.38141 7.57714 6.39645 7.57656 6.40499C7.57266 6.39158 7.55716 6.38034 7.52764 6.35894C7.48568 6.32852 7.41539 6.27756 7.30983 6.17064C7.15779 6.01664 7.04306 5.95636 6.90043 5.98031C6.85719 5.98758 6.81486 6.00281 6.76405 6.02316C6.68303 6.05234 6.60845 6.05911 6.47075 6.03282C6.08809 5.95978 5.66839 6.03145 5.21402 6.242L5.37169 6.58225C5.75947 6.40255 6.10159 6.34413 6.40044 6.40117C6.60573 6.44036 6.74827 6.42741 6.8911 6.37598C6.95265 6.35283 6.95803 6.35089 6.96254 6.35013C6.95801 6.35089 6.96092 6.35368 6.97994 6.37196C6.99275 6.38427 7.01287 6.40361 7.04296 6.43409C7.08583 6.47751 7.13063 6.51681 7.1764 6.55256C7.08843 6.57619 7.09299 6.59242 7.10913 6.64999C7.11571 6.67344 7.12421 6.70377 7.12916 6.74425C7.1401 6.83363 7.12193 6.87972 7.1376 6.9018C7.15509 6.92643 7.21469 6.92115 7.40382 6.91272C7.45472 6.91045 7.52357 6.9052 7.60301 6.89768C7.7588 6.88295 7.93512 6.86147 8.04346 6.84371C8.14871 6.82646 8.17668 6.82017 8.22082 6.78804L8.22083 6.78803C8.23609 6.76932 8.24914 6.75331 8.25996 6.73905C8.61983 6.68618 8.93983 6.64862 9.22459 6.6227C9.32668 6.61341 9.40873 6.60704 9.48818 6.60121C9.49757 6.60112 9.49757 6.60112 9.54373 6.59147L9.54374 6.59147C9.56392 6.58288 9.57227 6.57934 9.57509 6.57815L9.57506 6.57823C9.57633 6.57766 9.57708 6.57732 9.57509 6.57815L9.667 6.36044L9.57204 6.24561C9.51547 6.22783 9.50922 6.22586 9.50289 6.22559C9.50211 6.22555 9.50132 6.22554 9.50044 6.22553C9.49301 6.2251 9.49031 6.22494 9.48761 6.22485C9.48607 6.2248 9.48452 6.22478 9.48209 6.22474C9.452 6.22456 9.452 6.22456 9.39611 6.22462H9.39609C9.3338 6.22462 9.28459 6.21936 9.21351 6.20672L9.1474 6.19457C8.85505 6.14093 8.58388 6.14093 8.00879 6.22667C7.99796 6.21829 7.98719 6.21002 7.97666 6.20212C8.06928 6.18602 8.18207 6.1751 8.30127 6.16874L8.30128 6.16874C8.37333 6.16539 8.37334 6.16539 8.41357 6.16432L8.43117 6.1639L8.42897 5.78909L8.40052 5.78906H7.76506ZM7.45443 6.87471L7.49029 6.86726L7.52561 6.85972C7.51914 6.8611 7.51196 6.86259 7.50403 6.86425C7.48997 6.86718 7.47354 6.87061 7.45443 6.87471Z" fill="#DA610A"/>
<path d="M7.42353 7.55882L7.50443 7.57208L7.58532 7.55882C8.32559 7.43745 8.79067 7.45624 9.04467 7.54144C9.34272 7.64141 9.66127 7.63406 9.98839 7.5524C9.89463 8.02291 9.84647 8.47203 9.84647 8.8988C9.84647 9.46036 9.95538 9.9135 10.0513 10.3007L10.0574 10.3253C10.1523 10.7086 10.2267 11.0089 10.2267 11.3532C10.2267 11.6428 10.1339 11.7711 10.0227 11.8498C9.87997 11.9508 9.6214 12.0278 9.20368 12.0278C8.60276 12.0278 8.03903 12.1828 7.51927 12.4848L7.50442 12.4741L7.48958 12.4848C6.96982 12.1828 6.40609 12.0278 5.80518 12.0278C5.38745 12.0278 5.12888 11.9508 4.98618 11.8498C4.87498 11.7711 4.7821 11.6428 4.7821 11.3532C4.7821 11.0089 4.85651 10.7086 4.95147 10.3253C4.9535 10.3171 4.95554 10.3089 4.95758 10.3007C5.05347 9.9135 5.16238 9.46036 5.16238 8.8988C5.16238 8.47203 5.11422 8.02291 5.02046 7.5524C5.34758 7.63406 5.66613 7.64141 5.96418 7.54144C6.21819 7.45624 6.68326 7.43745 7.42353 7.55882Z" fill="#56C6F5" stroke="#E31D1C"/>
<path fill-rule="evenodd" clip-rule="evenodd" d="M8.08861 8.96814L7.51004 8.45386L6.93146 8.96814H7.10289V9.26463L6.20289 9.82529V11.1967H6.03146V11.4539H6.20289H8.81718H9.03146V11.1967H8.81718V9.82529L7.87432 9.23793V8.96814H8.08861Z" fill="#F7FCFF"/>
<path d="M7.51004 8.45386L7.59308 8.36043L7.51004 8.28661L7.42699 8.36043L7.51004 8.45386ZM8.08861 8.96814V9.09314H8.41738L8.17165 8.87472L8.08861 8.96814ZM6.93146 8.96814L6.84842 8.87472L6.60269 9.09314H6.93146V8.96814ZM7.10289 8.96814H7.22789V8.84314H7.10289V8.96814ZM7.10289 9.26463L7.16899 9.37073L7.22789 9.33403V9.26463H7.10289ZM6.20289 9.82529L6.1368 9.71919L6.07789 9.75588V9.82529H6.20289ZM6.20289 11.1967V11.3217H6.32789V11.1967H6.20289ZM6.03146 11.1967V11.0717H5.90646V11.1967H6.03146ZM6.03146 11.4539H5.90646V11.5789H6.03146V11.4539ZM9.03146 11.4539V11.5789H9.15646V11.4539H9.03146ZM9.03146 11.1967H9.15646V11.0717H9.03146V11.1967ZM8.81718 11.1967H8.69218V11.3217H8.81718V11.1967ZM8.81718 9.82529H8.94218V9.75588L8.88327 9.71919L8.81718 9.82529ZM7.87432 9.23793H7.74932V9.30733L7.80823 9.34403L7.87432 9.23793ZM7.87432 8.96814V8.84314H7.74932V8.96814H7.87432ZM7.42699 8.54728L8.00556 9.06157L8.17165 8.87472L7.59308 8.36043L7.42699 8.54728ZM7.01451 9.06157L7.59308 8.54728L7.42699 8.36043L6.84842 8.87472L7.01451 9.06157ZM7.10289 8.84314H6.93146V9.09314H7.10289V8.84314ZM6.97789 8.96814V9.26463H7.22789V8.96814H6.97789ZM7.0368 9.15853L6.1368 9.71919L6.26899 9.93138L7.16899 9.37073L7.0368 9.15853ZM6.07789 9.82529V11.1967H6.32789V9.82529H6.07789ZM6.20289 11.0717H6.03146V11.3217H6.20289V11.0717ZM5.90646 11.1967V11.4539H6.15646V11.1967H5.90646ZM6.03146 11.5789H6.20289V11.3289H6.03146V11.5789ZM6.20289 11.5789H8.81718V11.3289H6.20289V11.5789ZM8.81718 11.5789H9.03146V11.3289H8.81718V11.5789ZM9.15646 11.4539V11.1967H8.90646V11.4539H9.15646ZM9.03146 11.0717H8.81718V11.3217H9.03146V11.0717ZM8.94218 11.1967V9.82529H8.69218V11.1967H8.94218ZM8.88327 9.71919L7.94041 9.13184L7.80823 9.34403L8.75108 9.93138L8.88327 9.71919ZM7.99932 9.23793V8.96814H7.74932V9.23793H7.99932ZM8.08861 8.84314H7.87432V9.09314H8.08861V8.84314Z" fill="#3B3B3B"/>
<path d="M7.4639 13.7653C8.25968 13.7653 8.80752 13.6784 9.08962 13.5304C9.16358 13.4046 9.29328 13.3336 9.4313 13.3387C10.0511 13.3616 10.5312 13.1005 10.9086 12.5266C11.3164 11.9065 11.3983 11.0256 11.1325 9.86945L11.8072 9.71436C12.1117 11.0391 12.0123 12.1082 11.487 12.907C11.0164 13.6228 10.3746 14.0051 9.59141 14.031C9.1914 14.3272 8.49039 14.4576 7.4639 14.4576C6.47086 14.4576 5.73457 14.2648 5.26235 13.8551C4.18993 13.6018 3.50844 13.174 3.24047 12.54C2.95482 11.8642 2.95482 10.926 3.22128 9.71738L3.89735 9.86643C3.65894 10.9478 3.65894 11.7518 3.87816 12.2705C4.03113 12.6325 4.47562 12.9278 5.22864 13.1326L5.92825 13.2822L5.89467 13.4589C6.23597 13.6584 6.75758 13.7653 7.4639 13.7653Z" fill="#FBCD17"/>
<path fill-rule="evenodd" clip-rule="evenodd" d="M5.07505 7.88211C4.99775 8.07425 5.09085 8.29268 5.28299 8.36997L5.2949 8.37477L5.27677 8.41247C5.14536 8.68567 5.37024 8.96756 5.63561 8.95093L5.62697 8.99337C5.54999 9.37157 5.98642 9.5606 6.22777 9.3682C6.38198 9.36443 6.53359 9.27216 6.57916 9.07934L6.62178 8.89896L6.63898 8.90415C6.99265 9.01081 7.23189 8.6207 7.07585 8.35706C7.12298 8.27135 7.13673 8.16741 7.10581 8.0665C7.04514 7.86848 6.83542 7.75714 6.6374 7.81781L6.25048 7.93637C6.19889 7.9219 6.14359 7.91837 6.08781 7.92826C6.05042 7.88579 6.00275 7.85112 5.94642 7.82846L5.56291 7.67417C5.37077 7.59687 5.15235 7.68997 5.07505 7.88211ZM6.62178 8.89896L6.71344 8.5111L6.24021 8.78388L6.62178 8.89896Z" fill="#73BE4A"/>
<path fill-rule="evenodd" clip-rule="evenodd" d="M6.15405 8.85693C6.36116 8.85693 6.52905 8.68904 6.52905 8.48193C6.52905 8.27483 6.36116 8.10693 6.15405 8.10693C5.94695 8.10693 5.77905 8.27483 5.77905 8.48193C5.77905 8.68904 5.94695 8.85693 6.15405 8.85693Z" fill="#FBCD17"/>
<path fill-rule="evenodd" clip-rule="evenodd" d="M9.1808 8.55487C9.17466 8.30266 9.14664 7.72681 9.01867 7.72681C8.88996 7.72681 8.87039 8.30942 8.86791 8.55926C8.64633 8.63169 8.47952 8.82236 8.47952 8.82236H9.58318C9.58318 8.82236 9.40931 8.62362 9.1808 8.55487Z" fill="#F7FCFF"/>
<path d="M3.41284 10.4263L3.59757 10.4584C3.44804 11.318 3.44804 11.9343 3.59246 12.3019C3.76056 12.7297 4.75226 13.3036 5.0328 13.3036V13.4911C4.67997 13.4911 3.61644 12.8756 3.41795 12.3704C3.25791 11.9631 3.25791 11.3169 3.41284 10.4263Z" fill="#73BE4A"/>
<path d="M11.5358 10.3816L11.3509 10.4126C11.4862 11.2191 11.4559 11.8483 11.2636 12.2995C11.0319 12.8433 10.1369 13.5361 9.90226 13.5361V13.7236C10.2182 13.7236 11.1768 12.9815 11.4361 12.373C11.6445 11.8839 11.6765 11.2203 11.5358 10.3816Z" fill="#73BE4A"/>
<path d="M6.2948 14.0679L6.33012 13.8838C6.92755 13.9984 7.33567 14.0556 7.54949 14.0556C7.76286 14.0556 8.14889 13.9985 8.703 13.884L8.74093 14.0677C8.17493 14.1846 7.77931 14.2431 7.54949 14.2431C7.32012 14.2431 6.90356 14.1847 6.2948 14.0679Z" fill="#73BE4A"/>
</g>
</g>
</g>
<rect x="1.75" y="1.25" width="23.5" height="17.5" stroke="black" stroke-opacity="0.1" stroke-width="0.5" shape-rendering="crispEdges"/>
</g>
<defs>
<filter id="filter0_dd_701_20224" x="0" y="0" width="27" height="21" filterUnits="userSpaceOnUse" color-interpolation-filters="sRGB">
<feFlood flood-opacity="0" result="BackgroundImageFix"/>
<feColorMatrix in="SourceAlpha" type="matrix" values="0 0 0 0 0 0 0 0 0 0 0 0 0 0 0 0 0 0 127 0" result="hardAlpha"/>
<feOffset dy="0.5"/>
<feGaussianBlur stdDeviation="0.75"/>
<feComposite in2="hardAlpha" operator="out"/>
<feColorMatrix type="matrix" values="0 0 0 0 0 0 0 0 0 0 0 0 0 0 0 0 0 0 0.1 0"/>
<feBlend mode="multiply" in2="BackgroundImageFix" result="effect1_dropShadow_701_20224"/>
<feColorMatrix in="SourceAlpha" type="matrix" values="0 0 0 0 0 0 0 0 0 0 0 0 0 0 0 0 0 0 127 0" result="hardAlpha"/>
<feOffset/>
<feGaussianBlur stdDeviation="0.5"/>
<feComposite in2="hardAlpha" operator="out"/>
<feColorMatrix type="matrix" values="0 0 0 0 0 0 0 0 0 0 0 0 0 0 0 0 0 0 0.11 0"/>
<feBlend mode="multiply" in2="effect1_dropShadow_701_20224" result="effect2_dropShadow_701_20224"/>
<feBlend mode="normal" in="SourceGraphic" in2="effect2_dropShadow_701_20224" result="shape"/>
</filter>
<clipPath id="clip0_701_20224">
<rect x="1.5" y="1" width="24" height="18" fill="white"/>
</clipPath>
</defs>
</svg>
