<svg viewBox="0 0 27 21" fill="none" xmlns="http://www.w3.org/2000/svg">
<g filter="url(#filter0_dd_701_21200)">
<g clip-path="url(#clip0_701_21200)">
<mask id="mask0_701_21200" style="mask-type:alpha" maskUnits="userSpaceOnUse" x="1" y="1" width="25" height="18">
<rect x="1.5" y="1" width="24" height="18" fill="white"/>
</mask>
<g mask="url(#mask0_701_21200)">
<rect x="1.5" y="1" width="24" height="18" rx="2" fill="#E11C1B"/>
<path fill-rule="evenodd" clip-rule="evenodd" d="M1.5 1L25.5 19H1.5V1Z" fill="#1D1D1D"/>
<path fill-rule="evenodd" clip-rule="evenodd" d="M6.81255 14.7013H7.81141L8.28645 13.5813L8.84481 14.6937L9.8682 14.7497L8.9936 15.7016L9.44267 16.8484L8.33097 16.2101L7.30439 16.8541L7.69164 15.7407L6.81255 14.7013Z" fill="#EEEEF6"/>
<path fill-rule="evenodd" clip-rule="evenodd" d="M3.81255 11.7013H4.81141L5.28645 10.5813L5.84481 11.6937L6.8682 11.7497L5.9936 12.7016L6.44267 13.8484L5.33097 13.2101L4.30439 13.8541L4.69164 12.7407L3.81255 11.7013Z" fill="#EEEEF6"/>
<path fill-rule="evenodd" clip-rule="evenodd" d="M6.81255 10.2013H7.81141L8.28645 9.0813L8.84481 10.1937L9.8682 10.2497L8.9936 11.2016L9.44267 12.3484L8.33097 11.7101L7.30439 12.3541L7.69164 11.2407L6.81255 10.2013Z" fill="#EEEEF6"/>
<path fill-rule="evenodd" clip-rule="evenodd" d="M8.78343 13.4231L9.47004 13.4003L9.71789 12.6921L9.99615 13.3965L10.6279 13.4572L10.059 13.8595L10.5179 14.5718L9.72178 14.2741L9.03181 14.5814L9.39618 13.8791L8.78343 13.4231Z" fill="#EEEEF6"/>
<path fill-rule="evenodd" clip-rule="evenodd" d="M10.2834 11.9231L10.97 11.9003L11.2179 11.1921L11.4962 11.8965L12.1279 11.9572L11.559 12.3595L12.0179 13.0718L11.2218 12.7741L10.5318 13.0814L10.8962 12.3791L10.2834 11.9231Z" fill="#EEEEF6"/>
<path fill-rule="evenodd" clip-rule="evenodd" d="M17.3129 2.5C17.3129 2.5 14.9963 2.96215 15.6465 6.18238H15.316C15.316 6.18238 15.343 6.01435 15.0253 5.91582C14.7075 5.8173 14.7712 5.85428 14.6072 5.91582C14.4432 5.97736 13.4456 5.91582 13.4456 5.91582V6.03909L14.1516 6.34398C14.1516 6.34398 14.1342 6.59785 14.4293 6.73853C14.7244 6.87921 14.9387 6.947 14.9387 6.947C14.9387 6.947 14.9824 7.22714 14.7059 7.22714C14.4293 7.22714 13.317 6.86658 12.9214 7.75242C12.5258 8.63826 12 9.28822 12 9.28822H12.5932L12.434 9.48603H13.1019L12.9214 9.58851C12.9214 9.58851 13.7477 9.57933 13.8121 9.48603C13.8766 9.39274 13.8121 9.73895 13.8121 9.73895C13.8121 9.73895 14.6126 9.37341 14.6565 9.28822L15.0301 9.54451L15.1365 9.11081L15.5374 9.28822L15.6465 8.87498C15.6465 8.87498 16.7806 10.7716 17.6407 10.6627V10.348L18.4256 10.6627L18.5253 10.5228C18.5253 10.5228 19.4735 10.9094 19.7653 10.9452L19.5571 10.5228H19.7653L19.5571 9.73895H19.7653L19.3489 9.11081L19.4656 8.94073L19.3884 8.71721C19.3884 8.71721 20.915 9.20353 20.8462 9.97726C20.7773 10.751 20.0974 11.0632 20.0974 11.0632C20.0974 11.0632 19.4454 11.2629 18.8565 11.22C18.8565 11.22 19.324 11.7722 20.3131 11.5851C21.3022 11.3979 21.63 10.4389 21.63 10.4389C21.63 10.4389 22.0835 11.3809 21.7102 11.8762C21.3368 12.3715 19.6744 12.7193 19.6744 12.7193C19.6744 12.7193 20.2759 13.0719 20.8462 12.9816C21.4164 12.8912 22.3032 12.3949 22.4752 11.5851C22.6471 10.7752 21.882 9.28088 21.5355 9.11081L21.3986 8.59235L21.7102 8.71721L21.0709 7.15387L21.3809 7.22179L20.4764 6.09668L20.7254 6.01996L19.4759 5.12175L19.8498 5.02297C19.8498 5.02297 18.9262 4.55489 17.8726 5.12175L17.8825 4.92591L17.6056 4.97271L17.622 4.7573L17.8972 4.34036L17.4841 4.18119C17.4841 4.18119 17.8181 3.67951 17.7679 3.68639C17.7679 3.68639 17.3957 3.79321 17.4169 3.74844C17.4169 3.74844 17.6046 3.26493 17.5552 3.27788C17.5552 3.27788 17.1236 3.42468 17.1875 3.35121L17.3534 3.05583L17.3129 2.5Z" fill="#FBCD17"/>
</g>
</g>
<rect x="1.75" y="1.25" width="23.5" height="17.5" stroke="black" stroke-opacity="0.1" stroke-width="0.5" shape-rendering="crispEdges"/>
</g>
<defs>
<filter id="filter0_dd_701_21200" x="0" y="0" width="27" height="21" filterUnits="userSpaceOnUse" color-interpolation-filters="sRGB">
<feFlood flood-opacity="0" result="BackgroundImageFix"/>
<feColorMatrix in="SourceAlpha" type="matrix" values="0 0 0 0 0 0 0 0 0 0 0 0 0 0 0 0 0 0 127 0" result="hardAlpha"/>
<feOffset dy="0.5"/>
<feGaussianBlur stdDeviation="0.75"/>
<feComposite in2="hardAlpha" operator="out"/>
<feColorMatrix type="matrix" values="0 0 0 0 0 0 0 0 0 0 0 0 0 0 0 0 0 0 0.1 0"/>
<feBlend mode="multiply" in2="BackgroundImageFix" result="effect1_dropShadow_701_21200"/>
<feColorMatrix in="SourceAlpha" type="matrix" values="0 0 0 0 0 0 0 0 0 0 0 0 0 0 0 0 0 0 127 0" result="hardAlpha"/>
<feOffset/>
<feGaussianBlur stdDeviation="0.5"/>
<feComposite in2="hardAlpha" operator="out"/>
<feColorMatrix type="matrix" values="0 0 0 0 0 0 0 0 0 0 0 0 0 0 0 0 0 0 0.11 0"/>
<feBlend mode="multiply" in2="effect1_dropShadow_701_21200" result="effect2_dropShadow_701_21200"/>
<feBlend mode="normal" in="SourceGraphic" in2="effect2_dropShadow_701_21200" result="shape"/>
</filter>
<clipPath id="clip0_701_21200">
<rect x="1.5" y="1" width="24" height="18" fill="white"/>
</clipPath>
</defs>
</svg>