<svg viewBox="0 0 27 21" fill="none" xmlns="http://www.w3.org/2000/svg">
<g filter="url(#filter0_dd_701_21462)">
<g clip-path="url(#clip0_701_21462)">
<mask id="mask0_701_21462" style="mask-type:alpha" maskUnits="userSpaceOnUse" x="1" y="1" width="25" height="18">
<rect x="1.5" y="1" width="24" height="18" fill="white"/>
</mask>
<g mask="url(#mask0_701_21462)">
<path fill-rule="evenodd" clip-rule="evenodd" d="M18 1H25.5V19H18V1Z" fill="#409100"/>
<path fill-rule="evenodd" clip-rule="evenodd" d="M1.5 1H9V19H1.5V1Z" fill="#409100"/>
<path fill-rule="evenodd" clip-rule="evenodd" d="M9 1H18V19H9V1Z" fill="white"/>
<path fill-rule="evenodd" clip-rule="evenodd" d="M11.0215 15.078C9.85481 15.2678 9.48692 14.6983 9.48692 14.6983L9.63386 14.5776C9.73254 14.4966 10.0649 14.5244 10.3878 14.5514C10.5456 14.5646 10.7012 14.5776 10.826 14.5776C11.0081 14.5776 11.2177 14.5501 11.436 14.5215L11.436 14.5215C11.6734 14.4904 11.9211 14.4579 12.1552 14.4579C12.6045 14.4579 10.826 13.8703 10.446 14.2307C10.0659 14.5911 9 14.0637 9 13.763C9 13.5578 9.39239 13.6326 9.75031 13.7009C9.91696 13.7326 10.0761 13.763 10.1847 13.763C10.5266 13.763 9.84285 13.096 9.48692 13.096C9.13099 13.096 9.84285 12.9411 10.1847 12.9411C10.3794 12.9411 10.5603 12.9913 10.7161 13.0346C10.8339 13.0673 10.9374 13.096 11.0215 13.096C11.217 13.096 10.0399 12.5901 9.84285 12.5901H10.826C11.1635 12.5901 11.2454 12.6376 11.3231 12.6827C11.393 12.7233 11.4594 12.7619 11.7059 12.7619C12.2259 12.7619 11.9411 12.4774 11.9411 12.4774C11.9411 12.4774 10.1847 12.295 9.84285 12.0432C9.61166 11.8729 10.2321 11.9329 10.8184 11.9896C11.0992 12.0168 11.3723 12.0432 11.5402 12.0432C12.0589 12.0432 10.446 11.6729 10.1847 11.6729H11.3734C11.6336 11.6729 11.9193 11.7566 12.219 11.8444C12.5498 11.9413 12.8976 12.0432 13.2473 12.0432C13.6159 12.0432 12.896 11.8233 12.1051 11.5817C11.466 11.3865 10.7805 11.1771 10.5858 11.0582C10.3843 10.9352 10.5375 10.9828 10.8167 11.0696C11.1413 11.1705 11.6359 11.3243 11.9411 11.3243C12.5089 11.3243 11.1858 10.7673 10.826 10.7673C10.4663 10.7673 10.1219 10.6054 10.446 10.4557C10.6449 10.3638 11.1632 10.5022 11.6146 10.6228C11.8984 10.6986 12.1558 10.7673 12.2908 10.7673C12.4544 10.7673 12.5754 10.831 12.7042 10.8988C12.8505 10.9759 13.0069 11.0582 13.2473 11.0582C13.6992 11.0582 12.2908 10.4557 11.7059 10.4557C11.1209 10.4557 11.0215 10.1719 11.3734 10.1719C11.7253 10.1719 10.5858 9.68846 10.5858 9.68846C10.5858 9.68846 10.4206 9.34558 10.826 9.34558H11.3734C11.561 9.34558 11.1858 8.75091 10.826 8.75091C10.4663 8.75091 10.78 8.57125 11.3734 8.57125C11.7342 8.57125 11.9453 8.69579 12.1993 8.84563C12.363 8.94221 12.5445 9.0493 12.7954 9.14034C13.4356 9.37263 12.9527 8.75091 12.7954 8.75091C12.6381 8.75091 11.0215 8.24417 11.0215 8.24417C11.0215 8.24417 11.1858 8.05751 11.0215 7.80333C10.8976 7.61152 11.4135 7.7092 11.7276 7.76869C11.8298 7.78803 11.9106 7.80333 11.9411 7.80333C12.0155 7.80333 12.229 7.8564 12.4913 7.92157L12.4913 7.92158L12.4914 7.92159L12.4914 7.92159C12.6684 7.96558 12.8675 8.01509 13.0611 8.05751C13.5414 8.16278 11.4295 7.28195 11.1858 7.28195C10.9422 7.28195 11.7059 7.13722 12.1552 7.13722C12.3761 7.13722 12.4827 7.1722 12.591 7.20777C12.703 7.24455 12.8169 7.28195 13.0611 7.28195C13.5414 7.28195 12.1552 6.76713 11.7059 6.76713C11.2565 6.76713 11.5222 6.32382 11.7059 6.32382C11.7774 6.32382 11.9583 6.3476 12.1794 6.37665L12.1794 6.37666C12.5261 6.42222 12.9714 6.48073 13.2473 6.48073C13.4574 6.48073 13.2654 6.42187 12.9861 6.33625C12.6647 6.2377 12.2278 6.10371 12.1552 5.98325C12.0751 5.85029 12.2381 5.87438 12.5222 5.91639C12.5736 5.92399 12.6289 5.93216 12.6874 5.94011C12.8812 6.04162 13.043 6.10719 13.0667 6.02976C13.0735 6.00749 13.0887 5.99158 13.1081 5.98013C13.1538 5.98213 13.2003 5.98325 13.2473 5.98325C13.5151 5.98325 13.3914 5.94243 13.1336 5.89359L13.1105 5.88653C12.7193 5.76695 11.8729 5.5113 12.1895 5.66906C12.2515 5.69996 12.3212 5.73808 12.3935 5.77835C12.1801 5.75006 12.0008 5.73046 11.9411 5.73046C11.7271 5.73046 11.5124 5.56507 11.9411 5.56507H12.7954C12.5298 5.56507 12.1552 5.56507 12.1552 5.35636C12.1552 5.21432 12.4518 5.26562 12.725 5.31289L12.725 5.31289C12.8532 5.33507 12.9762 5.35636 13.0611 5.35636C13.3267 5.35636 13.3929 5.35636 13.2473 5.2322C13.1091 5.11431 12.6324 5.11489 12.3364 5.11525L12.2908 5.11529C12.0008 5.11529 12.9056 4.96377 13.2473 4.96377C13.3047 4.96377 13.3301 4.96377 13.3301 4.96268C13.3302 4.96183 13.3144 4.96029 13.2861 4.95754C13.1375 4.94309 12.6435 4.89506 12.2908 4.73549C11.9752 4.59273 12.2517 4.62852 12.6136 4.67537C12.8305 4.70344 13.078 4.73549 13.2473 4.73549C13.6992 4.73549 13.0611 4.4316 12.5808 4.4316C12.1952 4.4316 12.3789 4.32629 12.6173 4.18963C12.6759 4.15603 12.7378 4.12054 12.7954 4.08425C12.9687 3.975 13.0956 4.16137 13.17 4.27072C13.2209 4.34544 13.2473 4.3842 13.2473 4.26814C13.2473 4.15484 13.2181 4.08296 13.1943 4.04518C13.207 4.05583 13.2243 4.06892 13.2473 4.08425C13.4335 4.20848 13.2473 3.75832 13.2473 3.75832C13.2473 3.75832 13.0611 3.634 13.2473 3.634C13.4335 3.634 13.1874 3.42029 13.0611 3.42029C12.9348 3.42029 13.3929 3.21582 13.3929 3.21582L13.4938 2.3501C13.4938 2.3501 13.7435 3.29343 13.7435 3.42029V4.08425C13.7435 4.24231 13.6317 4.3526 13.557 4.42639C13.4632 4.51893 13.4276 4.55406 13.7435 4.55406C14.3112 4.55406 14.287 4.73549 13.9414 4.73549C13.5958 4.73549 14.0407 4.96377 14.6612 4.96377C15.2817 4.96377 14.1408 5.2322 13.7435 5.2322C13.3461 5.2322 14.1408 5.35636 14.6612 5.35636C15.0126 5.35636 14.6521 5.47781 14.3196 5.58986C14.1597 5.64375 14.0062 5.69547 13.9414 5.73046C13.8383 5.7862 14.0926 5.78427 14.3621 5.76941C14.2204 5.81114 14.0798 5.8539 13.9731 5.88653L13.9731 5.88654C13.8436 5.92611 13.7999 5.93949 13.8008 5.94487C13.8013 5.94762 13.8135 5.94828 13.8319 5.94928C13.8862 5.95224 13.995 5.95815 14.0169 6.02976C14.0495 6.13664 14.3456 5.97102 14.6253 5.81451C14.6701 5.78944 14.7145 5.76461 14.7573 5.74116C14.8308 5.73494 14.8781 5.73046 14.8781 5.73046C14.8781 5.73046 15.1352 6.02718 15.1352 6.20837C15.1352 6.31405 14.797 6.34519 14.4362 6.37841H14.4362L14.3998 6.38176C14.4179 6.35794 14.3412 6.37041 14.2285 6.39827C14.0414 6.41753 13.8646 6.44137 13.7435 6.48073C13.6277 6.51834 13.6472 6.53403 13.7413 6.5374L13.7158 6.5452C13.6271 6.5723 13.5967 6.58159 13.5974 6.58693C13.5978 6.58972 13.6066 6.59143 13.6201 6.59404C13.6593 6.60163 13.7377 6.61682 13.7596 6.68844C13.7922 6.79532 13.9899 6.65975 14.1767 6.53166L14.1943 6.51955C14.2528 6.51577 14.3127 6.51173 14.3718 6.50773L14.372 6.50771H14.372C14.5753 6.49396 14.7709 6.48073 14.8781 6.48073C15.213 6.48073 14.5432 6.6422 14.287 6.6422C14.178 6.6422 14.3154 6.66688 14.5248 6.70453H14.5248L14.5249 6.70453C14.8077 6.75536 15.2219 6.82982 15.3389 6.89907C15.4788 6.98183 15.0681 6.95094 14.7026 6.92345H14.7026H14.7026H14.7026L14.7025 6.92345C14.5357 6.91091 14.3783 6.89907 14.287 6.89907C13.9956 6.89907 13.9414 7.13722 14.1408 7.13722H14.8781C15.1569 7.13722 15.4472 7.5638 15.3389 7.5638C15.3061 7.5638 15.2358 7.58578 15.1379 7.61643C14.9125 7.68695 14.5404 7.80333 14.1408 7.80333C13.5676 7.80333 14.8781 7.80395 15.1352 7.80333C15.3924 7.80271 16.126 7.80395 16.126 8.05751C16.126 8.21524 15.9871 8.24989 15.8051 8.29529C15.6946 8.32287 15.5681 8.35443 15.4472 8.41997C15.1273 8.59337 16.4039 8.75091 16.4039 8.75091C16.4039 8.75091 15.8986 8.90805 15.6527 8.90805C15.4069 8.90805 15.7671 9.14034 16.4039 9.14034C16.8965 9.14034 16.7519 9.40803 16.6612 9.57592C16.6346 9.62504 16.6127 9.66562 16.6127 9.68846C16.6127 9.73261 16.5195 9.77071 16.3846 9.82586C16.2112 9.89672 15.9689 9.99574 15.7671 10.1719C15.5349 10.3746 15.817 10.315 16.1358 10.2477L16.1358 10.2477C16.3097 10.211 16.4946 10.1719 16.6127 10.1719C16.9474 10.1719 17.09 10.1859 16.981 10.3482C16.872 10.5105 15.8986 10.7673 15.6527 10.7673H16.981C17.3493 10.7673 16.8778 11.0582 16.4039 11.0582C16.086 11.0582 15.9081 11.1779 15.7909 11.2567C15.7333 11.2954 15.6904 11.3243 15.6527 11.3243H16.6127C16.6616 11.3243 16.7154 11.2461 16.7646 11.1745C16.808 11.1115 16.8478 11.0535 16.8778 11.0582C17.3121 11.1264 17.1172 11.6729 16.8778 11.6729C16.603 11.6729 15.7671 11.8572 15.8986 12.0432C15.9623 12.1332 16.0617 12.0925 16.2229 12.0266C16.3948 11.9563 16.637 11.8572 16.981 11.8572C17.6475 11.8572 17.0451 12.0432 16.8778 12.0432C16.7106 12.0432 16.0029 12.1783 15.7671 12.295C15.6097 12.373 16.1574 12.3469 16.7022 12.3209L16.7022 12.3209C16.9735 12.3079 17.2441 12.295 17.4265 12.295C17.9751 12.295 16.126 12.7619 15.4472 12.7619C14.7684 12.7619 15.8986 12.9411 16.126 12.9411C16.2132 12.9411 16.3825 12.9639 16.5911 12.992L16.5911 12.992C16.9264 13.0372 17.3634 13.096 17.7254 13.096C18.3125 13.096 17.1382 13.4828 16.6127 13.4828C16.5721 13.4828 16.5321 13.4827 16.4929 13.4825H16.4926C16.024 13.4806 15.6718 13.4791 15.8986 13.763C16.0248 13.9208 16.4445 13.8779 16.8826 13.833C17.2984 13.7904 17.7308 13.7462 17.9443 13.8703C18.3278 14.0935 16.6308 14.0742 15.8987 14.0659H15.8987H15.8987H15.8987C15.794 14.0647 15.7091 14.0637 15.6527 14.0637C15.2026 14.0637 16.1029 14.2307 16.8778 14.2307L16.9756 14.2307C17.668 14.2302 17.8321 14.2301 17.8321 14.4579C17.8321 14.6581 16.3238 14.6063 15.6943 14.5847C15.5749 14.5806 15.4871 14.5776 15.4472 14.5776C15.3266 14.5776 15.2567 14.6505 15.1844 14.7259C15.1069 14.8067 15.0266 14.8904 14.8781 14.8904C14.7557 14.8904 14.6983 14.8122 14.6459 14.7408C14.5753 14.6446 14.514 14.561 14.3156 14.6983C13.97 14.9375 14.6612 17.3501 14.6612 17.3501H12.7954V15.078C12.7954 15.078 12.1883 14.8881 11.0215 15.078ZM13.165 4.01245C13.1624 4.01299 13.1696 4.02444 13.1943 4.04518C13.18 4.02227 13.1676 4.0119 13.165 4.01245ZM12.5159 13.0178C12.2211 12.9069 12.9681 12.9012 13.3137 12.9012C13.4251 12.9012 13.4647 12.9012 13.4672 12.9107C13.4685 12.916 13.4586 12.9241 13.4433 12.9368C13.4001 12.9724 13.3137 13.0437 13.3137 13.1863C13.3137 13.3991 13.0336 13.2623 12.769 13.1331L12.7689 13.133C12.6789 13.0891 12.5907 13.046 12.5159 13.0178ZM13.1267 12.1493C12.7811 12.1493 12.034 12.155 12.3288 12.266C12.4037 12.2942 12.4919 12.3373 12.5819 12.3812L12.5819 12.3812C12.8466 12.5105 13.1267 12.6473 13.1267 12.4345C13.1267 12.2919 13.2131 12.2206 13.2563 12.185C13.2716 12.1723 13.2815 12.1642 13.2801 12.1589C13.2777 12.1493 13.2381 12.1493 13.1267 12.1493ZM12.5035 11.6468C12.2628 11.5885 12.8727 11.5855 13.1549 11.5855C13.2475 11.5855 13.2793 11.5855 13.2802 11.5908C13.2807 11.5935 13.2728 11.5978 13.2607 11.6042L13.2607 11.6042C13.2254 11.6229 13.1549 11.6604 13.1549 11.7352C13.1549 11.847 12.9262 11.7752 12.7101 11.7073C12.6366 11.6842 12.5646 11.6615 12.5035 11.6468ZM13.1105 9.26972C12.7193 9.15014 11.8729 8.89449 12.1895 9.05225C12.2699 9.09229 12.3631 9.14446 12.4583 9.19769L12.4583 9.1977C12.738 9.35421 13.034 9.51984 13.0667 9.41296C13.0886 9.34134 13.1973 9.33543 13.2517 9.33247C13.2701 9.33147 13.2822 9.33081 13.2827 9.32806C13.2837 9.32268 13.2399 9.3093 13.1105 9.26975L13.1105 9.26974L13.1105 9.26973L13.1105 9.26973L13.1105 9.26972ZM12.1895 8.30043C11.8729 8.14267 12.7193 8.39832 13.1105 8.5179L13.1105 8.51791L13.1105 8.51791L13.1105 8.51791L13.1105 8.51792C13.2399 8.55748 13.2837 8.57086 13.2827 8.57624C13.2822 8.57899 13.2701 8.57965 13.2517 8.58065C13.1973 8.58361 13.0886 8.58952 13.0667 8.66114C13.034 8.76802 12.738 8.60239 12.4583 8.44588L12.4583 8.44587C12.3631 8.39264 12.2699 8.34047 12.1895 8.30043ZM13.1105 7.57813C12.7193 7.45854 11.8729 7.20289 12.1895 7.36065C12.2699 7.40069 12.3631 7.45287 12.4583 7.5061L12.4583 7.50611C12.738 7.66261 13.034 7.82824 13.0667 7.72136C13.0886 7.64974 13.1973 7.64383 13.2517 7.64088C13.2701 7.63988 13.2822 7.63921 13.2827 7.63647C13.2837 7.63108 13.2399 7.61771 13.1105 7.57815L13.1105 7.57814L13.1105 7.57814L13.1105 7.57813L13.1105 7.57813ZM13.9569 12.7132C14.3024 12.7132 15.0495 12.7189 14.7547 12.8299C14.6799 12.858 14.5917 12.9011 14.5016 12.9451L14.5016 12.9451C14.237 13.0744 13.9569 13.2111 13.9569 12.9984C13.9569 12.8558 13.8705 12.7845 13.8273 12.7488C13.8119 12.7362 13.8021 12.728 13.8034 12.7228C13.8059 12.7132 13.8454 12.7132 13.9569 12.7132ZM14.7547 12.266C15.0495 12.155 14.3024 12.1493 13.9569 12.1493C13.8454 12.1493 13.8059 12.1493 13.8034 12.1589C13.8021 12.1642 13.8119 12.1723 13.8273 12.185C13.8705 12.2206 13.9569 12.2919 13.9569 12.4345C13.9569 12.6473 14.237 12.5105 14.5016 12.3812L14.5016 12.3812C14.5917 12.3373 14.6799 12.2942 14.7547 12.266ZM13.9287 11.2096C14.1638 11.2096 15.0632 11.0015 15.2171 10.9659C15.2479 10.9588 15.2489 10.9585 15.2088 10.9682C15.1293 10.9875 14.9629 11.053 14.7755 11.1266L14.7755 11.1267C14.3951 11.2762 13.9287 11.4597 13.9287 11.3593C13.9287 11.2844 13.8581 11.247 13.8229 11.2283L13.8229 11.2283C13.8108 11.2219 13.8028 11.2176 13.8033 11.2149C13.8042 11.2096 13.836 11.2096 13.9287 11.2096ZM14.894 8.67634C15.2107 8.51858 14.3642 8.77423 13.9731 8.89381L13.9731 8.89382L13.973 8.89382L13.973 8.89383L13.973 8.89384C13.8436 8.93339 13.7999 8.94677 13.8008 8.95215C13.8013 8.9549 13.8135 8.95556 13.8319 8.95656C13.8862 8.95952 13.995 8.96543 14.0169 9.03705C14.0495 9.14393 14.3456 8.9783 14.6253 8.82179C14.7204 8.76856 14.8137 8.71638 14.894 8.67634ZM13.9731 9.64563C14.3642 9.52605 15.2107 9.2704 14.894 9.42816C14.8137 9.4682 14.7204 9.52038 14.6253 9.57361C14.3456 9.73012 14.0495 9.89575 14.0169 9.78887C13.995 9.71725 13.8862 9.71134 13.8319 9.70838C13.8135 9.70738 13.8013 9.70672 13.8008 9.70397C13.7999 9.69859 13.8436 9.68521 13.973 9.64566L13.973 9.64565L13.973 9.64564L13.9731 9.64564L13.9731 9.64563ZM14.894 7.92452C15.2107 7.76676 14.3642 8.02241 13.9731 8.14199L13.9731 8.142L13.973 8.142L13.973 8.142L13.973 8.14201C13.8436 8.18157 13.7999 8.19495 13.8008 8.20033C13.8013 8.20308 13.8135 8.20374 13.8319 8.20474C13.8862 8.2077 13.995 8.21361 14.0169 8.28523C14.0495 8.39211 14.3456 8.22648 14.6253 8.06997C14.7204 8.01674 14.8137 7.96456 14.894 7.92452ZM13.7158 7.48498C13.9856 7.40249 14.5697 7.22703 14.3566 7.35315C14.3025 7.38515 14.2402 7.42786 14.1767 7.47142L14.1767 7.47143C13.9899 7.59953 13.7922 7.73509 13.7596 7.62821C13.7377 7.5566 13.6593 7.54141 13.6201 7.53382C13.6066 7.53121 13.5978 7.5295 13.5974 7.52671C13.5967 7.52137 13.6271 7.51207 13.7158 7.48498ZM13.8879 10.3454C13.5781 10.3454 13.8879 10.1006 13.8879 10.1006H14.0474C14.1022 10.1006 14.1511 10.078 14.2153 10.0484C14.3382 9.99175 14.5171 9.90922 14.9005 9.90922C15.4842 9.90922 14.1977 10.3454 13.8879 10.3454Z" fill="#409100"/>
</g>
</g>
<rect x="1.75" y="1.25" width="23.5" height="17.5" stroke="black" stroke-opacity="0.1" stroke-width="0.5" shape-rendering="crispEdges"/>
</g>
<defs>
<filter id="filter0_dd_701_21462" x="0" y="0" width="27" height="21" filterUnits="userSpaceOnUse" color-interpolation-filters="sRGB">
<feFlood flood-opacity="0" result="BackgroundImageFix"/>
<feColorMatrix in="SourceAlpha" type="matrix" values="0 0 0 0 0 0 0 0 0 0 0 0 0 0 0 0 0 0 127 0" result="hardAlpha"/>
<feOffset dy="0.5"/>
<feGaussianBlur stdDeviation="0.75"/>
<feComposite in2="hardAlpha" operator="out"/>
<feColorMatrix type="matrix" values="0 0 0 0 0 0 0 0 0 0 0 0 0 0 0 0 0 0 0.1 0"/>
<feBlend mode="multiply" in2="BackgroundImageFix" result="effect1_dropShadow_701_21462"/>
<feColorMatrix in="SourceAlpha" type="matrix" values="0 0 0 0 0 0 0 0 0 0 0 0 0 0 0 0 0 0 127 0" result="hardAlpha"/>
<feOffset/>
<feGaussianBlur stdDeviation="0.5"/>
<feComposite in2="hardAlpha" operator="out"/>
<feColorMatrix type="matrix" values="0 0 0 0 0 0 0 0 0 0 0 0 0 0 0 0 0 0 0.11 0"/>
<feBlend mode="multiply" in2="effect1_dropShadow_701_21462" result="effect2_dropShadow_701_21462"/>
<feBlend mode="normal" in="SourceGraphic" in2="effect2_dropShadow_701_21462" result="shape"/>
</filter>
<clipPath id="clip0_701_21462">
<rect x="1.5" y="1" width="24" height="18" fill="white"/>
</clipPath>
</defs>
</svg>