<svg width="27" height="21" viewBox="0 0 27 21" fill="none" xmlns="http://www.w3.org/2000/svg">
<g filter="url(#filter0_dd_701_20292)">
<g clip-path="url(#clip0_701_20292)">
<mask id="mask0_701_20292" style="mask-type:alpha" maskUnits="userSpaceOnUse" x="1" y="1" width="25" height="18">
<rect x="1.5" y="1" width="24" height="18" fill="white"/>
</mask>
<g mask="url(#mask0_701_20292)">
<path fill-rule="evenodd" clip-rule="evenodd" d="M1.5 13H25.5V19H1.5V13Z" fill="#4E8B1D"/>
<path fill-rule="evenodd" clip-rule="evenodd" d="M1.5 1H25.5V5.5H1.5V1Z" fill="#4E8B1D"/>
<path d="M1.5 5.5H0V7V13V14.5H1.5H25.5H27V13V7V5.5H25.5H1.5Z" fill="#AF0100" stroke="white" stroke-width="3"/>
<path fill-rule="evenodd" clip-rule="evenodd" d="M13.5018 11.8707L11.6311 13L12.0578 10.7962L10.5 9.14695L12.6094 9.05777L13.5018 7L14.3942 9.05777H16.5L14.9458 10.7962L15.4137 13L13.5018 11.8707Z" fill="#FECA00"/>
</g>
</g>
<rect x="1.75" y="1.25" width="23.5" height="17.5" stroke="black" stroke-opacity="0.1" stroke-width="0.5" shape-rendering="crispEdges"/>
</g>
<defs>
<filter id="filter0_dd_701_20292" x="0" y="0" width="27" height="21" filterUnits="userSpaceOnUse" color-interpolation-filters="sRGB">
<feFlood flood-opacity="0" result="BackgroundImageFix"/>
<feColorMatrix in="SourceAlpha" type="matrix" values="0 0 0 0 0 0 0 0 0 0 0 0 0 0 0 0 0 0 127 0" result="hardAlpha"/>
<feOffset dy="0.5"/>
<feGaussianBlur stdDeviation="0.75"/>
<feComposite in2="hardAlpha" operator="out"/>
<feColorMatrix type="matrix" values="0 0 0 0 0 0 0 0 0 0 0 0 0 0 0 0 0 0 0.1 0"/>
<feBlend mode="multiply" in2="BackgroundImageFix" result="effect1_dropShadow_701_20292"/>
<feColorMatrix in="SourceAlpha" type="matrix" values="0 0 0 0 0 0 0 0 0 0 0 0 0 0 0 0 0 0 127 0" result="hardAlpha"/>
<feOffset/>
<feGaussianBlur stdDeviation="0.5"/>
<feComposite in2="hardAlpha" operator="out"/>
<feColorMatrix type="matrix" values="0 0 0 0 0 0 0 0 0 0 0 0 0 0 0 0 0 0 0.11 0"/>
<feBlend mode="multiply" in2="effect1_dropShadow_701_20292" result="effect2_dropShadow_701_20292"/>
<feBlend mode="normal" in="SourceGraphic" in2="effect2_dropShadow_701_20292" result="shape"/>
</filter>
<clipPath id="clip0_701_20292">
<rect x="1.5" y="1" width="24" height="18" fill="white"/>
</clipPath>
</defs>
</svg>
