<svg viewBox="0 0 27 21" fill="none" xmlns="http://www.w3.org/2000/svg">
<g filter="url(#filter0_dd_701_21885)">
<g clip-path="url(#clip0_701_21885)">
<mask id="mask0_701_21885" style="mask-type:alpha" maskUnits="userSpaceOnUse" x="1" y="1" width="25" height="18">
<rect x="1.5" y="1" width="24" height="18" fill="white"/>
</mask>
<g mask="url(#mask0_701_21885)">
<path fill-rule="evenodd" clip-rule="evenodd" d="M18 1H25.5V19H18V1Z" fill="#D9071E"/>
<path fill-rule="evenodd" clip-rule="evenodd" d="M1.5 1H10.5V19H1.5V1Z" fill="#3D58DB"/>
<path fill-rule="evenodd" clip-rule="evenodd" d="M9 1H18V19H9V1Z" fill="#FBCD17"/>
<path fill-rule="evenodd" clip-rule="evenodd" d="M17.7888 15.7105L16.999 16.1421L14.3811 11.3505L15.1709 10.9189L17.7888 15.7105ZM9.3851 15.8258L10.1749 16.2573L12.7928 11.4657L12.003 11.0342L9.3851 15.8258Z" fill="#FD1900"/>
<path fill-rule="evenodd" clip-rule="evenodd" d="M10.0335 8.04179V12.2053C10.0335 13.1302 9.23716 14.3355 8.83551 14.7839C8.43386 15.2324 7.63614 16.2597 7.63614 16.2597V5.05626C7.63614 3.79959 8.83551 3.3679 8.83551 3.3679C8.83551 3.3679 9.83137 3.56492 10.0335 5.05626V6.50973C10.3418 6.75247 11.371 7.49691 12.036 7.18265C12.8254 6.80952 13.0981 5.73931 13.0981 5.73931C13.0981 5.73931 13.0243 4.65939 12.7002 4.65939C12.3762 4.65939 12.3503 3.13818 13.5913 3.13818C14.8322 3.13818 14.9769 3.72455 14.9769 4.19197C14.9769 4.43699 14.7805 4.83021 14.5936 5.2044C14.4239 5.54406 14.2621 5.86804 14.2621 6.05128C14.2621 6.4364 14.5523 7.18265 14.9769 7.18265C15.2747 7.18265 16.7071 6.62615 17.5361 6.29374V5.05626C17.7383 3.56492 18.7342 3.3679 18.7342 3.3679C18.7342 3.3679 19.9335 3.79959 19.9335 5.05626V16.2597C19.9335 16.2597 19.1358 15.2324 18.7342 14.7839C18.3325 14.3355 17.5361 13.1302 17.5361 12.2053V8.04179H10.0335ZM11.3626 15.8742C12.1738 15.346 13.3604 12.9776 13.3604 12.9776L13.7544 13.0692C13.7544 13.0692 14.356 14.6379 16.1247 15.8742C14.2394 16.3773 13.7544 17.3876 13.7544 17.3876C13.7544 16.5794 11.3626 15.8742 11.3626 15.8742ZM11.232 14.375C11.7788 14.375 12.222 13.9553 12.222 13.4375C12.222 12.9198 11.7788 12.5 11.232 12.5C10.6852 12.5 10.242 12.9198 10.242 13.4375C10.242 13.9553 10.6852 14.375 11.232 14.375ZM17.04 13.4375C17.04 13.9553 16.5968 14.375 16.05 14.375C15.5032 14.375 15.06 13.9553 15.06 13.4375C15.06 12.9198 15.5032 12.5 16.05 12.5C16.5968 12.5 17.04 12.9198 17.04 13.4375Z" fill="#A77B3B"/>
<path d="M20.355 8.80566L21.0434 9.10323L18.2388 15.5922L17.5503 15.2946L20.355 8.80566Z" fill="#FDFF00"/>
<path opacity="0.3" fill-rule="evenodd" clip-rule="evenodd" d="M9.78 6.875H17.7V12.6042C17.7 12.6042 15.6847 13.2112 13.74 14.2073C12.3045 13.1424 9.78 12.6042 9.78 12.6042V6.875Z" fill="#E1E5E8"/>
<mask id="mask1_701_21885" style="mask-type:alpha" maskUnits="userSpaceOnUse" x="9" y="6" width="9" height="9">
<path fill-rule="evenodd" clip-rule="evenodd" d="M9.78 6.875H17.7V12.6042C17.7 12.6042 15.6847 13.2112 13.74 14.2073C12.3045 13.1424 9.78 12.6042 9.78 12.6042V6.875Z" fill="white"/>
</mask>
<g mask="url(#mask1_701_21885)">
<rect x="9.78" y="10.625" width="7.92" height="3.75" fill="#3D58DB"/>
<rect x="9.78" y="6.875" width="7.92" height="3.75" fill="#FD1900"/>
<path fill-rule="evenodd" clip-rule="evenodd" d="M13.34 8.56159L12.7397 8.61127L13.0859 8.14428L12.717 7.66064L13.3203 7.73833L13.5516 7.20502L13.8087 7.7497L14.409 7.70002L14.0628 8.16701L14.4317 8.65064L13.8284 8.57296L13.5971 9.10627L13.34 8.56159Z" fill="#FDFF00"/>
<path fill-rule="evenodd" clip-rule="evenodd" d="M12.2625 7.50376C12.2625 7.50376 10.6501 8.48475 11.1876 9.18895C11.725 9.89315 12.4016 9.9833 12.4016 9.9833C12.4016 9.9833 10.7522 12.4578 13.6552 13.8714C16.7632 12.5067 15.1287 9.9833 15.1287 9.9833C15.1287 9.9833 16.0854 9.77164 16.277 9.01022C16.4685 8.24881 15.0264 7.37549 15.0264 7.37549C15.0264 7.37549 15.9262 8.67959 15.7208 9.01022C15.5154 9.34086 14.415 9.67747 13.6552 9.67747C12.8954 9.67747 11.7221 9.46413 11.5327 8.88637C11.3434 8.30862 12.2625 7.50376 12.2625 7.50376Z" fill="#FDFF00"/>
<path fill-rule="evenodd" clip-rule="evenodd" d="M10.77 10L11.76 10.625L10.77 11.25L9.78 10.625L10.77 10Z" fill="#FDFF00"/>
<path fill-rule="evenodd" clip-rule="evenodd" d="M16.71 10L17.7 10.625L16.71 11.25L15.72 10.625L16.71 10Z" fill="#FDFF00"/>
<path fill-rule="evenodd" clip-rule="evenodd" d="M10.74 12.475C10.9057 12.475 11.04 12.3407 11.04 12.175C11.04 12.0093 10.9057 11.875 10.74 11.875C10.5743 11.875 10.44 12.0093 10.44 12.175C10.44 12.3407 10.5743 12.475 10.74 12.475Z" fill="#FDFF00"/>
<path fill-rule="evenodd" clip-rule="evenodd" d="M17.1225 11.9072C16.865 11.6986 16.4703 11.7592 16.2409 12.0425C16.0115 12.3258 16.0343 12.7245 16.2918 12.933C16.4318 13.0464 16.3587 12.596 16.5706 12.3095C16.7485 12.0688 17.2401 12.0024 17.1225 11.9072Z" fill="#FDFF00"/>
</g>
<path fill-rule="evenodd" clip-rule="evenodd" d="M5.05249 9.64666C5.05249 9.64666 5.84308 10.5813 6.58751 10.2757C7.33193 9.97013 7.15145 8.87451 7.15145 8.87451L6.58751 9.38611H6.10746V9.64666L5.73254 9.38611V9.64666H5.05249ZM5.58718 11.083C5.58718 11.083 6.55077 11.9234 7.19997 11.6859C7.84916 11.4484 7.68614 10.3108 7.68614 10.3108L7.1222 10.8224H6.64216V11.083L6.26723 10.8224V11.083H5.58718ZM8.18204 12.9901C7.53285 13.2276 6.56926 12.3872 6.56926 12.3872H7.2493V12.1267L7.62423 12.3872V12.1267H8.10427L8.66821 11.6151C8.66821 11.6151 8.83123 12.7526 8.18204 12.9901Z" fill="#048F02"/>
<path fill-rule="evenodd" clip-rule="evenodd" d="M11.9845 2.68628H11.2345V3.13297H10.8815V3.88297H11.2345V5.19144H11.9845V3.88297H12.4136V3.13297H11.9845V2.68628Z" fill="#FDFF00"/>
<path fill-rule="evenodd" clip-rule="evenodd" d="M12.8686 3.53833L11.1315 3.98582L12.8686 4.53473V3.53833Z" fill="#DB4400"/>
</g>
</g>
<rect x="1.75" y="1.25" width="23.5" height="17.5" stroke="black" stroke-opacity="0.1" stroke-width="0.5" shape-rendering="crispEdges"/>
</g>
<defs>
<filter id="filter0_dd_701_21885" x="0" y="0" width="27" height="21" filterUnits="userSpaceOnUse" color-interpolation-filters="sRGB">
<feFlood flood-opacity="0" result="BackgroundImageFix"/>
<feColorMatrix in="SourceAlpha" type="matrix" values="0 0 0 0 0 0 0 0 0 0 0 0 0 0 0 0 0 0 127 0" result="hardAlpha"/>
<feOffset dy="0.5"/>
<feGaussianBlur stdDeviation="0.75"/>
<feComposite in2="hardAlpha" operator="out"/>
<feColorMatrix type="matrix" values="0 0 0 0 0 0 0 0 0 0 0 0 0 0 0 0 0 0 0.1 0"/>
<feBlend mode="multiply" in2="BackgroundImageFix" result="effect1_dropShadow_701_21885"/>
<feColorMatrix in="SourceAlpha" type="matrix" values="0 0 0 0 0 0 0 0 0 0 0 0 0 0 0 0 0 0 127 0" result="hardAlpha"/>
<feOffset/>
<feGaussianBlur stdDeviation="0.5"/>
<feComposite in2="hardAlpha" operator="out"/>
<feColorMatrix type="matrix" values="0 0 0 0 0 0 0 0 0 0 0 0 0 0 0 0 0 0 0.11 0"/>
<feBlend mode="multiply" in2="effect1_dropShadow_701_21885" result="effect2_dropShadow_701_21885"/>
<feBlend mode="normal" in="SourceGraphic" in2="effect2_dropShadow_701_21885" result="shape"/>
</filter>
<clipPath id="clip0_701_21885">
<rect x="1.5" y="1" width="24" height="18" fill="white"/>
</clipPath>
</defs>
</svg>