<svg width="27" height="21" viewBox="0 0 27 21" fill="none" xmlns="http://www.w3.org/2000/svg">
<g filter="url(#filter0_dd_701_19755)">
<g clip-path="url(#clip0_701_19755)">
<mask id="mask0_701_19755" style="mask-type:alpha" maskUnits="userSpaceOnUse" x="1" y="1" width="25" height="18">
<rect x="1.5" y="1" width="24" height="18" fill="white"/>
</mask>
<g mask="url(#mask0_701_19755)">
<path fill-rule="evenodd" clip-rule="evenodd" d="M1.5 1V19H25.5V1H1.5Z" fill="#E31D1C"/>
<mask id="mask1_701_19755" style="mask-type:alpha" maskUnits="userSpaceOnUse" x="1" y="1" width="25" height="18">
<path fill-rule="evenodd" clip-rule="evenodd" d="M1.5 1V19H25.5V1H1.5Z" fill="white"/>
</mask>
<g mask="url(#mask1_701_19755)">
<path fill-rule="evenodd" clip-rule="evenodd" d="M13.5 16C16.8137 16 19.5 13.3137 19.5 10C19.5 6.68629 16.8137 4 13.5 4C10.1863 4 7.5 6.68629 7.5 10C7.5 13.3137 10.1863 16 13.5 16Z" fill="#F7FCFF"/>
<path fill-rule="evenodd" clip-rule="evenodd" d="M14.552 14.2381C14.552 14.2381 11.3897 13.3754 11.3897 9.98014C11.3897 6.5849 14.552 5.6482 14.552 5.6482C13.2444 5.1421 9.41763 5.91863 9.41763 9.98014C9.41763 14.0416 13.3512 14.7731 14.552 14.2381ZM14.3779 9.24132L12.809 9.81456L14.4953 10.404L14.552 11.9827L15.5782 10.7562L17.2703 10.8763L16.0512 9.88171L16.7854 8.44539L15.3512 8.92812L14.3576 7.68619L14.3779 9.24132Z" fill="#E31D1C"/>
</g>
</g>
</g>
<rect x="1.75" y="1.25" width="23.5" height="17.5" stroke="black" stroke-opacity="0.1" stroke-width="0.5" shape-rendering="crispEdges"/>
</g>
<defs>
<filter id="filter0_dd_701_19755" x="0" y="0" width="27" height="21" filterUnits="userSpaceOnUse" color-interpolation-filters="sRGB">
<feFlood flood-opacity="0" result="BackgroundImageFix"/>
<feColorMatrix in="SourceAlpha" type="matrix" values="0 0 0 0 0 0 0 0 0 0 0 0 0 0 0 0 0 0 127 0" result="hardAlpha"/>
<feOffset dy="0.5"/>
<feGaussianBlur stdDeviation="0.75"/>
<feComposite in2="hardAlpha" operator="out"/>
<feColorMatrix type="matrix" values="0 0 0 0 0 0 0 0 0 0 0 0 0 0 0 0 0 0 0.1 0"/>
<feBlend mode="multiply" in2="BackgroundImageFix" result="effect1_dropShadow_701_19755"/>
<feColorMatrix in="SourceAlpha" type="matrix" values="0 0 0 0 0 0 0 0 0 0 0 0 0 0 0 0 0 0 127 0" result="hardAlpha"/>
<feOffset/>
<feGaussianBlur stdDeviation="0.5"/>
<feComposite in2="hardAlpha" operator="out"/>
<feColorMatrix type="matrix" values="0 0 0 0 0 0 0 0 0 0 0 0 0 0 0 0 0 0 0.11 0"/>
<feBlend mode="multiply" in2="effect1_dropShadow_701_19755" result="effect2_dropShadow_701_19755"/>
<feBlend mode="normal" in="SourceGraphic" in2="effect2_dropShadow_701_19755" result="shape"/>
</filter>
<clipPath id="clip0_701_19755">
<rect x="1.5" y="1" width="24" height="18" fill="white"/>
</clipPath>
</defs>
</svg>
