<svg viewBox="0 0 27 21" fill="none" xmlns="http://www.w3.org/2000/svg">
<g filter="url(#filter0_dd_701_25218)">
<g clip-path="url(#clip0_701_25218)">
<mask id="mask0_701_25218" style="mask-type:alpha" maskUnits="userSpaceOnUse" x="1" y="1" width="25" height="18">
<rect x="1.5" y="1" width="24" height="18" fill="white"/>
</mask>
<g mask="url(#mask0_701_25218)">
<path fill-rule="evenodd" clip-rule="evenodd" d="M1.5 1H25.5V19H1.5V1Z" fill="#1B1B1B"/>
<path fill-rule="evenodd" clip-rule="evenodd" d="M13.5 11.5L11.998 14.3496L12.0356 11.2029L9.29144 13.191L10.8613 10.3705L7.41846 11.1033L10.2096 9.16756L6.75 8.5L10.2096 7.83244L7.41846 5.8967L10.8613 6.62953L9.29144 3.80901L12.0356 5.79709L11.998 2.65043L13.5 5.5L15.002 2.65043L14.9644 5.79709L17.7086 3.80901L16.1387 6.62953L19.5815 5.8967L16.7904 7.83244L20.25 8.5L16.7904 9.16756L19.5815 11.1033L16.1387 10.3705L17.7086 13.191L14.9644 11.2029L15.002 14.3496L13.5 11.5Z" fill="#F9D313"/>
<rect x="6" y="11.5" width="15" height="7.5" fill="#F1F9FF"/>
<rect x="3" y="8.5" width="21" height="3" fill="#4A80E8"/>
<path fill-rule="evenodd" clip-rule="evenodd" d="M1.5 5.5L13.5 19L25.5 5.5V19H1.5V5.5Z" fill="#E31D1C"/>
</g>
</g>
<rect x="1.75" y="1.25" width="23.5" height="17.5" stroke="black" stroke-opacity="0.1" stroke-width="0.5" shape-rendering="crispEdges"/>
</g>
<defs>
<filter id="filter0_dd_701_25218" x="0" y="0" width="27" height="21" filterUnits="userSpaceOnUse" color-interpolation-filters="sRGB">
<feFlood flood-opacity="0" result="BackgroundImageFix"/>
<feColorMatrix in="SourceAlpha" type="matrix" values="0 0 0 0 0 0 0 0 0 0 0 0 0 0 0 0 0 0 127 0" result="hardAlpha"/>
<feOffset dy="0.5"/>
<feGaussianBlur stdDeviation="0.75"/>
<feComposite in2="hardAlpha" operator="out"/>
<feColorMatrix type="matrix" values="0 0 0 0 0 0 0 0 0 0 0 0 0 0 0 0 0 0 0.1 0"/>
<feBlend mode="multiply" in2="BackgroundImageFix" result="effect1_dropShadow_701_25218"/>
<feColorMatrix in="SourceAlpha" type="matrix" values="0 0 0 0 0 0 0 0 0 0 0 0 0 0 0 0 0 0 127 0" result="hardAlpha"/>
<feOffset/>
<feGaussianBlur stdDeviation="0.5"/>
<feComposite in2="hardAlpha" operator="out"/>
<feColorMatrix type="matrix" values="0 0 0 0 0 0 0 0 0 0 0 0 0 0 0 0 0 0 0.11 0"/>
<feBlend mode="multiply" in2="effect1_dropShadow_701_25218" result="effect2_dropShadow_701_25218"/>
<feBlend mode="normal" in="SourceGraphic" in2="effect2_dropShadow_701_25218" result="shape"/>
</filter>
<clipPath id="clip0_701_25218">
<rect x="1.5" y="1" width="24" height="18" fill="white"/>
</clipPath>
</defs>
</svg>