<svg width="27" height="21" viewBox="0 0 27 21" fill="none" xmlns="http://www.w3.org/2000/svg">
<g filter="url(#filter0_dd_701_22264)">
<g clip-path="url(#clip0_701_22264)">
<mask id="mask0_701_22264" style="mask-type:alpha" maskUnits="userSpaceOnUse" x="1" y="1" width="25" height="18">
<rect x="1.5" y="1" width="24" height="18" fill="white"/>
</mask>
<g mask="url(#mask0_701_22264)">
<path fill-rule="evenodd" clip-rule="evenodd" d="M1.5 1V19H25.5V1H1.5Z" fill="#F7FCFF"/>
<mask id="mask1_701_22264" style="mask-type:alpha" maskUnits="userSpaceOnUse" x="1" y="1" width="25" height="18">
<path fill-rule="evenodd" clip-rule="evenodd" d="M1.5 1V19H25.5V1H1.5Z" fill="white"/>
</mask>
<g mask="url(#mask1_701_22264)">
<path fill-rule="evenodd" clip-rule="evenodd" d="M1.5 1V7H25.5V1H1.5Z" fill="#009933"/>
<path fill-rule="evenodd" clip-rule="evenodd" d="M1.5 13V19H25.5V13H1.5Z" fill="#E31D1C"/>
</g>
<path fill-rule="evenodd" clip-rule="evenodd" d="M1.5 1V19L10.5 13V7L1.5 1Z" fill="#272727"/>
<mask id="mask2_701_22264" style="mask-type:alpha" maskUnits="userSpaceOnUse" x="1" y="1" width="10" height="18">
<path fill-rule="evenodd" clip-rule="evenodd" d="M1.5 1V19L10.5 13V7L1.5 1Z" fill="white"/>
</mask>
<g mask="url(#mask2_701_22264)">
</g>
</g>
</g>
<rect x="1.75" y="1.25" width="23.5" height="17.5" stroke="black" stroke-opacity="0.1" stroke-width="0.5" shape-rendering="crispEdges"/>
</g>
<defs>
<filter id="filter0_dd_701_22264" x="0" y="0" width="27" height="21" filterUnits="userSpaceOnUse" color-interpolation-filters="sRGB">
<feFlood flood-opacity="0" result="BackgroundImageFix"/>
<feColorMatrix in="SourceAlpha" type="matrix" values="0 0 0 0 0 0 0 0 0 0 0 0 0 0 0 0 0 0 127 0" result="hardAlpha"/>
<feOffset dy="0.5"/>
<feGaussianBlur stdDeviation="0.75"/>
<feComposite in2="hardAlpha" operator="out"/>
<feColorMatrix type="matrix" values="0 0 0 0 0 0 0 0 0 0 0 0 0 0 0 0 0 0 0.1 0"/>
<feBlend mode="multiply" in2="BackgroundImageFix" result="effect1_dropShadow_701_22264"/>
<feColorMatrix in="SourceAlpha" type="matrix" values="0 0 0 0 0 0 0 0 0 0 0 0 0 0 0 0 0 0 127 0" result="hardAlpha"/>
<feOffset/>
<feGaussianBlur stdDeviation="0.5"/>
<feComposite in2="hardAlpha" operator="out"/>
<feColorMatrix type="matrix" values="0 0 0 0 0 0 0 0 0 0 0 0 0 0 0 0 0 0 0.11 0"/>
<feBlend mode="multiply" in2="effect1_dropShadow_701_22264" result="effect2_dropShadow_701_22264"/>
<feBlend mode="normal" in="SourceGraphic" in2="effect2_dropShadow_701_22264" result="shape"/>
</filter>
<clipPath id="clip0_701_22264">
<rect x="1.5" y="1" width="24" height="18" fill="white"/>
</clipPath>
</defs>
</svg>
