<svg viewBox="0 0 27 21" fill="none" xmlns="http://www.w3.org/2000/svg">
<g filter="url(#filter0_dd_701_22365)">
<g clip-path="url(#clip0_701_22365)">
<mask id="mask0_701_22365" style="mask-type:alpha" maskUnits="userSpaceOnUse" x="1" y="1" width="25" height="18">
<rect x="1.5" y="1" width="24" height="18" fill="white"/>
</mask>
<g mask="url(#mask0_701_22365)">
<path fill-rule="evenodd" clip-rule="evenodd" d="M1.5 1V19H25.5V1H1.5Z" fill="#E31D1C"/>
<mask id="mask1_701_22365" style="mask-type:alpha" maskUnits="userSpaceOnUse" x="1" y="1" width="25" height="18">
<path fill-rule="evenodd" clip-rule="evenodd" d="M1.5 1V19H25.5V1H1.5Z" fill="white"/>
</mask>
<g mask="url(#mask1_701_22365)">
<path fill-rule="evenodd" clip-rule="evenodd" d="M13.5068 8.47067L13.5442 8.47432C13.587 8.32732 13.6629 8.08627 13.7602 7.8583C13.9146 7.49675 14.3606 7.2938 14.3606 7.2938C14.3606 7.2938 14.1402 7.54236 14.0823 7.9363C14.0469 8.17695 14.0344 8.42161 14.0301 8.57558L14.0611 8.58562C14.1388 8.4528 14.2686 8.24155 14.4155 8.04754C14.6527 7.73408 15.1345 7.64504 15.1345 7.64504C15.1345 7.64504 14.8606 7.8329 14.7091 8.20113C14.6211 8.4149 14.5524 8.63719 14.5102 8.78606C14.5256 8.79492 14.541 8.80393 14.5563 8.81311C14.6629 8.70081 14.8291 8.53363 15.0069 8.38511C15.3086 8.13306 15.798 8.15468 15.798 8.15468C15.798 8.15468 15.4888 8.2761 15.2584 8.60082C15.132 8.77897 15.0205 8.9684 14.9457 9.1031C14.9622 9.11808 14.9784 9.13328 14.9944 9.14869C15.1235 9.06414 15.3109 8.94783 15.5044 8.84975C15.855 8.67201 16.3271 8.80319 16.3271 8.80319C16.3271 8.80319 15.9985 8.85195 15.7009 9.1165C15.5488 9.25172 15.4072 9.3994 15.3051 9.51147C15.3192 9.53161 15.333 9.55198 15.3465 9.57255C15.4903 9.52314 15.6868 9.46112 15.8847 9.41589C16.2679 9.32826 16.6942 9.56975 16.6942 9.56975C16.6942 9.56975 16.3636 9.53756 16.0109 9.72227C15.8461 9.80857 15.6872 9.90709 15.5648 9.98756C15.5775 10.0188 15.5896 10.0503 15.6011 10.0822C15.7475 10.0678 15.9351 10.0542 16.1207 10.0546C16.5139 10.0555 16.8749 10.3867 16.8749 10.3867C16.8749 10.3867 16.56 10.2809 16.1748 10.3816C16.0094 10.4248 15.8465 10.4791 15.7146 10.5272C15.7207 10.5663 15.7258 10.6058 15.73 10.6455C15.8692 10.6644 16.0383 10.6919 16.2032 10.7304C16.586 10.8196 16.8634 11.2235 16.8634 11.2235C16.8634 11.2235 16.5803 11.0497 16.1823 11.061C16.0254 11.0655 15.8685 11.0797 15.736 11.0952C15.7326 11.1385 15.7281 11.1814 15.7225 11.2239C15.8466 11.2741 15.9915 11.3372 16.1306 11.4085C16.4805 11.5877 16.6518 12.0467 16.6518 12.0467C16.6518 12.0467 16.4193 11.8095 16.0303 11.7243C15.8906 11.6937 15.749 11.6709 15.6249 11.6542C15.6091 11.7028 15.5918 11.7507 15.573 11.7979C15.6759 11.8708 15.7915 11.9574 15.9008 12.0495C16.2015 12.3029 16.2652 12.7887 16.2652 12.7887C16.2652 12.7887 16.0919 12.5052 15.7321 12.3347C15.6119 12.2777 15.4886 12.227 15.3777 12.1846C15.3485 12.2316 15.3177 12.2774 15.2854 12.3222C15.3643 12.4116 15.4501 12.5142 15.5297 12.6202C15.7656 12.9346 15.7184 13.4223 15.7184 13.4223C15.7184 13.4223 15.6133 13.1072 15.3011 12.8601C15.2028 12.7822 15.1005 12.7092 15.0065 12.6456C14.966 12.685 14.9242 12.7231 14.881 12.7597C14.9336 12.8619 14.989 12.9766 15.0382 13.093C15.191 13.4552 15.0272 13.917 15.0272 13.917C15.0272 13.917 15.0015 13.5858 14.7583 13.2705C14.6858 13.1764 14.6089 13.0857 14.5365 13.0046C14.4842 13.0354 14.4305 13.0644 14.3758 13.0914C14.4028 13.1988 14.4294 13.3175 14.4501 13.4364C14.5176 13.8237 14.2541 14.2368 14.2541 14.2368C14.2541 14.2368 14.3035 13.9083 14.1375 13.5464C14.0892 13.441 14.036 13.3377 13.9849 13.2442C13.9256 13.2617 13.8654 13.2771 13.8043 13.2902C13.8062 13.3987 13.8054 13.5174 13.799 13.6349C13.7776 14.0275 13.4279 14.3707 13.4279 14.3707C13.4279 14.3707 13.55 14.0617 13.4697 13.6718C13.4463 13.5583 13.4177 13.4457 13.389 13.3431C13.3532 13.3446 13.3173 13.3454 13.2811 13.3454C13.2566 13.3454 13.2322 13.3451 13.2079 13.3444C13.1834 13.4512 13.1536 13.5674 13.1185 13.6812C13.0028 14.0569 12.5805 14.3053 12.5805 14.3053C12.5805 14.3053 12.7737 14.0351 12.7901 13.6373C12.7949 13.5208 12.7944 13.4041 12.7912 13.2971C12.7307 13.285 12.671 13.2706 12.6121 13.2542C12.5638 13.3538 12.5079 13.4619 12.4473 13.5662C12.2501 13.9063 11.7827 14.0534 11.7827 14.0534C11.7827 14.0534 12.0317 13.8335 12.1372 13.4496C12.1693 13.3329 12.1958 13.2146 12.2172 13.1063C12.1634 13.0807 12.1106 13.0532 12.0589 13.0238C11.9876 13.1126 11.9063 13.2087 11.8209 13.2998C11.5522 13.5867 11.0637 13.6249 11.0637 13.6249C11.0637 13.6249 11.3558 13.4667 11.545 13.1163C11.6058 13.0036 11.6611 12.8876 11.7081 12.7822C11.666 12.7475 11.6251 12.7114 11.5855 12.6741C11.4905 12.7468 11.3817 12.8256 11.2699 12.8979C10.9398 13.1113 10.4566 13.0302 10.4566 13.0302C10.4566 13.0302 10.7783 12.9473 11.0466 12.6531C11.1381 12.5527 11.2245 12.4472 11.2985 12.3519C11.267 12.3095 11.2369 12.2662 11.2082 12.2218C11.0944 12.274 10.9628 12.3302 10.8296 12.3784C10.4599 12.512 10.0074 12.3243 10.0074 12.3243C10.0074 12.3243 10.3395 12.316 10.6671 12.0896C10.7883 12.0059 10.9049 11.9149 11.0037 11.8336C10.9853 11.7892 10.9681 11.7442 10.9523 11.6986C10.8235 11.7257 10.6722 11.7534 10.5211 11.7716C10.1308 11.8187 9.73203 11.534 9.73203 11.534C9.73203 11.534 10.0575 11.6005 10.4276 11.4537C10.5776 11.3942 10.7242 11.325 10.8454 11.2639C10.8395 11.2243 10.8345 11.1844 10.8305 11.1443C10.6913 11.1399 10.5228 11.1302 10.3573 11.1095C9.96724 11.0608 9.64923 10.6881 9.64923 10.6881C9.64923 10.6881 9.94891 10.8314 10.3435 10.7785C10.5172 10.7552 10.6895 10.7199 10.8281 10.6877C10.8314 10.6507 10.8354 10.614 10.8403 10.5775C10.6997 10.5412 10.5236 10.4907 10.354 10.4286C9.98484 10.2933 9.75883 9.85862 9.75883 9.85862C9.75883 9.85862 10.0186 10.0657 10.415 10.1029C10.6058 10.1208 10.7984 10.1244 10.9468 10.1233C10.9568 10.0938 10.9674 10.0646 10.9784 10.0357C10.8449 9.96705 10.6711 9.87207 10.5076 9.7654C10.1784 9.5506 10.0559 9.07618 10.0559 9.07618C10.0559 9.07618 10.2624 9.33638 10.6403 9.4618C10.8386 9.52759 11.0426 9.57727 11.1919 9.60963C11.2036 9.59095 11.2157 9.57244 11.2279 9.5541C11.1117 9.45353 10.9521 9.30848 10.8078 9.15299C10.5402 8.86491 10.5362 8.37497 10.5362 8.37497C10.5362 8.37497 10.6737 8.6774 11.01 8.89052C11.1979 9.00961 11.3967 9.11256 11.5356 9.18023C11.5499 9.16592 11.5645 9.15178 11.5792 9.13783C11.4873 9.01316 11.3554 8.825 11.2429 8.62918C11.0471 8.28831 11.1533 7.81002 11.1533 7.81002C11.1533 7.81002 11.2192 8.13561 11.499 8.41893C11.6649 8.58696 11.8468 8.74002 11.9674 8.83677C11.9812 8.82817 11.995 8.8197 12.0089 8.81137C11.947 8.66971 11.8556 8.44652 11.7869 8.21992C11.6727 7.84373 11.8839 7.40161 11.8839 7.40161C11.8839 7.40161 11.8748 7.73368 12.0837 8.07267C12.2128 8.28227 12.3626 8.47994 12.4581 8.6003C12.4674 8.59703 12.4767 8.59382 12.4861 8.59066C12.4601 8.43962 12.4228 8.19049 12.4104 7.94371C12.3907 7.55109 12.7025 7.17318 12.7025 7.17318C12.7025 7.17318 12.6134 7.4932 12.7341 7.87265C12.8095 8.10977 12.9082 8.34017 12.9717 8.47964C12.9839 8.47813 12.9961 8.4767 13.0083 8.47537C13.0168 8.32297 13.0365 8.06852 13.0805 7.82216C13.1496 7.43515 13.5384 7.13708 13.5384 7.13708C13.5384 7.13708 13.3796 7.42885 13.4118 7.82572C13.4319 8.07376 13.4764 8.3205 13.5068 8.47067Z" fill="#FFC84A"/>
<path fill-rule="evenodd" clip-rule="evenodd" d="M0.905977 11.44L2.71838 10.7045C3.09953 10.5498 3.52631 10.5517 3.90608 10.7097L6.31953 11.7141C6.73033 11.885 7.19453 11.8727 7.59567 11.6802L9.4687 10.7813C9.88874 10.5797 10.3768 10.5762 10.7998 10.7715L12.7707 11.682C13.1839 11.8729 13.6599 11.8741 14.074 11.6852L16.1019 10.7604C16.516 10.5716 16.9918 10.5727 17.405 10.7635L19.4065 11.6875C19.8132 11.8752 20.2809 11.8794 20.6909 11.6989L22.9265 10.7145C23.2931 10.553 23.7077 10.5386 24.0846 10.6741L26.2147 11.44V18.9502H0.839249L0.905977 11.44Z" fill="#F7FCFF"/>
<mask id="mask2_701_22365" style="mask-type:alpha" maskUnits="userSpaceOnUse" x="0" y="10" width="27" height="9">
<path fill-rule="evenodd" clip-rule="evenodd" d="M0.905977 11.44L2.71838 10.7045C3.09953 10.5498 3.52631 10.5517 3.90608 10.7097L6.31953 11.7141C6.73033 11.885 7.19453 11.8727 7.59567 11.6802L9.4687 10.7813C9.88874 10.5797 10.3768 10.5762 10.7998 10.7715L12.7707 11.682C13.1839 11.8729 13.6599 11.8741 14.074 11.6852L16.1019 10.7604C16.516 10.5716 16.9918 10.5727 17.405 10.7635L19.4065 11.6875C19.8132 11.8752 20.2809 11.8794 20.6909 11.6989L22.9265 10.7145C23.2931 10.553 23.7077 10.5386 24.0846 10.6741L26.2147 11.44V18.9502H0.839249L0.905977 11.44Z" fill="white"/>
</mask>
<g mask="url(#mask2_701_22365)">
<path d="M0.905975 13.1842L2.71838 12.4487C3.09953 12.294 3.52631 12.2959 3.90607 12.454L6.31953 13.4583C6.73033 13.6293 7.19453 13.6169 7.59567 13.4244L9.4687 12.5256C9.88874 12.324 10.3768 12.3204 10.7998 12.5158L12.7707 13.4263C13.1839 13.6172 13.6599 13.6184 14.074 13.4295L16.1019 12.5047C16.516 12.3159 16.9918 12.317 17.405 12.5077L19.4065 13.4317C19.8132 13.6195 20.2809 13.6236 20.6909 13.4431L22.9265 12.4587C23.2931 12.2973 23.7077 12.2828 24.0846 12.4184L26.2147 13.1842" stroke="#015989" stroke-width="2"/>
<path d="M0.905975 15.6809L2.71838 14.9454C3.09953 14.7907 3.52631 14.7926 3.90607 14.9507L6.31953 15.955C6.73033 16.126 7.19453 16.1136 7.59567 15.9211L9.4687 15.0223C9.88874 14.8207 10.3768 14.8171 10.7998 15.0125L12.7707 15.923C13.1839 16.1139 13.6599 16.1151 14.074 15.9262L16.1019 15.0014C16.516 14.8126 16.9918 14.8137 17.405 15.0044L19.4065 15.9284C19.8132 16.1162 20.2809 16.1203 20.6909 15.9398L22.9265 14.9554C23.2931 14.794 23.7077 14.7795 24.0846 14.9151L26.2147 15.6809" stroke="#015989" stroke-width="2"/>
<path fill-rule="evenodd" clip-rule="evenodd" d="M0.905975 17.6704L1.1952 17.553C2.5522 17.0023 4.07165 17.009 5.42374 17.5717L6.31953 17.9445C6.73033 18.1155 7.19453 18.1031 7.59567 17.9106L7.7706 17.8267C9.26607 17.109 11.0038 17.0962 12.5097 17.7919L12.7707 17.9125C13.1839 18.1034 13.6599 18.1045 14.074 17.9157L14.4321 17.7524C15.9063 17.0801 17.6002 17.084 19.0712 17.7631L19.4065 17.9179C19.8132 18.1057 20.2809 18.1098 20.6909 17.9293L21.4645 17.5886C22.7697 17.0139 24.2458 16.9625 25.5878 17.445L26.2147 17.6704V20.1566H1.04369L0.905975 17.6704Z" fill="#015989"/>
</g>
<path fill-rule="evenodd" clip-rule="evenodd" d="M8.83502 3.56379C8.83502 3.56379 9.87897 3.56379 10.2304 3.56379C10.5819 3.56379 11.3748 3.02639 11.8334 3.20552C12.292 3.38465 13.064 3.96299 13.064 3.96299C13.064 3.96299 14.3386 2.95685 15.0989 2.95685C15.8591 2.95685 17.2304 2.84497 17.2304 2.84497C17.2304 2.84497 16.9087 3.68007 16.0038 3.82153C15.0989 3.96299 14.0162 4.65578 14.0162 4.65578C14.0162 4.65578 15.2628 4.65578 15.487 4.65578C15.7112 4.65578 16.0038 4.99387 16.0038 4.99387C16.0038 4.99387 15.4002 5.40401 15.0989 5.40401C14.7976 5.40401 14.4647 5.40401 14.4647 5.40401C14.4647 5.40401 13.8241 5.95373 13.0327 5.83677C12.2413 5.71981 11.6063 4.99387 11.6063 4.99387C11.6063 4.99387 10.9139 4.89462 10.9139 4.7752C10.9139 4.7752 10.832 4.73753 10.7943 4.73856C10.5765 4.74451 10.4313 4.78364 10.3589 4.7752C10.757 4.61983 10.9139 4.48237 10.9139 4.48237C10.9139 4.48237 11.188 4.22531 11.3972 4.22531C11.6063 4.22531 12.3049 4.65578 12.3049 4.65578L12.4717 4.48237L11.6063 3.82153C9.84129 4.00647 8.83502 3.56379 8.83502 3.56379Z" fill="#FFC84A"/>
</g>
</g>
</g>
<rect x="1.75" y="1.25" width="23.5" height="17.5" stroke="black" stroke-opacity="0.1" stroke-width="0.5" shape-rendering="crispEdges"/>
</g>
<defs>
<filter id="filter0_dd_701_22365" x="0" y="0" width="27" height="21" filterUnits="userSpaceOnUse" color-interpolation-filters="sRGB">
<feFlood flood-opacity="0" result="BackgroundImageFix"/>
<feColorMatrix in="SourceAlpha" type="matrix" values="0 0 0 0 0 0 0 0 0 0 0 0 0 0 0 0 0 0 127 0" result="hardAlpha"/>
<feOffset dy="0.5"/>
<feGaussianBlur stdDeviation="0.75"/>
<feComposite in2="hardAlpha" operator="out"/>
<feColorMatrix type="matrix" values="0 0 0 0 0 0 0 0 0 0 0 0 0 0 0 0 0 0 0.1 0"/>
<feBlend mode="multiply" in2="BackgroundImageFix" result="effect1_dropShadow_701_22365"/>
<feColorMatrix in="SourceAlpha" type="matrix" values="0 0 0 0 0 0 0 0 0 0 0 0 0 0 0 0 0 0 127 0" result="hardAlpha"/>
<feOffset/>
<feGaussianBlur stdDeviation="0.5"/>
<feComposite in2="hardAlpha" operator="out"/>
<feColorMatrix type="matrix" values="0 0 0 0 0 0 0 0 0 0 0 0 0 0 0 0 0 0 0.11 0"/>
<feBlend mode="multiply" in2="effect1_dropShadow_701_22365" result="effect2_dropShadow_701_22365"/>
<feBlend mode="normal" in="SourceGraphic" in2="effect2_dropShadow_701_22365" result="shape"/>
</filter>
<clipPath id="clip0_701_22365">
<rect x="1.5" y="1" width="24" height="18" fill="white"/>
</clipPath>
</defs>
</svg>