<svg viewBox="0 0 27 21" fill="none" xmlns="http://www.w3.org/2000/svg">
<g filter="url(#filter0_dd_701_19188)">
<g clip-path="url(#clip0_701_19188)">
<mask id="mask0_701_19188" style="mask-type:alpha" maskUnits="userSpaceOnUse" x="1" y="1" width="25" height="18">
<rect x="1.5" y="1" width="24" height="18" fill="white"/>
</mask>
<g mask="url(#mask0_701_19188)">
<path fill-rule="evenodd" clip-rule="evenodd" d="M1.5 1V19H25.5V1H1.5Z" fill="#C51918"/>
<mask id="mask1_701_19188" style="mask-type:alpha" maskUnits="userSpaceOnUse" x="1" y="1" width="25" height="18">
<path fill-rule="evenodd" clip-rule="evenodd" d="M1.5 1V19H25.5V1H1.5Z" fill="white"/>
</mask>
<g mask="url(#mask1_701_19188)">
<path fill-rule="evenodd" clip-rule="evenodd" d="M1.5 1V11.5H13.5V1H1.5Z" fill="#2E42A5"/>
<path fill-rule="evenodd" clip-rule="evenodd" d="M4.17425 6.82907L3.37921 7.30903L3.56055 6.37244L2.89848 5.67149L3.79496 5.63358L4.17425 4.75903L4.55353 5.63358H5.44848L4.78794 6.37244L4.9868 7.30903L4.17425 6.82907Z" fill="#FEFFFF"/>
<path fill-rule="evenodd" clip-rule="evenodd" d="M10.1742 6.82907L9.37921 7.30903L9.56055 6.37244L8.89848 5.67149L9.79496 5.63358L10.1742 4.75903L10.5535 5.63358H11.4485L10.7879 6.37244L10.9868 7.30903L10.1742 6.82907Z" fill="#FEFFFF"/>
<path fill-rule="evenodd" clip-rule="evenodd" d="M7.0992 4.10354L6.35093 4.55527L6.52161 3.67377L5.89848 3.01405L6.74223 2.97838L7.0992 2.15527L7.45617 2.97838H8.29848L7.67679 3.67377L7.86396 4.55527L7.0992 4.10354Z" fill="#FEFFFF"/>
<path fill-rule="evenodd" clip-rule="evenodd" d="M7.90969 7.31899L7.44202 7.60132L7.54869 7.05038L7.15924 6.63805L7.68658 6.61576L7.90969 6.10132L8.1328 6.61576H8.65924L8.27069 7.05038L8.38766 7.60132L7.90969 7.31899Z" fill="#FEFFFF"/>
<path fill-rule="evenodd" clip-rule="evenodd" d="M7.05657 10.6211L5.93417 11.2987L6.19018 9.97648L5.25549 8.9869L6.52111 8.93339L7.05657 7.69873L7.59203 8.93339H8.85549L7.92296 9.97648L8.20371 11.2987L7.05657 10.6211Z" fill="#FEFFFF"/>
</g>
</g>
</g>
<rect x="1.75" y="1.25" width="23.5" height="17.5" stroke="black" stroke-opacity="0.1" stroke-width="0.5" shape-rendering="crispEdges"/>
</g>
<defs>
<filter id="filter0_dd_701_19188" x="0" y="0" width="27" height="21" filterUnits="userSpaceOnUse" color-interpolation-filters="sRGB">
<feFlood flood-opacity="0" result="BackgroundImageFix"/>
<feColorMatrix in="SourceAlpha" type="matrix" values="0 0 0 0 0 0 0 0 0 0 0 0 0 0 0 0 0 0 127 0" result="hardAlpha"/>
<feOffset dy="0.5"/>
<feGaussianBlur stdDeviation="0.75"/>
<feComposite in2="hardAlpha" operator="out"/>
<feColorMatrix type="matrix" values="0 0 0 0 0 0 0 0 0 0 0 0 0 0 0 0 0 0 0.1 0"/>
<feBlend mode="multiply" in2="BackgroundImageFix" result="effect1_dropShadow_701_19188"/>
<feColorMatrix in="SourceAlpha" type="matrix" values="0 0 0 0 0 0 0 0 0 0 0 0 0 0 0 0 0 0 127 0" result="hardAlpha"/>
<feOffset/>
<feGaussianBlur stdDeviation="0.5"/>
<feComposite in2="hardAlpha" operator="out"/>
<feColorMatrix type="matrix" values="0 0 0 0 0 0 0 0 0 0 0 0 0 0 0 0 0 0 0.11 0"/>
<feBlend mode="multiply" in2="effect1_dropShadow_701_19188" result="effect2_dropShadow_701_19188"/>
<feBlend mode="normal" in="SourceGraphic" in2="effect2_dropShadow_701_19188" result="shape"/>
</filter>
<clipPath id="clip0_701_19188">
<rect x="1.5" y="1" width="24" height="18" fill="white"/>
</clipPath>
</defs>
</svg>