<svg width="27" height="21" viewBox="0 0 27 21" fill="none" xmlns="http://www.w3.org/2000/svg">
<g filter="url(#filter0_dd_701_23518)">
<g clip-path="url(#clip0_701_23518)">
<mask id="mask0_701_23518" style="mask-type:alpha" maskUnits="userSpaceOnUse" x="1" y="1" width="25" height="18">
<rect x="1.5" y="1" width="24" height="18" fill="white"/>
</mask>
<g mask="url(#mask0_701_23518)">
<path fill-rule="evenodd" clip-rule="evenodd" d="M1.5 1V19H25.5V1H1.5Z" fill="#2E42A5"/>
<mask id="mask1_701_23518" style="mask-type:alpha" maskUnits="userSpaceOnUse" x="1" y="1" width="25" height="18">
<path fill-rule="evenodd" clip-rule="evenodd" d="M1.5 1V19H25.5V1H1.5Z" fill="white"/>
</mask>
<g mask="url(#mask1_701_23518)">
<mask id="mask2_701_23518" style="mask-type:alpha" maskUnits="userSpaceOnUse" x="1" y="1" width="25" height="18">
<rect x="1.5" y="1" width="24" height="18" fill="white"/>
</mask>
<g mask="url(#mask2_701_23518)">
<path d="M-1.17236 17.7141L4.1089 19.9476L25.6198 3.42842L28.4056 0.109306L22.758 -0.637211L13.9842 6.48139L6.92223 11.2777L-1.17236 17.7141Z" fill="white"/>
<path d="M-0.449341 19.2789L2.24122 20.5751L27.4052 -0.199131H23.6274L-0.449341 19.2789Z" fill="#F50100"/>
<path d="M28.1724 17.7141L22.8911 19.9476L1.38017 3.42842L-1.40558 0.109306L4.24197 -0.637211L13.0158 6.48139L20.0778 11.2777L28.1724 17.7141Z" fill="white"/>
<path d="M27.9922 18.8371L25.3016 20.1333L14.5865 11.2388L11.4097 10.245L-1.6736 0.120623H2.10426L15.1802 10.0047L18.6535 11.1963L27.9922 18.8371Z" fill="#F50100"/>
<mask id="path-11-inside-1_701_23518" fill="white">
<path fill-rule="evenodd" clip-rule="evenodd" d="M16.3333 -0.5H10.6666V7H0.0206299V13H10.6666V20.5H16.3333V13H27.0206V7H16.3333V-0.5Z"/>
</mask>
<path fill-rule="evenodd" clip-rule="evenodd" d="M16.3333 -0.5H10.6666V7H0.0206299V13H10.6666V20.5H16.3333V13H27.0206V7H16.3333V-0.5Z" fill="#F50100"/>
<path d="M10.6666 -0.5V-2.5H8.66665V-0.5H10.6666ZM16.3333 -0.5H18.3333V-2.5H16.3333V-0.5ZM10.6666 7V9H12.6666V7H10.6666ZM0.0206299 7V5H-1.97937V7H0.0206299ZM0.0206299 13H-1.97937V15H0.0206299V13ZM10.6666 13H12.6666V11H10.6666V13ZM10.6666 20.5H8.66665V22.5H10.6666V20.5ZM16.3333 20.5V22.5H18.3333V20.5H16.3333ZM16.3333 13V11H14.3333V13H16.3333ZM27.0206 13V15H29.0206V13H27.0206ZM27.0206 7H29.0206V5H27.0206V7ZM16.3333 7H14.3333V9H16.3333V7ZM10.6666 1.5H16.3333V-2.5H10.6666V1.5ZM12.6666 7V-0.5H8.66665V7H12.6666ZM0.0206299 9H10.6666V5H0.0206299V9ZM2.02063 13V7H-1.97937V13H2.02063ZM10.6666 11H0.0206299V15H10.6666V11ZM12.6666 20.5V13H8.66665V20.5H12.6666ZM16.3333 18.5H10.6666V22.5H16.3333V18.5ZM14.3333 13V20.5H18.3333V13H14.3333ZM27.0206 11H16.3333V15H27.0206V11ZM25.0206 7V13H29.0206V7H25.0206ZM16.3333 9H27.0206V5H16.3333V9ZM14.3333 -0.5V7H18.3333V-0.5H14.3333Z" fill="white" mask="url(#path-11-inside-1_701_23518)"/>
</g>
</g>
</g>
</g>
<rect x="1.75" y="1.25" width="23.5" height="17.5" stroke="black" stroke-opacity="0.1" stroke-width="0.5" shape-rendering="crispEdges"/>
</g>
<defs>
<filter id="filter0_dd_701_23518" x="0" y="0" width="27" height="21" filterUnits="userSpaceOnUse" color-interpolation-filters="sRGB">
<feFlood flood-opacity="0" result="BackgroundImageFix"/>
<feColorMatrix in="SourceAlpha" type="matrix" values="0 0 0 0 0 0 0 0 0 0 0 0 0 0 0 0 0 0 127 0" result="hardAlpha"/>
<feOffset dy="0.5"/>
<feGaussianBlur stdDeviation="0.75"/>
<feComposite in2="hardAlpha" operator="out"/>
<feColorMatrix type="matrix" values="0 0 0 0 0 0 0 0 0 0 0 0 0 0 0 0 0 0 0.1 0"/>
<feBlend mode="multiply" in2="BackgroundImageFix" result="effect1_dropShadow_701_23518"/>
<feColorMatrix in="SourceAlpha" type="matrix" values="0 0 0 0 0 0 0 0 0 0 0 0 0 0 0 0 0 0 127 0" result="hardAlpha"/>
<feOffset/>
<feGaussianBlur stdDeviation="0.5"/>
<feComposite in2="hardAlpha" operator="out"/>
<feColorMatrix type="matrix" values="0 0 0 0 0 0 0 0 0 0 0 0 0 0 0 0 0 0 0.11 0"/>
<feBlend mode="multiply" in2="effect1_dropShadow_701_23518" result="effect2_dropShadow_701_23518"/>
<feBlend mode="normal" in="SourceGraphic" in2="effect2_dropShadow_701_23518" result="shape"/>
</filter>
<clipPath id="clip0_701_23518">
<rect x="1.5" y="1" width="24" height="18" fill="white"/>
</clipPath>
</defs>
</svg>
