<svg viewBox="0 0 27 21" fill="none" xmlns="http://www.w3.org/2000/svg">
<g filter="url(#filter0_dd_701_22040)">
<g clip-path="url(#clip0_701_22040)">
<mask id="mask0_701_22040" style="mask-type:alpha" maskUnits="userSpaceOnUse" x="1" y="1" width="25" height="18">
<rect x="1.5" y="1" width="24" height="18" fill="white"/>
</mask>
<g mask="url(#mask0_701_22040)">
<path fill-rule="evenodd" clip-rule="evenodd" d="M1.5 1V19H25.5V1H1.5Z" fill="#E31D1C"/>
<mask id="mask1_701_22040" style="mask-type:alpha" maskUnits="userSpaceOnUse" x="1" y="1" width="25" height="18">
<path fill-rule="evenodd" clip-rule="evenodd" d="M1.5 1V19H25.5V1H1.5Z" fill="white"/>
</mask>
<g mask="url(#mask1_701_22040)">
<path fill-rule="evenodd" clip-rule="evenodd" d="M1.5 1V10H25.5V1H1.5Z" fill="#2E42A5"/>
<path fill-rule="evenodd" clip-rule="evenodd" d="M5.09885 9.28991C5.09885 9.28991 6.00384 9.85323 8.10097 9.85323C10.1981 9.85323 11.3113 9.28991 11.3113 9.28991C11.3113 9.28991 9.66662 8.33386 8.19611 8.33386C6.7256 8.33386 5.09885 9.28991 5.09885 9.28991Z" fill="black"/>
<path d="M5.15298 6.05671L4.9369 6.18245L5.00921 6.30671H5.15298H11.3969H11.5801L11.6353 6.13204L11.3969 6.05671C11.6353 6.13204 11.6353 6.13197 11.6353 6.13188L11.6354 6.13169L11.6356 6.13119L11.636 6.12977L11.6374 6.12528L11.642 6.10985C11.6458 6.09677 11.6511 6.07817 11.6575 6.05465C11.6701 6.00764 11.687 5.94071 11.7043 5.85853C11.7389 5.69485 11.7765 5.46739 11.7869 5.21456C11.8073 4.72311 11.7276 4.0641 11.2335 3.63458L11.0695 3.82326L11.2335 3.63458C10.7274 3.19467 10.0888 3.26755 9.56 3.39972C9.37925 3.44489 9.19354 3.50208 9.02164 3.55501C8.94136 3.57973 8.8641 3.60352 8.79175 3.62473C8.55078 3.69538 8.35759 3.73974 8.2058 3.73974C8.05505 3.73974 7.8854 3.69904 7.67811 3.63379C7.6169 3.61452 7.55093 3.59255 7.48177 3.56953C7.33104 3.51935 7.16519 3.46413 7.00052 3.4208C6.49742 3.2884 5.90869 3.23678 5.25725 3.60572C4.91398 3.80013 4.71558 4.07258 4.62179 4.37191C4.53032 4.6638 4.54245 4.96684 4.59003 5.22862C4.63787 5.49185 4.72442 5.72895 4.79745 5.89824C4.83423 5.98349 4.86824 6.05305 4.89338 6.10188C4.90597 6.12632 4.91638 6.14567 4.92388 6.15928L4.93284 6.17537L4.93552 6.18006L4.93637 6.18154L4.93668 6.18207L4.9368 6.18228C4.93685 6.18236 4.9369 6.18245 5.15298 6.05671Z" fill="#FFD83D" stroke="black" stroke-width="0.5"/>
<path d="M4.50204 6.34537L4.38549 6.12421L4.19253 6.2259L4.26712 6.43086L5.13184 8.80714L5.21235 9.02837L5.43795 8.9613L5.43796 8.9613L5.43801 8.96128L5.43801 8.96128L5.43853 8.96113L5.44111 8.96037L5.45231 8.95712L5.49794 8.94426C5.53835 8.93305 5.59823 8.91688 5.67483 8.89739C5.82808 8.85839 6.04788 8.80621 6.3122 8.75399C6.84245 8.64924 7.54468 8.54581 8.24561 8.54581C8.94629 8.54581 9.63516 8.64918 10.1517 8.75376C10.4092 8.8059 10.6222 8.858 10.7703 8.89691C10.8444 8.91635 10.9021 8.93248 10.941 8.94364L10.9848 8.95644L10.9955 8.95965L10.9979 8.96039L10.9984 8.96053L10.9984 8.96054L10.9984 8.96055L10.9984 8.96056L11.2237 9.03005L11.3062 8.80922L12.1949 6.43295L12.272 6.22681L12.0773 6.12421L11.9608 6.34537C12.0773 6.12421 12.0772 6.12416 12.0771 6.1241L12.0769 6.12398L12.0764 6.1237L12.0749 6.12297L12.0708 6.12083L12.057 6.11393C12.0454 6.10821 12.029 6.1003 12.0077 6.09053C11.9652 6.07097 11.9033 6.04393 11.8219 6.01195C11.659 5.94799 11.4183 5.86427 11.0988 5.78109C10.4596 5.61468 9.50611 5.45068 8.2314 5.45068C6.95669 5.45068 6.00319 5.61468 5.36398 5.78109C5.04447 5.86427 4.80375 5.94799 4.64093 6.01195C4.55953 6.04393 4.49762 6.07097 4.45508 6.09053C4.43381 6.1003 4.41739 6.10821 4.40579 6.11393L4.39202 6.12083L4.38785 6.12297L4.38645 6.1237L4.38591 6.12398L4.38569 6.1241C4.38559 6.12416 4.38549 6.12421 4.50204 6.34537Z" fill="#FFD83D" stroke="black" stroke-width="0.5"/>
<path d="M8.15548 4.26133C8.62238 4.26133 8.90968 3.80914 8.90968 3.37737C8.90968 2.9456 8.62238 2.49341 8.15548 2.49341C7.68858 2.49341 7.40128 2.9456 7.40128 3.37737C7.40128 3.80914 7.68858 4.26133 8.15548 4.26133Z" fill="#FFD83D" stroke="black" stroke-width="0.5"/>
<mask id="path-11-outside-1_701_22040" maskUnits="userSpaceOnUse" x="6.58823" y="0" width="3" height="4" fill="black">
<rect fill="white" x="6.58823" width="3" height="4"/>
<path fill-rule="evenodd" clip-rule="evenodd" d="M8.34453 1H7.96638L8.01506 1.69204L7.58823 1.63396V2.10943L8.02161 2.04974L7.96638 3.13962H8.34453L8.28855 2.0479L8.72268 2.10943V1.63396L8.29641 1.69515L8.34453 1Z"/>
</mask>
<path fill-rule="evenodd" clip-rule="evenodd" d="M8.34453 1H7.96638L8.01506 1.69204L7.58823 1.63396V2.10943L8.02161 2.04974L7.96638 3.13962H8.34453L8.28855 2.0479L8.72268 2.10943V1.63396L8.29641 1.69515L8.34453 1Z" fill="#FFD83D"/>
<path d="M7.96638 1V0.5H7.42997L7.46761 1.03508L7.96638 1ZM8.34453 1L8.84334 1.03452L8.88033 0.5H8.34453V1ZM8.01506 1.69204L7.94764 2.18748L8.55697 2.27039L8.51382 1.65696L8.01506 1.69204ZM7.58823 1.63396L7.65564 1.13853L7.08823 1.06132V1.63396H7.58823ZM7.58823 2.10943H7.08823V2.68303L7.65645 2.60476L7.58823 2.10943ZM8.02161 2.04974L8.52097 2.07505L8.55153 1.47203L7.95339 1.55442L8.02161 2.04974ZM7.96638 3.13962L7.46702 3.11432L7.4404 3.63962H7.96638V3.13962ZM8.34453 3.13962V3.63962H8.87083L8.84387 3.11402L8.34453 3.13962ZM8.28855 2.0479L8.35871 1.55285L7.75814 1.46773L7.7892 2.07351L8.28855 2.0479ZM8.72268 2.10943L8.65252 2.60449L9.22268 2.68529V2.10943H8.72268ZM8.72268 1.63396H9.22268V1.05707L8.65164 1.13903L8.72268 1.63396ZM8.29641 1.69515L7.79761 1.66062L7.75488 2.27801L8.36746 2.19008L8.29641 1.69515ZM7.96638 1.5H8.34453V0.5H7.96638V1.5ZM8.51382 1.65696L8.46515 0.964917L7.46761 1.03508L7.51629 1.72712L8.51382 1.65696ZM7.52081 2.1294L7.94764 2.18748L8.08247 1.19661L7.65564 1.13853L7.52081 2.1294ZM8.08823 2.10943V1.63396H7.08823V2.10943H8.08823ZM7.95339 1.55442L7.52 1.61411L7.65645 2.60476L8.08984 2.54506L7.95339 1.55442ZM8.46574 3.16493L8.52097 2.07505L7.52225 2.02443L7.46702 3.11432L8.46574 3.16493ZM8.34453 2.63962H7.96638V3.63962H8.34453V2.63962ZM7.7892 2.07351L7.84518 3.16523L8.84387 3.11402L8.78789 2.0223L7.7892 2.07351ZM8.79284 1.61438L8.35871 1.55285L8.21838 2.54296L8.65252 2.60449L8.79284 1.61438ZM8.22268 1.63396V2.10943H9.22268V1.63396H8.22268ZM8.36746 2.19008L8.79372 2.12889L8.65164 1.13903L8.22537 1.20022L8.36746 2.19008ZM7.84572 0.965475L7.79761 1.66062L8.79522 1.72967L8.84334 1.03452L7.84572 0.965475Z" fill="black" mask="url(#path-11-outside-1_701_22040)"/>
</g>
</g>
</g>
<rect x="1.75" y="1.25" width="23.5" height="17.5" stroke="black" stroke-opacity="0.1" stroke-width="0.5" shape-rendering="crispEdges"/>
</g>
<defs>
<filter id="filter0_dd_701_22040" x="0" y="0" width="27" height="21" filterUnits="userSpaceOnUse" color-interpolation-filters="sRGB">
<feFlood flood-opacity="0" result="BackgroundImageFix"/>
<feColorMatrix in="SourceAlpha" type="matrix" values="0 0 0 0 0 0 0 0 0 0 0 0 0 0 0 0 0 0 127 0" result="hardAlpha"/>
<feOffset dy="0.5"/>
<feGaussianBlur stdDeviation="0.75"/>
<feComposite in2="hardAlpha" operator="out"/>
<feColorMatrix type="matrix" values="0 0 0 0 0 0 0 0 0 0 0 0 0 0 0 0 0 0 0.1 0"/>
<feBlend mode="multiply" in2="BackgroundImageFix" result="effect1_dropShadow_701_22040"/>
<feColorMatrix in="SourceAlpha" type="matrix" values="0 0 0 0 0 0 0 0 0 0 0 0 0 0 0 0 0 0 127 0" result="hardAlpha"/>
<feOffset/>
<feGaussianBlur stdDeviation="0.5"/>
<feComposite in2="hardAlpha" operator="out"/>
<feColorMatrix type="matrix" values="0 0 0 0 0 0 0 0 0 0 0 0 0 0 0 0 0 0 0.11 0"/>
<feBlend mode="multiply" in2="effect1_dropShadow_701_22040" result="effect2_dropShadow_701_22040"/>
<feBlend mode="normal" in="SourceGraphic" in2="effect2_dropShadow_701_22040" result="shape"/>
</filter>
<clipPath id="clip0_701_22040">
<rect x="1.5" y="1" width="24" height="18" fill="white"/>
</clipPath>
</defs>
</svg>