<svg viewBox="0 0 27 21" fill="none" xmlns="http://www.w3.org/2000/svg">
<g filter="url(#filter0_dd_701_23248)">
<g clip-path="url(#clip0_701_23248)">
<mask id="mask0_701_23248" style="mask-type:alpha" maskUnits="userSpaceOnUse" x="1" y="1" width="25" height="18">
<rect x="1.5" y="1" width="24" height="18" fill="white"/>
</mask>
<g mask="url(#mask0_701_23248)">
<path fill-rule="evenodd" clip-rule="evenodd" d="M1.5 1H25.5V19H1.5V1Z" fill="#F7FCFF"/>
<path fill-rule="evenodd" clip-rule="evenodd" d="M1.5 5.125H25.5V7.34263H1.5V5.125ZM1.5 9.11133H25.5V11.329H1.5V9.11133ZM25.5 12.9574H1.5V15.175H25.5V12.9574Z" fill="#4564F9"/>
<path fill-rule="evenodd" clip-rule="evenodd" d="M1.5 1H25.5V3.25H1.5V1Z" fill="#4564F9"/>
<rect x="1.5" y="16.75" width="24" height="2.25" fill="#4564F9"/>
<path fill-rule="evenodd" clip-rule="evenodd" d="M1.5 1H12.75V11.35H1.5V1Z" fill="#4564F9"/>
<path fill-rule="evenodd" clip-rule="evenodd" d="M6 1H8.25V5.1279H12.75V7.329H8.25V11.875H6V7.329H1.5V5.1279H6V1Z" fill="#F7FCFF"/>
</g>
</g>
<rect x="1.75" y="1.25" width="23.5" height="17.5" stroke="black" stroke-opacity="0.1" stroke-width="0.5" shape-rendering="crispEdges"/>
</g>
<defs>
<filter id="filter0_dd_701_23248" x="0" y="0" width="27" height="21" filterUnits="userSpaceOnUse" color-interpolation-filters="sRGB">
<feFlood flood-opacity="0" result="BackgroundImageFix"/>
<feColorMatrix in="SourceAlpha" type="matrix" values="0 0 0 0 0 0 0 0 0 0 0 0 0 0 0 0 0 0 127 0" result="hardAlpha"/>
<feOffset dy="0.5"/>
<feGaussianBlur stdDeviation="0.75"/>
<feComposite in2="hardAlpha" operator="out"/>
<feColorMatrix type="matrix" values="0 0 0 0 0 0 0 0 0 0 0 0 0 0 0 0 0 0 0.1 0"/>
<feBlend mode="multiply" in2="BackgroundImageFix" result="effect1_dropShadow_701_23248"/>
<feColorMatrix in="SourceAlpha" type="matrix" values="0 0 0 0 0 0 0 0 0 0 0 0 0 0 0 0 0 0 127 0" result="hardAlpha"/>
<feOffset/>
<feGaussianBlur stdDeviation="0.5"/>
<feComposite in2="hardAlpha" operator="out"/>
<feColorMatrix type="matrix" values="0 0 0 0 0 0 0 0 0 0 0 0 0 0 0 0 0 0 0.11 0"/>
<feBlend mode="multiply" in2="effect1_dropShadow_701_23248" result="effect2_dropShadow_701_23248"/>
<feBlend mode="normal" in="SourceGraphic" in2="effect2_dropShadow_701_23248" result="shape"/>
</filter>
<clipPath id="clip0_701_23248">
<rect x="1.5" y="1" width="24" height="18" fill="white"/>
</clipPath>
</defs>
</svg>