<svg viewBox="0 0 27 21" fill="none" xmlns="http://www.w3.org/2000/svg">
<g filter="url(#filter0_dd_701_24353)">
<g clip-path="url(#clip0_701_24353)">
<mask id="mask0_701_24353" style="mask-type:alpha" maskUnits="userSpaceOnUse" x="1" y="1" width="25" height="18">
<rect x="1.5" y="1" width="24" height="18" fill="white"/>
</mask>
<g mask="url(#mask0_701_24353)">
<path fill-rule="evenodd" clip-rule="evenodd" d="M7.5 1H19.5V19H7.5V1Z" fill="#F7FCFF"/>
<path fill-rule="evenodd" clip-rule="evenodd" d="M13.4823 6.25L13.5 15.25H13.0504L13.3262 13.0228C11.3086 13.3858 10.3832 13.4757 10.55 13.2926C10.7168 13.1095 10.8483 12.85 10.9443 12.5141L8.25 10.7165C8.53334 10.7129 8.79027 10.6426 9.02077 10.5055C9.25128 10.3684 9.13603 9.89335 8.67501 9.0803L10.0353 9.27821L10.55 8.71887L11.5764 9.79304H12.0377L11.5764 7.33257L12.4034 7.79449L13.4823 6.25ZM13.4823 6.25L14.5966 7.79449L15.4236 7.33257L14.9623 9.79304H15.4236L16.45 8.71887L16.9647 9.27821L18.325 9.0803C17.864 9.89335 17.7487 10.3684 17.9792 10.5055C18.2097 10.6426 18.4667 10.7129 18.75 10.7165L16.0557 12.5141C16.1517 12.85 16.2832 13.1095 16.45 13.2926C16.6168 13.4757 15.6914 13.3858 13.6738 13.0228L13.9496 15.25H13.5L13.4823 6.25Z" fill="#E31D1C"/>
<path fill-rule="evenodd" clip-rule="evenodd" d="M19.5 1H25.5V19H19.5V1Z" fill="#E31D1C"/>
<path fill-rule="evenodd" clip-rule="evenodd" d="M1.5 1H7.5V19H1.5V1Z" fill="#E31D1C"/>
</g>
</g>
<rect x="1.75" y="1.25" width="23.5" height="17.5" stroke="black" stroke-opacity="0.1" stroke-width="0.5" shape-rendering="crispEdges"/>
</g>
<defs>
<filter id="filter0_dd_701_24353" x="0" y="0" width="27" height="21" filterUnits="userSpaceOnUse" color-interpolation-filters="sRGB">
<feFlood flood-opacity="0" result="BackgroundImageFix"/>
<feColorMatrix in="SourceAlpha" type="matrix" values="0 0 0 0 0 0 0 0 0 0 0 0 0 0 0 0 0 0 127 0" result="hardAlpha"/>
<feOffset dy="0.5"/>
<feGaussianBlur stdDeviation="0.75"/>
<feComposite in2="hardAlpha" operator="out"/>
<feColorMatrix type="matrix" values="0 0 0 0 0 0 0 0 0 0 0 0 0 0 0 0 0 0 0.1 0"/>
<feBlend mode="multiply" in2="BackgroundImageFix" result="effect1_dropShadow_701_24353"/>
<feColorMatrix in="SourceAlpha" type="matrix" values="0 0 0 0 0 0 0 0 0 0 0 0 0 0 0 0 0 0 127 0" result="hardAlpha"/>
<feOffset/>
<feGaussianBlur stdDeviation="0.5"/>
<feComposite in2="hardAlpha" operator="out"/>
<feColorMatrix type="matrix" values="0 0 0 0 0 0 0 0 0 0 0 0 0 0 0 0 0 0 0.11 0"/>
<feBlend mode="multiply" in2="effect1_dropShadow_701_24353" result="effect2_dropShadow_701_24353"/>
<feBlend mode="normal" in="SourceGraphic" in2="effect2_dropShadow_701_24353" result="shape"/>
</filter>
<clipPath id="clip0_701_24353">
<rect x="1.5" y="1" width="24" height="18" fill="white"/>
</clipPath>
</defs>
</svg>