<svg viewBox="0 0 27 21" fill="none" xmlns="http://www.w3.org/2000/svg">
<g filter="url(#filter0_dd_701_25132)">
<g clip-path="url(#clip0_701_25132)">
<mask id="mask0_701_25132" style="mask-type:alpha" maskUnits="userSpaceOnUse" x="1" y="1" width="25" height="18">
<rect x="1.5" y="1" width="24" height="18" fill="white"/>
</mask>
<g mask="url(#mask0_701_25132)">
<path fill-rule="evenodd" clip-rule="evenodd" d="M1.5 1V19H25.5V1H1.5Z" fill="#5196ED"/>
<mask id="mask1_701_25132" style="mask-type:alpha" maskUnits="userSpaceOnUse" x="1" y="1" width="25" height="18">
<path fill-rule="evenodd" clip-rule="evenodd" d="M1.5 1V19H25.5V1H1.5Z" fill="white"/>
</mask>
<g mask="url(#mask1_701_25132)">
<path fill-rule="evenodd" clip-rule="evenodd" d="M8.038 6.92032C8.038 6.92032 9.58609 7.76968 9.80138 8.00461C10.0166 8.23958 10.3616 9.10243 10.8995 8.61448C11.4376 8.1267 11.9755 8.50593 11.9755 7.72878C11.9755 6.95168 12.7788 5.14903 13.9444 5.60075C15.1101 6.05243 16.0685 5.76986 16.3373 5.95045C16.6064 6.13115 17.252 7.02851 17.7541 7.02851C18.2564 7.02851 18.5073 7.55253 18.5432 8.31157C18.5789 9.07068 18.3819 9.14317 18.848 9.23366C19.3144 9.32394 19.4936 9.66747 19.2607 10.1191C19.0275 10.571 19.0453 10.3722 19.0812 10.8421C19.1172 11.312 18.6151 14.083 17.0725 14.3544C15.5301 14.6253 14.0681 14.4809 14.4628 13.9565C14.8574 13.4326 15.4035 12.8295 14.5967 12.703C13.7894 12.5763 13.2808 12.4687 12.4737 12.6855C11.6665 12.9023 10.8237 13.2456 10.3213 12.5951C9.81928 11.9445 9.92702 11.4746 9.5145 11.1673C9.10208 10.8601 8.59972 10.9143 9.01243 10.3179C9.42466 9.72151 9.7654 9.9442 9.42466 9.47435C9.08419 9.00457 7.79798 8.79986 7.79798 8.33014C7.79798 7.86005 6.97988 6.82993 8.038 6.92032Z" fill="#F5F8FB"/>
</g>
</g>
</g>
<rect x="1.75" y="1.25" width="23.5" height="17.5" stroke="black" stroke-opacity="0.1" stroke-width="0.5" shape-rendering="crispEdges"/>
</g>
<defs>
<filter id="filter0_dd_701_25132" x="0" y="0" width="27" height="21" filterUnits="userSpaceOnUse" color-interpolation-filters="sRGB">
<feFlood flood-opacity="0" result="BackgroundImageFix"/>
<feColorMatrix in="SourceAlpha" type="matrix" values="0 0 0 0 0 0 0 0 0 0 0 0 0 0 0 0 0 0 127 0" result="hardAlpha"/>
<feOffset dy="0.5"/>
<feGaussianBlur stdDeviation="0.75"/>
<feComposite in2="hardAlpha" operator="out"/>
<feColorMatrix type="matrix" values="0 0 0 0 0 0 0 0 0 0 0 0 0 0 0 0 0 0 0.1 0"/>
<feBlend mode="multiply" in2="BackgroundImageFix" result="effect1_dropShadow_701_25132"/>
<feColorMatrix in="SourceAlpha" type="matrix" values="0 0 0 0 0 0 0 0 0 0 0 0 0 0 0 0 0 0 127 0" result="hardAlpha"/>
<feOffset/>
<feGaussianBlur stdDeviation="0.5"/>
<feComposite in2="hardAlpha" operator="out"/>
<feColorMatrix type="matrix" values="0 0 0 0 0 0 0 0 0 0 0 0 0 0 0 0 0 0 0.11 0"/>
<feBlend mode="multiply" in2="effect1_dropShadow_701_25132" result="effect2_dropShadow_701_25132"/>
<feBlend mode="normal" in="SourceGraphic" in2="effect2_dropShadow_701_25132" result="shape"/>
</filter>
<clipPath id="clip0_701_25132">
<rect x="1.5" y="1" width="24" height="18" fill="white"/>
</clipPath>
</defs>
</svg>