<svg viewBox="0 0 27 21" fill="none" xmlns="http://www.w3.org/2000/svg">
<g filter="url(#filter0_dd_701_22211)">
<g clip-path="url(#clip0_701_22211)">
<mask id="mask0_701_22211" style="mask-type:alpha" maskUnits="userSpaceOnUse" x="1" y="1" width="25" height="18">
<rect x="1.5" y="1" width="24" height="18" fill="white"/>
</mask>
<g mask="url(#mask0_701_22211)">
</g>
<g clip-path="url(#clip1_701_22211)">
<path fill-rule="evenodd" clip-rule="evenodd" d="M-2.5 -2V22H29.5V-2H-2.5Z" fill="#2E42A5"/>
<mask id="mask1_701_22211" style="mask-type:alpha" maskUnits="userSpaceOnUse" x="-3" y="-2" width="33" height="24">
<path fill-rule="evenodd" clip-rule="evenodd" d="M-2.5 -2V22H29.5V-2H-2.5Z" fill="white"/>
</mask>
<g mask="url(#mask1_701_22211)">
<rect x="-2.5" y="-2" width="18" height="14" fill="#2B409A"/>
<mask id="mask2_701_22211" style="mask-type:alpha" maskUnits="userSpaceOnUse" x="-3" y="-2" width="19" height="14">
<rect x="-2.5" y="-2" width="18" height="14" fill="white"/>
</mask>
<g mask="url(#mask2_701_22211)">
<path d="M-4.50426 10.9997L-0.543314 12.7369L15.5899 -0.11134L17.6792 -2.69287L13.4435 -3.27349L6.86318 2.2632L1.56668 5.99363L-4.50426 10.9997Z" fill="#F7FCFF"/>
<path d="M-3.96201 12.217L-1.94408 13.2251L16.9289 -2.93262H14.0955L-3.96201 12.217Z" fill="#F50100"/>
<path d="M17.5043 10.9997L13.5433 12.7369L-2.58987 -0.11134L-4.67919 -2.69287L-0.443518 -3.27349L6.13683 2.2632L11.4333 5.99363L17.5043 10.9997Z" fill="#F7FCFF"/>
<path d="M17.3691 11.8733L15.3512 12.8815L7.31487 5.96351L4.93227 5.19059L-4.88022 -2.68395H-2.04683L7.76015 5.00368L10.3651 5.9305L17.3691 11.8733Z" fill="#F50100"/>
<mask id="path-12-outside-1_701_22211" maskUnits="userSpaceOnUse" x="-4.5" y="-4" width="22" height="18" fill="black">
<rect fill="white" x="-4.5" y="-4" width="22" height="18"/>
<path fill-rule="evenodd" clip-rule="evenodd" d="M7.48451 -2H5.48451V4H-2.5V6H5.48451V12H7.48451V6H15.5V4H7.48451V-2Z"/>
</mask>
<path fill-rule="evenodd" clip-rule="evenodd" d="M7.48451 -2H5.48451V4H-2.5V6H5.48451V12H7.48451V6H15.5V4H7.48451V-2Z" fill="#F50100"/>
<path d="M5.48451 -2V-3.5H3.98451V-2H5.48451ZM7.48451 -2H8.98451V-3.5H7.48451V-2ZM5.48451 4V5.5H6.98451V4H5.48451ZM-2.5 4V2.5H-4V4H-2.5ZM-2.5 6H-4V7.5H-2.5V6ZM5.48451 6H6.98451V4.5H5.48451V6ZM5.48451 12H3.98451V13.5H5.48451V12ZM7.48451 12V13.5H8.98451V12H7.48451ZM7.48451 6V4.5H5.98451V6H7.48451ZM15.5 6V7.5H17V6H15.5ZM15.5 4H17V2.5H15.5V4ZM7.48451 4H5.98451V5.5H7.48451V4ZM5.48451 -0.5H7.48451V-3.5H5.48451V-0.5ZM6.98451 4V-2H3.98451V4H6.98451ZM-2.5 5.5H5.48451V2.5H-2.5V5.5ZM-1 6V4H-4V6H-1ZM5.48451 4.5H-2.5V7.5H5.48451V4.5ZM6.98451 12V6H3.98451V12H6.98451ZM7.48451 10.5H5.48451V13.5H7.48451V10.5ZM5.98451 6V12H8.98451V6H5.98451ZM15.5 4.5H7.48451V7.5H15.5V4.5ZM14 4V6H17V4H14ZM7.48451 5.5H15.5V2.5H7.48451V5.5ZM5.98451 -2V4H8.98451V-2H5.98451Z" fill="#F7FCFF" mask="url(#path-12-outside-1_701_22211)"/>
</g>
<g clip-path="url(#clip2_701_22211)">
<path d="M18.5575 12.722V9.05H26.3596V9.05038V9.05675V9.06313V9.06953V9.07595V9.08238V9.08883V9.09529V9.10177V9.10826V9.11477V9.12129V9.12783V9.13438V9.14095V9.14753V9.15413V9.16074V9.16737V9.17401V9.18067V9.18734V9.19402V9.20072V9.20743V9.21416V9.2209V9.22766V9.23443V9.24121V9.248V9.25481V9.26164V9.26848V9.27533V9.28219V9.28907V9.29596V9.30286V9.30978V9.31671V9.32365V9.3306V9.33757V9.34455V9.35155V9.35855V9.36557V9.3726V9.37964V9.3867V9.39377V9.40085V9.40794V9.41504V9.42216V9.42929V9.43642V9.44358V9.45074V9.45791V9.4651V9.47229V9.4795V9.48672V9.49395V9.5012V9.50845V9.51571V9.52299V9.53027V9.53757V9.54488V9.55219V9.55952V9.56686V9.57421V9.58157V9.58894V9.59632V9.60371V9.61111V9.61852V9.62594V9.63337V9.64081V9.64826V9.65571V9.66318V9.67066V9.67815V9.68564V9.69315V9.70066V9.70819V9.71572V9.72326V9.73081V9.73837V9.74594V9.75352V9.7611V9.76869V9.7763V9.78391V9.79153V9.79915V9.80679V9.81443V9.82208V9.82974V9.83741V9.84509V9.85277V9.86046V9.86816V9.87586V9.88357V9.89129V9.89902V9.90676V9.9145V9.92225V9.93V9.93777V9.94553V9.95331V9.96109V9.96888V9.97668V9.98448V9.99229V10.0001V10.0079V10.0158V10.0236V10.0314V10.0393V10.0471V10.055V10.0629V10.0707V10.0786V10.0865V10.0944V10.1023V10.1101V10.1181V10.126V10.1339V10.1418V10.1497V10.1576V10.1656V10.1735V10.1814V10.1894V10.1973V10.2053V10.2133V10.2212V10.2292V10.2372V10.2451V10.2531V10.2611V10.2691V10.2771V10.2851V10.2931V10.3011V10.3091V10.3171V10.3251V10.3331V10.3411V10.3492V10.3572V10.3652V10.3733V10.3813V10.3893V10.3974V10.4054V10.4135V10.4215V10.4296V10.4376V10.4457V10.4537V10.4618V10.4698V10.4779V10.486V10.494V10.5021V10.5102V10.5183V10.5263V10.5344V10.5425V10.5506V10.5586V10.5667V10.5748V10.5829V10.591V10.5991V10.6071V10.6152V10.6233V10.6314V10.6395V10.6476V10.6557V10.6638V10.6718V10.6799V10.688V10.6961V10.7042V10.7123V10.7204V10.7285V10.7366V10.7447V10.7527V10.7608V10.7689V10.777V10.7851V10.7932V10.8013V10.8093V10.8174V10.8255V10.8336V10.8417V10.8497V10.8578V10.8659V10.874V10.882V10.8901V10.8982V10.9062V10.9143V10.9224V10.9304V10.9385V10.9465V10.9546V10.9627V10.9707V10.9787V10.9868V10.9948V11.0029V11.0109V11.0189V11.027V11.035V11.043V11.051V11.0591V11.0671V11.0751V11.0831V11.0911V11.0991V11.1071V11.1151V11.1231V11.1311V11.139V11.147V11.155V11.163V11.1709V11.1789V11.1868V11.1948V11.2027V11.2107V11.2186V11.2266V11.2345V11.2424V11.2503V11.2583V11.2662V11.2741V11.282V11.2899V11.2977V11.3056V11.3135V11.3214V11.3292V11.3371V11.345V11.3528V11.3606V11.3685V11.3763V11.3841V11.392V11.3998V11.4076V11.4154V11.4232V11.4309V11.4387V11.4465V11.4543V11.462V11.4698V11.4775V11.4853V11.493V11.5007V11.5084V11.5161V11.5238V11.5315V11.5392V11.5469V11.5546V11.5622V11.5699V11.5775V11.5852V11.5928V11.6004V11.608V11.6156V11.6232V11.6308V11.6384V11.646V11.6535V11.6611V11.6686V11.6762V11.6837V11.6912V11.6987V11.7062V11.7137V11.7212V11.7287V11.7361V11.7436V11.751V11.7585V11.7659V11.7733V11.7807V11.7881V11.7955V11.8028V11.8102V11.8176V11.8249V11.8322V11.8396V11.8469V11.8542V11.8615V11.8687V11.876V11.8833V11.8905V11.8977V11.905V11.9122V11.9194V11.9266V11.9337V11.9409V11.9481V11.9552V11.9623V11.9695V11.9766V11.9837V11.9908V11.9978V12.0049V12.0119V12.019V12.026V12.033V12.04V12.047V12.054V12.0609V12.0679V12.0748V12.0817V12.0886V12.0955V12.1024V12.1093V12.1161V12.123V12.1298V12.1366V12.1434V12.1502V12.157V12.1637V12.1705V12.1772V12.1839V12.1906V12.1973V12.204V12.2107V12.2173V12.2239V12.2306V12.2372V12.2438V12.2503V12.2569V12.2634V12.27V12.2765V12.283V12.2895V12.2959V12.3024V12.3088V12.3152V12.3216V12.328V12.3344V12.3408V12.3471V12.3534V12.3598V12.3661V12.3723V12.3786V12.3848V12.3911V12.3973V12.4035V12.4097V12.4158V12.422V12.4281V12.4342V12.4403V12.4464V12.4525V12.4585V12.4645V12.4705V12.4765V12.4825V12.4885V12.4944V12.5003V12.5062V12.5121V12.518V12.5239V12.5297V12.5355V12.5413V12.5471V12.5528V12.5586V12.5643V12.57V12.5757V12.5814V12.587V12.5926V12.5983V12.6039V12.6094V12.615V12.6205V12.626V12.6315V12.637V12.6425V12.6479V12.6533V12.6587V12.6641V12.6695V12.6748V12.6801V12.6854V12.6907V12.696V12.7012V12.7064V12.7116V12.7168V12.722C26.3596 15.0739 25.4507 16.6314 24.5248 17.6012C24.0614 18.0864 23.5936 18.4248 23.2326 18.6417C23.0522 18.7502 22.8987 18.8281 22.7861 18.8788C22.7298 18.9041 22.6841 18.9225 22.6507 18.9344C22.6339 18.9404 22.6207 18.9445 22.611 18.9472C22.6051 18.9488 22.6017 18.9495 22.6001 18.9498C22.5985 18.9495 22.5948 18.9487 22.5886 18.9471C22.5784 18.9444 22.5645 18.9402 22.5468 18.9341C22.5115 18.9222 22.463 18.9037 22.4031 18.8783C22.2832 18.8275 22.1189 18.7495 21.9253 18.641C21.5381 18.4239 21.0347 18.0853 20.5356 17.5999C19.5381 16.6297 18.5575 15.0726 18.5575 12.722Z" fill="white"/>
<path d="M18.5575 12.722V9.05H26.3596V9.05038V9.05675V9.06313V9.06953V9.07595V9.08238V9.08883V9.09529V9.10177V9.10826V9.11477V9.12129V9.12783V9.13438V9.14095V9.14753V9.15413V9.16074V9.16737V9.17401V9.18067V9.18734V9.19402V9.20072V9.20743V9.21416V9.2209V9.22766V9.23443V9.24121V9.248V9.25481V9.26164V9.26848V9.27533V9.28219V9.28907V9.29596V9.30286V9.30978V9.31671V9.32365V9.3306V9.33757V9.34455V9.35155V9.35855V9.36557V9.3726V9.37964V9.3867V9.39377V9.40085V9.40794V9.41504V9.42216V9.42929V9.43642V9.44358V9.45074V9.45791V9.4651V9.47229V9.4795V9.48672V9.49395V9.5012V9.50845V9.51571V9.52299V9.53027V9.53757V9.54488V9.55219V9.55952V9.56686V9.57421V9.58157V9.58894V9.59632V9.60371V9.61111V9.61852V9.62594V9.63337V9.64081V9.64826V9.65571V9.66318V9.67066V9.67815V9.68564V9.69315V9.70066V9.70819V9.71572V9.72326V9.73081V9.73837V9.74594V9.75352V9.7611V9.76869V9.7763V9.78391V9.79153V9.79915V9.80679V9.81443V9.82208V9.82974V9.83741V9.84509V9.85277V9.86046V9.86816V9.87586V9.88357V9.89129V9.89902V9.90676V9.9145V9.92225V9.93V9.93777V9.94553V9.95331V9.96109V9.96888V9.97668V9.98448V9.99229V10.0001V10.0079V10.0158V10.0236V10.0314V10.0393V10.0471V10.055V10.0629V10.0707V10.0786V10.0865V10.0944V10.1023V10.1101V10.1181V10.126V10.1339V10.1418V10.1497V10.1576V10.1656V10.1735V10.1814V10.1894V10.1973V10.2053V10.2133V10.2212V10.2292V10.2372V10.2451V10.2531V10.2611V10.2691V10.2771V10.2851V10.2931V10.3011V10.3091V10.3171V10.3251V10.3331V10.3411V10.3492V10.3572V10.3652V10.3733V10.3813V10.3893V10.3974V10.4054V10.4135V10.4215V10.4296V10.4376V10.4457V10.4537V10.4618V10.4698V10.4779V10.486V10.494V10.5021V10.5102V10.5183V10.5263V10.5344V10.5425V10.5506V10.5586V10.5667V10.5748V10.5829V10.591V10.5991V10.6071V10.6152V10.6233V10.6314V10.6395V10.6476V10.6557V10.6638V10.6718V10.6799V10.688V10.6961V10.7042V10.7123V10.7204V10.7285V10.7366V10.7447V10.7527V10.7608V10.7689V10.777V10.7851V10.7932V10.8013V10.8093V10.8174V10.8255V10.8336V10.8417V10.8497V10.8578V10.8659V10.874V10.882V10.8901V10.8982V10.9062V10.9143V10.9224V10.9304V10.9385V10.9465V10.9546V10.9627V10.9707V10.9787V10.9868V10.9948V11.0029V11.0109V11.0189V11.027V11.035V11.043V11.051V11.0591V11.0671V11.0751V11.0831V11.0911V11.0991V11.1071V11.1151V11.1231V11.1311V11.139V11.147V11.155V11.163V11.1709V11.1789V11.1868V11.1948V11.2027V11.2107V11.2186V11.2266V11.2345V11.2424V11.2503V11.2583V11.2662V11.2741V11.282V11.2899V11.2977V11.3056V11.3135V11.3214V11.3292V11.3371V11.345V11.3528V11.3606V11.3685V11.3763V11.3841V11.392V11.3998V11.4076V11.4154V11.4232V11.4309V11.4387V11.4465V11.4543V11.462V11.4698V11.4775V11.4853V11.493V11.5007V11.5084V11.5161V11.5238V11.5315V11.5392V11.5469V11.5546V11.5622V11.5699V11.5775V11.5852V11.5928V11.6004V11.608V11.6156V11.6232V11.6308V11.6384V11.646V11.6535V11.6611V11.6686V11.6762V11.6837V11.6912V11.6987V11.7062V11.7137V11.7212V11.7287V11.7361V11.7436V11.751V11.7585V11.7659V11.7733V11.7807V11.7881V11.7955V11.8028V11.8102V11.8176V11.8249V11.8322V11.8396V11.8469V11.8542V11.8615V11.8687V11.876V11.8833V11.8905V11.8977V11.905V11.9122V11.9194V11.9266V11.9337V11.9409V11.9481V11.9552V11.9623V11.9695V11.9766V11.9837V11.9908V11.9978V12.0049V12.0119V12.019V12.026V12.033V12.04V12.047V12.054V12.0609V12.0679V12.0748V12.0817V12.0886V12.0955V12.1024V12.1093V12.1161V12.123V12.1298V12.1366V12.1434V12.1502V12.157V12.1637V12.1705V12.1772V12.1839V12.1906V12.1973V12.204V12.2107V12.2173V12.2239V12.2306V12.2372V12.2438V12.2503V12.2569V12.2634V12.27V12.2765V12.283V12.2895V12.2959V12.3024V12.3088V12.3152V12.3216V12.328V12.3344V12.3408V12.3471V12.3534V12.3598V12.3661V12.3723V12.3786V12.3848V12.3911V12.3973V12.4035V12.4097V12.4158V12.422V12.4281V12.4342V12.4403V12.4464V12.4525V12.4585V12.4645V12.4705V12.4765V12.4825V12.4885V12.4944V12.5003V12.5062V12.5121V12.518V12.5239V12.5297V12.5355V12.5413V12.5471V12.5528V12.5586V12.5643V12.57V12.5757V12.5814V12.587V12.5926V12.5983V12.6039V12.6094V12.615V12.6205V12.626V12.6315V12.637V12.6425V12.6479V12.6533V12.6587V12.6641V12.6695V12.6748V12.6801V12.6854V12.6907V12.696V12.7012V12.7064V12.7116V12.7168V12.722C26.3596 15.0739 25.4507 16.6314 24.5248 17.6012C24.0614 18.0864 23.5936 18.4248 23.2326 18.6417C23.0522 18.7502 22.8987 18.8281 22.7861 18.8788C22.7298 18.9041 22.6841 18.9225 22.6507 18.9344C22.6339 18.9404 22.6207 18.9445 22.611 18.9472C22.6051 18.9488 22.6017 18.9495 22.6001 18.9498C22.5985 18.9495 22.5948 18.9487 22.5886 18.9471C22.5784 18.9444 22.5645 18.9402 22.5468 18.9341C22.5115 18.9222 22.463 18.9037 22.4031 18.8783C22.2832 18.8275 22.1189 18.7495 21.9253 18.641C21.5381 18.4239 21.0347 18.0853 20.5356 17.5999C19.5381 16.6297 18.5575 15.0726 18.5575 12.722Z" stroke="#0B50A0" stroke-width="0.1"/>
<path d="M18.5575 12.722V9.05H26.3596V9.05038V9.05675V9.06313V9.06953V9.07595V9.08238V9.08883V9.09529V9.10177V9.10826V9.11477V9.12129V9.12783V9.13438V9.14095V9.14753V9.15413V9.16074V9.16737V9.17401V9.18067V9.18734V9.19402V9.20072V9.20743V9.21416V9.2209V9.22766V9.23443V9.24121V9.248V9.25481V9.26164V9.26848V9.27533V9.28219V9.28907V9.29596V9.30286V9.30978V9.31671V9.32365V9.3306V9.33757V9.34455V9.35155V9.35855V9.36557V9.3726V9.37964V9.3867V9.39377V9.40085V9.40794V9.41504V9.42216V9.42929V9.43642V9.44358V9.45074V9.45791V9.4651V9.47229V9.4795V9.48672V9.49395V9.5012V9.50845V9.51571V9.52299V9.53027V9.53757V9.54488V9.55219V9.55952V9.56686V9.57421V9.58157V9.58894V9.59632V9.60371V9.61111V9.61852V9.62594V9.63337V9.64081V9.64826V9.65571V9.66318V9.67066V9.67815V9.68564V9.69315V9.70066V9.70819V9.71572V9.72326V9.73081V9.73837V9.74594V9.75352V9.7611V9.76869V9.7763V9.78391V9.79153V9.79915V9.80679V9.81443V9.82208V9.82974V9.83741V9.84509V9.85277V9.86046V9.86816V9.87586V9.88357V9.89129V9.89902V9.90676V9.9145V9.92225V9.93V9.93777V9.94553V9.95331V9.96109V9.96888V9.97668V9.98448V9.99229V10.0001V10.0079V10.0158V10.0236V10.0314V10.0393V10.0471V10.055V10.0629V10.0707V10.0786V10.0865V10.0944V10.1023V10.1101V10.1181V10.126V10.1339V10.1418V10.1497V10.1576V10.1656V10.1735V10.1814V10.1894V10.1973V10.2053V10.2133V10.2212V10.2292V10.2372V10.2451V10.2531V10.2611V10.2691V10.2771V10.2851V10.2931V10.3011V10.3091V10.3171V10.3251V10.3331V10.3411V10.3492V10.3572V10.3652V10.3733V10.3813V10.3893V10.3974V10.4054V10.4135V10.4215V10.4296V10.4376V10.4457V10.4537V10.4618V10.4698V10.4779V10.486V10.494V10.5021V10.5102V10.5183V10.5263V10.5344V10.5425V10.5506V10.5586V10.5667V10.5748V10.5829V10.591V10.5991V10.6071V10.6152V10.6233V10.6314V10.6395V10.6476V10.6557V10.6638V10.6718V10.6799V10.688V10.6961V10.7042V10.7123V10.7204V10.7285V10.7366V10.7447V10.7527V10.7608V10.7689V10.777V10.7851V10.7932V10.8013V10.8093V10.8174V10.8255V10.8336V10.8417V10.8497V10.8578V10.8659V10.874V10.882V10.8901V10.8982V10.9062V10.9143V10.9224V10.9304V10.9385V10.9465V10.9546V10.9627V10.9707V10.9787V10.9868V10.9948V11.0029V11.0109V11.0189V11.027V11.035V11.043V11.051V11.0591V11.0671V11.0751V11.0831V11.0911V11.0991V11.1071V11.1151V11.1231V11.1311V11.139V11.147V11.155V11.163V11.1709V11.1789V11.1868V11.1948V11.2027V11.2107V11.2186V11.2266V11.2345V11.2424V11.2503V11.2583V11.2662V11.2741V11.282V11.2899V11.2977V11.3056V11.3135V11.3214V11.3292V11.3371V11.345V11.3528V11.3606V11.3685V11.3763V11.3841V11.392V11.3998V11.4076V11.4154V11.4232V11.4309V11.4387V11.4465V11.4543V11.462V11.4698V11.4775V11.4853V11.493V11.5007V11.5084V11.5161V11.5238V11.5315V11.5392V11.5469V11.5546V11.5622V11.5699V11.5775V11.5852V11.5928V11.6004V11.608V11.6156V11.6232V11.6308V11.6384V11.646V11.6535V11.6611V11.6686V11.6762V11.6837V11.6912V11.6987V11.7062V11.7137V11.7212V11.7287V11.7361V11.7436V11.751V11.7585V11.7659V11.7733V11.7807V11.7881V11.7955V11.8028V11.8102V11.8176V11.8249V11.8322V11.8396V11.8469V11.8542V11.8615V11.8687V11.876V11.8833V11.8905V11.8977V11.905V11.9122V11.9194V11.9266V11.9337V11.9409V11.9481V11.9552V11.9623V11.9695V11.9766V11.9837V11.9908V11.9978V12.0049V12.0119V12.019V12.026V12.033V12.04V12.047V12.054V12.0609V12.0679V12.0748V12.0817V12.0886V12.0955V12.1024V12.1093V12.1161V12.123V12.1298V12.1366V12.1434V12.1502V12.157V12.1637V12.1705V12.1772V12.1839V12.1906V12.1973V12.204V12.2107V12.2173V12.2239V12.2306V12.2372V12.2438V12.2503V12.2569V12.2634V12.27V12.2765V12.283V12.2895V12.2959V12.3024V12.3088V12.3152V12.3216V12.328V12.3344V12.3408V12.3471V12.3534V12.3598V12.3661V12.3723V12.3786V12.3848V12.3911V12.3973V12.4035V12.4097V12.4158V12.422V12.4281V12.4342V12.4403V12.4464V12.4525V12.4585V12.4645V12.4705V12.4765V12.4825V12.4885V12.4944V12.5003V12.5062V12.5121V12.518V12.5239V12.5297V12.5355V12.5413V12.5471V12.5528V12.5586V12.5643V12.57V12.5757V12.5814V12.587V12.5926V12.5983V12.6039V12.6094V12.615V12.6205V12.626V12.6315V12.637V12.6425V12.6479V12.6533V12.6587V12.6641V12.6695V12.6748V12.6801V12.6854V12.6907V12.696V12.7012V12.7064V12.7116V12.7168V12.722C26.3596 15.0739 25.4507 16.6314 24.5248 17.6012C24.0614 18.0864 23.5936 18.4248 23.2326 18.6417C23.0522 18.7502 22.8987 18.8281 22.7861 18.8788C22.7298 18.9041 22.6841 18.9225 22.6507 18.9344C22.6339 18.9404 22.6207 18.9445 22.611 18.9472C22.6051 18.9488 22.6017 18.9495 22.6001 18.9498C22.5985 18.9495 22.5948 18.9487 22.5886 18.9471C22.5784 18.9444 22.5645 18.9402 22.5468 18.9341C22.5115 18.9222 22.463 18.9037 22.4031 18.8783C22.2832 18.8275 22.1189 18.7495 21.9253 18.641C21.5381 18.4239 21.0347 18.0853 20.5356 17.5999C19.5381 16.6297 18.5575 15.0726 18.5575 12.722Z" stroke="#F7FCFF" stroke-width="0.1"/>
<mask id="mask3_701_22211" style="mask-type:alpha" maskUnits="userSpaceOnUse" x="18" y="9" width="9" height="10">
<path d="M18.5575 12.722V9.05H26.3596V9.05038V9.05675V9.06313V9.06953V9.07595V9.08238V9.08883V9.09529V9.10177V9.10826V9.11477V9.12129V9.12783V9.13438V9.14095V9.14753V9.15413V9.16074V9.16737V9.17401V9.18067V9.18734V9.19402V9.20072V9.20743V9.21416V9.2209V9.22766V9.23443V9.24121V9.248V9.25481V9.26164V9.26848V9.27533V9.28219V9.28907V9.29596V9.30286V9.30978V9.31671V9.32365V9.3306V9.33757V9.34455V9.35155V9.35855V9.36557V9.3726V9.37964V9.3867V9.39377V9.40085V9.40794V9.41504V9.42216V9.42929V9.43642V9.44358V9.45074V9.45791V9.4651V9.47229V9.4795V9.48672V9.49395V9.5012V9.50845V9.51571V9.52299V9.53027V9.53757V9.54488V9.55219V9.55952V9.56686V9.57421V9.58157V9.58894V9.59632V9.60371V9.61111V9.61852V9.62594V9.63337V9.64081V9.64826V9.65571V9.66318V9.67066V9.67815V9.68564V9.69315V9.70066V9.70819V9.71572V9.72326V9.73081V9.73837V9.74594V9.75352V9.7611V9.76869V9.7763V9.78391V9.79153V9.79915V9.80679V9.81443V9.82208V9.82974V9.83741V9.84509V9.85277V9.86046V9.86816V9.87586V9.88357V9.89129V9.89902V9.90676V9.9145V9.92225V9.93V9.93777V9.94553V9.95331V9.96109V9.96888V9.97668V9.98448V9.99229V10.0001V10.0079V10.0158V10.0236V10.0314V10.0393V10.0471V10.055V10.0629V10.0707V10.0786V10.0865V10.0944V10.1023V10.1101V10.1181V10.126V10.1339V10.1418V10.1497V10.1576V10.1656V10.1735V10.1814V10.1894V10.1973V10.2053V10.2133V10.2212V10.2292V10.2372V10.2451V10.2531V10.2611V10.2691V10.2771V10.2851V10.2931V10.3011V10.3091V10.3171V10.3251V10.3331V10.3411V10.3492V10.3572V10.3652V10.3733V10.3813V10.3893V10.3974V10.4054V10.4135V10.4215V10.4296V10.4376V10.4457V10.4537V10.4618V10.4698V10.4779V10.486V10.494V10.5021V10.5102V10.5183V10.5263V10.5344V10.5425V10.5506V10.5586V10.5667V10.5748V10.5829V10.591V10.5991V10.6071V10.6152V10.6233V10.6314V10.6395V10.6476V10.6557V10.6638V10.6718V10.6799V10.688V10.6961V10.7042V10.7123V10.7204V10.7285V10.7366V10.7447V10.7527V10.7608V10.7689V10.777V10.7851V10.7932V10.8013V10.8093V10.8174V10.8255V10.8336V10.8417V10.8497V10.8578V10.8659V10.874V10.882V10.8901V10.8982V10.9062V10.9143V10.9224V10.9304V10.9385V10.9465V10.9546V10.9627V10.9707V10.9787V10.9868V10.9948V11.0029V11.0109V11.0189V11.027V11.035V11.043V11.051V11.0591V11.0671V11.0751V11.0831V11.0911V11.0991V11.1071V11.1151V11.1231V11.1311V11.139V11.147V11.155V11.163V11.1709V11.1789V11.1868V11.1948V11.2027V11.2107V11.2186V11.2266V11.2345V11.2424V11.2503V11.2583V11.2662V11.2741V11.282V11.2899V11.2977V11.3056V11.3135V11.3214V11.3292V11.3371V11.345V11.3528V11.3606V11.3685V11.3763V11.3841V11.392V11.3998V11.4076V11.4154V11.4232V11.4309V11.4387V11.4465V11.4543V11.462V11.4698V11.4775V11.4853V11.493V11.5007V11.5084V11.5161V11.5238V11.5315V11.5392V11.5469V11.5546V11.5622V11.5699V11.5775V11.5852V11.5928V11.6004V11.608V11.6156V11.6232V11.6308V11.6384V11.646V11.6535V11.6611V11.6686V11.6762V11.6837V11.6912V11.6987V11.7062V11.7137V11.7212V11.7287V11.7361V11.7436V11.751V11.7585V11.7659V11.7733V11.7807V11.7881V11.7955V11.8028V11.8102V11.8176V11.8249V11.8322V11.8396V11.8469V11.8542V11.8615V11.8687V11.876V11.8833V11.8905V11.8977V11.905V11.9122V11.9194V11.9266V11.9337V11.9409V11.9481V11.9552V11.9623V11.9695V11.9766V11.9837V11.9908V11.9978V12.0049V12.0119V12.019V12.026V12.033V12.04V12.047V12.054V12.0609V12.0679V12.0748V12.0817V12.0886V12.0955V12.1024V12.1093V12.1161V12.123V12.1298V12.1366V12.1434V12.1502V12.157V12.1637V12.1705V12.1772V12.1839V12.1906V12.1973V12.204V12.2107V12.2173V12.2239V12.2306V12.2372V12.2438V12.2503V12.2569V12.2634V12.27V12.2765V12.283V12.2895V12.2959V12.3024V12.3088V12.3152V12.3216V12.328V12.3344V12.3408V12.3471V12.3534V12.3598V12.3661V12.3723V12.3786V12.3848V12.3911V12.3973V12.4035V12.4097V12.4158V12.422V12.4281V12.4342V12.4403V12.4464V12.4525V12.4585V12.4645V12.4705V12.4765V12.4825V12.4885V12.4944V12.5003V12.5062V12.5121V12.518V12.5239V12.5297V12.5355V12.5413V12.5471V12.5528V12.5586V12.5643V12.57V12.5757V12.5814V12.587V12.5926V12.5983V12.6039V12.6094V12.615V12.6205V12.626V12.6315V12.637V12.6425V12.6479V12.6533V12.6587V12.6641V12.6695V12.6748V12.6801V12.6854V12.6907V12.696V12.7012V12.7064V12.7116V12.7168V12.722C26.3596 15.0739 25.4507 16.6314 24.5248 17.6012C24.0614 18.0864 23.5936 18.4248 23.2326 18.6417C23.0522 18.7502 22.8987 18.8281 22.7861 18.8788C22.7298 18.9041 22.6841 18.9225 22.6507 18.9344C22.6339 18.9404 22.6207 18.9445 22.611 18.9472C22.6051 18.9488 22.6017 18.9495 22.6001 18.9498C22.5985 18.9495 22.5948 18.9487 22.5886 18.9471C22.5784 18.9444 22.5645 18.9402 22.5468 18.9341C22.5115 18.9222 22.463 18.9037 22.4031 18.8783C22.2832 18.8275 22.1189 18.7495 21.9253 18.641C21.5381 18.4239 21.0347 18.0853 20.5356 17.5999C19.5381 16.6297 18.5575 15.0726 18.5575 12.722Z" fill="white"/>
<path d="M18.5575 12.722V9.05H26.3596V9.05038V9.05675V9.06313V9.06953V9.07595V9.08238V9.08883V9.09529V9.10177V9.10826V9.11477V9.12129V9.12783V9.13438V9.14095V9.14753V9.15413V9.16074V9.16737V9.17401V9.18067V9.18734V9.19402V9.20072V9.20743V9.21416V9.2209V9.22766V9.23443V9.24121V9.248V9.25481V9.26164V9.26848V9.27533V9.28219V9.28907V9.29596V9.30286V9.30978V9.31671V9.32365V9.3306V9.33757V9.34455V9.35155V9.35855V9.36557V9.3726V9.37964V9.3867V9.39377V9.40085V9.40794V9.41504V9.42216V9.42929V9.43642V9.44358V9.45074V9.45791V9.4651V9.47229V9.4795V9.48672V9.49395V9.5012V9.50845V9.51571V9.52299V9.53027V9.53757V9.54488V9.55219V9.55952V9.56686V9.57421V9.58157V9.58894V9.59632V9.60371V9.61111V9.61852V9.62594V9.63337V9.64081V9.64826V9.65571V9.66318V9.67066V9.67815V9.68564V9.69315V9.70066V9.70819V9.71572V9.72326V9.73081V9.73837V9.74594V9.75352V9.7611V9.76869V9.7763V9.78391V9.79153V9.79915V9.80679V9.81443V9.82208V9.82974V9.83741V9.84509V9.85277V9.86046V9.86816V9.87586V9.88357V9.89129V9.89902V9.90676V9.9145V9.92225V9.93V9.93777V9.94553V9.95331V9.96109V9.96888V9.97668V9.98448V9.99229V10.0001V10.0079V10.0158V10.0236V10.0314V10.0393V10.0471V10.055V10.0629V10.0707V10.0786V10.0865V10.0944V10.1023V10.1101V10.1181V10.126V10.1339V10.1418V10.1497V10.1576V10.1656V10.1735V10.1814V10.1894V10.1973V10.2053V10.2133V10.2212V10.2292V10.2372V10.2451V10.2531V10.2611V10.2691V10.2771V10.2851V10.2931V10.3011V10.3091V10.3171V10.3251V10.3331V10.3411V10.3492V10.3572V10.3652V10.3733V10.3813V10.3893V10.3974V10.4054V10.4135V10.4215V10.4296V10.4376V10.4457V10.4537V10.4618V10.4698V10.4779V10.486V10.494V10.5021V10.5102V10.5183V10.5263V10.5344V10.5425V10.5506V10.5586V10.5667V10.5748V10.5829V10.591V10.5991V10.6071V10.6152V10.6233V10.6314V10.6395V10.6476V10.6557V10.6638V10.6718V10.6799V10.688V10.6961V10.7042V10.7123V10.7204V10.7285V10.7366V10.7447V10.7527V10.7608V10.7689V10.777V10.7851V10.7932V10.8013V10.8093V10.8174V10.8255V10.8336V10.8417V10.8497V10.8578V10.8659V10.874V10.882V10.8901V10.8982V10.9062V10.9143V10.9224V10.9304V10.9385V10.9465V10.9546V10.9627V10.9707V10.9787V10.9868V10.9948V11.0029V11.0109V11.0189V11.027V11.035V11.043V11.051V11.0591V11.0671V11.0751V11.0831V11.0911V11.0991V11.1071V11.1151V11.1231V11.1311V11.139V11.147V11.155V11.163V11.1709V11.1789V11.1868V11.1948V11.2027V11.2107V11.2186V11.2266V11.2345V11.2424V11.2503V11.2583V11.2662V11.2741V11.282V11.2899V11.2977V11.3056V11.3135V11.3214V11.3292V11.3371V11.345V11.3528V11.3606V11.3685V11.3763V11.3841V11.392V11.3998V11.4076V11.4154V11.4232V11.4309V11.4387V11.4465V11.4543V11.462V11.4698V11.4775V11.4853V11.493V11.5007V11.5084V11.5161V11.5238V11.5315V11.5392V11.5469V11.5546V11.5622V11.5699V11.5775V11.5852V11.5928V11.6004V11.608V11.6156V11.6232V11.6308V11.6384V11.646V11.6535V11.6611V11.6686V11.6762V11.6837V11.6912V11.6987V11.7062V11.7137V11.7212V11.7287V11.7361V11.7436V11.751V11.7585V11.7659V11.7733V11.7807V11.7881V11.7955V11.8028V11.8102V11.8176V11.8249V11.8322V11.8396V11.8469V11.8542V11.8615V11.8687V11.876V11.8833V11.8905V11.8977V11.905V11.9122V11.9194V11.9266V11.9337V11.9409V11.9481V11.9552V11.9623V11.9695V11.9766V11.9837V11.9908V11.9978V12.0049V12.0119V12.019V12.026V12.033V12.04V12.047V12.054V12.0609V12.0679V12.0748V12.0817V12.0886V12.0955V12.1024V12.1093V12.1161V12.123V12.1298V12.1366V12.1434V12.1502V12.157V12.1637V12.1705V12.1772V12.1839V12.1906V12.1973V12.204V12.2107V12.2173V12.2239V12.2306V12.2372V12.2438V12.2503V12.2569V12.2634V12.27V12.2765V12.283V12.2895V12.2959V12.3024V12.3088V12.3152V12.3216V12.328V12.3344V12.3408V12.3471V12.3534V12.3598V12.3661V12.3723V12.3786V12.3848V12.3911V12.3973V12.4035V12.4097V12.4158V12.422V12.4281V12.4342V12.4403V12.4464V12.4525V12.4585V12.4645V12.4705V12.4765V12.4825V12.4885V12.4944V12.5003V12.5062V12.5121V12.518V12.5239V12.5297V12.5355V12.5413V12.5471V12.5528V12.5586V12.5643V12.57V12.5757V12.5814V12.587V12.5926V12.5983V12.6039V12.6094V12.615V12.6205V12.626V12.6315V12.637V12.6425V12.6479V12.6533V12.6587V12.6641V12.6695V12.6748V12.6801V12.6854V12.6907V12.696V12.7012V12.7064V12.7116V12.7168V12.722C26.3596 15.0739 25.4507 16.6314 24.5248 17.6012C24.0614 18.0864 23.5936 18.4248 23.2326 18.6417C23.0522 18.7502 22.8987 18.8281 22.7861 18.8788C22.7298 18.9041 22.6841 18.9225 22.6507 18.9344C22.6339 18.9404 22.6207 18.9445 22.611 18.9472C22.6051 18.9488 22.6017 18.9495 22.6001 18.9498C22.5985 18.9495 22.5948 18.9487 22.5886 18.9471C22.5784 18.9444 22.5645 18.9402 22.5468 18.9341C22.5115 18.9222 22.463 18.9037 22.4031 18.8783C22.2832 18.8275 22.1189 18.7495 21.9253 18.641C21.5381 18.4239 21.0347 18.0853 20.5356 17.5999C19.5381 16.6297 18.5575 15.0726 18.5575 12.722Z" stroke="white" stroke-width="0.1"/>
</mask>
<g mask="url(#mask3_701_22211)">
<rect x="18" y="8.5" width="9" height="3.4" fill="#F50100"/>
<path d="M22.012 12.6C22.3 12.6 22.876 12.2865 23.02 12.2142C23.548 11.9007 23.932 12.1901 24.244 12.3347C24.58 12.4794 25.204 12.6482 25.588 12.3347C25.972 12.0213 26.188 12.0454 26.452 12.0454C26.5 11.6837 26.5 11.322 26.5 10.9121V10.6228C26.164 10.5504 25.996 10.6469 25.636 10.9603C25.276 11.2738 24.868 11.2015 24.34 11.0086C23.836 10.7916 23.332 10.4058 22.828 11.0086C22.684 11.1774 22.348 11.4185 22.012 11.4185C21.652 11.4185 21.34 11.1774 21.196 11.0086C20.668 10.4058 20.188 10.7916 19.684 11.0086C19.156 11.2015 18.724 11.2738 18.364 10.9603C18.028 10.6469 17.86 10.5504 17.5 10.6228V10.9121C17.5 11.322 17.524 11.6837 17.572 12.0454C17.836 12.0454 18.028 12.0213 18.412 12.3347C18.796 12.6482 19.444 12.4794 19.756 12.3347C20.092 12.1901 20.476 11.9007 21.004 12.2142C21.148 12.2865 21.7 12.6 22.012 12.6H22.012Z" fill="#F50100"/>
<path fill-rule="evenodd" clip-rule="evenodd" d="M19.5837 10.0488C19.5837 10.0488 19.8006 10.0589 20.0575 10.324C20.3143 10.5892 21.2595 10.4204 21.2595 10.2605C21.2595 10.1005 20.686 10.005 20.9063 9.73148C21.1267 9.45798 21.5 9.45748 21.8 9.59996C21.886 9.59996 21.8765 10.5355 22.0729 10.4842C22.6947 10.3215 23.6978 9.99925 23.992 10.1375C24.3791 10.3194 24.6753 10.2742 24.5769 10.0132C24.4785 9.75214 24.2256 9.589 23.7386 9.73148C23.2516 9.87395 23.3666 10.0132 22.9457 10.0132C22.5248 10.0132 21.8027 10.2409 22.1234 9.73148C22.4108 9.27502 22.7536 9.26609 22.8844 9.45798C22.9513 9.55615 22.4053 9.77293 22.4053 9.87395C22.4053 10.0132 23.8117 9.60017 23.992 9.60017C24.1722 9.60017 24.6683 9.589 24.7175 9.73148C24.7667 9.87395 25.0662 10.0047 24.8379 10.1375C24.6096 10.2703 24.2331 10.3535 24.4921 10.5237C24.7512 10.6939 25.4076 10.7713 25.4363 10.9483C25.465 11.1253 25.7473 11.3897 25.634 11.3897C25.5207 11.3897 25.3159 11.6389 25.1252 11.563C24.9346 11.4871 24.9121 11.4205 25.095 11.359C25.2778 11.2975 25.2761 11.0389 25.1252 11.0389C24.9744 11.0389 24.9873 11.0193 24.6439 10.9287C24.3006 10.8381 23.8461 10.7374 23.8734 10.9287C23.9007 11.12 24.1332 11.5307 23.7207 11.5698C23.3083 11.609 23.1152 11.7661 23.0349 11.6395C22.9546 11.513 22.6677 11.3444 22.8933 11.2903C23.119 11.2362 23.3346 11.4741 23.4159 11.4353C23.4971 11.3964 23.6724 11.2578 23.5181 11.0933C23.3638 10.9287 23.0642 10.9231 23.3 10.8C23.5358 10.6768 23.395 10.5829 22.9457 10.8381C22.4964 11.0933 22.2465 11.3101 21.852 11.2795C21.4575 11.2488 21.2805 11.3891 21.1537 11.3478C21.0269 11.3064 20.4094 11.8048 20.2316 11.6783C20.0538 11.5518 19.4798 11.5033 19.5831 11.3478C19.6864 11.1922 19.8252 11.1122 19.9797 11.1922C20.1342 11.2723 20.2878 11.3524 20.392 11.2723C20.4962 11.1922 20.8264 10.8185 20.7507 10.7636C20.675 10.7087 20.4083 10.6146 19.9797 10.6146C19.5511 10.6146 19.5412 10.3298 19.4395 10.2C19.3377 10.0701 19.5837 10.0488 19.5837 10.0488Z" fill="#FFD100"/>
<path d="M22.012 15C22.3 15 22.876 14.6865 23.02 14.6142C23.548 14.3007 23.932 14.5901 24.244 14.7348C24.58 14.8794 25.204 15.0482 25.588 14.7348C25.972 14.4213 26.188 14.4454 26.452 14.4454C26.5 14.0837 26.5 13.7221 26.5 13.3121V13.0228C26.164 12.9505 25.996 13.0469 25.636 13.3604C25.276 13.6738 24.868 13.6015 24.34 13.4086C23.836 13.1916 23.332 12.8058 22.828 13.4086C22.684 13.5774 22.348 13.8185 22.012 13.8185C21.652 13.8185 21.34 13.5774 21.196 13.4086C20.668 12.8058 20.188 13.1916 19.684 13.4086C19.156 13.6015 18.724 13.6738 18.364 13.3604C18.028 13.0469 17.86 12.9505 17.5 13.0228V13.3121C17.5 13.7221 17.524 14.0837 17.572 14.4454C17.836 14.4454 18.028 14.4213 18.412 14.7348C18.796 15.0482 19.444 14.8794 19.756 14.7348C20.092 14.5901 20.476 14.3007 21.004 14.6142C21.148 14.6865 21.7 15 22.012 15H22.012Z" fill="#0B50A0"/>
<path d="M22.012 17.3C22.3 17.3 22.876 16.9866 23.02 16.9143C23.548 16.6008 23.932 16.8901 24.244 17.0348C24.58 17.1795 25.204 17.3483 25.588 17.0348C25.972 16.7214 26.188 16.7455 26.452 16.7455C26.5 16.3838 26.5 16.0221 26.5 15.6122V15.3228C26.164 15.2505 25.996 15.347 25.636 15.6604C25.276 15.9739 24.868 15.9015 24.34 15.7086C23.836 15.4916 23.332 15.1058 22.828 15.7086C22.684 15.8774 22.348 16.1185 22.012 16.1185C21.652 16.1185 21.34 15.8774 21.196 15.7086C20.668 15.1058 20.188 15.4916 19.684 15.7086C19.156 15.9015 18.724 15.9739 18.364 15.6604C18.028 15.347 17.86 15.2505 17.5 15.3228V15.6122C17.5 16.0221 17.524 16.3838 17.572 16.7455C17.836 16.7455 18.028 16.7214 18.412 17.0348C18.796 17.3483 19.444 17.1795 19.756 17.0348C20.092 16.8901 20.476 16.6008 21.004 16.9143C21.148 16.9866 21.7 17.3 22.012 17.3H22.012Z" fill="#0B50A0"/>
<path d="M22.012 19.6C22.3 19.6 22.876 19.2865 23.02 19.2142C23.548 18.9007 23.932 19.1901 24.244 19.3347C24.58 19.4794 25.204 19.6482 25.588 19.3347C25.972 19.0213 26.188 19.0454 26.452 19.0454C26.5 18.6837 26.5 18.322 26.5 17.9121V17.6228C26.164 17.5504 25.996 17.6469 25.636 17.9603C25.276 18.2738 24.868 18.2015 24.34 18.0086C23.836 17.7916 23.332 17.4058 22.828 18.0086C22.684 18.1774 22.348 18.4185 22.012 18.4185C21.652 18.4185 21.34 18.1774 21.196 18.0086C20.668 17.4058 20.188 17.7916 19.684 18.0086C19.156 18.2015 18.724 18.2738 18.364 17.9603C18.028 17.6469 17.86 17.5504 17.5 17.6228V17.9121C17.5 18.322 17.524 18.6837 17.572 19.0454C17.836 19.0454 18.028 19.0213 18.412 19.3347C18.796 19.6482 19.444 19.4794 19.756 19.3347C20.092 19.1901 20.476 18.9007 21.004 19.2142C21.148 19.2865 21.7 19.6 22.012 19.6H22.012Z" fill="#0B50A0"/>
<path d="M22.5824 16.5445L22.5329 16.5184L22.4847 16.5469L22.068 16.7939L22.1905 16.2771L22.204 16.2203L22.1611 16.1806L21.7556 15.8059H22.2749H22.3446L22.3687 15.7404L22.5421 15.2694L22.7476 15.7455L22.7737 15.8059H22.8395H23.2676L22.9084 16.1853L22.8671 16.2289L22.8862 16.2858L23.0565 16.795L22.5824 16.5445Z" fill="#059334" stroke="#FFD100" stroke-width="0.2"/>
<path d="M20.5824 14.5445L20.5329 14.5184L20.4847 14.5469L20.068 14.7939L20.1905 14.2771L20.204 14.2203L20.1611 14.1806L19.7556 13.8059H20.2749H20.3446L20.3687 13.7404L20.5421 13.2694L20.7476 13.7455L20.7737 13.8059H20.8395H21.2676L20.9084 14.1853L20.8671 14.2289L20.8862 14.2858L21.0565 14.795L20.5824 14.5445Z" fill="#059334" stroke="#FFD100" stroke-width="0.2"/>
<path d="M24.5824 14.5445L24.5329 14.5184L24.4847 14.5469L24.068 14.7939L24.1905 14.2771L24.204 14.2203L24.1611 14.1806L23.7556 13.8059H24.2749H24.3446L24.3687 13.7404L24.5421 13.2694L24.7476 13.7455L24.7737 13.8059H24.8395H25.2676L24.9084 14.1853L24.8671 14.2289L24.8862 14.2858L25.0565 14.795L24.5824 14.5445Z" fill="#059334" stroke="#FFD100" stroke-width="0.2"/>
</g>
</g>
<path d="M17.8369 18.6344C17.9288 18.831 18.5872 19.089 19.3527 18.7573C19.8733 18.5238 20.2101 18.192 20.5317 17.6022C20.6235 17.4547 20.6695 17.2704 20.4551 17.1598C20.2867 17.0615 20.0111 16.9509 19.8886 16.8526C19.8274 16.8035 19.7661 16.7666 19.7202 16.7297C19.7508 16.7543 19.7814 16.7789 19.812 16.8158C20.1183 17.1107 19.7967 17.5408 19.4599 17.7988C19.2149 17.9831 18.7709 18.4378 18.1278 18.0077C17.99 17.9094 17.6685 18.3149 17.8369 18.6344L17.8369 18.6344Z" fill="#FFD100"/>
<path d="M27.146 18.6344C27.0388 18.831 26.3804 19.089 25.6302 18.7573C25.1096 18.5238 24.7728 18.192 24.4359 17.6022C24.3594 17.4547 24.3134 17.2704 24.5278 17.1598C24.6962 17.0615 24.9718 16.9509 25.0943 16.8526C25.1555 16.8035 25.2015 16.7666 25.2627 16.7297C25.2321 16.7543 25.2015 16.7789 25.1708 16.8158C24.8646 17.1107 25.1861 17.5408 25.5077 17.7988C25.7527 17.9831 26.212 18.4378 26.8551 18.0077C26.9929 17.9094 27.2991 18.3149 27.146 18.6344L27.146 18.6344Z" fill="#FFD100"/>
<path d="M22.4915 19.6912C23.7164 19.6912 25.5996 19.2489 26.6101 17.7006C26.7786 17.4425 26.6101 17.3074 26.4111 17.2213C26.1967 17.1476 25.9365 16.9756 25.7987 16.865C26.0436 17.0616 25.9977 17.1968 25.8293 17.418C25.0484 18.4624 23.9767 18.9908 22.4915 18.9908C21.0063 18.9908 19.9345 18.4624 19.1537 17.418C18.9853 17.1968 18.9393 17.0616 19.169 16.865C19.0465 16.9756 18.7709 17.1476 18.5566 17.2213C18.3575 17.3074 18.1891 17.4425 18.3575 17.7006C19.368 19.2489 21.2666 19.6912 22.4915 19.6912H22.4915Z" fill="#FFD100"/>
<path d="M19.6589 17.6145C19.6283 17.4917 19.4293 17.5408 19.368 17.6883C19.2915 17.6023 19.2149 17.5162 19.1537 17.4179C18.9699 17.1968 18.9393 17.0493 19.1996 16.8404C19.3221 16.7421 19.5671 16.6315 19.7355 16.7544C20.0876 16.9879 19.9039 17.3688 19.6589 17.6145L19.6589 17.6145Z" fill="#F50100"/>
<path d="M25.3087 17.6145C25.3393 17.4917 25.5537 17.5408 25.6149 17.6883C25.6915 17.6023 25.768 17.5162 25.8293 17.4179C26.013 17.1968 26.0436 17.0493 25.768 16.8404C25.6609 16.7421 25.4159 16.6315 25.2322 16.7544C24.8953 16.9879 25.0637 17.3688 25.3087 17.6145L25.3087 17.6145Z" fill="#F50100"/>
<path d="M20.924 7.36441C20.8037 7.20013 20.4771 7.12711 20.3396 7.27314C20.2881 7.30965 20.2193 7.30965 20.1678 7.3279C20.0818 7.3279 19.9721 7.37386 20.0065 7.5564C20.099 7.5564 20.099 7.6017 20.1506 7.6017C20.1849 7.58345 20.2743 7.91828 20.4462 7.90002C20.6353 7.90002 20.8037 7.98502 20.8381 8.02153C20.8897 8.07629 20.9584 8.22231 20.8725 8.29533C20.7521 8.40485 20.6662 8.66039 20.8725 8.86118C21.0959 9.04371 21.6631 9.31751 22.2991 8.78817C22.9179 8.27707 23.8804 8.56913 23.9491 8.75166C24.0351 8.93419 24.0695 9.04371 24.0866 9.13498C24.1038 9.20799 24.5679 9.31751 24.6367 9.37227C24.7226 9.42703 24.8429 9.40878 24.8086 9.2445C24.7398 8.73341 24.4476 8.6604 24.4132 8.4231C24.5851 8.44135 24.7054 8.44135 24.7742 8.36834C24.8257 8.29533 24.8945 8.16755 24.9632 8.13105C25.0148 8.09454 25.0148 8.05803 24.9461 8.07629C24.8601 8.09454 24.8086 8.13105 24.6539 8.11279C24.2879 8.07055 24.3784 6.68592 23.1682 6.41657C22.4203 6.25013 21.4877 7.39154 21.2319 7.50454C21.2264 7.507 21.2211 7.50897 21.2162 7.51043C21.0959 7.51043 20.9928 7.45567 20.924 7.36441Z" fill="#059334"/>
</g>
</g>
</g>
<rect x="1.75" y="1.25" width="23.5" height="17.5" stroke="black" stroke-opacity="0.1" stroke-width="0.5" shape-rendering="crispEdges"/>
</g>
<defs>
<filter id="filter0_dd_701_22211" x="0" y="0" width="27" height="21" filterUnits="userSpaceOnUse" color-interpolation-filters="sRGB">
<feFlood flood-opacity="0" result="BackgroundImageFix"/>
<feColorMatrix in="SourceAlpha" type="matrix" values="0 0 0 0 0 0 0 0 0 0 0 0 0 0 0 0 0 0 127 0" result="hardAlpha"/>
<feOffset dy="0.5"/>
<feGaussianBlur stdDeviation="0.75"/>
<feComposite in2="hardAlpha" operator="out"/>
<feColorMatrix type="matrix" values="0 0 0 0 0 0 0 0 0 0 0 0 0 0 0 0 0 0 0.1 0"/>
<feBlend mode="multiply" in2="BackgroundImageFix" result="effect1_dropShadow_701_22211"/>
<feColorMatrix in="SourceAlpha" type="matrix" values="0 0 0 0 0 0 0 0 0 0 0 0 0 0 0 0 0 0 127 0" result="hardAlpha"/>
<feOffset/>
<feGaussianBlur stdDeviation="0.5"/>
<feComposite in2="hardAlpha" operator="out"/>
<feColorMatrix type="matrix" values="0 0 0 0 0 0 0 0 0 0 0 0 0 0 0 0 0 0 0.11 0"/>
<feBlend mode="multiply" in2="effect1_dropShadow_701_22211" result="effect2_dropShadow_701_22211"/>
<feBlend mode="normal" in="SourceGraphic" in2="effect2_dropShadow_701_22211" result="shape"/>
</filter>
<clipPath id="clip0_701_22211">
<rect x="1.5" y="1" width="24" height="18" fill="white"/>
</clipPath>
<clipPath id="clip1_701_22211">
<rect width="32" height="24" fill="white" transform="translate(-2.5 -2)"/>
</clipPath>
<clipPath id="clip2_701_22211">
<rect width="8" height="10" fill="white" transform="translate(18.5 9)"/>
</clipPath>
</defs>
</svg>