<svg width="27" height="21" viewBox="0 0 27 21" fill="none" xmlns="http://www.w3.org/2000/svg">
<g filter="url(#filter0_dd_701_23704)">
<g clip-path="url(#clip0_701_23704)">
<mask id="mask0_701_23704" style="mask-type:alpha" maskUnits="userSpaceOnUse" x="1" y="1" width="25" height="18">
<rect x="1.5" y="1" width="24" height="18" fill="white"/>
</mask>
<g mask="url(#mask0_701_23704)">
<path fill-rule="evenodd" clip-rule="evenodd" d="M1.5 1V19H25.5V1H1.5Z" fill="#FFB400"/>
<mask id="mask1_701_23704" style="mask-type:alpha" maskUnits="userSpaceOnUse" x="1" y="1" width="25" height="18">
<path fill-rule="evenodd" clip-rule="evenodd" d="M1.5 1V19H25.5V1H1.5Z" fill="white"/>
</mask>
<g mask="url(#mask1_701_23704)">
<path fill-rule="evenodd" clip-rule="evenodd" d="M1.5 1V5.5H25.5V1H1.5Z" fill="#C51918"/>
<path fill-rule="evenodd" clip-rule="evenodd" d="M1.5 14.5V19H25.5V14.5H1.5Z" fill="#C51918"/>
<rect x="5.25601" y="8.70398" width="0.84" height="4.368" fill="#F1F9FF"/>
<path fill-rule="evenodd" clip-rule="evenodd" d="M6.43201 7.948H4.92001V8.368H5.17201V8.704H6.18001V8.368H6.43201V7.948Z" fill="#C88A02"/>
<path fill-rule="evenodd" clip-rule="evenodd" d="M6.18001 13.324H6.43201V13.744H4.92001V13.324H5.17201V12.988H6.18001V13.324Z" fill="#C88A02"/>
<path fill-rule="evenodd" clip-rule="evenodd" d="M5.67601 8.03203C5.85881 8.03203 5.87739 7.9632 5.98524 7.86039C6.06898 7.78057 6.26401 7.68156 6.26401 7.57003C6.26401 7.31488 6.00076 7.10803 5.67601 7.10803C5.35127 7.10803 5.08801 7.31488 5.08801 7.57003C5.08801 7.69428 5.22232 7.77736 5.32388 7.86039C5.43087 7.94787 5.50941 8.03203 5.67601 8.03203Z" fill="#AD1619"/>
<path fill-rule="evenodd" clip-rule="evenodd" d="M4.92001 13.744H6.43201V14.416C6.43201 14.416 6.24301 14.332 6.05401 14.332C5.86501 14.332 5.67601 14.416 5.67601 14.416C5.67601 14.416 5.48701 14.332 5.29801 14.332C5.10901 14.332 4.92001 14.416 4.92001 14.416V13.744Z" fill="#005BBF"/>
<mask id="mask2_701_23704" style="mask-type:alpha" maskUnits="userSpaceOnUse" x="4" y="13" width="3" height="2">
<path fill-rule="evenodd" clip-rule="evenodd" d="M4.92001 13.744H6.43201V14.416C6.43201 14.416 6.24301 14.332 6.05401 14.332C5.86501 14.332 5.67601 14.416 5.67601 14.416C5.67601 14.416 5.48701 14.332 5.29801 14.332C5.10901 14.332 4.92001 14.416 4.92001 14.416V13.744Z" fill="white"/>
</mask>
<g mask="url(#mask2_701_23704)">
<path d="M4.90635 14.2839L4.87335 14.2034C5.00954 14.1428 5.14621 14.1124 5.28308 14.1124C5.37151 14.1124 5.41769 14.1248 5.49619 14.1597C5.56515 14.1904 5.60089 14.1999 5.67631 14.1999C5.75172 14.1999 5.78746 14.1904 5.85642 14.1597C5.93492 14.1248 5.9811 14.1124 6.06953 14.1124C6.20641 14.1124 6.34308 14.1428 6.47926 14.2034L6.44626 14.2839C6.32029 14.2278 6.19481 14.1999 6.06953 14.1999C5.99412 14.1999 5.95838 14.2095 5.88942 14.2402C5.81092 14.2751 5.76474 14.2874 5.67631 14.2874C5.58788 14.2874 5.5417 14.2751 5.46319 14.2402C5.39424 14.2095 5.35849 14.1999 5.28308 14.1999C5.1578 14.1999 5.03232 14.2278 4.90635 14.2839Z" fill="white"/>
<path d="M4.90635 14.032L4.87335 13.9515C5.00954 13.8909 5.14621 13.8605 5.28308 13.8605C5.37151 13.8605 5.41769 13.8728 5.49619 13.9077C5.56515 13.9384 5.60089 13.948 5.67631 13.948C5.75172 13.948 5.78746 13.9384 5.85642 13.9077C5.93492 13.8728 5.9811 13.8605 6.06953 13.8605C6.20641 13.8605 6.34308 13.8909 6.47926 13.9515L6.44626 14.032C6.32029 13.9759 6.19481 13.948 6.06953 13.948C5.99412 13.948 5.95838 13.9575 5.88942 13.9882C5.81092 14.0231 5.76474 14.0355 5.67631 14.0355C5.58788 14.0355 5.5417 14.0231 5.46319 13.9882C5.39424 13.9575 5.35849 13.948 5.28308 13.948C5.1578 13.948 5.03232 13.9759 4.90635 14.032Z" fill="white"/>
</g>
<rect x="13.488" y="8.70398" width="0.84" height="4.368" fill="#F1F9FF"/>
<path fill-rule="evenodd" clip-rule="evenodd" d="M14.664 7.948H13.152V8.368H13.404V8.704H14.412V8.368H14.664V7.948Z" fill="#C88A02"/>
<path fill-rule="evenodd" clip-rule="evenodd" d="M14.412 13.324H14.664V13.744H13.152V13.324H13.404V12.988H14.412V13.324Z" fill="#C88A02"/>
<path fill-rule="evenodd" clip-rule="evenodd" d="M13.908 8.03203C14.0908 8.03203 14.1094 7.9632 14.2172 7.86039C14.301 7.78057 14.496 7.68156 14.496 7.57003C14.496 7.31488 14.2328 7.10803 13.908 7.10803C13.5833 7.10803 13.32 7.31488 13.32 7.57003C13.32 7.69428 13.4543 7.77736 13.5559 7.86039C13.6629 7.94787 13.7414 8.03203 13.908 8.03203Z" fill="#AD1619"/>
<path fill-rule="evenodd" clip-rule="evenodd" d="M13.152 13.744H14.664V14.416C14.664 14.416 14.475 14.332 14.286 14.332C14.097 14.332 13.908 14.416 13.908 14.416C13.908 14.416 13.719 14.332 13.53 14.332C13.341 14.332 13.152 14.416 13.152 14.416V13.744Z" fill="#005BBF"/>
<mask id="mask3_701_23704" style="mask-type:alpha" maskUnits="userSpaceOnUse" x="13" y="13" width="2" height="2">
<path fill-rule="evenodd" clip-rule="evenodd" d="M13.152 13.744H14.664V14.416C14.664 14.416 14.475 14.332 14.286 14.332C14.097 14.332 13.908 14.416 13.908 14.416C13.908 14.416 13.719 14.332 13.53 14.332C13.341 14.332 13.152 14.416 13.152 14.416V13.744Z" fill="white"/>
</mask>
<g mask="url(#mask3_701_23704)">
<path d="M13.1383 14.2839L13.1053 14.2034C13.2415 14.1428 13.3782 14.1124 13.5151 14.1124C13.6035 14.1124 13.6497 14.1248 13.7282 14.1597C13.7971 14.1904 13.8329 14.1999 13.9083 14.1999C13.9837 14.1999 14.0195 14.1904 14.0884 14.1597C14.1669 14.1248 14.2131 14.1124 14.3015 14.1124C14.4384 14.1124 14.5751 14.1428 14.7113 14.2034L14.6783 14.2839C14.5523 14.2278 14.4268 14.1999 14.3015 14.1999C14.2261 14.1999 14.1904 14.2095 14.1214 14.2402C14.0429 14.2751 13.9967 14.2874 13.9083 14.2874C13.8199 14.2874 13.7737 14.2751 13.6952 14.2402C13.6262 14.2095 13.5905 14.1999 13.5151 14.1999C13.3898 14.1999 13.2643 14.2278 13.1383 14.2839Z" fill="white"/>
<path d="M13.1383 14.032L13.1053 13.9515C13.2415 13.8909 13.3782 13.8605 13.5151 13.8605C13.6035 13.8605 13.6497 13.8728 13.7282 13.9077C13.7971 13.9384 13.8329 13.948 13.9083 13.948C13.9837 13.948 14.0195 13.9384 14.0884 13.9077C14.1669 13.8728 14.2131 13.8605 14.3015 13.8605C14.4384 13.8605 14.5751 13.8909 14.7113 13.9515L14.6783 14.032C14.5523 13.9759 14.4268 13.948 14.3015 13.948C14.2261 13.948 14.1904 13.9575 14.1214 13.9882C14.0429 14.0231 13.9967 14.0355 13.9083 14.0355C13.8199 14.0355 13.7737 14.0231 13.6952 13.9882C13.6262 13.9575 13.5905 13.948 13.5151 13.948C13.3898 13.948 13.2643 13.9759 13.1383 14.032Z" fill="white"/>
</g>
<path fill-rule="evenodd" clip-rule="evenodd" d="M5.24097 12.76C5.39242 12.5764 5.4771 12.4094 5.4771 12.232C5.4771 12.1201 5.44382 12.0235 5.3855 11.9446L5.39535 11.9402C5.39444 11.9406 5.56149 11.8677 5.61965 11.8399C5.72776 11.788 5.82301 11.7331 5.91588 11.6656C5.97516 11.6225 6.0546 11.5755 6.1757 11.5105L6.28953 11.4499L6.32022 11.4336C6.37908 11.4022 6.4229 11.3782 6.46362 11.3545C6.5905 11.281 6.67434 11.2201 6.73847 11.1388C6.89036 10.9462 6.85882 10.6851 6.64598 10.5402C6.5417 10.4692 6.40098 10.4285 6.19471 10.3964L6.15195 10.3898L5.89969 10.3507C5.80098 10.3352 5.71291 10.3207 5.63438 10.307C6.1508 10.221 6.88823 10.2526 7.2126 10.4201L7.5209 9.82299C6.85989 9.48171 5.35379 9.51656 4.79119 9.90401C4.37854 10.1882 4.43392 10.6178 4.86326 10.8027C5.04266 10.88 5.27653 10.9313 5.70932 11.0009C5.63679 11.0429 5.57666 11.0814 5.52064 11.1221C5.46382 11.1634 5.40294 11.1985 5.32911 11.2339C5.2938 11.2508 5.18927 11.2967 5.14132 11.3178L5.14132 11.3178L5.14128 11.3178L5.11719 11.3284C4.76748 11.4874 4.59775 11.7074 4.64847 12.1045L4.67593 12.3195L4.72517 12.3346L5.24097 12.76ZM4.80868 12.2045L4.80762 12.2076L4.80843 12.2054L4.80868 12.2045ZM14.0295 12.232C14.0295 12.4094 14.1142 12.5764 14.2656 12.76L14.7814 12.3346L14.8306 12.3195L14.8581 12.1045C14.9088 11.7074 14.7391 11.4874 14.3894 11.3284L14.3652 11.3178C14.3173 11.2967 14.2128 11.2508 14.1775 11.2339C14.1036 11.1985 14.0428 11.1634 13.9859 11.1221C13.9299 11.0814 13.8698 11.0429 13.7973 11.0009C14.23 10.9313 14.4639 10.88 14.6433 10.8027C15.0727 10.6178 15.128 10.1882 14.7154 9.90401C14.1528 9.51656 12.6467 9.48171 11.9857 9.82299L12.294 10.4201C12.6183 10.2526 13.3558 10.221 13.8722 10.307C13.7937 10.3207 13.7056 10.3352 13.6069 10.3507L13.3547 10.3898L13.3119 10.3964C13.1056 10.4285 12.9649 10.4692 12.8606 10.5402C12.6477 10.6851 12.6162 10.9462 12.7681 11.1388C12.8322 11.2201 12.9161 11.281 13.0429 11.3545C13.0837 11.3782 13.1275 11.4022 13.1863 11.4336L13.2171 11.45L13.3309 11.5105C13.452 11.5755 13.5314 11.6225 13.5907 11.6656C13.6836 11.7331 13.7788 11.788 13.8869 11.8399C13.9451 11.8677 14.1121 11.9406 14.1112 11.9402L14.1211 11.9446C14.0628 12.0235 14.0295 12.1201 14.0295 12.232Z" fill="#AD1619"/>
<path d="M5.94253 10.3L6.19047 10.3513V10.7209C5.9264 10.9316 5.25601 11.2867 5.25601 11.2867V10.3H5.94253Z" fill="#F1F9FF"/>
<path d="M13.7359 10.3L13.488 10.3513V10.7209C13.7521 10.9316 14.4225 11.2867 14.4225 11.2867V10.3H13.7359Z" fill="#F1F9FF"/>
<path fill-rule="evenodd" clip-rule="evenodd" d="M12.582 6.40458V6.28159C12.1499 5.97151 11.6975 5.81647 11.2246 5.81647C10.7703 5.61539 10.3103 5.53763 9.84484 5.58317V5.62049C9.82073 5.90377 9.68306 7.61147 9.84484 7.87623V5.62049M9.84484 7.88199V7.88407C9.84484 7.88407 10.9506 7.85388 11.0283 7.82804C11.0591 7.81779 11.0911 7.80845 11.1238 7.79892C11.3404 7.73568 11.5876 7.6635 11.7348 7.25548L12.582 6.40458" fill="#AD1619"/>
<path fill-rule="evenodd" clip-rule="evenodd" d="M7.73527 7.11222L7.73584 7.10963L7.1398 6.54887L7.19736 6.48769L7.75665 7.01389L7.77097 6.94806C7.86247 6.96795 7.92934 6.97527 7.96833 6.97113V6.85698L8.09231 6.92407C8.15329 6.95707 8.24062 6.96595 8.35564 6.94723C8.44012 6.93348 8.49713 6.83537 8.51577 6.62629L8.5534 6.20422L8.67962 6.60873C8.73674 6.79178 8.82388 6.87247 8.94793 6.87247C9.06909 6.87247 9.11779 6.82805 9.12316 6.71609L9.13841 6.39856L9.28201 6.68218C9.33374 6.78435 9.40509 6.83071 9.50653 6.83071C9.65161 6.83071 9.74853 6.70975 9.74853 6.51997H9.75127H9.91653H9.91927C9.91927 6.70975 10.0162 6.83071 10.1613 6.83071C10.2627 6.83071 10.3341 6.78435 10.3858 6.68218L10.5294 6.39856L10.5446 6.71609C10.55 6.82805 10.5987 6.87247 10.7199 6.87247C10.8439 6.87247 10.9311 6.79178 10.9882 6.60873L11.1144 6.20422L11.152 6.62629C11.1707 6.83537 11.2277 6.93348 11.3122 6.94723C11.4272 6.96595 11.5145 6.95707 11.5755 6.92407L11.6995 6.85698V6.97113C11.7385 6.97527 11.8053 6.96795 11.8968 6.94806L11.9234 7.07021L12.5425 6.48769L12.6001 6.54887L11.8296 7.27375C11.7172 7.48077 11.6606 7.61742 11.6606 7.67418C11.6606 7.76077 11.4353 7.81217 10.9956 7.86496C10.6512 7.90632 10.2446 7.93408 9.91211 7.93823V7.93877L9.86996 7.93863L9.8278 7.93877V7.93823C9.49527 7.93408 9.08875 7.90632 8.74428 7.86496C8.30459 7.81217 8.0793 7.76077 8.0793 7.67418C8.0793 7.66344 8.07727 7.64984 8.07322 7.63345C8.02889 7.57699 7.99771 7.48462 7.97697 7.4013C7.95751 7.36233 7.93527 7.31978 7.91028 7.27375L7.73958 7.11315L7.73527 7.11222ZM11.8644 7.12575C11.7268 7.1501 11.6274 7.14764 11.5747 7.10472C11.4923 7.12871 11.3956 7.13102 11.2852 7.11305C11.1673 7.09386 11.0851 7.01542 11.0357 6.8853C10.9712 6.96748 10.8896 7.01822 10.7919 7.03463C11.3295 7.11086 11.706 7.21802 11.706 7.21802C11.706 7.21802 11.6967 7.29763 11.6741 7.39123C11.698 7.34223 11.7263 7.28778 11.7591 7.22769L11.7672 7.21719L11.8644 7.12575ZM10.5383 7.0027C10.4915 6.97947 10.4542 6.94579 10.4272 6.90237C10.3871 6.93777 10.3415 6.96365 10.2909 6.97963C10.3754 6.98609 10.4581 6.9939 10.5383 7.0027ZM9.99437 6.96328C9.92893 6.93304 9.87453 6.88462 9.8339 6.82258C9.79356 6.88418 9.73964 6.93236 9.67482 6.96264C9.71322 6.96149 9.75184 6.96069 9.79064 6.96025V6.95987L9.82432 6.95997L9.85801 6.95987V6.96025C9.90373 6.96077 9.94921 6.96179 9.99437 6.96328ZM7.96663 7.21144L7.88831 7.13775C7.98232 7.14708 8.05191 7.13823 8.09306 7.10472C8.17551 7.12871 8.27221 7.13102 8.38262 7.11305C8.50055 7.09386 8.58267 7.01542 8.63209 6.8853C8.69474 6.9651 8.77346 7.01526 8.86743 7.03312C8.40397 7.09823 8.05819 7.18682 7.96663 7.21144ZM9.37325 6.97846C9.29187 6.9845 9.21219 6.99181 9.13471 7.00007C9.17905 6.97695 9.21462 6.94418 9.24061 6.90237C9.27973 6.93692 9.32408 6.9624 9.37325 6.97846ZM11.4398 7.67582C11.4986 7.70336 11.5458 7.67589 11.5831 7.62315C11.5799 7.63772 11.5778 7.65089 11.577 7.66268C11.5721 7.66591 11.5645 7.66979 11.5546 7.67396C11.527 7.68559 11.4847 7.69798 11.4297 7.71052C11.3217 7.73517 11.1679 7.75968 10.9856 7.78156C10.6297 7.8243 10.2064 7.85242 9.86996 7.85463C9.53348 7.85242 9.11024 7.8243 8.7543 7.78156C8.57202 7.75968 8.41822 7.73517 8.31017 7.71052C8.2641 7.70001 8.22695 7.6896 8.19984 7.67966C8.20283 7.67853 8.20584 7.67725 8.20889 7.67582C8.39239 7.58996 9.60581 7.50938 9.82432 7.49548C10.0428 7.50938 11.2563 7.58996 11.4398 7.67582ZM11.6712 7.66044L11.6699 7.66191L11.6707 7.66084L11.6712 7.66044Z" fill="#C88A02"/>
<path fill-rule="evenodd" clip-rule="evenodd" d="M9.83418 5.01035C9.97336 5.01035 10.0862 4.89752 10.0862 4.75835C10.0862 4.61917 9.97336 4.50635 9.83418 4.50635C9.69501 4.50635 9.58218 4.61917 9.58218 4.75835C9.58218 4.89752 9.69501 5.01035 9.83418 5.01035Z" fill="#005BBF"/>
<path fill-rule="evenodd" clip-rule="evenodd" d="M9.67025 6.24759C9.67563 6.27525 9.68403 6.301 9.69464 6.32395C9.66209 6.31151 9.62345 6.30431 9.58201 6.30431C9.46603 6.30431 9.37201 6.36072 9.37201 6.43031C9.37201 6.4999 9.46603 6.55631 9.58201 6.55631C9.69799 6.55631 9.79201 6.4999 9.79201 6.43031C9.79201 6.4999 9.88603 6.55631 10.002 6.55631C10.118 6.55631 10.212 6.4999 10.212 6.43031C10.212 6.36072 10.118 6.30431 10.002 6.30431C9.97281 6.30431 9.94501 6.30788 9.91975 6.31434C9.92584 6.2799 9.92557 6.2404 9.91762 6.19951C9.89549 6.08566 9.82218 6.00413 9.75387 6.01741C9.68556 6.03069 9.64812 6.13374 9.67025 6.24759ZM9.79201 6.43031L9.79191 6.42646L9.7921 6.42653L9.79201 6.43031ZM8.43464 6.40795C8.42403 6.385 8.41563 6.35925 8.41025 6.33159C8.38812 6.21774 8.42556 6.11469 8.49387 6.10141C8.56218 6.08813 8.63549 6.16966 8.65762 6.28351C8.66557 6.3244 8.66584 6.3639 8.65975 6.39834C8.68501 6.39188 8.71281 6.38831 8.74201 6.38831C8.85799 6.38831 8.95201 6.44472 8.95201 6.51431C8.95201 6.5839 8.85799 6.64031 8.74201 6.64031C8.62603 6.64031 8.53201 6.5839 8.53201 6.51431L8.5321 6.51053L8.53191 6.51046L8.53201 6.51431C8.53201 6.5839 8.43799 6.64031 8.32201 6.64031C8.20603 6.64031 8.11201 6.5839 8.11201 6.51431C8.11201 6.44472 8.20603 6.38831 8.32201 6.38831C8.36345 6.38831 8.40209 6.39551 8.43464 6.40795ZM11.0655 6.48473C11.0558 6.55364 10.9548 6.59642 10.84 6.58028C10.7251 6.56414 10.6399 6.49519 10.6495 6.42628C10.6592 6.35737 10.7602 6.31459 10.875 6.33073C10.9161 6.3365 10.9533 6.34901 10.9838 6.36585C10.9765 6.34165 10.9718 6.31498 10.9703 6.28685C10.9642 6.17102 11.0157 6.07418 11.0852 6.07054C11.1546 6.0669 11.2159 6.15784 11.222 6.27366C11.2242 6.31526 11.2189 6.35441 11.2081 6.38767C11.234 6.38479 11.262 6.38512 11.291 6.38918C11.4058 6.40532 11.4911 6.47427 11.4814 6.54318C11.4717 6.61209 11.3707 6.65487 11.2559 6.63873C11.141 6.62259 11.0558 6.55364 11.0655 6.48473ZM11.0655 6.48473L11.0661 6.481L11.0659 6.48091L11.0655 6.48473ZM11.8653 6.81792C11.9677 6.87237 12.0772 6.8667 12.1098 6.80526L12.1116 6.80182C12.1217 6.8125 12.1336 6.82027 12.1472 6.82443C12.2138 6.84478 12.2952 6.77136 12.3291 6.66045C12.363 6.54953 12.3366 6.44313 12.27 6.42278C12.2035 6.40244 12.122 6.47586 12.0881 6.58677C12.0799 6.61371 12.0752 6.64039 12.0738 6.66563C12.0509 6.63937 12.0202 6.61487 11.9836 6.59542C11.8812 6.54097 11.7717 6.54664 11.739 6.60808C11.7063 6.66952 11.7629 6.76347 11.8653 6.81792ZM7.74362 6.84365C7.64122 6.8981 7.53172 6.89243 7.49905 6.83099C7.49845 6.82985 7.49787 6.82871 7.49733 6.82755C7.48724 6.83823 7.4753 6.846 7.46168 6.85016C7.39513 6.87051 7.31369 6.79709 7.27978 6.68618C7.24588 6.57527 7.27233 6.46886 7.33888 6.44851C7.40543 6.42817 7.48686 6.50159 7.52077 6.6125C7.52901 6.63944 7.53369 6.66612 7.53509 6.69136C7.55799 6.66511 7.58872 6.64061 7.62532 6.62115C7.72772 6.5667 7.83722 6.57237 7.86989 6.63381C7.90256 6.69525 7.84603 6.7892 7.74362 6.84365Z" fill="#C88A02"/>
<path fill-rule="evenodd" clip-rule="evenodd" d="M9.74012 4.0575H9.91512V4.16805H10.0295V4.34305H9.91512V4.69305H10.0295V4.86805H9.62399V4.69305H9.74012V4.34305H9.62399V4.16805H9.74012V4.0575Z" fill="#C88A02"/>
<rect x="9.70801" y="5.00806" width="0.336" height="1.092" fill="#C88A02"/>
<path d="M8.35544 5.19101L8.35398 5.275C7.60915 5.26199 7.18191 5.37069 7.07346 5.58733C6.96133 5.8113 6.98218 6.08356 7.13929 6.40698L7.06374 6.44369C6.89611 6.09861 6.87322 5.79967 6.99834 5.54972C7.12714 5.29244 7.57911 5.17746 8.35544 5.19101Z" fill="white"/>
<path d="M8.49955 5.93583L8.45649 6.00796C8.29429 5.91111 8.2131 5.74582 8.2131 5.51805C8.2131 5.19069 8.38174 4.99872 8.75475 4.86735C8.99282 4.78351 9.31803 4.81789 9.73129 4.96772L9.70266 5.04669C9.30593 4.90285 8.99896 4.8704 8.78266 4.94658C8.44052 5.06708 8.2971 5.23033 8.2971 5.51805C8.2971 5.71793 8.36453 5.85522 8.49955 5.93583Z" fill="white"/>
<path d="M7.24511 6.27812L7.0866 6.33379C6.92214 5.86553 6.9691 5.54752 7.25012 5.41034C7.49775 5.28946 7.85864 5.24027 8.33458 5.25956L8.32778 5.42742C7.87715 5.40916 7.5419 5.45486 7.32382 5.56131C7.13913 5.65147 7.10535 5.88021 7.24511 6.27812Z" fill="#C88A02"/>
<path d="M9.09697 5.07913C8.71286 5.07913 8.55513 5.17268 8.46502 5.4489C8.40759 5.62492 8.46329 5.77516 8.64388 5.9154L8.54084 6.04809C8.30703 5.86653 8.2246 5.64417 8.3053 5.39679C8.42014 5.04478 8.64549 4.91113 9.09697 4.91113C9.39288 4.91113 9.6234 4.98888 9.78391 5.1471L9.80894 5.17177V5.98174H9.64094V5.24358C9.51558 5.13469 9.33552 5.07913 9.09697 5.07913Z" fill="#C88A02"/>
<path d="M11.2868 5.275L11.2882 5.35898C12.0331 5.34598 12.4603 5.45467 12.5688 5.67131C12.6809 5.89528 12.66 6.16755 12.5029 6.49097L12.5785 6.52767C12.7461 6.1826 12.769 5.88366 12.6439 5.63371C12.5151 5.37643 12.0631 5.26144 11.2868 5.275Z" fill="white"/>
<path d="M11.0237 5.95329L11.0668 6.02541C11.229 5.92856 11.3102 5.76328 11.3102 5.5355C11.3102 5.20814 11.1415 5.01618 10.7685 4.88481C10.5305 4.80097 10.2053 4.83534 9.792 4.98518L9.82063 5.06415C10.2174 4.92031 10.5243 4.88786 10.7406 4.96404C11.0828 5.08453 11.2262 5.24779 11.2262 5.5355C11.2262 5.73539 11.1588 5.87267 11.0237 5.95329Z" fill="white"/>
<path d="M12.4494 6.3621L12.608 6.41777C12.7724 5.94951 12.7254 5.6315 12.4444 5.49432C12.1968 5.37345 11.8359 5.32426 11.36 5.34354L11.3668 5.51141C11.8174 5.49314 12.1526 5.53884 12.3707 5.6453C12.5554 5.73545 12.5892 5.96419 12.4494 6.3621Z" fill="#C88A02"/>
<path d="M10.588 5.09207C10.9721 5.09207 11.1298 5.18562 11.2199 5.46184C11.2773 5.63786 11.2217 5.7881 11.0411 5.92834L11.1441 6.06103C11.3779 5.87947 11.4603 5.65711 11.3796 5.40973C11.2648 5.05772 11.0395 4.92407 10.588 4.92407C10.2921 4.92407 10.0615 5.00182 9.90103 5.16004L9.876 5.18471V5.99468H10.044V5.25652C10.1694 5.14763 10.3494 5.09207 10.588 5.09207Z" fill="#C88A02"/>
<path opacity="0.3" fill-rule="evenodd" clip-rule="evenodd" d="M7.104 7.948H12.564V12.8536C12.564 12.8536 12.1584 14.5 9.834 14.5C7.50959 14.5 7.104 12.8102 7.104 12.8102V7.948Z" fill="#E1E5E8"/>
<mask id="mask4_701_23704" style="mask-type:alpha" maskUnits="userSpaceOnUse" x="7" y="7" width="6" height="8">
<path fill-rule="evenodd" clip-rule="evenodd" d="M7.104 7.948H12.564V12.8536C12.564 12.8536 12.1584 14.5 9.834 14.5C7.50959 14.5 7.104 12.8102 7.104 12.8102V7.948Z" fill="white"/>
</mask>
<g mask="url(#mask4_701_23704)">
<rect x="7.104" y="10.972" width="2.772" height="3.276" fill="#FFC034"/>
<rect x="7.44" y="11.14" width="0.336" height="3.108" fill="#AD1619"/>
<rect x="8.616" y="11.14" width="0.336" height="3.108" fill="#AD1619"/>
<rect x="8.02802" y="11.14" width="0.336" height="3.108" fill="#AD1619"/>
<rect x="9.20401" y="11.14" width="0.336" height="3.108" fill="#AD1619"/>
<rect x="7.104" y="7.86401" width="2.772" height="3.192" fill="#AD1619"/>
<rect x="9.79199" y="10.8879" width="2.772" height="3.192" fill="#AD1619"/>
<rect x="9.79199" y="7.948" width="2.94" height="3.108" fill="#F1F9FF"/>
<path fill-rule="evenodd" clip-rule="evenodd" d="M8.28002 8.19995H8.53202V8.89684H8.70002V8.5484H8.95202V8.89684H9.20402V9.3324H8.95202V10.1164H9.20402V10.552H7.69202V10.1164H7.94402V9.3324H7.69202V8.89684H7.86002V8.5484H8.11202V8.89684H8.28002V8.19995Z" fill="#C88A02"/>
<path d="M11.2341 8.34626L11.4062 8.16211L11.7673 8.49948L11.5953 8.68363L11.2341 8.34626Z" fill="#C88A02"/>
<path fill-rule="evenodd" clip-rule="evenodd" d="M12.27 13.1051V11.266H10.17V13.0897L10.1733 13.1039C10.2797 13.5568 10.6417 13.786 11.22 13.786C11.7978 13.786 12.1598 13.5627 12.2665 13.1196L12.27 13.1051ZM11.22 13.534C10.756 13.534 10.5026 13.3777 10.422 13.0599V11.518H12.018V13.0745C11.9377 13.3819 11.6842 13.534 11.22 13.534Z" fill="#FFC034"/>
<path fill-rule="evenodd" clip-rule="evenodd" d="M11.3067 11.4197H11.1317V12.2534L10.4418 11.5031L10.3182 11.6168L10.9421 12.2954H10.3768V12.5474H10.811H10.9558L10.3182 13.2409L10.4418 13.3546L11.1317 12.6043V13.5789H11.3067V12.692L11.9159 13.3546L12.0396 13.2409L11.402 12.5474H12.1137V12.2954H11.4157L12.0396 11.6168L11.9159 11.5031L11.3067 12.1657V11.4197Z" fill="#FFC034"/>
<path fill-rule="evenodd" clip-rule="evenodd" d="M11.6121 14.0821C11.6121 14.0821 9.83291 14.2219 9.83291 13.0745C9.83291 13.0745 9.81594 14.0821 7.95819 14.0821V14.9879H11.6121V14.0821Z" fill="#F1F9FF"/>
<path fill-rule="evenodd" clip-rule="evenodd" d="M9.83401 11.644C10.1819 11.644 10.464 11.3432 10.464 10.972C10.464 10.6009 10.1819 10.3 9.83401 10.3C9.48607 10.3 9.20401 10.6009 9.20401 10.972C9.20401 11.3432 9.48607 11.644 9.83401 11.644Z" fill="#005BBF" stroke="#AD1619" stroke-width="1.16667"/>
</g>
</g>
</g>
</g>
<rect x="1.75" y="1.25" width="23.5" height="17.5" stroke="black" stroke-opacity="0.1" stroke-width="0.5" shape-rendering="crispEdges"/>
</g>
<defs>
<filter id="filter0_dd_701_23704" x="0" y="0" width="27" height="21" filterUnits="userSpaceOnUse" color-interpolation-filters="sRGB">
<feFlood flood-opacity="0" result="BackgroundImageFix"/>
<feColorMatrix in="SourceAlpha" type="matrix" values="0 0 0 0 0 0 0 0 0 0 0 0 0 0 0 0 0 0 127 0" result="hardAlpha"/>
<feOffset dy="0.5"/>
<feGaussianBlur stdDeviation="0.75"/>
<feComposite in2="hardAlpha" operator="out"/>
<feColorMatrix type="matrix" values="0 0 0 0 0 0 0 0 0 0 0 0 0 0 0 0 0 0 0.1 0"/>
<feBlend mode="multiply" in2="BackgroundImageFix" result="effect1_dropShadow_701_23704"/>
<feColorMatrix in="SourceAlpha" type="matrix" values="0 0 0 0 0 0 0 0 0 0 0 0 0 0 0 0 0 0 127 0" result="hardAlpha"/>
<feOffset/>
<feGaussianBlur stdDeviation="0.5"/>
<feComposite in2="hardAlpha" operator="out"/>
<feColorMatrix type="matrix" values="0 0 0 0 0 0 0 0 0 0 0 0 0 0 0 0 0 0 0.11 0"/>
<feBlend mode="multiply" in2="effect1_dropShadow_701_23704" result="effect2_dropShadow_701_23704"/>
<feBlend mode="normal" in="SourceGraphic" in2="effect2_dropShadow_701_23704" result="shape"/>
</filter>
<clipPath id="clip0_701_23704">
<rect x="1.5" y="1" width="24" height="18" fill="white"/>
</clipPath>
</defs>
</svg>
