<svg width="27" height="21" viewBox="0 0 27 21" fill="none" xmlns="http://www.w3.org/2000/svg">
<g filter="url(#filter0_dd_701_20053)">
<g clip-path="url(#clip0_701_20053)">
<mask id="mask0_701_20053" style="mask-type:alpha" maskUnits="userSpaceOnUse" x="1" y="1" width="25" height="18">
<rect x="1.5" y="1" width="24" height="18" fill="white"/>
</mask>
<g mask="url(#mask0_701_20053)">
<path fill-rule="evenodd" clip-rule="evenodd" d="M1.5 1H25.5V19H1.5V1Z" fill="#F7FCFF"/>
<path fill-rule="evenodd" clip-rule="evenodd" d="M1.5 1V7H25.5V1H1.5Z" fill="#C51918"/>
<path fill-rule="evenodd" clip-rule="evenodd" d="M1.5 13V19H25.5V13H1.5Z" fill="#409100"/>
<path fill-rule="evenodd" clip-rule="evenodd" d="M13.5201 6.62974L12.929 7.04746L13.1375 6.34746L12.5636 5.90564L13.2837 5.89074L13.5201 5.19995L13.7566 5.89074L14.4767 5.90564L13.9028 6.34746L14.1113 7.04746L13.5201 6.62974ZM11.023 7.2425L10.4318 7.66022L10.6404 6.96023L10.0665 6.5184L10.7866 6.5035L11.023 5.81272L11.2595 6.5035L11.9796 6.5184L11.4056 6.96023L11.6142 7.66022L11.023 7.2425ZM8.48965 9.49852L9.08083 9.0808L9.67201 9.49852L9.46345 8.79853L10.0374 8.3567L9.3173 8.3418L9.08083 7.65102L8.84436 8.3418L8.12428 8.3567L8.69821 8.79853L8.48965 9.49852ZM8.45655 11.4638L7.86537 11.8815L8.07393 11.1815L7.5 10.7397L8.22008 10.7248L8.45655 10.034L8.69303 10.7248L9.41311 10.7397L8.83918 11.1815L9.04774 11.8815L8.45655 11.4638ZM17.9232 11.8815L18.5144 11.4638L19.1055 11.8815L18.897 11.1815L19.4709 10.7397L18.7508 10.7248L18.5144 10.034L18.2779 10.7248L17.5578 10.7397L18.1317 11.1815L17.9232 11.8815ZM17.7514 9.0808L17.1602 9.49852L17.3687 8.79853L16.7948 8.3567L17.5149 8.3418L17.7514 7.65102L17.9878 8.3418L18.7079 8.3567L18.134 8.79853L18.3425 9.49852L17.7514 9.0808ZM15.2471 7.66022L15.8382 7.2425L16.4294 7.66022L16.2209 6.96023L16.7948 6.5184L16.0747 6.5035L15.8382 5.81272L15.6018 6.5035L14.8817 6.5184L15.4556 6.96023L15.2471 7.66022ZM10.1674 14.7545L9.98302 14.0981C11.0031 13.8221 12.1741 13.6849 13.4965 13.6849C14.8188 13.6849 15.9898 13.8221 17.0099 14.0981L16.8256 14.7545C15.8694 14.4958 14.7597 14.3657 13.4965 14.3657C12.2333 14.3657 11.1235 14.4958 10.1674 14.7545ZM11.4306 13.7019C11.0236 13.7711 10.6908 13.3777 10.6908 13.3777L11.0945 13.2108C11.0817 12.9309 11.2506 12.7574 11.2506 12.7574C11.3872 12.8203 11.5735 13.164 11.5735 13.164H11.9395C11.9395 13.164 11.8376 13.6328 11.4306 13.7019ZM16.2401 13.4457C16.2401 13.4457 15.9073 13.8392 15.5003 13.77C15.0933 13.7009 14.9913 13.2321 14.9913 13.2321H15.3573C15.3573 13.2321 15.5437 12.8884 15.6803 12.8255C15.6803 12.8255 15.8491 12.999 15.8363 13.2789L16.2401 13.4457ZM13.4454 13.5773C13.0327 13.5891 12.7579 13.1532 12.7579 13.1532L13.1809 13.0442C13.2072 12.7652 13.3986 12.6169 13.3986 12.6169C13.5251 12.6982 13.6618 13.0645 13.6618 13.0645L14.0242 13.1154C14.0242 13.1154 13.858 13.5655 13.4454 13.5773Z" fill="#FFBB00"/>
<path fill-rule="evenodd" clip-rule="evenodd" d="M13.4585 11.6985C13.4585 11.6985 12.9895 12.7718 12.2509 12.8548C11.5122 12.9378 11.1371 12.2444 11.1371 12.2444C11.1371 12.2444 11.0887 12.9655 10.2115 13.2435C9.33424 13.5214 8.87231 12.4108 8.87231 12.4108C8.87231 12.4108 9.32902 12.8194 10.0374 12.6413C10.7457 12.4633 11.0253 11.8059 11.0253 11.8059C11.0253 11.8059 11.5495 12.4913 12.2509 12.1486C12.9523 11.8059 13.3403 11.3871 13.3403 10.9852V9.78339C13.3403 9.78339 13.1594 9.47175 12.8455 9.47175C12.5315 9.47175 12.4439 9.69268 12.4439 9.69268C12.4439 9.69268 12.3214 8.44237 13.4504 8.36509L13.4503 8.36206C13.4609 8.36237 13.4713 8.36277 13.4816 8.36327C13.4919 8.36277 13.5023 8.36237 13.5128 8.36206L13.5127 8.36509C14.6417 8.44237 14.5192 9.69268 14.5192 9.69268C14.5192 9.69268 14.4316 9.47175 14.1177 9.47175C13.8038 9.47175 13.6228 9.78339 13.6228 9.78339V10.9852C13.6228 11.3871 14.0109 11.8059 14.7122 12.1486C15.4136 12.4913 15.9378 11.8059 15.9378 11.8059C15.9378 11.8059 16.2174 12.4633 16.9258 12.6413C17.6341 12.8194 18.0908 12.4108 18.0908 12.4108C18.0908 12.4108 17.6289 13.5214 16.7517 13.2435C15.8744 12.9655 15.8261 12.2444 15.8261 12.2444C15.8261 12.2444 15.4509 12.9378 14.7122 12.8548C13.9736 12.7718 13.5046 11.6985 13.5046 11.6985L13.4816 10.2819L13.4585 11.6985ZM13.4481 8.70175C12.9273 8.70175 12.8218 9.14266 12.8218 9.14266C13.2804 9.14266 13.4481 9.34255 13.4481 9.34255C13.4481 9.34255 13.7877 9.14266 14.1295 9.14266C14.1295 9.14266 13.969 8.70175 13.4481 8.70175Z" fill="#FFBB00"/>
</g>
</g>
<rect x="1.75" y="1.25" width="23.5" height="17.5" stroke="black" stroke-opacity="0.1" stroke-width="0.5" shape-rendering="crispEdges"/>
</g>
<defs>
<filter id="filter0_dd_701_20053" x="0" y="0" width="27" height="21" filterUnits="userSpaceOnUse" color-interpolation-filters="sRGB">
<feFlood flood-opacity="0" result="BackgroundImageFix"/>
<feColorMatrix in="SourceAlpha" type="matrix" values="0 0 0 0 0 0 0 0 0 0 0 0 0 0 0 0 0 0 127 0" result="hardAlpha"/>
<feOffset dy="0.5"/>
<feGaussianBlur stdDeviation="0.75"/>
<feComposite in2="hardAlpha" operator="out"/>
<feColorMatrix type="matrix" values="0 0 0 0 0 0 0 0 0 0 0 0 0 0 0 0 0 0 0.1 0"/>
<feBlend mode="multiply" in2="BackgroundImageFix" result="effect1_dropShadow_701_20053"/>
<feColorMatrix in="SourceAlpha" type="matrix" values="0 0 0 0 0 0 0 0 0 0 0 0 0 0 0 0 0 0 127 0" result="hardAlpha"/>
<feOffset/>
<feGaussianBlur stdDeviation="0.5"/>
<feComposite in2="hardAlpha" operator="out"/>
<feColorMatrix type="matrix" values="0 0 0 0 0 0 0 0 0 0 0 0 0 0 0 0 0 0 0.11 0"/>
<feBlend mode="multiply" in2="effect1_dropShadow_701_20053" result="effect2_dropShadow_701_20053"/>
<feBlend mode="normal" in="SourceGraphic" in2="effect2_dropShadow_701_20053" result="shape"/>
</filter>
<clipPath id="clip0_701_20053">
<rect x="1.5" y="1" width="24" height="18" fill="white"/>
</clipPath>
</defs>
</svg>
