<svg width="27" height="21" viewBox="0 0 27 21" fill="none" xmlns="http://www.w3.org/2000/svg">
<g filter="url(#filter0_dd_701_20638)">
<g clip-path="url(#clip0_701_20638)">
<mask id="mask0_701_20638" style="mask-type:alpha" maskUnits="userSpaceOnUse" x="1" y="1" width="25" height="18">
<rect x="1.5" y="1" width="24" height="18" fill="white"/>
</mask>
<g mask="url(#mask0_701_20638)">
<path fill-rule="evenodd" clip-rule="evenodd" d="M1.5 1V19H25.5V1H1.5Z" fill="#4857A1"/>
<mask id="mask1_701_20638" style="mask-type:alpha" maskUnits="userSpaceOnUse" x="1" y="1" width="25" height="18">
<path fill-rule="evenodd" clip-rule="evenodd" d="M1.5 1V19H25.5V1H1.5Z" fill="white"/>
</mask>
<g mask="url(#mask1_701_20638)">
<path fill-rule="evenodd" clip-rule="evenodd" d="M1.5 1V7H25.5V1H1.5Z" fill="#C51918"/>
<path fill-rule="evenodd" clip-rule="evenodd" d="M1.5 13V19H25.5V13H1.5Z" fill="#F7FCFF"/>
<path fill-rule="evenodd" clip-rule="evenodd" d="M10.0918 3.85255L10.007 3.51245C10.0793 3.53467 10.1579 3.55747 10.2408 3.58092L10.24 3.57657C11.2301 3.66637 12.7605 4.17884 13.0454 4.72315C13.1555 4.93353 13.046 5.11287 12.9025 5.3479C12.881 5.38302 12.8588 5.41939 12.8365 5.45728C12.7643 5.57965 12.6989 5.69662 12.6373 5.80686L12.6373 5.80691C12.4149 6.20469 12.2415 6.51481 11.9776 6.67411L11.9828 7.57485L7.56118 7.53683L7.55545 6.627C7.32942 6.45773 7.16773 6.16855 6.96554 5.80691C6.90389 5.69665 6.83848 5.57966 6.76634 5.45728C6.74399 5.41939 6.72179 5.38302 6.70035 5.3479C6.55686 5.11287 6.44736 4.93353 6.55747 4.72315C6.77166 4.31391 7.74207 3.91591 8.63126 3.70541C8.80622 3.6432 8.98907 3.58506 9.17035 3.52939L9.25127 3.58795C9.32157 3.57836 9.38968 3.57053 9.45504 3.56461L9.55691 3.79178H9.91693C9.91693 3.79178 10.1343 4.43719 10.1343 4.79562C10.1343 5.15405 9.91693 5.45045 9.91693 5.45045V5.69787C9.95468 5.70102 9.99429 5.70485 10.0354 5.7093C10.0357 5.68783 10.0378 5.66523 10.0419 5.6421C10.0628 5.52386 10.1276 5.43646 10.1867 5.44688C10.2458 5.45731 10.2768 5.56161 10.256 5.67985C10.2526 5.69907 10.2481 5.71748 10.2425 5.73479C10.4758 5.76651 10.7372 5.8108 10.9848 5.85635C11.0791 5.67358 11.1941 5.49301 11.3038 5.3206C11.5876 4.87494 11.8366 4.48382 11.6042 4.25034C11.5601 4.20606 11.4804 4.16487 11.3775 4.12672C11.0375 4.04213 10.6673 3.97687 10.3076 3.94424L10.2967 3.88513C10.2249 3.87347 10.156 3.86261 10.0918 3.85255ZM11.772 6.01216C11.8977 6.03864 11.9739 6.05549 11.9739 6.05549L11.9747 6.18439C12.4128 5.84675 12.7227 5.09863 12.7507 4.85355C12.7675 4.7058 12.5332 4.53546 12.1658 4.38113C12.3397 4.71087 12.1068 5.03809 11.8146 5.44875L11.8146 5.44876L11.8146 5.44877C11.7048 5.6031 11.5866 5.76921 11.4784 5.95167L11.5857 5.97346C11.5848 5.93958 11.5892 5.90148 11.5997 5.86231C11.6308 5.74634 11.703 5.66492 11.761 5.68046C11.819 5.69599 11.8408 5.8026 11.8097 5.91857C11.8004 5.95346 11.7873 5.98522 11.772 6.01216ZM9.51264 5.69955V5.42399C9.51264 5.42399 9.32442 5.21363 9.29525 4.77552C9.27438 4.46213 9.33898 4.09371 9.37746 3.90936C9.09663 3.94497 8.80056 4.00028 8.5139 4.0682C8.32369 4.12176 8.17211 4.18242 8.1045 4.25034C7.87211 4.48382 8.12112 4.87494 8.40484 5.3206L8.40485 5.3206L8.40485 5.32061C8.51087 5.48714 8.62175 5.66129 8.71416 5.83767C8.87398 5.80307 9.03458 5.77103 9.18452 5.74555C9.17807 5.72237 9.17343 5.69707 9.1711 5.67044C9.16064 5.55084 9.20063 5.44964 9.26044 5.44441C9.32024 5.43917 9.3772 5.53189 9.38767 5.6515C9.38956 5.67318 9.3898 5.69425 9.38857 5.71426C9.43162 5.70849 9.4731 5.70354 9.51264 5.69955ZM8.22924 5.94994C8.12136 5.76815 8.00355 5.6026 7.89408 5.44876L7.89408 5.44875C7.59524 5.02881 7.35849 4.69611 7.55527 4.35876C7.12514 4.52531 6.83536 4.70619 6.85216 4.85355C6.87856 5.08511 7.1567 5.76572 7.55681 6.1249C7.58467 6.11713 7.73938 6.07421 7.95775 6.01807C7.94099 5.9919 7.92619 5.96075 7.91498 5.92625C7.87788 5.81207 7.89409 5.70446 7.95118 5.68591C8.00828 5.66736 8.08463 5.74489 8.12174 5.85908C8.13454 5.89848 8.141 5.93711 8.14161 5.97156L8.22924 5.94994Z" fill="#F6C540"/>
<path fill-rule="evenodd" clip-rule="evenodd" d="M10.2391 3.62965C10.2391 3.89326 10.0201 4.10695 9.74999 4.10695C9.47985 4.10695 9.26086 3.89326 9.26086 3.62965C9.26086 3.36604 9.47985 3.15234 9.74999 3.15234C10.0201 3.15234 10.2391 3.36604 10.2391 3.62965ZM9.74999 7.17408C9.9601 7.17408 10.1304 7.07675 10.1304 6.95669C10.1304 6.83663 9.9601 6.7393 9.74999 6.7393C9.53988 6.7393 9.36955 6.83663 9.36955 6.95669C9.36955 7.07675 9.53988 7.17408 9.74999 7.17408ZM7.84782 7.11974C7.84782 7.20978 7.77482 7.28278 7.68477 7.28278C7.59473 7.28278 7.52173 7.20978 7.52173 7.11974C7.52173 7.02969 7.59473 6.95669 7.68477 6.95669C7.77482 6.95669 7.84782 7.02969 7.84782 7.11974ZM12.1956 7.11974C12.1956 7.20978 12.1226 7.28278 12.0326 7.28278C11.9426 7.28278 11.8696 7.20978 11.8696 7.11974C11.8696 7.02969 11.9426 6.95669 12.0326 6.95669C12.1226 6.95669 12.1956 7.02969 12.1956 7.11974Z" fill="#2E42A5"/>
<path fill-rule="evenodd" clip-rule="evenodd" d="M8.93477 7.01094C8.93477 7.10099 8.81311 7.17399 8.66304 7.17399C8.51296 7.17399 8.3913 7.10099 8.3913 7.01094C8.3913 6.9209 8.51296 6.8479 8.66304 6.8479C8.81311 6.8479 8.93477 6.9209 8.93477 7.01094ZM11.2174 7.01094C11.2174 7.10099 11.0957 7.17399 10.9456 7.17399C10.7956 7.17399 10.6739 7.10099 10.6739 7.01094C10.6739 6.9209 10.7956 6.8479 10.9456 6.8479C11.0957 6.8479 11.2174 6.9209 11.2174 7.01094Z" fill="#C5363C"/>
<path fill-rule="evenodd" clip-rule="evenodd" d="M10.6739 5.65245C10.6739 5.77251 10.6252 5.86984 10.5652 5.86984C10.5052 5.86984 10.4565 5.77251 10.4565 5.65245C10.4565 5.53239 10.5052 5.43506 10.5652 5.43506C10.6252 5.43506 10.6739 5.53239 10.6739 5.65245ZM9.03814 5.61886C9.07524 5.73305 9.05903 5.84065 9.00194 5.8592C8.94484 5.87775 8.86849 5.80022 8.83138 5.68604C8.79428 5.57185 8.81049 5.46425 8.86758 5.4457C8.92468 5.42715 9.00103 5.50468 9.03814 5.61886ZM7.75945 6.20824C7.81654 6.18969 7.83275 6.08208 7.79565 5.9679C7.75854 5.85371 7.68219 5.77618 7.62509 5.79473C7.568 5.81329 7.55179 5.92089 7.58889 6.03507C7.626 6.14926 7.70235 6.22679 7.75945 6.20824ZM12.0604 6.0607C11.9968 6.16252 11.9039 6.21927 11.853 6.18746C11.8021 6.15565 11.8124 6.04732 11.876 5.9455C11.9397 5.84369 12.0325 5.78693 12.0834 5.81875C12.1343 5.85056 12.124 5.95889 12.0604 6.0607Z" fill="#F7FCFF"/>
<path fill-rule="evenodd" clip-rule="evenodd" d="M8.82677 3.84451C8.85708 3.86658 8.89441 3.8796 8.93477 3.8796C9.03622 3.8796 9.11847 3.79735 9.11847 3.6959C9.11847 3.59445 9.03622 3.51221 8.93477 3.51221C8.86282 3.51221 8.80054 3.55357 8.77039 3.61381C8.74008 3.59174 8.70276 3.57872 8.66239 3.57872C8.59767 3.57872 8.54077 3.61219 8.50805 3.66277C8.47631 3.63661 8.43564 3.6209 8.39129 3.6209C8.28984 3.6209 8.2076 3.70315 8.2076 3.8046C8.2076 3.81025 8.20785 3.81585 8.20835 3.82137C8.17468 3.77956 8.12307 3.75281 8.06521 3.75281C7.97325 3.75281 7.89708 3.82037 7.88362 3.90856C7.84999 3.86578 7.79776 3.83829 7.73912 3.83829C7.65096 3.83829 7.57731 3.9004 7.55952 3.98324C7.52935 3.96153 7.49234 3.94874 7.45233 3.94874C7.37093 3.94874 7.30189 4.00169 7.27778 4.07503C7.25307 4.06265 7.22517 4.05569 7.19564 4.05569C7.105 4.05569 7.0297 4.12133 7.01467 4.20767C7.0029 4.2053 6.99072 4.20406 6.97825 4.20406C6.87777 4.20406 6.79613 4.28474 6.79458 4.38486C6.78365 4.38283 6.77238 4.38177 6.76086 4.38177C6.65941 4.38177 6.57716 4.46402 6.57716 4.56547C6.57716 4.57833 6.57849 4.59088 6.581 4.603C6.56888 4.60049 6.55633 4.59916 6.54347 4.59916C6.44202 4.59916 6.35977 4.68141 6.35977 4.78286C6.35977 4.85994 6.40725 4.92593 6.47455 4.95319C6.47058 4.96821 6.46847 4.98398 6.46847 5.00025C6.46847 5.07733 6.51594 5.14332 6.58325 5.17058C6.57928 5.1856 6.57716 5.20137 6.57716 5.21764C6.57716 5.31668 6.65554 5.39742 6.75366 5.4012C6.71229 5.43488 6.68586 5.48622 6.68586 5.54373C6.68586 5.64518 6.7681 5.72742 6.86955 5.72742C6.97101 5.72742 7.05325 5.64518 7.05325 5.54373C7.05325 5.44469 6.97487 5.36395 6.87675 5.36017C6.91813 5.32649 6.94455 5.27515 6.94455 5.21764C6.94455 5.14056 6.89708 5.07457 6.82978 5.04731C6.83374 5.03229 6.83586 5.01652 6.83586 5.00025C6.83586 4.92317 6.78838 4.85718 6.72108 4.82992C6.72505 4.8149 6.72716 4.79913 6.72716 4.78286C6.72716 4.77 6.72584 4.75744 6.72333 4.74533C6.73544 4.74784 6.748 4.74916 6.76086 4.74916C6.86134 4.74916 6.94298 4.66848 6.94453 4.56837C6.95546 4.57039 6.96673 4.57145 6.97825 4.57145C7.06889 4.57145 7.1442 4.50581 7.15922 4.41947C7.17099 4.42183 7.18317 4.42308 7.19564 4.42308C7.27705 4.42308 7.34608 4.37013 7.37019 4.29679C7.39491 4.30917 7.42281 4.31613 7.45233 4.31613C7.49263 4.31613 7.52991 4.30315 7.56019 4.28115C7.56591 4.30572 7.57655 4.32839 7.59102 4.34808C7.56864 4.37851 7.55542 4.4161 7.55542 4.45677C7.55542 4.55581 7.63381 4.63655 7.73192 4.64033C7.69055 4.67401 7.66412 4.72535 7.66412 4.78286C7.66412 4.85994 7.71159 4.92593 7.7789 4.95319C7.77493 4.96821 7.77282 4.98398 7.77282 5.00025C7.77282 5.07733 7.82029 5.14332 7.88759 5.17058C7.88363 5.1856 7.88151 5.20137 7.88151 5.21764C7.88151 5.31909 7.96375 5.40134 8.06521 5.40134C8.16666 5.40134 8.2489 5.31909 8.2489 5.21764C8.2489 5.14056 8.20143 5.07457 8.13412 5.04731C8.13809 5.03229 8.14021 5.01652 8.14021 5.00025C8.14021 4.92317 8.09273 4.85718 8.02543 4.82992C8.0294 4.8149 8.03151 4.79913 8.03151 4.78286C8.03151 4.68382 7.95313 4.60308 7.85501 4.5993C7.89639 4.56562 7.92282 4.51428 7.92282 4.45677C7.92282 4.4161 7.9096 4.37851 7.88722 4.34808C7.9096 4.31764 7.92282 4.28005 7.92282 4.23938C7.92282 4.19871 7.9096 4.16112 7.88722 4.13068C7.90437 4.10736 7.91614 4.07983 7.9207 4.04993C7.95434 4.09272 8.00656 4.1202 8.06521 4.1202C8.16666 4.1202 8.2489 4.03796 8.2489 3.93651C8.2489 3.93085 8.24865 3.92526 8.24815 3.91973C8.28182 3.96154 8.33343 3.98829 8.39129 3.98829C8.45602 3.98829 8.51292 3.95482 8.54564 3.90425C8.57738 3.9304 8.61805 3.94611 8.66239 3.94611C8.73434 3.94611 8.79663 3.90475 8.82677 3.84451ZM7.63193 4.17119C7.6621 4.1929 7.69912 4.20569 7.73912 4.20569C7.7999 4.20569 7.85378 4.17617 7.88722 4.13068C7.85378 4.0852 7.7999 4.05569 7.73912 4.05569C7.69882 4.05569 7.66155 4.06866 7.63126 4.09067C7.62103 4.0467 7.59502 4.00879 7.55952 3.98324C7.55684 3.99573 7.55542 4.0087 7.55542 4.02199C7.55542 4.06266 7.56864 4.10025 7.59102 4.13069C7.56864 4.16112 7.55542 4.19871 7.55542 4.23938C7.55542 4.25375 7.55707 4.26773 7.56019 4.28115C7.59616 4.25502 7.62228 4.21616 7.63193 4.17119ZM7.63193 4.17119C7.61627 4.15991 7.60245 4.14623 7.59102 4.13069C7.60228 4.11536 7.61587 4.10185 7.63126 4.09067C7.63438 4.10409 7.63603 4.11807 7.63603 4.13244C7.63603 4.14573 7.63462 4.1587 7.63193 4.17119ZM8.13412 5.04731C8.11284 5.03869 8.08958 5.03395 8.06521 5.03395C7.98002 5.03395 7.90838 5.09193 7.88759 5.17058C7.90888 5.1792 7.93214 5.18395 7.95651 5.18395C8.0417 5.18395 8.11334 5.12596 8.13412 5.04731ZM8.02543 4.82992C8.00415 4.8213 7.98088 4.81655 7.95651 4.81655C7.87133 4.81655 7.79968 4.87454 7.7789 4.95319C7.80018 4.96181 7.82344 4.96655 7.84782 4.96655C7.933 4.96655 8.00464 4.90857 8.02543 4.82992ZM7.85501 4.5993L7.84782 4.59916C7.80387 4.59916 7.76353 4.61459 7.73192 4.64033L7.73912 4.64047C7.78306 4.64047 7.8234 4.62504 7.85501 4.5993ZM7.88722 4.34808C7.85378 4.30259 7.7999 4.27308 7.73912 4.27308C7.67834 4.27308 7.62446 4.30259 7.59102 4.34808C7.62446 4.39356 7.67834 4.42308 7.73912 4.42308C7.7999 4.42308 7.85378 4.39356 7.88722 4.34808ZM6.87675 5.36017L6.86955 5.36003C6.82561 5.36003 6.78527 5.37546 6.75366 5.4012L6.76086 5.40134C6.8048 5.40134 6.84514 5.38591 6.87675 5.36017ZM6.82978 5.04731C6.80899 5.12596 6.73735 5.18395 6.65216 5.18395C6.62779 5.18395 6.60453 5.1792 6.58325 5.17058C6.60403 5.09193 6.67567 5.03395 6.76086 5.03395C6.78523 5.03395 6.80849 5.03869 6.82978 5.04731ZM6.72108 4.82992C6.70029 4.90857 6.62865 4.96655 6.54347 4.96655C6.5191 4.96655 6.49583 4.96181 6.47455 4.95319C6.49534 4.87454 6.56698 4.81655 6.65216 4.81655C6.67654 4.81655 6.6998 4.8213 6.72108 4.82992ZM6.581 4.603C6.59581 4.67434 6.65199 4.73052 6.72333 4.74533C6.70852 4.67399 6.65234 4.61781 6.581 4.603ZM6.94453 4.56837C6.85918 4.55253 6.79455 4.47769 6.79455 4.38776L6.79458 4.38486C6.87993 4.40069 6.94455 4.47553 6.94455 4.56547L6.94453 4.56837ZM7.15922 4.41947C7.07521 4.40257 7.01195 4.32836 7.01195 4.23938C7.01195 4.22857 7.01288 4.21797 7.01467 4.20767C7.09868 4.22457 7.16195 4.29878 7.16195 4.38776C7.16195 4.39857 7.16101 4.40917 7.15922 4.41947ZM7.37019 4.29679C7.30997 4.26663 7.26864 4.20436 7.26864 4.13244C7.26864 4.11239 7.27185 4.09309 7.27778 4.07503C7.338 4.10518 7.37934 4.16745 7.37934 4.23938C7.37934 4.25943 7.37613 4.27873 7.37019 4.29679ZM7.9207 4.04993C7.89615 4.0187 7.88151 3.97931 7.88151 3.93651C7.88151 3.92701 7.88223 3.91767 7.88362 3.90856C7.90817 3.93979 7.92282 3.97918 7.92282 4.02199C7.92282 4.03149 7.92209 4.04082 7.9207 4.04993ZM8.20835 3.82137C8.21171 3.85844 8.22607 3.89232 8.24815 3.91973C8.24479 3.88267 8.23043 3.84879 8.20835 3.82137ZM8.54564 3.90425C8.50476 3.87055 8.4787 3.81953 8.4787 3.76242C8.4787 3.72569 8.48948 3.69148 8.50805 3.66277C8.54893 3.69646 8.57499 3.74749 8.57499 3.8046C8.57499 3.84133 8.56421 3.87554 8.54564 3.90425ZM8.82677 3.84451C8.78089 3.81111 8.75108 3.75699 8.75108 3.6959C8.75108 3.6664 8.75803 3.63852 8.77039 3.61381C8.81627 3.64721 8.84609 3.70133 8.84609 3.76242C8.84609 3.79192 8.83913 3.81981 8.82677 3.84451ZM6.97825 4.42145C6.99686 4.42145 7.01195 4.40637 7.01195 4.38776C7.01195 4.36915 6.99686 4.35406 6.97825 4.35406C6.95964 4.35406 6.94455 4.36915 6.94455 4.38776C6.94455 4.40637 6.95964 4.42145 6.97825 4.42145ZM6.76086 4.59916C6.77947 4.59916 6.79455 4.58408 6.79455 4.56547C6.79455 4.54686 6.77947 4.53177 6.76086 4.53177C6.74225 4.53177 6.72716 4.54686 6.72716 4.56547C6.72716 4.58408 6.74225 4.59916 6.76086 4.59916ZM6.54347 4.81655C6.56208 4.81655 6.57716 4.80147 6.57716 4.78286C6.57716 4.76425 6.56208 4.74916 6.54347 4.74916C6.52486 4.74916 6.50977 4.76425 6.50977 4.78286C6.50977 4.80147 6.52486 4.81655 6.54347 4.81655ZM6.65216 5.03395C6.67077 5.03395 6.68586 5.01886 6.68586 5.00025C6.68586 4.98164 6.67077 4.96655 6.65216 4.96655C6.63355 4.96655 6.61847 4.98164 6.61847 5.00025C6.61847 5.01886 6.63355 5.03395 6.65216 5.03395ZM6.76086 5.25134C6.77947 5.25134 6.79455 5.23625 6.79455 5.21764C6.79455 5.19903 6.77947 5.18395 6.76086 5.18395C6.74225 5.18395 6.72716 5.19903 6.72716 5.21764C6.72716 5.23625 6.74225 5.25134 6.76086 5.25134ZM6.90325 5.54373C6.90325 5.56234 6.88816 5.57742 6.86955 5.57742C6.85094 5.57742 6.83586 5.56234 6.83586 5.54373C6.83586 5.52512 6.85094 5.51003 6.86955 5.51003C6.88816 5.51003 6.90325 5.52512 6.90325 5.54373ZM7.19564 4.27308C7.21425 4.27308 7.22934 4.25799 7.22934 4.23938C7.22934 4.22077 7.21425 4.20569 7.19564 4.20569C7.17703 4.20569 7.16195 4.22077 7.16195 4.23938C7.16195 4.25799 7.17703 4.27308 7.19564 4.27308ZM7.45233 4.16613C7.47094 4.16613 7.48603 4.15105 7.48603 4.13244C7.48603 4.11383 7.47094 4.09874 7.45233 4.09874C7.43372 4.09874 7.41864 4.11383 7.41864 4.13244C7.41864 4.15105 7.43372 4.16613 7.45233 4.16613ZM7.73912 4.05569C7.75773 4.05569 7.77282 4.0406 7.77282 4.02199C7.77282 4.00338 7.75773 3.98829 7.73912 3.98829C7.72051 3.98829 7.70542 4.00338 7.70542 4.02199C7.70542 4.0406 7.72051 4.05569 7.73912 4.05569ZM8.06521 3.9702C8.08382 3.9702 8.0989 3.95512 8.0989 3.93651C8.0989 3.9179 8.08382 3.90281 8.06521 3.90281C8.0466 3.90281 8.03151 3.9179 8.03151 3.93651C8.03151 3.95512 8.0466 3.9702 8.06521 3.9702ZM8.39129 3.83829C8.4099 3.83829 8.42499 3.82321 8.42499 3.8046C8.42499 3.78599 8.4099 3.7709 8.39129 3.7709C8.37268 3.7709 8.3576 3.78599 8.3576 3.8046C8.3576 3.82321 8.37268 3.83829 8.39129 3.83829ZM8.66239 3.79611C8.681 3.79611 8.69609 3.78103 8.69609 3.76242C8.69609 3.74381 8.681 3.72872 8.66239 3.72872C8.64378 3.72872 8.6287 3.74381 8.6287 3.76242C8.6287 3.78103 8.64378 3.79611 8.66239 3.79611ZM8.93477 3.7296C8.95338 3.7296 8.96847 3.71451 8.96847 3.6959C8.96847 3.67729 8.95338 3.66221 8.93477 3.66221C8.91616 3.66221 8.90108 3.67729 8.90108 3.6959C8.90108 3.71451 8.91616 3.7296 8.93477 3.7296ZM7.73912 4.27308C7.75773 4.27308 7.77282 4.25799 7.77282 4.23938C7.77282 4.22077 7.75773 4.20569 7.73912 4.20569C7.72051 4.20569 7.70542 4.22077 7.70542 4.23938C7.70542 4.25799 7.72051 4.27308 7.73912 4.27308ZM7.73912 4.49047C7.75773 4.49047 7.77282 4.47538 7.77282 4.45677C7.77282 4.43816 7.75773 4.42308 7.73912 4.42308C7.72051 4.42308 7.70542 4.43816 7.70542 4.45677C7.70542 4.47538 7.72051 4.49047 7.73912 4.49047ZM7.84782 4.81655C7.86642 4.81655 7.88151 4.80147 7.88151 4.78286C7.88151 4.76425 7.86642 4.74916 7.84782 4.74916C7.82921 4.74916 7.81412 4.76425 7.81412 4.78286C7.81412 4.80147 7.82921 4.81655 7.84782 4.81655ZM7.95651 5.03395C7.97512 5.03395 7.99021 5.01886 7.99021 5.00025C7.99021 4.98164 7.97512 4.96655 7.95651 4.96655C7.9379 4.96655 7.92282 4.98164 7.92282 5.00025C7.92282 5.01886 7.9379 5.03395 7.95651 5.03395ZM8.06521 5.25134C8.08382 5.25134 8.0989 5.23625 8.0989 5.21764C8.0989 5.19903 8.08382 5.18395 8.06521 5.18395C8.0466 5.18395 8.03151 5.19903 8.03151 5.21764C8.03151 5.23625 8.0466 5.25134 8.06521 5.25134ZM12.8478 5.57742C12.8664 5.57742 12.8815 5.56234 12.8815 5.54373C12.8815 5.52512 12.8664 5.51003 12.8478 5.51003C12.8292 5.51003 12.8141 5.52512 12.8141 5.54373C12.8141 5.56234 12.8292 5.57742 12.8478 5.57742ZM12.6641 5.54373C12.6641 5.64518 12.7464 5.72742 12.8478 5.72742C12.9493 5.72742 13.0315 5.64518 13.0315 5.54373C13.0315 5.48622 13.0051 5.43488 12.9637 5.4012C13.0618 5.39742 13.1402 5.31668 13.1402 5.21764C13.1402 5.20137 13.1381 5.1856 13.1341 5.17058C13.2014 5.14332 13.2489 5.07733 13.2489 5.00025C13.2489 4.98398 13.2468 4.96821 13.2428 4.95319C13.3101 4.92593 13.3576 4.85994 13.3576 4.78286C13.3576 4.68141 13.2754 4.59916 13.1739 4.59916C13.161 4.59916 13.1485 4.60049 13.1364 4.603C13.1389 4.59088 13.1402 4.57833 13.1402 4.56547C13.1402 4.46402 13.058 4.38177 12.9565 4.38177C12.945 4.38177 12.9337 4.38283 12.9228 4.38486C12.9212 4.28474 12.8396 4.20406 12.7391 4.20406C12.7266 4.20406 12.7145 4.2053 12.7027 4.20767C12.6877 4.12133 12.6124 4.05569 12.5217 4.05569C12.4922 4.05569 12.4643 4.06265 12.4396 4.07503C12.4155 4.00169 12.3464 3.94874 12.265 3.94874C12.225 3.94874 12.188 3.96153 12.1579 3.98324C12.1401 3.9004 12.0664 3.83829 11.9783 3.83829C11.9196 3.83829 11.8674 3.86578 11.8337 3.90856C11.8203 3.82037 11.7441 3.75281 11.6522 3.75281C11.5943 3.75281 11.5427 3.77956 11.509 3.82137C11.5095 3.81585 11.5098 3.81025 11.5098 3.8046C11.5098 3.70315 11.4275 3.6209 11.3261 3.6209C11.2817 3.6209 11.2411 3.63661 11.2093 3.66277C11.1766 3.61219 11.1197 3.57872 11.055 3.57872C11.0146 3.57872 10.9773 3.59174 10.947 3.61381C10.9168 3.55357 10.8545 3.51221 10.7826 3.51221C10.6811 3.51221 10.5989 3.59445 10.5989 3.6959C10.5989 3.79735 10.6811 3.8796 10.7826 3.8796C10.823 3.8796 10.8603 3.86658 10.8906 3.84451C10.9207 3.90475 10.983 3.94611 11.055 3.94611C11.0993 3.94611 11.14 3.9304 11.1717 3.90425C11.2045 3.95482 11.2614 3.98829 11.3261 3.98829C11.3839 3.98829 11.4356 3.96154 11.4692 3.91973C11.4687 3.92526 11.4685 3.93085 11.4685 3.93651C11.4685 4.03796 11.5507 4.1202 11.6522 4.1202C11.7108 4.1202 11.763 4.09272 11.7967 4.04993C11.8012 4.07983 11.813 4.10736 11.8301 4.13069C11.8078 4.16112 11.7946 4.19871 11.7946 4.23938C11.7946 4.28005 11.8078 4.31764 11.8301 4.34808C11.8078 4.37851 11.7946 4.4161 11.7946 4.45677C11.7946 4.51428 11.821 4.56562 11.8624 4.5993C11.7642 4.60308 11.6859 4.68382 11.6859 4.78286C11.6859 4.79913 11.688 4.8149 11.6919 4.82992C11.6246 4.85718 11.5772 4.92317 11.5772 5.00025C11.5772 5.01652 11.5793 5.03229 11.5832 5.04731C11.5159 5.07457 11.4685 5.14056 11.4685 5.21764C11.4685 5.31909 11.5507 5.40134 11.6522 5.40134C11.7536 5.40134 11.8359 5.31909 11.8359 5.21764C11.8359 5.20137 11.8337 5.1856 11.8298 5.17058C11.8971 5.14332 11.9446 5.07733 11.9446 5.00025C11.9446 4.98398 11.9424 4.96821 11.9385 4.95319C12.0058 4.92593 12.0532 4.85994 12.0532 4.78286C12.0532 4.72535 12.0268 4.67401 11.9854 4.64033C12.0836 4.63655 12.1619 4.55581 12.1619 4.45677C12.1619 4.4161 12.1487 4.37851 12.1264 4.34808C12.1408 4.32839 12.1515 4.30572 12.1572 4.28115C12.1875 4.30315 12.2247 4.31613 12.265 4.31613C12.2946 4.31613 12.3225 4.30917 12.3472 4.29679C12.3713 4.37013 12.4403 4.42308 12.5217 4.42308C12.5342 4.42308 12.5464 4.42183 12.5582 4.41947C12.5732 4.50581 12.6485 4.57145 12.7391 4.57145C12.7506 4.57145 12.7619 4.57039 12.7728 4.56837C12.7744 4.66848 12.856 4.74916 12.9565 4.74916C12.9694 4.74916 12.9819 4.74784 12.994 4.74533C12.9915 4.75744 12.9902 4.77 12.9902 4.78286C12.9902 4.79913 12.9923 4.8149 12.9963 4.82992C12.929 4.85718 12.8815 4.92317 12.8815 5.00025C12.8815 5.01652 12.8836 5.03229 12.8876 5.04731C12.8203 5.07457 12.7728 5.14056 12.7728 5.21764C12.7728 5.27515 12.7992 5.32649 12.8406 5.36017C12.7425 5.36395 12.6641 5.44469 12.6641 5.54373ZM12.0854 4.17119C12.0553 4.1929 12.0183 4.20569 11.9783 4.20569C11.9175 4.20569 11.8636 4.17617 11.8301 4.13069C11.8636 4.0852 11.9175 4.05569 11.9783 4.05569C12.0186 4.05569 12.0558 4.06866 12.0861 4.09067C12.083 4.10409 12.0813 4.11807 12.0813 4.13244C12.0813 4.14573 12.0828 4.1587 12.0854 4.17119ZM12.1264 4.13069C12.1487 4.16112 12.1619 4.19871 12.1619 4.23938C12.1619 4.25375 12.1603 4.26773 12.1572 4.28115C12.1212 4.25502 12.0951 4.21616 12.0854 4.17119C12.1011 4.15991 12.1149 4.14623 12.1264 4.13069ZM12.1264 4.13069C12.1151 4.11536 12.1015 4.10185 12.0861 4.09067C12.0963 4.0467 12.1223 4.00879 12.1579 3.98324C12.1605 3.99573 12.1619 4.0087 12.1619 4.02199C12.1619 4.06266 12.1487 4.10025 12.1264 4.13069ZM11.8298 5.17058C11.809 5.09193 11.7373 5.03395 11.6522 5.03395C11.6278 5.03395 11.6045 5.03869 11.5832 5.04731C11.604 5.12596 11.6757 5.18395 11.7609 5.18395C11.7852 5.18395 11.8085 5.1792 11.8298 5.17058ZM11.9385 4.95319C11.9177 4.87454 11.846 4.81655 11.7609 4.81655C11.7365 4.81655 11.7132 4.8213 11.6919 4.82992C11.7127 4.90857 11.7844 4.96655 11.8696 4.96655C11.8939 4.96655 11.9172 4.96181 11.9385 4.95319ZM11.9854 4.64033C11.9538 4.61459 11.9135 4.59916 11.8696 4.59916L11.8624 4.5993C11.894 4.62504 11.9343 4.64047 11.9783 4.64047L11.9854 4.64033ZM12.1264 4.34808C12.0929 4.30259 12.039 4.27308 11.9783 4.27308C11.9175 4.27308 11.8636 4.30259 11.8301 4.34808C11.8636 4.39356 11.9175 4.42308 11.9783 4.42308C12.039 4.42308 12.0929 4.39356 12.1264 4.34808ZM10.8906 3.84451C10.9365 3.81111 10.9663 3.75699 10.9663 3.6959C10.9663 3.6664 10.9593 3.63852 10.947 3.61381C10.9011 3.64721 10.8713 3.70133 10.8713 3.76242C10.8713 3.79192 10.8782 3.81981 10.8906 3.84451ZM11.1717 3.90425C11.2126 3.87055 11.2387 3.81953 11.2387 3.76242C11.2387 3.72569 11.2279 3.69148 11.2093 3.66277C11.1684 3.69646 11.1424 3.74749 11.1424 3.8046C11.1424 3.84133 11.1532 3.87554 11.1717 3.90425ZM11.509 3.82137C11.5057 3.85844 11.4913 3.89232 11.4692 3.91973C11.4726 3.88267 11.4869 3.84879 11.509 3.82137ZM11.7967 4.04993C11.8212 4.0187 11.8359 3.97931 11.8359 3.93651C11.8359 3.92701 11.8351 3.91767 11.8337 3.90856C11.8092 3.93979 11.7946 3.97918 11.7946 4.02199C11.7946 4.03149 11.7953 4.04082 11.7967 4.04993ZM12.3472 4.29679C12.4074 4.26663 12.4487 4.20436 12.4487 4.13244C12.4487 4.11239 12.4455 4.09309 12.4396 4.07503C12.3794 4.10518 12.338 4.16745 12.338 4.23938C12.338 4.25943 12.3412 4.27873 12.3472 4.29679ZM12.5582 4.41947C12.6422 4.40257 12.7054 4.32836 12.7054 4.23938C12.7054 4.22857 12.7045 4.21797 12.7027 4.20767C12.6187 4.22457 12.5554 4.29878 12.5554 4.38776C12.5554 4.39857 12.5564 4.40917 12.5582 4.41947ZM12.994 4.74533C13.0654 4.73052 13.1216 4.67434 13.1364 4.603C13.065 4.61781 13.0089 4.67399 12.994 4.74533ZM12.9228 4.38486L12.9228 4.38776C12.9228 4.47769 12.8582 4.55253 12.7728 4.56837L12.7728 4.56547C12.7728 4.47553 12.8374 4.40069 12.9228 4.38486ZM12.9963 4.82992C13.0176 4.8213 13.0408 4.81655 13.0652 4.81655C13.1504 4.81655 13.222 4.87454 13.2428 4.95319C13.2215 4.96181 13.1983 4.96655 13.1739 4.96655C13.0887 4.96655 13.0171 4.90857 12.9963 4.82992ZM12.8876 5.04731C12.9089 5.03869 12.9321 5.03395 12.9565 5.03395C13.0417 5.03395 13.1133 5.09193 13.1341 5.17058C13.1128 5.1792 13.0896 5.18395 13.0652 5.18395C12.98 5.18395 12.9084 5.12596 12.8876 5.04731ZM12.9565 5.40134C12.9126 5.40134 12.8722 5.38591 12.8406 5.36017L12.8478 5.36003C12.8918 5.36003 12.9321 5.37546 12.9637 5.4012L12.9565 5.40134ZM12.9565 5.25134C12.9751 5.25134 12.9902 5.23625 12.9902 5.21764C12.9902 5.19903 12.9751 5.18395 12.9565 5.18395C12.9379 5.18395 12.9228 5.19903 12.9228 5.21764C12.9228 5.23625 12.9379 5.25134 12.9565 5.25134ZM13.0652 5.03395C13.0838 5.03395 13.0989 5.01886 13.0989 5.00025C13.0989 4.98164 13.0838 4.96655 13.0652 4.96655C13.0466 4.96655 13.0315 4.98164 13.0315 5.00025C13.0315 5.01886 13.0466 5.03395 13.0652 5.03395ZM13.1739 4.81655C13.1925 4.81655 13.2076 4.80147 13.2076 4.78286C13.2076 4.76425 13.1925 4.74916 13.1739 4.74916C13.1553 4.74916 13.1402 4.76425 13.1402 4.78286C13.1402 4.80147 13.1553 4.81655 13.1739 4.81655ZM12.9565 4.59916C12.9751 4.59916 12.9902 4.58408 12.9902 4.56547C12.9902 4.54686 12.9751 4.53177 12.9565 4.53177C12.9379 4.53177 12.9228 4.54686 12.9228 4.56547C12.9228 4.58408 12.9379 4.59916 12.9565 4.59916ZM12.7391 4.42145C12.7577 4.42145 12.7728 4.40637 12.7728 4.38776C12.7728 4.36915 12.7577 4.35406 12.7391 4.35406C12.7205 4.35406 12.7054 4.36915 12.7054 4.38776C12.7054 4.40637 12.7205 4.42145 12.7391 4.42145ZM12.5217 4.27308C12.5403 4.27308 12.5554 4.25799 12.5554 4.23938C12.5554 4.22077 12.5403 4.20569 12.5217 4.20569C12.5031 4.20569 12.488 4.22077 12.488 4.23938C12.488 4.25799 12.5031 4.27308 12.5217 4.27308ZM12.265 4.16613C12.2836 4.16613 12.2987 4.15105 12.2987 4.13244C12.2987 4.11383 12.2836 4.09874 12.265 4.09874C12.2464 4.09874 12.2313 4.11383 12.2313 4.13244C12.2313 4.15105 12.2464 4.16613 12.265 4.16613ZM11.9783 4.05569C11.9969 4.05569 12.0119 4.0406 12.0119 4.02199C12.0119 4.00338 11.9969 3.98829 11.9783 3.98829C11.9596 3.98829 11.9446 4.00338 11.9446 4.02199C11.9446 4.0406 11.9596 4.05569 11.9783 4.05569ZM11.6522 3.9702C11.6708 3.9702 11.6859 3.95512 11.6859 3.93651C11.6859 3.9179 11.6708 3.90281 11.6522 3.90281C11.6336 3.90281 11.6185 3.9179 11.6185 3.93651C11.6185 3.95512 11.6336 3.9702 11.6522 3.9702ZM11.3261 3.83829C11.3447 3.83829 11.3598 3.82321 11.3598 3.8046C11.3598 3.78599 11.3447 3.7709 11.3261 3.7709C11.3075 3.7709 11.2924 3.78599 11.2924 3.8046C11.2924 3.82321 11.3075 3.83829 11.3261 3.83829ZM11.055 3.79611C11.0736 3.79611 11.0887 3.78103 11.0887 3.76242C11.0887 3.74381 11.0736 3.72872 11.055 3.72872C11.0364 3.72872 11.0213 3.74381 11.0213 3.76242C11.0213 3.78103 11.0364 3.79611 11.055 3.79611ZM10.7826 3.7296C10.8012 3.7296 10.8163 3.71451 10.8163 3.6959C10.8163 3.67729 10.8012 3.66221 10.7826 3.66221C10.764 3.66221 10.7489 3.67729 10.7489 3.6959C10.7489 3.71451 10.764 3.7296 10.7826 3.7296ZM11.9783 4.27308C11.9969 4.27308 12.0119 4.25799 12.0119 4.23938C12.0119 4.22077 11.9969 4.20569 11.9783 4.20569C11.9596 4.20569 11.9446 4.22077 11.9446 4.23938C11.9446 4.25799 11.9596 4.27308 11.9783 4.27308ZM11.9783 4.49047C11.9969 4.49047 12.0119 4.47538 12.0119 4.45677C12.0119 4.43816 11.9969 4.42308 11.9783 4.42308C11.9596 4.42308 11.9446 4.43816 11.9446 4.45677C11.9446 4.47538 11.9596 4.49047 11.9783 4.49047ZM11.8696 4.81655C11.8882 4.81655 11.9032 4.80147 11.9032 4.78286C11.9032 4.76425 11.8882 4.74916 11.8696 4.74916C11.8509 4.74916 11.8359 4.76425 11.8359 4.78286C11.8359 4.80147 11.8509 4.81655 11.8696 4.81655ZM11.7609 5.03395C11.7795 5.03395 11.7946 5.01886 11.7946 5.00025C11.7946 4.98164 11.7795 4.96655 11.7609 4.96655C11.7422 4.96655 11.7272 4.98164 11.7272 5.00025C11.7272 5.01886 11.7422 5.03395 11.7609 5.03395ZM11.6522 5.25134C11.6708 5.25134 11.6859 5.23625 11.6859 5.21764C11.6859 5.19903 11.6708 5.18395 11.6522 5.18395C11.6336 5.18395 11.6185 5.19903 11.6185 5.21764C11.6185 5.23625 11.6336 5.25134 11.6522 5.25134Z" fill="white"/>
<path fill-rule="evenodd" clip-rule="evenodd" d="M9.82621 2.61571L9.66508 2.61834L9.66536 2.88319L9.36796 2.88302L9.37151 3.0438L9.66553 3.04397L9.66584 3.34582L9.82697 3.34319L9.82666 3.04406L10.1192 3.04422L10.1157 2.88344L9.82649 2.88328L9.82621 2.61571Z" fill="#F6C540"/>
<path fill-rule="evenodd" clip-rule="evenodd" d="M5.83856 7.55078H13.6386V14.1759C13.6386 14.1759 13.4027 17.476 9.73856 17.476C6.07444 17.476 5.83856 14.1759 5.83856 14.1759V7.55078Z" fill="#C51918"/>
<path fill-rule="evenodd" clip-rule="evenodd" d="M8.19268 7.78003C8.12116 7.78003 8.01106 7.8314 7.86512 7.88957C7.71917 7.94774 7.56591 8.07332 7.71551 8.19911C7.86512 8.3249 8.07928 8.60098 8.07928 8.49776C8.07928 8.39454 8.33513 8.29445 8.33513 8.34449C8.33513 8.39454 8.25592 8.49776 8.46369 8.49776C8.67146 8.49776 8.77851 8.55914 8.55682 8.55914C8.33513 8.55914 8.31104 8.66056 8.16696 8.66056C8.02289 8.66056 7.71551 8.55838 7.71551 8.49776C7.71551 8.43714 7.89352 8.7958 8.07928 8.7958C8.26505 8.7958 8.37057 8.9703 8.46369 8.88305C8.55682 8.7958 8.5458 8.7958 8.69624 8.7958C8.84669 8.7958 8.79178 8.44341 8.79178 8.44341C8.79178 8.44341 8.26421 7.78003 8.19268 7.78003Z" fill="#E8AA00"/>
<path fill-rule="evenodd" clip-rule="evenodd" d="M11.2028 7.78003C11.2743 7.78003 11.3844 7.8314 11.5303 7.88957C11.6763 7.94774 11.8295 8.07332 11.6799 8.19911C11.5303 8.3249 11.3162 8.60098 11.3162 8.49776C11.3162 8.39454 11.0603 8.29445 11.0603 8.34449C11.0603 8.39454 11.1395 8.49776 10.9318 8.49776C10.724 8.49776 10.6169 8.55914 10.8386 8.55914C11.0603 8.55914 11.0844 8.66056 11.2285 8.66056C11.3726 8.66056 11.6799 8.55838 11.6799 8.49776C11.6799 8.43714 11.5019 8.7958 11.3162 8.7958C11.1304 8.7958 11.0249 8.9703 10.9318 8.88305C10.8386 8.7958 10.8497 8.7958 10.6992 8.7958C10.5488 8.7958 10.6037 8.44341 10.6037 8.44341C10.6037 8.44341 11.1312 7.78003 11.2028 7.78003Z" fill="#E8AA00"/>
<path fill-rule="evenodd" clip-rule="evenodd" d="M7.12544 8.5002C6.97592 8.84889 8.12186 10.1442 8.12186 10.1442H8.25018C8.30409 10.1442 8.40438 10.0115 8.52547 9.85134C8.60846 9.74155 8.70123 9.61883 8.79553 9.51703C8.97294 9.32553 8.87892 9.16465 8.79127 9.01468C8.76434 8.96861 8.73802 8.92357 8.72035 8.87899C8.68207 8.78241 8.67663 8.74388 8.67041 8.69986C8.66441 8.65741 8.65768 8.60985 8.6201 8.5002C8.56488 8.33907 8.37233 8.13116 8.23881 7.987C8.18726 7.93133 8.14451 7.88517 8.12186 7.85488C8.05038 7.75925 8.10461 7.7598 8.25383 7.76133C8.2743 7.76154 8.29656 7.76177 8.32053 7.76177C8.5192 7.76177 8.89871 7.85488 9.01215 7.96363C9.12559 8.07237 9.24454 8.09557 9.41933 8.09557C9.59412 8.09557 9.48631 8.21327 9.32713 8.29276C9.49852 8.32553 9.57621 8.61123 9.61143 8.8649C9.67598 8.61123 9.78586 8.32553 9.95725 8.29276C9.79807 8.21327 9.69026 8.09557 9.86505 8.09557C10.0398 8.09557 10.1588 8.07237 10.2722 7.96363C10.3857 7.85488 10.7652 7.76177 10.9638 7.76177C10.9878 7.76177 11.0101 7.76154 11.0305 7.76133C11.1798 7.7598 11.234 7.75925 11.1625 7.85488C11.1399 7.88517 11.0971 7.93133 11.0456 7.987C10.9121 8.13116 10.7195 8.33907 10.6643 8.5002C10.6267 8.60985 10.62 8.65741 10.614 8.69986C10.6077 8.74388 10.6023 8.78241 10.564 8.87899C10.5464 8.92357 10.52 8.96861 10.4931 9.01468C10.4055 9.16465 10.3114 9.32553 10.4888 9.51703C10.5831 9.61883 10.6759 9.74155 10.7589 9.85134C10.88 10.0115 10.9803 10.1442 11.0342 10.1442H11.1625C11.1625 10.1442 12.3085 8.84889 12.1589 8.5002C12.1011 8.36542 12.0079 8.23843 11.9308 8.13333C11.8083 7.96652 11.7264 7.85488 11.8909 7.85488C12.1589 7.85488 13.2276 8.5325 13.2276 10.0604C13.2276 11.5883 13.1289 12.4573 12.8997 13.0661C12.7434 13.4816 12.8866 13.885 12.9933 14.1857C13.043 14.3257 13.0848 14.4433 13.0848 14.5296C13.0848 14.8013 12.664 14.5632 12.664 14.3931C12.664 14.3122 12.6064 14.4327 12.546 14.5591C12.4794 14.6984 12.4093 14.8449 12.4093 14.7364C12.4093 14.6207 12.3422 14.4985 12.2832 14.3908C12.2366 14.3061 12.195 14.2303 12.195 14.1739C12.195 14.1174 12.136 14.1195 12.07 14.1218C11.9861 14.1248 11.8909 14.1282 11.8909 14.0125C11.8909 13.9344 11.8606 13.9188 11.8228 13.8994C11.7606 13.8674 11.6782 13.825 11.6782 13.4749C11.6782 13.2154 11.6263 13.3074 11.5667 13.4128C11.5119 13.5099 11.4505 13.6184 11.4173 13.4749C11.4141 13.4609 11.3796 13.4008 11.3371 13.3264C11.2752 13.2182 11.196 13.0798 11.1707 13.01C11.1678 12.9987 11.1651 12.9875 11.1625 12.9763C11.1625 12.984 11.1654 12.9955 11.1707 13.01C11.2487 13.3156 11.436 13.634 11.5549 13.7857C11.6782 13.943 11.8909 14.2844 11.8909 14.2844C11.8909 14.2844 11.6926 14.395 11.5549 14.2844C11.4781 14.2227 11.4729 14.2808 11.4672 14.3441C11.4627 14.3942 11.458 14.4475 11.4173 14.4475C11.3918 14.4475 11.3677 14.4517 11.3463 14.4554C11.3305 14.4582 11.316 14.4607 11.3035 14.461C11.2787 14.3978 11.2525 14.355 11.2525 14.3931C11.2525 14.4494 11.272 14.462 11.3035 14.461C11.3495 14.5781 11.3907 14.7652 11.2525 14.6402C11.1538 14.5509 11.0845 14.5146 11.0387 14.4906C10.9856 14.4628 10.9638 14.4514 10.9638 14.3931C10.9638 14.3349 10.9423 14.3546 10.9085 14.3855C10.8792 14.4123 10.8407 14.4475 10.7991 14.4475C10.7455 14.4475 10.7343 14.3729 10.7181 14.2643C10.7072 14.1915 10.694 14.1035 10.6643 14.0125C10.6573 13.9913 10.6508 13.9709 10.6447 13.9516C10.5848 13.7642 10.5569 13.6769 10.4888 13.9132C10.457 14.0236 10.4009 14.1018 10.352 14.1699C10.2854 14.2625 10.2323 14.3365 10.2722 14.4475C10.2879 14.491 10.3075 14.5401 10.3285 14.5927C10.4005 14.7732 10.4888 14.9945 10.4888 15.1688C10.4888 15.2724 10.5832 15.4136 10.6718 15.5464C10.7757 15.7019 10.8718 15.8458 10.7991 15.9038C10.6643 16.0112 10.8274 16.3729 10.9638 16.5585C11.1003 16.744 11.0777 16.9706 10.871 16.9706C10.7579 16.9706 10.6965 17.0116 10.6409 17.0488C10.5949 17.0796 10.5529 17.1076 10.4888 17.1076C10.3474 17.1076 10.2722 17.0379 10.2722 17.0379C10.2722 17.0379 10.1849 17.1699 10.0398 17.1699C9.89477 17.1699 9.86505 17.0379 9.86505 17.0379L9.53506 17.1699V16.5918L9.52673 17.1699L9.41933 17.0379C9.41933 17.0379 9.3896 17.1699 9.24454 17.1699C9.09949 17.1699 9.01215 17.0379 9.01215 17.0379C9.01215 17.0379 8.93701 17.1076 8.79553 17.1076C8.73148 17.1076 8.68947 17.0796 8.64348 17.0488C8.5879 17.0116 8.52651 16.9706 8.41338 16.9706C8.20665 16.9706 8.18408 16.744 8.32053 16.5585C8.45698 16.3729 8.6201 16.0112 8.4853 15.9038C8.41256 15.8458 8.50866 15.7019 8.61257 15.5464C8.70121 15.4136 8.79553 15.2724 8.79553 15.1688C8.79553 14.9945 8.88389 14.7732 8.95592 14.5927C8.97692 14.5401 8.99652 14.491 9.01215 14.4475C9.05208 14.3365 8.99896 14.2625 8.93241 14.1699C8.8835 14.1018 8.82733 14.0236 8.79553 13.9132C8.72749 13.6769 8.69957 13.7642 8.63972 13.9516C8.63355 13.9709 8.62703 13.9913 8.6201 14.0125C8.59035 14.1035 8.57719 14.1915 8.56631 14.2643C8.55007 14.3729 8.53891 14.4475 8.4853 14.4475C8.4437 14.4475 8.40519 14.4123 8.37587 14.3855C8.34209 14.3546 8.32053 14.3349 8.32053 14.3931C8.32053 14.4514 8.29876 14.4628 8.24569 14.4906C8.19983 14.5146 8.13062 14.5509 8.0319 14.6402C7.89368 14.7652 7.93489 14.5781 7.98084 14.461C8.01242 14.462 8.0319 14.4494 8.0319 14.3931C8.0319 14.355 8.00568 14.3978 7.98084 14.461C7.96833 14.4607 7.95392 14.4582 7.93808 14.4554C7.91666 14.4517 7.89261 14.4475 7.86707 14.4475C7.82639 14.4475 7.82163 14.3942 7.81716 14.3441C7.8115 14.2808 7.80631 14.2227 7.72944 14.2844C7.5918 14.395 7.39352 14.2844 7.39352 14.2844C7.39352 14.2844 7.60613 13.943 7.72944 13.7857C7.84836 13.634 8.03564 13.3156 8.11369 13.01C8.11893 12.9955 8.12186 12.984 8.12186 12.9763C8.11929 12.9875 8.11657 12.9987 8.11369 13.01C8.08838 13.0798 8.00922 13.2182 7.94729 13.3264C7.90473 13.4008 7.87031 13.4609 7.86707 13.4749C7.83383 13.6184 7.77251 13.5099 7.71767 13.4128C7.65808 13.3074 7.60613 13.2154 7.60613 13.4749C7.60613 13.825 7.52374 13.8674 7.46154 13.8994C7.42382 13.9188 7.39352 13.9344 7.39352 14.0125C7.39352 14.1282 7.29829 14.1248 7.2144 14.1218C7.14835 14.1195 7.08933 14.1174 7.08933 14.1739C7.08933 14.2303 7.04775 14.3061 7.00122 14.3908C6.94213 14.4985 6.87505 14.6207 6.87505 14.7364C6.87505 14.8449 6.80501 14.6984 6.73838 14.5591C6.67796 14.4327 6.62034 14.3122 6.62034 14.3931C6.62034 14.5632 6.19959 14.8013 6.19959 14.5296C6.19959 14.4433 6.24136 14.3257 6.29104 14.1857C6.39778 13.885 6.54101 13.4816 6.38464 13.0661C6.15551 12.4573 6.05679 11.5883 6.05679 10.0604C6.05679 8.5325 7.12544 7.85488 7.39352 7.85488C7.55798 7.85488 7.47603 7.96652 7.35359 8.13333C7.27645 8.23843 7.18324 8.36542 7.12544 8.5002Z" fill="#F7FCFF"/>
<path fill-rule="evenodd" clip-rule="evenodd" d="M7.64153 15.4016C7.64153 15.2962 7.91118 15.0518 7.91118 15.0518V15.0725C7.94901 15.1031 8.19 15.3018 8.19 15.3989C8.19 15.4592 8.1588 15.5466 8.13208 15.6214C8.1121 15.6774 8.09462 15.7263 8.09462 15.7515C8.09462 15.7685 8.10168 15.7563 8.11511 15.7332C8.14839 15.6757 8.22081 15.5507 8.32195 15.6343C8.45592 15.745 8.45511 15.9081 8.45459 16.0116C8.45456 16.0178 8.45453 16.0237 8.45453 16.0294C8.45453 16.0617 8.45447 16.0614 8.45018 16.0461C8.44093 16.013 8.41206 15.9098 8.32195 15.9098C8.19 15.9098 8.09462 16.0294 8.09462 16.0294V16.2335C8.09462 16.2335 8.11136 16.4019 8.19 16.3177C8.26864 16.2335 8.28538 16.4216 8.19 16.4216C8.14131 16.4216 8.09123 16.4733 8.0422 16.5239C7.99519 16.5724 7.94914 16.6199 7.90621 16.6199V16.603C7.86555 16.5998 7.83204 16.558 7.79786 16.5153C7.76078 16.469 7.7229 16.4216 7.67421 16.4216C7.57883 16.4216 7.59556 16.2335 7.67421 16.3177C7.75285 16.4019 7.76958 16.2335 7.76958 16.2335V16.0294C7.76958 16.0294 7.67421 15.9098 7.54226 15.9098C7.45215 15.9098 7.42328 16.013 7.41403 16.0461C7.40974 16.0614 7.40967 16.0617 7.40967 16.0294C7.40967 16.0237 7.40964 16.0178 7.40961 16.0116C7.4091 15.9081 7.40829 15.745 7.54226 15.6343C7.6434 15.5507 7.71581 15.6757 7.74909 15.7332C7.76253 15.7563 7.76958 15.7685 7.76958 15.7515C7.76958 15.7263 7.74613 15.6779 7.71929 15.6224C7.68343 15.5484 7.64153 15.4619 7.64153 15.4016Z" fill="#E8AA00"/>
<path fill-rule="evenodd" clip-rule="evenodd" d="M11.2285 15.4016C11.2285 15.2962 11.4981 15.0518 11.4981 15.0518V15.0725C11.536 15.1031 11.7769 15.3018 11.7769 15.3989C11.7769 15.4592 11.7457 15.5466 11.719 15.6214C11.699 15.6774 11.6816 15.7263 11.6816 15.7515C11.6816 15.7685 11.6886 15.7563 11.7021 15.7332C11.7353 15.6757 11.8077 15.5507 11.9089 15.6343C12.0429 15.745 12.0421 15.9081 12.0415 16.0116C12.0415 16.0178 12.0415 16.0237 12.0415 16.0294C12.0415 16.0617 12.0414 16.0614 12.0371 16.0461C12.0279 16.013 11.999 15.9098 11.9089 15.9098C11.7769 15.9098 11.6816 16.0294 11.6816 16.0294V16.2335C11.6816 16.2335 11.6983 16.4019 11.7769 16.3177C11.8556 16.2335 11.8723 16.4216 11.7769 16.4216C11.7283 16.4216 11.6782 16.4733 11.6291 16.5239C11.5821 16.5724 11.5361 16.6199 11.4932 16.6199V16.603C11.4525 16.5998 11.419 16.558 11.3848 16.5153C11.3477 16.469 11.3098 16.4216 11.2612 16.4216C11.1658 16.4216 11.1825 16.2335 11.2612 16.3177C11.3398 16.4019 11.3565 16.2335 11.3565 16.2335V16.0294C11.3565 16.0294 11.2612 15.9098 11.1292 15.9098C11.0391 15.9098 11.0102 16.013 11.001 16.0461C10.9967 16.0614 10.9966 16.0617 10.9966 16.0294C10.9966 16.0237 10.9966 16.0178 10.9966 16.0116C10.996 15.9081 10.9952 15.745 11.1292 15.6343C11.2303 15.5507 11.3028 15.6757 11.336 15.7332C11.3495 15.7563 11.3565 15.7685 11.3565 15.7515C11.3565 15.7263 11.3331 15.6779 11.3062 15.6224C11.2704 15.5484 11.2285 15.4619 11.2285 15.4016Z" fill="#E8AA00"/>
<path fill-rule="evenodd" clip-rule="evenodd" d="M7.37299 14.7696C7.61335 14.7696 7.66194 14.3125 7.66194 14.3125C7.66194 14.3125 7.8636 14.1035 7.8636 14.2576C7.8636 14.3398 7.80627 14.4434 7.76266 14.5221C7.72448 14.5911 7.69682 14.641 7.72735 14.641H8.06019C8.33462 14.641 8.012 14.7696 7.8636 14.827C7.79628 14.853 7.74854 14.8666 7.70274 14.8796C7.64758 14.8953 7.59524 14.9102 7.51491 14.945C7.36789 15.0087 7.30481 15.4282 7.37299 15.5629C7.44118 15.6975 7.30481 15.6407 7.24845 15.5629C7.21714 15.5196 7.19429 15.5792 7.16241 15.6622C7.13691 15.7286 7.10563 15.8101 7.05964 15.866C6.9708 15.974 6.97175 15.8786 6.9738 15.6731C6.97414 15.6392 6.97451 15.6023 6.97451 15.5629C6.97451 15.3808 7.01085 15.3791 7.06492 15.3767C7.0936 15.3754 7.12726 15.3739 7.16313 15.3451C7.2406 15.2829 7.2499 15.2509 7.27331 15.1704C7.28118 15.1433 7.29064 15.1107 7.30481 15.0697C7.36117 14.9066 7.05964 15.1645 6.97451 15.2866C6.92267 15.361 6.88656 15.3691 6.83255 15.3812C6.79786 15.389 6.75579 15.3985 6.69742 15.4282C6.60255 15.4765 6.6283 15.3815 6.65965 15.2659C6.67761 15.1996 6.69742 15.1265 6.69742 15.0697C6.69742 14.9718 6.75634 14.9969 6.83185 15.0291C6.87652 15.0482 6.92699 15.0697 6.97451 15.0697C7.09593 15.0697 7.15864 15.0185 7.23604 14.9552C7.24013 14.9518 7.24427 14.9484 7.24845 14.945C7.31056 14.8945 7.17527 14.9097 7.01417 14.9279C6.95907 14.9341 6.90094 14.9406 6.84667 14.945C6.72278 14.955 6.7145 14.9476 6.68357 14.9197C6.66133 14.8997 6.62737 14.8692 6.53028 14.827C6.29817 14.7261 6.67948 14.7696 6.84667 14.827C6.93963 14.8588 7.01763 14.8375 7.10989 14.8123C7.18355 14.7922 7.26629 14.7696 7.37299 14.7696ZM12.0342 14.7696C11.7938 14.7696 11.7452 14.3125 11.7452 14.3125C11.7452 14.3125 11.5436 14.1035 11.5436 14.2576C11.5436 14.3398 11.6009 14.4434 11.6445 14.5221C11.6827 14.5911 11.7103 14.641 11.6798 14.641H11.347C11.0725 14.641 11.3952 14.7696 11.5436 14.827C11.6109 14.853 11.6586 14.8666 11.7044 14.8796C11.7596 14.8953 11.8119 14.9102 11.8922 14.945C12.0393 15.0087 12.1024 15.4282 12.0342 15.5629C11.966 15.6975 12.1024 15.6407 12.1587 15.5629C12.19 15.5196 12.2129 15.5792 12.2448 15.6622C12.2703 15.7286 12.3015 15.8101 12.3475 15.866C12.4364 15.974 12.4354 15.8786 12.4334 15.6731C12.433 15.6392 12.4327 15.6023 12.4327 15.5629C12.4327 15.3808 12.3963 15.3791 12.3422 15.3767C12.3136 15.3754 12.2799 15.3739 12.244 15.3451C12.1666 15.2829 12.1573 15.2509 12.1338 15.1704C12.126 15.1433 12.1165 15.1107 12.1024 15.0697C12.046 14.9066 12.3475 15.1645 12.4327 15.2866C12.4845 15.361 12.5206 15.3691 12.5746 15.3812C12.6093 15.389 12.6514 15.3985 12.7097 15.4282C12.8046 15.4765 12.7789 15.3815 12.7475 15.2659C12.7295 15.1996 12.7097 15.1265 12.7097 15.0697C12.7097 14.9718 12.6508 14.9969 12.5753 15.0291C12.5306 15.0482 12.4802 15.0697 12.4327 15.0697C12.3112 15.0697 12.2485 15.0185 12.1711 14.9552C12.167 14.9518 12.1629 14.9484 12.1587 14.945C12.0966 14.8945 12.2319 14.9097 12.393 14.9279C12.4481 14.9341 12.5062 14.9406 12.5605 14.945C12.6844 14.955 12.6927 14.9476 12.7236 14.9197C12.7458 14.8997 12.7798 14.8692 12.8769 14.827C13.109 14.7261 12.7277 14.7696 12.5605 14.827C12.4675 14.8588 12.3895 14.8375 12.2973 14.8123C12.2236 14.7922 12.1409 14.7696 12.0342 14.7696Z" fill="#E8AA00"/>
<path fill-rule="evenodd" clip-rule="evenodd" d="M8.28525 10.2561H11.1919V12.9068C11.1919 12.9068 10.8799 14.2272 9.73857 14.2272C8.59728 14.2272 8.28525 12.9068 8.28525 12.9068V10.2561Z" fill="#C51918"/>
<path fill-rule="evenodd" clip-rule="evenodd" d="M10.1304 10.2175H9.36958V11.7393H8.28262V12.2827H9.36958V14.2393H10.1304V12.2827H11.2174V11.7393H10.1304V10.2175Z" fill="#F7FCFF"/>
<path fill-rule="evenodd" clip-rule="evenodd" d="M8.77562 10.9819C8.84858 10.9819 8.88339 10.9203 8.8448 10.8661C8.82451 10.8377 8.78248 10.8294 8.75092 10.8477C8.74809 10.8494 8.74544 10.8512 8.74297 10.8531C8.73135 10.8502 8.71715 10.8462 8.70077 10.8412C8.68608 10.8367 8.67013 10.8369 8.65556 10.8417C8.63792 10.8476 8.6279 10.8295 8.63641 10.7171C8.64453 10.6857 8.68751 10.6663 8.78765 10.6663C8.97063 10.6663 9.0458 10.6859 9.0458 10.7031V10.972L8.95701 11.0521C8.91421 11.0907 8.94452 11.1568 9.00504 11.1568H9.0458V11.3626C8.98997 11.4062 8.94006 11.4265 8.89635 11.4265C8.73267 11.4265 8.6407 11.3655 8.63816 11.2935C8.63886 11.2723 8.63981 11.2568 8.64051 11.2462L8.65461 11.2508C8.66959 11.256 8.68612 11.2562 8.70127 11.2515L8.7075 11.2494C8.71336 11.2474 8.71676 11.2463 8.71866 11.2475C8.72129 11.2492 8.72103 11.2554 8.72042 11.2702L8.71973 11.2903C8.71891 11.3242 8.74866 11.3522 8.78617 11.3529C8.82368 11.3537 8.85475 11.3268 8.85557 11.293C8.85844 11.1742 8.79183 11.1059 8.68127 11.1292C8.61602 11.1096 8.57038 11.1119 8.53478 11.1521C8.50863 11.1817 8.50513 11.2059 8.50236 11.2935C8.50739 11.4439 8.66601 11.5491 8.89635 11.5491C8.98514 11.5491 9.07311 11.5094 9.16063 11.4341C9.17407 11.4225 9.18167 11.4065 9.18167 11.3897V11.0955C9.18167 11.0756 9.17124 11.058 9.15505 11.0468L9.16178 11.0407C9.17452 11.0292 9.18167 11.0136 9.18167 10.9974V10.7031C9.18167 10.5775 9.05207 10.5437 8.78765 10.5437C8.63182 10.5437 8.52987 10.5897 8.50252 10.6985C8.4871 10.8844 8.54218 10.9953 8.67835 10.9636C8.72047 10.9757 8.75166 10.9819 8.77562 10.9819ZM10.6847 10.8661C10.6461 10.9203 10.6809 10.9819 10.7539 10.9819C10.7778 10.9819 10.809 10.9757 10.8512 10.9636C10.9873 10.9953 11.0424 10.8844 11.027 10.6985C10.9996 10.5897 10.8977 10.5437 10.7418 10.5437C10.4774 10.5437 10.3478 10.5775 10.3478 10.7031V10.9974C10.3478 11.0136 10.355 11.0292 10.3677 11.0407L10.3744 11.0468C10.3583 11.058 10.3478 11.0756 10.3478 11.0955V11.3897C10.3478 11.4065 10.3554 11.4225 10.3689 11.4341C10.4564 11.5094 10.5444 11.5491 10.6332 11.5491C10.8635 11.5491 11.0221 11.4439 11.0271 11.2935C11.0244 11.2059 11.0209 11.1817 10.9947 11.1521C10.9591 11.1119 10.9135 11.1096 10.8482 11.1292C10.7377 11.1059 10.6711 11.1742 10.6739 11.293C10.6747 11.3268 10.7058 11.3537 10.7433 11.3529C10.7808 11.3522 10.8106 11.3242 10.8098 11.2903L10.8091 11.2702C10.8085 11.2554 10.8082 11.2492 10.8108 11.2475C10.8127 11.2463 10.8161 11.2474 10.822 11.2494L10.8282 11.2515C10.8434 11.2562 10.8599 11.256 10.8749 11.2508L10.889 11.2462C10.8897 11.2568 10.8906 11.2723 10.8913 11.2935C10.8888 11.3655 10.7968 11.4265 10.6332 11.4265C10.5894 11.4265 10.5395 11.4062 10.4837 11.3626V11.1568H10.5245C10.585 11.1568 10.6153 11.0907 10.5725 11.0521L10.4837 10.972V10.7031C10.4837 10.6859 10.5589 10.6663 10.7418 10.6663C10.842 10.6663 10.885 10.6857 10.8931 10.7171C10.9016 10.8295 10.8916 10.8476 10.8739 10.8417C10.8594 10.8369 10.8434 10.8367 10.8287 10.8412C10.8124 10.8462 10.7982 10.8502 10.7865 10.8531C10.7841 10.8512 10.7814 10.8494 10.7786 10.8477C10.747 10.8294 10.705 10.8377 10.6847 10.8661ZM10.9136 11.2407L10.9107 11.2406L10.9127 11.2408L10.9136 11.2407ZM10.7539 12.9384C10.6809 12.9384 10.6461 12.8768 10.6847 12.8227C10.705 12.7942 10.747 12.7859 10.7786 12.8042C10.7814 12.8059 10.7841 12.8077 10.7865 12.8096C10.7982 12.8067 10.8124 12.8028 10.8287 12.7977C10.8434 12.7932 10.8594 12.7934 10.8739 12.7982C10.8916 12.8041 10.9016 12.786 10.8931 12.6736C10.885 12.6422 10.842 12.6228 10.7418 12.6228C10.5589 12.6228 10.4837 12.6424 10.4837 12.6596V12.9285L10.5725 13.0086C10.6153 13.0473 10.585 13.1133 10.5245 13.1133H10.4837V13.3192C10.5395 13.3627 10.5894 13.383 10.6332 13.383C10.7968 13.383 10.8888 13.3221 10.8913 13.25C10.8906 13.2289 10.8897 13.2133 10.889 13.2027L10.8749 13.2073C10.8599 13.2125 10.8434 13.2127 10.8282 13.208L10.822 13.2059L10.822 13.2059C10.8161 13.204 10.8127 13.2028 10.8108 13.204C10.8082 13.2057 10.8085 13.2119 10.8091 13.2267L10.8098 13.2468C10.8106 13.2807 10.7808 13.3087 10.7433 13.3095C10.7058 13.3102 10.6747 13.2834 10.6739 13.2495C10.6711 13.1307 10.7377 13.0625 10.8482 13.0857C10.9135 13.0661 10.9591 13.0684 10.9947 13.1086C11.0209 13.1382 11.0244 13.1625 11.0271 13.25C11.0221 13.4005 10.8635 13.5057 10.6332 13.5057C10.5444 13.5057 10.4564 13.466 10.3689 13.3906C10.3554 13.3791 10.3478 13.363 10.3478 13.3463V13.052C10.3478 13.0322 10.3583 13.0145 10.3744 13.0033L10.3677 12.9972C10.355 12.9857 10.3478 12.9702 10.3478 12.9539V12.6596C10.3478 12.534 10.4774 12.5002 10.7418 12.5002C10.8977 12.5002 10.9996 12.5462 11.027 12.655C11.0424 12.841 10.9873 12.9519 10.8512 12.9202C10.809 12.9322 10.7778 12.9384 10.7539 12.9384ZM8.77562 12.9384C8.84858 12.9384 8.88339 12.8768 8.8448 12.8227C8.82451 12.7942 8.78248 12.7859 8.75092 12.8042C8.74809 12.8059 8.74544 12.8077 8.74297 12.8096C8.73135 12.8067 8.71715 12.8028 8.70077 12.7977C8.68608 12.7932 8.67013 12.7934 8.65556 12.7982C8.63792 12.8041 8.6279 12.786 8.63641 12.6736C8.64453 12.6422 8.68751 12.6228 8.78765 12.6228C8.97063 12.6228 9.0458 12.6424 9.0458 12.6596V12.9285L8.95701 13.0086C8.91421 13.0473 8.94452 13.1133 9.00504 13.1133H9.0458V13.3192C8.98997 13.3627 8.94006 13.383 8.89635 13.383C8.73267 13.383 8.6407 13.3221 8.63816 13.25C8.63886 13.2289 8.63981 13.2133 8.64051 13.2027L8.65461 13.2073C8.66959 13.2125 8.68612 13.2127 8.70127 13.208C8.70361 13.2072 8.70568 13.2065 8.7075 13.2059C8.71336 13.204 8.71676 13.2028 8.71866 13.204C8.72129 13.2057 8.72103 13.2119 8.72042 13.2267C8.7202 13.2322 8.71993 13.2388 8.71973 13.2468C8.71891 13.2807 8.74866 13.3087 8.78617 13.3095C8.82368 13.3102 8.85475 13.2834 8.85557 13.2495C8.85844 13.1307 8.79183 13.0625 8.68127 13.0857C8.61602 13.0661 8.57038 13.0684 8.53478 13.1086C8.50863 13.1382 8.50513 13.1625 8.50236 13.25C8.50739 13.4005 8.66601 13.5057 8.89635 13.5057C8.98514 13.5057 9.07311 13.466 9.16063 13.3906C9.17407 13.3791 9.18167 13.363 9.18167 13.3463V13.052C9.18167 13.0322 9.17124 13.0145 9.15505 13.0033L9.16178 12.9972C9.17452 12.9857 9.18167 12.9702 9.18167 12.9539V12.6596C9.18167 12.534 9.05207 12.5002 8.78765 12.5002C8.63182 12.5002 8.52987 12.5462 8.50252 12.655C8.4871 12.841 8.54218 12.9519 8.67835 12.9202C8.72047 12.9322 8.75166 12.9384 8.77562 12.9384Z" fill="#F7FCFF"/>
</g>
</g>
</g>
<rect x="1.75" y="1.25" width="23.5" height="17.5" stroke="black" stroke-opacity="0.1" stroke-width="0.5" shape-rendering="crispEdges"/>
</g>
<defs>
<filter id="filter0_dd_701_20638" x="0" y="0" width="27" height="21" filterUnits="userSpaceOnUse" color-interpolation-filters="sRGB">
<feFlood flood-opacity="0" result="BackgroundImageFix"/>
<feColorMatrix in="SourceAlpha" type="matrix" values="0 0 0 0 0 0 0 0 0 0 0 0 0 0 0 0 0 0 127 0" result="hardAlpha"/>
<feOffset dy="0.5"/>
<feGaussianBlur stdDeviation="0.75"/>
<feComposite in2="hardAlpha" operator="out"/>
<feColorMatrix type="matrix" values="0 0 0 0 0 0 0 0 0 0 0 0 0 0 0 0 0 0 0.1 0"/>
<feBlend mode="multiply" in2="BackgroundImageFix" result="effect1_dropShadow_701_20638"/>
<feColorMatrix in="SourceAlpha" type="matrix" values="0 0 0 0 0 0 0 0 0 0 0 0 0 0 0 0 0 0 127 0" result="hardAlpha"/>
<feOffset/>
<feGaussianBlur stdDeviation="0.5"/>
<feComposite in2="hardAlpha" operator="out"/>
<feColorMatrix type="matrix" values="0 0 0 0 0 0 0 0 0 0 0 0 0 0 0 0 0 0 0.11 0"/>
<feBlend mode="multiply" in2="effect1_dropShadow_701_20638" result="effect2_dropShadow_701_20638"/>
<feBlend mode="normal" in="SourceGraphic" in2="effect2_dropShadow_701_20638" result="shape"/>
</filter>
<clipPath id="clip0_701_20638">
<rect x="1.5" y="1" width="24" height="18" fill="white"/>
</clipPath>
</defs>
</svg>
