<svg viewBox="0 0 27 21" fill="none" xmlns="http://www.w3.org/2000/svg">
<g filter="url(#filter0_dd_701_20432)">
<g clip-path="url(#clip0_701_20432)">
<mask id="mask0_701_20432" style="mask-type:alpha" maskUnits="userSpaceOnUse" x="1" y="1" width="25" height="18">
<rect x="1.5" y="1" width="24" height="18" fill="white"/>
</mask>
<g mask="url(#mask0_701_20432)">
<path fill-rule="evenodd" clip-rule="evenodd" d="M1.5 1V19H25.5V1H1.5Z" fill="#2E42A5"/>
<mask id="mask1_701_20432" style="mask-type:alpha" maskUnits="userSpaceOnUse" x="1" y="1" width="25" height="18">
<path fill-rule="evenodd" clip-rule="evenodd" d="M1.5 1V19H25.5V1H1.5Z" fill="white"/>
</mask>
<g mask="url(#mask1_701_20432)">
<path fill-rule="evenodd" clip-rule="evenodd" d="M1.5 1V7H25.5V1H1.5Z" fill="#F7FCFF"/>
<path fill-rule="evenodd" clip-rule="evenodd" d="M1.5 13V19H25.5V13H1.5Z" fill="#C51918"/>
<path fill-rule="evenodd" clip-rule="evenodd" d="M11.8052 4.77719C11.8052 4.77719 10.2266 4.03174 8.26328 4.03174C6.29993 4.03174 4.72137 4.77719 4.72137 4.77719C4.72137 4.77719 4.89704 7.77323 5.1747 9.36038C5.29324 10.038 5.86304 11.0264 6.3789 11.4942C6.96687 12.0275 8.26328 12.6592 8.26328 12.6592C8.63843 12.4007 9.33988 12.2844 10.2365 11.4942C11.133 10.7041 11.3559 9.36038 11.3559 9.36038L11.8052 4.77719Z" fill="#2E42A5"/>
<path d="M11.5965 4.6792L12.2539 5.00749L11.8026 9.52446C11.6445 10.4805 11.2491 11.2344 10.6166 11.7917C10.2735 12.0941 9.93861 12.32 9.57956 12.5078C9.37689 12.6137 8.52913 13.0504 8.53651 13.0469C8.45158 13.0878 8.38716 13.1237 8.33485 13.1597L8.25285 13.2162L8.16432 13.1731C7.28625 12.7452 6.46702 12.1694 6.05992 11.8002C5.50418 11.2962 4.91821 10.2649 4.79329 9.55082C4.6065 8.48308 4.439 7.0124 4.32144 5.00749L4.91199 4.69854C5.02866 6.68835 5.1695 8.27453 5.35291 9.323C5.46143 9.94331 6.00177 10.8943 6.49469 11.3413C6.85899 11.6717 7.44589 12.038 8.25285 12.4364C8.30099 12.4082 8.35433 12.3803 8.41535 12.3509C8.41707 12.3501 8.96601 12.1063 9.15678 12.0065C9.49139 11.8316 9.80242 11.6218 10.1226 11.3396C10.6841 10.8448 11.0345 10.1784 11.1762 9.33189L11.5965 4.6792Z" fill="#C51918"/>
<path fill-rule="evenodd" clip-rule="evenodd" d="M5.65656 9.26808C5.65656 9.26808 5.79964 9.70583 6.06417 10.1975C6.45263 10.2999 6.69032 10.2945 6.76545 10.2104C6.98279 9.96715 7.75607 9.8632 7.90035 10.071C7.98937 10.1992 8.30225 10.2878 8.64437 10.1706L8.60623 10.1773C8.66565 10.1557 8.80481 10.1006 8.8906 10.0666L8.89064 10.0665L8.89068 10.0665C8.92652 10.0523 8.95303 10.0418 8.9605 10.039C9.08931 9.99039 9.18395 9.96489 9.28036 9.95772C9.40121 9.94874 9.5171 9.97124 9.6399 10.0297C9.90983 10.1582 10.2429 10.2181 10.4697 10.1792C10.7469 9.69634 10.9446 9.26808 10.9446 9.26808L9.62816 8.00464L9.10492 8.57244L8.23554 7.33301L7.50769 8.57244L6.94959 8.00464L5.65656 9.26808ZM6.41763 10.7608C6.35685 10.6789 6.29942 10.5942 6.24544 10.5088C6.58238 10.5702 6.81118 10.5379 6.93846 10.3954C6.99858 10.3282 7.17696 10.2629 7.37991 10.2356C7.47453 10.2229 7.56531 10.2197 7.63491 10.2264C7.66685 10.2294 7.69259 10.2344 7.70992 10.2404C7.71553 10.2423 7.71535 10.2421 7.70953 10.2337L7.70847 10.2322C7.86365 10.4541 8.28499 10.5731 8.68252 10.4285L8.64437 10.4353C8.7519 10.4022 8.94557 10.3261 9.01516 10.2987L9.03938 10.2892C9.14975 10.2476 9.22581 10.2271 9.29676 10.2218C9.37858 10.2157 9.45578 10.2307 9.54336 10.2724C9.78239 10.3862 10.0602 10.454 10.3052 10.4557C10.2529 10.5401 10.199 10.6241 10.144 10.7057C9.95366 10.7499 9.65914 10.6918 9.42154 10.5621C9.31049 10.5014 9.20444 10.4778 9.09386 10.4872C9.00643 10.4947 8.92164 10.5209 8.8071 10.5705C8.80042 10.5733 8.7769 10.584 8.74522 10.5984C8.6703 10.6325 8.54978 10.6873 8.49847 10.7087L8.54155 10.7C8.24421 10.8147 7.98395 10.7301 7.90965 10.6074C7.77704 10.3884 7.08208 10.4955 6.88656 10.7465C6.83443 10.8134 6.67712 10.8256 6.41763 10.7608ZM6.67637 11.0675C6.69102 11.0826 6.70581 11.0974 6.72075 11.1119C7.39814 11.7724 8.23554 12.0962 8.23554 12.0962C8.23554 12.0962 9.23295 11.7944 9.79903 11.1589C9.84733 11.1047 9.89573 11.046 9.94386 10.9839C9.73743 10.9737 9.5105 10.9065 9.31351 10.7989C9.24112 10.7594 9.1788 10.7455 9.11265 10.7511C9.05416 10.7561 8.9901 10.7759 8.89608 10.8166C8.89355 10.8177 8.88741 10.8205 8.87837 10.8245C8.82081 10.8505 8.64597 10.9292 8.54155 10.9647L8.58463 10.956C8.23422 11.1021 7.86218 10.9868 7.71707 10.7679C7.70421 10.7629 7.68403 10.7584 7.65846 10.7556C7.60024 10.7493 7.52336 10.7523 7.443 10.7647C7.2708 10.7913 7.12041 10.8544 7.07068 10.9182C6.98707 11.0255 6.85595 11.0729 6.67637 11.0675Z" fill="white"/>
<path fill-rule="evenodd" clip-rule="evenodd" d="M6.8601 5.41471H6.33276L6.74177 5.03155L6.33276 4.62666H6.8601L7.08276 4.23364L7.30632 4.62666H7.83276L7.44421 5.00724L7.78922 5.41471H7.30632L7.08276 5.82946L6.8601 5.41471Z" fill="#FECA00"/>
<path fill-rule="evenodd" clip-rule="evenodd" d="M9.34543 5.41471H8.81808L9.22709 5.03155L8.81808 4.62666H9.34543L9.56808 4.23364L9.79164 4.62666H10.3181L9.92953 5.00724L10.2745 5.41471H9.79164L9.56808 5.82946L9.34543 5.41471Z" fill="#FECA00"/>
<path fill-rule="evenodd" clip-rule="evenodd" d="M7.94995 6.6757H7.42261L7.83161 6.29254L7.42261 5.88765H7.94995L8.17261 5.49463L8.39616 5.88765H8.92261L8.53405 6.26822L8.87907 6.6757H8.39616L8.17261 7.09045L7.94995 6.6757Z" fill="#FECA00"/>
</g>
</g>
</g>
<rect x="1.75" y="1.25" width="23.5" height="17.5" stroke="black" stroke-opacity="0.1" stroke-width="0.5" shape-rendering="crispEdges"/>
</g>
<defs>
<filter id="filter0_dd_701_20432" x="0" y="0" width="27" height="21" filterUnits="userSpaceOnUse" color-interpolation-filters="sRGB">
<feFlood flood-opacity="0" result="BackgroundImageFix"/>
<feColorMatrix in="SourceAlpha" type="matrix" values="0 0 0 0 0 0 0 0 0 0 0 0 0 0 0 0 0 0 127 0" result="hardAlpha"/>
<feOffset dy="0.5"/>
<feGaussianBlur stdDeviation="0.75"/>
<feComposite in2="hardAlpha" operator="out"/>
<feColorMatrix type="matrix" values="0 0 0 0 0 0 0 0 0 0 0 0 0 0 0 0 0 0 0.1 0"/>
<feBlend mode="multiply" in2="BackgroundImageFix" result="effect1_dropShadow_701_20432"/>
<feColorMatrix in="SourceAlpha" type="matrix" values="0 0 0 0 0 0 0 0 0 0 0 0 0 0 0 0 0 0 127 0" result="hardAlpha"/>
<feOffset/>
<feGaussianBlur stdDeviation="0.5"/>
<feComposite in2="hardAlpha" operator="out"/>
<feColorMatrix type="matrix" values="0 0 0 0 0 0 0 0 0 0 0 0 0 0 0 0 0 0 0.11 0"/>
<feBlend mode="multiply" in2="effect1_dropShadow_701_20432" result="effect2_dropShadow_701_20432"/>
<feBlend mode="normal" in="SourceGraphic" in2="effect2_dropShadow_701_20432" result="shape"/>
</filter>
<clipPath id="clip0_701_20432">
<rect x="1.5" y="1" width="24" height="18" fill="white"/>
</clipPath>
</defs>
</svg>