<svg viewBox="0 0 27 21" fill="none" xmlns="http://www.w3.org/2000/svg">
<g filter="url(#filter0_dd_701_21213)">
<g clip-path="url(#clip0_701_21213)">
<mask id="mask0_701_21213" style="mask-type:alpha" maskUnits="userSpaceOnUse" x="1" y="1" width="25" height="18">
<rect x="1.5" y="1" width="24" height="18" fill="white"/>
</mask>
<g mask="url(#mask0_701_21213)">
<path fill-rule="evenodd" clip-rule="evenodd" d="M1.5 1V19H25.5V1H1.5Z" fill="#F7FCFF"/>
<mask id="mask1_701_21213" style="mask-type:alpha" maskUnits="userSpaceOnUse" x="1" y="1" width="25" height="18">
<path fill-rule="evenodd" clip-rule="evenodd" d="M1.5 1V19H25.5V1H1.5Z" fill="white"/>
</mask>
<g mask="url(#mask1_701_21213)">
<path fill-rule="evenodd" clip-rule="evenodd" d="M1.5 1V5.5H25.5V1H1.5Z" fill="#BF2714"/>
<path fill-rule="evenodd" clip-rule="evenodd" d="M1.5 14.5V19H25.5V14.5H1.5Z" fill="#BF2714"/>
<mask id="mask2_701_21213" style="mask-type:alpha" maskUnits="userSpaceOnUse" x="9" y="5" width="9" height="10">
<path fill-rule="evenodd" clip-rule="evenodd" d="M13.5 14.5C15.9853 14.5 18 12.4853 18 10C18 7.51472 15.9853 5.5 13.5 5.5C11.0147 5.5 9 7.51472 9 10C9 12.4853 11.0147 14.5 13.5 14.5Z" fill="white"/>
</mask>
<g mask="url(#mask2_701_21213)">
<path fill-rule="evenodd" clip-rule="evenodd" d="M9.45026 11.4451C9.39552 11.2736 9.58072 11.1247 9.7364 11.2151L9.88409 11.3008C9.93983 11.3331 10.0079 11.3361 10.0662 11.3088L10.7086 11.008C10.7733 10.9778 10.8493 10.9849 10.9072 11.0267L11.6311 11.5491L12.6431 11.0042C12.6962 10.9757 12.7595 10.973 12.8148 10.997L13.5503 11.3166C13.6028 11.3393 13.6625 11.3382 13.714 11.3134L14.3723 10.9965C14.422 10.9726 14.4794 10.9706 14.5306 10.9911L15.3537 11.3199C15.4056 11.3406 15.4638 11.3383 15.5139 11.3135L16.1407 11.0034C16.1971 10.9755 16.2635 10.9763 16.3192 11.0054L16.8869 11.3027C16.9461 11.3337 17.0169 11.3325 17.0751 11.2996L17.269 11.1897C17.4207 11.1038 17.6009 11.243 17.5561 11.4114L17.5195 11.5491H9.48349L9.45026 11.4451Z" fill="#5277B9"/>
<path fill-rule="evenodd" clip-rule="evenodd" d="M9.44651 12.3359C9.39337 12.1634 9.58122 12.0163 9.73591 12.1094L9.85784 12.1827C9.91483 12.217 9.98529 12.2202 10.0451 12.1911L10.6521 11.8965C10.7183 11.8644 10.7969 11.8719 10.8558 11.916L11.5488 12.4344L12.52 11.8925C12.5743 11.8621 12.6398 11.8593 12.6966 11.8849L13.3951 12.1994C13.4489 12.2236 13.5108 12.2224 13.5637 12.196L14.1885 11.8843C14.2395 11.8588 14.299 11.8567 14.3516 11.8785L15.135 12.2029C15.1883 12.225 15.2486 12.2225 15.3 12.1962L15.8939 11.8916C15.9518 11.862 16.0205 11.8628 16.0776 11.8938L16.6136 12.1847C16.6741 12.2176 16.7475 12.2163 16.807 12.1814L16.9737 12.0835C17.1246 11.995 17.3073 12.1326 17.2639 12.302L17.23 12.4344H9.47685L9.44651 12.3359Z" fill="#5277B9"/>
<path fill-rule="evenodd" clip-rule="evenodd" d="M9.59404 12.926C9.5409 12.7534 9.72875 12.6064 9.88344 12.6995L10.0054 12.7728C10.0624 12.8071 10.1328 12.8103 10.1927 12.7812L10.7997 12.4866C10.8659 12.4545 10.9445 12.462 11.0034 12.5061L11.6964 13.0245L12.6675 12.4825C12.7219 12.4522 12.7874 12.4494 12.8441 12.475L13.5426 12.7895C13.5965 12.8137 13.6584 12.8125 13.7112 12.7861L14.336 12.4744C14.387 12.4489 14.4465 12.4468 14.4991 12.4686L15.2825 12.793C15.3358 12.815 15.3962 12.8126 15.4475 12.7863L16.0415 12.4817C16.0993 12.4521 16.168 12.4529 16.2251 12.4838L16.7611 12.7748C16.8217 12.8077 16.8951 12.8064 16.9545 12.7715L17.1213 12.6736C17.2721 12.585 17.4549 12.7227 17.4114 12.8921L17.3775 13.0245H9.62439L9.59404 12.926Z" fill="#5277B9"/>
<path fill-rule="evenodd" clip-rule="evenodd" d="M10.4793 13.5163C10.4262 13.3438 10.614 13.1968 10.7687 13.2898L10.8906 13.3631C10.9476 13.3974 11.0181 13.4006 11.0779 13.3715L11.6849 13.077C11.7511 13.0448 11.8297 13.0523 11.8886 13.0964L12.5816 13.6148L13.5528 13.0729C13.6071 13.0425 13.6726 13.0397 13.7294 13.0653L14.4279 13.3798C14.4817 13.404 14.5436 13.4028 14.5965 13.3764L15.2213 13.0647C15.2723 13.0393 15.3317 13.0372 15.3844 13.059L16.1678 13.3833C16.2211 13.4054 16.2814 13.4029 16.3328 13.3766L16.9267 13.072C16.9845 13.0424 17.0533 13.0432 17.1103 13.0742L17.6463 13.3651C17.7069 13.398 17.7803 13.3968 17.8398 13.3618L18.0065 13.264C18.1574 13.1754 18.3401 13.313 18.2967 13.4825L18.2627 13.6148H10.5096L10.4793 13.5163Z" fill="#5277B9"/>
<path fill-rule="evenodd" clip-rule="evenodd" d="M9.29897 14.2538C9.24583 14.0813 9.43368 13.9343 9.58837 14.0274L9.7103 14.1007C9.7673 14.135 9.83775 14.1381 9.89759 14.1091L10.5046 13.8145C10.5708 13.7824 10.6494 13.7899 10.7083 13.834L11.4013 14.3524L12.3724 13.8104C12.4268 13.7801 12.4923 13.7773 12.5491 13.8028L13.2476 14.1173C13.3014 14.1416 13.3633 14.1404 13.4161 14.114L14.041 13.8022C14.0919 13.7768 14.1514 13.7747 14.204 13.7965L14.9874 14.1208C15.0408 14.1429 15.1011 14.1405 15.1525 14.1141L15.7464 13.8096C15.8042 13.7799 15.8729 13.7807 15.93 13.8117L16.466 14.1027C16.5266 14.1355 16.6 14.1343 16.6595 14.0994L16.8262 14.0015C16.977 13.9129 17.1598 14.0506 17.1164 14.22L17.0824 14.3524H9.32932L9.29897 14.2538Z" fill="#5277B9"/>
<path d="M12.3169 11.6033V12.3533C11.6836 12.3533 11.2356 11.9644 11.0178 11.274L11.0004 11.1611V8.08423H11.7504V11.1009C11.8753 11.4611 12.0511 11.6033 12.3169 11.6033Z" fill="#FF0000"/>
<path d="M14.3938 11.6033V12.3533C15.0271 12.3533 15.4751 11.9644 15.693 11.274L15.7103 11.1611V8.08423H14.9603V11.1009C14.8354 11.4611 14.6596 11.6033 14.3938 11.6033Z" fill="#FF0000"/>
<path fill-rule="evenodd" clip-rule="evenodd" d="M14.0435 6.18137C14.0435 6.18137 12.7994 5.85604 12.7994 6.68099C12.7994 7.50595 12.7994 9.27761 12.7994 9.27761L14.2498 9.70836V7.586C14.2498 7.586 13.5246 7.14286 13.5246 6.79631C13.5246 6.44976 14.0435 6.18137 14.0435 6.18137Z" fill="#FF0000"/>
<path d="M11.9502 10.6679L12.4233 10.0635" stroke="black"/>
<path d="M12.3816 10.6481L11.9284 10.04" stroke="black"/>
<path d="M12.6289 10.6679L13.102 10.0635" stroke="black"/>
<path d="M13.0603 10.6481L12.6071 10.04" stroke="black"/>
<path d="M13.2781 10.6679L13.7511 10.0635" stroke="black"/>
<path d="M13.7095 10.6481L13.2562 10.04" stroke="black"/>
<path d="M13.9568 10.6679L14.4298 10.0635" stroke="black"/>
<path d="M14.3882 10.6481L13.9349 10.04" stroke="black"/>
<path d="M14.6355 10.6679L15.1085 10.0635" stroke="black"/>
<path d="M15.0668 10.6481L14.6136 10.04" stroke="black"/>
<path fill-rule="evenodd" clip-rule="evenodd" d="M11.5908 6.32103L12.4884 8.07473L12.599 6.32103L12.4884 5.97559L11.5908 6.32103ZM11.1411 7.81758L10.4944 7.13186L11.1411 6.3612L12.5004 8.53421V9.08654L11.8468 8.53421V7.81758H11.1411ZM9.71732 8.34588L10.8969 8.9106L10.9891 8.03812L10.007 7.19895L9.71732 8.34588ZM10.9565 9.79413L9.40478 9.6354V8.54108L10.9565 9.13793V9.79413ZM9.36274 10.8691L9.17859 9.93855L10.9276 10.0258V10.8691H9.36274ZM11.8254 9.34013V8.81492L12.4795 9.34013L12.4085 9.61745L11.8254 9.34013ZM17.9104 9.93855L17.7263 10.8691H16.1614V10.0258L17.9104 9.93855ZM16.1326 9.79413L17.6842 9.6354V8.54108L16.1326 9.13793V9.79413ZM17.3717 8.34588L16.1921 8.9106L16.0999 8.03812L17.082 7.19895L17.3717 8.34588ZM15.9479 7.81758L16.5946 7.13186L15.9479 6.3612L14.5886 8.53421V9.08654L15.2422 8.53421V7.81758H15.9479ZM15.4982 6.32103L14.6006 8.07473L14.4901 6.32103L14.6006 5.97559L15.4982 6.32103ZM15.2636 9.34013V8.81492L14.6095 9.34013L14.6805 9.61745L15.2636 9.34013Z" fill="#FA8F21"/>
</g>
</g>
</g>
</g>
<rect x="1.75" y="1.25" width="23.5" height="17.5" stroke="black" stroke-opacity="0.1" stroke-width="0.5" shape-rendering="crispEdges"/>
</g>
<defs>
<filter id="filter0_dd_701_21213" x="0" y="0" width="27" height="21" filterUnits="userSpaceOnUse" color-interpolation-filters="sRGB">
<feFlood flood-opacity="0" result="BackgroundImageFix"/>
<feColorMatrix in="SourceAlpha" type="matrix" values="0 0 0 0 0 0 0 0 0 0 0 0 0 0 0 0 0 0 127 0" result="hardAlpha"/>
<feOffset dy="0.5"/>
<feGaussianBlur stdDeviation="0.75"/>
<feComposite in2="hardAlpha" operator="out"/>
<feColorMatrix type="matrix" values="0 0 0 0 0 0 0 0 0 0 0 0 0 0 0 0 0 0 0.1 0"/>
<feBlend mode="multiply" in2="BackgroundImageFix" result="effect1_dropShadow_701_21213"/>
<feColorMatrix in="SourceAlpha" type="matrix" values="0 0 0 0 0 0 0 0 0 0 0 0 0 0 0 0 0 0 127 0" result="hardAlpha"/>
<feOffset/>
<feGaussianBlur stdDeviation="0.5"/>
<feComposite in2="hardAlpha" operator="out"/>
<feColorMatrix type="matrix" values="0 0 0 0 0 0 0 0 0 0 0 0 0 0 0 0 0 0 0.11 0"/>
<feBlend mode="multiply" in2="effect1_dropShadow_701_21213" result="effect2_dropShadow_701_21213"/>
<feBlend mode="normal" in="SourceGraphic" in2="effect2_dropShadow_701_21213" result="shape"/>
</filter>
<clipPath id="clip0_701_21213">
<rect x="1.5" y="1" width="24" height="18" fill="white"/>
</clipPath>
</defs>
</svg>