<svg viewBox="0 0 27 21" fill="none" xmlns="http://www.w3.org/2000/svg">
<g filter="url(#filter0_dd_701_24314)">
<g clip-path="url(#clip0_701_24314)">
<mask id="mask0_701_24314" style="mask-type:alpha" maskUnits="userSpaceOnUse" x="1" y="1" width="25" height="18">
<rect x="1.5" y="1" width="24" height="18" fill="white"/>
</mask>
<g mask="url(#mask0_701_24314)">
<path fill-rule="evenodd" clip-rule="evenodd" d="M1.5 1H25.5V5.5H1.5V1Z" fill="#3D58DB"/>
<path fill-rule="evenodd" clip-rule="evenodd" d="M1.5 5.5H25.5V10H1.5V5.5Z" fill="#F7FCFF"/>
<path fill-rule="evenodd" clip-rule="evenodd" d="M1.5 10H25.5V14.5H1.5V10Z" fill="#73BE4A"/>
<path fill-rule="evenodd" clip-rule="evenodd" d="M1.5 14.5H25.5V19H1.5V14.5Z" fill="#FFD018"/>
<path fill-rule="evenodd" clip-rule="evenodd" d="M4.89708 5.06205L3.07868 6.32333L3.65973 4.16305L2.32483 2.78307L4.13235 2.70845L4.89708 0.572266L5.66181 2.70845H7.46626L6.13444 4.16305L6.80144 6.19582L4.89708 5.06205Z" fill="#FECA00"/>
<path fill-rule="evenodd" clip-rule="evenodd" d="M10.5 1H16.5V19H10.5V1Z" fill="#E11C1B"/>
</g>
</g>
<rect x="1.75" y="1.25" width="23.5" height="17.5" stroke="black" stroke-opacity="0.1" stroke-width="0.5" shape-rendering="crispEdges"/>
</g>
<defs>
<filter id="filter0_dd_701_24314" x="0" y="0" width="27" height="21" filterUnits="userSpaceOnUse" color-interpolation-filters="sRGB">
<feFlood flood-opacity="0" result="BackgroundImageFix"/>
<feColorMatrix in="SourceAlpha" type="matrix" values="0 0 0 0 0 0 0 0 0 0 0 0 0 0 0 0 0 0 127 0" result="hardAlpha"/>
<feOffset dy="0.5"/>
<feGaussianBlur stdDeviation="0.75"/>
<feComposite in2="hardAlpha" operator="out"/>
<feColorMatrix type="matrix" values="0 0 0 0 0 0 0 0 0 0 0 0 0 0 0 0 0 0 0.1 0"/>
<feBlend mode="multiply" in2="BackgroundImageFix" result="effect1_dropShadow_701_24314"/>
<feColorMatrix in="SourceAlpha" type="matrix" values="0 0 0 0 0 0 0 0 0 0 0 0 0 0 0 0 0 0 127 0" result="hardAlpha"/>
<feOffset/>
<feGaussianBlur stdDeviation="0.5"/>
<feComposite in2="hardAlpha" operator="out"/>
<feColorMatrix type="matrix" values="0 0 0 0 0 0 0 0 0 0 0 0 0 0 0 0 0 0 0.11 0"/>
<feBlend mode="multiply" in2="effect1_dropShadow_701_24314" result="effect2_dropShadow_701_24314"/>
<feBlend mode="normal" in="SourceGraphic" in2="effect2_dropShadow_701_24314" result="shape"/>
</filter>
<clipPath id="clip0_701_24314">
<rect x="1.5" y="1" width="24" height="18" fill="white"/>
</clipPath>
</defs>
</svg>