<svg viewBox="0 0 27 21" fill="none" xmlns="http://www.w3.org/2000/svg">
<g filter="url(#filter0_dd_701_22649)">
<g clip-path="url(#clip0_701_22649)">
<mask id="mask0_701_22649" style="mask-type:alpha" maskUnits="userSpaceOnUse" x="1" y="1" width="25" height="18">
<rect x="1.5" y="1" width="24" height="18" fill="white"/>
</mask>
<g mask="url(#mask0_701_22649)">
<path fill-rule="evenodd" clip-rule="evenodd" d="M1.5 1V19H25.5V1H1.5Z" fill="#F7FCFF"/>
<mask id="mask1_701_22649" style="mask-type:alpha" maskUnits="userSpaceOnUse" x="1" y="1" width="25" height="18">
<path fill-rule="evenodd" clip-rule="evenodd" d="M1.5 1V19H25.5V1H1.5Z" fill="white"/>
</mask>
<g mask="url(#mask1_701_22649)">
<path fill-rule="evenodd" clip-rule="evenodd" d="M1.5 1V7H25.5V1H1.5Z" fill="#5EAA22"/>
<path fill-rule="evenodd" clip-rule="evenodd" d="M1.5 13V19H25.5V13H1.5Z" fill="#E31D1C"/>
<path fill-rule="evenodd" clip-rule="evenodd" d="M4.95051 13.2939V13.7694H3.20244V13.2939H4.95051ZM1.92428 14.4881H1.76905V14.2982H2.11007V14.9635H2.54469V14.9686H2.96577V13.5874H2.69672V14.4932H2.65518V13.5154H2.38614V14.4881H2.37911V14.2982V13.5154H2.11007V13.8228H1.5V14.9635H1.63452H1.92428V14.4881ZM3.04989 14.7546H3.31894V14.2833H3.61894V14.9685H4.463V13.8086H4.03015V14.284H4.19395V14.4931H3.88799V13.8079H3.04989V14.7546ZM4.76887 14.4881H4.9241V14.9635H4.63434H4.49982V13.8228H5.10989V13.5154H5.37893V14.2982V14.4881H5.38596V13.5154H5.655V14.4932H5.69655V13.5874H5.96559V14.9686H5.54451V14.9635H5.10989V14.2982H4.76887V14.4881ZM7.95033 13.2939V13.7694H6.20226V13.2939H7.95033ZM6.04972 14.7546H6.31876V14.2833H6.61876V14.9685H7.46282V13.8086H7.02997V14.284H7.19377V14.4931H6.88781V13.8079H6.04972V14.7546ZM7.82225 14.4881H7.97748V14.9635H7.68773H7.55321V13.8228H8.16327V13.5154H8.43232V14.2982V14.4881H8.43934V13.5154H8.70839V14.4932H8.74993V13.5874H9.01898V14.9686H8.5979V14.9635H8.16327V14.2982H7.82225V14.4881ZM11.0037 13.2939V13.7694H9.25564V13.2939H11.0037ZM9.1031 14.7546H9.37215V14.2833H9.67215V14.9685H10.5162V13.8086H10.0834V14.284H10.2472V14.4931H9.9412V13.8079H9.1031V14.7546ZM10.8221 14.4881H10.9773V14.9635H10.6876H10.553V13.8228H11.1631V13.5154H11.4321V14.2982V14.4881H11.4392V13.5154H11.7082V14.4932H11.7498V13.5874H12.0188V14.9686H11.5977V14.9635H11.1631V14.2982H10.8221V14.4881ZM14.0035 13.2939V13.7694H12.2555V13.2939H14.0035ZM12.1029 14.7546H12.372V14.2833H12.672V14.9685H13.516V13.8086H13.0832V14.284H13.247V14.4931H12.941V13.8079H12.1029V14.7546ZM13.8219 14.4881H13.9771V14.9635H13.6874H13.5528V13.8228H14.1629V13.5154H14.432V14.2982V14.4881H14.439V13.5154H14.708V14.4932H14.7496V13.5874H15.0186V14.9686H14.5975V14.9635H14.1629V14.2982H13.8219V14.4881ZM17.0034 13.2939V13.7694H15.2553V13.2939H17.0034ZM15.1027 14.7546H15.3718V14.2833H15.6718V14.9685H16.5158V13.8086H16.083V14.284H16.2468V14.4931H15.9408V13.8079H15.1027V14.7546ZM16.8753 14.4881H17.0305V14.9635H16.7408H16.6062V13.8228H17.2163V13.5154H17.4854V14.2982V14.4881H17.4924V13.5154H17.7614V14.4932H17.803V13.5874H18.072V14.9686H17.6509V14.9635H17.2163V14.2982H16.8753V14.4881ZM20.0567 13.2939V13.7694H18.3087V13.2939H20.0567ZM18.1561 14.7546H18.4252V14.2833H18.7252V14.9685H19.5692V13.8086H19.1364V14.284H19.3002V14.4931H18.9942V13.8079H18.1561V14.7546ZM19.9287 14.4881H20.0839V14.9635H19.7941H19.6596V13.8228H20.2697V13.5154H20.5387V14.2982V14.4881H20.5458V13.5154H20.8148V14.4932H20.8564V13.5874H21.1254V14.9686H20.7043V14.9635H20.2697V14.2982H19.9287V14.4881ZM23.1101 13.2939V13.7694H21.3621V13.2939H23.1101ZM21.2095 14.7546H21.4786V14.2833H21.7786V14.9685H22.6226V13.8086H22.1898V14.284H22.3536V14.4931H22.0476V13.8079H21.2095V14.7546ZM22.9821 14.4881H23.1373V14.9635H22.8475H22.713V13.8228H23.3231V13.5154H23.5921V14.2982V14.4881H23.5991V13.5154H23.8682V14.4932H23.9097V13.5874H24.1788V14.9686H23.7577V14.9635H23.3231V14.2982H22.9821V14.4881ZM26.1635 13.2939V13.7694H24.4155V13.2939H26.1635ZM24.2629 14.7546H24.532V14.2833H24.832V14.9685H25.676V13.8086H25.2432V14.284H25.407V14.4931H25.101V13.8079H24.2629V14.7546ZM25.9819 14.4881H26.1371V14.9635H25.8474H25.7128V13.8228H26.3229V13.5154H26.5919V14.2982V14.4881H26.599V13.5154H26.868V14.4932H26.9096V13.5874H27.1786V14.9686H26.7575V14.9635H26.3229V14.2982H25.9819V14.4881ZM29.1633 13.2939V13.7694H27.4153V13.2939H29.1633ZM27.2627 14.7546H27.5318V14.2833H27.8318V14.9685H28.6758V13.8086H28.243V14.284H28.4068V14.4931H28.1008V13.8079H27.2627V14.7546ZM29.1424 14.4881H29.2976V14.9635H29.0079H28.8734V13.8228H29.4834V13.5154H29.7525V14.2982V14.4881H29.7595V13.5154H30.0285V14.4932H30.0701V13.5874H30.3391V14.9686H29.918V14.9635H29.4834V14.2982H29.1424V14.4881ZM32.3239 13.2939V13.7694H30.5758V13.2939H32.3239ZM30.4233 14.7546H30.6923V14.2833H30.9923V14.9685H31.8364V13.8086H31.4035V14.284H31.5673V14.4931H31.2613V13.8079H30.4233V14.7546Z" fill="#F7FCFF"/>
<path fill-rule="evenodd" clip-rule="evenodd" d="M1.86344 5.04395V5.51936H0.115369V5.04395H1.86344ZM-1.16279 6.23812H-1.31802V6.04819H-0.977V6.71353H-0.542378V6.71863H-0.121295V5.33744H-0.390341V6.24322H-0.431885V5.26544H-0.700931V6.23812H-0.707954V6.04819V5.26544H-0.977V5.57278H-1.58707V6.71353H-1.45254H-1.16279V6.23812ZM-0.0371718 6.50461H0.231875V6.03327H0.531874V6.71851H1.37593V5.55862H0.943085V6.03403H1.10689V6.2431H0.80092V5.55786H-0.0371718V6.50461ZM1.6818 6.23812H1.83703V6.71353H1.54728H1.41275V5.57278H2.02282V5.26544H2.29187V6.04819V6.23812H2.29889V5.26544H2.56794V6.24322H2.60948V5.33744H2.87852V6.71863H2.45744V6.71353H2.02282V6.04819H1.6818V6.23812ZM4.86326 5.04395V5.51936H3.11519V5.04395H4.86326ZM2.96265 6.50461H3.23169V6.03327H3.53169V6.71851H4.37575V5.55862H3.9429V6.03403H4.10671V6.2431H3.80074V5.55786H2.96265V6.50461ZM4.73519 6.23812H4.89042V6.71353H4.60067H4.46614V5.57278H5.07621V5.26544H5.34525V6.04819V6.23812H5.35228V5.26544H5.62132V6.24322H5.66287V5.33744H5.93191V6.71863H5.51083V6.71353H5.07621V6.04819H4.73519V6.23812ZM7.91665 5.04395V5.51936H6.16858V5.04395H7.91665ZM6.01604 6.50461H6.28508V6.03327H6.58508V6.71851H7.42914V5.55862H6.99629V6.03403H7.1601V6.2431H6.85413V5.55786H6.01604V6.50461ZM7.73501 6.23812H7.89024V6.71353H7.60049H7.46596V5.57278H8.07603V5.26544H8.34508V6.04819V6.23812H8.3521V5.26544H8.62114V6.24322H8.66269V5.33744H8.93173V6.71863H8.51065V6.71353H8.07603V6.04819H7.73501V6.23812ZM10.9165 5.04395V5.51936H9.1684V5.04395H10.9165ZM9.01586 6.50461H9.2849V6.03327H9.5849V6.71851H10.429V5.55862H9.99611V6.03403H10.1599V6.2431H9.85395V5.55786H9.01586V6.50461ZM10.7348 6.23812H10.8901V6.71353H10.6003H10.4658V5.57278H11.0758V5.26544H11.3449V6.04819V6.23812H11.3519V5.26544H11.621V6.24322H11.6625V5.33744H11.9316V6.71863H11.5105V6.71353H11.0758V6.04819H10.7348V6.23812ZM13.9163 5.04395V5.51936H12.1682V5.04395H13.9163ZM12.0157 6.50461H12.2847V6.03327H12.5847V6.71851H13.4288V5.55862H12.9959V6.03403H13.1597V6.2431H12.8538V5.55786H12.0157V6.50461ZM13.7882 6.23812H13.9434V6.71353H13.6537H13.5192V5.57278H14.1292V5.26544H14.3983V6.04819V6.23812H14.4053V5.26544H14.6744V6.24322H14.7159V5.33744H14.9849V6.71863H14.5639V6.71353H14.1292V6.04819H13.7882V6.23812ZM16.9697 5.04395V5.51936H15.2216V5.04395H16.9697ZM15.0691 6.50461H15.3381V6.03327H15.6381V6.71851H16.4822V5.55862H16.0493V6.03403H16.2131V6.2431H15.9072V5.55786H15.0691V6.50461ZM16.8416 6.23812H16.9968V6.71353H16.7071H16.5726V5.57278H17.1826V5.26544H17.4517V6.04819V6.23812H17.4587V5.26544H17.7277V6.24322H17.7693V5.33744H18.0383V6.71863H17.6172V6.71353H17.1826V6.04819H16.8416V6.23812ZM20.0231 5.04395V5.51936H18.275V5.04395H20.0231ZM18.1225 6.50461H18.3915V6.03327H18.6915V6.71851H19.5356V5.55862H19.1027V6.03403H19.2665V6.2431H18.9605V5.55786H18.1225V6.50461ZM19.895 6.23812H20.0502V6.71353H19.7605H19.6259V5.57278H20.236V5.26544H20.5051V6.04819V6.23812H20.5121V5.26544H20.7811V6.24322H20.8227V5.33744H21.0917V6.71863H20.6706V6.71353H20.236V6.04819H19.895V6.23812ZM23.0765 5.04395V5.51936H21.3284V5.04395H23.0765ZM21.1758 6.50461H21.4449V6.03327H21.7449V6.71851H22.5889V5.55862H22.1561V6.03403H22.3199V6.2431H22.0139V5.55786H21.1758V6.50461ZM22.8948 6.23812H23.05V6.71353H22.7603H22.6258V5.57278H23.2358V5.26544H23.5049V6.04819V6.23812H23.5119V5.26544H23.781V6.24322H23.8225V5.33744H24.0915V6.71863H23.6705V6.71353H23.2358V6.04819H22.8948V6.23812ZM26.0763 5.04395V5.51936H24.3282V5.04395H26.0763ZM24.1757 6.50461H24.4447V6.03327H24.7447V6.71851H25.5888V5.55862H25.1559V6.03403H25.3197V6.2431H25.0138V5.55786H24.1757V6.50461ZM26.0553 6.23812H26.2106V6.71353H25.9208H25.7863V5.57278H26.3964V5.26544H26.6654V6.04819V6.23812H26.6724V5.26544H26.9415V6.24322H26.983V5.33744H27.2521V6.71863H26.831V6.71353H26.3964V6.04819H26.0553V6.23812ZM29.2368 5.04395V5.51936H27.4887V5.04395H29.2368ZM27.3362 6.50461H27.6052V6.03327H27.9052V6.71851H28.7493V5.55862H28.3164V6.03403H28.4802V6.2431H28.1743V5.55786H27.3362V6.50461Z" fill="#F7FCFF"/>
<path fill-rule="evenodd" clip-rule="evenodd" d="M12.4547 7.1875C12.4547 7.1875 12.7752 7.35625 13.1032 7.35625C13.4313 7.35625 13.7613 7.1875 13.7613 7.1875V7.4125C13.7613 7.4125 13.401 7.58125 13.0819 7.58125C12.7628 7.58125 12.4547 7.4125 12.4547 7.4125V7.1875ZM10.0923 9.84295C10.0923 8.50945 11.9238 7.6375 11.9238 7.6375C11.9238 7.6375 10.8652 8.20465 10.8652 9.78707C10.8652 11.3695 11.4147 12.0547 11.4147 12.0547C11.4147 12.0547 10.0923 11.1765 10.0923 9.84295ZM16.2705 9.76936C16.2705 8.43586 14.4408 7.6375 14.4408 7.6375C14.4408 7.6375 15.4993 8.20465 15.4993 9.78707C15.4993 11.3695 14.9498 12.0547 14.9498 12.0547C14.9498 12.0547 16.2705 11.1029 16.2705 9.76936ZM11.3426 10.1332C11.2728 8.80152 12.3806 7.60789 12.3806 7.60789C12.3806 7.60789 11.9774 8.15638 12.0602 9.73663C12.0887 10.2792 12.3024 11.0865 12.5716 11.5624V7.69375H13.6966V11.5959C13.9663 11.1514 14.174 10.3934 14.2029 9.84295C14.2857 8.26271 13.9018 7.60789 13.9018 7.60789C13.9018 7.60789 15.0096 8.80152 14.9398 10.1332C14.8983 10.9263 14.288 11.7651 13.8012 12.3138C14.0377 12.3665 14.3548 12.4308 14.7906 12.5169C14.7999 12.5651 14.7028 12.5629 14.5098 12.5584C14.2967 12.5535 13.9668 12.546 13.5342 12.6006C13.3353 12.8045 13.1969 12.9253 13.1969 12.9253C13.1969 12.9253 13.175 12.8957 13.1412 12.8548C13.1074 12.8957 13.0855 12.9253 13.0855 12.9253C13.0855 12.9253 12.9471 12.8045 12.7482 12.6006C12.3156 12.546 11.9857 12.5535 11.7726 12.5584C11.5796 12.5629 11.4825 12.5651 11.4918 12.5169C11.9277 12.4308 12.2447 12.3665 12.4813 12.3138C11.9945 11.7651 11.3842 10.9263 11.3426 10.1332Z" fill="#E31D1C"/>
</g>
</g>
</g>
<rect x="1.75" y="1.25" width="23.5" height="17.5" stroke="black" stroke-opacity="0.1" stroke-width="0.5" shape-rendering="crispEdges"/>
</g>
<defs>
<filter id="filter0_dd_701_22649" x="0" y="0" width="27" height="21" filterUnits="userSpaceOnUse" color-interpolation-filters="sRGB">
<feFlood flood-opacity="0" result="BackgroundImageFix"/>
<feColorMatrix in="SourceAlpha" type="matrix" values="0 0 0 0 0 0 0 0 0 0 0 0 0 0 0 0 0 0 127 0" result="hardAlpha"/>
<feOffset dy="0.5"/>
<feGaussianBlur stdDeviation="0.75"/>
<feComposite in2="hardAlpha" operator="out"/>
<feColorMatrix type="matrix" values="0 0 0 0 0 0 0 0 0 0 0 0 0 0 0 0 0 0 0.1 0"/>
<feBlend mode="multiply" in2="BackgroundImageFix" result="effect1_dropShadow_701_22649"/>
<feColorMatrix in="SourceAlpha" type="matrix" values="0 0 0 0 0 0 0 0 0 0 0 0 0 0 0 0 0 0 127 0" result="hardAlpha"/>
<feOffset/>
<feGaussianBlur stdDeviation="0.5"/>
<feComposite in2="hardAlpha" operator="out"/>
<feColorMatrix type="matrix" values="0 0 0 0 0 0 0 0 0 0 0 0 0 0 0 0 0 0 0.11 0"/>
<feBlend mode="multiply" in2="effect1_dropShadow_701_22649" result="effect2_dropShadow_701_22649"/>
<feBlend mode="normal" in="SourceGraphic" in2="effect2_dropShadow_701_22649" result="shape"/>
</filter>
<clipPath id="clip0_701_22649">
<rect x="1.5" y="1" width="24" height="18" fill="white"/>
</clipPath>
</defs>
</svg>