<svg width="27" height="21" viewBox="0 0 27 21" fill="none" xmlns="http://www.w3.org/2000/svg">
<g filter="url(#filter0_dd_701_25051)">
<g clip-path="url(#clip0_701_25051)">
<mask id="mask0_701_25051" style="mask-type:alpha" maskUnits="userSpaceOnUse" x="1" y="1" width="25" height="18">
<rect x="1.5" y="1" width="24" height="18" fill="white"/>
</mask>
<g mask="url(#mask0_701_25051)">
<path fill-rule="evenodd" clip-rule="evenodd" d="M1.5 1H25.5V19H1.5V1Z" fill="#F7FCFF"/>
<path d="M1.5 0H0.5V1V9.307L-1.348 10L0.5 10.693V19V20H1.5H25.5L25.8511 18.0637L4.348 10L25.8511 1.93633L25.5 0H1.5Z" fill="#3547A0" stroke="#E31D1C" stroke-width="2"/>
<path fill-rule="evenodd" clip-rule="evenodd" d="M23.2668 4.83252C23.2668 4.83252 21.7591 5.23937 21.2139 5.38726C21.1403 5.40721 21 5.44289 21.01 5.24265C20.6646 5.46435 20.1078 5.68844 19.8795 5.75203C19.7647 5.78402 19.7954 5.58527 19.7463 5.52838C19.6469 5.67491 19.3915 5.88959 19.319 5.91056C18.6003 6.11853 18.1231 6.2697 17.8874 6.36407C17.8874 6.36407 17.5506 6.68803 17.5506 6.94487C17.5506 7.20171 17.5147 7.42107 17.2828 7.42107C17.051 7.42107 16.5163 7.88761 16.7121 8.15051C16.908 8.4134 17.5506 8.27341 17.5506 8.15051C17.5506 8.0276 18.0086 7.87384 18.0086 8.01217C18.0086 8.15051 17.8874 8.40072 17.8874 8.40072H18.3931L18.0086 8.5996H18.3931L18.0086 8.83518H18.7285L18.2684 9.04041H18.5876L18.3931 9.31051H18.8918C18.8918 9.31051 19.0859 9.5068 19.2688 9.61407C19.4518 9.72133 19.8573 10.6342 19.6545 10.9877C19.4518 11.3412 19.7005 11.3938 19.7463 11.2385C19.7921 11.0832 19.8869 10.8607 19.9683 10.8607C20.0497 10.8607 20.2059 10.8607 20.2059 10.8607L20.3163 11.1511L20.5782 11.431C20.5782 11.431 20.5969 11.1877 20.646 11.1511C20.646 11.1511 20.8506 11.1719 20.9498 11.1479C20.9498 11.1479 20.9057 10.794 20.9092 10.7464C20.9092 10.7464 21.2263 10.854 21.3622 10.8516C21.3622 10.8516 21.1581 10.5325 21.1581 10.4235C21.1581 10.4235 21.5372 10.4428 21.5372 10.604L21.4952 10.2017C21.4952 10.2017 21.854 10.049 21.8665 9.92055L21.6314 9.8918C21.6314 9.8918 21.7535 9.73682 21.7422 9.70622L21.3948 9.66213C21.3948 9.66213 21.7744 9.53005 21.803 9.44655C21.803 9.44655 21.7178 9.3127 21.6398 9.26014L21.3746 9.08832C21.3746 9.08832 21.9676 9.09217 22.0668 9.09217C22.0668 9.09217 22.2218 9.03649 22.1025 8.94117C22.1025 8.94117 21.9857 8.871 22.0017 8.80321C22.0017 8.80321 22.081 8.65074 22.0629 8.62421C22.0629 8.62421 22.1476 8.73646 22.1476 8.45907C22.1476 8.45907 22.1497 8.18026 22.0964 8.16685C22.0964 8.16685 22.2524 8.05205 22.191 7.97878C22.1297 7.90552 21.4726 7.71048 21.3153 7.71048L22.5192 6.9474C22.5192 6.9474 22.6027 6.63223 22.7249 6.44384C22.7249 6.44384 23.0448 6.15665 23.1092 5.9316C23.1737 5.70656 23.3553 5.15151 23.3553 5.15151V4.89749L23.2668 4.83252Z" fill="#9C3900"/>
<path fill-rule="evenodd" clip-rule="evenodd" d="M21.1581 10.4235C21.1737 10.4243 21.1888 10.4253 21.2067 10.4267C21.4068 10.4429 21.5161 10.4932 21.5344 10.5775L21.5431 10.6525C21.5431 10.6265 21.5402 10.6015 21.5344 10.5775L21.4952 10.2017C21.7344 10.0999 21.8582 10.0062 21.8665 9.92055L21.6873 9.89863L21.6698 9.92105L21.6588 9.89515L21.6314 9.8918L21.6483 9.87017L21.6374 9.84442L21.6653 9.84783C21.723 9.77074 21.7486 9.72354 21.7422 9.70622L21.4993 9.67539C21.4715 9.68574 21.4421 9.69631 21.411 9.70715C21.411 9.70715 21.4021 9.65959 21.4057 9.65832L21.401 9.61478L21.4932 9.62648C21.6833 9.55448 21.7865 9.49451 21.803 9.44655C21.7462 9.35732 21.6918 9.29518 21.6398 9.26014L21.4491 9.13655L21.3743 9.13607C21.3743 9.13607 21.3842 9.08839 21.389 9.08842L21.4013 9.04845L21.4637 9.0889C21.8048 9.09108 22.0058 9.09217 22.0668 9.09217C22.1701 9.05505 22.182 9.00471 22.1025 8.94117C22.0246 8.89439 21.991 8.8484 22.0017 8.80321C22.0272 8.7541 22.0452 8.71479 22.0556 8.68528C22.0445 8.67676 22.0338 8.66577 22.0239 8.65267L22.0629 8.62421L22.1031 8.59753C22.1134 8.61259 22.117 8.63072 22.114 8.65389C22.1364 8.6404 22.1476 8.57546 22.1476 8.45907C22.1485 8.33482 22.1412 8.2501 22.1254 8.20509L22.0964 8.16685L22.1084 8.12059C22.119 8.12327 22.1285 8.12788 22.1369 8.13451C22.208 8.07248 22.226 8.02057 22.191 7.97878C22.1371 7.91437 21.6227 7.75585 21.3923 7.71847L21.3416 7.75062C21.3416 7.75062 21.3198 7.71048 21.3273 7.70287L21.3153 7.66273C21.3329 7.66273 21.3554 7.66474 21.3817 7.66843L22.5192 6.9474C22.5749 6.73729 22.6434 6.56943 22.7249 6.44384C22.9381 6.25238 23.0663 6.08163 23.1092 5.9316C23.1522 5.78157 23.2342 5.52154 23.3553 5.15151V4.89749L23.2668 4.83252C22.2617 5.10375 21.5773 5.28866 21.2139 5.38726C21.1403 5.40721 21 5.44289 21.01 5.24265C20.6646 5.46435 20.1078 5.68844 19.8795 5.75203C19.8061 5.7725 19.7921 5.69853 19.7788 5.62769C19.7713 5.58779 19.764 5.54888 19.7463 5.52838C19.6469 5.67491 19.3915 5.88959 19.319 5.91056C18.6003 6.11853 18.1231 6.2697 17.8874 6.36407C17.6628 6.58004 17.5506 6.77364 17.5506 6.94487C17.5506 7.20171 17.5147 7.42107 17.2828 7.42107C17.051 7.42107 16.5163 7.88761 16.7121 8.15051C16.908 8.4134 17.5506 8.27341 17.5506 8.15051C17.5506 8.0276 18.0086 7.87384 18.0086 8.01217C18.0086 8.1044 17.9682 8.23391 17.8874 8.40072H18.2888L18.3705 8.35845L18.3825 8.4062L18.3931 8.44846H18.3008L18.0086 8.5996H18.3013L18.3675 8.55907L18.3813 8.60681L18.3931 8.64735H18.3152L18.0086 8.83518H18.611L18.7085 8.79169L18.719 8.83944L18.7285 8.88292H18.6215L18.2684 9.04041H18.5281L18.548 9.0128L18.5625 9.04041H18.5876L18.5731 9.06055L18.5876 9.08815H18.5532L18.3931 9.31051H18.8918C19.0212 9.44137 19.1469 9.54256 19.2688 9.61407C19.4518 9.72133 19.8573 10.6342 19.6545 10.9877C19.4518 11.3412 19.7005 11.3938 19.7463 11.2385C19.7921 11.0832 19.8869 10.8607 19.9683 10.8607H20.2059L20.3163 11.1511L20.5782 11.431C20.5782 11.431 20.5969 11.1877 20.646 11.1511C20.7824 11.165 20.8837 11.1639 20.9498 11.1479C20.9477 11.1311 20.9457 11.1149 20.9438 11.0992C20.926 10.9557 20.9136 10.8546 20.8934 10.7915L20.9092 10.7464C20.9092 10.7464 20.9574 10.757 20.9575 10.7625C21.1438 10.8233 21.2787 10.853 21.3622 10.8516C21.2516 10.6787 21.186 10.5521 21.1634 10.4639C21.1599 10.4487 21.1581 10.4352 21.1581 10.4235ZM21.3786 9.61712L21.1868 9.68387L21.6769 9.74608C21.6596 9.77473 21.6316 9.81371 21.5931 9.86255L21.5409 9.92884L21.7983 9.96032C21.7564 10.0158 21.6494 10.084 21.4759 10.1578L21.4433 10.1717L21.4711 10.4388C21.3995 10.4031 21.2951 10.3827 21.1606 10.3758L21.1096 10.3732V10.4235C21.1096 10.4978 21.163 10.6194 21.2703 10.7957C21.1856 10.7819 21.07 10.7504 20.925 10.7012L20.8653 10.681L20.8608 10.7429C20.8583 10.7771 20.8699 10.8955 20.8961 11.1088C20.8369 11.1157 20.7549 11.1142 20.651 11.1036L20.6168 11.113C20.5825 11.1385 20.5643 11.1933 20.5487 11.2805C20.5463 11.2939 20.544 11.3078 20.542 11.3218L20.3584 11.1256L20.2395 10.8129H19.9683C19.8637 10.8129 19.7677 10.9949 19.6997 11.2252C19.6869 11.2686 19.6551 11.2822 19.6398 11.2685C19.6093 11.2414 19.6171 11.1501 19.6968 11.0112C19.7974 10.8357 19.7702 10.5342 19.6522 10.1932C19.551 9.90064 19.3996 9.63515 19.2937 9.57305C19.1757 9.50384 19.0532 9.40526 18.9266 9.27721L18.9123 9.26277H18.487L18.6814 8.99266H18.493L18.9531 8.78743H18.1783L18.5628 8.55186H18.2052L18.5897 8.35297H17.963C18.0256 8.21242 18.0571 8.09935 18.0571 8.01217C18.0571 7.94937 18.0089 7.91548 17.9406 7.91053C17.8919 7.90699 17.8296 7.91726 17.7646 7.93795C17.6178 7.98476 17.5021 8.0644 17.5021 8.15051C17.5021 8.15408 17.4771 8.17504 17.4282 8.19534C17.3679 8.22039 17.2857 8.23957 17.2002 8.24766C16.9989 8.26668 16.8268 8.22371 16.7513 8.12227C16.6798 8.02634 16.7288 7.87528 16.873 7.71933C17.0045 7.57707 17.1847 7.46881 17.2828 7.46881C17.412 7.46881 17.5 7.40869 17.5482 7.29813C17.5855 7.21275 17.5991 7.10245 17.5991 6.94487C17.5991 6.79068 17.703 6.60993 17.9145 6.40478C18.1513 6.31096 18.6244 6.1613 19.3327 5.95637C19.4107 5.93378 19.6102 5.76661 19.7324 5.64323C19.7426 5.69738 19.7502 5.72475 19.7665 5.7512C19.7934 5.79487 19.8384 5.81311 19.8928 5.79797C20.1623 5.72289 20.6531 5.51253 20.9672 5.32546C20.9802 5.38671 21.0137 5.42649 21.0658 5.44298C21.1132 5.458 21.1561 5.45245 21.2268 5.43329C21.5874 5.33545 22.2641 5.1526 23.2568 4.88473L23.3068 4.92144V5.14401C23.1868 5.51078 23.1055 5.76887 23.0626 5.91865C23.0225 6.05847 22.8994 6.22257 22.684 6.41816C22.6019 6.54474 22.5331 6.71108 22.4771 6.9173L21.1504 7.75822H21.3153C21.4655 7.75822 22.1055 7.95169 22.1536 8.00915C22.1706 8.02944 22.152 8.06627 22.0673 8.12861L21.986 8.1884L22.076 8.21106C22.0802 8.21968 22.0845 8.23444 22.088 8.25472C22.096 8.3001 22.0997 8.36836 22.099 8.4587C22.099 8.53033 22.0945 8.58052 22.0874 8.60578C22.0874 8.60578 22.0205 8.64085 22.0177 8.64058L22.0177 8.64034L22.0176 8.64052C22.0169 8.64623 22.0147 8.65525 22.0107 8.667C22.0014 8.69419 21.9839 8.73255 21.9544 8.79245C21.938 8.86232 21.9826 8.92435 22.0743 8.98019C22.1188 9.01596 22.1185 9.02231 22.0582 9.04442C21.9822 9.04432 21.7544 9.04304 21.375 9.04058L21.2111 9.03952L21.6131 9.30002C21.6534 9.32714 21.6979 9.37609 21.7453 9.44652C21.7308 9.46029 21.7036 9.47906 21.6637 9.50013C21.5982 9.53472 21.503 9.57383 21.3786 9.61712ZM22.0177 8.64058L22.0178 8.64215L22.0176 8.64093L22.0176 8.64057L22.0177 8.64058Z" fill="#212121"/>
<path fill-rule="evenodd" clip-rule="evenodd" d="M22.0551 9.0941C22.0551 9.0941 23.4865 9.28464 23.573 9.28464C23.6596 9.28464 24.0199 9.193 23.8965 8.61641C23.7732 8.03983 23.8234 7.69104 23.4702 7.69104C23.117 7.69104 22.7486 7.84449 22.6161 7.84449C22.4835 7.84449 22.6118 7.84449 22.0551 7.84449C21.4984 7.84449 18.1821 7.82534 17.9433 8.09132C17.7045 8.3573 17.0329 8.73244 16.7218 8.86478C16.4108 8.99711 16.331 8.90465 16.1911 9.28464C16.0513 9.66463 15.9472 9.69105 15.9472 9.69105L16.1911 9.96308H16.916C16.916 9.96308 17.4151 9.33686 18.4513 9.28464C19.4875 9.23243 22.0551 9.0941 22.0551 9.0941Z" fill="white"/>
<path fill-rule="evenodd" clip-rule="evenodd" d="M18.4513 9.28464C19.1421 9.24983 20.3433 9.18632 22.0551 9.0941C23.0093 9.22113 23.5153 9.28464 23.573 9.28464C23.6596 9.28464 24.0199 9.193 23.8965 8.61641C23.8681 8.48359 23.8489 8.36285 23.8319 8.25569C23.7749 7.89764 23.742 7.69104 23.4702 7.69104C23.2511 7.69104 23.0263 7.75005 22.8554 7.79488C22.7508 7.82234 22.6664 7.84449 22.6161 7.84449H22.0551C22.0264 7.84449 21.9904 7.84444 21.9478 7.84438C21.1648 7.84327 18.1698 7.83904 17.9433 8.09132C17.7045 8.3573 17.0329 8.73244 16.7218 8.86478C16.6423 8.89859 16.5779 8.91773 16.5238 8.93383C16.3661 8.98071 16.2952 9.00176 16.1911 9.28464C16.0979 9.53797 16.0166 9.67344 15.9472 9.69105L16.1911 9.96308H16.916C17.2488 9.5456 17.7605 9.31945 18.4513 9.28464ZM16.8811 9.89146H16.224L16.0556 9.70364C16.1234 9.63389 16.1879 9.50366 16.2596 9.30903C16.2869 9.23471 16.3115 9.18006 16.3354 9.13985C16.3789 9.06657 16.4132 9.04299 16.5053 9.01432C16.5072 9.01371 16.5145 9.01153 16.5245 9.00853C16.5497 9.00094 16.5924 8.98813 16.6107 8.98229C16.6589 8.96689 16.7034 8.95062 16.7507 8.93051C17.16 8.75642 17.7823 8.37881 17.9979 8.13874C18.0383 8.09372 18.2855 8.04262 18.6737 8.00613C19.0245 7.97318 19.4859 7.95008 20.0339 7.93539C20.6443 7.91903 21.209 7.91498 21.9185 7.91595C21.915 7.91595 21.9789 7.91604 21.9944 7.91606L22.0551 7.91611H22.6161C22.6542 7.91611 22.7013 7.90766 22.7734 7.89001C22.7913 7.88561 22.8421 7.8724 22.8896 7.86007C22.9275 7.85025 22.9631 7.84098 22.9784 7.83716C23.1481 7.79455 23.281 7.7705 23.4098 7.76418C23.4303 7.76317 23.4504 7.76266 23.4702 7.76266C23.6405 7.76266 23.69 7.84266 23.7448 8.1727C23.7467 8.18449 23.752 8.21749 23.758 8.25461C23.7658 8.30348 23.7748 8.35948 23.7789 8.38367C23.7939 8.47412 23.8084 8.55225 23.8253 8.63117C23.8758 8.86707 23.8447 9.02412 23.7591 9.11927C23.7034 9.18113 23.6236 9.21302 23.573 9.21302C23.5207 9.21302 23.006 9.14842 22.0511 9.02259C20.3394 9.1148 19.1383 9.17831 18.4476 9.21312C17.7521 9.24816 17.2282 9.47393 16.8811 9.89146Z" fill="#4D4D4D"/>
<path fill-rule="evenodd" clip-rule="evenodd" d="M16.1302 9.54944C16.1302 9.54944 15.5843 9.89958 15.7847 10.1349C15.9851 10.3702 16.005 10.4001 16.0449 10.4001C16.0449 10.4001 16.0556 10.1481 16.1203 10.1481C16.1849 10.1481 16.697 10.3928 16.8826 9.97922C17.0682 9.56562 16.1302 9.54944 16.1302 9.54944Z" fill="#FFC221"/>
<path fill-rule="evenodd" clip-rule="evenodd" d="M14.9416 10.6907L16.1982 10.4579L16.6802 10.9797L16.8193 10.5127L17.1648 10.5975V10.8333H17.2923V11.1568L18.1959 11.3456L18.3093 11.0357C18.3093 11.0357 18.6035 11.5213 19.0555 11.4971C19.5075 11.4729 19.5881 11.601 19.6676 11.2422C19.7471 10.8834 19.9687 10.6907 19.9687 10.6907L20.4961 10.8683C20.4961 10.8683 19.9167 11.58 20.1938 11.8036L22.2591 12.2815L22.1775 12.5317H21.9404L22.0044 12.7471L19.7474 12.5912C19.7474 12.5912 19.4959 12.9099 19.4959 12.8285C19.4959 12.7471 19.4822 12.7471 19.3711 12.7471C19.26 12.7471 19.2023 12.5912 19.2023 12.5912L19.0555 12.6477C19.0555 12.6477 19.0777 12.6507 18.8931 12.5912C18.7085 12.5317 18.6003 12.5317 18.6003 12.5317L17.838 12.4754V12.5912C17.838 12.5912 17.6361 12.6013 17.7062 12.6477C17.7763 12.6941 19.2023 12.7471 19.2023 12.7471L19.1154 12.9073C19.1154 12.9073 19.8205 12.9099 19.9687 12.8285C20.117 12.7471 20.0216 13.0088 20.0216 13.0088H20.7219C20.7219 13.0088 20.5482 13.1732 20.3256 13.1732C20.103 13.1732 20.9648 13.4465 20.9648 13.4465C20.9648 13.4465 20.4837 13.5958 20.2609 13.4971C20.0381 13.3984 20.3554 13.688 20.4961 13.7611C20.6368 13.8342 20.0012 13.8277 19.7474 13.5455C19.7474 13.5455 19.8272 13.7546 19.7474 13.8144C19.7474 13.8144 19.3027 13.2904 19.0806 13.2904C18.8584 13.2904 19.1154 13.6359 19.1154 13.6359C19.1154 13.6359 18.9886 13.4553 18.8469 13.5286C18.7052 13.602 18.6003 13.685 18.6003 13.685C18.6003 13.685 18.5075 13.365 18.0167 13.2327C17.5259 13.1004 17.6906 13.0517 17.2923 13.0088C16.894 12.9659 16.8739 12.7471 16.8193 12.7471C16.7646 12.7471 16.3433 12.3785 16.3433 12.3785C16.3433 12.3785 16.2496 12.0328 16.4692 12.0328C16.6889 12.0328 17.0372 11.9294 17.1648 12.0328C17.2923 12.1361 17.3462 12.0328 17.3462 12.0328H17.5707L17.8923 12.2815H18.5304C18.5304 12.2815 18.6527 12.0926 18.8469 12.0328C19.0411 11.973 18.8469 11.8036 18.8469 11.8036C18.8469 11.8036 18.3836 11.83 18.1959 11.9018C18.0083 11.9736 18.1285 11.5544 18.1285 11.5544L17.2923 11.4025L17.1648 11.5544L16.888 11.6377V11.8036L16.5962 11.7395L16.6802 11.2422L15.9974 11.5544L14.9416 10.6907Z" fill="#FFC221"/>
<path fill-rule="evenodd" clip-rule="evenodd" d="M19.1413 12.8597L19.2023 12.7471C18.3354 12.7149 17.8443 12.6845 17.7285 12.6558C17.7177 12.6531 17.7102 12.6504 17.7062 12.6477C17.6361 12.6013 17.838 12.5912 17.838 12.5912V12.5197V12.4754L17.8865 12.479L18.6003 12.5317C18.6724 12.5317 18.77 12.5515 18.8931 12.5912C18.9454 12.6081 18.9852 12.6212 19.0126 12.6305C19.0144 12.6263 19.0175 12.6221 19.023 12.6145L19.023 12.6145C19.0361 12.6062 19.0414 12.6028 19.0471 12.6014C19.0511 12.6005 19.0552 12.6005 19.0622 12.6004C19.0622 12.6004 19.0586 12.6481 19.0555 12.6477C19.0555 12.6477 19.1569 12.6079 19.1582 12.6082L19.2023 12.5912C19.22 12.6391 19.2415 12.6759 19.2668 12.7017L19.2768 12.7112C19.3041 12.7351 19.3356 12.7471 19.3711 12.7471C19.4822 12.7471 19.4959 12.7471 19.4959 12.8285C19.4959 12.8827 19.5797 12.8036 19.7474 12.5912L22.0044 12.7471L21.9404 12.5794L21.9506 12.566L21.9404 12.5317H21.9768L21.987 12.5183L21.991 12.5317H22.1775L22.2591 12.2815L20.1938 11.8036C20.0091 11.6545 20.1099 11.3427 20.4961 10.8683L19.9687 10.6907C19.821 10.8191 19.7206 11.003 19.6676 11.2422C19.6085 11.5091 19.5487 11.5066 19.336 11.4978C19.2627 11.4947 19.1713 11.4909 19.0555 11.4971C18.7542 11.5133 18.5054 11.3595 18.3093 11.0357L18.1959 11.3456L17.2923 11.1568V10.8333H17.1648V10.5975L16.8193 10.5127L16.6962 10.926L16.7161 10.9476L16.6878 10.954L16.6802 10.9797L16.6619 10.9599L16.6336 10.9663L16.642 10.9383L16.1982 10.4579L14.9416 10.6907L15.9974 11.5544L16.6269 11.2665L16.6323 11.2343L16.657 11.2528L16.6802 11.2422L16.676 11.267L16.7006 11.2855L16.6706 11.2992L16.5962 11.7395L16.888 11.8036V11.6377L17.1648 11.5544L17.2923 11.4025C17.2923 11.4025 18.0814 11.5429 18.0851 11.5465L18.1285 11.5544C18.1244 11.569 18.1205 11.5831 18.1158 11.6006C18.0513 11.8465 18.078 11.9469 18.1959 11.9018C18.321 11.8539 18.538 11.8212 18.8469 11.8036C18.9763 11.9165 18.9763 11.9929 18.8469 12.0328C18.7174 12.0726 18.612 12.1555 18.5304 12.2815H17.8923L17.5707 12.0328H17.3462C17.3103 12.1017 17.2498 12.1017 17.1648 12.0328C17.079 11.9633 16.8933 11.9873 16.7141 12.0104C16.6268 12.0217 16.5411 12.0328 16.4692 12.0328C16.3228 12.0328 16.2808 12.148 16.3433 12.3785C16.6241 12.6242 16.7828 12.7471 16.8193 12.7471C16.8345 12.7471 16.847 12.7641 16.8658 12.7895C16.9145 12.8554 17.005 12.9778 17.2923 13.0088C17.5081 13.0321 17.5586 13.057 17.6377 13.096C17.7046 13.129 17.7918 13.1721 18.0167 13.2327C18.3439 13.3209 18.5384 13.4717 18.6003 13.685C18.6003 13.685 18.7052 13.602 18.8469 13.5286C18.9384 13.4812 19.0253 13.5133 19.1075 13.6249C19.1231 13.647 19.1323 13.6594 19.1323 13.6594C19.1241 13.6476 19.1158 13.6361 19.1075 13.6249C19.066 13.5661 18.8821 13.2904 19.0806 13.2904C19.2286 13.2904 19.4509 13.4651 19.7474 13.8144C19.7875 13.7843 19.7974 13.7259 19.7769 13.6392C19.7529 13.6198 19.7308 13.5991 19.7111 13.5771C19.7111 13.5771 19.7484 13.5483 19.7534 13.5521L19.7928 13.5287C19.804 13.5581 19.8132 13.5859 19.8201 13.6119C20.1041 13.8282 20.6248 13.828 20.4961 13.7611C20.4122 13.7175 20.2656 13.597 20.2044 13.5232C20.1736 13.4847 20.1733 13.464 20.2378 13.4875C20.2447 13.4902 20.2524 13.4934 20.2609 13.4971C20.4094 13.5629 20.644 13.5461 20.9648 13.4465C20.6303 13.3405 20.4184 13.2653 20.3163 13.2144C20.2648 13.187 20.268 13.1732 20.3269 13.1732C20.3257 13.1694 20.324 13.1659 20.3214 13.1616C20.3244 13.1639 20.329 13.1667 20.3404 13.173C20.4442 13.1704 20.5398 13.1407 20.6274 13.0838H20.666C20.6801 13.0668 20.6941 13.0487 20.7078 13.0294L20.7062 13.0233C20.7115 13.0186 20.7167 13.0137 20.7219 13.0088H20.7024L20.7062 13.0233C20.6807 13.0461 20.6544 13.0662 20.6274 13.0838H20.5803C20.6038 13.0621 20.6267 13.0371 20.649 13.0088H20.0731L20.0673 13.0249L20.0558 13.0088H20.0216C20.0257 12.9976 20.0294 12.9869 20.0328 12.9767L20.0379 12.9611C20.081 12.8237 20.0579 12.7795 19.9687 12.8285C19.8738 12.8806 19.6077 12.9069 19.1704 12.9074L19.1582 12.9298L19.1446 12.9074L19.1154 12.9073L19.1292 12.882L19.1156 12.8596L19.1413 12.8597ZM16.0048 11.4984L15.0519 10.7188L16.1805 10.5097L16.7024 11.0748L16.8527 10.5701L17.1162 10.6348V10.881H17.2438V11.1954L18.2272 11.401L18.3215 11.1432C18.5182 11.4249 18.7648 11.5605 19.0581 11.5448C19.1464 11.5401 19.2159 11.5407 19.3183 11.5448C19.4883 11.5518 19.5257 11.5497 19.5811 11.5163C19.6464 11.4771 19.6817 11.4028 19.715 11.2523C19.7634 11.034 19.8519 10.8653 19.9803 10.745L20.4156 10.8916C20.0491 11.356 19.956 11.6734 20.1717 11.8475L22.1968 12.3161L22.1421 12.4839H21.8757L21.9383 12.6947L19.725 12.5418L19.7091 12.5619C19.6347 12.6561 19.5773 12.7234 19.5376 12.7633C19.5224 12.7102 19.478 12.6994 19.3711 12.6994C19.3207 12.6994 19.2801 12.6618 19.2479 12.5749L19.2309 12.5289C19.2309 12.5289 19.0481 12.5921 19.0422 12.5901C19.0147 12.5805 18.9701 12.5658 18.9082 12.5458C18.7817 12.505 18.6801 12.4842 18.6022 12.4839L17.7894 12.424V12.5473C17.7785 12.5485 17.7676 12.5499 17.7571 12.5516C17.7224 12.557 17.696 12.5639 17.6769 12.5752C17.6298 12.6029 17.6324 12.6564 17.6791 12.6873C17.7369 12.7256 18.1875 12.7564 19.123 12.7919L19.0347 12.9548L19.1153 12.9551C19.5951 12.9568 19.883 12.9302 19.9924 12.8702C19.9993 12.8664 20.0053 12.8635 20.0103 12.8614C20.0099 12.8689 20.0087 12.8787 20.0064 12.8904C20.0012 12.917 19.9911 12.9512 19.9759 12.9927L19.9527 13.0565H20.5803C20.502 13.1026 20.4173 13.1255 20.3256 13.1255C20.3013 13.1255 20.2834 13.1274 20.2689 13.1331C20.2339 13.1468 20.2194 13.1854 20.2423 13.2176C20.2578 13.2395 20.2918 13.2584 20.3547 13.2853C20.443 13.3231 20.5908 13.3757 20.7986 13.4434C20.5658 13.5006 20.3928 13.5032 20.2808 13.4536C20.2496 13.4397 20.2257 13.4318 20.2068 13.4297C20.169 13.4254 20.1336 13.4454 20.1354 13.4884C20.1367 13.5195 20.161 13.5514 20.2076 13.5981C20.2586 13.6492 20.3288 13.7076 20.3914 13.7518C20.3575 13.7501 20.3184 13.746 20.2775 13.7394C20.0734 13.7067 19.8864 13.628 19.7837 13.5139L19.6096 13.3203L19.702 13.5623C19.7308 13.6379 19.7417 13.6935 19.7385 13.7302C19.4556 13.4056 19.2402 13.2427 19.0806 13.2427C19.0072 13.2427 18.9579 13.2754 18.9449 13.3343C18.9368 13.3711 18.9438 13.4137 18.9623 13.4625C18.9175 13.4544 18.8713 13.462 18.8243 13.4864C18.8094 13.4941 18.7946 13.5021 18.7798 13.5103C18.7261 13.5403 18.6755 13.5723 18.6241 13.608C18.5391 13.4103 18.3392 13.2701 18.0295 13.1866C17.9124 13.155 17.8266 13.1267 17.7579 13.0985C17.7319 13.0878 17.7094 13.0776 17.6841 13.0654L17.6752 13.061L17.6752 13.061C17.6609 13.054 17.6342 13.0409 17.6249 13.0366C17.5435 12.9983 17.4668 12.9796 17.2976 12.9613C17.1504 12.9455 17.0505 12.9049 16.9803 12.8454C16.9607 12.8288 16.9304 12.7927 16.9047 12.7621C16.8839 12.7373 16.8661 12.7161 16.8594 12.7117C16.8486 12.7047 16.8367 12.7003 16.8203 12.6981C16.8142 12.6952 16.8057 12.6905 16.7952 12.6839C16.7723 12.6695 16.7415 12.6473 16.7029 12.6174C16.6266 12.5583 16.521 12.4699 16.3865 12.3524C16.3361 12.1578 16.3666 12.0805 16.4692 12.0805C16.533 12.0805 16.5869 12.075 16.7251 12.0571L16.753 12.0536C16.9749 12.0252 17.0812 12.0269 17.1339 12.0696C17.2299 12.1474 17.3184 12.1548 17.3733 12.0805H17.5539L17.8755 12.3292H18.557L18.5713 12.3071C18.6469 12.1904 18.7432 12.1147 18.8614 12.0783C19.0333 12.0254 19.0333 11.9024 18.8791 11.7679L18.8441 11.7559C18.5305 11.7738 18.3094 11.8072 18.1783 11.8573C18.1427 11.8709 18.1381 11.8689 18.1329 11.8419C18.1235 11.7933 18.1371 11.7004 18.1752 11.5674L18.1897 11.517L17.2731 11.3505L17.1366 11.5129L16.8395 11.6023V11.744L16.6516 11.7027L16.7431 11.1607L16.0048 11.4984ZM19.0555 12.6491C19.0631 12.6502 19.0649 12.6495 19.061 12.647L19.0555 12.6491ZM17.7271 12.6572L17.7268 12.6574L17.7277 12.6569L17.7271 12.6572Z" fill="#4D4D4D"/>
</g>
</g>
<rect x="1.75" y="1.25" width="23.5" height="17.5" stroke="black" stroke-opacity="0.1" stroke-width="0.5" shape-rendering="crispEdges"/>
</g>
<defs>
<filter id="filter0_dd_701_25051" x="0" y="0" width="27" height="21" filterUnits="userSpaceOnUse" color-interpolation-filters="sRGB">
<feFlood flood-opacity="0" result="BackgroundImageFix"/>
<feColorMatrix in="SourceAlpha" type="matrix" values="0 0 0 0 0 0 0 0 0 0 0 0 0 0 0 0 0 0 127 0" result="hardAlpha"/>
<feOffset dy="0.5"/>
<feGaussianBlur stdDeviation="0.75"/>
<feComposite in2="hardAlpha" operator="out"/>
<feColorMatrix type="matrix" values="0 0 0 0 0 0 0 0 0 0 0 0 0 0 0 0 0 0 0.1 0"/>
<feBlend mode="multiply" in2="BackgroundImageFix" result="effect1_dropShadow_701_25051"/>
<feColorMatrix in="SourceAlpha" type="matrix" values="0 0 0 0 0 0 0 0 0 0 0 0 0 0 0 0 0 0 127 0" result="hardAlpha"/>
<feOffset/>
<feGaussianBlur stdDeviation="0.5"/>
<feComposite in2="hardAlpha" operator="out"/>
<feColorMatrix type="matrix" values="0 0 0 0 0 0 0 0 0 0 0 0 0 0 0 0 0 0 0.11 0"/>
<feBlend mode="multiply" in2="effect1_dropShadow_701_25051" result="effect2_dropShadow_701_25051"/>
<feBlend mode="normal" in="SourceGraphic" in2="effect2_dropShadow_701_25051" result="shape"/>
</filter>
<clipPath id="clip0_701_25051">
<rect x="1.5" y="1" width="24" height="18" fill="white"/>
</clipPath>
</defs>
</svg>
