<svg width="27" height="21" viewBox="0 0 27 21" fill="none" xmlns="http://www.w3.org/2000/svg">
<g filter="url(#filter0_dd_701_22569)">
<g clip-path="url(#clip0_701_22569)">
<mask id="mask0_701_22569" style="mask-type:alpha" maskUnits="userSpaceOnUse" x="1" y="1" width="25" height="18">
<rect x="1.5" y="1" width="24" height="18" fill="white"/>
</mask>
<g mask="url(#mask0_701_22569)">
<path fill-rule="evenodd" clip-rule="evenodd" d="M1.5 1V19H25.5V1H1.5Z" fill="#C51918"/>
<mask id="mask1_701_22569" style="mask-type:alpha" maskUnits="userSpaceOnUse" x="1" y="1" width="25" height="18">
<path fill-rule="evenodd" clip-rule="evenodd" d="M1.5 1V19H25.5V1H1.5Z" fill="white"/>
</mask>
<g mask="url(#mask1_701_22569)">
<path fill-rule="evenodd" clip-rule="evenodd" d="M13.4865 14.4001C13.5669 14.4001 13.6468 14.398 13.7261 14.3939L14.1889 15.8697L14.2961 14.3278C14.4509 14.2999 14.603 14.264 14.7519 14.2207L15.5453 15.5508L15.2911 14.0255C15.4344 13.963 15.5739 13.8932 15.7089 13.8167L16.791 14.9303L16.1884 13.5029C16.3129 13.4097 16.4322 13.3102 16.5461 13.2048L17.8589 14.0415L16.9405 12.7903C17.0399 12.6715 17.1332 12.5475 17.2199 12.4188L18.6913 12.9325L17.5077 11.9258C17.5768 11.7877 17.6389 11.6456 17.6935 11.4998L19.2435 11.6629L17.8583 10.9544C17.8931 10.8047 17.9203 10.6521 17.9395 10.4971L19.4855 10.3012L17.973 9.92871C17.9722 9.77201 17.9633 9.61721 17.9466 9.46473L19.4045 8.9209L17.8485 8.90444C17.8115 8.75233 17.7667 8.60326 17.7145 8.45768L19.0047 7.59633L17.4882 7.9359C17.4169 7.79672 17.3384 7.66175 17.2532 7.53149L18.3077 6.39891L16.9118 7.07585C16.8102 6.95684 16.7024 6.8432 16.5889 6.73541L17.3511 5.3932L16.1517 6.36995C16.0253 6.27717 15.8937 6.19083 15.7576 6.11142L16.1864 4.63341L15.2481 5.85612C15.1034 5.79482 14.9549 5.74083 14.8029 5.69464L14.8765 4.16052L14.2482 5.56387C14.0937 5.53766 13.9365 5.51928 13.777 5.50918L13.4919 4L13.207 5.5085C13.0472 5.51824 12.8897 5.53627 12.7349 5.56217L12.1074 4.16052L12.1807 5.69141C12.0279 5.73745 11.8785 5.79136 11.7331 5.85267L10.7974 4.63341L11.2247 6.10603C11.0873 6.18574 10.9546 6.27249 10.827 6.36578L9.63277 5.3932L10.3911 6.72875C10.2762 6.8374 10.1672 6.95203 10.0644 7.07214L8.67616 6.39891L9.7243 7.52467C9.63782 7.65637 9.55819 7.79289 9.48589 7.93373L7.97916 7.59633L9.2606 8.45186C9.20746 8.59932 9.16194 8.75037 9.12451 8.90455L7.57936 8.9209L9.0268 9.46086C9.00975 9.61546 9.00069 9.77243 9.00003 9.93138L7.49831 10.3012L9.03338 10.4957C9.05277 10.6529 9.08042 10.8076 9.11589 10.9594L7.74037 11.6629L9.27996 11.5009C9.33531 11.6485 9.39834 11.7925 9.46856 11.9323L8.2925 12.9325L9.75521 12.4219C9.84299 12.552 9.93751 12.6772 10.0383 12.7972L9.12493 14.0415L10.4314 13.2089C10.5464 13.3151 10.667 13.4153 10.7928 13.5091L10.1928 14.9303L11.2711 13.8206C11.4071 13.8974 11.5476 13.9673 11.6921 14.0299L11.4385 15.5508L12.2304 14.2233C12.3798 14.2665 12.5324 14.3021 12.6879 14.3298L12.7949 15.8697L13.2576 14.3944C13.3334 14.3982 13.4097 14.4001 13.4865 14.4001ZM16.8615 9.93677C16.8615 11.8004 15.3384 13.3111 13.4595 13.3111C11.5806 13.3111 10.0575 11.8004 10.0575 9.93677C10.0575 8.07316 11.5806 6.5624 13.4595 6.5624C15.3384 6.5624 16.8615 8.07316 16.8615 9.93677ZM15.8326 11.036C15.9746 10.7168 16.0535 10.3634 16.0535 9.99164C16.0535 9.6284 15.9782 9.28275 15.8423 8.96945C15.2553 9.01119 14.7576 9.16571 14.3539 9.36345C15.25 9.75541 15.6553 10.4006 15.8326 11.036ZM15.5435 11.5292C15.4702 11.6274 15.39 11.7201 15.3037 11.8068C15.2557 10.9213 14.877 10.2462 14.1977 9.51782C15.0387 9.92075 15.5131 10.8838 15.5435 11.5292ZM14.8998 12.1375C14.8522 12.169 14.8036 12.199 14.7539 12.2273C14.552 11.2324 14.1697 10.4474 13.6376 9.82003L13.7665 9.72277C13.7837 9.70984 13.8012 9.69692 13.819 9.68403C14.4999 10.4671 14.9295 11.139 14.8998 12.1375ZM13.4815 12.5636C13.7834 12.5636 14.073 12.5116 14.3421 12.4161C14.1466 11.4694 13.8061 10.5877 13.3131 9.95145C12.7241 10.6527 12.4244 11.445 12.4134 12.332C12.7387 12.4807 13.1005 12.5636 13.4815 12.5636ZM12.9865 9.64677C13.007 9.66281 13.0266 9.67878 13.0452 9.69466C12.4178 10.4082 12.0746 11.2129 12.0162 12.1056C11.9391 12.052 11.8651 11.9944 11.7945 11.933C12.0309 10.9892 12.4228 10.2105 12.9865 9.64677ZM11.1133 8.98682C11.7028 9.0532 12.1682 9.19655 12.5169 9.36247C11.6281 9.74016 11.278 10.3487 11.102 10.9693C10.978 10.6679 10.9096 10.3378 10.9096 9.99164C10.9096 9.6351 10.9822 9.29551 11.1133 8.98682ZM11.4361 11.551C11.4163 11.5251 11.397 11.4988 11.3782 11.4721C11.4226 10.8203 11.8377 9.89552 12.6761 9.51425C12.1137 10.0601 11.6929 10.6814 11.4361 11.551ZM11.6264 8.21029C12.0944 7.723 12.7526 7.41971 13.4815 7.41971C14.1992 7.41971 14.8482 7.71362 15.3147 8.18763C14.5805 8.27278 13.958 8.45683 13.4525 8.74317C13.0019 8.4846 12.3927 8.30982 11.6264 8.21029Z" fill="#FFDC17"/>
</g>
</g>
</g>
<rect x="1.75" y="1.25" width="23.5" height="17.5" stroke="black" stroke-opacity="0.1" stroke-width="0.5" shape-rendering="crispEdges"/>
</g>
<defs>
<filter id="filter0_dd_701_22569" x="0" y="0" width="27" height="21" filterUnits="userSpaceOnUse" color-interpolation-filters="sRGB">
<feFlood flood-opacity="0" result="BackgroundImageFix"/>
<feColorMatrix in="SourceAlpha" type="matrix" values="0 0 0 0 0 0 0 0 0 0 0 0 0 0 0 0 0 0 127 0" result="hardAlpha"/>
<feOffset dy="0.5"/>
<feGaussianBlur stdDeviation="0.75"/>
<feComposite in2="hardAlpha" operator="out"/>
<feColorMatrix type="matrix" values="0 0 0 0 0 0 0 0 0 0 0 0 0 0 0 0 0 0 0.1 0"/>
<feBlend mode="multiply" in2="BackgroundImageFix" result="effect1_dropShadow_701_22569"/>
<feColorMatrix in="SourceAlpha" type="matrix" values="0 0 0 0 0 0 0 0 0 0 0 0 0 0 0 0 0 0 127 0" result="hardAlpha"/>
<feOffset/>
<feGaussianBlur stdDeviation="0.5"/>
<feComposite in2="hardAlpha" operator="out"/>
<feColorMatrix type="matrix" values="0 0 0 0 0 0 0 0 0 0 0 0 0 0 0 0 0 0 0.11 0"/>
<feBlend mode="multiply" in2="effect1_dropShadow_701_22569" result="effect2_dropShadow_701_22569"/>
<feBlend mode="normal" in="SourceGraphic" in2="effect2_dropShadow_701_22569" result="shape"/>
</filter>
<clipPath id="clip0_701_22569">
<rect x="1.5" y="1" width="24" height="18" fill="white"/>
</clipPath>
</defs>
</svg>
