<svg width="27" height="21" viewBox="0 0 27 21" fill="none" xmlns="http://www.w3.org/2000/svg">
<g filter="url(#filter0_dd_701_19066)">
<g clip-path="url(#clip0_701_19066)">
<rect x="1.5" y="1" width="24" height="18" fill="#19BFBF"/>
<path fill-rule="evenodd" clip-rule="evenodd" d="M10.0715 14.8695C10.0715 14.8423 10.0748 14.8151 10.0814 14.7887L10.6429 12.5428L11.1908 10.3512C11.2061 10.2897 11.2037 10.2251 11.1836 10.165L10.6865 8.67375C10.6586 8.58988 10.5985 8.52055 10.5194 8.48101L9.68429 8.06346C9.57136 8.007 9.50003 7.89158 9.50003 7.76532V5.76431C9.50003 5.71256 9.51208 5.66152 9.53522 5.61523L10.0715 4.54276L10.5508 3.58416C10.6072 3.47124 10.7226 3.3999 10.8489 3.3999H13.7381C13.9222 3.3999 14.0715 3.54914 14.0715 3.73324V4.20943C14.0715 4.39352 14.2207 4.54276 14.4048 4.54276H14.881C15.0651 4.54276 15.2143 4.692 15.2143 4.87609V5.47961C15.2143 5.60586 15.2856 5.72128 15.3986 5.77775L17.3158 6.73634C17.4287 6.79281 17.5 6.90823 17.5 7.03449V7.89264C17.5 7.94439 17.488 7.99543 17.4648 8.04171L16.9682 9.03501C16.9422 9.0869 16.9032 9.13111 16.8549 9.16329L15.288 10.2079C15.2397 10.2401 15.2007 10.2843 15.1747 10.3362L14.111 12.4636C14.0851 12.5155 14.0461 12.5597 13.9978 12.5919L12.4308 13.6365C12.3826 13.6687 12.3435 13.7129 12.3176 13.7648L11.3064 15.7871C11.25 15.9 11.1346 15.9713 11.0083 15.9713H10.4048C10.2207 15.9713 10.0715 15.8221 10.0715 15.638V14.8695Z" fill="white"/>
</g>
<rect x="1.75" y="1.25" width="23.5" height="17.5" stroke="black" stroke-opacity="0.1" stroke-width="0.5" shape-rendering="crispEdges"/>
</g>
<defs>
<filter id="filter0_dd_701_19066" x="0" y="0" width="27" height="21" filterUnits="userSpaceOnUse" color-interpolation-filters="sRGB">
<feFlood flood-opacity="0" result="BackgroundImageFix"/>
<feColorMatrix in="SourceAlpha" type="matrix" values="0 0 0 0 0 0 0 0 0 0 0 0 0 0 0 0 0 0 127 0" result="hardAlpha"/>
<feOffset dy="0.5"/>
<feGaussianBlur stdDeviation="0.75"/>
<feComposite in2="hardAlpha" operator="out"/>
<feColorMatrix type="matrix" values="0 0 0 0 0 0 0 0 0 0 0 0 0 0 0 0 0 0 0.1 0"/>
<feBlend mode="multiply" in2="BackgroundImageFix" result="effect1_dropShadow_701_19066"/>
<feColorMatrix in="SourceAlpha" type="matrix" values="0 0 0 0 0 0 0 0 0 0 0 0 0 0 0 0 0 0 127 0" result="hardAlpha"/>
<feOffset/>
<feGaussianBlur stdDeviation="0.5"/>
<feComposite in2="hardAlpha" operator="out"/>
<feColorMatrix type="matrix" values="0 0 0 0 0 0 0 0 0 0 0 0 0 0 0 0 0 0 0.11 0"/>
<feBlend mode="multiply" in2="effect1_dropShadow_701_19066" result="effect2_dropShadow_701_19066"/>
<feBlend mode="normal" in="SourceGraphic" in2="effect2_dropShadow_701_19066" result="shape"/>
</filter>
<clipPath id="clip0_701_19066">
<rect x="1.5" y="1" width="24" height="18" fill="white"/>
</clipPath>
</defs>
</svg>
