<svg width="27" height="21" viewBox="0 0 27 21" fill="none" xmlns="http://www.w3.org/2000/svg">
<g filter="url(#filter0_dd_701_24689)">
<g clip-path="url(#clip0_701_24689)">
<mask id="mask0_701_24689" style="mask-type:alpha" maskUnits="userSpaceOnUse" x="1" y="1" width="25" height="18">
<rect x="1.5" y="1" width="24" height="18" fill="white"/>
</mask>
<g mask="url(#mask0_701_24689)">
<path fill-rule="evenodd" clip-rule="evenodd" d="M1.5 1H25.5V19H1.5V1Z" fill="white"/>
<path fill-rule="evenodd" clip-rule="evenodd" d="M1.5 9.748V1H13.5L1.5 9.748Z" fill="#F00000"/>
<path fill-rule="evenodd" clip-rule="evenodd" d="M25.5 9.748V1H13.5L25.5 9.748Z" fill="#F00000"/>
<path fill-rule="evenodd" clip-rule="evenodd" d="M1.5 9.748V19H13.5L1.5 9.748Z" fill="#00268D"/>
<path fill-rule="evenodd" clip-rule="evenodd" d="M25.5 9.74795V19.252L13.5 19L25.5 9.74795Z" fill="#00268D"/>
<path fill-rule="evenodd" clip-rule="evenodd" d="M13.2855 11.6922L10.6474 13.5725L11.6155 10.4665L9 8.56525H12.2584L13.2855 5.5L14.3741 8.56525H17.5438L14.9511 10.4665L15.9367 13.5725L13.2855 11.6922Z" fill="#FEDA00"/>
</g>
</g>
<rect x="1.75" y="1.25" width="23.5" height="17.5" stroke="black" stroke-opacity="0.1" stroke-width="0.5" shape-rendering="crispEdges"/>
</g>
<defs>
<filter id="filter0_dd_701_24689" x="0" y="0" width="27" height="21" filterUnits="userSpaceOnUse" color-interpolation-filters="sRGB">
<feFlood flood-opacity="0" result="BackgroundImageFix"/>
<feColorMatrix in="SourceAlpha" type="matrix" values="0 0 0 0 0 0 0 0 0 0 0 0 0 0 0 0 0 0 127 0" result="hardAlpha"/>
<feOffset dy="0.5"/>
<feGaussianBlur stdDeviation="0.75"/>
<feComposite in2="hardAlpha" operator="out"/>
<feColorMatrix type="matrix" values="0 0 0 0 0 0 0 0 0 0 0 0 0 0 0 0 0 0 0.1 0"/>
<feBlend mode="multiply" in2="BackgroundImageFix" result="effect1_dropShadow_701_24689"/>
<feColorMatrix in="SourceAlpha" type="matrix" values="0 0 0 0 0 0 0 0 0 0 0 0 0 0 0 0 0 0 127 0" result="hardAlpha"/>
<feOffset/>
<feGaussianBlur stdDeviation="0.5"/>
<feComposite in2="hardAlpha" operator="out"/>
<feColorMatrix type="matrix" values="0 0 0 0 0 0 0 0 0 0 0 0 0 0 0 0 0 0 0.11 0"/>
<feBlend mode="multiply" in2="effect1_dropShadow_701_24689" result="effect2_dropShadow_701_24689"/>
<feBlend mode="normal" in="SourceGraphic" in2="effect2_dropShadow_701_24689" result="shape"/>
</filter>
<clipPath id="clip0_701_24689">
<rect x="1.5" y="1" width="24" height="18" fill="white"/>
</clipPath>
</defs>
</svg>
