<svg viewBox="0 0 27 21" fill="none" xmlns="http://www.w3.org/2000/svg">
<g filter="url(#filter0_dd_701_19128)">
<g clip-path="url(#clip0_701_19128)">
<mask id="mask0_701_19128" style="mask-type:alpha" maskUnits="userSpaceOnUse" x="1" y="1" width="25" height="18">
<rect x="1.5" y="1" width="24" height="18" fill="white"/>
</mask>
<g mask="url(#mask0_701_19128)">
<path fill-rule="evenodd" clip-rule="evenodd" d="M1.5 1H25.5V19H1.5V1Z" fill="#F7FCFF"/>
<path fill-rule="evenodd" clip-rule="evenodd" d="M1.5 1V7H25.5V1H1.5Z" fill="#E31D1C"/>
<path fill-rule="evenodd" clip-rule="evenodd" d="M1.5 13V19H25.5V13H1.5Z" fill="#3D58DB"/>
<mask id="path-7-outside-1_701_19128" maskUnits="userSpaceOnUse" x="-0.5" y="-5.5" width="28" height="31" fill="black">
<rect fill="white" x="-0.5" y="-5.5" width="28" height="31"/>
<path fill-rule="evenodd" clip-rule="evenodd" d="M13.0714 8.5L1.5 -0.5V20.5L13.0714 11.5H25.5V8.5H13.0714Z"/>
</mask>
<path fill-rule="evenodd" clip-rule="evenodd" d="M13.0714 8.5L1.5 -0.5V20.5L13.0714 11.5H25.5V8.5H13.0714Z" fill="#5EAA22"/>
<path d="M1.5 -0.5L2.72788 -2.0787L-0.5 -4.58928V-0.5H1.5ZM13.0714 8.5L11.8435 10.0787L12.3852 10.5H13.0714V8.5ZM1.5 20.5H-0.5V24.5893L2.72788 22.0787L1.5 20.5ZM13.0714 11.5V9.5H12.3852L11.8435 9.9213L13.0714 11.5ZM25.5 11.5V13.5H27.5V11.5H25.5ZM25.5 8.5H27.5V6.5H25.5V8.5ZM0.272119 1.0787L11.8435 10.0787L14.2993 6.9213L2.72788 -2.0787L0.272119 1.0787ZM3.5 20.5V-0.5H-0.5V20.5H3.5ZM11.8435 9.9213L0.272119 18.9213L2.72788 22.0787L14.2993 13.0787L11.8435 9.9213ZM25.5 9.5H13.0714V13.5H25.5V9.5ZM23.5 8.5V11.5H27.5V8.5H23.5ZM13.0714 10.5H25.5V6.5H13.0714V10.5Z" fill="#F7FCFF" mask="url(#path-7-outside-1_701_19128)"/>
<path d="M2.1 4.7L0.5 3.5V5.5V14.5V16.5L2.1 15.3L8.1 10.8L9.16667 10L8.1 9.2L2.1 4.7Z" fill="#272727" stroke="#FECA00" stroke-width="2"/>
</g>
</g>
<rect x="1.75" y="1.25" width="23.5" height="17.5" stroke="black" stroke-opacity="0.1" stroke-width="0.5" shape-rendering="crispEdges"/>
</g>
<defs>
<filter id="filter0_dd_701_19128" x="0" y="0" width="27" height="21" filterUnits="userSpaceOnUse" color-interpolation-filters="sRGB">
<feFlood flood-opacity="0" result="BackgroundImageFix"/>
<feColorMatrix in="SourceAlpha" type="matrix" values="0 0 0 0 0 0 0 0 0 0 0 0 0 0 0 0 0 0 127 0" result="hardAlpha"/>
<feOffset dy="0.5"/>
<feGaussianBlur stdDeviation="0.75"/>
<feComposite in2="hardAlpha" operator="out"/>
<feColorMatrix type="matrix" values="0 0 0 0 0 0 0 0 0 0 0 0 0 0 0 0 0 0 0.1 0"/>
<feBlend mode="multiply" in2="BackgroundImageFix" result="effect1_dropShadow_701_19128"/>
<feColorMatrix in="SourceAlpha" type="matrix" values="0 0 0 0 0 0 0 0 0 0 0 0 0 0 0 0 0 0 127 0" result="hardAlpha"/>
<feOffset/>
<feGaussianBlur stdDeviation="0.5"/>
<feComposite in2="hardAlpha" operator="out"/>
<feColorMatrix type="matrix" values="0 0 0 0 0 0 0 0 0 0 0 0 0 0 0 0 0 0 0.11 0"/>
<feBlend mode="multiply" in2="effect1_dropShadow_701_19128" result="effect2_dropShadow_701_19128"/>
<feBlend mode="normal" in="SourceGraphic" in2="effect2_dropShadow_701_19128" result="shape"/>
</filter>
<clipPath id="clip0_701_19128">
<rect x="1.5" y="1" width="24" height="18" fill="white"/>
</clipPath>
</defs>
</svg>