<svg width="27" height="21" viewBox="0 0 27 21" fill="none" xmlns="http://www.w3.org/2000/svg">
<g filter="url(#filter0_dd_701_24362)">
<g clip-path="url(#clip0_701_24362)">
<mask id="mask0_701_24362" style="mask-type:alpha" maskUnits="userSpaceOnUse" x="1" y="1" width="25" height="18">
<rect x="1.5" y="1" width="24" height="18" fill="white"/>
</mask>
<g mask="url(#mask0_701_24362)">
<path fill-rule="evenodd" clip-rule="evenodd" d="M1.5 1V19H25.5V1H1.5Z" fill="#0168B4"/>
<mask id="mask1_701_24362" style="mask-type:alpha" maskUnits="userSpaceOnUse" x="1" y="1" width="25" height="18">
<path fill-rule="evenodd" clip-rule="evenodd" d="M1.5 1V19H25.5V1H1.5Z" fill="white"/>
</mask>
<g mask="url(#mask1_701_24362)">
<path fill-rule="evenodd" clip-rule="evenodd" d="M1.5 1V3.25H25.5V1H1.5Z" fill="#E93C43"/>
<path fill-rule="evenodd" clip-rule="evenodd" d="M1.5 16.75V19H25.5V16.75H1.5Z" fill="#E93C43"/>
<path d="M13.5 14.5C11.0147 14.5 9 12.4853 9 10C9 7.51472 11.0147 5.5 13.5 5.5C15.9853 5.5 18 7.51472 18 10C18 12.4853 15.9853 14.5 13.5 14.5Z" fill="#F7FCFF"/>
<path d="M13.5 16C10.1863 16 7.5 13.3137 7.5 10C7.5 6.68629 10.1863 4 13.5 4C16.8137 4 19.5 6.68629 19.5 10C19.5 13.3137 16.8137 16 13.5 16Z" fill="white"/>
<path fill-rule="evenodd" clip-rule="evenodd" d="M13.5 15.25C16.3995 15.25 18.75 12.8995 18.75 10C18.75 7.10051 16.3995 4.75 13.5 4.75C10.6005 4.75 8.25 7.10051 8.25 10C8.25 12.8995 10.6005 15.25 13.5 15.25Z" stroke="#9C4C17" stroke-width="0.5"/>
<path fill-rule="evenodd" clip-rule="evenodd" d="M13.1797 4.06213L13.0633 4.3133C13.2554 4.41762 13.3282 4.6537 13.3282 4.79672C13.3282 4.93826 13.2531 5.04623 13.0633 5.14538L13.1797 5.40501C13.2592 5.36346 13.3379 5.32851 13.4123 5.29547L13.4123 5.29546C13.6791 5.17697 13.8907 5.08294 13.8907 4.79672C13.8907 4.44699 13.5701 4.27344 13.2239 4.08607L13.1797 4.06213ZM14.86 4.21952L14.6789 4.42887C14.8348 4.58209 14.8397 4.82912 14.8003 4.9666C14.7613 5.10266 14.6593 5.18574 14.4495 5.22872L14.4899 5.51038C14.5778 5.49237 14.663 5.48046 14.7437 5.4692C15.0327 5.42882 15.2621 5.39677 15.341 5.12164C15.4374 4.78546 15.177 4.53025 14.8959 4.25471L14.86 4.21952ZM16.2062 4.9918L16.4406 4.84456L16.4646 4.8887C16.6529 5.23439 16.8273 5.55459 16.6368 5.84789C16.4809 6.08794 16.2522 6.05151 15.964 6.00562C15.8836 5.99281 15.7986 5.97928 15.7092 5.97079L15.753 5.68964C15.9662 5.70988 16.088 5.66024 16.1651 5.54153C16.243 5.42159 16.3104 5.1839 16.2062 4.9918ZM17.7688 5.88634L17.5028 5.96325C17.5501 6.17666 17.4198 6.38654 17.3118 6.48037C17.205 6.57323 17.0742 6.58738 16.8749 6.50915L16.7553 6.76735C16.8389 6.80013 16.9168 6.83658 16.9906 6.87104C17.255 6.99461 17.4649 7.09267 17.6809 6.9049C17.9448 6.67546 17.8654 6.31959 17.7797 5.93539L17.7688 5.88634ZM18.4735 7.25966L18.7504 7.25903L18.7474 7.30919C18.7239 7.70213 18.7021 8.0661 18.3851 8.2139C18.1257 8.33486 17.951 8.18276 17.7309 7.99109L17.7309 7.99109C17.6695 7.93763 17.6046 7.8811 17.5333 7.82656L17.7194 7.61132C17.8895 7.74147 18.0191 7.76392 18.1474 7.7041C18.277 7.64366 18.4602 7.47784 18.4735 7.25966ZM19.3133 8.86265L19.0484 8.78231C18.9718 8.98705 18.7482 9.09207 18.6066 9.11197C18.4664 9.13167 18.349 9.07231 18.2244 8.89812L17.9835 9.04954C18.0358 9.12255 18.0813 9.19559 18.1244 9.26466C18.2789 9.51231 18.4014 9.70883 18.6849 9.669C19.0312 9.62033 19.1584 9.27863 19.2958 8.90973L19.3133 8.86265ZM19.1636 10.3983L19.3961 10.5485L19.3662 10.5889C19.1325 10.9057 18.916 11.1991 18.5697 11.1504C18.2863 11.1106 18.2226 10.8879 18.1424 10.6072C18.12 10.529 18.0964 10.4462 18.0663 10.3616L18.3396 10.2825C18.4114 10.4843 18.5078 10.5737 18.648 10.5934C18.7896 10.6133 19.0335 10.574 19.1636 10.3983ZM19.0017 12.2021L18.8232 11.9904C18.6475 12.1204 18.4028 12.0867 18.2731 12.0262C18.1449 11.9664 18.0788 11.8527 18.0691 11.6387L17.7846 11.6345C17.7887 11.7242 17.7871 11.8103 17.7856 11.8917C17.7803 12.1835 17.776 12.4151 18.0354 12.536C18.3524 12.6838 18.6452 12.4666 18.9613 12.232L19.0017 12.2021ZM18.0457 13.4122L18.1589 13.6649L18.1118 13.6825C17.7433 13.8209 17.4019 13.949 17.138 13.7196C16.922 13.5318 16.9899 13.3104 17.0755 13.0313L17.0755 13.0313C17.0993 12.9535 17.1246 12.8712 17.1454 12.7839L17.4177 12.8664C17.368 13.0747 17.4002 13.2022 17.507 13.2951C17.615 13.3889 17.841 13.4888 18.0457 13.4122ZM16.9393 14.8316L16.9001 14.5575C16.6822 14.5747 16.4925 14.4164 16.4146 14.2964C16.3375 14.1777 16.3417 14.0462 16.4469 13.8597L16.2079 13.7054C16.1638 13.7835 16.1168 13.8557 16.0725 13.9239C15.9133 14.1686 15.787 14.3627 15.9429 14.6028C16.1333 14.8961 16.4968 14.867 16.8892 14.8356L16.9393 14.8316ZM15.4743 15.343L15.4316 15.6166L15.3825 15.6057C14.9981 15.5211 14.642 15.4426 14.5456 15.1064C14.4667 14.8313 14.6443 14.6826 14.868 14.4951C14.9304 14.4429 14.9964 14.3876 15.0614 14.3257L15.2449 14.5432C15.0897 14.6908 15.0473 14.8153 15.0863 14.9514C15.1257 15.0889 15.2609 15.2957 15.4743 15.343ZM13.7743 15.9379L13.8907 15.6867C13.6986 15.5824 13.6258 15.3463 13.6258 15.2033C13.6258 15.0617 13.7009 14.9538 13.8907 14.8546L13.7743 14.595C13.6948 14.6365 13.6161 14.6715 13.5417 14.7045L13.5417 14.7045L13.5417 14.7045C13.2749 14.823 13.0633 14.9171 13.0633 15.2033C13.0633 15.553 13.3839 15.7265 13.7301 15.9139L13.7743 15.9379ZM12.2751 15.5711L12.094 15.7805L12.0581 15.7453C11.777 15.4697 11.5166 15.2145 11.613 14.8784C11.6919 14.6032 11.9213 14.5712 12.2103 14.5308C12.2909 14.5195 12.3762 14.5076 12.4641 14.4896L12.5045 14.7713C12.2947 14.8143 12.1927 14.8973 12.1537 15.0334C12.1143 15.1709 12.1192 15.4179 12.2751 15.5711ZM10.5134 15.1554L10.7478 15.0082C10.6435 14.8161 10.711 14.5784 10.7889 14.4585C10.866 14.3398 10.9878 14.2901 11.201 14.3104L11.2448 14.0292C11.1554 14.0207 11.0704 14.0072 10.99 13.9944C10.7018 13.9485 10.473 13.9121 10.3172 14.1521C10.1267 14.4454 10.3011 14.7656 10.4894 15.1113L10.5134 15.1554ZM9.45114 14.0367L9.1852 14.1137L9.17428 14.0646C9.08857 13.6804 9.00918 13.3245 9.27312 13.0951C9.48913 12.9073 9.69897 13.0054 9.96339 13.1289C10.0371 13.1634 10.1151 13.1999 10.1987 13.2326L10.0791 13.4908C9.87975 13.4126 9.74898 13.4268 9.64216 13.5196C9.53422 13.6134 9.40385 13.8233 9.45114 14.0367ZM8.2036 12.741L8.48044 12.7403C8.4938 12.5222 8.67697 12.3563 8.80659 12.2959C8.93487 12.2361 9.06447 12.2585 9.23456 12.3887L9.42066 12.1734C9.34939 12.1189 9.28446 12.0624 9.22308 12.0089L9.22306 12.0089C9.00294 11.8172 8.82827 11.6651 8.56887 11.7861C8.25191 11.9339 8.23013 12.2979 8.20663 12.6908L8.2036 12.741ZM7.90557 11.2177L7.64065 11.1373L7.6582 11.0903C7.79557 10.7214 7.9228 10.3797 8.26913 10.331C8.55256 10.2912 8.67513 10.4877 8.8296 10.7353C8.87268 10.8044 8.91824 10.8774 8.97046 10.9505L8.72956 11.1019C8.60495 10.9277 8.48758 10.8683 8.34741 10.888C8.20579 10.9079 7.98214 11.0129 7.90557 11.2177ZM7.55789 9.45147L7.79041 9.60172C7.92044 9.42602 8.16438 9.38671 8.306 9.40662C8.44617 9.42632 8.54263 9.51573 8.6144 9.71752L8.8877 9.63837C8.85763 9.55379 8.83397 9.47102 8.81159 9.39275C8.73138 9.11212 8.66772 8.88943 8.38429 8.84959C8.03796 8.80092 7.82147 9.09431 7.58775 9.41105L7.55789 9.45147ZM8.13074 8.0096L7.95231 7.79793L7.99268 7.76801C8.3088 7.53344 8.60161 7.31617 8.91857 7.46397C9.17797 7.58493 9.17373 7.8165 9.1684 8.10833C9.16691 8.18972 9.16534 8.27579 9.16937 8.36546L8.88486 8.36125C8.87523 8.14729 8.80913 8.03358 8.68084 7.97376C8.55123 7.91332 8.30646 7.87959 8.13074 8.0096ZM8.7951 6.3351L8.90828 6.58775C9.11303 6.51121 9.33901 6.6111 9.44695 6.70493C9.55378 6.79779 9.58598 6.92531 9.53626 7.13364L9.80859 7.21611C9.82942 7.1288 9.85466 7.0465 9.87852 6.96868L9.87853 6.96867L9.87853 6.96867C9.96409 6.68962 10.032 6.46818 9.81599 6.28041C9.55204 6.05096 9.21069 6.17911 8.84216 6.31746L8.7951 6.3351ZM10.0539 5.44246L10.0147 5.16841L10.0648 5.16442C10.4572 5.13301 10.8207 5.10392 11.0111 5.39723C11.167 5.63727 11.0407 5.83141 10.8815 6.07607C10.8371 6.1443 10.7902 6.21646 10.7461 6.29464L10.5071 6.14031C10.6123 5.95376 10.6165 5.82229 10.5394 5.70359C10.4615 5.58364 10.2718 5.42533 10.0539 5.44246ZM11.5224 4.38342L11.4797 4.65695C11.6931 4.70427 11.8282 4.91113 11.8677 5.04861C11.9067 5.18467 11.8642 5.30916 11.7091 5.4568L11.8926 5.67428C11.9576 5.61241 12.0236 5.55712 12.086 5.50485C12.3097 5.31743 12.4873 5.16869 12.4084 4.89356C12.312 4.55738 11.9559 4.47894 11.5715 4.39425C11.5552 4.39066 11.5388 4.38706 11.5224 4.38342Z" fill="#5B8C39"/>
<path fill-rule="evenodd" clip-rule="evenodd" d="M10.7091 11.4902C10.7091 11.4902 9.88422 11.4722 9.88422 11.8511C9.88422 12.2301 9.88422 12.6499 10.2966 12.44C10.7091 12.2301 11.2133 12.1472 11.48 12.2936C11.7467 12.44 12.3682 12.7375 13.2442 12.7375C14.1203 12.7375 14.0618 12.44 14.8686 12.44C15.6754 12.44 17.1159 12.3758 16.7823 12.1135C16.4487 11.8511 16.0561 11.6851 15.7563 11.6851C15.4566 11.6851 15.2267 11.6851 14.5965 11.3762C13.9662 11.0673 13.2626 11.0393 12.5536 11.1389C11.8446 11.2386 11.751 11.4902 11.3317 11.4902C10.9124 11.4902 10.7091 11.4902 10.7091 11.4902Z" fill="#247805"/>
<path d="M13.575 12.7375C13.6455 12.9774 13.6456 12.9773 13.6457 12.9773L13.646 12.9772L13.6466 12.9771L13.6482 12.9766L13.6531 12.9751L13.6693 12.97C13.6827 12.9656 13.7015 12.9593 13.7249 12.9508C13.7716 12.9341 13.8369 12.9088 13.9145 12.8741C14.0692 12.805 14.2765 12.6965 14.4853 12.5392C14.9035 12.224 15.3447 11.697 15.3447 10.8939V10.8879V10.8819V10.876V10.87V10.864V10.8581V10.8521V10.8462V10.8403V10.8343V10.8284V10.8225V10.8165V10.8106V10.8047V10.7988V10.7929V10.787V10.7811V10.7752V10.7693V10.7634V10.7575V10.7517V10.7458V10.7399V10.7341V10.7282V10.7224V10.7165V10.7107V10.7048V10.699V10.6932V10.6874V10.6815V10.6757V10.6699V10.6641V10.6583V10.6525V10.6467V10.641V10.6352V10.6294V10.6236V10.6179V10.6121V10.6064V10.6006V10.5949V10.5892V10.5834V10.5777V10.572V10.5663V10.5606V10.5549V10.5492V10.5435V10.5378V10.5321V10.5265V10.5208V10.5151V10.5095V10.5038V10.4982V10.4926V10.4869V10.4813V10.4757V10.4701V10.4645V10.4589V10.4533V10.4477V10.4421V10.4365V10.431V10.4254V10.4198V10.4143V10.4087V10.4032V10.3977V10.3922V10.3866V10.3811V10.3756V10.3701V10.3646V10.3591V10.3537V10.3482V10.3427V10.3373V10.3318V10.3264V10.3209V10.3155V10.3101V10.3047V10.2993V10.2939V10.2885V10.2831V10.2777V10.2723V10.267V10.2616V10.2563V10.2509V10.2456V10.2403V10.2349V10.2296V10.2243V10.219V10.2137V10.2084V10.2032V10.1979V10.1926V10.1874V10.1821V10.1769V10.1717V10.1664V10.1612V10.156V10.1508V10.1456V10.1404V10.1353V10.1301V10.1249V10.1198V10.1146V10.1095V10.1044V10.0993V10.0942V10.089V10.084V10.0789V10.0738V10.0687V10.0637V10.0586V10.0536V10.0485V10.0435V10.0385V10.0335V10.0285V10.0235V10.0185V10.0135V10.0086V10.0036V9.99865V9.99371V9.98878V9.98386V9.97895V9.97404V9.96915V9.96426V9.95938V9.95451V9.94965V9.9448V9.93996V9.93513V9.93031V9.9255V9.92069V9.9159V9.91111V9.90634V9.90157V9.89681V9.89206V9.88733V9.8826V9.87788V9.87317V9.86847V9.86378V9.8591V9.85443V9.84977V9.84511V9.84047V9.83584V9.83122V9.82661V9.822V9.81741V9.81283V9.80826V9.80369V9.79914V9.7946V9.79007V9.78555V9.78103V9.77653V9.77204V9.76756V9.76309V9.75863V9.75418V9.74974V9.74531V9.74089V9.73648V9.73209V9.7277V9.72332V9.71896V9.7146V9.71026V9.70592V9.7016V9.69729V9.69299V9.68869V9.68441V9.68015V9.67589V9.67164V9.6674V9.66318V9.65896V9.65476V9.65057V9.64639V9.64222V9.63806V9.63391V9.62978V9.62565V9.62154V9.61744V9.61334V9.60927V9.6052V9.60114V9.5971V9.59306V9.58904V9.58503V9.58103V9.57704V9.57307V9.5691V9.56515V9.56121V9.55728V9.55337V9.54946V9.54557V9.54169V9.53782V9.53396V9.53012V9.52628V9.52246V9.51865V9.51486V9.51107V9.5073V9.50354V9.49979V9.49605V9.49233V9.48862V9.48492V9.48124V9.47756V9.4739V9.47025V9.46661V9.46299V9.45938V9.45578V9.45219V9.44862V9.44506V9.44151V9.43798V9.43445V9.43094V9.42745V9.42396V9.42049V9.41704V9.41359V9.41016V9.40674V9.40333V9.39994V9.39656V9.39319V9.38984V9.3865V9.38317V9.37986V9.37656V9.37327V9.37V9.36674V9.36349V9.36026V9.35704V9.35383V9.35064V9.34746V9.3443V9.34114V9.33801V9.33488V9.33177V9.32867V9.32559V9.32252V9.31946V9.31642V9.3134V9.31038V9.30738V9.3044V9.30142V9.29847V9.29552V9.29259V9.28968V9.28678V9.28389V9.28102V9.27816V9.27531V9.27248V9.26967V9.26687V9.26408V9.26131V9.25855V9.25581V9.25308V9.25037V9.24767V9.24498V9.24231V9.23966V9.23702V9.23439V9.23178V9.22918V9.2266V9.22403V9.22148V9.21895V9.21642V9.21392V9.21143V9.20895V9.20649V9.20404V9.20161V9.19919V9.19679V9.19441V9.19204V9.18968V9.18734V9.18502V9.18271V9.18042V9.17814V9.17588V9.17363V9.1714V9.16918V9.16698V9.1648V9.16263V9.16048V9.15834V9.15622V9.15411V9.15202V9.14995V9.14789V9.14585V9.14382V9.14181V9.13982V9.13784V9.13587V9.13393V9.132V9.13008V9.12819V9.1263V9.12444V9.12259V9.12076V9.11894V9.11714V9.11536V9.11359V9.11184V9.11011V9.10839V9.10669V9.105V9.10333V9.10168V9.10005V9.09843V9.09683V9.09525V9.09368V9.09213V9.09059V9.08908V9.08758V9.08609V9.08463V9.08318V9.08175V9.08033V9.07893V9.07755V9.07619V9.07484V9.07351V9.0722V9.0709V9.06963V9.06837V9.06712V9.0659V9.06469V9.0635V9.06233V9.06117V9.06003V9.05891V9.05781V9.05673V9.05566V9.05461V9.05358V9.05256V9.05157V9.05059V9.04963V9.04869V9.04776V9.04685V9.04596V9.04509V9.04424V9.04341V9.04259V9.04179V9.04101V9.04025V9.0395V9.03878V9.03807V9.03738V9.03671V9.03606V9.03542V9.03481V9.03421V9.03363V9.03307V9.03253V9.03201V9.0315V9.03102V9.03055V9.0301V9.02967V9.02926V9.02887V9.0285V9.02814V9.02781V9.02749V9.02719V9.02692V9.02666V9.02641V9.02619V9.02599V9.02581V9.02564V9.0255V9.02537V9.02527V9.02518V9.02511V9.02506V9.02503L15.0947 9.02502H15.3447V8.77502H15.0947H12.0553H11.8053V9.02502H12.0553L11.8053 9.02504V9.02507V9.02513V9.02521V9.02531V9.02544V9.02559V9.02576V9.02595V9.02617V9.02641V9.02667V9.02696V9.02727V9.0276V9.02795V9.02832V9.02872V9.02914V9.02958V9.03004V9.03053V9.03104V9.03156V9.03212V9.03269V9.03328V9.0339V9.03454V9.0352V9.03588V9.03658V9.0373V9.03805V9.03882V9.0396V9.04041V9.04124V9.0421V9.04297V9.04386V9.04478V9.04571V9.04667V9.04765V9.04865V9.04967V9.0507V9.05177V9.05285V9.05395V9.05507V9.05621V9.05737V9.05856V9.05976V9.06098V9.06223V9.06349V9.06478V9.06608V9.0674V9.06875V9.07011V9.07149V9.0729V9.07432V9.07576V9.07722V9.07871V9.08021V9.08173V9.08327V9.08483V9.08641V9.088V9.08962V9.09126V9.09291V9.09459V9.09628V9.09799V9.09972V9.10147V9.10324V9.10503V9.10683V9.10866V9.1105V9.11236V9.11424V9.11614V9.11806V9.11999V9.12194V9.12392V9.12591V9.12791V9.12994V9.13198V9.13404V9.13612V9.13822V9.14034V9.14247V9.14462V9.14679V9.14897V9.15118V9.1534V9.15563V9.15789V9.16016V9.16245V9.16476V9.16708V9.16943V9.17178V9.17416V9.17655V9.17896V9.18139V9.18383V9.18629V9.18877V9.19126V9.19377V9.19629V9.19884V9.20139V9.20397V9.20656V9.20917V9.21179V9.21443V9.21709V9.21976V9.22245V9.22516V9.22788V9.23061V9.23336V9.23613V9.23891V9.24171V9.24453V9.24736V9.2502V9.25306V9.25594V9.25883V9.26174V9.26466V9.2676V9.27055V9.27352V9.2765V9.2795V9.28251V9.28554V9.28858V9.29164V9.29471V9.2978V9.3009V9.30401V9.30714V9.31029V9.31345V9.31662V9.31981V9.32301V9.32623V9.32946V9.3327V9.33596V9.33923V9.34252V9.34582V9.34913V9.35246V9.3558V9.35915V9.36252V9.3659V9.3693V9.37271V9.37613V9.37957V9.38302V9.38648V9.38995V9.39344V9.39695V9.40046V9.40399V9.40753V9.41108V9.41465V9.41823V9.42182V9.42543V9.42904V9.43267V9.43632V9.43997V9.44364V9.44732V9.45101V9.45471V9.45843V9.46216V9.4659V9.46965V9.47342V9.4772V9.48098V9.48479V9.4886V9.49242V9.49626V9.50011V9.50396V9.50784V9.51172V9.51561V9.51952V9.52343V9.52736V9.5313V9.53525V9.53921V9.54318V9.54717V9.55116V9.55516V9.55918V9.56321V9.56724V9.57129V9.57535V9.57942V9.5835V9.58759V9.59169V9.5958V9.59993V9.60406V9.6082V9.61235V9.61652V9.62069V9.62487V9.62906V9.63327V9.63748V9.6417V9.64593V9.65018V9.65443V9.65869V9.66296V9.66724V9.67153V9.67583V9.68014V9.68445V9.68878V9.69312V9.69746V9.70182V9.70618V9.71055V9.71493V9.71932V9.72372V9.72813V9.73255V9.73697V9.74141V9.74585V9.7503V9.75476V9.75923V9.76371V9.76819V9.77268V9.77718V9.78169V9.78621V9.79074V9.79527V9.79981V9.80436V9.80892V9.81348V9.81806V9.82264V9.82722V9.83182V9.83642V9.84103V9.84565V9.85028V9.85491V9.85955V9.8642V9.86885V9.87352V9.87818V9.88286V9.88754V9.89223V9.89693V9.90163V9.90634V9.91106V9.91578V9.92051V9.92525V9.92999V9.93474V9.9395V9.94426V9.94903V9.9538V9.95859V9.96337V9.96817V9.97297V9.97777V9.98258V9.9874V9.99222V9.99705V10.0019V10.0067V10.0116V10.0164V10.0213V10.0261V10.031V10.0359V10.0408V10.0456V10.0505V10.0554V10.0603V10.0652V10.0701V10.0751V10.08V10.0849V10.0898V10.0948V10.0997V10.1046V10.1096V10.1145V10.1195V10.1245V10.1294V10.1344V10.1394V10.1443V10.1493V10.1543V10.1593V10.1643V10.1693V10.1743V10.1793V10.1843V10.1893V10.1943V10.1994V10.2044V10.2094V10.2144V10.2195V10.2245V10.2296V10.2346V10.2396V10.2447V10.2498V10.2548V10.2599V10.2649V10.27V10.2751V10.2801V10.2852V10.2903V10.2954V10.3005V10.3055V10.3106V10.3157V10.3208V10.3259V10.331V10.3361V10.3412V10.3463V10.3514V10.3565V10.3616V10.3667V10.3719V10.377V10.3821V10.3872V10.3923V10.3975V10.4026V10.4077V10.4128V10.418V10.4231V10.4282V10.4334V10.4385V10.4436V10.4488V10.4539V10.459V10.4642V10.4693V10.4745V10.4796V10.4847V10.4899V10.495V10.5002V10.5053V10.5105V10.5156V10.5207V10.5259V10.531V10.5362V10.5413V10.5465V10.5671V10.5876V10.6082V10.6494V10.6904V10.7314V10.7723V10.813V10.8535V10.8737V10.8939C11.8053 11.6779 12.2483 12.2042 12.663 12.5223C12.8708 12.6818 13.0773 12.794 13.2312 12.8663C13.3085 12.9026 13.3735 12.9293 13.4199 12.9472C13.4431 12.9562 13.4618 12.9629 13.4751 12.9676L13.4911 12.9731L13.4959 12.9747L13.4975 12.9752L13.4981 12.9754L13.4983 12.9755C13.4984 12.9755 13.4985 12.9755 13.575 12.7375ZM13.575 12.7375L13.6455 12.9774L13.5717 12.9991L13.4985 12.9755L13.575 12.7375Z" fill="white" stroke="#565656" stroke-width="0.5"/>
<mask id="mask2_701_24362" style="mask-type:alpha" maskUnits="userSpaceOnUse" x="11" y="8" width="5" height="6">
<path d="M13.575 12.7375C13.6455 12.9774 13.6456 12.9773 13.6457 12.9773L13.646 12.9772L13.6466 12.9771L13.6482 12.9766L13.6531 12.9751L13.6693 12.97C13.6827 12.9656 13.7015 12.9593 13.7249 12.9508C13.7716 12.9341 13.8369 12.9088 13.9145 12.8741C14.0692 12.805 14.2765 12.6965 14.4853 12.5392C14.9035 12.224 15.3447 11.697 15.3447 10.8939V10.8879V10.8819V10.876V10.87V10.864V10.8581V10.8521V10.8462V10.8403V10.8343V10.8284V10.8225V10.8165V10.8106V10.8047V10.7988V10.7929V10.787V10.7811V10.7752V10.7693V10.7634V10.7575V10.7517V10.7458V10.7399V10.7341V10.7282V10.7224V10.7165V10.7107V10.7048V10.699V10.6932V10.6874V10.6815V10.6757V10.6699V10.6641V10.6583V10.6525V10.6467V10.641V10.6352V10.6294V10.6236V10.6179V10.6121V10.6064V10.6006V10.5949V10.5892V10.5834V10.5777V10.572V10.5663V10.5606V10.5549V10.5492V10.5435V10.5378V10.5321V10.5265V10.5208V10.5151V10.5095V10.5038V10.4982V10.4926V10.4869V10.4813V10.4757V10.4701V10.4645V10.4589V10.4533V10.4477V10.4421V10.4365V10.431V10.4254V10.4198V10.4143V10.4087V10.4032V10.3977V10.3922V10.3866V10.3811V10.3756V10.3701V10.3646V10.3591V10.3537V10.3482V10.3427V10.3373V10.3318V10.3264V10.3209V10.3155V10.3101V10.3047V10.2993V10.2939V10.2885V10.2831V10.2777V10.2723V10.267V10.2616V10.2563V10.2509V10.2456V10.2403V10.2349V10.2296V10.2243V10.219V10.2137V10.2084V10.2032V10.1979V10.1926V10.1874V10.1821V10.1769V10.1717V10.1664V10.1612V10.156V10.1508V10.1456V10.1404V10.1353V10.1301V10.1249V10.1198V10.1146V10.1095V10.1044V10.0993V10.0942V10.089V10.084V10.0789V10.0738V10.0687V10.0637V10.0586V10.0536V10.0485V10.0435V10.0385V10.0335V10.0285V10.0235V10.0185V10.0135V10.0086V10.0036V9.99865V9.99371V9.98878V9.98386V9.97895V9.97404V9.96915V9.96426V9.95938V9.95451V9.94965V9.9448V9.93996V9.93513V9.93031V9.9255V9.92069V9.9159V9.91111V9.90634V9.90157V9.89681V9.89206V9.88733V9.8826V9.87788V9.87317V9.86847V9.86378V9.8591V9.85443V9.84977V9.84511V9.84047V9.83584V9.83122V9.82661V9.822V9.81741V9.81283V9.80826V9.80369V9.79914V9.7946V9.79007V9.78555V9.78103V9.77653V9.77204V9.76756V9.76309V9.75863V9.75418V9.74974V9.74531V9.74089V9.73648V9.73209V9.7277V9.72332V9.71896V9.7146V9.71026V9.70592V9.7016V9.69729V9.69299V9.68869V9.68441V9.68015V9.67589V9.67164V9.6674V9.66318V9.65896V9.65476V9.65057V9.64639V9.64222V9.63806V9.63391V9.62978V9.62565V9.62154V9.61744V9.61334V9.60927V9.6052V9.60114V9.5971V9.59306V9.58904V9.58503V9.58103V9.57704V9.57307V9.5691V9.56515V9.56121V9.55728V9.55337V9.54946V9.54557V9.54169V9.53782V9.53396V9.53012V9.52628V9.52246V9.51865V9.51486V9.51107V9.5073V9.50354V9.49979V9.49605V9.49233V9.48862V9.48492V9.48124V9.47756V9.4739V9.47025V9.46661V9.46299V9.45938V9.45578V9.45219V9.44862V9.44506V9.44151V9.43798V9.43445V9.43094V9.42745V9.42396V9.42049V9.41704V9.41359V9.41016V9.40674V9.40333V9.39994V9.39656V9.39319V9.38984V9.3865V9.38317V9.37986V9.37656V9.37327V9.37V9.36674V9.36349V9.36026V9.35704V9.35383V9.35064V9.34746V9.3443V9.34114V9.33801V9.33488V9.33177V9.32867V9.32559V9.32252V9.31946V9.31642V9.3134V9.31038V9.30738V9.3044V9.30142V9.29847V9.29552V9.29259V9.28968V9.28678V9.28389V9.28102V9.27816V9.27531V9.27248V9.26967V9.26687V9.26408V9.26131V9.25855V9.25581V9.25308V9.25037V9.24767V9.24498V9.24231V9.23966V9.23702V9.23439V9.23178V9.22918V9.2266V9.22403V9.22148V9.21895V9.21642V9.21392V9.21143V9.20895V9.20649V9.20404V9.20161V9.19919V9.19679V9.19441V9.19204V9.18968V9.18734V9.18502V9.18271V9.18042V9.17814V9.17588V9.17363V9.1714V9.16918V9.16698V9.1648V9.16263V9.16048V9.15834V9.15622V9.15411V9.15202V9.14995V9.14789V9.14585V9.14382V9.14181V9.13982V9.13784V9.13587V9.13393V9.132V9.13008V9.12819V9.1263V9.12444V9.12259V9.12076V9.11894V9.11714V9.11536V9.11359V9.11184V9.11011V9.10839V9.10669V9.105V9.10333V9.10168V9.10005V9.09843V9.09683V9.09525V9.09368V9.09213V9.09059V9.08908V9.08758V9.08609V9.08463V9.08318V9.08175V9.08033V9.07893V9.07755V9.07619V9.07484V9.07351V9.0722V9.0709V9.06963V9.06837V9.06712V9.0659V9.06469V9.0635V9.06233V9.06117V9.06003V9.05891V9.05781V9.05673V9.05566V9.05461V9.05358V9.05256V9.05157V9.05059V9.04963V9.04869V9.04776V9.04685V9.04596V9.04509V9.04424V9.04341V9.04259V9.04179V9.04101V9.04025V9.0395V9.03878V9.03807V9.03738V9.03671V9.03606V9.03542V9.03481V9.03421V9.03363V9.03307V9.03253V9.03201V9.0315V9.03102V9.03055V9.0301V9.02967V9.02926V9.02887V9.0285V9.02814V9.02781V9.02749V9.02719V9.02692V9.02666V9.02641V9.02619V9.02599V9.02581V9.02564V9.0255V9.02537V9.02527V9.02518V9.02511V9.02506V9.02503L15.0947 9.02502H15.3447V8.77502H15.0947H12.0553H11.8053V9.02502H12.0553L11.8053 9.02504V9.02507V9.02513V9.02521V9.02531V9.02544V9.02559V9.02576V9.02595V9.02617V9.02641V9.02667V9.02696V9.02727V9.0276V9.02795V9.02832V9.02872V9.02914V9.02958V9.03004V9.03053V9.03104V9.03156V9.03212V9.03269V9.03328V9.0339V9.03454V9.0352V9.03588V9.03658V9.0373V9.03805V9.03882V9.0396V9.04041V9.04124V9.0421V9.04297V9.04386V9.04478V9.04571V9.04667V9.04765V9.04865V9.04967V9.0507V9.05177V9.05285V9.05395V9.05507V9.05621V9.05737V9.05856V9.05976V9.06098V9.06223V9.06349V9.06478V9.06608V9.0674V9.06875V9.07011V9.07149V9.0729V9.07432V9.07576V9.07722V9.07871V9.08021V9.08173V9.08327V9.08483V9.08641V9.088V9.08962V9.09126V9.09291V9.09459V9.09628V9.09799V9.09972V9.10147V9.10324V9.10503V9.10683V9.10866V9.1105V9.11236V9.11424V9.11614V9.11806V9.11999V9.12194V9.12392V9.12591V9.12791V9.12994V9.13198V9.13404V9.13612V9.13822V9.14034V9.14247V9.14462V9.14679V9.14897V9.15118V9.1534V9.15563V9.15789V9.16016V9.16245V9.16476V9.16708V9.16943V9.17178V9.17416V9.17655V9.17896V9.18139V9.18383V9.18629V9.18877V9.19126V9.19377V9.19629V9.19884V9.20139V9.20397V9.20656V9.20917V9.21179V9.21443V9.21709V9.21976V9.22245V9.22516V9.22788V9.23061V9.23336V9.23613V9.23891V9.24171V9.24453V9.24736V9.2502V9.25306V9.25594V9.25883V9.26174V9.26466V9.2676V9.27055V9.27352V9.2765V9.2795V9.28251V9.28554V9.28858V9.29164V9.29471V9.2978V9.3009V9.30401V9.30714V9.31029V9.31345V9.31662V9.31981V9.32301V9.32623V9.32946V9.3327V9.33596V9.33923V9.34252V9.34582V9.34913V9.35246V9.3558V9.35915V9.36252V9.3659V9.3693V9.37271V9.37613V9.37957V9.38302V9.38648V9.38995V9.39344V9.39695V9.40046V9.40399V9.40753V9.41108V9.41465V9.41823V9.42182V9.42543V9.42904V9.43267V9.43632V9.43997V9.44364V9.44732V9.45101V9.45471V9.45843V9.46216V9.4659V9.46965V9.47342V9.4772V9.48098V9.48479V9.4886V9.49242V9.49626V9.50011V9.50396V9.50784V9.51172V9.51561V9.51952V9.52343V9.52736V9.5313V9.53525V9.53921V9.54318V9.54717V9.55116V9.55516V9.55918V9.56321V9.56724V9.57129V9.57535V9.57942V9.5835V9.58759V9.59169V9.5958V9.59993V9.60406V9.6082V9.61235V9.61652V9.62069V9.62487V9.62906V9.63327V9.63748V9.6417V9.64593V9.65018V9.65443V9.65869V9.66296V9.66724V9.67153V9.67583V9.68014V9.68445V9.68878V9.69312V9.69746V9.70182V9.70618V9.71055V9.71493V9.71932V9.72372V9.72813V9.73255V9.73697V9.74141V9.74585V9.7503V9.75476V9.75923V9.76371V9.76819V9.77268V9.77718V9.78169V9.78621V9.79074V9.79527V9.79981V9.80436V9.80892V9.81348V9.81806V9.82264V9.82722V9.83182V9.83642V9.84103V9.84565V9.85028V9.85491V9.85955V9.8642V9.86885V9.87352V9.87818V9.88286V9.88754V9.89223V9.89693V9.90163V9.90634V9.91106V9.91578V9.92051V9.92525V9.92999V9.93474V9.9395V9.94426V9.94903V9.9538V9.95859V9.96337V9.96817V9.97297V9.97777V9.98258V9.9874V9.99222V9.99705V10.0019V10.0067V10.0116V10.0164V10.0213V10.0261V10.031V10.0359V10.0408V10.0456V10.0505V10.0554V10.0603V10.0652V10.0701V10.0751V10.08V10.0849V10.0898V10.0948V10.0997V10.1046V10.1096V10.1145V10.1195V10.1245V10.1294V10.1344V10.1394V10.1443V10.1493V10.1543V10.1593V10.1643V10.1693V10.1743V10.1793V10.1843V10.1893V10.1943V10.1994V10.2044V10.2094V10.2144V10.2195V10.2245V10.2296V10.2346V10.2396V10.2447V10.2498V10.2548V10.2599V10.2649V10.27V10.2751V10.2801V10.2852V10.2903V10.2954V10.3005V10.3055V10.3106V10.3157V10.3208V10.3259V10.331V10.3361V10.3412V10.3463V10.3514V10.3565V10.3616V10.3667V10.3719V10.377V10.3821V10.3872V10.3923V10.3975V10.4026V10.4077V10.4128V10.418V10.4231V10.4282V10.4334V10.4385V10.4436V10.4488V10.4539V10.459V10.4642V10.4693V10.4745V10.4796V10.4847V10.4899V10.495V10.5002V10.5053V10.5105V10.5156V10.5207V10.5259V10.531V10.5362V10.5413V10.5465V10.5671V10.5876V10.6082V10.6494V10.6904V10.7314V10.7723V10.813V10.8535V10.8737V10.8939C11.8053 11.6779 12.2483 12.2042 12.663 12.5223C12.8708 12.6818 13.0773 12.794 13.2312 12.8663C13.3085 12.9026 13.3735 12.9293 13.4199 12.9472C13.4431 12.9562 13.4618 12.9629 13.4751 12.9676L13.4911 12.9731L13.4959 12.9747L13.4975 12.9752L13.4981 12.9754L13.4983 12.9755C13.4984 12.9755 13.4985 12.9755 13.575 12.7375ZM13.575 12.7375L13.6455 12.9774L13.5717 12.9991L13.4985 12.9755L13.575 12.7375Z" fill="white" stroke="white" stroke-width="0.5"/>
</mask>
<g mask="url(#mask2_701_24362)">
<path opacity="0.4" fill-rule="evenodd" clip-rule="evenodd" d="M12.1476 11.4316L13.5976 10.3635L15.1223 11.5527V13.2454H12.1476V11.4316Z" fill="#84CEFF"/>
<path fill-rule="evenodd" clip-rule="evenodd" d="M12.1934 11.8094H14.8875V12.1844H12.1934V11.8094Z" fill="#006AC9"/>
<path fill-rule="evenodd" clip-rule="evenodd" d="M12.3316 12.1807H14.8184V12.3795H12.3316V12.1807Z" fill="#59C800"/>
<path fill-rule="evenodd" clip-rule="evenodd" d="M12.3316 12.4281H14.8184V12.8031H12.3316V12.4281Z" fill="#FFD800"/>
<path fill-rule="evenodd" clip-rule="evenodd" d="M15.5448 11.8831L13.6021 10.3995L13.6021 8.39685H15.5448V11.8831Z" fill="#F7D85D"/>
<path fill-rule="evenodd" clip-rule="evenodd" d="M13.1605 11.0669C13.1605 11.0669 13.2219 11.3856 13.2689 11.3856C13.3159 11.3856 13.4008 11.0669 13.4008 11.0669C13.4008 11.0669 13.4108 11.3856 13.4581 11.3856C13.5054 11.3856 13.4995 11.1185 13.575 11.0669C13.6023 11.0482 13.6368 11.3839 13.6788 11.3856C13.7141 11.3869 13.8003 11.0669 13.8003 11.0669C13.8003 11.0669 13.8264 11.3856 13.8672 11.3856C13.9079 11.3856 13.9895 11.0669 13.9895 11.0669V11.8713H13.1605V11.0669Z" fill="#F5F6F6"/>
<path fill-rule="evenodd" clip-rule="evenodd" d="M13.575 12.1301C13.9947 12.1301 14.3349 12.0583 14.3349 11.9698C14.3349 11.8812 13.9947 11.8094 13.575 11.8094C13.1553 11.8094 12.8151 11.8812 12.8151 11.9698C12.8151 12.0583 13.1553 12.1301 13.575 12.1301Z" fill="#892E2E"/>
<path d="M12.217 9.32815L12.3733 9.20618L13.4239 10.2858L13.2676 10.4078L12.217 9.32815Z" fill="#A46031"/>
<path d="M12.386 10.5756L12.2201 10.4644L13.2418 9.24109L13.4077 9.35228L12.386 10.5756Z" fill="#892E2E"/>
<path d="M13.8059 9.48857L13.9621 9.39172L15.0127 10.249L14.8565 10.3458L13.8059 9.48857Z" fill="#A46031"/>
<path d="M14.0257 10.3645L13.8313 10.2324L14.8306 9.42664L15.0437 9.60213L14.0257 10.3645Z" fill="#F5F6F6"/>
</g>
<path fill-rule="evenodd" clip-rule="evenodd" d="M12.4252 13.4011L12.913 13.554V13.975H12.4252V13.4011Z" fill="#6699FF"/>
<path fill-rule="evenodd" clip-rule="evenodd" d="M12.0767 12.5403L12.3512 12.6931V13.1142H12.0767V12.5403Z" fill="#6699FF"/>
<path fill-rule="evenodd" clip-rule="evenodd" d="M14.6552 13.4011L14.1673 13.554V13.975H14.6552V13.4011Z" fill="#6699FF"/>
<path fill-rule="evenodd" clip-rule="evenodd" d="M15.0036 12.5403L14.7292 12.6931V13.1142H15.0036V12.5403Z" fill="#6699FF"/>
<path d="M11.8109 13.4322C11.7216 13.4322 11.6472 13.4343 11.5623 13.4384C11.3563 13.4482 11.3433 13.448 11.2865 13.4246C11.2523 13.4106 11.2182 13.3879 11.1692 13.3476C11.0529 13.2522 10.9275 13.0328 10.7914 12.6886L10.7918 12.6741C10.9598 12.311 11.3051 12.266 11.8188 12.5352C11.9541 12.6061 12.3486 12.8205 12.3453 12.8188C12.5247 12.9148 12.6505 12.9763 12.7742 13.0261C13.0306 13.1293 13.2723 13.1762 13.5823 13.1762C13.7685 13.1762 13.9841 13.1232 14.2357 13.0233C14.3811 12.9656 14.5323 12.8951 14.7168 12.8015C14.7411 12.7891 15.1271 12.5884 15.2226 12.5424C15.3897 12.462 15.4998 12.4231 15.5758 12.4231C15.5965 12.4231 15.6125 12.423 15.6526 12.4227C15.722 12.4223 15.7549 12.4223 15.795 12.4228C16.1653 12.4273 16.348 12.489 16.348 12.6818C16.348 12.864 16.2295 13.1112 15.9933 13.4252L15.9818 13.432C15.5144 13.4951 15.2433 13.4951 15.1599 13.4284C15.1372 13.4103 15.0749 13.4185 14.9603 13.4553C14.9084 13.4719 14.6306 13.5712 14.5447 13.5997C14.1873 13.7182 13.881 13.7818 13.5691 13.7818C13.094 13.7818 12.5741 13.5976 12.0092 13.2294C12.1116 13.3596 12.0468 13.4322 11.8109 13.4322Z" fill="white"/>
<path fill-rule="evenodd" clip-rule="evenodd" d="M11.5623 13.4384C11.6472 13.4343 11.7216 13.4322 11.8109 13.4322C12.0468 13.4322 12.1116 13.3596 12.0092 13.2294C12.5741 13.5976 13.094 13.7818 13.5691 13.7818C13.881 13.7818 14.1873 13.7182 14.5447 13.5997C14.5884 13.5852 14.6817 13.5524 14.7696 13.5215C14.8547 13.4916 14.9348 13.4634 14.9603 13.4553C15.0749 13.4185 15.1372 13.4103 15.1599 13.4284C15.2433 13.4951 15.5144 13.4951 15.9818 13.432L15.9933 13.4252C16.2295 13.1112 16.348 12.864 16.348 12.6818C16.348 12.489 16.1653 12.4273 15.795 12.4228C15.7549 12.4223 15.722 12.4223 15.6526 12.4227L15.5758 12.4231C15.4998 12.4231 15.3897 12.462 15.2226 12.5424C15.1471 12.5787 14.89 12.7118 14.7737 12.7721C14.7428 12.788 14.7219 12.7989 14.7168 12.8015C14.5323 12.8951 14.3811 12.9656 14.2357 13.0233C13.9841 13.1232 13.7685 13.1762 13.5823 13.1762C13.2723 13.1762 13.0306 13.1293 12.7742 13.0261C12.6505 12.9763 12.5247 12.9148 12.3453 12.8188C12.3486 12.8205 11.9541 12.6061 11.8188 12.5352C11.3051 12.266 10.9598 12.311 10.7918 12.6741L10.7914 12.6886C10.9275 13.0328 11.0529 13.2522 11.1692 13.3476C11.2182 13.3879 11.2523 13.4106 11.2865 13.4246C11.3433 13.448 11.3563 13.4482 11.5623 13.4384ZM11.2994 13.3913C11.269 13.3788 11.2375 13.3579 11.1909 13.3196C11.0814 13.2297 10.9594 13.017 10.8266 12.6824C10.9857 12.3476 11.3082 12.3079 11.803 12.5672C11.938 12.6379 12.3323 12.8522 12.3292 12.8506C12.5097 12.9472 12.6365 13.0091 12.7615 13.0595C13.0219 13.1643 13.268 13.212 13.5823 13.212C13.7735 13.212 13.993 13.1582 14.2483 13.0568C14.3947 12.9986 14.5469 12.9277 14.7322 12.8336C14.7374 12.831 14.7587 12.8199 14.79 12.8038C14.9068 12.7433 15.1625 12.6109 15.2374 12.5749C15.3998 12.4967 15.5067 12.4589 15.5758 12.4589L15.6528 12.4586C15.722 12.4582 15.7548 12.4582 15.7946 12.4586C16.1453 12.4629 16.3132 12.5196 16.3132 12.6818C16.3132 12.8529 16.1991 13.092 15.9701 13.3974C15.519 13.4579 15.2532 13.4576 15.1813 13.4001C15.1451 13.3712 15.0773 13.3802 14.95 13.421C14.924 13.4293 14.843 13.4578 14.7574 13.4879C14.6697 13.5187 14.5772 13.5513 14.534 13.5656C14.1798 13.683 13.8768 13.746 13.5691 13.746C13.0442 13.746 12.4614 13.5167 11.8208 13.0574L11.8006 13.0866C12.093 13.3063 12.093 13.3963 11.8109 13.3963C11.721 13.3963 11.6461 13.3984 11.5606 13.4025C11.3619 13.412 11.3493 13.4118 11.2994 13.3913Z" fill="#666666"/>
<path d="M11.2712 12.8566L11.2209 12.807C11.3345 12.6846 11.485 12.6538 11.6663 12.7137C11.7369 12.737 12.1963 13.0026 12.319 13.0649C12.7674 13.2925 13.1942 13.4197 13.6476 13.4197C14.2994 13.4197 14.929 13.2139 15.5347 12.8036C15.7636 12.618 15.9068 12.618 15.9068 12.8318H15.8371C15.8371 12.7042 15.7699 12.7042 15.5754 12.8617C14.9563 13.2813 14.3135 13.4914 13.6476 13.4914C13.1821 13.4914 12.7454 13.3613 12.2882 13.1292C12.1596 13.064 11.7077 12.8027 11.645 12.782C11.4879 12.7301 11.3654 12.7552 11.2712 12.8566Z" fill="#565757"/>
<path fill-rule="evenodd" clip-rule="evenodd" d="M13.8677 6.20776L13.732 6.20844C13.7353 6.76533 13.6106 7.11712 13.3677 7.26821C13.3486 7.28013 13.3246 7.29433 13.2983 7.30957C13.2754 7.24771 13.2456 7.17301 13.2074 7.07951L13.1953 7.04984C13.0512 6.69512 13.019 6.53151 13.0931 6.4878L13.0196 6.38307C12.8564 6.47947 12.8917 6.65893 13.0682 7.09336L13.0803 7.12316C13.1242 7.23067 13.1565 7.31234 13.1797 7.37714L13.1651 7.38539C13.1578 7.3895 13.1506 7.39355 13.1436 7.39751C13.0731 7.36165 12.9915 7.34361 12.8985 7.34361C12.4667 7.34361 12.1676 7.23051 11.9938 7.00674L11.8833 7.07903C12.0855 7.33925 12.4263 7.46814 12.8985 7.46814C12.9371 7.46814 12.9732 7.47277 13.007 7.48208C12.9382 7.54069 12.929 7.6021 12.929 7.81325C12.929 7.94545 12.9576 8.12085 13.0146 8.34007C12.9706 8.28386 12.9297 8.25729 12.8882 8.25729V8.38181C12.8822 8.38181 12.8782 8.38092 12.8766 8.38056L12.876 8.38043L12.8754 8.37989L12.8747 8.37949L12.8762 8.38063L12.876 8.38043C12.8801 8.38349 12.8859 8.38905 12.8928 8.39705C12.9117 8.41916 12.9349 8.45479 12.9613 8.5033C13.0165 8.60455 13.0842 8.75836 13.1641 8.96407L13.2059 8.95039L13.2092 8.95966L13.2317 8.95295V8.9567H13.2745L13.2752 8.99126L13.4108 8.98845C13.4105 8.97528 13.4103 8.96226 13.4101 8.94937L13.4355 8.95226C13.4631 8.74883 13.4791 8.56423 13.4835 8.39871C13.5311 8.267 13.6014 8.1717 13.6933 8.11237C13.9249 7.96301 14.0608 7.81939 14.098 7.67687L13.966 7.64788C13.9382 7.75452 13.8224 7.87694 13.6153 8.01049C13.5642 8.04349 13.5189 8.08416 13.4794 8.13247C13.4664 7.92787 13.4293 7.7624 13.3673 7.63684V7.60006C13.3673 7.54952 13.3599 7.50017 13.3401 7.43266C13.3786 7.41055 13.4154 7.38902 13.4439 7.37128C13.7332 7.19129 13.8712 6.80198 13.8677 6.20776ZM13.1347 7.54898C13.1717 7.57994 13.2041 7.61986 13.2317 7.66882V8.60439C13.1203 8.25163 13.0647 7.98731 13.0647 7.81325C13.0647 7.61828 13.0702 7.59361 13.1155 7.56073C13.1183 7.55869 13.125 7.55463 13.1347 7.54898Z" fill="#984800"/>
<path fill-rule="evenodd" clip-rule="evenodd" d="M14.2374 6.31403C14.1348 6.34415 14.0032 6.35161 13.8634 6.32947C13.7088 6.30499 13.5749 6.24917 13.4856 6.17966C13.4911 6.19696 13.4938 6.2147 13.4935 6.23273C13.4905 6.40464 13.2147 6.53923 12.8776 6.53335C12.5404 6.52746 12.2695 6.38333 12.2725 6.21142C12.2755 6.03951 12.5512 5.90492 12.8884 5.9108C13.0912 5.91434 13.27 5.96789 13.3797 6.04741C13.3701 6.02104 13.367 5.99429 13.3711 5.96783C13.3954 5.81499 13.655 5.7291 13.9511 5.77599C14.2471 5.82289 14.4675 5.9848 14.4433 6.13764C14.4389 6.16537 14.4268 6.1909 14.4081 6.21384C14.5539 6.17185 14.7547 6.18175 14.9597 6.25234C15.314 6.37433 15.5467 6.63137 15.4795 6.82646C15.4124 7.02154 15.0707 7.0808 14.7164 6.9588C14.6738 6.94413 14.6329 6.9275 14.5941 6.90926C14.4986 7.0576 14.2304 7.136 13.9334 7.08895C13.5818 7.03327 13.3229 6.82292 13.3552 6.61914C13.3875 6.41535 13.6987 6.2953 14.0503 6.35098C14.1012 6.35905 14.1502 6.37036 14.1966 6.38443C14.2056 6.35853 14.2194 6.33503 14.2374 6.31403ZM12.2049 6.23805C12.28 6.37339 12.1282 6.60092 11.8661 6.74624C11.6039 6.89157 11.3305 6.89966 11.2555 6.76432C11.1805 6.62898 11.3322 6.40145 11.5944 6.25612C11.8566 6.1108 12.1299 6.1027 12.2049 6.23805ZM13.025 7.08865C13.0217 7.27776 12.6849 7.42522 12.2728 7.41803C11.8607 7.41084 11.5293 7.25171 11.5326 7.06261C11.5359 6.8735 11.8726 6.72604 12.2847 6.73323C12.6969 6.74042 13.0283 6.89955 13.025 7.08865ZM12.5501 8.41138C12.922 8.36572 13.2065 8.19036 13.1856 8.0197C13.1646 7.84904 12.8462 7.74772 12.4742 7.79338C12.1023 7.83905 11.8178 8.01441 11.8388 8.18507C11.8597 8.35572 12.1782 8.45705 12.5501 8.41138ZM13.9219 8.63918C14.2504 8.71504 14.5513 8.62714 14.5939 8.44286C14.6364 8.25858 14.4045 8.04769 14.0759 7.97183C13.7473 7.89597 13.4465 7.98386 13.4039 8.16815C13.3614 8.35243 13.5933 8.56332 13.9219 8.63918ZM14.2117 7.93961C14.7083 8.03613 15.1401 7.96387 15.1762 7.77821C15.2123 7.59255 14.839 7.3638 14.3424 7.26728C13.8459 7.17076 13.4141 7.24302 13.378 7.42868C13.3419 7.61434 13.7152 7.84309 14.2117 7.93961Z" fill="#247805"/>
<path fill-rule="evenodd" clip-rule="evenodd" d="M10.6838 9.20447C10.6838 9.20447 10.4492 11.4321 10.4492 11.734C10.4492 12.0359 10.881 11.734 10.881 11.734C10.881 11.734 10.9444 10.6702 11.0915 10.275C11.2386 9.87979 11.308 10.314 11.308 10.5447C11.308 10.7754 11.308 11.8548 11.308 11.8548C11.308 11.8548 11.8454 11.928 11.8454 11.734C11.8454 11.54 11.6218 9.20447 11.6218 9.20447H10.8089H10.6838Z" fill="white"/>
<path fill-rule="evenodd" clip-rule="evenodd" d="M10.6539 9.1731L10.651 9.20131C10.4943 10.6883 10.4161 11.5311 10.4161 11.7339C10.4161 11.9728 10.5951 11.9728 10.9006 11.7592L10.9131 11.7504L10.914 11.7357C10.9561 11.0293 11.026 10.5452 11.1227 10.2854C11.1809 10.1288 11.1979 10.1218 11.2241 10.1863C11.2547 10.2618 11.275 10.4157 11.275 10.5447V11.8819L11.3033 11.8858C11.6803 11.9371 11.8785 11.8925 11.8785 11.7339C11.8785 11.6508 11.8397 11.1919 11.7738 10.4729L11.7665 10.3937C11.7421 10.1276 11.7159 9.8471 11.6897 9.56959L11.6643 9.30234L11.6572 9.22788L11.6547 9.20159L11.652 9.1731H10.6539ZM10.8489 11.7174C10.5878 11.8976 10.4822 11.8951 10.4822 11.7339C10.4822 11.5356 10.5595 10.7014 10.7137 9.23575H11.5916L11.5985 9.30797L11.6239 9.57518C11.6501 9.85264 11.6763 10.1331 11.7007 10.3992L11.708 10.4783C11.7734 11.192 11.8124 11.6537 11.8124 11.7339C11.8124 11.8312 11.6612 11.8679 11.341 11.8275V10.5447C11.341 10.4087 11.3199 10.2479 11.2857 10.1638C11.2293 10.0249 11.135 10.0639 11.0604 10.2645C10.9617 10.5297 10.8915 11.0134 10.8489 11.7174Z" fill="#979797"/>
<path fill-rule="evenodd" clip-rule="evenodd" d="M9.905 8.4383C9.905 8.4383 10.0893 9.10169 10.1709 9.10169C10.2525 9.10169 10.7477 8.69461 10.7477 8.69461V9.24715H11.6703V9.00242L11.7887 9.24715L11.9501 9.1717L12.2292 8.84273H11.9501C11.9501 8.84273 11.869 8.31442 11.869 8.23087C11.869 8.14733 11.8723 7.98205 11.6703 7.92222C11.4684 7.8624 11.3694 7.75648 11.3694 7.75648C11.3694 7.75648 11.8042 7.13379 11.4731 7.13379C11.142 7.13379 10.9922 7.21361 10.9922 7.21361C10.9922 7.21361 10.9922 7.58334 10.9922 7.66991C10.9922 7.75648 10.5172 7.65398 10.5172 7.92222C10.5172 8.19047 10.2957 8.4383 10.2957 8.4383L10.2394 8.25864L9.905 8.4383Z" fill="#FF863B"/>
<path fill-rule="evenodd" clip-rule="evenodd" d="M11.3001 7.28721C11.4826 7.28721 11.6305 7.21453 11.6305 7.12487C11.6305 7.03521 11.4826 6.96252 11.3001 6.96252C11.1176 6.96252 10.9697 7.03521 10.9697 7.12487C10.9697 7.21453 11.1176 7.28721 11.3001 7.28721Z" fill="black"/>
<path d="M9.63532 8.69491L9.48621 8.57105C9.7735 8.26002 10.0932 8.03373 10.4449 7.89326C10.7779 7.76025 11.2132 7.54796 11.7498 7.25659L11.8483 7.41972C11.3053 7.71454 10.8634 7.93007 10.5218 8.0665C10.1989 8.19548 9.90348 8.40459 9.63532 8.69491Z" fill="#740000"/>
<path fill-rule="evenodd" clip-rule="evenodd" d="M11.7434 7.32488L11.8686 7.91302L12.4246 7.61895L11.9867 7.13232L11.7434 7.32488Z" fill="#F9FCFF" stroke="#6C6C6C" stroke-width="0.5"/>
<path fill-rule="evenodd" clip-rule="evenodd" d="M16.3944 9.48035C16.3944 9.48035 16.6272 11.8053 16.6272 12.1204C16.6272 12.4355 16.1988 12.1204 16.1988 12.1204C16.1988 12.1204 16.1359 11.0101 15.99 10.5976C15.8441 10.1852 15.7753 10.6383 15.7753 10.8791C15.7753 11.12 15.7753 12.2465 15.7753 12.2465C15.7753 12.2465 15.2422 12.3229 15.2422 12.1204C15.2422 11.9179 15.464 9.48035 15.464 9.48035H16.2703H16.3944Z" fill="white"/>
<path fill-rule="evenodd" clip-rule="evenodd" d="M16.4241 9.44763L16.427 9.47708C16.5824 11.029 16.6599 11.9086 16.6599 12.1204C16.6599 12.3697 16.4825 12.3697 16.1794 12.1467L16.167 12.1376L16.1661 12.1222C16.1243 11.385 16.055 10.8797 15.9591 10.6085C15.9013 10.4451 15.8845 10.4378 15.8585 10.5052C15.8281 10.5839 15.8081 10.7445 15.8081 10.8791V12.2748L15.7799 12.2788C15.406 12.3324 15.2094 12.2859 15.2094 12.1204C15.2094 12.0336 15.2479 11.5546 15.3133 10.8042L15.3205 10.7216C15.3447 10.4439 15.3707 10.1511 15.3967 9.86145L15.4218 9.58253L15.4289 9.50481L15.4314 9.47737L15.4341 9.44763H16.4241ZM16.2307 12.1031C16.4896 12.2912 16.5944 12.2886 16.5944 12.1204C16.5944 11.9133 16.5178 11.0427 16.3647 9.51303H15.4939L15.4871 9.58841L15.462 9.86728C15.436 10.1569 15.41 10.4496 15.3858 10.7273L15.3785 10.8099C15.3137 11.5548 15.275 12.0367 15.275 12.1204C15.275 12.2219 15.4249 12.2602 15.7425 12.218V10.8791C15.7425 10.7372 15.7635 10.5695 15.7974 10.4817C15.8533 10.3366 15.9469 10.3774 16.0209 10.5868C16.1188 10.8635 16.1885 11.3684 16.2307 12.1031Z" fill="#979797"/>
<path fill-rule="evenodd" clip-rule="evenodd" d="M17.1831 8.63361C17.1831 8.63361 17.0003 9.32599 16.9194 9.32599C16.8385 9.32599 16.3473 8.90112 16.3473 8.90112V9.47781H15.4321V9.22239L15.3146 9.47781L15.1546 9.39906L14.8777 9.05571H15.1546C15.1546 9.05571 15.235 8.50432 15.235 8.41712C15.235 8.32992 15.2318 8.15742 15.4321 8.09498C15.6323 8.03255 15.7306 7.922 15.7306 7.922C15.7306 7.922 15.2993 7.27209 15.6277 7.27209C15.9561 7.27209 16.1048 7.35541 16.1048 7.35541C16.1048 7.35541 16.1048 7.74129 16.1048 7.83164C16.1048 7.922 16.5759 7.81502 16.5759 8.09498C16.5759 8.37495 16.7956 8.63361 16.7956 8.63361L16.8515 8.44611L17.1831 8.63361Z" fill="#824028"/>
<path fill-rule="evenodd" clip-rule="evenodd" d="M15.7993 7.43226C15.6183 7.43226 15.4716 7.3564 15.4716 7.26282C15.4716 7.16924 15.6183 7.09338 15.7993 7.09338C15.9803 7.09338 16.127 7.16924 16.127 7.26282C16.127 7.3564 15.9803 7.43226 15.7993 7.43226Z" fill="black"/>
<path d="M17.644 8.75926L15.6394 7.71449C15.6394 7.71449 15.6023 7.36351 15.2152 7.25783C14.828 7.15216 14.5193 6.98865 14.5193 6.98865L14.343 7.25783C14.343 7.25783 14.0291 7.17498 15.2152 7.71449C16.4013 8.25399 15.1705 7.42206 15.5077 7.71449L17.644 8.75926Z" fill="#BA611F"/>
</g>
</g>
</g>
<rect x="1.75" y="1.25" width="23.5" height="17.5" stroke="black" stroke-opacity="0.1" stroke-width="0.5" shape-rendering="crispEdges"/>
</g>
<defs>
<filter id="filter0_dd_701_24362" x="0" y="0" width="27" height="21" filterUnits="userSpaceOnUse" color-interpolation-filters="sRGB">
<feFlood flood-opacity="0" result="BackgroundImageFix"/>
<feColorMatrix in="SourceAlpha" type="matrix" values="0 0 0 0 0 0 0 0 0 0 0 0 0 0 0 0 0 0 127 0" result="hardAlpha"/>
<feOffset dy="0.5"/>
<feGaussianBlur stdDeviation="0.75"/>
<feComposite in2="hardAlpha" operator="out"/>
<feColorMatrix type="matrix" values="0 0 0 0 0 0 0 0 0 0 0 0 0 0 0 0 0 0 0.1 0"/>
<feBlend mode="multiply" in2="BackgroundImageFix" result="effect1_dropShadow_701_24362"/>
<feColorMatrix in="SourceAlpha" type="matrix" values="0 0 0 0 0 0 0 0 0 0 0 0 0 0 0 0 0 0 127 0" result="hardAlpha"/>
<feOffset/>
<feGaussianBlur stdDeviation="0.5"/>
<feComposite in2="hardAlpha" operator="out"/>
<feColorMatrix type="matrix" values="0 0 0 0 0 0 0 0 0 0 0 0 0 0 0 0 0 0 0.11 0"/>
<feBlend mode="multiply" in2="effect1_dropShadow_701_24362" result="effect2_dropShadow_701_24362"/>
<feBlend mode="normal" in="SourceGraphic" in2="effect2_dropShadow_701_24362" result="shape"/>
</filter>
<clipPath id="clip0_701_24362">
<rect x="1.5" y="1" width="24" height="18" fill="white"/>
</clipPath>
</defs>
</svg>
