<svg viewBox="0 0 27 21" fill="none" xmlns="http://www.w3.org/2000/svg">
<g filter="url(#filter0_dd_701_24087)">
<g clip-path="url(#clip0_701_24087)">
<mask id="mask0_701_24087" style="mask-type:alpha" maskUnits="userSpaceOnUse" x="1" y="1" width="25" height="18">
<rect x="1.5" y="1" width="24" height="18" fill="white"/>
</mask>
<g mask="url(#mask0_701_24087)">
<path fill-rule="evenodd" clip-rule="evenodd" d="M1.5 1V19H25.5V1H1.5Z" fill="#73BE4A"/>
<mask id="mask1_701_24087" style="mask-type:alpha" maskUnits="userSpaceOnUse" x="1" y="1" width="25" height="18">
<path fill-rule="evenodd" clip-rule="evenodd" d="M1.5 1V19H25.5V1H1.5Z" fill="white"/>
</mask>
<g mask="url(#mask1_701_24087)">
<path fill-rule="evenodd" clip-rule="evenodd" d="M1.5 -0.5V10H25.5V-0.5H1.5Z" fill="#6699FF"/>
</g>
<path fill-rule="evenodd" clip-rule="evenodd" d="M1.5 1V19L15 10L1.5 1Z" fill="white"/>
<mask id="mask2_701_24087" style="mask-type:alpha" maskUnits="userSpaceOnUse" x="1" y="1" width="14" height="18">
<path fill-rule="evenodd" clip-rule="evenodd" d="M1.5 1V19L15 10L1.5 1Z" fill="white"/>
</mask>
<g mask="url(#mask2_701_24087)">
<path fill-rule="evenodd" clip-rule="evenodd" d="M6.75135 11.553L5.34834 12.4L5.66836 10.7472L4.5 9.51023L6.08202 9.44335L6.75135 7.90002L7.42067 9.44335H9L7.83433 10.7472L8.18527 12.4L6.75135 11.553Z" fill="#E31D1C"/>
</g>
</g>
</g>
<rect x="1.75" y="1.25" width="23.5" height="17.5" stroke="black" stroke-opacity="0.1" stroke-width="0.5" shape-rendering="crispEdges"/>
</g>
<defs>
<filter id="filter0_dd_701_24087" x="0" y="0" width="27" height="21" filterUnits="userSpaceOnUse" color-interpolation-filters="sRGB">
<feFlood flood-opacity="0" result="BackgroundImageFix"/>
<feColorMatrix in="SourceAlpha" type="matrix" values="0 0 0 0 0 0 0 0 0 0 0 0 0 0 0 0 0 0 127 0" result="hardAlpha"/>
<feOffset dy="0.5"/>
<feGaussianBlur stdDeviation="0.75"/>
<feComposite in2="hardAlpha" operator="out"/>
<feColorMatrix type="matrix" values="0 0 0 0 0 0 0 0 0 0 0 0 0 0 0 0 0 0 0.1 0"/>
<feBlend mode="multiply" in2="BackgroundImageFix" result="effect1_dropShadow_701_24087"/>
<feColorMatrix in="SourceAlpha" type="matrix" values="0 0 0 0 0 0 0 0 0 0 0 0 0 0 0 0 0 0 127 0" result="hardAlpha"/>
<feOffset/>
<feGaussianBlur stdDeviation="0.5"/>
<feComposite in2="hardAlpha" operator="out"/>
<feColorMatrix type="matrix" values="0 0 0 0 0 0 0 0 0 0 0 0 0 0 0 0 0 0 0.11 0"/>
<feBlend mode="multiply" in2="effect1_dropShadow_701_24087" result="effect2_dropShadow_701_24087"/>
<feBlend mode="normal" in="SourceGraphic" in2="effect2_dropShadow_701_24087" result="shape"/>
</filter>
<clipPath id="clip0_701_24087">
<rect x="1.5" y="1" width="24" height="18" fill="white"/>
</clipPath>
</defs>
</svg>