<svg width="27" height="21" viewBox="0 0 27 21" fill="none" xmlns="http://www.w3.org/2000/svg">
<g filter="url(#filter0_dd_701_24325)">
<g clip-path="url(#clip0_701_24325)">
<mask id="mask0_701_24325" style="mask-type:alpha" maskUnits="userSpaceOnUse" x="1" y="1" width="25" height="18">
<rect x="1.5" y="1" width="24" height="18" fill="white"/>
</mask>
<g mask="url(#mask0_701_24325)">
<path fill-rule="evenodd" clip-rule="evenodd" d="M1.5 1V19H25.5V1H1.5Z" fill="#3195F9"/>
<mask id="mask1_701_24325" style="mask-type:alpha" maskUnits="userSpaceOnUse" x="1" y="1" width="25" height="18">
<path fill-rule="evenodd" clip-rule="evenodd" d="M1.5 1V19H25.5V1H1.5Z" fill="white"/>
</mask>
<g mask="url(#mask1_701_24325)">
<path d="M-0.126172 20.2529L0.56779 21.2926L1.60746 20.5986L28.8032 2.44602L29.8428 1.75206L29.1489 0.712385L27.4834 -1.78283L26.7894 -2.8225L25.7497 -2.12854L-1.44597 16.0241L-2.48564 16.718L-1.79168 17.7577L-0.126172 20.2529Z" fill="#E31D1C" stroke="#FECA00" stroke-width="2.5"/>
<path fill-rule="evenodd" clip-rule="evenodd" d="M5.19799 7.45472L2.58377 9.26799L3.41911 6.16228L1.5 4.17836L4.09858 4.07108L5.19799 1L6.2974 4.07108H8.89156L6.97687 6.16228L7.93578 9.08468L5.19799 7.45472Z" fill="#FECA00"/>
</g>
</g>
</g>
<rect x="1.75" y="1.25" width="23.5" height="17.5" stroke="black" stroke-opacity="0.1" stroke-width="0.5" shape-rendering="crispEdges"/>
</g>
<defs>
<filter id="filter0_dd_701_24325" x="0" y="0" width="27" height="21" filterUnits="userSpaceOnUse" color-interpolation-filters="sRGB">
<feFlood flood-opacity="0" result="BackgroundImageFix"/>
<feColorMatrix in="SourceAlpha" type="matrix" values="0 0 0 0 0 0 0 0 0 0 0 0 0 0 0 0 0 0 127 0" result="hardAlpha"/>
<feOffset dy="0.5"/>
<feGaussianBlur stdDeviation="0.75"/>
<feComposite in2="hardAlpha" operator="out"/>
<feColorMatrix type="matrix" values="0 0 0 0 0 0 0 0 0 0 0 0 0 0 0 0 0 0 0.1 0"/>
<feBlend mode="multiply" in2="BackgroundImageFix" result="effect1_dropShadow_701_24325"/>
<feColorMatrix in="SourceAlpha" type="matrix" values="0 0 0 0 0 0 0 0 0 0 0 0 0 0 0 0 0 0 127 0" result="hardAlpha"/>
<feOffset/>
<feGaussianBlur stdDeviation="0.5"/>
<feComposite in2="hardAlpha" operator="out"/>
<feColorMatrix type="matrix" values="0 0 0 0 0 0 0 0 0 0 0 0 0 0 0 0 0 0 0.11 0"/>
<feBlend mode="multiply" in2="effect1_dropShadow_701_24325" result="effect2_dropShadow_701_24325"/>
<feBlend mode="normal" in="SourceGraphic" in2="effect2_dropShadow_701_24325" result="shape"/>
</filter>
<clipPath id="clip0_701_24325">
<rect x="1.5" y="1" width="24" height="18" fill="white"/>
</clipPath>
</defs>
</svg>
