<svg viewBox="0 0 27 21" fill="none" xmlns="http://www.w3.org/2000/svg">
<g filter="url(#filter0_dd_701_21673)">
<g clip-path="url(#clip0_701_21673)">
<rect x="1.5" y="1" width="24" height="18" fill="#21428E"/>
<path fill-rule="evenodd" clip-rule="evenodd" d="M12 1H15V8.5H25.5V11.5H15V19H12V11.5H1.5V8.5H12V1Z" fill="#F7FCFF"/>
<path fill-rule="evenodd" clip-rule="evenodd" d="M5.12187 2.01159C5.12187 2.04071 5.14202 2.05897 5.15763 2.07312C5.1839 2.09693 5.19733 2.1091 5.08047 2.14176C4.90448 2.19382 4.42829 2.26325 4.09702 2.25457C4.03368 2.25457 3.92229 2.23577 3.82343 2.21909L3.82343 2.21909C3.74457 2.20578 3.67369 2.19382 3.64153 2.19382C3.5982 2.19836 3.69659 2.24092 3.77652 2.2755C3.84934 2.30699 3.90683 2.33186 3.82787 2.31531C3.60012 2.26325 3.46555 2.24589 3.64153 2.34135C3.77611 2.41077 4.07632 2.41077 4.50075 2.36738C4.58768 2.35827 4.74874 2.33243 4.90462 2.30742C5.04576 2.28478 5.18266 2.26281 5.25645 2.25457C5.31588 2.24959 5.34119 2.2732 5.36372 2.29422C5.38044 2.30982 5.39563 2.32399 5.42208 2.32399C5.98109 2.35002 6.97489 2.33267 7.40967 2.2806C7.772 2.23721 7.90657 2.25457 8.01009 2.3587C8.21713 2.55829 7.99974 2.73185 7.40967 2.83598C6.68503 2.96615 6.38482 3.07896 6.10532 3.33061C5.43243 3.93806 6.21919 4.6236 7.68918 4.71906C8.5484 4.7798 9.10741 4.91865 8.97283 5.03146C8.92107 5.07485 8.35171 5.14427 7.69953 5.18766C6.2813 5.28312 5.64983 5.44799 5.11152 5.88188C4.81131 6.12486 4.70779 6.27239 4.70779 6.47197C4.70779 6.74966 4.70779 6.74966 4.15913 6.74966C3.86928 6.74966 3.46555 6.71495 3.27921 6.66289C2.98935 6.60214 2.94795 6.60214 3.05147 6.70627C3.25851 6.91454 3.84857 7.09678 4.33512 7.09678C4.70779 7.09678 4.91483 7.15752 5.2461 7.35711C5.90863 7.76497 6.66433 7.92116 7.91692 7.91249C9.5629 7.90381 10.5049 7.53934 10.5049 6.92322C10.5049 6.4633 9.88381 6.19428 8.58981 6.09883C7.93763 6.04676 6.65398 6.13354 6.09497 6.27238C5.99145 6.29842 6.10532 6.23767 6.35377 6.13354C6.65398 6.01205 7.15087 5.92527 7.82376 5.87321C9.31445 5.76907 9.98733 5.49138 9.98733 4.97072C9.98733 4.4674 9.3248 4.18104 7.90657 4.06823C6.50905 3.96409 6.40553 3.75583 7.58566 3.4521C8.42417 3.24384 8.84861 2.93144 8.84861 2.50622C8.84861 1.85539 8.42417 1.63844 7.00594 1.5777C6.14673 1.54299 5.93968 1.56034 5.56701 1.70787C5.31856 1.80332 5.12187 1.94217 5.12187 2.01159ZM6.35079 1.94352C6.30243 2.0229 6.17346 2.10228 6.09285 2.10228C5.99612 2.10228 5.98 2.0229 6.02836 1.94352C6.07673 1.84827 6.2057 1.78476 6.28631 1.78476C6.38303 1.78476 6.39915 1.84827 6.35079 1.94352ZM7.37501 7.26803C8.05979 7.31803 9.18407 7.16803 9.35782 6.99804C9.41914 6.93804 8.99704 6.78308 8.80285 6.71308C8.10755 6.53111 6.7311 6.59805 6.04632 6.85804C5.80102 6.95804 6.61867 7.19803 7.37501 7.26803Z" fill="white"/>
<path fill-rule="evenodd" clip-rule="evenodd" d="M5.12187 12.5116C5.12187 12.5407 5.14202 12.559 5.15763 12.5731C5.1839 12.5969 5.19733 12.6091 5.08047 12.6418C4.90448 12.6938 4.42829 12.7632 4.09702 12.7546C4.03368 12.7546 3.92229 12.7358 3.82343 12.7191L3.82343 12.7191C3.74457 12.7058 3.67369 12.6938 3.64153 12.6938C3.5982 12.6984 3.69659 12.7409 3.77652 12.7755C3.84934 12.807 3.90683 12.8319 3.82787 12.8153C3.60012 12.7632 3.46555 12.7459 3.64153 12.8413C3.77611 12.9108 4.07632 12.9108 4.50075 12.8674C4.58768 12.8583 4.74874 12.8324 4.90462 12.8074C5.04576 12.7848 5.18266 12.7628 5.25645 12.7546C5.31588 12.7496 5.34119 12.7732 5.36372 12.7942C5.38044 12.8098 5.39563 12.824 5.42208 12.824C5.98109 12.85 6.97489 12.8327 7.40967 12.7806C7.772 12.7372 7.90657 12.7546 8.01009 12.8587C8.21713 13.0583 7.99974 13.2318 7.40967 13.336C6.68503 13.4661 6.38482 13.579 6.10532 13.8306C5.43243 14.4381 6.21919 15.1236 7.68918 15.2191C8.5484 15.2798 9.10741 15.4186 8.97283 15.5315C8.92107 15.5748 8.35171 15.6443 7.69953 15.6877C6.2813 15.7831 5.64983 15.948 5.11152 16.3819C4.81131 16.6249 4.70779 16.7724 4.70779 16.972C4.70779 17.2497 4.70779 17.2497 4.15913 17.2497C3.86928 17.2497 3.46555 17.215 3.27921 17.1629C2.98935 17.1021 2.94795 17.1021 3.05147 17.2063C3.25851 17.4145 3.84857 17.5968 4.33512 17.5968C4.70779 17.5968 4.91483 17.6575 5.2461 17.8571C5.90863 18.265 6.66433 18.4212 7.91692 18.4125C9.5629 18.4038 10.5049 18.0393 10.5049 17.4232C10.5049 16.9633 9.88381 16.6943 8.58981 16.5988C7.93763 16.5468 6.65398 16.6335 6.09497 16.7724C5.99145 16.7984 6.10532 16.7377 6.35377 16.6335C6.65398 16.5121 7.15087 16.4253 7.82376 16.3732C9.31445 16.2691 9.98733 15.9914 9.98733 15.4707C9.98733 14.9674 9.3248 14.681 7.90657 14.5682C6.50905 14.4641 6.40553 14.2558 7.58566 13.9521C8.42417 13.7438 8.84861 13.4314 8.84861 13.0062C8.84861 12.3554 8.42417 12.1384 7.00594 12.0777C6.14673 12.043 5.93968 12.0603 5.56701 12.2079C5.31856 12.3033 5.12187 12.4422 5.12187 12.5116ZM6.35079 12.4435C6.30243 12.5229 6.17346 12.6023 6.09285 12.6023C5.99612 12.6023 5.98 12.5229 6.02836 12.4435C6.07673 12.3483 6.2057 12.2848 6.28631 12.2848C6.38303 12.2848 6.39915 12.3483 6.35079 12.4435ZM7.37501 17.768C8.05979 17.818 9.18407 17.668 9.35782 17.498C9.41914 17.438 8.99704 17.2831 8.80285 17.2131C8.10755 17.0311 6.7311 17.0981 6.04632 17.358C5.80102 17.458 6.61867 17.698 7.37501 17.768Z" fill="white"/>
<path fill-rule="evenodd" clip-rule="evenodd" d="M18.6169 2.01159C18.6169 2.04071 18.6371 2.05897 18.6527 2.07312C18.679 2.09693 18.6924 2.1091 18.5755 2.14176C18.3995 2.19382 17.9233 2.26325 17.5921 2.25457C17.5287 2.25457 17.4173 2.23577 17.3185 2.21909L17.3185 2.21909C17.2396 2.20578 17.1687 2.19382 17.1366 2.19382C17.0933 2.19836 17.1916 2.24092 17.2716 2.2755C17.3444 2.30699 17.4019 2.33186 17.3229 2.31531C17.0952 2.26325 16.9606 2.24589 17.1366 2.34135C17.2712 2.41077 17.5714 2.41077 17.9958 2.36738C18.0827 2.35827 18.2438 2.33243 18.3997 2.30742C18.5408 2.28478 18.6777 2.26281 18.7515 2.25457C18.8109 2.24959 18.8362 2.2732 18.8588 2.29422C18.8755 2.30982 18.8907 2.32399 18.9171 2.32399C19.4761 2.35002 20.4699 2.33267 20.9047 2.2806C21.2671 2.23721 21.4016 2.25457 21.5051 2.3587C21.7122 2.55829 21.4948 2.73185 20.9047 2.83598C20.1801 2.96615 19.8799 3.07896 19.6004 3.33061C18.9275 3.93806 19.7142 4.6236 21.1842 4.71906C22.0435 4.7798 22.6025 4.91865 22.4679 5.03146C22.4161 5.07485 21.8468 5.14427 21.1946 5.18766C19.7764 5.28312 19.1449 5.44799 18.6066 5.88188C18.3064 6.12486 18.2028 6.27239 18.2028 6.47197C18.2028 6.74966 18.2028 6.74966 17.6542 6.74966C17.3643 6.74966 16.9606 6.71495 16.7743 6.66289C16.4844 6.60214 16.443 6.60214 16.5465 6.70627C16.7536 6.91454 17.3436 7.09678 17.8302 7.09678C18.2028 7.09678 18.4099 7.15752 18.7412 7.35711C19.4037 7.76497 20.1594 7.92116 21.412 7.91249C23.058 7.90381 24 7.53934 24 6.92322C24 6.4633 23.3789 6.19428 22.0849 6.09883C21.4327 6.04676 20.149 6.13354 19.59 6.27238C19.4865 6.29842 19.6004 6.23767 19.8488 6.13354C20.149 6.01205 20.6459 5.92527 21.3188 5.87321C22.8095 5.76907 23.4824 5.49138 23.4824 4.97072C23.4824 4.4674 22.8199 4.18104 21.4016 4.06823C20.0041 3.96409 19.9006 3.75583 21.0807 3.4521C21.9192 3.24384 22.3437 2.93144 22.3437 2.50622C22.3437 1.85539 21.9192 1.63844 20.501 1.5777C19.6418 1.54299 19.4347 1.56034 19.0621 1.70787C18.8136 1.80332 18.6169 1.94217 18.6169 2.01159ZM19.8459 1.94352C19.7975 2.0229 19.6685 2.10228 19.5879 2.10228C19.4912 2.10228 19.4751 2.0229 19.5234 1.94352C19.5718 1.84827 19.7008 1.78476 19.7814 1.78476C19.8781 1.78476 19.8942 1.84827 19.8459 1.94352ZM20.8701 7.26803C21.5549 7.31803 22.6791 7.16803 22.8529 6.99804C22.9142 6.93804 22.4921 6.78308 22.2979 6.71308C21.6026 6.53111 20.2262 6.59805 19.5414 6.85804C19.2961 6.95804 20.1137 7.19803 20.8701 7.26803Z" fill="white"/>
<path fill-rule="evenodd" clip-rule="evenodd" d="M18.6169 12.5116C18.6169 12.5407 18.6371 12.559 18.6527 12.5731C18.679 12.5969 18.6924 12.6091 18.5755 12.6418C18.3995 12.6938 17.9233 12.7632 17.5921 12.7546C17.5287 12.7546 17.4173 12.7358 17.3185 12.7191L17.3185 12.7191C17.2396 12.7058 17.1687 12.6938 17.1366 12.6938C17.0933 12.6984 17.1916 12.7409 17.2716 12.7755C17.3444 12.807 17.4019 12.8319 17.3229 12.8153C17.0952 12.7632 16.9606 12.7459 17.1366 12.8413C17.2712 12.9108 17.5714 12.9108 17.9958 12.8674C18.0827 12.8583 18.2438 12.8324 18.3997 12.8074C18.5408 12.7848 18.6777 12.7628 18.7515 12.7546C18.8109 12.7496 18.8362 12.7732 18.8588 12.7942C18.8755 12.8098 18.8907 12.824 18.9171 12.824C19.4761 12.85 20.4699 12.8327 20.9047 12.7806C21.2671 12.7372 21.4016 12.7546 21.5051 12.8587C21.7122 13.0583 21.4948 13.2318 20.9047 13.336C20.1801 13.4661 19.8799 13.579 19.6004 13.8306C18.9275 14.4381 19.7142 15.1236 21.1842 15.2191C22.0435 15.2798 22.6025 15.4186 22.4679 15.5315C22.4161 15.5748 21.8468 15.6443 21.1946 15.6877C19.7764 15.7831 19.1449 15.948 18.6066 16.3819C18.3064 16.6249 18.2028 16.7724 18.2028 16.972C18.2028 17.2497 18.2028 17.2497 17.6542 17.2497C17.3643 17.2497 16.9606 17.215 16.7743 17.1629C16.4844 17.1021 16.443 17.1021 16.5465 17.2063C16.7536 17.4145 17.3436 17.5968 17.8302 17.5968C18.2028 17.5968 18.4099 17.6575 18.7412 17.8571C19.4037 18.265 20.1594 18.4212 21.412 18.4125C23.058 18.4038 24 18.0393 24 17.4232C24 16.9633 23.3789 16.6943 22.0849 16.5988C21.4327 16.5468 20.149 16.6335 19.59 16.7724C19.4865 16.7984 19.6004 16.7377 19.8488 16.6335C20.149 16.5121 20.6459 16.4253 21.3188 16.3732C22.8095 16.2691 23.4824 15.9914 23.4824 15.4707C23.4824 14.9674 22.8199 14.681 21.4016 14.5682C20.0041 14.4641 19.9006 14.2558 21.0807 13.9521C21.9192 13.7438 22.3437 13.4314 22.3437 13.0062C22.3437 12.3554 21.9192 12.1384 20.501 12.0777C19.6418 12.043 19.4347 12.0603 19.0621 12.2079C18.8136 12.3033 18.6169 12.4422 18.6169 12.5116ZM19.8459 12.4435C19.7975 12.5229 19.6685 12.6023 19.5879 12.6023C19.4912 12.6023 19.4751 12.5229 19.5234 12.4435C19.5718 12.3483 19.7008 12.2848 19.7814 12.2848C19.8781 12.2848 19.8942 12.3483 19.8459 12.4435ZM20.8701 17.768C21.5549 17.818 22.6791 17.668 22.8529 17.498C22.9142 17.438 22.4921 17.2831 22.2979 17.2131C21.6026 17.0311 20.2262 17.0981 19.5414 17.358C19.2961 17.458 20.1137 17.698 20.8701 17.768Z" fill="white"/>
</g>
<rect x="1.75" y="1.25" width="23.5" height="17.5" stroke="black" stroke-opacity="0.1" stroke-width="0.5" shape-rendering="crispEdges"/>
</g>
<defs>
<filter id="filter0_dd_701_21673" x="0" y="0" width="27" height="21" filterUnits="userSpaceOnUse" color-interpolation-filters="sRGB">
<feFlood flood-opacity="0" result="BackgroundImageFix"/>
<feColorMatrix in="SourceAlpha" type="matrix" values="0 0 0 0 0 0 0 0 0 0 0 0 0 0 0 0 0 0 127 0" result="hardAlpha"/>
<feOffset dy="0.5"/>
<feGaussianBlur stdDeviation="0.75"/>
<feComposite in2="hardAlpha" operator="out"/>
<feColorMatrix type="matrix" values="0 0 0 0 0 0 0 0 0 0 0 0 0 0 0 0 0 0 0.1 0"/>
<feBlend mode="multiply" in2="BackgroundImageFix" result="effect1_dropShadow_701_21673"/>
<feColorMatrix in="SourceAlpha" type="matrix" values="0 0 0 0 0 0 0 0 0 0 0 0 0 0 0 0 0 0 127 0" result="hardAlpha"/>
<feOffset/>
<feGaussianBlur stdDeviation="0.5"/>
<feComposite in2="hardAlpha" operator="out"/>
<feColorMatrix type="matrix" values="0 0 0 0 0 0 0 0 0 0 0 0 0 0 0 0 0 0 0.11 0"/>
<feBlend mode="multiply" in2="effect1_dropShadow_701_21673" result="effect2_dropShadow_701_21673"/>
<feBlend mode="normal" in="SourceGraphic" in2="effect2_dropShadow_701_21673" result="shape"/>
</filter>
<clipPath id="clip0_701_21673">
<rect x="1.5" y="1" width="24" height="18" fill="white"/>
</clipPath>
</defs>
</svg>