<svg width="27" height="21" viewBox="0 0 27 21" fill="none" xmlns="http://www.w3.org/2000/svg">
<g filter="url(#filter0_dd_701_19072)">
<g clip-path="url(#clip0_701_19072)">
<rect x="1.5" y="1" width="24" height="18" fill="#19BFBF"/>
<path fill-rule="evenodd" clip-rule="evenodd" d="M13.5 15.9713C16.9715 15.9713 19.7857 13.1571 19.7857 9.68562C19.7857 6.21411 16.9715 3.3999 13.5 3.3999C10.0285 3.3999 7.21432 6.21411 7.21432 9.68562C7.21432 13.1571 10.0285 15.9713 13.5 15.9713ZM18.6115 10.2571C18.3993 12.1764 17.131 13.7773 15.4006 14.4659C15.9578 13.331 16.2833 11.8525 16.346 10.2571H18.6115ZM13.5 14.8285C13.611 14.8285 13.7212 14.825 13.8304 14.8181C14.6152 13.8886 15.1186 12.1848 15.202 10.2571H11.7981C11.8815 12.1848 12.3849 13.8886 13.1697 14.8181C13.2789 14.825 13.3891 14.8285 13.5 14.8285ZM11.5995 14.4659C9.86907 13.7774 8.60072 12.1764 8.38856 10.2571H10.6541C10.7168 11.8525 11.0423 13.331 11.5995 14.4659ZM11.7981 9.1142H15.202C15.1186 7.18647 14.6153 5.48273 13.8305 4.55323C13.7213 4.5463 13.6111 4.54278 13.5 4.54278C13.389 4.54278 13.2788 4.5463 13.1695 4.55323C12.3848 5.48273 11.8815 7.18647 11.7981 9.1142ZM11.5994 4.90538C11.0423 6.04026 10.7167 7.51876 10.6541 9.1142H8.38856C8.60073 7.19493 9.86904 5.59397 11.5994 4.90538ZM18.6115 9.1142H16.346C16.2833 7.51876 15.9578 6.04027 15.4006 4.90539C17.131 5.59398 18.3993 7.19493 18.6115 9.1142Z" fill="white"/>
</g>
<rect x="1.75" y="1.25" width="23.5" height="17.5" stroke="black" stroke-opacity="0.1" stroke-width="0.5" shape-rendering="crispEdges"/>
</g>
<defs>
<filter id="filter0_dd_701_19072" x="0" y="0" width="27" height="21" filterUnits="userSpaceOnUse" color-interpolation-filters="sRGB">
<feFlood flood-opacity="0" result="BackgroundImageFix"/>
<feColorMatrix in="SourceAlpha" type="matrix" values="0 0 0 0 0 0 0 0 0 0 0 0 0 0 0 0 0 0 127 0" result="hardAlpha"/>
<feOffset dy="0.5"/>
<feGaussianBlur stdDeviation="0.75"/>
<feComposite in2="hardAlpha" operator="out"/>
<feColorMatrix type="matrix" values="0 0 0 0 0 0 0 0 0 0 0 0 0 0 0 0 0 0 0.1 0"/>
<feBlend mode="multiply" in2="BackgroundImageFix" result="effect1_dropShadow_701_19072"/>
<feColorMatrix in="SourceAlpha" type="matrix" values="0 0 0 0 0 0 0 0 0 0 0 0 0 0 0 0 0 0 127 0" result="hardAlpha"/>
<feOffset/>
<feGaussianBlur stdDeviation="0.5"/>
<feComposite in2="hardAlpha" operator="out"/>
<feColorMatrix type="matrix" values="0 0 0 0 0 0 0 0 0 0 0 0 0 0 0 0 0 0 0.11 0"/>
<feBlend mode="multiply" in2="effect1_dropShadow_701_19072" result="effect2_dropShadow_701_19072"/>
<feBlend mode="normal" in="SourceGraphic" in2="effect2_dropShadow_701_19072" result="shape"/>
</filter>
<clipPath id="clip0_701_19072">
<rect x="1.5" y="1" width="24" height="18" fill="white"/>
</clipPath>
</defs>
</svg>
