<svg viewBox="0 0 27 21" fill="none" xmlns="http://www.w3.org/2000/svg">
<g filter="url(#filter0_dd_701_21432)">
<g clip-path="url(#clip0_701_21432)">
<mask id="mask0_701_21432" style="mask-type:alpha" maskUnits="userSpaceOnUse" x="1" y="1" width="25" height="18">
<rect x="1.5" y="1" width="24" height="18" fill="white"/>
</mask>
<g mask="url(#mask0_701_21432)">
<path fill-rule="evenodd" clip-rule="evenodd" d="M1.5 1V19H25.5V1H1.5Z" fill="#F7FCFF"/>
<mask id="mask1_701_21432" style="mask-type:alpha" maskUnits="userSpaceOnUse" x="1" y="1" width="25" height="18">
<path fill-rule="evenodd" clip-rule="evenodd" d="M1.5 1V19H25.5V1H1.5Z" fill="white"/>
</mask>
<g mask="url(#mask1_701_21432)">
<path fill-rule="evenodd" clip-rule="evenodd" d="M1.5 1V7H25.5V1H1.5Z" fill="#0080EC"/>
<path fill-rule="evenodd" clip-rule="evenodd" d="M1.5 13V19H25.5V13H1.5Z" fill="#0080EC"/>
<path fill-rule="evenodd" clip-rule="evenodd" d="M13.5 7C13.6413 7 13.7804 7.00977 13.9165 7.02868L13.768 7.9857C13.6803 7.97414 13.5908 7.96818 13.5 7.96818C13.3679 7.96818 13.2387 7.98079 13.1137 8.00487L13.0442 7.0344C13.1928 7.01175 13.3451 7 13.5 7ZM14.3641 7.12631L14.1034 8.05928C14.9309 8.31628 15.5318 9.08797 15.5318 10C15.5318 10.0224 15.5315 10.0448 15.5307 10.067L16.4964 10.1489C16.4988 10.0995 16.5 10.0499 16.5 10C16.5 8.64353 15.5997 7.49733 14.3641 7.12631ZM16.1351 11.4352C15.6597 12.3062 14.765 12.9155 13.7222 12.9919V12.0198C14.2777 11.9594 14.766 11.675 15.0949 11.2589L16.1351 11.4352ZM10.9326 11.5528C11.4306 12.3744 12.3118 12.9378 13.3284 12.9952V12.0247C12.7359 11.9751 12.2157 11.6714 11.8772 11.2228L10.9326 11.5528ZM10.5027 10.1286C10.5009 10.086 10.5 10.0431 10.5 10C10.5 8.72617 11.2939 7.63778 12.4139 7.20263L12.6643 8.14744C11.9631 8.46423 11.4739 9.16742 11.4682 9.98551L10.5027 10.1286Z" fill="#D0AB00"/>
<path fill-rule="evenodd" clip-rule="evenodd" d="M13.4811 7.7124L11.4285 11.2605H15.566L13.4811 7.7124Z" fill="#7CDFFF"/>
<mask id="mask2_701_21432" style="mask-type:alpha" maskUnits="userSpaceOnUse" x="11" y="7" width="5" height="5">
<path fill-rule="evenodd" clip-rule="evenodd" d="M13.4811 7.7124L11.4285 11.2605H15.566L13.4811 7.7124Z" fill="white"/>
</mask>
<g mask="url(#mask2_701_21432)">
<path d="M13.5 12.4638C14.5594 12.4638 15.4182 11.605 15.4182 10.5456C15.4182 9.48624 14.5594 8.62744 13.5 8.62744C12.4406 8.62744 11.5818 9.48624 11.5818 10.5456C11.5818 11.605 12.4406 12.4638 13.5 12.4638Z" stroke="#E31D1C"/>
<path d="M13.5 12.4638C14.5594 12.4638 15.4182 11.605 15.4182 10.5456C15.4182 9.48624 14.5594 8.62744 13.5 8.62744C12.4406 8.62744 11.5818 9.48624 11.5818 10.5456C11.5818 11.605 12.4406 12.4638 13.5 12.4638Z" stroke="#FFD018"/>
<path d="M13.5 12.4638C14.5594 12.4638 15.4182 11.605 15.4182 10.5456C15.4182 9.48624 14.5594 8.62744 13.5 8.62744C12.4406 8.62744 11.5818 9.48624 11.5818 10.5456C11.5818 11.605 12.4406 12.4638 13.5 12.4638Z" stroke="#4EDD00"/>
<path d="M13.5 12.4638C14.5594 12.4638 15.4182 11.605 15.4182 10.5456C15.4182 9.48624 14.5594 8.62744 13.5 8.62744C12.4406 8.62744 11.5818 9.48624 11.5818 10.5456C11.5818 11.605 12.4406 12.4638 13.5 12.4638Z" stroke="#3D58DB"/>
<rect x="11.2636" y="10.1638" width="4.69091" height="1.36364" fill="#3D58DB"/>
<path fill-rule="evenodd" clip-rule="evenodd" d="M11.5777 10.7432L12.5126 9.81347L12.7996 10.2783L13 9.71143L13.2226 10.1364L13.4565 9.81347L13.759 10.1364L14.0364 9.71143L14.2735 10.1364L14.5455 9.81347L15.1812 10.489L15.2956 10.7432L11.5777 10.9318V10.7432Z" fill="#97C923"/>
</g>
</g>
</g>
</g>
<rect x="1.75" y="1.25" width="23.5" height="17.5" stroke="black" stroke-opacity="0.1" stroke-width="0.5" shape-rendering="crispEdges"/>
</g>
<defs>
<filter id="filter0_dd_701_21432" x="0" y="0" width="27" height="21" filterUnits="userSpaceOnUse" color-interpolation-filters="sRGB">
<feFlood flood-opacity="0" result="BackgroundImageFix"/>
<feColorMatrix in="SourceAlpha" type="matrix" values="0 0 0 0 0 0 0 0 0 0 0 0 0 0 0 0 0 0 127 0" result="hardAlpha"/>
<feOffset dy="0.5"/>
<feGaussianBlur stdDeviation="0.75"/>
<feComposite in2="hardAlpha" operator="out"/>
<feColorMatrix type="matrix" values="0 0 0 0 0 0 0 0 0 0 0 0 0 0 0 0 0 0 0.1 0"/>
<feBlend mode="multiply" in2="BackgroundImageFix" result="effect1_dropShadow_701_21432"/>
<feColorMatrix in="SourceAlpha" type="matrix" values="0 0 0 0 0 0 0 0 0 0 0 0 0 0 0 0 0 0 127 0" result="hardAlpha"/>
<feOffset/>
<feGaussianBlur stdDeviation="0.5"/>
<feComposite in2="hardAlpha" operator="out"/>
<feColorMatrix type="matrix" values="0 0 0 0 0 0 0 0 0 0 0 0 0 0 0 0 0 0 0.11 0"/>
<feBlend mode="multiply" in2="effect1_dropShadow_701_21432" result="effect2_dropShadow_701_21432"/>
<feBlend mode="normal" in="SourceGraphic" in2="effect2_dropShadow_701_21432" result="shape"/>
</filter>
<clipPath id="clip0_701_21432">
<rect x="1.5" y="1" width="24" height="18" fill="white"/>
</clipPath>
</defs>
</svg>