<svg viewBox="0 0 27 21" fill="none" xmlns="http://www.w3.org/2000/svg">
<g filter="url(#filter0_dd_701_20826)">
<g clip-path="url(#clip0_701_20826)">
<mask id="mask0_701_20826" style="mask-type:alpha" maskUnits="userSpaceOnUse" x="1" y="1" width="25" height="18">
<rect x="1.5" y="1" width="24" height="18" fill="white"/>
</mask>
<g mask="url(#mask0_701_20826)">
<path fill-rule="evenodd" clip-rule="evenodd" d="M7.5 1H25.5V19H7.5V1Z" fill="#EF0000"/>
<path fill-rule="evenodd" clip-rule="evenodd" d="M1.5 1H10.5V19H1.5V1Z" fill="#2F8D00"/>
<mask id="mask1_701_20826" style="mask-type:alpha" maskUnits="userSpaceOnUse" x="4" y="4" width="13" height="12">
<path fill-rule="evenodd" clip-rule="evenodd" d="M10.4286 15.8554C7.23321 15.8554 4.64285 13.2338 4.64285 9.99995C4.64285 6.76609 7.23321 4.14453 10.4286 4.14453C13.6239 4.14453 16.2143 6.76609 16.2143 9.99995C16.2143 13.2338 13.6239 15.8554 10.4286 15.8554Z" fill="white"/>
</mask>
<g mask="url(#mask1_701_20826)">
<path fill-rule="evenodd" clip-rule="evenodd" d="M10.0714 4H10.8214V6.0241H10.0714V4Z" fill="#FFE017"/>
<path fill-rule="evenodd" clip-rule="evenodd" d="M10.0714 14.1204H10.8214V15.9999H10.0714V14.1204Z" fill="#FFE017"/>
<path d="M4.73584 10.3028L4.52615 9.7648C6.84004 8.84104 8.58646 8.24531 9.77146 7.97683C11.51 7.58293 13.4204 7.29149 15.5025 7.10229L15.5536 7.67829C13.4953 7.86531 11.6095 8.15301 9.89629 8.54118C8.74658 8.80166 7.02441 9.38912 4.73584 10.3028Z" fill="#FFE017"/>
<path d="M15.8556 6.74782L15.6855 7.2999C13.9367 6.74781 12.5121 6.5105 11.4171 6.58401L11.3793 6.00696C12.555 5.92804 14.0453 6.17631 15.8556 6.74782Z" fill="#FFE017"/>
<path d="M16.4607 9.83475L16.1375 10.3116C15.246 9.69268 14.1476 9.38178 12.835 9.38178V8.80347C14.258 8.80347 15.4691 9.14628 16.4607 9.83475Z" fill="#FFE017"/>
<path d="M15.9765 10.0078L16.1242 10.5665C14.2023 11.0871 12.3978 11.3824 10.7107 11.452C9.012 11.522 7.0321 11.2256 4.76933 10.565L4.92772 10.0093C7.1355 10.6539 9.05597 10.9414 10.6875 10.8742C12.3306 10.8064 14.0936 10.5178 15.9765 10.0078Z" fill="#FFE017"/>
<path d="M15.7588 12.7268L14.8555 13.6528C13.139 11.9379 11.6278 10.7117 10.3312 9.97488C9.01252 9.22552 7.29277 8.46459 5.17468 7.69516L5.60904 6.47046C7.7896 7.26258 9.5726 8.0515 10.9607 8.84029C12.371 9.64168 13.9673 10.9369 15.7588 12.7268Z" fill="#FFE017"/>
<path d="M5.59373 13.2515L5.25183 12.7881C5.29958 12.7521 5.38477 12.6919 5.50214 12.6156C5.69594 12.4897 5.91114 12.364 6.14269 12.2466C6.78042 11.9231 7.42012 11.7211 8.03026 11.7025C8.0601 11.7016 8.08981 11.7012 8.1194 11.7012V12.2795C8.09556 12.2795 8.07157 12.2799 8.04742 12.2806C7.53324 12.2962 6.96859 12.4745 6.39874 12.7636C6.18634 12.8713 5.98844 12.9869 5.81083 13.1023C5.74901 13.1425 5.69431 13.1796 5.64743 13.2127C5.62011 13.232 5.60197 13.2453 5.59373 13.2515Z" fill="#FFE017"/>
<path d="M5.85912 13.4518L6.00302 12.8921C7.90811 13.3938 9.37682 13.6438 10.4018 13.6438C11.423 13.6438 12.943 13.3489 14.9518 12.7571L15.1115 13.3123C13.0552 13.9182 11.4886 14.2221 10.4018 14.2221C9.31893 14.2221 7.80713 13.9648 5.85912 13.4518Z" fill="#FFE017"/>
<path d="M5.11682 8.27087L6.02213 7.34692L7.34762 8.67715L6.44231 9.6011L5.11682 8.27087Z" fill="#FFE017"/>
<path d="M12.6269 12.8858L13.3003 11.7773L15.403 13.0857L14.7297 14.1942L12.6269 12.8858Z" fill="#FFE017"/>
</g>
<path fill-rule="evenodd" clip-rule="evenodd" d="M4.64285 9.99995C4.64285 13.2338 7.23321 15.8554 10.4286 15.8554C13.6239 15.8554 16.2143 13.2338 16.2143 9.99995C16.2143 6.76609 13.6239 4.14453 10.4286 4.14453C7.23321 4.14453 4.64285 6.76609 4.64285 9.99995ZM15.5 10.0722C15.5 12.8669 13.2614 15.1325 10.5 15.1325C7.73857 15.1325 5.5 12.8669 5.5 10.0722C5.5 7.27755 7.73857 5.012 10.5 5.012C13.2614 5.012 15.5 7.27755 15.5 10.0722Z" fill="#F9E813"/>
<path d="M7.24252 6.38892V11.0844C7.55162 12.943 8.59297 13.8723 10.3666 13.8723C12.1402 13.8723 13.1815 12.943 13.4906 11.0844V6.38892H7.24252Z" fill="white"/>
<path d="M6.81395 5.95508H13.9192V11.1206L13.9132 11.1563C13.57 13.2201 12.3532 14.3059 10.3666 14.3059C8.37989 14.3059 7.16312 13.2201 6.81989 11.1563L6.81395 11.1206V5.95508Z" fill="#C51918"/>
<path d="M8.43916 7.53296H12.294V10.8636C12.294 10.8636 12.0079 12.5836 10.3666 12.5836C8.72522 12.5836 8.43916 10.8636 8.43916 10.8636V7.53296Z" fill="#F7FCFF"/>
<path fill-rule="evenodd" clip-rule="evenodd" d="M7.5 6.31323H8.04217V6.67468H7.5V6.31323Z" fill="#F9E813"/>
<path fill-rule="evenodd" clip-rule="evenodd" d="M7.21428 6.45776H8.21428V6.63849H7.21428V6.45776Z" fill="#060101"/>
<path fill-rule="evenodd" clip-rule="evenodd" d="M7.21428 6.60229H7.75645V6.78302H7.21428V6.60229Z" fill="#F9E813"/>
<path fill-rule="evenodd" clip-rule="evenodd" d="M7.78571 6.60229H8.32787V6.78302H7.78571V6.60229Z" fill="#F9E813"/>
<path fill-rule="evenodd" clip-rule="evenodd" d="M7.21428 7.03613H7.57572V7.5783H7.21428V7.03613Z" fill="#F9E813"/>
<path fill-rule="evenodd" clip-rule="evenodd" d="M7.92856 7.03613H8.29V7.5783H7.92856V7.03613Z" fill="#F9E813"/>
<path fill-rule="evenodd" clip-rule="evenodd" d="M7.64285 7.03613H7.82358V7.5783H7.64285V7.03613Z" fill="#F9E813"/>
<path fill-rule="evenodd" clip-rule="evenodd" d="M7.21428 6.8916H8.21428V7.07232H7.21428V6.8916Z" fill="#060101"/>
<path fill-rule="evenodd" clip-rule="evenodd" d="M7.21428 7.3252H8.21428V7.50592H7.21428V7.3252Z" fill="#060101"/>
<path fill-rule="evenodd" clip-rule="evenodd" d="M7.35713 6.74707H7.53785V6.92779H7.35713V6.74707Z" fill="#F9E813"/>
<path fill-rule="evenodd" clip-rule="evenodd" d="M7.92856 6.74707H8.10928V6.92779H7.92856V6.74707Z" fill="#F9E813"/>
<path fill-rule="evenodd" clip-rule="evenodd" d="M7.64285 6.60229H7.82358V6.96374H7.64285V6.60229Z" fill="#F9E813"/>
<path fill-rule="evenodd" clip-rule="evenodd" d="M10.2143 6.31323H10.7564V6.67468H10.2143V6.31323Z" fill="#F9E813"/>
<path fill-rule="evenodd" clip-rule="evenodd" d="M9.92856 6.45776H10.9286V6.63849H9.92856V6.45776Z" fill="#060101"/>
<path fill-rule="evenodd" clip-rule="evenodd" d="M9.92856 6.60229H10.4707V6.78302H9.92856V6.60229Z" fill="#F9E813"/>
<path fill-rule="evenodd" clip-rule="evenodd" d="M10.5 6.60229H11.0422V6.78302H10.5V6.60229Z" fill="#F9E813"/>
<path fill-rule="evenodd" clip-rule="evenodd" d="M9.92856 7.03613H10.29V7.5783H9.92856V7.03613Z" fill="#F9E813"/>
<path fill-rule="evenodd" clip-rule="evenodd" d="M10.6428 7.03613H11.0043V7.5783H10.6428V7.03613Z" fill="#F9E813"/>
<path fill-rule="evenodd" clip-rule="evenodd" d="M10.3571 7.03613H10.5379V7.5783H10.3571V7.03613Z" fill="#F9E813"/>
<path fill-rule="evenodd" clip-rule="evenodd" d="M9.92856 6.8916H10.9286V7.07232H9.92856V6.8916Z" fill="#060101"/>
<path fill-rule="evenodd" clip-rule="evenodd" d="M9.92856 7.3252H10.9286V7.50592H9.92856V7.3252Z" fill="#060101"/>
<path fill-rule="evenodd" clip-rule="evenodd" d="M10.0714 6.74707H10.2521V6.92779H10.0714V6.74707Z" fill="#F9E813"/>
<path fill-rule="evenodd" clip-rule="evenodd" d="M10.6428 6.74707H10.8236V6.92779H10.6428V6.74707Z" fill="#F9E813"/>
<path fill-rule="evenodd" clip-rule="evenodd" d="M10.3571 6.60229H10.5379V6.96374H10.3571V6.60229Z" fill="#F9E813"/>
<path fill-rule="evenodd" clip-rule="evenodd" d="M12.7857 6.31323H13.3279V6.67468H12.7857V6.31323Z" fill="#F9E813"/>
<path fill-rule="evenodd" clip-rule="evenodd" d="M12.5 6.45776H13.5V6.63849H12.5V6.45776Z" fill="#060101"/>
<path fill-rule="evenodd" clip-rule="evenodd" d="M12.5 6.60229H13.0422V6.78302H12.5V6.60229Z" fill="#F9E813"/>
<path fill-rule="evenodd" clip-rule="evenodd" d="M13.0714 6.60229H13.6136V6.78302H13.0714V6.60229Z" fill="#F9E813"/>
<path fill-rule="evenodd" clip-rule="evenodd" d="M12.5 7.03613H12.8614V7.5783H12.5V7.03613Z" fill="#F9E813"/>
<path fill-rule="evenodd" clip-rule="evenodd" d="M13.2143 7.03613H13.5757V7.5783H13.2143V7.03613Z" fill="#F9E813"/>
<path fill-rule="evenodd" clip-rule="evenodd" d="M12.9286 7.03613H13.1093V7.5783H12.9286V7.03613Z" fill="#F9E813"/>
<path fill-rule="evenodd" clip-rule="evenodd" d="M12.5 6.8916H13.5V7.07232H12.5V6.8916Z" fill="#060101"/>
<path fill-rule="evenodd" clip-rule="evenodd" d="M12.5 7.3252H13.5V7.50592H12.5V7.3252Z" fill="#060101"/>
<path fill-rule="evenodd" clip-rule="evenodd" d="M12.6429 6.74707H12.8236V6.92779H12.6429V6.74707Z" fill="#F9E813"/>
<path fill-rule="evenodd" clip-rule="evenodd" d="M13.2143 6.74707H13.395V6.92779H13.2143V6.74707Z" fill="#F9E813"/>
<path fill-rule="evenodd" clip-rule="evenodd" d="M12.9286 6.60229H13.1093V6.96374H12.9286V6.60229Z" fill="#F9E813"/>
<path fill-rule="evenodd" clip-rule="evenodd" d="M12.7857 8.91553H13.3279V9.27697H12.7857V8.91553Z" fill="#F9E813"/>
<path fill-rule="evenodd" clip-rule="evenodd" d="M12.5 9.06006H13.5V9.24078H12.5V9.06006Z" fill="#060101"/>
<path fill-rule="evenodd" clip-rule="evenodd" d="M12.5 9.20459H13.0422V9.38531H12.5V9.20459Z" fill="#F9E813"/>
<path fill-rule="evenodd" clip-rule="evenodd" d="M13.0714 9.20459H13.6136V9.38531H13.0714V9.20459Z" fill="#F9E813"/>
<path fill-rule="evenodd" clip-rule="evenodd" d="M12.5 9.63843H12.8614V10.1806H12.5V9.63843Z" fill="#F9E813"/>
<path fill-rule="evenodd" clip-rule="evenodd" d="M13.2143 9.63843H13.5757V10.1806H13.2143V9.63843Z" fill="#F9E813"/>
<path fill-rule="evenodd" clip-rule="evenodd" d="M12.9286 9.63843H13.1093V10.1806H12.9286V9.63843Z" fill="#F9E813"/>
<path fill-rule="evenodd" clip-rule="evenodd" d="M12.5 9.4939H13.5V9.67462H12.5V9.4939Z" fill="#060101"/>
<path fill-rule="evenodd" clip-rule="evenodd" d="M12.5 9.92749H13.5V10.1082H12.5V9.92749Z" fill="#060101"/>
<path fill-rule="evenodd" clip-rule="evenodd" d="M12.6429 9.34937H12.8236V9.53009H12.6429V9.34937Z" fill="#F9E813"/>
<path fill-rule="evenodd" clip-rule="evenodd" d="M13.2143 9.34937H13.395V9.53009H13.2143V9.34937Z" fill="#F9E813"/>
<path fill-rule="evenodd" clip-rule="evenodd" d="M12.9286 9.20459H13.1093V9.56604H12.9286V9.20459Z" fill="#F9E813"/>
<path fill-rule="evenodd" clip-rule="evenodd" d="M7.5 8.91553H8.04217V9.27697H7.5V8.91553Z" fill="#F9E813"/>
<path fill-rule="evenodd" clip-rule="evenodd" d="M7.21428 9.06006H8.21428V9.24078H7.21428V9.06006Z" fill="#060101"/>
<path fill-rule="evenodd" clip-rule="evenodd" d="M7.21428 9.20459H7.75645V9.38531H7.21428V9.20459Z" fill="#F9E813"/>
<path fill-rule="evenodd" clip-rule="evenodd" d="M7.78571 9.20459H8.32787V9.38531H7.78571V9.20459Z" fill="#F9E813"/>
<path fill-rule="evenodd" clip-rule="evenodd" d="M7.21428 9.63843H7.57572V10.1806H7.21428V9.63843Z" fill="#F9E813"/>
<path fill-rule="evenodd" clip-rule="evenodd" d="M7.92856 9.63843H8.29V10.1806H7.92856V9.63843Z" fill="#F9E813"/>
<path fill-rule="evenodd" clip-rule="evenodd" d="M7.64285 9.63843H7.82358V10.1806H7.64285V9.63843Z" fill="#F9E813"/>
<path fill-rule="evenodd" clip-rule="evenodd" d="M7.21428 9.4939H8.21428V9.67462H7.21428V9.4939Z" fill="#060101"/>
<path fill-rule="evenodd" clip-rule="evenodd" d="M7.21428 9.92749H8.21428V10.1082H7.21428V9.92749Z" fill="#060101"/>
<path fill-rule="evenodd" clip-rule="evenodd" d="M7.35713 9.34937H7.53785V9.53009H7.35713V9.34937Z" fill="#F9E813"/>
<path fill-rule="evenodd" clip-rule="evenodd" d="M7.92856 9.34937H8.10928V9.53009H7.92856V9.34937Z" fill="#F9E813"/>
<path fill-rule="evenodd" clip-rule="evenodd" d="M7.64285 9.20459H7.82358V9.56604H7.64285V9.20459Z" fill="#F9E813"/>
<path fill-rule="evenodd" clip-rule="evenodd" d="M7.84781 12.178L8.19631 11.7627L8.47319 11.995L8.12469 12.4103L7.84781 12.178Z" fill="#F9E813"/>
<path fill-rule="evenodd" clip-rule="evenodd" d="M7.7749 12.4897L8.41769 11.7237L8.55613 11.8399L7.91334 12.6059L7.7749 12.4897Z" fill="#060101"/>
<path fill-rule="evenodd" clip-rule="evenodd" d="M7.88567 12.5825L8.23417 12.1672L8.37261 12.2834L8.02411 12.6987L7.88567 12.5825Z" fill="#F9E813"/>
<path fill-rule="evenodd" clip-rule="evenodd" d="M8.25298 12.1448L8.60147 11.7295L8.73992 11.8456L8.39142 12.2609L8.25298 12.1448Z" fill="#F9E813"/>
<path fill-rule="evenodd" clip-rule="evenodd" d="M8.21793 12.8613L8.45026 12.5844L8.86558 12.9329L8.63325 13.2098L8.21793 12.8613Z" fill="#F9E813"/>
<path fill-rule="evenodd" clip-rule="evenodd" d="M8.67705 12.3142L8.90938 12.0373L9.32471 12.3858L9.09237 12.6627L8.67705 12.3142Z" fill="#F9E813"/>
<path fill-rule="evenodd" clip-rule="evenodd" d="M8.49341 12.5332L8.60957 12.3948L9.0249 12.7433L8.90873 12.8817L8.49341 12.5332Z" fill="#F9E813"/>
<path fill-rule="evenodd" clip-rule="evenodd" d="M8.10716 12.7686L8.74995 12.0025L8.88839 12.1187L8.2456 12.8847L8.10716 12.7686Z" fill="#060101"/>
<path fill-rule="evenodd" clip-rule="evenodd" d="M8.43942 13.0474L9.08221 12.2813L9.22065 12.3975L8.57786 13.1635L8.43942 13.0474Z" fill="#060101"/>
<path fill-rule="evenodd" clip-rule="evenodd" d="M8.08824 12.5662L8.20441 12.4277L8.34285 12.5439L8.22668 12.6823L8.08824 12.5662Z" fill="#F9E813"/>
<path fill-rule="evenodd" clip-rule="evenodd" d="M8.45555 12.1284L8.57172 11.99L8.71016 12.1061L8.59399 12.2446L8.45555 12.1284Z" fill="#F9E813"/>
<path fill-rule="evenodd" clip-rule="evenodd" d="M8.16115 12.2544L8.27731 12.116L8.5542 12.3483L8.43803 12.4867L8.16115 12.2544Z" fill="#F9E813"/>
<path fill-rule="evenodd" clip-rule="evenodd" d="M12.7338 11.8496L13.0823 12.2649L12.8055 12.4973L12.457 12.0819L12.7338 11.8496Z" fill="#F9E813"/>
<path fill-rule="evenodd" clip-rule="evenodd" d="M12.4394 11.7239L13.0822 12.4899L12.9438 12.6061L12.301 11.84L12.4394 11.7239Z" fill="#060101"/>
<path fill-rule="evenodd" clip-rule="evenodd" d="M12.3287 11.8167L12.6772 12.232L12.5387 12.3481L12.1902 11.9328L12.3287 11.8167Z" fill="#F9E813"/>
<path fill-rule="evenodd" clip-rule="evenodd" d="M12.696 12.2544L13.0445 12.6697L12.906 12.7859L12.5575 12.3706L12.696 12.2544Z" fill="#F9E813"/>
<path fill-rule="evenodd" clip-rule="evenodd" d="M11.9964 12.0955L12.2287 12.3723L11.8134 12.7208L11.5811 12.444L11.9964 12.0955Z" fill="#F9E813"/>
<path fill-rule="evenodd" clip-rule="evenodd" d="M12.4556 12.6426L12.6879 12.9195L12.2726 13.268L12.0402 12.9911L12.4556 12.6426Z" fill="#F9E813"/>
<path fill-rule="evenodd" clip-rule="evenodd" d="M12.2719 12.4238L12.3881 12.5623L11.9727 12.9108L11.8566 12.7723L12.2719 12.4238Z" fill="#F9E813"/>
<path fill-rule="evenodd" clip-rule="evenodd" d="M12.1072 12.0027L12.75 12.7687L12.6115 12.8849L11.9687 12.1189L12.1072 12.0027Z" fill="#060101"/>
<path fill-rule="evenodd" clip-rule="evenodd" d="M11.7749 12.2815L12.4177 13.0475L12.2793 13.1637L11.6365 12.3977L11.7749 12.2815Z" fill="#060101"/>
<path fill-rule="evenodd" clip-rule="evenodd" d="M12.3098 12.019L12.4259 12.1575L12.2875 12.2737L12.1713 12.1352L12.3098 12.019Z" fill="#F9E813"/>
<path fill-rule="evenodd" clip-rule="evenodd" d="M12.6771 12.4568L12.7932 12.5952L12.6548 12.7114L12.5386 12.573L12.6771 12.4568Z" fill="#F9E813"/>
<path fill-rule="evenodd" clip-rule="evenodd" d="M12.6042 12.145L12.7203 12.2835L12.4434 12.5158L12.3273 12.3774L12.6042 12.145Z" fill="#F9E813"/>
<path fill-rule="evenodd" clip-rule="evenodd" d="M10.9188 7.90356H9.92857V8.62467C9.92857 8.62467 10.0021 8.99705 10.4237 8.99705C10.8453 8.99705 10.9188 8.62467 10.9188 8.62467V7.90356ZM10.3571 8.19272C10.3571 8.27257 10.2932 8.3373 10.2143 8.3373C10.1354 8.3373 10.0714 8.27257 10.0714 8.19272C10.0714 8.11287 10.1354 8.04814 10.2143 8.04814C10.2932 8.04814 10.3571 8.11287 10.3571 8.19272ZM10.2143 8.91561C10.2932 8.91561 10.3571 8.85088 10.3571 8.77103C10.3571 8.69119 10.2932 8.62646 10.2143 8.62646C10.1354 8.62646 10.0714 8.69119 10.0714 8.77103C10.0714 8.85088 10.1354 8.91561 10.2143 8.91561ZM10.7857 8.77103C10.7857 8.85088 10.7218 8.91561 10.6429 8.91561C10.564 8.91561 10.5 8.85088 10.5 8.77103C10.5 8.69119 10.564 8.62646 10.6429 8.62646C10.7218 8.62646 10.7857 8.69119 10.7857 8.77103ZM10.4286 8.62646C10.5075 8.62646 10.5714 8.56173 10.5714 8.48188C10.5714 8.40203 10.5075 8.3373 10.4286 8.3373C10.3497 8.3373 10.2857 8.40203 10.2857 8.48188C10.2857 8.56173 10.3497 8.62646 10.4286 8.62646ZM10.7857 8.19272C10.7857 8.27257 10.7218 8.3373 10.6429 8.3373C10.564 8.3373 10.5 8.27257 10.5 8.19272C10.5 8.11287 10.564 8.04814 10.6429 8.04814C10.7218 8.04814 10.7857 8.11287 10.7857 8.19272Z" fill="#013399"/>
<path fill-rule="evenodd" clip-rule="evenodd" d="M10.9188 9.4939H9.92857V10.215C9.92857 10.215 10.0021 10.5874 10.4237 10.5874C10.8453 10.5874 10.9188 10.215 10.9188 10.215V9.4939ZM10.3571 9.78305C10.3571 9.8629 10.2932 9.92763 10.2143 9.92763C10.1354 9.92763 10.0714 9.8629 10.0714 9.78305C10.0714 9.7032 10.1354 9.63847 10.2143 9.63847C10.2932 9.63847 10.3571 9.7032 10.3571 9.78305ZM10.2143 10.5059C10.2932 10.5059 10.3571 10.4412 10.3571 10.3614C10.3571 10.2815 10.2932 10.2168 10.2143 10.2168C10.1354 10.2168 10.0714 10.2815 10.0714 10.3614C10.0714 10.4412 10.1354 10.5059 10.2143 10.5059ZM10.7857 10.3614C10.7857 10.4412 10.7218 10.5059 10.6429 10.5059C10.564 10.5059 10.5 10.4412 10.5 10.3614C10.5 10.2815 10.564 10.2168 10.6429 10.2168C10.7218 10.2168 10.7857 10.2815 10.7857 10.3614ZM10.4286 10.2168C10.5075 10.2168 10.5714 10.1521 10.5714 10.0722C10.5714 9.99236 10.5075 9.92763 10.4286 9.92763C10.3497 9.92763 10.2857 9.99236 10.2857 10.0722C10.2857 10.1521 10.3497 10.2168 10.4286 10.2168ZM10.7857 9.78305C10.7857 9.8629 10.7218 9.92763 10.6429 9.92763C10.564 9.92763 10.5 9.8629 10.5 9.78305C10.5 9.7032 10.564 9.63847 10.6429 9.63847C10.7218 9.63847 10.7857 9.7032 10.7857 9.78305Z" fill="#013399"/>
<path fill-rule="evenodd" clip-rule="evenodd" d="M12.2045 9.4939H11.2143V10.215C11.2143 10.215 11.2878 10.5874 11.7094 10.5874C12.1311 10.5874 12.2045 10.215 12.2045 10.215V9.4939ZM11.6429 9.78305C11.6429 9.8629 11.5789 9.92763 11.5 9.92763C11.4211 9.92763 11.3572 9.8629 11.3572 9.78305C11.3572 9.7032 11.4211 9.63847 11.5 9.63847C11.5789 9.63847 11.6429 9.7032 11.6429 9.78305ZM11.5 10.5059C11.5789 10.5059 11.6429 10.4412 11.6429 10.3614C11.6429 10.2815 11.5789 10.2168 11.5 10.2168C11.4211 10.2168 11.3572 10.2815 11.3572 10.3614C11.3572 10.4412 11.4211 10.5059 11.5 10.5059ZM12.0714 10.3614C12.0714 10.4412 12.0075 10.5059 11.9286 10.5059C11.8497 10.5059 11.7857 10.4412 11.7857 10.3614C11.7857 10.2815 11.8497 10.2168 11.9286 10.2168C12.0075 10.2168 12.0714 10.2815 12.0714 10.3614ZM11.7143 10.2168C11.7932 10.2168 11.8572 10.1521 11.8572 10.0722C11.8572 9.99236 11.7932 9.92763 11.7143 9.92763C11.6354 9.92763 11.5714 9.99236 11.5714 10.0722C11.5714 10.1521 11.6354 10.2168 11.7143 10.2168ZM12.0714 9.78305C12.0714 9.8629 12.0075 9.92763 11.9286 9.92763C11.8497 9.92763 11.7857 9.8629 11.7857 9.78305C11.7857 9.7032 11.8497 9.63847 11.9286 9.63847C12.0075 9.63847 12.0714 9.7032 12.0714 9.78305Z" fill="#013399"/>
<path fill-rule="evenodd" clip-rule="evenodd" d="M9.6331 9.4939H8.64285V10.215C8.64285 10.215 8.71634 10.5874 9.13798 10.5874C9.55962 10.5874 9.6331 10.215 9.6331 10.215V9.4939ZM9.07142 9.78305C9.07142 9.8629 9.00746 9.92763 8.92857 9.92763C8.84967 9.92763 8.78571 9.8629 8.78571 9.78305C8.78571 9.7032 8.84967 9.63847 8.92857 9.63847C9.00746 9.63847 9.07142 9.7032 9.07142 9.78305ZM8.92857 10.5059C9.00746 10.5059 9.07142 10.4412 9.07142 10.3614C9.07142 10.2815 9.00746 10.2168 8.92857 10.2168C8.84967 10.2168 8.78571 10.2815 8.78571 10.3614C8.78571 10.4412 8.84967 10.5059 8.92857 10.5059ZM9.5 10.3614C9.5 10.4412 9.43604 10.5059 9.35714 10.5059C9.27824 10.5059 9.21428 10.4412 9.21428 10.3614C9.21428 10.2815 9.27824 10.2168 9.35714 10.2168C9.43604 10.2168 9.5 10.2815 9.5 10.3614ZM9.14285 10.2168C9.22175 10.2168 9.28571 10.1521 9.28571 10.0722C9.28571 9.99236 9.22175 9.92763 9.14285 9.92763C9.06395 9.92763 9 9.99236 9 10.0722C9 10.1521 9.06395 10.2168 9.14285 10.2168ZM9.5 9.78305C9.5 9.8629 9.43604 9.92763 9.35714 9.92763C9.27824 9.92763 9.21428 9.8629 9.21428 9.78305C9.21428 9.7032 9.27824 9.63847 9.35714 9.63847C9.43604 9.63847 9.5 9.7032 9.5 9.78305Z" fill="#013399"/>
<path fill-rule="evenodd" clip-rule="evenodd" d="M10.9188 11.0842H9.92857V11.8053C9.92857 11.8053 10.0021 12.1777 10.4237 12.1777C10.8453 12.1777 10.9188 11.8053 10.9188 11.8053V11.0842ZM10.3571 11.3734C10.3571 11.4532 10.2932 11.518 10.2143 11.518C10.1354 11.518 10.0714 11.4532 10.0714 11.3734C10.0714 11.2935 10.1354 11.2288 10.2143 11.2288C10.2932 11.2288 10.3571 11.2935 10.3571 11.3734ZM10.2143 12.0963C10.2932 12.0963 10.3571 12.0315 10.3571 11.9517C10.3571 11.8719 10.2932 11.8071 10.2143 11.8071C10.1354 11.8071 10.0714 11.8719 10.0714 11.9517C10.0714 12.0315 10.1354 12.0963 10.2143 12.0963ZM10.7857 11.9517C10.7857 12.0315 10.7218 12.0963 10.6429 12.0963C10.564 12.0963 10.5 12.0315 10.5 11.9517C10.5 11.8719 10.564 11.8071 10.6429 11.8071C10.7218 11.8071 10.7857 11.8719 10.7857 11.9517ZM10.4286 11.8071C10.5075 11.8071 10.5714 11.7424 10.5714 11.6625C10.5714 11.5827 10.5075 11.518 10.4286 11.518C10.3497 11.518 10.2857 11.5827 10.2857 11.6625C10.2857 11.7424 10.3497 11.8071 10.4286 11.8071ZM10.7857 11.3734C10.7857 11.4532 10.7218 11.518 10.6429 11.518C10.564 11.518 10.5 11.4532 10.5 11.3734C10.5 11.2935 10.564 11.2288 10.6429 11.2288C10.7218 11.2288 10.7857 11.2935 10.7857 11.3734Z" fill="#013399"/>
</g>
</g>
<rect x="1.75" y="1.25" width="23.5" height="17.5" stroke="black" stroke-opacity="0.1" stroke-width="0.5" shape-rendering="crispEdges"/>
</g>
<defs>
<filter id="filter0_dd_701_20826" x="0" y="0" width="27" height="21" filterUnits="userSpaceOnUse" color-interpolation-filters="sRGB">
<feFlood flood-opacity="0" result="BackgroundImageFix"/>
<feColorMatrix in="SourceAlpha" type="matrix" values="0 0 0 0 0 0 0 0 0 0 0 0 0 0 0 0 0 0 127 0" result="hardAlpha"/>
<feOffset dy="0.5"/>
<feGaussianBlur stdDeviation="0.75"/>
<feComposite in2="hardAlpha" operator="out"/>
<feColorMatrix type="matrix" values="0 0 0 0 0 0 0 0 0 0 0 0 0 0 0 0 0 0 0.1 0"/>
<feBlend mode="multiply" in2="BackgroundImageFix" result="effect1_dropShadow_701_20826"/>
<feColorMatrix in="SourceAlpha" type="matrix" values="0 0 0 0 0 0 0 0 0 0 0 0 0 0 0 0 0 0 127 0" result="hardAlpha"/>
<feOffset/>
<feGaussianBlur stdDeviation="0.5"/>
<feComposite in2="hardAlpha" operator="out"/>
<feColorMatrix type="matrix" values="0 0 0 0 0 0 0 0 0 0 0 0 0 0 0 0 0 0 0.11 0"/>
<feBlend mode="multiply" in2="effect1_dropShadow_701_20826" result="effect2_dropShadow_701_20826"/>
<feBlend mode="normal" in="SourceGraphic" in2="effect2_dropShadow_701_20826" result="shape"/>
</filter>
<clipPath id="clip0_701_20826">
<rect x="1.5" y="1" width="24" height="18" fill="white"/>
</clipPath>
</defs>
</svg>