<svg viewBox="0 0 27 21" fill="none" xmlns="http://www.w3.org/2000/svg">
<g filter="url(#filter0_dd_701_19247)">
<g clip-path="url(#clip0_701_19247)">
<mask id="mask0_701_19247" style="mask-type:alpha" maskUnits="userSpaceOnUse" x="1" y="1" width="25" height="18">
<rect x="1.5" y="1" width="24" height="18" fill="white"/>
</mask>
<g mask="url(#mask0_701_19247)">
<path fill-rule="evenodd" clip-rule="evenodd" d="M1.5 1V19H25.5V1H1.5Z" fill="#F7FCFF"/>
<mask id="mask1_701_19247" style="mask-type:alpha" maskUnits="userSpaceOnUse" x="1" y="1" width="25" height="18">
<path fill-rule="evenodd" clip-rule="evenodd" d="M1.5 1V19H25.5V1H1.5Z" fill="white"/>
</mask>
<g mask="url(#mask1_701_19247)">
<path fill-rule="evenodd" clip-rule="evenodd" d="M14.7019 7.16125C14.8834 7.26452 14.9922 7.52892 14.9922 7.52892H11.9262L12.1379 7.16125C12.1379 7.16125 11.9262 7.06517 12.0327 7.06517C12.1392 7.06517 12.4429 6.63908 12.4429 6.63908H12.3162C12.3162 6.63908 12.251 6.53308 12.4429 6.53308C12.6348 6.53308 12.788 5.84724 12.788 5.84724C12.788 5.84724 12.9139 5.52635 12.6057 5.44536C12.2976 5.36438 11.9262 5.71362 11.9262 5.71362C11.9262 5.71362 12.0168 5.15488 12.1379 5.03385C12.1941 4.9776 12.2992 4.96866 12.3955 4.96046C12.5064 4.95102 12.6057 4.94256 12.6057 4.86393C12.6057 4.71704 12.9666 4.60254 13.5564 4.60254C14.1462 4.60254 14.3604 5.30698 14.3604 5.44536C14.3604 5.58375 14.5621 6.31927 14.5621 6.31927C14.5621 6.31927 14.3604 6.31927 14.3604 6.41415C14.3604 6.50903 14.9922 6.91908 14.9922 6.91908C14.9922 6.91908 14.5204 7.05797 14.7019 7.16125ZM3.58291 4.65227C3.81814 4.55133 6.20861 5.26368 7.99929 5.79728L7.9993 5.79729L7.99931 5.79729C9.02904 6.10414 9.86043 6.35189 9.96957 6.35189C10.2685 6.35189 10.8309 7.07571 10.5497 7.38038C10.2685 7.68504 10.1734 7.86309 10.3615 7.86309C10.5497 7.86309 11.4987 7.6168 11.4987 7.6168V10.4456C11.4987 10.4456 10.5892 10.6615 10.3615 10.4456C10.2513 10.3411 10.0831 10.3348 9.93903 10.3294C9.78554 10.3237 9.6593 10.319 9.6593 10.1977C9.6593 9.96241 9.13521 9.92542 9.13521 9.92542C9.13521 9.92542 8.65021 9.76549 8.65021 9.61501C8.65021 9.46454 8.33283 9.03922 8.33283 9.03922C8.33283 9.03922 7.12324 8.3544 6.0948 7.60291C5.88703 7.45109 5.6817 7.30806 5.48511 7.17111C4.70858 6.63018 4.06844 6.18426 3.95341 5.66737C3.41628 5.13547 3.21241 4.81124 3.58291 4.65227ZM11.1328 10.624C11.1328 10.624 10.7256 10.9047 10.275 11.6561C10.0534 12.0257 10.0355 12.3513 10.0226 12.5868C10.0093 12.83 10.0013 12.977 9.7794 12.977C9.52042 12.977 9.33253 13.033 9.17961 13.0786C9.07467 13.1099 8.9862 13.1363 8.90253 13.1363C8.69693 13.1363 8.30215 13.9124 8.49954 14.092C8.69693 14.2716 9.52397 14.5579 9.52397 14.092C9.52397 13.6261 9.74642 13.3614 10.1506 13.3614C10.5548 13.3614 11.2773 13.0938 11.2773 12.5066C11.2773 11.9194 12.065 11.9613 12.065 11.9613L11.1328 10.624ZM19.171 5.79728C20.9616 5.26368 23.3521 4.55133 23.5873 4.65227C23.9578 4.81124 23.754 5.13547 23.2168 5.66737C23.1018 6.18426 22.4617 6.63018 21.6852 7.17111C21.4886 7.30806 21.2832 7.45109 21.0755 7.60291C20.047 8.3544 18.8374 9.03922 18.8374 9.03922C18.8374 9.03922 18.52 9.46454 18.52 9.61501C18.52 9.76549 18.035 9.92542 18.035 9.92542C18.035 9.92542 17.511 9.96241 17.511 10.1977C17.511 10.319 17.3847 10.3237 17.2312 10.3294C17.0871 10.3348 16.919 10.3411 16.8087 10.4456C16.5811 10.6615 15.6715 10.4456 15.6715 10.4456V7.6168C15.6715 7.6168 16.6206 7.86309 16.8087 7.86309C16.9969 7.86309 16.9017 7.68504 16.6206 7.38038C16.3394 7.07571 16.9017 6.35189 17.2007 6.35189C17.3098 6.35189 18.1412 6.10414 19.1709 5.79729L19.171 5.79728ZM16.0374 10.624C16.0374 10.624 16.4447 10.9047 16.8952 11.6561C17.1169 12.0257 17.1347 12.3513 17.1476 12.5868C17.1609 12.83 17.169 12.977 17.3909 12.977C17.6498 12.977 17.8377 13.033 17.9906 13.0786C18.0956 13.1099 18.1841 13.1363 18.2677 13.1363C18.4733 13.1363 18.8681 13.9124 18.6707 14.092C18.4733 14.2716 17.6463 14.5579 17.6463 14.092C17.6463 13.6261 17.4238 13.3614 17.0196 13.3614C16.6154 13.3614 15.893 13.0938 15.893 12.5066C15.893 11.9194 15.1052 11.9613 15.1052 11.9613L16.0374 10.624ZM11.6557 12.5819C11.6557 12.3232 12.1129 12.1281 12.1129 12.1281L13.4889 11.5474C13.4889 11.5474 13.4959 11.6785 13.5065 11.8961C13.517 11.6785 13.5241 11.5474 13.5241 11.5474L14.9001 12.1281C14.9001 12.1281 15.3572 12.3232 15.3572 12.5819C15.3572 12.7115 15.5517 12.9407 15.7457 13.1694C15.9389 13.3972 16.1316 13.6244 16.1316 13.7523C16.1316 13.978 15.6096 14.4856 15.2943 14.7921C15.2514 14.8339 15.2122 14.8719 15.1788 14.905C15.1066 14.9764 15.0285 15.0649 14.9475 15.1568C14.7156 15.4197 14.459 15.7107 14.2438 15.7107C14.0924 15.7107 13.97 15.816 13.8528 15.9169C13.7451 16.0097 13.6417 16.0987 13.5241 16.0987C13.5179 16.0987 13.512 16.0959 13.5065 16.0902C13.5009 16.0959 13.495 16.0987 13.4889 16.0987C13.3713 16.0987 13.2679 16.0097 13.1601 15.9169C13.0429 15.816 12.9206 15.7107 12.7692 15.7107C12.5539 15.7107 12.2973 15.4197 12.0655 15.1568C11.9844 15.0649 11.9064 14.9764 11.8342 14.905C11.8007 14.8719 11.7616 14.8339 11.7186 14.7921C11.4034 14.4856 10.8813 13.978 10.8813 13.7523C10.8813 13.6244 11.0741 13.3972 11.2673 13.1695L11.2673 13.1694C11.4613 12.9407 11.6557 12.7115 11.6557 12.5819Z" fill="#E8AA00"/>
<path fill-rule="evenodd" clip-rule="evenodd" d="M6.7577 9.00506C6.78769 9.35206 6.88635 9.55666 6.88635 9.55666C6.88635 9.55666 7.05999 9.82979 7.15847 9.83301C7.20905 9.95868 7.26415 10.0875 7.32307 10.2188C7.59334 10.9388 7.96162 11.885 8.33878 12.7468C8.31457 12.7284 8.27959 12.7082 8.23177 12.6859C7.91626 12.5383 7.68974 12.5215 7.68974 12.5215C7.68974 12.5215 7.26683 12.5396 7.31049 12.6595C7.35416 12.7795 7.87848 13.0401 8.09138 12.9626C8.1151 12.9539 8.1392 12.9456 8.16286 12.9375L8.16287 12.9375C8.2608 12.9037 8.35118 12.8725 8.37622 12.832C8.42636 12.9456 8.4766 13.0575 8.52673 13.1671C8.21201 13.0202 7.98621 13.0034 7.98621 13.0034C7.98621 13.0034 7.5633 13.0215 7.60697 13.1415C7.65063 13.2614 8.17496 13.522 8.38785 13.4445C8.41157 13.4359 8.43567 13.4276 8.45933 13.4194L8.45934 13.4194L8.45936 13.4194C8.51832 13.399 8.57454 13.3796 8.61542 13.3586C8.99545 14.1689 9.36235 14.8157 9.62423 14.9791H10.1526C10.1526 14.9791 9.69596 14.3336 9.12039 13.43C9.2938 13.3069 9.53541 13.0351 9.53541 12.8641C9.53541 12.8389 9.53584 12.8134 9.53626 12.7884V12.7884V12.7884V12.7884V12.7884V12.7884V12.7884V12.7884V12.7884V12.7884V12.7884V12.7884V12.7884C9.53962 12.5889 9.54248 12.419 9.32342 12.6376C9.07687 12.8836 8.98355 13.0907 8.98355 13.0907C8.98355 13.0907 8.97233 13.1262 8.95987 13.1761C8.91361 13.1024 8.86683 13.0273 8.81967 12.9511C8.99335 12.8295 9.23894 12.5546 9.23894 12.3822C9.23894 12.357 9.23937 12.3315 9.23979 12.3065V12.3065V12.3065V12.3065V12.3065V12.3065V12.3065V12.3065V12.3065V12.3065V12.3064V12.3064C9.24315 12.1069 9.24601 11.9371 9.02695 12.1557C8.7804 12.4017 8.68708 12.6088 8.68708 12.6088C8.68708 12.6088 8.67563 12.645 8.66301 12.6957C8.59644 12.5863 8.52948 12.4749 8.46257 12.3622C8.63227 12.2726 8.94247 11.9495 8.94247 11.7557C8.94247 11.7305 8.9429 11.705 8.94332 11.68V11.68V11.68V11.68V11.68V11.68V11.68V11.68V11.6799V11.6799V11.6799C8.94668 11.4804 8.94954 11.3106 8.73047 11.5292C8.48393 11.7752 8.39061 11.9823 8.39061 11.9823C8.39061 11.9823 8.36271 12.0705 8.34604 12.1644C8.2585 12.0146 8.17146 11.863 8.0859 11.7105C8.08852 11.7109 8.09127 11.7112 8.09414 11.7112C8.22181 11.7112 8.646 11.3076 8.646 11.081C8.646 11.0558 8.64643 11.0303 8.64685 11.0053V11.0053V11.0053V11.0053V11.0053V11.0053V11.0053V11.0052V11.0052V11.0052C8.65021 10.8057 8.65307 10.6359 8.434 10.8545C8.18746 11.1005 8.09414 11.3076 8.09414 11.3076C8.09414 11.3076 8.03136 11.506 8.03788 11.6246C7.91985 11.4126 7.80504 11.1994 7.69602 10.9882L7.69885 10.9883C7.82651 10.9883 8.2507 10.5847 8.2507 10.3581C8.2507 10.3329 8.25113 10.3074 8.25155 10.2824V10.2824V10.2824V10.2824V10.2824V10.2824V10.2824V10.2824V10.2823C8.25491 10.0828 8.25777 9.91296 8.03871 10.1316C7.79217 10.3776 7.69885 10.5847 7.69885 10.5847C7.69885 10.5847 7.64233 10.7634 7.64211 10.8829C7.52755 10.6576 7.42013 10.435 7.32307 10.2188C7.27092 10.0798 7.22242 9.9493 7.1782 9.82942C7.1845 9.82668 7.1903 9.8223 7.19551 9.81608C7.27757 9.71828 7.24108 9.13392 7.06752 8.98829C7.04818 8.97206 7.02893 8.95534 7.01002 8.93893C6.85935 8.80811 6.73106 8.69673 6.7577 9.00506ZM7.3443 9.89275C7.3443 9.89275 7.36116 9.66623 7.50869 9.35073C7.63978 9.07038 7.69519 9.23099 7.76027 9.41962L7.76028 9.41963C7.76844 9.44329 7.77675 9.46739 7.78539 9.49111C7.86288 9.70401 7.6023 10.2283 7.48234 10.272C7.36237 10.3157 7.3443 9.89275 7.3443 9.89275ZM7.9353 12.0594C7.61979 11.9118 7.39327 11.895 7.39327 11.895C7.39327 11.895 6.97036 11.913 7.01402 12.033C7.05769 12.153 7.58201 12.4136 7.79491 12.3361C7.81864 12.3274 7.84274 12.3191 7.8664 12.311C8.05503 12.2459 8.21564 12.1905 7.9353 12.0594ZM7.0968 11.2203C7.0968 11.2203 7.32332 11.2371 7.63883 11.3847C7.91917 11.5158 7.75856 11.5712 7.56993 11.6363C7.54627 11.6444 7.52217 11.6527 7.49844 11.6614C7.28554 11.7389 6.76122 11.4783 6.71755 11.3583C6.67389 11.2384 7.0968 11.2203 7.0968 11.2203ZM7.39177 10.71C7.07626 10.5624 6.84974 10.5456 6.84974 10.5456C6.84974 10.5456 6.42683 10.5637 6.47049 10.6836C6.51416 10.8036 7.03848 11.0642 7.25138 10.9867C7.27511 10.978 7.29921 10.9697 7.32287 10.9616C7.51151 10.8965 7.67211 10.8411 7.39177 10.71ZM6.73125 9.73375C6.73125 9.73375 6.93834 9.82707 7.18437 10.0736C7.40297 10.2927 7.2331 10.2898 7.03358 10.2865H7.03358C7.00855 10.286 6.98306 10.2856 6.95781 10.2856C6.73125 10.2856 6.32767 9.86142 6.32767 9.73375C6.32767 9.60609 6.73125 9.73375 6.73125 9.73375Z" fill="#46A000"/>
<path fill-rule="evenodd" clip-rule="evenodd" d="M23.0187 8.75415H21.4158C21.4158 8.75415 21.7556 8.75415 21.7929 9.08244C21.7929 9.08244 21.8007 11.8529 21.7929 12.0705C21.7851 12.2882 21.4158 12.3623 21.4158 12.3623C21.4158 12.3623 23.3604 12.3682 23.0187 12.3623C22.6771 12.3563 22.6017 12.0705 22.6017 12.0705V9.08244C22.6017 8.82947 23.0187 8.75415 23.0187 8.75415ZM4.924 12.1402C4.74256 11.6717 3.62228 8.80333 3.62228 8.80333H4.73134C4.53867 8.80333 4.46713 9.04857 4.46713 9.04857L5.24396 11.2635C5.24396 11.2635 5.99517 9.45515 5.99517 9.13447C5.99517 8.81379 5.67983 8.80333 5.67983 8.80333H7.12572L6.77641 8.91998C6.77641 8.91998 5.61947 11.5723 5.61947 12.1402C5.56435 12.266 6.15213 12.3497 6.15213 12.3497H4.59949L4.924 12.1402ZM18.1999 11.0927L19.0592 9.50952L19.0844 11.271L18.8183 11.1846L18.6296 12.3609L19.5798 10.5387L19.2634 10.4198L20.4396 9.14655L20.0391 10.8674L19.8112 10.6667L18.4637 13.1809L19.9677 11.4576L19.6778 11.3129L21.163 10.3404L20.5164 11.9251L20.1556 11.6654L18.6296 13.5867L17.9965 13.3433L18.6296 11.0927H18.1999ZM17.7037 14.0952H17.2287V14.4566H16.8546L15.7953 15.6854H16.38L16.5831 16.3773L16.8546 16.1332V16.3773L17.3857 16.1332L17.8933 16.5727L18.2721 14.883L18.0171 14.6958L18.1481 14.5813L18.0171 14.0952H17.7037Z" fill="#0093E1"/>
<path fill-rule="evenodd" clip-rule="evenodd" d="M10.7576 7.00977C10.7576 7.00977 11.4556 7.49169 12.1535 7.49169C12.8515 7.49169 13.5494 7.00977 13.5494 7.00977C13.5494 7.00977 14.2474 7.49169 14.9453 7.49169C15.6432 7.49169 16.3412 7.00977 16.3412 7.00977V9.18543C16.3412 11.435 13.5494 13.1784 13.5494 13.1784C13.5494 13.1784 10.6225 11.5776 10.7576 9.15872V7.00977Z" fill="#F7FCFF"/>
<mask id="mask2_701_19247" style="mask-type:alpha" maskUnits="userSpaceOnUse" x="10" y="7" width="7" height="7">
<path fill-rule="evenodd" clip-rule="evenodd" d="M10.7576 7.00977C10.7576 7.00977 11.4556 7.49169 12.1535 7.49169C12.8515 7.49169 13.5494 7.00977 13.5494 7.00977C13.5494 7.00977 14.2474 7.49169 14.9453 7.49169C15.6432 7.49169 16.3412 7.00977 16.3412 7.00977V9.18543C16.3412 11.435 13.5494 13.1784 13.5494 13.1784C13.5494 13.1784 10.6225 11.5776 10.7576 9.15872V7.00977Z" fill="white"/>
</mask>
<g mask="url(#mask2_701_19247)">
<path fill-rule="evenodd" clip-rule="evenodd" d="M10.56 6.86523H16.44V9.13029H10.56V6.86523Z" fill="#2E42A5"/>
<path fill-rule="evenodd" clip-rule="evenodd" d="M11.6965 9.13013H11.2024V13.7084H11.6965V9.13013ZM12.5365 9.13013H12.0424V13.7084H12.5365V9.13013ZM12.8824 9.13013H13.3765V13.7084H12.8824V9.13013ZM14.2165 9.13013H13.7224V13.7084H14.2165V9.13013ZM14.5624 9.13013H15.0565V13.7084H14.5624V9.13013ZM15.8965 9.13013H15.4024V13.7084H15.8965V9.13013Z" fill="#AF0100"/>
</g>
</g>
</g>
</g>
<rect x="1.75" y="1.25" width="23.5" height="17.5" stroke="black" stroke-opacity="0.1" stroke-width="0.5" shape-rendering="crispEdges"/>
</g>
<defs>
<filter id="filter0_dd_701_19247" x="0" y="0" width="27" height="21" filterUnits="userSpaceOnUse" color-interpolation-filters="sRGB">
<feFlood flood-opacity="0" result="BackgroundImageFix"/>
<feColorMatrix in="SourceAlpha" type="matrix" values="0 0 0 0 0 0 0 0 0 0 0 0 0 0 0 0 0 0 127 0" result="hardAlpha"/>
<feOffset dy="0.5"/>
<feGaussianBlur stdDeviation="0.75"/>
<feComposite in2="hardAlpha" operator="out"/>
<feColorMatrix type="matrix" values="0 0 0 0 0 0 0 0 0 0 0 0 0 0 0 0 0 0 0.1 0"/>
<feBlend mode="multiply" in2="BackgroundImageFix" result="effect1_dropShadow_701_19247"/>
<feColorMatrix in="SourceAlpha" type="matrix" values="0 0 0 0 0 0 0 0 0 0 0 0 0 0 0 0 0 0 127 0" result="hardAlpha"/>
<feOffset/>
<feGaussianBlur stdDeviation="0.5"/>
<feComposite in2="hardAlpha" operator="out"/>
<feColorMatrix type="matrix" values="0 0 0 0 0 0 0 0 0 0 0 0 0 0 0 0 0 0 0.11 0"/>
<feBlend mode="multiply" in2="effect1_dropShadow_701_19247" result="effect2_dropShadow_701_19247"/>
<feBlend mode="normal" in="SourceGraphic" in2="effect2_dropShadow_701_19247" result="shape"/>
</filter>
<clipPath id="clip0_701_19247">
<rect x="1.5" y="1" width="24" height="18" fill="white"/>
</clipPath>
</defs>
</svg>