<svg width="27" height="21" viewBox="0 0 27 21" fill="none" xmlns="http://www.w3.org/2000/svg">
<g filter="url(#filter0_dd_701_23616)">
<g clip-path="url(#clip0_701_23616)">
<mask id="mask0_701_23616" style="mask-type:alpha" maskUnits="userSpaceOnUse" x="1" y="1" width="25" height="18">
<rect x="1.5" y="1" width="24" height="18" fill="white"/>
</mask>
<g mask="url(#mask0_701_23616)">
<path fill-rule="evenodd" clip-rule="evenodd" d="M1.5 1V19H25.5V1H1.5Z" fill="#67BFE5"/>
<mask id="mask1_701_23616" style="mask-type:alpha" maskUnits="userSpaceOnUse" x="1" y="1" width="25" height="18">
<path fill-rule="evenodd" clip-rule="evenodd" d="M1.5 1V19H25.5V1H1.5Z" fill="white"/>
</mask>
<g mask="url(#mask1_701_23616)">
<path fill-rule="evenodd" clip-rule="evenodd" d="M16.5 8.5H23.7414V14.75C23.7414 14.75 23.1341 17.5 20.1207 17.5C17.1072 17.5 16.5 14.75 16.5 14.75V8.5Z" fill="#F7FCFF"/>
<mask id="mask2_701_23616" style="mask-type:alpha" maskUnits="userSpaceOnUse" x="16" y="8" width="8" height="10">
<path fill-rule="evenodd" clip-rule="evenodd" d="M16.5 8.5H23.7414V14.75C23.7414 14.75 23.1341 17.5 20.1207 17.5C17.1072 17.5 16.5 14.75 16.5 14.75V8.5Z" fill="white"/>
</mask>
<g mask="url(#mask2_701_23616)">
<rect x="16.5" y="8.5" width="7.24138" height="2.25" fill="#C3352C"/>
<rect x="19.6035" y="10.5" width="1.03448" height="7" fill="#C3352C"/>
<rect x="16.5" y="13.25" width="7.24138" height="1" fill="#C3352C"/>
<path fill-rule="evenodd" clip-rule="evenodd" d="M18.4054 16.5527C18.8408 17.1682 19.1956 17.4085 19.4464 17.0458C19.6227 16.7908 19.6409 16.5359 19.3898 16.486C19.2441 16.3009 19.1413 16.1565 19.0826 16.0558L19.091 16.0479C19.1615 15.9794 19.1641 15.8881 19.1502 15.854C19.1449 15.8074 19.1798 15.7442 19.4061 15.5712C19.6111 15.4145 19.702 15.2669 19.5677 15.1044C19.4971 15.019 19.4336 15.0019 19.2334 14.971L19.1719 14.9614C19.1127 14.9519 19.0696 14.9425 19.0425 14.9343L18.9033 14.6676C18.6126 14.6587 18.3855 14.71 18.137 14.8149C18.0299 14.8601 17.9578 14.8908 17.9097 14.9113C17.8364 14.9425 17.8187 14.95 17.8182 14.9489C17.818 14.9486 17.8195 14.9473 17.8216 14.9457C17.8273 14.9412 17.8369 14.9335 17.823 14.9335C17.7706 14.9335 17.7138 14.9276 17.5564 14.9076L17.5255 14.9037C17.0728 14.8469 16.9595 14.8487 16.8861 15.0594C16.7745 15.38 17.4352 15.9677 17.786 16.0383C17.9617 16.0737 18.172 16.2419 18.4054 16.5527ZM18.8976 16.1114C18.9401 16.1114 18.973 16.1096 19.0019 16.1018L19.0106 16.0826C18.9871 16.0986 18.9517 16.1114 18.8976 16.1114ZM17.2456 15.2261C17.2363 15.2152 17.2338 15.2012 17.2403 15.1827C17.2389 15.1865 17.2432 15.1947 17.252 15.2064C17.2606 15.2179 17.2738 15.2327 17.2904 15.25C17.2703 15.2443 17.2547 15.2367 17.2456 15.2261ZM17.86 15.6707C17.7343 15.6454 17.4145 15.3793 17.2904 15.25C17.3229 15.2594 17.3673 15.2639 17.415 15.2688L17.415 15.2688C17.4359 15.2709 17.4573 15.2731 17.4788 15.2758L17.5091 15.2797C17.686 15.3021 17.7478 15.3085 17.823 15.3085C17.8664 15.3085 17.8574 15.3235 17.852 15.3326C17.8503 15.3354 17.849 15.3376 17.8496 15.3387C17.8521 15.343 17.8863 15.3285 18.0572 15.2559C18.1153 15.2313 18.1891 15.1999 18.2829 15.1603C18.4156 15.1043 18.5369 15.068 18.6699 15.0516C18.6846 15.1144 18.7211 15.1712 18.7807 15.2174C18.8605 15.2794 18.9507 15.3054 19.1059 15.3306C18.913 15.4893 18.8162 15.6221 18.7857 15.7515C18.6122 15.8064 18.628 16.0019 18.7321 16.1973C18.8047 16.3335 18.9417 16.5265 19.1457 16.7818L19.2922 16.8523C19.249 16.8523 19.2248 16.8325 19.2065 16.8174C19.1834 16.7984 19.1695 16.787 19.138 16.8325C19.1359 16.8356 18.9994 16.7432 18.7084 16.3319C18.4219 15.9501 18.144 15.7278 17.86 15.6707ZM18.7746 15.8954C18.7772 15.8932 18.7769 15.8903 18.7766 15.8874L18.7766 15.8873L18.7746 15.8954ZM18.8945 15.7364L18.8832 15.7366L18.8885 15.737C18.8905 15.7366 18.8925 15.7365 18.8945 15.7364ZM18.8976 15.7364C18.8965 15.7364 18.8955 15.7364 18.8945 15.7364L18.8976 15.7364Z" fill="#979797"/>
<path d="M17.7413 13.0827C17.7413 13.0827 17.3835 12.5877 17.3835 12.4113" stroke="#964C36"/>
<path d="M17.5191 12.6571C17.5191 12.6571 17.0616 12.4618 17.0616 12.6571" stroke="#2A8E51"/>
<path d="M17.5116 12.4517C17.5116 12.4517 17.1898 12.0424 16.9479 12.0424C16.706 12.0424 16.7118 12.247 16.7118 12.247" stroke="#2A8E51"/>
<path d="M17.328 12.0415C17.328 12.0415 17.1844 11.3719 16.9544 11.3719C16.7244 11.3719 16.7244 11.7067 16.7244 11.7067" stroke="#2A8E51"/>
<path d="M17.3861 12.0403C17.3861 12.0403 17.322 11.4664 17.6181 11.4664" stroke="#2A8E51"/>
<path d="M18.1958 12.9859C18.1958 12.9859 18.0289 12.3984 18.0892 12.2325" stroke="#964C36"/>
<path d="M18.1325 12.51C18.1325 12.51 17.7695 12.1699 17.7026 12.3535" stroke="#2A8E51"/>
<path d="M18.1958 12.3144C18.1958 12.3144 18.0334 11.8197 17.8061 11.7369C17.5788 11.6542 17.5142 11.8485 17.5142 11.8485" stroke="#2A8E51"/>
<path d="M18.1635 11.8661C18.1635 11.8661 18.2576 11.1878 18.0415 11.1092C17.8254 11.0305 17.7109 11.3451 17.7109 11.3451" stroke="#2A8E51"/>
<path d="M18.2186 11.8848C18.2186 11.8848 18.3547 11.3237 18.6329 11.4249" stroke="#2A8E51"/>
<path d="M18.564 13.1951C18.564 13.1951 18.8013 12.6323 18.7616 12.4603" stroke="#964C36" stroke-width="0.7"/>
<path d="M18.6848 12.7306C18.6848 12.7306 19.0866 12.4373 19.1306 12.6277" stroke="#2A8E51" stroke-width="0.7"/>
<path d="M18.6458 12.5287C18.6458 12.5287 18.8673 12.0574 19.103 12.003C19.3388 11.9486 19.3792 12.1493 19.3792 12.1493" stroke="#2A8E51" stroke-width="0.7"/>
<path d="M18.7325 12.0877C18.7325 12.0877 18.7218 11.403 18.9459 11.3513C19.17 11.2996 19.2453 11.6258 19.2453 11.6258" stroke="#2A8E51" stroke-width="0.7"/>
<path d="M18.6756 12.0995C18.6756 12.0995 18.6089 11.526 18.3204 11.5926" stroke="#2A8E51" stroke-width="0.7"/>
<path d="M21.5235 12.8514C21.5235 12.8514 21.705 12.0164 22.2215 12.0164C22.738 12.0164 22.9691 12.8987 22.9691 12.8987" stroke="#2A8E51" stroke-width="0.7"/>
<path d="M21.097 12.2813C21.097 12.2813 21.3751 11.788 22.293 11.8284C23.2109 11.8687 23.3781 12.2813 23.3781 12.2813" stroke="#2A8E51" stroke-width="0.7"/>
<path d="M20.9115 11.654C20.9115 11.654 21.4157 11.0295 22.1223 11.5589L22.3617 11.654C22.3617 11.654 22.6018 10.9463 23.7615 11.654" stroke="#2A8E51" stroke-width="0.7"/>
<path d="M22.3038 13.0277C22.3038 13.0277 22.3407 12.2483 22.4643 12.0342" stroke="#964C36"/>
<path d="M23.3241 14.7354C23.3241 14.7354 22.8605 14.5173 22.7218 14.7354C22.5831 14.9534 20.9121 16.9567 20.9121 16.9567" stroke="#964C36"/>
<path fill-rule="evenodd" clip-rule="evenodd" d="M21.7232 14.9464L22.7588 15.6703C22.7588 15.6703 23.2355 15.3303 22.9972 15.1383C22.7588 14.9464 22.1095 14.6079 22.1095 14.6079L21.7232 14.9464Z" fill="#FFF203"/>
<path fill-rule="evenodd" clip-rule="evenodd" d="M21.6874 14.9834C21.6874 14.9834 21.4475 15.2346 21.4475 15.4265C21.4475 15.6185 21.2243 16.1331 21.2243 16.1331C21.2243 16.1331 21.8486 16.5174 21.9783 16.2726C22.1079 16.0278 22.9498 16.1744 22.8013 15.8004C22.6528 15.4265 21.6874 14.9834 21.6874 14.9834Z" fill="#00A651"/>
<path fill-rule="evenodd" clip-rule="evenodd" d="M17.2922 9.38675C17.2922 9.38675 17.8452 9.103 18.1189 9.38675C18.3927 9.6705 18.6169 9.36324 18.6169 9.19207C18.6169 9.0209 19.0516 8.4333 19.0516 8.91003C19.0516 9.38675 18.9163 9.65591 19.2983 9.65591C19.6803 9.65591 21.4007 8.99739 21.8132 9.19207C22.2257 9.38675 22.5414 9.33833 22.4365 9.059C22.3316 8.77967 22.0621 8.60509 21.5432 8.75756C21.0242 8.91003 21.1467 9.059 20.6982 9.059C20.2496 9.059 19.7504 8.91003 19.7504 8.91003C19.7504 8.91003 19.8907 8.65953 20.4027 8.83771C20.9148 9.01589 21.6211 8.61704 21.8132 8.61704C22.0053 8.61704 22.534 8.60509 22.5864 8.75756C22.6388 8.91003 22.958 9.04993 22.7146 9.19207C22.4713 9.33421 22.0701 9.42324 22.3462 9.60535C22.6222 9.78746 23.2571 9.75236 23.2877 9.94179C23.3182 10.1312 23.6191 10.4141 23.4984 10.4141C23.3776 10.4141 23.1594 10.6809 22.9562 10.5996C22.7529 10.5184 22.729 10.4471 22.9239 10.3813C23.1188 10.3155 23.1169 10.0387 22.9562 10.0387C22.7954 10.0387 22.8739 10.1357 22.5079 10.0387C22.142 9.94179 21.6577 9.83401 21.6868 10.0387C21.7159 10.2435 21.9542 10.5578 21.5146 10.5996C21.075 10.6415 20.8693 10.8097 20.7837 10.6743C20.6982 10.5388 20.3923 10.3584 20.6328 10.3005C20.8733 10.2427 21.1031 10.4972 21.1897 10.4557C21.2763 10.4141 21.4726 10.391 21.3082 10.2149C21.1438 10.0387 20.8727 9.93507 21.124 9.80325C21.3753 9.67144 21.177 9.66873 20.6982 9.94179C20.2193 10.2149 19.953 10.4469 19.5326 10.4141C19.1122 10.3813 18.9548 10.4255 18.8197 10.3813C18.6845 10.337 18.0265 10.8703 17.837 10.735C17.6475 10.5996 17.0357 10.5477 17.1459 10.3813C17.256 10.2149 17.4038 10.1292 17.5685 10.2149C17.7332 10.3005 17.8968 10.3862 18.0079 10.3005C18.1189 10.2149 18.4396 9.92083 18.359 9.86204C18.2783 9.80325 18.3563 9.60535 17.8996 9.60535C17.4428 9.60535 17.2823 9.82591 17.1739 9.68694C17.0654 9.54797 17.2922 9.38675 17.2922 9.38675Z" fill="#FFD100"/>
</g>
<rect x="-2.5" y="-2" width="18" height="14" fill="#2B409A"/>
<mask id="mask3_701_23616" style="mask-type:alpha" maskUnits="userSpaceOnUse" x="-3" y="-2" width="19" height="14">
<rect x="-2.5" y="-2" width="18" height="14" fill="white"/>
</mask>
<g mask="url(#mask3_701_23616)">
<path d="M-4.50427 10.9997L-0.543322 12.7369L15.5899 -0.11134L17.6792 -2.69287L13.4435 -3.27349L6.86317 2.2632L1.56667 5.99363L-4.50427 10.9997Z" fill="#F7FCFF"/>
<path d="M-3.96201 12.217L-1.94408 13.2251L16.9289 -2.93262H14.0955L-3.96201 12.217Z" fill="#F50100"/>
<path d="M17.5043 10.9997L13.5433 12.7369L-2.58989 -0.11134L-4.6792 -2.69287L-0.443533 -3.27349L6.13681 2.2632L11.4333 5.99363L17.5043 10.9997Z" fill="#F7FCFF"/>
<path d="M17.3691 11.8733L15.3512 12.8815L7.31486 5.96351L4.93226 5.19059L-4.88023 -2.68395H-2.04684L7.76015 5.00368L10.3651 5.9305L17.3691 11.8733Z" fill="#F50100"/>
<mask id="path-41-outside-1_701_23616" maskUnits="userSpaceOnUse" x="-4.5" y="-4" width="22" height="18" fill="black">
<rect fill="white" x="-4.5" y="-4" width="22" height="18"/>
<path fill-rule="evenodd" clip-rule="evenodd" d="M7.48451 -2H5.48451V4H-2.5V6H5.48451V12H7.48451V6H15.5V4H7.48451V-2Z"/>
</mask>
<path fill-rule="evenodd" clip-rule="evenodd" d="M7.48451 -2H5.48451V4H-2.5V6H5.48451V12H7.48451V6H15.5V4H7.48451V-2Z" fill="#F50100"/>
<path d="M5.48451 -2V-3.5H3.98451V-2H5.48451ZM7.48451 -2H8.98451V-3.5H7.48451V-2ZM5.48451 4V5.5H6.98451V4H5.48451ZM-2.5 4V2.5H-4V4H-2.5ZM-2.5 6H-4V7.5H-2.5V6ZM5.48451 6H6.98451V4.5H5.48451V6ZM5.48451 12H3.98451V13.5H5.48451V12ZM7.48451 12V13.5H8.98451V12H7.48451ZM7.48451 6V4.5H5.98451V6H7.48451ZM15.5 6V7.5H17V6H15.5ZM15.5 4H17V2.5H15.5V4ZM7.48451 4H5.98451V5.5H7.48451V4ZM5.48451 -0.5H7.48451V-3.5H5.48451V-0.5ZM6.98451 4V-2H3.98451V4H6.98451ZM-2.5 5.5H5.48451V2.5H-2.5V5.5ZM-1 6V4H-4V6H-1ZM5.48451 4.5H-2.5V7.5H5.48451V4.5ZM6.98451 12V6H3.98451V12H6.98451ZM7.48451 10.5H5.48451V13.5H7.48451V10.5ZM5.98451 6V12H8.98451V6H5.98451ZM15.5 4.5H7.48451V7.5H15.5V4.5ZM14 4V6H17V4H14ZM7.48451 5.5H15.5V2.5H7.48451V5.5ZM5.98451 -2V4H8.98451V-2H5.98451Z" fill="#F7FCFF" mask="url(#path-41-outside-1_701_23616)"/>
</g>
</g>
</g>
</g>
<rect x="1.75" y="1.25" width="23.5" height="17.5" stroke="black" stroke-opacity="0.1" stroke-width="0.5" shape-rendering="crispEdges"/>
</g>
<defs>
<filter id="filter0_dd_701_23616" x="0" y="0" width="27" height="21" filterUnits="userSpaceOnUse" color-interpolation-filters="sRGB">
<feFlood flood-opacity="0" result="BackgroundImageFix"/>
<feColorMatrix in="SourceAlpha" type="matrix" values="0 0 0 0 0 0 0 0 0 0 0 0 0 0 0 0 0 0 127 0" result="hardAlpha"/>
<feOffset dy="0.5"/>
<feGaussianBlur stdDeviation="0.75"/>
<feComposite in2="hardAlpha" operator="out"/>
<feColorMatrix type="matrix" values="0 0 0 0 0 0 0 0 0 0 0 0 0 0 0 0 0 0 0.1 0"/>
<feBlend mode="multiply" in2="BackgroundImageFix" result="effect1_dropShadow_701_23616"/>
<feColorMatrix in="SourceAlpha" type="matrix" values="0 0 0 0 0 0 0 0 0 0 0 0 0 0 0 0 0 0 127 0" result="hardAlpha"/>
<feOffset/>
<feGaussianBlur stdDeviation="0.5"/>
<feComposite in2="hardAlpha" operator="out"/>
<feColorMatrix type="matrix" values="0 0 0 0 0 0 0 0 0 0 0 0 0 0 0 0 0 0 0.11 0"/>
<feBlend mode="multiply" in2="effect1_dropShadow_701_23616" result="effect2_dropShadow_701_23616"/>
<feBlend mode="normal" in="SourceGraphic" in2="effect2_dropShadow_701_23616" result="shape"/>
</filter>
<clipPath id="clip0_701_23616">
<rect x="1.5" y="1" width="24" height="18" fill="white"/>
</clipPath>
</defs>
</svg>
