<svg viewBox="0 0 27 21" fill="none" xmlns="http://www.w3.org/2000/svg">
<g filter="url(#filter0_dd_701_21538)">
<g clip-path="url(#clip0_701_21538)">
<mask id="mask0_701_21538" style="mask-type:alpha" maskUnits="userSpaceOnUse" x="1" y="1" width="25" height="18">
<rect x="1.5" y="1" width="24" height="18" fill="white"/>
</mask>
<g mask="url(#mask0_701_21538)">
<path fill-rule="evenodd" clip-rule="evenodd" d="M1.5 1H25.5V19H1.5V1Z" fill="#F7FCFF"/>
<rect x="1.52036" y="4.75" width="24" height="2.175" fill="#E31D1C"/>
<rect x="1.52036" y="8.6499" width="24" height="2.175" fill="#E31D1C"/>
<rect x="1.58374" y="12.3999" width="24" height="1.875" fill="#E31D1C"/>
<rect x="1.58374" y="16.1499" width="24" height="2.025" fill="#E31D1C"/>
<path fill-rule="evenodd" clip-rule="evenodd" d="M1.5 1H25.5V2.875H1.5V1Z" fill="#E31D1C"/>
<path fill-rule="evenodd" clip-rule="evenodd" d="M1.5 1H13.5V10H1.5V1Z" fill="#3D58DB"/>
<path fill-rule="evenodd" clip-rule="evenodd" d="M4.19516 5.65174C4.19516 6.68391 4.68133 7.65997 5.67039 7.65997C7.15433 7.65997 7.44302 7.3436 8.13546 6.90712C8.29917 7.27483 7.74698 8.8484 5.65014 8.8484C3.97294 8.81464 2.61752 7.46723 2.61752 5.65174C2.61752 3.56785 4.1502 2.44244 5.60805 2.45519C6.89507 2.45519 8.26009 3.1855 8.21826 4.11717C7.61185 3.52479 6.95339 3.52479 5.85728 3.52479C4.76116 3.52479 4.19516 4.61944 4.19516 5.65174Z" fill="#FECA00"/>
<path fill-rule="evenodd" clip-rule="evenodd" d="M9.75 6.4751L9.05471 7.48997L9.08874 6.26024L7.92971 6.67261L8.68006 5.69774L7.5 5.3501L8.68006 5.00245L7.92971 4.02758L9.08874 4.43995L9.05471 3.21022L9.75 4.2251L10.4453 3.21022L10.4113 4.43995L11.5703 4.02758L10.8199 5.00245L12 5.3501L10.8199 5.69774L11.5703 6.67261L10.4113 6.26024L10.4453 7.48997L9.75 6.4751Z" fill="#FECA00"/>
</g>
</g>
<rect x="1.75" y="1.25" width="23.5" height="17.5" stroke="black" stroke-opacity="0.1" stroke-width="0.5" shape-rendering="crispEdges"/>
</g>
<defs>
<filter id="filter0_dd_701_21538" x="0" y="0" width="27" height="21" filterUnits="userSpaceOnUse" color-interpolation-filters="sRGB">
<feFlood flood-opacity="0" result="BackgroundImageFix"/>
<feColorMatrix in="SourceAlpha" type="matrix" values="0 0 0 0 0 0 0 0 0 0 0 0 0 0 0 0 0 0 127 0" result="hardAlpha"/>
<feOffset dy="0.5"/>
<feGaussianBlur stdDeviation="0.75"/>
<feComposite in2="hardAlpha" operator="out"/>
<feColorMatrix type="matrix" values="0 0 0 0 0 0 0 0 0 0 0 0 0 0 0 0 0 0 0.1 0"/>
<feBlend mode="multiply" in2="BackgroundImageFix" result="effect1_dropShadow_701_21538"/>
<feColorMatrix in="SourceAlpha" type="matrix" values="0 0 0 0 0 0 0 0 0 0 0 0 0 0 0 0 0 0 127 0" result="hardAlpha"/>
<feOffset/>
<feGaussianBlur stdDeviation="0.5"/>
<feComposite in2="hardAlpha" operator="out"/>
<feColorMatrix type="matrix" values="0 0 0 0 0 0 0 0 0 0 0 0 0 0 0 0 0 0 0.11 0"/>
<feBlend mode="multiply" in2="effect1_dropShadow_701_21538" result="effect2_dropShadow_701_21538"/>
<feBlend mode="normal" in="SourceGraphic" in2="effect2_dropShadow_701_21538" result="shape"/>
</filter>
<clipPath id="clip0_701_21538">
<rect x="1.5" y="1" width="24" height="18" fill="white"/>
</clipPath>
</defs>
</svg>