<svg width="27" height="21" viewBox="0 0 27 21" fill="none" xmlns="http://www.w3.org/2000/svg">
<g filter="url(#filter0_dd_701_21767)">
<g clip-path="url(#clip0_701_21767)">
<mask id="mask0_701_21767" style="mask-type:alpha" maskUnits="userSpaceOnUse" x="1" y="1" width="25" height="18">
<rect x="1.5" y="1" width="24" height="18" fill="white"/>
</mask>
<g mask="url(#mask0_701_21767)">
<path fill-rule="evenodd" clip-rule="evenodd" d="M9 1H18V19H9V1Z" fill="#4C67E8"/>
<path fill-rule="evenodd" clip-rule="evenodd" d="M18 1H25.5V19H18V1Z" fill="#C51918"/>
<path fill-rule="evenodd" clip-rule="evenodd" d="M1.5 1H10.5V19H1.5V1Z" fill="#C51918"/>
<path fill-rule="evenodd" clip-rule="evenodd" d="M6.0104 6.16319C5.25039 6.16319 5.35015 5.42268 5.35015 5.42268L5.7105 4.64448V4.95795V5.42268C5.7105 5.52277 5.84708 5.32259 5.84708 5.0816C5.84708 4.84062 6.0104 4.47977 6.0104 4.47977C6.0104 4.47977 6.01696 4.3591 6.02148 4.23996C6.04762 4.30126 6.10002 4.35434 6.17958 4.43491C6.19345 4.44897 6.20815 4.46385 6.22368 4.47977C6.31757 4.57599 6.30491 4.83087 6.29395 5.05141C6.28403 5.25113 6.2755 5.42268 6.34879 5.42268C6.50302 5.42268 6.49156 4.7336 6.49156 4.7336L6.7504 5.42268C6.7504 5.42268 6.77041 6.16319 6.0104 6.16319ZM6.0104 4.04843C6.02974 3.93536 6.0273 4.0864 6.02148 4.23996C5.99965 4.18878 5.99613 4.13186 6.0104 4.04843ZM7.15385 7.51287C7.15385 8.11489 6.65017 8.60292 6.02885 8.60292C5.40753 8.60292 4.90385 8.11489 4.90385 7.51287C4.90385 6.91085 5.40753 6.42282 6.02885 6.42282C6.65017 6.42282 7.15385 6.91085 7.15385 7.51287ZM4.32692 9.55322H3V15.9817H4.32692V9.55322ZM9 9.55322H7.67308V15.9817H9V9.55322ZM4.67308 9.60912L5.96662 10.41L7.42453 9.60912H4.67308ZM5.96662 16L4.67308 15.1991H7.42453L5.96662 16ZM4.67308 10.6712H7.38461V11.1743H4.67308V10.6712ZM7.38461 14.4165H4.67308V14.9196H7.38461V14.4165ZM6.05769 14.137C6.82239 14.137 7.44231 13.5364 7.44231 12.7954C7.44231 12.0545 6.82239 11.4538 6.05769 11.4538C5.29299 11.4538 4.67308 12.0545 4.67308 12.7954C4.67308 13.5364 5.29299 14.137 6.05769 14.137ZM4.5024 7.91217C4.5024 7.91217 4.54902 9.31268 5.9294 9.31268C7.30978 9.31268 7.53257 7.91217 7.53257 7.91217C7.53257 7.91217 6.99827 8.77007 6.01749 8.77007C5.0367 8.77007 4.5024 7.91217 4.5024 7.91217Z" fill="#F8D000"/>
<path d="M6.26894 11.4793L6.33081 11.2036C6.64016 11.5421 6.7803 11.732 6.71409 12.0421C6.64018 12.3883 6.25161 12.7738 5.80016 13.0914C5.52673 13.2838 5.35923 13.8031 5.49492 13.9682L5.36553 14.2036C5.06312 13.8356 5.30482 13.1413 5.72213 12.8477C6.10533 12.578 6.37294 12.2953 6.41962 12.0728C6.45001 11.9278 6.50667 11.7394 6.26894 11.4793Z" fill="#C51918"/>
<path fill-rule="evenodd" clip-rule="evenodd" d="M6.375 13.75C6.58211 13.75 6.75 13.5821 6.75 13.375C6.75 13.1679 6.58211 13 6.375 13C6.16789 13 6 13.1679 6 13.375C6 13.5821 6.16789 13.75 6.375 13.75Z" fill="#C51918"/>
<path fill-rule="evenodd" clip-rule="evenodd" d="M5.53191 12.738C5.73901 12.738 5.90691 12.5701 5.90691 12.363C5.90691 12.1559 5.73901 11.988 5.53191 11.988C5.3248 11.988 5.15691 12.1559 5.15691 12.363C5.15691 12.5701 5.3248 12.738 5.53191 12.738Z" fill="#C51918"/>
</g>
</g>
<rect x="1.75" y="1.25" width="23.5" height="17.5" stroke="black" stroke-opacity="0.1" stroke-width="0.5" shape-rendering="crispEdges"/>
</g>
<defs>
<filter id="filter0_dd_701_21767" x="0" y="0" width="27" height="21" filterUnits="userSpaceOnUse" color-interpolation-filters="sRGB">
<feFlood flood-opacity="0" result="BackgroundImageFix"/>
<feColorMatrix in="SourceAlpha" type="matrix" values="0 0 0 0 0 0 0 0 0 0 0 0 0 0 0 0 0 0 127 0" result="hardAlpha"/>
<feOffset dy="0.5"/>
<feGaussianBlur stdDeviation="0.75"/>
<feComposite in2="hardAlpha" operator="out"/>
<feColorMatrix type="matrix" values="0 0 0 0 0 0 0 0 0 0 0 0 0 0 0 0 0 0 0.1 0"/>
<feBlend mode="multiply" in2="BackgroundImageFix" result="effect1_dropShadow_701_21767"/>
<feColorMatrix in="SourceAlpha" type="matrix" values="0 0 0 0 0 0 0 0 0 0 0 0 0 0 0 0 0 0 127 0" result="hardAlpha"/>
<feOffset/>
<feGaussianBlur stdDeviation="0.5"/>
<feComposite in2="hardAlpha" operator="out"/>
<feColorMatrix type="matrix" values="0 0 0 0 0 0 0 0 0 0 0 0 0 0 0 0 0 0 0.11 0"/>
<feBlend mode="multiply" in2="effect1_dropShadow_701_21767" result="effect2_dropShadow_701_21767"/>
<feBlend mode="normal" in="SourceGraphic" in2="effect2_dropShadow_701_21767" result="shape"/>
</filter>
<clipPath id="clip0_701_21767">
<rect x="1.5" y="1" width="24" height="18" fill="white"/>
</clipPath>
</defs>
</svg>
