<svg width="27" height="21" viewBox="0 0 27 21" fill="none" xmlns="http://www.w3.org/2000/svg">
<g filter="url(#filter0_dd_701_19736)">
<g clip-path="url(#clip0_701_19736)">
<mask id="mask0_701_19736" style="mask-type:alpha" maskUnits="userSpaceOnUse" x="1" y="1" width="25" height="18">
<rect x="1.5" y="1" width="24" height="18" fill="white"/>
</mask>
<g mask="url(#mask0_701_19736)">
<path fill-rule="evenodd" clip-rule="evenodd" d="M1.5 1V19H25.5V1H1.5Z" fill="#E31D1C"/>
<mask id="mask1_701_19736" style="mask-type:alpha" maskUnits="userSpaceOnUse" x="1" y="1" width="25" height="18">
<path fill-rule="evenodd" clip-rule="evenodd" d="M1.5 1V19H25.5V1H1.5Z" fill="white"/>
</mask>
<g mask="url(#mask1_701_19736)">
<path fill-rule="evenodd" clip-rule="evenodd" d="M13.5191 13.0852C11.9131 12.6896 10.6552 11.3453 10.6698 9.37484C10.6835 7.53028 11.8003 5.97114 13.5657 5.54907C15.3312 5.127 16.8855 6.02296 16.8855 6.02296C16.3976 4.8711 14.7025 4.06188 13.3127 4.06421C10.7258 4.06854 7.96814 6.16648 7.94437 9.37484C7.91973 12.7011 10.8974 14.5954 13.5163 14.591C15.6157 14.5875 16.6115 13.1511 16.8178 12.5401C16.8178 12.5401 15.1251 13.4809 13.5191 13.0852ZM17.1775 8.74503L15.5774 9.33278L17.3828 9.96967L17.352 11.8727L18.5416 10.445L20.5067 10.5878L18.9495 9.24923L19.9718 7.82138L18.3072 8.38161L17.1174 7.05892L17.1775 8.74503Z" fill="#F7FCFF"/>
</g>
</g>
</g>
<rect x="1.75" y="1.25" width="23.5" height="17.5" stroke="black" stroke-opacity="0.1" stroke-width="0.5" shape-rendering="crispEdges"/>
</g>
<defs>
<filter id="filter0_dd_701_19736" x="0" y="0" width="27" height="21" filterUnits="userSpaceOnUse" color-interpolation-filters="sRGB">
<feFlood flood-opacity="0" result="BackgroundImageFix"/>
<feColorMatrix in="SourceAlpha" type="matrix" values="0 0 0 0 0 0 0 0 0 0 0 0 0 0 0 0 0 0 127 0" result="hardAlpha"/>
<feOffset dy="0.5"/>
<feGaussianBlur stdDeviation="0.75"/>
<feComposite in2="hardAlpha" operator="out"/>
<feColorMatrix type="matrix" values="0 0 0 0 0 0 0 0 0 0 0 0 0 0 0 0 0 0 0.1 0"/>
<feBlend mode="multiply" in2="BackgroundImageFix" result="effect1_dropShadow_701_19736"/>
<feColorMatrix in="SourceAlpha" type="matrix" values="0 0 0 0 0 0 0 0 0 0 0 0 0 0 0 0 0 0 127 0" result="hardAlpha"/>
<feOffset/>
<feGaussianBlur stdDeviation="0.5"/>
<feComposite in2="hardAlpha" operator="out"/>
<feColorMatrix type="matrix" values="0 0 0 0 0 0 0 0 0 0 0 0 0 0 0 0 0 0 0.11 0"/>
<feBlend mode="multiply" in2="effect1_dropShadow_701_19736" result="effect2_dropShadow_701_19736"/>
<feBlend mode="normal" in="SourceGraphic" in2="effect2_dropShadow_701_19736" result="shape"/>
</filter>
<clipPath id="clip0_701_19736">
<rect x="1.5" y="1" width="24" height="18" fill="white"/>
</clipPath>
</defs>
</svg>
