<svg width="27" height="21" viewBox="0 0 27 21" fill="none" xmlns="http://www.w3.org/2000/svg">
<g filter="url(#filter0_dd_701_19046)">
<g clip-path="url(#clip0_701_19046)">
<rect x="1.5" y="1" width="24" height="18" fill="#19BFBF"/>
<path fill-rule="evenodd" clip-rule="evenodd" d="M6.22052 8.24462C6.13819 8.40928 6.20493 8.6095 6.36959 8.69183L8.05902 9.53655C8.22368 9.61888 8.29042 9.8191 8.20809 9.98376L7.9348 10.5303C7.85247 10.695 7.65225 10.7617 7.48759 10.6794L6.71326 10.2922C6.66697 10.2691 6.61593 10.257 6.56419 10.257H5.26192C5.07783 10.257 4.92859 10.4063 4.92859 10.5904V11.1596C4.92859 11.3031 5.0204 11.4305 5.15651 11.4759L6.13121 11.8008C6.36629 11.8791 6.43672 12.1775 6.2615 12.3527L6.16908 12.4451C6.10656 12.5076 6.07145 12.5924 6.07145 12.6808V13.0601C6.07145 13.0959 6.07722 13.1315 6.08855 13.1655L6.59921 14.6975C6.62717 14.7814 6.6873 14.8507 6.76637 14.8902L7.57084 15.2925C7.69917 15.3566 7.85416 15.3315 7.95562 15.23L8.92859 14.257L9.173 14.0126C9.33388 13.8518 9.28987 13.5805 9.08637 13.4788L8.52352 13.1974C8.42156 13.1464 8.35716 13.0422 8.35716 12.9282C8.35716 12.7324 8.54115 12.5888 8.73109 12.6362L10.3904 13.0511C10.5388 13.0882 10.6429 13.2215 10.6429 13.3744V14.1561C10.6429 14.2219 10.6624 14.2863 10.6989 14.341L11.6868 15.8229C11.7486 15.9156 11.8527 15.9713 11.9641 15.9713H12.1315C12.2678 15.9713 12.3904 15.8883 12.441 15.7618L13.2243 13.8034C13.3312 13.5363 13.7033 13.5209 13.832 13.7781L14.0473 14.2087C14.0633 14.2407 14.0844 14.27 14.1097 14.2953L15.1761 15.3617C15.2014 15.387 15.2306 15.4081 15.2627 15.4241L15.8748 15.7301C16.0964 15.8409 16.3572 15.6798 16.3572 15.432V14.9665C16.3572 14.8781 16.322 14.7934 16.2595 14.7308L16.0214 14.4927C15.8913 14.3626 15.8913 14.1515 16.0214 14.0213L16.2595 13.7832C16.322 13.7207 16.4068 13.6856 16.4952 13.6856H17.4213C17.4731 13.6856 17.5241 13.6736 17.5704 13.6504L18.4586 13.2063C18.5715 13.1499 18.6429 13.0344 18.6429 12.9082V12.1094C18.6429 12.021 18.6078 11.9362 18.5452 11.8737L18.3071 11.6356C18.177 11.5054 18.177 11.2944 18.3071 11.1642L18.8873 10.5841C19.0482 10.4232 19.3194 10.4672 19.4211 10.6707L19.7151 11.2586C19.7584 11.3452 19.8469 11.3999 19.9437 11.3999C20.1336 11.3999 20.2572 11.2 20.1722 11.0301L19.9348 10.5552C19.8525 10.3905 19.9192 10.1903 20.0839 10.108L20.6304 9.83469C20.7951 9.75236 20.8618 9.55213 20.7795 9.38747L20.4189 8.66625C20.3794 8.58718 20.31 8.52705 20.2262 8.4991L19.1545 8.14189C18.9195 8.06353 18.849 7.76517 19.0242 7.58996L19.6881 6.9261C19.7506 6.86359 19.8354 6.82847 19.9238 6.82847H21.294C21.4203 6.82847 21.5357 6.75714 21.5921 6.64421L21.853 6.12244C21.958 5.91247 21.8189 5.66265 21.5851 5.6414L16.4598 5.17546C16.1921 5.15113 16.0743 4.82565 16.2643 4.63561C16.3238 4.57616 16.3572 4.49553 16.3572 4.41145V3.73324C16.3572 3.54914 16.2079 3.3999 16.0238 3.3999H13.6381C13.5497 3.3999 13.4649 3.43502 13.4024 3.49753L11.851 5.0489C11.8083 5.09162 11.7548 5.12193 11.6962 5.13658L9.50002 5.68562L7.33393 6.22714C7.25673 6.24644 7.17518 6.23749 7.10401 6.2019L6.79123 6.04551C6.52561 5.9127 6.23202 6.16733 6.32593 6.44906L6.59921 7.26892C6.62717 7.35279 6.62066 7.44432 6.58113 7.5234L6.22052 8.24462ZM14.0715 15.4C14.0715 15.7156 13.8156 15.9714 13.5 15.9714C13.1845 15.9714 12.9286 15.7156 12.9286 15.4C12.9286 15.0844 13.1845 14.8285 13.5 14.8285C13.8156 14.8285 14.0715 15.0844 14.0715 15.4ZM10.0715 10.2571C10.387 10.2571 10.6429 10.0012 10.6429 9.68562C10.6429 9.37003 10.387 9.1142 10.0715 9.1142C9.75587 9.1142 9.50003 9.37003 9.50003 9.68562C9.50003 10.0012 9.75587 10.2571 10.0715 10.2571ZM20.9286 11.9714V12.5428L20.3548 13.1166C20.1448 13.3266 20.2935 13.6857 20.5905 13.6857H20.7226C20.8489 13.6857 20.9643 13.6143 21.0207 13.5014L21.5 12.5428L20.9286 11.9714ZM20.9286 11.9714L21.2445 11.8134C21.4505 11.7104 21.3772 11.4 21.1469 11.4C21.0263 11.4 20.9286 11.4977 20.9286 11.6182V11.9714Z" fill="white"/>
</g>
<rect x="1.75" y="1.25" width="23.5" height="17.5" stroke="black" stroke-opacity="0.1" stroke-width="0.5" shape-rendering="crispEdges"/>
</g>
<defs>
<filter id="filter0_dd_701_19046" x="0" y="0" width="27" height="21" filterUnits="userSpaceOnUse" color-interpolation-filters="sRGB">
<feFlood flood-opacity="0" result="BackgroundImageFix"/>
<feColorMatrix in="SourceAlpha" type="matrix" values="0 0 0 0 0 0 0 0 0 0 0 0 0 0 0 0 0 0 127 0" result="hardAlpha"/>
<feOffset dy="0.5"/>
<feGaussianBlur stdDeviation="0.75"/>
<feComposite in2="hardAlpha" operator="out"/>
<feColorMatrix type="matrix" values="0 0 0 0 0 0 0 0 0 0 0 0 0 0 0 0 0 0 0.1 0"/>
<feBlend mode="multiply" in2="BackgroundImageFix" result="effect1_dropShadow_701_19046"/>
<feColorMatrix in="SourceAlpha" type="matrix" values="0 0 0 0 0 0 0 0 0 0 0 0 0 0 0 0 0 0 127 0" result="hardAlpha"/>
<feOffset/>
<feGaussianBlur stdDeviation="0.5"/>
<feComposite in2="hardAlpha" operator="out"/>
<feColorMatrix type="matrix" values="0 0 0 0 0 0 0 0 0 0 0 0 0 0 0 0 0 0 0.11 0"/>
<feBlend mode="multiply" in2="effect1_dropShadow_701_19046" result="effect2_dropShadow_701_19046"/>
<feBlend mode="normal" in="SourceGraphic" in2="effect2_dropShadow_701_19046" result="shape"/>
</filter>
<clipPath id="clip0_701_19046">
<rect x="1.5" y="1" width="24" height="18" fill="white"/>
</clipPath>
</defs>
</svg>
