<svg width="24" height="24" viewBox="0 0 24 24" fill="none" xmlns="http://www.w3.org/2000/svg">
<path d="M22.3218 12C22.3218 6.47715 17.8446 2 12.3218 2C6.79893 2 2.32178 6.47715 2.32178 12C2.32178 17.5228 6.79893 22 12.3218 22C17.8446 22 22.3218 17.5228 22.3218 12Z" fill="#010427"/>
<path d="M12.6854 8.76699V6.18176C9.37013 6.18176 6.68542 8.89612 6.68542 12.0907C6.68542 15.2854 9.37028 17.9999 12.6854 17.9999V15.4147C10.9159 15.4147 9.31042 14.3068 9.31042 12.0909C9.31042 9.87495 10.9159 8.76699 12.6854 8.76699Z" fill="white"/>
<path d="M16.3243 9.00821C16.1313 9.00821 15.9402 8.97059 15.7619 8.89749C15.5835 8.8244 15.4215 8.71726 15.285 8.58219C15.1485 8.44712 15.0402 8.28677 14.9664 8.11029C14.8925 7.93383 14.8545 7.74468 14.8545 7.55367C14.8545 7.36265 14.8925 7.17351 14.9664 6.99704C15.0402 6.82056 15.1485 6.66021 15.285 6.52515C15.4215 6.39008 15.5835 6.28294 15.7619 6.20984C15.9402 6.13674 16.1313 6.09912 16.3243 6.09912C16.7142 6.09912 17.088 6.25237 17.3637 6.52515C17.6393 6.79793 17.7942 7.1679 17.7942 7.55367C17.7942 7.93944 17.6393 8.3094 17.3637 8.58219C17.088 8.85496 16.7142 9.00821 16.3243 9.00821Z" fill="#00DCD7"/>
<path d="M16.3243 18.0825C15.9345 18.0825 15.5607 17.9293 15.285 17.6565C15.0094 17.3837 14.8545 17.0138 14.8545 16.628C14.8545 16.2422 15.0094 15.8723 15.285 15.5995C15.5607 15.3267 15.9345 15.1735 16.3243 15.1735C16.7142 15.1735 17.088 15.3267 17.3637 15.5995C17.6393 15.8723 17.7942 16.2422 17.7942 16.628C17.7942 17.0138 17.6393 17.3837 17.3637 17.6565C17.088 17.9293 16.7142 18.0825 16.3243 18.0825Z" fill="#FF318B"/>
<path d="M12.8058 15.314V8.86768C14.6056 8.86768 16.1028 10.3002 16.062 12.0906C16.1028 13.8814 14.6057 15.314 12.8058 15.314Z" fill="white"/>
</svg>
