<svg width="24" height="24" viewBox="0 0 24 24" fill="none" xmlns="http://www.w3.org/2000/svg">
<circle cx="12" cy="12" r="7" fill="white"/>
<path fill-rule="evenodd" clip-rule="evenodd" d="M12 2.00842C6.47049 2.00842 2 6.51052 2 12.0503C2 17.59 6.47049 22.0921 12 22.0921C17.5287 22.0921 22 17.6017 22 12.0503C22 6.51052 17.5166 2.00842 12 2.00842ZM12.8044 12.5239L16.3096 16.0436C16.3769 16.1099 16.4292 16.1908 16.4628 16.2805C16.4964 16.3702 16.5104 16.4665 16.5038 16.5624C16.4972 16.6584 16.4703 16.7516 16.4248 16.8355C16.3794 16.9194 16.3166 16.9919 16.2409 17.0478C15.1185 17.9344 13.745 18.4132 12.3331 18.4101C8.59822 18.4101 5.60873 15.1549 6.04608 11.3231C6.36783 8.37997 8.74697 6.01344 11.6888 5.72474C13.3264 5.55291 14.966 6.0315 16.2757 7.06365C16.3473 7.12061 16.4061 7.19302 16.448 7.27587C16.4899 7.35872 16.5139 7.45001 16.5183 7.5434C16.5226 7.6368 16.5073 7.73007 16.4734 7.81673C16.4395 7.90339 16.3877 7.98136 16.3217 8.04524L12.8044 11.5766C12.7417 11.6373 12.6918 11.7106 12.6576 11.7921C12.6234 11.8736 12.6058 11.9615 12.6058 12.0503C12.6058 12.1391 12.6234 12.2269 12.6576 12.3084C12.6918 12.3899 12.7417 12.4632 12.8044 12.5239Z" fill="#69E2DC"/>
</svg>
