<svg viewBox="0 0 24 24" fill="none" xmlns="http://www.w3.org/2000/svg">
<g clip-path="url(#clip0_1265_22115)">
<path d="M12 24C18.6274 24 24 18.6274 24 12C24 5.37258 18.6274 0 12 0C5.37258 0 0 5.37258 0 12C0 18.6274 5.37258 24 12 24Z" fill="#37E8A3"/>
<path d="M9.2952 12.1762L11.7326 14.6213L18.1236 8.1876L19 9.0766L11.7326 16.4L8.4181 13.0659L9.2952 12.1762ZM10.7722 11.9592L14.7048 8L15.5819 8.889L11.65 12.851L10.7722 11.9592ZM9.179 15.3402L8.3138 16.2124L5 12.879L5.8757 11.99L9.179 15.3402Z" fill="white"/>
</g>
<defs>
<clipPath id="clip0_1265_22115">
<rect width="24" height="24" fill="white"/>
</clipPath>
</defs>
</svg>