<svg viewBox="0 0 24 24" fill="none" xmlns="http://www.w3.org/2000/svg">
<path fill-rule="evenodd" clip-rule="evenodd" d="M4.5 20H19.5C20.8783 20 22 18.654 22 17V7C22 5.346 20.8783 4 19.5 4H4.5C3.12167 4 2 5.346 2 7V17C2 18.654 3.12167 20 4.5 20ZM19.4998 18.25H4.49984C4.03984 18.25 3.6665 17.73 3.6665 17.0893V10.125H20.3332V17.0893C20.3332 17.73 19.9598 18.25 19.4998 18.25ZM19.4998 5.74999C19.9598 5.74999 20.3332 6.14199 20.3332 6.62499V7.49999H3.6665V6.62499C3.6665 6.14199 4.03984 5.74999 4.49984 5.74999H19.4998ZM14 16.8H19V15.2L14 15.2V16.8Z" fill="currentColor"/>
</svg>