<svg viewBox="0 0 24 24" fill="none" xmlns="http://www.w3.org/2000/svg">
<path fill-rule="evenodd" clip-rule="evenodd" d="M21.8744 4.87986C21.9073 4.93018 21.9258 4.98553 21.9469 5.04172C21.9646 5.08868 21.9857 5.13229 21.9941 5.18093C22.0034 5.23125 21.9992 5.28157 21.9983 5.3344C21.9983 5.39227 21.9992 5.44762 21.9874 5.50464C21.984 5.5189 21.9882 5.53232 21.984 5.54657L19.5103 14.6097V18.6661C19.5103 19.0251 19.2801 19.3437 18.9395 19.457C18.8324 19.493 16.2592 20.3333 12.0007 20.3333C7.74381 20.3333 5.12005 19.4947 5.01044 19.4586C4.66645 19.3471 4.4346 19.0267 4.4346 18.6661V14.4973C4.4346 14.4805 4.44472 14.4663 4.4464 14.4495L2.01571 5.54657C2.01234 5.53232 2.01571 5.5189 2.01318 5.50464C2.00053 5.44762 2.00222 5.39143 2.00138 5.33356C2.00138 5.28157 1.99632 5.23125 2.00559 5.18093C2.01402 5.13229 2.03594 5.08784 2.05281 5.04088C2.07388 4.98469 2.09328 4.93018 2.12531 4.87986C2.1329 4.86812 2.13375 4.85386 2.14218 4.84296C2.1641 4.81193 2.19698 4.79516 2.22227 4.76832C2.2619 4.72555 2.30068 4.68362 2.34958 4.64924C2.3968 4.61653 2.44823 4.59557 2.5005 4.57376C2.53591 4.55867 2.56373 4.53351 2.60167 4.5226C2.61601 4.51925 2.63034 4.5226 2.64467 4.52009C2.70116 4.50751 2.75765 4.50919 2.81667 4.50835C2.86641 4.50835 2.91615 4.50416 2.96421 4.51254C3.01733 4.52177 3.06623 4.54441 3.11681 4.5637C3.16824 4.58383 3.21799 4.6006 3.26436 4.62995C3.27785 4.63834 3.29303 4.63917 3.30567 4.6484L8.35254 8.24949L11.2537 2.45286C11.2689 2.42351 11.295 2.40506 11.3127 2.37822C11.3439 2.32958 11.3759 2.28513 11.4173 2.24404C11.4586 2.20211 11.5033 2.17024 11.5513 2.13921C11.5783 2.1216 11.5968 2.09477 11.6263 2.08051C11.6449 2.07128 11.6634 2.07296 11.682 2.06541C11.736 2.04277 11.7908 2.03103 11.8481 2.02013C11.8995 2.0109 11.9484 2 11.9998 2C12.0513 2 12.1002 2.0109 12.1516 2.02013C12.2089 2.03103 12.2637 2.04277 12.3177 2.06541C12.3354 2.07296 12.3556 2.07128 12.3733 2.08051C12.4029 2.0956 12.4222 2.1216 12.4492 2.13921C12.4973 2.17024 12.5411 2.20211 12.5824 2.2432C12.6237 2.28513 12.6566 2.32958 12.6878 2.37822C12.7055 2.40506 12.7317 2.42351 12.746 2.45286L15.6471 8.24949L20.694 4.6484C20.7067 4.63917 20.7227 4.63834 20.7353 4.62995C20.7825 4.6006 20.8331 4.58299 20.8846 4.5637C20.9351 4.54441 20.9832 4.52177 21.0355 4.51254C21.0844 4.50332 21.1333 4.50835 21.183 4.50835C21.2429 4.50835 21.2994 4.50751 21.3575 4.52009C21.371 4.5226 21.3845 4.51925 21.398 4.5226C21.4351 4.53267 21.4621 4.55699 21.4958 4.57208C21.5506 4.59473 21.6029 4.61569 21.6518 4.65008C21.6999 4.68362 21.7378 4.72472 21.7774 4.76749C21.8027 4.79432 21.8356 4.81109 21.8575 4.84296C21.8659 4.85386 21.8668 4.86812 21.8744 4.87986ZM6.10309 18.0288C7.05665 18.2594 9.14251 18.6661 12.0007 18.6661C14.8487 18.6661 16.9017 18.2619 17.8409 18.0313V15.5766C16.6909 15.8324 14.6784 16.1653 12.0007 16.1653C9.30692 16.1653 7.26574 15.829 6.10309 15.5733V18.0288ZM11.9998 4.69033L9.40808 9.86805C9.40049 9.88398 9.38363 9.88985 9.37435 9.90495C9.36086 9.92927 9.35749 9.95694 9.34063 9.98042C9.2951 10.0442 9.22934 10.0794 9.17116 10.1255C9.13407 10.1557 9.10625 10.1943 9.06493 10.2169C8.94015 10.2865 8.80357 10.3293 8.66108 10.3293C8.54895 10.3293 8.4385 10.2974 8.33227 10.2513C8.31793 10.2454 8.30276 10.2479 8.28927 10.2412C8.27325 10.2337 8.26398 10.2186 8.24796 10.2094C8.22519 10.1968 8.1999 10.1901 8.17713 10.1741L4.24233 7.36641L6.00865 13.8365C6.91162 14.0612 9.04133 14.4973 12.0006 14.4973C15.0274 14.4973 17.1462 14.0428 17.9943 13.823L19.7573 7.36641L15.8225 10.1741C15.8006 10.1901 15.7744 10.1968 15.7517 10.2094C15.7365 10.2186 15.7272 10.2337 15.7112 10.2412C15.6969 10.2479 15.6817 10.2454 15.6673 10.2513C15.5611 10.2974 15.4507 10.3293 15.3385 10.3293C15.1969 10.3293 15.0595 10.2865 14.9347 10.2169C14.8934 10.1943 14.8664 10.1557 14.8293 10.1263C14.7703 10.0794 14.7045 10.0442 14.659 9.98042C14.6421 9.95694 14.6396 9.92927 14.6253 9.90495C14.6168 9.88985 14.5991 9.88398 14.5915 9.86805L11.9998 4.69033Z" fill="currentColor"/>
</svg>