<svg width="24" height="24" viewBox="0 0 24 24" fill="none" xmlns="http://www.w3.org/2000/svg">
<g clip-path="url(#clip0_1265_22111)">
<path d="M12 24C18.6274 24 24 18.6274 24 12C24 5.37258 18.6274 0 12 0C5.37258 0 0 5.37258 0 12C0 18.6274 5.37258 24 12 24Z" fill="#00BDCD"/>
<path d="M15.0755 8.01891C14.1772 7.2557 13.0356 6.83882 11.8568 6.84355C9.18727 6.84355 6.98864 8.95436 6.80536 11.6525H6.28227C6.46555 8.63364 8.89964 6.309 11.8568 6.309C13.1658 6.309 14.4214 6.79009 15.4421 7.64536L15.0755 8.01891ZM14.8923 9.78227C14.5487 9.29653 14.0939 8.90002 13.5658 8.62581C13.0378 8.35161 12.4518 8.20767 11.8568 8.206C9.78927 8.206 8.11436 9.91591 8.11436 12C8.11436 14.1102 9.78927 15.8207 11.8562 15.8207C13.0564 15.8207 14.1846 15.2353 14.8923 14.2438L15.2595 14.618C14.4475 15.7132 13.1913 16.3553 11.8568 16.3553C9.501 16.3553 7.59064 14.4042 7.59064 12C7.59064 9.62255 9.501 7.67145 11.8568 7.67145C12.5204 7.67418 13.1741 7.83283 13.7652 8.1346C14.3562 8.43636 14.8681 8.87281 15.2595 9.40873L14.8923 9.78227ZM15.4943 8.41982L15.8615 8.04564C15.9919 8.17927 16.0969 8.31291 16.2013 8.44655L15.8347 8.82009C15.7288 8.68018 15.6152 8.54633 15.4943 8.41918V8.41982ZM11.8307 17.7171C8.87354 17.7171 6.43945 15.3931 6.25618 12.3742H6.77927C6.96255 15.0724 9.16118 17.1832 11.8307 17.1832C13.008 17.1832 14.1344 16.7823 15.0495 16.0078L15.416 16.3814C14.4181 17.2393 13.1468 17.7132 11.8307 17.7177V17.7171ZM15.4943 15.6069C15.6254 15.4733 15.7297 15.3396 15.8347 15.206L16.2013 15.5795C16.0963 15.7132 15.9919 15.8468 15.8615 15.9805L15.4943 15.6069ZM5.52373 12C5.52373 15.5535 8.37591 18.4655 11.8568 18.4655C13.7411 18.4655 15.5204 17.6375 16.725 16.1147L17.0909 16.4883C15.7825 18.0919 13.8983 19 11.8568 19C8.06218 19 5 15.8468 5 12C5 8.12582 8.08827 5 11.8568 5C13.8709 5 15.7832 5.90809 17.0909 7.51173L16.7244 7.88591C15.5204 6.38982 13.7411 5.53455 11.8562 5.53455C8.37527 5.53455 5.52373 8.44655 5.52373 12Z" fill="white"/>
</g>
<defs>
<clipPath id="clip0_1265_22111">
<rect width="24" height="24" fill="white"/>
</clipPath>
</defs>
</svg>
