<svg width="24" height="24" viewBox="0 0 24 24" fill="none" xmlns="http://www.w3.org/2000/svg">
<g clip-path="url(#clip0_1265_22107)">
<path d="M12 24C18.6274 24 24 18.6274 24 12C24 5.37258 18.6274 0 12 0C5.37258 0 0 5.37258 0 12C0 18.6274 5.37258 24 12 24Z" fill="#0F1529"/>
<path fill-rule="evenodd" clip-rule="evenodd" d="M17.621 11.7202C17.4931 11.7488 17.4053 11.7654 17.3194 11.7883C16.7816 11.9289 16.2401 12.0403 15.6801 12.0193C14.9317 11.9906 14.289 11.6896 13.722 11.2047C13.4929 11.0081 13.2804 10.7911 13.0615 10.5824C12.9552 10.4818 12.9297 10.3673 13.0105 10.2362L13.2174 9.90082L13.4967 10.2075C13.8995 10.6543 14.3304 11.0609 14.8986 11.2779C15.4567 11.4905 16.025 11.4593 16.5958 11.3632C17.4027 11.2283 18.1479 10.9056 18.8785 10.5435C18.9026 10.5315 18.9294 10.5238 19 10.4958C18.9516 10.5868 18.9249 10.6409 18.8944 10.6918C17.8278 12.4851 16.7613 14.2784 15.6935 16.071C15.5624 16.2912 15.5134 16.3077 15.2855 16.1964C13.7799 15.4569 12.203 15.3163 10.5752 15.5963C10.3206 15.6402 10.2755 15.6185 10.1539 15.3576C10.0209 15.0725 10.0222 15.0802 10.3232 15.0223C11.1619 14.8584 12.0207 14.8235 12.8699 14.9185C13.6647 15.0076 14.457 15.1247 15.1863 15.4989C15.2906 15.553 15.346 15.5078 15.3982 15.4213C15.8608 14.6487 16.3235 13.8762 16.7886 13.1049C17.0375 12.6919 17.2914 12.2821 17.5415 11.8704C17.5631 11.8347 17.5803 11.7972 17.621 11.7202ZM6.38664 11.7972C6.49355 11.9773 6.60045 12.1574 6.70864 12.3368L8.84936 15.8877C8.95118 16.057 8.95118 16.0621 8.77491 16.1429C8.395 16.3179 8.44209 16.3631 8.20982 15.9743C7.38891 14.5965 6.56927 13.2175 5.74964 11.8392L5.08527 10.7224C5.05345 10.6695 5.028 10.6123 5 10.5569L5.02482 10.5238C5.11836 10.5652 5.21255 10.604 5.30482 10.6473C5.86673 10.9101 6.435 11.1545 7.037 11.3034C7.80955 11.4955 8.57255 11.5178 9.30882 11.1506C9.767 10.9222 10.1444 10.5855 10.4842 10.2018C11.0283 9.58582 11.4699 8.89473 11.8702 8.17436L11.9675 8C12.0204 8.07891 12.0541 8.13873 12.0967 8.19091C12.3315 8.47855 12.2762 8.73436 12.0783 9.03218C11.6366 9.69655 11.1918 10.3545 10.6038 10.8942C10.0782 11.3765 9.48891 11.7405 8.79655 11.9066C8.25309 12.0371 7.70709 12.011 7.16173 11.9098C6.91227 11.8634 6.66409 11.8112 6.41527 11.7615L6.38664 11.7972Z" fill="white"/>
</g>
<defs>
<clipPath id="clip0_1265_22107">
<rect width="24" height="24" fill="white"/>
</clipPath>
</defs>
</svg>
