<svg width="24" height="24" viewBox="0 0 24 24" fill="none" xmlns="http://www.w3.org/2000/svg">
<path fill-rule="evenodd" clip-rule="evenodd" d="M10.1001 4.00006C7.06253 4.00006 4.6001 6.46249 4.6001 9.50006C4.6001 11.4178 5.58074 13.1069 7.07257 14.0927C7.94046 14.6662 8.97976 15.0001 10.1001 15.0001C10.5563 15.0001 10.9982 14.9447 11.42 14.8409C13.8206 14.25 15.6001 12.0816 15.6001 9.50006C15.6001 8.99642 15.5327 8.51011 15.4069 8.04893C14.7704 5.71474 12.6342 4.00006 10.1001 4.00006ZM2.6001 9.50006C2.6001 5.35793 5.95796 2.00006 10.1001 2.00006C13.3976 2.00006 16.1959 4.12732 17.2018 7.08285L20.4473 8.70564C20.7084 8.83619 20.8995 9.07432 20.9703 9.35753L21.9703 13.3575C22.0433 13.6497 21.9808 13.9592 21.8001 14.2001L18.8001 18.2001C18.6113 18.4519 18.3149 18.6001 18.0001 18.6001H14.7387C13.9453 20.3118 12.2125 21.5001 10.2001 21.5001C7.43865 21.5001 5.20007 19.2615 5.20007 16.5001C5.20007 16.0873 5.2503 15.6853 5.34518 15.3003C3.67073 13.926 2.6001 11.8383 2.6001 9.50006ZM7.20114 16.419C7.20043 16.4459 7.20007 16.4729 7.20007 16.5001C7.20007 18.1569 8.54322 19.5001 10.2001 19.5001C11.1105 19.5001 11.9273 19.0941 12.4778 18.4528C12.3715 18.3877 12.2769 18.3024 12.2001 18.2001L11.2359 16.9145C10.8651 16.9709 10.4857 17.0001 10.1001 17.0001C9.07335 17.0001 8.09353 16.7933 7.20114 16.419ZM13.2731 16.2974L13.5001 16.6001H17.5001L19.9145 13.3808L19.1415 10.2888L17.6001 9.51808C17.593 12.5193 15.8238 15.1047 13.2731 16.2974ZM10.0001 5.80006C10.3633 5.80006 10.6979 5.99696 10.8743 6.31442L13.3743 10.8144C13.5464 11.1242 13.5417 11.5018 13.362 11.8072C13.1823 12.1126 12.8544 12.3001 12.5001 12.3001H7.50012C7.1458 12.3001 6.81794 12.1126 6.63825 11.8072C6.45857 11.5018 6.45389 11.1242 6.62597 10.8144L9.12596 6.31442C9.30233 5.99696 9.63695 5.80006 10.0001 5.80006ZM9.19964 10.3001H10.8006L10.0001 8.85919L9.19964 10.3001Z" fill="#6B7084"/>
</svg>
