<svg viewBox="0 0 24 24" fill="none" xmlns="http://www.w3.org/2000/svg">
<g clip-path="url(#clip0_1265_22103)">
<path d="M12 24C18.6274 24 24 18.6274 24 12C24 5.37258 18.6274 0 12 0C5.37258 0 0 5.37258 0 12C0 18.6274 5.37258 24 12 24Z" fill="#262626"/>
<path fill-rule="evenodd" clip-rule="evenodd" d="M12.7517 7.94318C14.3127 8.05836 15.07 8.99 15.07 9.15864C15.07 9.27764 15.0413 9.53727 15.0413 9.69636C15.0413 9.80264 15.0795 9.97255 15.1559 10.2055C15.1368 10.3645 15.0318 10.4447 14.8402 10.4447C14.5539 10.4447 14.6341 10.1234 14.209 9.487C13.7508 8.80164 13.2875 8.65782 12.7491 8.62791C12.76 10.089 12.8001 14.1108 12.8032 15.4943C14.2382 15.2855 15.035 14.2139 15.2418 14.2139C15.3563 14.2139 15.5001 14.303 15.5001 14.513C15.5001 14.9553 14.3661 15.9556 12.7816 16.1535C12.6632 17.4447 12.0523 19 10.5365 19C9.81933 19 9.21669 18.4464 9.21669 17.8036C9.21669 17.3849 9.53233 17.2055 9.81933 17.2055C10.1057 17.2055 10.3927 17.4148 10.3927 17.8036C10.3927 18.0626 10.3068 18.2427 10.135 18.342C10.3068 18.4616 10.4786 18.5215 10.6511 18.5215C11.2251 18.5215 11.6565 17.4829 11.7303 16.1478C10.058 15.8793 8.49951 14.2858 8.49951 11.9701C8.49951 9.36545 10.1222 8.23909 11.7138 7.98773C11.7456 6.81682 12.3571 5.02864 13.922 5C14.8682 5 15.2698 5.77764 15.2698 6.19636C15.2698 6.61509 14.9688 6.79455 14.6678 6.79455C14.3661 6.79455 14.0651 6.55527 14.0651 6.19636C14.0651 5.95709 14.1606 5.78782 14.3515 5.68791C14.2179 5.56827 14.0461 5.50845 13.8361 5.50845C13.04 5.50845 12.7899 7.18718 12.7511 7.94318H12.7517ZM11.7418 15.4446C11.7392 13.8957 11.7195 10.3264 11.7144 8.68645C10.2457 9.04727 9.76269 10.7947 9.76269 11.9701C9.76269 13.8334 10.6434 15.1131 11.7418 15.4446Z" fill="white"/>
</g>
<defs>
<clipPath id="clip0_1265_22103">
<rect width="24" height="24" fill="white"/>
</clipPath>
</defs>
</svg>