<svg viewBox="0 0 24 24" fill="none" xmlns="http://www.w3.org/2000/svg">
<g clip-path="url(#clip0_1265_22099)">
<path d="M12 24C18.6274 24 24 18.6274 24 12C24 5.37258 18.6274 0 12 0C5.37258 0 0 5.37258 0 12C0 18.6274 5.37258 24 12 24Z" fill="#FDDE6C"/>
<path fill-rule="evenodd" clip-rule="evenodd" d="M12 19C8.13409 19 5 15.8659 5 12C5 8.13409 8.13409 5 12 5C15.8659 5 19 8.13409 19 12C19 15.8659 15.8659 19 12 19ZM12 18.0162C13.5956 18.0162 15.1258 17.3823 16.2541 16.2541C17.3823 15.1258 18.0162 13.5956 18.0162 12C18.0162 10.4044 17.3823 8.87417 16.2541 7.74592C15.1258 6.61766 13.5956 5.98382 12 5.98382C10.4044 5.98382 8.87417 6.61766 7.74592 7.74592C6.61766 8.87417 5.98382 10.4044 5.98382 12C5.98382 13.5956 6.61766 15.1258 7.74592 16.2541C8.87417 17.3823 10.4044 18.0162 12 18.0162ZM12.0458 16.1625C9.75682 16.1625 7.91327 14.4125 7.91327 12.0229V12C7.91327 9.66709 9.711 7.83818 12.1375 7.83818C13.7742 7.83818 14.8274 8.52418 15.5375 9.50736L13.8658 10.7992C13.4076 10.2277 12.8814 9.86182 12.1145 9.86182C10.9926 9.86182 10.2029 10.8106 10.2029 11.9771V12C10.2029 13.2008 10.9926 14.1382 12.1145 14.1382C12.9501 14.1382 13.4426 13.75 13.9231 13.1665L15.5948 14.3558C14.8388 15.3963 13.82 16.1625 12.0458 16.1625Z" fill="black"/>
</g>
<defs>
<clipPath id="clip0_1265_22099">
<rect width="24" height="24" fill="white"/>
</clipPath>
</defs>
</svg>