<svg viewBox="0 0 24 24" fill="none" xmlns="http://www.w3.org/2000/svg">
<g clip-path="url(#clip0_1265_22092)">
<path d="M12 24C18.6274 24 24 18.6274 24 12C24 5.37258 18.6274 0 12 0C5.37258 0 0 5.37258 0 12C0 18.6274 5.37258 24 12 24Z" fill="black"/>
<path d="M11.9345 5.25332C11.8416 5.04332 12.1776 4.89441 12.2705 5.09423C14.4545 8.85641 16.6385 12.6205 18.8225 16.3884C18.7061 16.3884 18.5941 16.3502 18.4821 16.3324L12.653 15.1704C12.4621 15.1609 12.4201 14.8522 12.6065 14.8064L14.8936 14.1764C14.9209 14.1695 14.9463 14.1567 14.968 14.1388C14.9897 14.1209 15.0072 14.0985 15.0193 14.0731C15.0313 14.0477 15.0376 14.0199 15.0376 13.9918C15.0377 13.9637 15.0316 13.9359 15.0196 13.9104L11.9345 5.24823V5.25269V5.25332Z" fill="white"/>
<path d="M11.5991 5.27246C11.6201 5.30301 11.6385 5.3361 11.6545 5.37046C12.3455 7.33046 13.0545 9.29046 13.7405 11.2505C13.8015 11.4134 13.5725 11.5489 13.4605 11.4274C12.8725 10.8114 12.3125 10.1769 11.734 9.56092C11.6405 9.47692 11.5049 9.53292 11.4445 9.62137L5.434 16.6825C5.364 16.7569 5.30355 16.8689 5.18645 16.8829C5.10245 16.8829 5.04645 16.8174 5 16.7525V16.6443C7.20245 12.8554 9.40236 9.06519 11.5991 5.27246Z" fill="white"/>
<path d="M9.75981 11.9969C9.87181 11.9644 10.0207 12.0434 9.98381 12.1789C9.75027 12.9909 9.50336 13.7984 9.26027 14.6054C9.22336 14.7084 9.31627 14.8014 9.41427 14.8064C12.5598 15.4364 15.7054 16.0894 18.8503 16.7194C18.9114 16.7289 18.9534 16.7754 18.9998 16.8129V16.9434L18.9107 17.0369H5.55981C6.95981 15.3569 8.35536 13.6674 9.75981 11.9969Z" fill="white"/>
</g>
<defs>
<clipPath id="clip0_1265_22092">
<rect width="24" height="24" fill="white"/>
</clipPath>
</defs>
</svg>