<svg viewBox="0 0 24 24" fill="none" xmlns="http://www.w3.org/2000/svg">
<path fill-rule="evenodd" clip-rule="evenodd" d="M21.5396 17.2458C21.42 17.305 21.2928 17.3333 21.1673 17.3333C20.8615 17.3342 20.5675 17.165 20.4209 16.8725L19.7234 15.4767C18.4868 18.58 15.514 20.6667 12.0004 20.6667C8.18268 20.6667 4.77015 18.2025 3.70284 14.6742C3.56974 14.2342 3.81825 13.7692 4.25882 13.6358C4.69939 13.5017 5.16439 13.7517 5.29749 14.1917C6.15504 17.0225 8.91135 19 12.0004 19C14.8982 19 17.251 17.3083 18.2046 14.7458L16.5392 15.5783C16.1273 15.7842 15.6277 15.6175 15.4214 15.2058C15.215 14.7942 15.3826 14.2942 15.7937 14.0883L19.127 12.4208C19.539 12.215 20.0385 12.3825 20.2457 12.7942L21.912 16.1275C22.1175 16.5392 21.9507 17.0392 21.5396 17.2458ZM12.0004 13.1667C10.5978 13.1667 9.5002 12.2517 9.5002 11.0833C9.5002 10.1533 10.2002 9.39333 11.1909 9.1175C11.185 9.0775 11.1673 9.04167 11.1673 9V8.16667C11.1673 7.70667 11.5396 7.33333 12.0004 7.33333C12.4604 7.33333 12.8335 7.70667 12.8335 8.16667V9H13.6667C14.1275 9 14.4998 9.37333 14.4998 9.83333C14.4998 10.2933 14.1275 10.6667 13.6667 10.6667H12.0004C11.4832 10.6667 11.1673 10.9367 11.1673 11.0833C11.1673 11.23 11.4832 11.5 12.0004 11.5C13.4022 11.5 14.4998 12.415 14.4998 13.5833C14.4998 14.5125 13.7998 15.2733 12.81 15.5492C12.8159 15.5892 12.8335 15.625 12.8335 15.6667V16.5C12.8335 16.96 12.4604 17.3333 12.0004 17.3333C11.5396 17.3333 11.1673 16.96 11.1673 16.5V15.6667H10.3333C9.87254 15.6667 9.5002 15.2933 9.5002 14.8333C9.5002 14.3733 9.87254 14 10.3333 14H12.0004C12.5168 14 12.8335 13.73 12.8335 13.5833C12.8335 13.4367 12.5168 13.1667 12.0004 13.1667ZM19.742 11.0317C19.2997 11.165 18.8356 10.915 18.7025 10.475C17.8449 7.64417 15.0895 5.66667 12.0004 5.66667C9.10006 5.66667 6.74641 7.35917 5.79367 9.92167L7.46076 9.0875C7.87269 8.8825 8.37307 9.04917 8.57946 9.46083C8.785 9.8725 8.61821 10.3733 8.20628 10.5792L4.87293 12.245C4.75331 12.3058 4.62611 12.3333 4.50144 12.3333C4.19481 12.3333 3.90165 12.165 3.75508 11.8725L2.08798 8.54C1.88244 8.1275 2.04923 7.62667 2.46116 7.42167C2.87394 7.215 3.37263 7.3825 3.57902 7.79417L4.27652 9.18833C5.51147 6.08667 8.48427 4 12.0004 4C15.8164 4 19.229 6.46417 20.2971 9.99167C20.4311 10.4325 20.1817 10.8975 19.742 11.0317Z" fill="currentColor"/>
</svg>