<svg viewBox="0 0 24 24" fill="none" xmlns="http://www.w3.org/2000/svg">
<path d="M7.2462 3.19995L8.4648 6.21603C6.52 7.40732 5.2222 9.55211 5.2222 11.9999C5.2222 15.7432 8.2567 18.7776 12 18.7776C12.4961 18.7779 12.9907 18.724 13.475 18.6167L14.6936 21.6328C13.8166 21.8771 12.9104 22.0006 12 21.9998C6.4772 21.9998 2 17.5227 2 11.9999C2 8.19772 4.1219 4.89124 7.2462 3.19995Z" fill="#FE4040"/>
<path d="M12.0001 15.5556C10.0364 15.5556 8.44446 13.9637 8.44446 12C8.44446 10.0363 10.0364 8.4444 12.0001 8.4444C13.3838 8.4444 14.583 9.2344 15.1701 10.3889H18.5848C17.8618 7.4234 15.1878 5.2222 11.9997 5.2222C11.5036 5.22191 11.009 5.2759 10.5247 5.3832L9.30646 2.367C10.1835 2.1227 11.0897 1.99923 12.0001 2C17.5229 2 22.0001 6.4772 22.0001 12C22.0001 15.8021 19.8782 19.1087 16.7539 20.8L15.5353 17.7839C17.0391 16.8628 18.156 15.3716 18.5853 13.6111H15.1701C14.8724 14.196 14.4188 14.6873 13.8593 15.0304C13.2999 15.3736 12.6564 15.5554 12.0001 15.5556Z" fill="#00C46B"/>
</svg>