<svg viewBox="0 0 24 24" fill="none" xmlns="http://www.w3.org/2000/svg">
<g clip-path="url(#clip0_4289_17082)">
<path d="M12 24C18.6274 24 24 18.6274 24 12C24 5.37258 18.6274 0 12 0C5.37258 0 0 5.37258 0 12C0 18.6274 5.37258 24 12 24Z" fill="white"/>
<path d="M12.0014 23.9999C18.6257 23.9999 23.9958 18.6299 23.9958 12.0056C23.9958 5.38129 18.6257 0.0112305 12.0014 0.0112305C5.37714 0.0112305 0.00708008 5.38129 0.00708008 12.0056C0.00708008 18.6299 5.37714 23.9999 12.0014 23.9999Z" fill="#EDF0F2"/>
<path d="M19.6162 21.2616C17.7875 22.7715 15.5462 23.6999 13.183 23.925C10.0226 24.2344 6.86226 23.2779 4.39587 21.2616C1.93885 19.2454 0.382119 16.3382 0.0632697 13.1685C-0.171178 10.8053 0.297718 8.43266 1.41369 6.34138C2.52966 4.25011 4.24582 2.53395 6.3371 1.41798C8.42837 0.302005 10.801 -0.176269 13.1642 0.058179C15.5275 0.292627 17.7594 1.21166 19.5975 2.72151L17.178 5.67555C15.9307 4.65336 14.4021 4.01566 12.7891 3.86561C11.1761 3.70619 9.5631 4.03442 8.13766 4.79403C6.71221 5.55364 5.54935 6.72588 4.78036 8.15132C4.02075 9.57676 3.7019 11.1991 3.86133 12.8028C4.07702 14.9597 5.13672 16.9478 6.81537 18.317C8.49402 19.6955 10.6509 20.3426 12.8079 20.1269C14.4209 19.9675 15.9401 19.3298 17.1873 18.3076L19.6162 21.2616Z" fill="url(#paint0_linear_4289_17082)"/>
<path d="M12.0389 21.8244C17.45 21.8244 21.8295 17.4355 21.8295 12.0338C21.8295 6.62275 17.45 2.23389 12.0389 2.23389C6.62788 2.23389 2.23901 6.62275 2.23901 12.0338C2.23901 17.4449 6.62788 21.8244 12.0389 21.8244Z" fill="white"/>
<path fill-rule="evenodd" clip-rule="evenodd" d="M12.9204 12.2963C12.8641 12.2963 12.6015 12.315 12.0013 12.315C11.5231 12.315 11.1855 12.2963 11.0635 12.2963C9.21609 12.2119 7.84691 11.9024 7.84691 11.5179C7.84691 11.1334 9.22547 10.8239 11.0635 10.7395V11.9868C11.1855 11.9962 11.5324 12.0149 12.0107 12.0149C12.5828 12.0149 12.8735 11.9868 12.9204 11.9868V10.7489C14.7584 10.8333 16.137 11.1428 16.137 11.5273C16.137 11.9024 14.7678 12.2212 12.9204 12.2963ZM12.9204 10.6176V9.51102H15.4899V7.823H8.50337V9.51102H11.0729V10.6176C8.98164 10.7114 7.41553 11.124 7.41553 11.6117C7.41553 12.0993 8.98164 12.512 11.0729 12.6057V16.16H12.9297V12.6057C15.0116 12.512 16.5778 12.0993 16.5778 11.6117C16.5778 11.124 15.0116 10.7114 12.9204 10.6176Z" fill="#283947"/>
</g>
<defs>
<linearGradient id="paint0_linear_4289_17082" x1="8.62474" y1="1.32846" x2="12.3847" y2="22.1749" gradientUnits="userSpaceOnUse">
<stop stop-color="#27D3A2"/>
<stop offset="1" stop-color="#9388FD"/>
</linearGradient>
<clipPath id="clip0_4289_17082">
<rect width="24" height="24" fill="white"/>
</clipPath>
</defs>
</svg>