<svg width="24" height="24" viewBox="0 0 24 24" fill="none" xmlns="http://www.w3.org/2000/svg">
<g clip-path="url(#clip0_1265_22088)">
<path d="M12 24C18.6274 24 24 18.6274 24 12C24 5.37258 18.6274 0 12 0C5.37258 0 0 5.37258 0 12C0 18.6274 5.37258 24 12 24Z" fill="#3AB03E"/>
<path d="M12.7556 12.5063C13.014 12.3826 13.2322 12.1884 13.3851 11.9461C13.538 11.7038 13.6195 11.4233 13.6201 11.1368C13.6201 10.2957 12.9298 9.61385 12.0796 9.61385C11.2281 9.61385 10.5372 10.2957 10.5372 11.1368C10.5379 11.4234 10.6195 11.7039 10.7727 11.9461C10.9259 12.1883 11.1444 12.3823 11.403 12.5057V14.3868H12.7556V12.5063ZM12.0796 16.875C9.35873 16.875 7.14613 14.6884 7.14613 12C7.14613 9.3116 9.35873 7.125 12.0796 7.125C14.2994 7.125 16.1811 8.581 16.7986 10.5778H18.499C17.8425 7.6723 15.2178 5.5 12.079 5.5C8.44613 5.5 5.50098 8.41005 5.50098 12C5.50098 15.5899 8.44613 18.5 12.079 18.5C15.2178 18.5 17.8425 16.3277 18.499 13.4222H16.798C16.1805 15.419 14.2987 16.875 12.079 16.875" fill="white"/>
</g>
<defs>
<clipPath id="clip0_1265_22088">
<rect width="24" height="24" fill="white"/>
</clipPath>
</defs>
</svg>
