<svg viewBox="0 0 24 24" fill="none" xmlns="http://www.w3.org/2000/svg">
<g clip-path="url(#clip0_1265_22080)">
<path d="M12 24C18.6274 24 24 18.6274 24 12C24 5.37258 18.6274 0 12 0C5.37258 0 0 5.37258 0 12C0 18.6274 5.37258 24 12 24Z" fill="#F1A600"/>
<path fill-rule="evenodd" clip-rule="evenodd" d="M7.55795 6.52637H12.0409C14.7675 6.52637 16.8345 7.97416 17.6035 10.0802H19V11.3535H17.8977C17.9189 11.5546 17.9299 11.7599 17.9299 11.9679V11.9994C17.9299 12.2334 17.9162 12.4646 17.8888 12.6904H19V13.9631H17.5768C16.7879 16.0403 14.7374 17.4737 12.0416 17.4737H7.55795V13.9631H6V12.6904H7.55795V11.3535H6V10.0808H7.55795V6.52637ZM8.81074 13.9631V16.3318H12.0402C14.034 16.3318 15.5146 15.3828 16.2036 13.9631H8.81074ZM16.5875 12.6904H8.81074V11.3535H16.5902C16.6183 11.5635 16.6333 11.7791 16.6333 11.9994V12.0302C16.6333 12.2553 16.6176 12.4749 16.5875 12.6897V12.6904ZM12.0416 7.66558C14.0436 7.66558 15.529 8.63989 16.2139 10.0795H8.81074V7.66626H12.0402L12.0416 7.66558Z" fill="white"/>
</g>
<defs>
<clipPath id="clip0_1265_22080">
<rect width="24" height="24" fill="white"/>
</clipPath>
</defs>
</svg>