<svg width="24" height="24" viewBox="0 0 24 24" fill="none" xmlns="http://www.w3.org/2000/svg">
<g clip-path="url(#clip0_1265_22074)">
<path d="M12 24C18.6274 24 24 18.6274 24 12C24 5.37258 18.6274 0 12 0C5.37258 0 0 5.37258 0 12C0 18.6274 5.37258 24 12 24Z" fill="#008CE7"/>
<path d="M14.0161 6.72351H9.27961L8.88772 8.91536L13.1595 8.92187C15.2628 8.92187 15.8871 9.68547 15.8669 10.9529C15.8578 11.6026 15.5746 12.7015 15.4548 13.0556C15.1313 14.006 14.4647 15.088 11.9662 15.0847L7.81425 15.0821L7.42236 17.2766H12.1465C13.8124 17.2766 14.522 17.0819 15.2712 16.7362C16.9338 15.9694 17.924 14.327 18.3217 12.1833C18.9115 8.99348 18.1759 6.72351 14.0155 6.72351H14.0161Z" fill="white"/>
<path d="M11.8816 11.7973C12.0358 11.1561 12.0847 10.8989 12.0847 10.8989H7.23747C5.998 10.8989 5.82093 11.7061 5.70311 12.1944C5.54882 12.833 5.5 13.0934 5.5 13.0934H10.3479C11.5867 13.0934 11.7637 12.2862 11.8816 11.7973Z" fill="white"/>
</g>
<defs>
<clipPath id="clip0_1265_22074">
<rect width="24" height="24" fill="white"/>
</clipPath>
</defs>
</svg>
