<svg viewBox="0 0 24 24" fill="none" xmlns="http://www.w3.org/2000/svg">
<g clip-path="url(#clip0_1265_22070)">
<path d="M12 24C18.6274 24 24 18.6274 24 12C24 5.37258 18.6274 0 12 0C5.37258 0 0 5.37258 0 12C0 18.6274 5.37258 24 12 24Z" fill="#2D9CDB"/>
<path d="M14.917 5.00037C15.19 5.00037 15.4102 5.08397 15.5767 5.25046C15.7432 5.41696 15.8261 5.6364 15.8261 5.91018V14.0427C15.8261 14.9693 15.6066 15.8143 15.1664 16.575C14.7467 17.3156 14.1374 17.9312 13.4011 18.3584C12.664 18.7861 11.8378 19 10.9217 19C10.0064 19 9.16831 18.7861 8.40688 18.3584C7.67056 17.9312 7.06126 17.3156 6.6416 16.575C6.21387 15.8143 6 14.97 6 14.0427C6 13.1155 6.19576 12.2768 6.58866 11.5279C6.99271 10.7671 7.53957 10.1722 8.22924 9.74447C8.93075 9.31674 9.7096 9.10217 10.5651 9.10217C11.2238 9.09734 11.8752 9.24071 12.471 9.52168C13.0668 9.80265 13.5918 10.214 14.0072 10.7253V5.91018C14.0072 5.6364 14.0908 5.41696 14.2572 5.25046C14.4356 5.08336 14.6727 4.99347 14.917 5.00037ZM10.9217 17.3949C11.5167 17.3949 12.0517 17.2528 12.5268 16.9672C13.0104 16.6744 13.4051 16.2553 13.6686 15.7551C13.9417 15.243 14.0789 14.6725 14.0789 14.0427C14.0789 13.413 13.9417 12.8473 13.6679 12.3485C13.4075 11.8506 13.012 11.4363 12.5268 11.1531C12.0517 10.8563 11.5167 10.7072 10.9217 10.7072C10.3275 10.7072 9.78623 10.8563 9.29858 11.1531C8.81874 11.4431 8.42485 11.8557 8.15749 12.3485C7.8844 12.8473 7.74786 13.4123 7.74786 14.0427C7.74786 14.6732 7.8844 15.243 8.15749 15.7544C8.42793 16.2498 8.82109 16.6674 9.29928 16.9672C9.78692 17.2528 10.3275 17.3949 10.9224 17.3949H10.9217Z" fill="white"/>
</g>
<defs>
<clipPath id="clip0_1265_22070">
<rect width="24" height="24" fill="white"/>
</clipPath>
</defs>
</svg>