<svg viewBox="0 0 24 24" fill="none" xmlns="http://www.w3.org/2000/svg">
<g clip-path="url(#clip0_1265_22066)">
<path d="M12 24C18.6274 24 24 18.6274 24 12C24 5.37258 18.6274 0 12 0C5.37258 0 0 5.37258 0 12C0 18.6274 5.37258 24 12 24Z" fill="#E9570F"/>
<path d="M17.2967 8.04543L18.3417 7.00883C18.5888 6.76432 18.5375 6.3169 18.2286 6.01061C17.9197 5.70366 17.4677 5.65359 17.2212 5.89875L15.2599 7.84318L15.1929 7.91016L13.4839 9.60422C12.9158 9.19458 12.221 8.99923 11.5227 9.05279C10.8243 9.10636 10.1675 9.40537 9.66852 9.89686C9.17364 10.3871 8.87153 11.0389 8.81733 11.7334C8.76313 12.4279 8.96045 13.1187 9.37328 13.6797L8.06875 14.9738C7.73038 14.5229 7.4691 14.019 7.29553 13.4827C6.85787 12.1573 6.97558 10.7059 7.68572 9.50928C8.7932 7.64289 10.7747 6.8313 12.6528 7.06931C12.7474 7.08257 12.8437 7.07622 12.9357 7.05065C13.0277 7.02508 13.1135 6.98085 13.1876 6.9207C13.2618 6.86055 13.3228 6.78577 13.3669 6.70103C13.4109 6.61628 13.437 6.52338 13.4436 6.42811C13.4559 6.20951 13.3834 5.99458 13.2412 5.82812C13.0989 5.66166 12.898 5.55651 12.6801 5.53458C10.7936 5.34144 8.84327 5.95728 7.40283 7.38536C5.01619 9.75119 4.87637 13.5041 6.97363 16.0592L5.77706 17.246C5.54099 17.4801 5.59952 17.9191 5.90907 18.2254C6.21797 18.5317 6.66018 18.5909 6.89624 18.3568L8.18451 17.0795H8.18516L9.1164 16.1561L9.11835 16.1535L10.6284 14.6565C11.1653 14.8752 11.7546 14.9316 12.3233 14.8188C12.892 14.706 13.4151 14.4289 13.8279 14.0218C14.2377 13.6163 14.5175 13.098 14.6316 12.5329C14.7457 11.9679 14.6889 11.3816 14.4685 10.8489L16.1814 9.15096C17.4371 11.0421 17.1881 13.6602 15.4595 15.3731C14.9398 15.891 14.3149 16.2912 13.6272 16.5469C12.9395 16.8026 12.2049 16.9077 11.4731 16.8552C11.3084 16.8457 11.1464 16.9007 11.0214 17.0085C10.8964 17.1162 10.8182 17.2683 10.8033 17.4327L10.7851 17.6408C10.7769 17.7318 10.7873 17.8235 10.8156 17.9104C10.844 17.9973 10.8897 18.0775 10.9499 18.1462C11.0102 18.215 11.0838 18.2707 11.1662 18.3101C11.2487 18.3496 11.3382 18.3718 11.4296 18.3756C12.3677 18.426 13.3059 18.2785 14.1833 17.9429C15.0607 17.6072 15.8578 17.0909 16.5228 16.4273C18.862 14.1076 19.1325 10.5348 17.2967 8.04478V8.04543ZM12.7438 12.9455C12.4786 13.2068 12.1212 13.3533 11.7489 13.3533C11.3765 13.3533 11.0191 13.2068 10.7539 12.9455C10.6236 12.8164 10.5202 12.6628 10.4497 12.4936C10.3791 12.3243 10.3428 12.1427 10.3428 11.9593C10.3428 11.7759 10.3791 11.5944 10.4497 11.4251C10.5202 11.2558 10.6236 11.1022 10.7539 10.9731C11.019 10.7116 11.3765 10.5651 11.7489 10.5651C12.1213 10.5651 12.4787 10.7116 12.7438 10.9731C12.8741 11.1022 12.9775 11.2558 13.0481 11.4251C13.1186 11.5944 13.155 11.7759 13.155 11.9593C13.155 12.1427 13.1186 12.3243 13.0481 12.4936C12.9775 12.6628 12.8741 12.8164 12.7438 12.9455Z" fill="white"/>
</g>
<defs>
<clipPath id="clip0_1265_22066">
<rect width="24" height="24" fill="white"/>
</clipPath>
</defs>
</svg>