<svg viewBox="0 0 24 24" fill="none" xmlns="http://www.w3.org/2000/svg">
<g clip-path="url(#clip0_1265_22062)">
<path d="M12 24C18.6274 24 24 18.6274 24 12C24 5.37258 18.6274 0 12 0C5.37258 0 0 5.37258 0 12C0 18.6274 5.37258 24 12 24Z" fill="#5BC1D4"/>
<path fill-rule="evenodd" clip-rule="evenodd" d="M10.4495 12.6497L9.2945 13.8565C9.0866 14.0735 8.8829 14.2926 8.6743 14.5082C8.6393 14.5446 8.5896 14.5663 8.5469 14.595C8.4559 14.5803 8.3859 14.5236 8.374 14.441C8.35467 14.3153 8.3374 14.1893 8.3222 14.063C8.3012 13.8964 8.2501 13.8502 8.0814 13.8292C7.7335 13.7872 7.3863 13.7417 7.0384 13.6962L6.2446 13.5933C6.0864 13.5723 6.029 13.4589 6.1116 13.3238C6.302 13.0172 6.4938 12.712 6.6849 12.4068L7.8539 10.5392C7.9001 10.4636 7.9519 10.4118 8.0513 10.4146C8.1143 10.416 8.1801 10.4006 8.2424 10.3845C8.3166 10.3663 8.3747 10.3887 8.4265 10.4377C8.5182 10.5238 8.6113 10.6092 8.7023 10.696L9.7579 11.6977C9.9854 11.9133 10.215 12.1275 10.4425 12.3431C10.5601 12.4537 10.5601 12.5335 10.4495 12.6497ZM18.2125 14.273C18.2783 14.3276 18.3497 14.3794 18.3637 14.4725C18.3812 14.5915 18.3336 14.6776 18.2328 14.7427C17.6378 15.1277 17.0428 15.5148 16.4478 15.9005L15.2977 16.646C15.2614 16.669 15.2268 16.6945 15.1941 16.7223C15.1651 16.7461 15.1421 16.7764 15.1269 16.8107C15.1117 16.8449 15.1048 16.8823 15.1066 16.9197C15.1122 17.0632 15.1206 17.2067 15.1227 17.3495C15.1248 17.514 15.0037 17.6169 14.8385 17.598C14.779 17.5902 14.7249 17.5593 14.688 17.5119C14.5496 17.3523 14.4115 17.1925 14.2736 17.0324C14.1007 16.8322 13.9285 16.6306 13.7549 16.4311C13.7191 16.3954 13.692 16.352 13.6757 16.3042C13.6593 16.2564 13.6541 16.2055 13.6604 16.1553L13.6842 15.3188C13.687 15.2208 13.7451 15.1578 13.8235 15.1074L14.7741 14.4998C15.3061 14.1603 15.8395 13.8222 16.3701 13.4792C16.4821 13.4071 16.5864 13.3854 16.7096 13.4484C16.8006 13.4946 16.9035 13.503 17.0022 13.4722C17.1499 13.4253 17.2633 13.4666 17.3774 13.5674C17.6504 13.8082 17.9339 14.0378 18.2132 14.273H18.2125ZM13.1039 14.9674C13.1471 15.0097 13.1779 15.0629 13.1928 15.1214C13.2187 15.2523 13.1669 15.3412 13.0437 15.4007C12.6342 15.5981 12.2254 15.7976 11.8124 15.9887C11.7382 16.0223 11.6451 16.0265 11.5604 16.0307C11.2181 16.0461 10.8758 16.0552 10.5335 16.0692C10.3312 16.0769 10.1296 16.0896 9.9434 16.0993H9.8062C9.77517 16.1001 9.74429 16.0946 9.71543 16.0832C9.68656 16.0718 9.6603 16.0547 9.6382 16.0328C9.5948 15.9929 9.55 15.9544 9.5073 15.9138C9.2665 15.6849 9.0299 15.4518 8.7842 15.2278C8.647 15.1032 8.6449 14.9359 8.7758 14.8022C9.0705 14.4984 9.3617 14.1918 9.6543 13.8852C9.97 13.5548 10.2857 13.223 10.6007 12.8912C10.6246 12.8631 10.654 12.8402 10.6871 12.8239C10.7202 12.8075 10.7563 12.7982 10.7932 12.7963C10.83 12.7945 10.8669 12.8002 10.9014 12.8132C10.936 12.8261 10.9675 12.846 10.9941 12.8716L12.2541 14.1239C12.5369 14.4053 12.8225 14.6839 13.1039 14.9674ZM14.8385 9.33315C14.7034 9.12455 14.856 8.83615 15.0807 8.79905C15.6813 8.69895 16.2798 8.58415 16.8797 8.47985C17.012 8.45675 17.117 8.51765 17.1898 8.62685C17.3158 8.81585 17.4397 9.00555 17.5643 9.19525C17.8275 9.59425 18.0914 9.99325 18.3518 10.3936C18.3868 10.4475 18.4043 10.5126 18.4302 10.5721L18.4148 10.5791C18.4105 10.6813 18.3726 10.7793 18.307 10.8577C17.9402 11.3505 17.5692 11.8412 17.2031 12.3347C17.1686 12.3785 17.1238 12.4132 17.0729 12.4359C17.0219 12.4585 16.9661 12.4683 16.9105 12.4645C16.8548 12.4607 16.801 12.4434 16.7535 12.4141C16.7061 12.3848 16.6665 12.3443 16.6382 12.2962C16.1027 11.4072 15.5616 10.521 15.0226 9.63415C14.9617 9.53335 14.9022 9.43115 14.8385 9.33315ZM13.785 11.8055L13.68 12.74C13.6506 12.999 13.6191 13.2566 13.5897 13.5156L13.4861 14.4256C13.4791 14.4893 13.4784 14.5544 13.4651 14.616C13.4581 14.6461 13.4357 14.6846 13.4105 14.6944C13.3853 14.7043 13.3405 14.6902 13.3181 14.6713C13.2187 14.5852 13.1242 14.4942 13.029 14.4039C12.686 14.0791 12.3451 13.7536 12.0021 13.4302C11.7039 13.1481 11.405 12.8681 11.1054 12.5881C11.006 12.4957 11.0053 12.4663 11.1012 12.3662L12.4718 10.9312L13.4077 9.94845L13.8669 9.46545C13.8802 9.45145 13.8914 9.43255 13.9075 9.42695C13.9404 9.41505 13.981 9.39895 14.0097 9.40805C14.0335 9.41645 14.0447 9.45915 14.0517 9.47105L13.9817 10.087L13.8914 10.8787L13.785 11.8055ZM16.4492 12.5195C16.494 12.5916 16.501 12.6602 16.452 12.7351C16.3986 12.8192 16.3758 12.9191 16.3876 13.0179C16.396 13.1061 16.3596 13.16 16.2847 13.2069C15.6988 13.5786 15.1157 13.9531 14.5319 14.3269C14.3485 14.4445 14.1651 14.5615 13.981 14.6776C13.9082 14.7239 13.8333 14.7203 13.7934 14.6615C13.771 14.6293 13.7682 14.5845 13.7619 14.5621L13.8389 13.9965L14.0104 12.7491L14.1994 11.3841L14.3835 10.0492L14.4535 9.55225C14.4549 9.53895 14.4556 9.52355 14.4626 9.51375C14.4808 9.49065 14.5011 9.45635 14.5242 9.45215C14.5494 9.44795 14.5886 9.46755 14.6047 9.48925C14.6474 9.54665 14.6817 9.61035 14.7195 9.67195L16.088 11.9231C16.2084 12.1219 16.3274 12.3214 16.4492 12.5188V12.5195ZM13.6121 9.08675C13.6338 9.10075 13.6758 9.11545 13.6982 9.14555C13.7325 9.19175 13.7024 9.23515 13.6667 9.27225L13.1907 9.77275L11.8033 11.2245C11.5135 11.529 11.2251 11.8349 10.9353 12.1387C10.8303 12.2479 10.7463 12.2479 10.6371 12.1443C10.299 11.8237 9.9609 11.5017 9.6221 11.1818C9.2931 10.871 8.9627 10.5609 8.6323 10.2508C8.5882 10.2088 8.5532 10.1633 8.5581 10.0989C8.5651 10.0114 8.6155 9.96175 8.7156 9.94495C8.8983 9.91205 9.0817 9.87985 9.2651 9.84835L11.0256 9.54035L13.1046 9.17565L13.6121 9.08675ZM8.8948 9.52915C9.221 9.30585 9.5472 9.08395 9.8741 8.86205L13.0311 6.71165C13.1361 6.64025 13.2026 6.65495 13.2551 6.76835C13.4728 7.23455 13.6891 7.70145 13.9061 8.16835C13.9341 8.22855 13.9607 8.28945 13.9894 8.35035C14.0125 8.39935 13.9971 8.43925 13.9677 8.48335C13.9295 8.5374 13.8971 8.59536 13.8711 8.65625C13.848 8.71435 13.813 8.74585 13.75 8.75705C13.2852 8.83965 12.8211 8.92505 12.357 9.00765L10.7092 9.30375L8.9102 9.62715C8.885 9.63135 8.8591 9.62715 8.8332 9.62715L8.8178 9.59845C8.8437 9.57535 8.8668 9.54875 8.8948 9.52915ZM5.6118 10.5973C5.406 10.5931 5.2835 10.3929 5.3822 10.2088C5.4655 10.0534 5.5579 9.90365 5.6475 9.75175C5.9051 9.31145 6.1641 8.87255 6.4203 8.43225C6.46211 8.36035 6.52257 8.30109 6.5953 8.26075C7.2785 7.86805 7.9603 7.47325 8.6435 7.07985C8.68687 7.05331 8.73445 7.03437 8.7842 7.02385C8.83083 7.01464 8.87914 7.01928 8.92318 7.03719C8.96721 7.0551 9.00504 7.0855 9.032 7.12465C9.06182 7.1629 9.07994 7.20896 9.08416 7.25728C9.08838 7.3056 9.07853 7.3541 9.0558 7.39695C8.9529 7.61675 8.8458 7.83445 8.7408 8.05285C8.5448 8.45325 8.3488 8.85295 8.1549 9.25405C8.13654 9.29838 8.10793 9.33773 8.07143 9.36888C8.03493 9.40003 7.99157 9.42209 7.9449 9.43325C7.85807 9.45395 7.77864 9.49825 7.7154 9.56125C7.65215 9.62425 7.60754 9.7035 7.5865 9.79025C7.57587 9.83309 7.55417 9.87238 7.52358 9.9042C7.49299 9.93601 7.45459 9.95924 7.4122 9.97155C6.8508 10.1689 6.2901 10.3705 5.7294 10.57C5.6916 10.584 5.6517 10.5882 5.6125 10.598L5.6118 10.5973ZM8.5189 9.31915C8.52168 9.28994 8.52974 9.26148 8.5427 9.23515L9.2763 7.62725C9.4289 7.29265 9.5836 6.95875 9.7341 6.62345C9.7691 6.54645 9.8202 6.50795 9.907 6.50445C10.1359 6.49745 10.3648 6.48555 10.5937 6.47645L11.9447 6.42535C12.1029 6.41835 12.2618 6.40785 12.4207 6.40015C12.5341 6.39525 12.6118 6.46385 12.6125 6.57515C12.6174 6.64305 12.574 6.68715 12.518 6.72565L12.0854 7.02035L9.4996 8.77945L8.6736 9.34225C8.65434 9.35681 8.63371 9.36947 8.612 9.38005C8.563 9.40105 8.5161 9.37165 8.5189 9.31915ZM7.5648 10.4741C7.4507 10.6582 7.3352 10.8409 7.2204 11.0243C6.7913 11.7103 6.3622 12.397 5.9324 13.0823C5.91467 13.1152 5.89093 13.1444 5.8624 13.1684C5.7882 13.2216 5.6895 13.1845 5.6545 13.0914C5.5985 12.9416 5.5453 12.7904 5.4914 12.6399L5.0231 11.3225C5.0119 11.2896 5.0042 11.256 5 11.2399C5.0007 11.151 5.0301 11.1132 5.1134 11.0859C5.3626 11.0054 5.6118 10.9263 5.861 10.8472L7.2715 10.3992L7.457 10.3418C7.5011 10.3278 7.5452 10.3089 7.5816 10.3579C7.6145 10.402 7.5872 10.4384 7.5648 10.4741ZM18.8474 12.3004L18.9888 13.1096C18.993 13.1355 18.9958 13.1621 19 13.1964C18.993 13.2314 18.9853 13.2734 18.9741 13.314L18.7886 13.9832C18.7354 14.1757 18.5828 14.2212 18.4288 14.091C18.1131 13.825 17.796 13.559 17.4789 13.2944C17.4068 13.2342 17.3767 13.1649 17.3935 13.0697C17.4141 12.975 17.4027 12.876 17.3613 12.7883C17.3179 12.7022 17.3319 12.6259 17.3886 12.5503C17.6476 12.2031 17.9045 11.8545 18.1628 11.5073L18.3203 11.2945C18.3728 11.2224 18.4421 11.1874 18.5303 11.207C18.6227 11.228 18.6703 11.291 18.6857 11.3813L18.8467 12.3004H18.8474ZM13.5526 6.73965L13.5386 6.71025C13.5197 6.66825 13.512 6.61925 13.5547 6.59545C13.5922 6.57865 13.6345 6.57616 13.6737 6.58845C13.7353 6.60735 13.7906 6.64235 13.8487 6.67105L16.2021 7.84635L16.62 8.05635C16.6669 8.07945 16.704 8.10675 16.6942 8.16555C16.6844 8.22365 16.6403 8.23625 16.5892 8.24535C16.0236 8.34615 15.4587 8.44835 14.8938 8.54985L14.8385 8.56105C14.8224 8.55055 14.7916 8.53865 14.772 8.51625C14.7217 8.45295 14.6583 8.40123 14.5862 8.36463C14.5141 8.32803 14.4349 8.3074 14.3541 8.30415C14.2911 8.30135 14.2589 8.26425 14.2351 8.21175C14.1357 7.99615 14.0342 7.78195 13.9341 7.56705L13.5526 6.73965Z" fill="white"/>
</g>
<defs>
<clipPath id="clip0_1265_22062">
<rect width="24" height="24" fill="white"/>
</clipPath>
</defs>
</svg>