<svg width="24" height="24" viewBox="0 0 24 24" fill="none" xmlns="http://www.w3.org/2000/svg">
<g clip-path="url(#clip0_1265_22058)">
<path d="M12 24C18.6274 24 24 18.6274 24 12C24 5.37258 18.6274 0 12 0C5.37258 0 0 5.37258 0 12C0 18.6274 5.37258 24 12 24Z" fill="#136485"/>
<path fill-rule="evenodd" clip-rule="evenodd" d="M9.51164 18.8965C8.57259 18.5476 7.71702 18.0059 7 17.3063L7.06588 17.1911C8.13615 15.5001 9.09751 13.7499 9.82133 11.8801C10.5891 9.89688 11.2035 7.86122 11.7889 5.81749C11.8413 5.63508 11.9036 5.45581 11.961 5.27519C12.0228 5.346 12.0452 5.41188 12.0641 5.47866C12.4316 6.79006 12.787 8.10504 13.1684 9.41195C13.8631 11.7932 14.8401 14.052 16.134 16.1693C16.2851 16.4158 16.5419 16.829 16.9049 17.4071C16.1321 18.1315 15.2084 18.6755 14.2001 19C13.457 16.7323 12.7098 14.466 11.9583 12.201L11.8893 12.2001C11.3667 13.6688 10.5743 15.9008 9.51164 18.8965ZM12.039 5.02196H11.9834L12.0053 5L12.039 5.02196Z" fill="white"/>
</g>
<defs>
<clipPath id="clip0_1265_22058">
<rect width="24" height="24" fill="white"/>
</clipPath>
</defs>
</svg>
