<svg width="24" height="24" viewBox="0 0 24 24" fill="none" xmlns="http://www.w3.org/2000/svg">
<g clip-path="url(#clip0_1265_22054)">
<path d="M12 24C18.6274 24 24 18.6274 24 12C24 5.37258 18.6274 0 12 0C5.37258 0 0 5.37258 0 12C0 18.6274 5.37258 24 12 24Z" fill="#2ED6A1"/>
<path d="M11.1548 13.7531H14.6175C14.9248 13.7522 15.2289 13.6908 15.5125 13.5723C15.7961 13.4538 16.0535 13.2807 16.2702 13.0627C16.4868 12.8448 16.6584 12.5863 16.7751 12.302C16.8919 12.0178 16.9515 11.7133 16.9506 11.406C16.9522 10.7855 16.7074 10.1897 16.2699 9.74973C15.8324 9.30972 15.238 9.06149 14.6175 9.05963H13.516L11.1548 7H14.6175C15.636 7.00243 16.6219 7.35902 17.4063 8.00864C18.1907 8.65826 18.7248 9.56048 18.917 10.5607C19.1132 11.5614 18.9567 12.5993 18.474 13.4976C17.9914 14.396 17.2125 15.0995 16.2698 15.4884L19 17.8716H15.8733L11.1548 13.7523V13.7531ZM12.8446 11.1208H9.38188C8.76152 11.1227 8.16729 11.3708 7.72981 11.8106C7.29232 12.2505 7.04739 12.846 7.04884 13.4664C7.04718 14.0869 7.29202 14.6826 7.72953 15.1227C8.16704 15.5627 8.76139 15.8109 9.38188 15.8128H10.4842L12.8438 17.8732H9.38188C8.3634 17.8707 7.37748 17.5141 6.59307 16.8645C5.80866 16.2149 5.27461 15.3127 5.08245 14.3125C4.88623 13.3117 5.04274 12.2739 5.52536 11.3755C6.00797 10.4771 6.78689 9.77365 7.72964 9.38475L5.00175 7H8.1284L12.8446 11.1208Z" fill="white"/>
</g>
<defs>
<clipPath id="clip0_1265_22054">
<rect width="24" height="24" fill="white"/>
</clipPath>
</defs>
</svg>
