<svg width="24" height="24" viewBox="0 0 24 24" fill="none" xmlns="http://www.w3.org/2000/svg">
<path d="M12 24C18.6274 24 24 18.6274 24 12C24 5.37258 18.6274 0 12 0C5.37258 0 0 5.37258 0 12C0 18.6274 5.37258 24 12 24Z" fill="white"/>
<path d="M12 22.23C17.6499 22.23 22.23 17.6499 22.23 12C22.23 6.35015 17.6499 1.77002 12 1.77002C6.35015 1.77002 1.77002 6.35015 1.77002 12C1.77002 17.6499 6.35015 22.23 12 22.23Z" fill="#DE5833"/>
<path fill-rule="evenodd" clip-rule="evenodd" d="M0 12C0 18.6274 5.37258 24 12 24C18.6242 23.9923 23.9923 18.6242 24 12C24 5.37258 18.6274 0 12 0C5.37258 0 0 5.37258 0 12ZM0.999976 12C0.999976 5.92492 5.92484 1.00005 12 1.00005C18.0724 1.00666 22.9934 5.92766 23 12C23 18.0752 18.0751 23 12 23C5.92484 23 0.999976 18.0752 0.999976 12Z" fill="#DE5833"/>
<path d="M13.6721 6.34995C13.2216 5.95408 12.6657 5.69768 12.0721 5.61195C11.7416 5.19897 11.3227 4.86544 10.8461 4.63595C9.74708 4.05999 8.4914 3.85446 7.2661 4.04995H7.2081H7.2001C7.0541 4.07795 6.9641 4.12995 6.8421 4.14995C7.20408 4.26627 7.55816 4.4059 7.9021 4.56795C7.7281 4.63395 7.4901 4.67395 7.3021 4.74995C7.23347 4.76172 7.16638 4.78118 7.1021 4.80795C6.92495 4.92663 6.81328 5.12113 6.8001 5.33395C7.8068 5.24033 8.82211 5.32358 9.8001 5.57995C9.2238 5.6471 8.66275 5.81001 8.1401 6.06195C8.12279 6.07008 8.10608 6.07944 8.0901 6.08995C8.03861 6.1084 7.98849 6.13046 7.9401 6.15595C6.5721 6.87595 5.9661 8.55595 6.3261 10.582C6.6381 12.422 8.0001 18.716 8.6001 21.664C8.7801 21.728 8.9641 21.786 9.1481 21.838C10.0731 22.1049 11.0313 22.2396 11.9941 22.238C12.6282 22.2374 13.2608 22.1785 13.8841 22.062C14.0681 22.026 14.2521 21.988 14.4341 21.944C14.0161 21.144 13.6341 20.408 13.3761 19.902C12.5761 18.316 11.7901 16.08 12.1501 14.638C12.2181 14.376 12.2181 13.304 12.4361 13.162C14.1181 12.064 13.9981 13.126 14.6741 12.634C15.0277 12.4011 15.2915 12.0547 15.4221 11.652C15.8601 10.14 14.8261 7.50395 13.6721 6.34995Z" fill="white"/>
<path d="M7.20004 4.06006C7.05404 4.08806 6.96404 4.14006 6.84204 4.16006C7.20402 4.27638 7.5581 4.416 7.90204 4.57806C7.9478 4.56206 7.99145 4.54057 8.03204 4.51406C7.84004 4.48606 7.40004 4.08006 7.20004 4.06006Z" fill="#D5D7D8"/>
<path d="M7.01605 5.09401C7.01605 4.92401 7.13605 4.82801 7.29605 4.76001C7.22742 4.77178 7.16033 4.79123 7.09605 4.81801C6.92384 4.93585 6.81484 5.12586 6.80005 5.33401C7.80674 5.24038 8.82206 5.32364 9.80005 5.58001L10 5.55201C9.06053 5.14803 8.03348 4.99039 7.01605 5.09401Z" fill="#D5D7D8"/>
<path d="M8.07204 6.09009C8.02055 6.10854 7.97042 6.13059 7.92204 6.15609C6.55404 6.87609 5.94804 8.55609 6.30804 10.5821C6.63804 12.4221 8.00004 18.7161 8.60004 21.6641C8.78004 21.7281 8.96404 21.7861 9.14804 21.8381C8.60004 19.1881 7.10204 12.2001 6.75004 10.2441C6.40004 8.25009 6.74404 6.82009 8.07204 6.09009Z" fill="#D5D7D8"/>
<path d="M9.43193 9.896C9.32148 9.896 9.23193 9.98554 9.23193 10.096C9.23193 10.2065 9.32148 10.296 9.43193 10.296C9.54239 10.296 9.63193 10.2065 9.63193 10.096C9.63193 9.98554 9.54239 9.896 9.43193 9.896Z" fill="white"/>
<path d="M14.4461 9.84796C14.5389 9.84796 14.6141 9.77275 14.6141 9.67996C14.6141 9.58718 14.5389 9.51196 14.4461 9.51196C14.3533 9.51196 14.2781 9.58718 14.2781 9.67996C14.2781 9.77275 14.3533 9.84796 14.4461 9.84796Z" fill="white"/>
<path d="M9.31004 8.1501C9.31004 8.1501 8.92804 7.6461 8.14204 7.9681C7.35604 8.2901 7.65204 8.9461 7.65204 8.9461C7.65204 8.9461 7.63204 8.5901 8.18604 8.2421C8.52551 8.03672 8.9417 8.00266 9.31004 8.1501Z" fill="white"/>
<path d="M14.55 8.09792C14.4381 7.85129 14.2151 7.67293 13.95 7.61792C14.01 7.71592 14.068 7.81792 14.126 7.91992C14.2726 7.96574 14.4146 8.02534 14.55 8.09792Z" fill="white"/>
<path d="M12.988 8.16589C12.988 8.16589 13.166 7.87589 13.82 7.86789C13.9241 7.86973 14.0272 7.88726 14.126 7.91989C14.068 7.81589 14.01 7.71989 13.95 7.61789H13.934C13.098 7.47589 12.988 8.16589 12.988 8.16589Z" fill="white"/>
<path fill-rule="evenodd" clip-rule="evenodd" d="M8.39423 10.0544C8.51219 9.77125 8.7892 9.58708 9.09596 9.58789C9.29681 9.58789 9.48941 9.66782 9.63124 9.81003C9.77308 9.95224 9.85249 10.145 9.85196 10.3459C9.85196 10.6527 9.66706 10.9292 9.38357 11.0464C9.10008 11.1636 8.77389 11.0984 8.55726 10.8812C8.34064 10.664 8.27628 10.3376 8.39423 10.0544ZM9.23203 10.0897C9.23203 10.2002 9.32157 10.2897 9.43203 10.2897C9.48507 10.2897 9.53595 10.2687 9.57345 10.2312C9.61096 10.1937 9.63203 10.1428 9.63203 10.0897C9.63203 9.97929 9.54249 9.88975 9.43203 9.88975C9.32157 9.88975 9.23203 9.97929 9.23203 10.0897Z" fill="url(#paint0_linear_112_5729)"/>
<path fill-rule="evenodd" clip-rule="evenodd" d="M13.5485 9.64187C13.6524 9.39834 13.8933 9.24187 14.1581 9.24593C14.5135 9.25138 14.7991 9.54049 14.8001 9.89593C14.8009 10.1607 14.6414 10.3997 14.3966 10.5006C14.1518 10.6016 13.8703 10.5444 13.6842 10.356C13.4982 10.1676 13.4445 9.88541 13.5485 9.64187ZM14.28 9.67673C14.2792 9.76925 14.3534 9.84495 14.446 9.84605V9.84805C14.4912 9.84859 14.5348 9.83085 14.5668 9.79885C14.5988 9.76685 14.6165 9.7233 14.616 9.67805C14.6159 9.58552 14.5411 9.51042 14.4486 9.51006C14.3561 9.5097 14.2807 9.58421 14.28 9.67673Z" fill="url(#paint1_linear_112_5729)"/>
<path d="M9.31004 8.1501C9.31004 8.1501 8.92804 7.6461 8.14204 7.9681C7.35604 8.2901 7.65204 8.9461 7.65204 8.9461C7.65204 8.9461 7.63204 8.5901 8.18604 8.2421C8.52551 8.03672 8.9417 8.00266 9.31004 8.1501Z" fill="url(#paint2_linear_112_5729)"/>
<path d="M14.126 7.92011C14.2727 7.96593 14.4146 8.02553 14.55 8.09811C14.4382 7.85148 14.2152 7.67313 13.95 7.61811H13.934C13.098 7.47811 12.988 8.16811 12.988 8.16811C12.988 8.16811 13.166 7.87811 13.82 7.87011C13.924 7.87131 14.0271 7.88816 14.126 7.92011Z" fill="url(#paint3_linear_112_5729)"/>
<path d="M11.4141 13.2661C11.4901 12.8081 12.6741 11.9421 13.5121 11.8881C14.3501 11.8341 14.6141 11.8481 15.3121 11.6881C16.0101 11.5281 17.8181 11.0701 18.3121 10.8401C18.8061 10.6101 20.9341 10.9541 19.4381 11.7881C18.8001 12.1421 17.0581 12.8001 15.8121 13.1761C14.5661 13.5521 13.8121 12.8221 13.4001 13.4321C13.0721 13.9201 13.3341 14.5861 14.8201 14.7241C16.8201 14.9101 18.7521 13.8201 18.9641 14.3981C19.1761 14.9761 17.2381 15.7001 16.0581 15.7241C14.8781 15.7481 12.5041 14.9441 12.1481 14.6961C11.7921 14.4481 11.3141 13.8701 11.4141 13.2661Z" fill="#FDD20A"/>
<path d="M15.754 17.868C15.416 17.792 14.12 18.706 13.612 19.068C13.5972 19.0045 13.5792 18.9417 13.558 18.88C13.476 18.68 12.232 18.792 11.9 19.102C11.112 18.702 9.50002 17.962 9.45602 18.424C9.40802 19.024 9.45602 21.526 9.78402 21.714C10.024 21.85 11.34 21.138 12.034 20.742L12.1 20.762C12.522 20.858 13.322 20.762 13.604 20.574C13.6339 20.551 13.6573 20.5207 13.672 20.486C14.314 20.734 15.614 21.208 15.894 21.106C16.27 20.97 16.176 17.964 15.754 17.868Z" fill="#65BC46"/>
<path d="M11.64 19.4839C11.64 20.4719 11.498 20.8839 11.922 20.9879C12.346 21.0919 13.142 20.9879 13.426 20.8019C13.71 20.6159 13.472 19.3459 13.378 19.1079C13.284 18.8699 11.64 19.0619 11.64 19.4839Z" fill="#43A244"/>
<defs>
<linearGradient id="paint0_linear_112_5729" x1="8.33796" y1="11.3849" x2="10.416" y2="11.3849" gradientUnits="userSpaceOnUse">
<stop offset="0.01" stop-color="#6176B9"/>
<stop offset="0.69" stop-color="#394A9F"/>
</linearGradient>
<linearGradient id="paint1_linear_112_5729" x1="13.5081" y1="10.7889" x2="15.2941" y2="10.7889" gradientUnits="userSpaceOnUse">
<stop offset="0.01" stop-color="#6176B9"/>
<stop offset="0.69" stop-color="#394A9F"/>
</linearGradient>
<linearGradient id="paint2_linear_112_5729" x1="7.59804" y1="9.14883" x2="9.94804" y2="9.14883" gradientUnits="userSpaceOnUse">
<stop offset="0.01" stop-color="#6176B9"/>
<stop offset="0.69" stop-color="#394A9F"/>
</linearGradient>
<linearGradient id="paint3_linear_112_5729" x1="12.988" y1="8.27208" x2="15.13" y2="8.27208" gradientUnits="userSpaceOnUse">
<stop offset="0.01" stop-color="#6176B9"/>
<stop offset="0.69" stop-color="#394A9F"/>
</linearGradient>
</defs>
</svg>
