<svg viewBox="0 0 24 24" fill="none" xmlns="http://www.w3.org/2000/svg">
<g clip-path="url(#clip0_1265_22050)">
<path d="M12 24C18.6274 24 24 18.6274 24 12C24 5.37258 18.6274 0 12 0C5.37258 0 0 5.37258 0 12C0 18.6274 5.37258 24 12 24Z" fill="#939393"/>
<path fill-rule="evenodd" clip-rule="evenodd" d="M10.747 14.2985C10.9967 14.1363 12.675 13.108 14.3102 12.1064C15.489 11.3853 15.489 11.3853 15.4685 11.3148C15.448 11.2293 8.14784 6.79309 8.07327 6.74862C7.9346 6.66673 7.79729 6.58256 7.66139 6.49616C7.79549 6.40311 8.05616 6.22523 8.36815 6.01313L9.12758 5.5L9.64892 5.81198C10.292 6.19649 17.3527 10.5273 18.342 11.1438C17.9384 11.3866 16.5085 12.233 14.5859 13.3653L10.7662 15.6162C10.7592 15.4169 10.7546 15.2176 10.7525 15.0182C10.7482 14.7786 10.7466 14.5389 10.7477 14.2992L10.747 14.2985ZM9.1269 9.99092C9.25347 10.0662 9.4724 10.1982 9.74197 10.3658L10.446 10.8024L10.461 12.1228C10.5055 15.9385 10.5055 15.9385 10.5609 15.9774L10.5979 16.0028L10.6389 15.9877C10.6594 15.9816 10.667 15.9788 18.0766 11.6076L18.4734 11.3736L18.3427 13.2093L18.2948 13.2366C15.244 14.9891 12.1905 16.7369 9.13442 18.4802C9.13169 18.0019 9.12758 16.3695 9.1269 14.241V9.99092ZM7.52661 17.6783L7.54372 6.75409L7.80918 6.91077C8.02264 7.03529 9.46214 7.91308 11.0884 8.90787C12.253 9.62184 13.4192 10.3329 14.5873 11.0411L15.0765 11.3353L13.4591 12.3246L13.1362 12.1365C12.4884 11.7453 11.843 11.3503 11.1999 10.9515C10.5729 10.5626 9.94344 10.1777 9.31162 9.79662L8.86554 9.53663L8.86212 14.1678C8.86075 16.2573 8.8587 17.9937 8.85733 18.5C8.72529 18.42 8.50019 18.2811 8.2361 18.1169L7.52661 17.6783Z" fill="white"/>
</g>
<defs>
<clipPath id="clip0_1265_22050">
<rect width="24" height="24" fill="white"/>
</clipPath>
</defs>
</svg>