<svg viewBox="0 0 32 32" fill="none" xmlns="http://www.w3.org/2000/svg">
<rect width="32" height="32" rx="16" fill="#65C7E5"/>
<path d="M13.5066 18.537H10.4486L9.94255 20H8.32555L11.0866 12.311H12.8796L15.6406 20H14.0126L13.5066 18.537ZM13.0886 17.305L11.9776 14.093L10.8666 17.305H13.0886ZM20.6326 20L18.9386 17.008H18.2126V20H16.6726V12.322H19.5546C20.1486 12.322 20.6546 12.4283 21.0726 12.641C21.4906 12.8463 21.8022 13.1287 22.0076 13.488C22.2202 13.84 22.3266 14.236 22.3266 14.676C22.3266 15.182 22.1799 15.6403 21.8866 16.051C21.5932 16.4543 21.1569 16.733 20.5776 16.887L22.4146 20H20.6326ZM18.2126 15.853H19.4996C19.9176 15.853 20.2292 15.754 20.4346 15.556C20.6399 15.3507 20.7426 15.0683 20.7426 14.709C20.7426 14.357 20.6399 14.0857 20.4346 13.895C20.2292 13.697 19.9176 13.598 19.4996 13.598H18.2126V15.853Z" fill="currentColor"/>
</svg>