<svg viewBox="0 0 24 24" fill="none" xmlns="http://www.w3.org/2000/svg">
<path fill-rule="evenodd" clip-rule="evenodd" d="M21.3255 17.6307L13.2096 21.844C13.0547 21.9341 12.884 21.9992 12.7141 22C12.7132 22 12.7124 22 12.7124 22C12.7116 22 12.7116 22 12.7107 22C12.6017 22 12.4926 21.9791 12.386 21.9332L2.49965 17.6558C2.19569 17.5239 2 17.2235 2 16.8897V7.11063C2 7.08643 2.01499 7.06641 2.01665 7.04304C2.02498 6.94791 2.0458 6.85779 2.08411 6.77101C2.10159 6.73345 2.12075 6.70091 2.1424 6.6667C2.18903 6.5941 2.24649 6.53235 2.31394 6.47644C2.3356 6.45808 2.34642 6.43054 2.36974 6.41469C2.38223 6.40634 2.39805 6.40801 2.41054 6.4005C2.4272 6.39049 2.43719 6.37463 2.45468 6.36546L10.9137 2.08799C11.1327 1.977 11.3883 1.97116 11.6124 2.06963L21.2788 6.3471C21.3005 6.35628 21.3138 6.37463 21.3338 6.38548C21.348 6.39383 21.3646 6.39132 21.3788 6.39967C21.6236 6.55071 22 6.6909 22 6.98129V16.9949C22 17.3078 21.6003 17.488 21.3255 17.6307ZM3.64719 16.339L12.0071 19.9564V11.9923L3.64719 8.37318V16.339ZM4.78219 7.05222L12.6783 10.4694L14.8584 9.33699L7.07639 5.89148L4.78219 7.05222ZM11.3059 3.75275L8.99422 4.92183L16.7504 8.35482L19.0296 7.17072L11.3059 3.75275ZM20.3345 8.65022L13.6726 11.8496V19.7119L20.3345 16.1604V8.65022Z" fill="currentColor"/>
</svg>