<svg viewBox="0 0 24 24" fill="none" xmlns="http://www.w3.org/2000/svg">
<g clip-path="url(#clip0_1265_22046)">
<path d="M12 24C18.6274 24 24 18.6274 24 12C24 5.37258 18.6274 0 12 0C5.37258 0 0 5.37258 0 12C0 18.6274 5.37258 24 12 24Z" fill="#666666"/>
<path fill-rule="evenodd" clip-rule="evenodd" d="M18.1421 15.2773C18.0111 15.4958 17.7998 15.6544 17.5534 15.7193C17.3071 15.7841 17.0451 15.7499 16.8235 15.6241L13.7824 13.8995V12.805L14.7484 12.2577L17.7889 13.9816C18.2509 14.2432 18.4087 14.8235 18.1421 15.2766V15.2773ZM13.328 17.6057C13.328 18.1295 12.8959 18.5539 12.3626 18.5539C11.8294 18.5539 11.3973 18.1295 11.3973 17.6057V14.1573L12.3626 13.61L13.328 14.1573V17.6057ZM7.90171 15.6241C7.68009 15.7499 7.41806 15.7839 7.17166 15.719C6.92525 15.654 6.71403 15.4953 6.58317 15.2766C6.52 15.1688 6.479 15.0493 6.46258 14.9254C6.44616 14.8015 6.45464 14.6755 6.48754 14.5549C6.52043 14.4343 6.57707 14.3214 6.65414 14.223C6.73121 14.1246 6.82716 14.0425 6.93635 13.9816L9.9769 12.2571L10.9429 12.805V13.8995L7.90171 15.6241ZM6.93635 10.0184C6.82716 9.95749 6.73121 9.87543 6.65414 9.77699C6.57707 9.67855 6.52043 9.56572 6.48754 9.44511C6.45464 9.32449 6.44616 9.19853 6.46258 9.07459C6.479 8.95066 6.52 8.83125 6.58317 8.72336C6.71403 8.50472 6.92525 8.34595 7.17166 8.28102C7.41806 8.21609 7.68009 8.25015 7.90171 8.37591L10.9429 10.1005V11.195L9.9769 11.7423L6.93635 10.0184ZM11.3973 6.39427C11.3973 5.87055 11.83 5.44609 12.3626 5.44609C12.8959 5.44609 13.328 5.87055 13.328 6.39427V9.84209L12.3626 10.39L11.3973 9.84273V6.39427ZM13.7824 11.7105L14.294 12L13.7824 12.2895V11.7105ZM12.817 10.6477L13.328 10.3575V10.9373L12.817 10.6477ZM11.3973 10.9373V10.3582L11.9083 10.6477L11.3973 10.9373ZM10.9429 12.2895L10.4313 12L10.9429 11.7105V12.2895ZM11.9083 13.3523L11.3973 13.6425V13.0627L11.9083 13.3523ZM13.328 13.0627V13.6418L12.817 13.3523L13.328 13.0627ZM12.3626 13.0945L11.3973 12.5473V11.4527L12.3626 10.9055L13.328 11.4527V12.5473L12.3626 13.0945ZM16.8235 8.37591C17.0452 8.25015 17.3072 8.21609 17.5536 8.28102C17.8 8.34595 18.0112 8.50472 18.1421 8.72336C18.4094 9.17645 18.2503 9.75682 17.7889 10.0184L14.7484 11.7429L13.7824 11.195V10.1005L16.8235 8.37591ZM18.0161 13.5954L15.2027 12L18.0161 10.4046C18.1768 10.3152 18.318 10.1946 18.4314 10.0498C18.5449 9.90505 18.6282 9.73909 18.6767 9.56168C18.7251 9.38426 18.7376 9.19896 18.7134 9.01665C18.6893 8.83433 18.629 8.65868 18.536 8.5C18.144 7.83309 17.2754 7.60464 16.5964 7.98964L13.7824 9.585V6.39364C13.7824 5.62427 13.1466 5 12.3626 5C11.5786 5 10.9429 5.62427 10.9429 6.39427V9.585L8.1289 7.98964C7.4499 7.60464 6.58126 7.83309 6.1899 8.5C6.09693 8.65868 6.0366 8.83433 6.01245 9.01665C5.98829 9.19896 6.00079 9.38426 6.04922 9.56168C6.09765 9.73909 6.18103 9.90505 6.29447 10.0498C6.4079 10.1946 6.54911 10.3152 6.70981 10.4046L9.52253 12L6.70981 13.5954C6.54906 13.6847 6.40779 13.8053 6.29429 13.9501C6.18079 14.0948 6.09734 14.2608 6.04885 14.4382C6.00036 14.6156 5.98781 14.8009 6.01192 14.9833C6.03603 15.1656 6.09632 15.3413 6.18926 15.5C6.58126 16.1669 7.4499 16.3954 8.1289 16.0104L10.9429 14.415V17.6057C10.9429 18.3757 11.5786 19 12.3626 19C13.1466 19 13.7824 18.3757 13.7824 17.6057V14.415L16.5964 16.0104C17.2754 16.3954 18.144 16.1669 18.536 15.5C18.629 15.3413 18.6893 15.1657 18.7134 14.9834C18.7376 14.801 18.7251 14.6157 18.6767 14.4383C18.6282 14.2609 18.5449 14.095 18.4314 13.9502C18.318 13.8054 18.1768 13.6848 18.0161 13.5954Z" fill="white"/>
</g>
<defs>
<clipPath id="clip0_1265_22046">
<rect width="24" height="24" fill="white"/>
</clipPath>
</defs>
</svg>