<svg viewBox="0 0 24 24" fill="none" xmlns="http://www.w3.org/2000/svg">
<g clip-path="url(#clip0_1265_22042)">
<path d="M12 24C18.6274 24 24 18.6274 24 12C24 5.37258 18.6274 0 12 0C5.37258 0 0 5.37258 0 12C0 18.6274 5.37258 24 12 24Z" fill="#FEC907"/>
<path d="M9.144 16.9227C9.59033 16.9227 9.95289 17.2766 9.95289 17.7113C9.95289 18.1468 9.59033 18.5 9.144 18.5H8.09461C7.8635 18.5 7.64106 18.4104 7.47783 18.2508C7.39717 18.1727 7.33299 18.0793 7.28908 17.9759C7.24516 17.8726 7.22241 17.7615 7.22217 17.6492V6.32983C7.22217 6.10956 7.31172 5.89867 7.47133 5.74267C7.63022 5.58739 7.84689 5.5 8.07295 5.5H9.19745C9.64378 5.5 10.0063 5.85317 10.0063 6.28867C10.0063 6.49811 9.92039 6.69817 9.76872 6.84622C9.61706 6.99356 9.41122 7.07733 9.19745 7.07733H8.94828V16.9227H9.144ZM17.9334 8.65178C18.4961 9.61811 18.7777 10.6993 18.7777 11.8953C18.7777 13.0913 18.4924 14.1724 17.9241 15.1395C17.3557 16.1066 16.7237 16.8476 15.6859 17.5185C14.7326 18.1353 13.7373 18.4993 12.5031 18.4993H12.0936C11.6472 18.4993 11.2847 18.1461 11.2847 17.7106C11.2847 17.2751 11.6472 16.9227 12.0936 16.9227H12.5919C13.4658 16.9227 14.1006 16.5608 14.8134 16.1499C15.5256 15.7397 15.982 15.0673 16.3951 14.3422C16.8089 13.6178 17.0162 12.8082 17.0162 11.9141C17.0155 11.0077 16.8061 10.1923 16.3864 9.46717C15.9779 8.753 15.3853 8.16143 14.6704 7.75406C13.9453 7.33733 13.1393 7.12861 12.2532 7.12861H12.0387C11.5923 7.12861 11.2298 6.77617 11.2298 6.34067C11.2298 6.13122 11.3157 5.93044 11.4674 5.78311C11.6191 5.63506 11.8242 5.552 12.0387 5.552H12.2907C13.5127 5.552 14.6177 5.82644 15.6057 6.37678C16.5751 6.90797 17.3802 7.69485 17.9334 8.65178Z" fill="white"/>
</g>
<defs>
<clipPath id="clip0_1265_22042">
<rect width="24" height="24" fill="white"/>
</clipPath>
</defs>
</svg>