<svg viewBox="0 0 24 24" fill="none" xmlns="http://www.w3.org/2000/svg">
<g clip-path="url(#clip0_1265_22038)">
<path d="M12 24C18.6274 24 24 18.6274 24 12C24 5.37258 18.6274 0 12 0C5.37258 0 0 5.37258 0 12C0 18.6274 5.37258 24 12 24Z" fill="#006AD2"/>
<path fill-rule="evenodd" clip-rule="evenodd" d="M9.0158 18.5L9.36175 17.5741L8.74785 17.6348L8.52685 18.2198C8.50952 18.2638 8.49507 18.3101 8.47269 18.3519C8.4243 18.4422 8.34991 18.4986 8.24663 18.4993C7.79163 18.5 7.33807 18.4993 6.88306 18.4986C6.87223 18.4986 6.8614 18.4921 6.83756 18.4848L7.1279 17.7012C6.59851 17.6868 6.08356 17.6781 5.57078 17.6196C5.57944 17.5236 8.50446 10.1482 8.62074 9.92645C8.64963 9.92428 8.68358 9.91923 8.71824 9.91923H11.0799C11.1038 9.91923 11.1276 9.91923 11.1507 9.92067C11.3898 9.93872 11.5226 10.1409 11.4396 10.3706C11.3291 10.674 11.2121 10.9758 11.0987 11.2777L9.61236 15.2312C9.59719 15.2716 9.58419 15.3135 9.56541 15.3684C9.6073 15.3706 9.6398 15.3749 9.6723 15.3735C11.9083 15.276 13.5492 14.2085 14.6094 12.2029C14.8413 11.7646 15.0045 11.2932 15.0933 10.8054C15.1461 10.5201 15.1627 10.2341 15.0912 9.94884C15.0191 9.64785 14.8399 9.3834 14.5871 9.20494C14.2491 8.96155 13.8692 8.85755 13.4589 8.85538H5.5C5.51733 8.81205 5.52528 8.78316 5.539 8.75716L6.54145 6.95087C6.58822 6.8567 6.66126 6.77807 6.75174 6.7245C6.84222 6.67093 6.94628 6.6447 7.05134 6.64898H11.2879L11.722 5.50064H13.009C13.0408 5.50064 13.0725 5.49848 13.1029 5.50281C13.1946 5.51725 13.2473 5.58948 13.2336 5.68337C13.2278 5.72237 13.2134 5.75992 13.1989 5.79748C13.1101 6.03653 13.0191 6.27487 12.9303 6.51393C12.9151 6.55437 12.9028 6.59554 12.8869 6.64393H13.4683C13.4828 6.61287 13.4972 6.58109 13.5102 6.54859L13.8684 5.59742C13.9046 5.50136 13.906 5.50064 14.0021 5.50064C14.4094 5.50064 14.8174 5.4992 15.2248 5.50064C15.3967 5.50136 15.4581 5.59236 15.3967 5.75848C15.2992 6.02498 15.1988 6.28931 15.0991 6.55437C15.0854 6.5912 15.0731 6.62876 15.0558 6.67932C15.0955 6.68654 15.128 6.69376 15.1605 6.69809C15.7275 6.76743 16.2792 6.89598 16.8028 7.13215C17.2008 7.31199 17.5626 7.54671 17.8602 7.87605C18.2632 8.32021 18.4632 8.85105 18.495 9.4505C18.5254 10.0319 18.4192 10.5923 18.2264 11.1333C17.7699 12.4152 17.1213 13.5802 16.1825 14.5617C15.5353 15.2377 14.7886 15.775 13.9696 16.2098C13.0855 16.6793 12.151 17.0079 11.1832 17.2404C11.0965 17.2621 11.051 17.2997 11.0214 17.3849C10.9153 17.681 10.8026 17.9757 10.6914 18.2703C10.6228 18.4509 10.5541 18.5 10.3649 18.5H9.0158Z" fill="white"/>
</g>
<defs>
<clipPath id="clip0_1265_22038">
<rect width="24" height="24" fill="white"/>
</clipPath>
</defs>
</svg>