<svg viewBox="0 0 24 24" fill="none" xmlns="http://www.w3.org/2000/svg">
<g clip-path="url(#clip0_1265_22034)">
<path d="M12 24C18.6274 24 24 18.6274 24 12C24 5.37258 18.6274 0 12 0C5.37258 0 0 5.37258 0 12C0 18.6274 5.37258 24 12 24Z" fill="#F4D029"/>
<path fill-rule="evenodd" clip-rule="evenodd" d="M9.66667 9V11H5V9H9.66667ZM10.3333 9H11.6667V15.6667H5V11.6667H10.3333V9ZM6.33333 13V14.3333H10.3333V13H6.33333ZM19 10.3333H13.6667V14.3333H17.6667V13H15V11.6667H19V15.6667H12.3333V9H19V10.3333Z" fill="black"/>
</g>
<defs>
<clipPath id="clip0_1265_22034">
<rect width="24" height="24" fill="white"/>
</clipPath>
</defs>
</svg>