<svg viewBox="0 0 24 24" fill="none" xmlns="http://www.w3.org/2000/svg">
<path fill-rule="evenodd" clip-rule="evenodd" d="M21.9874 8.72923C22.0117 8.93701 21.9648 9.14983 21.8358 9.3241L12.6692 21.6632C12.665 21.6682 12.6591 21.6707 12.6549 21.6758C12.5879 21.7612 12.5033 21.8274 12.4104 21.881C12.3844 21.8961 12.3601 21.9087 12.3333 21.9204C12.2295 21.9665 12.1189 22 12 22C11.8811 22 11.7714 21.9665 11.6675 21.9204C11.6399 21.9087 11.6164 21.8961 11.5905 21.881C11.4966 21.8274 11.4121 21.7612 11.3451 21.6749C11.3417 21.6699 11.335 21.6682 11.3317 21.6632L2.16499 9.3241C2.03518 9.14983 1.98911 8.93701 2.0134 8.72923C2.01173 8.7066 2 8.6865 2 8.66387C2 8.41 2.11474 8.21814 2.28894 8.08994L5.43886 2.42354C5.44389 2.41432 5.45561 2.41264 5.46147 2.40343C5.56198 2.23586 5.71441 2.09845 5.91457 2.03477C6.09548 1.97612 6.27722 1.99707 6.44389 2.05739H11.727C11.7278 2.05656 11.7295 2.05739 11.7303 2.05656C11.8166 2.02639 11.902 2.01215 11.9916 2.01131C11.995 2.01131 11.9992 2.01131 12.0033 2.01131C12.0972 2.01131 12.1859 2.02639 12.2747 2.05739H17.5578C17.7236 1.99707 17.9054 1.97696 18.0854 2.03477C18.1575 2.05739 18.2136 2.10012 18.2739 2.13866C18.2806 2.14285 18.2873 2.14704 18.2948 2.15039C18.3903 2.21575 18.4698 2.29534 18.5302 2.39086C18.5385 2.4051 18.5536 2.40845 18.562 2.42354L21.6935 8.0581C21.8819 8.18295 22 8.38487 22 8.66387C22 8.6865 21.9891 8.7066 21.9874 8.72923ZM19.6306 9.49754H16.5871L14.3073 16.6629L19.6306 9.49754ZM11.9999 4.30871L9.53764 7.92237H14.4639L11.9999 4.30871ZM12 18.4173L14.8375 9.49754H9.16248L12 18.4173ZM9.69348 16.6629L7.41375 9.49754H4.3702L9.69348 16.6629ZM5.95808 4.92034L4.28973 7.92237H6.91285L5.95808 4.92034ZM7.3065 3.66272L8.29896 6.78038L10.4238 3.66272H7.3065ZM13.577 3.66272L15.7027 6.77954L16.6943 3.66272H13.577ZM18.0427 4.92034L17.0879 7.92237H19.711L18.0427 4.92034Z" fill="currentColor"/>
</svg>