<svg width="24" height="24" viewBox="0 0 24 24" fill="none" xmlns="http://www.w3.org/2000/svg">
<path d="M11.9998 22C17.5228 22 22 17.5228 22 11.9998C22 6.47686 17.5228 1.99963 11.9998 1.99963C6.47686 1.99963 1.99963 6.47686 1.99963 11.9998C1.99963 17.5228 6.47686 22 11.9998 22Z" fill="#0066CC"/>
<path d="M6.39607 9.403H13.4577C13.4577 9.403 15.8951 9.38022 14.2094 12.5238C14.2094 12.5238 12.9793 14.984 9.92688 14.9384L11.5716 10.7379C11.5914 10.6881 11.5989 10.6342 11.5935 10.5809C11.588 10.5275 11.5697 10.4763 11.5402 10.4316C11.5106 10.3868 11.4707 10.3499 11.4238 10.3239C11.3769 10.2979 11.3245 10.2836 11.2709 10.2823L9.10682 10.2458L6.37329 16.8974C6.37329 16.8974 7.28447 16.9886 7.78562 16.943L7.51226 17.6264H8.80158C8.83733 17.6267 8.87229 17.6159 8.90166 17.5955C8.93103 17.5751 8.95336 17.5461 8.96559 17.5125L9.19794 16.8974L9.74465 16.8519L9.42573 17.6264H10.6832C10.7294 17.6267 10.7747 17.6129 10.813 17.5869C10.8512 17.5608 10.8806 17.5238 10.8973 17.4806L11.2481 16.5785C11.2481 16.5785 15.075 15.9407 16.8063 12.8427C16.8063 12.8427 19.1298 9.24354 16.3962 7.96789C15.8635 7.72361 15.2938 7.56965 14.7106 7.5123L15.0295 6.72414C15.0392 6.70075 15.043 6.67535 15.0405 6.65015C15.0381 6.62496 15.0296 6.60074 15.0157 6.57961C15.0017 6.55848 14.9828 6.54109 14.9606 6.52896C14.9384 6.51682 14.9135 6.51032 14.8882 6.51001H13.7083L13.3438 7.46675H12.8426L13.1251 6.72414C13.1338 6.70036 13.1367 6.67486 13.1336 6.64974C13.1305 6.62462 13.1214 6.6006 13.1071 6.57968C13.0929 6.55875 13.0739 6.54152 13.0517 6.5294C13.0294 6.51729 13.0046 6.51064 12.9793 6.51001H11.7948L11.4303 7.46675H7.74917C7.65024 7.46642 7.55307 7.49294 7.46802 7.54348C7.38297 7.59403 7.31324 7.66671 7.26624 7.75377L6.39607 9.403Z" fill="white"/>
</svg>
