<svg viewBox="0 0 24 24" fill="none" xmlns="http://www.w3.org/2000/svg">
<path fill-rule="evenodd" clip-rule="evenodd" d="M21.1667 16.9995H20.3333C19.8725 16.9995 19.5 16.6268 19.5 16.1665C19.5 15.707 19.8725 15.3335 20.3333 15.3335V3.66679H3.66667V15.3953H10.3333C10.7942 15.3953 11.1667 15.707 11.1667 16.1665C11.1667 16.6268 10.7942 16.9995 10.3333 16.9995H2.83333C2.3725 16.9995 2 16.6268 2 16.1665V2.83381C2 2.37346 2.3725 2 2.83333 2H21.1667C21.6275 2 22 2.37346 22 2.83381V16.1665C22 16.6268 21.6275 16.9995 21.1667 16.9995ZM7.83333 11.1669C7.3725 11.1669 7 10.7935 7 10.3331C7 9.87278 7.3725 9.54694 7.83333 9.54694H11.1667C11.6275 9.54694 12 9.87278 12 10.3331C12 10.7935 11.6275 11.1669 11.1667 11.1669H7.83333ZM15.3333 10.3331C17.1717 10.3331 18.6667 11.8287 18.6667 13.6667C18.6667 14.5047 18.3458 15.2617 17.8333 15.8482V19.5001C17.8333 19.8134 17.6567 20.1016 17.3767 20.2437C17.2583 20.3038 17.1283 20.3331 17 20.3331C16.8258 20.3331 16.6525 20.2788 16.5067 20.1718L15.3333 19.3113L14.16 20.1718C13.9075 20.3581 13.57 20.3849 13.29 20.2437C13.01 20.1016 12.8333 19.8134 12.8333 19.5001V15.8482C12.3208 15.2617 12 14.5047 12 13.6667C12 11.8287 13.495 10.3331 15.3333 10.3331ZM15.3333 11.9999C14.4142 11.9999 13.6667 12.7477 13.6667 13.6667C13.6667 14.5858 14.4142 15.3335 15.3333 15.3335C16.2517 15.3335 17 14.5858 17 13.6667C17 12.7477 16.2517 11.9999 15.3333 11.9999ZM14.84 17.606C15.135 17.3905 15.5317 17.3905 15.8267 17.606L16.1667 17.855V16.8817C15.8992 16.951 15.6225 16.9995 15.3333 16.9995C15.0442 16.9995 14.7683 16.951 14.5 16.8817V17.855L14.84 17.606ZM5.33333 7.83336C4.8725 7.83336 4.5 7.4599 4.5 7.00038C4.5 6.54003 4.8725 6.205 5.33333 6.205H18.6667C19.1275 6.205 19.5 6.54003 19.5 7.00038C19.5 7.4599 19.1275 7.83336 18.6667 7.83336H5.33333Z" fill="currentColor"/>
</svg>