<svg width="24" height="24" viewBox="0 0 24 24" fill="none" xmlns="http://www.w3.org/2000/svg">
<path fill-rule="evenodd" clip-rule="evenodd" d="M2 12C2 17.5228 6.47715 22 12 22C17.5228 22 22 17.5228 22 12C22 6.47715 17.5228 2 12 2C6.47715 2 2 6.47715 2 12ZM20.4616 12C20.4616 16.6732 16.6732 20.4615 12 20.4615C7.32685 20.4615 3.53849 16.6732 3.53849 12C3.53849 7.32683 7.32685 3.53847 12 3.53847C16.6732 3.53847 20.4616 7.32683 20.4616 12ZM17.4091 16.3213C18.3565 15.1369 18.923 13.6346 18.923 12C18.923 8.17649 15.8235 5.07692 12 5.07692C10.3653 5.07692 8.86303 5.64344 7.67867 6.59084L17.4091 16.3213ZM16.3213 17.4091C15.1369 18.3566 13.6346 18.9231 12 18.9231C8.17645 18.9231 5.07688 15.8235 5.07688 12C5.07688 10.3654 5.6434 8.86306 6.59081 7.6787L16.3213 17.4091Z" fill="#6B7084"/>
</svg>
