<svg width="24" height="24" viewBox="0 0 24 24" fill="none" xmlns="http://www.w3.org/2000/svg">
<path fill-rule="evenodd" clip-rule="evenodd" d="M12 22C6.48583 22 2 17.5142 2 12C2 6.48583 6.48583 2 12 2C17.5142 2 22 6.48583 22 12C22 17.5142 17.5142 22 12 22ZM3.66667 12C3.66667 16.595 7.405 20.3333 12 20.3333C13.9983 20.3333 15.8333 19.625 17.2708 18.4483L5.55167 6.72917C4.375 8.16667 3.66667 10.0017 3.66667 12ZM12 3.66667C10.0017 3.66667 8.16752 4.37417 6.73002 5.55083L18.4484 17.27C19.625 15.8325 20.3334 13.9975 20.3334 12C20.3334 7.405 16.595 3.66667 12 3.66667Z" fill="#6B7084"/>
</svg>
