<svg width="24" height="24" viewBox="0 0 24 24" fill="none" xmlns="http://www.w3.org/2000/svg">
<path fill-rule="evenodd" clip-rule="evenodd" d="M20.8449 11.9996L21.9083 14.076C22.1034 14.4563 21.9781 14.9232 21.6189 15.1554L19.6595 16.4224L19.5426 18.7521C19.5207 19.1795 19.1791 19.521 18.7517 19.5429L16.4222 19.659L15.1553 21.6185C14.9971 21.8633 14.7304 21.9996 14.4553 21.9996C14.3274 21.9996 14.197 21.9701 14.0759 21.9079L11.9996 20.8444L9.9233 21.9079C9.54136 22.1039 9.07528 21.9777 8.84393 21.6185L7.5778 19.659L5.24744 19.5429C4.81922 19.521 4.47766 19.1795 4.45663 18.7521L4.34053 16.4224L2.38033 15.1554C2.02195 14.924 1.8966 14.4563 2.09177 14.076L3.15432 11.9996L2.09177 9.92404C1.8966 9.54292 2.02195 9.07599 2.38033 8.84378L4.34053 7.57759L4.45663 5.24796C4.47766 4.82057 4.81922 4.47899 5.24744 4.45712L7.5778 4.34017L8.84393 2.38073C9.07528 2.02232 9.54052 1.89612 9.9233 2.09215L11.9996 3.15559L14.0759 2.09215C14.4578 1.89612 14.9231 2.02232 15.1553 2.38073L16.4222 4.34017L18.7517 4.45712C19.1791 4.47899 19.5207 4.82057 19.5426 5.24796L19.6595 7.57759L21.6189 8.84378C21.9781 9.07683 22.1034 9.54292 21.9083 9.9232L20.8449 11.9996ZM19.1665 11.6202L20.0819 9.83486L18.3959 8.74535C18.1713 8.5998 18.03 8.35497 18.0165 8.08743L17.9164 6.08424L15.9124 5.98328C15.6449 5.96982 15.4001 5.82848 15.2546 5.603L14.1651 3.91867L12.3799 4.83319C12.1401 4.95518 11.8591 4.95518 11.6194 4.83319L9.83415 3.91867L8.74553 5.603C8.59999 5.82848 8.35433 5.96982 8.0868 5.98328L6.08454 6.08424L5.98443 8.08743C5.97013 8.35497 5.82963 8.5998 5.60417 8.74535L3.91823 9.83486L4.83271 11.6202C4.95554 11.8583 4.95554 12.1418 4.83271 12.3799L3.91823 14.1643L5.60417 15.2538C5.82963 15.3994 5.97013 15.6442 5.98443 15.9126L6.08454 17.9158L8.0868 18.0159C8.35433 18.0294 8.59999 18.1716 8.74553 18.3962L9.83415 20.0814L11.6194 19.1668C11.7397 19.1054 11.8692 19.0751 11.9996 19.0751C12.13 19.0751 12.2604 19.1054 12.3799 19.1668L14.1651 20.0814L15.2546 18.3962C15.4001 18.1716 15.6449 18.0294 15.9124 18.0159L17.9164 17.9158L18.0165 15.9126C18.03 15.6442 18.1713 15.3994 18.3959 15.2538L20.0819 14.1643L19.1665 12.3799C19.0454 12.1409 19.0454 11.8591 19.1665 11.6202ZM14.918 16.1667C13.7494 16.1667 12.835 15.0679 12.835 13.6663C12.835 12.2646 13.7494 11.1667 14.918 11.1667C16.0865 11.1667 17.001 12.2646 17.001 13.6663C17.001 15.0679 16.0865 16.1667 14.918 16.1667ZM14.918 12.8333C14.7708 12.8333 14.5016 13.1497 14.5016 13.6663C14.5016 14.1837 14.7708 14.4992 14.918 14.4992C15.0652 14.4992 15.3344 14.1837 15.3344 13.6663C15.3344 13.1497 15.0652 12.8333 14.918 12.8333ZM11.1086 16.4754C10.9782 16.8019 10.6653 16.9996 10.3346 16.9996C10.2312 16.9996 10.126 16.9802 10.025 16.9399C9.59852 16.7691 9.38988 16.2845 9.56066 15.8571L12.8938 7.52374C13.0646 7.09635 13.5526 6.88854 13.9774 7.05933C14.4039 7.23096 14.6126 7.71557 14.4418 8.14296L11.1086 16.4754ZM9.08455 12.8333C7.916 12.8333 7.00153 11.7354 7.00153 10.3329C7.00153 8.93128 7.916 7.83335 9.08455 7.83335C10.2531 7.83335 11.1684 8.93128 11.1684 10.3329C11.1684 11.7354 10.2531 12.8333 9.08455 12.8333ZM9.08456 9.50002C8.93734 9.50002 8.66813 9.81635 8.66813 10.3329C8.66813 10.8503 8.93734 11.1667 9.08456 11.1667C9.23179 11.1667 9.501 10.8503 9.501 10.3329C9.501 9.81635 9.23179 9.50002 9.08456 9.50002Z" fill="#6B7084"/>
</svg>
