<svg viewBox="0 0 24 24" fill="none" xmlns="http://www.w3.org/2000/svg">
<path fill-rule="evenodd" clip-rule="evenodd" d="M3.83872 11.2H5.0002C5.44202 11.2 5.8002 11.5581 5.8002 12C5.8002 12.4418 5.44202 12.8 5.0002 12.8H3.83872C4.21537 16.69 7.31011 19.7848 11.2002 20.1614V19C11.2002 18.5581 11.5584 18.2 12.0002 18.2C12.442 18.2 12.8002 18.5581 12.8002 19V20.1614C16.6903 19.7848 19.785 16.69 20.1617 12.8H19.0002C18.5584 12.8 18.2002 12.4418 18.2002 12C18.2002 11.5581 18.5584 11.2 19.0002 11.2H20.1617C19.785 7.30987 16.6903 4.21512 12.8002 3.83848V4.99995C12.8002 5.44178 12.442 5.79995 12.0002 5.79995C11.5584 5.79995 11.2002 5.44178 11.2002 4.99995V3.83848C7.31011 4.21512 4.21537 7.30987 3.83872 11.2ZM2.2002 12C2.2002 6.58756 6.5878 2.19995 12.0002 2.19995C17.4126 2.19995 21.8002 6.58756 21.8002 12C21.8002 17.4123 17.4126 21.7999 12.0002 21.7999C6.5878 21.7999 2.2002 17.4123 2.2002 12ZM16.5659 7.43427C16.7801 7.64853 16.855 7.96547 16.7591 8.25293L14.7591 14.2529C14.6795 14.4918 14.4921 14.6793 14.2532 14.7589L8.25318 16.7589C7.96571 16.8547 7.64878 16.7799 7.43451 16.5656C7.22024 16.3514 7.14543 16.0344 7.24125 15.747L9.24125 9.74697C9.32088 9.50809 9.50833 9.32063 9.74721 9.241L15.7472 7.241C16.0347 7.14518 16.3516 7.22 16.5659 7.43427ZM10.6327 10.6324L9.26511 14.735L13.3677 13.3675L14.7353 9.26486L10.6327 10.6324Z" fill="currentColor"/>
</svg>