<svg width="24" height="24" viewBox="0 0 24 24" fill="none" xmlns="http://www.w3.org/2000/svg">
<g clip-path="url(#clip0_1265_22030)">
<path d="M12 24C18.6274 24 24 18.6274 24 12C24 5.37258 18.6274 0 12 0C5.37258 0 0 5.37258 0 12C0 18.6274 5.37258 24 12 24Z" fill="#F4AE95"/>
<path d="M11.8522 6.37962L7.19207 16.3262H14.9286C15.1527 16.3262 15.3553 16.4638 15.4433 16.6741L15.4517 16.6932C15.4804 16.7617 15.4933 16.8359 15.4892 16.9101C15.485 16.9843 15.4641 17.0566 15.428 17.1215C15.3648 17.2356 15.2723 17.3309 15.1601 17.3974C15.0478 17.4639 14.9199 17.4993 14.7894 17.5H6.56731C6.44007 17.4998 6.31586 17.4611 6.21095 17.3891L6.16813 17.3601C6.03867 17.2697 5.94539 17.1364 5.90479 16.9839C5.8642 16.8313 5.87893 16.6693 5.94636 16.5265L11.4446 4.94197C11.502 4.82114 11.5838 4.71408 11.684 4.62844C11.7785 4.54691 11.8988 4.50143 12.0236 4.50003C12.1485 4.49863 12.2698 4.54141 12.3661 4.62079C12.4098 4.65643 12.4451 4.70136 12.4693 4.75232L18.0463 16.4156C18.1228 16.5739 18.1381 16.7552 18.0907 16.9249C18.066 17.0174 18.0116 17.0991 17.9359 17.1576C17.8602 17.216 17.7673 17.248 17.6716 17.2484H17.6074C17.479 17.2476 17.3536 17.2101 17.246 17.1401C17.1383 17.0702 17.0531 16.9708 17.0002 16.8538L12.1902 6.38115C12.1757 6.3485 12.1522 6.3207 12.1223 6.30105C12.0925 6.28139 12.0577 6.27071 12.022 6.27026C11.9862 6.27028 11.9511 6.2806 11.921 6.29999C11.8909 6.31938 11.867 6.34702 11.8522 6.37962Z" fill="white"/>
</g>
<defs>
<clipPath id="clip0_1265_22030">
<rect width="24" height="24" fill="white"/>
</clipPath>
</defs>
</svg>
