<svg width="24" height="24" viewBox="0 0 24 24" fill="none" xmlns="http://www.w3.org/2000/svg">
<g clip-path="url(#clip0_1265_21996)">
<path d="M12 24C18.6274 24 24 18.6274 24 12C24 5.37258 18.6274 0 12 0C5.37258 0 0 5.37258 0 12C0 18.6274 5.37258 24 12 24Z" fill="#0983CB"/>
<path d="M9.2581 17.856C9.23446 17.856 9.20491 17.856 9.18128 17.8501C8.95673 17.8087 8.81491 17.596 8.85628 17.3715C9.09855 16.1069 9.5181 14.9369 10.109 13.8851C10.6586 12.9042 11.214 12.2719 11.7458 11.6633C12.2954 11.0369 12.8095 10.4519 13.3058 9.50645C13.7904 8.58463 14.1213 7.57418 14.2867 6.51054C14.3222 6.286 14.529 6.13827 14.7536 6.16782C14.9781 6.20327 15.1258 6.41009 15.0963 6.63463C14.9131 7.79282 14.5586 8.886 14.0326 9.88463C13.489 10.9128 12.9158 11.5687 12.3604 12.201C11.8286 12.8037 11.3263 13.3769 10.8181 14.281C10.2745 15.2501 9.88446 16.3433 9.65401 17.5192C9.61855 17.7201 9.44719 17.856 9.2581 17.856Z" fill="white"/>
<path d="M10.9187 11.1195C10.7887 11.1195 10.6646 11.0604 10.5818 10.9482C10.3455 10.6113 10.1327 10.2686 9.93774 9.89634C9.41183 8.89771 9.05138 7.80453 8.87411 6.64634C8.83865 6.4218 8.99229 6.21498 9.21683 6.17953C9.44138 6.14407 9.6482 6.29771 9.68365 6.52225C9.84911 7.5918 10.18 8.60225 10.6646 9.51816C10.8418 9.86089 11.0368 10.1741 11.2496 10.4813C11.3796 10.6645 11.3382 10.9186 11.1491 11.0486C11.0841 11.0959 11.0014 11.1195 10.9187 11.1195Z" fill="white" fill-opacity="0.3"/>
<path d="M10.9764 11.1357C10.8582 11.1357 10.7401 11.0826 10.6573 10.9821C10.5155 10.8048 10.3855 10.6394 10.2673 10.468C10.1373 10.2848 10.1787 10.0307 10.3678 9.90075C10.551 9.77075 10.8051 9.81211 10.9351 10.0012C11.0473 10.1607 11.1655 10.3144 11.2955 10.4739C11.4373 10.6512 11.4078 10.9053 11.2305 11.0471C11.1537 11.1062 11.0651 11.1357 10.9764 11.1357Z" fill="white" fill-opacity="0.5"/>
<path d="M14.7182 17.8559C14.5232 17.8559 14.3577 17.72 14.3164 17.525C14.0918 16.3491 13.6959 15.2559 13.1523 14.2868C12.9986 14.015 12.8391 13.755 12.6618 13.5068C12.5318 13.3236 12.5791 13.0695 12.7623 12.9395C12.9455 12.8095 13.1995 12.8568 13.3295 13.04C13.5186 13.3118 13.6959 13.5895 13.8614 13.8909C14.4523 14.9368 14.8718 16.1127 15.1141 17.3773C15.1555 17.6018 15.0136 17.8145 14.7891 17.8559C14.7655 17.8559 14.7418 17.8559 14.7182 17.8559Z" fill="white" fill-opacity="0.3"/>
<path d="M13.2877 14.079C13.1577 14.079 13.0336 14.02 12.9509 13.9018C12.8563 13.7659 12.7677 13.6418 12.6731 13.5236C12.5372 13.3463 12.5668 13.0863 12.744 12.9504C12.9213 12.8145 13.1813 12.844 13.3172 13.0272C13.4177 13.1572 13.5181 13.2931 13.6186 13.4409C13.7486 13.624 13.7013 13.8781 13.5181 14.0081C13.4472 14.0554 13.3645 14.079 13.2877 14.079Z" fill="white" fill-opacity="0.5"/>
<path d="M13.6486 16.686H10.3513C10.2391 16.686 10.1445 16.5973 10.1445 16.4792C10.1445 16.3669 10.2332 16.2723 10.3513 16.2723H13.6486C13.7609 16.2723 13.8554 16.361 13.8554 16.4792C13.8554 16.5973 13.7609 16.686 13.6486 16.686Z" fill="white"/>
<path d="M13.3591 15.8173H10.6114C10.4991 15.8173 10.4045 15.7287 10.4045 15.6105C10.4045 15.4923 10.4932 15.4037 10.6114 15.4037H13.3591C13.4714 15.4037 13.5659 15.4923 13.5659 15.6105C13.5659 15.7287 13.4714 15.8173 13.3591 15.8173Z" fill="white"/>
<path d="M12.9454 14.9488H10.9954C10.8831 14.9488 10.7886 14.8602 10.7886 14.742C10.7886 14.6238 10.8772 14.5352 10.9954 14.5352H12.9454C13.0577 14.5352 13.1522 14.6238 13.1522 14.742C13.1522 14.8602 13.0577 14.9488 12.9454 14.9488Z" fill="white"/>
<path d="M12.4018 14.08H11.5509C11.4387 14.08 11.3441 13.9914 11.3441 13.8732C11.3441 13.755 11.4328 13.6664 11.5509 13.6664H12.4018C12.5141 13.6664 12.6087 13.755 12.6087 13.8732C12.6087 13.9914 12.5141 14.08 12.4018 14.08Z" fill="white"/>
<path d="M13.6486 7.42645H10.3513C10.2391 7.42645 10.1445 7.33782 10.1445 7.21964C10.1445 7.10145 10.2332 7.01282 10.3513 7.01282H13.6486C13.7609 7.01282 13.8554 7.10145 13.8554 7.21964C13.8554 7.33782 13.7609 7.42645 13.6486 7.42645Z" fill="white"/>
<path d="M13.3591 8.29498H10.6114C10.4991 8.29498 10.4045 8.20635 10.4045 8.08817C10.4045 7.96998 10.4932 7.88135 10.6114 7.88135H13.3591C13.4714 7.88135 13.5659 7.96998 13.5659 8.08817C13.5659 8.20635 13.4714 8.29498 13.3591 8.29498Z" fill="white"/>
<path d="M12.9454 9.16364H10.9954C10.8831 9.16364 10.7886 9.075 10.7886 8.95682C10.7886 8.83864 10.8772 8.75 10.9954 8.75H12.9454C13.0577 8.75 13.1522 8.83864 13.1522 8.95682C13.1522 9.075 13.0577 9.16364 12.9454 9.16364Z" fill="white"/>
<path d="M12.4018 10.0324H11.5509C11.4387 10.0324 11.3441 9.94377 11.3441 9.82559C11.3441 9.70741 11.4328 9.61877 11.5509 9.61877H12.4018C12.5141 9.61877 12.6087 9.70741 12.6087 9.82559C12.6087 9.94377 12.5141 10.0324 12.4018 10.0324Z" fill="white"/>
<path d="M12 18.5C8.41318 18.5 5.5 15.5868 5.5 12C5.5 8.41318 8.41318 5.5 12 5.5C15.5868 5.5 18.5 8.41318 18.5 12C18.5 15.5868 15.5868 18.5 12 18.5ZM12 6.31545C8.86818 6.31545 6.31545 8.86818 6.31545 12C6.31545 15.1318 8.86227 17.6845 12 17.6845C15.1377 17.6845 17.6845 15.1377 17.6845 12C17.6845 8.86818 15.1318 6.31545 12 6.31545Z" fill="white"/>
</g>
<defs>
<clipPath id="clip0_1265_21996">
<rect width="24" height="24" fill="white"/>
</clipPath>
</defs>
</svg>
