<svg viewBox="0 0 24 24" fill="none" xmlns="http://www.w3.org/2000/svg">
<g clip-path="url(#clip0_1265_21992)">
<path d="M12 24C18.6274 24 24 18.6274 24 12C24 5.37258 18.6274 0 12 0C5.37258 0 0 5.37258 0 12C0 18.6274 5.37258 24 12 24Z" fill="#2C398F"/>
<path d="M17.3627 13.832C17.6738 13.8165 17.9705 13.6963 18.2047 13.491C17.8791 15.155 16.9691 16.7925 15.4073 17.6924C14.2125 18.3885 12.7186 18.6202 11.2661 18.4429C11.0487 17.8154 10.4784 17.147 9.48747 16.6424C7.92566 15.8375 7.19233 14.4459 6.52695 15.1278C6.46549 15.1869 6.41468 15.2561 6.37745 15.3323C6.34771 15.2698 6.3205 15.2061 6.2959 15.1414C5.01951 11.9765 6.2959 8.79731 8.84868 6.5193C10.3697 5.16846 12.1484 5.31855 13.7374 6.05543C13.642 6.13247 13.5655 6.23028 13.5136 6.34139C13.4618 6.45251 13.4361 6.574 13.4384 6.69658V9.88874C12.7778 9.50408 12.0018 9.36761 11.2496 9.50387C10.4975 9.64013 9.81862 10.0402 9.33501 10.6321C8.84948 11.2253 8.58934 11.9711 8.60059 12.7376C8.61183 13.5041 8.89374 14.2419 9.39646 14.8206C9.89745 15.3978 10.5879 15.7775 11.3437 15.8913C12.0995 16.0051 12.8711 15.8457 13.5199 15.4416C13.5994 15.6128 13.7351 15.7516 13.9044 15.835C14.0737 15.9183 14.2665 15.9412 14.4506 15.8998C14.6347 15.8583 14.7991 15.7551 14.9164 15.6072C15.0337 15.4594 15.0968 15.2758 15.0953 15.0871V6.86027C16.3173 7.71947 17.2947 8.8109 17.7426 9.56137C17.9613 9.93837 18.1173 10.3485 18.2047 10.7757C18.0127 10.6339 17.7887 10.5393 17.5529 10.5027C17.0507 10.4755 16.6701 11.158 16.9283 12.1396C17.1458 13.0271 16.874 13.8048 17.3627 13.832ZM11.239 13.8863C9.52765 12.9042 10.9671 10.3804 12.6784 11.3625C13.1943 11.6491 13.2487 12.5632 13.1535 13.1494C12.9769 14.1593 12.0267 14.3366 11.239 13.8863ZM12.0402 7.36491C11.6597 7.3785 11.3885 7.84238 11.4021 8.04743C11.4151 8.25189 11.7005 8.3748 12.094 8.23829C12.4474 8.11538 12.7736 8.19693 12.7594 7.99247C12.7458 7.78801 12.4066 7.35132 12.0402 7.36491Z" fill="white"/>
</g>
<defs>
<clipPath id="clip0_1265_21992">
<rect width="24" height="24" fill="white"/>
</clipPath>
</defs>
</svg>