<svg width="24" height="24" viewBox="0 0 24 24" fill="none" xmlns="http://www.w3.org/2000/svg">
<g clip-path="url(#clip0_1265_21988)">
<path d="M12 24C18.6274 24 24 18.6274 24 12C24 5.37258 18.6274 0 12 0C5.37258 0 0 5.37258 0 12C0 18.6274 5.37258 24 12 24Z" fill="#786DBC"/>
<path d="M11.7572 7.72148L10.7069 6.66861C10.5655 6.53335 10.4836 6.34745 10.4793 6.15181C10.4749 5.95618 10.5485 5.76682 10.6837 5.62541C10.819 5.48399 11.0049 5.4021 11.2005 5.39775C11.3962 5.39339 11.5855 5.46694 11.7269 5.6022L11.7514 5.6267L14.0957 7.971C14.3839 8.2592 14.3839 8.72535 14.0957 9.01355L11.7489 11.3579C11.6096 11.4907 11.4239 11.5638 11.2315 11.5616C11.039 11.5593 10.8551 11.4818 10.719 11.3458C10.583 11.2097 10.5055 11.0258 10.5032 10.8333C10.501 10.6409 10.5741 10.4552 10.7069 10.3159L11.8075 9.21536C11.066 9.08447 10.3022 9.18471 9.61959 9.50249C8.93697 9.82027 8.36855 10.3402 7.99135 10.9919C7.61416 11.6436 7.44643 12.3955 7.5109 13.1457C7.57537 13.8959 7.86891 14.6081 8.35175 15.1859C8.8346 15.7636 9.48339 16.179 10.2102 16.3757C10.937 16.5723 11.7068 16.5408 12.4151 16.2853C13.1234 16.0298 13.736 15.5628 14.17 14.9475C14.6039 14.3321 14.8382 13.5982 14.8411 12.8453V4.73695C14.8411 4.5415 14.9187 4.35405 15.0569 4.21585C15.1951 4.07764 15.3826 4 15.578 4C15.7735 4 15.9609 4.07764 16.0991 4.21585C16.2373 4.35405 16.3149 4.5415 16.3149 4.73695V12.9439C16.2944 13.9851 15.9591 14.9957 15.3533 15.8427C14.7475 16.6897 13.8995 17.3335 12.9208 17.6894C11.9422 18.0453 10.8787 18.0967 9.8703 17.8367C8.8619 17.5767 7.95581 17.0176 7.27122 16.2329C6.58663 15.4481 6.15559 14.4746 6.03481 13.4402C5.91403 12.4059 6.10917 11.3592 6.59455 10.4379C7.07993 9.51656 7.83282 8.76373 8.75419 8.27841C9.67556 7.7931 10.7223 7.59804 11.7566 7.7189L11.7572 7.72148Z" fill="white"/>
</g>
<defs>
<clipPath id="clip0_1265_21988">
<rect width="24" height="24" fill="white"/>
</clipPath>
</defs>
</svg>
