<svg viewBox="0 0 24 24" fill="none" xmlns="http://www.w3.org/2000/svg">
<path fill-rule="evenodd" clip-rule="evenodd" d="M17.9542 22H7.04583C5.91833 22 5 21.0783 5 19.9442V4.05583C5 2.92167 5.91833 2 7.04583 2H17.9542C19.0817 2 20 2.92167 20 4.05583V19.9442C20 21.0783 19.0817 22 17.9542 22ZM17.1909 20.3333L16.3892 19.5H8.61335L7.81169 20.3333H17.1909ZM6.66667 5.28583V19.1192L7.65833 18.0892C7.815 17.9258 8.03167 17.8333 8.25833 17.8333H11.6667V6.99999H8.25667C7.97833 6.99999 7.71833 6.86083 7.56417 6.62916L6.66667 5.28583ZM7.58921 3.66667L8.70255 5.33333H16.2975L17.4109 3.66667H7.58921ZM18.3333 5.28583L17.4358 6.62916C17.2817 6.86083 17.0217 6.99999 16.7433 6.99999H13.3333V17.8333H16.7442C16.9708 17.8333 17.1875 17.9258 17.3442 18.0892L18.3333 19.1167V5.28583Z" fill="currentColor"/>
</svg>