<svg viewBox="0 0 24 24" fill="none" xmlns="http://www.w3.org/2000/svg">
<g clip-path="url(#clip0_1265_21984)">
<path d="M12 24C18.6274 24 24 18.6274 24 12C24 5.37258 18.6274 0 12 0C5.37258 0 0 5.37258 0 12C0 18.6274 5.37258 24 12 24Z" fill="#C3A634"/>
<path fill-rule="evenodd" clip-rule="evenodd" d="M9.78598 10.9575H13.0215V12.672H9.78598V16.2855H11.8267C12.6345 16.2855 13.2952 16.1768 13.8097 15.9578C14.3242 15.7395 14.7277 15.4372 15.021 15.0502C15.3209 14.6478 15.5251 14.1822 15.618 13.689C15.7263 13.1326 15.7791 12.5668 15.7755 12C15.7791 11.4332 15.7263 10.8674 15.618 10.311C15.5252 9.81772 15.321 9.35214 15.021 8.94975C14.7277 8.56275 14.3235 8.2605 13.8097 8.04225C13.2952 7.82325 12.6345 7.7145 11.8267 7.7145H9.78598V9.336V10.9575ZM7.71148 12.672H6.59998V10.9583H7.71148V6H12.6232C13.5307 6 14.316 6.1575 14.9797 6.47025C15.6435 6.7845 16.185 7.21275 16.6057 7.7565C17.0257 8.2995 17.3385 8.9355 17.5432 9.66375C17.748 10.392 17.85 11.1712 17.85 12C17.8551 12.7892 17.7517 13.5753 17.5425 14.3363C17.3385 15.0638 17.0257 15.7005 16.605 16.2435C16.185 16.7873 15.6435 17.2155 14.9797 17.5297C14.316 17.8432 13.53 18 12.6232 18H7.71148V12.672Z" fill="white"/>
</g>
<defs>
<clipPath id="clip0_1265_21984">
<rect width="24" height="24" fill="white"/>
</clipPath>
</defs>
</svg>