<svg width="24" height="24" viewBox="0 0 24 24" fill="none" xmlns="http://www.w3.org/2000/svg">
<path fill-rule="evenodd" clip-rule="evenodd" d="M21.1987 11.1667H16.1917C15.8621 11.1667 15.3029 11.0342 15.1694 10.7325C14.6245 9.5025 13.4103 8.7075 12.0759 8.7075C10.2191 8.7075 8.70863 10.2192 8.70863 12.0758C8.70863 13.4108 9.50225 14.625 10.7332 15.17C11.0344 15.3033 11.1846 15.8367 11.1846 16.1667V21.1667C11.1846 21.4142 11.1187 21.6492 10.9284 21.8075C10.7774 21.9333 10.5888 22 10.3952 22C10.3451 22 10.2942 21.9958 10.245 21.9858C5.46739 21.1083 2 16.94 2 12.0758C2 6.52 6.51971 2 12.0759 2C16.9402 2 21.1086 5.46667 21.9865 10.245C22.0308 10.4883 21.9648 10.7392 21.8071 10.9292C21.6486 11.1183 21.4466 11.1667 21.1987 11.1667ZM12.0759 3.66667C7.4385 3.66667 3.66651 7.43917 3.66651 12.0758C3.66651 15.7933 6.09244 19.0233 9.5615 20.1042V16.4408C8.01515 15.5425 7.04128 13.8833 7.04128 12.0758C7.04128 9.3 9.29946 7.04083 12.0759 7.04083C13.8834 7.04083 15.5416 8.01417 16.4412 9.56167H20.1047C19.024 6.0925 15.7936 3.66667 12.0759 3.66667ZM13.4186 15.17C14.2014 14.8225 14.8231 14.2008 15.1694 13.4183C15.3029 13.1175 15.862 12.8333 16.1917 12.8333H21.1987C21.4466 12.8333 21.6485 13.0325 21.8071 13.2225C21.9648 13.4125 22.0308 13.6633 21.9865 13.9067C21.2363 17.9892 17.9901 21.2367 13.9068 21.9858C13.8559 21.9958 13.8066 22 13.7566 22C13.563 22 13.3735 21.9333 13.2233 21.8067C13.0331 21.6483 12.9229 21.4142 12.9229 21.1667V15.9317C12.9229 15.6025 13.1173 15.3033 13.4186 15.17ZM14.5894 20.1033C17.2048 19.2825 19.5439 17.1158 20.3642 14.5H16.1917C15.746 15.2692 15.3588 15.995 14.5894 16.4408V20.1033Z" fill="#6B7084"/>
</svg>
