<svg viewBox="0 0 24 24" fill="none" xmlns="http://www.w3.org/2000/svg">
<path fill-rule="evenodd" clip-rule="evenodd" d="M19.0833 19.0508C19.0775 19.0567 19.0758 19.065 19.07 19.07C19.065 19.0758 19.0567 19.0775 19.0508 19.0833C17.2417 20.8842 14.7492 22 12 22C6.48583 22 2 17.5142 2 12C2 6.48583 6.48583 2 12 2C17.5142 2 22 6.48583 22 12C22 14.7492 20.8842 17.2417 19.0833 19.0508ZM18.4442 17.265C19.4542 16.0308 20.1242 14.5067 20.2908 12.8333H16.0842C15.9758 13.3642 15.7575 13.8525 15.4683 14.2892L18.4442 17.265ZM11.1667 3.70834C6.96167 4.12834 3.66667 7.68667 3.66667 12C3.66667 16.595 7.405 20.3333 12 20.3333C13.9983 20.3333 15.8283 19.62 17.2658 18.4433L14.2875 15.465C13.6292 15.9017 12.8475 16.1667 12 16.1667C9.7025 16.1667 7.83333 14.2975 7.83333 12C7.83333 9.9875 9.2675 8.305 11.1667 7.9175V3.70834ZM9.5 12C9.5 13.3783 10.6217 14.5 12 14.5C13.3792 14.5 14.5017 13.3783 14.5017 12C14.5017 10.6208 13.3792 9.5 12 9.5C10.6217 9.5 9.5 10.6208 9.5 12ZM12.8333 3.70834V7.9175C14.4633 8.25 15.7433 9.5375 16.0767 11.1667H20.2908C19.8983 7.23584 16.7642 4.10084 12.8333 3.70834Z" fill="currentColor"/>
</svg>