<svg viewBox="0 0 24 24" fill="none" xmlns="http://www.w3.org/2000/svg">
<g clip-path="url(#clip0_1265_21980)">
<path d="M12 24C18.6274 24 24 18.6274 24 12C24 5.37258 18.6274 0 12 0C5.37258 0 0 5.37258 0 12C0 18.6274 5.37258 24 12 24Z" fill="#E6007A"/>
<path d="M11.9997 5.5C9.28322 5.5 7.0636 7.70717 7.0636 10.4361C7.0636 10.9849 7.15446 11.5206 7.32447 12.0424C7.38465 12.2146 7.51006 12.3564 7.67369 12.4371C7.83733 12.5178 8.02612 12.531 8.19943 12.474C8.37154 12.4136 8.51312 12.2882 8.59369 12.1246C8.67427 11.9609 8.68742 11.7722 8.63031 11.599C8.48703 11.1922 8.42068 10.7623 8.43465 10.3313C8.48668 8.49052 9.97571 6.97511 11.8172 6.88424C12.2996 6.8589 12.7821 6.93194 13.2353 7.09894C13.6886 7.26593 14.1031 7.52338 14.4537 7.85563C14.8043 8.18787 15.0837 8.58797 15.2748 9.03158C15.4659 9.4752 15.5648 9.95305 15.5654 10.4361C15.5644 11.3445 15.2163 12.2182 14.5925 12.8785C13.9687 13.5389 13.1161 13.936 12.2093 13.9887C12.2093 13.9887 11.5168 14.0275 11.1775 14.0803C11.0075 14.1059 10.877 14.1323 10.7854 14.1455C10.7459 14.1587 10.707 14.1191 10.7195 14.0795L10.8375 13.5057L11.4772 10.5541C11.5145 10.3776 11.4806 10.1935 11.3829 10.0419C11.2852 9.89024 11.1316 9.78331 10.9555 9.74433C10.7789 9.70706 10.5947 9.74105 10.443 9.83891C10.2914 9.93676 10.1845 10.0906 10.1457 10.2668C10.1457 10.2668 8.60466 17.4496 8.59147 17.528C8.5542 17.7046 8.58819 17.8888 8.68605 18.0404C8.7839 18.1921 8.93769 18.299 9.11395 18.3378C9.29054 18.375 9.4747 18.341 9.62635 18.2432C9.778 18.1453 9.88487 17.9915 9.92368 17.8153C9.93614 17.7369 10.1457 16.7835 10.1457 16.7835C10.2199 16.434 10.4002 16.1159 10.662 15.8727C10.9238 15.6295 11.2543 15.4731 11.6084 15.4249C11.8645 15.3969 12.1213 15.3751 12.3785 15.3597C13.6184 15.2631 14.7763 14.7025 15.6211 13.7899C16.4659 12.8773 16.9356 11.6797 16.9365 10.4361C16.9365 7.70717 14.7161 5.5 11.9997 5.5ZM12.3522 16.8619C12.2458 16.839 12.136 16.8374 12.029 16.8572C11.9221 16.877 11.8201 16.9179 11.7291 16.9774C11.638 17.0369 11.5597 17.1138 11.4986 17.2038C11.4375 17.2938 11.3948 17.3951 11.3731 17.5017C11.2815 17.9457 11.5563 18.3898 12.0129 18.4814C12.1193 18.5044 12.2293 18.5061 12.3363 18.4863C12.4434 18.4665 12.5455 18.4256 12.6366 18.366C12.7278 18.3064 12.8062 18.2293 12.8673 18.1392C12.9284 18.049 12.971 17.9477 12.9926 17.8409C13.0835 17.3844 12.8094 16.9528 12.3522 16.8619Z" fill="white"/>
</g>
<defs>
<clipPath id="clip0_1265_21980">
<rect width="24" height="24" fill="white"/>
</clipPath>
</defs>
</svg>