<svg viewBox="0 0 24 24" fill="none" xmlns="http://www.w3.org/2000/svg">
<path fill-rule="evenodd" clip-rule="evenodd" d="M20.7807 12.5256L18.5336 14.7731C18.387 14.9191 18.1959 14.9929 18.004 14.9929C17.8121 14.9929 17.6209 14.9191 17.4743 14.7731C17.1819 14.4803 17.1819 14.0061 17.4743 13.7141L18.443 12.7446H12.7361V18.4552L13.7176 17.473C14.01 17.1809 14.4845 17.1809 14.7769 17.473C15.0693 17.7657 15.0693 18.2407 14.7769 18.5327L12.5298 20.7802C12.3833 20.927 12.1921 21 12.0002 21C11.809 21 11.6171 20.927 11.4705 20.7802L9.22346 18.5327C8.93105 18.2407 8.93105 17.7657 9.22346 17.473C9.51662 17.1809 9.99037 17.1809 10.2828 17.473L11.2983 18.4891V12.7446H5.55591L6.52456 13.7141C6.81772 14.0061 6.81772 14.4803 6.52456 14.7731C6.37873 14.9191 6.18682 14.9929 5.9949 14.9929C5.80374 14.9929 5.61182 14.9191 5.466 14.7731L3.21893 12.5256C3.21666 12.5233 3.21666 12.5211 3.21515 12.5196C3.1479 12.4518 3.09426 12.3713 3.05723 12.2817C2.98092 12.0988 2.98092 11.8926 3.05723 11.709C3.09426 11.6194 3.1479 11.5396 3.21515 11.4711C3.21666 11.4696 3.21666 11.4673 3.21893 11.4658L5.466 9.21834C5.75841 8.9248 6.23215 8.9248 6.52456 9.21834C6.81772 9.51038 6.81772 9.98457 6.52456 10.2774L5.55591 11.2461H11.2983V5.50313L10.2835 6.51924C9.99037 6.81204 9.51662 6.81128 9.22346 6.51924C8.93105 6.22721 8.93105 5.75227 9.22346 5.46023L11.4705 3.21047C11.4751 3.20596 11.4826 3.20445 11.4879 3.19918C11.5491 3.13596 11.6254 3.08779 11.7123 3.05392C11.9843 2.94704 12.319 2.99897 12.5306 3.21047L14.7769 5.46023C15.0693 5.75227 15.0693 6.22721 14.7769 6.51924C14.6303 6.66526 14.4392 6.73903 14.2473 6.73903C14.0553 6.73903 13.8634 6.66526 13.7176 6.51924L12.7361 5.537V11.2461H18.443L17.4743 10.2774C17.1819 9.98457 17.1819 9.51038 17.4743 9.21834C17.7667 8.9248 18.2405 8.9248 18.5336 9.21834L20.7807 11.4658C21.0731 11.7579 21.0731 12.2328 20.7807 12.5256Z" fill="currentColor"/>
</svg>