<svg width="24" height="24" viewBox="0 0 24 24" fill="none" xmlns="http://www.w3.org/2000/svg">
<g clip-path="url(#clip0_1265_21966)">
<path d="M12 24C18.6274 24 24 18.6274 24 12C24 5.37258 18.6274 0 12 0C5.37258 0 0 5.37258 0 12C0 18.6274 5.37258 24 12 24Z" fill="#242D3D"/>
<path d="M16.1104 13.0422C15.8039 11.6919 14.8508 10.2031 14.8508 10.2031C15.9491 13.2002 15.5262 15.4607 15.2353 16.7431C15.2353 16.7431 14.8514 18.1774 15.6776 16.9823C16.7079 15.4868 16.1104 13.0422 16.1104 13.0422Z" fill="white"/>
<path d="M13.3975 7.72559C13.9688 9.76074 14.2275 11.4882 14.3082 12.9286C14.4501 15.3833 14.0757 16.9984 13.8431 17.8513C13.7685 18.1289 14.079 18.3353 14.2598 18.1255L14.2631 18.1222C14.7149 17.6054 14.9285 16.3947 15.0287 15.3321L15.0576 14.9833C15.1511 13.7036 15.0966 12.4123 14.7961 11.175C14.2437 8.89171 13.3975 7.72559 13.3975 7.72559ZM12.3738 11.3107C12.2347 7.96816 11.9826 5 11.9826 5C11.9826 5 11.7278 7.81961 11.5887 11.0876C11.5665 11.6179 11.5465 12.157 11.5303 12.6994C11.5081 13.4878 11.4981 14.2795 11.4981 15.0444C11.5014 16.4042 11.5537 17.6799 11.6761 18.6975C11.7245 19.1008 12.2475 19.1008 12.2959 18.6975C12.3799 18.0031 12.4283 17.1503 12.4478 16.2134C12.4658 15.2004 12.4616 14.1873 12.435 13.1745C12.4183 12.5542 12.3994 11.9277 12.3738 11.3107ZM8.46925 15.3382C8.39302 14.7082 8.37552 14.0726 8.41696 13.4394C8.44923 12.942 8.52044 12.409 8.64339 11.8404C8.75633 11.3202 8.911 10.7744 9.1213 10.1997C9.1213 10.1997 8.44923 11.2495 8.05533 12.3828C7.97744 12.5998 7.91345 12.8224 7.8645 13.0388C7.8645 13.0388 7.73876 13.6074 7.71984 14.3663C7.70649 14.8926 7.74822 15.5157 7.91624 16.1038C8.00116 16.4116 8.12849 16.7061 8.29456 16.9789C8.29456 16.9789 9.1213 18.2096 8.73686 16.7397C8.61726 16.2788 8.52768 15.8107 8.4687 15.3382H8.46925Z" fill="white"/>
<path d="M9.64751 14.6795C9.62054 14.014 9.63131 13.3475 9.67978 12.6833C9.71334 12.1929 9.76512 11.7039 9.835 11.2173C9.97965 10.1708 10.2161 9.01132 10.575 7.72559C10.575 7.72559 9.72484 8.89171 9.17293 11.175C9.14345 11.2974 9.1173 11.4203 9.09171 11.54C8.99156 12.0373 8.92703 12.5414 8.89476 13.0516C8.85581 13.6914 8.86583 14.3368 8.91145 14.9799L8.94038 15.3321C9.04052 16.3947 9.25027 17.6054 9.70537 18.1222L9.70871 18.1255C9.88952 18.3325 10.2027 18.1255 10.126 17.8513C9.9574 17.2215 9.70871 16.175 9.64751 14.6795Z" fill="white"/>
<path d="M11.0592 14.8051C11.0409 14.0645 11.0376 13.3237 11.0492 12.583C11.0558 12.0956 11.0686 11.5815 11.0914 11.0424C11.1465 9.65043 11.408 7.63809 11.5888 5.93286C11.5888 5.93286 10.6975 7.77718 10.2903 11.1042C10.2358 11.5593 10.184 12.05 10.1451 12.5802L10.1161 12.9741C10.1161 12.9741 10.0677 13.6779 10.0867 14.6276C10.1128 15.8482 10.248 17.4761 10.7521 18.5421C10.7688 18.5744 10.7877 18.6033 10.8133 18.6256L10.8166 18.6295C11.0074 18.8103 11.3012 18.6389 11.2756 18.358C11.1571 17.1769 11.0847 15.9917 11.0586 14.8051H11.0592ZM12.9063 14.8051C12.923 14.1397 12.9291 13.3975 12.9163 12.583C12.9096 12.0956 12.8968 11.5815 12.874 11.0424C12.8195 9.65043 12.558 7.63809 12.3766 5.93286C12.3766 5.93286 13.2685 7.77718 13.6752 11.1042C13.7302 11.5593 13.782 12.05 13.8204 12.5802L13.8499 12.9741C13.8499 12.9741 13.8983 13.6779 13.8788 14.6276C13.8526 15.8482 13.7174 17.4761 13.2134 18.5421C13.1986 18.5736 13.1778 18.602 13.1522 18.6256L13.1488 18.6295C12.958 18.8103 12.6648 18.6389 12.6904 18.358C12.7549 17.7476 12.8645 16.5364 12.9063 14.8051Z" fill="white"/>
</g>
<defs>
<clipPath id="clip0_1265_21966">
<rect width="24" height="24" fill="white"/>
</clipPath>
</defs>
</svg>
