<svg width="24" height="24" viewBox="0 0 24 24" fill="none" xmlns="http://www.w3.org/2000/svg">
<g clip-path="url(#clip0_1265_21962)">
<path d="M12 24C18.6274 24 24 18.6274 24 12C24 5.37258 18.6274 0 12 0C5.37258 0 0 5.37258 0 12C0 18.6274 5.37258 24 12 24Z" fill="#74D269"/>
<path d="M17.9241 10.9584H17.9381L17.95 14.4346L10.1261 19L8.03175 17.8226V17.824L8.01845 17.8156L6.05005 16.5535V7.4388L8.20115 6.1697L8.20535 6.1718L10.1044 5L17.9094 9.5941L17.9241 10.9584ZM15.6316 13.1368L13.9943 12.1995L8.52945 15.4153L10.1338 16.3694L15.6316 13.1368ZM13.6254 11.9888L10.2542 10.0582L10.2395 14.0349L13.6254 11.9888ZM10.2556 9.6326L15.675 12.8043V10.9108L10.2626 7.7503L10.2556 9.6326ZM8.02405 17.299L8.04505 15.3999L8.03245 15.4076V8.7072L6.38955 7.7272V16.3232L8.02405 17.299ZM8.31525 15.1983L9.95675 14.2057V7.7272L8.31525 8.7079V15.1983ZM10.3319 16.62L10.299 18.6052L17.6042 14.31L17.6252 12.336L10.3319 16.62ZM15.787 10.6112L17.4873 9.641L10.1688 5.3675L8.48465 6.3419L15.787 10.6112Z" fill="white"/>
</g>
<defs>
<clipPath id="clip0_1265_21962">
<rect width="24" height="24" fill="white"/>
</clipPath>
</defs>
</svg>
