<svg width="24" height="24" viewBox="0 0 24 24" fill="none" xmlns="http://www.w3.org/2000/svg">
<g clip-path="url(#clip0_1265_21956)">
<path d="M12 24C18.6274 24 24 18.6274 24 12C24 5.37258 18.6274 0 12 0C5.37258 0 0 5.37258 0 12C0 18.6274 5.37258 24 12 24Z" fill="#3C80F1"/>
<path d="M11.9999 5C8.82614 5.00232 6.25348 7.57382 6.25 10.747C6.2529 11.0568 6.28771 11.3655 6.35328 11.6684C6.35662 11.6827 6.36344 11.696 6.37315 11.707C6.38286 11.7181 6.39515 11.7266 6.40892 11.7317C6.4227 11.7369 6.43754 11.7386 6.45213 11.7367C6.46671 11.7347 6.48059 11.7292 6.49253 11.7206C6.71219 11.5633 6.97548 11.4785 7.24564 11.4781C7.2587 11.4785 7.27169 11.476 7.28367 11.4708C7.29565 11.4656 7.30633 11.4578 7.31494 11.448C7.32355 11.4382 7.32986 11.4266 7.33343 11.414C7.337 11.4014 7.33773 11.3882 7.33557 11.3754C7.29737 11.1702 7.27756 10.962 7.27639 10.7534C7.27639 10.1331 7.39855 9.519 7.6359 8.94599C7.87325 8.37298 8.22114 7.85233 8.6597 7.41376C9.09827 6.9752 9.61892 6.62731 10.1919 6.38996C10.7649 6.15262 11.3791 6.03045 11.9993 6.03045C12.6195 6.03045 13.2337 6.15262 13.8067 6.38996C14.3797 6.62731 14.9004 6.9752 15.3389 7.41376C15.7775 7.85233 16.1254 8.37298 16.3627 8.94599C16.6001 9.519 16.7222 10.1331 16.7222 10.7534C16.7222 13.3585 13.3895 16.686 12.1966 17.861C12.1441 17.9125 12.0735 17.9413 11.9999 17.9413C11.9263 17.9413 11.8557 17.9125 11.8032 17.861C11.2982 17.3681 10.8081 16.8602 10.3335 16.3379H10.3103C9.85393 16.293 9.40587 16.1857 8.97873 16.0188L8.89982 15.9869C8.88155 15.9785 8.86094 15.9765 8.84143 15.9814C8.82191 15.9863 8.80466 15.9978 8.79253 16.0138C8.78041 16.0299 8.77413 16.0496 8.77476 16.0697C8.77538 16.0898 8.78287 16.1091 8.79597 16.1244C9.53454 17.007 10.3183 17.8508 11.1441 18.6524C11.3726 18.8752 11.6792 19 11.9984 19C12.3177 19 12.6243 18.8752 12.8528 18.6524C14.9532 16.5775 17.7498 13.5082 17.7498 10.747C17.7463 7.57324 15.1736 5.00232 11.9999 5Z" fill="white"/>
<path d="M14.3902 11.3284C14.3902 11.4097 14.3838 11.4891 14.3763 11.5681C14.3554 11.8702 14.2855 12.1669 14.1692 12.4465C14.0438 12.725 13.8767 12.982 13.6742 13.21L13.68 13.2153C13.2789 13.6635 12.7836 14.0174 12.2295 14.2515C11.6808 14.4876 11.0821 14.5837 10.4871 14.5312C9.92014 14.4748 9.3782 14.2692 8.91651 13.9353C9.06562 13.9307 9.21358 13.908 9.35747 13.868C9.48741 13.8321 9.61192 13.7788 9.72764 13.7096C9.97784 13.5602 10.1719 13.3327 10.28 13.0621C10.3305 12.9385 10.3647 12.8097 10.3833 12.6774C10.3949 12.5672 10.3978 12.4552 10.3937 12.3438V8.57823C10.3935 8.57456 10.3935 8.57087 10.3937 8.5672V8.54748C10.4021 8.5021 10.4247 8.46055 10.4581 8.42877C10.4916 8.39698 10.5342 8.37659 10.58 8.37051H11.8234C12.1181 8.39372 12.4065 8.47089 12.6734 8.59853C13.2296 8.86151 13.6948 9.2843 14.0096 9.81291C14.0862 9.94288 14.1535 10.0787 14.2098 10.2191C14.2637 10.3583 14.3067 10.5034 14.3374 10.6496C14.3682 10.7958 14.3856 10.9443 14.3896 11.0934V11.329L14.3902 11.3284ZM15.4137 11.058C15.4074 10.8491 15.3824 10.6411 15.3389 10.4366C15.2526 10.0322 15.1005 9.64469 14.8886 9.28956C14.4686 8.58327 13.8469 8.01886 13.1033 7.66904C12.7234 7.48864 12.3135 7.37968 11.8942 7.3476C11.8414 7.3476 11.7903 7.3476 11.7323 7.3418H10.573C10.5359 7.3418 10.4976 7.3418 10.4599 7.34992C10.3084 7.36733 10.1611 7.41374 10.0259 7.48569C9.84003 7.58499 9.68247 7.7299 9.56799 7.90679C9.45351 8.08369 9.38586 8.28678 9.37139 8.497V12.3438C9.37139 12.4111 9.36675 12.4784 9.35747 12.5451C9.35167 12.5904 9.34064 12.6345 9.3244 12.6774C9.3117 12.7094 9.29408 12.7391 9.27218 12.7656C9.21866 12.823 9.14913 12.8631 9.07259 12.8805C8.95828 12.9095 8.8405 12.9188 8.72272 12.9078C8.30259 12.8666 7.90728 12.6898 7.59653 12.4041C7.50728 12.3216 7.39161 12.2734 7.27015 12.2682C7.14868 12.263 7.02933 12.3012 6.93336 12.3758C6.8374 12.4504 6.77107 12.5567 6.7462 12.6758C6.72133 12.7948 6.73954 12.9187 6.79758 13.0255C7.15961 13.6868 7.65656 14.2646 8.25623 14.7215C8.5655 14.9522 8.90426 15.1405 9.26347 15.2814C9.62403 15.4221 10.0022 15.5127 10.3873 15.5506C11.152 15.6214 11.9222 15.501 12.6287 15.2002C13.3324 14.9091 13.9564 14.4542 14.4488 13.8732L14.4552 13.8785C14.7269 13.5713 14.9499 13.2244 15.1166 12.8497C15.2747 12.4682 15.3697 12.0636 15.398 11.6516C15.4062 11.5483 15.4114 11.4549 15.4149 11.3563V11.2106C15.4189 11.1677 15.4155 11.1091 15.4149 11.058H15.4137Z" fill="white"/>
</g>
<defs>
<clipPath id="clip0_1265_21956">
<rect width="24" height="24" fill="white"/>
</clipPath>
</defs>
</svg>
