<svg width="24" height="24" viewBox="0 0 24 24" fill="none" xmlns="http://www.w3.org/2000/svg">
<g clip-path="url(#clip0_1265_21950)">
<path d="M12 24C18.6274 24 24 18.6274 24 12C24 5.37258 18.6274 0 12 0C5.37258 0 0 5.37258 0 12C0 18.6274 5.37258 24 12 24Z" fill="#121747"/>
<path d="M13.2527 16.2099C13.2527 16.9107 12.6896 17.4793 11.9943 17.4793C11.299 17.4793 10.7365 16.9107 10.7365 16.2093V7.76944C10.7365 7.06861 11.2996 6.5 11.9943 6.5C12.689 6.5 13.2527 7.06861 13.2527 7.77005V16.2099ZM9.01715 16.213C9.02123 16.437 8.96588 16.6581 8.85676 16.8537C8.74763 17.0494 8.58862 17.2127 8.3959 17.3269C8.20423 17.4402 7.98566 17.5 7.76302 17.5C7.54037 17.5 7.3218 17.4402 7.13013 17.3269C6.93753 17.2126 6.77863 17.0493 6.66962 16.8536C6.56061 16.658 6.50536 16.4369 6.50949 16.213V14.3155C6.50536 14.0916 6.56061 13.8705 6.66962 13.6749C6.77863 13.4792 6.93753 13.3159 7.13013 13.2016C7.3218 13.0883 7.54037 13.0285 7.76302 13.0285C7.98566 13.0285 8.20423 13.0883 8.3959 13.2016C8.58851 13.3159 8.7474 13.4792 8.85641 13.6749C8.96543 13.8705 9.02068 14.0916 9.01654 14.3155L9.01715 16.213Z" fill="white"/>
<path opacity="0.5" d="M17.4907 12.8619C17.4907 13.5628 16.9276 14.1314 16.2323 14.1314C15.537 14.1314 14.9739 13.5621 14.9739 12.8613V9.65835C14.9739 8.95692 15.537 8.38831 16.2323 8.38831C16.9276 8.38831 17.4907 8.95692 17.4907 9.65835V12.8619Z" fill="white"/>
</g>
<defs>
<clipPath id="clip0_1265_21950">
<rect width="24" height="24" fill="white"/>
</clipPath>
</defs>
</svg>
