<svg viewBox="0 0 24 24" fill="none" xmlns="http://www.w3.org/2000/svg">
<rect width="23.9999" height="23.9999" fill="#D8D8D8" fill-opacity="0.01"/>
<path fill-rule="evenodd" clip-rule="evenodd" d="M12.0002 1.93798C17.6502 1.93798 22.2302 6.44307 22.2302 12.0002C22.2302 17.5576 17.6502 22.0625 12.0002 22.0625C6.35048 22.0625 1.7705 17.5576 1.7705 12.0002C1.7705 6.44307 6.35048 1.93798 12.0002 1.93798Z" fill="#DE5833"/>
<mask id="mask0_112_5759" style="mask-type:alpha" maskUnits="userSpaceOnUse" x="1" y="1" width="22" height="22">
<path fill-rule="evenodd" clip-rule="evenodd" d="M1.73022 11.9723C1.73022 17.5424 6.33719 22.0747 11.9998 22.0747C17.6635 22.0747 22.2705 17.5426 22.2705 11.9723C22.2705 6.40254 17.6633 1.87108 11.9998 1.87108C6.33739 1.87108 1.73022 6.40254 1.73022 11.9723Z" fill="white"/>
</mask>
<g mask="url(#mask0_112_5759)">
<path fill-rule="evenodd" clip-rule="evenodd" d="M16.1924 26.9885C15.832 25.3587 13.7398 21.6694 12.9464 20.1094C12.1534 18.549 11.3588 16.3501 11.7206 14.9313C11.7862 14.6732 11.0334 12.7068 11.2498 12.5677C12.9328 11.4879 13.3762 12.6856 14.05 12.2015C14.3968 11.951 14.8682 12.4074 14.988 11.9929C15.4196 10.5043 14.3868 7.90901 13.2338 6.77472C12.8566 6.40509 12.2796 6.17276 11.6278 6.04942C11.3768 5.71243 10.9726 5.38844 10.4003 5.08962C9.76266 4.75578 8.37586 4.31493 7.65687 4.19749C7.15847 4.11684 7.04587 4.25395 6.83307 4.28818C7.03127 4.30549 7.97266 4.76306 8.15586 4.78962C7.97266 4.91139 7.43447 4.78411 7.09127 4.93559C6.91807 5.0127 6.78867 5.30483 6.79007 5.44312C7.77187 5.34555 9.30486 5.43998 10.2099 5.83657C9.48946 5.91722 8.39386 6.00712 7.92266 6.25066C6.55327 6.96043 5.94807 8.61819 6.30887 10.6047C6.66967 12.5866 8.25626 19.8208 8.76126 22.2365C9.26626 24.6489 7.67967 26.2081 6.67027 26.634L7.75167 26.7054L7.39167 27.4856C8.68826 27.6273 10.1305 27.2028 10.1305 27.2028C9.84286 27.9827 7.89547 28.2674 7.89547 28.2674C7.89547 28.2674 8.83366 28.5501 10.3469 27.9827C11.8626 27.4156 12.7994 27.0605 12.7994 27.0605L13.5204 28.9044L14.891 27.5574L15.4682 28.976C15.471 28.9758 16.553 28.6203 16.1924 26.9885Z" fill="#D5D7D8"/>
</g>
<mask id="mask1_112_5759" style="mask-type:alpha" maskUnits="userSpaceOnUse" x="1" y="1" width="22" height="22">
<path fill-rule="evenodd" clip-rule="evenodd" d="M1.73022 11.9723C1.73022 17.5424 6.33719 22.0747 11.9998 22.0747C17.6635 22.0747 22.2705 17.5426 22.2705 11.9723C22.2705 6.40254 17.6633 1.87108 11.9998 1.87108C6.33739 1.87108 1.73022 6.40254 1.73022 11.9723Z" fill="white"/>
</mask>
<g mask="url(#mask1_112_5759)">
<path fill-rule="evenodd" clip-rule="evenodd" d="M16.6278 26.6577C16.2688 25.0272 14.1766 21.3377 13.382 19.7766C12.5882 18.2154 11.7952 16.0171 12.1562 14.5989C12.2232 14.3414 12.2242 13.287 12.442 13.1471C14.124 12.0665 14.0044 13.1109 14.6794 12.6268C15.0274 12.3767 15.306 12.075 15.427 11.6607C15.8598 10.1709 14.8258 7.57657 13.6724 6.44169C13.2966 6.07206 12.7188 5.83934 12.0678 5.71658C11.8174 5.37881 11.4136 5.05541 10.8418 4.7562C9.76361 4.19338 8.42702 3.96833 7.18862 4.18925C7.38662 4.20695 7.83982 4.60964 8.02222 4.63639C7.74602 4.82052 7.01162 4.79672 7.01642 5.20609C7.99962 5.10911 9.07701 5.26196 9.98321 5.65776C9.26281 5.73862 8.59222 5.9135 8.12102 6.15802C6.75022 6.86681 6.38983 8.28496 6.75022 10.2724C7.11162 12.2587 8.69861 19.4931 9.20141 21.9035C9.70681 24.3155 8.12102 25.8749 7.11162 26.3012L8.19322 26.3718L7.83302 27.1534C9.12981 27.295 10.572 26.8701 10.572 26.8701C10.2844 27.6521 8.33682 27.9336 8.33682 27.9336C8.33682 27.9336 9.27401 28.2169 10.7884 27.6493C12.3046 27.0822 13.2422 26.7273 13.2422 26.7273L13.963 28.5712L15.3336 27.2228L15.9118 28.6424C15.9086 28.6437 16.9894 28.2887 16.6278 26.6577Z" fill="white"/>
</g>
<mask id="mask2_112_5759" style="mask-type:alpha" maskUnits="userSpaceOnUse" x="1" y="1" width="22" height="22">
<path fill-rule="evenodd" clip-rule="evenodd" d="M1.73022 11.9723C1.73022 17.5424 6.33719 22.0747 11.9998 22.0747C17.6635 22.0747 22.2705 17.5426 22.2705 11.9723C22.2705 6.40254 17.6633 1.87108 11.9998 1.87108C6.33739 1.87108 1.73022 6.40254 1.73022 11.9723Z" fill="white"/>
</mask>
<g mask="url(#mask2_112_5759)">
<path fill-rule="evenodd" clip-rule="evenodd" d="M8.33779 10.3721C8.33779 9.96039 8.67639 9.62715 9.09558 9.62715C9.51358 9.62715 9.85258 9.96039 9.85258 10.3721C9.85258 10.7841 9.51358 11.1169 9.09558 11.1169C8.67639 11.1171 8.33779 10.7841 8.33779 10.3721Z" fill="#2D4F8E"/>
</g>
<mask id="mask3_112_5759" style="mask-type:alpha" maskUnits="userSpaceOnUse" x="1" y="1" width="22" height="22">
<path fill-rule="evenodd" clip-rule="evenodd" d="M1.73022 11.9723C1.73022 17.5424 6.33719 22.0747 11.9998 22.0747C17.6635 22.0747 22.2705 17.5426 22.2705 11.9723C22.2705 6.40254 17.6633 1.87108 11.9998 1.87108C6.33739 1.87108 1.73022 6.40254 1.73022 11.9723Z" fill="white"/>
</mask>
<g mask="url(#mask3_112_5759)">
<path fill-rule="evenodd" clip-rule="evenodd" d="M9.235 10.1237C9.235 10.0165 9.3232 9.93037 9.431 9.93037C9.5396 9.93037 9.6278 10.0165 9.6278 10.1237C9.6278 10.2306 9.5396 10.3173 9.431 10.3173C9.3234 10.3175 9.235 10.2306 9.235 10.1237Z" fill="white"/>
</g>
<mask id="mask4_112_5759" style="mask-type:alpha" maskUnits="userSpaceOnUse" x="1" y="1" width="22" height="22">
<path fill-rule="evenodd" clip-rule="evenodd" d="M1.73022 11.9723C1.73022 17.5424 6.33719 22.0747 11.9998 22.0747C17.6635 22.0747 22.2705 17.5426 22.2705 11.9723C22.2705 6.40254 17.6633 1.87108 11.9998 1.87108C6.33739 1.87108 1.73022 6.40254 1.73022 11.9723Z" fill="white"/>
</mask>
<g mask="url(#mask4_112_5759)">
<path fill-rule="evenodd" clip-rule="evenodd" d="M13.5069 9.93031C13.5069 9.57759 13.7991 9.29097 14.1573 9.29097C14.5177 9.29097 14.8087 9.57759 14.8087 9.93031C14.8087 10.2846 14.5177 10.5712 14.1573 10.5712C13.7991 10.5712 13.5069 10.2846 13.5069 9.93031Z" fill="#2D4F8E"/>
</g>
<mask id="mask5_112_5759" style="mask-type:alpha" maskUnits="userSpaceOnUse" x="1" y="1" width="22" height="22">
<path fill-rule="evenodd" clip-rule="evenodd" d="M1.73022 11.9723C1.73022 17.5424 6.33719 22.0747 11.9998 22.0747C17.6635 22.0747 22.2705 17.5426 22.2705 11.9723C22.2705 6.40254 17.6633 1.87108 11.9998 1.87108C6.33739 1.87108 1.73022 6.40254 1.73022 11.9723Z" fill="white"/>
</mask>
<g mask="url(#mask5_112_5759)">
<path fill-rule="evenodd" clip-rule="evenodd" d="M14.2786 9.71742C14.2786 9.62634 14.3544 9.55159 14.4462 9.55159C14.542 9.55159 14.6154 9.62634 14.6154 9.71742C14.6154 9.80968 14.542 9.88306 14.4462 9.88306C14.3544 9.88306 14.2786 9.80968 14.2786 9.71742Z" fill="white"/>
</g>
<mask id="mask6_112_5759" style="mask-type:alpha" maskUnits="userSpaceOnUse" x="7" y="7" width="3" height="2">
<path fill-rule="evenodd" clip-rule="evenodd" d="M8.14236 8.03338C7.35716 8.3499 7.65176 8.99574 7.65176 8.99574C7.65176 8.99574 7.63136 8.64538 8.18536 8.30269C8.74035 7.95941 9.31115 8.21358 9.31115 8.21358C9.31115 8.21358 9.09095 7.92774 8.64175 7.92794C8.49855 7.92794 8.33216 7.95686 8.14236 8.03338Z" fill="white"/>
</mask>
<g mask="url(#mask6_112_5759)">
<path fill-rule="evenodd" clip-rule="evenodd" d="M7.60738 8.99564H7.35738V7.71676H7.60738V8.99564ZM7.63388 8.99564H7.60739V7.71676H7.63388H7.63399H7.66068V8.99564H7.63399H7.63388ZM7.68767 8.99564H7.66108V7.71676H7.68767V8.99564ZM7.68774 8.99564H7.71422H7.71433H7.74091H7.74102H7.76751V7.71676H7.74102H7.74091H7.71433H7.71422H7.68774V8.99564ZM7.79417 8.99564H7.76757V7.71676H7.79417V8.99564ZM7.79428 8.99564H7.82104H7.82108H7.84764V7.71676H7.82108H7.82104H7.79428V8.99564ZM7.84784 8.99564H7.87411H7.87444H7.90091V7.71676H7.87444H7.87411H7.84784V8.99564ZM7.90109 8.99564H7.92768H7.92769H7.95428V7.71676H7.92769H7.92768H7.90109V8.99564ZM7.95446 8.99564H7.98114H7.98125H8.00774V7.71676H7.98125H7.98114H7.95446V8.99564ZM8.0078 8.99564H8.03429H8.0344H8.06109V7.71676H8.0344H8.03429H8.0078V8.99564ZM8.06149 8.99564H8.08807H8.08809H8.11463H8.11467H8.14132H8.14143H8.16791H8.16792H8.19451V7.71676H8.16792H8.16791H8.14143H8.14132H8.11467H8.11463H8.08809H8.08807H8.06149V8.99564ZM8.22138 8.99564H8.19469V7.71676H8.22138H8.22149H8.24797V8.99564H8.22149H8.22138ZM8.27452 8.99564H8.24825V7.71676H8.27452H8.27485H8.30132V8.99564H8.27485H8.27452ZM8.32809 8.99564H8.3015V7.71676H8.32809H8.3281H8.35469V8.99564H8.3281H8.32809ZM8.38155 8.99564H8.35487V7.71676H8.38155H8.38167H8.40814H8.40815H8.4347H8.43474H8.4615V8.99564H8.43474H8.4347H8.40815H8.40814H8.38167H8.38155ZM8.48821 8.99564H8.46161V7.71676H8.48821V8.99564ZM8.48849 8.99564H8.51497H8.51509H8.54173H8.54177H8.56832H8.56833H8.59492V7.71676H8.56833H8.56832H8.54177H8.54173H8.51509H8.51497H8.48849V8.99564ZM8.5951 8.99564H8.62179H8.6219H8.64839V7.71676H8.6219H8.62179H8.5951V8.99564ZM8.64867 8.99564H8.67493H8.67527H8.70173V7.71676H8.67527H8.67493H8.64867V8.99564ZM8.70213 8.99564H8.7285H8.72873H8.7551V7.71676H8.72873H8.7285H8.70213V8.99564ZM8.75521 8.99564H8.78191H8.78201H9.31131V7.71676H8.78201H8.78191H8.75521V8.99564Z" fill="#394A9F"/>
</g>
<mask id="mask7_112_5759" style="mask-type:alpha" maskUnits="userSpaceOnUse" x="12" y="7" width="3" height="2">
<path fill-rule="evenodd" clip-rule="evenodd" d="M12.9884 8.22853C12.9884 8.22853 13.1664 7.94427 13.8208 7.93581C14.1392 7.93187 14.5494 8.16243 14.5494 8.16243C14.5494 8.16243 14.3882 7.76092 13.9348 7.68676C13.8586 7.67437 13.7886 7.66866 13.7238 7.66866C13.079 7.66866 12.9884 8.22853 12.9884 8.22853Z" fill="white"/>
</mask>
<g mask="url(#mask7_112_5759)">
<path fill-rule="evenodd" clip-rule="evenodd" d="M12.9972 8.22844H12.9884V7.55074H12.9972V8.22844ZM13.0213 8.22844H12.9973V7.55074H13.0213H13.0215H13.0457V8.22844H13.0215H13.0213ZM13.0701 8.22844H13.0459V7.55074H13.0701V8.22844ZM13.0702 8.22844H13.0944H13.0946H13.1186V7.55074H13.0946H13.0944H13.0702V8.22844ZM13.1187 8.22844H13.143H13.1431H13.1672V7.55074H13.1431H13.143H13.1187V8.22844ZM13.1674 8.22844H13.1918V7.55074H13.1674V8.22844ZM13.2161 8.22844H13.1919V7.55074H13.2161V8.22844ZM13.2161 8.22844H13.2404H13.2405H13.2646V7.55074H13.2405H13.2404H13.2161V8.22844ZM13.2648 8.22844H13.289H13.2892H13.3132V7.55074H13.2892H13.289H13.2648V8.22844ZM13.3133 8.22844H13.3376H13.3377H13.3618V7.55074H13.3377H13.3376H13.3133V8.22844ZM13.3619 8.22844H13.3862H13.3863H13.4104V7.55074H13.3863H13.3862H13.3619V8.22844ZM13.4105 8.22844H13.4348H13.4349H13.459V7.55074H13.4349H13.4348H13.4105V8.22844ZM13.4591 8.22844H13.4835V7.55074H13.4591V8.22844ZM13.5078 8.22844H13.4836V7.55074H13.5078V8.22844ZM13.5079 8.22844H13.5322H13.5323H13.5564V7.55074H13.5323H13.5322H13.5079V8.22844ZM13.5565 8.22844H13.5808H13.5809H13.605V7.55074H13.5809H13.5808H13.5565V8.22844ZM13.6051 8.22844H13.6293H13.6295H13.6535V7.55074H13.6295H13.6293H13.6051V8.22844ZM13.6537 8.22844H13.678H13.6781H13.7022V7.55074H13.6781H13.678H13.6537V8.22844ZM13.7022 8.22844H13.7266V7.55074H13.7022V8.22844ZM13.7508 8.22844H13.7267V7.55074H13.7508H13.7509H13.7752V8.22844H13.7509H13.7508ZM13.7996 8.22844H13.7754V7.55074H13.7996V8.22844ZM13.7997 8.22844H13.8239H13.8241H13.8481V7.55074H13.8241H13.8239H13.7997V8.22844ZM13.8482 8.22844H13.8726V7.55074H13.8482V8.22844ZM13.8969 8.22844H13.8728V7.55074H13.8969H13.897H13.9213V8.22844H13.897H13.8969ZM13.9454 8.22844H13.9213V7.55074H13.9454H13.9455H13.9698V8.22844H13.9455H13.9454ZM13.994 8.22844H13.9699V7.55074H13.994H13.9941H14.0184V8.22844H13.9941H13.994ZM14.0426 8.22844H14.0185V7.55074H14.0426H14.0427H14.067V8.22844H14.0427H14.0426ZM14.5493 8.22844H14.0671V7.55074H14.5493V8.22844Z" fill="#394A9F"/>
</g>
<path fill-rule="evenodd" clip-rule="evenodd" d="M11.4137 13.2453C11.4895 12.7946 12.6735 11.942 13.5119 11.8904C14.3521 11.8383 14.6139 11.8501 15.3139 11.6853C16.0159 11.5204 17.8209 11.0778 18.3205 10.8508C18.8213 10.6234 20.9413 10.9633 19.4467 11.7828C18.8005 12.1387 17.0581 12.7922 15.8123 13.1573C14.5685 13.5234 13.8143 12.8079 13.4005 13.4093C13.0711 13.8877 13.3335 14.5428 14.8201 14.6788C16.8275 14.8617 18.7521 13.7894 18.9639 14.3591C19.1767 14.9286 17.2389 15.6393 16.0591 15.662C14.8803 15.6838 12.5047 14.8955 12.1479 14.6514C11.7907 14.4079 11.3149 13.839 11.4137 13.2453Z" fill="#FDD20A"/>
<path fill-rule="evenodd" clip-rule="evenodd" d="M11.9999 1.18022C5.93455 1.18022 0.99997 6.0339 0.99997 11.9998C0.99997 17.9658 5.93455 22.8195 11.9999 22.8195C18.0653 22.8195 22.9999 17.9658 22.9999 11.9998C22.9999 6.0339 18.0653 1.18022 11.9999 1.18022ZM11.9999 23.8032C5.38317 23.8032 0 18.5083 0 12C0 5.4917 5.38317 0.196776 11.9999 0.196776C18.6167 0.196776 23.9999 5.4917 23.9999 12C23.9999 18.5083 18.6167 23.8032 11.9999 23.8032Z" fill="#DE5833"/>
<rect x="3.99998" y="16.6667" width="15.9999" height="6.66663" rx="1.33334" fill="white" stroke="#DE5833"/>
<path d="M9.40889 21.0156H7.76567V17.9088H6.97921V21.6666H9.40889V21.0156Z" fill="#DE5833"/>
<path d="M10.6615 21.6666V17.9088H9.87503V21.6666H10.6615Z" fill="#DE5833"/>
<path d="M12.9714 21.6666V18.5573H14.0599V17.9088H11.099V18.5573H12.1849V21.6666H12.9714Z" fill="#DE5833"/>
<path d="M16.9844 21.0156H15.2813V20.0677H16.888V19.4635H15.2813V18.5573H16.9844V17.9088H14.4948V21.6666H16.9844V21.0156Z" fill="#DE5833"/>
</svg>