<svg width="24" height="24" viewBox="0 0 24 24" fill="none" xmlns="http://www.w3.org/2000/svg">
<path fill-rule="evenodd" clip-rule="evenodd" d="M19.3892 10.3333H17.1667V15.6117C17.1667 15.8242 17.085 16.0292 16.9392 16.1842C16.8767 16.25 16.4033 16.7117 15.5 16.9083V21.1667C15.5 21.6267 15.1275 22 14.6667 22C14.2058 22 13.8333 21.6267 13.8333 21.1667V16.9075C12.9308 16.7108 12.4575 16.2508 12.395 16.1858C12.2492 16.0308 12.1667 15.825 12.1667 15.6117V6.16833C12.1667 6.16833 12.1667 6.16833 12.1667 6.1675C12.1667 6.1675 12.1667 6.1675 12.1667 6.16667C12.1667 3.87 14.035 2.00167 16.3325 2H16.3333H19.3892C20.4608 2 21.3333 2.8725 21.3333 3.945V8.39C21.3333 9.46167 20.4608 10.3333 19.3892 10.3333ZM13.8333 15.1725C14.0067 15.2508 14.2825 15.3333 14.6675 15.3333C15.0508 15.3333 15.3242 15.2517 15.5 15.1708V10.2492C14.88 10.1225 14.32 9.84667 13.8333 9.47833V15.1725ZM13.8333 6.16667C13.8333 7.545 14.9558 8.66667 16.3342 8.66667H17.1667V3.66667H16.3342C14.9558 3.66667 13.8333 4.78833 13.8333 6.16667ZM19.6667 3.945C19.6667 3.79417 19.54 3.66667 19.3892 3.66667H18.8333V8.66667H19.3892C19.54 8.66667 19.6667 8.54 19.6667 8.39V3.945ZM9.66667 9.47917V15.6117C9.66667 15.8242 9.585 16.0292 9.43917 16.1842C9.37667 16.25 8.90333 16.7108 8 16.9083V21.1667C8 21.6267 7.6275 22 7.16667 22C6.70583 22 6.33333 21.6267 6.33333 21.1667V16.9075C5.43083 16.7108 4.9575 16.2508 4.895 16.1858C4.74917 16.0308 4.66667 15.825 4.66667 15.6117V9.47833C3.66083 8.7175 3 7.5225 3 6.16667C3 3.86917 4.86917 2 7.1675 2C9.465 2 11.3333 3.86917 11.3333 6.16667C11.3333 7.5225 10.6725 8.7175 9.66667 9.47917ZM6.33333 15.1725C6.50667 15.2508 6.7825 15.3333 7.1675 15.3333C7.55083 15.3333 7.82417 15.2517 8 15.1708V10.2492C7.73083 10.3042 7.4525 10.3333 7.1675 10.3333C6.88167 10.3333 6.60333 10.3042 6.33333 10.2492V15.1725ZM7.1675 3.66667C5.78917 3.66667 4.66667 4.78833 4.66667 6.16667C4.66667 7.545 5.78917 8.66667 7.1675 8.66667C8.545 8.66667 9.66667 7.545 9.66667 6.16667C9.66667 4.78833 8.545 3.66667 7.1675 3.66667ZM7.1675 7.00167C6.70583 7.00167 6.33333 6.62833 6.33333 6.16833C6.33333 5.7075 6.70583 5.33333 7.1675 5.33333C7.62833 5.33333 8 5.7075 8 6.16833C8 6.62833 7.62833 7.00167 7.1675 7.00167Z" fill="#6B7084"/>
</svg>
