<svg width="24" height="24" viewBox="0 0 24 24" fill="none" xmlns="http://www.w3.org/2000/svg">
<g clip-path="url(#clip0_1265_21946)">
<path d="M12 24C18.6274 24 24 18.6274 24 12C24 5.37258 18.6274 0 12 0C5.37258 0 0 5.37258 0 12C0 18.6274 5.37258 24 12 24Z" fill="#1693D4"/>
<path fill-rule="evenodd" clip-rule="evenodd" d="M9.00291 12.3392C8.98767 12.1267 8.98669 11.9135 8.99995 11.701H7.34541L5.5 10.2249H9.33736C9.69577 9.35059 10.3065 8.60286 11.0916 8.07706C11.8767 7.55127 12.8006 7.27125 13.7455 7.27271C16.3715 7.27271 18.5 9.38935 18.5 12C18.5 14.6106 16.3715 16.7273 13.7455 16.7273C12.808 16.7287 11.891 16.453 11.1097 15.9349C10.3283 15.4168 9.7175 14.6794 9.35391 13.8153H5.5L7.34541 12.3392H9.00291ZM16.4537 12.088C16.4537 11.5976 16.3875 11.1698 16.2545 10.8046C16.1216 10.4394 15.9372 10.1333 15.702 9.88867C15.4663 9.64344 15.1874 9.45848 14.8641 9.33439C14.5409 9.2103 14.1905 9.14767 13.8105 9.14767C13.4005 9.14767 13.0187 9.21739 12.6654 9.35685C12.312 9.4963 12.0065 9.69248 11.7483 9.9448C11.49 10.1977 11.2874 10.5026 11.139 10.8607C10.9907 11.2188 10.9169 11.6171 10.9169 12.0543C10.9169 12.4987 10.9907 12.8964 11.139 13.2468C11.2868 13.5972 11.4918 13.8933 11.7536 14.1343C12.016 14.376 12.3256 14.5622 12.6825 14.6945C13.0588 14.8298 13.4562 14.8968 13.856 14.8925C14.8813 14.8925 15.6642 14.5303 16.2031 13.8064L15.2914 13.0831C15.1395 13.3018 14.9463 13.4731 14.7105 13.5972C14.4753 13.7213 14.1864 13.7839 13.8448 13.7839C13.6475 13.7839 13.4572 13.7503 13.2752 13.6823C13.0932 13.6143 12.9295 13.5222 12.7847 13.4052C12.6394 13.2895 12.5198 13.1447 12.4335 12.9802C12.3472 12.8157 12.2962 12.635 12.2836 12.4497H16.4425C16.4501 12.3894 16.4537 12.3291 16.4537 12.2688V12.088ZM15.0863 11.477H12.2836C12.3144 11.0929 12.4715 10.778 12.7564 10.5328C13.0418 10.2881 13.3886 10.1652 13.7993 10.1652C14.0191 10.1652 14.2112 10.2007 14.3743 10.2728C14.5374 10.3448 14.6727 10.4406 14.779 10.5611C14.8854 10.6817 14.9628 10.8211 15.0125 10.9795C15.0623 11.1406 15.0872 11.3084 15.0863 11.477Z" fill="white"/>
</g>
<defs>
<clipPath id="clip0_1265_21946">
<rect width="24" height="24" fill="white"/>
</clipPath>
</defs>
</svg>
