<svg viewBox="0 0 24 24" fill="none" xmlns="http://www.w3.org/2000/svg">
<g clip-path="url(#clip0_1265_21942)">
<path d="M12 24C18.6274 24 24 18.6274 24 12C24 5.37258 18.6274 0 12 0C5.37258 0 0 5.37258 0 12C0 18.6274 5.37258 24 12 24Z" fill="#AA15DD"/>
<path d="M11.999 17.9503C12.1476 17.9509 12.2683 18.0741 12.2689 18.2251C12.2696 18.2973 12.2416 18.3667 12.1911 18.4183C12.1406 18.4698 12.0718 18.4992 11.9997 18.5C11.9639 18.4997 11.9285 18.4923 11.8956 18.4783C11.8627 18.4643 11.8328 18.444 11.8078 18.4185C11.7827 18.393 11.7629 18.3627 11.7495 18.3296C11.7361 18.2964 11.7294 18.2609 11.7297 18.2251C11.7294 18.1894 11.7361 18.1539 11.7495 18.1207C11.7629 18.0875 11.7827 18.0573 11.8078 18.0318C11.8328 18.0063 11.8627 17.986 11.8956 17.972C11.9285 17.958 11.9639 17.9506 11.9997 17.9503H11.999ZM6.56381 9.12641C6.50127 9.08901 6.45588 9.0286 6.43737 8.95812C6.41885 8.88765 6.42869 8.81272 6.46476 8.74941C6.49125 8.70232 6.53126 8.66426 6.57961 8.64016C6.62797 8.61606 6.68244 8.60703 6.73599 8.61423C6.78953 8.62143 6.83969 8.64454 6.87995 8.68056C6.92022 8.71658 6.94875 8.76385 6.96186 8.81627C6.97578 8.86887 6.974 8.92439 6.95672 8.97598C6.93945 9.02758 6.90745 9.07299 6.86467 9.1066C6.82233 9.13978 6.77097 9.15941 6.7173 9.16295C6.66362 9.16648 6.61013 9.15375 6.56381 9.12641ZM6.56381 14.8798C6.5946 14.862 6.62863 14.8504 6.66392 14.8459C6.69921 14.8413 6.73506 14.8437 6.76938 14.8531C6.80371 14.8625 6.83583 14.8786 6.86387 14.9005C6.89192 14.9224 6.91534 14.9497 6.93276 14.9807C6.96858 15.0438 6.97828 15.1184 6.95976 15.1885C6.94125 15.2586 6.896 15.3187 6.83371 15.3559C6.80297 15.3739 6.76893 15.3856 6.7336 15.3902C6.69828 15.3949 6.66237 15.3925 6.628 15.3831C6.59363 15.3737 6.56148 15.3575 6.53345 15.3355C6.50542 15.3135 6.48207 15.2861 6.46476 15.255C6.42894 15.1919 6.41925 15.1173 6.43776 15.0472C6.45628 14.9771 6.50153 14.917 6.56381 14.8798ZM17.4343 9.12641C17.4035 9.14425 17.3694 9.1558 17.3341 9.16038C17.2989 9.16496 17.263 9.16249 17.2287 9.1531C17.1944 9.14371 17.1622 9.1276 17.1342 9.10569C17.1061 9.08379 17.0827 9.05653 17.0653 9.02551C17.0382 8.97818 17.0255 8.92396 17.0288 8.86952C17.0321 8.81508 17.0512 8.76279 17.0839 8.71908C17.1161 8.67574 17.1606 8.64312 17.2116 8.62545C17.2626 8.60778 17.3178 8.60589 17.3699 8.62003C17.4222 8.63483 17.4691 8.66471 17.5046 8.70595C17.5401 8.74718 17.5627 8.79795 17.5695 8.85193C17.5764 8.90591 17.5672 8.96071 17.5432 9.00952C17.5191 9.05833 17.4812 9.09898 17.4343 9.12641ZM11.9997 6.04975C11.9282 6.04797 11.8603 6.01815 11.8106 5.96672C11.7609 5.9153 11.7334 5.8464 11.7341 5.7749C11.7341 5.66347 11.8009 5.56256 11.9018 5.52047C11.9516 5.49978 12.0064 5.49463 12.0591 5.50568C12.1118 5.51673 12.1599 5.54346 12.1971 5.58237C12.2348 5.62161 12.2601 5.67101 12.27 5.72447C12.2799 5.77793 12.2739 5.83312 12.2528 5.88323C12.2322 5.93314 12.197 5.97569 12.1518 6.00538C12.1067 6.03507 12.0537 6.05053 11.9997 6.04975ZM16.8282 14.8365C16.7626 14.9523 16.7403 15.0877 16.7655 15.2184C16.7907 15.3491 16.8617 15.4665 16.9656 15.5496L12.5388 18.1496C12.5218 18.0186 12.4578 17.8981 12.3588 17.8106C12.2598 17.7231 12.1324 17.6744 12.0003 17.6736C11.8681 17.6744 11.7407 17.7231 11.6417 17.8106C11.5427 17.8981 11.4788 18.0186 11.4617 18.1496L7.03367 15.5496C7.13729 15.4664 7.20789 15.349 7.23285 15.2184C7.2578 15.0879 7.23547 14.9527 7.16986 14.8371C7.1058 14.7221 7.00189 14.6345 6.8777 14.5908C6.75352 14.5472 6.61766 14.5504 6.49572 14.6V9.40003C6.61751 9.44949 6.75318 9.45275 6.87721 9.40921C7.00124 9.36566 7.1051 9.2783 7.16924 9.16355C7.23489 9.04823 7.25742 8.91333 7.23281 8.78293C7.20821 8.65253 7.13807 8.53512 7.0349 8.45165L11.4617 5.85166C11.4788 5.98271 11.5427 6.10314 11.6417 6.19066C11.7407 6.27818 11.8681 6.32686 12.0003 6.3277C12.1325 6.32684 12.26 6.27807 12.359 6.19042C12.458 6.10278 12.5219 5.9822 12.5388 5.85104L16.9669 8.45103C16.8634 8.53425 16.7929 8.65154 16.768 8.78196C16.743 8.91237 16.7652 9.0474 16.8307 9.16293C16.8947 9.27793 16.9987 9.36553 17.1228 9.4092C17.247 9.45288 17.3829 9.44961 17.5048 9.40003V14.5969C17.3823 14.5473 17.2459 14.5443 17.1214 14.5884C16.9968 14.6326 16.8927 14.7208 16.8288 14.8365H16.8282ZM13.0446 14.0398C12.5636 14.3225 11.9947 14.4161 11.4485 14.3024C10.9023 14.1886 10.418 13.8757 10.0899 13.4244L13.0106 11.7134L14.006 11.129L14.4777 10.8505L14.5049 10.8375L16.5106 9.65755C16.6344 9.58512 16.6778 9.42417 16.6072 9.29789C16.591 9.26758 16.5688 9.2409 16.5419 9.2195C16.515 9.1981 16.484 9.18242 16.4509 9.17344C16.4177 9.16445 16.3831 9.16234 16.3491 9.16724C16.315 9.17214 16.2824 9.18395 16.2531 9.20193L14.7785 10.0717C14.4981 9.6523 14.1299 9.29888 13.6993 9.03593C13.2688 8.77298 12.7862 8.60677 12.285 8.54884V6.85947C12.2854 6.82402 12.2787 6.78886 12.2654 6.75599C12.2522 6.72312 12.2326 6.69318 12.2077 6.66789C12.1829 6.64259 12.1533 6.62244 12.1207 6.60857C12.0881 6.59471 12.053 6.58741 12.0176 6.58709C11.9821 6.58733 11.947 6.59457 11.9143 6.6084C11.8816 6.62223 11.852 6.64237 11.8271 6.66767C11.8022 6.69297 11.7825 6.72293 11.7692 6.75585C11.7559 6.78876 11.7492 6.82397 11.7496 6.85947V8.53336C11.1994 8.56031 10.6641 8.72049 10.1896 9.00013C9.7613 9.25114 9.3912 9.59022 9.10375 9.99493L7.75176 9.20193C7.7223 9.18469 7.6897 9.17349 7.65586 9.16902C7.62203 9.16454 7.58763 9.16687 7.55471 9.17586C7.52178 9.18486 7.49098 9.20034 7.46412 9.2214C7.43726 9.24246 7.41488 9.26868 7.39828 9.29851C7.36419 9.3589 7.35501 9.43021 7.3727 9.49727C7.39039 9.56433 7.43355 9.62184 7.493 9.65755L8.83447 10.4462C8.54752 11.0215 8.42133 11.6635 8.46923 12.3046L8.59366 13.0128C8.64938 13.2047 8.71933 13.3916 8.80476 13.5718L7.493 14.3425C7.43316 14.3783 7.38977 14.4362 7.37218 14.5037C7.35458 14.5712 7.36418 14.6429 7.3989 14.7034C7.41567 14.7332 7.43821 14.7594 7.4652 14.7804C7.4922 14.8014 7.52311 14.8168 7.55613 14.8258C7.58916 14.8347 7.62363 14.837 7.65753 14.8324C7.69144 14.8279 7.7241 14.8166 7.75362 14.7993L9.07033 14.028C9.37163 14.468 9.76947 14.8334 10.2335 15.0962C10.6975 15.3591 11.2154 15.5125 11.7477 15.5447V17.1406C11.7477 17.291 11.8678 17.413 12.0157 17.413C12.0512 17.4126 12.0862 17.4053 12.1188 17.3915C12.1515 17.3776 12.181 17.3574 12.2059 17.3322C12.2307 17.3069 12.2503 17.2769 12.2636 17.2441C12.2768 17.2112 12.2835 17.176 12.2832 17.1406V15.5311C12.7649 15.4816 13.2299 15.3273 13.6457 15.0792C14.1148 14.8004 14.5106 14.4137 14.8002 13.9513L16.2469 14.7981C16.3707 14.8687 16.5267 14.8247 16.5979 14.6997C16.6323 14.6397 16.6419 14.5686 16.6248 14.5016C16.6077 14.4346 16.5652 14.3768 16.5063 14.3406L15.0503 13.4863C15.054 13.4783 15.0627 13.469 15.0627 13.4591C15.5047 12.4414 14.3217 12.0044 14.0586 12.7881C13.8829 13.3143 13.5224 13.7589 13.044 14.0398H13.0446ZM17.4349 14.8798C17.4971 14.9172 17.5422 14.9774 17.5607 15.0476C17.5792 15.1178 17.5696 15.1924 17.5339 15.2556C17.5166 15.2867 17.4932 15.314 17.4651 15.3359C17.4371 15.3579 17.4049 15.374 17.3705 15.3833C17.3362 15.3927 17.3003 15.3951 17.265 15.3903C17.2297 15.3856 17.1957 15.3739 17.165 15.3559C17.1027 15.3187 17.0574 15.2586 17.0389 15.1885C17.0204 15.1184 17.0301 15.0438 17.0659 14.9807C17.0832 14.9496 17.1066 14.9222 17.1346 14.9002C17.1626 14.8782 17.1948 14.862 17.2292 14.8526C17.2635 14.8432 17.2994 14.8408 17.3348 14.8455C17.3701 14.8501 17.4041 14.8618 17.4349 14.8798ZM9.69928 12.3634C9.67266 11.3315 9.79523 10.6115 10.7727 10.037C11.1674 9.80471 11.6238 9.69892 12.0805 9.7339C12.5372 9.76887 12.9722 9.94293 13.3269 10.2326L9.69928 12.3634Z" fill="white"/>
</g>
<defs>
<clipPath id="clip0_1265_21942">
<rect width="24" height="24" fill="white"/>
</clipPath>
</defs>
</svg>