<svg width="24" height="24" viewBox="0 0 24 24" fill="none" xmlns="http://www.w3.org/2000/svg">
<g clip-path="url(#clip0_620_14227)">
<path d="M13.336 9.79845L10.8586 11.225C10.8272 11.2431 10.8012 11.2691 10.7832 11.3006C10.7652 11.332 10.7559 11.3677 10.7563 11.4039V12.6008C10.756 12.6362 10.7653 12.671 10.7834 12.7014C10.8014 12.7318 10.8274 12.7568 10.8586 12.7734L11.8961 13.3719C11.9257 13.3906 11.96 13.4006 11.995 13.4006C12.03 13.4006 12.0642 13.3906 12.0938 13.3719L16.375 10.9063C17.1016 10.4859 17.1016 9.27501 16.375 8.8547L12.5274 6.63907C12.3669 6.5421 12.1829 6.49084 11.9953 6.49084C11.8078 6.49084 11.6238 6.5421 11.4633 6.63907L7.61644 8.85548C7.4522 8.94724 7.3156 9.08141 7.22091 9.24398C7.12623 9.40655 7.07693 9.59156 7.07816 9.7797C7.07816 11.2641 7.08441 12.7414 7.07816 14.2188C7.07662 14.4066 7.12545 14.5914 7.21957 14.7539C7.31369 14.9165 7.44965 15.0508 7.61332 15.143L11.4602 17.3656C11.6217 17.4596 11.8053 17.5092 11.9922 17.5092C12.1791 17.5092 12.3627 17.4596 12.5243 17.3656L16.375 15.143C16.5383 15.0509 16.6737 14.9164 16.7668 14.7537C16.8599 14.591 16.9073 14.4062 16.9039 14.2188V12.2891L12.3243 14.9391C12.224 14.9985 12.1096 15.0299 11.993 15.0299C11.8764 15.0299 11.762 14.9985 11.6618 14.9391L9.61644 13.7539C9.51479 13.6969 9.43038 13.6136 9.37209 13.5127C9.3138 13.4118 9.28378 13.297 9.28519 13.1805V10.818C9.28468 10.7033 9.31437 10.5905 9.37129 10.4909C9.4282 10.3914 9.51033 10.3085 9.60941 10.2508C10.2914 9.85548 10.9789 9.46095 11.661 9.06564C11.7614 9.00656 11.8757 8.9754 11.9922 8.9754C12.1087 8.9754 12.2231 9.00656 12.3235 9.06564L13.3391 9.64532C13.3522 9.65348 13.363 9.66491 13.3704 9.67849C13.3777 9.69207 13.3814 9.70733 13.3811 9.72277C13.3808 9.73822 13.3765 9.75332 13.3686 9.76658C13.3606 9.77985 13.3494 9.79083 13.336 9.79845Z" fill="white"/>
<path d="M12 4.91565C10.5989 4.91565 9.22918 5.33114 8.06416 6.10958C6.89914 6.88802 5.99112 7.99445 5.45492 9.28895C4.91872 10.5835 4.77842 12.0079 5.05178 13.3821C5.32513 14.7564 5.99985 16.0187 6.99062 17.0094C7.98138 18.0002 9.2437 18.6749 10.6179 18.9483C11.9922 19.2216 13.4166 19.0813 14.7111 18.5451C16.0056 18.0089 17.112 17.1009 17.8905 15.9359C18.6689 14.7709 19.0844 13.4012 19.0844 12C19.0844 11.0697 18.9012 10.1485 18.5451 9.28895C18.1891 8.42944 17.6673 7.64846 17.0094 6.99062C16.3516 6.33277 15.5706 5.81094 14.7111 5.45492C13.8516 5.09889 12.9304 4.91565 12 4.91565ZM13.336 9.64534L12.3203 9.06565C12.2199 9.00657 12.1056 8.97542 11.9891 8.97542C11.8726 8.97542 11.7582 9.00657 11.6578 9.06565C10.9758 9.46096 10.2883 9.8555 9.60628 10.2508C9.50719 10.3086 9.42507 10.3914 9.36815 10.491C9.31124 10.5905 9.28154 10.7033 9.28206 10.818V13.1805C9.28065 13.297 9.31067 13.4118 9.36896 13.5127C9.42725 13.6136 9.51166 13.6969 9.61331 13.7539L11.6578 14.9391C11.7581 14.9986 11.8725 15.03 11.9891 15.03C12.1057 15.03 12.2201 14.9986 12.3203 14.9391L16.9 12.2891V14.2188C16.9037 14.4058 16.8569 14.5904 16.7645 14.753C16.6721 14.9157 16.5376 15.0504 16.375 15.143L12.5281 17.3657C12.3666 17.4597 12.183 17.5092 11.9961 17.5092C11.8092 17.5092 11.6256 17.4597 11.4641 17.3657L7.61643 15.143C7.45219 15.0512 7.31559 14.9171 7.22091 14.7545C7.12622 14.5919 7.07692 14.4069 7.07815 14.2188C7.0844 12.7414 7.07815 11.2633 7.07815 9.77972C7.07661 9.59189 7.12544 9.40709 7.21956 9.24455C7.31368 9.082 7.44965 8.94766 7.61331 8.8555L11.4602 6.63909C11.6207 6.54211 11.8047 6.49086 11.9922 6.49086C12.1798 6.49086 12.3637 6.54211 12.5242 6.63909L16.375 8.8555C17.1016 9.27581 17.1016 10.4867 16.375 10.9071L12.0938 13.3719C12.0642 13.3907 12.0299 13.4006 11.9949 13.4006C11.9599 13.4006 11.9257 13.3907 11.8961 13.3719L10.8586 12.7735C10.8274 12.7568 10.8014 12.7319 10.7833 12.7014C10.7653 12.671 10.7559 12.6362 10.7563 12.6008V11.4039C10.7559 11.3677 10.7652 11.332 10.7832 11.3006C10.8012 11.2692 10.8272 11.2431 10.8586 11.225L13.336 9.79846C13.3492 9.79058 13.3602 9.77937 13.3679 9.76595C13.3755 9.75252 13.3795 9.73735 13.3795 9.7219C13.3795 9.70646 13.3755 9.69128 13.3679 9.67786C13.3602 9.66444 13.3492 9.65323 13.336 9.64534Z" fill="white"/>
<path d="M12 2C10.0222 2 8.08879 2.58649 6.4443 3.6853C4.79981 4.78412 3.51809 6.3459 2.76121 8.17317C2.00433 10.0004 1.8063 12.0111 2.19215 13.9509C2.578 15.8907 3.53041 17.6725 4.92894 19.0711C6.32746 20.4696 8.10929 21.422 10.0491 21.8079C11.9889 22.1937 13.9996 21.9957 15.8268 21.2388C17.6541 20.4819 19.2159 19.2002 20.3147 17.5557C21.4135 15.9112 22 13.9778 22 12C22 9.34784 20.9464 6.8043 19.0711 4.92893C17.1957 3.05357 14.6522 2 12 2V2ZM13.3359 9.64531L12.3203 9.06563C12.2199 9.00655 12.1056 8.97539 11.9891 8.97539C11.8726 8.97539 11.7582 9.00655 11.6578 9.06563C10.9758 9.46094 10.2883 9.85547 9.60626 10.2508C9.50717 10.3085 9.42505 10.3914 9.36813 10.4909C9.31122 10.5905 9.28152 10.7033 9.28204 10.818V13.1805C9.28063 13.297 9.31065 13.4118 9.36894 13.5127C9.42723 13.6136 9.51164 13.6969 9.61329 13.7539L11.6578 14.9391C11.7581 14.9985 11.8725 15.0299 11.9891 15.0299C12.1056 15.0299 12.2201 14.9985 12.3203 14.9391L16.9 12.2891V14.2188C16.9037 14.4058 16.8569 14.5904 16.7645 14.753C16.6721 14.9157 16.5376 15.0504 16.375 15.143L12.5281 17.3656C12.3666 17.4596 12.183 17.5092 11.9961 17.5092C11.8092 17.5092 11.6256 17.4596 11.4641 17.3656L7.61641 15.143C7.45217 15.0512 7.31557 14.917 7.22088 14.7545C7.1262 14.5919 7.0769 14.4069 7.07813 14.2188C7.08438 12.7414 7.07813 11.2633 7.07813 9.77969C7.07659 9.59187 7.12542 9.40707 7.21954 9.24452C7.31366 9.08198 7.44962 8.94763 7.61329 8.85547L11.4602 6.63906C11.6207 6.54209 11.8047 6.49083 11.9922 6.49083C12.1797 6.49083 12.3637 6.54209 12.5242 6.63906L16.375 8.85547C17.1016 9.27578 17.1016 10.4867 16.375 10.907L12.0938 13.3719C12.0642 13.3906 12.0299 13.4006 11.9949 13.4006C11.9599 13.4006 11.9256 13.3906 11.8961 13.3719L10.8586 12.7734C10.8274 12.7567 10.8014 12.7318 10.7833 12.7014C10.7653 12.671 10.7559 12.6362 10.7563 12.6008V11.4039C10.7559 11.3677 10.7652 11.332 10.7832 11.3006C10.8011 11.2691 10.8272 11.243 10.8586 11.225L13.3359 9.79844C13.3492 9.79055 13.3602 9.77934 13.3679 9.76592C13.3755 9.7525 13.3795 9.73732 13.3795 9.72187C13.3795 9.70643 13.3755 9.69125 13.3679 9.67783C13.3602 9.66441 13.3492 9.6532 13.3359 9.64531Z" fill="url(#paint0_linear_620_14227)"/>
</g>
<defs>
<linearGradient id="paint0_linear_620_14227" x1="-5.12656" y1="-8.55234" x2="28.782" y2="32.1383" gradientUnits="userSpaceOnUse">
<stop stop-color="#273498"/>
<stop offset="0.53" stop-color="#0074C2"/>
<stop offset="1" stop-color="#00ABE7"/>
</linearGradient>
<clipPath id="clip0_620_14227">
<rect width="20" height="20" fill="white" transform="translate(2 2)"/>
</clipPath>
</defs>
</svg>
