<svg width="24" height="24" viewBox="0 0 24 24" fill="none" xmlns="http://www.w3.org/2000/svg">
<g clip-path="url(#clip0_1265_21938)">
<path d="M12 24C18.6274 24 24 18.6274 24 12C24 5.37258 18.6274 0 12 0C5.37258 0 0 5.37258 0 12C0 18.6274 5.37258 24 12 24Z" fill="#2B1544"/>
<path d="M17.8458 9.72296V14.0512C17.8458 14.2437 17.8556 14.4401 17.812 14.6293C17.7134 15.0672 17.4866 15.4656 17.1604 15.7738C17.007 15.9215 16.8158 16.0171 16.633 16.125C15.3929 16.8468 14.1568 17.5706 12.9173 18.2937C12.5389 18.4959 12.0915 18.5304 11.6714 18.4784C11.452 18.4516 11.2399 18.3823 11.0471 18.2742C9.74199 17.5134 8.43687 16.7506 7.1324 15.9904C6.81376 15.8129 6.57576 15.5202 6.40083 15.2055C6.25777 14.9324 6.15308 14.632 6.15308 14.3192V9.64623C6.17714 9.19103 6.37872 8.75989 6.6655 8.41589C6.78171 8.27049 6.92231 8.14639 7.08103 8.04913C8.29381 7.34293 9.50659 6.63412 10.7187 5.92531C10.9184 5.81476 11.1076 5.6795 11.3235 5.60537C11.6885 5.49136 12.0761 5.46947 12.4517 5.54164C12.6188 5.58846 12.7892 5.63788 12.9394 5.72632C14.2595 6.50081 15.5815 7.26944 16.901 8.04458C17.2528 8.25267 17.5109 8.60057 17.6787 8.97189C17.7847 9.20599 17.8458 9.46415 17.8458 9.72296ZM11.9608 8.11286C11.6807 8.52813 11.3565 8.91186 10.9938 9.25736C10.8039 9.43749 10.6212 9.63192 10.5126 9.87318C10.4254 10.0436 10.3669 10.2373 10.3916 10.4324C10.4209 10.6951 10.6082 10.9266 10.8514 11.0203C11.0985 11.1191 11.3781 11.097 11.6239 11.0008C11.6681 10.981 11.7171 10.9743 11.765 10.9813C11.7169 11.2895 11.5296 11.5496 11.3814 11.8156L11.3879 11.8598C11.5218 12.0029 11.6629 12.1381 11.7962 12.2786C11.83 12.3104 11.8613 12.3547 11.9081 12.3696C12.0635 12.2493 12.1851 12.0913 12.3282 11.9586C12.36 11.9222 12.4257 11.8826 12.3912 11.826C12.2527 11.5659 12.0993 11.3025 12.0557 11.0021C12.0817 10.9409 12.1552 10.9923 12.1988 11.0073C12.4296 11.1204 12.7086 11.1373 12.9498 11.0443C13.2782 10.9188 13.4824 10.5345 13.4089 10.1873C13.353 9.87513 13.1878 9.589 12.9641 9.37051C12.6195 9.01611 12.2885 8.63764 12.0531 8.19935C12.0448 8.17918 12.0322 8.16102 12.0163 8.1461C12.0004 8.13118 11.9814 8.11985 11.9608 8.11286ZM9.59828 12.3462C9.20811 12.5582 8.94734 12.9737 8.88296 13.4153C8.79388 14.035 9.15608 14.6827 9.71728 14.9363C10.0723 15.0891 10.4846 15.0858 10.8423 14.946C11.0269 14.8719 11.185 14.751 11.3209 14.6085C11.3722 14.5539 11.447 14.5051 11.447 14.4213C11.4405 14.3374 11.3651 14.2912 11.3163 14.234C11.2526 14.1774 11.2019 14.1039 11.129 14.0591C11.012 14.0077 10.9418 14.1358 10.8663 14.1995C10.5704 14.4999 10.0379 14.5025 9.73484 14.2093C9.63719 14.1174 9.56369 14.0029 9.52081 13.8759C9.47794 13.7488 9.46703 13.6132 9.48903 13.4809C9.52544 13.2319 9.67371 12.9958 9.8948 12.8775C10.0379 12.806 10.1985 12.7669 10.3565 12.7741C10.5796 12.7884 10.7837 12.9067 10.9346 13.0693C11.4496 13.5817 11.9451 14.113 12.4582 14.6274C12.73 14.896 13.1066 15.0683 13.4902 15.0533C13.7828 15.0598 14.0644 14.9428 14.3024 14.7776C14.6529 14.5338 14.8662 14.1104 14.8877 13.6825C14.9345 13.0049 14.4435 12.3215 13.7822 12.1908C13.3602 12.105 12.8835 12.1934 12.5584 12.4938C12.3269 12.7045 12.1162 12.9412 11.8873 13.1578C11.6512 12.9633 11.4646 12.7175 11.2337 12.5185C11.1352 12.425 11.0206 12.3499 10.8956 12.2968C10.8722 12.2818 10.8644 12.2747 10.8332 12.2623C10.6352 12.1782 10.4203 12.142 10.2057 12.1566C9.99112 12.1711 9.78302 12.2361 9.59828 12.3462ZM12.8738 13.0303C13.0422 12.8625 13.2802 12.7643 13.5175 12.7838C13.775 12.791 14.0248 12.9289 14.1613 13.1506C14.3746 13.4757 14.3122 13.9433 14.0378 14.2112C13.7555 14.485 13.2717 14.5195 12.968 14.2606C12.7424 14.0688 12.5532 13.8399 12.3373 13.6383C12.3347 13.624 12.3321 13.5967 12.3295 13.5843C12.5096 13.3971 12.6936 13.2176 12.8738 13.0303Z" fill="white"/>
</g>
<defs>
<clipPath id="clip0_1265_21938">
<rect width="24" height="24" fill="white"/>
</clipPath>
</defs>
</svg>
