<svg viewBox="0 0 24 24" fill="none" xmlns="http://www.w3.org/2000/svg">
<path d="M21.661 17.8611C21.341 18.0285 21.0111 18.1759 20.673 18.3026C19.5968 18.7053 18.4568 18.9105 17.3077 18.9082C12.872 18.9082 9.00805 15.857 9.00805 11.9415C9.01372 11.4163 9.15946 10.9022 9.4302 10.4522C9.70094 10.0021 10.0869 9.63252 10.5482 9.38147C6.53614 9.5502 5.505 13.731 5.505 16.1804C5.505 23.1059 11.8877 23.808 13.2629 23.808C14.0044 23.808 15.1227 23.5924 15.7938 23.3805L15.9166 23.3393C18.4994 22.4464 20.7012 20.7008 22.1597 18.3898C22.2044 18.3194 22.2243 18.2362 22.2164 18.1532C22.2084 18.0702 22.1731 17.9923 22.1159 17.9316C22.0587 17.871 21.9829 17.8311 21.9005 17.8184C21.8181 17.8056 21.7339 17.8206 21.661 17.8611Z" fill="url(#paint0_linear_4868_17271)"/>
<path opacity="0.35" d="M21.661 17.8611C21.341 18.0285 21.0111 18.1759 20.673 18.3026C19.5968 18.7053 18.4568 18.9105 17.3077 18.9082C12.872 18.9082 9.00805 15.857 9.00805 11.9415C9.01372 11.4163 9.15946 10.9022 9.4302 10.4522C9.70094 10.0021 10.0869 9.63252 10.5482 9.38147C6.53614 9.5502 5.505 13.731 5.505 16.1804C5.505 23.1059 11.8877 23.808 13.2629 23.808C14.0044 23.808 15.1227 23.5924 15.7938 23.3805L15.9166 23.3393C18.4994 22.4464 20.7012 20.7008 22.1597 18.3898C22.2044 18.3194 22.2243 18.2362 22.2164 18.1532C22.2084 18.0702 22.1731 17.9923 22.1159 17.9316C22.0587 17.871 21.9829 17.8311 21.9005 17.8184C21.8181 17.8056 21.7339 17.8206 21.661 17.8611Z" fill="url(#paint1_radial_4868_17271)"/>
<path d="M9.91168 22.6305C9.07559 22.1116 8.351 21.4316 7.78005 20.6301C7.1293 19.7386 6.68149 18.7154 6.46803 17.6324C6.25458 16.5495 6.28064 15.4329 6.5444 14.3611C6.80816 13.2893 7.30322 12.2881 7.99487 11.4279C8.68651 10.5677 9.55799 9.86916 10.5482 9.3814C10.8406 9.2436 11.3403 8.99425 12.0049 9.00644C12.4731 9.00985 12.9342 9.12165 13.352 9.33307C13.7698 9.54449 14.133 9.84979 14.413 10.2251C14.7916 10.7305 15.0003 11.3428 15.0092 11.9742C15.0092 11.9545 17.3021 4.51257 7.51008 4.51257C3.39492 4.51257 0.0109263 8.41776 0.0109263 11.8439C-0.00530564 13.6563 0.382484 15.4496 1.14611 17.0933C2.39409 19.7561 4.57646 21.8678 7.27882 23.0275C9.98117 24.1872 13.0153 24.3141 15.8051 23.3842C14.8283 23.6922 13.7963 23.7846 12.7803 23.6552C11.7643 23.5257 10.7885 23.1774 9.92012 22.6343L9.91168 22.6305Z" fill="url(#paint2_linear_4868_17271)"/>
<path opacity="0.41" d="M9.91168 22.6305C9.07559 22.1116 8.351 21.4316 7.78005 20.6301C7.1293 19.7386 6.68149 18.7154 6.46803 17.6324C6.25458 16.5495 6.28064 15.4329 6.5444 14.3611C6.80816 13.2893 7.30322 12.2881 7.99487 11.4279C8.68651 10.5677 9.55799 9.86916 10.5482 9.3814C10.8406 9.2436 11.3403 8.99425 12.0049 9.00644C12.4731 9.00985 12.9342 9.12165 13.352 9.33307C13.7698 9.54449 14.133 9.84979 14.413 10.2251C14.7916 10.7305 15.0003 11.3428 15.0092 11.9742C15.0092 11.9545 17.3021 4.51257 7.51008 4.51257C3.39492 4.51257 0.0109263 8.41776 0.0109263 11.8439C-0.00530564 13.6563 0.382484 15.4496 1.14611 17.0933C2.39409 19.7561 4.57646 21.8678 7.27882 23.0275C9.98117 24.1872 13.0153 24.3141 15.8051 23.3842C14.8283 23.6922 13.7963 23.7846 12.7803 23.6552C11.7643 23.5257 10.7885 23.1774 9.92012 22.6343L9.91168 22.6305Z" fill="url(#paint3_radial_4868_17271)"/>
<path d="M14.2799 13.954C14.204 14.0525 13.9706 14.1884 13.9706 14.4846C13.9706 14.7293 14.13 14.9646 14.413 15.1623C15.761 16.0997 18.3023 15.976 18.3089 15.976C19.3077 15.9736 20.2876 15.7033 21.1463 15.1933C22.0127 14.6874 22.7317 13.9638 23.2321 13.0943C23.7325 12.2248 23.9968 11.2396 23.9988 10.2363C24.0232 8.13564 23.2489 6.73893 22.9358 6.12025C20.9495 2.23475 16.6619 5.87411e-08 11.9993 5.87411e-08C8.84604 -0.000311737 5.81943 1.24064 3.57403 3.45446C1.32864 5.66828 0.0449525 8.67701 0.000610352 11.8299C0.0456053 8.40468 3.45022 5.63843 7.49976 5.63843C7.82785 5.63843 9.69889 5.6703 11.4368 6.58238C12.9685 7.38667 13.7709 8.35781 14.3287 9.32051C14.908 10.3207 15.0111 11.5843 15.0111 12.0877C15.0111 12.5911 14.7543 13.3372 14.2799 13.954Z" fill="url(#paint4_radial_4868_17271)"/>
<path d="M14.2799 13.954C14.204 14.0525 13.9706 14.1884 13.9706 14.4846C13.9706 14.7293 14.13 14.9646 14.413 15.1623C15.761 16.0997 18.3023 15.976 18.3089 15.976C19.3077 15.9736 20.2876 15.7033 21.1463 15.1933C22.0127 14.6874 22.7317 13.9638 23.2321 13.0943C23.7325 12.2248 23.9968 11.2396 23.9988 10.2363C24.0232 8.13564 23.2489 6.73893 22.9358 6.12025C20.9495 2.23475 16.6619 5.87411e-08 11.9993 5.87411e-08C8.84604 -0.000311737 5.81943 1.24064 3.57403 3.45446C1.32864 5.66828 0.0449525 8.67701 0.000610352 11.8299C0.0456053 8.40468 3.45022 5.63843 7.49976 5.63843C7.82785 5.63843 9.69889 5.6703 11.4368 6.58238C12.9685 7.38667 13.7709 8.35781 14.3287 9.32051C14.908 10.3207 15.0111 11.5843 15.0111 12.0877C15.0111 12.5911 14.7543 13.3372 14.2799 13.954Z" fill="url(#paint5_radial_4868_17271)"/>
<defs>
<linearGradient id="paint0_linear_4868_17271" x1="5.505" y1="16.5966" x2="22.2225" y2="16.5966" gradientUnits="userSpaceOnUse">
<stop stop-color="#0C59A4"/>
<stop offset="1" stop-color="#114A8B"/>
</linearGradient>
<radialGradient id="paint1_radial_4868_17271" cx="0" cy="0" r="1" gradientUnits="userSpaceOnUse" gradientTransform="translate(14.7383 16.7283) scale(8.94086 8.49382)">
<stop offset="0.72" stop-opacity="0"/>
<stop offset="0.95" stop-opacity="0.53"/>
<stop offset="1"/>
</radialGradient>
<linearGradient id="paint2_linear_4868_17271" x1="14.3184" y1="9.34484" x2="3.87674" y2="20.7182" gradientUnits="userSpaceOnUse">
<stop stop-color="#1B9DE2"/>
<stop offset="0.16" stop-color="#1595DF"/>
<stop offset="0.67" stop-color="#0680D7"/>
<stop offset="1" stop-color="#0078D4"/>
</linearGradient>
<radialGradient id="paint3_radial_4868_17271" cx="0" cy="0" r="1" gradientUnits="userSpaceOnUse" gradientTransform="translate(6.6181 18.6549) rotate(-81.3844) scale(13.4447 10.8619)">
<stop offset="0.76" stop-opacity="0"/>
<stop offset="0.95" stop-opacity="0.5"/>
<stop offset="1"/>
</radialGradient>
<radialGradient id="paint4_radial_4868_17271" cx="0" cy="0" r="1" gradientUnits="userSpaceOnUse" gradientTransform="translate(2.42495 4.44107) rotate(92.2906) scale(18.9908 40.4466)">
<stop stop-color="#35C1F1"/>
<stop offset="0.11" stop-color="#34C1ED"/>
<stop offset="0.23" stop-color="#2FC2DF"/>
<stop offset="0.31" stop-color="#2BC3D2"/>
<stop offset="0.67" stop-color="#36C752"/>
</radialGradient>
<radialGradient id="paint5_radial_4868_17271" cx="0" cy="0" r="1" gradientUnits="userSpaceOnUse" gradientTransform="translate(22.5048 7.256) rotate(73.7398) scale(9.12459 7.42012)">
<stop stop-color="#66EB6E"/>
<stop offset="1" stop-color="#66EB6E" stop-opacity="0"/>
</radialGradient>
</defs>
</svg>