<svg viewBox="0 0 24 24" fill="none" xmlns="http://www.w3.org/2000/svg">
<g clip-path="url(#clip0_1265_21934)">
<path d="M12 24C18.6274 24 24 18.6274 24 12C24 5.37258 18.6274 0 12 0C5.37258 0 0 5.37258 0 12C0 18.6274 5.37258 24 12 24Z" fill="#242424"/>
<path d="M10.089 17.1178L11.8329 15.3648L13.5839 17.1178L12.4666 18.237C12.3834 18.3204 12.2847 18.3865 12.1759 18.4316C12.0672 18.4768 11.9506 18.5 11.8329 18.5C11.7151 18.5 11.5985 18.4768 11.4898 18.4316C11.3811 18.3865 11.2823 18.3204 11.1992 18.237L10.089 17.1178ZM14.6062 11.1109L12.8565 9.35792L14.6069 7.60498L16.3566 9.35792L14.6062 11.1109ZM14.1714 16.5465L12.4211 14.7935L17.1203 10.0865L18.2369 11.2051C18.5872 11.5561 18.5872 12.1235 18.2369 12.4745L14.1714 16.5465ZM9.35977 16.3658L7.61008 14.6128L12.3015 9.91363L14.0512 11.6666L9.35977 16.3658ZM6.87562 13.8959L5.75834 12.7767C5.59149 12.6072 5.49868 12.3784 5.50026 12.1406C5.50185 11.9028 5.5977 11.6752 5.76679 11.508L6.88342 10.3888L8.63376 12.1423L6.87562 13.8959ZM13.8737 6.88417L9.17453 11.5886L7.42419 9.83564L11.4897 5.76299C11.5728 5.67963 11.6716 5.61349 11.7803 5.56836C11.8891 5.52323 12.0057 5.5 12.1234 5.5C12.2411 5.5 12.3577 5.52323 12.4665 5.56836C12.5752 5.61349 12.674 5.67963 12.7571 5.76299L13.8737 6.88417Z" fill="white"/>
</g>
<defs>
<clipPath id="clip0_1265_21934">
<rect width="24" height="24" fill="white"/>
</clipPath>
</defs>
</svg>