<svg viewBox="0 0 24 24" fill="none" xmlns="http://www.w3.org/2000/svg">
<g clip-path="url(#clip0_1265_21930)">
<path d="M12 24C18.6274 24 24 18.6274 24 12C24 5.37258 18.6274 0 12 0C5.37258 0 0 5.37258 0 12C0 18.6274 5.37258 24 12 24Z" fill="#0FACF3"/>
<path d="M6.92332 6.9558H10.8465C12.4022 6.9558 13.175 6.90669 14.3349 7.01286C15.4956 7.13564 16.6562 7.60943 17.4073 8.51728C18.2921 9.57175 18.5506 10.9946 18.4921 12.3184C18.4344 13.6351 17.983 15.016 16.948 15.9152C16.03 16.7414 14.7452 17.044 13.526 17.052C11.1556 17.0599 8.79319 17.052 6.42281 17.052C6.16425 17.0354 5.87174 17.0599 5.67168 16.8801C5.32139 16.5291 5.53012 15.7765 6.08913 15.809C7.40794 15.7686 8.73469 15.809 10.0542 15.7844C10.0289 14.6729 10.0456 13.5614 10.0456 12.4578C9.0272 12.4491 8.01679 12.4578 6.99915 12.4578C6.77309 12.4491 6.52248 12.4491 6.34769 12.3018C6.13897 12.114 6.13897 11.7955 6.23069 11.5507C6.34769 11.2806 6.66476 11.2315 6.93199 11.2315C7.96695 11.2228 9.01059 11.2315 10.0448 11.2315C10.0622 10.2174 10.0289 9.20341 10.0622 8.19805C8.90153 8.19011 7.74161 8.19805 6.58098 8.19805C6.32242 8.19011 6.03063 8.19011 5.82985 8.01027C5.62185 7.74015 5.66374 7.35592 5.83852 7.0858C6.17219 6.92258 6.55642 6.9558 6.92332 6.9558ZM11.498 11.2315C11.9732 11.2394 12.4492 11.1982 12.9251 11.264C13.4928 11.3456 13.4928 12.343 12.9165 12.4246C12.4492 12.4983 11.9653 12.4491 11.4893 12.4578C11.498 13.422 11.4893 14.379 11.4893 15.3432C11.498 15.5071 11.5059 15.7519 11.7146 15.7686C12.2823 15.8177 12.7763 15.8011 13.4177 15.8011C14.3689 15.8422 15.3706 15.5483 16.038 14.8528C16.7226 14.1255 16.9733 13.1122 16.9899 12.1465C17.0152 11.0762 16.8144 9.89892 16.0293 9.09724C15.3208 8.37789 14.2526 8.13305 13.2588 8.19011C12.6926 8.19011 12.2072 8.17349 11.6814 8.22261C11.5146 8.27172 11.5059 8.47611 11.498 8.62345V11.2307V11.2315Z" fill="white"/>
</g>
<defs>
<clipPath id="clip0_1265_21930">
<rect width="24" height="24" fill="white"/>
</clipPath>
</defs>
</svg>