<svg width="24" height="24" viewBox="0 0 24 24" fill="none" xmlns="http://www.w3.org/2000/svg">
<g clip-path="url(#clip0_1265_21909)">
<path d="M12 24C18.6274 24 24 18.6274 24 12C24 5.37258 18.6274 0 12 0C5.37258 0 0 5.37258 0 12C0 18.6274 5.37258 24 12 24Z" fill="#2B5EBB"/>
<path fill-rule="evenodd" clip-rule="evenodd" d="M18.4997 11.9752C18.4991 13.4936 17.3233 14.6779 15.8205 14.6733C14.3489 14.6688 13.1543 13.452 13.1621 11.9655C13.1699 10.4796 14.3775 9.26803 15.8413 9.27778C17.3356 9.28753 18.5004 10.4699 18.4997 11.9752ZM7.50847 17.1478C7.24874 17.148 6.99156 17.0966 6.75183 16.9967C6.51211 16.8967 6.29461 16.7502 6.11196 16.5655C5.9293 16.3809 5.78512 16.1618 5.68777 15.921C5.59042 15.6802 5.54185 15.4225 5.54486 15.1628C5.54811 14.0539 6.41519 13.1575 7.50522 13.1829C7.81851 13.19 8.13311 13.307 8.4386 13.4026C8.87279 13.5384 9.29658 13.7068 9.72947 13.8485C9.99792 13.9369 10.2547 13.8745 10.4919 13.7276C10.8364 13.5131 11.1289 13.2544 11.3154 12.8748C11.5039 12.4887 11.9329 12.3451 12.3145 12.5089C12.6681 12.661 12.852 13.0464 12.75 13.4208C12.6349 13.8413 12.2885 14.0675 11.8569 13.9921C11.474 13.9252 11.0944 13.8017 10.7058 13.9427C10.0103 14.1956 9.70477 14.7715 9.47598 15.4286C9.35118 15.788 9.21858 16.1657 8.99499 16.4621C8.6362 16.9405 8.10841 17.1504 7.50847 17.1478ZM7.46687 6.85333C8.3554 6.85333 9.04764 7.37332 9.34923 8.22935C9.46883 8.56734 9.64822 8.88388 9.80162 9.20953C10.1806 10.0155 11.1315 10.0948 11.7347 9.87446C12.269 9.67947 12.7838 10.0227 12.7961 10.5765C12.8046 10.9599 12.6076 11.2394 12.2475 11.3525C11.929 11.4513 11.5702 11.3168 11.3752 11.0262C11.3057 10.9222 11.2407 10.8143 11.1633 10.7162C10.633 10.0467 10.0441 9.87121 9.24588 10.1715C8.96769 10.2755 8.70704 10.4315 8.44575 10.5765C8.20964 10.7109 7.94818 10.7949 7.67792 10.823C7.40766 10.8511 7.13451 10.8228 6.87578 10.7398C6.61704 10.6568 6.37837 10.521 6.17489 10.3409C5.9714 10.1609 5.80755 9.94049 5.69371 9.69377C5.07232 8.37429 6.0213 6.85333 7.46687 6.85333ZM13.6612 17.1933C13.6534 17.9207 13.06 18.5128 12.3515 18.4998C11.6671 18.4868 11.0951 17.8973 11.0775 17.2343C11.0587 16.4842 11.6099 15.8738 12.3762 15.8667C13.1094 15.8595 13.6697 16.464 13.6619 17.1927L13.6612 17.1933ZM11.086 6.81303C11.086 6.07724 11.6619 5.49355 12.3827 5.50005C13.0834 5.50655 13.6697 6.10649 13.6638 6.81173C13.6586 7.55336 13.1036 8.1481 12.373 8.13445C11.5416 8.11885 11.0522 7.44871 11.086 6.81303Z" fill="white"/>
</g>
<defs>
<clipPath id="clip0_1265_21909">
<rect width="24" height="24" fill="white"/>
</clipPath>
</defs>
</svg>
