<svg viewBox="0 0 24 24" fill="none" xmlns="http://www.w3.org/2000/svg">
<g clip-path="url(#clip0_1265_21901)">
<path d="M12 24C18.6274 24 24 18.6274 24 12C24 5.37258 18.6274 0 12 0C5.37258 0 0 5.37258 0 12C0 18.6274 5.37258 24 12 24Z" fill="#00ADED"/>
<path d="M8.00146 17.3568L8.00287 17.354L10.2437 12.0009L8.00146 6.64844L12.1379 12.0009L8.00428 17.3533L8.00146 17.3568ZM16.2786 17.3568L16.2758 17.3533L12.1421 12.0009L16.2786 6.64844L14.0364 12.0009L16.2772 17.354L16.2786 17.3568Z" fill="white"/>
<path d="M12.14 12.0012V15.7307L8 17.3544L12.14 11.9984V8.26892L16.2799 6.64526L12.14 12.0012Z" fill="white" fill-opacity="0.8"/>
<path d="M12.14 15.7309V19L8 17.3524L12.14 15.7253V12.0014L8 6.64545L12.14 8.2691V5L16.2799 6.64685L12.14 8.27402V11.9986L16.2799 17.3546L12.14 15.7309Z" fill="white" fill-opacity="0.5"/>
<path d="M8 6.64685L12.14 5V8.27402L8 6.64685ZM16.2799 17.3524L12.14 19V15.7253L16.2799 17.3524Z" fill="white" fill-opacity="0.145"/>
</g>
<defs>
<clipPath id="clip0_1265_21901">
<rect width="24" height="24" fill="white"/>
</clipPath>
</defs>
</svg>