<svg width="24" height="24" viewBox="0 0 24 24" fill="none" xmlns="http://www.w3.org/2000/svg">
<g clip-path="url(#clip0_1265_21897)">
<path d="M12 24C18.6274 24 24 18.6274 24 12C24 5.37258 18.6274 0 12 0C5.37258 0 0 5.37258 0 12C0 18.6274 5.37258 24 12 24Z" fill="#396A28"/>
<path fill-rule="evenodd" clip-rule="evenodd" d="M13.225 10.3525L12 9.12818L10.7668 10.3608L9.48804 9.08209L12 5.5L14.5291 9.04841L13.225 10.3525ZM10.3395 10.7886L9.12818 12L10.3525 13.225L9.07855 14.499L5.5 12L9.03955 9.48864L10.3395 10.7886ZM13.6392 13.2332L14.8718 12L13.6522 10.7804L14.9675 9.465L18.5 12L14.9285 14.5226L13.6392 13.2332ZM10.7804 13.6528L12 14.8718L13.2114 13.6605L14.5007 14.9504L12 18.5L9.51582 14.9167L10.7804 13.6528ZM12 9.94777L14.0516 12L12 14.0516L9.94836 12L12 9.94777Z" fill="white"/>
</g>
<defs>
<clipPath id="clip0_1265_21897">
<rect width="24" height="24" fill="white"/>
</clipPath>
</defs>
</svg>
