<svg width="24" height="24" viewBox="0 0 24 24" fill="none" xmlns="http://www.w3.org/2000/svg">
<path fill-rule="evenodd" clip-rule="evenodd" d="M21.1668 13.1675C20.7065 13.1675 20.3332 12.7942 20.3332 12.3333V6.97L12.5497 13.7933C12.3924 13.9317 12.1965 14.0008 11.9998 14.0008C11.804 14.0008 11.6081 13.9317 11.4507 13.7933L3.6665 6.97V16.5008C3.6665 16.96 4.04064 17.3342 4.50017 17.3342H12.8335C13.2939 17.3342 13.6672 17.7067 13.6672 18.1675C13.6672 18.6275 13.2939 19.0008 12.8335 19.0008H4.50017C3.1216 19.0008 2 17.8792 2 16.5008V6.5C2 5.12167 3.1216 4 4.50017 4H19.5003C20.8789 4 21.9997 5.12167 21.9997 6.5V12.3333C21.9997 12.7942 21.6272 13.1675 21.1668 13.1675ZM11.9998 12.0592L19.2919 5.66667H4.70859L11.9998 12.0592ZM15.9648 15.9567L17.4923 17.7317L20.5424 14.2817C20.8479 13.9383 21.3736 13.905 21.7184 14.2092C22.0633 14.5142 22.0959 15.0408 21.7912 15.3858L18.1075 19.5517C17.9493 19.7308 17.7217 19.8333 17.4831 19.8333C17.4814 19.8333 17.4798 19.8333 17.4781 19.8333C17.237 19.8317 17.0094 19.7258 16.852 19.5433L14.7017 17.0433C14.4012 16.6942 14.4414 16.1683 14.7896 15.8683C15.1403 15.5692 15.6651 15.6075 15.9648 15.9567Z" fill="#6B7084"/>
</svg>
