<svg width="24" height="24" viewBox="0 0 24 24" fill="none" xmlns="http://www.w3.org/2000/svg">
<path fill-rule="evenodd" clip-rule="evenodd" d="M21.1667 13.1667C20.7067 13.1667 20.3333 12.7933 20.3333 12.3333V6.97L12.5492 13.7933C12.3925 13.9317 12.1958 14 12 14C11.8042 14 11.6075 13.9317 11.4508 13.7933L3.66667 6.97V16.5C3.66667 16.9592 4.04083 17.3333 4.5 17.3333H12.8333C13.2933 17.3333 13.6667 17.7067 13.6667 18.1667C13.6667 18.6267 13.2933 19 12.8333 19H4.5C3.12167 19 2 17.8783 2 16.5V6.5C2 5.12167 3.12167 4 4.5 4H19.5C20.8783 4 22 5.12167 22 6.5V12.3333C22 12.7933 21.6267 13.1667 21.1667 13.1667ZM4.70833 5.66667L12 12.0583L19.2917 5.66667H4.70833ZM16.1667 16.5H17.8333V14.8333C17.8333 14.3733 18.2067 14 18.6667 14C19.1267 14 19.5 14.3733 19.5 14.8333V16.5H21.1667C21.6267 16.5 22 16.8733 22 17.3333C22 17.7933 21.6267 18.1667 21.1667 18.1667H19.5V19.8333C19.5 20.2933 19.1267 20.6667 18.6667 20.6667C18.2067 20.6667 17.8333 20.2933 17.8333 19.8333V18.1667H16.1667C15.7067 18.1667 15.3333 17.7933 15.3333 17.3333C15.3333 16.8733 15.7067 16.5 16.1667 16.5Z" fill="#6B7084"/>
</svg>
