<svg viewBox="0 0 24 24" fill="none" xmlns="http://www.w3.org/2000/svg">
<path fill-rule="evenodd" clip-rule="evenodd" d="M21.1661 11.5C20.706 11.5 20.333 11.1267 20.333 10.6667V6.96917L12.5491 13.7933C12.3927 13.9308 12.1961 14 11.9996 14C11.8039 14 11.6081 13.9308 11.4509 13.7933L3.66702 6.96917V16.5C3.66702 16.9592 4.0409 17.3333 4.5001 17.3333H11.1665C11.6265 17.3333 11.9996 17.7067 11.9996 18.1667C11.9996 18.6267 11.6265 19 11.1665 19H4.5001C3.12166 19 2 17.8783 2 16.5V6.5C2 5.12167 3.12166 4 4.5001 4H19.4999C20.8783 4 22 5.12167 22 6.5V10.6667C22 11.1267 21.6261 11.5 21.1661 11.5ZM4.7092 5.66667L11.9996 12.0583L19.2908 5.66667H4.7092ZM16.9998 12.3333C18.8375 12.3333 20.333 13.8283 20.333 15.6667C20.333 16.2833 20.1532 16.8542 19.8604 17.35L21.7558 19.2442C22.0812 19.5692 22.0812 20.0975 21.7558 20.4225C21.5935 20.585 21.3794 20.6667 21.1661 20.6667C20.9528 20.6667 20.7395 20.585 20.5772 20.4225L18.6819 18.5275C18.1859 18.82 17.6163 19 16.9998 19C15.1622 19 13.6666 17.5042 13.6666 15.6667C13.6666 13.8283 15.1622 12.3333 16.9998 12.3333ZM16.9998 17.3333C17.4581 17.3333 17.873 17.1475 18.175 16.8475C18.1758 16.8467 18.1758 16.845 18.1766 16.8442C18.1775 16.8433 18.1791 16.8433 18.18 16.8425C18.4803 16.5408 18.6668 16.125 18.6668 15.6667C18.6668 14.7475 17.919 14 16.9998 14C16.0805 14 15.3336 14.7475 15.3336 15.6667C15.3336 16.5858 16.0805 17.3333 16.9998 17.3333Z" fill="currentColor"/>
</svg>