<svg viewBox="0 0 24 24" fill="none" xmlns="http://www.w3.org/2000/svg">
<path fill-rule="evenodd" clip-rule="evenodd" d="M21.1667 20.6667H14.5C14.04 20.6667 13.6667 20.2933 13.6667 19.8333V15.6667C13.6667 15.2067 14.04 14.8333 14.5 14.8333H15.3333V14.0017C15.3333 12.6225 16.4542 11.5 17.8325 11.5C19.2117 11.5 20.3333 12.6225 20.3333 14.0017V14.8325V14.8333H21.1667C21.6267 14.8333 22 15.2067 22 15.6667V19.8333C22 20.2933 21.6267 20.6667 21.1667 20.6667ZM18.6667 14.8325V14.0017C18.6667 13.5417 18.2925 13.1667 17.8325 13.1667C17.3733 13.1667 17 13.5417 17 14.0017V14.8333H18.6667V14.8325ZM20.3333 16.5H15.3333V19H20.3333V16.5ZM21.1667 11.5C20.7067 11.5 20.3333 11.1267 20.3333 10.6667V6.96917L12.5492 13.7933C12.3925 13.9308 12.1958 14 12 14C11.8042 14 11.6075 13.9308 11.4508 13.7933L3.66667 6.96917V16.5C3.66667 16.9592 4.04083 17.3333 4.5 17.3333H11.1667C11.6267 17.3333 12 17.7067 12 18.1667C12 18.6267 11.6267 19 11.1667 19H4.5C3.12167 19 2 17.8783 2 16.5V6.5C2 5.12167 3.12167 4 4.5 4H19.5C20.8783 4 22 5.12167 22 6.5V10.6667C22 11.1267 21.6267 11.5 21.1667 11.5ZM4.70915 5.66667L12 12.0583L19.2908 5.66667H4.70915Z" fill="currentColor"/>
</svg>