<svg viewBox="0 0 24 24" fill="none" xmlns="http://www.w3.org/2000/svg">
<path fill-rule="evenodd" clip-rule="evenodd" d="M21.1667 14C20.7067 14 20.3333 13.6267 20.3333 13.1667V6.96917L12.5492 13.7933C12.3925 13.9308 12.1958 14 12 14C11.8042 14 11.6075 13.9308 11.4508 13.7933L3.66667 6.96917V16.5C3.66667 16.9592 4.04083 17.3333 4.5 17.3333H11.1667C11.6267 17.3333 12 17.7067 12 18.1667C12 18.6267 11.6267 19 11.1667 19H4.5C3.12167 19 2 17.8783 2 16.5V6.5C2 5.12167 3.12167 4 4.5 4H19.5C20.8783 4 22 5.12167 22 6.5V13.1667C22 13.6267 21.6267 14 21.1667 14ZM4.70915 5.66667L12 12.0583L19.2908 5.66667H4.70915ZM13.7308 16.1817C13.7733 16.0792 13.8342 15.9875 13.9117 15.91L16.4108 13.4108C16.7367 13.085 17.2633 13.085 17.5892 13.4108C17.915 13.7367 17.915 14.2642 17.5892 14.5892L16.5117 15.6667H17.8342H17.835C20.0542 15.6675 22 17.6142 22 19.8333C22 20.2933 21.6267 20.6667 21.1667 20.6667C20.7067 20.6667 20.3333 20.2933 20.3333 19.8333C20.3333 18.4025 19.0133 17.3333 17.8333 17.3333H16.5117L17.5892 18.4108C17.915 18.7367 17.915 19.2633 17.5892 19.5892C17.4267 19.7517 17.2133 19.8333 17 19.8333C16.7867 19.8333 16.5733 19.7517 16.4108 19.5892L13.9117 17.09C13.8342 17.0125 13.7733 16.9208 13.7308 16.8183C13.6892 16.7175 13.6675 16.61 13.6667 16.5017C13.6667 16.5008 13.6667 16.5008 13.6667 16.5C13.6667 16.3917 13.6892 16.2833 13.7308 16.1817Z" fill="currentColor"/>
</svg>