<svg width="24" height="24" viewBox="0 0 24 24" fill="none" xmlns="http://www.w3.org/2000/svg">
<path fill-rule="evenodd" clip-rule="evenodd" d="M19.3273 22H4.47497C3.11028 22 2 20.8783 2 19.5V11.1667C2 11.16 2.00167 11.1533 2.00334 11.1475C2.00667 11.025 2.0367 10.905 2.09259 10.7942C2.09426 10.785 2.09593 10.7758 2.10093 10.7675C2.11845 10.7342 2.14932 10.7133 2.171 10.6833C2.17601 10.6758 2.18268 10.67 2.18769 10.6633C2.21605 10.6258 2.2344 10.5833 2.26944 10.55L4.97214 8.06834C5.31081 7.75834 5.83217 7.78334 6.1383 8.12417C6.44444 8.46417 6.42025 8.99084 6.08242 9.30084L4.23807 10.9958L11.9016 15.2175L19.5651 10.9958L17.7357 9.31584C17.3987 9.00584 17.3737 8.47917 17.6807 8.13834C17.9877 7.79834 18.509 7.7725 18.846 8.0825L21.4369 10.4625C21.7422 10.6033 22 10.8575 22 11.1667V19.5C22 20.8783 20.692 22 19.3273 22ZM20.3317 12.4717L12.2961 16.8983C12.1735 16.9658 12.0375 17 11.9016 17C11.7648 17 11.6296 16.9658 11.5062 16.8983L3.64998 12.5708V19.5C3.64998 19.9592 4.02035 20.3333 4.47498 20.3333H19.3273C19.7819 20.3333 20.3317 19.9592 20.3317 19.5V12.4717ZM13.7993 10.3117C13.3113 10.1167 12.9718 9.75917 12.8191 9.3175C12.5347 9.4325 12.226 9.5 11.9015 9.5C10.536 9.5 9.42574 8.37833 9.42574 7C9.42574 5.62167 10.536 4.5 11.9015 4.5C12.6506 4.5 13.3146 4.845 13.7693 5.3775C14.1163 5.47583 14.3765 5.78417 14.3765 6.16667V8.7875C14.4349 8.8125 14.7452 8.8225 14.832 8.7475C15.2215 8.33 15.2082 7.7525 15.1973 7.24333L15.194 7C15.194 5.16167 13.715 3.66667 11.8982 3.66667C10.0797 3.66667 8.60075 5.16167 8.60075 7C8.60075 8.83833 10.0797 10.3333 11.8982 10.3333C12.3537 10.3333 12.7232 10.7067 12.7232 11.1667C12.7232 11.6267 12.3537 12 11.8982 12C9.17049 12 6.95077 9.7575 6.95077 7C6.95077 4.2425 9.17049 2 11.8982 2C14.6251 2 16.844 4.2425 16.844 7L16.8473 7.20583C16.8623 7.8675 16.8865 8.975 16.0315 9.8925C15.5143 10.4458 14.5767 10.6225 13.7993 10.3117ZM11.9016 6.16667C11.4461 6.16667 11.0757 6.54083 11.0757 7C11.0757 7.45917 11.4461 7.83333 11.9016 7.83333C12.3562 7.83333 12.7265 7.45917 12.7265 7C12.7265 6.54083 12.3562 6.16667 11.9016 6.16667Z" fill="#6B7084"/>
</svg>
12.8304 10.7067 12.8304 11.1667C12.8304 11.6267 12.4568 12 11.9966 12C9.24213 12 7 9.7575 7 7C7 4.24333 9.24213 2 11.9966 2C14.7511 2 16.9916 4.24333 16.9916 7L16.995 7.20583C17.0101 7.8675 17.0353 8.975 16.1713 9.8925C15.6488 10.4467 14.7015 10.6225 13.9174 10.3125ZM12 6.16667C11.5406 6.16667 11.1671 6.54083 11.1671 7C11.1671 7.45917 11.5406 7.83333 12 7.83333C12.4593 7.83333 12.8337 7.45917 12.8337 7C12.8337 6.54083 12.4593 6.16667 12 6.16667Z" fill="#6B7084"/>
</svg>
