<svg width="24" height="24" viewBox="0 0 24 24" fill="none" xmlns="http://www.w3.org/2000/svg">
<path fill-rule="evenodd" clip-rule="evenodd" d="M21.166 12.3333C20.706 12.3333 20.4132 11.96 20.4132 11.5V6.89917L12.5487 13.7933C12.3923 13.9317 12.1957 14 12 14C11.8034 14 11.6077 13.9317 11.4504 13.7933L3.66625 6.97V16.5C3.66625 16.9592 4.04015 17.3333 4.49937 17.3333H12.8331C13.2932 17.3333 13.6662 17.7067 13.6662 18.1667C13.6662 18.6267 13.2932 19 12.8331 19H4.49937C3.12087 19 2 17.8783 2 16.5V6.5C2 5.12167 3.12087 4 4.49937 4H19.4998C20.8783 4 22 5.12167 22 6.5V11.5C22 11.96 21.6269 12.3333 21.166 12.3333ZM4.70767 5.66667L12 12.0583L19.2915 5.66667H4.70767ZM18.077 13.4108C18.2401 13.2483 18.4525 13.1667 18.6658 13.1667C18.6658 13.1667 18.6658 13.1667 18.6667 13.1667C18.6901 13.1667 18.7119 13.1783 18.7361 13.1808C18.9369 13.1983 19.1217 13.2767 19.2564 13.4117L21.7558 15.9108C22.0812 16.2367 22.0812 16.7633 21.7558 17.0892C21.5927 17.2517 21.3794 17.3333 21.1661 17.3333C20.9528 17.3333 20.7403 17.2517 20.5772 17.0892L19.4998 16.0117V19V19.8333C19.4998 20.2933 19.1267 20.6667 18.6667 20.6667C18.2066 20.6667 17.9038 20.2933 17.9038 19.8333V19V15.9408L16.7553 17.0892C16.43 17.4142 15.903 17.4142 15.5768 17.0892C15.2514 16.7633 15.2514 16.2367 15.5768 15.9108L18.077 13.4108Z" fill="#6B7084"/>
</svg>
