<svg width="24" height="24" viewBox="0 0 24 24" fill="none" xmlns="http://www.w3.org/2000/svg">
<path fill-rule="evenodd" clip-rule="evenodd" d="M21.1667 15C20.7067 15 20.3333 14.6267 20.3333 14.1667V7.97L12.5492 14.7933C12.3925 14.9317 12.1958 15 12 15C11.8042 15 11.6075 14.9317 11.4508 14.7933L3.66667 7.97V17.5C3.66667 17.9592 4.04083 18.3333 4.5 18.3333H12.8333C13.2933 18.3333 13.6667 18.7067 13.6667 19.1667C13.6667 19.6267 13.2933 20 12.8333 20H4.5C3.12167 20 2 18.8783 2 17.5V7.5C2 6.12167 3.12167 5 4.5 5H19.5C20.8783 5 22 6.12167 22 7.5V14.1667C22 14.6267 21.6267 15 21.1667 15ZM4.70833 6.66667L12 13.0583L19.2917 6.66667H4.70833ZM16.1667 16.6667H21.1667C21.6267 16.6667 22 17.04 22 17.5C22 17.96 21.6267 18.3333 21.1667 18.3333H16.1667C15.7067 18.3333 15.3333 17.96 15.3333 17.5C15.3333 17.04 15.7067 16.6667 16.1667 16.6667Z" fill="#6B7084"/>
</svg>
