<svg width="24" height="24" viewBox="0 0 24 24" fill="none" xmlns="http://www.w3.org/2000/svg">
<path fill-rule="evenodd" clip-rule="evenodd" d="M21.9888 7.20978L20.8755 16.3122C20.7552 17.4402 19.7823 18.3333 18.6615 18.3333H7.83362C7.37345 18.3333 7.00013 17.9601 7.00013 17.5006C7.00013 17.0402 7.39015 16.7433 7.85033 16.7433H18.7074C18.9688 16.7433 19.1893 16.4078 19.2194 16.1227L20.2299 7.86894L13.3874 13.9557C13.2346 14.0924 13.0375 14.167 12.8337 14.167C12.817 14.167 12.8012 14.1662 12.7845 14.1645C12.564 14.1519 12.3577 14.0521 12.2107 13.8869L5.54278 6.38709C5.51438 6.35522 5.50352 6.31497 5.48097 6.27975C5.4484 6.23027 5.41333 6.18414 5.39245 6.12711C5.37073 6.07009 5.36572 6.01222 5.35654 5.95268C5.35069 5.91159 5.33232 5.87553 5.33232 5.83276C5.33232 5.82437 5.33733 5.81766 5.33733 5.80928C5.339 5.74722 5.35821 5.69019 5.37324 5.63065C5.38577 5.58368 5.38911 5.53588 5.40915 5.49311C5.42836 5.45034 5.46177 5.41512 5.48849 5.37487C5.52273 5.32455 5.5528 5.27172 5.59706 5.22978C5.60374 5.22391 5.60625 5.21553 5.61209 5.2105C5.64383 5.18198 5.68392 5.17108 5.71816 5.14844C5.76827 5.11573 5.81504 5.08051 5.87183 5.05954C5.92862 5.03774 5.98708 5.03271 6.04721 5.02348C6.0873 5.01761 6.12405 5 6.16581 5H19.9109C20.5114 5 21.0876 5.2583 21.4927 5.70864C21.8718 6.12963 22.0481 6.663 21.9888 7.20978ZM8.02234 6.66635L12.9022 12.1568L19.0732 6.66635H8.02234ZM7.83359 9.9999C7.83359 10.4603 7.46027 10.8335 7.0001 10.8335H4.50046C4.04029 10.8335 3.66697 10.4603 3.66697 9.9999C3.66697 9.53949 4.04029 9.1663 4.50046 9.1663H7.0001C7.46027 9.1663 7.83359 9.53949 7.83359 9.9999ZM8.66709 12.4998C8.66709 12.9602 8.29377 13.3334 7.8336 13.3334H2.83349C2.37332 13.3334 2 12.9602 2 12.4998C2 12.0394 2.37332 11.6662 2.83349 11.6662H7.8336C8.29377 11.6662 8.66709 12.0394 8.66709 12.4998ZM5.33311 14.167H9.50057C9.96074 14.167 10.3332 14.5394 10.3332 14.9998C10.3332 15.4602 9.96074 15.8334 9.50057 15.8334H5.33311C4.87294 15.8334 4.50046 15.4602 4.50046 14.9998C4.50046 14.5394 4.87294 14.167 5.33311 14.167Z" fill="#6B7084"/>
</svg>
