<svg viewBox="0 0 24 24" fill="none" xmlns="http://www.w3.org/2000/svg">
<path fill-rule="evenodd" clip-rule="evenodd" d="M21.1667 11.5C20.7067 11.5 20.3333 11.1267 20.3333 10.6667V6.97L12.5492 13.7933C12.3925 13.9317 12.1958 14 12 14C11.8042 14 11.6075 13.9317 11.4508 13.7933L3.66667 6.97V16.5C3.66667 16.9592 4.04083 17.3333 4.5 17.3333H12.8333C13.2933 17.3333 13.6667 17.7067 13.6667 18.1667C13.6667 18.6267 13.2933 19 12.8333 19H4.5C3.12167 19 2 17.8783 2 16.5V6.5C2 5.12167 3.12167 4 4.5 4H19.5C20.8783 4 22 5.12167 22 6.5V10.6667C22 11.1267 21.6267 11.5 21.1667 11.5ZM4.70833 5.66667L12 12.0583L19.2917 5.66667H4.70833ZM16.1667 15.6667C16.6267 15.6667 17 16.04 17 16.5C17 17.4192 17.7475 18.1667 18.6667 18.1667C19.5858 18.1667 20.3333 17.4192 20.3333 16.5C20.3333 15.7192 19.7917 15.0667 19.0658 14.8875L19.2558 15.0775C19.5817 15.4033 19.5817 15.9308 19.2558 16.2558C19.0933 16.4183 18.88 16.5 18.6667 16.5C18.4533 16.5 18.24 16.4183 18.0775 16.2558L16.4108 14.5892C16.085 14.2633 16.085 13.7358 16.4108 13.4108L18.0775 11.7442C18.4033 11.4183 18.93 11.4183 19.2558 11.7442C19.5817 12.07 19.5817 12.5975 19.2558 12.9225L18.9783 13.2C20.6758 13.3667 22 14.7742 22 16.5C22 18.3383 20.505 19.8333 18.6667 19.8333C16.8283 19.8333 15.3333 18.3383 15.3333 16.5C15.3333 16.04 15.7067 15.6667 16.1667 15.6667Z" fill="currentColor"/>
</svg>