<svg viewBox="0 0 24 24" fill="none" xmlns="http://www.w3.org/2000/svg">
<path fill-rule="evenodd" clip-rule="evenodd" d="M21.1665 11.5C20.7064 11.5 20.417 11.1267 20.417 10.6667V6.89667L12.5493 13.7933C12.3921 13.9308 12.1964 14 11.9998 14C11.8041 14 11.6075 13.9308 11.4511 13.7933L3.66705 6.97V16.5C3.66705 16.9592 4.04094 17.3333 4.50016 17.3333H11.9998C12.4598 17.3333 12.8337 17.7067 12.8337 18.1667C12.8337 18.6267 12.4598 19 11.9998 19H4.50016C3.12168 19 2 17.8783 2 16.5V6.5C2 5.12167 3.12168 4 4.50016 4H19.5003C20.8787 4 21.9996 5.12167 21.9996 6.5V10.6667C21.9996 11.1267 21.6265 11.5 21.1665 11.5ZM4.70844 5.66667L11.9998 12.0583L19.2911 5.66667H4.70844ZM15.5773 14.2442C15.9027 13.9183 16.4305 13.9183 16.7559 14.2442L18.6663 16.155L20.5776 14.2442C20.903 13.9183 21.43 13.9183 21.7554 14.2442C22.0816 14.5692 22.0816 15.0967 21.7554 15.4225L19.8449 17.3333L21.7554 19.2442C22.0816 19.57 22.0816 20.0967 21.7554 20.4225C21.5931 20.585 21.3798 20.6667 21.1665 20.6667C20.9532 20.6667 20.7399 20.585 20.5776 20.4225L18.6663 18.5117L16.7559 20.4225C16.5928 20.585 16.3803 20.6667 16.167 20.6667C15.9537 20.6667 15.7404 20.585 15.5773 20.4225C15.2519 20.0967 15.2519 19.57 15.5773 19.2442L17.4886 17.3333L15.5773 15.4225C15.2519 15.0967 15.2519 14.5692 15.5773 14.2442Z" fill="currentColor"/>
</svg>