<svg width="24" height="24" viewBox="0 0 24 24" fill="none" xmlns="http://www.w3.org/2000/svg">
<path fill-rule="evenodd" clip-rule="evenodd" d="M21.167 13.1664C20.7067 13.1664 20.3867 12.8347 20.3867 12.3751V6.92289L12.5489 13.7931C12.3918 13.931 12.1963 13.9995 12 13.9995C11.8037 13.9995 11.6073 13.931 11.4511 13.7931L3.66681 6.96968V16.4996C3.66681 16.9592 4.04027 17.3335 4.49979 17.3335H12C12.4604 17.3335 12.833 17.7062 12.833 18.1666C12.833 18.627 12.4604 18.9997 12 18.9997H4.49979C3.12123 18.9997 2 17.8783 2 16.4996V6.50008C2 5.12136 3.12123 4 4.49979 4H19.5002C20.8788 4 22 5.12136 22 6.50008V12.3333C22 12.7929 21.6265 13.1664 21.167 13.1664ZM4.70869 5.667L12 12.0584L19.2914 5.667H4.70869ZM14.3736 14.8902L16.2368 14.6045L17.0781 12.813C17.2151 12.5205 17.5092 12.3333 17.8326 12.3333C18.1559 12.3333 18.45 12.5205 18.587 12.813L19.4275 14.6045L21.2923 14.8902C21.6015 14.937 21.858 15.1534 21.9566 15.4492C22.056 15.7459 21.9808 16.0718 21.7636 16.2957L20.39 17.702L20.715 19.6991C20.7668 20.0141 20.634 20.3308 20.3725 20.5146C20.2296 20.6157 20.0617 20.6667 19.8929 20.6667C19.755 20.6667 19.6155 20.6324 19.4902 20.5622L17.8326 19.6456L16.1758 20.5622C15.8976 20.7168 15.5542 20.6976 15.2927 20.5146C15.032 20.3308 14.8992 20.0141 14.9501 19.6991L15.276 17.702L13.9033 16.2957C13.6852 16.0718 13.6108 15.7459 13.7094 15.4492C13.8088 15.1534 14.0653 14.937 14.3736 14.8902ZM16.7623 16.8397C16.9469 17.0285 17.0305 17.2942 16.9879 17.5549L16.8717 18.2735L17.429 17.9644C17.5543 17.895 17.6939 17.8599 17.8326 17.8599C17.9712 17.8599 18.1099 17.895 18.2361 17.9644L18.7942 18.2735L18.6781 17.5549C18.6346 17.2942 18.719 17.0285 18.9037 16.8388L19.4375 16.2924L18.7357 16.1846C18.4608 16.1428 18.2252 15.9665 18.1074 15.715L17.8317 15.1284L17.5568 15.715C17.439 15.9665 17.2034 16.1428 16.9286 16.1846L16.2284 16.2924L16.7623 16.8397Z" fill="#6B7084"/>
</svg>
