<svg width="24" height="24" viewBox="0 0 24 24" fill="none" xmlns="http://www.w3.org/2000/svg">
<path fill-rule="evenodd" clip-rule="evenodd" d="M21.1669 12.3333C20.7068 12.3333 20.3338 11.96 20.3338 11.5V6.97L12.5496 13.7933C12.3923 13.9308 12.1966 14 12 14C11.8043 14 11.6077 13.9308 11.4504 13.7933L3.66708 6.97V16.5C3.66708 16.9592 4.04099 17.3333 4.50021 17.3333H11.1669C11.6269 17.3333 12 17.7067 12 18.1667C12 18.6267 11.6269 19 11.1669 19H4.50021C3.12171 19 2 17.8783 2 16.5V6.5C2 5.12167 3.12171 4 4.50021 4H19.5006C20.8791 4 22 5.12167 22 6.5V11.5C22 11.96 21.6269 12.3333 21.1669 12.3333ZM4.70849 5.66667L12 12.0583L19.2915 5.66667H4.70849ZM14.5002 15.6667H16.1673H19.1552L18.0778 14.5892C17.7524 14.2633 17.7524 13.7367 18.0778 13.4108C18.4032 13.085 18.9301 13.085 19.2564 13.4108L21.7557 15.9108C21.7582 15.9133 21.7591 15.9167 21.7616 15.9192C21.9088 16.0692 22 16.2733 22 16.5C22 16.7308 21.9063 16.9392 21.7549 17.09L19.2564 19.5892C19.0933 19.7517 18.88 19.8333 18.6667 19.8333C18.4534 19.8333 18.2401 19.7517 18.0778 19.5892C17.7524 19.2642 17.7524 18.7367 18.0778 18.4108L19.1552 17.3333H16.1673H14.5002C14.0401 17.3333 13.6671 16.96 13.6671 16.5C13.6671 16.04 14.0401 15.6667 14.5002 15.6667Z" fill="#6B7084"/>
</svg>
