<svg width="24" height="24" viewBox="0 0 24 24" fill="none" xmlns="http://www.w3.org/2000/svg">
<path fill-rule="evenodd" clip-rule="evenodd" d="M19.3339 22H4.47664C3.11065 22 2 20.8788 2 19.5V11.1663C2 11.1596 2.0025 11.1538 2.00417 11.1471C2.00668 11.025 2.03755 10.9055 2.09262 10.7934C2.09513 10.7851 2.0968 10.7759 2.10097 10.7675C2.11933 10.7332 2.1502 10.7123 2.1719 10.6822C2.1769 10.6747 2.18274 10.6697 2.18775 10.663C2.21696 10.6254 2.23448 10.5827 2.27036 10.5501L5.15087 7.90461C5.19593 7.86364 5.251 7.84357 5.3019 7.81431V5.33269C5.3019 4.87282 5.67156 4.49991 6.12717 4.49991H8.86165L11.35 2.21729C11.6646 1.92799 12.1452 1.92715 12.4606 2.21729L14.9481 4.49991H17.6826C18.1382 4.49991 18.5078 4.87282 18.5078 5.33269V7.76748L21.4376 10.4565C21.743 10.5927 22 10.8419 22 11.1521V19.5134C22 20.8921 20.6991 22 19.3339 22ZM4.23882 10.9949L5.3019 11.581V10.0192L4.23882 10.9949ZM11.9049 3.95977L11.3166 4.49991H12.494L11.9049 3.95977ZM9.25719 6.13537C9.23967 6.13704 9.22215 6.1454 9.20462 6.1454C9.18877 6.1454 9.17375 6.1362 9.15789 6.13537H6.97999L6.95412 12.4908L11.9049 15.2174L16.9933 12.4147V6.13537H9.25719ZM18.5078 10.02V11.5811L19.5709 10.9958L18.5078 10.02ZM20.3311 12.4757L12.3004 16.898C12.1769 16.9657 12.0409 17 11.9049 17C11.7688 17 11.6328 16.9657 11.5093 16.898L3.65136 12.5702V19.5C3.65136 19.959 4.02185 20.3328 4.47662 20.3328H19.3339C19.7887 20.3328 20.3311 19.9724 20.3311 19.5134V12.4757Z" fill="#6B7084"/>
</svg>
L18.6635 10.1479ZM20.3318 12.7825L16.3062 16.0585L20.3318 19.3846V12.7825Z" fill="#6B7084"/>
</svg>
