<svg viewBox="0 0 24 24" fill="none" xmlns="http://www.w3.org/2000/svg">
<path fill-rule="evenodd" clip-rule="evenodd" d="M21.1667 14.8333C20.7067 14.8333 20.3333 14.46 20.3333 14V6.97L12.5492 13.7933C12.3925 13.9317 12.1958 14 12 14C11.8042 14 11.6075 13.9317 11.4508 13.7933L3.66667 6.97V16.5C3.66667 16.9592 4.04083 17.3333 4.5 17.3333H12C12.46 17.3333 12.8333 17.7067 12.8333 18.1667C12.8333 18.6267 12.46 19 12 19H4.5C3.12167 19 2 17.8783 2 16.5V6.5C2 5.12167 3.12167 4 4.5 4H19.5C20.8783 4 22 5.12167 22 6.5V14C22 14.46 21.6267 14.8333 21.1667 14.8333ZM4.70833 5.66667L12 12.0583L19.2917 5.66667H4.70833ZM15.9225 16.7442L17 17.8217V14.8333V14C17 13.54 17.3733 13.1667 17.8333 13.1667C18.2933 13.1667 18.6667 13.54 18.6667 14V14.8333V17.8217L19.7442 16.7442C20.07 16.4183 20.5967 16.4183 20.9225 16.7442C21.2483 17.0692 21.2483 17.5967 20.9225 17.9225L18.4225 20.4225C18.2717 20.5733 18.0633 20.6667 17.8333 20.6667C17.725 20.6667 17.6167 20.645 17.515 20.6025C17.4125 20.56 17.3208 20.4992 17.2433 20.4225L14.7442 17.9225C14.4183 17.5967 14.4183 17.0692 14.7442 16.7442C15.07 16.4183 15.5967 16.4183 15.9225 16.7442Z" fill="currentColor"/>
</svg>