<svg width="24" height="24" viewBox="0 0 24 24" fill="none" xmlns="http://www.w3.org/2000/svg">
<path fill-rule="evenodd" clip-rule="evenodd" d="M19.3361 22H4.47695C3.11162 22 2 20.8788 2 19.5V11.1671C2 11.1596 2.0025 11.1537 2.00417 11.1479C2.00668 11.025 2.03755 10.9054 2.09347 10.7934C2.09514 10.785 2.09681 10.7758 2.10098 10.7674C2.11934 10.734 2.14938 10.7131 2.17192 10.683C2.17692 10.6755 2.1836 10.6696 2.18944 10.6621C2.21782 10.6253 2.23534 10.5827 2.27039 10.55L11.3511 2.21635C11.6658 1.92788 12.1465 1.92788 12.4619 2.21635L21.44 10.4564C21.7446 10.5927 22 10.8419 22 11.1521V19.5134C22 20.8921 20.7014 22 19.3361 22ZM3.65159 19.5C3.65159 19.9598 4.02213 20.3336 4.47696 20.3336H19.3361C19.791 20.3336 20.3309 19.9724 20.3309 19.5134V12.4773L12.3017 16.8988C12.1782 16.9665 12.0422 16.9999 11.9061 16.9999C11.7701 16.9999 11.6341 16.9665 11.5105 16.8988L3.65159 12.571V19.5ZM11.9061 3.95968L4.23994 10.9957L11.9061 15.2173L19.5731 10.9957L11.9061 3.95968Z" fill="#6B7084"/>
</svg>
.9793L11.0675 13.129C11.5529 12.7361 12.2736 12.7361 12.754 13.124L14.9994 14.9793L19.7321 11.1283L11.9141 3.9596Z" fill="#6B7084"/>
</svg>
