<svg viewBox="0 0 24 24" fill="none" xmlns="http://www.w3.org/2000/svg">
<path fill-rule="evenodd" clip-rule="evenodd" d="M21.1658 11.5C20.7058 11.5 20.3325 11.1267 20.3325 10.6667V6.96917L12.5492 13.7933C12.3917 13.9308 12.1958 14 12 14C11.8033 14 11.6075 13.9308 11.45 13.7933L3.66667 6.96917V16.5C3.66667 16.9592 4.04083 17.3333 4.5 17.3333H12C12.46 17.3333 12.8325 17.7067 12.8325 18.1667C12.8325 18.6267 12.46 19 12 19H4.5C3.12167 19 2 17.8783 2 16.5V6.5C2 5.12167 3.12167 4 4.5 4H19.4992C20.8775 4 21.9992 5.12167 21.9992 6.5V10.6667C21.9992 11.1267 21.6258 11.5 21.1658 11.5ZM4.70915 5.66667L12 12.0583L19.29 5.66667H4.70915ZM14.1691 17.2725C14.1841 17.2225 14.2041 17.1767 14.2283 17.13C14.2575 17.075 14.2883 17.0267 14.3275 16.98C14.3433 16.9617 14.3491 16.9392 14.3666 16.9217L18.27 13.0167C18.2791 13.0075 18.2916 13.005 18.3008 12.9958C18.3091 12.9867 18.3125 12.975 18.3208 12.9658C18.7275 12.5583 19.2683 12.3325 19.8441 12.3325H19.845C20.4208 12.3325 20.9616 12.5575 21.3683 12.9658C21.775 13.3717 22 13.9133 22 14.4908C21.9991 15.0658 21.7741 15.6058 21.3658 16.0108C21.3583 16.0192 21.3475 16.0217 21.3391 16.0292C21.3291 16.04 21.3266 16.0533 21.3158 16.0642L17.4141 19.9683C17.3916 19.9908 17.3625 19.9992 17.3383 20.0183C17.3008 20.0483 17.2625 20.0733 17.2208 20.0967C17.1633 20.1283 17.1066 20.1525 17.045 20.1692C17.0225 20.1758 17.0058 20.1908 16.9825 20.195L14.66 20.6517C14.6066 20.6617 14.5525 20.6667 14.4991 20.6667C14.2808 20.6667 14.0683 20.5808 13.91 20.4225C13.7141 20.2258 13.6283 19.945 13.6816 19.6725L14.1375 17.3483C14.1433 17.3208 14.1608 17.2992 14.1691 17.2725ZM16.4175 18.6075L20.1367 14.8858C20.1459 14.8767 20.1575 14.8742 20.1667 14.8658C20.1767 14.8542 20.1809 14.84 20.1909 14.83C20.2825 14.7392 20.3325 14.6175 20.3334 14.4883C20.3334 14.3583 20.2825 14.2358 20.19 14.1433C20.0959 14.05 19.975 13.9992 19.845 13.9992C19.7159 13.9992 19.5942 14.05 19.5025 14.1425C19.4925 14.1525 19.4784 14.1558 19.4684 14.165C19.46 14.1742 19.4567 14.1867 19.4484 14.195L15.7234 17.9217L15.5559 18.7767L16.4175 18.6075Z" fill="currentColor"/>
</svg>