<svg width="24" height="24" viewBox="0 0 24 24" fill="none" xmlns="http://www.w3.org/2000/svg">
<path fill-rule="evenodd" clip-rule="evenodd" d="M21.1667 14C20.7067 14 20.3333 13.6267 20.3333 13.1667V6.97L12.5492 13.7933C12.3925 13.9308 12.1958 14 12 14C11.8042 14 11.6075 13.9308 11.4508 13.7933L3.66667 6.97V16.5C3.66667 16.9592 4.04083 17.3333 4.5 17.3333H13.6667C14.1267 17.3333 14.5 17.7067 14.5 18.1667C14.5 18.6267 14.1267 19 13.6667 19H4.5C3.12167 19 2 17.8783 2 16.5V6.5C2 5.12167 3.12167 4 4.5 4H19.5C20.8783 4 22 5.12167 22 6.5V13.1667C22 13.6267 21.6267 14 21.1667 14ZM4.70833 5.66667L12 12.0583L19.2917 5.66667H4.70833ZM18.6667 14C20.505 14 22 15.495 22 17.3333C22 19.1717 20.505 20.6667 18.6667 20.6667C16.8283 20.6667 15.3333 19.1717 15.3333 17.3333C15.3333 15.495 16.8283 14 18.6667 14ZM18.6667 15.6667C18.5183 15.6667 18.3775 15.6925 18.2408 15.7292L20.2717 17.7592C20.3075 17.6225 20.3333 17.4817 20.3333 17.3333C20.3333 16.4142 19.5858 15.6667 18.6667 15.6667ZM18.6667 19C18.815 19 18.9567 18.9742 19.0933 18.9375L17.0625 16.9067C17.0258 17.0442 17 17.185 17 17.3333C17 18.2525 17.7475 19 18.6667 19Z" fill="#6B7084"/>
</svg>
