<svg viewBox="0 0 24 24" fill="none" xmlns="http://www.w3.org/2000/svg">
<g clip-path="url(#clip0_1265_21886)">
<path d="M12 24C18.6274 24 24 18.6274 24 12C24 5.37258 18.6274 0 12 0C5.37258 0 0 5.37258 0 12C0 18.6274 5.37258 24 12 24Z" fill="#00CCFF"/>
<path d="M6.3258 14.1127H9.4037L8.0786 16.8H5L6.3258 14.1127ZM8.0793 10.5567H11.1579L9.837 13.237H6.757L8.08 10.556L8.0793 10.5567ZM9.8335 7.0007H12.9121L11.5898 9.6817H8.5119L9.8335 7V7.0007Z" fill="white" fill-opacity="0.4"/>
<path d="M9.39391 14.112H12.4725L11.1467 16.7986H8.06812L9.39391 14.1113V14.112ZM11.1481 10.556H14.226L12.9044 13.2356H9.82581L11.1481 10.556ZM12.9016 7H15.9802L14.6579 9.6803H11.58L12.9016 7Z" fill="white" fill-opacity="0.6"/>
<path d="M12.413 14.112H15.4916L14.1665 16.7986H11.0879L12.4137 14.1113L12.413 14.112ZM14.1672 10.556H17.2458L15.9242 13.2356H12.8456L14.1672 10.556ZM15.9214 7H19L17.6777 9.6803H14.5998L15.9214 7Z" fill="white"/>
</g>
<defs>
<clipPath id="clip0_1265_21886">
<rect width="24" height="24" fill="white"/>
</clipPath>
</defs>
</svg>