<svg width="24" height="24" viewBox="0 0 24 24" fill="none" xmlns="http://www.w3.org/2000/svg">
<path fill-rule="evenodd" clip-rule="evenodd" d="M12 22C6.48583 22 2 17.5142 2 12C2 6.48583 6.48583 2 12 2C17.5142 2 22 6.48583 22 12C22 17.5142 17.5142 22 12 22ZM12 3.66667C7.405 3.66667 3.66667 7.405 3.66667 12C3.66667 16.595 7.405 20.3333 12 20.3333C16.595 20.3333 20.3333 16.595 20.3333 12C20.3333 7.405 16.595 3.66667 12 3.66667Z" fill="#6B7084"/>
<path fill-rule="evenodd" clip-rule="evenodd" d="M15.25 7C15.8023 7 16.25 7.44772 16.25 8V16C16.25 16.5523 15.8023 17 15.25 17C14.6977 17 14.25 16.5523 14.25 16V12.4841C14.1722 12.6253 14.0577 12.7509 13.9066 12.8462L8.53294 16.2307C7.86702 16.6501 7 16.1715 7 15.3845V8.6155C7 7.82851 7.86702 7.34993 8.53294 7.76935L13.9066 11.1538C14.0577 11.2491 14.1722 11.3747 14.25 11.5159V8C14.25 7.44772 14.6977 7 15.25 7Z" fill="#6B7084"/>
</svg>
