<svg viewBox="0 0 24 24" fill="none" xmlns="http://www.w3.org/2000/svg">
<path fill-rule="evenodd" clip-rule="evenodd" d="M6.45429 4.27654C5.25541 3.52724 3.70029 4.38915 3.70029 5.80294V17.1944C3.70029 18.6082 5.25541 19.4701 6.45429 18.7208L15.5675 13.0251C16.6955 12.3201 16.6955 10.6773 15.5675 9.97229L6.45429 4.27654ZM5.30029 5.80294C5.30029 5.64585 5.47308 5.55008 5.60629 5.63334L14.7195 11.3291C14.8448 11.4074 14.8448 11.59 14.7195 11.6683L5.60629 17.364C5.47308 17.4473 5.30029 17.3515 5.30029 17.1944V5.80294Z" fill="currentColor"/>
<path fill-rule="evenodd" clip-rule="evenodd" d="M20.5003 4.19869C20.0585 4.19869 19.7003 4.55686 19.7003 4.99869V18.9987C19.7003 19.4405 20.0585 19.7987 20.5003 19.7987C20.9421 19.7987 21.3003 19.4405 21.3003 18.9987V4.99869C21.3003 4.55686 20.9421 4.19869 20.5003 4.19869Z" fill="currentColor"/>
</svg>