<svg viewBox="0 0 24 24" fill="none" xmlns="http://www.w3.org/2000/svg">
<g clip-path="url(#clip0_1265_21882)">
<path d="M12 24C18.6274 24 24 18.6274 24 12C24 5.37258 18.6274 0 12 0C5.37258 0 0 5.37258 0 12C0 18.6274 5.37258 24 12 24Z" fill="#2F2F2F"/>
<path fill-rule="evenodd" clip-rule="evenodd" d="M17.8219 8.36955C17.8944 8.40773 18.0605 8.49809 18.0446 8.69473L18.0344 15.3237C18.0391 15.3863 18.0243 15.4487 17.9921 15.5025C17.9598 15.5563 17.9117 15.5988 17.8543 15.6241L16.3907 16.4787L15.2325 17.1545L12.15 18.9542C12.1109 18.9841 12.063 19.0002 12.0138 19C11.9518 18.998 11.8916 18.9786 11.8401 18.944L9.71335 17.7171C8.53226 17.0355 7.31044 16.3305 6.10644 15.6381C6.00526 15.5891 5.94607 15.4752 5.95498 15.3454L5.95944 13.5941C5.96326 12.0185 5.9658 10.418 5.96707 8.87036V8.864C5.96796 8.85342 5.96817 8.84279 5.96771 8.83218V8.81245C5.96517 8.72655 5.96135 8.55027 6.1268 8.47073C6.80135 8.06791 7.49116 7.65873 8.15871 7.26291L9.26407 6.60745C10.1053 6.10918 10.9619 5.60073 11.7904 5.10882L11.7968 5.105C11.851 5.07399 11.9076 5.04739 11.9661 5.02545L12.0316 5L12.0927 5.03627C12.6947 5.385 13.3069 5.74136 13.8981 6.08627L15.0028 6.729L16.0814 7.35645L17.7786 8.34409H17.7799L17.7812 8.34536L17.8219 8.36955ZM12.2416 18.3414L14.1265 17.2405C15.2695 16.5742 16.4122 15.9075 17.5546 15.2404L17.561 11.5183L17.5642 9.05873L15.1142 10.4918V11.622C15.1114 12.3273 15.1126 13.0326 15.118 13.7379V13.7863L15.0893 13.8257C15.0581 13.8677 15.0181 13.9024 14.9723 13.9275L14.9557 13.9377H14.9551L14.1634 14.3991C13.8771 14.5645 13.5812 14.7364 13.2916 14.9063L12.2454 15.514L12.2416 18.3414ZM9.57144 10.3518C10.1065 10.6594 10.6419 10.9663 11.1776 11.2726L12.0074 11.7493L14.411 10.3442L12.0036 8.92382L9.57144 10.3518ZM9.32326 10.7655L9.36844 13.5585L11.7663 14.9553L11.7701 12.1686L9.32326 10.7655ZM6.44689 9.11473L6.4348 15.2715L11.7637 18.3452L11.7656 15.5127L10.722 14.905L10.0678 14.5238C9.73244 14.3291 9.38562 14.1274 9.04517 13.9282C8.94653 13.8817 8.8848 13.7685 8.8918 13.6444L8.84026 10.4886L6.44689 9.11473ZM17.3249 8.64L16.3901 8.09527L15.3579 7.49391C14.3753 6.92373 13.2102 6.24664 12.0081 5.54282C10.7906 6.26217 9.5739 6.98275 8.35789 7.70455L6.6868 8.69536L9.09098 10.0731L11.849 8.45355C11.8966 8.42285 11.9524 8.40706 12.009 8.4082C12.0657 8.40933 12.1208 8.42734 12.1672 8.45991L14.8883 10.0642L17.3249 8.64ZM12.2454 14.9572C13.0493 14.4888 13.8536 14.0212 14.6585 13.5546V10.7591L12.2473 12.168L12.2454 14.9572ZM15.5081 14.4525C15.4841 14.4598 15.4593 14.4635 15.4343 14.4634C15.4005 14.4639 15.3669 14.4575 15.3357 14.4447C15.3044 14.4319 15.276 14.4129 15.2523 14.3889C15.2138 14.3543 15.1851 14.3103 15.169 14.2612C15.1528 14.2121 15.1497 14.1596 15.16 14.1089C15.1707 14.0427 15.2044 13.9824 15.2551 13.9386C15.3059 13.8947 15.3704 13.8701 15.4374 13.869C15.5157 13.869 15.5921 13.9046 15.6474 13.9664L15.6481 13.9676C15.6863 14.0106 15.7114 14.0638 15.7202 14.1207C15.729 14.1776 15.7212 14.2358 15.6977 14.2884C15.6816 14.329 15.656 14.3651 15.623 14.3936C15.59 14.4222 15.5505 14.4424 15.5081 14.4525ZM16.8215 15.3485C16.7844 15.3196 16.755 15.2819 16.7359 15.2388C16.7168 15.1957 16.7086 15.1486 16.7121 15.1016C16.7172 15.0005 16.7693 14.9107 16.8533 14.8598C16.895 14.8326 16.9436 14.818 16.9933 14.8178C17.0481 14.8178 17.1015 14.835 17.1486 14.8668C17.1958 14.8978 17.233 14.9417 17.2558 14.9933C17.2786 15.0448 17.286 15.1019 17.2772 15.1576C17.2688 15.2277 17.2351 15.2922 17.1825 15.3392C17.1299 15.3862 17.062 15.4124 16.9914 15.4128C16.9289 15.4126 16.8685 15.3898 16.8215 15.3485ZM8.42853 13.8722C8.50807 13.8722 8.5838 13.9085 8.63662 13.9715C8.67448 14.0137 8.69927 14.066 8.70796 14.122C8.71666 14.178 8.7089 14.2354 8.68562 14.2871C8.66413 14.3394 8.62738 14.384 8.58016 14.4151C8.53293 14.4462 8.47743 14.4624 8.42089 14.4615C8.37829 14.4599 8.33657 14.4489 8.29868 14.4294C8.26078 14.4099 8.22766 14.3823 8.20166 14.3485C8.17566 14.3147 8.15742 14.2756 8.14823 14.234C8.13905 14.1924 8.13915 14.1492 8.14853 14.1076C8.1613 14.0423 8.19605 13.9833 8.24698 13.9405C8.29792 13.8977 8.36199 13.8736 8.42853 13.8722ZM16.0369 14.8751C15.9965 14.8413 15.9658 14.7974 15.9478 14.7479C15.9298 14.6984 15.9252 14.645 15.9344 14.5932C15.9448 14.5258 15.9782 14.4642 16.0291 14.4189C16.08 14.3736 16.1451 14.3475 16.2132 14.345C16.2832 14.345 16.3506 14.373 16.4041 14.4226C16.4849 14.4977 16.5186 14.6065 16.4919 14.7084C16.483 14.7562 16.4618 14.8008 16.4303 14.8379C16.3988 14.875 16.3582 14.9031 16.3124 14.9196C16.2667 14.9375 16.217 14.9428 16.1686 14.9349C16.1201 14.9271 16.0747 14.9064 16.0369 14.8751ZM7.82462 14.415C7.90926 14.485 7.94871 14.5964 7.92707 14.6995C7.92018 14.7456 7.90176 14.7893 7.87351 14.8265C7.84525 14.8636 7.80808 14.893 7.76544 14.912H7.7648C7.72699 14.9299 7.68574 14.9395 7.64389 14.94C7.59383 14.9393 7.54493 14.9248 7.50262 14.898C7.45527 14.8684 7.4172 14.8261 7.39278 14.7759C7.36836 14.7257 7.35857 14.6697 7.36453 14.6142C7.36798 14.5594 7.38717 14.5068 7.41979 14.4627C7.45241 14.4185 7.49708 14.3847 7.54844 14.3654C7.5796 14.352 7.61316 14.345 7.64707 14.345C7.71071 14.345 7.77244 14.3692 7.82462 14.415ZM11.9673 5.74264C12.0501 5.74264 12.1283 5.77827 12.1837 5.84064C12.2518 5.91255 12.2773 6.01245 12.2518 6.10791C12.2394 6.16318 12.2105 6.21337 12.1689 6.25179C12.1273 6.29022 12.075 6.31506 12.0189 6.323H12.0157C11.9582 6.33431 11.8985 6.32811 11.8445 6.3052C11.7905 6.28228 11.7447 6.24371 11.7128 6.19445C11.6859 6.15303 11.6702 6.10536 11.6672 6.05608C11.6642 6.00679 11.674 5.95757 11.6956 5.91318L11.6963 5.91191C11.7168 5.86788 11.7481 5.82972 11.7872 5.80092C11.8264 5.77212 11.8721 5.75361 11.9203 5.74709C11.936 5.74419 11.952 5.7427 11.968 5.74264H11.9673ZM7.00435 14.8573C7.09662 14.9095 7.15262 15.0036 7.15198 15.1055C7.15471 15.1568 7.14371 15.2079 7.1201 15.2535C7.0965 15.2991 7.06116 15.3377 7.01771 15.3651C6.97153 15.3953 6.91764 15.4117 6.86244 15.4122C6.81687 15.4126 6.77202 15.4007 6.73262 15.3778C6.68641 15.3522 6.64802 15.3145 6.62157 15.2688C6.59511 15.2231 6.58159 15.171 6.58244 15.1182C6.58244 15.0081 6.63907 14.9082 6.72944 14.8573C6.77092 14.8322 6.81844 14.819 6.86689 14.819C6.91534 14.819 6.96287 14.8322 7.00435 14.8573ZM12.1207 7.67591C12.1656 7.70385 12.2021 7.74349 12.2262 7.79057C12.2503 7.83765 12.2611 7.89041 12.2575 7.94318C12.254 7.9955 12.2359 8.0458 12.2053 8.0884C12.1747 8.13101 12.1329 8.16424 12.0844 8.18436C12.0445 8.20259 12.0011 8.21214 11.9572 8.21236C11.8919 8.21306 11.8284 8.19151 11.7771 8.15127C11.7379 8.12231 11.7069 8.0837 11.687 8.03921C11.6672 7.99473 11.6592 7.94586 11.6638 7.89736C11.6665 7.84926 11.6816 7.80266 11.7075 7.76209C11.7335 7.72151 11.7695 7.68832 11.8121 7.66573C11.8558 7.64055 11.9054 7.62738 11.9559 7.62754C12.0145 7.62745 12.072 7.64424 12.1213 7.67591H12.1207ZM11.758 7.19354C11.7246 7.16415 11.6986 7.12725 11.6823 7.08588C11.6659 7.04451 11.6596 6.99984 11.6638 6.95555V6.95364C11.668 6.90802 11.6828 6.86402 11.7069 6.82513C11.7311 6.78624 11.7641 6.75354 11.8032 6.72964C11.8491 6.69904 11.9032 6.68287 11.9584 6.68318C12.0093 6.68318 12.0603 6.69655 12.1067 6.72136L12.1073 6.722C12.1541 6.74715 12.1929 6.78483 12.2194 6.8308C12.2459 6.87677 12.2591 6.92922 12.2575 6.98227C12.257 7.0381 12.2402 7.09257 12.2091 7.13894C12.178 7.18531 12.134 7.22155 12.0825 7.24318C12.0426 7.26139 11.9992 7.27094 11.9553 7.27118C11.8819 7.27202 11.8111 7.24416 11.758 7.19354Z" fill="white"/>
</g>
<defs>
<clipPath id="clip0_1265_21882">
<rect width="24" height="24" fill="white"/>
</clipPath>
</defs>
</svg>