<svg viewBox="0 0 24 24" fill="none" xmlns="http://www.w3.org/2000/svg">
<g clip-path="url(#clip0_1265_21878)">
<path d="M12 24C18.6274 24 24 18.6274 24 12C24 5.37258 18.6274 0 12 0C5.37258 0 0 5.37258 0 12C0 18.6274 5.37258 24 12 24Z" fill="#624DBF"/>
<path d="M16.2085 7.33325C16.5379 7.37125 16.8712 7.39192 17.1965 7.45058C17.8412 7.57258 18.0518 7.87924 17.9425 8.50124C17.8985 8.75323 17.7358 8.90856 17.4772 8.95056C17.323 8.97227 17.1675 8.98341 17.0119 8.9839C14.8965 8.98856 12.7766 8.99256 10.6613 9.00123C10.3413 9.00123 10.0246 9.03056 9.71328 9.08123C8.66396 9.24523 8.2693 9.66122 8.1813 10.6732C8.14131 11.1485 8.1413 11.1485 8.63796 11.1485H17.3232C17.4598 11.1525 17.5912 11.1779 17.7052 11.2485C18.0918 11.4845 17.9952 11.8539 17.9732 12.1945C17.9558 12.4679 17.7845 12.6185 17.4905 12.6732C17.367 12.6921 17.2421 12.7006 17.1172 12.6985H8.4573C8.13731 12.6985 8.14197 12.6985 8.16797 13.0012C8.18997 13.2785 8.20797 13.5518 8.27797 13.8205C8.4093 14.3205 8.72996 14.6312 9.24796 14.7698C9.82262 14.9252 10.4153 14.9592 11.0079 14.9632C13.0746 14.9758 15.1379 14.9718 17.2052 14.9718C17.4685 14.9718 17.7138 15.0052 17.8678 15.2365C18.1665 15.6818 17.9338 16.3031 17.4112 16.4631C16.9639 16.6018 16.4939 16.6351 16.0285 16.6398C14.0886 16.6731 12.1486 16.6778 10.2086 16.6398C9.61034 16.6244 9.01444 16.5584 8.4273 16.4425C7.04465 16.1691 6.35533 15.4971 6.12267 14.1692C6.07 13.8625 6.03933 13.5518 6 13.2445V10.8205C6.02667 10.5805 6.048 10.3419 6.07933 10.1065C6.26333 8.6019 6.96599 7.86258 8.51063 7.53525C9.05929 7.41725 9.62062 7.39192 10.1739 7.33725C12.1799 7.33325 14.1932 7.33325 16.2085 7.33325Z" fill="white"/>
</g>
<defs>
<clipPath id="clip0_1265_21878">
<rect width="24" height="24" fill="white"/>
</clipPath>
</defs>
</svg>