<svg width="24" height="24" viewBox="0 0 24 24" fill="none" xmlns="http://www.w3.org/2000/svg">
<g clip-path="url(#clip0_1265_21874)">
<path d="M12 24C18.6274 24 24 18.6274 24 12C24 5.37258 18.6274 0 12 0C5.37258 0 0 5.37258 0 12C0 18.6274 5.37258 24 12 24Z" fill="#FA5836"/>
<path d="M11.3046 5.51623C11.2437 5.52467 11.0088 5.56858 10.7829 5.60292C9.52219 5.8157 8.35778 6.43266 7.39279 7.40089C6.42386 8.36517 5.83237 9.48144 5.5845 10.8105C5.47183 11.4145 5.47183 12.5955 5.5845 13.1995C5.83237 14.528 6.42386 15.6443 7.39279 16.6086C8.35778 17.5768 9.4743 18.1679 10.8043 18.4156C11.4088 18.5281 12.5907 18.5281 13.1951 18.4156C14.5246 18.1679 15.6422 17.5768 16.6072 16.6086C17.5761 15.6443 18.1676 14.5286 18.4155 13.1995C18.5282 12.5955 18.5282 11.4145 18.4155 10.8105C18.1676 9.48201 17.5761 8.36517 16.6072 7.40089C15.6636 6.45406 14.5989 5.8765 13.3083 5.61643C12.9084 5.53368 11.5783 5.46838 11.3046 5.51623ZM13.6255 7.81858C13.6773 7.83997 13.6948 7.9047 13.6948 8.07865V8.31338H13.421C13.0734 8.31338 12.7996 8.44342 12.6864 8.66071C12.6126 8.79975 12.6081 8.96919 12.6081 11.0278C12.6081 12.2437 12.5912 13.2643 12.5738 13.2947C12.4825 13.4337 11.8133 13.4731 11.513 13.3555L11.3913 13.3076V11.0627C11.3913 8.96862 11.3868 8.79975 11.313 8.66071C11.2004 8.44342 10.926 8.31338 10.5784 8.31338H10.3047V8.07865C10.3047 7.93116 10.3266 7.83546 10.361 7.82252C10.4399 7.78762 13.5427 7.78762 13.6255 7.81801V7.81858ZM11.1305 9.62893V10.1637L11.0043 10.2369C10.8178 10.3461 10.5046 10.6715 10.379 10.8842C10.3027 11.0237 10.2413 11.1709 10.1959 11.3233L10.1266 11.571H9.62697C9.05744 11.571 9.0749 11.5924 9.19658 11.115C9.34868 10.5369 9.71823 9.95036 10.1655 9.59459C10.4134 9.39475 10.9609 9.09472 11.0697 9.09472C11.1175 9.09472 11.1305 9.20786 11.1305 9.62949V9.62893ZM13.2864 9.24727C13.6577 9.43258 13.9852 9.69503 14.2468 10.0171C14.5085 10.3391 14.6982 10.7132 14.8034 11.1145C14.9251 11.5924 14.9426 11.5704 14.373 11.5704H13.8734L13.8035 11.3228C13.7583 11.1706 13.6971 11.0236 13.621 10.8842C13.4948 10.6715 13.1816 10.3461 12.9951 10.2369L12.8689 10.1637V9.62893C12.8689 9.20786 12.8819 9.09472 12.9298 9.09472C12.9602 9.09472 13.1213 9.16452 13.2864 9.24671V9.24727ZM10.1311 11.9791C10.1311 12.1829 10.2658 12.6 10.4049 12.8173C11.148 13.9938 12.8515 13.9938 13.5951 12.8173C13.7342 12.6 13.8689 12.1829 13.8689 11.9786V11.8311H14.9076L14.8857 12.0568C14.7769 13.1123 14.1945 13.964 13.2819 14.4154C12.8605 14.6237 12.4909 14.711 11.9997 14.711C10.4787 14.711 9.27488 13.6032 9.11377 12.0568L9.09237 11.8316H10.1311V11.9791ZM12.6301 15.1191C12.6864 15.4231 12.9996 15.61 13.4689 15.61H13.6948V16.0873H10.3047V15.6223L10.6218 15.601C10.8263 15.588 10.9914 15.5492 11.0826 15.4968C11.2178 15.4186 11.3913 15.1579 11.3913 15.0363C11.3913 14.993 11.5305 14.9801 11.9952 14.9801H12.6036L12.6301 15.1191Z" fill="#FEFFFF"/>
</g>
<defs>
<clipPath id="clip0_1265_21874">
<rect width="24" height="24" fill="white"/>
</clipPath>
</defs>
</svg>
