<svg viewBox="0 0 24 24" fill="none" xmlns="http://www.w3.org/2000/svg">
<g clip-path="url(#clip0_1265_21868)">
<path d="M12 24C18.6274 24 24 18.6274 24 12C24 5.37258 18.6274 0 12 0C5.37258 0 0 5.37258 0 12C0 18.6274 5.37258 24 12 24Z" fill="#443F54"/>
<path opacity="0.7" d="M11.6801 17.927C10.9052 17.4552 9.96225 16.8827 9.18785 16.411C8.85073 16.2091 8.48077 16.0071 8.14365 15.7712C8.00902 15.6705 8.00902 15.5693 8.00902 15.502C8.34559 13.9192 8.7161 12.2019 9.08715 10.652L8.85073 9.91154C8.85073 9.91154 8.04295 13.7841 7.63851 15.502C7.5712 15.7373 7.63851 15.8725 7.87384 16.0071C9.18731 16.7815 11.8482 18.4655 11.8482 18.4655L11.6801 17.927ZM12.3199 17.927C13.0943 17.4552 14.0373 16.8827 14.8122 16.411C15.1488 16.2091 15.5193 16.0071 15.8559 15.7712C15.991 15.6705 15.991 15.5693 15.991 15.502C15.6539 13.9192 15.2834 12.2019 14.9129 10.652L15.1827 9.94493C15.1827 9.94493 15.991 13.7841 16.3615 15.502C16.4289 15.7373 16.3615 15.8725 16.1257 16.0071C14.8122 16.7815 12.1514 18.4655 12.1514 18.4655L12.3199 17.927ZM14.8795 9.97886L14.7449 9.77637H9.28855L9.15392 9.97886C9.15392 9.97886 9.25517 10.2481 9.22124 10.1469H14.8456C14.7783 10.2142 14.8795 9.97886 14.8795 9.97886Z" fill="#FEFFFE"/>
<path d="M15.0481 9.67517C15.0481 9.67517 13.1955 6.98202 12.3872 5.80319C12.2186 5.6007 12.1179 5.5 12.0167 5.5C11.9154 5.5 11.7814 5.60125 11.6462 5.80319C10.8379 6.94809 8.98588 9.67627 8.98588 9.67627C8.81732 9.91159 8.81732 9.97946 8.95195 10.2821C8.95195 10.2821 10.2654 13.9198 10.8045 15.536C11.0737 16.277 11.7808 18.3988 11.7808 18.3988C11.8147 18.4661 11.9494 18.5 12.0167 18.5C12.1048 18.4959 12.1884 18.4599 12.252 18.3988C12.252 18.3988 12.9936 16.277 13.2289 15.5365C13.768 13.9532 15.0814 10.2826 15.0814 10.2826C15.2161 9.97946 15.2161 9.91214 15.0481 9.67627V9.67517ZM12.0167 17.2867C11.1588 14.8411 10.3056 12.3938 9.45708 9.94498C9.45708 9.94498 11.2757 7.28467 11.9833 6.23992C12.6904 7.28467 14.509 9.94498 14.509 9.94498C14.509 9.94498 12.7911 14.9963 12.0167 17.2867Z" fill="#FEFFFE"/>
</g>
<defs>
<clipPath id="clip0_1265_21868">
<rect width="24" height="24" fill="white"/>
</clipPath>
</defs>
</svg>