<svg viewBox="0 0 24 24" fill="none" xmlns="http://www.w3.org/2000/svg">
<g clip-path="url(#clip0_1265_21860)">
<path d="M12 24C18.6274 24 24 18.6274 24 12C24 5.37258 18.6274 0 12 0C5.37258 0 0 5.37258 0 12C0 18.6274 5.37258 24 12 24Z" fill="black"/>
<path fill-rule="evenodd" clip-rule="evenodd" d="M11.9974 5.50001C12.0707 5.49942 12.1417 5.53364 12.1866 5.59504L14.9664 9.39316C14.972 9.40056 14.9771 9.40827 14.9817 9.41626C14.9869 9.42525 14.9915 9.43457 14.9955 9.44418C15.0012 9.45806 15.0056 9.47251 15.0085 9.48734L16.3537 15.6306C16.3543 15.6331 16.3548 15.6357 16.3553 15.6383C16.3565 15.6446 16.3575 15.651 16.3581 15.6574C16.3611 15.6858 16.3588 15.7146 16.3513 15.7424C16.3461 15.7618 16.3382 15.7807 16.3278 15.7985C16.3122 15.8253 16.2918 15.8482 16.2679 15.8663C16.2623 15.8706 16.2565 15.8746 16.2505 15.8783C16.2505 15.8784 16.2506 15.8783 16.2505 15.8783L12.1225 18.4646C12.0841 18.4886 12.0406 18.5004 11.9974 18.5C11.9541 18.5003 11.9106 18.4886 11.8723 18.4646L7.7445 15.8785C7.74277 15.8774 7.7408 15.8761 7.7391 15.875M8.67517 15.9137L11.5822 17.735L11.0021 15.9137H8.67517ZM11.4893 15.9137L11.9974 17.5089L12.5053 15.9137H11.4893ZM12.6531 15.4495H11.3415L10.2349 11.9751L11.9974 8.86521L13.7596 11.9747L12.6531 15.4495ZM12.9925 15.9137L12.4126 17.7351L15.3196 15.9137H12.9925ZM15.7289 15.4495H13.1403L14.0716 12.5251L15.7289 15.4495ZM15.5721 14.2312L14.7393 10.4281L14.2635 11.9223L15.5721 14.2312ZM13.9516 11.3719L14.5239 9.57456L12.2314 6.44228V8.33661L13.9516 11.3719ZM11.9974 5.50001C11.9241 5.49942 11.8531 5.53364 11.8082 5.59502L9.02782 9.39317C9.02293 9.39968 9.0184 9.40644 9.01423 9.4134C9.00985 9.42073 9.00587 9.4283 9.00231 9.43606C8.99484 9.45239 8.98924 9.4696 8.98569 9.48734L7.64106 15.6306C7.64095 15.6311 7.64085 15.6315 7.64075 15.632M9.25499 10.4281L8.42249 14.2316L9.73101 11.9227L9.25499 10.4281ZM10.0429 11.3723L11.7634 8.33661V6.44217L9.47035 9.57456L10.0429 11.3723ZM9.92298 12.5255L10.8543 15.4495H8.26584L9.92298 12.5255Z" fill="white"/>
</g>
<defs>
<clipPath id="clip0_1265_21860">
<rect width="24" height="24" fill="white"/>
</clipPath>
</defs>
</svg>