<svg viewBox="0 0 24 24" fill="none" xmlns="http://www.w3.org/2000/svg">
<g clip-path="url(#clip0_1265_21856)">
<path d="M12 24C18.6274 24 24 18.6274 24 12C24 5.37258 18.6274 0 12 0C5.37258 0 0 5.37258 0 12C0 18.6274 5.37258 24 12 24Z" fill="#C9A35E"/>
<path d="M8.66641 14.4709C8.64945 14.5059 8.62298 14.5355 8.59002 14.5562C8.55705 14.5769 8.51893 14.588 8.47999 14.5881H6.20668C6.17109 14.5878 6.13617 14.5783 6.10534 14.5605C6.07452 14.5427 6.04886 14.5172 6.03087 14.4865C6.01168 14.4555 6.00105 14.4199 6.00007 14.3834C5.99909 14.347 6.00779 14.3109 6.02529 14.2789L10.1578 6.82992C10.232 6.69653 10.4452 6.69653 10.5194 6.82992L13.741 12.6223C13.7572 12.6547 13.7651 12.6906 13.7641 12.7268C13.7632 12.763 13.7533 12.7984 13.7354 12.8299C13.7184 12.8614 13.6929 12.8875 13.6619 12.9054C13.6308 12.9232 13.5954 12.9321 13.5596 12.931H12.6175C12.5807 12.9304 12.5448 12.9204 12.5131 12.9018C12.4814 12.8832 12.4551 12.8567 12.4366 12.8249L10.3436 9.01839L8.00166 13.3468H8.8958C8.9307 13.347 8.965 13.3558 8.99567 13.3725C9.02634 13.3891 9.05242 13.4131 9.07162 13.4422C9.09027 13.4724 9.10102 13.5067 9.10287 13.5422C9.10472 13.5776 9.09762 13.6129 9.08222 13.6448L8.66696 14.4697L8.66641 14.4709ZM17.9728 14.2789C17.9915 14.3105 18.0009 14.3468 17.9999 14.3835C17.9989 14.4202 17.9876 14.4559 17.9673 14.4865C17.9502 14.5179 17.9249 14.544 17.8939 14.5618C17.863 14.5796 17.8277 14.5885 17.792 14.5875H11.5894C11.5343 14.5875 11.4815 14.5656 11.4426 14.5267C11.4036 14.4878 11.3818 14.435 11.3818 14.3799V13.5555C11.3818 13.4383 11.4772 13.3479 11.5894 13.3479H16.0032L13.6657 9.03458L13.2236 9.91811C13.1494 10.0565 12.9206 10.0565 12.8513 9.91811L12.4361 9.09318C12.4229 9.06388 12.4161 9.03211 12.4161 8.99997C12.4161 8.96784 12.4229 8.93607 12.4361 8.90676L13.4686 6.83606C13.4867 6.80345 13.5128 6.77601 13.5444 6.75636C13.5761 6.73672 13.6123 6.72554 13.6495 6.72388C13.6871 6.72396 13.724 6.73376 13.7567 6.75235C13.7893 6.77093 13.8166 6.79766 13.8359 6.82992L17.9728 14.2789ZM15.2843 15.1038L16.3113 16.9674C16.3296 16.999 16.3392 17.0348 16.3392 17.0712C16.3392 17.1077 16.3296 17.1435 16.3113 17.1751C16.2942 17.2065 16.2689 17.2325 16.2379 17.2503C16.207 17.2682 16.1717 17.2771 16.136 17.2761H7.86268C7.82585 17.2756 7.78977 17.2656 7.75797 17.247C7.72618 17.2284 7.69975 17.2019 7.68129 17.17C7.66369 17.1379 7.65493 17.1018 7.65591 17.0652C7.6569 17.0286 7.66758 16.9929 7.68687 16.9618L9.34231 14.2733L10.9927 11.3821C11.0301 11.3135 11.1044 11.2705 11.1792 11.2761C11.2169 11.2751 11.2542 11.2852 11.2864 11.305C11.3186 11.3248 11.3444 11.3535 11.3606 11.3877L11.7758 12.2132C11.792 12.2437 11.8 12.2779 11.799 12.3124C11.798 12.347 11.7881 12.3807 11.7702 12.4102L9.67273 16.0303H14.326L13.8945 15.3114C13.8741 15.2808 13.8628 15.2451 13.8618 15.2084C13.8608 15.1717 13.8702 15.1354 13.8889 15.1038C13.9074 15.0719 13.9338 15.0454 13.9656 15.0268C13.9974 15.0082 14.0335 14.9982 14.0703 14.9977H15.1029C15.1777 14.9977 15.2469 15.0402 15.2843 15.1038Z" fill="white"/>
</g>
<defs>
<clipPath id="clip0_1265_21856">
<rect width="24" height="24" fill="white"/>
</clipPath>
</defs>
</svg>