<svg viewBox="0 0 24 24" fill="none" xmlns="http://www.w3.org/2000/svg">
<g clip-path="url(#clip0_1265_21852)">
<path d="M12 24C18.6274 24 24 18.6274 24 12C24 5.37258 18.6274 0 12 0C5.37258 0 0 5.37258 0 12C0 18.6274 5.37258 24 12 24Z" fill="#F68922"/>
<path d="M12.4319 8.44674C12.4319 8.44674 9.95565 8.81035 9.59504 11.5626C9.59504 11.5626 9.21223 14.6431 12.3599 15.4747C12.5779 15.532 12.8024 15.5608 13.0277 15.5605H13.1825C13.5029 15.5605 13.8102 15.6889 14.037 15.9169C14.2638 16.1449 14.391 16.4545 14.391 16.7774C14.3931 17.0829 14.2794 17.3779 14.0728 17.603C13.8662 17.8281 13.582 17.9666 13.2773 17.9906C11.7299 18.095 9.65325 17.3354 8.30561 15.5089C8.30561 15.5089 5.66614 11.7138 8.54262 8.22654C9.22141 7.39751 10.1065 6.76179 11.1089 6.38329C12.2909 5.94108 14.0226 5.65667 15.5256 6.8369C15.5256 6.8369 17.5374 8.39514 16.506 10.9392C16.506 10.9392 15.7836 12.9643 13.3079 13.1203L12.9641 13.1011C12.8013 13.0968 12.6412 13.0575 12.4948 12.986C12.3485 12.9145 12.2192 12.8123 12.1157 12.6864C12.0118 12.5601 11.9359 12.413 11.8932 12.255C11.8504 12.097 11.8418 11.9318 11.8679 11.7702C11.9095 11.5079 12.0411 11.2683 12.2402 11.0926C12.4392 10.9168 12.6933 10.8159 12.9587 10.8072L13.3079 10.7832C13.3079 10.7832 14.4942 10.7316 14.391 9.32936C14.391 9.32936 14.2878 8.08313 12.4313 8.44734" fill="white"/>
</g>
<defs>
<clipPath id="clip0_1265_21852">
<rect width="24" height="24" fill="white"/>
</clipPath>
</defs>
</svg>