<svg viewBox="0 0 24 24" fill="none" xmlns="http://www.w3.org/2000/svg">
<g clip-path="url(#clip0_1265_21844)">
<path d="M12 24C18.6274 24 24 18.6274 24 12C24 5.37258 18.6274 0 12 0C5.37258 0 0 5.37258 0 12C0 18.6274 5.37258 24 12 24Z" fill="#328332"/>
<path d="M11.999 5.5V10.3055L16.3315 12.1205L11.999 5.5Z" fill="#ADCEAD"/>
<path d="M11.9988 5.5L7.66577 12.1205L11.9988 10.3055V5.5Z" fill="white"/>
<path d="M11.999 15.2346V18.4999L16.3344 12.8768L11.999 15.2346Z" fill="#ADCEAD"/>
<path d="M11.9988 18.4999V15.2341L7.66577 12.8768L11.9988 18.4999Z" fill="white"/>
<path d="M11.999 14.4789L16.3315 12.1205L11.999 10.3066V14.4789Z" fill="#7DB07D"/>
<path d="M7.66577 12.1205L11.9988 14.4789V10.3066L7.66577 12.1205Z" fill="#ADCEAD"/>
</g>
<defs>
<clipPath id="clip0_1265_21844">
<rect width="24" height="24" fill="white"/>
</clipPath>
</defs>
</svg>