<svg width="24" height="24" viewBox="0 0 24 24" fill="none" xmlns="http://www.w3.org/2000/svg">
<path fill-rule="evenodd" clip-rule="evenodd" d="M5.30777 11.7576L5.30774 11.7576L12.0037 2L16.5462 8.62699L15.3953 9.77789L12.0029 4.82885L7.96962 10.7064L11.9973 9.11572L14.9086 10.2646L13.6753 11.498L11.9975 10.8359L9.09364 11.9827L11.7545 13.4188L10.5736 14.5996L5.30774 11.7577L5.30777 11.7576ZM9.70203 15.4712L5.65057 13.2316L8.29209 16.8811L9.70203 15.4712ZM9.30158 18.2758L11.2503 16.3271L12.0036 16.7434L18.3367 13.2316L11.9972 22L9.30158 18.2758ZM12.4577 15.1197L17.524 10.0534L18.6922 11.7576L18.6922 11.7576L18.6922 11.7577L12.4577 15.1197ZM12.8331 18.113L12.7795 18.1427C12.2975 18.41 11.7119 18.4104 11.2295 18.1437L11.1488 18.0991L11.9965 19.2702L12.8331 18.113Z" fill="#6B7084"/>
<path fill-rule="evenodd" clip-rule="evenodd" d="M20.6011 3.39898C20.2691 3.06704 19.7309 3.06704 19.399 3.39898L3.39899 19.399C3.06705 19.7309 3.06705 20.2691 3.39899 20.6011C3.73094 20.933 4.26913 20.933 4.60108 20.6011L20.6011 4.60107C20.933 4.26912 20.933 3.73093 20.6011 3.39898Z" fill="#6B7084"/>
</svg>
