<svg width="24" height="24" viewBox="0 0 24 24" fill="none" xmlns="http://www.w3.org/2000/svg">
<path fill-rule="evenodd" clip-rule="evenodd" d="M5.30774 11.7576L5.30777 11.7576L5.30774 11.7577L11.9973 15.368L18.6922 11.7577L18.6922 11.7576L18.6922 11.7576L12.0037 2L5.30774 11.7576ZM11.9976 13.55L14.9038 11.9828L11.9975 10.8359L9.09364 11.9827L11.9976 13.55ZM11.9973 9.11572L16.0331 10.7083L12.0029 4.82885L7.96962 10.7064L11.9973 9.11572ZM5.65057 13.2316L12.0036 16.7434L18.3367 13.2316L11.9972 22L5.65057 13.2316ZM12.7795 18.1427L12.8331 18.113L11.9965 19.2702L11.1488 18.0991L11.2295 18.1437C11.7119 18.4104 12.2975 18.41 12.7795 18.1427Z" fill="#6B7084"/>
</svg>
