<svg width="24" height="24" viewBox="0 0 24 24" fill="none" xmlns="http://www.w3.org/2000/svg">
<g clip-path="url(#clip0_1265_21819)">
<path d="M12 24C18.6274 24 24 18.6274 24 12C24 5.37258 18.6274 0 12 0C5.37258 0 0 5.37258 0 12C0 18.6274 5.37258 24 12 24Z" fill="#00FFBA"/>
<path d="M8.92064 8.93975C8.75574 9.1085 8.6541 9.32897 8.63288 9.56396C8.61165 9.79894 8.67215 10.0341 8.80414 10.2296C8.89747 10.3701 9.02427 10.4851 9.17313 10.5644C9.32198 10.6436 9.48822 10.6846 9.65685 10.6836C10.0054 10.6837 10.3396 10.8222 10.586 11.0687C10.8324 11.3152 10.9708 11.6495 10.9707 11.9981C10.9707 12.3466 10.8321 12.6809 10.5856 12.9273C10.3391 13.1737 10.0048 13.3121 9.65625 13.312C8.93124 13.3122 8.22254 13.0969 7.62027 12.6933C7.01801 12.2896 6.54941 11.716 6.27406 11.0453C5.99872 10.3746 5.92908 9.63719 6.074 8.92682C6.21893 8.21644 6.57186 7.56523 7.08792 7.05599C7.73438 6.41656 8.59605 6.04117 9.50454 6.00319C10.413 5.96521 11.303 6.26737 12.0006 6.85062C11.59 7.19387 11.2599 7.62311 11.0335 8.108C10.807 8.5929 10.6899 9.1216 10.6903 9.65675C10.6901 10.004 10.8274 10.3371 11.0722 10.5834C11.3169 10.8298 11.6492 10.9692 11.9964 10.9712C11.8238 10.9712 11.6529 10.9372 11.4934 10.8712C11.334 10.8051 11.1891 10.7083 11.0671 10.5862C10.9451 10.4641 10.8483 10.3192 10.7823 10.1597C10.7163 10.0003 10.6824 9.82934 10.6825 9.65675C10.6835 9.45242 10.6228 9.25254 10.5084 9.08327C10.3965 8.91777 10.2393 8.78807 10.0556 8.70976C9.9291 8.65685 9.79335 8.6296 9.65625 8.6296C9.51914 8.6296 9.3834 8.65685 9.25692 8.70976C9.13062 8.76325 9.01629 8.84145 8.92064 8.93975ZM17.7119 12.9199C17.9912 13.5819 18.0694 14.3115 17.9368 15.0177C17.8041 15.7238 17.4666 16.3754 16.9661 16.8909C16.4594 17.413 15.8084 17.772 15.0964 17.9217C14.3845 18.0715 13.644 18.0053 12.9699 17.7316C12.2958 17.4579 11.7188 16.9892 11.3128 16.3855C10.9067 15.7818 10.6902 15.0706 10.6909 14.343C10.6872 14.1682 10.7184 13.9943 10.7827 13.8317C10.847 13.669 10.9432 13.5209 11.0656 13.3959C11.1879 13.2709 11.334 13.1716 11.4952 13.1038C11.6564 13.036 11.8296 13.0011 12.0045 13.0011C12.1794 13.0011 12.3525 13.036 12.5138 13.1038C12.675 13.1716 12.8211 13.2709 12.9434 13.3959C13.0658 13.5209 13.1619 13.669 13.2263 13.8317C13.2906 13.9943 13.3218 14.1682 13.3181 14.343C13.3171 14.5453 13.3762 14.7433 13.4879 14.9119C13.5997 15.0805 13.759 15.2121 13.9456 15.29C14.2038 15.3981 14.4939 15.3969 14.7509 15.287C14.9966 15.1806 15.1914 14.983 15.2943 14.7358C15.3969 14.485 15.3968 14.204 15.2938 13.9534C15.1909 13.7028 14.9935 13.5028 14.7443 13.3966C14.6179 13.3432 14.4821 13.3158 14.3449 13.3162C13.9964 13.3162 13.6621 13.1777 13.4157 12.9313C13.1692 12.6848 13.0307 12.3505 13.0307 12.002C13.0307 11.6534 13.1692 11.3192 13.4157 11.0727C13.6621 10.8263 13.9964 10.6878 14.3449 10.6878C15.0634 10.6874 15.766 10.899 16.3648 11.296C16.9636 11.693 17.432 12.2579 17.7113 12.9199H17.7119Z" fill="black"/>
<path opacity="0.7" d="M11.9972 13.0291C12.7226 13.0291 13.3111 13.6176 13.3111 14.343C13.3116 15.0717 13.0942 15.7839 12.6869 16.388C12.2795 16.9922 11.7008 17.4608 11.0251 17.7337C10.3494 18.0065 9.60758 18.071 8.89491 17.919C8.18225 17.767 7.53131 17.4054 7.02572 16.8807C6.52769 16.3644 6.19259 15.713 6.06216 15.0076C5.93172 14.3022 6.01172 13.5741 6.29219 12.9138C6.57266 12.2536 7.0412 11.6905 7.63944 11.2946C8.23768 10.8988 8.93916 10.6877 9.6565 10.6877C10.005 10.6877 10.3393 10.8262 10.5858 11.0727C10.8322 11.3191 10.9707 11.6534 10.9707 12.0019C10.9707 12.3505 10.8322 12.6847 10.5858 12.9312C10.3393 13.1777 10.005 13.3161 9.6565 13.3161C9.45233 13.3155 9.25296 13.3762 9.08362 13.4903C8.918 13.6022 8.78829 13.7597 8.71011 13.9436C8.63203 14.129 8.61009 14.3332 8.64702 14.5309C8.68396 14.7286 8.77815 14.9111 8.91789 15.0558V15.057C9.08524 15.2307 9.30854 15.3398 9.54845 15.3651C9.78836 15.3904 10.0295 15.3302 10.2294 15.1951C10.3695 15.1014 10.4842 14.9745 10.5633 14.8257C10.6424 14.6769 10.6834 14.5109 10.6827 14.3424C10.6827 13.6176 11.2712 13.0291 11.9972 13.0291ZM17.5975 7.9873C17.8832 8.54468 18.021 9.16611 17.9976 9.79201C17.9742 10.4179 17.7904 11.0273 17.4639 11.5618C17.1374 12.0964 16.6791 12.538 16.1329 12.8446C15.5867 13.1511 14.9709 13.3123 14.3446 13.3125C13.996 13.3125 13.6616 13.174 13.4151 12.9275C13.1686 12.681 13.0301 12.3466 13.0301 11.998C13.0301 11.6494 13.1686 11.3151 13.4151 11.0685C13.6616 10.822 13.996 10.6835 14.3446 10.6835C14.5467 10.6837 14.7443 10.6243 14.9128 10.5127C15.0812 10.401 15.213 10.2422 15.2916 10.056C15.3493 9.91777 15.3764 9.76861 15.3708 9.61889C15.3652 9.46916 15.3271 9.32244 15.2591 9.1889C15.1934 9.0593 15.1008 8.94518 14.9875 8.85414C14.8743 8.76309 14.7429 8.6972 14.6022 8.66084C14.4615 8.62449 14.3147 8.6185 14.1715 8.64329C14.0283 8.66807 13.892 8.72305 13.7717 8.80458C13.6314 8.8981 13.5166 9.02495 13.4373 9.17376C13.3581 9.32257 13.317 9.4887 13.3177 9.65728C13.3214 9.83215 13.2902 10.006 13.2258 10.1686C13.1614 10.3313 13.0652 10.4794 12.9429 10.6044C12.8205 10.7293 12.6744 10.8286 12.5131 10.8964C12.3519 10.9641 12.1787 10.999 12.0038 10.999C11.8289 10.9989 11.6558 10.964 11.4946 10.8961C11.3334 10.8283 11.1873 10.729 11.065 10.6039C10.9427 10.4789 10.8465 10.3307 10.7822 10.1681C10.7179 10.0054 10.6868 9.83155 10.6906 9.65668C10.6901 8.9791 10.8781 8.31475 11.2335 7.73785C11.5889 7.16095 12.0977 6.69423 12.7031 6.38984C13.3084 6.08544 13.9865 5.95537 14.6615 6.01414C15.3366 6.07291 15.9819 6.31822 16.5256 6.72265L16.528 6.72445C16.9759 7.05842 17.3415 7.49038 17.5969 7.9873H17.5975Z" fill="black"/>
</g>
<defs>
<clipPath id="clip0_1265_21819">
<rect width="24" height="24" fill="white"/>
</clipPath>
</defs>
</svg>
