<svg viewBox="0 0 24 24" fill="none" xmlns="http://www.w3.org/2000/svg">
<g clip-path="url(#clip0_1265_21815)">
<path d="M12 24C18.6274 24 24 18.6274 24 12C24 5.37258 18.6274 0 12 0C5.37258 0 0 5.37258 0 12C0 18.6274 5.37258 24 12 24Z" fill="#23BEE2"/>
<path d="M14.2921 10.5069L16.2061 8.48972C17.0298 9.47368 17.4803 10.7168 17.4783 12.0003C17.4783 15.0255 15.026 17.4784 12 17.4784C11.0768 17.4795 10.1683 17.2462 9.35982 16.8003L14.2277 14.29L15.0207 13.8809L14.2862 13.3731L13.7615 13.0101L15.292 12.2285L16.053 11.8395L15.3711 11.324L14.2921 10.5069ZM9.70786 13.7786L7.92332 15.6587C7.01947 14.6549 6.52003 13.3513 6.52168 12.0003C6.52168 8.97451 8.97396 6.5216 12 6.5216C13.0251 6.52022 14.0298 6.8079 14.899 7.35165L9.77227 9.99552L8.97927 10.4052L9.71377 10.9125L10.2385 11.2755L8.70805 12.0576L7.94696 12.4461L8.62886 12.9622L9.70786 13.7786ZM7.58946 16.0116L7.22014 16.4006C6.11312 15.2031 5.49879 13.6315 5.5 12.0003C5.5 8.41582 8.41614 5.5 12 5.5C13.4731 5.5 14.834 5.99306 15.9254 6.82252L15.3924 7.09743C14.3966 6.40493 13.2127 6.03436 12 6.03563C8.71159 6.03563 6.03596 8.71142 6.03596 12.0003C6.03596 13.5433 6.6245 14.951 7.59005 16.011L7.58946 16.0116ZM16.5405 8.13677L16.9116 7.74658C17.9373 8.92593 18.5016 10.437 18.5 12.0003C18.5 15.5842 15.5839 18.5 12 18.5C10.6793 18.5015 9.38985 18.0984 8.30505 17.3448L8.85105 17.0628C9.79529 17.6531 10.8866 17.9656 12 17.9644C15.2884 17.9644 17.964 15.2886 17.964 12.0003C17.964 10.5282 17.4281 9.17907 16.5405 8.13736V8.13677ZM8.95209 12.5353L11.2809 11.3452L10.0181 10.4726L17.0085 6.86746L13.4909 10.5731L15.0479 11.7514L12.7191 12.9415L13.9819 13.8141L6.99146 17.4193L10.5091 13.7136L8.95209 12.5353Z" fill="white"/>
</g>
<defs>
<clipPath id="clip0_1265_21815">
<rect width="24" height="24" fill="white"/>
</clipPath>
</defs>
</svg>