<svg width="24" height="24" viewBox="0 0 24 24" fill="none" xmlns="http://www.w3.org/2000/svg">
<path d="M21.9206 9.52412C21.6043 8.34357 19.1351 5.6661 17.3373 3.45931C17.2978 3.40167 17.2463 3.35322 17.1864 3.31727C17.1265 3.28132 17.0595 3.25871 16.9901 3.25098C16.8126 3.25098 16.666 3.42845 16.7432 3.55962C16.8203 3.69079 18.5333 7.23246 18.1938 8.38215C17.8543 9.53184 16.2956 9.31579 16.0487 9.31579C15.8018 9.31579 16.0101 9.4161 16.1567 9.55499C16.6201 9.953 16.9898 10.4485 17.2392 11.0061C17.4887 11.5637 17.6118 12.1696 17.5996 12.7803V13.8528C19.6135 13.6754 22.6768 12.4639 21.8666 9.52412H21.9206ZM7.90057 9.55499C8.03946 9.4161 8.14749 9.31579 8.00088 9.31579C7.85428 9.31579 6.17218 9.55499 5.84811 8.38215C5.52403 7.20931 7.26786 3.69851 7.3373 3.55962C7.34395 3.52511 7.34359 3.48962 7.33626 3.45526C7.32893 3.42089 7.31476 3.38835 7.29461 3.35956C7.27446 3.33078 7.24873 3.30633 7.21895 3.28768C7.18917 3.26902 7.15595 3.25654 7.12125 3.25098H7.05181C6.87434 3.25098 6.73545 3.45931 6.69687 3.45931C4.93761 5.64295 2.43761 8.34357 2.12125 9.52412C1.34965 12.4639 4.43607 13.6754 6.41909 13.8837V12.8112C6.41409 12.1933 6.54408 11.5818 6.79997 11.0193C7.05586 10.4569 7.43148 9.95716 7.90057 9.55499ZM14.2046 13.4362C14.2046 13.4747 14.2046 13.4747 14.166 13.5056C14.1274 13.5365 14.166 13.5442 14.0966 13.5442H9.93761V12.8112C9.93761 11.8081 11.1722 11.322 12.129 11.322C13.0858 11.322 14.2046 11.8081 14.2046 12.8112V13.4362ZM12.129 9.06888C9.97619 9.06888 7.61508 10.3189 7.61508 12.7803V16.5226C7.61508 19.0149 9.97619 20.1954 12.129 20.2263C12.925 20.2593 13.7169 20.0964 14.4353 19.752C15.1537 19.4076 15.7766 18.8922 16.2493 18.251C16.2493 18.251 16.2493 18.1507 16.2108 18.1121C15.4392 17.6954 15.0456 17.4562 14.3126 17.0704C14.274 17.0704 14.274 17.0704 14.2355 17.109C13.9851 17.4269 13.6648 17.6828 13.2995 17.8568C12.9341 18.0308 12.5336 18.1181 12.129 18.1121C11.1722 18.1121 9.93761 17.5257 9.93761 16.5226V15.4115H15.879C16.025 15.4136 16.166 15.358 16.2714 15.257C16.3768 15.1559 16.4382 15.0173 16.4422 14.8713V12.8112C16.4422 10.3189 14.22 9.10746 12.1135 9.06888" fill="#7AB200"/>
</svg>
