<svg viewBox="0 0 24 24" fill="none" xmlns="http://www.w3.org/2000/svg">
<g clip-path="url(#clip0_1265_21811)">
<path d="M12 24C18.6274 24 24 18.6274 24 12C24 5.37258 18.6274 0 12 0C5.37258 0 0 5.37258 0 12C0 18.6274 5.37258 24 12 24Z" fill="#00A5FF"/>
<path fill-rule="evenodd" clip-rule="evenodd" d="M13.2862 9.87915C13.2843 10.4318 13.2806 10.9839 13.28 11.536C13.2793 12.4545 13.2781 13.3736 13.2824 14.2921C13.2824 14.4035 13.2515 14.4697 13.1543 14.5285C12.7768 14.7557 12.4054 14.9927 12.0068 15.2422V15.041C12.0068 13.6193 12.005 12.197 12.0093 10.7754C12.0099 10.6571 11.9784 10.5903 11.8719 10.5327C11.5408 10.3532 11.2171 10.1601 10.8903 9.97322C10.8544 9.9528 10.816 9.93609 10.7609 9.90885V10.1038C10.7609 11.3782 10.7585 12.6526 10.7646 13.9263C10.7646 14.0544 10.7238 14.1213 10.6161 14.1813C10.2912 14.3608 9.97365 14.5527 9.65243 14.7396C9.60725 14.7656 9.55959 14.7885 9.48779 14.8262V14.6282C9.48779 13.3482 9.4847 12.0683 9.49213 10.789C9.49275 10.6404 9.44261 10.5662 9.31883 10.4981C8.95737 10.2963 8.60273 10.0822 8.22704 9.86243C8.64296 9.62291 9.04278 9.39019 9.44694 9.16676C9.48408 9.14634 9.56145 9.17295 9.60787 9.19956C9.96004 9.39762 10.311 9.59753 10.6582 9.80364C10.7424 9.85315 10.8036 9.85934 10.8915 9.80549C11.2121 9.60929 11.5439 9.42918 11.8632 9.22989C11.9784 9.15809 12.0613 9.16985 12.1708 9.23546C12.5403 9.45642 12.916 9.66871 13.2899 9.88348L13.2862 9.87915ZM13.2899 9.88348C13.3171 9.85501 13.3406 9.81849 13.3734 9.7993C13.7219 9.5963 14.0703 9.39205 14.425 9.20018C14.4593 9.1852 14.4964 9.17761 14.5338 9.17793C14.5712 9.17825 14.6082 9.18647 14.6422 9.20204C15.0024 9.39576 15.3577 9.59877 15.7086 9.80797C15.7569 9.83644 15.8052 9.91195 15.8052 9.9658C15.8108 11.3045 15.8101 12.6439 15.8077 13.9826C15.8077 14.026 15.7965 14.094 15.7674 14.1114C15.3664 14.3503 14.961 14.5824 14.5308 14.8312V14.6276C14.5308 13.3377 14.5296 12.0479 14.5333 10.7586C14.5333 10.6491 14.5073 10.5829 14.4046 10.5265C14.0282 10.3173 13.6581 10.0958 13.2862 9.87915L13.2899 9.88348ZM6.39068 13.7252C6.27469 13.7266 6.15956 13.705 6.05193 13.6617C5.94429 13.6185 5.84627 13.5544 5.7635 13.4731C5.68073 13.3918 5.61485 13.295 5.56963 13.1882C5.52442 13.0813 5.50077 12.9666 5.50004 12.8506C5.4989 12.7345 5.52079 12.6193 5.56445 12.5117C5.60811 12.4041 5.67268 12.3062 5.75441 12.2238C5.83615 12.1413 5.93343 12.0758 6.04062 12.0312C6.14782 11.9865 6.2628 11.9636 6.37892 11.9637C6.49503 11.962 6.61032 11.9833 6.7181 12.0265C6.82589 12.0697 6.92403 12.1339 7.00683 12.2153C7.08962 12.2967 7.15543 12.3937 7.20042 12.5008C7.24542 12.6078 7.26871 12.7227 7.26894 12.8389C7.27025 12.9549 7.24849 13.0701 7.20492 13.1777C7.16134 13.2853 7.09683 13.3832 7.01512 13.4656C6.93341 13.5481 6.83613 13.6135 6.72894 13.6581C6.62174 13.7026 6.50676 13.7254 6.39068 13.7252ZM7.57593 16.3785C7.35533 16.3803 7.14299 16.2948 6.98527 16.1405C6.82755 15.9863 6.73728 15.7759 6.73418 15.5553C6.73365 15.3347 6.81971 15.1226 6.97388 14.9648C7.12804 14.8069 7.33799 14.7158 7.5586 14.7111C8.00732 14.7012 8.39539 15.0825 8.40034 15.5386C8.40199 15.7592 8.31615 15.9714 8.16163 16.1289C8.00711 16.2863 7.7965 16.3761 7.57593 16.3785ZM6.90315 9.15191C7.34878 9.15314 7.70652 9.51088 7.70652 9.95342C7.70652 10.4034 7.34011 10.7655 6.88954 10.7605C6.78417 10.7598 6.68 10.7381 6.58308 10.6968C6.48616 10.6554 6.39843 10.5952 6.325 10.5197C6.25156 10.4441 6.19389 10.3547 6.15533 10.2566C6.11677 10.1586 6.0981 10.0538 6.1004 9.94847C6.09939 9.84306 6.11952 9.73851 6.15958 9.64101C6.19964 9.5435 6.25883 9.45501 6.33366 9.38076C6.40849 9.30651 6.49743 9.24801 6.59525 9.2087C6.69306 9.16939 6.79775 9.15008 6.90315 9.15191ZM17.748 12.1884C17.5486 12.1884 17.3573 12.1091 17.2163 11.9681C17.0752 11.8271 16.996 11.6358 16.996 11.4364C16.996 11.2369 17.0752 11.0457 17.2163 10.9046C17.3573 10.7636 17.5486 10.6844 17.748 10.6844C17.9474 10.6844 18.1387 10.7636 18.2797 10.9046C18.4208 11.0457 18.5 11.2369 18.5 11.4364C18.5 11.6358 18.4208 11.8271 18.2797 11.9681C18.1387 12.1091 17.9474 12.1884 17.748 12.1884ZM8.00175 7.43005C8.00042 7.33984 8.01719 7.25028 8.05108 7.16666C8.08497 7.08305 8.13529 7.00708 8.19905 6.94326C8.26282 6.87944 8.33874 6.82905 8.42232 6.79508C8.50591 6.76112 8.59545 6.74426 8.68566 6.74551C8.77594 6.74543 8.86533 6.76327 8.94865 6.79802C9.03196 6.83277 9.10755 6.88373 9.17101 6.94794C9.23446 7.01214 9.28453 7.08832 9.3183 7.17204C9.35207 7.25576 9.36887 7.34535 9.36772 7.43562C9.36805 7.52581 9.35049 7.61518 9.31605 7.69854C9.28161 7.7819 9.23098 7.85761 9.16709 7.92127C9.10319 7.98493 9.02731 8.03529 8.94382 8.06943C8.86033 8.10357 8.77091 8.12081 8.68071 8.12015C8.59049 8.12059 8.50108 8.10295 8.41778 8.06828C8.33448 8.03361 8.25896 7.98262 8.19568 7.9183C8.1324 7.85398 8.08264 7.77764 8.04934 7.69379C8.01603 7.60993 7.99985 7.52026 8.00175 7.43005ZM17.3438 15.0385C17.2537 15.0404 17.164 15.0242 17.0803 14.9908C16.9965 14.9574 16.9203 14.9074 16.8562 14.844C16.7921 14.7805 16.7414 14.7048 16.7072 14.6214C16.6729 14.538 16.6558 14.4485 16.6568 14.3583C16.6555 14.2681 16.672 14.1786 16.7054 14.0948C16.7388 14.011 16.7884 13.9346 16.8514 13.8701C16.9143 13.8055 16.9894 13.754 17.0723 13.7185C17.1553 13.683 17.2444 13.6642 17.3346 13.6633C17.4247 13.663 17.514 13.6806 17.5974 13.7149C17.6808 13.7492 17.7566 13.7996 17.8205 13.8633C17.8843 13.9269 17.935 14.0025 17.9696 14.0857C18.0042 14.169 18.0221 14.2583 18.0222 14.3484C18.0244 14.4387 18.0085 14.5284 17.9754 14.6124C17.9422 14.6964 17.8925 14.7728 17.8292 14.8372C17.766 14.9016 17.6904 14.9526 17.607 14.9872C17.5236 15.0218 17.4341 15.0392 17.3438 15.0385ZM11.9901 6.3395C11.9899 6.40764 11.976 6.47503 11.9491 6.53766C11.9223 6.60028 11.883 6.65683 11.8338 6.70393C11.7846 6.75103 11.7263 6.78771 11.6626 6.81176C11.5988 6.83582 11.5309 6.84676 11.4628 6.84392C11.3947 6.84268 11.3275 6.82777 11.2652 6.80009C11.2029 6.7724 11.1468 6.73251 11.1003 6.68276C11.0537 6.63301 11.0176 6.57442 10.9941 6.51046C10.9705 6.44651 10.9601 6.37848 10.9633 6.31041C10.9677 6.17567 11.0246 6.04799 11.1218 5.95465C11.2191 5.86131 11.349 5.80973 11.4838 5.81093C11.552 5.81155 11.6194 5.82582 11.682 5.85288C11.7446 5.87994 11.8012 5.91926 11.8484 5.96852C11.8956 6.01777 11.9324 6.07597 11.9567 6.13968C11.9811 6.20339 11.9924 6.27133 11.9901 6.3395ZM15.562 17.172C15.495 17.1723 15.4286 17.1593 15.3667 17.1336C15.3048 17.108 15.2486 17.0703 15.2014 17.0227C15.1543 16.9751 15.1171 16.9185 15.0921 16.8564C15.0671 16.7942 15.0547 16.7277 15.0557 16.6607C15.0553 16.5923 15.0687 16.5244 15.0952 16.4613C15.1216 16.3981 15.1606 16.3409 15.2096 16.2931C15.2587 16.2453 15.3168 16.2079 15.3807 16.1832C15.4445 16.1584 15.5127 16.1467 15.5811 16.1489C15.8658 16.1526 16.0887 16.3779 16.0874 16.6626C16.0874 16.9547 15.8597 17.1744 15.562 17.172ZM12.9129 18.1889C12.8487 18.1902 12.7848 18.1785 12.7252 18.1545C12.6655 18.1304 12.6114 18.0945 12.5661 18.0489C12.5208 18.0033 12.4852 17.9489 12.4615 17.8892C12.4378 17.8294 12.4265 17.7654 12.4283 17.7012C12.4281 17.6368 12.4407 17.573 12.4654 17.5135C12.4901 17.454 12.5264 17.4001 12.5722 17.3548C12.6181 17.3096 12.6725 17.2739 12.7322 17.25C12.792 17.226 12.856 17.2142 12.9204 17.2153C13.0503 17.2168 13.1744 17.2692 13.266 17.3614C13.3576 17.4536 13.4093 17.578 13.4099 17.708C13.4098 17.7724 13.3967 17.8362 13.3715 17.8956C13.3463 17.9549 13.3094 18.0086 13.2631 18.0534C13.2167 18.0983 13.1619 18.1334 13.1017 18.1566C13.0416 18.1799 12.9774 18.1909 12.9129 18.1889ZM14.5395 7.21961C14.4229 7.21896 14.3114 7.17203 14.2295 7.08915C14.1475 7.00628 14.1019 6.89425 14.1025 6.7777C14.1032 6.66115 14.1501 6.54964 14.233 6.46769C14.3159 6.38575 14.4279 6.34008 14.5444 6.34074C14.7821 6.34197 14.9839 6.5456 14.9833 6.78265C14.9802 6.89876 14.9323 7.00916 14.8495 7.09065C14.7668 7.17215 14.6556 7.21837 14.5395 7.21961ZM10.4929 17.297C10.4928 17.3476 10.4825 17.3976 10.4627 17.4442C10.4429 17.4907 10.414 17.5329 10.3776 17.568C10.3413 17.6032 10.2983 17.6308 10.2511 17.6491C10.2039 17.6674 10.1536 17.676 10.103 17.6745C10.0524 17.6745 10.0023 17.6642 9.9557 17.6443C9.90914 17.6244 9.8671 17.5952 9.83211 17.5586C9.79712 17.522 9.76991 17.4787 9.75211 17.4313C9.73431 17.3839 9.7263 17.3333 9.72856 17.2828C9.7292 17.2323 9.73979 17.1825 9.75971 17.1361C9.77963 17.0898 9.8085 17.0478 9.84466 17.0126C9.88082 16.9775 9.92356 16.9497 9.97044 16.9311C10.0173 16.9125 10.0674 16.9032 10.1179 16.904C10.1683 16.9051 10.218 16.9162 10.2642 16.9365C10.3104 16.9569 10.3521 16.9862 10.3869 17.0227C10.4218 17.0592 10.4491 17.1022 10.4672 17.1493C10.4854 17.1964 10.4942 17.2465 10.4929 17.297ZM17.0926 8.645C17.0944 8.68866 17.0875 8.73223 17.0723 8.7732C17.0571 8.81416 17.0339 8.8517 17.0041 8.88361C16.9742 8.91552 16.9384 8.94118 16.8985 8.95908C16.8586 8.97699 16.8156 8.98678 16.772 8.98789C16.684 8.98939 16.599 8.95609 16.5355 8.89523C16.472 8.83437 16.4351 8.75089 16.4328 8.66295C16.431 8.61934 16.438 8.57582 16.4534 8.53495C16.4687 8.49408 16.492 8.45669 16.522 8.42498C16.552 8.39326 16.588 8.36786 16.628 8.35027C16.6679 8.33268 16.711 8.32325 16.7546 8.32254C16.9397 8.31635 17.0888 8.45933 17.0926 8.64562V8.645Z" fill="white"/>
</g>
<defs>
<clipPath id="clip0_1265_21811">
<rect width="24" height="24" fill="white"/>
</clipPath>
</defs>
</svg>