<svg viewBox="0 0 24 24" fill="none" xmlns="http://www.w3.org/2000/svg">
<path fill-rule="evenodd" clip-rule="evenodd" d="M12 22C6.48583 22 2 17.5133 2 12C2 6.48583 6.48583 2 12 2C17.5142 2 22 6.48583 22 12C22 17.5133 17.5142 22 12 22ZM12 3.66667C7.405 3.66667 3.66667 7.405 3.66667 12C3.66667 16.595 7.405 20.3333 12 20.3333C16.595 20.3333 20.3333 16.595 20.3333 12C20.3333 7.405 16.595 3.66667 12 3.66667ZM13.165 9.2C12.9617 8.95667 12.6383 8.66667 12.2425 8.66667C11.6725 8.66667 11.0658 9.31 10.7317 10.3333H12C12.4608 10.3333 12.8333 10.7067 12.8333 11.1667C12.8333 11.6267 12.4608 12 12 12H10.4717C10.4717 12.2942 10.4983 12.5692 10.5367 12.8333H11.1667C11.6275 12.8333 12 13.2067 12 13.6667C12 14.1267 11.6275 14.5 11.1667 14.5H11.11C11.4383 15.0233 11.8492 15.3333 12.2425 15.3333C12.6383 15.3333 12.9617 15.0433 13.1642 14.8C13.4583 14.4467 13.9833 14.3975 14.3375 14.6908C14.6908 14.9858 14.74 15.5108 14.4458 15.865C13.8383 16.5967 13.0558 17 12.2425 17C10.9483 17 9.85583 15.9983 9.26833 14.5H7.83333C7.3725 14.5 7 14.1267 7 13.6667C7 13.2067 7.3725 12.8333 7.83333 12.8333H8.86083C8.83083 12.5617 8.805 12.2867 8.805 12H7.83333C7.3725 12 7 11.6267 7 11.1667C7 10.7067 7.3725 10.3333 7.83333 10.3333H9.00917C9.4725 8.3775 10.7208 7 12.2425 7C13.055 7 13.8375 7.4025 14.4458 8.13417C14.74 8.4875 14.6917 9.0125 14.3383 9.3075C13.9833 9.60167 13.4567 9.5525 13.165 9.2Z" fill="currentColor"/>
</svg>