<svg width="24" height="24" viewBox="0 0 24 24" fill="none" xmlns="http://www.w3.org/2000/svg">
<g clip-path="url(#clip0_1265_21804)">
<path d="M12 24C18.6274 24 24 18.6274 24 12C24 5.37258 18.6274 0 12 0C5.37258 0 0 5.37258 0 12C0 18.6274 5.37258 24 12 24Z" fill="#0F8FF8"/>
<path fill-rule="evenodd" clip-rule="evenodd" d="M6.3335 14.0027L6.8735 12.6667H7.44483C7.43003 12.4381 7.42247 12.2091 7.42216 11.98C7.42216 11.6813 7.43483 11.404 7.4595 11.1467H6.3335L6.8735 9.81133H7.72283C8.5135 7.27067 10.2962 6 13.0688 6C13.9802 6 14.8462 6.118 15.6668 6.35467V8.03733C14.8945 7.69221 14.0574 7.51584 13.2115 7.52C11.5495 7.52 10.4808 8.284 10.0048 9.812H14.9535L14.4135 11.1473H9.68216C9.65383 11.3673 9.64136 11.5889 9.64483 11.8107C9.64483 12.13 9.65483 12.4153 9.67483 12.6673H13.7968L13.2635 14.0027H9.96016C10.3155 14.9287 10.7488 15.5727 11.2595 15.936C11.7695 16.2987 12.4982 16.48 13.4442 16.48C14.1202 16.48 14.8608 16.3153 15.6668 15.986V17.568C14.9008 17.856 13.9902 18 12.9335 18C10.1555 18 8.39816 16.6673 7.66283 14.0027H6.3335Z" fill="white"/>
</g>
<defs>
<clipPath id="clip0_1265_21804">
<rect width="24" height="24" fill="white"/>
</clipPath>
</defs>
</svg>
 16.4915 14.4272 16.3792 14.7542 16.2365V17.5298C14.4331 17.6816 14.0957 17.7967 13.7487 17.8728C13.3368 17.9644 12.9155 18.0068 12.4936 17.9991C11.9321 18.0083 11.3739 17.9107 10.8489 17.7114C10.3731 17.5221 9.93997 17.2398 9.57468 16.881C9.20499 16.4997 8.90492 16.0566 8.68805 15.5718C8.44158 15.0162 8.26709 14.4313 8.16882 13.8315H6.86597V12.7389H8.04778C8.03716 12.6171 8.03185 12.5162 8.03185 12.4362V12.0848C8.03185 11.968 8.03185 11.848 8.03928 11.7259C8.04671 11.6038 8.04778 11.5209 8.04778 11.4774H6.86597V10.3837H8.14015C8.22372 9.76263 8.39014 9.15553 8.63496 8.57863C8.84991 8.07146 9.14974 7.60465 9.52159 7.19826C9.88006 6.81735 10.314 6.51539 10.7958 6.31164C11.3195 6.0974 11.8812 5.99156 12.4469 6.00052C12.9237 5.99554 13.399 6.05446 13.8602 6.17573C14.3105 6.2976 14.74 6.48621 15.1344 6.73531L14.4973 7.90331C14.2153 7.73315 13.9159 7.59361 13.6043 7.48708C13.2692 7.36532 12.9149 7.30524 12.5584 7.30975Z" fill="white"/>
</g>
<defs>
<clipPath id="clip0_1265_21808">
<rect width="24" height="24" fill="white"/>
</clipPath>
</defs>
</svg>
