<svg viewBox="0 0 24 24" fill="none" xmlns="http://www.w3.org/2000/svg">
<g clip-path="url(#clip0_1265_21808)">
<path d="M24 12C24 14.3734 23.2962 16.6935 21.9776 18.6668C20.6591 20.6402 18.7849 22.1783 16.5922 23.0866C14.3995 23.9948 11.9867 24.2324 9.65892 23.7694C7.33115 23.3064 5.19295 22.1635 3.51472 20.4853C1.83649 18.8071 0.693605 16.6689 0.230582 14.3411C-0.232441 12.0133 0.00519936 9.60051 0.913451 7.4078C1.8217 5.21509 3.35977 3.34094 5.33316 2.02236C7.30655 0.703788 9.62663 0 12 0C15.1826 0 18.2348 1.26428 20.4853 3.51472C22.7357 5.76516 24 8.8174 24 12Z" fill="#003399"/>
<path d="M12.5584 7.30975C12.2068 7.3078 11.8587 7.38017 11.5369 7.52212C11.2162 7.66317 10.9276 7.86801 10.6885 8.12417C10.4219 8.40898 10.2035 8.73535 10.0419 9.09043C9.85491 9.50374 9.71802 9.93792 9.63414 10.3837H13.084V11.4774H9.52052C9.52052 11.5581 9.52052 11.6346 9.51309 11.7089C9.50566 11.7832 9.5046 11.8395 9.5046 11.9085V12.4044C9.5046 12.5106 9.50991 12.6221 9.52052 12.7389H12.5998V13.8336H9.66812C9.84933 14.7645 10.1849 15.4748 10.6747 15.9647C11.1646 16.4545 11.8084 16.6994 12.6062 16.6994C12.9879 16.7014 13.3685 16.6587 13.7402 16.572C14.0878 16.4915 14.4272 16.3792 14.7542 16.2365V17.5298C14.4331 17.6816 14.0957 17.7967 13.7487 17.8728C13.3368 17.9644 12.9155 18.0068 12.4936 17.9991C11.9321 18.0083 11.3739 17.9107 10.8489 17.7114C10.3731 17.5221 9.93997 17.2398 9.57468 16.881C9.20499 16.4997 8.90492 16.0566 8.68805 15.5718C8.44158 15.0162 8.26709 14.4313 8.16882 13.8315H6.86597V12.7389H8.04778C8.03716 12.6171 8.03185 12.5162 8.03185 12.4362V12.0848C8.03185 11.968 8.03185 11.848 8.03928 11.7259C8.04671 11.6038 8.04778 11.5209 8.04778 11.4774H6.86597V10.3837H8.14015C8.22372 9.76263 8.39014 9.15553 8.63496 8.57863C8.84991 8.07146 9.14974 7.60465 9.52159 7.19826C9.88006 6.81735 10.314 6.51539 10.7958 6.31164C11.3195 6.0974 11.8812 5.99156 12.4469 6.00052C12.9237 5.99554 13.399 6.05446 13.8602 6.17573C14.3105 6.2976 14.74 6.48621 15.1344 6.73531L14.4973 7.90331C14.2153 7.73315 13.9159 7.59361 13.6043 7.48708C13.2692 7.36532 12.9149 7.30524 12.5584 7.30975Z" fill="white"/>
</g>
<defs>
<clipPath id="clip0_1265_21808">
<rect width="24" height="24" fill="white"/>
</clipPath>
</defs>
</svg>