<svg width="24" height="24" viewBox="0 0 24 24" fill="none" xmlns="http://www.w3.org/2000/svg">
<path fill-rule="evenodd" clip-rule="evenodd" d="M15.0581 5.285C14.7176 5.59417 14.1894 5.56917 13.8809 5.2275C12.9561 4.20667 11.8719 3.66667 10.7484 3.66667C8.32864 3.66667 6.27443 6.12333 5.58355 9.5H12.0002C12.4605 9.5 12.8336 9.87333 12.8336 10.3333C12.8336 10.7933 12.4605 11.1667 12.0002 11.1667H5.36136C5.34291 11.4408 5.33369 11.7183 5.33369 12C5.33369 12.5708 5.37142 13.1275 5.44269 13.6667H9.49996C9.96027 13.6667 10.3334 14.04 10.3334 14.5C10.3334 14.96 9.96027 15.3333 9.49996 15.3333H5.78897C6.62658 18.2725 8.53322 20.3333 10.7484 20.3333C11.8728 20.3333 12.9569 19.7942 13.8826 18.7725C14.1928 18.4308 14.7193 18.4067 15.0597 18.715C15.401 19.0242 15.4261 19.5517 15.1176 19.8925C13.8666 21.2708 12.3566 22 10.7484 22C7.67213 22 5.05532 19.2108 4.0802 15.3333H2.83342C2.37311 15.3333 2 14.96 2 14.5C2 14.04 2.37311 13.6667 2.83342 13.6667H3.77333C3.70877 13.1233 3.66684 12.5692 3.66684 12C3.66684 11.7183 3.68026 11.4417 3.69703 11.1667H2.83342C2.37311 11.1667 2 10.7933 2 10.3333C2 9.87333 2.37311 9.5 2.83342 9.5H3.89993C4.68892 5.19417 7.45581 2 10.7484 2C12.3566 2 13.8658 2.72917 15.1159 4.10833C15.4253 4.44917 15.3993 4.97583 15.0581 5.285Z" fill="#6B7084"/>
</svg>
