<svg width="24" height="24" viewBox="0 0 24 24" fill="none" xmlns="http://www.w3.org/2000/svg">
<g clip-path="url(#clip0_1265_21800)">
<path d="M12 24C18.6274 24 24 18.6274 24 12C24 5.37258 18.6274 0 12 0C5.37258 0 0 5.37258 0 12C0 18.6274 5.37258 24 12 24Z" fill="#044AAC"/>
<path fill-rule="evenodd" clip-rule="evenodd" d="M8.503 12.715L6.956 14.2632L6.22919 14.99C5.7489 14.0666 5.49875 13.0408 5.5 12C5.5 8.41614 8.41614 5.5 12 5.5C15.5839 5.5 18.5 8.41614 18.5 12C18.5 15.5839 15.5839 18.5 12 18.5C10.6137 18.5 9.32791 18.0633 8.27137 17.3211C8.0048 17.134 7.75257 16.9272 7.51678 16.7025L8.20341 16.0152L13.1771 11.0415C13.1965 10.8019 13.3054 10.5783 13.4821 10.4151C13.6588 10.252 13.8904 10.1613 14.1308 10.1611C14.3677 10.1613 14.596 10.2493 14.7717 10.4081C14.9475 10.5669 15.0581 10.7853 15.0822 11.0209L17.3714 13.31C17.4759 12.8812 17.5287 12.4414 17.5285 12C17.5285 8.95091 15.0485 6.47145 12 6.47145C8.9515 6.47145 6.47146 8.95091 6.47146 12C6.47146 12.4243 6.51932 12.8373 6.61032 13.2344L8.0805 11.7636C8.11646 11.5388 8.2313 11.3342 8.40444 11.1864C8.57759 11.0386 8.79771 10.9573 9.02537 10.957C9.24978 10.9573 9.46699 11.0363 9.63905 11.1804C9.8111 11.3245 9.92707 11.5244 9.96669 11.7453L10.9021 12.6801L10.2149 13.3668L9.55659 12.7085C9.40109 12.8132 9.21814 12.8696 9.03069 12.8706C8.84325 12.8717 8.65967 12.8173 8.503 12.7144V12.715ZM13.6492 11.9433L8.97041 16.6221C9.86967 17.2145 10.9231 17.5297 12 17.5285C14.2177 17.5285 16.1346 16.2161 17.0145 14.327L14.6242 11.9362C14.4775 12.0253 14.3094 12.073 14.1377 12.0742C13.966 12.0755 13.7972 12.0302 13.6492 11.9433ZM14.148 10.6929C14.0902 10.6908 14.0325 10.7005 13.9785 10.7212C13.9245 10.7419 13.8753 10.7733 13.8337 10.8135C13.7921 10.8536 13.759 10.9018 13.7365 10.9551C13.7139 11.0083 13.7024 11.0656 13.7024 11.1234C13.7025 11.1812 13.7143 11.2385 13.737 11.2917C13.7597 11.3449 13.7928 11.3929 13.8345 11.433C13.8762 11.4731 13.9256 11.5043 13.9797 11.5249C14.0337 11.5454 14.0913 11.5549 14.1491 11.5527C14.2604 11.5484 14.3657 11.5012 14.4428 11.4209C14.5199 11.3406 14.563 11.2336 14.5628 11.1222C14.5626 11.0109 14.5193 10.904 14.442 10.8239C14.3646 10.7438 14.2592 10.6969 14.148 10.6929ZM9.03069 11.477C8.91659 11.477 8.80718 11.5224 8.7265 11.603C8.64583 11.6837 8.6005 11.7931 8.6005 11.9072C8.6005 12.0213 8.64583 12.1307 8.7265 12.2114C8.80718 12.2921 8.91659 12.3374 9.03069 12.3374C9.14478 12.3374 9.2542 12.2921 9.33487 12.2114C9.41555 12.1307 9.46087 12.0213 9.46087 11.9072C9.46087 11.7931 9.41555 11.6837 9.33487 11.603C9.2542 11.5224 9.14478 11.477 9.03069 11.477Z" fill="white"/>
</g>
<defs>
<clipPath id="clip0_1265_21800">
<rect width="24" height="24" fill="white"/>
</clipPath>
</defs>
</svg>
