<svg width="24" height="24" viewBox="0 0 24 24" fill="none" xmlns="http://www.w3.org/2000/svg">
<g clip-path="url(#clip0_1265_21796)">
<path d="M12 24C18.6274 24 24 18.6274 24 12C24 5.37258 18.6274 0 12 0C5.37258 0 0 5.37258 0 12C0 18.6274 5.37258 24 12 24Z" fill="#347FFB"/>
<path fill-rule="evenodd" clip-rule="evenodd" d="M14.3784 9.67308L12.548 14.6175L12.5365 14.6475L12.201 13.9744L11.4992 14.2934L13.3398 9.31899L14.0416 9L14.3778 9.67308H14.3784ZM18.9592 9.78983L17.1294 14.7419L16.7932 14.0669L16.0914 14.3859L16.1342 14.2698L17.9633 9.31899L18.6651 9L19 9.67308L18.9592 9.78983ZM15.0419 14.072L16.1195 11.1609L15.4158 11.4799L15.0815 10.8055L14.0007 13.716L14.3357 14.391L15.0419 14.072ZM9.21263 11.2011H5.99398L6.54265 11.7114L5.99398 12.2301H9.20944L9.75556 11.7114L9.21263 11.2011ZM5.54867 13.3594H10.7515L10.2047 13.8742L10.7515 14.3878H5.54867L5 13.8742L5.54867 13.3587V13.3594ZM7.14428 9.04147H12.3439L11.799 9.55696L12.3445 10.0705H7.14491L6.59624 9.55633L7.14491 9.04147H7.14428Z" fill="white"/>
</g>
<defs>
<clipPath id="clip0_1265_21796">
<rect width="24" height="24" fill="white"/>
</clipPath>
</defs>
</svg>
