<svg width="24" height="24" viewBox="0 0 24 24" fill="none" xmlns="http://www.w3.org/2000/svg">
<g clip-path="url(#clip0_1265_21792)">
<path d="M12 24C18.6274 24 24 18.6274 24 12C24 5.37258 18.6274 0 12 0C5.37258 0 0 5.37258 0 12C0 18.6274 5.37258 24 12 24Z" fill="#FFAA5C"/>
<path fill-rule="evenodd" clip-rule="evenodd" d="M17.909 11.2419C17.9066 11.2649 17.9031 11.2874 17.9031 11.3104C17.9001 12.0313 17.8972 12.7528 17.896 13.4743L17.8936 14.9557C17.8936 15.003 17.8895 15.0503 17.8865 15.1094C17.8605 15.0975 17.8416 15.0899 17.8239 15.0798L15.0738 13.5464C15.0248 13.5192 15.0206 13.495 15.0443 13.4465C15.5129 12.4845 15.5146 11.5202 15.0531 10.5558C15.0313 10.5097 15.0354 10.4867 15.0827 10.4607L17.834 8.91664C17.857 8.90364 17.8836 8.89714 17.909 8.88768V11.2419ZM12.1772 5.5C12.2233 5.52777 12.2688 5.55732 12.316 5.58391L17.6632 8.58868C17.6833 8.59991 17.7022 8.61232 17.73 8.62886C17.7051 8.64482 17.6886 8.65664 17.6703 8.66668L14.9415 10.1906C14.87 10.2302 14.8705 10.2296 14.8233 10.1623C14.2182 9.31432 13.3885 8.82977 12.3344 8.70686C12.303 8.70295 12.2714 8.70098 12.2398 8.70095C12.1843 8.70095 12.163 8.67968 12.163 8.62118C12.1624 8.02259 12.1589 7.42341 12.1571 6.82482L12.1553 5.5845C12.1553 5.55614 12.1618 5.52836 12.1654 5.5H12.1772ZM11.8108 18.5C11.7907 18.4852 11.7724 18.4687 11.7517 18.4569L6.36441 15.4285C6.339 15.4143 6.31477 15.3989 6.27991 15.3788C6.30355 15.3629 6.31891 15.3505 6.33664 15.3404C7.24073 14.8352 8.14482 14.3305 9.04891 13.8241C9.10327 13.7934 9.12868 13.8052 9.16237 13.8519C9.72727 14.6355 10.499 15.0987 11.4675 15.2565C11.5662 15.2725 11.6672 15.2801 11.7671 15.2849C11.8238 15.2872 11.8463 15.3026 11.8463 15.3617C11.8457 15.8917 11.848 16.4218 11.8498 16.9512L11.8528 18.4557C11.8528 18.4705 11.8486 18.4852 11.8463 18.5H11.8108ZM6.09082 14.6295C6.09377 14.6118 6.09968 14.5935 6.10027 14.5752L6.10264 13.8289L6.10677 12.1584L6.11446 9.5235L6.11741 8.95564C6.11741 8.93909 6.11977 8.92255 6.12155 8.89595C6.14755 8.90836 6.16646 8.91605 6.18418 8.92609C7.08355 9.42836 7.98232 9.93064 8.88287 10.4317C8.93546 10.4607 8.94255 10.4831 8.91655 10.5381C8.44382 11.5078 8.44618 12.4786 8.91655 13.4495C8.95496 13.5275 8.95614 13.5269 8.87932 13.57C7.97641 14.0782 7.0735 14.5852 6.17 15.0916C6.14696 15.1046 6.11682 15.1058 6.09082 15.1123V14.6301V14.6295ZM14.0521 14.08C14.1485 13.7414 14.1798 13.4005 14.1585 13.0542C14.1337 12.6299 14.0285 12.2269 13.8075 11.857C13.5534 11.4304 13.1859 11.1213 12.738 10.8968C12.6198 10.8371 12.6068 10.8672 12.6771 10.7195C12.836 10.3868 13.1144 10.18 13.4571 10.0476C13.6958 9.9606 13.9466 9.91155 14.2005 9.90227C14.2363 9.90378 14.2701 9.91901 14.295 9.94482C14.7208 10.3887 14.9972 10.9546 15.0856 11.5633C15.312 13.1038 14.308 14.5498 12.7492 14.9327C11.0196 15.3581 9.26518 14.2933 8.90591 12.6021C8.57027 11.0191 9.58428 9.48804 11.097 9.08386C12.2333 8.78073 13.2414 9.02241 14.1236 9.77523L14.2235 9.86032L14.2111 9.87923C14.1242 9.86859 14.038 9.85559 13.9511 9.84732C13.4116 9.7965 12.881 9.83195 12.3663 10.0086C11.7346 10.2177 11.2052 10.6578 10.8843 11.2407C10.837 11.3246 10.8335 11.3252 10.7425 11.2939C10.6258 11.2529 10.5206 11.1846 10.4358 11.0947C10.2676 10.9204 10.1406 10.7106 10.0641 10.4808C9.99496 10.2799 9.94414 10.073 9.88505 9.86918C9.88032 9.85323 9.87678 9.83668 9.86259 9.81955C9.85432 9.86682 9.84487 9.91291 9.83777 9.96018C9.83068 10.0075 9.82477 10.0547 9.82005 10.102C9.76391 10.6303 9.79405 11.1503 9.97664 11.6543C10.2035 12.283 10.6308 12.7357 11.2548 13.011C11.3363 13.0471 11.3363 13.0477 11.2926 13.1221C11.0615 13.5145 10.6993 13.7119 10.252 13.7792C10.044 13.8105 9.836 13.7981 9.62387 13.7828C9.64337 13.7905 9.66227 13.7993 9.68177 13.8064C10.704 14.158 11.8268 14.0002 12.6724 13.1056C12.885 12.8779 13.071 12.6267 13.2266 12.3569C13.2668 12.2872 13.2698 12.2866 13.3348 12.3339C13.6119 12.536 13.7768 12.8125 13.8902 13.1227C13.996 13.4081 14.038 13.7048 14.048 14.0067C14.0486 14.031 14.0504 14.0552 14.0521 14.0794V14.08ZM17.756 15.3871L12.1642 18.4888C12.1612 18.4563 12.1571 18.4362 12.1571 18.4167C12.1571 17.3944 12.1571 16.3721 12.1559 15.3499C12.1559 15.3044 12.1695 15.2878 12.2185 15.2837C13.3058 15.1939 14.168 14.7176 14.8008 13.8519C14.8558 13.7757 14.8552 13.7751 14.9367 13.8206L17.6803 15.3422C17.7016 15.354 17.7229 15.3676 17.756 15.3871ZM11.8457 5.52127C11.8475 5.55436 11.8492 5.57445 11.8492 5.59455C11.8492 6.60323 11.8492 7.61191 11.8504 8.62C11.8504 8.66727 11.8433 8.69091 11.7854 8.69504C10.6757 8.77541 9.79818 9.25582 9.15527 10.1386C9.10446 10.2084 9.10564 10.209 9.03118 10.1676L6.35968 8.68441C6.32837 8.66668 6.29941 8.64541 6.26927 8.62532C6.3 8.60405 6.32837 8.57982 6.36146 8.5615L11.7446 5.57386C11.7748 5.55732 11.8055 5.54255 11.8451 5.52127H11.8457Z" fill="white"/>
</g>
<defs>
<clipPath id="clip0_1265_21792">
<rect width="24" height="24" fill="white"/>
</clipPath>
</defs>
</svg>
