<svg viewBox="0 0 24 24" fill="none" xmlns="http://www.w3.org/2000/svg">
<path fill-rule="evenodd" clip-rule="evenodd" d="M20.9419 20.5369C20.8663 20.7199 20.7197 20.8659 20.5368 20.942C20.4446 20.9796 20.3479 20.9999 20.2497 20.9999H14.2499C13.8359 20.9999 13.5004 20.6642 13.5004 20.2494C13.5004 19.8353 13.8359 19.5003 14.2499 19.5003L18.4445 19.5048L12.9699 14.0303C12.6767 13.7374 12.6767 13.2624 12.9699 12.9696C13.2631 12.6767 13.7376 12.6767 14.0301 12.9696L19.593 18.5329V14.2366C19.593 13.8225 19.8356 13.4995 20.2497 13.4995C20.6645 13.4995 21 13.8353 21 14.2501V20.2494C21 20.2494 21 20.2494 21 20.2501C21 20.3472 20.9804 20.4451 20.9419 20.5369ZM10.4997 11.2502C10.3078 11.2502 10.1158 11.1764 9.96999 11.0304L4.48407 5.54454L4.49994 9.74981C4.49994 10.1639 4.16443 10.4996 3.74959 10.4996C3.3355 10.4996 3 10.1639 3 9.74981V3.74981C3 3.74906 3 3.74831 3 3.74755C3.00076 3.65119 3.0204 3.55408 3.05743 3.46299C3.13375 3.28005 3.27959 3.134 3.4632 3.05797C3.55539 3.01957 3.65287 3 3.7511 3H9.75009C10.1642 3 10.4997 3.33576 10.4997 3.74981C10.4997 4.16386 10.1838 4.44994 9.76974 4.44994H5.51022L11.0301 9.96964C11.3233 10.2625 11.3233 10.7375 11.0301 11.0304C10.8835 11.1764 10.6916 11.2502 10.4997 11.2502Z" fill="currentColor"/>
</svg>