<svg viewBox="0 0 24 24" fill="none" xmlns="http://www.w3.org/2000/svg">
<path fill-rule="evenodd" clip-rule="evenodd" d="M21 20.2502C20.9992 20.3481 20.9796 20.4452 20.9418 20.5363C20.904 20.6266 20.8504 20.7079 20.7824 20.7765C20.7816 20.778 20.7809 20.7795 20.7801 20.7802C20.7771 20.7832 20.7725 20.784 20.7695 20.787C20.7023 20.8525 20.6244 20.9059 20.5368 20.9421C20.4446 20.9797 20.3471 21 20.2496 21H16.4994C16.0853 21 15.7498 20.6643 15.7498 20.2502C15.7498 19.8362 16.0853 19.4997 16.4994 19.4997H18.4391L13.7194 14.7802C13.4263 14.4874 13.4263 14.0123 13.7194 13.7195C14.0126 13.4266 14.4872 13.4266 14.7804 13.7195L19.5001 18.4397V16.4997C19.5001 16.0856 19.8356 15.7499 20.2496 15.7499C20.6637 15.7499 21 16.0856 21 16.4997V20.2495V20.2502ZM20.2496 8.24944C19.8356 8.24944 19.5001 7.91368 19.5001 7.49962V5.56035L14.7804 10.2798C14.6338 10.4266 14.4418 10.4996 14.2499 10.4996C14.058 10.4996 13.866 10.4266 13.7194 10.2798C13.4263 9.98695 13.4263 9.51267 13.7194 9.21907L18.4391 4.49962H16.4994C16.0853 4.49962 15.7498 4.16386 15.7498 3.74981C15.7498 3.33576 16.0853 3 16.4994 3H20.2496C20.2557 3 20.2602 3.00301 20.2655 3.00301C20.3577 3.00452 20.4499 3.02183 20.536 3.05721C20.7197 3.13325 20.8655 3.2793 20.9418 3.46299C20.9796 3.55483 21 3.65194 21 3.74981V7.49962C21 7.91368 20.6637 8.24944 20.2496 8.24944ZM5.56085 19.4997H7.49981C7.9139 19.4997 8.25016 19.8362 8.25016 20.2502C8.25016 20.6643 7.9139 21 7.49981 21H3.74959C3.65211 21 3.55464 20.9797 3.4632 20.9421C3.37555 20.9059 3.29772 20.8525 3.23122 20.7877C3.22745 20.7847 3.22291 20.784 3.21913 20.7802C3.21838 20.7787 3.21762 20.7772 3.21611 20.7757C3.14886 20.7072 3.09521 20.6266 3.05743 20.5363C3.01965 20.4452 3 20.3481 3 20.2502V20.2495V16.4997C3 16.0856 3.3355 15.7499 3.74959 15.7499C4.16368 15.7499 4.49994 16.0856 4.49994 16.4997V18.4397L9.21964 13.7195C9.51207 13.4266 9.98736 13.4266 10.2798 13.7195C10.573 14.0123 10.573 14.4874 10.2798 14.7802L5.56085 19.4997ZM9.75009 10.4996C9.55816 10.4996 9.36623 10.4266 9.21964 10.2798L4.49994 5.56035V7.49962C4.49994 7.91368 4.16368 8.24944 3.74959 8.24944C3.3355 8.24944 3 7.91368 3 7.49962V3.74981C3 3.65194 3.01965 3.55483 3.05743 3.46299C3.13375 3.2793 3.27959 3.13325 3.4632 3.05721C3.55086 3.02108 3.6438 3.00376 3.73674 3.00226C3.74128 3.00226 3.74506 3 3.74959 3H7.49981C7.9139 3 8.25016 3.33576 8.25016 3.74981C8.25016 4.16386 7.9139 4.49962 7.49981 4.49962H5.56009L10.2798 9.21907C10.573 9.51267 10.573 9.98695 10.2798 10.2798C10.1332 10.4266 9.94203 10.4996 9.75009 10.4996Z" fill="currentColor"/>
</svg>