<svg viewBox="0 0 24 24" fill="none" xmlns="http://www.w3.org/2000/svg">
<path fill-rule="evenodd" clip-rule="evenodd" d="M12 20C5.50417 20 2 14.6767 2 12.5C2 10.3233 5.50417 5 12 5C18.4958 5 22 10.3233 22 12.5C22 14.6767 18.4958 20 12 20ZM12 6.66667C6.34667 6.66667 3.66667 11.3458 3.66667 12.5C3.66667 13.6542 6.34667 18.3333 12 18.3333C17.6533 18.3333 20.3333 13.6542 20.3333 12.5C20.3333 11.3458 17.6533 6.66667 12 6.66667ZM12 16.6667C9.7025 16.6667 7.83333 14.7975 7.83333 12.5C7.83333 10.2025 9.7025 8.33333 12 8.33333C14.2975 8.33333 16.1667 10.2025 16.1667 12.5C16.1667 14.7975 14.2975 16.6667 12 16.6667ZM12 10C10.6217 10 9.5 11.1217 9.5 12.5C9.5 13.8783 10.6217 15 12 15C13.3783 15 14.5 13.8783 14.5 12.5C14.5 11.1217 13.3783 10 12 10Z" fill="currentColor"/>
</svg>