<svg viewBox="0 0 24 24" fill="none" xmlns="http://www.w3.org/2000/svg">
<path fill-rule="evenodd" clip-rule="evenodd" d="M4.265 20.089C4.1025 20.2522 3.88917 20.3333 3.67583 20.3333C3.4625 20.3333 3.24917 20.2522 3.08667 20.089C2.76083 19.7644 2.76083 19.2364 3.08667 18.9109L5.65417 16.343C2.93 14.5934 2 12.1727 2 11.1661C2 8.98982 5.50417 3.66655 12 3.66655C14.5017 3.66655 16.0792 4.42546 16.9517 5.04548L19.7533 2.24412C20.0783 1.91863 20.6058 1.91863 20.9317 2.24412C21.2567 2.5696 21.2567 3.09758 20.9317 3.42223L4.265 20.089ZM9.76 12.2372L13.0758 8.9212C12.7417 8.76139 12.3775 8.66684 12 8.66684C10.6217 8.66684 9.5 9.78889 9.5 11.167C9.5 11.5418 9.60083 11.9025 9.76 12.2372ZM12 5.33331C6.34667 5.33331 3.66667 10.0123 3.66667 11.1661C3.66667 11.5377 4.26167 13.6086 6.86917 15.1272L8.5675 13.4295C8.50917 13.3751 8.44083 13.3349 8.39833 13.263C8.02833 12.6296 7.83333 11.905 7.83333 11.167C7.83333 8.87016 9.7025 7.00091 12 7.00091C12.8242 7.00091 13.6167 7.25277 14.2942 7.70293L15.7458 6.2512C15.0583 5.82615 13.8692 5.33331 12 5.33331ZM11.9991 15.3322C11.5641 15.3322 11.1974 14.995 11.1683 14.5541C11.1383 14.0947 11.4858 13.6981 11.9458 13.668C13.3133 13.5784 14.4124 12.4798 14.5016 11.1118C14.5316 10.6532 14.9399 10.3035 15.3874 10.3353C15.8466 10.3646 16.1949 10.7612 16.1649 11.2205C16.0216 13.4194 14.2541 15.1866 12.0541 15.3314C12.0358 15.3322 12.0174 15.3322 11.9991 15.3322ZM9.70077 16.7237C10.4274 16.9061 11.2016 16.999 11.9999 16.999C17.6533 16.999 20.3333 12.3208 20.3333 11.1661C20.3333 10.8181 19.9724 9.68597 18.8566 8.41164C18.5533 8.06439 18.5883 7.53809 18.9349 7.2352C19.2808 6.9323 19.8074 6.96744 20.1108 7.31385C21.2583 8.62416 21.9999 10.137 21.9999 11.1661C21.9999 13.3425 18.4958 18.6657 11.9999 18.6657C11.0641 18.6657 10.1533 18.5561 9.29327 18.3394C8.84661 18.2273 8.57661 17.7738 8.68827 17.3278C8.80077 16.881 9.25327 16.6107 9.70077 16.7237Z" fill="currentColor"/>
</svg>