<svg width="24" height="24" viewBox="0 0 24 24" fill="none" xmlns="http://www.w3.org/2000/svg">
<g clip-path="url(#clip0_1265_21788)">
<path d="M12 24C18.6274 24 24 18.6274 24 12C24 5.37258 18.6274 0 12 0C5.37258 0 0 5.37258 0 12C0 18.6274 5.37258 24 12 24Z" fill="#C99705"/>
<path fill-rule="evenodd" clip-rule="evenodd" d="M6.80005 17.365L6.828 17.2513C6.92875 16.8632 7.19265 16.624 7.58654 16.5155C7.98629 16.405 8.36784 16.4472 8.71428 16.6825C8.82803 16.7592 8.91383 16.8574 8.96908 16.9802C8.98468 17.0134 9.01523 17.0407 9.03928 17.0712C9.06528 17.0413 9.10233 17.0153 9.11533 16.9815C9.20048 16.7547 9.29603 16.5304 9.36038 16.299C9.70877 15.038 10.0494 13.7764 10.3913 12.5148C10.4049 12.4654 10.4134 12.414 10.4257 12.3542C10.3347 12.3542 10.2502 12.3549 10.1664 12.3542C9.87907 12.349 9.59048 12.3575 9.30448 12.3354C8.91513 12.3055 8.65058 12.0656 8.64343 11.6971C8.63693 11.3747 8.82738 11.127 9.19203 11.064C9.44683 11.0198 9.71462 11.0367 9.97657 11.0321C10.2281 11.0282 10.479 11.0321 10.7306 11.0295C10.7533 11.0295 10.7917 11.0035 10.7975 10.9834C10.8612 10.7598 10.9204 10.5349 10.9795 10.3093C10.9834 10.2963 10.9802 10.2814 10.9802 10.2593C10.6955 10.2593 10.414 10.2677 10.1332 10.2567C9.91222 10.2476 9.69902 10.1975 9.51443 10.0701C9.28498 9.91219 9.22193 9.68664 9.25898 9.43704C9.29668 9.18484 9.45853 9.01584 9.71722 8.94499C9.80822 8.92029 9.90702 8.90989 10.0019 8.90924C10.4077 8.90524 10.8136 8.9061 11.2194 8.91184C11.3175 8.91379 11.3611 8.88194 11.4001 8.80005C11.5353 8.5186 11.6679 8.23455 11.8245 7.9648C12.1105 7.47276 12.4459 7.01061 12.8619 6.60891C13.4098 6.08112 14.0553 5.70672 14.8288 5.56957C15.3423 5.47857 15.8597 5.45647 16.3641 5.62937C16.667 5.73337 16.8919 5.92642 17.0336 6.20397C17.1226 6.37947 17.2091 6.55301 17.1993 6.75906C17.1714 7.34406 16.6741 7.71585 16.2237 7.7308C15.8779 7.7425 15.5802 7.64891 15.3501 7.39866C15.1336 7.16336 15.107 6.88971 15.1941 6.59786C15.2006 6.57641 15.209 6.55496 15.2168 6.53286L15.1993 6.51076C15.1551 6.53936 15.105 6.56276 15.068 6.59786C14.8737 6.78561 14.7093 7.00196 14.5805 7.23941C14.3075 7.7282 14.1105 8.2456 13.948 8.776C13.9428 8.79225 13.9441 8.81045 13.9415 8.8384C14.0819 8.8384 14.2204 8.84035 14.3575 8.8384C14.5577 8.83514 14.7566 8.83579 14.9471 8.90729C15.1791 8.99439 15.3566 9.13674 15.4034 9.38049C15.4508 9.62814 15.4021 9.82249 15.1707 10.0116C14.9822 10.1663 14.7612 10.1982 14.5304 10.206C14.2223 10.2164 13.9129 10.219 13.6048 10.2242C13.5639 10.2248 13.5314 10.2242 13.5197 10.2762C13.4696 10.4887 13.415 10.7006 13.3624 10.9125C13.3598 10.9229 13.363 10.9346 13.3643 10.9528C13.5808 10.9528 13.7959 10.9463 14.0104 10.9541C14.2412 10.9626 14.4544 11.023 14.6227 11.1894C14.8281 11.3935 14.8567 11.686 14.6851 11.9155C14.6292 11.9902 14.5623 12.0585 14.5018 12.13C14.3757 12.2782 14.1996 12.3295 14.0124 12.3367C13.6919 12.3497 13.3708 12.3529 13.0504 12.351C12.9633 12.351 12.9288 12.377 12.9093 12.4537C12.7956 12.9048 12.6864 13.3572 12.5603 13.8057C12.3068 14.7072 12.0247 15.5996 11.5619 16.429C11.3393 16.8324 11.0588 17.201 10.7293 17.523C10.2463 17.9923 9.67432 18.314 8.99053 18.433C8.52383 18.5136 8.05324 18.5415 7.59304 18.4018C7.20305 18.2835 6.9333 18.041 6.8293 17.6517L6.80005 17.5379V17.365Z" fill="white"/>
</g>
<defs>
<clipPath id="clip0_1265_21788">
<rect width="24" height="24" fill="white"/>
</clipPath>
</defs>
</svg>
