<svg viewBox="0 0 24 24" fill="none" xmlns="http://www.w3.org/2000/svg">
<g clip-path="url(#clip0_1265_21784)">
<path d="M12 24C18.6274 24 24 18.6274 24 12C24 5.37258 18.6274 0 12 0C5.37258 0 0 5.37258 0 12C0 18.6274 5.37258 24 12 24Z" fill="#417BA4"/>
<path d="M6.59547 8.51161C6.57402 8.65592 6.57987 8.75603 6.65657 8.83208C6.55777 9.00434 6.48106 9.1324 6.40761 9.2754C6.48171 9.1324 6.55777 9.00694 6.65657 8.85938C6.87694 9.135 7.56532 9.135 8.50202 8.83208C8.61253 8.80478 8.61253 9.05244 8.61253 9.05244C8.61253 9.19025 8.58458 9.38266 7.40021 9.54842C7.06935 9.60302 6.60067 9.57572 6.38096 9.32741C6.32571 9.2455 6.2984 9.135 6.2984 8.99719C6.2984 8.96989 6.2984 8.94259 6.32571 8.88668C6.32679 8.88516 6.32787 8.88365 6.32896 8.88213C6.34003 8.83572 6.35753 8.79109 6.38096 8.74952C6.40826 8.66697 6.46351 8.61172 6.51877 8.52916C6.49082 8.58442 6.43621 8.69427 6.38096 8.74952C6.41022 8.66687 6.45727 8.59165 6.51877 8.52916L6.59547 8.51161ZM6.76058 8.15734C6.80088 8.09754 6.84508 8.03839 6.90424 7.97858L6.82168 8.08909C6.81684 8.09378 6.81208 8.09855 6.80738 8.10339C6.83663 8.06244 6.86849 8.02149 6.90424 7.97858L6.82168 8.08909C6.80011 8.11073 6.77971 8.13351 6.76058 8.15734ZM6.76058 8.15734C6.72613 8.20805 6.69428 8.2581 6.65657 8.3088C6.65301 8.31239 6.64954 8.31607 6.64617 8.31985C6.62336 8.35573 6.60104 8.39192 6.57922 8.42841L6.76058 8.15734ZM7.34626 7.49756C7.42882 7.42865 7.51072 7.3513 7.59327 7.28955C7.51617 7.38771 7.45979 7.50049 7.42752 7.62106C7.40021 7.70297 7.40021 7.78552 7.45482 7.84078C7.44982 7.84574 7.44483 7.85072 7.43987 7.85573C7.62188 8.05854 8.21731 7.99873 8.97005 7.67567C9.21771 7.56516 9.46603 7.45466 9.68639 7.31815C9.76894 7.2902 9.8788 7.428 9.90675 7.45466C9.93405 7.48261 9.96135 7.56516 9.90675 7.62041C9.63113 7.78552 9.32822 7.95063 8.99735 8.06114C8.0509 8.46676 7.28971 8.52721 7.0804 8.2685L7.06935 8.2815C7.04204 8.19895 7.01474 8.14369 7.04204 8.03384C7.04204 8.00588 7.04204 7.97858 7.06935 7.95063C7.09433 7.91828 7.12147 7.88766 7.1506 7.85898C7.11215 7.89673 7.07591 7.93666 7.04204 7.97858C7.04204 7.95063 7.06935 7.89603 7.06935 7.86808C7.1246 7.75757 7.17985 7.67567 7.26241 7.56516C7.28191 7.55086 7.30011 7.53591 7.31961 7.52031C7.40281 7.4033 7.52567 7.30255 7.64788 7.17969C7.86889 6.98728 7.86889 6.98728 7.97875 6.90473C8.00203 6.88075 8.02749 6.85899 8.0548 6.83972C8.04547 6.84751 8.03615 6.85531 8.02685 6.86312C8.10485 6.80462 8.18546 6.74677 8.26996 6.69021L8.28166 6.68371L8.32391 6.65381C8.71896 6.39453 9.13825 6.17422 9.57588 5.99598C9.64739 5.95567 9.71889 5.92057 9.79039 5.88937C9.74814 5.90627 9.71434 5.92122 9.67469 5.93812C9.60617 5.96828 9.53681 5.99646 9.46668 6.02263C9.35617 6.05058 9.35617 6.05058 9.13516 6.16109C9.02465 6.21569 9.02465 6.21569 8.83224 6.32619C8.74969 6.38145 8.74969 6.38145 8.55663 6.4913C8.47782 6.54367 8.40022 6.59786 8.32391 6.65381C10.1271 5.76651 10.001 5.80487 9.87425 5.85492C9.71709 5.90341 9.56241 5.9596 9.41077 6.02328C8.77244 6.29629 8.17181 6.68371 7.79609 7.04318C7.73953 7.08869 7.71288 7.11469 7.64788 7.17969C7.68298 7.14654 7.72003 7.11339 7.75838 7.08023C7.69974 7.13773 7.6444 7.1985 7.59262 7.26225C7.50617 7.3487 7.41971 7.41825 7.34626 7.49756ZM5.78163 13.8874C5.78813 13.9108 5.79528 13.9329 5.80243 13.9544C5.82238 14.0268 5.86041 14.093 5.91293 14.1468C5.86168 13.9971 5.81335 13.8465 5.76798 13.695C5.76538 13.8738 5.81933 14.0304 5.91293 14.1468C5.85066 13.9773 5.80452 13.8023 5.77513 13.6241C6.27045 14.3125 8.14385 14.1468 10.5399 13.1282C13.5976 11.8339 16.3791 9.63097 16.7653 8.19895C16.8478 7.84078 16.7926 7.59311 16.5995 7.40005C16.7373 7.53786 16.8751 7.70297 17.0129 7.84078C17.178 8.03384 17.2053 8.2815 17.1234 8.61172C16.7373 10.071 13.9006 12.302 10.7602 13.6235C8.034 14.8105 5.97794 14.8631 5.78098 13.8881C5.73352 13.7275 5.68542 13.5201 5.63732 13.3758C5.66462 13.4584 5.69257 13.5409 5.74783 13.6241L5.76408 13.682C5.76249 13.7165 5.76379 13.7511 5.76798 13.7853C5.76587 13.7538 5.76544 13.7221 5.76668 13.6904C5.76581 13.6876 5.76494 13.6848 5.76408 13.682L5.78163 13.8874ZM10.2539 5.73596L10.2922 5.72036C11.1184 5.5 11.6417 5.60986 11.5318 6.07788C11.5039 6.24364 11.394 6.40875 11.2289 6.57386C11.0911 6.62911 10.7882 6.57386 10.7329 6.5186C10.8708 6.3535 10.9533 6.21569 10.9806 6.10583C11.0664 5.74181 10.6699 5.64431 10.0238 5.81267L9.99515 5.82307L10.2539 5.73596ZM10.2038 5.75546L10.3195 5.72036C10.2976 5.72513 10.2757 5.73012 10.2539 5.73531L10.2038 5.75546ZM5.63732 12.9156V12.9351C5.55931 12.8571 5.53006 12.755 5.52681 12.6283C5.51981 12.5733 5.51829 12.5178 5.52226 12.4625C5.52551 12.5149 5.52724 12.5674 5.52746 12.6198C5.51992 12.5658 5.51817 12.5111 5.52226 12.4567C5.51446 12.3124 5.49951 12.1473 5.49951 12.0264C5.49951 12.1921 5.55476 12.302 5.61002 12.4118C5.61002 12.495 5.61652 12.5841 5.62302 12.6738C5.61002 12.5841 5.61002 12.495 5.61002 12.4118C7.45482 14.3671 15.746 9.3001 15.8286 7.15239C15.8559 6.76692 15.6355 6.62911 15.5257 6.54656L15.746 6.68436L16.021 6.87677C16.242 7.06983 16.3245 7.3448 16.242 7.70297C15.8838 9.07974 13.1842 11.2002 10.237 12.4398C7.90334 13.4467 6.10079 13.5786 5.63732 12.9156ZM5.62367 10.8147L5.66462 10.6496C5.60937 10.8706 5.63732 11.063 5.74718 11.1729C5.74652 11.175 5.74587 11.1772 5.74522 11.1794C5.79918 11.2444 5.87328 11.2912 5.96754 11.338C6.05009 11.4485 5.99549 11.7234 5.99549 11.7234C5.96754 11.806 5.94024 11.9165 5.88498 11.8892C5.60937 11.7514 5.49951 11.531 5.52746 11.2002C5.50084 11.3646 5.54033 11.5328 5.63732 11.6682L5.63992 11.6526C5.56301 11.5253 5.53289 11.3752 5.55476 11.2281L5.56582 11.1566C5.55928 11.1799 5.55557 11.2039 5.55476 11.2281L5.60937 10.8426L5.66462 10.6216V10.567L5.62367 10.8147ZM6.02799 10.1386C5.97592 10.2489 5.93729 10.365 5.91293 10.4845C5.82973 10.374 5.80243 10.2368 5.82973 10.071C5.82973 10.0164 5.82973 9.98849 5.85768 9.93389C5.91021 9.77336 5.97453 9.61692 6.05009 9.46586C6.02356 9.54761 6.01477 9.63407 6.0243 9.71949C6.03382 9.8049 6.06146 9.8873 6.10534 9.96119L6.08779 10.0021C6.43296 10.4546 7.69143 10.3402 9.30027 9.65827C11.3661 8.74953 13.2668 7.26224 13.5151 6.32619C13.5976 5.96868 13.4871 5.74766 13.1842 5.63716C13.2395 5.60986 13.2395 5.60986 13.4046 5.66511C13.5151 5.69306 13.5976 5.72036 13.6523 5.72036C14.0104 5.85817 14.1482 6.10583 14.0384 6.4913C13.7628 7.53786 11.6969 9.16295 9.43807 10.1263C7.64788 10.8699 6.27045 11.0077 5.91293 10.4845L6.02799 10.1386ZM10.2779 18.0756C9.94705 18.0866 9.67274 18.0522 9.46538 17.9748C9.30027 17.8923 9.0799 17.8097 8.94275 17.7272C9.27882 17.8663 9.71954 17.9007 10.2266 17.8507C13.129 17.5646 18.2187 14.5147 18.5002 12.5223L18.4729 12.6049C18.4422 12.7686 18.4237 12.9344 18.4177 13.1009C18.4177 13.1282 18.4177 13.1555 18.3904 13.1834C18.0595 14.3671 15.7187 16.2126 13.1569 17.3137C12.0031 17.8058 11.0053 18.0502 10.2792 18.0756C10.2788 18.0756 10.2784 18.0756 10.2779 18.0756ZM10.6003 16.9432L10.6504 16.8737C10.6335 16.8964 10.6179 16.9192 10.6016 16.9426C11.0196 16.8256 11.4694 16.6741 11.9446 16.4875C12.2475 16.405 12.358 16.598 12.358 16.598C12.3853 16.6253 12.3853 16.7359 12.2202 16.8184C11.5286 17.0888 10.8916 17.2832 10.3319 17.4002C10.3277 17.4082 10.3236 17.4162 10.3195 17.4242L10.328 17.4008C9.35162 17.6056 8.61123 17.5763 8.22641 17.3137C8.0886 17.2032 7.89554 17.0667 7.75838 16.9562C8.20171 17.3358 9.22746 17.3274 10.6003 16.9432ZM7.1519 16.3504C7.04139 16.2126 6.90424 16.0748 6.82168 15.937C6.93219 16.0748 7.0973 16.2672 7.20715 16.405C7.20608 16.3907 7.1999 16.3774 7.18975 16.3673C7.17959 16.3573 7.16615 16.3513 7.1519 16.3504ZM11.5318 5.5273C11.6969 5.5273 11.9173 5.5 12.0824 5.5C12.6609 5.5 12.9366 5.72036 12.8261 6.16109C12.6882 6.68436 11.9446 7.428 10.9806 8.08844C10.7882 8.17099 10.5951 7.92333 10.6504 7.81347C10.6504 7.78552 10.6777 7.78552 10.6777 7.78552C11.5318 7.20699 12.165 6.57386 12.3028 6.10583C12.4133 5.66511 12.0551 5.4727 11.4213 5.5273H11.5318ZM14.8366 6.16109C15.1675 6.32619 15.3046 6.60181 15.1948 7.01458C14.8646 8.25355 12.4406 10.1543 9.79624 11.2834C9.30027 11.5031 8.80494 11.6688 8.36422 11.806C8.1159 11.8339 8.0886 11.5031 8.19911 11.338C8.22641 11.2834 8.25371 11.2834 8.28166 11.2554C8.69443 11.1449 9.13516 10.9804 9.60383 10.7874C12.1097 9.71353 14.3959 7.89603 14.6995 6.73897C14.8093 6.32619 14.6442 6.05058 14.286 5.91342C14.4511 5.99598 14.6715 6.07853 14.8366 6.16044V6.16109ZM17.7013 8.88733L17.7839 9.02514C17.8664 9.2455 17.8664 9.2455 17.8664 9.35536V9.38266C17.7839 9.35536 17.6194 9.02514 17.5915 8.88733C17.5915 8.72222 17.5635 8.61172 17.481 8.50186L17.702 8.88733H17.7013ZM18.2799 10.3467C18.3072 10.4845 18.3072 10.6496 18.2525 10.8426C17.9217 12.0543 15.8559 13.8438 13.3493 15.1387C13.0744 15.2486 12.9086 15.0555 12.9639 14.8631C12.9862 14.792 13.0357 14.7327 13.1017 14.698C15.6355 13.3758 17.7559 11.5583 18.0874 10.3194C18.142 10.0983 18.142 9.90594 18.0874 9.74083C18.17 9.96119 18.2525 10.1816 18.2799 10.3467ZM18.4729 11.5037V11.7234C18.4729 11.8339 18.4729 11.9165 18.445 12.0543C18.2525 12.7979 17.3431 13.7613 16.1042 14.698C15.9111 14.8358 15.8006 14.6427 15.8286 14.5049C15.8544 14.4207 15.9019 14.3447 15.9664 14.2846C17.2606 13.3212 18.1973 12.3293 18.3904 11.5583C18.4177 11.4205 18.445 11.2834 18.4177 11.1456L18.4729 11.5031V11.5037ZM7.06935 8.28085C7.04204 8.1983 7.01474 8.14304 7.04204 8.03319C7.01474 8.14304 7.04204 8.1983 7.06935 8.2802V8.28085ZM6.38031 9.32741C6.32571 9.24485 6.2984 9.13435 6.2984 8.99654C6.2984 9.13435 6.2984 9.21755 6.38096 9.32741H6.38031ZM5.91228 10.4838C5.82973 10.3733 5.80243 10.2362 5.82973 10.0704C5.80243 10.2362 5.82973 10.374 5.91293 10.4838H5.91228ZM16.2966 11.4478C16.3181 11.5073 16.3243 11.5712 16.3146 11.6336C16.305 11.6961 16.2798 11.7552 16.2413 11.8053C15.0297 12.9071 13.2395 14.009 11.3661 14.8072C8.58393 15.9643 6.49082 16.0468 6.2984 15.0549C6.27045 14.9723 6.2984 15.0276 6.32571 15.0003C6.32571 15.0276 6.32571 15.1654 6.43621 15.3305C6.40826 15.2752 6.38096 15.2479 6.35366 15.1927C6.32571 15.1654 6.32571 15.1381 6.2984 15.1101C6.24315 15.0276 6.21585 14.9177 6.1606 14.8352C6.68388 15.5235 8.61188 15.3857 11.0911 14.3119C12.9639 13.513 14.7541 12.3839 15.9664 11.31C16.1867 11.1995 16.2693 11.3653 16.2966 11.4478ZM9.32822 16.4869C9.35552 16.5421 9.38347 16.6526 9.27297 16.68C8.28166 16.8451 7.56532 16.7625 7.23445 16.4043C7.1246 16.2665 6.95949 16.0741 6.84898 15.9363C7.1519 16.3218 7.89554 16.4323 8.97005 16.2665C9.16311 16.2665 9.30027 16.4323 9.32757 16.4875L9.32822 16.4869ZM18.0042 14.477C18.0868 14.3119 18.17 14.0636 18.2252 13.8985C17.8937 14.9723 15.7733 16.6247 13.4598 17.6167C12.0272 18.2218 10.8428 18.4422 10.2097 18.2498C10.3748 18.3044 10.6224 18.3603 10.8155 18.3876C12.5784 18.6626 17.0402 16.4596 18.0049 14.477H18.0042ZM16.5722 16.4596C16.5722 16.4869 16.517 16.5701 16.4071 16.6526C15.8006 17.148 14.9744 17.644 14.1209 18.0015C13.4046 18.3044 12.7708 18.4695 12.3028 18.4974H11.6137C12.165 18.5248 12.9639 18.3323 13.9279 17.9469C14.8919 17.5334 15.8286 16.9829 16.517 16.4043C16.5449 16.4043 16.5449 16.377 16.5722 16.377C16.5722 16.377 16.5722 16.4043 16.5995 16.4043C16.5995 16.4043 16.5995 16.4323 16.5722 16.4596ZM5.82973 9.96119C5.82973 9.93389 5.85768 9.87864 5.85768 9.85068C5.91293 9.68558 6.02279 9.43791 6.07804 9.27215C6.07804 9.35536 6.05009 9.41061 6.02279 9.49316C5.94024 9.63097 5.88498 9.79608 5.82973 9.96119Z" fill="white"/>
</g>
<defs>
<clipPath id="clip0_1265_21784">
<rect width="24" height="24" fill="white"/>
</clipPath>
</defs>
</svg>