<svg width="24" height="24" viewBox="0 0 24 24" fill="none" xmlns="http://www.w3.org/2000/svg">
<circle cx="12" cy="12" r="10" fill="#24996E"/>
<path fill-rule="evenodd" clip-rule="evenodd" d="M12.2824 6.92334C12.4969 7.09202 12.8727 7.65352 13.0817 8.06368C13.2971 8.48635 13.2441 8.76321 12.9101 8.95998C12.7926 9.02918 12.6878 9.0413 12.0999 9.05362C11.3246 9.06983 11.0684 9.02981 10.8919 8.86491C10.751 8.73328 10.7001 8.51545 10.762 8.30882C10.814 8.13529 11.2629 7.40393 11.4685 7.15795C11.7438 6.82851 12.0198 6.74898 12.2824 6.92334ZM14.0175 10.4455C14.1472 10.5041 14.3059 10.6256 14.4352 10.7653C14.6407 10.9873 16.6335 14.0314 16.862 14.4725C17.1644 15.0562 16.959 15.5567 16.3521 15.7148C16.1474 15.7681 15.5813 15.7761 12.0001 15.7761C8.41895 15.7761 7.85283 15.7681 7.64811 15.7148C7.05199 15.5595 6.84195 15.072 7.12361 14.4973C7.30198 14.1332 9.32002 11.0385 9.53647 10.797C9.75665 10.5513 9.95998 10.4257 10.2253 10.3713C10.3162 10.3527 11.1595 10.3405 12.0995 10.3443C13.807 10.351 13.8087 10.3511 14.0175 10.4455Z" fill="white"/>
</svg>
