<svg width="24" height="24" viewBox="0 0 24 24" fill="none" xmlns="http://www.w3.org/2000/svg">
<path fill-rule="evenodd" clip-rule="evenodd" d="M19.9833 8.75025V20.3325C19.9833 21.2519 19.2359 22 18.3185 22H6.66482C5.74658 22 5 21.2519 5 20.3325V3.66667C5 2.74724 5.74658 2 6.66482 2H13.3241C13.3616 2 13.3941 2.01672 13.4299 2.0209C13.4674 2.02591 13.4999 2.0326 13.5366 2.04263C13.679 2.08108 13.8115 2.14293 13.9123 2.24407L19.6492 7.98796C19.675 8.00719 19.6884 8.03895 19.7125 8.06152C19.7367 8.08325 19.7542 8.10833 19.775 8.13256C19.9042 8.27967 20 8.45687 20 8.66834C20 8.69759 19.9858 8.72183 19.9833 8.75025ZM14.1565 4.8452V7.83501H17.1412L14.1565 4.8452ZM18.3185 9.50167H13.3241C12.8641 9.50167 12.4917 9.12805 12.4917 8.66834V3.63825H6.66731L6.66481 20.3325H18.3185V9.50167ZM9.16204 13.6667H9.99444C10.4536 13.6667 10.8269 14.0395 10.8269 14.5C10.8269 14.9597 10.4536 15.3333 9.99444 15.3333H9.16204C8.70209 15.3333 8.32963 14.9597 8.32963 14.5C8.32963 14.0395 8.70209 13.6667 9.16204 13.6667ZM10.2378 15.5774C10.5627 15.2514 11.0902 15.2514 11.4151 15.5774C11.7401 15.9025 11.7401 16.43 11.4151 16.7559L10.5827 17.5884C10.4202 17.7514 10.2069 17.8333 9.99445 17.8333C9.78114 17.8333 9.56783 17.7514 9.40534 17.5884C9.08038 17.2633 9.08038 16.7359 9.40534 16.4107L10.2378 15.5774ZM12.4933 10.3333C12.9525 10.3333 13.3257 10.7061 13.3257 11.1667V12C13.3257 12.4597 12.9525 12.8325 12.4933 12.8325C12.0334 12.8325 11.6609 12.4597 11.6609 12V11.1667C11.6609 10.7061 12.0334 10.3333 12.4933 10.3333ZM12.4933 16.1667C12.9525 16.1667 13.3257 16.5395 13.3257 17V17.8333C13.3257 18.293 12.9525 18.6658 12.4933 18.6658C12.0334 18.6658 11.6609 18.293 11.6609 17.8333V17C11.6609 16.5395 12.0334 16.1667 12.4933 16.1667ZM13.5674 15.5774C13.8923 15.2514 14.4198 15.2514 14.7448 15.5774L15.5772 16.4107C15.9021 16.7359 15.9021 17.2633 15.5772 17.5884C15.4147 17.7514 15.2014 17.8333 14.9889 17.8333C14.7756 17.8333 14.5623 17.7514 14.3998 17.5884L13.5674 16.7559C13.2424 16.43 13.2424 15.9025 13.5674 15.5774ZM14.9889 15.3333C14.5289 15.3333 14.1565 14.9597 14.1565 14.5C14.1565 14.0395 14.5289 13.6667 14.9889 13.6667H15.8213C16.2804 13.6667 16.6537 14.0395 16.6537 14.5C16.6537 14.9597 16.2804 15.3333 15.8213 15.3333H14.9889ZM14.7448 13.4218C14.5823 13.5848 14.369 13.6667 14.1565 13.6667C13.9432 13.6667 13.7299 13.5848 13.5674 13.4218C13.2424 13.0966 13.2424 12.5692 13.5674 12.2441L14.3998 11.4107C14.7248 11.0848 15.2522 11.0848 15.5772 11.4107C15.9021 11.7359 15.9021 12.2633 15.5772 12.5884L14.7448 13.4218ZM10.8269 13.6667C10.6135 13.6667 10.4002 13.5848 10.2378 13.4218L9.40534 12.5884C9.08038 12.2633 9.08038 11.7359 9.40534 11.4107C9.73114 11.0848 10.2577 11.0848 10.5827 11.4107L11.4151 12.2441C11.7401 12.5692 11.7401 13.0966 11.4151 13.4218C11.2526 13.5848 11.0393 13.6667 10.8269 13.6667Z" fill="#6B7084"/>
</svg>
