<svg width="24" height="24" viewBox="0 0 24 24" fill="none" xmlns="http://www.w3.org/2000/svg">
<path fill-rule="evenodd" clip-rule="evenodd" d="M20.4225 21.7559C20.2601 21.9181 20.0466 22 19.834 22C19.6205 22 19.4071 21.9181 19.2447 21.7559L18.1825 20.6944C17.6869 20.987 17.1169 21.1667 16.5008 21.1667C14.6626 21.1667 13.1667 19.6713 13.1667 17.8333C13.1667 15.9953 14.6626 14.5 16.5008 14.5C18.339 14.5 19.834 15.9953 19.834 17.8333C19.834 18.4493 19.654 19.0202 19.3611 19.5159L20.4225 20.5774C20.7481 20.9025 20.7481 21.43 20.4225 21.7559ZM16.5008 16.1667C15.5817 16.1667 14.8333 16.9139 14.8333 17.8333C14.8333 18.7528 15.5817 19.5 16.5008 19.5C17.4191 19.5 18.1666 18.7528 18.1666 17.8333C18.1666 16.9139 17.4191 16.1667 16.5008 16.1667ZM19.0003 12C19.0003 12.4605 18.6269 12.8333 18.1666 12.8333C17.707 12.8333 17.4124 12.4539 17.4124 11.9941V9.50167H12.333C11.8735 9.50167 11.5529 9.11133 11.5529 8.65079V3.63574H5.69339L5.6666 20.3333H11.5001C11.9597 20.3333 12.333 20.7061 12.333 21.1667C12.333 21.6264 11.9597 22 11.5001 22H5.6666C4.74667 22 4 21.2519 4 20.3333V3.66667C4 2.74808 4.74667 2 5.6666 2H12.333C12.3514 2 12.3665 2.00919 12.3841 2.01003C12.4603 2.01505 12.5339 2.03009 12.6059 2.05517C12.6319 2.06436 12.6578 2.07105 12.6829 2.08275C12.7683 2.12287 12.8478 2.17302 12.9173 2.24072C12.919 2.24239 12.9215 2.24407 12.9232 2.24574L18.6654 7.9888C18.6922 8.00719 18.7056 8.03979 18.7299 8.06152C18.7533 8.08325 18.7709 8.10833 18.7918 8.13256C18.9216 8.27967 19.017 8.45687 19.017 8.66834C19.017 8.69843 19.0028 8.72267 19.0003 8.75192V12ZM13.1667 4.84604V7.835H16.1551L13.1667 4.84604Z" fill="#6B7084"/>
</svg>
