<svg width="24" height="24" viewBox="0 0 24 24" fill="none" xmlns="http://www.w3.org/2000/svg">
<path fill-rule="evenodd" clip-rule="evenodd" d="M20 17.1999V18.7997H19.0864C19.0104 19.0902 18.8952 19.363 18.7464 19.6157L19.3936 20.2623L18.2624 21.3936L17.6144 20.7469C17.3624 20.8954 17.0904 21.0109 16.8008 21.0863L16.8 22.0002L15.2 21.9994L15.2008 21.0863C14.9096 21.0109 14.6376 20.8954 14.3848 20.7461L13.7096 21.4217L12.5784 20.2904L13.2536 19.6149C13.1048 19.3622 12.9896 19.0902 12.9144 18.7997H12V17.1999H12.9144C12.9896 16.9095 13.1048 16.6375 13.2536 16.3856L12.6056 15.7373L13.7368 14.6061L14.3856 15.2535C14.6376 15.1043 14.9104 14.9896 15.2008 14.9141V13.9995H16.8008V14.9141C17.0912 14.9896 17.3632 15.1051 17.6152 15.2535L18.2336 14.6349L19.3664 15.7646L18.7472 16.3856C18.896 16.6375 19.0112 16.9095 19.0864 17.1999H20ZM16 16.3998C15.1176 16.3998 14.4008 17.1179 14.4008 17.9996C14.4008 18.8822 15.1176 19.5994 16 19.5994C16.8816 19.5994 17.6 18.8822 17.6 17.9996C17.6 17.1179 16.8816 16.3998 16 16.3998ZM18.4 11.5996C18.4 12.0417 18.0424 12.3996 17.6 12.3996C17.1576 12.3996 16.8 12.0417 16.8 11.5996V9.20074H12C11.5576 9.20074 11.2 8.84291 11.2 8.40083V3.56852H5.6V19.5995H9.6C10.0424 19.5995 10.4 19.9581 10.4 20.3994C10.4 20.8415 10.0424 21.1993 9.6 21.1993H5.6C4.7184 21.1993 4 20.482 4 19.5995V3.59981C4 2.71727 4.7184 2 5.6 2H12C12.0184 2 12.0336 2.00883 12.052 2.01043C12.1232 2.01524 12.192 2.02888 12.2592 2.05215C12.2856 2.06098 12.3112 2.06739 12.3368 2.07943C12.4192 2.11794 12.4968 2.16608 12.564 2.23267C12.5648 2.23347 12.5656 2.23347 12.5664 2.23427L18.0792 7.74856C18.104 7.76621 18.1168 7.79669 18.1392 7.81755C18.1632 7.83922 18.1808 7.86489 18.2016 7.88896C18.3248 8.03017 18.4152 8.19945 18.4152 8.40083C18.4152 8.42892 18.4024 8.45138 18.4 8.47866V11.5996ZM12.8 4.73112V7.60099H15.6688L12.8 4.73112Z" fill="#6B7084"/>
</svg>
