<svg viewBox="0 0 24 24" fill="none" xmlns="http://www.w3.org/2000/svg">
<path fill-rule="evenodd" clip-rule="evenodd" d="M20 8.66778C20 8.69704 19.9867 8.72128 19.9833 8.7497V20.3333C19.9833 21.2527 19.2368 22 18.3185 22H6.66482C5.74658 22 5 21.2527 5 20.3333V3.66674C5 2.74811 5.74658 2 6.66482 2H13.3241C13.3616 2 13.3932 2.01672 13.4291 2.02173C13.4674 2.02675 13.5007 2.03344 13.5374 2.04347C13.6799 2.08192 13.8124 2.14377 13.9132 2.24491L19.6492 7.98738C19.675 8.0066 19.6884 8.03837 19.7117 8.05926C19.7367 8.08267 19.7559 8.10858 19.7775 8.13449C19.9058 8.28077 20 8.45714 20 8.66778ZM6.66481 20.3333H18.3185V9.50115H13.3241C12.865 9.50115 12.4917 9.12835 12.4917 8.66778V3.63581H6.66814L6.66481 20.3333ZM14.1565 4.84616V7.83441H17.142L14.1565 4.84616Z" fill="currentColor"/>
</svg>