<svg width="24" height="24" viewBox="0 0 24 24" fill="none" xmlns="http://www.w3.org/2000/svg">
<path fill-rule="evenodd" clip-rule="evenodd" d="M18.3335 22H6.66648C5.74699 22 5 21.2522 5 20.3329V3.66625C5 2.74697 5.74699 2 6.66648 2H15.833C15.8388 2 15.843 2.00251 15.8489 2.00251C15.9519 2.00502 16.0549 2.02426 16.152 2.06441C16.2533 2.10623 16.3463 2.16729 16.4225 2.24425L19.7555 5.57675C19.8325 5.6537 19.8936 5.74571 19.9355 5.84776C19.9782 5.94981 20 6.05855 20 6.16646V20.3329C20 21.2522 19.253 22 18.3335 22ZM11.6668 3.6378H6.6983L6.66648 20.3329L11.7229 20.348V18.9444C11.691 18.8565 11.6668 18.7654 11.6668 18.6667C11.6668 18.568 11.691 18.4759 11.7229 18.3881V17.8335H10.8335C10.3729 17.8335 10.0003 17.4605 10.0003 16.9996C10.0003 16.5395 10.3729 16.1665 10.8335 16.1665H11.7229V15.6119C11.691 15.524 11.6668 15.432 11.6668 15.3333C11.6668 15.2346 11.691 15.1426 11.7229 15.0548V14.4994H10.8335C10.3729 14.4994 10.0003 14.1271 10.0003 13.6662C10.0003 13.2062 10.3729 12.8331 10.8335 12.8331H11.7229V12.2785C11.691 12.1907 11.6668 12.0987 11.6668 12C11.6668 11.9013 11.691 11.8093 11.7229 11.7214V9.49978H10.8335C10.3729 9.49978 10.048 9.11668 10.048 8.65662V5.31074C10.048 4.85068 10.3729 4.5002 10.8335 4.5002H11.6668V3.6378ZM11.6668 7.83355H13.3332V6.16646H11.6668V7.83355ZM18.4223 6.60058L15.4595 3.6378H13.3332V4.5002H14.1665C14.6271 4.5002 14.9997 4.87243 14.9997 5.33333V8.66666C14.9997 9.12672 14.6271 9.49978 14.1665 9.49978H13.3332V11.166H14.1665C14.6271 11.166 14.9997 11.5399 14.9997 12C14.9997 12.4601 14.6271 12.8331 14.1665 12.8331H13.3332V14.4994H14.1665C14.6271 14.4994 14.9997 14.8733 14.9997 15.3333C14.9997 15.7934 14.6271 16.1665 14.1665 16.1665H13.3332V17.8335H14.1665C14.6271 17.8335 14.9997 18.2066 14.9997 18.6667C14.9997 19.1267 14.6271 19.4998 14.1665 19.4998H13.3332V20.3521L18.4223 20.3672V6.60058Z" fill="#6B7084"/>
</svg>
