<svg viewBox="0 0 24 24" fill="none" xmlns="http://www.w3.org/2000/svg">
<path fill-rule="evenodd" clip-rule="evenodd" d="M19.9842 7.91357V20.5548C19.9842 21.3514 19.3384 22 18.546 22H6.43817C5.64576 22 5 21.3514 5 20.5548V3.4435C5 2.64778 5.64576 2 6.43817 2H14.1573C14.1956 2 14.2281 2.01672 14.2648 2.02173C14.3015 2.02591 14.3331 2.0326 14.369 2.04263C14.5123 2.08108 14.6448 2.14293 14.7464 2.24407L19.65 7.15296C19.6759 7.17135 19.6892 7.20394 19.7134 7.22484C19.7375 7.24824 19.7559 7.27332 19.7775 7.29923C19.9058 7.4455 20 7.6227 20 7.8325C20 7.86175 19.9867 7.88516 19.9842 7.91357ZM14.9897 4.84437V6.99916H17.142L14.9897 4.84437ZM18.3194 8.66583H14.1573C13.6974 8.66583 13.3249 8.29305 13.3249 7.8325V3.63741H6.66815L6.66565 20.3333H18.3194V8.66583ZM8.33046 10.3333H16.6545C17.1145 10.3333 17.4869 10.7061 17.4869 11.1667V17.8333C17.4869 18.293 17.1145 18.6667 16.6545 18.6667H8.33046C7.86968 18.6667 7.49805 18.293 7.49805 17.8333V11.1667C7.49805 10.7061 7.86968 10.3333 8.33046 10.3333ZM15.8221 12H12.4925V13.6667H15.8221V12ZM15.8221 15.3333H12.4925V17H15.8221V15.3333ZM9.16286 17H10.8277V15.3333H9.16286V17ZM9.16286 13.6667H10.8277V12H9.16286V13.6667Z" fill="currentColor"/>
</svg>