<svg width="24" height="24" viewBox="0 0 24 24" fill="none" xmlns="http://www.w3.org/2000/svg">
<path fill-rule="evenodd" clip-rule="evenodd" d="M19.9105 8.32748C19.9264 8.36421 19.9281 8.40594 19.9389 8.44518C19.9649 8.52531 20 8.60211 20 8.6906C20 8.71981 19.9858 8.74402 19.9833 8.7724V12.0063C19.9833 12.467 19.6102 12.8393 19.151 12.8393C18.691 12.8393 18.3187 12.467 18.3187 12.0063V9.49447H13.3837C12.9237 9.49447 12.5473 9.11966 12.5473 8.65971V3.66534H6.66537V20.3205H13.3243C13.7835 20.3205 14.1566 20.6936 14.1566 21.1536C14.1566 21.6127 13.7835 21.9858 13.3243 21.9858H6.66537C5.74695 21.9858 5 21.2387 5 20.3205V3.66534C5 2.74711 5.74695 2 6.66537 2H13.3243C13.5911 2 13.8178 2.13356 13.9701 2.3289L19.6487 8.0111C19.6504 8.01194 19.6504 8.01361 19.652 8.01528C19.7357 8.07955 19.8034 8.15719 19.857 8.24901C19.8745 8.27656 19.8954 8.29826 19.9105 8.32748ZM14.1566 4.87074V7.85751H17.141L14.1566 4.87074ZM13.5677 17.5925C13.2423 17.2669 13.2423 16.7393 13.5677 16.4146L16.0662 13.9162C16.2167 13.7651 16.4217 13.6816 16.635 13.6758C16.6417 13.6758 16.6467 13.6724 16.6534 13.6724H16.6542C16.7655 13.6724 16.8742 13.695 16.9754 13.7376C17.054 13.7701 17.1209 13.8235 17.1854 13.8778C17.2029 13.8928 17.2263 13.8995 17.2431 13.9162L19.739 16.4146C20.0644 16.7402 20.0644 17.2677 19.739 17.5925C19.5768 17.7552 19.3635 17.8362 19.151 17.8362C18.9377 17.8362 18.7244 17.7552 18.5621 17.5925L17.4856 16.5148V21.1669C17.4856 21.6269 17.1134 22 16.6534 22C16.1942 22 15.893 21.6411 15.893 21.1811V16.4438L14.7446 17.5925C14.4201 17.9172 13.8931 17.9172 13.5677 17.5925Z" fill="#6B7084"/>
</svg>
