<svg viewBox="0 0 24 24" fill="none" xmlns="http://www.w3.org/2000/svg">
<path fill-rule="evenodd" clip-rule="evenodd" d="M19.9891 17.0517C19.9849 17.1275 19.9699 17.2 19.9448 17.2717C19.9356 17.2983 19.9289 17.3242 19.9172 17.35C19.877 17.4367 19.826 17.5192 19.7557 17.5892L15.5895 21.755C15.5125 21.8325 15.4214 21.8933 15.3193 21.9358C15.2181 21.9775 15.1093 22 14.9997 22H6.6715C5.75042 22 5 21.25 5 20.3283V4.505C5 3.58333 5.75042 2.83333 6.6715 2.83333H8.36057C8.36057 2.37333 8.70692 2 9.16704 2H12.5C12.9601 2 13.3332 2.37333 13.3332 2.83333H18.3285C19.2496 2.83333 20 3.58333 20 4.505V17C20 17.0183 19.9908 17.0333 19.9891 17.0517ZM15.833 19.155L17.1548 17.8333H15.833V19.155ZM11.7069 3.86583C11.6902 3.80083 11.6668 3.7375 11.6668 3.66667H10.0003V8.15167L10.4604 7.92083C10.5775 7.8625 10.7055 7.83333 10.8335 7.83333C10.9607 7.83333 11.0887 7.8625 11.2058 7.92083L11.7069 7.83333V3.86583ZM13.3332 4.5V9.5C13.3332 9.78917 13.1835 10.0575 12.9384 10.2092C12.8045 10.2917 12.6523 10.3333 12.5 10.3333C12.3728 10.3333 12.2448 10.3042 12.1269 10.2458L10.8335 9.59833L9.53932 10.2458C9.28081 10.3742 8.97462 10.3608 8.72867 10.2092C8.48271 10.0575 8.36057 9.78917 8.36057 9.5V4.5H6.6715L6.66648 20.3283L14.2167 20.3325V17C14.2167 16.54 14.5396 16.1667 14.9997 16.1667H18.3996V4.5H13.3332Z" fill="currentColor"/>
</svg>