<svg viewBox="0 0 24 24" fill="none" xmlns="http://www.w3.org/2000/svg">
<path fill-rule="evenodd" clip-rule="evenodd" d="M20.4295 18.6597L19.4741 19.6382L19.7006 21.0332C19.7516 21.3482 19.6187 21.6649 19.3579 21.8484C19.2149 21.9489 19.0469 22 18.8781 22C18.7393 22 18.6006 21.9657 18.4743 21.8961L17.3333 21.2644L16.1915 21.8961C15.9123 22.0503 15.5696 22.0318 15.308 21.8475C15.0472 21.664 14.9143 21.3474 14.9661 21.0323L15.1935 19.6382L14.2372 18.6597C14.019 18.436 13.9438 18.1101 14.0433 17.8135C14.1419 17.5169 14.3985 17.3008 14.707 17.2539L15.9951 17.057L16.5794 15.812C16.7165 15.5204 17.0107 15.3336 17.3333 15.3336C17.6568 15.3336 17.9511 15.5204 18.0882 15.8128L18.6716 17.057L19.9597 17.2539C20.2682 17.3008 20.5248 17.5169 20.6234 17.8135C20.7229 18.1101 20.6477 18.436 20.4295 18.6597ZM17.9795 18.6371C17.7053 18.5952 17.4696 18.4184 17.3517 18.1671L17.3333 18.1277L17.315 18.1679C17.1971 18.4184 16.9614 18.5952 16.6864 18.6371L16.5635 18.6555L16.6797 18.7745C16.8644 18.9638 16.9488 19.2294 16.9062 19.4908L16.887 19.6064L16.9304 19.5829C17.1812 19.4439 17.4863 19.4439 17.7371 19.5829L17.7797 19.6064L17.7613 19.4908C17.7187 19.2294 17.8023 18.9638 17.987 18.7745L18.1032 18.6555L17.9795 18.6371ZM19.0001 12C19.0001 12.46 18.6273 12.8336 18.1667 12.8336C17.707 12.8336 17.3333 12.46 17.3333 12V9.5H12.333C11.8733 9.5 11.5347 9.18582 11.5347 8.72587V3.66639H5.66677L5.68349 20.4551H11.5347C11.9953 20.4551 12.333 20.7064 12.333 21.1672C12.333 21.6272 11.9602 22 11.4996 22H5.66677C4.74729 22 4 21.2527 4 20.3336V3.66639C4 2.74732 4.74729 2 5.66677 2H12.333C12.3506 2 12.3648 2.00922 12.3815 2.01005C12.4592 2.01424 12.5336 2.02932 12.6072 2.05529C12.6331 2.06451 12.6582 2.07121 12.6824 2.0821C12.7694 2.12232 12.8521 2.17342 12.9223 2.2438L18.6649 7.98693C18.6917 8.00536 18.705 8.0372 18.7285 8.05898C18.7527 8.0816 18.7719 8.10757 18.7928 8.13271C18.9215 8.27932 19.0168 8.4561 19.0168 8.66639C19.0168 8.69571 19.0035 8.72084 19.0001 8.74933V12ZM13.1664 4.84517V7.83277H16.1547L13.1664 4.84517Z" fill="currentColor"/>
</svg>