<svg width="24" height="24" viewBox="0 0 24 24" fill="none" xmlns="http://www.w3.org/2000/svg">
<path fill-rule="evenodd" clip-rule="evenodd" d="M21.9833 7.91608V17.8333C21.9833 18.7528 21.2359 19.5 20.3176 19.5H16.9871C16.528 19.5 16.1547 19.1272 16.1547 18.6667C16.1547 18.207 16.528 17.8333 16.9871 17.8333H20.3176V8.66667H16.1547C15.6947 8.66667 15.3222 8.29388 15.3222 7.83333V3.63741H9.50021C9.04025 3.63741 8.66111 3.29388 8.66111 2.83333C8.66111 2.37362 9.03441 2 9.49354 2H16.1547C16.173 2 16.188 2.00919 16.2063 2.01087C16.2821 2.01588 16.3546 2.03009 16.4263 2.05517C16.453 2.06436 16.4788 2.07105 16.5046 2.08275C16.5904 2.12287 16.6721 2.17385 16.7421 2.24323C16.7429 2.24407 16.7429 2.24407 16.7438 2.2449L21.6484 7.15379C21.675 7.17218 21.6875 7.20395 21.7117 7.22568C21.7359 7.24824 21.755 7.27416 21.7767 7.30007C21.905 7.44634 22 7.62354 22 7.83333C22 7.86259 21.9858 7.88766 21.9833 7.91608ZM16.9871 4.8452V7H19.1402L16.9871 4.8452ZM9.54354 4.51087C9.61937 4.51505 9.69353 4.53009 9.76519 4.55517C9.79185 4.56436 9.81851 4.57105 9.84351 4.58359C9.92934 4.62287 10.011 4.67386 10.0802 4.74323C10.081 4.74407 10.0818 4.74407 10.0827 4.7449L14.9873 9.6538C15.0139 9.67219 15.0272 9.70478 15.0514 9.72652C15.0756 9.74825 15.0939 9.77416 15.1147 9.79923C15.2439 9.94551 15.3389 10.1227 15.3389 10.3333C15.3389 10.3634 15.3256 10.3877 15.3222 10.4161V20.3333C15.3222 21.2528 14.5756 22 13.6574 22H3.66569C2.74744 22 2 21.2528 2 20.3333V6.16667C2 5.24725 2.74744 4.50084 3.66569 4.50084H9.49354C9.51104 4.50084 9.52604 4.5092 9.54354 4.51087ZM10.3268 7.3452V9.5H12.48L10.3268 7.3452ZM8.66112 10.3333V6.16667H3.6657V20.3333H13.6574V11.1667H9.49355C9.03442 11.1667 8.66112 10.7939 8.66112 10.3333Z" fill="#6B7084"/>
</svg>
