<svg width="24" height="24" viewBox="0 0 24 24" fill="none" xmlns="http://www.w3.org/2000/svg">
<path fill-rule="evenodd" clip-rule="evenodd" d="M21.9617 11.3738C21.9667 11.4114 21.9833 11.4448 21.9833 11.4842V20.5631C21.9833 21.356 21.33 22 20.5267 22H11.7838C10.9805 22 10.3263 21.356 10.3263 20.5631V18.6712C10.3263 18.212 10.6996 17.839 11.1588 17.839C11.6188 17.839 11.9921 18.212 11.9921 18.6712L12.0004 20.405H20.3334L20.3192 12.0136H17.8202C17.3602 12.0136 16.9877 11.6414 16.9877 11.1814V8.68478H15.3236C14.8636 8.68478 14.4903 8.31259 14.4903 7.85342C14.4903 7.39341 14.8636 7.02038 15.3236 7.02038H17.8202C17.8385 7.02038 17.8535 7.02958 17.8718 7.03126C17.9477 7.03544 18.0202 7.05049 18.0927 7.07558C18.1185 7.08478 18.1443 7.09148 18.1693 7.10319C18.256 7.14333 18.3385 7.19435 18.4093 7.26461L21.6492 10.5022C21.8617 10.6536 22 10.9012 22 11.1814C22 11.25 21.9767 11.311 21.9617 11.3738ZM20.3184 6.16142C19.8584 6.16142 19.4859 5.7884 19.4859 5.32838C19.4859 5.09922 19.2993 4.9127 19.0693 4.9127C19.0626 4.9127 19.0576 4.90936 19.051 4.90852C19.0451 4.90936 19.0401 4.9127 19.0335 4.9127H17.2752C17.4635 5.23136 17.4352 5.64286 17.161 5.9172C16.9985 6.07946 16.7852 6.16142 16.5719 6.16142C16.3594 6.16142 16.1461 6.07946 15.9836 5.9172L14.7336 4.66932C14.7228 4.65844 14.7195 4.64339 14.7095 4.63251C14.647 4.56393 14.5911 4.48782 14.5545 4.40084C14.5128 4.30047 14.4895 4.19174 14.4895 4.0805C14.4895 3.96926 14.5128 3.86053 14.5545 3.76017C14.5911 3.67235 14.647 3.59707 14.7095 3.52849C14.7195 3.51678 14.7228 3.50256 14.7336 3.49169L15.9836 2.24297C16.3086 1.91929 16.836 1.91845 17.161 2.24381C17.4352 2.5173 17.4635 2.9288 17.2752 3.2483H19.0335C19.0401 3.2483 19.0451 3.25165 19.051 3.25165C19.0576 3.25165 19.0626 3.2483 19.0693 3.2483C20.2167 3.2483 21.1509 4.1817 21.1509 5.32838C21.1509 5.7884 20.7784 6.16142 20.3184 6.16142ZM13.6578 6.49095V15.5699C13.6578 16.3628 13.0037 17.0068 12.1996 17.0068H3.45744C2.65414 17.0068 2 16.3628 2 15.5699V3.46575C2 2.67286 2.65414 2.02801 3.45744 2.02801H9.49385C9.51135 2.02801 9.52635 2.03638 9.54385 2.03805C9.61968 2.04223 9.69385 2.05729 9.76634 2.08238C9.79218 2.09158 9.81801 2.09827 9.84301 2.10998C9.92884 2.15012 10.0097 2.20031 10.0797 2.26889C10.0805 2.27056 10.0822 2.27056 10.083 2.27224L13.322 5.50987C13.5354 5.66042 13.6737 5.90799 13.6737 6.18818C13.6737 6.25593 13.6503 6.31615 13.6353 6.37888C13.6403 6.41735 13.6578 6.4508 13.6578 6.49095ZM11.9929 7.02039H9.49385C9.03387 7.02039 8.66139 6.6482 8.66139 6.18819V3.69159H3.66493L3.66743 15.3867H12.0004L11.9929 7.02039ZM3.66493 17.839C4.12491 17.839 4.49739 18.212 4.49739 18.6712C4.49739 18.9012 4.68405 19.0877 4.91404 19.0877C4.92071 19.0877 4.92571 19.0911 4.93237 19.0911C4.93904 19.0911 4.94404 19.0877 4.95071 19.0877H6.70897C6.52064 18.7682 6.54897 18.3575 6.82313 18.0832C7.14895 17.7579 7.67559 17.7579 8.00058 18.0832L9.2497 19.3311C9.32636 19.408 9.38719 19.5 9.42969 19.6012C9.47052 19.6999 9.49052 19.8045 9.49135 19.909C9.49135 19.9132 9.49385 19.9157 9.49385 19.9191V19.9199C9.49385 20.0278 9.47135 20.1357 9.42969 20.2377C9.38719 20.3398 9.32636 20.4318 9.2497 20.5079L8.00058 21.7566C7.83809 21.9189 7.62476 22 7.41227 22C7.19895 22 6.98646 21.9189 6.82313 21.7566C6.54897 21.4823 6.52064 21.0708 6.70897 20.7521H4.95071C4.94404 20.7521 4.93904 20.7488 4.93237 20.7479C4.92571 20.7488 4.92071 20.7521 4.91404 20.7521C3.76659 20.7521 2.83246 19.8187 2.83246 18.6712C2.83246 18.212 3.20495 17.839 3.66493 17.839Z" fill="#6B7084"/>
</svg>
