<svg width="24" height="24" viewBox="0 0 24 24" fill="none" xmlns="http://www.w3.org/2000/svg">
<path fill-rule="evenodd" clip-rule="evenodd" d="M17.6785 18.6665L19.5891 20.5773C19.9148 20.9033 19.9148 21.4308 19.5891 21.7559C19.4267 21.9189 19.214 22 19.0005 22C18.787 22 18.5744 21.9189 18.4111 21.7559L16.5006 19.8451L14.5892 21.7559C14.4268 21.9189 14.2133 22 14.0006 22C13.7871 22 13.5736 21.9189 13.4112 21.7559C13.0855 21.4308 13.0855 20.9033 13.4112 20.5773L15.3218 18.6665L13.4112 16.7557C13.0855 16.4306 13.0855 15.9031 13.4112 15.578C13.7369 15.252 14.2643 15.252 14.5892 15.578L16.5006 17.4888L18.4111 15.578C18.7368 15.252 19.2642 15.252 19.5891 15.578C19.9148 15.9031 19.9148 16.4306 19.5891 16.7557L17.6785 18.6665ZM19.0005 12.8329C19.0005 13.2935 18.6271 13.6663 18.1666 13.6663C17.707 13.6663 17.3336 13.2935 17.3336 12.8329V9.50199H12.3337C11.8732 9.50199 11.5526 9.11247 11.5526 8.6519V3.63664H5.69203L5.66691 20.3333H10.6668C11.1273 20.3333 11.5007 20.7069 11.5007 21.1666C11.5007 21.6272 11.1273 22 10.6668 22H5.66691C4.74764 22 4 21.2527 4 20.3333V3.66674C4 2.74727 4.74764 2 5.66691 2H12.3337C12.3505 2 12.3655 2.00919 12.3823 2.01003C12.4601 2.01421 12.5346 2.03009 12.6083 2.05517C12.6334 2.06436 12.6585 2.07105 12.682 2.08192C12.7691 2.12204 12.8511 2.17303 12.9206 2.24324C12.9214 2.24324 12.9223 2.24408 12.9231 2.24491L18.6656 7.98821C18.6924 8.00744 18.7058 8.0392 18.7301 8.06177C18.7535 8.0835 18.7711 8.10858 18.792 8.13282C18.9218 8.27993 19.0173 8.45714 19.0173 8.66862C19.0173 8.69787 19.003 8.72211 19.0005 8.75053V12.8329ZM13.1667 4.84532V7.83525H16.1556L13.1667 4.84532Z" fill="#6B7084"/>
</svg>
