<svg viewBox="0 0 24 24" fill="none" xmlns="http://www.w3.org/2000/svg">
<path fill-rule="evenodd" clip-rule="evenodd" d="M19.8333 19.5H18.1675V21.1667C18.1675 21.6264 17.7942 22 17.3342 22C16.8742 22 16.5008 21.6264 16.5008 21.1667V19.5H14.8333C14.3733 19.5 14 19.1272 14 18.6667C14 18.2061 14.3733 17.8333 14.8333 17.8333H16.5008V16.1658C16.5008 15.7053 16.8742 15.3325 17.3342 15.3325C17.7942 15.3325 18.1675 15.7053 18.1675 16.1658V17.8333H19.8333C20.2933 17.8333 20.6667 18.2061 20.6667 18.6667C20.6667 19.1272 20.2933 19.5 19.8333 19.5ZM19 12C19 12.4605 18.6267 12.8333 18.1667 12.8333C17.7067 12.8333 17.3333 12.4605 17.3333 12V9.5H12.3333C11.8733 9.5 11.5 9.12721 11.5 8.66667V3.63574H5.66667V20.3333H11.5C11.96 20.3333 12.3333 20.7061 12.3333 21.1667C12.3333 21.6264 11.96 22 11.5 22H5.66667C4.7475 22 4 21.2519 4 20.3333V3.66667C4 2.74808 4.7475 2 5.66667 2H12.3333C12.3508 2 12.3658 2.00919 12.3842 2.01087C12.46 2.01505 12.5333 2.03009 12.605 2.05517C12.6317 2.06436 12.6583 2.07105 12.6833 2.08275C12.7675 2.12203 12.8467 2.17218 12.9158 2.23989C12.9183 2.24239 12.9208 2.24323 12.9233 2.24574L18.665 7.98713C18.6917 8.00552 18.7042 8.03728 18.7283 8.05901C18.7525 8.08158 18.7717 8.10749 18.7933 8.1334C18.9217 8.27967 19.0167 8.45687 19.0167 8.66667C19.0167 8.69592 19.0025 8.721 19 8.74941V12ZM13.1667 4.8452V7.83334H16.155L13.1667 4.8452Z" fill="currentColor"/>
</svg>