<svg width="24" height="24" viewBox="0 0 24 24" fill="none" xmlns="http://www.w3.org/2000/svg">
<path fill-rule="evenodd" clip-rule="evenodd" d="M20 8.66778C20 8.69704 19.9858 8.72211 19.9833 8.75053V20.3333C19.9833 21.2519 19.2368 22 18.3185 22H6.66482C5.74658 22 5 21.2519 5 20.3333V3.66674C5 2.74727 5.74658 2 6.66482 2H13.3241C13.3616 2 13.3932 2.01588 13.4299 2.0209C13.4674 2.02591 13.5007 2.0326 13.5382 2.04263C13.6799 2.08192 13.8115 2.14293 13.9123 2.24408L19.6492 7.98821C19.6759 8.00744 19.6892 8.0392 19.7134 8.06094C19.7367 8.08267 19.7542 8.10774 19.775 8.13198C19.9042 8.2791 20 8.4563 20 8.66778ZM6.66482 20.3333H18.3185V9.50115H13.3241C12.8641 9.50115 12.4917 9.12835 12.4917 8.66778V3.63748H6.66732L6.66482 20.3333ZM14.1565 4.84532V7.83525H17.142L14.1565 4.84532ZM12.4925 15.4568V11.1662C12.4925 10.8335 12.6908 10.5318 12.9966 10.4005C13.3016 10.2693 13.6565 10.3328 13.8982 10.5619L16.3954 12.9366C16.7287 13.2542 16.742 13.7808 16.4254 14.1152C16.1088 14.4495 15.5822 14.4621 15.2489 14.1453L14.1573 13.1071V17.4186C14.1573 18.5863 13.0599 19.4999 11.6601 19.4999C10.2594 19.4999 9.16287 18.5863 9.16287 17.4186C9.16287 16.2492 10.2594 15.3331 11.6601 15.3331C11.9551 15.3331 12.2317 15.3815 12.4925 15.4568ZM10.8277 17.4186C10.8277 17.5615 11.1518 17.8332 11.6601 17.8332C12.1684 17.8332 12.4925 17.5615 12.4925 17.4186C12.4925 17.2715 12.1759 16.9998 11.6601 16.9998C11.1435 16.9998 10.8277 17.2715 10.8277 17.4186Z" fill="#6B7084"/>
</svg>
