<svg viewBox="0 0 24 24" fill="none" xmlns="http://www.w3.org/2000/svg">
<path fill-rule="evenodd" clip-rule="evenodd" d="M19.8333 18.6809H15.1792L16.2558 19.7577C16.5817 20.0833 16.5817 20.6117 16.2558 20.9365C16.0933 21.0993 15.88 21.1802 15.6667 21.1802C15.4533 21.1802 15.24 21.0993 15.0775 20.9365L12.58 18.4379C12.5025 18.3611 12.4408 18.2693 12.3975 18.1666C12.365 18.0873 12.3542 18.0005 12.3467 17.9137C12.345 17.8903 12.3333 17.8711 12.3333 17.8477C12.3333 17.8469 12.3333 17.8469 12.3333 17.8469C12.3333 17.8469 12.3333 17.8469 12.3333 17.8461C12.3333 17.735 12.3558 17.6265 12.3983 17.5255C12.4292 17.4512 12.48 17.3894 12.53 17.3285C12.5483 17.306 12.5575 17.2776 12.5775 17.2575L15.0775 14.7582C15.4033 14.4326 15.93 14.4326 16.2558 14.7582C16.5817 15.0837 16.5817 15.6113 16.2558 15.9369L15.1775 17.0138H19.8333C20.2933 17.0138 20.6667 17.3869 20.6667 17.8477C20.6667 18.3077 20.2933 18.6809 19.8333 18.6809ZM19.0167 8.69588C19.0167 8.72594 19.0025 8.75015 19 8.77853V12.8473C19 13.3073 18.6267 13.6804 18.1667 13.6804C17.7067 13.6804 17.3333 13.3073 17.3333 12.8473V9.48643H12.3333C11.8733 9.48643 11.5 9.15669 11.5 8.69588V3.66708H5.66667V20.3329H10.6667C11.1267 20.3329 11.5 20.7069 11.5 21.1669C11.5 21.6268 11.1267 22 10.6667 22H5.66667C4.7475 22 4 21.2529 4 20.3329V3.66708C4 2.74798 4.7475 2 5.66667 2H12.3333C12.6 2 12.8275 2.13357 12.98 2.32891L18.6658 8.01636C18.6667 8.0172 18.6667 8.01803 18.6675 8.01887C18.7525 8.08482 18.8217 8.16329 18.8758 8.25678C18.8925 8.28266 18.9133 8.30353 18.9267 8.33191C18.9433 8.36948 18.9458 8.41205 18.9567 8.45296C18.9817 8.53226 19.0167 8.60823 19.0167 8.69588ZM13.1667 4.87336V7.86275H16.155L13.1667 4.87336Z" fill="currentColor"/>
</svg>