<svg width="24" height="24" viewBox="0 0 24 24" fill="none" xmlns="http://www.w3.org/2000/svg">
<path fill-rule="evenodd" clip-rule="evenodd" d="M20.4225 18.4225L18.7559 20.0892C18.5936 20.2522 18.3801 20.3333 18.1667 20.3333C17.9532 20.3333 17.7406 20.2522 17.5774 20.0892C17.2518 19.764 17.2518 19.2366 17.5774 18.9106L17.8218 18.6665H16.2214C14.9969 18.6665 14 19.7883 14 21.1666C14 21.6272 13.6266 22 13.1671 22C12.7068 22 12.3334 21.6272 12.3334 21.1666C12.3334 18.8696 14.0786 16.9998 16.2231 16.9998H17.8218L17.5774 16.7557C17.2518 16.4306 17.2518 15.9031 17.5774 15.578C17.903 15.252 18.4303 15.252 18.7559 15.578L20.4225 17.2447C20.7481 17.5699 20.7481 18.0965 20.4225 18.4225ZM19.0004 12.8329C19.0004 13.2935 18.627 13.6663 18.1667 13.6663C17.7063 13.6663 17.3338 13.2935 17.3338 12.8329V9.50199H12.3334C11.8731 9.50199 11.5466 9.11247 11.5466 8.6519V3.63664H5.68745L5.66652 20.3333H9.83324C10.2936 20.3333 10.6669 20.7069 10.6669 21.1666C10.6669 21.6272 10.2936 22 9.83324 22H5.66652C4.74746 22 4 21.2527 4 20.3333V3.66674C4 2.74727 4.74746 2 5.66652 2H12.3334C12.351 2 12.3652 2.00919 12.382 2.01003C12.4598 2.01421 12.5343 2.03009 12.608 2.05517C12.6331 2.06436 12.6582 2.07105 12.6825 2.08192C12.7687 2.12204 12.8507 2.17303 12.9202 2.2424C12.921 2.24324 12.9227 2.24408 12.9235 2.24491L18.6655 7.98821C18.6923 8.00744 18.7057 8.0392 18.73 8.06094C18.7534 8.0835 18.771 8.10858 18.7919 8.13282C18.9217 8.27993 19.0171 8.45714 19.0171 8.66862C19.0171 8.69787 19.0029 8.72211 19.0004 8.75053V12.8329ZM13.1671 4.84532V7.83525H16.1553L13.1671 4.84532Z" fill="#6B7084"/>
</svg>
