<svg width="24" height="24" viewBox="0 0 24 24" fill="none" xmlns="http://www.w3.org/2000/svg">
<path fill-rule="evenodd" clip-rule="evenodd" d="M20 8.66778C20 8.69704 19.9867 8.72211 19.9833 8.75053V20.3333C19.9833 21.2519 19.2368 22 18.3185 22H6.66482C5.74658 22 5 21.2519 5 20.3333V3.66674C5 2.74727 5.74658 2 6.66482 2H13.3241C13.3616 2 13.3941 2.01588 13.4299 2.0209C13.4682 2.02591 13.5007 2.0326 13.5374 2.04263C13.6799 2.08108 13.8115 2.14293 13.9132 2.24408L19.6492 7.98821C19.6759 8.00744 19.6892 8.0392 19.7134 8.06094C19.7367 8.08267 19.7542 8.10774 19.775 8.13198C19.905 8.2791 20 8.4563 20 8.66778ZM6.66482 20.3333H18.3185V9.50115H13.3241C12.8641 9.50115 12.4917 9.12835 12.4917 8.66778V3.63748H6.66732L6.66482 20.3333ZM14.1565 4.84532V7.83525H17.142L14.1565 4.84532ZM9.50783 15.3331L11.416 17.2439C11.7417 17.5699 11.7417 18.0965 11.416 18.4225C11.2535 18.5846 11.041 18.6665 10.8277 18.6665C10.6144 18.6665 10.4019 18.5846 10.2394 18.4225L7.74219 15.9224C7.4164 15.5972 7.4164 15.0698 7.74219 14.7438L10.2394 12.2437C10.5644 11.9185 11.091 11.9185 11.416 12.2437C11.7417 12.5697 11.7417 13.0971 11.416 13.4222L9.50783 15.3331ZM13.569 12.2453C13.894 11.9202 14.4206 11.9202 14.7456 12.2453L17.2428 14.7454C17.5678 15.0714 17.5678 15.598 17.2428 15.924L14.7456 18.4241C14.5831 18.5871 14.3706 18.6682 14.1573 18.6682C13.944 18.6682 13.7315 18.5871 13.569 18.4241C13.2432 18.099 13.2432 17.5707 13.569 17.2455L15.4772 15.3347L13.569 13.4239C13.2432 13.0988 13.2432 12.5713 13.569 12.2453Z" fill="#6B7084"/>
</svg>
