<svg width="24" height="24" viewBox="0 0 24 24" fill="none" xmlns="http://www.w3.org/2000/svg">
<path fill-rule="evenodd" clip-rule="evenodd" d="M20 8.66778C20 8.69704 19.9867 8.72211 19.9833 8.7497V20.3333C19.9833 21.2519 19.2368 22 18.3185 22H6.66482C5.74742 22 5 21.2519 5 20.3333V3.66674C5 2.74727 5.74742 2 6.66482 2H13.3249C13.3616 2 13.3941 2.01588 13.4299 2.0209C13.4682 2.02591 13.5007 2.0326 13.5382 2.04263C13.6799 2.08108 13.8124 2.14293 13.9132 2.24408L19.65 7.98821C19.6767 8.00744 19.6892 8.0392 19.7134 8.06094C19.7375 8.08267 19.755 8.10774 19.7759 8.13198C19.905 8.2791 20 8.4563 20 8.66778ZM6.66481 20.3333H18.3185V9.50115H13.3249C12.865 9.50115 12.4917 9.12835 12.4917 8.66778V3.63748H6.66814L6.66481 20.3333ZM14.1565 4.84532V7.83525H17.142L14.1565 4.84532ZM13.2374 11.6268L16.567 18.2937C16.7729 18.7058 16.6062 19.2057 16.1946 19.4121C16.0754 19.4715 15.9479 19.4999 15.823 19.4999C15.518 19.4999 15.2239 19.3319 15.078 19.0393L14.059 16.9998H10.926L9.90778 19.0393C9.70197 19.4506 9.20286 19.6186 8.79124 19.4121C8.37962 19.2057 8.21297 18.7058 8.41878 18.2937L11.7484 11.6268C12.03 11.0626 12.9549 11.0626 13.2374 11.6268ZM13.2266 15.3331L12.4925 13.8627L11.7584 15.3331H13.2266Z" fill="#6B7084"/>
</svg>
