<svg width="24" height="24" viewBox="0 0 24 24" fill="none" xmlns="http://www.w3.org/2000/svg">
<path fill-rule="evenodd" clip-rule="evenodd" d="M19.8333 22H14.8333C14.3725 22 14 21.6264 14 21.1667V17.8327C14 17.373 14.3725 16.9994 14.8333 16.9994V16.1661C14.8333 14.7878 15.955 13.6662 17.3333 13.6662C18.7117 13.6662 19.8333 14.7878 19.8333 16.1661V16.996C19.8333 16.9977 19.8325 16.9985 19.8325 16.9994H19.8333C20.2942 16.9994 20.6667 17.373 20.6667 17.8327V21.1667C20.6667 21.6264 20.2942 22 19.8333 22ZM18.1667 16.996V16.1661C18.1667 15.7072 17.7933 15.3328 17.3333 15.3328C16.8733 15.3328 16.5 15.7072 16.5 16.1661V16.9994H18.1675C18.1675 16.9985 18.1667 16.9977 18.1667 16.996ZM19 18.666H15.6667V20.3326H19V18.666ZM19 11.1663C19 11.626 18.6275 11.9996 18.1667 11.9996C17.7058 11.9996 17.3333 11.626 17.3333 11.1663V9.49969H12.3333C11.8725 9.49969 11.5 9.12608 11.5 8.66639V3.63651H5.66667V20.3326H11.5C11.9608 20.3326 12.3333 20.7062 12.3333 21.1667C12.3333 21.6264 11.9608 22 11.5 22H5.66667C4.7475 22 4 21.252 4 20.3326V3.6666C4 2.74721 4.7475 2 5.66667 2H12.3333C12.3525 2 12.3692 2.00919 12.3883 2.01087C12.4617 2.01588 12.5325 2.03009 12.6017 2.05433C12.63 2.06352 12.6583 2.07104 12.685 2.08358C12.7683 2.12286 12.8475 2.17218 12.9158 2.23988C12.9183 2.24155 12.9217 2.24322 12.9233 2.24573L18.6658 7.98604C18.6917 8.00527 18.705 8.03703 18.7292 8.05876C18.7533 8.08132 18.7717 8.10723 18.7933 8.13231C18.9217 8.27857 19.0167 8.45576 19.0167 8.66639C19.0167 8.69481 19.0025 8.71988 19 8.74746V11.1663ZM13.1667 4.84508V7.83308H16.155L13.1667 4.84508Z" fill="#6B7084"/>
</svg>
