<svg viewBox="0 0 24 24" fill="none" xmlns="http://www.w3.org/2000/svg">
<path fill-rule="evenodd" clip-rule="evenodd" d="M19.1566 17.0479C19.1516 17.1229 19.1374 17.1954 19.1123 17.2671C19.1031 17.2938 19.0964 17.3204 19.0838 17.3463C19.0437 17.4321 18.9935 17.5138 18.924 17.5838C18.9232 17.5846 18.9232 17.5855 18.9223 17.5855L14.7568 21.7558C14.6799 21.8325 14.5878 21.8933 14.4866 21.9358C14.3853 21.9775 14.2765 22 14.1669 22H6.67188C5.75059 22 5 21.2499 5 20.3274V5.31944C5 4.39687 5.75059 3.64597 6.67188 3.64597H9.168C9.17134 2.66172 10.2366 2 11.2323 2C12.213 2 13.2766 2.66089 13.3276 3.64597H17.4956C18.4169 3.64597 19.1667 4.39687 19.1667 5.31944V16.9963C19.1667 17.0146 19.1575 17.0296 19.1566 17.0479ZM15.0003 19.1523L16.3216 17.8296H15.0003V19.1523ZM13.3335 5.32611V9.48895C13.3335 10.8691 12.2122 11.9917 10.834 11.9917C9.45501 11.9917 8.33373 10.8691 8.33373 9.48895V7.26543C8.33373 6.8054 8.70693 6.43203 9.16716 6.43203C9.62739 6.43203 10.0006 6.8054 10.0006 7.26543V9.48895C10.0006 9.94899 10.3746 10.3232 10.834 10.3232C11.2934 10.3232 11.6666 9.94899 11.6666 9.48895V5.32361L6.67188 5.31444L6.66686 20.3274L13.3829 20.3315V17.0021C13.3829 16.542 13.7067 16.162 14.1669 16.162H17.5667V5.33444L13.3335 5.32611Z" fill="currentColor"/>
</svg>