<svg width="24" height="24" viewBox="0 0 24 24" fill="none" xmlns="http://www.w3.org/2000/svg">
<path fill-rule="evenodd" clip-rule="evenodd" d="M19.9833 8.75109V20.3325C19.9833 21.2519 19.2368 22 18.3185 22H6.66482C5.74658 22 5 21.2519 5 20.3325V3.66667C5 2.74724 5.74658 2 6.66482 2H13.3241C13.3616 2 13.3941 2.01672 13.4307 2.0209C13.4682 2.02591 13.5007 2.0326 13.5366 2.04263C13.679 2.08108 13.8115 2.14293 13.9132 2.24407L19.6492 7.98796C19.6759 8.00719 19.6892 8.03895 19.7134 8.06152C19.7367 8.08325 19.755 8.10833 19.7759 8.13256C19.905 8.27967 20 8.45687 20 8.66834C20 8.69759 19.9867 8.72267 19.9833 8.75109ZM14.1565 4.8452V7.83501H17.142L14.1565 4.8452ZM18.3185 9.50167H13.3241C12.8641 9.50167 12.4917 9.12805 12.4917 8.66834V3.63825H6.66731L6.66481 20.3325H18.3185V9.50167ZM9.16204 7C9.62199 7 9.99444 7.37279 9.99444 7.83333V9.5C9.99444 9.95971 9.62199 10.3333 9.16204 10.3333C8.70209 10.3333 8.32963 9.95971 8.32963 9.5V7.83333C8.32963 7.37279 8.70209 7 9.16204 7ZM9.40618 14.7441C9.56199 14.5878 9.77364 14.5 9.99445 14.5H14.9889C15.2097 14.5 15.4213 14.5878 15.5772 14.7441L16.4096 15.5774C16.7354 15.9025 16.7354 16.43 16.4096 16.7559C16.2471 16.9181 16.0346 17 15.8213 17C15.608 17 15.3955 16.9181 15.233 16.7559L14.6439 16.1667H10.3394L9.75031 16.7559C9.42534 17.0811 8.89873 17.0811 8.57377 16.7559C8.24797 16.43 8.24797 15.9025 8.57377 15.5774L9.40618 14.7441Z" fill="#6B7084"/>
</svg>
