<svg width="24" height="24" viewBox="0 0 24 24" fill="none" xmlns="http://www.w3.org/2000/svg">
<path fill-rule="evenodd" clip-rule="evenodd" d="M20.0817 17.895C20.0742 17.9025 20.0642 17.9051 20.0567 17.9117C20.0483 17.9209 20.0458 17.9326 20.0375 17.941L16.6233 21.3572C16.6017 21.379 16.5725 21.3873 16.5492 21.4065C16.5117 21.4366 16.4733 21.4617 16.4308 21.4851C16.3733 21.5169 16.3158 21.5411 16.2542 21.5587C16.2325 21.5645 16.2158 21.5796 16.1933 21.5837L14.1608 21.9841C14.1067 21.995 14.0533 22 13.9992 22C13.7808 22 13.5683 21.9139 13.4108 21.7559C13.2142 21.5603 13.1283 21.2795 13.1817 21.0061L13.58 18.9716C13.5858 18.9424 13.605 18.9198 13.6133 18.8914C13.6275 18.8454 13.6458 18.8019 13.6683 18.7585C13.6983 18.6991 13.7333 18.6465 13.7758 18.5972C13.7892 18.5804 13.795 18.5604 13.81 18.5445L17.225 15.1274C17.2333 15.1199 17.2442 15.1174 17.2525 15.1099C17.26 15.1015 17.2625 15.0907 17.27 15.0823C18.0217 14.33 19.3325 14.33 20.0833 15.0823C20.4592 15.4576 20.6667 15.9575 20.6667 16.4899C20.6658 17.0224 20.4583 17.5205 20.0817 17.895ZM18.905 16.2609C18.7383 16.0937 18.615 16.0945 18.4492 16.26C18.4417 16.2684 18.4308 16.2701 18.4225 16.2784C18.415 16.2868 18.4125 16.2977 18.4042 16.306L15.1667 19.5467L15.0558 20.1092L15.6258 19.9972L18.8583 16.7624C18.8667 16.754 18.8783 16.7515 18.8867 16.744C18.895 16.7348 18.8975 16.7231 18.9067 16.7139C18.9875 16.6328 18.9992 16.5384 19 16.4891C19 16.4389 18.9875 16.3428 18.905 16.2609ZM18.9992 11.9996C18.9992 12.4601 18.6258 12.833 18.1658 12.833C17.7058 12.833 17.3325 12.4601 17.3325 11.9996V9.50031H12.3325C11.8725 9.50031 11.5 9.12751 11.5 8.66778V3.63748H5.66667V20.3324H10.6667C11.1267 20.3324 11.5 20.7052 11.5 21.1658C11.5 21.6255 11.1267 21.9992 10.6667 21.9992H5.66667C4.7475 21.9992 4 21.2519 4 20.3324V3.66674C4 2.74727 4.7475 2 5.66667 2H12.3325C12.35 2 12.365 2.00919 12.3817 2.01003C12.4592 2.01421 12.5325 2.02926 12.6058 2.05517C12.6317 2.06436 12.6575 2.07105 12.6825 2.08275C12.7683 2.12287 12.8508 2.17386 12.9208 2.24324C12.9217 2.24408 12.9217 2.24408 12.9225 2.24491L18.6642 7.98738C18.6908 8.00577 18.7033 8.03753 18.7275 8.05926C18.7525 8.08183 18.7708 8.10858 18.7925 8.13366C18.9217 8.28077 19.0158 8.45714 19.0158 8.66778C19.0158 8.69704 19.0025 8.72128 18.9992 8.7497V11.9996ZM13.1667 4.84532V7.83441H16.1542L13.1667 4.84532Z" fill="#6B7084"/>
</svg>
