<svg viewBox="0 0 24 24" fill="none" xmlns="http://www.w3.org/2000/svg">
<path fill-rule="evenodd" clip-rule="evenodd" d="M20 8.66778C20 8.69704 19.9867 8.72211 19.9833 8.75053V20.3333C19.9833 21.2519 19.2368 22 18.3185 22H6.66482C5.74658 22 5 21.2519 5 20.3333V3.66674C5 2.74727 5.74658 2 6.66482 2H13.3241C13.3616 2 13.3932 2.01588 13.4299 2.0209C13.4674 2.02591 13.5007 2.0326 13.5374 2.04263C13.6799 2.08108 13.8115 2.14293 13.9132 2.24408L19.6492 7.98821C19.6759 8.00744 19.6892 8.0392 19.7134 8.06094C19.7367 8.08267 19.7542 8.10774 19.775 8.13198C19.905 8.2791 20 8.4563 20 8.66778ZM6.66481 20.3333H18.3185V9.50115H13.3241C12.8641 9.50115 12.4917 9.12835 12.4917 8.66778V3.63748H6.66731L6.66481 20.3333ZM14.1565 4.84532V7.83525H17.142L14.1565 4.84532ZM15.3522 14.503C15.6363 14.6409 15.818 14.9268 15.8221 15.2428C15.8263 15.5579 15.6522 15.8488 15.3713 15.9934L10.3769 18.5737C10.2569 18.6356 10.1261 18.6665 9.99528 18.6665C9.84529 18.6665 9.69531 18.6256 9.56199 18.5445C9.31452 18.3932 9.16287 18.124 9.16287 17.8332V12.8346C9.16287 12.5479 9.31035 12.2813 9.55283 12.1291C9.79613 11.9762 10.0994 11.9603 10.3577 12.0848L15.3522 14.503ZM10.8277 16.4657L13.1274 15.2771L10.8277 14.1637V16.4657Z" fill="currentColor"/>
</svg>