<svg width="24" height="24" viewBox="0 0 24 24" fill="none" xmlns="http://www.w3.org/2000/svg">
<path fill-rule="evenodd" clip-rule="evenodd" d="M19.9833 8.75025V20.3325C19.9833 21.2519 19.2368 22 18.3185 22H6.66482C5.74658 22 5 21.2519 5 20.3325V3.66667C5 2.74808 5.74658 2 6.66482 2H13.3241C13.3616 2 13.3932 2.01672 13.4299 2.02173C13.4682 2.02675 13.5007 2.03343 13.5382 2.04346C13.6799 2.08191 13.8115 2.14293 13.9132 2.24407L19.6492 7.9888C19.6759 8.00719 19.6884 8.03895 19.7125 8.06068C19.7367 8.08325 19.755 8.10833 19.7767 8.1334C19.905 8.28051 20 8.45771 20 8.66834C20 8.69759 19.9867 8.72183 19.9833 8.75025ZM14.1565 4.8452V7.83501H17.142L14.1565 4.8452ZM18.3185 9.50168H13.3241C12.8641 9.50168 12.4917 9.12889 12.4917 8.66834V3.63658H6.66814L6.66481 20.3325H18.3185V9.50168ZM9.74697 15.666C10.0119 15.3124 10.5069 15.228 10.8743 15.4729L11.4968 15.8883L13.0733 13.9701C13.2432 13.7636 13.5024 13.6483 13.7674 13.6683C14.034 13.6851 14.2765 13.828 14.4198 14.0545L16.5262 17.387C16.6887 17.6444 16.6987 17.9687 16.552 18.2354C16.4062 18.5012 16.1263 18.6658 15.823 18.6658H9.1637C8.84874 18.6658 8.56043 18.4878 8.41878 18.2061C8.27797 17.9228 8.3088 17.5851 8.49794 17.3327L9.74697 15.666ZM10.4144 13.6658C9.72198 13.6658 9.1637 13.105 9.1637 12.4162C9.1637 11.7267 9.72198 11.1667 10.4144 11.1667C11.1027 11.1667 11.6609 11.7267 11.6609 12.4162C11.6609 13.105 11.1027 13.6658 10.4144 13.6658Z" fill="#6B7084"/>
</svg>
