<svg viewBox="0 0 24 24" fill="none" xmlns="http://www.w3.org/2000/svg">
<path fill-rule="evenodd" clip-rule="evenodd" d="M17.3333 22C15.495 22 14 20.5038 14 18.6658C14 18.2061 14.3733 17.8333 14.8333 17.8333C15.2933 17.8333 15.6667 18.2061 15.6667 18.6658C15.6667 19.5853 16.4142 20.3333 17.3333 20.3333C18.2525 20.3333 19 19.5853 19 18.6658C19 17.8852 18.4583 17.2332 17.7317 17.0535L17.9225 17.2441C18.2483 17.5692 18.2483 18.0966 17.9225 18.4218C17.76 18.5848 17.5467 18.6658 17.3333 18.6658C17.12 18.6658 16.9067 18.5848 16.7442 18.4218L15.0775 16.7559C14.7517 16.43 14.7517 15.9025 15.0775 15.5774L16.7442 13.9107C17.07 13.5848 17.5967 13.5848 17.9225 13.9107C18.2483 14.2359 18.2483 14.7641 17.9225 15.0893L17.645 15.3659C19.3433 15.5331 20.6667 16.9407 20.6667 18.6658C20.6667 20.5038 19.1717 22 17.3333 22ZM19 12C19 12.4597 18.6267 12.8333 18.1667 12.8333C17.7067 12.8333 17.3333 12.4597 17.3333 12V9.5H12.3333C11.8733 9.5 11.5 9.12638 11.5 8.66667V3.63741H5.66667V20.3333H12.3333C12.7933 20.3333 13.1667 20.7061 13.1667 21.1667C13.1667 21.6264 12.7933 22 12.3333 22H5.66667C4.7475 22 4 21.2519 4 20.3333V3.66667C4 2.74808 4.7475 2 5.66667 2H12.3333C12.3508 2 12.3658 2.00919 12.3833 2.01087C12.46 2.01505 12.5333 2.03009 12.6058 2.05517C12.6317 2.06436 12.6575 2.07105 12.6833 2.08275C12.77 2.12287 12.8517 2.17385 12.9217 2.24407C12.9225 2.24407 12.9225 2.24407 12.9225 2.2449L18.665 7.98629C18.6917 8.00552 18.705 8.03728 18.7292 8.05901C18.7533 8.08158 18.7717 8.10749 18.7925 8.13256C18.9217 8.27884 19.0167 8.45603 19.0167 8.66667C19.0167 8.69592 19.0025 8.721 19 8.74941V12ZM13.1667 4.8452V7.83334H16.155L13.1667 4.8452Z" fill="currentColor"/>
</svg>