<svg width="24" height="24" viewBox="0 0 24 24" fill="none" xmlns="http://www.w3.org/2000/svg">
<path fill-rule="evenodd" clip-rule="evenodd" d="M19.9833 8.76795V12C19.9833 12.4591 19.6109 12.8322 19.1509 12.8322C18.6918 12.8322 18.3185 12.4591 18.3185 12V9.51836H13.3241C12.865 9.51836 12.4917 9.14524 12.4917 8.68614V3.66444H6.66482L6.66815 20.3556H14.1673C14.6273 20.3556 14.9889 20.6803 14.9889 21.1402C14.9889 21.6002 14.6164 21.9725 14.1565 21.9725H6.66482C5.74658 21.9725 5 21.2262 5 20.308V3.66444C5 2.74624 5.74658 2 6.66482 2H13.3241C13.5915 2 13.8182 2.13356 13.9707 2.32888L19.6492 8.00668C19.6509 8.00835 19.6517 8.01002 19.6534 8.01169C19.7359 8.07596 19.8034 8.15275 19.8575 8.24457C19.875 8.27129 19.8967 8.29382 19.9108 8.32304C19.9267 8.35977 19.9292 8.4015 19.94 8.44157C19.965 8.52087 20 8.59766 20 8.68614C20 8.71452 19.9867 8.73957 19.9833 8.76795ZM14.1565 4.86895V7.85309H17.142L14.1565 4.86895ZM17.4861 14.51C17.9461 14.51 18.3185 14.8831 18.3185 15.3422V18.6711C18.3185 19.1311 17.9461 19.5033 17.4861 19.5033C17.027 19.5033 16.6537 19.1311 16.6537 18.6711V15.3422C16.6537 14.8831 17.027 14.51 17.4861 14.51ZM18.0777 20.5768C18.2269 20.7354 18.3185 20.9508 18.3185 21.1678C18.3185 21.384 18.2269 21.601 18.0777 21.7588C17.9194 21.9082 17.7028 22 17.4861 22C17.262 22 17.0537 21.9082 16.8953 21.7588C16.7454 21.601 16.6537 21.3932 16.6537 21.1678C16.6537 20.9508 16.7454 20.7354 16.8953 20.5768C17.2028 20.2688 17.7611 20.2688 18.0777 20.5768Z" fill="#6B7084"/>
</svg>
