<svg viewBox="0 0 24 24" fill="none" xmlns="http://www.w3.org/2000/svg">
<path fill-rule="evenodd" clip-rule="evenodd" d="M19.91 8.32748C19.9267 8.36421 19.9283 8.40594 19.9392 8.44434C19.965 8.52448 20 8.60128 20 8.6906C20 8.71981 19.9858 8.74486 19.9833 8.77324V12.8393C19.9833 13.2993 19.61 13.6724 19.1509 13.6724C18.691 13.6724 18.3185 13.2993 18.3185 12.8393V9.49447H13.3332C12.8733 9.49447 12.4917 9.14971 12.4917 8.6906V3.66534H6.66482V20.3205H13.3241C13.7832 20.3205 14.1565 20.6936 14.1565 21.1536C14.1565 21.6127 13.7832 21.9858 13.3241 21.9858H6.66482C5.74658 21.9858 5 21.2387 5 20.3205V3.66534C5 2.74711 5.74658 2 6.66482 2H13.3241C13.5907 2 13.8174 2.13356 13.9698 2.3289L19.6484 8.0111C19.65 8.01194 19.6509 8.01361 19.6517 8.01444C19.7359 8.07955 19.8034 8.15719 19.8575 8.24901C19.875 8.27656 19.8958 8.29826 19.91 8.32748ZM14.1565 4.87074V7.85751H17.1412L14.1565 4.87074ZM16.6537 14.5047H17.4861C17.9452 14.5047 18.3185 14.8778 18.3185 15.3378C18.3185 15.7977 17.9452 16.1709 17.4861 16.1709H16.6537C16.1938 16.1709 15.8213 15.7977 15.8213 15.3378C15.8213 14.8778 16.1938 14.5047 16.6537 14.5047ZM15.8213 17.8362C15.8213 17.3763 16.1938 17.0031 16.6537 17.0031H17.4861C17.9452 17.0031 18.3185 17.3763 18.3185 17.8362V20.3347C18.7776 20.3347 19.1509 20.7078 19.1509 21.1669C19.1509 21.6269 18.7776 22 18.3185 22H16.6537C16.1938 22 15.8213 21.6269 15.8213 21.1669C15.8213 20.7078 16.1938 20.3347 16.6537 20.3347V18.6685C16.1938 18.6685 15.8213 18.2953 15.8213 17.8362Z" fill="currentColor"/>
</svg>