<svg width="24" height="24" viewBox="0 0 24 24" fill="none" xmlns="http://www.w3.org/2000/svg">
<path fill-rule="evenodd" clip-rule="evenodd" d="M21.0879 18.8389C20.9238 19.0018 20.7104 19.0829 20.4961 19.0829C20.3362 19.0829 20.1847 19.0227 20.0457 18.9325C19.8867 20.5933 18.2846 22 16.4506 22C15.9952 22 15.555 21.9114 15.144 21.7367C14.7179 21.557 14.5204 21.0672 14.7012 20.6434C14.882 20.2205 15.3725 20.0232 15.7994 20.2029C16.0028 20.289 16.2212 20.3333 16.4506 20.3333C17.3295 20.3333 18.1666 19.7115 18.3599 18.9818C18.0452 19.1414 17.6551 19.1013 17.3914 18.8389C17.0642 18.5137 17.0642 17.9863 17.3914 17.6603L18.6479 16.4107C18.9751 16.0856 19.505 16.0856 19.8315 16.4107L21.0879 17.6603C21.4152 17.9863 21.4152 18.5137 21.0879 18.8389ZM18.0728 8.74858V11.1667C18.0728 11.6272 17.6978 12 17.2358 12C16.7729 12 16.3979 11.6272 16.3979 11.1667V9.5H11.3739C10.911 9.5 10.5368 9.12638 10.5368 8.66667V3.63741H4.6741L4.67494 20.3333H10.5368C10.9989 20.3333 11.3739 20.7061 11.3739 21.1667C11.3739 21.6264 10.9989 22 10.5368 22H4.67494C3.75167 22 3 21.2519 3 20.3333V3.66667C3 2.74808 3.75167 2 4.67494 2H11.3739C11.3915 2 11.4065 2.00919 11.4241 2.01087C11.5011 2.01505 11.5748 2.03009 11.6476 2.05517C11.6744 2.06436 11.7003 2.07105 11.7246 2.08275C11.8125 2.12287 11.8954 2.17385 11.9657 2.24407L17.7363 7.98629C17.7631 8.00552 17.7765 8.03728 17.7999 8.05901C17.825 8.08158 17.8435 8.10749 17.8644 8.13256C17.9941 8.27967 18.0895 8.45603 18.0895 8.66667C18.0895 8.69592 18.0753 8.721 18.0728 8.74858ZM12.2109 4.8452V7.83334H15.2143L12.2109 4.8452ZM11.5296 17.6603C11.815 17.377 12.2478 17.3552 12.5717 17.5667C12.7324 15.9059 14.3337 14.5 16.1677 14.5C16.6172 14.5 17.0558 14.5878 17.4701 14.7608C17.897 14.9388 18.0971 15.4278 17.918 15.8516C17.7397 16.2762 17.25 16.4768 16.8222 16.2971C15.8077 15.8733 14.5279 16.5996 14.2701 17.5099C14.5823 17.3577 14.9665 17.402 15.226 17.6603C15.5533 17.9863 15.5533 18.5137 15.226 18.8389L13.9704 20.0893C13.8063 20.2514 13.5921 20.3333 13.3778 20.3333C13.1635 20.3333 12.95 20.2514 12.786 20.0893L11.5296 18.8389C11.2031 18.5137 11.2031 17.9863 11.5296 17.6603Z" fill="#6B7084"/>
</svg>
