<svg viewBox="0 0 24 24" fill="none" xmlns="http://www.w3.org/2000/svg">
<path fill-rule="evenodd" clip-rule="evenodd" d="M20.6667 17.8494C20.6667 17.9613 20.6433 18.0698 20.6008 18.1708C20.5967 18.1817 20.5867 18.1892 20.5817 18.2C20.5408 18.2868 20.4917 18.3695 20.4225 18.4379L17.9225 20.9365C17.76 21.0993 17.5467 21.1802 17.3333 21.1802C17.12 21.1802 16.9067 21.0993 16.7442 20.9365C16.4183 20.6109 16.4183 20.0833 16.7442 19.7577L17.8217 18.6809H13.1667C12.7067 18.6809 12.3333 18.3069 12.3333 17.8469C12.3333 17.3869 12.7067 17.0138 13.1667 17.0138H17.8208L16.7442 15.9361C16.4183 15.6105 16.4183 15.0829 16.7442 14.7573C17.07 14.4326 17.5975 14.4326 17.9225 14.7582L20.4183 17.255C20.4967 17.3327 20.5592 17.4253 20.6025 17.5288C20.6275 17.5898 20.6317 17.6582 20.6417 17.7242C20.6483 17.7659 20.6667 17.8035 20.6667 17.8469C20.6667 17.8477 20.6667 17.8477 20.6667 17.8477C20.6667 17.8486 20.6667 17.8486 20.6667 17.8494ZM19.0167 8.69505C19.0167 8.7251 19.0025 8.74931 19 8.77769V12.0142C19 12.4742 18.6267 12.8473 18.1667 12.8473C17.7067 12.8473 17.3333 12.4742 17.3333 12.0142V9.4856H12.3333C11.8733 9.4856 11.5 9.15586 11.5 8.69505V3.66708H5.66667V20.3338H11.5C11.96 20.3338 12.3333 20.7061 12.3333 21.1669C12.3333 21.6268 11.96 22 11.5 22H5.66667C4.7475 22 4 21.252 4 20.3338V3.66708C4 2.74798 4.7475 2 5.66667 2H12.3333C12.6 2 12.8275 2.13357 12.98 2.32974L18.665 8.01553C18.6667 8.01636 18.6675 8.01887 18.6683 8.0197C18.7525 8.08398 18.82 8.16162 18.8733 8.25344C18.8917 8.28016 18.9125 8.3027 18.9267 8.33191C18.9433 8.36865 18.945 8.41038 18.9558 8.44879C18.9817 8.52976 19.0167 8.60656 19.0167 8.69505ZM13.1667 4.87336V7.86192H16.155L13.1667 4.87336Z" fill="currentColor"/>
</svg>