<svg viewBox="0 0 24 24" fill="none" xmlns="http://www.w3.org/2000/svg">
<path fill-rule="evenodd" clip-rule="evenodd" d="M19.8333 19.5024H14.8333C14.3733 19.5024 14 19.1296 14 18.669C14 18.2093 14.3733 17.8357 14.8333 17.8357H19.8333C20.2933 17.8357 20.6667 18.2093 20.6667 18.669C20.6667 19.1296 20.2933 19.5024 19.8333 19.5024ZM19 15.2837C19 15.7443 18.6267 16.1171 18.1667 16.1171C17.7067 16.1171 17.3333 15.7443 17.3333 15.2837V9.49948H12.3333C11.8733 9.49948 11.5 9.12668 11.5 8.66611V3.63581H5.66667V20.3333H12.3333C12.7933 20.3333 13.1667 20.7069 13.1667 21.1666C13.1667 21.6264 12.7933 22 12.3333 22H5.66667C4.7475 22 4 21.2527 4 20.3333V3.66674C4 2.74727 4.7475 2 5.66667 2H12.3333C12.3508 2 12.3658 2.00919 12.3825 2.01003C12.46 2.01505 12.5333 2.02926 12.6058 2.05517C12.6325 2.06436 12.6583 2.07105 12.6825 2.08275C12.7692 2.12287 12.8508 2.17303 12.9208 2.24324C12.9217 2.24324 12.9225 2.24408 12.9225 2.24408L18.665 7.98654C18.6917 8.00493 18.7042 8.03753 18.7283 8.05843C18.7525 8.081 18.7717 8.10691 18.7933 8.13282C18.9217 8.2791 19.0167 8.4563 19.0167 8.66611C19.0167 8.6962 19.0033 8.72044 19 8.74886V15.2837ZM13.1667 4.84532V7.83274H16.155L13.1667 4.84532Z" fill="currentColor"/>
</svg>