<svg width="24" height="24" viewBox="0 0 24 24" fill="none" xmlns="http://www.w3.org/2000/svg">
<path fill-rule="evenodd" clip-rule="evenodd" d="M18.1675 22C17.7075 22 17.3342 21.6264 17.3342 21.1667C17.3342 20.7061 17.7075 20.3333 18.1675 20.3333C18.6267 20.3333 19 19.9597 19 19.5C19 19.0403 18.6267 18.6667 18.1675 18.6667C17.7075 18.6667 17.3342 18.2939 17.3342 17.8333C17.3342 17.3728 17.7075 17 18.1675 17C19.5458 17 20.6667 18.1217 20.6667 19.5C20.6667 20.8783 19.5458 22 18.1675 22ZM19 14.5C19 14.9597 18.6267 15.3333 18.1667 15.3333C17.7067 15.3333 17.3333 14.9597 17.3333 14.5V9.5H12.3333C11.8733 9.5 11.5 9.12721 11.5 8.66667V3.63574H5.66667V20.3333H9.83417C10.2942 20.3333 10.6675 20.7061 10.6675 21.1667C10.6675 21.6264 10.2942 22 9.83417 22H5.66667C4.7475 22 4 21.2519 4 20.3333V3.66667C4 2.74808 4.7475 2 5.66667 2H12.3333C12.3517 2 12.3667 2.00919 12.3842 2.01087C12.46 2.01505 12.5325 2.03009 12.605 2.05517C12.6317 2.06436 12.6583 2.07105 12.6833 2.08275C12.7675 2.12203 12.8467 2.17218 12.915 2.23905C12.9175 2.24156 12.9208 2.24323 12.9233 2.24574L18.665 7.98713C18.6917 8.00552 18.7042 8.03728 18.7283 8.05901C18.7525 8.08158 18.7717 8.10749 18.7933 8.1334C18.9217 8.27967 19.0167 8.45687 19.0167 8.66667C19.0167 8.69592 19.0025 8.721 19 8.74941V14.5ZM13.1667 4.8452V7.83334H16.155L13.1667 4.8452ZM14 17C14.46 17 14.8333 17.3728 14.8333 17.8333C14.8333 18.2939 14.46 18.6667 14 18.6667C13.5408 18.6667 13.1675 19.0403 13.1675 19.5C13.1675 19.9597 13.5408 20.3333 14 20.3333C14.46 20.3333 14.8333 20.7061 14.8333 21.1667C14.8333 21.6264 14.46 22 14 22C12.6217 22 11.5008 20.8783 11.5008 19.5C11.5008 18.1217 12.6217 17 14 17ZM15.6667 18.6667H16.5C16.96 18.6667 17.3333 19.0395 17.3333 19.5C17.3333 19.9597 16.96 20.3333 16.5 20.3333H15.6667C15.2067 20.3333 14.8333 19.9597 14.8333 19.5C14.8333 19.0395 15.2067 18.6667 15.6667 18.6667Z" fill="#6B7084"/>
</svg>
