<svg width="24" height="24" viewBox="0 0 24 24" fill="none" xmlns="http://www.w3.org/2000/svg">
<path fill-rule="evenodd" clip-rule="evenodd" d="M19.9105 8.32748C19.9264 8.36421 19.9289 8.40594 19.9398 8.44518C19.9649 8.52531 20 8.60211 20 8.6906C20 8.71981 19.9858 8.74402 19.9833 8.7724V12.0063C19.9833 12.467 19.6102 12.8393 19.151 12.8393C18.6909 12.8393 18.404 12.4587 18.404 11.9987V9.49447H13.385C12.9249 9.49447 12.5485 9.11966 12.5485 8.65971V3.66534H6.66462V20.3205H11.6593C12.1186 20.3205 12.4916 20.6936 12.4916 21.1536C12.4916 21.6127 12.1186 21.9858 11.6593 21.9858H6.66462C5.74615 21.9858 5 21.2387 5 20.3205V3.66534C5 2.74711 5.74615 2 6.66462 2H13.3239C13.5908 2 13.8175 2.13356 13.9697 2.3289L19.6487 8.0111C19.6503 8.01194 19.6503 8.01361 19.652 8.01444C19.7357 8.07955 19.8034 8.15719 19.8578 8.24901C19.8754 8.27656 19.8963 8.29826 19.9105 8.32748ZM14.1563 4.87074V7.85751H17.1409L14.1563 4.87074ZM14.7452 18.08L15.8945 19.2303V14.503C15.8945 14.0431 16.194 13.6724 16.6532 13.6724C17.1133 13.6724 17.4863 14.0456 17.4863 14.5047V19.1568L18.5621 18.08C18.8875 17.7544 19.4145 17.7544 19.739 18.08C20.0644 18.4055 20.0644 18.9323 19.739 19.257L17.2429 21.7546C17.166 21.8322 17.0739 21.8932 16.9711 21.9357C16.8698 21.9775 16.7619 22 16.6532 22C16.4407 22 16.2274 21.9182 16.0651 21.7554L13.5674 19.257C13.2428 18.9323 13.2428 18.4055 13.5674 18.08C13.8928 17.7544 14.4198 17.7544 14.7452 18.08Z" fill="#6B7084"/>
</svg>
