<svg viewBox="0 0 24 24" fill="none" xmlns="http://www.w3.org/2000/svg">
<path fill-rule="evenodd" clip-rule="evenodd" d="M16.9167 22C14.8492 22 13.1667 20.3175 13.1667 18.2496C13.1667 16.1825 14.8492 14.5 16.9167 14.5C18.9842 14.5 20.6667 16.1825 20.6667 18.2496C20.6667 20.3175 18.9842 22 16.9167 22ZM14.8333 18.2496C14.8333 19.398 15.7683 20.3333 16.9167 20.3333C17.185 20.3333 17.4392 20.2782 17.675 20.1854L14.9808 17.4915C14.8883 17.7272 14.8333 17.9821 14.8333 18.2496ZM16.9167 16.1667C16.6492 16.1667 16.395 16.2218 16.16 16.3138L18.8525 19.0069C18.945 18.7711 19 18.5171 19 18.2496C19 17.1011 18.065 16.1667 16.9167 16.1667ZM19 12C19 12.4605 18.6267 12.8333 18.1667 12.8333C17.7067 12.8333 17.3333 12.4605 17.3333 12V9.50167H12.3333C11.8733 9.50167 11.5 9.12889 11.5 8.66834V3.63574H5.66667V20.3333H10.6667C11.1267 20.3333 11.5 20.7061 11.5 21.1667C11.5 21.6264 11.1267 22 10.6667 22H5.66667C4.7475 22 4 21.2519 4 20.3333V3.66667C4 2.74808 4.7475 2 5.66667 2H12.3333C12.3508 2 12.3658 2.00919 12.3842 2.01003C12.46 2.01505 12.5333 2.03009 12.6058 2.05517C12.6317 2.06436 12.6583 2.07105 12.6833 2.08275C12.7683 2.12287 12.8483 2.17302 12.9175 2.24156C12.9192 2.24323 12.9217 2.24407 12.9233 2.24574L18.6658 7.9888C18.6925 8.00719 18.705 8.03979 18.73 8.06152C18.7533 8.08325 18.7708 8.10833 18.7917 8.13256C18.9208 8.27967 19.0167 8.45687 19.0167 8.66834C19.0167 8.69843 19.0025 8.72267 19 8.75109V12ZM13.1667 4.84604V7.83501H16.155L13.1667 4.84604Z" fill="currentColor"/>
</svg>