<svg viewBox="0 0 24 24" fill="none" xmlns="http://www.w3.org/2000/svg">
<path fill-rule="evenodd" clip-rule="evenodd" d="M20.1536 7.38435C20.1536 7.41212 20.1405 7.43449 20.1382 7.46149L20.1367 15.99C20.1367 16.7591 19.5121 17.3847 18.7437 17.3847H10.0023C9.23388 17.3847 8.60933 16.7591 8.60933 15.99V3.39391C8.60933 2.6256 9.23388 2 10.0023 2H14.7587C14.7749 2 14.7887 2.00849 14.8049 2.00926C14.8757 2.01389 14.9433 2.02777 15.0095 2.05091C15.0341 2.0594 15.0579 2.06557 15.081 2.07637C15.1595 2.11262 15.2341 2.15968 15.2987 2.22293C15.2995 2.22448 15.301 2.22525 15.3025 2.22602L19.829 6.7572C19.8536 6.77417 19.8659 6.80426 19.8883 6.82431C19.9106 6.84437 19.9275 6.86828 19.9467 6.89143C20.0659 7.02642 20.1536 7.18996 20.1536 7.38435ZM10.1464 15.8462H18.5995L18.601 8.15463H14.7591C14.3345 8.15463 13.9907 7.80981 13.9907 7.38478V3.50851H10.1541L10.1464 15.8462ZM15.5278 4.62658V6.61524H17.5153L15.5278 4.62658ZM17.8325 18.922C17.8325 19.347 17.4887 19.6911 17.0641 19.6911H7.71887C6.93894 19.6911 6.30516 19.057 6.30516 18.2764V5.07621C6.30516 4.65117 6.64974 4.30713 7.07431 4.30713C7.49812 4.30713 7.8427 4.65117 7.8427 5.07621V18.1529H17.0641C17.4887 18.1529 17.8325 18.497 17.8325 18.922ZM15.5274 21.2299C15.5274 21.6549 15.1835 21.999 14.759 21.999H5.41294C4.63379 21.999 4 21.3649 4 20.5842V7.38334C4 6.95907 4.34381 6.61426 4.76839 6.61426C5.19296 6.61426 5.53678 6.95907 5.53678 7.38334V20.4608H14.759C15.1835 20.4608 15.5274 20.8049 15.5274 21.2299Z" fill="currentColor"/>
</svg>