<svg viewBox="0 0 24 24" fill="none" xmlns="http://www.w3.org/2000/svg">
<path fill-rule="evenodd" clip-rule="evenodd" d="M19.9833 8.75081V20.334C19.9833 21.2527 19.2359 22 18.3185 22H6.66482C5.74658 22 5 21.2527 5 20.334V3.66681C5 2.7473 5.74658 2 6.66482 2H13.3241C13.3407 2 13.3557 2.00836 13.3732 2.0092C13.4499 2.01421 13.5241 2.02926 13.5965 2.05517C13.6224 2.06353 13.6482 2.07022 13.6724 2.08192C13.759 2.12204 13.8415 2.17303 13.9115 2.24325C13.9115 2.24325 13.9123 2.24325 13.9123 2.24409L19.6492 7.98846C19.675 8.00685 19.6884 8.03862 19.7117 8.06035C19.7359 8.08292 19.755 8.10884 19.7759 8.13391C19.905 8.2802 20 8.45741 20 8.66806C20 8.69732 19.9858 8.72239 19.9833 8.75081ZM14.1565 4.84544V7.83466H17.1412L14.1565 4.84544ZM18.3185 9.50146H13.3241C12.8641 9.50146 12.4917 9.12865 12.4917 8.66806V3.63755H6.66732L6.66482 20.334H18.3185V9.50146ZM10.4861 12.0042L10.2378 11.7559C9.91279 11.4299 9.91279 10.9024 10.2378 10.5773C10.5635 10.2521 11.0902 10.2521 11.4151 10.5773L13.2483 12.4129C13.8257 12.7473 14.3023 13.2246 14.6356 13.8022L16.4096 15.5777C16.7345 15.9029 16.7345 16.4303 16.4096 16.7555C16.2471 16.9185 16.0338 16.9996 15.8213 16.9996C15.608 16.9996 15.3947 16.9185 15.2322 16.7555L15.0439 16.5674C14.8672 17.3039 14.4806 17.9826 13.9115 18.5C13.7524 18.6447 13.5524 18.7165 13.3524 18.7165C13.1258 18.7165 12.9 18.6246 12.7358 18.4432C12.4267 18.103 12.4525 17.5747 12.7933 17.2662C13.2374 16.8625 13.4916 16.2866 13.4916 15.6872C13.4916 15.3821 13.4241 15.092 13.3082 14.8296L12.2234 13.7429C11.9601 13.6258 11.6709 13.5581 11.3643 13.5581C10.7627 13.5581 10.1869 13.8156 9.78364 14.2636C9.47617 14.6055 8.94956 14.6348 8.60793 14.3263C8.2663 14.0187 8.23881 13.4913 8.54627 13.1494C9.06455 12.5726 9.74531 12.1814 10.4861 12.0042Z" fill="currentColor"/>
</svg>