<svg width="24" height="24" viewBox="0 0 24 24" fill="none" xmlns="http://www.w3.org/2000/svg">
<path fill-rule="evenodd" clip-rule="evenodd" d="M21.9553 13.8496C21.8517 14.4309 20.5037 19.8882 20.3504 20.5088C20.347 20.5255 20.3361 20.538 20.331 20.5539C20.3184 20.5932 20.2998 20.6275 20.2821 20.6652C20.2552 20.7212 20.2257 20.7739 20.1878 20.8216C20.1633 20.8517 20.1381 20.8776 20.1103 20.9044C20.0597 20.952 20.0058 20.9905 19.9451 21.0248C19.9258 21.0357 19.9123 21.0541 19.8912 21.0641C19.8087 21.1026 17.8322 22 14.9348 22C12.1563 22 10.2716 21.182 10.045 21.0792C10.0433 21.0783 10.0408 21.0775 10.0391 21.0758C10.0315 21.0725 10.0088 21.0633 10.0063 21.0616C9.95655 21.0382 9.92285 20.9989 9.87988 20.9679C9.84197 20.9403 9.79731 20.9236 9.76362 20.8885C9.71222 20.8358 8.49735 19.5762 7.12745 17.3197C5.86961 15.248 3.9521 13.444 3.93272 13.4264C3.60162 13.1161 3.57972 12.6001 3.88301 12.263C5.08778 10.9274 7.65233 10.7626 9.05929 11.9327L9.50497 12.3751V4.51913C9.50497 3.03542 10.5311 2 12.0004 2C13.4664 2 14.49 3.03207 14.49 4.50993V9.57914C14.6897 9.55823 14.9011 9.55321 15.137 9.59252C15.7933 9.70209 16.2525 10.0517 16.5575 10.4423C16.9838 10.2901 17.5019 10.2206 18.058 10.3804C18.6359 10.5443 19.026 10.8705 19.2779 11.2167C19.6848 11.1365 20.192 11.1281 20.7076 11.3556C21.6765 11.7805 22.155 12.7364 21.9553 13.8496ZM20.0353 12.8786C19.7008 12.7347 19.2644 12.9698 19.2594 12.9714C19.0192 13.1086 18.7193 13.1186 18.4716 12.9949C18.2231 12.8711 18.0479 12.6344 18.0125 12.3609C18.0015 12.3141 17.9299 12.0749 17.5996 11.9812C17.175 11.8607 16.7951 12.1928 16.7909 12.197C16.5735 12.4052 16.2559 12.4805 15.9686 12.3927C15.6788 12.3049 15.4589 12.0665 15.3965 11.7713C15.3864 11.7353 15.2668 11.3021 14.8624 11.2343C14.5102 11.1749 14.292 11.3832 14.2684 11.4074C14.2651 11.4108 14.26 11.4125 14.2566 11.4158C14.105 11.5739 13.8935 11.6751 13.6559 11.6751C13.2204 11.6751 12.8749 11.3389 12.8362 10.9148C12.8345 10.9014 12.8286 10.8881 12.8278 10.8738C12.8278 10.863 12.8219 10.8538 12.8219 10.8429V4.50993C12.8219 3.94873 12.5455 3.66437 12.0004 3.66437C11.3172 3.66437 11.174 4.12938 11.174 4.51913V14.2854C11.2102 14.5354 11.1461 14.7981 10.9524 14.9913C10.9482 14.9954 10.9414 14.9963 10.9372 15.0013C10.7856 15.1569 10.5749 15.2556 10.3399 15.2556C10.0501 15.2556 9.80743 15.1 9.65831 14.8767L7.93541 13.1605C7.45182 12.7615 6.51918 12.6938 5.80727 12.9472C6.5394 13.7166 7.67592 15.0105 8.55464 16.4582C9.60355 18.1853 10.5505 19.2785 10.853 19.6122C11.2843 19.7853 12.8134 20.3348 14.9348 20.3348C16.8001 20.3348 18.2096 19.9174 18.8339 19.6933C19.427 17.2879 20.2451 13.9358 20.3125 13.5569C20.4051 13.0417 20.1465 12.9271 20.0353 12.8786ZM7.00694 5.32878H4.84931L5.09363 5.57299C5.41968 5.8975 5.41968 6.42525 5.09363 6.74976C4.93019 6.91201 4.71704 6.99398 4.50389 6.99398C4.2899 6.99398 4.07675 6.91201 3.9133 6.74976L2.24517 5.08623C2.1685 5.00928 2.107 4.91728 2.06487 4.81441C2.02275 4.71405 2.00084 4.60616 2.00084 4.49826C2.00084 4.49826 2 4.49743 2 4.49659C2 4.3887 2.02275 4.28081 2.06487 4.17877C2.107 4.07674 2.1685 3.98474 2.24517 3.90779L3.9133 2.24426C4.23935 1.91891 4.76759 1.91891 5.09363 2.24426C5.41968 2.56877 5.41968 3.09568 5.09363 3.42103L4.84931 3.66441H7.00694C7.46778 3.66441 7.841 4.03659 7.841 4.49659C7.841 4.95659 7.46778 5.32878 7.00694 5.32878Z" fill="#6B7084"/>
</svg>
