<svg width="24" height="24" viewBox="0 0 24 24" fill="none" xmlns="http://www.w3.org/2000/svg">
<path fill-rule="evenodd" clip-rule="evenodd" d="M19.6311 15.47C19.5488 15.9367 18.4703 20.3087 18.3474 20.8053C18.3441 20.8187 18.336 20.8287 18.3319 20.842C18.3218 20.8733 18.307 20.9007 18.2928 20.9307C18.2712 20.976 18.2476 21.018 18.2172 21.056C18.1976 21.08 18.1774 21.1013 18.1551 21.1227C18.1153 21.1607 18.0721 21.1913 18.0242 21.2187C18.008 21.2273 17.9972 21.2427 17.9796 21.2507C17.9142 21.2813 16.3322 22 14.0139 22C11.7915 22 10.2837 21.3453 10.1022 21.2627C10.1002 21.262 10.0981 21.2607 10.0961 21.26C10.0907 21.2573 10.0725 21.2493 10.0705 21.2487C10.032 21.2307 10.0057 21.1993 9.97194 21.1753C9.94089 21.1527 9.90445 21.1393 9.8761 21.11C9.83493 21.0673 8.86308 20.0587 7.76704 18.2513C6.76009 16.592 5.22604 15.1467 5.21119 15.132C4.94596 14.884 4.92841 14.47 5.1707 14.2007C6.13513 13.1307 8.18615 12.9987 9.31256 13.936L9.66958 14.2907V7.99666C9.66958 6.80866 10.4903 5.97933 11.6659 5.97933C12.8389 5.97933 13.6582 6.806 13.6582 7.98933V12.0513C13.8175 12.034 13.9869 12.03 14.1745 12.0613C14.7003 12.1493 15.0681 12.4287 15.3117 12.742C15.6539 12.6193 16.0703 12.566 16.5131 12.692C16.9747 12.8233 17.2865 13.0847 17.489 13.362C17.8136 13.2987 18.2192 13.292 18.6329 13.4733C19.407 13.8133 19.7904 14.5787 19.6311 15.47ZM18.0943 14.6933C17.8271 14.5773 17.4781 14.766 17.4748 14.768C17.2824 14.8773 17.0421 14.8853 16.8444 14.7867C16.6453 14.6873 16.5049 14.498 16.4766 14.2787C16.4678 14.2413 16.4098 14.05 16.1466 13.9747C15.8071 13.876 15.5013 14.144 15.4986 14.1473C15.3238 14.314 15.0735 14.374 14.8399 14.304C14.6085 14.2333 14.433 14.0433 14.383 13.806C14.3749 13.7773 14.2791 13.4307 13.9552 13.3767C13.6724 13.3307 13.4942 13.5007 13.4928 13.502C13.4881 13.5073 13.4807 13.5093 13.476 13.5147C13.4416 13.5513 13.399 13.5773 13.3565 13.6053C13.3261 13.626 13.2985 13.652 13.2654 13.6667C13.2296 13.6833 13.1898 13.6873 13.1507 13.6967C13.1048 13.7087 13.0602 13.7233 13.0123 13.7247C13.0049 13.7253 12.9988 13.7293 12.9907 13.7293C12.9563 13.7293 12.9266 13.7147 12.8935 13.7093C12.847 13.7027 12.8017 13.6987 12.7579 13.682C12.7113 13.6647 12.6722 13.6367 12.6317 13.61C12.6054 13.5927 12.575 13.5853 12.5507 13.564C12.5453 13.5587 12.5433 13.552 12.5379 13.5467C12.5007 13.5127 12.4758 13.47 12.4474 13.4287C12.4265 13.3973 12.4009 13.37 12.3853 13.3373C12.3691 13.3013 12.3651 13.262 12.3556 13.2233C12.3435 13.1767 12.3286 13.132 12.3273 13.084C12.3273 13.0767 12.3232 13.07 12.3232 13.0627V7.98933C12.3232 7.54 12.1019 7.31266 11.6659 7.31266C11.1192 7.31266 11.0045 7.68466 11.0045 7.99666V15.8193C11.0342 16.02 10.9829 16.2307 10.8283 16.3853C10.8243 16.3893 10.8189 16.3907 10.8148 16.394C10.694 16.5193 10.5253 16.598 10.337 16.598C10.1062 16.598 9.91318 16.474 9.79304 16.296L8.41287 14.92C8.02615 14.5987 7.28039 14.5447 6.71077 14.7487C7.29659 15.3647 8.20568 16.4007 8.90892 17.5613C9.7485 18.9447 10.5071 19.8213 10.7487 20.088C11.0943 20.2273 12.3172 20.6667 14.0139 20.6667C15.5067 20.6667 16.6345 20.332 17.1339 20.152C17.6084 18.2253 18.263 15.54 18.317 15.2367C18.3906 14.8233 18.1834 14.7327 18.0943 14.6933ZM9.03787 10.1613C8.93664 10.2167 8.8273 10.2427 8.71932 10.2427C8.4831 10.2427 8.25364 10.1173 8.13283 9.89467C7.81563 9.31467 7.64893 8.65667 7.64893 7.99333C7.64893 5.79133 9.44686 4 11.6558 4C13.8641 4 15.6607 5.79133 15.6607 7.99333C15.6607 8.56533 15.5419 9.11733 15.3077 9.63333C15.1558 9.96867 14.761 10.118 14.4249 9.966C14.0888 9.81467 13.9397 9.41933 14.0915 9.084C14.2467 8.74067 14.3257 8.37467 14.3257 7.99333C14.3257 6.52667 13.1278 5.33333 11.6558 5.33333C10.1825 5.33333 8.98455 6.52667 8.98455 7.99333C8.98455 8.43467 9.09524 8.872 9.30513 9.258C9.48195 9.58067 9.36182 9.986 9.03787 10.1613ZM15.9056 11.2433C15.5871 11.0593 15.4777 10.652 15.6627 10.3327C16.0717 9.62667 16.287 8.82067 16.287 8C16.287 5.42667 14.1907 3.33333 11.6139 3.33333C9.03717 3.33333 6.94026 5.42667 6.94026 8C6.94026 9.12067 7.34452 10.2047 8.07747 11.0513C8.3184 11.33 8.28871 11.7513 8.0093 11.992C7.88309 12.1013 7.72787 12.1547 7.57264 12.1547C7.38569 12.1547 7.19942 12.076 7.06781 11.924C6.1243 10.8347 5.60531 9.44133 5.60531 8C5.60531 4.69133 8.30018 2 11.6139 2C14.927 2 17.6226 4.69133 17.6226 8C17.6226 9.05467 17.3438 10.092 16.8181 11.0007C16.6338 11.3193 16.2269 11.4287 15.9056 11.2433Z" fill="#6B7084"/>
</svg>
