<svg viewBox="0 0 24 24" fill="none" xmlns="http://www.w3.org/2000/svg">
<path fill-rule="evenodd" clip-rule="evenodd" d="M21.3571 14.1752C21.2576 14.7332 19.9637 19.9727 19.8164 20.5685C19.8124 20.5845 19.8019 20.5974 19.797 20.6126C19.7857 20.6496 19.7679 20.6825 19.7517 20.7178C19.725 20.7724 19.6967 20.823 19.6595 20.8695C19.6368 20.8976 19.6125 20.9225 19.5858 20.9482C19.5381 20.994 19.4855 21.0309 19.428 21.063C19.4086 21.0743 19.3957 21.0927 19.3754 21.1024C19.2961 21.1385 17.3986 22 14.6167 22C11.944 22 10.1323 21.2116 9.92108 21.116C9.91947 21.1152 9.91866 21.1144 9.91785 21.1144C9.90976 21.1104 9.88791 21.1016 9.88467 21.1C9.83612 21.0767 9.80295 21.0381 9.76087 21.0076C9.72526 20.9819 9.684 20.9667 9.65163 20.9338C9.60227 20.8824 8.43625 19.6733 7.12135 17.5071C5.91326 15.5184 4.0724 13.7859 4.05459 13.769C3.73578 13.4711 3.71474 12.975 4.00604 12.6522C5.16316 11.3692 7.62466 11.2119 8.97597 12.3343L9.40402 12.7598V5.21606C9.40402 3.79258 10.3888 2.79863 11.7992 2.79863C13.2071 2.79863 14.1903 3.78937 14.1903 5.20803V10.0758C14.3812 10.0557 14.5843 10.0509 14.8101 10.0879C15.4412 10.193 15.8822 10.5286 16.1752 10.9036C16.5838 10.7574 17.0814 10.6908 17.6155 10.8442C18.1698 11.0015 18.5444 11.3146 18.7864 11.647C19.1772 11.5716 19.6643 11.5619 20.1595 11.7803C21.0893 12.189 21.5489 13.1066 21.3571 14.1752ZM19.5137 13.2431C19.1925 13.1042 18.7734 13.3298 18.7693 13.3322C18.5379 13.4639 18.2506 13.4735 18.0127 13.3539C17.774 13.2358 17.6057 13.0086 17.5709 12.7461C17.5612 12.7003 17.4924 12.4715 17.1752 12.3808C16.7674 12.266 16.4025 12.5839 16.3984 12.5879C16.1897 12.7895 15.8854 12.8601 15.6095 12.7758C15.3303 12.6915 15.1199 12.4635 15.0601 12.1793C15.0504 12.1448 14.9355 11.7289 14.5471 11.6638C14.2088 11.6076 14.0001 11.8067 13.9774 11.83C13.9742 11.834 13.9693 11.8348 13.9653 11.8381C13.8196 11.9906 13.6165 12.0869 13.3891 12.0869C12.9708 12.0869 12.6398 11.765 12.6018 11.3579C12.601 11.3443 12.5945 11.3314 12.5937 11.3178C12.5937 11.3074 12.5881 11.2985 12.5881 11.2881V5.20799C12.5881 4.66926 12.3226 4.39629 11.7991 4.39629C11.1437 4.39629 11.0061 4.84268 11.0061 5.21602V14.5935C11.0409 14.8344 10.9786 15.0856 10.7933 15.2711C10.7893 15.2751 10.7836 15.2759 10.7796 15.2799C10.6339 15.4301 10.4316 15.5248 10.205 15.5248C9.92669 15.5248 9.69446 15.3755 9.55042 15.1611L7.89729 13.5136C7.43201 13.1299 6.53626 13.0664 5.85332 13.3089C6.55649 14.0475 7.64725 15.2896 8.49122 16.6801C9.49864 18.3381 10.4081 19.389 10.6986 19.7086C11.1129 19.8747 12.5808 20.4022 14.6166 20.4022C16.4073 20.4022 17.7611 20.0008 18.3599 19.7856C18.9295 17.4758 19.7144 14.2579 19.78 13.8942C19.869 13.3988 19.6206 13.2896 19.5137 13.2431ZM7.0056 5.19521C6.80007 5.19521 6.59535 5.11733 6.43918 4.96157L6.20371 4.72714V8.39142C6.20371 8.83299 5.84606 9.19107 5.40263 9.19107C4.96001 9.19107 4.60155 8.83299 4.60155 8.39142V4.72714L4.36689 4.96157C4.05455 5.27308 3.5472 5.27308 3.23486 4.96157C2.92171 4.64926 2.92171 4.14345 3.23486 3.83114L4.83621 2.23424C4.90985 2.15957 4.99885 2.10096 5.09676 2.06082C5.29258 1.97973 5.51349 1.97973 5.70931 2.06082C5.80722 2.10096 5.89623 2.15957 5.96986 2.23424L7.57202 3.83114C7.88436 4.14345 7.88436 4.64926 7.57202 4.96157C7.41504 5.11733 7.21032 5.19521 7.0056 5.19521Z" fill="currentColor"/>
</svg>