<svg width="24" height="24" viewBox="0 0 24 24" fill="none" xmlns="http://www.w3.org/2000/svg">
<path fill-rule="evenodd" clip-rule="evenodd" d="M20.9581 14.1755C20.8607 14.733 19.595 19.9732 19.4509 20.5683C19.447 20.5843 19.4367 20.5971 19.4319 20.6123C19.4209 20.6499 19.4034 20.6827 19.3868 20.7179C19.3615 20.7723 19.333 20.8227 19.2974 20.8691C19.2752 20.8979 19.2515 20.9227 19.2253 20.9483C19.1778 20.9939 19.1272 21.0315 19.0702 21.0635C19.052 21.0747 19.0393 21.0923 19.0195 21.1019C18.9419 21.1386 17.0857 22.0001 14.3643 22.0001C11.7505 22.0001 9.97898 21.2122 9.7708 21.1155C9.76922 21.1147 9.76842 21.1147 9.76763 21.1139C9.75972 21.1107 9.73834 21.1011 9.73518 21.0995C9.68848 21.0771 9.65602 21.0387 9.61565 21.0083C9.58003 20.9819 9.53887 20.9667 9.50721 20.9339C9.45892 20.8827 8.31826 19.6732 7.03196 17.5071C5.85014 15.5185 4.04932 13.7859 4.0319 13.7691C3.72002 13.4716 3.69944 12.9756 3.98441 12.6525C5.11636 11.3702 7.52432 11.2126 8.84624 12.3349L9.26498 12.7605V5.21816C9.26498 3.79353 10.2283 2.80005 11.608 2.80005C12.9846 2.80005 13.9471 3.79033 13.9471 5.20856V10.076C14.1339 10.056 14.3326 10.0512 14.5543 10.0888C15.1709 10.1944 15.6023 10.5295 15.8889 10.9039C16.2886 10.7583 16.7754 10.6927 17.2979 10.8447C17.8401 11.0023 18.2066 11.315 18.4433 11.6478C18.8256 11.571 19.3021 11.563 19.7866 11.7814C20.6961 12.1893 21.1457 13.1068 20.9581 14.1755ZM19.1548 13.2426C18.8405 13.105 18.4305 13.3305 18.4266 13.3321C18.2002 13.4641 17.9192 13.4729 17.6864 13.3545C17.4529 13.2362 17.2883 13.009 17.2542 12.7458C17.2447 12.7002 17.1775 12.4714 16.8672 12.3819C16.4682 12.2667 16.1112 12.585 16.1072 12.5882C15.903 12.789 15.6054 12.861 15.3355 12.7762C15.0624 12.6922 14.8566 12.4634 14.798 12.1795C14.7885 12.1451 14.6761 11.7291 14.2961 11.6643C13.9653 11.606 13.761 11.8083 13.7389 11.8307C13.7357 11.8339 13.7309 11.8347 13.7278 11.8387C13.5845 11.9907 13.3866 12.0875 13.1634 12.0875C12.7549 12.0875 12.4304 11.7659 12.394 11.3596C12.3924 11.346 12.3861 11.3324 12.3853 11.3188C12.3853 11.3076 12.3797 11.2988 12.3797 11.2884V5.20832C12.3797 4.67078 12.1201 4.39722 11.608 4.39722C10.9668 4.39722 10.8322 4.84356 10.8322 5.21792V14.5936C10.8662 14.8344 10.8053 15.0855 10.624 15.2711C10.6201 15.2751 10.6145 15.2759 10.6098 15.2799C10.4673 15.4303 10.2694 15.5255 10.0486 15.5255C9.77625 15.5255 9.54828 15.3751 9.40817 15.1607L7.79099 13.5137C7.33584 13.1298 6.45957 13.0658 5.79148 13.3097C6.47936 14.0473 7.5464 15.2895 8.3728 16.6797C9.35751 18.3379 10.2472 19.3874 10.5314 19.7074C10.9367 19.8746 12.3726 20.4017 14.3642 20.4017C16.116 20.4017 17.4395 20.0009 18.026 19.7858C18.5833 17.4764 19.3511 14.2576 19.4152 13.8945C19.5023 13.3993 19.2585 13.2898 19.1548 13.2426ZM5.90546 8.95677C5.83343 9.03036 5.74636 9.08875 5.65058 9.12954C5.5548 9.17034 5.45268 9.19114 5.35136 9.19114C5.24925 9.19114 5.14714 9.17034 5.05136 9.12954C4.95558 9.08875 4.86851 9.03036 4.79568 8.95597L3.22916 7.35936C2.92361 7.04739 2.92361 6.54106 3.22916 6.22989C3.5355 5.91713 4.03181 5.91713 4.33736 6.22989L4.56692 6.46346V2.7999C4.56692 2.35756 4.91758 2 5.35136 2C5.78435 2 6.13423 2.35756 6.13423 2.7999V6.46346L6.36458 6.22989C6.67012 5.91713 7.16644 5.91713 7.47198 6.22989C7.77832 6.54106 7.77832 7.04739 7.47198 7.35936L5.90546 8.95677Z" fill="#6B7084"/>
</svg>
