<svg viewBox="0 0 24 24" fill="none" xmlns="http://www.w3.org/2000/svg">
<path fill-rule="evenodd" clip-rule="evenodd" d="M21.963 14.4762C21.8773 15.0119 20.7623 20.0505 20.6356 20.6224C20.6322 20.6378 20.6231 20.6502 20.6189 20.6648C20.6092 20.7011 20.5939 20.7328 20.5793 20.7667C20.5563 20.8192 20.5319 20.8678 20.5006 20.9118C20.4804 20.9396 20.4602 20.9636 20.4373 20.9883C20.3955 21.0322 20.3496 21.0685 20.3001 21.0994C20.2834 21.1102 20.273 21.1272 20.2556 21.1357C20.1874 21.1712 18.5517 22.0001 16.1539 22.0001C13.8529 22.0001 12.2931 21.243 12.1079 21.1496C12.1066 21.1488 12.1052 21.148 12.1038 21.1473C12.0975 21.1442 12.0787 21.1349 12.0759 21.1341C12.0349 21.1125 12.0063 21.0755 11.9708 21.0461C11.9395 21.0207 11.9033 21.006 11.8755 20.9744C11.833 20.925 10.8273 19.7626 9.69413 17.6794C8.65288 15.7667 7.06664 14.1011 7.05133 14.0849C6.7771 13.7985 6.759 13.3215 7.00957 13.0113C8.00697 11.7778 10.1285 11.6258 11.2929 12.7056L11.6618 13.1147V5.86167C11.6618 4.49165 12.5102 3.5361 13.7262 3.5361C14.9394 3.5361 15.7864 4.48933 15.7864 5.85318V10.5344C15.9514 10.5143 16.1268 10.5097 16.321 10.546C16.8646 10.6471 17.2453 10.9697 17.4973 11.3294C17.8494 11.1897 18.2789 11.1256 18.7383 11.2723C19.2164 11.4243 19.5394 11.7254 19.7475 12.0449C20.0851 11.9716 20.5041 11.9631 20.9307 12.173C21.7326 12.5651 22.1286 13.4481 21.963 14.4762ZM20.3744 13.5792C20.0973 13.4465 19.7368 13.6626 19.7326 13.6649C19.5336 13.7907 19.2858 13.8008 19.0805 13.6858C18.8751 13.5723 18.7304 13.3539 18.7004 13.1015C18.6914 13.0575 18.6322 12.8367 18.3594 12.751C18.0079 12.6391 17.6933 12.9456 17.6898 12.9494C17.5095 13.1424 17.2471 13.2111 17.0091 13.13C16.7697 13.0498 16.588 12.8298 16.5358 12.5565C16.5281 12.5234 16.4286 12.1235 16.0938 12.061C15.8022 12.0054 15.6226 12.1992 15.6031 12.2208C15.6003 12.2247 15.5962 12.2254 15.5927 12.2285C15.4674 12.3752 15.292 12.4678 15.0957 12.4678C14.7359 12.4678 14.4498 12.1583 14.4178 11.7669C14.4164 11.7538 14.4115 11.7415 14.4108 11.7284C14.4101 11.7183 14.4053 11.7098 14.4053 11.6998V5.85309C14.4053 5.33595 14.177 5.07275 13.7259 5.07275C13.1608 5.07275 13.0424 5.5019 13.0424 5.86158V14.8782C13.0717 15.109 13.0188 15.3506 12.8587 15.5289C12.8552 15.5328 12.8503 15.5343 12.8469 15.5382C12.7216 15.6825 12.5469 15.7736 12.352 15.7736C12.1119 15.7736 11.9114 15.63 11.7875 15.4232L10.3627 13.8393C9.96253 13.4712 9.19064 13.4094 8.60181 13.6425C9.20735 14.3526 10.1477 15.5474 10.875 16.8843C11.743 18.4781 12.5267 19.4877 12.7766 19.7957C13.1336 19.9554 14.399 20.4625 16.1537 20.4625C17.6975 20.4625 18.864 20.0766 19.3804 19.8698C19.8711 17.6492 20.5477 14.5548 20.6034 14.2052C20.6806 13.729 20.4662 13.624 20.3744 13.5792ZM8.70149 6.38484C8.56647 6.53458 8.39037 6.60945 8.21358 6.60945C8.03679 6.60945 7.86 6.53458 7.72567 6.38484C7.45561 6.08382 7.45561 5.59833 7.72567 5.29809L7.74098 5.28111C6.39278 5.72337 5.33413 6.90275 4.93809 8.39935L4.96384 8.37079C5.23321 8.07132 5.67031 8.07132 5.93967 8.37079C6.20973 8.67104 6.20973 9.1573 5.93967 9.45755L4.55945 10.9943C4.42443 11.144 4.24764 11.2189 4.07085 11.2189C3.89406 11.2189 3.71796 11.144 3.58293 10.9943L2.20202 9.45755C1.93266 9.1573 1.93266 8.67104 2.20202 8.37079C2.47208 8.07132 2.90849 8.07132 3.17854 8.37079L3.46182 8.68725C3.84464 6.09849 5.68005 4.05002 8.00756 3.62473L7.72567 3.31059C7.45561 3.01111 7.45561 2.52485 7.72567 2.22461C7.99503 1.92513 8.43213 1.92513 8.70149 2.22461L10.0824 3.76135C10.3525 4.06159 10.3525 4.54785 10.0824 4.84733L8.70149 6.38484Z" fill="currentColor"/>
</svg>