<svg width="24" height="24" viewBox="0 0 24 24" fill="none" xmlns="http://www.w3.org/2000/svg">
<path fill-rule="evenodd" clip-rule="evenodd" d="M18.4287 10.8888C16.4596 10.8888 14.8574 9.2273 14.8574 7.18508C14.8574 5.14285 16.4596 3.48137 18.4287 3.48137C20.3979 3.48137 22 5.14285 22 7.18508C22 9.2273 20.3979 10.8888 18.4287 10.8888ZM18.4288 4.963C17.2467 4.963 16.2861 5.96004 16.2861 7.18522C16.2861 8.41041 17.2467 9.40744 18.4288 9.40744C19.6101 9.40744 20.5714 8.41041 20.5714 7.18522C20.5714 5.96004 19.6101 4.963 18.4288 4.963ZM19.1425 7.92603H18.4286C18.0336 7.92603 17.7139 7.59492 17.7139 7.18529V6.44455C17.7139 6.03566 18.0336 5.70381 18.4286 5.70381C18.8235 5.70381 19.1425 6.03566 19.1425 6.44455C19.5375 6.44455 19.8572 6.77566 19.8572 7.18529C19.8572 7.59492 19.5375 7.92603 19.1425 7.92603ZM15.3613 12.4021C15.7104 12.3317 16.1441 12.3229 16.5857 12.5258C17.4151 12.9043 17.8244 13.7547 17.6538 14.7458C17.5649 15.2629 16.4115 20.1206 16.2803 20.6725C16.2767 20.6873 16.2674 20.6984 16.2631 20.7125C16.2524 20.748 16.2366 20.7791 16.2215 20.8117C16.1986 20.8621 16.1728 20.9088 16.1405 20.951C16.1197 20.9777 16.0982 21.0014 16.0739 21.0251C16.0316 21.0673 15.985 21.1014 15.9341 21.1317C15.9169 21.1414 15.9054 21.1584 15.8868 21.1673C15.8165 21.2014 14.1241 21.9999 11.6438 21.9999C9.26602 21.9999 7.65313 21.2725 7.45815 21.1806C7.45672 21.1799 7.45457 21.1784 7.45242 21.1777C7.44596 21.1747 7.42733 21.1658 7.42518 21.1651C7.3836 21.1451 7.35564 21.111 7.3198 21.0843C7.28611 21.0584 7.2474 21.0436 7.21729 21.011C7.17285 20.9636 6.13271 19.8429 4.96067 17.8347C3.88326 15.991 2.24241 14.3843 2.22592 14.3688C1.94205 14.0932 1.92342 13.6332 2.18291 13.334C3.21445 12.1451 5.40942 11.9984 6.61443 13.0399L6.99579 13.434V6.44063C6.99579 5.12063 7.87392 4.19915 9.13198 4.19915C10.3864 4.19915 11.2639 5.11766 11.2639 6.43248V10.9451C11.4345 10.9266 11.6151 10.9221 11.8165 10.9569C12.3786 11.0547 12.7721 11.3651 13.033 11.7132C13.3979 11.5769 13.8416 11.5162 14.3176 11.6577C14.8115 11.8036 15.1463 12.094 15.3613 12.4021ZM14.6716 13.9852C14.4587 13.8748 14.3089 13.6645 14.278 13.4208C14.2694 13.3793 14.2078 13.166 13.9254 13.083C13.5612 12.9741 13.2358 13.2711 13.2322 13.2748C13.0465 13.46 12.7763 13.5274 12.529 13.4489C12.2802 13.3704 12.0924 13.1593 12.0386 12.8956C12.0307 12.8637 11.9282 12.4785 11.5813 12.4185C11.2795 12.3645 11.0931 12.5504 11.0738 12.5719C11.0709 12.5756 11.0666 12.5763 11.0637 12.5793C10.9333 12.7208 10.7526 12.8104 10.549 12.8104C10.1763 12.8104 9.88022 12.5111 9.84725 12.1334C9.84581 12.1215 9.8408 12.1097 9.84008 12.0978C9.84008 12.0882 9.83506 12.0793 9.83506 12.0697V6.43262C9.83506 5.93336 9.5985 5.68077 9.13184 5.68077C8.5469 5.68077 8.42432 6.09411 8.42432 6.44077V15.1334C8.45514 15.3563 8.39994 15.5897 8.23435 15.7615C8.23077 15.7652 8.22575 15.7667 8.22217 15.7704C8.09242 15.9097 7.91177 15.9978 7.71034 15.9978C7.46231 15.9978 7.25443 15.8586 7.12612 15.66L5.65229 14.1326C5.23724 13.7771 4.43939 13.7185 3.83008 13.943C4.4566 14.6274 5.43007 15.7786 6.18275 17.0682C7.08024 18.6052 7.8917 19.5793 8.14977 19.8756C8.51966 20.0297 9.82861 20.5185 11.6437 20.5185C13.2408 20.5185 14.4472 20.1467 14.9813 19.9467C15.4895 17.806 16.1891 14.8223 16.2472 14.4852C16.3268 14.026 16.1053 13.9252 16.0099 13.8815C15.7225 13.7541 15.3504 13.9623 15.3461 13.9645C15.1404 14.086 14.8838 14.0948 14.6716 13.9852ZM12.0839 8.62889C11.7247 8.46074 11.5649 8.02148 11.7276 7.64889C11.8932 7.26741 11.9778 6.86074 11.9778 6.43704C11.9778 4.80741 10.6961 3.48148 9.12117 3.48148C7.54555 3.48148 6.26384 4.80741 6.26384 6.43704C6.26384 6.92741 6.38211 7.41333 6.60649 7.84222C6.79502 8.20222 6.6667 8.65111 6.31975 8.84667C6.21079 8.90741 6.09466 8.9363 5.97925 8.9363C5.7262 8.9363 5.48104 8.7963 5.3513 8.54963C5.01366 7.90444 4.83517 7.17333 4.83517 6.43704C4.83517 3.99037 6.75774 2 9.12117 2C11.4839 2 13.4064 3.99037 13.4064 6.43704C13.4064 7.07259 13.2796 7.68593 13.0287 8.25926C12.8667 8.63185 12.443 8.79778 12.0839 8.62889Z" fill="#6B7084"/>
</svg>
