<svg width="24" height="24" viewBox="0 0 24 24" fill="none" xmlns="http://www.w3.org/2000/svg">
<path fill-rule="evenodd" clip-rule="evenodd" d="M20.2567 14.7459C20.1645 15.263 18.9662 20.1207 18.8305 20.6726C18.8267 20.6874 18.817 20.6985 18.8125 20.7133C18.8012 20.7481 18.7855 20.7785 18.769 20.8118C18.745 20.8622 18.7187 20.9089 18.685 20.9511C18.664 20.9778 18.6407 21.0015 18.616 21.0252C18.5717 21.0674 18.5238 21.1015 18.4705 21.1318C18.4525 21.1415 18.4405 21.1585 18.4218 21.1674C18.3483 21.2015 16.5905 22 14.0147 22C11.5453 22 9.87006 21.2726 9.66834 21.1807C9.66609 21.18 9.66459 21.1785 9.66234 21.1778C9.65559 21.1748 9.63609 21.1659 9.63384 21.1652C9.5911 21.1452 9.56185 21.1104 9.52436 21.0837C9.48911 21.0585 9.44937 21.0437 9.41788 21.0111C9.37213 20.9637 8.29229 19.843 7.07448 17.8348C5.95565 15.9911 4.25115 14.3844 4.23466 14.3689C3.93995 14.0933 3.92045 13.6333 4.18966 13.3341C5.26125 12.1444 7.54091 11.9985 8.79172 13.04L9.18841 13.4341V6.44074C9.18841 5.12074 10.1003 4.19925 11.4066 4.19925C12.7099 4.19925 13.6202 5.11777 13.6202 6.43259V10.9459C13.7972 10.9267 13.9854 10.9222 14.1947 10.957C14.7781 11.0548 15.1868 11.3652 15.4582 11.7133C15.8377 11.5778 16.2973 11.5163 16.7915 11.6578C17.3052 11.8037 17.6524 12.0941 17.8759 12.4022C18.2373 12.3318 18.688 12.323 19.1477 12.5259C20.0085 12.9044 20.4337 13.7548 20.2567 14.7459ZM18.55 13.8815C18.2522 13.7526 17.8646 13.9622 17.8601 13.9644C17.6471 14.0852 17.3794 14.0948 17.1597 13.9852C16.9384 13.8748 16.7832 13.6644 16.751 13.4207C16.7412 13.3793 16.6775 13.1659 16.3843 13.083C16.0086 12.9741 15.6689 13.2718 15.6651 13.2748C15.4717 13.46 15.1905 13.5267 14.934 13.4489C14.676 13.3704 14.4811 13.1593 14.4256 12.8956C14.4166 12.8637 14.3101 12.4785 13.9501 12.4185C13.6359 12.363 13.4432 12.5504 13.423 12.5718C13.42 12.5756 13.4155 12.5763 13.4125 12.5793C13.2775 12.7207 13.0893 12.8104 12.8786 12.8104C12.4909 12.8104 12.1834 12.5111 12.1497 12.1341C12.1482 12.1215 12.1429 12.1104 12.1422 12.0978C12.1414 12.0874 12.1362 12.0793 12.1362 12.0696V6.43259C12.1362 5.93333 11.891 5.68074 11.4065 5.68074C10.7991 5.68074 10.6716 6.09407 10.6716 6.44074V15.1333C10.7039 15.3563 10.6469 15.5896 10.4744 15.7615C10.4707 15.7652 10.4654 15.7667 10.4617 15.7704C10.3267 15.9096 10.1392 15.9978 9.93 15.9978C9.67204 15.9978 9.45683 15.8585 9.32335 15.66L7.79283 14.1326C7.36164 13.777 6.53227 13.7185 5.90086 13.943C6.55101 14.6274 7.56186 15.7785 8.34324 17.0681C9.27535 18.6052 10.1175 19.5785 10.3867 19.8748C10.7706 20.0296 12.1294 20.5185 14.0146 20.5185C15.6734 20.5185 16.9264 20.1467 17.4814 19.9467C18.0085 17.8059 18.7359 14.8222 18.7959 14.4852C18.8784 14.0259 18.6482 13.9252 18.55 13.8815ZM14.4721 8.62889C14.0986 8.46074 13.9329 8.02148 14.1016 7.64889C14.2741 7.26741 14.3619 6.86074 14.3619 6.43704C14.3619 4.80741 13.0308 3.48148 11.3953 3.48148C9.75905 3.48148 8.42725 4.80741 8.42725 6.43704C8.42725 6.92741 8.55098 7.41333 8.7842 7.84222C8.97992 8.20074 8.84719 8.65037 8.48724 8.84593C8.37476 8.90741 8.25328 8.9363 8.1333 8.9363C7.87008 8.9363 7.61587 8.79704 7.48164 8.54963C7.1292 7.90519 6.94397 7.17407 6.94397 6.43704C6.94397 3.99037 8.94092 2 11.3953 2C13.8489 2 15.8451 3.99037 15.8451 6.43704C15.8451 7.07259 15.7139 7.68593 15.4537 8.25926C15.285 8.63111 14.8448 8.79778 14.4721 8.62889Z" fill="#6B7084"/>
</svg>
