<svg viewBox="0 0 24 24" fill="none" xmlns="http://www.w3.org/2000/svg">
<path fill-rule="evenodd" clip-rule="evenodd" d="M21.9553 13.8504C21.8521 14.4308 20.504 19.889 20.3513 20.5087C20.3471 20.5255 20.3361 20.5389 20.3311 20.5547C20.3185 20.5941 20.3009 20.6275 20.2833 20.6643C20.2556 20.7212 20.2262 20.7739 20.1876 20.8224C20.1641 20.8517 20.1381 20.8784 20.1104 20.9044C20.0608 20.952 20.0063 20.9905 19.9467 21.0248C19.9265 21.0357 19.9131 21.0549 19.8913 21.0649C19.809 21.1026 17.8323 22 14.9348 22C12.1506 22 10.2637 21.1787 10.0438 21.0792C10.0421 21.0783 10.0412 21.0783 10.0404 21.0775C10.0328 21.0741 10.0093 21.0641 10.006 21.0624C9.95562 21.039 9.92037 20.9989 9.87672 20.9662C9.83979 20.9395 9.79698 20.9236 9.76341 20.8893C9.76173 20.8876 9.74662 20.8709 9.74074 20.865C9.60392 20.7229 8.44307 19.4875 7.12694 17.3205C5.86956 15.2488 3.95159 13.4447 3.93312 13.4272C3.60157 13.1169 3.57975 12.6 3.88276 12.2638C5.0881 10.9281 7.65238 10.7633 9.05917 11.9334L9.50488 12.3758V4.51895C9.50488 3.03606 10.5306 2.00063 12.0003 2.00063C13.4659 2.00063 14.4908 3.03271 14.4908 4.50975V9.58069C14.6897 9.55894 14.9012 9.55392 15.1371 9.59323C15.7935 9.7028 16.2534 10.0524 16.5581 10.443C16.9837 10.2899 17.5024 10.2213 18.0581 10.3803C18.6356 10.545 19.0259 10.8704 19.2777 11.2175C19.6848 11.138 20.1918 11.128 20.708 11.3563C21.6766 11.7803 22.1551 12.7372 21.9553 13.8504ZM20.0356 12.8785C19.7007 12.7347 19.265 12.9697 19.26 12.9713C19.0191 13.1085 18.7194 13.1185 18.4718 12.9948C18.2234 12.8718 18.0479 12.6351 18.0127 12.3608C18.0018 12.314 17.9296 12.0748 17.5997 11.9819C17.175 11.8598 16.7948 12.1935 16.7906 12.1969C16.5732 12.406 16.2559 12.4804 15.9688 12.3926C15.6784 12.3048 15.4593 12.0672 15.3964 11.7711C15.3871 11.7352 15.2671 11.3019 14.8617 11.235C14.51 11.1748 14.2926 11.3839 14.2691 11.4082C14.2649 11.4115 14.2599 11.4123 14.2565 11.4165C14.1046 11.5746 13.8931 11.675 13.6563 11.675C13.2216 11.675 12.8766 11.3404 12.8371 10.9172C12.8354 10.903 12.8287 10.8888 12.8279 10.8746C12.8279 10.8628 12.822 10.8536 12.822 10.8428V4.50975C12.822 3.94938 12.545 3.66501 12.0003 3.66501C11.317 3.66501 11.1743 4.13004 11.1743 4.51895V14.2861C11.2096 14.5362 11.1458 14.798 10.9519 14.9912C10.9477 14.9954 10.9418 14.9962 10.9376 15.0004C10.7857 15.1576 10.575 15.2563 10.3391 15.2563C10.0496 15.2563 9.80698 15.0999 9.65758 14.8766L7.93602 13.1612C7.4517 12.7606 6.51832 12.6953 5.80737 12.9479C6.53931 13.7166 7.67582 15.0104 8.55464 16.459C9.60302 18.1853 10.5507 19.2793 10.8528 19.613C11.2843 19.7861 12.8136 20.3356 14.9347 20.3356C16.7998 20.3356 18.2099 19.9183 18.8336 19.6941C19.427 17.2887 20.2446 13.9357 20.3126 13.5576C20.4057 13.0416 20.1464 12.9279 20.0356 12.8785ZM7.77656 4.81503C7.73459 4.91706 7.67332 5.00906 7.5961 5.08601L5.92743 6.74956C5.76459 6.91265 5.55139 6.99378 5.33819 6.99378C5.12415 6.99378 4.91094 6.91265 4.74811 6.74956C4.42243 6.42505 4.42243 5.89813 4.74811 5.57362L4.99236 5.3294H2.83434C2.37352 5.3294 2 4.95721 2 4.4972C2 4.0372 2.37352 3.66501 2.83434 3.66501H4.99236L4.74811 3.42079C4.42243 3.09628 4.42243 2.56936 4.74811 2.24401C5.07378 1.91866 5.60175 1.91866 5.92743 2.24401L7.5961 3.90756C7.67332 3.98451 7.73459 4.07734 7.77656 4.17938C7.81853 4.28058 7.84036 4.38764 7.84036 4.49469C7.84036 4.49553 7.84119 4.49637 7.84119 4.4972C7.84119 4.6051 7.81937 4.71382 7.77656 4.81503Z" fill="currentColor"/>
</svg>