<svg viewBox="0 0 24 24" fill="none" xmlns="http://www.w3.org/2000/svg">
<path fill-rule="evenodd" clip-rule="evenodd" d="M21.23 6.44443H19.6901C19.2639 6.44443 18.9194 6.11257 18.9194 5.70369C18.9194 5.29406 19.2639 4.96294 19.6901 4.96294H21.23C21.6555 4.96294 22 5.29406 22 5.70369C22 6.11257 21.6555 6.44443 21.23 6.44443ZM17.3973 20.6727C17.3935 20.6875 17.3834 20.6986 17.3788 20.7134C17.368 20.7482 17.351 20.7786 17.334 20.8119C17.3093 20.8623 17.2815 20.909 17.2467 20.9512C17.2244 20.9779 17.2012 21.0016 17.1749 21.0253C17.1294 21.0675 17.0792 21.1016 17.0243 21.1319C17.0058 21.1416 16.9934 21.1586 16.9734 21.1675C16.8969 21.2016 15.0728 22.0001 12.3985 22.0001C9.83461 22.0001 8.09548 21.2727 7.88543 21.1808C7.88311 21.1801 7.88157 21.1786 7.87925 21.1779C7.8723 21.1749 7.85222 21.166 7.84913 21.1653C7.80511 21.1453 7.77422 21.1105 7.73561 21.0838C7.69931 21.0586 7.65761 21.0438 7.62518 21.0112C7.57807 20.9638 6.45675 19.8431 5.19179 17.8349C4.03109 15.9912 2.26107 14.3845 2.24408 14.369C1.93749 14.0934 1.91741 13.6334 2.19697 13.3342C3.3098 12.1453 5.67677 11.9986 6.97571 13.0401L7.38655 13.4342V6.44083C7.38655 5.12083 8.33411 4.19935 9.6902 4.19935C11.0432 4.19935 11.9884 5.11786 11.9884 6.43268V10.9445C12.1722 10.926 12.3676 10.9223 12.5846 10.9571C13.1908 11.0549 13.6148 11.3653 13.8967 11.7134C14.2905 11.5779 14.7678 11.5164 15.2814 11.6579C15.8142 11.8038 16.1749 12.0942 16.4065 12.4023C16.7826 12.3319 17.2498 12.323 17.7271 12.526C18.6214 12.9045 19.0623 13.7549 18.8785 14.746C18.7828 15.263 17.5387 20.1208 17.3973 20.6727ZM17.1061 13.8814C16.7972 13.7526 16.3949 13.9622 16.3903 13.9644C16.1694 14.0851 15.8914 14.0948 15.6628 13.9851C15.4334 13.8748 15.272 13.6644 15.2388 13.4207C15.2288 13.3792 15.1631 13.1659 14.8581 13.0829C14.4681 12.9748 14.1152 13.2718 14.1113 13.2748C13.9105 13.46 13.6186 13.5259 13.353 13.4488C13.085 13.3703 12.8827 13.1592 12.8247 12.8955C12.8155 12.8637 12.705 12.4785 12.3313 12.4185C12.0046 12.3637 11.8046 12.5503 11.7837 12.5718C11.7806 12.5755 11.776 12.5763 11.7721 12.5792C11.6324 12.7207 11.437 12.8103 11.2184 12.8103C10.8153 12.8103 10.4956 12.5103 10.4608 12.1326C10.4601 12.1207 10.4547 12.1096 10.4539 12.0977C10.4531 12.0881 10.4477 12.0792 10.4477 12.0696V6.43255C10.4477 5.93329 10.1929 5.6807 9.69014 5.6807C9.0592 5.6807 8.92714 6.09403 8.92714 6.4407V15.1333C8.96035 15.3563 8.90089 15.5896 8.7225 15.7614C8.71863 15.7651 8.71323 15.7666 8.70859 15.7703C8.56882 15.9096 8.37421 15.9977 8.1572 15.9977C7.88923 15.9977 7.66605 15.8585 7.52781 15.66L5.9385 14.1326C5.49059 13.777 4.62952 13.7185 3.97388 13.9429C4.64883 14.6274 5.69833 15.7785 6.50997 17.0681C7.47761 18.6051 8.35258 19.5792 8.63137 19.8755C9.03063 20.0296 10.4415 20.5185 12.3984 20.5185C14.1198 20.5185 15.4211 20.1466 15.9972 19.9466C16.5447 17.8059 17.3 14.8222 17.3618 14.4851C17.4475 14.0259 17.2088 13.9251 17.1061 13.8814ZM17.3797 6.44443H15.839C15.4135 6.44443 15.0691 6.11257 15.0691 5.70369C15.0691 5.29406 15.4135 4.96294 15.839 4.96294H17.3797C17.8052 4.96294 18.1496 5.29406 18.1496 5.70369C18.1496 6.11257 17.8052 6.44443 17.3797 6.44443ZM12.8727 8.62889C12.4858 8.46074 12.3136 8.02148 12.4881 7.64889C12.6672 7.26741 12.7584 6.86074 12.7584 6.43704C12.7584 4.80741 11.3768 3.48148 9.67861 3.48148C7.97964 3.48148 6.5973 4.80741 6.5973 6.43704C6.5973 6.92741 6.72472 7.41333 6.96721 7.84222C7.17108 8.20074 7.03285 8.65037 6.65908 8.84593C6.54247 8.90741 6.41582 8.9363 6.29148 8.9363C6.01887 8.9363 5.75399 8.79704 5.61498 8.54963C5.24971 7.90519 5.05664 7.17407 5.05664 6.43704C5.05664 3.99037 7.13016 2 9.67861 2C12.2263 2 14.299 3.99037 14.299 6.43704C14.299 7.07259 14.1616 7.68593 13.8921 8.25926C13.7167 8.63185 13.2603 8.79852 12.8727 8.62889Z" fill="currentColor"/>
</svg>