<svg viewBox="0 0 24 24" fill="none" xmlns="http://www.w3.org/2000/svg">
<path fill-rule="evenodd" clip-rule="evenodd" d="M21.9603 13.8496C21.8683 14.4309 20.6706 19.8882 20.5345 20.5088C20.5307 20.5255 20.521 20.538 20.5165 20.5548C20.5053 20.5932 20.4896 20.6275 20.4739 20.6643C20.4492 20.7212 20.423 20.7739 20.3886 20.8216C20.3677 20.8517 20.3452 20.8776 20.3205 20.9044C20.2764 20.952 20.2278 20.9905 20.1746 21.024C20.1567 21.0357 20.1447 21.0541 20.126 21.0641C20.0527 21.1026 18.2955 22 15.7198 22C13.2459 22 11.5687 21.1787 11.3727 21.0783C11.372 21.0783 11.3712 21.0775 11.3705 21.0775C11.363 21.0733 11.3428 21.0633 11.3398 21.0624C11.2949 21.0382 11.2635 20.998 11.2254 20.9663C11.1917 20.9387 11.1536 20.9236 11.1236 20.8885C11.078 20.8358 9.99852 19.5762 8.78064 17.3205C7.66301 15.248 5.95889 13.444 5.94168 13.4264C5.64694 13.117 5.62749 12.6001 5.8968 12.263C6.96805 10.9274 9.24745 10.7634 10.4982 11.9327L10.8947 12.3759V4.51913C10.8947 3.03542 11.8059 2 13.112 2C14.4152 2 15.3256 3.03207 15.3256 4.50993V9.57914C15.5029 9.55823 15.6907 9.55321 15.9001 9.59252C16.4836 9.70292 16.8921 10.0517 17.1629 10.4414C17.5422 10.2901 18.0022 10.2215 18.496 10.3804C19.0099 10.5443 19.357 10.8705 19.5807 11.2159C19.9427 11.1381 20.3923 11.1281 20.8517 11.3556C21.7127 11.7805 22.1376 12.7364 21.9603 13.8496ZM20.254 12.8787C19.957 12.7356 19.568 12.9698 19.5642 12.9715C19.351 13.1087 19.084 13.1179 18.864 12.9949C18.6433 12.8711 18.4877 12.6344 18.4556 12.361C18.4466 12.3141 18.3823 12.0749 18.089 11.9812C17.7135 11.8608 17.3738 12.1928 17.3701 12.197C17.1764 12.4053 16.8966 12.4806 16.6392 12.3927C16.3811 12.3049 16.1866 12.0666 16.1305 11.7705C16.1223 11.7354 16.0153 11.3021 15.6555 11.2344C15.3413 11.1733 15.1483 11.3832 15.1281 11.4075C15.1251 11.4108 15.1206 11.4125 15.1176 11.4159C14.983 11.5739 14.7945 11.6751 14.5835 11.6751C14.1968 11.6751 13.89 11.3398 13.8549 10.9157C13.8541 10.9015 13.8481 10.8881 13.8481 10.8739C13.8474 10.863 13.8422 10.8538 13.8422 10.843V4.50999C13.8422 3.94879 13.5968 3.66443 13.112 3.66443C12.5053 3.66443 12.3774 4.12945 12.3774 4.51919V14.2854C12.4096 14.5363 12.3527 14.7981 12.1807 14.9905C12.1769 14.9947 12.1717 14.9963 12.168 15.0005C12.0326 15.1569 11.8455 15.2556 11.6361 15.2556C11.3787 15.2556 11.1625 15.1 11.0301 14.8759L9.49956 13.1605C9.06867 12.7616 8.23979 12.6947 7.60767 12.9481C8.2585 13.7167 9.2684 15.0106 10.0501 16.4583C10.9815 18.1854 11.8238 19.2785 12.0924 19.6122C12.4762 19.7862 13.8347 20.3357 15.7198 20.3357C17.3783 20.3357 18.6314 19.9175 19.1857 19.6934C19.7131 17.288 20.4402 13.9358 20.5001 13.5578C20.5824 13.0409 20.3527 12.9272 20.254 12.8787ZM8.67357 5.88324C8.26362 5.88324 7.93222 5.51106 7.93222 5.05106V4.84113L6.97319 5.91753C6.82806 6.07979 6.63879 6.16092 6.44878 6.16092C6.25877 6.16092 6.06951 6.07979 5.92438 5.91753C5.63487 5.59219 5.63487 5.06611 5.92438 4.74077L6.88342 3.66437H6.69565C6.2857 3.66437 5.9543 3.29218 5.9543 2.83218C5.9543 2.37218 6.2857 2 6.69565 2H8.67357C8.77007 2 8.86658 2.02175 8.95709 2.0644C9.13888 2.14887 9.28326 2.31113 9.35806 2.51436C9.39472 2.61389 9.41342 2.71927 9.41417 2.82549C9.41417 2.828 9.41567 2.82967 9.41567 2.83218V5.05106C9.41567 5.51106 9.08352 5.88324 8.67357 5.88324ZM4.53077 8.65741H4.71854C5.12849 8.65741 5.45989 9.03043 5.45989 9.49043C5.45989 9.9496 5.12849 10.3226 4.71854 10.3226H2.74137C2.70696 10.3226 2.67778 10.3059 2.64412 10.3C2.58128 10.2908 2.51844 10.2858 2.45859 10.2582C2.27681 10.1746 2.13243 10.0123 2.05687 9.80825C2.01872 9.70538 1.99927 9.59581 2.00002 9.48541V7.27072C2.00002 6.81072 2.33142 6.43854 2.74137 6.43854C3.15132 6.43854 3.48271 6.81072 3.48271 7.27072V7.47981L4.441 6.40508C4.73126 6.07974 5.20031 6.07974 5.48981 6.40508C5.77932 6.72959 5.77932 7.25734 5.48981 7.58185L4.53077 8.65741Z" fill="currentColor"/>
</svg>