<svg width="24" height="24" viewBox="0 0 24 24" fill="none" xmlns="http://www.w3.org/2000/svg">
<path fill-rule="evenodd" clip-rule="evenodd" d="M19.1356 15.2536C19.0497 15.7349 17.934 20.2518 17.807 20.7656C17.8035 20.7794 17.7951 20.7897 17.7909 20.8035C17.7804 20.8359 17.7651 20.8642 17.7504 20.8952C17.7281 20.9414 17.7036 20.9849 17.6722 21.0249C17.652 21.0497 17.631 21.0711 17.608 21.0931C17.5668 21.1325 17.5214 21.1649 17.4718 21.1925C17.4551 21.2021 17.4446 21.2173 17.4265 21.2256C17.3587 21.2573 15.7222 22 13.324 22C11.0208 22 9.45964 21.3214 9.27602 21.2373C9.27532 21.2373 9.27393 21.2366 9.27323 21.2359C9.26625 21.2331 9.2474 21.2249 9.2453 21.2235C9.20341 21.2042 9.17549 21.1718 9.13988 21.1456C9.10846 21.1228 9.07216 21.1097 9.04423 21.0807C9.00164 21.0373 7.99558 19.9939 6.86245 18.1265C5.82077 16.4114 4.23383 14.9177 4.21847 14.9032C3.94409 14.6467 3.92594 14.2191 4.17658 13.9405C5.17427 12.8344 7.29671 12.6986 8.46126 13.6668L8.82989 14.0329V7.52926C8.82989 6.30175 9.67956 5.44457 10.8951 5.44457C12.1085 5.44457 12.9568 6.299 12.9568 7.52236V11.7193C13.1215 11.7014 13.2968 11.6979 13.4916 11.7297C14.0348 11.8207 14.4153 12.1096 14.6673 12.4331C15.0206 12.3069 15.4492 12.2503 15.9093 12.382C16.3876 12.5179 16.7108 12.7875 16.9189 13.0737C17.2561 13.0089 17.6757 13.0013 18.1023 13.1889C18.9045 13.5413 19.3004 14.3315 19.1356 15.2536ZM17.5458 14.4494C17.2686 14.3315 16.9084 14.5253 16.9042 14.526C16.7052 14.6398 16.4567 14.648 16.2521 14.546C16.0461 14.4439 15.9009 14.2481 15.8716 14.0212C15.8625 13.9826 15.8032 13.7846 15.5302 13.7067C15.179 13.6067 14.8641 13.8819 14.8606 13.8853C14.6805 14.0584 14.418 14.1198 14.1799 14.0474C13.9398 13.975 13.7582 13.7777 13.7066 13.5329C13.6982 13.5033 13.5991 13.1447 13.2639 13.0888C12.9728 13.0371 12.7927 13.2123 12.7731 13.2323C12.7703 13.235 12.7661 13.2357 12.7626 13.2385C12.637 13.3702 12.4624 13.4529 12.2655 13.4529C11.9053 13.4529 11.6197 13.1757 11.5876 12.8247C11.5862 12.813 11.5813 12.8026 11.5806 12.7902C11.5799 12.7813 11.5751 12.7737 11.5751 12.7647V7.52232C11.5751 7.05752 11.3468 6.82237 10.895 6.82237C10.3302 6.82237 10.2115 7.20786 10.2115 7.52921V15.6142C10.2416 15.8217 10.1885 16.0383 10.0279 16.1983C10.0244 16.2017 10.0195 16.2031 10.016 16.2065C9.89037 16.3355 9.71583 16.4176 9.52104 16.4176C9.28087 16.4176 9.08049 16.2886 8.95692 16.1038L7.53125 14.6832C7.1305 14.3529 6.35833 14.2977 5.76977 14.5067C6.37508 15.1432 7.31622 16.2141 8.04371 17.4134C8.91154 18.8429 9.69628 19.7484 9.94622 20.0242C10.3037 20.1677 11.5688 20.6221 13.324 20.6221C14.8683 20.6221 16.035 20.2766 16.5516 20.0904C17.0424 18.0995 17.7197 15.3245 17.7755 15.0115C17.8523 14.5839 17.638 14.4901 17.5458 14.4494ZM15.7405 7.51139H14.3595C13.9776 7.51139 13.669 7.20314 13.669 6.82247C13.669 6.44181 13.9776 6.13355 14.3595 6.13355H15.7405C16.1224 6.13355 16.4316 6.44181 16.4316 6.82247C16.4316 7.20314 16.1224 7.51139 15.7405 7.51139ZM13.8484 4.92604C13.713 5.07086 13.5286 5.14327 13.345 5.14327C13.1754 5.14327 13.005 5.08189 12.8724 4.95639C12.5945 4.6964 12.5805 4.25988 12.8416 3.98266L13.8561 2.90618C14.1172 2.62827 14.5556 2.61586 14.8321 2.87584C15.11 3.13651 15.124 3.57234 14.8628 3.84957L13.8484 4.92604ZM10.9063 4.75567C10.5244 4.75567 10.2158 4.44742 10.2158 4.06675V2.68961C10.2158 2.30825 10.5244 2 10.9063 2C11.2882 2 11.5968 2.30825 11.5968 2.68961V4.06675C11.5968 4.44742 11.2882 4.75567 10.9063 4.75567ZM8.46759 5.14327C8.28328 5.14327 8.09966 5.07086 7.96421 4.92604L6.94977 3.84957C6.68865 3.57234 6.70262 3.13651 6.98049 2.87584C7.25696 2.61586 7.69611 2.62827 7.95653 2.90618L8.97028 3.98266C9.23139 4.25988 9.21813 4.6964 8.94025 4.95639C8.8076 5.08189 8.63725 5.14327 8.46759 5.14327ZM8.14366 6.82247C8.14366 7.20314 7.83506 7.51139 7.45317 7.51139H6.07149C5.69028 7.51139 5.38099 7.20314 5.38099 6.82247C5.38099 6.44181 5.69028 6.13355 6.07149 6.13355H7.45317C7.83506 6.13355 8.14366 6.44181 8.14366 6.82247Z" fill="#6B7084"/>
</svg>
