<svg width="24" height="24" viewBox="0 0 24 24" fill="none" xmlns="http://www.w3.org/2000/svg">
<path fill-rule="evenodd" clip-rule="evenodd" d="M20.9584 13.8507C20.863 14.4315 19.6129 19.8885 19.4705 20.5085C19.4674 20.5251 19.4572 20.5376 19.4525 20.5535C19.4408 20.5935 19.4235 20.6293 19.4071 20.6668C19.3821 20.7226 19.3547 20.7743 19.3195 20.8209C19.2976 20.8518 19.2733 20.8784 19.2467 20.9059C19.2014 20.9526 19.1521 20.9901 19.0973 21.0242C19.0778 21.0359 19.0653 21.0551 19.0441 21.0651C18.9675 21.1034 17.1346 22 14.4474 22C11.8659 22 10.1175 21.1801 9.91175 21.0792C9.91096 21.0784 9.9094 21.0776 9.90862 21.0776C9.90158 21.0742 9.87967 21.0642 9.87733 21.0626C9.83117 21.0392 9.7991 21.0001 9.75998 20.9684C9.724 20.9409 9.68332 20.9243 9.65125 20.8893C9.60431 20.8368 8.47782 19.5769 7.20739 17.3212C6.04022 15.2489 4.26287 13.4449 4.24409 13.4274C3.93744 13.1174 3.9171 12.5999 4.19794 12.2633C5.31426 10.9268 7.6924 10.7634 8.99882 11.9325L9.44942 12.4158V4.50229C9.44942 3.01908 10.3639 2 11.7259 2C13.0863 2 14.1431 3.02491 14.1431 4.50229V9.56687C14.2972 9.55854 14.4592 9.56104 14.6352 9.5927C15.2438 9.70186 15.6701 10.0518 15.9533 10.4426C16.3492 10.2893 16.8311 10.2235 17.3442 10.381C17.8801 10.5451 18.2415 10.8709 18.4762 11.2176C18.8525 11.1359 19.3218 11.1284 19.8022 11.3559C20.701 11.7809 21.1438 12.7374 20.9584 13.8507ZM19.178 12.879C18.8713 12.7332 18.4708 12.964 18.4669 12.9665C18.2424 13.1115 17.9654 13.124 17.7315 13.0023C17.4969 12.8799 17.3349 12.639 17.3013 12.3607C17.2919 12.3132 17.2254 12.0749 16.9195 11.9816C16.5245 11.8591 16.1732 12.1933 16.1693 12.1966C15.9667 12.4057 15.6749 12.4807 15.4066 12.3932C15.1375 12.3049 14.9349 12.0666 14.8754 11.7716C14.8668 11.735 14.7557 11.3025 14.3802 11.235C14.2801 11.2167 14.1964 11.2275 14.1213 11.2467C14.0626 11.62 13.659 11.675 13.2616 11.675C12.8509 11.675 12.6052 11.6225 12.5857 11.2108C12.4738 10.9825 12.4738 10.7175 12.5786 10.4834V4.50223C12.5786 3.94144 12.2321 3.66479 11.7259 3.66479C11.0931 3.66479 10.9601 4.12892 10.9601 4.51889V14.2856C10.9937 14.5364 10.9343 14.798 10.7551 14.9914C10.7504 14.9955 10.745 14.9972 10.7403 15.0014C10.5995 15.1572 10.4047 15.2563 10.1864 15.2563C9.88132 15.2563 9.64272 15.1013 9.52694 14.8489L7.9569 13.1607C7.50709 12.7615 6.64266 12.6974 5.98319 12.9474C6.66144 13.7173 7.71596 15.0105 8.5311 16.4587C9.50426 18.1861 10.3835 19.2802 10.6628 19.6135C11.0649 19.7868 12.4824 20.3359 14.4475 20.3359C16.1779 20.3359 17.4851 19.9176 18.064 19.6935C18.614 17.2887 19.3728 13.9356 19.4346 13.5581C19.5214 13.0415 19.2805 12.9274 19.178 12.879Z" fill="#6B7084"/>
</svg>
