<svg viewBox="0 0 24 24" fill="none" xmlns="http://www.w3.org/2000/svg">
<path d="M22.7765 8.05139C22.2711 6.83529 21.2458 5.52225 20.443 5.10718C21.0156 6.21617 21.413 7.40718 21.621 8.63783L21.6231 8.65734C20.308 5.37849 18.0777 4.05645 16.2563 1.17766C16.1641 1.0321 16.072 0.886239 15.9823 0.732276C15.9309 0.64434 15.8898 0.565107 15.8541 0.492177C15.7786 0.345883 15.7204 0.191274 15.6806 0.0314873C15.6807 0.0241139 15.678 0.016979 15.6732 0.0114435C15.6683 0.0059081 15.6616 0.00235959 15.6542 0.00147496C15.6471 -0.000491653 15.6395 -0.000491653 15.6323 0.00147496C15.6308 0.00147496 15.6284 0.00417607 15.6266 0.00477632C15.6248 0.00537656 15.6209 0.00807768 15.6182 0.00927817L15.6227 0.00147496C12.701 1.71218 11.7097 4.87908 11.6185 6.46314C10.4517 6.54334 9.33614 6.9733 8.41735 7.69694C8.3215 7.61575 8.22131 7.53981 8.11723 7.46945C7.85219 6.54175 7.84089 5.55993 8.08452 4.62638C7.01156 5.14617 6.05816 5.88301 5.28466 6.79027H5.27926C4.81827 6.20593 4.85069 4.27914 4.8771 3.87667C4.74072 3.93148 4.61054 4.00059 4.48874 4.08286C4.08178 4.3733 3.70134 4.69921 3.35187 5.05676C2.95364 5.46052 2.58992 5.89692 2.26452 6.36139V6.36319V6.36109C1.51669 7.4213 0.986264 8.61913 0.703879 9.88545L0.688272 9.96228C0.666363 10.0646 0.587431 10.5772 0.573925 10.6886C0.573925 10.6973 0.572124 10.7054 0.571224 10.7141C0.469403 11.2433 0.40631 11.7792 0.382446 12.3176L0.382446 12.3777C0.384996 15.2902 1.48001 18.0957 3.45106 20.2399C5.42212 22.3841 8.12581 23.7109 11.0278 23.958C13.9298 24.2052 16.8189 23.3547 19.1242 21.5747C21.4294 19.7948 22.9831 17.2148 23.4782 14.3447C23.4977 14.1946 23.5136 14.0461 23.531 13.8945C23.7706 11.9144 23.5112 9.90573 22.7765 8.05139ZM9.36995 17.1565C9.42427 17.1827 9.47529 17.2109 9.53111 17.2358L9.53922 17.2409C9.48279 17.2139 9.42637 17.1858 9.36995 17.1565ZM21.624 8.66004V8.64894L21.6261 8.66124L21.624 8.66004Z" fill="url(#paint0_linear_4868_17269)"/>
<path d="M22.7765 8.05139C22.2711 6.83529 21.2458 5.52225 20.443 5.10718C21.0156 6.21617 21.413 7.40718 21.621 8.63783V8.64894L21.6231 8.66124C22.5196 11.2268 22.39 14.0397 21.2611 16.5119C19.928 19.3723 16.7011 22.3043 11.65 22.1617C6.19224 22.0071 1.38576 17.9573 0.487189 12.6529C0.323622 11.8164 0.487189 11.3924 0.569423 10.7126C0.457245 11.2406 0.394648 11.778 0.382446 12.3176L0.382446 12.3777C0.384996 15.2902 1.48001 18.0957 3.45106 20.2399C5.42212 22.3841 8.12581 23.7109 11.0278 23.958C13.9298 24.2052 16.8189 23.3547 19.1242 21.5747C21.4294 19.7948 22.9831 17.2148 23.4782 14.3447C23.4977 14.1946 23.5136 14.0461 23.531 13.8945C23.7706 11.9143 23.5112 9.90573 22.7765 8.05139Z" fill="url(#paint1_radial_4868_17269)"/>
<path d="M22.7765 8.05139C22.2711 6.83529 21.2458 5.52225 20.443 5.10718C21.0156 6.21617 21.413 7.40718 21.621 8.63783V8.64894L21.6231 8.66124C22.5196 11.2268 22.39 14.0397 21.2611 16.5119C19.928 19.3723 16.7011 22.3043 11.65 22.1617C6.19224 22.0071 1.38576 17.9573 0.487189 12.6529C0.323622 11.8164 0.487189 11.3924 0.569423 10.7126C0.457245 11.2406 0.394648 11.778 0.382446 12.3176L0.382446 12.3777C0.384996 15.2902 1.48001 18.0957 3.45106 20.2399C5.42212 22.3841 8.12581 23.7109 11.0278 23.958C13.9298 24.2052 16.8189 23.3547 19.1242 21.5747C21.4294 19.7948 22.9831 17.2148 23.4782 14.3447C23.4977 14.1946 23.5136 14.0461 23.531 13.8945C23.7706 11.9143 23.5112 9.90573 22.7765 8.05139Z" fill="url(#paint2_radial_4868_17269)"/>
<path d="M17.1239 9.41874C17.1491 9.43645 17.1726 9.45416 17.1963 9.47186C16.9041 8.95376 16.5404 8.4794 16.1158 8.06278C12.5005 4.44689 15.1683 0.222656 15.6182 0.00806756L15.6227 0.00146484C12.701 1.71217 11.7097 4.87907 11.6185 6.46312C11.7541 6.45382 11.8886 6.44242 12.0272 6.44242C13.0639 6.44432 14.0816 6.72071 14.9768 7.24349C15.872 7.76627 16.6129 8.51679 17.1239 9.41874Z" fill="url(#paint3_radial_4868_17269)"/>
<path d="M12.0347 10.1408C12.0155 10.4301 10.9933 11.428 10.6358 11.428C7.32818 11.428 6.79126 13.429 6.79126 13.429C6.93772 15.1139 8.1118 16.5016 9.53109 17.2357C9.59591 17.2693 9.66164 17.2997 9.72737 17.3294C9.84122 17.3798 9.95506 17.4264 10.0689 17.4692C10.556 17.6416 11.0662 17.74 11.5824 17.7612C17.3799 18.0332 18.503 10.8284 14.3193 8.73773C15.3062 8.60931 16.3057 8.85199 17.1239 9.41871C16.6128 8.51676 15.872 7.76624 14.9768 7.24346C14.0816 6.72067 13.0639 6.44428 12.0272 6.44238C11.8892 6.44238 11.7541 6.45379 11.6184 6.46309C10.4517 6.54329 9.33612 6.97326 8.41733 7.6969C8.5947 7.84696 8.79488 8.04744 9.21656 8.46311C10.0059 9.24074 12.0302 10.0463 12.0347 10.1408Z" fill="url(#paint4_radial_4868_17269)"/>
<path d="M12.0347 10.1408C12.0155 10.4301 10.9933 11.428 10.6358 11.428C7.32818 11.428 6.79126 13.429 6.79126 13.429C6.93772 15.1139 8.1118 16.5016 9.53109 17.2357C9.59591 17.2693 9.66164 17.2997 9.72737 17.3294C9.84122 17.3798 9.95506 17.4264 10.0689 17.4692C10.556 17.6416 11.0662 17.74 11.5824 17.7612C17.3799 18.0332 18.503 10.8284 14.3193 8.73773C15.3062 8.60931 16.3057 8.85199 17.1239 9.41871C16.6128 8.51676 15.872 7.76624 14.9768 7.24346C14.0816 6.72067 13.0639 6.44428 12.0272 6.44238C11.8892 6.44238 11.7541 6.45379 11.6184 6.46309C10.4517 6.54329 9.33612 6.97326 8.41733 7.6969C8.5947 7.84696 8.79488 8.04744 9.21656 8.46311C10.0059 9.24074 12.0302 10.0463 12.0347 10.1408Z" fill="url(#paint5_radial_4868_17269)"/>
<path d="M7.87506 7.31005C7.9693 7.37007 8.04703 7.42229 8.11516 7.46941C7.85012 6.54171 7.83882 5.5599 8.08245 4.62634C7.00949 5.14613 6.05609 5.88297 5.28259 6.79023C5.33932 6.78873 7.02661 6.75842 7.87506 7.31005Z" fill="url(#paint6_radial_4868_17269)"/>
<path d="M0.488679 12.6529C1.38635 17.9572 6.19373 22.0071 11.6515 22.1617C16.7026 22.3045 19.9295 19.3723 21.2626 16.5118C22.3914 14.0396 22.5211 11.2268 21.6246 8.66121V8.6501C21.6246 8.6414 21.6228 8.6363 21.6246 8.639L21.6267 8.65851C22.0394 11.3527 20.669 13.9629 18.5267 15.7279L18.5201 15.7429C14.346 19.1424 10.3513 17.794 9.54281 17.2435C9.48638 17.2165 9.42996 17.1884 9.37354 17.1592C6.93984 15.9959 5.93442 13.7786 6.14991 11.877C5.5722 11.8856 5.00442 11.7264 4.51536 11.4187C4.0263 11.1111 3.63695 10.6682 3.39448 10.1438C4.03332 9.75244 4.76175 9.53118 5.51035 9.50113C6.25895 9.47108 7.00277 9.63324 7.67094 9.97215C9.04846 10.5975 10.616 10.6591 12.0383 10.1438C12.0338 10.0493 10.0095 9.24345 9.22017 8.46613C8.7985 8.05046 8.59832 7.85027 8.42095 7.69991C8.32509 7.61872 8.2249 7.54277 8.12082 7.47242C8.05179 7.4253 7.97406 7.37428 7.88072 7.31305C7.03227 6.76143 5.34498 6.79174 5.28916 6.79324H5.28375C4.82276 6.2089 4.85518 4.2821 4.88159 3.87964C4.74521 3.93445 4.61503 4.00356 4.49323 4.08582C4.08627 4.37627 3.70583 4.70218 3.35636 5.05972C2.9567 5.46235 2.59147 5.89775 2.26451 6.36136V6.36316V6.36106C1.51668 7.42126 0.986254 8.6191 0.703868 9.88541C0.698166 9.90912 0.284896 11.7159 0.488679 12.6529Z" fill="url(#paint7_radial_4868_17269)"/>
<path d="M16.1164 8.06279C16.5411 8.47987 16.9048 8.95474 17.1969 9.47338C17.2608 9.5217 17.3205 9.56972 17.3713 9.61623C20.0084 12.0472 18.6267 15.4836 18.5237 15.7283C20.666 13.9632 22.0352 11.353 21.6237 8.65884C20.308 5.37849 18.0778 4.05644 16.2563 1.17766C16.1642 1.0321 16.072 0.886239 15.9823 0.732276C15.931 0.64434 15.8899 0.565107 15.8541 0.492177C15.7786 0.345883 15.7204 0.191274 15.6807 0.0314873C15.6807 0.0241139 15.6781 0.016979 15.6732 0.0114435C15.6683 0.0059081 15.6616 0.00235959 15.6543 0.00147496C15.6471 -0.000491653 15.6395 -0.000491653 15.6323 0.00147496C15.6308 0.00147496 15.6284 0.00417607 15.6266 0.00477632C15.6248 0.00537656 15.6209 0.00807768 15.6182 0.00927817C15.1684 0.222666 12.5006 4.44691 16.1164 8.06279Z" fill="url(#paint8_radial_4868_17269)"/>
<path d="M17.3694 9.61476C17.3187 9.56824 17.259 9.52022 17.1951 9.4719C17.1714 9.4542 17.1479 9.43649 17.1227 9.41878C16.3045 8.85206 15.305 8.60938 14.3181 8.7378C18.5018 10.8297 17.3793 18.0332 11.5813 17.7613C11.065 17.7401 10.5548 17.6417 10.0677 17.4693C9.95388 17.4267 9.84003 17.3801 9.72619 17.3294C9.66046 17.2994 9.59473 17.2694 9.52991 17.2358L9.53801 17.2409C10.3465 17.7928 14.34 19.1413 18.5153 15.7403L18.5219 15.7253C18.6261 15.4822 20.0078 12.0449 17.3694 9.61476Z" fill="url(#paint9_radial_4868_17269)"/>
<path d="M6.79127 13.429C6.79127 13.429 7.32819 11.4281 10.6359 11.4281C10.9933 11.4281 12.0164 10.4302 12.0347 10.1408C10.6124 10.6561 9.04485 10.5945 7.66733 9.96918C6.99917 9.63027 6.25534 9.46811 5.50675 9.49816C4.75815 9.52821 4.02972 9.74947 3.39087 10.1408C3.63334 10.6653 4.02269 11.1081 4.51175 11.4158C5.00082 11.7234 5.5686 11.8826 6.1463 11.8741C5.93081 13.7759 6.93623 15.9933 9.36993 17.1562C9.42425 17.1823 9.47527 17.2106 9.5311 17.2355C8.11061 16.5017 6.93773 15.1139 6.79127 13.429Z" fill="url(#paint10_radial_4868_17269)"/>
<path d="M22.7765 8.05139C22.2711 6.83529 21.2458 5.52225 20.443 5.10718C21.0156 6.21617 21.413 7.40718 21.621 8.63783L21.6231 8.65734C20.308 5.37849 18.0777 4.05645 16.2563 1.17766C16.1641 1.0321 16.072 0.886239 15.9823 0.732276C15.9309 0.64434 15.8898 0.565107 15.8541 0.492177C15.7786 0.345883 15.7204 0.191274 15.6806 0.0314873C15.6807 0.0241139 15.678 0.016979 15.6732 0.0114435C15.6683 0.0059081 15.6616 0.00235959 15.6542 0.00147496C15.6471 -0.000491653 15.6395 -0.000491653 15.6323 0.00147496C15.6308 0.00147496 15.6284 0.00417607 15.6266 0.00477632C15.6248 0.00537656 15.6209 0.00807768 15.6182 0.00927817L15.6227 0.00147496C12.701 1.71218 11.7097 4.87908 11.6185 6.46314C11.7541 6.45383 11.8886 6.44243 12.0272 6.44243C13.0639 6.44433 14.0816 6.72072 14.9768 7.2435C15.872 7.76628 16.6129 8.5168 17.1239 9.41875C16.3058 8.85203 15.3063 8.60935 14.3193 8.73777C18.503 10.8296 17.3805 18.0332 11.5825 17.7613C11.0662 17.7401 10.556 17.6417 10.0689 17.4693C9.95509 17.4267 9.84124 17.38 9.72739 17.3294C9.66167 17.2994 9.59594 17.2694 9.53111 17.2358L9.53922 17.2409C9.48279 17.2139 9.42637 17.1858 9.36995 17.1565C9.42427 17.1827 9.47529 17.2109 9.53111 17.2358C8.11063 16.5017 6.93775 15.1139 6.79129 13.429C6.79129 13.429 7.32821 11.4281 10.6359 11.4281C10.9933 11.4281 12.0164 10.4302 12.0347 10.1409C12.0302 10.0463 10.0059 9.24048 9.21658 8.46316C8.79491 8.04749 8.59473 7.84731 8.41735 7.69694C8.3215 7.61575 8.22131 7.53981 8.11723 7.46945C7.85219 6.54175 7.84089 5.55993 8.08452 4.62638C7.01156 5.14617 6.05816 5.88301 5.28466 6.79027H5.27926C4.81827 6.20593 4.85069 4.27914 4.8771 3.87667C4.74072 3.93148 4.61054 4.00059 4.48874 4.08286C4.08178 4.3733 3.70134 4.69921 3.35187 5.05676C2.95364 5.46052 2.58992 5.89692 2.26452 6.36139V6.36319V6.36109C1.51669 7.4213 0.986264 8.61913 0.703879 9.88545L0.688272 9.96228C0.666363 10.0646 0.568223 10.5844 0.554117 10.6961C0.554117 10.7045 0.554117 10.6874 0.554117 10.6961C0.464353 11.2327 0.407026 11.7742 0.382446 12.3176L0.382446 12.3777C0.384996 15.2902 1.48001 18.0957 3.45106 20.2399C5.42212 22.3841 8.12581 23.7109 11.0278 23.958C13.9298 24.2052 16.8189 23.3547 19.1242 21.5747C21.4294 19.7948 22.9831 17.2148 23.4782 14.3447C23.4977 14.1946 23.5136 14.0461 23.531 13.8945C23.7706 11.9144 23.5112 9.90573 22.7765 8.05139ZM21.6225 8.64894L21.6246 8.66124L21.6225 8.64894Z" fill="url(#paint11_linear_4868_17269)"/>
<defs>
<linearGradient id="paint0_linear_4868_17269" x1="21.2368" y1="3.71821" x2="1.92718" y2="22.3484" gradientUnits="userSpaceOnUse">
<stop offset="0.048" stop-color="#FFF44F"/>
<stop offset="0.111" stop-color="#FFE847"/>
<stop offset="0.225" stop-color="#FFC830"/>
<stop offset="0.368" stop-color="#FF980E"/>
<stop offset="0.401" stop-color="#FF8B16"/>
<stop offset="0.462" stop-color="#FF672A"/>
<stop offset="0.534" stop-color="#FF3647"/>
<stop offset="0.705" stop-color="#E31587"/>
</linearGradient>
<radialGradient id="paint1_radial_4868_17269" cx="0" cy="0" r="1" gradientUnits="userSpaceOnUse" gradientTransform="translate(20.3446 2.66351) scale(24.2491 24.2491)">
<stop offset="0.129" stop-color="#FFBD4F"/>
<stop offset="0.186" stop-color="#FFAC31"/>
<stop offset="0.247" stop-color="#FF9D17"/>
<stop offset="0.283" stop-color="#FF980E"/>
<stop offset="0.403" stop-color="#FF563B"/>
<stop offset="0.467" stop-color="#FF3750"/>
<stop offset="0.71" stop-color="#F5156C"/>
<stop offset="0.782" stop-color="#EB0878"/>
<stop offset="0.86" stop-color="#E50080"/>
</radialGradient>
<radialGradient id="paint2_radial_4868_17269" cx="0" cy="0" r="1" gradientUnits="userSpaceOnUse" gradientTransform="translate(11.4837 12.5773) scale(24.2491 24.2491)">
<stop offset="0.3" stop-color="#960E18"/>
<stop offset="0.351" stop-color="#B11927" stop-opacity="0.74"/>
<stop offset="0.435" stop-color="#DB293D" stop-opacity="0.343"/>
<stop offset="0.497" stop-color="#F5334B" stop-opacity="0.094"/>
<stop offset="0.53" stop-color="#FF3750" stop-opacity="0"/>
</radialGradient>
<radialGradient id="paint3_radial_4868_17269" cx="0" cy="0" r="1" gradientUnits="userSpaceOnUse" gradientTransform="translate(14.4072 -2.83953) scale(17.5674)">
<stop offset="0.132" stop-color="#FFF44F"/>
<stop offset="0.252" stop-color="#FFDC3E"/>
<stop offset="0.506" stop-color="#FF9D12"/>
<stop offset="0.526" stop-color="#FF980E"/>
</radialGradient>
<radialGradient id="paint4_radial_4868_17269" cx="0" cy="0" r="1" gradientUnits="userSpaceOnUse" gradientTransform="translate(8.80152 18.9112) scale(11.5461)">
<stop offset="0.353" stop-color="#3A8EE6"/>
<stop offset="0.472" stop-color="#5C79F0"/>
<stop offset="0.669" stop-color="#9059FF"/>
<stop offset="1" stop-color="#C139E6"/>
</radialGradient>
<radialGradient id="paint5_radial_4868_17269" cx="0" cy="0" r="1" gradientUnits="userSpaceOnUse" gradientTransform="translate(12.8088 10.5899) rotate(-13.5916) scale(6.12165 7.16692)">
<stop offset="0.206" stop-color="#9059FF" stop-opacity="0"/>
<stop offset="0.278" stop-color="#8C4FF3" stop-opacity="0.064"/>
<stop offset="0.747" stop-color="#7716A8" stop-opacity="0.45"/>
<stop offset="0.975" stop-color="#6E008B" stop-opacity="0.6"/>
</radialGradient>
<radialGradient id="paint6_radial_4868_17269" cx="0" cy="0" r="1" gradientUnits="userSpaceOnUse" gradientTransform="translate(11.1776 1.67136) scale(8.30622)">
<stop stop-color="#FFE226"/>
<stop offset="0.121" stop-color="#FFDB27"/>
<stop offset="0.295" stop-color="#FFC82A"/>
<stop offset="0.502" stop-color="#FFA930"/>
<stop offset="0.732" stop-color="#FF7E37"/>
<stop offset="0.792" stop-color="#FF7139"/>
</radialGradient>
<radialGradient id="paint7_radial_4868_17269" cx="0" cy="0" r="1" gradientUnits="userSpaceOnUse" gradientTransform="translate(17.7064 -3.59719) scale(35.4389 35.4389)">
<stop offset="0.113" stop-color="#FFF44F"/>
<stop offset="0.456" stop-color="#FF980E"/>
<stop offset="0.622" stop-color="#FF5634"/>
<stop offset="0.716" stop-color="#FF3647"/>
<stop offset="0.904" stop-color="#E31587"/>
</radialGradient>
<radialGradient id="paint8_radial_4868_17269" cx="0" cy="0" r="1" gradientUnits="userSpaceOnUse" gradientTransform="translate(14.7196 -1.62657) rotate(83.976) scale(25.974 17.0465)">
<stop stop-color="#FFF44F"/>
<stop offset="0.06" stop-color="#FFE847"/>
<stop offset="0.168" stop-color="#FFC830"/>
<stop offset="0.304" stop-color="#FF980E"/>
<stop offset="0.356" stop-color="#FF8B16"/>
<stop offset="0.455" stop-color="#FF672A"/>
<stop offset="0.57" stop-color="#FF3647"/>
<stop offset="0.737" stop-color="#E31587"/>
</radialGradient>
<radialGradient id="paint9_radial_4868_17269" cx="0" cy="0" r="1" gradientUnits="userSpaceOnUse" gradientTransform="translate(10.982 4.74799) scale(22.1251)">
<stop offset="0.137" stop-color="#FFF44F"/>
<stop offset="0.48" stop-color="#FF980E"/>
<stop offset="0.592" stop-color="#FF5634"/>
<stop offset="0.655" stop-color="#FF3647"/>
<stop offset="0.904" stop-color="#E31587"/>
</radialGradient>
<radialGradient id="paint10_radial_4868_17269" cx="0" cy="0" r="1" gradientUnits="userSpaceOnUse" gradientTransform="translate(16.8223 6.04284) scale(24.2158 24.2158)">
<stop offset="0.094" stop-color="#FFF44F"/>
<stop offset="0.231" stop-color="#FFE141"/>
<stop offset="0.509" stop-color="#FFAF1E"/>
<stop offset="0.626" stop-color="#FF980E"/>
</radialGradient>
<linearGradient id="paint11_linear_4868_17269" x1="21.0048" y1="3.61856" x2="4.57427" y2="20.0488" gradientUnits="userSpaceOnUse">
<stop offset="0.167" stop-color="#FFF44F" stop-opacity="0.8"/>
<stop offset="0.266" stop-color="#FFF44F" stop-opacity="0.634"/>
<stop offset="0.489" stop-color="#FFF44F" stop-opacity="0.217"/>
<stop offset="0.6" stop-color="#FFF44F" stop-opacity="0"/>
</linearGradient>
</defs>
</svg>