<svg viewBox="0 0 24 24" fill="none" xmlns="http://www.w3.org/2000/svg">
<g clip-path="url(#clip0_1265_21766)">
<path d="M12 24C18.6274 24 24 18.6274 24 12C24 5.37258 18.6274 0 12 0C5.37258 0 0 5.37258 0 12C0 18.6274 5.37258 24 12 24Z" fill="#00AFEC"/>
<path d="M14.3323 9.72005C14.3588 9.67726 14.3827 9.62038 14.407 9.57164C14.9587 8.59486 15.249 7.49229 15.2498 6.37052C14.4726 5.92204 13.652 5.6393 12.7594 5.54126C13.0898 6.98312 13.5577 8.37948 14.2343 9.69513L14.3323 9.72005ZM9.87565 9.4736L9.85127 9.46818L9.6617 9.42485V9.4216H9.65899L9.82961 8.67792C9.95581 8.70501 10.082 8.7348 10.2077 8.76567H10.2104C10.6704 7.72788 11.029 6.64805 11.2812 5.54126C10.1179 5.66972 9.01108 6.11048 8.07793 6.81683V6.819C7.29496 7.4119 6.65633 8.17433 6.20992 9.04914C5.76351 9.92396 5.52089 10.8885 5.50024 11.8704V12.0004C6.19403 12.3991 6.95463 12.6682 7.74482 12.7944L7.74861 12.7906C8.57785 11.7667 9.29171 10.6545 9.87727 9.47414H9.87565V9.4736ZM13.9445 10.5704C14.0869 10.6463 14.14 10.7546 14.2077 10.9669C14.3014 11.2876 14.2381 11.625 14.1714 11.9419L14.9574 12.1244L15.1523 11.2778C15.9459 12.4992 16.826 13.7607 17.8947 14.7508C17.7008 15.1912 17.5805 15.345 17.2951 15.7318C15.5456 15.1934 13.6823 14.9079 11.8516 14.9258L12.0081 14.3002L11.486 14.1783C11.4047 14.1577 11.3218 14.1214 11.2731 14.05C11.2119 13.9687 11.2119 13.8615 11.2325 13.7656L11.5591 12.3454C11.7281 12.386 11.9046 12.4126 12.0628 12.4878C12.1368 12.5176 12.2028 12.5643 12.2554 12.6242C12.308 12.6842 12.3457 12.7556 12.3656 12.8329C12.4084 13.0485 12.3168 13.2554 12.28 13.4628L12.9831 13.6253L13.5691 11.0861L13.5095 11.066L13.4635 11.0574C13.626 10.8867 13.7679 10.7351 13.9147 10.5498L13.945 10.5704H13.9445ZM7.7654 12.9575L7.78219 12.9342C7.91869 12.9645 8.02377 12.9531 8.16351 12.9677C8.66345 13.0122 9.14876 13.0219 9.64653 12.9515C9.68445 12.9461 9.72345 12.9423 9.7619 12.9407L9.64653 13.3837C9.62595 13.4715 9.58749 13.5625 9.5122 13.6177C9.47498 13.6424 9.43304 13.6591 9.38904 13.6667C9.34503 13.6744 9.29992 13.6728 9.25655 13.6621C9.07781 13.6258 8.89906 13.5771 8.71815 13.5424C8.66345 13.79 8.60441 14.038 8.54754 14.2839L9.74782 14.5618C9.69907 14.7855 9.68716 14.8462 9.63624 15.0677C8.63708 15.2047 7.65024 15.4201 6.68482 15.7117C6.40046 15.3255 6.27859 15.2324 6.08793 14.7915C6.69565 14.2282 7.24271 13.6015 7.7654 12.9575ZM10.5522 14.747L11.0337 14.8586L11.0174 14.954L10.5034 14.9908L10.5522 14.747ZM9.66441 12.8085C9.70177 12.8034 9.73937 12.8001 9.77707 12.7988V12.7966L10.3967 10.1154C10.4211 9.99358 10.4698 9.87171 10.4314 9.74984C10.4165 9.70614 10.3918 9.66646 10.3591 9.63386C10.3264 9.60127 10.2866 9.57664 10.2429 9.56189L10.2228 9.55539C10.1199 9.52776 10.199 9.54726 10.0945 9.52289C10.0831 9.52018 10.0311 9.53751 10.0192 9.53535C9.44011 10.7019 8.73307 11.8004 7.9111 12.8107C8.04706 12.8394 8.02485 12.8313 8.1608 12.8453C8.66182 12.8914 9.16609 12.8789 9.66386 12.809L9.66441 12.8085Z" fill="white"/>
<path d="M11.0412 8.95574V8.9579C11.1365 8.55546 11.2259 8.1514 11.3234 7.7495L12.1239 7.93366L11.8455 9.14261L12.3249 9.25418C12.3726 9.05323 12.4197 8.85174 12.4657 8.65025L12.5356 8.34801L12.6055 8.04578L13.4055 8.22831C13.3946 8.28247 13.3827 8.33664 13.3708 8.3908C13.2934 8.74125 13.2072 9.08844 13.1298 9.43997L14.0511 9.65446C13.3746 8.33826 12.9267 6.96249 12.5968 5.52063C12.3899 5.49626 12.3027 5.50438 12.0931 5.50059H11.9652C11.7356 5.50059 11.6506 5.49463 11.4252 5.52063C11.1717 6.62721 10.8728 7.78795 10.4124 8.82574L11.0412 8.95574ZM12.1034 9.98974L12.1277 9.99515L12.1304 9.98974H12.1034Z" fill="white"/>
<path d="M12.1056 9.98917L11.734 11.6C11.9648 11.6509 12.2053 11.7354 12.4425 11.6688C12.5188 11.6448 12.5879 11.6024 12.644 11.5454C12.7 11.4883 12.7411 11.4183 12.7637 11.3417C12.8081 11.1992 12.8303 11.053 12.8693 10.9111L13.2615 11.0107C13.2788 11.0134 13.2588 11.0237 13.2701 11.0123L13.2799 11.0048C13.4424 10.8303 13.6265 10.6391 13.7728 10.4544C13.5329 10.3345 13.2772 10.2489 13.0134 10.2004L12.1056 9.98917ZM17.9391 9.35599C17.3785 8.10262 16.5796 7.15908 15.3918 6.47119C15.3907 7.59348 15.1209 8.59498 14.5695 9.57265C14.5361 9.63382 14.5055 9.69654 14.478 9.7606C14.8496 9.84184 15.0814 9.89168 15.453 9.97509V9.97888L15.2136 11.0551C16.0054 12.276 16.8889 13.6204 17.9554 14.6116C18.2955 13.8359 18.4808 13.0013 18.4997 12.1541V11.8492C18.479 10.9891 18.2885 10.1416 17.9391 9.35545V9.35599ZM5.50024 12.1422V12.2359C5.5127 13.102 5.69794 13.8143 6.0446 14.6083C6.61968 14.0778 7.15399 13.5048 7.64299 12.894C6.8549 12.7683 6.19084 12.543 5.50024 12.1422ZM11.8294 15.0671L11.5569 16.2533H11.5553L10.7509 16.0691L10.9746 15.0958L10.4628 15.1321L10.2732 15.957H10.2721L9.46725 15.7723C9.50841 15.5892 9.54849 15.4105 9.59345 15.2301C8.63528 15.3601 7.68957 15.5687 6.76607 15.8536C7.35919 16.6585 8.12982 17.316 9.01817 17.775C9.90651 18.234 10.8887 18.4821 11.8884 18.5H12.1543C13.1466 18.4744 14.12 18.2227 15.0004 17.7641C15.8807 17.3055 16.6448 16.6521 17.2344 15.8536C15.484 15.3145 13.6608 15.0492 11.8294 15.0671Z" fill="white"/>
</g>
<defs>
<clipPath id="clip0_1265_21766">
<rect width="24" height="24" fill="white"/>
</clipPath>
</defs>
</svg>