<svg viewBox="0 0 24 24" fill="none" xmlns="http://www.w3.org/2000/svg">
<path fill-rule="evenodd" clip-rule="evenodd" d="M10.9156 12.2906C8.46073 12.1327 6.14678 12.001 4.66648 13.2432V21.1686C4.66648 21.6277 4.2941 22 3.83366 22C3.37238 22 3 21.6277 3 21.1686V12.8561V12.8553V3.87096C3 3.87096 3 3.87096 3 3.87015V3.86687C3 3.84805 3.01006 3.83168 3.0109 3.81204C3.01677 3.72367 3.02935 3.63529 3.06374 3.551C3.0998 3.46426 3.15516 3.38897 3.21638 3.31942C3.22729 3.30796 3.23064 3.29323 3.24154 3.28177C3.24238 3.28096 3.24238 3.28096 3.24322 3.28014C3.24406 3.27932 3.2449 3.2785 3.24658 3.27768C5.76098 0.753168 8.92956 2.49128 11.7232 4.02972C15.2181 5.95277 17.6771 7.04604 19.9055 4.78421C20.1597 4.52644 20.5522 4.46261 20.8759 4.62545C21.1988 4.78912 21.38 5.14181 21.3229 5.49942C20.1395 12.8815 15.0269 12.5533 10.9156 12.2906ZM10.9181 5.48632C8.05562 3.91106 6.17947 3.01418 4.66646 4.26294V11.2653C6.51159 10.357 8.79199 10.4871 11.0229 10.6311C14.5974 10.861 17.7543 11.0632 19.154 7.30872C16.3713 8.4871 13.4006 6.85128 10.9181 5.48632Z" fill="currentColor"/>
</svg>