<svg width="24" height="24" viewBox="0 0 24 24" fill="none" xmlns="http://www.w3.org/2000/svg">
<path fill-rule="evenodd" clip-rule="evenodd" d="M10.0002 2.20001C9.00608 2.20001 8.2002 3.0059 8.2002 4.00001V7.20001H8.0002C7.00608 7.20001 6.2002 8.0059 6.2002 9.00001V19C6.2002 20.5464 7.4538 21.8 9.0002 21.8H15.0002C16.5466 21.8 17.8002 20.5464 17.8002 19V9.00001C17.8002 8.0059 16.9943 7.20001 16.0002 7.20001H15.8002V4.00001C15.8002 3.0059 14.9943 2.20001 14.0002 2.20001H10.0002ZM14.2002 7.20001V4.00001C14.2002 3.88956 14.1107 3.80001 14.0002 3.80001H10.0002C9.88974 3.80001 9.8002 3.88956 9.8002 4.00001V7.20001H10.6L10.6 5.70539C10.6 5.3188 10.9134 5.0054 11.3 5.0054C11.6838 5.0054 11.9955 5.31435 12 5.69715C12.0044 5.31435 12.3161 5.0054 12.6999 5.0054C13.0865 5.0054 13.3999 5.3188 13.3999 5.7054V7.20001H14.2002ZM8.2002 8.80001L8.0002 8.80001C7.88974 8.80001 7.8002 8.88956 7.8002 9.00001V19C7.8002 19.6628 8.33745 20.2 9.0002 20.2H15.0002C15.6629 20.2 16.2002 19.6628 16.2002 19V9.00001C16.2002 8.88956 16.1107 8.80001 16.0002 8.80001L15.8002 8.80001H8.2002ZM9.2002 16.2333C9.2002 14.687 10.4538 13.4333 12.0002 13.4333C13.5466 13.4333 14.8002 14.687 14.8002 16.2333C14.8002 17.7797 13.5466 19.0333 12.0002 19.0333C10.4538 19.0333 9.2002 17.7797 9.2002 16.2333ZM12.0002 15.0333C11.3375 15.0333 10.8002 15.5706 10.8002 16.2333C10.8002 16.8961 11.3375 17.4333 12.0002 17.4333C12.6629 17.4333 13.2002 16.8961 13.2002 16.2333C13.2002 15.5706 12.6629 15.0333 12.0002 15.0333Z" fill="#6B7084"/>
</svg>
