<svg viewBox="0 0 24 24" fill="none" xmlns="http://www.w3.org/2000/svg">
<path fill-rule="evenodd" clip-rule="evenodd" d="M16.9464 11.7341C16.9651 11.7894 16.9736 11.8447 16.9804 11.9025C16.9847 11.9361 17 11.9654 17 11.9997C17 12.0366 16.994 12.0659 16.9932 12.1011C16.9923 12.1053 16.9923 12.1095 16.9923 12.1137C16.9779 12.4128 16.9065 12.6483 16.6948 12.7471L11.4962 21.5894C11.3406 21.8534 11.0626 22 10.7769 22C10.6332 22 10.4878 21.9631 10.3552 21.8852C9.95893 21.6523 9.82629 21.1412 10.0593 20.7448L14.7281 12.8024H7.9523C7.91149 12.8083 7.87408 12.8334 7.83241 12.8334C7.68872 12.8334 7.54332 12.7966 7.41068 12.7186C7.1692 12.577 7.04081 12.3299 7.01786 12.071C7.0153 12.0458 7 12.0257 7 11.9997C7 11.9813 7.00935 11.9662 7.0102 11.9486C7.0136 11.8916 7.02891 11.8389 7.04421 11.7836C7.05867 11.7299 7.07227 11.678 7.09693 11.6285C7.10543 11.6126 7.10543 11.5942 7.11479 11.5774L12.5038 2.41088C12.7376 2.01372 13.2486 1.88217 13.6448 2.1151C14.0419 2.34804 14.1746 2.85915 13.9407 3.25548L9.28977 11.1669H16.1667C16.1854 11.1669 16.2016 11.1761 16.2203 11.1778C16.2747 11.1811 16.3266 11.1954 16.381 11.2096C16.4363 11.2247 16.489 11.2389 16.5392 11.2641C16.5553 11.2724 16.5732 11.2724 16.5893 11.2817C16.6191 11.2993 16.6369 11.3277 16.6641 11.3487C16.7101 11.3839 16.7534 11.4182 16.7908 11.4626C16.8265 11.5029 16.8529 11.5464 16.8793 11.5934C16.9056 11.6386 16.9294 11.683 16.9464 11.7341Z" fill="currentColor"/>
</svg>