<svg width="24" height="24" viewBox="0 0 24 24" fill="none" xmlns="http://www.w3.org/2000/svg">
<path fill-rule="evenodd" clip-rule="evenodd" d="M18.0043 11.2771L10.9992 21.4206C10.8825 21.7597 10.5615 22 10.1839 22C10.1479 22 10.1118 21.9983 10.0758 21.9933C9.67075 21.9464 9.38069 21.6375 9.33264 21.2691C9.32749 21.2465 9.33006 21.223 9.32663 21.2004C9.32491 21.1552 9.31033 21.1133 9.31633 21.0673L9.32406 21.0011C9.32835 20.9702 9.3292 20.94 9.33607 20.909L10.1599 14.5165L6.14029 14.5157C5.50697 14.5157 5.22806 14.1841 5.11822 13.9865C4.80842 13.4297 5.19116 12.8914 5.31645 12.7139L13.826 2.32001C14.1237 1.95747 14.673 1.89384 15.0514 2.176C15.2642 2.33425 15.3672 2.56701 15.3758 2.80479C15.3895 2.90442 15.3895 3.00825 15.3621 3.11207L13.7161 9.52554H17.2062C17.8361 9.52554 18.1099 9.84454 18.2172 10.0346C18.5089 10.5554 18.1803 11.0243 18.0043 11.2771ZM13.3351 11.1884C12.9429 11.1884 12.5808 11.0243 12.3156 10.7245C12.0075 10.377 11.8659 9.87803 11.9475 9.42339L12.7327 6.35983L7.41552 12.852H10.5581C11.0481 12.852 11.4274 12.9977 11.684 13.2857C11.8204 13.4389 12.0358 13.7722 11.9483 14.2879L11.5158 17.6462L15.9756 11.1884H13.3351Z" fill="#6B7084"/>
</svg>
