<svg width="24" height="24" viewBox="0 0 24 24" fill="none" xmlns="http://www.w3.org/2000/svg">
<g clip-path="url(#clip0_1265_21762)">
<path d="M12 24C18.6274 24 24 18.6274 24 12C24 5.37258 18.6274 0 12 0C5.37258 0 0 5.37258 0 12C0 18.6274 5.37258 24 12 24Z" fill="#C40E09"/>
<path fill-rule="evenodd" clip-rule="evenodd" d="M15.9455 6.36182C16.0027 6.40636 16.0543 6.44455 16.102 6.48591C16.228 6.59727 16.3546 6.70864 16.4774 6.82382C16.5748 6.91673 16.6671 7.016 16.7606 7.11336C16.7683 7.121 16.7746 7.13882 16.7721 7.149C16.7148 7.37045 16.6283 7.57918 16.5124 7.77391C16.4106 7.94445 16.2935 8.101 16.1574 8.24164C15.9728 8.43255 15.766 8.59164 15.5394 8.72209C15.4408 8.77936 15.3396 8.83027 15.2385 8.88118C14.9158 9.04473 14.5722 9.13636 14.2222 9.20127C13.9835 9.24582 13.7424 9.27764 13.5024 9.31073C13.1868 9.354 12.8705 9.389 12.5555 9.43482C12.091 9.50227 11.636 9.60791 11.2045 9.80836C10.7298 10.0292 10.3346 10.3518 10.0661 10.8285C9.88727 11.1466 9.81472 11.4935 9.8179 11.8613C9.82363 12.5657 10.0648 13.1747 10.481 13.7163C10.7355 14.0472 11.0257 14.3412 11.3312 14.6186C11.5425 14.8115 11.7582 14.9985 11.9688 15.1914C12.238 15.4395 12.5078 15.6871 12.7388 15.9766C12.8597 16.1294 12.9794 16.2859 13.0831 16.452C13.26 16.7358 13.4006 17.0406 13.4929 17.3671C13.5438 17.5453 13.5744 17.7266 13.5884 17.9125C13.6086 18.1886 13.5841 18.4663 13.5158 18.7346C13.4885 18.8447 13.4872 18.8466 13.3784 18.8664C13.225 18.895 13.0716 18.9243 12.9176 18.9491C12.805 18.9663 12.6917 18.9771 12.5785 18.9898C12.539 18.9949 12.4989 18.9968 12.4588 19L12.4353 18.9994C12.4359 18.9905 12.4353 18.9815 12.4378 18.9739C12.4722 18.8829 12.5104 18.7932 12.5428 18.7015C12.6143 18.5046 12.6626 18.3 12.6866 18.0919C12.7288 17.726 12.6617 17.3558 12.4938 17.0279C12.377 16.8067 12.2281 16.6038 12.0522 16.4259C11.8129 16.1745 11.5495 15.9544 11.2854 15.7348C10.8444 15.3676 10.418 14.9839 10.0285 14.5563C9.79161 14.2981 9.57622 14.021 9.38454 13.7277C9.17485 13.4115 9.01036 13.0675 8.89581 12.7057C8.72076 12.1433 8.71523 11.5417 8.8799 10.9761C8.97281 10.649 9.09818 10.3416 9.29163 10.0661C9.54745 9.70145 9.87772 9.42973 10.2564 9.21973C10.6382 9.00655 11.0455 8.86655 11.4648 8.76155C11.8021 8.67627 12.1438 8.61264 12.4881 8.57064C12.8763 8.52355 13.2645 8.48409 13.6526 8.44018C13.9695 8.40455 14.2845 8.36064 14.5906 8.26391C14.8694 8.17975 15.1255 8.03354 15.3396 7.83627C15.5248 7.66318 15.6623 7.45573 15.7609 7.21773C15.8519 6.99818 15.8965 6.76655 15.9289 6.53173C15.9359 6.47955 15.9397 6.42609 15.9461 6.36182H15.9455ZM11.4527 14.5238C11.5921 14.4965 11.7245 14.4729 11.8562 14.4443C12.1947 14.3692 12.5288 14.2788 12.8425 14.1185C13.1513 13.962 13.4258 13.7457 13.6501 13.4821C13.8792 13.211 14.0669 12.9125 14.1649 12.5587C14.2264 12.3347 14.2479 12.1017 14.2285 11.8702C14.1886 11.399 14.0277 10.9462 13.7614 10.5555C13.5604 10.2599 13.3302 9.98529 13.0742 9.73582C13.0296 9.69064 12.9825 9.64673 12.9374 9.60218C12.931 9.59582 12.9259 9.58818 12.9164 9.57673L13.1582 9.53918L13.6819 9.45964C13.7735 9.44564 13.8652 9.43036 13.9568 9.41827C13.9676 9.417 13.9829 9.42909 13.9918 9.43864C14.1547 9.62827 14.3214 9.81409 14.478 10.0095C14.6816 10.2627 14.8535 10.5402 14.9935 10.8393C15.1175 11.1059 15.2085 11.3834 15.2531 11.6774C15.2843 11.8829 15.2976 12.0904 15.2766 12.2978C15.2155 12.8788 15.0431 13.4165 14.7026 13.8862C14.4914 14.1783 14.2311 14.4144 13.9377 14.6116C13.596 14.837 13.2244 15.0133 12.8336 15.1354C12.6663 15.1888 12.497 15.2346 12.3284 15.2817C12.3206 15.2835 12.3125 15.2835 12.3047 15.2819C12.2969 15.2802 12.2896 15.2769 12.2832 15.2722C12.0115 15.0304 11.741 14.7866 11.4705 14.5435C11.4655 14.5397 11.4616 14.534 11.4534 14.5245L11.4527 14.5238ZM12.7993 8.35236L12.3894 8.416L11.9249 8.48791C11.8708 8.49682 11.8161 8.507 11.7607 8.51273C11.7405 8.51422 11.7204 8.50784 11.7047 8.49491C11.5259 8.33059 11.3597 8.15296 11.2077 7.96355C11.125 7.85855 11.041 7.75355 10.9678 7.64091C10.7196 7.25655 10.5255 6.84609 10.4435 6.38473C10.37 5.99082 10.3914 5.5851 10.5058 5.20109C10.5128 5.17564 10.5205 5.16291 10.5504 5.15718C10.7209 5.12791 10.8895 5.08973 11.0595 5.06173C11.1995 5.03945 11.342 5.028 11.4833 5.01145L11.5991 5C11.5889 5.02291 11.5832 5.03818 11.5762 5.05155C11.4545 5.30075 11.3706 5.5667 11.3274 5.84064C11.2698 6.21495 11.33 6.59792 11.4998 6.93645C11.6405 7.21964 11.8326 7.45955 12.0503 7.681C12.2768 7.91009 12.5224 8.11627 12.7687 8.32182C12.7776 8.32945 12.7853 8.33773 12.7999 8.35236H12.7993ZM10.7795 15.5356L10.5084 15.5643C10.3938 15.577 10.2793 15.5859 10.1647 15.6037C9.98845 15.6311 9.81154 15.6578 9.63718 15.6966C8.9989 15.8379 8.5019 16.1765 8.23081 16.8275C8.13152 17.0649 8.05751 17.3121 8.01 17.565C8.00809 17.5765 8.00427 17.5879 7.99918 17.6083C7.9629 17.5803 7.92918 17.5574 7.89863 17.5306C7.77136 17.4174 7.64472 17.3054 7.52063 17.1895C7.43091 17.1055 7.34627 17.0158 7.25718 16.9305C7.22727 16.9019 7.22154 16.8733 7.23236 16.8325C7.35286 16.3972 7.59034 16.0033 7.919 15.6935C8.13132 15.4964 8.36884 15.3284 8.62536 15.1939C8.98554 14.9966 9.37054 14.8834 9.76509 14.7981C9.8109 14.7885 9.858 14.7835 9.90254 14.7714C9.93054 14.7637 9.949 14.7714 9.96872 14.7898L10.3365 15.1265L10.7445 15.5013C10.7566 15.5122 10.7683 15.5237 10.7795 15.5356ZM13.533 12.7496C13.5012 12.742 13.4694 12.735 13.4388 12.7255L11.2427 12.0388C10.9608 11.951 10.6795 11.8638 10.3983 11.7754C10.2901 11.7416 10.2347 11.6532 10.243 11.5628C10.2545 11.4292 10.299 11.3363 10.4244 11.3115C10.4589 11.3062 10.4943 11.3092 10.5275 11.3204C10.7655 11.3935 11.0028 11.4699 11.2402 11.5437L12.9208 12.0681L13.5909 12.2762C13.641 12.29 13.6845 12.3214 13.7133 12.3646C13.7422 12.4079 13.7545 12.4601 13.7481 12.5116C13.7296 12.6535 13.645 12.7458 13.533 12.7496ZM8.8939 16.8835C8.91427 16.8885 8.93845 16.893 8.962 16.9L12.0197 17.8545C12.1247 17.8876 12.1871 17.9755 12.1775 18.0785C12.1654 18.2173 12.0929 18.3095 11.9841 18.3191C11.9504 18.3207 11.9167 18.316 11.8848 18.3051C11.0416 18.0429 10.1991 17.7795 9.35654 17.516C9.1809 17.4613 9.00527 17.4078 8.83027 17.3525C8.73227 17.3213 8.66736 17.2379 8.67436 17.1425C8.68454 17.0165 8.731 16.9204 8.84363 16.8917C8.85827 16.8873 8.87418 16.8866 8.89454 16.8835H8.8939ZM15.3403 6.85182C15.3307 6.87982 15.318 6.93836 15.2906 6.98736C15.2461 7.06755 15.1551 7.09745 15.0654 7.06945L13.5909 6.60873C13.0634 6.44391 12.5358 6.27909 12.0076 6.11555C11.9179 6.08755 11.8511 6.03473 11.8409 5.93291C11.8295 5.81836 11.8823 5.665 12.0325 5.64782C12.0609 5.64592 12.0895 5.64982 12.1165 5.65927L15.1812 6.61573C15.283 6.64755 15.3403 6.72264 15.3403 6.85182ZM10.9398 10.9646C10.9462 10.8329 11.0035 10.7336 11.1065 10.7133C11.1471 10.7061 11.1888 10.7087 11.2281 10.7209C11.5374 10.8151 11.8454 10.9125 12.1546 11.0092L13.3205 11.3719C13.3722 11.3863 13.4168 11.4194 13.4455 11.4648C13.4742 11.5102 13.4849 11.5646 13.4757 11.6175C13.4522 11.7639 13.365 11.853 13.2466 11.8403C13.1862 11.8326 13.127 11.8085 13.0672 11.79L11.5514 11.3165L11.0944 11.174C11.0487 11.162 11.0083 11.1347 10.9802 11.0966C10.9521 11.0585 10.9378 11.0119 10.9398 10.9646ZM10.7285 12.1674C10.7693 12.1782 10.7998 12.1839 10.8297 12.1928L12.7515 12.7935C12.8044 12.8101 12.8578 12.8254 12.9106 12.8425C13.0284 12.8807 13.0856 12.9902 13.0551 13.1149C13.0315 13.2135 12.9844 13.2893 12.8826 13.3065C12.8493 13.3112 12.8154 13.3084 12.7834 13.2982C12.539 13.2237 12.2953 13.1467 12.0515 13.0704C11.5978 12.9291 11.1447 12.7872 10.6916 12.6472C10.6076 12.6211 10.544 12.5708 10.53 12.4785C10.5141 12.3761 10.5408 12.2813 10.6229 12.2157C10.6547 12.1909 10.6967 12.182 10.7285 12.168V12.1674ZM8.95754 18.0136C8.96645 17.8762 9.02627 17.7686 9.15036 17.7553C9.17758 17.7526 9.20507 17.7554 9.23118 17.7635C9.93627 17.9831 10.6414 18.2026 11.3464 18.4235C11.4597 18.4591 11.5151 18.5711 11.4865 18.6907C11.4623 18.7925 11.4101 18.8638 11.3102 18.8867C11.2915 18.892 11.2718 18.8924 11.2529 18.888L9.27572 18.2707C9.21781 18.2523 9.15927 18.2351 9.10072 18.216C9.05842 18.2019 9.02172 18.1747 8.99596 18.1383C8.97021 18.1019 8.95675 18.0582 8.95754 18.0136ZM9.592 16.2827C9.61109 16.2878 9.63654 16.2923 9.66136 16.2999L11.7493 16.9515C11.8511 16.9834 11.9147 17.0725 11.9071 17.1717C11.8963 17.3079 11.8263 17.4015 11.7194 17.4148C11.6832 17.4177 11.6468 17.4132 11.6125 17.4015C11.0493 17.2265 10.4861 17.0495 9.92354 16.8733C9.78927 16.8319 9.65436 16.7905 9.52072 16.7479C9.42272 16.7161 9.36354 16.6353 9.37181 16.5347C9.382 16.4036 9.4329 16.3184 9.54236 16.2897C9.55636 16.2859 9.571 16.2859 9.592 16.2834V16.2827ZM14.4424 7.65236C14.3736 7.632 14.3068 7.61355 14.24 7.59255C13.5865 7.38891 12.9329 7.18336 12.2787 6.97909C12.1483 6.93773 12.0954 6.83273 12.1311 6.694C12.1534 6.60555 12.1992 6.54191 12.2851 6.52218C12.323 6.51373 12.3624 6.51504 12.3996 6.526C12.9787 6.70482 13.5585 6.88618 14.1382 7.06691C14.2623 7.10509 14.3857 7.14455 14.5098 7.18336C14.5569 7.19848 14.5972 7.22976 14.6235 7.27167C14.6498 7.31358 14.6605 7.36344 14.6536 7.41245C14.6428 7.49645 14.6193 7.57791 14.5391 7.61927C14.5092 7.63455 14.4754 7.64091 14.4424 7.65236ZM15.0679 5.93418C15.0558 6.01882 15.0329 6.11109 14.9362 6.15818C14.8868 6.18016 14.8308 6.18176 14.7803 6.16264L13.2753 5.69173L12.6879 5.50718C12.5644 5.469 12.511 5.36209 12.5447 5.23036C12.5676 5.14064 12.6109 5.07127 12.7006 5.05218C12.74 5.0445 12.7807 5.04669 12.819 5.05855C13.2148 5.18073 13.61 5.30545 14.0052 5.42891L14.912 5.71145C15.0106 5.74264 15.0685 5.81964 15.0679 5.93418Z" fill="white"/>
</g>
<defs>
<clipPath id="clip0_1265_21762">
<rect width="24" height="24" fill="white"/>
</clipPath>
</defs>
</svg>
