<svg viewBox="0 0 24 24" fill="none" xmlns="http://www.w3.org/2000/svg">
<g clip-path="url(#clip0_1265_21758)">
<path d="M12 24C18.6274 24 24 18.6274 24 12C24 5.37258 18.6274 0 12 0C5.37258 0 0 5.37258 0 12C0 18.6274 5.37258 24 12 24Z" fill="#2080A2"/>
<path fill-rule="evenodd" clip-rule="evenodd" d="M11.986 15.0079C11.1845 15.9228 11.1649 17.1779 11.9951 18.0137C12.7798 17.2577 12.7805 15.8486 11.986 15.0079ZM11.9867 6.4735C10.0932 8.6631 10.1646 11.2517 11.9853 13.4028C13.8389 11.2076 13.8438 8.6316 11.9867 6.4728V6.4735ZM13.3251 12.791C14.9001 11.181 16.8216 10.8128 19 11.1614C18.2979 12.7714 17.3074 14.0573 15.5574 14.73C15.9438 14.4269 16.2959 14.1791 16.6144 13.8949C17.1464 13.421 17.523 12.847 17.7113 12.1575C17.7708 11.9398 17.6938 11.8782 17.4936 11.846C16.7607 11.7284 16.0726 11.8824 15.4153 12.182C14.3093 12.686 13.4084 13.4623 12.5635 14.3058C12.5488 14.3212 12.5425 14.3436 12.5159 14.3919C14.1714 14.4549 15.4321 15.1157 16.179 16.6424C15.2088 16.858 14.3212 16.8125 13.498 16.2833C14.1182 16.4737 14.737 16.6123 15.416 16.2903C15.332 16.1503 15.283 15.9865 15.171 15.8948C14.8651 15.6449 14.5515 15.3922 14.205 15.2018C13.6695 14.9092 13.071 14.772 12.4088 14.6362C13.3027 16.2021 13.0787 17.6238 11.986 19C11.4778 18.3595 11.1222 17.6896 11.0249 16.8986C10.9269 16.1048 11.1502 15.3838 11.5331 14.6936C10.6861 14.5578 8.8584 15.5385 8.5756 16.2945C9.2315 16.6263 9.8713 16.4751 10.53 16.2301C10.0568 16.7173 8.6925 16.9168 7.8028 16.6235C8.5413 15.1185 9.7957 14.4556 11.4883 14.3926C11.3637 14.2666 11.2713 14.1693 11.1747 14.0762C10.4705 13.3972 9.7222 12.7742 8.843 12.3206C8.1241 11.9496 7.3702 11.7172 6.5421 11.8411C6.4441 11.8558 6.3468 11.8796 6.2096 11.9076C6.4616 13.2026 7.3296 14.0055 8.4034 14.6824C7.275 14.5459 5.371 12.574 5 11.1586C7.177 10.8058 9.109 11.1922 10.677 12.8379C9.3799 9.949 10.0701 7.3919 11.986 5C13.8865 7.373 14.5837 9.9119 13.3251 12.791Z" fill="white"/>
</g>
<defs>
<clipPath id="clip0_1265_21758">
<rect width="24" height="24" fill="white"/>
</clipPath>
</defs>
</svg>