<svg width="24" height="24" viewBox="0 0 24 24" fill="none" xmlns="http://www.w3.org/2000/svg">
<path d="M12.0803 22C17.6032 22 22.0803 17.5228 22.0803 12C22.0803 6.47715 17.6032 2 12.0803 2C6.55748 2 2.08032 6.47715 2.08032 12C2.08032 17.5228 6.55748 22 12.0803 22Z" fill="#00EF8B"/>
<path d="M16.4683 10.436H13.6443V13.26H16.4683V10.436Z" fill="white"/>
<path d="M10.8224 14.318C10.8224 14.9035 10.3478 15.378 9.76237 15.378C9.17695 15.378 8.70237 14.9035 8.70237 14.318C8.70237 13.7326 9.17695 13.258 9.76237 13.258H10.8224V10.436H9.76237C7.6184 10.436 5.88037 12.1741 5.88037 14.318C5.88037 16.462 7.6184 18.2 9.76237 18.2C11.9063 18.2 13.6444 16.462 13.6444 14.318V13.258H10.8224V14.318Z" fill="white"/>
<path d="M14.7043 9.02395H17.8803V6.19995H14.7043C12.5612 6.20216 10.8245 7.9389 10.8223 10.082V10.436H13.6443V10.082C13.6454 9.49731 14.1196 9.02395 14.7043 9.02395Z" fill="white"/>
<path d="M10.8223 13.258H13.6443V10.436H10.8223V13.258Z" fill="#16FF99"/>
</svg>
