<svg width="24" height="24" viewBox="0 0 24 24" fill="none" xmlns="http://www.w3.org/2000/svg">
<path fill-rule="evenodd" clip-rule="evenodd" d="M20.3333 20.6667H3.66667C2.7475 20.6667 2 19.9195 2 19.0003V5.66633C2 4.74721 2.7475 4 3.66667 4H9.5C9.52583 4 9.54833 4.01258 9.57333 4.01426C9.62917 4.01929 9.6825 4.03103 9.7375 4.0478C9.7925 4.06457 9.84333 4.08386 9.8925 4.11154C9.915 4.12328 9.94083 4.12579 9.9625 4.14005L12.3033 5.70071H20.3333C21.2525 5.70071 22 6.41438 22 7.3335V19.0003C22 19.9195 21.2525 20.6667 20.3333 20.6667ZM20.3333 7.3335H12C12 7.3335 12 7.3335 11.9992 7.3335C11.9017 7.3335 11.8058 7.31002 11.7117 7.2748C11.6817 7.26389 11.6558 7.24964 11.6275 7.23538C11.5975 7.22029 11.5658 7.2119 11.5375 7.19345L9.2475 5.66633H3.66667V19.1186H20.3333V7.3335ZM9.74417 10.0775C10.07 9.75207 10.5967 9.75207 10.9225 10.0775C11.2483 10.4028 11.2483 10.9303 10.9225 11.2557L9.01167 13.1669L10.9225 15.0773C11.2483 15.4027 11.2483 15.9302 10.9225 16.2555C10.76 16.4191 10.5467 16.5004 10.3333 16.5004C10.12 16.5004 9.90667 16.4191 9.74417 16.2555L7.24417 13.7556C6.91834 13.4302 6.91834 12.9036 7.24417 12.5774L9.74417 10.0775ZM13.0775 10.0791C13.4033 9.75375 13.93 9.75375 14.2558 10.0791L16.7558 12.579C17.0817 12.9044 17.0817 13.4319 16.7558 13.7573L14.2558 16.2572C14.0933 16.4199 13.88 16.5013 13.6667 16.5013C13.4533 16.5013 13.24 16.4199 13.0775 16.2572C12.7517 15.9318 12.7517 15.4043 13.0775 15.079L14.9883 13.1686L13.0775 11.2574C12.7517 10.932 12.7517 10.4045 13.0775 10.0791Z" fill="#6B7084"/>
</svg>
