<svg width="24" height="24" viewBox="0 0 24 24" fill="none" xmlns="http://www.w3.org/2000/svg">
<path fill-rule="evenodd" clip-rule="evenodd" d="M21.1667 16.3081C20.7058 16.3081 20.3333 15.9364 20.3333 15.4797V6.36182H12C11.7658 6.36182 11.5558 6.25181 11.4042 6.08431L9.2475 4.65591H3.66667V18.029H14.5C14.9608 18.029 15.3333 18.2749 15.3333 18.7315C15.3333 19.1891 14.9608 19.6958 14.5 19.6958H3.66667C2.7475 19.6958 2 18.8174 2 17.904V4.65591C2 3.74253 2.7475 3 3.66667 3H9.5C9.52583 3 9.5475 3.0125 9.5725 3.01417C9.62917 3.01917 9.6825 3.03083 9.73833 3.0475C9.79333 3.06417 9.84333 3.08417 9.89333 3.11084C9.915 3.12334 9.94083 3.12501 9.9625 3.13917L12.3117 4.69508H20.3333C21.2517 4.69508 22 5.39928 22 6.31182V15.4797C22 15.9364 21.6275 16.3081 21.1667 16.3081ZM17.8333 13.8813C18.2942 13.8813 18.6667 14.253 18.6667 14.7097V18.0215C18.6667 18.479 18.2942 18.8499 17.8333 18.8499C17.3725 18.8499 17 18.479 17 18.0215V14.7097C17 14.253 17.3725 13.8813 17.8333 13.8813ZM18.425 19.9174C18.575 20.0749 18.6667 20.2816 18.6667 20.5058C18.6667 20.7208 18.575 20.9358 18.425 21.0933C18.2658 21.2417 18.05 21.3333 17.8333 21.3333C17.6167 21.3333 17.3992 21.2417 17.2417 21.0933C17.0908 20.9358 17 20.7208 17 20.5058C17 20.2816 17.0908 20.0749 17.2417 19.9174C17.55 19.6107 18.1083 19.6107 18.425 19.9174Z" fill="#6B7084"/>
</svg>
