<svg width="24" height="24" viewBox="0 0 24 24" fill="none" xmlns="http://www.w3.org/2000/svg">
<path fill-rule="evenodd" clip-rule="evenodd" d="M18.8308 22H4.66917C3.74833 22 3 21.2511 3 20.3308V10.3354C3 9.41505 3.74833 8.66611 4.66917 8.66611H5.5V2.83337C5.5 2.3728 5.87333 2 6.33333 2H13C13.0175 2 13.0325 2.00836 13.0492 2.00919C13.1267 2.01421 13.2008 2.02926 13.2733 2.05433C13.2992 2.06353 13.3242 2.07021 13.3492 2.08192C13.4358 2.12204 13.5183 2.17303 13.5883 2.24324C13.5892 2.24324 13.5892 2.24324 13.5892 2.24408L17.665 6.31981C17.6917 6.3382 17.7042 6.36996 17.7283 6.39169C17.7525 6.41426 17.7717 6.44017 17.7933 6.46608C17.9217 6.61236 18.0167 6.78957 18.0167 6.99937C18.0167 7.02863 18.0025 7.0537 18 7.08212V10.3328H18.8308C19.7517 10.3328 20.5 11.0818 20.5 12.0021V20.3308C20.5 21.2511 19.7517 22 18.8308 22ZM13.8333 4.84449V6.16601H15.155L13.8333 4.84449ZM16.3333 7.83274H13C12.54 7.83274 12.1667 7.45911 12.1667 6.99937V3.63832H7.16667V8.66611H9.66667C9.85833 8.66611 10.0433 8.73214 10.1917 8.85251L12.0175 10.3328H16.3333V7.83274ZM11.7225 11.9996C11.5308 11.9996 11.3458 11.9344 11.1975 11.814L9.37083 10.3328H4.66917L4.66667 20.3308L18.8317 20.3333L18.8333 12.0021L11.7225 11.9996Z" fill="#6B7084"/>
</svg>
