<svg viewBox="0 0 24 24" fill="none" xmlns="http://www.w3.org/2000/svg">
<path fill-rule="evenodd" clip-rule="evenodd" d="M20.3333 19.6667H3.66667C2.7475 19.6667 2 18.9195 2 18.0003V4.66717C2 3.74805 2.7475 3 3.66667 3H9.5C9.52583 3 9.5475 3.01258 9.57333 3.0151C9.63 3.02013 9.6825 3.03103 9.7375 3.0478C9.7925 3.06457 9.84333 3.0847 9.8925 3.11154C9.915 3.12412 9.94 3.12579 9.9625 3.14005L12.2992 4.6982H20.3333C21.2525 4.6982 22 5.41438 22 6.3335V18.0003C22 18.9195 21.2525 19.6667 20.3333 19.6667ZM20.3333 6.33351H12C12 6.33351 12 6.33351 11.9992 6.33351C11.9017 6.33351 11.8058 6.31003 11.7117 6.2748C11.6825 6.2639 11.6558 6.25048 11.6283 6.23623C11.5983 6.22113 11.5667 6.21275 11.5375 6.19346L9.24833 4.66718H3.66667V18.1161H20.3333V6.33351ZM11.255 8.46023C11.5367 7.89584 12.4633 7.89584 12.7458 8.46023L16.0792 15.1272C16.285 15.5398 16.1175 16.0396 15.7058 16.2459C15.5867 16.3055 15.4592 16.334 15.3342 16.334C15.0283 16.334 14.7342 16.1654 14.5883 15.8728L13.5683 13.8341H10.4317L9.4125 15.8728C9.20667 16.2845 8.70583 16.4514 8.29417 16.2459C7.8825 16.0396 7.715 15.5398 7.92167 15.1272L11.255 8.46023ZM12.735 12.1669L12 10.6968L11.265 12.1669H12.735Z" fill="currentColor"/>
</svg>