<svg viewBox="0 0 24 24" fill="none" xmlns="http://www.w3.org/2000/svg">
<path fill-rule="evenodd" clip-rule="evenodd" d="M21.1661 12.8334C20.706 12.8334 20.4158 12.5157 20.4158 12.0555V5.35017L11.9996 5.33341C11.9996 5.33341 11.9996 5.33341 11.9987 5.33341C11.9017 5.33341 11.8055 5.30994 11.711 5.27474C11.6826 5.26384 11.6566 5.25043 11.629 5.23618C11.5989 5.22109 11.5663 5.21271 11.5379 5.19343L9.24771 3.66712H3.66702L3.68709 17.0846H10.3786C10.8386 17.0846 11.1665 17.3737 11.1665 17.8339C11.1665 18.2941 10.7934 18.667 10.3334 18.667H3.66702C2.74777 18.667 2 17.9194 2 16.9999V3.66712C2 2.74765 2.74777 2 3.66702 2H9.50031C9.52624 2 9.54799 2.01257 9.57308 2.01509C9.62912 2.02012 9.68266 2.03185 9.7387 2.04861C9.79307 2.06454 9.84325 2.08466 9.8926 2.11148C9.91518 2.12405 9.94028 2.12573 9.96203 2.13997L12.2522 3.66712H20.333C21.2522 3.66712 22 4.41393 22 5.33341V12.0002C22 12.4604 21.6261 12.8334 21.1661 12.8334ZM13.281 15.9002C13.4399 14.2398 15.0333 12.8334 16.8584 12.8334C17.3059 12.8334 17.7417 12.9214 18.1549 13.094C18.5798 13.2717 18.7797 13.7604 18.6016 14.1853C18.4242 14.6095 17.9349 14.8089 17.5117 14.6321C16.4954 14.2071 15.2257 14.9338 14.9706 15.8441C15.2818 15.6915 15.664 15.736 15.9225 15.9941C16.2478 16.3202 16.2478 16.8474 15.9225 17.1726L14.672 18.4223C14.5097 18.5857 14.2964 18.667 14.0831 18.667C13.8699 18.667 13.6566 18.5857 13.4943 18.4223L12.2438 17.1726C11.9184 16.8474 11.9184 16.3202 12.2438 15.9941C12.5282 15.7108 12.9581 15.6899 13.281 15.9002ZM16.4937 18.538C16.6945 18.6235 16.912 18.6671 17.1395 18.6671C18.0152 18.6671 18.8483 18.0451 19.0407 17.3151C18.7279 17.476 18.3398 17.4349 18.0771 17.1726C17.7517 16.8474 17.7517 16.3202 18.0771 15.9941L19.3276 14.7444C19.653 14.4184 20.1799 14.4184 20.5053 14.7444L21.7558 15.9941C22.0811 16.3202 22.0811 16.8474 21.7558 17.1726C21.5927 17.336 21.3794 17.4173 21.1661 17.4173C21.008 17.4173 20.8566 17.357 20.7186 17.2673C20.5597 18.9277 18.9654 20.3333 17.1395 20.3333C16.6861 20.3333 16.2487 20.2453 15.8397 20.071C15.4164 19.8899 15.219 19.4005 15.3997 18.9772C15.5804 18.5539 16.0688 18.3569 16.4937 18.538Z" fill="currentColor"/>
</svg>