<svg width="24" height="24" viewBox="0 0 24 24" fill="none" xmlns="http://www.w3.org/2000/svg">
<path fill-rule="evenodd" clip-rule="evenodd" d="M12.2523 4.69231H20.3333C21.2519 4.69231 22 5.45191 22 6.38462V18.2308C22 19.1635 21.2519 19.9231 20.3333 19.9231H3.66667C2.7481 19.9231 2 19.1635 2 18.2308V4.69231C2 3.75961 2.7481 3 3.66667 3H9.5C9.66452 3 9.82536 3.04945 9.96225 3.14211L12.2523 4.69231ZM11.7661 6.35086C11.6792 6.32491 11.5997 6.28602 11.5283 6.23611L9.24769 4.69233H3.66667V18.2308H20.3333V6.38463H12.0114C11.9293 6.38585 11.8466 6.37478 11.7661 6.35086ZM8.02606 15.1031C8.32042 15.4623 8.84585 15.5112 9.19965 15.2123C10.1702 14.3924 11.0992 14 12 14C12.9008 14 13.8298 14.3924 14.8003 15.2123C15.1541 15.5112 15.6796 15.4623 15.9739 15.1031C16.2683 14.7438 16.2201 14.2103 15.8663 13.9114C14.6146 12.854 13.3214 12.3077 12 12.3077C10.6786 12.3077 9.38537 12.854 8.13368 13.9114C7.77988 14.2103 7.7317 14.7438 8.02606 15.1031ZM9.5 10.6154C9.96024 10.6154 10.3333 10.2366 10.3333 9.76926C10.3333 9.30194 9.96024 8.92311 9.5 8.92311C9.03976 8.92311 8.66667 9.30194 8.66667 9.76926C8.66667 10.2366 9.03976 10.6154 9.5 10.6154ZM15.3333 9.76926C15.3333 10.2366 14.9602 10.6154 14.5 10.6154C14.0398 10.6154 13.6667 10.2366 13.6667 9.76926C13.6667 9.30194 14.0398 8.92311 14.5 8.92311C14.9602 8.92311 15.3333 9.30194 15.3333 9.76926Z" fill="#6B7084"/>
</svg>
