<svg viewBox="0 0 24 24" fill="none" xmlns="http://www.w3.org/2000/svg">
<path fill-rule="evenodd" clip-rule="evenodd" d="M20.3333 20.6667H3.66667C2.7475 20.6667 2 19.9195 2 19.0003V5.66717C2 4.74805 2.7475 4 3.66667 4H9.5C9.52583 4 9.5475 4.01258 9.5725 4.0151C9.62917 4.02013 9.68333 4.03187 9.73917 4.04864C9.79333 4.06541 9.84333 4.0847 9.8925 4.11154C9.915 4.12412 9.94 4.12579 9.9625 4.14005L12.2967 5.69652H20.3333C21.2525 5.69652 22 6.41438 22 7.3335V19.0003C22 19.9195 21.2525 20.6667 20.3333 20.6667ZM20.3333 7.3335H12C12 7.3335 12 7.3335 11.9992 7.3335C11.9017 7.3335 11.8058 7.31002 11.7117 7.27564C11.6825 7.26473 11.6558 7.25048 11.6283 7.23622C11.5983 7.22113 11.5667 7.21274 11.5375 7.19345L9.24833 5.66717H3.66667V19.1144H20.3333V7.3335Z" fill="currentColor"/>
</svg>