<svg width="24" height="24" viewBox="0 0 24 24" fill="none" xmlns="http://www.w3.org/2000/svg">
<path fill-rule="evenodd" clip-rule="evenodd" d="M20.3333 19.6667H3.66667C2.7475 19.6667 2 18.9195 2 18.0003V4.66633C2 3.74721 2.7475 3 3.66667 3H9.5C9.525 3 9.54667 3.01258 9.57167 3.01426C9.62917 3.01929 9.68333 3.03103 9.73917 3.04864C9.79333 3.06541 9.8425 3.0847 9.89167 3.1107C9.91417 3.12328 9.94 3.12495 9.9625 3.14005L12.3033 4.70071H20.3333C21.2525 4.70071 22 5.41438 22 6.3335V18.0003C22 18.9195 21.2525 19.6667 20.3333 19.6667ZM20.3333 6.3335H12C12 6.3335 12 6.3335 11.9992 6.3335C11.9017 6.3335 11.805 6.31002 11.7117 6.2748C11.6825 6.26389 11.6567 6.25048 11.6292 6.23622C11.5992 6.22112 11.5667 6.21274 11.5375 6.19345L9.2475 4.66633H3.66667V18.1186H20.3333V6.3335ZM8.80666 12.5418C8.94583 12.3346 9.17083 12.1996 9.41916 12.1753C9.66583 12.1468 9.915 12.2399 10.0917 12.4177L11.0775 13.4106L12.9992 10.8352C13.165 10.6121 13.43 10.4872 13.71 10.5014C13.9883 10.5157 14.2408 10.6683 14.3833 10.9082L16.8592 15.0744C17.0117 15.3319 17.015 15.6522 16.8667 15.9122C16.7183 16.173 16.4417 16.3332 16.1425 16.3332H7.83333C7.52583 16.3332 7.24333 16.1638 7.09833 15.8929C6.95333 15.622 6.96916 15.2933 7.14 15.0367L8.80666 12.5418ZM9.085 11.3333C8.39167 11.3333 7.83333 10.7723 7.83333 10.083C7.83333 9.39361 8.39167 8.83342 9.085 8.83342C9.77333 8.83342 10.3333 9.39361 10.3333 10.083C10.3333 10.7723 9.77333 11.3333 9.085 11.3333Z" fill="#6B7084"/>
</svg>
