<svg width="24" height="24" viewBox="0 0 24 24" fill="none" xmlns="http://www.w3.org/2000/svg">
<path fill-rule="evenodd" clip-rule="evenodd" d="M21.1664 13.0002C20.7066 13.0002 20.4419 12.68 20.4419 12.2199V6.35269L11.9999 6.33341H11.9991C11.9019 6.33341 11.8056 6.31078 11.7118 6.27558C11.6825 6.26468 11.6565 6.25043 11.628 6.23618C11.5987 6.22109 11.5669 6.21271 11.5376 6.19343L9.24761 4.66712H3.66679L3.69024 18.0871H11.2285C11.6883 18.0871 11.9999 18.3729 11.9999 18.8339C11.9999 19.2941 11.6272 19.667 11.1665 19.667H3.66679C2.74796 19.667 2 18.9194 2 17.9999V4.66712C2 3.74765 2.74796 3 3.66679 3H9.50056C9.52569 3 9.54747 3.01257 9.57259 3.01509C9.62955 3.02012 9.68316 3.03185 9.73844 3.04861C9.79288 3.06454 9.84313 3.08466 9.89255 3.11148C9.91517 3.12405 9.94029 3.12573 9.96207 3.13997L12.252 4.66712H20.333C21.2527 4.66712 21.9998 5.41477 21.9998 6.33341V12.1671C21.9998 12.6272 21.6271 13.0002 21.1664 13.0002ZM15.0353 17.3612L17.3378 19.2915L20.4955 15.006C20.7694 14.6347 21.2895 14.5567 21.6614 14.8291C22.0316 15.1024 22.1104 15.6237 21.8373 15.995L18.1536 20.9947C18.0171 21.1799 17.8102 21.2998 17.5816 21.3275C17.5489 21.3317 17.5154 21.3333 17.4827 21.3333C17.2876 21.3333 17.0983 21.2654 16.9475 21.1389L13.9649 18.6386C13.6123 18.3427 13.5662 17.818 13.861 17.4643C14.1567 17.1115 14.6819 17.0654 15.0353 17.3612Z" fill="#6B7084"/>
</svg>
