<svg width="24" height="24" viewBox="0 0 24 24" fill="none" xmlns="http://www.w3.org/2000/svg">
<path fill-rule="evenodd" clip-rule="evenodd" d="M21.1667 11.16C20.7067 11.16 20.3333 10.787 20.3333 10.3269V5.33074H12C12 5.33074 12 5.33074 11.9992 5.33074C11.9017 5.33074 11.805 5.30728 11.7117 5.27291C11.6825 5.26202 11.6567 5.24777 11.6292 5.23436C11.5992 5.21927 11.5667 5.21089 11.5375 5.19161L9.24833 3.66537H3.66667V17.1124H12C12.46 17.1124 12.8333 17.3622 12.8333 17.8214C12.8333 18.2816 12.46 18.6546 12 18.6546H3.66667C2.7475 18.6546 2 17.9078 2 16.9892V3.66537C2 2.74678 2.7475 2 3.66667 2H9.5C9.525 2 9.54667 2.01257 9.57083 2.01509C9.62917 2.01928 9.68333 2.03185 9.74 2.04861C9.79333 2.06537 9.8425 2.08465 9.89083 2.11063C9.91417 2.12321 9.94 2.12488 9.9625 2.13997L12.3075 3.70225H20.3333C21.2525 3.70225 22 4.41215 22 5.33074V10.3269C22 10.787 21.6267 11.16 21.1667 11.16ZM15.3333 15.4361V14.505C15.3333 13.1271 16.4542 12.0065 17.8317 12.0065C19.2108 12.0065 20.3333 13.1271 20.3333 14.505V15.3347C20.3333 15.3707 20.3175 15.4009 20.3125 15.4361H20.3333C20.7933 15.4361 21.1667 15.7102 21.1667 16.1703V19.5011C21.1667 19.9604 20.7933 20.3333 20.3333 20.3333H15.3333C14.8733 20.3333 14.5 19.9604 14.5 19.5011V16.1703C14.5 15.7102 14.8733 15.4361 15.3333 15.4361ZM18.6667 15.3347V14.505C18.6667 14.0457 18.2917 13.6718 17.8317 13.6718C17.3733 13.6718 17 14.0457 17 14.505V15.4361H18.6875C18.6825 15.4009 18.6667 15.3707 18.6667 15.3347ZM16.1667 18.7887H19.5V17.0026H16.1667V18.7887Z" fill="#6B7084"/>
</svg>
