<svg width="24" height="24" viewBox="0 0 24 24" fill="none" xmlns="http://www.w3.org/2000/svg">
<path fill-rule="evenodd" clip-rule="evenodd" d="M21.1667 15.4907C20.7067 15.4907 20.3333 15.1177 20.3333 14.6584V6.33074H12C12 6.33074 12 6.33074 11.9992 6.33074C11.9017 6.33074 11.8058 6.30811 11.7117 6.27291C11.6825 6.26202 11.6558 6.24777 11.6283 6.23352C11.5983 6.21843 11.5667 6.21005 11.5375 6.19077L9.2475 4.66537H3.66667V18.1149H12C12.46 18.1149 12.8333 18.3622 12.8333 18.8214C12.8333 19.2816 12.46 19.7912 12 19.7912H3.66667C2.7475 19.7912 2 18.9078 2 17.9892V4.66537C2 3.74678 2.7475 3 3.66667 3H9.5C9.52583 3 9.5475 3.01257 9.5725 3.01425C9.62917 3.01928 9.6825 3.03101 9.73833 3.04777C9.79333 3.06454 9.84333 3.08465 9.8925 3.11147C9.915 3.12404 9.94 3.12572 9.9625 3.13997L12.3117 4.70476H20.3333C21.2525 4.70476 22 5.41299 22 6.33074V14.6584C22 15.1177 21.6267 15.4907 21.1667 15.4907ZM15.9233 17.4142L17 18.4912V13.8387C17 13.3794 17.3733 13.0065 17.8333 13.0065C18.2933 13.0065 18.6667 13.3794 18.6667 13.8387V18.4895L19.7442 17.4134C20.07 17.089 20.5975 17.089 20.9233 17.4142C21.2483 17.7394 21.2483 18.2666 20.9225 18.5918L18.425 21.0861C18.3475 21.164 18.255 21.2269 18.1517 21.2696C18.0875 21.2965 18.0167 21.3006 17.9475 21.3107C17.9083 21.3166 17.8733 21.3333 17.8333 21.3333H17.8325H17.8317C17.72 21.3333 17.6108 21.3107 17.51 21.268C17.4892 21.2596 17.475 21.242 17.4558 21.2319C17.3792 21.1934 17.3042 21.1515 17.2425 21.0894L14.7433 18.5918C14.4183 18.2666 14.4183 17.7386 14.7442 17.4134C15.07 17.089 15.5975 17.089 15.9233 17.4142Z" fill="#6B7084"/>
</svg>
