<svg viewBox="0 0 24 24" fill="none" xmlns="http://www.w3.org/2000/svg">
<path fill-rule="evenodd" clip-rule="evenodd" d="M20.3333 20.6667H3.66667C2.7475 20.6667 2 19.7971 2 18.885V5.65435C2 4.74146 2.7475 4 3.66667 4H9.5C9.52583 4 9.5475 4.01248 9.57333 4.01498C9.62917 4.01997 9.6825 4.03162 9.7375 4.04743C9.7925 4.06408 9.84333 4.08405 9.89333 4.11151C9.91583 4.12316 9.94083 4.12483 9.9625 4.13897L12.3033 5.68764H15.9983C16.0542 5.67599 16.1067 5.65435 16.1667 5.65435C16.2267 5.65435 16.2792 5.67599 16.335 5.68764H20.3333C21.2517 5.68764 22 6.39581 22 7.30787V18.885C22 19.7971 21.2517 20.6667 20.3333 20.6667ZM15.3333 7.30787H12C12 7.30787 12 7.30787 11.9992 7.30787C11.9017 7.30787 11.8058 7.28457 11.7117 7.25045C11.6817 7.23963 11.6558 7.22548 11.6275 7.21051C11.5975 7.19553 11.5658 7.18804 11.5375 7.1689L9.24833 5.65435H3.66667V19.0023H15.3333V16.5083H14.5C14.0392 16.5083 13.6667 16.138 13.6667 15.6811C13.6667 15.2243 14.0392 14.854 14.5 14.854H15.3333V13.1489H14.5C14.0392 13.1489 13.6667 12.7785 13.6667 12.3217V9.01381C13.6667 8.55695 14.0392 8.18747 14.5 8.18747H15.3333V7.30787ZM15.3333 9.84099V11.4945H17V9.84099H15.3333ZM20.3333 7.30787H17V8.18747H17.8333C18.2942 8.18747 18.6667 8.55695 18.6667 9.01381V12.3217C18.6667 12.7785 18.2942 13.1489 17.8333 13.1489H17V14.0268H17.8333C18.2942 14.0268 18.6667 14.3979 18.6667 14.854C18.6667 15.3108 18.2942 15.6811 17.8333 15.6811H17V16.5083H17.8333C18.2942 16.5083 18.6667 16.8786 18.6667 17.3347C18.6667 17.7915 18.2942 18.1618 17.8333 18.1618H17V19.0023H20.3333V7.30787Z" fill="currentColor"/>
</svg>