<svg width="24" height="24" viewBox="0 0 24 24" fill="none" xmlns="http://www.w3.org/2000/svg">
<path fill-rule="evenodd" clip-rule="evenodd" d="M21.1667 12.9998C20.7067 12.9998 20.3333 12.6268 20.3333 12.1667V6.3341H12C12 6.3341 12 6.33326 11.9992 6.33326V6.3341C11.9025 6.3341 11.8058 6.31063 11.7125 6.27543C11.6825 6.26453 11.6558 6.25028 11.6283 6.23603C11.5983 6.22095 11.5667 6.21257 11.5375 6.19329L9.2475 4.66705H3.66667V18.0864H12.8333C13.2933 18.0864 13.6667 18.373 13.6667 18.8332C13.6667 19.2933 13.2933 19.6663 12.8333 19.6663H3.66667C2.7475 19.6663 2 18.9195 2 18.0001V4.66705C2 3.74761 2.7475 3 3.66667 3H9.5C9.52583 3 9.5475 3.01257 9.5725 3.01509C9.62917 3.02012 9.68333 3.03185 9.73833 3.04861C9.79333 3.06537 9.84333 3.08465 9.8925 3.11147C9.915 3.12404 9.94 3.12572 9.9625 3.14081L12.2525 4.66705H20.3333C21.2525 4.66705 22 5.41466 22 6.3341V12.1667C22 12.6268 21.6267 12.9998 21.1667 12.9998ZM16.1667 17.1661C16.6267 17.1661 17 17.5391 17 18.0001C17 18.9195 17.7475 19.6663 18.6667 19.6663C19.5858 19.6663 20.3333 18.9195 20.3333 18.0001C20.3333 17.2189 19.7917 16.566 19.065 16.3867L19.2558 16.5769C19.5817 16.903 19.5817 17.4301 19.2558 17.7553C19.0933 17.9179 18.88 18.0001 18.6667 18.0001C18.4533 18.0001 18.24 17.9179 18.0775 17.7553L16.4108 16.0891C16.085 15.7631 16.085 15.2359 16.4108 14.9107L18.0775 13.2445C18.4033 12.9185 18.93 12.9185 19.2558 13.2445C19.5817 13.5697 19.5817 14.0969 19.2558 14.4221L18.9783 14.6995C20.6758 14.8671 22 16.2735 22 18.0001C22 19.8373 20.505 21.3333 18.6667 21.3333C16.8283 21.3333 15.3333 19.8373 15.3333 18.0001C15.3333 17.5391 15.7067 17.1661 16.1667 17.1661Z" fill="#6B7084"/>
</svg>
