<svg viewBox="0 0 24 24" fill="none" xmlns="http://www.w3.org/2000/svg">
<path fill-rule="evenodd" clip-rule="evenodd" d="M21.1661 11.9998C20.706 11.9998 20.4116 11.6797 20.4116 11.2195V5.352L12.0004 5.33272C11.9996 5.33272 11.9996 5.33272 11.9996 5.33272C11.9017 5.33272 11.8055 5.31009 11.7118 5.27489C11.6817 5.26399 11.6558 5.24974 11.6282 5.23549C11.5981 5.2204 11.5663 5.21202 11.5379 5.19274L9.24771 3.66636H3.66702L3.68291 17.0869H11.2108C11.6709 17.0869 12.0004 17.3728 12.0004 17.8338C12.0004 18.294 11.6265 18.667 11.1665 18.667H3.66702C2.74777 18.667 2 17.9193 2 16.9998V3.66636C2 2.74685 2.74777 2 3.66702 2H9.50031C9.52541 2 9.54632 2.01173 9.57141 2.01425C9.62912 2.01928 9.68349 2.03101 9.74037 2.04862C9.7939 2.06454 9.84242 2.08382 9.89093 2.10981C9.91435 2.12238 9.94028 2.12406 9.96203 2.13914L12.2522 3.66636H20.333C21.2522 3.66636 22 4.41405 22 5.33272V11.1667C22 11.6268 21.6261 11.9998 21.1661 11.9998ZM17.8329 15.3334H19.1553L18.9102 15.0895C18.5848 14.7634 18.5848 14.2362 18.9102 13.911C19.2364 13.5857 19.7634 13.5857 20.0887 13.911L21.7558 15.5773C22.0811 15.9034 22.0811 16.4306 21.7558 16.7559L20.0887 18.4222C19.9265 18.5857 19.7132 18.667 19.4999 18.667C19.2866 18.667 19.0733 18.5857 18.9102 18.4222C18.5848 18.097 18.5848 17.5698 18.9102 17.2445L19.1544 16.9998H17.8329C16.4544 16.9998 15.3328 18.1213 15.3328 19.5002C15.3328 19.9603 14.9597 20.3333 14.4997 20.3333C14.0396 20.3333 13.6666 19.9603 13.6666 19.5002C13.6666 17.2026 15.536 15.3334 17.8329 15.3334Z" fill="currentColor"/>
</svg>