<svg viewBox="0 0 24 24" fill="none" xmlns="http://www.w3.org/2000/svg">
<path fill-rule="evenodd" clip-rule="evenodd" d="M21.1662 13.6656C20.7058 13.6656 20.3332 13.2924 20.3332 12.8319L20.3883 5.47411H12.0334C11.7778 5.47411 11.548 5.30939 11.3859 5.0892L9.24705 3.66303H3.66681L3.6785 17.2398H13.7044C14.1648 17.2398 14.5399 17.6197 14.5399 18.0802C14.5399 18.5407 14.1648 18.9206 13.7044 18.9206H3.6785C2.75946 18.9206 2 17.9188 2 16.9994V3.66303C2 2.74447 2.75946 2.11248 3.6785 2.11248H9.09165C9.3565 1.96205 9.6907 1.95533 9.96224 2.13602L12.447 3.7933H20.3883C21.3074 3.7933 22 4.411 22 5.3304V12.8319C22 13.2924 21.6265 13.6656 21.1662 13.6656ZM16.0404 15.5859L17.3271 15.3884L17.9103 14.1446C18.0473 13.8521 18.3414 13.6655 18.6647 13.6655C18.9881 13.6655 19.2813 13.8521 19.4192 14.1446L20.0032 15.3884L21.2923 15.5859C21.6015 15.6329 21.858 15.8498 21.9566 16.1456C22.056 16.4422 21.9808 16.7692 21.7627 16.9927L20.8061 17.9709L21.0325 19.366C21.0835 19.6812 20.9506 19.9972 20.6899 20.1821C20.5462 20.2821 20.3783 20.3333 20.2104 20.3333C20.0717 20.3333 19.933 20.2989 19.8068 20.2291L18.6647 19.598L17.5234 20.2291C17.2452 20.3829 16.9018 20.3644 16.6403 20.1821C16.3796 19.9972 16.2468 19.6812 16.2978 19.366L16.525 17.9709L15.5701 16.9919C15.352 16.7683 15.2768 16.4414 15.3762 16.1456C15.4748 15.8489 15.7313 15.6329 16.0404 15.5859ZM18.0114 17.1079C18.196 17.2969 18.2796 17.5625 18.2369 17.823L18.2186 17.9399L18.2612 17.9155C18.3865 17.8457 18.526 17.8113 18.6647 17.8113C18.8034 17.8113 18.9429 17.8457 19.0683 17.9155L19.1125 17.9407L19.0933 17.823C19.0515 17.5617 19.1359 17.2969 19.3206 17.107L19.4359 16.9885L19.3114 16.9692C19.0373 16.9272 18.8017 16.7515 18.6831 16.5002L18.6656 16.4607L18.6472 16.4994C18.5285 16.7515 18.2929 16.9272 18.0189 16.9692L17.8952 16.9885L18.0114 17.1079Z" fill="currentColor"/>
</svg>