<svg viewBox="0 0 24 24" fill="none" xmlns="http://www.w3.org/2000/svg">
<path fill-rule="evenodd" clip-rule="evenodd" d="M20.3333 20.6667H3.66667C2.7475 20.6667 2 19.9195 2 19.0003V5.66717C2 4.74805 2.7475 4 3.66667 4H9.5C9.52583 4 9.5475 4.01258 9.57333 4.0151C9.63 4.02013 9.68333 4.03103 9.73833 4.0478C9.7925 4.06457 9.84333 4.0847 9.8925 4.11154C9.915 4.12412 9.94 4.12579 9.9625 4.14005L12.2992 5.6982H20.3333C21.2525 5.6982 22 6.41438 22 7.3335V19.0003C22 19.9195 21.2525 20.6667 20.3333 20.6667ZM20.3333 7.33351H12C12 7.33351 12 7.33351 11.9992 7.33351C11.9017 7.33351 11.8058 7.31003 11.7117 7.2748C11.6825 7.2639 11.6558 7.25048 11.6283 7.23623C11.5983 7.22113 11.5667 7.21275 11.5375 7.19346L9.24833 5.66718H3.66667V19.1161H20.3333V7.33351ZM9.86333 9.91728L14.8633 12.3375C15.1475 12.4751 15.3292 12.761 15.3333 13.0763C15.3375 13.3925 15.1625 13.6827 14.8825 13.8277L9.88167 16.4073C9.7625 16.4694 9.63083 16.5004 9.5 16.5004C9.34917 16.5004 9.19917 16.4593 9.06667 16.3788C8.81833 16.227 8.66667 15.9578 8.66667 15.6668V10.667C8.66667 10.3802 8.81417 10.1127 9.0575 9.96089C9.30083 9.80826 9.60583 9.79232 9.86333 9.91728ZM10.3333 14.2991L12.6367 13.1107L10.3333 11.9962V14.2991Z" fill="currentColor"/>
</svg>