<svg viewBox="0 0 24 24" fill="none" xmlns="http://www.w3.org/2000/svg">
<path fill-rule="evenodd" clip-rule="evenodd" d="M20.3333 20.6667H3.66667C2.7475 20.6667 2 19.9195 2 19.0003V5.66633C2 4.74721 2.7475 4 3.66667 4H9.5C9.52583 4 9.54833 4.01258 9.57333 4.01426C9.63 4.01929 9.6825 4.03103 9.73833 4.0478C9.7925 4.06457 9.84333 4.08386 9.8925 4.11154C9.915 4.12328 9.94083 4.12495 9.9625 4.14005L12.3033 5.70071H20.3333C21.2525 5.70071 22 6.41438 22 7.3335V19.0003C22 19.9195 21.2525 20.6667 20.3333 20.6667ZM20.3333 7.3335H12C12 7.3335 12 7.3335 11.9992 7.3335C11.9017 7.3335 11.8058 7.31002 11.7117 7.2748C11.6817 7.2639 11.6558 7.24964 11.6275 7.23538C11.5975 7.22029 11.5658 7.2119 11.5375 7.19345L9.2475 5.66633H3.66667V19.1186H20.3333V7.3335ZM11.1667 14.0005C11.4617 14.0005 11.7392 14.0483 12 14.1238V9.83342C12 9.49965 12.1983 9.19942 12.5042 9.06776C12.8092 8.9361 13.165 8.99899 13.4075 9.22877L15.9067 11.6037C16.2408 11.9207 16.2542 12.4482 15.9375 12.782C15.6208 13.1166 15.0925 13.1292 14.7592 12.8122L13.6667 11.774V16.0845C13.6667 17.2527 12.5683 18.1667 11.1667 18.1667C9.765 18.1667 8.66667 17.2527 8.66667 16.0845C8.66667 14.9154 9.765 14.0005 11.1667 14.0005ZM11.1667 16.5004C11.6833 16.5004 12 16.2312 12 16.0845C12 15.9377 11.6833 15.6668 11.1667 15.6668C10.65 15.6668 10.3333 15.9377 10.3333 16.0845C10.3333 16.227 10.6583 16.5004 11.1667 16.5004Z" fill="currentColor"/>
</svg>