<svg viewBox="0 0 24 24" fill="none" xmlns="http://www.w3.org/2000/svg">
<path fill-rule="evenodd" clip-rule="evenodd" d="M21.1667 13.6674C20.7067 13.6674 20.3333 13.2935 20.3333 12.8334V5.33341H12C12 5.33341 12 5.33341 11.9992 5.33341C11.9017 5.33341 11.8058 5.31078 11.7117 5.27558C11.6817 5.26468 11.6558 5.25043 11.6283 5.23618C11.5983 5.22109 11.5667 5.21271 11.5375 5.19343L9.2475 3.66712H3.66667V17.0846H10.3333C10.7933 17.0846 11.1667 17.3737 11.1667 17.8339C11.1667 18.2941 10.7933 18.667 10.3333 18.667H3.66667C2.7475 18.667 2 17.9194 2 16.9999V3.66712C2 2.74765 2.7475 2 3.66667 2H9.5C9.52583 2 9.5475 2.01257 9.57333 2.01509C9.62917 2.02012 9.6825 2.03185 9.7375 2.04861C9.7925 2.06454 9.84333 2.08466 9.8925 2.11148C9.915 2.12405 9.94 2.12573 9.9625 2.13997L12.2525 3.66712H20.3333C21.2525 3.66712 22 4.41393 22 5.33341V12.8334C22 13.2935 21.6267 13.6674 21.1667 13.6674ZM15.3333 15.3336C15.7933 15.3336 16.1667 15.7075 16.1667 16.1668C16.1667 16.6269 15.7933 16.9999 15.3333 16.9999C14.8742 16.9999 14.5 17.3746 14.5 17.8339C14.5 18.2932 14.8742 18.667 15.3333 18.667C15.7933 18.667 16.1667 19.04 16.1667 19.5002C16.1667 19.9603 15.7933 20.3333 15.3333 20.3333C13.955 20.3333 12.8333 19.2127 12.8333 17.8339C12.8333 16.4551 13.955 15.3336 15.3333 15.3336ZM17 16.9999H17.8333C18.2933 16.9999 18.6667 17.3737 18.6667 17.8339C18.6667 18.2941 18.2933 18.667 17.8333 18.667H17C16.54 18.667 16.1667 18.2941 16.1667 17.8339C16.1667 17.3737 16.54 16.9999 17 16.9999ZM19.5 18.667C19.9592 18.667 20.3333 18.2932 20.3333 17.8339C20.3333 17.3746 19.9592 16.9999 19.5 16.9999C19.04 16.9999 18.6667 16.6269 18.6667 16.1668C18.6667 15.7075 19.04 15.3336 19.5 15.3336C20.8783 15.3336 22 16.4551 22 17.8339C22 19.2127 20.8783 20.3333 19.5 20.3333C19.04 20.3333 18.6667 19.9603 18.6667 19.5002C18.6667 19.04 19.04 18.667 19.5 18.667Z" fill="currentColor"/>
</svg>