<svg width="24" height="24" viewBox="0 0 24 24" fill="none" xmlns="http://www.w3.org/2000/svg">
<path fill-rule="evenodd" clip-rule="evenodd" d="M20.3333 18.1668H6.16667C5.2475 18.1668 4.5 17.4184 4.5 16.5V5.66683C4.5 4.74761 5.2475 4 6.16667 4H10.8133C10.815 4 10.8167 4.00084 10.8183 4.00084C10.9325 4.00167 11.0458 4.02763 11.1517 4.07535C11.2467 4.11721 11.3333 4.17497 11.405 4.24781C11.4067 4.24948 11.4092 4.24948 11.4108 4.25116L13.6017 6.49983H20.3333C21.2525 6.49983 22 7.24744 22 8.16667V16.5C22 17.4184 21.2525 18.1668 20.3333 18.1668ZM20.3333 8.16667H13.25C13.1408 8.16667 13.0317 8.1449 12.9292 8.1022C12.8267 8.05867 12.735 7.99588 12.6575 7.91802C12.6567 7.91635 12.6542 7.91635 12.6533 7.91467L10.4625 5.66684H6.16667V16.5477H20.3333V8.16667ZM19.5 19.8337C19.5 20.2933 19.1267 20.6667 18.6667 20.6667H3.66667C2.7475 20.6667 2 19.9191 2 18.9998V7.33367C2 6.87322 2.37333 6.49983 2.83333 6.49983C3.29333 6.49983 3.66667 6.87322 3.66667 7.33367V19.0593H18.6667C19.1267 19.0593 19.5 19.3732 19.5 19.8337Z" fill="#6B7084"/>
</svg>
