<svg viewBox="0 0 24 24" fill="none" xmlns="http://www.w3.org/2000/svg">
<path fill-rule="evenodd" clip-rule="evenodd" d="M20.3333 20.6667H3.66667C2.7475 20.6667 2 19.801 2 18.8888V5.65468C2 4.74244 2.7475 4 3.66667 4H9.555C9.58333 4 9.60667 4.01332 9.63333 4.01581C9.68917 4.02081 9.74167 4.03163 9.79667 4.04828C9.8525 4.06575 9.9025 4.08656 9.9525 4.11403C9.97583 4.12651 10.0025 4.12901 10.025 4.14399L12.2575 5.65468H13.6667V4.82734C13.6667 4.37039 14.04 4 14.5 4H17.8333C18.2933 4 18.6667 4.37039 18.6667 4.82734V5.65468H20.3333C21.2525 5.65468 22 6.39629 22 7.30936V18.8888C22 19.801 21.2525 20.6667 20.3333 20.6667ZM17 5.65468H15.3333V10.1068L15.795 9.87795C16.03 9.76142 16.3058 9.76142 16.54 9.87795L17 10.106V5.65468ZM20.3333 7.30936H18.6667V11.4444C18.6667 11.7316 18.5167 11.9979 18.2717 12.1477C18.1375 12.2301 17.9858 12.2717 17.8333 12.2717C17.7058 12.2717 17.5783 12.2426 17.4608 12.1843L16.1675 11.5418L14.8725 12.1843C14.615 12.3117 14.3075 12.2984 14.0617 12.1477C13.8158 11.9979 13.6667 11.7316 13.6667 11.4444V7.30936H12C12 7.30936 12 7.30936 11.9992 7.30936C11.9017 7.30936 11.805 7.28606 11.7108 7.2511C11.6808 7.24028 11.6542 7.2253 11.6258 7.21115C11.5942 7.1945 11.5608 7.18534 11.5308 7.16537L9.29833 5.65468H3.66667V19.002H20.3333V7.30936Z" fill="currentColor"/>
</svg>