<svg width="24" height="24" viewBox="0 0 24 24" fill="none" xmlns="http://www.w3.org/2000/svg">
<path fill-rule="evenodd" clip-rule="evenodd" d="M21.1667 14.4848C20.7067 14.4848 20.3333 14.1119 20.3333 13.6526V5.33074H12C12 5.33074 12 5.33074 11.9992 5.33074C11.9017 5.33074 11.8058 5.30728 11.7117 5.27291C11.6817 5.26202 11.6558 5.24777 11.6283 5.23352C11.5983 5.21843 11.5667 5.21005 11.5375 5.19077L9.24833 3.66537H3.66667V17.1149H11.1667C11.6267 17.1149 12 17.3613 12 17.8214C12 18.2816 11.6267 18.6546 11.1667 18.6546H3.66667C2.7475 18.6546 2 17.9078 2 16.9892V3.66537C2 2.74678 2.7475 2 3.66667 2H9.5C9.52583 2 9.5475 2.01257 9.5725 2.01425C9.62917 2.01928 9.6825 2.03101 9.73833 2.04777C9.7925 2.06454 9.84333 2.08465 9.8925 2.11147C9.915 2.12321 9.94 2.12572 9.9625 2.13997L12.3117 3.70476H20.3333C21.2525 3.70476 22 4.41215 22 5.33074V13.6526C22 14.1119 21.6267 14.4848 21.1667 14.4848ZM13.9108 16.4125L16.4108 13.9157C16.7367 13.5905 17.2633 13.5905 17.5892 13.9157C17.915 14.2409 17.915 14.769 17.5892 15.0933L16.405 16.2768H21.1667C21.6267 16.2768 22 16.5425 22 17.0026C22 17.4627 21.6267 17.8357 21.1667 17.8357H16.5117L17.5892 18.9119C17.915 19.2371 17.915 19.7642 17.5892 20.0894C17.4267 20.252 17.2133 20.3333 17 20.3333C16.7867 20.3333 16.5733 20.252 16.4108 20.0894L13.9142 17.5935C13.8358 17.5164 13.7742 17.4242 13.7308 17.3219C13.6942 17.2331 13.6783 17.1367 13.6742 17.0395C13.6733 17.0269 13.6667 17.016 13.6667 17.0026C13.6667 17.0018 13.6667 17.0018 13.6667 17.0018C13.6667 16.7805 13.755 16.5693 13.9108 16.4125Z" fill="#6B7084"/>
</svg>
