<svg viewBox="0 0 24 24" fill="none" xmlns="http://www.w3.org/2000/svg">
<path fill-rule="evenodd" clip-rule="evenodd" d="M17.4607 18.1308C17.4523 18.1508 17.4362 18.1738 17.4155 18.1976C17.4132 18.2007 17.4093 18.2037 17.4062 18.2068C17.3871 18.2275 17.3656 18.249 17.3433 18.2682C17.3011 18.3058 17.2574 18.3372 17.2367 18.3433H14.2747H4.53855L7.25279 10.8849C7.28348 10.8098 7.43154 10.6878 7.47757 10.6717H17.3433H18.8777H20.1757L17.4607 18.1308ZM3.53433 15.2747V14.5075V13.7403V12.9732V11.4388V10.6717V9.9045V8.37017V4.53433H9.26738L11.5198 6.18681C11.5505 6.20983 11.5858 6.2198 11.6187 6.23745C11.6471 6.25356 11.6732 6.26967 11.7031 6.28117C11.7914 6.31416 11.8811 6.33564 11.9724 6.33564H11.9732H14.2747H17.3433V8.37017V9.13734H7.47757C6.80554 9.13734 6.05601 9.6874 5.81129 10.3587L3.53433 16.6149V16.0418V15.2747ZM21.1454 9.13734H18.8777V6.33564C18.8777 5.48946 18.1895 4.80131 17.3433 4.80131H14.2747H12.224L9.97163 3.14883C9.94785 3.13119 9.92023 3.12735 9.89569 3.11277C9.84966 3.08669 9.80439 3.06367 9.75299 3.04756C9.70313 3.03145 9.65403 3.02225 9.60109 3.01688C9.57271 3.01381 9.54739 3 9.51824 3H3.53433C2.68815 3 2 3.68815 2 4.53433V9.84927V10.6717V11.3836V11.4388V12.9732V13.7403V14.5075V15.2747V16.0418V18.3993C2 19.2125 2.66513 19.8777 3.47833 19.8777H3.56809H14.2747H17.2367H17.3433H17.3993C18.0307 19.8777 18.5693 19.4741 18.7795 18.9141C18.8278 18.8305 18.87 18.7453 18.9022 18.6571L21.9218 10.3587C22.1665 9.6874 21.8175 9.13734 21.1454 9.13734Z" fill="currentColor"/>
</svg>