<svg viewBox="0 0 24 24" fill="none" xmlns="http://www.w3.org/2000/svg">
<path fill-rule="evenodd" clip-rule="evenodd" d="M21.1667 12.0002C20.7067 12.0002 20.3333 11.6272 20.3333 11.1671V5.33341H12C12 5.33341 12 5.33341 11.9992 5.33341C11.9017 5.33341 11.805 5.30994 11.7108 5.27474C11.6825 5.26468 11.6567 5.25043 11.63 5.23702C11.5992 5.22193 11.5667 5.21355 11.5375 5.19343L9.2475 3.66712H3.66667V17.0896H14.5C14.96 17.0896 15.3333 17.3737 15.3333 17.8339C15.3333 18.2932 14.96 18.6662 14.5 18.6662H3.66667C2.7475 18.6662 2 17.9194 2 16.9999V3.66712C2 2.74765 2.7475 2 3.66667 2H9.5C9.52583 2 9.54667 2.01257 9.57167 2.01509C9.62917 2.02012 9.6825 2.03185 9.73833 2.04861C9.79333 2.06538 9.84333 2.08466 9.8925 2.11148C9.915 2.12405 9.94 2.12573 9.9625 2.14081L12.2525 3.66712H20.3333C21.2525 3.66712 22 4.41477 22 5.33341V11.1671C22 11.6272 21.6267 12.0002 21.1667 12.0002ZM17.8333 12.8334H18.6667C19.1267 12.8334 19.5 13.2064 19.5 13.6665C19.5 14.1267 19.1267 14.5005 18.6667 14.5005H17.8333C17.3733 14.5005 17 14.1267 17 13.6665C17 13.2064 17.3733 12.8334 17.8333 12.8334ZM17 16.1668C17 15.7066 17.3733 15.3336 17.8333 15.3336H18.6667C19.1267 15.3336 19.5 15.7066 19.5 16.1668V18.6662C19.96 18.6662 20.3333 19.04 20.3333 19.5002C20.3333 19.9603 19.96 20.3333 19.5 20.3333H17.8333C17.3733 20.3333 17 19.9603 17 19.5002C17 19.04 17.3733 18.6662 17.8333 18.6662V16.9999C17.3733 16.9999 17 16.6269 17 16.1668Z" fill="currentColor"/>
</svg>