<svg width="24" height="24" viewBox="0 0 24 24" fill="none" xmlns="http://www.w3.org/2000/svg">
<path fill-rule="evenodd" clip-rule="evenodd" d="M21.1665 12.9998C20.7064 12.9998 20.4162 12.6779 20.4162 12.2178V6.35086L11.9998 6.3341V6.33326L11.999 6.3341C11.9019 6.3341 11.8057 6.31063 11.7121 6.27543C11.6819 6.26453 11.656 6.25028 11.6284 6.23603C11.5983 6.22095 11.5665 6.21257 11.5381 6.19329L9.24786 4.66705H3.66705L3.68713 18.0847H13.7246C14.1846 18.0847 14.4999 18.373 14.4999 18.8332C14.4999 19.2933 14.1269 19.6663 13.6668 19.6663H3.66705C2.74779 19.6663 2 18.9187 2 17.9992V4.66705C2 3.74845 2.74779 3 3.66705 3H9.50047C9.52556 3 9.54731 3.01257 9.57241 3.01509C9.62928 3.02012 9.68282 3.03185 9.73802 3.04861C9.79323 3.06537 9.84342 3.08465 9.89277 3.11147C9.91535 3.12404 9.94045 3.12572 9.96219 3.13997L12.2524 4.66705H20.3334C21.2526 4.66705 21.9996 5.41466 21.9996 6.3341V12.1667C21.9996 12.6268 21.6265 12.9998 21.1665 12.9998ZM15.5773 14.9099C15.9027 14.5847 16.4305 14.5847 16.7559 14.9099L18.6663 16.8208L20.5776 14.9099C20.903 14.5847 21.43 14.5847 21.7553 14.9099C22.0816 15.2351 22.0816 15.7623 21.7553 16.0883L19.8449 17.9992L21.7553 19.9102C22.0816 20.2362 22.0816 20.7634 21.7553 21.0886C21.5931 21.2512 21.3798 21.3333 21.1665 21.3333C20.9532 21.3333 20.7399 21.2512 20.5776 21.0886L18.6663 19.1777L16.7559 21.0886C16.5928 21.2512 16.3803 21.3333 16.167 21.3333C15.9537 21.3333 15.7404 21.2512 15.5773 21.0886C15.2519 20.7634 15.2519 20.2362 15.5773 19.9102L17.4886 17.9992L15.5773 16.0883C15.2519 15.7623 15.2519 15.2351 15.5773 14.9099Z" fill="#6B7084"/>
</svg>
