<svg width="24" height="24" viewBox="0 0 24 24" fill="none" xmlns="http://www.w3.org/2000/svg">
<path fill-rule="evenodd" clip-rule="evenodd" d="M22 18.0034C22 18.0076 21.9975 18.011 21.9975 18.0143C21.9925 18.3622 21.7783 18.72 21.4742 18.8734L19.2558 21.0894C19.0933 21.252 18.88 21.3333 18.6667 21.3333C18.4533 21.3333 18.24 21.252 18.0775 21.0894C17.7517 20.7642 17.7517 20.2371 18.0775 19.9119L19.0375 18.953H14.5C14.04 18.953 13.6667 18.4627 13.6667 18.0026C13.6667 17.5425 14.04 17.2768 14.5 17.2768H19.2608L18.0775 16.0933C17.7517 15.7681 17.7517 15.2409 18.0775 14.9157C18.4033 14.5905 18.93 14.5905 19.2558 14.9157L21.7558 17.4151C21.91 17.5693 21.9967 17.778 21.9983 17.9959C21.9983 17.9984 22 18.0001 22 18.0026V18.0034ZM21.1667 13.8253C20.7067 13.8253 20.3333 13.4524 20.3333 12.9922V6.33074H12C12 6.33074 12 6.33074 11.9992 6.33074C11.9017 6.33074 11.8058 6.30811 11.7117 6.27291C11.6817 6.26202 11.6558 6.24777 11.6275 6.23352C11.5983 6.21843 11.5658 6.21005 11.5375 6.19077L9.24833 4.66537H3.66667V18.1149H11.1667C11.6267 18.1149 12 18.3613 12 18.8214C12 19.2816 11.6267 19.6546 11.1667 19.6546H3.66667C2.7475 19.6546 2 18.9078 2 17.9892V4.66537C2 3.74678 2.7475 3 3.66667 3H9.5C9.52583 3 9.5475 3.01257 9.57333 3.01509C9.63 3.01928 9.6825 3.03101 9.73833 3.04777C9.7925 3.06454 9.84333 3.08465 9.8925 3.11147C9.915 3.12321 9.94083 3.12572 9.9625 3.13997L12.3117 4.70476H20.3333C21.2525 4.70476 22 5.41215 22 6.33074V12.9922C22 13.4524 21.6267 13.8253 21.1667 13.8253Z" fill="#6B7084"/>
</svg>
