<svg viewBox="0 0 24 24" fill="none" xmlns="http://www.w3.org/2000/svg">
<path fill-rule="evenodd" clip-rule="evenodd" d="M21.1664 12.8332C20.7063 12.8332 20.4169 12.5022 20.4169 12.0421V5.33843L11.9997 5.33341C11.9989 5.33341 11.9989 5.33341 11.9989 5.33341C11.9019 5.33341 11.8057 5.30994 11.7112 5.27475C11.6819 5.26386 11.656 5.25045 11.6284 5.2362C11.5982 5.22112 11.5665 5.21274 11.5372 5.19347L9.24782 3.6667H3.66704L3.68795 17.0699H12.0524C12.5125 17.0699 12.8328 17.3724 12.8328 17.8333C12.8328 18.2933 12.4598 18.6662 11.9997 18.6662H3.66704C2.74778 18.6662 2 17.9187 2 16.9995V3.6667C2 2.74746 2.74778 2 3.66704 2H9.4996C9.52553 2 9.54644 2.01257 9.57153 2.01425C9.62841 2.01927 9.68278 2.031 9.73882 2.0486C9.79319 2.06536 9.84338 2.08463 9.89189 2.11145C9.91447 2.12402 9.9404 2.12569 9.96215 2.13994L12.2523 3.6667H20.3333C21.2525 3.6667 21.9995 4.41416 21.9995 5.33341V11.9994C21.9995 12.4603 21.6264 12.8332 21.1664 12.8332ZM17.8331 13.6661C19.6708 13.6661 21.1664 15.1618 21.1664 16.9995C21.1664 17.6162 20.9865 18.1869 20.6938 18.683L21.7552 19.7438C22.0815 20.0689 22.0815 20.5969 21.7561 20.922C21.593 21.0854 21.3797 21.1667 21.1664 21.1667C20.9531 21.1667 20.7398 21.0854 20.5775 20.9228L19.5152 19.8611C19.0192 20.1536 18.4488 20.3329 17.8331 20.3329C15.9955 20.3329 14.4999 18.838 14.4999 16.9995C14.4999 15.1618 15.9955 13.6661 17.8331 13.6661ZM17.8331 18.6662C18.2923 18.6662 18.708 18.4802 19.01 18.1785C19.01 18.1785 19.01 18.1785 19.01 18.1777C19.0108 18.1777 19.0108 18.1777 19.0117 18.1768C19.3128 17.8752 19.4993 17.4587 19.4993 16.9995C19.4993 16.0802 18.7524 15.3336 17.8331 15.3336C16.9139 15.3336 16.1661 16.0802 16.1661 16.9995C16.1661 17.9187 16.9139 18.6662 17.8331 18.6662Z" fill="currentColor"/>
</svg>