<svg viewBox="0 0 24 24" fill="none" xmlns="http://www.w3.org/2000/svg">
<path fill-rule="evenodd" clip-rule="evenodd" d="M21.1667 12.833C20.7058 12.833 20.3333 12.46 20.3333 11.9998V5.33272H12C12 5.33272 12 5.33272 11.9992 5.33272C11.9017 5.33272 11.8058 5.31009 11.7117 5.27489C11.6817 5.26399 11.6558 5.24974 11.6275 5.23549C11.5975 5.2204 11.5658 5.21202 11.5375 5.19274L9.2475 3.66636H3.66667V17.0828H12.8333C13.2942 17.0828 13.6667 17.3728 13.6667 17.8338C13.6667 18.294 13.2942 18.7592 12.8333 18.7592H3.66667C2.7475 18.7592 2 17.9193 2 16.9998V3.66636C2 2.74685 2.7475 2 3.66667 2H9.5C9.525 2 9.54667 2.01173 9.57083 2.01425C9.62917 2.01928 9.68333 2.03101 9.73917 2.04778C9.79333 2.06454 9.8425 2.08382 9.89167 2.11064C9.91417 2.12238 9.94 2.12489 9.9625 2.13914L12.2525 3.66636H20.3333C21.2517 3.66636 22 4.41405 22 5.33272V11.9998C22 12.46 21.6275 12.833 21.1667 12.833ZM16.1667 16.1666H17.8333V14.4994C17.8333 14.0392 18.2058 13.6662 18.6667 13.6662C19.1275 13.6662 19.5 14.0392 19.5 14.4994V16.1666H21.1667C21.6275 16.1666 22 16.5396 22 16.9998C22 17.4599 21.6275 17.8338 21.1667 17.8338H19.5V19.5002C19.5 19.9603 19.1275 20.3333 18.6667 20.3333C18.2058 20.3333 17.8333 19.9603 17.8333 19.5002V17.8338H16.1667C15.7058 17.8338 15.3333 17.4599 15.3333 16.9998C15.3333 16.5396 15.7058 16.1666 16.1667 16.1666Z" fill="currentColor"/>
</svg>