<svg width="24" height="24" viewBox="0 0 24 24" fill="none" xmlns="http://www.w3.org/2000/svg">
<path fill-rule="evenodd" clip-rule="evenodd" d="M20.3333 20.6667H10.3333C9.41417 20.6667 8.66667 19.919 8.66667 18.9997V12.3337C8.66667 11.4145 9.41417 10.6668 10.3333 10.6668H14.2533C14.2975 10.6668 14.335 10.6853 14.3775 10.6919C14.44 10.7012 14.5042 10.7053 14.5642 10.7296C14.6283 10.7556 14.6817 10.7991 14.7367 10.8393C14.7675 10.8619 14.8033 10.8728 14.8317 10.9004L16.35 12.3647H20.3333C21.2525 12.3647 22 13.0806 22 13.9998V18.9997C22 19.919 21.2525 20.6667 20.3333 20.6667ZM20.3333 13.9998H15.9808C15.8742 13.9998 15.7675 13.9781 15.6667 13.937C15.6075 13.9128 15.56 13.8717 15.5092 13.8349C15.4742 13.8106 15.4342 13.7972 15.4025 13.7662L13.9175 12.3338H10.3333V19.0625H20.3333V13.9998ZM21.1667 9.83295C20.7067 9.83295 20.3333 9.46039 20.3333 8.99991C20.3333 8.76968 20.1467 8.58298 19.9167 8.58298C19.91 8.58298 19.905 8.57963 19.8992 8.57963C19.8925 8.57963 19.8875 8.58298 19.8808 8.58298H18.9533C19.1425 8.9028 19.1142 9.31471 18.8392 9.58932C18.6767 9.75174 18.4633 9.83295 18.25 9.83295C18.0367 9.83295 17.8233 9.75174 17.6608 9.58932L16.4117 8.33934C16.3342 8.26232 16.2733 8.17022 16.2308 8.06808C16.19 7.96845 16.1683 7.86296 16.1675 7.75663C16.1675 7.75412 16.1667 7.75245 16.1667 7.74994C16.1667 7.6411 16.1892 7.53309 16.2308 7.43179C16.2733 7.32965 16.3342 7.23755 16.4117 7.16053L17.6608 5.91055C17.9867 5.58487 18.5133 5.58487 18.8392 5.91055C19.1142 6.18516 19.1425 6.59707 18.9533 6.9169H19.8808C19.8875 6.9169 19.8925 6.92024 19.8992 6.92024C19.905 6.92024 19.91 6.9169 19.9167 6.9169C21.065 6.9169 22 7.85124 22 8.99991C22 9.46039 21.6267 9.83295 21.1667 9.83295ZM14.5 9.83296C14.04 9.83296 13.6667 9.46039 13.6667 8.99992V7.333H9.31417C9.2075 7.333 9.10083 7.31123 8.99917 7.26937C8.94167 7.24593 8.895 7.2049 8.845 7.16974C8.80917 7.14462 8.76833 7.13039 8.73583 7.09941L7.25 5.66608H3.66667V12.3647H7C7.46 12.3647 7.83333 12.7063 7.83333 13.1668C7.83333 13.6273 7.46 13.9998 7 13.9998H3.66667C2.7475 13.9998 2 13.2522 2 12.3338V5.66608C2 4.74764 2.7475 4 3.66667 4H7.58667C7.63167 4 7.67083 4.01842 7.71417 4.02512C7.77583 4.03516 7.83833 4.03851 7.89667 4.06279C7.965 4.08958 8.02083 4.13479 8.07917 4.17833C8.10667 4.19926 8.14 4.20847 8.165 4.23359L9.65083 5.66608H13.6667C14.5858 5.66608 15.3333 6.41372 15.3333 7.333V8.99992C15.3333 9.46039 14.96 9.83296 14.5 9.83296ZM2.83333 15.6667C3.29333 15.6667 3.66667 16.0393 3.66667 16.4998C3.66667 16.73 3.85333 16.9167 4.08333 16.9167C4.09 16.9167 4.095 16.9201 4.10167 16.9201C4.10833 16.9201 4.11333 16.9167 4.12 16.9167H5.04667C4.8575 16.5969 4.88583 16.1858 5.16083 15.9112C5.48667 15.5855 6.01333 15.5855 6.33917 15.9112L7.58917 17.1604C7.59 17.1612 7.59 17.162 7.59083 17.1629C7.66667 17.2391 7.72667 17.3303 7.76917 17.4316C7.81083 17.5329 7.83333 17.6418 7.83333 17.7498C7.83333 17.7506 7.8325 17.7514 7.8325 17.7523C7.8325 17.8603 7.81083 17.9674 7.76917 18.0679C7.72667 18.1709 7.665 18.263 7.58833 18.34L6.33917 19.5892C6.17667 19.7524 5.96333 19.8336 5.75 19.8336C5.53667 19.8336 5.32333 19.7524 5.16083 19.5892C4.88583 19.3145 4.8575 18.9026 5.04667 18.5836H4.12C4.11333 18.5836 4.10833 18.5803 4.10167 18.5795C4.095 18.5803 4.09 18.5836 4.08333 18.5836C2.935 18.5836 2 17.6485 2 16.4998C2 16.0393 2.37333 15.6667 2.83333 15.6667Z" fill="#6B7084"/>
</svg>
