<svg width="24" height="24" viewBox="0 0 24 24" fill="none" xmlns="http://www.w3.org/2000/svg">
<path fill-rule="evenodd" clip-rule="evenodd" d="M21.1667 11.9906C20.7067 11.9906 20.3333 11.6176 20.3333 11.1583V5.33158H12C12 5.33158 12 5.33074 11.9992 5.33074V5.33158C11.9017 5.33158 11.8058 5.30811 11.7117 5.27291C11.6817 5.26202 11.6558 5.24777 11.6283 5.23352C11.5983 5.21843 11.5667 5.21005 11.5375 5.19077L9.24833 3.66537H3.66667V17.1099H12.8333C13.2933 17.1099 13.6667 17.3622 13.6667 17.8223C13.6667 18.2824 13.2933 18.6554 12.8333 18.6554H3.66667C2.7475 18.6554 2 17.9078 2 16.99V3.66537C2 2.74678 2.7475 2 3.66667 2H9.5C9.525 2 9.54667 2.01257 9.57083 2.01425C9.62833 2.01928 9.68333 2.03101 9.74 2.04861C9.79333 2.06454 9.8425 2.08465 9.89083 2.11063C9.91417 2.12321 9.94 2.12488 9.9625 2.13997L12.3033 3.69974H20.3333C21.2525 3.69974 22 4.41299 22 5.33158V11.1583C22 11.6176 21.6267 11.9906 21.1667 11.9906ZM17.2433 12.2512C17.3208 12.1733 17.4133 12.1121 17.5158 12.0702C17.6025 12.0341 17.6942 12.0207 17.7858 12.0157C17.8025 12.014 17.8167 12.0056 17.8333 12.0056C17.85 12.0056 17.8642 12.014 17.8808 12.0157C17.9725 12.0207 18.0642 12.0341 18.1508 12.0702C18.2533 12.1121 18.3458 12.1733 18.4233 12.2504L20.9225 14.748C21.2483 15.0732 21.2483 15.6004 20.9225 15.9256C20.76 16.089 20.5467 16.1695 20.3333 16.1695C20.12 16.1695 19.9067 16.089 19.7442 15.9256L18.6667 14.8494V19.5011C18.6667 19.9612 18.2933 20.3333 17.8333 20.3333C17.3733 20.3333 17 19.9612 17 19.5011V14.8494L15.9225 15.9256C15.5967 16.2516 15.07 16.2516 14.7442 15.9256C14.4183 15.6004 14.4183 15.0732 14.7442 14.748L17.2433 12.2512Z" fill="#6B7084"/>
</svg>
