<svg viewBox="0 0 24 24" fill="none" xmlns="http://www.w3.org/2000/svg">
<path d="M12.1917 19C12.7051 19 12.9972 18.7342 13.1831 18.1173L14.1481 15.1749H19.0346L20.0084 18.1268C20.1854 18.7342 20.4776 19 21.0087 19C21.5841 19 22.0002 18.5919 22.0002 18.0319C22.0002 17.8515 21.9648 17.6712 21.8763 17.4054L17.9812 6.10102C17.7156 5.34169 17.2907 5 16.6002 5C15.9009 5 15.4671 5.35119 15.2104 6.11051L11.3241 17.4054C11.2356 17.6617 11.2002 17.8705 11.2002 18.0319C11.2002 18.6108 11.5986 19 12.1917 19ZM14.6527 13.438L16.5559 7.42983H16.609L18.53 13.438H14.6527Z" fill="currentColor"/>
<path d="M2.88471 19C3.34067 19 3.59928 18.7766 3.76261 18.2485L4.40913 16.3934H8.07726L8.72378 18.262C8.8803 18.7833 9.14572 19 9.6221 19C10.1325 19 10.5 18.6682 10.5 18.1943C10.5 18.0386 10.466 17.8829 10.3843 17.6594L7.52602 9.9411C7.28102 9.28436 6.88631 9 6.23979 9C5.60008 9 5.20536 9.2979 4.96717 9.94787L2.11569 17.6594C2.03403 17.8693 2 18.0589 2 18.1943C2 18.6886 2.34708 19 2.88471 19ZM4.82426 15.0122L6.20576 10.8416H6.2534L7.64852 15.0122H4.82426Z" fill="currentColor"/>
</svg>