<svg width="24" height="24" viewBox="0 0 24 24" fill="none" xmlns="http://www.w3.org/2000/svg">
<path fill-rule="evenodd" clip-rule="evenodd" d="M17.8461 17.8471C14.7297 20.9639 11.3855 21.8086 9.12864 21.9681C8.82025 21.9899 8.52016 22 8.22839 22C5.86095 22 4.0912 21.319 3.38629 20.6146C2.59493 19.8219 1.83266 17.6875 2.03217 14.8714C2.19177 12.6144 3.03633 9.26919 6.15356 6.1524C9.26996 3.03561 12.6141 2.19092 14.8718 2.03139C17.6873 1.83491 19.8228 2.59395 20.6133 3.38575C22.31 5.08268 23.4421 12.2508 17.8461 17.8471ZM4.56419 19.4357C4.90168 19.7732 6.24999 20.314 8.15607 20.3324L3.66809 15.8445C3.68721 17.7547 4.22753 19.099 4.56419 19.4357ZM13.6914 3.87106C11.8427 4.2212 9.5343 5.12802 7.33229 7.33043C5.12861 9.53368 4.22171 11.8419 3.87174 13.6916L10.3082 20.1284C12.1578 19.7783 14.4653 18.8715 16.6682 16.669C18.7555 14.5817 19.7372 12.3113 20.1171 10.2969L13.6914 3.87106ZM19.4354 4.56378C19.098 4.22624 17.7521 3.68718 15.8444 3.66787L20.3191 8.14154C20.3041 6.32201 19.832 4.96093 19.4354 4.56378ZM14.4279 10.7495L15.0888 11.4111C15.4146 11.7361 15.4146 12.2634 15.0888 12.5892C14.9259 12.7521 14.7131 12.8327 14.4994 12.8327C14.2866 12.8327 14.073 12.7521 13.9109 12.5892L13.25 11.9284L11.9283 13.25L12.5892 13.9108C12.9142 14.2357 12.9142 14.763 12.5892 15.0888C12.4263 15.2517 12.2135 15.3332 11.9998 15.3332C11.787 15.3332 11.5734 15.2517 11.4105 15.0888L10.7504 14.428L9.25666 15.9218C9.09373 16.0846 8.88009 16.1661 8.66729 16.1661C8.45366 16.1661 8.24085 16.0846 8.07793 15.9218C7.75207 15.5968 7.75207 15.0695 8.07793 14.7437L9.5717 13.25L8.91168 12.5892C8.58583 12.2634 8.58583 11.7361 8.91168 11.4111C9.23671 11.0854 9.76373 11.0854 10.0896 11.4111L10.7504 12.0711L12.0713 10.7503L11.4105 10.0895C11.0854 9.76374 11.0854 9.23644 11.4105 8.91066C11.7363 8.58571 12.2633 8.58571 12.5892 8.91066L13.25 9.57146L14.7438 8.07772C15.0688 7.75194 15.5967 7.75194 15.9217 8.07772C16.2476 8.40351 16.2476 8.93081 15.9217 9.25575L14.4279 10.7495Z" fill="#6B7084"/>
</svg>
