<svg width="24" height="24" viewBox="0 0 24 24" fill="none" xmlns="http://www.w3.org/2000/svg">
<path fill-rule="evenodd" clip-rule="evenodd" d="M22 2.83312V6.99958C22 7.45964 21.6272 7.83354 21.1671 7.83354C20.707 7.83354 20.3334 7.45964 20.3334 6.99958V4.844L15.4335 9.74404C13.7569 11.422 12.8333 13.652 12.8333 16.0234V16.2785V21.166C12.8333 21.6261 12.4605 22 11.9996 22C11.5395 22 11.1944 21.6453 11.1944 21.1853V16.4166C11.186 16.3697 11.1667 16.3271 11.1667 16.2785V16.0234C11.1667 15.9532 11.1759 15.8837 11.1768 15.8135C11.0878 13.5609 10.16 11.3384 8.56647 9.74404L3.66744 4.84483V6.99958C3.66744 7.45964 3.29382 7.83354 2.83372 7.83354C2.37362 7.83354 2 7.45964 2 6.99958V2.8348C2 2.72522 2.02183 2.61648 2.06465 2.51359C2.10495 2.41656 2.16456 2.32957 2.23677 2.25512C2.24012 2.25178 2.24096 2.24676 2.24432 2.24425C2.32157 2.16729 2.41308 2.10623 2.51551 2.06441C2.61542 2.02258 2.72205 2.00167 2.82868 2.00084C2.83036 2.00084 2.83204 2 2.83372 2H7.00063C7.46073 2 7.83351 2.37223 7.83351 2.83312C7.83351 3.29318 7.46073 3.66625 7.00063 3.66625H4.84455L9.74443 8.56629C10.72 9.54161 11.4774 10.6759 11.9996 11.9097C12.5226 10.6759 13.28 9.54161 14.2556 8.56629L19.1555 3.66625H17.0002C16.5401 3.66625 16.1673 3.29318 16.1673 2.83312C16.1673 2.37223 16.5401 2 17.0002 2H21.1671C21.1772 2 21.1848 2.00502 21.1948 2.00502C21.2939 2.00836 21.3921 2.02593 21.4845 2.06357C21.6893 2.14806 21.8514 2.31117 21.9362 2.51527C21.9715 2.60059 21.984 2.69092 21.9899 2.78126C21.9908 2.79883 22 2.81472 22 2.83312Z" fill="#6B7084"/>
</svg>
