<svg width="24" height="24" viewBox="0 0 24 24" fill="none" xmlns="http://www.w3.org/2000/svg">
<path fill-rule="evenodd" clip-rule="evenodd" d="M22 12C22 17.5142 17.5142 22 12 22C6.48583 22 2 17.5142 2 12C2 6.48583 6.48583 2 12 2C17.5142 2 22 6.48583 22 12ZM20.3333 12C20.3333 7.405 16.595 3.66667 12 3.66667C7.405 3.66667 3.66667 7.405 3.66667 12C3.66667 16.595 7.405 20.3333 12 20.3333C16.595 20.3333 20.3333 16.595 20.3333 12ZM17.6095 12.6108C18.2323 12.2186 18.2323 11.3108 17.6095 10.9185L12.6785 7.81281C12.0126 7.39339 11.1456 7.87197 11.1456 8.65897V9.63383L8.6931 7.93469C8.0299 7.47521 7.12361 7.94987 7.12361 8.75669V14.7727C7.12361 15.5795 8.0299 16.0542 8.6931 15.5947L11.1456 13.8956V14.8704C11.1456 15.6574 12.0126 16.136 12.6785 15.7166L17.6095 12.6108Z" fill="#6B7084"/>
</svg>
