<svg viewBox="0 0 24 24" fill="none" xmlns="http://www.w3.org/2000/svg">
<path fill-rule="evenodd" clip-rule="evenodd" d="M14.9854 5.44899C13.8216 4.43062 12.0001 5.25714 12.0001 6.80363V16.3961C12.0001 17.9426 13.8216 18.7691 14.9854 17.7507L20.4669 12.9545C21.2864 12.2374 21.2864 10.9624 20.4669 10.2452L14.9854 5.44899ZM13.6001 6.80363C13.6001 6.63179 13.8025 6.53996 13.9318 6.65311L19.4132 11.4493C19.5043 11.529 19.5043 11.6707 19.4132 11.7504L13.9318 16.5466C13.8025 16.6598 13.6001 16.5679 13.6001 16.3961V6.80363ZM4.98544 5.44899C3.82159 4.43062 2.00014 5.25714 2.00014 6.80363V16.3961C2.00014 17.9426 3.82159 18.7691 4.98544 17.7507L10.4669 12.9545C11.2864 12.2374 11.2864 10.9624 10.4669 10.2452L4.98544 5.44899ZM3.60013 6.80363C3.60013 6.63179 3.80252 6.53996 3.93183 6.65311L9.41324 11.4493C9.50431 11.529 9.50431 11.6707 9.41324 11.7504L3.93184 16.5466C3.80252 16.6598 3.60013 16.5679 3.60013 16.3961V6.80363Z" fill="currentColor"/>
</svg>