<svg viewBox="0 0 24 24" fill="none" xmlns="http://www.w3.org/2000/svg">
<path fill-rule="evenodd" clip-rule="evenodd" d="M22 12C22 11.5752 21.6556 11.2308 21.2308 11.2308C20.8059 11.2308 20.4615 11.5752 20.4615 12C20.4615 16.6732 16.6732 20.4615 12 20.4615C7.32682 20.4615 3.53846 16.6732 3.53846 12C3.53846 7.32682 7.32682 3.53846 12 3.53846C14.2004 3.53846 16.2602 4.3832 17.8083 5.84615H15.8462C15.4213 5.84615 15.0769 6.19055 15.0769 6.61538C15.0769 7.04022 15.4213 7.38462 15.8462 7.38462H19.6923C20.1172 7.38462 20.4616 7.04022 20.4616 6.61538V2.76923C20.4616 2.3444 20.1172 2 19.6923 2C19.2675 2 18.9231 2.3444 18.9231 2.76923V4.78337C17.0874 3.02069 14.6275 2 12 2C6.47715 2 2 6.47715 2 12C2 17.5228 6.47715 22 12 22C17.5228 22 22 17.5228 22 12ZM13.2218 10.1778H16.3244V9H11.9961V13.0985H13.2793C13.3559 12.8751 13.4835 12.6963 13.6623 12.5622C13.841 12.4282 14.0645 12.3611 14.3326 12.3611C14.7093 12.3611 14.9933 12.4665 15.1849 12.6772C15.3828 12.8814 15.4817 13.1815 15.4817 13.5773C15.4817 13.9667 15.386 14.2795 15.1944 14.5157C15.0029 14.7519 14.7188 14.87 14.3422 14.87C14.0294 14.87 13.7708 14.7934 13.5665 14.6402C13.3686 14.487 13.2409 14.2827 13.1835 14.0274H11.8812C11.9386 14.6147 12.1844 15.0903 12.6185 15.4542C13.0526 15.8181 13.6336 16 14.3613 16C15.1338 16 15.7275 15.7766 16.1425 15.3297C16.5638 14.8828 16.7745 14.2923 16.7745 13.5581C16.7745 13.1623 16.701 12.7921 16.5542 12.4473C16.4074 12.0962 16.1712 11.8089 15.8456 11.5855C15.52 11.3621 15.1019 11.2503 14.5912 11.2503C14.3103 11.2503 14.0453 11.3046 13.7964 11.4131C13.5474 11.5153 13.3559 11.6493 13.2218 11.8153V10.1778ZM8 9.01915V10.2544H8.92886V16H10.3078V9.01915H8Z" fill="currentColor"/>
</svg>