<svg viewBox="0 0 24 24" fill="none" xmlns="http://www.w3.org/2000/svg">
<g clip-path="url(#clip0_1265_21754)">
<path d="M12 24C18.6274 24 24 18.6274 24 12C24 5.37258 18.6274 0 12 0C5.37258 0 0 5.37258 0 12C0 18.6274 5.37258 24 12 24Z" fill="#1D9AD7"/>
<path fill-rule="evenodd" clip-rule="evenodd" d="M16.694 7.89505C16.0462 7.2183 14.7152 6.65199 12.2329 6.30463C11.4502 6.19504 10.6644 6.10961 9.87648 6.04844C9.26459 6.01184 8.67067 5.97524 8.09537 5.97524C7.14189 7.40065 6.24234 9.11948 5.45066 11.185C4.58707 13.4516 3.81401 15.6821 3.27467 17.7111H3.11287C3.1668 15.5357 3.52636 13.0682 4.26411 10.5089C4.75016 8.84596 5.32546 7.38267 5.97331 6.10366C3.05829 6.41442 0.971549 7.31012 0.000732422 8.58913C0.828367 6.56017 3.29265 4.84198 7.05264 4.23907C9.04949 1.25921 11.4059 -0.0756675 13.3668 0.509905C14.05 0.710874 14.6259 1.14941 15.094 1.77094C15.0394 1.73434 14.9855 1.69774 14.9142 1.67976C13.4747 1.09483 11.5318 1.93531 9.64277 4.01948H9.73266C13.9601 4.00151 16.1008 5.7929 16.6947 7.89505H16.694ZM11.4053 10.6367C12.5565 10.6367 13.492 11.6056 13.492 12.7941C13.492 13.9819 12.5565 14.9508 11.4053 14.9508C10.254 14.9508 9.31852 13.9819 9.31852 12.7934C9.31852 11.5876 10.254 10.6367 11.4053 10.6367Z" fill="white"/>
</g>
<defs>
<clipPath id="clip0_1265_21754">
<rect width="24" height="24" fill="white"/>
</clipPath>
</defs>
</svg>