<svg viewBox="0 0 24 24" fill="none" xmlns="http://www.w3.org/2000/svg">
<g clip-path="url(#clip0_1265_21750)">
<path d="M12 24C18.6274 24 24 18.6274 24 12C24 5.37258 18.6274 0 12 0C5.37258 0 0 5.37258 0 12C0 18.6274 5.37258 24 12 24Z" fill="#27323A"/>
<path d="M17.592 5.5C17.592 5.5 18.6625 6.45161 17.9027 8.38799C17.7582 8.74395 17.5576 9.07445 17.3086 9.36691L14.6663 12.4675L12.5459 15.2352C12.5459 15.2352 10.111 14.8348 9.16458 15.817L13.1777 15.9951C13.1777 15.9951 12.321 16.933 8.93968 16.2616C8.93968 16.2616 8.98518 17.2028 10.5185 17.4706C10.5185 17.4706 9.16458 17.9184 8.35272 16.621C8.35272 16.621 8.35272 17.5622 9.29913 17.9626C9.29913 17.9626 8.53212 18.1407 7.90031 17.3367L6.81934 18.4963C6.81934 18.4963 6.59509 18.5411 6.72964 18.3188L7.63121 17.2476C7.63121 17.2476 7.72091 16.4878 7.1788 16.7549C7.1788 16.7549 6.81934 16.8882 6.9539 17.2918C6.9539 17.2918 6.41179 16.8472 7.04425 16.2655L5.82483 15.0577L7.40305 15.906L6.72639 14.253L7.85221 15.6837C7.85221 15.6837 7.75861 14.0756 8.25652 13.6303C8.25652 13.6303 8.39107 15.1942 9.02353 15.3281L8.97803 12.0664L9.65534 11.4853L9.74504 13.538C9.74504 13.538 9.92444 13.7603 10.1038 13.4938C10.1038 13.4938 10.5114 12.823 10.5114 10.8587L11.5924 9.83166L11.7276 10.6364C11.7276 10.6364 11.9102 10.9477 12.1351 10.6806L12.3594 9.1173C12.3594 9.1173 13.8024 7.46433 17.592 5.5ZM10.3768 14.5676C14.117 11.1291 16.1034 7.77893 16.0995 7.77893C14.2522 9.07245 10.3768 14.5683 10.3768 14.5683V14.5676Z" fill="white"/>
</g>
<defs>
<clipPath id="clip0_1265_21750">
<rect width="24" height="24" fill="white"/>
</clipPath>
</defs>
</svg>