<svg width="24" height="24" viewBox="0 0 24 24" fill="none" xmlns="http://www.w3.org/2000/svg">
<path d="M8.08864 4.20094C12.3918 4.19962 16.6953 4.19962 20.999 4.20094C21.0003 5.5919 21.0003 6.98261 20.999 8.37309C16.6957 8.37441 12.3922 8.37441 8.08864 8.37309C8.08732 6.98213 8.08732 5.59142 8.08864 4.20094Z" fill="#02A6C2"/>
<path d="M3.0054 9.94278C4.39371 9.93558 5.78226 9.93558 7.17106 9.94278C7.17826 11.3311 7.17826 12.7196 7.17106 14.1084C5.7825 14.1156 4.39395 14.1157 3.0054 14.1088C2.9982 12.7202 2.9982 11.3315 3.0054 9.94278ZM8.09183 9.94278C11.1978 9.93618 14.3035 9.93618 17.4091 9.94278C17.4157 11.3311 17.4157 12.7196 17.4091 14.1084C14.3032 14.1149 11.1974 14.1149 8.09183 14.1084C8.08535 12.7201 8.08535 11.3315 8.09183 9.94278Z" fill="#5FCADE"/>
<path d="M8.09571 15.6857C9.48169 15.6707 10.8674 15.6707 12.2529 15.6857C12.2673 17.0708 12.2675 18.4565 12.2536 19.8429C10.8676 19.8566 9.48187 19.8563 8.09643 19.8422C8.08203 18.4572 8.08179 17.0718 8.09571 15.6857Z" fill="#ABEBF4"/>
</svg>
