<svg viewBox="0 0 24 24" fill="none" xmlns="http://www.w3.org/2000/svg">
<g clip-path="url(#clip0_1265_21746)">
<path d="M12 24C18.6274 24 24 18.6274 24 12C24 5.37258 18.6274 0 12 0C5.37258 0 0 5.37258 0 12C0 18.6274 5.37258 24 12 24Z" fill="#4096D0"/>
<path d="M18.1958 8.09998H13.9741L12.7221 11.2395H8.77405V9.62293H12.7221L13.3 8.09998H7.3213C7.24728 8.09964 7.17615 8.12866 7.12351 8.1807C7.07087 8.23273 7.04102 8.30352 7.0405 8.37753V11.2388H6.0785L5.5 12.7611H7.0405V15.6192C7.0405 15.7739 7.1679 15.9 7.3252 15.9H10.2183L10.7962 14.3783H8.77405V12.7605H12.0481L10.7962 15.9H12.7221L14.0702 12.7605H18.2172C18.3733 12.7605 18.5 12.6357 18.5 12.4816V8.39963C18.4993 8.31958 18.4669 8.24308 18.4099 8.1869C18.3528 8.13072 18.2758 8.09946 18.1958 8.09998ZM16.8633 10.999C16.8633 11.1316 16.7547 11.2395 16.6202 11.2395H14.6481L15.3221 9.62358H16.6189C16.6831 9.62289 16.7449 9.64768 16.7909 9.69252C16.8368 9.73736 16.8631 9.79859 16.8639 9.86278L16.8633 10.999Z" fill="white"/>
</g>
<defs>
<clipPath id="clip0_1265_21746">
<rect width="24" height="24" fill="white"/>
</clipPath>
</defs>
</svg>