<svg width="24" height="24" viewBox="0 0 24 24" fill="none" xmlns="http://www.w3.org/2000/svg">
<g clip-path="url(#clip0_1265_21742)">
<path d="M12 24C18.6274 24 24 18.6274 24 12C24 5.37258 18.6274 0 12 0C5.37258 0 0 5.37258 0 12C0 18.6274 5.37258 24 12 24Z" fill="#ED1968"/>
<path d="M10.1333 18.2271C9.38989 18.0232 8.6967 17.6704 8.09671 17.1905C7.50552 16.7398 6.99424 16.1949 6.5838 15.578C6.14614 14.9292 5.83072 14.2073 5.65278 13.4472C5.44907 12.5368 5.44907 11.5934 5.65278 10.683C5.82639 9.91287 6.12091 9.17445 6.52562 8.49461C7.1181 7.55386 7.96463 6.79585 8.96955 6.30624C9.32245 6.11826 9.69265 5.96399 10.0751 5.84553C10.657 6.5366 11.2389 7.28525 11.8208 8.0339C11.879 8.14908 11.9954 8.20667 12.0536 8.32185C11.4699 8.34606 10.8966 8.483 10.3661 8.72497C9.89704 8.96765 9.48161 9.30048 9.14411 9.70397C8.81204 10.1384 8.55631 10.6251 8.38766 11.1437C8.23227 11.7706 8.25238 12.4276 8.44585 13.0441L10.948 11.0861C11.5299 11.8348 12.1117 12.5258 12.6936 13.2745C11.879 13.9079 11.0062 14.5414 10.1915 15.2325C11.0062 16.2691 11.879 17.3633 12.6936 18.4575C11.8333 18.5581 10.9612 18.4797 10.1333 18.2271ZM15.6787 11.2508C15.6574 11.1565 15.6321 11.0632 15.6031 10.9709C15.5245 11.032 13.7934 12.3415 13.101 12.9289C12.5191 12.1803 11.9372 11.4892 11.3553 10.7406C12.1699 10.1071 13.0428 9.47362 13.8574 8.78256C13.0428 7.74596 12.2281 6.70936 11.3553 5.61518C11.3553 5.55759 11.2971 5.55759 11.2971 5.5H12.1117C13.6044 5.51379 15.0452 6.04343 16.185 6.99731C16.7404 7.45159 17.2128 7.99703 17.5815 8.60979C18.0157 9.26943 18.2941 10.0174 18.3961 10.7982C18.552 11.6957 18.5323 12.6146 18.3379 13.5048C18.1714 14.2507 17.8547 14.9558 17.4069 15.578C17.0161 16.1754 16.524 16.7014 15.9522 17.1329C15.3954 17.6117 14.7402 17.9654 14.032 18.1695C13.5083 17.536 13.0428 16.9601 12.5773 16.3267C12.4033 16.1297 12.2476 15.9177 12.1117 15.6932C12.6623 15.695 13.206 15.5713 13.7004 15.3316C14.1949 15.0919 14.6269 14.7427 14.963 14.3111C15.2982 13.8868 15.5364 13.3956 15.6613 12.8714C15.7695 12.4343 15.7753 11.8941 15.6787 11.2508ZM12.9305 16.0727C13.3323 16.6159 13.7495 17.1479 14.1815 17.6679C14.7342 17.4701 15.2448 17.1723 15.6874 16.7897C16.224 16.3837 16.6855 15.8888 17.0514 15.3269C17.4648 14.7528 17.7573 14.1022 17.9114 13.4138C18.0941 12.5777 18.1122 11.7144 17.9638 10.8534C17.8686 10.1314 17.6098 9.44005 17.2068 8.83093C16.8627 8.25939 16.4218 7.75074 15.9033 7.32729C14.856 6.45038 13.5351 5.95775 12.1635 5.93249C12.7029 6.61204 13.2493 7.30483 14.2019 8.51765L14.4579 8.84245L14.1414 9.11024C13.7275 9.45863 13.3049 9.79678 12.874 10.1244C12.8333 10.156 12.3387 10.5321 11.9674 10.8166C12.1205 11.0095 12.2979 11.2295 12.5691 11.5652C12.8368 11.8964 13.0143 12.1169 13.1673 12.3099C13.4373 12.0893 13.7317 11.8578 14.0843 11.5871C14.1414 11.5434 15.0712 10.835 15.3337 10.6312L15.8318 10.2436L16.0197 10.8425C16.2366 11.5327 16.2595 12.2683 16.086 12.9704C15.947 13.5545 15.6818 14.1019 15.3086 14.5748C14.7152 15.3369 13.8629 15.8605 12.9095 16.0485L12.9305 16.0727Z" fill="white"/>
</g>
<defs>
<clipPath id="clip0_1265_21742">
<rect width="24" height="24" fill="white"/>
</clipPath>
</defs>
</svg>
