<svg viewBox="0 0 24 24" fill="none" xmlns="http://www.w3.org/2000/svg">
<path fill-rule="evenodd" clip-rule="evenodd" d="M20.4458 6.39L14.6667 11.8575C14.6667 11.8583 14.6667 11.8583 14.6667 11.8592V18.7592C14.6667 19.0275 14.5383 19.2792 14.3217 19.435L10.9883 21.8425C10.8433 21.9475 10.6717 22 10.5 22C10.3708 22 10.24 21.97 10.1208 21.9092C9.84167 21.7667 9.66667 21.48 9.66667 21.1667V11.8592C9.66667 11.7967 9.68917 11.7408 9.7025 11.6825L4.32 6.40583C3.99833 6.075 3 4.97 3 4.0175V2.83333C3 2.3725 3.3725 2 3.83333 2H20.5C20.9608 2 21.3333 2.3725 21.3333 2.83333V4.0175C21.3333 4.68917 21.1008 5.71333 20.4458 6.39ZM4.66667 4.0175C4.6875 4.17833 5.01667 4.73083 5.5025 5.23167L11.1875 10.8042C11.4608 11.0725 11.4967 11.4767 11.3208 11.7958C11.3225 11.8183 11.3333 11.8367 11.3333 11.8592V19.5367L13 18.3325V11.8592C13 11.71 13.0492 11.5783 13.1175 11.4575C13.1008 11.2167 13.1758 10.9725 13.3642 10.7933L19.2733 5.20583C19.51 4.96 19.6667 4.40167 19.6667 4.0175V3.66667H4.66667V4.0175Z" fill="currentColor"/>
</svg>