<svg width="24" height="24" viewBox="0 0 24 24" fill="none" xmlns="http://www.w3.org/2000/svg">
<g clip-path="url(#clip0_620_14163)">
<path fill-rule="evenodd" clip-rule="evenodd" d="M3 16.797C3.24288 16.926 3.56167 17.1233 3.78937 17.2751C3.87287 17.3321 3.96774 17.3814 4.05882 17.4383C4.10816 17.4687 4.13852 17.4839 4.18406 17.5142C4.20683 17.5294 4.22581 17.5446 4.24858 17.556C4.27514 17.5712 4.29032 17.5787 4.31689 17.5939L7.23909 19.3928C7.28083 19.4156 7.31878 19.4421 7.36433 19.4687L10.0171 21.1044C10.0474 21.1233 10.0588 21.1271 10.0854 21.1461L11.3529 21.9241C11.4099 21.9545 11.4326 21.9924 11.4972 21.9962V12.0911L11.0949 11.8596C11.0569 11.8406 11.0342 11.8254 10.9962 11.8027L10.6812 11.6205C10.2334 11.3852 9.81594 11.0968 9.36433 10.8615C9.31878 10.8387 9.3036 10.8235 9.25427 10.8008L8.85199 10.5693C8.75332 10.5085 8.3055 10.2391 8.22581 10.2201V11.7837L9.87286 12.7362C9.91841 12.7628 9.94877 12.7818 9.99051 12.8046C10.0361 12.8273 10.0588 12.8539 10.1157 12.8653V19.5712C9.82732 19.3776 9.51992 19.203 9.22391 19.0247L8.50664 18.5806C8.21442 18.3833 7.89943 18.2201 7.60721 18.0266C7.57305 18.0038 7.55408 17.9962 7.51992 17.9734L6.88615 17.5825C6.81784 17.5446 6.7685 17.5142 6.70398 17.4687C6.47249 17.3131 6.22201 17.1765 5.98672 17.0247C5.9222 16.9829 5.86907 16.9564 5.80455 16.9146C5.45541 16.6793 5.0797 16.4668 4.72296 16.2505C4.6926 16.2315 4.66603 16.2125 4.63947 16.1936L4.36243 16.0228V7.97344C4.3093 7.93929 4.25617 7.90893 4.19545 7.87477C4.13472 7.84062 4.08918 7.81405 4.02846 7.7761L3.17457 7.29033C3.11006 7.25618 3.06072 7.21823 3 7.18787V16.797Z" fill="#060606"/>
<path fill-rule="evenodd" clip-rule="evenodd" d="M12.3169 12.0759V15.8823L12.8217 15.5977C13.0532 15.4762 13.2657 15.3282 13.4972 15.2068C13.5389 15.184 13.5541 15.1764 13.5845 15.1537C13.6148 15.1347 13.6452 15.1233 13.6755 15.1081V12.8652C13.7211 12.8539 13.7363 12.8463 13.7704 12.8235C13.8046 12.8007 13.8274 12.7931 13.8615 12.7742C14.0399 12.6717 14.2144 12.5503 14.3966 12.4592C14.6433 12.3377 14.8786 12.1859 15.1139 12.0455C15.1746 12.0114 15.2239 11.981 15.2885 11.943L15.6452 11.7419C15.6831 11.7191 15.6945 11.7115 15.7325 11.6888C15.8881 11.6091 16.0323 11.5028 16.1917 11.4193L16.3663 11.3169C16.3966 11.2979 16.427 11.2865 16.4573 11.2713L17.6224 10.5958C17.8691 10.4668 18.0968 10.3112 18.3397 10.1821L18.7002 9.96961C18.8217 9.8975 18.9393 9.83298 19.0607 9.75708C19.1253 9.71913 19.1784 9.69257 19.2353 9.65462L19.4251 9.54835V16.0417C19.3719 16.0531 19.3568 16.0721 19.3112 16.0986L18.9773 16.3036C18.9431 16.3263 18.9165 16.3453 18.8748 16.3719C18.8292 16.3984 18.7989 16.4212 18.7609 16.444C18.7192 16.4668 18.6964 16.4857 18.6547 16.5085L18.3169 16.7096C18.0133 16.8842 17.7287 17.0816 17.4251 17.2561L16.537 17.8064C16.4953 17.833 16.4725 17.8444 16.4308 17.8709C16.0323 18.1404 15.6072 18.3643 15.205 18.6262C15.1329 18.6755 15.057 18.7172 14.9848 18.7628L13.8729 19.4459C13.8387 19.4649 13.8008 19.4876 13.7666 19.5104C13.4365 19.7267 13.0911 19.9127 12.7609 20.129L12.3093 20.406V22C12.3852 21.981 12.5067 21.8899 12.575 21.8482C12.6661 21.7912 12.7533 21.7457 12.8444 21.685C13.0987 21.5142 13.3757 21.3738 13.63 21.203C13.6793 21.1726 13.7173 21.1461 13.7628 21.1195L14.4346 20.7058C14.4801 20.6793 14.5143 20.6565 14.5598 20.6299L18.1348 18.4288C18.1841 18.3984 18.2258 18.3719 18.2676 18.3453L20.6547 16.8766C20.7002 16.8463 20.7458 16.8197 20.7913 16.7969V7.203C20.723 7.21818 20.7116 7.24095 20.6585 7.27131C20.6091 7.29788 20.575 7.31685 20.5294 7.34342L19.7363 7.80262C19.4668 7.94684 19.2163 8.1252 18.9431 8.26183L16.8217 9.48384C16.7268 9.53697 16.6509 9.5863 16.5598 9.63944L16.1689 9.86714C15.8919 10.0076 15.4896 10.2466 15.2353 10.406C15.1898 10.4364 15.1518 10.4478 15.1063 10.4781L14.2448 10.9791C14.2069 10.9981 14.2144 10.9981 14.1765 11.0208L13.907 11.1688C13.7477 11.2523 13.6072 11.3548 13.4478 11.4383C13.4099 11.4573 13.4099 11.4649 13.3795 11.48L13.1101 11.6281C12.9317 11.7153 12.4611 12.0455 12.3169 12.0759Z" fill="#060606"/>
<path fill-rule="evenodd" clip-rule="evenodd" d="M3.52747 6.55028C3.5806 6.56167 3.61096 6.59203 3.66029 6.6186C3.83866 6.71347 3.99805 6.82732 4.18022 6.91841L5.62234 7.75332C6.30925 8.17078 7.02272 8.54269 7.71343 8.96015L7.84246 9.03226C7.89179 9.05882 7.92595 9.08159 7.97149 9.10436L8.75707 9.55977C8.79122 9.57875 8.78743 9.57875 8.81399 9.59393C9.18212 9.81784 9.56921 10.0076 9.93354 10.2391L11.1024 10.9108C11.148 10.9374 11.1821 10.9602 11.2277 10.9867C11.3643 11.0702 11.8538 11.3662 11.9032 11.3662C11.9753 11.3662 12.3927 11.1006 12.499 11.0361L12.7039 10.9146C12.7723 10.8729 12.833 10.8463 12.9013 10.8046C12.9734 10.7628 13.0265 10.7324 13.0986 10.6907L13.4971 10.4554C13.5654 10.4137 13.6261 10.3833 13.6907 10.3416L14.2941 10C14.332 9.98102 14.3586 9.96205 14.3927 9.94307C14.4269 9.9203 14.4497 9.90892 14.4914 9.88615L14.8937 9.65465C14.9582 9.6167 15.0303 9.55977 15.1062 9.5408C15.0948 9.49526 15.0872 9.49905 15.0493 9.47628L13.7628 8.73624C13.2504 9.00569 12.7647 9.32068 12.2561 9.59772C12.2144 9.62049 12.1802 9.64326 12.1423 9.66983C12.0626 9.71917 11.9905 9.76091 11.907 9.80645L11.1328 9.35863C10.8633 9.22201 10.6167 9.04364 10.3472 8.90323C10.2865 8.86907 10.2258 8.83112 10.1726 8.80076L8.60147 7.89753C8.57111 7.87856 8.54455 7.86338 8.51418 7.8444C8.48003 7.82163 8.45726 7.81404 8.4231 7.79507L6.41172 6.63378C6.37377 6.61101 6.36997 6.59962 6.31684 6.58824C6.35859 6.52751 6.40792 6.52372 6.47623 6.48197C6.53316 6.44402 6.58629 6.42505 6.64701 6.39089L8.39654 5.44592C8.43449 5.42315 8.43449 5.41935 8.47244 5.40038C8.51039 5.3814 8.52937 5.37381 8.56352 5.35104C8.62424 5.31309 8.68496 5.28653 8.74568 5.25617L10.9278 4.0797C10.9658 4.06072 10.9772 4.04934 11.0151 4.02657L11.9032 3.55218C11.9525 3.55218 12.6242 3.94307 12.7798 4.02277C12.8178 4.04175 12.8444 4.05313 12.8823 4.0759C12.9278 4.10247 12.9392 4.11385 12.9924 4.13662L15.406 5.43833C15.6186 5.57116 16.2637 5.90892 16.4914 6.02277C16.7495 6.1518 16.9962 6.3074 17.2542 6.43643L18.6888 7.21442C18.7381 7.24099 18.7533 7.24858 18.7988 7.27514C18.9696 7.37761 18.9734 7.29032 19.2504 7.13852L19.7628 6.8463C19.8538 6.79696 20.1992 6.57685 20.2789 6.55787C20.2637 6.50854 20.2182 6.48956 20.1726 6.463L19.6527 6.17837C19.3908 6.04554 19.129 5.88235 18.8671 5.75712L18.3472 5.47249C18.1688 5.3814 17.9905 5.29791 17.8235 5.19165L15.2011 3.77609C15.148 3.74953 15.1176 3.73435 15.0721 3.70398L14.017 3.13472C13.9677 3.10816 13.9373 3.08918 13.888 3.06262C13.8614 3.04744 13.85 3.04364 13.8273 3.03226L12.4421 2.28083C12.3548 2.2277 11.9487 2 11.8994 2C11.8576 2 11.5654 2.17457 11.5009 2.20493L8.499 3.82922C8.44967 3.85199 8.41172 3.87097 8.36618 3.89753L6.26371 5.03226C6.21437 5.05882 6.1916 5.0778 6.13468 5.10436L5.94492 5.20683C5.90697 5.22581 5.90697 5.2334 5.87661 5.24858C5.83487 5.27514 5.78933 5.28653 5.74379 5.31689L5.34151 5.53321C5.28838 5.55977 5.26181 5.58254 5.21248 5.60531L4.60147 5.93928C4.5787 5.95066 4.5787 5.94687 4.55972 5.95825C4.47244 6.00759 4.38136 6.04175 4.29786 6.09867C4.24853 6.12903 4.21817 6.14042 4.16504 6.16698L3.5768 6.49336C3.53126 6.51992 3.54265 6.49715 3.52747 6.55028Z" fill="#060606"/>
</g>
<defs>
<clipPath id="clip0_620_14163">
<rect width="17.7989" height="20" fill="white" transform="translate(3 2)"/>
</clipPath>
</defs>
</svg>
