<svg viewBox="0 0 24 24" fill="none" xmlns="http://www.w3.org/2000/svg">
<g clip-path="url(#clip0_1265_21738)">
<path d="M12 24C18.6274 24 24 18.6274 24 12C24 5.37258 18.6274 0 12 0C5.37258 0 0 5.37258 0 12C0 18.6274 5.37258 24 12 24Z" fill="#2D475B"/>
<path d="M10.6149 9.8451H17.8203V11.4624H10.6149V9.8451ZM17.8203 12.5388H17.8502V16.7919C17.8502 16.7919 12.2295 20.8642 7.86397 16.4331C7.86397 16.4331 5.4719 14.0072 6.33903 10.4737C6.33903 10.4737 7.02675 6.07239 12.2594 5.53352C12.2594 5.53352 15.4881 5.0837 17.5811 7.47968L16.3253 8.70692C16.3253 8.70692 13.6641 5.95213 10.1065 8.1089C10.1065 8.1089 7.20615 9.7255 8.40219 13.7979C8.40219 13.7979 9.71783 17.3314 13.8435 16.6125C13.8435 16.6125 15.2488 16.2926 15.9665 15.6738V14.156H10.6155V12.5388H17.8203Z" fill="white"/>
</g>
<defs>
<clipPath id="clip0_1265_21738">
<rect width="24" height="24" fill="white"/>
</clipPath>
</defs>
</svg>