<svg width="24" height="24" viewBox="0 0 24 24" fill="none" xmlns="http://www.w3.org/2000/svg">
<g clip-path="url(#clip0_1265_21734)">
<path d="M12 24C18.6274 24 24 18.6274 24 12C24 5.37258 18.6274 0 12 0C5.37258 0 0 5.37258 0 12C0 18.6274 5.37258 24 12 24Z" fill="#58BF00"/>
<path d="M17.525 16.277L12.9815 14.1593V9.4663L17.525 7.85495V16.277ZM10.9099 18.5L6.47498 16.4336V8.0727L10.9099 10.1397V18.5ZM17.4164 7.55205L17.343 7.57805L12.9815 9.1257L12.8723 9.1647L11.0243 9.8199L6.64983 7.7815L12.8723 5.5741L12.9269 5.5546L13.0419 5.51365L13.0822 5.5L17.4567 7.5384L17.4158 7.55205H17.4164Z" fill="white"/>
</g>
<defs>
<clipPath id="clip0_1265_21734">
<rect width="24" height="24" fill="white"/>
</clipPath>
</defs>
</svg>
