<svg viewBox="0 0 24 24" fill="none" xmlns="http://www.w3.org/2000/svg">
<g clip-path="url(#clip0_1265_21731)">
<path d="M24 12C24 14.3734 23.2962 16.6935 21.9776 18.6668C20.6591 20.6402 18.7849 22.1783 16.5922 23.0866C14.3995 23.9948 11.9867 24.2324 9.65892 23.7694C7.33115 23.3064 5.19295 22.1635 3.51472 20.4853C1.83649 18.8071 0.693605 16.6689 0.230582 14.3411C-0.232441 12.0133 0.00519936 9.60051 0.913451 7.4078C1.8217 5.21509 3.35977 3.34094 5.33316 2.02236C7.30655 0.703788 9.62663 0 12 0C15.1826 0 18.2348 1.26428 20.4853 3.51472C22.7357 5.76516 24 8.8174 24 12Z" fill="#001B69"/>
<path d="M12.8313 6.00038C13.3584 5.9945 13.884 6.05716 14.3949 6.18679C14.8252 6.29063 15.2415 6.44545 15.6351 6.64799L15.0964 7.81498C14.7669 7.64774 14.4223 7.51208 14.0673 7.40982C13.6872 7.29097 13.2911 7.23101 12.8928 7.23202C12.6482 7.22793 12.4046 7.26434 12.1719 7.33978C11.9556 7.40844 11.7593 7.52863 11.5997 7.68998C11.4271 7.86357 11.2966 8.07443 11.2183 8.30634C11.1258 8.60261 11.0821 8.91196 11.0889 9.22226V11.6123H14.1352V12.7221H11.0889V14.4355C11.0936 14.7258 11.061 15.0155 10.992 15.2975C10.9409 15.5148 10.8562 15.7228 10.7409 15.9139C10.6444 16.079 10.5209 16.2269 10.3756 16.3513C10.2436 16.4643 10.1023 16.566 9.95321 16.6552H16.0144V18H7.9856V16.7522C8.21113 16.697 8.42848 16.6126 8.63213 16.5011C8.83043 16.3889 9.00384 16.2375 9.14181 16.0561C9.29571 15.8576 9.41119 15.6321 9.48232 15.3912C9.56883 15.0857 9.60986 14.7691 9.60408 14.4516V12.7275H8.00176V11.6177H9.60623V8.99059C9.60011 8.5599 9.6815 8.13246 9.84545 7.73416C9.99636 7.37648 10.2232 7.05587 10.5103 6.79453C10.806 6.52903 11.1534 6.32762 11.5307 6.20296C11.9501 6.06384 12.3896 5.99538 12.8313 6.00038Z" fill="white"/>
</g>
<defs>
<clipPath id="clip0_1265_21731">
<rect width="24" height="24" fill="white"/>
</clipPath>
</defs>
</svg>