<svg viewBox="0 0 24 24" fill="none" xmlns="http://www.w3.org/2000/svg">
<path fill-rule="evenodd" clip-rule="evenodd" d="M12 22C6.48583 22 2 17.5133 2 12C2 6.48583 6.48583 2 12 2C17.5142 2 22 6.48583 22 12C22 17.5133 17.5142 22 12 22ZM12 3.66667C7.405 3.66667 3.66667 7.405 3.66667 12C3.66667 16.595 7.405 20.3333 12 20.3333C16.595 20.3333 20.3333 16.595 20.3333 12C20.3333 7.405 16.595 3.66667 12 3.66667ZM14.5 11.1667C14.0392 11.1667 13.6667 10.7933 13.6667 10.3333C13.6667 9.66333 13.3558 8.66667 12.5008 8.66667C11.6658 8.66667 11.1667 9.37167 11.1667 10.0533C11.1667 10.4083 11.2767 10.5917 11.4758 10.9233C11.6383 11.1942 11.8275 11.5408 11.9608 12H12.8333C13.2942 12 13.6667 12.3733 13.6667 12.8333C13.6667 13.2933 13.2942 13.6667 12.8333 13.6667H12.0558C11.9992 13.99 11.8892 14.2917 11.7608 14.5792C12.0825 14.655 12.4108 14.7833 12.74 15.0233C13.42 15.52 13.7658 15.3008 13.885 15.1833C14.1992 14.8642 14.7233 14.8392 15.0525 15.1433C15.3833 15.4475 15.4242 15.9458 15.1325 16.2867C14.8525 16.6133 14.2675 17.0033 13.4933 17.0033C12.985 17.0033 12.3958 16.835 11.7583 16.3708C11.2392 15.9925 10.7292 16.2258 10.4125 16.4575C10.2183 16.645 10.0675 16.7708 10.0158 16.8117C9.97833 16.8408 9.93417 16.8558 9.89333 16.8783C9.87 16.8908 9.84833 16.9058 9.82417 16.9158C9.73417 16.9542 9.6425 16.9775 9.5475 16.9825C9.545 16.9825 9.5425 16.9842 9.53917 16.9842C9.52667 16.985 9.51417 16.9908 9.50083 16.9908C9.44917 16.9908 9.40167 16.9658 9.35083 16.9567C9.29917 16.9475 9.24833 16.9417 9.19833 16.9225C9.14083 16.9 9.09333 16.8642 9.04167 16.8292C9.00917 16.8075 8.97167 16.7967 8.94167 16.77C8.92583 16.755 8.91917 16.735 8.905 16.72C8.88667 16.7008 8.8625 16.6933 8.84583 16.6725C8.82083 16.6408 8.8125 16.6025 8.79333 16.5692C8.76917 16.5283 8.74833 16.49 8.73167 16.4467C8.71 16.3908 8.6975 16.335 8.68917 16.2767C8.68167 16.2275 8.67667 16.1817 8.67833 16.1325C8.68 16.0775 8.6875 16.0258 8.7 15.9725C8.71167 15.9208 8.72667 15.8725 8.74833 15.8225C8.77 15.7733 8.7975 15.7292 8.82917 15.6842C8.84833 15.6575 8.85667 15.625 8.87917 15.6C8.98833 15.4775 9.13583 15.3467 9.29833 15.2183C9.66417 14.8558 10.14 14.2775 10.345 13.6667H9.5C9.03917 13.6667 8.66667 13.2933 8.66667 12.8333C8.66667 12.3733 9.03917 12 9.5 12H10.1733C10.1333 11.9275 10.0917 11.8567 10.0467 11.7808C9.8025 11.375 9.5 10.87 9.5 10.0533C9.5 8.34083 10.8183 7 12.5008 7C14.3408 7 15.3333 8.7175 15.3333 10.3333C15.3333 10.7933 14.9608 11.1667 14.5 11.1667Z" fill="currentColor"/>
</svg>