<svg width="24" height="24" viewBox="0 0 24 24" fill="none" xmlns="http://www.w3.org/2000/svg">
<path fill-rule="evenodd" clip-rule="evenodd" d="M14.4997 8.66165C14.0385 8.66165 13.6652 8.28882 13.6652 7.82905C13.6652 5.572 11.9091 3.66604 9.82962 3.66604C7.63438 3.66604 6.15963 5.76092 6.15963 7.7187C6.15963 8.82048 6.45441 9.43824 6.82859 10.2207C7.16729 10.9304 7.5364 11.7154 7.71631 12.8966H10.5873C11.0484 12.8966 11.1633 13.1983 11.1633 13.6581C11.1633 14.1179 10.7908 14.4907 10.3296 14.4907H7.82442C7.80838 16.0522 7.13435 17.4943 6.3142 18.683C7.38183 18.5919 8.54237 18.7958 9.68856 19.5197C12.383 21.2242 13.8907 19.7505 13.9059 19.7346C14.2294 19.4069 14.7581 19.4044 15.085 19.7271C15.4127 20.0497 15.4161 20.5772 15.0935 20.9049C14.5951 21.4081 13.5528 22 12.1532 22C11.1844 22 10.0458 21.7175 8.79661 20.9275C6.76101 19.6418 4.79214 20.7043 3.89851 21.3496C3.58092 21.6238 3.35962 21.7927 3.32161 21.8211C3.27516 21.8554 3.22363 21.8738 3.17295 21.8972C3.15015 21.908 3.13072 21.9231 3.10707 21.9315C3.01501 21.9649 2.92041 21.985 2.82496 21.985C2.82074 21.985 2.81736 21.9824 2.81398 21.9824C2.69911 21.9816 2.58593 21.9532 2.4795 21.9055C2.44318 21.8888 2.41446 21.8587 2.37983 21.837C2.32746 21.8027 2.27087 21.7768 2.22526 21.73C2.21175 21.7158 2.20752 21.6974 2.19485 21.6832C2.18303 21.669 2.16614 21.6639 2.15516 21.6497C2.12982 21.6163 2.12306 21.5762 2.10363 21.5402C2.07829 21.4943 2.05295 21.4499 2.03775 21.4006C2.02086 21.348 2.01494 21.2953 2.00903 21.241C2.00312 21.1883 1.99721 21.1381 2.00143 21.0855C2.00565 21.0336 2.01917 20.9852 2.03353 20.935C2.04789 20.8815 2.06224 20.8313 2.08674 20.782C2.11123 20.7344 2.14333 20.6934 2.17627 20.6508C2.20077 20.6199 2.21344 20.5831 2.24215 20.5546C2.41615 20.3858 2.63238 20.2061 2.87648 20.0263C3.92722 19.1018 6.12162 16.8865 6.1554 14.4907H3.65778C3.1966 14.4907 2.82412 14.1179 2.82412 13.6581C2.82412 13.1983 3.36891 12.8966 3.83009 12.8966H6.02448C5.87076 12.0932 5.603 11.5231 5.32258 10.9371C4.91462 10.0819 4.49145 9.19666 4.49145 7.7187C4.49145 4.61902 6.93586 2 9.82962 2C12.8636 2 15.3333 4.61484 15.3333 7.82905C15.3333 8.28882 14.96 8.66165 14.4997 8.66165Z" fill="#6B7084"/>
</svg>
