<svg width="24" height="24" viewBox="0 0 24 24" fill="none" xmlns="http://www.w3.org/2000/svg">
<g clip-path="url(#clip0_1265_21723)">
<path d="M12 24C18.6274 24 24 18.6274 24 12C24 5.37258 18.6274 0 12 0C5.37258 0 0 5.37258 0 12C0 18.6274 5.37258 24 12 24Z" fill="#1666AF"/>
<path d="M11.7893 8.5042V9.9462H8.4993C8.0723 9.9462 7.5466 10.096 7.1553 10.3732C6.6702 10.7176 6.3993 11.2335 6.3993 12.0021C6.3993 12.7707 6.6702 13.2866 7.1553 13.631C7.5466 13.9082 8.0723 14.058 8.4993 14.058H9.8993V15.5H8.4993C7.73452 15.4925 6.98968 15.2552 6.3615 14.8189C5.5019 14.2085 5 13.2523 5 12.0021C5 10.7519 5.5019 9.7957 6.3615 9.1853C6.98947 8.74913 7.73406 8.51183 8.4986 8.5042H11.7893ZM8.2893 12.8316V11.3896H11.7893V15.5H10.39V12.8316H8.2893ZM14.1 9.942V8.5H19V15.5H12.6986V9.9469H14.0986V14.0573H17.6V9.9427L14.1 9.942Z" fill="white"/>
</g>
<defs>
<clipPath id="clip0_1265_21723">
<rect width="24" height="24" fill="white"/>
</clipPath>
</defs>
</svg>
