<svg viewBox="0 0 24 24" fill="none" xmlns="http://www.w3.org/2000/svg">
<g clip-path="url(#clip0_1265_21715)">
<path d="M12 24C18.6274 24 24 18.6274 24 12C24 5.37258 18.6274 0 12 0C5.37258 0 0 5.37258 0 12C0 18.6274 5.37258 24 12 24Z" fill="#EFB914"/>
<path fill-rule="evenodd" clip-rule="evenodd" d="M14.9558 8.36886C15.4507 8.75713 15.8625 9.24086 16.1668 9.79133C16.4711 10.3418 16.6618 10.9478 16.7274 11.5734L15.0451 11.155C14.8868 10.6263 14.593 10.1482 14.1929 9.76815C13.7928 9.38805 13.3003 9.11916 12.7642 8.98814C11.0706 8.56682 9.36053 9.57373 8.94394 11.2371C8.52735 12.9005 9.5644 14.5905 11.2585 15.0119C11.794 15.147 12.3555 15.1402 12.8875 14.992C13.4196 14.8438 13.9038 14.5594 14.2923 14.1669L15.9746 14.5846C15.6221 15.1065 15.1685 15.5523 14.6407 15.8959C14.113 16.2394 13.5217 16.4737 12.9018 16.5849L12.4232 18.5L10.8892 18.1189L11.2698 16.5973C11.0094 16.5544 10.7529 16.4906 10.5028 16.4064L10.1228 17.928L8.5888 17.5463L9.06744 15.6311C7.66226 14.5232 6.95494 12.679 7.41053 10.856C7.86612 9.03305 9.35876 7.73541 11.1214 7.41514L11.6001 5.5L13.1341 5.88114L12.7535 7.40273C13.0139 7.44556 13.2704 7.50939 13.5205 7.59359L13.9005 6.072L15.4345 6.45373L14.9558 8.36886Z" fill="white"/>
</g>
<defs>
<clipPath id="clip0_1265_21715">
<rect width="24" height="24" fill="white"/>
</clipPath>
</defs>
</svg>