<svg width="24" height="24" viewBox="0 0 24 24" fill="none" xmlns="http://www.w3.org/2000/svg">
<path fill-rule="evenodd" clip-rule="evenodd" d="M21.9886 8.24917L21.9835 12.1617C21.9835 12.6217 21.6556 12.8333 21.195 12.8333H21.1508V20.1933C21.1508 20.2433 21.1541 20.3008 21.1574 20.3608C21.1766 20.7542 21.2042 21.2917 20.8353 21.68C20.6384 21.8867 20.3705 22 20.0802 22H4.68027C3.86918 22 2.83279 20.9867 2.83279 20.1933V12.8333C2.37384 12.8317 2 12.62 2 12.1617V8.3C2 8.12083 2.06676 7.2225 3.37769 7.2225C3.47448 7.2225 3.57295 7.22583 3.66474 7.23L3.67141 7H6.04878C5.63072 6.45917 5.30361 5.77417 5.30361 4.93167C5.30361 2.91667 6.79729 2 8.18415 2C10.0083 2 11.1757 3.16083 12.3831 5.66583C13.6073 3.16083 14.8206 2 16.6464 2C18.0332 2 19.5269 2.91667 19.5269 4.93167C19.5269 5.77417 19.1906 6.45917 18.7609 7H21.195C21.235 7 21.0047 7.23083 21.0231 7.23C21.2976 7.2 21.6272 7.31417 21.8041 7.52333C21.9627 7.71 22.0286 8.0075 21.9886 8.24917ZM12.8254 20.3333H19.4869C19.4852 20.2842 19.4835 20.2367 19.4835 20.1933L19.5261 12.8333H12.8254V20.3333ZM4.77871 20.3333H11.1581V12.8333H4.50584L4.5 20.0733C4.56342 20.16 4.69026 20.2783 4.77871 20.3333ZM3.67146 8.66667C3.6239 8.66667 3.7232 8.89917 3.66729 8.89833L3.67146 11.1667H11.1582V8.66667H3.67146ZM8.1841 3.66667C7.73099 3.66667 6.9708 3.83083 6.9708 4.93167C6.9708 6.11833 8.5037 6.9275 8.52373 6.93583C8.56128 6.95083 8.58798 6.98 8.62219 7H11.1673C9.66192 3.6775 8.74986 3.66667 8.1841 3.66667ZM16.2375 6.93583C16.2576 6.9275 17.8597 6.11833 17.8597 4.93167C17.8597 3.83083 17.0995 3.66667 16.6464 3.66667C16.0807 3.66667 15.1102 3.6775 13.5965 7H16.1382C16.1733 6.98 16.1991 6.95083 16.2375 6.93583ZM20.3605 8.66667H12.8254V11.1667H20.3605V8.66667Z" fill="#6B7084"/>
</svg>
