<svg viewBox="0 0 24 24" fill="none" xmlns="http://www.w3.org/2000/svg">
<g clip-path="url(#clip0_1265_21709)">
<path d="M12 24C18.6274 24 24 18.6274 24 12C24 5.37258 18.6274 0 12 0C5.37258 0 0 5.37258 0 12C0 18.6274 5.37258 24 12 24Z" fill="#008DDE"/>
<path d="M16.7245 12.5958C16.7816 12.5979 16.8386 12.5885 16.892 12.5681C16.9454 12.5477 16.9942 12.5167 17.0354 12.4771C17.0765 12.4374 17.1093 12.3898 17.1316 12.3372C17.154 12.2846 17.1655 12.228 17.1655 12.1708C17.1655 12.1137 17.154 12.0571 17.1316 12.0044C17.1093 11.9518 17.0765 11.9043 17.0354 11.8646C16.9942 11.8249 16.9454 11.794 16.892 11.7736C16.8386 11.7531 16.7816 11.7437 16.7245 11.7458H15.7534V10.7853H17.7839C17.841 10.7874 17.898 10.778 17.9514 10.7576C18.0048 10.7372 18.0536 10.7063 18.0947 10.6666C18.1359 10.6269 18.1686 10.5793 18.191 10.5267C18.2134 10.4741 18.2249 10.4175 18.2249 10.3603C18.2249 10.3032 18.2134 10.2466 18.191 10.194C18.1686 10.1414 18.1359 10.0938 18.0947 10.0541C18.0536 10.0144 18.0048 9.98348 17.9514 9.96307C17.898 9.94267 17.841 9.93325 17.7839 9.93537H15.7453C15.7041 9.48028 15.5133 9.05164 15.2028 8.71639C14.8923 8.38113 14.4796 8.15812 14.029 8.08219V7.05908C14.0311 7.00194 14.0217 6.94497 14.0013 6.89156C13.9809 6.83815 13.9499 6.7894 13.9102 6.74823C13.8705 6.70705 13.823 6.6743 13.7704 6.65194C13.7177 6.62957 13.6612 6.61804 13.604 6.61804C13.5468 6.61804 13.4902 6.62957 13.4376 6.65194C13.385 6.6743 13.3374 6.70705 13.2977 6.74823C13.2581 6.7894 13.2271 6.83815 13.2067 6.89156C13.1863 6.94497 13.1769 7.00194 13.179 7.05908V8.05353H12.2185V5.81836C12.2206 5.76123 12.2112 5.70425 12.1908 5.65084C12.1704 5.59743 12.1394 5.54868 12.0997 5.50751C12.0601 5.46634 12.0125 5.43359 11.9599 5.41122C11.9073 5.38885 11.8507 5.37732 11.7935 5.37732C11.7363 5.37732 11.6797 5.38885 11.6271 5.41122C11.5745 5.43359 11.5269 5.46634 11.4873 5.50751C11.4476 5.54868 11.4166 5.59743 11.3962 5.65084C11.3758 5.70425 11.3664 5.76123 11.3685 5.81836V8.05294H10.4074V7.05849C10.4033 6.94851 10.3568 6.84439 10.2775 6.76803C10.1983 6.69166 10.0925 6.64899 9.98244 6.64899C9.87239 6.64899 9.76661 6.69166 9.68736 6.76803C9.60811 6.84439 9.56155 6.94851 9.55746 7.05849V8.08219C9.10687 8.15812 8.6941 8.38113 8.3836 8.71639C8.07311 9.05164 7.88237 9.48028 7.84117 9.93537H5.44104C5.38391 9.93325 5.32693 9.94267 5.27352 9.96307C5.22011 9.98348 5.17136 10.0144 5.13019 10.0541C5.08902 10.0938 5.05627 10.1414 5.0339 10.194C5.01153 10.2466 5 10.3032 5 10.3603C5 10.4175 5.01153 10.4741 5.0339 10.5267C5.05627 10.5793 5.08902 10.6269 5.13019 10.6666C5.17136 10.7063 5.22011 10.7372 5.27352 10.7576C5.32693 10.778 5.38391 10.7874 5.44104 10.7853H7.83356V11.7458H6.86251C6.80538 11.7437 6.7484 11.7531 6.69499 11.7736C6.64158 11.794 6.59283 11.8249 6.55166 11.8646C6.51049 11.9043 6.47774 11.9518 6.45537 12.0044C6.433 12.0571 6.42147 12.1137 6.42147 12.1708C6.42147 12.228 6.433 12.2846 6.45537 12.3372C6.47774 12.3898 6.51049 12.4374 6.55166 12.4771C6.59283 12.5167 6.64158 12.5477 6.69499 12.5681C6.7484 12.5885 6.80538 12.5979 6.86251 12.5958H7.83356V13.5563H5.98331C5.92617 13.5542 5.8692 13.5636 5.81578 13.584C5.76237 13.6044 5.71362 13.6354 5.67245 13.6751C5.63128 13.7147 5.59853 13.7623 5.57616 13.8149C5.55379 13.8675 5.54227 13.9241 5.54227 13.9813C5.54227 14.0385 5.55379 14.0951 5.57616 14.1477C5.59853 14.2003 5.63128 14.2479 5.67245 14.2875C5.71362 14.3272 5.76237 14.3582 5.81578 14.3786C5.8692 14.399 5.92617 14.4084 5.98331 14.4063H7.84117C7.88237 14.8614 8.07311 15.29 8.3836 15.6253C8.6941 15.9605 9.10687 16.1835 9.55746 16.2595V16.9205C9.55534 16.9776 9.56477 17.0346 9.58517 17.088C9.60557 17.1414 9.63653 17.1902 9.67621 17.2313C9.71588 17.2725 9.76345 17.3053 9.81606 17.3276C9.86868 17.35 9.92527 17.3615 9.98244 17.3615C10.0396 17.3615 10.0962 17.35 10.1488 17.3276C10.2014 17.3053 10.249 17.2725 10.2887 17.2313C10.3284 17.1902 10.3593 17.1414 10.3797 17.088C10.4001 17.0346 10.4095 16.9776 10.4074 16.9205V16.2881H11.3679V18.2133C11.372 18.3232 11.4186 18.4274 11.4978 18.5037C11.5771 18.5801 11.6829 18.6228 11.7929 18.6228C11.903 18.6228 12.0088 18.5801 12.088 18.5037C12.1673 18.4274 12.2138 18.3232 12.2179 18.2133V16.2881H13.1784V17.2826C13.1763 17.3397 13.1857 17.3967 13.2061 17.4501C13.2265 17.5035 13.2575 17.5523 13.2972 17.5934C13.3368 17.6346 13.3844 17.6673 13.437 17.6897C13.4896 17.7121 13.5462 17.7236 13.6034 17.7236C13.6606 17.7236 13.7172 17.7121 13.7698 17.6897C13.8224 17.6673 13.87 17.6346 13.9096 17.5934C13.9493 17.5523 13.9803 17.5035 14.0007 17.4501C14.0211 17.3967 14.0305 17.3397 14.0284 17.2826V16.26C14.479 16.1841 14.8917 15.9611 15.2022 15.6259C15.5127 15.2906 15.7035 14.862 15.7447 14.4069H18.559C18.6161 14.409 18.6731 14.3996 18.7265 14.3792C18.7799 14.3588 18.8286 14.3278 18.8698 14.2881C18.911 14.2485 18.9437 14.2009 18.9661 14.1483C18.9885 14.0957 19 14.0391 19 13.9819C19 13.9247 18.9885 13.8681 18.9661 13.8155C18.9437 13.7629 18.911 13.7153 18.8698 13.6757C18.8286 13.636 18.7799 13.605 18.7265 13.5846C18.6731 13.5642 18.6161 13.5548 18.559 13.5569H15.754V12.5964H16.7245V12.5958ZM15.0749 14.2232C15.0746 14.5908 14.9284 14.9432 14.6685 15.2032C14.4086 15.4631 14.0561 15.6093 13.6885 15.6096H9.89792C9.53032 15.6093 9.17787 15.4631 8.91794 15.2032C8.65801 14.9432 8.51185 14.5908 8.51154 14.2232V10.1179C8.51185 9.75028 8.65801 9.39783 8.91794 9.13791C9.17787 8.87798 9.53032 8.73181 9.89792 8.7315H13.6885C14.0561 8.73181 14.4086 8.87798 14.6685 9.13791C14.9284 9.39783 15.0746 9.75028 15.0749 10.1179V14.2226V14.2232Z" fill="white"/>
<path d="M10.7999 9.73464C10.6358 9.732 10.4716 9.73766 10.308 9.7516C10.0494 9.78085 9.85931 10.0148 9.85112 10.2687C9.83825 10.8443 9.84878 11.4211 9.84527 11.9967C9.85346 12.2904 9.82538 12.5875 9.86867 12.8783C9.9102 13.138 10.1641 13.3053 10.4162 13.3047C11.2001 13.31 11.9839 13.3065 12.7678 13.307V13.6317H10.2436L9.91897 14.6057H12.4308C12.7245 14.5975 13.0211 14.6256 13.3124 14.5829C13.5721 14.5413 13.7388 14.2874 13.7382 14.0353C13.7441 13.0099 13.7394 11.9844 13.7412 10.9584C13.7318 10.6835 13.7651 10.4033 13.7096 10.1318C13.6505 9.85514 13.3539 9.71884 13.0918 9.73581H11.2925C11.1287 9.73873 10.9637 9.73522 10.7994 9.73405L10.7999 9.73464ZM10.8192 10.7098H12.7672V12.3331H10.8192V10.7098Z" fill="white"/>
</g>
<defs>
<clipPath id="clip0_1265_21709">
<rect width="24" height="24" fill="white"/>
</clipPath>
</defs>
</svg>