<svg width="24" height="24" viewBox="0 0 24 24" fill="none" xmlns="http://www.w3.org/2000/svg">
<path d="M13.5 7.41667C13.5833 7.41667 13.6667 7.33333 13.6667 7.33333C13.5833 7.33333 13.5833 7.33333 13.5 7.25C13.6667 7.08333 13.75 7 13.8333 7H13.9167C14 7.08333 14.0833 7.08333 14.1667 7.16667C14.1667 7.25 14.0833 7.25 14 7.33333C13.9167 7.33333 13.75 7.41667 13.5 7.41667C13.5833 7.41667 13.5833 7.41667 13.5 7.41667ZM13.8333 6.83333C13.8333 6.75 13.75 6.75 13.75 6.66667C13.6667 6.75 13.6667 6.75 13.8333 6.83333ZM10.0833 5.58333C9.91667 5.58333 9.83333 5.75 9.83333 5.91667C9.83333 6 9.83333 6 9.83333 6.08333C9.83333 6.33333 9.91667 6.41667 10.0833 6.41667C10.1667 6.41667 10.3333 6.41667 10.4167 6.33333C10.5 6.25 10.5 6.25 10.5833 6.16667C10.6667 6 10.8333 5.83333 11.0833 5.83333C11.25 5.83333 11.4167 5.75 11.5833 5.58333C11.6667 5.5 11.8333 5.41667 12 5.41667C12.1667 5.41667 12.25 5.41667 12.4167 5.33333C12.4167 5.33333 12.4167 5.33333 12.5 5.25H12.4167C12.3333 5.25 12.3333 5.25 12.25 5.25C12.25 5.16667 12.3333 5.16667 12.3333 5.08333C12.4167 5.08333 12.5 5.25 12.6667 5.16667C12.5833 5.08333 12.5 5.08333 12.4167 5C12.5 5 12.5 5 12.5 5C12.6667 5 12.9167 4.91667 13 4.75C13 4.75 13.0833 4.66667 13.0833 4.58333C13.0833 4.5 13.0833 4.5 13.1667 4.41667C13.25 4.41667 13.3333 4.33333 13.4167 4.33333C13.5 4.33333 13.5833 4.25 13.5833 4.25C13.5 4.25 13.3333 4.16667 13.25 4.16667C13.1667 4.16667 13.0833 4.08333 13 4.08333C12.6667 4.08333 12.4167 4.08333 12.0833 4.16667C11.5833 4.25 11.1667 4.33333 10.6667 4.41667C10.4167 4.41667 10.25 4.5 10.0833 4.66667C10.0833 4.66667 10.0833 4.75 10.1667 4.75C10.1667 4.75 10.1667 4.83333 10.0833 4.83333C10.25 4.83333 10.25 4.91667 10.3333 5.08333C10.3333 5.16667 10.4167 5.33333 10.5 5.33333C10.5833 5.33333 10.5833 5.41667 10.5 5.5C10.1667 5.5 10.0833 5.5 10.0833 5.58333ZM4.58333 12.5C4.5 12.5 4.41667 12.4167 4.33333 12.4167C4.25 12.4167 4.25 12.3333 4.16667 12.3333C4.16667 12.5 4.33333 12.5833 4.58333 12.5ZM13.0833 7.25C13.25 7.25 13.5 7.08333 13.5 6.83333C13.25 6.83333 13.0833 7 13.0833 7.25ZM12 12.1667C12.1667 12.25 12.25 12.3333 12.25 12.5C12.3333 12.6667 12.3333 12.6667 12.3333 12.6667C12.4167 12.75 12.5 12.75 12.6667 12.6667C13 12.1667 13.5 11.5 14.25 10.9167C15.0833 10.25 15.8333 9.91667 16.4167 9.75C16.5 9.75 16.5 9.66667 16.5 9.66667C16.5 9.58333 16.3333 9.58333 16.25 9.58333C16.0833 9.58333 16 9.58333 16 9.75C16 9.91667 15.9167 9.91667 15.8333 9.91667C15.75 9.91667 15.75 9.91667 15.6667 9.83333L15.5833 9.75C15.5833 9.58333 15.5 9.5 15.3333 9.5H15.25C15 9.41667 15 9.41667 15 9.16667C15 9.08333 15 9 14.9167 9C14.6667 9 14.5 9 14.25 9C14.0833 9 14 9.08333 13.9167 9.16667C13.8333 9.16667 13.75 9.25 13.6667 9.25C13.5833 9.25 13.5 9.25 13.4167 9.16667C13.3333 9.16667 13.3333 9.16667 13.25 9.16667C13.1667 9.25 13.0833 9.33333 13 9.41667C12.9167 9.5 12.8333 9.58333 12.8333 9.66667C12.8333 9.83333 12.75 9.91667 12.5833 10C12.5 10 12.4167 10.0833 12.3333 10.1667C12.1667 10.3333 12.0833 10.5 11.9167 10.75C11.8333 10.8333 11.8333 11 11.9167 11.0833C11.9167 11.1667 11.9167 11.1667 12 11.25C12 11.3333 12 11.4167 12 11.5L11.9167 11.5833C11.9167 11.6667 11.9167 11.75 11.9167 11.75C12 11.9167 12 12 11.9167 12C11.9167 12.0833 11.9167 12.0833 12 12.1667ZM9.16667 4.41667C9.08333 4.41667 9 4.41667 8.83333 4.41667C9 4.5 9.08333 4.5 9.16667 4.41667C9.16667 4.5 9.16667 4.41667 9.16667 4.41667ZM8.83333 4.66667C9 4.66667 9.08333 4.58333 9.25 4.5C9.08333 4.58333 8.91667 4.58333 8.83333 4.66667ZM7 5.5C7.16667 5.41667 7.25 5.41667 7.41667 5.33333C7.25 5.25 7.08333 5.33333 7 5.5ZM5.58333 11.25C5.58333 11.4167 5.41667 11.3333 5.41667 11.4167C5.66667 11.5 5.83333 11.4167 6.08333 11.3333C5.91667 11.25 5.75 11.25 5.58333 11.25ZM8.16667 7.91667C8.25 7.91667 8.33333 8 8.41667 8C8.5 8 8.58333 7.91667 8.66667 7.91667C8.66667 7.91667 8.75 7.91667 8.75 7.83333V7.75C8.75 7.75 8.66667 7.75 8.66667 7.66667C8.58333 7.66667 8.5 7.58333 8.58333 7.5C8.41667 7.58333 8.25 7.75 8.16667 7.91667ZM4.41667 11C4.66667 11.0833 4.83333 11.0833 5.08333 11.1667C4.91667 11 4.66667 10.9167 4.41667 11ZM6.83333 6.33333C7 6.33333 7.08333 6.33333 7.25 6.33333C7.25 6.16667 7.16667 6.16667 7.08333 6.16667C7 6.08333 6.83333 6.16667 6.83333 6.33333ZM7.58333 6.16667C7.66667 6.16667 7.75 6.16667 7.83333 6.08333C7.66667 6.08333 7.66667 6.08333 7.58333 6.16667ZM9 5.83333C9 5.75 9 5.75 8.91667 5.66667C8.83333 5.66667 8.75 5.58333 8.75 5.5C8.66667 5.5 8.58333 5.41667 8.5 5.33333C8.5 5.33333 8.41667 5.25 8.33333 5.33333C8.33333 5.33333 8.25 5.33333 8.16667 5.33333C8.08333 5.25 8 5.25 7.83333 5.33333C7.83333 5.33333 7.75 5.33333 7.66667 5.41667L7.75 5.33333C7.58333 5.25 7.41667 5.33333 7.33333 5.5C7.33333 5.58333 7.25 5.58333 7.33333 5.58333C7.5 5.58333 7.75 5.66667 7.91667 5.58333C8.08333 5.5 8.16667 5.58333 8.25 5.75C8.25 5.83333 8.33333 5.91667 8.33333 6C8.25 6 8.16667 6 8.08333 6C8 6 7.91667 6.08333 7.83333 6.16667C8 6.16667 8 6.25 8.08333 6.25C8.16667 6.33333 8.33333 6.33333 8.41667 6.25L8.33333 6.16667H8.41667C8.5 6.25 8.58333 6.16667 8.58333 6.08333C8.58333 6 8.58333 6 8.58333 5.91667C8.66667 5.91667 8.75 5.91667 8.83333 5.91667C8.91667 5.91667 8.91667 5.91667 9 5.83333ZM7.41667 5.83333C7.33333 5.83333 7.16667 5.91667 7.08333 6C7.16667 5.91667 7.33333 5.91667 7.41667 5.83333ZM14.4167 15.8333C14.4167 18.9167 17.5 21.6667 17.5833 21.75C17.75 21.9167 17.9167 21.9167 18.1667 21.9167C18.4167 21.9167 18.5833 21.8333 18.75 21.75C18.9167 21.6667 21.9167 18.9167 21.9167 15.8333C21.9167 13.5833 20.3333 12 18.1667 12C16 12 14.4167 13.5833 14.4167 15.8333ZM16.0833 15.8333C16.0833 14.5 16.9167 13.6667 18.1667 13.6667C19.4167 13.6667 20.25 14.5 20.25 15.8333C20.25 17.5 18.9167 19.1667 18.1667 20C17.3333 19.0833 16.0833 17.4167 16.0833 15.8333ZM21.5 9.16667C21.5 9.58333 21.0833 10 20.6667 10C20.5 10 20.5 10 20.1667 9.83333C19.8333 9.75 19.25 9.5 18.6667 9.5C18.5 9.5 18.25 9.5 18 9.5C17.8333 9.41667 17.8333 9.25 17.8333 9.25V9.16667C17.8333 9.16667 17.75 9.16667 17.6667 9.16667C17.5833 9.16667 17.5 9.25 17.4167 9.16667C17.3333 9.08333 17.25 9.08333 17.0833 9.16667C16.9167 9.25 16.8333 9.16667 16.8333 9C16.8333 8.91667 16.75 8.83333 16.75 8.75C16.9167 8.66667 17.1667 8.58333 17.3333 8.5H17.4167C17.5833 8.5 17.75 8.58333 17.8333 8.58333C17.9167 8.58333 18 8.58333 18.0833 8.58333C18.1667 8.58333 18.25 8.41667 18.1667 8.33333C18.1667 8.33333 18.0833 8.25 18 8.25C17.9167 8.25 17.8333 8.16667 17.75 8.16667C17.6667 8.16667 17.6667 8.08333 17.6667 8C17.8333 7.91667 17.8333 7.83333 17.8333 7.75C17.75 7.83333 17.5833 7.83333 17.5 7.91667C17.5833 8 17.5833 8 17.6667 8C17.5833 8 17.5 8.08333 17.5 8.08333C17.4167 8.08333 17.4167 8.08333 17.3333 8C17.3333 7.83333 17.1667 7.83333 17.0833 7.91667C17 8 16.9167 8.08333 16.9167 8.16667C16.8333 8.25 16.8333 8.41667 16.9167 8.5C16.75 8.58333 16.5 8.5 16.3333 8.66667C16.3333 8.75 16.4167 8.83333 16.4167 8.91667C16.4167 9 16.4167 9.08333 16.3333 9.08333C16.25 9.08333 16.25 9 16.1667 9C16.1667 9 16.1667 8.91667 16.1667 8.83333H16.0833C16 8.83333 15.9167 8.75 15.9167 8.66667C15.9167 8.5 15.8333 8.33333 15.5833 8.33333C15.5 8.25 15.3333 8.25 15.25 8.08333C15.25 8 15.1667 8.08333 15.1667 8.08333C15.25 8.08333 15.25 8.16667 15.3333 8.16667C15.4167 8.25 15.5833 8.41667 15.6667 8.5C15.75 8.58333 15.6667 8.66667 15.5833 8.75C15.5 8.83333 15.25 8.75 15.25 8.66667C15.1667 8.58333 15.25 8.5 15.3333 8.41667C15.25 8.33333 15.0833 8.25 15 8.16667H14.9167C14.75 8.25 14.5833 8.25 14.4167 8.25L14.3333 8.33333C14.3333 8.41667 14.3333 8.41667 14.25 8.5C14.1667 8.5 14.0833 8.58333 14.0833 8.58333C13.9167 8.66667 13.9167 8.66667 13.9167 8.75C13.9167 8.83333 13.9167 8.83333 13.9167 8.91667C13.8333 9 13.75 9 13.6667 9.08333C13.5 9.08333 13.3333 9.08333 13.1667 9.08333C12.9167 9.08333 12.9167 9 13 8.75C13 8.58333 13.0833 8.5 13.0833 8.33333C13.0833 8.33333 13.0833 8.25 13.1667 8.25C13.25 8.25 13.25 8.25 13.3333 8.25C13.4167 8.25 13.5833 8.33333 13.6667 8.33333C13.8333 8.33333 13.9167 8.25 13.9167 8.08333C13.9167 7.91667 13.8333 7.75 13.5833 7.66667C13.6667 7.66667 13.75 7.58333 13.8333 7.58333C14 7.58333 14.1667 7.5 14.25 7.41667C14.3333 7.33333 14.4167 7.25 14.5 7.16667C14.5833 7.08333 14.6667 7 14.8333 7C14.9167 7 14.9167 7 14.9167 6.91667C14.9167 6.83333 14.9167 6.83333 14.8333 6.75C14.8333 6.66667 14.8333 6.58333 15 6.58333C15.0833 6.58333 15.1667 6.66667 15.0833 6.75V6.83333C15.0833 6.83333 15.0833 6.91667 15.1667 6.91667C15.25 6.91667 15.4167 6.91667 15.5 7H15.5833C15.6667 7 15.75 6.91667 15.9167 6.91667C16.0833 6.91667 16.1667 6.83333 16.1667 6.66667C16.1667 6.58333 16.1667 6.58333 16.25 6.58333H16.3333H16.4167V6.5C16.4167 6.5 16.4167 6.41667 16.3333 6.41667C16.4167 6.41667 16.5 6.41667 16.5833 6.33333C16.6667 6.33333 16.75 6.25 16.8333 6.25H16.75C16.5833 6.25 16.5 6.25 16.3333 6.25C16.25 6.25 16.1667 6.25 16.0833 6.16667C16 6.08333 16.0833 6 16.1667 5.91667C16.1667 5.83333 16.1667 5.75 16.1667 5.66667V5.58333H16.0833C16 5.58333 16 5.66667 16 5.66667C15.9167 5.75 15.8333 5.83333 15.75 5.83333C15.6667 5.83333 15.6667 5.91667 15.6667 6L15.75 6.08333C15.8333 6.16667 15.8333 6.25 15.75 6.25C15.6667 6.25 15.6667 6.33333 15.5833 6.41667C15.5833 6.5 15.5 6.5 15.5 6.58333C15.5 6.66667 15.4167 6.66667 15.3333 6.66667C15.25 6.66667 15.25 6.58333 15.1667 6.5C15.0833 6.25 15.0833 6.25 14.9167 6.41667C14.8333 6.41667 14.75 6.5 14.6667 6.41667C14.5 6.25 14.5833 6.08333 14.75 6C15 5.83333 15.25 5.66667 15.5 5.41667C15.8333 5.08333 16.25 5 16.6667 5.08333H16.75C16.6667 5 16.5833 5 16.5833 4.91667C16.3333 4.75 16.0833 4.66667 15.8333 4.5C15.75 4.5 15.75 4.5 15.6667 4.5C15.5 4.66667 15.3333 4.66667 15.25 4.5C15.25 4.41667 15.1667 4.41667 15.1667 4.41667C15.1667 4.41667 15.0833 4.41667 15.0833 4.33333C15.0833 4.25 15 4.25 15 4.25C14.3333 4 13.6667 3.83333 13 3.75C11.75 3.58333 10.5833 3.75 9.41667 4.08333C9.08333 4.16667 8.75 4.33333 8.5 4.41667C8.41667 4.5 8.33333 4.5 8.25 4.58333V4.66667C8.16667 4.66667 8.08333 4.75 8 4.75C7.91667 4.75 7.91667 4.75 7.83333 4.75C7.5 5 7.16667 5.16667 6.83333 5.5C6.83333 5.5 6.75 5.5 6.75 5.58333C6.75 5.58333 6.66667 5.66667 6.58333 5.66667C6.5 5.75 6.33333 5.91667 6.25 6C6.41667 6 6.58333 6 6.66667 5.83333C6.75 5.83333 6.75 5.75 6.66667 5.75C6.66667 5.75 6.66667 5.75 6.66667 5.66667C6.91667 5.58333 6.91667 5.58333 7 5.58333C7 5.66667 6.91667 5.75 7 5.75C7 5.75 7.08333 5.75 7.16667 5.83333C7.08333 5.83333 7 5.91667 7 6C7 6.08333 6.91667 6.08333 6.83333 6.16667C6.83333 6.16667 6.75 6.16667 6.66667 6.16667C6.75 6.25 6.75 6.33333 6.66667 6.33333C6.58333 6.33333 6.5 6.33333 6.41667 6.41667C6.41667 6.41667 6.33333 6.41667 6.33333 6.5C6.33333 6.58333 6.25 6.58333 6.16667 6.66667C6.08333 6.58333 5.91667 6.66667 5.83333 6.75C5.75 6.75 5.66667 6.83333 5.66667 6.91667C5.58333 7 5.58333 7.08333 5.66667 7.16667C5.75 7.16667 5.75 7.25 5.83333 7.25C6 7.25 6.16667 7.33333 6.25 7.33333C6.25 7.41667 6.25 7.5 6.25 7.58333C6.25 7.58333 6.25 7.66667 6.33333 7.66667C6.33333 7.66667 6.41667 7.66667 6.5 7.66667C6.5 7.66667 6.58333 7.58333 6.58333 7.5C6.66667 7.33333 6.75 7.25 6.83333 7.25C6.91667 7.25 7 7.16667 7.08333 7.08333C7.08333 7.08333 7.16667 7 7.16667 6.91667C7.16667 6.83333 7.16667 6.75 7.25 6.75C7.33333 6.66667 7.33333 6.58333 7.41667 6.58333C7.41667 6.33333 7.58333 6.33333 7.83333 6.41667C8 6.5 8 6.58333 7.91667 6.66667C7.91667 6.75 7.91667 6.75 8 6.75C8.08333 6.75 8.16667 6.75 8.16667 6.66667C8.25 6.58333 8.33333 6.58333 8.41667 6.5C8.41667 6.75 8.5 7 8.5 7.16667C8.5 7.16667 8.58333 7.16667 8.66667 7.16667C8.66667 7.16667 8.75 7.16667 8.75 7.25V7.33333C8.75 7.33333 8.75 7.33333 8.66667 7.41667C8.41667 7.5 8.16667 7.66667 7.91667 7.66667C7.75 7.66667 7.5 7.75 7.33333 7.83333C7.25 7.83333 7.16667 7.91667 7.08333 7.91667C7.08333 7.91667 7.08333 7.91667 7.08333 8C7.16667 8 7.25 7.91667 7.33333 7.91667C7.41667 7.83333 7.5 7.83333 7.58333 7.83333C7.58333 7.91667 7.5 8 7.5 8.08333C7.58333 8.25 7.75 8.16667 7.83333 8.16667C7.66667 8.33333 7.41667 8.41667 7.25 8.41667C7.33333 8.33333 7.41667 8.33333 7.5 8.25C7.25 8.25 7 8.33333 6.83333 8.5L6.75 8.58333C6.75 8.66667 6.66667 8.75 6.58333 8.75C6.25 8.83333 6.08333 9 5.91667 9.16667C5.91667 9.16667 5.83333 9.16667 5.83333 9.08333C5.83333 9.16667 5.83333 9.25 5.83333 9.25C5.83333 9.33333 5.75 9.5 5.66667 9.5C5.5 9.66667 5.41667 9.66667 5.33333 9.75C5.25 9.83333 5.08333 9.83333 5 9.91667C4.91667 10 4.91667 10.1667 4.83333 10.1667C4.75 10.25 4.66667 10.25 4.58333 10.1667C4.5 10.1667 4.41667 10.0833 4.41667 10.0833C4.33333 10.0833 4.25 10.0833 4.16667 10.1667C4.08333 10.25 4 10.25 3.83333 10.25C3.75 10.5833 3.75 10.8333 3.66667 11.1667C3.75 11.0833 3.83333 11.0833 4 11.1667C3.91667 11.3333 3.83333 11.5 3.75 11.75C3.83333 11.75 3.91667 11.75 4 11.75C4.08333 11.75 4.16667 11.75 4.16667 11.75C4.33333 11.75 4.33333 11.8333 4.33333 11.9167C4.33333 12 4.25 12.0833 4.25 12.1667C4.25 12.25 4.25 12.25 4.25 12.3333L4.16667 12.4167L4.08333 12.3333C4 12.25 4 12.1667 4 12.0833C3.83333 12 3.75 12 3.66667 12C3.66667 14.25 4.58333 16.3333 6.08333 17.8333C6.25 18 6.5 18.1667 6.66667 18.3333C6.66667 18.3333 6.66667 18.25 6.58333 18.25C6.33333 18 6.33333 17.75 6.25 17.4167C6.25 17 6.16667 16.5 6.08333 16.0833C6 15.75 5.83333 15.5 5.5 15.3333C5.33333 15.25 5.25 15.25 5.25 15.0833C5.25 15 5.16667 15 5.16667 14.9167C5 14.6667 4.75 14.3333 4.58333 14.0833C4.5 14 4.5 13.9167 4.58333 13.8333C4.58333 13.8333 4.58333 13.8333 4.66667 13.75C4.58333 13.5833 4.58333 13.5833 4.66667 13.4167C4.66667 13.3333 4.75 13.3333 4.75 13.25C4.83333 13.1667 4.83333 13.0833 4.91667 13C5 12.8333 5 12.75 4.91667 12.5833V12.5C4.83333 12.5 4.75 12.4167 4.66667 12.4167C4.83333 12.4167 4.91667 12.4167 5 12.5C5.08333 12.3333 5.5 12 5.66667 12C5.66667 12.0833 5.66667 12.0833 5.66667 12.1667V12.25C5.83333 12 5.83333 12 6.08333 12.0833C6.33333 12.1667 6.5 12.25 6.75 12.1667H6.83333C6.83333 12.25 6.83333 12.25 6.83333 12.25C6.91667 12.3333 7 12.4167 7.08333 12.5C7.16667 12.6667 7.33333 12.75 7.5 12.75C7.58333 12.75 7.66667 12.75 7.75 12.75C7.91667 12.75 8 12.8333 8 13C8 13.0833 8 13.25 8.08333 13.3333C8.16667 13.3333 8.25 13.3333 8.33333 13.5C8.58333 13.4167 8.75 13.5 8.75 13.6667C8.91667 13.6667 9 13.6667 9.16667 13.6667C9.33333 13.6667 9.41667 13.75 9.5 13.8333C9.58333 13.9167 9.66667 14 9.75 14C9.91667 14.0833 10 14.1667 9.91667 14.3333C9.83333 14.5 9.75 14.75 9.58333 14.9167C9.5 15.1667 9.5 15.25 9.5 15.3333C9.5 15.5 9.5 15.5833 9.5 15.75C9.5 15.9167 9.41667 16.0833 9.33333 16.25C9.25 16.3333 9.25 16.3333 9.08333 16.3333C9 16.3333 9 16.3333 8.91667 16.3333C8.83333 16.4167 8.75 16.4167 8.58333 16.5C8.5 16.5 8.5 16.5833 8.58333 16.6667C8.66667 16.75 8.58333 16.8333 8.58333 16.9167C8.58333 17 8.5 17.0833 8.5 17.0833C8.5 17.1667 8.5 17.25 8.5 17.25C8.41667 17.3333 8.41667 17.4167 8.33333 17.5C8.25 17.6667 8.16667 17.6667 8 17.5833C7.91667 17.5833 7.91667 17.5 7.83333 17.5L7.91667 17.5833C8 17.6667 8 17.6667 8.08333 17.75C8.16667 17.9167 8.08333 18 7.91667 18C7.83333 18 7.83333 18 7.75 18C7.66667 18 7.66667 18 7.66667 18.1667V18.25V18.3333H7.58333C7.58333 18.3333 7.5 18.3333 7.5 18.25C7.5 18.3333 7.58333 18.3333 7.58333 18.4167C7.66667 18.5 7.66667 18.5 7.58333 18.5833C7.58333 18.6667 7.5 18.6667 7.5 18.75V18.8333C7.58333 18.9167 7.66667 19 7.75 19.0833C8.66667 19.6667 9.75 20 10.8333 20.1667C11.5833 20.25 12.25 20.25 13 20.1667C13.5833 20.0833 14 20.5 14.0833 21C14.0833 21.4167 13.75 21.75 13.3333 21.8333C12.8333 21.9167 12.4167 22 12 22C6.5 22 2 17.5 2 12C2 6.5 6.5 2 12 2C16.4167 2 20.0833 4.83333 21.4167 8.75C21.5 8.91667 21.5 9.08333 21.5 9.16667ZM5.5 8.16667C5.5 8.08333 5.41667 8 5.33333 8C5.16667 8 5 8.16667 4.83333 8.25C5 8.25 5.16667 8.25 5.33333 8.25C5.33333 8.25 5.33333 8.25 5.25 8.25C5.16667 8.41667 5 8.5 4.91667 8.66667C4.91667 8.66667 4.91667 8.75 4.91667 8.83333C5 8.83333 5 8.83333 5.08333 8.75L5.16667 8.66667C5.25 8.58333 5.25 8.5 5.33333 8.5C5.41667 8.41667 5.5 8.41667 5.58333 8.5C5.58333 8.5 5.58333 8.58333 5.5 8.58333V8.66667H5.58333C5.58333 8.66667 5.66667 8.66667 5.66667 8.58333C5.75 8.58333 5.75 8.5 5.83333 8.5L5.91667 8.41667H5.83333C5.5 8.33333 5.5 8.33333 5.5 8.16667ZM17.3333 5.75H17.4167C17.3333 5.66667 17.25 5.58333 17.1667 5.5C17.0833 5.41667 17 5.41667 16.8333 5.41667C16.8333 5.41667 16.9167 5.41667 17 5.41667C16.9167 5.41667 16.9167 5.33333 16.8333 5.33333C16.8333 5.41667 16.8333 5.41667 16.8333 5.5C16.8333 5.58333 16.9167 5.66667 17 5.75C17.0833 5.75 17.1667 5.83333 17.3333 5.75C17.3333 5.83333 17.4167 5.83333 17.3333 5.75ZM19.5833 8.83333C19.5833 8.75 19.5 8.75 19.4167 8.66667C19.5 8.66667 19.5 8.66667 19.5833 8.66667C19.5833 8.66667 19.5833 8.58333 19.5 8.58333C19.5 8.58333 19.4167 8.58333 19.4167 8.5C19.3333 8.41667 19.25 8.41667 19.1667 8.33333C19.1667 8.33333 19.0833 8.25 19.1667 8.16667C19.1667 8.16667 19.25 8.08333 19.3333 8.08333C19.3333 8.08333 19.3333 8.08333 19.4167 8.08333C19.4167 8 19.3333 7.91667 19.3333 7.91667C19.25 7.91667 19.25 7.91667 19.0833 7.91667C19 7.91667 19 8 18.9167 8C18.8333 8.08333 18.8333 8.16667 18.9167 8.25C19 8.33333 19.0833 8.5 19.25 8.58333C19.3333 8.66667 19.3333 8.75 19.25 8.83333C19.1667 8.91667 19.1667 9 19.25 9C19.3333 9.08333 19.4167 9.08333 19.5833 9.08333C19.6667 9.08333 19.75 9.08333 19.75 9C19.75 8.91667 19.6667 8.91667 19.5833 8.83333Z" fill="#6B7084"/>
</svg>
