<svg viewBox="0 0 24 24" fill="none" xmlns="http://www.w3.org/2000/svg">
<path d="M13.0843 7.22088C13.1647 7.22088 13.245 7.14056 13.245 7.14056C13.1647 7.14056 13.1647 7.14056 13.0843 7.06024C13.245 6.8996 13.3253 6.81928 13.4056 6.81928H13.4859C13.5663 6.8996 13.6466 6.8996 13.7269 6.97992C13.7269 7.06024 13.6466 7.06024 13.5663 7.14056C13.4859 7.14056 13.3253 7.22088 13.0843 7.22088C13.1647 7.22088 13.1647 7.22088 13.0843 7.22088ZM9.79116 5.45382C9.63052 5.45382 9.5502 5.61446 9.5502 5.7751C9.5502 5.85542 9.5502 5.85542 9.5502 5.93574C9.5502 6.17671 9.63052 6.25703 9.79116 6.25703C9.87149 6.25703 10.0321 6.25703 10.1124 6.17671C10.1928 6.09639 10.1928 6.09639 10.2731 6.01606C10.3534 5.85542 10.5141 5.69478 10.755 5.69478C10.9157 5.69478 11.0763 5.61446 11.2369 5.45382C11.3173 5.37349 11.4779 5.29317 11.6386 5.29317C11.7992 5.29317 11.8795 5.29317 12.0402 5.21285C12.0402 5.21285 12.0402 5.21285 12.1205 5.13253H12.0402C11.9598 5.13253 11.9598 5.13253 11.8795 5.13253C11.8795 5.05221 11.9598 5.05221 11.9598 4.97189C12.0402 4.97189 12.1205 5.13253 12.2811 5.05221C12.2008 4.97189 12.1205 4.97189 12.0402 4.89157C12.1205 4.89157 12.1205 4.89157 12.1205 4.89157C12.2811 4.89157 12.5221 4.81124 12.6024 4.6506C12.6024 4.6506 12.6827 4.57028 12.6827 4.48996C12.6827 4.40964 12.6827 4.40964 12.7631 4.32932C12.8434 4.32932 12.9237 4.249 13.004 4.249C13.0843 4.249 13.1647 4.16867 13.1647 4.16867C13.0843 4.16867 12.9237 4.08835 12.8434 4.08835C12.7631 4.08835 12.6827 4.00803 12.6024 4.00803C12.2811 4.00803 12.0402 4.00803 11.7189 4.08835C11.2369 4.16867 10.8353 4.249 10.3534 4.32932C10.1124 4.32932 9.95181 4.40964 9.79116 4.57028C9.79116 4.57028 9.79116 4.6506 9.87149 4.6506C9.87149 4.6506 9.87149 4.73092 9.79116 4.73092C9.95181 4.73092 9.95181 4.81125 10.0321 4.97189C10.0321 5.05221 10.1124 5.21285 10.1928 5.21285C10.2731 5.21285 10.2731 5.29317 10.1928 5.37349C9.87149 5.37349 9.79116 5.37349 9.79116 5.45382ZM12.6827 7.06024C12.8434 7.06024 13.0843 6.8996 13.0843 6.65863C12.8434 6.65863 12.6827 6.81928 12.6827 7.06024ZM13.4056 6.65863C13.4056 6.57831 13.3253 6.57831 13.3253 6.49799C13.245 6.57831 13.245 6.57831 13.4056 6.65863ZM4.48996 12.1205C4.40964 12.1205 4.32932 12.0402 4.249 12.0402C4.16867 12.0402 4.16867 11.9598 4.08835 11.9598C4.08835 12.1205 4.249 12.2008 4.48996 12.1205ZM8.90763 4.32932C8.82731 4.32932 8.74699 4.32932 8.58635 4.32932C8.74699 4.40964 8.82731 4.40964 8.90763 4.32932C8.90763 4.40964 8.90763 4.32932 8.90763 4.32932ZM8.58635 4.57028C8.74699 4.57028 8.82731 4.48996 8.98795 4.40964C8.82731 4.48996 8.66667 4.48996 8.58635 4.57028ZM6.81928 5.37349C6.97992 5.29317 7.06024 5.29317 7.22088 5.21285C7.06024 5.13253 6.8996 5.21285 6.81928 5.37349ZM5.45382 10.9157C5.45382 11.0763 5.29317 10.996 5.29317 11.0763C5.53414 11.1566 5.69478 11.0763 5.93574 10.996C5.7751 10.9157 5.61446 10.9157 5.45382 10.9157ZM4.32932 10.6747C4.57028 10.755 4.73092 10.755 4.97189 10.8353C4.81124 10.6747 4.57028 10.5944 4.32932 10.6747ZM7.38153 6.01606C7.46185 6.01606 7.54217 6.01606 7.62249 5.93574C7.46185 5.93574 7.46185 5.93574 7.38153 6.01606ZM7.94378 7.70281C8.0241 7.70281 8.10442 7.78313 8.18474 7.78313C8.26506 7.78313 8.34538 7.70281 8.4257 7.70281C8.4257 7.70281 8.50602 7.70281 8.50602 7.62249V7.54217C8.50602 7.54217 8.4257 7.54217 8.4257 7.46185C8.34538 7.46185 8.26506 7.38153 8.34538 7.30121C8.18474 7.38153 8.0241 7.54217 7.94378 7.70281ZM6.65863 6.17671C6.81928 6.17671 6.8996 6.17671 7.06024 6.17671C7.06024 6.01606 6.97992 6.01606 6.8996 6.01606C6.81928 5.93574 6.65863 6.09639 6.65863 6.17671ZM8.74699 5.69478C8.74699 5.61446 8.74699 5.61446 8.66667 5.53414C8.58635 5.53414 8.50602 5.45382 8.50602 5.37349C8.4257 5.37349 8.34538 5.29317 8.26506 5.21285C8.26506 5.21285 8.18474 5.13253 8.10442 5.21285C8.10442 5.21285 8.0241 5.21285 7.94378 5.21285C7.86345 5.13253 7.78313 5.13253 7.62249 5.21285C7.62249 5.21285 7.54217 5.21285 7.46185 5.29317L7.54217 5.21285C7.38153 5.13253 7.22088 5.21285 7.14056 5.37349C7.14056 5.45382 7.06024 5.45382 7.14056 5.45382C7.3012 5.45382 7.54217 5.53414 7.70281 5.45382C7.86345 5.37349 7.94377 5.45382 8.0241 5.61446C8.0241 5.69478 8.10442 5.7751 8.10442 5.85542C8.0241 5.85542 7.94378 5.85542 7.86345 5.85542C7.78313 5.85542 7.70281 5.93574 7.62249 6.01606C7.78313 6.01606 7.78313 6.09639 7.86345 6.09639C7.94378 6.17671 8.10442 6.17671 8.18474 6.09639L8.10442 6.01606H8.18474C8.26506 6.09639 8.34538 6.01606 8.34538 5.93574C8.34538 5.85542 8.34538 5.85542 8.34538 5.7751C8.4257 5.7751 8.50602 5.7751 8.58635 5.7751C8.66667 5.7751 8.66667 5.7751 8.74699 5.69478ZM7.22088 5.69478C7.14056 5.69478 6.97992 5.7751 6.8996 5.85542C6.97992 5.7751 7.14056 5.7751 7.22088 5.69478ZM21.9197 17.1807C21.9197 14.5301 19.751 12.3614 17.1004 12.3614C14.4498 12.3614 12.2811 14.5301 12.2811 17.1807C12.2811 19.8313 14.4498 22 17.1004 22C19.751 22 21.9197 19.8313 21.9197 17.1807ZM20.3133 17.1807C20.3133 18.9478 18.8675 20.3936 17.1004 20.3936C15.3333 20.3936 13.8876 18.9478 13.8876 17.1807C13.8876 15.4137 15.3333 13.9679 17.1004 13.9679C18.8675 13.9679 20.3133 15.4137 20.3133 17.1807ZM16.2972 17.9839H19.51V16.3775H17.9036V14.7711H16.2972V16.3775V17.1807V17.9839ZM21.1968 11.2369C21.0361 11.3976 20.7149 11.2369 20.6345 11.2369C20.6345 11.2369 19.3494 10.6747 18.7871 10.4337C18.4659 10.2731 17.9839 10.1125 17.261 10.1125C17.1807 10.0321 17.1004 9.87149 17.1004 9.79116C17.1004 9.79116 17.1004 9.87149 17.0201 9.95181C16.9398 9.87149 16.9398 9.79116 16.8594 9.79116C16.9398 9.95181 16.9398 10.0321 17.0201 10.1928C16.9398 10.1928 16.7791 10.1928 16.6185 10.1928C16.5382 10.1928 15.6546 10.2731 15.0924 10.4337C14.3695 10.6747 13.245 11.2369 12.0402 12.2811H11.9598C11.9598 12.2811 11.8795 12.2811 11.8795 12.2008C11.7992 12.1205 11.7992 12.0402 11.7189 11.9598L11.6386 11.8795C11.5582 11.8795 11.5582 11.7992 11.5582 11.7992C11.6386 11.7189 11.6386 11.7189 11.6386 11.6386C11.5582 11.5582 11.5582 11.5582 11.6386 11.4779L11.7189 11.3976C11.7992 11.3173 11.7992 11.2369 11.7189 11.1566C11.7189 11.0763 11.7189 11.0763 11.6386 10.996C11.5582 10.8353 11.6386 10.755 11.6386 10.6747C11.7992 10.5141 11.8795 10.3534 12.0402 10.1125C12.1205 10.0321 12.2008 9.95181 12.2811 9.95181C12.3614 9.71084 12.4418 9.5502 12.4418 9.38956C12.4418 9.30924 12.4418 9.22892 12.5221 9.14859C12.6024 9.06827 12.6827 8.98795 12.7631 8.90763C12.8434 8.82731 12.8434 8.82731 12.9237 8.90763C13.004 8.90763 13.0843 8.98795 13.1647 8.98795C13.245 8.98795 13.3253 8.90763 13.4056 8.90763C13.4859 8.82731 13.6466 8.82731 13.7269 8.74699C13.9679 8.74699 14.1285 8.74699 14.3695 8.74699C14.5301 8.74699 14.5301 8.74699 14.4498 8.90763C14.3695 9.14859 14.4498 9.14859 14.6908 9.22892C14.8514 9.22892 14.8514 9.22892 14.8514 9.22892C14.9317 9.22892 15.012 9.30924 15.0924 9.38956L15.1727 9.46988C15.253 9.46988 15.253 9.46988 15.3333 9.5502C15.494 9.5502 15.494 9.5502 15.494 9.38956C15.5743 9.30924 15.6546 9.22892 15.7349 9.22892C15.8153 9.22892 15.8956 9.30924 15.9759 9.30924C16.0562 9.30924 16.1365 9.38956 16.2169 9.38956C16.4578 9.38956 16.6988 9.38956 16.9398 9.38956C17.0201 9.38956 17.1004 9.30924 17.1004 9.22892C17.1004 9.06827 17.1807 8.98795 17.1807 8.82731C17.1807 8.66667 17.1807 8.66667 17.0201 8.74699C16.9398 8.74699 16.8594 8.82731 16.7791 8.74699C16.6988 8.66667 16.6185 8.66667 16.4578 8.74699C16.2972 8.82731 16.2169 8.74699 16.2169 8.58635C16.2169 8.50602 16.1365 8.4257 16.1365 8.34538C16.2972 8.26506 16.5382 8.18474 16.6988 8.10442H16.7791C16.9398 8.10442 17.1004 8.18474 17.1807 8.18474C17.261 8.18474 17.3414 8.18474 17.4217 8.18474C17.502 8.18474 17.5823 8.0241 17.502 7.94378C17.502 7.94378 17.4217 7.86345 17.3414 7.86345C17.261 7.86345 17.1807 7.78313 17.1004 7.78313C17.0201 7.78313 17.0201 7.70281 17.0201 7.62249C17.261 7.70281 17.261 7.62249 17.261 7.54217C17.1807 7.62249 17.0201 7.62249 16.9398 7.70281C17.0201 7.78313 17.0201 7.78313 17.1004 7.78313C17.0201 7.78313 16.9398 7.86345 16.9398 7.86345C16.8594 7.86345 16.8594 7.86345 16.7791 7.78313C16.7791 7.62249 16.6185 7.62249 16.5382 7.70281C16.4578 7.78313 16.3775 7.86345 16.3775 7.94378C16.2972 8.0241 16.2972 8.18474 16.3775 8.26506C16.2169 8.34538 15.9759 8.26506 15.8153 8.4257C15.8153 8.50602 15.8956 8.58635 15.8956 8.66667C15.8956 8.74699 15.8956 8.82731 15.8153 8.82731C15.7349 8.82731 15.7349 8.74699 15.6546 8.74699C15.6546 8.74699 15.6546 8.66667 15.6546 8.58635H15.5743C15.494 8.58635 15.4137 8.50602 15.4137 8.4257C15.4137 8.26506 15.3333 8.10442 15.0924 8.10442C15.012 8.0241 14.8514 8.0241 14.7711 7.86345C14.7711 7.78313 14.6908 7.86345 14.6908 7.86345C14.7711 7.86345 14.7711 7.94378 14.8514 7.94378C14.9317 8.0241 15.0924 8.18474 15.1727 8.26506C15.253 8.34538 15.1727 8.4257 15.0924 8.50602C15.012 8.58635 14.7711 8.50602 14.7711 8.4257C14.6908 8.34538 14.7711 8.26506 14.8514 8.18474C14.7711 8.10442 14.6104 8.0241 14.5301 7.94378H14.4498C14.2892 8.0241 14.1285 8.0241 13.9679 8.0241L13.8876 8.10442C13.8876 8.18474 13.8875 8.18474 13.8072 8.26506C13.7269 8.26506 13.6466 8.34538 13.6466 8.34538C13.4859 8.4257 13.4859 8.4257 13.4859 8.50602C13.4859 8.58635 13.4859 8.58635 13.4859 8.66667C13.4056 8.74699 13.3253 8.74699 13.245 8.82731C13.0843 8.82731 12.9237 8.82731 12.7631 8.82731C12.5221 8.82731 12.5221 8.74699 12.6024 8.50602C12.6024 8.34538 12.6827 8.26506 12.6827 8.10442C12.6827 8.10442 12.6827 8.0241 12.7631 8.0241C12.8434 8.0241 12.8434 8.0241 12.9237 8.0241C13.004 8.0241 13.1647 8.10442 13.245 8.10442C13.4056 8.10442 13.4859 8.0241 13.4859 7.86345C13.4859 7.70281 13.4056 7.54217 13.1647 7.46185C13.245 7.46185 13.3253 7.38153 13.4056 7.38153C13.5663 7.38153 13.7269 7.30121 13.8072 7.22088C13.8875 7.14056 13.9679 7.06024 14.0482 6.97992C14.1285 6.8996 14.2088 6.81928 14.3695 6.81928C14.4498 6.81928 14.4498 6.81928 14.4498 6.73896C14.4498 6.65863 14.4498 6.65863 14.3695 6.57831C14.3695 6.49799 14.3695 6.41767 14.5301 6.41767C14.6104 6.41767 14.6908 6.49799 14.6104 6.57831V6.65863C14.6104 6.65863 14.6104 6.73896 14.6908 6.73896C14.7711 6.73896 14.9317 6.73896 15.012 6.81928H15.0924C15.1727 6.81928 15.253 6.73896 15.4137 6.73896C15.5743 6.73896 15.6546 6.65863 15.6546 6.49799C15.6546 6.41767 15.6546 6.41767 15.7349 6.41767H15.8153H15.8956V6.33735C15.8956 6.33735 15.8956 6.25703 15.8153 6.25703C15.8956 6.25703 15.9759 6.25703 16.0562 6.17671C16.1365 6.17671 16.2169 6.09639 16.2972 6.09639H16.2169C16.0562 6.09639 15.9759 6.09639 15.8153 6.09639C15.7349 6.09639 15.6546 6.09639 15.5743 6.01606C15.494 5.93574 15.5743 5.85542 15.6546 5.7751C15.6546 5.69478 15.6546 5.61446 15.6546 5.53414V5.45382H15.5743C15.494 5.45382 15.494 5.53414 15.494 5.53414C15.4137 5.61446 15.3333 5.69478 15.253 5.69478C15.1727 5.69478 15.1727 5.7751 15.1727 5.85542L15.253 5.93574C15.3333 6.01606 15.3333 6.09639 15.253 6.09639C15.1727 6.09639 15.1727 6.17671 15.0924 6.25703C15.0924 6.33735 15.012 6.33735 15.012 6.41767C15.012 6.49799 14.9317 6.49799 14.8514 6.49799C14.7711 6.49799 14.7711 6.41767 14.6908 6.33735C14.6104 6.09639 14.6104 6.09639 14.4498 6.25703C14.3695 6.25703 14.2892 6.33735 14.2088 6.25703C14.0482 6.09639 14.1285 5.93574 14.2892 5.85542C14.5301 5.69478 14.7711 5.53414 15.012 5.29317C15.3333 4.97189 15.7349 4.89157 16.1365 4.97189H16.2169C16.1365 4.89157 16.0562 4.89157 16.0562 4.81124C15.8153 4.6506 15.5743 4.57028 15.3333 4.40964C15.253 4.40964 15.253 4.40964 15.1727 4.40964C15.012 4.57028 14.8514 4.57028 14.7711 4.40964C14.7711 4.32932 14.6908 4.32932 14.6908 4.32932C14.6908 4.32932 14.6104 4.32932 14.6104 4.249C14.6104 4.16867 14.5301 4.16867 14.5301 4.16867C13.8876 3.92771 13.245 3.76707 12.6024 3.68675C11.3976 3.5261 10.2731 3.68675 9.14859 4.00803C8.82731 4.08835 8.50602 4.249 8.26506 4.32932C8.18474 4.40964 8.10442 4.40964 8.0241 4.48996V4.57028C7.94377 4.57028 7.86345 4.6506 7.78313 4.6506C7.70281 4.6506 7.70281 4.6506 7.62249 4.6506C7.3012 4.89157 6.97992 5.05221 6.65863 5.37349C6.65863 5.37349 6.57831 5.37349 6.57831 5.45382C6.57831 5.45382 6.49799 5.53414 6.41767 5.53414C6.33735 5.61446 6.17671 5.7751 6.09639 5.85542C6.25703 5.85542 6.41767 5.85542 6.49799 5.69478C6.57831 5.69478 6.57831 5.61446 6.49799 5.61446C6.49799 5.61446 6.49799 5.61446 6.49799 5.53414C6.73896 5.45382 6.73896 5.45382 6.81928 5.45382C6.81928 5.53414 6.73896 5.61446 6.81928 5.61446C6.81928 5.61446 6.8996 5.61446 6.97992 5.69478C6.8996 5.69478 6.81928 5.7751 6.81928 5.85542C6.81928 5.93574 6.73896 5.93574 6.65863 6.01606C6.65863 6.01606 6.57831 6.01606 6.49799 6.01606C6.57831 6.09639 6.57831 6.17671 6.49799 6.17671C6.41767 6.17671 6.33735 6.17671 6.25703 6.25703C6.25703 6.25703 6.17671 6.25703 6.17671 6.33735C6.17671 6.41767 6.09639 6.41767 6.01606 6.49799C5.93574 6.41767 5.7751 6.49799 5.69478 6.57831C5.61446 6.57831 5.53414 6.65863 5.53414 6.73896C5.45382 6.81928 5.45382 6.8996 5.53414 6.97992C5.61446 6.97992 5.61446 7.06024 5.69478 7.06024C5.85542 7.06024 6.01606 7.14056 6.09639 7.14056C6.09639 7.22088 6.09639 7.3012 6.09639 7.38153C6.09639 7.38153 6.09639 7.46185 6.17671 7.46185C6.17671 7.46185 6.25703 7.46185 6.33735 7.46185C6.33735 7.46185 6.41767 7.38153 6.41767 7.30121C6.49799 7.14056 6.57831 7.06024 6.65863 7.06024C6.73896 7.06024 6.81928 6.97992 6.8996 6.8996C6.8996 6.8996 6.97992 6.81928 6.97992 6.73896C6.97992 6.65863 6.97992 6.57831 7.06024 6.57831C7.14056 6.49799 7.14056 6.41767 7.22088 6.41767C7.22088 6.17671 7.38153 6.17671 7.62249 6.25703C7.78313 6.33735 7.78313 6.41767 7.70281 6.49799C7.70281 6.57831 7.70281 6.57831 7.78313 6.57831C7.86345 6.57831 7.94378 6.57831 7.94378 6.49799C8.0241 6.41767 8.10442 6.41767 8.18474 6.33735C8.18474 6.57831 8.26506 6.81928 8.26506 6.97992C8.26506 6.97992 8.34538 6.97992 8.4257 6.97992C8.4257 6.97992 8.50602 6.97992 8.50602 7.06024V7.14056C8.50602 7.14056 8.50602 7.14056 8.4257 7.22088C8.18474 7.30121 7.94377 7.46185 7.70281 7.46185C7.54217 7.46185 7.3012 7.54217 7.14056 7.62249C7.06024 7.62249 6.97992 7.70281 6.8996 7.70281C6.8996 7.70281 6.8996 7.70281 6.8996 7.78313C6.97992 7.78313 7.06024 7.70281 7.14056 7.70281C7.22088 7.62249 7.3012 7.62249 7.38153 7.62249C7.38153 7.70281 7.3012 7.78313 7.3012 7.86345C7.38153 8.0241 7.54217 7.94378 7.62249 7.94378C7.46185 8.10442 7.22088 8.18474 7.06024 8.18474C7.14056 8.10442 7.22088 8.10442 7.3012 8.0241C7.06024 8.0241 6.81928 8.10442 6.65863 8.26506L6.57831 8.34538C6.57831 8.4257 6.49799 8.50602 6.41767 8.50602C6.09639 8.58635 5.93574 8.74699 5.7751 8.90763C5.7751 8.90763 5.69478 8.90763 5.69478 8.82731C5.69478 8.90763 5.69478 8.98795 5.69478 8.98795C5.69478 9.06827 5.61446 9.22892 5.53414 9.22892C5.37349 9.38956 5.29317 9.38956 5.21285 9.46988C5.13253 9.5502 4.97189 9.5502 4.89157 9.63052C4.81124 9.71084 4.81124 9.87149 4.73092 9.87149C4.6506 9.95181 4.57028 9.95181 4.48996 9.87149C4.40964 9.87149 4.32932 9.79116 4.32932 9.79116C4.249 9.79116 4.16867 9.79116 4.08835 9.87149C4.00803 9.95181 3.92771 9.95181 3.76707 9.95181C3.68675 10.2731 3.68675 10.5141 3.60643 10.8353C3.68675 10.755 3.76707 10.755 3.92771 10.8353C3.84739 10.996 3.76707 11.1566 3.68675 11.3976C3.76707 11.3976 3.84739 11.3976 3.92771 11.3976C4.00803 11.3976 4.08835 11.3976 4.08835 11.3976C4.249 11.3976 4.249 11.4779 4.249 11.5582C4.249 11.6386 4.16867 11.7189 4.16867 11.7992C4.16867 11.8795 4.16867 11.8795 4.16867 11.9598L4.08835 12.0402L4.00803 11.9598C3.92771 11.8795 3.92771 11.7992 3.92771 11.7189C3.76707 11.6386 3.68675 11.6386 3.60643 11.6386C3.60643 13.8072 4.48996 15.8153 5.93574 17.261C6.09639 17.4217 6.33735 17.5823 6.49799 17.743C6.49799 17.743 6.49799 17.6627 6.41767 17.6627C6.17671 17.4217 6.17671 17.1807 6.09639 16.8594C6.09639 16.4578 6.01606 15.9759 5.93574 15.5743C5.85542 15.253 5.69478 15.012 5.37349 14.8514C5.21285 14.7711 5.13253 14.7711 5.13253 14.6104C5.13253 14.5301 5.05221 14.5301 5.05221 14.4498C4.89157 14.2088 4.6506 13.8876 4.48996 13.6466C4.40964 13.5663 4.40964 13.4859 4.48996 13.4056C4.48996 13.4056 4.48996 13.4056 4.57028 13.3253C4.48996 13.1647 4.48996 13.1647 4.57028 13.004C4.57028 12.9237 4.6506 12.9237 4.6506 12.8434C4.73092 12.7631 4.73092 12.6827 4.81124 12.6024C4.89157 12.4418 4.89157 12.3614 4.81124 12.2008V12.1205C4.73092 12.1205 4.6506 12.0402 4.57028 12.0402C4.73092 12.0402 4.81124 12.0402 4.89157 12.1205C4.97189 11.9598 5.37349 11.6386 5.53414 11.6386C5.53414 11.7189 5.53414 11.7189 5.53414 11.7992V11.8795C5.69478 11.6386 5.69478 11.6386 5.93574 11.7189C6.17671 11.7992 6.33735 11.8795 6.57831 11.7992H6.65863C6.65863 11.8795 6.65863 11.8795 6.65863 11.8795C6.73896 11.9598 6.81928 12.0402 6.8996 12.1205C6.97992 12.2811 7.14056 12.3614 7.3012 12.3614C7.38153 12.3614 7.46185 12.3614 7.54217 12.3614C7.70281 12.3614 7.78313 12.4418 7.78313 12.6024C7.78313 12.6827 7.78313 12.8434 7.86345 12.9237C7.94378 12.9237 8.0241 12.9237 8.10442 13.0843C8.34538 13.004 8.50602 13.0843 8.50602 13.245C8.66667 13.245 8.74699 13.245 8.90763 13.245C9.06827 13.245 9.14859 13.3253 9.22892 13.4056C9.30924 13.4859 9.38956 13.5663 9.46988 13.5663C9.63052 13.6466 9.71084 13.7269 9.63052 13.8876C9.5502 14.0482 9.46988 14.2892 9.30924 14.4498C9.22892 14.6908 9.22892 14.7711 9.22892 14.8514C9.22892 15.012 9.22892 15.0924 9.22892 15.253C9.22892 15.4137 9.14859 15.5743 9.06827 15.7349C8.98795 15.8153 8.98795 15.8153 8.82731 15.8153C8.74699 15.8153 8.74699 15.8153 8.66667 15.8153C8.58635 15.8956 8.50602 15.8956 8.34538 15.9759C8.26506 15.9759 8.26506 16.0562 8.34538 16.1365C8.4257 16.2169 8.34538 16.2972 8.34538 16.3775C8.34538 16.4578 8.26506 16.5382 8.26506 16.5382C8.26506 16.6185 8.26506 16.6988 8.26506 16.6988C8.18474 16.7791 8.18474 16.8594 8.10442 16.9398C8.0241 17.1004 7.94377 17.1004 7.78313 17.0201C7.70281 17.0201 7.70281 16.9398 7.62249 16.9398L7.70281 17.0201C7.78313 17.1004 7.78313 17.1004 7.86345 17.1807C7.94378 17.3414 7.86345 17.4217 7.70281 17.4217C7.62249 17.4217 7.62249 17.4217 7.54217 17.4217C7.46185 17.4217 7.46185 17.4217 7.46185 17.5823V17.6627V17.743H7.38153C7.38153 17.743 7.3012 17.743 7.3012 17.6627C7.3012 17.743 7.38153 17.743 7.38153 17.8233C7.46185 17.9036 7.46185 17.9036 7.38153 17.9839C7.38153 18.0643 7.3012 18.0643 7.3012 18.1446V18.2249C7.38153 18.3052 7.46185 18.3855 7.54217 18.4659C8.34538 18.9478 9.22892 19.2691 10.1928 19.4297C10.5944 19.4297 10.996 19.8313 10.996 20.2329C10.996 20.7149 10.5141 21.0361 10.1928 21.0361C10.1124 21.0361 10.1124 21.0361 10.0321 21.0361C5.45382 20.3133 2 16.3775 2 11.6386C2 6.33735 6.33735 2 11.6386 2C16.6988 2 20.9558 6.09639 21.1968 11.2369ZM5.37349 7.94378C5.37349 7.86345 5.29317 7.78313 5.21285 7.78313C5.05221 7.78313 4.89157 7.94378 4.73092 8.0241C4.89157 8.0241 5.05221 8.0241 5.21285 8.0241C5.21285 8.0241 5.21285 8.0241 5.13253 8.0241C5.05221 8.18474 4.89157 8.26506 4.81124 8.4257C4.81124 8.4257 4.81124 8.50602 4.81124 8.58635C4.89157 8.58635 4.89157 8.58635 4.97189 8.50602L5.05221 8.4257C5.13253 8.34538 5.13253 8.26506 5.21285 8.26506C5.29317 8.18474 5.37349 8.18474 5.45382 8.26506C5.45382 8.26506 5.45381 8.34538 5.37349 8.34538V8.4257H5.45382C5.45382 8.4257 5.53414 8.4257 5.53414 8.34538C5.61446 8.34538 5.61446 8.26506 5.69478 8.26506L5.7751 8.18474H5.69478C5.37349 8.10442 5.37349 8.10442 5.37349 7.94378ZM16.7791 5.61446H16.8594C16.7791 5.53414 16.6988 5.45382 16.6185 5.37349C16.5382 5.29317 16.4578 5.29317 16.2972 5.29317C16.2972 5.29317 16.3775 5.29317 16.4578 5.29317C16.3775 5.29317 16.3775 5.21285 16.2972 5.21285C16.2972 5.29317 16.2972 5.29317 16.2972 5.37349C16.2972 5.45382 16.3775 5.53414 16.4578 5.61446C16.5382 5.61446 16.6185 5.69478 16.7791 5.61446C16.7791 5.69478 16.8594 5.69478 16.7791 5.61446ZM18.5462 8.74699C18.6265 8.82731 18.7068 8.82731 18.8675 8.82731C18.9478 8.82731 19.0281 8.82731 19.0281 8.74699C19.1084 8.66667 19.0281 8.58635 18.9478 8.50602C18.9478 8.50602 18.8675 8.50602 18.7871 8.4257C18.8675 8.4257 18.8675 8.4257 18.9478 8.4257C18.9478 8.4257 18.9478 8.34538 18.8675 8.34538C18.8675 8.34538 18.7871 8.34538 18.7871 8.26506C18.7068 8.18474 18.6265 8.18474 18.5462 8.10442C18.5462 8.10442 18.4659 8.0241 18.5462 7.94378C18.5462 7.94378 18.6265 7.86345 18.7068 7.86345C18.7068 7.86345 18.7068 7.86345 18.7871 7.86345C18.7871 7.78313 18.7068 7.70281 18.7068 7.70281C18.6265 7.70281 18.6265 7.70281 18.4659 7.70281C18.3855 7.70281 18.3855 7.78313 18.3052 7.78313C18.2249 7.86345 18.2249 7.94378 18.3052 8.0241C18.3855 8.10442 18.4659 8.26506 18.6265 8.34538C18.7068 8.4257 18.7068 8.50602 18.6265 8.58635C18.4659 8.66667 18.4659 8.74699 18.5462 8.74699ZM19.51 10.2731C19.51 10.1928 19.51 10.1124 19.4297 10.0321H19.3494C19.1888 10.1124 19.0281 10.0321 18.8675 9.87149C18.8675 9.79116 18.8675 9.79117 18.8675 9.71084L18.7871 9.63052C18.7068 9.63052 18.7068 9.63052 18.6265 9.63052C18.6265 9.71084 18.6265 9.71084 18.6265 9.79116C18.7068 9.87149 18.7871 9.95181 18.7871 10.0321C18.8675 10.1928 18.8675 10.1928 19.0281 10.1928C19.0281 10.3534 19.1084 10.3534 19.2691 10.2731C19.3494 10.1928 19.4297 10.1928 19.51 10.1125C19.51 10.1928 19.51 10.1928 19.51 10.2731Z" fill="currentColor"/>
</svg>