<svg width="24" height="24" viewBox="0 0 24 24" fill="none" xmlns="http://www.w3.org/2000/svg">
<path d="M9.13693 4.48963C9.05394 4.48963 8.97095 4.48963 8.88797 4.48963C8.97095 4.40664 9.05394 4.40664 9.13693 4.48963C9.13693 4.40664 9.13693 4.48963 9.13693 4.48963ZM10.0498 5.56846C9.88382 5.56846 9.80083 5.73444 9.80083 5.90041C9.80083 5.9834 9.80083 5.9834 9.80083 6.06639C9.80083 6.31535 9.88382 6.39834 10.0498 6.39834C10.1328 6.39834 10.2988 6.39834 10.3817 6.31535C10.4647 6.23237 10.4647 6.23237 10.5477 6.14938C10.6307 5.9834 10.7967 5.81743 11.0456 5.81743C11.2116 5.81743 11.3776 5.73444 11.5436 5.56846C11.6266 5.48548 11.7925 5.40249 11.9585 5.40249C12.1245 5.40249 12.2075 5.40249 12.3734 5.3195C12.3734 5.3195 12.3734 5.3195 12.4564 5.23651H12.3734C12.2905 5.23651 12.2905 5.23651 12.2075 5.23651C12.2075 5.15353 12.2905 5.15353 12.2905 5.07054C12.3734 5.07054 12.4564 5.23651 12.6224 5.15353C12.5394 5.07054 12.4564 5.07054 12.3734 4.98755C12.4564 4.98755 12.4564 4.98755 12.4564 4.98755C12.6224 4.98755 12.8714 4.90456 12.9544 4.73859C12.9544 4.73859 13.0373 4.6556 13.0373 4.57261C13.0373 4.48963 13.0373 4.48963 13.1203 4.40664C13.2033 4.40664 13.2863 4.32365 13.3693 4.32365C13.4523 4.32365 13.5353 4.24066 13.5353 4.24066C13.4523 4.24066 13.2863 4.15768 13.2033 4.15768C13.1203 4.15768 13.0373 4.07469 12.9544 4.07469C12.6224 4.07469 12.3734 4.07469 12.0415 4.15768C11.5436 4.24066 11.1286 4.32365 10.6307 4.40664C10.3817 4.40664 10.2158 4.48963 10.0498 4.6556C10.0498 4.6556 10.0498 4.73859 10.1328 4.73859C10.1328 4.73859 10.1328 4.82158 10.0498 4.82158C10.2158 4.82158 10.2158 4.90456 10.2988 5.07054C10.2988 5.15353 10.3817 5.3195 10.4647 5.3195C10.5477 5.3195 10.5477 5.40249 10.4647 5.48548C10.1328 5.48548 10.0498 5.48548 10.0498 5.56846ZM5.56846 11.2116C5.56846 11.3776 5.40249 11.2946 5.40249 11.3776C5.65145 11.4606 5.81743 11.3776 6.06639 11.2946C5.90041 11.2116 5.73444 11.2116 5.56846 11.2116ZM4.57261 12.4564C4.48963 12.4564 4.40664 12.3734 4.32365 12.3734C4.24066 12.3734 4.24066 12.2905 4.15768 12.2905C4.15768 12.4564 4.32365 12.5394 4.57261 12.4564ZM6.97925 5.48548C7.14523 5.40249 7.22822 5.40249 7.39419 5.3195C7.22822 5.23651 7.06224 5.3195 6.97925 5.48548ZM8.80498 4.6556C8.97095 4.6556 9.05394 4.57261 9.21992 4.48963C9.05394 4.57261 8.88797 4.57261 8.80498 4.6556ZM4.40664 10.9627C4.6556 11.0456 4.82158 11.0456 5.07054 11.1286C4.90456 10.9627 4.6556 10.8797 4.40664 10.9627ZM13.0373 7.22822C13.2033 7.22822 13.4523 7.06224 13.4523 6.81328C13.2033 6.81328 13.0373 6.97925 13.0373 7.22822ZM13.5353 7.39419C13.7012 7.39419 13.8672 7.3112 14.0332 7.3112C14.1162 7.3112 14.1992 7.22822 14.1992 7.14523C14.1162 7.06224 14.0332 7.06224 13.9502 6.97925H13.8672C13.7012 6.97925 13.6183 7.06224 13.6183 7.14523C13.7012 7.14523 13.7012 7.14523 13.7842 7.22822C13.6183 7.3112 13.5353 7.3112 13.5353 7.39419ZM6.81328 6.31535C6.97925 6.31535 7.06224 6.31535 7.22822 6.31535C7.22822 6.14938 7.14523 6.14938 7.06224 6.14938C6.97925 6.06639 6.81328 6.14938 6.81328 6.31535ZM7.56017 6.14938C7.64315 6.14938 7.72614 6.14938 7.80913 6.06639C7.64315 6.06639 7.64315 6.06639 7.56017 6.14938ZM7.39419 5.81743C7.3112 5.81743 7.14523 5.90042 7.06224 5.9834C7.14523 5.90042 7.3112 5.90041 7.39419 5.81743ZM8.97095 5.81743C8.97095 5.73444 8.97095 5.73444 8.88797 5.65145C8.80498 5.65145 8.72199 5.56846 8.72199 5.48548C8.639 5.48548 8.55602 5.40249 8.47303 5.3195C8.47303 5.3195 8.39004 5.23651 8.30705 5.3195C8.30705 5.3195 8.22407 5.3195 8.14108 5.3195C8.05809 5.23651 7.9751 5.23651 7.80913 5.3195C7.80913 5.3195 7.72614 5.3195 7.64315 5.40249L7.72614 5.3195C7.56017 5.23651 7.39419 5.3195 7.3112 5.48548C7.3112 5.56846 7.22822 5.56846 7.3112 5.56846C7.47718 5.56846 7.72614 5.65145 7.89212 5.56846C8.05809 5.48548 8.14108 5.56846 8.22407 5.73444C8.22407 5.81743 8.30705 5.90042 8.30705 5.9834C8.22407 5.9834 8.14108 5.9834 8.05809 5.9834C7.9751 5.9834 7.89212 6.06639 7.80913 6.14938C7.9751 6.14938 7.9751 6.23237 8.05809 6.23237C8.14108 6.31535 8.30705 6.31535 8.39004 6.23237L8.30705 6.14938H8.39004C8.47303 6.23237 8.55602 6.14938 8.55602 6.06639C8.55602 5.9834 8.55602 5.9834 8.55602 5.90041C8.639 5.90041 8.72199 5.90041 8.80498 5.90041C8.88797 5.90041 8.88797 5.90041 8.97095 5.81743ZM13.7842 6.81328C13.7842 6.73029 13.7012 6.73029 13.7012 6.6473C13.6183 6.73029 13.6183 6.73029 13.7842 6.81328ZM8.14108 7.89212C8.22407 7.89212 8.30705 7.9751 8.39004 7.9751C8.47303 7.9751 8.55602 7.89212 8.639 7.89212C8.639 7.89212 8.72199 7.89212 8.72199 7.80913V7.72614C8.72199 7.72614 8.639 7.72614 8.639 7.64315C8.55602 7.64315 8.47303 7.56017 8.55602 7.47718C8.39004 7.56017 8.22407 7.72614 8.14108 7.89212ZM21.0871 12.5394C20.5062 12.5394 20.2573 11.7925 20.2573 11.7095C20.2573 11.6266 20.2573 11.4606 20.2573 11.3776L20.1743 11.4606L20.0913 11.5436C19.9253 11.5436 19.8423 11.6266 19.7593 11.7925C19.7593 11.7925 19.7593 11.7925 19.6763 11.8755C19.5934 11.9585 19.4274 11.9585 19.3444 12.0415C19.1784 12.0415 19.0124 11.9585 18.8465 11.9585C18.8465 11.7925 18.7635 11.6266 18.6805 11.5436C18.5975 11.4606 18.5975 11.4606 18.5145 11.3776C18.4315 11.2946 18.4315 11.2116 18.3485 11.1286C18.3485 10.9627 18.2656 10.8797 18.1826 10.7967C18.0166 10.6307 17.8506 10.4647 17.8506 10.2158C17.8506 10.2158 17.8506 10.2988 17.7676 10.3817C17.6846 10.2988 17.6846 10.2158 17.6017 10.2158C17.6846 10.3817 17.7676 10.5477 17.8506 10.7137C17.9336 10.8797 18.0166 10.9627 18.0996 11.1286C18.0996 11.1286 18.1826 11.2116 18.0996 11.2116C18.0996 11.3776 18.1826 11.4606 18.2656 11.5436C18.3485 11.6266 18.3485 11.7095 18.3485 11.7095C18.3485 11.7925 18.3485 11.7925 18.3485 11.8755C18.3485 11.9585 18.4315 11.9585 18.4315 11.9585C18.4315 11.9585 18.4315 12.0415 18.3485 12.0415C18.0166 12.0415 17.6846 12.0415 17.1867 12.1245C17.1867 12.1245 17.0207 12.1245 16.8548 12.2075C15.8589 12.4564 14.9461 12.9544 14.6141 13.1203H14.5311C14.4481 13.1203 14.4481 13.0373 14.4481 13.0373C14.3651 12.9544 14.2822 13.0373 14.1992 13.0373C14.1162 13.1203 13.9502 13.1203 13.8672 13.2033C13.7842 13.2033 13.7012 13.2033 13.7012 13.2033C13.5353 13.1203 13.4523 13.2033 13.3693 13.2033C13.2863 13.2863 13.1203 13.2863 13.0373 13.2033C12.7884 13.1203 12.6224 12.9544 12.4564 12.6224C12.3734 12.4564 12.3734 12.3734 12.2075 12.2905C12.1245 12.2905 12.1245 12.2075 12.1245 12.2075C12.2075 12.1245 12.2075 12.1245 12.2075 12.0415C12.1245 11.9585 12.1245 11.9585 12.2075 11.8755L12.2905 11.7925C12.3734 11.7095 12.3734 11.6266 12.2905 11.5436C12.2905 11.4606 12.2905 11.4606 12.2075 11.3776C12.1245 11.2116 12.2075 11.1286 12.2075 11.0456C12.3734 10.8797 12.4564 10.7137 12.6224 10.4647C12.7054 10.3817 12.7884 10.2988 12.8714 10.2988C12.7054 9.9668 12.7884 9.80083 12.7884 9.63485C12.7884 9.55187 12.7884 9.46888 12.8714 9.38589C12.9544 9.3029 13.0373 9.21992 13.1203 9.13693C13.2033 9.05394 13.2033 9.05394 13.2863 9.13693C13.3693 9.13693 13.4523 9.21992 13.5353 9.21992C13.6183 9.21992 13.7012 9.13693 13.7842 9.13693C13.8672 9.05394 14.0332 9.05394 14.1162 8.97095C14.3651 8.97095 14.5311 8.97095 14.7801 8.97095C14.9461 8.97095 14.9461 8.97095 14.8631 9.13693C14.7801 9.38589 14.8631 9.38589 15.112 9.46888C15.278 9.46888 15.278 9.46888 15.278 9.46888C15.361 9.46888 15.444 9.55187 15.527 9.63485L15.61 9.71784C15.6929 9.71784 15.6929 9.71784 15.7759 9.80083C15.9419 9.80083 15.9419 9.80083 15.9419 9.63485C16.0249 9.55187 16.1079 9.46888 16.1909 9.46888C16.2739 9.46888 16.3568 9.55187 16.4398 9.55187C16.5228 9.55187 16.6058 9.63485 16.6888 9.63485C16.9378 9.63485 17.1867 9.63485 17.4357 9.63485C17.5187 9.63485 17.6017 9.55187 17.6017 9.46888C17.6017 9.3029 17.6846 9.21992 17.6846 9.05394C17.6846 8.88797 17.6846 8.88797 17.5187 8.97095C17.4357 8.97095 17.3527 9.05394 17.2697 8.97095C17.1867 8.88797 17.1037 8.88797 16.9378 8.97095C16.7718 9.05394 16.6888 8.97095 16.6888 8.80498C16.6888 8.72199 16.6058 8.639 16.6058 8.55602C16.7718 8.47303 17.0207 8.39004 17.1867 8.30705H17.2697C17.4357 8.30705 17.6017 8.39004 17.6846 8.39004C17.7676 8.39004 17.8506 8.39004 17.9336 8.39004C18.0166 8.39004 18.0996 8.22407 18.0166 8.14108C18.0166 8.14108 17.9336 8.05809 17.8506 8.05809C17.7676 8.05809 17.6846 7.9751 17.6017 7.9751C17.5187 7.9751 17.5187 7.89212 17.5187 7.80913C17.7676 7.89212 17.7676 7.80913 17.7676 7.72614C17.6846 7.80913 17.5187 7.80913 17.4357 7.89212C17.5187 7.9751 17.5187 7.9751 17.6017 7.9751C17.5187 7.9751 17.4357 8.05809 17.4357 8.05809C17.3527 8.05809 17.3527 8.05809 17.2697 7.9751C17.2697 7.80913 17.1037 7.80913 17.0207 7.89212C16.9378 7.9751 16.8548 8.05809 16.8548 8.14108C16.7718 8.22407 16.7718 8.39004 16.8548 8.47303C16.6888 8.55602 16.4398 8.47303 16.2739 8.639C16.2739 8.72199 16.3568 8.80498 16.3568 8.88797C16.3568 8.97095 16.3568 9.05394 16.2739 9.05394C16.1909 9.05394 16.1909 8.97095 16.1079 8.97095C16.1079 8.97095 16.1079 8.88797 16.1079 8.80498H16.0249C15.9419 8.80498 15.8589 8.72199 15.8589 8.639C15.8589 8.47303 15.7759 8.30705 15.527 8.30705C15.444 8.22407 15.278 8.22407 15.195 8.05809C15.195 7.9751 15.112 8.05809 15.112 8.05809C15.195 8.05809 15.195 8.14108 15.278 8.14108C15.361 8.22407 15.527 8.39004 15.61 8.47303C15.6929 8.55602 15.61 8.639 15.527 8.72199C15.444 8.80498 15.195 8.72199 15.195 8.639C15.112 8.55602 15.195 8.47303 15.278 8.39004C15.195 8.30705 15.029 8.22407 14.9461 8.14108H14.8631C14.6971 8.22407 14.5311 8.22407 14.3651 8.22407L14.2822 8.30705C14.2822 8.39004 14.2822 8.39004 14.1992 8.47303C14.1162 8.47303 14.0332 8.55602 14.0332 8.55602C13.8672 8.639 13.8672 8.639 13.8672 8.72199C13.8672 8.80498 13.8672 8.80498 13.8672 8.88797C13.7842 8.97095 13.7012 8.97095 13.6183 9.05394C13.4523 9.05394 13.2863 9.05394 13.1203 9.05394C12.8714 9.05394 12.8714 8.97095 12.9544 8.72199C12.9544 8.55602 13.0373 8.47303 13.0373 8.30705C13.0373 8.30705 13.0373 8.22407 13.1203 8.22407C13.2033 8.22407 13.2033 8.22407 13.2863 8.22407C13.3693 8.22407 13.5353 8.30705 13.6183 8.30705C13.7842 8.30705 13.8672 8.22407 13.8672 8.05809C13.8672 7.89212 13.7842 7.72614 13.5353 7.64315C13.6183 7.64315 13.7012 7.56017 13.7842 7.56017C13.9502 7.56017 14.1162 7.47718 14.1992 7.39419C14.2822 7.3112 14.3651 7.22822 14.4481 7.14523C14.5311 7.06224 14.6141 6.97925 14.7801 6.97925C14.8631 6.97925 14.8631 6.97925 14.8631 6.89627C14.8631 6.81328 14.8631 6.81328 14.7801 6.73029C14.7801 6.6473 14.7801 6.56432 14.9461 6.56432C15.029 6.56432 15.112 6.6473 15.029 6.73029V6.81328C15.029 6.81328 15.029 6.89627 15.112 6.89627C15.195 6.89627 15.361 6.89627 15.444 6.97925H15.527C15.61 6.97925 15.6929 6.89627 15.8589 6.89627C16.0249 6.89627 16.1079 6.81328 16.1079 6.6473C16.1079 6.56432 16.1079 6.56432 16.1909 6.56432H16.2739H16.3568V6.48133C16.3568 6.48133 16.3568 6.39834 16.2739 6.39834C16.3568 6.39834 16.4398 6.39834 16.5228 6.31535C16.6058 6.31535 16.6888 6.23237 16.7718 6.23237H16.6888C16.5228 6.23237 16.4398 6.23237 16.2739 6.23237C16.1909 6.23237 16.1079 6.23237 16.0249 6.14938C15.9419 6.06639 16.0249 5.9834 16.1079 5.90041C16.1079 5.81743 16.1079 5.73444 16.1079 5.65145V5.56846H16.0249C15.9419 5.56846 15.9419 5.65145 15.9419 5.65145C15.8589 5.73444 15.7759 5.81743 15.6929 5.81743C15.61 5.81743 15.61 5.90042 15.61 5.9834L15.6929 6.06639C15.7759 6.14938 15.7759 6.23237 15.6929 6.23237C15.61 6.23237 15.61 6.31535 15.527 6.39834C15.527 6.48133 15.444 6.48133 15.444 6.56432C15.444 6.6473 15.361 6.6473 15.278 6.6473C15.195 6.6473 15.195 6.56432 15.112 6.48133C15.029 6.23237 15.029 6.23237 14.8631 6.39834C14.7801 6.39834 14.6971 6.48133 14.6141 6.39834C14.4481 6.23237 14.5311 6.06639 14.6971 5.9834C14.9461 5.81743 15.195 5.65145 15.444 5.40249C15.7759 5.07054 16.1909 4.98755 16.6058 5.07054H16.6888C16.6058 4.98755 16.5228 4.98755 16.5228 4.90456C16.2739 4.73859 16.0249 4.6556 15.7759 4.48963C15.6929 4.48963 15.6929 4.48963 15.61 4.48963C15.444 4.6556 15.278 4.6556 15.195 4.48963C15.195 4.40664 15.112 4.40664 15.112 4.40664C15.112 4.40664 15.029 4.40664 15.029 4.32365C15.029 4.24066 14.9461 4.24066 14.9461 4.24066C14.2822 3.9917 13.6183 3.82573 12.9544 3.74274C11.7095 3.57676 10.5477 3.74274 9.38589 4.07469C9.05394 4.15768 8.72199 4.32365 8.47303 4.40664C8.39004 4.48963 8.30705 4.48963 8.22407 4.57261V4.6556C8.14108 4.6556 8.05809 4.73859 7.9751 4.73859C7.89212 4.73859 7.89212 4.73859 7.80913 4.73859C7.47718 4.98755 7.14523 5.15353 6.81328 5.48548C6.81328 5.48548 6.73029 5.48548 6.73029 5.56846C6.73029 5.56846 6.6473 5.65145 6.56432 5.65145C6.48133 5.73444 6.31535 5.90042 6.23237 5.9834C6.39834 5.9834 6.56432 5.9834 6.6473 5.81743C6.73029 5.81743 6.73029 5.73444 6.6473 5.73444C6.6473 5.73444 6.6473 5.73444 6.6473 5.65145C6.89627 5.56846 6.89627 5.56846 6.97925 5.56846C6.97925 5.65145 6.89627 5.73444 6.97925 5.73444C6.97925 5.73444 7.06224 5.73444 7.14523 5.81743C7.06224 5.81743 6.97925 5.90042 6.97925 5.9834C6.97925 6.06639 6.89627 6.06639 6.81328 6.14938C6.81328 6.14938 6.73029 6.14938 6.6473 6.14938C6.73029 6.23237 6.73029 6.31535 6.6473 6.31535C6.56432 6.31535 6.48133 6.31535 6.39834 6.39834C6.39834 6.39834 6.31535 6.39834 6.31535 6.48133C6.31535 6.56432 6.23237 6.56432 6.14938 6.6473C6.06639 6.56432 5.90041 6.6473 5.81743 6.73029C5.73444 6.73029 5.65145 6.81328 5.65145 6.89627C5.56846 6.97925 5.56846 7.06224 5.65145 7.14523C5.73444 7.14523 5.73444 7.22822 5.81743 7.22822C5.9834 7.22822 6.14938 7.3112 6.23237 7.3112C6.23237 7.39419 6.23237 7.47718 6.23237 7.56017C6.23237 7.56017 6.23237 7.64315 6.31535 7.64315C6.31535 7.64315 6.39834 7.64315 6.48133 7.64315C6.48133 7.64315 6.56432 7.56017 6.56432 7.47718C6.6473 7.3112 6.73029 7.22822 6.81328 7.22822C6.89627 7.22822 6.97925 7.14523 7.06224 7.06224C7.06224 7.06224 7.14523 6.97925 7.14523 6.89627C7.14523 6.81328 7.14523 6.73029 7.22822 6.73029C7.3112 6.6473 7.3112 6.56432 7.39419 6.56432C7.39419 6.31535 7.56017 6.31535 7.80913 6.39834C7.9751 6.48133 7.9751 6.56432 7.89212 6.6473C7.89212 6.73029 7.89212 6.73029 7.9751 6.73029C8.05809 6.73029 8.14108 6.73029 8.14108 6.6473C8.22407 6.56432 8.30705 6.56432 8.39004 6.48133C8.39004 6.73029 8.47303 6.97925 8.47303 7.14523C8.47303 7.14523 8.55602 7.14523 8.639 7.14523C8.639 7.14523 8.72199 7.14523 8.72199 7.22822V7.3112C8.72199 7.3112 8.72199 7.3112 8.639 7.39419C8.39004 7.47718 8.14108 7.64315 7.89212 7.64315C7.72614 7.64315 7.47718 7.72614 7.3112 7.80913C7.22822 7.80913 7.14523 7.89212 7.06224 7.89212C7.06224 7.89212 7.06224 7.89212 7.06224 7.9751C7.14523 7.9751 7.22822 7.89212 7.3112 7.89212C7.39419 7.80913 7.47718 7.80913 7.56017 7.80913C7.56017 7.89212 7.47718 7.9751 7.47718 8.05809C7.56017 8.22407 7.72614 8.14108 7.80913 8.14108C7.64315 8.30705 7.39419 8.39004 7.22822 8.39004C7.3112 8.30705 7.39419 8.30705 7.47718 8.22407C7.22822 8.22407 6.97925 8.30705 6.81328 8.47303L6.73029 8.55602C6.73029 8.639 6.6473 8.72199 6.56432 8.72199C6.23237 8.80498 6.06639 8.97095 5.90041 9.13693C5.90041 9.13693 5.81743 9.13693 5.81743 9.05394C5.81743 9.13693 5.81743 9.21992 5.81743 9.21992C5.81743 9.3029 5.73444 9.46888 5.65145 9.46888C5.48548 9.63485 5.40249 9.63485 5.3195 9.71784C5.23651 9.80083 5.07054 9.80083 4.98755 9.88382C4.90456 9.9668 4.90456 10.1328 4.82158 10.1328C4.73859 10.2158 4.6556 10.2158 4.57261 10.1328C4.48963 10.1328 4.40664 10.0498 4.40664 10.0498C4.32365 10.0498 4.24066 10.0498 4.15768 10.1328C4.07469 10.2158 3.9917 10.2158 3.82573 10.2158C3.74274 10.5477 3.74274 10.7967 3.65975 11.1286C3.74274 11.0456 3.82573 11.0456 3.9917 11.1286C3.90871 11.2946 3.82573 11.4606 3.74274 11.7095C3.82573 11.7095 3.90871 11.7095 3.9917 11.7095C4.07469 11.7095 4.15768 11.7095 4.15768 11.7095C4.32365 11.7095 4.32365 11.7925 4.32365 11.8755C4.32365 11.9585 4.24066 12.0415 4.24066 12.1245C4.24066 12.2075 4.24066 12.2075 4.24066 12.2905L4.15768 12.3734L4.07469 12.2905C3.9917 12.2075 3.9917 12.1245 3.9917 12.0415C3.82573 11.9585 3.74274 11.9585 3.65975 11.9585C3.65975 14.1992 4.57261 16.2739 6.06639 17.7676C6.23237 17.9336 6.48133 18.0996 6.6473 18.2656C6.6473 18.2656 6.6473 18.1826 6.56432 18.1826C6.31535 17.9336 6.31535 17.6846 6.23237 17.3527C6.23237 16.9378 6.14938 16.4398 6.06639 16.0249C5.9834 15.6929 5.81743 15.444 5.48548 15.278C5.3195 15.195 5.23651 15.195 5.23651 15.029C5.23651 14.9461 5.15353 14.9461 5.15353 14.8631C4.98755 14.6141 4.73859 14.2822 4.57261 14.0332C4.48963 13.9502 4.48963 13.8672 4.57261 13.7842C4.57261 13.7842 4.57261 13.7842 4.6556 13.7012C4.57261 13.5353 4.57261 13.5353 4.6556 13.3693C4.6556 13.2863 4.73859 13.2863 4.73859 13.2033C4.82158 13.1203 4.82158 13.0373 4.90456 12.9544C4.98755 12.7884 4.98755 12.7054 4.90456 12.5394V12.4564C4.82158 12.4564 4.73859 12.3734 4.6556 12.3734C4.82158 12.3734 4.90456 12.3734 4.98755 12.4564C5.07054 12.2905 5.48548 11.9585 5.65145 11.9585C5.65145 12.0415 5.65145 12.0415 5.65145 12.1245V12.2075C5.81743 11.9585 5.81743 11.9585 6.06639 12.0415C6.31535 12.1245 6.48133 12.2075 6.73029 12.1245H6.81328C6.81328 12.2075 6.81328 12.2075 6.81328 12.2075C6.89627 12.2905 6.97925 12.3734 7.06224 12.4564C7.14523 12.6224 7.3112 12.7054 7.47718 12.7054C7.56017 12.7054 7.64315 12.7054 7.72614 12.7054C7.89212 12.7054 7.9751 12.7884 7.9751 12.9544C7.9751 13.0373 7.9751 13.2033 8.05809 13.2863C8.14108 13.2863 8.22407 13.2863 8.30705 13.4523C8.55602 13.3693 8.72199 13.4523 8.72199 13.6183C8.88797 13.6183 8.97095 13.6183 9.13693 13.6183C9.30291 13.6183 9.38589 13.7012 9.46888 13.7842C9.55187 13.8672 9.63485 13.9502 9.71784 13.9502C9.88382 14.0332 9.9668 14.1162 9.88382 14.2822C9.80083 14.4481 9.71784 14.6971 9.55187 14.8631C9.46888 15.112 9.46888 15.195 9.46888 15.278C9.46888 15.444 9.46888 15.527 9.46888 15.6929C9.46888 15.8589 9.38589 16.0249 9.3029 16.1909C9.21992 16.2739 9.21992 16.2739 9.05394 16.2739C8.97095 16.2739 8.97095 16.2739 8.88797 16.2739C8.80498 16.3568 8.72199 16.3568 8.55602 16.4398C8.47303 16.4398 8.47303 16.5228 8.55602 16.6058C8.639 16.6888 8.55602 16.7718 8.55602 16.8548C8.55602 16.9378 8.47303 17.0207 8.47303 17.0207C8.47303 17.1037 8.47303 17.1867 8.47303 17.1867C8.39004 17.2697 8.39004 17.3527 8.30705 17.4357C8.22407 17.6017 8.14108 17.6017 7.9751 17.5187C7.89212 17.5187 7.89212 17.4357 7.80913 17.4357L7.89212 17.5187C7.9751 17.6017 7.9751 17.6017 8.05809 17.6846C8.14108 17.8506 8.05809 17.9336 7.89212 17.9336C7.80913 17.9336 7.80913 17.9336 7.72614 17.9336C7.64315 17.9336 7.64315 17.9336 7.64315 18.0996V18.1826V18.2656H7.56017C7.56017 18.2656 7.47718 18.2656 7.47718 18.1826C7.47718 18.2656 7.56017 18.2656 7.56017 18.3485C7.64315 18.4315 7.64315 18.4315 7.56017 18.5145C7.56017 18.5975 7.47718 18.5975 7.47718 18.6805V18.7635C7.56017 18.8465 7.64315 18.9295 7.72614 19.0124C8.639 19.5934 9.71784 19.9253 10.7967 20.0913C11.1286 20.1743 11.5436 20.1743 11.8755 20.1743C12.2075 20.1743 12.7054 20.5062 12.7054 21.0041C12.7054 21.5021 12.2075 21.834 11.8755 21.834C6.39834 21.834 2 17.4357 2 11.9585C2 6.48133 6.48133 2 11.9585 2C17.3527 2 21.6681 6.31535 21.917 11.6266C21.917 11.9585 21.5851 12.5394 21.0871 12.5394ZM22 16.9378V18.5975H21.0871C21.0042 18.9295 20.9212 19.1784 20.7552 19.4274L21.4191 20.0913L20.2573 21.2531L19.5934 20.5892C19.3444 20.7552 19.0124 20.8382 18.7635 20.9212V21.834H17.1037V20.9212C16.7718 20.8382 16.5228 20.7552 16.2739 20.5892L15.61 21.2531L14.4481 20.0913L15.112 19.4274C14.9461 19.1784 14.8631 18.8465 14.7801 18.5975H13.8672V16.9378H14.7801C14.8631 16.6058 14.9461 16.3568 15.112 16.1079L14.4481 15.444L15.61 14.2822L16.2739 14.9461C16.5228 14.7801 16.8548 14.6971 17.1037 14.6141V13.6183H18.7635V14.5311C19.0954 14.6141 19.3444 14.6971 19.5934 14.8631L20.2573 14.1992L21.4191 15.361L20.6722 16.1079C20.8382 16.3568 20.9212 16.6888 21.0041 16.9378H22ZM17.8506 16.1079C16.9378 16.1079 16.1909 16.8548 16.1909 17.7676C16.1909 18.6805 16.9378 19.4274 17.8506 19.4274C18.7635 19.4274 19.5104 18.6805 19.5104 17.7676C19.5104 16.8548 18.7635 16.1079 17.8506 16.1079Z" fill="#6B7084"/>
</svg>
