<svg viewBox="0 0 24 24" fill="none" xmlns="http://www.w3.org/2000/svg">
<path d="M13.04 7.2C13.12 7.2 13.2 7.12 13.2 7.12C13.12 7.12 13.12 7.12 13.04 7.04C13.2 6.88 13.28 6.8 13.36 6.8H13.44C13.52 6.88 13.6 6.88 13.68 6.96C13.68 7.04 13.6 7.04 13.52 7.12C13.44 7.12 13.28 7.2 13.04 7.2C13.12 7.2 13.12 7.2 13.04 7.2ZM12.64 7.04C12.8 7.04 13.04 6.88 13.04 6.64C12.8 6.64 12.64 6.8 12.64 7.04ZM9.76 5.44C9.6 5.44 9.52 5.6 9.52 5.76C9.52 5.84 9.52 5.84 9.52 5.92C9.52 6.16 9.6 6.24 9.76 6.24C9.84 6.24 10 6.24 10.08 6.16C10.16 6.08 10.16 6.08 10.24 6C10.32 5.84 10.48 5.68 10.72 5.68C10.88 5.68 11.04 5.6 11.2 5.44C11.28 5.36 11.44 5.28 11.6 5.28C11.76 5.28 11.84 5.28 12 5.2C12 5.2 12 5.2 12.08 5.12H12C11.92 5.12 11.92 5.12 11.84 5.12C11.84 5.04 11.92 5.04 11.92 4.96C12 4.96 12.08 5.12 12.24 5.04C12.16 4.96 12.08 4.96 12 4.88C12.08 4.88 12.08 4.88 12.08 4.88C12.24 4.88 12.48 4.8 12.56 4.64C12.56 4.64 12.64 4.56 12.64 4.48C12.64 4.4 12.64 4.4 12.72 4.32C12.8 4.32 12.88 4.24 12.96 4.24C13.04 4.24 13.12 4.16 13.12 4.16C13.04 4.16 12.88 4.08 12.8 4.08C12.72 4.08 12.64 4 12.56 4C12.24 4 12 4 11.68 4.08C11.2 4.16 10.8 4.24 10.32 4.32C10.08 4.32 9.92 4.4 9.76 4.56C9.76 4.56 9.76 4.64 9.84 4.64C9.84 4.64 9.84 4.72 9.76 4.72C9.92 4.72 9.92 4.8 10 4.96C10 5.04 10.08 5.2 10.16 5.2C10.24 5.2 10.24 5.28 10.16 5.36C9.84 5.36 9.76 5.36 9.76 5.44ZM4.48 12.08C4.4 12.08 4.32 12 4.24 12C4.16 12 4.16 11.92 4.08 11.92C4.08 12.08 4.24 12.16 4.48 12.08ZM13.36 6.64C13.36 6.56 13.28 6.56 13.28 6.48C13.2 6.56 13.2 6.56 13.36 6.64ZM8.88 4.32C8.8 4.32 8.72 4.32 8.56 4.32C8.72 4.4 8.8 4.4 8.88 4.32C8.88 4.4 8.88 4.32 8.88 4.32ZM8.56 4.56C8.72 4.56 8.8 4.48 8.96 4.4C8.8 4.48 8.64 4.48 8.56 4.56ZM5.44 10.88C5.44 11.04 5.28 10.96 5.28 11.04C5.52 11.12 5.68 11.04 5.92 10.96C5.76 10.88 5.6 10.88 5.44 10.88ZM7.92 7.68C8 7.68 8.08 7.76 8.16 7.76C8.24 7.76 8.32 7.68 8.4 7.68C8.4 7.68 8.48 7.68 8.48 7.6V7.52C8.48 7.52 8.4 7.52 8.4 7.44C8.32 7.44 8.24 7.36 8.32 7.28C8.16 7.36 8 7.52 7.92 7.68ZM4.32 10.64C4.56 10.72 4.72 10.72 4.96 10.8C4.8 10.64 4.56 10.56 4.32 10.64ZM6.8 5.36C6.96 5.28 7.04 5.28 7.2 5.2C7.04 5.12 6.88 5.2 6.8 5.36ZM7.36 6C7.44 6 7.52 6 7.6 5.92C7.44 5.92 7.44 5.92 7.36 6ZM6.64 6.16C6.8 6.16 6.88 6.16 7.04 6.16C7.04 6 6.96 6 6.88 6C6.8 5.92 6.64 6 6.64 6.16ZM8.72 5.68C8.72 5.6 8.72 5.6 8.64 5.52C8.56 5.52 8.48 5.44 8.48 5.36C8.4 5.36 8.32 5.28 8.24 5.2C8.24 5.2 8.16 5.12 8.08 5.2C8.08 5.2 8 5.2 7.92 5.2C7.84 5.12 7.76 5.12 7.6 5.2C7.6 5.2 7.52 5.2 7.44 5.28L7.52 5.2C7.36 5.12 7.2 5.2 7.12 5.36C7.12 5.44 7.04 5.44 7.12 5.44C7.28 5.44 7.52 5.52 7.68 5.44C7.84 5.36 7.92 5.44 8 5.6C8 5.68 8.08 5.76 8.08 5.84C8 5.84 7.92 5.84 7.84 5.84C7.76 5.84 7.68 5.92 7.6 6C7.76 6 7.76 6.08 7.84 6.08C7.92 6.16 8.08 6.16 8.16 6.08L8.08 6H8.16C8.24 6.08 8.32 6 8.32 5.92C8.32 5.84 8.32 5.84 8.32 5.76C8.4 5.76 8.48 5.76 8.56 5.76C8.64 5.76 8.64 5.76 8.72 5.68ZM7.2 5.68C7.12 5.68 6.96 5.76 6.88 5.84C6.96 5.76 7.12 5.76 7.2 5.68ZM21.76 17.04L20.56 15.84C20.24 15.52 19.76 15.52 19.44 15.84L18.24 17.04C17.92 17.36 17.92 17.84 18.24 18.16C18.48 18.4 18.88 18.48 19.2 18.32C19.04 19.04 18.24 19.6 17.36 19.6C17.12 19.6 16.96 19.52 16.72 19.44C16.32 19.28 15.84 19.44 15.68 19.84C15.52 20.24 15.68 20.72 16.08 20.88C16.48 21.04 16.88 21.12 17.36 21.12C19.12 21.12 20.64 19.76 20.8 18.16C20.96 18.24 21.04 18.32 21.2 18.32C21.44 18.32 21.6 18.24 21.76 18.08C22.08 17.84 22.08 17.36 21.76 17.04ZM12.64 18.16L13.84 19.36C14 19.52 14.24 19.6 14.4 19.6C14.64 19.6 14.8 19.52 14.96 19.36L16.16 18.16C16.48 17.84 16.48 17.36 16.16 17.04C15.92 16.8 15.52 16.72 15.28 16.88C15.52 16 16.72 15.28 17.68 15.68C18.08 15.84 18.56 15.68 18.72 15.28C18.88 14.88 18.72 14.4 18.32 14.24C17.92 14.08 17.52 14 17.04 14C15.28 14 13.76 15.36 13.6 16.96C13.28 16.72 12.88 16.8 12.64 17.04C12.32 17.36 12.32 17.84 12.64 18.16ZM21.2 11.6C21.2 11.68 21.2 11.68 21.2 11.76C21.12 12.16 20.8 12.4 20.4 12.4C20 12.4 19.68 12.08 19.6 11.68V11.6C19.6 11.36 19.6 11.2 19.6 10.96L19.52 11.04L19.44 11.12C19.28 11.12 19.2 11.2 19.12 11.36C19.12 11.36 19.12 11.36 19.04 11.44C18.8 11.52 18.64 11.6 18.4 11.68C18.24 11.76 18.16 11.68 18.16 11.52C18.16 11.36 18.08 11.2 18 11.12C17.92 11.04 17.92 11.04 17.84 10.96C17.76 10.88 17.76 10.8 17.68 10.72C17.68 10.56 17.6 10.48 17.52 10.4C17.36 10.24 17.2 10.08 17.2 9.84C17.2 9.84 17.2 9.92 17.12 10C17.04 9.92 17.04 9.84 16.96 9.84C17.04 10 17.12 10.16 17.2 10.32C17.28 10.48 17.36 10.56 17.44 10.72C17.44 10.72 17.52 10.8 17.44 10.8C17.44 10.96 17.52 11.04 17.6 11.12C17.68 11.2 17.68 11.28 17.68 11.28C17.68 11.36 17.76 11.44 17.84 11.52C18 11.6 18.08 11.76 18.16 11.84C17.76 11.6 17.44 11.6 17.04 11.6C15.92 11.6 14.8 11.92 13.92 12.48C13.84 12.4 13.76 12.4 13.6 12.4C13.52 12.48 13.36 12.48 13.28 12.56C13.2 12.56 13.12 12.56 13.12 12.56C12.96 12.48 12.88 12.56 12.8 12.56C12.72 12.64 12.56 12.64 12.48 12.56C12.24 12.48 12.08 12.32 11.92 12C11.84 11.84 11.84 11.76 11.68 11.68C11.6 11.68 11.6 11.6 11.6 11.6C11.68 11.52 11.68 11.52 11.68 11.44C11.6 11.36 11.6 11.36 11.68 11.28L11.76 11.2C11.84 11.12 11.84 11.04 11.76 10.96C11.76 10.88 11.76 10.88 11.68 10.8C11.6 10.64 11.68 10.56 11.68 10.48C11.84 10.32 11.92 10.16 12.08 9.92C12.16 9.84 12.24 9.76 12.32 9.76C12.32 9.68 12.4 9.52 12.4 9.36C12.4 9.28 12.4 9.2 12.48 9.12C12.56 9.04 12.64 8.96 12.72 8.88C12.8 8.8 12.8 8.8 12.88 8.88C12.96 8.88 13.04 8.96 13.12 8.96C13.2 8.96 13.28 8.88 13.36 8.88C13.44 8.8 13.6 8.8 13.68 8.72C13.92 8.72 14.08 8.72 14.32 8.72C14.48 8.72 14.48 8.72 14.4 8.88C14.32 9.12 14.4 9.12 14.64 9.2C14.8 9.2 14.8 9.2 14.8 9.2C14.88 9.2 14.96 9.28 15.04 9.36L15.12 9.44C15.2 9.44 15.2 9.44 15.28 9.52C15.44 9.52 15.44 9.52 15.44 9.36C15.52 9.28 15.6 9.2 15.68 9.2C15.76 9.2 15.84 9.28 15.92 9.28C16 9.28 16.08 9.36 16.16 9.36C16.4 9.36 16.64 9.36 16.88 9.36C16.96 9.36 17.04 9.28 17.04 9.2C17.04 9.04 17.12 8.96 17.12 8.8C17.12 8.64 17.12 8.64 16.96 8.72C16.88 8.72 16.8 8.8 16.72 8.72C16.64 8.64 16.56 8.64 16.4 8.72C16.24 8.8 16.16 8.72 16.16 8.56C16.16 8.48 16.08 8.4 16.08 8.32C16.24 8.24 16.48 8.16 16.64 8.08H16.72C16.88 8.08 17.04 8.16 17.12 8.16C17.2 8.16 17.28 8.16 17.36 8.16C17.44 8.16 17.52 8 17.44 7.92C17.44 7.92 17.36 7.84 17.28 7.84C17.2 7.84 17.12 7.76 17.04 7.76C16.96 7.76 16.96 7.68 16.96 7.6C17.2 7.68 17.2 7.6 17.2 7.52C17.12 7.6 16.96 7.6 16.88 7.68C16.96 7.76 16.96 7.76 17.04 7.76C16.96 7.76 16.88 7.84 16.88 7.84C16.8 7.84 16.8 7.84 16.72 7.76C16.72 7.6 16.56 7.6 16.48 7.68C16.4 7.76 16.32 7.84 16.32 7.92C16.24 8 16.24 8.16 16.32 8.24C16.16 8.32 15.92 8.24 15.76 8.4C15.76 8.48 15.84 8.56 15.84 8.64C15.84 8.72 15.84 8.8 15.76 8.8C15.68 8.8 15.68 8.72 15.6 8.72C15.6 8.72 15.6 8.64 15.6 8.56H15.52C15.44 8.56 15.36 8.48 15.36 8.4C15.36 8.24 15.28 8.08 15.04 8.08C14.96 8 14.8 8 14.72 7.84C14.72 7.76 14.64 7.84 14.64 7.84C14.72 7.84 14.72 7.92 14.8 7.92C14.88 8 15.04 8.16 15.12 8.24C15.2 8.32 15.12 8.4 15.04 8.48C14.96 8.56 14.72 8.48 14.72 8.4C14.64 8.32 14.72 8.24 14.8 8.16C14.72 8.08 14.56 8 14.48 7.92H14.4C14.24 8 14.08 8 13.92 8L13.84 8.08C13.84 8.16 13.84 8.16 13.76 8.24C13.68 8.24 13.6 8.32 13.6 8.32C13.44 8.4 13.44 8.4 13.44 8.48C13.44 8.56 13.44 8.56 13.44 8.64C13.36 8.72 13.28 8.72 13.2 8.8C13.04 8.8 12.88 8.8 12.72 8.8C12.48 8.8 12.48 8.72 12.56 8.48C12.56 8.32 12.64 8.24 12.64 8.08C12.64 8.08 12.64 8 12.72 8C12.8 8 12.8 8 12.88 8C12.96 8 13.12 8.08 13.2 8.08C13.36 8.08 13.44 8 13.44 7.84C13.44 7.68 13.36 7.52 13.12 7.44C13.2 7.44 13.28 7.36 13.36 7.36C13.52 7.36 13.68 7.28 13.76 7.2C13.84 7.12 13.92 7.04 14 6.96C14.08 6.88 14.16 6.8 14.32 6.8C14.4 6.8 14.4 6.8 14.4 6.72C14.4 6.64 14.4 6.64 14.32 6.56C14.32 6.48 14.32 6.4 14.48 6.4C14.56 6.4 14.64 6.48 14.56 6.56V6.64C14.56 6.64 14.56 6.72 14.64 6.72C14.72 6.72 14.88 6.72 14.96 6.8H15.04C15.12 6.8 15.2 6.72 15.36 6.72C15.52 6.72 15.6 6.64 15.6 6.48C15.6 6.4 15.6 6.4 15.68 6.4H15.76H15.84V6.32C15.84 6.32 15.84 6.24 15.76 6.24C15.84 6.24 15.92 6.24 16 6.16C16.08 6.16 16.16 6.08 16.24 6.08H16.16C16 6.08 15.92 6.08 15.76 6.08C15.68 6.08 15.6 6.08 15.52 6C15.44 5.92 15.52 5.84 15.6 5.76C15.6 5.68 15.6 5.6 15.6 5.52V5.44H15.52C15.44 5.44 15.44 5.52 15.44 5.52C15.36 5.6 15.28 5.68 15.2 5.68C15.12 5.68 15.12 5.76 15.12 5.84L15.2 5.92C15.28 6 15.28 6.08 15.2 6.08C15.12 6.08 15.12 6.16 15.04 6.24C15.04 6.32 14.96 6.32 14.96 6.4C14.96 6.48 14.88 6.48 14.8 6.48C14.72 6.48 14.72 6.4 14.64 6.32C14.56 6.08 14.56 6.08 14.4 6.24C14.32 6.24 14.24 6.32 14.16 6.24C14 6.08 14.08 5.92 14.24 5.84C14.48 5.68 14.72 5.52 14.96 5.28C15.28 4.96 15.68 4.88 16.08 4.96H16.16C16.08 4.88 16 4.88 16 4.8C15.76 4.64 15.52 4.56 15.28 4.4C15.2 4.4 15.2 4.4 15.12 4.4C14.96 4.56 14.8 4.56 14.72 4.4C14.72 4.32 14.64 4.32 14.64 4.32C14.64 4.32 14.56 4.32 14.56 4.24C14.56 4.16 14.48 4.16 14.48 4.16C13.84 3.92 13.2 3.76 12.56 3.68C11.36 3.52 10.24 3.68 9.12 4C8.8 4.08 8.48 4.24 8.24 4.32C8.16 4.4 8.08 4.4 8 4.48V4.56C7.92 4.56 7.84 4.64 7.76 4.64C7.68 4.64 7.68 4.64 7.6 4.64C7.28 4.88 6.96 5.04 6.64 5.36C6.64 5.36 6.56 5.36 6.56 5.44C6.56 5.44 6.48 5.52 6.4 5.52C6.32 5.6 6.16 5.76 6.08 5.84C6.24 5.84 6.4 5.84 6.48 5.68C6.56 5.68 6.56 5.6 6.48 5.6C6.48 5.6 6.48 5.6 6.48 5.52C6.72 5.44 6.72 5.44 6.8 5.44C6.8 5.52 6.72 5.6 6.8 5.6C6.8 5.6 6.88 5.6 6.96 5.68C6.88 5.68 6.8 5.76 6.8 5.84C6.8 5.92 6.72 5.92 6.64 6C6.64 6 6.56 6 6.48 6C6.56 6.08 6.56 6.16 6.48 6.16C6.4 6.16 6.32 6.16 6.24 6.24C6.24 6.24 6.16 6.24 6.16 6.32C6.16 6.4 6.08 6.4 6 6.48C5.92 6.4 5.76 6.48 5.68 6.56C5.6 6.56 5.52 6.64 5.52 6.72C5.44 6.8 5.44 6.88 5.52 6.96C5.6 6.96 5.6 7.04 5.68 7.04C5.84 7.04 6 7.12 6.08 7.12C6.08 7.2 6.08 7.28 6.08 7.36C6.08 7.36 6.08 7.44 6.16 7.44C6.16 7.44 6.24 7.44 6.32 7.44C6.32 7.44 6.4 7.36 6.4 7.28C6.48 7.12 6.56 7.04 6.64 7.04C6.72 7.04 6.8 6.96 6.88 6.88C6.88 6.88 6.96 6.8 6.96 6.72C6.96 6.64 6.96 6.56 7.04 6.56C7.12 6.48 7.12 6.4 7.2 6.4C7.2 6.16 7.36 6.16 7.6 6.24C7.76 6.32 7.76 6.4 7.68 6.48C7.68 6.56 7.68 6.56 7.76 6.56C7.84 6.56 7.92 6.56 7.92 6.48C8 6.4 8.08 6.4 8.16 6.32C8.16 6.56 8.24 6.8 8.24 6.96C8.24 6.96 8.32 6.96 8.4 6.96C8.4 6.96 8.48 6.96 8.48 7.04V7.12C8.48 7.12 8.48 7.12 8.4 7.2C8.16 7.28 7.92 7.44 7.68 7.44C7.52 7.44 7.28 7.52 7.12 7.6C7.04 7.6 6.96 7.68 6.88 7.68C6.88 7.68 6.88 7.68 6.88 7.76C6.96 7.76 7.04 7.68 7.12 7.68C7.2 7.6 7.28 7.6 7.36 7.6C7.36 7.68 7.28 7.76 7.28 7.84C7.36 8 7.52 7.92 7.6 7.92C7.44 8.08 7.2 8.16 7.04 8.16C7.12 8.08 7.2 8.08 7.28 8C7.04 8 6.8 8.08 6.64 8.24L6.56 8.32C6.56 8.4 6.48 8.48 6.4 8.48C6.08 8.56 5.92 8.72 5.76 8.88C5.76 8.88 5.68 8.88 5.68 8.8C5.68 8.88 5.68 8.96 5.68 8.96C5.68 9.04 5.6 9.2 5.52 9.2C5.36 9.36 5.28 9.36 5.2 9.44C5.12 9.52 4.96 9.52 4.88 9.6C4.8 9.68 4.8 9.84 4.72 9.84C4.64 9.92 4.56 9.92 4.48 9.84C4.4 9.84 4.32 9.76 4.32 9.76C4.24 9.76 4.16 9.76 4.08 9.84C4 9.92 3.92 9.92 3.76 9.92C3.68 10.24 3.68 10.48 3.6 10.8C3.68 10.72 3.76 10.72 3.92 10.8C3.84 10.96 3.76 11.12 3.68 11.36C3.76 11.36 3.84 11.36 3.92 11.36C4 11.36 4.08 11.36 4.08 11.36C4.24 11.36 4.24 11.44 4.24 11.52C4.24 11.6 4.16 11.68 4.16 11.76C4.16 11.84 4.16 11.84 4.16 11.92L4.08 12L4 11.92C3.92 11.84 3.92 11.76 3.92 11.68C3.76 11.6 3.68 11.6 3.6 11.6C3.6 13.76 4.48 15.76 5.92 17.2C6.08 17.36 6.32 17.52 6.48 17.68C6.48 17.68 6.48 17.6 6.4 17.6C6.16 17.36 6.16 17.12 6.08 16.8C6.08 16.4 6 15.92 5.92 15.52C5.84 15.2 5.68 14.96 5.36 14.8C5.2 14.72 5.12 14.72 5.12 14.56C5.12 14.48 5.04 14.48 5.04 14.4C4.88 14.16 4.64 13.84 4.48 13.6C4.4 13.52 4.4 13.44 4.48 13.36C4.48 13.36 4.48 13.36 4.56 13.28C4.48 13.12 4.48 13.12 4.56 12.96C4.56 12.88 4.64 12.88 4.64 12.8C4.72 12.72 4.72 12.64 4.8 12.56C4.88 12.4 4.88 12.32 4.8 12.16V12.08C4.72 12.08 4.64 12 4.56 12C4.72 12 4.8 12 4.88 12.08C4.96 11.92 5.36 11.6 5.52 11.6C5.52 11.68 5.52 11.68 5.52 11.76V11.84C5.68 11.6 5.68 11.6 5.92 11.68C6.16 11.76 6.32 11.84 6.56 11.76H6.64C6.64 11.84 6.64 11.84 6.64 11.84C6.72 11.92 6.8 12 6.88 12.08C6.96 12.24 7.12 12.32 7.28 12.32C7.36 12.32 7.44 12.32 7.52 12.32C7.68 12.32 7.76 12.4 7.76 12.56C7.76 12.64 7.76 12.8 7.84 12.88C7.92 12.88 8 12.88 8.08 13.04C8.32 12.96 8.48 13.04 8.48 13.2C8.64 13.2 8.72 13.2 8.88 13.2C9.04 13.2 9.12 13.28 9.2 13.36C9.28 13.44 9.36 13.52 9.44 13.52C9.6 13.6 9.68 13.68 9.6 13.84C9.52 14 9.44 14.24 9.28 14.4C9.2 14.64 9.2 14.72 9.2 14.8C9.2 14.96 9.2 15.04 9.2 15.2C9.2 15.36 9.12 15.52 9.04 15.68C8.96 15.76 8.96 15.76 8.8 15.76C8.72 15.76 8.72 15.76 8.64 15.76C8.56 15.84 8.48 15.84 8.32 15.92C8.24 15.92 8.24 16 8.32 16.08C8.4 16.16 8.32 16.24 8.32 16.32C8.32 16.4 8.24 16.48 8.24 16.48C8.24 16.56 8.24 16.64 8.24 16.64C8.16 16.72 8.16 16.8 8.08 16.88C8 17.04 7.92 17.04 7.76 16.96C7.68 16.96 7.68 16.88 7.6 16.88L7.68 16.96C7.76 17.04 7.76 17.04 7.84 17.12C7.92 17.28 7.84 17.36 7.68 17.36C7.6 17.36 7.6 17.36 7.52 17.36C7.44 17.36 7.44 17.36 7.44 17.52V17.6V17.68H7.36C7.36 17.68 7.28 17.68 7.28 17.6C7.28 17.68 7.36 17.68 7.36 17.76C7.44 17.84 7.44 17.84 7.36 17.92C7.36 18 7.28 18 7.28 18.08V18.16C7.36 18.24 7.44 18.32 7.52 18.4C8.4 18.96 9.44 19.28 10.48 19.44C10.64 19.44 10.8 19.44 10.88 19.44C11.2 19.44 11.68 19.76 11.68 20.24C11.68 20.72 11.2 21.04 10.88 21.04C10.8 21.04 10.8 21.04 10.8 21.04C5.84 20.72 2 16.64 2 11.6C2 6.32 6.32 2 11.6 2C16.88 2 21.2 6.32 21.2 11.6ZM5.36 7.92C5.36 7.84 5.28 7.76 5.2 7.76C5.04 7.76 4.88 7.92 4.72 8C4.88 8 5.04 8 5.2 8C5.2 8 5.2 8 5.12 8C5.04 8.16 4.88 8.24 4.8 8.4C4.8 8.4 4.8 8.48 4.8 8.56C4.88 8.56 4.88 8.56 4.96 8.48L5.04 8.4C5.12 8.32 5.12 8.24 5.2 8.24C5.28 8.16 5.36 8.16 5.44 8.24C5.44 8.24 5.44 8.32 5.36 8.32V8.4H5.44C5.44 8.4 5.52 8.4 5.52 8.32C5.6 8.32 5.6 8.24 5.68 8.24L5.76 8.16H5.68C5.36 8.08 5.36 8.08 5.36 7.92ZM16.72 5.6H16.8C16.72 5.52 16.64 5.44 16.56 5.36C16.48 5.28 16.4 5.28 16.24 5.28C16.24 5.28 16.32 5.28 16.4 5.28C16.32 5.28 16.32 5.2 16.24 5.2C16.24 5.28 16.24 5.28 16.24 5.36C16.24 5.44 16.32 5.52 16.4 5.6C16.48 5.6 16.56 5.68 16.72 5.6C16.72 5.68 16.8 5.68 16.72 5.6ZM18.48 8.72C18.56 8.8 18.64 8.8 18.8 8.8C18.88 8.8 18.96 8.8 18.96 8.72C19.04 8.64 18.96 8.56 18.88 8.48C18.88 8.48 18.8 8.48 18.72 8.4C18.8 8.4 18.8 8.4 18.88 8.4C18.88 8.4 18.88 8.32 18.8 8.32C18.8 8.32 18.72 8.32 18.72 8.24C18.64 8.16 18.56 8.16 18.48 8.08C18.48 8.08 18.4 8 18.48 7.92C18.48 7.92 18.56 7.84 18.64 7.84C18.64 7.84 18.64 7.84 18.72 7.84C18.72 7.76 18.64 7.68 18.64 7.68C18.56 7.68 18.56 7.68 18.4 7.68C18.32 7.68 18.32 7.76 18.24 7.76C18.16 7.84 18.16 7.92 18.24 8C18.32 8.08 18.4 8.24 18.56 8.32C18.64 8.4 18.64 8.48 18.56 8.56C18.4 8.64 18.4 8.72 18.48 8.72ZM19.44 10.24C19.44 10.16 19.44 10.08 19.36 10H19.28C19.12 10.08 18.96 10 18.8 9.84C18.8 9.76 18.8 9.76 18.8 9.68L18.72 9.6C18.64 9.6 18.64 9.6 18.56 9.6C18.56 9.68 18.56 9.68 18.56 9.76C18.64 9.84 18.72 9.92 18.72 10C18.8 10.16 18.8 10.16 18.96 10.16C18.96 10.32 19.04 10.32 19.2 10.24C19.28 10.16 19.36 10.16 19.44 10.08C19.44 10.16 19.44 10.16 19.44 10.24Z" fill="currentColor"/>
</svg>