<svg width="24" height="24" viewBox="0 0 24 24" fill="none" xmlns="http://www.w3.org/2000/svg">
<g clip-path="url(#clip0_1265_21705)">
<path d="M12 24C18.6274 24 24 18.6274 24 12C24 5.37258 18.6274 0 12 0C5.37258 0 0 5.37258 0 12C0 18.6274 5.37258 24 12 24Z" fill="#005396"/>
<path d="M10.0065 5.81378C10.5704 5.63217 11.1565 5.52865 11.7484 5.5061C12.5607 5.4692 13.3774 5.60106 14.1452 5.86316C15.3971 6.30504 16.4846 7.11804 17.2627 8.19378C17.4417 8.43254 17.5926 8.6892 17.738 8.94967C17.9068 9.27959 18.0593 9.61928 18.1743 9.97145C18.3262 10.4549 18.4402 10.9558 18.4755 11.4632C18.4939 11.5728 18.482 11.6846 18.4972 11.7942C18.5026 11.9315 18.5004 12.0687 18.4972 12.2071C18.482 12.3173 18.4939 12.4291 18.4755 12.5387C18.4429 12.9956 18.3485 13.447 18.2182 13.8866C18.1085 14.2496 17.9669 14.6023 17.795 14.9404C17.1549 16.1973 16.125 17.2132 14.8593 17.8359C14.5064 18.0119 14.1369 18.1524 13.7562 18.2553C13.1186 18.4382 12.4538 18.5158 11.7929 18.4974C11.6827 18.4822 11.5693 18.4941 11.4613 18.4756C10.9659 18.4415 10.4786 18.3335 10.0049 18.1859C9.05479 17.8775 8.18809 17.3552 7.47153 16.6592C6.75496 15.9633 6.20763 15.1122 5.87165 14.1715C5.66002 13.5556 5.52436 12.9115 5.50808 12.2587C5.48584 11.9456 5.50971 11.6308 5.53522 11.3183C5.58243 10.8565 5.68715 10.3996 5.82933 9.95843C6.26126 8.6644 7.08744 7.53804 8.19196 6.73734C8.43072 6.55827 8.68739 6.40634 8.94785 6.26199C9.2871 6.0822 9.64132 5.93223 10.0065 5.81378ZM11.26 8.16339V9.68386C11.2568 9.71099 11.2817 9.72618 11.2953 9.74463C11.5286 9.9899 11.7641 10.233 11.9975 10.4788C11.9958 9.70701 11.9958 8.9352 11.9975 8.16339C11.7522 8.16339 11.5053 8.16176 11.2595 8.16339H11.26ZM8.05305 8.95021C8.10894 8.98711 8.14964 9.04083 8.19685 9.08696C8.69933 9.59432 9.20344 10.1001 9.70375 10.6107C10.1623 11.0741 10.6224 11.5359 11.0788 11.9993C10.5258 12.5658 9.96258 13.1225 9.41127 13.6891C8.9701 14.134 8.5284 14.579 8.08886 15.0234C8.07724 15.0328 8.0653 15.0419 8.05305 15.0505C8.70258 15.0505 9.35375 15.0522 10.0049 15.0473C10.6696 14.3516 11.3376 13.6581 12.0007 12.9614C12.6655 13.6565 13.3318 14.3516 13.9965 15.0473C14.6461 15.0522 15.2956 15.0489 15.9446 15.0505C15.8453 14.9708 15.7672 14.8715 15.6744 14.7846C15.2093 14.3147 14.741 13.8442 14.2771 13.3727C13.8272 12.9142 13.3693 12.4627 12.9227 12.0009C13.0312 11.8924 13.1321 11.7795 13.2439 11.6726C14.0948 10.8153 14.9424 9.95463 15.7927 9.09672C15.8437 9.04789 15.886 8.99037 15.9446 8.95021C15.2934 8.95021 14.6444 8.94804 13.9949 8.9513C13.3302 9.64641 12.6638 10.3404 11.9991 11.035C11.336 10.3383 10.668 9.64479 10.0033 8.9513C9.35375 8.94967 8.70258 8.94967 8.05305 8.94967V8.95021ZM12.0024 13.5165C12.0024 14.2908 12.004 15.0641 12.0007 15.839C12.2476 15.8368 12.4945 15.839 12.7398 15.839V14.3163C12.7408 14.3082 12.7398 14.2999 12.7369 14.2923C12.734 14.2846 12.7292 14.2778 12.723 14.2724C12.5982 14.1367 12.4658 14.0103 12.3426 13.8752C12.2308 13.7531 12.1109 13.6418 12.0024 13.5165Z" fill="white"/>
</g>
<defs>
<clipPath id="clip0_1265_21705">
<rect width="24" height="24" fill="white"/>
</clipPath>
</defs>
</svg>
