<svg width="24" height="24" viewBox="0 0 24 24" fill="none" xmlns="http://www.w3.org/2000/svg">
<g clip-path="url(#clip0_1265_21697)">
<path d="M12 24C18.6274 24 24 18.6274 24 12C24 5.37258 18.6274 0 12 0C5.37258 0 0 5.37258 0 12C0 18.6274 5.37258 24 12 24Z" fill="#372D2C"/>
<path fill-rule="evenodd" clip-rule="evenodd" d="M13.6074 5.92623C13.6074 5.74337 13.3905 5.58633 13.0615 5.5C13.5102 5.53943 13.8467 5.71685 13.8467 5.92623C13.8467 6.13561 13.5102 6.31168 13.0615 6.35246C13.3871 6.26613 13.6074 6.10978 13.6074 5.92623ZM12.1011 7.13085C12.0688 7.16264 12.0253 7.18046 11.98 7.18046C11.8875 7.18046 11.8127 7.10432 11.8127 7.01051C11.8124 6.96591 11.8297 6.92299 11.8609 6.89114C11.8781 6.87354 11.8989 6.86012 11.9215 6.85153C11.882 6.81431 11.8475 6.77167 11.819 6.72454C11.7449 6.60157 11.717 6.45614 11.7405 6.31446C11.7641 6.17279 11.8374 6.04416 11.9474 5.95177C12.0573 5.85937 12.1966 5.80928 12.3403 5.8105C12.4841 5.80891 12.6238 5.85884 12.7341 5.95128C12.8444 6.04371 12.9179 6.17254 12.9415 6.31449C12.9651 6.45643 12.9371 6.60212 12.8626 6.72522C12.7881 6.84832 12.672 6.94071 12.5353 6.98568L12.5187 7.27923C13.9491 7.2797 15.0143 7.57849 15.137 7.61289L15.147 7.6157L15.1924 7.62886L16.4046 9.10149L16.4129 9.13075C16.4841 9.36949 16.5401 9.61248 16.5807 9.85829C16.7037 9.87927 16.8192 9.93168 16.916 10.0105C17.0128 10.0892 17.0876 10.1917 17.1331 10.3079C17.1762 10.4169 17.1892 10.5354 17.1707 10.6512L17.1575 10.7292L17.1439 10.8014L17.1146 10.9437L17.0688 11.17C17.2383 11.2067 17.4074 11.2457 17.5759 11.287C17.6191 11.2978 17.6566 11.3247 17.6807 11.3621L17.6798 11.3636C17.6966 11.3917 17.7047 11.4242 17.7031 11.457C17.7015 11.4898 17.6902 11.5213 17.6707 11.5477C17.6512 11.574 17.6244 11.5941 17.5935 11.6052C17.5627 11.6164 17.5292 11.6181 17.4974 11.6103C17.3331 11.5703 17.1682 11.5323 17.0034 11.4962L16.9917 11.5538C17.3764 12.7681 17.2902 14.0826 16.7503 15.2363C16.0131 16.8079 14.3205 18.5 12.3412 18.5C10.3615 18.5 8.66941 16.8079 7.93407 15.2388C7.39245 14.0861 7.30437 12.7718 7.68733 11.5572L7.67514 11.4948C7.51081 11.5304 7.34697 11.5684 7.18312 11.6084C7.15127 11.6162 7.11783 11.6144 7.08699 11.6033C7.05615 11.5921 7.02929 11.5721 7.0098 11.5457C6.99031 11.5193 6.97905 11.4878 6.97744 11.455C6.97583 11.4223 6.98394 11.3898 7.00075 11.3616C7.0248 11.3241 7.06232 11.2972 7.10559 11.2865C7.27333 11.2456 7.44157 11.2076 7.6098 11.1705L7.56396 10.9433L7.5347 10.8009L7.52105 10.7287L7.50788 10.6512C7.48532 10.4851 7.52258 10.3165 7.613 10.1754C7.70341 10.0343 7.84108 9.93005 8.00136 9.88121L8.08718 9.85975H8.09108C8.13156 9.61448 8.18763 9.37213 8.25883 9.13319L8.26663 9.10393L9.47887 7.6313L9.52422 7.61813C9.57103 7.60253 10.6692 7.28167 12.1623 7.28021L12.1487 7.04474C12.1415 7.07721 12.1251 7.10719 12.1011 7.13085ZM7.36818 7.78236C7.3961 7.76343 7.42899 7.75316 7.46271 7.75285C7.48486 7.75213 7.50691 7.75598 7.5275 7.76417C7.54808 7.77235 7.56676 7.7847 7.58236 7.80043C7.60618 7.82431 7.62243 7.85468 7.62907 7.88775C7.6357 7.92083 7.63242 7.95512 7.61964 7.98633C7.60687 8.01755 7.58516 8.0443 7.55724 8.06323C7.52933 8.08216 7.49644 8.09243 7.46271 8.09274C7.41785 8.0941 7.37502 8.07711 7.34307 8.04516C7.31924 8.02128 7.303 7.99091 7.29636 7.95784C7.28973 7.92476 7.29301 7.89047 7.30578 7.85926C7.31856 7.82804 7.34027 7.80129 7.36818 7.78236ZM8.02834 13.2113C8.00043 13.2303 7.96754 13.2405 7.93381 13.2408C7.85333 13.2408 7.78593 13.1833 7.76826 13.105C7.77074 13.7206 7.89271 14.3321 8.12971 14.9047C8.12716 14.8919 8.12601 14.8789 8.12632 14.8657C8.12703 14.835 8.13565 14.805 8.15135 14.7785C8.16612 14.7528 8.18787 14.7317 8.21408 14.7178C8.24025 14.7038 8.26981 14.6976 8.29937 14.6997C8.29943 14.6997 8.29949 14.6997 8.29954 14.6997H8.29886C8.29903 14.6997 8.2992 14.6997 8.29937 14.6997M8.15729 14.97C8.17676 15.0152 8.19695 15.06 8.21787 15.1047C8.42303 15.5378 8.67869 15.9452 8.97954 16.3184C9.00042 16.3373 9.02549 16.351 9.05268 16.3583L9.04927 16.3535L9.05658 16.3593V16.3598C9.14192 16.3822 9.24627 16.3603 9.23457 16.3062L9.22628 16.2847L9.22384 16.2798C9.08925 16.0633 8.98295 15.8307 8.90737 15.5874C8.75075 15.0985 8.69989 14.5819 8.75816 14.0719L8.76645 14.0046L8.83325 13.9724L9.04 13.8734C9.07154 13.8586 9.10341 13.8444 9.13558 13.831C9.17383 13.8147 9.21271 13.7999 9.25212 13.7866L9.2648 13.7827H9.26041C9.08243 13.7296 8.90737 13.6681 8.73573 13.5979L8.69038 13.5764L8.66599 13.5335C8.50215 13.2156 8.36757 12.8835 8.2637 12.5412C8.17578 12.5225 8.09306 12.4847 8.02142 12.4304C7.94978 12.3762 7.89098 12.3068 7.84922 12.2272L7.84727 12.2223C7.79768 12.4909 7.77155 12.762 7.76852 13.0326C7.77581 13.002 7.79144 12.9737 7.81403 12.9511C7.84583 12.9193 7.88885 12.9013 7.93381 12.9009C7.95596 12.9002 7.97801 12.9041 7.9986 12.9123C8.01918 12.9205 8.03786 12.9328 8.05346 12.9485C8.07728 12.9724 8.09353 13.0028 8.10016 13.0359C8.1068 13.0689 8.10352 13.1032 8.09074 13.1344C8.07797 13.1657 8.05626 13.1924 8.02834 13.2113M11.9784 13.8664C11.6158 13.8684 11.2533 13.8511 10.8925 13.8144C9.80899 13.6691 9.09608 13.4097 8.91078 13.336C8.30944 12.102 8.16967 10.6935 8.51678 9.3653H8.51629L8.65819 9.31459L8.89957 9.23413L9.21652 9.1405C9.30956 9.11212 9.41151 9.08565 9.51801 9.058L9.51803 9.05799L9.59443 9.0381L10.0206 8.94204C10.0589 8.93446 10.0975 8.92665 10.1364 8.91878L10.1365 8.91877L10.1365 8.91876C10.2479 8.89624 10.3619 8.87316 10.479 8.85329C10.561 8.8394 10.6431 8.82695 10.7255 8.81445L10.7255 8.81445C10.8023 8.80281 10.8793 8.79113 10.9569 8.7782C11.0705 8.75925 11.1842 8.74712 11.2968 8.7351C11.3436 8.7301 11.3903 8.72512 11.4367 8.71968C11.5433 8.70656 11.6487 8.69873 11.7527 8.691C11.8032 8.68725 11.8534 8.68351 11.9033 8.67921C11.9838 8.67189 12.0662 8.66848 12.1447 8.66556H12.153L12.3407 10.3367L12.5309 8.65141H12.7347C12.7762 8.65141 12.8168 8.65078 12.8561 8.65017C12.9314 8.649 13.0023 8.64789 13.0673 8.65141L13.3248 8.66214L13.5501 8.66994L13.3277 8.64849L13.0702 8.62411C13.0055 8.61744 12.9362 8.61388 12.8619 8.61005C12.822 8.608 12.7806 8.60586 12.7377 8.60314C12.6064 8.59342 12.4748 8.58806 12.3432 8.58705H12.3412C12.29 8.58705 12.2373 8.58591 12.1835 8.58475C12.0919 8.58278 11.9972 8.58074 11.9014 8.58412C11.8444 8.58614 11.7862 8.58705 11.7273 8.58798H11.7273C11.6296 8.58951 11.5298 8.59108 11.4294 8.59777L10.9413 8.62996C10.7774 8.64312 10.6141 8.65678 10.4531 8.67823C10.3842 8.68743 10.3157 8.69707 10.2481 8.70658L10.248 8.70659C10.1579 8.71928 10.0694 8.73173 9.98356 8.7426C9.86654 8.75718 9.75079 8.77812 9.63967 8.79823L9.56128 8.81233L9.32136 8.79331L9.79875 8.14184L12.1828 7.62204L12.1974 7.88048C11.8755 7.90583 11.6342 8.01262 11.6342 8.14087C11.6342 8.28716 11.9511 8.40614 12.3422 8.40614C12.7333 8.40614 13.0502 8.28764 13.0502 8.14087C13.0502 8.01262 12.8089 7.90583 12.487 7.88048L12.5017 7.62301L14.8754 8.14136L15.3533 8.79283L14.6892 8.84646L14.677 8.845L14.6843 8.84695H14.6745L15.9458 9.47697C15.9458 9.47697 16.4939 11.2373 15.7385 12.7333C15.6523 12.9024 15.552 13.0639 15.4386 13.2161C15.4386 13.2161 14.5189 13.6408 13.0563 13.8044C13.0589 13.7995 13.0613 13.7943 13.0635 13.7891C13.0762 13.7579 13.0795 13.7236 13.0729 13.6905C13.0662 13.6574 13.05 13.627 13.0262 13.6032C13.0106 13.5874 12.9919 13.5751 12.9713 13.5669C12.9507 13.5587 12.9287 13.5549 12.9065 13.5556C12.8617 13.5563 12.8188 13.5744 12.7871 13.6061C12.7554 13.6379 12.7373 13.6807 12.7366 13.7255C12.7395 13.766 12.7549 13.8028 12.7788 13.8317C12.6755 13.8404 12.5697 13.8477 12.4617 13.8534L12.342 13.3605L12.3427 13.3575C12.4897 13.3622 12.6361 13.3367 12.7728 13.2824L13.1483 13.159C13.9109 12.924 14.6745 12.6924 15.4386 12.4647L15.5137 12.4432L15.5381 12.3735L15.5625 12.3037L15.581 12.2364L15.6156 12.1048C15.6771 11.8463 15.721 11.584 15.7473 11.3192L15.7688 11.051L15.7736 10.9169V10.7804L15.7766 10.6409L15.7634 10.5015L15.7419 10.362C15.7328 10.3167 15.721 10.2719 15.7068 10.2279L15.6854 10.1582L15.661 10.0748L15.6439 10.0724L15.6371 10.0509L15.6127 9.96752L15.5167 9.95435C14.7249 9.862 13.9291 9.80733 13.1322 9.79051L13.0493 9.78807L13.0142 9.8578L12.5772 10.7141L12.3412 10.718L12.0828 10.7229L11.6147 9.88413L11.5903 9.83878L11.5415 9.84171C11.1451 9.86365 10.7491 9.89584 10.3537 9.93826C9.95964 9.98006 9.56706 10.0345 9.17654 10.1016H9.178C9.16259 10.1447 9.14468 10.1869 9.12436 10.2279L9.118 10.2522C9.11114 10.2781 9.10433 10.3038 9.09949 10.3298L9.09462 10.343L9.06536 10.4746L9.0439 10.6058L9.03025 10.7399C9.02538 10.8287 9.02245 10.9199 9.02538 11.0081L9.03562 11.2763C9.05366 11.5445 9.08925 11.8117 9.14289 12.0755L9.17215 12.2072L9.21019 12.3413L9.22091 12.3735L9.25846 12.3866L10.7764 12.8855C11.2231 13.0308 11.6693 13.1805 12.1145 13.3336C12.1525 13.3414 12.191 13.3468 12.2301 13.3497L12.2569 13.3521H12.2647L12.2783 13.3551L12.3344 13.3575H12.3412L12.342 13.3605L12.2188 13.8622C12.1969 13.8628 12.175 13.8634 12.153 13.8639C12.1541 13.8632 12.1551 13.8626 12.1561 13.8619C12.184 13.843 12.2057 13.8162 12.2185 13.785C12.2312 13.7538 12.2345 13.7195 12.2279 13.6864C12.2213 13.6533 12.205 13.623 12.1812 13.5991C12.1656 13.5834 12.1469 13.571 12.1263 13.5628C12.1057 13.5546 12.0837 13.5508 12.0615 13.5515C12.0162 13.5524 11.9729 13.5711 11.9412 13.6035C11.9094 13.6359 11.8916 13.6795 11.8916 13.7249C11.8945 13.7686 11.9135 13.8098 11.9448 13.8405C11.955 13.8505 11.9663 13.8592 11.9784 13.8664ZM9.178 10.1016C9.16898 10.1318 9.16037 10.1608 9.15296 10.1901C9.15595 10.1784 9.15926 10.1668 9.16289 10.1553L9.17946 10.1016H9.178ZM12.3412 13.3575L12.3427 13.3575L12.3427 13.3575H12.3412ZM13.1106 7.13425C13.0783 7.16604 13.0348 7.18386 12.9895 7.18386C12.897 7.18386 12.8222 7.1084 12.8222 7.01391C12.8219 6.96931 12.8392 6.92639 12.8704 6.89453C12.9016 6.86268 12.9442 6.8445 12.9888 6.84396C13.0113 6.84315 13.0338 6.84695 13.0549 6.85513C13.0759 6.86331 13.0951 6.8757 13.1111 6.89154C13.1273 6.90755 13.1401 6.92661 13.1489 6.94762C13.1576 6.96862 13.1621 6.99115 13.1621 7.01391C13.1614 7.05923 13.1429 7.10245 13.1106 7.13425ZM9.26094 14.4065C9.28133 14.3978 9.30322 14.3933 9.32536 14.3931H9.32468C9.34724 14.3923 9.36973 14.3961 9.39077 14.4043C9.41181 14.4125 9.43096 14.4248 9.44704 14.4407C9.46321 14.4567 9.47604 14.4758 9.48479 14.4968C9.49355 14.5178 9.49804 14.5403 9.49802 14.563C9.49731 14.6084 9.4788 14.6516 9.4465 14.6834C9.4142 14.7152 9.37068 14.733 9.32536 14.733C9.2329 14.733 9.15813 14.6569 9.15813 14.563C9.15795 14.5409 9.16213 14.5189 9.17044 14.4984C9.17874 14.4779 9.19101 14.4592 9.20654 14.4434C9.22207 14.4277 9.24056 14.4151 9.26094 14.4065ZM12.0466 6.08136C11.9583 6.17065 11.9086 6.29105 11.9082 6.41662C11.9086 6.54219 11.9583 6.6626 12.0466 6.75189C12.1349 6.84118 12.2547 6.89222 12.3802 6.89401C12.6436 6.89157 12.6436 5.93924 12.3802 5.93924C12.2547 5.94103 12.1349 5.99207 12.0466 6.08136ZM12.3403 7.01787C12.3012 7.01787 12.2627 7.01397 12.2242 7.00665L12.2788 7.97556H12.2622L12.2023 7.97703C11.9838 7.98873 11.817 8.05846 11.817 8.14233C11.817 8.23303 12.0155 8.30813 12.2622 8.30813C12.2841 8.30817 12.3059 8.30389 12.3261 8.29552C12.3464 8.28715 12.3648 8.27486 12.3802 8.25936C12.4085 8.23123 12.4257 8.19382 12.4286 8.15403C12.4314 8.11424 12.4198 8.07475 12.3958 8.04286L12.3588 7.01787H12.3403ZM12.8362 12.8153L14.2703 10.1114L14.3385 9.98361C14.084 9.96215 13.8343 9.94314 13.5905 9.93241L13.5228 10.0607L12.0209 12.8889L11.9594 13.0035L12.0082 13.022C12.1371 13.0675 12.2745 13.0839 12.4105 13.0703C12.4992 13.0669 12.5869 13.0498 12.6704 13.0196L12.7401 12.9957L12.8362 12.8153ZM14.7813 10.0226L14.7111 10.1553L13.4023 12.6231L13.3062 12.805L13.8641 12.628L13.9616 12.4442L15.1514 10.2021L15.2236 10.0655H15.208L15.1836 10.0631L14.9876 10.0416L14.7813 10.0226ZM7.70586 10.7024L7.71366 10.7745L7.72975 10.9208L7.85068 11.9575C7.85595 12.0278 7.86937 12.0971 7.89067 12.1643C7.91867 12.2435 7.96403 12.3154 8.02343 12.3748C8.08282 12.4342 8.15476 12.4796 8.23396 12.5076L8.2559 12.5144C8.02698 11.7444 7.9573 10.9359 8.0511 10.1382C7.94469 10.1677 7.85171 10.233 7.78784 10.323C7.72397 10.4131 7.69312 10.5225 7.70049 10.6326L7.70586 10.7024ZM9.88604 16.8084C10.1772 17.0856 10.5223 17.2999 10.8998 17.438L10.9154 17.4472C10.4585 16.9523 10.1708 16.2096 10.1708 15.3368C10.1685 14.8993 10.2444 14.465 10.3951 14.0543L10.3873 14.0533H10.3663C10.1898 14.065 10.0148 14.086 9.84069 14.1153L9.6393 14.1557C9.50764 14.1879 9.37695 14.2255 9.24773 14.2679L9.12193 14.3181C9.09474 14.5201 9.08836 14.7244 9.10291 14.9277C9.11509 15.1594 9.15021 15.3894 9.20775 15.6142C9.26642 15.8387 9.35291 16.0549 9.46521 16.2579C9.57828 16.4607 9.72001 16.6461 9.88604 16.8084ZM12.3344 17.0522C12.5664 17.054 12.7947 16.9949 12.9966 16.8806V16.8811C13.093 16.7795 13.1756 16.6657 13.2424 16.5427C13.1241 16.6704 12.9802 16.7718 12.82 16.8401C12.6598 16.9084 12.487 16.9421 12.313 16.9391C12.1389 16.936 11.9674 16.8962 11.8097 16.8222C11.6521 16.7483 11.5118 16.6419 11.3982 16.51C11.4654 16.6387 11.5493 16.7579 11.6478 16.8645C11.8553 16.9885 12.0927 17.0534 12.3344 17.0522ZM11.9682 16.6056C12.0844 16.6532 12.2089 16.6773 12.3344 16.6768H12.3349V16.6763C12.5238 16.6753 12.7081 16.6184 12.8646 16.5128C13.0212 16.4071 13.1429 16.2575 13.2145 16.0827C13.2861 15.9079 13.3042 15.7158 13.2667 15.5307C13.2292 15.3456 13.1377 15.1758 13.0038 15.0427C12.8698 14.9095 12.6994 14.8191 12.5141 14.7827C12.3288 14.7463 12.1368 14.7657 11.9625 14.8383C11.7881 14.9109 11.6392 15.0336 11.5345 15.1908C11.4298 15.348 11.3741 15.5326 11.3743 15.7215V15.7249C11.3748 15.8505 11.4 15.9747 11.4486 16.0905C11.4971 16.2063 11.568 16.3114 11.6571 16.3998C11.7463 16.4882 11.852 16.5581 11.9682 16.6056ZM13.1207 14.7951C13.347 14.9832 13.4985 15.2461 13.5476 15.5362V15.5367C13.5609 15.4315 13.5692 15.3257 13.5725 15.2197C13.4715 14.9763 13.3004 14.7683 13.081 14.6222C12.8617 14.4761 12.6038 14.3984 12.3403 14.3991H12.3354C12.0665 14.3975 11.8035 14.4774 11.5809 14.6282C11.3583 14.7791 11.1866 14.9938 11.0885 15.2441C11.0919 15.3555 11.1008 15.4667 11.1153 15.5772C11.1547 15.2856 11.2972 15.0177 11.5171 14.8222C11.737 14.6266 12.0197 14.5164 12.3139 14.5114C12.6081 14.5065 12.8943 14.6071 13.1207 14.7951ZM13.7632 17.4531H13.7592C15.4138 16.5266 15.3406 14.5049 15.3406 14.5049C15.3406 14.5049 14.9812 14.1509 14.2912 14.0514H14.2844C14.4357 14.4619 14.5118 14.8963 14.5092 15.3338C14.5092 16.2135 14.2166 16.9611 13.7534 17.4565L13.7632 17.4531ZM16.9098 13.198V13.0937C16.9099 13.0803 16.9104 13.067 16.9113 13.0537C16.9088 12.7748 16.882 12.4963 16.8308 12.2223C16.744 12.3871 16.588 12.5041 16.4051 12.5417C16.3017 12.883 16.1676 13.2146 16.0043 13.5326L15.9799 13.5755L15.9345 13.5969C15.7644 13.6681 15.5903 13.7305 15.4133 13.7827L15.4084 13.7842L15.4274 13.791L15.6395 13.8768C15.6999 13.9025 15.758 13.9319 15.8177 13.9621L15.8177 13.9621L15.8458 13.9763L15.9131 14.0085L15.9209 14.0753C15.9778 14.5842 15.9276 15.0995 15.7736 15.5879C15.6981 15.8307 15.5922 16.0628 15.4591 16.2803L15.4542 16.2852L15.4459 16.3067C15.4342 16.3637 15.542 16.3847 15.6264 16.3603L15.6337 16.3544L15.6308 16.3593C15.6571 16.3519 15.6812 16.3382 15.701 16.3193C15.9361 16.0281 16.1434 15.7154 16.3203 15.3855C16.3352 15.3585 16.3495 15.3311 16.3637 15.3039L16.3724 15.287L16.389 15.2548C16.6211 14.8019 16.7789 14.3145 16.8562 13.8115V13.8081L16.8698 13.7115V13.7066C16.8742 13.6732 16.8783 13.6397 16.882 13.6062L16.8828 13.6003C16.8836 13.5945 16.8844 13.5886 16.8844 13.5828C16.8882 13.5499 16.8911 13.5162 16.8939 13.4828L16.8942 13.4789C16.8947 13.4735 16.8953 13.468 16.896 13.4624L16.896 13.4624C16.8973 13.4511 16.8986 13.4398 16.8986 13.4287C16.9028 13.3755 16.9057 13.3221 16.9074 13.2687C16.9075 13.2637 16.9076 13.2587 16.9078 13.2536C16.908 13.2487 16.9083 13.2438 16.9085 13.2388C16.9092 13.2253 16.9098 13.2118 16.9098 13.198ZM17.0959 17.3245C17.4239 16.9186 17.713 16.4827 17.9593 16.0227C17.7075 16.4861 17.4142 16.9257 17.083 17.336C17.0875 17.3324 17.0919 17.3286 17.0959 17.3245ZM6.30893 14.6665C6.02082 13.6772 5.96774 12.6344 6.15394 11.621L6.15054 11.6142C5.89958 12.9748 6.08046 14.3798 6.66786 15.6325C6.95406 16.2375 7.31027 16.8058 7.7297 17.3265C7.73562 17.3324 7.74199 17.3379 7.74874 17.3428C7.32304 16.8176 6.96155 16.2434 6.67194 15.6325C6.52666 15.3201 6.40531 14.9972 6.30893 14.6665ZM7.94928 13.8752L8.04173 13.8296L8.12331 13.7902C8.06503 13.818 8.00702 13.8463 7.94928 13.8752ZM8.31309 13.846L8.38175 13.795H8.35864L8.2818 13.8659C8.18999 13.9256 8.10884 14.0004 8.04186 14.0873L8.2818 13.8659C8.29232 13.859 8.30298 13.8524 8.31377 13.846H8.31309ZM8.09625 8.84801L8.25329 8.65767H8.22745C8.17742 8.731 8.12026 8.80241 8.06311 8.87382L8.06311 8.87382C8.0302 8.91495 7.99728 8.95608 7.96573 8.99757C8.01536 8.94726 8.05411 8.90036 8.09625 8.84801Z" fill="white"/>
</g>
<defs>
<clipPath id="clip0_1265_21697">
<rect width="24" height="24" fill="white"/>
</clipPath>
</defs>
</svg>
