<svg viewBox="0 0 24 24" fill="none" xmlns="http://www.w3.org/2000/svg">
<g clip-path="url(#clip0_1265_21693)">
<path d="M12 24C18.6274 24 24 18.6274 24 12C24 5.37258 18.6274 0 12 0C5.37258 0 0 5.37258 0 12C0 18.6274 5.37258 24 12 24Z" fill="#00A6C4"/>
<path d="M17.1864 8.75L17.3046 8.94559C17.8939 9.9352 18.2048 11.0657 18.2045 12.2175C18.1939 15.6849 15.4184 18.5 12 18.5H11.9894C8.57094 18.5 5.7848 15.663 5.79544 12.1956C5.79544 11.0327 6.1169 9.90227 6.70603 8.92373L6.81358 8.73936L7.38144 9.3155C7.26888 9.48003 7.17885 9.65889 7.11376 9.84732C6.89724 10.4473 6.92668 11.1085 7.19566 11.6869C7.46463 12.2652 7.95134 12.7138 8.54967 12.9348C8.90142 13.0601 9.27773 13.1008 9.64813 13.0535C10.0185 13.0063 10.3726 12.8725 10.6817 12.663L12 14.0109L13.5109 12.478C13.6504 12.5761 13.8111 12.6524 13.9825 12.7174C15.1938 13.1523 16.5222 12.5105 16.9506 11.2933C17.2077 10.5759 17.0901 9.82605 16.7149 9.22805L17.1864 8.75ZM8.07812 10.0216L9.85676 11.815C9.64226 11.9894 9.37458 12.0869 9.08503 12.0869C8.38894 12.0869 7.82049 11.5107 7.82049 10.8046C7.82049 10.5109 7.9174 10.2391 8.07812 10.0216ZM14.2827 11.7063L16.04 9.92414C16.1795 10.131 16.2539 10.3803 16.2539 10.6415C16.2539 11.3476 15.6867 11.9238 14.9894 11.9238C14.7217 11.9238 14.4859 11.8475 14.2827 11.7063ZM12.0213 13.0542L6.89926 7.83645L7.10253 7.61959C8.36708 6.2605 10.0925 5.5 11.9468 5.5H11.9574C13.833 5.5 15.6329 6.31545 16.8868 7.72773L17.08 7.94577L12.0219 13.0542H12.0213ZM7.7348 7.83645L12.0213 12.1956L16.2545 7.92391C15.1188 6.77164 13.5759 6.10864 11.9687 6.10864H11.9574C10.3608 6.10864 8.87171 6.71727 7.7354 7.83705L7.7348 7.83645Z" fill="white"/>
</g>
<defs>
<clipPath id="clip0_1265_21693">
<rect width="24" height="24" fill="white"/>
</clipPath>
</defs>
</svg>