<svg width="24" height="24" viewBox="0 0 24 24" fill="none" xmlns="http://www.w3.org/2000/svg">
<g clip-path="url(#clip0_620_19468)">
<path fill-rule="evenodd" clip-rule="evenodd" d="M3.63399 7.03516C3.66445 7.06272 3.68942 7.08361 3.71257 7.1064C3.9598 7.34889 4.2049 7.59356 4.45527 7.83297C4.51142 7.8866 4.51172 7.92342 4.47152 7.98511C3.94691 8.78829 3.75613 9.66829 3.93117 10.601C4.16581 11.8522 4.88515 12.7638 6.06037 13.3133C6.75454 13.6376 7.49084 13.7209 8.24775 13.6074C8.75642 13.5311 9.2328 13.3576 9.66756 13.0848C9.73964 13.0395 9.77914 13.0447 9.83793 13.1032C10.4768 13.7387 11.1195 14.3704 11.7577 15.0065C11.8281 15.0768 11.8646 15.0848 11.9404 15.0099C12.6699 14.2885 13.4053 13.5727 14.1348 12.8513C14.215 12.7719 14.2653 12.7582 14.3705 12.8202C15.0084 13.1965 15.7035 13.3473 16.4466 13.3133C17.9217 13.2457 19.2689 12.2355 19.726 10.8486C20.0721 9.79814 19.9437 8.80152 19.3797 7.85356C19.3428 7.79167 19.3395 7.75337 19.396 7.69993C19.6016 7.5059 19.8014 7.3062 20.0038 7.10889C20.0227 7.09058 20.0437 7.07446 20.0641 7.05695C22.2256 10.1703 22.5304 15.1786 19.0528 18.8663C15.451 22.6857 9.50694 22.983 5.5382 19.7046C1.50783 16.3752 1.02861 10.909 3.63399 7.03516Z" fill="#282B2C"/>
<path fill-rule="evenodd" clip-rule="evenodd" d="M18.6124 5.80004C14.7445 1.92412 8.45555 2.25278 5.09996 5.64532C5.11946 5.66691 5.13844 5.68979 5.15956 5.71049C7.37638 7.8877 9.59361 10.0645 11.8091 12.2431C11.8715 12.3044 11.9068 12.297 11.9637 12.2403C12.2499 11.9559 12.5389 11.6743 12.8281 11.3928C14.6976 9.57228 16.5673 7.75188 18.438 5.93258C18.4881 5.88372 18.5503 5.84671 18.6124 5.80004ZM11.8815 13.6178C9.17734 10.9581 6.48038 8.30571 3.77661 5.64651C3.79611 5.62104 3.81174 5.59676 3.83113 5.57576C4.80644 4.51517 5.9384 3.65825 7.25973 3.0485C7.9809 2.71566 8.7304 2.46482 9.51015 2.30024C10.4081 2.11079 11.3159 2.03377 12.2329 2.07417C13.5702 2.13288 14.8498 2.43298 16.0727 2.9678C17.5432 3.61079 18.7846 4.55089 19.8382 5.73795C19.8991 5.80661 19.8641 5.83735 19.8172 5.88303C18.5066 7.15994 17.1966 8.43735 15.8869 9.71507C14.58 10.99 13.2734 12.2653 11.9664 13.5403C11.9427 13.5634 11.9173 13.5851 11.8815 13.6178Z" fill="#282B2C"/>
<path fill-rule="evenodd" clip-rule="evenodd" d="M8.39689 11.7535C7.84791 12.2459 6.62761 12.3599 5.81983 11.5689C5.00931 10.7755 5.12029 9.60185 5.65251 8.9917C6.56862 9.91359 7.48342 10.8342 8.39689 11.7535Z" fill="#282B2C"/>
<path fill-rule="evenodd" clip-rule="evenodd" d="M15.4955 11.5632C16.4145 10.6601 17.3294 9.76121 18.2441 8.8623C18.6308 9.28648 18.8103 10.3694 18.1408 11.1676C17.3962 12.0551 16.1679 12.0501 15.4955 11.5632Z" fill="#282B2C"/>
</g>
<defs>
<clipPath id="clip0_620_19468">
<rect width="19.697" height="20" fill="white" transform="translate(2 2)"/>
</clipPath>
</defs>
</svg>
