<svg width="24" height="24" viewBox="0 0 24 24" fill="none" xmlns="http://www.w3.org/2000/svg">
<g clip-path="url(#clip0_1265_21689)">
<path d="M12 24C18.6274 24 24 18.6274 24 12C24 5.37258 18.6274 0 12 0C5.37258 0 0 5.37258 0 12C0 18.6274 5.37258 24 12 24Z" fill="#001D57"/>
<path d="M14.5727 5L15.3667 5.79464L13.8639 7.33905C14.1807 7.82085 14.3509 8.38912 14.3509 8.9752C14.3563 9.74634 14.0581 10.4886 13.5207 11.0417C13.1283 11.4562 12.6171 11.7388 12.0574 11.8508V13.1966C12.6143 13.3116 13.1235 13.5923 13.518 14.0018C14.057 14.5553 14.3563 15.2989 14.3509 16.0716C14.3561 16.8439 14.0569 17.5873 13.518 18.1407C13.2554 18.4127 12.9406 18.6291 12.5924 18.7767C12.2443 18.9244 11.87 19.0003 11.4918 19C11.1135 19.0011 10.7389 18.9256 10.3907 18.7779C10.0424 18.6302 9.72772 18.4134 9.4656 18.1407C8.92837 17.5863 8.62962 16.8435 8.63334 16.0716C8.63334 15.2927 8.92902 14.5542 9.46362 14.0044C9.85608 13.5902 10.3673 13.3077 10.9268 13.1959V11.8495C10.37 11.7345 9.86083 11.4538 9.46626 11.0443C8.92863 10.4899 8.62962 9.74684 8.63334 8.97454C8.63334 8.19574 8.92902 7.45719 9.46626 6.90543C9.72884 6.63323 10.0436 6.41678 10.3918 6.26902C10.7399 6.12125 11.1143 6.04521 11.4925 6.04545C12.0601 6.04545 12.6059 6.21837 13.0732 6.53979L14.5734 5H14.5727ZM11.4925 14.2777C11.2633 14.2758 11.0363 14.3212 10.8254 14.4109C10.6146 14.5006 10.4244 14.6327 10.2668 14.7991C9.93655 15.14 9.75293 15.5968 9.75534 16.0716C9.75534 16.5501 9.93684 16.9969 10.2668 17.3434C10.4256 17.5082 10.616 17.6393 10.8266 17.7289C11.0371 17.8185 11.2636 17.8647 11.4925 17.8648C11.7215 17.8665 11.9484 17.8211 12.1592 17.7314C12.3699 17.6417 12.5599 17.5097 12.7174 17.3434C13.0476 17.0026 13.2312 16.546 13.2289 16.0716C13.2289 15.5931 13.0474 15.1462 12.7155 14.7971C12.5581 14.6313 12.3683 14.4997 12.1579 14.4103C11.9475 14.321 11.721 14.2758 11.4925 14.2777ZM12.7155 10.2582C13.0468 9.91697 13.2311 9.45942 13.2289 8.98378C13.2319 8.74841 13.1883 8.51477 13.1005 8.29636C13.0127 8.07795 12.8825 7.8791 12.7174 7.71129C12.5588 7.5465 12.3685 7.4154 12.1581 7.32581C11.9476 7.23622 11.7212 7.19 11.4925 7.18989C11.2633 7.18805 11.0363 7.2334 10.8254 7.3231C10.6146 7.4128 10.4244 7.54494 10.2668 7.71129C9.93655 8.05228 9.75293 8.50906 9.75534 8.98378C9.75534 9.46228 9.93684 9.9091 10.2668 10.2556C10.4256 10.4204 10.616 10.5515 10.8266 10.6411C11.0371 10.7307 11.2636 10.7769 11.4925 10.777C11.9617 10.777 12.3947 10.5948 12.7155 10.2582Z" fill="white"/>
</g>
<defs>
<clipPath id="clip0_1265_21689">
<rect width="24" height="24" fill="white"/>
</clipPath>
</defs>
</svg>
