<svg width="24" height="24" viewBox="0 0 24 24" fill="none" xmlns="http://www.w3.org/2000/svg">
<g clip-path="url(#clip0_1265_21685)">
<path d="M12 24C18.6274 24 24 18.6274 24 12C24 5.37258 18.6274 0 12 0C5.37258 0 0 5.37258 0 12C0 18.6274 5.37258 24 12 24Z" fill="#F1B32B"/>
<path d="M12 5.5C8.40979 5.5 5.5 8.40979 5.5 12C5.5 15.5902 8.40979 18.5 12 18.5C15.5902 18.5 18.5 15.5902 18.5 12C18.5 10.2761 17.8152 8.62279 16.5962 7.40381C15.3772 6.18482 13.7239 5.5 12 5.5ZM12 16.8791C10.706 16.8791 9.46494 16.3651 8.54992 15.4501C7.6349 14.5351 7.12085 13.294 7.12085 12C7.12085 10.706 7.6349 9.46494 8.54992 8.54992C9.46494 7.6349 10.706 7.12085 12 7.12085C13.294 7.12085 14.5351 7.6349 15.4501 8.54992C16.3651 9.46494 16.8791 10.706 16.8791 12C16.8791 13.294 16.3651 14.5351 15.4501 15.4501C14.5351 16.3651 13.294 16.8791 12 16.8791ZM10.3791 12.0055L12.0055 14.4396L13.6209 12.0055L12.0055 9.56596L10.3791 12.0055Z" fill="white"/>
</g>
<defs>
<clipPath id="clip0_1265_21685">
<rect width="24" height="24" fill="white"/>
</clipPath>
</defs>
</svg>
