<svg viewBox="0 0 24 24" fill="none" xmlns="http://www.w3.org/2000/svg">
<path d="M17.2631 6.73682H6.73682V17.2631H17.2631V6.73682Z" fill="white"/>
<path d="M17.2632 22L22 17.2632H17.2632V22Z" fill="#EA4335"/>
<path d="M22 6.73682H17.2632V17.2631H22V6.73682Z" fill="#FBBC04"/>
<path d="M17.2631 17.2632H6.73682V22H17.2631V17.2632Z" fill="#34A853"/>
<path d="M2 17.2632V20.4211C2 21.2934 2.70658 22 3.57895 22H6.73684V17.2632H2Z" fill="#188038"/>
<path d="M22 6.73684V3.57895C22 2.70658 21.2934 2 20.4211 2H17.2632V6.73684H22Z" fill="#1967D2"/>
<path d="M17.2632 2H3.57895C2.70658 2 2 2.70658 2 3.57895V17.2632H6.73684V6.73684H17.2632V2Z" fill="#4285F4"/>
<path d="M8.89608 14.9027C8.50266 14.6369 8.23029 14.2487 8.0816 13.7356L8.99476 13.3592C9.07766 13.675 9.22239 13.9198 9.42897 14.0935C9.63424 14.2671 9.88424 14.3527 10.1763 14.3527C10.475 14.3527 10.7316 14.2619 10.9461 14.0803C11.1606 13.8987 11.2684 13.6671 11.2684 13.3869C11.2684 13.1 11.1553 12.8658 10.929 12.6842C10.7027 12.5027 10.4184 12.4119 10.079 12.4119H9.55134V11.5079H10.025C10.3171 11.5079 10.5632 11.429 10.7632 11.2711C10.9632 11.1132 11.0632 10.8974 11.0632 10.6224C11.0632 10.3777 10.9737 10.1829 10.7948 10.0369C10.6158 9.89083 10.3895 9.81714 10.1145 9.81714C9.84608 9.81714 9.63292 9.8882 9.47502 10.0316C9.31723 10.1754 9.1986 10.357 9.13029 10.5592L8.22634 10.1829C8.34608 9.84346 8.56581 9.54346 8.88818 9.28425C9.21055 9.02504 9.62239 8.89478 10.1224 8.89478C10.4921 8.89478 10.825 8.96583 11.1198 9.10925C11.4145 9.25267 11.6461 9.45135 11.8132 9.70399C11.9803 9.95793 12.0632 10.2421 12.0632 10.5579C12.0632 10.8803 11.9856 11.1527 11.8303 11.3764C11.675 11.6 11.4842 11.7711 11.2579 11.8908V11.9448C11.5501 12.0653 11.804 12.2631 11.9921 12.5171C12.1829 12.7737 12.279 13.0803 12.279 13.4382C12.279 13.7961 12.1882 14.1158 12.0066 14.3961C11.825 14.6764 11.5737 14.8974 11.2553 15.0579C10.9356 15.2185 10.5763 15.3 10.1777 15.3C9.71581 15.3014 9.2895 15.1685 8.89608 14.9027ZM14.5053 10.3711L13.5027 11.0961L13.0013 10.3356L14.8 9.0382H15.4895V15.1579H14.5053V10.3711Z" fill="#4285F4"/>
</svg>