<svg width="24" height="24" viewBox="0 0 24 24" fill="none" xmlns="http://www.w3.org/2000/svg">
<path fill-rule="evenodd" clip-rule="evenodd" d="M21.1667 18.3333H2.83333C2.3725 18.3333 2 17.96 2 17.5V5.83333C2 5.37333 2.3725 5 2.83333 5C3.29417 5 3.66667 5.37333 3.66667 5.83333V16.6667H21.1667C21.6275 16.6667 22 17.04 22 17.5C22 17.96 21.6275 18.3333 21.1667 18.3333ZM19.4583 13.5917C19.37 13.9233 19.1183 14.1667 18.75 14.1667H16.25C15.7892 14.1667 15.4167 13.7933 15.4167 13.3333C15.4167 12.8733 15.7892 12.5 16.25 12.5H16.4142L12.8775 9.46833L10.9225 11.4225C10.6217 11.7233 10.1442 11.7483 9.8125 11.4842L5.64583 8.15083C5.28666 7.86333 5.22833 7.33916 5.51583 6.97917C5.80416 6.62 6.3275 6.56083 6.6875 6.84916L10.2717 9.71667L12.2442 7.74417C12.5517 7.43583 13.045 7.41667 13.3758 7.70083L17.9167 11.5933V10.8333C17.9167 10.3733 18.2892 10 18.75 10C19.21 10 19.5 10.3733 19.5 10.8333V13.3333C19.5 13.4092 19.4808 13.4775 19.4658 13.5475C19.4617 13.5617 19.4633 13.5767 19.4583 13.5917Z" fill="#6B7084"/>
</svg>
