<svg viewBox="0 0 24 24" fill="none" xmlns="http://www.w3.org/2000/svg">
<path fill-rule="evenodd" clip-rule="evenodd" d="M21.1667 18.3333H2.83333C2.3725 18.3333 2 17.96 2 17.5V5.83333C2 5.37333 2.3725 5 2.83333 5C3.29417 5 3.66667 5.37333 3.66667 5.83333V16.6667H21.1667C21.6275 16.6667 22 17.04 22 17.5C22 17.96 21.6275 18.3333 21.1667 18.3333ZM18.25 9.16667C18.1842 9.16667 18.1267 9.13833 18.0633 9.12917L14.4908 12.13C14.465 12.7967 13.9225 13.3333 13.25 13.3333C12.615 13.3333 12.11 12.85 12.0308 12.2367L10.4233 11.0883L7.82167 13.69C7.8225 13.7108 7.83333 13.7292 7.83333 13.75C7.83333 14.4392 7.2725 15 6.58333 15C5.89417 15 5.33333 14.4392 5.33333 13.75C5.33333 13.0608 5.89417 12.5 6.58333 12.5C6.605 12.5 6.6225 12.5108 6.64333 12.5117L9.74417 9.41083C9.76833 9.38667 9.8 9.3775 9.82583 9.35667C9.87 9.32167 9.91333 9.29 9.96333 9.26583C10.0117 9.24083 10.0608 9.22417 10.1133 9.20917C10.1633 9.19583 10.2117 9.18417 10.2642 9.18C10.3183 9.17583 10.3708 9.17833 10.425 9.18417C10.4767 9.19 10.5258 9.19833 10.5767 9.21417C10.63 9.23083 10.6792 9.255 10.7292 9.2825C10.7583 9.29833 10.79 9.3025 10.8175 9.32167L13.0033 10.8833C13.0858 10.8658 13.1625 10.8333 13.25 10.8333C13.305 10.8333 13.3517 10.8575 13.405 10.865L17.0175 7.83083C17.0642 7.18333 17.5917 6.66667 18.25 6.66667C18.9392 6.66667 19.5 7.2275 19.5 7.91667C19.5 8.60583 18.9392 9.16667 18.25 9.16667Z" fill="currentColor"/>
</svg>