<svg width="24" height="24" viewBox="0 0 24 24" fill="none" xmlns="http://www.w3.org/2000/svg">
<path fill-rule="evenodd" clip-rule="evenodd" d="M21.1667 18.3333H2.83333C2.3725 18.3333 2 17.96 2 17.5V5.83333C2 5.37333 2.3725 5 2.83333 5C3.29417 5 3.66667 5.37333 3.66667 5.83333V16.6667H21.1667C21.6275 16.6667 22 17.04 22 17.5C22 17.96 21.6275 18.3333 21.1667 18.3333ZM18.75 10.8333C18.2892 10.8333 17.9167 10.46 17.9167 10V9.24083L13.375 13.1325C13.045 13.4158 12.5517 13.3975 12.2442 13.0892L10.2717 11.1167L6.68752 13.9842C6.53336 14.1075 6.35002 14.1667 6.16752 14.1667C5.92252 14.1667 5.68086 14.0592 5.51586 13.8542C5.22836 13.495 5.28669 12.97 5.64586 12.6825L9.81252 9.34917C10.1442 9.08417 10.6217 9.11 10.9225 9.41083L12.8775 11.365L16.4142 8.33333H16.25C15.7892 8.33333 15.4167 7.96 15.4167 7.5C15.4167 7.04 15.7892 6.66667 16.25 6.66667H18.75C19.1192 6.66667 19.37 6.91083 19.4584 7.2425C19.4625 7.25583 19.4617 7.27 19.465 7.28417C19.4809 7.35417 19.5 7.42333 19.5 7.5V10C19.5 10.46 19.21 10.8333 18.75 10.8333Z" fill="#6B7084"/>
</svg>
