<svg width="24" height="24" viewBox="0 0 24 24" fill="none" xmlns="http://www.w3.org/2000/svg">
<g clip-path="url(#clip0_1265_21681)">
<path d="M12 24C18.6274 24 24 18.6274 24 12C24 5.37258 18.6274 0 12 0C5.37258 0 0 5.37258 0 12C0 18.6274 5.37258 24 12 24Z" fill="#5411B3"/>
<path fill-rule="evenodd" clip-rule="evenodd" d="M12.0312 5.5C12.3444 5.6885 12.6552 5.88114 12.9707 6.06491C14.4687 6.93355 15.9666 7.801 17.4664 8.66609C17.5651 8.72282 17.6088 8.78605 17.6088 8.90718C17.6058 10.9706 17.6064 13.0341 17.6135 15.0975C17.6135 15.2323 17.5521 15.2884 17.454 15.3451C15.6712 16.3769 13.8896 17.4104 12.108 18.4439C12.0808 18.4598 12.0566 18.4811 12.0312 18.5H11.9662C11.4285 18.1833 10.8907 17.8636 10.3512 17.5498C9.07842 16.8106 7.80442 16.0725 6.52924 15.338C6.4211 15.276 6.38565 15.2051 6.38624 15.081C6.39215 13.0341 6.39333 10.9872 6.38919 8.93968C6.38919 8.79314 6.43942 8.71927 6.55997 8.65014C8.32619 7.63141 10.0895 6.60914 11.8533 5.58686C11.8941 5.56323 11.929 5.52895 11.9662 5.5H12.0312ZM13.6893 15.8291C13.9333 15.9963 14.1721 16.1718 14.4179 16.3491C14.4315 16.3432 14.4516 16.3349 14.4699 16.3249C15.2676 15.8634 16.0671 15.403 16.8625 14.9362C16.9097 14.9085 16.9511 14.8269 16.9511 14.7708C16.9552 12.9236 16.9546 11.077 16.9493 9.23041C16.9466 9.19826 16.937 9.16709 16.9211 9.13903C16.9052 9.11097 16.8834 9.08671 16.8571 9.06791C16.0712 8.60582 15.2812 8.152 14.4947 7.69168C14.4131 7.64441 14.3676 7.65859 14.2985 7.71236C14.1076 7.86186 12.2309 9.00823 11.4958 9.44964C10.9215 9.79355 10.3601 10.1564 9.91574 10.6728C9.30296 11.3849 9.24565 12.3717 9.7816 13.1458C10.0469 13.5299 10.4009 13.8218 10.7802 14.0812C11.0828 14.2874 11.3948 14.4789 11.7021 14.6768C11.6938 14.6886 11.6891 14.7005 11.6808 14.7052C11.2754 14.9404 10.8712 15.1779 10.4611 15.4066C10.4216 15.4285 10.3394 15.4066 10.2945 15.3782C9.85884 15.0971 9.45917 14.7637 9.10442 14.3855C8.08215 13.3136 7.87415 11.5568 8.61987 10.2751C8.96336 9.68388 9.44106 9.18168 10.0144 8.80909C10.759 8.32218 12.8331 7.09132 13.1078 6.92291C13.0842 6.89218 13.0777 6.87564 13.0653 6.86795C12.7391 6.67768 12.4153 6.48386 12.0844 6.30245C12.0359 6.27586 11.9479 6.28591 11.8953 6.31309C11.7133 6.40705 11.539 6.51518 11.3623 6.61859C11.2063 6.70959 11.0509 6.80177 10.8718 6.90755L11.7216 7.44173C11.2872 7.69818 10.8766 7.944 10.4611 8.18214C10.4281 8.20105 10.3571 8.18627 10.3211 8.16145C10.1154 8.02301 9.91473 7.87715 9.71956 7.72418C9.63387 7.65623 9.57715 7.64973 9.48142 7.70586C8.70863 8.15777 7.93375 8.60608 7.15678 9.05077C7.0711 9.09982 7.04333 9.15714 7.04333 9.25641C7.04628 11.087 7.04569 12.9177 7.04274 14.7477C7.04274 14.8458 7.06815 14.9037 7.15619 14.9545C7.92792 15.3965 8.69728 15.8433 9.46487 16.293C9.54997 16.3432 9.60669 16.3408 9.69237 16.2835C10.2431 15.9154 12.7627 14.3359 13.463 13.9004C13.5817 13.8265 13.6816 13.7207 13.7891 13.6297L13.7714 13.5884H11.1561C11.422 13.1263 11.6701 12.6902 11.9272 12.2594C11.9508 12.2204 12.0377 12.2039 12.0956 12.2039C13.2816 12.2009 14.4681 12.2021 15.6541 12.2021C15.7013 12.2021 15.7486 12.2074 15.8059 12.2104C15.8089 12.2665 15.8219 12.3167 15.8112 12.3605C15.7332 12.6849 15.6812 13.0199 15.5631 13.3295C15.283 14.0658 14.7636 14.6319 14.1307 15.068C13.4393 15.5437 11.2382 16.8407 10.8647 17.0635C10.8825 17.0948 10.8848 17.1078 10.8925 17.1125C11.12 17.2467 11.3641 17.359 11.5715 17.5197C11.8699 17.7501 12.1299 17.749 12.4283 17.5197C12.6434 17.3548 12.8951 17.2384 13.1557 17.0854L12.2906 16.5447C12.3142 16.524 12.3278 16.5075 12.345 16.4974C12.7409 16.2675 13.1368 16.0365 13.5362 15.812C13.5741 15.7913 13.6509 15.8025 13.6893 15.8291ZM15.3994 10.3118C15.6032 10.6734 15.7551 11.1385 15.7776 11.4971C15.3769 11.4971 14.9905 11.4995 14.6034 11.4942C14.568 11.4936 14.5124 11.4528 14.5012 11.4185C14.3121 10.8347 13.9085 10.4199 13.4316 10.0713C13.0931 9.82368 12.7326 9.60564 12.3822 9.374C12.3526 9.35509 12.3237 9.33441 12.2758 9.30132C12.3556 9.25345 12.4176 9.21505 12.4815 9.17782C12.8076 8.98873 13.1315 8.7955 13.4624 8.6135C13.5215 8.58041 13.6278 8.56032 13.6757 8.59164C14.3671 9.04605 14.9846 9.57668 15.3994 10.3118Z" fill="white"/>
</g>
<defs>
<clipPath id="clip0_1265_21681">
<rect width="24" height="24" fill="white"/>
</clipPath>
</defs>
</svg>
