<svg width="24" height="24" viewBox="0 0 24 24" fill="none" xmlns="http://www.w3.org/2000/svg">
<path fill-rule="evenodd" clip-rule="evenodd" d="M21.1304 22H16.7826C16.3026 22 15.913 21.6104 15.913 21.1304V16.7826C15.913 16.3026 16.3026 15.913 16.7826 15.913H21.1304C21.6104 15.913 22 16.3026 22 16.7826V21.1304C22 21.6104 21.6104 22 21.1304 22ZM20.2609 17.6522H17.6522V20.2609H20.2609V17.6522ZM21.1304 15.0435H16.7826C16.3026 15.0435 15.913 14.6539 15.913 14.1739V9.82609C15.913 9.34609 16.3026 8.95652 16.7826 8.95652H21.1304C21.6104 8.95652 22 9.34609 22 9.82609V14.1739C22 14.6539 21.6104 15.0435 21.1304 15.0435ZM20.2609 10.6957H17.6522V13.3043H20.2609V10.6957ZM21.1304 8.08696H16.7826C16.3026 8.08696 15.913 7.69739 15.913 7.21739V2.86957C15.913 2.38957 16.3026 2 16.7826 2H21.1304C21.6104 2 22 2.38957 22 2.86957V7.21739C22 7.69739 21.6104 8.08696 21.1304 8.08696ZM20.2609 3.73913H17.6522V6.34783H20.2609V3.73913ZM14.1739 22H9.82609C9.34609 22 8.95652 21.6104 8.95652 21.1304V16.7826C8.95652 16.3026 9.34609 15.913 9.82609 15.913H14.1739C14.6539 15.913 15.0435 16.3026 15.0435 16.7826V21.1304C15.0435 21.6104 14.6539 22 14.1739 22ZM13.3043 17.6522H10.6957V20.2609H13.3043V17.6522ZM14.1739 15.0435H9.82609C9.34609 15.0435 8.95652 14.6539 8.95652 14.1739V9.82609C8.95652 9.34609 9.34609 8.95652 9.82609 8.95652H14.1739C14.6539 8.95652 15.0435 9.34609 15.0435 9.82609V14.1739C15.0435 14.6539 14.6539 15.0435 14.1739 15.0435ZM13.3043 10.6957H10.6957V13.3043H13.3043V10.6957ZM14.1739 8.08696H9.82609C9.34609 8.08696 8.95652 7.69739 8.95652 7.21739V2.86957C8.95652 2.38957 9.34609 2 9.82609 2H14.1739C14.6539 2 15.0435 2.38957 15.0435 2.86957V7.21739C15.0435 7.69739 14.6539 8.08696 14.1739 8.08696ZM13.3043 3.73913H10.6957V6.34783H13.3043V3.73913ZM7.21739 22H2.86957C2.38957 22 2 21.6104 2 21.1304V16.7826C2 16.3026 2.38957 15.913 2.86957 15.913H7.21739C7.69739 15.913 8.08696 16.3026 8.08696 16.7826V21.1304C8.08696 21.6104 7.69739 22 7.21739 22ZM6.34783 17.6522H3.73913V20.2609H6.34783V17.6522ZM7.21739 15.0435H2.86957C2.38957 15.0435 2 14.6539 2 14.1739V9.82609C2 9.34609 2.38957 8.95652 2.86957 8.95652H7.21739C7.69739 8.95652 8.08696 9.34609 8.08696 9.82609V14.1739C8.08696 14.6539 7.69739 15.0435 7.21739 15.0435ZM6.34783 10.6957H3.73913V13.3043H6.34783V10.6957ZM7.21739 8.08696H2.86957C2.38957 8.08696 2 7.69739 2 7.21739V2.86957C2 2.38957 2.38957 2 2.86957 2H7.21739C7.69739 2 8.08696 2.38957 8.08696 2.86957V7.21739C8.08696 7.69739 7.69739 8.08696 7.21739 8.08696ZM6.34783 3.73913H3.73913V6.34783H6.34783V3.73913Z" fill="#6B7084"/>
</svg>
