<svg viewBox="0 0 24 24" fill="none" xmlns="http://www.w3.org/2000/svg">
<path fill-rule="evenodd" clip-rule="evenodd" d="M21.1667 22H13.6667C13.2067 22 12.8333 21.6267 12.8333 21.1667V2.83333C12.8333 2.37333 13.2067 2 13.6667 2H21.1667C21.6267 2 22 2.37333 22 2.83333V21.1667C22 21.6267 21.6267 22 21.1667 22ZM20.3333 3.66667H14.5V20.3333H20.3333V3.66667ZM10.3333 22H2.83333C2.37333 22 2 21.6267 2 21.1667V13.6667C2 13.2067 2.37333 12.8333 2.83333 12.8333H10.3333C10.7933 12.8333 11.1667 13.2067 11.1667 13.6667V21.1667C11.1667 21.6267 10.7933 22 10.3333 22ZM9.5 14.5H3.66667V20.3333H9.5V14.5ZM10.3333 11.1667H2.83333C2.37333 11.1667 2 10.7933 2 10.3333V2.83333C2 2.37333 2.37333 2 2.83333 2H10.3333C10.7933 2 11.1667 2.37333 11.1667 2.83333V10.3333C11.1667 10.7933 10.7933 11.1667 10.3333 11.1667ZM9.5 3.66667H3.66667V9.5H9.5V3.66667Z" fill="currentColor"/>
</svg>