<svg width="24" height="24" viewBox="0 0 24 24" fill="none" xmlns="http://www.w3.org/2000/svg">
<path fill-rule="evenodd" clip-rule="evenodd" d="M21.1685 22H13.6884C13.2293 22 12.8569 21.6267 12.8569 21.1667V12C12.8569 11.54 13.2293 11.1667 13.6884 11.1667H21.1685C21.6284 11.1667 22 11.54 22 12V21.1667C22 21.6267 21.6284 22 21.1685 22ZM20.3378 12.8333H14.5199V20.3333H20.3378V12.8333ZM21.1685 9.5H13.6884C13.2293 9.5 12.8569 9.12667 12.8569 8.66667V2.83333C12.8569 2.37333 13.2293 2 13.6884 2H21.1685C21.6284 2 22 2.37333 22 2.83333V8.66667C22 9.12667 21.6284 9.5 21.1685 9.5ZM20.3378 3.66667H14.5199V7.83333H20.3378V3.66667ZM10.3116 22H2.83149C2.37242 22 2 21.6267 2 21.1667V15.3333C2 14.8733 2.37242 14.5 2.83149 14.5H10.3116C10.7715 14.5 11.1431 14.8733 11.1431 15.3333V21.1667C11.1431 21.6267 10.7715 22 10.3116 22ZM9.48093 16.1667H3.66298V20.3333H9.48093V16.1667ZM10.3116 12.8333H2.83149C2.37242 12.8333 2 12.46 2 12V2.83333C2 2.37333 2.37242 2 2.83149 2H10.3116C10.7715 2 11.1431 2.37333 11.1431 2.83333V12C11.1431 12.46 10.7715 12.8333 10.3116 12.8333ZM9.48093 3.66667H3.66298V11.1667H9.48093V3.66667Z" fill="#6B7084"/>
</svg>
