<svg viewBox="0 0 24 24" fill="none" xmlns="http://www.w3.org/2000/svg">
<path fill-rule="evenodd" clip-rule="evenodd" d="M20.3342 22H16.1719C15.7119 22 15.3394 21.6267 15.3394 21.1667V13.6667C15.3394 13.2067 15.7119 12.8333 16.1719 12.8333H20.3342C20.7942 12.8333 21.1667 13.2067 21.1667 13.6667V21.1667C21.1667 21.6267 20.7942 22 20.3342 22ZM19.5017 14.5H17.0043V20.3333H19.5017V14.5ZM20.3342 12H16.1719C15.7119 12 15.3394 11.6267 15.3394 11.1667V2.83333C15.3394 2.37333 15.7119 2 16.1719 2H20.3342C20.7942 2 21.1667 2.37333 21.1667 2.83333V11.1667C21.1667 11.6267 20.7942 12 20.3342 12ZM19.5017 3.66667H17.0043V10.3333H19.5017V3.66667ZM13.6745 22H9.60552C9.14554 22 8.66723 21.6267 8.66723 21.1667V11.1667C8.66723 10.7067 9.14554 10.3333 9.60552 10.3333H13.6745C14.1345 10.3333 14.507 10.7067 14.507 11.1667V21.1667C14.507 21.6267 14.1345 22 13.6745 22ZM12.842 12H10.3338V20.3333H12.842V12ZM13.6745 9.5H9.60552C9.14554 9.5 8.66723 9.12667 8.66723 8.66667V2.83333C8.66723 2.37333 9.14554 2 9.60552 2H13.6745C14.1345 2 14.507 2.37333 14.507 2.83333V8.66667C14.507 9.12667 14.1345 9.5 13.6745 9.5ZM12.842 3.66667H10.3338V7.83333H12.842V3.66667ZM7.01395 22H2.83246C2.37248 22 2 21.6267 2 21.1667V17C2 16.54 2.37248 16.1667 2.83246 16.1667H7.01395C7.47393 16.1667 7.84641 16.54 7.84641 17V21.1667C7.84641 21.6267 7.47393 22 7.01395 22ZM6.18149 17.8333H3.66494V20.3333H6.18149V17.8333ZM7.01395 15.2775H2.83246C2.37248 15.2775 2 14.905 2 14.4442V2.83333C2 2.37333 2.37248 2 2.83246 2H7.01395C7.47393 2 7.84641 2.37333 7.84641 2.83333V14.4442C7.84641 14.905 7.47393 15.2775 7.01395 15.2775ZM3.66494 3.66667L3.66744 13.6667H6.16733L6.18149 3.66667H3.66494Z" fill="currentColor"/>
</svg>