<svg viewBox="0 0 24 24" fill="none" xmlns="http://www.w3.org/2000/svg">
<path fill-rule="evenodd" clip-rule="evenodd" d="M20.3333 22H14.5C13.5808 22 12.8333 21.2525 12.8333 20.3333V14.5C12.8333 13.5808 13.5808 12.8333 14.5 12.8333H20.3333C21.2525 12.8333 22 13.5808 22 14.5V20.3333C22 21.2525 21.2525 22 20.3333 22ZM14.5 14.5V20.3333H20.3308L20.3333 14.5H14.5ZM20.3333 11.1667H14.5C13.5808 11.1667 12.8333 10.4192 12.8333 9.5V3.66667C12.8333 2.7475 13.5808 2 14.5 2H20.3333C21.2525 2 22 2.7475 22 3.66667V9.5C22 10.4192 21.2525 11.1667 20.3333 11.1667ZM14.5 3.66667V9.5H20.3308L20.3333 3.66667H14.5ZM9.50167 22H3.66667C2.7475 22 2 21.2525 2 20.3333V14.5C2 13.5808 2.7475 12.8333 3.66667 12.8333H9.50167C10.4208 12.8333 11.1683 13.5808 11.1683 14.5V20.3333C11.1683 21.2525 10.4208 22 9.50167 22ZM3.66667 14.5V20.3333H9.49917L9.50167 14.5H3.66667ZM9.50167 11.1667H3.66667C2.7475 11.1667 2 10.4192 2 9.5V3.66667C2 2.7475 2.7475 2 3.66667 2H9.50167C10.4208 2 11.1683 2.7475 11.1683 3.66667V9.5C11.1683 10.4192 10.4208 11.1667 9.50167 11.1667ZM3.66667 3.66667V9.5H9.49917L9.50167 3.66667H3.66667Z" fill="currentColor"/>
</svg>