<svg viewBox="0 0 24 24" fill="none" xmlns="http://www.w3.org/2000/svg">
<g clip-path="url(#clip0_1265_21677)">
<path d="M12 24C18.6274 24 24 18.6274 24 12C24 5.37258 18.6274 0 12 0C5.37258 0 0 5.37258 0 12C0 18.6274 5.37258 24 12 24Z" fill="#FFF300"/>
<path d="M15.6921 8.43882C15.5048 8.01968 15.3313 7.19131 14.8522 7.0068C14.2353 6.76997 13.8547 8.32205 13.7638 8.71421H13.6718C13.5165 8.04226 13.3083 7.08942 12.5703 6.87792C12.2288 8.31269 12.9272 9.85982 13.5804 11.1018C14.2777 10.768 14.6175 9.72488 14.682 8.98959H14.7739L15.5087 11.1932C16.0997 11.0236 16.3051 10.4387 16.5182 9.90773C16.9765 8.76873 17.3609 7.36756 17.069 6.14319C16.1878 6.39324 15.919 7.65396 15.6921 8.43882ZM6.87749 11.3772C7.6662 11.0005 8.04183 9.80749 8.163 8.98959H8.25442C8.34806 9.38395 8.59756 10.4007 9.08995 10.4657C9.71783 10.5488 10.0466 9.15648 10.0907 8.71421H10.1827C10.3826 9.40543 10.5936 10.3048 11.2842 10.6425C11.5398 9.57176 11.2347 8.43001 10.8431 7.4287C10.7423 7.17149 10.5357 6.47696 10.1805 6.47696C9.59887 6.47696 9.27171 8.01031 9.17257 8.43882H9.08114L8.3464 6.23517C7.05429 6.85204 6.3526 10.133 6.87749 11.3772ZM5.5 12.4788C6.45835 16.6613 10.8816 19.033 14.8659 17.2661C16.3104 16.6242 17.4707 15.4769 18.1287 14.0396C18.3 13.6684 18.6365 12.9959 18.4405 12.5085C18.2449 12.0227 16.3503 12.8158 15.8766 13.0235C15.8439 13.0379 15.8153 13.0604 15.7936 13.0888C15.7718 13.1172 15.7576 13.1506 15.7521 13.1859C15.7444 13.2364 15.7472 13.2879 15.7603 13.3372C15.7734 13.3865 15.7965 13.4325 15.8283 13.4724C15.86 13.5124 15.8997 13.5453 15.9448 13.5692C15.9899 13.593 16.0394 13.6073 16.0903 13.6111L16.8856 13.6728C15.4453 16.4609 11.5508 17.6935 8.80575 15.4662C8.19109 14.9677 7.64306 14.3756 7.27405 13.6728C7.09559 13.333 6.92981 12.8984 6.62689 12.6649C6.33497 12.4413 5.89325 12.3642 5.5 12.4788Z" fill="black"/>
</g>
<defs>
<clipPath id="clip0_1265_21677">
<rect width="24" height="24" fill="white"/>
</clipPath>
</defs>
</svg>