<svg viewBox="0 0 24 24" fill="none" xmlns="http://www.w3.org/2000/svg">
<g clip-path="url(#clip0_3595_19085)">
<path d="M12 24C18.6274 24 24 18.6274 24 12C24 5.37258 18.6274 0 12 0C5.37258 0 0 5.37258 0 12C0 18.6274 5.37258 24 12 24Z" fill="#6747ED"/>
<path fill-rule="evenodd" clip-rule="evenodd" d="M11.2674 12.7128C9.66705 12.7128 8.38226 11.428 8.38226 9.8277C8.38226 8.22735 9.66705 6.94257 11.2674 6.94257C12.8677 6.94257 14.1525 8.22735 14.1525 9.8277C14.1525 11.428 12.8677 12.7128 11.2674 12.7128ZM11.2674 5.5C13.6566 5.5 15.5951 7.43845 15.5951 9.8277C15.5951 12.2169 13.6566 14.1554 11.2674 14.1554C8.87815 14.1554 6.9397 12.2169 6.9397 9.8277C6.9397 7.43845 8.87815 5.5 11.2674 5.5ZM15.3922 14.3808C15.6853 14.6738 15.6853 15.1246 15.3922 15.3951L12.5071 18.2802C12.2141 18.5733 11.7633 18.5733 11.4928 18.2802C11.1998 17.9872 11.1998 17.5364 11.4928 17.2659L14.3779 14.3808C14.6484 14.0878 15.1218 14.0878 15.3922 14.3808ZM17.0602 6.22128C17.0602 6.62701 16.7446 6.94257 16.3389 6.94257C15.9332 6.94257 15.6176 6.62701 15.6176 6.22128C15.6176 5.81556 15.9332 5.5 16.3389 5.5C16.7221 5.5 17.0602 5.81556 17.0602 6.22128Z" fill="white"/>
</g>
<defs>
<clipPath id="clip0_3595_19085">
<rect width="24" height="24" fill="white"/>
</clipPath>
</defs>
</svg>