<svg width="24" height="24" viewBox="0 0 24 24" fill="none" xmlns="http://www.w3.org/2000/svg">
<g clip-path="url(#clip0_1265_21669)">
<path d="M12 24C18.6274 24 24 18.6274 24 12C24 5.37258 18.6274 0 12 0C5.37258 0 0 5.37258 0 12C0 18.6274 5.37258 24 12 24Z" fill="#FF0060"/>
<path d="M17.5313 9.65651H11.9997C11.5713 9.65584 11.151 9.77255 10.7844 9.99397C10.4178 10.2154 10.1188 10.533 9.92001 10.9124C9.72121 11.2918 9.63017 11.7184 9.65679 12.1459C9.6834 12.5734 9.82664 12.9854 10.071 13.3372C10.3153 13.689 10.6513 13.9671 11.0426 14.1413C11.4339 14.3155 11.8654 14.3792 12.2903 14.3254C12.7152 14.2717 13.1173 14.1025 13.4528 13.8362C13.7883 13.57 14.0445 13.2169 14.1934 12.8154H11.9997C11.9184 12.8154 11.8379 12.7995 11.7628 12.7684C11.6878 12.7374 11.6195 12.6918 11.5621 12.6344C11.5046 12.5769 11.4591 12.5087 11.428 12.4336C11.3969 12.3585 11.381 12.278 11.3811 12.1968V12.1218C11.381 12.0405 11.3969 11.9601 11.428 11.885C11.4591 11.8099 11.5046 11.7417 11.5621 11.6842C11.6195 11.6268 11.6878 11.5812 11.7628 11.5501C11.8379 11.5191 11.9184 11.5031 11.9997 11.5032H15.6562C15.6828 11.6737 15.6955 11.8461 15.6937 12.0184C15.6901 12.7482 15.4704 13.4606 15.0623 14.0657C14.6542 14.6708 14.0761 15.1414 13.4008 15.4182C12.7255 15.6951 11.9833 15.7656 11.2679 15.6211C10.5526 15.4765 9.89606 15.1232 9.38126 14.6059C8.86646 14.0886 8.51644 13.4303 8.37537 12.7143C8.2343 11.9982 8.3085 11.2564 8.58862 10.5825C8.86873 9.90853 9.3422 9.33267 9.94928 8.92757C10.5564 8.52246 11.2698 8.30626 11.9997 8.30626L12.1127 8.28751C12.1363 8.29839 12.1611 8.30444 12.1877 8.30626H15.4687C17.2592 8.30626 17.9902 7.35025 17.9902 6H11.9997C8.69084 6 6.00605 8.68055 6.00001 11.9906C5.99517 15.3006 8.67149 17.989 11.9815 17.9999C15.2915 18.0102 17.9842 15.3381 17.9999 12.0281V10.1342C18.0011 10.0719 17.9899 10.01 17.9669 9.95209C17.9439 9.89418 17.9095 9.84144 17.8659 9.79696C17.8223 9.75248 17.7702 9.71715 17.7127 9.69303C17.6553 9.66891 17.5936 9.6565 17.5313 9.65651Z" fill="white"/>
</g>
<defs>
<clipPath id="clip0_1265_21669">
<rect width="24" height="24" fill="white"/>
</clipPath>
</defs>
</svg>
