<svg width="24" height="24" viewBox="0 0 24 24" fill="none" xmlns="http://www.w3.org/2000/svg">
<g clip-path="url(#clip0_1265_21665)">
<path d="M12 24C18.6274 24 24 18.6274 24 12C24 5.37258 18.6274 0 12 0C5.37258 0 0 5.37258 0 12C0 18.6274 5.37258 24 12 24Z" fill="#7F27FF"/>
<path d="M11.6187 11.0833H7.12333V15.4967C7.11844 15.9483 7.29933 16.3828 7.62444 16.7018C7.94956 17.0208 8.39261 17.1987 8.85278 17.1944H11.6193L11.6187 11.0833ZM11.7226 8.7739H12.2066C12.6857 7.9489 13.1244 7.3879 13.5369 7.08479C14.0454 6.71018 14.5661 6.70713 14.9743 7.10801C15.3556 7.48201 15.4271 7.95135 15.1759 8.40357C15.1051 8.52946 15.0109 8.6529 14.893 8.7739H16.6701C17.0851 8.7739 17.5 9.1149 17.5 9.58851C17.5 9.99613 17.1523 10.4037 16.6701 10.4037H12.3104V9.31718H11.6187V10.4037H7.32989C6.91556 10.4037 6.5 10.0627 6.5 9.58851C6.5 9.18151 6.84772 8.7739 7.32989 8.7739H9.12656C9.01413 8.66915 8.91407 8.55187 8.82833 8.42435C8.53072 7.96968 8.56678 7.48935 8.95483 7.10801C9.36306 6.70713 9.88372 6.71079 10.3928 7.08479C10.8047 7.3879 11.2434 7.94951 11.7232 8.7739H11.7226ZM10.9189 8.7739C10.5645 8.20985 10.2479 7.82668 9.97783 7.62807C9.72789 7.44474 9.591 7.44351 9.44372 7.58774C9.29278 7.73624 9.28361 7.86335 9.41011 8.05646C9.55433 8.27707 9.85806 8.52579 10.2956 8.7739H10.9189ZM13.0102 8.7739H13.7557C14.1731 8.53435 14.4487 8.29235 14.5685 8.07724C14.6724 7.89146 14.6504 7.75029 14.4854 7.58835C14.3381 7.44351 14.2012 7.44413 13.9519 7.62807C13.6812 7.82668 13.364 8.20985 13.0108 8.7739H13.0102ZM12.3104 11.0827H16.8064V15.4967C16.8083 15.721 16.7649 15.9433 16.6788 16.1504C16.5927 16.3575 16.4657 16.5451 16.3053 16.7018C15.9773 17.0224 15.5355 17.1996 15.0769 17.1944H12.3104V11.0827Z" fill="white"/>
</g>
<defs>
<clipPath id="clip0_1265_21665">
<rect width="24" height="24" fill="white"/>
</clipPath>
</defs>
</svg>
