<svg width="24" height="24" viewBox="0 0 24 24" fill="none" xmlns="http://www.w3.org/2000/svg">
<g clip-path="url(#clip0_1265_21661)">
<path d="M12 24C18.6274 24 24 18.6274 24 12C24 5.37258 18.6274 0 12 0C5.37258 0 0 5.37258 0 12C0 18.6274 5.37258 24 12 24Z" fill="#37DCD8"/>
<path d="M11.9934 9.84123L10.1838 8.01868C10.7267 7.1358 11.3337 6.29398 11.9999 5.5C12.665 6.29057 13.2711 7.12892 13.8133 8.00828L11.9934 9.84123ZM15.71 11.6677C16.2209 13.0989 16.9703 14.5302 16.256 15.9043C15.8015 16.7711 15.0967 17.4811 14.2332 17.9419C11.8809 19.1899 8.96902 18.2734 7.73016 15.9043C7.00868 14.5302 7.8491 12.9858 8.36064 11.5552C8.82928 10.5003 9.30311 9.52794 9.8413 8.59326L11.9927 10.7603L14.1565 8.58156C14.7253 9.56563 15.2166 10.5783 15.71 11.6683V11.6677Z" fill="white"/>
</g>
<defs>
<clipPath id="clip0_1265_21661">
<rect width="24" height="24" fill="white"/>
</clipPath>
</defs>
</svg>
