<svg viewBox="0 0 24 24" fill="none" xmlns="http://www.w3.org/2000/svg">
<g clip-path="url(#clip0_1265_21657)">
<path d="M12 24C18.6274 24 24 18.6274 24 12C24 5.37258 18.6274 0 12 0C5.37258 0 0 5.37258 0 12C0 18.6274 5.37258 24 12 24Z" fill="#00DCFA"/>
<path d="M13.9961 5.5C11.7093 5.5 9.76695 7.25855 9.52291 9.52232C7.25795 9.76695 5.5 11.7093 5.5 13.9955C5.50063 15.1899 5.97533 16.3352 6.81982 17.1798C7.66431 18.0244 8.80954 18.4992 10.0039 18.5C12.2907 18.5 14.2407 16.7415 14.4771 14.4777C16.7415 14.233 18.5 12.2907 18.5 10.0045C18.4994 8.81013 18.0247 7.66484 17.1802 6.82024C16.3357 5.97563 15.1905 5.50078 13.9961 5.5ZM17.4446 10.5085C17.3322 11.2472 16.9866 11.9306 16.4582 12.459C15.9299 12.9873 15.2465 13.3329 14.5078 13.4454V10.5085H17.4446ZM6.55536 13.4915C6.66631 12.7514 7.01127 12.0663 7.53973 11.5364C8.06819 11.0066 8.7524 10.6598 9.49218 10.547V13.4838H6.55536V13.4915ZM13.453 14.5078C13.331 15.3352 12.9154 16.0911 12.2822 16.6373C11.6489 17.1836 10.8402 17.4838 10.0039 17.483C9.16774 17.4838 8.35923 17.1836 7.72607 16.6375C7.09291 16.0913 6.67737 15.3356 6.55536 14.5084H13.453V14.5078ZM13.4915 10.5085V13.4838H10.5085V10.5085H13.4915ZM17.4446 9.49218H10.547C10.669 8.66481 11.0846 7.90895 11.7178 7.36269C12.3511 6.81643 13.1598 6.51624 13.9961 6.51695C14.8323 6.51623 15.6408 6.81636 16.2739 7.36251C16.9071 7.90866 17.3226 8.66438 17.4446 9.49159V9.49218Z" fill="white"/>
</g>
<defs>
<clipPath id="clip0_1265_21657">
<rect width="24" height="24" fill="white"/>
</clipPath>
</defs>
</svg>