<svg width="24" height="24" viewBox="0 0 24 24" fill="none" xmlns="http://www.w3.org/2000/svg">
<g clip-path="url(#clip0_1265_21653)">
<path d="M12 24C18.6274 24 24 18.6274 24 12C24 5.37258 18.6274 0 12 0C5.37258 0 0 5.37258 0 12C0 18.6274 5.37258 24 12 24Z" fill="#16B9AD"/>
<path d="M18.5 9.2005C18.5 12.7157 15.5834 15.575 12 15.575C8.41655 15.575 5.5 12.715 5.5 9.2018C5.5 8.9431 5.5156 8.68375 5.5481 8.42635H6.7155C6.6765 8.6831 6.657 8.94245 6.657 9.2018C6.657 12.091 9.0542 14.4421 12.0006 14.4421C14.8125 14.4421 17.124 12.3023 17.3306 9.59635H9.062C9.2375 10.8599 10.2339 11.8635 11.517 12.0709C12.8008 12.2776 14.0716 11.6393 14.6514 10.4979H15.9026C15.3338 12.1372 13.7641 13.2396 11.9987 13.2409C9.7263 13.2409 7.87705 11.428 7.87705 9.2005C7.87705 8.9405 7.90305 8.6805 7.9531 8.42505H18.4519C18.4844 8.68245 18.5 8.94115 18.5 9.2005Z" fill="white"/>
</g>
<defs>
<clipPath id="clip0_1265_21653">
<rect width="24" height="24" fill="white"/>
</clipPath>
</defs>
</svg>
