<svg viewBox="0 0 24 24" fill="none" xmlns="http://www.w3.org/2000/svg">
<g clip-path="url(#clip0_1265_21649)">
<path d="M12 24C18.6274 24 24 18.6274 24 12C24 5.37258 18.6274 0 12 0C5.37258 0 0 5.37258 0 12C0 18.6274 5.37258 24 12 24Z" fill="#35A5F3"/>
<path d="M6.61165 6.61627C7.37364 5.82008 8.76563 5.78828 9.55223 6.56227C10.3742 7.36627 11.1878 8.17746 11.993 8.99646C12.8498 8.18226 13.6514 7.31347 14.5118 6.50287C15.3302 5.76368 16.7222 5.85308 17.4488 6.68107C18.194 7.46227 18.182 8.82486 17.4086 9.58325C16.6124 10.3938 15.806 11.1924 15.0026 11.9964C15.8234 12.8418 16.6784 13.6542 17.4926 14.5104C18.2222 15.3102 18.1526 16.6734 17.3612 17.4084C16.583 18.1944 15.1874 18.1968 14.4104 17.4072C13.6022 16.614 12.8114 15.8016 12.0086 15.0048C11.1518 15.8292 10.3346 16.6944 9.46883 17.5104C8.63963 18.246 7.24164 18.1362 6.52765 17.292C5.80765 16.5126 5.82565 15.1848 6.57565 14.43C7.28053 13.7084 7.99378 12.9949 8.71523 12.2898L9.61943 13.1928C8.91383 13.9212 8.17164 14.6184 7.47684 15.3576C7.00824 15.8376 7.42104 16.7328 8.07924 16.722C8.47823 16.7574 8.75363 16.4268 9.01283 16.1772C9.70103 15.4764 10.3994 14.7882 11.0876 14.0874C9.58763 12.5742 8.06364 11.082 6.57085 9.56225C5.79205 8.77746 5.81665 7.37827 6.61285 6.61627H6.61165ZM7.48344 8.65026C8.27724 9.47825 9.10163 10.2768 9.90983 11.091C10.2998 10.6962 10.6922 10.3038 11.087 9.91325C10.3052 9.12546 9.52643 8.33226 8.73383 7.55527C8.48123 7.28227 8.04924 7.18087 7.71984 7.37647C7.26144 7.59847 7.11684 8.28006 7.48284 8.65026H7.48344ZM15.2474 7.57627C13.7558 9.04026 12.2942 10.5354 10.8104 12.0066C11.2106 12.3948 11.6096 12.7842 12.0002 13.1826C12.2996 12.8874 12.5972 12.5886 12.8954 12.2898C13.1966 12.5904 13.496 12.8928 13.7996 13.1916C13.505 13.4916 13.2086 13.7892 12.9092 14.0856C13.7138 14.895 14.5028 15.7194 15.3338 16.5024C15.7556 16.9464 16.574 16.677 16.6958 16.092C16.8266 15.678 16.529 15.3198 16.2482 15.0594C14.9261 13.7437 13.607 12.4251 12.2906 11.1036C12.592 10.803 12.8922 10.5012 13.1912 10.1982C13.4912 10.497 13.7906 10.7958 14.0972 11.0898C14.8862 10.272 15.7226 9.49985 16.4996 8.66946C16.8914 8.28906 16.7348 7.56007 16.2344 7.35427C15.8984 7.18087 15.4886 7.30327 15.2468 7.57627H15.2474Z" fill="white"/>
</g>
<defs>
<clipPath id="clip0_1265_21649">
<rect width="24" height="24" fill="white"/>
</clipPath>
</defs>
</svg>