<svg width="24" height="24" viewBox="0 0 24 24" fill="none" xmlns="http://www.w3.org/2000/svg">
<g clip-path="url(#clip0_1265_21641)">
<path d="M12 24C18.6274 24 24 18.6274 24 12C24 5.37258 18.6274 0 12 0C5.37258 0 0 5.37258 0 12C0 18.6274 5.37258 24 12 24Z" fill="#56C9E9"/>
<path d="M16.4318 8.18347C15.9907 8.02083 15.0161 8.2642 14.9693 8.33382C15.1553 8.36892 15.2132 8.39232 15.4917 8.43854C15.7901 8.49294 16.0767 8.59883 16.3388 8.75211C16.6173 8.91416 16.7331 8.6936 16.7331 8.6936C16.7799 8.58947 16.6524 8.2642 16.4318 8.18347ZM8.5066 6.257C8.43531 6.14452 8.35777 6.03612 8.27435 5.93232C8.05379 5.70007 7.62498 5.58423 7.39214 5.70007C7.2646 5.75857 7.20669 5.8393 7.31141 5.97853C7.43835 6.10431 7.59982 6.18914 7.77533 6.22249C7.87946 6.24589 8.34396 6.35002 8.4598 6.37284C8.5768 6.37284 8.5066 6.257 8.5066 6.257ZM8.97052 7.42879C8.96125 7.40807 8.94455 7.39158 8.92372 7.38258C8.63743 7.41863 8.34734 7.35744 8.10001 7.20883C8.04404 7.16932 7.97722 7.14811 7.90871 7.14811C7.8402 7.14811 7.77338 7.16932 7.71741 7.20883C7.56647 7.33636 7.78703 7.4873 7.79873 7.4873C7.89116 7.54521 7.99588 7.5224 8.0889 7.54521C8.31607 7.61103 8.54931 7.65376 8.78507 7.67275C8.98222 7.67275 9.02843 7.60254 8.97052 7.42879ZM16.6524 6.99998C16.6758 6.92977 16.6524 6.69811 16.2341 6.75602C15.886 6.81452 15.6427 6.90696 15.6544 6.95317C15.6661 6.99998 16.0487 7.06959 16.13 7.08071C16.4547 7.13921 16.6407 7.04561 16.6524 6.99998ZM12.4286 5.06181C12.3879 5.02418 12.3351 5.00232 12.2798 5.00017C12.2244 4.99803 12.1701 5.01574 12.1267 5.05011C11.7786 5.27066 12.0337 6.02475 12.0682 6.02475C12.1033 6.02475 12.1384 5.75798 12.4865 5.36368C12.503 5.34019 12.5146 5.31362 12.5206 5.28555C12.5266 5.25748 12.5268 5.22849 12.5214 5.20031C12.5159 5.17213 12.5048 5.14535 12.4888 5.12155C12.4727 5.09775 12.4521 5.07743 12.428 5.06181H12.4286ZM11.3223 7.30302C11.3223 7.27376 11.293 7.27376 11.3223 7.30302V7.30302Z" fill="white"/>
<path d="M10.9894 6.92962C10.7688 6.81379 10.9543 6.24515 10.8736 6.0363C10.8659 6.0041 10.8505 5.97429 10.8285 5.94952C10.8066 5.92474 10.7789 5.90578 10.7478 5.89431C10.7168 5.88285 10.6834 5.87923 10.6506 5.8838C10.6179 5.88836 10.5867 5.90096 10.56 5.92047C10.5299 5.93272 10.5028 5.95143 10.4807 5.97528C10.4586 5.99913 10.442 6.02753 10.4321 6.05849C10.4222 6.08945 10.4191 6.12221 10.4233 6.15446C10.4274 6.18671 10.4385 6.21767 10.4559 6.24515C10.5027 6.33817 10.7805 6.87171 10.56 6.96472C10.4787 6.99983 10.3049 6.92962 10.1891 6.86001C9.77139 6.67456 9.70177 6.0363 9.57366 5.95498C9.51441 5.91128 9.44223 5.88868 9.36864 5.8908C9.29504 5.89292 9.22428 5.91964 9.16765 5.96668C9.11053 5.99887 9.0672 6.05088 9.04585 6.11288C9.0245 6.17487 9.02663 6.24254 9.05182 6.30307C9.10974 6.40779 9.33029 6.4657 9.3765 6.82549L9.51574 6.92962C9.58594 6.98813 9.65497 7.04604 9.73629 7.10396C9.94514 7.31281 9.89893 7.34791 10.3283 7.27829C10.4676 7.23149 10.4442 7.04604 10.5834 6.99983C10.67 6.98838 10.758 7.0003 10.8385 7.03434C10.9666 7.1022 11.0742 7.20224 11.152 7.32451C11.3375 7.54506 11.4188 7.82353 11.5814 8.06748C11.6376 8.16928 11.7078 8.26288 11.7903 8.34537L11.964 8.4846C12.208 8.64724 12.4285 8.63554 12.6023 8.4495C12.6496 8.41568 12.6894 8.37255 12.7194 8.32274C12.7494 8.27294 12.7689 8.21753 12.7766 8.15992C12.8691 7.88025 12.9866 7.60946 13.1276 7.35084C13.1288 7.34978 13.1302 7.34897 13.1317 7.34847C13.1332 7.34797 13.1348 7.34778 13.1364 7.34791C13.1369 7.34188 13.1396 7.33623 13.1439 7.33195C13.1481 7.32767 13.1538 7.32504 13.1598 7.32451C13.192 7.30188 13.2304 7.28973 13.2698 7.28973C13.3092 7.28973 13.3476 7.30188 13.3798 7.32451C13.4149 7.37131 13.3447 7.80013 13.3798 7.84635C13.4032 7.93995 13.5769 7.88145 13.7279 7.86975C13.7421 7.85191 13.754 7.83224 13.763 7.81125C14.018 7.73051 14.262 7.60298 14.5171 7.53336H14.6563C14.7985 7.50996 14.943 7.50996 15.0857 7.53336C15.2249 7.53336 15.2711 7.61468 15.2594 7.74221C15.4917 7.73051 15.724 7.73051 15.9556 7.70711C16.0603 7.69541 16.223 7.69541 16.2113 7.49826C16.1879 7.38243 16.0024 7.05774 15.1553 7.25489C15.074 7.27829 14.6101 7.41753 14.4474 7.33621C14.6949 7.17592 14.9506 7.02908 15.2132 6.89511C15.3291 6.80209 15.4221 6.67456 15.3525 6.53532C15.2828 6.39609 15.1436 6.40779 15.0161 6.454C14.7757 6.5287 14.5568 6.66013 14.3778 6.83719C14.2602 6.95653 14.1321 7.06535 13.9946 7.16188C13.6583 7.32451 13.6583 7.32451 13.5769 7.30111C13.4728 7.25431 13.3564 7.17358 13.4377 7.05774C13.4851 6.98228 13.5202 6.89979 13.5424 6.81379C13.5775 6.66286 13.5307 6.61664 13.426 6.61664C13.2171 6.62834 13.1475 6.92962 13.113 6.97643C13.0908 7.02206 13.0633 7.06418 13.0317 7.10396C13.0048 7.13056 12.9709 7.14905 12.934 7.15732C12.8971 7.1656 12.8585 7.16332 12.8228 7.15076C12.7532 7.13906 12.6953 7.10396 12.7532 7.01094C12.8579 6.84889 13.1826 6.59324 13.2757 6.25685C13.2757 6.25685 13.4377 5.81575 12.9855 5.80463C12.7415 5.79293 12.5444 5.96668 12.4748 6.23345C12.4051 6.51192 12.5561 6.89511 12.4748 7.08056C12.4455 7.15895 12.4063 7.23266 12.3589 7.30111C12.2808 7.37117 12.1795 7.40991 12.0746 7.40991C11.9697 7.40991 11.8684 7.37117 11.7903 7.30111C11.7456 7.24904 11.7131 7.18772 11.695 7.12157C11.6769 7.05541 11.6737 6.98606 11.6856 6.91851C11.7253 6.76556 11.7564 6.61047 11.7786 6.454C11.7903 6.33817 11.5814 6.12932 11.4071 6.26855C11.3258 6.32706 11.3603 6.41949 11.3954 6.50081C11.4539 6.67456 11.558 7.17358 10.9894 6.92962ZM11.3147 7.28941C11.303 7.27771 11.3147 7.27771 11.3147 7.28941V7.28941Z" fill="white"/>
<path d="M11.6973 7.81308H12.4636C12.5327 7.79787 12.6011 7.85169 12.6491 7.95817C12.6526 8.01667 12.6386 8.074 12.614 8.10325C12.487 8.04361 12.3483 8.01269 12.208 8.01269C12.0676 8.01269 11.929 8.04361 11.802 8.10325H11.7669L11.6973 7.81308Z" fill="white"/>
<path d="M14.5054 7.49847C14.2097 7.58196 13.9192 7.68276 13.6354 7.80034C13.6102 7.80816 13.5831 7.80784 13.558 7.79945C13.5329 7.79105 13.5111 7.775 13.4956 7.75354C13.4841 7.72807 13.4782 7.70045 13.4782 7.67252C13.4782 7.64458 13.4841 7.61696 13.4956 7.59149C13.5072 7.55375 13.5072 7.5134 13.4956 7.47566C13.472 7.41221 13.432 7.35612 13.3798 7.31302C13.3571 7.29426 13.3306 7.28075 13.3021 7.27346C13.2736 7.26618 13.2439 7.2653 13.215 7.2709C13.1861 7.27649 13.1589 7.28842 13.1352 7.30582C13.1115 7.32322 13.0919 7.34566 13.0779 7.37152C12.9222 7.61502 12.8048 7.88099 12.7298 8.16013C12.702 8.27196 12.6415 8.37297 12.5561 8.4503C12.3817 8.60123 12.2197 8.61293 11.9874 8.4854C11.9228 8.43843 11.8609 8.38784 11.802 8.33388C11.7222 8.24511 11.6522 8.14802 11.5931 8.0443C11.4995 7.86996 11.4071 7.68451 11.3147 7.52187C11.1865 7.31302 11.059 7.11587 10.8273 7.01115C10.7528 6.98414 10.6719 6.98006 10.5951 6.99945C10.5612 7.00601 10.5291 7.01981 10.5011 7.0399C10.473 7.05999 10.4496 7.08591 10.4325 7.11587C10.3974 7.17379 9.93344 7.18549 9.77139 7.09247C9.68949 7.04567 9.45782 6.814 9.3765 6.8374C9.30688 6.8374 9.27237 6.7906 9.22557 6.75609C9.12159 6.68464 9.00212 6.63895 8.877 6.62278C8.75189 6.6066 8.62472 6.62041 8.50599 6.66307C8.4563 6.67477 8.41114 6.7008 8.3761 6.73793C8.34105 6.77505 8.31767 6.82164 8.30884 6.87192C8.30946 6.92553 8.3265 6.97767 8.35768 7.02129C8.38885 7.06491 8.43266 7.09792 8.48318 7.11587C8.59843 7.15916 8.71075 7.20947 8.81956 7.26681C8.87807 7.29021 8.9705 7.30191 8.9588 7.40604C8.95784 7.43363 8.9618 7.46116 8.9705 7.48736C8.9822 7.63771 8.87748 7.64941 8.77335 7.64941C8.62474 7.63757 8.47727 7.6143 8.33224 7.57979C8.17181 7.5257 8.00178 7.50596 7.83322 7.52187C7.78642 7.58038 7.72909 7.54527 7.67059 7.55698C7.46174 7.59208 7.29969 7.74243 7.31139 7.91618C7.32309 8.11391 7.48514 8.16013 7.64777 8.19465C8.04207 8.28825 8.43696 8.25315 8.83126 8.26485C9.30688 8.26485 9.57424 8.49651 9.64327 8.97272C9.69007 9.32022 10.7343 18.4641 10.746 18.6612C10.747 18.7015 10.7611 18.7404 10.7863 18.7718C10.8114 18.8033 10.8462 18.8257 10.8853 18.8355C11.2796 18.9555 11.6914 19.011 12.1033 18.9982C12.566 19.0099 13.0276 18.9514 13.4722 18.8238C13.5424 18.8004 13.6003 18.777 13.6003 18.6846C13.612 18.4412 14.2731 9.70341 14.2731 9.56417C14.2662 9.15778 14.3971 8.76103 14.6446 8.4386C14.8417 8.20635 15.0623 7.99749 15.2594 7.76583C15.3179 7.44056 14.8997 7.44056 14.5054 7.49847Z" fill="white"/>
</g>
<defs>
<clipPath id="clip0_1265_21641">
<rect width="24" height="24" fill="white"/>
</clipPath>
</defs>
</svg>
