<svg width="24" height="24" viewBox="0 0 24 24" fill="none" xmlns="http://www.w3.org/2000/svg">
<path fill-rule="evenodd" clip-rule="evenodd" d="M21.1667 13.3333H2.83333C2.37333 13.3333 2 12.96 2 12.5C2 12.04 2.37333 11.6667 2.83333 11.6667H21.1667C21.6267 11.6667 22 12.04 22 12.5C22 12.96 21.6267 13.3333 21.1667 13.3333ZM21.1667 6.66667H2.83333C2.37333 6.66667 2 6.29333 2 5.83333C2 5.37333 2.37333 5 2.83333 5H21.1667C21.6267 5 22 5.37333 22 5.83333C22 6.29333 21.6267 6.66667 21.1667 6.66667ZM2.83333 18.3333H21.1667C21.6267 18.3333 22 18.7067 22 19.1667C22 19.6267 21.6267 20 21.1667 20H2.83333C2.37333 20 2 19.6267 2 19.1667C2 18.7067 2.37333 18.3333 2.83333 18.3333Z" fill="#6B7084"/>
</svg>
