<svg width="24" height="24" viewBox="0 0 24 24" fill="none" xmlns="http://www.w3.org/2000/svg">
<path fill-rule="evenodd" clip-rule="evenodd" d="M21.1615 11.1667H7.7461C7.28997 11.1667 6.90763 10.7933 6.90763 10.3333V2.83333C6.90763 2.37333 7.28997 2 7.7461 2H21.1615C21.6177 2 22 2.37333 22 2.83333V10.3333C22 10.7933 21.6177 11.1667 21.1615 11.1667ZM20.3231 3.66667H8.58455V9.5H20.3231V3.66667ZM10.913 7.24083C11.0614 7.4 11.1528 7.61667 11.1528 7.83333C11.1528 8.05 11.0614 8.26667 10.913 8.425C10.7562 8.575 10.4451 8.66667 10.2221 8.66667C9.99904 8.66667 9.79278 8.575 9.63599 8.425C9.48674 8.26667 9.42302 8.05833 9.42302 7.83333C9.42302 7.61667 9.48674 7.4 9.63599 7.24083C9.94958 6.93333 10.6078 6.93333 10.913 7.24083ZM14.4555 4.47667C15.3811 4.47667 16.1073 5.39167 16.1073 6.56C16.1073 7.72833 15.3811 8.64333 14.4555 8.64333C13.5298 8.64333 12.8045 7.72833 12.8045 6.56C12.8045 5.39167 13.5298 4.47667 14.4555 4.47667ZM19.223 4.74083C19.3714 4.9 19.4628 5.11583 19.4628 5.33333C19.4628 5.55 19.3714 5.76583 19.223 5.925C19.0654 6.075 18.8516 6.16667 18.6369 6.16667C18.4223 6.16667 18.2068 6.075 18.0508 5.925C17.9016 5.76583 17.811 5.55 17.811 5.33333C17.811 5.11583 17.9016 4.9 18.0508 4.74083C18.3644 4.4325 18.917 4.4325 19.223 4.74083ZM10.8258 12.865C10.8794 12.8733 10.9331 12.8875 10.9851 12.9067L15.7048 14.6708C15.7123 14.6742 15.7174 14.68 15.7249 14.6833C15.7316 14.6858 15.7383 14.685 15.7442 14.6875C16.0653 14.8267 16.3244 15.0458 16.5273 15.3042L18.9052 13.8842C18.9245 13.8725 18.9463 13.8725 18.9656 13.8625C18.9849 13.8533 18.9975 13.8367 19.0167 13.8292C20.059 13.4025 21.2471 13.9133 21.6688 14.9642C22.0763 15.9825 21.616 17.1408 20.6408 17.5983L15.8624 20.9558C15.7459 21.0375 15.6109 21.0883 15.47 21.1017C15.4172 21.1067 14.7808 21.1667 13.9566 21.1667C13.0972 21.1667 12.0332 21.1017 11.214 20.8408C10.3956 20.5808 9.41212 20.0142 8.54431 19.5133C7.99511 19.1975 7.24217 18.7633 7.01411 18.7192C6.73155 18.7225 5.14936 19.11 3.87322 19.47C3.65522 19.5317 3.41877 19.4992 3.22425 19.38C3.02888 19.2608 2.89138 19.0658 2.84442 18.8408L2.01853 14.9317C1.92714 14.5017 2.18203 14.075 2.60043 13.9558C7.93558 12.4333 10.7109 12.8467 10.8258 12.865ZM4.27737 17.6325C5.22399 17.3817 6.54961 17.0558 7.06526 17.0558C7.58511 17.0558 8.21061 17.4025 9.3635 18.0667C10.1592 18.525 11.0614 19.045 11.7104 19.2508C12.6763 19.5583 14.3247 19.5167 15.1011 19.46L19.7638 16.1833C19.8141 16.1483 19.8686 16.1183 19.9256 16.095C20.1227 16.015 20.2174 15.7875 20.1378 15.5892C20.0623 15.4 19.8535 15.3075 19.664 15.3683L16.9323 17C16.9047 17.1308 16.8652 17.26 16.8116 17.3867C16.4796 18.165 15.7258 18.6317 14.9368 18.6317C14.6685 18.6317 14.3968 18.5775 14.1352 18.4642L9.97641 16.9508C9.54796 16.7942 9.32577 16.3167 9.48088 15.8842C9.63516 15.4517 10.1072 15.2267 10.5382 15.3833L14.7414 16.915C14.9821 17.0183 15.211 16.9267 15.294 16.7283C15.377 16.5333 15.2864 16.3067 15.0936 16.22L10.5005 14.5033C10.0913 14.4608 7.82324 14.2983 3.79693 15.355L4.27737 17.6325Z" fill="#6B7084"/>
</svg>
