<svg width="24" height="24" viewBox="0 0 24 24" fill="none" xmlns="http://www.w3.org/2000/svg">
<path fill-rule="evenodd" clip-rule="evenodd" d="M20.8118 17.5983L15.9902 20.9558C15.8726 21.0375 15.7363 21.0883 15.5933 21.1017C15.5409 21.1067 14.8986 21.1667 14.0668 21.1667C13.1994 21.1667 12.1248 21.1017 11.2972 20.8408C10.473 20.5808 9.48128 20.0142 8.60631 19.515C8.05121 19.1975 7.29133 18.7633 7.06032 18.7192C6.77515 18.7225 5.17754 19.11 3.89048 19.47C3.66878 19.5317 3.431 19.4992 3.23553 19.38C3.03837 19.2608 2.89874 19.0658 2.8522 18.8408L2.0187 14.9317C1.92647 14.5017 2.18371 14.075 2.60681 13.9558C7.99282 12.4342 10.7895 12.8467 10.9071 12.865C10.9613 12.8733 11.0154 12.8875 11.067 12.9067L15.8303 14.6708C15.8379 14.6733 15.8421 14.68 15.8497 14.6825C15.8565 14.6858 15.8633 14.6842 15.87 14.6875C16.1941 14.8267 16.4564 15.0458 16.6604 15.305L19.061 13.8842C19.0805 13.8725 19.1025 13.8725 19.122 13.8625C19.1414 13.8533 19.1541 13.8367 19.1744 13.8283C20.2228 13.405 21.4236 13.9142 21.8509 14.9625C22.2613 15.9833 21.7951 17.1408 20.8118 17.5983ZM19.826 15.3692L17.0691 17C17.042 17.1308 17.0022 17.26 16.9472 17.3867C16.7306 17.8925 16.3304 18.2825 15.8201 18.485C15.573 18.5842 15.3158 18.6325 15.0577 18.6325C14.7818 18.6325 14.5068 18.5767 14.2462 18.4642L10.0499 16.9508C9.61668 16.7942 9.39328 16.3167 9.54983 15.8842C9.70468 15.4517 10.1828 15.2267 10.616 15.3833L14.8588 16.915C15.0349 16.9892 15.1457 16.9592 15.2032 16.9375C15.2582 16.915 15.3606 16.8583 15.4165 16.7292C15.5003 16.5333 15.4089 16.3067 15.2134 16.22L10.5788 14.5033C10.1642 14.4608 7.87268 14.2992 3.81264 15.355L4.29836 17.6325C5.25371 17.3817 6.59154 17.0558 7.1111 17.0558C7.63743 17.0558 8.26869 17.4025 9.43221 18.0675C10.2344 18.5258 11.1441 19.045 11.799 19.2508C12.773 19.5583 14.4391 19.5167 15.2219 19.46L19.9258 16.1842C19.9775 16.1483 20.0316 16.1183 20.09 16.095C20.2889 16.015 20.3862 15.7867 20.3058 15.5875C20.2296 15.3992 20.0198 15.3075 19.826 15.3692ZM16.3744 13.6667C14.2572 13.6667 12.5369 11.9908 12.4354 9.8975C10.3427 9.79667 8.66641 8.07583 8.66641 5.95833C8.66641 3.77583 10.4426 2 12.6249 2C14.7421 2 16.4624 3.67583 16.5639 5.76917C18.6574 5.87 20.3329 7.59083 20.3329 9.70833C20.3329 11.8917 18.5576 13.6667 16.3744 13.6667ZM12.6249 3.66667C11.3607 3.66667 10.3334 4.695 10.3334 5.95833C10.3334 7.2225 11.3607 8.25 12.6249 8.25C12.652 8.25 12.6782 8.24167 12.7053 8.24083C13.1081 7.23917 13.9052 6.44167 14.9071 6.03917C14.9079 6.0125 14.9164 5.98583 14.9164 5.95833C14.9164 4.695 13.8882 3.66667 12.6249 3.66667ZM16.3744 7.41667C15.111 7.41667 14.0829 8.445 14.0829 9.70833C14.0829 10.9725 15.111 12 16.3744 12C17.6386 12 18.6667 10.9725 18.6667 9.70833C18.6667 8.445 17.6386 7.41667 16.3744 7.41667Z" fill="#6B7084"/>
</svg>
