<svg viewBox="0 0 24 24" fill="none" xmlns="http://www.w3.org/2000/svg">
<path d="M17.595 2C15.2827 2 13.3964 3.83476 13.3355 6.08382V10.6411C12.9096 10.6411 12.4836 10.7003 11.9968 10.7003C11.51 10.7003 11.084 10.7003 10.6581 10.7595V6.08382C10.6581 3.83476 8.71093 2 6.33776 2.05919C4.08631 2.05919 2.2608 3.89394 2.19995 6.08382V16.974C2.2608 19.223 4.14715 21.0578 6.52031 20.9986C8.83259 20.9394 10.6581 19.1638 10.6581 16.974V12.4167C11.084 12.4167 11.51 12.3575 11.9968 12.3575C12.4836 12.3575 12.9096 12.3575 13.3355 12.2983V16.9148C13.3964 19.1638 15.2827 20.9986 17.6559 20.9394C19.9682 20.8802 21.7937 19.1047 21.7937 16.9148V6.08382C21.7937 3.83476 19.9073 2 17.595 2ZM6.45946 3.6572C7.85902 3.6572 8.95431 4.72254 8.95431 6.08382V10.8779C7.73731 11.0554 6.52031 11.4105 5.36416 11.884C4.87736 12.1207 4.39056 12.3575 3.9646 12.7126V6.08382C3.9646 4.78173 5.05991 3.6572 6.45946 3.6572ZM8.95431 16.974C8.95431 18.3352 7.85902 19.4006 6.45946 19.4006C5.05991 19.4006 3.9646 18.3352 3.9646 16.974V15.9086C3.9646 14.9617 4.75566 14.0147 6.09436 13.482C7.00711 13.0677 7.98072 12.831 9.01517 12.6534L8.95431 16.974ZM17.595 19.4006C16.1955 19.4006 15.1002 18.3352 15.1002 16.974V12.1799C16.3172 12.0024 17.5342 11.6473 18.6903 11.1738C19.1771 10.9371 19.664 10.7003 20.0899 10.3452V16.974C20.0899 18.3352 18.9338 19.4006 17.595 19.4006ZM17.9601 9.63495C17.0474 10.0493 16.0738 10.286 15.0393 10.4636V6.08382C15.0393 4.72254 16.1346 3.6572 17.5342 3.6572C18.9338 3.6572 20.0291 4.72254 20.0291 6.08382V7.14915C20.0899 8.1553 19.2989 9.04311 17.9601 9.63495Z" fill="url(#paint0_linear_620_14143)"/>
<defs>
<linearGradient id="paint0_linear_620_14143" x1="11.9968" y1="2" x2="-1.13764" y2="15.5038" gradientUnits="userSpaceOnUse">
<stop stop-color="#00E8A2"/>
<stop offset="1" stop-color="#00ADE8"/>
</linearGradient>
</defs>
</svg>