<svg width="24" height="24" viewBox="0 0 24 24" fill="none" xmlns="http://www.w3.org/2000/svg">
<path fill-rule="evenodd" clip-rule="evenodd" d="M20.5558 17.3333H3.44417C2.64833 17.3333 2 16.6983 2 15.9175V5.41667C2 4.63583 2.64833 4 3.44417 4H20.5558C21.3517 4 22 4.63583 22 5.41667V15.9175C22 16.6983 21.3517 17.3333 20.5558 17.3333ZM20.3333 5.66667H3.66667V15.6667H20.3333V5.66667ZM7.83415 7.33333C8.29415 7.33333 8.66748 7.70667 8.66748 8.16667V9.83333H9.50081V8.16667C9.50081 7.70667 9.87415 7.33333 10.3341 7.33333C10.7941 7.33333 11.1675 7.70667 11.1675 8.16667V13.1667C11.1675 13.6267 10.7941 14 10.3341 14C9.87415 14 9.50081 13.6267 9.50081 13.1667V11.5H8.66748V13.1667C8.66748 13.6267 8.29415 14 7.83415 14C7.37415 14 7.00081 13.6267 7.00081 13.1667V8.16667C7.00081 7.70667 7.37415 7.33333 7.83415 7.33333ZM12.8341 7.33333H14.6975C15.9675 7.33333 17.0008 8.39917 17.0008 9.70917V11.6142C17.0008 12.9292 15.9675 14 14.6975 14H12.8341C12.3741 14 12.0008 13.6267 12.0008 13.1667V8.16667C12.0008 7.70667 12.3741 7.33333 12.8341 7.33333ZM13.6675 12.3333H14.6975C15.0483 12.3333 15.3341 12.0108 15.3341 11.6142V9.70917C15.3341 9.31083 15.055 9 14.6975 9H13.6675V12.3333ZM7 19H17C17.46 19 17.8333 19.3733 17.8333 19.8333C17.8333 20.2933 17.46 20.6667 17 20.6667H7C6.54 20.6667 6.16667 20.2933 6.16667 19.8333C6.16667 19.3733 6.54 19 7 19Z" fill="#6B7084"/>
</svg>
