<svg viewBox="0 0 24 24" fill="none" xmlns="http://www.w3.org/2000/svg">
<path fill-rule="evenodd" clip-rule="evenodd" d="M16.1663 5.33333H17.8329L13.6663 11.1667L14.4996 7H12.8329L14.5776 2H18.6663L16.1663 5.33333ZM11.1402 3.66667C7.88409 3.66667 5.3329 6.13083 5.3329 9.2775V10.285C5.3329 10.2908 5.33039 10.295 5.33039 10.3C5.32955 10.3567 5.30941 10.4117 5.29598 10.4675C5.28423 10.52 5.28003 10.575 5.25821 10.6242C5.2557 10.6292 5.25654 10.6342 5.25402 10.6392L3.98849 13.3342L4.96701 13.6525C5.27332 13.7525 5.49571 14.0217 5.53515 14.3425L6.01518 18.2292C6.04623 18.4783 6.25855 18.6667 6.51031 18.6667H8.66624C8.95408 18.6667 9.22095 18.815 9.37369 19.0583L10.1701 20.3333H15.2121L14.508 15.1492C14.4719 14.8892 14.5617 14.6275 14.7488 14.4425C14.7656 14.4267 16.4138 12.7867 17.0424 10.9025C17.1892 10.4667 17.6609 10.2325 18.0964 10.3758C18.5336 10.5217 18.7695 10.9942 18.6234 11.43C18.0377 13.1867 16.7864 14.6925 16.2132 15.3217L16.992 21.0542C17.0247 21.2933 16.9526 21.5333 16.794 21.715C16.6362 21.8958 16.4071 22 16.1662 22H9.70769C9.42068 22 9.15382 21.8517 9.00108 21.6083L8.20467 20.3333H6.51031C5.42018 20.3333 4.49621 19.5167 4.36194 18.4342L3.94569 15.0733L2.57443 14.6258C2.34784 14.5517 2.16322 14.3833 2.06839 14.1642C1.97356 13.945 1.97775 13.6958 2.07846 13.4792L3.66624 10.0992V9.2775C3.66624 5.19667 6.94922 2 11.1402 2C11.6009 2 11.9736 2.37333 11.9736 2.83333C11.9736 3.29333 11.6009 3.66667 11.1402 3.66667Z" fill="currentColor"/>
</svg>