<svg viewBox="0 0 24 24" fill="none" xmlns="http://www.w3.org/2000/svg">
<path fill-rule="evenodd" clip-rule="evenodd" d="M18.6227 12.0517C18.0558 13.7092 17.0859 14.83 16.5577 15.3517L17.3517 21.0542C17.3845 21.2933 17.3113 21.5333 17.149 21.715C16.9867 21.8958 16.7528 22 16.5064 22H9.89325C9.59884 22 9.32547 21.8517 9.16902 21.6083L8.3531 20.3333H6.61781C5.49992 20.3333 4.55447 19.5158 4.41904 18.4325L3.99342 15.0733L2.5887 14.6258C2.3557 14.5517 2.16729 14.3833 2.06971 14.1642C1.97298 13.945 1.97719 13.6958 2.08065 13.4792L3.70659 10.0983V9.2775C3.70659 5.19667 7.06782 2 11.3594 2C11.8313 2 12.2131 2.37333 12.2131 2.83333C12.2131 3.29333 11.8313 3.66667 11.3594 3.66667C8.02505 3.66667 5.41328 6.13083 5.41328 9.2775V10.285C5.41328 10.2908 5.40992 10.295 5.40992 10.3008C5.40908 10.3558 5.38889 10.41 5.37543 10.4658C5.36365 10.5192 5.35861 10.575 5.3359 10.6242C5.33421 10.6292 5.33506 10.6342 5.33253 10.6392L4.03632 13.3342L5.03813 13.6525C5.35188 13.7525 5.57899 14.0217 5.61936 14.3417L6.11312 18.2292C6.14424 18.4792 6.36126 18.6667 6.61781 18.6667H8.82667C9.12023 18.6667 9.3936 18.815 9.55006 19.0583L10.366 20.3333H15.5289L14.8072 15.1492C14.7669 14.8617 14.8838 14.5742 15.1151 14.39C15.1244 14.3825 16.3777 13.355 17.0035 11.5242C17.1524 11.0883 17.6386 10.8558 18.0827 10.9975C18.5302 11.1433 18.7716 11.6158 18.6227 12.0517ZM14.7997 6.16667C16.2347 6.16667 17.3593 7.08167 17.3593 8.25C17.3593 9.17917 16.6427 9.94 15.6283 10.2158C15.635 10.2558 15.6526 10.2917 15.6526 10.3333V11.1667C15.6526 11.6267 15.2708 12 14.7997 12C14.3287 12 13.946 11.6267 13.946 11.1667V10.3333H13.093C12.622 10.3333 12.2393 9.96 12.2393 9.5C12.2393 9.04 12.622 8.66667 13.093 8.66667H14.7997C15.3288 8.66667 15.6526 8.39667 15.6526 8.25C15.6526 8.10333 15.3288 7.83333 14.7997 7.83333C13.3639 7.83333 12.2393 6.91833 12.2393 5.75C12.2393 4.82083 12.9568 4.06 13.9703 3.78417C13.9645 3.74417 13.946 3.70833 13.946 3.66667V2.83333C13.946 2.37333 14.3287 2 14.7997 2C15.2708 2 15.6526 2.37333 15.6526 2.83333V3.66667H16.5064C16.9775 3.66667 17.3593 4.04 17.3593 4.5C17.3593 4.96 16.9775 5.33333 16.5064 5.33333H14.7997C14.2706 5.33333 13.946 5.6025 13.946 5.75C13.946 5.8975 14.2706 6.16667 14.7997 6.16667Z" fill="currentColor"/>
</svg>