<svg viewBox="0 0 24 24" fill="none" xmlns="http://www.w3.org/2000/svg">
<path fill-rule="evenodd" clip-rule="evenodd" d="M16.6076 9.49334H16.3631C15.5363 10.4417 14.0436 10.6808 13.8533 10.7075C13.8141 10.7125 13.7749 10.7158 13.7365 10.7158C13.4403 10.7158 13.1625 10.5575 13.0131 10.2958C12.8437 9.99917 12.8721 9.63084 13.084 9.36417C13.2609 9.14001 13.4954 8.76501 13.6306 8.42917C12.7887 7.87667 12.0503 6.92001 12.0503 5.74667C12.0503 3.69501 14.0945 2.02584 16.6076 2.02584C19.1216 2.02584 21.1667 3.69501 21.1667 5.74667C21.1667 7.81251 19.1216 9.49334 16.6076 9.49334ZM16.6076 3.6925C15.0407 3.6925 13.7165 4.63334 13.7165 5.74667C13.7165 6.39667 14.3173 6.98834 14.8813 7.21417C15.1975 7.34084 15.4045 7.6475 15.4045 7.98834C15.4045 7.99667 15.4045 8.005 15.4045 8.01334C15.5505 7.895 15.7357 7.82667 15.9309 7.82667H16.6076C18.1754 7.82667 19.4996 6.87417 19.4996 5.74667C19.4996 4.63334 18.1754 3.6925 16.6076 3.6925ZM10.1512 3.66667C7.49457 3.66667 5.33354 6.18333 5.33354 9.27667V10.285C5.33354 10.2908 5.3302 10.295 5.3302 10.3008C5.32936 10.3558 5.30934 10.4092 5.29682 10.465C5.28514 10.5183 5.28013 10.575 5.25844 10.6242C5.25594 10.6292 5.25677 10.635 5.25427 10.64L3.98935 13.3333L4.96641 13.6525C5.27429 13.7525 5.4954 14.0217 5.53545 14.3425L6.01606 18.2292C6.04693 18.4783 6.25886 18.6667 6.51001 18.6667H8.66687C8.9539 18.6667 9.2209 18.815 9.37359 19.0583L10.1704 20.3333H15.2126L14.5075 15.1492C14.4733 14.9 14.5542 14.6483 14.7269 14.465C14.7378 14.4533 15.8175 13.3033 16.5459 12.0917C16.7837 11.6975 17.2952 11.57 17.6898 11.8067C18.0845 12.0433 18.2113 12.5558 17.9743 12.95C17.3819 13.9358 16.6135 14.8533 16.2113 15.3092L16.9923 21.0542C17.0248 21.2925 16.9531 21.5342 16.7945 21.715C16.636 21.8958 16.4074 22 16.1662 22H9.70817C9.42115 22 9.15415 21.8525 9.00145 21.6083L8.20463 20.3333H6.51001C5.42031 20.3333 4.49666 19.5175 4.36149 18.4342L3.94597 15.0725L2.57509 14.6258C2.34814 14.5517 2.16374 14.3842 2.06862 14.1642C1.9735 13.945 1.97767 13.6958 2.07863 13.4792L3.66645 10.0992V9.27667C3.66645 5.26417 6.57592 2 10.1512 2C10.611 2 10.9839 2.37333 10.9839 2.83333C10.9839 3.29333 10.611 3.66667 10.1512 3.66667Z" fill="currentColor"/>
</svg>