<svg viewBox="0 0 24 24" fill="none" xmlns="http://www.w3.org/2000/svg">
<path fill-rule="evenodd" clip-rule="evenodd" d="M16.167 12C13.4094 12 11.1666 9.75667 11.1666 7C11.1666 4.24333 13.4094 2 16.167 2C18.9238 2 21.1666 4.24333 21.1666 7C21.1666 9.75667 18.9238 12 16.167 12ZM16.1671 3.66667C14.329 3.66667 12.8337 5.1625 12.8337 7C12.8337 8.8375 14.329 10.3333 16.1671 10.3333C18.0044 10.3333 19.5004 8.8375 19.5004 7C19.5004 5.1625 18.0044 3.66667 16.1671 3.66667ZM15.3335 7V6.16667V4.5H16.9998V6.16667H18.6669V7.83333H15.3335V7ZM10.0552 3.66667C8.15367 3.66667 5.33346 6.0225 5.33346 9.27667V10.285C5.33346 10.2908 5.33096 10.295 5.33012 10.3008C5.32929 10.3567 5.30926 10.4108 5.29675 10.4667C5.28506 10.52 5.28006 10.575 5.25836 10.6242C5.25586 10.6292 5.2567 10.635 5.25503 10.64L3.98927 13.3333L4.96717 13.6525C5.27422 13.7525 5.49616 14.0217 5.53538 14.3425L6.01598 18.2292C6.04685 18.4783 6.25879 18.6667 6.50994 18.6667H8.66681C8.95384 18.6667 9.22084 18.815 9.37353 19.0583L10.1704 20.3333H15.2125L14.5075 15.1492C14.4708 14.8792 14.5692 14.6075 14.7695 14.4233C14.7753 14.4183 15.3127 13.9233 15.8892 13.2642C16.1929 12.9175 16.7194 12.8833 17.0649 13.185C17.412 13.4883 17.447 14.0142 17.1441 14.3608C16.7887 14.7675 16.4507 15.1133 16.2163 15.345L16.9923 21.0542C17.0248 21.2925 16.953 21.5342 16.7945 21.715C16.636 21.8958 16.4074 22 16.1671 22H9.70812C9.42109 22 9.15409 21.8525 9.0014 21.6083L8.20456 20.3333H6.50994C5.42023 20.3333 4.49657 19.5175 4.3614 18.4342L3.94672 15.0725L2.575 14.6258C2.34804 14.5517 2.16365 14.3842 2.06853 14.1642C1.97341 13.945 1.97758 13.6958 2.07937 13.4792L3.66637 10.0992V9.27667C3.66637 5.17917 7.10151 2 10.0552 2C10.515 2 10.8888 2.37333 10.8888 2.83333C10.8888 3.29333 10.515 3.66667 10.0552 3.66667Z" fill="currentColor"/>
</svg>