<svg width="24" height="24" viewBox="0 0 24 24" fill="none" xmlns="http://www.w3.org/2000/svg">
<path fill-rule="evenodd" clip-rule="evenodd" d="M16.1672 7.75667V7.83333C16.1672 7.92583 16.1455 8.01167 16.1138 8.0925C16.0729 8.215 16.0137 8.33083 15.9252 8.425C15.8826 8.465 15.8284 8.48833 15.7783 8.52C15.7182 8.5575 15.659 8.59167 15.5914 8.61417C15.5113 8.645 15.4261 8.66667 15.3335 8.66667C15.2409 8.66667 15.1566 8.645 15.0756 8.61417C14.953 8.57333 14.8361 8.51417 14.7418 8.425C14.6525 8.33083 14.5933 8.21333 14.5524 8.09083C14.5215 8.01 14.5006 7.92583 14.5006 7.83333V7.11833C14.5006 7.0975 14.5107 7.08 14.5123 7.05917C14.5107 7.03833 14.5006 7.02083 14.5006 7C14.5006 6.54 14.8737 6.16667 15.3335 6.16667C16.4393 6.16667 17.0001 5.76667 17.0001 4.97583C17.0001 4.25417 16.4126 3.66667 15.6899 3.66667C14.953 3.66667 14.5006 4.1525 14.5006 4.5C14.5006 4.96 14.1268 5.33333 13.6669 5.33333C13.2071 5.33333 12.8332 4.96 12.8332 4.5C12.8332 3.12167 14.1151 2 15.6899 2C17.3314 2 18.6667 3.335 18.6667 4.97583C18.6667 6.45833 17.7069 7.48667 16.1672 7.75667ZM14.7418 10.925C14.5916 10.7667 14.5006 10.55 14.5006 10.3333C14.5006 10.1167 14.5916 9.9 14.7418 9.74166C15.0581 9.43333 15.6164 9.43333 15.9252 9.74166C16.0745 9.9 16.1672 10.1167 16.1672 10.3333C16.1672 10.55 16.0745 10.7667 15.9252 10.925C15.7666 11.075 15.5588 11.1667 15.3335 11.1667C15.1165 11.1667 14.9004 11.075 14.7418 10.925ZM10.3338 3.66667C7.48302 3.66667 5.33325 6.07833 5.33325 9.27667V10.285C5.33325 10.2908 5.33075 10.295 5.33075 10.3008C5.32991 10.3567 5.30989 10.4108 5.29737 10.4667C5.28485 10.52 5.28068 10.575 5.25814 10.6242C5.25647 10.6292 5.25731 10.635 5.25481 10.64L3.98881 13.3333L4.96689 13.6525C5.274 13.7525 5.49599 14.0217 5.53605 14.3425L6.0159 18.2292C6.04678 18.4783 6.25959 18.6667 6.50995 18.6667H8.6664C8.95431 18.6667 9.22137 18.815 9.37325 19.0583L10.1702 20.3333H15.2125L14.5082 15.1492C14.4723 14.8892 14.5624 14.6275 14.7485 14.4433C14.7577 14.435 15.6273 13.5708 16.345 12.3775C16.582 11.9833 17.0927 11.855 17.4883 12.0933C17.883 12.33 18.0099 12.8425 17.7729 13.2367C17.2087 14.1742 16.5753 14.9233 16.2131 15.3208L16.9926 21.0542C17.0251 21.2925 16.9534 21.5342 16.7948 21.715C16.6362 21.8958 16.4076 22 16.1672 22H9.70874C9.42165 22 9.1546 21.8525 9.00188 21.6083L8.2049 20.3333H6.50995C5.42004 20.3333 4.49621 19.5175 4.36185 18.4342L3.94625 15.0725L2.5751 14.6258C2.34811 14.5517 2.16368 14.3842 2.06854 14.1642C1.9734 13.945 1.97757 13.6958 2.07939 13.4792L3.66668 10.0992V9.27667C3.66668 5.19667 6.59507 2 10.3338 2C10.7936 2 11.1667 2.37333 11.1667 2.83333C11.1667 3.29333 10.7936 3.66667 10.3338 3.66667Z" fill="#6B7084"/>
</svg>
