<svg width="24" height="24" viewBox="0 0 24 24" fill="none" xmlns="http://www.w3.org/2000/svg">
<path fill-rule="evenodd" clip-rule="evenodd" d="M16.1831 22C16.1773 22 16.1723 22 16.1664 22H9.70799C9.35999 22 9.04955 21.7842 8.9277 21.4592L8.49876 20.3166L6.16958 20.2474C6.1312 20.2458 6.09281 20.2424 6.05525 20.2358C5.18985 20.0891 4.51721 19.3883 4.41874 18.5324L4.02317 15.0781L2.58444 14.6289C2.35495 14.5564 2.16718 14.3889 2.07037 14.1681C1.97357 13.9489 1.97691 13.6972 2.07872 13.4789L3.66683 10.0996V9.2771C3.66683 5.30531 6.84222 2.12188 10.9072 2.00438C10.9389 2.00105 10.9698 1.99938 11.0032 2.00021C15.2284 2.09105 18.6667 5.35448 18.6667 9.27544C18.6667 10.213 18.3604 11.263 18.347 11.3072C17.7912 13.1689 16.6429 14.6689 16.108 15.2981L16.9651 20.8783C16.9984 20.9683 17.0168 21.0658 17.0168 21.1666C17.0168 21.6267 16.6438 22 16.1831 22ZM10.2854 20.3333H15.195L14.4013 15.164C14.3613 14.9081 14.4447 14.6473 14.6233 14.4598C14.6383 14.4439 16.1463 12.8539 16.7497 10.833C16.7505 10.8288 17.0001 9.96963 17.0001 9.27544C17.0001 6.32118 14.2686 3.76527 11.0223 3.6686C11.0157 3.6686 11.0098 3.6686 11.0031 3.66943C7.82357 3.73693 5.33334 6.20034 5.33334 9.27711V10.2863C5.33334 10.4088 5.30663 10.5296 5.25406 10.6405L3.99392 13.3231L5.03791 13.6497C5.35253 13.7481 5.57952 14.0231 5.61791 14.3506L6.07523 18.3424C6.08775 18.4541 6.17538 18.5491 6.29388 18.5832L9.10792 18.6674C9.4459 18.6774 9.74466 18.8907 9.86316 19.2074L10.2854 20.3333Z" fill="#6B7084"/>
</svg>
