<svg width="24" height="24" viewBox="0 0 24 24" fill="none" xmlns="http://www.w3.org/2000/svg">
<path fill-rule="evenodd" clip-rule="evenodd" d="M20.9222 10.9225C20.7597 11.085 20.5461 11.1667 20.3334 11.1667C20.1198 11.1667 19.907 11.085 19.7437 10.9225L17.7384 8.91667C17.1604 9.28083 16.482 9.5 15.7499 9.5C13.6818 9.5 11.9998 7.8175 11.9998 5.75C11.9998 3.6825 13.6818 2 15.7499 2C17.818 2 19.4999 3.6825 19.4999 5.75C19.4999 6.4825 19.2805 7.16083 18.917 7.73833L20.9222 9.74417C21.2481 10.07 21.2481 10.5975 20.9222 10.9225ZM15.75 3.66667C14.6016 3.66667 13.6668 4.60167 13.6668 5.75C13.6668 6.89833 14.6016 7.83333 15.75 7.83333C16.8983 7.83333 17.8331 6.89833 17.8331 5.75C17.8331 4.60167 16.8983 3.66667 15.75 3.66667ZM10.0549 3.66667C8.15344 3.66667 5.33397 6.0225 5.33397 9.27667V10.285C5.33397 10.2908 5.33062 10.295 5.33062 10.3008C5.32978 10.3558 5.30968 10.41 5.29712 10.465C5.28539 10.5192 5.28036 10.575 5.25859 10.6242C5.25607 10.6292 5.25691 10.635 5.2544 10.64L3.98874 13.3333L4.96709 13.6525C5.2745 13.7525 5.49564 14.0217 5.53584 14.3425L6.0158 18.2292C6.0468 18.4783 6.25956 18.6667 6.51001 18.6667H8.66691C8.95421 18.6667 9.22058 18.815 9.37387 19.0583L10.1705 20.3333H15.2122L14.5077 15.1492C14.4709 14.8792 14.5689 14.6075 14.7699 14.4233C14.7833 14.4108 16.162 13.1383 16.8749 11.9525C17.1119 11.5592 17.6237 11.4317 18.0191 11.6683C18.4127 11.9058 18.5401 12.4175 18.303 12.8125C17.689 13.8333 16.7165 14.8508 16.2165 15.345L16.9921 21.0542C17.0248 21.2925 16.9528 21.5342 16.7944 21.715C16.6361 21.8958 16.4075 22 16.1662 22H9.70808C9.42161 22 9.15441 21.8525 9.00196 21.6083L8.20537 20.3333H6.51001C5.42025 20.3333 4.49634 19.5175 4.36232 18.4342L3.94602 15.0725L2.57482 14.6258C2.34782 14.5517 2.16354 14.3842 2.06889 14.1642C1.9734 13.945 1.97759 13.6958 2.07894 13.4792L3.66709 10.0992V9.27667C3.66709 5.17917 7.10137 2 10.0549 2C10.5156 2 10.8883 2.37333 10.8883 2.83333C10.8883 3.29333 10.5156 3.66667 10.0549 3.66667Z" fill="#6B7084"/>
</svg>
