<svg viewBox="0 0 24 24" fill="none" xmlns="http://www.w3.org/2000/svg">
<path fill-rule="evenodd" clip-rule="evenodd" d="M17.8379 8.18583C17.8371 8.205 17.8362 8.22167 17.8362 8.2325V8.68917C17.8379 8.79583 17.8237 9.41667 17.3581 9.88917C17.147 10.1033 16.769 10.3592 16.1641 10.3592C15.086 10.3592 14.5044 9.525 14.5044 8.74V8.28917C14.5053 8.25333 14.5044 8.2175 14.5019 8.18667C13.7359 7.59 12.8264 6.68667 12.8264 5.42917C12.8264 3.53833 14.3234 2 16.1641 2C18.0031 2 19.5 3.53833 19.5 5.42917C19.5 6.78333 18.4003 7.75083 17.8379 8.18583ZM16.164 3.66667C15.2412 3.66667 14.4919 4.4575 14.4919 5.42917C14.4919 5.88333 14.8782 6.39167 15.6734 6.98417C15.7051 7.0075 15.7351 7.03333 15.7627 7.06083C16.0939 7.38917 16.1632 7.8725 16.1699 8.16917C16.1782 7.77 16.2767 7.26 16.678 6.97417C17.4507 6.3975 17.8345 5.88917 17.8345 5.42917C17.8345 4.4575 17.0852 3.66667 16.164 3.66667ZM10.3273 3.66667C7.47863 3.66667 5.33085 6.07833 5.33085 9.27667V10.285C5.33085 10.2908 5.32835 10.2958 5.32751 10.3008C5.32668 10.3558 5.30749 10.4083 5.29497 10.4625C5.28329 10.5175 5.27828 10.5742 5.25575 10.6242C5.25325 10.6292 5.25408 10.635 5.25241 10.64L3.98745 13.3333L4.96454 13.6525C5.27161 13.7525 5.49273 14.0217 5.53278 14.3425L6.01423 18.2292C6.04511 18.4792 6.25705 18.6667 6.50904 18.6667H8.66182C8.94886 18.6667 9.21587 18.815 9.36773 19.0583L10.1646 20.3333H15.2036L14.4994 15.1492C14.4643 14.8892 14.5536 14.6267 14.7405 14.4433C14.7497 14.4342 15.62 13.57 16.3367 12.3775C16.5737 11.9825 17.086 11.8558 17.4799 12.0933C17.8729 12.33 18.0006 12.8425 17.7636 13.2367C17.1995 14.1742 16.5662 14.9233 16.2032 15.3208L16.9826 21.0542C17.0143 21.2925 16.9425 21.5342 16.784 21.715C16.6263 21.8958 16.3977 22 16.1573 22H9.70317C9.41613 22 9.14912 21.8525 8.99726 21.6083L8.20039 20.3333H6.50904C5.41596 20.3333 4.4931 19.5158 4.36126 18.4325L3.94489 15.0725L2.57479 14.6258C2.34699 14.5517 2.16342 14.3842 2.0683 14.1642C1.97401 13.945 1.97735 13.6958 2.07831 13.4792L3.66536 10.0992V9.27667C3.66536 5.19667 6.59165 2 10.3273 2C10.7879 2 11.1609 2.37333 11.1609 2.83333C11.1609 3.29333 10.7879 3.66667 10.3273 3.66667Z" fill="currentColor"/>
</svg>