<svg viewBox="0 0 24 24" fill="none" xmlns="http://www.w3.org/2000/svg">
<path fill-rule="evenodd" clip-rule="evenodd" d="M20.9688 7.33C20.9262 7.51083 20.7457 7.65167 20.5618 7.65167C20.5568 7.65167 20.5535 7.65167 20.5485 7.65167L19.9468 7.62667C19.9401 7.62667 19.9334 7.625 19.9267 7.625C19.7412 7.625 19.5089 7.74333 19.4011 7.89L19.0217 8.31583C18.8804 8.44167 18.7826 8.70083 18.8044 8.88917L18.8804 9.59417C18.9013 9.78333 18.7701 9.98333 18.5888 10.0383L17.7932 10.2825C17.7589 10.2942 17.7222 10.2992 17.6862 10.2992C17.5341 10.2992 17.3787 10.2117 17.3085 10.0758L16.9809 9.44333C16.8915 9.275 16.6683 9.11333 16.4811 9.08583L16.0031 8.9675C15.9463 8.9475 15.8778 8.93833 15.8093 8.93833C15.663 8.93833 15.5051 8.98083 15.4006 9.05833L15.0053 9.34917C14.9368 9.40083 14.849 9.42583 14.763 9.42583C14.6585 9.42583 14.5549 9.38917 14.478 9.31917L13.8713 8.74667C13.7342 8.61583 13.7033 8.37667 13.8044 8.2175L14.076 7.78583C14.1788 7.62667 14.1964 7.35333 14.1136 7.1825C14.1136 7.1825 14.0952 7.14167 14.0384 6.9475C13.9749 6.74417 13.9674 6.67417 13.9674 6.67417C13.9398 6.48583 13.7768 6.26917 13.6022 6.1925L13.1309 5.98333C12.9579 5.90667 12.8526 5.6925 12.8944 5.50583L13.0816 4.69083C13.1242 4.51 13.3047 4.36917 13.4852 4.36917C13.4919 4.36917 13.4986 4.36917 13.5036 4.36917L14.0326 4.39167C14.0367 4.39167 14.0434 4.3925 14.0484 4.3925C14.2356 4.3925 14.4696 4.2775 14.5808 4.13L14.8198 3.86167C14.9568 3.73167 15.0546 3.47083 15.0329 3.27917L14.9711 2.705C14.9502 2.51583 15.0789 2.31583 15.2594 2.26L16.0566 2.01583C16.0926 2.005 16.1302 2 16.1661 2C16.319 2 16.472 2.08667 16.543 2.22167L16.7695 2.65833C16.8555 2.82667 17.082 2.97833 17.2692 2.99417L17.738 3.08083C17.7865 3.09583 17.8425 3.10083 17.8993 3.10083C18.0573 3.10083 18.2328 3.0525 18.3414 2.97L18.8044 2.62917C18.8737 2.57833 18.9606 2.55333 19.0467 2.55333C19.1504 2.55333 19.2565 2.59 19.3325 2.66167L19.9401 3.23417C20.078 3.36417 20.1072 3.6 20.0053 3.76167L19.7579 4.15667C19.6568 4.3175 19.6434 4.58583 19.732 4.75417C19.732 4.75417 19.8097 4.90167 19.8849 5.1575C19.9351 5.31083 19.9351 5.31083 19.9351 5.31083C19.9643 5.48333 20.1306 5.68833 20.3044 5.765L20.9212 6.03667C21.0925 6.1125 21.1995 6.3275 21.1577 6.51333L20.9688 7.33ZM17.0611 4.48C16.1419 4.48 15.3948 5.22583 15.3948 6.14667C15.3948 7.06666 16.1419 7.8125 17.0611 7.8125C17.9821 7.8125 18.7275 7.06666 18.7275 6.14667C18.7275 5.22583 17.9821 4.48 17.0611 4.48ZM11.1402 3.66667C7.88431 3.66667 5.33294 6.13083 5.33294 9.2775V10.285C5.33294 10.2908 5.33044 10.295 5.33044 10.3008C5.3296 10.3567 5.30954 10.4108 5.29701 10.4667C5.28447 10.52 5.28029 10.575 5.25857 10.6242C5.25606 10.6292 5.25689 10.6342 5.25439 10.6392L3.98915 13.3342L4.96691 13.6525C5.27361 13.7525 5.4959 14.0217 5.53518 14.3417L6.01654 18.2292C6.04746 18.4792 6.25889 18.6667 6.5096 18.6667H8.66652C8.95316 18.6667 9.22058 18.815 9.37268 19.0583L10.1699 20.3333H15.2117L14.5072 15.1492C14.4712 14.8892 14.5615 14.6267 14.7479 14.4425C14.757 14.4342 15.6278 13.57 16.3449 12.3775C16.5822 11.9842 17.0936 11.8558 17.4889 12.0933C17.8834 12.3308 18.0104 12.8425 17.7731 13.2375C17.209 14.1742 16.5747 14.9233 16.212 15.3217L16.9909 21.0542C17.0243 21.2933 16.9516 21.5333 16.7936 21.715C16.6357 21.8958 16.4059 22 16.166 22H9.70779C9.42031 22 9.15373 21.8517 9.0008 21.6083L8.20438 20.3333H6.5096C5.41818 20.3333 4.49474 19.5158 4.3627 18.4325L3.94653 15.0733L2.57516 14.6258C2.34785 14.5517 2.164 14.3833 2.06873 14.1642C1.97346 13.945 1.97764 13.6958 2.07876 13.4792L3.66657 10.0992V9.2775C3.66657 5.19667 6.94917 2 11.1402 2C11.6006 2 11.9734 2.37333 11.9734 2.83333C11.9734 3.29333 11.6006 3.66667 11.1402 3.66667Z" fill="currentColor"/>
</svg>