<svg viewBox="0 0 24 24" fill="none" xmlns="http://www.w3.org/2000/svg">
<path fill-rule="evenodd" clip-rule="evenodd" d="M7.68745 4.55001C5.50935 4.55001 3.79995 6.23702 3.79995 8.25001C3.79995 11.5245 5.84962 14.3256 8.04545 16.3725C9.13032 17.3839 10.2185 18.1803 11.0366 18.7242C11.434 18.9884 11.7658 19.1917 12 19.3299C12.2341 19.1917 12.5659 18.9884 12.9633 18.7242C13.7814 18.1803 14.8696 17.3839 15.9545 16.3725C18.1503 14.3256 20.2 11.5245 20.2 8.25001C20.2 6.23702 18.4906 4.55001 16.3125 4.55001C14.6898 4.55001 13.3164 5.49308 12.7308 6.80872C12.6023 7.09742 12.316 7.28343 12 7.28343C11.684 7.28343 11.3976 7.09742 11.2691 6.80872C10.6835 5.49308 9.31015 4.55001 7.68745 4.55001ZM12 20.25C11.6247 20.9566 11.6245 20.9564 11.6242 20.9563L11.6214 20.9548L11.6147 20.9512L11.5918 20.9388C11.5724 20.9283 11.5447 20.913 11.5092 20.8932C11.4382 20.8536 11.3362 20.7957 11.2076 20.7201C10.9504 20.5688 10.5863 20.3461 10.1508 20.0566C9.28141 19.4787 8.11958 18.629 6.95445 17.5429C4.65028 15.395 2.19995 12.1961 2.19995 8.25001C2.19995 5.29244 4.68788 2.95001 7.68745 2.95001C9.42898 2.95001 10.9913 3.73554 12 4.97193C13.0086 3.73554 14.5709 2.95001 16.3125 2.95001C19.312 2.95001 21.7999 5.29244 21.7999 8.25001C21.7999 12.1961 19.3496 15.395 17.0454 17.5429C15.8803 18.629 14.7185 19.4787 13.8491 20.0566C13.4136 20.3461 13.0495 20.5688 12.7923 20.7201C12.6637 20.7957 12.5617 20.8536 12.4907 20.8932C12.4552 20.913 12.4275 20.9283 12.4081 20.9388L12.3852 20.9512L12.3785 20.9548L12.3764 20.9559C12.3762 20.956 12.3752 20.9566 12 20.25ZM12 20.25L12.3752 20.9566C12.1405 21.0812 11.8588 21.0809 11.6242 20.9563L12 20.25Z" fill="currentColor"/>
</svg>