<svg viewBox="0 0 24 24" fill="none" xmlns="http://www.w3.org/2000/svg">
<path fill-rule="evenodd" clip-rule="evenodd" d="M3.79995 8.25001C3.79995 6.23702 5.50935 4.55001 7.68745 4.55001C9.07965 4.55001 10.2883 5.24419 10.9734 6.27226L8.2994 9.78192C8.15608 9.97003 8.10333 10.2119 8.15532 10.4426C8.2073 10.6733 8.35869 10.8692 8.56883 10.9776L13.1748 13.3549L10.8323 15.0159C10.5878 15.1893 10.4607 15.4849 10.5031 15.7817L10.9115 18.6405C10.1094 18.0999 9.07592 17.3331 8.04545 16.3725C5.84962 14.3256 3.79995 11.5245 3.79995 8.25001ZM12.5757 18.9763C12.6962 18.8997 12.8258 18.8156 12.9633 18.7242C13.7814 18.1803 14.8696 17.3839 15.9545 16.3725C18.1503 14.3256 20.2 11.5245 20.2 8.25001C20.2 6.23702 18.4906 4.55001 16.3125 4.55001C14.6898 4.55001 13.3164 5.49308 12.7308 6.80872C12.6835 6.91515 12.6146 7.00762 12.5308 7.08197L10.1499 9.99316L15.0769 12.5362C15.325 12.6642 15.4884 12.9124 15.508 13.191C15.5276 13.4695 15.4005 13.7381 15.1727 13.8996L12.1561 16.0387L12.5757 18.9763ZM11.6242 20.9563C11.6245 20.9564 11.6247 20.9566 12 20.25L12.3752 20.9566C12.1405 21.0812 11.8588 21.0809 11.6242 20.9563ZM11.6242 20.9563L12 20.25C12.3752 20.9566 12.3762 20.956 12.3764 20.9559L12.3785 20.9548L12.3852 20.9512L12.4081 20.9388C12.4275 20.9283 12.4552 20.913 12.4907 20.8932C12.5617 20.8536 12.6637 20.7957 12.7923 20.7201C13.0495 20.5688 13.4136 20.3461 13.8491 20.0566C14.7185 19.4787 15.8803 18.629 17.0454 17.5429C19.3496 15.395 21.7999 12.1961 21.7999 8.25001C21.7999 5.29244 19.312 2.95001 16.3125 2.95001C14.5709 2.95001 13.0086 3.73554 12 4.97193C10.9913 3.73554 9.42898 2.95001 7.68745 2.95001C4.68788 2.95001 2.19995 5.29244 2.19995 8.25001C2.19995 12.1961 4.65028 15.395 6.95445 17.5429C8.11958 18.629 9.28141 19.4787 10.1508 20.0566C10.5863 20.3461 10.9504 20.5688 11.2076 20.7201C11.3362 20.7957 11.4382 20.8536 11.5092 20.8932C11.5447 20.913 11.5724 20.9283 11.5918 20.9388L11.6147 20.9512L11.6214 20.9548L11.6242 20.9563Z" fill="currentColor"/>
</svg>