<svg viewBox="0 0 24 24" fill="none" xmlns="http://www.w3.org/2000/svg">
<path fill-rule="evenodd" clip-rule="evenodd" d="M3.79995 8.25001C3.79995 6.23702 5.50935 4.55001 7.68745 4.55001C9.07454 4.55001 10.2795 5.2391 10.9658 6.26096L8.2859 8.94574C7.93784 9.29454 7.74231 9.76755 7.74231 10.2608C7.74231 10.754 7.93793 11.2271 8.28599 11.5759L8.8384 12.1293C9.86813 13.1609 11.5389 13.1609 12.5687 12.1293L13.586 11.1101C14.0357 10.6596 14.6456 10.4065 15.2815 10.4065C15.9175 10.4065 16.5274 10.6596 16.977 11.1101L18.8085 12.9287C18.4758 13.4863 18.098 14.0177 17.6918 14.5203L15.875 12.7237C15.5472 12.3954 15.0158 12.3954 14.688 12.7237C14.3603 13.0521 14.3603 13.5845 14.688 13.9128L16.57 15.7738C16.3672 15.9799 16.1615 16.1796 15.9545 16.3725C15.6846 16.6241 15.4146 16.8623 15.1486 17.0867L13.3317 15.2716C13.0039 14.9433 12.4725 14.9433 12.1447 15.2716C11.817 15.6 11.817 16.1324 12.1447 16.4607L13.9075 18.0637C13.5676 18.3136 13.249 18.5343 12.9633 18.7242C12.5659 18.9884 12.2341 19.1917 12 19.3299C11.7658 19.1917 11.434 18.9884 11.0366 18.7242C10.2185 18.1803 9.13032 17.3839 8.04545 16.3725C5.84962 14.3256 3.79995 11.5245 3.79995 8.25001ZM19.5899 11.3495C19.9733 10.3756 20.2 9.33897 20.2 8.25001C20.2 6.23702 18.4906 4.55001 16.3125 4.55001C14.6898 4.55001 13.3164 5.49308 12.7308 6.80872C12.6728 6.93901 12.5827 7.04839 12.4722 7.12919L9.47303 10.1347C9.43971 10.1681 9.4209 10.2135 9.4209 10.2608C9.4209 10.308 9.43962 10.3533 9.47294 10.3868L10.0253 10.9402C10.3995 11.315 11.0075 11.315 11.3817 10.9402L12.3991 9.921C13.1635 9.15515 14.2004 8.72489 15.2815 8.72489C16.3626 8.72489 17.3995 9.15514 18.164 9.921L19.5899 11.3495ZM11.6242 20.9563C11.6242 20.9563 11.6247 20.9566 12 20.25L12.3752 20.9566C12.1405 21.0812 11.8588 21.0809 11.6242 20.9563ZM11.6242 20.9563L12 20.25C12.3752 20.9566 12.3764 20.9559 12.3764 20.9559L12.3785 20.9548L12.3852 20.9512L12.4081 20.9388C12.4275 20.9283 12.4552 20.913 12.4907 20.8932C12.5617 20.8536 12.6637 20.7957 12.7923 20.7201C13.0495 20.5688 13.4136 20.3461 13.8491 20.0566C14.7185 19.4787 15.8803 18.629 17.0454 17.5429C19.3496 15.395 21.7999 12.1961 21.7999 8.25001C21.7999 5.29244 19.312 2.95001 16.3125 2.95001C14.5709 2.95001 13.0086 3.73554 12 4.97193C10.9913 3.73554 9.42898 2.95001 7.68745 2.95001C4.68788 2.95001 2.19995 5.29244 2.19995 8.25001C2.19995 12.1961 4.65028 15.395 6.95445 17.5429C8.11958 18.629 9.28141 19.4787 10.1508 20.0566C10.5863 20.3461 10.9504 20.5688 11.2076 20.7201C11.3362 20.7957 11.4382 20.8536 11.5092 20.8932C11.5447 20.913 11.5724 20.9283 11.5918 20.9388L11.6147 20.9512L11.6214 20.9548L11.6242 20.9563Z" fill="currentColor"/>
</svg>