<svg viewBox="0 0 24 24" fill="none" xmlns="http://www.w3.org/2000/svg">
<path d="M11.645 20.9108L11.6384 20.9073L11.6158 20.895C11.5965 20.8845 11.5689 20.8694 11.5336 20.8497C11.4629 20.8103 11.3612 20.7525 11.233 20.6771C10.9765 20.5262 10.6132 20.304 10.1785 20.0151C9.31074 19.4382 8.15122 18.5902 6.9886 17.5064C4.68781 15.3617 2.25 12.1752 2.25 8.25012C2.25 5.32207 4.7136 3.00012 7.6875 3.00012C9.43638 3.00012 11.0023 3.79921 12 5.05172C12.9977 3.79921 14.5636 3.00012 16.3125 3.00012C19.2864 3.00012 21.75 5.32207 21.75 8.25012C21.75 12.1752 19.3122 15.3617 17.0114 17.5064C15.8488 18.5902 14.6893 19.4382 13.8215 20.0151C13.3868 20.304 13.0235 20.5262 12.767 20.6771C12.6388 20.7525 12.5371 20.8103 12.4664 20.8497C12.4311 20.8694 12.4035 20.8845 12.3842 20.895L12.3616 20.9073L12.355 20.9108L12.3523 20.9122C12.1323 21.0291 11.8677 21.0291 11.6477 20.9122L11.645 20.9108Z" fill="currentColor"/>
</svg>