<svg viewBox="0 0 24 24" fill="none" xmlns="http://www.w3.org/2000/svg">
<path fill-rule="evenodd" clip-rule="evenodd" d="M7.9624 6.77502C7.9624 7.54822 8.5892 8.17502 9.3624 8.17502H11.2002V10.7375H8.9123C7.36591 10.7375 6.1123 11.9911 6.1123 13.5375V15.825H4.275C3.5018 15.825 2.875 16.4518 2.875 17.225V20.65C2.875 21.4232 3.5018 22.05 4.275 22.05H9.55C10.3232 22.05 10.95 21.4232 10.95 20.65V17.225C10.95 16.4518 10.3232 15.825 9.55 15.825H7.7123V13.5375C7.7123 12.8748 8.24956 12.3375 8.9123 12.3375H15.0873C15.75 12.3375 16.2873 12.8748 16.2873 13.5375V15.825H14.4498C13.6766 15.825 13.0498 16.4518 13.0498 17.225V20.65C13.0498 21.4232 13.6766 22.05 14.4498 22.05H19.7248C20.498 22.05 21.1248 21.4232 21.1248 20.65V17.225C21.1248 16.4518 20.498 15.825 19.7248 15.825H17.8873V13.5375C17.8873 11.9911 16.6337 10.7375 15.0873 10.7375H12.8002V8.17502H14.6374C15.4106 8.17502 16.0374 7.54822 16.0374 6.77502V3.35002C16.0374 2.57682 15.4106 1.95002 14.6374 1.95002H9.3624C8.5892 1.95002 7.9624 2.57682 7.9624 3.35002V6.77502ZM9.5624 6.57502V3.55002H14.4374V6.57502H9.5624ZM4.475 20.45V17.425H9.35V20.45H4.475ZM14.6498 17.425V20.45H19.5248V17.425H14.6498Z" fill="currentColor"/>
</svg>