<svg viewBox="0 0 24 24" fill="none" xmlns="http://www.w3.org/2000/svg">
<g clip-path="url(#clip0_1265_21637)">
<path d="M12 24C18.6274 24 24 18.6274 24 12C24 5.37258 18.6274 0 12 0C5.37258 0 0 5.37258 0 12C0 18.6274 5.37258 24 12 24Z" fill="#117FC0"/>
<path d="M17.7057 8.87572L13.086 16.4924H10.331L12.4483 12.9972H10.3442L7.89085 17.0427C9.06033 17.9933 10.5236 18.5084 12.0307 18.4999C13.5378 18.4914 14.9952 17.9598 16.1539 16.996C17.3125 16.0321 18.1005 14.6959 18.3833 13.2155C18.666 11.7352 18.426 10.2025 17.7041 8.87954L17.7057 8.87572ZM13.6722 7.50864L11.667 10.8089H13.7739L16.1092 6.95733C14.9397 6.00666 13.4764 5.49159 11.9693 5.5001C10.4622 5.50862 9.0048 6.0402 7.84615 7.00403C6.6875 7.96785 5.89948 9.3041 5.61673 10.7845C5.33398 12.2648 5.57406 13.7975 6.29593 15.1205L10.914 7.50919H13.6717L13.6722 7.50864Z" fill="white"/>
</g>
<defs>
<clipPath id="clip0_1265_21637">
<rect width="24" height="24" fill="white"/>
</clipPath>
</defs>
</svg>