<svg viewBox="0 0 24 24" fill="none" xmlns="http://www.w3.org/2000/svg">
<path fill-rule="evenodd" clip-rule="evenodd" d="M20.949 17.4068C20.2369 18.132 19.1864 18.5 17.8269 18.5H16.9355C16.9186 18.5 16.9009 18.4992 16.8841 18.4983C14.6761 18.437 13.4657 16.5237 13.0254 14.8616C12.9901 14.8188 12.9539 14.7768 12.9261 14.7255C12.9126 14.7045 12.6635 14.3331 11.9959 14.3331C11.3284 14.3331 11.0792 14.7045 11.0532 14.7465C11.0346 14.7759 11.006 14.7936 10.985 14.8196C10.554 16.4926 9.34183 18.437 7.1145 18.4983C7.0985 18.4992 7.08167 18.5 7.06483 18.5H6.17255C4.81309 18.5 3.76256 18.132 3.05042 17.4068C1.95948 16.296 1.98726 14.7154 2.00493 13.771L2.00746 13.5004C2.00746 13.2878 2.03019 13.1063 2.05628 12.9282C1.98473 12.7232 1.99147 12.4912 2.09669 12.2812L4.59507 7.29335C4.68009 7.14463 5.23903 6.23714 6.37963 6.03715C7.28874 5.8817 8.23405 6.21445 9.2063 7.02783C9.55901 7.3236 9.60614 7.84877 9.31068 8.20168C9.0169 8.55291 8.4908 8.60333 8.13725 8.30504C7.56569 7.82692 7.05726 7.61097 6.66667 7.67904C6.28619 7.74542 6.06144 8.0832 6.05975 8.08657L4.56645 11.0687C5.037 11.0225 5.56143 10.9998 6.17255 10.9998C8.26183 10.9998 10.4681 11.4947 11.0287 12.8198C11.3116 12.7265 11.6315 12.6669 11.9959 12.6669C12.363 12.6669 12.6845 12.7282 12.9699 12.8223C13.528 11.4955 15.7359 10.9998 17.8269 10.9998C18.438 10.9998 18.9625 11.0225 19.4322 11.0687L17.9178 8.04539V8.04623C17.9119 8.04623 17.688 7.73449 17.3193 7.67652C16.927 7.62022 16.427 7.83365 15.8622 8.30504C15.5103 8.60333 14.9834 8.55375 14.6896 8.20168C14.3941 7.84877 14.4404 7.3236 14.7931 7.02783C15.7654 6.21445 16.7141 5.88254 17.6207 6.03715C18.7604 6.23714 19.3194 7.14463 19.38 7.24714L21.9036 12.2812C22.0088 12.4912 22.0147 12.7232 21.944 12.9282C21.9693 13.1063 21.992 13.2878 21.992 13.5004L21.9954 13.771C22.0122 14.7154 22.04 16.296 20.949 17.4068ZM6.17257 12.6669C3.67419 12.6669 3.67419 12.8433 3.67419 13.5004L3.67082 13.8004C3.65735 14.5281 3.63799 15.6263 4.23902 16.2388C4.62623 16.6329 5.27692 16.8329 6.17257 16.8329H7.00592C8.90581 16.8329 9.50515 14.2348 9.50515 13.5004C9.50515 13.2584 8.33761 12.6669 6.17257 12.6669ZM20.3294 13.8004L20.3261 13.5004C20.3261 12.8433 20.3261 12.6669 17.8269 12.6669C15.6618 12.6669 14.4951 13.2584 14.4951 13.5004C14.4951 14.2348 15.0936 16.8329 16.9935 16.8329H17.8269C18.7225 16.8329 19.3732 16.6329 19.7604 16.2388C20.3614 15.6263 20.3421 14.5281 20.3294 13.8004Z" fill="currentColor"/>
</svg>