<svg width="24" height="24" viewBox="0 0 24 24" fill="none" xmlns="http://www.w3.org/2000/svg">
<path d="M16.0559 13.0326C16.0694 13.0337 16.0824 13.0381 16.0938 13.0454C16.1053 13.0527 16.1148 13.0626 16.1216 13.0743C16.1283 13.0861 16.1322 13.0993 16.1328 13.1128C16.1334 13.1264 16.1307 13.1399 16.1249 13.1521L12.1881 19.9605C12.1808 19.9722 12.1706 19.982 12.1586 19.9889C12.1465 19.9958 12.133 19.9997 12.1191 20H9.71236C9.69837 20.0001 9.68463 19.9964 9.67252 19.9894C9.66042 19.9824 9.65039 19.9723 9.64346 19.9601C9.63652 19.948 9.63294 19.9342 9.63306 19.9202C9.63318 19.9062 9.63701 19.8925 9.64415 19.8805L13.581 13.0721C13.5879 13.0602 13.5978 13.0502 13.6098 13.0432C13.6217 13.0363 13.6353 13.0326 13.6492 13.0326H16.0559ZM13.7157 11.0814C13.7018 11.081 13.6882 11.0772 13.6762 11.0703C13.6641 11.0634 13.654 11.0536 13.6466 11.0418L9.64415 4.11982C9.63701 4.10779 9.63318 4.09409 9.63306 4.0801C9.63294 4.06611 9.63652 4.05233 9.64346 4.04018C9.65039 4.02803 9.66042 4.01793 9.67252 4.01091C9.68463 4.0039 9.69837 4.00022 9.71236 4.00024H12.1191C12.133 4.00064 12.1465 4.00446 12.1586 4.01136C12.1706 4.01827 12.1808 4.02804 12.1881 4.03982L16.1906 10.9618C16.1978 10.9739 16.2016 10.9876 16.2017 11.0016C16.2018 11.0156 16.1982 11.0293 16.1913 11.0415C16.1844 11.0536 16.1743 11.0637 16.1622 11.0708C16.1501 11.0778 16.1364 11.0814 16.1224 11.0814H13.7157Z" fill="#E31337"/>
<path d="M14.1916 4.11976C14.1842 4.10735 14.1803 4.09316 14.1804 4.07872C14.1805 4.06427 14.1845 4.05012 14.192 4.0378C14.1996 4.02549 14.2104 4.01547 14.2232 4.00884C14.236 4.0022 14.2504 3.99921 14.2648 4.00018H16.6749C16.6888 4.00015 16.7024 4.0038 16.7144 4.01076C16.7263 4.01771 16.7363 4.02772 16.7431 4.03976L21.3317 11.9605C21.3387 11.9725 21.3424 11.9862 21.3424 12.0001C21.3424 12.014 21.3387 12.0277 21.3317 12.0397L16.7431 19.9604C16.7363 19.9725 16.7263 19.9825 16.7144 19.9894C16.7024 19.9964 16.6888 20 16.6749 20H14.2648C14.2508 20.0002 14.2369 19.9966 14.2247 19.9896C14.2125 19.9827 14.2023 19.9726 14.1953 19.9604C14.1883 19.9482 14.1846 19.9344 14.1847 19.9204C14.1848 19.9063 14.1886 19.8925 14.1958 19.8804L18.7566 12.0001L14.1916 4.11976ZM12.2329 11.9597C12.2403 11.9725 12.2441 11.987 12.2441 12.0018C12.2441 12.0166 12.2403 12.0311 12.2329 12.0439L7.62324 19.9604C7.6155 19.9717 7.60513 19.9809 7.59303 19.9873C7.58092 19.9937 7.56745 19.997 7.55376 19.997C7.54008 19.997 7.5266 19.9937 7.5145 19.9873C7.50239 19.9809 7.49202 19.9717 7.48429 19.9604L2.82329 12.0405C2.8159 12.0277 2.81201 12.0132 2.81201 11.9984C2.81201 11.9836 2.8159 11.9691 2.82329 11.9563L7.43292 4.03976C7.44066 4.02847 7.45102 4.01923 7.46313 4.01285C7.47523 4.00647 7.48871 4.00314 7.5024 4.00314C7.51608 4.00314 7.52956 4.00647 7.54166 4.01285C7.55377 4.01923 7.56413 4.02847 7.57187 4.03976L12.2329 11.9597Z" fill="#E31337"/>
</svg>
