<svg width="24" height="24" viewBox="0 0 24 24" fill="none" xmlns="http://www.w3.org/2000/svg">
<g clip-path="url(#clip0_1265_21633)">
<path d="M12 24C18.6274 24 24 18.6274 24 12C24 5.37258 18.6274 0 12 0C5.37258 0 0 5.37258 0 12C0 18.6274 5.37258 24 12 24Z" fill="#D59143"/>
<path d="M7.30912 12.1875C7.00641 12.4283 6.73643 12.856 6.74987 13.51C6.75981 13.9623 7.00291 14.272 7.30912 14.4824V15.29C7.30912 15.7949 7.55456 16.2677 7.96831 16.5569L10.8043 18.4965V8.58597L7.30912 9.60864V12.1875ZM8.07057 11.9491C8.65904 12.3798 8.65904 14.9388 8.65904 14.9388C8.65904 14.9388 7.99343 14.8745 7.44353 14.5671C7.89701 14.7196 8.26108 14.6857 8.41945 14.7033L8.42997 14.7039H8.4323L8.44049 14.705L8.46269 14.7068L8.47029 14.708H8.47789C8.47789 14.708 8.57139 12.4744 7.89526 12.0829C7.78539 12.0449 7.59138 12.0671 7.3775 12.1355C7.64982 11.952 7.93441 11.8901 8.07057 11.9491ZM11.0492 15.9837H12.956V18.5H11.0497V15.9842L11.0492 15.9837ZM10.6167 8.39839L7.30912 9.34625V5.79847C7.30904 5.73954 7.32643 5.68189 7.3591 5.63284C7.39177 5.58378 7.43825 5.54551 7.49266 5.52287C7.54708 5.50023 7.60699 5.49423 7.66481 5.50563C7.72264 5.51703 7.77579 5.54532 7.81754 5.58693L10.7862 8.56727L10.6167 8.3978V8.39839ZM11.0492 11.9462H12.956V15.7411H11.0497V11.9462H11.0492ZM13.3826 8.39897L13.2599 8.52169L16.1818 5.5881C16.2234 5.54636 16.2765 5.51792 16.3343 5.50636C16.3922 5.49481 16.4521 5.50066 16.5066 5.52318C16.5611 5.54571 16.6077 5.58388 16.6404 5.63289C16.6732 5.68189 16.6908 5.73951 16.6908 5.79847V9.34567L13.3832 8.39897H13.3826ZM11.0497 8.58656H12.956V11.7013H11.0497V8.58656ZM16.6908 12.1875V9.60864L13.2014 8.58831V18.5L16.0316 16.5569C16.2351 16.4143 16.4013 16.2248 16.516 16.0044C16.6308 15.7839 16.6907 15.5391 16.6908 15.2906V14.4824C16.997 14.272 17.2401 13.9623 17.25 13.51C17.2641 12.856 16.9935 12.4283 16.6908 12.1875ZM15.5454 14.7436H15.553L15.56 14.743L15.5699 14.7418H15.5723L15.5927 14.7401H15.5939L15.6032 14.7389L15.6903 14.729H15.6944C15.8849 14.7044 16.1187 14.7068 16.4775 14.5946L16.557 14.5683C16.0065 14.8757 15.3414 14.9399 15.3414 14.9399C15.3414 14.9399 15.3414 12.3815 15.9299 11.9508C16.0661 11.8912 16.3507 11.9532 16.6224 12.1378C16.4085 12.0695 16.2151 12.0473 16.1046 12.0852C15.4285 12.4762 15.5448 14.7442 15.5448 14.7442L15.5454 14.7436Z" fill="white"/>
</g>
<defs>
<clipPath id="clip0_1265_21633">
<rect width="24" height="24" fill="white"/>
</clipPath>
</defs>
</svg>
