<svg width="24" height="24" viewBox="0 0 24 24" fill="none" xmlns="http://www.w3.org/2000/svg">
<g clip-path="url(#clip0_620_14129)">
<path d="M2.52289 5.01542C2.22003 5.03853 1.98694 5.08477 2.00004 5.11945C2.12084 5.39852 2.86777 7.04155 2.87798 7.05146C2.88819 7.06137 3.06173 7.07293 3.2659 7.08119C4.17107 7.11421 4.88737 7.28595 5.66152 7.65749C6.21789 7.92335 6.62963 8.20902 7.05839 8.62349C7.68963 9.23447 8.10137 9.91315 8.34298 10.7438C8.3702 10.8395 8.39232 10.9254 8.39232 10.9386C8.39232 10.9568 8.2545 10.9601 7.64539 10.9601C7.23364 10.9601 6.87975 10.9667 6.85763 10.9749C6.8253 10.9865 6.74023 11.1648 6.38633 11.9525C6.14813 12.4826 5.95076 12.9284 5.94736 12.9433C5.93545 12.9862 6.07837 13.0242 6.43567 13.0754C6.50883 13.0869 6.9478 13.0985 7.46674 13.1051L8.3702 13.115L8.31575 13.2967C7.70664 15.3013 5.81635 16.7033 3.5007 16.8717C3.36969 16.88 3.19785 16.8882 3.11788 16.8882H2.97326L2.52748 17.8839C2.14466 18.7344 2.08511 18.8797 2.11063 18.8879C2.22633 18.9292 2.48495 18.9441 3.08385 18.9441C3.84949 18.9441 4.22211 18.9111 4.85334 18.7856C7.43101 18.272 9.57311 16.6802 10.5429 14.5533C10.7301 14.1438 10.9496 13.47 10.9887 13.1877L11.0006 13.1068H12.9351L12.9419 13.1431C13.0815 13.8069 13.2329 14.2544 13.4949 14.7828C14.2827 16.3747 15.7595 17.6742 17.5886 18.3876C18.6992 18.8193 19.889 19.0266 21.085 18.9969C21.5852 18.9821 21.9834 18.9276 21.9629 18.8764C21.9459 18.8334 21.0986 16.946 21.0935 16.9411C21.0884 16.9361 20.9132 16.9295 20.7005 16.9212C20.1033 16.8981 19.6541 16.8304 19.1471 16.6901C18.3661 16.4721 17.5937 16.0774 17.0016 15.5953C16.2563 14.9859 15.717 14.228 15.4311 13.3875C15.3988 13.2917 15.3665 13.191 15.3614 13.1612L15.3495 13.1084L16.0777 13.1035C16.4775 13.1002 16.8178 13.0919 16.8314 13.0853C16.8535 13.0737 17.7247 11.1566 17.7247 11.1186C17.7247 11.0938 17.5052 11.0311 17.3061 10.9997C17.1598 10.9766 16.9743 10.97 16.2342 10.965L15.3376 10.9568L15.3716 10.8395C15.8684 9.13209 17.3929 7.77638 19.358 7.29585C19.7919 7.19017 20.2139 7.13568 20.7617 7.11421C21.0884 7.101 21.1292 7.09605 21.1497 7.06963C21.1633 7.05146 21.364 6.61387 21.5954 6.09701C21.8796 5.46457 22.0106 5.15247 21.9987 5.14422C21.9612 5.1244 21.723 5.08312 21.5359 5.06496C21.2637 5.03688 20.4691 5.04184 20.1186 5.07156C18.1143 5.24495 16.3074 6.02931 14.953 7.31071C14.1261 8.09343 13.546 8.97192 13.1887 9.98581C13.0968 10.2418 12.9862 10.6447 12.9522 10.8395L12.9317 10.9601H11.03L11.0232 10.9221C11.0181 10.9023 10.9994 10.8082 10.979 10.7124C10.6983 9.35832 9.9054 8.04224 8.78586 7.07293C7.51149 5.96821 5.92235 5.27632 4.17328 5.06611C3.64753 5.00386 2.96985 4.98239 2.52289 5.01542Z" fill="#007F88"/>
</g>
<defs>
<clipPath id="clip0_620_14129">
<rect width="20" height="14" fill="white" transform="translate(2 5)"/>
</clipPath>
</defs>
</svg>
