<svg width="24" height="24" viewBox="0 0 24 24" fill="none" xmlns="http://www.w3.org/2000/svg">
<path d="M20.1275 6.17761L18.491 8.71437C18.9917 9.69976 19.2767 10.8195 19.2767 12.0004C19.2767 16.0193 16.016 19.2808 11.9981 19.2808C10.8176 19.2808 9.70221 18.9999 8.71709 18.499L6.18506 20.1359C7.82558 21.3086 9.82841 22.0049 12.0022 22.0049C17.5263 22.0049 22 17.5259 22 12.0044C21.996 9.83006 21.3039 7.81857 20.1275 6.17761Z" fill="url(#paint0_radial_620_14124)"/>
<path d="M11.9978 17.0088C14.4607 17.0088 16.5083 15.2376 16.9357 12.9003C16.1582 12.7334 15.3481 12.6438 14.5176 12.6438C12.0223 12.6438 9.71412 13.4419 7.82935 14.7937C8.73306 16.1293 10.2637 17.0088 11.9978 17.0088Z" fill="url(#paint1_radial_620_14124)"/>
<path d="M14.4729 11.7317C15.3481 11.7317 16.1989 11.8254 17.0212 12.0045C17.0212 9.22753 14.7741 6.97987 11.9978 6.97987C9.22157 6.97987 6.97449 9.22753 6.97449 12.0045C6.97449 12.2326 6.99078 12.4565 7.01927 12.6764C5.75326 13.6373 5.15486 14.3988 5.1345 14.4232C4.86583 13.6658 4.71928 12.8515 4.71928 12.0045C4.71928 7.98562 7.97998 4.72407 11.9978 4.72407C13.1743 4.72407 14.2856 5.00502 15.2707 5.50179L17.8068 3.86083C16.1663 2.68814 14.1635 2 11.9978 2C6.47379 2 2 6.47903 2 12.0005C2 14.2237 2.72867 16.2759 3.95398 17.9372C4.42619 17.0821 5.00424 16.2881 5.6637 15.5755C5.6637 15.5755 6.64883 14.5454 7.406 14.0282C9.38847 12.5827 11.8309 11.7317 14.4729 11.7317Z" fill="black"/>
<defs>
<radialGradient id="paint0_radial_620_14124" cx="0" cy="0" r="1" gradientUnits="userSpaceOnUse" gradientTransform="translate(20.1282 6.16784) scale(16.8241 16.8285)">
<stop offset="0.0986" stop-color="#26DB8D"/>
<stop offset="0.2628" stop-color="#23D29A"/>
<stop offset="0.5637" stop-color="#1ABBBB"/>
<stop offset="0.886" stop-color="#0E9DE5"/>
</radialGradient>
<radialGradient id="paint1_radial_620_14124" cx="0" cy="0" r="1" gradientUnits="userSpaceOnUse" gradientTransform="translate(20.1279 6.16794) scale(16.8241 16.8285)">
<stop offset="0.0986" stop-color="#26DB8D"/>
<stop offset="0.2628" stop-color="#23D29A"/>
<stop offset="0.5637" stop-color="#1ABBBB"/>
<stop offset="0.886" stop-color="#0E9DE5"/>
</radialGradient>
</defs>
</svg>
