<svg viewBox="0 0 24 24" fill="none" xmlns="http://www.w3.org/2000/svg">
<g clip-path="url(#clip0_1265_21629)">
<path d="M12 24C18.6274 24 24 18.6274 24 12C24 5.37258 18.6274 0 12 0C5.37258 0 0 5.37258 0 12C0 18.6274 5.37258 24 12 24Z" fill="#8834FF"/>
<path d="M6.15 15.2651C6.27415 15.2651 6.4048 15.2716 6.52895 15.2651C6.7649 15.2476 7.0015 15.2001 7.23225 15.1416C7.68731 15.0174 8.11325 14.8042 8.48545 14.5144C8.59205 14.4318 8.698 14.3434 8.79875 14.2485C9.0113 14.036 9.19525 13.7935 9.3428 13.5335C9.4728 13.3028 9.56705 13.0545 9.63855 12.8003C9.6444 12.7828 9.6444 12.7587 9.65025 12.7412H8.72205C8.52916 12.7403 8.33693 12.7185 8.14875 12.6762C8.13178 12.6693 8.11375 12.6653 8.09545 12.6645C8.08641 12.6599 8.07827 12.6537 8.0714 12.6463C8.1247 12.5286 8.17215 12.4162 8.2196 12.2979L8.58035 11.4639C8.59188 11.4241 8.60965 11.3864 8.633 11.3521C8.65876 11.3283 8.69281 11.3155 8.7279 11.3164C9.0178 11.3105 9.3012 11.3164 9.5911 11.3164H9.6678C9.6561 11.2689 9.6561 11.2338 9.6444 11.1929C9.53968 10.7929 9.35457 10.4185 9.10035 10.0924C8.97533 9.93324 8.8389 9.78335 8.69215 9.64393C8.50858 9.47125 8.30421 9.32211 8.08375 9.19998C7.85401 9.07077 7.6124 8.9639 7.36225 8.88083C7.1539 8.81555 6.94036 8.76814 6.72395 8.73913C6.55235 8.72093 6.3866 8.71508 6.21565 8.70338C6.17405 8.70338 6.13245 8.69753 6.0915 8.69168C6.08305 8.68915 6.07536 8.68456 6.06912 8.67832C6.06288 8.67208 6.05828 8.66439 6.05575 8.65593C5.9966 8.52008 5.93745 8.39008 5.8783 8.25423C5.8068 8.09433 5.7418 7.93508 5.6716 7.78103C5.6183 7.65103 5.55915 7.52753 5.5 7.39103L5.62415 7.35528C5.88415 7.32018 6.15065 7.30848 6.4165 7.32018C6.83976 7.33437 7.26011 7.39585 7.6697 7.50348C7.9297 7.57433 8.1897 7.66273 8.438 7.76933C8.78705 7.91688 9.1179 8.10083 9.426 8.31923C9.5612 8.41933 9.69705 8.52593 9.8277 8.63253C9.8862 8.67998 9.94535 8.73328 10.0045 8.78593C10.3003 9.06998 10.5602 9.39498 10.7793 9.74403C10.9977 10.0924 11.1576 10.4707 11.2642 10.8672C11.2993 10.9972 11.3227 11.1337 11.3526 11.2637C11.356 11.2737 11.3624 11.2824 11.3709 11.2887C11.3793 11.2949 11.3895 11.2985 11.4 11.2988H12.5999C12.624 11.2039 12.6415 11.1097 12.6591 11.0148C12.7306 10.7372 12.8249 10.4707 12.9432 10.2166C13.0374 10.004 13.1557 9.79733 13.2915 9.60818C13.4157 9.43658 13.5457 9.26498 13.688 9.10573C13.7926 8.98219 13.9051 8.8656 14.0247 8.75668C14.2734 8.53099 14.5426 8.32904 14.8288 8.15348C15.1245 7.97018 15.432 7.82198 15.757 7.70433C15.9819 7.62763 16.2061 7.55678 16.431 7.49763C16.602 7.45603 16.7677 7.42613 16.9452 7.40273C17.0869 7.37933 17.2351 7.36763 17.3826 7.35528C17.4775 7.34943 17.5659 7.34358 17.6608 7.34358C17.8025 7.34358 17.9384 7.33773 18.0742 7.34358C18.2107 7.35008 18.3466 7.37933 18.4824 7.40273C18.4883 7.40273 18.4883 7.40923 18.5 7.42028L18.3992 7.65688C18.2933 7.90518 18.1867 8.15348 18.0742 8.40763C18.0313 8.49685 17.9918 8.5877 17.9559 8.67998C17.9325 8.73848 17.8734 8.71508 17.8324 8.72678C17.7967 8.73328 17.7675 8.73328 17.7317 8.72678C17.1274 8.73267 16.5319 8.87206 15.9878 9.13498C15.7332 9.25932 15.4949 9.4143 15.2779 9.59648C15.1895 9.67318 15.0894 9.74988 15.0062 9.83828C14.793 10.0515 14.6097 10.2933 14.4622 10.5598C14.3436 10.7797 14.2486 11.0115 14.1788 11.2514C14.1723 11.2689 14.1723 11.293 14.1664 11.3105H14.2315C14.5389 11.3105 14.8522 11.304 15.1596 11.3105C15.3429 11.3105 15.5262 11.3398 15.7037 11.3989C15.7102 11.4054 15.7154 11.4054 15.7212 11.4113L15.5503 11.8013C15.432 12.0788 15.3078 12.357 15.1895 12.6404C15.1538 12.7236 15.1304 12.7412 15.0355 12.7412H14.1723C14.1963 12.8237 14.2139 12.8946 14.2373 12.9661C14.3205 13.2144 14.4388 13.4503 14.5863 13.6694C14.6754 13.7994 14.7696 13.9177 14.8704 14.036C14.9289 14.1068 14.9939 14.1777 15.0589 14.2368C15.2779 14.4494 15.5269 14.6333 15.7921 14.7809C16.017 14.9109 16.2594 15.0175 16.5077 15.0994C16.7443 15.1826 16.9927 15.2359 17.2468 15.2593L17.7135 15.295C17.7726 15.3015 17.8318 15.3015 17.8909 15.3067C17.9026 15.3132 17.915 15.3184 17.9208 15.3308C18.0209 15.5667 18.1217 15.8033 18.2283 16.0399L18.4818 16.6191C18.3993 16.6373 18.3225 16.6548 18.24 16.6607C18.0385 16.6724 17.8318 16.6841 17.6309 16.6841C17.4476 16.6841 17.2643 16.6665 17.0869 16.6431C16.8411 16.6084 16.5965 16.5651 16.3537 16.5131C16.0626 16.4417 15.7779 16.3467 15.5022 16.2291C15.1739 16.0885 14.8611 15.9143 14.5688 15.7091C14.4165 15.5961 14.2667 15.4798 14.1196 15.36C14.0233 15.2815 13.9323 15.1966 13.8473 15.1059C13.4739 14.7261 13.1664 14.2867 12.9373 13.8059C12.8034 13.5211 12.7041 13.2212 12.6415 12.9128C12.6298 12.8829 12.624 12.8478 12.6175 12.8179C12.6175 12.7594 12.5882 12.747 12.5349 12.747H11.3409C11.2815 13.068 11.1862 13.3813 11.0568 13.6811C10.952 13.9355 10.8192 14.1775 10.661 14.4026C10.5373 14.5765 10.4049 14.7442 10.2645 14.905C10.1634 15.0277 10.0528 15.1423 9.93365 15.2476C9.75035 15.4075 9.55535 15.555 9.36035 15.7026C9.12583 15.8692 8.87648 16.0139 8.61545 16.1348C8.12951 16.3659 7.61111 16.5213 7.0782 16.5957C6.8949 16.6249 6.7116 16.6431 6.52895 16.6607C6.4246 16.6666 6.32 16.6666 6.21565 16.6607C6.0616 16.6607 5.9082 16.6542 5.76065 16.649C5.7067 16.6425 5.6534 16.6373 5.60075 16.6249C5.57085 16.6191 5.55915 16.6074 5.5767 16.5723C5.695 16.2999 5.81915 16.0282 5.93745 15.7559C6.00895 15.5908 6.07395 15.4374 6.15 15.2658V15.2651Z" fill="white"/>
</g>
<defs>
<clipPath id="clip0_1265_21629">
<rect width="24" height="24" fill="white"/>
</clipPath>
</defs>
</svg>