<svg width="24" height="24" viewBox="0 0 24 24" fill="none" xmlns="http://www.w3.org/2000/svg">
<g clip-path="url(#clip0_1265_21623)">
<path d="M12 24C18.6274 24 24 18.6274 24 12C24 5.37258 18.6274 0 12 0C5.37258 0 0 5.37258 0 12C0 18.6274 5.37258 24 12 24Z" fill="#1591CA"/>
<path d="M12.3783 11.5263C12.3783 11.5263 13.2416 9.60702 11.5487 7.75278C11.5487 7.75278 10.5858 6.51662 8.59497 6.61422L8.9925 6.45807C9.05886 6.43204 9.12848 6.41383 9.19874 6.40472L9.59041 6.35397L12.3451 5.93107C12.3451 5.93107 13.3191 5.7398 14.0575 5.95059C14.2676 6.0111 14.4589 6.12496 14.6105 6.2798C15.0178 6.69229 15.8356 7.78336 15.3002 9.50943C15.3002 9.50943 14.7686 11.4287 12.7771 11.8842C12.7771 11.8842 12.2787 12.0143 12.3783 11.5263ZM12.2553 12.5959C12.2553 12.5959 13.4999 14.3025 15.9911 13.8217C15.9911 13.8217 17.5669 13.6402 18.4966 11.9108L18.4302 12.3266C18.4192 12.3955 18.3997 12.4632 18.3717 12.5276L18.2168 12.8835L17.1837 15.4209C17.1837 15.4209 16.8551 16.3389 16.2936 16.8542C16.1324 17.001 15.9362 17.1038 15.7237 17.1528C15.1544 17.2849 13.7797 17.4182 12.537 16.0871C12.537 16.0871 11.1232 14.661 11.7387 12.7495C11.7387 12.7482 11.878 12.2635 12.2553 12.5959ZM11.3542 11.9798C11.3542 11.9798 9.22672 12.2036 8.42972 14.566C8.42972 14.566 7.81554 15.9999 8.89426 17.6434L8.55789 17.3831C8.50198 17.3399 8.45171 17.2898 8.40825 17.2341L8.16752 16.927L6.42129 14.7976C6.42129 14.7976 5.76612 14.0643 5.5859 13.3337C5.53386 13.1242 5.53906 12.9043 5.60022 12.6974C5.76222 12.1464 6.31979 10.9082 8.11352 10.5036C8.11352 10.5036 10.0764 9.99804 11.472 11.4639C11.4733 11.4639 11.8363 11.8217 11.3549 11.9798H11.3542Z" fill="white"/>
<path opacity="0.5" d="M12.7257 12.1033C12.7257 12.1033 14.8467 11.8274 15.5819 9.44552C15.5819 9.44552 16.1589 7.99661 15.0373 6.38049L15.3808 6.63228C15.4374 6.67457 15.4895 6.72336 15.5344 6.77737L15.7822 7.07795L17.5844 9.1638C17.5844 9.1638 18.2572 9.87947 18.4575 10.6069C18.5142 10.8151 18.5142 11.0337 18.4575 11.2419C18.3099 11.7968 17.7848 13.0492 16.0015 13.4982C16.0015 13.4982 14.0523 14.0512 12.6196 12.6224C12.6209 12.6224 12.2488 12.2737 12.7257 12.1033ZM11.66 12.4962C11.66 12.4962 10.7485 14.3934 12.3932 16.2886C12.3932 16.2886 13.3229 17.5476 15.3177 17.4988L14.9156 17.6452C14.8486 17.6693 14.7789 17.6853 14.7081 17.6927L14.3158 17.7343L11.5507 18.0895C11.5507 18.0895 10.5728 18.2567 9.83957 18.0277C9.63162 17.9621 9.44408 17.844 9.29501 17.6848C8.89814 17.2619 8.10895 16.152 8.68864 14.4402C8.68864 14.4402 9.26768 12.534 11.2709 12.128C11.2709 12.1299 11.7738 12.0109 11.66 12.4962ZM11.7309 11.4962C11.7309 11.4962 10.4609 9.80726 7.97752 10.3251C7.97752 10.3251 6.40435 10.5281 5.5 12.2705L5.55986 11.8534C5.57008 11.7841 5.58888 11.7164 5.61581 11.6517L5.76545 11.2939L6.76088 8.74091C6.76088 8.74091 7.07643 7.81834 7.6301 7.29525C7.78981 7.14642 7.98522 7.04132 8.19743 6.99011C8.76476 6.84893 10.1375 6.69734 11.3984 8.01092C11.3984 8.01092 12.833 9.41689 12.2455 11.3368C12.2455 11.3355 12.1128 11.8235 11.7309 11.4962Z" fill="white"/>
</g>
<defs>
<clipPath id="clip0_1265_21623">
<rect width="24" height="24" fill="white"/>
</clipPath>
</defs>
</svg>
