<svg width="24" height="24" viewBox="0 0 24 24" fill="none" xmlns="http://www.w3.org/2000/svg">
<g clip-path="url(#clip0_1265_21619)">
<path d="M12 24C18.6274 24 24 18.6274 24 12C24 5.37258 18.6274 0 12 0C5.37258 0 0 5.37258 0 12C0 18.6274 5.37258 24 12 24Z" fill="#56428E"/>
<path d="M8.89773 6.97729H11.4705C11.1609 7.46775 10.9712 8.00961 10.983 8.59639C11.7483 8.60407 12.5159 8.60407 13.2817 8.59639C13.2917 8.01316 13.1351 7.45593 12.8001 6.97729H15.3906C15.2122 7.35134 14.909 7.6982 14.938 8.13725C14.9262 10.1014 14.9421 12.0668 14.9362 14.031C15.1903 14.031 15.4474 14.031 15.7044 14.0328C15.8917 13.6605 16.0584 13.2805 16.1913 12.8864C16.9607 12.9059 17.7342 12.8645 18.5 12.9673C17.7425 13.6209 17.3465 14.551 16.8531 15.3977C14.8949 15.4019 12.9372 15.3918 10.9771 15.4037C10.885 16.1187 11.3258 16.6109 11.8363 17.0227H8.529C8.81677 16.6428 9.39645 16.3982 9.33559 15.8409C9.35509 13.9423 9.33559 12.0414 9.3415 10.1404H11.0197V11.3104H13.2462V9.96907H8.59755L7.44232 12C7.82641 12.6778 8.21168 13.3544 8.59932 14.031H9.17132V15.3977H7.42282C6.78464 14.2632 6.12282 13.1422 5.5 12V11.9982C6.12459 10.8578 6.78818 9.73684 7.42282 8.6023C8.07518 8.6023 8.72695 8.60229 9.37873 8.59639C9.38742 8.02016 9.21934 7.4551 8.89714 6.97729H8.89773ZM11.0203 12.6896V14.031H13.2462V12.6896H11.0203ZM15.1064 8.6023H16.8496C17.327 9.37048 17.6556 10.2568 18.3446 10.8714C18.3588 10.9169 18.3842 11.0097 18.3978 11.0546C17.6615 11.1515 16.9158 11.0764 16.1736 11.1137C16.079 10.7042 15.8935 10.3277 15.6879 9.9673L15.1064 9.96907V8.6023ZM13.3071 15.5691C13.8218 15.5709 14.3388 15.5691 14.8541 15.5673C14.8423 16.225 15.3026 16.6327 15.7546 17.0227H12.4237C12.8509 16.6174 13.3502 16.2327 13.3071 15.5691Z" fill="white"/>
</g>
<defs>
<clipPath id="clip0_1265_21619">
<rect width="24" height="24" fill="white"/>
</clipPath>
</defs>
</svg>
