<svg width="24" height="24" viewBox="0 0 24 24" fill="none" xmlns="http://www.w3.org/2000/svg">
<g clip-path="url(#clip0_1265_21613)">
<path d="M12 24C18.6274 24 24 18.6274 24 12C24 5.37258 18.6274 0 12 0C5.37258 0 0 5.37258 0 12C0 18.6274 5.37258 24 12 24Z" fill="#2A3069"/>
<path d="M13.3091 9.47799C13.3091 7.60921 12.4028 6.02393 11.7233 5.51427C11.7233 5.51427 11.6665 5.45746 11.6665 5.57054C11.6102 9.13821 9.79771 10.1013 8.83519 11.4604C6.51355 14.4616 8.6653 17.8025 10.8739 18.4258C12.1199 18.7656 10.5909 17.8025 10.421 15.8207C10.1375 13.3292 13.3091 11.5167 13.3091 9.47799Z" fill="white"/>
<path d="M14.4984 10.724C14.3847 11.1769 13.9319 12.1399 13.3091 13.0456C11.2137 16.0474 12.4029 17.5195 13.0824 18.3122C13.479 18.7656 13.0824 18.3122 14.045 17.8593C14.1018 17.8025 15.9706 16.84 16.1404 14.6314C16.3671 12.4797 15.008 11.1206 14.4984 10.724Z" fill="white"/>
</g>
<defs>
<clipPath id="clip0_1265_21613">
<rect width="24" height="24" fill="white"/>
</clipPath>
</defs>
</svg>
