<svg width="24" height="24" viewBox="0 0 24 24" fill="none" xmlns="http://www.w3.org/2000/svg">
<g clip-path="url(#clip0_1265_21609)">
<path d="M12 24C18.6274 24 24 18.6274 24 12C24 5.37258 18.6274 0 12 0C5.37258 0 0 5.37258 0 12C0 18.6274 5.37258 24 12 24Z" fill="#CFA967"/>
<path d="M12.0129 12.2892V17.4847L15.8785 16.4434L16.7865 6.4399H12.0129V10.6857L12.2105 10.0701H12.7279L12.0129 12.2892ZM7.2133 17.1798L6.1499 5.5H17.8499L16.7865 17.1798L11.9869 18.5L7.2133 17.1798ZM10.5693 12.7644V12.2827L8.9644 11.6431L10.5699 10.9997V10.5173L8.27735 11.4488V11.8336L10.5693 12.7644ZM15.7257 11.8336L13.4332 12.7644V12.2827L15.0387 11.6412L13.4332 10.9997V10.5173L15.7257 11.4488V11.8336ZM12.0129 12.2886V10.6857L11.1569 13.3552H11.6691L12.0129 12.2886Z" fill="white"/>
</g>
<defs>
<clipPath id="clip0_1265_21609">
<rect width="24" height="24" fill="white"/>
</clipPath>
</defs>
</svg>
