<svg width="24" height="24" viewBox="0 0 24 24" fill="none" xmlns="http://www.w3.org/2000/svg">
<g clip-path="url(#clip0_1265_21601)">
<path d="M12 24C18.6274 24 24 18.6274 24 12C24 5.37258 18.6274 0 12 0C5.37258 0 0 5.37258 0 12C0 18.6274 5.37258 24 12 24Z" fill="black"/>
<circle cx="12" cy="12" r="6.5" fill="white"/>
<circle cx="11.9999" cy="12" r="5.59363" fill="black"/>
<path d="M10.4204 12.8287H9.69531V13.5797H12.0001V12.8287H11.3268C11.3268 12.4937 11.3444 12.1418 11.5684 11.8705C12.0197 11.3238 12.9573 11.3496 13.3343 11.9741C13.5341 12.3052 13.5021 12.7178 13.5021 13.0877V15.1076H14.3826V12.9323C14.3826 12.4046 14.3994 11.865 14.095 11.4044C13.5517 10.5824 11.7794 10.3269 11.3527 11.4303H11.3268V8.91833H10.4204V12.8287Z" fill="white"/>
<path d="M9.69531 14.3566V15.1076H12.0001V14.3566H9.69531Z" fill="white"/>
</g>
<defs>
<clipPath id="clip0_1265_21601">
<rect width="24" height="24" fill="white"/>
</clipPath>
</defs>
</svg>
