<svg viewBox="0 0 24 24" fill="none" xmlns="http://www.w3.org/2000/svg">
<g clip-path="url(#clip0_620_14120)">
<path d="M14.0062 8.15164C14.0062 5.28188 12.6228 2.80947 11.5632 2.00005C11.5632 2.00005 11.4897 1.9559 11.4897 2.07364C11.4014 7.62183 8.59046 9.13765 7.03049 11.1538C3.45433 15.8338 6.78031 20.9552 10.1651 21.897C12.0636 22.4268 9.72365 20.9552 9.42931 17.8647C9.07611 14.1119 14.0062 11.2569 14.0062 8.15164Z" fill="#282E5B"/>
<path d="M15.8606 10.05C15.8459 10.0353 15.8165 10.0353 15.787 10.05C15.787 10.05 15.787 10.05 15.7723 10.0647C15.7134 10.7564 14.9482 12.2575 13.9916 13.6261C10.7392 18.2766 12.5935 20.5136 13.6384 21.7203C14.2418 22.4267 13.6384 21.7203 15.1542 20.9992C15.2719 20.9403 18.0975 19.4392 18.4066 16.0397C18.7157 12.7284 16.6112 10.6534 15.8606 10.05Z" fill="#059BDC"/>
</g>
<defs>
<clipPath id="clip0_620_14120">
<rect width="12.9507" height="20" fill="white" transform="translate(5.5 2)"/>
</clipPath>
</defs>
</svg>