<svg width="24" height="24" viewBox="0 0 24 24" fill="none" xmlns="http://www.w3.org/2000/svg">
<g clip-path="url(#clip0_1265_21593)">
<path d="M12 24C18.6274 24 24 18.6274 24 12C24 5.37258 18.6274 0 12 0C5.37258 0 0 5.37258 0 12C0 18.6274 5.37258 24 12 24Z" fill="#292929"/>
<path fill-rule="evenodd" clip-rule="evenodd" d="M11.3545 13.7272C11.3545 13.4282 11.3558 13.1299 11.3539 12.8316C11.3532 12.7484 11.3773 12.6847 11.4546 12.6509C11.5261 12.6197 11.6009 12.6418 11.6633 12.7146C11.8492 12.9317 12.0337 13.1501 12.219 13.3684C12.284 13.4445 12.3496 13.5199 12.4127 13.5985C12.4275 13.6171 12.4361 13.6398 12.4374 13.6635C12.4387 13.9788 12.4393 14.294 12.438 14.6086C12.4397 14.7473 12.3891 14.8815 12.2962 14.9845C12.2033 15.0875 12.075 15.1517 11.9369 15.1643C11.7989 15.1731 11.6626 15.1294 11.5555 15.0418C11.4485 14.9543 11.3785 14.8294 11.3597 14.6924C11.3539 14.6567 11.3545 14.6196 11.3545 14.5832V13.7272ZM11.3565 7.87107C11.3558 7.85807 11.3545 7.84572 11.3545 7.83272V6.05703C11.3552 5.78405 11.5424 5.55396 11.7959 5.50911C11.874 5.49457 11.9545 5.49746 12.0314 5.51759C12.1083 5.53772 12.1799 5.57459 12.2409 5.62557C12.3019 5.67654 12.3509 5.74036 12.3845 5.81248C12.418 5.88459 12.4352 5.96321 12.4348 6.04273C12.4413 6.64784 12.4374 7.25361 12.4387 7.85872L12.4354 7.88992C12.3093 7.67413 12.1351 7.56624 11.8973 7.56689C11.662 7.56689 11.4865 7.67088 11.3565 7.87107ZM11.3545 16.069C11.4871 16.2705 11.6639 16.3732 11.9012 16.3726C12.1377 16.3719 12.31 16.264 12.4387 16.0638V17.5678C12.438 17.7154 12.4426 17.8642 12.4296 18.0098C12.417 18.1487 12.351 18.2773 12.2456 18.3686C12.1401 18.4599 12.0034 18.5067 11.8641 18.4992C11.7267 18.49 11.5979 18.4291 11.5036 18.3288C11.4093 18.2285 11.3565 18.0961 11.3558 17.9585C11.3526 17.378 11.3545 16.7976 11.3545 16.2166V16.069ZM12.4387 10.3325V11.4121C12.4387 11.5148 12.4062 11.5706 12.3282 11.6018C12.2878 11.6185 12.2432 11.6215 12.201 11.6105C12.1587 11.5994 12.1213 11.575 12.0942 11.5407L11.6236 10.9896C11.5424 10.8947 11.4611 10.8004 11.3812 10.7036C11.3659 10.6852 11.3568 10.6625 11.3552 10.6386C11.3539 10.1745 11.3532 9.70981 11.3552 9.24574C11.3543 9.10867 11.4051 8.9763 11.4973 8.87492C11.5895 8.77353 11.7165 8.71054 11.8531 8.69847C12.1098 8.66987 12.3646 8.86096 12.4244 9.13004C12.4341 9.17489 12.4374 9.22169 12.4374 9.26784C12.4387 9.62271 12.4387 9.97759 12.4387 10.3325ZM13.5638 8.13755V6.69464C13.5651 6.43336 13.7139 6.22017 13.9453 6.14737C14.2963 6.03623 14.6472 6.30142 14.6492 6.68359C14.6511 7.04367 14.6492 7.40375 14.6492 7.76318V9.57982C14.6492 9.84825 14.488 10.0653 14.2417 10.1323C13.9212 10.2187 13.5943 9.98279 13.5677 9.64546C13.5653 9.61237 13.5642 9.5792 13.5644 9.54602V8.13755H13.5638ZM10.2854 15.0941V16.7612C10.2878 16.8915 10.2438 17.0184 10.1613 17.1193C10.0788 17.2201 9.96311 17.2883 9.83493 17.3117C9.52295 17.3715 9.21162 17.1181 9.20252 16.7937C9.19992 16.7008 9.20187 16.6078 9.20187 16.5149V13.4256C9.20187 13.1663 9.36826 12.9473 9.61004 12.8849C9.69019 12.8646 9.7739 12.863 9.85477 12.8801C9.93564 12.8972 10.0115 12.9326 10.0766 12.9835C10.1417 13.0344 10.1943 13.0996 10.2304 13.174C10.2665 13.2483 10.285 13.33 10.2847 13.4126C10.2867 13.9729 10.2847 14.5338 10.2847 15.0941H10.2854ZM10.2854 8.95455V11.2288C10.2878 11.3549 10.2467 11.478 10.1691 11.5774C10.0914 11.6769 9.98194 11.7465 9.85898 11.7747C9.78021 11.7915 9.69869 11.7905 9.62034 11.7719C9.54198 11.7533 9.46874 11.7175 9.40591 11.6672C9.34308 11.6168 9.29224 11.5531 9.25707 11.4806C9.22189 11.4082 9.20326 11.3288 9.20252 11.2483C9.19927 10.9194 9.20187 10.5912 9.20122 10.2623V6.68359C9.20122 6.41581 9.37541 6.19222 9.62564 6.13568C9.7052 6.11821 9.78766 6.11888 9.86692 6.13763C9.94618 6.15638 10.0202 6.19273 10.0835 6.24398C10.1468 6.29523 10.1978 6.36007 10.2326 6.4337C10.2674 6.50733 10.2852 6.58785 10.2847 6.66929C10.2867 7.25361 10.2847 7.83727 10.2847 8.42159L10.2854 8.95455ZM13.5638 14.2751V11.8053C13.5638 11.5589 13.669 11.3763 13.8887 11.2736C14.241 11.1105 14.6362 11.3711 14.6492 11.7695V16.7404C14.6492 17.0121 14.4938 17.2279 14.2488 17.2981C13.9277 17.3904 13.595 17.1551 13.5677 16.8165C13.5652 16.7819 13.5641 16.7472 13.5644 16.7125V14.2738L13.5638 14.2751ZM16.8747 11.7624V15.6232C16.8778 15.7518 16.836 15.8775 16.7564 15.9786C16.6768 16.0797 16.5643 16.1499 16.4385 16.1769C16.1187 16.2465 15.8003 15.991 15.7912 15.6576V7.91007C15.7912 7.65983 15.9166 7.46029 16.1285 7.3719C16.486 7.22241 16.874 7.49149 16.874 7.89057V11.7617L16.8747 11.7624ZM8.20873 11.7565V15.6232C8.20873 15.8961 8.03974 16.1152 7.78495 16.1756C7.45997 16.2536 7.13434 15.9975 7.12524 15.6563V7.89772C7.12524 7.63188 7.28448 7.4161 7.52822 7.3485C7.60818 7.32749 7.69189 7.32504 7.77294 7.34134C7.85399 7.35765 7.93024 7.39228 7.99585 7.44259C8.06146 7.49289 8.11469 7.55754 8.15148 7.63158C8.18826 7.70562 8.20762 7.7871 8.20808 7.86977C8.21133 8.29549 8.20873 8.72187 8.20873 9.14824V11.7559V11.7565Z" fill="white"/>
</g>
<defs>
<clipPath id="clip0_1265_21593">
<rect width="24" height="24" fill="white"/>
</clipPath>
</defs>
</svg>
