<svg viewBox="0 0 24 24" fill="none" xmlns="http://www.w3.org/2000/svg">
<g clip-path="url(#clip0_1265_21585)">
<path d="M12 24C18.6274 24 24 18.6274 24 12C24 5.37258 18.6274 0 12 0C5.37258 0 0 5.37258 0 12C0 18.6274 5.37258 24 12 24Z" fill="#1FC5C9"/>
<path fill-rule="evenodd" clip-rule="evenodd" d="M8.9424 16.2068L10.349 14.8002C10.9698 15.1669 11.6948 15.3167 12.4101 15.2262C13.1254 15.1356 13.7902 14.8098 14.3 14.3C14.8098 13.7902 15.1356 13.1254 15.2262 12.4101C15.3167 11.6948 15.1669 10.9698 14.8002 10.349L16.2068 8.9424C16.9359 9.94407 17.2835 11.1732 17.1868 12.4083C17.0902 13.6435 16.5557 14.8035 15.6796 15.6796C14.8035 16.5557 13.6435 17.0902 12.4083 17.1868C11.1732 17.2835 9.94407 16.9359 8.9424 16.2068ZM7.7932 15.0576C7.06407 14.0559 6.71654 12.8268 6.81319 11.5917C6.90985 10.3565 7.44433 9.19645 8.32039 8.32039C9.19645 7.44433 10.3565 6.90985 11.5917 6.81319C12.8268 6.71654 14.0559 7.06407 15.0576 7.7932L13.651 9.1998C13.0302 8.83312 12.3052 8.68326 11.5899 8.77381C10.8746 8.86436 10.2098 9.19017 9.69998 9.69998C9.19017 10.2098 8.86436 10.8746 8.77381 11.5899C8.68326 12.3052 8.83312 13.0302 9.1998 13.651L7.7932 15.0576ZM17.2 8.1C16.8552 8.1 16.5246 7.96304 16.2808 7.71924C16.037 7.47544 15.9 7.14478 15.9 6.8C15.9 6.45522 16.037 6.12456 16.2808 5.88076C16.5246 5.63696 16.8552 5.5 17.2 5.5C17.5448 5.5 17.8754 5.63696 18.1192 5.88076C18.363 6.12456 18.5 6.45522 18.5 6.8C18.5 7.14478 18.363 7.47544 18.1192 7.71924C17.8754 7.96304 17.5448 8.1 17.2 8.1ZM6.8 18.5C6.45522 18.5 6.12456 18.363 5.88076 18.1192C5.63696 17.8754 5.5 17.5448 5.5 17.2C5.5 16.8552 5.63696 16.5246 5.88076 16.2808C6.12456 16.037 6.45522 15.9 6.8 15.9C7.14478 15.9 7.47544 16.037 7.71924 16.2808C7.96304 16.5246 8.1 16.8552 8.1 17.2C8.1 17.5448 7.96304 17.8754 7.71924 18.1192C7.47544 18.363 7.14478 18.5 6.8 18.5Z" fill="white"/>
</g>
<defs>
<clipPath id="clip0_1265_21585">
<rect width="24" height="24" fill="white"/>
</clipPath>
</defs>
</svg>