<svg viewBox="0 0 24 24" fill="none" xmlns="http://www.w3.org/2000/svg">
<path fill-rule="evenodd" clip-rule="evenodd" d="M20.5558 21.3333H3.44417C2.64833 21.3333 2 20.6883 2 19.895V7.7725C2 6.97917 2.64833 6.33333 3.44417 6.33333H9.5V3.83333C9.5 3.37333 9.87333 3 10.3333 3H13.6667C14.1267 3 14.5 3.37333 14.5 3.83333V6.33333H20.5558C21.3517 6.33333 22 6.97917 22 7.7725V19.895C22 20.6883 21.3517 21.3333 20.5558 21.3333ZM12.8333 4.66667H11.1667V8.00083H12.8333V4.66667ZM20.3333 8H14.5V8.83417C14.5 9.29417 14.1267 9.6675 13.6667 9.6675H10.3333C9.87333 9.6675 9.5 9.29417 9.5 8.83417V8H3.66667V19.6667H20.3333V8ZM7.88917 16.475C7.90667 16.4242 7.93333 16.3808 7.96 16.335C7.98667 16.2892 8.0125 16.245 8.04833 16.2042C8.08667 16.16 8.13167 16.1275 8.17917 16.0925C8.20833 16.07 8.22833 16.04 8.26083 16.0217L9.74083 15.1967C9.50917 14.6383 9.495 14.13 9.5025 13.925C9.5025 13.9208 9.5 13.9175 9.5 13.9133L9.50167 12.3517C9.50167 12.325 9.51417 12.3033 9.51667 12.2775C9.51917 12.2475 9.51083 12.2183 9.51667 12.1875C9.52667 12.1367 9.54917 12.0925 9.56417 12.0442C9.56667 12.0367 9.56833 12.0283 9.57167 12.0208C9.87583 11.055 11.0067 10.4783 12 10.4783C12.0017 10.4783 12.0042 10.4783 12.0058 10.4783C12.9967 10.4783 14.125 11.0542 14.4283 12.0208C14.4317 12.0283 14.4333 12.0358 14.4358 12.0433C14.4508 12.0917 14.4733 12.1367 14.4833 12.1875C14.49 12.2183 14.4808 12.2467 14.4833 12.2775C14.4858 12.3033 14.4983 12.325 14.4983 12.3517L14.5 13.9133C14.5 13.9183 14.4975 13.9217 14.4975 13.9258C14.505 14.13 14.4908 14.635 14.2617 15.1917L15.7417 16.0242C15.7742 16.0417 15.7933 16.0717 15.8217 16.0925C15.8692 16.1275 15.9142 16.1617 15.9525 16.2058C15.9883 16.2458 16.0142 16.2908 16.0408 16.3367C16.0683 16.3825 16.0933 16.4258 16.1117 16.4767C16.1308 16.5317 16.1383 16.5875 16.1458 16.6458C16.15 16.6817 16.1667 16.7133 16.1667 16.75V17.375C16.1667 18.1792 15.4192 18.8333 14.5 18.8333H9.5C8.58083 18.8333 7.83333 18.1792 7.83333 17.375V16.75C7.83333 16.7125 7.85 16.6808 7.855 16.645C7.8625 16.5867 7.86917 16.5308 7.88917 16.475ZM12.7017 16.2267C12.5417 16.1367 12.4375 15.9967 12.3667 15.8417C12.3592 15.8283 12.3517 15.815 12.3458 15.8008C12.3192 15.7325 12.305 15.6642 12.2967 15.5908C12.29 15.545 12.2842 15.5017 12.2858 15.455C12.2875 15.415 12.2958 15.3775 12.3042 15.3375C12.3175 15.2575 12.3408 15.1825 12.3783 15.1083C12.3808 15.1025 12.3808 15.0967 12.3833 15.0917C12.3883 15.0842 12.3958 15.08 12.4 15.0725C12.4317 15.0175 12.4542 14.9592 12.4992 14.91C12.8567 14.525 12.8325 13.995 12.8325 13.99C12.8308 13.9725 12.8383 13.9567 12.8383 13.9392C12.8375 13.9308 12.8333 13.9242 12.8333 13.9158L12.8317 12.4983C12.76 12.3775 12.415 12.1433 12 12.1433C11.5867 12.1442 11.24 12.3783 11.1683 12.4992L11.1667 13.9158C11.1667 13.9225 11.1633 13.9275 11.1625 13.9342C11.1625 13.95 11.17 13.9642 11.1683 13.98C11.1667 14.0083 11.1475 14.53 11.5008 14.91C11.62 15.0392 11.6758 15.1983 11.6992 15.36C11.7058 15.3942 11.7133 15.4267 11.715 15.4608C11.7158 15.5033 11.71 15.5433 11.705 15.585C11.68 15.8492 11.545 16.0992 11.2958 16.2383L9.63082 17.1667H14.3733L12.7017 16.2267Z" fill="currentColor"/>
</svg>