<svg viewBox="0 0 24 24" fill="none" xmlns="http://www.w3.org/2000/svg">
<g clip-path="url(#clip0_1265_21581)">
<path d="M12 24C18.6274 24 24 18.6274 24 12C24 5.37258 18.6274 0 12 0C5.37258 0 0 5.37258 0 12C0 18.6274 5.37258 24 12 24Z" fill="#F9C011"/>
<path d="M11.1684 5C12.231 5.6209 13.2306 6.3398 14.2834 6.9775L10.4026 13.7472C9.88745 12.8435 9.40445 11.9216 8.89555 11.013C9.62845 9.0005 10.4656 7.023 11.1684 5ZM7.80005 19C9.99735 15.0037 12.28 11.0515 14.4528 7.0447C15.0338 8.0646 15.6155 9.0838 16.2 10.1037C14.5158 13.0661 12.819 16.0215 11.1481 18.9902C10.0316 18.9902 8.91655 18.9762 7.80005 19ZM11.3574 18.9839C12.2884 17.3914 13.1655 15.7709 14.1084 14.1854C14.6705 14.9043 15.241 15.619 15.7989 16.3414C14.3238 17.2311 12.8432 18.112 11.3574 18.9839Z" fill="white"/>
</g>
<defs>
<clipPath id="clip0_1265_21581">
<rect width="24" height="24" fill="white"/>
</clipPath>
</defs>
</svg>