<svg viewBox="0 0 24 24" fill="none" xmlns="http://www.w3.org/2000/svg">
<g clip-path="url(#clip0_1265_21577)">
<path d="M12 24C18.6274 24 24 18.6274 24 12C24 5.37258 18.6274 0 12 0C5.37258 0 0 5.37258 0 12C0 18.6274 5.37258 24 12 24Z" fill="#98C23A"/>
<path d="M12 5.5C8.41039 5.5 5.5 8.41039 5.5 12C5.5 15.5896 8.41039 18.5 12 18.5C15.5896 18.5 18.5 15.5896 18.5 12C18.4939 8.4126 15.5874 5.50606 12 5.5ZM12 17.6289C8.895 17.6289 6.37769 15.1122 6.37659 12.0072C6.37549 8.90216 8.89114 6.38376 11.9961 6.3821C15.1011 6.3799 17.6201 8.895 17.6234 12C17.6201 15.1045 15.1045 17.6201 12 17.6234V17.6289ZM9.12765 11.4211H8.08015V9.12765C8.08015 8.69762 8.28414 8.48261 8.69211 8.48261H10.9635C11.0511 8.46777 11.1409 8.47431 11.2254 8.50166C11.3099 8.52901 11.3866 8.57637 11.4488 8.63971C11.5111 8.70305 11.5571 8.78049 11.583 8.86545C11.6089 8.9504 11.6139 9.04036 11.5975 9.12765V11.4211H10.5611V9.38126H9.12765V11.4211ZM10.5611 12.0937H11.6086V14.8503C11.6239 14.9372 11.6181 15.0265 11.5918 15.1107C11.5655 15.1949 11.5193 15.2716 11.4572 15.3342C11.395 15.3969 11.3188 15.4437 11.2348 15.4708C11.1508 15.4979 11.0616 15.5044 10.9746 15.4898H8.69211C8.60609 15.5 8.51888 15.4898 8.43755 15.46C8.35622 15.4302 8.28306 15.3816 8.22399 15.3183C8.16493 15.2549 8.12162 15.1785 8.09759 15.0953C8.07356 15.0121 8.06947 14.9244 8.08567 14.8393V12.0827H10.5666L10.5611 12.0937ZM14.8613 12.1323H15.9198V14.8889C15.9354 14.9763 15.9297 15.0662 15.903 15.1509C15.8764 15.2357 15.8297 15.3127 15.7669 15.3755C15.7041 15.4383 15.6271 15.485 15.5424 15.5116C15.4577 15.5382 15.3678 15.544 15.2803 15.5284H12.9813C12.8947 15.542 12.8061 15.5347 12.7229 15.5072C12.6396 15.4797 12.5642 15.4327 12.5027 15.3702C12.4413 15.3077 12.3956 15.2314 12.3695 15.1477C12.3435 15.064 12.3378 14.9753 12.3528 14.8889V9.17727C12.3359 9.0889 12.3409 8.99774 12.3674 8.91174C12.3938 8.82574 12.4409 8.74752 12.5045 8.6839C12.5681 8.62028 12.6463 8.5732 12.7323 8.54676C12.8183 8.52032 12.9095 8.51533 12.9979 8.53223H15.2583C15.3478 8.51213 15.441 8.51469 15.5292 8.5397C15.6175 8.5647 15.6982 8.61135 15.7639 8.67541C15.8296 8.73948 15.8783 8.81893 15.9055 8.90657C15.9328 8.9942 15.9377 9.08725 15.9198 9.17727V10.8312H14.8172V9.43087H13.4389V12.1323H14.8613Z" fill="white"/>
</g>
<defs>
<clipPath id="clip0_1265_21577">
<rect width="24" height="24" fill="white"/>
</clipPath>
</defs>
</svg>