<svg width="24" height="24" viewBox="0 0 24 24" fill="none" xmlns="http://www.w3.org/2000/svg">
<path fill-rule="evenodd" clip-rule="evenodd" d="M7.44827 6.10253C6.5986 6.10253 5.90981 6.79132 5.90981 7.64099C5.90981 8.49066 6.5986 9.17945 7.44827 9.17945C8.29794 9.17945 8.98673 8.49066 8.98673 7.64099C8.98673 6.79132 8.29794 6.10253 7.44827 6.10253ZM14.3412 11.1759C14.1908 11.0398 13.9899 10.9737 13.7882 10.9939C13.5864 11.014 13.4026 11.1185 13.2821 11.2816L10.5372 14.9961L9.02147 13.5562C8.8693 13.4116 8.66148 13.3409 8.45271 13.3626C8.24394 13.3843 8.05513 13.4963 7.93596 13.6691L5.83135 16.7209C5.67988 16.9405 5.6627 17.2261 5.78674 17.4623C5.91077 17.6985 6.15557 17.8464 6.42238 17.8464H17.5246C17.9211 17.8464 18.2425 17.525 18.2425 17.1285V15.0238C18.2425 14.8209 18.1567 14.6275 18.0062 14.4914L14.3412 11.1759Z" fill="#6B7084"/>
<path fill-rule="evenodd" clip-rule="evenodd" d="M2 4.30769C2 3.03319 3.03319 2 4.30769 2H19.6923C20.9668 2 22 3.03319 22 4.30769V19.6923C22 20.9668 20.9668 22 19.6923 22H4.30769C3.03319 22 2 20.9668 2 19.6923V4.30769ZM4.30769 3.53846C3.88286 3.53846 3.53846 3.88286 3.53846 4.30769V19.6923C3.53846 20.1171 3.88286 20.4615 4.30769 20.4615H19.6923C20.1171 20.4615 20.4615 20.1171 20.4615 19.6923V4.30769C20.4615 3.88286 20.1171 3.53846 19.6923 3.53846H4.30769Z" fill="#6B7084"/>
</svg>
