<svg viewBox="0 0 24 24" fill="none" xmlns="http://www.w3.org/2000/svg">
<path d="M14.1633 11.2175C14.3881 11.1951 14.612 11.2687 14.7795 11.4203L18.75 15.0121C19.0777 15.3085 19.103 15.8144 18.8066 16.1421C18.5102 16.4697 18.0043 16.4951 17.6766 16.1987L14.3612 13.1994L11.3895 17.2209C11.2532 17.4053 11.0443 17.5224 10.8158 17.5424C10.5874 17.5624 10.3613 17.4834 10.1951 17.3254L8.59331 15.8038L6.8445 18.3396C6.59367 18.7034 6.09547 18.7949 5.73175 18.544C5.36803 18.2932 5.27651 17.795 5.52735 17.4313L7.80735 14.1252C7.94013 13.9327 8.15052 13.8079 8.38315 13.7837C8.61578 13.7595 8.84735 13.8383 9.01692 13.9994L10.6407 15.5419L13.5994 11.5381C13.7337 11.3564 13.9385 11.24 14.1633 11.2175Z" fill="currentColor"/>
<path fill-rule="evenodd" clip-rule="evenodd" d="M7.61111 10.2193C9.05319 10.2193 10.2222 9.05026 10.2222 7.60818C10.2222 6.1661 9.05319 4.99707 7.61111 4.99707C6.16903 4.99707 5 6.1661 5 7.60818C5 9.05026 6.16903 10.2193 7.61111 10.2193ZM8.72222 7.60818C8.72222 8.22183 8.22476 8.71929 7.61111 8.71929C6.99746 8.71929 6.5 8.22183 6.5 7.60818C6.5 6.99453 6.99746 6.49707 7.61111 6.49707C8.22476 6.49707 8.72222 6.99453 8.72222 7.60818Z" fill="currentColor"/>
<path fill-rule="evenodd" clip-rule="evenodd" d="M6 2C3.79086 2 2 3.79086 2 6V18C2 20.2091 3.79086 22 6 22H18C20.2091 22 22 20.2091 22 18V6C22 3.79086 20.2091 2 18 2H6ZM18 3.6H6C4.67452 3.6 3.6 4.67452 3.6 6V18C3.6 19.3255 4.67452 20.4 6 20.4H18C19.3255 20.4 20.4 19.3255 20.4 18V6C20.4 4.67452 19.3255 3.6 18 3.6Z" fill="currentColor"/>
</svg>