<svg viewBox="0 0 24 24" fill="none" xmlns="http://www.w3.org/2000/svg">
<path fill-rule="evenodd" clip-rule="evenodd" d="M21 18C21 18.8272 20.3273 19.5 19.5005 19.5H4.50025C3.67266 19.5 3 18.8272 3 18V12.0007C3 11.931 3.02192 11.868 3.0393 11.8042C3.00529 11.6842 2.98942 11.5582 3.01965 11.4285L4.5199 5.07823C4.60002 4.73998 4.90233 4.50073 5.25 4.50073H8.24975C8.66392 4.50073 9.00025 4.83673 9.00025 5.25073C9.00025 5.66548 8.66392 6.00148 8.24975 6.00148H5.8433L4.60304 11.2515H9.00025C9.41443 11.2515 9.75 11.5867 9.75 12.0007C9.75 13.242 10.7582 14.2515 11.9985 14.2515C13.2403 14.2515 14.25 13.242 14.25 12.0007C14.25 11.5867 14.5863 11.2515 15.0005 11.2515H19.397L18.1567 6.00148H15.0005C14.5863 6.00148 14.25 5.66548 14.25 5.25073C14.25 4.83673 14.5863 4.50073 15.0005 4.50073H18.75C19.0984 4.50073 19.4 4.73998 19.4801 5.07823L20.9803 11.4285C21.0106 11.5582 20.9947 11.6842 20.9607 11.8042C20.9781 11.868 21 11.931 21 12.0007V18ZM19.5973 12.7508H15.6747C15.3255 14.4608 13.8102 15.7515 11.9985 15.7515C10.1884 15.7515 8.67379 14.4608 8.32612 12.7508H4.50029V18H19.5973V12.7508ZM14.4699 7.71975C14.7631 7.4265 15.2378 7.4265 15.5303 7.71975C15.8235 8.013 15.8235 8.487 15.5303 8.78025L12.5305 11.7802C12.3839 11.9265 12.1919 12 12 12C11.808 12 11.616 11.9265 11.4701 11.7802L8.46964 8.78025C8.17639 8.487 8.17639 8.013 8.46964 7.71975C8.76289 7.4265 9.23753 7.4265 9.53002 7.71975L11.2835 9.47325V3.75C11.2835 3.336 11.5858 3 12 3C12.4141 3 12.7505 3.336 12.7505 3.75V9.4395L14.4699 7.71975Z" fill="currentColor"/>
</svg>