<svg viewBox="0 0 24 24" fill="none" xmlns="http://www.w3.org/2000/svg">
<path fill-rule="evenodd" clip-rule="evenodd" d="M19.3699 19.5H4.48817C3.66708 19.5 3 18.8272 3 18V12C3 11.928 3.02179 11.8635 3.04057 11.7975C3.0015 11.6572 2.98948 11.5073 3.03981 11.3588L4.67597 6.5085C4.76387 6.24825 4.98322 6.08025 5.23263 6.02775V4.5C5.23263 4.086 5.56542 3.75 5.97634 3.75H17.8817C18.2926 3.75 18.6261 4.086 18.6261 4.5V6.0285C18.874 6.081 19.0927 6.24825 19.1805 6.5085L20.819 11.3588C20.8498 11.4495 20.858 11.5425 20.8543 11.6332C20.9376 11.7435 21 11.8643 21 12V18C21 18.8272 20.1909 19.5 19.3699 19.5ZM5.23251 9.51826L4.64806 11.25H5.23251V9.51826ZM17.138 5.25002H6.72085V11.25H8.95273C9.36364 11.25 9.69719 11.586 9.69719 12C9.69719 13.2413 10.6978 14.25 11.9276 14.25C13.1596 14.25 14.1617 13.2413 14.1617 12C14.1617 11.586 14.4945 11.25 14.9054 11.25H17.138V5.25002ZM18.6261 9.52123V11.25H19.2098L18.6261 9.52123ZM19.4976 12.75H15.5747C15.2284 14.4593 13.7252 15.75 11.9275 15.75C10.1321 15.75 8.62969 14.4593 8.28413 12.75H4.48821V18H19.4976V12.75ZM16.3936 3H7.46456C7.05364 3 6.72085 2.664 6.72085 2.25C6.72085 1.836 7.05364 1.5 7.46456 1.5H16.3936C16.8045 1.5 17.138 1.836 17.138 2.25C17.138 2.664 16.8045 3 16.3936 3Z" fill="currentColor"/>
</svg>