<svg width="24" height="24" viewBox="0 0 24 24" fill="none" xmlns="http://www.w3.org/2000/svg">
<path fill-rule="evenodd" clip-rule="evenodd" d="M19.5002 19.5H4.49981C3.67246 19.5 3 18.8272 3 18V12C3 11.9715 3.01284 11.9467 3.01587 11.919C3.01889 11.8912 3.01133 11.865 3.01738 11.8372L4.51794 5.08725C4.5935 4.7445 4.898 4.5 5.25009 4.5H18.7499C19.102 4.5 19.4057 4.7445 19.4821 5.08725L20.9826 11.8372C20.9887 11.865 20.9811 11.8912 20.9841 11.919C20.9872 11.9467 21 11.9715 21 12V18C21 18.8272 20.3275 19.5 19.5002 19.5ZM18.1484 6.00002H5.85147L4.68486 11.25H8.99994C9.41399 11.25 9.74946 11.586 9.74946 12C9.74946 13.2405 10.7589 14.25 11.9996 14.25C13.241 14.25 14.2497 13.2405 14.2497 12C14.2497 11.586 14.5859 11.25 14.9999 11.25H19.315L18.1484 6.00002ZM19.5887 12.75H15.674C15.3257 14.4593 13.8108 15.75 11.9997 15.75C10.1893 15.75 8.67443 14.4593 8.32611 12.75H4.47722V18H19.5887V12.75Z" fill="#6B7084"/>
</svg>
