<svg width="24" height="24" viewBox="0 0 24 24" fill="none" xmlns="http://www.w3.org/2000/svg">
<path d="M2 12C2 6.47715 6.47715 2 12 2C17.5228 2 22 6.47715 22 12C22 17.5228 17.5228 22 12 22C6.47715 22 2 17.5228 2 12Z" fill="#0484B5"/>
<path d="M8.28227 8.91861C8.28227 8.56071 8.00397 8.28241 7.68587 8.28241C7.36777 8.28241 7.08997 8.56071 7.08997 8.87881C7.08997 9.23671 7.36827 9.51501 7.72607 9.47521L9.51487 11.2645H12.7356L16.2744 7.8053L17.3479 8.87881L13.4513 12.6959L15.6779 15.0022V15.0422C15.6779 15.3603 15.9563 15.6387 16.2744 15.6387C16.5925 15.6387 16.8708 15.3603 16.8708 15.0422C16.8708 14.724 16.5924 14.4457 16.2744 14.4457L14.6844 12.7357L18.501 8.87881L16.3141 6.69189L12.4175 10.5886H9.99197L8.28227 8.91861Z" fill="white"/>
<path d="M10.6284 11.5826L7.76555 14.4454H7.72555C7.40755 14.4454 7.12915 14.7238 7.12915 15.0418C7.12915 15.3598 7.40755 15.6383 7.72555 15.6383C8.04355 15.6383 8.32205 15.3599 8.32205 15.0418L10.9861 12.3778H13.2922L16.2744 9.51495C16.5924 9.51495 16.8708 9.23665 16.8708 8.91855C16.8708 8.60045 16.5924 8.32214 16.2744 8.32214C15.9564 8.32214 15.6779 8.60045 15.6779 8.91855V8.95855L12.9345 11.5826" fill="white"/>
<path d="M16.3539 12.7754C16.3539 12.4574 16.0755 12.179 15.7575 12.179C15.4395 12.179 15.161 12.4574 15.161 12.7754C15.161 13.0934 15.3996 13.3321 15.6779 13.3719L17.3079 15.0819L16.2344 16.1555L12.9344 12.6962H11.0656L7.6461 16.1552L6.57261 15.0816L10.1511 11.5826H9.27631L6.57261 8.87879L7.60641 7.84499L9.5547 9.83309C9.5547 10.1512 9.833 10.3898 10.1511 10.3898C10.4692 10.3898 10.7475 10.1114 10.7475 9.79329C10.7475 9.47519 10.4692 9.19689 10.1511 9.19689H10.0711L7.60641 6.69189L5.38 8.91859L8.4811 12.0201L5.38 15.1214L7.6067 17.348L11.4635 13.4912H12.497L16.1948 17.348L18.3419 15.1611L16.3539 12.8947V12.7754Z" fill="white"/>
</svg>
