<svg viewBox="0 0 24 24" fill="none" xmlns="http://www.w3.org/2000/svg">
<path fill-rule="evenodd" clip-rule="evenodd" d="M3.53846 12C3.53846 16.6732 7.32682 20.4615 12 20.4615C16.6732 20.4615 20.4615 16.6732 20.4615 12C20.4615 7.32682 16.6732 3.53846 12 3.53846C7.32682 3.53846 3.53846 7.32682 3.53846 12ZM12 22C6.47715 22 2 17.5228 2 12C2 6.47715 6.47715 2 12 2C17.5228 2 22 6.47715 22 12C22 17.5228 17.5228 22 12 22ZM12.7692 16.0769C12.7692 16.5018 12.4248 16.8462 12 16.8462C11.5752 16.8462 11.2308 16.5018 11.2308 16.0769V11.2308C11.2308 10.8059 11.5752 10.4615 12 10.4615C12.4248 10.4615 12.7692 10.8059 12.7692 11.2308V16.0769ZM12 9.2C12.6075 9.2 13.1 8.70752 13.1 8.1C13.1 7.49249 12.6075 7 12 7C11.3925 7 10.9 7.49249 10.9 8.1C10.9 8.70752 11.3925 9.2 12 9.2Z" fill="currentColor"/>
</svg>