<svg viewBox="0 0 24 24" fill="none" xmlns="http://www.w3.org/2000/svg">
<path fill-rule="evenodd" clip-rule="evenodd" d="M12 23C6.47715 23 2 18.5228 2 13C2 7.47715 6.47715 3 12 3C17.5228 3 22 7.47715 22 13C22 18.5228 17.5228 23 12 23ZM12.7692 17.0769C12.7692 17.5018 12.4248 17.8462 12 17.8462C11.5752 17.8462 11.2308 17.5018 11.2308 17.0769V12.2308C11.2308 11.8059 11.5752 11.4615 12 11.4615C12.4248 11.4615 12.7692 11.8059 12.7692 12.2308V17.0769ZM12 10.1C12.6075 10.1 13.1 9.60751 13.1 8.99999C13.1 8.39248 12.6075 7.89999 12 7.89999C11.3925 7.89999 10.9 8.39248 10.9 8.99999C10.9 9.60751 11.3925 10.1 12 10.1Z" fill="currentColor"/>
</svg>