<svg viewBox="0 0 24 24" fill="none" xmlns="http://www.w3.org/2000/svg">
<path d="M4.37158 5.45673C4.49304 5.30037 4.62176 5.15055 4.75049 5.00001C4.75631 4.99273 4.7694 4.99128 4.77521 4.98401C4.78685 4.96946 4.80576 4.96001 4.8174 4.94546L4.82903 4.93091C4.91849 4.84582 5.01376 4.75346 5.1243 4.67274C5.49156 4.38093 5.90336 4.15011 6.34393 3.9891C7.71119 3.49893 9.23263 3.80147 10.4261 4.95346C12.0915 6.54981 11.9424 9.12288 10.613 10.8327C8.93155 13.381 6.04357 16.9374 10.0428 20.1228C10.7621 20.6959 11.2952 21.1679 13.5599 21.837C12.0792 22.1162 10.7053 22.0297 9.17664 21.6304C8.09519 21.0057 6.39484 19.6697 5.81666 17.8646C4.94176 15.1279 7.35556 11.0363 8.52209 9.46106C10.1235 7.27926 7.53228 4.91928 5.62466 7.55489C4.62685 8.92797 2.88287 12.8152 3.48868 15.6981C3.84286 17.333 4.31558 18.525 6.18902 20.1621C5.83559 19.9481 5.49756 19.7097 5.17739 19.4486C0.823974 15.3032 1.32942 8.89307 4.37158 5.45673Z" fill="url(#paint0_linear_620_14092)"/>
<path d="M19.1896 18.5432C19.0682 18.6996 18.9394 18.8494 18.8107 18.9999C18.8049 19.0072 18.7918 19.0087 18.786 19.0159C18.7744 19.0305 18.7554 19.0399 18.7438 19.0545L18.7322 19.069C18.6427 19.1541 18.5475 19.2465 18.4369 19.3272C18.0697 19.619 17.6579 19.8499 17.2173 20.0108C15.85 20.501 14.3286 20.1985 13.1351 19.0465C11.4697 17.4501 11.6188 14.8771 12.9482 13.1673C14.6289 10.6189 17.5176 7.06258 13.5184 3.87715C12.7991 3.30407 12.266 2.83207 10.0006 2.16298C11.4821 1.88371 12.8559 1.97026 14.3846 2.36953C15.466 2.99425 17.1664 4.33024 17.7445 6.13532C18.6195 8.87202 16.2057 12.9636 15.0391 14.5389C13.4377 16.7207 16.0289 19.0807 17.9365 16.4451C18.9344 15.072 20.6783 11.1847 20.0725 8.30184C19.7176 6.66695 19.2456 5.47496 17.3722 3.83788C17.7191 4.04733 18.0565 4.28515 18.3838 4.55133C22.7365 8.69675 22.2318 15.1069 19.1896 18.5432Z" fill="url(#paint1_linear_620_14092)"/>
<defs>
<linearGradient id="paint0_linear_620_14092" x1="1.99996" y1="12" x2="21.5613" y2="12" gradientUnits="userSpaceOnUse">
<stop stop-color="#0082FA"/>
<stop offset="1" stop-color="#00F2FE"/>
</linearGradient>
<linearGradient id="paint1_linear_620_14092" x1="1.99995" y1="12" x2="21.5612" y2="12" gradientUnits="userSpaceOnUse">
<stop stop-color="#0082FA"/>
<stop offset="1" stop-color="#00F2FE"/>
</linearGradient>
</defs>
</svg>