<svg viewBox="0 0 24 24" fill="none" xmlns="http://www.w3.org/2000/svg">
<g clip-path="url(#clip0_1265_21573)">
<path d="M12 24C18.6274 24 24 18.6274 24 12C24 5.37258 18.6274 0 12 0C5.37258 0 0 5.37258 0 12C0 18.6274 5.37258 24 12 24Z" fill="#DF1A14"/>
<path d="M11.2019 9.01891C11.4168 8.95101 11.6611 9.07211 11.75 9.28352C11.9649 9.77492 12.1574 10.281 12.38 10.7717C12.513 11.0664 12.9659 11.1042 13.143 10.8326C13.4399 10.3412 13.6772 9.81972 13.9663 9.32062C14.2036 9.01121 14.6334 9.16241 14.9596 9.13231C15.3005 9.10991 15.5525 9.54042 15.3593 9.83512C14.4255 11.5803 13.4847 13.3184 12.5508 15.0642C12.3947 15.3813 11.8837 15.3813 11.743 15.0488C11.5351 14.5427 11.372 14.0135 11.1718 13.5074C11.0528 13.1749 10.5418 13.1224 10.3717 13.4395C10.0826 13.961 9.8306 14.5049 9.54149 15.0187C9.40079 15.2525 9.10399 15.2147 8.87438 15.2147C8.65178 15.2 8.38507 15.2679 8.21497 15.0789C8.14045 15.0018 8.09347 14.9022 8.08132 14.7956C8.06917 14.689 8.09253 14.5814 8.14777 14.4895C9.02278 12.8347 9.9118 11.1728 10.7868 9.50262C10.8904 9.31362 10.9793 9.07911 11.2019 9.01961V9.01891ZM8.14777 9.14771C8.40702 9.13259 8.66693 9.13259 8.92618 9.14771C9.21529 9.17781 9.40079 9.54812 9.26009 9.81272C8.39207 11.4521 7.51776 13.0839 6.65115 14.7163C6.54685 14.8983 6.46565 15.1398 6.24304 15.1993C5.98404 15.2378 5.71733 15.2154 5.45763 15.2154C5.13913 15.2301 4.87242 14.8143 5.06492 14.535C5.96934 12.8424 6.87305 11.142 7.77747 9.44242C7.85167 9.29892 7.97767 9.15541 8.14847 9.14771H8.14777ZM17.3459 9.16241C17.6273 9.07911 17.9241 9.14001 18.2132 9.11691C18.4351 9.12461 18.7172 9.07911 18.8803 9.27582C19.0805 9.48022 19.0203 9.86522 18.7683 9.99403C18.2573 10.3188 17.7533 10.666 17.2353 10.9838C16.9084 11.2099 16.4268 10.8249 16.5675 10.4469C16.6935 10.1445 16.8713 9.86592 17.0127 9.57052C17.0939 9.41932 17.1681 9.22332 17.3459 9.16241ZM14.8924 13.681C15.0408 13.59 15.2263 13.6208 15.367 13.6964C15.7597 13.8924 16.1524 14.1045 16.5528 14.2935C16.7236 14.3691 16.9014 14.5126 16.9084 14.7163C16.9385 14.9886 16.7082 15.2525 16.4415 15.2301C15.871 15.2301 15.3005 15.2371 14.737 15.2301C14.4556 15.2301 14.233 14.8976 14.3366 14.626C14.4108 14.4293 14.5221 14.255 14.611 14.066C14.6775 13.9232 14.744 13.7489 14.8924 13.681Z" fill="white"/>
</g>
<defs>
<clipPath id="clip0_1265_21573">
<rect width="24" height="24" fill="white"/>
</clipPath>
</defs>
</svg>