<svg viewBox="0 0 24 24" fill="none" xmlns="http://www.w3.org/2000/svg">
<g clip-path="url(#clip0_1265_21567)">
<path d="M12 24C18.6274 24 24 18.6274 24 12C24 5.37258 18.6274 0 12 0C5.37258 0 0 5.37258 0 12C0 18.6274 5.37258 24 12 24Z" fill="#B2A3F6"/>
<path d="M10.3751 9.66628C9.8915 9.66628 9.50015 9.28143 9.50015 8.80693C9.50015 8.33243 9.8915 7.94694 10.3751 7.94694C10.8581 7.94694 11.2501 8.33179 11.2501 8.80693C11.2501 9.28207 10.8581 9.66628 10.3751 9.66628ZM12.874 8.68398C12.391 8.68398 11.999 8.29913 11.999 7.82463C11.999 7.3495 12.391 6.96465 12.874 6.96465C13.3576 6.96465 13.749 7.3495 13.749 7.82463C13.749 8.29913 13.3576 8.68398 12.874 8.68398ZM13.875 14.5784C13.3913 14.5784 13 14.1942 13 13.719C13 13.2439 13.3913 12.8591 13.875 12.8591C14.3579 12.8591 14.7499 13.2439 14.7499 13.719C14.7499 14.1942 14.3579 14.5784 13.875 14.5784ZM5.50079 13.3502C5.43589 13.351 5.37146 13.339 5.31119 13.3148C5.25092 13.2905 5.19598 13.2546 5.14953 13.209C5.10308 13.1634 5.06602 13.109 5.04047 13.0489C5.01492 12.9889 5.00138 12.9244 5.00064 12.8591C5.00064 12.5882 5.22463 12.3679 5.50016 12.3679C5.77569 12.3679 6.00032 12.5882 6.00032 12.8591C5.99957 12.9244 5.98603 12.9889 5.96049 13.0489C5.93494 13.109 5.89788 13.1634 5.85142 13.209C5.80497 13.2546 5.75004 13.2905 5.68976 13.3148C5.62949 13.339 5.56506 13.351 5.50016 13.3502H5.50079ZM6.87528 16.5443C6.82656 16.5449 6.7782 16.5358 6.73296 16.5176C6.68773 16.4994 6.6465 16.4723 6.61164 16.4381C6.57678 16.4038 6.54896 16.363 6.52978 16.3179C6.51059 16.2729 6.50042 16.2244 6.49984 16.1754C6.49984 15.9718 6.66783 15.8072 6.87528 15.8072C7.08272 15.8072 7.25071 15.9718 7.25071 16.1754C7.25013 16.2244 7.23996 16.2729 7.22078 16.3179C7.20159 16.363 7.17378 16.4038 7.13891 16.4381C7.10405 16.4723 7.06282 16.4994 7.01759 16.5176C6.97235 16.5358 6.924 16.5449 6.87528 16.5443ZM10.8746 19C10.6672 19 10.4992 18.8348 10.4992 18.6312C10.4992 18.4275 10.6672 18.263 10.8746 18.263C11.0821 18.263 11.2501 18.4275 11.2501 18.6312C11.2501 18.8348 11.0821 19 10.8746 19ZM17.3748 16.7895C17.1673 16.7895 16.9994 16.6243 16.9994 16.4207C16.9994 16.217 17.1673 16.0518 17.3748 16.0518C17.5816 16.0518 17.7502 16.217 17.7502 16.4207C17.7502 16.6243 17.5816 16.7895 17.3748 16.7895ZM13.3748 16.0531C13.3261 16.0537 13.2777 16.0446 13.2325 16.0264C13.1872 16.0082 13.146 15.9812 13.1112 15.9469C13.0763 15.9127 13.0485 15.8719 13.0293 15.8268C13.0101 15.7817 12.9999 15.7333 12.9994 15.6843C12.9994 15.4806 13.168 15.3161 13.3748 15.3161C13.5816 15.3161 13.7502 15.4806 13.7502 15.6843C13.7496 15.7333 13.7395 15.7817 13.7203 15.8268C13.7011 15.8719 13.6733 15.9127 13.6384 15.9469C13.6036 15.9812 13.5623 16.0082 13.5171 16.0264C13.4719 16.0446 13.4235 16.0537 13.3748 16.0531ZM15.6249 14.3338C15.4174 14.3338 15.2494 14.1686 15.2494 13.9649C15.2494 13.7613 15.4174 13.5967 15.6249 13.5967C15.8317 13.5967 16.0003 13.7613 16.0003 13.9649C16.0003 14.1686 15.8317 14.3338 15.6249 14.3338ZM13 19C12.7238 19 12.4998 18.7797 12.4998 18.5089C12.4998 18.238 12.7238 18.0177 13 18.0177C13.2755 18.0177 13.4995 18.2373 13.4995 18.5089C13.4995 18.7804 13.2755 19 13 19ZM15.2494 12.8591C15.1846 12.8598 15.1202 12.8477 15.06 12.8234C14.9998 12.7992 14.945 12.7632 14.8986 12.7176C14.8522 12.672 14.8152 12.6176 14.7897 12.5576C14.7642 12.4976 14.7507 12.4332 14.7499 12.3679C14.7499 12.097 14.9733 11.8768 15.2494 11.8768C15.5256 11.8768 15.749 12.097 15.749 12.3679C15.7482 12.4332 15.7347 12.4976 15.7092 12.5576C15.6837 12.6176 15.6467 12.672 15.6003 12.7176C15.5539 12.7632 15.499 12.7992 15.4388 12.8234C15.3786 12.8477 15.3143 12.8598 15.2494 12.8591ZM16.0003 17.7718C15.9354 17.7727 15.871 17.7606 15.8107 17.7364C15.7504 17.7122 15.6955 17.6762 15.649 17.6306C15.6026 17.585 15.5655 17.5306 15.54 17.4705C15.5144 17.4105 15.5009 17.346 15.5001 17.2807C15.5001 17.0092 15.7241 16.7895 15.9997 16.7895C16.2758 16.7895 16.4998 17.0092 16.4998 17.2807C16.4991 17.346 16.4855 17.4105 16.46 17.4705C16.4345 17.5306 16.3974 17.585 16.3509 17.6306C16.3045 17.6762 16.2495 17.7122 16.1893 17.7364C16.129 17.7606 16.0646 17.7727 15.9997 17.7718H16.0003ZM6.12377 15.3161C5.77887 15.3161 5.49889 15.0407 5.49889 14.702C5.49889 14.3632 5.77887 14.0885 6.12377 14.0885C6.46866 14.0885 6.74865 14.3639 6.74865 14.702C6.74865 15.0401 6.46866 15.3161 6.12377 15.3161ZM12.1244 17.7718C11.6408 17.7718 11.2494 17.387 11.2494 16.9118C11.2494 16.4367 11.6408 16.0518 12.1244 16.0518C12.6074 16.0518 12.9994 16.4373 12.9994 16.9118C12.9994 17.3863 12.6074 17.7718 12.1244 17.7718ZM7.37416 13.5967C6.89055 13.5967 6.4992 13.2112 6.4992 12.7367C6.4992 12.2623 6.89055 11.8768 7.37416 11.8768C7.85778 11.8768 8.24912 12.2616 8.24912 12.7367C8.24912 13.2119 7.85714 13.5967 7.37416 13.5967ZM12.1244 15.5607C11.7789 15.5607 11.4989 15.286 11.4989 14.9472C11.4989 14.6085 11.7789 14.3338 12.1244 14.3338C12.4693 14.3338 12.7493 14.6085 12.7493 14.9472C12.7493 15.286 12.4693 15.5607 12.1244 15.5607ZM9.12408 10.1587C8.91664 10.1587 8.74864 9.99349 8.74864 9.78986C8.74864 9.58623 8.91664 9.42102 9.12408 9.42102C9.33153 9.42102 9.49952 9.58623 9.49952 9.78986C9.49952 9.99349 9.33153 10.1587 9.12408 10.1587ZM11.4989 11.6315C11.0853 11.6315 10.7493 11.3017 10.7493 10.8951C10.7493 10.4878 11.0853 10.1574 11.4989 10.1574C11.9125 10.1574 12.2485 10.4878 12.2485 10.8945C12.2485 11.3017 11.9131 11.6321 11.4989 11.6321V11.6315ZM13.2488 12.3679C13.184 12.3687 13.1196 12.3566 13.0594 12.3323C12.9992 12.308 12.9443 12.2721 12.8979 12.2265C12.8516 12.1808 12.8146 12.1265 12.789 12.0665C12.7635 12.0065 12.75 11.942 12.7493 11.8768C12.7493 11.6059 12.9726 11.3856 13.2488 11.3856C13.525 11.3856 13.7483 11.6059 13.7483 11.8768C13.7476 11.942 13.7341 12.0065 13.7086 12.0665C13.683 12.1265 13.646 12.1808 13.5997 12.2265C13.5533 12.2721 13.4984 12.308 13.4382 12.3323C13.378 12.3566 13.3136 12.3687 13.2488 12.3679ZM14.1238 6.22825C13.9163 6.22825 13.7483 6.06368 13.7483 5.86004C13.7483 5.65641 13.9163 5.4912 14.1238 5.4912C14.3312 5.4912 14.4992 5.65641 14.4992 5.86004C14.4992 6.06368 14.3312 6.22825 14.1238 6.22825ZM12.3738 6.2276C12.2927 6.22862 12.2122 6.21354 12.1369 6.18322C12.0616 6.15289 11.9929 6.10793 11.9349 6.0509C11.8769 5.99387 11.8306 5.92588 11.7987 5.85083C11.7668 5.77578 11.7499 5.69514 11.749 5.61351C11.75 5.53194 11.7669 5.45137 11.7989 5.37639C11.8308 5.30141 11.8771 5.2335 11.9351 5.17654C11.9932 5.11957 12.0618 5.07467 12.137 5.04438C12.2123 5.0141 12.2928 4.99904 12.3738 5.00006C12.455 4.99896 12.5355 5.01396 12.6108 5.0442C12.6862 5.07444 12.7549 5.11933 12.813 5.17631C12.8711 5.23328 12.9174 5.30122 12.9494 5.37624C12.9814 5.45126 12.9984 5.53189 12.9994 5.61351C12.9984 5.69519 12.9815 5.77589 12.9496 5.85098C12.9176 5.92607 12.8713 5.99409 12.8132 6.05113C12.7551 6.10817 12.6864 6.15312 12.611 6.1834C12.5356 6.21368 12.455 6.2287 12.3738 6.2276ZM12.7493 10.1574C12.4731 10.1574 12.2498 9.93779 12.2498 9.66628C12.2498 9.39477 12.4731 9.17513 12.7493 9.17513C13.0254 9.17513 13.2488 9.39541 13.2488 9.66628C13.2488 9.93714 13.0254 10.1574 12.7493 10.1574ZM7.99904 15.562C7.58543 15.562 7.24944 15.2322 7.24944 14.8249C7.24944 14.4177 7.58543 14.0879 7.99904 14.0879C8.41266 14.0879 8.74864 14.4177 8.74864 14.8243C8.74864 15.2322 8.4133 15.562 7.99904 15.562ZM15.2488 16.2984C14.8352 16.2984 14.4992 15.9679 14.4992 15.5607C14.4992 15.1541 14.8345 14.8243 15.2488 14.8243C15.6631 14.8243 15.9984 15.1541 15.9984 15.5607C15.9984 15.9679 15.6624 16.2984 15.2488 16.2984ZM14.2498 18.0177C13.8355 18.0177 13.4995 17.6873 13.4995 17.2807C13.4995 16.8734 13.8355 16.543 14.2491 16.543C14.6627 16.543 14.9987 16.8734 14.9987 17.2807C14.9987 17.6873 14.6634 18.0171 14.2491 18.0171L14.2498 18.0177ZM8.37448 18.0177C7.89087 18.0177 7.49952 17.6329 7.49952 17.1577C7.49952 16.6826 7.8915 16.2984 8.37448 16.2984C8.85746 16.2984 9.24944 16.6826 9.24944 17.1577C9.24944 17.6329 8.85746 18.0177 8.37448 18.0177ZM5.7496 11.6321C5.33598 11.6321 5 11.3017 5 10.8945C5 10.4878 5.33535 10.1581 5.7496 10.1581C6.16386 10.1581 6.4992 10.4878 6.4992 10.8945C6.4992 11.3017 6.16322 11.6321 5.7496 11.6321Z" fill="white"/>
<path opacity="0.5" d="M9.49945 12.859C8.94711 12.859 8.49913 12.4197 8.49913 11.8767C8.49913 11.3343 8.94711 10.8944 9.50008 10.8944C10.0531 10.8944 10.5004 11.3343 10.5004 11.8767C10.5004 12.4197 10.0524 12.859 9.50008 12.859H9.49945ZM14.7492 11.3862C14.1969 11.3862 13.7489 10.9462 13.7489 10.4032C13.7489 9.86084 14.1969 9.42092 14.7498 9.42092C15.3022 9.42092 15.7502 9.86084 15.7502 10.4032C15.7502 10.9462 15.3022 11.3855 14.7498 11.3855L14.7492 11.3862ZM17.4988 15.5619C17.0852 15.5619 16.7492 15.2321 16.7492 14.8248C16.7492 14.4176 17.0852 14.0878 17.4988 14.0878C17.9124 14.0878 18.2484 14.4176 18.2484 14.8242C18.2484 15.2321 17.9131 15.5619 17.4988 15.5619ZM18.2497 12.6143C18.1523 12.6154 18.0557 12.5972 17.9653 12.5608C17.875 12.5243 17.7926 12.4702 17.723 12.4017C17.6534 12.3332 17.5979 12.2516 17.5597 12.1615C17.5214 12.0714 17.5012 11.9746 17.5001 11.8767C17.5001 11.47 17.8354 11.1403 18.2497 11.1403C18.6633 11.1403 18.9986 11.47 18.9986 11.8767C18.9986 12.2839 18.6633 12.6143 18.2497 12.6143ZM15.3747 9.17567C15.2936 9.17669 15.213 9.16158 15.1376 9.13122C15.0623 9.10086 14.9936 9.05584 14.9356 8.99874C14.8775 8.94164 14.8312 8.87358 14.7994 8.79845C14.7675 8.72333 14.7507 8.64262 14.7498 8.56094C14.7508 8.47937 14.7678 8.39879 14.7997 8.32381C14.8317 8.24884 14.878 8.18093 14.936 8.12396C14.994 8.067 15.0626 8.02209 15.1379 7.99181C15.2132 7.96153 15.2937 7.94647 15.3747 7.94748C15.4558 7.94647 15.5363 7.96155 15.6117 7.99187C15.687 8.02219 15.7556 8.06715 15.8137 8.12419C15.8717 8.18122 15.918 8.24921 15.9499 8.32426C15.9818 8.39931 15.9987 8.47995 15.9996 8.56158C15.9986 8.64315 15.9816 8.72372 15.9497 8.7987C15.9178 8.87368 15.8715 8.94159 15.8134 8.99855C15.7554 9.05552 15.6868 9.10042 15.6115 9.1307C15.5362 9.16098 15.4558 9.17605 15.3747 9.17503V9.17567ZM15.4988 7.21044C15.2233 7.21044 14.9993 6.9908 14.9993 6.71929C14.9993 6.44779 15.2233 6.22815 15.4988 6.22815C15.775 6.22815 15.999 6.44843 15.999 6.71929C15.999 6.99016 15.775 7.21044 15.4988 7.21044ZM16.6238 7.70159C16.4164 7.70159 16.2484 7.53638 16.2484 7.33339C16.2484 7.1304 16.4164 6.96455 16.6238 6.96455C16.8313 6.96455 16.9993 7.12976 16.9993 7.33339C16.9993 7.53702 16.8313 7.70159 16.6238 7.70159ZM18.6245 10.6498C18.4177 10.6498 18.249 10.4845 18.249 10.2809C18.249 10.0773 18.4177 9.91207 18.6245 9.91207C18.8313 9.91207 18.9999 10.0773 18.9999 10.2809C18.9999 10.4845 18.8319 10.6498 18.6245 10.6498ZM7.87425 7.45633C7.6668 7.45633 7.49881 7.29176 7.49881 7.08813C7.49881 6.8845 7.6668 6.71929 7.87425 6.71929C8.08169 6.71929 8.24969 6.8845 8.24969 7.08813C8.24969 7.29176 8.08169 7.45633 7.87425 7.45633ZM7.37473 10.6498C7.16728 10.6498 6.99929 10.4845 6.99929 10.2809C6.99929 10.0773 7.16728 9.91207 7.37473 9.91207C7.58217 9.91207 7.75016 10.0773 7.75016 10.2809C7.75016 10.4845 7.58217 10.6498 7.37473 10.6498ZM8.37504 11.1409C8.1676 11.1409 7.99961 10.9757 7.99961 10.7721C7.99961 10.5684 8.1676 10.4032 8.37504 10.4032C8.58249 10.4032 8.75048 10.5684 8.75048 10.7721C8.75048 10.9757 8.58249 11.1409 8.37504 11.1409ZM9.62417 6.47276C9.41672 6.47276 9.24873 6.30755 9.24873 6.10392C9.24873 5.90029 9.41672 5.73572 9.62417 5.73572C9.83161 5.73572 9.9996 5.90029 9.9996 6.10392C9.9996 6.30755 9.83161 6.47276 9.62417 6.47276ZM18.6245 13.8425C18.4177 13.8425 18.249 13.6773 18.249 13.4737C18.249 13.2701 18.4177 13.1055 18.6245 13.1055C18.8313 13.1055 18.9999 13.2701 18.9999 13.4737C18.9999 13.6773 18.8319 13.8425 18.6245 13.8425ZM17.3747 9.91207C16.8911 9.91207 16.4998 9.52786 16.4998 9.05272C16.4998 8.57759 16.8911 8.19274 17.3747 8.19274C17.8577 8.19274 18.2497 8.57759 18.2497 9.05272C18.2497 9.52722 17.8577 9.91207 17.3747 9.91207ZM16.6238 11.8767C16.5428 11.8777 16.4623 11.8626 16.387 11.8323C16.3118 11.8021 16.2432 11.7571 16.1851 11.7002C16.1271 11.6432 16.0808 11.5753 16.0489 11.5003C16.0169 11.4254 16 11.3448 15.999 11.2632C15.999 10.9238 16.2789 10.6498 16.6238 10.6498C16.7049 10.6487 16.7854 10.6638 16.8606 10.6941C16.9359 10.7244 17.0045 10.7693 17.0626 10.8262C17.1206 10.8832 17.1669 10.9511 17.1988 11.0261C17.2308 11.1011 17.2477 11.1816 17.2487 11.2632C17.2477 11.3448 17.2308 11.4254 17.1988 11.5003C17.1669 11.5753 17.1206 11.6432 17.0626 11.7002C17.0045 11.7571 16.9359 11.8021 16.8606 11.8323C16.7854 11.8626 16.7049 11.8777 16.6238 11.8767ZM8.12496 9.17503C8.0439 9.17605 7.96344 9.16098 7.88817 9.1307C7.81289 9.10042 7.74428 9.05552 7.68626 8.99855C7.62823 8.94159 7.58192 8.87368 7.54998 8.7987C7.51803 8.72372 7.50108 8.64315 7.50008 8.56158C7.50008 8.22219 7.78007 7.94748 8.12496 7.94748C8.46986 7.94748 8.75048 8.22283 8.75048 8.56158C8.74948 8.6432 8.73251 8.72383 8.70053 8.79885C8.66854 8.87387 8.62218 8.94181 8.56408 8.99878C8.50599 9.05575 8.4373 9.10065 8.36196 9.13089C8.28661 9.16113 8.20608 9.17613 8.12496 9.17503ZM10.8739 7.45569C10.7929 7.45671 10.7124 7.44165 10.6371 7.41137C10.5619 7.38109 10.4932 7.33618 10.4352 7.27921C10.3772 7.22225 10.3309 7.15434 10.2989 7.07936C10.267 7.00439 10.25 6.92381 10.249 6.84224C10.249 6.50286 10.529 6.22815 10.8746 6.22815C11.2201 6.22815 11.4994 6.5035 11.4994 6.84224C11.4984 6.92381 11.4815 7.00439 11.4495 7.07936C11.4176 7.15434 11.3713 7.22225 11.3133 7.27921C11.2552 7.33618 11.1866 7.38109 11.1114 7.41137C11.0361 7.44165 10.9556 7.45671 10.8746 7.45569H10.8739ZM9.25 7.70159C8.97383 7.70159 8.75048 7.48195 8.75048 7.21044C8.75048 6.93893 8.97383 6.71929 9.25 6.71929C9.52617 6.71929 9.74953 6.93957 9.74953 7.21044C9.74953 7.48131 9.52617 7.70159 9.25 7.70159ZM6.49977 9.66618C6.43492 9.66694 6.37056 9.65484 6.31036 9.63057C6.25016 9.6063 6.1953 9.57033 6.14891 9.52472C6.10253 9.47911 6.06552 9.42476 6.04001 9.36476C6.01451 9.30476 6.00099 9.24029 6.00024 9.17503C6.00024 8.90416 6.2236 8.68388 6.49977 8.68388C6.77594 8.68388 6.99929 8.90416 6.99929 9.17503C6.99854 9.24029 6.98503 9.30476 6.95952 9.36476C6.93401 9.42476 6.89701 9.47911 6.85062 9.52472C6.80423 9.57033 6.74937 9.6063 6.68917 9.63057C6.62898 9.65484 6.56461 9.66694 6.49977 9.66618ZM16.9993 13.5966C16.9344 13.5974 16.8701 13.5853 16.8099 13.561C16.7497 13.5368 16.6948 13.5008 16.6484 13.4552C16.602 13.4096 16.565 13.3552 16.5395 13.2952C16.514 13.2352 16.5005 13.1707 16.4998 13.1055C16.4998 12.834 16.7231 12.6143 16.9993 12.6143C17.2754 12.6143 17.4988 12.834 17.4988 13.1055C17.4981 13.1707 17.4845 13.2352 17.459 13.2952C17.4335 13.3552 17.3965 13.4096 17.3501 13.4552C17.3037 13.5008 17.2489 13.5368 17.1887 13.561C17.1285 13.5853 17.0641 13.5974 16.9993 13.5966ZM11.6248 13.8425C11.1412 13.8425 10.7498 13.4577 10.7498 12.9825C10.7498 12.5074 11.1418 12.1232 11.6248 12.1232C12.1084 12.1232 12.4998 12.5074 12.4998 12.9825C12.4998 13.4577 12.1084 13.8425 11.6248 13.8425ZM9.9996 14.3337C9.93476 14.3344 9.8704 14.3223 9.8102 14.2981C9.75 14.2738 9.69514 14.2378 9.64875 14.1922C9.60237 14.1466 9.56536 14.0923 9.53985 14.0323C9.51434 13.9723 9.50083 13.9078 9.50008 13.8425C9.50008 13.571 9.72344 13.3514 9.9996 13.3514C10.2758 13.3514 10.4991 13.571 10.4991 13.8425C10.4984 13.9078 10.4849 13.9723 10.4594 14.0323C10.4338 14.0923 10.3968 14.1466 10.3505 14.1922C10.3041 14.2378 10.2492 14.2738 10.189 14.2981C10.1288 14.3223 10.0645 14.3344 9.9996 14.3337ZM10.249 16.2983C9.83543 16.2983 9.50008 15.9679 9.50008 15.5606C9.50008 15.154 9.83543 14.8242 10.249 14.8242C10.6627 14.8242 10.9986 15.154 10.9986 15.5606C10.9986 15.9679 10.6633 16.2983 10.249 16.2983ZM10.249 17.7711C10.1182 17.7726 9.99208 17.7218 9.89842 17.6298C9.80475 17.5379 9.7512 17.4122 9.74953 17.2806C9.74953 17.0091 9.97351 16.7894 10.249 16.7894C10.5246 16.7894 10.7492 17.0091 10.7492 17.2806C10.7485 17.3459 10.7349 17.4104 10.7094 17.4704C10.6838 17.5305 10.6468 17.5849 10.6003 17.6305C10.5539 17.6761 10.4989 17.7121 10.4387 17.7363C10.3784 17.7605 10.3139 17.7726 10.249 17.7717V17.7711Z" fill="white"/>
</g>
<defs>
<clipPath id="clip0_1265_21567">
<rect width="24" height="24" fill="white"/>
</clipPath>
</defs>
</svg>