<svg viewBox="0 0 24 24" fill="none" xmlns="http://www.w3.org/2000/svg">
<path fill-rule="evenodd" clip-rule="evenodd" d="M6.51779 4.5533C5.81131 4.5533 5.2386 5.12601 5.2386 5.83249L5.2386 18.1675C5.2386 18.874 5.81131 19.4467 6.51779 19.4467H14C14.7065 19.4467 15.2792 18.874 15.2792 18.1675V15.7411C15.2792 15.3122 15.6269 14.9645 16.0559 14.9645C16.4848 14.9645 16.8325 15.3122 16.8325 15.7411V18.1675C16.8325 19.7319 15.5644 21 14 21H6.51779C4.95345 21 3.6853 19.7319 3.6853 18.1675L3.6853 5.83249C3.6853 4.26815 4.95345 3 6.51779 3L14 3C15.5644 3 16.8325 4.26815 16.8325 5.83249V8.25888C16.8325 8.68782 16.4848 9.03553 16.0559 9.03553C15.6269 9.03553 15.2792 8.68782 15.2792 8.25888V5.83249C15.2792 5.12601 14.7065 4.5533 14 4.5533L6.51779 4.5533ZM18.2478 8.70971C18.5511 8.40641 19.0429 8.40641 19.3462 8.70971L22.0873 11.4508C22.3906 11.7541 22.3906 12.2459 22.0873 12.5492L19.3462 15.2903C19.0429 15.5936 18.5511 15.5936 18.2478 15.2903C17.9445 14.987 17.9445 14.4952 18.2478 14.1919L19.6631 12.7767L9.88835 12.7766C9.45942 12.7766 9.1117 12.4289 9.1117 12C9.1117 11.5711 9.45942 11.2234 9.88835 11.2234L19.6631 11.2234L18.2478 9.80806C17.9445 9.50476 17.9445 9.01301 18.2478 8.70971Z" fill="currentColor"/>
</svg>