<svg viewBox="0 0 24 24" fill="none" xmlns="http://www.w3.org/2000/svg">
<path fill-rule="evenodd" clip-rule="evenodd" d="M2 13C2 7.5 6.5 3 12 3C17.5 3 22 7.5 22 13C22 13.4167 22 13.8333 21.9167 14.0833C21.8333 14.5833 21.4167 14.9167 21 14.8333C20.5 14.75 20.1667 14.3333 20.25 13.9167C20.3333 13.5833 20.3333 13.25 20.3333 12.9167C20.3333 12.25 20.25 11.5833 20.0833 11H19.75H19.5H15.9167C16.0833 11.8333 16.0833 12.6667 16.0833 13.5V13.5C16.0833 14 15.6667 14.3333 15.25 14.3333C14.75 14.3333 14.4167 14 14.4167 13.5C14.4167 12.6667 14.3333 11.8333 14.25 11.0833H11.8333H9.66667C9.5 12.1667 9.41667 13.25 9.58333 14.5833C9.58333 14.6667 9.60417 14.75 9.625 14.8333C9.64583 14.9167 9.66667 15 9.66667 15.0833H12.25C12.75 15.0833 13.0833 15.4167 13.0833 15.9167C13.0833 16.4167 12.75 16.75 12.25 16.75H10C10.5833 18.75 11.5833 20.3333 12.4167 21.4167C12.8333 21.4167 13.25 21.75 13.25 22.1667C13.25 22.5833 12.9167 23 12.4167 23H12C6.5 23 2 18.5 2 13ZM8.33333 9.41667C8.75 7.5 9.58333 6 10.25 4.83333C7.75 5.41667 5.58333 7.08333 4.5 9.41667H8.33333ZM4.58333 16.6667C5.66667 18.9167 7.75 20.5833 10.25 21.1667C9.5 20 8.75 18.5 8.33333 16.6667H4.58333ZM8 15C7.91667 14.9167 7.91667 14.75 7.91667 14.6667C7.75 13.4167 7.83333 12.1667 8 11.0833H4.16667H3.91667C3.75 11.6667 3.66667 12.3333 3.66667 13C3.66667 13.6667 3.75 14.4167 3.91667 15H8ZM10.0833 9.41667H11.8333H13.9167C13.4167 7.66667 12.6667 6.33333 12 5.33333C11.3333 6.33333 10.5833 7.66667 10.0833 9.41667ZM15.5833 9.41667H19.5C18.4167 7.08333 16.1667 5.33333 13.5833 4.83333C14.3333 5.91667 15.0833 7.5 15.5833 9.41667ZM18.1785 18H21.1668C21.6267 18 22.0001 17.6275 22.0001 17.1666C22.0001 16.7058 21.6267 16.3333 21.1668 16.3333H16.1669C15.7069 16.3333 15.3335 16.7058 15.3335 17.1666V22.1665C15.3335 22.6274 15.7069 22.9999 16.1669 22.9999C16.6268 22.9999 17.0002 22.6274 17.0002 22.1665V19.1783L20.5776 22.7557C20.7401 22.9182 20.9534 22.9999 21.1668 22.9999C21.3801 22.9999 21.5934 22.9182 21.7559 22.7557C22.0817 22.4299 22.0817 21.9032 21.7559 21.5774L18.1785 18Z" fill="currentColor"/>
</svg>