<svg width="24" height="24" viewBox="0 0 24 24" fill="none" xmlns="http://www.w3.org/2000/svg">
<path fill-rule="evenodd" clip-rule="evenodd" d="M2 12C2 6.5 6.5 2 12 2C17.5 2 22 6.5 22 12C22 12.4167 22 12.8333 21.9167 13.0833C21.8333 13.5833 21.4167 13.9167 21 13.8333C20.5 13.75 20.1667 13.3333 20.25 12.9167C20.3333 12.5833 20.3333 12.25 20.3333 11.9167C20.3333 11.25 20.25 10.5833 20.0833 10H19.75H19.5H15.9167C16.0833 10.8333 16.0833 11.6667 16.0833 12.5V12.5C16.0833 13 15.6667 13.3333 15.25 13.3333C14.75 13.3333 14.4167 13 14.4167 12.5C14.4167 11.6667 14.3333 10.8333 14.25 10.0833H11.8333H9.66667C9.5 11.1667 9.41667 12.25 9.58333 13.5833C9.58333 13.6667 9.60417 13.75 9.625 13.8333C9.64583 13.9167 9.66667 14 9.66667 14.0833H12.25C12.75 14.0833 13.0833 14.4167 13.0833 14.9167C13.0833 15.4167 12.75 15.75 12.25 15.75H10C10.5833 17.75 11.5833 19.3333 12.4167 20.4167C12.8333 20.4167 13.25 20.75 13.25 21.1667C13.25 21.5833 12.9167 22 12.4167 22H12C6.5 22 2 17.5 2 12ZM8.33333 8.41667C8.75 6.5 9.58333 5 10.25 3.83333C7.75 4.41667 5.58333 6.08333 4.5 8.41667H8.33333ZM4.58333 15.6667C5.66667 17.9167 7.75 19.5833 10.25 20.1667C9.5 19 8.75 17.5 8.33333 15.6667H4.58333ZM8 14C7.91667 13.9167 7.91667 13.75 7.91667 13.6667C7.75 12.4167 7.83333 11.1667 8 10.0833H4.16667H3.91667C3.75 10.6667 3.66667 11.3333 3.66667 12C3.66667 12.6667 3.75 13.4167 3.91667 14H8ZM10.0833 8.41667H11.8333H13.9167C13.4167 6.66667 12.6667 5.33333 12 4.33333C11.3333 5.33333 10.5833 6.66667 10.0833 8.41667ZM15.5833 8.41667H19.5C18.4167 6.08333 16.1667 4.33333 13.5833 3.83333C14.3333 4.91667 15.0833 6.5 15.5833 8.41667ZM15.3333 21.1673C15.3333 21.6275 15.7058 22 16.1667 22H21.1667C21.6275 22 22 21.6275 22 21.1673V17.8339C22 17.3729 21.6275 17.0004 21.1667 17.0004H21.1658C21.1658 16.9996 21.1667 16.9987 21.1667 16.9979V16.1677C21.1667 14.7888 20.045 13.6671 18.6667 13.6671C17.2883 13.6671 16.1667 14.7888 16.1667 16.1677V17.0004C15.7058 17.0004 15.3333 17.3729 15.3333 17.8339V21.1673ZM20.3334 18.6676V20.3639H17.0001V18.6676H20.3334ZM19.5001 16.1678V16.998C19.5001 16.9988 19.5009 16.9996 19.5009 17.0005H17.8334V16.1678C17.8334 15.7076 18.2067 15.3342 18.6667 15.3342C19.1267 15.3342 19.5001 15.7076 19.5001 16.1678Z" fill="#6B7084"/>
</svg>
