<svg viewBox="0 0 24 24" fill="none" xmlns="http://www.w3.org/2000/svg">
<path fill-rule="evenodd" clip-rule="evenodd" d="M2 12C2 6.5 6.5 2 12 2C17.5 2 22 6.5 22 12C22 12.4167 22 12.8333 21.9167 13.0833C21.8333 13.5833 21.4167 13.9167 21 13.8333C20.5 13.75 20.1667 13.3333 20.25 12.9167C20.3333 12.5833 20.3333 12.25 20.3333 11.9167C20.3333 11.25 20.25 10.5833 20.0833 10H19.75H19.5H15.9167C16.0833 10.8333 16.0833 11.6667 16.0833 12.5V12.5C16.0833 13 15.6667 13.3333 15.25 13.3333C14.75 13.3333 14.4167 13 14.4167 12.5C14.4167 11.6667 14.3333 10.8333 14.25 10.0833H11.8333H9.66667C9.5 11.1667 9.41667 12.25 9.58333 13.5833C9.58333 13.6667 9.60417 13.75 9.625 13.8333C9.64583 13.9167 9.66667 14 9.66667 14.0833H12.25C12.75 14.0833 13.0833 14.4167 13.0833 14.9167C13.0833 15.4167 12.75 15.75 12.25 15.75H10C10.5833 17.75 11.5833 19.3333 12.4167 20.4167C12.8333 20.4167 13.25 20.75 13.25 21.1667C13.25 21.5833 12.9167 22 12.4167 22H12C6.5 22 2 17.5 2 12ZM8.33333 8.41667C8.75 6.5 9.58333 5 10.25 3.83333C7.75 4.41667 5.58333 6.08333 4.5 8.41667H8.33333ZM4.58333 15.6667C5.66667 17.9167 7.75 19.5833 10.25 20.1667C9.5 19 8.75 17.5 8.33333 15.6667H4.58333ZM8 14C7.91667 13.9167 7.91667 13.75 7.91667 13.6667C7.75 12.4167 7.83333 11.1667 8 10.0833H4.16667H3.91667C3.75 10.6667 3.66667 11.3333 3.66667 12C3.66667 12.6667 3.75 13.4167 3.91667 14H8ZM10.0833 8.41667H11.8333H13.9167C13.4167 6.66667 12.6667 5.33333 12 4.33333C11.3333 5.33333 10.5833 6.66667 10.0833 8.41667ZM15.5833 8.41667H19.5C18.4167 6.08333 16.1667 4.33333 13.5833 3.83333C14.3333 4.91667 15.0833 6.5 15.5833 8.41667ZM22 18.25C22 16.1829 20.3175 14.5007 18.25 14.5007C16.1825 14.5007 14.5 16.1829 14.5 18.25C14.5 20.318 16.1825 22.0001 18.25 22.0001C20.3175 22.0001 22 20.318 22 18.25ZM17.4934 16.3148C17.7284 16.2229 17.9825 16.1678 18.25 16.1678C19.3984 16.1678 20.3334 17.1016 20.3334 18.25C20.3334 18.5181 20.2784 18.772 20.1859 19.0075L17.4934 16.3148ZM19.0075 20.186C18.7725 20.2787 18.5175 20.3339 18.25 20.3339C17.1017 20.3339 16.1667 19.3993 16.1667 18.25C16.1667 17.9827 16.2217 17.728 16.3142 17.4925L19.0075 20.186Z" fill="currentColor"/>
</svg>