<svg viewBox="0 0 24 24" fill="none" xmlns="http://www.w3.org/2000/svg">
<path d="M22.6919 0.8603C21.0005 -0.762885 17.4367 -0.0105364 13.5112 2.45576C13.1033 2.41306 12.6935 2.3913 12.2834 2.39058C6.35971 2.39058 1.55749 6.73848 1.55749 12.1018C1.55749 12.153 1.56079 12.203 1.56178 12.2539C3.97857 8.41712 7.22081 5.75989 10.1683 4.91067C9.1861 5.73883 8.24859 6.61861 7.35976 7.54628C5.03555 9.96802 3.20939 12.5173 2.00206 14.8698C0.1424 18.4932 -0.244584 21.6483 1.30962 23.14C2.97654 24.7399 6.46335 24.0311 10.3218 21.648C10.9581 21.7544 11.6129 21.8127 12.2833 21.8127C12.7567 21.8126 13.2298 21.7842 13.6999 21.7277C17.928 21.2222 21.3785 18.4869 22.5645 14.8689H15.442C15.0027 16.1787 13.7678 17.1238 12.3102 17.1238C10.4847 17.1238 9.00489 15.6439 9.00489 13.8184V13.4854H22.8987C22.97 13.0334 23.0089 12.5716 23.0089 12.1018C23.0089 7.85818 20.0017 4.25288 15.8125 2.93136C18.7532 1.28062 21.2606 0.82614 22.4696 1.9861C23.2079 2.69488 23.3635 3.91359 23.0246 5.44007H23.4159C23.8829 3.44327 23.6837 1.81233 22.6919 0.8603ZM9.58991 21.5038C6.55196 23.2591 3.94721 23.7669 2.70755 22.5772C1.62977 21.5429 1.79314 19.423 2.92439 16.8446C4.33585 19.1231 6.73085 20.8344 9.58991 21.5038ZM9.00885 10.4106C9.05011 8.62109 10.5107 7.18207 12.3102 7.18207C14.1098 7.18207 15.5704 8.62109 15.6115 10.4106H9.00885Z" fill="#0069E3"/>
</svg>