<svg width="24" height="24" viewBox="0 0 24 24" fill="none" xmlns="http://www.w3.org/2000/svg">
<path fill-rule="evenodd" clip-rule="evenodd" d="M2 11.6C2 6.32001 6.32001 2 11.6 2C16.56 2 20.8001 5.92001 21.2001 10.72C21.2801 11.2 20.9601 11.6 20.4801 11.6C20.0001 11.68 19.6001 11.28 19.6001 10.88C19.6001 10.48 19.5201 10.08 19.4401 9.68003H19.1201H18.8801H15.44C15.44 9.88003 15.46 10.06 15.48 10.24C15.5 10.42 15.52 10.6 15.52 10.8C15.6 11.28 15.28 11.68 14.8 11.68H14.72C14.32 11.68 13.92 11.36 13.92 10.96C13.88 10.76 13.86 10.56 13.84 10.36C13.82 10.16 13.8 9.96003 13.76 9.76003H11.44H9.36002C9.20002 10.8 9.12002 11.84 9.28002 13.12C9.28002 13.2 9.30002 13.28 9.32002 13.36C9.34002 13.44 9.36002 13.52 9.36002 13.6H10.96C11.44 13.6 11.76 13.92 11.76 14.4C11.76 14.88 11.44 15.2 10.96 15.2H9.68003C10.32 17.28 11.36 18.8801 12.24 19.9201C12.32 19.9201 12.32 20.0001 12.32 20.0001C12.32 20.0401 12.34 20.0601 12.36 20.0801C12.38 20.1001 12.4 20.1201 12.4 20.1601V20.3201V20.4001V20.5601C12.354 20.6061 12.3345 20.6256 12.3262 20.6491C12.32 20.6665 12.32 20.6861 12.32 20.7201L12.24 20.8001C12.24 20.8801 12.24 20.9601 12.16 20.9601C12.08 21.0401 12.08 21.0401 12 21.0401C12 21.1201 11.92 21.1201 11.92 21.1201C11.76 21.2001 11.68 21.2001 11.6 21.2001C6.32001 21.2001 2 16.88 2 11.6ZM8.08002 8.16002C8.48002 6.32001 9.28002 4.88001 9.92003 3.76001C7.52002 4.32001 5.44001 5.92001 4.40001 8.16002H8.08002ZM4.48001 15.12C5.52001 17.28 7.52002 18.8801 9.92003 19.4401C9.20002 18.3201 8.48002 16.88 8.08002 15.12H4.48001ZM7.76002 13.52C7.68002 13.44 7.68002 13.28 7.68002 13.2C7.52002 12 7.60002 10.8 7.76002 9.76003H4.08001H3.84001C3.68001 10.32 3.60001 10.96 3.60001 11.6C3.60001 12.24 3.68001 12.88 3.84001 13.52H7.76002ZM9.76003 8.16002H11.44H13.44C12.96 6.48001 12.24 5.12001 11.6 4.24001C10.96 5.20001 10.24 6.56001 9.76003 8.16002ZM15.04 8.16002H18.8001C17.7601 5.92001 15.6 4.24001 13.12 3.76001C13.84 4.80001 14.56 6.32001 15.04 8.16002ZM12.3999 17.1999C12.3999 19.8464 14.5535 21.9999 17.2007 21.9999C19.8471 21.9999 22 19.8464 22 17.1999C22 14.5534 19.8471 12.3999 17.2007 12.3999C14.5535 12.3999 12.3999 14.5534 12.3999 17.1999ZM13.9999 17.1998C13.9999 15.4344 15.4359 14.0001 17.2007 14.0001C18.9647 14.0001 20.3999 15.4344 20.3999 17.1998C20.3999 18.9645 18.9647 20.3996 17.2007 20.3996C15.4359 20.3996 13.9999 18.9645 13.9999 17.1998ZM16.3999 16.3998V17.1999V18.0001H19.5999V16.3998H17.9999V14.7995H16.3999V16.3998Z" fill="#6B7084"/>
</svg>
