<svg viewBox="0 0 24 24" fill="none" xmlns="http://www.w3.org/2000/svg">
<path fill-rule="evenodd" clip-rule="evenodd" d="M2 11.6C2 6.32001 6.32001 2 11.6 2C16.88 2 21.2 6.32001 21.2 11.6C21.2 12 21.2 12.4 21.12 12.64C21.04 13.12 20.64 13.44 20.24 13.36C19.76 13.28 19.44 12.88 19.52 12.48C19.6 12.16 19.6 11.84 19.6 11.52C19.6 10.88 19.52 10.24 19.36 9.68002H19.04H18.8H15.36C15.52 10.48 15.52 11.28 15.52 12.08V12.08C15.52 12.56 15.12 12.88 14.72 12.88C14.24 12.88 13.92 12.56 13.92 12.08C13.92 11.28 13.84 10.48 13.76 9.76002H11.44H9.36001C9.20001 10.8 9.12001 11.84 9.28001 13.12C9.28001 13.2 9.30001 13.28 9.32001 13.36C9.34001 13.44 9.36001 13.52 9.36001 13.6H11.84C12.32 13.6 12.64 13.92 12.64 14.4C12.64 14.88 12.32 15.2 11.84 15.2H9.68002C10.24 17.12 11.2 18.64 12 19.68C12.4 19.68 12.8 20 12.8 20.4C12.8 20.8 12.48 21.2 12 21.2H11.6C6.32001 21.2 2 16.88 2 11.6ZM8.08001 8.16001C8.48001 6.32001 9.28001 4.88001 9.92002 3.76C7.52001 4.32 5.44001 5.92001 4.4 8.16001H8.08001ZM4.48 15.12C5.52001 17.28 7.52001 18.88 9.92002 19.44C9.20001 18.32 8.48001 16.88 8.08001 15.12H4.48ZM7.76001 13.52C7.68001 13.44 7.68001 13.28 7.68001 13.2C7.52001 12 7.60001 10.8 7.76001 9.76002H4.08H3.84C3.68 10.32 3.6 10.96 3.6 11.6C3.6 12.24 3.68 12.96 3.84 13.52H7.76001ZM9.76002 8.16001H11.44H13.44C12.96 6.48001 12.24 5.20001 11.6 4.24C10.96 5.20001 10.24 6.48001 9.76002 8.16001ZM15.04 8.16001H18.8C17.76 5.92001 15.6 4.24 13.12 3.76C13.84 4.80001 14.56 6.32001 15.04 8.16001ZM21.2005 22C21.4052 22 21.61 21.9214 21.7665 21.7659C22.0781 21.4532 22.0781 20.9473 21.7657 20.6346L20.7469 19.6156C21.0279 19.1394 21.2005 18.5918 21.2005 18.0002C21.2005 16.2355 19.7649 14.7996 18.0002 14.7996C16.2354 14.7996 14.8006 16.2355 14.8006 18.0002C14.8006 19.7648 16.2354 21.1999 18.0002 21.1999C18.5919 21.1999 19.1395 21.0275 19.6156 20.7469L20.6345 21.7659C20.791 21.9214 20.9958 22 21.2005 22ZM16.4001 18.0002C16.4001 17.1183 17.1179 16.3999 18.0003 16.3999C18.8827 16.3999 19.6004 17.1183 19.6004 18.0002C19.6004 18.4403 19.4214 18.8404 19.1316 19.1298C19.1316 19.1306 19.1308 19.1306 19.1308 19.1314C19.1303 19.1314 19.1301 19.1314 19.13 19.1315C19.1299 19.1317 19.1299 19.1319 19.1299 19.1322C18.8401 19.4208 18.4411 19.6004 18.0003 19.6004C17.1179 19.6004 16.4001 18.8821 16.4001 18.0002Z" fill="currentColor"/>
</svg>