<svg width="24" height="24" viewBox="0 0 24 24" fill="none" xmlns="http://www.w3.org/2000/svg">
<path fill-rule="evenodd" clip-rule="evenodd" d="M2 11.6C2 6.31998 6.31998 2 11.6 2C16.8799 2 21.1999 6.31998 21.1999 11.6C21.1999 12 21.1999 12.4 21.1199 12.64C21.0399 13.1199 20.6399 13.4399 20.2399 13.3599C19.7599 13.2799 19.4399 12.88 19.5199 12.48C19.5999 12.16 19.5999 11.84 19.5999 11.52C19.5999 10.88 19.5199 10.24 19.3599 9.67997H19.0399H18.7999H15.3599C15.5199 10.48 15.5199 11.2799 15.5199 12.0799V12.08C15.5199 12.56 15.1199 12.88 14.7199 12.88C14.2399 12.88 13.9199 12.56 13.9199 12.08C13.9199 11.28 13.8399 10.48 13.7599 9.75996H11.44H9.35997C9.19997 10.8 9.11997 11.84 9.27997 13.1199C9.27997 13.1999 9.29997 13.2799 9.31997 13.3599C9.33997 13.4399 9.35997 13.5199 9.35997 13.5999H11.84C12.32 13.5999 12.64 13.9199 12.64 14.3999C12.64 14.8799 12.32 15.1999 11.84 15.1999H9.67997C10.24 17.1199 11.2 18.6399 12 19.6799C12.4 19.6799 12.8 19.9999 12.8 20.3999C12.8 20.7999 12.48 21.1999 12 21.1999H11.6C6.31998 21.1999 2 16.8799 2 11.6ZM8.07997 8.15997C8.47997 6.31998 9.27997 4.87999 9.91996 3.75999C7.51997 4.31999 5.43998 5.91998 4.39999 8.15997H8.07997ZM4.47999 15.1199C5.51998 17.2799 7.51997 18.8799 9.91996 19.4399C9.19997 18.3199 8.47997 16.8799 8.07997 15.1199H4.47999ZM7.75997 13.5199C7.67997 13.4399 7.67997 13.2799 7.67997 13.1999C7.51997 12 7.59997 10.8 7.75997 9.75996H4.07999H3.83999C3.67999 10.32 3.59999 10.96 3.59999 11.6C3.59999 12.24 3.67999 12.96 3.83999 13.5199H7.75997ZM9.75996 8.15997H11.44H13.4399C12.96 6.47998 12.24 5.19999 11.6 4.23999C10.96 5.19999 10.24 6.47998 9.75996 8.15997ZM15.0399 8.15997H18.7999C17.7599 5.91998 15.5999 4.23999 13.1199 3.75999C13.8399 4.79999 14.5599 6.31998 15.0399 8.15997ZM21.9999 18.7995V17.2001H21.0863C21.0111 16.9098 20.8959 16.638 20.7471 16.3855L21.3655 15.7658L20.2343 14.6345L19.6151 15.2543C19.3631 15.1051 19.0911 14.9897 18.8007 14.9143V13.9996H17.2007V14.9135C16.9103 14.9897 16.6375 15.1043 16.3847 15.2543L15.7367 14.6057L14.6055 15.7377L15.2535 16.3855C15.1047 16.6372 14.9895 16.9098 14.9143 17.2001H13.9999V18.7995H14.9143C14.9895 19.0897 15.1047 19.3623 15.2535 19.6149L14.5783 20.2899L15.7095 21.422L16.3847 20.7461C16.6375 20.8952 16.9095 21.0107 17.2007 21.086L17.1999 21.9992L18.7999 22L18.8007 21.086C19.0903 21.0107 19.3623 20.8952 19.6143 20.7469L20.2631 21.3939L21.3935 20.2611L20.7463 19.6157C20.8959 19.3631 21.0111 19.0905 21.0863 18.7995H21.9999ZM16.4007 17.9994C16.4007 17.1175 17.1183 16.4008 17.9999 16.4008C18.8822 16.4008 19.5998 17.1175 19.5998 17.9994C19.5998 18.8813 18.8822 19.5997 17.9999 19.5997C17.1183 19.5997 16.4007 18.8813 16.4007 17.9994Z" fill="#6B7084"/>
</svg>
