<svg viewBox="0 0 24 24" fill="none" xmlns="http://www.w3.org/2000/svg">
<path fill-rule="evenodd" clip-rule="evenodd" d="M2 11.6C2 6.32002 6.32002 2 11.6 2C16.8801 2 21.2001 6.32002 21.2001 11.6C21.2001 12 21.2001 12.4 21.1201 12.64C21.0401 13.12 20.6401 13.44 20.2401 13.36C19.7601 13.28 19.4401 12.88 19.5201 12.48C19.6001 12.16 19.6001 11.84 19.6001 11.52C19.6001 10.88 19.5201 10.24 19.3601 9.68003H19.0401H18.8001H15.3601C15.5201 10.48 15.5201 11.28 15.5201 12.08V12.08C15.5201 12.56 15.12 12.88 14.72 12.88C14.24 12.88 13.92 12.56 13.92 12.08C13.92 11.28 13.84 10.48 13.76 9.76003H11.44H9.36003C9.20003 10.8 9.12003 11.84 9.28003 13.12C9.28003 13.2 9.30003 13.28 9.32003 13.36C9.34003 13.44 9.36003 13.52 9.36003 13.6H11.84C12.32 13.6 12.64 13.92 12.64 14.4C12.64 14.88 12.32 15.2001 11.84 15.2001H9.68003C10.24 17.1201 11.2 18.6401 12 19.6801C12.4 19.6801 12.8 20.0001 12.8 20.4001C12.8 20.8001 12.48 21.2001 12 21.2001H11.6C6.32002 21.2001 2 16.8801 2 11.6ZM8.08002 8.16002C8.48002 6.32002 9.28003 4.88001 9.92003 3.76001C7.52002 4.32001 5.44001 5.92001 4.40001 8.16002H8.08002ZM4.48001 15.12C5.52001 17.2801 7.52002 18.8801 9.92003 19.4401C9.20003 18.3201 8.48002 16.8801 8.08002 15.12H4.48001ZM7.76002 13.52C7.68002 13.44 7.68002 13.28 7.68002 13.2C7.52002 12 7.60002 10.8 7.76002 9.76003H4.08001H3.84001C3.68001 10.32 3.60001 10.96 3.60001 11.6C3.60001 12.24 3.68001 12.96 3.84001 13.52H7.76002ZM9.76003 8.16002H11.44H13.44C12.96 6.48002 12.24 5.20001 11.6 4.24001C10.96 5.20001 10.24 6.48002 9.76003 8.16002ZM15.04 8.16002H18.8001C17.7601 5.92001 15.6001 4.24001 13.12 3.76001C13.84 4.80001 14.56 6.32002 15.04 8.16002ZM21.1997 18.4003C21.4052 18.4003 21.6091 18.3217 21.7656 18.1653C22.0779 17.8534 22.0779 17.3475 21.7656 17.0348L20.5655 15.8345C20.2532 15.5218 19.7466 15.5218 19.4343 15.8345L18.2342 17.0348C17.9219 17.3475 17.9219 17.8534 18.2342 18.1653C18.4862 18.4171 18.8595 18.4564 19.1598 18.3024C18.9751 19.0032 18.1748 19.6006 17.3342 19.6006C17.1159 19.6006 16.9064 19.5589 16.7121 19.4763C16.3059 19.3047 15.8354 19.4939 15.6636 19.9004C15.491 20.307 15.6813 20.7768 16.0883 20.9492C16.4809 21.116 16.8999 21.2002 17.3342 21.2002C19.0867 21.2002 20.6177 19.8499 20.7702 18.2559C20.9026 18.3425 21.048 18.4003 21.1997 18.4003ZM13.6302 16.9442C13.3195 16.7421 12.9069 16.7622 12.6347 17.0348C12.3217 17.3475 12.3217 17.8534 12.6347 18.1653L13.8341 19.3656C13.9907 19.522 14.1954 19.6006 14.4001 19.6006C14.6048 19.6006 14.8095 19.522 14.9661 19.3656L16.1654 18.1653C16.4785 17.8534 16.4785 17.3475 16.1654 17.0348C15.9174 16.7862 15.5513 16.7437 15.2526 16.8897C15.4991 16.0157 16.7234 15.3157 17.6891 15.727C18.0969 15.8954 18.5658 15.707 18.7376 15.3005C18.9094 14.8932 18.7183 14.4233 18.3113 14.2517C17.9147 14.0849 17.4948 13.9999 17.0645 13.9999C15.3129 13.9999 13.7835 15.3502 13.6302 16.9442Z" fill="currentColor"/>
</svg>