<svg viewBox="0 0 24 24" fill="none" xmlns="http://www.w3.org/2000/svg">
<g clip-path="url(#clip0_1265_21563)">
<path d="M12 24C18.6274 24 24 18.6274 24 12C24 5.37258 18.6274 0 12 0C5.37258 0 0 5.37258 0 12C0 18.6274 5.37258 24 12 24Z" fill="#57BEEA"/>
<path d="M6.12559 14.0148C5.88339 14.043 5.63797 14.0196 5.40547 13.9461C5.17298 13.8726 4.95871 13.7507 4.77677 13.5883C4.59483 13.426 4.44936 13.2269 4.34993 13.0043C4.25051 12.7816 4.19939 12.5404 4.19996 12.2966C4.19892 11.8415 4.37768 11.4044 4.69732 11.0805C5.01697 10.7566 5.45162 10.572 5.90668 10.567C6.51759 7.76061 9.00577 5.65998 11.9814 5.65998C12.5369 5.65998 13.0759 5.73316 13.5882 5.86998C13.7449 5.63323 13.9578 5.43898 14.2079 5.30461C14.4579 5.17025 14.7374 5.09994 15.0213 5.09998C15.4789 5.10116 15.9173 5.28403 16.2401 5.60838C16.5629 5.93273 16.7437 6.37201 16.7427 6.82961C16.7427 7.12807 16.6676 7.4087 16.5352 7.65307C17.6079 8.80997 18.2027 10.3301 18.1999 11.9078C18.2014 12.7341 18.0388 13.5525 17.7216 14.3156C17.4043 15.0786 16.9388 15.771 16.3519 16.3528C16.5594 16.6379 16.6816 16.9898 16.6816 17.3703C16.6821 17.597 16.6379 17.8215 16.5517 18.0311C16.4654 18.2407 16.3387 18.4312 16.1788 18.5918C16.0189 18.7524 15.8289 18.88 15.6197 18.9671C15.4105 19.0543 15.1862 19.0995 14.9596 19.1C14.613 19.0996 14.2747 18.9946 13.9887 18.7989C13.7027 18.6032 13.4824 18.3258 13.3566 18.0029C12.9055 18.1048 12.4445 18.156 11.982 18.1556C9.28322 18.1556 6.98595 16.4285 6.12559 14.0148ZM6.43741 13.948C7.26468 16.2185 9.43468 17.8393 11.9814 17.8393C12.4237 17.8393 12.8545 17.7903 13.2688 17.6981C13.2199 17.4483 13.2268 17.1908 13.2891 16.9441C13.3514 16.6973 13.4675 16.4674 13.6291 16.2707C13.7907 16.0741 13.9938 15.9157 14.2238 15.8068C14.4538 15.6978 14.7051 15.6411 14.9596 15.6407C15.4178 15.6407 15.8352 15.8208 16.1432 16.1142C16.6965 15.5624 17.1351 14.9068 17.4341 14.1849C17.733 13.463 17.8862 12.6891 17.8849 11.9078C17.8849 10.3742 17.3059 8.9767 16.3545 7.92416C16.0389 8.31234 15.559 8.55988 15.0213 8.55988C14.7946 8.55938 14.5702 8.51423 14.361 8.42699C14.1518 8.33976 13.9618 8.21216 13.8019 8.05148C13.642 7.8908 13.5153 7.70019 13.429 7.49054C13.3428 7.28089 13.2987 7.0563 13.2993 6.82961C13.2993 6.59161 13.3477 6.36443 13.4342 6.15761C12.9594 6.03717 12.4713 5.97645 11.9814 5.97688C9.17122 5.97688 6.81923 7.95025 6.22423 10.5937C6.62291 10.6661 6.98347 10.8763 7.24287 11.1876C7.50227 11.4989 7.64401 11.8914 7.64332 12.2966C7.64389 12.6644 7.52723 13.0228 7.31026 13.3197C7.0933 13.6167 6.78732 13.8368 6.43677 13.948H6.43741ZM11.9814 13.64C11.7545 13.6394 11.53 13.5941 11.3206 13.5068C11.1112 13.4194 10.921 13.2916 10.761 13.1308C10.601 12.9699 10.4742 12.7791 10.3879 12.5693C10.3017 12.3595 10.2575 12.1347 10.2581 11.9078C10.2581 10.9513 11.0294 10.1762 11.9814 10.1762C12.9334 10.1762 13.7053 10.9513 13.7053 11.9078C13.7059 12.1347 13.6618 12.3596 13.5754 12.5695C13.4891 12.7793 13.3623 12.9702 13.2022 13.131C13.0421 13.2919 12.8519 13.4196 12.6424 13.5069C12.433 13.5943 12.2083 13.6395 11.9814 13.64Z" fill="white"/>
</g>
<defs>
<clipPath id="clip0_1265_21563">
<rect width="24" height="24" fill="white"/>
</clipPath>
</defs>
</svg>