<svg width="24" height="24" viewBox="0 0 24 24" fill="none" xmlns="http://www.w3.org/2000/svg">
<g clip-path="url(#clip0_1265_21556)">
<path d="M12 24C18.6274 24 24 18.6274 24 12C24 5.37258 18.6274 0 12 0C5.37258 0 0 5.37258 0 12C0 18.6274 5.37258 24 12 24Z" fill="#0CAFA5"/>
<path d="M6.71659 8.40833C6.69361 8.39644 6.6748 8.40595 6.6748 8.42914V9.79767C6.67555 9.81014 6.67972 9.82229 6.68698 9.83313C6.69424 9.84397 6.70438 9.85321 6.71659 9.86009L8.7432 10.86C8.75541 10.8669 8.76555 10.8761 8.77281 10.887C8.78007 10.8978 8.78424 10.91 8.78498 10.9225V15.8746C8.78594 15.8872 8.79034 15.8994 8.79785 15.9102C8.80535 15.921 8.81573 15.9302 8.82816 15.937L10.2161 16.6207C10.2391 16.6326 10.2579 16.6231 10.2579 16.5999V10.1972C10.2573 10.1846 10.2532 10.1723 10.2459 10.1614C10.2386 10.1504 10.2284 10.1411 10.2161 10.1342L6.71659 8.40833ZM17.2842 8.40833C17.3072 8.39644 17.326 8.40595 17.326 8.42914V9.79767C17.3252 9.81014 17.3211 9.82229 17.3138 9.83313C17.3066 9.84397 17.2964 9.85321 17.2842 9.86009L15.2576 10.8588C15.2453 10.8658 15.2351 10.8751 15.2278 10.8861C15.2206 10.897 15.2164 10.9093 15.2158 10.9219V15.874C15.215 15.8866 15.2108 15.8989 15.2034 15.9099C15.196 15.9208 15.1857 15.9301 15.1733 15.937L13.7853 16.6207C13.7617 16.6326 13.7429 16.6231 13.7429 16.5999V10.1972C13.7436 10.1846 13.7477 10.1724 13.755 10.1614C13.7622 10.1505 13.7724 10.1411 13.7846 10.1342L17.2842 8.40833Z" fill="white"/>
<path d="M17.5578 5.78304C17.5578 5.76045 17.539 5.75093 17.516 5.76223L12.0421 8.4648C12.0291 8.47035 12.0148 8.47324 12.0003 8.47324C11.9858 8.47324 11.9715 8.47035 11.9585 8.4648L6.48462 5.76223C6.46094 5.75034 6.44214 5.76045 6.44214 5.78304V7.15156C6.44288 7.16404 6.44705 7.17618 6.45431 7.18703C6.46157 7.19787 6.47172 7.20711 6.48392 7.21399L11.2224 9.55273C11.2346 9.55964 11.2447 9.56889 11.252 9.57972C11.2592 9.59056 11.2634 9.60269 11.2642 9.61515V18.1075C11.2649 18.1201 11.2692 18.1324 11.2765 18.1434C11.2839 18.1544 11.2943 18.1637 11.3067 18.1705L11.9579 18.4916C11.9711 18.4971 11.9856 18.5 12.0003 18.5C12.0151 18.5 12.0296 18.4971 12.0428 18.4916L12.694 18.1705C12.7063 18.1636 12.7165 18.1543 12.7237 18.1433C12.731 18.1324 12.7351 18.1201 12.7358 18.1075V9.61574C12.7366 9.60323 12.7409 9.59107 12.7483 9.58023C12.7557 9.56939 12.7659 9.56017 12.7782 9.55332L17.516 7.21399C17.5283 7.20705 17.5385 7.19772 17.5458 7.18676C17.5531 7.17581 17.5572 7.16354 17.5578 7.15097V5.78363V5.78304ZM12.0254 9.24062C12.0198 9.24062 12.0177 9.23705 12.0205 9.23289C12.0233 9.22873 12.0275 9.22873 12.0303 9.23289C12.0331 9.23705 12.0303 9.24062 12.0254 9.24062Z" fill="white"/>
<path d="M11.3125 5.60414C11.2991 5.60667 11.287 5.61296 11.2783 5.62202C11.2696 5.63107 11.2647 5.64236 11.2644 5.65408V7.36206C11.2653 7.37458 11.2696 7.38674 11.277 7.39758C11.2843 7.40842 11.2946 7.41763 11.3069 7.42448L11.958 7.74551C11.9845 7.7574 12.0159 7.7574 12.043 7.74551L12.6942 7.42448C12.7063 7.41757 12.7165 7.40833 12.7237 7.39749C12.731 7.38665 12.7352 7.37452 12.736 7.36206V5.65348C12.7358 5.64182 12.7311 5.63054 12.7225 5.62148C12.7139 5.61241 12.7019 5.60609 12.6886 5.60355L12.0479 5.50308C12.0163 5.49897 11.9841 5.49897 11.9525 5.50308L11.3125 5.60414Z" fill="white"/>
</g>
<defs>
<clipPath id="clip0_1265_21556">
<rect width="24" height="24" fill="white"/>
</clipPath>
</defs>
</svg>
