<svg viewBox="0 0 24 24" fill="none" xmlns="http://www.w3.org/2000/svg">
<g clip-path="url(#clip0_1265_21552)">
<path d="M12 24C18.6274 24 24 18.6274 24 12C24 5.37258 18.6274 0 12 0C5.37258 0 0 5.37258 0 12C0 18.6274 5.37258 24 12 24Z" fill="#1C1C1C"/>
<path d="M17.5251 8.75V15.25L12.0001 18.5L6.4751 15.25V8.75L12.0001 5.5L17.5251 8.75ZM11.8259 12.2645L11.3124 12.5681L12.2718 13.1284L12.782 12.8275L14.1464 13.6302L12.1112 14.8262L7.8895 12.3653L7.87195 13.5633L12.1138 16.0267L16.1893 13.6302L13.8012 12.2249L14.2822 11.9409L13.3228 11.3805L12.8451 11.6626L12.1756 11.2687L12.7612 10.9223L11.8018 10.3614L11.2188 10.7058L10.0787 10.035L12.1132 8.8384L14.9264 10.4822L15.9573 9.87255L12.1112 7.63785L8.03575 10.035L10.1996 11.3084L9.7914 11.5489L10.7508 12.1098L11.1557 11.8706L11.8259 12.2645Z" fill="white"/>
</g>
<defs>
<clipPath id="clip0_1265_21552">
<rect width="24" height="24" fill="white"/>
</clipPath>
</defs>
</svg>