<svg viewBox="0 0 24 24" fill="none" xmlns="http://www.w3.org/2000/svg">
<path d="M16.2269 4.85795C16.7947 4.85795 17.256 4.37375 17.256 3.77887C17.256 3.184 16.7947 2.70056 16.2269 2.70056C15.6592 2.70364 15.1978 3.18707 15.1978 3.78195C15.1978 4.37682 15.6592 4.85795 16.2269 4.85795ZM16.5305 7.66172C16.7634 7.65989 16.986 7.56259 17.1494 7.39123C17.3128 7.21987 17.4036 6.98847 17.4018 6.74796C17.4018 6.24531 17.0119 5.83412 16.5305 5.83412C16.0491 5.83412 15.6592 6.24223 15.6592 6.74796C15.6592 7.25368 16.0483 7.66172 16.5305 7.66172ZM18.9228 8.0191C19.402 8.0191 19.7919 7.61099 19.7919 7.10757C19.7919 6.60416 19.402 6.19604 18.9228 6.19604C18.4436 6.19604 18.0537 6.60416 18.0537 7.10757C18.0537 7.61099 18.4443 8.0191 18.9228 8.0191ZM18.6356 10.4178C19.0463 10.4178 19.3789 10.0689 19.3789 9.63926C19.3789 9.20963 19.0463 8.86069 18.6356 8.86069C18.2248 8.86069 17.8922 9.20963 17.8922 9.63926C17.8922 10.0689 18.2248 10.4178 18.6356 10.4178ZM20.5509 11.1956C20.9646 11.1956 21.2994 10.8444 21.2994 10.4117C21.2994 9.97897 20.9646 9.62773 20.5509 9.62773C20.4519 9.62844 20.354 9.64927 20.2628 9.68905C20.1716 9.72883 20.0889 9.78677 20.0194 9.85957C19.9499 9.93236 19.8949 10.0186 19.8577 10.1133C19.8204 10.2081 19.8016 10.3094 19.8023 10.4117C19.8023 10.8444 20.1379 11.1956 20.5509 11.1956ZM16.2284 10.0935C16.3291 10.0929 16.4286 10.0718 16.5214 10.0315C16.6141 9.99113 16.6983 9.93231 16.769 9.85837C16.8398 9.78443 16.8958 9.69682 16.9337 9.60054C16.9717 9.50426 16.991 9.4012 16.9904 9.29724V9.29571C16.9904 8.85531 16.6503 8.49793 16.2284 8.49793C15.8065 8.49793 15.4664 8.85454 15.4664 9.29571C15.4664 9.73379 15.8072 10.0935 16.2284 10.0935ZM15.5379 12.0019C15.8913 12.0019 16.1763 11.7021 16.1763 11.334C16.1777 11.1583 16.1115 10.9892 15.9922 10.8639C15.8729 10.7387 15.7103 10.6675 15.5402 10.6661H15.5379C15.1844 10.6661 14.8994 10.9658 14.8994 11.334C14.8994 11.7021 15.1844 12.0019 15.5379 12.0019ZM17.9339 12.3393C18.0176 12.3387 18.1004 12.321 18.1776 12.2874C18.2547 12.2538 18.3247 12.2047 18.3835 12.1432C18.4423 12.0816 18.4887 12.0087 18.5203 11.9285C18.5518 11.8484 18.5677 11.7626 18.5671 11.6761V11.6745C18.5671 11.3071 18.2844 11.0097 17.9339 11.0097C17.5834 11.0097 17.3007 11.3071 17.3007 11.6745C17.2996 11.7607 17.3149 11.8463 17.3459 11.9263C17.3768 12.0064 17.4227 12.0793 17.4809 12.1411C17.5392 12.2028 17.6086 12.2521 17.6853 12.2861C17.7619 12.3201 17.8443 12.3382 17.9278 12.3393H17.9339ZM19.844 13.114C20.1974 13.114 20.4824 12.8142 20.4824 12.4438C20.4824 12.0733 20.1974 11.7736 19.844 11.7736C19.4905 11.7736 19.2055 12.0733 19.2055 12.4438C19.2038 12.6197 19.2697 12.7891 19.3889 12.9148C19.508 13.0405 19.6706 13.1121 19.8409 13.114H19.844ZM18.9005 14.562C19.1988 14.562 19.4399 14.3076 19.4399 13.9971C19.4399 13.6866 19.1988 13.4322 18.9005 13.4322C18.6021 13.4322 18.361 13.6866 18.361 13.9971C18.361 14.3076 18.6021 14.562 18.9005 14.562ZM16.9814 13.7996C17.285 13.7996 17.5336 13.5398 17.5336 13.2208C17.5336 12.9019 17.2873 12.6421 16.9814 12.6421C16.6756 12.6421 16.4293 12.9019 16.4293 13.2208C16.4293 13.5398 16.6778 13.7996 16.9814 13.7996ZM14.5884 13.446C14.7341 13.4437 14.873 13.3823 14.9752 13.2751C15.0774 13.1679 15.1348 13.0235 15.1349 12.873C15.135 12.7226 15.0778 12.5781 14.9757 12.4708C14.8736 12.3634 14.7348 12.3019 14.5892 12.2993H14.5884C14.4428 12.3017 14.3038 12.3631 14.2016 12.4702C14.0994 12.5774 14.042 12.7218 14.0419 12.8723C14.0419 13.0227 14.099 13.1672 14.2011 13.2745C14.3032 13.3819 14.442 13.4435 14.5877 13.446H14.5884ZM15.9189 14.8064C16.183 14.8064 16.3951 14.582 16.3951 14.3091C16.3963 14.1785 16.3472 14.0527 16.2586 13.9594C16.17 13.8662 16.0491 13.8131 15.9227 13.8119H15.9189C15.6547 13.8119 15.4426 14.0363 15.4426 14.3091C15.4412 14.4396 15.4901 14.5652 15.5784 14.6585C15.6667 14.7518 15.7873 14.805 15.9136 14.8064H15.9189ZM17.8371 15.5819C18.1013 15.5819 18.3186 15.3575 18.3186 15.0792C18.3186 14.801 18.1043 14.5766 17.8371 14.5766C17.7081 14.5766 17.5843 14.6295 17.493 14.7238C17.4018 14.8181 17.3505 14.9459 17.3505 15.0792C17.3505 15.2125 17.4018 15.3404 17.493 15.4347C17.5843 15.5289 17.7081 15.5819 17.8371 15.5819ZM16.7567 16.1637C16.9658 16.1637 17.1362 15.9854 17.1362 15.7663C17.1368 15.6617 17.0972 15.5611 17.026 15.4866C16.9549 15.4121 16.858 15.3698 16.7567 15.369C16.5476 15.369 16.3772 15.5473 16.3772 15.7663C16.377 15.8709 16.4168 15.9712 16.4878 16.0456C16.5589 16.1201 16.6555 16.1625 16.7567 16.1637ZM15.7328 16.4757C15.7782 16.4754 15.823 16.4659 15.8648 16.4477C15.9065 16.4296 15.9444 16.4031 15.9763 16.3697C16.0081 16.3364 16.0333 16.297 16.0504 16.2536C16.0675 16.2102 16.0761 16.1638 16.0759 16.117V16.116C16.0759 15.9162 15.9211 15.7564 15.7328 15.7564C15.6875 15.7566 15.6427 15.7662 15.6009 15.7843C15.5591 15.8025 15.5212 15.829 15.4894 15.8624C15.4575 15.8957 15.4323 15.9351 15.4153 15.9785C15.3982 16.0219 15.3895 16.0683 15.3898 16.1151V16.116C15.3882 16.2098 15.4228 16.3003 15.4858 16.3678C15.5489 16.4352 15.6353 16.474 15.7261 16.4757L15.7328 16.4757ZM14.8362 15.4412C15.0617 15.4412 15.2447 15.2491 15.2447 15.0139C15.2447 14.7787 15.0617 14.5866 14.8362 14.5866C14.6107 14.5866 14.4277 14.7787 14.4277 15.0139C14.4275 15.1264 14.4703 15.2344 14.5468 15.3144C14.6233 15.3945 14.7273 15.44 14.8362 15.4412ZM13.5206 14.4613C13.7826 14.4613 13.9969 14.24 13.9969 13.964C13.9969 13.6881 13.7848 13.4668 13.5206 13.4668C13.2587 13.4668 13.0444 13.6881 13.0444 13.964C13.0442 14.0951 13.0941 14.2208 13.1834 14.314C13.2726 14.4071 13.3938 14.4601 13.5206 14.4613ZM17.4219 20.6914C17.9875 20.6914 18.4458 20.2102 18.4458 19.6177C18.4458 19.0251 17.9875 18.544 17.4219 18.544C16.8564 18.544 16.3981 19.0251 16.3981 19.6177C16.3981 20.2102 16.8564 20.6914 17.4219 20.6914ZM14.8213 19.3325C15.2923 19.3325 15.6748 18.9321 15.6748 18.4379C15.6748 17.9437 15.2923 17.5433 14.8213 17.5433C14.3503 17.5433 13.9678 17.9437 13.9678 18.4379C13.9678 18.9321 14.3496 19.3325 14.8213 19.3325ZM13.3353 21.2993C13.8116 21.2993 14.1963 20.8966 14.1963 20.3962C14.1963 19.899 13.8116 19.4932 13.3353 19.4932C12.8591 19.4932 12.4744 19.8959 12.4744 20.3962C12.4726 20.6339 12.5623 20.8626 12.7238 21.0319C12.8852 21.2013 13.1052 21.2975 13.3353 21.2993H13.3353ZM12.8881 17.6755C12.9868 17.6748 13.0844 17.654 13.1754 17.6143C13.2663 17.5747 13.3487 17.5169 13.418 17.4443C13.4873 17.3717 13.5421 17.2858 13.5793 17.1913C13.6164 17.0969 13.6352 16.9958 13.6345 16.8938C13.6352 16.7919 13.6164 16.6908 13.5793 16.5964C13.5421 16.5019 13.4873 16.4159 13.418 16.3434C13.3487 16.2708 13.2663 16.213 13.1754 16.1733C13.0844 16.1337 12.9868 16.1129 12.8881 16.1122C12.7894 16.1129 12.6919 16.1337 12.6009 16.1733C12.51 16.213 12.4275 16.2708 12.3582 16.3434C12.2889 16.4159 12.2342 16.5019 12.197 16.5964C12.1599 16.6908 12.1411 16.7919 12.1418 16.8938C12.1426 17.3242 12.4774 17.6755 12.8881 17.6755ZM11.4059 19.6692C11.8166 19.6692 12.1493 19.3202 12.1493 18.8906C12.1493 18.461 11.8166 18.112 11.4059 18.112C10.9952 18.112 10.6625 18.461 10.6625 18.8906C10.6606 19.095 10.7373 19.2919 10.8759 19.4379C11.0144 19.5839 11.2034 19.6671 11.4014 19.6692H11.4059ZM9.80832 21.0219C10.2191 21.0219 10.5494 20.6729 10.5494 20.2456C10.5494 19.816 10.2168 19.4693 9.80832 19.4693C9.39758 19.4693 9.06719 19.8183 9.06719 20.2456C9.06719 20.6729 9.39981 21.0219 9.80832 21.0219ZM8.47861 19.2611C8.64749 19.2595 8.8089 19.1889 8.92755 19.0647C9.0462 18.9406 9.11246 18.773 9.11184 18.5985C9.11184 18.2335 8.82908 17.936 8.47861 17.936C8.31019 17.9387 8.14954 18.0096 8.03134 18.1336C7.91315 18.2576 7.8469 18.4246 7.8469 18.5985C7.8469 18.7725 7.91315 18.9395 8.03134 19.0635C8.14954 19.1874 8.31019 19.2584 8.47861 19.2611ZM10.0792 17.9022C10.2482 17.901 10.4098 17.8305 10.5285 17.7063C10.6473 17.5821 10.7134 17.4143 10.7124 17.2397C10.7124 16.8723 10.4296 16.5772 10.0792 16.5772C9.91073 16.5795 9.74994 16.6502 9.63153 16.7739C9.51311 16.8977 9.44657 17.0646 9.44627 17.2386C9.44598 17.4126 9.51196 17.5797 9.62996 17.7039C9.74796 17.828 9.90851 17.8993 10.0769 17.9022H10.0792ZM11.5726 15.9093C11.6563 15.9087 11.7391 15.8911 11.8163 15.8574C11.8934 15.8238 11.9634 15.7748 12.0222 15.7132C12.081 15.6516 12.1274 15.5787 12.159 15.4986C12.1905 15.4184 12.2064 15.3327 12.2058 15.2462V15.2446C12.2058 14.8772 11.923 14.5797 11.5726 14.5797C11.4888 14.5803 11.406 14.598 11.3289 14.6316C11.2518 14.6652 11.1818 14.7143 11.123 14.7758C11.0642 14.8374 11.0177 14.9104 10.9862 14.9905C10.9547 15.0706 10.9388 15.1564 10.9393 15.2429V15.2445C10.9393 15.6119 11.2221 15.9093 11.5726 15.9093ZM9.28819 16.1837C9.59178 16.1837 9.83808 15.927 9.83808 15.608C9.83808 15.2891 9.59178 15.0324 9.28819 15.0324C8.9846 15.0324 8.7383 15.2891 8.7383 15.608C8.7383 15.927 8.9846 16.1837 9.28819 16.1837ZM7.69582 17.5371C7.76774 17.5367 7.83888 17.5217 7.90517 17.4929C7.97147 17.4641 8.03162 17.4221 8.0822 17.3693C8.13278 17.3165 8.17279 17.2539 8.19995 17.1851C8.22712 17.1163 8.24089 17.0427 8.2405 16.9684V16.9669C8.24189 16.817 8.18561 16.6728 8.08403 16.5659C7.98246 16.4589 7.84391 16.398 7.69887 16.3966H7.69582C7.6239 16.397 7.55276 16.412 7.48647 16.4408C7.42017 16.4696 7.36002 16.5116 7.30944 16.5644C7.25886 16.6172 7.21885 16.6798 7.19169 16.7486C7.16453 16.8174 7.15075 16.891 7.15114 16.9653V16.9669C7.15065 17.0412 7.16435 17.115 7.19146 17.1839C7.21857 17.2528 7.25855 17.3156 7.30913 17.3685C7.35971 17.4215 7.41989 17.4636 7.48624 17.4926C7.55259 17.5215 7.6238 17.5366 7.69582 17.5371ZM7.32972 15.9508C7.45524 15.9498 7.57527 15.8975 7.66354 15.8053C7.7518 15.7131 7.80114 15.5886 7.80074 15.4589C7.80074 15.1861 7.58867 14.967 7.32972 14.967C7.07078 14.967 6.85871 15.1884 6.85871 15.4589C6.85871 15.7318 7.07078 15.9508 7.32972 15.9508ZM7.31633 14.5589C7.36978 14.5584 7.42261 14.547 7.47181 14.5254C7.52101 14.5039 7.5656 14.4725 7.60305 14.4331C7.6405 14.3937 7.67007 14.347 7.69008 14.2958C7.71008 14.2446 7.72012 14.1899 7.71963 14.1347C7.71963 13.9018 7.53882 13.7104 7.31633 13.7104C7.09384 13.7104 6.91303 13.8995 6.91303 14.1347C6.91303 14.3698 7.09384 14.5589 7.31633 14.5589ZM7.53807 13.4014C7.7293 13.4014 7.8811 13.2393 7.8811 13.0417C7.8811 12.8442 7.72633 12.682 7.53807 12.682C7.34684 12.682 7.19504 12.8442 7.19504 13.0417C7.19504 13.2393 7.34684 13.4014 7.53807 13.4014ZM8.91093 13.2078C9.1364 13.2078 9.31944 13.0156 9.31944 12.7804C9.31944 12.5452 9.1364 12.3531 8.91093 12.3531C8.68547 12.3531 8.50242 12.5452 8.50242 12.7804C8.50203 12.893 8.54477 13.0011 8.62132 13.0811C8.69787 13.1612 8.80199 13.2067 8.91093 13.2078ZM10.4177 12.6013C10.6797 12.6013 10.894 12.3769 10.894 12.1041C10.8951 11.9734 10.846 11.8476 10.7574 11.7544C10.6689 11.6611 10.548 11.6081 10.4215 11.6068H10.4177C10.1558 11.6068 9.94151 11.8312 9.94151 12.1041C9.94102 12.1689 9.95289 12.2331 9.97645 12.2932C10 12.3533 10.0348 12.4079 10.0788 12.4541C10.1228 12.5003 10.1752 12.5371 10.233 12.5623C10.2907 12.5876 10.3528 12.6008 10.4155 12.6013H10.4177ZM10.7764 14.18C10.9197 14.1797 11.057 14.1206 11.1582 14.0158C11.2593 13.911 11.3161 13.769 11.3159 13.621C11.3158 13.473 11.2588 13.3311 11.1574 13.2265C11.056 13.1219 10.9186 13.0631 10.7753 13.0631C10.632 13.0631 10.4945 13.1219 10.3932 13.2265C10.2918 13.3311 10.2348 13.473 10.2346 13.621C10.2345 13.769 10.2912 13.911 10.3924 14.0158C10.4935 14.1206 10.6309 14.1797 10.7742 14.18H10.7764ZM8.93028 14.6004C9.1922 14.6004 9.4013 14.3791 9.4013 14.1055C9.4013 13.8318 9.18923 13.6105 8.93028 13.6105C8.86804 13.6109 8.80648 13.6239 8.74912 13.6489C8.69177 13.6739 8.63973 13.7103 8.59599 13.756C8.55225 13.8017 8.51767 13.8559 8.49421 13.9155C8.47075 13.975 8.45887 14.0388 8.45927 14.1031V14.1055C8.45838 14.1695 8.46972 14.2332 8.49265 14.2927C8.51557 14.3523 8.54962 14.4066 8.59286 14.4525C8.6361 14.4985 8.68768 14.5352 8.74466 14.5605C8.80163 14.5859 8.86289 14.5994 8.92492 14.6003H8.93028V14.6004ZM3.72159 13.8664C4.28413 13.8664 4.74249 13.3876 4.74249 12.7981C4.74249 12.2086 4.28413 11.7298 3.72159 11.7298C3.15905 11.7298 2.70068 12.2094 2.70068 12.7989C2.70068 13.3884 3.15905 13.8664 3.72159 13.8664ZM6.03871 11.9588C6.52312 11.9588 6.91303 11.5476 6.91303 11.0419C6.91303 10.5362 6.52014 10.125 6.03871 10.125C5.80526 10.1266 5.582 10.224 5.41803 10.3956C5.25407 10.5673 5.16283 10.7992 5.1644 11.0403V11.0419C5.1644 11.5507 5.55728 11.9588 6.03871 11.9588ZM5.13463 9.60698C5.61606 9.60698 6.00374 9.19887 6.00374 8.69545C6.00374 8.19203 5.61383 7.78392 5.13463 7.78392C5.01972 7.78471 4.90609 7.80888 4.80022 7.85504C4.69435 7.9012 4.59832 7.96845 4.51761 8.05294C4.43691 8.13744 4.37311 8.23752 4.32985 8.34749C4.2866 8.45746 4.26474 8.57514 4.26552 8.69384V8.69545C4.26316 8.93474 4.35292 9.1652 4.51506 9.33614C4.67719 9.50708 4.89842 9.60451 5.13009 9.60698H5.13463ZM7.36842 8.49255C7.77916 8.49255 8.11475 8.14361 8.11475 7.7109C8.11475 7.2782 7.7799 6.92926 7.36842 6.92926C6.95693 6.92926 6.62209 7.2782 6.62209 7.7109C6.62209 8.14361 6.95767 8.49255 7.36842 8.49255ZM8.28143 10.839C8.69515 10.839 9.02999 10.4878 9.02999 10.0551C9.02999 9.62235 8.69515 9.27111 8.28143 9.27111C7.86771 9.27111 7.53286 9.62235 7.53286 10.0551C7.53286 10.4878 7.86771 10.839 8.28143 10.839ZM10.3143 10.3517C10.4844 10.3503 10.647 10.2791 10.7663 10.1539C10.8856 10.0287 10.9519 9.85961 10.9505 9.68391C10.9518 9.59762 10.9366 9.51191 10.9058 9.43167C10.875 9.35144 10.8292 9.27826 10.7711 9.2163C10.7129 9.15435 10.6435 9.10483 10.5668 9.07059C10.4901 9.03634 10.4076 9.01804 10.3241 9.01671C10.2405 9.01539 10.1575 9.03108 10.0798 9.06288C10.0022 9.09469 9.93132 9.14198 9.87133 9.20206C9.81135 9.26215 9.76341 9.33385 9.73026 9.41307C9.6971 9.49229 9.67938 9.57748 9.6781 9.66378C9.6781 9.67054 9.6781 9.67723 9.6781 9.68391C9.67614 9.859 9.74158 10.0277 9.86003 10.153C9.97849 10.2782 10.1403 10.3497 10.3098 10.3518L10.3143 10.3517ZM12.0704 10.3579C12.374 10.3579 12.6203 10.1012 12.6203 9.78452C12.6203 9.46787 12.374 9.21116 12.0704 9.21116C11.9232 9.21116 11.782 9.27157 11.6779 9.3791C11.5738 9.48662 11.5153 9.63246 11.5153 9.78452C11.5153 9.93658 11.5738 10.0824 11.6779 10.1899C11.782 10.2975 11.9232 10.3579 12.0704 10.3579ZM13.5214 10.703C13.7751 10.703 13.9849 10.487 13.9849 10.2188C13.9849 9.95053 13.7781 9.73456 13.5214 9.73456C13.3978 9.73556 13.2797 9.78706 13.1928 9.87781C13.1059 9.96855 13.0574 10.0911 13.0578 10.2188C13.0608 10.4839 13.2669 10.703 13.5214 10.703ZM13.7104 8.93678C13.818 8.93599 13.9209 8.89111 13.9965 8.812C14.0722 8.73288 14.1143 8.626 14.1137 8.51483C14.1137 8.28196 13.9329 8.09289 13.7104 8.09289C13.4879 8.09289 13.3071 8.28196 13.3071 8.51483C13.3065 8.626 13.3486 8.73288 13.4242 8.812C13.4998 8.89111 13.6027 8.93599 13.7104 8.93678ZM12.5942 8.35881C12.7174 8.3585 12.8354 8.3077 12.9223 8.21758C13.0092 8.12746 13.058 8.00538 13.0578 7.87817C13.0577 7.75095 13.0086 7.629 12.9215 7.5391C12.8344 7.44921 12.7162 7.39871 12.5931 7.39871C12.4699 7.39871 12.3518 7.44921 12.2646 7.5391C12.1775 7.629 12.1285 7.75095 12.1283 7.87817C12.1282 8.00538 12.1769 8.12746 12.2638 8.21758C12.3507 8.3077 12.4688 8.3585 12.5919 8.35881H12.5942ZM11.1603 8.00834C11.3057 8.00712 11.4447 7.94641 11.5468 7.8395C11.6489 7.73259 11.7058 7.58823 11.705 7.43806C11.705 7.12141 11.4617 6.86778 11.1603 6.86778C10.859 6.86778 10.6157 7.12448 10.6157 7.43806C10.6151 7.51235 10.6287 7.58602 10.6556 7.65489C10.6826 7.72375 10.7225 7.78645 10.7729 7.83941C10.8233 7.89236 10.8834 7.93454 10.9496 7.96352C11.0158 7.99251 11.0869 8.00774 11.1589 8.00834H11.1603ZM9.40725 8.01065C9.7607 8.01065 10.0457 7.7109 10.0457 7.34276C10.0457 6.97461 9.7607 6.67486 9.40725 6.67486C9.0538 6.67486 8.76881 6.97461 8.76881 7.34276C8.76821 7.51862 8.83503 7.68758 8.95465 7.81272C9.07428 7.93787 9.23699 8.00903 9.40725 8.01065ZM7.04622 6.34053C7.44655 6.34053 7.76874 6.00236 7.76874 5.58349C7.76874 5.16461 7.44432 4.82644 7.04622 4.82644C6.6459 4.82644 6.3237 5.16461 6.3237 5.58349C6.3237 6.00236 6.64813 6.34053 7.04622 6.34053ZM9.07836 5.8817C9.4318 5.8817 9.71679 5.58195 9.71679 5.2138C9.71679 4.84566 9.4318 4.54591 9.07836 4.54591C8.72491 4.54591 8.43992 4.84566 8.43992 5.2138C8.43992 5.58195 8.72491 5.8817 9.07836 5.8817ZM10.8337 5.89015C11.1373 5.89015 11.3836 5.63345 11.3836 5.31449C11.3836 4.99553 11.1373 4.73882 10.8337 4.73882C10.7611 4.73923 10.6893 4.7544 10.6223 4.78347C10.5554 4.81254 10.4947 4.85494 10.4436 4.90825C10.3926 4.96156 10.3522 5.02474 10.3247 5.09418C10.2973 5.16362 10.2834 5.23796 10.2838 5.31295V5.31449C10.2832 5.46603 10.3407 5.61166 10.4437 5.71953C10.5468 5.8274 10.687 5.88875 10.8337 5.89015ZM12.2743 6.23293C12.531 6.23293 12.7378 6.01696 12.7378 5.74873C12.7378 5.4805 12.531 5.26453 12.2743 5.26453C12.1499 5.26453 12.0307 5.31554 11.9428 5.40635C11.8549 5.49715 11.8055 5.62031 11.8055 5.74873C11.8055 5.87715 11.8549 6.00031 11.9428 6.09111C12.0307 6.18192 12.1499 6.23293 12.2743 6.23293ZM13.3807 6.82627C13.4911 6.82546 13.5967 6.77944 13.6743 6.69831C13.7518 6.61719 13.7951 6.50758 13.7945 6.39357C13.7945 6.153 13.6084 5.96086 13.3807 5.96086C13.153 5.96086 12.967 6.15531 12.967 6.39357C12.967 6.63182 13.153 6.82627 13.3807 6.82627ZM14.1925 7.50723C14.2375 7.50693 14.282 7.49749 14.3234 7.47944C14.3648 7.46139 14.4024 7.4351 14.4339 7.40205C14.4655 7.36901 14.4905 7.32986 14.5074 7.28685C14.5243 7.24384 14.5329 7.19781 14.5326 7.15138V7.15061C14.533 7.10418 14.5245 7.05813 14.5077 7.01508C14.4909 6.97203 14.466 6.93283 14.4345 6.89971C14.403 6.8666 14.3654 6.84022 14.3241 6.82208C14.2827 6.80394 14.2382 6.7944 14.1933 6.79399H14.1925C14.1476 6.7943 14.1031 6.80374 14.0617 6.82179C14.0203 6.83983 13.9827 6.86613 13.9512 6.89917C13.9196 6.93222 13.8946 6.97136 13.8777 7.01437C13.8608 7.05738 13.8522 7.10342 13.8525 7.14984V7.15061C13.8518 7.19674 13.8599 7.24255 13.8764 7.28543C13.8928 7.32831 13.9173 7.36743 13.9484 7.40054C13.9795 7.43365 14.0166 7.4601 14.0576 7.4784C14.0986 7.49669 14.1427 7.50646 14.1873 7.50716H14.1927L14.1925 7.50723Z" fill="black"/>
</svg>