<svg viewBox="0 0 24 24" fill="none" xmlns="http://www.w3.org/2000/svg">
<g clip-path="url(#clip0_620_14060)">
<path d="M12 22C17.5228 22 22 17.5228 22 12C22 6.47715 17.5228 2 12 2C6.47715 2 2 6.47715 2 12C2 17.5228 6.47715 22 12 22Z" fill="#00D4D5"/>
<path d="M12.3243 5.125V8.53562L15.2856 6.8325L12.3243 5.125Z" fill="white"/>
<path opacity="0.9" d="M15.2856 6.83252V10.2431L18.2463 8.53564L15.2856 6.83252Z" fill="white"/>
<path opacity="0.8" d="M12.3243 8.53564V11.9463L15.2856 10.2431L12.3243 8.53564ZM15.2856 10.2438V13.6538L18.2462 11.9463L15.2856 10.2438Z" fill="white"/>
<path opacity="0.8" d="M12.3243 11.9463V15.3569L15.2856 13.6538L12.3243 11.9463Z" fill="white"/>
<path d="M15.2856 13.6538V17.0644L18.2463 15.3569L15.2856 13.6538Z" fill="white"/>
<path opacity="0.4" d="M4.67065 8.42065V11.8313L7.6319 10.1238L4.67065 8.42065Z" fill="white"/>
<path opacity="0.2" d="M8.40625 9.68872V13.0993L11.3625 11.3962L8.40625 9.68872Z" fill="white"/>
<path opacity="0.3" d="M6.2113 11.8456V15.2562L9.17193 13.5487L6.2113 11.8456Z" fill="white"/>
<path opacity="0.9" d="M8.16248 14.4194V17.8301L11.1187 16.1226L8.16248 14.4194Z" fill="white"/>
<path opacity="0.7" d="M12.3 15.8875V19.2987L15.2563 17.5906L12.3 15.8875Z" fill="white"/>
<path opacity="0.9" d="M8.89941 8.00439V11.4156L11.8557 9.71252L8.89941 8.00439Z" fill="white"/>
<path opacity="0.8" d="M12.3244 5.125V8.53562L9.36316 6.8325L12.3244 5.125Z" fill="white"/>
<path opacity="0.6" d="M8.89937 6.57495V9.98495L5.9375 8.27745L8.89937 6.57495Z" fill="white"/>
<path opacity="0.6" d="M11.8607 8.26245V11.6737L8.89941 9.96558L11.8607 8.26245Z" fill="white"/>
<path opacity="0.95" d="M8.39252 9.68872V13.0993L5.43127 11.3962L8.39252 9.68872Z" fill="white"/>
<path opacity="0.6" d="M12.3244 11.9463V15.3569L9.36816 13.6538L12.3244 11.9463Z" fill="white"/>
<path opacity="0.55" d="M6.21125 12.7406V16.1512L3.25 14.4431L6.21125 12.7406Z" fill="white"/>
<path d="M18.2463 8.53564V11.9463L15.2856 10.2431L18.2463 8.53564Z" fill="white"/>
<path opacity="0.95" d="M15.2856 10.2438V13.6538L12.3243 11.9463L15.2856 10.2438Z" fill="white"/>
<path opacity="0.9" d="M18.2463 11.9463V15.3569L15.2856 13.6538L18.2463 11.9463Z" fill="white"/>
<path opacity="0.7" d="M15.2856 13.6538V17.0644L12.3243 15.3569L15.2856 13.6538Z" fill="white"/>
<path opacity="0.4" d="M11.6688 15.075V18.4856L8.70813 16.7825L11.6688 15.075Z" fill="white"/>
<path d="M15.2856 6.83252V10.2431L12.3243 8.53564L15.2856 6.83252Z" fill="white"/>
</g>
<defs>
<clipPath id="clip0_620_14060">
<rect width="20" height="20" fill="white" transform="translate(2 2)"/>
</clipPath>
</defs>
</svg>