<svg viewBox="0 0 24 24" fill="none" xmlns="http://www.w3.org/2000/svg">
<g clip-path="url(#clip0_1265_21525)">
<path d="M12 24C18.6274 24 24 18.6274 24 12C24 5.37258 18.6274 0 12 0C5.37258 0 0 5.37258 0 12C0 18.6274 5.37258 24 12 24Z" fill="#00D4D5"/>
<path d="M13.3662 5.85645V8.81306L15.9333 7.33665L13.3662 5.85645Z" fill="white"/>
<path opacity="0.9" d="M15.9333 7.33655V10.2932L18.4999 8.81296L15.9333 7.33655Z" fill="white"/>
<path opacity="0.8" d="M13.3662 8.81311V11.7697L15.9333 10.2933L13.3662 8.81311ZM15.9333 10.2939V13.2499L18.4998 11.7697L15.9333 10.2939Z" fill="white"/>
<path opacity="0.8" d="M13.3662 11.7698V14.7264L15.9333 13.25L13.3662 11.7698Z" fill="white"/>
<path d="M15.9333 13.2499V16.2065L18.4999 14.7263L15.9333 13.2499Z" fill="white"/>
<path opacity="0.4" d="M6.73169 8.71338V11.67L9.29874 10.1898L6.73169 8.71338Z" fill="white"/>
<path opacity="0.2" d="M9.96997 9.8125V12.7691L12.5327 11.2927L9.96997 9.8125Z" fill="white"/>
<path opacity="0.3" d="M8.06689 11.6824V14.639L10.6334 13.1588L8.06689 11.6824Z" fill="white"/>
<path opacity="0.9" d="M9.75854 13.9137V16.8703L12.3213 15.3901L9.75854 13.9137Z" fill="white"/>
<path opacity="0.7" d="M13.3452 15.1864V18.1436L15.9079 16.6628L13.3452 15.1864Z" fill="white"/>
<path opacity="0.9" d="M10.3975 8.35242V11.3096L12.9602 9.83316L10.3975 8.35242Z" fill="white"/>
<path opacity="0.8" d="M13.3664 5.85645V8.81306L10.7993 7.33665L13.3664 5.85645Z" fill="white"/>
<path opacity="0.6" d="M10.3974 7.11328V10.0693L7.82983 8.58915L10.3974 7.11328Z" fill="white"/>
<path opacity="0.6" d="M12.9645 8.57629V11.5334L10.3975 10.0527L12.9645 8.57629Z" fill="white"/>
<path opacity="0.95" d="M9.95792 9.8125V12.7691L7.39087 11.2927L9.95792 9.8125Z" fill="white"/>
<path opacity="0.6" d="M13.3664 11.7698V14.7264L10.8037 13.25L13.3664 11.7698Z" fill="white"/>
<path opacity="0.55" d="M8.06705 12.4584V15.415L5.5 13.9342L8.06705 12.4584Z" fill="white"/>
<path d="M18.4999 8.81311V11.7697L15.9333 10.2933L18.4999 8.81311Z" fill="white"/>
<path opacity="0.95" d="M15.9333 10.2938V13.2499L13.3662 11.7697L15.9333 10.2938Z" fill="white"/>
<path opacity="0.9" d="M18.4999 11.7698V14.7264L15.9333 13.25L18.4999 11.7698Z" fill="white"/>
<path opacity="0.7" d="M15.9333 13.2499V16.2065L13.3662 14.7263L15.9333 13.2499Z" fill="white"/>
<path opacity="0.4" d="M12.798 14.4819V17.4385L10.2314 15.9621L12.798 14.4819Z" fill="white"/>
<path d="M15.9333 7.33655V10.2932L13.3662 8.81296L15.9333 7.33655Z" fill="white"/>
</g>
<defs>
<clipPath id="clip0_1265_21525">
<rect width="24" height="24" fill="white"/>
</clipPath>
</defs>
</svg>