<svg viewBox="0 0 24 24" fill="none" xmlns="http://www.w3.org/2000/svg">
<g clip-path="url(#clip0_1265_21521)">
<path d="M12 24C18.6274 24 24 18.6274 24 12C24 5.37258 18.6274 0 12 0C5.37258 0 0 5.37258 0 12C0 18.6274 5.37258 24 12 24Z" fill="#55DDFF"/>
<path d="M9.82583 8.89475C9.8294 7.84687 10.2235 6.83796 10.9312 6.06511C11.1246 5.87168 11.1467 5.833 11.1467 5.67825C11.1467 5.5235 11.1467 5.51245 11.0306 5.51245C10.8872 5.52834 10.745 5.55419 10.6051 5.58982C8.95555 5.97949 7.51552 6.981 6.57617 8.39183C6.12265 9.06084 5.80355 9.81166 5.63664 10.6025C5.49826 11.3309 5.46476 12.0753 5.53716 12.8131C5.74022 14.4504 6.56299 15.9476 7.83624 16.9968C8.51602 17.5495 9.2787 17.9916 9.2787 17.7926C9.23409 17.7069 9.17415 17.6301 9.10184 17.566C8.75986 17.1891 8.50409 16.7422 8.35234 16.2564C8.20059 15.7706 8.15649 15.2576 8.22311 14.753C8.27226 14.1261 8.4679 13.5194 8.79426 12.9819C9.12062 12.4443 9.56861 11.9909 10.1022 11.6581C10.237 11.562 10.3793 11.477 10.5277 11.4038C10.6106 11.4038 10.5609 11.238 10.3564 10.8512C10.0065 10.2587 9.82322 9.58278 9.82583 8.89475ZM18.3976 10.6191C18.2022 9.66708 17.7999 8.76968 17.2192 7.99038C16.6386 7.21108 15.8938 6.56891 15.0375 6.10933C14.728 5.938 14.5732 5.89932 14.5732 6.00432C14.6024 6.0927 14.6474 6.17507 14.7059 6.24749C15.0484 6.73414 15.2406 7.31064 15.2585 7.90549C15.2933 8.21563 15.2621 8.52962 15.1668 8.82682C15.0716 9.12402 14.9145 9.39768 14.7059 9.6298C14.5987 9.74337 14.4514 9.81045 14.2954 9.81664C14.1394 9.82284 13.9871 9.76767 13.8713 9.66296C13.6503 9.50268 13.6503 9.39215 13.7884 9.18766C14.0812 8.75708 14.2266 8.24325 14.2029 7.72311C14.2244 7.51399 14.1988 7.30272 14.1281 7.10477C14.0573 6.90682 13.9431 6.72721 13.794 6.57909C13.6582 6.43836 13.4865 6.33764 13.2974 6.28793C13.1083 6.23822 12.9092 6.24144 12.7218 6.29723C12.4538 6.4052 12.2167 6.57775 12.0316 6.79953C11.8464 7.0213 11.719 7.28542 11.6607 7.56836C11.5339 7.97733 11.4597 8.40074 11.4396 8.82843C11.4437 9.48334 11.6048 10.1277 11.9094 10.7075C12.1219 11.0407 12.3847 11.339 12.6886 11.5918C12.7494 11.6315 12.803 11.6802 12.8489 11.7354C12.7955 11.7794 12.7333 11.8114 12.6665 11.8294C12.2394 12.0315 11.857 12.317 11.5419 12.6692C11.2268 13.0213 10.9853 13.4329 10.8317 13.8798C10.6294 14.3985 10.539 14.9541 10.5664 15.5101C10.5552 15.7722 10.5986 16.0338 10.6937 16.2783C10.7888 16.5228 10.9337 16.7449 11.1191 16.9305C11.3289 17.1121 11.5771 17.2437 11.8452 17.3155C12.1132 17.3873 12.394 17.3974 12.6665 17.345C13.3966 17.2904 14.0793 16.9628 14.5787 16.4276C14.8053 16.1844 14.8495 16.1568 14.8938 16.212C14.938 16.2673 14.9269 16.3004 14.844 16.4386C14.3192 17.335 13.477 18.0016 12.4841 18.3066C12.2907 18.3564 12.2078 18.395 12.2078 18.4393C12.2078 18.5829 13.4181 18.384 14.1532 18.1242C15.0907 17.7817 15.9397 17.2336 16.6378 16.5202C17.3359 15.8068 17.8655 14.9461 18.1876 14.0014C18.426 13.3434 18.5293 12.6442 18.4916 11.9455C18.5168 11.5011 18.4852 11.0554 18.3976 10.6191Z" fill="white"/>
</g>
<defs>
<clipPath id="clip0_1265_21521">
<rect width="24" height="24" fill="white"/>
</clipPath>
</defs>
</svg>