<svg viewBox="0 0 24 24" fill="none" xmlns="http://www.w3.org/2000/svg">
<g clip-path="url(#clip0_1265_21517)">
<path d="M12 24C18.6274 24 24 18.6274 24 12C24 5.37258 18.6274 0 12 0C5.37258 0 0 5.37258 0 12C0 18.6274 5.37258 24 12 24Z" fill="#102044"/>
<path d="M17.2347 14.1774C17.5272 14.2898 17.7209 14.568 17.7235 14.8793C17.7236 15.0098 17.6896 15.138 17.6248 15.2512C17.5601 15.3645 17.4668 15.4588 17.3543 15.5248C17.2414 15.5911 17.1132 15.6272 16.9823 15.6295C16.8513 15.6317 16.722 15.6002 16.6068 15.5378L12.6874 17.6762C12.6971 17.7796 12.6853 17.8839 12.6528 17.9825C12.6203 18.0811 12.5677 18.1719 12.4984 18.2492C12.4292 18.3265 12.3447 18.3887 12.2502 18.4318C12.1558 18.4749 12.0534 18.4981 11.9496 18.4998C11.7498 18.5047 11.5561 18.43 11.4113 18.2921C11.2665 18.1542 11.1824 17.9645 11.1775 17.7646L9.26649 16.6707H9.22294V16.648L7.20928 15.4968C7.08354 15.5835 6.93432 15.6298 6.78158 15.6294C6.59974 15.6304 6.42368 15.5656 6.28584 15.447C6.148 15.3284 6.05767 15.1639 6.0315 14.984C6.00637 14.8042 6.04734 14.6213 6.14679 14.4694C6.24624 14.3175 6.39742 14.2068 6.57229 14.1579V9.85753C6.42516 9.81624 6.2941 9.73112 6.19656 9.61349C6.09903 9.49586 6.03963 9.35131 6.0263 9.19909C6.0003 8.88839 6.16994 8.59395 6.45399 8.4594C6.59255 8.3936 6.74777 8.37124 6.89926 8.39526C7.05076 8.41927 7.19145 8.48853 7.30287 8.59395L11.1833 6.37099C11.1664 6.26318 11.173 6.15298 11.2029 6.048C11.2327 5.94302 11.2849 5.84576 11.356 5.76295C11.4271 5.68013 11.5153 5.61373 11.6145 5.56833C11.7137 5.52294 11.8217 5.49962 11.9308 5.5C12.0431 5.49982 12.154 5.52473 12.2555 5.5729C12.3569 5.62108 12.4463 5.6913 12.5171 5.77845C12.588 5.8656 12.6384 5.96747 12.6648 6.07662C12.6913 6.18577 12.693 6.29945 12.6698 6.40934L16.458 8.579C16.5964 8.4542 16.7765 8.3853 16.9643 8.38595C17.0668 8.34767 17.1763 8.33228 17.2854 8.34085C17.3944 8.34943 17.5002 8.38176 17.5954 8.43558C17.6906 8.48939 17.7729 8.5634 17.8365 8.65239C17.9 8.74139 17.9433 8.84321 17.9634 8.95073C17.9834 9.05824 17.9797 9.16884 17.9524 9.27475C17.9252 9.38066 17.875 9.47933 17.8056 9.56382C17.7362 9.64831 17.6491 9.71658 17.5505 9.76384C17.4518 9.8111 17.3441 9.8362 17.2347 9.83738V14.178V14.1774ZM14.558 12.4841V16.178L16.2948 15.231C16.2407 15.1274 16.2114 15.0126 16.2092 14.8958C16.207 14.7789 16.2321 14.6632 16.2823 14.5577C16.3325 14.4521 16.4066 14.3597 16.4987 14.2878C16.5908 14.2158 16.6983 14.1662 16.8129 14.1429V9.87248C16.6421 9.83872 16.4883 9.74695 16.3776 9.61272C16.2668 9.47849 16.2059 9.31007 16.2051 9.13604C16.2051 9.06714 16.2149 8.99824 16.2337 8.93129L14.5873 7.98751V11.422H14.5847L14.5782 11.6469L14.4852 11.6905L13.8918 12.0454L14.4592 12.3834L14.5496 12.4263L14.5522 12.4666L14.5554 12.4841H14.558ZM11.9321 7.00083C11.7163 7.00083 11.5109 6.90983 11.3673 6.74928L9.64478 7.73661V11.3844L10.352 11.8055L11.2451 11.2804C11.2266 11.1837 11.2298 11.0843 11.2544 10.989C11.279 10.8938 11.3243 10.8052 11.3872 10.7296C11.4501 10.6539 11.529 10.5932 11.6181 10.5516C11.7073 10.5101 11.8045 10.4888 11.9028 10.4893C11.9988 10.4891 12.0937 10.5096 12.181 10.5495C12.2683 10.5893 12.346 10.6476 12.4087 10.7202C12.4714 10.7929 12.5177 10.8782 12.5443 10.9704C12.571 11.0626 12.5775 11.1594 12.5632 11.2544L13.4856 11.8029L14.1694 11.3935V7.74766L12.4703 6.77463C12.4001 6.84619 12.3164 6.903 12.224 6.94173C12.1315 6.98047 12.0323 7.00034 11.9321 7.00018V7.00083ZM12.3741 12.475L13.078 12.0512L12.3708 11.6294C12.248 11.7488 12.0842 11.8168 11.913 11.8195C11.7417 11.8223 11.5758 11.7597 11.4492 11.6443L10.7537 12.048L11.4459 12.4607C11.5728 12.3434 11.74 12.2795 11.9129 12.2821C12.0857 12.2848 12.2508 12.3539 12.3741 12.475ZM7.48097 15.1705L9.22294 16.1689V12.5992L9.22619 12.4841L9.25544 12.4549L9.40104 12.3684L9.94183 12.0512L9.45304 11.7626L9.22619 11.6469V11.5085H9.22359V7.97581L7.51542 8.95469C7.61617 9.34469 7.38542 9.74378 6.99543 9.85493V14.1604C7.20148 14.2202 7.37242 14.3652 7.46537 14.5576C7.55832 14.7506 7.56417 14.9736 7.48097 15.1705ZM11.9321 16.986C12.1693 16.986 12.3923 17.0964 12.534 17.2862L14.1395 16.4088V12.6804L13.4856 12.2904L12.5626 12.8449C12.5691 12.8774 12.5717 12.9099 12.5717 12.9424C12.5717 13.3096 12.2727 13.6067 11.9022 13.6067C11.8049 13.6067 11.7087 13.5854 11.6205 13.5444C11.5323 13.5033 11.4541 13.4433 11.3916 13.3688C11.329 13.2943 11.2835 13.2069 11.2583 13.1129C11.2331 13.0189 11.2288 12.9206 11.2457 12.8247L10.3403 12.2878L9.64218 12.6947V16.4088L11.2834 17.3493C11.4199 17.1231 11.6662 16.9853 11.9321 16.986Z" fill="white"/>
</g>
<defs>
<clipPath id="clip0_1265_21517">
<rect width="24" height="24" fill="white"/>
</clipPath>
</defs>
</svg>