<svg width="24" height="24" viewBox="0 0 24 24" fill="none" xmlns="http://www.w3.org/2000/svg">
<g clip-path="url(#clip0_1265_21513)">
<path d="M12 24C18.6274 24 24 18.6274 24 12C24 5.37258 18.6274 0 12 0C5.37258 0 0 5.37258 0 12C0 18.6274 5.37258 24 12 24Z" fill="#0050DB"/>
<path d="M11.9999 18.5C11.5782 18.4998 11.1643 18.3864 10.8013 18.1718L7.35241 16.1437C6.98515 15.9253 6.68113 15.6149 6.47027 15.2433C6.25942 14.8716 6.14901 14.4514 6.14991 14.0241V9.9746C6.15 9.54765 6.26084 9.12803 6.47161 8.75674C6.68238 8.38544 6.98586 8.07518 7.35241 7.85625L10.8013 5.82825C11.1663 5.6138 11.5818 5.50049 12.0051 5.5C12.4244 5.5 12.8371 5.6131 13.1985 5.82825L16.6474 7.8569C17.0145 8.07524 17.3184 8.38538 17.5292 8.75681C17.7401 9.12824 17.8506 9.54815 17.8499 9.97525V14.0247C17.8499 14.4518 17.7391 14.8716 17.5284 15.243C17.3176 15.6144 17.014 15.9248 16.6474 16.1437L13.1985 18.1718C12.8345 18.3863 12.4211 18.5 11.9999 18.5ZM10.0161 14.3211L9.37716 14.9711C9.54186 15.1418 9.73957 15.2772 9.95825 15.3691C10.1769 15.4609 10.412 15.5073 10.6492 15.5054C11.6437 15.5041 12.451 14.6838 12.4523 13.6705V13.1167C12.7253 13.2772 13.0354 13.3617 13.3506 13.3611C13.5883 13.3656 13.8244 13.321 14.0442 13.2302C14.2639 13.1394 14.4626 13.0043 14.6279 12.8333L13.9896 12.1833C13.8206 12.3562 13.5905 12.4537 13.3506 12.4537C13.1103 12.4511 12.8809 12.3534 12.7125 12.182C12.5441 12.0106 12.4506 11.7794 12.4523 11.5392V8.48675H11.554V13.6763C11.554 14.1827 11.151 14.5928 10.6538 14.5928C10.5347 14.5925 10.4169 14.5683 10.3074 14.5216C10.1979 14.4749 10.0988 14.4068 10.0161 14.3211Z" fill="white"/>
</g>
<defs>
<clipPath id="clip0_1265_21513">
<rect width="24" height="24" fill="white"/>
</clipPath>
</defs>
</svg>
