<svg viewBox="0 0 24 24" fill="none" xmlns="http://www.w3.org/2000/svg">
<path fill-rule="evenodd" clip-rule="evenodd" d="M12 22C6.48583 22 2 17.5133 2 12C2 6.48583 6.48583 2 12 2C17.5142 2 22 6.48583 22 12C22 17.5133 17.5142 22 12 22ZM12 3.66667C7.405 3.66667 3.66667 7.405 3.66667 12C3.66667 16.595 7.405 20.3333 12 20.3333C16.595 20.3333 20.3333 16.595 20.3333 12C20.3333 7.405 16.595 3.66667 12 3.66667ZM13.21 11.1667H13.6667C14.1275 11.1667 14.5 11.54 14.5 12C14.5 12.46 14.1275 12.8333 13.6667 12.8333H12.8358L12.8333 13.6667H13.6667C14.1275 13.6667 14.5 14.04 14.5 14.5C14.5 14.96 14.1275 15.3333 13.6667 15.3333H12.83L12.8275 16.1692C12.8267 16.6283 12.4533 17 11.9942 17C11.9933 17 11.9925 17 11.9925 17C11.5317 16.9992 11.16 16.625 11.1608 16.165L11.1633 15.3333H10.3333C9.87249 15.3333 9.49999 14.96 9.49999 14.5C9.49999 14.04 9.87249 13.6667 10.3333 13.6667H11.1667L11.1692 12.8333H10.3333C9.87249 12.8333 9.49999 12.46 9.49999 12C9.49999 11.54 9.87249 11.1667 10.3333 11.1667H10.7892L8.81416 8.30667C8.55249 7.92833 8.64749 7.40917 9.02666 7.1475C9.40499 6.88583 9.92416 6.98 10.1858 7.36L12 9.98583L13.8142 7.36C14.075 6.98 14.5933 6.88583 14.9733 7.1475C15.3525 7.40917 15.4475 7.92833 15.1858 8.30667L13.21 11.1667Z" fill="currentColor"/>
</svg>