<svg viewBox="0 0 24 24" fill="none" xmlns="http://www.w3.org/2000/svg">
<path fill-rule="evenodd" clip-rule="evenodd" d="M18.1721 3.32648L12.7388 11.1572V11.1673H15.833C16.2939 11.1673 16.6669 11.54 16.6669 12.0007C16.6669 12.4605 16.2939 12.8341 15.833 12.8341H12.7388V13.6667H15.833C16.2939 13.6667 16.6669 14.0403 16.6669 14.5001C16.6669 14.9608 16.2939 15.3335 15.833 15.3335H12.7388V21.2085C12.7379 21.6683 12.113 22 11.6538 22C11.6529 22 11.6521 22 11.6512 22C11.1912 21.9992 11.0466 21.6691 11.0474 21.2085V15.3335H7.49988C7.039 15.3335 6.66606 14.9608 6.66606 14.5001C6.66606 14.0403 7.039 13.6667 7.49988 13.6667H11.0474V12.8341H7.49988C7.039 12.8341 6.66606 12.4605 6.66606 12.0007C6.66606 11.54 7.039 11.1673 7.49988 11.1673H10.9054L5.16078 3.32648C4.88933 2.95542 4.96966 2.43359 5.34091 2.16137C5.71131 1.88915 6.23224 1.96956 6.50539 2.34062L11.6665 9.3857L16.8275 2.34062C17.1007 1.96956 17.6233 1.88915 17.9928 2.16137C18.3632 2.43359 18.4444 2.95542 18.1721 3.32648Z" fill="currentColor"/>
</svg>