<svg viewBox="0 0 24 24" fill="none" xmlns="http://www.w3.org/2000/svg">
<g clip-path="url(#clip0_1265_21505)">
<path d="M12 24C18.6274 24 24 18.6274 24 12C24 5.37258 18.6274 0 12 0C5.37258 0 0 5.37258 0 12C0 18.6274 5.37258 24 12 24Z" fill="#0093DD"/>
<path fill-rule="evenodd" clip-rule="evenodd" d="M9.86184 11.9996L13.5988 15.8492L15.9569 13.4203C16.0544 13.3186 16.1715 13.2376 16.3011 13.1823C16.4306 13.127 16.5701 13.0985 16.711 13.0985C16.8519 13.0985 16.9913 13.127 17.1209 13.1823C17.2505 13.2376 17.3675 13.3186 17.465 13.4203C17.6656 13.6293 17.7776 13.9078 17.7776 14.1975C17.7776 14.4871 17.6656 14.7656 17.465 14.9746L14.3528 18.1814C14.2548 18.2822 14.1376 18.3624 14.0081 18.4171C13.8786 18.4718 13.7394 18.5 13.5988 18.5C13.4582 18.5 13.319 18.4718 13.1895 18.4171C13.06 18.3624 12.9427 18.2822 12.8447 18.1814L8.35522 13.5547V16.305C8.35522 16.9088 7.8742 17.4043 7.28845 17.4043C6.69909 17.4043 6.22168 16.9117 6.22168 16.305V7.69501C6.22168 7.08832 6.69909 6.59574 7.28845 6.59574C7.87709 6.59574 8.35522 7.08832 8.35522 7.69501V10.4453L12.8447 5.81859C12.9427 5.71778 13.06 5.63764 13.1895 5.58292C13.319 5.52819 13.4582 5.5 13.5988 5.5C13.7394 5.5 13.8786 5.52819 14.0081 5.58292C14.1376 5.63764 14.2548 5.71778 14.3528 5.81859L17.4657 9.0254C17.6663 9.2344 17.7783 9.51287 17.7783 9.80254C17.7783 10.0922 17.6663 10.3707 17.4657 10.5797C17.3682 10.6816 17.2511 10.7628 17.1214 10.8182C16.9916 10.8736 16.852 10.9022 16.711 10.9022C16.5699 10.9022 16.4303 10.8736 16.3006 10.8182C16.1709 10.7628 16.0537 10.6816 15.9562 10.5797L13.5988 8.15003L9.86184 11.9996ZM13.6002 10.8996C14.1896 10.8996 14.6677 11.3922 14.6677 11.9996C14.6677 12.6071 14.1896 13.0996 13.6002 13.0996C13.0109 13.0996 12.5327 12.6071 12.5327 11.9996C12.5327 11.3922 13.0109 10.8996 13.6002 10.8996Z" fill="white"/>
</g>
<defs>
<clipPath id="clip0_1265_21505">
<rect width="24" height="24" fill="white"/>
</clipPath>
</defs>
</svg>