<svg viewBox="0 0 24 24" fill="none" xmlns="http://www.w3.org/2000/svg">
<g clip-path="url(#clip0_1265_21492)">
<path d="M12 24C18.6274 24 24 18.6274 24 12C24 5.37258 18.6274 0 12 0C5.37258 0 0 5.37258 0 12C0 18.6274 5.37258 24 12 24Z" fill="#EC008C"/>
<path d="M12 23.16C18.1635 23.16 23.16 18.1635 23.16 12C23.16 5.83647 18.1635 0.839966 12 0.839966C5.83647 0.839966 0.839966 5.83647 0.839966 12C0.839966 18.1635 5.83647 23.16 12 23.16Z" fill="#EC008C"/>
<path d="M13.6655 6L9.5282 10.3522V13.9701L17.1849 6H13.6655Z" fill="url(#paint0_linear_1265_21492)"/>
<path d="M10.576 12.8776L13.9969 18H17.4447L12.5641 10.809L10.576 12.8776Z" fill="url(#paint1_linear_1265_21492)"/>
<path d="M9.52831 6H6.55518V17.991H9.52831V6Z" fill="white"/>
</g>
<defs>
<linearGradient id="paint0_linear_1265_21492" x1="11.7712" y1="9.98507" x2="7.35637" y2="13.9701" gradientUnits="userSpaceOnUse">
<stop stop-color="white"/>
<stop offset="1" stop-color="white" stop-opacity="0"/>
</linearGradient>
<linearGradient id="paint1_linear_1265_21492" x1="14.0104" y1="15.7525" x2="11.0355" y2="10.809" gradientUnits="userSpaceOnUse">
<stop stop-color="white"/>
<stop offset="1" stop-color="white" stop-opacity="0"/>
</linearGradient>
<clipPath id="clip0_1265_21492">
<rect width="24" height="24" fill="white"/>
</clipPath>
</defs>
</svg>