<svg width="24" height="24" viewBox="0 0 24 24" fill="none" xmlns="http://www.w3.org/2000/svg">
<path fill-rule="evenodd" clip-rule="evenodd" d="M12 22C6.48583 22 2 17.5142 2 12C2 6.48583 6.48583 2 12 2C17.5142 2 22 6.48583 22 12C22 17.5142 17.5142 22 12 22ZM12 3.66667C7.405 3.66667 3.66667 7.405 3.66667 12C3.66667 16.595 7.405 20.3333 12 20.3333C16.595 20.3333 20.3333 16.595 20.3333 12C20.3333 7.405 16.595 3.66667 12 3.66667ZM14.2242 12.7483L15.2892 15.9C15.375 16.1542 15.3333 16.4342 15.1767 16.6525C15.0208 16.8708 14.7683 17 14.5 17H9.5C9.23167 17 8.98 16.8708 8.82333 16.6525C8.66583 16.4342 8.625 16.1542 8.71083 15.9L9.775 12.7525C9.0875 12.12 8.66667 11.2483 8.66667 10.3333C8.66667 8.495 10.1617 7 12 7C13.8383 7 15.3333 8.495 15.3333 10.3333C15.3333 11.245 14.9125 12.115 14.2242 12.7483ZM12 8.66667C11.0808 8.66667 10.3333 9.41417 10.3333 10.3333C10.3333 10.895 10.6583 11.44 11.1817 11.7575C11.2042 11.7717 11.2167 11.7933 11.2367 11.8083C11.2833 11.8425 11.3225 11.88 11.3608 11.9225C11.3967 11.9617 11.4283 12.0008 11.455 12.0467C11.4825 12.0917 11.5025 12.1383 11.5208 12.1883C11.5392 12.2392 11.5542 12.2883 11.5625 12.3417C11.5708 12.3925 11.5717 12.4425 11.57 12.495C11.5683 12.5525 11.5625 12.6067 11.5492 12.6633C11.5425 12.6875 11.5475 12.7125 11.5392 12.7375L10.6617 15.3333H13.3383L12.4608 12.7342C12.4525 12.71 12.4575 12.685 12.4517 12.6608C12.4375 12.605 12.4317 12.55 12.43 12.4933C12.4283 12.44 12.4292 12.39 12.4367 12.3392C12.4458 12.2858 12.4608 12.2375 12.4792 12.1867C12.4975 12.1358 12.5167 12.0892 12.5442 12.0433C12.5717 11.9983 12.6033 11.9592 12.6383 11.92C12.6758 11.8775 12.715 11.84 12.7617 11.8058C12.7817 11.7908 12.7942 11.7692 12.8158 11.7558C13.3408 11.4358 13.6667 10.8908 13.6667 10.3333C13.6667 9.41417 12.9192 8.66667 12 8.66667Z" fill="#6B7084"/>
</svg>
