<svg width="24" height="24" viewBox="0 0 24 24" fill="none" xmlns="http://www.w3.org/2000/svg">
<path fill-rule="evenodd" clip-rule="evenodd" d="M15.75 3.05001C12.8781 3.05001 10.55 5.37813 10.55 8.25001C10.55 8.55491 10.5761 8.85306 10.6261 9.14251C10.7555 9.89128 10.6069 10.7745 9.97364 11.4077L3.47465 17.9067C3.20272 18.1786 3.04995 18.5474 3.04995 18.932V20.95H5.19995V19.5C5.19995 19.0582 5.55812 18.7 5.99995 18.7H7.44995V17.25C7.44995 16.8082 7.80812 16.45 8.24995 16.45H10.1686L12.5923 14.0263C13.2255 13.3931 14.1087 13.2445 14.8575 13.3738C15.1469 13.4239 15.4451 13.45 15.75 13.45C18.6218 13.45 20.95 11.1219 20.95 8.25001C20.95 5.37813 18.6218 3.05001 15.75 3.05001ZM8.94995 8.25001C8.94995 4.49448 11.9944 1.45001 15.75 1.45001C19.5055 1.45001 22.5499 4.49448 22.5499 8.25001C22.5499 12.0055 19.5055 15.05 15.75 15.05C15.3534 15.05 14.9641 15.016 14.585 14.9505C14.2078 14.8853 13.8984 14.9829 13.7236 15.1577L11.0656 17.8157C10.9156 17.9657 10.7121 18.05 10.5 18.05H9.04995V19.5C9.04995 19.9418 8.69178 20.3 8.24995 20.3H6.79995V21.75C6.79995 22.1918 6.44178 22.55 5.99995 22.55H2.24995C1.80812 22.55 1.44995 22.1918 1.44995 21.75V18.932C1.44995 18.1231 1.77129 17.3473 2.34328 16.7753L8.84227 10.2763C9.01705 10.1015 9.11466 9.79219 9.04948 9.41492C8.98399 9.03588 8.94995 8.6466 8.94995 8.25001ZM14.95 5.25001C14.95 4.80818 15.3081 4.45001 15.75 4.45001C17.8486 4.45001 19.5499 6.15133 19.5499 8.25001C19.5499 8.69184 19.1918 9.05001 18.75 9.05001C18.3081 9.05001 17.95 8.69184 17.95 8.25001C17.95 7.03499 16.965 6.05001 15.75 6.05001C15.3081 6.05001 14.95 5.69184 14.95 5.25001Z" fill="#6B7084"/>
</svg>
