<svg viewBox="0 0 24 24" fill="none" xmlns="http://www.w3.org/2000/svg">
<path fill-rule="evenodd" clip-rule="evenodd" d="M20.2608 9.24783L20.2304 9.21739H3.76953L3.7391 17.8826L20.2304 17.913L20.2608 9.24783ZM3.7391 7.47826H3.76953H20.2304H20.2608V5.73913H20.2304H3.76953H3.7391V7.47826ZM22 8.04783C22 8.21826 21.9513 8.3913 21.8557 8.5513C21.9478 8.76522 22 9 22 9.24783V17.8826C22 18.8583 21.2061 19.6522 20.2304 19.6522H3.76957C2.79391 19.6522 2 18.8583 2 17.8826V9.24783C2 9 2.05217 8.76522 2.14435 8.5513C2.0487 8.3913 2 8.21826 2 8.04783V5.16957C2 4.60348 2.46522 4 3.76957 4H20.2304C21.5348 4 22 4.60348 22 5.16957V8.04783ZM8.08693 17.0443H15.913V15.3052H8.08693V17.0443ZM5.47829 17.0443H7.21742V15.3052H5.47829V17.0443ZM4.60874 11.8269H6.34787V10.0878H4.60874V11.8269ZM7.21739 11.8269H8.95652V10.0878H7.21739V11.8269ZM9.82613 11.8269H11.5653V10.0878H9.82613V11.8269ZM12.4348 11.8269H14.1739V10.0878H12.4348V11.8269ZM17.6522 11.8269H19.3913V10.0878H17.6522V11.8269ZM15.0435 11.8269H16.7826V10.0878H15.0435V11.8269ZM4.60874 14.4356H6.34787V12.6965H4.60874V14.4356ZM7.21739 14.4356H8.95652V12.6965H7.21739V14.4356ZM9.82613 14.4356H11.5653V12.6965H9.82613V14.4356ZM12.4348 14.4356H14.1739V12.6965H12.4348V14.4356ZM15.0435 14.4356H16.7826V12.6965H15.0435V14.4356ZM17.6522 14.4356H19.3913V12.6965H17.6522V14.4356ZM16.7826 17.0443H18.5217V15.3052H16.7826V17.0443Z" fill="currentColor"/>
</svg>