<svg width="24" height="24" viewBox="0 0 24 24" fill="none" xmlns="http://www.w3.org/2000/svg">
<g clip-path="url(#clip0_1265_21481)">
<path d="M12 24C18.6274 24 24 18.6274 24 12C24 5.37258 18.6274 0 12 0C5.37258 0 0 5.37258 0 12C0 18.6274 5.37258 24 12 24Z" fill="#EA0017"/>
<path d="M15.063 11.6757C15.0829 11.6757 15.1309 11.6962 15.1719 11.7206C15.2846 11.7892 15.3428 11.927 15.332 12.0924C15.3256 12.2053 15.298 12.2822 15.1847 12.513C15.1079 12.6694 14.9632 12.9317 14.8646 13.0964C14.6943 13.3773 14.6129 13.5247 14.6129 13.5472C14.6129 13.5536 14.7282 13.4497 14.8691 13.3164C15.1328 13.0676 15.3179 12.9496 15.4017 12.9766C15.5151 13.0131 15.549 13.2279 15.4741 13.4433C15.4312 13.5715 15.3159 13.8049 15.2007 14.0017C15.1341 14.1107 15.1284 14.1325 15.2404 14.0684L15.3339 14.0133C15.5669 13.8729 15.7161 13.8575 15.7974 13.9684C15.8871 14.0902 15.8717 14.4614 15.7609 14.7826C15.736 14.8551 15.7225 14.9205 15.7289 14.9275C15.736 14.9339 15.8057 14.9115 15.8826 14.8775C15.962 14.8416 16.0798 14.8006 16.1476 14.7852C16.3756 14.7307 16.4729 14.8282 16.5158 15.1513C16.5542 15.4321 16.4479 15.6655 16.2533 15.7354C16.22 15.7469 16.2149 15.7418 16.2264 15.6995C16.2354 15.67 16.2469 15.618 16.2558 15.5815C16.2674 15.5225 16.2648 15.5206 16.2238 15.543C16.1585 15.577 16.0843 15.7129 16.0574 15.8488C15.9761 16.2515 15.8743 16.4502 15.6073 16.7221C15.3134 17.0208 15.0086 17.2222 14.5342 17.435C14.3127 17.5344 14.0009 17.7312 13.6686 17.9825L13.5712 18.0569L13.3792 17.8806L13.2831 17.796C13.0904 17.6331 12.8971 17.5062 12.7421 17.4434C12.6958 17.4257 12.6499 17.4071 12.6045 17.3876C12.6 17.3831 12.6384 17.3331 12.6903 17.2741C12.7408 17.2157 12.7799 17.1482 12.8055 17.0753C12.8375 16.9503 12.8548 16.9215 12.9252 16.8804C13.0065 16.8356 13.1378 16.8715 13.4496 17.0279C13.5873 17.0952 13.7044 17.1523 13.7159 17.1523C13.7409 17.1523 13.7364 17.0862 13.7044 17.0029C13.6801 16.9349 13.6891 16.8939 13.7928 16.5817C13.9304 16.1701 13.9669 16.0207 13.94 15.9931C13.9061 15.9591 13.8786 16.0136 13.7204 16.4163C13.6372 16.6272 13.5648 16.8061 13.5604 16.8106C13.5533 16.817 13.5034 16.799 13.447 16.7721C13.3542 16.7266 13.3452 16.7131 13.3568 16.6631C13.4221 16.4002 13.4605 15.8078 13.4201 15.6629C13.3907 15.561 13.3587 15.6039 13.3318 15.7828C13.2729 16.163 13.2076 16.4643 13.1807 16.4913C13.1551 16.5163 13.1397 16.5092 13.0898 16.4502L13.0315 16.3778V14.2518L13.5328 13.6042L13.6359 13.4709C14.4382 12.4342 14.668 12.1354 14.846 11.9071C14.9452 11.7802 15.0426 11.6763 15.063 11.6763V11.6757ZM10.6632 14.8942C10.8777 14.6897 10.9257 14.6717 11 14.7762C11.0563 14.8532 11.0877 15.034 11.0877 15.2808V15.484L11.1921 15.595L11.2343 15.6437C11.2759 15.695 11.3137 15.7527 11.3271 15.7847C11.3611 15.8687 11.3752 16.1899 11.3476 16.2989C11.3387 16.3348 11.3611 16.4028 11.4225 16.5208C11.8406 17.3222 11.9264 17.4959 11.9155 17.5094L11.9015 17.512L11.8758 17.51C11.8514 17.5057 11.8274 17.4993 11.8041 17.4908C11.7068 17.46 11.5916 17.4549 11.1831 17.4664C10.9366 17.4728 10.7893 17.4325 10.7759 17.3536C10.7695 17.3215 10.8617 17.1741 11.0563 16.9048C11.1152 16.824 11.1216 16.7766 11.0883 16.7221C11.0723 16.6951 10.9929 16.6855 10.7042 16.6772C10.2201 16.6612 10.2048 16.6336 10.5454 16.3759C10.6882 16.2669 10.8553 16.095 10.8751 16.0361C10.8822 16.0136 10.8706 15.9707 10.8508 15.9392L10.8124 15.8803L10.5371 15.8963L10.4622 15.9001C10.1587 15.913 10.1036 15.8694 10.2061 15.7264C10.2317 15.6924 10.2445 15.6584 10.2361 15.6495C10.2297 15.643 10.0953 15.636 9.94419 15.636C9.68424 15.636 9.44927 15.6065 9.40893 15.57C9.39997 15.561 9.51074 15.5161 9.65735 15.4706C9.90833 15.3936 10.2451 15.2398 10.3988 15.1308C10.4899 15.0551 10.5781 14.9759 10.6632 14.8936V14.8942ZM11.5 12.9451C11.5103 12.9515 11.5352 13.1535 11.5621 13.3959C11.5877 13.6376 11.6076 13.8594 11.6076 13.8863C11.6076 13.9158 11.6165 13.9389 11.6281 13.9389C11.639 13.9389 11.7068 13.8479 11.7792 13.735C11.8541 13.6241 11.92 13.5311 11.9264 13.5311C11.9444 13.5311 11.9559 13.617 12.0161 14.2601C12.0462 14.5563 12.0756 14.7987 12.082 14.7987C12.0884 14.7987 12.1249 14.6717 12.1588 14.5159C12.1953 14.3595 12.2312 14.2325 12.2402 14.2325C12.2536 14.2325 12.8753 16.0341 12.8734 16.07C12.8734 16.12 12.8189 16.0611 12.6019 15.7809C12.4706 15.6084 12.3464 15.4501 12.3266 15.4231L12.2856 15.3757L12.2248 15.4436L12.1992 15.4725C12.141 15.538 12.0824 15.6029 12.0231 15.6674L11.881 15.8238L11.8694 15.7469L11.8675 15.7277C11.8573 15.6443 11.8285 15.343 11.7997 15.0179C11.7702 14.6583 11.7388 14.355 11.7292 14.3435C11.7228 14.3326 11.637 14.396 11.5371 14.4864C11.4379 14.5768 11.3476 14.6557 11.3342 14.6583C11.3207 14.6627 11.3182 14.6313 11.3252 14.5788C11.3412 14.4633 11.4949 13.0112 11.4949 12.9676C11.4949 12.9496 11.4994 12.9406 11.5058 12.9451H11.5ZM8.59965 11.6962C8.76227 11.6757 9.09905 11.6936 9.25527 11.7366C9.42686 11.7795 9.61894 11.8616 9.7726 11.9495C9.92434 12.0399 10.297 12.4002 10.3533 12.5137C10.3981 12.6034 10.4212 12.615 10.1478 12.4066C9.93194 12.2463 9.69264 12.1205 9.43839 12.0334C9.31161 11.9937 9.23991 11.9834 9.04463 11.9821L8.95243 11.9815C8.66752 11.9815 8.61822 11.9879 8.45495 12.0424C7.42221 12.3931 6.90041 13.7081 7.44078 14.5973C7.60085 14.8641 7.85887 15.1019 8.20653 15.3026C8.40309 15.418 8.38772 15.4372 8.14571 15.3757C7.9304 15.322 7.72969 15.2211 7.55806 15.0803C7.38644 14.9395 7.24819 14.7623 7.15331 14.5614C7.0291 14.3076 6.97532 14.0723 6.95931 13.735C6.9369 13.1901 7.07904 12.7573 7.41773 12.3457C7.68664 12.0174 8.16363 11.7571 8.59965 11.6962ZM7.76795 13.4593C7.80189 13.3548 7.80637 13.3619 7.8928 13.6017C8.06497 14.0562 8.3262 14.4717 8.66111 14.8237C8.73987 14.907 8.80517 14.982 8.80517 14.9904C8.80517 15.0269 8.62718 14.982 8.45751 14.9051C8.04647 14.7128 7.80445 14.312 7.75259 13.7254C7.74362 13.6036 7.74619 13.5222 7.76795 13.4587V13.4593ZM9.6644 10.0805C9.94867 10.0376 9.96276 10.0421 9.77708 10.128C9.68425 10.1709 9.59397 10.2113 9.5786 10.2229L9.56068 10.2338C9.50945 10.271 9.60357 10.2851 9.92882 10.2953C10.3424 10.3069 10.345 10.3088 10.3104 10.4447C10.297 10.4992 10.2925 10.4992 10.0415 10.4992C9.89708 10.5011 9.75293 10.5125 9.60997 10.5332C9.4339 10.5652 9.17844 10.671 9.17844 10.714C9.17844 10.7255 9.28472 10.748 9.41534 10.764C9.81806 10.8114 10.2093 10.9179 10.4801 11.0538C10.5864 11.1102 10.6427 11.182 10.8553 11.5513C11.427 12.5399 11.5128 12.6803 11.7183 12.9541C11.9808 13.3029 12.2626 13.6196 12.5699 13.9113L12.8503 14.1761V14.5435C12.8478 14.6768 12.8394 14.7794 12.8279 14.7871C12.8055 14.8006 12.8189 14.8237 12.5116 14.3005C12.2876 13.9194 12.0455 13.5493 11.7862 13.1913C11.7201 13.1017 11.6581 13.0091 11.6005 12.9137C11.5941 12.8932 11.5736 12.8753 11.5576 12.8727C11.5423 12.8727 11.468 12.8002 11.3931 12.7124C11.1805 12.463 10.7016 12.0309 10.3757 11.7981C10.1888 11.6622 9.94227 11.4949 9.92882 11.4949C9.92434 11.4949 9.84495 11.4539 9.75211 11.4019C9.54711 11.293 9.33232 11.2037 9.11057 11.1352C8.95435 11.0923 8.64319 11.0807 8.44407 11.1076C8.15687 11.1589 7.88083 11.26 7.62838 11.4064C7.5656 11.447 7.50062 11.484 7.43374 11.5173C7.41773 11.5173 7.21925 11.6597 7.06559 11.7847C6.99516 11.8411 6.93882 11.8725 6.93434 11.8591C6.92281 11.827 7.11297 11.5628 7.27816 11.375C7.50182 11.1393 7.74945 10.9276 8.01701 10.7435C8.4844 10.4312 9.16948 10.1549 9.6644 10.0805ZM8.12074 12.9022C8.0375 12.6739 8.03942 12.6553 8.14571 12.7163C8.22042 12.7628 8.29345 12.812 8.36467 12.8637C8.80197 13.1893 9.15464 13.6155 9.39293 14.1062C9.49025 14.312 9.55811 14.5044 9.54211 14.5204L9.52994 14.523L9.50881 14.5166C9.39997 14.4717 9.06063 14.196 8.80517 13.9389C8.48248 13.6106 8.25647 13.2734 8.12074 12.9022ZM8.87304 12.2912C8.87304 12.2642 9.11506 12.3277 9.25719 12.3931C9.55363 12.5265 9.77068 12.7842 9.86544 13.1061C9.92882 13.3234 9.94675 13.4882 9.92434 13.6581C9.90577 13.8094 9.90833 13.8145 9.7662 13.4952C9.59601 13.1413 9.37082 12.8167 9.09905 12.5335C9.02115 12.4552 8.94577 12.3744 8.87304 12.2912ZM12.5795 8.51232C12.6903 8.48026 12.6883 8.48026 12.7242 8.53475C12.785 8.62964 12.8958 8.99894 12.9432 9.26822C12.9726 9.44453 12.9931 9.68688 13.0021 9.97603L13.0149 10.4152L12.9047 10.3998L12.8798 10.396C12.7235 10.3703 12.5961 10.3222 11.7497 9.96706C11.2932 9.77471 10.9161 9.62341 10.9091 9.62982C10.8982 9.64136 11.1242 10.0869 11.2753 10.3517C11.5506 10.8319 12.0615 11.0923 12.6518 11.0538C12.8209 11.0422 12.8823 11.0467 12.9336 11.0717C13.0558 11.1371 13.1352 11.2506 13.2095 11.4718C13.3023 11.7436 13.472 12.0745 13.6167 12.2642C13.6775 12.3457 13.7256 12.4136 13.7256 12.4136C13.723 12.4156 13.6506 12.4021 13.5623 12.3861C13.1666 12.3046 12.4822 12.0174 12.2971 11.8546C12.0846 11.6667 12.2786 11.9674 12.5046 12.1738C12.7799 12.4271 13.1781 12.6464 13.6321 12.7983C13.7678 12.8432 13.8831 12.8842 13.8856 12.8862C13.9106 12.9092 13.2434 13.6895 13.2031 13.6895C13.1621 13.6895 12.9316 13.5517 12.7082 13.3959C12.4617 13.2234 11.9034 12.6739 11.7049 12.4111C11.1339 11.6438 10.7164 10.7732 10.4756 9.84716L10.4052 9.58943L10.4935 9.49903L10.5505 9.44517C10.8866 9.15025 11.7369 8.75915 12.5795 8.51232ZM16.0433 7.74744C16.0929 7.75229 16.1409 7.76758 16.1841 7.79232C16.2201 7.81764 16.2513 7.84911 16.2763 7.88528C16.2968 7.91478 16.5363 8.81493 16.8077 9.88114C17.35 12.0059 17.3456 11.977 17.2233 12.1059C17.1848 12.1438 17.1397 12.1743 17.0901 12.1956C16.9857 12.2303 15.3742 12.5803 15.3659 12.572C15.3747 12.5245 15.3906 12.4787 15.4133 12.4361C15.5285 12.1732 15.5349 11.9296 15.4261 11.7552C15.3518 11.6334 15.1597 11.518 15.0355 11.518C14.9632 11.518 14.9408 11.5398 14.5566 12.0373C14.3351 12.3258 14.1456 12.5515 14.1366 12.5425C14.127 12.5335 13.9215 11.6513 13.6756 10.5851C13.3587 9.20923 13.2345 8.62516 13.246 8.57835C13.2695 8.49147 13.3242 8.41634 13.3997 8.36742C13.497 8.31549 15.9556 7.73846 16.0439 7.74744H16.0433ZM16.4166 10.3158C16.4121 10.3069 16.3308 10.3723 16.2354 10.4633C16.1406 10.5511 15.9466 10.7326 15.8064 10.8659L15.5484 11.1076L14.9952 10.9288C14.8068 10.8639 14.6161 10.8059 14.4234 10.755C14.4145 10.7569 14.6264 10.9583 14.8979 11.2006C15.1713 11.443 15.4677 11.7097 15.5599 11.7956C15.6527 11.8789 15.736 11.9405 15.7456 11.9315C15.7699 11.9065 16.423 10.3338 16.4166 10.3158ZM15.063 11.0217C15.2186 11.0737 15.3928 11.1211 15.4491 11.1307L15.5509 11.1435L15.6258 11.4814C15.6662 11.6667 15.6956 11.8231 15.6886 11.8276C15.6841 11.8321 15.6303 11.7866 15.5714 11.7276C15.4163 11.5803 15.2588 11.4356 15.0989 11.2936C14.973 11.1822 14.8503 11.0674 14.7308 10.9493C14.7173 10.9153 14.7711 10.9268 15.063 11.0217ZM9.53955 8.20008C9.91922 8.10519 10.0703 8.08211 10.0703 8.12058C10.0703 8.13212 10.0159 8.15456 9.95251 8.16802C9.76748 8.21355 9.29049 8.38088 9.05359 8.48539C8.79557 8.59823 8.46583 8.79057 8.34162 8.89892L8.25135 8.97586L8.3301 8.99445L8.42742 9.01753C8.75011 9.10344 9.34299 9.3272 9.6247 9.47402C9.83086 9.58045 10.0927 9.75933 10.0927 9.79523C10.0927 9.80421 10.0249 9.82023 9.94163 9.82921C9.59589 9.86319 9.02862 10.0036 8.62398 10.153C8.12906 10.3389 7.50097 10.6755 7.11681 10.9653C6.86583 11.1551 6.86583 11.1551 6.95419 11.0288C7.06047 10.8749 7.38316 10.5396 7.57972 10.3812C8.00485 10.044 8.56315 9.79972 9.15475 9.69329L9.24567 9.6779L9.0856 9.60289L9.00557 9.56891C8.65535 9.42914 7.92098 9.24834 7.48304 9.19769C7.4263 9.19224 7.3703 9.18085 7.31593 9.16371C7.25703 9.1323 8.02278 8.72069 8.47736 8.54181C8.82415 8.40638 9.17888 8.29226 9.53955 8.20008ZM14.9625 8.62516C14.7935 9.12524 14.3863 10.3883 14.3863 10.4152C14.3863 10.4357 14.3773 10.4582 14.3639 10.4652C14.2915 10.5101 14.3754 10.5486 14.9043 10.723C15.2135 10.823 15.4824 10.9063 15.5029 10.9063C15.5477 10.9063 16.3865 10.1209 16.3865 10.0805C16.3865 10.0645 16.0971 9.75035 15.7468 9.38362C15.5149 9.14343 15.2859 8.90042 15.0598 8.65465C15.0125 8.59374 14.9785 8.5822 14.9625 8.62516ZM11.9482 10.5152C11.9258 10.4511 11.9258 10.4511 11.9981 10.4652C12.0366 10.4742 12.1262 10.5082 12.1947 10.5422C12.3592 10.621 12.3663 10.6576 12.2171 10.6576C12.0769 10.6576 11.9776 10.6056 11.9482 10.5152ZM14.9945 8.74761C15.0054 8.75915 15.0669 9.00086 15.1303 9.28617L15.2474 9.80677L15.1841 9.86768C15.0963 9.95359 14.4247 10.4562 14.4157 10.4447C14.4093 10.4402 14.4247 10.3973 14.4497 10.3472C14.4945 10.2594 14.9401 8.91303 14.9625 8.79313C14.9715 8.75659 14.9856 8.73607 14.9945 8.74761ZM10.0159 8.39499L9.99797 8.5572L9.99093 8.62195C9.97748 8.75787 9.98581 8.79057 10.0249 8.79057C10.0505 8.79057 10.0658 8.83801 10.0838 8.97137C10.1222 9.22975 10.1311 9.48556 10.1043 9.4971C10.0908 9.49903 9.99541 9.45158 9.88977 9.39003C9.64308 9.24344 9.38458 9.11777 9.11698 9.01433C9.01966 8.97842 8.94027 8.94252 8.94027 8.93547C8.94027 8.88802 9.21814 8.67516 9.38589 8.59374C9.60037 8.48988 9.86928 8.39691 9.95956 8.39499H10.0159ZM13.472 7.30826C14.2627 7.15888 14.4279 7.14541 14.5681 7.21786C14.6155 7.24286 14.677 7.29287 14.7013 7.32878C14.7576 7.40571 14.9068 7.71602 14.9068 7.75193C14.9068 7.76796 14.7801 7.79681 14.5861 7.82886C13.1647 8.05326 11.9988 8.38986 11.1107 8.83545C10.8951 8.9378 10.6893 9.05992 10.4961 9.20026C10.3443 9.31566 10.3604 9.34772 10.3059 8.83353C10.2675 8.48539 10.2675 8.46487 10.3059 8.36293C10.3424 8.26804 10.3623 8.24945 10.4961 8.18213C10.8107 8.03751 11.1328 7.90974 11.461 7.79937C12.0641 7.60703 12.6672 7.45957 13.4714 7.30826H13.472ZM11.2798 5.78043H11.3028C11.3156 5.78043 11.3566 5.84454 11.3976 5.91892C11.5897 6.26962 11.9783 7.35378 11.9309 7.40122C11.8995 7.4196 11.8646 7.43118 11.8285 7.43521L11.7497 7.44867L11.6729 7.28326L11.6345 7.20055C11.404 6.7197 10.9904 6.06445 10.9411 6.11126C10.9347 6.11767 10.95 6.18371 10.975 6.25872C11.0903 6.5889 11.2458 7.32878 11.2458 7.53907C11.2458 7.60254 11.2349 7.62242 11.1895 7.64357C11.1618 7.65765 11.1319 7.66676 11.1011 7.6705C11.0883 7.6705 11.0134 7.58908 10.9411 7.4897C10.8687 7.38968 10.8009 7.31531 10.7919 7.32429C10.7855 7.33583 10.7624 7.44867 10.742 7.57754C10.708 7.81091 10.6741 7.8917 10.6382 7.83399C10.6293 7.81732 10.6088 7.58908 10.5934 7.32429C10.5857 7.14295 10.5729 6.96186 10.555 6.78125C10.548 6.74727 10.5524 6.72034 10.5633 6.72034C10.5748 6.72034 10.6632 6.79471 10.758 6.88703C10.8527 6.97807 10.934 7.04796 10.9385 7.03898C10.9571 7.005 10.7125 6.27411 10.5588 5.90289C10.546 5.87147 10.5678 5.85993 10.6971 5.84006C10.8527 5.81249 11.2618 5.77402 11.3028 5.78107L11.2798 5.78043ZM9.44031 6.26513C9.6215 6.14973 9.77516 6.11126 9.87632 6.15229C9.90705 6.16319 9.91474 6.18435 9.91538 6.34014V6.4844C9.91371 6.64372 9.90837 6.80298 9.89937 6.96205L9.88336 7.12233L9.46336 7.11143L9.29177 7.10887C8.94222 7.10375 8.59369 7.14799 8.25647 7.2403C8.11369 7.27684 7.98308 7.31082 7.96707 7.31275C7.95107 7.31724 7.93506 7.30377 7.93122 7.28582C7.91713 7.2044 8.43702 6.83318 9.01966 6.50748C9.19445 6.40746 9.38396 6.29911 9.44031 6.26513ZM11.7132 5.76953L11.8496 6.00034L11.8944 6.07728C12.1243 6.48248 12.4438 7.1608 12.4438 7.24928C12.4438 7.28774 12.292 7.32621 12.2651 7.2948C12.242 7.25599 12.2223 7.21523 12.2062 7.17298C12.039 6.79743 11.8553 6.42948 11.6556 6.07022C11.5991 5.97553 11.5455 5.8791 11.4949 5.78107C11.4949 5.77466 11.5442 5.76953 11.6031 5.76953H11.7139H11.7132ZM12.1294 5.79197H12.1659C12.2491 5.79197 12.5052 5.808 12.7332 5.82595C12.9592 5.84454 13.1685 5.86442 13.2005 5.87147L13.3139 5.89391C13.3843 5.90994 13.4381 5.99649 13.5962 6.33566C13.6999 6.5639 13.8536 6.9691 13.8382 6.98C13.5654 7.02256 13.2934 7.07087 13.0225 7.1249C12.728 7.18644 12.6698 7.18644 12.6698 7.12041C12.6698 7.07296 12.3125 6.33822 12.164 6.07984C11.9828 5.76953 11.9828 5.79197 12.1659 5.79197H12.1294Z" fill="white"/>
<path d="M12.5455 8.63661C12.6018 8.77446 12.6313 8.92192 12.6607 9.23159C12.6902 9.56241 12.744 10.0195 12.776 10.2093C12.7894 10.3068 12.8278 10.3273 12.8278 10.2388C12.8278 10.2068 12.8118 10.0824 12.7939 9.96056C12.7682 9.75575 12.7456 9.55056 12.726 9.34507C12.712 9.17989 12.6924 9.01523 12.6671 8.85139C12.6383 8.71355 12.5858 8.59814 12.5545 8.59814C12.5384 8.59814 12.5365 8.61417 12.5455 8.63661ZM13.0314 11.2845C13.0314 11.3839 13.3477 12.1122 13.4515 12.2507C13.5219 12.3475 13.5033 12.2597 13.422 12.1122C13.3042 11.8996 13.2036 11.6779 13.1211 11.4493C13.0699 11.3044 13.0314 11.2345 13.0314 11.2845Z" fill="white"/>
<path d="M10.3578 5.19884C12.1432 4.76255 14.0285 5.05061 15.6028 6.00026C16.6016 6.59523 17.5171 7.53194 18.0844 8.54109C18.6991 9.62974 19 10.7562 19 11.9648C19.0019 12.7861 18.8956 13.4471 18.6446 14.2004C18.4064 14.9033 18.061 15.5651 17.6209 16.1623C17.258 16.6273 16.8482 17.0536 16.398 17.4343C15.2839 18.337 13.9938 18.8531 12.5231 18.9775C10.9571 19.1134 9.2258 18.6268 7.93761 17.6901C6.42148 16.5899 5.41819 14.9948 5.10126 13.1868C4.76065 11.2409 5.2895 9.19248 6.53416 7.64285C6.72624 7.40307 7.16481 6.94786 7.43372 6.71064C8.24045 5.99769 9.28663 5.45658 10.3578 5.19884ZM12.4213 5.56108C11.7353 5.51826 11.0468 5.58316 10.3808 5.75342C9.58307 5.96115 8.66494 6.4093 8.0823 6.87541L7.84541 7.06326C7.55601 7.28766 6.92536 7.98009 6.68782 8.33528C5.91951 9.48292 5.55137 10.6774 5.55137 12.0122C5.55137 13.0848 5.76841 13.9831 6.26781 14.9614C6.87363 16.1488 7.83637 17.1158 9.02028 17.726C9.78859 18.1222 10.6472 18.371 11.4725 18.4364C12.8913 18.5499 14.2198 18.2197 15.4741 17.4433C16.0529 17.0855 16.7936 16.4001 17.1644 15.8821C17.8558 14.9108 18.2381 13.9901 18.4001 12.8944C18.459 12.5033 18.4615 11.4352 18.4026 11.089C18.1997 9.85606 17.6887 8.71547 16.9633 7.87366C16.8929 7.79224 16.8052 7.68773 16.7687 7.64478C16.5458 7.399 16.3032 7.17192 16.0433 6.96581C15.3774 6.45483 14.8684 6.17401 14.1046 5.89768C13.5872 5.71239 13.0808 5.61045 12.4207 5.56108H12.4213Z" fill="white"/>
</g>
<defs>
<clipPath id="clip0_1265_21481">
<rect width="24" height="24" fill="white"/>
</clipPath>
</defs>
</svg>
