<svg viewBox="0 0 24 24" fill="none" xmlns="http://www.w3.org/2000/svg">
<g clip-path="url(#clip0_1265_21476)">
<path d="M12 24C18.6275 24 24 18.6275 24 12C24 5.3725 18.6275 0 12 0C5.3725 0 0 5.3725 0 12C0 18.6275 5.3725 24 12 24Z" fill="#2B6680"/>
<path fill-rule="evenodd" clip-rule="evenodd" d="M7.39497 16.5892C6.17833 15.369 5.49669 13.716 5.50001 11.9937C5.49989 11.0129 5.72223 10.0447 6.15032 9.16194C6.57842 8.27919 7.20114 7.50482 7.97173 6.89698C8.74232 6.28913 9.64075 5.8636 10.5995 5.65236C11.5583 5.44111 12.5526 5.44964 13.5076 5.67729C13.6843 5.72306 13.836 5.83622 13.9301 5.99247C14.0242 6.14872 14.0532 6.3356 14.0109 6.51299C13.9686 6.69038 13.8584 6.84413 13.7039 6.94123C13.5494 7.03833 13.3629 7.07104 13.1846 7.03232C12.1024 6.77411 10.9654 6.87598 9.94638 7.32242C8.92742 7.76887 8.08222 8.53548 7.53927 9.50574C6.99632 10.476 6.78532 11.5968 6.93833 12.6978C7.09134 13.7989 7.6 14.8199 8.38699 15.6056C9.17398 16.3914 10.1963 16.899 11.2984 17.0512C12.4006 17.2035 13.5224 16.992 14.4932 16.4491C15.4641 15.9061 16.231 15.0612 16.6773 14.043C17.1236 13.0248 17.2249 11.8888 16.9658 10.8077C16.9425 10.7181 16.9374 10.6247 16.9507 10.533C16.964 10.4413 16.9955 10.3532 17.0433 10.2738C17.0911 10.1944 17.1543 10.1253 17.2291 10.0707C17.304 10.016 17.389 9.97673 17.4792 9.95527C17.5694 9.93381 17.663 9.93053 17.7545 9.94565C17.846 9.96076 17.9335 9.99395 18.012 10.0433C18.0905 10.0926 18.1584 10.1571 18.2116 10.2329C18.2649 10.3088 18.3024 10.3945 18.3221 10.485C18.4381 10.9712 18.4978 11.4691 18.5 11.9689V12.0187C18.4967 13.741 17.8087 15.3914 16.5874 16.6068C15.366 17.8223 13.7114 18.5033 11.9875 18.5C10.2636 18.4967 8.61161 17.8093 7.39497 16.5892ZM15.2715 7.2599C15.2758 7.25436 15.2801 7.24885 15.2854 7.24385L15.2858 7.24464C15.4696 7.06204 15.7152 6.9549 15.9742 6.94438C16.2332 6.93386 16.4868 7.02071 16.6848 7.1878C16.8829 7.35488 17.011 7.59006 17.044 7.84692C17.077 8.10378 17.0124 8.36366 16.8629 8.57527C16.8298 8.62309 16.793 8.66815 16.7526 8.70987C16.5825 8.88064 16.3578 8.9863 16.1176 9.00838H16.1081C16.0886 9.00838 16.069 9.00951 16.0494 9.01064C16.0298 9.01178 16.0102 9.01291 15.9906 9.01291C15.984 9.01309 15.9776 9.01408 15.9711 9.01506C15.964 9.01615 15.9568 9.01724 15.9496 9.01724C15.6843 9.03951 15.4269 9.11851 15.1948 9.24888C14.9628 9.37925 14.7615 9.55795 14.6046 9.77285C14.4478 9.98775 14.339 10.2338 14.2857 10.4944C14.2324 10.755 14.2358 11.024 14.2956 11.2832C14.2962 11.2858 14.2972 11.2883 14.2982 11.2907C14.2997 11.2946 14.3011 11.2985 14.3011 11.3024C14.3114 11.3465 14.3232 11.3901 14.3366 11.4333C14.4151 11.7629 14.4228 12.1053 14.3594 12.4381C14.296 12.7709 14.1628 13.0866 13.9687 13.3643C13.8889 13.4814 13.7987 13.5912 13.6992 13.6919C13.2481 14.1426 12.6364 14.3957 11.9985 14.3957C11.3606 14.3956 10.7489 14.1425 10.2978 13.6918C9.84681 13.2412 9.59343 12.63 9.59344 11.9928C9.59346 11.3555 9.84688 10.7444 10.2979 10.2937C10.311 10.2807 10.3249 10.2691 10.3388 10.2575C10.3497 10.2485 10.3605 10.2394 10.3708 10.2298C10.6607 9.96012 11.0131 9.76661 11.3964 9.66666C11.7797 9.56671 12.1818 9.56345 12.5666 9.65717C12.8301 9.74087 13.109 9.76471 13.3829 9.72695C13.6568 9.68919 13.9188 9.59077 14.1498 9.4389C14.3808 9.28703 14.5749 9.08553 14.7179 8.84913C14.8609 8.61272 14.9493 8.34739 14.9766 8.07249C14.9775 8.06395 14.9787 8.05549 14.98 8.04705C14.9824 8.03043 14.9848 8.0139 14.9848 7.99693V7.88654C15.0052 7.6567 15.1025 7.44042 15.261 7.27258C15.2648 7.26847 15.2682 7.26418 15.2715 7.2599Z" fill="white"/>
</g>
<defs>
<clipPath id="clip0_1265_21476">
<rect width="24" height="24" fill="white"/>
</clipPath>
</defs>
</svg>