<svg viewBox="0 0 24 24" fill="none" xmlns="http://www.w3.org/2000/svg">
<g clip-path="url(#clip0_1265_21472)">
<path d="M12 24C18.6274 24 24 18.6274 24 12C24 5.37258 18.6274 0 12 0C5.37258 0 0 5.37258 0 12C0 18.6274 5.37258 24 12 24Z" fill="#188C92"/>
<path d="M15.1532 14.9722C15.1198 15.0202 15.1 15.0763 15.0961 15.1346C15.0921 15.1929 15.1041 15.2512 15.1307 15.3032L11.629 18.0438C11.5837 18.0081 11.5303 17.9841 11.4736 17.9741L11.3672 11.2283C11.4047 11.2204 11.4406 11.2064 11.4736 11.1869L15.1532 14.9728V14.9722ZM15.2513 14.8789L11.5746 11.0959C11.6041 11.0563 11.624 11.0104 11.6329 10.9618C11.6418 10.9133 11.6395 10.8633 11.626 10.8158L15.3641 8.99581C15.4128 9.05529 15.48 9.09671 15.555 9.1134L15.3688 14.8322C15.3273 14.8408 15.2877 14.8568 15.2518 14.8795L15.2513 14.8789ZM11.2685 17.9971L9.28899 15.3362C9.34764 15.2757 9.38048 15.1948 9.38059 15.1105C9.37907 15.0264 9.34626 14.9459 9.28857 14.8847C9.23087 14.8236 9.15244 14.7861 9.06859 14.7796L8.4505 9.18549C8.52385 9.16878 8.58944 9.12786 8.63671 9.06934C8.68398 9.01081 8.71018 8.93808 8.71109 8.86286C8.71101 8.78596 8.68357 8.7116 8.63368 8.65308L11.1184 5.98632C11.1504 6.00404 11.1858 6.01764 11.2236 6.02532V10.5777C11.147 10.5915 11.0776 10.6316 11.0272 10.691C10.9769 10.7504 10.9488 10.8254 10.9477 10.9033C10.9489 10.982 10.9778 11.0578 11.0292 11.1175C11.0806 11.1772 11.1512 11.2171 11.2289 11.23L11.3353 17.9758C11.3126 17.9807 11.2904 17.9878 11.2691 17.9971H11.2685ZM11.3619 10.5777V6.02591C11.4217 6.01406 11.4773 5.98676 11.5232 5.94673L15.321 8.65013C15.2865 8.7211 15.2793 8.80231 15.3009 8.87822L11.5634 10.6982C11.5122 10.6361 11.4409 10.5937 11.3619 10.5783V10.5777ZM11.2928 5.5C11.4068 5.5 11.4996 5.58923 11.4996 5.69914C11.4991 5.72583 11.4934 5.75217 11.4828 5.77666C11.4721 5.80115 11.4568 5.82329 11.4375 5.84184C11.4183 5.86039 11.3957 5.87497 11.3708 5.88475C11.346 5.89454 11.3195 5.89933 11.2928 5.89886C11.2661 5.89933 11.2395 5.89454 11.2147 5.88475C11.1899 5.87497 11.1672 5.86039 11.148 5.84184C11.1288 5.82329 11.1134 5.80115 11.1028 5.77666C11.0921 5.75217 11.0864 5.72583 11.0859 5.69914C11.0859 5.58923 11.1781 5.5 11.2928 5.5ZM8.366 8.66372C8.48063 8.66372 8.57281 8.75236 8.57281 8.86286C8.57235 8.88955 8.56664 8.91589 8.55599 8.94038C8.54535 8.96487 8.52999 8.98701 8.51078 9.00556C8.49157 9.02411 8.4689 9.03869 8.44406 9.04847C8.41922 9.05826 8.39269 9.06305 8.366 9.06258C8.3393 9.06305 8.31278 9.05826 8.28793 9.04847C8.26309 9.03869 8.24042 9.02411 8.22121 9.00556C8.20201 8.98701 8.18665 8.96487 8.176 8.94038C8.16536 8.91589 8.15964 8.88955 8.15918 8.86286C8.15918 8.75295 8.25195 8.66372 8.366 8.66372ZM9.0355 14.9108C9.15013 14.9108 9.24231 15 9.24231 15.1105C9.24123 15.1643 9.21884 15.2155 9.18007 15.2528C9.1413 15.2902 9.08931 15.3106 9.0355 15.3097C8.98168 15.3106 8.92969 15.2902 8.89092 15.2528C8.85215 15.2155 8.82977 15.1643 8.82868 15.1105C8.82868 15 8.92145 14.9108 9.0355 14.9108ZM15.6342 8.59045C15.7482 8.59045 15.841 8.67967 15.841 8.78958C15.8405 8.81628 15.8348 8.84262 15.8242 8.86711C15.8135 8.89159 15.7981 8.91374 15.7789 8.93229C15.7597 8.95084 15.7371 8.96542 15.7122 8.9752C15.6874 8.98499 15.6609 8.98978 15.6342 8.98931C15.6075 8.98978 15.5809 8.98499 15.5561 8.9752C15.5313 8.96542 15.5086 8.95084 15.4894 8.93229C15.4702 8.91374 15.4548 8.89159 15.4442 8.86711C15.4335 8.84262 15.4278 8.81628 15.4273 8.78958C15.4273 8.67967 15.5195 8.59045 15.6342 8.59045ZM11.2928 10.7041C11.4068 10.7041 11.4996 10.7928 11.4996 10.9033C11.4991 10.93 11.4934 10.9563 11.4828 10.9808C11.4721 11.0053 11.4568 11.0274 11.4375 11.046C11.4183 11.0645 11.3957 11.0791 11.3708 11.0889C11.346 11.0987 11.3195 11.1035 11.2928 11.103C11.2661 11.1035 11.2395 11.0987 11.2147 11.0889C11.1899 11.0791 11.1672 11.0645 11.148 11.046C11.1288 11.0274 11.1134 11.0053 11.1028 10.9808C11.0921 10.9563 11.0864 10.93 11.0859 10.9033C11.0859 10.7934 11.1781 10.7041 11.2928 10.7041ZM11.4098 18.1011C11.5244 18.1011 11.6166 18.1903 11.6166 18.3008C11.6155 18.3546 11.5931 18.4058 11.5543 18.4432C11.5156 18.4805 11.4636 18.5009 11.4098 18.5C11.3559 18.5009 11.304 18.4805 11.2652 18.4432C11.2264 18.4058 11.204 18.3546 11.2029 18.3008C11.2029 18.1903 11.2957 18.1011 11.4098 18.1011ZM15.4409 14.9575C15.555 14.9575 15.6478 15.0467 15.6478 15.1572C15.6467 15.211 15.6243 15.2622 15.5855 15.2995C15.5467 15.3369 15.4947 15.3573 15.4409 15.3563C15.3871 15.3573 15.3351 15.3369 15.2964 15.2995C15.2576 15.2622 15.2352 15.211 15.2341 15.1572C15.2341 15.0467 15.3263 14.9575 15.4409 14.9575Z" fill="white"/>
</g>
<defs>
<clipPath id="clip0_1265_21472">
<rect width="24" height="24" fill="white"/>
</clipPath>
</defs>
</svg>