<svg viewBox="0 0 24 24" fill="none" xmlns="http://www.w3.org/2000/svg">
<g clip-path="url(#clip0_1265_21468)">
<path d="M12 24C18.6274 24 24 18.6274 24 12C24 5.37258 18.6274 0 12 0C5.37258 0 0 5.37258 0 12C0 18.6274 5.37258 24 12 24Z" fill="#00AEEF"/>
<path d="M11.256 11.2236C11.3988 11.199 11.5248 11.1456 11.6352 11.0646C11.7456 10.9836 11.85 10.8468 11.9478 10.6596L14.1228 6.46747C14.208 6.32707 14.3124 6.21547 14.4324 6.12787C14.5556 6.04259 14.7025 5.99791 14.8524 6.00007H16.2317L13.5234 10.9308C13.4034 11.1336 13.2672 11.2986 13.1154 11.4264C12.9637 11.5526 12.7908 11.6507 12.6048 11.7162C12.8952 11.7912 13.1382 11.913 13.3368 12.084C13.5324 12.252 13.719 12.4896 13.8924 12.795L16.4999 18H14.982C14.6754 18 14.4288 17.835 14.2428 17.508L12.1056 13.0974C11.9952 12.9006 11.8752 12.7608 11.7456 12.6762C11.6166 12.5922 11.4522 12.5424 11.2566 12.5298V14.7678H10.0632V12.5202H9.18599V18H7.5V6.00007H9.18599V11.2428H10.0632V8.64966H11.2566V11.2236H11.256Z" fill="white"/>
</g>
<defs>
<clipPath id="clip0_1265_21468">
<rect width="24" height="24" fill="white"/>
</clipPath>
</defs>
</svg>