<svg width="24" height="24" viewBox="0 0 24 24" fill="none" xmlns="http://www.w3.org/2000/svg">
<path fill-rule="evenodd" clip-rule="evenodd" d="M21.8057 12.2017L16.9169 18.035C16.759 18.2242 16.5249 18.3333 16.2784 18.3333H2.83332C2.37361 18.3333 2 17.96 2 17.5V5.83333C2 5.37333 2.37361 5 2.83332 5H16.2784C16.5249 5 16.759 5.10917 16.9169 5.29833L21.8057 11.1308C22.0648 11.4408 22.0648 11.8925 21.8057 12.2017ZM15.8897 6.66667H3.66667V16.6667H15.8897L20.0797 11.6667L15.8897 6.66667ZM13.4224 14.7558C13.2602 14.9192 13.0471 15 12.8331 15C12.62 15 12.4068 14.9192 12.2438 14.7558L10.3332 12.845L8.42246 14.7558C8.25948 14.9192 8.04634 15 7.83321 15C7.62007 15 7.40694 14.9192 7.24395 14.7558C6.91882 14.4308 6.91882 13.9025 7.24395 13.5775L9.15548 11.6667L7.24395 9.75583C6.91882 9.43083 6.91882 8.9025 7.24395 8.5775C7.56992 8.25167 8.09733 8.25167 8.42246 8.5775L10.3332 10.4883L12.2438 8.5775C12.5698 8.25167 13.0972 8.25167 13.4224 8.5775C13.7483 8.9025 13.7483 9.43083 13.4224 9.75583L11.5117 11.6667L13.4224 13.5775C13.7483 13.9025 13.7483 14.4308 13.4224 14.7558Z" fill="#6B7084"/>
</svg>
