<svg viewBox="0 0 24 24" fill="none" xmlns="http://www.w3.org/2000/svg">
<path fill-rule="evenodd" clip-rule="evenodd" d="M20.5558 20H3.44417C2.64833 20 2 19.3458 2 18.5417V15.8333C2 15.3725 2.37333 15 2.83333 15V6.43583C2.83333 5.64417 3.495 5 4.30833 5H19.6925C20.505 5 21.1667 5.64417 21.1667 6.43583V15C21.6267 15 22 15.3725 22 15.8333V18.5417C22 19.3458 21.3517 20 20.5558 20ZM19.5 6.66667H4.5V15H9.555C10.0158 15 10.3883 15.3725 10.3883 15.8333H13.6117C13.6117 15.3725 13.9842 15 14.445 15H19.5V6.66667ZM20.3333 16.6667H15.3333C15.3333 17.1275 14.96 17.5 14.5 17.5H9.5C9.04 17.5 8.66667 17.1275 8.66667 16.6667H3.66667V18.3333H20.3333V16.6667Z" fill="currentColor"/>
</svg>