<svg width="24" height="24" viewBox="0 0 24 24" fill="none" xmlns="http://www.w3.org/2000/svg">
<path fill-rule="evenodd" clip-rule="evenodd" d="M15.4286 3L20.2286 3C20.4332 3 20.6294 3.08128 20.7741 3.22595C20.9187 3.37062 21 3.56683 21 3.77143V8.57143C21 8.99748 20.6546 9.34286 20.2286 9.34286C19.8025 9.34286 19.4571 8.99748 19.4571 8.57143V5.63382L8.4312 16.6598C8.12994 16.961 7.64149 16.961 7.34023 16.6598C7.03897 16.3585 7.03897 15.8701 7.34023 15.5688L18.3662 4.54286L15.4286 4.54286C15.0025 4.54286 14.6571 4.19748 14.6571 3.77143C14.6571 3.34538 15.0025 3 15.4286 3ZM5.82857 7.28572C5.11849 7.28572 4.54286 7.86135 4.54286 8.57143V18.1714C4.54286 18.8815 5.11849 19.4571 5.82857 19.4571H15.4286C16.1387 19.4571 16.7143 18.8815 16.7143 18.1714V10.6286C16.7143 10.2025 17.0597 9.85714 17.4857 9.85714C17.9118 9.85714 18.2571 10.2025 18.2571 10.6286V18.1714C18.2571 19.7336 16.9907 21 15.4286 21H5.82857C4.26639 21 3 19.7336 3 18.1714V8.57143C3 7.00925 4.26639 5.74286 5.82857 5.74286H13.3714C13.7975 5.74286 14.1429 6.08824 14.1429 6.51429C14.1429 6.94033 13.7975 7.28572 13.3714 7.28572H5.82857Z" fill="#6B7084"/>
</svg>
