<svg width="24" height="24" viewBox="0 0 24 24" fill="none" xmlns="http://www.w3.org/2000/svg">
<path fill-rule="evenodd" clip-rule="evenodd" d="M5.47455 8.91065C4.93774 9.38148 4.93774 10.2186 5.47455 10.6894L11.2237 15.7319C11.6681 16.1218 12.3319 16.1218 12.7764 15.7319L18.5254 10.6894C19.0623 10.2186 19.0623 9.38148 18.5254 8.91065L12.7763 3.86812C12.3319 3.47825 11.6681 3.47825 11.2237 3.86812L5.47455 8.91065ZM4.43942 11.8753C3.18686 10.7766 3.18686 8.82342 4.43942 7.7248L10.1885 2.68227C11.2257 1.77258 12.7743 1.77258 13.8115 2.68227L19.5606 7.7248C20.8131 8.82342 20.8131 10.7766 19.5606 11.8753L13.8115 16.9178C12.7743 17.8275 11.2257 17.8275 10.1885 16.9178L4.43942 11.8753Z" fill="#6B7084"/>
<path fill-rule="evenodd" clip-rule="evenodd" d="M3.76183 14.7585C4.04433 14.4281 4.54051 14.3898 4.87009 14.673L11.2327 20.1398C11.6742 20.5191 12.3257 20.5191 12.7672 20.1398L19.1299 14.673C19.4595 14.3898 19.9556 14.4281 20.2381 14.7585C20.5206 15.0888 20.4825 15.5862 20.1529 15.8694L13.7902 21.3361C12.7601 22.2213 11.2399 22.2213 10.2097 21.3361L3.84708 15.8694C3.5175 15.5862 3.47933 15.0888 3.76183 14.7585Z" fill="#6B7084"/>
</svg>
