<svg viewBox="0 0 24 24" fill="none" xmlns="http://www.w3.org/2000/svg">
<path d="M12 22C17.5228 22 22 17.5228 22 12C22 6.47715 17.5228 2 12 2C6.47715 2 2 6.47715 2 12C2 17.5228 6.47715 22 12 22Z" fill="#0080CA"/>
<path d="M14.6458 13.3133C15.4156 13.3133 16.0397 12.6819 16.0397 11.903C16.0397 11.1242 15.4156 10.4928 14.6458 10.4928C13.876 10.4928 13.252 11.1242 13.252 11.903C13.252 12.6819 13.876 13.3133 14.6458 13.3133Z" fill="white"/>
<path d="M18.4561 13.9864L18.4151 13.9222L18.4042 13.9044C18.2513 13.6642 18.2049 13.6137 18.1311 13.5031C17.1114 11.9331 17.6943 10.9242 18.153 10.4096C18.209 10.3468 18.2608 10.273 18.3086 10.2157C18.3785 10.1348 18.4386 10.0459 18.4875 9.95086L18.4957 9.9372C18.5883 9.75215 18.6351 9.54754 18.6322 9.34062C18.6017 9.00103 18.4453 8.68513 18.1936 8.45506C17.942 8.22499 17.6134 8.09741 17.2724 8.09741C16.9315 8.09741 16.6029 8.22499 16.3513 8.45506C16.0996 8.68513 15.9432 9.00103 15.9127 9.34062C15.9127 9.56692 15.97 9.78955 16.0793 9.98771C16.0957 10.0205 16.1735 10.1242 16.1817 10.142C16.1983 10.168 16.2175 10.1922 16.239 10.2143C16.2864 10.273 16.3374 10.3287 16.3919 10.3809C16.5273 10.5315 16.6454 10.6968 16.7441 10.8737C16.9398 11.2747 17.021 11.7219 16.9788 12.166C16.9367 12.6102 16.7728 13.0341 16.5052 13.3911L16.1666 13.8771C16.1559 13.8911 16.1458 13.9057 16.1366 13.9208L16.1284 13.9317C15.9911 14.1493 15.9204 14.4022 15.925 14.6594C15.9555 14.999 16.1119 15.3149 16.3635 15.5449C16.6152 15.775 16.9438 15.9026 17.2847 15.9026C17.6257 15.9026 17.9543 15.775 18.2059 15.5449C18.4576 15.3149 18.614 14.999 18.6445 14.6594C18.6442 14.4226 18.5805 14.1902 18.4602 13.9864H18.4561Z" fill="white"/>
<path d="M13.1769 13.9863L13.1373 13.9222L13.125 13.9044C12.9721 13.6642 12.9257 13.6136 12.8519 13.5031C11.8321 11.9331 12.4151 10.9242 12.8738 10.4095C12.9298 10.3467 12.9816 10.273 13.0294 10.2157C13.0993 10.1348 13.1594 10.0459 13.2082 9.95084L13.2164 9.93719C13.3077 9.75163 13.3544 9.54737 13.353 9.3406C13.3569 9.13064 13.3123 8.9226 13.2228 8.73266C13.1332 8.54272 13.001 8.37602 12.8365 8.2455C12.6719 8.11499 12.4795 8.02419 12.2742 7.98016C12.0689 7.93614 11.8561 7.94008 11.6526 7.99168C11.449 8.04328 11.2601 8.14114 11.1005 8.27766C10.941 8.41418 10.815 8.58567 10.7325 8.77879C10.6501 8.97192 10.6132 9.18147 10.6249 9.39114C10.6367 9.60082 10.6966 9.80496 10.8001 9.9877C10.8164 10.0205 10.8943 10.1242 10.9024 10.142C10.919 10.168 10.9383 10.1922 10.9598 10.2143C11.0072 10.273 11.0582 10.3287 11.1127 10.3809C11.2494 10.5314 11.369 10.6967 11.469 10.8737C11.6655 11.2741 11.7477 11.7209 11.7068 12.165C11.6659 12.6092 11.5033 13.0334 11.2369 13.3911C11.1546 13.5078 11.0634 13.6178 10.9639 13.7201L10.9407 13.7433C10.7889 13.8803 10.6222 13.9999 10.4437 14.0996C9.02122 14.7781 7.87036 13.8403 7.87036 13.8403L7.75432 13.7447C7.66817 13.6777 7.59466 13.5959 7.53726 13.5031C6.51746 11.9331 7.1004 10.9242 7.5591 10.4095C7.61507 10.3467 7.66695 10.273 7.71473 10.2157C7.78465 10.1348 7.84469 10.0459 7.89357 9.95084L7.90176 9.93719C7.99603 9.75245 8.04515 9.548 8.04511 9.3406C8.01464 9.00101 7.85821 8.68512 7.60658 8.45505C7.35494 8.22498 7.02633 8.0974 6.68538 8.0974C6.34443 8.0974 6.01581 8.22498 5.76418 8.45505C5.51255 8.68512 5.35612 9.00101 5.32565 9.3406C5.3256 9.56691 5.3829 9.78954 5.4922 9.9877C5.50859 10.0205 5.5864 10.1242 5.59459 10.142C5.61119 10.168 5.6304 10.1922 5.65193 10.2143C5.69931 10.273 5.75038 10.3287 5.80483 10.3809C5.93927 10.5317 6.05649 10.697 6.15432 10.8737C6.34997 11.2747 6.4312 11.7219 6.38904 12.166C6.34689 12.6102 6.183 13.0341 5.91541 13.3911L5.74203 13.6369C5.60867 13.7643 5.50254 13.9175 5.43003 14.0872C5.35753 14.2568 5.32016 14.4394 5.32019 14.6239V14.6553C5.32502 14.923 5.40847 15.1834 5.56016 15.404C5.71184 15.6247 5.92506 15.7958 6.17328 15.8962C6.4215 15.9966 6.69377 16.0218 6.95619 15.9687C7.21862 15.9155 7.45962 15.7863 7.6492 15.5973C7.7161 15.5508 7.75978 15.5181 7.82122 15.4785C9.39118 14.4587 10.4001 15.0416 10.9161 15.5003C10.9571 15.5372 11.0007 15.5727 11.0444 15.6055C11.2352 15.7925 11.4768 15.9195 11.7391 15.9706C12.0014 16.0217 12.2729 15.9948 12.52 15.893C12.7671 15.7913 12.9789 15.6192 13.1291 15.3982C13.2794 15.1772 13.3615 14.917 13.3652 14.6498C13.365 14.4131 13.3013 14.1807 13.1809 13.9768L13.1769 13.9863Z" fill="white"/>
</svg>