<svg viewBox="0 0 24 24" fill="none" xmlns="http://www.w3.org/2000/svg">
<g clip-path="url(#clip0_1265_21464)">
<path d="M12 24C18.6274 24 24 18.6274 24 12C24 5.37258 18.6274 0 12 0C5.37258 0 0 5.37258 0 12C0 18.6274 5.37258 24 12 24Z" fill="#006149"/>
<path d="M17.6549 12.8398L17.0994 12.7011L17.268 12.0251L19 12.4579L18.5679 14.1898L17.8911 14.0212L18.041 13.4204L11.8575 17.2488L5 13.8225V11.2075L12.1258 6.7511L18.6599 9.93833V11.0145L11.8582 15.2402L6.80724 12.736L7.11669 12.1115L11.8205 14.4435L17.9629 10.6269V10.3739L12.1676 7.54704L5.69767 11.5936V13.3918L11.8219 16.4515L17.6549 12.8398Z" fill="white"/>
</g>
<defs>
<clipPath id="clip0_1265_21464">
<rect width="24" height="24" fill="white"/>
</clipPath>
</defs>
</svg>