<svg viewBox="0 0 24 24" fill="none" xmlns="http://www.w3.org/2000/svg">
<g clip-path="url(#clip0_1265_21460)">
<path d="M12 24C18.6274 24 24 18.6274 24 12C24 5.37258 18.6274 0 12 0C5.37258 0 0 5.37258 0 12C0 18.6274 5.37258 24 12 24Z" fill="#0FA9C9"/>
<path d="M12.8029 15.1122L8.98795 19L7.90015 17.8065L10.544 15.1115L7.80005 12.3164L8.97115 11.1222L12.8029 15.1122ZM15.0289 12.8785L16.2 11.6843L13.456 8.8878L16.0999 6.1935L15.0121 5L11.1803 8.8878L15.0289 12.8785ZM9.45695 10.6616L13.3055 14.6516L14.4766 13.4581L10.628 9.536L9.45695 10.6616Z" fill="white"/>
</g>
<defs>
<clipPath id="clip0_1265_21460">
<rect width="24" height="24" fill="white"/>
</clipPath>
</defs>
</svg>