<svg viewBox="0 0 24 24" fill="none" xmlns="http://www.w3.org/2000/svg">
<g clip-path="url(#clip0_1265_21452)">
<path d="M12 24C18.6274 24 24 18.6274 24 12C24 5.37258 18.6274 0 12 0C5.37258 0 0 5.37258 0 12C0 18.6274 5.37258 24 12 24Z" fill="#11021E"/>
<path d="M8.90938 11.0662H8.91549L9.00891 11.1016L9.10844 11.1364L9.20186 11.1718L9.30138 11.2127L9.3948 11.2481L9.49433 11.2768L9.58836 11.3122L9.68178 11.3531L9.86923 11.4234L9.96876 11.4527L10.0622 11.4936L10.1617 11.529L10.2557 11.5638L10.3553 11.5992L10.4487 11.634L10.5482 11.6694L10.6416 11.7042L10.7412 11.7396L10.8352 11.7806L10.9347 11.8099V10.4458H8.77444L8.68102 10.4928L8.45877 10.61L8.23041 10.7267L8.00815 10.8439L7.78529 10.9611L7.55693 11.0784L7.32917 11.195L7.10631 11.3122L6.88405 11.4295L6.65569 11.5461L6.43344 11.6633L6.22828 11.7744L6.20508 15.129L6.43344 15.2872L6.65569 15.4453L6.88405 15.5974L7.32917 15.9136L7.55693 16.0712L7.65645 16.1475L7.78529 15.9894L8.00815 15.6963L8.02525 15.6676L8.00815 15.6499L7.78529 15.4917L7.55693 15.3281L7.32917 15.1699L7.10631 15.0118L6.88405 14.8543L6.81994 14.8127L6.83704 12.1029L6.88405 12.0797L7.10631 11.9686L7.32917 11.8514L7.55693 11.7457L7.78529 11.6291L8.00815 11.5174L8.23041 11.4063L8.45877 11.2951L8.68102 11.184L8.90938 11.0662Z" fill="white"/>
<path d="M12.7841 17.4692L12.5905 17.5456L12.3799 17.6274L12.1692 17.7153L11.9585 17.7971L11.8651 17.838L11.754 17.78L11.5427 17.6744L11.3382 17.5688L11.1275 17.4637L10.9169 17.3581L10.7062 17.2531L10.4956 17.1475L10.2843 17.0363L10.0737 16.9368L9.86911 16.8257L9.65845 16.72L9.45329 16.6211L9.24264 16.5094L9.21944 16.4978V13.7648H8.61068V16.8727L9.45329 17.294L9.65845 17.399L9.86911 17.5108L10.0737 17.6103L10.2843 17.7214L10.4956 17.8264L10.7062 17.926L10.9169 18.0371L11.3382 18.2477L11.5427 18.3534L11.8358 18.4999L11.9585 18.4468L12.1692 18.365L12.3799 18.2832L12.5905 18.1952L12.8012 18.1073L13.0124 18.0316L12.8012 17.5047L12.7841 17.4692ZM16.5239 13.6592L16.5361 14.9524L16.4775 14.9939L16.1203 15.2455L15.7692 15.5031L15.412 15.7547L15.0548 16.0124L14.6922 16.2578L14.3411 16.5155L13.9839 16.7732L13.7732 16.9252L13.6267 16.808L13.2756 16.5393L12.9184 16.2639L12.5612 15.9947L12.2101 15.7199L12.146 15.6784V14.2862L12.2101 14.2276L12.5612 13.8527L12.9184 13.4839L13.2756 13.1096L13.6267 12.7408L13.9723 12.3781H9.71707L10.0737 12.7524L10.4254 13.1212L10.788 13.49L11.1452 13.8643L11.4963 14.2331L11.5427 14.2862V15.9715L11.8535 16.2114L12.2101 16.4807L12.5612 16.7561L12.9184 17.0247L13.2756 17.3001L13.6267 17.5694L13.761 17.675L13.9839 17.5114L14.3411 17.2592L14.6922 17.0021L15.0548 16.75L15.412 16.4984L15.7692 16.2468L16.1203 15.9892L16.4775 15.7376L16.8341 15.486L17.1272 15.2693L17.1852 13.683L16.8341 13.6714L16.5239 13.6592ZM6.7844 10.6679H6.82531L6.83142 8.94723L7.06527 8.80069L7.34615 8.63155L7.63312 8.46181L7.90789 8.27985L8.19487 8.11011L8.47574 7.93487L8.75661 7.76512L9.03748 7.59538L9.31835 7.41953L9.60533 7.24979L9.61144 7.24368L9.88071 7.40243L10.1677 7.55997L10.7294 7.88785L11.0103 8.046L11.2973 8.20414L11.572 8.36778L11.8474 8.52043L11.8596 8.49661L12.1405 7.99349L11.8596 7.82924L11.5727 7.67109L11.2973 7.51356L11.0103 7.35481L10.7294 7.18567L10.4486 7.02753L10.1677 6.86939L9.88071 6.71125L9.60594 6.5531L9.59373 6.547L9.31896 6.71186L9.03809 6.8871L8.75722 7.05684L8.47635 7.23208L8.19548 7.40182L7.9085 7.57157L7.63312 7.74742L7.34615 7.91716L7.06527 8.09301L6.7844 8.26825L6.50353 8.438L6.22876 8.60774L6.21655 10.6624H6.50353L6.7844 10.6679Z" fill="white"/>
<path d="M17.788 9.08783L17.6476 8.9767L17.4962 8.85397L17.3496 8.73674L17.2031 8.61951L17.0565 8.49739L16.91 8.38565L16.7586 8.26842L16.612 8.14569L16.4594 8.02846L16.3544 7.94053L16.3135 7.98755L16.1669 8.16889L16.0149 8.35634L15.9801 8.40885L16.0149 8.44976L16.1675 8.5731L16.3141 8.68972L16.46 8.81856L16.612 8.9419L16.7586 9.06402L16.9106 9.19346L17.0572 9.31619L17.1274 9.37481L17.1335 12.1432L17.0572 12.1902L16.9106 12.2898L16.758 12.3777L16.612 12.4772L16.4594 12.5645L16.3135 12.6641L16.1669 12.752L16.0149 12.8515L15.8683 12.9394L15.7218 13.039L15.5759 13.1269L15.4293 13.2264L15.2773 13.3137L15.1307 13.4133L14.9848 13.5012L14.8383 13.6007L14.6862 13.6886L14.8389 13.9225L14.9854 14.1624L15.0141 14.2034L15.1314 14.1276L15.2779 14.0336L15.4299 13.9463L15.5765 13.8523L15.7224 13.7588L15.869 13.6654L16.0155 13.5775L16.1669 13.4835L16.3135 13.3962L16.46 13.3021L16.612 13.2087L16.7586 13.1147L16.9106 13.0274L17.0572 12.9333L17.2037 12.846L17.3496 12.752L17.4962 12.6586L17.6482 12.5645L17.7948 12.4772L17.788 9.08783ZM12.9656 10.7389V11.9387L13.0126 11.9204L13.2056 11.8391L13.4046 11.7628L13.5976 11.681L13.7966 11.6047L13.9957 11.5229L14.1886 11.441L14.3877 11.3647L14.5867 11.2829L14.7803 11.2066L14.9787 11.1248L15.1723 11.049V7.4197L14.95 7.28537L14.7217 7.15653L14.4988 7.0222L14.271 6.88726L14.0427 6.75843L13.8143 6.6241L13.5921 6.48916L13.3692 6.36093L13.1408 6.22599L12.9131 6.09166L12.6847 5.96222L12.4619 5.82789L12.2396 5.69356L12.0112 5.56411L11.8946 5.5L11.7835 5.55251L11.5551 5.68135L11.3323 5.79858L11.11 5.92131L10.8816 6.05014L10.6533 6.16738L10.4255 6.2901L10.6533 6.42443L10.8816 6.55327L11.0221 6.6357L11.11 6.59479L11.3323 6.47145L11.5551 6.35483L11.7835 6.23759L11.8769 6.19058L12.0112 6.2669L12.2396 6.40123L12.6847 6.6589L13.1408 6.92817L13.3692 7.05639L13.8143 7.32628L14.0427 7.4545L14.4988 7.72438L14.569 7.75918V10.4342H12.9711" fill="white"/>
<path d="M12.9657 11.9387L15.1724 11.0491L12.9596 10.4342L12.9657 11.9387ZM10.9349 11.9387V10.4574L8.91504 11.0607L10.9349 11.9326" fill="white"/>
</g>
<defs>
<clipPath id="clip0_1265_21452">
<rect width="24" height="24" fill="white"/>
</clipPath>
</defs>
</svg>