<svg width="24" height="24" viewBox="0 0 24 24" fill="none" xmlns="http://www.w3.org/2000/svg">
<path fill-rule="evenodd" clip-rule="evenodd" d="M19.5 20H4.5C3.12167 20 2 18.8783 2 17.5V7.5C2 6.12083 3.12167 5 4.5 5H19.5C20.8783 5 22 6.12083 22 7.5V17.5C22 18.8783 20.8783 20 19.5 20ZM20.3333 7.5C20.3333 7.04083 19.9592 6.66667 19.5 6.66667H4.5C4.04083 6.66667 3.66667 7.04083 3.66667 7.5V17.5C3.66667 17.9592 4.04083 18.3333 4.5 18.3333H19.5C19.9592 18.3333 20.3333 17.9592 20.3333 17.5V7.5ZM18.6667 12.5H15.3333C14.8733 12.5 14.5 12.1267 14.5 11.6667V8.33333C14.5 7.87333 14.8733 7.5 15.3333 7.5H18.6667C19.1267 7.5 19.5 7.87333 19.5 8.33333V11.6667C19.5 12.1267 19.1267 12.5 18.6667 12.5ZM17.8333 9.16667H16.1667V10.8333H17.8333V9.16667ZM11.1667 16.6667H6.16667C5.70667 16.6667 5.33333 16.2933 5.33333 15.8333C5.33333 15.3733 5.70667 15 6.16667 15H11.1667C11.6267 15 12 15.3733 12 15.8333C12 16.2933 11.6267 16.6667 11.1667 16.6667ZM11.1667 13.3333H6.16667C5.70667 13.3333 5.33333 12.96 5.33333 12.5C5.33333 12.04 5.70667 11.6667 6.16667 11.6667H11.1667C11.6267 11.6667 12 12.04 12 12.5C12 12.96 11.6267 13.3333 11.1667 13.3333ZM8.66667 10H6.16667C5.70667 10 5.33333 9.62667 5.33333 9.16667C5.33333 8.70667 5.70667 8.33333 6.16667 8.33333H8.66667C9.12667 8.33333 9.5 8.70667 9.5 9.16667C9.5 9.62667 9.12667 10 8.66667 10Z" fill="#6B7084"/>
</svg>
