<svg viewBox="0 0 24 24" fill="none" xmlns="http://www.w3.org/2000/svg">
<path fill-rule="evenodd" clip-rule="evenodd" d="M7.4999 4.84999C6.58863 4.84999 5.8499 5.58872 5.8499 6.49999V7.14999H9.1499V6.49999C9.1499 5.58872 8.41117 4.84999 7.4999 4.84999ZM10.8499 6.49999C10.8499 4.64984 9.35006 3.14999 7.4999 3.14999C5.64975 3.14999 4.1499 4.64984 4.1499 6.49999V12C4.1499 12.4694 4.53046 12.85 4.9999 12.85C5.46934 12.85 5.8499 12.4694 5.8499 12V8.84999H9.1499V12C9.1499 12.4694 9.53046 12.85 9.9999 12.85C10.4693 12.85 10.8499 12.4694 10.8499 12V6.49999Z" fill="currentColor"/>
<path fill-rule="evenodd" clip-rule="evenodd" d="M12.7017 3.20413C13.1412 3.0393 13.6312 3.262 13.796 3.70156L16.0001 9.57921L18.2043 3.70156C18.3691 3.262 18.859 3.0393 19.2986 3.20413C19.7381 3.36896 19.9608 3.85891 19.796 4.29847L16.796 12.2985C16.6716 12.6302 16.3545 12.85 16.0001 12.85C15.6458 12.85 15.3287 12.6302 15.2043 12.2985L12.2043 4.29847C12.0394 3.85891 12.2621 3.36896 12.7017 3.20413Z" fill="currentColor"/>
<path fill-rule="evenodd" clip-rule="evenodd" d="M4.1499 18C4.1499 17.5306 4.53046 17.15 4.9999 17.15H18.9999C19.4693 17.15 19.8499 17.5306 19.8499 18C19.8499 18.4694 19.4693 18.85 18.9999 18.85H4.9999C4.53046 18.85 4.1499 18.4694 4.1499 18Z" fill="currentColor"/>
<path fill-rule="evenodd" clip-rule="evenodd" d="M16.3989 15.399C16.7308 15.067 17.269 15.067 17.6009 15.399L19.6009 17.399C19.9329 17.7309 19.9329 18.2691 19.6009 18.601L17.6009 20.601C17.269 20.933 16.7308 20.933 16.3989 20.601C16.0669 20.2691 16.0669 19.7309 16.3989 19.399L17.7978 18L16.3989 16.601C16.0669 16.2691 16.0669 15.7309 16.3989 15.399Z" fill="currentColor"/>
<path fill-rule="evenodd" clip-rule="evenodd" d="M7.60094 15.399C7.93289 15.7309 7.93289 16.2691 7.60094 16.601L6.20198 18L7.60094 19.399C7.93289 19.7309 7.93289 20.2691 7.60094 20.601C7.269 20.933 6.73081 20.933 6.39886 20.601L4.39886 18.601C4.06692 18.2691 4.06692 17.7309 4.39886 17.399L6.39886 15.399C6.73081 15.067 7.269 15.067 7.60094 15.399Z" fill="currentColor"/>
</svg>