<svg width="24" height="24" viewBox="0 0 24 24" fill="none" xmlns="http://www.w3.org/2000/svg">
<path fill-rule="evenodd" clip-rule="evenodd" d="M5.39886 4.39895C5.73081 4.06701 6.269 4.06701 6.60094 4.39895L9.60094 7.39895C9.93289 7.7309 9.93289 8.26909 9.60094 8.60103C9.269 8.93298 8.73081 8.93298 8.39886 8.60103L5.9999 6.20208L3.60094 8.60103C3.269 8.93298 2.73081 8.93298 2.39886 8.60103C2.06692 8.26909 2.06692 7.7309 2.39886 7.39895L5.39886 4.39895Z" fill="#6B7084"/>
<path fill-rule="evenodd" clip-rule="evenodd" d="M2.39886 15.399C2.73081 15.067 3.269 15.067 3.60094 15.399L5.9999 17.7979L8.39886 15.399C8.73081 15.067 9.269 15.067 9.60094 15.399C9.93289 15.7309 9.93289 16.2691 9.60094 16.601L6.60094 19.601C6.269 19.933 5.73081 19.933 5.39886 19.601L2.39886 16.601C2.06692 16.2691 2.06692 15.7309 2.39886 15.399Z" fill="#6B7084"/>
<path fill-rule="evenodd" clip-rule="evenodd" d="M5.9999 4.14999C6.46934 4.14999 6.8499 4.53055 6.8499 4.99999V19C6.8499 19.4694 6.46934 19.85 5.9999 19.85C5.53046 19.85 5.1499 19.4694 5.1499 19V4.99999C5.1499 4.53055 5.53046 4.14999 5.9999 4.14999Z" fill="#6B7084"/>
<path fill-rule="evenodd" clip-rule="evenodd" d="M12.1499 5.99999C12.1499 5.53055 12.5305 5.14999 12.9999 5.14999H19.9999C20.4693 5.14999 20.8499 5.53055 20.8499 5.99999C20.8499 6.46944 20.4693 6.84999 19.9999 6.84999H12.9999C12.5305 6.84999 12.1499 6.46944 12.1499 5.99999Z" fill="#6B7084"/>
<path fill-rule="evenodd" clip-rule="evenodd" d="M12.1499 12C12.1499 11.5306 12.5305 11.15 12.9999 11.15H19.9999C20.4693 11.15 20.8499 11.5306 20.8499 12C20.8499 12.4694 20.4693 12.85 19.9999 12.85H12.9999C12.5305 12.85 12.1499 12.4694 12.1499 12Z" fill="#6B7084"/>
<path fill-rule="evenodd" clip-rule="evenodd" d="M12.1499 18C12.1499 17.5306 12.5305 17.15 12.9999 17.15H19.9999C20.4693 17.15 20.8499 17.5306 20.8499 18C20.8499 18.4694 20.4693 18.85 19.9999 18.85H12.9999C12.5305 18.85 12.1499 18.4694 12.1499 18Z" fill="#6B7084"/>
</svg>
