<svg viewBox="0 0 24 24" fill="none" xmlns="http://www.w3.org/2000/svg">
<g clip-path="url(#clip0_1265_21449)">
<path d="M12 24C18.6274 24 24 18.6274 24 12C24 5.37258 18.6274 0 12 0C5.37258 0 0 5.37258 0 12C0 18.6274 5.37258 24 12 24Z" fill="#E8EDFA"/>
<path d="M11.9972 5.5L10.8041 6.1862L7.55415 8.0646L6.36597 8.75V15.25L7.55817 15.9354L10.8387 17.8146L12.0309 18.5L13.2239 17.8146L16.4418 15.9354L17.634 15.25V8.75L16.4418 8.0646L13.1918 6.1862L11.9972 5.5ZM8.74715 13.8784V10.1216L11.9972 8.24319L15.2472 10.1216V13.8784L11.9972 15.7568L8.74715 13.8784Z" fill="#2A5ADA"/>
</g>
<defs>
<clipPath id="clip0_1265_21449">
<rect width="24" height="24" fill="white"/>
</clipPath>
</defs>
</svg>