<svg viewBox="0 0 24 24" fill="none" xmlns="http://www.w3.org/2000/svg">
<path fill-rule="evenodd" clip-rule="evenodd" d="M19.8097 9.93525L18.1814 11.5642C17.4134 12.3315 16.3934 12.7545 15.3082 12.7545H14.9977C14.5837 12.7545 14.2477 12.4185 14.2477 12.0045C14.2477 11.5897 14.5837 11.2545 14.9977 11.2545H15.3082C15.9929 11.2545 16.6364 10.9875 17.1209 10.5037L18.7492 8.87475C19.2337 8.391 19.4999 7.74675 19.4999 7.06275C19.4999 6.37875 19.2337 5.7345 18.7492 5.25075C17.7802 4.2825 16.0934 4.2825 15.1252 5.25075L13.4962 6.879C13.0117 7.3635 12.7454 8.00625 12.7454 8.69175V8.99925C12.7454 9.414 12.4094 9.74925 11.9954 9.74925C11.5814 9.74925 11.2454 9.414 11.2454 8.99925V8.69175C11.2454 7.60575 11.6684 6.585 12.4357 5.8185L14.0647 4.19025C14.8319 3.423 15.8519 3 16.9372 3C18.0224 3 19.0424 3.423 19.8097 4.19025C20.5777 4.9575 20.9999 5.9775 20.9999 7.06275C20.9999 8.14875 20.5777 9.16875 19.8097 9.93525ZM11.2545 15.0007C11.2545 14.586 11.5905 14.2507 12.0045 14.2507C12.4185 14.2507 12.7545 14.586 12.7545 15.0007V15.3082C12.7545 16.3942 12.3315 17.415 11.5635 18.1815L9.93525 19.8097C9.168 20.5777 8.148 21 7.0635 21C5.9775 21 4.9575 20.5777 4.19025 19.8097C3.42225 19.0425 3 18.0225 3 16.9365C3 15.8512 3.423 14.8312 4.19025 14.0647L5.8185 12.4357C6.5865 11.6677 7.6065 11.2455 8.6925 11.2455H9.00225C9.417 11.2455 9.75225 11.5807 9.75225 11.9955C9.75225 12.4102 9.417 12.7455 9.00225 12.7455H8.6925C8.007 12.7455 7.3635 13.0117 6.879 13.4962L5.25075 15.1252C4.76625 15.609 4.5 16.2525 4.5 16.9365C4.5 17.622 4.76625 18.2655 5.25075 18.7492C6.219 19.7175 7.90725 19.7175 8.87475 18.7492L10.5037 17.121C10.9883 16.6365 11.2545 15.9937 11.2545 15.3082V15.0007ZM10.0847 8.92118C9.97744 8.97443 9.86269 8.99993 9.75019 8.99993C9.47494 8.99993 9.21019 8.84843 9.07894 8.58593L7.57894 5.58593C7.39369 5.21543 7.54369 4.76468 7.91419 4.57943C8.28544 4.39493 8.73544 4.54493 8.92069 4.91468L10.4207 7.91468C10.6059 8.28518 10.4559 8.73593 10.0847 8.92118ZM8.97685 9.93146C8.8921 10.2735 8.5861 10.5 8.2501 10.5C8.19009 10.5 8.1286 10.4925 8.06785 10.4775L5.06784 9.72746C4.66659 9.62696 4.42209 9.21971 4.52259 8.81846C4.62309 8.41646 5.03184 8.17271 5.43159 8.27321L8.4316 9.02246C8.8336 9.12296 9.07735 9.53021 8.97685 9.93146ZM13.9141 15.0788C14.2853 14.8943 14.7353 15.0443 14.9198 15.4141L16.4198 18.4141C16.6051 18.7846 16.4551 19.2353 16.0846 19.4206C15.9766 19.4738 15.8626 19.4993 15.7501 19.4993C15.4748 19.4993 15.2093 19.3478 15.0781 19.0846L13.5781 16.0846C13.3928 15.7148 13.5428 15.2641 13.9141 15.0788ZM15.0217 14.0678C15.1222 13.665 15.5302 13.422 15.9307 13.5225L18.9307 14.2725C19.3327 14.373 19.5765 14.7803 19.476 15.1815C19.3912 15.5228 19.0852 15.75 18.7492 15.75C18.6892 15.75 18.6277 15.7425 18.567 15.7268L15.567 14.9768C15.165 14.8763 14.9212 14.469 15.0217 14.0678Z" fill="currentColor"/>
</svg>