<svg viewBox="0 0 24 24" fill="none" xmlns="http://www.w3.org/2000/svg">
<path fill-rule="evenodd" clip-rule="evenodd" d="M19.8099 9.93549L18.1806 11.5648C17.4128 12.3319 16.3929 12.7541 15.3082 12.7541H14.9965C14.5823 12.7541 14.2463 12.4188 14.2463 12.0047C14.2463 11.5898 14.5823 11.2545 14.9965 11.2545H15.3082C15.992 11.2545 16.6361 10.9878 17.1202 10.5044L18.7495 8.8751C19.2336 8.38948 19.4996 7.74617 19.4996 7.06086C19.4996 6.37702 19.2336 5.73297 18.7495 5.24809C17.7495 4.24959 16.1239 4.24959 15.124 5.24809L13.4954 6.8781C13.0113 7.36225 12.7445 8.00703 12.7445 8.69161V8.99742C12.7445 9.41229 12.4085 9.74832 11.9944 9.74832C11.5802 9.74832 11.2442 9.41229 11.2442 8.99742V8.69161C11.2442 7.6069 11.6672 6.58629 12.4336 5.81771L14.0636 4.18769C15.6479 2.6041 18.2263 2.6041 19.8099 4.18769C20.5777 4.9548 21 5.97541 21 7.06086C21 8.14704 20.5777 9.16691 19.8099 9.93549ZM8.99604 15.7497C8.80444 15.7497 8.61285 15.676 8.46621 15.5301C8.17293 15.2368 8.17293 14.7623 8.46621 14.469L14.4667 8.46769C14.7593 8.17441 15.2338 8.17441 15.5271 8.46769C15.8197 8.76024 15.8197 9.23554 15.5271 9.52809L9.5266 15.5301C9.37996 15.676 9.18836 15.7497 8.99604 15.7497ZM9.00043 12.7453H8.6902C8.00636 12.7453 7.36158 13.0121 6.8767 13.4955L5.24817 15.1255C4.24968 16.1248 4.24894 17.7526 5.24817 18.7518C6.2474 19.7495 7.87446 19.7495 8.87442 18.7518L10.503 17.1225C10.9871 16.6369 11.2538 15.9936 11.2538 15.3083V15.001C11.2538 14.5861 11.5899 14.2508 12.004 14.2508C12.4181 14.2508 12.7542 14.5861 12.7542 15.001V15.3083C12.7542 16.3937 12.3312 17.4143 11.5641 18.1829L9.93481 19.8122C9.14265 20.6043 8.10142 21.0001 7.06093 21.0001C6.02043 21.0001 4.97994 20.6043 4.18778 19.8122C2.6042 18.2286 2.6042 15.6502 4.18704 14.0644L5.81631 12.4351C6.58489 11.6673 7.60549 11.245 8.6902 11.245H9.00043C9.4153 11.245 9.75059 11.5803 9.75059 11.9952C9.75059 12.4093 9.4153 12.7453 9.00043 12.7453Z" fill="currentColor"/>
</svg>