<svg width="24" height="24" viewBox="0 0 24 24" fill="none" xmlns="http://www.w3.org/2000/svg">
<path fill-rule="evenodd" clip-rule="evenodd" d="M21.1667 13H9.5C9.04 13 8.66667 12.6267 8.66667 12.1667C8.66667 11.7067 9.04 11.3333 9.5 11.3333H21.1667C21.6267 11.3333 22 11.7067 22 12.1667C22 12.6267 21.6267 13 21.1667 13ZM21.1667 6.33333H9.5C9.04 6.33333 8.66667 5.96 8.66667 5.5C8.66667 5.04 9.04 4.66667 9.5 4.66667H21.1667C21.6267 4.66667 22 5.04 22 5.5C22 5.96 21.6267 6.33333 21.1667 6.33333ZM4.5 21.3333C3.12167 21.3333 2 20.2117 2 18.8333C2 17.455 3.12167 16.3333 4.5 16.3333C5.87833 16.3333 7 17.455 7 18.8333C7 20.2117 5.87833 21.3333 4.5 21.3333ZM4.5 18C4.04083 18 3.66667 18.3742 3.66667 18.8333C3.66667 19.2925 4.04083 19.6667 4.5 19.6667C4.95917 19.6667 5.33333 19.2925 5.33333 18.8333C5.33333 18.3742 4.95917 18 4.5 18ZM4.5 14.6667C3.12167 14.6667 2 13.545 2 12.1667C2 10.7883 3.12167 9.66667 4.5 9.66667C5.87833 9.66667 7 10.7883 7 12.1667C7 13.545 5.87833 14.6667 4.5 14.6667ZM4.5 11.3333C4.04083 11.3333 3.66667 11.7075 3.66667 12.1667C3.66667 12.6258 4.04083 13 4.5 13C4.95917 13 5.33333 12.6258 5.33333 12.1667C5.33333 11.7075 4.95917 11.3333 4.5 11.3333ZM4.5 8C3.12167 8 2 6.87917 2 5.5C2 4.12167 3.12167 3 4.5 3C5.87833 3 7 4.12167 7 5.5C7 6.87917 5.87833 8 4.5 8ZM4.5 4.66667C4.04083 4.66667 3.66667 5.04083 3.66667 5.5C3.66667 5.95917 4.04083 6.33333 4.5 6.33333C4.95917 6.33333 5.33333 5.95917 5.33333 5.5C5.33333 5.04083 4.95917 4.66667 4.5 4.66667ZM9.5 18H21.1667C21.6267 18 22 18.3733 22 18.8333C22 19.2933 21.6267 19.6667 21.1667 19.6667H9.5C9.04 19.6667 8.66667 19.2933 8.66667 18.8333C8.66667 18.3733 9.04 18 9.5 18Z" fill="#6B7084"/>
</svg>
