<svg width="24" height="24" viewBox="0 0 24 24" fill="none" xmlns="http://www.w3.org/2000/svg">
<path fill-rule="evenodd" clip-rule="evenodd" d="M21.1303 12.4233H8.95653C8.47677 12.4233 8.08685 12.0342 8.08685 11.5544C8.08685 11.0746 8.44013 10.7623 8.91989 10.7623H21.132C21.6118 10.7623 22 11.0746 22 11.5544C22 12.0342 21.6109 12.4233 21.1303 12.4233ZM21.1303 5.47482H8.95653C8.47677 5.47482 8.08685 5.08574 8.08685 4.60681C8.08685 4.12613 8.44013 3.78329 8.91989 3.78329H21.132C21.6118 3.78329 22 4.12613 22 4.60681C22 5.08574 21.6109 5.47482 21.1303 5.47482ZM4.93271 20.6061C4.43201 21.0449 3.71848 21.1304 3.23697 21.1304C3.00755 21.1304 2.83135 21.1103 2.75546 21.1007C2.27919 21.0371 1.9451 20.6009 2.0079 20.1246C2.07158 19.6509 2.50511 19.315 2.98051 19.3778C3.13055 19.3961 3.30762 19.3952 3.46115 19.3804C3.428 19.3769 3.39573 19.3734 3.36607 19.3726C3.32071 19.3743 3.2832 19.3734 3.25965 19.3734C2.79035 19.3638 2.41265 18.9835 2.40829 18.5141C2.40305 18.0439 2.77291 17.6566 3.2422 17.6374C3.26575 17.6365 3.30501 17.6383 3.34601 17.6357C3.36607 17.6348 3.38613 17.633 3.40619 17.6313C3.26314 17.6173 3.10263 17.6147 2.96045 17.6296C2.49028 17.6775 2.05675 17.3312 2.00703 16.8566C1.95731 16.3803 2.29925 15.9537 2.77552 15.9023C3.01104 15.8752 4.22179 15.781 4.95016 16.4344C5.29646 16.7432 5.47877 17.1593 5.47877 17.6365C5.47877 17.955 5.39416 18.2481 5.23104 18.5002C5.39416 18.7541 5.47877 19.0507 5.47877 19.3734C5.47877 19.8672 5.28948 20.2938 4.93271 20.6061ZM5.47872 13.2939C5.47872 13.7737 5.0888 14.1628 4.60904 14.1628H2.86968C2.51814 14.1628 2.2015 13.9508 2.06717 13.6263C1.93196 13.3018 2.00611 12.9284 2.25471 12.6807C2.97872 11.9557 3.67481 11.0214 3.73761 10.6916C3.58147 10.6847 3.3695 10.6855 3.18545 10.6873L2.86968 10.6881C2.38992 10.6881 2 10.2991 2 9.82013C2 9.34033 2.38992 8.95125 2.86968 8.95125L3.17411 8.95037C3.95656 8.94688 4.57676 8.94165 5.03821 9.39965C5.43336 9.79134 5.47872 10.3226 5.47872 10.6881C5.47872 11.2264 5.15073 11.858 4.74424 12.4364C5.16033 12.5009 5.47872 12.8604 5.47872 13.2939ZM3.73937 7.21169C3.25961 7.21169 2.86969 6.82261 2.86969 6.3428V4.6059C2.66383 4.59805 2.46059 4.51779 2.30009 4.36338C1.95378 4.031 1.94332 3.48141 2.27653 3.13507L3.11307 2.26706C3.35905 2.01145 3.73501 1.93032 4.06387 2.06293C4.3936 2.19553 4.60905 2.51482 4.60905 2.869V6.3428C4.60905 6.82261 4.22001 7.21169 3.73937 7.21169ZM8.91989 17.7413H21.132C21.6118 17.7413 22 18.0231 22 18.5029C22 18.9819 21.6118 19.4861 21.132 19.4861H8.91989C8.44013 19.4861 8.08685 18.9819 8.08685 18.5029C8.08685 18.0231 8.44013 17.7413 8.91989 17.7413Z" fill="#6B7084"/>
</svg>
