<svg viewBox="0 0 24 24" fill="none" xmlns="http://www.w3.org/2000/svg">
<path fill-rule="evenodd" clip-rule="evenodd" d="M21.1667 6.66667H6.16667C5.70667 6.66667 5.33333 6.29333 5.33333 5.83333C5.33333 5.37333 5.70667 5 6.16667 5H21.1667C21.6267 5 22 5.37333 22 5.83333C22 6.29333 21.6267 6.66667 21.1667 6.66667ZM2 17.5H3.66667V19.1667H2V17.5ZM2 13.3333H3.66667V15H2V13.3333ZM2 9.16667H3.66667V10.8333H2V9.16667ZM2 5H3.66667V6.66667H2V5ZM6.16667 9.16667H17.8333C18.2933 9.16667 18.6667 9.54 18.6667 10C18.6667 10.46 18.2933 10.8333 17.8333 10.8333H6.16667C5.70667 10.8333 5.33333 10.46 5.33333 10C5.33333 9.54 5.70667 9.16667 6.16667 9.16667ZM6.16667 13.3333H21.1667C21.6267 13.3333 22 13.7067 22 14.1667C22 14.6267 21.6267 15 21.1667 15H6.16667C5.70667 15 5.33333 14.6267 5.33333 14.1667C5.33333 13.7067 5.70667 13.3333 6.16667 13.3333ZM6.16667 17.5H17.8333C18.2933 17.5 18.6667 17.8733 18.6667 18.3333C18.6667 18.7933 18.2933 19.1667 17.8333 19.1667H6.16667C5.70667 19.1667 5.33333 18.7933 5.33333 18.3333C5.33333 17.8733 5.70667 17.5 6.16667 17.5Z" fill="currentColor"/>
</svg>