<svg width="24" height="24" viewBox="0 0 24 24" fill="none" xmlns="http://www.w3.org/2000/svg">
<path fill-rule="evenodd" clip-rule="evenodd" d="M21.1669 12.9998H9.50039C9.03989 12.9998 8.66646 12.6269 8.66646 12.1669C8.66646 11.7069 9.03989 11.3331 9.50039 11.3331H21.1669C21.6266 11.3331 22 11.7069 22 12.1669C22 12.6269 21.6266 12.9998 21.1669 12.9998ZM21.1745 6.27941H9.45266C8.99216 6.27941 8.66646 5.96014 8.66646 5.5001C8.66646 5.04007 9.03989 4.66634 9.50039 4.66634H21.1669C21.6266 4.66634 22 5.04007 22 5.5001C22 5.96014 21.635 6.27941 21.1745 6.27941ZM4.5002 21.3333C3.12205 21.3333 2.0001 20.2113 2.0001 18.8337C2.0001 17.4544 3.12205 16.3332 4.5002 16.3332C5.87919 16.3332 7.00029 17.4544 7.00029 18.8337C7.00029 20.2113 5.87919 21.3333 4.5002 21.3333ZM4.50016 17.9999C4.0405 17.9999 3.66707 18.3737 3.66707 18.8337C3.66707 19.2929 4.0405 19.6666 4.50016 19.6666C4.95982 19.6666 5.33325 19.2929 5.33325 18.8337C5.33325 18.3737 4.95982 17.9999 4.50016 17.9999ZM4.5002 14.6665C3.12205 14.6665 2.0001 13.5453 2.0001 12.1669C2.0001 10.7885 3.12205 9.66644 4.5002 9.66644C5.87919 9.66644 7.00029 10.7885 7.00029 12.1669C7.00029 13.5453 5.87919 14.6665 4.5002 14.6665ZM4.50016 11.3331C4.0405 11.3331 3.66707 11.7069 3.66707 12.1669C3.66707 12.6261 4.0405 12.9998 4.50016 12.9998C4.95982 12.9998 5.33325 12.6261 5.33325 12.1669C5.33325 11.7069 4.95982 11.3331 4.50016 11.3331ZM4.9975 6.82743C4.86187 7.01095 4.65673 7.13161 4.429 7.1601C4.39467 7.16513 4.36034 7.16681 4.32601 7.16681C4.13428 7.16681 3.94756 7.10061 3.79769 6.97743L2.30484 5.75233C1.949 5.46072 1.89708 4.93532 2.18929 4.58003C2.48234 4.2239 3.00647 4.17194 3.36231 4.46439L4.17614 5.13141L5.49568 3.33901C5.76863 2.96947 6.29109 2.88903 6.66117 3.1622C7.03124 3.43538 7.11078 3.95659 6.83783 4.3278L4.9975 6.82743ZM9.50039 17.9999H21.1669C21.6266 17.9999 22 18.3728 22 18.8337C22 19.2937 21.6266 19.6666 21.1669 19.6666H9.50039C9.03989 19.6666 8.66646 19.2937 8.66646 18.8337C8.66646 18.3728 9.03989 17.9999 9.50039 17.9999Z" fill="#6B7084"/>
</svg>
