<svg viewBox="0 0 24 24" fill="none" xmlns="http://www.w3.org/2000/svg">
<path fill-rule="evenodd" clip-rule="evenodd" d="M19.9848 6.21499C19.9797 6.22089 19.9789 6.22762 19.9739 6.23267L17.4472 9.05079C17.2164 9.31089 16.8852 9.46156 16.5422 9.46156C16.5414 9.46156 16.5414 9.46156 16.5406 9.46156C16.1977 9.46156 15.8673 9.31173 15.6331 9.04995L13.1073 6.23267C13.1022 6.22678 13.1014 6.2192 13.0964 6.21331C12.1764 5.23101 12.1847 3.67296 13.134 2.70834C14.0415 1.78833 15.593 1.76812 16.5414 2.62669C17.4899 1.76897 19.0413 1.79001 19.9463 2.7075C20.8956 3.67465 20.9048 5.23354 19.9848 6.21499ZM18.7771 3.88424C18.4676 3.56943 17.9215 3.56859 17.6087 3.88592C17.5995 3.89518 17.5877 3.89771 17.5785 3.90612C17.5693 3.91454 17.566 3.92548 17.5568 3.9339L17.0734 4.34635C17.0332 4.38086 16.9864 4.3977 16.9429 4.42295C16.912 4.44062 16.8852 4.46251 16.8534 4.47598C16.7522 4.51722 16.6477 4.54416 16.5414 4.54416C16.5414 4.54416 16.5414 4.54416 16.5406 4.54416C16.5406 4.54416 16.5406 4.54416 16.5398 4.54416C16.4344 4.54416 16.3298 4.51806 16.2295 4.47598C16.1969 4.46251 16.1693 4.44062 16.1383 4.42295C16.0948 4.3977 16.0488 4.38086 16.0087 4.34719L15.5252 3.9339C15.5135 3.92464 15.5085 3.91033 15.4985 3.90023C15.491 3.8935 15.4801 3.89266 15.4726 3.88592C15.1606 3.56943 14.6169 3.56859 14.3033 3.88592C13.9788 4.21504 13.9788 4.75375 14.3041 5.08455C14.3092 5.0896 14.31 5.09549 14.315 5.10054C14.3192 5.10559 14.3259 5.10728 14.3309 5.11233L16.5406 7.57776L18.7511 5.11233C18.7553 5.10728 18.762 5.10559 18.7662 5.10054C18.7712 5.09549 18.7721 5.0896 18.7771 5.08455C19.1024 4.75375 19.1024 4.21504 18.7771 3.88424ZM8.18018 17.8822H7.35468C6.89885 17.8822 6.53001 17.5085 6.53001 17.0481C6.53001 16.5877 6.89885 16.2139 7.35468 16.2139H8.18018C8.636 16.2139 9.00484 16.5877 9.00484 17.0481C9.00484 17.5085 8.636 17.8822 8.18018 17.8822ZM8.18018 12.8773H7.35468C6.89885 12.8773 6.53001 12.5044 6.53001 12.0432C6.53001 11.5827 6.89885 11.2098 7.35468 11.2098H8.18018C8.636 11.2098 9.00484 11.5827 9.00484 12.0432C9.00484 12.5044 8.636 12.8773 8.18018 12.8773ZM8.18018 15.3798H7.35468C6.89885 15.3798 6.53001 15.006 6.53001 14.5456C6.53001 14.0852 6.89885 13.7115 7.35468 13.7115H8.18018C8.636 13.7115 9.00484 14.0852 9.00484 14.5456C9.00484 15.006 8.636 15.3798 8.18018 15.3798ZM15.6056 17.8822H10.655C10.1992 17.8822 9.83038 17.5085 9.83038 17.0481C9.83038 16.5877 10.1992 16.2139 10.655 16.2139H15.6056C16.0614 16.2139 16.4311 16.5877 16.4311 17.0481C16.4311 17.5085 16.0614 17.8822 15.6056 17.8822ZM15.6056 12.8773H10.655C10.1992 12.8773 9.83038 12.5044 9.83038 12.0432C9.83038 11.5827 10.1992 11.2098 10.655 11.2098H15.6056C16.0614 11.2098 16.4311 11.5827 16.4311 12.0432C16.4311 12.5044 16.0614 12.8773 15.6056 12.8773ZM15.6056 15.3798H10.655C10.1992 15.3798 9.83038 15.006 9.83038 14.5456C9.83038 14.0852 10.1992 13.7115 10.655 13.7115H15.6056C16.0614 13.7115 16.4311 14.0852 16.4311 14.5456C16.4311 15.006 16.0614 15.3798 15.6056 15.3798ZM10.6383 5.27226H5.67275V20.4234H17.382V11.1644C17.382 10.704 17.7626 10.3226 18.2184 10.3226C18.6742 10.3226 19.0548 10.704 19.0548 11.1644V20.4234C19.0548 21.2206 17.9783 22 17.193 22H5.19267C4.40731 22 4 21.2206 4 20.4234V5.27226C4 4.47514 4.40731 3.65024 5.19267 3.65024H10.3155C10.7713 3.65024 11.1401 4.02313 11.1401 4.48439C11.1401 4.94482 11.095 5.27226 10.6383 5.27226Z" fill="currentColor"/>
</svg>