<svg viewBox="0 0 24 24" fill="none" xmlns="http://www.w3.org/2000/svg">
<path d="M6.5533 7.49138C6.10349 8.40739 5.84898 9.44688 5.84898 10.5528C5.84898 12.371 6.97583 14.8107 8.49089 16.8648C9.23448 17.8729 10.0337 18.7356 10.7625 19.3358C11.127 19.636 11.4574 19.8569 11.7397 19.9991C12.0306 20.1456 12.2175 20.1818 12.311 20.1818C12.6368 20.1818 13.2151 19.9557 13.9874 19.3308C14.6787 18.7715 15.4156 17.9818 16.1036 17.0558L17.3714 18.3255C17.3809 18.335 17.3904 18.3443 17.3999 18.3535C16.6853 19.2866 15.9051 20.1167 15.1283 20.7451C14.2737 21.4366 13.2813 22 12.311 22C11.8276 22 11.3515 21.8388 10.9239 21.6234C10.4877 21.4037 10.0439 21.0981 9.60934 20.7401C8.73995 20.0241 7.841 19.0438 7.0306 17.9451C5.43769 15.7855 4.03348 12.9561 4.03348 10.5528C4.03348 8.94738 4.46389 7.43965 5.21448 6.15058L6.5533 7.49138Z" fill="currentColor"/>
<path d="M9.25564 10.1977C9.25405 10.2383 9.25325 10.2791 9.25325 10.32C9.25325 12.0145 10.6249 13.3882 12.3169 13.3882C12.3578 13.3882 12.3985 13.3874 12.439 13.3858L9.25564 10.1977Z" fill="currentColor"/>
<path d="M15.3391 10.8261L11.8115 7.29337C11.9759 7.26605 12.1448 7.25183 12.3169 7.25183C14.0089 7.25183 15.3806 8.6255 15.3806 10.32C15.3806 10.4924 15.3664 10.6615 15.3391 10.8261Z" fill="currentColor"/>
<path d="M18.087 13.5781C18.5255 12.5018 18.7844 11.4531 18.7844 10.5528C18.7844 6.80378 15.8597 3.81818 12.3167 3.81818C11.1839 3.81818 10.1143 4.1234 9.18325 4.66121L7.86302 3.33903C9.14598 2.49227 10.6724 2 12.3167 2C16.9204 2 20.5999 5.85882 20.5999 10.5528C20.5999 11.9457 20.1504 13.486 19.4652 14.9584L18.087 13.5781Z" fill="currentColor"/>
<path fill-rule="evenodd" clip-rule="evenodd" d="M4.13254 3.95907C4.44273 3.64842 4.94564 3.64842 5.25582 3.95907L19.698 18.4226C20.0082 18.7333 20.0082 19.2369 19.698 19.5476C19.3878 19.8582 18.8849 19.8582 18.5747 19.5476L4.13254 5.08401C3.82236 4.77337 3.82236 4.26971 4.13254 3.95907Z" fill="currentColor"/>
</svg>