<svg width="24" height="24" viewBox="0 0 24 24" fill="none" xmlns="http://www.w3.org/2000/svg">
<path fill-rule="evenodd" clip-rule="evenodd" d="M17.8332 22H6.1665C4.78817 22 3.6665 20.8792 3.6665 19.5V11.1667C3.6665 9.78833 4.78817 8.66667 6.1665 8.66667H6.99984V7C6.99984 4.24333 9.24234 2 11.9998 2C14.7573 2 16.9998 4.24333 16.9998 7V8.66667H17.8332C19.2115 8.66667 20.3332 9.78833 20.3332 11.1667V19.5C20.3332 20.8792 19.2115 22 17.8332 22ZM11.9998 3.66667C10.1615 3.66667 8.6665 5.16167 8.6665 7V8.66667H15.3332V7C15.3332 5.16167 13.8382 3.66667 11.9998 3.66667ZM18.6665 11.1667C18.6665 10.7067 18.2923 10.3333 17.8332 10.3333H6.1665C5.70734 10.3333 5.33317 10.7067 5.33317 11.1667V19.5C5.33317 19.9592 5.70734 20.3333 6.1665 20.3333H17.8332C18.2923 20.3333 18.6665 19.9592 18.6665 19.5V11.1667ZM12.8332 15.1017V17C12.8332 17.46 12.4598 17.8333 11.9998 17.8333C11.5398 17.8333 11.1665 17.46 11.1665 17V15.1017C10.6707 14.8125 10.3332 14.2808 10.3332 13.6667C10.3332 12.7475 11.0807 12 11.9998 12C12.919 12 13.6665 12.7475 13.6665 13.6667C13.6665 14.2808 13.329 14.8125 12.8332 15.1017Z" fill="#6B7084"/>
</svg>
