<svg viewBox="0 0 24 24" fill="none" xmlns="http://www.w3.org/2000/svg">
<path fill-rule="evenodd" clip-rule="evenodd" d="M17.8332 22H6.1665C4.78817 22 3.6665 20.8788 3.6665 19.5001V11.1669C3.6665 9.78896 4.78817 8.66781 6.1665 8.66781H7.29817C6.85484 7.42664 6.91484 6.0831 7.47317 4.8839C8.0365 3.67631 9.0365 2.75992 10.289 2.30424C11.5398 1.84772 12.8965 1.90646 14.1057 2.4704C15.314 3.03349 16.2298 4.03296 16.6857 5.28587L16.9265 5.83638C17.109 6.25849 16.9148 6.74858 16.4932 6.93236C16.0698 7.11614 15.5798 6.92061 15.3965 6.4985L15.1382 5.90184C14.8165 5.02153 14.2065 4.35605 13.4015 3.98094C12.5965 3.60498 11.6948 3.56638 10.859 3.87016C10.0248 4.17311 9.359 4.7832 8.984 5.58798C8.609 6.39276 8.56984 7.29573 8.87317 8.12989L9.06567 8.66781H17.8332C19.2115 8.66781 20.3332 9.78896 20.3332 11.1669V19.5001C20.3332 20.8788 19.2115 22 17.8332 22ZM18.6665 11.1669C18.6665 10.7079 18.2932 10.2824 17.8332 10.2824H8.76484C8.76317 10.2832 8.76234 10.2841 8.76067 10.2849C8.66734 10.3185 8.57317 10.3344 8.479 10.3344C8.38317 10.3344 8.2915 10.3143 8.20234 10.2824H6.1665C5.7065 10.2824 5.33317 10.7079 5.33317 11.1669V19.5001C5.33317 19.9599 5.7065 20.3334 6.1665 20.3334H17.8332C18.2932 20.3334 18.6665 19.9599 18.6665 19.5001V11.1669ZM12.8332 15.1019V17.0001C12.8332 17.4608 12.4607 17.8334 11.9998 17.8334C11.539 17.8334 11.1665 17.4608 11.1665 17.0001V15.1019C10.6707 14.8123 10.3332 14.2811 10.3332 13.6669C10.3332 12.7479 11.0807 12.0011 11.9998 12.0011C12.9182 12.0011 13.6665 12.7479 13.6665 13.6669C13.6665 14.2811 13.329 14.8123 12.8332 15.1019Z" fill="currentColor"/>
</svg>