<svg viewBox="0 0 24 24" fill="none" xmlns="http://www.w3.org/2000/svg">
<path fill-rule="evenodd" clip-rule="evenodd" d="M13.6667 11.1667V10.3333C13.6667 9.44583 12.8875 8.66667 12 8.66667C11.1125 8.66667 10.3333 9.44583 10.3333 10.3333V11.1667H13.6667ZM14.5 12.8333H9.5V14.8917C9.5 15.1358 9.6975 15.3333 9.94083 15.3333H14.0583C14.3017 15.3333 14.5 15.1358 14.5 14.8917V12.8333ZM15.3333 10.3333V11.1667C15.7933 11.1667 16.1667 11.54 16.1667 12V14.8917C16.1667 16.0542 15.2208 17 14.0583 17H9.94083C8.77833 17 7.83333 16.0542 7.83333 14.8917V12C7.83333 11.54 8.20667 11.1667 8.66667 11.1667V10.3333C8.66667 8.52667 10.1933 7 12 7C13.8067 7 15.3333 8.52667 15.3333 10.3333ZM22 12C22 17.5142 17.5142 22 12 22C6.48583 22 2 17.5142 2 12C2 6.48583 6.48583 2 12 2C14.4867 2 16.8342 2.9825 18.6667 4.72V3.66667C18.6667 3.20667 19.04 2.83333 19.5 2.83333C19.96 2.83333 20.3333 3.20667 20.3333 3.66667V7C20.3333 7.46 19.96 7.83333 19.5 7.83333H16.1667C15.7067 7.83333 15.3333 7.46 15.3333 7C15.3333 6.54 15.7067 6.16667 16.1667 6.16667H17.7775C16.2142 4.55083 14.2025 3.66667 12 3.66667C7.405 3.66667 3.66667 7.405 3.66667 12C3.66667 16.595 7.405 20.3333 12 20.3333C16.595 20.3333 20.3333 16.595 20.3333 12C20.3333 11.6333 20.3092 11.2658 20.2625 10.9067C20.2025 10.4508 20.5242 10.0325 20.98 9.97167C21.4367 9.91083 21.855 10.2333 21.915 10.69C21.9717 11.12 22 11.5608 22 12Z" fill="currentColor"/>
</svg>