<svg width="24" height="24" viewBox="0 0 24 24" fill="none" xmlns="http://www.w3.org/2000/svg">
<path fill-rule="evenodd" clip-rule="evenodd" d="M18.6665 19.5C18.6665 19.96 18.2923 20.3333 17.8332 20.3333H6.1665C5.70734 20.3333 5.33317 19.96 5.33317 19.5V11.1667C5.33317 10.7067 5.70734 10.3333 6.1665 10.3333H17.8332C18.2923 10.3333 18.6665 10.7067 18.6665 11.1667V19.5ZM8.6665 7C8.6665 5.16167 10.1615 3.66667 11.9998 3.66667C13.8382 3.66667 15.3332 5.16167 15.3332 7V8.66667H8.6665V7ZM17.8332 8.66667H16.9998V7C16.9998 4.2425 14.7573 2 11.9998 2C9.24234 2 6.99984 4.2425 6.99984 7V8.66667H6.1665C4.78817 8.66667 3.6665 9.78833 3.6665 11.1667V19.5C3.6665 20.8783 4.78817 22 6.1665 22H17.8332C19.2115 22 20.3332 20.8783 20.3332 19.5V11.1667C20.3332 9.78833 19.2115 8.66667 17.8332 8.66667Z" fill="#6B7084"/>
</svg>
