<svg viewBox="0 0 24 24" fill="none" xmlns="http://www.w3.org/2000/svg">
<g clip-path="url(#clip0_1265_21434)">
<path d="M12 24C18.6274 24 24 18.6274 24 12C24 5.37258 18.6274 0 12 0C5.37258 0 0 5.37258 0 12C0 18.6274 5.37258 24 12 24Z" fill="#48BEFF"/>
<path d="M15.366 17.759L6.48096 11.5252C6.1782 11.3128 5.93105 11.0306 5.76043 10.7024C5.58981 10.3742 5.50073 10.0098 5.50073 9.63994C5.50073 9.27008 5.58981 8.90565 5.76043 8.57749C5.93105 8.24933 6.1782 7.96709 6.48096 7.75464L8.63388 6.24109L17.52 12.4743C17.8227 12.6867 18.0699 12.969 18.2405 13.2971C18.4111 13.6253 18.5002 13.9897 18.5002 14.3596C18.5002 14.7294 18.4111 15.0939 18.2405 15.422C18.0699 15.7502 17.8227 16.0324 17.52 16.2449L15.366 17.759ZM8.63171 7.25139L6.95438 8.42492C6.75927 8.56135 6.59995 8.74284 6.48995 8.95398C6.37994 9.16513 6.32251 9.39969 6.32251 9.63777C6.32251 9.87585 6.37994 10.1104 6.48995 10.3216C6.59995 10.5327 6.75927 10.7142 6.95438 10.8506L15.3676 16.7492L17.0455 15.5757C17.2406 15.4392 17.3999 15.2577 17.5099 15.0466C17.6199 14.8355 17.6773 14.6009 17.6773 14.3628C17.6773 14.1247 17.6199 13.8902 17.5099 13.679C17.3999 13.4679 17.2406 13.2864 17.0455 13.15L8.63171 7.25139Z" fill="white"/>
<path d="M8.62447 16.7492L6.94877 15.5741C6.75366 15.4376 6.59434 15.2561 6.48433 15.045C6.37433 14.8339 6.31689 14.5993 6.31689 14.3612C6.31689 14.1231 6.37433 13.8886 6.48433 13.6774C6.59434 13.4663 6.75366 13.2848 6.94877 13.1484L11.2872 10.1207L10.5713 9.61745L6.48023 12.4743C6.17746 12.6867 5.93032 12.969 5.7597 13.2971C5.58908 13.6253 5.5 13.9897 5.5 14.3596C5.5 14.7294 5.58908 15.0939 5.7597 15.422C5.93032 15.7502 6.17746 16.0324 6.48023 16.2449L8.6261 17.7519L11.2817 15.8924L10.5692 15.3902L8.62447 16.7492ZM17.522 7.75791L15.3745 6.25195L12.7172 8.11149L13.4298 8.61312L15.3712 7.25466L17.0469 8.42982C17.242 8.56625 17.4013 8.74774 17.5113 8.95888C17.6213 9.17002 17.6788 9.40459 17.6788 9.64267C17.6788 9.88075 17.6213 10.1153 17.5113 10.3265C17.4013 10.5376 17.242 10.7191 17.0469 10.8555L12.7085 13.8826L13.4216 14.3848L17.5182 11.5231C17.8209 11.3106 18.0681 11.0284 18.2387 10.7002C18.4093 10.3721 18.4984 10.0077 18.4984 9.63779C18.4984 9.26793 18.4093 8.9035 18.2387 8.57534C18.0681 8.24718 17.8209 7.96494 17.5182 7.75249L17.5225 7.75791H17.522Z" fill="white"/>
<path d="M6.98828 12.1136L10.3668 9.74805L10.8375 10.4205L7.45845 12.786L6.98828 12.1136ZM16.6141 11.1602L14.9682 12.3126L15.4389 12.9856L17.1428 11.7903C16.9617 11.5832 16.7865 11.3717 16.6108 11.1596L16.6141 11.1602Z" fill="white"/>
</g>
<defs>
<clipPath id="clip0_1265_21434">
<rect width="24" height="24" fill="white"/>
</clipPath>
</defs>
</svg>