<svg viewBox="0 0 24 24" fill="none" xmlns="http://www.w3.org/2000/svg">
<path fill-rule="evenodd" clip-rule="evenodd" d="M4 0C1.79086 0 0 1.79086 0 4V20C0 22.2091 1.79086 24 4 24H20C22.2091 24 24 22.2091 24 20V4C24 1.79086 22.2091 0 20 0H4ZM18.5304 8.78074L20.7807 6.53026C21.0731 6.23737 21.0731 5.76303 20.7807 5.47015L18.5304 3.21966C18.2372 2.92678 17.7627 2.92678 17.4695 3.21966C17.1771 3.5133 17.1771 3.98765 17.4695 4.28053L18.4397 5.25029H5.25026C4.00952 5.25029 3 6.25996 3 7.50002V12.7501C3 13.1643 3.33625 13.5001 3.75034 13.5001C4.16442 13.5001 4.47801 13.1966 4.47801 12.7825V7.51207C4.47801 7.09872 4.83693 6.75011 5.25026 6.75011H18.4397L17.4695 7.71988C17.1771 8.01276 17.1771 8.48786 17.4695 8.78074C17.6161 8.92681 17.808 8.99984 18 8.99984C18.1919 8.99984 18.3838 8.92681 18.5304 8.78074ZM10.5 8.5V9.73868H11.4391V15.5H12.8333V8.5H10.5ZM5.47015 15.2193C5.76258 14.9264 6.23787 14.9264 6.53029 15.2193C6.82348 15.5122 6.82348 15.9865 6.53029 16.2794L5.51397 17.2966H18.8349C19.2483 17.2966 19.5906 16.9571 19.5906 16.5437V11.2733C19.5906 10.8591 19.8361 10.5 20.2502 10.5C20.6643 10.5 20.9998 10.8351 20.9998 11.2499V16.4993C20.9998 17.7401 19.991 18.7498 18.7503 18.7498H5.56082L6.53029 19.7195C6.82348 20.0124 6.82348 20.4868 6.53029 20.7796C6.3837 20.9265 6.19253 20.9995 6.0006 20.9995C5.80867 20.9995 5.61674 20.9265 5.47015 20.7796L3.21989 18.5299C2.9267 18.237 2.9267 17.7627 3.21989 17.469L5.47015 15.2193Z" fill="currentColor"/>
</svg>