<svg width="24" height="24" viewBox="0 0 24 24" fill="none" xmlns="http://www.w3.org/2000/svg">
<path fill-rule="evenodd" clip-rule="evenodd" d="M20.7807 6.53026L18.5304 8.78074C18.3838 8.92681 18.1919 8.99984 18 8.99984C17.808 8.99984 17.6161 8.92681 17.4695 8.78074C17.1771 8.48786 17.1771 8.01276 17.4695 7.71988L18.4397 6.75011H5.25026C4.83693 6.75011 4.47801 7.09872 4.47801 7.51207V12.7825C4.47801 13.1966 4.16442 13.5001 3.75034 13.5001C3.33625 13.5001 3 13.1643 3 12.7501V7.50002C3 6.25996 4.00952 5.25029 5.25026 5.25029H18.4397L17.4695 4.28053C17.1771 3.98765 17.1771 3.5133 17.4695 3.21966C17.7627 2.92678 18.2372 2.92678 18.5304 3.21966L20.7807 5.47015C21.0731 5.76303 21.0731 6.23737 20.7807 6.53026ZM10.5 9.73868V8.5H12.8333V15.5H11.4391V9.73868H10.5ZM6.53029 15.2193C6.23787 14.9264 5.76258 14.9264 5.47015 15.2193L3.21989 17.469C2.9267 17.7627 2.9267 18.237 3.21989 18.5299L5.47015 20.7796C5.61674 20.9265 5.80867 20.9995 6.0006 20.9995C6.19253 20.9995 6.3837 20.9265 6.53029 20.7796C6.82348 20.4868 6.82348 20.0124 6.53029 19.7195L5.56082 18.7498H18.7503C19.991 18.7498 20.9998 17.7401 20.9998 16.4993V11.2499C20.9998 10.8351 20.6643 10.5 20.2502 10.5C19.8361 10.5 19.5906 10.8591 19.5906 11.2733V16.5437C19.5906 16.9571 19.2483 17.2966 18.8349 17.2966H5.51397L6.53029 16.2794C6.82348 15.9865 6.82348 15.5122 6.53029 15.2193Z" fill="#6B7084"/>
</svg>
