<svg width="24" height="24" viewBox="0 0 24 24" fill="none" xmlns="http://www.w3.org/2000/svg">
<path fill-rule="evenodd" clip-rule="evenodd" d="M18.7498 18.75H5.56035L6.52999 19.7198C6.82359 20.013 6.82359 20.4878 6.52999 20.7803C6.38394 20.9265 6.19197 21 6 21C5.80803 21 5.61606 20.9265 5.47001 20.7803L3.22058 18.531C3.15132 18.4613 3.09636 18.3788 3.05797 18.2865C3.02033 18.1965 3.00151 18.1013 3.00075 18.0053C3.00075 18.003 3 18.0023 3 18L3.00075 17.9978C3.00075 17.901 3.02033 17.8043 3.05797 17.7135C3.09561 17.622 3.15056 17.5395 3.21907 17.4705L3.21982 17.4698L5.47001 15.2198C5.76286 14.9265 6.23714 14.9265 6.52999 15.2198C6.82359 15.513 6.82359 15.987 6.52999 16.2803L5.56035 17.25H18.7498C19.1639 17.25 19.5004 16.9133 19.5004 16.5C19.5004 16.5 19.5004 7.91343 19.5004 7.50018C19.5004 7.08693 19.1639 6.75018 18.7498 6.75018H5.25019C4.83689 6.75018 4.44467 7.08693 4.44467 7.50018V12.7515C4.44467 13.1655 4.16386 13.5 3.74981 13.5C3.33576 13.5 3 13.164 3 12.75V7.50018C3 6.25968 4.00954 5.25018 5.25019 5.25018H18.7498C19.9905 5.25018 21 6.25968 21 7.50018V16.5C21 17.7405 19.9905 18.75 18.7498 18.75Z" fill="#6B7084"/>
</svg>
