<svg viewBox="0 0 24 24" fill="none" xmlns="http://www.w3.org/2000/svg">
<path fill-rule="evenodd" clip-rule="evenodd" d="M20.7801 6.53026L18.5306 8.78074C18.384 8.92681 18.1921 9.0006 18.0001 9.0006C17.8082 9.0006 17.6163 8.92681 17.4697 8.78074C17.1765 8.4871 17.1765 8.01276 17.4697 7.71988L18.4399 6.75011H5.25028C4.83695 6.75011 4.49994 7.08667 4.49994 7.50002V12.7501C4.49994 13.1643 4.16443 13.5001 3.75035 13.5001C3.33626 13.5001 3 13.1643 3 12.7501V7.50002C3 6.25921 4.00953 5.25029 5.25028 5.25029H18.4391L17.4697 4.28053C17.1765 3.98765 17.1765 3.51255 17.4697 3.21966C17.7629 2.92678 18.2374 2.92678 18.5306 3.21966L20.7801 5.47015C21.0733 5.76303 21.0733 6.23737 20.7801 6.53026ZM5.47017 15.2193C5.7626 14.9264 6.23714 14.9264 6.53033 15.2193C6.82352 15.5122 6.82352 15.9873 6.53033 16.2802L5.514 17.2966H18.8381C19.2515 17.2966 19.5938 16.9571 19.5938 16.5437V11.2733C19.5938 10.8591 19.8363 10.5 20.2504 10.5C20.6645 10.5 21 10.8358 21 11.2492V16.4993C21 17.7408 19.9912 18.7498 18.7497 18.7498H5.56085L6.53033 19.7195C6.82352 20.0124 6.82352 20.4868 6.53033 20.7796C6.38374 20.9265 6.19181 20.9995 5.99987 20.9995C5.80794 20.9995 5.61601 20.9265 5.47017 20.7796L3.21989 18.5299C2.9267 18.237 2.9267 17.7619 3.21989 17.469L5.47017 15.2193Z" fill="currentColor"/>
</svg>