<svg width="24" height="24" viewBox="0 0 24 24" fill="none" xmlns="http://www.w3.org/2000/svg">
<path fill-rule="evenodd" clip-rule="evenodd" d="M4 0C1.79086 0 0 1.79086 0 4V20C0 22.2091 1.79086 24 4 24H20C22.2091 24 24 22.2091 24 20V4C24 1.79086 22.2091 0 20 0H4ZM18.5306 8.78074L20.7801 6.53026C21.0733 6.23737 21.0733 5.76303 20.7801 5.47015L18.5306 3.21966C18.2374 2.92678 17.7629 2.92678 17.4697 3.21966C17.1765 3.51255 17.1765 3.98765 17.4697 4.28053L18.4391 5.25029H5.25028C4.00953 5.25029 3 6.25921 3 7.50002V12.7501C3 13.1643 3.33626 13.5001 3.75035 13.5001C4.16443 13.5001 4.49994 13.1643 4.49994 12.7501V7.50002C4.49994 7.08667 4.83695 6.75011 5.25028 6.75011H18.4399L17.4697 7.71988C17.1765 8.01276 17.1765 8.4871 17.4697 8.78074C17.6163 8.92681 17.8082 9.0006 18.0001 9.0006C18.1921 9.0006 18.384 8.92681 18.5306 8.78074ZM6.53033 15.2193C6.23714 14.9264 5.7626 14.9264 5.47017 15.2193L3.21989 17.469C2.9267 17.7619 2.9267 18.237 3.21989 18.5299L5.47017 20.7796C5.61601 20.9265 5.80794 20.9995 5.99987 20.9995C6.19181 20.9995 6.38374 20.9265 6.53033 20.7796C6.82352 20.4868 6.82352 20.0124 6.53033 19.7195L5.56085 18.7498H18.7497C19.9912 18.7498 21 17.7408 21 16.4993V11.2492C21 10.8358 20.6645 10.5 20.2504 10.5C19.8363 10.5 19.5938 10.8591 19.5938 11.2733V16.5437C19.5938 16.9571 19.2515 17.2966 18.8381 17.2966H5.514L6.53033 16.2802C6.82352 15.9873 6.82352 15.5122 6.53033 15.2193Z" fill="#6B7084"/>
</svg>
