<svg viewBox="0 0 24 24" fill="none" xmlns="http://www.w3.org/2000/svg">
<g clip-path="url(#clip0_1265_21422)">
<path d="M12 24C18.6274 24 24 18.6274 24 12C24 5.37258 18.6274 0 12 0C5.37258 0 0 5.37258 0 12C0 18.6274 5.37258 24 12 24Z" fill="#0D4EA0"/>
<path d="M10.8021 18.4713C10.7925 18.4808 10.7734 18.4904 10.7638 18.5H9.70188C9.68273 18.5 9.67315 18.4904 9.66357 18.4808L6.5333 14.9448C6.52875 14.9361 6.52637 14.9263 6.52637 14.9164C6.52637 14.9066 6.52875 14.8968 6.5333 14.8881L10.4319 8.15884C10.4511 8.13079 10.4983 8.13079 10.5175 8.15884L11.6081 10.0459C11.6177 10.0555 11.6177 10.0746 11.6081 10.0938L8.97115 14.6404C8.96157 14.6588 8.97115 14.678 8.98073 14.6972L10.5551 16.4699C10.5656 16.4801 10.579 16.4868 10.5934 16.4891H12.4524C12.5003 16.4891 12.5188 16.537 12.49 16.5651L10.8021 18.4713ZM11.9584 5.52874C11.9783 5.49042 12.0255 5.49042 12.035 5.52874L17.4697 14.8682C17.4793 14.8881 17.4697 14.9072 17.4601 14.9257L14.3306 18.4617C14.32 18.4718 14.3067 18.4785 14.2923 18.4808H11.7504C11.7025 18.4808 11.684 18.4329 11.7128 18.4049L13.4103 16.4795L15.0038 14.6876C15.023 14.6684 15.023 14.6493 15.0134 14.6308L11.9967 9.42668L10.8589 7.463C10.8493 7.45411 10.8493 7.43495 10.8589 7.41511L11.9584 5.52874Z" fill="white"/>
</g>
<defs>
<clipPath id="clip0_1265_21422">
<rect width="24" height="24" fill="white"/>
</clipPath>
</defs>
</svg>