<svg viewBox="0 0 24 24" fill="none" xmlns="http://www.w3.org/2000/svg">
<g clip-path="url(#clip0_1265_21418)">
<path d="M11.965 0C8.78544 0.00927496 5.73954 1.28005 3.49618 3.53326C1.25281 5.78647 -0.00462469 8.83791 1.2782e-05 12.0175C0.00465026 15.197 1.27098 18.2448 3.52091 20.4915C5.77084 22.7381 8.82043 24 12 24C15.1796 24 18.2292 22.7381 20.4791 20.4915C22.729 18.2448 23.9953 15.197 24 12.0175C24.0046 8.83791 22.7472 5.78647 20.5038 3.53326C18.2605 1.28005 15.2146 0.00927496 12.035 0L11.965 0Z" fill="#345D9D"/>
<path d="M11.9605 12.6643L11.0002 15.8889H16.1096C16.1434 15.8872 16.1772 15.8926 16.2087 15.9048C16.2403 15.9166 16.2692 15.9345 16.294 15.9573C16.3185 15.9807 16.3384 16.0087 16.3524 16.0396C16.3673 16.0705 16.3754 16.1043 16.3762 16.1387V16.2229L15.9313 17.7559C15.9122 17.8286 15.8684 17.8924 15.8074 17.9363C15.747 17.9806 15.6732 18.003 15.5983 17.9997H7.7796L9.08966 13.5403L7.62402 13.9843L7.95699 12.9626L9.42262 12.5177L11.2668 6.24488C11.2868 6.17261 11.3308 6.10933 11.3917 6.06552C11.4518 6.02118 11.5251 5.99816 11.5998 6.00011H13.5817C13.6155 5.99925 13.6492 6.00497 13.6808 6.01696C13.7127 6.02856 13.742 6.04642 13.767 6.06948C13.792 6.09252 13.8119 6.12054 13.8255 6.15173C13.8397 6.18289 13.8474 6.2166 13.8483 6.25083V6.33605L12.2934 11.6228L13.7601 11.1779L13.4469 12.2422L11.9605 12.6643Z" fill="white"/>
</g>
<defs>
<clipPath id="clip0_1265_21418">
<rect width="24" height="24" fill="white"/>
</clipPath>
</defs>
</svg>