<svg width="24" height="24" viewBox="0 0 24 24" fill="none" xmlns="http://www.w3.org/2000/svg">
<g clip-path="url(#clip0_1265_21410)">
<path d="M12 24C18.6274 24 24 18.6274 24 12C24 5.37258 18.6274 0 12 0C5.37258 0 0 5.37258 0 12C0 18.6274 5.37258 24 12 24Z" fill="#F55749"/>
<path d="M11.8786 5.53152C11.9156 5.51085 11.9572 5.5 11.9995 5.5C12.0418 5.5 12.0835 5.51085 12.1204 5.53152L17.4665 8.5331C17.503 8.55326 17.5334 8.58281 17.5547 8.61869C17.5759 8.65457 17.5872 8.69548 17.5873 8.73719C17.5873 8.82169 17.5418 8.89968 17.4671 8.94128L12.8165 11.5633C12.6525 11.3768 12.4291 11.2528 12.1841 11.2123V9.7869C12.6878 9.70305 13.072 9.27667 13.072 8.76124C13.072 8.18601 12.5936 7.71933 12.0028 7.71933C11.4119 7.71933 10.9336 8.18601 10.9336 8.76124C10.9336 9.27342 11.3138 9.6985 11.8136 9.7856V11.2142C11.572 11.2558 11.3518 11.3787 11.1896 11.5626L6.53973 8.95168C6.50309 8.93169 6.4725 8.90222 6.45116 8.86635C6.42983 8.83047 6.41854 8.78952 6.41847 8.74778C6.41841 8.70605 6.42957 8.66506 6.45079 8.62912C6.47201 8.59318 6.5025 8.5636 6.53908 8.5435L11.8793 5.53347L11.8786 5.53152ZM17.4821 9.31437C17.5189 9.29348 17.5605 9.28245 17.6029 9.28234C17.6452 9.28222 17.6869 9.29303 17.7238 9.31372C17.7604 9.3339 17.7909 9.36344 17.8123 9.3993C17.8336 9.43517 17.8451 9.47607 17.8454 9.51781L17.8499 15.3455C17.8499 15.43 17.8044 15.5073 17.729 15.5496L12.552 18.468C12.3914 18.559 12.19 18.4452 12.19 18.2639L12.1854 13.2636C12.4363 13.222 12.6638 13.094 12.8269 12.9029L14.1204 13.6276C14.0847 13.7606 14.0765 13.8995 14.0963 14.0358C14.1782 14.6058 14.7197 15.0023 15.304 14.9224C15.889 14.8418 16.2958 14.3146 16.214 13.7446C16.1321 13.1746 15.59 12.7781 15.0056 12.8587C14.8604 12.8781 14.7207 12.9272 14.5953 13.0029C14.4698 13.0786 14.3613 13.1793 14.2764 13.2987L13.0089 12.5883C13.0999 12.3472 13.0934 12.0813 12.9927 11.8441L17.4827 9.31307L17.4821 9.31437ZM6.15559 9.51716C6.15559 9.37937 6.27129 9.28122 6.39738 9.28122C6.43963 9.28122 6.48188 9.29227 6.51828 9.31372L11.0129 11.8473C10.9134 12.0839 10.9082 12.3478 10.9979 12.5883L9.7311 13.2987C9.64618 13.1793 9.53763 13.0786 9.41217 13.0029C9.28672 12.9272 9.14705 12.8781 9.00183 12.8587C8.41685 12.7781 7.87672 13.1752 7.79418 13.7446C7.71163 14.314 8.11916 14.8411 8.70414 14.9217C9.28912 15.0023 9.8286 14.6052 9.91179 14.0358C9.93167 13.8993 9.92349 13.7602 9.88775 13.627L11.1805 12.9022C11.3424 13.092 11.5673 13.2194 11.8156 13.2623L11.8117 18.2639C11.8117 18.4452 11.6102 18.5583 11.449 18.4673L6.27129 15.5489C6.23477 15.5288 6.20431 15.4992 6.18306 15.4633C6.1618 15.4275 6.15052 15.3865 6.15039 15.3448L6.15559 9.51716Z" fill="white"/>
</g>
<defs>
<clipPath id="clip0_1265_21410">
<rect width="24" height="24" fill="white"/>
</clipPath>
</defs>
</svg>
