<svg viewBox="0 0 24 24" fill="none" xmlns="http://www.w3.org/2000/svg">
<g clip-path="url(#clip0_1265_21404)">
<path d="M12 24C18.6274 24 24 18.6274 24 12C24 5.37258 18.6274 0 12 0C5.37258 0 0 5.37258 0 12C0 18.6274 5.37258 24 12 24Z" fill="#172852"/>
<path d="M9.83098 5.87763C11.1335 5.39044 12.5995 5.38933 13.9265 5.78976C15.6539 6.32589 17.1121 7.62951 17.874 9.26571C18.0843 9.73176 18.2856 10.2178 18.3056 10.7362C17.3346 10.1733 16.2701 9.80851 15.2034 9.47593C13.4971 8.86083 11.7108 8.43371 10.0957 7.58835C9.71975 7.36367 9.24034 7.13342 9.13801 6.66514C9.09686 6.26026 9.52509 6.03447 9.83098 5.87763Z" fill="#FFD83D"/>
<path d="M5.89904 9.81525C6.27611 8.79193 6.89455 7.84203 7.73434 7.13794C7.9479 8.89427 8.69537 10.5916 9.93003 11.8686C11.4105 13.4069 13.5194 14.3512 15.6651 14.3156C16.5171 14.3423 17.3502 14.1455 18.1811 13.9864C17.3636 16.9407 14.1256 18.9017 11.1258 18.43C9.31493 18.1987 7.64313 17.1264 6.63427 15.6126C5.49639 13.9397 5.20941 11.7184 5.89904 9.81525Z" fill="#FFD83D"/>
<path d="M15.2034 9.47595C16.2701 9.80853 17.3345 10.1734 18.3056 10.7362L18.3712 10.7707C18.4613 11.4481 18.5269 12.1388 18.4068 12.8173C17.9185 12.6104 17.5225 12.2467 17.1087 11.9252C16.3123 11.2623 15.4992 10.5037 15.2034 9.47595Z" fill="#FF6F03"/>
</g>
<defs>
<clipPath id="clip0_1265_21404">
<rect width="24" height="24" fill="white"/>
</clipPath>
</defs>
</svg>