<svg viewBox="0 0 24 24" fill="none" xmlns="http://www.w3.org/2000/svg">
<path fill-rule="evenodd" clip-rule="evenodd" d="M18.4866 19.5351C16.3982 21.6054 13.4879 21.8995 12.6126 21.9405C12.5217 21.9749 12.4242 22 12.3208 22C12.2108 22 12.1065 21.9757 12.0098 21.9372C11.072 21.8861 8.24335 21.5627 6.1942 19.5351C4.73863 18.0957 4 16.1293 4 13.6912C4 13.3963 4.15673 13.1248 4.411 12.9748C4.66693 12.8257 4.98122 12.8224 5.23966 12.9648L11.4863 16.4209V14.3145C8.28253 13.909 5.78654 11.2673 5.67983 8.03748C5.66899 7.98302 5.64732 7.93275 5.64732 7.87494V2.84039C5.64732 2.50106 5.85407 2.19609 6.17003 2.06958C6.48515 1.94306 6.84696 2.02014 7.08289 2.26479L9.66141 4.93749L11.6622 2.31422C11.6855 2.28406 11.7181 2.26898 11.7439 2.24301C11.7714 2.21452 11.7889 2.18017 11.8206 2.15587C11.8364 2.14414 11.8556 2.14163 11.8714 2.13158C11.919 2.10058 11.9682 2.08047 12.0207 2.05952C12.0699 2.03941 12.1174 2.01931 12.1691 2.00925C12.2216 1.9992 12.2733 2.00004 12.3266 2.00004C12.38 2.00004 12.4308 1.9992 12.4834 2.00925C12.5342 2.01847 12.5809 2.03941 12.6301 2.05868C12.6834 2.07963 12.7343 2.09974 12.7826 2.13158C12.7976 2.14163 12.816 2.14414 12.831 2.15504C12.8627 2.1785 12.8785 2.21201 12.9052 2.23882C12.9327 2.26563 12.9661 2.28155 12.9902 2.31255L14.9985 4.93581L17.557 2.26731C17.793 2.02098 18.1539 1.94306 18.4707 2.06958C18.7875 2.19525 18.9943 2.50106 18.9943 2.84039V7.71659C18.9993 7.75429 19.0168 7.78697 19.0168 7.82551C19.0168 11.1668 16.4524 13.9266 13.1553 14.3212V16.4435L19.4261 12.9656C19.6837 12.8224 19.9988 12.8257 20.2539 12.974C20.509 13.1231 20.6658 13.3946 20.6666 13.6895C20.6724 16.1276 19.9388 18.0949 18.4866 19.5351ZM5.78736 15.1691C6.00912 16.4653 6.53849 17.5343 7.36966 18.3563C8.68518 19.6574 10.46 20.0839 11.4863 20.2213V18.3219L5.78736 15.1691ZM17.3378 7.93023C17.3361 7.91096 17.3261 7.89421 17.3261 7.87494V4.91403L15.5304 6.78743C15.362 6.96253 15.1236 7.05721 14.881 7.04296C14.6367 7.02956 14.4116 6.91059 14.2632 6.71705L12.3275 4.18846L10.4 6.71621C10.2525 6.90975 10.0274 7.02872 9.78479 7.04296C9.53719 7.05469 9.30293 6.96337 9.13453 6.7891L7.31548 4.90397V7.71658C7.32048 7.75429 7.33799 7.78696 7.33799 7.8255C7.33799 10.5208 9.58305 12.7134 12.3433 12.7134C15.066 12.7134 17.2786 10.5761 17.3378 7.93023ZM13.1553 18.3454V20.2221C14.1807 20.0864 15.9981 19.6633 17.3186 18.3479C18.1422 17.5268 18.6666 16.4611 18.8825 15.1683L13.1553 18.3454Z" fill="currentColor"/>
</svg>