<svg width="24" height="24" viewBox="0 0 24 24" fill="none" xmlns="http://www.w3.org/2000/svg">
<path fill-rule="evenodd" clip-rule="evenodd" d="M19.4998 7C19.4998 5.75 18.2501 4.5 17.0004 4.5C18.2501 4.5 19.4998 3.25 19.4998 2C19.4998 3.25 20.7503 4.5 22 4.5C20.7503 4.5 19.4998 5.75 19.4998 7ZM18.4224 9.25583L5.92204 21.7558C5.75976 21.9192 5.54646 22 5.33316 22C5.11986 22 4.90655 21.9192 4.74428 21.7558L2.24404 19.2558C1.91865 18.9308 1.91865 18.4025 2.24404 18.0775L14.7444 5.5775C15.0698 5.25167 15.5968 5.25167 15.923 5.5775L18.4224 8.0775C18.7486 8.4025 18.7486 8.93 18.4224 9.25583ZM4.01152 18.6667L5.33315 19.9883L13.7381 11.5833L12.4165 10.2617L4.01152 18.6667ZM15.3333 7.34583L13.5951 9.08333L14.9167 10.405L16.6549 8.66667L15.3333 7.34583ZM11.1667 7C11.1667 5.75 9.91621 4.5 8.66651 4.5C9.91621 4.5 11.1667 3.25 11.1667 2C11.1667 3.25 12.4164 4.5 13.667 4.5C12.4164 4.5 11.1667 5.75 11.1667 7ZM19.0832 11.1667C19.0832 12.625 20.542 14.0833 22 14.0833C20.542 14.0833 19.0832 15.5417 19.0832 17C19.0832 15.5417 17.6252 14.0833 16.1664 14.0833C17.6252 14.0833 19.0832 12.625 19.0832 11.1667Z" fill="#6B7084"/>
</svg>
