<svg width="24" height="24" viewBox="0 0 24 24" fill="none" xmlns="http://www.w3.org/2000/svg">
<g clip-path="url(#clip0_1265_21397)">
<path d="M12 24C18.6274 24 24 18.6274 24 12C24 5.37258 18.6274 0 12 0C5.37258 0 0 5.37258 0 12C0 18.6274 5.37258 24 12 24Z" fill="#5592D7"/>
<path d="M14.5595 9.78571V18.4995L7.20055 14.2632C5.02428 12.989 5.16265 12.1964 5.16265 10.4749L12.7279 14.8489V10.853L14.5589 9.78503L14.5595 9.78571Z" fill="white"/>
<path opacity="0.6" d="M12.7285 14.8488L5.16333 10.4741L12.521 6.2378C14.6973 4.9972 15.3192 5.5144 16.8393 6.3755L9.27405 10.7502L12.7285 12.7478V14.8488Z" fill="white"/>
<path opacity="0.2" d="M9.27411 10.7501L16.8393 6.37537V14.8487C16.8393 17.3635 16.0796 17.6389 14.5596 18.5V9.78552L11.0695 11.7824L9.27344 10.7494L9.27411 10.7501Z" fill="white"/>
</g>
<defs>
<clipPath id="clip0_1265_21397">
<rect width="24" height="24" fill="white"/>
</clipPath>
</defs>
</svg>
