<svg width="24" height="24" viewBox="0 0 24 24" fill="none" xmlns="http://www.w3.org/2000/svg">
<g clip-path="url(#clip0_1265_21392)">
<path d="M12 24C18.6274 24 24 18.6274 24 12C24 5.37258 18.6274 0 12 0C5.37258 0 0 5.37258 0 12C0 18.6274 5.37258 24 12 24Z" fill="#FF2D55"/>
<path d="M10.105 9.361L5.94201 14.3565C5.64864 13.6056 5.49872 12.8062 5.50001 12C5.50001 8.40904 8.40905 5.5 12 5.5C15.5916 5.5 18.5 8.40904 18.5 12C18.5 13.9855 17.6095 15.7635 16.2055 16.956H7.79451C7.42632 16.6404 7.09292 16.2864 6.80001 15.9H14.223V13.0855L16.566 15.9H17.2L14.2201 12.325L13.3975 13.313L10.1056 9.361H10.105ZM14.2206 8.1C13.7973 8.11142 13.395 8.28763 13.0996 8.59113C12.8042 8.89464 12.6389 9.30146 12.6389 9.725C12.6389 10.1485 12.8042 10.5554 13.0996 10.8589C13.395 11.1624 13.7973 11.3386 14.2206 11.35C14.644 11.3386 15.0462 11.1624 15.3417 10.8589C15.6371 10.5554 15.8024 10.1485 15.8024 9.725C15.8024 9.30146 15.6371 8.89464 15.3417 8.59113C15.0462 8.28763 14.644 8.11142 14.2206 8.1ZM10.1061 6.9235C9.99756 6.92057 9.88949 6.93943 9.78832 6.97896C9.68715 7.01849 9.59492 7.07789 9.51709 7.15366C9.43925 7.22942 9.37739 7.32001 9.33514 7.42008C9.2929 7.52015 9.27114 7.62767 9.27114 7.7363C9.27114 7.84492 9.2929 7.95244 9.33514 8.05251C9.37739 8.15258 9.43925 8.24317 9.51709 8.31893C9.59492 8.3947 9.68715 8.4541 9.78832 8.49363C9.88949 8.53316 9.99756 8.55202 10.1061 8.54909C10.3179 8.54338 10.5191 8.45524 10.6669 8.30344C10.8146 8.15163 10.8973 7.94814 10.8973 7.7363C10.8973 7.52445 10.8146 7.32096 10.6669 7.16916C10.5191 7.01735 10.3179 6.92921 10.1061 6.9235ZM8.44805 17.4435H15.5526C14.4964 18.1339 13.2618 18.5011 12 18.5C10.7384 18.501 9.504 18.1338 8.44805 17.4435ZM13.0826 13.6935L11.649 15.4125H6.46851C6.26152 15.0771 6.0853 14.7237 5.94201 14.3565H10.1056V10.1209L13.0826 13.693V13.6935Z" fill="white"/>
</g>
<defs>
<clipPath id="clip0_1265_21392">
<rect width="24" height="24" fill="white"/>
</clipPath>
</defs>
</svg>
