<svg width="24" height="24" viewBox="0 0 24 24" fill="none" xmlns="http://www.w3.org/2000/svg">
<g clip-path="url(#clip0_1265_21385)">
<path d="M12 24C18.6274 24 24 18.6274 24 12C24 5.37258 18.6274 0 12 0C5.37258 0 0 5.37258 0 12C0 18.6274 5.37258 24 12 24Z" fill="#033B4A"/>
<path d="M11.6881 6.70972C12.0594 6.60106 12.4534 6.71172 12.7741 6.90571C14.2041 7.72476 15.6405 8.53253 17.0832 9.32895C17.6386 9.62294 18.0079 10.2262 17.9999 10.8489C17.9985 12.9115 17.9932 14.9754 17.9965 17.038C18.0192 17.1813 17.9219 17.3446 17.7592 17.33C17.1186 17.334 16.4779 17.3313 15.8373 17.3306C15.6973 17.3513 15.5626 17.234 15.5773 17.092C15.516 15.3354 15.5393 13.5768 15.5573 11.8189C15.5573 11.5989 15.5146 11.3669 15.3726 11.1889C15.2286 11.0002 15.0013 10.9036 14.798 10.7916C14.4647 10.6169 14.1507 10.4056 13.8054 10.2529C13.6747 10.2009 13.5047 10.1449 13.3814 10.2442C13.2447 10.3729 13.2461 10.5762 13.2321 10.7496C13.2068 11.6115 13.2044 12.474 13.2247 13.3361C13.2241 13.5401 13.2307 13.7774 13.0747 13.9361C12.9154 14.0921 12.6747 14.0948 12.4654 14.0981C12.0868 14.0941 11.7081 14.1081 11.3308 14.0894C11.1708 14.0721 10.9788 14.0628 10.8748 13.9228C10.7815 13.7848 10.7855 13.6108 10.7775 13.4521C10.7755 12.5462 10.7868 11.6395 10.7775 10.7342C10.7682 10.5742 10.7708 10.3942 10.6575 10.2676C10.5488 10.1556 10.3755 10.1923 10.2448 10.2396C9.96152 10.3502 9.70753 10.5196 9.43887 10.6596C9.17022 10.8142 8.88156 10.9462 8.6509 11.1569C8.50091 11.2935 8.46091 11.5015 8.45624 11.6935C8.45291 13.4735 8.45824 15.2521 8.44291 17.032C8.45824 17.1666 8.37825 17.3306 8.22092 17.328C7.56095 17.336 6.90097 17.3313 6.241 17.33C6.109 17.3426 5.98767 17.2266 6.00101 17.0953C6.02767 14.9321 6.01101 12.7681 6.01301 10.6042C6.00681 10.378 6.06307 10.1544 6.17561 9.95797C6.28815 9.76158 6.45263 9.59999 6.65098 9.49094C8.15426 8.64831 9.6602 7.81101 11.1575 6.95838C11.3268 6.86238 11.4975 6.76172 11.6881 6.70972Z" fill="white"/>
</g>
<defs>
<clipPath id="clip0_1265_21385">
<rect width="24" height="24" fill="white"/>
</clipPath>
</defs>
</svg>
