<svg width="24" height="24" viewBox="0 0 24 24" fill="none" xmlns="http://www.w3.org/2000/svg">
<g clip-path="url(#clip0_1265_21381)">
<path d="M12 24C18.6274 24 24 18.6274 24 12C24 5.37258 18.6274 0 12 0C5.37258 0 0 5.37258 0 12C0 18.6274 5.37258 24 12 24Z" fill="#103F68"/>
<path d="M11.9882 5.5L17.6183 8.74261V15.2479L11.9947 18.5L11.9492 18.4888L6.38184 15.2479V8.74261L11.9492 5.5H11.9882ZM11.9699 6.17301L6.97323 9.08266V14.9079L11.9693 17.8169L12.5796 17.4639L17.0269 14.9061V9.08384L12.5796 6.51128L11.9699 6.17301ZM7.74736 12.4477L9.22644 11.3418L10.534 12.1768V13.679L11.5234 14.6323L11.5228 15.0794L10.5695 15.9724H9.7646L7.74795 12.4477H7.74736ZM12.4211 15.0806L12.4194 14.6311L13.4052 13.679V12.1768L14.6986 11.3311L16.1747 12.4483L14.1681 15.9623H13.3733L12.4211 15.0806ZM11.0195 12.1768L10.5381 10.9166H13.3993L12.9274 12.1768L13.0669 13.5855L11.9628 13.5879L10.8717 13.5897L11.0195 12.1768ZM11.9628 10.5712L9.24359 10.57L9.74923 8.31089H14.1634L14.6956 10.573L11.9628 10.5712Z" fill="white"/>
</g>
<defs>
<clipPath id="clip0_1265_21381">
<rect width="24" height="24" fill="white"/>
</clipPath>
</defs>
</svg>
