<svg width="24" height="24" viewBox="0 0 24 24" fill="none" xmlns="http://www.w3.org/2000/svg">
<g clip-path="url(#clip0_1265_21377)">
<path d="M12 24C18.6274 24 24 18.6274 24 12C24 5.37258 18.6274 0 12 0C5.37258 0 0 5.37258 0 12C0 18.6274 5.37258 24 12 24Z" fill="#01A64F"/>
<path d="M15.031 6.7948C15.8214 7.6398 16.225 8.7006 16.225 9.9408C16.225 11.1998 15.8214 12.2613 15.0303 13.1063C14.3979 13.7712 13.6426 14.1664 12.7644 14.3108V15.0478H14.5558V15.8571H12.7462V16.2887H14.5558V17.0434H12.7644V18.5H11.2356V17.044H9.46112V16.2887H11.2532V15.8571H9.46177V15.0478H11.2363V14.2926C10.375 14.1489 9.61972 13.753 8.98727 13.0881C8.17932 12.2431 7.77502 11.1817 7.77502 9.92325C7.77502 8.64665 8.16177 7.58585 8.96972 6.7584C9.77702 5.9134 10.7793 5.5 12.0091 5.5C13.2214 5.5 14.2224 5.9134 15.031 6.7948ZM13.3793 11.5957C13.7128 11.1641 13.8889 10.6064 13.8889 9.92325C13.8889 9.2583 13.7134 8.70125 13.3442 8.269C12.9932 7.81985 12.5363 7.60405 12.0091 7.60405C11.4644 7.60405 11.0081 7.81985 10.6565 8.25145C10.3042 8.68305 10.1287 9.2219 10.1287 9.9057C10.1287 10.6064 10.3048 11.1641 10.6565 11.5957C11.0081 12.0273 11.4644 12.2431 12.0085 12.2431C12.5714 12.2431 13.0452 12.0273 13.3793 11.5957Z" fill="white"/>
</g>
<defs>
<clipPath id="clip0_1265_21377">
<rect width="24" height="24" fill="white"/>
</clipPath>
</defs>
</svg>
