<svg viewBox="0 0 24 24" fill="none" xmlns="http://www.w3.org/2000/svg">
<g clip-path="url(#clip0_1265_21373)">
<path d="M12 24C18.6274 24 24 18.6274 24 12C24 5.37258 18.6274 0 12 0C5.37258 0 0 5.37258 0 12C0 18.6274 5.37258 24 12 24Z" fill="#1E252C"/>
<path d="M10.7539 11.7121C10.4741 11.7121 10.2058 11.601 10.008 11.4031C9.81012 11.2053 9.69897 10.937 9.69897 10.6572C9.69897 10.3774 9.81012 10.1091 10.008 9.91125C10.2058 9.71341 10.4741 9.60227 10.7539 9.60227C11.0337 9.60227 11.302 9.71341 11.4998 9.91125C11.6977 10.1091 11.8088 10.3774 11.8088 10.6572C11.8088 10.937 11.6977 11.2053 11.4998 11.4031C11.302 11.601 11.0337 11.7121 10.7539 11.7121ZM13.3426 11.7121C13.0628 11.7121 12.7945 11.601 12.5966 11.4031C12.3988 11.2053 12.2876 10.937 12.2876 10.6572C12.2876 10.3774 12.3988 10.1091 12.5966 9.91125C12.7945 9.71341 13.0628 9.60227 13.3426 9.60227C13.6223 9.60227 13.8907 9.71341 14.0885 9.91125C14.2863 10.1091 14.3975 10.3774 14.3975 10.6572C14.3975 10.937 14.2863 11.2053 14.0885 11.4031C13.8907 11.601 13.6223 11.7121 13.3426 11.7121ZM10.7532 14.3015C10.4734 14.3015 10.2051 14.1903 10.0073 13.9925C9.80942 13.7947 9.69827 13.5263 9.69827 13.2466C9.69827 12.9668 9.80942 12.6984 10.0073 12.5006C10.2051 12.3028 10.4734 12.1916 10.7532 12.1916C11.033 12.1916 11.3013 12.3028 11.4991 12.5006C11.697 12.6984 11.8081 12.9668 11.8081 13.2466C11.8081 13.5263 11.697 13.7947 11.4991 13.9925C11.3013 14.1903 11.033 14.3015 10.7532 14.3015ZM13.3426 14.3015C13.0628 14.3015 12.7945 14.1903 12.5966 13.9925C12.3988 13.7947 12.2876 13.5263 12.2876 13.2466C12.2876 12.9668 12.3988 12.6984 12.5966 12.5006C12.7945 12.3028 13.0628 12.1916 13.3426 12.1916C13.6223 12.1916 13.8907 12.3028 14.0885 12.5006C14.2863 12.6984 14.3975 12.9668 14.3975 13.2466C14.3975 13.5263 14.2863 13.7947 14.0885 13.9925C13.8907 14.1903 13.6223 14.3015 13.3426 14.3015ZM15.9312 11.4244C15.8305 11.4244 15.7307 11.4046 15.6376 11.366C15.5445 11.3275 15.46 11.2709 15.3887 11.1997C15.3175 11.1285 15.261 11.0439 15.2224 10.9508C15.1839 10.8577 15.164 10.7579 15.164 10.6572C15.164 10.5564 15.1839 10.4567 15.2224 10.3636C15.261 10.2705 15.3175 10.1859 15.3887 10.1147C15.46 10.0434 15.5445 9.98693 15.6376 9.94837C15.7307 9.90982 15.8305 9.88997 15.9312 9.88997C16.1347 9.88997 16.3299 9.9708 16.4737 10.1147C16.6176 10.2586 16.6984 10.4537 16.6984 10.6572C16.6984 10.8607 16.6176 11.0558 16.4737 11.1997C16.3299 11.3436 16.1347 11.4244 15.9312 11.4244ZM15.9312 14.0138C15.7277 14.0138 15.5326 13.9329 15.3887 13.7891C15.2448 13.6452 15.164 13.45 15.164 13.2466C15.164 13.0431 15.2448 12.8479 15.3887 12.7041C15.5326 12.5602 15.7277 12.4793 15.9312 12.4793C16.1347 12.4793 16.3299 12.5602 16.4737 12.7041C16.6176 12.8479 16.6984 13.0431 16.6984 13.2466C16.6984 13.45 16.6176 13.6452 16.4737 13.7891C16.3299 13.9329 16.1347 14.0138 15.9312 14.0138ZM8.06863 11.4244C7.86515 11.4244 7.67001 11.3436 7.52613 11.1997C7.38225 11.0558 7.30141 10.8607 7.30141 10.6572C7.30141 10.4537 7.38225 10.2586 7.52613 10.1147C7.67001 9.9708 7.86515 9.88997 8.06863 9.88997C8.27211 9.88997 8.46726 9.9708 8.61114 10.1147C8.75502 10.2586 8.83585 10.4537 8.83585 10.6572C8.83585 10.8607 8.75502 11.0558 8.61114 11.1997C8.46726 11.3436 8.27211 11.4244 8.06863 11.4244ZM8.06863 14.0138C7.86515 14.0138 7.67001 13.9329 7.52613 13.7891C7.38225 13.6452 7.30141 13.45 7.30141 13.2466C7.30141 13.0431 7.38225 12.8479 7.52613 12.7041C7.67001 12.5602 7.86515 12.4793 8.06863 12.4793C8.27211 12.4793 8.46726 12.5602 8.61114 12.7041C8.75502 12.8479 8.83585 13.0431 8.83585 13.2466C8.83585 13.45 8.75502 13.6452 8.61114 13.7891C8.46726 13.9329 8.27211 14.0138 8.06863 14.0138ZM10.7532 16.6024C10.6505 16.6055 10.5483 16.588 10.4526 16.5509C10.3568 16.5137 10.2695 16.4577 10.1958 16.3862C10.1221 16.3147 10.0635 16.2291 10.0234 16.1345C9.98343 16.0399 9.96281 15.9383 9.96281 15.8356C9.96281 15.7329 9.98343 15.6312 10.0234 15.5366C10.0635 15.442 10.1221 15.3565 10.1958 15.2849C10.2695 15.2134 10.3568 15.1574 10.4526 15.1203C10.5483 15.0831 10.6505 15.0656 10.7532 15.0687C10.9526 15.0747 11.1418 15.1582 11.2807 15.3013C11.4196 15.4445 11.4972 15.6361 11.4972 15.8356C11.4972 16.035 11.4196 16.2267 11.2807 16.3698C11.1418 16.513 10.9526 16.5964 10.7532 16.6024ZM13.3426 16.6024C13.2399 16.6055 13.1377 16.588 13.0419 16.5509C12.9462 16.5137 12.8589 16.4577 12.7851 16.3862C12.7114 16.3147 12.6528 16.2291 12.6128 16.1345C12.5728 16.0399 12.5522 15.9383 12.5522 15.8356C12.5522 15.7329 12.5728 15.6312 12.6128 15.5366C12.6528 15.442 12.7114 15.3565 12.7851 15.2849C12.8589 15.2134 12.9462 15.1574 13.0419 15.1203C13.1377 15.0831 13.2399 15.0656 13.3426 15.0687C13.5419 15.0747 13.7311 15.1582 13.87 15.3013C14.0089 15.4445 14.0866 15.6361 14.0866 15.8356C14.0866 16.035 14.0089 16.2267 13.87 16.3698C13.7311 16.513 13.5419 16.5964 13.3426 16.6024ZM10.7532 8.83575C10.6505 8.83885 10.5483 8.82131 10.4526 8.78416C10.3568 8.74702 10.2695 8.69103 10.1958 8.61951C10.1221 8.548 10.0635 8.46241 10.0234 8.36782C9.98343 8.27324 9.96281 8.17158 9.96281 8.06888C9.96281 7.96617 9.98343 7.86452 10.0234 7.76993C10.0635 7.67534 10.1221 7.58976 10.1958 7.51824C10.2695 7.44672 10.3568 7.39073 10.4526 7.35359C10.5483 7.31645 10.6505 7.29891 10.7532 7.30201C10.9526 7.30803 11.1418 7.39147 11.2807 7.53463C11.4196 7.67778 11.4972 7.86941 11.4972 8.06888C11.4972 8.26834 11.4196 8.45997 11.2807 8.60313C11.1418 8.74629 10.9526 8.82972 10.7532 8.83575ZM13.3426 8.83575C13.2399 8.83885 13.1377 8.82131 13.0419 8.78416C12.9462 8.74702 12.8589 8.69103 12.7851 8.61951C12.7114 8.548 12.6528 8.46241 12.6128 8.36782C12.5728 8.27324 12.5522 8.17158 12.5522 8.06888C12.5522 7.96617 12.5728 7.86452 12.6128 7.76993C12.6528 7.67534 12.7114 7.58976 12.7851 7.51824C12.8589 7.44672 12.9462 7.39073 13.0419 7.35359C13.1377 7.31645 13.2399 7.29891 13.3426 7.30201C13.5419 7.30803 13.7311 7.39147 13.87 7.53463C14.0089 7.67778 14.0866 7.86941 14.0866 8.06888C14.0866 8.26834 14.0089 8.45997 13.87 8.60313C13.7311 8.74629 13.5419 8.82972 13.3426 8.83575ZM10.7532 5.95867C10.6887 5.96114 10.6244 5.95057 10.5641 5.9276C10.5039 5.90463 10.4488 5.86973 10.4024 5.82499C10.3559 5.78026 10.3189 5.7266 10.2936 5.66724C10.2684 5.60787 10.2554 5.54402 10.2554 5.47951C10.2554 5.415 10.2684 5.35115 10.2936 5.29179C10.3189 5.23242 10.3559 5.17877 10.4024 5.13403C10.4488 5.08929 10.5039 5.05439 10.5641 5.03142C10.6244 5.00845 10.6887 4.99789 10.7532 5.00035C10.8804 5.00035 11.0023 5.05087 11.0923 5.1408C11.1822 5.23072 11.2327 5.35269 11.2327 5.47986C11.2327 5.60704 11.1822 5.729 11.0923 5.81893C11.0023 5.90885 10.8804 5.95937 10.7532 5.95937V5.95867ZM13.3426 5.95867C13.2781 5.96114 13.2138 5.95057 13.1535 5.9276C13.0932 5.90463 13.0382 5.86973 12.9917 5.82499C12.9452 5.78026 12.9083 5.7266 12.883 5.66724C12.8578 5.60787 12.8447 5.54402 12.8447 5.47951C12.8447 5.415 12.8578 5.35115 12.883 5.29179C12.9083 5.23242 12.9452 5.17877 12.9917 5.13403C13.0382 5.08929 13.0932 5.05439 13.1535 5.03142C13.2138 5.00845 13.2781 4.99789 13.3426 5.00035C13.4697 5.00035 13.5917 5.05087 13.6816 5.1408C13.7716 5.23072 13.8221 5.35269 13.8221 5.47986C13.8221 5.60704 13.7716 5.729 13.6816 5.81893C13.5917 5.90885 13.4697 5.95937 13.3426 5.95937V5.95867ZM18.5206 11.1374C18.3934 11.1374 18.2715 11.0869 18.1815 10.997C18.0916 10.907 18.0411 10.7851 18.0411 10.6579C18.0411 10.5307 18.0916 10.4088 18.1815 10.3188C18.2715 10.2289 18.3934 10.1784 18.5206 10.1784C18.6478 10.1784 18.7697 10.2289 18.8597 10.3188C18.9496 10.4088 19.0001 10.5307 19.0001 10.6579C19.0001 10.7851 18.9496 10.907 18.8597 10.997C18.7697 11.0869 18.6478 11.1374 18.5206 11.1374ZM18.5206 13.7268C18.3934 13.7268 18.2715 13.6762 18.1815 13.5863C18.0916 13.4964 18.0411 13.3744 18.0411 13.2473C18.0411 13.1201 18.0916 12.9981 18.1815 12.9082C18.2715 12.8183 18.3934 12.7677 18.5206 12.7677C18.6478 12.7677 18.7697 12.8183 18.8597 12.9082C18.9496 12.9981 19.0001 13.1201 19.0001 13.2473C19.0001 13.3744 18.9496 13.4964 18.8597 13.5863C18.7697 13.6762 18.6478 13.7268 18.5206 13.7268ZM5.47927 11.1374C5.35209 11.1374 5.23013 11.0869 5.1402 10.997C5.05028 10.907 4.99976 10.7851 4.99976 10.6579C4.99976 10.5307 5.05028 10.4088 5.1402 10.3188C5.23013 10.2289 5.35209 10.1784 5.47927 10.1784C5.60644 10.1784 5.72841 10.2289 5.81833 10.3188C5.90826 10.4088 5.95878 10.5307 5.95878 10.6579C5.95878 10.7851 5.90826 10.907 5.81833 10.997C5.72841 11.0869 5.60644 11.1374 5.47927 11.1374ZM5.47927 13.7268C5.35209 13.7268 5.23013 13.6762 5.1402 13.5863C5.05028 13.4964 4.99976 13.3744 4.99976 13.2473C4.99976 13.1201 5.05028 12.9981 5.1402 12.9082C5.23013 12.8183 5.35209 12.7677 5.47927 12.7677C5.60644 12.7677 5.72841 12.8183 5.81833 12.9082C5.90826 12.9981 5.95878 13.1201 5.95878 13.2473C5.95878 13.3744 5.90826 13.4964 5.81833 13.5863C5.72841 13.6762 5.60644 13.7268 5.47927 13.7268ZM10.7532 19C10.626 19 10.5041 18.9495 10.4141 18.8596C10.3242 18.7696 10.2737 18.6477 10.2737 18.5205C10.2737 18.3933 10.3242 18.2713 10.4141 18.1814C10.5041 18.0915 10.626 18.041 10.7532 18.041C10.8804 18.041 11.0023 18.0915 11.0923 18.1814C11.1822 18.2713 11.2327 18.3933 11.2327 18.5205C11.2327 18.6477 11.1822 18.7696 11.0923 18.8596C11.0023 18.9495 10.8804 19 10.7532 19ZM13.3426 19C13.2154 19 13.0934 18.9495 13.0035 18.8596C12.9136 18.7696 12.8631 18.6477 12.8631 18.5205C12.8631 18.3933 12.9136 18.2713 13.0035 18.1814C13.0934 18.0915 13.2154 18.041 13.3426 18.041C13.4697 18.041 13.5917 18.0915 13.6816 18.1814C13.7716 18.2713 13.8221 18.3933 13.8221 18.5205C13.8221 18.6477 13.7716 18.7696 13.6816 18.8596C13.5917 18.9495 13.4697 19 13.3426 19Z" fill="white"/>
</g>
<defs>
<clipPath id="clip0_1265_21373">
<rect width="24" height="24" fill="white"/>
</clipPath>
</defs>
</svg>