<svg width="24" height="24" viewBox="0 0 24 24" fill="none" xmlns="http://www.w3.org/2000/svg">
<g clip-path="url(#clip0_1265_21369)">
<path d="M12 24C18.6274 24 24 18.6274 24 12C24 5.37258 18.6274 0 12 0C5.37258 0 0 5.37258 0 12C0 18.6274 5.37258 24 12 24Z" fill="#00B0FF"/>
<path d="M17.1999 9.43965V15.2344L15.5515 16.1964V12.3289L11.9999 14.4544L8.44833 12.327V16.1964L6.79993 15.2344V9.439L11.9999 12.5622L17.1999 9.439V9.43965ZM12.0194 16.6657L13.5404 15.7563L15.0419 16.6657L12.0194 18.5L8.99823 16.6657L10.4997 15.7563L12.0201 16.6657H12.0194ZM15.0224 7.3343L13.5203 8.24365L11.9999 7.3343L10.4796 8.24365L8.97808 7.3343L11.9999 5.5L15.0224 7.3343Z" fill="white"/>
</g>
<defs>
<clipPath id="clip0_1265_21369">
<rect width="24" height="24" fill="white"/>
</clipPath>
</defs>
</svg>
