<svg width="24" height="24" viewBox="0 0 24 24" fill="none" xmlns="http://www.w3.org/2000/svg">
<path fill-rule="evenodd" clip-rule="evenodd" d="M21.3262 6.345C21.3363 6.39833 21.333 6.45 21.3321 6.50333C21.3321 6.55667 21.3355 6.60833 21.3245 6.66167C21.3135 6.71917 21.2874 6.77083 21.2646 6.825C21.2485 6.8625 21.2443 6.9025 21.2223 6.9375L17.2578 13.3358C17.7416 14.2033 18.0085 15.1667 18.0085 16.1658C18.0085 19.3825 15.3874 22 12.1667 22C8.94528 22 6.32503 19.3825 6.32503 16.1658C6.32503 15.1658 6.59187 14.2025 7.07488 13.3358L3.11116 6.9375C3.0892 6.9025 3.08498 6.8625 3.06894 6.825C3.04614 6.77083 3.01996 6.71917 3.00898 6.66167C2.99801 6.60833 3.00138 6.5575 3.00054 6.50417C3.00054 6.45 2.99716 6.39833 3.0073 6.34417C3.01827 6.2875 3.04276 6.23583 3.06556 6.18167C3.08161 6.14417 3.08498 6.10333 3.10694 6.0675L5.33284 2.40167C5.3455 2.38083 5.36915 2.37167 5.3835 2.3525C5.43923 2.275 5.50594 2.21167 5.58532 2.1575C5.61572 2.13667 5.64105 2.11417 5.67398 2.0975C5.78798 2.04 5.91042 2 6.04637 2H6.05228H17.9806C18.0422 2 18.0954 2.0225 18.1529 2.035C18.1976 2.0275 18.2356 2.00083 18.2812 2C18.5793 2 18.8487 2.15083 19.0007 2.40167L21.2266 6.0675C21.2485 6.10333 21.2519 6.14333 21.2671 6.18083C21.2899 6.235 21.3152 6.28667 21.3262 6.345ZM12.1667 20.3333C14.4678 20.3333 16.3399 18.4633 16.3399 16.1658C16.3399 15.3167 16.084 14.4967 15.5985 13.7942C14.993 12.92 14.0827 12.3125 13.0356 12.0858C12.7536 12.0292 12.4572 11.9992 12.1667 11.9992C11.8762 11.9992 11.5799 12.0292 11.2868 12.0883C10.2507 12.3125 9.34045 12.92 8.73415 13.7958C8.24945 14.4958 7.99359 15.3158 7.99359 16.1658C7.99359 18.4633 9.86568 20.3333 12.1667 20.3333ZM12.8634 10.4L14.8655 7H9.468L11.4718 10.4033C11.9396 10.3492 12.4024 10.355 12.8634 10.4ZM6.03542 4.45917L4.80003 6.495L8.16843 11.9333C8.64806 11.4842 9.19187 11.11 9.79394 10.8425L6.03542 4.45917ZM8.48758 5.335C8.49011 5.335 8.4918 5.33333 8.49433 5.33333H15.8467L16.8279 3.66667H7.50551L8.48758 5.335ZM18.2981 4.45917L14.5353 10.85C15.1366 11.1208 15.6905 11.4775 16.1685 11.9275L19.5335 6.495L18.2981 4.45917Z" fill="#6B7084"/>
</svg>
