<svg width="24" height="24" viewBox="0 0 24 24" fill="none" xmlns="http://www.w3.org/2000/svg">
<path fill-rule="evenodd" clip-rule="evenodd" d="M19.4348 21H4.56522C3.702 21 3 20.3272 3 19.5V4.5C3 3.67275 3.702 3 4.56522 3H19.4348C20.298 3 21 3.67275 21 4.5V19.5C21 20.3272 20.298 21 19.4348 21ZM4.56533 4.50007V19.5001H19.4326L19.4349 4.50007H4.56533ZM17.8695 18.75C17.4375 18.75 17.0869 18.4148 17.0869 18V17.25C17.0869 16.8352 17.4375 16.5 17.8695 16.5C18.3023 16.5 18.6521 16.8352 18.6521 17.25V18C18.6521 18.4148 18.3023 18.75 17.8695 18.75ZM17.8695 7.5C17.4375 7.5 17.0869 7.16475 17.0869 6.75V6C17.0869 5.58525 17.4375 5.25 17.8695 5.25C18.3023 5.25 18.6521 5.58525 18.6521 6V6.75C18.6521 7.16475 18.3023 7.5 17.8695 7.5ZM15.5217 18.75C15.0897 18.75 14.7391 18.4148 14.7391 18V17.25C14.7391 16.8352 15.0897 16.5 15.5217 16.5C15.9545 16.5 16.3043 16.8352 16.3043 17.25V18C16.3043 18.4148 15.9545 18.75 15.5217 18.75ZM15.5217 7.5C15.0897 7.5 14.7391 7.16475 14.7391 6.75V6C14.7391 5.58525 15.0897 5.25 15.5217 5.25C15.9545 5.25 16.3043 5.58525 16.3043 6V6.75C16.3043 7.16475 15.9545 7.5 15.5217 7.5ZM13.1739 7.5C12.7419 7.5 12.3913 7.16475 12.3913 6.75V6C12.3913 5.58525 12.7419 5.25 13.1739 5.25C13.6067 5.25 13.9566 5.58525 13.9566 6V6.75C13.9566 7.16475 13.6067 7.5 13.1739 7.5ZM10.8262 7.5C10.3942 7.5 10.0436 7.16475 10.0436 6.75V6C10.0436 5.58525 10.3942 5.25 10.8262 5.25C11.2589 5.25 11.6088 5.58525 11.6088 6V6.75C11.6088 7.16475 11.2589 7.5 10.8262 7.5ZM15.0952 11.3834C15.359 11.5132 15.5241 11.7742 15.5218 12.0577C15.5194 12.3419 15.3488 12.6007 15.0827 12.7252L10.3871 14.9242C10.2783 14.9744 10.1609 14.9999 10.0435 14.9999C9.89871 14.9999 9.7555 14.9617 9.62871 14.8859C9.40019 14.7487 9.26089 14.5079 9.26089 14.2499V9.74992C9.26089 9.48892 9.40254 9.24592 9.63498 9.11017C9.86663 8.97367 10.157 8.96317 10.3996 9.08242L15.0952 11.3834ZM10.826 13.0493L12.9891 12.036L10.826 10.9763V13.0493ZM8.47817 7.5C8.04617 7.5 7.69556 7.16475 7.69556 6.75V6C7.69556 5.58525 8.04617 5.25 8.47817 5.25C8.91095 5.25 9.26077 5.58525 9.26077 6V6.75C9.26077 7.16475 8.91095 7.5 8.47817 7.5ZM6.13039 18.75C5.69839 18.75 5.34778 18.4148 5.34778 18V17.25C5.34778 16.8352 5.69839 16.5 6.13039 16.5C6.56317 16.5 6.913 16.8352 6.913 17.25V18C6.913 18.4148 6.56317 18.75 6.13039 18.75ZM6.13039 7.5C5.69839 7.5 5.34778 7.16475 5.34778 6.75V6C5.34778 5.58525 5.69839 5.25 6.13039 5.25C6.56317 5.25 6.913 5.58525 6.913 6V6.75C6.913 7.16475 6.56317 7.5 6.13039 7.5ZM8.47817 16.5C8.91095 16.5 9.26077 16.8352 9.26077 17.25V18C9.26077 18.4148 8.91095 18.75 8.47817 18.75C8.04617 18.75 7.69556 18.4148 7.69556 18V17.25C7.69556 16.8352 8.04617 16.5 8.47817 16.5ZM10.8262 16.5C11.2589 16.5 11.6088 16.8352 11.6088 17.25V18C11.6088 18.4148 11.2589 18.75 10.8262 18.75C10.3942 18.75 10.0436 18.4148 10.0436 18V17.25C10.0436 16.8352 10.3942 16.5 10.8262 16.5ZM13.1739 16.5C13.6067 16.5 13.9566 16.8352 13.9566 17.25V18C13.9566 18.4148 13.6067 18.75 13.1739 18.75C12.7419 18.75 12.3913 18.4148 12.3913 18V17.25C12.3913 16.8352 12.7419 16.5 13.1739 16.5Z" fill="#6B7084"/>
</svg>
