<svg viewBox="0 0 24 24" fill="none" xmlns="http://www.w3.org/2000/svg">
<g clip-path="url(#clip0_1265_21363)">
<path d="M12 24C18.6274 24 24 18.6274 24 12C24 5.37258 18.6274 0 12 0C5.37258 0 0 5.37258 0 12C0 18.6274 5.37258 24 12 24Z" fill="black"/>
<path d="M7.74866 15.8415L11.7686 18.3705H12.2553L16.2105 15.8415L15.5945 15.3555L11.9958 17.6573L8.26763 15.3555L7.74866 15.8415ZM9.69392 9.97391L11.9634 6.53704L14.2976 10.0063L14.8489 9.51967L12.2553 5.62971C12.2553 5.62971 12.0281 5.33786 11.6716 5.62971L9.01314 9.61733L9.69392 9.97391Z" fill="white" fill-opacity="0.703"/>
<path d="M12.0281 16.9118C12.1575 16.4576 12.3199 16.0363 12.45 15.5826C13.0337 13.7668 13.6168 11.9186 14.2005 10.1034C14.2328 10.0063 14.2652 9.87624 14.2976 9.77973C14.3623 9.58439 14.4594 9.48731 14.6541 9.48731C14.7387 9.48508 14.8212 9.51333 14.8867 9.56691C14.9522 9.62049 14.9962 9.69582 15.0107 9.77915C15.1725 10.4276 15.3026 11.1084 15.4644 11.7568C15.7562 12.9889 16.0157 14.2534 16.3076 15.4849C16.3723 15.7768 16.2752 15.9715 16.0481 16.0363C15.8209 16.101 15.6591 15.9392 15.5944 15.6473C15.2702 14.2534 14.946 12.8589 14.6541 11.4326C14.6541 11.3678 14.6218 11.3355 14.5894 11.2378C14.5625 11.3265 14.5299 11.4134 14.4917 11.4979C13.8763 13.3778 13.2926 15.2584 12.6765 17.1383C12.5794 17.4949 12.4494 17.8191 12.3523 18.1757C12.2876 18.4028 12.1575 18.4999 11.9634 18.4999C11.7686 18.4999 11.6391 18.4028 11.5744 18.1763C10.8613 15.9392 10.1475 13.702 9.46676 11.4649C9.43439 11.4002 9.43439 11.3678 9.40203 11.2378C9.3442 11.5311 9.27946 11.8231 9.20785 12.1134C8.94779 13.2807 8.68888 14.4799 8.4294 15.6473C8.36467 15.9709 8.10576 16.1333 7.8457 15.971C7.68388 15.8739 7.65152 15.712 7.68389 15.5173C8.04046 13.8962 8.4294 12.2752 8.78597 10.6547C8.8507 10.3946 8.916 10.1357 8.94779 9.87624C9.01309 9.61734 9.14255 9.48731 9.3373 9.48731C9.53206 9.48731 9.66094 9.61734 9.72624 9.87624C10.4718 12.211 11.2173 14.5776 11.931 16.9118H12.0281Z" fill="white"/>
</g>
<defs>
<clipPath id="clip0_1265_21363">
<rect width="24" height="24" fill="white"/>
</clipPath>
</defs>
</svg>