<svg viewBox="0 0 24 24" fill="none" xmlns="http://www.w3.org/2000/svg">
<path d="M12 22C17.5228 22 22 17.5228 22 12C22 6.47715 17.5228 2 12 2C6.47715 2 2 6.47715 2 12C2 17.5228 6.47715 22 12 22Z" fill="black"/>
<path d="M7.42053 15.7545L11.768 18.4895H12.2943L16.5718 15.7545L15.9055 15.2288L12.0137 17.7182L7.98178 15.2288L7.42053 15.7545ZM9.52428 9.40884L11.9787 5.69196L14.503 9.44384L15.0993 8.91759L12.2943 4.71071C12.2943 4.71071 12.0487 4.39509 11.663 4.71071L8.78803 9.02321L9.52428 9.40884Z" fill="white" fill-opacity="0.703"/>
<path d="M12.0487 16.912C12.1887 16.4207 12.3643 15.9651 12.505 15.4745C13.1362 13.5107 13.7668 11.512 14.3981 9.54883C14.4331 9.44383 14.4681 9.3032 14.5031 9.19883C14.5731 8.98758 14.6781 8.88258 14.8887 8.88258C14.9802 8.88017 15.0694 8.91072 15.1402 8.96867C15.211 9.02661 15.2586 9.10808 15.2743 9.1982C15.4493 9.89945 15.59 10.6357 15.765 11.337C16.0806 12.6695 16.3612 14.037 16.6768 15.3688C16.7468 15.6845 16.6418 15.8951 16.3962 15.9651C16.1506 16.0351 15.9756 15.8601 15.9056 15.5445C15.555 14.037 15.2043 12.5288 14.8887 10.9863C14.8887 10.9163 14.8537 10.8813 14.8187 10.7757C14.7896 10.8716 14.7543 10.9656 14.7131 11.057C14.0475 13.0901 13.4162 15.1238 12.75 17.157C12.645 17.5426 12.5043 17.8932 12.3993 18.2788C12.3293 18.5245 12.1887 18.6295 11.9787 18.6295C11.7681 18.6295 11.6281 18.5245 11.5581 18.2795C10.7868 15.8601 10.015 13.4407 9.2787 11.0213C9.2437 10.9513 9.2437 10.9163 9.2087 10.7757C9.14616 11.0929 9.07614 11.4086 8.9987 11.7226C8.71745 12.9851 8.43745 14.282 8.15683 15.5445C8.08683 15.8945 7.80683 16.0701 7.52558 15.8945C7.35058 15.7895 7.31558 15.6145 7.35058 15.4038C7.7362 13.6507 8.15683 11.8976 8.54245 10.1451C8.61245 9.86383 8.68308 9.58383 8.71745 9.3032C8.78808 9.0232 8.92808 8.88258 9.1387 8.88258C9.34933 8.88258 9.4887 9.0232 9.55933 9.3032C10.3656 11.8282 11.1718 14.3876 11.9437 16.912H12.0487Z" fill="white"/>
</svg>