<svg width="24" height="24" viewBox="0 0 24 24" fill="none" xmlns="http://www.w3.org/2000/svg">
<path fill-rule="evenodd" clip-rule="evenodd" d="M22 11.5004C22 13.3383 20.505 14.833 18.6667 14.833V18.1674C18.6667 18.4638 18.5083 18.7385 18.2517 18.8872C18.1225 18.9632 17.9775 18.9999 17.8333 18.9999C17.6908 18.9999 17.5483 18.9632 17.42 18.8905L11.7792 15.6673H7V19.8333C7 20.2942 6.62667 20.6667 6.16667 20.6667C5.70667 20.6667 5.33333 20.2942 5.33333 19.8333V15.6673H3.66667C2.7475 15.6673 2 14.9199 2 14.0005V9.00025C2 8.0817 2.7475 7.3335 3.66667 7.3335H11.7792L17.42 4.11023C17.6767 3.96243 17.9933 3.96326 18.2517 4.11273C18.5083 4.26221 18.6667 4.53694 18.6667 4.83338V8.16688C20.505 8.16771 22 9.66244 22 11.5004ZM5.33333 9.00025H3.66667V14.0005H5.33333V9.00025ZM17 6.26966L12.4133 8.89003C12.2733 8.97103 12.1208 8.99107 11.9708 8.98522C11.945 8.98773 11.9233 9.00025 11.8975 9.00025C11.8967 9.00025 11.8967 9.00025 11.8958 9.00025H7V14.0005H12C12.0167 14.0005 12.0308 14.0089 12.0475 14.0097C12.1033 14.013 12.1558 14.0281 12.21 14.0431C12.265 14.0573 12.3183 14.0706 12.3675 14.0949C12.3825 14.1024 12.3992 14.1015 12.4133 14.1099L17 16.7311V6.26966ZM18.6667 9.83363V13.1671C19.5858 13.1663 20.3333 12.4189 20.3333 11.5004C20.3333 10.581 19.5858 9.83446 18.6667 9.83363Z" fill="#6B7084"/>
</svg>
