<svg width="24" height="24" viewBox="0 0 24 24" fill="none" xmlns="http://www.w3.org/2000/svg">
<path fill-rule="evenodd" clip-rule="evenodd" d="M5.43492 5.70568C7.57733 5.39067 9.76951 5.22746 12.0003 5.22746C14.2308 5.22746 16.4228 5.39064 18.5651 5.70559C19.6679 5.86774 20.4834 6.84592 20.4834 8.01472V13.7198C20.4834 14.8886 19.6679 15.8668 18.565 16.029C16.8311 16.2839 15.0645 16.4394 13.2713 16.4894C12.7132 16.5049 12.1747 16.7292 11.7728 17.131L9.20379 19.7001V17.1286C9.20379 16.7324 8.89888 16.403 8.50393 16.3725C7.47062 16.2927 6.44722 16.1777 5.43492 16.0289C4.33208 15.8667 3.51659 14.8885 3.51659 13.7197V8.0148C3.51659 6.84602 4.33208 5.86783 5.43492 5.70568ZM12.0003 3.71088C9.69544 3.71088 7.42953 3.87951 5.2143 4.20522C3.31421 4.4846 2 6.14836 2 8.0148V13.7197C2 15.5862 3.3142 17.2499 5.2143 17.5293C6.03188 17.6495 6.85638 17.7483 7.6872 17.8252V21.5308C7.6872 21.8375 7.87196 22.114 8.15531 22.2314C8.43867 22.3487 8.76482 22.2838 8.98169 22.067L12.8452 18.2034C12.966 18.0827 13.1329 18.0104 13.3135 18.0054C15.1666 17.9537 16.9928 17.793 18.7856 17.5294C20.6858 17.2501 22 15.5863 22 13.7198V8.01472C22 6.14827 20.6858 4.48449 18.7857 4.20514C16.5706 3.87948 14.3049 3.71088 12.0003 3.71088ZM13.112 14.1061H16.3218C16.6762 14.1061 16.9638 13.8185 16.9638 13.4641C16.9638 13.1097 16.6762 12.8221 16.3218 12.8221H13.112C12.7576 12.8221 12.47 13.1097 12.47 13.4641C12.47 13.8185 12.7576 14.1061 13.112 14.1061ZM14.5386 9.79696C14.5407 9.7929 14.5428 9.78892 14.5461 9.78561C14.5499 9.78217 14.5541 9.77995 14.5582 9.77777C14.5626 9.77546 14.5669 9.77319 14.5705 9.76956C14.8716 9.46912 15.0379 9.06853 15.0379 8.64162C15.0379 8.21535 14.8723 7.81476 14.5712 7.51367C13.9684 6.90894 12.9168 6.90894 12.3134 7.51367C12.3105 7.51688 12.3086 7.52057 12.3066 7.52426C12.3047 7.52796 12.3028 7.53165 12.2999 7.53486C12.2963 7.53787 12.2922 7.54003 12.2882 7.54221C12.2836 7.54468 12.2789 7.54716 12.2749 7.55091L8.9764 10.8506C8.9752 10.8518 8.97475 10.8528 8.97427 10.8538C8.97398 10.8544 8.97367 10.8551 8.97319 10.8558C8.94657 10.8829 8.92715 10.9168 8.90765 10.9509C8.90175 10.9612 8.89585 10.9715 8.88973 10.9816C8.88315 10.9927 8.87552 11.0032 8.8679 11.0137C8.85474 11.0319 8.84161 11.0501 8.83388 11.0708C8.83334 11.0719 8.83256 11.0729 8.8318 11.0739C8.83077 11.0752 8.82976 11.0764 8.82939 11.0779L8.0173 13.2381C7.9287 13.4737 7.98648 13.7402 8.16431 13.918C8.28692 14.0406 8.45127 14.1061 8.61818 14.1061C8.69393 14.1061 8.77033 14.0926 8.84415 14.065L11.0044 13.2535C11.0057 13.2532 11.0066 13.2524 11.0076 13.2516C11.0086 13.2508 11.0095 13.25 11.0108 13.2497C11.0377 13.2393 11.0614 13.2224 11.0853 13.2054C11.0967 13.1973 11.1081 13.1891 11.1199 13.1816C11.131 13.1745 11.1425 13.1679 11.154 13.1612C11.1796 13.1464 11.205 13.1316 11.2259 13.1117C11.2268 13.1107 11.228 13.1101 11.2291 13.1094C11.2302 13.1088 11.2313 13.1081 11.2323 13.1072L14.5314 9.80808C14.5345 9.80465 14.5366 9.80078 14.5386 9.79696ZM13.4426 8.32898C13.4901 8.32898 13.5825 8.34117 13.6628 8.42078C13.7417 8.50038 13.7539 8.59347 13.7539 8.64162C13.7539 8.68976 13.7417 8.78221 13.6634 8.86053C13.6597 8.86425 13.6574 8.86852 13.6551 8.87275C13.6531 8.87654 13.6511 8.8803 13.648 8.88364C13.6446 8.88701 13.6405 8.88921 13.6364 8.89143C13.6319 8.89386 13.6273 8.89631 13.6236 8.90033L10.4228 12.1006L9.71659 12.3657L9.98108 11.6621L13.1826 8.45866C13.1859 8.45534 13.188 8.45151 13.1902 8.44761C13.1922 8.44396 13.1943 8.44024 13.1974 8.43683C13.2009 8.43391 13.2047 8.43179 13.2086 8.42969C13.2133 8.42715 13.2179 8.42463 13.2217 8.42078C13.302 8.34117 13.3944 8.32898 13.4426 8.32898Z" fill="#6B7084"/>
</svg>
