<svg viewBox="0 0 24 24" fill="none" xmlns="http://www.w3.org/2000/svg">
<path fill-rule="evenodd" clip-rule="evenodd" d="M11.2894 3.71088C9.25195 3.71088 7.24492 3.84265 5.27643 4.09822C3.34741 4.34867 2 6.02693 2 7.91692V13.8176C2 15.7076 3.34742 17.3859 5.27644 17.6364C5.60503 17.679 5.9347 17.7182 6.2654 17.7539V21.5308C6.2654 21.8375 6.45016 22.114 6.73351 22.2314C7.01687 22.3487 7.34302 22.2838 7.55989 22.067L11.1467 18.4802C11.3189 18.5292 11.4981 18.5621 11.6826 18.5772C12.8564 18.673 14.0426 18.7257 15.2394 18.7335L17.8619 21.3561C18.0788 21.5729 18.4049 21.6378 18.6883 21.5205C18.9716 21.4031 19.1564 21.1266 19.1564 20.8199V18.5985C19.2465 18.5917 19.3364 18.5846 19.4263 18.5773C20.9131 18.456 22 17.1955 22 15.7429V11.6808C22 10.639 21.4431 9.69846 20.5782 9.2032V7.91686C20.5782 6.02684 19.2308 4.34857 17.3017 4.09814C15.3334 3.84262 13.3266 3.71088 11.2894 3.71088ZM9.10901 15.7428C9.10901 16.467 9.37759 17.1409 9.83101 17.6511L7.78199 19.7001V17.0681C7.78199 16.6765 7.48381 16.3493 7.0939 16.313C6.55027 16.2625 6.00947 16.2022 5.4717 16.1324C4.35255 15.9871 3.51659 15.0014 3.51659 13.8176V7.91692C3.51659 6.73318 4.35255 5.74748 5.47169 5.60219C7.3756 5.355 9.31741 5.22746 11.2894 5.22746C13.2611 5.22746 15.2028 5.35497 17.1065 5.60211C18.2256 5.7474 19.0616 6.73309 19.0616 7.91686V8.81818C17.9038 8.73136 16.7342 8.68718 15.5545 8.68718C14.249 8.68718 12.956 8.74128 11.6776 8.84738C10.1928 8.97062 9.10901 10.2304 9.10901 11.6807V15.7428ZM11.8031 10.3588C13.0398 10.2561 14.2909 10.2038 15.5545 10.2038C16.818 10.2038 18.0692 10.2561 19.3059 10.3588C19.4047 10.367 19.4988 10.3862 19.5876 10.4147C20.1049 10.5812 20.4834 11.0839 20.4834 11.6808V15.7429C20.4834 16.4451 19.9639 17.0118 19.303 17.0657C18.987 17.0915 18.67 17.1141 18.3522 17.1334C17.952 17.1576 17.6398 17.4893 17.6398 17.8903V18.9892L16.0907 17.4401C15.9485 17.2979 15.7556 17.218 15.5545 17.218C14.292 17.218 13.0418 17.1665 11.806 17.0656C11.6284 17.0511 11.4646 17.001 11.3187 16.9233C10.9078 16.7042 10.6256 16.2572 10.6256 15.7428V11.6807C10.6256 10.9794 11.1437 10.4135 11.8031 10.3588ZM13.1619 14.1938C12.7429 14.1938 12.4028 14.5339 12.4028 14.9529C12.4028 15.3719 12.7429 15.7119 13.1619 15.7119H15.8895C16.3085 15.7119 16.6485 15.3719 16.6485 14.9529C16.6485 14.5339 16.3085 14.1938 15.8895 14.1938H13.1619ZM13.1619 11.9167C12.7429 11.9167 12.4028 12.2567 12.4028 12.6757C12.4028 13.0947 12.7429 13.4348 13.1619 13.4348H17.9257C18.3446 13.4348 18.6847 13.0947 18.6847 12.6757C18.6847 12.2567 18.3446 11.9167 17.9257 11.9167H13.1619Z" fill="currentColor"/>
</svg>