<svg viewBox="0 0 24 24" fill="none" xmlns="http://www.w3.org/2000/svg">
<path fill-rule="evenodd" clip-rule="evenodd" d="M5.43492 5.70568C7.57733 5.39067 9.76951 5.22746 12.0003 5.22746C14.2308 5.22746 16.4228 5.39064 18.5651 5.70559C19.6679 5.86774 20.4834 6.84592 20.4834 8.01472V13.7198C20.4834 14.8886 19.6679 15.8668 18.565 16.029C16.8311 16.2839 15.0645 16.4394 13.2713 16.4894C12.7132 16.5049 12.1747 16.7292 11.7728 17.131L9.20379 19.7001V17.1286C9.20379 16.7324 8.89888 16.403 8.50393 16.3725C7.47062 16.2927 6.44722 16.1777 5.43492 16.0289C4.33208 15.8667 3.51659 14.8885 3.51659 13.7197V8.0148C3.51659 6.84602 4.33208 5.86783 5.43492 5.70568ZM12.0003 3.71088C9.69544 3.71088 7.42953 3.87951 5.2143 4.20522C3.31421 4.4846 2 6.14836 2 8.0148V13.7197C2 15.5862 3.3142 17.2499 5.2143 17.5293C6.03188 17.6495 6.85638 17.7483 7.6872 17.8252V21.5308C7.6872 21.8375 7.87196 22.114 8.15531 22.2314C8.43867 22.3487 8.76482 22.2838 8.98169 22.067L12.8452 18.2034C12.966 18.0827 13.1329 18.0104 13.3135 18.0054C15.1666 17.9537 16.9928 17.793 18.7856 17.5294C20.6858 17.2501 22 15.5863 22 13.7198V8.01472C22 6.14827 20.6858 4.48449 18.7857 4.20514C16.5706 3.87948 14.3049 3.71088 12.0003 3.71088ZM11.8174 14.8572H14.5158C14.8266 14.8572 15.1074 14.6089 15.1408 14.3055L16.1633 10.408C16.1974 10.1047 15.9716 9.8572 15.6624 9.8572H12.8333V7.3572C12.8333 6.8072 12.4658 6.52386 11.9999 6.52386C11.6366 6.52386 11.4008 6.90386 11.2449 7.21636C11.0991 7.50803 10.3333 9.8572 10.3333 9.8572H9.49992C9.49992 9.3972 9.12659 9.02386 8.66659 9.02386C8.20659 9.02386 7.83325 9.3972 7.83325 9.8572V14.0239C7.83325 14.4839 8.20659 14.8572 8.66659 14.8572C9.12659 14.8572 9.49992 14.4839 9.49992 14.0239H10.3333C10.3333 14.0239 10.9166 14.8572 11.8174 14.8572Z" fill="currentColor"/>
</svg>