<svg width="24" height="24" viewBox="0 0 24 24" fill="none" xmlns="http://www.w3.org/2000/svg">
<path fill-rule="evenodd" clip-rule="evenodd" d="M5.43492 5.70568C7.57733 5.39067 9.76951 5.22746 12.0003 5.22746C14.2308 5.22746 16.4228 5.39064 18.5651 5.70559C19.6679 5.86774 20.4834 6.84592 20.4834 8.01472V13.7198C20.4834 14.8886 19.6679 15.8668 18.565 16.029C16.8311 16.2839 15.0645 16.4394 13.2713 16.4894C12.7132 16.5049 12.1747 16.7292 11.7728 17.131L9.20379 19.7001V17.1286C9.20379 16.7324 8.89888 16.403 8.50393 16.3725C7.47062 16.2927 6.44722 16.1777 5.43492 16.0289C4.33208 15.8667 3.51659 14.8885 3.51659 13.7197V8.0148C3.51659 6.84602 4.33208 5.86783 5.43492 5.70568ZM12.0003 3.71088C9.69544 3.71088 7.42953 3.87951 5.2143 4.20522C3.31421 4.4846 2 6.14836 2 8.0148V13.7197C2 15.5862 3.3142 17.2499 5.2143 17.5293C6.03188 17.6495 6.85638 17.7483 7.6872 17.8252V21.5308C7.6872 21.8375 7.87196 22.114 8.15531 22.2314C8.43867 22.3487 8.76482 22.2838 8.98169 22.067L12.8452 18.2034C12.966 18.0827 13.1329 18.0104 13.3135 18.0054C15.1666 17.9537 16.9928 17.793 18.7856 17.5294C20.6858 17.2501 22 15.5863 22 13.7198V8.01472C22 6.14827 20.6858 4.48449 18.7857 4.20514C16.5706 3.87948 14.3049 3.71088 12.0003 3.71088ZM16.0612 11.8484C16.0631 11.8452 16.065 11.8421 16.0675 11.8396C16.0707 11.8365 16.0746 11.8345 16.0784 11.8326C16.0816 11.831 16.0848 11.8294 16.0875 11.8271C16.6583 11.2621 17 10.4788 17 9.72962C17 8.13629 15.6917 6.84045 14.0833 6.84045C13.275 6.84045 12.5392 7.16712 12 7.69212C11.4608 7.16712 10.725 6.84045 9.91667 6.84045C8.30833 6.84045 7 8.13629 7 9.72962C7 10.4788 7.34167 11.2621 7.9125 11.8271C7.91517 11.8294 7.91837 11.831 7.92161 11.8326C7.92545 11.8345 7.92934 11.8365 7.9325 11.8396C7.935 11.8421 7.93688 11.8452 7.93875 11.8484C7.94063 11.8515 7.9425 11.8546 7.945 11.8571L11.4467 14.9638C11.479 14.9925 11.5156 15.0113 11.5522 15.0302C11.5665 15.0376 11.5809 15.045 11.595 15.053C11.6075 15.0599 11.6193 15.0679 11.631 15.0758C11.6488 15.0879 11.6665 15.0999 11.6867 15.108C11.7875 15.1496 11.8933 15.1738 12.0008 15.1738C12.1075 15.1738 12.2125 15.1496 12.3133 15.108C12.3335 15.0999 12.3512 15.0879 12.369 15.0758C12.3807 15.0679 12.3925 15.0599 12.405 15.053C12.4191 15.045 12.4335 15.0376 12.4478 15.0302C12.4844 15.0113 12.521 14.9925 12.5533 14.9638L16.055 11.8571C16.0575 11.8546 16.0594 11.8515 16.0612 11.8484ZM12.8183 9.49795C12.9267 8.93295 13.4708 8.50712 14.0833 8.50712C14.7725 8.50712 15.3333 9.05545 15.3333 9.72962C15.3333 10.0271 15.1667 10.3913 14.9183 10.6371L12 13.2263L9.08167 10.6371C8.83333 10.3913 8.66667 10.0271 8.66667 9.72962C8.66667 9.05545 9.2275 8.50712 9.91667 8.50712C10.5292 8.50712 11.0733 8.93295 11.1817 9.49795C11.1821 9.4992 11.1827 9.50025 11.1833 9.50129C11.184 9.50233 11.1846 9.50337 11.185 9.50462C11.2008 9.58712 11.2392 9.66129 11.2783 9.73379C11.284 9.74407 11.288 9.75556 11.292 9.76709C11.2967 9.78079 11.3015 9.79452 11.3092 9.80629C11.336 9.84559 11.3722 9.87742 11.4086 9.90947C11.4208 9.92023 11.4331 9.93102 11.445 9.94212C11.457 9.95311 11.4678 9.96536 11.4786 9.97759C11.4957 9.9969 11.5127 10.0162 11.5342 10.0305C11.5487 10.0403 11.5656 10.0462 11.5827 10.0521C11.5959 10.0567 11.6093 10.0614 11.6217 10.068C11.69 10.1038 11.7583 10.1396 11.835 10.1555C11.8363 10.1559 11.8375 10.1565 11.8388 10.1571C11.84 10.1577 11.8413 10.1584 11.8425 10.1588C11.876 10.1647 11.9084 10.1623 11.9409 10.1598C11.9586 10.1585 11.9763 10.1571 11.9942 10.1571C12.0135 10.1571 12.0325 10.1586 12.0514 10.16C12.0864 10.1626 12.1213 10.1653 12.1575 10.1588C12.1589 10.1584 12.1601 10.1578 12.1612 10.1571C12.1626 10.1563 12.1639 10.1555 12.1658 10.1555C12.25 10.138 12.3267 10.1005 12.4008 10.0588C12.4103 10.0533 12.4211 10.0496 12.4319 10.0459C12.4438 10.0419 12.4558 10.0379 12.4658 10.0313C12.5216 9.99362 12.5658 9.94165 12.61 9.88954C12.6147 9.88401 12.6194 9.87847 12.6242 9.87295C12.6331 9.86256 12.6435 9.85356 12.6537 9.84461C12.6674 9.83276 12.6809 9.82101 12.6908 9.80629C12.7002 9.7917 12.7062 9.77472 12.7122 9.75775C12.7167 9.74467 12.7213 9.73159 12.7275 9.71962L12.7291 9.71654C12.7644 9.64921 12.8002 9.58096 12.815 9.50462C12.8154 9.50337 12.816 9.50233 12.8167 9.50129C12.8173 9.50025 12.8179 9.4992 12.8183 9.49795Z" fill="#6B7084"/>
</svg>
