<svg width="24" height="24" viewBox="0 0 24 24" fill="none" xmlns="http://www.w3.org/2000/svg">
<path fill-rule="evenodd" clip-rule="evenodd" d="M5.43492 5.70568C7.57733 5.39067 9.76951 5.22746 12.0003 5.22746C14.2308 5.22746 16.4228 5.39064 18.5651 5.70559C19.6679 5.86774 20.4834 6.84592 20.4834 8.01472V13.7198C20.4834 14.8886 19.6679 15.8668 18.565 16.029C16.8311 16.2839 15.0645 16.4394 13.2713 16.4894C12.7132 16.5049 12.1747 16.7292 11.7728 17.131L9.20379 19.7001V17.1286C9.20379 16.7324 8.89888 16.403 8.50393 16.3725C7.47062 16.2927 6.44722 16.1777 5.43492 16.0289C4.33208 15.8667 3.51659 14.8885 3.51659 13.7197V8.0148C3.51659 6.84602 4.33208 5.86783 5.43492 5.70568ZM12.0003 3.71088C9.69544 3.71088 7.42953 3.87951 5.2143 4.20522C3.31421 4.4846 2 6.14836 2 8.0148V13.7197C2 15.5862 3.3142 17.2499 5.2143 17.5293C6.03188 17.6495 6.85638 17.7483 7.6872 17.8252V21.5308C7.6872 21.8375 7.87196 22.114 8.15531 22.2314C8.43867 22.3487 8.76482 22.2838 8.98169 22.067L12.8452 18.2034C12.966 18.0827 13.1329 18.0104 13.3135 18.0054C15.1666 17.9537 16.9928 17.793 18.7856 17.5294C20.6858 17.2501 22 15.5863 22 13.7198V8.01472C22 6.14827 20.6858 4.48449 18.7857 4.20514C16.5706 3.87948 14.3049 3.71088 12.0003 3.71088ZM11.9999 12.7903C11.9999 13.7086 12.7474 14.4553 13.6666 14.4553C14.5858 14.4553 15.3333 13.7086 15.3333 12.7903C15.3333 12.7434 15.327 12.6988 15.3207 12.6537C15.3184 12.6371 15.3161 12.6205 15.3141 12.6036C15.3159 12.5899 15.3196 12.577 15.3233 12.5642C15.3283 12.5468 15.3333 12.5295 15.3333 12.5103V7.78864C15.3333 7.5303 15.2133 7.2853 15.0074 7.1278C14.8024 6.9703 14.5349 6.9178 14.2849 6.98363L10.1183 8.0953C9.75409 8.1928 9.49992 8.5228 9.49992 8.9003V11.9553C8.58075 11.9553 7.83325 12.7036 7.83325 13.6236C7.83325 14.542 8.58075 15.2886 9.49992 15.2886C10.4191 15.2886 11.1666 14.542 11.1666 13.6236V9.5403L13.6666 8.87364V11.122C12.7474 11.122 11.9999 11.8703 11.9999 12.7903Z" fill="#6B7084"/>
</svg>
