<svg width="24" height="24" viewBox="0 0 24 24" fill="none" xmlns="http://www.w3.org/2000/svg">
<path fill-rule="evenodd" clip-rule="evenodd" d="M12.0003 5.22746C9.76951 5.22746 7.57733 5.39067 5.43492 5.70568C4.33208 5.86783 3.51659 6.84602 3.51659 8.0148V13.7197C3.51659 14.8885 4.33208 15.8667 5.43492 16.0289C6.44722 16.1777 7.47062 16.2927 8.50393 16.3725C8.89888 16.403 9.20379 16.7324 9.20379 17.1286V19.7001L11.7728 17.131C12.1747 16.7292 12.7132 16.5049 13.2713 16.4894C15.0645 16.4394 16.8311 16.2839 18.565 16.029C19.6679 15.8668 20.4834 14.8886 20.4834 13.7198V8.01472C20.4834 6.84592 19.6679 5.86774 18.5651 5.70559C16.4228 5.39064 14.2308 5.22746 12.0003 5.22746ZM5.2143 4.20522C7.42953 3.87951 9.69544 3.71088 12.0003 3.71088C14.3049 3.71088 16.5706 3.87948 18.7857 4.20514C20.6858 4.48449 22 6.14827 22 8.01472V13.7198C22 15.5863 20.6858 17.2501 18.7856 17.5294C16.9928 17.793 15.1666 17.9537 13.3135 18.0054C13.1329 18.0104 12.966 18.0827 12.8452 18.2034L8.98169 22.067C8.76482 22.2838 8.43867 22.3487 8.15531 22.2314C7.87196 22.114 7.6872 21.8375 7.6872 21.5308V17.8252C6.85638 17.7483 6.03188 17.6495 5.2143 17.5293C3.3142 17.2499 2 15.5862 2 13.7197V8.0148C2 6.14836 3.31421 4.4846 5.2143 4.20522Z" fill="#6B7084"/>
</svg>
