<svg width="24" height="24" viewBox="0 0 24 24" fill="none" xmlns="http://www.w3.org/2000/svg">
<path fill-rule="evenodd" clip-rule="evenodd" d="M5.43492 5.70568C7.57733 5.39067 9.76951 5.22746 12.0003 5.22746C14.2308 5.22746 16.4228 5.39064 18.5651 5.70559C19.6679 5.86774 20.4834 6.84592 20.4834 8.01472V13.7198C20.4834 14.8886 19.6679 15.8668 18.565 16.029C16.8311 16.2839 15.0645 16.4394 13.2713 16.4894C12.7132 16.5049 12.1747 16.7292 11.7728 17.131L9.20379 19.7001V17.1286C9.20379 16.7324 8.89888 16.403 8.50393 16.3725C7.47062 16.2927 6.44722 16.1777 5.43492 16.0289C4.33208 15.8667 3.51659 14.8885 3.51659 13.7197V8.0148C3.51659 6.84602 4.33208 5.86783 5.43492 5.70568ZM12.0003 3.71088C9.69544 3.71088 7.42953 3.87951 5.2143 4.20522C3.31421 4.4846 2 6.14836 2 8.0148V13.7197C2 15.5862 3.3142 17.2499 5.2143 17.5293C6.03188 17.6495 6.85638 17.7483 7.6872 17.8252V21.5308C7.6872 21.8375 7.87196 22.114 8.15531 22.2314C8.43867 22.3487 8.76482 22.2838 8.98169 22.067L12.8452 18.2034C12.966 18.0827 13.1329 18.0104 13.3135 18.0054C15.1666 17.9537 16.9928 17.793 18.7856 17.5294C20.6858 17.2501 22 15.5863 22 13.7198V8.01472C22 6.14827 20.6858 4.48449 18.7857 4.20514C16.5706 3.87948 14.3049 3.71088 12.0003 3.71088ZM16.1666 11.9553C16.6266 11.9553 16.9999 11.582 16.9999 11.122C16.9999 10.662 16.6266 10.2886 16.1666 10.2886H16.0574L16.8599 9.08447C17.0307 8.82864 17.0466 8.49947 16.9016 8.22864C16.7557 7.9578 16.4741 7.78864 16.1666 7.78864H14.4999C14.0399 7.78864 13.6666 8.16197 13.6666 8.62197C13.6666 9.08197 14.0399 9.4553 14.4999 9.4553H14.6091L13.8066 10.6603C13.6357 10.9153 13.6199 11.2445 13.7649 11.5145C13.9107 11.7861 14.1924 11.9553 14.4999 11.9553H16.1666ZM11.9999 13.622C12.4599 13.622 12.8333 13.2486 12.8333 12.7886C12.8333 12.3286 12.4599 11.9553 11.9999 11.9553H10.4008L12.6508 9.1428C12.8508 8.8928 12.8899 8.54947 12.7508 8.26114C12.6124 7.97197 12.3199 7.78864 11.9999 7.78864H8.66661C8.20661 7.78864 7.83327 8.16197 7.83327 8.62197C7.83327 9.08197 8.20661 9.4553 8.66661 9.4553H10.2658L8.01577 12.2678C7.81577 12.5186 7.77661 12.8611 7.91577 13.1495C8.05411 13.4386 8.34661 13.622 8.66661 13.622H11.9999Z" fill="#6B7084"/>
</svg>
