<svg width="24" height="24" viewBox="0 0 24 24" fill="none" xmlns="http://www.w3.org/2000/svg">
<path fill-rule="evenodd" clip-rule="evenodd" d="M5.43492 5.70568C7.57733 5.39067 9.76951 5.22746 12.0003 5.22746C14.2308 5.22746 16.4228 5.39064 18.5651 5.70559C19.6679 5.86774 20.4834 6.84592 20.4834 8.01472V13.7198C20.4834 14.8886 19.6679 15.8668 18.565 16.029C16.8311 16.2839 15.0645 16.4394 13.2713 16.4894C12.7132 16.5049 12.1747 16.7292 11.7728 17.131L9.20379 19.7001V17.1286C9.20379 16.7324 8.89888 16.403 8.50393 16.3725C7.47062 16.2927 6.44722 16.1777 5.43492 16.0289C4.33208 15.8667 3.51659 14.8885 3.51659 13.7197V8.0148C3.51659 6.84602 4.33208 5.86783 5.43492 5.70568ZM12.0003 3.71088C9.69544 3.71088 7.42953 3.87951 5.2143 4.20522C3.31421 4.4846 2 6.14836 2 8.0148V13.7197C2 15.5862 3.3142 17.2499 5.2143 17.5293C6.03188 17.6495 6.85638 17.7483 7.6872 17.8252V21.5308C7.6872 21.8375 7.87196 22.114 8.15531 22.2314C8.43867 22.3487 8.76482 22.2838 8.98169 22.067L12.8452 18.2034C12.966 18.0827 13.1329 18.0104 13.3135 18.0054C15.1666 17.9537 16.9928 17.793 18.7856 17.5294C20.6858 17.2501 22 15.5863 22 13.7198V8.01472C22 6.14827 20.6858 4.48449 18.7857 4.20514C16.5706 3.87948 14.3049 3.71088 12.0003 3.71088ZM12.8333 11.6135V11.4601C13.8008 11.1151 14.5 10.1985 14.5 9.11346C14.5 7.73513 13.3783 6.61346 12 6.61346C10.6217 6.61346 9.5 7.73513 9.5 9.11346C9.5 9.57346 9.87333 9.9468 10.3333 9.9468C10.7933 9.9468 11.1667 9.57346 11.1667 9.11346C11.1667 8.6543 11.5408 8.28013 12 8.28013C12.4592 8.28013 12.8333 8.6543 12.8333 9.11346C12.8333 9.57263 12.4592 9.9468 12 9.9468C11.54 9.9468 11.1667 10.3201 11.1667 10.7801V11.6135C11.1667 11.706 11.1875 11.791 11.2192 11.871C11.26 11.9943 11.3192 12.111 11.4083 12.2051C11.5025 12.2943 11.6192 12.3535 11.7425 12.3943C11.8233 12.4251 11.9075 12.4468 12 12.4468C12.0925 12.4468 12.1775 12.4251 12.2583 12.3943C12.325 12.3718 12.3842 12.3385 12.4442 12.3001C12.4588 12.2911 12.4739 12.2826 12.489 12.2742C12.5253 12.2538 12.5616 12.2334 12.5917 12.2051C12.6191 12.176 12.6387 12.1414 12.6585 12.1064C12.6676 12.0904 12.6767 12.0742 12.6867 12.0585C12.7242 11.9976 12.7583 11.9393 12.7808 11.8718C12.8117 11.791 12.8333 11.706 12.8333 11.6135ZM12.8333 14.1135C12.8333 13.8968 12.7417 13.6801 12.5917 13.5218C12.2833 13.2135 11.7167 13.2135 11.4083 13.5218C11.2583 13.6801 11.1667 13.8968 11.1667 14.1135C11.1667 14.3301 11.2583 14.5468 11.4083 14.7051C11.5667 14.8551 11.7833 14.9468 12 14.9468C12.2167 14.9468 12.4333 14.8551 12.5917 14.7051C12.7417 14.5468 12.8333 14.3301 12.8333 14.1135Z" fill="#6B7084"/>
</svg>
