<svg width="24" height="24" viewBox="0 0 24 24" fill="none" xmlns="http://www.w3.org/2000/svg">
<g clip-path="url(#clip0_1265_21359)">
<path d="M12 24C18.6274 24 24 18.6274 24 12C24 5.37258 18.6274 0 12 0C5.37258 0 0 5.37258 0 12C0 18.6274 5.37258 24 12 24Z" fill="#DA1157"/>
<path d="M14.7126 13.6406C15.1478 13.6406 15.5652 13.4678 15.8729 13.16C16.1806 12.8523 16.3535 12.4349 16.3535 11.9997C16.3535 11.5645 16.1806 11.1471 15.8729 10.8393C15.5652 10.5316 15.1478 10.3587 14.7126 10.3587C14.2773 10.3587 13.8599 10.5316 13.5522 10.8393C13.2445 11.1471 13.0716 11.5645 13.0716 11.9997C13.0716 12.4349 13.2445 12.8523 13.5522 13.16C13.8599 13.4678 14.2773 13.6406 14.7126 13.6406ZM14.7126 8.21502C15.3375 8.21465 15.9527 8.369 16.5035 8.6643C17.0542 8.9596 17.5233 9.38666 17.8688 9.90737C18.2143 10.4281 18.4255 11.0262 18.4836 11.6484C18.5417 12.2706 18.4448 12.8976 18.2016 13.4732C17.9585 14.0489 17.5765 14.5554 17.09 14.9475C16.6034 15.3396 16.0273 15.6052 15.4131 15.7204C14.7989 15.8357 14.1657 15.7972 13.5701 15.6082C12.9744 15.4192 12.4348 15.0857 11.9995 14.6374C12.6877 13.932 13.0726 12.9852 13.0716 11.9997C13.0726 11.0141 12.6878 10.0673 11.9995 9.36197C12.3517 8.99861 12.7734 8.70982 13.2394 8.51278C13.7055 8.31574 14.2065 8.21448 14.7126 8.21502ZM9.28692 13.6406C9.72214 13.6406 10.1395 13.4678 10.4473 13.16C10.755 12.8523 10.9279 12.4349 10.9279 11.9997C10.9279 11.5645 10.755 11.1471 10.4473 10.8393C10.1395 10.5316 9.72214 10.3587 9.28692 10.3587C8.85171 10.3587 8.43432 10.5316 8.12658 10.8393C7.81884 11.1471 7.64595 11.5645 7.64595 11.9997C7.64595 12.4349 7.81884 12.8523 8.12658 13.16C8.43432 13.4678 8.85171 13.6406 9.28692 13.6406ZM12 9.36197C11.3119 10.0674 10.9273 11.0142 10.9284 11.9997C10.9284 13.0257 11.3373 13.9557 12 14.6374C11.4751 15.1776 10.8009 15.549 10.0637 15.7039C9.32653 15.8589 8.55989 15.7903 7.86189 15.5071C7.16388 15.2238 6.56627 14.7388 6.14551 14.1139C5.72476 13.4891 5.5 12.753 5.5 11.9997C5.5 11.2464 5.72476 10.5102 6.14551 9.88541C6.56627 9.26059 7.16388 8.77552 7.86189 8.49227C8.55989 8.20902 9.32653 8.14047 10.0637 8.2954C10.8009 8.45034 11.4751 8.8217 12 9.36197ZM10.9279 12.0002C10.9279 13.0262 11.3368 13.9563 12 14.6379C12.6881 13.9325 13.0728 12.9857 13.0716 12.0002C13.0728 11.0147 12.6881 10.068 12 9.36251C11.3117 10.0679 10.9269 11.0147 10.9279 12.0002Z" fill="white"/>
</g>
<defs>
<clipPath id="clip0_1265_21359">
<rect width="24" height="24" fill="white"/>
</clipPath>
</defs>
</svg>
