<svg viewBox="0 0 24 24" fill="none" xmlns="http://www.w3.org/2000/svg">
<path d="M22.0803 12C22.0803 6.47715 17.6032 2 12.0803 2C6.55747 2 2.08032 6.47715 2.08032 12C2.08032 17.5228 6.55747 22 12.0803 22C17.6032 22 22.0803 17.5228 22.0803 12Z" fill="url(#paint0_linear_620_13993)"/>
<path d="M12.0799 16.8375C11.6958 16.8486 11.3697 16.5582 11.3365 16.1755L11.2528 15.5198C10.4561 15.2928 9.98994 14.7032 9.86883 13.7672L9.15172 8.24313C8.9979 8.21838 8.84219 8.20719 8.6864 8.20967C8.45581 8.20779 8.22606 8.23754 8.00356 8.2981V16.6758H6.59644V9.94161C6.59644 9.02784 7.00678 8.38255 7.75416 8.11407V7.67989C7.75416 7.178 8.05933 6.84101 8.5127 6.84101C8.96607 6.84101 9.25053 7.12303 9.32383 7.63767L9.3796 8.03998C10.1979 8.26863 10.676 8.92587 10.8178 9.99259L11.4807 15.3175C11.8768 15.3939 12.2838 15.3939 12.6799 15.3175L13.3428 9.99339C13.4815 8.92587 13.9651 8.26863 14.781 8.03759L14.8368 7.63528C14.9101 7.12303 15.1985 6.83862 15.6479 6.83862C16.0973 6.83862 16.4064 7.17561 16.4064 7.6775V8.11168C17.1538 8.38016 17.5642 9.02545 17.5642 9.93922V16.6734H16.1555V8.29731C15.933 8.23674 15.7032 8.20699 15.4726 8.20888C15.3168 8.20639 15.1611 8.21758 15.0073 8.24234L14.2902 13.7672C14.1715 14.6865 13.6942 15.2904 12.9062 15.5198L12.8273 16.1763C12.8017 16.5643 12.4682 16.8593 12.0799 16.8375ZM11.5134 15.5835L11.5859 16.1484C11.6017 16.4061 11.8219 16.6032 12.0799 16.5905C12.2045 16.5995 12.3274 16.5576 12.4206 16.4744C12.5139 16.3913 12.5694 16.274 12.5747 16.1492L12.6472 15.5835C12.2718 15.6452 11.8888 15.6452 11.5134 15.5835ZM16.4064 16.4288H17.3132V9.94161C17.3132 9.16726 17.0009 8.6327 16.4064 8.38334V16.4288ZM6.84503 16.4288H7.75416V8.38334C7.16056 8.6327 6.85141 9.16726 6.85141 9.94161L6.84503 16.4288ZM9.41546 8.31165L10.1182 13.7345C10.2186 14.5192 10.5891 15.0267 11.2186 15.2482L10.5692 10.0237C10.4497 9.10273 10.0712 8.54029 9.41546 8.31165ZM14.7452 8.31165C14.0894 8.54029 13.7093 9.10273 13.5914 10.0245L12.942 15.245C13.5723 15.0235 13.942 14.516 14.0424 13.7313L14.7452 8.31165ZM8.00515 8.03441C8.22866 7.98007 8.45798 7.95331 8.688 7.95474C8.83184 7.95322 8.97561 7.96174 9.11826 7.98023L9.07523 7.66715C9.02025 7.28316 8.83062 7.08877 8.5127 7.08877C8.19479 7.08877 8.00515 7.31423 8.00515 7.67671V8.03441ZM15.4726 7.95474C15.7026 7.95331 15.932 7.98007 16.1555 8.03441V7.67989C16.1555 7.31741 15.961 7.09196 15.6479 7.09196C15.3348 7.09196 15.1404 7.28635 15.0854 7.67033L15.0424 7.98342C15.185 7.96493 15.3288 7.95641 15.4726 7.95793V7.95474Z" fill="white"/>
<defs>
<linearGradient id="paint0_linear_620_13993" x1="12.0803" y1="2" x2="12.0803" y2="22" gradientUnits="userSpaceOnUse">
<stop stop-color="#FF5A2F"/>
<stop offset="1" stop-color="#9F59E3"/>
</linearGradient>
</defs>
</svg>