<svg width="24" height="24" viewBox="0 0 24 24" fill="none" xmlns="http://www.w3.org/2000/svg">
<g clip-path="url(#clip0_1265_21355)">
<path d="M12 24C18.6274 24 24 18.6274 24 12C24 5.37258 18.6274 0 12 0C5.37258 0 0 5.37258 0 12C0 18.6274 5.37258 24 12 24Z" fill="#242424"/>
<path d="M15.6975 6.5454C15.6975 6.95964 15.3606 7.29588 14.9446 7.29588C14.8459 7.29604 14.7481 7.27675 14.6569 7.23912C14.5656 7.20149 14.4827 7.14625 14.4128 7.07656C14.3429 7.00687 14.2874 6.9241 14.2494 6.83296C14.2115 6.74182 14.1919 6.64411 14.1918 6.5454C14.1918 6.13057 14.5286 5.79492 14.9446 5.79492C15.3606 5.79492 15.6975 6.13057 15.6975 6.5454ZM15.155 9.15967C14.8028 9.15967 14.5168 8.87484 14.5168 8.52383C14.5168 8.17282 14.8028 7.88858 15.155 7.88858C15.5072 7.88858 15.7926 8.17282 15.7926 8.52383C15.7926 8.87484 15.5072 9.15967 15.1544 9.15967H15.155ZM14.957 10.7274C14.8863 10.7276 14.8163 10.7138 14.7509 10.6868C14.6855 10.6599 14.6261 10.6203 14.576 10.5703C14.526 10.5204 14.4862 10.461 14.4591 10.3957C14.432 10.3304 14.4181 10.2604 14.4181 10.1897C14.4182 10.119 14.4322 10.049 14.4593 9.98378C14.4864 9.91853 14.5262 9.85927 14.5762 9.80938C14.6263 9.75949 14.6857 9.71996 14.751 9.69304C14.8163 9.66612 14.8864 9.65235 14.957 9.6525C15.0277 9.65235 15.0978 9.66614 15.1632 9.6931C15.2285 9.72005 15.288 9.75964 15.338 9.80959C15.3881 9.85954 15.4278 9.91887 15.4549 9.98419C15.482 10.0495 15.4959 10.1195 15.4959 10.1902C15.4959 10.2609 15.4819 10.3309 15.4547 10.3961C15.4276 10.4614 15.3879 10.5206 15.3378 10.5705C15.2878 10.6204 15.2284 10.6599 15.163 10.6869C15.0977 10.7138 15.0277 10.7276 14.957 10.7274ZM14.9251 11.5382C14.9251 11.6604 14.8765 11.7776 14.7901 11.8641C14.7037 11.9505 14.5864 11.9991 14.4642 11.9991C14.3419 11.9991 14.2247 11.9505 14.1383 11.8641C14.0518 11.7776 14.0033 11.6604 14.0033 11.5382C14.0033 11.4159 14.0518 11.2987 14.1383 11.2122C14.2247 11.1258 14.3419 11.0772 14.4642 11.0772C14.5864 11.0772 14.7037 11.1258 14.7901 11.2122C14.8765 11.2987 14.9251 11.4159 14.9251 11.5382ZM14.1959 12.5569C14.1959 12.7756 14.0186 12.9511 13.8006 12.9511C13.7225 12.9508 13.6463 12.9275 13.5815 12.8839C13.5168 12.8404 13.4663 12.7786 13.4367 12.7064C13.407 12.6343 13.3994 12.5549 13.4148 12.4784C13.4302 12.4019 13.4679 12.3316 13.5233 12.2766C13.5786 12.2215 13.649 12.1841 13.7255 12.169C13.8021 12.1539 13.8814 12.1619 13.9535 12.1919C14.0255 12.2219 14.0871 12.2726 14.1303 12.3376C14.1736 12.4025 14.1966 12.4789 14.1965 12.5569H14.1959ZM13.3982 13.2796C13.3982 13.3696 13.3624 13.4559 13.2988 13.5195C13.2352 13.5831 13.1489 13.6188 13.059 13.6188C12.969 13.6188 12.8827 13.5831 12.8191 13.5195C12.7555 13.4559 12.7198 13.3696 12.7198 13.2796C12.7198 13.1897 12.7555 13.1034 12.8191 13.0398C12.8827 12.9762 12.969 12.9404 13.059 12.9404C13.1489 12.9404 13.2352 12.9762 13.2988 13.0398C13.3624 13.1034 13.3982 13.1897 13.3982 13.2796ZM17.4602 8.90143C17.4164 9.06115 17.3126 9.19771 17.1703 9.28248C17.028 9.36725 16.8585 9.39364 16.6972 9.35611C16.5359 9.31858 16.3954 9.22004 16.3052 9.08118C16.215 8.94231 16.1821 8.77391 16.2133 8.61129C16.2518 8.44594 16.3544 8.30266 16.4985 8.21295C16.6426 8.12324 16.8165 8.09446 16.9818 8.13293C17.1472 8.17141 17.2905 8.27399 17.3802 8.41811C17.4699 8.56223 17.4987 8.73609 17.4602 8.90143ZM17.1541 10.5578C17.1214 10.6978 17.0345 10.819 16.9124 10.8949C16.7903 10.9707 16.6431 10.995 16.5032 10.9623C16.3632 10.9296 16.242 10.8427 16.1661 10.7206C16.0903 10.5985 16.066 10.4513 16.0987 10.3114C16.1314 10.1714 16.2183 10.0502 16.3404 9.97434C16.4624 9.89848 16.6096 9.87422 16.7496 9.9069C16.8896 9.93958 17.0108 10.0265 17.0867 10.1486C17.1625 10.2706 17.1868 10.4179 17.1541 10.5578ZM16.5844 11.8797C16.5569 11.998 16.4834 12.1006 16.3802 12.1647C16.277 12.2289 16.1526 12.2494 16.0343 12.2219C15.916 12.1943 15.8134 12.1208 15.7493 12.0176C15.6851 11.9145 15.6646 11.79 15.6921 11.6717C15.724 11.558 15.7985 11.4609 15.9002 11.4008C16.0018 11.3406 16.1228 11.322 16.2378 11.3489C16.3528 11.3757 16.4531 11.4458 16.5176 11.5447C16.5822 11.6436 16.6061 11.7636 16.5844 11.8797ZM15.8505 12.8861C15.823 12.9828 15.7593 13.0653 15.6726 13.1164C15.5859 13.1674 15.4829 13.1832 15.3849 13.1604C15.2869 13.1376 15.2015 13.078 15.1462 12.994C15.091 12.9099 15.0702 12.8078 15.0882 12.7088C15.0999 12.6588 15.1213 12.6116 15.1513 12.5699C15.1812 12.5282 15.2191 12.4928 15.2627 12.4657C15.3063 12.4387 15.3549 12.4205 15.4055 12.4122C15.4562 12.4039 15.508 12.4057 15.558 12.4175C15.608 12.429 15.6553 12.4502 15.6971 12.48C15.7388 12.5098 15.7743 12.5475 15.8015 12.5911C15.8287 12.6346 15.847 12.6831 15.8554 12.7337C15.8638 12.7843 15.8622 12.8361 15.8505 12.8861ZM15.0486 13.5887C15.0385 13.6317 15.0201 13.6723 14.9943 13.7081C14.9685 13.744 14.9359 13.7744 14.8984 13.7977C14.8609 13.8209 14.8191 13.8366 14.7755 13.8437C14.732 13.8508 14.6874 13.8493 14.6444 13.8392C14.6014 13.8291 14.5608 13.8107 14.525 13.7849C14.4891 13.7591 14.4587 13.7266 14.4354 13.689C14.4122 13.6515 14.3965 13.6097 14.3894 13.5662C14.3823 13.5226 14.3838 13.478 14.3939 13.435C14.4142 13.3482 14.4683 13.273 14.5441 13.226C14.6199 13.1791 14.7112 13.1641 14.7981 13.1845C14.8849 13.2049 14.9601 13.2589 15.0071 13.3347C15.054 13.4105 15.069 13.5019 15.0486 13.5887ZM14.2479 14.0325C14.2263 14.1024 14.1789 14.1616 14.1154 14.1981C14.0518 14.2345 13.9769 14.2455 13.9055 14.2289C13.8342 14.2123 13.7718 14.1692 13.731 14.1084C13.6901 14.0476 13.6738 13.9736 13.6853 13.9013C13.707 13.8313 13.7543 13.7721 13.8179 13.7357C13.8814 13.6992 13.9564 13.6882 14.0277 13.7048C14.0991 13.7215 14.1614 13.7645 14.2023 13.8253C14.2432 13.8861 14.2595 13.9601 14.2479 14.0325ZM18.4459 11.1629C18.3827 11.2928 18.2705 11.3923 18.134 11.4396C17.9975 11.4869 17.8479 11.4782 17.7178 11.4152C17.6534 11.3844 17.5957 11.341 17.548 11.2877C17.5004 11.2345 17.4637 11.1723 17.4402 11.1048C17.4167 11.0373 17.4068 10.9658 17.411 10.8944C17.4153 10.8231 17.4336 10.7532 17.4649 10.689C17.5281 10.5593 17.6402 10.4599 17.7765 10.4126C17.9129 10.3653 18.0624 10.3739 18.1924 10.4367C18.2567 10.4677 18.3143 10.5111 18.3619 10.5644C18.4095 10.6177 18.4461 10.6798 18.4696 10.7473C18.4932 10.8147 18.5032 10.8861 18.4991 10.9574C18.495 11.0288 18.4769 11.0986 18.4459 11.1629ZM17.878 12.4718C17.8215 12.5772 17.7265 12.6567 17.6128 12.6937C17.4991 12.7307 17.3755 12.7224 17.2678 12.6705C17.1601 12.6186 17.0765 12.5271 17.0347 12.4151C16.9928 12.3031 16.9958 12.1793 17.043 12.0694C17.097 11.9591 17.1924 11.8747 17.3084 11.8344C17.4244 11.7941 17.5516 11.8013 17.6623 11.8543C17.7171 11.8805 17.7663 11.9173 17.8068 11.9626C17.8474 12.0079 17.8786 12.0608 17.8987 12.1182C17.9187 12.1756 17.9272 12.2364 17.9237 12.2971C17.9201 12.3578 17.9046 12.4172 17.878 12.4718ZM17.1641 13.4646C17.1175 13.56 17.035 13.633 16.9347 13.6678C16.8344 13.7026 16.7244 13.6962 16.6288 13.6501C16.5815 13.6274 16.5392 13.5956 16.5043 13.5564C16.4694 13.5173 16.4425 13.4717 16.4253 13.4222C16.408 13.3726 16.4007 13.3202 16.4038 13.2679C16.4069 13.2155 16.4203 13.1643 16.4432 13.1171C16.4921 13.0261 16.5742 12.9575 16.6724 12.9256C16.7706 12.8937 16.8774 12.901 16.9704 12.9459C17.0634 12.9908 17.1354 13.0699 17.1715 13.1666C17.2076 13.2634 17.205 13.3703 17.1641 13.4652V13.4646ZM16.3688 14.1666C16.3282 14.2492 16.2568 14.3124 16.1699 14.3425C16.083 14.3726 15.9878 14.3671 15.9049 14.3273C15.8626 14.3083 15.8247 14.2809 15.7932 14.2469C15.7617 14.2129 15.7374 14.1729 15.7216 14.1294C15.7058 14.0858 15.6989 14.0395 15.7014 13.9932C15.7038 13.9469 15.7154 13.9016 15.7356 13.8599C15.7559 13.8182 15.7842 13.781 15.8191 13.7505C15.8539 13.7199 15.8945 13.6966 15.9385 13.6821C15.9825 13.6675 16.0289 13.6618 16.0751 13.6655C16.1213 13.6691 16.1663 13.682 16.2074 13.7033C16.2484 13.7231 16.2851 13.7509 16.3155 13.7849C16.3458 13.8189 16.3691 13.8585 16.384 13.9016C16.399 13.9446 16.4054 13.9901 16.4028 14.0356C16.4001 14.0811 16.3886 14.1256 16.3688 14.1666ZM15.568 14.5992C15.5317 14.6665 15.4708 14.7172 15.398 14.7408C15.3252 14.7644 15.2461 14.759 15.1772 14.7257C15.1083 14.6924 15.0549 14.6339 15.0281 14.5622C15.0012 14.4905 15.0031 14.4113 15.0333 14.3409C15.071 14.2761 15.1318 14.2279 15.2035 14.206C15.2752 14.184 15.3526 14.19 15.4201 14.2226C15.4877 14.2552 15.5404 14.3121 15.5679 14.3819C15.5953 14.4517 15.5953 14.5293 15.568 14.5992ZM14.8158 14.8172C14.7865 14.8773 14.7346 14.9233 14.6715 14.9452C14.6084 14.9671 14.5392 14.9632 14.479 14.9342C14.4492 14.9198 14.4227 14.8996 14.4007 14.8749C14.3788 14.8502 14.3619 14.8214 14.3511 14.7902C14.3403 14.759 14.3358 14.7259 14.3377 14.693C14.3397 14.66 14.3481 14.6277 14.3625 14.598C14.377 14.5683 14.3971 14.5417 14.4218 14.5197C14.4465 14.4978 14.4753 14.481 14.5066 14.4701C14.5378 14.4593 14.5708 14.4548 14.6038 14.4567C14.6368 14.4587 14.6691 14.4671 14.6988 14.4816C14.7285 14.4959 14.7551 14.516 14.7771 14.5406C14.7991 14.5652 14.816 14.594 14.8269 14.6251C14.8377 14.6563 14.8424 14.6893 14.8405 14.7223C14.8386 14.7552 14.8302 14.7875 14.8158 14.8172ZM15.428 17.6868C15.3424 17.6378 15.2673 17.5724 15.207 17.4944C15.1467 17.4163 15.1025 17.3271 15.0768 17.2319C15.0511 17.1367 15.0445 17.0373 15.0573 16.9396C15.0701 16.8418 15.1021 16.7475 15.1514 16.6621C15.2516 16.4896 15.416 16.3638 15.6087 16.3122C15.8014 16.2606 16.0067 16.2874 16.1797 16.3867C16.5401 16.5936 16.6642 17.0527 16.4568 17.4114C16.3567 17.584 16.1923 17.7099 15.9996 17.7615C15.8069 17.8131 15.6015 17.7862 15.4286 17.6868H15.428ZM13.6611 16.7815C13.5886 16.7401 13.525 16.6847 13.474 16.6186C13.4229 16.5525 13.3855 16.477 13.3637 16.3964C13.342 16.3158 13.3364 16.2316 13.3472 16.1489C13.3581 16.0661 13.3853 15.9862 13.4271 15.914C13.5119 15.7679 13.651 15.6614 13.8142 15.6176C13.9773 15.5739 14.1511 15.5965 14.2975 15.6806C14.6025 15.8555 14.7071 16.2443 14.5316 16.5481C14.4469 16.6942 14.3077 16.8009 14.1446 16.8446C13.9814 16.8884 13.8076 16.8657 13.6611 16.7815ZM12.3599 15.6942C12.2985 15.6591 12.2447 15.6122 12.2015 15.5562C12.1583 15.5002 12.1266 15.4363 12.1082 15.368C12.0898 15.2998 12.0851 15.2286 12.0943 15.1585C12.1035 15.0884 12.1265 15.0208 12.1619 14.9596C12.2337 14.8361 12.3515 14.7461 12.4895 14.7092C12.6274 14.6724 12.7744 14.6916 12.8982 14.7629C12.9594 14.7979 13.0131 14.8447 13.0562 14.9005C13.0992 14.9563 13.1309 15.0201 13.1493 15.0882C13.1677 15.1562 13.1724 15.2272 13.1633 15.2972C13.1542 15.3671 13.1314 15.4345 13.0962 15.4956C13.0248 15.6195 12.9072 15.71 12.7691 15.7473C12.6311 15.7845 12.4839 15.7654 12.3599 15.6942ZM11.4729 14.5277C11.4207 14.4974 11.3749 14.4572 11.3382 14.4093C11.3016 14.3614 11.2747 14.3067 11.2591 14.2484C11.2436 14.1901 11.2396 14.1293 11.2476 14.0695C11.2555 14.0097 11.2752 13.952 11.3054 13.8998C11.3356 13.8476 11.3758 13.8018 11.4237 13.7651C11.4716 13.7284 11.5263 13.7016 11.5846 13.686C11.6429 13.6704 11.7037 13.6665 11.7635 13.6745C11.8233 13.6824 11.881 13.702 11.9332 13.7323C12.1531 13.8587 12.2287 14.1394 12.1017 14.3587C12.0406 14.4643 11.9401 14.5415 11.8222 14.5732C11.7044 14.6048 11.5787 14.5885 11.4729 14.5277ZM10.9511 13.3895C10.9062 13.3638 10.8667 13.3294 10.8351 13.2884C10.8034 13.2474 10.7801 13.2006 10.7666 13.1506C10.7531 13.1005 10.7496 13.0484 10.7564 12.997C10.7631 12.9456 10.7798 12.8961 10.8057 12.8512C10.8584 12.7604 10.9448 12.6943 11.0462 12.6671C11.1475 12.64 11.2555 12.6541 11.3464 12.7064C11.5355 12.8152 11.6005 13.0563 11.4918 13.2442C11.4394 13.3351 11.353 13.4016 11.2516 13.4288C11.1502 13.4561 11.0421 13.442 10.9511 13.3895ZM10.7212 12.3395C10.6826 12.3173 10.6488 12.2877 10.6217 12.2524C10.5945 12.2172 10.5746 12.1769 10.5631 12.1339C10.5515 12.0909 10.5486 12.0461 10.5545 12.0019C10.5603 11.9578 10.5748 11.9153 10.5972 11.8768C10.6424 11.7991 10.7164 11.7425 10.8032 11.7193C10.89 11.696 10.9825 11.708 11.0604 11.7527C11.099 11.7749 11.1327 11.8046 11.1598 11.8399C11.1869 11.8752 11.2067 11.9155 11.2182 11.9585C11.2297 12.0015 11.2326 12.0464 11.2268 12.0905C11.221 12.1346 11.2065 12.1771 11.1842 12.2157C11.162 12.2542 11.1323 12.288 11.097 12.315C11.0617 12.3421 11.0214 12.362 10.9784 12.3734C10.9354 12.3849 10.8906 12.3879 10.8464 12.382C10.8023 12.3762 10.7598 12.3617 10.7212 12.3395ZM12.9372 18.205C12.8533 18.2052 12.7701 18.1888 12.6925 18.1568C12.6149 18.1248 12.5444 18.0778 12.485 18.0185C12.4255 17.9593 12.3784 17.8889 12.3462 17.8114C12.3139 17.7338 12.2973 17.6507 12.2973 17.5668C12.2973 17.4829 12.314 17.3998 12.3462 17.3224C12.3784 17.2449 12.4256 17.1745 12.485 17.1153C12.5445 17.0561 12.615 17.0091 12.6926 16.9772C12.7702 16.9453 12.8533 16.929 12.9372 16.9292C13.2906 16.9292 13.5772 17.2146 13.5772 17.5674C13.5772 17.9196 13.2906 18.205 12.9372 18.205ZM11.2129 16.9416C11.161 16.8932 11.1191 16.8351 11.0897 16.7705C11.0603 16.7059 11.0439 16.6361 11.0416 16.5651C11.0392 16.4942 11.0509 16.4235 11.0759 16.3571C11.101 16.2907 11.1389 16.2299 11.1875 16.1781C11.286 16.0735 11.422 16.0122 11.5656 16.0076C11.7092 16.0029 11.8488 16.0553 11.9539 16.1533C12.1726 16.3572 12.1832 16.6987 11.9787 16.9168C11.8802 17.0212 11.7444 17.0824 11.6009 17.0871C11.4575 17.0917 11.318 17.0394 11.2129 16.9416ZM10.3472 15.7905C10.3033 15.7495 10.268 15.7002 10.2432 15.6455C10.2184 15.5909 10.2047 15.5318 10.2028 15.4718C10.2008 15.4118 10.2108 15.352 10.232 15.2959C10.2533 15.2397 10.2854 15.1883 10.3265 15.1446C10.4097 15.0561 10.5246 15.0042 10.6459 15.0002C10.7673 14.9962 10.8853 15.0405 10.9742 15.1233C11.0182 15.1642 11.0537 15.2134 11.0786 15.2681C11.1035 15.3227 11.1174 15.3818 11.1194 15.4418C11.1214 15.5019 11.1114 15.5617 11.0901 15.6179C11.0689 15.6741 11.0367 15.7255 10.9954 15.7692C10.9121 15.8577 10.7972 15.9097 10.6757 15.9136C10.5542 15.9176 10.4361 15.8733 10.3472 15.7905ZM9.83958 14.6535C9.80207 14.6186 9.77184 14.5766 9.75064 14.5299C9.72943 14.4832 9.71767 14.4328 9.71602 14.3816C9.71437 14.3303 9.72288 14.2793 9.74104 14.2313C9.7592 14.1834 9.78667 14.1395 9.82185 14.1022C9.89291 14.0267 9.99098 13.9824 10.0946 13.9789C10.1983 13.9755 10.2991 14.0132 10.375 14.0839C10.4125 14.1189 10.4427 14.1609 10.4639 14.2076C10.4851 14.2543 10.4969 14.3048 10.4986 14.356C10.5003 14.4073 10.4919 14.4584 10.4738 14.5064C10.4557 14.5544 10.4284 14.5984 10.3933 14.6358C10.3221 14.7114 10.2239 14.7558 10.1201 14.7591C10.0163 14.7624 9.91543 14.7244 9.83958 14.6535ZM9.62921 13.6111C9.59707 13.5811 9.57118 13.545 9.55301 13.5049C9.53484 13.4649 9.52475 13.4216 9.52333 13.3777C9.5219 13.3337 9.52916 13.2899 9.54469 13.2487C9.56023 13.2076 9.58372 13.1699 9.61384 13.1378C9.67485 13.0727 9.7592 13.0344 9.84839 13.0314C9.93758 13.0284 10.0243 13.0609 10.0895 13.1218C10.2255 13.2483 10.2314 13.4604 10.1049 13.5958C10.0438 13.6608 9.95942 13.699 9.87024 13.7019C9.78105 13.7047 9.69436 13.6721 9.62921 13.6111ZM9.64339 12.6976C9.61568 12.6718 9.59334 12.6409 9.57765 12.6065C9.56195 12.5721 9.55322 12.5349 9.55196 12.4971C9.5507 12.4593 9.55692 12.4216 9.57028 12.3863C9.58364 12.3509 9.60387 12.3185 9.6298 12.291C9.68232 12.2353 9.75476 12.2026 9.83128 12.2002C9.9078 12.1978 9.98218 12.2257 10.0381 12.278C10.0869 12.3318 10.1135 12.4021 10.1128 12.4747C10.1121 12.5473 10.0841 12.617 10.0343 12.6699C9.98457 12.7228 9.91671 12.755 9.84427 12.7601C9.77182 12.7653 9.70011 12.7429 9.64339 12.6976ZM10.0423 17.7559C10.0021 17.6969 9.97394 17.6306 9.95944 17.5607C9.94493 17.4908 9.94437 17.4188 9.95776 17.3487C9.97115 17.2786 9.99825 17.2118 10.0375 17.1522C10.0767 17.0926 10.1274 17.0413 10.1865 17.0013C10.306 16.9201 10.4529 16.8896 10.5949 16.9165C10.7369 16.9434 10.8625 17.0256 10.944 17.1449C10.9843 17.2038 11.0125 17.2701 11.027 17.3399C11.0415 17.4098 11.0421 17.4818 11.0287 17.5519C11.0153 17.622 10.9882 17.6887 10.9489 17.7482C10.9096 17.8078 10.859 17.859 10.7998 17.8989C10.6803 17.98 10.5335 18.0105 10.3915 17.9837C10.2496 17.9569 10.124 17.875 10.0423 17.7559ZM9.18779 16.6119C9.15345 16.5617 9.12938 16.5053 9.11694 16.4458C9.1045 16.3863 9.10396 16.325 9.11532 16.2653C9.12669 16.2056 9.14976 16.1487 9.18318 16.0979C9.21661 16.0472 9.25975 16.0035 9.31011 15.9695C9.41179 15.9007 9.53658 15.8748 9.65726 15.8976C9.77793 15.9204 9.88468 15.99 9.95422 16.0913C9.98855 16.1414 10.0126 16.1978 10.0251 16.2573C10.0375 16.3168 10.038 16.3782 10.0267 16.4379C10.0153 16.4976 9.99225 16.5544 9.95882 16.6052C9.92539 16.6559 9.88226 16.6996 9.8319 16.7336C9.73026 16.8026 9.60542 16.8286 9.4847 16.8058C9.36398 16.7829 9.25722 16.7132 9.18779 16.6119ZM8.68077 15.4992C8.65122 15.4558 8.63052 15.4071 8.61984 15.3558C8.60917 15.3045 8.60873 15.2515 8.61856 15.2C8.62839 15.1485 8.64829 15.0995 8.67711 15.0557C8.70594 15.0119 8.74313 14.9742 8.78654 14.9449C8.87441 14.8853 8.98227 14.863 9.08656 14.8827C9.19085 14.9024 9.28312 14.9626 9.3432 15.05C9.3729 15.0934 9.39372 15.1423 9.40445 15.1937C9.41518 15.2452 9.41561 15.2983 9.40573 15.3499C9.39584 15.4016 9.37582 15.4508 9.34683 15.4946C9.31785 15.5385 9.28046 15.5762 9.23683 15.6055C9.14887 15.6648 9.04105 15.6868 8.93689 15.6669C8.83272 15.647 8.74066 15.5867 8.68077 15.4992ZM8.46803 14.4627C8.44238 14.425 8.42439 14.3827 8.41511 14.3382C8.40583 14.2936 8.40543 14.2476 8.41394 14.2029C8.42244 14.1581 8.43969 14.1155 8.46469 14.0774C8.48969 14.0394 8.52195 14.0066 8.55963 13.9811C8.63594 13.9293 8.72964 13.9099 8.82023 13.9271C8.91082 13.9442 8.99092 13.9966 9.04301 14.0726C9.06879 14.1103 9.08686 14.1526 9.09619 14.1972C9.10551 14.2419 9.1059 14.2879 9.09733 14.3327C9.08875 14.3775 9.07139 14.4201 9.04625 14.4581C9.0211 14.4962 8.98867 14.5288 8.95082 14.5543C8.87456 14.6058 8.781 14.6251 8.69055 14.608C8.6001 14.5908 8.52011 14.5386 8.46803 14.4627ZM8.49167 13.555C8.46972 13.5229 8.45432 13.4868 8.44635 13.4487C8.43839 13.4106 8.43802 13.3714 8.44527 13.3332C8.45252 13.2949 8.46724 13.2585 8.48858 13.226C8.50993 13.1935 8.53749 13.1655 8.56967 13.1437C8.63484 13.0994 8.7149 13.0828 8.79231 13.0974C8.86973 13.112 8.9382 13.1567 8.98273 13.2217C9.02164 13.2868 9.03417 13.3644 9.01776 13.4384C9.00135 13.5125 8.95725 13.5775 8.89448 13.6201C8.83171 13.6627 8.75503 13.6797 8.68014 13.6676C8.60525 13.6555 8.53783 13.6152 8.49167 13.555ZM8.67722 12.7968C8.65758 12.7695 8.64361 12.7385 8.63614 12.7056C8.62867 12.6728 8.62785 12.6388 8.63373 12.6056C8.63961 12.5724 8.65207 12.5408 8.67037 12.5125C8.68868 12.4843 8.71246 12.4599 8.74031 12.441C8.76816 12.4221 8.79953 12.4089 8.83255 12.4023C8.86557 12.3956 8.89959 12.3957 8.93259 12.4024C8.96559 12.4091 8.99691 12.4224 9.02471 12.4414C9.0525 12.4605 9.0762 12.4849 9.09442 12.5132C9.13001 12.5685 9.14257 12.6356 9.12942 12.7001C9.11628 12.7645 9.07846 12.8213 9.02405 12.8583C8.96964 12.8953 8.90292 12.9096 8.83813 12.8981C8.77334 12.8866 8.7156 12.8503 8.67722 12.7968ZM5.87622 11.8856C6.04917 11.7862 6.25449 11.7593 6.44722 11.8109C6.63994 11.8625 6.80435 11.9884 6.90444 12.161C6.95374 12.2464 6.98571 12.3406 6.99852 12.4384C7.01134 12.5361 7.00474 12.6354 6.9791 12.7306C6.95346 12.8258 6.9093 12.915 6.84913 12.9931C6.78896 13.0712 6.71398 13.1366 6.62847 13.1857C6.26801 13.3925 5.80826 13.269 5.60085 12.9109C5.55143 12.8255 5.51935 12.7313 5.50644 12.6335C5.49354 12.5357 5.50006 12.4363 5.52565 12.3411C5.55123 12.2458 5.59537 12.1566 5.65553 12.0784C5.71569 12.0002 5.79069 11.9347 5.87622 11.8856ZM7.54855 10.816C7.6949 10.7315 7.86879 10.7085 8.03208 10.7521C8.19537 10.7956 8.33472 10.9021 8.41958 11.0483C8.59508 11.3526 8.49049 11.7408 8.18557 11.9164C8.03913 12.0003 7.86543 12.0229 7.70237 11.9793C7.53931 11.9357 7.40011 11.8294 7.31513 11.6835C7.27325 11.6113 7.24607 11.5314 7.23513 11.4486C7.2242 11.3658 7.22974 11.2816 7.25143 11.201C7.27312 11.1203 7.31053 11.0447 7.36152 10.9786C7.41251 10.9124 7.47607 10.857 7.54855 10.8155V10.816ZM9.14465 10.2387C9.26849 10.1676 9.41542 10.1484 9.55336 10.1853C9.6913 10.2222 9.80906 10.3121 9.88094 10.4355C9.91622 10.4967 9.9391 10.5642 9.94828 10.6342C9.95745 10.7043 9.95274 10.7754 9.93441 10.8436C9.91608 10.9118 9.8845 10.9758 9.84146 11.0318C9.79842 11.0878 9.74477 11.1347 9.68357 11.17C9.55966 11.241 9.41268 11.2601 9.27473 11.2231C9.13678 11.1862 9.01906 11.0961 8.94728 10.9726C8.91193 10.9115 8.889 10.844 8.87979 10.774C8.87059 10.704 8.87529 10.6329 8.89362 10.5647C8.91196 10.4965 8.94357 10.4326 8.98664 10.3767C9.02972 10.3207 9.08341 10.2739 9.14465 10.2387ZM10.6025 10.0579C10.7082 9.99701 10.8338 9.98056 10.9517 10.0121C11.0695 10.0437 11.17 10.1207 11.2312 10.2263C11.2614 10.2785 11.2809 10.3361 11.2888 10.3958C11.2967 10.4555 11.2927 10.5163 11.277 10.5744C11.2614 10.6326 11.2344 10.6872 11.1976 10.7349C11.1609 10.7827 11.1151 10.8227 11.0628 10.8527C11.0104 10.883 10.9525 10.9027 10.8925 10.9106C10.8324 10.9186 10.7714 10.9146 10.7129 10.899C10.6544 10.8834 10.5996 10.8563 10.5515 10.8195C10.5035 10.7827 10.4632 10.7367 10.4329 10.6843C10.4028 10.632 10.3833 10.5744 10.3755 10.5146C10.3677 10.4548 10.3718 10.394 10.3876 10.3359C10.4033 10.2777 10.4304 10.2231 10.4673 10.1754C10.5042 10.1277 10.5501 10.0878 10.6025 10.0579ZM11.8517 10.1784C11.9425 10.1261 12.0504 10.112 12.1517 10.1392C12.2529 10.1663 12.3393 10.2325 12.3918 10.3232C12.4376 10.4136 12.4469 10.5182 12.4179 10.6153C12.3889 10.7124 12.3237 10.7947 12.2359 10.8452C12.148 10.8957 12.0441 10.9106 11.9456 10.8868C11.8471 10.8631 11.7615 10.8024 11.7063 10.7174C11.6803 10.6725 11.6635 10.6229 11.6567 10.5714C11.6499 10.52 11.6534 10.4677 11.6669 10.4177C11.6804 10.3676 11.7037 10.3207 11.7354 10.2796C11.7671 10.2385 11.8066 10.2042 11.8517 10.1784ZM12.8787 10.5058C12.9568 10.4611 13.0493 10.4491 13.1362 10.4723C13.2231 10.4956 13.2973 10.5522 13.3426 10.6299C13.365 10.6684 13.3796 10.7109 13.3855 10.7551C13.3914 10.7992 13.3885 10.8441 13.3769 10.8871C13.3654 10.9301 13.3454 10.9704 13.3183 11.0057C13.2911 11.041 13.2572 11.0705 13.2185 11.0926C13.18 11.1149 13.1374 11.1294 13.0933 11.1353C13.0492 11.1411 13.0043 11.1383 12.9613 11.1268C12.9183 11.1153 12.8779 11.0955 12.8426 11.0684C12.8072 11.0414 12.7775 11.0076 12.7552 10.9691C12.7329 10.9306 12.7184 10.888 12.7125 10.8439C12.7067 10.7997 12.7096 10.7549 12.721 10.7119C12.7325 10.6689 12.7523 10.6285 12.7794 10.5932C12.8064 10.5578 12.8402 10.5281 12.8787 10.5058ZM7.04449 9.18685C7.20685 9.13788 7.38201 9.15529 7.53156 9.23527C7.6811 9.31525 7.79283 9.45127 7.84224 9.6135C7.88101 9.77279 7.85722 9.94089 7.77579 10.0832C7.69435 10.2255 7.56146 10.3311 7.40448 10.3784C7.24749 10.4256 7.07837 10.4109 6.93192 10.3372C6.78547 10.2635 6.67285 10.1365 6.61724 9.98224C6.5928 9.90197 6.58447 9.81765 6.59273 9.73415C6.601 9.65064 6.62569 9.56959 6.6654 9.49567C6.70511 9.42174 6.75905 9.3564 6.8241 9.3034C6.88916 9.2504 6.96406 9.21079 7.04449 9.18685ZM8.63645 8.6237C8.77159 8.58868 8.91505 8.60729 9.03678 8.67564C9.15852 8.74399 9.24909 8.85677 9.28956 8.99039C9.33003 9.124 9.31724 9.26809 9.25389 9.39249C9.19053 9.5169 9.08151 9.61197 8.94964 9.65782C8.88174 9.67839 8.81045 9.68538 8.73985 9.67839C8.66925 9.6714 8.60071 9.65058 8.53816 9.61711C8.41182 9.54951 8.31751 9.43449 8.27598 9.29736C8.23445 9.16022 8.2491 9.01221 8.3167 8.88587C8.3843 8.75954 8.49931 8.66523 8.63645 8.6237ZM10.07 8.4541C10.186 8.41907 10.3112 8.43155 10.4179 8.48879C10.5247 8.54603 10.6044 8.64334 10.6394 8.75932C10.6744 8.87529 10.662 9.00043 10.6047 9.10721C10.5475 9.21398 10.4502 9.29365 10.3342 9.32868C10.2768 9.34602 10.2165 9.35188 10.1568 9.34593C10.0971 9.33998 10.0392 9.32233 9.98629 9.29399C9.93342 9.26564 9.88665 9.22717 9.84866 9.18075C9.81066 9.13433 9.78217 9.08089 9.76483 9.02346C9.74748 8.96604 9.74162 8.90576 9.74757 8.84606C9.75352 8.78637 9.77117 8.72844 9.79952 8.67557C9.82786 8.6227 9.86634 8.57593 9.91275 8.53793C9.95917 8.49993 10.0126 8.47144 10.07 8.4541ZM11.311 8.58588C11.4101 8.55594 11.5171 8.56661 11.6083 8.61554C11.6996 8.66447 11.7677 8.74765 11.7976 8.84677C11.8276 8.9459 11.8169 9.05286 11.768 9.14412C11.719 9.23538 11.6359 9.30347 11.5367 9.3334C11.4374 9.36322 11.3304 9.35248 11.239 9.30352C11.1476 9.25456 11.0794 9.17139 11.0492 9.07221C11.0344 9.02305 11.0295 8.97145 11.0346 8.92038C11.0398 8.8693 11.055 8.81975 11.0794 8.77456C11.1038 8.72938 11.1368 8.68945 11.1767 8.65707C11.2165 8.62469 11.2624 8.6005 11.3116 8.58588H11.311ZM12.3215 8.92684C12.405 8.90631 12.4932 8.91861 12.5679 8.9612C12.6426 9.00379 12.6981 9.07343 12.7229 9.15574C12.7478 9.23805 12.7401 9.32677 12.7015 9.40359C12.6629 9.48041 12.5962 9.53947 12.5153 9.56859C12.4732 9.58132 12.4289 9.58562 12.3851 9.58125C12.3413 9.57689 12.2988 9.56393 12.26 9.54314C12.2212 9.52234 12.1869 9.49411 12.159 9.46005C12.1311 9.42599 12.1102 9.38677 12.0975 9.34463C12.0848 9.30249 12.0805 9.25826 12.0849 9.21446C12.0892 9.17066 12.1022 9.12815 12.123 9.08935C12.1438 9.05056 12.172 9.01624 12.2061 8.98836C12.2401 8.96047 12.2793 8.93957 12.3215 8.92684ZM13.1074 9.39663C13.1436 9.38565 13.1815 9.3819 13.2192 9.3856C13.2568 9.38929 13.2933 9.40035 13.3266 9.41816C13.36 9.43597 13.3895 9.46017 13.4134 9.48937C13.4374 9.51858 13.4554 9.55223 13.4664 9.58839C13.4774 9.62455 13.4811 9.66252 13.4774 9.70013C13.4737 9.73775 13.4627 9.77426 13.4449 9.8076C13.4271 9.84093 13.4029 9.87043 13.3737 9.89442C13.3445 9.9184 13.3108 9.9364 13.2746 9.94738C13.2016 9.96955 13.1228 9.96181 13.0554 9.92585C12.9881 9.88989 12.9378 9.82865 12.9157 9.75562C12.8935 9.68259 12.9012 9.60374 12.9372 9.53641C12.9731 9.46909 13.0344 9.41881 13.1074 9.39663ZM8.5159 7.20606C8.58724 7.20058 8.65896 7.20924 8.72695 7.23153C8.79494 7.25383 8.85786 7.28933 8.9121 7.33599C8.96634 7.38266 9.01084 7.43957 9.04303 7.50347C9.07523 7.56736 9.0945 7.63699 9.09974 7.70835C9.11024 7.85254 9.06303 7.99499 8.9685 8.10437C8.87397 8.21375 8.73986 8.2811 8.59567 8.2916C8.45149 8.3021 8.30904 8.25489 8.19966 8.16036C8.09028 8.06583 8.02293 7.93172 8.01243 7.78753C8.00728 7.71624 8.01624 7.64464 8.03879 7.57681C8.06135 7.50899 8.09706 7.44628 8.14388 7.39227C8.1907 7.33826 8.24771 7.29401 8.31164 7.26206C8.37558 7.23011 8.44519 7.21108 8.51649 7.20606H8.5159ZM9.93826 7.04178C10.057 7.03906 10.1722 7.0821 10.2601 7.16199C10.348 7.24187 10.4018 7.35248 10.4103 7.47093C10.4189 7.58938 10.3816 7.70659 10.3062 7.7983C10.2307 7.89001 10.1229 7.94921 10.005 7.96363C9.94282 7.97124 9.87969 7.96613 9.81951 7.94861C9.75932 7.93108 9.70332 7.90151 9.65491 7.86169C9.60649 7.82187 9.56668 7.77262 9.53788 7.71694C9.50908 7.66126 9.49189 7.60031 9.48736 7.53779C9.48283 7.47526 9.49106 7.41247 9.51153 7.35322C9.53201 7.29397 9.56431 7.2395 9.60648 7.19312C9.64865 7.14673 9.6998 7.1094 9.75683 7.08338C9.81387 7.05737 9.87559 7.04322 9.93826 7.04178ZM11.1579 7.16233C11.2599 7.16106 11.3585 7.19875 11.4335 7.2677C11.5086 7.33666 11.5546 7.43167 11.5619 7.53335C11.5693 7.63503 11.5376 7.73569 11.4733 7.81478C11.409 7.89387 11.3169 7.94542 11.2159 7.9589C11.1118 7.9638 11.0099 7.92784 10.932 7.85871C10.8541 7.78958 10.8062 7.69274 10.7987 7.58884C10.7911 7.48494 10.8245 7.3822 10.8916 7.30252C10.9587 7.22285 11.0543 7.17254 11.1579 7.16233ZM12.1643 7.49798C12.2539 7.49502 12.3411 7.52685 12.4077 7.58679C12.4744 7.64674 12.5152 7.73014 12.5217 7.81953C12.5282 7.90892 12.4998 7.99735 12.4426 8.0663C12.3853 8.13524 12.3036 8.17934 12.2145 8.18936C12.1681 8.19459 12.1211 8.19038 12.0764 8.177C12.0316 8.16362 11.99 8.14134 11.9541 8.1115C11.9182 8.08166 11.8886 8.04487 11.8673 8.00333C11.8459 7.9618 11.8332 7.91638 11.8298 7.8698C11.8264 7.82322 11.8325 7.77643 11.8476 7.73224C11.8627 7.68806 11.8866 7.64739 11.9179 7.61266C11.9491 7.57794 11.987 7.54989 12.0294 7.53018C12.0717 7.51047 12.1176 7.49952 12.1643 7.49798Z" fill="white"/>
</g>
<defs>
<clipPath id="clip0_1265_21355">
<rect width="24" height="24" fill="white"/>
</clipPath>
</defs>
</svg>
