<svg viewBox="0 0 24 24" fill="none" xmlns="http://www.w3.org/2000/svg">
<g clip-path="url(#clip0_1265_21351)">
<path d="M12 24C18.6274 24 24 18.6274 24 12C24 5.37258 18.6274 0 12 0C5.37258 0 0 5.37258 0 12C0 18.6274 5.37258 24 12 24Z" fill="#EEEEEE"/>
<path d="M13.8002 7.95555V5.86111L12 5.5V7.59444L10.1998 7.16111V9.25555L8.39966 8.82223V15.5389L10.1998 15.9722V18.0667L12 18.5V16.4056L13.8002 16.8389V14.7444L15.6004 15.1778V8.46112L13.8002 7.95555ZM12.3601 15.1056L9.8398 14.5278V10.5556L12.3601 11.1333V15.1056Z" fill="#232C45"/>
</g>
<defs>
<clipPath id="clip0_1265_21351">
<rect width="24" height="24" fill="white"/>
</clipPath>
</defs>
</svg>