<svg width="24" height="24" viewBox="0 0 24 24" fill="none" xmlns="http://www.w3.org/2000/svg">
<g clip-path="url(#clip0_1265_21347)">
<path d="M12 24C18.6274 24 24 18.6274 24 12C24 5.37258 18.6274 0 12 0C5.37258 0 0 5.37258 0 12C0 18.6274 5.37258 24 12 24Z" fill="#00316D"/>
<path d="M13.2739 15.1831C13.2662 15.1689 13.265 15.163 13.2621 15.1613C12.8957 14.9881 12.5293 14.8144 12.1618 14.6436C12.1423 14.6342 12.1027 14.6365 12.0903 14.6501C11.9307 14.8215 11.7747 14.997 11.6164 15.1725C11.731 15.257 13.1782 15.2576 13.2739 15.1831ZM9.92107 10.9505L9.88443 10.8736C9.8537 10.8955 9.81352 10.9115 9.79343 10.941C9.45492 11.4446 9.11849 11.9497 8.78416 12.4561C8.76348 12.488 8.76466 12.5347 8.75462 12.5743C8.79598 12.566 8.84207 12.5678 8.87575 12.5471C9.1628 12.3745 9.44725 12.1976 9.72902 12.0165C9.77855 11.9815 9.81264 11.9288 9.82416 11.8693C9.86198 11.5739 9.88798 11.2766 9.92107 10.9505ZM17.0102 15.2345H17.4983C17.5922 15.2345 17.6283 15.1991 17.5686 15.1087C17.2584 14.6348 16.9493 14.1603 16.6379 13.6881C16.6214 13.6621 16.5836 13.6509 16.5552 13.6332C16.5404 13.6627 16.515 13.6923 16.5121 13.7236C16.476 14.1857 16.4435 14.6478 16.4081 15.1099C16.4016 15.1979 16.4323 15.2375 16.5221 15.2357C16.6846 15.2322 16.8471 15.2345 17.0102 15.2345ZM6.53103 15.1991C6.60548 15.2168 6.64212 15.2334 6.67817 15.2339C7.20585 15.2351 7.73353 15.2339 8.26062 15.2351C8.36284 15.2351 8.38884 15.1991 8.34571 15.1004C8.18017 14.725 8.01825 14.348 7.85998 13.9694C7.81389 13.8589 7.77135 13.8642 7.69866 13.9422C7.41739 14.2459 7.13376 14.5467 6.8513 14.8487C6.75262 14.955 6.6563 15.0614 6.53103 15.1991ZM14.3281 12.4732C14.3623 12.54 14.3736 12.569 14.3907 12.5938L15.1045 13.6302C15.3994 14.0586 15.6936 14.487 15.9909 14.9137C16.011 14.9432 16.05 14.9592 16.0795 14.981C16.0949 14.9456 16.1197 14.9119 16.1244 14.8753C16.1362 14.7748 16.1386 14.6744 16.1451 14.5739C16.177 14.1159 16.2125 13.6586 16.2396 13.2012C16.2515 13.0062 16.167 12.9058 15.982 12.8597C15.4886 12.7362 14.9952 12.6121 14.5012 12.4898C14.4569 12.4791 14.4102 12.4809 14.3281 12.4732ZM14.2028 9.43891L14.1579 9.4466C14.152 9.537 14.1431 9.628 14.1401 9.71959L14.0746 11.9479C14.0716 12.0295 14.0958 12.072 14.1803 12.0921C14.6921 12.2162 15.2026 12.3468 15.7143 12.4726C15.7586 12.4833 15.8077 12.4732 15.8544 12.4726C15.8426 12.4271 15.8402 12.3757 15.8183 12.3355C15.3084 11.4078 14.7972 10.4801 14.2849 9.55355C14.2625 9.51278 14.2306 9.47673 14.2028 9.43891ZM11.9071 13.993C11.9213 13.9144 11.9349 13.8672 11.9367 13.8199C11.9443 13.5723 11.9449 13.3247 11.9562 13.0771C11.9668 12.8885 11.9107 12.7021 11.7978 12.5506C11.3286 11.8996 10.8608 11.2477 10.3944 10.5947C10.3731 10.5652 10.3642 10.5268 10.3495 10.4925L10.2939 10.5256C10.2803 10.5752 10.2591 10.6243 10.2537 10.6745C10.2124 11.0763 10.1769 11.4781 10.1326 11.8788C10.1259 11.9209 10.1291 11.9641 10.1422 12.0047C10.1552 12.0454 10.1777 12.0824 10.2077 12.1128C10.7365 12.7019 11.2618 13.2946 11.7895 13.8855C11.8179 13.9174 11.8522 13.9434 11.9071 13.993ZM12.2481 13.8695L12.2835 13.8932C12.316 13.8678 12.3544 13.8477 12.3804 13.8164C12.8297 13.2709 13.2774 12.7241 13.7236 12.176C13.7509 12.1413 13.767 12.099 13.7696 12.0549C13.7909 11.3251 13.8092 10.5953 13.8258 9.86555C13.827 9.82537 13.8039 9.78459 13.7915 9.74441C13.759 9.77573 13.7135 9.80114 13.6952 9.83896C13.2816 10.7147 12.8862 11.5993 12.4525 12.4638C12.2232 12.9211 12.2599 13.3933 12.2481 13.8701V13.8695ZM10.1781 15.2351C10.4623 15.2351 10.7472 15.2393 11.0314 15.2316C11.0963 15.2285 11.1579 15.2023 11.2051 15.1577C11.4031 14.9503 11.5886 14.7305 11.786 14.5225C11.8598 14.4457 11.8433 14.3984 11.7807 14.3299C11.4472 13.9682 11.1166 13.6038 10.7891 13.2367C10.7099 13.148 10.6644 13.1486 10.5935 13.2455C10.1438 13.8607 9.68943 14.4717 9.23739 15.0856C9.21493 15.1164 9.20666 15.1571 9.1913 15.1932C9.23089 15.2074 9.27048 15.2328 9.31066 15.2328C9.6002 15.2363 9.88857 15.2351 10.1781 15.2351ZM10.4724 12.8916C10.3152 12.709 10.161 12.537 10.015 12.3568C9.95357 12.2818 9.9063 12.2741 9.82357 12.3255C9.32957 12.6363 8.83025 12.9389 8.33744 13.2515C8.24821 13.3082 8.17789 13.3962 8.10225 13.4736C8.03194 13.5457 8.04139 13.6249 8.0798 13.7135C8.27184 14.1526 8.45916 14.5934 8.64884 15.0336C8.72093 15.1991 8.74812 15.202 8.85862 15.0543C9.15112 14.6643 9.44243 14.2725 9.73375 13.8819L10.4724 12.8916ZM13.8967 12.426C13.8583 12.488 13.84 12.5258 13.814 12.5565C13.346 13.1274 12.8774 13.6982 12.4058 14.2666C12.329 14.3594 12.3686 14.396 12.4555 14.4356C12.9973 14.6838 13.5368 14.9361 14.0799 15.1831C14.1494 15.2145 14.2246 15.2313 14.3009 15.2328C14.7476 15.2369 15.1949 15.2357 15.6422 15.2334C15.6836 15.2334 15.7256 15.2144 15.7675 15.2038C15.7527 15.1601 15.7462 15.1099 15.7202 15.0726C15.308 14.4706 14.8946 13.8695 14.4799 13.2692C14.2967 13.0033 14.1124 12.7374 13.8967 12.426ZM11.9957 15.8396C9.96184 15.8396 7.92794 15.839 5.89403 15.8408C5.73567 15.8408 5.59267 15.8231 5.52412 15.6529C5.45912 15.4916 5.53476 15.3722 5.64053 15.2594C6.24799 14.6105 6.86371 13.9688 7.45462 13.3058C7.68035 13.0529 7.85466 12.7521 8.04553 12.4679C8.65712 11.5532 9.26398 10.6349 9.87852 9.72255C9.9388 9.63332 10.031 9.54291 10.1279 9.50746C10.2614 9.45782 10.3755 9.53464 10.4606 9.65637C10.9552 10.3631 11.4533 11.0675 11.9502 11.773C12.0525 11.9172 12.0891 11.9125 12.1647 11.7482L13.6976 8.40955C13.7578 8.27837 13.8376 8.16669 13.993 8.1596C14.1555 8.15192 14.2542 8.2506 14.3304 8.39005C15.0998 9.78578 15.8514 11.1933 16.6509 12.5713C17.1343 13.4045 17.6939 14.191 18.2192 14.9988C18.2842 15.098 18.3498 15.1967 18.4136 15.2972C18.4904 15.4183 18.5359 15.5513 18.4638 15.6854C18.3929 15.8154 18.2617 15.8402 18.124 15.8402C16.0813 15.839 14.0385 15.8396 11.9957 15.8396Z" fill="white"/>
</g>
<defs>
<clipPath id="clip0_1265_21347">
<rect width="24" height="24" fill="white"/>
</clipPath>
</defs>
</svg>
