<svg viewBox="0 0 24 24" fill="none" xmlns="http://www.w3.org/2000/svg">
<g clip-path="url(#clip0_1265_21343)">
<path d="M12 24C18.6274 24 24 18.6274 24 12C24 5.37258 18.6274 0 12 0C5.37258 0 0 5.37258 0 12C0 18.6274 5.37258 24 12 24Z" fill="#1AAB9B"/>
<path d="M6.09115 15.59V9.95573L10.364 13.1717V15.59H11.4551V12.9455C11.455 12.8469 11.432 12.7496 11.3879 12.6613C11.3438 12.5731 11.2798 12.4963 11.2009 12.4371L6.01901 8.53682C5.92453 8.46584 5.81217 8.42256 5.69449 8.41182C5.57681 8.40107 5.45846 8.4233 5.3527 8.476C5.24693 8.5287 5.15792 8.6098 5.09563 8.71022C5.03334 8.81063 5.00023 8.92641 5 9.04457V15.59H6.09115ZM17.9089 15.59V9.95573L13.636 13.1717V15.59H12.5449V12.9455C12.5449 12.7452 12.6387 12.5568 12.7984 12.4371L17.981 8.53682C18.0755 8.46581 18.1879 8.42252 18.3057 8.4118C18.4234 8.40109 18.5418 8.42337 18.6476 8.47616C18.7534 8.52894 18.8424 8.61014 18.9046 8.71066C18.9669 8.81118 18.9999 8.92705 19 9.04527V15.5907H17.9089V15.59Z" fill="white"/>
</g>
<defs>
<clipPath id="clip0_1265_21343">
<rect width="24" height="24" fill="white"/>
</clipPath>
</defs>
</svg>