<svg width="24" height="24" viewBox="0 0 24 24" fill="none" xmlns="http://www.w3.org/2000/svg">
<g clip-path="url(#clip0_1265_21339)">
<path d="M12 24C18.6274 24 24 18.6274 24 12C24 5.37258 18.6274 0 12 0C5.37258 0 0 5.37258 0 12C0 18.6274 5.37258 24 12 24Z" fill="#0B1529"/>
<path fill-rule="evenodd" clip-rule="evenodd" d="M7.83269 14.0483L10.8125 15.796V16.7733L6.91309 14.4785V8.49283L12 5.5L17.087 8.49283V14.4785L13.1876 16.7733V15.7954L16.1668 14.0483L15.3981 13.6041L15.4987 13.4294L16.2578 13.868V9.42996L12.403 11.7146V18.2485L12 18.5L11.5965 18.2485V11.7146L7.74226 9.42996V13.8675L8.50078 13.4294L8.60139 13.6047L7.83269 14.0483ZM11.8881 6.5253L8.14526 8.72117L12 11.0063L15.8548 8.72117L12.0899 6.5123V7.41891H11.8881V6.5253ZM11.8881 7.99035H12.0899V8.92691H11.8881V7.99035ZM11.8881 9.49835H12.0899V10.4349L11.9887 10.4807L11.8881 10.4355V9.49835ZM15.0307 13.144L14.9301 13.3192L14.1185 12.8501L14.2197 12.6754L15.0307 13.1446V13.144ZM13.7505 12.39L13.6493 12.5652L12.8383 12.0961L12.8496 11.9864L12.9389 11.922L13.7505 12.39ZM8.96878 13.144L9.77987 12.6754L9.88104 12.8507L9.06996 13.3187L8.96878 13.144ZM10.2496 12.39L11.0607 11.922L11.1511 11.9864L11.1613 12.0967L10.3502 12.5647L10.2496 12.39Z" fill="white"/>
</g>
<defs>
<clipPath id="clip0_1265_21339">
<rect width="24" height="24" fill="white"/>
</clipPath>
</defs>
</svg>
