<svg width="24" height="24" viewBox="0 0 24 24" fill="none" xmlns="http://www.w3.org/2000/svg">
<g clip-path="url(#clip0_1265_21335)">
<path d="M12 24C18.6274 24 24 18.6274 24 12C24 5.37258 18.6274 0 12 0C5.37258 0 0 5.37258 0 12C0 18.6274 5.37258 24 12 24Z" fill="#00ADEF"/>
<path fill-rule="evenodd" clip-rule="evenodd" d="M11.3281 18.4917C8.05273 18.1484 5.5 15.3729 5.5 12C5.5 8.62709 8.05273 5.85159 11.3281 5.50827V7.49964C10.2536 7.66526 9.27391 8.21017 8.56643 9.03569C7.85894 9.86122 7.47044 10.9128 7.47127 12C7.47044 13.0872 7.85894 14.1388 8.56643 14.9643C9.27391 15.7898 10.2536 16.3347 11.3281 16.5004V18.4917ZM12.6134 5.5C15.7038 5.78305 18.1697 8.22823 18.4917 11.3128H16.5045C16.3567 10.3402 15.8976 9.44167 15.196 8.75196C14.4945 8.06226 13.5883 7.61851 12.6134 7.48723V5.5ZM18.5 12.601C18.2152 15.7269 15.7322 18.2146 12.6134 18.5V16.5128C13.6031 16.3795 14.5216 15.9243 15.2271 15.2174C15.9325 14.5104 16.3858 13.591 16.5169 12.601H18.5Z" fill="white"/>
</g>
<defs>
<clipPath id="clip0_1265_21335">
<rect width="24" height="24" fill="white"/>
</clipPath>
</defs>
</svg>
