<svg width="24" height="24" viewBox="0 0 24 24" fill="none" xmlns="http://www.w3.org/2000/svg">
<g clip-path="url(#clip0_1265_21331)">
<path d="M12 24C18.6274 24 24 18.6274 24 12C24 5.37258 18.6274 0 12 0C5.37258 0 0 5.37258 0 12C0 18.6274 5.37258 24 12 24Z" fill="#7F368A"/>
<path d="M18.4931 16.1239C18.5372 16.3024 18.3595 16.3913 18.2258 16.3472H16.0015C15.8678 16.3472 15.7789 16.3024 15.6893 16.2576C15.5563 16.2128 15.4674 16.035 15.4226 15.8566V15.8118L13.3313 8.09923C13.2872 8.09923 13.1535 8.23291 13.1087 8.23291C13.0646 8.27701 12.9751 8.3218 12.931 8.27701C12.8421 8.23291 12.7973 8.09923 12.8421 8.00966C12.9303 7.78709 13.1535 7.65273 13.3761 7.60863C13.6428 7.56384 13.8653 7.56384 14.132 7.56384H15.7789C15.9119 7.56384 16.0456 7.56384 16.1792 7.60863C16.3129 7.69752 16.357 7.87598 16.4018 8.00966C16.49 8.3218 16.5348 8.63394 16.6244 8.94608L17.6918 12.9591L18.0921 14.5639C18.2258 15.0545 18.4042 15.5899 18.4925 16.1246L18.4931 16.1239ZM13.3313 16.1239C13.3761 16.3024 13.1976 16.3913 13.0646 16.3472H10.8396C10.7059 16.3472 10.617 16.3024 10.5275 16.2576C10.3945 16.2128 10.3056 16.035 10.2608 15.8566V15.8118L8.17015 8.09923C8.12536 8.09923 7.99169 8.23291 7.94758 8.23291C7.90279 8.27701 7.8139 8.3218 7.76912 8.27701C7.6809 8.23291 7.63612 8.09923 7.6809 8.00966C7.76912 7.78709 7.99169 7.65273 8.21425 7.60863C8.48161 7.56384 8.7035 7.56384 8.97085 7.56384H10.617C10.7507 7.56384 10.8844 7.56384 11.0174 7.60863C11.1511 7.69752 11.1959 7.87598 11.24 8.00966C11.3289 8.3218 11.3736 8.63394 11.4625 8.94608L12.5306 12.9591L12.931 14.5639C13.0646 15.0545 13.2424 15.5899 13.3313 16.1246V16.1239ZM9.23753 14.4295L8.7035 16.1239C8.67888 16.2119 8.62672 16.2897 8.55467 16.3459C8.48262 16.402 8.39447 16.4336 8.30315 16.4361H5.94514C5.82707 16.4357 5.71396 16.3886 5.63053 16.305C5.54711 16.2215 5.50018 16.1083 5.5 15.9902V15.9007L7.36876 8.85651C7.41355 8.76694 7.50244 8.67804 7.59133 8.67804C7.72501 8.67804 7.8139 8.76694 7.8139 8.85651L9.23753 14.4295ZM14.4883 14.2959L14.1768 15.2323C14.132 15.3212 14.0879 15.366 13.999 15.366C13.9101 15.366 13.8653 15.3212 13.8205 15.2323L12.2632 9.79225L12.5754 8.67804C12.5754 8.58847 12.6636 8.54437 12.7532 8.54437C12.8414 8.54437 12.931 8.58847 12.931 8.67804L14.4883 14.2959Z" fill="white"/>
</g>
<defs>
<clipPath id="clip0_1265_21331">
<rect width="24" height="24" fill="white"/>
</clipPath>
</defs>
</svg>
