<svg width="24" height="24" viewBox="0 0 24 24" fill="none" xmlns="http://www.w3.org/2000/svg">
<path fill-rule="evenodd" clip-rule="evenodd" d="M19.5313 10.4775C19.1768 10.77 18.652 10.7217 18.3587 10.3667C17.4634 9.28583 16.1785 8.66667 14.8331 8.66667C13.4903 8.66667 12.2053 9.2875 11.3084 10.3708C11.1433 10.57 10.9061 10.6725 10.6663 10.6725C10.4794 10.6725 10.2908 10.61 10.1349 10.4817C9.78119 10.1875 9.73089 9.6625 10.0251 9.3075C11.2397 7.84167 12.9924 7 14.8331 7C16.6764 7 18.4291 7.84 19.642 9.30417C19.9354 9.65833 19.8859 10.1833 19.5313 10.4775ZM8.16677 5.33333C8.16677 4.87333 8.53978 4.5 8.99996 4.5H10.6663C11.1265 4.5 11.4995 4.87333 11.4995 5.33333C11.4995 5.79417 11.1265 6.16667 10.6663 6.16667H8.99996C8.53978 6.16667 8.16677 5.79417 8.16677 5.33333ZM9.85834 17.0558C10.3185 17.0558 10.6915 17.4275 10.6915 17.8883C10.6915 18.3492 10.3185 18.7217 9.85834 18.7217C9.39815 18.7217 9.02096 18.3492 9.02096 17.8883C9.02096 17.4275 9.38977 17.0558 9.84995 17.0558H9.85834ZM14.8331 6.16667C14.3729 6.16667 13.9999 5.79417 13.9999 5.33333V4.08333C13.9999 3.94 13.6755 3.66667 13.1667 3.66667H6.49956C6.04022 3.66667 5.66638 4.04 5.66638 4.5V19.5C5.66638 19.96 6.04022 20.3333 6.49956 20.3333H13.1667C13.6755 20.3333 13.9999 20.06 13.9999 19.9167V18.6667C13.9999 18.2058 14.3729 17.8333 14.8331 17.8333C15.2933 17.8333 15.6671 18.2058 15.6671 18.6667V19.9167C15.6671 21.0658 14.5456 22 13.1667 22H6.49956C5.12153 22 4 20.8783 4 19.5V4.5C4 3.12167 5.12153 2 6.49956 2H13.1667C14.5456 2 15.6671 2.93417 15.6671 4.08333V5.33333C15.6671 5.79417 15.2933 6.16667 14.8331 6.16667ZM13.1668 15.3333C13.1668 14.415 13.9145 13.6667 14.8331 13.6667C15.7527 13.6667 16.5004 14.415 16.5004 15.3333C16.5004 16.2517 15.7527 17 14.8331 17C13.9145 17 13.1668 16.2517 13.1668 15.3333ZM14.8331 12C14.129 12 13.4676 12.4392 13.0644 13.175C12.8423 13.5792 12.336 13.7267 11.932 13.5058C11.5297 13.2842 11.3813 12.7783 11.6026 12.3742C12.3033 11.0958 13.5112 10.3333 14.8331 10.3333C16.1566 10.3333 17.3645 11.0967 18.0644 12.3742C18.2857 12.7783 18.1373 13.285 17.7333 13.5058C17.6067 13.5758 17.4693 13.6083 17.3343 13.6083C17.0393 13.6083 16.7543 13.4517 16.6026 13.175C16.1994 12.4392 15.5389 12 14.8331 12Z" fill="#6B7084"/>
</svg>
