<svg width="24" height="24" viewBox="0 0 24 24" fill="none" xmlns="http://www.w3.org/2000/svg">
<g clip-path="url(#clip0_1265_21317)">
<path d="M12 24C18.6274 24 24 18.6274 24 12C24 5.37258 18.6274 0 12 0C5.37258 0 0 5.37258 0 12C0 18.6274 5.37258 24 12 24Z" fill="#CEA85C"/>
<path d="M16.8979 10.3193L15.9714 6.14893L14.1528 9.01889C12.739 8.67752 11.2643 8.67752 9.85046 9.01889L8.03706 6.14893L7.10728 10.3193C6.10923 11.1177 5.5 12.1613 5.5 13.3069C5.5 15.8167 8.41027 17.8511 12 17.8511C15.5897 17.8511 18.5 15.816 18.5 13.3069C18.4993 12.1613 17.8953 11.1177 16.8973 10.3193H16.8979ZM8.38817 12.2283H7.95514L9.013 11.0085H9.78284L8.38817 12.2283ZM11.9668 15.2087L10.1684 12.041L10.6125 11.7874L11.0137 12.4929H12.9779L13.3966 11.7842L13.8362 12.0455L11.9668 15.2087ZM15.6164 12.2283L14.2211 11.0085H14.9961L16.0527 12.2283H15.6164ZM11.9753 14.1886L11.3036 13.0052H12.6743L11.9753 14.1886Z" fill="white"/>
</g>
<defs>
<clipPath id="clip0_1265_21317">
<rect width="24" height="24" fill="white"/>
</clipPath>
</defs>
</svg>
