<svg width="24" height="24" viewBox="0 0 24 24" fill="none" xmlns="http://www.w3.org/2000/svg">
<path fill-rule="evenodd" clip-rule="evenodd" d="M21.1674 19.5025V21.1675C21.1674 21.627 20.7949 22 20.334 22H12.8347C12.3746 22 12.0013 21.627 12.0013 21.1675V18.67C12.0013 18.2105 12.3746 17.8375 12.8347 17.8375V17.005H12.0013C11.5412 17.005 11.1687 16.632 11.1687 16.1725V13.675C11.1687 13.2154 11.5412 12.8425 12.0013 12.8425H19.5005C19.9614 12.8425 20.334 13.2154 20.334 13.675V15.34H21.1674C21.6275 15.34 22 15.713 22 16.1725V18.67C22 19.1295 21.6275 19.5025 21.1674 19.5025ZM13.6681 20.335H19.5005V19.5025H13.6681V20.335ZM18.6671 14.5075H12.8347V15.34H13.6681H18.6671V14.5075ZM20.3339 17.005H19.5005H14.5016V17.8375H20.3339V17.005ZM16.2226 11.5055C15.1425 10.0436 13.8398 9.06876 13.3289 8.62754H8.12493C6.69559 9.85548 3.66271 12.7792 3.66271 15.3025C3.66271 18.5102 5.43126 20.335 8.66917 20.335H9.5026C9.96183 20.335 10.336 20.7155 10.336 21.1675C10.336 21.6195 9.96183 22 9.5026 22H8.66917C4.50115 22 2 19.4259 2 15.3025C2 12.0408 5.40209 8.79154 6.75143 7.62604C6.12552 6.58375 5.12289 4.64069 5.38459 3.33616C5.4821 2.84832 5.74463 2.45455 6.14052 2.1973C7.0473 1.61205 7.82489 2.54362 8.29245 3.09973C8.35996 3.17882 8.44664 3.28288 8.53248 3.37945C8.53582 3.37363 8.53915 3.3678 8.54248 3.36197C8.83085 2.85664 9.31341 2.00916 10.3302 2.00916C11.2287 2.00916 11.6879 2.44289 11.9621 2.70263C11.9954 2.73343 12.0254 2.7659 12.0579 2.79337C12.363 2.78255 12.4888 2.69764 12.7272 2.53863C13.0672 2.31219 13.5323 2 14.3965 2C15.0683 2 15.6367 2.41375 15.9167 3.10556C16.3576 4.19614 16.0859 6.10589 14.8291 7.69431C15.5134 8.25541 16.6077 9.24359 17.5669 10.5423C17.837 10.9086 17.7553 11.4197 17.3836 11.6853C17.0119 11.9525 16.4918 11.871 16.2226 11.5055ZM14.3357 3.63836C14.0273 3.64835 13.9006 3.73327 13.6614 3.89311C13.3214 4.12038 12.8563 4.43173 11.9921 4.43173C11.392 4.43173 11.0286 4.08874 10.8119 3.88395C10.6194 3.70163 10.5602 3.64585 10.3302 3.64585C10.261 3.69164 10.086 3.99883 9.99182 4.16367C9.74596 4.59657 9.37258 5.25008 8.61582 5.25008C7.95657 5.25008 7.48984 4.71229 7.04145 4.17865C7.20147 4.94955 7.78655 6.14835 8.31078 6.99084H13.2306C14.1073 6.05594 14.4532 4.93873 14.4549 4.24525C14.4557 3.90143 14.3799 3.71079 14.3357 3.63836Z" fill="#6B7084"/>
</svg>
