<svg viewBox="0 0 24 24" fill="none" xmlns="http://www.w3.org/2000/svg">
<path fill-rule="evenodd" clip-rule="evenodd" d="M20.5 15.5417C20.5 19.6577 18.842 22 14.6711 22H9.67206C5.50119 22 3 19.6577 3 15.5417C3 12.2277 6.521 8.78747 7.81908 7.63045C7.20087 6.64882 6.11524 4.68473 6.38685 3.33405C6.48517 2.84615 6.74679 2.453 7.14338 2.19699C8.05154 1.61267 8.82972 2.54276 9.2963 3.09717C9.36295 3.17696 9.45044 3.28086 9.53625 3.37728C9.53959 3.37063 9.54292 3.36481 9.54625 3.35982C9.83536 2.85446 10.3186 2.00914 11.3342 2.00914C12.2349 2.00914 12.694 2.44302 12.9689 2.70069C13.0014 2.73227 13.0314 2.76386 13.0639 2.79129C13.368 2.78048 13.4955 2.6957 13.7338 2.53695C14.0746 2.31003 14.5395 2 15.4043 2C16.0767 2 16.6449 2.41227 16.9248 3.10298C17.3781 4.21927 17.079 6.11437 15.7376 7.70609C17.114 8.93957 20.5 12.3042 20.5 15.5417ZM15.3435 3.63577C15.0352 3.64492 14.9086 3.7297 14.6686 3.88929C14.3287 4.1162 13.8629 4.42706 12.9981 4.42706C12.3974 4.42706 12.0349 4.08545 11.8175 3.88097C11.6242 3.69894 11.5659 3.64409 11.3342 3.64409C11.2659 3.68897 11.0909 3.99568 10.9968 4.16025C10.7493 4.59164 10.3761 5.24412 9.61873 5.24412C8.96052 5.24412 8.49311 4.708 8.04486 4.17604C8.21483 4.99227 8.86304 6.20746 9.40877 7.03449H14.1112C15.0993 6.07863 15.4609 4.97149 15.4626 4.24171C15.4643 3.8976 15.3876 3.70809 15.3435 3.63577ZM14.3395 8.66944H9.12883C7.6991 9.89544 4.66384 13.0224 4.66384 15.5417C4.66384 18.7442 6.43184 20.3376 9.67206 20.3376H14.6711C17.9113 20.3376 18.8361 18.7442 18.8361 15.5417C18.8361 13.0224 15.7784 9.89378 14.3395 8.66944ZM11.7333 13.728C12.8806 13.728 13.8129 14.6448 13.8129 15.7711C13.8129 16.6073 13.298 17.3254 12.5648 17.6413V17.8141C12.5648 18.2655 12.1932 18.632 11.7333 18.632C11.2734 18.632 10.9018 18.2655 10.9018 17.8141H10.4861C10.0262 17.8141 9.65372 17.4484 9.65372 16.9971C9.65372 16.5458 10.0262 16.18 10.4861 16.18H11.7333C11.9624 16.18 12.1491 15.9963 12.1491 15.7711C12.1491 15.5458 11.9624 15.363 11.7333 15.363C10.5869 15.363 9.65372 14.4462 9.65372 13.3199C9.65372 12.4838 10.1686 11.7656 10.9018 11.4498V11.276C10.9018 10.8247 11.2734 10.459 11.7333 10.459C12.1932 10.459 12.5648 10.8247 12.5648 11.276H12.9814C13.4405 11.276 13.8129 11.6426 13.8129 12.0939C13.8129 12.5453 13.4405 12.911 12.9814 12.911H11.7333C11.5042 12.911 11.3176 13.0947 11.3176 13.3199C11.3176 13.5452 11.5042 13.728 11.7333 13.728Z" fill="currentColor"/>
</svg>