<svg width="24" height="24" viewBox="0 0 24 24" fill="none" xmlns="http://www.w3.org/2000/svg">
<path fill-rule="evenodd" clip-rule="evenodd" d="M20.3333 17.3333H12.8333V19H15.3625C15.8225 19 16.1958 19.3725 16.1958 19.8333C16.1958 20.2942 15.8225 20.6667 15.3625 20.6667H8.69583C8.23583 20.6667 7.8625 20.2942 7.8625 19.8333C7.8625 19.3725 8.23583 19 8.69583 19H11.1667V17.3333H3.66667C2.7475 17.3333 2 16.5858 2 15.6667V5.66667C2 4.74833 2.7475 4 3.66667 4H20.3333C21.2525 4 22 4.74833 22 5.66667V15.6667C22 16.5858 21.2525 17.3333 20.3333 17.3333ZM3.66667 5.66667V15.6667H20.3308L20.3333 5.66667H3.66667Z" fill="#6B7084"/>
</svg>
