<svg viewBox="0 0 24 24" fill="none" xmlns="http://www.w3.org/2000/svg">
<path fill-rule="evenodd" clip-rule="evenodd" d="M11.8333 22C8.61667 22 6 19.4325 6 16.2775V7.7225C6 4.5675 8.61667 2 11.8333 2C15.05 2 17.6667 4.5675 17.6667 7.7225V16.2775C17.6667 19.4325 15.05 22 11.8333 22ZM16 7.7225C16 5.48667 14.1308 3.66667 11.8333 3.66667C9.53583 3.66667 7.66667 5.48667 7.66667 7.7225V16.2775C7.66667 18.5133 9.53583 20.3333 11.8333 20.3333C14.1308 20.3333 16 18.5133 16 16.2775V7.7225ZM14.0892 10.0892L12.4233 11.755C12.3458 11.8325 12.2542 11.8933 12.1517 11.9358C12.05 11.9783 11.9417 12 11.8333 12C11.725 12 11.6167 11.9783 11.515 11.9358C11.4125 11.8933 11.32 11.8325 11.2433 11.755L9.5775 10.0892C9.25167 9.76417 9.25167 9.23667 9.5775 8.91083C9.90334 8.58583 10.43 8.58583 10.7558 8.91083L11 9.155V6.16667C11 5.70583 11.3733 5.33333 11.8333 5.33333C12.2933 5.33333 12.6667 5.70583 12.6667 6.16667V9.155L12.9108 8.91083C13.2367 8.58583 13.7633 8.58583 14.0892 8.91083C14.415 9.23667 14.415 9.76417 14.0892 10.0892Z" fill="currentColor"/>
</svg>