<svg width="24" height="24" viewBox="0 0 24 24" fill="none" xmlns="http://www.w3.org/2000/svg">
<g clip-path="url(#clip0_1265_21311)">
<path d="M12 24C18.6274 24 24 18.6274 24 12C24 5.37258 18.6274 0 12 0C5.37258 0 0 5.37258 0 12C0 18.6274 5.37258 24 12 24Z" fill="#47B95C"/>
<path fill-rule="evenodd" clip-rule="evenodd" d="M5.5 12C5.5 8.41202 8.41303 5.5 12.0023 5.5C15.5916 5.5 18.5046 8.41202 18.5 12C18.5 12.0585 18.4962 12.1152 18.4922 12.1726C18.4904 12.2 18.4885 12.2275 18.487 12.2555H15.4355L13.9614 9.72048L12.0023 12.533L10.0386 9.72048L8.56453 12.2555H5.513C5.51153 12.2275 5.50965 12.2 5.50778 12.1726C5.50387 12.1152 5.5 12.0585 5.5 12ZM12.0023 7.48901C14.3126 7.48901 16.2203 9.23102 16.4843 11.4716H17.2737C17.0045 8.79747 14.7463 6.70446 12.0023 6.70446C9.25832 6.70446 6.99553 8.79747 6.73088 11.4716H7.52026C7.78425 9.23557 9.69203 7.48901 12.0023 7.48901ZM12.0022 13.9064L13.9054 11.1764L14.9887 13.0354H18.4134C17.9147 16.134 15.2403 18.5 12.0022 18.5C8.76402 18.5 6.08963 16.134 5.59091 13.04H9.01566L10.0989 11.1764L12.0022 13.9064ZM16.9699 13.82H16.1292C15.4269 15.4014 13.8443 16.511 12.0022 16.511C10.1601 16.511 8.57741 15.4014 7.87516 13.82H7.03442C7.78023 15.8434 9.72181 17.2955 12.0022 17.2955C14.2825 17.2955 16.2241 15.8434 16.9699 13.82Z" fill="white"/>
</g>
<defs>
<clipPath id="clip0_1265_21311">
<rect width="24" height="24" fill="white"/>
</clipPath>
</defs>
</svg>
