<svg width="24" height="24" viewBox="0 0 24 24" fill="none" xmlns="http://www.w3.org/2000/svg">
<g clip-path="url(#clip0_1265_21303)">
<path d="M12 24C18.6274 24 24 18.6274 24 12C24 5.37258 18.6274 0 12 0C5.37258 0 0 5.37258 0 12C0 18.6274 5.37258 24 12 24Z" fill="#104FCA"/>
<path d="M6 7.37573L8.82267 12.1111V16.9971C7.264 16.9971 6 15.7731 6 14.2631V7.37573Z" fill="white" fill-opacity="0.5"/>
<path d="M15.1768 12.1058L17.9981 7.37317H17.9994V14.2638C18.0001 15.7732 16.7361 16.9972 15.1768 16.9972V12.1058Z" fill="white" fill-opacity="0.6"/>
<path d="M11.998 11.9692L10.5867 14.3372C10.294 14.2639 9.97933 13.9799 9.64267 13.4859L6 7.3759C7.35 6.62057 9.07667 7.06924 9.856 8.3759L11.998 11.9692Z" fill="white" fill-opacity="0.8"/>
<path d="M14.1438 8.37046C14.9231 7.06247 16.6498 6.61447 17.9998 7.3698L14.3571 13.4798C14.094 13.8612 13.7417 14.1726 13.3309 14.3868C12.92 14.601 12.4631 14.7117 11.9998 14.7091C11.561 14.71 11.1278 14.6108 10.7331 14.4191L10.5864 14.3371L14.1438 8.37046Z" fill="white"/>
</g>
<defs>
<clipPath id="clip0_1265_21303">
<rect width="24" height="24" fill="white"/>
</clipPath>
</defs>
</svg>
