<svg viewBox="0 0 24 24" fill="none" xmlns="http://www.w3.org/2000/svg">
<path fill-rule="evenodd" clip-rule="evenodd" d="M12 2C17.5217 2 22 6.4633 22 11.975H12V2Z" fill="#FF00FF"/>
<path fill-rule="evenodd" clip-rule="evenodd" d="M12 21.9501C17.5217 21.9501 22 17.4868 22 11.9751H12V21.9501Z" fill="#FFFF66"/>
<path fill-rule="evenodd" clip-rule="evenodd" d="M12 17.4817C15.0404 17.4817 17.5217 15.0055 17.5217 11.975C17.5217 8.93955 15.0404 6.46826 12 6.46826C8.95955 6.46826 6.47827 8.93955 6.47827 11.975C6.48326 15.0055 8.95955 17.4817 12 17.4817Z" fill="#AD8A60"/>
<path fill-rule="evenodd" clip-rule="evenodd" d="M16.4333 15.2551C16.3185 15.4048 16.1986 15.5446 16.0788 15.6844C15.2251 16.618 14.1567 17.1822 12.9136 17.4018V18.62C13.3779 18.66 13.8322 18.7348 14.2765 18.8397C15.4697 19.1143 16.5781 19.6035 17.5666 20.2626L17.6015 20.2376H17.6065C17.8512 20.0678 18.0908 19.8632 18.3404 19.6884L18.3704 19.6684C18.615 19.4588 18.8447 19.2391 19.0843 19.0244C19.4787 18.63 19.8382 18.2006 20.1627 17.7463C19.4887 17.5466 18.6649 17.1822 18.9994 16.3434C19.3439 15.4797 19.993 14.8357 19.1692 14.0119C19.1043 13.957 19.0444 13.9071 18.9795 13.8572C18.3105 13.3579 18.1857 13.288 18.4503 12.4343C18.4702 12.3794 18.4852 12.3295 18.5052 12.2745C18.5501 12.1447 18.5951 12.0299 18.615 11.98H17.4767C17.4817 13.0833 17.1822 14.2166 16.5381 15.1153L16.4333 15.2551Z" fill="#660066"/>
<path fill-rule="evenodd" clip-rule="evenodd" d="M12 21.9501C6.47828 21.9501 2 17.4818 2 11.9751H12V21.9501Z" fill="#99FFFF"/>
<path fill-rule="evenodd" clip-rule="evenodd" d="M12 17.4818C8.94956 17.4818 6.47827 15.0155 6.47827 11.9751H12V17.4818Z" fill="#CF934F"/>
<path fill-rule="evenodd" clip-rule="evenodd" d="M12 21.9501C9.9431 21.9501 8.03097 21.331 6.43835 20.2676C7.42188 19.6086 8.53521 19.1193 9.72842 18.8448C10.1728 18.7399 10.6271 18.67 11.0914 18.6251V16.5432C11.3859 16.5931 11.6905 16.6181 12 16.6181V21.9501Z" fill="#CF934F"/>
<path fill-rule="evenodd" clip-rule="evenodd" d="M12 17.4818C15.0504 17.4818 17.5217 15.0155 17.5217 11.9751H12V17.4818Z" fill="#FFEEDB"/>
<path fill-rule="evenodd" clip-rule="evenodd" d="M12 14.5462C12.1398 14.4513 12.2346 14.3964 12.3944 14.3165C12.4793 14.2766 12.5741 14.2566 12.674 14.2566C12.7838 14.2566 12.8887 14.2816 12.9785 14.3315C13.353 14.5162 13.6925 14.6959 14.0519 14.8956C13.5477 15.4897 12.8837 15.7843 12.005 15.7843L12 14.5462Z" fill="#FF1414"/>
<path d="M12 8.38049C12.4743 8.40546 12.9036 8.1109 12.9985 7.5767C13.0434 8.46037 14.1268 8.8448 14.5012 7.68654C14.4214 8.39048 15.1802 8.67505 15.8692 8.21075C17.0125 9.09442 17.4169 10.4474 17.5217 11.9801H18.6101C18.9396 11.0864 19.7134 10.6721 18.3555 10.048C18.1807 9.96811 18.3055 10.013 18.5602 9.69353C19.344 8.66507 18.8947 8.21075 17.7064 8.27565C17.5866 8.28064 17.7614 8.14585 17.8462 8.01604C18.7549 6.66806 18.5552 5.76941 16.7579 6.21874C16.9725 5.49982 17.357 4.28664 16.1288 4.37151C15.7244 4.39647 15.4099 4.60116 15.0854 4.82083C15.1103 4.01704 15.0654 2.99857 13.9521 3.34305C13.5826 3.46786 13.313 3.73247 13.0534 4.01704C12.9436 3.38798 12.674 2.93866 12 2.86377V8.38049Z" fill="white"/>
<path d="M11.7804 14.2365C11.9102 14.2864 12.005 14.4113 12.005 14.581C12.01 14.7008 11.9601 14.8856 11.6855 15.0803C11.2412 15.3548 10.6021 15.4098 10.2077 15.1651C9.84326 14.9954 9.6186 14.6659 9.75839 14.2016C9.85325 14.0019 10.1178 13.907 10.2976 13.9719C10.4973 14.0468 10.5871 14.2565 10.3425 14.3813C10.4623 14.1417 10.008 13.9919 9.96807 14.4063C9.95809 14.5511 10.1728 14.7557 10.4374 14.7957C10.672 14.8306 10.9067 14.7458 11.1313 14.5161C11.2362 14.4163 11.336 14.3114 11.4708 14.2465C11.5607 14.2116 11.6605 14.2016 11.7804 14.2365Z" fill="black"/>
<path fill-rule="evenodd" clip-rule="evenodd" d="M2 11.975C2 6.4683 6.48327 2 12.005 2V11.975H2Z" fill="#FFFF00"/>
<path fill-rule="evenodd" clip-rule="evenodd" d="M6.48328 11.975C6.48328 8.93456 8.95457 6.46826 12.005 6.46826V11.975H6.48328Z" fill="#EDD491"/>
<path fill-rule="evenodd" clip-rule="evenodd" d="M12 21.9501C14.0569 21.9501 15.969 21.331 17.5617 20.2676C16.5731 19.6086 15.4648 19.1193 14.2716 18.8448C13.8273 18.7399 13.3729 18.67 12.9086 18.6251V16.5432C12.6141 16.5931 12.3095 16.6181 12 16.6181V21.9501Z" fill="#FFEEDB"/>
<path fill-rule="evenodd" clip-rule="evenodd" d="M14.2068 11.0215C14.4514 11.0215 14.6461 10.8218 14.6461 10.5822C14.6461 10.3375 14.4464 10.1428 14.2068 10.1428C13.9621 10.1428 13.7674 10.3425 13.7674 10.5822C13.7624 10.8268 13.9621 11.0215 14.2068 11.0215Z" fill="black"/>
<path fill-rule="evenodd" clip-rule="evenodd" d="M14.5562 18.9045C15.6246 19.1841 16.648 19.6484 17.5667 20.2625C15.9241 21.3559 13.987 21.945 12.005 21.945V20.7917C12.694 20.7917 13.318 20.582 13.7773 20.2475C14.2367 19.908 14.5312 19.4337 14.5562 18.9045Z" fill="#4B9100"/>
<path fill-rule="evenodd" clip-rule="evenodd" d="M9.73343 11.4458C9.52375 11.4458 9.354 11.2761 9.354 11.0664V10.1028C9.354 9.89313 9.52375 9.72339 9.73343 9.72339C9.94312 9.72339 10.1179 9.89313 10.1179 10.1028V11.0664C10.1179 11.2761 9.94312 11.4458 9.73343 11.4458Z" fill="#1A1A1A"/>
<path fill-rule="evenodd" clip-rule="evenodd" d="M7.91118 8.2706C7.26215 8.95458 6.83779 9.83825 6.59316 10.8717C6.19875 10.1977 6.34852 8.36546 6.84778 7.47679C6.47833 7.25213 5.6346 7.14229 4.18677 7.79132C5.43989 6.05892 7.19226 5.96406 8.27064 6.1388C7.89121 5.48977 7.38697 5.17525 6.01403 4.73091C8.2307 3.98703 9.05447 4.48129 10.2177 5.36995C10.1678 4.48129 10.053 4.10186 9.37898 3.03346C10.4673 2.95358 11.361 3.66751 12 4.52622V7.84125C11.4059 7.87619 10.9466 7.46681 10.7419 7.0075C10.5922 7.4069 10.6171 8.12083 10.8068 8.54519C9.89321 8.43036 9.62361 7.75637 9.4339 7.19222C9.00454 7.37694 8.22072 7.94609 7.91118 8.2706Z" fill="#FF0000"/>
<path fill-rule="evenodd" clip-rule="evenodd" d="M9.44884 18.9045C8.37545 19.1841 7.35698 19.6484 6.43835 20.2625C8.08089 21.3559 10.018 21.945 12 21.945H12.005V20.7917H12C11.311 20.7917 10.687 20.582 10.2277 20.2475C9.76337 19.908 9.4738 19.4337 9.44884 18.9045Z" fill="#FFFFCC"/>
</svg>