<svg viewBox="0 0 24 24" fill="none" xmlns="http://www.w3.org/2000/svg">
<path fill-rule="evenodd" clip-rule="evenodd" d="M20.126 19.9554L21.7557 21.581C22.0814 21.9063 22.0814 22.4322 21.7557 22.7567C21.5928 22.9189 21.3795 23 21.1663 23C20.953 23 20.7406 22.9189 20.5777 22.7567L8.91155 11.1228C8.91155 11.1228 8.91071 11.1219 8.90987 11.1211L2.24432 4.47337C1.91856 4.14893 1.91856 3.62296 2.24432 3.29852C2.56925 2.97408 3.09651 2.97408 3.42227 3.29852L8.66639 8.52805V6.30797C8.66639 5.9158 8.94177 5.5763 9.32631 5.49519L20.9933 3.0184C21.0311 3.01003 21.0664 3.02007 21.1033 3.01672C21.126 3.01422 21.1428 3 21.1663 3C21.1931 3 21.2158 3.01254 21.2418 3.01505C21.2998 3.0209 21.3544 3.03178 21.4098 3.04934C21.4601 3.06439 21.5063 3.08195 21.5517 3.1062C21.5987 3.13128 21.6407 3.16055 21.6818 3.194C21.7246 3.22828 21.7624 3.2634 21.7977 3.30521C21.8304 3.34451 21.8573 3.38548 21.8825 3.43147C21.911 3.48081 21.9328 3.53098 21.9505 3.58701C21.958 3.61209 21.9757 3.63216 21.9815 3.65808C21.9882 3.68818 21.9798 3.71578 21.9824 3.74588C21.9857 3.77515 22 3.80107 22 3.83117V17.1274C22 17.1358 21.995 17.1433 21.995 17.1517C21.995 17.1642 22 17.1768 22 17.1893C22 18.3332 21.2754 19.355 20.126 19.9554ZM20.3334 17.1893C20.3334 16.2846 19.1882 15.5211 17.8331 15.5211C17.2 15.5211 16.6022 15.695 16.143 15.9844L18.8473 18.6811C19.7238 18.4093 20.3334 17.8206 20.3334 17.1893ZM20.4266 4.83795L10.333 6.9811V10.1904L14.9499 14.7945C15.7165 14.205 16.7382 13.8588 17.8331 13.8588C18.8179 13.8588 19.7129 14.1447 20.4266 14.6038V4.83795ZM6.16859 16.3523C7.10894 16.3523 7.96868 16.6115 8.66639 17.0338V14.6899C8.66639 14.2309 9.04001 13.8588 9.50011 13.8588C9.9602 13.8588 10.333 14.2309 10.333 14.6899V19.3341C10.333 19.3801 10.3145 19.4194 10.307 19.4629C10.3137 19.5365 10.3347 19.6076 10.3347 19.682C10.3347 21.5116 8.46572 23 6.16859 23C3.86978 23 2 21.5116 2 19.682C2 17.8457 3.86978 16.3523 6.16859 16.3523ZM6.16861 21.3385C7.52288 21.3385 8.66809 20.5801 8.66809 19.682C8.66809 18.7781 7.52288 18.0138 6.16861 18.0138C4.81182 18.0138 3.66662 18.7781 3.66662 19.682C3.66662 20.5801 4.81182 21.3385 6.16861 21.3385Z" fill="currentColor"/>
</svg>