<svg width="24" height="24" viewBox="0 0 24 24" fill="none" xmlns="http://www.w3.org/2000/svg">
<g clip-path="url(#clip0_1265_21295)">
<path d="M12 24C18.6274 24 24 18.6274 24 12C24 5.37258 18.6274 0 12 0C5.37258 0 0 5.37258 0 12C0 18.6274 5.37258 24 12 24Z" fill="#FBBF02"/>
<path d="M12.9937 6.08475C12.6654 6.02897 12.333 6.00062 12 6C8.685 6 6 8.685 6 12C6 13.2727 6.40012 14.4488 7.0725 15.4241C7.485 14.8181 8.43637 14.4 9.53925 14.4C10.2968 14.4 10.9819 14.5999 11.4727 14.9213L12.9937 6.08475ZM16.182 7.70287C17.2181 9.99412 16.3091 11.2181 16.3091 11.2181C15.606 9.10313 13.5698 8.79413 13.5698 8.79413C13.5698 8.79413 12.2303 16.0121 12.2303 16.1029C12.2303 16.8848 11.4 17.5455 10.2727 17.7454C10.833 17.914 11.4149 17.9997 12 18C15.315 18 18 15.315 18 12C18 10.3151 17.3029 8.79375 16.182 7.70287Z" fill="white"/>
</g>
<defs>
<clipPath id="clip0_1265_21295">
<rect width="24" height="24" fill="white"/>
</clipPath>
</defs>
</svg>
