<svg width="24" height="24" viewBox="0 0 24 24" fill="none" xmlns="http://www.w3.org/2000/svg">
<path fill-rule="evenodd" clip-rule="evenodd" d="M22 17.1889C22 19.0186 20.1308 20.5063 17.8334 20.5063C15.536 20.5063 13.6668 19.0186 13.6668 17.1889C13.6668 15.3525 15.536 13.859 17.8334 13.859C18.8094 13.859 19.6967 14.1391 20.4076 14.5907V4.8425L10.3332 6.98079V19.3339C10.3332 19.3799 10.3148 19.4192 10.3073 19.4627C10.3131 19.5371 10.3349 19.6073 10.3349 19.6826C10.3349 21.5115 8.46567 23 6.16827 23C3.87003 23 2 21.5115 2 19.6826C2 17.8454 3.87003 16.3518 6.16827 16.3518C7.1242 16.3518 7.99481 16.6202 8.699 17.0551V6.44978C8.699 6.05757 8.94154 5.57673 9.32709 5.49478L20.9939 3.01864C21.2933 2.95174 21.5843 3.07049 21.7775 3.28541C21.7876 3.2946 21.7968 3.3038 21.806 3.313C21.8344 3.34729 21.857 3.38325 21.8787 3.42255C21.9155 3.47942 21.944 3.54213 21.9624 3.61405C21.9665 3.62994 21.9783 3.64165 21.9816 3.65837C21.9875 3.68346 21.9799 3.70604 21.9824 3.73029C21.9866 3.76541 22 3.79385 22 3.83148V17.127C22 17.1362 21.9958 17.1429 21.995 17.1513C21.9958 17.1638 22 17.1764 22 17.1889ZM6.16828 18.0134C4.81259 18.0134 3.66682 18.7778 3.66682 19.6826C3.66682 20.5799 4.81259 21.3375 6.16828 21.3375C7.52314 21.3375 8.66807 20.5799 8.66807 19.6826C8.66807 18.7778 7.52314 18.0134 6.16828 18.0134ZM17.8334 15.5206C16.4785 15.5206 15.3336 16.2849 15.3336 17.1889C15.3336 18.087 16.4785 18.8447 17.8334 18.8447C19.1882 18.8447 20.3332 18.087 20.3332 17.1889C20.3332 16.2849 19.1882 15.5206 17.8334 15.5206Z" fill="#6B7084"/>
</svg>
