<svg width="24" height="24" viewBox="0 0 24 24" fill="none" xmlns="http://www.w3.org/2000/svg">
<path fill-rule="evenodd" clip-rule="evenodd" d="M3.42114 21.7565C3.2591 21.918 3.04584 22 2.83342 22C2.61932 22 2.40522 21.918 2.24317 21.7532C1.91824 21.426 1.91908 20.8972 2.24485 20.5709L6.60242 16.215H3.70241C2.78304 16.215 2.03579 15.4654 2.03579 14.5425V9.52561C2.03579 8.60357 2.78304 7.85305 3.70241 7.85305H6.72668L12.326 3.03699C12.5737 2.82447 12.9205 2.77594 13.2169 2.91232C13.5124 3.04954 13.7021 3.34573 13.7021 3.67205V9.11814L20.5785 2.2438C20.9035 1.91748 21.4316 1.91916 21.7565 2.24631C22.0814 2.57346 22.0806 3.10309 21.754 3.42857L3.42114 21.7565ZM12.0355 5.4902L7.57806 9.32397C7.3287 9.53816 6.99201 9.57163 6.70906 9.45031H3.63778V14.4705L7.03567 14.5425C7.07765 14.5425 7.11292 14.56 7.15322 14.5659C7.21031 14.5743 7.26656 14.5801 7.32114 14.6002C7.37907 14.622 7.42777 14.6554 7.47815 14.6881C7.51089 14.709 7.54783 14.7182 7.57806 14.7441L7.84505 14.9734L12.0355 10.784V5.4902ZM10.7937 17.5111L12.0355 18.5779V15.0395C12.0355 14.5776 12.4083 14.2028 12.8692 14.2028C13.3293 14.2028 13.7021 14.5776 13.7021 15.0395V20.396C13.7021 20.7224 13.5124 21.0194 13.2168 21.1558C13.106 21.2068 12.9868 21.2319 12.8692 21.2319C12.6736 21.2319 12.4805 21.1633 12.326 21.0311L9.70896 18.7804C9.35968 18.48 9.31938 17.952 9.61912 17.6015C9.91886 17.2517 10.4445 17.2107 10.7937 17.5111ZM15.3755 13.7066C16.2949 13.7066 17.0421 12.9569 17.0421 12.034C17.0421 11.732 16.9615 11.4375 16.8095 11.1806C16.5745 10.784 16.7054 10.2711 17.1009 10.0352C17.4955 9.79838 18.0077 9.92974 18.2428 10.3263C18.5475 10.8417 18.7087 11.4325 18.7087 12.034C18.7087 13.8781 17.2134 15.3792 15.3755 15.3792C14.9154 15.3792 14.5418 15.0043 14.5418 14.5425C14.5418 14.0806 14.9154 13.7066 15.3755 13.7066ZM16.7575 17.0886C18.896 16.3924 20.3326 14.3617 20.3326 12.034C20.3326 10.8509 19.9631 9.72977 19.2637 8.79266C18.9883 8.422 19.0631 7.89906 19.4317 7.62212C19.8011 7.34433 20.3225 7.42047 20.5979 7.78946C21.5147 9.01857 22 10.4861 22 12.034C22 15.0888 20.0991 17.7596 17.2713 18.6791C17.1857 18.7076 17.0992 18.721 17.0144 18.721C16.6626 18.721 16.336 18.4959 16.2218 18.1428C16.0799 17.7027 16.3192 17.2316 16.7575 17.0886Z" fill="#6B7084"/>
</svg>
