<svg viewBox="0 0 24 24" fill="none" xmlns="http://www.w3.org/2000/svg">
<path d="M12.36 22.1799C17.8828 22.1799 22.36 17.7028 22.36 12.1799C22.36 6.65708 17.8828 2.17993 12.36 2.17993C6.83714 2.17993 2.35999 6.65708 2.35999 12.1799C2.35999 17.7028 6.83714 22.1799 12.36 22.1799Z" fill="#007896"/>
<path d="M13.4018 14.6978C13.1323 14.9719 12.764 15.1263 12.3796 15.1263C11.9952 15.1263 11.6269 14.9719 11.3574 14.6978L10.0544 13.3806C9.88667 13.21 9.65747 13.1139 9.41824 13.1139C9.17901 13.1139 8.94981 13.21 8.78211 13.3806C8.21765 13.9549 8.21765 14.8757 8.78211 15.45L11.3616 18.0536C11.6311 18.3277 11.9994 18.4821 12.3838 18.4821C12.7682 18.4821 13.1365 18.3277 13.406 18.0536L15.9788 15.4467C16.5433 14.8724 16.5433 13.9516 15.9788 13.3773C15.8111 13.2067 15.5819 13.1106 15.3427 13.1106C15.1035 13.1106 14.8743 13.2067 14.7066 13.3773L13.4018 14.6978Z" fill="white"/>
<path d="M8.51248 10.113C8.76952 9.84593 9.12307 9.69329 9.49372 9.68938C9.86438 9.68547 10.2211 9.83061 10.4837 10.0922L11.7268 11.3478C11.8901 11.5105 12.1118 11.6008 12.3423 11.5984C12.5727 11.5961 12.7926 11.5013 12.9525 11.3353C13.5032 10.7865 13.5113 9.8972 12.9708 9.33834L10.5145 6.85456C10.2519 6.59297 9.89516 6.44783 9.52451 6.45174C9.15385 6.45565 8.8003 6.60829 8.54326 6.87537L6.03952 9.41239C5.48883 9.96126 5.48067 10.8505 6.02121 11.4094C6.18447 11.5721 6.40621 11.6624 6.63666 11.66C6.86711 11.6577 7.08697 11.5629 7.24688 11.3969L8.51248 10.113Z" fill="white"/>
<path d="M14.2423 10.0564C14.4993 9.78929 14.8529 9.63665 15.2235 9.63274C15.5942 9.62883 15.9509 9.77397 16.2135 10.0356L17.4566 11.2928C17.6199 11.4555 17.8416 11.5458 18.0721 11.5435C18.3025 11.5411 18.5224 11.4463 18.6823 11.2804C19.233 10.7315 19.2411 9.84223 18.7006 9.28336L16.2426 6.79792C15.98 6.53633 15.6233 6.39119 15.2527 6.3951C14.882 6.39901 14.5285 6.55164 14.2714 6.81872L11.7677 9.35575C11.217 9.90462 11.2088 10.7939 11.7494 11.3528C11.9126 11.5154 12.1344 11.6057 12.3648 11.6034C12.5953 11.601 12.8151 11.5062 12.975 11.3403L14.2423 10.0564Z" fill="white"/>
</svg>