<svg viewBox="0 0 24 24" fill="none" xmlns="http://www.w3.org/2000/svg">
<g clip-path="url(#clip0_1265_21291)">
<path d="M12 24C18.6274 24 24 18.6274 24 12C24 5.37258 18.6274 0 12 0C5.37258 0 0 5.37258 0 12C0 18.6274 5.37258 24 12 24Z" fill="#FFAA05"/>
<path fill-rule="evenodd" clip-rule="evenodd" d="M12.5272 9.44345V10.6544H13.9662L13.3162 11.4006H12.3497V12.3386H13.3552L12.8625 13.0848H12.3497V14.9984L11.5223 16.1268V13.0848H10.3783L11.0094 12.3386H11.5223V11.4006H9.9057L10.5557 10.6544H11.5223V9.3999C11.0458 8.88445 10.3886 8.6264 9.5508 8.6264C7.944 8.6264 6.6726 10.3392 6.6726 12.0422C6.6726 13.1771 6.9326 14.1404 7.4513 14.9314L6.5543 15.974C5.85165 14.9327 5.5 13.7432 5.5 12.4055C5.5 9.46815 8.0285 7.7749 9.81665 7.7749C10.9112 7.7749 11.7497 8.2338 12.3321 9.15095C13.4462 8.38655 14.5857 8.00435 15.7505 8.00435C17.5341 8.00435 18.5 10.1819 18.5 12.2619C18.5 15.0296 16.6371 16.0982 15.9572 16.223C15.9322 16.2276 15.9065 16.225 15.8829 16.2156C15.8593 16.2061 15.8389 16.1902 15.8239 16.1697C15.814 16.1558 15.8069 16.1401 15.8031 16.1235C15.7994 16.1069 15.799 16.0896 15.8021 16.0729C15.8052 16.0561 15.8117 16.0401 15.8212 16.0259C15.8306 16.0117 15.8428 15.9996 15.8571 15.9903C16.9094 15.2831 17.4353 14.1995 17.4353 12.7403C17.4353 9.5546 15.7993 8.8175 14.5968 8.8175C13.86 8.81546 13.1393 9.03342 12.5272 9.44345Z" fill="white"/>
</g>
<defs>
<clipPath id="clip0_1265_21291">
<rect width="24" height="24" fill="white"/>
</clipPath>
</defs>
</svg>