<svg width="24" height="24" viewBox="0 0 24 24" fill="none" xmlns="http://www.w3.org/2000/svg">
<g clip-path="url(#clip0_1265_21287)">
<path d="M12 24C18.6274 24 24 18.6274 24 12C24 5.37258 18.6274 0 12 0C5.37258 0 0 5.37258 0 12C0 18.6274 5.37258 24 12 24Z" fill="#4A90E2"/>
<path d="M18.0136 8.99854C17.4676 8.99854 17.0063 9.43954 17.0063 10.0059C17.0063 10.8039 16.8803 11.0133 15.9983 11.0133H15.9143C15.6674 11.0341 15.4374 11.1471 15.2702 11.3299C15.1029 11.5128 15.0107 11.7519 15.0119 11.9996V12.0213C15.0119 12.7976 14.8655 12.9866 14.0045 12.9866C13.9625 12.9866 13.9205 12.9866 13.8995 13.0076C13.3955 13.0706 12.9972 13.49 12.9972 13.994C12.9972 14.54 13.4375 15.0014 14.0045 15.0014C14.5295 15.0014 14.9699 14.5814 14.9909 14.078V13.994C14.9909 13.2806 15.2219 13.0076 15.9773 12.9866H15.9983C16.5233 12.9866 16.9643 12.5666 16.9846 12.0423V11.9786C16.9846 11.2443 17.2156 10.9713 17.9926 10.9713C18.538 10.9713 19 10.5309 19 9.9639C19 9.43954 18.559 8.99854 18.0136 8.99854ZM12.0942 11.0133C12.339 11.0353 12.5675 11.1454 12.7374 11.323C12.9072 11.5006 13.007 11.7337 13.0182 11.9793C13.0182 12.5456 12.5772 12.9866 12.0102 12.9866C11.4438 12.9866 11.0028 12.5246 11.0028 11.9793C11.0028 11.2653 10.7718 10.9929 9.99545 10.9929C9.21909 10.9929 8.98809 11.2653 8.98809 12.0003V12.0633C8.96709 12.5666 8.52609 12.986 8.00173 12.986C7.43536 12.986 6.99373 12.5246 6.99373 11.9793C6.99373 11.4543 7.39273 11.0343 7.89673 10.9929H7.98073C8.86209 10.9929 8.98809 10.8039 8.98809 10.0065C8.99737 9.74556 9.10756 9.49837 9.29547 9.31703C9.48337 9.13569 9.73432 9.03435 9.99545 9.03435C10.2566 9.03435 10.5075 9.13569 10.6954 9.31703C10.8833 9.49837 10.9935 9.74556 11.0028 10.0065C11.0028 10.8039 11.1288 11.0133 12.0102 11.0133H12.0942ZM6.00736 15.0014C5.74019 15.0014 5.48397 14.8952 5.29505 14.7063C5.10613 14.5174 5 14.2612 5 13.994C5 13.7268 5.10613 13.4706 5.29505 13.2817C5.48397 13.0928 5.74019 12.9866 6.00736 12.9866C6.27453 12.9866 6.53076 13.0928 6.71968 13.2817C6.90859 13.4706 7.01473 13.7268 7.01473 13.994C7.01473 14.2612 6.90859 14.5174 6.71968 14.7063C6.53076 14.8952 6.27453 15.0014 6.00736 15.0014Z" fill="white"/>
</g>
<defs>
<clipPath id="clip0_1265_21287">
<rect width="24" height="24" fill="white"/>
</clipPath>
</defs>
</svg>
