<svg width="24" height="24" viewBox="0 0 24 24" fill="none" xmlns="http://www.w3.org/2000/svg">
<g clip-path="url(#clip0_1265_21283)">
<path d="M12 24C18.6274 24 24 18.6274 24 12C24 5.37258 18.6274 0 12 0C5.37258 0 0 5.37258 0 12C0 18.6274 5.37258 24 12 24Z" fill="#222222"/>
<path fill-rule="evenodd" clip-rule="evenodd" d="M9.91909 13.6895L11.9211 17.7508L12.9495 14.7135L9.91973 13.6895H9.91909ZM6.25809 11.9275L9.28973 12.9565L10.3194 9.921L6.25809 11.9275ZM10.096 13.2155C10.1437 13.2409 10.1635 13.2562 10.1857 13.2638C11.1632 13.596 12.1394 13.9307 13.1194 14.2546C13.1989 14.2801 13.3122 14.2585 13.3905 14.2203C14.5111 13.6736 15.6285 13.1206 16.746 12.5689C17.0642 12.4117 17.3811 12.2526 17.7279 12.0795C17.6515 12.0503 17.6121 12.0337 17.5707 12.0197C16.6245 11.6984 15.6782 11.3751 14.7287 11.0626C14.6285 11.0331 14.521 11.0398 14.4252 11.0817C13.2339 11.6608 12.0471 12.2495 10.8596 12.8355C10.6121 12.9577 10.3658 13.0812 10.096 13.2155ZM14.2317 10.6286C13.5126 9.16882 12.8025 7.73064 12.0745 6.25364L9.85991 12.7872L14.2317 10.6286ZM5 12.0013C5.69618 11.657 6.35291 11.3299 7.01091 11.0054C8.12964 10.4536 9.24836 9.90127 10.369 9.35336C10.4245 9.32903 10.474 9.29284 10.514 9.24732C10.554 9.20181 10.5836 9.14808 10.6006 9.08991C11.0385 7.78345 11.4826 6.47955 11.9255 5.175C11.9421 5.12664 11.9618 5.07955 11.9924 5C12.0369 5.08655 12.07 5.14764 12.1005 5.20936C12.9565 6.94664 13.8111 8.68391 14.674 10.4174C14.716 10.5014 14.8267 10.5714 14.9215 10.6038C16.2172 11.0505 17.5154 11.4896 18.8129 11.9306C18.8619 11.9472 18.9103 11.965 19 11.9968C18.8804 12.0573 18.7919 12.1037 18.7028 12.1476C17.0305 12.973 15.3587 13.8003 13.6838 14.6199C13.6083 14.653 13.541 14.7024 13.4867 14.7646C13.4325 14.8267 13.3927 14.9001 13.3701 14.9795C12.938 16.2738 12.4951 17.5644 12.0554 18.8562C12.0433 18.8918 12.0286 18.9262 12 19C11.8874 18.7741 11.79 18.5813 11.6945 18.3878C10.9156 16.8084 10.1361 15.2289 9.36164 13.6469C9.33528 13.5854 9.29575 13.5305 9.24583 13.4859C9.19591 13.4414 9.13681 13.4084 9.07273 13.3892C7.77327 12.9545 6.47636 12.511 5.17882 12.07C5.13109 12.0535 5.08464 12.0337 5 12.0013Z" fill="white"/>
</g>
<defs>
<clipPath id="clip0_1265_21283">
<rect width="24" height="24" fill="white"/>
</clipPath>
</defs>
</svg>
