<svg width="24" height="24" viewBox="0 0 24 24" fill="none" xmlns="http://www.w3.org/2000/svg">
<g clip-path="url(#clip0_1265_21275)">
<path d="M12 24C18.6274 24 24 18.6274 24 12C24 5.37258 18.6274 0 12 0C5.37258 0 0 5.37258 0 12C0 18.6274 5.37258 24 12 24Z" fill="#36A9CF"/>
<path fill-rule="evenodd" clip-rule="evenodd" d="M18.2433 13.5749C18.3553 13.6239 18.3966 13.776 18.3362 13.9148C18.3181 13.9607 18.2884 14.0012 18.2498 14.0321C18.2113 14.063 18.1654 14.0834 18.1166 14.091L16.7007 16.7021C16.7132 16.7604 16.7102 16.821 16.6922 16.8778C16.6741 16.9346 16.6415 16.9857 16.5976 17.026C16.5626 17.0626 16.52 17.091 16.4728 17.1094C16.4257 17.1278 16.3751 17.1356 16.3246 17.1323L13.5633 18.7856C13.5418 18.8401 13.5064 18.8879 13.4606 18.9243C13.4148 18.9607 13.3603 18.9844 13.3024 18.9931C13.1662 19.0192 13.0364 18.9695 12.974 18.8773L9.72976 18.6501C9.68942 18.6808 9.6427 18.7022 9.59304 18.7125C9.54337 18.7229 9.49202 18.722 9.44275 18.7099C9.28238 18.6749 9.17165 18.547 9.17802 18.4152L6.67131 16.6067C6.61895 16.616 6.56511 16.6129 6.51422 16.5974C6.46332 16.5819 6.41684 16.5545 6.37858 16.5176C6.26912 16.4183 6.22967 16.2738 6.27167 16.1644L5.24073 13.7735C5.12809 13.7512 5.03072 13.6405 5.00527 13.4941C4.98427 13.3624 5.02754 13.2383 5.10836 13.1721L5.26046 9.55301C5.22622 9.50634 5.20421 9.45185 5.19643 9.39449C5.18865 9.33714 5.19535 9.27874 5.21591 9.22464C5.26682 9.07636 5.38964 8.98282 5.51056 8.98918L8.21644 6.1541C8.1929 6.02046 8.29472 5.87855 8.45445 5.82828C8.50401 5.81138 8.55682 5.8062 8.60871 5.81316C8.66061 5.82011 8.71019 5.83901 8.75355 5.86837L12.6469 5.16071C12.6972 5.04617 12.8397 4.97871 12.9938 5.00607C13.1338 5.03026 13.2388 5.12635 13.2636 5.23708L15.062 6.26293C15.1119 6.24699 15.1646 6.24204 15.2165 6.24841C15.2685 6.25479 15.3185 6.27233 15.363 6.29984C15.4121 6.32839 15.454 6.36776 15.4855 6.41497C15.517 6.46217 15.5374 6.51595 15.545 6.57221L16.3188 7.09277C16.3688 7.07923 16.4211 7.07735 16.4719 7.08728C16.5226 7.09721 16.5704 7.11869 16.6116 7.15004C16.7567 7.25441 16.8089 7.43641 16.7261 7.55732L16.721 7.56369L17.8557 9.77829C17.9639 9.76365 18.0746 9.84766 18.1141 9.98066C18.1573 10.1264 18.0975 10.2747 17.9817 10.3116C17.8652 10.3498 17.7361 10.2619 17.6934 10.1168L17.6858 10.085L15.3509 8.83454C15.3137 8.88682 15.2632 8.92815 15.2045 8.95418V15.1869C15.2808 15.2205 15.343 15.2796 15.3806 15.354C15.4182 15.4283 15.4289 15.5135 15.4107 15.5948L16.3589 16.5608C16.4075 16.5403 16.4606 16.5328 16.5129 16.5392L17.9448 14.0089C17.9201 13.9682 17.9059 13.922 17.9036 13.8745C17.9013 13.8269 17.9108 13.7795 17.9314 13.7366C17.9919 13.5978 18.1319 13.5259 18.2433 13.5749ZM18.2458 13.8772C18.27 13.8212 18.2528 13.7608 18.2083 13.741C18.1637 13.7219 18.1077 13.7506 18.0835 13.8059C18.0593 13.8613 18.0759 13.9218 18.1211 13.9421C18.1656 13.9612 18.221 13.9326 18.2458 13.8772ZM16.5498 16.9268C16.6008 16.8758 16.6097 16.8007 16.5696 16.7587C16.5295 16.7167 16.4557 16.7237 16.4041 16.774C16.3532 16.8249 16.3443 16.9007 16.3844 16.9427C16.4245 16.9847 16.4989 16.9777 16.5498 16.9268ZM16.1496 16.7677L16.1566 16.7524L15.2472 15.8271C15.1928 15.8611 15.1299 15.8791 15.0658 15.8793C14.999 15.8791 14.9336 15.8599 14.8773 15.8238C14.821 15.7877 14.7763 15.7363 14.7483 15.6756H13.5277C13.4961 15.7419 13.445 15.797 13.3813 15.8335L13.5003 17.5561C13.5474 17.5765 13.5894 17.6058 13.6212 17.642L16.1496 16.7677ZM13.4971 18.5406L15.7035 17.2195L13.6925 17.9144C13.6792 17.9647 13.6542 18.0111 13.6196 18.0499C13.585 18.0887 13.5417 18.1188 13.4933 18.1378L13.4322 18.4967C13.4558 18.5082 13.4777 18.523 13.4971 18.5406ZM13.2903 18.883C13.3603 18.8703 13.408 18.813 13.3979 18.7544C13.3877 18.6972 13.3215 18.6603 13.2515 18.6743C13.1821 18.687 13.1338 18.7443 13.1439 18.8022C13.1548 18.8601 13.2203 18.8963 13.2903 18.883ZM12.9696 18.6297C13.0118 18.5601 13.0778 18.5081 13.1554 18.4833L13.2133 18.1429C13.1617 18.1237 13.1153 18.0927 13.0778 18.0525L10.5462 18.4611L12.9696 18.6297ZM10.6016 15.8704L9.77812 18.2994L12.9702 17.784L10.7117 15.8239C10.6779 15.8455 10.6407 15.8613 10.6016 15.8704ZM9.54203 18.1327L10.3273 15.8169C10.2756 15.781 10.2343 15.732 10.2077 15.675H8.772C8.76318 15.6926 8.75318 15.7096 8.74209 15.7259L9.54203 18.1327ZM9.44466 18.6004C9.51466 18.6157 9.58084 18.5813 9.5923 18.5241C9.60503 18.4668 9.55857 18.4076 9.48857 18.3917C9.41857 18.3771 9.35238 18.4108 9.34029 18.4681C9.3282 18.5266 9.37466 18.5852 9.44466 18.6004ZM6.84377 16.4291L9.2652 18.1766L8.50027 15.8755C8.44511 15.8826 8.38903 15.8766 8.33669 15.8578C8.28434 15.8389 8.23723 15.8079 8.19926 15.7673L6.84823 16.3559C6.85017 16.3804 6.84888 16.405 6.84441 16.4291H6.84377ZM6.61722 16.0485C6.65164 16.0637 6.68377 16.0836 6.71268 16.1077L8.1019 15.5032C8.10465 15.4344 8.1267 15.3678 8.16553 15.311L6.01711 13.0907L6.61722 16.0485ZM6.60258 16.4361C6.64077 16.3928 6.62804 16.3177 6.57522 16.2694C6.52176 16.2216 6.44794 16.2178 6.40976 16.2617C6.37158 16.3063 6.38303 16.3814 6.43649 16.4291C6.48994 16.4768 6.5644 16.48 6.60195 16.4361H6.60258ZM5.46346 13.6787L6.20294 15.3924L5.7072 12.95L5.51183 13.3662C5.52769 13.4186 5.53158 13.4739 5.5232 13.5279C5.51483 13.582 5.49442 13.6335 5.46346 13.6787ZM5.44564 10.9168L5.35655 13.0499L5.53346 12.6745C5.50425 12.619 5.49022 12.5569 5.49279 12.4943C5.49536 12.4317 5.51445 12.3709 5.5481 12.3181L5.44564 10.9168ZM5.31837 9.22973C5.29419 9.29846 5.32028 9.36973 5.37437 9.38946C5.4291 9.40855 5.49146 9.3691 5.51501 9.30037C5.53856 9.23164 5.51374 9.16037 5.45901 9.14064C5.40428 9.12155 5.34191 9.161 5.31773 9.22973H5.31837ZM5.85547 12.509C5.85547 12.4365 5.80265 12.3779 5.73902 12.3779C5.67474 12.3779 5.62192 12.4365 5.62192 12.509C5.62192 12.5822 5.67474 12.6407 5.73902 12.6407C5.80265 12.6407 5.85547 12.5822 5.85547 12.509ZM5.70911 9.39964C5.69118 9.4537 5.66139 9.50305 5.62192 9.5441L5.80647 12.0833L6.93923 8.50108L5.72692 9.32392C5.72336 9.34966 5.7174 9.37501 5.70911 9.39964ZM7.63479 7.11822L6.08584 8.74099L6.87941 8.20261C6.89007 8.13014 6.92145 8.06229 6.96978 8.00724C7.01953 7.94812 7.08686 7.90643 7.16196 7.88824L7.63479 7.11822ZM8.43281 6.35011L7.42288 7.99324C7.44728 8.03864 7.45789 8.09018 7.45342 8.14152L8.20117 8.37125C8.24022 8.32939 8.28902 8.29782 8.34321 8.27936C8.39741 8.2609 8.45533 8.25611 8.51182 8.26544C8.56831 8.27476 8.62162 8.29789 8.66701 8.33278C8.7124 8.36768 8.74847 8.41325 8.772 8.46544H10.0238C10.047 8.41555 10.0815 8.37175 10.1246 8.3375C10.1677 8.30326 10.2181 8.27952 10.272 8.26816L10.9522 6.82103C10.9156 6.77276 10.8915 6.71611 10.8822 6.65621L8.80255 6.19547C8.75542 6.26398 8.68625 6.31429 8.60655 6.33802C8.55046 6.35596 8.49092 6.36033 8.43281 6.35075V6.35011ZM8.46972 5.93455C8.40163 5.95555 8.36027 6.01856 8.37681 6.07456C8.39399 6.1312 8.46272 6.1592 8.53018 6.1382C8.59827 6.11719 8.64027 6.05419 8.62309 5.99819C8.60655 5.94155 8.53845 5.91292 8.46972 5.93455ZM12.4458 5.44836L9.3072 6.01983L10.9491 6.3832C10.9933 6.32269 11.056 6.27806 11.1276 6.25594C11.1992 6.23381 11.2761 6.23537 11.3468 6.26038L12.4458 5.44836ZM12.8308 5.51009L11.6605 6.37557L14.8711 6.46466L14.8781 6.44048L13.1764 5.47063C13.1377 5.49902 13.0934 5.51905 13.0466 5.52946C12.9997 5.53986 12.9511 5.54042 12.904 5.53109C12.879 5.52659 12.8545 5.51955 12.8308 5.51009ZM12.9823 5.11617C12.9123 5.10344 12.8467 5.14035 12.8372 5.1989C12.8277 5.25617 12.8754 5.31345 12.946 5.32617C13.016 5.3389 13.0809 5.30199 13.0911 5.24344C13.1013 5.18617 13.0523 5.1289 12.9823 5.11617ZM15.0397 6.8503C14.9963 6.82347 14.9584 6.78846 14.9283 6.74721L11.5791 6.6543C11.5765 6.6742 11.572 6.69381 11.5657 6.71285L12.9174 8.27134C12.9955 8.25437 13.077 8.26439 13.1487 8.29976C13.2204 8.33513 13.2779 8.39376 13.3119 8.46607H14.7483C14.7833 8.3914 14.8431 8.33115 14.9175 8.29552L15.0397 6.8503ZM15.0652 8.47817C14.9882 8.47817 14.9252 8.54308 14.9252 8.62262C14.9252 8.70217 14.9882 8.76645 15.0652 8.76645C15.1434 8.76645 15.2071 8.70217 15.2071 8.62262C15.2071 8.54308 15.1434 8.47817 15.0658 8.47817H15.0652ZM15.1282 6.44175C15.0932 6.50284 15.1193 6.58557 15.1867 6.62503C15.2535 6.66575 15.3369 6.64857 15.3713 6.58684C15.4069 6.52575 15.3808 6.44366 15.3134 6.40357C15.2459 6.36347 15.1632 6.38066 15.1282 6.44175ZM17.6196 9.82602L15.3114 6.90694L15.195 8.28725C15.2568 8.31253 15.3103 8.35447 15.3497 8.40841C15.389 8.46235 15.4126 8.52616 15.4177 8.59271L17.6196 9.82602ZM16.1604 7.28241L15.6424 6.93494L17.3141 9.11136L16.5008 7.65596C16.4329 7.65069 16.3677 7.62668 16.3125 7.5866C16.2043 7.50959 16.147 7.38932 16.1597 7.28241H16.1604ZM16.4022 7.24613C16.3691 7.2945 16.3895 7.36705 16.448 7.40905C16.5059 7.45041 16.5804 7.44532 16.6135 7.39632C16.6466 7.34859 16.6262 7.27541 16.5683 7.23404C16.5091 7.19268 16.4353 7.19777 16.4028 7.24677L16.4022 7.24613ZM12.8576 8.62262C12.8576 8.70026 12.918 8.76326 12.995 8.76326C13.0319 8.76276 13.0672 8.7477 13.093 8.72136C13.1189 8.69502 13.1333 8.65954 13.1331 8.62262C13.1335 8.5856 13.1191 8.54995 13.0932 8.52347C13.0674 8.497 13.032 8.48185 12.995 8.48135C12.958 8.48185 12.9227 8.497 12.8968 8.52347C12.8709 8.54995 12.8566 8.5856 12.8569 8.62262H12.8576ZM12.9333 11.6601C12.9146 11.6602 12.8961 11.6641 12.8788 11.6714C12.8616 11.6787 12.846 11.6894 12.8329 11.7027C12.8198 11.7161 12.8094 11.7319 12.8024 11.7492C12.7954 11.7666 12.7919 11.7852 12.792 11.8039C12.792 11.8834 12.8557 11.9483 12.9333 11.9483C12.952 11.9481 12.9705 11.9442 12.9877 11.9368C13.0049 11.9294 13.0205 11.9187 13.0335 11.9053C13.0466 11.8918 13.0569 11.876 13.0638 11.8586C13.0708 11.8412 13.0742 11.8226 13.0739 11.8039C13.0742 11.7852 13.0707 11.7666 13.0638 11.7493C13.0569 11.7319 13.0466 11.7161 13.0335 11.7028C13.0204 11.6894 13.0049 11.6787 12.9877 11.6714C12.9705 11.6641 12.952 11.6602 12.9333 11.6601ZM11.0897 6.55375C11.0897 6.6333 11.1527 6.69757 11.2303 6.69757C11.2491 6.69741 11.2676 6.69355 11.2848 6.68624C11.302 6.67892 11.3176 6.66828 11.3308 6.65492C11.3439 6.64157 11.3542 6.62576 11.3613 6.6084C11.3683 6.59104 11.3718 6.57247 11.3716 6.55375C11.3716 6.4742 11.308 6.40929 11.2303 6.40929C11.2116 6.40954 11.1931 6.41348 11.1759 6.42087C11.1587 6.42827 11.1432 6.43898 11.1301 6.45239C11.117 6.46581 11.1068 6.48166 11.0998 6.49905C11.0929 6.51644 11.0894 6.53503 11.0897 6.55375ZM11.1928 6.95913L10.5475 8.33053C10.6196 8.38355 10.6695 8.46146 10.6875 8.54916C10.7055 8.63687 10.6903 8.72813 10.6449 8.80527L12.7958 11.4717C12.8156 11.4635 12.836 11.4571 12.8569 11.4526V8.95418C12.8097 8.93362 12.7675 8.90319 12.7331 8.86493C12.6986 8.82668 12.6728 8.78148 12.6573 8.73239C12.6418 8.6833 12.637 8.63146 12.6432 8.58036C12.6494 8.52926 12.6665 8.48009 12.6934 8.43616L11.3824 6.9254C11.3236 6.95406 11.2579 6.96574 11.1928 6.95913ZM10.2 8.62262C10.2 8.70217 10.2637 8.76645 10.3413 8.76645C10.4183 8.76645 10.482 8.70217 10.482 8.62262C10.482 8.54308 10.4183 8.47817 10.3413 8.47817C10.3035 8.47867 10.2673 8.49415 10.2409 8.52123C10.2144 8.5483 10.1997 8.58476 10.2 8.62262ZM8.31636 8.62262C8.31636 8.70026 8.37745 8.76326 8.45381 8.76326C8.53018 8.76326 8.59191 8.70026 8.59191 8.62262C8.59191 8.54435 8.53018 8.48135 8.45381 8.48135C8.37745 8.48135 8.31636 8.54499 8.31636 8.62262ZM8.45381 15.3746C8.43518 15.3749 8.41677 15.3788 8.39965 15.3862C8.38253 15.3935 8.36702 15.4042 8.35402 15.4175C8.34102 15.4309 8.33078 15.4467 8.32388 15.464C8.31698 15.4813 8.31356 15.4998 8.31381 15.5184C8.31381 15.598 8.37618 15.6623 8.45381 15.6623C8.47253 15.6621 8.49104 15.6582 8.50827 15.6509C8.5255 15.6436 8.54112 15.633 8.55424 15.6196C8.56736 15.6063 8.57772 15.5905 8.58473 15.5731C8.59174 15.5557 8.59526 15.5372 8.59509 15.5184C8.59534 15.4997 8.59188 15.4811 8.5849 15.4637C8.57792 15.4463 8.56757 15.4305 8.55443 15.4171C8.5413 15.4037 8.52564 15.3931 8.50837 15.3858C8.4911 15.3785 8.47256 15.3747 8.45381 15.3746ZM7.05632 8.0817C7.00987 8.13643 7.00605 8.21216 7.04996 8.25098C7.0926 8.28916 7.16578 8.27771 7.21287 8.22234C7.25996 8.16825 7.26315 8.09252 7.21987 8.0537C7.1766 8.01424 7.10405 8.02697 7.05632 8.0817ZM6.0222 12.3194C6.05788 12.3762 6.07664 12.4419 6.0763 12.509C6.0763 12.579 6.05721 12.6439 6.02411 12.6967L8.31636 15.0653V8.95418C8.25411 8.92676 8.20093 8.88225 8.16297 8.82582C8.125 8.76938 8.10383 8.70334 8.1019 8.63535L7.32424 8.39671C7.30008 8.41863 7.27312 8.43725 7.24406 8.45207L6.0222 12.3194ZM13.2095 15.1576C13.3616 15.1576 13.4908 15.2563 13.5404 15.3931H14.7355C14.7519 15.3474 14.7773 15.3056 14.8104 15.2702C14.8434 15.2347 14.8833 15.2064 14.9277 15.1869V8.95418C14.8833 8.93472 14.8434 8.90639 14.8103 8.87093C14.7773 8.83548 14.7518 8.79364 14.7355 8.74799H13.3253C13.3088 8.79353 13.2833 8.83527 13.2503 8.8707C13.2172 8.90613 13.1774 8.93453 13.1331 8.95418V11.5061C13.1806 11.5398 13.2193 11.5845 13.2459 11.6363C13.2725 11.6881 13.2862 11.7456 13.2859 11.8039C13.2869 11.8985 13.2503 11.9896 13.1842 12.0572C13.1181 12.1249 13.0279 12.1635 12.9333 12.1647C12.8864 12.1642 12.8401 12.1545 12.7971 12.1361C12.754 12.1177 12.7149 12.0909 12.6822 12.0574C12.6494 12.0239 12.6236 11.9843 12.6062 11.9408C12.5888 11.8973 12.5802 11.8507 12.5807 11.8039C12.5807 11.7593 12.5884 11.7167 12.6037 11.6766L10.4221 8.97327C10.3378 8.99266 10.2493 8.98044 10.1734 8.93891C10.0975 8.89739 10.0395 8.82945 10.0104 8.74799H8.78473C8.76816 8.79359 8.74254 8.83537 8.7094 8.8708C8.67626 8.90624 8.6363 8.9346 8.59191 8.95418V15.1869C8.681 15.2251 8.75037 15.3002 8.78473 15.3931H10.1943C10.2109 15.3475 10.2365 15.3057 10.2696 15.2703C10.3028 15.2348 10.3427 15.2065 10.3871 15.1869V12.5968C10.3352 12.5642 10.2925 12.519 10.2629 12.4653C10.2332 12.4117 10.2178 12.3514 10.2179 12.2901C10.2173 12.2432 10.226 12.1966 10.2434 12.1531C10.2608 12.1095 10.2867 12.0699 10.3195 12.0363C10.3523 12.0028 10.3915 11.9761 10.4346 11.9577C10.4778 11.9393 10.5241 11.9297 10.5711 11.9293C10.6289 11.9295 10.6858 11.9437 10.7369 11.9709C10.788 11.998 10.8317 12.0371 10.8643 12.0849C10.8969 12.1327 10.9174 12.1877 10.9239 12.2452C10.9305 12.3027 10.9229 12.3609 10.902 12.4148L13.1185 15.1703C13.1482 15.1624 13.1787 15.1581 13.2095 15.1576ZM13.3622 17.733C13.2858 17.733 13.2222 17.7903 13.2222 17.8616C13.2222 17.9329 13.2858 17.9895 13.3622 17.9895C13.4405 17.9895 13.5041 17.9322 13.5041 17.8622C13.5041 17.7922 13.4405 17.733 13.3629 17.733H13.3622ZM13.0688 15.5184C13.0688 15.598 13.1318 15.6623 13.2088 15.6623C13.2276 15.6622 13.2462 15.6584 13.2635 15.6511C13.2808 15.6438 13.2965 15.6332 13.3097 15.6198C13.3229 15.6065 13.3333 15.5906 13.3403 15.5732C13.3474 15.5558 13.3509 15.5372 13.3508 15.5184C13.3509 15.4997 13.3474 15.4812 13.3404 15.4638C13.3334 15.4464 13.323 15.4306 13.3099 15.4173C13.2968 15.4039 13.2812 15.3933 13.2639 15.386C13.2467 15.3786 13.2282 15.3748 13.2095 15.3746C13.1718 15.3751 13.1358 15.3905 13.1095 15.4175C13.0831 15.4444 13.0685 15.4807 13.0688 15.5184ZM10.4298 12.2901C10.4298 12.3696 10.4934 12.4339 10.5711 12.4339C10.6487 12.4339 10.7117 12.3696 10.7117 12.2901C10.7117 12.2099 10.6487 12.1463 10.5711 12.1463C10.4934 12.1463 10.4298 12.2099 10.4298 12.2901ZM10.5252 15.3746C10.5065 15.3748 10.488 15.3786 10.4708 15.386C10.4535 15.3933 10.4379 15.4039 10.4248 15.4173C10.4117 15.4306 10.4013 15.4464 10.3943 15.4638C10.3873 15.4812 10.3838 15.4997 10.384 15.5184C10.384 15.598 10.4476 15.6623 10.5252 15.6623C10.6029 15.6623 10.6659 15.598 10.6659 15.5184C10.6661 15.4998 10.6627 15.4812 10.6557 15.4638C10.6488 15.4465 10.6385 15.4307 10.6254 15.4173C10.6124 15.4039 10.5968 15.3933 10.5796 15.386C10.5624 15.3786 10.5439 15.3748 10.5252 15.3746ZM10.6627 15.1869C10.7387 15.2202 10.8008 15.2788 10.8386 15.3526C10.8764 15.4265 10.8876 15.5111 10.8702 15.5923L13.1567 17.5759C13.1775 17.5638 13.1994 17.5537 13.2222 17.5459L13.1051 15.8634C13.0326 15.8395 12.9695 15.7933 12.9249 15.7313C12.8803 15.6693 12.8565 15.5948 12.8569 15.5184C12.8569 15.4548 12.8728 15.3956 12.9015 15.3447L10.7104 12.621C10.695 12.6278 10.679 12.6333 10.6627 12.6375V15.1869ZM15.2064 15.5178C15.2066 15.4992 15.2031 15.4807 15.1961 15.4634C15.1892 15.4461 15.1788 15.4304 15.1658 15.4171C15.1527 15.4038 15.1372 15.3932 15.12 15.3859C15.1029 15.3786 15.0844 15.3748 15.0658 15.3746C15.0471 15.3748 15.0286 15.3786 15.0114 15.386C14.9941 15.3933 14.9785 15.4039 14.9654 15.4173C14.9523 15.4306 14.9419 15.4464 14.9349 15.4638C14.9279 15.4812 14.9244 15.4997 14.9245 15.5184C14.9245 15.598 14.9882 15.6623 15.0658 15.6623C15.1434 15.6623 15.2071 15.598 15.2071 15.5184L15.2064 15.5178ZM5.20891 13.5953C5.26619 13.5858 5.30246 13.5196 5.29037 13.4483C5.27764 13.3764 5.22228 13.3261 5.16564 13.3363C5.10836 13.3458 5.07273 13.4127 5.08482 13.4839C5.09627 13.5558 5.15227 13.6061 5.20891 13.5953ZM17.9187 9.95902C17.8729 9.97366 17.8487 10.0335 17.8659 10.0914C17.8831 10.1493 17.9346 10.1843 17.9804 10.1697C18.0275 10.155 18.0504 10.0952 18.0339 10.0373C18.0173 9.97875 17.9652 9.94439 17.9193 9.95902H17.9187Z" fill="white"/>
</g>
<defs>
<clipPath id="clip0_1265_21275">
<rect width="24" height="24" fill="white"/>
</clipPath>
</defs>
</svg>
