<svg width="24" height="24" viewBox="0 0 24 24" fill="none" xmlns="http://www.w3.org/2000/svg">
<g clip-path="url(#clip0_1265_21271)">
<path d="M12 24C18.6274 24 24 18.6274 24 12C24 5.37258 18.6274 0 12 0C5.37258 0 0 5.37258 0 12C0 18.6274 5.37258 24 12 24Z" fill="#622FBA"/>
<path fill-rule="evenodd" clip-rule="evenodd" d="M13.681 12.8944C13.6245 12.912 13.5699 12.9334 13.5166 12.9581L11.1271 10.4744C11.2216 10.3104 11.2775 10.127 11.2904 9.93821C11.3032 9.74937 11.2727 9.5601 11.2012 9.38485C11.1297 9.20961 11.0191 9.05303 10.8778 8.92708C10.7365 8.80114 10.5683 8.70917 10.386 8.6582V6.92067L9.74639 6.56316L11.2239 5.70837C11.4598 5.57187 11.7275 5.5 12 5.5C12.2726 5.5 12.5403 5.57187 12.7762 5.70837L15.7137 7.40884L14.5527 8.08032C14.3636 7.99641 14.1565 7.96107 13.9502 7.97751C13.744 7.99395 13.5451 8.06166 13.3716 8.17447C13.1982 8.28728 13.0557 8.44163 12.957 8.62351C12.8584 8.80538 12.8067 9.00902 12.8067 9.21592C12.8068 9.481 12.8917 9.73909 13.049 9.95243C13.2063 10.1658 13.4278 10.3232 13.681 10.4016V12.8944ZM14.4208 12.8944V10.4009C14.5984 10.3458 14.7613 10.2516 14.8976 10.1251C15.0339 9.99855 15.1401 9.84303 15.2082 9.67C15.2764 9.49697 15.3048 9.31084 15.2913 9.12537C15.2779 8.93989 15.223 8.7598 15.1306 8.5984L16.4501 7.83526L17.0807 8.19928C17.3148 8.33476 17.5092 8.52945 17.6443 8.76381C17.7794 8.99816 17.8504 9.26394 17.8503 9.53444V14.4656C17.8503 15.0155 17.5571 15.5238 17.08 15.8001L14.4214 17.3393V15.2644C14.6739 15.1854 14.8945 15.0278 15.0512 14.8146C15.2078 14.6014 15.2923 14.3438 15.2922 14.0792C15.2921 13.8146 15.2075 13.557 15.0508 13.3439C14.894 13.1308 14.6733 12.9733 14.4208 12.8944ZM12.9731 13.4593C12.8802 13.6207 12.8248 13.8009 12.811 13.9866C12.7972 14.1722 12.8253 14.3586 12.8933 14.532C12.9613 14.7053 13.0674 14.8612 13.2037 14.988C13.3401 15.1147 13.5032 15.2092 13.681 15.2644V17.7677L12.7762 18.2916C12.5403 18.4281 12.2726 18.5 12 18.5C11.7275 18.5 11.4598 18.4281 11.2239 18.2916L8.06087 16.4612L9.24912 15.5329C9.47327 15.721 9.75667 15.8239 10.0493 15.8235C10.2125 15.8237 10.3742 15.7918 10.5251 15.7295C10.676 15.6673 10.8132 15.5759 10.9287 15.4606C11.0443 15.3453 11.1359 15.2083 11.1985 15.0575C11.2611 14.9068 11.2934 14.7452 11.2935 14.5819C11.2932 14.311 11.2043 14.0475 11.0404 13.8318C10.8764 13.6161 10.6464 13.4599 10.3854 13.3872V11.0484C10.4536 11.0295 10.5199 11.0048 10.583 10.9749L12.9731 13.4593ZM9.64629 13.408C9.34767 13.5099 9.09909 13.7218 8.95106 14.0005C8.80303 14.2791 8.76667 14.6037 8.84935 14.9082L7.37314 16.0627L6.92007 15.8007C6.68581 15.6653 6.49131 15.4707 6.3561 15.2363C6.2209 15.0019 6.14974 14.7361 6.14978 14.4656V9.53444C6.14978 8.98451 6.44294 8.47619 6.92007 8.19993L9.00341 6.99348L9.64694 7.35294V8.679C9.40225 8.76293 9.18989 8.92119 9.03952 9.13168C8.88915 9.34217 8.80828 9.59437 8.80821 9.85305C8.80814 10.1117 8.88887 10.364 9.03912 10.5745C9.18937 10.7851 9.40165 10.9435 9.64629 11.0276V13.408ZM10.05 10.3899C9.97783 10.3925 9.90593 10.3805 9.83853 10.3547C9.77112 10.3289 9.7096 10.2898 9.65763 10.2398C9.60566 10.1897 9.56431 10.1297 9.53603 10.0633C9.50776 9.99688 9.49314 9.92547 9.49305 9.8533C9.49296 9.78113 9.50741 9.70969 9.53552 9.64322C9.56364 9.57676 9.60485 9.51663 9.6567 9.46643C9.70855 9.41623 9.76997 9.37699 9.83731 9.35104C9.90465 9.32509 9.97653 9.31296 10.0487 9.31538C10.1879 9.32005 10.3199 9.37862 10.4168 9.47872C10.5138 9.57883 10.568 9.71266 10.5682 9.852C10.5684 9.99134 10.5144 10.1253 10.4177 10.2256C10.3211 10.326 10.1892 10.3849 10.05 10.3899ZM10.05 15.1188C9.97783 15.1214 9.90593 15.1095 9.83853 15.0837C9.77112 15.0579 9.7096 15.0188 9.65763 14.9687C9.60566 14.9187 9.56431 14.8586 9.53603 14.7922C9.50776 14.7258 9.49314 14.6544 9.49305 14.5823C9.49296 14.5101 9.50741 14.4387 9.53552 14.3722C9.56364 14.3057 9.60485 14.2456 9.6567 14.1954C9.70855 14.1452 9.76997 14.106 9.83731 14.08C9.90465 14.054 9.97653 14.0419 10.0487 14.0443C10.1879 14.049 10.3199 14.1076 10.4168 14.2077C10.5138 14.3078 10.568 14.4416 10.5682 14.581C10.5684 14.7203 10.5144 14.8543 10.4177 14.9546C10.3211 15.0549 10.1892 15.1138 10.05 15.1188ZM14.0509 9.75285C13.9788 9.75544 13.9069 9.74349 13.8395 9.7177C13.7721 9.69191 13.7105 9.65282 13.6586 9.60274C13.6066 9.55267 13.5652 9.49265 13.537 9.42625C13.5087 9.35985 13.4941 9.28844 13.494 9.21627C13.4939 9.1441 13.5083 9.07266 13.5365 9.00619C13.5646 8.93973 13.6058 8.8796 13.6576 8.8294C13.7095 8.77921 13.7709 8.73996 13.8382 8.71401C13.9056 8.68806 13.9775 8.67593 14.0496 8.67835C14.1888 8.68302 14.3209 8.74159 14.4178 8.8417C14.5147 8.9418 14.569 9.07563 14.5691 9.21497C14.5693 9.35431 14.5154 9.48827 14.4187 9.58861C14.322 9.68896 14.1901 9.74784 14.0509 9.75285ZM14.0509 14.6164C13.9083 14.6165 13.7715 14.5601 13.6706 14.4594C13.5696 14.3587 13.5128 14.222 13.5127 14.0794C13.5125 13.9369 13.569 13.8001 13.6697 13.6991C13.7703 13.5982 13.907 13.5414 14.0496 13.5412C14.1922 13.541 14.329 13.5975 14.4299 13.6982C14.5308 13.7989 14.5876 13.9356 14.5878 14.0781C14.588 14.2207 14.5315 14.3575 14.4308 14.4585C14.3301 14.5594 14.1935 14.6162 14.0509 14.6164Z" fill="white"/>
</g>
<defs>
<clipPath id="clip0_1265_21271">
<rect width="24" height="24" fill="white"/>
</clipPath>
</defs>
</svg>
