<svg viewBox="0 0 24 24" fill="none" xmlns="http://www.w3.org/2000/svg">
<path d="M12 24C18.6274 24 24 18.6274 24 12C24 5.37258 18.6274 0 12 0C5.37258 0 0 5.37258 0 12C0 18.6274 5.37258 24 12 24Z" fill="#FAFAFA"/>
<path d="M15.6198 6.61333L13.1132 10.3333C12.9398 10.5867 13.2732 10.8933 13.5132 10.68L15.9798 8.53333C16.0465 8.48 16.1398 8.52 16.1398 8.61333V15.32C16.1398 15.4133 16.0198 15.4533 15.9665 15.3867L8.49983 6.45333C8.25983 6.16 7.91316 6 7.5265 6H7.25983C6.5665 6 5.99316 6.57333 5.99316 7.28V16.72C5.99316 17.4267 6.5665 18 7.27316 18C7.71316 18 8.1265 17.7733 8.3665 17.3867L10.8732 13.6667C11.0465 13.4133 10.7132 13.1067 10.4732 13.32L8.0065 15.4533C7.93983 15.5067 7.8465 15.4667 7.8465 15.3733V8.68C7.8465 8.58667 7.9665 8.54667 8.01983 8.61333L15.4865 17.5467C15.7265 17.84 16.0865 18 16.4598 18H16.7265C17.4332 18 18.0065 17.4267 18.0065 16.72V7.28C18.0065 6.57333 17.4332 6 16.7265 6C16.2732 6 15.8598 6.22667 15.6198 6.61333Z" fill="black"/>
</svg>