<svg width="24" height="24" viewBox="0 0 24 24" fill="none" xmlns="http://www.w3.org/2000/svg">
<g clip-path="url(#clip0_1265_21267)">
<path d="M12 24C18.6274 24 24 18.6274 24 12C24 5.37258 18.6274 0 12 0C5.37258 0 0 5.37258 0 12C0 18.6274 5.37258 24 12 24Z" fill="#50479E"/>
<path d="M14.8338 10.4791V13.5885L12.0344 15.1269V12.0188L14.8332 10.4804L14.8338 10.4791ZM18.1746 9.6822V14.3171C18.1746 14.6466 18.0836 14.969 17.9127 15.2491C17.7437 15.5286 17.4986 15.7659 17.1951 15.9329L15.1074 17.0801V14.0214L15.3713 13.8764V10.1853L17.9283 8.7794C18.0869 9.05239 18.1746 9.36112 18.1746 9.68285V9.6822ZM6.80481 15.9329C6.52021 15.7775 6.27978 15.5522 6.1061 15.2784C5.92337 14.9912 5.82599 14.6581 5.82532 14.3177V11.35L8.70075 13.5956V13.7204L8.7053 13.8491L8.92889 13.9811L11.7991 15.5592L12.0357 15.6892V18.4996C11.6815 18.5067 11.3315 18.4211 11.0205 18.2513L6.80481 15.9322V15.9329ZM6.68522 8.13919L9.72509 6.47528L11.792 8.47717L8.70075 10.182V10.442L5.83182 12.0175L5.82532 9.68155C5.82532 9.35202 5.91631 9.02834 6.08855 8.7482C6.23934 8.50122 6.44343 8.29323 6.68522 8.13854V8.13919ZM17.1951 8.06704C17.4996 8.23333 17.753 8.47936 17.9283 8.77875L15.3713 10.1846V10.1612L15.1074 10.0163L12.2905 8.46807L15.1074 6.91921L17.1951 8.06704ZM5.83182 12.0188L8.70075 10.4414V13.5956L5.83182 12.0182V12.0188ZM12.0357 8.34718V5.50034C12.3659 5.50535 12.6898 5.5908 12.9795 5.74928L15.1074 6.91921L12.2905 8.46742L12.0357 8.34718ZM11.7991 8.47717L8.93409 6.90296L11.1453 5.68688C11.4243 5.55849 11.7286 5.49473 12.0357 5.50034V8.34718L11.7991 8.47717ZM12.0539 15.6989L12.2905 15.5689L15.0736 17.0989L12.9795 18.2507C12.6897 18.4089 12.3658 18.4941 12.0357 18.4989V15.6892L12.0539 15.6989ZM15.1074 14.0207V17.0801L15.0736 17.0989L12.2905 15.5689L15.1074 14.0207Z" fill="white"/>
</g>
<defs>
<clipPath id="clip0_1265_21267">
<rect width="24" height="24" fill="white"/>
</clipPath>
</defs>
</svg>
