<svg viewBox="0 0 24 24" fill="none" xmlns="http://www.w3.org/2000/svg">
<path d="M12.0046 21.9176L11.89 21.8603C7.42221 19.2445 4.04271 14.9294 2.66799 9.77422C2.44842 8.96275 2.28613 8.13219 2.17156 7.29209C2.06655 6.45199 2.00927 5.60233 1.99972 4.75268C1.99972 4.60947 1.98063 4.62857 2.11428 4.56175C3.79449 3.60708 5.57017 2.91017 7.45085 2.47103C8.14776 2.30874 8.84467 2.18463 9.55112 2.09871C10.5249 1.98415 11.4986 1.93642 12.4819 1.95551C13.0356 1.96505 13.5798 2.00324 14.124 2.06052C16.8638 2.35647 19.4319 3.17748 21.8377 4.52355C21.8758 4.54265 21.9045 4.56174 21.9427 4.58083C21.9809 4.59993 22 4.62857 22 4.6763V4.8195C21.9904 5.31593 21.9713 5.80281 21.9331 6.29923C21.8758 7.00568 21.7804 7.70259 21.6467 8.3995C21.3603 9.89833 20.9116 11.3399 20.2911 12.7241C19.3078 14.9294 17.9617 16.896 16.2624 18.6144C15.0405 19.8555 13.6753 20.9247 12.1669 21.8126C12.1096 21.8508 12.0619 21.8794 12.0046 21.9176ZM2.9162 5.23956V5.35412C2.9162 6.05103 2.96394 6.75748 3.04985 7.44484C3.12623 8.07492 3.23124 8.69545 3.37444 9.31598C3.40308 9.42099 3.43172 9.52601 3.47945 9.63102C4.33865 11.4544 6.32435 12.4282 8.29096 11.9795C9.78978 11.6358 11.0118 10.4807 11.4223 9.00094C11.5368 8.59044 11.575 8.17039 11.5941 7.75033C11.6036 7.47348 11.6323 7.19662 11.68 6.91977C12.0046 5.23956 13.1216 3.85529 14.6968 3.19657C14.7827 3.15838 14.8781 3.12974 14.9641 3.09156C14.9736 3.08201 14.9927 3.08201 14.9927 3.06292C14.7445 2.977 13.2648 2.82425 12.3769 2.80516C10.4676 2.76698 8.59645 3.01519 6.77304 3.56889C5.41742 3.9794 4.13817 4.5331 2.9162 5.23956ZM16.9975 16.6765C17.0452 16.6478 17.0739 16.6096 17.093 16.581C17.4748 16.1037 17.8376 15.6072 18.1717 15.0917C19.3651 13.2397 20.2052 11.2444 20.673 9.08687C20.8352 8.35177 20.9403 7.61668 21.0071 6.87204C21.0548 6.36607 21.0739 5.8601 21.0739 5.34457C21.0739 5.30639 21.0739 5.27775 21.0644 5.23957L20.9212 5.15364C20.5298 4.93407 20.1288 4.72404 19.7278 4.53311C19.1359 4.25626 18.5441 4.00805 17.9235 3.80756C17.1693 3.56889 16.4056 3.54025 15.6419 3.73119C13.4557 4.25626 12.0523 6.40426 12.4724 8.60954C12.7015 9.83151 13.3602 10.7862 14.4104 11.4544C14.4772 11.5022 14.5536 11.5404 14.6204 11.5881C15.3937 12.0559 15.9951 12.6955 16.4247 13.4879C16.8829 14.3184 17.0834 15.2158 17.0261 16.1609C17.0357 16.3232 17.0166 16.4951 16.9975 16.6765ZM12.0046 20.9438C12.0428 20.9247 12.0905 20.8961 12.1287 20.8674C13.3316 20.161 14.439 19.3209 15.4509 18.3662C15.5178 18.3089 15.5655 18.2326 15.6037 18.1562C15.6705 18.0321 15.7373 17.8984 15.7946 17.7743C16.272 16.7815 16.377 15.7504 16.0619 14.6812C15.4414 12.6191 13.4557 11.4353 11.4605 11.6836C10.8877 11.7504 10.3626 11.9318 9.86616 12.2182C8.92105 12.7528 7.9091 12.9724 6.82079 12.8673C6.28618 12.8196 5.7802 12.6764 5.29332 12.4664C4.91146 12.2945 4.54869 12.0845 4.2241 11.8267C4.205 11.8077 4.17636 11.7981 4.12864 11.7695C4.13818 11.8172 4.14773 11.8458 4.15728 11.8649C4.58687 12.9533 5.11194 13.9843 5.73247 14.9676C6.41028 16.0273 7.18355 17.0106 8.06185 17.908C8.94014 18.8054 9.90435 19.6073 10.9449 20.3042C11.4223 20.6097 11.871 20.8866 12.0046 20.9438Z" fill="black"/>
<path d="M2.91628 5.23957C4.13826 4.53312 5.41751 3.97942 6.76359 3.57846C8.59655 3.0343 10.4582 2.77655 12.3675 2.81473C13.2553 2.83383 14.7351 2.97702 14.9833 3.07249C14.9928 3.09158 14.9737 3.10113 14.9546 3.10113C14.8687 3.13931 14.7732 3.16795 14.6873 3.20614C13.1121 3.86486 11.9952 5.24912 11.6706 6.92932C11.6228 7.20617 11.5942 7.48302 11.5846 7.75987C11.5751 8.17993 11.5369 8.59997 11.4128 9.01048C10.9928 10.4902 9.78033 11.6453 8.28151 11.989C6.3149 12.4377 4.32919 11.464 3.46999 9.64055C3.42225 9.53554 3.38407 9.43053 3.36498 9.32552C3.22178 8.70499 3.11677 8.08445 3.04039 7.45438C2.95447 6.75748 2.90674 6.06057 2.90674 5.36368C2.91628 5.31595 2.91628 5.28731 2.91628 5.23957Z" fill="#F7A800"/>
<path d="M16.9976 16.6765C17.0167 16.4951 17.0357 16.3328 17.0453 16.1609C17.093 15.2158 16.8925 14.3184 16.4439 13.4879C16.0143 12.6955 15.4128 12.0654 14.6395 11.5881C14.5727 11.5404 14.4963 11.5022 14.4295 11.4545C13.3698 10.7862 12.7206 9.84107 12.4915 8.60956C12.081 6.39474 13.4748 4.2563 15.661 3.73123C16.4343 3.54985 17.1885 3.56894 17.9427 3.8076C18.5632 3.99853 19.1551 4.2563 19.747 4.53315C20.1575 4.72408 20.5489 4.93411 20.9403 5.15368C20.9881 5.18232 21.0263 5.20141 21.0835 5.2396C21.0835 5.27778 21.0931 5.30642 21.0931 5.34461C21.0931 5.85058 21.0644 6.36609 21.0263 6.87207C20.9594 7.6167 20.8449 8.36135 20.6921 9.08688C20.2243 11.2444 19.3938 13.2397 18.1909 15.0917C17.8568 15.6072 17.494 16.1037 17.1121 16.581C17.0739 16.6096 17.0548 16.6478 16.9976 16.6765Z" fill="#67B2E8"/>
<path d="M12.0047 20.9437C11.8615 20.8864 11.4223 20.6191 10.9546 20.304C9.91396 19.6071 8.94974 18.8052 8.07144 17.9079C7.19314 17.0105 6.41031 16.0272 5.74203 14.9675C5.11194 13.9842 4.58688 12.9532 4.16682 11.8649C4.15728 11.8363 4.14773 11.8172 4.13818 11.7694C4.18592 11.7981 4.20501 11.8076 4.23365 11.8267C4.56779 12.0845 4.92101 12.304 5.30289 12.4663C5.78977 12.6764 6.29574 12.8196 6.83037 12.8673C7.90915 12.9723 8.9211 12.7527 9.87578 12.2181C10.3722 11.9413 10.9068 11.7599 11.4701 11.6835C13.4654 11.4353 15.4511 12.6191 16.0716 14.6811C16.3867 15.7408 16.2912 16.7718 15.8043 17.7742C15.7375 17.9079 15.6802 18.032 15.6134 18.1561C15.5752 18.2324 15.5274 18.3088 15.4606 18.3661C14.4487 19.3208 13.3412 20.1609 12.1383 20.8673C12.0906 20.8959 12.0429 20.9246 12.0047 20.9437Z" fill="#00C4B3"/>
</svg>