<svg width="24" height="24" viewBox="0 0 24 24" fill="none" xmlns="http://www.w3.org/2000/svg">
<path d="M3 4V7.01991V10.0398V13.0664H6.01991V10.0398V7.01991V4H3Z" fill="#424242"/>
<path d="M17.9801 10.04V13.0666V16.0865V19.1064H21V16.0865V13.0666V10.04H17.9801Z" fill="#424242"/>
<path d="M11.9336 4V7.01991V9.91372L14.9535 12.9336V10.0398V7.01991L11.9336 4Z" fill="#424242"/>
<path d="M9.04639 10.1729V13.0667V16.0866L12.0663 19.1065V16.0866V13.1928L9.04639 10.1729Z" fill="#424242"/>
<path d="M11.9336 4H14.9535L21 10.0398H17.9801L11.9336 4Z" fill="black"/>
<path d="M3 13.0664H6.01991L12.0664 19.1062H9.04646L3 13.0664Z" fill="black"/>
<path d="M14.9535 7.01991V10.0398V12.8938L6.0199 4V7.01991V7.20575V10.0398V13.0664L9.04645 16.0863V13.0664V10.2124L17.9801 19.1062V16.0863V15.9005V13.0664V10.0398L14.9535 7.01991Z" fill="#3CC68A"/>
</svg>
