<svg width="24" height="24" viewBox="0 0 24 24" fill="none" xmlns="http://www.w3.org/2000/svg">
<path fill-rule="evenodd" clip-rule="evenodd" d="M20.3333 22H15.3333C14.4142 22 13.6667 20.9952 13.6667 20.085V10.1141C13.6667 9.20395 14.4142 8.64342 15.3333 8.64342H20.3333C21.2525 8.64342 22 9.20395 22 10.1141V20.085C22 20.9952 21.2525 22 20.3333 22ZM20.3333 20.085V10.3051H15.3333V20.3391H20.3333V20.085ZM17 11.1953H18.6667C19.1267 11.1953 19.5 11.5698 19.5 12.0257C19.5 12.4825 19.1267 12.8562 18.6667 12.8562H17C16.54 12.8562 16.1667 12.4825 16.1667 12.0257C16.1667 11.5698 16.54 11.1953 17 11.1953ZM18.6667 19.5203H17V17.8695H18.6667V19.5203ZM17.9467 6.94436C17.9075 6.94935 17.87 6.95184 17.8317 6.95184C17.4225 6.95184 17.065 6.65122 17.0075 6.2385C16.8 4.73626 14.9033 3.53214 12.8758 3.65836C12.4333 3.70238 12.025 3.33201 12.0017 2.8761C11.9775 2.42103 12.3308 2.03239 12.7908 2.00914C15.6925 1.86464 18.3333 3.65836 18.6592 6.01429C18.7208 6.46604 18.4025 6.88208 17.9467 6.94436ZM11.2092 21.7957C11.0967 21.8015 10.9842 21.804 10.8725 21.804C8.09669 21.804 5.65169 20.056 5.34086 17.7906C5.27919 17.3388 5.59836 16.9228 6.05419 16.8613C6.51169 16.8015 6.93086 17.1146 6.99252 17.5672C7.19836 19.0703 9.09336 20.2694 11.1242 20.1473C11.5559 20.105 11.975 20.4728 11.9992 20.9288C12.0225 21.3847 11.6692 21.7725 11.2092 21.7957ZM8.66667 15.3566H3.66667C2.7475 15.3566 2 14.3933 2 13.484V3.51221C2 2.60206 2.7475 2 3.66667 2H8.66667C9.58583 2 10.3333 2.60206 10.3333 3.51221V13.484C10.3333 14.3933 9.58583 15.3566 8.66667 15.3566ZM8.66667 13.484V3.66168H3.66667V13.6957H8.66667V13.484ZM5.33333 4.54525H7C7.46 4.54525 7.83333 4.91396 7.83333 5.3707C7.83333 5.8266 7.46 6.19531 7 6.19531H5.33333C4.87333 6.19531 4.5 5.8266 4.5 5.3707C4.5 4.91396 4.87333 4.54525 5.33333 4.54525ZM7 12.8404H5.33333V11.1895H7V12.8404Z" fill="#6B7084"/>
</svg>
