<svg viewBox="0 0 24 24" fill="none" xmlns="http://www.w3.org/2000/svg">
<path fill-rule="evenodd" clip-rule="evenodd" d="M21.8754 21.6042C21.724 21.85 21.4555 22 21.1669 22H11.1665C10.8779 22 10.6094 21.85 10.458 21.6042C10.3057 21.3592 10.2923 21.0525 10.4212 20.7942L11.9996 17.6367V13.6667C11.9996 13.2058 12.3727 12.8333 12.8336 12.8333H19.4997C19.9598 12.8333 20.3337 13.2058 20.3337 13.6667V17.6367L21.9122 20.7942C22.041 21.0525 22.0276 21.3592 21.8754 21.6042ZM18.7025 14.5H13.6668V17H18.7025V14.5ZM18.9853 18.6667H13.3481L12.5149 20.3333H19.8184L18.9853 18.6667ZM18.7795 9.4925C18.741 9.4975 18.7033 9.5 18.6657 9.5C18.2558 9.5 17.8978 9.1975 17.8409 8.78C17.6334 7.2625 15.7455 6.07417 13.7086 6.17333C13.2611 6.20417 12.8579 5.8425 12.8344 5.38333C12.811 4.92333 13.164 4.53167 13.6241 4.50833C16.5385 4.36333 19.1668 6.175 19.4921 8.55333C19.5541 9.01 19.2353 9.43 18.7795 9.4925ZM13.5789 9.96083C13.7078 10.2183 13.6935 10.525 13.5421 10.7708C13.3907 11.0167 13.1222 11.1667 12.8336 11.1667H2.83324C2.54381 11.1667 2.27613 11.0167 2.12388 10.7708C1.97248 10.525 1.95909 10.2183 2.08792 9.96083L3.66639 6.80333V2.83333C3.66639 2.3725 4.03947 2 4.49955 2H11.1665C11.6265 2 11.9996 2.3725 11.9996 2.83333V6.80333L13.5789 9.96083ZM11.4844 9.5L10.6512 7.83333H5.01486L4.1817 9.5H11.4844ZM10.3333 3.66667H5.33272V6.16667H10.3333V3.66667ZM5.22056 12.8408C5.67813 12.7825 6.09722 13.0975 6.15912 13.5542C6.3649 15.0708 8.25706 16.2592 10.2906 16.16C10.7523 16.1342 11.1422 16.4917 11.1656 16.95C11.189 17.41 10.8352 17.8017 10.3759 17.825C10.2647 17.8308 10.1526 17.8333 10.043 17.8333C7.26497 17.8333 4.81821 16.0675 4.50786 13.7792C4.44513 13.3233 4.76467 12.9033 5.22056 12.8408Z" fill="currentColor"/>
</svg>