<svg viewBox="0 0 24 24" fill="none" xmlns="http://www.w3.org/2000/svg">
<g clip-path="url(#clip0_1265_21253)">
<path d="M12 24C18.6274 24 24 18.6274 24 12C24 5.37258 18.6274 0 12 0C5.37258 0 0 5.37258 0 12C0 18.6274 5.37258 24 12 24Z" fill="#B3BA00"/>
<path d="M10.4454 9.10959L10.375 9.15238L13.625 14.1666V9.14804L12.0022 8.20825L10.4454 9.10959ZM10.375 14.7976L12.0737 15.7916L13.625 14.8859L10.375 9.83325V14.7976ZM8.75 10.0261V13.9738L9.83333 14.7083V9.29159L8.75 10.0261ZM14.1667 14.7083L15.25 13.957V10.0429L14.1667 9.29159V14.7083Z" fill="white"/>
<path d="M12 5.5C8.41146 5.5 5.5 8.41146 5.5 12C5.5 15.5885 8.41146 18.5 12 18.5C15.5885 18.5 18.5 15.5885 18.5 12C18.5 8.41146 15.5885 5.5 12 5.5ZM11.9729 16.1275L8.46508 14.0475V9.894L11.9735 7.81942L15.4813 9.894V14.048L11.9735 16.127L11.9729 16.1275Z" fill="white"/>
</g>
<defs>
<clipPath id="clip0_1265_21253">
<rect width="24" height="24" fill="white"/>
</clipPath>
</defs>
</svg>