<svg viewBox="0 0 24 24" fill="none" xmlns="http://www.w3.org/2000/svg">
<g clip-path="url(#clip0_4887_17259)">
<path fill-rule="evenodd" clip-rule="evenodd" d="M2 12C2 6.5 6.5 2 12 2C16.8333 2 21 5.41667 21.8333 10.25C21.9167 10.75 21.5833 11.1667 21.1667 11.25C20.6667 11.3333 20.25 11 20.1667 10.5833C20.1667 10.5 20.1458 10.4375 20.125 10.375C20.1042 10.3125 20.0833 10.25 20.0833 10.1667H19.75H19.5H15.8333C15.8333 10.2012 15.8476 10.2357 15.8644 10.2761C15.8881 10.3333 15.9167 10.4024 15.9167 10.5C15.9167 10.9167 15.5833 11.3333 15.1667 11.4167H15.0833C14.6667 11.4167 14.3333 11.0833 14.25 10.6667C14.25 10.529 14.2247 10.4167 14.202 10.3156C14.1835 10.2332 14.1667 10.1582 14.1667 10.0833H11.8333H9.66667C9.5 11.1667 9.41667 12.25 9.58333 13.5C9.58333 13.5833 9.60417 13.6667 9.625 13.75C9.64583 13.8333 9.66667 13.9167 9.66667 14H12C12.5 14 12.8333 14.3333 12.8333 14.8333C12.8333 15.3333 12.5 15.6667 12 15.6667H10.0833C10.5833 17.6667 11.5833 19.25 12.4167 20.3333C12.8333 20.3333 13.25 20.25 13.6666 20.1667L13.6667 20.1667C14.1667 20.0833 14.5833 20.4167 14.6667 20.8333C14.75 21.3333 14.4167 21.75 14 21.8333C13.3333 21.9167 12.6667 22 12 22C6.5 22 2 17.5 2 12ZM8.33333 8.41667C8.75 6.5 9.58333 5 10.25 3.83333C7.75 4.41667 5.58333 6.08333 4.5 8.41667H8.33333ZM4.58333 15.6667C5.66667 17.9167 7.75 19.5833 10.25 20.1667C9.5 19 8.75 17.5 8.33333 15.6667H4.58333ZM8 14C7.91667 13.9167 7.91667 13.75 7.91667 13.6667C7.75 12.4167 7.83333 11.1667 8 10.0833H4.16667H3.91667C3.75 10.6667 3.66667 11.3333 3.66667 12C3.66667 12.6667 3.75 13.3333 3.91667 14H8ZM10.0833 8.41667H11.8333H13.9167C13.4167 6.66667 12.6667 5.25 12 4.33333C11.3333 5.33333 10.5833 6.66667 10.0833 8.41667ZM15.5 8.41667H19.5C18.4167 6 16.1667 4.33333 13.5 3.83333C14.25 4.91667 15 6.5 15.5 8.41667ZM22 15.8348C22 13.6024 20.4225 11.9813 18.25 11.9813C16.0775 11.9813 14.5 13.6024 14.5 15.8348C14.5 18.9308 17.5683 21.6735 17.6983 21.7888C17.8558 21.9274 18.0533 21.9967 18.25 21.9967C18.4467 21.9967 18.6442 21.9274 18.8017 21.7888C18.9317 21.6735 22 18.9308 22 15.8348ZM20.3333 15.835C20.3333 17.4961 19.0192 19.1573 18.2467 19.99C17.385 19.0579 16.1667 17.3967 16.1667 15.835C16.1667 14.5062 16.9842 13.6476 18.25 13.6476C19.5158 13.6476 20.3333 14.5062 20.3333 15.835Z" fill="currentColor"/>
</g>
<defs>
<clipPath id="clip0_4887_17259">
<rect width="24" height="24" fill="white"/>
</clipPath>
</defs>
</svg>