<svg viewBox="0 0 24 24" fill="none" xmlns="http://www.w3.org/2000/svg">
<path fill-rule="evenodd" clip-rule="evenodd" d="M12.2084 2.02597C12.6708 2.14156 12.9519 2.61008 12.8363 3.07243L12.2988 5.22235C12.1832 5.68471 11.7147 5.96582 11.2523 5.85023C10.79 5.73464 10.5089 5.26612 10.6245 4.80377L11.1619 2.65385C11.2775 2.19149 11.746 1.91038 12.2084 2.02597ZM5.01186 2.0002C5.48845 2.0002 5.8748 2.38655 5.8748 2.86314V3.07516H6.08682C6.56341 3.07516 6.94976 3.46151 6.94976 3.9381C6.94976 4.41469 6.56341 4.80104 6.08682 4.80104H5.8748V5.01306C5.8748 5.48965 5.48845 5.876 5.01186 5.876C4.53528 5.876 4.14893 5.48965 4.14893 5.01306V4.80104H3.9369C3.46031 4.80104 3.07397 4.41469 3.07397 3.9381C3.07397 3.46151 3.46031 3.07516 3.9369 3.07516H4.14893V2.86314C4.14893 2.38655 4.53528 2.0002 5.01186 2.0002ZM20.0613 2.0002C20.5379 2.0002 20.9242 2.38655 20.9242 2.86314V3.07516H21.1363C21.6129 3.07516 21.9992 3.46151 21.9992 3.9381C21.9992 4.41469 21.6129 4.80104 21.1363 4.80104H20.9242V5.01306C20.9242 5.48965 20.5379 5.876 20.0613 5.876C19.5847 5.876 19.1984 5.48965 19.1984 5.01306V4.80104H18.9864C18.5098 4.80104 18.1234 4.41469 18.1234 3.9381C18.1234 3.46151 18.5098 3.07516 18.9864 3.07516H19.1984V2.86314C19.1984 2.38655 19.5847 2.0002 20.0613 2.0002ZM16.3717 7.62776C16.7087 7.96475 16.7087 8.51113 16.3717 8.84813L15.2967 9.92309C14.9597 10.2601 14.4133 10.2601 14.0763 9.92309C13.7393 9.58609 13.7393 9.03971 14.0763 8.70272L15.1513 7.62776C15.4883 7.29076 16.0347 7.29076 16.3717 7.62776ZM7.52725 8.46358C7.80535 8.41359 8.09031 8.50292 8.2901 8.70272L15.2967 15.7093C15.4965 15.9091 15.5858 16.194 15.5358 16.4721C15.4859 16.7502 15.3029 16.9862 15.0461 17.1039L4.7479 21.8246C4.38794 21.989 3.98634 22.0394 3.59692 21.9691C3.20749 21.8989 2.84884 21.7113 2.56903 21.4315C2.28922 21.1516 2.10161 20.793 2.03134 20.4036C1.96107 20.0141 2.0115 19.6125 2.17587 19.2526L2.17635 19.2515L6.89543 8.95341C7.01314 8.69654 7.24915 8.51357 7.52725 8.46358ZM7.94736 10.8007L3.74581 19.9695C3.72774 20.0093 3.72202 20.0541 3.72978 20.0971C3.73757 20.1403 3.75838 20.1801 3.78941 20.2111C3.82044 20.2421 3.86021 20.2629 3.90339 20.2707C3.94643 20.2785 3.99082 20.2729 4.03064 20.2549L13.1988 16.0522L7.94736 10.8007ZM21.9734 11.791C22.089 12.2534 21.8079 12.7219 21.3456 12.8375L19.1956 13.375C18.7333 13.4905 18.2648 13.2094 18.1492 12.7471C18.0336 12.2847 18.3147 11.8162 18.7771 11.7006L20.927 11.1631C21.3893 11.0475 21.8579 11.3287 21.9734 11.791ZM20.0613 17.0497C20.5379 17.0497 20.9242 17.436 20.9242 17.9126V18.1246H21.1363C21.6129 18.1246 21.9992 18.511 21.9992 18.9876C21.9992 19.4641 21.6129 19.8505 21.1363 19.8505H20.9242V20.0625C20.9242 20.5391 20.5379 20.9254 20.0613 20.9254C19.5847 20.9254 19.1984 20.5391 19.1984 20.0625V19.8505H18.9864C18.5098 19.8505 18.1234 19.4641 18.1234 18.9876C18.1234 18.511 18.5098 18.1246 18.9864 18.1246H19.1984V17.9126C19.1984 17.436 19.5847 17.0497 20.0613 17.0497Z" fill="currentColor"/>
</svg>