<svg viewBox="0 0 24 24" fill="none" xmlns="http://www.w3.org/2000/svg">
<g clip-path="url(#clip0_3773_15353)">
<path fill-rule="evenodd" clip-rule="evenodd" d="M12.0002 3.80001C7.47146 3.80001 3.8002 7.47128 3.8002 12C3.8002 16.5287 7.47146 20.2 12.0002 20.2C16.5289 20.2 20.2002 16.5287 20.2002 12C20.2002 7.47128 16.5289 3.80001 12.0002 3.80001ZM2.2002 12C2.2002 6.58762 6.5878 2.20001 12.0002 2.20001C17.4126 2.20001 21.8002 6.58762 21.8002 12C21.8002 17.4124 17.4126 21.8 12.0002 21.8C6.5878 21.8 2.2002 17.4124 2.2002 12ZM8.39449 8.86191C8.50487 8.64114 8.80538 8.20001 9.3752 8.20001C9.94501 8.20001 10.2455 8.64114 10.3559 8.86191C10.4902 9.13053 10.5502 9.44564 10.5502 9.75001C10.5502 10.0544 10.4902 10.3695 10.3559 10.6381C10.2455 10.8589 9.94501 11.3 9.3752 11.3C8.80538 11.3 8.50487 10.8589 8.39449 10.6381C8.26018 10.3695 8.2002 10.0544 8.2002 9.75001C8.2002 9.44564 8.26018 9.13053 8.39449 8.86191ZM13.6445 8.86191C13.7549 8.64114 14.0554 8.20001 14.6252 8.20001C15.195 8.20001 15.4955 8.64114 15.6059 8.86191C15.7402 9.13053 15.8002 9.44564 15.8002 9.75001C15.8002 10.0544 15.7402 10.3695 15.6059 10.6381C15.4955 10.8589 15.195 11.3 14.6252 11.3C14.0554 11.3 13.7549 10.8589 13.6445 10.6381C13.5102 10.3695 13.4502 10.0544 13.4502 9.75001C13.4502 9.44564 13.5102 9.13053 13.6445 8.86191ZM8.25253 14.6163C8.56495 14.3039 9.07148 14.3039 9.3839 14.6163C10.8288 16.0612 13.1716 16.0612 14.6165 14.6163C14.9289 14.3039 15.4354 14.3039 15.7479 14.6163C16.0603 14.9287 16.0603 15.4353 15.7479 15.7477C13.6781 17.8175 10.3223 17.8175 8.25253 15.7477C7.94011 15.4353 7.94011 14.9287 8.25253 14.6163Z" fill="currentColor"/>
</g>
<defs>
<clipPath id="clip0_3773_15353">
<rect width="24" height="24" fill="white"/>
</clipPath>
</defs>
</svg>