<svg width="24" height="24" viewBox="0 0 24 24" fill="none" xmlns="http://www.w3.org/2000/svg">
<g clip-path="url(#clip0_3774_15368)">
<path fill-rule="evenodd" clip-rule="evenodd" d="M3.8002 8.25001C3.8002 6.23702 5.5096 4.55001 7.6877 4.55001C9.07479 4.55001 10.2797 5.2391 10.9661 6.26096L8.28615 8.94574C7.93809 9.29454 7.74255 9.76755 7.74255 10.2608C7.74255 10.754 7.93818 11.2271 8.28624 11.5759L8.83865 12.1293C9.86837 13.1609 11.5392 13.1609 12.5689 12.1293L13.5862 11.1101C14.0359 10.6596 14.6458 10.4065 15.2818 10.4065C15.9177 10.4065 16.5276 10.6596 16.9773 11.1101L18.8087 12.9287C18.476 13.4863 18.0982 14.0177 17.6921 14.5203L15.8752 12.7237C15.5475 12.3954 15.0161 12.3954 14.6883 12.7237C14.3605 13.0521 14.3605 13.5845 14.6883 13.9128L16.5702 15.7738C16.3674 15.9799 16.1617 16.1796 15.9547 16.3725C15.6849 16.6241 15.4148 16.8623 15.1488 17.0867L13.3319 15.2716C13.0041 14.9433 12.4727 14.9433 12.145 15.2716C11.8172 15.6 11.8172 16.1324 12.145 16.4607L13.9077 18.0637C13.5678 18.3136 13.2492 18.5343 12.9636 18.7242C12.5661 18.9884 12.2343 19.1917 12.0002 19.3299C11.766 19.1917 11.4342 18.9884 11.0368 18.7242C10.2187 18.1803 9.13056 17.3839 8.04569 16.3725C5.84986 14.3256 3.8002 11.5245 3.8002 8.25001ZM19.5901 11.3495C19.9735 10.3756 20.2002 9.33897 20.2002 8.25001C20.2002 6.23702 18.4908 4.55001 16.3127 4.55001C14.69 4.55001 13.3166 5.49308 12.7311 6.80872C12.6731 6.93901 12.5829 7.04839 12.4724 7.12919L9.47327 10.1347C9.43995 10.1681 9.42115 10.2135 9.42115 10.2608C9.42115 10.308 9.43986 10.3533 9.47318 10.3868L10.0256 10.9402C10.3998 11.315 11.0078 11.315 11.382 10.9402L12.3993 9.921C13.1638 9.15515 14.2006 8.72489 15.2818 8.72489C16.3629 8.72489 17.3997 9.15514 18.1642 9.921L19.5901 11.3495ZM11.6244 20.9563C11.6244 20.9563 11.625 20.9566 12.0002 20.25L12.3754 20.9566C12.1408 21.0812 11.8591 21.0809 11.6244 20.9563ZM11.6244 20.9563L12.0002 20.25C12.3754 20.9566 12.3767 20.9559 12.3767 20.9559L12.3788 20.9548L12.3854 20.9512L12.4083 20.9388C12.4277 20.9283 12.4555 20.913 12.491 20.8932C12.5619 20.8536 12.664 20.7957 12.7926 20.7201C13.0497 20.5688 13.4139 20.3461 13.8493 20.0566C14.7187 19.4787 15.8806 18.629 17.0457 17.5429C19.3499 15.395 21.8002 12.1961 21.8002 8.25001C21.8002 5.29244 19.3123 2.95001 16.3127 2.95001C14.5712 2.95001 13.0088 3.73554 12.0002 4.97193C10.9916 3.73554 9.42923 2.95001 7.6877 2.95001C4.68813 2.95001 2.2002 5.29244 2.2002 8.25001C2.2002 12.1961 4.65053 15.395 6.9547 17.5429C8.11983 18.629 9.28165 19.4787 10.1511 20.0566C10.5865 20.3461 10.9506 20.5688 11.2078 20.7201C11.3364 20.7957 11.4384 20.8536 11.5094 20.8932C11.5449 20.913 11.5726 20.9283 11.5921 20.9388L11.615 20.9512L11.6216 20.9548L11.6244 20.9563Z" fill="#6B7084"/>
</g>
<defs>
<clipPath id="clip0_3774_15368">
<rect width="24" height="24" fill="white"/>
</clipPath>
</defs>
</svg>
