<svg width="24" height="24" viewBox="0 0 24 24" fill="none" xmlns="http://www.w3.org/2000/svg">
<path fill-rule="evenodd" clip-rule="evenodd" d="M17.625 4.02271C18.2112 4.02271 18.7068 4.39528 18.8835 4.91678L21 11.0118V19.1591C21 19.6086 20.6314 19.9773 20.1818 19.9773H19.1591C18.7096 19.9773 18.3409 19.6086 18.3409 19.1591V17.9318H5.65909V19.1591C5.65909 19.6086 5.29044 19.9773 4.84091 19.9773H3.81818C3.36865 19.9773 3 19.6086 3 19.1591V11.0118L5.11568 4.91899C5.30315 4.3932 5.79124 4.02271 6.375 4.02271H17.625ZM18.6489 9.24884L17.4023 5.65907H6.58746L5.34085 9.24884H18.6489ZM4.63636 10.7727V16.2954H19.3636V10.7727H4.63636ZM8.72727 13.5341C8.72727 14.2684 8.13202 14.8636 7.39773 14.8636C6.66344 14.8636 6.06818 14.2684 6.06818 13.5341C6.06818 12.7998 6.66344 12.2045 7.39773 12.2045C8.13202 12.2045 8.72727 12.7998 8.72727 13.5341ZM17.9318 13.5341C17.9318 14.2684 17.3366 14.8636 16.6023 14.8636C15.868 14.8636 15.2727 14.2684 15.2727 13.5341C15.2727 12.7998 15.868 12.2045 16.6023 12.2045C17.3366 12.2045 17.9318 12.7998 17.9318 13.5341Z" fill="#6B7084"/>
</svg>
