<svg width="24" height="24" viewBox="0 0 24 24" fill="none" xmlns="http://www.w3.org/2000/svg">
<g clip-path="url(#clip0_3774_15496)">
<path fill-rule="evenodd" clip-rule="evenodd" d="M19.7292 21.3333H15.9358C14.6842 21.3333 13.6667 20.3483 13.6667 19.1367V10.1975C13.6667 8.98583 14.6842 8 15.9358 8H19.7292C20.9817 8 22 8.98583 22 10.1975V19.1367C22 20.3483 20.9817 21.3333 19.7292 21.3333ZM20.3333 10.1975C20.3333 9.91 20.0567 9.66667 19.7292 9.66667H15.9358C15.6092 9.66667 15.3333 9.91 15.3333 10.1975V19.1367C15.3333 19.4233 15.6092 19.6667 15.9358 19.6667H19.7292C20.0567 19.6667 20.3333 19.4233 20.3333 19.1367V10.1975ZM17 17.1667H18.6667V18.8333H17V17.1667ZM17.8333 12.1667C17.6167 12.1667 17.4 12.075 17.2417 11.925C17.0917 11.7658 17 11.5583 17 11.3333C17 11.1167 17.0917 10.9 17.2417 10.7417C17.55 10.4333 18.1167 10.4333 18.425 10.7417C18.575 10.9 18.6667 11.1167 18.6667 11.3333C18.6667 11.55 18.575 11.7658 18.425 11.925C18.2667 12.075 18.05 12.1667 17.8333 12.1667ZM19.5 7.16667C19.04 7.16667 18.6667 6.79417 18.6667 6.33333V4.66667H4.5V14.6667H12C12.46 14.6667 12.8333 15.0392 12.8333 15.5C12.8333 15.9608 12.46 16.3333 12 16.3333H3.66667V17.1667H12C12.46 17.1667 12.8333 17.5392 12.8333 18C12.8333 18.46 12.46 18.8333 12 18.8333H3.45917C2.655 18.8333 2 18.1792 2 17.375V15.5C2 15.0392 2.37333 14.6667 2.83333 14.6667V4.48167C2.83333 3.665 3.48 3 4.275 3H18.8917C19.6867 3 20.3333 3.665 20.3333 4.48167V6.33333C20.3333 6.79417 19.96 7.16667 19.5 7.16667Z" fill="#6B7084"/>
</g>
<defs>
<clipPath id="clip0_3774_15496">
<rect width="24" height="24" fill="white"/>
</clipPath>
</defs>
</svg>
