<svg width="24" height="24" viewBox="0 0 24 24" fill="none" xmlns="http://www.w3.org/2000/svg">
<g clip-path="url(#clip0_3773_15304)">
<path fill-rule="evenodd" clip-rule="evenodd" d="M21.97 5.71684L20.7475 9.72266C20.6485 10.088 20.3196 10.342 19.9446 10.342H18.6668V21.3026C18.6668 21.7692 18.3941 22 17.9335 22H6.18719C5.72657 22 5.33307 21.7692 5.33307 21.3026V10.342H4.05524C3.6802 10.342 3.3513 10.088 3.2523 9.72183L2.02985 5.7019C1.92581 5.31916 2.10032 4.91235 2.45103 4.7297L7.33917 2.17262C7.70078 1.9825 8.14714 2.08794 8.3913 2.42003C8.4064 2.43912 9.9955 4.55536 11.9999 4.55536C13.9808 4.55536 15.5859 2.3727 15.601 2.35112C15.846 2.00657 16.3024 1.90114 16.6724 2.09956L21.5606 4.7488C21.9037 4.93477 22.0732 5.3366 21.97 5.71684ZM16.4837 3.9111C15.7185 4.75959 14.0832 6.24154 11.9999 6.24154C9.91748 6.24154 8.28223 4.79944 7.51872 3.97752L3.81529 5.91443L4.69122 8.65582H6.16622C6.62684 8.65582 7.00021 9.03274 7.00021 9.4985L7.02622 20.3395H17.0945V9.87044C17.0382 9.75753 16.9996 9.63383 16.9996 9.4985C16.9996 9.03274 17.373 8.65582 17.8336 8.65582H19.3095L20.1871 5.91692L16.4837 3.9111Z" fill="#6B7084"/>
</g>
<defs>
<clipPath id="clip0_3773_15304">
<rect width="24" height="24" fill="white"/>
</clipPath>
</defs>
</svg>
