<svg viewBox="0 0 24 24" fill="none" xmlns="http://www.w3.org/2000/svg">
<path d="M14.8912 11.4108C14.5658 11.0853 14.0381 11.0853 13.7127 11.4108C13.3873 11.7362 13.3873 12.2638 13.7127 12.5893C14.0381 12.9147 14.5658 12.9147 14.8912 12.5893C15.2167 12.2638 15.2167 11.7362 14.8912 11.4108Z" fill="currentColor"/>
<path d="M15.4805 9.64298C15.8059 9.31755 16.3336 9.31755 16.659 9.64298C16.9844 9.96842 16.9844 10.4961 16.659 10.8215C16.3336 11.1469 15.8059 11.1469 15.4805 10.8215C15.1551 10.4961 15.1551 9.96842 15.4805 9.64298Z" fill="currentColor"/>
<path d="M18.4268 11.4108C18.1013 11.0853 17.5737 11.0853 17.2483 11.4108C16.9228 11.7362 16.9228 12.2638 17.2483 12.5893C17.5737 12.9147 18.1013 12.9147 18.4268 12.5893C18.7522 12.2638 18.7522 11.7362 18.4268 11.4108Z" fill="currentColor"/>
<path d="M15.4805 13.1785C15.8059 12.8531 16.3336 12.8531 16.659 13.1785C16.9844 13.504 16.9844 14.0316 16.659 14.3571C16.3336 14.6825 15.8059 14.6825 15.4805 14.3571C15.1551 14.0316 15.1551 13.504 15.4805 13.1785Z" fill="currentColor"/>
<path d="M7 12.8334H5.33333V11.1667H7V9.50002H8.66667V11.1667H10.3333V12.8334H8.66667V14.5H7V12.8334Z" fill="currentColor"/>
<path fill-rule="evenodd" clip-rule="evenodd" d="M7.83333 6.16669C4.61167 6.16669 2 8.77836 2 12C2 15.2217 4.61167 17.8334 7.83333 17.8334H16.1667C19.3883 17.8334 22 15.2217 22 12C22 8.77836 19.3883 6.16669 16.1667 6.16669H7.83333ZM16.1667 7.83335H7.83333C5.53215 7.83335 3.66667 9.69883 3.66667 12C3.66667 14.3012 5.53215 16.1667 7.83333 16.1667H16.1667C18.4679 16.1667 20.3333 14.3012 20.3333 12C20.3333 9.69883 18.4679 7.83335 16.1667 7.83335Z" fill="currentColor"/>
</svg>