<svg viewBox="0 0 24 24" fill="none" xmlns="http://www.w3.org/2000/svg">
<g clip-path="url(#clip0_3773_15294)">
<path fill-rule="evenodd" clip-rule="evenodd" d="M21.1666 20.5H14.4972C13.5771 20.5 12.828 21.2483 12.828 22.1667C12.828 22.6275 12.4554 23 11.9946 23C11.5337 23 11.1604 22.6275 11.1604 22.1667C11.1604 21.2483 10.4129 20.5 9.49198 20.5H2.8342C2.37335 20.5 2 20.1275 2 19.6667V3.83333C2 3.3725 2.37335 3 2.8342 3H9.53698C9.53948 3 9.54115 3.00083 9.54281 3.00083C9.54448 3.00083 9.54615 3 9.54865 3C10.5245 3 11.3929 3.4375 11.9946 4.11583C12.5963 3.4375 13.4638 3 14.4405 3C14.4447 3 14.448 3.0025 14.4522 3.0025C14.4564 3.0025 14.4597 3 14.4639 3H21.1666C21.6266 3 22 3.3725 22 3.83333V19.6667C22 20.1275 21.6266 20.5 21.1666 20.5ZM11.1604 6.27749C11.1604 5.38916 10.4379 4.66666 9.54866 4.66666C9.54616 4.66666 9.54449 4.66583 9.54283 4.66583C9.54116 4.66583 9.53949 4.66666 9.53699 4.66666H3.66758V18.8333H9.53699C9.55283 18.8333 9.56616 18.8417 9.582 18.8425C10.1579 18.8575 10.6929 19.0242 11.1604 19.2967V6.27749ZM20.3324 4.66667H14.4638C14.4597 4.66667 14.4563 4.665 14.4522 4.665C14.448 4.665 14.4447 4.66667 14.4405 4.66667C13.5513 4.66667 12.8279 5.38917 12.8279 6.2775V19.2975C13.303 19.0208 13.8455 18.8517 14.4297 18.84C14.4413 18.8392 14.4513 18.8333 14.4638 18.8333H20.3324V4.66667ZM13.6621 14.6667C13.6621 14.2058 14.0355 13.8333 14.4963 13.8333H18.6648C19.1257 13.8333 19.4991 14.2058 19.4991 14.6667C19.4991 15.1275 19.1257 15.5 18.6648 15.5H14.4963C14.0355 15.5 13.6621 15.1275 13.6621 14.6667ZM18.6648 12.1667H14.4963C14.0355 12.1667 13.6621 11.7933 13.6621 11.3333C13.6621 10.8725 14.0355 10.5 14.4963 10.5H18.6648C19.1257 10.5 19.4991 10.8725 19.4991 11.3333C19.4991 11.7933 19.1257 12.1667 18.6648 12.1667ZM18.6648 8.83333H14.4963C14.0355 8.83333 13.6621 8.46083 13.6621 8C13.6621 7.53917 14.0355 7.16667 14.4963 7.16667H18.6648C19.1257 7.16667 19.4991 7.53917 19.4991 8C19.4991 8.46083 19.1257 8.83333 18.6648 8.83333ZM5.32428 15.5C4.86343 15.5 4.49008 15.1275 4.49008 14.6667C4.49008 14.2058 4.86343 13.8333 5.32428 13.8333H9.49279C9.95364 13.8333 10.327 14.2058 10.327 14.6667C10.327 15.1275 9.95364 15.5 9.49279 15.5H5.32428ZM9.49279 12.1667H5.32428C4.86343 12.1667 4.49008 11.7933 4.49008 11.3333C4.49008 10.8725 4.86343 10.5 5.32428 10.5H9.49279C9.95364 10.5 10.327 10.8725 10.327 11.3333C10.327 11.7933 9.95364 12.1667 9.49279 12.1667ZM9.49279 8.83333H5.32428C4.86343 8.83333 4.49008 8.46083 4.49008 8C4.49008 7.53917 4.86343 7.16667 5.32428 7.16667H9.49279C9.95364 7.16667 10.327 7.53917 10.327 8C10.327 8.46083 9.95364 8.83333 9.49279 8.83333Z" fill="currentColor"/>
</g>
<defs>
<clipPath id="clip0_3773_15294">
<rect width="24" height="24" fill="white"/>
</clipPath>
</defs>
</svg>