<svg width="24" height="24" viewBox="0 0 24 24" fill="none" xmlns="http://www.w3.org/2000/svg">
<g clip-path="url(#clip0_3773_15294)">
<path fill-rule="evenodd" clip-rule="evenodd" d="M21.1666 19.5H14.4972C13.5771 19.5 12.828 20.2483 12.828 21.1667C12.828 21.6275 12.4554 22 11.9946 22C11.5337 22 11.1604 21.6275 11.1604 21.1667C11.1604 20.2483 10.4129 19.5 9.49198 19.5H2.8342C2.37335 19.5 2 19.1275 2 18.6667V2.83333C2 2.3725 2.37335 2 2.8342 2H9.53698C9.53948 2 9.54115 2.00083 9.54281 2.00083C9.54448 2.00083 9.54615 2 9.54865 2C10.5245 2 11.3929 2.4375 11.9946 3.11583C12.5963 2.4375 13.4638 2 14.4405 2C14.4447 2 14.448 2.0025 14.4522 2.0025C14.4564 2.0025 14.4597 2 14.4639 2H21.1666C21.6266 2 22 2.3725 22 2.83333V18.6667C22 19.1275 21.6266 19.5 21.1666 19.5ZM11.1604 5.27749C11.1604 4.38916 10.4379 3.66666 9.54866 3.66666C9.54616 3.66666 9.54449 3.66583 9.54283 3.66583C9.54116 3.66583 9.53949 3.66666 9.53699 3.66666H3.66758V17.8333H9.53699C9.55283 17.8333 9.56616 17.8417 9.582 17.8425C10.1579 17.8575 10.6929 18.0242 11.1604 18.2967V5.27749ZM20.3324 3.66667H14.4638C14.4597 3.66667 14.4563 3.665 14.4522 3.665C14.448 3.665 14.4447 3.66667 14.4405 3.66667C13.5513 3.66667 12.8279 4.38917 12.8279 5.2775V18.2975C13.303 18.0208 13.8455 17.8517 14.4297 17.84C14.4413 17.8392 14.4513 17.8333 14.4638 17.8333H20.3324V3.66667ZM13.6621 13.6667C13.6621 13.2058 14.0355 12.8333 14.4963 12.8333H18.6648C19.1257 12.8333 19.4991 13.2058 19.4991 13.6667C19.4991 14.1275 19.1257 14.5 18.6648 14.5H14.4963C14.0355 14.5 13.6621 14.1275 13.6621 13.6667ZM18.6648 11.1667H14.4963C14.0355 11.1667 13.6621 10.7933 13.6621 10.3333C13.6621 9.8725 14.0355 9.5 14.4963 9.5H18.6648C19.1257 9.5 19.4991 9.8725 19.4991 10.3333C19.4991 10.7933 19.1257 11.1667 18.6648 11.1667ZM18.6648 7.83333H14.4963C14.0355 7.83333 13.6621 7.46083 13.6621 7C13.6621 6.53917 14.0355 6.16667 14.4963 6.16667H18.6648C19.1257 6.16667 19.4991 6.53917 19.4991 7C19.4991 7.46083 19.1257 7.83333 18.6648 7.83333ZM5.32428 14.5C4.86343 14.5 4.49008 14.1275 4.49008 13.6667C4.49008 13.2058 4.86343 12.8333 5.32428 12.8333H9.49279C9.95364 12.8333 10.327 13.2058 10.327 13.6667C10.327 14.1275 9.95364 14.5 9.49279 14.5H5.32428ZM9.49279 11.1667H5.32428C4.86343 11.1667 4.49008 10.7933 4.49008 10.3333C4.49008 9.8725 4.86343 9.5 5.32428 9.5H9.49279C9.95364 9.5 10.327 9.8725 10.327 10.3333C10.327 10.7933 9.95364 11.1667 9.49279 11.1667ZM9.49279 7.83333H5.32428C4.86343 7.83333 4.49008 7.46083 4.49008 7C4.49008 6.53917 4.86343 6.16667 5.32428 6.16667H9.49279C9.95364 6.16667 10.327 6.53917 10.327 7C10.327 7.46083 9.95364 7.83333 9.49279 7.83333Z" fill="#6B7084"/>
</g>
<defs>
<clipPath id="clip0_3773_15294">
<rect width="24" height="24" fill="white"/>
</clipPath>
</defs>
</svg>
