<svg width="24" height="24" viewBox="0 0 24 24" fill="none" xmlns="http://www.w3.org/2000/svg">
<g clip-path="url(#clip0_3773_15350)">
<path fill-rule="evenodd" clip-rule="evenodd" d="M5.8382 3.86467C4.98293 4.10005 4.34914 4.44616 3.98214 4.85415C3.36331 5.54208 3.40854 6.61937 4.0197 7.58951C4.12046 7.74944 4.18058 7.94085 4.18058 8.14464L4.18058 14.7465H7.24251C8.06099 12.943 9.085 11.2358 10.3111 10.1361C11.0246 9.49606 11.8484 9.02651 12.7648 8.90426V8.13333C12.7648 7.95928 12.8088 7.79138 12.8879 7.64362C13.1746 7.10807 13.3536 6.61953 13.381 6.1643C13.4066 5.73684 13.3021 5.2931 12.9277 4.81147C12.6996 4.51793 12.1885 4.19808 11.3814 3.94949C10.6001 3.70885 9.64323 3.56651 8.65547 3.54734C7.66787 3.52818 6.68086 3.63276 5.8382 3.86467ZM14.3032 9.03199C14.4004 9.06112 14.4975 9.09422 14.5943 9.13127C14.7232 7.48454 15.2515 6.21388 15.973 5.52161C16.4301 5.083 17.1108 4.76572 17.8169 5.06452C18.1701 5.21399 18.4338 5.48063 18.626 5.80912C18.6877 5.78307 18.7519 5.75793 18.8181 5.73438C19.391 5.53057 20.3879 5.36498 21.1349 6.18704C21.8594 6.98447 21.6706 7.92094 21.4349 8.48025C21.3991 8.56506 21.3607 8.64583 21.3214 8.72181C21.4241 8.81391 21.5205 8.91515 21.6066 9.02479C21.9029 9.40225 22.1497 9.99163 21.8918 10.6443C21.6543 11.2456 21.0714 11.6675 20.3156 11.9725C19.7431 12.2035 18.9923 12.3998 18.0263 12.5526C18.1616 12.9008 18.2459 13.2522 18.2782 13.6059C18.344 14.3265 18.1894 15.0067 17.8823 15.6306C17.2816 16.8513 16.0902 17.8754 14.7345 18.7165C12.2798 20.2395 8.97419 21.3518 6.44246 21.97C5.69536 22.1524 5.02842 21.4746 5.21019 20.7294C5.46575 19.6818 5.80346 18.511 6.2164 17.3271C6.33656 16.9826 6.46325 16.6365 6.59631 16.2916H3.66779C3.10139 16.2916 2.64223 15.8304 2.64223 15.2615L2.64223 8.28828C1.88755 7.00299 1.61876 5.17667 2.84069 3.81829C3.48305 3.10421 4.4328 2.64938 5.43168 2.37448C6.44318 2.09611 7.58094 1.98108 8.68518 2.00251C9.78925 2.02393 10.8913 2.18238 11.8324 2.47227C12.7477 2.7542 13.6226 3.19462 14.1403 3.8606C14.7441 4.63737 14.9649 5.45191 14.9165 6.25736C14.8727 6.98758 14.6104 7.66607 14.3032 8.26054V9.03199ZM8.01735 16.8846C7.89561 17.2013 7.77918 17.5198 7.66824 17.8379C7.38075 18.6622 7.1311 19.4806 6.92226 20.2512C8.91136 19.7118 11.1952 18.9066 13.0747 17.8935L12.0323 16.8504C11.7313 16.5493 11.7304 16.0602 12.0302 15.7579C12.33 15.4556 12.817 15.4547 13.1179 15.7558L14.4328 17.0714C15.4343 16.3832 16.1499 15.664 16.5033 14.946C16.7017 14.5427 16.7828 14.1468 16.7463 13.7471C16.7096 13.3452 16.5494 12.8898 16.1892 12.3776C16.0211 12.1384 15.8098 11.8877 15.5486 11.6263C15.3204 11.3981 15.1004 11.2079 14.8889 11.0511C14.3509 10.6525 13.8734 10.4736 13.4539 10.4295C12.9764 10.3793 12.492 10.4975 11.9954 10.7945L13.3311 12.1309C13.632 12.432 13.6329 12.9212 13.3331 13.2235C13.0333 13.5257 12.5463 13.5267 12.2454 13.2256L10.8252 11.8046C10.0344 12.6943 9.303 13.9388 8.66057 15.3473L10.3475 17.0352C10.6485 17.3363 10.6494 17.8254 10.3496 18.1277C10.0498 18.43 9.56279 18.4309 9.26184 18.1298L8.01735 16.8846ZM17.1631 11.1142C18.3872 10.961 19.2096 10.7536 19.7422 10.5387C20.304 10.3121 20.4361 10.1219 20.4584 10.0817C20.4531 10.066 20.438 10.0316 20.3986 9.98145C20.2978 9.85301 20.122 9.72829 19.9623 9.66439L18.9338 9.25275L19.6741 8.43121L19.6755 8.42968L19.6775 8.42733C19.6816 8.42253 19.6893 8.41347 19.6998 8.40055C19.7209 8.37456 19.7527 8.33386 19.7897 8.28156C19.8656 8.17415 19.9533 8.03193 20.0182 7.87793C20.1554 7.55234 20.1265 7.36936 19.9985 7.22858C19.893 7.11243 19.7179 7.05346 19.3317 7.19083C19.157 7.253 18.9926 7.34031 18.8677 7.4164C18.8067 7.45353 18.7586 7.48586 18.7274 7.50769C18.7118 7.51855 18.7007 7.52665 18.6944 7.53125L18.6892 7.53517L17.7203 8.28303L17.4696 7.0792C17.3864 6.67947 17.2716 6.5402 17.2304 6.50029C17.1971 6.5114 17.1335 6.5449 17.0356 6.63886C16.6092 7.04797 16.0777 8.18353 16.1029 10.0445C16.2808 10.1928 16.4579 10.3552 16.6342 10.5317C16.8273 10.7249 17.0036 10.919 17.1631 11.1142ZM17.2586 6.49611C17.2585 6.49694 17.2539 6.49784 17.2451 6.49632C17.2543 6.49452 17.2587 6.49528 17.2586 6.49611Z" fill="#6B7084"/>
</g>
<defs>
<clipPath id="clip0_3773_15350">
<rect width="24" height="24" fill="white"/>
</clipPath>
</defs>
</svg>
