<svg viewBox="0 0 24 24" fill="none" xmlns="http://www.w3.org/2000/svg">
<path fill-rule="evenodd" clip-rule="evenodd" d="M10.7461 4.83661V9.31093C10.7461 10.0678 10.4454 10.7937 9.91024 11.3289L7.95349 13.2857C9.46962 13.2289 10.9903 13.5548 12.3578 14.2385C13.9431 15.0312 15.7778 15.2389 17.4929 14.8101L17.5554 14.7945L14.0898 11.3289C13.5546 10.7937 13.2539 10.0678 13.2539 9.31093V4.83661C12.8391 4.81233 12.4211 4.80001 12 4.80001C11.579 4.80001 11.1609 4.81233 10.7461 4.83661ZM14.8539 4.96135C15.2015 4.91091 15.4868 4.63393 15.5324 4.2685C15.5871 3.83007 15.276 3.43033 14.8375 3.37566C14.6021 3.3463 14.3656 3.32054 14.128 3.29845C13.4272 3.2333 12.7174 3.20001 12 3.20001C11.2826 3.20001 10.5728 3.2333 9.87206 3.29845C9.63448 3.32054 9.39794 3.3463 9.16251 3.37566C8.72407 3.43033 8.41297 3.83007 8.46765 4.2685C8.51321 4.63393 8.79851 4.91091 9.14613 4.96135V9.31093C9.14613 9.64348 9.01402 9.96241 8.77887 10.1976L3.0342 15.9422C1.49448 17.4819 2.17107 20.2058 4.43906 20.593C6.89718 21.0126 9.4234 21.2311 12 21.2311C14.5766 21.2311 17.1028 21.0126 19.561 20.593C21.829 20.2058 22.5055 17.482 20.9658 15.9422L15.2212 10.1976C14.986 9.96241 14.8539 9.64348 14.8539 9.31093V4.96135ZM18.8748 16.1139L17.8809 16.3624C15.7909 16.8849 13.5651 16.631 11.6422 15.6696C10.0569 14.8769 8.22224 14.6693 6.50714 15.098L6.01914 15.22L4.16557 17.0736C3.45624 17.7829 3.84105 18.8677 4.70832 19.0158C7.07787 19.4203 9.51401 19.6311 12 19.6311C14.486 19.6311 16.9222 19.4203 19.2917 19.0158C20.159 18.8677 20.5438 17.7829 19.8345 17.0736L18.8748 16.1139Z" fill="currentColor"/>
</svg>