<svg width="24" height="24" viewBox="0 0 24 24" fill="none" xmlns="http://www.w3.org/2000/svg">
<path fill-rule="evenodd" clip-rule="evenodd" d="M11.5699 2.63025C11.8304 2.45658 12.1698 2.45658 12.4303 2.63025L21.1547 8.44657C21.5111 8.68415 21.6074 9.16564 21.3698 9.52201C21.1323 9.87838 20.6508 9.97468 20.2944 9.7371L12.0001 4.20756L3.70577 9.7371C3.3494 9.97468 2.86791 9.87838 2.63033 9.52201C2.39275 9.16564 2.48905 8.68415 2.84542 8.44657L11.5699 2.63025ZM11.2246 6.91071C11.2246 6.48241 11.5718 6.1352 12.0001 6.1352H12.0074C12.4357 6.1352 12.7829 6.48241 12.7829 6.91071V6.91799C12.7829 7.34629 12.4357 7.6935 12.0074 7.6935H12.0001C11.5718 7.6935 11.2246 7.34629 11.2246 6.91799V6.91071ZM5.50518 11.0517V19.949H7.58937V12.727C7.58937 12.2987 7.93658 11.9515 8.36488 11.9515C8.79318 11.9515 9.14039 12.2987 9.14039 12.727V19.949H11.2246V12.727C11.2246 12.2987 11.5718 11.9515 12.0001 11.9515C12.4284 11.9515 12.7756 12.2987 12.7756 12.727V19.949H14.8598V12.727C14.8598 12.2987 15.207 11.9515 15.6353 11.9515C16.0636 11.9515 16.4108 12.2987 16.4108 12.727V19.949H18.495V11.0517C16.3738 10.7503 14.2054 10.5944 12.0001 10.5944C9.79481 10.5944 7.6264 10.7503 5.50518 11.0517ZM20.046 19.949V10.3835C20.046 10.0017 19.768 9.67661 19.3907 9.61741C16.9822 9.23949 14.5138 9.04337 12.0001 9.04337C9.4864 9.04337 7.01799 9.23949 4.60946 9.61741C4.23219 9.67661 3.95416 10.0017 3.95416 10.3835V19.949H3.27559C2.84729 19.949 2.50008 20.2962 2.50008 20.7245C2.50008 21.1528 2.84729 21.5 3.27559 21.5H20.7246C21.1529 21.5 21.5001 21.1528 21.5001 20.7245C21.5001 20.2962 21.1529 19.949 20.7246 19.949H20.046Z" fill="#6B7084"/>
</svg>
