<svg viewBox="0 0 24 24" fill="none" xmlns="http://www.w3.org/2000/svg">
<path fill-rule="evenodd" clip-rule="evenodd" d="M2 4.72961C2 3.64476 2.87944 2.76532 3.96429 2.76532H15.4439C16.5287 2.76532 17.4082 3.64476 17.4082 4.72961V6.59185H20.0357C21.1206 6.59185 22 7.47129 22 8.55614V18.1225C22 19.8413 20.6066 21.2347 18.8878 21.2347H5.11225C3.3934 21.2347 2 19.8413 2 18.1225V4.72961ZM16.149 19.6021H5.11225C4.29509 19.6021 3.63265 18.9396 3.63265 18.1225V4.72961C3.63265 4.54645 3.78113 4.39797 3.96429 4.39797H15.4439C15.627 4.39797 15.7755 4.54645 15.7755 4.72961V18.1225C15.7755 18.658 15.9108 19.162 16.149 19.6021ZM18.8878 19.6021C19.7049 19.6021 20.3673 18.9396 20.3673 18.1225V8.55614C20.3673 8.37298 20.2189 8.2245 20.0357 8.2245H17.4082V18.1225C17.4082 18.9396 18.0706 19.6021 18.8878 19.6021ZM5.06122 7.40818C5.06122 6.95733 5.42671 6.59185 5.87755 6.59185H8.93878C9.38962 6.59185 9.7551 6.95733 9.7551 7.40818V10.4694C9.7551 10.9202 9.38962 11.2857 8.93878 11.2857H5.87755C5.42671 11.2857 5.06122 10.9202 5.06122 10.4694V7.40818ZM6.69388 8.2245V9.65307H8.12245V8.2245H6.69388ZM11.1837 7.40818C11.1837 6.95733 11.5492 6.59185 12 6.59185H13.5306C13.9815 6.59185 14.3469 6.95733 14.3469 7.40818C14.3469 7.85902 13.9815 8.2245 13.5306 8.2245H12C11.5492 8.2245 11.1837 7.85902 11.1837 7.40818ZM11.1837 10.4694C11.1837 10.0186 11.5492 9.65307 12 9.65307H13.5306C13.9815 9.65307 14.3469 10.0186 14.3469 10.4694C14.3469 10.9202 13.9815 11.2857 13.5306 11.2857H12C11.5492 11.2857 11.1837 10.9202 11.1837 10.4694ZM5.06122 13.5306C5.06122 13.0798 5.42671 12.7143 5.87755 12.7143H13.5306C13.9815 12.7143 14.3469 13.0798 14.3469 13.5306C14.3469 13.9815 13.9815 14.347 13.5306 14.347H5.87755C5.42671 14.347 5.06122 13.9815 5.06122 13.5306ZM5.06122 16.5919C5.06122 16.141 5.42671 15.7755 5.87755 15.7755H13.5306C13.9815 15.7755 14.3469 16.141 14.3469 16.5919C14.3469 17.0427 13.9815 17.4082 13.5306 17.4082H5.87755C5.42671 17.4082 5.06122 17.0427 5.06122 16.5919Z" fill="currentColor"/>
</svg>