<svg viewBox="0 0 24 24" fill="none" xmlns="http://www.w3.org/2000/svg">
<path fill-rule="evenodd" clip-rule="evenodd" d="M18.9442 21.9883C18.925 21.99 18.9083 22 18.8883 22H5.445C5.425 22 5.40833 21.99 5.38917 21.9883C4.0625 21.9292 3 20.84 3 19.5V7.83333C3 7.3725 3.37333 7 3.83333 7H6.27833C6.2975 7 6.31417 7.01 6.33333 7.01083V2.83333C6.33333 2.3725 6.70667 2 7.16667 2H20.5C20.96 2 21.3333 2.3725 21.3333 2.83333V19.5C21.3333 20.84 20.2708 21.9292 18.9442 21.9883ZM6.33333 8.65583C6.31417 8.65667 6.2975 8.66667 6.27833 8.66667H4.66667V19.5C4.66667 19.96 5.04083 20.3333 5.5 20.3333C5.95917 20.3333 6.33333 19.96 6.33333 19.5V8.65583ZM19.6666 3.66667H7.99998V19.5C7.99998 19.7942 7.93998 20.0717 7.84665 20.3333H18.8333C19.2925 20.3333 19.6666 19.96 19.6666 19.5V3.66667ZM18 16.1667H9.66667C9.20667 16.1667 8.83333 15.7942 8.83333 15.3333C8.83333 14.8733 9.20667 14.5 9.66667 14.5H18C18.46 14.5 18.8333 14.8733 18.8333 15.3333C18.8333 15.7942 18.46 16.1667 18 16.1667ZM18 12.8333H9.66667C9.20667 12.8333 8.83333 12.4608 8.83333 12C8.83333 11.5392 9.20667 11.1667 9.66667 11.1667H18C18.46 11.1667 18.8333 11.5392 18.8333 12C18.8333 12.4608 18.46 12.8333 18 12.8333ZM14.6667 8.66667H9.66667C9.20667 8.66667 8.83333 8.29417 8.83333 7.83333C8.83333 7.3725 9.20667 7 9.66667 7H14.6667C15.1267 7 15.5 7.3725 15.5 7.83333C15.5 8.29417 15.1267 8.66667 14.6667 8.66667Z" fill="currentColor"/>
</svg>