<svg width="24" height="24" viewBox="0 0 24 24" fill="none" xmlns="http://www.w3.org/2000/svg">
<path fill-rule="evenodd" clip-rule="evenodd" d="M20.6906 8.46919L20.0616 6.79456L20.4985 5.83256C20.5547 5.70871 20.5277 5.56339 20.4305 5.46728L19.2416 4.28782C18.7217 3.77242 17.946 3.5952 17.2472 3.83288L16.9149 3.94589L15.1784 2H12.624H11.005H8.79353L7.0793 3.96945L6.75608 3.8579C6.05096 3.61459 5.26588 3.79369 4.74257 4.31722L3.53263 5.51878C3.45502 5.59571 3.43375 5.71122 3.47883 5.80983L3.93538 6.80832L3.30957 8.48212L3.71465 9.99121L5.55954 16.8697C5.77197 17.6628 6.26148 18.3573 6.94236 18.8329C6.94236 18.8329 9.18234 20.382 11.3928 21.7889C11.5871 21.9128 11.7904 22.0032 12.0086 21.9999C12.2267 22.0028 12.43 21.9128 12.624 21.7883C15.1066 20.1927 17.0707 18.8266 17.0707 18.8266C17.751 18.3502 18.2396 17.6549 18.4512 16.8615L20.2874 9.98037L20.6906 8.46919Z" fill="#6B7084"/>
<path fill-rule="evenodd" clip-rule="evenodd" d="M18.7277 8.80132L18.6989 8.89099L18.6531 9.05176C18.5309 9.20107 18.2732 9.48759 18.0803 9.68882L16.3067 11.5372C16.1138 11.7382 16.0049 11.9904 16.115 12.2444L16.3542 12.8224C16.4641 13.0762 16.475 13.4961 16.3695 13.7781C16.2624 14.065 16.078 14.3186 15.8363 14.5119L15.6512 14.6597C15.4329 14.8343 15.0462 14.8801 14.7917 14.7615L13.9748 14.3816C13.7205 14.2633 13.341 14.0154 13.1315 13.8306L12.3586 13.1496C12.2078 13.0165 12.1993 12.788 12.3397 12.6449L14.2218 11.4C14.4552 11.2457 14.5788 10.9602 14.4461 10.7169L13.7769 9.52324C13.6443 9.27968 13.5912 8.95625 13.659 8.80424C13.7269 8.65222 13.9978 8.44786 14.2614 8.35006L16.4463 7.55431C16.7097 7.45651 16.6956 7.35559 16.4152 7.32973L15.0191 7.22797C14.7384 7.20211 14.5328 7.24215 14.2614 7.31638L13.2048 7.57267C12.9335 7.6469 12.8761 7.92988 12.927 8.20096L13.3629 10.5181C13.4141 10.7894 13.439 11.0626 13.4185 11.1254C13.3981 11.1881 13.1566 11.2893 12.8819 11.3504L12.5205 11.4307C12.2457 11.4918 11.7955 11.4945 11.5202 11.4371L11.083 11.3458C10.8074 11.2882 10.5653 11.1898 10.5446 11.1272C10.5242 11.0645 10.5489 10.7909 10.5998 10.5198L11.0329 8.20221C11.0838 7.93092 11.026 7.64836 10.7547 7.57433L9.69766 7.3193C9.42634 7.24528 9.22045 7.20607 8.93998 7.23193L7.54393 7.33494C7.26345 7.36101 7.24961 7.46194 7.51305 7.55932L9.69915 8.35277C9.96258 8.45036 10.2339 8.6543 10.3018 8.80632C10.37 8.95813 10.3172 9.28156 10.1849 9.52512L9.51702 10.7192C9.38477 10.9627 9.50855 11.2482 9.74217 11.4023L11.626 12.6453C11.7666 12.7882 11.7583 13.0169 11.6077 13.15L10.8355 13.8321C10.6264 14.017 10.2471 14.2652 9.99282 14.3841L9.17654 14.765C8.92226 14.8837 8.53531 14.8384 8.31702 14.6643L8.13196 14.5167C7.88982 14.3236 7.70497 14.0702 7.5889 13.7606C7.49179 13.5014 7.50202 13.0818 7.61148 12.8276L7.85025 12.2496C7.95993 11.9954 7.85063 11.7432 7.65748 11.5424L5.8818 9.69612C5.68886 9.4953 5.43074 9.20899 5.3085 9.0601L5.26229 8.89912L5.23354 8.80945C5.23077 8.70623 5.26847 8.37717 5.31127 8.28813C5.35408 8.1995 5.51806 7.93968 5.67586 7.71113L6.05579 7.1604C6.21359 6.93186 6.4864 6.56839 6.66188 6.35256L7.21878 5.66859C7.39426 5.45297 7.54397 5.27739 7.56654 5.27885C7.56761 5.27739 7.79484 5.31888 8.07148 5.37081L8.91502 5.5295C9.19166 5.58142 9.49683 5.63856 9.5933 5.65628C9.68956 5.67422 9.98771 5.61917 10.2558 5.53409L10.8626 5.34161C11.1305 5.25633 11.5372 5.14414 11.7662 5.09201L11.9783 5.09513L12.1904 5.0918C12.4193 5.14351 12.8261 5.25528 13.0942 5.34015L13.7013 5.532C13.9695 5.61687 14.2676 5.67151 14.3639 5.65357C14.4467 5.63818 14.6831 5.59345 14.9233 5.54798L15.0419 5.52554L15.8853 5.36622C16.1619 5.31388 16.3891 5.27217 16.4053 5.27343C16.4128 5.27217 16.5625 5.44713 16.7384 5.66296L17.2961 6.34631C17.4721 6.56172 17.7451 6.92477 17.9033 7.15331L18.2839 7.70341C18.4419 7.93175 18.6887 8.34735 18.704 8.44181C18.7198 8.53628 18.7302 8.6981 18.7277 8.80132ZM12.0933 14.3172C12.118 14.3172 12.3514 14.4033 12.6116 14.5091L12.8531 14.6071C13.1134 14.7126 13.532 14.9011 13.7831 15.026L14.4957 15.3805C14.7468 15.5052 14.7649 15.7387 14.5357 15.8993L13.9279 16.3251C13.6988 16.4857 13.3385 16.7643 13.1274 16.9449L12.361 17.6001C12.1506 17.78 11.8096 17.7809 11.6032 17.6024C11.3967 17.4237 11.0549 17.1311 10.8434 16.9524C10.6321 16.7735 10.271 16.497 10.0407 16.3381L9.43508 15.9189C9.20487 15.7596 9.22126 15.525 9.47107 15.3976L10.1875 15.0323C10.4373 14.9046 10.8545 14.7136 11.1147 14.6081L11.3562 14.5097C11.6162 14.404 11.8494 14.3172 11.8743 14.3172H11.9838H12.0933Z" fill="white"/>
</svg>
