<svg viewBox="0 0 24 24" fill="none" xmlns="http://www.w3.org/2000/svg">
<g clip-path="url(#clip0_3774_15506)">
<path fill-rule="evenodd" clip-rule="evenodd" d="M12.2957 7.25183C10.6012 7.25183 9.22748 8.6255 9.22748 10.32C9.22748 12.0145 10.6012 13.3882 12.2957 13.3882C13.9902 13.3882 15.3638 12.0145 15.3638 10.32C15.3638 8.6255 13.9902 7.25183 12.2957 7.25183ZM10.8184 10.32C10.8184 9.50413 11.4798 8.84274 12.2957 8.84274C13.1115 8.84274 13.7729 9.50413 13.7729 10.32C13.7729 11.1359 13.1115 11.7973 12.2957 11.7973C11.4798 11.7973 10.8184 11.1359 10.8184 10.32Z" fill="currentColor"/>
<path fill-rule="evenodd" clip-rule="evenodd" d="M12.2955 2C7.68491 2 4 5.85882 4 10.5528C4 12.9561 5.40629 15.7855 7.00155 17.9451C7.81315 19.0438 8.71343 20.0241 9.5841 20.7401C10.0194 21.0981 10.4637 21.4037 10.9006 21.6234C11.3288 21.8388 11.8056 22 12.2897 22C13.2615 22 14.2553 21.4366 15.1112 20.7451C16.0029 20.0248 16.8993 19.0393 17.6959 17.9376C19.2655 15.7671 20.5909 12.9431 20.5909 10.5528C20.5909 5.85882 16.906 2 12.2955 2ZM5.81818 10.5528C5.81818 6.80378 8.74725 3.81818 12.2955 3.81818C15.8437 3.81818 18.7727 6.80378 18.7727 10.5528C18.7727 12.3841 17.7001 14.829 16.2226 16.8722C15.4957 17.8774 14.7063 18.7349 13.9687 19.3308C13.1951 19.9557 12.616 20.1818 12.2897 20.1818C12.1961 20.1818 12.0089 20.1456 11.7176 19.9991C11.4349 19.8569 11.104 19.636 10.739 19.3358C10.0091 18.7356 9.20868 17.8729 8.464 16.8648C6.9467 14.8107 5.81818 12.371 5.81818 10.5528Z" fill="currentColor"/>
</g>
<defs>
<clipPath id="clip0_3774_15506">
<rect width="24" height="24" fill="white"/>
</clipPath>
</defs>
</svg>