<svg width="24" height="24" viewBox="0 0 24 24" fill="none" xmlns="http://www.w3.org/2000/svg">
<g clip-path="url(#clip0_3788_15314)">
<path d="M17.834 5.27931C15.55 6.82644 13.9551 9.23536 13.9551 12.0617C13.9551 14.8431 15.5005 17.2217 17.7264 18.7704C16.7964 19.1906 15.7636 19.425 14.6726 19.425C13.7952 19.425 12.9534 19.2728 12.1721 18.9934C11.7784 19.4561 11.2871 19.8331 10.73 20.0928C11.9207 20.6739 13.2585 21 14.6726 21C16.21 21 17.6574 20.6145 18.9234 19.9349C19.8536 19.4355 19.6183 18.1459 18.7421 17.557C16.7773 16.2363 15.5301 14.2645 15.5301 12.0617C15.5301 9.82412 16.817 7.8249 18.8359 6.50433C19.7171 5.92798 19.9676 4.64586 19.0479 4.13326C17.7527 3.41133 16.2607 3 14.6726 3C9.70202 3 5.67258 7.02944 5.67258 12C5.67258 12.4788 5.70997 12.9489 5.78198 13.4074C6.1882 12.9557 6.69 12.5915 7.25554 12.3469C7.25025 12.232 7.24758 12.1163 7.24758 12C7.24758 7.89929 10.5719 4.575 14.6726 4.575C15.8057 4.575 16.8762 4.8278 17.834 5.27931Z" fill="#6B7084"/>
<path fill-rule="evenodd" clip-rule="evenodd" d="M8.64556 13.0525C7.31859 13.0525 6.16872 13.8084 5.60246 14.9133C5.2915 14.7811 4.94926 14.7078 4.58995 14.7078C3.15956 14.7078 2 15.8673 2 17.2977C2 18.5958 2.95431 19.67 4.20007 19.8584C4.26795 19.8775 4.33953 19.8877 4.41349 19.8877H8.93426C9.02537 19.8877 9.11287 19.8722 9.19427 19.8438C10.8212 19.5808 12.0632 18.171 12.0632 16.4701C12.0632 14.5826 10.533 13.0525 8.64556 13.0525ZM8.77776 18.3127H4.52923C4.51614 18.3108 4.50295 18.3091 4.48965 18.3078C3.97658 18.258 3.575 17.8243 3.575 17.2977C3.575 16.7372 4.02941 16.2828 4.58995 16.2828C4.92018 16.2828 5.2135 16.4396 5.40014 16.6862C5.59583 16.9448 5.93 17.057 6.24206 16.9688C6.55412 16.8807 6.78026 16.6103 6.81182 16.2876C6.90292 15.356 7.68964 14.6275 8.64556 14.6275C9.66319 14.6275 10.4882 15.4525 10.4882 16.4701C10.4882 17.4189 9.77043 18.2011 8.84879 18.3017C8.82475 18.3043 8.80106 18.308 8.77776 18.3127Z" fill="#6B7084"/>
</g>
<defs>
<clipPath id="clip0_3788_15314">
<rect width="24" height="24" fill="white"/>
</clipPath>
</defs>
</svg>
