<svg viewBox="0 0 24 24" fill="none" xmlns="http://www.w3.org/2000/svg">
<g clip-path="url(#clip0_1265_21243)">
<path d="M12 24C18.6274 24 24 18.6274 24 12C24 5.37258 18.6274 0 12 0C5.37258 0 0 5.37258 0 12C0 18.6274 5.37258 24 12 24Z" fill="#1A4199"/>
<path opacity="0.7" d="M9.11127 6.87459L14.994 10.2682V13.7319L6 8.53767L8.88599 6.87459C8.92098 6.85439 8.96069 6.84375 9.0011 6.84375C9.04151 6.84375 9.08121 6.85439 9.11621 6.87459" fill="white"/>
<path opacity="0.9" d="M14.994 6.80603L11.9973 8.53817L14.994 10.2681V6.80603Z" fill="white"/>
<path d="M14.9939 6.80603L17.8793 8.4702C17.9156 8.48985 17.946 8.51889 17.9672 8.55428C17.9884 8.58967 17.9997 8.63011 17.9999 8.67137V15.4623L14.9939 13.7319V6.80603Z" fill="white"/>
<path opacity="0.9" d="M17.994 15.4625L15.1085 17.125C15.0732 17.1442 15.0336 17.1542 14.9934 17.1542C14.9532 17.1542 14.9136 17.1442 14.8783 17.125L8.99561 13.732V10.2633L17.994 15.4625Z" fill="white"/>
<path opacity="0.6" d="M6 8.53821V15.3281C6.00013 15.3694 6.0114 15.41 6.03262 15.4455C6.05384 15.481 6.08423 15.5101 6.12059 15.5298L9.00658 17.194V10.2632L6 8.53821Z" fill="white"/>
<path opacity="0.7" d="M9.00146 17.1932L11.9971 15.4622L9.00146 13.7317V17.1932Z" fill="white"/>
</g>
<defs>
<clipPath id="clip0_1265_21243">
<rect width="24" height="24" fill="white"/>
</clipPath>
</defs>
</svg>