<svg width="24" height="24" viewBox="0 0 24 24" fill="none" xmlns="http://www.w3.org/2000/svg">
<g clip-path="url(#clip0_1265_21239)">
<path d="M12 24C18.6274 24 24 18.6274 24 12C24 5.37258 18.6274 0 12 0C5.37258 0 0 5.37258 0 12C0 18.6274 5.37258 24 12 24Z" fill="#F80000"/>
<path d="M14.8 12.5894L10.1128 19L10.2857 13.7913H9.19995L9.64375 9.2189L14.6026 8.5357L12.9744 12.6832L14.8 12.5894ZM10.9514 17.138V15.913C10.9514 15.822 10.8744 15.7478 10.7792 15.7478C10.684 15.7478 10.6063 15.8213 10.6063 15.9123V17.138C10.6063 17.229 10.6833 17.3032 10.7792 17.3032C10.8751 17.3032 10.9514 17.229 10.9514 17.138ZM9.66895 13.4378H10.656L10.6105 15.3229C10.6098 15.3726 10.6294 15.4209 10.6658 15.4559C10.7022 15.4909 10.7519 15.5119 10.8037 15.5119H10.8121C10.8614 15.5129 10.9091 15.4945 10.9451 15.4608C10.981 15.427 11.0024 15.3806 11.0046 15.3313L11.0501 13.1074H10.0631L10.3942 9.4541C10.3977 9.4121 10.383 9.3701 10.3529 9.3386C10.3228 9.3071 10.2808 9.2896 10.236 9.2896H10.208C10.1692 9.28881 10.1315 9.3025 10.1022 9.328C10.073 9.35349 10.0543 9.38896 10.0498 9.4275L9.66895 13.4378ZM9.66895 8.8178L11.4946 7.31C11.5926 5.8015 10.6056 5.5656 10.6056 5.5656L10.754 5C12.3822 5.4711 12.1358 7.2624 12.1358 7.2624L14.5039 8.2522L9.66895 8.8178Z" fill="white"/>
</g>
<defs>
<clipPath id="clip0_1265_21239">
<rect width="24" height="24" fill="white"/>
</clipPath>
</defs>
</svg>
