<svg viewBox="0 0 24 24" fill="none" xmlns="http://www.w3.org/2000/svg">
<g clip-path="url(#clip0_1265_21231)">
<path d="M12 24C18.6274 24 24 18.6274 24 12C24 5.37258 18.6274 0 12 0C5.37258 0 0 5.37258 0 12C0 18.6274 5.37258 24 12 24Z" fill="#F28F01"/>
<path fill-rule="evenodd" clip-rule="evenodd" d="M13.271 10.6522L12.1241 8.39725C12.3628 7.87725 12.4822 7.58179 12.4822 7.51384C12.4822 7.26979 12.3215 7.09134 12.0006 6.97729H15.5153C15.0822 7.17229 14.6969 7.65979 14.3601 8.44039L13.271 10.6522ZM11.548 14.1551L11.0132 15.2423H14.1669C15.5951 15.2423 16.55 14.9747 17.0316 14.4387L15.3463 17.0227H6.72791C7.65859 16.8437 8.59755 15.7227 9.54418 13.6581C9.86327 13.0235 10.1558 12.4373 10.4229 11.9007L11.548 14.1551ZM5.5 14.5114C6.19786 14.0972 8.75 9.68248 8.75 8.44039C8.75 8.14789 8.57332 7.87134 8.22055 7.61134H10.9647L13.3479 12.2925L15.6595 7.61134H18.5C17.2963 7.92807 14.9132 13.6067 14.9132 14.2673C14.9132 14.3973 14.9368 14.4789 14.9853 14.5114H12.4816L10.339 10.2202L8.22055 14.5114H5.5Z" fill="white"/>
</g>
<defs>
<clipPath id="clip0_1265_21231">
<rect width="24" height="24" fill="white"/>
</clipPath>
</defs>
</svg>