<svg viewBox="0 0 24 24" fill="none" xmlns="http://www.w3.org/2000/svg">
<g clip-path="url(#clip0_1265_21227)">
<path d="M12 24C18.6274 24 24 18.6274 24 12C24 5.37258 18.6274 0 12 0C5.37258 0 0 5.37258 0 12C0 18.6274 5.37258 24 12 24Z" fill="#2AB0FD"/>
<path fill-rule="evenodd" clip-rule="evenodd" d="M18.1844 11.2232C18.2916 11.2219 18.3599 11.2362 18.4028 11.2752C18.4483 11.3168 18.4665 11.3844 18.4762 11.4904C18.7791 14.9866 16.135 18.1468 12.6277 18.4711C9.01129 18.8058 5.87191 16.1962 5.52873 12.5693C5.19464 9.04711 7.83939 5.85184 11.3694 5.53075C13.3687 5.34876 15.0951 5.97663 16.5484 7.36108C16.5633 7.37538 16.5601 7.43517 16.5432 7.45207C16.2168 7.78457 15.8875 8.11412 15.5552 8.44069C15.5364 8.45888 15.4688 8.45628 15.448 8.43744C13.9485 7.06339 12.2111 6.65651 10.3112 7.34873C8.38992 8.04875 7.29081 9.49819 7.07307 11.5391C6.78058 14.3009 8.86505 16.735 11.6456 16.945C14.1662 17.1347 16.4503 15.3506 16.8682 12.8599C16.8721 12.8352 16.8162 12.7734 16.7876 12.7734C15.2309 12.7689 13.6742 12.7702 12.1182 12.7643C12.0779 12.7643 12.0031 12.6896 12.0018 12.6486C11.9937 12.2136 11.9937 11.7785 12.0018 11.3435C12.0025 11.3045 12.072 11.2343 12.1104 11.2336C13.1477 11.2278 17.1971 11.2369 18.1837 11.2226L18.1844 11.2232Z" fill="white"/>
</g>
<defs>
<clipPath id="clip0_1265_21227">
<rect width="24" height="24" fill="white"/>
</clipPath>
</defs>
</svg>