<svg width="24" height="24" viewBox="0 0 24 24" fill="none" xmlns="http://www.w3.org/2000/svg">
<g clip-path="url(#clip0_1265_21223)">
<path d="M12 24C18.6274 24 24 18.6274 24 12C24 5.37258 18.6274 0 12 0C5.37258 0 0 5.37258 0 12C0 18.6274 5.37258 24 12 24Z" fill="#186C9D"/>
<path d="M14.174 17L14.1747 16.9987C14.2775 17.0007 14.3801 16.9895 14.48 16.9653C15.064 16.8287 15.558 16.3187 15.6753 15.768L18 7.03733L16.152 7.028L14.628 12.74L10.508 7.00867L10.5053 7.01133L10.5073 7.00467L9.82667 7V7.00067C9.72372 6.99908 9.62096 7.01005 9.52067 7.03333C8.93733 7.17067 8.44333 7.68067 8.32533 8.23067L6 16.9633L7.84867 16.9713L9.372 11.2593L13.492 16.9913H13.494L14.174 17ZM9.77867 9.73733L10.1007 8.53067L14.2213 14.2633L13.8993 15.47L9.77933 9.73667L9.77867 9.73733Z" fill="white"/>
</g>
<defs>
<clipPath id="clip0_1265_21223">
<rect width="24" height="24" fill="white"/>
</clipPath>
</defs>
</svg>
