<svg width="24" height="24" viewBox="0 0 24 24" fill="none" xmlns="http://www.w3.org/2000/svg">
<g clip-path="url(#clip0_1265_21219)">
<path d="M12 24C18.6274 24 24 18.6274 24 12C24 5.37258 18.6274 0 12 0C5.37258 0 0 5.37258 0 12C0 18.6274 5.37258 24 12 24Z" fill="#050708"/>
<path d="M11.914 5.50834C11.9787 5.49579 12.0453 5.49742 12.1093 5.51313C12.1732 5.52884 12.233 5.55826 12.2845 5.59934L17.4265 9.4195C17.5447 9.50814 17.6186 9.65586 17.6126 9.80595V14.1928C17.6148 14.2717 17.5972 14.3498 17.5615 14.4202C17.5258 14.4906 17.4731 14.5509 17.4082 14.5958L12.2845 18.4024C12.2002 18.4681 12.0957 18.5025 11.9888 18.4999C11.8819 18.4972 11.7792 18.4575 11.6983 18.3876C9.99654 17.1231 8.29534 15.8585 6.59355 14.5952C6.52924 14.5498 6.47685 14.4896 6.44084 14.4197C6.40483 14.3497 6.38627 14.2721 6.38674 14.1934V9.80891C6.38607 9.73037 6.40436 9.65284 6.44005 9.58289C6.47575 9.51294 6.5278 9.45263 6.59178 9.40709L11.6977 5.61352C11.7609 5.56242 11.8348 5.52645 11.914 5.50834ZM11.8526 17.3346C11.8496 17.4031 11.8484 17.4723 11.8478 17.5408L11.849 17.9527C11.9376 17.9539 12.0263 17.9545 12.1149 17.9527V17.3476C12.0277 17.3394 11.9402 17.3351 11.8526 17.3346ZM10.8421 16.7922L10.6932 16.7927C10.7996 16.9789 10.9006 17.168 11.0093 17.3523C11.098 17.3523 11.1866 17.3523 11.2764 17.3464C11.2055 17.1502 11.0832 16.9795 10.9916 16.7933C10.8922 16.7919 10.7927 16.7919 10.6932 16.7933L10.8421 16.7922ZM12.4535 17.0758C12.4519 17.166 12.4525 17.2562 12.4553 17.3464H12.7035C12.7147 17.2584 12.7153 17.1703 12.7135 17.0817C12.6269 17.0765 12.5402 17.0745 12.4535 17.0758ZM12.1728 15.6239C11.8006 15.6263 11.4277 15.6216 11.0548 15.6269C11.0537 15.7116 11.0537 15.7963 11.0548 15.881C11.3846 15.8887 11.7149 15.8828 12.0452 15.8845V16.4926C11.9766 16.4932 11.9093 16.4908 11.8419 16.4979C11.8224 16.5782 11.8325 16.6616 11.8313 16.7437C11.9506 16.7472 12.07 16.7467 12.1894 16.7443C12.2254 16.7035 12.2626 16.6639 12.2999 16.6237C12.2999 16.3342 12.2993 16.0447 12.3005 15.7551C12.258 15.7113 12.2155 15.6675 12.1728 15.6239ZM14.1488 15.9643C14.0643 15.9229 13.9745 15.7823 13.8758 15.8668C13.5821 16.0624 13.2796 16.245 12.9894 16.4459C12.9906 16.5298 12.9912 16.6137 12.9971 16.697C13.2689 16.6994 13.5402 16.7006 13.8114 16.6964C13.8126 16.6078 13.8126 16.5192 13.812 16.4305C13.7454 16.429 13.6788 16.4282 13.6123 16.4282L13.487 16.4293C13.7027 16.2769 13.9284 16.1404 14.1488 15.9956V15.9643ZM10.2831 16.1108L9.75427 16.1126C9.7525 16.2013 9.7525 16.2899 9.75427 16.3797C10.1064 16.3815 10.4592 16.3833 10.812 16.3785V16.1132C10.4592 16.1091 10.1064 16.1108 9.75427 16.1126L10.2831 16.1108ZM9.39501 15.7226L9.26442 15.7232C9.26323 15.8119 9.26264 15.9011 9.26442 15.9903C9.35128 15.9915 9.43873 15.9915 9.52618 15.9903C9.52737 15.9017 9.52737 15.813 9.52618 15.7244C9.43894 15.7225 9.35167 15.7221 9.26442 15.7232L9.39501 15.7226ZM14.4726 14.7689C14.4691 14.9143 14.4702 15.0596 14.4708 15.205C14.6126 15.4236 14.7515 15.644 14.8951 15.8615C15.0145 15.6783 15.1315 15.4916 15.2526 15.309C15.275 15.2688 15.3111 15.2298 15.3081 15.1802C15.3111 15.0472 15.3093 14.9143 15.3058 14.7813C15.1959 14.9604 15.0783 15.1341 14.969 15.3131C14.9441 15.3474 14.9258 15.3911 14.8862 15.4089C14.7432 15.1985 14.6115 14.981 14.4726 14.7689ZM13.6247 14.4421C13.4586 14.4427 13.2926 14.441 13.1259 14.4439C13.0289 14.8069 12.9276 15.1687 12.8222 15.5294L13.0787 15.5312L13.3079 14.6915L13.4474 14.6986C13.5218 14.9757 13.601 15.2511 13.6737 15.5288C13.7588 15.5306 13.8451 15.5306 13.9302 15.5306L13.6247 14.4421ZM8.45311 15.0508L8.22089 15.0555V15.3179C8.45193 15.322 8.68356 15.3279 8.9146 15.3161C8.92583 15.2292 8.92051 15.1412 8.91874 15.0531C8.68593 15.052 8.45311 15.0478 8.22089 15.0555L8.45311 15.0508ZM10.3144 14.4315C9.99359 14.6306 9.67805 14.8386 9.36191 15.0455C9.36073 15.1305 9.36073 15.2156 9.3631 15.3007C9.86122 15.306 10.3594 15.3037 10.8575 15.3019C10.8598 15.2121 10.8598 15.1223 10.8581 15.0325C10.5213 15.0277 10.1856 15.0348 9.84941 15.0283C10.0816 14.8871 10.3062 14.7346 10.536 14.5893C10.4628 14.5355 10.3883 14.4841 10.3144 14.4315ZM11.4372 14.2342L11.3048 14.2347C11.3012 14.5668 11.3048 14.8995 11.303 15.2316L11.3828 15.2464C11.4454 15.2405 11.5081 15.2375 11.5707 15.2345C11.5689 14.9013 11.5713 14.568 11.5689 14.2347C11.4809 14.2338 11.3928 14.2338 11.3048 14.2347L11.4372 14.2342ZM12.2514 14.48C12.1598 14.4924 12.0671 14.4977 11.9743 14.4977C12.0789 14.6809 12.1823 14.8658 12.2845 15.0514L12.5445 15.0496C12.4884 14.8428 12.3601 14.662 12.2514 14.48ZM15.7726 14.6058L15.6367 14.6082C15.6349 14.6956 15.6349 14.7831 15.6367 14.8705C15.7271 14.8747 15.8181 14.8747 15.9085 14.8723V14.607C15.8179 14.605 15.7273 14.6054 15.6367 14.6082L15.7726 14.6058ZM9.39796 13.5469C9.25319 13.7608 9.12201 13.9842 8.97606 14.1963C8.83956 13.9812 8.70129 13.7668 8.56302 13.5523C8.55977 13.6994 8.55918 13.8465 8.56125 13.9937C8.70483 14.2028 8.83779 14.4191 8.97488 14.6318C9.12319 14.4197 9.25555 14.1963 9.40032 13.9812C9.39914 13.8365 9.40091 13.6917 9.39796 13.5469ZM10.0775 13.8276C10.0716 13.9192 10.0722 14.0108 10.0757 14.1024C10.1632 14.1036 10.2506 14.103 10.3375 14.1024C10.3395 14.013 10.3395 13.9235 10.3375 13.8341C10.251 13.8279 10.1642 13.8257 10.0775 13.8276ZM13.6914 13.1044L13.5591 13.2284C13.5591 13.3466 13.5585 13.4642 13.5608 13.5818C13.6453 13.5818 13.7304 13.5818 13.8149 13.5806C13.8167 13.5079 13.8173 13.4353 13.8167 13.362L14.41 13.3626C14.407 13.6019 14.4088 13.8406 14.4094 14.0793C14.4951 14.0817 14.5807 14.0823 14.667 14.0817V13.229L14.5388 13.1049C14.2563 13.1044 13.9739 13.1061 13.6914 13.1038V13.1044ZM7.07513 12.9348H6.9085L6.78323 13.0594L6.78205 13.6391L6.78559 13.9287C6.80746 13.9812 6.8565 14.0267 6.90496 14.0551C7.1945 14.0634 7.48463 14.0551 7.77476 14.0587H7.89589L8.01762 14.0581C8.01821 13.9742 8.01821 13.8902 8.01644 13.8063C7.69026 13.8028 7.36349 13.8057 7.03673 13.8046C7.03436 13.6013 7.03673 13.3986 7.03495 13.1954L7.24177 13.1924C7.24253 13.1071 7.24233 13.0218 7.24118 12.9365C7.13029 12.9347 7.01939 12.9343 6.9085 12.9354L7.07513 12.9348ZM12.7797 13.1593C12.4653 13.372 12.1415 13.5688 11.8266 13.7815C11.8277 13.8678 11.8277 13.9535 11.8401 14.0386C12.3365 14.0386 12.8334 14.0409 13.3298 14.038C13.3322 13.945 13.3322 13.852 13.3298 13.7591C12.9989 13.7549 12.6668 13.7614 12.3347 13.7555C12.5563 13.606 12.7874 13.4707 13.0048 13.3153C12.9286 13.2645 12.8547 13.2113 12.7803 13.1587L12.7797 13.1593ZM16.3186 13.1179C16.0024 13.3206 15.6863 13.5227 15.3731 13.7301C15.372 13.8164 15.372 13.9032 15.3731 13.9901C15.8695 13.9919 16.3653 13.9919 16.861 13.9901C16.8622 13.9003 16.8622 13.8093 16.861 13.7195C16.5272 13.7171 16.1933 13.7212 15.86 13.7177L16.5413 13.2763C16.4681 13.2231 16.3936 13.1688 16.3186 13.1179ZM10.4391 11.9462L10.3079 11.9468C10.3062 12.452 10.3062 12.9566 10.3079 13.4613C10.3966 13.4636 10.4852 13.4636 10.5733 13.463C10.5839 13.1262 10.5573 12.7882 10.5898 12.4538C10.7694 12.7616 10.9662 13.06 11.1541 13.3638L11.2445 13.362C11.2303 13.2243 11.2841 13.0659 11.1937 12.9478C10.9851 12.6145 10.7742 12.283 10.5691 11.9474C10.4821 11.9457 10.395 11.9457 10.3079 11.9474L10.4391 11.9462ZM15.2745 12.4922C15.1882 12.4786 15.1001 12.4845 15.0127 12.4863C15.0098 12.7987 15.0098 13.1111 15.0127 13.4234C15.1007 13.4252 15.1888 13.4258 15.2768 13.4234C15.278 13.1132 15.2827 12.8024 15.2745 12.4922ZM9.41864 12.8438C9.11433 12.8532 8.80765 12.8266 8.50393 12.8603C8.50334 12.9484 8.50334 13.0358 8.50511 13.1239C8.8886 13.1268 9.27092 13.1239 9.655 13.125V12.8544C9.57649 12.8462 9.49757 12.8427 9.41864 12.8438ZM17.0578 11.649C16.7702 11.6435 16.4826 11.6432 16.1951 11.6478L16.0787 11.7683C16.0787 11.883 16.0787 11.9988 16.0799 12.1134C16.1643 12.114 16.2488 12.1134 16.3333 12.1122L16.3351 11.9025C16.536 11.9042 16.7369 11.9001 16.9378 11.9054L16.9372 13.0329L17.1825 13.0334C17.1783 12.9519 17.2002 12.8715 17.1955 12.79C17.1984 12.6895 17.1937 12.5897 17.1966 12.4898C17.1949 12.2818 17.1966 12.0732 17.1966 11.8652C17.212 11.7683 17.1305 11.6939 17.0578 11.649ZM12.7312 12.6689L12.603 12.6694V12.9383C12.6887 12.9395 12.7738 12.9395 12.8589 12.9383C12.86 12.8485 12.86 12.7587 12.8589 12.67C12.7736 12.6692 12.6883 12.669 12.603 12.6694L12.7312 12.6689ZM11.6026 12.1394L11.4697 12.1412C11.4673 12.361 11.4679 12.5814 11.4691 12.8012C11.5577 12.8036 11.6463 12.8036 11.7356 12.8024C11.7361 12.5814 11.7367 12.361 11.7356 12.1406C11.6469 12.1388 11.5583 12.1388 11.4697 12.1406L11.6026 12.1394ZM14.3278 12.4455L13.9225 12.4479C13.9195 12.5365 13.9195 12.6251 13.9213 12.7138C14.15 12.7404 14.381 12.7197 14.6109 12.7268C14.657 12.722 14.7178 12.7427 14.7438 12.6901C14.7498 12.6089 14.7465 12.5272 14.7338 12.4467C14.4631 12.4467 14.1931 12.4443 13.9225 12.4479L14.3278 12.4455ZM13.2075 12.4355L13.0769 12.436C13.0757 12.5259 13.0757 12.6157 13.0769 12.7049C13.1638 12.7055 13.2506 12.7061 13.3381 12.7055C13.3397 12.6157 13.3397 12.5259 13.3381 12.436C13.251 12.4352 13.164 12.4352 13.0769 12.436L13.2075 12.4355ZM8.27348 11.6584H8.00639L8.0058 12.514H8.27407V11.6584H8.27348ZM9.2396 11.3187L8.99201 11.3198C8.88801 11.6821 8.78697 12.0455 8.68474 12.4083L8.94119 12.4095C9.00915 12.13 9.09837 11.8564 9.16101 11.5763L9.30282 11.5656C9.38969 11.8446 9.45528 12.1294 9.54037 12.4095L9.78854 12.4089C9.694 12.0443 9.58764 11.6832 9.48719 11.3204C9.32173 11.3181 9.15746 11.3192 8.99201 11.3204L9.2396 11.3187ZM12.4281 11.2383L12.3873 11.2395H11.3739C11.3731 11.3257 11.3731 11.412 11.3739 11.4983C11.7031 11.5072 12.034 11.4823 12.3619 11.5125V12.1087L12.1516 12.111V12.371C12.2638 12.3722 12.3755 12.3722 12.4872 12.3722L12.6172 12.2304V11.4729C12.6331 11.3494 12.5108 11.22 12.3873 11.2395L12.4281 11.2383ZM7.16791 11.8971C7.16495 11.984 7.16495 12.0709 7.16554 12.1577C7.25418 12.1595 7.34281 12.1589 7.43086 12.1577V11.9036C7.34333 11.8979 7.25561 11.8957 7.16791 11.8971ZM13.4551 10.8069H13.2867C13.2388 10.8702 13.146 10.9174 13.1579 11.0096C13.1567 11.2537 13.1567 11.4977 13.1579 11.7423C13.1466 11.8333 13.2376 11.8812 13.2849 11.9438C13.6566 11.9426 14.0282 11.945 14.3993 11.9426C14.4017 11.8564 14.4017 11.7695 14.4011 11.6826C14.0708 11.6791 13.7411 11.6826 13.4113 11.6803V11.0687L13.6241 11.0669C13.6256 10.9809 13.6252 10.8948 13.6229 10.8087C13.5106 10.8063 13.3983 10.8075 13.2861 10.8069H13.4551ZM10.5993 11.2395H9.9534C9.94986 11.3305 9.95045 11.4215 9.954 11.5125H10.5993C10.601 11.4215 10.601 11.3305 10.5993 11.2395ZM15.8541 10.9257L15.2774 10.9281C15.2762 11.0167 15.2768 11.1065 15.2774 11.1952C15.6615 11.2005 16.0456 11.1969 16.4297 11.1969C16.4308 11.1071 16.4308 11.0167 16.4303 10.9263C16.0462 10.9263 15.6621 10.9228 15.278 10.9281L15.8541 10.9257ZM14.5453 10.9257L14.4088 10.9281C14.4076 11.0167 14.4076 11.1053 14.4088 11.194C14.4998 11.1975 14.5908 11.1975 14.6818 11.194C14.683 11.1053 14.6836 11.0167 14.6818 10.9281C14.5908 10.9247 14.4998 10.9247 14.4088 10.9281L14.5453 10.9257ZM7.44504 10.3703L6.78323 10.372C6.78146 10.4618 6.78146 10.5523 6.78323 10.6421C7.05977 10.645 7.3369 10.6421 7.61403 10.6433C7.50767 10.7183 7.39717 10.7863 7.28786 10.856C7.36113 10.9092 7.42613 10.9818 7.51181 11.0137C7.71449 10.8914 7.91185 10.7597 8.10862 10.6279L8.10803 10.3726C7.66603 10.3685 7.22404 10.3697 6.78264 10.372L7.44504 10.3703ZM9.27564 10.1522C9.06351 10.2976 8.8431 10.4305 8.63629 10.5836C8.84133 10.7325 9.05701 10.8648 9.26501 11.0084C9.40919 11.0084 9.55337 11.0096 9.69755 11.0067C9.48364 10.8678 9.2721 10.7236 9.05701 10.5859C9.26619 10.4364 9.48837 10.3059 9.69636 10.1546C9.55573 10.1522 9.41628 10.1546 9.27564 10.1522ZM11.1334 10.6326H10.5603C10.5603 10.7213 10.5603 10.8105 10.5614 10.9003C10.942 10.9003 11.3219 10.9009 11.7031 10.8997C11.7149 10.8111 11.7161 10.7224 11.7066 10.6338C11.3249 10.6303 10.9426 10.6338 10.5603 10.632L11.1334 10.6326ZM12.0936 10.6326L11.956 10.6338V10.8973C12.0476 10.8985 12.1391 10.8985 12.2313 10.8962V10.635C12.1396 10.632 12.0477 10.6316 11.956 10.6338L12.0936 10.6326ZM12.7312 9.84141H12.603V10.6982H12.8594C12.8594 10.4128 12.8612 10.1274 12.8594 9.842C12.774 9.84123 12.6885 9.84123 12.603 9.842L12.7312 9.84141ZM15.9865 10.3336L15.8535 10.3354C15.8518 10.4246 15.8524 10.5144 15.8535 10.6037C15.9422 10.606 16.0308 10.606 16.1183 10.6037C16.1208 10.5141 16.121 10.4244 16.1188 10.3348C16.0302 10.333 15.9416 10.3336 15.8535 10.3348L15.9865 10.3336ZM15.0978 9.2836C14.9323 9.25641 14.7651 9.28241 14.5991 9.2836C14.498 9.64523 14.3987 10.0069 14.2936 10.3661C14.3792 10.3667 14.4649 10.3673 14.5506 10.3667C14.6227 10.0866 14.7066 9.81009 14.7757 9.52941L14.9164 9.52764C15.0003 9.80595 15.07 10.0884 15.151 10.3667H15.4062L15.0978 9.2836ZM13.6323 9.91999L13.5029 9.92059C13.5019 10.01 13.5019 10.0994 13.5029 10.1889H13.7612C13.7623 10.1002 13.7623 10.011 13.7618 9.92177C13.6755 9.91959 13.5892 9.91919 13.5029 9.92059L13.6323 9.91999ZM16.7759 9.61745C16.6772 9.61745 16.5786 9.61745 16.4805 9.61923L16.7948 10.1747C16.8841 10.1747 16.9745 10.1747 17.0637 10.1711C16.991 9.97495 16.8728 9.80122 16.7753 9.61745H16.7759ZM11.9187 8.80497L11.7917 8.80674C11.7876 9.14001 11.7905 9.47446 11.7899 9.80772C11.5884 9.803 11.3869 9.81954 11.1866 9.7965C11.1878 9.72953 11.1874 9.66254 11.1854 9.59559H10.942C10.942 9.71259 10.9313 9.83077 10.9461 9.94718C10.9804 9.98736 11.02 10.0228 11.0584 10.0606C11.3491 10.0589 11.6398 10.0618 11.9311 10.0589C11.9696 10.0199 12.0086 9.98145 12.0481 9.94363C12.0452 9.56427 12.0499 9.18492 12.0458 8.80615C11.9611 8.80485 11.8764 8.80485 11.7917 8.80615L11.9187 8.80497ZM9.91263 9.43191H9.78441C9.7785 9.64109 9.78145 9.84968 9.78204 10.0583H10.042C10.042 9.84968 10.0432 9.64109 10.0409 9.43309C9.95518 9.43191 9.8695 9.43191 9.78441 9.4325L9.91263 9.43191ZM15.9853 9.06615L15.8535 9.06792C15.8509 9.3541 15.8509 9.64031 15.8535 9.92649C15.9416 9.92768 16.0296 9.92827 16.1177 9.92649C16.1206 9.6405 16.1206 9.35391 16.1177 9.06792C16.0296 9.06581 15.9416 9.06581 15.8535 9.06792L15.9853 9.06615ZM8.06607 9.41891L7.49113 9.42128C7.48995 9.50991 7.48995 9.60032 7.49113 9.69013C7.87462 9.6925 8.25752 9.69309 8.64102 9.69013C8.64311 9.60053 8.64311 9.51088 8.64102 9.42128C8.25773 9.41835 7.87442 9.41835 7.49113 9.42128L8.06607 9.41891ZM9.08242 9.42128H8.82124V9.69073C8.9087 9.69132 8.99556 9.69191 9.08301 9.69073C9.08492 9.60092 9.08492 9.51108 9.08301 9.42128H9.08242ZM10.9792 8.42738C10.8368 8.64306 10.6997 8.86347 10.5585 9.08033C10.4167 8.86642 10.2808 8.64779 10.1407 8.43211C10.1401 8.57747 10.1295 8.72401 10.1443 8.86938C10.188 8.94206 10.2329 9.01474 10.279 9.08683L10.5573 9.51641C10.6968 9.29719 10.8468 9.08328 10.9768 8.85756C10.9887 8.71456 10.9792 8.57038 10.9792 8.42738ZM12.71 7.77976L12.5823 7.78094C12.5794 8.28557 12.5805 8.7902 12.5817 9.29482C12.6704 9.2966 12.759 9.2966 12.8476 9.29482L12.8494 8.28084C13.0444 8.58102 13.2264 8.89065 13.4238 9.18964L13.523 9.20737C13.5254 9.09687 13.5248 8.98637 13.5248 8.87647C13.2926 8.51306 13.068 8.14493 12.8376 7.78035C12.7525 7.77891 12.6674 7.77911 12.5823 7.78094L12.71 7.77976ZM9.577 8.06339L9.38673 8.07107C9.31543 8.07018 9.24413 8.07018 9.17283 8.07107C9.17164 8.15971 9.17224 8.24893 9.17401 8.33816C9.26914 8.33934 9.36487 8.33816 9.46059 8.34348C9.27151 8.45575 9.08892 8.57806 8.9022 8.69329C8.97074 8.75061 9.03515 8.81915 9.11906 8.85165C9.40446 8.68738 9.6745 8.49711 9.95636 8.32516C9.95754 8.24125 9.95754 8.15675 9.95695 8.07284C9.76711 8.06021 9.57665 8.05961 9.38673 8.07107L9.577 8.06339ZM14.6457 8.46697L14.0152 8.46815V8.72874C14.436 8.72992 14.8555 8.72933 15.2756 8.72874V8.46875C14.8561 8.46638 14.4354 8.46638 14.0152 8.46875L14.6457 8.46697ZM11.5547 8.16916L11.4236 8.17093C11.4218 8.26016 11.4218 8.34938 11.4236 8.43861C11.511 8.44097 11.5985 8.44097 11.6859 8.43861C11.6877 8.34879 11.6877 8.26016 11.6859 8.17093C11.5985 8.16849 11.511 8.16849 11.4236 8.17093L11.5547 8.16916ZM13.7718 7.98421L13.6359 7.98598L13.6365 8.24716C13.7269 8.24893 13.8173 8.24893 13.9077 8.24657V7.98657C13.8171 7.98409 13.7265 7.98389 13.6359 7.98598L13.7718 7.98421ZM10.8705 6.89754L10.7346 6.9005C10.7405 7.29167 10.7168 7.68462 10.7464 8.07521C10.8333 8.07521 10.9201 8.07521 11.007 8.07343C11.0111 7.68226 11.0093 7.29108 11.0082 6.89932C10.9168 6.89678 10.8253 6.89718 10.734 6.9005L10.8705 6.89754ZM11.8762 7.45299C11.7781 7.45299 11.68 7.45299 11.5819 7.45476C11.6836 7.64149 11.7864 7.82703 11.8933 8.01021C11.9831 8.01021 12.0736 8.01021 12.1634 8.00607C12.0877 7.81107 11.9696 7.63853 11.8762 7.45299ZM13.4196 7.31945L13.055 7.32122C13.0539 7.41104 13.0539 7.50144 13.055 7.59126C13.2979 7.5954 13.5408 7.59421 13.7836 7.59126C13.7847 7.50105 13.7847 7.41084 13.7836 7.32063C13.5408 7.31839 13.2979 7.31858 13.055 7.32122L13.4196 7.31945ZM11.982 6.43192L11.5766 6.43251C11.4974 6.42187 11.4513 6.50341 11.4064 6.55482C11.3905 6.66709 11.4023 6.78232 11.4017 6.89577H11.6534L11.6552 6.68305H12.2496C12.2674 6.894 12.249 7.10554 12.249 7.31708L12.2685 7.39626C12.3483 7.40217 12.4293 7.39804 12.5096 7.39685C12.5085 7.11381 12.5085 6.83077 12.5096 6.54773L12.4305 6.46914L12.3867 6.43546C12.1173 6.42837 11.8466 6.43428 11.5772 6.43251L11.982 6.43192Z" fill="white"/>
</g>
<defs>
<clipPath id="clip0_1265_21219">
<rect width="24" height="24" fill="white"/>
</clipPath>
</defs>
</svg>
