<svg viewBox="0 0 24 24" fill="none" xmlns="http://www.w3.org/2000/svg">
<path fill-rule="evenodd" clip-rule="evenodd" d="M18 22H5.63167C5.60833 22 5.58917 21.9883 5.56583 21.9867C5.54333 21.9883 5.52333 22 5.5 22C5.04 22 4.66667 21.6275 4.66667 21.1667V17.8333H3.83333C3.37333 17.8333 3 17.4608 3 17C3 16.54 3.37333 16.1667 3.83333 16.1667H4.66667V12.8333H3.83333C3.37333 12.8333 3 12.4608 3 12C3 11.5392 3.37333 11.1667 3.83333 11.1667H4.66667V7.83333H3.83333C3.37333 7.83333 3 7.46083 3 7C3 6.53917 3.37333 6.16667 3.83333 6.16667H4.66667V2.83333C4.66667 2.3725 5.04 2 5.5 2C5.52333 2 5.54333 2.01167 5.56583 2.01333C5.58917 2.01167 5.60833 2 5.63167 2H18C19.3783 2 20.5 3.12167 20.5 4.5V19.5C20.5 20.8783 19.3783 22 18 22ZM6.33333 6.16667C6.79333 6.16667 7.16667 6.53917 7.16667 7C7.16667 7.46083 6.79333 7.83333 6.33333 7.83333V11.1667C6.79333 11.1667 7.16667 11.5392 7.16667 12C7.16667 12.4608 6.79333 12.8333 6.33333 12.8333V16.1667C6.79333 16.1667 7.16667 16.54 7.16667 17C7.16667 17.4608 6.79333 17.8333 6.33333 17.8333V20.3333H15.5V3.66667H6.33333V6.16667ZM18.8333 4.5C18.8333 4.04 18.4592 3.66667 18 3.66667H17.1667V20.3333H18C18.4592 20.3333 18.8333 19.96 18.8333 19.5V4.5Z" fill="currentColor"/>
</svg>