<svg viewBox="0 0 24 24" fill="none" xmlns="http://www.w3.org/2000/svg">
<path fill-rule="evenodd" clip-rule="evenodd" d="M19.1667 22H5.83333C5.3725 22 5 21.6275 5 21.1667V2.83333C5 2.3725 5.3725 2 5.83333 2H19.1667C19.6275 2 20 2.3725 20 2.83333V21.1667C20 21.6275 19.6275 22 19.1667 22ZM18.3333 3.66667H15.8333V4.5C16.2942 4.5 16.6667 4.8725 16.6667 5.33333C16.6667 5.79417 16.2942 6.16667 15.8333 6.16667H14.1667C13.7058 6.16667 13.3333 5.79417 13.3333 5.33333C13.3333 4.8725 13.7058 4.5 14.1667 4.5V3.66667H10.8333V4.5C11.2942 4.5 11.6667 4.8725 11.6667 5.33333C11.6667 5.79417 11.2942 6.16667 10.8333 6.16667H9.16667C8.70583 6.16667 8.33333 5.79417 8.33333 5.33333C8.33333 4.8725 8.70583 4.5 9.16667 4.5V3.66667H6.66667V20.3333H18.3333V3.66667Z" fill="currentColor"/>
</svg>