<svg viewBox="0 0 24 24" fill="none" xmlns="http://www.w3.org/2000/svg">
<path fill-rule="evenodd" clip-rule="evenodd" d="M20.1832 18.0525C19.9423 18.4425 19.5094 18.6667 18.9958 18.6667H15.3684C15.3684 20.5042 13.8715 22 12.033 22C10.1946 22 8.6993 20.5042 8.6993 18.6667H5.07356C4.56004 18.6667 4.12622 18.4425 3.8854 18.0525C3.64458 17.6625 3.63787 17.1742 3.86778 16.715L6.20047 12.6125V7.83333C6.20047 4.61667 8.81677 2 12.033 2C15.2501 2 17.8681 4.61667 17.8681 7.83333V12.6125L20.1806 16.6758C20.4315 17.1742 20.4248 17.6625 20.1832 18.0525ZM12.033 20.3333C12.9527 20.3333 13.7012 19.5858 13.7012 18.6667H10.3658C10.3658 19.5858 11.1134 20.3333 12.033 20.3333ZM16.3107 13.245C16.3023 13.2308 16.3032 13.215 16.2956 13.2C16.2705 13.1508 16.2579 13.0975 16.2436 13.0425C16.2293 12.9875 16.2142 12.9358 16.2109 12.88C16.21 12.8642 16.2017 12.85 16.2017 12.8333V7.83333C16.2017 5.53583 14.3313 3.66667 12.033 3.66667C9.73642 3.66667 7.86775 5.53583 7.86775 7.83333V12.8333C7.86775 12.85 7.85936 12.8633 7.85768 12.88C7.85516 12.9358 7.83922 12.9883 7.82496 13.0433C7.81069 13.0975 7.79811 13.1508 7.77377 13.2C7.76622 13.215 7.76706 13.2308 7.75867 13.245L5.62149 17H18.4479L16.3107 13.245ZM9.53506 9.5H11.2015V7.83333C11.2015 7.37333 11.5749 7 12.0356 7C12.4954 7 12.8688 7.37333 12.8688 7.83333V9.5H14.5352C14.9959 9.5 15.3693 9.87333 15.3693 10.3333C15.3693 10.7933 14.9959 11.1667 14.5352 11.1667H12.8688V12.8333C12.8688 13.2933 12.4954 13.6667 12.0356 13.6667C11.5749 13.6667 11.2015 13.2933 11.2015 12.8333V11.1667H9.53506C9.07523 11.1667 8.70183 10.7933 8.70183 10.3333C8.70183 9.87333 9.07523 9.5 9.53506 9.5Z" fill="currentColor"/>
</svg>