<svg viewBox="0 0 24 24" fill="none" xmlns="http://www.w3.org/2000/svg">
<path fill-rule="evenodd" clip-rule="evenodd" d="M21.7557 3.42322L3.42227 21.7558C3.26023 21.918 3.04698 22 2.83372 22C2.62046 22 2.4072 21.918 2.24432 21.7558C1.91856 21.4304 1.91856 20.9026 2.24432 20.5772L4.32736 18.4944C4.13257 18.3899 3.96885 18.2418 3.85215 18.0528C3.61034 17.6622 3.60363 17.1753 3.83368 16.7153L6.16691 12.6133V7.833C6.16691 4.61684 8.78309 2.00042 11.9987 2.00042C14.3387 2.00042 16.4184 3.39729 17.3369 5.48508L20.5777 2.24466C20.9026 1.91845 21.4308 1.91845 21.7557 2.24466C22.0814 2.57004 22.0814 3.09701 21.7557 3.42322ZM16.0296 6.76987V6.76903C15.5494 4.94306 13.8912 3.66747 11.9987 3.66747C9.7016 3.66747 7.8335 5.5361 7.8335 7.833V12.8333C7.8335 12.85 7.8251 12.8643 7.82426 12.8802C7.8209 12.9354 7.80579 12.9881 7.79152 13.0424C7.7764 13.0976 7.76381 13.1503 7.73946 13.2005C7.7319 13.2147 7.73274 13.2315 7.72435 13.2457L5.56827 17.034C5.622 17.0499 5.66818 17.0791 5.71688 17.1051L16.0338 6.78827C16.0321 6.78158 16.0313 6.77573 16.0296 6.76987ZM9.69825 17.2933C9.85693 17.1067 10.0887 16.9997 10.333 16.9997H18.4132L16.2756 13.2457C16.2681 13.2315 16.2681 13.2147 16.2614 13.2005C16.2362 13.1503 16.2236 13.0976 16.2093 13.0424C16.195 12.9881 16.1791 12.9354 16.1766 12.8802C16.1749 12.8643 16.1665 12.85 16.1665 12.8333V11.1663C16.1665 10.7071 16.5401 10.3332 17.0002 10.3332C17.4603 10.3332 17.8331 10.7071 17.8331 11.1663V12.6133L20.1453 16.676C20.3964 17.1753 20.3897 17.6622 20.1479 18.0528C19.9077 18.4426 19.4745 18.6667 18.9607 18.6667H15.3336C15.3336 20.5044 13.8375 22 11.9987 22C10.2322 22 8.77133 20.6199 8.67058 18.8574C8.65799 18.6441 8.72935 18.4334 8.86789 18.2703L9.69825 17.2933ZM11.9988 20.333C12.919 20.333 13.667 19.5852 13.667 18.6667H10.7184L10.38 19.0657C10.5589 19.796 11.2196 20.333 11.9988 20.333Z" fill="currentColor"/>
</svg>