<svg viewBox="0 0 24 24" fill="none" xmlns="http://www.w3.org/2000/svg">
<path fill-rule="evenodd" clip-rule="evenodd" d="M20.1839 18.0525C19.9431 18.4425 19.5101 18.6667 18.9957 18.6667H15.3683C15.3683 20.5042 13.8722 22 12.0329 22C10.1953 22 8.6992 20.5042 8.6992 18.6667H5.07347C4.55994 18.6667 4.12697 18.4425 3.88615 18.0525C3.64449 17.6625 3.63777 17.1742 3.86769 16.715L6.20037 12.6125V7.83333C6.20037 4.61667 8.81751 2 12.0329 2C15.2509 2 17.868 4.61667 17.868 7.83333V12.6125L20.1805 16.6758C20.4314 17.1742 20.4247 17.6617 20.1839 18.0525ZM12.0329 20.3333C12.9526 20.3333 13.701 19.5858 13.701 18.6667H10.3665C10.3665 19.5858 11.1141 20.3333 12.0329 20.3333ZM16.3107 13.245C16.3023 13.2308 16.3031 13.215 16.2956 13.2C16.2712 13.1508 16.2586 13.0975 16.2435 13.0425C16.2293 12.9875 16.2142 12.9358 16.2108 12.88C16.21 12.8633 16.2016 12.85 16.2016 12.8333V7.83333C16.2016 5.53583 14.3312 3.66667 12.0329 3.66667C9.73634 3.66667 7.86767 5.53583 7.86767 7.83333V12.8333C7.86767 12.85 7.85928 12.8642 7.8576 12.88C7.85509 12.935 7.83998 12.9875 7.82572 13.0417C7.81062 13.0967 7.79803 13.15 7.77286 13.2C7.76614 13.215 7.76614 13.2308 7.75859 13.245L5.62225 17H18.4478L16.3107 13.245ZM9.5341 8.66667C9.5341 8.20667 9.9075 7.83333 10.3673 7.83333H13.701C14.0216 7.83333 14.3136 8.0175 14.452 8.30583C14.5913 8.59417 14.5519 8.93667 14.3522 9.1875L12.1017 12H13.701C14.1617 12 14.5343 12.3733 14.5343 12.8333C14.5343 13.2933 14.1617 13.6667 13.701 13.6667H10.3673C10.0476 13.6667 9.75478 13.4825 9.61633 13.1942C9.47788 12.905 9.51648 12.5633 9.71702 12.3125L11.9675 9.5H10.3673C9.9075 9.5 9.5341 9.12667 9.5341 8.66667Z" fill="currentColor"/>
</svg>