<svg viewBox="0 0 24 24" fill="none" xmlns="http://www.w3.org/2000/svg">
<path fill-rule="evenodd" clip-rule="evenodd" d="M20.1835 18.0525C19.9427 18.4425 19.5088 18.6667 18.9953 18.6667H15.3678C15.3678 20.5042 13.8717 22 12.0332 22C10.1948 22 8.69947 20.5042 8.69947 18.6667H5.07369C4.56016 18.6667 4.12634 18.4425 3.88552 18.0525C3.6447 17.6625 3.63798 17.1742 3.86706 16.715L6.20061 12.6125V7.83333C6.20061 4.61667 8.81695 2 12.0332 2C15.2504 2 17.8684 4.61667 17.8684 7.83333V12.6125L20.181 16.6758C20.431 17.1742 20.4251 17.6625 20.1835 18.0525ZM12.0333 20.3333C12.9529 20.3333 13.7014 19.5858 13.7014 18.6667H10.366C10.366 19.5858 11.1136 20.3333 12.0333 20.3333ZM16.311 13.245C16.1919 13.0367 16.1776 12.8 16.2439 12.5875V8.0425C16.2254 7.97417 16.2019 7.9075 16.2019 7.83333C16.2019 5.53583 14.3316 3.66667 12.0333 3.66667C9.73662 3.66667 7.86793 5.53583 7.86793 7.83333V12.8333C7.86793 12.85 7.8587 12.8633 7.85786 12.88C7.85534 12.9358 7.8394 12.9875 7.82514 13.0425C7.81087 13.0975 7.79828 13.1508 7.77311 13.2C7.7664 13.215 7.7664 13.2308 7.75885 13.245L5.62164 17H18.4482L16.311 13.245Z" fill="currentColor"/>
</svg>