<svg viewBox="0 0 24 24" fill="none" xmlns="http://www.w3.org/2000/svg">
<g clip-path="url(#clip0_1265_21213)">
<path d="M12 24C18.6274 24 24 18.6274 24 12C24 5.37258 18.6274 0 12 0C5.37258 0 0 5.37258 0 12C0 18.6274 5.37258 24 12 24Z" fill="#F5D100"/>
<path d="M11.9971 5C8.13968 5 5 8.13968 5 11.9971C5 15.8545 8.13968 19 12.0029 19C15.8656 19 19.0053 15.8603 19.0053 11.9971C19.0053 8.13442 15.8603 5 11.9977 5H11.9971ZM11.9971 18.46C8.43659 18.46 5.53419 15.5634 5.53419 11.9971C5.54004 8.43659 8.43659 5.53945 11.9971 5.53945C15.5582 5.53945 18.4606 8.43659 18.4606 12.0029C18.4606 15.5634 15.5634 18.4605 11.9971 18.4605V18.46Z" fill="white"/>
<path d="M8.37476 8.89003L8.88908 8.37512L11.629 11.1145L11.1141 11.6288L8.37476 8.89003ZM12.3596 12.8766L12.8745 12.3617L15.6138 15.101L15.0989 15.6153L12.3596 12.8766ZM11.4858 11.9987L12.0001 11.4844L12.5191 12.0022L12.0048 12.5177L11.4858 11.9987ZM12.3672 11.1367L15.1065 8.39792L15.6208 8.91282L12.8821 11.6522L12.3672 11.1367ZM8.39463 15.1039L11.1334 12.3652L11.6483 12.8795L8.90953 15.6188L8.39463 15.1039Z" fill="white"/>
</g>
<defs>
<clipPath id="clip0_1265_21213">
<rect width="24" height="24" fill="white"/>
</clipPath>
</defs>
</svg>