<svg width="24" height="24" viewBox="0 0 24 24" fill="none" xmlns="http://www.w3.org/2000/svg">
<g clip-path="url(#clip0_1265_21209)">
<path d="M12 24C18.6274 24 24 18.6274 24 12C24 5.37258 18.6274 0 12 0C5.37258 0 0 5.37258 0 12C0 18.6274 5.37258 24 12 24Z" fill="#82BD39"/>
<path d="M10.8821 14.352L12 15.8248V19L7.80005 17.1359V8.9333C7.80005 8.8122 7.85395 8.6967 7.94845 8.6162L8.42655 8.2067C8.4726 8.16687 8.52634 8.13691 8.58444 8.11867C8.64253 8.10043 8.70375 8.09431 8.76431 8.10067C8.82487 8.10703 8.88348 8.12575 8.93651 8.15567C8.98955 8.18559 9.03588 8.22606 9.07265 8.2746L12.8981 13.2894L15.0114 14.5816V7.6656L13.1438 6.7339L13.0528 11.0711L12.0644 9.76L12.0196 5L16.2 6.9453V15.1101L15.2501 15.8927L12.2583 14.2218L8.93755 9.8657L8.89205 16.4835L10.8695 17.4964L10.8821 14.352Z" fill="white"/>
</g>
<defs>
<clipPath id="clip0_1265_21209">
<rect width="24" height="24" fill="white"/>
</clipPath>
</defs>
</svg>
