<svg viewBox="0 0 24 24" fill="none" xmlns="http://www.w3.org/2000/svg">
<g clip-path="url(#clip0_1265_21205)">
<path d="M12 24C18.6274 24 24 18.6274 24 12C24 5.37258 18.6274 0 12 0C5.37258 0 0 5.37258 0 12C0 18.6274 5.37258 24 12 24Z" fill="#4099CD"/>
<path fill-rule="evenodd" clip-rule="evenodd" d="M18.5 12C18.5 15.5899 15.5899 18.5 12 18.5C8.41015 18.5 5.5 15.5899 5.5 12C5.5 8.41015 8.41015 5.5 12 5.5C14.486 5.5 16.6461 6.89562 17.7394 8.94612C16.2874 8.07604 13.3105 8.65984 10.4936 10.4891C9.90761 10.8686 9.35035 11.2908 8.82638 11.7522C8.66945 11.636 8.47594 11.5803 8.28126 11.5951C8.08658 11.6099 7.90376 11.6944 7.76625 11.833C7.62873 11.9716 7.54573 12.1551 7.53242 12.3499C7.5191 12.5446 7.57638 12.7377 7.69376 12.8937C7.03401 13.6599 6.56032 14.4359 6.31454 15.1525C7.08237 16.534 8.32579 17.5896 9.81357 18.123C11.1635 17.8951 12.7329 17.2698 14.2551 16.2814C16.4619 14.8482 18.0105 13.0144 18.4793 11.4796C18.4291 10.8409 18.2844 10.2147 18.0509 9.62103C18.3408 10.3578 18.5 11.1603 18.5 12ZM6.96576 15.9849C6.50426 15.2739 6.88573 14.1421 7.83798 13.042C7.99093 13.1637 8.18264 13.2263 8.37795 13.2181C8.57326 13.2099 8.75907 13.1316 8.90131 12.9975C9.04355 12.8634 9.13268 12.6825 9.15235 12.488C9.17201 12.2935 9.1209 12.0985 9.00838 11.9386C9.22776 11.7668 9.46095 11.6002 9.70591 11.441C11.9167 10.0057 14.2742 9.71198 14.9717 10.7857C15.6689 11.8594 14.442 13.8939 12.2312 15.3296C10.0208 16.7649 7.66288 17.0586 6.96576 15.9849Z" fill="white"/>
</g>
<defs>
<clipPath id="clip0_1265_21205">
<rect width="24" height="24" fill="white"/>
</clipPath>
</defs>
</svg>