<svg width="24" height="24" viewBox="0 0 24 24" fill="none" xmlns="http://www.w3.org/2000/svg">
<g clip-path="url(#clip0_1265_21201)">
<path d="M12 24C18.6274 24 24 18.6274 24 12C24 5.37258 18.6274 0 12 0C5.37258 0 0 5.37258 0 12C0 18.6274 5.37258 24 12 24Z" fill="#008FBB"/>
<path fill-rule="evenodd" clip-rule="evenodd" d="M18.4158 12.5301C18.0932 12.5301 17.8316 12.2927 17.8316 12V11.4692H14.8967C14.5741 11.4692 14.3125 11.2319 14.3125 10.9392C14.3125 10.6464 14.5741 10.4091 14.8967 10.4091H18.4158C18.7385 10.4091 19 10.6464 19 10.9392V12C19 12.2927 18.7391 12.5301 18.4158 12.5301ZM15.521 12.5301H16.6887C17.0114 12.5301 17.2729 12.7674 17.2729 13.0602C17.2729 13.3529 17.012 13.5909 16.6887 13.5909H14.8967C14.8037 13.5911 14.7117 13.5707 14.6275 13.5311L11.2217 11.4692H10.2405C9.91782 11.4692 9.65627 11.2319 9.65627 10.9392C9.65627 10.6464 9.91718 10.4091 10.2405 10.4091H11.4082C11.5342 10.4091 11.6506 10.4453 11.7461 10.5071L15.0755 12.5307H15.521V12.5301ZM11.4082 12.5301C11.7308 12.5301 11.9924 12.7674 11.9924 13.0602C11.9924 13.3529 11.7308 13.5909 11.4082 13.5909H10.2405C10.1474 13.5911 10.0555 13.5707 9.97127 13.5311L6.56545 11.4692H5.58418C5.26155 11.4692 5 11.2319 5 10.9392C5 10.6464 5.26091 10.4091 5.58418 10.4091H6.75191C6.87162 10.4086 6.98892 10.4426 7.08982 10.5071L10.4193 12.5307H11.4082V12.5301ZM5.58418 12.5301H6.75191C7.07455 12.5301 7.33609 12.7674 7.33609 13.0608C7.33609 13.3535 7.07455 13.5909 6.75191 13.5909H5.58418C5.26155 13.5909 5 13.3535 5 13.0608C5 12.7681 5.26091 12.5301 5.58418 12.5301Z" fill="white"/>
</g>
<defs>
<clipPath id="clip0_1265_21201">
<rect width="24" height="24" fill="white"/>
</clipPath>
</defs>
</svg>
