<svg width="24" height="24" viewBox="0 0 24 24" fill="none" xmlns="http://www.w3.org/2000/svg">
<path d="M19.3933 4.92863C15.4884 1.02379 9.15684 1.02379 5.25192 4.92863C1.34534 8.83347 1.34534 15.1665 5.25026 19.0714C9.15518 22.9762 15.4867 22.9762 19.3916 19.0714C23.2982 15.1665 23.2982 8.83347 19.3933 4.92863ZM18.5366 18.2147C15.1051 21.6463 9.54017 21.6463 6.10691 18.2147C2.67531 14.7832 2.67531 9.21678 6.10691 5.78526C9.5385 2.35374 15.1051 2.35374 18.5366 5.78526C21.9682 9.21678 21.9682 14.7832 18.5366 18.2147Z" fill="white"/>
<path d="M18.5203 5.80154C15.0978 2.37898 9.54588 2.37898 6.12332 5.80154C2.70076 9.2241 2.70076 14.776 6.12332 18.1986C9.54588 21.6211 15.0961 21.6211 18.5203 18.1986C21.9429 14.776 21.9429 9.2241 18.5203 5.80154ZM8.62666 19.0463C8.00997 18.7139 7.44314 18.3 6.93782 17.8196V6.18053C7.4581 5.68518 8.04487 5.26131 8.68318 4.92388L16.017 16.0742V4.9538C16.6337 5.28625 17.2005 5.70014 17.7058 6.18053V17.8196C17.1856 18.3149 16.5988 18.7388 15.9605 19.0762L8.62666 7.92589V19.0463Z" fill="#141521"/>
<path d="M17.7539 17.8998V6.22356C17.2499 5.74164 16.6845 5.32642 16.0694 4.99291V16.1488L8.75412 4.96289C8.11743 5.3014 7.53215 5.72663 7.01318 6.22356V17.8998C7.51723 18.3817 8.08261 18.7969 8.69775 19.1304V7.97449L16.013 19.1604C16.6497 18.8219 17.235 18.3967 17.7539 17.8998Z" fill="white"/>
</svg>
