<svg viewBox="0 0 24 24" fill="none" xmlns="http://www.w3.org/2000/svg">
<g clip-path="url(#clip0_1265_21197)">
<path d="M12 24C18.6274 24 24 18.6274 24 12C24 5.37258 18.6274 0 12 0C5.37258 0 0 5.37258 0 12C0 18.6274 5.37258 24 12 24Z" fill="#164B79"/>
<path d="M10.785 13.6976L10.3886 14.5439H9.50918L11.8973 9.45459L13.49 12.8481H12.5896L11.877 11.375L11.163 12.8729L10.785 13.6976ZM14.2555 14.5248L16.12 12.0114L14.2422 9.47877H15.2699L16.6322 11.3305L16.1365 12.0114L16.6322 12.6922L15.2705 14.5439H13.385L12.9867 13.6976H13.8661L14.2555 14.5248ZM17.1356 12.0005L16.6322 11.3088L17.9946 9.45713H19L17.1356 12.0005ZM17.1356 12.0005L19 14.5446H17.9946L16.6329 12.6929L17.1356 12.0005ZM9.0873 10.1921C9.31584 10.4333 9.49448 10.7173 9.61296 11.0278C9.73144 11.3382 9.78743 11.669 9.77771 12.0012C9.78644 12.6699 9.53948 13.3168 9.0873 13.8096C8.62787 14.3244 8.05963 14.5452 7.38958 14.5452C7.07085 14.5484 6.75502 14.4845 6.46255 14.3578C6.17009 14.2311 5.90751 14.0443 5.69186 13.8096C5.2323 13.3214 4.98396 12.6715 5.0008 12.0012C4.99056 11.4764 5.14427 10.9614 5.44051 10.5281L6.02593 11.1517C5.84266 11.4787 5.76633 11.8549 5.80764 12.2274C5.84895 12.6 6.00583 12.9504 6.25628 13.2293C6.39821 13.39 6.57246 13.519 6.76763 13.6078C6.9628 13.6966 7.17451 13.7433 7.38894 13.7447C7.81655 13.7447 8.22507 13.5583 8.5216 13.2293C8.67371 13.0683 8.79263 12.879 8.87156 12.6721C8.9505 12.4652 8.98791 12.2448 8.98167 12.0234C8.98315 11.578 8.81894 11.148 8.52097 10.817C8.37835 10.6588 8.20339 10.5332 8.00796 10.4487C7.81253 10.3642 7.60119 10.3227 7.3883 10.327C7.10697 10.3193 6.82989 10.3969 6.59353 10.5497L6.00811 9.92611C6.40125 9.61526 6.88973 9.44981 7.39085 9.45777C7.70954 9.45208 8.02576 9.51466 8.31826 9.64132C8.61076 9.76798 8.87276 9.95578 9.08666 10.1921H9.0873Z" fill="white"/>
</g>
<defs>
<clipPath id="clip0_1265_21197">
<rect width="24" height="24" fill="white"/>
</clipPath>
</defs>
</svg>