<svg viewBox="0 0 24 24" fill="none" xmlns="http://www.w3.org/2000/svg">
<g clip-path="url(#clip0_1265_21168)">
<path d="M12 24C18.6274 24 24 18.6274 24 12C24 5.37258 18.6274 0 12 0C5.37258 0 0 5.37258 0 12C0 18.6274 5.37258 24 12 24Z" fill="black"/>
<path fill-rule="evenodd" clip-rule="evenodd" d="M11.0686 6.42987C11.0654 6.94374 11.4846 7.36462 12.0001 7.36462C12.514 7.36625 12.9349 6.94537 12.9349 6.4315C12.9332 5.9209 12.5156 5.50165 12.0066 5.50002C11.4928 5.49676 11.0703 5.91601 11.0686 6.42987ZM8.34257 7.81001C8.33768 8.32225 8.75693 8.74476 9.27242 8.74639C9.78792 8.74802 10.2055 8.33367 10.2072 7.81817C10.2088 7.30757 9.79445 6.88832 9.28221 6.88505C8.76672 6.88016 8.3491 7.29288 8.34257 7.81001ZM12.9315 11.9241C12.9299 11.4119 12.5172 10.9975 12.0049 10.9943C11.4894 10.9926 11.0718 11.407 11.0669 11.9225C11.0637 12.4331 11.4796 12.854 11.9902 12.8572C12.5106 12.8605 12.9331 12.4412 12.9315 11.9241ZM12.0033 8.26673C12.5188 8.26836 12.9397 8.69087 12.9331 9.20311C12.9266 9.72024 12.5074 10.1346 11.9935 10.1313C11.4829 10.1281 11.0669 9.70718 11.0669 9.19821C11.0685 8.68272 11.4878 8.2651 12.0033 8.26673ZM17.4846 8.26673C18.0001 8.2651 18.4194 8.68435 18.4194 9.19821C18.4194 9.70882 18.0034 10.1281 17.4928 10.1313C16.9773 10.1346 16.5597 9.72024 16.5564 9.20311C16.5532 8.68598 16.9675 8.26836 17.4846 8.26673ZM8.34426 10.5408C8.34099 11.0547 8.76024 11.4756 9.27574 11.4756C9.79124 11.4756 10.2105 11.0563 10.2105 10.5424C10.2072 10.0302 9.79287 9.6126 9.28227 9.61097C8.76677 9.60933 8.34589 10.027 8.34426 10.5408ZM13.8321 7.81162C13.8353 7.29286 14.2513 6.88177 14.7684 6.88503C15.2839 6.88829 15.6983 7.3108 15.6934 7.82467C15.6885 8.34017 15.2676 8.75289 14.7505 8.74637C14.2382 8.74147 13.8288 8.32548 13.8321 7.81162ZM6.51075 10.1313C7.02624 10.133 7.44386 9.71697 7.44386 9.19984C7.44549 8.68108 7.02951 8.2651 6.51238 8.26673C6.00014 8.26673 5.58416 8.68108 5.58252 9.19332C5.58089 9.70882 5.99851 10.1297 6.51075 10.1313ZM14.7522 11.4739C14.2318 11.4641 13.824 11.0465 13.8322 10.5294C13.8403 10.0073 14.2628 9.59952 14.7848 9.6093C15.2922 9.61909 15.7033 10.0481 15.6935 10.5587C15.6837 11.0726 15.2612 11.4837 14.7522 11.4739ZM5.84351 11.761C5.84514 12.1411 6.15673 12.4494 6.53682 12.4478C6.91529 12.4462 7.22524 12.1329 7.22361 11.7529C7.22035 11.3744 6.90713 11.0628 6.5303 11.0661C6.1502 11.0693 5.84188 11.3809 5.84351 11.761ZM8.56787 13.1395C8.56787 12.761 8.87945 12.4494 9.25955 12.4511C9.63802 12.4511 9.9496 12.7643 9.94797 13.1427C9.94634 13.5212 9.63476 13.8328 9.25629 13.8328C8.87782 13.8312 8.56787 13.5179 8.56787 13.1395ZM15.4323 13.1411C15.434 12.7627 15.1224 12.4495 14.7439 12.4495C14.3655 12.4495 14.0539 12.7594 14.0523 13.1379C14.0506 13.5164 14.3622 13.8296 14.7407 13.8312C15.1191 13.8312 15.4307 13.5196 15.4323 13.1411ZM16.8174 11.7545C16.819 11.3727 17.129 11.0644 17.5074 11.066C17.8875 11.0693 18.1942 11.3776 18.1926 11.7594C18.191 12.1411 17.8826 12.4478 17.5025 12.4461C17.1224 12.4461 16.8158 12.1362 16.8174 11.7545ZM11.3296 14.4837C11.328 14.8638 11.6379 15.1738 12.018 15.1738C12.3997 15.1754 12.7081 14.8671 12.7097 14.4853C12.7097 14.1052 12.403 13.7969 12.0213 13.7953C11.6412 13.7953 11.3312 14.1036 11.3296 14.4837ZM12.4831 16.6142C12.4831 16.8719 12.2759 17.0807 12.0182 17.0807C11.762 17.0807 11.5516 16.8687 11.5532 16.6126C11.5549 16.3597 11.762 16.1525 12.0149 16.1509C12.2759 16.1493 12.4831 16.3548 12.4831 16.6142ZM14.7374 15.6974C14.9984 15.6991 15.2056 15.4935 15.2072 15.2358C15.2088 14.978 15 14.7676 14.7439 14.7676C14.4894 14.766 14.2773 14.978 14.2773 15.2341C14.2773 15.487 14.4845 15.6958 14.7374 15.6974ZM9.25464 15.6974C8.99526 15.6957 8.79135 15.4885 8.79298 15.2275C8.79461 14.9747 9.00179 14.7675 9.25627 14.7659C9.51076 14.7659 9.72283 14.9779 9.72283 15.2324C9.72283 15.4902 9.51239 15.6974 9.25464 15.6974ZM6.54014 13.3842C6.28566 13.3793 6.07195 13.5914 6.07032 13.8475C6.06869 14.1053 6.27424 14.3141 6.53362 14.3174C6.7881 14.3174 7.00017 14.1069 7.00017 13.8508C7.00017 13.5979 6.793 13.3891 6.54014 13.3842ZM17.9692 13.8491C17.9708 14.1069 17.762 14.3173 17.5059 14.3173C17.2498 14.3173 17.0377 14.1036 17.0393 13.8491C17.0409 13.5963 17.2498 13.3875 17.501 13.3842C17.7555 13.3809 17.9675 13.5914 17.9692 13.8491ZM17.7473 15.4918C17.7457 15.363 17.638 15.2553 17.5075 15.2537C17.3721 15.2537 17.2628 15.3613 17.2644 15.4935C17.2644 15.624 17.3721 15.7316 17.5026 15.7333C17.6364 15.7365 17.7489 15.624 17.7473 15.4918ZM12.2578 18.257C12.2594 18.3924 12.1534 18.5017 12.018 18.5017C11.8858 18.5017 11.7814 18.3956 11.7798 18.2635C11.7782 18.1281 11.8858 18.0188 12.0196 18.0188C12.1501 18.0188 12.2562 18.1232 12.2578 18.257ZM6.53352 15.7366C6.66566 15.7349 6.7717 15.6305 6.77333 15.4984C6.77496 15.3646 6.67219 15.2586 6.54168 15.2553C6.40465 15.2521 6.29535 15.3565 6.29372 15.4919C6.29209 15.6273 6.39812 15.7366 6.53352 15.7366ZM9.49767 16.8768C9.49767 17.0122 9.39001 17.1166 9.25298 17.115C9.12084 17.1133 9.01807 17.0073 9.01807 16.8752C9.01807 16.7414 9.12084 16.6386 9.25461 16.637C9.39001 16.6353 9.49767 16.7414 9.49767 16.8768ZM14.5042 16.872C14.5025 17.009 14.6069 17.1167 14.7423 17.1167C14.8761 17.1167 14.9805 17.0156 14.9821 16.8818C14.9854 16.7448 14.881 16.6371 14.744 16.6371C14.6102 16.6371 14.5058 16.7399 14.5042 16.872Z" fill="white"/>
</g>
<defs>
<clipPath id="clip0_1265_21168">
<rect width="24" height="24" fill="white"/>
</clipPath>
</defs>
</svg>