<svg viewBox="0 0 24 24" fill="none" xmlns="http://www.w3.org/2000/svg">
<path fill-rule="evenodd" clip-rule="evenodd" d="M21.2771 20.721L16.7178 21.3258C16.6811 21.3308 16.6443 21.3333 16.6076 21.3333C16.4255 21.3333 16.2467 21.2733 16.1005 21.1606C15.9243 21.0263 15.8098 20.8269 15.7814 20.6075L13.6881 4.54001C13.6287 4.08452 13.9504 3.66573 14.4073 3.60649L18.9891 3.00751C19.2096 2.97831 19.431 3.03837 19.6056 3.17352C19.781 3.30867 19.8954 3.50722 19.9238 3.72663L21.993 19.7883C22.0523 20.2438 21.7315 20.6609 21.2771 20.721ZM18.3776 4.76776L15.4489 5.15151L15.6703 6.85003L18.5964 6.46795L18.3776 4.76776ZM18.8095 8.12059L15.885 8.50267L17.3268 19.5647L20.2346 19.1776L18.8095 8.12059ZM18.6667 17.1071C19.1269 17.1071 19.5003 17.48 19.5003 17.9405C19.5003 18.4018 19.1269 18.8031 18.6667 18.8031C18.2064 18.8031 17.8338 18.461 17.8338 18.0005V17.9405C17.8338 17.48 18.2064 17.1071 18.6667 17.1071ZM12.846 21.3333H8.34521H2.83283C2.37256 21.3333 2 20.9604 2 20.5008V3.83341C2 3.37291 2.37256 3 2.83283 3H8.34521H12.8159C12.8218 3 12.826 3.00334 12.831 3.00334C12.836 3.00334 12.841 3 12.846 3C13.3063 3 13.6797 3.37291 13.6797 3.83341V20.5008C13.6797 20.9604 13.3063 21.3333 12.846 21.3333ZM7.00614 4.66682H3.66646V6.33364H7.00614V4.66682ZM7.00614 8.00045H3.66646V19.6665H7.00614V8.00045ZM8.67267 19.6665H12.0123V8.00045H8.67267V19.6665ZM8.67267 6.33364H12.0123V4.66682H8.67267V6.33364ZM10.9331 18.592C10.7752 18.7413 10.5664 18.8339 10.3417 18.8339C10.1253 18.8339 9.90816 18.7413 9.74945 18.5837C9.59992 18.4327 9.50804 18.2166 9.50804 18.0005C9.50804 17.7836 9.59992 17.5667 9.75864 17.4082C10.0585 17.1004 10.6249 17.1004 10.9331 17.4082C11.0835 17.5667 11.1745 17.7836 11.1745 18.0005C11.1745 18.2166 11.0835 18.4327 10.9331 18.592ZM5.92529 17.4082C6.08317 17.5667 6.1667 17.7836 6.1667 18.0005C6.1667 18.2166 6.08317 18.4327 5.92529 18.592C5.76657 18.7413 5.55857 18.8339 5.33303 18.8339C5.11668 18.8339 4.89949 18.7413 4.74997 18.5837C4.59125 18.4327 4.5002 18.2166 4.5002 18.0005C4.5002 17.7836 4.59125 17.5667 4.74997 17.4082C5.04985 17.1004 5.60786 17.1004 5.92529 17.4082Z" fill="currentColor"/>
</svg>