<svg viewBox="0 0 24 24" fill="none" xmlns="http://www.w3.org/2000/svg">
<path d="M10.9238 10.9237C11.6312 11.0969 12.3699 11.0969 13.0773 10.9237C13.2749 10.1199 13.6889 9.38549 14.2742 8.80015C14.8595 8.21482 15.5939 7.80087 16.3978 7.6032C16.5607 6.93685 16.5701 6.24219 16.4252 5.57168C16.2802 4.90118 15.9849 4.27238 15.5613 3.73278C15.1377 3.19318 14.5971 2.7569 13.9802 2.45689C13.3633 2.15687 12.6863 2.00098 12.0003 2.00098C11.3143 2.00098 10.6373 2.15687 10.0204 2.45689C9.40351 2.7569 8.86286 3.19318 8.4393 3.73278C8.01573 4.27238 7.72034 4.90118 7.57543 5.57168C7.43052 6.24219 7.43988 6.93685 7.6028 7.6032C8.40681 7.80064 9.14139 8.2145 9.72684 8.79986C10.3123 9.38523 10.7263 10.1197 10.9238 10.9237Z" fill="#7ABDF7"/>
<path d="M13.0773 13.0762C12.3699 12.903 11.6312 12.903 10.9238 13.0762C10.7261 13.88 10.3122 14.6144 9.72686 15.1998C9.14153 15.7851 8.40713 16.199 7.60329 16.3967C7.44037 17.0631 7.43101 17.7577 7.57592 18.4282C7.72083 19.0987 8.01622 19.7275 8.43978 20.2671C8.86334 20.8067 9.404 21.243 10.0209 21.543C10.6378 21.843 11.3148 21.9989 12.0008 21.9989C12.6868 21.9989 13.3638 21.843 13.9807 21.543C14.5976 21.243 15.1382 20.8067 15.5618 20.2671C15.9853 19.7275 16.2807 19.0987 16.4256 18.4282C16.5706 17.7577 16.5612 17.0631 16.3983 16.3967C15.5943 16.1993 14.8597 15.7854 14.2742 15.2001C13.6888 14.6147 13.2748 13.8802 13.0773 13.0762Z" fill="#0D74F5"/>
<path d="M17.4745 7.47292C17.1119 7.47287 16.7505 7.51645 16.3983 7.60271C16.2008 8.40652 15.787 9.1409 15.2017 9.72618C14.6165 10.3115 13.8821 10.7253 13.0783 10.9227C12.9051 11.6301 12.9051 12.3688 13.0783 13.0762C13.8821 13.2738 14.6165 13.6877 15.2017 14.2731C15.787 14.8584 16.2008 15.5928 16.3983 16.3967C17.0201 16.5486 17.667 16.5669 18.2964 16.4504C18.9258 16.3339 19.5233 16.0852 20.0495 15.7209C20.5758 15.3565 21.0188 14.8847 21.3493 14.3365C21.6798 13.7884 21.8903 13.1764 21.9669 12.5409C22.0436 11.9055 21.9846 11.261 21.7938 10.65C21.6031 10.039 21.285 9.47537 20.8604 8.99635C20.4359 8.51733 19.9146 8.13378 19.331 7.871C18.7473 7.60823 18.1146 7.47221 17.4745 7.47192V7.47292Z" fill="#4494F7"/>
<path d="M10.9237 13.0761C11.0969 12.3688 11.0969 11.6301 10.9237 10.9227C10.1199 10.7252 9.38544 10.3114 8.80008 9.72614C8.21473 9.14087 7.8008 8.4065 7.6032 7.60268C6.93685 7.43976 6.24219 7.4304 5.57168 7.57531C4.90118 7.72022 4.27238 8.01561 3.73278 8.43917C3.19318 8.86273 2.7569 9.40338 2.45689 10.0203C2.15687 10.6372 2.00098 11.3142 2.00098 12.0002C2.00098 12.6862 2.15687 13.3632 2.45689 13.9801C2.7569 14.597 3.19318 15.1376 3.73278 15.5612C4.27238 15.9847 4.90118 16.2801 5.57168 16.425C6.24219 16.5699 6.93685 16.5606 7.6032 16.3977C7.80061 15.5936 8.21445 14.8589 8.79981 14.2734C9.38517 13.6878 10.1197 13.2738 10.9237 13.0761Z" fill="#005CF4"/>
<path d="M13.0773 10.9238C13.8811 10.7261 14.6155 10.3122 15.2008 9.72684C15.7862 9.14151 16.2001 8.40711 16.3978 7.60327C15.5939 7.80094 14.8596 8.21488 14.2742 8.80022C13.6889 9.38555 13.2749 10.1199 13.0773 10.9238Z" fill="#186EF9"/>
<path d="M13.0773 13.0762C13.2748 13.8801 13.6887 14.6146 14.274 15.1999C14.8594 15.7853 15.5939 16.1992 16.3978 16.3967C16.2001 15.5929 15.7862 14.8585 15.2008 14.2731C14.6155 13.6878 13.8811 13.2738 13.0773 13.0762Z" fill="#0246F2"/>
<path d="M10.9238 10.9238C10.7261 10.1199 10.3122 9.38555 9.72685 8.80022C9.14151 8.21488 8.40711 7.80094 7.60327 7.60327C7.80094 8.40711 8.21488 9.14151 8.80022 9.72684C9.38555 10.3122 10.12 10.7261 10.9238 10.9238Z" fill="#0046F8"/>
<path d="M10.9238 13.0762C10.12 13.2738 9.38555 13.6878 8.80022 14.2731C8.21488 14.8585 7.80094 15.5929 7.60327 16.3967C8.40711 16.199 9.14151 15.7851 9.72685 15.1998C10.3122 14.6144 10.7261 13.88 10.9238 13.0762Z" fill="#0729F1"/>
<path d="M10.9238 10.9237C11.6312 11.0969 12.3699 11.0969 13.0773 10.9237C13.2749 10.1199 13.6889 9.38549 14.2742 8.80015C14.8595 8.21482 15.5939 7.80087 16.3978 7.6032C16.5607 6.93685 16.5701 6.24219 16.4252 5.57168C16.2802 4.90118 15.9849 4.27238 15.5613 3.73278C15.1377 3.19318 14.5971 2.7569 13.9802 2.45689C13.3633 2.15687 12.6863 2.00098 12.0003 2.00098C11.3143 2.00098 10.6373 2.15687 10.0204 2.45689C9.40351 2.7569 8.86286 3.19318 8.4393 3.73278C8.01573 4.27238 7.72034 4.90118 7.57543 5.57168C7.43052 6.24219 7.43988 6.93685 7.6028 7.6032C8.40681 7.80064 9.14139 8.2145 9.72684 8.79986C10.3123 9.38523 10.7263 10.1197 10.9238 10.9237Z" fill="#7ABDF7"/>
<path d="M13.0773 13.0762C12.3699 12.903 11.6312 12.903 10.9238 13.0762C10.7261 13.88 10.3122 14.6144 9.72686 15.1998C9.14153 15.7851 8.40713 16.199 7.60329 16.3967C7.44037 17.0631 7.43101 17.7577 7.57592 18.4282C7.72083 19.0987 8.01622 19.7275 8.43978 20.2671C8.86334 20.8067 9.404 21.243 10.0209 21.543C10.6378 21.843 11.3148 21.9989 12.0008 21.9989C12.6868 21.9989 13.3638 21.843 13.9807 21.543C14.5976 21.243 15.1382 20.8067 15.5618 20.2671C15.9853 19.7275 16.2807 19.0987 16.4256 18.4282C16.5706 17.7577 16.5612 17.0631 16.3983 16.3967C15.5943 16.1993 14.8597 15.7854 14.2742 15.2001C13.6888 14.6147 13.2748 13.8802 13.0773 13.0762Z" fill="#0D74F5"/>
<path d="M17.4745 7.47292C17.1119 7.47287 16.7505 7.51645 16.3983 7.60271C16.2008 8.40652 15.787 9.1409 15.2017 9.72618C14.6165 10.3115 13.8821 10.7253 13.0783 10.9227C12.9051 11.6301 12.9051 12.3688 13.0783 13.0762C13.8821 13.2738 14.6165 13.6877 15.2017 14.2731C15.787 14.8584 16.2008 15.5928 16.3983 16.3967C17.0201 16.5486 17.667 16.5669 18.2964 16.4504C18.9258 16.3339 19.5233 16.0852 20.0495 15.7209C20.5758 15.3565 21.0188 14.8847 21.3493 14.3365C21.6798 13.7884 21.8903 13.1764 21.9669 12.5409C22.0436 11.9055 21.9846 11.261 21.7938 10.65C21.6031 10.039 21.285 9.47537 20.8604 8.99635C20.4359 8.51733 19.9146 8.13378 19.331 7.871C18.7473 7.60823 18.1146 7.47221 17.4745 7.47192V7.47292Z" fill="#4494F7"/>
<path d="M10.9237 13.0761C11.0969 12.3688 11.0969 11.6301 10.9237 10.9227C10.1199 10.7252 9.38544 10.3114 8.80008 9.72614C8.21473 9.14087 7.8008 8.4065 7.6032 7.60268C6.93685 7.43976 6.24219 7.4304 5.57168 7.57531C4.90118 7.72022 4.27238 8.01561 3.73278 8.43917C3.19318 8.86273 2.7569 9.40338 2.45689 10.0203C2.15687 10.6372 2.00098 11.3142 2.00098 12.0002C2.00098 12.6862 2.15687 13.3632 2.45689 13.9801C2.7569 14.597 3.19318 15.1376 3.73278 15.5612C4.27238 15.9847 4.90118 16.2801 5.57168 16.425C6.24219 16.5699 6.93685 16.5606 7.6032 16.3977C7.80061 15.5936 8.21445 14.8589 8.79981 14.2734C9.38517 13.6878 10.1197 13.2738 10.9237 13.0761Z" fill="#005CF4"/>
<path d="M13.0773 10.9238C13.8811 10.7261 14.6155 10.3122 15.2008 9.72684C15.7862 9.14151 16.2001 8.40711 16.3978 7.60327C15.5939 7.80094 14.8596 8.21488 14.2742 8.80022C13.6889 9.38555 13.2749 10.1199 13.0773 10.9238Z" fill="#186EF9"/>
<path d="M13.0773 13.0762C13.2748 13.8801 13.6887 14.6146 14.274 15.1999C14.8594 15.7853 15.5939 16.1992 16.3978 16.3967C16.2001 15.5929 15.7862 14.8585 15.2008 14.2731C14.6155 13.6878 13.8811 13.2738 13.0773 13.0762Z" fill="#0246F2"/>
<path d="M10.9238 10.9238C10.7261 10.1199 10.3122 9.38555 9.72685 8.80022C9.14151 8.21488 8.40711 7.80094 7.60327 7.60327C7.80094 8.40711 8.21488 9.14151 8.80022 9.72684C9.38555 10.3122 10.12 10.7261 10.9238 10.9238Z" fill="#0046F8"/>
<path d="M10.9238 13.0762C10.12 13.2738 9.38555 13.6878 8.80022 14.2731C8.21488 14.8585 7.80094 15.5929 7.60327 16.3967C8.40711 16.199 9.14151 15.7851 9.72685 15.1998C10.3122 14.6144 10.7261 13.88 10.9238 13.0762Z" fill="#0729F1"/>
</svg>