<svg viewBox="0 0 24 24" fill="none" xmlns="http://www.w3.org/2000/svg">
<path d="M14.8917 8.66675H9.11391C8.86845 8.66675 8.66943 8.86568 8.66943 9.11113V14.889C8.66943 15.1344 8.86845 15.3334 9.11391 15.3334H14.8917C15.1371 15.3334 15.3361 15.1344 15.3361 14.889V9.11113C15.3361 8.86568 15.1371 8.66675 14.8917 8.66675Z" fill="black"/>
<path d="M8.22222 2H2.44448C2.19903 2 2 2.19893 2 2.44448V8.22221C2 8.46767 2.19903 8.66669 2.44448 8.66669H8.22222C8.46776 8.66669 8.66669 8.46767 8.66669 8.22221V2.44448C8.66669 2.19893 8.46776 2 8.22222 2Z" fill="black"/>
<path d="M21.5556 2H15.7777C15.5323 2 15.3333 2.19893 15.3333 2.44448V8.22221C15.3333 8.46767 15.5323 8.66669 15.7777 8.66669H21.5556C21.801 8.66669 21.9999 8.46767 21.9999 8.22221V2.44448C21.9999 2.19893 21.801 2 21.5556 2Z" fill="black"/>
<path d="M8.22222 15.3333H2.44448C2.19903 15.3333 2 15.5322 2 15.7776V21.5555C2 21.8009 2.19903 21.9999 2.44448 21.9999H8.22222C8.46776 21.9999 8.66669 21.8009 8.66669 21.5555V15.7776C8.66669 15.5322 8.46776 15.3333 8.22222 15.3333Z" fill="black"/>
<path d="M21.5556 15.3333H15.7777C15.5323 15.3333 15.3333 15.5322 15.3333 15.7776V21.5555C15.3333 21.8009 15.5323 21.9999 15.7777 21.9999H21.5556C21.801 21.9999 21.9999 21.8009 21.9999 21.5555V15.7776C21.9999 15.5322 21.801 15.3333 21.5556 15.3333Z" fill="black"/>
</svg>