<svg viewBox="0 0 24 24" fill="none" xmlns="http://www.w3.org/2000/svg">
<path fill-rule="evenodd" clip-rule="evenodd" d="M19.9442 21.3333H4.05583C2.92167 21.3333 2 20.4154 2 19.2875V8.37911C2 7.2512 3.36667 6.36846 4.5 6.36846H6.68917L4.74417 4.42306C4.41833 4.09758 4.41833 3.57044 4.74417 3.24412C5.07 2.91863 5.59667 2.91863 5.9225 3.24412L8.66667 5.98858L11.4108 3.24412C11.7367 2.91863 12.2633 2.91863 12.5892 3.24412C12.915 3.57044 12.915 4.09758 12.5892 4.42306L10.6442 6.36846H20.3333C21.4667 6.36846 22 7.2512 22 8.37911V19.2875C22 20.4154 21.0783 21.3333 19.9442 21.3333ZM20.3333 19.2875V8.37912C20.3333 8.17412 20.155 8.00092 19.9442 8.00092H4.05583C3.845 8.00092 3.66667 8.17412 3.66667 8.37912V19.2875C3.66667 19.4934 4.28917 19.7561 4.5 19.7561H20.3333C20.5442 19.7561 20.3333 19.4934 20.3333 19.2875ZM18.06 18.834H5.93917C5.14583 18.834 4.5 18.1939 4.5 17.4057V10.2618C4.5 9.4744 5.14583 8.8343 5.93917 8.8343H18.06C18.8542 8.8343 19.5 9.4744 19.5 10.2618V17.4057C19.5 18.1939 18.8542 18.834 18.06 18.834ZM17.8333 10.5011H6.16667V17.1673H17.8333V10.5011Z" fill="currentColor"/>
</svg>