<svg width="24" height="24" viewBox="0 0 24 24" fill="none" xmlns="http://www.w3.org/2000/svg">
<path fill-rule="evenodd" clip-rule="evenodd" d="M19.9442 21.3333H4.05583C2.92167 21.3333 2 20.4154 2 19.2875V8.37995C2 7.25204 2.53333 6.36846 3.66667 6.36846H10.0225L8.0775 4.42306C7.75167 4.09758 7.75167 3.57044 8.0775 3.24412C8.40333 2.91863 8.93 2.91863 9.25583 3.24412L12 5.98858L14.7442 3.24412C15.07 2.91863 15.5967 2.91863 15.9225 3.24412C16.2483 3.57044 16.2483 4.09758 15.9225 4.42306L13.9775 6.36846H20.3333C21.4667 6.36846 22 7.25204 22 8.37995V19.2875C22 20.4154 21.0783 21.3333 19.9442 21.3333ZM20.3333 19.2875V8.37995C20.3333 8.17412 20.155 8.00008 19.9442 8.00008H4.05585C3.84501 8.00008 3.66668 8.17412 3.66668 8.37995V19.2875C3.66668 19.4934 3.45585 19.7561 3.66668 19.7561H20.3333C20.5442 19.7561 20.3333 19.4934 20.3333 19.2875ZM18.25 18.834C17.5608 18.834 17 18.2726 17 17.584C17 16.8945 17.5608 16.3339 18.25 16.3339C18.9392 16.3339 19.5 16.8945 19.5 17.584C19.5 18.2726 18.9392 18.834 18.25 18.834ZM18.6667 15.5005H17.8333C17.3733 15.5005 17 15.1273 17 14.6671C17 14.2069 17.3733 13.8337 17.8333 13.8337H18.6667C19.1267 13.8337 19.5 14.2069 19.5 14.6671C19.5 15.1273 19.1267 15.5005 18.6667 15.5005ZM18.6667 13.0004H17.8333C17.3733 13.0004 17 12.628 17 12.167C17 11.7068 17.3733 11.3336 17.8333 11.3336H18.6667C19.1267 11.3336 19.5 11.7068 19.5 12.167C19.5 12.628 19.1267 13.0004 18.6667 13.0004ZM18.6667 10.5002H17.8333C17.3733 10.5002 17 10.1279 17 9.66684C17 9.20664 17.3733 8.83346 17.8333 8.83346H18.6667C19.1267 8.83346 19.5 9.20664 19.5 9.66684C19.5 10.1279 19.1267 10.5002 18.6667 10.5002ZM15.3342 18.834H5.33333C4.87333 18.834 4.5 18.4608 4.5 18.0006V9.66684C4.5 9.20664 4.87333 8.83346 5.33333 8.83346H15.3342C15.7942 8.83346 16.1675 9.20664 16.1675 9.66684V18.0006C16.1675 18.4608 15.7942 18.834 15.3342 18.834ZM6.16667 10.5002V17.2459H14.5L14.5008 10.5002H6.16667Z" fill="#6B7084"/>
</svg>
