<svg viewBox="0 0 24 24" fill="none" xmlns="http://www.w3.org/2000/svg">
<circle cx="12" cy="12" r="10" fill="#E7EFF3"/>
<path fill-rule="evenodd" clip-rule="evenodd" d="M5.45258 10.7195C5.98176 7.92391 8.29629 5.75906 11.1721 5.36885C11.6692 5.29936 12.7222 5.33678 13.2728 5.44369C14.5877 5.69492 15.9134 6.42723 16.8274 7.38938C18.3829 9.04109 18.9976 11.2915 18.4952 13.5044C18.2065 14.782 17.5544 15.9152 16.5708 16.8506C15.6408 17.7272 14.5877 18.2725 13.2835 18.5504C12.6527 18.684 11.3485 18.684 10.7177 18.5504C9.80367 18.3526 9.01256 18.0212 8.23749 17.5134C7.72968 17.1767 6.84771 16.2893 6.49491 15.7655C5.48465 14.2528 5.12117 12.4835 5.45258 10.7195ZM16.7366 8.10047C15.7584 6.89243 14.2564 6.07994 12.6688 5.8982C11.3538 5.75388 10.103 6.02114 8.90034 6.71069C7.79921 7.33609 6.80498 8.48533 6.32925 9.67734C5.39382 11.9919 5.91231 14.5576 7.67092 16.3216C10.7872 19.4593 16.1058 18.3421 17.7148 14.2102C18.0195 13.4404 18.1157 12.8685 18.1157 11.9384C18.1103 11.2863 18.0889 11.0725 17.9713 10.6021C17.7308 9.6132 17.3673 8.88623 16.7366 8.10047Z" fill="black"/>
<path fill-rule="evenodd" clip-rule="evenodd" d="M6.70883 12.3336C6.54847 11.5318 6.99213 10.6712 7.68703 10.42C7.94895 10.3291 8.47279 10.3131 8.7454 10.3879C9.44564 10.5857 9.92137 11.3554 9.84654 12.1786C9.78774 12.7773 9.52582 13.1995 9.05008 13.4668C8.79351 13.6058 8.72402 13.6218 8.25898 13.6218C7.67634 13.6218 7.46252 13.5416 7.13111 13.1835C6.87988 12.9216 6.78901 12.7345 6.70883 12.3336ZM9.22109 12.3121C9.33334 11.8471 9.17298 11.3179 8.85761 11.0881C8.53689 10.8635 7.98632 10.8582 7.6763 11.0827C7.30212 11.3446 7.17384 12.0983 7.41972 12.5794C7.82596 13.3865 9.00728 13.2101 9.22109 12.3121Z" fill="black"/>
<path d="M14.9192 10.4417C13.9143 10.8426 13.631 12.3232 14.39 13.2212C14.8016 13.713 15.7744 13.8039 16.2074 13.3869L16.325 13.2747L16.341 13.4244C16.3571 13.558 16.3731 13.5687 16.6243 13.5687H16.8916L16.9076 12.7241L16.9237 11.8849H16.17H15.4216V12.1522V12.4194H15.876C16.3678 12.4194 16.3838 12.4301 16.2448 12.7188C16.1486 12.9166 15.8065 13.1143 15.5499 13.1143C14.9352 13.1143 14.5664 12.6814 14.5664 11.9811C14.5717 11.2061 15.0689 10.7624 15.7477 10.9228C16.0096 10.9869 16.2769 11.2167 16.2769 11.3825C16.2769 11.4359 16.3571 11.4573 16.5976 11.4573H16.913L16.8382 11.2167C16.6724 10.6555 16.2609 10.3722 15.582 10.3508C15.2827 10.3401 15.117 10.3615 14.9192 10.4417Z" fill="black"/>
<path d="M10.2902 11.9919V13.5955H10.5574H10.8247L10.8354 12.5157L10.8514 11.4306L11.247 12.5157L11.6425 13.6008L11.9098 13.5848L12.1771 13.5688L12.5673 12.4997L12.9575 11.4306L12.9735 12.4997L12.9895 13.5688L13.2728 13.5848L13.5508 13.6008L13.5401 12.0079L13.5241 10.415H13.1553H12.7811L12.3535 11.6017C12.1183 12.2592 11.9098 12.7777 11.8938 12.7509C11.8724 12.7295 11.6799 12.2217 11.4661 11.6177C11.2523 11.0137 11.0492 10.4899 11.0225 10.4524C10.9904 10.415 10.8407 10.3883 10.6323 10.3883H10.2902V11.9919Z" fill="black"/>
</svg>