<svg viewBox="0 0 24 24" fill="none" xmlns="http://www.w3.org/2000/svg">
<g clip-path="url(#clip0_1265_21165)">
<path d="M12 24C14.3734 24 16.6935 23.2962 18.6668 21.9776C20.6402 20.6591 22.1783 18.7849 23.0866 16.5922C23.9948 14.3995 24.2324 11.9867 23.7694 9.65892C23.3064 7.33115 22.1635 5.19295 20.4853 3.51472C18.8071 1.83649 16.6689 0.693605 14.3411 0.230582C12.0133 -0.232441 9.60051 0.00519936 7.4078 0.913451C5.21509 1.8217 3.34094 3.35977 2.02236 5.33316C0.703788 7.30655 0 9.62663 0 12C0 15.1826 1.26428 18.2348 3.51472 20.4853C5.76516 22.7357 8.8174 24 12 24Z" fill="#1A53F0"/>
<path d="M8.90013 12.1945C8.17956 12.1952 7.48503 12.464 6.95157 12.9483C6.41811 13.4327 6.08385 14.0982 6.01377 14.8154C5.94369 15.5325 6.14281 16.2501 6.5724 16.8286C7.002 17.4071 7.63138 17.8052 8.33816 17.9454C9.04495 18.0857 9.77864 17.9581 10.3966 17.5874C11.0145 17.2168 11.4725 16.6296 11.6816 15.94C11.8907 15.2505 11.8358 14.5078 11.5277 13.8564C11.2197 13.205 10.6803 12.6915 10.0147 12.4156C9.6614 12.2691 9.2826 12.1939 8.90013 12.1945ZM8.90013 17.125C8.4307 17.1262 7.9754 16.9645 7.61187 16.6675C7.24834 16.3704 6.99908 15.9565 6.90661 15.4963C6.81414 15.0361 6.88417 14.558 7.10477 14.1436C7.32536 13.7292 7.68286 13.4042 8.11631 13.224C8.54976 13.0437 9.03231 13.0194 9.48169 13.1551C9.93107 13.2909 10.3194 13.5783 10.5806 13.9684C10.8418 14.3585 10.9595 14.8271 10.9138 15.2943C10.8681 15.7615 10.6617 16.1984 10.3299 16.5304C9.95066 16.9098 9.43659 17.1236 8.90013 17.125ZM15.0985 5.99902C14.3777 5.99859 13.6825 6.26629 13.1482 6.75005C12.6139 7.2338 12.2786 7.89902 12.2076 8.61629C12.1366 9.33356 12.335 10.0516 12.7641 10.6307C13.1932 11.2098 13.8224 11.6086 14.5293 11.7495C15.2362 11.8904 15.9702 11.7633 16.5885 11.3929C17.2069 11.0226 17.6654 10.4354 17.8748 9.74576C18.0842 9.05607 18.0296 8.31315 17.7215 7.66151C17.4135 7.00987 16.8741 6.49612 16.2082 6.22019C15.8563 6.07457 15.4793 5.99943 15.0985 5.99902ZM15.0985 10.9296C14.5623 10.9298 14.0479 10.7171 13.6684 10.3382C13.289 9.95935 13.0756 9.44528 13.0751 8.90905C13.076 8.50976 13.1953 8.11971 13.4177 7.78813C13.6402 7.45656 13.9559 7.19834 14.325 7.04607C14.6942 6.8938 15.1001 6.8543 15.4917 6.93258C15.8832 7.01085 16.2428 7.20338 16.525 7.48586C16.8072 7.76834 16.9994 8.1281 17.0773 8.51972C17.1552 8.91134 17.1153 9.31726 16.9627 9.68623C16.8101 10.0552 16.5515 10.3707 16.2197 10.5928C15.888 10.815 15.4978 10.9339 15.0985 10.9344V10.9296ZM8.90013 5.99902C8.23023 5.9999 7.58125 6.2325 7.06331 6.65736C6.54536 7.08222 6.19034 7.67318 6.05846 8.32998C5.92659 8.98677 6.02599 9.66897 6.3398 10.2608C6.65361 10.8527 7.16251 11.3178 7.78016 11.5772C8.3978 11.8366 9.08617 11.8743 9.72847 11.684C10.3708 11.4937 10.9275 11.087 11.3041 10.533C11.6807 9.97899 11.8541 9.31175 11.7948 8.64447C11.7355 7.97719 11.4473 7.35097 10.9789 6.87203H11.8014V5.99902H8.90013ZM10.9236 8.90323C10.9238 9.37189 10.7614 9.8261 10.4642 10.1885C10.167 10.5508 9.75339 10.7989 9.29376 10.8905C8.83413 10.982 8.35699 10.9113 7.94365 10.6904C7.53031 10.4696 7.20635 10.1122 7.027 9.6792C6.84765 9.24623 6.82399 8.76445 6.96007 8.31599C7.09615 7.86753 7.38354 7.48014 7.77325 7.21984C8.16297 6.95954 8.6309 6.84245 9.09728 6.88851C9.56366 6.93458 9.99963 7.14096 10.3309 7.47247C10.71 7.85217 10.9231 8.36667 10.9236 8.90323Z" fill="white"/>
</g>
<defs>
<clipPath id="clip0_1265_21165">
<rect width="24" height="24" fill="white"/>
</clipPath>
</defs>
</svg>