<svg viewBox="0 0 24 24" fill="none" xmlns="http://www.w3.org/2000/svg">
<g clip-path="url(#clip0_1265_21161)">
<path d="M12 24C18.6274 24 24 18.6274 24 12C24 5.37258 18.6274 0 12 0C5.37258 0 0 5.37258 0 12C0 18.6274 5.37258 24 12 24Z" fill="#1C347A"/>
<path d="M8.14225 6.0772C7.31402 6.61779 6.60778 7.32535 6.06875 8.1546V6.0772H8.14225ZM17.8948 8.0987C17.3604 7.29331 16.6672 6.60544 15.8577 6.0772H17.8948V8.0987ZM15.8877 17.9033C16.6844 17.3775 17.367 16.6967 17.8948 15.9013V17.9033H15.8877ZM6.06875 15.8454C6.6012 16.6646 7.29689 17.3652 8.11235 17.9033H6.06875V15.8454ZM18.5 12C18.5 15.5841 15.5841 18.5 12 18.5C8.4159 18.5 5.5 15.5841 5.5 12C5.5 8.4159 8.4159 5.5 12 5.5C15.5841 5.5 18.5 8.4159 18.5 12ZM12 16.7398C14.613 16.7398 16.7398 14.6136 16.7398 12C16.7398 9.387 14.6136 7.2602 12 7.2602C9.387 7.2602 7.2602 9.38635 7.2602 12C7.2602 14.613 9.38635 16.7398 12 16.7398Z" fill="white"/>
</g>
<defs>
<clipPath id="clip0_1265_21161">
<rect width="24" height="24" fill="white"/>
</clipPath>
</defs>
</svg>