<svg width="24" height="24" viewBox="0 0 24 24" fill="none" xmlns="http://www.w3.org/2000/svg">
<path d="M6.45944 13.2721L6.98766 9.29387L2.39856 6.10795L6.5915 7.52773L7.58153 6.0091L11.1968 3.76416L19.1696 8.1548L19.5823 14.8568L16.0327 19.7923L13.2267 20.2216L14.6793 17.5639V15.0054L13.6229 13.008L12.5498 12.2983L10.8991 13.9984V15.7978L9.61179 17.0025L7.97732 17.2006L7.25102 17.6133L6.06252 17.2338L5.56751 15.451L6.45907 14.1965V13.2721H6.45944Z" fill="white"/>
<path d="M13.7882 6.07497C12.9136 5.89349 11.956 5.94291 11.956 5.94291C11.956 5.94291 11.6425 7.39552 9.69449 7.77508C9.7111 7.77508 12.2696 8.65004 13.7882 6.07497ZM14.5805 19.2473C15.637 18.4221 16.4293 17.283 16.7926 15.9957C16.8092 15.9463 16.9575 15.8636 17.0568 15.7976C17.2216 15.6984 17.3869 15.6161 17.4197 15.4841C17.4862 15.0969 17.5194 14.7047 17.5189 14.3118C17.5189 14.1635 17.3703 14.0149 17.2216 13.8662C17.1062 13.7674 16.9907 13.6515 16.9907 13.5689C16.8255 12.0673 16.1324 10.6637 15.0265 9.64046L14.9107 9.75591C15.9837 10.7629 16.6772 12.1329 16.8255 13.5855C16.8421 13.7176 16.9741 13.8496 17.1062 13.9817C17.2216 14.0809 17.3537 14.2296 17.3537 14.2956C17.3537 14.6751 17.3209 15.0547 17.2548 15.4343C17.2382 15.5003 17.0896 15.5663 16.9741 15.6324C16.8092 15.715 16.6606 15.7976 16.6274 15.9297C16.2312 17.3325 15.3234 18.5542 14.1183 19.3465C14.3334 18.8843 15.0099 17.3823 15.3729 16.6228L15.3068 14.1798L13.2106 12.1495L12.0221 12.3148L10.7181 14.4276C10.7181 14.4276 11.329 15.2034 10.4706 16.1112C9.62847 17.0023 8.96819 17.2004 8.96819 17.2004L8.35772 16.8703C8.53882 16.6394 8.90216 16.293 9.18288 16.0617C9.66167 15.6656 10.1405 15.6324 10.1405 15.2034C10.1567 14.3118 9.19948 14.5597 9.19948 14.5597L8.85274 14.8895L8.70408 16.1112L7.97778 17.0189L7.89553 17.0023L6.70703 16.7382C6.70703 16.7382 7.43333 16.3587 7.54841 15.9297C7.66424 15.5169 7.3175 14.1469 7.30128 14.0643C7.3175 14.0809 7.64764 14.3616 7.7963 14.8238C8.06041 14.0975 8.40715 13.404 8.506 13.338C8.60523 13.272 9.94238 12.5623 9.94238 12.5623L9.49641 13.7342L9.82655 13.5527L10.6189 11.6047C10.6189 11.6047 11.395 11.2251 11.9726 11.2251C13.0125 11.2085 14.5477 9.93739 13.8542 7.65963C14.0523 7.74226 17.4857 9.45897 18.08 12.8264C18.526 15.4177 17.0568 17.8445 14.5805 19.2477V19.2473Z" fill="#94A6C3"/>
<path d="M10.652 6.43801C11.0316 5.99279 10.8829 5.33252 10.8829 5.33252L9.77742 6.96623C9.76082 6.96623 10.1736 6.98283 10.652 6.43801ZM6.93786 15.3687L7.06992 14.7084C7.06992 14.7084 6.5251 15.6656 6.47567 15.7977C6.42624 15.9464 6.50887 16.2101 6.72318 16.1939C6.93824 16.1773 7.20235 15.8637 7.20235 15.6324C7.20235 15.3355 6.93824 15.3683 6.93824 15.3683L6.93786 15.3687Z" fill="#1B314F"/>
<path d="M16.7431 4.86998C16.7431 4.86998 17.5683 4.90319 18.4266 5.00204C16.4952 3.48378 14.6631 3.03781 13.1776 3.03781C11.1308 3.03781 9.74419 3.87957 9.66119 3.929L10.3052 2.90576C10.3052 2.90576 7.73017 2.65825 6.82238 5.3816C6.5911 4.80433 6.37679 3.9622 6.37679 3.9622C6.37679 3.9622 5.03964 5.13409 5.66671 7.08209C4.13185 6.52067 1.93672 5.74494 1.85371 5.72834C1.73826 5.71174 1.70506 5.76154 1.70506 5.76154C1.70506 5.76154 1.67223 5.81059 1.77108 5.8936C1.95294 6.04188 5.41958 8.60073 6.17871 9.09575C6.01345 9.68999 6.01345 9.97071 6.17871 10.2514C6.40961 10.631 6.42622 10.8287 6.39301 11.1098C6.36019 11.3901 6.06288 13.8169 5.99685 14.1138C5.93082 14.4112 5.23772 15.4676 5.27055 15.7811C5.30375 16.0947 5.73274 17.4318 6.11268 17.5805C6.39301 17.6793 7.08611 17.8936 7.54868 17.8936C7.71356 17.8936 7.86222 17.8608 7.92825 17.7948C8.20896 17.5473 8.29159 17.4978 8.48967 17.4978H8.53872C8.62173 17.4978 8.72058 17.5144 8.83603 17.5144C9.10014 17.5144 9.44726 17.4646 9.69439 17.2337C10.0577 16.8704 10.6848 16.3754 10.8829 16.1441C11.0121 15.9803 11.1065 15.7919 11.1605 15.5905C11.2145 15.389 11.2268 15.1786 11.1968 14.9722C11.147 14.576 11.3617 14.2293 11.6092 13.8829C11.9049 13.4965 12.202 13.1113 12.5008 12.7273C13.6398 13.5856 14.3495 14.8896 14.3495 16.3422C14.3495 18.9172 12.1046 20.9973 9.33143 20.9973C8.90883 20.9978 8.48768 20.9479 8.0769 20.8486C9.34803 21.2942 10.4207 21.4429 11.2957 21.4429C13.161 21.4429 14.1514 20.766 14.1514 20.766C14.1514 20.766 13.8047 21.212 13.2437 21.7236H13.2599C16.3469 21.2942 17.849 18.7524 17.849 18.7524C17.849 18.7524 17.7335 19.5775 17.5849 20.1389C21.6952 17.0523 21.0017 13.1895 20.9851 13.0574C21.0183 13.1068 21.4311 13.6022 21.6454 13.8663C22.3057 7.06549 16.7431 4.86998 16.7431 4.86998ZM10.4207 15.7317C10.3547 15.814 10.0743 16.0618 9.87625 16.2433C9.67817 16.4248 9.46348 16.6063 9.29823 16.7715C9.2322 16.8376 9.10014 16.8704 8.90206 16.8704H8.40742C8.65493 16.5403 9.38123 15.7811 9.62874 15.6159C9.92605 15.4178 10.0747 15.2197 9.89285 14.8733C9.71175 14.5262 9.23258 14.6092 9.23258 14.6092C9.23258 14.6092 9.51329 14.4934 9.7608 14.4934C9.44764 14.4112 9.05147 14.4934 8.86961 14.6753C8.67153 14.8564 8.70436 15.5004 8.6221 15.9128C8.5391 16.3422 8.25876 16.5569 7.82977 16.953C7.59849 17.1677 7.43361 17.2337 7.30155 17.2337C7.01578 17.1837 6.73425 17.112 6.45942 17.0191C6.29454 16.8044 6.04703 16.0947 5.981 15.7977C6.03005 15.6325 6.22851 15.2857 6.32736 15.0877C6.52545 14.7081 6.64128 14.4934 6.67448 14.2953C6.74013 14.015 6.95481 12.2817 7.03744 11.5554C7.25175 11.8361 7.54906 12.2983 7.48266 12.5952C7.96183 11.9183 7.61471 11.2581 7.44983 10.9939C7.30155 10.7298 7.10347 10.2016 7.26873 9.64057C7.43361 9.07914 8.02786 7.52769 8.02786 7.52769C8.02786 7.52769 8.22594 7.87443 8.50627 7.8084C8.78698 7.74237 11.0485 4.34176 11.0485 4.34176C11.0485 4.34176 11.6594 5.67891 11.0153 6.65273C10.355 7.62654 9.71137 7.8084 9.71137 7.8084C9.71137 7.8084 10.6192 7.97328 11.4613 7.36243C11.8076 8.17136 12.1378 9.01312 12.1544 9.12895C12.105 9.2444 11.4447 10.8291 11.3787 10.9279C11.3455 10.9611 11.1145 11.0271 10.9493 11.06C10.669 11.143 10.5041 11.192 10.4377 11.2418C10.3222 11.3407 9.794 12.7933 9.54649 13.503C9.24918 13.586 8.95224 13.7509 8.73756 14.081C8.85301 13.998 9.21635 13.949 9.48046 13.9158C9.71137 13.8992 10.4211 14.2791 10.6029 14.9888V15.0216C10.6358 15.2857 10.5531 15.5336 10.4211 15.7317H10.4207ZM8.86924 15.9298C9.01789 15.7147 9.00129 15.3518 9.01789 15.2363C9.03412 15.1209 9.06694 14.9062 9.199 14.8733C9.33105 14.8401 9.64496 14.8896 9.64496 15.1209C9.64496 15.3355 9.41406 15.385 9.2488 15.5336C9.13335 15.6491 8.90206 15.8966 8.86924 15.9298ZM15.4554 12.7767C15.6206 11.9353 15.6369 11.2086 15.5874 10.6148C16.2311 11.4727 16.6273 12.5126 16.7431 13.5856C16.7593 13.7177 16.8914 13.8497 17.0234 13.9818C17.1393 14.081 17.2713 14.2131 17.2713 14.2953C17.2713 14.6753 17.2381 15.0548 17.1721 15.4348C17.1555 15.4838 17.0072 15.5668 16.8914 15.6325C16.7265 15.7151 16.5782 15.7977 16.545 15.9298C16.1796 17.198 15.4156 18.315 14.3661 19.1153C15.901 17.5144 16.6439 14.8733 15.4554 12.7767ZM14.4155 19.264C15.4886 18.4388 16.3137 17.2832 16.6771 15.9792C16.6933 15.9298 16.842 15.8472 16.9412 15.7811C17.1061 15.6985 17.2713 15.5996 17.3042 15.4676C17.3706 15.0804 17.4038 14.6882 17.4034 14.2953C17.4034 14.147 17.2547 13.9984 17.1061 13.8501C17.0234 13.7509 16.8914 13.635 16.8914 13.5528C16.7568 12.3526 16.2879 11.2144 15.538 10.2676C15.2079 8.28681 13.8873 7.67634 13.8541 7.65974C13.8873 7.70917 14.7457 8.94709 14.1514 10.3997C13.5406 11.8689 11.9725 11.638 11.8405 11.6542C11.7084 11.6542 11.1968 12.3145 10.5527 13.5362C10.4705 13.503 10.1238 13.4207 9.72759 13.4868C10.0245 12.6612 10.4705 11.4893 10.5527 11.3901C10.586 11.3573 10.8335 11.2913 10.9987 11.2418C11.3119 11.1588 11.4609 11.1098 11.5103 11.0437C11.5432 10.9939 11.7084 10.6144 11.8733 10.2182C12.022 10.2182 12.4015 10.1854 12.4347 10.1688C12.4675 10.1356 12.7815 9.32703 12.7815 9.2278C12.7815 9.14517 12.1374 7.54429 11.8899 6.93344C12.0054 6.80138 12.1212 6.63613 12.2366 6.45464C15.6206 6.81798 18.2617 9.68999 18.2617 13.1729C18.2617 15.8472 16.6933 18.1747 14.4155 19.264Z" fill="#1B314F"/>
<path d="M10.0245 10.3507C10.3384 9.98733 10.1732 9.31046 9.59551 9.195C9.74416 8.84789 9.95847 8.15479 9.95847 8.15479C9.95847 8.15479 8.27496 10.7959 8.1263 10.8457C7.97764 10.8947 7.82937 10.3175 7.82937 10.3175C7.51545 11.5222 8.35759 11.6871 8.45644 11.3079C8.91863 11.1921 9.71096 10.6967 10.0245 10.3503V10.3507Z" fill="#1B314F"/>
<path d="M8.5885 10.9944L9.44686 9.52515C9.44686 9.52515 9.94226 9.77266 9.69475 10.1688C9.38083 10.631 8.5885 10.9944 8.5885 10.9944Z" fill="#FFD923"/>
<path d="M19.2022 17.7948C18.9547 18.1253 18.674 18.4717 18.3439 18.8022C20.4734 14.7085 18.4431 10.9611 18.3605 10.8125C18.5091 10.9611 18.6578 11.1264 18.7898 11.2747C20.4236 13.0906 20.622 15.8143 19.2022 17.7952V17.7948ZM21.1831 12.5292C20.4405 10.5321 19.3837 8.83163 17.0565 7.29677C14.8116 5.81096 12.4014 5.92642 12.2693 5.94302H12.2365C12.3168 5.91335 12.3996 5.89124 12.484 5.87699C12.9956 5.71211 13.6559 5.58006 14.3162 5.49743C16.0661 5.24992 17.8323 5.84417 19.0373 7.11491L19.0702 7.14812C20.4405 8.60072 21.1502 10.4163 21.1831 12.5292ZM16.5283 4.35836C14.0687 3.89616 12.484 4.12745 11.345 4.55644C11.3121 4.42439 11.1967 4.16028 11.0974 3.94559C10.7507 4.35836 10.3877 4.85375 10.1565 5.16729C9.52938 5.59628 9.26527 6.00905 9.26527 6.00905C9.62824 4.77112 10.6847 3.84674 11.9724 3.61545C12.3648 3.547 12.7626 3.51392 13.1609 3.5166C14.3 3.5332 15.4387 3.81354 16.5283 4.35836ZM7.4331 7.52768C5.50133 7.46165 6.14538 5.21672 6.17858 5.08466C6.17858 5.10126 6.31064 6.8508 7.4331 7.52768ZM9.3313 3.48378C7.84549 4.37496 8.14281 6.50444 8.14281 6.50444C6.72302 4.34176 9.21585 3.5332 9.3313 3.4834V3.48378Z" fill="#D82122"/>
<path d="M6.88828 8.122C6.98713 8.20463 7.08636 8.35291 6.97091 8.5676C6.90488 8.68305 6.80565 8.66683 6.657 8.6008C6.45891 8.50157 5.27042 7.80847 4.19775 7.09839C5.41907 7.52776 6.657 7.98995 6.85508 8.0888L6.88828 8.122Z" fill="white"/>
</svg>
