<svg viewBox="0 0 24 24" fill="none" xmlns="http://www.w3.org/2000/svg">
<g clip-path="url(#clip0_1265_21154)">
<path d="M12 24C18.6274 24 24 18.6274 24 12C24 5.37258 18.6274 0 12 0C5.37258 0 0 5.37258 0 12C0 18.6274 5.37258 24 12 24Z" fill="black"/>
<path fill-rule="evenodd" clip-rule="evenodd" d="M11.9861 17.3157C15.3882 17.3157 17.9654 15.0361 18.5 12.0536H15.5975C15.1636 13.6373 13.817 14.7967 12.0204 14.7967C10.237 14.7967 8.87314 13.629 8.4209 12.0536H5.5C6.01507 15.0468 8.57026 17.3157 11.9861 17.3157Z" fill="white"/>
<path d="M12.0027 7.6799C12.8299 7.6799 13.5005 7.00932 13.5005 6.18211C13.5005 5.35491 12.8299 4.68433 12.0027 4.68433C11.1755 4.68433 10.5049 5.35491 10.5049 6.18211C10.5049 7.00932 11.1755 7.6799 12.0027 7.6799Z" fill="white"/>
<path fill-rule="evenodd" clip-rule="evenodd" d="M8.25903 12.0534V12.0238C8.25903 9.89419 9.78468 8.15576 11.9842 8.15576C14.1844 8.15576 15.742 9.92383 15.7456 12.0534H8.25903Z" fill="white"/>
</g>
<defs>
<clipPath id="clip0_1265_21154">
<rect width="24" height="24" fill="white"/>
</clipPath>
</defs>
</svg>