<svg width="24" height="24" viewBox="0 0 24 24" fill="none" xmlns="http://www.w3.org/2000/svg">
<g clip-path="url(#clip0_1265_21150)">
<path d="M12 24C18.6274 24 24 18.6274 24 12C24 5.37258 18.6274 0 12 0C5.37258 0 0 5.37258 0 12C0 18.6274 5.37258 24 12 24Z" fill="#32A4BE"/>
<path fill-rule="evenodd" clip-rule="evenodd" d="M17.9999 17.478L7.98466 7.68069C9.09393 6.59856 10.5836 5.99506 12.1333 6.00003C15.3733 6.00003 17.9999 8.56935 17.9999 11.7393V17.478ZM6 6.52203L16.0153 16.3193C14.906 17.4014 13.4163 18.0049 11.8666 18C8.62665 18 6 15.4306 6 12.2607V6.52203Z" fill="white"/>
</g>
<defs>
<clipPath id="clip0_1265_21150">
<rect width="24" height="24" fill="white"/>
</clipPath>
</defs>
</svg>
