<svg viewBox="0 0 24 24" fill="none" xmlns="http://www.w3.org/2000/svg">
<g clip-path="url(#clip0_1265_21146)">
<path d="M12 24C18.6274 24 24 18.6274 24 12C24 5.37258 18.6274 0 12 0C5.37258 0 0 5.37258 0 12C0 18.6274 5.37258 24 12 24Z" fill="#25AAE1"/>
<path fill-rule="evenodd" clip-rule="evenodd" d="M12.2311 17.9953C11.1378 18.0073 10.2198 17.81 9.35441 17.38C9.30108 17.3533 9.26107 17.352 9.20774 17.382C8.68214 17.679 8.1051 17.874 7.50704 17.9567C7.25104 17.99 6.99237 18.026 6.73503 17.9733C6.57656 17.9422 6.42922 17.8695 6.3081 17.7627C6.18698 17.6559 6.09645 17.5188 6.04577 17.3655C5.99509 17.2122 5.98609 17.0481 6.0197 16.8902C6.0533 16.7322 6.12831 16.586 6.23702 16.4666C6.54252 16.1196 6.7719 15.7124 6.91036 15.2713C6.9185 15.2493 6.92112 15.2256 6.91798 15.2024C6.91484 15.1791 6.90605 15.157 6.89236 15.1379C6.42042 14.3888 6.12897 13.5403 6.04101 12.6592C5.84501 10.7112 6.45102 9.04249 7.84771 7.67447C8.72672 6.80379 9.86424 6.24146 11.0898 6.07177C12.7811 5.82443 14.3225 6.21511 15.6765 7.26379C16.8846 8.19981 17.6366 9.4325 17.8986 10.9379C18.2306 12.8432 17.7499 14.5406 16.4719 15.9913C15.5272 17.0633 14.3272 17.7 12.9151 17.926C12.6471 17.9693 12.3751 17.9813 12.2311 17.9953ZM7.94438 16.4033C7.98772 16.3913 8.01305 16.3846 8.03772 16.3766C8.4169 16.2486 8.77502 16.065 9.1004 15.832C9.33508 15.6666 9.56641 15.6586 9.81375 15.8C10.3444 16.104 10.9131 16.2933 11.5231 16.358C12.5145 16.464 13.4498 16.2753 14.2865 15.738C15.7332 14.8099 16.4532 13.4739 16.3752 11.7439C16.3252 10.6359 15.8912 9.67917 15.1052 8.89982C14.1578 7.96114 13.0051 7.53313 11.6698 7.62513C10.7698 7.6878 9.95642 7.99714 9.26374 8.57515C7.92172 9.69517 7.40371 11.1312 7.70105 12.8532C7.79838 13.4199 8.02438 13.9399 8.34306 14.4199C8.40387 14.5057 8.44552 14.6036 8.46519 14.7069C8.48486 14.8102 8.48209 14.9165 8.45706 15.0186C8.38085 15.3501 8.27371 15.6738 8.13705 15.9853C8.07772 16.1206 8.01372 16.2533 7.94505 16.4033H7.94438ZM12.0051 9.46183L12.3851 10.2332C12.5185 10.5065 12.6558 10.7799 12.7851 11.0559C12.8185 11.1279 12.8631 11.1532 12.9378 11.1632C13.4978 11.2412 14.0572 11.3232 14.6165 11.4039C14.6358 11.4072 14.6552 11.4125 14.6792 11.4172C14.5758 11.5239 14.4798 11.6279 14.3792 11.7259C14.0632 12.0345 13.7465 12.3419 13.4278 12.6472C13.3725 12.7006 13.3505 12.7506 13.3652 12.8326C13.4652 13.3946 13.5585 13.9579 13.6532 14.5213C13.6552 14.5353 13.6552 14.5499 13.6572 14.5773C13.6265 14.5653 13.6032 14.5579 13.5818 14.5466C13.0871 14.2859 12.5918 14.0259 12.0991 13.7612C12.0325 13.7252 11.9805 13.7219 11.9111 13.7592C11.4151 14.0239 10.9171 14.2846 10.4191 14.5459C10.3991 14.5573 10.3778 14.5659 10.3391 14.5846C10.3638 14.4333 10.3851 14.2979 10.4084 14.1633C10.4871 13.7086 10.5651 13.2532 10.6484 12.7992C10.6604 12.7326 10.6231 12.7012 10.5858 12.6646C10.1888 12.2744 9.79102 11.885 9.39241 11.4965C9.36974 11.4739 9.33774 11.4612 9.30974 11.4439L9.33041 11.4119L9.94109 11.3239C10.3251 11.2692 10.7084 11.2132 11.0931 11.1605C11.1544 11.1519 11.1824 11.1192 11.2078 11.0672C11.4591 10.5545 11.7131 10.0432 11.9658 9.53117C11.9751 9.51317 11.9858 9.4965 12.0058 9.46183H12.0051Z" fill="white"/>
</g>
<defs>
<clipPath id="clip0_1265_21146">
<rect width="24" height="24" fill="white"/>
</clipPath>
</defs>
</svg>