<svg width="24" height="24" viewBox="0 0 24 24" fill="none" xmlns="http://www.w3.org/2000/svg">
<g clip-path="url(#clip0_3713_14995)">
<path d="M12 24C18.6274 24 24 18.6274 24 12C24 5.37258 18.6274 0 12 0C5.37258 0 0 5.37258 0 12C0 18.6274 5.37258 24 12 24Z" fill="#FF0420"/>
<path fill-rule="evenodd" clip-rule="evenodd" d="M6.74394 14.6832C7.19994 15.0192 7.78554 15.1872 8.50074 15.1872C9.36474 15.1872 10.0559 14.9904 10.5695 14.5872C11.0879 14.1792 11.4479 13.56 11.6591 12.7392C11.7887 12.2352 11.8943 11.712 11.9855 11.1792C12.0143 10.9872 12.0287 10.8288 12.0287 10.704C12.0287 10.2864 11.9231 9.92639 11.7119 9.62399C11.5007 9.31679 11.2127 9.08639 10.8479 8.93759C10.4831 8.77919 10.0655 8.70239 9.60474 8.70239C7.90554 8.70239 6.84954 9.52799 6.44154 11.1792C6.29754 11.7888 6.18714 12.3072 6.11034 12.7392C6.08154 12.9312 6.06714 13.0896 6.06714 13.224C6.06714 13.8528 6.29274 14.3424 6.74394 14.6832ZM9.48474 13.5936C9.24954 13.7904 8.96634 13.8912 8.63034 13.8912C8.05434 13.8912 7.76154 13.6176 7.76634 13.0608C7.76634 12.9264 7.78074 12.8016 7.80474 12.6816C7.91514 12.096 8.02074 11.6064 8.13114 11.2032C8.23194 10.7904 8.39994 10.488 8.63514 10.2912C8.87514 10.0944 9.16314 9.99359 9.49914 9.99359C10.0703 9.99359 10.3535 10.2672 10.3535 10.8144C10.3535 10.9488 10.3391 11.0784 10.3151 11.2032C10.2431 11.6256 10.1375 12.1152 9.99834 12.6816C9.89754 13.0944 9.72474 13.3968 9.48474 13.5936ZM12.0324 15.2448C12.0708 15.288 12.1188 15.3072 12.186 15.3072H13.41C13.4724 15.3072 13.53 15.288 13.5828 15.2448C13.6404 15.2016 13.6692 15.1488 13.6836 15.0816L14.0964 13.1088H15.3108C16.098 13.1088 16.7172 12.9456 17.1684 12.6144C17.6292 12.2832 17.9316 11.7744 18.0804 11.0832C18.114 10.92 18.1332 10.7616 18.1332 10.6128C18.1332 10.0896 17.9268 9.6912 17.5188 9.4128C17.1156 9.1392 16.5828 9 15.9156 9H13.5204C13.458 9 13.4004 9.0192 13.3476 9.0624C13.29 9.1056 13.2564 9.1584 13.2468 9.2256L12.0036 15.0816C11.994 15.144 12.0036 15.1968 12.0324 15.2448ZM16.0308 11.6592C15.8436 11.7984 15.6276 11.8656 15.3732 11.8656H14.3412L14.682 10.2528H15.762C16.0068 10.2528 16.1844 10.3008 16.2852 10.3968C16.386 10.488 16.4388 10.6224 16.4388 10.7952C16.4388 10.872 16.4292 10.9632 16.41 11.064C16.3476 11.3232 16.2228 11.52 16.0308 11.6592Z" fill="white"/>
</g>
<defs>
<clipPath id="clip0_3713_14995">
<rect width="24" height="24" fill="white"/>
</clipPath>
</defs>
</svg>
