<svg width="24" height="24" viewBox="0 0 24 24" fill="none" xmlns="http://www.w3.org/2000/svg">
<mask id="mask0_620_13867" style="mask-type:alpha" maskUnits="userSpaceOnUse" x="2" y="2" width="20" height="21">
<path d="M12 22.0083C17.5228 22.0083 22 17.5311 22 12.0083C22 6.48545 17.5228 2.0083 12 2.0083C6.47715 2.0083 2 6.48545 2 12.0083C2 17.5311 6.47715 22.0083 12 22.0083Z" fill="white"/>
</mask>
<g mask="url(#mask0_620_13867)">
<path d="M11.8946 21.673C17.1934 21.673 21.4889 17.3775 21.4889 12.0787C21.4889 6.7799 17.1934 2.48438 11.8946 2.48438C6.59581 2.48438 2.30029 6.7799 2.30029 12.0787C2.30029 17.3775 6.59581 21.673 11.8946 21.673Z" stroke="#5C4EFF" stroke-width="0.243016"/>
<path d="M11.8945 20.2466C16.4054 20.2466 20.0623 16.5898 20.0623 12.0789C20.0623 7.56795 16.4054 3.91113 11.8945 3.91113C7.38362 3.91113 3.72681 7.56795 3.72681 12.0789C3.72681 16.5898 7.38362 20.2466 11.8945 20.2466Z" stroke="#5C4EFF" stroke-width="0.243016"/>
<path d="M11.958 18.8229C15.7581 18.8229 18.8388 15.7423 18.8388 11.9421C18.8388 8.14193 15.7581 5.06128 11.958 5.06128C8.1578 5.06128 5.07715 8.14193 5.07715 11.9421C5.07715 15.7423 8.1578 18.8229 11.958 18.8229Z" stroke="#5C4EFF" stroke-width="0.243016"/>
<mask id="mask1_620_13867" style="mask-type:alpha" maskUnits="userSpaceOnUse" x="5" y="4" width="12" height="15">
<path d="M16.1007 6.00293L15.9441 5.90733C12.5634 3.84224 8.14841 4.90921 6.08382 8.28993C4.01823 11.6707 5.0857 16.0857 8.46642 18.1507L8.62295 18.2463L16.1007 6.00293Z" fill="white"/>
</mask>
<g mask="url(#mask1_620_13867)">
<path d="M8.49374 17.9979C5.20415 15.9887 4.16616 11.6933 6.17531 8.40368C8.18446 5.1141 12.4799 4.0761 15.7695 6.08525C19.0591 8.09441 20.0971 12.3899 18.0879 15.6795C16.0788 18.969 11.7833 20.007 8.49374 17.9979Z" stroke="#5C4EFF" stroke-width="0.46659"/>
</g>
<mask id="mask2_620_13867" style="mask-type:alpha" maskUnits="userSpaceOnUse" x="3" y="7" width="17" height="14">
<path d="M19.3626 16.079L19.2551 16.2653C16.9299 20.2924 11.7803 21.6725 7.7532 19.3473C3.72655 17.0222 2.34702 11.8726 4.67266 7.84543L4.77866 7.65918L19.3621 16.079H19.3626Z" fill="white"/>
</mask>
<g mask="url(#mask2_620_13867)">
<path d="M4.78585 7.98769C2.5237 11.9059 3.86616 16.916 7.78433 19.1782C11.7025 21.4403 16.7126 20.0979 18.9748 16.1797C21.237 12.2615 19.8945 7.25136 15.9763 4.98921C12.0582 2.72705 7.04801 4.06952 4.78585 7.98769Z" stroke="#5C4EFF" stroke-width="0.46659"/>
</g>
<mask id="mask3_620_13867" style="mask-type:alpha" maskUnits="userSpaceOnUse" x="5" y="1" width="18" height="18">
<path d="M5.0332 4.84076L5.87529 3.99868C9.19904 0.67492 14.5884 0.67492 17.9121 3.99868L19.9014 5.98847C23.2252 9.31223 23.2252 14.7016 19.9014 18.0253L19.0594 18.8674L5.0337 4.84076H5.0332Z" fill="white"/>
</mask>
<g mask="url(#mask3_620_13867)">
<path d="M18.754 18.9161C22.5428 15.1273 22.5428 8.98449 18.754 5.1957C14.9652 1.40691 8.82234 1.40691 5.03355 5.1957C1.24476 8.98449 1.24476 15.1273 5.03355 18.9161C8.82234 22.7049 14.9652 22.7049 18.754 18.9161Z" stroke="#5C4EFF" stroke-width="0.46659"/>
</g>
<path d="M7.7731 9.55631C6.41879 11.9021 7.2225 14.9015 9.56824 16.2558C11.914 17.6102 14.9135 16.8065 16.2678 14.4607C17.6221 12.115 16.8184 9.11549 14.4726 7.76118C12.1269 6.40687 9.12742 7.21058 7.7731 9.55631Z" fill="url(#paint0_linear_620_13867)"/>
</g>
<defs>
<linearGradient id="paint0_linear_620_13867" x1="10.5982" y1="7.25128" x2="16.2604" y2="13.4833" gradientUnits="userSpaceOnUse">
<stop stop-color="#8479FF"/>
<stop offset="0.96354" stop-color="#1F1F61"/>
</linearGradient>
</defs>
</svg>
