<svg viewBox="0 0 24 24" fill="none" xmlns="http://www.w3.org/2000/svg">
<g clip-path="url(#clip0_1265_21140)">
<path d="M12 24C18.6274 24 24 18.6274 24 12C24 5.37258 18.6274 0 12 0C5.37258 0 0 5.37258 0 12C0 18.6274 5.37258 24 12 24Z" fill="#34445B"/>
<path d="M12.5149 7.53668L13.65 5.76574C13.9412 5.81298 14.2395 5.7461 14.4827 5.57903C14.7259 5.41196 14.8953 5.15756 14.9557 4.86875C15.016 4.57995 14.9627 4.27898 14.8068 4.02847C14.651 3.77797 14.4045 3.59721 14.1187 3.52382C13.8911 3.47668 13.6545 3.49986 13.4403 3.59028C13.2262 3.68071 13.0446 3.83411 12.9196 4.03013C12.7946 4.22615 12.7322 4.45554 12.7406 4.68785C12.749 4.92017 12.8279 5.14443 12.9667 5.33091L11.5583 7.52821C10.9705 7.58602 10.3999 7.75909 9.87908 8.03753C9.35823 8.31597 8.89736 8.69431 8.52281 9.15095C8.14825 9.60758 7.86735 10.1335 7.69616 10.6988C7.52497 11.264 7.46684 11.8575 7.5251 12.4452C7.64258 13.6318 8.22646 14.7233 9.14837 15.4796C10.0703 16.2358 11.2548 16.5951 12.4415 16.4784C13.6283 16.361 14.7198 15.7772 15.4762 14.8553C16.2327 13.9334 16.592 12.7488 16.4753 11.562C16.3739 10.5397 15.9257 9.58292 15.2052 8.85063C14.4848 8.11835 13.5354 7.65468 12.5149 7.53668ZM11.9982 14.3822C11.6849 14.3825 11.3747 14.321 11.0851 14.2012C10.7956 14.0815 10.5326 13.9059 10.311 13.6844C10.0895 13.4629 9.91379 13.1999 9.79398 12.9104C9.67418 12.6209 9.61263 12.3107 9.61285 11.9974C9.61255 11.684 9.67405 11.3737 9.79382 11.0842C9.91359 10.7946 10.0893 10.5316 10.3108 10.31C10.5324 10.0884 10.7955 9.91275 11.085 9.79298C11.3746 9.67321 11.6849 9.61171 11.9982 9.61201C12.4828 9.61189 12.9559 9.75949 13.3544 10.0351C13.7529 10.3108 14.058 10.7014 14.2288 11.1548C14.0047 10.8662 13.6752 10.6783 13.3126 10.6325C12.9501 10.5866 12.5842 10.6865 12.2952 10.9103C12.0065 11.1343 11.8185 11.4639 11.7727 11.8265C11.7268 12.189 11.8268 12.555 12.0507 12.8439C12.1793 13.0093 12.344 13.1433 12.5321 13.2355C12.7203 13.3278 12.927 13.376 13.1366 13.3763C13.3461 13.3767 13.553 13.3293 13.7415 13.2377C13.93 13.1462 14.0951 13.0128 14.2243 12.8478C14.0528 13.2992 13.7479 13.6878 13.3503 13.9618C12.9527 14.2359 12.4811 14.3825 11.9982 14.3822Z" fill="white"/>
<path d="M12.5149 7.53668L13.65 5.76574C13.9412 5.81298 14.2395 5.7461 14.4827 5.57903C14.7259 5.41196 14.8953 5.15756 14.9557 4.86875C15.016 4.57995 14.9627 4.27898 14.8068 4.02847C14.651 3.77797 14.4045 3.59721 14.1187 3.52382C13.8911 3.47668 13.6545 3.49986 13.4403 3.59028C13.2262 3.68071 13.0446 3.83411 12.9196 4.03013C12.7946 4.22615 12.7322 4.45554 12.7406 4.68785C12.749 4.92017 12.8279 5.14443 12.9667 5.33091L11.5583 7.52821C10.9705 7.58602 10.3999 7.75909 9.87908 8.03753C9.35823 8.31597 8.89736 8.69431 8.52281 9.15095C8.14825 9.60758 7.86735 10.1335 7.69616 10.6988C7.52497 11.264 7.46684 11.8575 7.5251 12.4452C7.64258 13.6318 8.22646 14.7233 9.14837 15.4796C10.0703 16.2358 11.2548 16.5951 12.4415 16.4784C13.6283 16.361 14.7198 15.7772 15.4762 14.8553C16.2327 13.9334 16.592 12.7488 16.4753 11.562C16.3739 10.5397 15.9257 9.58292 15.2052 8.85063C14.4848 8.11835 13.5354 7.65468 12.5149 7.53668ZM11.9982 14.3822C11.6849 14.3825 11.3747 14.321 11.0851 14.2012C10.7956 14.0815 10.5326 13.9059 10.311 13.6844C10.0895 13.4629 9.91379 13.1999 9.79398 12.9104C9.67418 12.6209 9.61263 12.3107 9.61285 11.9974C9.61255 11.684 9.67405 11.3737 9.79382 11.0842C9.91359 10.7946 10.0893 10.5316 10.3108 10.31C10.5324 10.0884 10.7955 9.91275 11.085 9.79298C11.3746 9.67321 11.6849 9.61171 11.9982 9.61201C12.4828 9.61189 12.9559 9.75949 13.3544 10.0351C13.7529 10.3108 14.058 10.7014 14.2288 11.1548C14.0047 10.8662 13.6752 10.6783 13.3126 10.6325C12.9501 10.5866 12.5842 10.6865 12.2952 10.9103C12.0065 11.1343 11.8185 11.4639 11.7727 11.8265C11.7268 12.189 11.8268 12.555 12.0507 12.8439C12.1793 13.0093 12.344 13.1433 12.5321 13.2355C12.7203 13.3278 12.927 13.376 13.1366 13.3763C13.3461 13.3767 13.553 13.3293 13.7415 13.2377C13.93 13.1462 14.0951 13.0128 14.2243 12.8478C14.0528 13.2992 13.7479 13.6878 13.3503 13.9618C12.9527 14.2359 12.4811 14.3825 11.9982 14.3822Z" fill="white"/>
</g>
<defs>
<clipPath id="clip0_1265_21140">
<rect width="24" height="24" fill="white"/>
</clipPath>
</defs>
</svg>