<svg viewBox="0 0 24 24" fill="none" xmlns="http://www.w3.org/2000/svg">
<path fill-rule="evenodd" clip-rule="evenodd" d="M16.4822 4.5533C17.1887 4.5533 17.7614 5.12601 17.7614 5.83249L17.7614 18.1675C17.7614 18.874 17.1887 19.4467 16.4822 19.4467H8.99998C8.2935 19.4467 7.72079 18.874 7.72079 18.1675V15.7411C7.72079 15.3122 7.37307 14.9645 6.94414 14.9645C6.51521 14.9645 6.16749 15.3122 6.16749 15.7411V18.1675C6.16749 19.7319 7.43564 21 8.99998 21H16.4822C18.0465 21 19.3147 19.7319 19.3147 18.1675L19.3147 5.83249C19.3147 4.26815 18.0465 3 16.4822 3L8.99998 3C7.43564 3 6.16749 4.26815 6.16749 5.83249V8.25888C6.16749 8.68782 6.51521 9.03553 6.94414 9.03553C7.37307 9.03553 7.72079 8.68782 7.72079 8.25888V5.83249C7.72079 5.12601 8.2935 4.5533 8.99998 4.5533L16.4822 4.5533ZM4.75219 8.70971C4.44889 8.40641 3.95715 8.40641 3.65385 8.70971L0.912729 11.4508C0.609428 11.7541 0.609428 12.2459 0.912731 12.5492L3.65385 15.2903C3.95715 15.5936 4.4489 15.5936 4.7522 15.2903C5.0555 14.987 5.0555 14.4952 4.7522 14.1919L3.3369 12.7767L13.1117 12.7766C13.5406 12.7766 13.8883 12.4289 13.8883 12C13.8883 11.5711 13.5406 11.2234 13.1117 11.2234L3.3369 11.2234L4.7522 9.80806C5.0555 9.50476 5.0555 9.01301 4.75219 8.70971Z" fill="currentColor"/>
</svg>