<svg width="24" height="24" viewBox="0 0 24 24" fill="none" xmlns="http://www.w3.org/2000/svg">
<g clip-path="url(#clip0_1265_21136)">
<path d="M12 24C18.6274 24 24 18.6274 24 12C24 5.37258 18.6274 0 12 0C5.37258 0 0 5.37258 0 12C0 18.6274 5.37258 24 12 24Z" fill="#4392CD"/>
<path fill-rule="evenodd" clip-rule="evenodd" d="M12.5577 17.8503H11.4423C10.6051 17.8503 10.3678 17.0742 10.3678 16.4814C10.3678 15.8886 10.4101 15.6202 10.4101 15.3524C10.4101 14.9299 10.1969 13.8749 9.81015 13.4329C9.0568 12.5717 8.5823 11.8001 8.5823 10.6808C7.9271 10.3422 6.7688 10.0315 6.3229 9.52381C5.877 9.01616 5.5 8.29531 5.5 7.26441C5.5 7.00116 5.5559 6.62936 5.6677 6.14966C5.92445 6.95176 6.31965 7.50166 6.8533 7.80066C7.63395 8.23876 8.51405 8.56311 9.2661 8.56311H14.7339C15.4859 8.56311 16.3654 8.23811 17.1467 7.80066C17.6797 7.50166 18.0756 6.95176 18.3323 6.14966C18.4441 6.62936 18.5 7.00116 18.5 7.26441C18.5 8.29466 18.123 9.01486 17.6771 9.52251C17.2312 10.0302 16.0729 10.3415 15.4177 10.6795C15.4177 11.7995 14.9432 12.571 14.1898 13.4323C13.8031 13.8743 13.5899 14.9292 13.5899 15.3517C13.5899 15.6195 13.6321 15.888 13.6321 16.4808C13.6321 17.0736 13.3949 17.8497 12.5577 17.8497V17.8503Z" fill="white"/>
</g>
<defs>
<clipPath id="clip0_1265_21136">
<rect width="24" height="24" fill="white"/>
</clipPath>
</defs>
</svg>
