<svg width="24" height="24" viewBox="0 0 24 24" fill="none" xmlns="http://www.w3.org/2000/svg">
<g clip-path="url(#clip0_1265_21132)">
<path d="M12 24C18.6274 24 24 18.6274 24 12C24 5.37258 18.6274 0 12 0C5.37258 0 0 5.37258 0 12C0 18.6274 5.37258 24 12 24Z" fill="#5F45BA"/>
<path d="M8.47593 7.38004C8.40171 7.50515 8.29205 7.60544 8.16082 7.66821C8.02959 7.73098 7.88269 7.75341 7.7387 7.73266C7.59472 7.71192 7.46013 7.64893 7.35195 7.55166C7.24378 7.4544 7.16689 7.32723 7.13102 7.18626C7.09514 7.04528 7.10189 6.89683 7.15041 6.75969C7.19893 6.62255 7.28704 6.50288 7.40359 6.41583C7.52014 6.32878 7.6599 6.27826 7.80517 6.27067C7.95044 6.26307 8.0947 6.29874 8.2197 6.37316C8.56826 6.58055 8.68333 7.03081 8.47593 7.38004ZM5.96709 7.05355C5.91465 7.14209 5.83712 7.21306 5.74431 7.2575C5.6515 7.30193 5.54759 7.31782 5.44574 7.30316C5.3439 7.28849 5.24869 7.24393 5.17219 7.17512C5.09569 7.1063 5.04133 7.01633 5.016 6.9166C4.99067 6.81687 4.9955 6.71187 5.02989 6.61489C5.06429 6.51791 5.12668 6.43332 5.20919 6.37183C5.29169 6.31034 5.39059 6.27472 5.49335 6.26947C5.59611 6.26423 5.69812 6.28961 5.78645 6.34238C6.03265 6.48957 6.11428 6.80735 5.96709 7.05355ZM12.951 17.691C13.7003 17.6026 14.4247 17.3667 15.0825 16.9971C15.7403 16.6275 16.3184 16.1313 16.7836 15.5373C17.2488 14.9432 17.5918 14.263 17.793 13.5358C17.9941 12.8086 18.0494 12.0488 17.9557 11.3001C17.8619 10.5515 17.6209 9.82876 17.2466 9.17364C16.8723 8.51852 16.3721 7.94393 15.7747 7.48297C15.1774 7.02201 14.4948 6.6838 13.7661 6.48782C13.0375 6.29183 12.2773 6.24195 11.5294 6.34104C11.0484 6.38603 10.5771 6.50425 10.1318 6.69161C9.61327 6.94584 9.27876 7.36933 9.27876 7.936C9.27876 8.67192 9.87553 9.27003 10.6128 9.27003C10.7359 9.27003 11.1621 9.13489 11.2638 9.1001C11.744 8.93253 12.2582 8.88644 12.7606 8.96593C13.263 9.04543 13.7379 9.24803 14.1429 9.55568C14.5479 9.86333 14.8705 10.2665 15.0819 10.7291C15.2932 11.1917 15.3868 11.6995 15.3542 12.207C15.3136 12.8524 15.0712 13.4686 14.6612 13.9685C14.2512 14.4685 13.6944 14.8269 13.0696 14.9931C12.4447 15.1592 11.7834 15.1247 11.1792 14.8944C10.5751 14.6641 10.0586 14.2496 9.70292 13.7097V13.7103C9.08742 12.9042 9.22925 11.6156 9.22858 11.5989C9.21656 11.2799 9.09069 10.9757 8.87379 10.7415C8.65688 10.5072 8.36327 10.3584 8.04612 10.3219C7.72897 10.2855 7.40924 10.3638 7.14482 10.5427C6.88041 10.7216 6.6888 10.9892 6.60467 11.2972C6.57456 11.4089 6.55918 11.7361 6.56386 11.7795C6.53012 12.6063 6.67621 13.4305 6.99204 14.1953C7.30788 14.9601 7.78593 15.6473 8.3932 16.2093C9.00047 16.7714 9.72248 17.1949 10.5094 17.4507C11.2963 17.7065 12.1294 17.7885 12.951 17.691ZM7.71124 9.42056C7.61503 9.58254 7.47296 9.71236 7.30298 9.79361C7.13301 9.87486 6.94276 9.90389 6.75628 9.87702C6.56981 9.85016 6.39549 9.76861 6.25536 9.64269C6.11523 9.51677 6.01558 9.35213 5.969 9.16958C5.92243 8.98703 5.93103 8.79477 5.99371 8.6171C6.05639 8.43944 6.17034 8.28435 6.32115 8.17144C6.47196 8.05853 6.65287 7.99286 6.84099 7.98275C7.02912 7.97264 7.21602 8.01853 7.37806 8.11463C7.83032 8.38357 7.97885 8.9683 7.71057 9.42056" fill="white"/>
</g>
<defs>
<clipPath id="clip0_1265_21132">
<rect width="24" height="24" fill="white"/>
</clipPath>
</defs>
</svg>
