<svg width="24" height="24" viewBox="0 0 24 24" fill="none" xmlns="http://www.w3.org/2000/svg">
<path fill-rule="evenodd" clip-rule="evenodd" d="M11.993 20.883C9.21739 20.8809 6.98191 20.2148 5.41969 19.0186C3.83875 17.8079 3 16.09 3 14.146C3 12.273 3.83697 10.9223 4.78387 10.0093C5.52576 9.29383 6.3446 8.83568 6.91476 8.57185C6.75788 8.0927 6.61323 7.60964 6.48098 7.12312C6.28845 6.40708 6.09948 5.56714 6.09948 4.95152C6.09948 4.223 6.25844 3.49121 6.68688 2.92254C7.13938 2.32207 7.82066 2.0003 8.6401 2.0003C9.28067 2.0003 9.82439 2.23799 10.2505 2.64771C10.6572 3.0393 10.9279 3.55984 11.115 4.10208C11.4437 5.05521 11.5717 6.25258 11.6074 7.44757H12.3926C12.4283 6.25258 12.5563 5.05521 12.885 4.10208C13.0721 3.55984 13.3428 3.0393 13.7496 2.64771C14.1756 2.23769 14.7193 2 15.3599 2C16.1793 2 16.8606 2.32207 17.3131 2.92254C17.7416 3.49121 17.9005 4.223 17.9005 4.95182C17.9005 5.56714 17.7116 6.40708 17.519 7.12312C17.3868 7.60964 17.2421 8.09271 17.0852 8.57185C17.6554 8.83568 18.4742 9.29383 19.2161 10.0093C20.163 10.9223 21 12.273 21 14.146C21 16.09 20.1613 17.8079 18.5803 19.0186C17.0184 20.2148 14.7826 20.8809 12.007 20.883H11.993Z" fill="#633001"/>
<path d="M8.64005 2.69312C7.43971 2.69312 6.88708 3.59782 6.88708 4.84897C6.88708 5.84341 7.52885 7.83496 7.79268 8.61042C7.85181 8.78483 7.75881 8.97587 7.58886 9.04361C6.62681 9.42689 3.7876 10.8299 3.7876 14.0434C3.7876 17.4284 6.67286 19.9806 11.9936 19.9848H12.0063C17.327 19.9806 20.2123 17.4284 20.2123 14.0434C20.2123 10.8299 17.3731 9.42659 16.411 9.04361C16.3283 9.01092 16.2612 8.9479 16.2233 8.86741C16.1854 8.78691 16.1797 8.695 16.2072 8.61042C16.4708 7.83496 17.1128 5.84341 17.1128 4.84897C17.1128 3.59782 16.5602 2.69312 15.3599 2.69312C13.6318 2.69312 13.201 5.16569 13.1701 7.81951C13.1698 7.90421 13.1362 7.98537 13.0764 8.04543C13.0167 8.10549 12.9357 8.13961 12.851 8.14039H11.1486C10.9733 8.14039 10.8316 7.99658 10.8295 7.81951C10.7989 5.16569 10.3681 2.69312 8.64005 2.69312Z" fill="#D1884F"/>
<path d="M12.0063 18.9005C8.09693 18.9005 3.79413 16.7865 3.7876 14.0498V14.0626C3.7876 17.4506 6.67762 20.004 12.0063 20.004C17.3351 20.004 20.2248 17.4506 20.2248 14.0626V14.0498C20.2183 16.7862 15.9158 18.9005 12.0063 18.9005Z" fill="#FEDC90"/>
<path d="M9.83426 13.2093C9.83426 14.1333 9.40196 14.6146 8.86864 14.6146C8.33562 14.6146 7.90332 14.1333 7.90332 13.2093C7.90332 12.2853 8.33562 11.804 8.86894 11.804C9.40196 11.804 9.83426 12.2853 9.83426 13.2093ZM16.1093 13.2093C16.1093 14.1333 15.677 14.6146 15.1437 14.6146C14.6106 14.6146 14.1786 14.1333 14.1786 13.2093C14.1786 12.2853 14.6106 11.804 15.144 11.804C15.677 11.804 16.1096 12.2853 16.1096 13.2093H16.1093Z" fill="#633001"/>
</svg>
