<svg width="24" height="24" viewBox="0 0 24 24" fill="none" xmlns="http://www.w3.org/2000/svg">
<path fill-rule="evenodd" clip-rule="evenodd" d="M21.6517 19.8452C21.5083 19.9465 21.3383 20 21.1667 20C21.0775 20 20.9875 19.9858 20.9008 19.9565C20.8492 19.9398 18.4 19.1726 12 19.1726C6.1025 19.1726 3.08083 19.9632 3.05167 19.9707C2.80167 20.0385 2.53333 19.9858 2.3275 19.8285C2.12167 19.6729 2 19.4303 2 19.1726V5.82657C2 5.56471 2.12583 5.3179 2.33833 5.16228C2.55167 5.00583 2.82583 4.95982 3.07833 5.03595C3.10833 5.04516 6.11917 5.93701 12 5.93701C17.8808 5.93701 20.8917 5.04516 20.9217 5.03595C21.175 4.95982 21.4492 5.00583 21.6617 5.16228C21.8742 5.3179 22 5.56471 22 5.82657V19.1726C22 19.4395 21.87 19.6896 21.6517 19.8452ZM7.83333 7.43542C5.9225 7.28483 4.5325 7.05559 3.66667 6.87739V18.1502C4.52667 17.9929 5.91583 17.7896 7.83333 17.6558V7.43542ZM9.5 7.53414V17.5687C10.2717 17.5386 11.0967 17.5185 12 17.5185C12.915 17.5185 13.735 17.5361 14.5 17.5629V7.53414C13.7275 7.56845 12.9025 7.59187 12 7.59187C11.0975 7.59187 10.2725 7.56845 9.5 7.53414ZM20.3333 6.87739C19.4675 7.05559 18.0775 7.28483 16.1667 7.43542V17.6399C18.1467 17.7645 19.4967 17.9636 20.3333 18.1251V6.87739Z" fill="#6B7084"/>
</svg>
