<svg viewBox="0 0 24 24" fill="none" xmlns="http://www.w3.org/2000/svg">
<path fill-rule="evenodd" clip-rule="evenodd" d="M21.1672 17.8339H12.0004C11.5401 17.8339 11.1669 17.4601 11.1669 17.0002C11.1669 16.5403 11.5016 16.2058 11.9619 16.2058H21.1681C21.6284 16.2058 22 16.5403 22 17.0002C22 17.4601 21.6267 17.8339 21.1672 17.8339ZM21.1672 13.667H12.0004C11.5401 13.667 11.1669 13.2941 11.1669 12.8333C11.1669 12.3734 11.5401 12.0004 12.0004 12.0004H21.1672C21.6267 12.0004 22 12.3734 22 12.8333C22 13.2941 21.6267 13.667 21.1672 13.667ZM21.1673 9.5001H16.1667C15.7064 9.5001 15.3339 9.12715 15.3339 8.66722C15.3339 8.20646 15.7064 7.83351 16.1667 7.83351H21.1673C21.6268 7.83351 22 8.20646 22 8.66722C22 9.12715 21.6268 9.5001 21.1673 9.5001ZM21.1673 5.33319H14.5003C14.04 5.33319 13.6668 4.96024 13.6668 4.49948C13.6668 4.03955 14.04 3.6666 14.5003 3.6666H21.1673C21.6267 3.6666 22 4.03955 22 4.49948C22 4.96024 21.6267 5.33319 21.1673 5.33319ZM12.8349 9.16645C12.6081 9.16645 12.3821 9.07447 12.2181 8.89384L8.61428 4.93097V21.2231C8.61428 21.6839 8.29374 22 7.83344 22C7.37313 22 6.94044 21.6839 6.94044 21.2231V5.05389L3.44964 8.89384C3.14082 9.23418 2.61439 9.26011 2.27209 8.94987C1.9323 8.63963 1.9072 8.11281 2.21686 7.77246L7.05594 2.44989C7.2116 2.18481 7.51122 2 7.83344 2C7.95646 2 8.06694 2.02927 8.16737 2.07693C8.27282 2.12042 8.37074 2.18564 8.44941 2.27261L13.4509 7.77246C13.7605 8.11281 13.7354 8.63963 13.3948 8.94987C13.2349 9.09453 13.0341 9.16645 12.8349 9.16645ZM11.9619 20.3869H21.1681C21.6284 20.3869 22 20.7072 22 21.1671C22 21.627 21.6267 22 21.1672 22H12.0004C11.5401 22 11.1669 21.627 11.1669 21.1671C11.1669 20.7072 11.5016 20.3869 11.9619 20.3869Z" fill="currentColor"/>
</svg>