<svg viewBox="0 0 24 24" fill="none" xmlns="http://www.w3.org/2000/svg">
<path fill-rule="evenodd" clip-rule="evenodd" d="M21.1665 16.1667H16.1669C15.7066 16.1667 15.3333 15.7933 15.3333 15.3333C15.3333 14.8733 15.7066 14.5 16.1669 14.5H21.1665C21.6267 14.5 22 14.8733 22 15.3333C22 15.7933 21.6267 16.1667 21.1665 16.1667ZM21.1665 12H12C11.5397 12 11.1665 11.6267 11.1665 11.1667C11.1665 10.7067 11.5397 10.3333 12 10.3333H21.1665C21.6267 10.3333 22 10.7067 22 11.1667C22 11.6267 21.6267 12 21.1665 12ZM21.1665 7.83333H12C11.5397 7.83333 11.1665 7.46 11.1665 7C11.1665 6.54 11.5397 6.16667 12 6.16667H21.1665C21.6267 6.16667 22 6.54 22 7C22 7.46 21.6267 7.83333 21.1665 7.83333ZM21.1665 3.66667H12C11.5397 3.66667 11.1665 3.29333 11.1665 2.83333C11.1665 2.37333 11.5397 2 12 2H21.1665C21.6267 2 22 2.37333 22 2.83333C22 3.29333 21.6267 3.66667 21.1665 3.66667ZM13.3943 15.0508C13.7349 15.36 13.76 15.8867 13.4503 16.2275L8.44992 21.7275C8.36707 21.8192 8.26413 21.8858 8.15282 21.9325C8.05658 21.9758 7.94946 22 7.83313 22C7.71513 22 7.60382 21.9742 7.50256 21.93C7.47829 21.92 7.45988 21.8983 7.43644 21.8858C7.36196 21.8442 7.28999 21.8 7.23224 21.7383C7.22806 21.7333 7.22136 21.7317 7.21718 21.7275L2.21676 16.2275C1.90711 15.8867 1.93222 15.36 2.27283 15.0508C2.61429 14.7408 3.14069 14.7658 3.4495 15.1058L6.99959 19.0117V2.83333C6.99959 2.37333 7.37284 2 7.83313 2C8.29342 2 8.6173 2.37333 8.6173 2.83333V19.0658L12.2176 15.1058C12.5272 14.7667 13.0536 14.7417 13.3943 15.0508ZM14.4998 18.6667H21.1665C21.6268 18.6667 22 19.04 22 19.5C22 19.96 21.6268 20.3333 21.1665 20.3333H14.4998C14.0395 20.3333 13.6663 19.96 13.6663 19.5C13.6663 19.04 14.0395 18.6667 14.4998 18.6667Z" fill="currentColor"/>
</svg>