<svg width="24" height="24" viewBox="0 0 24 24" fill="none" xmlns="http://www.w3.org/2000/svg">
<g clip-path="url(#clip0_1265_21128)">
<path d="M12 24C18.6274 24 24 18.6274 24 12C24 5.37258 18.6274 0 12 0C5.37258 0 0 5.37258 0 12C0 18.6274 5.37258 24 12 24Z" fill="#03E8B0"/>
<path d="M11.6258 5.61389C12.0444 5.43218 12.3434 5.81767 12.602 6.07595C13.0635 6.46728 13.5029 6.88326 13.9189 7.32196C14.1575 7.5822 14.0606 8.05789 13.7363 8.20261C13.4867 8.33889 13.1818 8.23635 12.9907 8.04686C12.4883 7.56662 12.008 7.06238 11.4867 6.60356C11.163 6.33943 11.2293 5.7664 11.6258 5.61389ZM16.1978 6.94492C16.4818 6.79241 16.9368 6.91636 17.0154 7.25447C17.1357 7.55494 16.9426 7.85152 16.7307 8.05205C16.266 8.50957 15.8143 8.98006 15.3625 9.45121C15.1981 9.64979 14.9075 9.70301 14.6748 9.59593C14.3388 9.45705 14.2478 8.95346 14.5013 8.69777C15.0713 8.11889 15.5744 7.46993 16.1978 6.94557V6.94492ZM7.11878 7.03837C7.41453 6.8599 7.78047 6.97801 7.99951 7.22008C8.4922 7.71653 9.00049 8.19612 9.49773 8.68479C9.82727 8.9885 9.59717 9.63227 9.13763 9.63487C8.75284 9.69327 8.54875 9.31363 8.29136 9.10596C7.84027 8.73281 7.42688 8.31747 7.01739 7.89889C6.78599 7.66072 6.85489 7.22332 7.11943 7.03837H7.11878ZM7.50098 9.97168C7.99691 9.78024 8.48115 10.4045 8.17176 10.8348C7.80582 11.3111 7.32938 11.6947 6.93029 12.1444C6.69434 12.3865 6.4753 12.759 6.08206 12.7116C5.62252 12.6941 5.39178 12.0561 5.72587 11.7466C6.3297 11.1697 6.80874 10.4402 7.50163 9.97103L7.50098 9.97168ZM17.5601 11.352C17.9014 11.1294 18.4162 11.3825 18.4272 11.7933C18.4773 12.1788 18.0938 12.3826 17.8825 12.6422C17.5107 13.0886 17.1025 13.5053 16.6813 13.9063C16.3733 14.1964 15.7987 13.9927 15.7434 13.5721C15.6713 13.138 16.0795 12.8687 16.3369 12.5909C16.7632 12.1957 17.1233 11.7304 17.5601 11.352ZM8.79509 14.4054C9.12658 14.2075 9.62902 14.4424 9.63682 14.8441C9.69857 15.2322 9.31443 15.4379 9.10449 15.6968C8.73399 16.1446 8.3206 16.5554 7.90331 16.961C7.63227 17.2349 7.05379 17.1031 6.97709 16.7105C6.84579 16.3309 7.16818 16.0252 7.41388 15.787C7.89032 15.3419 8.30436 14.8331 8.79509 14.4054ZM14.6852 14.3905C14.8685 14.3275 15.1012 14.3223 15.2559 14.4547C15.8299 14.9992 16.4409 15.5047 16.9803 16.0862C17.1467 16.2549 17.1617 16.5372 17.0512 16.7397C16.8952 17.1038 16.3609 17.1129 16.1016 16.8552C15.5777 16.362 15.0746 15.8435 14.5481 15.3522C14.2296 15.1056 14.3044 14.5332 14.6846 14.3905H14.6852ZM10.2654 15.7825C10.5383 15.6352 10.8594 15.7747 11.0557 15.9824C11.5476 16.476 12.049 16.96 12.5598 17.4341C12.8978 17.7547 12.669 18.4056 12.1926 18.4108C11.8078 18.4562 11.6076 18.0746 11.3495 17.8657C10.9041 17.4903 10.4809 17.0894 10.0821 16.6651C9.83897 16.4068 9.93776 15.9253 10.2654 15.7825ZM9.38788 6.1084C9.38788 6.2578 9.32844 6.40108 9.22263 6.50672C9.11683 6.61236 8.97332 6.6717 8.82369 6.6717C8.67406 6.6717 8.53056 6.61236 8.42475 6.50672C8.31895 6.40108 8.25951 6.2578 8.25951 6.1084C8.26447 5.9624 8.32605 5.82403 8.43126 5.7225C8.53646 5.62097 8.67705 5.56422 8.82337 5.56422C8.96968 5.56422 9.11028 5.62097 9.21548 5.7225C9.32068 5.82403 9.38226 5.9624 9.38723 6.1084H9.38788ZM11.031 7.60621C11.031 7.75552 10.9716 7.89871 10.8659 8.00429C10.7601 8.10987 10.6167 8.16919 10.4672 8.16919C10.3176 8.16919 10.1742 8.10987 10.0685 8.00429C9.96272 7.89871 9.90332 7.75552 9.90332 7.60621C9.90332 7.4569 9.96272 7.3137 10.0685 7.20813C10.1742 7.10255 10.3176 7.04323 10.4672 7.04323C10.6167 7.04323 10.7601 7.10255 10.8659 7.20813C10.9716 7.3137 11.031 7.4569 11.031 7.60621ZM6.62805 8.98201C6.63062 9.05755 6.61793 9.13283 6.59075 9.20338C6.56357 9.27392 6.52245 9.33828 6.46984 9.39262C6.41723 9.44697 6.3542 9.49019 6.28451 9.5197C6.21482 9.54922 6.13989 9.56443 6.06419 9.56443C5.98848 9.56443 5.91356 9.54922 5.84387 9.5197C5.77418 9.49019 5.71115 9.44697 5.65853 9.39262C5.60592 9.33828 5.5648 9.27392 5.53762 9.20338C5.51044 9.13283 5.49776 9.05755 5.50033 8.98201C5.50529 8.83601 5.56687 8.69764 5.67207 8.59611C5.77728 8.49458 5.91787 8.43783 6.06419 8.43783C6.2105 8.43783 6.3511 8.49458 6.4563 8.59611C6.5615 8.69764 6.62308 8.83601 6.62805 8.98201ZM15.5796 6.06362C15.5796 6.21302 15.5202 6.3563 15.4144 6.46194C15.3086 6.56758 15.1651 6.62692 15.0154 6.62692C14.8658 6.62692 14.7223 6.56758 14.6165 6.46194C14.5107 6.3563 14.4513 6.21302 14.4513 6.06362C14.4513 5.91414 14.5107 5.77078 14.6166 5.66508C14.7225 5.55938 14.866 5.5 15.0158 5.5C15.1655 5.5 15.3091 5.55938 15.4149 5.66508C15.5208 5.77078 15.5803 5.91414 15.5803 6.06362H15.5796ZM18.5 8.84119C18.5 8.9905 18.4406 9.13369 18.3348 9.23927C18.2291 9.34485 18.0857 9.40416 17.9361 9.40416C17.7866 9.40416 17.6432 9.34485 17.5374 9.23927C17.4317 9.13369 17.3723 8.9905 17.3723 8.84119C17.3723 8.69188 17.4317 8.54868 17.5374 8.4431C17.6432 8.33752 17.7866 8.27821 17.9361 8.27821C18.0857 8.27821 18.2291 8.33752 18.3348 8.4431C18.4406 8.54868 18.5 8.69188 18.5 8.84119ZM16.9589 10.4584C16.9589 10.6077 16.8995 10.7509 16.7937 10.8565C16.688 10.9621 16.5446 11.0214 16.395 11.0214C16.2455 11.0214 16.1021 10.9621 15.9963 10.8565C15.8906 10.7509 15.8312 10.6077 15.8312 10.4584C15.8312 10.3091 15.8906 10.1659 15.9963 10.0603C16.1021 9.95474 16.2455 9.89543 16.395 9.89543C16.5446 9.89543 16.688 9.95474 16.7937 10.0603C16.8995 10.1659 16.9589 10.3091 16.9589 10.4584ZM18.4974 15.005C18.4974 15.1543 18.438 15.2975 18.3322 15.4031C18.2265 15.5087 18.0831 15.568 17.9335 15.568C17.784 15.568 17.6406 15.5087 17.5348 15.4031C17.4291 15.2975 17.3697 15.1543 17.3697 15.005C17.3697 14.8557 17.4291 14.7125 17.5348 14.607C17.6406 14.5014 17.784 14.4421 17.9335 14.4421C18.0831 14.4421 18.2265 14.5014 18.3322 14.607C18.438 14.7125 18.4974 14.8557 18.4974 15.005ZM14.0996 16.3782C14.1022 16.4538 14.0895 16.5291 14.0623 16.5996C14.0351 16.6702 13.994 16.7345 13.9414 16.7889C13.8888 16.8432 13.8258 16.8864 13.7561 16.9159C13.6864 16.9454 13.6115 16.9607 13.5357 16.9607C13.46 16.9607 13.3851 16.9454 13.3154 16.9159C13.2457 16.8864 13.1827 16.8432 13.1301 16.7889C13.0775 16.7345 13.0364 16.6702 13.0092 16.5996C12.982 16.5291 12.9693 16.4538 12.9719 16.3782C12.9769 16.2322 13.0384 16.0939 13.1436 15.9923C13.2488 15.8908 13.3894 15.8341 13.5357 15.8341C13.6821 15.8341 13.8227 15.8908 13.9279 15.9923C14.0331 16.0939 14.0946 16.2322 14.0996 16.3782ZM15.722 17.9176C15.7245 17.9931 15.7119 18.0684 15.6847 18.1389C15.6575 18.2095 15.6164 18.2739 15.5638 18.3282C15.5111 18.3825 15.4481 18.4258 15.3784 18.4553C15.3087 18.4848 15.2338 18.5 15.1581 18.5C15.0824 18.5 15.0075 18.4848 14.9378 18.4553C14.8681 18.4258 14.8051 18.3825 14.7525 18.3282C14.6998 18.2739 14.6587 18.2095 14.6315 18.1389C14.6044 18.0684 14.5917 17.9931 14.5942 17.9176C14.5992 17.7716 14.6608 17.6332 14.766 17.5317C14.8712 17.4302 15.0118 17.3734 15.1581 17.3734C15.3044 17.3734 15.445 17.4302 15.5502 17.5317C15.6554 17.6332 15.717 17.7716 15.722 17.9176ZM9.54712 17.9176C9.54712 18.067 9.48768 18.2103 9.38188 18.3159C9.27607 18.4215 9.13257 18.4809 8.98294 18.4809C8.83331 18.4809 8.6898 18.4215 8.584 18.3159C8.47819 18.2103 8.41875 18.067 8.41875 17.9176C8.42372 17.7716 8.4853 17.6332 8.5905 17.5317C8.6957 17.4302 8.8363 17.3734 8.98261 17.3734C9.12893 17.3734 9.26952 17.4302 9.37472 17.5317C9.47993 17.6332 9.54151 17.7716 9.54647 17.9176H9.54712ZM8.17111 13.5085C8.17368 13.5841 8.16099 13.6594 8.13381 13.7299C8.10663 13.8004 8.06551 13.8648 8.0129 13.9191C7.96029 13.9735 7.89726 14.0167 7.82757 14.0462C7.75788 14.0757 7.68295 14.0909 7.60725 14.0909C7.53155 14.0909 7.45662 14.0757 7.38693 14.0462C7.31724 14.0167 7.25421 13.9735 7.20159 13.9191C7.14898 13.8648 7.10786 13.8004 7.08068 13.7299C7.0535 13.6594 7.04082 13.5841 7.04339 13.5085C7.04835 13.3625 7.10993 13.2242 7.21514 13.1226C7.32034 13.0211 7.46093 12.9643 7.60725 12.9643C7.75356 12.9643 7.89416 13.0211 7.99936 13.1226C8.10456 13.2242 8.16614 13.3625 8.17111 13.5085ZM6.62805 15.1446C6.63062 15.2201 6.61793 15.2954 6.59075 15.3659C6.56357 15.4365 6.52245 15.5008 6.46984 15.5552C6.41723 15.6095 6.3542 15.6527 6.28451 15.6823C6.21482 15.7118 6.13989 15.727 6.06419 15.727C5.98848 15.727 5.91356 15.7118 5.84387 15.6823C5.77418 15.6527 5.71115 15.6095 5.65853 15.5552C5.60592 15.5008 5.5648 15.4365 5.53762 15.3659C5.51044 15.2954 5.49776 15.2201 5.50033 15.1446C5.50529 14.9986 5.56687 14.8602 5.67207 14.7587C5.77728 14.6571 5.91787 14.6004 6.06419 14.6004C6.2105 14.6004 6.3511 14.6571 6.4563 14.7587C6.5615 14.8602 6.62308 14.9986 6.62805 15.1446Z" fill="white"/>
</g>
<defs>
<clipPath id="clip0_1265_21128">
<rect width="24" height="24" fill="white"/>
</clipPath>
</defs>
</svg>
