<svg width="24" height="24" viewBox="0 0 24 24" fill="none" xmlns="http://www.w3.org/2000/svg">
<g clip-path="url(#clip0_1265_21124)">
<path d="M12 24C18.6274 24 24 18.6274 24 12C24 5.37258 18.6274 0 12 0C5.37258 0 0 5.37258 0 12C0 18.6274 5.37258 24 12 24Z" fill="#F7931E"/>
<path d="M12 5.5C8.41038 5.5 5.5 8.41038 5.5 12C5.5 15.5896 8.41038 18.5 12 18.5C15.5896 18.5 18.5 15.5896 18.5 12C18.5 10.2761 17.8152 8.62279 16.5962 7.40381C15.3772 6.18482 13.7239 5.5 12 5.5ZM15.25 8.64871C15.5732 8.64871 15.8832 8.77711 16.1118 9.00567C16.3403 9.23423 16.4688 9.54423 16.4688 9.86746V11.695C16.4688 12.0183 16.3403 12.3283 16.1118 12.5568C15.8832 12.7854 15.5732 12.9138 15.25 12.9138H13.7409L13.6434 13.371C13.6301 13.427 13.5989 13.4771 13.5545 13.5138C13.5102 13.5505 13.455 13.5716 13.3975 13.5741H13.0925C13.0673 13.5752 13.0422 13.5702 13.0193 13.5597C12.9963 13.5491 12.9762 13.5333 12.9606 13.5134C12.945 13.4936 12.9344 13.4703 12.9295 13.4456C12.9247 13.4208 12.9258 13.3952 12.9328 13.371L13.0303 12.9143H12.319L12.2215 13.371C12.2083 13.427 12.1771 13.4771 12.1327 13.5138C12.0883 13.5505 12.0331 13.5716 11.9756 13.5741H11.6707C11.6454 13.5752 11.6203 13.5702 11.5974 13.5597C11.5745 13.5491 11.5544 13.5333 11.5388 13.5134C11.5232 13.4936 11.5125 13.4703 11.5076 13.4456C11.5028 13.4208 11.5039 13.3952 11.5109 13.371L11.6084 12.9143H10.8463L10.1768 16.0625H8.55175L9.73908 10.4763H11.3641L11.1052 11.695H14.2344C14.5708 11.695 14.8438 11.4226 14.8438 11.0862V10.4763C14.8438 10.1405 14.5708 9.86746 14.2344 9.86746H7.53125L8.54688 8.64871H12.5151L12.6121 8.19154C12.6254 8.13552 12.6566 8.08537 12.701 8.04871C12.7453 8.01205 12.8005 7.99088 12.858 7.98842H13.163C13.1882 7.98735 13.2133 7.99229 13.2362 8.00283C13.2592 8.01338 13.2793 8.02922 13.2949 8.04906C13.3105 8.0689 13.3211 8.09217 13.326 8.11694C13.3308 8.14171 13.3297 8.16728 13.3228 8.19154L13.2258 8.64871H13.937L14.034 8.19154C14.0472 8.13552 14.0784 8.08537 14.1228 8.04871C14.1672 8.01205 14.2224 7.99088 14.2799 7.98842H14.5848C14.6101 7.98735 14.6352 7.99229 14.6581 8.00283C14.681 8.01338 14.7011 8.02922 14.7167 8.04906C14.7323 8.0689 14.743 8.09217 14.7479 8.11694C14.7527 8.14171 14.7516 8.16728 14.7446 8.19154L14.6477 8.64871H15.25Z" fill="white"/>
</g>
<defs>
<clipPath id="clip0_1265_21124">
<rect width="24" height="24" fill="white"/>
</clipPath>
</defs>
</svg>
