<svg viewBox="0 0 24 24" fill="none" xmlns="http://www.w3.org/2000/svg">
<g clip-path="url(#clip0_1265_21120)">
<path d="M12 24C18.6274 24 24 18.6274 24 12C24 5.37258 18.6274 0 12 0C5.37258 0 0 5.37258 0 12C0 18.6274 5.37258 24 12 24Z" fill="#00ACFF"/>
<path fill-rule="evenodd" clip-rule="evenodd" d="M11.4189 14.6248C11.4581 14.6085 11.5002 14.6002 11.5427 14.6002C11.5852 14.6003 11.6273 14.6087 11.6665 14.6251C11.7057 14.6415 11.7413 14.6655 11.7712 14.6957C11.8011 14.7259 11.8248 14.7617 11.8408 14.8011C11.8735 14.8805 11.8734 14.9696 11.8407 15.049C11.8079 15.1284 11.745 15.1916 11.6658 15.2248L9.51464 16.1179L9.22917 17.6842H7.74873L7.91105 16.7836L7.0382 17.1455C6.99894 17.1618 6.95685 17.1702 6.91435 17.1701C6.87185 17.1701 6.82978 17.1616 6.79056 17.1452C6.75134 17.1288 6.71575 17.1049 6.68584 17.0747C6.65594 17.0445 6.6323 17.0087 6.6163 16.9693C6.58379 16.8899 6.58393 16.801 6.61669 16.7217C6.64946 16.6425 6.71219 16.5794 6.79125 16.5461L8.0481 16.0244L8.14284 15.4945L6.44577 16.1988C6.40655 16.2149 6.36452 16.2232 6.32209 16.2231C6.27965 16.223 6.23766 16.2146 6.19851 16.1982C6.15937 16.1818 6.12384 16.1579 6.09398 16.1277C6.06412 16.0976 6.04051 16.0618 6.0245 16.0225C5.99179 15.9431 5.99183 15.854 6.02461 15.7746C6.05739 15.6952 6.12024 15.632 6.19945 15.5987L8.27926 14.7354L9.7938 6.32201H14.0715C16.6907 6.2317 18 7.10644 18 8.94625C18 11.28 16.2935 13.085 13.3989 13.085H10.0673L9.88854 14.0678L10.8277 13.6781C10.8669 13.6619 10.909 13.6536 10.9514 13.6537C10.9938 13.6538 11.0358 13.6623 11.075 13.6787C11.1141 13.695 11.1496 13.719 11.1795 13.7491C11.2094 13.7793 11.233 13.815 11.249 13.8543C11.2815 13.9337 11.2813 14.0226 11.2486 14.1019C11.2158 14.1811 11.1531 14.2442 11.074 14.2775L9.74959 14.8276L9.65296 15.3581L11.4189 14.6248ZM11.0589 7.64771L10.3187 11.7057H13.6143C15.6429 11.7057 16.4122 10.3256 16.4122 9.32457C16.4122 8.32414 15.9284 7.64771 14.3141 7.64771H11.0589Z" fill="white"/>
</g>
<defs>
<clipPath id="clip0_1265_21120">
<rect width="24" height="24" fill="white"/>
</clipPath>
</defs>
</svg>