<svg viewBox="0 0 24 24" fill="none" xmlns="http://www.w3.org/2000/svg">
<path fill-rule="evenodd" clip-rule="evenodd" d="M3 4.84097C3 3.82426 3.8242 3.00006 4.84091 3.00006H7.90909C8.9258 3.00006 9.75 3.82426 9.75 4.84097V19.1592C9.75 20.1759 8.9258 21.0001 7.90909 21.0001H4.84091C3.8242 21.0001 3 20.1759 3 19.1592V4.84097ZM4.84091 4.63642C4.72794 4.63642 4.63636 4.728 4.63636 4.84097V19.1592C4.63636 19.2721 4.72794 19.3637 4.84091 19.3637H7.90909C8.02206 19.3637 8.11364 19.2721 8.11364 19.1592V4.84097C8.11364 4.728 8.02206 4.63642 7.90909 4.63642H4.84091Z" fill="currentColor"/>
<path fill-rule="evenodd" clip-rule="evenodd" d="M14 4.84097C14 3.82426 14.8242 3.00006 15.8409 3.00006H18.9091C19.9258 3.00006 20.75 3.82426 20.75 4.84097V19.1592C20.75 20.1759 19.9258 21.0001 18.9091 21.0001H15.8409C14.8242 21.0001 14 20.1759 14 19.1592V4.84097ZM15.8409 4.63642C15.7279 4.63642 15.6364 4.728 15.6364 4.84097V19.1592C15.6364 19.2721 15.7279 19.3637 15.8409 19.3637H18.9091C19.0221 19.3637 19.1136 19.2721 19.1136 19.1592V4.84097C19.1136 4.728 19.0221 4.63642 18.9091 4.63642H15.8409Z" fill="currentColor"/>
</svg>