<svg viewBox="0 0 24 24" fill="none" xmlns="http://www.w3.org/2000/svg">
<path fill-rule="evenodd" clip-rule="evenodd" d="M12 23C6.48583 23 2 18.5142 2 13C2 7.48583 6.48583 3 12 3C17.5142 3 22 7.48583 22 13C22 18.5142 17.5142 23 12 23ZM12 4.66667C7.405 4.66667 3.66667 8.405 3.66667 13C3.66667 17.595 7.405 21.3333 12 21.3333C16.595 21.3333 20.3333 17.595 20.3333 13C20.3333 8.405 16.595 4.66667 12 4.66667ZM14.5 17.1667H13.6667C13.2058 17.1667 12.8333 16.7933 12.8333 16.3333V9.66667C12.8333 9.20667 13.2058 8.83333 13.6667 8.83333H14.5C14.9608 8.83333 15.3333 9.20667 15.3333 9.66667V16.3333C15.3333 16.7933 14.9608 17.1667 14.5 17.1667ZM10.3333 17.1667H9.5C9.03917 17.1667 8.66667 16.7933 8.66667 16.3333V9.66667C8.66667 9.20667 9.03917 8.83333 9.5 8.83333H10.3333C10.7942 8.83333 11.1667 9.20667 11.1667 9.66667V16.3333C11.1667 16.7933 10.7942 17.1667 10.3333 17.1667Z" fill="currentColor"/>
</svg>