<svg viewBox="0 0 24 24" fill="none" xmlns="http://www.w3.org/2000/svg">
<g clip-path="url(#clip0_1265_21116)">
<path d="M12 24C18.6274 24 24 18.6274 24 12C24 5.37258 18.6274 0 12 0C5.37258 0 0 5.37258 0 12C0 18.6274 5.37258 24 12 24Z" fill="#EDE708"/>
<path d="M17.5872 10.5073L17.8634 10.9216C18.4157 9.5297 18.2887 8.4416 17.7916 7.96659C16.8968 7.10494 15.5822 7.58548 14.1572 6.98895C12.9697 6.11626 12.2516 5.88428 11.2629 5.88428C10.5876 6.00045 9.96249 6.3159 9.46785 6.79011C9.06904 6.76679 8.66991 6.83026 8.29801 6.97616C7.92612 7.12206 7.5903 7.34691 7.31373 7.63519C6.72826 8.32561 6.5957 10.2201 6.50732 10.7007C6.41895 11.1812 5.40265 13.1199 5.50759 14.1804C5.61254 15.2409 6.39133 16.3897 8.59516 16.6604C9.00374 17.1349 9.51359 17.5118 10.0871 17.7632C10.6607 18.0146 11.2833 18.1341 11.9092 18.113C13.0636 17.9915 14.6709 16.224 15.6043 15.5226C16.5378 14.8211 19.8628 14.2135 17.8799 10.9492C17.7949 10.8065 17.7028 10.6683 17.6038 10.535L17.5872 10.5073ZM12.5444 15.3679C11.7047 15.5308 10.8346 15.396 10.0836 14.9867C9.33261 14.5774 8.7477 13.9193 8.42945 13.1254C8.30794 12.6504 8.07044 10.2312 10.0865 9.0326C11.5888 8.182 13.7043 8.06601 14.5935 10.0489C15.4828 12.0318 15.1569 14.81 12.5444 15.3679Z" fill="white"/>
</g>
<defs>
<clipPath id="clip0_1265_21116">
<rect width="24" height="24" fill="white"/>
</clipPath>
</defs>
</svg>