<svg viewBox="0 0 24 24" fill="none" xmlns="http://www.w3.org/2000/svg">
<path fill-rule="evenodd" clip-rule="evenodd" d="M7.55867 4.9752C7.94117 4.53958 8.28975 4.16779 8.62276 3.85647C2.99434 3.67393 4.63272 7.77147 2.79865 11.9356C0.686606 16.7314 3.04716 18.559 6.56464 19.1285C6.07707 18.5489 5.67902 17.886 5.37602 17.1704C3.09553 14.2789 4.0134 9.01115 7.55867 4.9752Z" fill="#B3D234"/>
<path fill-rule="evenodd" clip-rule="evenodd" d="M21.1019 10.0828C20.5782 11.5682 19.617 13.2351 18.2583 14.8757C17.1992 16.154 16.0217 17.1608 14.8064 17.8898C13.4015 18.8064 11.6586 19.3473 9.71 19.3473C8.61924 19.3473 7.54681 19.2863 6.56445 19.1273C7.14486 19.8165 7.85036 20.3888 8.67094 20.788C13.7595 23.2662 14.0809 18.6625 19.4647 16.3265C22.4879 15.0146 22.499 12.4501 21.1019 10.0828Z" fill="#0095D9"/>
<path fill-rule="evenodd" clip-rule="evenodd" d="M14.8047 5.29195C15.5552 5.42969 16.2674 5.6783 16.9051 6.04113C18.614 7.01484 20.1707 8.50481 21.1019 10.0827C22.0187 7.48238 21.5917 5.43809 19.5858 5.06798C17.3815 4.66203 15.6581 4.53157 14.0019 3.36692C11.9621 1.93239 10.1742 2.40553 8.62256 3.85574C8.73208 3.8591 8.84383 3.86414 8.95891 3.87086C11.1115 3.99852 13.1658 4.42071 14.8047 5.29195Z" fill="#EEE809"/>
<path fill-rule="evenodd" clip-rule="evenodd" d="M7.55864 4.97518C4.01336 9.01113 3.0955 14.2789 5.37599 17.1704C4.35194 14.7498 4.4231 11.7307 5.86634 9.32021C7.78769 6.11071 11.6415 4.71145 14.8049 5.29322C13.1659 4.42141 11.1117 3.99979 8.95963 3.87156C8.84399 3.86484 8.73225 3.86036 8.62273 3.85645C8.28971 4.16776 7.94113 4.53956 7.55864 4.97518Z" fill="#51B849"/>
<path fill-rule="evenodd" clip-rule="evenodd" d="M16.9051 6.04142C16.2674 5.67803 15.5552 5.42998 14.8047 5.29224C16.9629 6.43953 18.3989 8.36735 18.3828 11.438C18.3683 14.1021 17.0018 16.4566 14.8064 17.89C16.0217 17.161 17.1997 16.1543 18.2582 14.8759C19.6175 13.2354 20.5782 11.5685 21.1019 10.083C20.1707 8.50509 18.614 7.01457 16.9051 6.04142Z" fill="#00845D"/>
<path fill-rule="evenodd" clip-rule="evenodd" d="M14.4497 16.4301C12.0129 18.0069 8.76398 17.3036 7.19232 14.859C5.62066 12.4143 6.39787 9.26643 8.75787 7.57657C11.397 5.68738 14.7816 6.43264 16.0152 9.14773C17.2183 11.7951 16.8858 14.8534 14.4497 16.4301ZM14.8049 5.29207C11.6416 4.71087 7.78774 6.10957 5.86639 9.31906C4.42315 11.7295 4.35143 14.7492 5.37604 17.1692C5.67903 17.8848 6.07653 18.5483 6.56466 19.1279C7.54701 19.2869 8.61944 19.3473 9.70965 19.3473C11.6588 19.3473 13.4017 18.8065 14.806 17.8899C17.002 16.457 18.3685 14.102 18.3824 11.4378C18.3991 8.36719 16.9625 6.43936 14.8049 5.29207Z" fill="#005121"/>
</svg>