<svg width="24" height="24" viewBox="0 0 24 24" fill="none" xmlns="http://www.w3.org/2000/svg">
<g clip-path="url(#clip0_1265_21112)">
<path d="M12 24C18.6274 24 24 18.6274 24 12C24 5.37258 18.6274 0 12 0C5.37258 0 0 5.37258 0 12C0 18.6274 5.37258 24 12 24Z" fill="#302C2C"/>
<path d="M18.4468 11.8203C18.4144 11.7547 18.3715 11.6948 18.3198 11.6431C17.1959 10.3703 14.9086 7.86377 14.9086 7.86377L12.0032 11.0415L9.0606 7.8939C9.0606 7.8939 6.7467 10.4223 5.61279 11.7087C5.46507 11.854 5.46507 12.1164 5.59743 12.2712C6.18654 12.9424 9.0801 16.1332 9.0801 16.1332L11.9991 12.9342L14.898 16.1362L18.3942 12.2682C18.3942 12.2682 18.4681 12.1914 18.484 12.14C18.5183 12.0336 18.4935 11.9178 18.4468 11.8203ZM7.22472 12.1743C7.13018 12.0626 7.16209 11.8871 7.25013 11.7813C7.62003 11.36 9.10019 9.77233 9.10019 9.77233L11.1624 11.9616L9.09665 14.2211C9.09665 14.2211 7.83215 12.8715 7.22472 12.1743ZM16.6718 12.2487C16.6282 12.3234 16.5776 12.3936 16.5205 12.4585L14.9192 14.1986L12.8511 12L14.8861 9.76937C14.8861 9.76937 16.0584 10.9836 16.5956 11.6366C16.6411 11.6933 16.6948 11.7471 16.7179 11.8192C16.7669 11.9604 16.7356 12.1175 16.6712 12.2481" fill="white"/>
</g>
<defs>
<clipPath id="clip0_1265_21112">
<rect width="24" height="24" fill="white"/>
</clipPath>
</defs>
</svg>
