<svg width="24" height="24" viewBox="0 0 24 24" fill="none" xmlns="http://www.w3.org/2000/svg">
<g clip-path="url(#clip0_1265_21106)">
<path d="M12 24C18.6274 24 24 18.6274 24 12C24 5.37258 18.6274 0 12 0C5.37258 0 0 5.37258 0 12C0 18.6274 5.37258 24 12 24Z" fill="#663300"/>
<path d="M9.44775 8.54363L10.2054 6.68701L15.3953 6.7058C16.1529 6.76278 17.0622 6.76278 17.5737 7.40711C18.1799 8.10782 18.0471 9.11159 17.7441 9.90686C17.452 10.7627 16.9449 11.5292 16.2716 12.1329C15.5983 12.7366 14.7812 13.1573 13.8987 13.3546C12.6488 13.5443 11.3795 13.4874 10.1103 13.4874C10.363 12.8709 10.6158 12.252 10.868 11.6307C11.9099 11.6307 12.9707 11.6877 14.0314 11.5174C14.9976 11.2713 15.888 10.3051 15.7365 9.24434C15.6413 8.78973 15.1304 8.58122 14.6939 8.58122C12.9519 8.50545 11.2086 8.58122 9.46654 8.54303H9.44775V8.54363Z" fill="white"/>
<path d="M7.21229 9.05469H13.3683L12.5542 11.1574H6.37823L7.21229 9.07348V9.05529V9.05469ZM8.19728 11.6308H10.3376L8.10332 17.3134H6L8.21607 11.6308H8.19728Z" fill="white"/>
</g>
<defs>
<clipPath id="clip0_1265_21106">
<rect width="24" height="24" fill="white"/>
</clipPath>
</defs>
</svg>
