<svg viewBox="0 0 24 24" fill="none" xmlns="http://www.w3.org/2000/svg">
<path fill-rule="evenodd" clip-rule="evenodd" d="M19.1667 6.33333H17.5C16.9833 6.33333 16.6667 6.6025 16.6667 6.75C16.6667 6.8975 16.9833 7.16667 17.5 7.16667C18.9017 7.16667 20 8.08167 20 9.25C20 10.1792 19.3 10.94 18.31 11.2158C18.3158 11.2558 18.3333 11.2917 18.3333 11.3333V12.1667C18.3333 12.6267 17.96 13 17.5 13C17.04 13 16.6667 12.6267 16.6667 12.1667V11.3333H15.8333C15.3733 11.3333 15 10.96 15 10.5C15 10.04 15.3733 9.66667 15.8333 9.66667H17.5C18.0167 9.66667 18.3333 9.39667 18.3333 9.25C18.3333 9.1025 18.0167 8.83333 17.5 8.83333C16.0983 8.83333 15 7.91833 15 6.75C15 5.82083 15.7 5.06 16.69 4.78417C16.6842 4.74417 16.6667 4.70833 16.6667 4.66667V3.83333C16.6667 3.37333 17.04 3 17.5 3C17.96 3 18.3333 3.37333 18.3333 3.83333V4.66667H19.1667C19.6267 4.66667 20 5.04 20 5.5C20 5.96 19.6267 6.33333 19.1667 6.33333ZM12.5 18H11.5392L10.8217 22.3033C10.8158 22.3417 10.7958 22.3725 10.785 22.4075C10.7717 22.4508 10.76 22.4925 10.74 22.5325C10.7125 22.5875 10.6775 22.635 10.6392 22.6825C10.6133 22.7142 10.5908 22.7475 10.5608 22.775C10.5125 22.82 10.4567 22.8525 10.3992 22.8842C10.3675 22.9017 10.34 22.925 10.3058 22.9383C10.21 22.9767 10.1083 23 10.0008 23C10.0008 23 10.0008 23 10 23H8.33333C7.92583 23 7.57833 22.705 7.51167 22.3033L6.79417 18H5.83333C5.37333 18 5 17.6267 5 17.1667V15.375C5 15.3675 5.00417 15.3617 5.00417 15.3542C5.00417 15.3467 5 15.3408 5 15.3333C5 12.4442 6.67167 10.5033 9.16083 10.5008C7.785 10.4983 6.66667 9.3775 6.66667 8C6.66667 6.62083 7.7875 5.49917 9.16583 5.49917C10.545 5.49917 11.6667 6.62083 11.6667 8C11.6667 9.3775 10.5475 10.4983 9.17 10.5008C11.66 10.5033 13.3333 12.4442 13.3333 15.3333C13.3333 15.3408 13.3292 15.3467 13.3292 15.3542C13.3292 15.3617 13.3333 15.3675 13.3333 15.375V17.1667C13.3333 17.6267 12.96 18 12.5 18ZM10 8C10 7.54 9.62583 7.16583 9.16583 7.16583C8.70667 7.16583 8.33333 7.54 8.33333 8C8.33333 8.46 8.70667 8.83417 9.16583 8.83417C9.62583 8.83417 10 8.46 10 8ZM11.6668 15.3333C11.6668 14.59 11.4868 12.1667 9.16593 12.1667C6.84676 12.1667 6.66676 14.59 6.66676 15.3333C6.66676 15.3408 6.6626 15.3467 6.6626 15.3542C6.6626 15.3617 6.66676 15.3675 6.66676 15.375V16.3333H7.5001C7.53343 16.3333 7.56093 16.3483 7.59343 16.3525C7.6526 16.3592 7.70843 16.3675 7.76343 16.3867C7.81093 16.4025 7.8526 16.4233 7.89593 16.4475C7.94593 16.475 7.9926 16.5042 8.03593 16.5417C8.07426 16.575 8.10593 16.6108 8.13843 16.65C8.1726 16.6925 8.20343 16.735 8.22926 16.7842C8.2551 16.8333 8.27176 16.8842 8.2876 16.9383C8.29676 16.97 8.31676 16.9958 8.32176 17.03L9.03926 21.3333H9.29426L10.0118 17.03C10.0168 16.9958 10.0368 16.97 10.0459 16.9383C10.0618 16.8842 10.0793 16.8333 10.1051 16.7842C10.1301 16.7358 10.1601 16.6942 10.1943 16.6525C10.2268 16.6108 10.2601 16.5742 10.3001 16.54C10.3409 16.505 10.3843 16.4775 10.4318 16.4508C10.4784 16.425 10.5243 16.4025 10.5751 16.3858C10.6268 16.3683 10.6793 16.36 10.7343 16.3533C10.7684 16.3492 10.7984 16.3333 10.8334 16.3333H11.6668V15.375C11.6668 15.3675 11.6709 15.3617 11.6709 15.3542C11.6709 15.3467 11.6668 15.3408 11.6668 15.3333Z" fill="currentColor"/>
</svg>