<svg width="24" height="24" viewBox="0 0 24 24" fill="none" xmlns="http://www.w3.org/2000/svg">
<path fill-rule="evenodd" clip-rule="evenodd" d="M16.5 8.83333C16.04 8.83333 15.6667 8.46 15.6667 8C15.6667 7.54 16.04 7.16667 16.5 7.16667C17.6058 7.16667 18.1667 6.76583 18.1667 5.97583C18.1667 5.25417 17.5792 4.66667 16.8575 4.66667C16.12 4.66667 15.6667 5.15167 15.6667 5.5C15.6667 5.96 15.2933 6.33333 14.8333 6.33333C14.3733 6.33333 14 5.96 14 5.5C14 4.12167 15.2817 3 16.8575 3C18.4983 3 19.8333 4.335 19.8333 5.97583C19.8333 7.71167 18.525 8.83333 16.5 8.83333ZM11.5 18H10.5392L9.82167 22.3033C9.81583 22.3408 9.79583 22.3717 9.785 22.4067C9.77167 22.4508 9.76 22.4925 9.74 22.5325C9.7125 22.5883 9.6775 22.635 9.63917 22.6817C9.61333 22.7142 9.59083 22.7475 9.56083 22.775C9.5125 22.82 9.45667 22.8525 9.39833 22.8842C9.3675 22.9017 9.34 22.925 9.30583 22.9383C9.21 22.9767 9.10833 23 9.00083 23H9H7.33333C6.92583 23 6.57833 22.705 6.51167 22.3033L5.79417 18H4.83333C4.37333 18 4 17.6267 4 17.1667V15.375C4 15.3675 4.00417 15.3617 4.00417 15.3542C4.00417 15.3467 4 15.3408 4 15.3333C4 12.4442 5.67167 10.5033 8.16083 10.5008C6.785 10.4983 5.66667 9.3775 5.66667 8C5.66667 6.62083 6.7875 5.49917 8.16583 5.49917C9.545 5.49917 10.6667 6.62083 10.6667 8C10.6667 9.3775 9.5475 10.4983 8.17083 10.5008C10.6608 10.5033 12.3333 12.4442 12.3333 15.3333C12.3333 15.3408 12.3292 15.3467 12.3292 15.3542C12.3292 15.3617 12.3333 15.3675 12.3333 15.375V17.1667C12.3333 17.6267 11.96 18 11.5 18ZM9 8C9 7.54 8.62583 7.16583 8.16583 7.16583C7.70667 7.16583 7.33333 7.54 7.33333 8C7.33333 8.46 7.70667 8.83417 8.16583 8.83417C8.62583 8.83417 9 8.46 9 8ZM10.6668 15.3333C10.6668 14.59 10.4868 12.1667 8.16593 12.1667C5.84676 12.1667 5.66676 14.59 5.66676 15.3333C5.66676 15.3408 5.6626 15.3467 5.6626 15.3542C5.6626 15.3617 5.66676 15.3675 5.66676 15.375V16.3333H6.5001C6.53343 16.3333 6.56093 16.3483 6.59343 16.3525C6.65176 16.3592 6.7076 16.3675 6.7626 16.3867C6.81093 16.4025 6.85343 16.4233 6.89676 16.4475C6.94676 16.475 6.99176 16.5042 7.0351 16.5408C7.07426 16.5742 7.10676 16.6108 7.13843 16.6508C7.1726 16.6933 7.20343 16.735 7.22843 16.7842C7.25426 16.8333 7.27176 16.8842 7.2876 16.9383C7.29676 16.97 7.31676 16.9958 7.32176 17.03L8.03926 21.3333H8.29426L9.01176 17.03C9.01676 16.9967 9.03676 16.9708 9.04593 16.9392C9.06176 16.8842 9.07926 16.8325 9.10593 16.7825C9.1301 16.7358 9.15926 16.695 9.19176 16.655C9.22593 16.6117 9.26093 16.5733 9.3026 16.5383C9.3426 16.5042 9.38426 16.4783 9.42926 16.4525C9.47676 16.4258 9.52426 16.4025 9.5776 16.385C9.62843 16.3683 9.6801 16.36 9.73426 16.3533C9.76843 16.3492 9.79843 16.3333 9.83343 16.3333H10.6668V15.375C10.6668 15.3675 10.6709 15.3617 10.6709 15.3542C10.6709 15.3467 10.6668 15.3408 10.6668 15.3333ZM17.0917 9.90833C17.2417 10.0667 17.3333 10.2833 17.3333 10.5C17.3333 10.7167 17.2417 10.9333 17.0917 11.0917C16.9333 11.2417 16.7167 11.3333 16.5 11.3333C16.2833 11.3333 16.0667 11.2417 15.9083 11.0917C15.7583 10.9333 15.6667 10.7167 15.6667 10.5C15.6667 10.2833 15.7583 10.0667 15.9083 9.90833C16.225 9.6 16.775 9.6 17.0917 9.90833Z" fill="#6B7084"/>
</svg>
