<svg viewBox="0 0 24 24" fill="none" xmlns="http://www.w3.org/2000/svg">
<path fill-rule="evenodd" clip-rule="evenodd" d="M20.3334 9.5H16.5117L14.2559 11.7558C14.0967 11.915 13.8834 12 13.6667 12C13.5592 12 13.4509 11.9792 13.3475 11.9367C13.0367 11.8075 12.8334 11.5033 12.8334 11.1667V9.5H11.9992C11.5392 9.5 11.1659 9.12667 11.1659 8.66667V2.83333C11.1659 2.37333 11.5392 2 11.9992 2H20.3334C20.7934 2 21.1667 2.37333 21.1667 2.83333V8.66667C21.1667 9.12667 20.7934 9.5 20.3334 9.5ZM19.5 3.66667H12.8325V7.83333H13.6667C14.1267 7.83333 14.5 8.20667 14.5 8.66667V9.155L15.5767 8.07833C15.6534 8.00167 15.7459 7.94 15.8484 7.8975C15.95 7.85583 16.0575 7.83417 16.165 7.83417C16.1659 7.83417 16.1659 7.83333 16.1667 7.83333H19.5V3.66667ZM9.5 17H8.53917L7.82167 21.3042C7.81583 21.3417 7.79583 21.3725 7.78417 21.4083C7.77083 21.4508 7.76 21.4925 7.74 21.5325C7.7125 21.5875 7.67667 21.635 7.63833 21.6825C7.6125 21.7142 7.59083 21.7475 7.56083 21.775C7.5125 21.82 7.45667 21.8525 7.39917 21.8842C7.3675 21.9025 7.34 21.925 7.30583 21.9383C7.21 21.9767 7.10833 22 7.00083 22C7.00083 22 7.00083 22 7 22H5.33333C4.92583 22 4.57833 21.7058 4.51167 21.3042L3.79417 17H2.83333C2.37333 17 2 16.6267 2 16.1667V14.375C2 14.3675 2.00417 14.3608 2.00417 14.3542C2.00417 14.3467 2 14.34 2 14.3333C2 11.4442 3.67167 9.5025 6.16083 9.5C4.785 9.4975 3.66667 8.3775 3.66667 7C3.66667 5.62083 4.7875 4.49917 6.16583 4.49917C7.545 4.49917 8.66667 5.62083 8.66667 7C8.66667 8.3775 7.5475 9.4975 6.17 9.5C8.66 9.5025 10.3333 11.4442 10.3333 14.3333C10.3333 14.34 10.3292 14.3467 10.3292 14.3542C10.3292 14.3608 10.3333 14.3675 10.3333 14.375V16.1667C10.3333 16.6267 9.96 17 9.5 17ZM7 7C7 6.54 6.62583 6.16583 6.16583 6.16583C5.70667 6.16583 5.33333 6.54 5.33333 7C5.33333 7.46 5.70667 7.83417 6.16583 7.83417C6.62583 7.83417 7 7.46 7 7ZM8.66666 14.3333C8.66666 13.59 8.48666 11.1667 6.16583 11.1667C3.84666 11.1667 3.66666 13.59 3.66666 14.3333C3.66666 14.34 3.6625 14.3467 3.6625 14.3542C3.6625 14.3608 3.66666 14.3675 3.66666 14.375V15.3333H4.5C4.53333 15.3333 4.5625 15.3483 4.595 15.3525C4.6525 15.3592 4.7075 15.3675 4.76166 15.3858C4.81 15.4025 4.85333 15.4233 4.8975 15.4483C4.94666 15.4758 4.9925 15.5042 5.035 15.5408C5.07416 15.5742 5.10666 15.6108 5.13833 15.6508C5.1725 15.6933 5.20333 15.735 5.22833 15.7842C5.25416 15.8333 5.27166 15.8842 5.2875 15.9383C5.29666 15.97 5.31666 15.9958 5.32166 16.0292L6.03916 20.3333H6.29416L7.01166 16.0292C7.01666 15.9958 7.03666 15.97 7.04583 15.9383C7.06166 15.8842 7.07916 15.8333 7.105 15.7842C7.13 15.735 7.16 15.6933 7.19416 15.6517C7.22666 15.6108 7.26 15.5742 7.29916 15.54C7.34166 15.5042 7.38666 15.4758 7.435 15.4483C7.48 15.4233 7.52333 15.4025 7.57166 15.3858C7.62666 15.3675 7.68083 15.3592 7.73916 15.3525C7.77166 15.3483 7.8 15.3333 7.83333 15.3333H8.66666V14.375C8.66666 14.3675 8.67083 14.3608 8.67083 14.3542C8.67083 14.3467 8.66666 14.34 8.66666 14.3333Z" fill="currentColor"/>
</svg>