<svg viewBox="0 0 24 24" fill="none" xmlns="http://www.w3.org/2000/svg">
<path fill-rule="evenodd" clip-rule="evenodd" d="M16.3333 15.5C16.3333 15.96 15.96 16.3333 15.5 16.3333H14.5708L13.8408 22.2683C13.79 22.6858 13.4342 23 13.0142 23H11.3592C10.94 23 10.5867 22.6883 10.5333 22.2733L9.7675 16.3333H8.83333C8.37333 16.3333 8 15.96 8 15.5V12.2008C8 12.195 8.00333 12.19 8.00333 12.1833C8.00333 12.1775 8 12.1725 8 12.1667C8 9.86917 9.86917 8 12.1667 8C14.4642 8 16.3333 9.86917 16.3333 12.1667C16.3333 12.1725 16.33 12.1775 16.33 12.1833C16.33 12.19 16.3333 12.195 16.3333 12.2008V15.5ZM12.1666 9.66667C10.7883 9.66667 9.66664 10.7883 9.66664 12.1667C9.66664 12.1725 9.66331 12.1775 9.66331 12.1833C9.66331 12.19 9.66664 12.195 9.66664 12.2008V14.6667H10.5C10.535 14.6667 10.565 14.6825 10.5991 14.6867C10.6608 14.6942 10.72 14.7017 10.7775 14.7225C10.8233 14.7392 10.8633 14.7625 10.905 14.7867C10.955 14.815 11.0025 14.8425 11.045 14.8808C11.085 14.9158 11.1158 14.9558 11.1475 14.9975C11.1808 15.04 11.2116 15.0808 11.2366 15.1292C11.2616 15.1792 11.2758 15.2325 11.2908 15.2875C11.3 15.3242 11.3216 15.355 11.3266 15.3933L12.0925 21.3333H12.2766L13.0058 15.3983C13.0108 15.3592 13.0325 15.3283 13.0425 15.2917C13.0575 15.235 13.0708 15.18 13.0966 15.1292C13.1183 15.0867 13.1466 15.0508 13.175 15.0125C13.2125 14.9633 13.2491 14.9167 13.2958 14.8758C13.3275 14.8492 13.3625 14.8292 13.3975 14.8067C13.4525 14.7725 13.5066 14.7408 13.5691 14.72C13.6141 14.7042 13.66 14.7 13.7075 14.6917C13.75 14.685 13.7891 14.6667 13.8333 14.6667H14.6666V12.2008C14.6666 12.195 14.67 12.19 14.67 12.1833C14.67 12.1775 14.6666 12.1725 14.6666 12.1667C14.6666 10.7883 13.545 9.66667 12.1666 9.66667ZM9.66667 5.5C9.66667 4.12167 10.7883 3 12.1667 3C13.545 3 14.6667 4.12167 14.6667 5.5C14.6667 6.87833 13.545 8 12.1667 8C10.7883 8 9.66667 6.87833 9.66667 5.5ZM12.1667 6.33333C12.6258 6.33333 13 5.95917 13 5.5C13 5.04083 12.6258 4.66667 12.1667 4.66667C11.7075 4.66667 11.3333 5.04083 11.3333 5.5C11.3333 5.95917 11.7075 6.33333 12.1667 6.33333Z" fill="currentColor"/>
</svg>