<svg width="24" height="24" viewBox="0 0 24 24" fill="none" xmlns="http://www.w3.org/2000/svg">
<path fill-rule="evenodd" clip-rule="evenodd" d="M21.1667 8.66667H20.2417C19.9083 10.2958 18.6292 11.5833 17 11.9158V12.8333C17 13.2933 16.6267 13.6667 16.1667 13.6667C15.7067 13.6667 15.3333 13.2933 15.3333 12.8333V11.9158C13.7042 11.5833 12.425 10.2958 12.0917 8.66667H11.1667C10.7067 8.66667 10.3333 8.29333 10.3333 7.83333C10.3333 7.37333 10.7067 7 11.1667 7H12.0917C12.4242 5.37167 13.7042 4.08333 15.3333 3.75083V2.83333C15.3333 2.37333 15.7067 2 16.1667 2C16.6267 2 17 2.37333 17 2.83333V3.75083C18.6292 4.08333 19.9092 5.37167 20.2417 7H21.1667C21.6267 7 22 7.37333 22 7.83333C22 8.29333 21.6267 8.66667 21.1667 8.66667ZM16.9709 5.4775C16.9001 5.86667 16.5759 6.16667 16.1667 6.16667C15.7576 6.16667 15.4334 5.86667 15.3626 5.4775C14.6334 5.7275 14.0542 6.30083 13.8034 7.0275C14.1959 7.095 14.5001 7.42167 14.5001 7.83333C14.5001 8.245 14.1959 8.57167 13.8034 8.63917C14.0542 9.36583 14.6334 9.93917 15.3626 10.1892C15.4334 9.8 15.7576 9.5 16.1667 9.5C16.5759 9.5 16.9001 9.8 16.9709 10.1892C17.7001 9.93917 18.2792 9.36583 18.5301 8.63917C18.1376 8.57167 17.8334 8.245 17.8334 7.83333C17.8334 7.42167 18.1376 7.095 18.5301 7.0275C18.2792 6.30083 17.7001 5.7275 16.9709 5.4775ZM10.3333 14.3342C10.3333 14.3417 10.3292 14.3475 10.3292 14.3542C10.3292 14.3617 10.3333 14.3675 10.3333 14.375V16.1667C10.3333 16.6267 9.96 17 9.5 17H8.53917L7.82167 21.3033C7.81583 21.3408 7.79583 21.3717 7.785 21.4067C7.77167 21.4508 7.76 21.4925 7.74 21.5325C7.7125 21.5883 7.6775 21.635 7.63917 21.6817C7.61333 21.7142 7.59083 21.7475 7.56083 21.775C7.5125 21.82 7.45667 21.8525 7.39833 21.8842C7.3675 21.9017 7.34 21.925 7.30583 21.9383C7.21 21.9767 7.10833 22 7.00083 22H7H5.33333C4.92583 22 4.57833 21.705 4.51167 21.3033L3.79417 17H2.83333C2.37333 17 2 16.6267 2 16.1667V14.375C2 14.3675 2.00417 14.3617 2.00417 14.3542C2.00417 14.3475 2 14.3417 2 14.3342C2 11.4458 3.67083 9.50417 6.15917 9.50083C4.78417 9.49667 3.66667 8.3775 3.66667 7C3.66667 5.62167 4.7875 4.5 6.16583 4.5C7.545 4.5 8.66667 5.62167 8.66667 7C8.66667 8.3775 7.54833 9.49667 6.1725 9.50083C8.66167 9.50417 10.3333 11.4458 10.3333 14.3342ZM7 7C7 6.54083 6.62583 6.16667 6.16583 6.16667C5.70667 6.16667 5.33333 6.54083 5.33333 7C5.33333 7.46 5.70667 7.835 6.16583 7.835C6.62583 7.835 7 7.46 7 7ZM8.66676 14.3342C8.66676 13.5908 8.48676 11.1667 6.16593 11.1667C3.84676 11.1667 3.66676 13.5908 3.66676 14.3342C3.66676 14.3417 3.6626 14.3475 3.6626 14.3542C3.6626 14.3617 3.66676 14.3675 3.66676 14.375V15.3333H4.5001C4.53343 15.3333 4.56093 15.3483 4.59343 15.3525C4.65176 15.3592 4.70676 15.3675 4.76176 15.3867C4.8101 15.4025 4.85343 15.4242 4.8976 15.4483C4.94676 15.4758 4.99176 15.5042 5.03426 15.54C5.07343 15.5742 5.10676 15.6108 5.13926 15.6517C5.17343 15.6933 5.20343 15.7358 5.22843 15.7842C5.25426 15.8333 5.27176 15.8842 5.2876 15.9383C5.29676 15.97 5.31676 15.9958 5.32176 16.03L6.03926 20.3333H6.29426L7.01176 16.03C7.01676 15.9958 7.03676 15.97 7.04593 15.9383C7.06176 15.8842 7.07926 15.8333 7.1051 15.7842C7.1301 15.7358 7.1601 15.6942 7.19343 15.6525C7.22676 15.6117 7.2601 15.5742 7.3001 15.54C7.34093 15.505 7.38426 15.4775 7.43176 15.4508C7.47843 15.425 7.52426 15.4025 7.5751 15.3858C7.62676 15.3683 7.67926 15.36 7.7351 15.3533C7.76843 15.3492 7.79843 15.3333 7.83343 15.3333H8.66676V14.375C8.66676 14.3675 8.67093 14.3617 8.67093 14.3542C8.67093 14.3475 8.66676 14.3417 8.66676 14.3342Z" fill="#6B7084"/>
</svg>
