<svg viewBox="0 0 24 24" fill="none" xmlns="http://www.w3.org/2000/svg">
<path fill-rule="evenodd" clip-rule="evenodd" d="M16.1675 12C13.41 12 11.1667 9.7575 11.1667 7C11.1667 4.2425 13.41 2 16.1675 2C18.9242 2 21.1667 4.2425 21.1667 7C21.1667 9.7575 18.9242 12 16.1675 12ZM16.1675 3.66667C14.3292 3.66667 12.8333 5.16167 12.8333 7C12.8333 8.83833 14.3292 10.3333 16.1675 10.3333C18.005 10.3333 19.5 8.83833 19.5 7C19.5 5.16167 18.005 3.66667 16.1675 3.66667ZM15.3333 7V6.16667V4.5H17V6.16667H18.6667V7.83333H15.3333V7ZM9.5 17H8.53917L7.82167 21.3033C7.81583 21.3408 7.79583 21.3717 7.785 21.4067C7.77167 21.4508 7.76 21.4925 7.74 21.5325C7.7125 21.5883 7.6775 21.635 7.63917 21.6817C7.61333 21.7142 7.59083 21.7475 7.56083 21.775C7.5125 21.82 7.45667 21.8525 7.39833 21.8842C7.3675 21.9017 7.34 21.925 7.30583 21.9383C7.21 21.9767 7.10833 22 7.00083 22H7H5.33333C4.92583 22 4.57833 21.705 4.51167 21.3033L3.79417 17H2.83333C2.37333 17 2 16.6267 2 16.1667V14.375C2 14.3675 2.00417 14.3617 2.00417 14.3542C2.00417 14.3467 2 14.3408 2 14.3333C2 11.4442 3.67167 9.50333 6.16083 9.50083C4.785 9.49833 3.66667 8.3775 3.66667 7C3.66667 5.62083 4.7875 4.49917 6.16583 4.49917C7.545 4.49917 8.66667 5.62083 8.66667 7C8.66667 8.3775 7.5475 9.49833 6.17083 9.50083C8.66083 9.50333 10.3333 11.4442 10.3333 14.3333C10.3333 14.3408 10.3292 14.3467 10.3292 14.3542C10.3292 14.3617 10.3333 14.3675 10.3333 14.375V16.1667C10.3333 16.6267 9.96 17 9.5 17ZM7 7C7 6.54 6.62583 6.16583 6.16583 6.16583C5.70667 6.16583 5.33333 6.54 5.33333 7C5.33333 7.46 5.70667 7.83417 6.16583 7.83417C6.62583 7.83417 7 7.46 7 7ZM8.66676 14.3333C8.66676 13.59 8.48676 11.1667 6.16593 11.1667C3.84676 11.1667 3.66676 13.59 3.66676 14.3333C3.66676 14.3408 3.6626 14.3467 3.6626 14.3542C3.6626 14.3617 3.66676 14.3675 3.66676 14.375V15.3333H4.5001C4.53343 15.3333 4.56093 15.3483 4.59343 15.3525C4.6526 15.3592 4.70926 15.3683 4.76426 15.3867C4.81093 15.4025 4.8526 15.4233 4.8951 15.4467C4.94593 15.4742 4.99343 15.5042 5.0376 15.5425C5.0751 15.575 5.10593 15.61 5.1376 15.6483C5.1726 15.6917 5.20343 15.735 5.22926 15.785C5.2551 15.8333 5.27176 15.8842 5.28676 15.9375C5.29676 15.9692 5.31676 15.9958 5.32176 16.03L6.03926 20.3333H6.29426L7.01176 16.03C7.01676 15.9967 7.03676 15.9708 7.04593 15.9392C7.06176 15.8842 7.07926 15.8325 7.10593 15.7833C7.1301 15.7358 7.15926 15.695 7.1926 15.6542C7.22676 15.6117 7.26093 15.5733 7.3026 15.5383C7.3426 15.505 7.38426 15.4783 7.4301 15.4525C7.4776 15.425 7.52426 15.4025 7.5776 15.385C7.62843 15.3683 7.6801 15.36 7.73426 15.3533C7.76843 15.3492 7.79843 15.3333 7.83343 15.3333H8.66676V14.375C8.66676 14.3675 8.67093 14.3617 8.67093 14.3542C8.67093 14.3467 8.66676 14.3408 8.66676 14.3333Z" fill="currentColor"/>
</svg>