<svg width="24" height="24" viewBox="0 0 24 24" fill="none" xmlns="http://www.w3.org/2000/svg">
<path fill-rule="evenodd" clip-rule="evenodd" d="M17.5221 16.635C17.3669 16.8642 17.1094 17 16.8335 17H14.2057L13.4886 21.3033C13.4215 21.705 13.0742 22 12.6666 22H11C10.5924 22 10.2443 21.705 10.1781 21.3033L9.46097 17H6.83321C6.55726 17 6.29977 16.8642 6.1446 16.6358C5.98944 16.4075 5.95673 16.1183 6.05821 15.8608L8.62139 9.35417C9.01895 7.965 10.3316 7 11.8329 7C13.3493 7 14.6662 7.97833 15.0562 9.38667L17.6085 15.8608C17.7099 16.1175 17.6772 16.4075 17.5221 16.635ZM13.4877 9.95333C13.4751 9.92167 13.4651 9.89 13.4567 9.85583C13.2755 9.15583 12.6087 8.66667 11.8329 8.66667C11.0671 8.66667 10.402 9.1475 10.2158 9.83583C10.2074 9.86667 10.1973 9.89583 10.1864 9.92417L8.05688 15.3333H10.1663C10.1999 15.3333 10.2275 15.3483 10.2594 15.3525C10.319 15.3592 10.3743 15.3675 10.4297 15.3867C10.4775 15.4025 10.5194 15.4233 10.5622 15.4475C10.6125 15.475 10.6586 15.5042 10.7023 15.5417C10.7408 15.5742 10.7727 15.6108 10.8046 15.65C10.839 15.6925 10.8692 15.735 10.8952 15.7842C10.9212 15.8333 10.9379 15.8842 10.9539 15.9383C10.9631 15.97 10.9832 15.9958 10.9883 16.03L11.7054 20.3333H11.9604L12.6775 16.03C12.6834 15.9967 12.7035 15.9708 12.7127 15.9392C12.7286 15.8842 12.7454 15.8325 12.7714 15.7833C12.7966 15.7358 12.8259 15.695 12.8595 15.6533C12.893 15.6117 12.9266 15.5733 12.9677 15.5392C13.0079 15.505 13.0507 15.4775 13.0969 15.4517C13.1438 15.425 13.1908 15.4025 13.2428 15.385C13.294 15.3683 13.346 15.36 13.4013 15.3533C13.4349 15.3492 13.4651 15.3333 13.4994 15.3333H15.6089L13.4877 9.95333ZM9.33354 4.5C9.33354 3.12167 10.4549 2 11.833 2C13.2119 2 14.3332 3.12167 14.3332 4.5C14.3332 5.87833 13.2119 7 11.833 7C10.4549 7 9.33354 5.87833 9.33354 4.5ZM11.8329 5.33333C12.2925 5.33333 12.6666 4.95917 12.6666 4.5C12.6666 4.04083 12.2925 3.66667 11.8329 3.66667C11.3741 3.66667 11 4.04083 11 4.5C11 4.95917 11.3741 5.33333 11.8329 5.33333Z" fill="#6B7084"/>
</svg>
