<svg width="24" height="24" viewBox="0 0 24 24" fill="none" xmlns="http://www.w3.org/2000/svg">
<path fill-rule="evenodd" clip-rule="evenodd" d="M22 14.0833C22 14.5433 21.6267 14.9167 21.1667 14.9167H20.215L19.49 19.6267C19.4275 20.0333 19.0783 20.3333 18.6667 20.3333H17C16.5892 20.3333 16.24 20.0342 16.1767 19.6283L15.7867 17.1283C15.715 16.6742 16.0258 16.2475 16.4808 16.1767C16.9308 16.1075 17.3625 16.4158 17.4325 16.8717L17.7133 18.6667H17.9517L18.6767 13.9567C18.6817 13.9225 18.7017 13.895 18.7117 13.8625C18.7267 13.8058 18.7433 13.7533 18.77 13.7025C18.7942 13.6567 18.8225 13.6175 18.855 13.5775C18.8892 13.5333 18.9242 13.4925 18.9675 13.4558C19.0058 13.4233 19.0467 13.3983 19.09 13.3733C19.1392 13.345 19.1867 13.32 19.24 13.3025C19.2917 13.285 19.3433 13.2775 19.3975 13.2708C19.4325 13.2658 19.4633 13.25 19.5 13.25H20.3333V11.7867C20.3333 11.78 20.3367 11.7742 20.3367 11.7675C20.3367 11.7617 20.3333 11.7558 20.3333 11.7492C20.3333 11.3042 20.2533 9.08333 18.6667 9.08333C18.2067 9.08333 17.8333 8.71 17.8333 8.25C17.8333 8.08917 17.8908 7.94667 17.97 7.81917C17.9242 7.8225 17.88 7.83333 17.8325 7.83333C16.4542 7.83333 15.3333 6.71167 15.3333 5.33333C15.3333 3.955 16.4542 2.83333 17.8325 2.83333C19.2117 2.83333 20.3333 3.955 20.3333 5.33333C20.3333 6.24083 19.8425 7.02917 19.1175 7.46667C20.8558 7.71417 22 9.36167 22 11.7492C22 11.7558 21.9967 11.7617 21.9958 11.7675C21.9967 11.7742 22 11.78 22 11.7867V14.0833ZM17.8325 4.5C17.3733 4.5 17 4.87417 17 5.33333C17 5.7925 17.3733 6.16667 17.8325 6.16667C18.2925 6.16667 18.6667 5.7925 18.6667 5.33333C18.6667 4.87417 18.2925 4.5 17.8325 4.5ZM16.1667 11.1667C16.1667 11.1725 16.1633 11.1775 16.1633 11.1842C16.1633 11.19 16.1667 11.195 16.1667 11.2008V14.5C16.1667 14.96 15.7933 15.3333 15.3333 15.3333H14.4025L13.66 21.27C13.6083 21.6867 13.2533 22 12.8333 22H11.1667C10.7467 22 10.3917 21.6867 10.34 21.27L9.5975 15.3333H8.66667C8.20667 15.3333 7.83333 14.96 7.83333 14.5V11.2008C7.83333 11.195 7.83667 11.19 7.83667 11.1842C7.83667 11.1775 7.83333 11.1725 7.83333 11.1667C7.83333 8.86917 9.7025 7 12 7C14.2975 7 16.1667 8.86917 16.1667 11.1667ZM14.5001 11.1667C14.5001 9.78833 13.3784 8.66667 12.0001 8.66667C10.6217 8.66667 9.50008 9.78833 9.50008 11.1667C9.50008 11.1725 9.49674 11.1775 9.49674 11.1842C9.49674 11.19 9.50008 11.195 9.50008 11.2008V13.6667H10.3334C10.3734 13.6667 10.4076 13.6842 10.4459 13.6892C10.5001 13.6975 10.5526 13.7033 10.6042 13.7217C10.6584 13.7408 10.7059 13.7683 10.7551 13.7975C10.7967 13.8233 10.8376 13.8458 10.8742 13.8783C10.9184 13.9167 10.9526 13.9608 10.9876 14.0075C11.0176 14.0467 11.0467 14.0842 11.0701 14.1283C11.0959 14.18 11.1101 14.235 11.1251 14.2917C11.1342 14.3283 11.1551 14.3583 11.1601 14.3967L11.9026 20.3333H12.0976L12.8401 14.3967C12.8451 14.3575 12.8659 14.3258 12.8759 14.2883C12.8909 14.2342 12.9042 14.1808 12.9284 14.1317C12.9534 14.0825 12.9851 14.0417 13.0176 13.9992C13.0501 13.9575 13.0801 13.9175 13.1201 13.8825C13.1609 13.8458 13.2059 13.82 13.2534 13.7925C13.2984 13.7658 13.3417 13.74 13.3917 13.7225C13.4442 13.7033 13.4992 13.6967 13.5551 13.6892C13.5934 13.6842 13.6276 13.6667 13.6667 13.6667H14.5001V11.2008C14.5001 11.195 14.5034 11.19 14.5034 11.1842C14.5034 11.1775 14.5001 11.1725 14.5001 11.1667ZM9.5 4.5C9.5 3.12167 10.6217 2 12 2C13.3783 2 14.5 3.12167 14.5 4.5C14.5 5.87833 13.3783 7 12 7C10.6217 7 9.5 5.87833 9.5 4.5ZM12 5.33333C12.4592 5.33333 12.8333 4.95917 12.8333 4.5C12.8333 4.04083 12.4592 3.66667 12 3.66667C11.5408 3.66667 11.1667 4.04083 11.1667 4.5C11.1667 4.95917 11.5408 5.33333 12 5.33333ZM6.1675 7.83333C6.12 7.83333 6.07583 7.8225 6.03 7.81917C6.10917 7.94667 6.16667 8.08917 6.16667 8.25C6.16667 8.71 5.79333 9.08333 5.33333 9.08333C3.74667 9.08333 3.66667 11.3042 3.66667 11.7492C3.66667 11.7558 3.66333 11.7617 3.6625 11.7675C3.66333 11.7742 3.66667 11.78 3.66667 11.7867V13.25H4.5C4.53583 13.25 4.56583 13.2658 4.6 13.27C4.655 13.2775 4.7075 13.285 4.76 13.3025C4.81333 13.32 4.86167 13.345 4.91 13.3733C4.9525 13.3983 4.99333 13.4225 5.03083 13.455C5.075 13.4925 5.11083 13.5333 5.14667 13.5792C5.1775 13.6183 5.20583 13.6567 5.22917 13.7017C5.25583 13.7525 5.2725 13.8058 5.28833 13.8625C5.29833 13.895 5.31833 13.9225 5.32333 13.9567L6.04833 18.6667H6.28667L6.5675 16.8717C6.63833 16.4158 7.0675 16.1067 7.51917 16.1767C7.97417 16.2475 8.285 16.6742 8.21417 17.1283L7.82333 19.6283C7.76 20.0342 7.41083 20.3333 7 20.3333H5.33333C4.92167 20.3333 4.5725 20.0333 4.51 19.6267L3.785 14.9167H2.83333C2.37333 14.9167 2 14.5433 2 14.0833V11.7867C2 11.78 2.00333 11.7742 2.00417 11.7675C2.00333 11.7617 2 11.7558 2 11.7492C2 9.36167 3.14417 7.71417 4.8825 7.46667C4.1575 7.02833 3.66667 6.24083 3.66667 5.33333C3.66667 3.955 4.78833 2.83333 6.1675 2.83333C7.54583 2.83333 8.66667 3.955 8.66667 5.33333C8.66667 6.71167 7.54583 7.83333 6.1675 7.83333ZM6.1675 4.5C5.7075 4.5 5.33333 4.87417 5.33333 5.33333C5.33333 5.7925 5.7075 6.16667 6.1675 6.16667C6.62667 6.16667 7 5.7925 7 5.33333C7 4.87417 6.62667 4.5 6.1675 4.5Z" fill="#6B7084"/>
</svg>
