<svg viewBox="0 0 24 24" fill="none" xmlns="http://www.w3.org/2000/svg">
<path fill-rule="evenodd" clip-rule="evenodd" d="M20.2558 5.25583L19.4231 6.08917C19.2599 6.25167 19.0465 6.33333 18.8331 6.33333C18.6206 6.33333 18.4072 6.25167 18.244 6.08917C17.9184 5.76417 17.9184 5.23667 18.244 4.91083L19.0775 4.0775C19.4031 3.75167 19.9303 3.75167 20.2558 4.0775C20.5814 4.4025 20.5814 4.93 20.2558 5.25583ZM16.3333 5.5C15.873 5.5 15.4998 5.12667 15.4998 4.66667V3.83333C15.4998 3.37333 15.873 3 16.3333 3C16.7936 3 17.1669 3.37333 17.1669 3.83333V4.66667C17.1669 5.12667 16.7936 5.5 16.3333 5.5ZM13.8335 6.33333C13.6201 6.33333 13.4067 6.25167 13.2444 6.08917L12.4108 5.25583C12.0853 4.93 12.0853 4.4025 12.4108 4.0775C12.7364 3.75167 13.2636 3.75167 13.5892 4.0775L14.4227 4.91083C14.7483 5.23667 14.7483 5.76417 14.4227 6.08917C14.2595 6.25167 14.0469 6.33333 13.8335 6.33333ZM10.5002 18H9.53946L8.82224 22.3042C8.81555 22.3417 8.79546 22.3725 8.78458 22.4083C8.77119 22.4508 8.75948 22.4925 8.74023 22.5325C8.71261 22.5875 8.67746 22.635 8.63897 22.6825C8.61302 22.7142 8.59126 22.7475 8.5603 22.775C8.5126 22.82 8.45652 22.8525 8.39878 22.8842C8.36698 22.9017 8.3402 22.925 8.30588 22.9383C8.21048 22.9767 8.10754 23 8.00042 23C8.00042 23 8.00042 23 7.99958 23H6.33333C5.92577 23 5.57846 22.7058 5.51151 22.3042L4.79429 18H3.83354C3.37325 18 3 17.6267 3 17.1667V15.375C3 15.3675 3.00418 15.3608 3.00418 15.3542C3.00418 15.3467 3 15.34 3 15.3333C3 12.4442 4.67211 10.5025 7.16102 10.5C5.78517 10.4975 4.66625 9.3775 4.66625 8C4.66625 6.62083 5.78768 5.49917 7.16604 5.49917C8.5444 5.49917 9.66667 6.62083 9.66667 8C9.66667 9.3775 8.54691 10.4975 7.17022 10.5C9.66081 10.5025 11.3338 12.4442 11.3338 15.3333C11.3338 15.34 11.3296 15.3467 11.3296 15.3542C11.3296 15.3608 11.3338 15.3675 11.3338 15.375V17.1667C11.3338 17.6267 10.9605 18 10.5002 18ZM7.99958 8C7.99958 7.54 7.62549 7.16583 7.16604 7.16583C6.70659 7.16583 6.33333 7.54 6.33333 8C6.33333 8.46 6.70659 8.83417 7.16604 8.83417C7.62549 8.83417 7.99958 8.46 7.99958 8ZM9.66669 15.3333C9.66669 14.59 9.48676 12.1667 7.16606 12.1667C4.84704 12.1667 4.66627 14.59 4.66627 15.3333C4.66627 15.34 4.66293 15.3467 4.66209 15.3542C4.66293 15.3608 4.66627 15.3675 4.66627 15.375V16.3333H5.49982C5.53329 16.3333 5.56175 16.3483 5.59438 16.3525C5.65213 16.3592 5.70653 16.3675 5.76009 16.3858C5.8103 16.4025 5.85382 16.4242 5.89901 16.4492C5.94755 16.4758 5.99191 16.5042 6.03375 16.54C6.07309 16.5742 6.10656 16.6108 6.1392 16.6517C6.17351 16.6933 6.2028 16.7358 6.22875 16.7842C6.25469 16.8333 6.27143 16.8842 6.28733 16.9383C6.29654 16.97 6.31662 16.9958 6.32164 17.0292L7.03969 21.3333H7.29411L8.01132 17.0292C8.01718 16.9958 8.03727 16.97 8.04647 16.9383C8.06154 16.8842 8.07827 16.8333 8.10422 16.785C8.13016 16.735 8.16113 16.6925 8.19544 16.6492C8.22724 16.61 8.25904 16.5742 8.29754 16.5417C8.34106 16.5042 8.38709 16.475 8.4373 16.4475C8.48082 16.4233 8.52266 16.4025 8.57037 16.3867C8.62476 16.3675 8.68084 16.3592 8.73942 16.3525C8.77206 16.3483 8.79967 16.3333 8.83315 16.3333H9.66669V15.375C9.66669 15.3675 9.67088 15.3608 9.67088 15.3542C9.67088 15.3467 9.66669 15.34 9.66669 15.3333ZM16.3342 6.33333C18.172 6.33333 19.6667 7.83667 19.6667 9.68417C19.6667 10.7817 19.1152 11.7608 18.0716 12.515C18.049 12.5308 18.0239 12.5375 18.0004 12.5508V13.175C17.9904 13.7608 17.5292 14.6667 16.3342 14.6667C15.1408 14.6667 14.678 13.7617 14.6671 13.1917V12.5475C14.6437 12.5342 14.6177 12.5308 14.5959 12.515C13.5515 11.76 13 10.7808 13 9.68417C13 7.83667 14.4955 6.33333 16.3342 6.33333ZM15.5726 11.1642C15.6596 11.2267 15.7266 11.305 15.781 11.39C16.1015 11.5058 16.3333 11.8058 16.3333 12.1667V13C16.3342 13 16.335 13 16.3358 13L16.3333 12.1667C16.3333 11.8058 16.566 11.5058 16.8865 11.39C16.9417 11.305 17.0087 11.2267 17.0949 11.1642C17.6958 10.73 18.0004 10.2325 18.0004 9.68417C18.0004 8.755 17.2531 8 16.3342 8C15.4144 8 14.6671 8.755 14.6671 9.68417C14.6671 10.2317 14.9717 10.73 15.5726 11.1642Z" fill="currentColor"/>
</svg>