<svg viewBox="0 0 24 24" fill="none" xmlns="http://www.w3.org/2000/svg">
<path d="M12 22C17.5228 22 22 17.5228 22 12C22 6.47715 17.5228 2 12 2C6.47715 2 2 6.47715 2 12C2 17.5228 6.47715 22 12 22Z" fill="url(#paint0_linear_1618_13769)"/>
<path d="M19.1589 12.1217H17.3961C17.3961 8.52916 14.4735 5.61694 10.8681 5.61694C7.30739 5.61694 4.41246 8.45787 4.34161 11.9889C4.26831 15.6389 7.70485 18.8085 11.3683 18.8085H11.8291C15.0589 18.8085 19.3878 16.2891 20.0641 13.2195C20.189 12.6536 19.7405 12.1217 19.1589 12.1217ZM8.24842 12.2818C8.24842 12.7622 7.85408 13.1552 7.37194 13.1552C6.8898 13.1552 6.49548 12.762 6.49548 12.2818V10.8689C6.49548 10.3885 6.8898 9.99557 7.37194 9.99557C7.85408 9.99557 8.24842 10.3885 8.24842 10.8689V12.2818ZM11.2918 12.2818C11.2918 12.7622 10.8975 13.1552 10.4154 13.1552C9.93324 13.1552 9.53895 12.762 9.53895 12.2818V10.8689C9.53895 10.3885 9.93342 9.99557 10.4154 9.99557C10.8975 9.99557 11.2918 10.3885 11.2918 10.8689V12.2818Z" fill="url(#paint1_linear_1618_13769)"/>
<defs>
<linearGradient id="paint0_linear_1618_13769" x1="12" y1="2" x2="12" y2="22" gradientUnits="userSpaceOnUse">
<stop stop-color="#534BB1"/>
<stop offset="1" stop-color="#551BF9"/>
</linearGradient>
<linearGradient id="paint1_linear_1618_13769" x1="12.2128" y1="5.61694" x2="12.2128" y2="18.8085" gradientUnits="userSpaceOnUse">
<stop stop-color="white"/>
<stop offset="1" stop-color="white" stop-opacity="0.82"/>
</linearGradient>
</defs>
</svg>