<svg viewBox="0 0 24 24" fill="none" xmlns="http://www.w3.org/2000/svg">
<path fill-rule="evenodd" clip-rule="evenodd" d="M17.5 7C17.04 7 16.6667 6.62667 16.6667 6.16667C16.6667 4.78833 15.545 3.66667 14.1667 3.66667C13.7067 3.66667 13.3333 3.29333 13.3333 2.83333C13.3333 2.37333 13.7067 2 14.1667 2C16.4642 2 18.3333 3.86917 18.3333 6.16667C18.3333 6.62667 17.96 7 17.5 7ZM9.16667 3.66667C7.78833 3.66667 6.66667 4.78833 6.66667 6.16667C6.66667 6.62667 6.29333 7 5.83333 7C5.37333 7 5 6.62667 5 6.16667C5 3.86917 6.86917 2 9.16667 2C9.62667 2 10 2.37333 10 2.83333C10 3.29333 9.62667 3.66667 9.16667 3.66667ZM5.83333 17C6.29333 17 6.66667 17.3733 6.66667 17.8333C6.66667 19.2117 7.78833 20.3333 9.16667 20.3333C9.62667 20.3333 10 20.7067 10 21.1667C10 21.6267 9.62667 22 9.16667 22C6.86917 22 5 20.1308 5 17.8333C5 17.3733 5.37333 17 5.83333 17ZM9.44417 19.4983C8.37167 19.4983 7.5 18.5808 7.5 17.4542V6.54417C7.5 5.41583 8.37167 4.49833 9.44417 4.49833H13.8892C14.9617 4.49833 15.8333 5.41583 15.8333 6.54417V17.4542C15.8333 18.5808 14.9617 19.4983 13.8892 19.4983H9.44417ZM14.1667 17.4542V6.54417C14.1667 6.32667 14.02 6.165 13.8892 6.165H9.44417C9.31333 6.165 9.16667 6.32667 9.16667 6.54417V17.4542C9.16667 17.6767 9.3125 17.8317 9.44417 17.8317H13.8892C14.0208 17.8317 14.1667 17.6767 14.1667 17.4542ZM12.0833 8.66667H11.25C10.79 8.66667 10.4167 8.29333 10.4167 7.83333C10.4167 7.37333 10.79 7 11.25 7H12.0833C12.5433 7 12.9167 7.37333 12.9167 7.83333C12.9167 8.29333 12.5433 8.66667 12.0833 8.66667ZM12.5 17H10.8325V15.3333H12.5V17ZM14.1667 20.3333C15.545 20.3333 16.6667 19.2117 16.6667 17.8333C16.6667 17.3733 17.04 17 17.5 17C17.96 17 18.3333 17.3733 18.3333 17.8333C18.3333 20.1308 16.4642 22 14.1667 22C13.7067 22 13.3333 21.6267 13.3333 21.1667C13.3333 20.7067 13.7067 20.3333 14.1667 20.3333Z" fill="currentColor"/>
</svg>