<svg viewBox="0 0 24 24" fill="none" xmlns="http://www.w3.org/2000/svg">
<path fill-rule="evenodd" clip-rule="evenodd" d="M21.0942 17.3117C20.9623 17.6358 20.6474 17.8342 20.3155 17.8342C20.2109 17.8342 20.1053 17.8142 20.0023 17.7733C19.5726 17.6008 19.3641 17.1158 19.5368 16.6883C20.5674 14.1475 20.5674 9.85334 19.5368 7.31084C19.3641 6.88417 19.5726 6.39834 20.0023 6.22667C20.4347 6.055 20.9215 6.2625 21.0942 6.68917C22.3019 9.6675 22.3019 14.3333 21.0942 17.3117ZM16.9582 16.1667C16.8101 16.1667 16.6603 16.1283 16.525 16.0467C16.1284 15.8083 16.0007 15.2958 16.2407 14.9025C17.1973 13.3292 17.1973 10.6717 16.2407 9.09667C16.0007 8.70333 16.1284 8.19083 16.525 7.95333C16.9216 7.715 17.4382 7.84167 17.6773 8.23583C18.9607 10.3475 18.9607 13.6542 17.6773 15.7642C17.519 16.0233 17.2424 16.1667 16.9582 16.1667ZM11.5318 22H3.92253C2.78127 22 2 21.4667 2 20.3333V4.5C2 3.36667 2.78127 2 3.92253 2H11.5318C12.6731 2 13.9148 3.36667 13.9148 4.5V20.3333C13.9148 21.4667 12.6731 22 11.5318 22ZM12.2126 4.5C12.2126 4.28917 11.7437 3.66667 11.5318 3.66667H3.92249C3.71058 3.66667 3.70207 4.28917 3.70207 4.5V20.3333C3.70207 20.5442 3.71058 20.3333 3.92249 20.3333H11.5318C11.7437 20.3333 12.2126 20.5442 12.2126 20.3333V4.5ZM8.56673 6.16667H6.88845C6.42463 6.16667 6.04846 5.79333 6.04846 5.33333C6.04846 4.87333 6.42463 4.5 6.88845 4.5H8.56673C9.02971 4.5 9.40587 4.87333 9.40587 5.33333C9.40587 5.79333 9.02971 6.16667 8.56673 6.16667ZM8.56679 17.8325V19.5H6.88851V17.8325H8.56679Z" fill="currentColor"/>
</svg>