<svg viewBox="0 0 24 24" fill="none" xmlns="http://www.w3.org/2000/svg">
<path fill-rule="evenodd" clip-rule="evenodd" d="M20.6017 11.6792C20.6442 11.78 20.6667 11.8892 20.6667 12C20.6667 12.1117 20.6442 12.22 20.6017 12.3208C20.5608 12.4183 20.5017 12.5058 20.4283 12.58C20.4258 12.5825 20.425 12.5867 20.4225 12.5892L17.9225 15.0883C17.76 15.2517 17.5467 15.3325 17.3333 15.3325C17.12 15.3325 16.9067 15.2517 16.7442 15.0883C16.4183 14.7625 16.4183 14.235 16.7442 13.91L17.8208 12.8333H11.5C11.04 12.8333 10.6667 12.46 10.6667 12C10.6667 11.54 11.04 11.1667 11.5 11.1667H17.8208L16.7442 10.09C16.4183 9.765 16.4183 9.2375 16.7442 8.91166C17.0692 8.58583 17.5967 8.58583 17.9225 8.91166L20.4217 11.41C20.4983 11.4867 20.5592 11.5775 20.6017 11.6792ZM8.16667 5.33333C8.16667 4.87333 8.54 4.5 9 4.5H10.6667C11.1267 4.5 11.5 4.87333 11.5 5.33333C11.5 5.79333 11.1267 6.16667 10.6667 6.16667H9C8.54 6.16667 8.16667 5.79333 8.16667 5.33333ZM10.6667 19.5H9V17.8325H10.6667V19.5ZM14.8333 9.5C14.3733 9.5 14 9.12667 14 8.66667V4.05583C14 3.845 13.8217 3.66667 13.6108 3.66667H6.05583C5.845 3.66667 5.66667 3.845 5.66667 4.05583V19.9442C5.66667 20.155 5.845 20.3333 6.05583 20.3333H13.6108C13.8217 20.3333 14 20.155 14 19.9442V15.3333C14 14.8733 14.3733 14.5 14.8333 14.5C15.2933 14.5 15.6667 14.8733 15.6667 15.3333V19.9442C15.6667 21.0783 14.745 22 13.6108 22H6.05583C4.92167 22 4 21.0783 4 19.9442V4.05583C4 2.9225 4.92167 2 6.05583 2H13.6108C14.745 2 15.6667 2.9225 15.6667 4.05583V8.66667C15.6667 9.12667 15.2933 9.5 14.8333 9.5Z" fill="currentColor"/>
</svg>