<svg width="24" height="24" viewBox="0 0 24 24" fill="none" xmlns="http://www.w3.org/2000/svg">
<path fill-rule="evenodd" clip-rule="evenodd" d="M19.1667 12.8333H12.8458L13.9225 13.91C14.2483 14.235 14.2483 14.7625 13.9225 15.0883C13.76 15.2517 13.5467 15.3325 13.3333 15.3325C13.12 15.3325 12.9067 15.2517 12.7442 15.0883L10.2442 12.5892C10.1675 12.5133 10.1067 12.4217 10.065 12.3208C10.0225 12.22 10 12.1117 10 12C10 11.8892 10.0225 11.78 10.065 11.6792C10.1075 11.5775 10.1683 11.4867 10.245 11.41L12.7442 8.91166C13.07 8.58583 13.5967 8.58583 13.9225 8.91166C14.2483 9.2375 14.2483 9.765 13.9225 10.09L12.8458 11.1667H19.1667C19.6267 11.1667 20 11.54 20 12C20 12.46 19.6267 12.8333 19.1667 12.8333ZM10 4.5H11.6667C12.1267 4.5 12.5 4.87333 12.5 5.33333C12.5 5.79333 12.1267 6.16667 11.6667 6.16667H10C9.54 6.16667 9.16667 5.79333 9.16667 5.33333C9.16667 4.87333 9.54 4.5 10 4.5ZM11.6667 17.8325V19.5H10V17.8325H11.6667ZM15.8333 9.5C15.3733 9.5 15 9.12667 15 8.66667V4.05583C15 3.845 14.8217 3.66667 14.6108 3.66667H7.05583C6.845 3.66667 6.66667 3.845 6.66667 4.05583V19.9442C6.66667 20.155 6.845 20.3333 7.05583 20.3333H14.6108C14.8217 20.3333 15 20.155 15 19.9442V15.3333C15 14.8733 15.3733 14.5 15.8333 14.5C16.2933 14.5 16.6667 14.8733 16.6667 15.3333V19.9442C16.6667 21.0783 15.745 22 14.6108 22H7.05583C5.92167 22 5 21.0783 5 19.9442V4.05583C5 2.9225 5.92167 2 7.05583 2H14.6108C15.745 2 16.6667 2.9225 16.6667 4.05583V8.66667C16.6667 9.12667 16.2933 9.5 15.8333 9.5Z" fill="#6B7084"/>
</svg>
