<svg width="24" height="24" viewBox="0 0 24 24" fill="none" xmlns="http://www.w3.org/2000/svg">
<path fill-rule="evenodd" clip-rule="evenodd" d="M16.3667 15.9742C16.2117 16.1025 16.0225 16.1667 15.8333 16.1667C15.6442 16.1667 15.455 16.1025 15.3 15.9742C15.1858 15.8783 12.5 13.6133 12.5 11.1042C12.5 9.30083 13.995 7.83333 15.8333 7.83333C17.6717 7.83333 19.1667 9.30083 19.1667 11.1042C19.1667 13.6133 16.4808 15.8783 16.3667 15.9742ZM15.8333 9.5C14.9142 9.5 14.1667 10.2192 14.1667 11.1042C14.1667 12.22 15.1183 13.4533 15.8325 14.1908C16.5467 13.4508 17.5 12.2142 17.5 11.1042C17.5 10.2192 16.7517 9.5 15.8333 9.5ZM10.8584 17.0558C11.3184 17.0558 11.6917 17.4283 11.6917 17.8883C11.6917 18.3492 11.3184 18.7217 10.8584 18.7217C10.3984 18.7217 10.0209 18.3492 10.0209 17.8883C10.0209 17.4283 10.39 17.0558 10.8492 17.0558H10.8584ZM9.16667 5.33333C9.16667 4.87333 9.53917 4.5 10 4.5H11.6667C12.1275 4.5 12.5 4.87333 12.5 5.33333C12.5 5.79333 12.1275 6.16667 11.6667 6.16667H10C9.53917 6.16667 9.16667 5.79333 9.16667 5.33333ZM15.8333 7C15.3725 7 15 6.62667 15 6.16667V4.5C15 4.04083 14.6267 3.66667 14.1667 3.66667H7.5C7.04 3.66667 6.66667 4.04083 6.66667 4.5V19.5C6.66667 19.9592 7.04 20.3333 7.5 20.3333H14.1667C14.6267 20.3333 15 19.9592 15 19.5V17.8333C15 17.3733 15.3725 17 15.8333 17C16.2942 17 16.6667 17.3733 16.6667 17.8333V19.5C16.6667 20.8783 15.545 22 14.1667 22H7.5C6.12167 22 5 20.8783 5 19.5V4.5C5 3.12167 6.12167 2 7.5 2H14.1667C15.545 2 16.6667 3.12167 16.6667 4.5V6.16667C16.6667 6.62667 16.2942 7 15.8333 7Z" fill="#6B7084"/>
</svg>
