<svg width="24" height="24" viewBox="0 0 24 24" fill="none" xmlns="http://www.w3.org/2000/svg">
<path fill-rule="evenodd" clip-rule="evenodd" d="M15.3333 16.16C15.1625 16.16 14.9217 16.1617 14.72 16.1633C13.9733 16.9008 12.9142 17.0167 12.325 17.0167C12.0783 17.0167 11.9142 16.9958 11.8908 16.9933C11.5692 16.9508 11.3017 16.7258 11.205 16.4167C11.1083 16.1067 11.1992 15.7692 11.4383 15.5508C11.4383 15.5508 11.62 15.3617 11.7358 15.0842C10.2917 14.1833 9.5 12.9575 9.5 11.58C9.5 9.05417 12.1175 7 15.3333 7C18.5492 7 21.1667 9.05417 21.1667 11.58C21.1667 14.1058 18.5492 16.16 15.3333 16.16ZM15.3333 8.66667C13.075 8.66667 11.1667 10.0008 11.1667 11.58C11.1667 12.7767 12.3433 13.5567 13.045 13.915C13.0817 13.9333 13.105 13.9658 13.1375 13.9883C13.1867 14.0233 13.2358 14.0542 13.2758 14.0983C13.3117 14.1383 13.3358 14.1833 13.3633 14.2283C13.3917 14.2742 13.4217 14.3175 13.4408 14.3692C13.4617 14.4242 13.4667 14.4808 13.475 14.5392C13.4808 14.5792 13.4992 14.615 13.4992 14.6567C13.4992 14.6742 13.4958 14.6892 13.4958 14.7058C13.495 14.7133 13.4942 14.7208 13.4942 14.7283C13.4908 14.8367 13.4858 14.9442 13.4717 15.045C13.5383 14.9925 13.5983 14.93 13.6483 14.8583C13.8083 14.6283 14.0642 14.5175 14.325 14.515V14.5C14.325 14.5 14.9767 14.4933 15.3333 14.4933C17.5917 14.4933 19.5 13.1592 19.5 11.58C19.5 10.0008 17.5917 8.66667 15.3333 8.66667ZM8.66667 19.5H7V17.8317H8.66667V19.5ZM6.16667 5.33333C6.16667 4.87333 6.53917 4.5 7 4.5H8.66667C9.1275 4.5 9.5 4.87333 9.5 5.33333C9.5 5.79333 9.1275 6.16667 8.66667 6.16667H7C6.53917 6.16667 6.16667 5.79333 6.16667 5.33333ZM12.8333 6.16667C12.3725 6.16667 12 5.79333 12 5.33333V4.05583C12 3.845 11.8217 3.66667 11.6108 3.66667H4.05583C3.845 3.66667 3.66667 3.845 3.66667 4.05583V19.9442C3.66667 20.155 3.845 20.3333 4.05583 20.3333H11.6108C11.8217 20.3333 12 20.155 12 19.9442V18.6667C12 18.2067 12.3725 17.8333 12.8333 17.8333C13.2942 17.8333 13.6667 18.2067 13.6667 18.6667V19.9442C13.6667 21.0783 12.745 22 11.6108 22H4.05583C2.92167 22 2 21.0783 2 19.9442V4.05583C2 2.9225 2.92167 2 4.05583 2H11.6108C12.745 2 13.6667 2.9225 13.6667 4.05583V5.33333C13.6667 5.79333 13.2942 6.16667 12.8333 6.16667Z" fill="#6B7084"/>
</svg>
