<svg viewBox="0 0 24 24" fill="none" xmlns="http://www.w3.org/2000/svg">
<path fill-rule="evenodd" clip-rule="evenodd" d="M21.1668 17.1667C20.7066 17.1667 20.3335 16.7933 20.3335 16.3333V4.66667H6.16697V5.5C6.16697 5.96 5.79385 6.33333 5.33374 6.33333C4.87362 6.33333 4.50051 5.96 4.50051 5.5V4.44417C4.50051 3.64833 5.14718 3 5.94276 3H20.5586C21.3533 3 22 3.64833 22 4.44417V16.3333C22 16.7933 21.6277 17.1667 21.1668 17.1667ZM19.5003 8.635V20.6983C19.5003 21.5083 18.8536 22.1667 18.0581 22.1667H3.44226C2.64751 22.1667 2 21.5083 2 20.6983V8.635C2 7.825 2.64751 7.16667 3.44226 7.16667H18.0581C18.8536 7.16667 19.5003 7.825 19.5003 8.635ZM3.60207 20.5H17.7611L14.4591 16.7192L12.5894 18.5892C12.4238 18.755 12.192 18.8367 11.9628 18.8325C11.7286 18.8225 11.5102 18.7133 11.3605 18.5333L7.77072 14.2267L3.60207 18.3033V20.5ZM17.8339 8.83333H3.60207V15.9725L7.25121 12.4042C7.41769 12.2425 7.64858 12.1533 7.87613 12.1683C8.1087 12.18 8.32537 12.2875 8.47345 12.4667L12.0565 16.7658L13.9112 14.9108C14.0743 14.7475 14.2935 14.6525 14.5286 14.6675C14.7595 14.675 14.9761 14.7783 15.1276 14.9517L17.8339 18.05V8.83333ZM12.7784 12.1683C12.7784 11.2483 13.5263 10.5 14.4457 10.5C15.3643 10.5 16.1113 11.2483 16.1113 12.1683C16.1113 13.0867 15.3643 13.8333 14.4457 13.8333C13.5263 13.8333 12.7784 13.0867 12.7784 12.1683ZM14.444 12.1675L14.4457 13L14.4465 12.1667C14.4465 12.1667 14.4448 12.1675 14.444 12.1675Z" fill="currentColor"/>
</svg>