<svg viewBox="0 0 24 24" fill="none" xmlns="http://www.w3.org/2000/svg">
<path fill-rule="evenodd" clip-rule="evenodd" d="M20.1908 23H3.65394C2.74185 23 2 22.2525 2 21.3333V9.66667C2 8.7475 2.74185 8 3.65394 8H20.1908C21.1029 8 22 8.7475 22 9.66667V21.3333C22 22.2525 21.1029 23 20.1908 23ZM20.331 9.66667H3.65395V16.1883L8.0767 12.3675C8.40382 12.0842 8.89366 12.1025 9.19991 12.4108L13.6535 16.9L16.3873 14.8333C16.7403 14.5675 17.2368 14.6258 17.5188 14.9667L20.331 18.3683V9.66667ZM20.331 20.9717L16.7511 16.6417L14.0724 18.6667C13.7428 18.9158 13.2814 18.8825 12.9918 18.5892L8.57155 14.135L3.65395 18.3833V21.3333H20.331V20.9717ZM15.2299 12.1667C15.2299 11.2475 15.9717 10.5 16.8847 10.5C17.7959 10.5 18.5369 11.2475 18.5369 12.1667C18.5369 13.0858 17.7959 13.8333 16.8847 13.8333C15.9717 13.8333 15.2299 13.0858 15.2299 12.1667ZM16.8821 12.1675L16.8846 13V12.1667C16.8838 12.1667 16.883 12.1675 16.8821 12.1675ZM19.3639 7.16667H4.48092C4.02446 7.16667 3.65395 6.79333 3.65395 6.33333C3.65395 5.87333 4.02446 5.5 4.48092 5.5H19.3639C19.8203 5.5 20.1909 5.87333 20.1909 6.33333C20.1909 6.79333 19.8203 7.16667 19.3639 7.16667ZM17.71 4.66667H6.13404C5.67758 4.66667 5.3079 4.29333 5.3079 3.83333C5.3079 3.37333 5.67758 3 6.13404 3H17.71C18.1664 3 18.5369 3.37333 18.5369 3.83333C18.5369 4.29333 18.1664 4.66667 17.71 4.66667Z" fill="currentColor"/>
</svg>