<svg width="24" height="24" viewBox="0 0 24 24" fill="none" xmlns="http://www.w3.org/2000/svg">
<path fill-rule="evenodd" clip-rule="evenodd" d="M21.1667 12.0008C20.7058 12.0008 20.3333 11.6275 20.3333 11.1675V3.66667H3.66667V12.8333H8.66667C9.1275 12.8333 9.5 13.2067 9.5 13.6667C9.5 14.1267 9.1275 14.5 8.66667 14.5H2.83333C2.3725 14.5 2 14.1267 2 13.6667V2.83333C2 2.37333 2.3725 2 2.83333 2H21.1667C21.6275 2 22 2.37333 22 2.83333V11.1675C22 11.6275 21.6275 12.0008 21.1667 12.0008ZM4.5 5.5C4.5 4.94772 4.94772 4.5 5.5 4.5H11.8333C12.3856 4.5 12.8333 4.94772 12.8333 5.5V9.33333C12.8333 9.88562 12.3856 10.3333 11.8333 10.3333H5.5C4.94771 10.3333 4.5 9.88562 4.5 9.33333V5.5ZM19.8737 20.9446C20.021 21.0921 20.2149 21.1667 20.4087 21.1667C20.6026 21.1667 20.7965 21.0921 20.9446 20.9446C21.2407 20.6488 21.2407 20.169 20.9446 19.8732L15.3689 14.2979H19.6714C20.0897 14.2979 20.4087 14.0089 20.4087 13.5907C20.4087 13.1725 20.0699 12.8333 19.6516 12.8333H13.592C13.4928 12.8333 13.3943 12.8531 13.3012 12.8919C13.1157 12.9687 12.9684 13.1162 12.8913 13.301C12.8539 13.393 12.8341 13.4911 12.8333 13.5884V13.5907V19.6512C12.8333 20.0694 13.1722 20.4085 13.5905 20.4085C14.0095 20.4085 14.3484 20.0694 14.3484 19.6512L14.3324 15.4035L19.8737 20.9446Z" fill="#6B7084"/>
</svg>
