<svg width="24" height="24" viewBox="0 0 24 24" fill="none" xmlns="http://www.w3.org/2000/svg">
<path fill-rule="evenodd" clip-rule="evenodd" d="M3.65917 20H20.3408C21.2558 20 22 19.2567 22 18.3417V6.65917C22 5.74417 21.2558 5 20.3408 5H3.65917C2.74417 5 2 5.74417 2 6.65917V18.3417C2 19.2567 2.74417 20 3.65917 20ZM3.65919 6.66666L20.3334 6.65916V18.3333L3.66669 18.3417L3.65919 6.66666ZM12.1667 11.6667C11.6144 11.6667 11.1667 12.1144 11.1667 12.6667V16.5C11.1667 17.0523 11.6144 17.5 12.1667 17.5H18.5C19.0523 17.5 19.5 17.0523 19.5 16.5V12.6667C19.5 12.1144 19.0523 11.6667 18.5 11.6667H12.1667Z" fill="#6B7084"/>
</svg>
