<svg width="24" height="24" viewBox="0 0 24 24" fill="none" xmlns="http://www.w3.org/2000/svg">
<path fill-rule="evenodd" clip-rule="evenodd" d="M18.8258 20.4925C18.6633 20.6558 18.45 20.7375 18.2367 20.7375C18.0242 20.7375 17.8108 20.6558 17.6475 20.4925L16.775 19.62C15.1433 21.1517 13.0283 22 10.7783 22C5.93833 22 2 18.0625 2 13.2225C2 13.1167 2.01167 13.0142 2.015 12.91C2.0125 12.8833 2 12.8608 2 12.8333C2 12.7892 2.01833 12.7508 2.025 12.7083C2.285 8.25667 5.87167 4.6925 10.3333 4.4675V2.83333C10.3333 2.37333 10.7058 2 11.1667 2C17.14 2 22 6.86 22 12.8333C22 15.7267 20.8733 18.4475 18.8258 20.4925ZM10.7783 20.3333C12.5833 20.3333 14.2791 19.6592 15.5966 18.4417L10.8141 13.6592C10.8016 13.66 10.7916 13.6667 10.7783 13.6667H3.68915C3.92081 17.3808 7.00665 20.3333 10.7783 20.3333ZM3.77831 12H10.3333V6.13417C7.03081 6.34 4.33581 8.805 3.77831 12ZM12 3.70417V12.4883L18.2108 18.6992C19.5858 17.0558 20.3333 15.0017 20.3333 12.8333C20.3333 8.06 16.6658 4.12667 12 3.70417Z" fill="#6B7084"/>
</svg>
