<svg width="24" height="24" viewBox="0 0 24 24" fill="none" xmlns="http://www.w3.org/2000/svg">
<path fill-rule="evenodd" clip-rule="evenodd" d="M21.1667 17.8333H16.3542L18.4975 20.6633C18.7758 21.03 18.7033 21.5533 18.3367 21.8308C18.1858 21.945 18.0092 22 17.8342 22C17.5817 22 17.3325 21.8858 17.1692 21.67L14.3925 18.0033C14.3533 17.9517 14.3358 17.8908 14.3108 17.8333H9.69167C9.66583 17.8908 9.64917 17.9517 9.60917 18.0033L6.83083 21.67C6.6675 21.8858 6.41833 22 6.16583 22C5.99083 22 5.81417 21.945 5.66417 21.8308C5.29667 21.5533 5.22417 21.03 5.5025 20.6633L7.6475 17.8333H2.83333C2.3725 17.8333 2 17.46 2 17V5.33333C2 4.87333 2.3725 4.5 2.83333 4.5H11.1667V2.83333C11.1667 2.37333 11.5392 2 12 2C12.4608 2 12.8333 2.37333 12.8333 2.83333V4.5H21.1667C21.6275 4.5 22 4.87333 22 5.33333V17C22 17.46 21.6275 17.8333 21.1667 17.8333ZM20.3333 6.16667H3.66667V16.1667H20.3333V6.16667ZM12 7.00083C14.2975 7.00083 16.1667 8.86917 16.1667 11.1667C16.1667 13.4642 14.2975 15.3325 12 15.3325C9.7025 15.3325 7.83333 13.4642 7.83333 11.1667C7.83333 8.86917 9.7025 7.00083 12 7.00083ZM12.8333 8.82083V10.3333H14.3467C14.095 9.62833 13.5358 9.07417 12.8333 8.82083ZM12 13.6658C13.085 13.6658 14.0008 12.9675 14.3467 12H12C11.5392 12 11.1667 11.6267 11.1667 11.1667V8.82083C10.1992 9.16583 9.5 10.0825 9.5 11.1667C9.5 12.545 10.6217 13.6658 12 13.6658Z" fill="#6B7084"/>
</svg>
