<svg viewBox="0 0 24 24" fill="none" xmlns="http://www.w3.org/2000/svg">
<path fill-rule="evenodd" clip-rule="evenodd" d="M21.1667 15.3333H20.41C20.0867 16.4967 19.4108 17.5025 18.35 18.3175L18.9725 20.04C19.1292 20.4717 18.9067 20.9475 18.4767 21.1058L16.1783 21.9492C16.085 21.9825 15.9875 22 15.8908 22C15.77 22 15.65 21.9742 15.5383 21.9217C15.3375 21.8283 15.1817 21.6583 15.1067 21.4492L14.5975 20.0375C14.1658 20.1892 13.6283 20.3333 12.6108 20.3333C11.6192 20.3333 11.1025 20.1992 10.695 20.0558L10.1917 21.4492C10.1167 21.6583 9.96167 21.8283 9.76 21.9217C9.64917 21.9742 9.52833 22 9.40833 22C9.31083 22 9.21333 21.9825 9.12083 21.9492L6.82417 21.1058C6.39333 20.9475 6.1725 20.4717 6.3275 20.04L6.9325 18.3667C5.55333 17.33 4.6975 15.955 4.49417 14.465C2.68583 14.1758 2 12.4042 2 11.1667C2 10.7067 2.3725 10.3333 2.83333 10.3333C3.29417 10.3333 3.66667 10.7067 3.66667 11.1667C3.66917 11.4108 3.73 12.5225 4.58417 12.7967C5.27583 9.82417 8.60833 7.56167 12.6108 7.56167C13.5033 7.55583 14.375 7.57083 15.2125 7.755C17.0158 6.06167 19.4417 6.1625 19.5517 6.17167C19.905 6.19333 20.2075 6.4375 20.3025 6.77917C20.3983 7.12 20.2667 7.485 19.975 7.6875C19.9425 7.71167 19.1 8.33917 18.8742 9.66667C19.4183 10.1267 19.82 10.535 20.2242 11.1667H21.1667C21.6275 11.1667 22 11.54 22 12V14.5C22 14.96 21.6275 15.3333 21.1667 15.3333ZM20.3333 12.8333H19.7583C19.62 12.8333 19.495 12.7917 19.38 12.7317C19.3483 12.7158 19.3233 12.6942 19.2933 12.6733C19.2058 12.6125 19.1333 12.5392 19.075 12.45C19.0617 12.4308 19.0392 12.4225 19.0283 12.4025C18.605 11.635 18.3008 11.3483 17.4667 10.665C17.2608 10.495 17.1475 10.2358 17.1642 9.96833C17.2083 9.265 17.3767 8.6675 17.595 8.1725C17.0767 8.375 16.5342 8.69833 16.0892 9.2125C16.0883 9.21333 16.0875 9.21417 16.0867 9.215C16.0792 9.22416 16.0675 9.2275 16.0592 9.23583C15.9925 9.30666 15.9175 9.36916 15.8317 9.4125C15.7825 9.43667 15.7292 9.44333 15.6767 9.4575C15.6258 9.47166 15.5775 9.49416 15.5233 9.49917C15.43 9.50666 15.3358 9.4925 15.2442 9.46833C15.2308 9.46416 15.2167 9.46833 15.2033 9.46333C15.2017 9.46333 15.2008 9.46333 15.1992 9.4625C14.4608 9.22833 13.5808 9.23416 12.6542 9.22833C9.06749 9.22833 6.18082 11.2958 6.11832 13.8542C6.14916 15.1883 6.96499 16.4542 8.37666 17.3392C8.70916 17.5467 8.85166 17.9592 8.71749 18.3283L8.17666 19.8267L8.90832 20.0958L9.40582 18.72C9.42082 18.6775 9.45166 18.6475 9.47249 18.61C9.49999 18.5608 9.52249 18.51 9.55832 18.4683C9.59415 18.4267 9.63665 18.3967 9.67915 18.3633C9.72082 18.33 9.75832 18.295 9.80582 18.2708C9.85332 18.2458 9.90499 18.2333 9.95666 18.2183C10.0075 18.2033 10.055 18.1858 10.1083 18.18C10.1633 18.175 10.2167 18.1842 10.2725 18.1892C10.3158 18.1942 10.3583 18.1858 10.4025 18.1967C10.65 18.2625 10.8458 18.3358 11.0383 18.4083C11.4192 18.5525 11.72 18.6667 12.6108 18.6667C13.5167 18.6667 13.8408 18.545 14.2517 18.3917C14.4242 18.3267 14.6083 18.2625 14.8158 18.2017C14.8175 18.2017 14.8183 18.2 14.82 18.1992C14.8217 18.1983 14.8242 18.1992 14.8258 18.1983C14.8467 18.1925 14.8608 18.1858 14.8825 18.1792C14.9275 18.1667 14.9717 18.175 15.0167 18.17C15.0717 18.1642 15.1258 18.1533 15.18 18.1583C15.23 18.1633 15.2742 18.1808 15.3217 18.1942C15.3783 18.21 15.435 18.2225 15.4867 18.25C15.5267 18.2708 15.5583 18.3017 15.595 18.3292C15.6442 18.3658 15.6933 18.4 15.7342 18.4475C15.7667 18.4858 15.7858 18.5317 15.8117 18.5758C15.8358 18.6183 15.87 18.6525 15.8867 18.7008L16.3908 20.0958L17.1233 19.8267L16.62 18.4358C16.6075 18.415 16.5975 18.3933 16.5867 18.3708C16.4058 17.9908 16.5233 17.54 16.8783 17.3142C18.0758 16.5542 18.7675 15.5683 18.9325 14.3842C18.9383 14.3475 18.9592 14.3175 18.9683 14.2817C18.9833 14.2275 18.9975 14.1758 19.0225 14.1267C19.0483 14.0767 19.08 14.0342 19.115 13.9908C19.1458 13.9517 19.175 13.9142 19.2133 13.8808C19.2575 13.8417 19.3058 13.8125 19.3567 13.7833C19.3983 13.76 19.4375 13.7383 19.4833 13.7217C19.5392 13.7017 19.5975 13.6942 19.6583 13.6867C19.6925 13.6825 19.7225 13.6667 19.7583 13.6667H20.3333V12.8333ZM15.3333 11.1667H17V12.8333H15.3333V11.1667ZM12.6258 6.66167C12.1733 6.575 11.8775 6.13833 11.9642 5.68667C11.9858 5.5725 12 5.45417 12 5.33333C12 4.41417 11.2517 3.66667 10.3325 3.66667C9.41333 3.66667 8.66667 4.41417 8.66667 5.33333C8.66667 5.66083 8.79917 6.05 9.01333 6.35167C9.27917 6.72667 9.19167 7.24667 8.81667 7.51333C8.67 7.6175 8.50167 7.6675 8.335 7.6675C8.07333 7.6675 7.81667 7.54583 7.65417 7.31667C7.23833 6.73083 7 6.00833 7 5.33333C7 3.495 8.495 2 10.3325 2C12.1708 2 13.6667 3.495 13.6667 5.33333C13.6667 5.55 13.645 5.775 13.6017 6.00083C13.5142 6.45333 13.0792 6.75 12.6258 6.66167Z" fill="currentColor"/>
</svg>