<svg viewBox="0 0 24 24" fill="none" xmlns="http://www.w3.org/2000/svg">
<path fill-rule="evenodd" clip-rule="evenodd" d="M21.4138 10.8692C20.1959 11.2475 18.8698 11.2625 17.6443 10.9168L14.6611 13.9022C15.4448 15.7603 15.5488 17.8137 14.9478 19.747C14.8614 20.0267 14.6351 20.2397 14.3518 20.309C14.2856 20.3257 14.2177 20.3332 14.1515 20.3332C13.9335 20.3332 13.7206 20.248 13.5622 20.0893L9.32666 15.8538L3.42225 21.7562C3.25963 21.919 3.04673 22 2.83298 22C2.62007 22 2.40716 21.919 2.24455 21.7562C1.91848 21.4305 1.91848 20.9027 2.24455 20.577L8.14729 14.6755L3.91093 10.44C3.70473 10.2337 3.62091 9.93392 3.69132 9.65083C3.76089 9.36774 3.9738 9.14143 4.25209 9.05458C6.1473 8.46502 8.25291 8.5694 10.0945 9.34018L13.0836 6.35059C12.7399 5.12219 12.7541 3.80527 13.133 2.58689C13.2194 2.30797 13.4457 2.09419 13.729 2.02404C14.0131 1.95473 14.3124 2.03741 14.5178 2.24451L21.7558 9.48382C21.9628 9.69092 22.0458 9.98988 21.9754 10.2738C21.9058 10.5569 21.6929 10.7824 21.4138 10.8692ZM14.5035 4.58691C14.5077 5.16478 14.6116 5.74266 14.8145 6.2888C14.9284 6.59444 14.8538 6.93766 14.6233 7.16814L10.8622 10.9285C10.6074 11.1832 10.2185 11.2458 9.89746 11.083C8.75832 10.5076 7.45405 10.2554 6.19169 10.364L13.6409 17.8104C13.7516 16.5436 13.5068 15.2651 12.9167 14.101C12.7541 13.7795 12.8161 13.3903 13.071 13.1348L16.8279 9.37693C17.0584 9.14561 17.4029 9.07129 17.708 9.18486C18.2553 9.38945 18.8295 9.49551 19.4146 9.49968L14.5035 4.58691Z" fill="currentColor"/>
</svg>