<svg viewBox="0 0 24 24" fill="none" xmlns="http://www.w3.org/2000/svg">
<g clip-path="url(#clip0_1265_21100)">
<path d="M12 24C18.6274 24 24 18.6274 24 12C24 5.37258 18.6274 0 12 0C5.37258 0 0 5.37258 0 12C0 18.6274 5.37258 24 12 24Z" fill="#ED79AA"/>
<path opacity="0.5" fill-rule="evenodd" clip-rule="evenodd" d="M17.5713 7.40385L16.3421 8.6278C15.8993 8.18488 15.3719 7.83333 14.7905 7.59355C14.2092 7.35376 13.5855 7.23051 12.9556 7.23095C10.3822 7.23095 8.28212 9.25245 8.17169 11.7875H8.16643V16.4167C7.04581 15.2132 6.42523 13.636 6.42848 12C6.42848 8.41005 9.35091 5.5 12.9556 5.5C13.8141 5.4994 14.6642 5.66738 15.4566 5.9942C16.2489 6.32102 16.9677 6.80017 17.5713 7.40385ZM17.5713 16.5961C16.3782 17.7899 14.7592 18.4734 13.0621 18.5V16.7684C14.2972 16.742 15.4735 16.2415 16.3421 15.3729L17.5713 16.5961Z" fill="white"/>
<path fill-rule="evenodd" clip-rule="evenodd" d="M9.83398 17.7096V11.7881H9.83859C9.93061 10.0948 11.3386 8.75 13.0621 8.75C14.8447 8.75 16.2902 10.1891 16.2902 11.9649C16.2902 13.74 14.8447 15.1791 13.0627 15.1791C12.4886 15.1801 11.9248 15.0281 11.4306 14.7391V18.3212C10.8733 18.1886 10.3364 17.9831 9.83398 17.7102V17.7096ZM13.0621 13.5899C13.2771 13.5892 13.49 13.5466 13.6884 13.4646C13.8869 13.3826 14.067 13.2627 14.2186 13.1118C14.3701 12.9609 14.4901 12.7819 14.5718 12.5851C14.6534 12.3883 14.695 12.1776 14.6942 11.9649C14.6942 11.0672 13.9633 10.3399 13.0621 10.3399C12.847 10.3407 12.6343 10.3833 12.4359 10.4654C12.2376 10.5475 12.0575 10.6674 11.906 10.8183C11.7545 10.9692 11.6345 11.1481 11.553 11.3448C11.4714 11.5416 11.4298 11.7523 11.4306 11.9649C11.4306 12.8619 12.1609 13.5899 13.0621 13.5899Z" fill="white"/>
</g>
<defs>
<clipPath id="clip0_1265_21100">
<rect width="24" height="24" fill="white"/>
</clipPath>
</defs>
</svg>