<svg width="24" height="24" viewBox="0 0 24 24" fill="none" xmlns="http://www.w3.org/2000/svg">
<g clip-path="url(#clip0_1265_21096)">
<path d="M12 24C18.6274 24 24 18.6274 24 12C24 5.37258 18.6274 0 12 0C5.37258 0 0 5.37258 0 12C0 18.6274 5.37258 24 12 24Z" fill="#96B73D"/>
<path d="M9.1358 12.0682C9.1917 12.2359 9.27425 12.3932 9.38085 12.5349L7.76041 10.8983C7.59156 10.728 7.49682 10.4978 7.49682 10.258C7.49682 10.0182 7.59156 9.78807 7.76041 9.61776L9.80465 7.57223C9.8469 7.54103 9.8872 7.50723 9.9262 7.47213L9.98535 7.42013L11.6409 5.76329C11.7242 5.67967 11.8231 5.61336 11.9321 5.56818C12.0411 5.52299 12.158 5.49982 12.276 5.5C12.394 5.50018 12.5108 5.52371 12.6197 5.56923C12.7285 5.61475 12.8273 5.68137 12.9103 5.76524L18.3333 11.2272C18.4568 11.4028 18.5147 11.6163 18.4968 11.8303C18.4788 12.0443 18.3862 12.2452 18.2351 12.3978C18.0859 12.5482 17.8896 12.6429 17.679 12.666C17.4684 12.689 17.2563 12.6391 17.0781 12.5245L12.2876 7.68857L12.2824 7.68207L12.2668 7.66517L9.7039 10.2288L9.6649 10.2613C9.66342 10.263 9.6619 10.2648 9.66035 10.2665L12.1927 12.819C12.3042 12.9317 12.3843 13.0715 12.4251 13.2247C12.4659 13.3779 12.4659 13.5391 12.4252 13.6923C12.3845 13.8455 12.3044 13.9853 12.1929 14.098C12.0815 14.2108 11.9425 14.2924 11.7897 14.3348C11.6371 14.3759 11.4762 14.3759 11.3236 14.3347C11.1709 14.2934 11.0319 14.2125 10.9207 14.1001L9.6233 12.7936C9.60445 12.7767 9.5856 12.7546 9.5622 12.7312L9.5024 12.6714C9.45892 12.6225 9.41833 12.5711 9.38085 12.5174L9.4101 12.5518L9.3906 12.5265C9.28172 12.3884 9.19569 12.2336 9.1358 12.0682ZM14.4307 13.7407L11.895 11.1869C11.7262 11.0165 11.6314 10.7864 11.6314 10.5466C11.6314 10.3068 11.7262 10.0767 11.895 9.90636C11.9785 9.82265 12.0776 9.75628 12.1868 9.71108C12.296 9.66587 12.4131 9.64272 12.5313 9.64296C12.6495 9.64321 12.7664 9.66683 12.8754 9.71249C12.9844 9.75814 13.0833 9.82491 13.1664 9.90896L14.4645 11.2155C14.4827 11.2317 14.5015 11.2545 14.5256 11.2772L14.5847 11.337C14.6185 11.3747 14.6497 11.415 14.6783 11.456L14.6926 11.4735C14.6744 11.4474 14.6557 11.4217 14.6367 11.3962L16.3332 13.1037C16.5023 13.2741 16.5972 13.5045 16.5972 13.7446C16.5972 13.9847 16.5023 14.215 16.3332 14.3855L14.2877 16.4317C14.2449 16.4623 14.2036 16.495 14.1642 16.5298L12.4586 18.2354C12.3754 18.3193 12.2765 18.3858 12.1675 18.4312C12.0585 18.4766 11.9416 18.5 11.8235 18.5C11.7055 18.5 11.5886 18.4766 11.4796 18.4312C11.3706 18.3858 11.2716 18.3193 11.1885 18.2354L5.67847 12.6799C5.54422 12.4977 5.48221 12.2723 5.50442 12.0471C5.52663 11.8219 5.63148 11.6129 5.79872 11.4605C5.96544 11.3089 6.18303 11.2254 6.40839 11.2266C6.63374 11.2278 6.85043 11.3136 7.01552 11.467L11.8151 16.3127L11.8313 16.3322L14.3891 13.7751L14.4268 13.7446C14.4281 13.7433 14.4294 13.742 14.4307 13.7407Z" fill="white"/>
</g>
<defs>
<clipPath id="clip0_1265_21096">
<rect width="24" height="24" fill="white"/>
</clipPath>
</defs>
</svg>
