<svg width="24" height="24" viewBox="0 0 24 24" fill="none" xmlns="http://www.w3.org/2000/svg">
<g clip-path="url(#clip0_1265_21092)">
<path d="M12 24C18.6274 24 24 18.6274 24 12C24 5.37258 18.6274 0 12 0C5.37258 0 0 5.37258 0 12C0 18.6274 5.37258 24 12 24Z" fill="#5E4778"/>
<path fill-rule="evenodd" clip-rule="evenodd" d="M12.6643 6H8.11124V7.91526L11.3725 7.90477H12.5404C13.1964 7.90477 13.6917 8.09524 14.019 8.40145C14.3423 8.70385 14.5504 9.16428 14.5504 9.80608C14.5504 10.4588 14.341 10.9311 14.0142 11.2418C13.6843 11.5555 13.1855 11.751 12.5231 11.751H8.30578V18H10.3365V13.6565H12.6733C13.7853 13.6565 14.7751 13.2891 15.4901 12.6064C16.2075 11.9214 16.6151 10.9494 16.6151 9.80608C16.6151 8.66203 16.2061 7.6993 15.4849 7.02465C14.7672 6.35328 13.7758 6 12.6643 6ZM12.5679 8.93608H7.38501V10.728H12.5679V8.93608Z" fill="white"/>
</g>
<defs>
<clipPath id="clip0_1265_21092">
<rect width="24" height="24" fill="white"/>
</clipPath>
</defs>
</svg>
