<svg viewBox="0 0 24 24" fill="none" xmlns="http://www.w3.org/2000/svg">
<path fill-rule="evenodd" clip-rule="evenodd" d="M12 22C6.48583 22 2 17.5142 2 12C2 6.48583 6.48583 2 12 2C17.5142 2 22 6.48583 22 12C22 17.5142 17.5142 22 12 22ZM12 3.66667C7.405 3.66667 3.66667 7.405 3.66667 12C3.66667 16.595 7.405 20.3333 12 20.3333C16.595 20.3333 20.3333 16.595 20.3333 12C20.3333 7.405 16.595 3.66667 12 3.66667ZM11.0587 16.0019L15.7687 12.8294C16.3571 12.433 16.3571 11.567 15.7687 11.1706L11.0587 7.99806C10.3944 7.55065 9.5 8.0266 9.5 8.82746L9.5 15.1725C9.5 15.9734 10.3944 16.4493 11.0587 16.0019Z" fill="currentColor"/>
</svg>