<svg viewBox="0 0 24 24" fill="none" xmlns="http://www.w3.org/2000/svg">
<path fill-rule="evenodd" clip-rule="evenodd" d="M9.76004 2C9.20776 2 8.76004 2.44772 8.76004 3V21C8.76004 21.5523 9.20776 22 9.76005 22H10.4267C10.979 22 11.4267 21.5523 11.4267 21V3C11.4267 2.44772 10.979 2 10.4267 2H9.76004ZM5 12.6667C4.44772 12.6667 4 13.1145 4 13.6667V21.0001C4 21.5524 4.44772 22.0001 5 22.0001H5.66667C6.21895 22.0001 6.66667 21.5524 6.66667 21.0001V13.6667C6.66667 13.1145 6.21895 12.6667 5.66667 12.6667H5ZM13.52 11C13.52 10.4477 13.9677 10 14.52 10H15.1866C15.7389 10 16.1866 10.4477 16.1866 11V21C16.1866 21.5523 15.7389 22 15.1866 22H14.52C13.9677 22 13.52 21.5523 13.52 21V11ZM19.28 5.99995C18.7277 5.99995 18.28 6.44767 18.28 6.99995V21C18.28 21.5522 18.7277 22 19.28 22H19.9467C20.499 22 20.9467 21.5522 20.9467 21V6.99995C20.9467 6.44767 20.499 5.99995 19.9467 5.99995H19.28Z" fill="currentColor"/>
</svg>