<svg viewBox="0 0 24 24" fill="none" xmlns="http://www.w3.org/2000/svg">
<g clip-path="url(#clip0_1265_21088)">
<path d="M12 24C18.6274 24 24 18.6274 24 12C24 5.37258 18.6274 0 12 0C5.37258 0 0 5.37258 0 12C0 18.6274 5.37258 24 12 24Z" fill="#00BFFF"/>
<path d="M7.0665 15.1862H7.0028V17.8499H5.5V8.83115H6.969V9.24715H7.02685C7.5397 8.75575 8.19295 8.7421 8.55955 8.7421C10.0961 8.7421 11.1037 10.2066 11.1037 12.1624V12.4159C11.1037 14.4511 9.93755 15.664 8.53355 15.664C7.8764 15.6659 7.38955 15.5158 7.0665 15.1862ZM9.7081 12.5368V12.0929C9.7081 10.8189 9.22255 9.9667 8.3574 9.9667C7.4227 9.9667 6.92155 10.9573 6.92155 12.0929V12.5349C6.92155 13.6171 7.4149 14.4459 8.3834 14.4459C9.14585 14.4433 9.7081 13.8492 9.7081 12.5368ZM11.831 6.1499H13.3358V15.6243H11.831V6.1499ZM17.6348 10.3158C16.7912 10.3158 15.9533 10.9853 15.9533 11.8316V15.6302H14.457V8.89485H15.8434V9.3089H15.9C16.2367 8.954 17.0602 8.7876 17.7375 8.79735C17.8051 8.79735 17.7492 8.7993 17.8149 8.7993L17.8227 10.3158H17.6348ZM17.003 14.0117H18.5V15.6243H17.003V14.0117Z" fill="white"/>
</g>
<defs>
<clipPath id="clip0_1265_21088">
<rect width="24" height="24" fill="white"/>
</clipPath>
</defs>
</svg>