<svg width="24" height="24" viewBox="0 0 24 24" fill="none" xmlns="http://www.w3.org/2000/svg">
<g clip-path="url(#clip0_1265_21084)">
<path d="M12 24C18.6274 24 24 18.6274 24 12C24 5.37258 18.6274 0 12 0C5.37258 0 0 5.37258 0 12C0 18.6274 5.37258 24 12 24Z" fill="#444FA1"/>
<path d="M5 17.0909L12 5L19 17.0909H5ZM9.37309 10.9335C10.1908 10.3875 11.0677 10.1119 12 10.1119C12.9323 10.1119 13.8092 10.3875 14.6269 10.9335L12 6.39618L9.37309 10.9335ZM8.13155 13.078L6.22436 16.3725H17.7756L15.8685 13.0786C14.7166 14.3444 13.4229 14.9871 12 14.9871C10.5771 14.9871 9.28273 14.3444 8.13091 13.078H8.13155ZM12 14.2686C13.2333 14.2686 14.3615 13.7023 15.3969 12.5505C14.3615 11.3967 13.2333 10.831 12 10.831C10.7667 10.831 9.63845 11.3974 8.60309 12.5498C9.63845 13.7029 10.7667 14.2693 12 14.2693V14.2686ZM12 13.9613C11.2618 13.9613 10.663 13.3408 10.663 12.5753C10.663 11.8104 11.2612 11.1899 12 11.1899C12.7388 11.1899 13.337 11.8104 13.337 12.5753C13.337 13.3408 12.7388 13.9613 12 13.9613ZM12 13.2422C12.3557 13.2422 12.644 12.9437 12.644 12.5753C12.644 12.2068 12.3557 11.9084 12 11.9084C11.6443 11.9084 11.356 12.2075 11.356 12.5753C11.356 12.9444 11.6443 13.2428 12 13.2428V13.2422Z" fill="white"/>
</g>
<defs>
<clipPath id="clip0_1265_21084">
<rect width="24" height="24" fill="white"/>
</clipPath>
</defs>
</svg>
