<svg width="24" height="24" viewBox="0 0 24 24" fill="none" xmlns="http://www.w3.org/2000/svg">
<path fill-rule="evenodd" clip-rule="evenodd" d="M19.7767 18.3683C19.4876 18.7267 18.9653 18.7817 18.6104 18.4917C18.2539 18.2017 18.1998 17.6767 18.488 17.3192C19.6834 15.8358 20.3423 13.965 20.3423 12.05C20.3423 7.4275 16.6004 3.66667 12.0012 3.66667C7.40131 3.66667 3.65854 7.4275 3.65854 12.05C3.65854 13.9642 4.31746 15.8358 5.51452 17.32C5.80274 17.6775 5.74776 18.2025 5.39206 18.4917C5.23879 18.6175 5.05385 18.6783 4.87059 18.6783C4.62901 18.6783 4.38994 18.5725 4.22583 18.3692C2.79054 16.5892 2 14.345 2 12.05C2 6.50833 6.48665 2 12.0012 2C17.515 2 22 6.50833 22 12.05C22 14.3458 21.2103 16.59 19.7767 18.3683ZM12.0012 5.3825C15.659 5.3825 18.6346 8.37417 18.6346 12.05C18.6346 13.7808 17.9765 15.4242 16.7811 16.6775C16.4637 17.0092 15.9389 17.02 15.609 16.7008C15.2783 16.3825 15.2675 15.8558 15.5841 15.5225C16.4821 14.5825 16.9769 13.3492 16.9769 12.05C16.9769 9.2925 14.7444 7.05 12.0012 7.05C9.25726 7.05 7.0256 9.2925 7.0256 12.05C7.0256 13.38 7.54041 14.6333 8.47589 15.5792C8.79827 15.9058 8.7966 16.4342 8.47172 16.7583C8.31012 16.9192 8.09853 17 7.88778 17C7.67369 17 7.46127 16.9175 7.29883 16.7542C6.05346 15.4933 5.36706 13.8225 5.36706 12.05C5.36706 8.37417 8.34344 5.3825 12.0012 5.3825ZM12.0013 15.3833C10.1719 15.3833 8.68416 13.8875 8.68416 12.05C8.68416 10.2117 10.1719 8.71583 12.0013 8.71583C13.8297 8.71583 15.3183 10.2117 15.3183 12.05C15.3183 13.8875 13.8297 15.3833 12.0013 15.3833ZM12.0012 10.3833C11.0866 10.3833 10.3427 11.1308 10.3427 12.05C10.3427 12.9683 11.0866 13.7167 12.0012 13.7167C12.9159 13.7167 13.6598 12.9683 13.6598 12.05C13.6598 11.1308 12.9159 10.3833 12.0012 10.3833ZM12.0013 16.1667C13.8297 16.1667 15.3183 17.6617 15.3183 19.5L15.2825 21.1842C15.2725 21.6375 14.9043 22 14.4528 22H9.51385C9.05569 22 8.68416 21.6267 8.68416 21.1667V19.5C8.68416 17.6617 10.1719 16.1667 12.0013 16.1667ZM10.3427 20.3333H13.6415L13.6598 19.4817C13.6598 18.5808 12.9159 17.8333 12.0012 17.8333C11.0866 17.8333 10.3427 18.5808 10.3427 19.5V20.3333Z" fill="#6B7084"/>
</svg>
