<svg width="24" height="24" viewBox="0 0 24 24" fill="none" xmlns="http://www.w3.org/2000/svg">
<path fill-rule="evenodd" clip-rule="evenodd" d="M21.1667 19.1667H2.83333C2.3725 19.1667 2 18.7933 2 18.3333V10C2 9.54 2.3725 9.16667 2.83333 9.16667H7.83333V5.83333C7.83333 5.37333 8.20583 5 8.66667 5H15.3333C15.7942 5 16.1667 5.37333 16.1667 5.83333V10.8333H21.1667C21.6275 10.8333 22 11.2067 22 11.6667V18.3333C22 18.7933 21.6275 19.1667 21.1667 19.1667ZM3.66667 17.5H20.3333V12.5H15.3333C14.8725 12.5 14.5 12.1267 14.5 11.6667V6.66667H9.5V10C9.5 10.46 9.1275 10.8333 8.66667 10.8333H3.66667V17.5Z" fill="#6B7084"/>
</svg>
