<svg width="24" height="24" viewBox="0 0 24 24" fill="none" xmlns="http://www.w3.org/2000/svg">
<g clip-path="url(#clip0_1265_21080)">
<path d="M12 24C18.6274 24 24 18.6274 24 12C24 5.37258 18.6274 0 12 0C5.37258 0 0 5.37258 0 12C0 18.6274 5.37258 24 12 24Z" fill="#DCD6CC"/>
<path d="M17.6927 6.62576C17.1702 6.11101 16.4657 5.82323 15.7323 5.82496C14.988 5.82496 14.2951 6.11096 13.7719 6.62576L7.3655 12.9346C7.33319 12.9671 7.30809 13.0059 7.29185 13.0487C7.27561 13.0915 7.26859 13.1373 7.27125 13.1829V16.4303L5.5 18.1749H6.47695L7.78864 16.8834H11.0672C11.1133 16.8838 11.1589 16.8747 11.2012 16.8566C11.2435 16.8385 11.2815 16.8117 11.3129 16.7781L17.6868 10.5004L17.6933 10.4939C17.9484 10.2426 18.151 9.94324 18.2894 9.61309C18.4279 9.28293 18.4995 8.92857 18.5 8.57055C18.5017 8.20915 18.4312 7.85104 18.2926 7.51728C18.1539 7.18352 17.95 6.88084 17.6927 6.62706V6.62576ZM13.9669 7.35896L14.2379 7.09246C14.636 6.70011 15.1733 6.48137 15.7323 6.48406C16.2932 6.48406 16.823 6.70116 17.2266 7.09246C17.2331 7.09896 17.2396 7.11066 17.252 7.11716C17.6361 7.50845 17.8441 8.0174 17.8441 8.56405C17.8441 9.11655 17.6231 9.63785 17.2266 10.0356L16.9491 10.3086H14.4713L16.0982 8.7064C16.1604 8.64568 16.1965 8.5631 16.1988 8.47621C16.2011 8.38931 16.1695 8.30494 16.1106 8.241C16.1041 8.2345 16.1041 8.228 16.0976 8.22215C16.0323 8.15962 15.9455 8.12471 15.8551 8.12471C15.7648 8.12471 15.6779 8.15962 15.6127 8.22215L13.9734 9.83675V7.35831L13.9669 7.35896ZM8.45749 16.2256L9.79389 14.9087H12.2717L10.9353 16.2256H8.45749ZM12.3471 12.388L13.9298 10.8293H16.4076L14.8249 12.388H12.3471ZM14.2828 12.9223L12.8073 14.375H10.3295L11.805 12.9223H14.2828ZM11.8433 9.4513L13.4319 7.8861V10.3574L11.8433 11.9284V9.4513ZM9.82574 11.4377L11.3012 9.98495V12.4562L9.82574 13.909V11.4377ZM7.93424 13.3006L9.28949 11.972V14.4433L7.93424 15.7719V13.3006Z" fill="black"/>
</g>
<defs>
<clipPath id="clip0_1265_21080">
<rect width="24" height="24" fill="white"/>
</clipPath>
</defs>
</svg>
