<svg width="24" height="24" viewBox="0 0 24 24" fill="none" xmlns="http://www.w3.org/2000/svg">
<g clip-path="url(#clip0_1265_21076)">
<path d="M12 24C18.6274 24 24 18.6274 24 12C24 5.37258 18.6274 0 12 0C5.37258 0 0 5.37258 0 12C0 18.6274 5.37258 24 12 24Z" fill="#2C3E50"/>
<path d="M17.7993 15.8105V15.2096C17.7993 15.0906 17.7194 15.0113 17.598 15.0113H17.1984V14.408C17.1984 14.2884 17.1185 14.2073 16.9995 14.2073H16.5993V9.79369H16.9971C17.1167 9.79369 17.1984 9.71437 17.1984 9.59299V8.99208H17.598C17.6451 8.99406 17.6913 8.97879 17.7279 8.94914C17.7645 8.91949 17.789 8.8775 17.7969 8.83104C17.8173 8.73129 17.7771 8.65197 17.6977 8.60991L12.0985 5.8025C12.0405 5.78263 11.9775 5.78263 11.9195 5.8025L6.11958 8.60991C6.0815 8.63064 6.05119 8.66318 6.0332 8.70263C6.01521 8.74207 6.01052 8.7863 6.01983 8.82864C6.01983 8.93079 6.09975 8.99208 6.1989 8.99208H6.7998V9.59299C6.7998 9.71196 6.87972 9.79128 6.9987 9.79128H7.3989V14.2073H7.0011C6.88092 14.2073 6.7998 14.2866 6.7998 14.4056V15.0089H6.4002C6.28002 15.0089 6.2007 15.0882 6.2007 15.2078V15.8105C6.08172 15.8105 6 15.8904 6 16.0118C6 16.1332 6.07932 16.2125 6.1989 16.2125H17.7993C17.9183 16.2125 18 16.1332 18 16.0142C18 15.894 17.9207 15.8105 17.8017 15.8105H17.7993ZM7.1976 9.39168V8.99208H16.7964V9.39168H7.1976ZM15.3957 9.79429V14.2073H14.5977V9.79369H15.3957V9.79429ZM13.3959 9.79429V14.2073H12.5961V9.79369H13.3953L13.3959 9.79429ZM11.3961 9.79429V14.2073H10.5981V9.79369H11.3961V9.79429ZM9.39629 9.79429V14.2073H8.5989V9.79369H9.39629V9.79429ZM16.7964 15.0089H7.2V14.6069H16.7982V15.0089H16.7964Z" fill="white"/>
</g>
<defs>
<clipPath id="clip0_1265_21076">
<rect width="24" height="24" fill="white"/>
</clipPath>
</defs>
</svg>
