<svg viewBox="0 0 24 24" fill="none" xmlns="http://www.w3.org/2000/svg">
<path d="M12.1196 3C10.3131 3.0071 8.58265 3.72786 7.30528 5.00523C6.02791 6.2826 5.30715 8.01305 5.30005 9.81952C5.3002 10.5723 5.42155 11.3201 5.65944 12.0343C5.74511 12.2683 5.91716 12.4607 6.14025 12.5718C6.36333 12.6829 6.62051 12.7044 6.85892 12.6318C7.08933 12.5436 7.27749 12.3709 7.38515 12.149C7.4928 11.927 7.51186 11.6723 7.43845 11.4368C7.23642 10.8804 7.14634 10.2895 7.17339 9.69822C7.20216 8.74477 7.50752 7.82024 8.05228 7.03721C8.59705 6.25418 9.35772 5.64642 10.2417 5.28794C11.1257 4.92946 12.0948 4.83572 13.0311 5.01813C13.9674 5.20054 14.8304 5.65123 15.5152 6.31534C16.1999 6.97944 16.6768 7.8283 16.8878 8.75856C17.0987 9.68883 17.0347 10.6604 16.7034 11.5549C16.3722 12.4494 15.788 13.2283 15.022 13.7968C14.256 14.3653 13.3412 14.6988 12.3891 14.7567C12.3891 14.7567 11.4322 14.8151 10.956 14.8735C10.7806 14.8989 10.6067 14.9333 10.4349 14.9768C10.429 14.9828 10.4221 14.9876 10.4143 14.9908C10.4066 14.994 10.3983 14.9957 10.39 14.9957C10.3816 14.9957 10.3733 14.994 10.3656 14.9908C10.3579 14.9876 10.3509 14.9828 10.3451 14.9768C10.3367 14.9659 10.3321 14.9525 10.3321 14.9386C10.3321 14.9248 10.3367 14.9114 10.3451 14.9005L10.4933 14.0918L11.3918 10.0486C11.4436 9.80617 11.397 9.55305 11.2622 9.34495C11.1274 9.13685 10.9155 8.99083 10.673 8.939C10.4305 8.88717 10.1774 8.93378 9.96932 9.06858C9.76122 9.20338 9.6152 9.41533 9.56337 9.65779C9.56337 9.65779 7.42497 19.5546 7.42497 19.6445C7.39554 19.7601 7.38945 19.8805 7.40705 19.9986C7.42465 20.1166 7.4656 20.23 7.5275 20.332C7.58939 20.4341 7.671 20.5227 7.76756 20.5929C7.86411 20.6631 7.97367 20.7133 8.08985 20.7406H8.13927C8.25554 20.7707 8.37666 20.7771 8.49547 20.7596C8.61427 20.742 8.72835 20.7008 8.83096 20.6384C8.93357 20.576 9.02263 20.4936 9.09287 20.3962C9.16311 20.2988 9.21311 20.1883 9.23992 20.0713C9.23821 20.0563 9.23821 20.0413 9.23992 20.0263C9.26687 19.9095 9.53642 18.5932 9.53642 18.5932C9.63617 18.108 9.88207 17.665 10.2411 17.3237C10.6 16.9824 11.0549 16.7591 11.5445 16.684C11.7512 16.6525 12.6182 16.5941 12.6182 16.5941C14.3432 16.4221 15.9378 15.5992 17.0774 14.293C18.217 12.9867 18.816 11.2952 18.7525 9.56289C18.689 7.83054 17.9676 6.18751 16.7354 4.96825C15.5031 3.74899 13.8525 3.04515 12.1196 3V3Z" fill="#1E1E1E"/>
<path d="M12.5329 18.7226C12.3853 18.6919 12.2331 18.6908 12.0851 18.7195C11.9371 18.7482 11.7963 18.806 11.6709 18.8896C11.5455 18.9732 11.438 19.081 11.3546 19.2065C11.2712 19.3321 11.2136 19.473 11.1852 19.6211C11.1535 19.7665 11.1507 19.9168 11.1772 20.0632C11.2036 20.2097 11.2587 20.3496 11.3392 20.4747C11.4197 20.5999 11.5242 20.708 11.6465 20.7928C11.7689 20.8776 11.9067 20.9374 12.0522 20.9688H12.0837C12.2271 21.0034 12.3759 21.0092 12.5216 20.9858C12.6672 20.9625 12.8068 20.9104 12.9322 20.8327C13.0576 20.7549 13.1662 20.6531 13.2519 20.533C13.3376 20.4129 13.3986 20.277 13.4314 20.1332V20.0703C13.4826 19.7733 13.418 19.468 13.2509 19.2173C13.0837 18.9666 12.8267 18.7895 12.5329 18.7226Z" fill="#E6007A"/>
</svg>