<svg viewBox="0 0 24 24" fill="none" xmlns="http://www.w3.org/2000/svg">
<g clip-path="url(#clip0_1265_21072)">
<path d="M12 24C18.6274 24 24 18.6274 24 12C24 5.37258 18.6274 0 12 0C5.37258 0 0 5.37258 0 12C0 18.6274 5.37258 24 12 24Z" fill="#4C5A95"/>
<path d="M20 8.19125L19.968 7.67707L19.8095 8.10834L18.9178 8.85743L17.8967 9.00943L17.5913 8.72652L18.4865 7.53889L19.4029 7.27271L18.4109 7.29307L16.9687 8.29816L15.6167 8.20507L13.7185 7.27271L12.5971 7.49016L9.09818 10.2873L7.41236 10.8087L6.71855 11.4858L5.47782 11.5025L4.86327 12.6007L4 12.8392L4.816 12.9462L5.57455 11.9622L6.74691 12.1971L6.72509 13.2502L6.13964 14.7658L5.80509 16.168L5.44509 16.7273L6.35855 16.5338L6.25455 15.9607L7.03127 14.4203L8.52655 13.8407L9.10545 12.9185L10.0836 12.2349L12.0255 12.5076L13.9811 11.6822L13.6502 12.9876L12.7804 13.0633L12.5324 14.1338L13.2764 13.6574L14.5098 13.1433L15.4735 11.6894L15.5345 11.0022L16.0524 11.5163L17.5585 12.4247L18.4145 12.0342L18.3644 10.1149L18.1156 9.37234L19.2342 9.09961L20 8.19125Z" fill="white"/>
</g>
<defs>
<clipPath id="clip0_1265_21072">
<rect width="24" height="24" fill="white"/>
</clipPath>
</defs>
</svg>