<svg width="24" height="24" viewBox="0 0 24 24" fill="none" xmlns="http://www.w3.org/2000/svg">
<path d="M16.583 8.9138C16.2509 8.71807 15.8192 8.71807 15.4539 8.9138L12.8634 10.4144L11.1033 11.3931L8.51291 12.8937C8.18081 13.0894 7.74907 13.0894 7.38376 12.8937L5.32472 11.7192C4.99262 11.5235 4.76015 11.1647 4.76015 10.7732V8.45709C4.76015 8.06563 4.95941 7.70679 5.32472 7.51106L7.35055 6.3693C7.68265 6.17357 8.11439 6.17357 8.4797 6.3693L10.5055 7.51106C10.8376 7.70679 11.0701 8.06563 11.0701 8.45709V9.9577L12.8302 8.94642V7.44582C12.8302 7.05436 12.631 6.69552 12.2657 6.49979L8.51291 4.34675C8.18081 4.15102 7.74907 4.15102 7.38376 4.34675L3.56458 6.49979C3.19926 6.69552 3 7.05436 3 7.44582V11.7845C3 12.176 3.19926 12.5349 3.56458 12.7306L7.38376 14.8836C7.71586 15.0793 8.1476 15.0793 8.51291 14.8836L11.1033 13.4156L12.8634 12.4043L15.4539 10.9364C15.786 10.7406 16.2177 10.7406 16.583 10.9364L18.6088 12.0781C18.9409 12.2738 19.1734 12.6327 19.1734 13.0242V15.3403C19.1734 15.7318 18.9742 16.0906 18.6088 16.2863L16.583 17.4607C16.2509 17.6565 15.8192 17.6565 15.4539 17.4607L13.4281 16.319C13.0959 16.1232 12.8634 15.7644 12.8634 15.3729V13.8723L11.1033 14.8836V16.3842C11.1033 16.7756 11.3026 17.1345 11.6679 17.3302L15.4871 19.4833C15.8192 19.679 16.2509 19.679 16.6162 19.4833L20.4354 17.3302C20.7675 17.1345 21 16.7756 21 16.3842V12.0455C21 11.654 20.8007 11.2952 20.4354 11.0995L16.583 8.9138Z" fill="#8247E5"/>
</svg>
