<svg width="24" height="24" viewBox="0 0 24 24" fill="none" xmlns="http://www.w3.org/2000/svg">
<path d="M19.2789 8.07052L18.4188 7.44177L20.4303 6.42065L19.2789 8.07052Z" fill="#3F4B80"/>
<path d="M14.1656 6L16.6706 7.29531L16.9714 9.38482L14.1656 6Z" fill="#313A62"/>
<path d="M16.9714 9.38482L16.5719 11.1623L14.1656 6L16.9714 9.38482Z" fill="#3F4B80"/>
<path d="M16.5719 11.1624L12.7369 6.29317L14.1703 6.00952L16.5719 11.1624Z" fill="#4B5897"/>
<path d="M16.5719 11.1627L12.4127 9.527L12.737 6.29346L16.5719 11.1627Z" fill="#5161A4"/>
<path d="M12.7369 6.29346L12.4126 9.527L8.12646 10.1321L12.7369 6.29346Z" fill="#4B5897"/>
<path d="M16.5719 11.162L11.985 12.4148L12.4127 9.52637L16.5719 11.162Z" fill="#4B5897"/>
<path d="M11.985 12.4151L16.5719 11.1624L14.504 12.1315L11.985 12.4151Z" fill="#3F4B80"/>
<path d="M9.4519 12.8495L11.985 12.4146L12.0273 13.2844L9.4519 12.8495Z" fill="#3F4B80"/>
<path d="M12.0273 13.2853L11.985 12.4155L14.504 12.1318L12.0273 13.2853Z" fill="#313A62"/>
<path d="M8.12646 10.1315L12.4126 9.52637L11.9849 12.4148L8.12646 10.1315Z" fill="#3F4B80"/>
<path d="M8.12646 10.1323L11.9849 12.4157L9.45178 12.8506L8.12646 10.1323Z" fill="#4B5897"/>
<path d="M8.12646 10.1323L9.45178 12.8506L8.17346 13.7913L8.12646 10.1323Z" fill="#313A62"/>
<path d="M5.95062 10.864L6.46288 13.9605L5.05298 11.8284L5.95062 10.864Z" fill="#5161A4"/>
<path d="M3.42688 11.8478L5.05297 11.8289L5.06237 12.8263L3.42688 11.8478Z" fill="#313A62"/>
<path d="M3.55847 12.5239L3.42688 11.8479L5.06237 12.8265L3.55847 12.5239Z" fill="#3F4B80"/>
<path d="M3.55847 12.5239L2.62793 13.3512L3.42688 11.8479L3.55847 12.5239Z" fill="#4B5897"/>
<path d="M2.62792 13.3508L2.56213 13.8519L1.5 13.677L2.62792 13.3508Z" fill="#313A62"/>
<path d="M2.62793 13.3512L3.55847 12.5239L2.56213 13.8523L2.62793 13.3512Z" fill="#5161A4"/>
<path d="M5.05298 11.8289L6.46288 13.9609L5.06238 14.2398L5.05298 11.8289Z" fill="#3F4B80"/>
<path d="M5.46649 15.8281L4.44665 17.9507L4.29626 16.315L5.46649 15.8281Z" fill="#3F4B80"/>
<path d="M4.29633 16.3152L4.44672 17.9509L3.85925 18.2345L4.29633 16.3152Z" fill="#1F243E"/>
<path d="M4.44659 17.9514L4.60168 18.7503L3.38916 19.0009L4.44659 17.9514Z" fill="#3F4B80"/>
<path d="M3.85913 18.2351L4.44659 17.9514L3.38916 19.0009L3.85913 18.2351Z" fill="#313A62"/>
<path d="M5.06231 14.2406L6.46282 13.9617L4.29626 16.3159L5.06231 14.2406Z" fill="#313A62"/>
<path d="M6.46282 13.9617L7.41686 15.0537L4.29626 16.3159L6.46282 13.9617Z" fill="#4B5897"/>
<path d="M5.95056 10.8651L8.12652 10.1323L6.46283 13.9615L5.95056 10.8651Z" fill="#4B5897"/>
<path d="M6.46289 13.9615L8.12659 10.1323L8.17358 13.7913L6.46289 13.9615Z" fill="#3F4B80"/>
<path d="M7.41693 15.0527L6.46289 13.9607L8.17358 13.7905L7.41693 15.0527Z" fill="#313A62"/>
<path d="M14.5042 12.1319L16.5203 12.1177L15.2326 14.0937L14.5042 12.1319Z" fill="#4B5897"/>
<path d="M14.5042 12.1315L16.572 11.1624L16.5203 12.1173L14.5042 12.1315Z" fill="#5161A4"/>
<path d="M14.1093 13.881L14.504 12.1318L15.2325 14.0937L14.1093 13.881Z" fill="#3F4B80"/>
<path d="M13.6251 14.7977L14.1092 13.8806L15.2324 14.0933L13.6251 14.7977Z" fill="#4B5897"/>
<path d="M12.6477 15.4548L12.9532 13.9515L14.1093 13.8806L12.6477 15.4548Z" fill="#3F4B80"/>
<path d="M12.6477 15.4548L14.1093 13.8806L13.6252 14.7977L12.6477 15.4548Z" fill="#313A62"/>
<path d="M18.4188 7.44237L20.3363 6.09033L20.4303 6.42125L18.4188 7.44237Z" fill="#495692"/>
<path d="M20.3363 6.08989L21.906 6.00952L20.4303 6.42081L20.3363 6.08989Z" fill="#5D6CAC"/>
<path d="M19.3306 9.17739L18.4564 8.55811L21.4125 8.56283L19.3306 9.17739Z" fill="#4F60A3"/>
<path d="M18.4564 8.55748L20.999 8.22656L21.4125 8.56221L18.4564 8.55748Z" fill="#495692"/>
<path d="M20.999 8.22702L22.1646 7.20117L21.4126 8.56266L20.999 8.22702Z" fill="#3F4B80"/>
<path d="M21.4126 8.56266L22.1645 7.20117L22.4136 7.31936L21.4126 8.56266Z" fill="#4F60A3"/>
<path d="M22.1647 7.20054L22.3715 6.60962L22.4138 7.31873L22.1647 7.20054Z" fill="#313A62"/>
<path d="M16.9714 9.38477L17.2534 11.8714L16.5719 11.1623L16.9714 9.38477Z" fill="#313A62"/>
<path d="M17.2534 11.8716L16.9714 9.38501L19.3307 9.177L17.2534 11.8716Z" fill="#3F4B80"/>
<path d="M19.3306 9.17667L16.9713 9.38468L16.6705 7.29517L19.3306 9.17667Z" fill="#4B5897"/>
<path d="M19.2789 8.0708L19.6595 8.4159L18.4564 8.55772L19.2789 8.0708Z" fill="#313A62"/>
<path d="M16.6705 7.29517L19.2789 8.07046L18.4564 8.55738L16.6705 7.29517Z" fill="#3F4B80"/>
<path d="M16.6705 7.29517L18.4188 7.44172L19.2789 8.07046L16.6705 7.29517Z" fill="#313A62"/>
<path d="M19.2225 13.1102L19.3306 9.177L20.2706 9.94757L19.2225 13.1102Z" fill="#3F4B80"/>
<path d="M19.2225 13.1102L19.3306 9.177L17.2533 11.8716L19.2225 13.1102Z" fill="#495692"/>
<path d="M20.2705 9.94766L19.9697 8.96436L19.3306 9.17709L20.2705 9.94766Z" fill="#313A62"/>
<path d="M20.3975 12.566L19.2225 13.1097L20.2706 9.94702L20.3975 12.566Z" fill="#313A62"/>
</svg>
