<svg viewBox="0 0 24 24" fill="none" xmlns="http://www.w3.org/2000/svg">
<g clip-path="url(#clip0_1265_21068)">
<path d="M12 24C18.6274 24 24 18.6274 24 12C24 5.37258 18.6274 0 12 0C5.37258 0 0 5.37258 0 12C0 18.6274 5.37258 24 12 24Z" fill="#105B2F"/>
<path fill-rule="evenodd" clip-rule="evenodd" d="M9.02475 13.6349L8.73225 15.1251L8.19975 17.8634C8.18475 17.9459 8.16375 18.0014 8.05875 17.9999C7.39725 17.9901 6.73575 17.9849 6.07425 17.9774C6.0585 17.9774 6.042 17.9669 6 17.9511L7.4925 10.4961H6.23475C6.23775 10.4406 6.23625 10.4076 6.24225 10.3761C6.3195 9.97337 6.40275 9.57137 6.4725 9.16712C6.492 9.05462 6.54225 9.02612 6.64725 9.02687C6.95475 9.02987 7.26225 9.01862 7.56825 9.02912C7.7145 9.03362 7.77075 8.99162 7.79925 8.84762C7.97025 7.95662 8.15325 7.06862 8.32875 6.17912C8.34975 6.07337 8.373 6.00062 8.511 6.00062C10.017 6.00512 11.5237 5.99087 13.0297 6.01037C13.9087 6.02162 14.79 6.06662 15.6547 6.24437C15.9525 6.30587 16.2547 6.38537 16.5307 6.50837C17.3242 6.86087 17.802 7.47137 17.9347 8.31662C18.141 9.62987 17.8628 10.8366 17.0197 11.8881C16.3973 12.6621 15.5437 13.0964 14.5905 13.3604C13.8345 13.5696 13.059 13.6349 12.2775 13.6364C11.2613 13.6386 10.245 13.6364 9.22875 13.6356H9.02475V13.6349ZM9.441 11.5814H9.65325C10.728 11.5814 11.8027 11.5836 12.8782 11.5799C13.107 11.5799 13.3387 11.5701 13.566 11.5424C14.4337 11.4389 15.093 11.0226 15.5145 10.2674C15.6954 9.93984 15.7561 9.55943 15.6862 9.19187C15.5977 8.66912 15.2857 8.32787 14.7555 8.23187C14.3673 8.15788 13.9738 8.11525 13.5787 8.10437C12.4747 8.08412 11.3707 8.09237 10.266 8.08937C10.2262 8.08937 10.1865 8.09537 10.1332 8.09987L9.95025 9.03587H13.0177L12.7358 10.4894H9.6585L9.441 11.5814Z" fill="white"/>
</g>
<defs>
<clipPath id="clip0_1265_21068">
<rect width="24" height="24" fill="white"/>
</clipPath>
</defs>
</svg>