<svg width="24" height="24" viewBox="0 0 24 24" fill="none" xmlns="http://www.w3.org/2000/svg">
<path fill-rule="evenodd" clip-rule="evenodd" d="M11.1667 22C6.1125 22 2 17.9867 2 13.0542C2 9.16334 4.57917 5.74084 8.4175 4.5375C8.85917 4.40084 9.32417 4.645 9.46167 5.08417C9.59917 5.52334 9.355 5.99084 8.91583 6.12834C5.825 7.0975 3.66667 9.945 3.66667 13.0542C3.66667 17.0683 7.03083 20.3333 11.1667 20.3333C15.3025 20.3333 18.6667 17.0683 18.6667 13.0542C18.6667 9.945 16.5083 7.0975 13.4175 6.12834C12.9783 5.99084 12.7342 5.52334 12.8717 5.08417C13.0083 4.645 13.4742 4.40084 13.9158 4.5375C17.7542 5.74084 20.3333 9.16334 20.3333 13.0542C20.3333 17.9867 16.2208 22 11.1667 22ZM11.1667 8.66667C10.7058 8.66667 10.3333 8.29333 10.3333 7.83333V2.83333C10.3333 2.37333 10.7058 2 11.1667 2C11.6275 2 12 2.37333 12 2.83333V7.83333C12 8.29333 11.6275 8.66667 11.1667 8.66667Z" fill="#6B7084"/>
</svg>
