<svg width="24" height="24" viewBox="0 0 24 24" fill="none" xmlns="http://www.w3.org/2000/svg">
<g clip-path="url(#clip0_1265_21064)">
<path d="M12 24C18.6274 24 24 18.6274 24 12C24 5.37258 18.6274 0 12 0C5.37258 0 0 5.37258 0 12C0 18.6274 5.37258 24 12 24Z" fill="#05BCA9"/>
<path fill-rule="evenodd" clip-rule="evenodd" d="M18.9972 11.9737C19.0031 12.0003 18.9997 12.0282 18.9876 12.0527C18.9755 12.0772 18.9554 12.0969 18.9307 12.1084L18.8863 12.1294L17.5411 13.4782L18.0626 15.4295C18.0708 15.4602 18.0665 15.493 18.0507 15.5205C18.0348 15.5481 18.0087 15.5682 17.978 15.5765L16.106 16.0788L15.5897 18.0098C15.5816 18.0404 15.5617 18.0665 15.5344 18.0825C15.5071 18.0985 15.4745 18.103 15.4439 18.095L13.4663 17.5641L12.0673 18.9659C12.0563 18.9771 12.0431 18.986 12.0286 18.992C12.0141 18.9981 11.9985 19.0012 11.9827 19.0012C11.967 19.0012 11.9514 18.9981 11.9369 18.992C11.9224 18.986 11.9092 18.9771 11.8982 18.9659L10.5162 17.5804L8.60153 18.095C8.5864 18.099 8.57062 18.1 8.55509 18.098C8.53957 18.0959 8.5246 18.0908 8.51105 18.0829C8.4975 18.0751 8.48564 18.0646 8.47614 18.0522C8.46664 18.0397 8.45969 18.0255 8.45569 18.0104L7.93883 16.0794L6.06738 15.5765C6.05215 15.5725 6.03787 15.5655 6.02536 15.5559C6.01286 15.5463 6.00237 15.5343 5.99451 15.5206C5.98665 15.507 5.98157 15.4919 5.97956 15.4763C5.97754 15.4606 5.97864 15.4447 5.98279 15.4295L6.4874 13.5412L5.03481 12.0845C5.01251 12.062 5 12.0316 5 11.9999C5 11.9682 5.01251 11.9378 5.03481 11.9153L6.44715 10.4983L5.94254 8.61053C5.93435 8.57974 5.93872 8.54696 5.95469 8.51939C5.97066 8.49183 5.99692 8.47173 6.02771 8.46352L7.98491 7.93732L8.49478 6.0297C8.50299 5.99892 8.52308 5.97265 8.55065 5.95668C8.57822 5.94071 8.611 5.93634 8.64179 5.94453L10.4934 6.44215L11.8982 5.03389C11.9209 5.01214 11.9512 5 11.9827 5C12.0142 5 12.0445 5.01214 12.0673 5.03389L13.489 6.45848L15.4036 5.94395C15.4188 5.9399 15.4347 5.93889 15.4503 5.94099C15.4659 5.94308 15.4809 5.94823 15.4945 5.95614C15.5081 5.96405 15.52 5.97457 15.5296 5.98709C15.5391 5.99962 15.5461 6.0139 15.55 6.02912L15.5635 6.07929C15.5664 6.08683 15.5685 6.09465 15.5699 6.10262L16.0599 7.93674L18.0177 8.46294C18.0819 8.48044 18.1192 8.54578 18.1023 8.60995L17.5808 10.5607L18.8974 11.8809C18.9214 11.8843 18.9438 11.895 18.9617 11.9115C18.9795 11.9279 18.9919 11.9494 18.9972 11.9731V11.9737ZM17.4693 13.2104L18.2546 12.424L17.3696 12.8365L17.4693 13.211V13.2104ZM17.7558 15.2096L17.3457 13.6742L16.5307 14.4909V14.4915L17.7558 15.2096ZM16.4665 14.7312L16.1778 15.8116L17.6391 15.419L16.4665 14.7318V14.7312ZM15.4176 17.7274L15.8394 16.1506L14.6878 16.4598L15.4176 17.7274ZM13.9569 17.0711L13.6611 17.3681L14.8214 17.6796L13.9569 17.0711ZM12.1023 18.5914L13.1991 17.4917L12.1023 17.1971V18.5914ZM11.8632 17.2187L10.7833 17.5087L11.8626 18.5914V17.2187H11.8632ZM8.83605 17.7834L10.3213 17.385L9.52559 16.5869L8.83605 17.7834ZM8.20601 16.1506L8.53561 17.3838L8.63479 16.2661L8.20601 16.1506ZM6.4034 15.4185L7.86766 15.8116L7.57597 14.7225L6.4034 15.4185ZM7.45755 14.5142L6.68283 13.7372L6.28964 15.2073L7.45755 14.5142ZM5.42742 12.1399L6.55916 13.274L6.86193 12.1399H5.42742ZM6.64083 11.2211L6.5189 10.7661L5.56568 11.7216L6.64083 11.2211ZM6.2488 8.82813L6.64258 10.3023L7.43013 9.513L6.2488 8.82813ZM7.61272 9.32982L7.91374 8.20509L6.36781 8.62045L7.60514 9.33741L7.61272 9.32982ZM8.64645 6.38964L8.2521 7.86557L9.32958 7.57622L8.64645 6.39023V6.38964ZM10.0127 6.92401L10.298 6.63816L9.18024 6.33772L10.0127 6.92401ZM11.8632 5.40841L10.7606 6.5139L11.8632 6.81025V5.40841ZM12.1023 6.83184L13.2224 6.53082L12.1023 5.40841V6.83184ZM15.2502 6.23447L13.6844 6.65449L14.5233 7.49629L15.2502 6.23447ZM15.427 7.76756L15.7933 7.86557L15.5115 6.81142L15.427 7.76756ZM17.6729 8.61928L16.1317 8.20509L16.4292 9.32049L17.6723 8.6187L17.6729 8.61928ZM16.5499 9.52759L17.3853 10.3647L17.7978 8.82288L16.5499 9.52759ZM18.5579 11.8791L17.5096 10.8285L17.2284 11.8791H18.5579ZM17.1777 12.1189L17.306 12.6002L18.3391 12.1189H17.1782H17.1777ZM16.9968 12.7443L17.0861 12.7035L17.047 12.5576L16.9974 12.7443H16.9968ZM16.9163 13.0465L16.6538 14.0271L17.2739 13.4058L17.1491 12.938L16.9163 13.0465ZM16.1923 14.8298L14.8605 16.1646L15.9106 15.8828L16.1923 14.8298ZM14.5198 16.1675L16.316 14.3666L16.6334 13.1783L13.6098 14.5872L14.5198 16.1675ZM14.4685 16.5584L14.129 16.8985L15.0297 17.5326L14.4685 16.5584ZM13.832 16.6896L13.93 16.7585L14.0601 16.6278L13.832 16.6896ZM13.5304 16.7701L12.485 17.0513L13.3945 17.2957L13.7585 16.9305L13.531 16.7701H13.5304ZM11.5604 17.0513L9.8762 16.5986L10.5879 17.3127L11.5604 17.0513ZM8.90197 15.9616L8.8903 16.0858L9.07523 16.1354L8.90197 15.9616ZM8.68087 15.7399L7.88224 14.9407L8.13425 15.884L8.65637 16.024L8.68087 15.7411V15.7399ZM7.42021 14.1374L6.99785 12.5576L6.754 13.4694L7.42021 14.1374ZM6.82226 11.9002L6.70325 11.4562L5.75061 11.8996H6.82226V11.9002ZM7.09294 11.2742L6.92376 11.3535L6.99785 11.6312L7.09294 11.2742ZM7.17403 10.9726L7.48905 9.79302L6.71433 10.5701L6.86076 11.1184L7.17403 10.9726ZM7.95108 8.9903L9.03556 7.90349L8.18034 8.13333L7.95108 8.99089V8.9903ZM9.51684 7.42104L9.8412 7.0961L8.98014 6.48998L9.51684 7.42104ZM10.1936 7.34403L10.0401 7.23611L9.83594 7.44029L10.1936 7.34403ZM10.4952 7.26295L11.5604 6.9771L10.5652 6.70991L10.2116 7.06343L10.4952 7.26295ZM12.4844 6.9771L14.1004 7.41112L13.4178 6.72683L12.4844 6.9771ZM15.1545 8.12867L15.1709 7.94666L14.9008 7.87432L15.1545 8.12867ZM15.375 8.35035L16.1229 9.09998L15.8645 8.13333L15.4054 8.00966L15.375 8.35035ZM16.5849 9.90211L17.047 11.6312L17.3142 10.6331L16.5849 9.90269V9.90211ZM13.2166 13.9046L13.4896 14.3789L16.7145 12.8767L16.9169 12.1195H15.0414L14.9463 13.1894C14.944 13.2145 14.9338 13.2383 14.9172 13.2573C14.9006 13.2763 14.8784 13.2896 14.8538 13.2952C14.8292 13.3009 14.8035 13.2986 14.7803 13.2887C14.7571 13.2788 14.7376 13.2618 14.7246 13.2402L14.1424 12.2543L13.2166 13.9046ZM12.7592 14.7196L13.272 14.4804L13.0801 14.1479L12.7592 14.7196ZM10.7256 14.5037L13.5765 16.5105L14.325 16.3093L13.3916 14.6892L12.5235 15.0941C12.5005 15.105 12.4746 15.1082 12.4495 15.1033C12.4245 15.0984 12.4017 15.0857 12.3845 15.0669C12.3672 15.0482 12.3564 15.0244 12.3536 14.9991C12.3508 14.9737 12.3562 14.9482 12.3689 14.9261L12.9132 13.9559L11.0289 13.9769L10.7256 14.5031V14.5037ZM10.6054 14.712L9.68952 16.3011L12.023 16.9276L13.2749 16.591L10.6054 14.712ZM10.7507 13.9799L9.99404 13.9886L10.529 14.3649L10.7507 13.9799ZM9.23974 12.1399L8.92939 15.6506L9.47426 16.1961L10.4088 14.5732L9.55243 13.9711C9.53176 13.9565 9.51626 13.9356 9.50813 13.9116C9.5 13.8876 9.49967 13.8617 9.50717 13.8375C9.51468 13.8133 9.52964 13.7921 9.54992 13.7769C9.5702 13.7617 9.59476 13.7533 9.6201 13.7529L10.7775 13.7395L9.83244 12.1399H9.24032H9.23974ZM9.00056 12.1399H7.13378L7.75798 14.4763L8.70887 15.429L9.00056 12.1399ZM9.6901 11.9002L9.31733 11.2689L9.26133 11.9002H9.6901ZM10.536 9.67051L7.37646 11.1429L7.17403 11.9002H9.02156L9.11198 10.8769C9.1146 10.852 9.12494 10.8285 9.14156 10.8098C9.15818 10.791 9.18025 10.7779 9.20468 10.7723C9.22911 10.7667 9.25468 10.7689 9.27781 10.7786C9.30094 10.7882 9.32047 10.8049 9.33366 10.8262L9.91878 11.8161L10.8329 10.1868L10.5354 9.67051H10.536ZM10.4158 9.46225L9.46492 7.8119L7.8274 9.45408L7.45696 10.8408L10.4158 9.46225ZM13.3367 9.55676L10.4491 7.52371L9.69302 7.72731L10.6334 9.36074L11.5668 8.92555C11.5899 8.91466 11.6158 8.91143 11.6408 8.91632C11.6658 8.9212 11.6886 8.93395 11.7059 8.95271C11.7231 8.97147 11.7339 8.99525 11.7367 9.02059C11.7395 9.04593 11.7342 9.07149 11.7214 9.09356L11.1754 10.0666L13.055 10.0456L13.3367 9.55676ZM13.4569 9.34791L14.3851 7.73606L12.0224 7.10135L10.7507 7.44321L13.4569 9.34791ZM13.3332 10.0421L14.0158 10.0351L13.5333 9.69501L13.3332 10.0427V10.0421ZM14.801 12.1195H14.3401L14.7409 12.7974L14.801 12.1195ZM10.9694 9.94353L11.3311 9.30007L10.7536 9.56901L10.9694 9.94411V9.94353ZM13.048 13.7162L14.0012 12.0162L12.9832 10.293L12.9803 10.2866L11.0394 10.3081L10.0594 12.0547L11.054 13.7366L13.0363 13.7144C13.0404 13.7144 13.0439 13.7156 13.048 13.7162ZM15.3476 8.66187L15.0624 11.8797H16.8661L16.2466 9.56376L15.3476 8.66187ZM14.8226 11.8797L15.1271 8.44019L14.5747 7.88657L13.6529 9.48617L14.458 10.052C14.4789 10.0666 14.4946 10.0875 14.5029 10.1116C14.5112 10.1357 14.5116 10.1618 14.5041 10.1861C14.4965 10.2105 14.4815 10.2318 14.461 10.247C14.4406 10.2623 14.4158 10.2706 14.3903 10.2708L13.2557 10.2831L14.199 11.8797H14.822H14.8226ZM15.1919 7.70456L15.2852 6.65274L14.7485 7.58497L15.1919 7.70456ZM8.8693 16.3291L8.77304 17.413L9.32725 16.4516L8.8693 16.3291Z" fill="white"/>
</g>
<defs>
<clipPath id="clip0_1265_21064">
<rect width="24" height="24" fill="white"/>
</clipPath>
</defs>
</svg>
