<svg width="24" height="24" viewBox="0 0 24 24" fill="none" xmlns="http://www.w3.org/2000/svg">
<g clip-path="url(#clip0_1265_21060)">
<path d="M12 24C18.6274 24 24 18.6274 24 12C24 5.37258 18.6274 0 12 0C5.37258 0 0 5.37258 0 12C0 18.6274 5.37258 24 12 24Z" fill="#3CB054"/>
<path fill-rule="evenodd" clip-rule="evenodd" d="M7 6C15.062 6.298 18.1707 11.1373 16.61 15.4553C16.168 16.6573 15.698 17.3153 14.71 18C14.75 17.8267 14.7913 17.6533 14.8233 17.4753C15.4073 14.1067 14.3 10.0527 8.882 7.81333C13.1927 10.3787 14.932 14.9433 12.922 17.89C9.5 18.428 7 15.506 7 12.1393V6Z" fill="white"/>
</g>
<defs>
<clipPath id="clip0_1265_21060">
<rect width="24" height="24" fill="white"/>
</clipPath>
</defs>
</svg>
