<svg viewBox="0 0 24 24" fill="none" xmlns="http://www.w3.org/2000/svg">
<g clip-path="url(#clip0_1265_21056)">
<path d="M12 24C18.6274 24 24 18.6274 24 12C24 5.37258 18.6274 0 12 0C5.37258 0 0 5.37258 0 12C0 18.6274 5.37258 24 12 24Z" fill="#348F8D"/>
<path d="M16.7518 6.17899C16.9071 6.34009 16.9939 6.55514 16.9939 6.77889C16.9939 7.00265 16.9071 7.21769 16.7518 7.37879L14.7175 9.46448C14.6529 9.53052 14.5778 9.58542 14.4952 9.62696C14.3459 9.71122 14.1728 9.74347 14.0032 9.71865C13.8335 9.69382 13.6769 9.61333 13.558 9.48982L11.5315 7.41389L7.62852 11.4169L8.57095 12.3808C8.70619 12.523 8.78123 12.7119 8.78038 12.9082C8.77953 13.1044 8.70286 13.2927 8.5664 13.4337C8.4998 13.5026 8.42008 13.5575 8.33196 13.5951C8.24383 13.6327 8.14906 13.6523 8.05325 13.6527C7.95743 13.6531 7.8625 13.6344 7.77404 13.5975C7.68558 13.5607 7.60539 13.5065 7.53818 13.4383L6.0394 11.9089C5.90184 11.7666 5.82495 11.5765 5.82495 11.3786C5.82495 11.1807 5.90184 10.9905 6.0394 10.8482L6.0498 10.8385C6.053 10.8354 6.05604 10.8321 6.0589 10.8287L11.0141 5.74613H11.0147L11.0154 5.74548L11.0316 5.72858C11.1553 5.60006 11.321 5.52014 11.4985 5.50332C11.6761 5.48651 11.8538 5.53391 11.9994 5.63694C12.0462 5.66878 12.0904 5.70453 12.1294 5.74548L14.0689 7.72977L15.5813 6.17899C15.6573 6.10057 15.7483 6.03822 15.8489 5.99564C15.9495 5.95306 16.0576 5.93112 16.1669 5.93112C16.2761 5.93112 16.3842 5.95306 16.4848 5.99564C16.5854 6.03822 16.6764 6.10057 16.7525 6.17899H16.7518ZM17.9594 12.0948C18.0975 12.2362 18.1748 12.4258 18.1749 12.6234C18.1751 12.821 18.098 13.0108 17.9601 13.1523L17.9497 13.162C17.9463 13.1651 17.943 13.1684 17.9399 13.1718L12.9652 18.2719C12.8896 18.3503 12.7978 18.4112 12.6961 18.4503C12.5945 18.4893 12.4856 18.5057 12.3769 18.4982C12.2683 18.4907 12.1626 18.4596 12.0673 18.4069C11.972 18.3542 11.8894 18.2813 11.8252 18.1933L9.92934 16.2538L8.42601 17.7994C8.21673 18.0152 7.91125 18.1003 7.62462 18.0217C7.338 17.943 7.11376 17.7143 7.03707 17.4205C6.96103 17.1274 7.04357 16.8141 7.2548 16.6002L9.28849 14.5152C9.40418 14.3943 9.55302 14.3124 9.7155 14.2799C9.97808 14.2214 10.2524 14.3033 10.4428 14.4983L12.4745 16.5769L16.3703 12.5836L15.4279 11.6197C15.2927 11.4775 15.2176 11.2886 15.2185 11.0923C15.2193 10.8961 15.296 10.7078 15.4324 10.5668C15.499 10.4979 15.5788 10.443 15.6669 10.4054C15.755 10.3678 15.8498 10.3482 15.9456 10.3478C16.0414 10.3474 16.1363 10.3661 16.2248 10.403C16.3133 10.4398 16.3934 10.4939 16.4607 10.5622L17.938 12.0734L17.9393 12.0747L17.9412 12.076L17.9594 12.0948Z" fill="white"/>
</g>
<defs>
<clipPath id="clip0_1265_21056">
<rect width="24" height="24" fill="white"/>
</clipPath>
</defs>
</svg>