<svg width="24" height="24" viewBox="0 0 24 24" fill="none" xmlns="http://www.w3.org/2000/svg">
<g clip-path="url(#clip0_1265_21052)">
<path d="M12 24C18.6274 24 24 18.6274 24 12C24 5.37258 18.6274 0 12 0C5.37258 0 0 5.37258 0 12C0 18.6274 5.37258 24 12 24Z" fill="#152743"/>
<path d="M12.0312 7.09081C11.1913 7.09081 10.5103 6.62299 10.5103 6.0454C10.5103 5.46782 11.1913 5 12.0312 5C12.8711 5 13.5514 5.46782 13.5514 6.0454C13.5514 6.62299 12.8711 7.09081 12.0312 7.09081ZM11.2442 18.76V7.59373H14.6345C14.7602 7.59373 14.8489 7.68755 14.8489 7.81327V14.0091C14.8489 14.1342 14.7596 14.2414 14.6345 14.2414H12.7658V18.76C12.7658 18.8858 12.67 19 12.5443 19H11.4797C11.4174 18.9976 11.3583 18.9715 11.3146 18.927C11.2708 18.8825 11.2457 18.823 11.2442 18.7607V18.76ZM10.6724 14.2408H9.38957C9.32755 14.2402 9.26815 14.2157 9.2237 14.1724C9.17925 14.1292 9.15317 14.0705 9.15088 14.0085V7.81327C9.15088 7.68755 9.26384 7.59373 9.38894 7.59373H10.6724V14.2414V14.2408Z" fill="white"/>
</g>
<defs>
<clipPath id="clip0_1265_21052">
<rect width="24" height="24" fill="white"/>
</clipPath>
</defs>
</svg>
