<svg viewBox="0 0 24 24" fill="none" xmlns="http://www.w3.org/2000/svg">
<g clip-path="url(#clip0_1265_21045)">
<path d="M12 24C18.6274 24 24 18.6274 24 12C24 5.37258 18.6274 0 12 0C5.37258 0 0 5.37258 0 12C0 18.6274 5.37258 24 12 24Z" fill="#3A8CBD"/>
<path d="M10.3104 13.3851H11.4323C11.7528 13.3861 12.0696 13.3158 12.3596 13.1792C12.6337 13.0435 12.8784 12.8556 13.0796 12.6256C13.2795 12.3876 13.4339 12.1155 13.5369 11.8227C13.6478 11.5259 13.704 11.2115 13.7027 10.8947C13.7045 10.5856 13.643 10.2794 13.5222 9.99483C13.4062 9.70658 13.2426 9.43989 13.0381 9.20593C12.8321 8.97159 12.5829 8.77911 12.3041 8.63899C12.0181 8.49121 11.7006 8.41504 11.3788 8.41703H8.43042V15.5726H10.3131L10.3104 13.3851ZM10.3104 10.1453H11.2645C11.397 10.154 11.5211 10.2136 11.6108 10.3117C11.7217 10.422 11.7913 10.6166 11.7913 10.9208C11.7913 11.225 11.7224 11.4055 11.6241 11.5038C11.5419 11.6007 11.4309 11.6696 11.3066 11.6696H10.3104V10.1459V10.1453Z" fill="white"/>
<path d="M6.00024 6.68929V17.3114C6.00024 17.6925 6.30845 18 6.68886 18H17.311C17.6914 18 17.9996 17.6925 17.9996 17.3114V6.68929C17.9997 6.5988 17.9819 6.50918 17.9474 6.42556C17.9128 6.34193 17.8621 6.26594 17.7981 6.20193C17.7342 6.13791 17.6582 6.08713 17.5746 6.05248C17.491 6.01783 17.4014 6 17.311 6H6.68886C6.59843 6 6.50889 6.01781 6.42534 6.05242C6.34179 6.08702 6.26588 6.13775 6.20194 6.20169C6.13799 6.26564 6.08727 6.34155 6.05266 6.4251C6.01806 6.50864 6.00024 6.59819 6.00024 6.68862V6.68929ZM15.897 16.5867H8.08816C7.99767 16.5868 7.90806 16.569 7.82443 16.5344C7.74081 16.4999 7.66482 16.4492 7.6008 16.3852C7.53679 16.3213 7.486 16.2453 7.45136 16.1617C7.41671 16.0781 7.39887 15.9885 7.39887 15.898V8.08925C7.39879 7.99871 7.41655 7.90904 7.45116 7.82537C7.48577 7.7417 7.53654 7.66568 7.60056 7.60166C7.66459 7.53763 7.74061 7.48686 7.82428 7.45226C7.90795 7.41765 7.99762 7.39988 8.08816 7.39997H15.897C16.278 7.39997 16.5856 7.70817 16.5856 8.08858V15.8974C16.5856 16.2785 16.278 16.5867 15.897 16.5867Z" fill="white"/>
<path d="M11.155 14.2297H15.5722V15.5869H11.155V14.2297Z" fill="white"/>
</g>
<defs>
<clipPath id="clip0_1265_21045">
<rect width="24" height="24" fill="white"/>
</clipPath>
</defs>
</svg>