<svg width="24" height="24" viewBox="0 0 24 24" fill="none" xmlns="http://www.w3.org/2000/svg">
<path fill-rule="evenodd" clip-rule="evenodd" d="M21.1667 12.345L12.3567 21.5017C12.0308 21.8267 11.6125 22 11.1667 22C10.7208 22 10.3025 21.8267 9.98833 21.5125L2.48667 14.0117C2.1725 13.6983 2 13.2792 2 12.8333C2 12.3875 2.1725 11.9692 2.48667 11.655L11.6667 2.8225C12.1375 2.35 12.9842 2 13.6667 2H20.3333C21.2525 2 22 2.7475 22 3.66667V10.3333C22 11.0167 21.6492 11.8625 21.1667 12.345ZM20.3333 3.66667H13.6667C13.4292 3.66667 13.0008 3.84417 12.8333 4.01167L3.65334 12.845L11.1667 20.335V20.3333C11.1683 20.3333 11.1692 20.3333 11.1692 20.3333L19.9767 11.1783C20.1558 10.9992 20.3333 10.5708 20.3333 10.3333V3.66667ZM17.8333 7.83333C16.9141 7.83333 16.1675 7.08583 16.1675 6.16667C16.1675 5.2475 16.9141 4.5 17.8333 4.5C18.7525 4.5 19.5008 5.2475 19.5008 6.16667C19.5008 7.08583 18.7525 7.83333 17.8333 7.83333ZM13.97 12.1425L12.7917 10.9642C12.6058 10.7783 12.38 10.655 12.1717 10.625C12.0525 10.6092 11.9517 10.625 11.9083 10.67C11.8042 10.7733 11.8375 11.1875 12.2025 11.5533C12.2025 11.5533 12.2033 11.5533 12.2033 11.5542C12.6442 11.9958 12.9317 12.5508 13.0133 13.1175C13.105 13.7642 12.9175 14.375 12.4967 14.7942C12.1508 15.1417 11.6692 15.3333 11.1433 15.3333C10.7325 15.3333 10.32 15.2075 9.93665 14.9975L9.84582 15.0892C9.68332 15.2508 9.46999 15.3325 9.25665 15.3325C9.04332 15.3325 8.82999 15.2508 8.66749 15.0892C8.34249 14.7633 8.34165 14.2358 8.66749 13.9108L8.07832 13.3208C7.75249 12.9958 7.75249 12.4683 8.07832 12.1425C8.40415 11.8167 8.93082 11.8167 9.25665 12.1425L10.435 13.3208C10.69 13.5758 10.9683 13.6667 11.1433 13.6667C11.1892 13.6667 11.2742 13.66 11.3183 13.6158C11.3625 13.5717 11.38 13.4708 11.3625 13.3533C11.3333 13.1442 11.21 12.9175 11.0233 12.7308C11.0225 12.7308 11.0225 12.7292 11.0217 12.7292C10.0333 11.7383 9.90415 10.3167 10.73 9.49167C11.15 9.07167 11.7633 8.88333 12.4067 8.97583C12.7125 9.01917 13.0125 9.1275 13.295 9.2825L13.3808 9.19667C13.7067 8.87083 14.2342 8.87083 14.5592 9.19667C14.885 9.52167 14.885 10.05 14.5592 10.375L15.1483 10.9642C15.4742 11.29 15.4742 11.8175 15.1483 12.1425C14.8233 12.4683 14.2958 12.4683 13.97 12.1425Z" fill="#6B7084"/>
</svg>
