<svg viewBox="0 0 24 24" fill="none" xmlns="http://www.w3.org/2000/svg">
<g clip-path="url(#clip0_1265_21041)">
<path d="M12 24C18.6274 24 24 18.6274 24 12C24 5.37258 18.6274 0 12 0C5.37258 0 0 5.37258 0 12C0 18.6274 5.37258 24 12 24Z" fill="#1061E3"/>
<path fill-rule="evenodd" clip-rule="evenodd" d="M17.7965 15.7568C17.8553 16.3595 17.667 16.9545 17.0839 17.3408C16.8046 17.5263 16.4931 17.5998 16.1585 17.5998C13.3866 17.5984 10.6147 17.5991 7.84277 17.5984C7.78207 17.5984 7.72138 17.5968 7.66077 17.5935C7.05319 17.5606 6.47921 17.1204 6.28322 16.5457C6.19642 16.2916 6.18312 16.0312 6.19362 15.7568H7.88057C8.04296 15.7561 8.15076 15.6378 8.11436 15.4901C8.09532 15.4329 8.06181 15.3815 8.01706 15.341C7.32898 14.6536 6.63881 13.9691 5.94933 13.2831L5.31795 12.6545C5.08065 12.42 4.96656 12.1365 5.00856 11.8061C5.02956 11.6437 5.08205 11.4841 5.13455 11.3273C5.4292 10.4392 5.89719 9.61836 6.51141 8.91241C7.38145 7.89992 8.51628 7.14975 9.78871 6.74598C10.617 6.47485 11.4889 6.3616 12.359 6.41209C14.4142 6.53529 16.1256 7.37106 17.4822 8.91171C18.1762 9.69958 18.6813 10.6354 18.9591 11.6479C19.0641 12.0252 18.9647 12.3647 18.6854 12.6426C18.1604 13.1662 17.6313 13.6856 17.1042 14.207C16.7171 14.5899 16.3307 14.9742 15.9443 15.3585C15.8169 15.4845 15.8295 15.6525 15.9751 15.7274C16.0171 15.7484 16.0696 15.7554 16.1172 15.7554C16.6492 15.7575 17.1819 15.7568 17.7146 15.7568H17.7965ZM6.7095 16.1348C6.7172 16.3602 6.7774 16.5604 6.909 16.7354C7.12739 17.0266 7.42208 17.1638 7.78747 17.1631H16.2068C16.2397 17.1631 16.2726 17.1617 16.3048 17.1596C16.4598 17.1536 16.6114 17.112 16.7478 17.038C16.8841 16.9639 17.0015 16.8594 17.0909 16.7326C17.2211 16.5576 17.282 16.3574 17.2855 16.1355L6.7095 16.1348ZM13.8969 10.7121C13.9172 10.7254 13.9319 10.7331 13.9438 10.7422C14.6354 11.2573 15.0735 11.9321 15.2401 12.777C15.3311 13.2362 15.3185 13.694 15.2107 14.1496C15.1125 14.5636 14.9341 14.9543 14.6858 15.2997C14.6624 15.3291 14.6459 15.3633 14.6377 15.3999C14.6295 15.4366 14.6296 15.4746 14.6382 15.5111C14.6865 15.7015 14.9027 15.7631 15.0455 15.6238C15.2555 15.4201 15.4606 15.2122 15.6685 15.0064C16.5057 14.1734 17.3429 13.3412 18.1807 12.5096C18.3627 12.329 18.4425 12.1134 18.3977 11.8614C18.3774 11.7522 18.3382 11.6458 18.3011 11.5408C18.0293 10.7519 17.6299 10.013 17.1189 9.3534C16.7279 8.8472 16.2631 8.40265 15.7399 8.03464C15.7133 8.01548 15.6948 7.987 15.6881 7.95484C15.6804 7.88059 15.6555 7.80918 15.6152 7.74634C15.5749 7.68349 15.5204 7.63097 15.4562 7.59299C15.3919 7.555 15.3197 7.53262 15.2452 7.52763C15.1707 7.52264 15.0961 7.53518 15.0273 7.56425C14.9988 7.57554 14.9671 7.57579 14.9384 7.56495C14.2006 7.21374 13.4022 7.00748 12.5865 6.95737C11.9382 6.90865 11.2863 6.94536 10.6476 7.06657C10.1139 7.16825 9.59574 7.33908 9.10623 7.57475C9.08756 7.58537 9.06646 7.59095 9.04498 7.59095C9.02351 7.59095 9.0024 7.58537 8.98373 7.57475C8.91369 7.54025 8.83611 7.5239 8.7581 7.52719C8.6801 7.53048 8.60417 7.5533 8.53728 7.59358C8.47039 7.63385 8.41469 7.69027 8.37528 7.75768C8.33588 7.82508 8.31403 7.9013 8.31175 7.97934C8.31175 8.02134 8.29635 8.04584 8.26416 8.07104C8.04996 8.24113 7.82737 8.40283 7.62718 8.58832C6.6864 9.4598 6.04662 10.5231 5.63574 11.7291C5.53214 12.0343 5.60074 12.2961 5.82823 12.5222L8.32015 14.9994C8.52875 15.2073 8.73664 15.4152 8.94733 15.6217C9.06843 15.7407 9.25112 15.7197 9.33022 15.579C9.38412 15.4817 9.37082 15.3858 9.30712 15.2962C8.9722 14.8326 8.76639 14.2884 8.71074 13.7192C8.66197 13.2512 8.71694 12.7782 8.87174 12.3339C8.90674 12.2324 8.95013 12.133 8.99143 12.028L9.9798 12.609C9.77466 13.1052 9.75993 13.6597 9.93846 14.1661C10.117 14.6724 10.4762 15.0951 10.9472 15.3529C11.3918 15.5964 11.9072 15.6781 12.4054 15.5838C12.9035 15.4896 13.3535 15.2254 13.6785 14.8363C14.0005 14.4534 14.1713 14.009 14.1811 13.5085C14.1951 12.7623 13.8864 12.1673 13.3061 11.7039L13.8969 10.7121ZM17.1623 12.84C17.1441 12.7238 17.1273 12.6167 17.1091 12.5096C17.0417 12.1143 16.926 11.7288 16.7647 11.3616C16.7472 11.3196 16.743 11.2874 16.764 11.244C16.7916 11.1858 16.8068 11.1224 16.8086 11.058C16.8104 10.9936 16.7988 10.9295 16.7745 10.8698C16.7502 10.8101 16.7138 10.7561 16.6675 10.7112C16.6212 10.6663 16.5661 10.6316 16.5057 10.6092C16.4464 10.5868 16.3833 10.5765 16.32 10.5789C16.2567 10.5814 16.1945 10.5965 16.1371 10.6234C16.0798 10.6503 16.0284 10.6884 15.986 10.7355C15.9436 10.7826 15.9111 10.8377 15.8904 10.8976C15.8698 10.9574 15.8617 11.0209 15.8667 11.084C15.8716 11.1471 15.8895 11.2085 15.9191 11.2644C15.9488 11.3204 15.9896 11.3696 16.0391 11.4091C16.0886 11.4485 16.1457 11.4774 16.2068 11.4939C16.24 11.5002 16.2708 11.5153 16.2962 11.5376C16.3215 11.5599 16.3405 11.5886 16.351 11.6206C16.5638 12.1421 16.6821 12.6825 16.6989 13.2446C16.7003 13.2781 16.6893 13.311 16.6681 13.337C16.3482 13.659 16.0255 13.9782 15.7042 14.298C15.693 14.3085 15.6797 14.3169 15.6748 14.3218C15.9814 12.8029 15.6083 11.4862 14.3883 10.4951C13.1206 9.46609 11.708 9.387 10.2248 10.0562L9.77191 9.2743C9.9336 9.2022 10.089 9.12731 10.2479 9.06151C10.6572 8.8981 11.087 8.7921 11.5254 8.74652C11.5821 8.74022 11.6234 8.74932 11.6674 8.79412C11.7108 8.83878 11.7627 8.87422 11.8201 8.89831C11.8775 8.92241 11.9391 8.93466 12.0014 8.93433C12.0636 8.934 12.1251 8.9211 12.1823 8.89641C12.2394 8.87171 12.291 8.83573 12.3338 8.79062C12.3486 8.77337 12.3676 8.76019 12.3889 8.75235C12.4102 8.74451 12.4332 8.74226 12.4556 8.74582C13.5287 8.86201 14.4597 9.2834 15.245 10.0205C15.308 10.08 15.3675 10.1423 15.4284 10.2039C15.5369 10.3131 15.6566 10.3159 15.7672 10.2095L16.5029 9.49759L16.5715 9.4325C16.6597 9.54449 16.7486 9.65229 16.8312 9.76429C17.3092 10.4106 17.6759 11.1321 17.9162 11.8992C17.9329 11.9443 17.9358 11.9934 17.9244 12.0402C17.9131 12.087 17.888 12.1293 17.8525 12.1617L17.2057 12.805C17.1945 12.8155 17.1812 12.8239 17.1623 12.84ZM16.2761 9.12311L15.6475 9.73139C15.6286 9.71529 15.6111 9.70059 15.595 9.68519C14.9406 9.05548 14.1306 8.611 13.248 8.39723C13.0009 8.33703 12.7454 8.30903 12.4941 8.26843C12.45 8.26143 12.4199 8.25233 12.3926 8.21033C12.3493 8.14456 12.2904 8.09058 12.221 8.05328C12.1517 8.01598 12.0741 7.99652 11.9954 7.99666C11.9166 7.9968 11.8391 8.01653 11.7699 8.05408C11.7007 8.09162 11.6419 8.1458 11.5989 8.21173C11.5779 8.24 11.5468 8.25906 11.5121 8.26493C9.8923 8.44273 8.62115 9.2015 7.69017 10.5273C7.67975 10.5435 7.66576 10.5572 7.64927 10.5673C7.63278 10.5773 7.61421 10.5835 7.59498 10.5854C7.26879 10.6386 7.10289 10.9563 7.23799 11.2573C7.2486 11.2843 7.2486 11.3143 7.23799 11.3413C7.04212 11.7877 6.91129 12.2599 6.8495 12.7434C6.8453 12.7735 6.839 12.8029 6.832 12.8442L6.7718 12.7882C6.57161 12.5887 6.37281 12.3871 6.16982 12.1904C6.07602 12.0994 6.04522 12.0028 6.08932 11.8754C6.56041 10.5245 7.30939 9.3681 8.47625 8.50502C8.48955 8.49522 8.50355 8.48682 8.51615 8.47633C8.55815 8.43923 8.59665 8.42873 8.65894 8.44553C8.72169 8.46304 8.78739 8.46728 8.85187 8.45799C8.91634 8.4487 8.97818 8.42608 9.03343 8.39158C9.08868 8.35707 9.13614 8.31143 9.17277 8.25757C9.20941 8.20371 9.23443 8.1428 9.24623 8.07874C9.24975 8.06503 9.25596 8.05216 9.26449 8.04086C9.27302 8.02957 9.2837 8.02008 9.29592 8.01294C9.59821 7.86385 9.91361 7.74294 10.2381 7.65175C11.0046 7.43406 11.7871 7.37736 12.5781 7.43406C13.3067 7.48029 14.0201 7.66263 14.6816 7.97164C14.7236 7.99124 14.7446 8.01364 14.7516 8.06264C14.7617 8.13344 14.7879 8.20098 14.8281 8.2601C14.8683 8.31923 14.9216 8.36837 14.9837 8.40376C15.0459 8.43916 15.1153 8.45987 15.1866 8.46432C15.258 8.46877 15.3295 8.45683 15.3955 8.42943C15.4179 8.42103 15.4536 8.42033 15.4711 8.43223C15.7574 8.62962 16.0206 8.85361 16.2635 9.10071C16.2684 9.10561 16.2705 9.11261 16.2761 9.12311ZM13.7114 13.449C13.7163 14.3806 12.9484 15.1485 12.0062 15.1541C11.5533 15.1554 11.1182 14.9774 10.7961 14.659C10.474 14.3405 10.291 13.9075 10.2871 13.4546C10.2829 12.5215 11.0494 11.7557 11.9936 11.7508C12.4465 11.7482 12.8819 11.9256 13.204 12.2439C13.5261 12.5622 13.7086 12.9954 13.7114 13.4483V13.449ZM8.32295 14.3337L7.88057 13.8893C7.69857 13.7073 7.51518 13.5281 7.33458 13.3447C7.31111 13.3208 7.29717 13.2892 7.29539 13.2558C7.31211 12.6769 7.43749 12.1063 7.66497 11.5737C7.6708 11.5565 7.68125 11.5411 7.6952 11.5294C7.70915 11.5177 7.72606 11.51 7.74407 11.5072C8.05836 11.4337 8.20466 11.1593 8.09336 10.8598C8.08636 10.8388 8.08636 10.8073 8.09686 10.7898C8.44083 10.281 8.88243 9.84555 9.39602 9.50879C9.39812 9.50739 9.40022 9.50739 9.41002 9.50459L9.59551 9.82098L9.9847 10.493C10.0631 10.6302 10.1653 10.6603 10.3004 10.5784C10.6535 10.3642 11.0448 10.2207 11.4526 10.1556C12.1536 10.037 12.8743 10.1482 13.507 10.4727C13.5133 10.4762 13.5182 10.4811 13.5308 10.4909L12.9435 11.4757C11.834 11.0592 10.9171 11.3077 10.1765 12.2296L9.19163 11.6507C9.27982 11.5324 9.36382 11.4183 9.44992 11.3063C9.48492 11.2601 9.52552 11.2181 9.56472 11.1747C9.62491 11.1075 9.62491 11.0697 9.56332 11.0067C9.50912 10.9517 9.45452 10.8971 9.39952 10.843C9.32532 10.7702 9.28892 10.7702 9.21893 10.8458C8.92027 11.1654 8.68046 11.5353 8.51055 11.9384C8.26968 12.5031 8.17391 13.1192 8.23196 13.7304C8.25016 13.9264 8.29005 14.1203 8.32295 14.3337ZM11.9964 8.72692C11.927 8.72548 11.8607 8.6972 11.8117 8.648C11.7626 8.59879 11.7345 8.5325 11.7332 8.46303C11.7356 8.39361 11.7645 8.32774 11.814 8.27902C11.8635 8.2303 11.9298 8.20245 11.9992 8.20123C12.0687 8.20285 12.1349 8.23132 12.1838 8.28065C12.2327 8.32998 12.2607 8.39635 12.2617 8.46583C12.2603 8.53541 12.2317 8.60168 12.1822 8.65056C12.1327 8.69944 12.066 8.72709 11.9964 8.72762V8.72692ZM8.77654 7.73715C8.81112 7.73622 8.84554 7.74217 8.8778 7.75465C8.91006 7.76714 8.93951 7.78591 8.96446 7.80988C8.9894 7.83384 9.00933 7.86253 9.0231 7.89426C9.03686 7.926 9.04418 7.96015 9.04463 7.99474C9.04463 8.06491 9.01675 8.13221 8.96713 8.18184C8.91751 8.23146 8.85021 8.25933 8.78004 8.25933C8.70987 8.25933 8.64257 8.23146 8.59294 8.18184C8.54332 8.13221 8.51545 8.06491 8.51545 7.99474C8.51619 7.92605 8.54404 7.86043 8.59295 7.81218C8.64185 7.76393 8.70784 7.73696 8.77654 7.73715ZM16.337 11.307C16.2703 11.3043 16.2072 11.276 16.1608 11.228C16.1143 11.1801 16.0881 11.1161 16.0874 11.0493C16.0868 10.9826 16.1119 10.9181 16.1574 10.8693C16.2029 10.8205 16.2655 10.791 16.3321 10.787C16.3663 10.7866 16.4001 10.793 16.4318 10.8058C16.4635 10.8186 16.4923 10.8375 16.5167 10.8614C16.5411 10.8853 16.5605 10.9138 16.5739 10.9452C16.5872 10.9766 16.5943 11.0104 16.5946 11.0445C16.5949 11.0787 16.5885 11.1126 16.5757 11.1442C16.563 11.1759 16.5441 11.2048 16.5202 11.2291C16.4962 11.2535 16.4678 11.2729 16.4363 11.2863C16.4049 11.2997 16.3712 11.3067 16.337 11.307ZM15.2149 7.73715C15.364 7.73715 15.4774 7.84914 15.4767 7.99754C15.4765 8.06605 15.4493 8.13172 15.4009 8.18023C15.3525 8.22874 15.2869 8.25616 15.2184 8.25653C15.1839 8.25709 15.1497 8.25082 15.1176 8.23809C15.0855 8.22535 15.0563 8.20641 15.0316 8.18234C15.0069 8.15827 14.9872 8.12956 14.9736 8.09784C14.96 8.06613 14.9528 8.03204 14.9524 7.99754C14.952 7.963 14.9584 7.92872 14.9715 7.89674C14.9845 7.86476 15.0039 7.83572 15.0284 7.81136C15.0528 7.787 15.082 7.76782 15.114 7.75495C15.1461 7.74208 15.1804 7.73579 15.2149 7.73645V7.73715ZM7.92257 11.0466C7.92276 11.0811 7.91606 11.1153 7.90286 11.1472C7.88967 11.179 7.87025 11.2079 7.84573 11.2322C7.82122 11.2564 7.7921 11.2756 7.7601 11.2884C7.7281 11.3013 7.69386 11.3076 7.65937 11.307C7.62484 11.3075 7.59056 11.301 7.55857 11.288C7.52659 11.275 7.49755 11.2556 7.4732 11.2311C7.44884 11.2066 7.42965 11.1775 7.41678 11.1454C7.40391 11.1134 7.39762 11.0791 7.39828 11.0445C7.39865 10.976 7.4262 10.9104 7.47488 10.8621C7.52356 10.8138 7.58941 10.7868 7.65797 10.787C7.69249 10.7863 7.72678 10.7925 7.75886 10.8053C7.79093 10.8181 7.82014 10.8371 7.84478 10.8613C7.86942 10.8854 7.88898 10.9143 7.90234 10.9461C7.9157 10.978 7.92257 11.0121 7.92257 11.0466Z" fill="white"/>
</g>
<defs>
<clipPath id="clip0_1265_21041">
<rect width="24" height="24" fill="white"/>
</clipPath>
</defs>
</svg>