<svg width="24" height="24" viewBox="0 0 24 24" fill="none" xmlns="http://www.w3.org/2000/svg">
<g clip-path="url(#clip0_620_13799)">
<path d="M20.5788 6.79099C20.8102 6.92446 21 7.25188 21 7.51918V16.8984C21 17.1657 20.8102 17.4932 20.5788 17.6266L12.4212 22.3178C12.1898 22.4509 11.8105 22.4509 11.5788 22.3178L3.42156 17.6266C3.18945 17.4932 3 17.1657 3 16.8984V7.51918C3 7.25188 3.18945 6.92446 3.42156 6.79099L11.5788 2.09983C11.8105 1.96672 12.1898 1.96672 12.4212 2.09983L20.5792 6.79099H20.5788Z" fill="#4231C8"/>
<path d="M17.1686 8.74644C17.3989 8.61144 17.3981 8.39031 17.1671 8.25567L12.3077 5.43048C12.0763 5.29629 11.6982 5.29629 11.4672 5.43048L6.60777 8.25603C6.37674 8.39103 6.18774 8.71881 6.18774 8.9862V14.7417C6.18774 15.009 6.38133 15.33 6.61767 15.4548L7.41804 15.8778C7.65438 16.0025 7.84797 15.8861 7.84797 15.6187V9.96279C7.84797 9.69549 8.03625 9.58776 8.26656 9.72312L11.4689 11.6068C11.6989 11.7418 12.0758 11.7418 12.3065 11.6068L17.1686 8.74644Z" fill="white"/>
<path d="M14.2712 8.26329C14.5019 8.39748 14.5026 8.6187 14.2727 8.75406L12.306 9.91029C12.0753 10.0465 11.6984 10.0465 11.4681 9.91029L9.5022 8.7537C9.27153 8.6187 9.27153 8.39748 9.50337 8.26329L11.4673 7.12146C11.6978 6.98718 12.0759 6.98718 12.3078 7.12146L14.2712 8.26329Z" fill="#4231C8"/>
</g>
<defs>
<clipPath id="clip0_620_13799">
<rect width="18" height="20.4176" fill="white" transform="translate(3 2)"/>
</clipPath>
</defs>
</svg>
