<svg width="24" height="24" viewBox="0 0 24 24" fill="none" xmlns="http://www.w3.org/2000/svg">
<path fill-rule="evenodd" clip-rule="evenodd" d="M2.03387 20.4649L7.93309 16.9993L12 9.8719V2.99991C11.8928 2.99991 11.7855 3.07144 11.7041 3.21369L6.88667 11.6565L2.06962 20.0992C1.98843 20.2417 1.98073 20.3709 2.03387 20.4649Z" fill="#8C90A1"/>
<path fill-rule="evenodd" clip-rule="evenodd" d="M12.0001 3V9.87199L16.0668 16.9994L21.9661 20.465C22.0194 20.371 22.0117 20.2418 21.9305 20.0993L17.1133 11.6566L12.2958 3.21378C12.2144 3.07133 12.1072 3 12.0001 3Z" fill="#6B7084"/>
<path fill-rule="evenodd" clip-rule="evenodd" d="M21.9661 20.4648L16.0669 16.9993H7.9332L2.03398 20.4648C2.08712 20.5592 2.2015 20.6177 2.36428 20.6177H21.6356C21.7984 20.6177 21.9128 20.5592 21.9661 20.4648Z" fill="#585C6D"/>
<path fill-rule="evenodd" clip-rule="evenodd" d="M7.93315 16.9993H16.0669L12.0001 9.87186L7.93315 16.9993Z" fill="white"/>
</svg>
