<svg width="24" height="24" viewBox="0 0 24 24" fill="none" xmlns="http://www.w3.org/2000/svg">
<path fill-rule="evenodd" clip-rule="evenodd" d="M10.8994 20.361C15.7621 20.361 19.7042 16.419 19.7042 11.5563C19.7042 6.69351 15.7621 2.75148 10.8994 2.75148C6.03667 2.75148 2.09464 6.69351 2.09464 11.5563C2.09464 16.419 6.03667 20.361 10.8994 20.361ZM10.8994 22.0119C16.6739 22.0119 21.3551 17.3308 21.3551 11.5563C21.3551 5.78175 16.6739 1.10059 10.8994 1.10059C5.1249 1.10059 0.443741 5.78175 0.443741 11.5563C0.443741 17.3308 5.1249 22.0119 10.8994 22.0119Z" fill="#6B7084"/>
<circle cx="21.9048" cy="20.3611" r="1.65089" fill="#6B7084"/>
<path fill-rule="evenodd" clip-rule="evenodd" d="M16.6866 9.64611L16.2673 8.52969L16.5586 7.88835C16.596 7.80579 16.578 7.70891 16.5132 7.64483L15.7206 6.85853C15.374 6.51493 14.8569 6.39678 14.3911 6.55523L14.1695 6.63057L13.0119 5.33331L11.3089 5.33331H10.2296H8.75526L7.61244 6.64628L7.39696 6.57191C6.92688 6.4097 6.4035 6.5291 6.05462 6.87812L5.248 7.67916C5.19625 7.73045 5.18208 7.80746 5.21213 7.8732L5.51649 8.53886L5.09929 9.65473L5.36935 10.6608L6.59927 15.2464C6.74089 15.7752 7.06723 16.2382 7.52115 16.5552C7.52115 16.5552 9.01447 17.588 10.4881 18.5259C10.6177 18.6085 10.7532 18.6688 10.8986 18.6666C11.0441 18.6685 11.1796 18.6085 11.3089 18.5255C12.964 17.4618 14.2734 16.5511 14.2734 16.5511C14.7269 16.2334 15.0527 15.7699 15.1937 15.241L16.4178 10.6536L16.6866 9.64611Z" fill="url(#paint0_linear_61_30574)"/>
<path fill-rule="evenodd" clip-rule="evenodd" d="M15.378 9.86755L15.3588 9.92732L15.3283 10.0345C15.2468 10.134 15.075 10.3251 14.9464 10.4592L13.764 11.6915C13.6354 11.8255 13.5628 11.9936 13.6362 12.1629L13.7957 12.5483C13.8689 12.7174 13.8762 12.9974 13.8059 13.1854C13.7345 13.3767 13.6115 13.5457 13.4504 13.6746L13.327 13.7732C13.1815 13.8895 12.9237 13.9201 12.754 13.841L12.2094 13.5877C12.0399 13.5089 11.7869 13.3436 11.6472 13.2204L11.132 12.7664C11.0314 12.6777 11.0258 12.5253 11.1193 12.4299L12.3741 11.6C12.5297 11.4971 12.6121 11.3068 12.5236 11.1446L12.0775 10.3488C11.9891 10.1865 11.9537 9.97084 11.9989 9.86949C12.0441 9.76815 12.2247 9.63191 12.4005 9.56671L13.857 9.03621C14.0327 8.97101 14.0233 8.90372 13.8363 8.88649L12.9056 8.81865C12.7185 8.80141 12.5814 8.8281 12.4005 8.87759L11.6961 9.04844C11.5152 9.09793 11.477 9.28658 11.5109 9.46731L11.8015 11.0121C11.8356 11.193 11.8522 11.3751 11.8386 11.4169C11.8249 11.4588 11.6639 11.5262 11.4808 11.5669L11.2399 11.6204C11.0567 11.6612 10.7566 11.663 10.573 11.6247L10.2815 11.5639C10.0978 11.5255 9.93638 11.4599 9.92261 11.4182C9.90898 11.3763 9.92545 11.1939 9.95938 11.0132L10.2482 9.46814C10.2821 9.28728 10.2436 9.09891 10.0627 9.04956L9.35798 8.87954C9.1771 8.83018 9.03984 8.80405 8.85286 8.82129L7.92216 8.88996C7.73518 8.90734 7.72595 8.97462 7.90157 9.03955L9.35897 9.56852C9.53459 9.63358 9.71547 9.76954 9.76076 9.87088C9.80619 9.97209 9.77098 10.1877 9.68282 10.3501L9.23755 11.1461C9.14939 11.3085 9.2319 11.4988 9.38765 11.6015L10.6436 12.4302C10.7373 12.5255 10.7317 12.678 10.6313 12.7667L10.1165 13.2214C9.97713 13.3447 9.72427 13.5101 9.55475 13.5894L9.01056 13.8434C8.84105 13.9225 8.58308 13.8923 8.43755 13.7762L8.31418 13.6778C8.15275 13.5491 8.02952 13.3801 7.95214 13.1737C7.8874 13.0009 7.89422 12.7212 7.96719 12.5517L8.12637 12.1664C8.19949 11.9969 8.12663 11.8288 7.99786 11.695L6.81407 10.4641C6.68544 10.3302 6.51337 10.1393 6.43188 10.0401L6.40107 9.93275L6.3819 9.87297C6.38006 9.80415 6.40518 9.58478 6.43372 9.52542C6.46226 9.46634 6.57158 9.29312 6.67678 9.14075L6.93007 8.7736C7.03527 8.62124 7.21714 8.37893 7.33413 8.23504L7.70539 7.77906C7.82238 7.63531 7.92219 7.51826 7.93724 7.51923C7.93795 7.51826 8.08943 7.54592 8.27386 7.58054L8.83622 7.68633C9.02064 7.72095 9.22409 7.75904 9.28841 7.77086C9.35258 7.78281 9.55135 7.74611 9.73009 7.68939L10.1346 7.56108C10.3132 7.50422 10.5844 7.42943 10.737 7.39467L10.8784 7.39676L11.0198 7.39453C11.1724 7.42901 11.4436 7.50352 11.6223 7.5601L12.0271 7.688C12.2058 7.74458 12.4046 7.781 12.4688 7.76905C12.524 7.75878 12.6818 7.72893 12.842 7.6986L12.9208 7.68369L13.4831 7.57748C13.6675 7.54259 13.819 7.51478 13.8298 7.51562C13.8347 7.51478 13.9345 7.63142 14.0518 7.77531L14.4236 8.23087C14.5409 8.37448 14.7229 8.61651 14.8284 8.76888L15.0821 9.13561C15.1875 9.28784 15.352 9.5649 15.3622 9.62788C15.3727 9.69085 15.3797 9.79873 15.378 9.86755ZM10.9551 13.5448C10.9715 13.5448 11.1271 13.6022 11.3006 13.6727L11.4616 13.738C11.6351 13.8084 11.9142 13.9341 12.0816 14.0173L12.5567 14.2537C12.7241 14.3368 12.7361 14.4925 12.5834 14.5995L12.1782 14.8834C12.0254 14.9905 11.7852 15.1762 11.6445 15.2966L11.1335 15.7334C10.9932 15.8534 10.7659 15.8539 10.6284 15.7349C10.4907 15.6158 10.2628 15.4207 10.1218 15.3016C9.98097 15.1823 9.74018 14.998 9.5867 14.892L9.18293 14.6126C9.02945 14.5064 9.04038 14.35 9.20692 14.2651L9.68452 14.0215C9.85106 13.9364 10.1292 13.8091 10.3027 13.7387L10.4637 13.6731C10.637 13.6026 10.7925 13.5448 10.8091 13.5448H10.8821H10.9551Z" fill="white"/>
<defs>
<linearGradient id="paint0_linear_61_30574" x1="5.09929" y1="18.7607" x2="16.6866" y2="18.7607" gradientUnits="userSpaceOnUse">
<stop stop-color="#FF5500"/>
<stop offset="1" stop-color="#FF2000"/>
</linearGradient>
</defs>
</svg>
