<svg viewBox="0 0 24 24" fill="none" xmlns="http://www.w3.org/2000/svg">
<path fill-rule="evenodd" clip-rule="evenodd" d="M9.373 4.87422V3.79654C9.373 3.35662 9.00861 3 8.5591 3C8.10959 3 7.7452 3.35662 7.7452 3.79654V4.87422H2.8139C2.36441 4.87422 2 5.23088 2 5.67081C2 6.11071 2.36436 6.46736 2.81382 6.4674L11.5534 6.46826L11.4799 6.65853C10.8278 8.34613 9.87571 9.90746 8.66759 11.2703L8.55916 11.3926L8.45066 11.2703C7.83493 10.5766 7.28516 9.82979 6.80797 9.03929C6.65355 8.78348 6.37811 8.62266 6.08044 8.62266H6.01154C5.41013 8.62266 5.03664 9.2264 5.32712 9.71732C5.89653 10.6796 6.56277 11.5853 7.31663 12.4205L7.41119 12.5252L7.30466 12.6184C6.04505 13.7195 4.59696 14.5906 3.02948 15.1929C2.61372 15.3527 2.37747 15.7876 2.49417 16.1986C2.61817 16.6353 3.08435 16.88 3.50446 16.7225C5.32854 16.0387 7.01027 15.0293 8.46272 13.7428L8.5589 13.6576L8.65526 13.7426C9.25672 14.2731 9.89772 14.7583 10.5727 15.1942C10.9735 15.453 11.5216 15.2666 11.7067 14.8134C11.8557 14.4489 11.7124 14.0233 11.3734 13.8005C10.8273 13.4417 10.3068 13.0465 9.81551 12.6175L9.70902 12.5245L9.80336 12.4197C11.3394 10.7133 12.5086 8.72169 13.2411 6.56356L13.2738 6.46731H14.3043C14.7538 6.46731 15.1182 6.11068 15.1182 5.67076C15.1182 5.23084 14.7538 4.87422 14.3043 4.87422H9.373ZM19.2456 17.6321L20.4642 20.5263C20.5837 20.8101 20.8754 21 21.2035 21C21.7732 21 22.1481 20.4574 21.9435 19.971L17.8346 10.2039C17.6296 9.71656 17.1311 9.39343 16.5727 9.39343C16.0143 9.39343 15.5158 9.71661 15.3108 10.204L11.2028 19.9712C10.9981 20.4579 11.3726 21 11.9418 21C12.2699 21 12.5614 20.8101 12.6808 20.5259L13.8972 17.6321H19.2456ZM16.573 11.2725L18.6145 16.1292H14.5282L16.573 11.2725Z" fill="currentColor"/>
</svg>