<svg width="24" height="24" viewBox="0 0 24 24" fill="none" xmlns="http://www.w3.org/2000/svg">
<path fill-rule="evenodd" clip-rule="evenodd" d="M7.22009 7.21739C8.56182 7.21739 9.654 6.20087 9.80009 4.89826C12.9731 4.33043 16.194 5.69826 17.8236 8.52174C17.9853 8.80087 18.2775 8.95652 18.5783 8.95652C18.7253 8.95652 18.8749 8.91913 19.0123 8.84C19.4279 8.6 19.5705 8.0687 19.3305 7.65217C17.3192 4.16783 13.3523 2.48087 9.41835 3.21478C8.95574 2.48696 8.14704 2 7.22009 2C5.77922 2 4.61139 3.16783 4.61139 4.6087C4.61139 6.04956 5.77922 7.21739 7.22009 7.21739ZM7.2201 16.7826C6.70793 16.7826 6.23314 16.9356 5.82966 17.1913C4.95575 16.3122 4.31575 15.2122 3.98619 13.9652C3.49314 12.1 3.74445 10.167 4.69401 8.52174C4.93401 8.10521 4.7914 7.57391 4.37575 7.33391C3.9601 7.09391 3.42792 7.23565 3.18705 7.65217C2.00705 9.69826 1.69401 12.0974 2.30532 14.4096C2.73401 16.0313 3.58619 17.4539 4.75575 18.5713C4.66879 18.8304 4.6114 19.1026 4.6114 19.3913C4.6114 20.8322 5.77923 22 7.2201 22C8.66097 22 9.82879 20.8322 9.82879 19.3913C9.82879 17.9504 8.66097 16.7826 7.2201 16.7826ZM19.394 9.82609C20.8348 9.82609 22.0027 10.9939 22.0027 12.4348C22.0027 13.7157 21.0783 14.7757 19.8609 14.9965C18.7609 18.5896 15.5105 21.1304 11.5679 21.1304C11.087 21.1304 10.6983 20.7409 10.6983 20.2609C10.6983 19.7809 11.087 19.3913 11.5679 19.3913C14.6348 19.3913 17.1722 17.4583 18.1201 14.6983C17.327 14.2504 16.7853 13.4104 16.7853 12.4348C16.7853 10.9939 17.9531 9.82609 19.394 9.82609Z" fill="#6B7084"/>
</svg>
