<svg width="24" height="24" viewBox="0 0 24 24" fill="none" xmlns="http://www.w3.org/2000/svg">
<path fill-rule="evenodd" clip-rule="evenodd" d="M4 6.48235H20C20.2761 6.48235 20.5 6.70358 20.5 6.97647V17.0235C20.5 17.2964 20.2761 17.5176 20 17.5176H4C3.72386 17.5176 3.5 17.2964 3.5 17.0235V6.97647C3.5 6.70358 3.72386 6.48235 4 6.48235ZM2 6.97647C2 5.8849 2.89543 5 4 5H20C21.1046 5 22 5.8849 22 6.97647V17.0235C22 18.1151 21.1046 19 20 19H4C2.89543 19 2 18.1151 2 17.0235V6.97647ZM9.82199 9.5L8.04822 14.6786H6.52377L4.75 9.5H6.04649L7.286 13.4097L8.53262 9.5H9.82199ZM14.1422 11.1672C14.1422 11.4672 14.0757 11.7426 13.9428 11.9934C13.8098 12.2393 13.6056 12.4385 13.3301 12.5909C13.0547 12.7434 12.7128 12.8196 12.3043 12.8196H11.5492V14.6786H10.3311V9.5H12.3043C12.7033 9.5 13.0404 9.57131 13.3159 9.71393C13.5913 9.85655 13.7979 10.0533 13.9356 10.3041C14.0734 10.5549 14.1422 10.8426 14.1422 11.1672ZM12.2117 11.8163C12.4444 11.8163 12.6178 11.7598 12.7318 11.6467C12.8457 11.5336 12.9027 11.3737 12.9027 11.1672C12.9027 10.9606 12.8457 10.8008 12.7318 10.6877C12.6178 10.5746 12.4444 10.518 12.2117 10.518H11.5492V11.8163H12.2117ZM18.0319 14.6786H19.25V9.5H18.0319V12.7089L15.9945 9.5H14.7764V14.6786H15.9945V11.4844L18.0319 14.6786Z" fill="#6B7084"/>
</svg>
