<svg width="24" height="24" viewBox="0 0 24 24" fill="none" xmlns="http://www.w3.org/2000/svg">
<path fill-rule="evenodd" clip-rule="evenodd" d="M2.14999 6.00002C2.14999 5.53058 2.53055 5.15002 2.99999 5.15002H15C15.4694 5.15002 15.85 5.53058 15.85 6.00002C15.85 6.46947 15.4694 6.85002 15 6.85002H2.99999C2.53055 6.85002 2.14999 6.46947 2.14999 6.00002ZM2.14999 10C2.14999 9.53058 2.53055 9.15002 2.99999 9.15002H15C15.4694 9.15002 15.85 9.53058 15.85 10C15.85 10.4695 15.4694 10.85 15 10.85H2.99999C2.53055 10.85 2.14999 10.4695 2.14999 10ZM2.14999 18C2.14999 17.5306 2.53055 17.15 2.99999 17.15H12C12.4694 17.15 12.85 17.5306 12.85 18C12.85 18.4695 12.4694 18.85 12 18.85H2.99999C2.53055 18.85 2.14999 18.4695 2.14999 18ZM16.9765 13.2275C15.7441 12.4617 14.15 13.3479 14.15 14.7988V19.9012C14.15 21.3521 15.7441 22.2384 16.9765 21.4725L21.0819 18.9213C22.2466 18.1975 22.2466 16.5025 21.0819 15.7787L16.9765 13.2275ZM15.85 14.7988C15.85 14.6812 15.9792 14.6093 16.0792 14.6714L20.1846 17.2226C20.279 17.2813 20.279 17.4187 20.1846 17.4774L16.0792 20.0286C15.9792 20.0907 15.85 20.0189 15.85 19.9012V14.7988ZM2.99999 13.15C2.53055 13.15 2.14999 13.5306 2.14999 14C2.14999 14.4695 2.53055 14.85 2.99999 14.85H12C12.4694 14.85 12.85 14.4695 12.85 14C12.85 13.5306 12.4694 13.15 12 13.15H2.99999Z" fill="#6B7084"/>
</svg>
