<svg width="24" height="24" viewBox="0 0 24 24" fill="none" xmlns="http://www.w3.org/2000/svg">
<path fill-rule="evenodd" clip-rule="evenodd" d="M2.14999 6.00002C2.14999 5.53058 2.53055 5.15002 2.99999 5.15002H15C15.4694 5.15002 15.85 5.53058 15.85 6.00002C15.85 6.46947 15.4694 6.85002 15 6.85002H2.99999C2.53055 6.85002 2.14999 6.46947 2.14999 6.00002ZM2.99999 9.15002C2.53055 9.15002 2.14999 9.53058 2.14999 10C2.14999 10.4695 2.53055 10.85 2.99999 10.85H15C15.4694 10.85 15.85 10.4695 15.85 10C15.85 9.53058 15.4694 9.15002 15 9.15002H2.99999ZM2.99999 17.15C2.53055 17.15 2.14999 17.5306 2.14999 18C2.14999 18.4695 2.53055 18.85 2.99999 18.85H12C12.4694 18.85 12.85 18.4695 12.85 18C12.85 17.5306 12.4694 17.15 12 17.15H2.99999ZM14.15 18C14.15 17.5306 14.5306 17.15 15 17.15H17.15V15C17.15 14.5305 17.5306 14.15 18 14.15C18.4694 14.15 18.85 14.5305 18.85 15V17.15H21C21.4694 17.15 21.85 17.5306 21.85 18C21.85 18.4695 21.4694 18.85 21 18.85H18.85V21C18.85 21.4694 18.4694 21.85 18 21.85C17.5306 21.85 17.15 21.4694 17.15 21V18.85H15C14.5306 18.85 14.15 18.4695 14.15 18ZM2.99999 13.15C2.53055 13.15 2.14999 13.5306 2.14999 14C2.14999 14.4695 2.53055 14.85 2.99999 14.85H15C15.4694 14.85 15.85 14.4695 15.85 14C15.85 13.5306 15.4694 13.15 15 13.15H2.99999Z" fill="#6B7084"/>
</svg>
