<svg viewBox="0 0 24 24" fill="none" xmlns="http://www.w3.org/2000/svg">
<path fill-rule="evenodd" clip-rule="evenodd" d="M20.6905 8.46919L20.0615 6.79456L20.4985 5.83256C20.5546 5.70871 20.5276 5.56339 20.4304 5.46728L19.2416 4.28782C18.7216 3.77242 17.9459 3.5952 17.2472 3.83288L16.9148 3.94589L15.1784 2H12.6239H11.005H8.79347L7.07924 3.96945L6.75602 3.8579C6.0509 3.61459 5.26582 3.79369 4.74251 4.31722L3.53257 5.51878C3.45496 5.59571 3.43369 5.71122 3.47877 5.80983L3.93532 6.80832L3.30951 8.48212L3.71459 9.99121L5.55948 16.8697C5.77191 17.6628 6.26141 18.3573 6.9423 18.8329C6.9423 18.8329 9.18227 20.382 11.3927 21.7889C11.5871 21.9128 11.7903 22.0032 12.0085 21.9999C12.2267 22.0028 12.43 21.9128 12.6239 21.7883C15.1065 20.1927 17.0707 18.8266 17.0707 18.8266C17.7509 18.3502 18.2396 17.6549 18.4512 16.8615L20.2873 9.98037L20.6905 8.46919Z" fill="currentColor"/>
<path fill-rule="evenodd" clip-rule="evenodd" d="M18.7276 8.80132L18.6988 8.89099L18.653 9.05176C18.5308 9.20107 18.2731 9.48759 18.0802 9.68882L16.3066 11.5372C16.1137 11.7382 16.0048 11.9904 16.1149 12.2444L16.3541 12.8224C16.464 13.0762 16.4748 13.4961 16.3694 13.7781C16.2623 14.065 16.0779 14.3186 15.8362 14.5119L15.6511 14.6597C15.4328 14.8343 15.0461 14.8801 14.7916 14.7615L13.9747 14.3816C13.7204 14.2633 13.3409 14.0154 13.1313 13.8306L12.3585 13.1496C12.2077 13.0165 12.1992 12.788 12.3395 12.6449L14.2217 11.4C14.4551 11.2457 14.5787 10.9602 14.446 10.7169L13.7768 9.52324C13.6441 9.27968 13.5911 8.95625 13.6588 8.80424C13.7268 8.65222 13.9977 8.44786 14.2613 8.35006L16.4461 7.55431C16.7096 7.45651 16.6955 7.35559 16.415 7.32973L15.019 7.22797C14.7383 7.20211 14.5326 7.24215 14.2613 7.31638L13.2047 7.57267C12.9334 7.6469 12.876 7.92988 12.9269 8.20096L13.3628 10.5181C13.4139 10.7894 13.4389 11.0626 13.4184 11.1254C13.398 11.1881 13.1565 11.2893 12.8817 11.3504L12.5203 11.4307C12.2456 11.4918 11.7954 11.4945 11.5201 11.4371L11.0829 11.3458C10.8073 11.2882 10.5651 11.1898 10.5445 11.1272C10.524 11.0645 10.5487 10.7909 10.5996 10.5198L11.0328 8.20221C11.0837 7.93092 11.0259 7.64836 10.7546 7.57433L9.69753 7.3193C9.42622 7.24528 9.22033 7.20607 8.93986 7.23193L7.5438 7.33494C7.26333 7.36101 7.24949 7.46194 7.51292 7.55932L9.69902 8.35277C9.96246 8.45036 10.2338 8.6543 10.3017 8.80632C10.3699 8.95813 10.317 9.28156 10.1848 9.52512L9.5169 10.7192C9.38465 10.9627 9.50842 11.2482 9.74204 11.4023L11.6259 12.6453C11.7665 12.7882 11.7582 13.0169 11.6076 13.15L10.8354 13.8321C10.6263 14.017 10.247 14.2652 9.9927 14.3841L9.17642 14.765C8.92214 14.8837 8.53519 14.8384 8.3169 14.6643L8.13184 14.5167C7.8897 14.3236 7.70485 14.0702 7.58878 13.7606C7.49167 13.5014 7.50189 13.0818 7.61136 12.8276L7.85013 12.2496C7.95981 11.9954 7.85051 11.7432 7.65736 11.5424L5.88168 9.69612C5.68873 9.4953 5.43062 9.20899 5.30838 9.0601L5.26217 8.89912L5.23342 8.80945C5.23065 8.70623 5.26835 8.37717 5.31115 8.28813C5.35396 8.1995 5.51794 7.93968 5.67574 7.71113L6.05567 7.1604C6.21347 6.93186 6.48628 6.56839 6.66176 6.35256L7.21865 5.66859C7.39413 5.45297 7.54385 5.27739 7.56642 5.27885C7.56749 5.27739 7.79472 5.31888 8.07135 5.37081L8.9149 5.5295C9.19154 5.58142 9.49671 5.63856 9.59318 5.65628C9.68944 5.67422 9.98759 5.61917 10.2557 5.53409L10.8624 5.34161C11.1303 5.25633 11.5371 5.14414 11.766 5.09201L11.9781 5.09513L12.1903 5.0918C12.4192 5.14351 12.8259 5.25528 13.0941 5.34015L13.7012 5.532C13.9693 5.61687 14.2675 5.67151 14.3637 5.65357C14.4466 5.63818 14.6829 5.59345 14.9232 5.54798L15.0418 5.52554L15.8852 5.36622C16.1618 5.31388 16.389 5.27217 16.4052 5.27343C16.4127 5.27217 16.5624 5.44713 16.7383 5.66296L17.296 6.34631C17.4719 6.56172 17.745 6.92477 17.9032 7.15331L18.2837 7.70341C18.4418 7.93175 18.6886 8.34735 18.7039 8.44181C18.7197 8.53628 18.7301 8.6981 18.7276 8.80132ZM12.0931 14.3172C12.1179 14.3172 12.3513 14.4033 12.6115 14.5091L12.853 14.6071C13.1132 14.7126 13.5319 14.9011 13.783 15.026L14.4956 15.3805C14.7467 15.5052 14.7648 15.7387 14.5356 15.8993L13.9278 16.3251C13.6987 16.4857 13.3383 16.7643 13.1273 16.9449L12.3608 17.6001C12.1504 17.78 11.8095 17.7809 11.6031 17.6024C11.3966 17.4237 11.0547 17.1311 10.8433 16.9524C10.632 16.7735 10.2708 16.497 10.0406 16.3381L9.43496 15.9189C9.20474 15.7596 9.22114 15.525 9.47095 15.3976L10.1874 15.0323C10.4372 14.9046 10.8543 14.7136 11.1146 14.6081L11.3561 14.5097C11.6161 14.404 11.8493 14.3172 11.8742 14.3172H11.9837H12.0931Z" fill="currentColor"/>
</svg>