<svg viewBox="0 0 24 24" fill="none" xmlns="http://www.w3.org/2000/svg">
<path fill-rule="evenodd" clip-rule="evenodd" d="M16.4285 15.5446L12.7668 9.72087V6.54702L19.323 17.4743L16.4285 15.5446ZM8.3873 16.8311H15.5837L17.9196 18.3884H5.66202L8.3873 16.8311ZM11.228 9.72087L7.58326 15.5177L4.93877 17.0288L11.228 6.54702V9.72087ZM11.9974 11.389L14.4526 15.2922H9.54297L11.9974 11.389ZM21.8906 18.7615L12.6576 3.37317C12.6329 3.33316 12.6006 3.30084 12.5699 3.26699C12.4291 3.10618 12.2282 3 11.9974 3C11.7666 3 11.5665 3.10618 11.425 3.26699C11.3942 3.30084 11.3619 3.33239 11.338 3.37317L2.105 18.7615C2.06884 18.8223 2.04191 18.8869 2.02344 18.9531C2.0219 18.9577 2.0219 18.9624 2.02113 18.967C2.00036 19.0478 1.99651 19.1309 2.00267 19.214C2.00497 19.237 2.00728 19.2586 2.01113 19.2817C2.02498 19.3694 2.0496 19.4563 2.095 19.5363C2.09577 19.5371 2.09577 19.5371 2.09577 19.5379C2.09653 19.5386 2.09653 19.5386 2.09653 19.5394C2.10962 19.5617 2.12731 19.5779 2.14193 19.5987C2.16732 19.6333 2.1904 19.671 2.22041 19.701C2.24965 19.7302 2.2835 19.7518 2.31659 19.7764C2.3389 19.7918 2.35737 19.8103 2.37968 19.8233C2.41584 19.8441 2.45431 19.8564 2.49279 19.871C2.51741 19.8803 2.53972 19.8933 2.56511 19.9003C2.62282 19.9157 2.68206 19.9218 2.74131 19.9241C2.74977 19.9241 2.7567 19.9272 2.76439 19.9272H21.2304C21.5082 19.9272 21.7636 19.7779 21.8998 19.5363C22.0368 19.2955 22.0329 18.9993 21.8906 18.7615Z" fill="currentColor"/>
</svg>