<svg width="24" height="24" viewBox="0 0 24 24" fill="none" xmlns="http://www.w3.org/2000/svg">
<g style="mix-blend-mode:multiply">
<path d="M21.0194 17.3513C20.1512 18.5676 19.0833 19.6418 17.8569 20.5326C16.0857 21.8574 14.176 23.0036 12.1583 23.9529C12.107 23.9837 12.0477 24 11.9872 24C11.9266 24 11.8673 23.9837 11.816 23.9529C9.92034 23.0499 8.1178 21.9781 6.43227 20.7519C5.23154 19.9 4.1633 18.8895 3.25952 17.7506C2.55888 16.9168 2.12825 15.9055 2.02054 14.8409C2.02054 14.6151 2.02054 14.3892 2.02054 14.1634V5.82712C2.02054 5.19216 2.02054 4.55721 2 3.92225C2 3.6735 2.11637 3.59495 2.34226 3.51313C4.32281 2.79307 6.29879 2.06865 8.27021 1.33987C9.45101 0.907836 10.625 0.465984 11.8092 0.0306782C11.9357 -0.0102261 12.0728 -0.0102261 12.1994 0.0306782C14.4925 0.865287 16.7822 1.71299 19.0754 2.55414C19.9584 2.88799 20.8471 3.20765 21.7416 3.51313C21.8212 3.53236 21.8909 3.5783 21.938 3.64259C21.9851 3.70688 22.0065 3.78522 21.9983 3.86333C21.9983 4.8845 21.9983 5.90567 21.9983 6.92684C21.9983 7.73527 21.9983 8.56333 21.9983 9.35866C21.9983 9.60414 21.9983 9.84961 21.9983 10.0951C21.9983 11.5025 21.9983 12.9098 21.9983 14.3205C22.0075 15.4032 21.6655 16.4621 21.0194 17.3513Z" fill="#FDB7A5"/>
</g>
<path d="M11.9959 22C11.8431 21.9983 11.6927 21.9625 11.557 21.8955C10.0352 21.1734 8.58963 20.3138 7.24032 19.3284C6.24097 18.627 5.35296 17.7921 4.60365 16.8495C3.98046 16.0976 3.5983 15.1903 3.50304 14.2366C3.50304 14.0897 3.50304 13.9492 3.50304 13.8153C3.50304 13.7663 3.50304 13.7206 3.50304 13.6716V6.99911C3.50304 6.58106 3.50304 6.14994 3.50304 5.72862C3.48523 5.5125 3.54606 5.29713 3.67531 5.1187C3.80456 4.94027 3.99435 4.80966 4.21278 4.74881L8.83123 3.07007L9.78441 2.7206L11.6016 2.0674C11.8607 1.97753 12.1448 1.97753 12.4039 2.0674C13.5766 2.49198 14.7629 2.92963 15.9115 3.34768L17.7767 4.03028C18.3904 4.25564 19.1139 4.51692 19.8339 4.77494C20.0341 4.83571 20.2077 4.95755 20.3279 5.12165C20.4481 5.28575 20.5083 5.48298 20.4991 5.6829C20.4991 6.49287 20.4991 7.31591 20.4991 8.06057V9.95487C20.4991 10.1443 20.4991 10.337 20.4991 10.5264V11.0653C20.4991 11.9635 20.4991 12.891 20.4991 13.8023C20.5085 14.7752 20.2032 15.7274 19.6248 16.5294C18.9049 17.529 18.0204 18.4112 17.0052 19.1422C15.5869 20.2043 14.0576 21.1248 12.4417 21.889C12.3044 21.9592 12.1516 21.9972 11.9959 22ZM4.90195 5.93765C4.90195 6.29691 4.90195 6.64964 4.90195 6.99584V13.8316C4.90195 13.9492 4.90195 14.0603 4.90195 14.1583C4.97905 14.8585 5.2726 15.5212 5.74541 16.0624C6.41915 16.9032 7.21583 17.6478 8.11121 18.2735C9.3294 19.1602 10.6297 19.9396 11.9959 20.6021C13.4594 19.899 14.8457 19.0587 16.1344 18.0938C17.0339 17.4496 17.8168 16.6696 18.4522 15.7847C18.8733 15.2101 19.0984 14.5259 19.0968 13.8251C19.0968 12.9041 19.0968 11.9667 19.0968 11.0621V8.05404C19.0968 7.37797 19.0968 6.65944 19.0968 5.93765C18.4487 5.70902 17.8144 5.4804 17.2693 5.28444L15.4075 4.59857C14.2897 4.19032 13.1377 3.76573 11.9994 3.35421C11.4302 3.55671 10.8542 3.769 10.285 3.97476L9.33182 4.32749L4.90195 5.93765Z" fill="#FB5930"/>
<path fill-rule="evenodd" clip-rule="evenodd" d="M17.0695 9.44035L16.7025 8.46348L16.9574 7.90232C16.9902 7.83007 16.9744 7.7453 16.9177 7.68923L16.2242 7.00122C15.921 6.70057 15.4684 6.59719 15.0608 6.73584L14.867 6.80176L13.8541 5.66666H12.3639H11.4196H10.1295L9.12955 6.8155L8.94101 6.75043C8.52969 6.6085 8.07172 6.71297 7.76646 7.01837L7.06066 7.71928C7.01539 7.76415 7.00298 7.83153 7.02928 7.88906L7.2956 8.47151L6.93054 9.44789L7.16684 10.3282L8.24303 14.3406C8.36694 14.8033 8.65249 15.2084 9.04967 15.4858C9.04967 15.4858 10.3563 16.3895 11.6457 17.2102C11.7591 17.2824 11.8777 17.3352 12.005 17.3333C12.1322 17.335 12.2508 17.2824 12.3639 17.2098C13.8121 16.279 14.9579 15.4822 14.9579 15.4822C15.3547 15.2043 15.6397 14.7987 15.7632 14.3359L16.8343 10.3219L17.0695 9.44035Z" fill="url(#paint0_linear_61_30797)"/>
<path fill-rule="evenodd" clip-rule="evenodd" d="M15.9244 9.6341L15.9076 9.68641L15.8809 9.78019C15.8096 9.86729 15.6593 10.0344 15.5467 10.1518L14.5122 11.23C14.3996 11.3473 14.3361 11.4944 14.4003 11.6425L14.5399 11.9797C14.604 12.1278 14.6103 12.3727 14.5488 12.5372C14.4863 12.7046 14.3788 12.8525 14.2378 12.9653L14.1298 13.0515C14.0025 13.1533 13.7769 13.1801 13.6284 13.1109L13.1519 12.8892C13.0036 12.8203 12.7822 12.6756 12.6599 12.5679L12.2091 12.1706C12.1212 12.093 12.1162 11.9597 12.1981 11.8762L13.296 11.15C13.4321 11.06 13.5042 10.8935 13.4268 10.7515L13.0365 10.0552C12.9591 9.91315 12.9281 9.72448 12.9676 9.6358C13.0073 9.54713 13.1653 9.42792 13.3191 9.37087L14.5936 8.90668C14.7472 8.84963 14.739 8.79076 14.5754 8.77568L13.7611 8.71631C13.5973 8.70123 13.4774 8.72459 13.3191 8.76789L12.7027 8.91739C12.5445 8.96069 12.511 9.12576 12.5407 9.2839L12.795 10.6356C12.8248 10.7938 12.8393 10.9532 12.8274 10.9898C12.8155 11.0264 12.6746 11.0854 12.5143 11.1211L12.3035 11.1679C12.1433 11.2035 11.8807 11.2051 11.72 11.1717L11.465 11.1184C11.3042 11.0848 11.163 11.0274 11.1509 10.9909C11.139 10.9543 11.1534 10.7947 11.1831 10.6366L11.4358 9.28462C11.4655 9.12637 11.4318 8.96154 11.2735 8.91836L10.6569 8.76959C10.4986 8.72641 10.3785 8.70354 10.2149 8.71863L9.40054 8.77872C9.23693 8.79392 9.22886 8.8528 9.38253 8.9096L10.6578 9.37245C10.8114 9.42938 10.9697 9.54834 11.0093 9.63702C11.0491 9.72558 11.0183 9.91424 10.9411 10.0563L10.5515 10.7528C10.4744 10.8949 10.5466 11.0614 10.6828 11.1513L11.7818 11.8764C11.8638 11.9598 11.8589 12.0932 11.7711 12.1708L11.3206 12.5687C11.1986 12.6766 10.9774 12.8214 10.8291 12.8907L10.3529 13.1129C10.2046 13.1822 9.97885 13.1558 9.85151 13.0542L9.74356 12.9681C9.60231 12.8554 9.49448 12.7076 9.42678 12.527C9.37013 12.3758 9.37609 12.131 9.43995 11.9828L9.57923 11.6456C9.64321 11.4973 9.57946 11.3502 9.46678 11.2331L8.43097 10.1561C8.31842 10.0389 8.16785 9.87191 8.09655 9.78506L8.06959 9.69115L8.05282 9.63885C8.0512 9.57863 8.07319 9.38668 8.09816 9.33474C8.12313 9.28304 8.21879 9.13148 8.31084 8.99816L8.53246 8.6769C8.62452 8.54358 8.78365 8.33156 8.88601 8.20566L9.21087 7.80668C9.31323 7.6809 9.40057 7.57848 9.41374 7.57933C9.41436 7.57848 9.54691 7.60268 9.70828 7.63297L10.2003 7.72554C10.3617 7.75583 10.5397 7.78916 10.596 7.7995C10.6522 7.80996 10.8261 7.77785 10.9825 7.72822L11.3364 7.61594C11.4927 7.56619 11.73 7.50075 11.8635 7.47034L11.9872 7.47216L12.111 7.47021C12.2445 7.50038 12.4818 7.56558 12.6382 7.61509L12.9924 7.727C13.1488 7.77651 13.3227 7.80838 13.3788 7.79792C13.4272 7.78893 13.5652 7.76281 13.7055 7.73627L13.7744 7.72323L14.2663 7.6303C14.4277 7.59976 14.5603 7.57544 14.5697 7.57616C14.574 7.57544 14.6614 7.67749 14.764 7.80339L15.0893 8.20201C15.192 8.32767 15.3512 8.53945 15.4435 8.67277L15.6655 8.99366C15.7577 9.12686 15.9017 9.36929 15.9106 9.42439C15.9198 9.4795 15.9259 9.57389 15.9244 9.6341ZM12.0543 12.8517C12.0687 12.8517 12.2049 12.9019 12.3567 12.9636L12.4976 13.0208C12.6494 13.0823 12.8936 13.1923 13.0401 13.2652L13.4557 13.4719C13.6022 13.5447 13.6128 13.6809 13.4791 13.7746L13.1246 14.023C12.9909 14.1167 12.7807 14.2792 12.6576 14.3845L12.2105 14.7667C12.0877 14.8717 11.8889 14.8722 11.7685 14.768C11.648 14.6638 11.4486 14.4931 11.3252 14.3889C11.202 14.2845 10.9913 14.1232 10.857 14.0305L10.5037 13.786C10.3694 13.6931 10.379 13.5562 10.5247 13.4819L10.9426 13.2688C11.0883 13.1944 11.3317 13.0829 11.4835 13.0214L11.6244 12.964C11.7761 12.9023 11.9121 12.8517 11.9266 12.8517H11.9905H12.0543Z" fill="white"/>
<defs>
<linearGradient id="paint0_linear_61_30797" x1="6.93054" y1="17.4156" x2="17.0695" y2="17.4156" gradientUnits="userSpaceOnUse">
<stop stop-color="#FF5500"/>
<stop offset="1" stop-color="#FF2000"/>
</linearGradient>
</defs>
</svg>
