<svg width="24" height="24" viewBox="0 0 24 24" fill="none" xmlns="http://www.w3.org/2000/svg">
<path d="M3 16.9461L11.6287 21.9281L20.2573 16.9461V6.98202L11.6287 2L3 6.98202V16.9461Z" fill="#469EA2"/>
<path d="M10.7452 3.19159L4.4792 6.80741C4.48947 6.92017 4.48947 7.03363 4.4792 7.14639L10.735 10.7622C10.9922 10.572 11.3036 10.4694 11.6235 10.4694C11.9434 10.4694 12.2549 10.572 12.5121 10.7622L18.7678 7.14639C18.7576 7.03363 18.7576 6.92017 18.7678 6.80741L12.5223 3.19159C12.2651 3.38176 11.9537 3.48439 11.6338 3.48439C11.3139 3.48439 11.0025 3.38176 10.7452 3.19159ZM19.3739 8.1428L13.1079 11.7997C13.1418 12.1169 13.0747 12.4367 12.916 12.7134C12.7574 12.9901 12.5153 13.2096 12.2244 13.3405L12.2347 20.5311C12.336 20.5758 12.4324 20.6308 12.5223 20.6954L18.7781 17.0796C18.7442 16.7625 18.8113 16.4427 18.97 16.166C19.1286 15.8892 19.3707 15.6697 19.6615 15.5388V8.30715C19.5614 8.2602 19.4652 8.20524 19.3739 8.1428ZM3.88341 8.18389C3.79348 8.24848 3.69709 8.30356 3.59579 8.34824V15.5799C3.89021 15.7062 4.13559 15.9248 4.29494 16.2027C4.45429 16.4806 4.51895 16.8028 4.4792 17.1207L10.735 20.7365C10.8249 20.6719 10.9213 20.6169 11.0226 20.5722V13.3405C10.7282 13.2142 10.4828 12.9957 10.3234 12.7177C10.1641 12.4398 10.0994 12.1176 10.1392 11.7997L3.88341 8.18389Z" fill="#6ACAD1"/>
<path d="M11.6287 3.07858L19.3431 7.53672V16.4427L11.6287 20.9009L3.91423 16.4427V7.52645L11.6287 3.07858ZM11.6287 2.02054L3 7.00256V16.9666L11.6287 21.9486L20.2573 16.9666V7.00256L11.6287 2.02054Z" fill="#469EA2"/>
<path d="M11.6903 13.659H11.567C11.3551 13.6595 11.1451 13.6182 10.9492 13.5373C10.7533 13.4564 10.5753 13.3377 10.4254 13.1878C10.2756 13.0379 10.1568 12.8599 10.0759 12.664C9.99509 12.4681 9.95375 12.2582 9.95429 12.0462V11.923C9.95375 11.711 9.99509 11.5011 10.0759 11.3051C10.1568 11.1092 10.2756 10.9312 10.4254 10.7814C10.5753 10.6315 10.7533 10.5127 10.9492 10.4319C11.1451 10.351 11.3551 10.3097 11.567 10.3102H11.6903C11.9022 10.3097 12.1122 10.351 12.3081 10.4319C12.504 10.5127 12.682 10.6315 12.8319 10.7814C12.9817 10.9312 13.1005 11.1092 13.1814 11.3051C13.2622 11.5011 13.3036 11.711 13.303 11.923V12.0462C13.3036 12.2582 13.2622 12.4681 13.1814 12.664C13.1005 12.8599 12.9817 13.0379 12.8319 13.1878C12.682 13.3377 12.504 13.4564 12.3081 13.5373C12.1122 13.6182 11.9022 13.6595 11.6903 13.659ZM11.6903 20.2845H11.567C11.2805 20.2837 10.999 20.3594 10.7515 20.5039C10.5041 20.6484 10.2998 20.8564 10.1597 21.1063L11.6287 21.9486L13.0976 21.1063C12.9575 20.8564 12.7532 20.6484 12.5058 20.5039C12.2584 20.3594 11.9768 20.2837 11.6903 20.2845ZM20.2676 15.3025H20.206C19.994 15.302 19.7841 15.3433 19.5882 15.4242C19.3922 15.505 19.2142 15.6238 19.0644 15.7737C18.9145 15.9235 18.7957 16.1015 18.7149 16.2974C18.634 16.4934 18.5927 16.7033 18.5932 16.9152V17.0385C18.5917 17.3123 18.6626 17.5816 18.7987 17.8192L20.2676 16.9666V15.3025ZM18.7987 6.16024C18.6638 6.39832 18.593 6.66731 18.5932 6.94093V7.0642C18.5927 7.27614 18.634 7.48609 18.7149 7.682C18.7957 7.87792 18.9145 8.05592 19.0644 8.20578C19.2142 8.35565 19.3922 8.47442 19.5882 8.55527C19.7841 8.63613 19.994 8.67748 20.206 8.67693H20.2676V7.00256L18.7987 6.16024ZM11.6287 2.02054L10.1597 2.86286C10.2991 3.11416 10.503 3.32374 10.7504 3.47C10.9978 3.61626 11.2797 3.69389 11.567 3.69491H11.6903C11.9768 3.69577 12.2584 3.62004 12.5058 3.47556C12.7532 3.33108 12.9575 3.12309 13.0976 2.87313L11.6287 2.02054ZM4.46893 6.14997L3 7.00256V8.67693H3.06163C3.27357 8.67748 3.48353 8.63613 3.67944 8.55527C3.87535 8.47442 4.05336 8.35565 4.20322 8.20578C4.35308 8.05592 4.47186 7.87792 4.55271 7.682C4.63357 7.48609 4.67491 7.27614 4.67437 7.0642V6.94093C4.67089 6.66454 4.60039 6.39312 4.46893 6.14997ZM3.06163 15.3025H3V16.9666L4.46893 17.8192C4.60377 17.5811 4.67456 17.3121 4.67437 17.0385V16.9152C4.67491 16.7033 4.63357 16.4934 4.55271 16.2974C4.47186 16.1015 4.35308 15.9235 4.20322 15.7737C4.05336 15.6238 3.87535 15.505 3.67944 15.4242C3.48353 15.3433 3.27357 15.302 3.06163 15.3025Z" fill="#469EA2"/>
<path d="M11.6287 22V12.0257L3 7.04367V17.018L11.6287 22Z" fill="#083B54" fill-opacity="0.15"/>
<path d="M20.2676 16.9255V6.96149L11.6389 11.9435V21.9178L20.2676 16.9255Z" fill="#083B54" fill-opacity="0.05"/>
</svg>
