<svg viewBox="0 0 24 24" fill="none" xmlns="http://www.w3.org/2000/svg">
<path fill-rule="evenodd" clip-rule="evenodd" d="M2.99999 5.15002C2.53055 5.15002 2.14999 5.53058 2.14999 6.00002C2.14999 6.46947 2.53055 6.85002 2.99999 6.85002H15C15.4694 6.85002 15.85 6.46947 15.85 6.00002C15.85 5.53058 15.4694 5.15002 15 5.15002H2.99999ZM2.14999 10C2.14999 9.53058 2.53055 9.15002 2.99999 9.15002H15C15.4694 9.15002 15.85 9.53058 15.85 10C15.85 10.4695 15.4694 10.85 15 10.85H2.99999C2.53055 10.85 2.14999 10.4695 2.14999 10ZM2.14999 18C2.14999 17.5306 2.53055 17.15 2.99999 17.15H12C12.4694 17.15 12.85 17.5306 12.85 18C12.85 18.4695 12.4694 18.85 12 18.85H2.99999C2.53055 18.85 2.14999 18.4695 2.14999 18ZM2.14999 14C2.14999 13.5306 2.53055 13.15 2.99999 13.15H15C15.4694 13.15 15.85 13.5306 15.85 14C15.85 14.4695 15.4694 14.85 15 14.85H2.99999C2.53055 14.85 2.14999 14.4695 2.14999 14ZM21.7171 15.4564C21.9691 15.0603 21.8524 14.5349 21.4563 14.2829C21.0603 14.0309 20.5349 14.1476 20.2829 14.5437L17.2914 19.2446L15.531 17.8363C15.1644 17.543 14.6295 17.6024 14.3363 17.969C14.043 18.3356 14.1024 18.8705 14.469 19.1637L16.969 21.1637C17.1575 21.3145 17.4012 21.3781 17.6393 21.3385C17.8774 21.2989 18.0875 21.16 18.2171 20.9564L21.7171 15.4564Z" fill="currentColor"/>
</svg>