<svg viewBox="0 0 24 24" fill="none" xmlns="http://www.w3.org/2000/svg">
<path d="M18.923 3.53845H5.33382C4.75304 3.53845 4.30776 3.94897 4.30776 4.42487V18.9229C4.30776 19.3477 3.96337 19.6921 3.53854 19.6921C3.11371 19.6921 2.76932 19.3477 2.76932 18.9229V4.42487C2.76932 3.07014 3.93004 2 5.33382 2H19.0588C19.8292 2 20.4615 2.61572 20.4615 3.387V16.8509C20.4615 17.2757 20.1171 17.6201 19.6922 17.6201C19.2674 17.6201 18.923 17.2757 18.923 16.8509V3.53845Z" fill="currentColor"/>
<path d="M20.4615 20.4614C20.8863 20.4614 21.2307 20.8057 21.2307 21.2306C21.2307 21.6554 20.8863 21.9998 20.4615 21.9998H5.88917C4.16832 21.9998 2.76932 20.6258 2.76932 18.9229C2.76932 17.2189 4.16803 15.846 5.88917 15.846H20.4615C20.8863 15.846 21.2307 16.1904 21.2307 16.6152C21.2307 17.0401 20.8863 17.3845 20.4615 17.3845H5.88917C5.01151 17.3845 4.30776 18.0749 4.30776 18.9229C4.30776 19.7697 5.01166 20.4614 5.88917 20.4614H20.4615Z" fill="currentColor"/>
<path d="M19.9841 21.0223C20.0992 21.4312 19.8609 21.856 19.4519 21.9711C19.043 22.0861 18.6182 21.8478 18.5031 21.4389C18.0373 19.7831 18.0373 18.0643 18.5031 16.4071C18.618 15.9981 19.0428 15.7598 19.4518 15.8747C19.8607 15.9897 20.0991 16.4144 19.9842 16.8234C19.5949 18.2082 19.5949 19.6388 19.9841 21.0223Z" fill="currentColor"/>
<path d="M14.3077 2.76922C14.3077 2.34439 14.6521 2 15.0769 2C15.5017 2 15.8461 2.34439 15.8461 2.76922V10.4615C15.8461 11.1109 15.0911 11.468 14.589 11.0562L12 8.93228L9.41097 11.0562C8.9089 11.468 8.15388 11.1109 8.15388 10.4615V2.76922C8.15388 2.34439 8.49827 2 8.9231 2C9.34793 2 9.69233 2.34439 9.69233 2.76922V8.83549L11.5121 7.34262C11.7958 7.10995 12.2042 7.10995 12.4879 7.34262L14.3077 8.83549V2.76922Z" fill="currentColor"/>
</svg>