<svg width="24" height="24" viewBox="0 0 24 24" fill="none" xmlns="http://www.w3.org/2000/svg">
<path fill-rule="evenodd" clip-rule="evenodd" d="M12.0205 20.1812V18.969C15.8604 18.9579 18.9696 15.8424 18.9696 11.9997C18.9696 8.15734 15.8604 5.0418 12.0205 5.03071V3.81848C16.5299 3.82985 20.1815 7.48789 20.1815 11.9997C20.1815 16.5118 16.5299 20.1702 12.0205 20.1812ZM12.0205 15.9383C14.1863 15.9269 15.9394 14.1686 15.9394 11.9997C15.9394 9.83112 14.1863 8.07279 12.0205 8.06143V6.84948C14.8561 6.86056 17.1516 9.16167 17.1516 11.9997C17.1516 14.8381 14.8561 17.1392 12.0205 17.1502V15.9383ZM12.0205 9.87964C13.1823 9.89072 14.1212 10.8352 14.1212 11.9997C14.1212 13.1646 13.1823 14.109 12.0205 14.1201V9.87964ZM2 11.9997C2 17.5228 6.47691 22 12 22C17.5228 22 22 17.5228 22 11.9997C22 6.47691 17.5228 2 12 2C6.47691 2 2 6.47691 2 11.9997Z" fill="#6B7084"/>
</svg>
