<svg width="24" height="24" viewBox="0 0 24 24" fill="none" xmlns="http://www.w3.org/2000/svg">
<path fill-rule="evenodd" clip-rule="evenodd" d="M7.15 6.00002C7.15 5.53058 7.53056 5.15002 8 5.15002H21C21.4694 5.15002 21.85 5.53058 21.85 6.00002C21.85 6.46947 21.4694 6.85002 21 6.85002H8C7.53056 6.85002 7.15 6.46947 7.15 6.00002ZM11.15 10C11.15 9.53058 11.5306 9.15002 12 9.15002H21C21.4694 9.15002 21.85 9.53058 21.85 10C21.85 10.4695 21.4694 10.85 21 10.85H12C11.5306 10.85 11.15 10.4695 11.15 10ZM11.15 14C11.15 13.5306 11.5306 13.15 12 13.15H21C21.4694 13.15 21.85 13.5306 21.85 14C21.85 14.4695 21.4694 14.85 21 14.85H12C11.5306 14.85 11.15 14.4695 11.15 14ZM8 17.15C7.53056 17.15 7.15 17.5306 7.15 18C7.15 18.4695 7.53056 18.85 8 18.85H21C21.4694 18.85 21.85 18.4695 21.85 18C21.85 17.5306 21.4694 17.15 21 17.15H8ZM5.14297 7.10279C3.92913 6.14906 2.15 7.01379 2.15 8.55748V15.4426C2.15 16.9863 3.92913 17.851 5.14297 16.8972L9.52438 13.4547C10.4671 12.714 10.4671 11.286 9.52438 10.5453L5.14297 7.10279ZM3.85 8.55748C3.85 8.43232 3.99426 8.36221 4.09267 8.43954L8.47408 11.8821C8.55052 11.9421 8.55052 12.0579 8.47408 12.118L4.09267 15.5605C3.99426 15.6378 3.85 15.5677 3.85 15.4426V8.55748Z" fill="#6B7084"/>
</svg>
