<svg width="24" height="24" viewBox="0 0 24 24" fill="none" xmlns="http://www.w3.org/2000/svg">
<path fill-rule="evenodd" clip-rule="evenodd" d="M6.87413 19.5365L12.3102 11.571L12.3118 11.5687C12.4529 11.3659 12.713 10.992 12.4804 10.577C12.3946 10.4249 12.1756 10.1697 11.6717 10.1697H8.8796L10.3644 4.88966C10.3864 4.8066 10.3864 4.72354 10.3754 4.64383C10.3686 4.45361 10.2862 4.2674 10.1159 4.1408C9.81315 3.91508 9.37378 3.96598 9.13555 4.25601L2.32795 12.5711L2.32679 12.5727C2.22539 12.7164 1.92248 13.1455 2.16936 13.5892C2.25724 13.7473 2.48036 14.0125 2.98702 14.0125L6.20271 14.0132L5.54364 19.1272C5.54014 19.1431 5.53859 19.1586 5.53703 19.1743C5.53615 19.1831 5.53527 19.192 5.53403 19.2009L5.52785 19.2538C5.52491 19.2764 5.52816 19.2978 5.53143 19.3192C5.53349 19.3328 5.53556 19.3463 5.53609 19.3603C5.53729 19.3682 5.53758 19.3763 5.53786 19.3844C5.53822 19.3947 5.53858 19.4051 5.5409 19.4153C5.57934 19.71 5.81139 19.9571 6.13543 19.9946C6.16427 19.9987 6.1931 20 6.22193 20C6.524 20 6.78077 19.8078 6.87413 19.5365ZM7.75919 11.1289C7.97133 11.3687 8.26105 11.5 8.57479 11.5H10.6872L7.28742 16.517L7.63343 13.8304C7.70346 13.4178 7.53114 13.1512 7.42198 13.0286C7.21671 12.7982 6.91327 12.6816 6.52126 12.6816H4.0072L8.26092 7.48789L7.46467 10.088C7.39945 10.4517 7.51273 10.851 7.75919 11.1289ZM13.0752 5.15C12.6057 5.15 12.2252 5.53055 12.2252 6C12.2252 6.46944 12.6057 6.85 13.0752 6.85L21.0752 6.85C21.5446 6.85 21.9252 6.46944 21.9252 6C21.9252 5.53056 21.5446 5.15 21.0752 5.15L13.0752 5.15ZM14.2252 10C14.2252 9.53055 14.6057 9.15 15.0752 9.15L21.0752 9.15C21.5446 9.15 21.9252 9.53055 21.9252 10C21.9252 10.4694 21.5446 10.85 21.0752 10.85L15.0752 10.85C14.6057 10.85 14.2252 10.4694 14.2252 10ZM10.2252 18C10.2252 17.5306 10.6057 17.15 11.0752 17.15L21.0752 17.15C21.5446 17.15 21.9252 17.5306 21.9252 18C21.9252 18.4694 21.5446 18.85 21.0752 18.85L11.0752 18.85C10.6057 18.85 10.2252 18.4694 10.2252 18ZM12.7252 14C12.7252 13.5306 13.1057 13.15 13.5752 13.15H21.0752C21.5446 13.15 21.9252 13.5306 21.9252 14C21.9252 14.4694 21.5446 14.85 21.0752 14.85H13.5752C13.1057 14.85 12.7252 14.4694 12.7252 14Z" fill="#6B7084"/>
</svg>
