<svg viewBox="0 0 24 24" fill="none" xmlns="http://www.w3.org/2000/svg">
<path fill-rule="evenodd" clip-rule="evenodd" d="M2 5.29033C2 4.13588 2.93587 3.20001 4.09032 3.20001H17.0621C18.3876 3.20001 19.4621 4.27453 19.4621 5.60001V5.78066H19.6C20.9255 5.78066 22 6.85517 22 8.18066V18.4C22 19.7255 20.9255 20.8 19.6 20.8H4.4C3.07452 20.8 2 19.7255 2 18.4V5.29033ZM3.6 7.32283V18.4C3.6 18.8418 3.95817 19.2 4.4 19.2H19.6C20.0418 19.2 20.4 18.8418 20.4 18.4V16.8868H14.5517C13.2262 16.8868 12.1517 15.8123 12.1517 14.4868V12.2158C12.1517 10.8903 13.2262 9.8158 14.5517 9.8158H20.4V8.18066C20.4 7.73883 20.0418 7.38066 19.6 7.38066H4.09032C3.92146 7.38066 3.75727 7.36063 3.6 7.32283ZM20.4 11.4158H14.5517C14.1099 11.4158 13.7517 11.774 13.7517 12.2158V14.4868C13.7517 14.9286 14.1099 15.2868 14.5517 15.2868H20.4V11.4158ZM3.6 5.29033C3.6 5.56113 3.81952 5.78066 4.09032 5.78066H17.8621V5.60001C17.8621 5.15818 17.5039 4.80001 17.0621 4.80001H4.09032C3.81953 4.80001 3.6 5.01954 3.6 5.29033Z" fill="currentColor"/>
</svg>