<svg viewBox="0 0 24 24" fill="none" xmlns="http://www.w3.org/2000/svg">
<path d="M20.5434 7.40622C20.5434 7.38907 20.5348 7.36334 20.5348 7.3462C20.5263 7.26045 20.5005 7.17471 20.4662 7.09754C20.4577 7.08039 20.4662 7.07181 20.4577 7.05466C20.4577 7.04609 20.4491 7.04609 20.4405 7.03751C20.3976 6.95177 20.3376 6.8746 20.2605 6.806C20.2433 6.78885 20.2262 6.78028 20.209 6.76313C20.1747 6.73741 20.149 6.71168 20.1147 6.68596L12.2004 2.11576C11.9346 1.96141 11.6088 1.96141 11.343 2.11576L3.42872 6.69453C3.39443 6.71168 3.36013 6.73741 3.33441 6.76313C3.31726 6.78028 3.30011 6.78885 3.28296 6.806C3.20579 6.8746 3.14577 6.95177 3.10289 7.03751C3.10289 7.04609 3.09432 7.04609 3.08574 7.05466C3.07717 7.07181 3.08574 7.08039 3.07717 7.09754C3.04287 7.17471 3.01715 7.26045 3.00857 7.3462C3.00857 7.36334 3.00857 7.38049 3 7.40622C3 7.41479 3 7.42337 3 7.43194V16.5723C3 16.881 3.16292 17.164 3.42872 17.3183L11.343 21.8885C11.3601 21.8971 11.3859 21.9057 11.403 21.9143C11.4287 21.9228 11.4459 21.9314 11.4716 21.94C11.5659 21.9743 11.6688 22 11.7631 22C11.8574 22 11.9603 21.9743 12.0547 21.94C12.0804 21.9314 12.1061 21.9228 12.1233 21.9143C12.1404 21.9057 12.1661 21.8971 12.1833 21.8885L20.0975 17.3183C20.3633 17.164 20.5263 16.881 20.5263 16.5723V7.43194C20.552 7.42337 20.5434 7.41479 20.5434 7.40622ZM11.7717 3.85638L17.8682 7.37192L11.7717 10.3473L5.68382 7.37192L11.7717 3.85638ZM4.7149 8.80386L10.9143 11.8392V19.6592L4.7149 16.0836V8.80386ZM12.6292 19.6592V11.8392L18.8285 8.80386V16.075L12.6292 19.6592Z" fill="currentColor"/>
</svg>