<svg width="24" height="24" viewBox="0 0 24 24" fill="none" xmlns="http://www.w3.org/2000/svg">
<path fill-rule="evenodd" clip-rule="evenodd" d="M20.4972 8.79708C20.5238 8.69493 20.5188 8.58709 20.4828 8.48785L19.979 7.09894L20.314 6.34388C20.4411 6.05411 20.3807 5.71516 20.158 5.49008L19.0483 4.35398C18.4334 3.72047 17.5117 3.49742 16.6791 3.78058L15.2431 2.19453C15.1453 2.08651 15.0067 2.02437 14.861 2.02319L11.9958 2L9.139 2.02319C8.99322 2.02437 8.85461 2.08656 8.75681 2.19465L7.32163 3.78082C6.4883 3.49732 5.56627 3.72051 4.95119 4.35555L3.83978 5.49232C3.61925 5.71516 3.55893 6.05411 3.68513 6.34187L4.02097 7.09894L3.51719 8.48785C3.48119 8.58709 3.47619 8.69493 3.50284 8.79708L3.87596 10.2273L5.57264 16.7485C5.79792 17.6165 6.31872 18.3782 7.0441 18.9002C7.10038 18.9404 7.20255 19.0129 7.34613 19.1143C7.5851 19.283 7.85302 19.4709 8.14365 19.6733C8.97417 20.2516 9.82069 20.8299 10.6337 21.3701C10.7845 21.4703 10.9331 21.5685 11.0791 21.6644L11.1558 21.7146C11.435 21.8989 11.7029 22.0016 12.0028 22C12.2975 22.0016 12.5678 21.8981 12.8468 21.7129L12.9209 21.6644C13.0669 21.5685 13.2155 21.4703 13.3663 21.3701C14.1793 20.8299 15.0258 20.2516 15.8564 19.6733C16.147 19.4709 16.4149 19.283 16.6539 19.1143C16.7975 19.0129 16.8996 18.9404 16.9542 18.9015C17.6813 18.3782 18.2021 17.6165 18.4274 16.7482L20.1241 10.227L20.4972 8.79708ZM18.9277 7.25711L19.4478 8.69086L19.1156 9.96426L17.4187 16.4861C17.2543 17.1195 16.8749 17.6745 16.3471 18.0543C16.2957 18.0909 16.1949 18.1625 16.0528 18.2628C15.8156 18.4303 15.5495 18.6169 15.2608 18.818C14.436 19.3922 13.5955 19.9665 12.7895 20.502C12.6402 20.6012 12.4933 20.6983 12.3488 20.7932L12.273 20.8429C12.1486 20.9255 12.0634 20.9581 12.0028 20.9578C11.937 20.9581 11.8525 20.9257 11.7284 20.8438L11.6512 20.7932C11.5068 20.6983 11.3598 20.6012 11.2105 20.502C10.4045 19.9665 9.56397 19.3922 8.73921 18.818C8.4505 18.6169 8.18442 18.4303 7.94722 18.2628C7.80509 18.1625 7.70432 18.0909 7.65114 18.053C7.12515 17.6745 6.7457 17.1195 6.58138 16.4864L4.88453 9.96459L4.55225 8.69086L5.07229 7.25711C5.11819 7.13056 5.11334 6.99116 5.05875 6.86811L4.71341 6.08962L5.69814 5.08243C6.03873 4.7308 6.54656 4.61108 7.00184 4.77307L7.29946 4.87928C7.49797 4.95012 7.71961 4.8944 7.86103 4.73811L9.37619 3.06355L12.0042 3.04225L14.6239 3.06355L16.1401 4.73823C16.2817 4.89459 16.5036 4.95019 16.7021 4.87908L16.9992 4.77271C17.4535 4.61106 17.9616 4.73079 18.3016 5.08109L19.2866 6.08955L18.9413 6.86811C18.8867 6.99116 18.8818 7.13056 18.9277 7.25711ZM14.5428 15.4578L13.6111 14.967C13.4568 14.8859 13.1994 14.7648 13.0389 14.6964L12.5324 14.4836C12.3719 14.4173 12.2218 14.3615 12.1989 14.3615H12.1311H12.0634C12.0404 14.3615 11.8904 14.4173 11.7298 14.4836L11.2233 14.6964C11.0628 14.7648 10.8054 14.8859 10.6511 14.967L9.72041 15.4578C9.56512 15.5379 9.55574 15.6885 9.69748 15.7885L10.5052 16.3657C10.648 16.4679 10.8721 16.6448 11.0034 16.7596L11.2306 16.9587C11.3619 17.0724 11.5766 17.262 11.7069 17.3778L11.9227 17.5716C11.981 17.6232 12.055 17.6506 12.1311 17.6569C12.2072 17.6506 12.2822 17.6232 12.3406 17.5716L12.5553 17.3778C12.6856 17.262 12.9003 17.0724 13.0316 16.9587L13.2599 16.7596C13.3912 16.6448 13.6142 16.4679 13.757 16.3657L14.5647 15.7885C14.7065 15.6885 14.6971 15.5379 14.5428 15.4578ZM17.9771 8.22933C18.0751 8.37467 18.1866 8.5632 18.2262 8.64745C18.2658 8.73171 18.3002 9.04346 18.2971 9.14141L18.271 9.22672C18.2283 9.37838 18.2231 9.3868 18.2231 9.3868C18.1137 9.52372 17.9271 9.74068 17.8083 9.86812L15.9656 11.845C15.8468 11.9724 15.8041 12.2105 15.8718 12.3727L16.173 13.093C16.2408 13.2552 16.248 13.5217 16.1876 13.6881L16.1261 13.8556C16.0281 14.1273 15.8583 14.3674 15.6363 14.5507L15.3465 14.7887C15.211 14.8993 14.9724 14.9277 14.816 14.853L13.7873 14.3569C13.6299 14.2821 13.3965 14.1241 13.2673 14.0062L12.4439 13.2552C12.3053 13.1289 12.298 12.9119 12.4272 12.776L14.2845 11.5122C14.4283 11.4132 14.4804 11.2057 14.3981 11.0509L13.6779 9.6817C13.5966 9.52688 13.5799 9.28254 13.6435 9.13825C13.705 8.99396 13.8895 8.82544 14.0521 8.7633L16.3106 7.90178C16.4732 7.83964 16.4648 7.7754 16.2918 7.75854L14.9661 7.63216C14.7931 7.61531 14.5138 7.63953 14.346 7.68693L13.1912 8.01237C13.0234 8.05976 12.9118 8.23986 12.9442 8.41259L13.3975 10.915C13.4278 11.0877 13.4392 11.2784 13.4205 11.3384C13.4007 11.3974 13.2464 11.4764 13.0765 11.5132L12.373 11.6638C12.3053 11.6786 12.2198 11.687 12.1312 11.6891C12.0426 11.687 11.9572 11.6786 11.8884 11.6638L11.1859 11.5132C11.016 11.4764 10.8618 11.3974 10.843 11.3384C10.8232 11.2784 10.8336 11.0877 10.8649 10.915L11.3193 8.41259C11.3495 8.23986 11.238 8.05976 11.0713 8.01237L9.91646 7.68693C9.74866 7.63953 9.47038 7.61531 9.29633 7.63216L7.9706 7.75854C7.79759 7.7754 7.78925 7.83964 7.95184 7.90178L10.2104 8.7633C10.373 8.82544 10.5574 8.99396 10.62 9.13825C10.6815 9.28254 10.6658 9.52688 10.5845 9.6817L9.86435 11.0509C9.78201 11.2057 9.83308 11.4132 9.97691 11.5122L11.8352 12.776C11.9645 12.9119 11.9572 13.1289 11.8185 13.2552L10.9952 14.0062C10.8659 14.1241 10.6314 14.2821 10.4751 14.3569L9.44641 14.853C9.29007 14.9277 9.0514 14.8993 8.91591 14.7887L8.62721 14.5507C8.40417 14.3674 8.23533 14.1273 8.13527 13.8556L8.07482 13.6881C8.01437 13.5217 8.02063 13.2552 8.08837 13.093L8.38958 12.3727C8.45732 12.2105 8.41564 11.9724 8.29682 11.845L6.45519 9.86812C6.33533 9.74068 6.14877 9.52372 6.04038 9.3868C6.04038 9.3868 6.03308 9.37838 5.99139 9.22672L5.96429 9.14141C5.96221 9.04346 5.9966 8.73171 6.03621 8.64745C6.07581 8.5632 6.18733 8.37467 6.28426 8.22933L6.80642 7.4489C6.90335 7.30356 7.07219 7.07185 7.18058 6.93494L7.88409 6.04287C7.99249 5.9049 8.08629 5.79431 8.09358 5.79536C8.09984 5.79642 8.10713 5.79642 8.10818 5.79536C8.10818 5.79431 8.24888 5.81959 8.4198 5.85329L9.49748 6.06183C9.6684 6.09553 9.87998 6.1366 9.96857 6.1524C10.0572 6.16925 10.2646 6.13976 10.4303 6.085L11.2807 5.80695C11.4465 5.75218 11.7206 5.6753 11.8894 5.63633C11.8894 5.63633 11.9582 5.61948 12.1312 5.62053C12.3042 5.61948 12.372 5.63633 12.372 5.63633C12.5419 5.6753 12.816 5.75218 12.9817 5.80695L13.8321 6.085C13.9968 6.13976 14.2053 6.16925 14.2939 6.1524C14.3824 6.1366 14.594 6.09553 14.7649 6.06183L15.8426 5.85329C16.0135 5.81959 16.1542 5.79431 16.1553 5.79536C16.1563 5.79642 16.1626 5.79642 16.1688 5.79536C16.1751 5.79431 16.2699 5.9049 16.3783 6.04287L17.0818 6.93494C17.1902 7.07185 17.358 7.30356 17.456 7.4489L17.9771 8.22933Z" fill="#6B7084"/>
</svg>
