<svg width="24" height="24" viewBox="0 0 24 24" fill="none" xmlns="http://www.w3.org/2000/svg">
<path fill-rule="evenodd" clip-rule="evenodd" d="M2.14999 6.00002C2.14999 5.53058 2.53055 5.15002 2.99999 5.15002H15C15.4694 5.15002 15.85 5.53058 15.85 6.00002C15.85 6.46947 15.4694 6.85002 15 6.85002H2.99999C2.53055 6.85002 2.14999 6.46947 2.14999 6.00002ZM2.14999 10C2.14999 9.53058 2.53055 9.15002 2.99999 9.15002H15C15.4694 9.15002 15.85 9.53058 15.85 10C15.85 10.4695 15.4694 10.85 15 10.85H2.99999C2.53055 10.85 2.14999 10.4695 2.14999 10ZM17.8167 10C17.8167 9.53058 18.1972 9.15002 18.6667 9.15002H21C21.4694 9.15002 21.85 9.53058 21.85 10C21.85 10.4695 21.4694 10.85 21 10.85H19.5167V18.6818C19.5167 20.4368 18.0862 21.85 16.3333 21.85C14.5805 21.85 13.15 20.4368 13.15 18.6818C13.15 16.9269 14.5805 15.5137 16.3333 15.5137C16.8683 15.5137 17.3732 15.6453 17.8167 15.8781V10ZM17.8167 18.6818C17.8167 17.8762 17.1578 17.2137 16.3333 17.2137C15.5089 17.2137 14.85 17.8762 14.85 18.6818C14.85 19.4875 15.5089 20.15 16.3333 20.15C17.1578 20.15 17.8167 19.4875 17.8167 18.6818ZM2.99999 17.15C2.53055 17.15 2.14999 17.5306 2.14999 18C2.14999 18.4695 2.53055 18.85 2.99999 18.85H9.99999C10.4694 18.85 10.85 18.4695 10.85 18C10.85 17.5306 10.4694 17.15 9.99999 17.15H2.99999ZM2.99999 13.15C2.53055 13.15 2.14999 13.5306 2.14999 14C2.14999 14.4695 2.53055 14.85 2.99999 14.85H14C14.4694 14.85 14.85 14.4695 14.85 14C14.85 13.5306 14.4694 13.15 14 13.15H2.99999Z" fill="#6B7084"/>
</svg>
