<svg viewBox="0 0 24 24" fill="none" xmlns="http://www.w3.org/2000/svg">
<path fill-rule="evenodd" clip-rule="evenodd" d="M21.56 18.9847C21.4367 19.0516 21.3017 19.0834 21.1667 19.0834C21.005 19.0834 20.8442 19.0365 20.7042 18.9438L17 16.474V17.4168C17 18.3362 16.2525 19.0834 15.3333 19.0834H3.66667C2.7475 19.0834 2 18.3362 2 17.4168V6.58326C2 5.66472 2.7475 4.91669 3.66667 4.91669H15.3333C16.2525 4.91669 17 5.66472 17 6.58326V7.52686L20.7042 5.0571C20.9592 4.8866 21.2892 4.86988 21.56 5.01531C21.8308 5.16074 22 5.44324 22 5.74997V18.2501C22 18.5576 21.8308 18.8393 21.56 18.9847ZM20.3334 7.30784L16.6292 9.77677C16.6076 9.79098 16.5826 9.79265 16.5601 9.80519C16.5101 9.83277 16.4584 9.85283 16.4017 9.86954C16.3484 9.88542 16.2976 9.89629 16.2434 9.9013C16.2167 9.90381 16.1934 9.91718 16.1667 9.91718C16.1384 9.91718 16.1142 9.90381 16.0859 9.90047C16.0301 9.89545 15.9784 9.88459 15.9251 9.86787C15.8726 9.85199 15.8242 9.83277 15.7776 9.8077C15.7317 9.78346 15.6909 9.75504 15.6501 9.72245C15.6051 9.68567 15.5659 9.64639 15.5292 9.60126C15.5126 9.58036 15.4884 9.56866 15.4734 9.54609C15.4592 9.52436 15.4567 9.49845 15.4451 9.47589C15.4176 9.42658 15.3984 9.37643 15.3817 9.32127C15.3651 9.2661 15.3534 9.21345 15.3484 9.15829C15.3459 9.13238 15.3334 9.10981 15.3334 9.0839V6.58321H3.66674V17.4485H15.3334V14.9169C15.3334 14.891 15.3459 14.8684 15.3484 14.8425C15.3534 14.7865 15.3651 14.7339 15.3817 14.6795C15.3984 14.6244 15.4176 14.5742 15.4451 14.5241C15.4567 14.5015 15.4592 14.4764 15.4734 14.4547C15.4884 14.4321 15.5126 14.4196 15.5301 14.3987C15.5659 14.3544 15.6042 14.316 15.6492 14.2792C15.6909 14.2457 15.7326 14.2165 15.7801 14.1914C15.8251 14.1672 15.8709 14.1488 15.9209 14.1329C15.9767 14.1154 16.0317 14.1045 16.0901 14.0995C16.1167 14.0961 16.1392 14.0836 16.1667 14.0836C16.1926 14.0836 16.2142 14.0961 16.2392 14.0986C16.2959 14.1037 16.3492 14.1145 16.4042 14.1312C16.4592 14.148 16.5101 14.168 16.5592 14.1956C16.5817 14.2073 16.6076 14.209 16.6292 14.224L20.3334 16.6929V7.30784Z" fill="currentColor"/>
</svg>