<svg width="24" height="24" viewBox="0 0 24 24" fill="none" xmlns="http://www.w3.org/2000/svg">
<path fill-rule="evenodd" clip-rule="evenodd" d="M3.09478 10.9075C3.23632 11.3674 3.51942 14.0293 4.36752 14.797C5.24216 15.5872 8.54139 15.5748 9.17304 15.2329C10.5867 14.4665 11.1599 11.9908 11.4099 10.9069C11.5509 10.2931 11.9993 10.2931 11.9993 10.2931C11.9993 10.2931 12.4743 10.2931 12.6158 10.9062C12.8659 11.9908 13.4136 14.4736 14.8261 15.2387C15.4583 15.5819 18.7575 15.5942 19.6334 14.804C20.4803 14.0363 20.7628 11.3667 20.9043 10.9062C21.0447 10.4464 21.7524 9.98585 21.8934 9.83256C22.0355 9.67927 22.0355 9.06547 21.8934 8.91154C21.6109 8.60497 18.2757 8.33174 14.6845 8.75825C13.9679 8.84356 13.6955 9.06483 11.9987 9.06483C10.3031 9.06483 10.0294 8.84292 9.31341 8.75825C5.7246 8.33238 2.38881 8.60561 2.10572 8.91218C1.96476 9.06547 1.96476 9.67991 2.10572 9.8332C2.24726 9.98649 2.95382 10.447 3.09478 10.9075Z" fill="#6B7084"/>
</svg>
