<svg width="24" height="24" viewBox="0 0 24 24" fill="none" xmlns="http://www.w3.org/2000/svg">
<path fill-rule="evenodd" clip-rule="evenodd" d="M2.03387 20.4649L7.93309 16.9993L12 9.8719V2.99991C11.8928 2.99991 11.7855 3.07144 11.7041 3.21369L6.88667 11.6565L2.06962 20.0992C1.98843 20.2417 1.98073 20.3709 2.03387 20.4649Z" fill="#FE5907"/>
<path fill-rule="evenodd" clip-rule="evenodd" d="M12.0001 2.99991V9.8719L16.0668 16.9993L21.9661 20.4649C22.0194 20.3709 22.0117 20.2417 21.9305 20.0992L17.1133 11.6565L12.2958 3.21369C12.2144 3.07123 12.1072 2.99991 12.0001 2.99991Z" fill="#9E1F63"/>
<path fill-rule="evenodd" clip-rule="evenodd" d="M21.9661 20.4649L16.0669 16.9994H7.93318L2.03396 20.4649C2.0871 20.5593 2.20148 20.6178 2.36426 20.6178H21.6356C21.7984 20.6178 21.9128 20.5593 21.9661 20.4649Z" fill="#662D91"/>
<path fill-rule="evenodd" clip-rule="evenodd" d="M7.93314 16.9994H16.0668L12.0001 9.87195L7.93314 16.9994Z" fill="white"/>
</svg>
