<svg viewBox="0 0 24 24" fill="none" xmlns="http://www.w3.org/2000/svg">
<g clip-path="url(#clip0_1265_21036)">
<path d="M12 24C18.6274 24 24 18.6274 24 12C24 5.37258 18.6274 0 12 0C5.37258 0 0 5.37258 0 12C0 18.6274 5.37258 24 12 24Z" fill="#1A53F0"/>
<path fill-rule="evenodd" clip-rule="evenodd" d="M14.0766 9.50754C14.0513 9.50754 14.0272 9.50411 14.0044 9.50085C13.9836 9.4979 13.9639 9.49508 13.945 9.49508C13.2542 9.49508 12.5626 9.49508 11.8718 9.49041C11.7269 9.49041 11.6786 9.534 11.6786 9.67801C11.6833 10.4782 11.688 11.2784 11.6786 12.0748C11.6786 12.2304 11.7402 12.2717 11.885 12.2717C12.1415 12.2717 12.398 12.2731 12.6546 12.2745C13.1678 12.2772 13.6812 12.28 14.1942 12.2717C14.4092 12.267 14.4831 12.3495 14.4831 12.5426V13.7841C14.4831 13.9427 14.3972 13.9437 14.3057 13.9449C14.2557 13.9455 14.204 13.9461 14.1638 13.9725C14.1599 14.0083 14.155 14.0463 14.1495 14.0883L14.1495 14.0883C14.1431 14.1377 14.1359 14.1928 14.1288 14.2566H10.1343L10.0971 14.2568C9.90532 14.258 9.73226 14.2591 9.81494 13.9593C9.70513 13.9461 9.63114 13.9375 9.5299 13.9282V9.71382C9.58456 9.70633 9.63772 9.70033 9.69263 9.69414L9.69266 9.69414C9.73476 9.68939 9.77789 9.68453 9.82351 9.67879V8.46758H8.60778V9.67412C8.65485 9.68807 8.70357 9.69566 8.75264 9.69669C8.86168 9.69202 8.90841 9.73094 8.90841 9.85238C8.90647 10.0804 8.90614 10.3092 8.90581 10.538V10.538V10.5381C8.90533 10.8622 8.90486 11.1866 8.89984 11.5096C8.89984 11.5626 8.82196 11.6583 8.77679 11.6583C7.8757 11.663 6.97462 11.6583 6.07353 11.6536C6.05309 11.6488 6.03377 11.6401 6.01668 11.6279C6.03381 8.78128 8.69423 6.02335 11.6818 6V6.27556C11.6818 6.52794 11.6827 6.78032 11.6837 7.03252C11.6856 7.53642 11.6875 8.03962 11.6818 8.54075C11.6818 8.73302 11.7433 8.78984 11.931 8.78984C12.5696 8.78102 13.2098 8.78102 13.8515 8.78984C14.0182 8.78984 14.1187 8.75948 14.0969 8.56721C14.0789 8.41853 14.1669 8.38351 14.2978 8.3874C14.6171 8.39674 14.9364 8.4053 15.2557 8.4053C15.4045 8.4053 15.4613 8.45746 15.4574 8.6108C15.4489 8.98211 15.4489 9.35419 15.4574 9.7216C15.4574 9.87728 15.392 9.90064 15.2604 9.89597C14.9489 9.8874 14.6374 9.88273 14.3258 9.89597C14.1335 9.90531 14.0548 9.83914 14.0922 9.64687C14.0948 9.59988 14.0896 9.55278 14.0766 9.50754ZM14.1488 15.0154L14.1488 15.0154C14.1519 15.0639 14.1549 15.1117 14.159 15.1627H15.3709V13.9445C15.0652 14.0091 15.0709 13.8225 15.0767 13.6309C15.0772 13.6145 15.0777 13.5981 15.078 13.5818C15.0827 13.2097 15.0827 12.8384 15.078 12.471C15.078 12.3309 15.1178 12.274 15.2618 12.274C16.1107 12.2787 16.9635 12.2787 17.8125 12.274C18.031 12.274 18.0077 12.4061 17.9875 12.5208C17.9839 12.5413 17.9804 12.5614 17.9783 12.58C17.893 13.4412 17.6152 14.2723 17.1653 15.0117C16.1326 16.6908 14.6318 17.6583 12.6809 17.9409C12.6622 17.9434 12.6414 17.9445 12.6212 17.9457H12.6212C12.6034 17.9467 12.586 17.9476 12.571 17.9495L12.5706 17.9495C12.4362 17.9541 12.3697 17.9564 12.3369 17.9243C12.3046 17.8928 12.3047 17.8284 12.3047 17.7007L12.3047 17.6871C12.3083 16.8298 12.3083 15.9736 12.3047 15.1184C12.3047 14.9129 12.3483 14.821 12.5843 14.8342C12.8765 14.8494 13.1701 14.8457 13.4632 14.8421H13.4632H13.4633C13.5921 14.8405 13.7207 14.8389 13.8491 14.8389C13.9098 14.8384 13.9691 14.842 14.0299 14.8457H14.0299C14.0649 14.8478 14.1005 14.8499 14.1372 14.8514C14.1421 14.9102 14.1455 14.9632 14.1488 15.0154ZM9.79775 15.1664H8.57657L8.57891 13.956C8.74503 13.926 8.82913 13.9109 8.8717 13.8605C8.91536 13.809 8.91536 13.7204 8.91536 13.5411C8.91536 13.4569 8.91514 13.3725 8.91492 13.2879C8.91421 13.0166 8.9135 12.7439 8.92003 12.4739C8.9247 12.3252 8.87875 12.2684 8.72299 12.2684C7.87876 12.2731 7.0392 12.2684 6.19419 12.2598C6.03297 12.2552 5.98001 12.3213 6.00649 12.4653C6.02441 12.5707 6.03926 12.6766 6.05409 12.7823C6.0889 13.0304 6.12357 13.2775 6.1973 13.5139C6.83593 15.6514 8.21832 17.0728 10.353 17.7376C10.641 17.8281 10.9413 17.8791 11.2383 17.9295C11.3703 17.9519 11.5017 17.9743 11.6311 17.9999C11.6504 17.9624 11.6651 17.9226 11.6747 17.8816C11.6783 16.9148 11.6783 15.9485 11.6747 14.9827C11.6649 14.95 11.6469 14.9204 11.6224 14.8966C11.5978 14.8729 11.5675 14.8559 11.5345 14.8473C11.0179 14.8343 10.5018 14.8343 9.98622 14.8473C9.92937 14.8473 9.86317 14.9306 9.82423 14.9913C9.80504 15.0476 9.79607 15.107 9.79775 15.1664Z" fill="white"/>
</g>
<defs>
<clipPath id="clip0_1265_21036">
<rect width="24" height="24" fill="white"/>
</clipPath>
</defs>
</svg>