<svg viewBox="0 0 24 24" fill="none" xmlns="http://www.w3.org/2000/svg">
<g clip-path="url(#clip0_1265_21030)">
<path d="M12 24C18.6274 24 24 18.6274 24 12C24 5.37258 18.6274 0 12 0C5.37258 0 0 5.37258 0 12C0 18.6274 5.37258 24 12 24Z" fill="#015CC6"/>
<path fill-rule="evenodd" clip-rule="evenodd" d="M11.6456 12.2415V6H11.3883C11.3886 6.00381 11.3886 6.00764 11.3883 6.01145C11.3759 6.01328 11.363 6.01444 11.3504 6.01558C11.3331 6.01714 11.3163 6.01865 11.3021 6.02181C11.2921 6.02403 11.2822 6.02808 11.2724 6.03208C11.2581 6.03789 11.244 6.04362 11.2302 6.04362C11.1024 6.04552 10.9754 6.06384 10.8523 6.09814C10.7627 6.11501 10.6744 6.13812 10.5865 6.16111C10.5297 6.17599 10.473 6.19084 10.4162 6.20391C10.3686 6.21492 10.3226 6.23156 10.2768 6.24818C10.2023 6.27516 10.128 6.30207 10.0471 6.30477C9.97707 6.34519 9.90153 6.37155 9.82557 6.39805C9.77551 6.41551 9.72527 6.43304 9.67633 6.4547C9.61609 6.48048 9.55709 6.50874 9.49805 6.53702L9.49805 6.53702C9.42724 6.57094 9.35637 6.60489 9.28323 6.63462C9.18311 6.67714 9.08711 6.72879 8.99645 6.78891C8.84843 6.88303 8.70368 6.98124 8.55866 7.07965L8.55863 7.07966L8.49214 7.12476C8.39618 7.18964 8.30513 7.25997 8.21408 7.33139C7.99202 7.50935 7.78404 7.70421 7.592 7.91422C7.44875 8.06851 7.31424 8.23069 7.1891 8.4C7.13106 8.47884 7.07646 8.56071 7.02178 8.6427L7.02177 8.6427L7.02177 8.64271C6.96755 8.724 6.91324 8.80542 6.85543 8.88414C6.79942 8.96873 6.74933 9.05708 6.7055 9.14857C6.68483 9.18745 6.66573 9.22724 6.64662 9.26707L6.64662 9.26707L6.64662 9.26707C6.63599 9.28922 6.62536 9.31138 6.61445 9.33339C6.6049 9.35266 6.59493 9.37171 6.58496 9.39074C6.56305 9.43259 6.54118 9.47437 6.52394 9.51822C6.50249 9.57268 6.47955 9.62659 6.45661 9.68052L6.45661 9.68053C6.41891 9.76913 6.3812 9.85776 6.35002 9.94893C6.32026 10.0352 6.29279 10.1223 6.26534 10.2093C6.25257 10.2498 6.2398 10.2902 6.22681 10.3306C6.20227 10.4069 6.18319 10.4849 6.16465 10.5623C6.16066 10.578 6.15923 10.5954 6.15781 10.6126C6.15535 10.6423 6.15295 10.6714 6.13739 10.6904C6.12002 10.713 6.1198 10.7395 6.1196 10.7648C6.1194 10.7894 6.11921 10.8127 6.10304 10.83C6.08812 10.8459 6.08999 10.8667 6.09188 10.8878C6.09414 10.9129 6.09643 10.9384 6.07033 10.9565C6.074 10.9904 6.0674 11.0237 6.06089 11.0567C6.05577 11.0826 6.0507 11.1082 6.0507 11.1337C6.05098 11.1754 6.04297 11.2164 6.03494 11.2575C6.02702 11.298 6.01908 11.3387 6.01908 11.3801C6.01908 11.3828 6.00654 11.3883 6 11.3883V11.6516H8.76147L8.78982 11.6514C8.80908 11.6511 8.82835 11.6509 8.84325 11.6516C8.8656 11.6527 8.87978 11.6494 8.87978 11.6216C8.87896 11.606 8.87896 11.5904 8.87978 11.5747V9.99364C8.87978 9.91731 8.87923 9.91731 8.79691 9.91731H8.58646C8.557 9.91731 8.54256 9.91731 8.53548 9.91009C8.52867 9.90314 8.52867 9.88952 8.52867 9.86279V8.58646C8.52867 8.54502 8.53466 8.53194 8.57883 8.53194H9.85515C9.88743 8.53194 9.90108 8.53194 9.90666 8.53865C9.91075 8.54357 9.91049 8.55211 9.91004 8.5669V8.56691C9.90987 8.57249 9.90967 8.57896 9.90967 8.58646V9.84043C9.91187 9.8558 9.91187 9.87141 9.90967 9.88678C9.90586 9.89768 9.89277 9.91295 9.8835 9.91295H9.6845C9.55856 9.90858 9.55856 9.92167 9.55856 10.0433V13.9191V14.0009C9.5602 14.0685 9.57274 14.0832 9.63762 14.0832H9.87206C9.90259 14.0821 9.91077 14.0925 9.91077 14.1225V14.31C9.9064 14.436 9.91949 14.436 10.0405 14.436H13.9518H14.0107C14.0614 14.4338 14.0805 14.4174 14.0805 14.3689V14.123C14.08 14.092 14.0898 14.0838 14.1198 14.0838H14.3656C14.4142 14.0832 14.4327 14.0641 14.4327 14.0134V13.9551V12.6902V12.3855V12.3843C14.4327 12.3622 14.4327 12.3506 14.4016 12.3506H14.3079H11.7547C11.7001 12.3506 11.6729 12.3506 11.6592 12.3369C11.6456 12.3233 11.6456 12.296 11.6456 12.2415ZM8.7642 12.3489H6V12.6062C6.00381 12.6059 6.00764 12.6059 6.01145 12.6062L6.01953 12.6448C6.02893 12.6896 6.0383 12.7341 6.04634 12.779C6.04934 12.7952 6.04882 12.813 6.04831 12.8309C6.04741 12.8619 6.04651 12.8933 6.06379 12.9175C6.07797 12.9374 6.07843 12.9599 6.07891 12.983C6.07935 13.0044 6.0798 13.0263 6.09105 13.0473C6.10571 13.0745 6.108 13.1103 6.11033 13.1467C6.11173 13.1684 6.11313 13.1904 6.11722 13.2108C6.13243 13.2923 6.15293 13.3721 6.17346 13.452L6.17346 13.452C6.18383 13.4924 6.19421 13.5328 6.20391 13.5734C6.25214 13.7552 6.31002 13.9342 6.37728 14.1099C6.38415 14.129 6.39055 14.148 6.39696 14.1671C6.40885 14.2026 6.42074 14.238 6.43562 14.2734C6.52867 14.4886 6.6308 14.6998 6.74203 14.907C6.84506 15.0996 6.96706 15.2809 7.08913 15.4623L7.08913 15.4623L7.13948 15.5372C7.17546 15.5939 7.21998 15.6454 7.2647 15.697L7.26471 15.697C7.29657 15.7339 7.32853 15.7708 7.35756 15.8098C7.52061 16.0189 7.70118 16.2137 7.89732 16.3921C8.00635 16.494 8.12536 16.5901 8.24345 16.6854L8.29477 16.7269C8.4267 16.8344 8.5663 16.9269 8.70698 17.0202L8.7751 17.0654C8.95687 17.1864 9.14668 17.2948 9.34321 17.3898C9.50965 17.476 9.68054 17.5534 9.85515 17.6215C9.92664 17.6482 9.99953 17.6715 10.0724 17.6948C10.1201 17.7101 10.1677 17.7253 10.215 17.7415C10.3038 17.7716 10.3945 17.7935 10.4853 17.8155C10.5673 17.8353 10.6494 17.8552 10.7302 17.8811C10.7924 17.8941 10.8554 17.9026 10.9189 17.9067C10.9352 17.9091 10.9505 17.9139 10.9657 17.9187L10.9657 17.9187L10.9657 17.9187L10.9657 17.9187C10.9779 17.9226 10.99 17.9264 11.0028 17.929C11.0126 17.9311 11.0228 17.9305 11.033 17.93C11.0529 17.929 11.0729 17.9279 11.0906 17.9459C11.0982 17.9525 11.1195 17.9525 11.1337 17.9525C11.1808 17.9447 11.227 17.955 11.2734 17.9652L11.2734 17.9652C11.3087 17.973 11.3441 17.9808 11.3801 17.9808C11.3828 17.9808 11.3883 17.9934 11.3883 17.9999H11.6483V15.1774C11.6483 15.1472 11.6483 15.1325 11.641 15.1253C11.634 15.1185 11.6204 15.1185 11.5938 15.1185H9.96583C9.92712 15.1185 9.91131 15.1212 9.91131 15.1681C9.91385 15.223 9.91301 15.2773 9.91216 15.3318V15.3319V15.3319C9.91174 15.3592 9.91131 15.3865 9.91131 15.414C9.91131 15.4413 9.91131 15.4549 9.9045 15.4617C9.89768 15.4685 9.88405 15.4685 9.85679 15.4685H8.59191L8.57669 15.4686C8.553 15.4688 8.54115 15.4689 8.53528 15.463C8.5294 15.4571 8.5295 15.4453 8.52968 15.4216L8.52976 15.4064V14.2467V14.1181C8.52867 14.0919 8.53957 14.0853 8.56356 14.0853C8.59357 14.0853 8.62357 14.0848 8.65356 14.0842H8.65358H8.6536C8.7135 14.0832 8.77332 14.0821 8.83289 14.0853C8.88196 14.0853 8.88687 14.0684 8.88196 14.0308C8.88114 14.019 8.88114 14.0072 8.88196 13.9954V12.4377V12.3794C8.8836 12.3489 8.87324 12.3489 8.84598 12.3489H8.7642ZM12.3489 17.9947V15.2305V15.1487C12.3489 15.1215 12.3489 15.1111 12.3794 15.1128H12.4377H13.9954C14.0072 15.1136 14.019 15.1136 14.0308 15.1128C14.0684 15.1078 14.0853 15.1128 14.0853 15.1618C14.0821 15.2214 14.0832 15.2812 14.0842 15.3411V15.3412C14.0848 15.3711 14.0853 15.4011 14.0853 15.4312C14.0853 15.4551 14.0919 15.4661 14.1181 15.465H14.2467H15.4064C15.4119 15.465 15.417 15.465 15.4216 15.465C15.4453 15.4652 15.4571 15.4653 15.463 15.4594C15.4689 15.4536 15.4688 15.4417 15.4686 15.418C15.4686 15.4134 15.4685 15.4084 15.4685 15.4028V14.1379C15.4685 14.1107 15.4685 14.097 15.4617 14.0902C15.4549 14.0834 15.4413 14.0834 15.414 14.0834C15.3865 14.0834 15.3592 14.083 15.3319 14.0826H15.3318C15.2773 14.0817 15.223 14.0809 15.1681 14.0834C15.1212 14.0834 15.1185 14.0676 15.1185 14.0289V12.4009C15.1185 12.3743 15.1185 12.3607 15.1253 12.3537C15.1325 12.3464 15.1472 12.3464 15.1774 12.3464H17.9999V12.6037C17.9934 12.6037 17.9808 12.6092 17.9808 12.6119C17.9808 12.6479 17.973 12.6833 17.9652 12.7186L17.9652 12.7186C17.955 12.765 17.9447 12.8112 17.9525 12.8583C17.9534 12.8733 17.9515 12.8882 17.947 12.9025C17.9276 12.9657 17.9137 13.0304 17.9056 13.096C17.9035 13.1557 17.8948 13.215 17.8794 13.2727C17.8569 13.3432 17.8399 13.415 17.8228 13.4869C17.8172 13.5105 17.8116 13.5342 17.8058 13.5578C17.7889 13.6267 17.7666 13.6934 17.7442 13.7602L17.7442 13.7602C17.7355 13.7859 17.7269 13.8116 17.7186 13.8375C17.6417 14.0818 17.5478 14.3205 17.4378 14.5517C17.3401 14.7659 17.2277 14.973 17.1014 15.1716C16.9874 15.3544 16.8627 15.5302 16.728 15.6983C16.6916 15.7412 16.6562 15.7854 16.6207 15.8296L16.6207 15.8297C16.562 15.9028 16.5033 15.976 16.4401 16.044C16.2481 16.2571 16.0386 16.4537 15.8136 16.6317C15.7743 16.6622 15.7353 16.6933 15.6964 16.7245C15.6008 16.8008 15.5053 16.8771 15.4042 16.9441C15.242 17.0568 15.0742 17.1612 14.9015 17.2571C14.6954 17.3661 14.4833 17.4697 14.2685 17.564C14.2232 17.5856 14.1764 17.6038 14.1284 17.6185C14.0258 17.6442 13.9258 17.6779 13.8257 17.7116L13.8257 17.7116C13.7129 17.7496 13.6001 17.7877 13.4834 17.8143C13.3576 17.8429 13.2317 17.8696 13.1059 17.8964L13.1057 17.8964L12.9797 17.9233C12.9366 17.9326 12.893 17.9407 12.8488 17.9462C12.8001 17.9521 12.7512 17.9573 12.7023 17.9625C12.6653 17.9664 12.6283 17.9703 12.5915 17.9745C12.5888 17.9745 12.5869 17.9806 12.5851 17.9865C12.5844 17.9891 12.5836 17.9916 12.5828 17.9936L12.3489 17.9947ZM14.1982 8.89455V8.01622L14.1949 7.73326V7.12426C14.194 7.11337 14.192 7.1026 14.1889 7.0921C14.1638 7.10514 14.1419 7.12379 14.1251 7.14662C14.0943 7.19177 14.0642 7.23752 14.034 7.28326C13.9688 7.38225 13.9036 7.48121 13.8313 7.57406C13.6965 7.74727 13.5678 7.92963 13.4438 8.10544L13.4305 8.12417C13.3024 8.30573 13.1748 8.48728 13.0489 8.66938C12.9948 8.74728 12.9392 8.82517 12.8837 8.90307C12.8615 8.93421 12.8393 8.96536 12.8172 8.9965C12.7944 9.02777 12.7729 9.05956 12.7515 9.09121C12.7191 9.13903 12.687 9.18654 12.6509 9.23149C12.6103 9.28196 12.5742 9.33542 12.538 9.38889C12.4866 9.4648 12.4352 9.54073 12.3712 9.60822C12.359 9.62178 12.3513 9.63869 12.3489 9.65675C12.3491 9.6632 12.351 9.66948 12.3545 9.67493C12.3579 9.68039 12.3628 9.68484 12.3685 9.68782C12.3917 9.69002 12.4151 9.69002 12.4383 9.68782H13.3886C13.4242 9.68782 13.4397 9.68742 13.4462 9.69485C13.4528 9.70241 13.4502 9.71808 13.4502 9.75052V11.427V11.5208C13.4506 11.5254 13.4536 11.5296 13.4566 11.534C13.458 11.5359 13.4594 11.5379 13.4605 11.5399C13.4628 11.5379 13.4651 11.536 13.4674 11.5341C13.4707 11.5313 13.474 11.5286 13.4769 11.5257C13.489 11.5159 13.5 11.5047 13.5096 11.4925C13.5894 11.366 13.6776 11.2454 13.7658 11.1247C13.8107 11.0633 13.8556 11.0018 13.8994 10.9396L14.1224 10.6223C14.1406 10.5961 14.1588 10.5698 14.1769 10.5436C14.2133 10.491 14.2496 10.4384 14.286 10.3868C14.325 10.3334 14.3646 10.2804 14.4043 10.2274C14.4605 10.1523 14.5168 10.0772 14.5711 10.0008C14.6122 9.94316 14.6507 9.88546 14.6895 9.82744C14.7453 9.7438 14.8016 9.6595 14.8666 9.57388C14.9232 9.49939 14.9776 9.42303 15.0319 9.3468C15.0834 9.27461 15.1347 9.20253 15.1877 9.13226C15.2275 9.08265 15.2635 9.03194 15.2968 8.97742C15.3077 8.95997 15.3017 8.94035 15.2733 8.94035H15.191H14.2429C14.2064 8.94035 14.1982 8.92944 14.1982 8.89455Z" fill="white"/>
</g>
<defs>
<clipPath id="clip0_1265_21030">
<rect width="24" height="24" fill="white"/>
</clipPath>
</defs>
</svg>