<svg width="24" height="24" viewBox="0 0 24 24" fill="none" xmlns="http://www.w3.org/2000/svg">
<g clip-path="url(#clip0_1265_21026)">
<path d="M12 24C18.6274 24 24 18.6274 24 12C24 5.37258 18.6274 0 12 0C5.37258 0 0 5.37258 0 12C0 18.6274 5.37258 24 12 24Z" fill="#22B573"/>
<path d="M11.5787 17.88C12.0539 17.9071 12.6179 17.8789 13.0231 17.8069C13.9024 17.6552 14.8045 17.2624 15.5445 16.7087C15.8766 16.4589 16.446 15.8895 16.6931 15.5601C17.25 14.8168 17.6168 13.9852 17.8064 13.03C17.8763 12.6686 17.8855 11.4226 17.8227 11.0525C17.4743 9.09401 16.2786 7.49957 14.526 6.65819C14.4798 6.63608 14.4334 6.61441 14.3868 6.59317L14.6143 7.4015C14.7443 7.85064 15.0098 8.79658 15.2092 9.49872C15.7374 11.3559 15.7314 11.3245 15.7504 11.7958C15.7596 12.0424 15.7537 12.3176 15.7314 12.4855C15.5066 14.1715 14.1684 15.5065 12.4754 15.7346C12.1308 15.7817 11.5489 15.76 11.2233 15.6901C11.103 15.6614 10.9985 15.6457 10.9887 15.6522C10.9795 15.6647 11.5013 17.5473 11.5836 17.8004C11.6009 17.8524 11.6069 17.8729 11.5782 17.88H11.5787ZM9.63917 17.407C9.63542 17.4043 9.63181 17.4014 9.62833 17.3984C9.60937 17.3767 9.46417 16.9145 9.30869 16.3674C9.15428 15.8202 8.86605 14.807 8.67318 14.1212C8.47706 13.4347 8.29936 12.764 8.27444 12.634C8.22405 12.3495 8.21755 11.6848 8.26522 11.4004C8.3248 11.0502 8.43122 10.7096 8.58162 10.3878C9.10985 9.28038 10.0401 8.54953 11.2672 8.28081C11.5993 8.20821 12.3681 8.20821 12.7035 8.28081C12.8394 8.31277 12.9635 8.32523 12.976 8.30952C12.9884 8.29652 12.8584 7.79375 12.6877 7.19238C12.5822 6.83192 12.4825 6.46979 12.3887 6.10612C12.2731 6.10469 12.1575 6.10415 12.0419 6.10449C11.3371 6.10124 11.1567 6.1202 10.6122 6.24644C9.43546 6.52166 8.29665 7.22434 7.50891 8.15132C6.20214 9.68888 5.76276 11.7866 6.34463 13.6937C6.55646 14.3964 6.81922 14.9121 7.25915 15.5097C7.87471 16.3377 8.69485 16.9915 9.63917 17.407ZM11.0332 18.4391C10.8625 18.4142 10.6978 18.3855 10.6696 18.373C10.5692 18.3433 10.4679 18.3169 10.3657 18.2939C9.35961 18.0501 8.29069 17.4525 7.48994 16.6865C6.87936 16.1013 6.26878 15.2155 6.01252 14.5481C5.97785 14.4625 5.93667 14.3612 5.92042 14.3265C5.83536 14.1461 5.68366 13.6178 5.59806 13.1909C5.50596 12.745 5.5 12.6654 5.5 12.0169C5.5 11.6187 5.51625 11.2389 5.53467 11.1311C5.55689 11.0271 5.59806 10.7957 5.63274 10.6218C5.6647 10.4447 5.71183 10.2675 5.73405 10.2263C5.74891 10.203 5.75972 10.1774 5.76601 10.1505C5.74976 10.1505 5.8955 9.67913 5.92096 9.64446C5.93342 9.6282 5.97135 9.54314 6.00277 9.45483C6.05695 9.30585 6.23411 8.94556 6.30075 8.83721C6.31917 8.81229 6.40152 8.67305 6.48712 8.53056C6.57543 8.38537 6.66103 8.24884 6.67674 8.23042C6.6957 8.20821 6.80026 8.07547 6.90808 7.93624C7.85077 6.73674 9.28376 5.8699 10.7926 5.58872C11.239 5.50312 12.7603 5.50637 13.2127 5.59197C13.9376 5.72742 14.7097 6.0281 15.3641 6.42685C15.6805 6.62297 15.7027 6.63597 16.0603 6.92041C16.3637 7.16095 16.867 7.66697 17.0853 7.95195C17.1709 8.06572 17.2782 8.20171 17.3226 8.25534C17.3671 8.31277 17.405 8.36641 17.405 8.37887C17.405 8.39512 17.4397 8.44876 17.4808 8.50239C17.522 8.55657 17.6201 8.72994 17.7024 8.88489C17.7815 9.04308 17.8606 9.18557 17.8731 9.20128C17.8855 9.22025 17.9457 9.35027 18.0031 9.49547C18.43 10.5747 18.5785 11.603 18.4614 12.7136C18.4138 13.1904 18.1987 14.0356 18.0345 14.3964C18.0026 14.4722 17.9744 14.5416 17.9744 14.5513C17.9744 14.5795 17.7024 15.124 17.6201 15.26C16.9526 16.3674 16.0067 17.2591 14.9372 17.7906C14.7535 17.8827 14.5796 17.9678 14.5482 17.984C14.3358 18.0945 13.6369 18.3064 13.1179 18.4142C12.7956 18.4803 11.4444 18.4965 11.0332 18.4391ZM12.4537 13.9153C13.1401 13.7414 13.735 13.1562 13.9057 12.4888C13.969 12.2385 13.9723 11.7547 13.9089 11.5109C13.6461 10.4734 12.5675 9.81186 11.5522 10.0681C11.1345 10.1727 10.9129 10.2957 10.6187 10.5904C10.1983 11.0114 10.0238 11.4285 10.0271 12.0169C10.0303 12.9124 10.6122 13.6688 11.4855 13.9023C11.7483 13.9727 12.2039 13.9781 12.4537 13.9153Z" fill="#FEFFFF"/>
</g>
<defs>
<clipPath id="clip0_1265_21026">
<rect width="24" height="24" fill="white"/>
</clipPath>
</defs>
</svg>
