<svg viewBox="0 0 24 24" fill="none" xmlns="http://www.w3.org/2000/svg">
<g clip-path="url(#clip0_1265_21022)">
<path d="M12 24C18.6274 24 24 18.6274 24 12C24 5.37258 18.6274 0 12 0C5.37258 0 0 5.37258 0 12C0 18.6274 5.37258 24 12 24Z" fill="#333333"/>
<path d="M8.52761 5.86084H14.135C15.6864 5.95256 17.393 6.5903 18.0784 8.07088C18.9357 9.95663 18.5096 12.6087 16.5784 13.6848C14.7973 14.7032 12.6667 14.3016 10.7109 14.3854C10.6582 15.3488 10.9276 16.4697 10.2559 17.2844C9.9858 17.6744 8.74717 18.1388 8.74717 18.1388C8.74717 18.1388 8.63305 17.0923 8.59116 14.7371C8.56444 14.0871 8.67061 13.3576 9.2289 12.9351C9.88252 12.3732 10.8091 12.5487 11.6029 12.5198C12.8018 12.4881 14.0614 12.6715 15.1996 12.2093C16.8694 11.5268 16.9301 8.73967 15.2473 8.03693C13.5291 7.37103 11.6318 7.97699 9.86663 7.60865C9.06495 7.38403 8.70455 6.59463 8.52761 5.86084ZM5.5 9.06034C6.96614 9.08706 8.43516 9.00906 9.89841 9.09717C10.9623 9.17878 11.6607 10.1422 11.7719 11.1274C10.2956 11.1201 8.81578 11.1743 7.33881 11.1093C6.43168 11.0566 5.76217 10.3199 5.5 9.5074V9.06106V9.06034Z" fill="white"/>
</g>
<defs>
<clipPath id="clip0_1265_21022">
<rect width="24" height="24" fill="white"/>
</clipPath>
</defs>
</svg>