<svg viewBox="0 0 24 24" fill="none" xmlns="http://www.w3.org/2000/svg">
<g clip-path="url(#clip0_1265_21018)">
<path d="M12 24C18.6274 24 24 18.6274 24 12C24 5.37258 18.6274 0 12 0C5.37258 0 0 5.37258 0 12C0 18.6274 5.37258 24 12 24Z" fill="#1347E8"/>
<path d="M12 5C8.13409 5 5 8.13409 5 12C5 15.8659 8.13409 19 12 19C15.8659 19 19 15.8659 19 12C19 8.13409 15.8659 5 12 5ZM18.6436 11.7136L18.0773 11.7194L18.0747 11.482L18.6417 11.4769L18.6443 11.7136H18.6436ZM18.4985 10.4899L17.9366 10.5682L17.9042 10.3327L18.4655 10.2551L18.4985 10.4905V10.4899ZM18.0149 8.99955L18.1129 9.21591L17.5968 9.45009L17.4988 9.23436L18.0143 8.99955H18.0149ZM17.3073 7.92091L17.4638 8.09909L17.0375 8.47327L16.8815 8.29509L17.3073 7.92091ZM16.4768 7.03445L16.6563 7.18973L16.2865 7.61864L16.1065 7.464L16.4768 7.03445ZM15.4873 6.23327L15.6858 6.36245L15.3772 6.83782L15.1786 6.70927L15.4873 6.23327ZM14.3609 5.67773L14.5906 5.73818L14.4468 6.28609L14.2171 6.22564L14.3615 5.67836L14.3609 5.67773ZM13.1232 5.37355L13.3593 5.39264L13.3122 5.95773L13.0761 5.938L13.1232 5.37355ZM11.8415 5.224H12.0783V5.791H11.8415V5.224ZM10.789 5.37355L10.8361 5.938L10.5994 5.95836L10.5523 5.39327L10.789 5.37355ZM9.55064 5.67773L9.69445 6.22564L9.46536 6.28609L9.32091 5.73882L9.55 5.67773H9.55064ZM8.42491 6.23327L8.73355 6.70927L8.53436 6.83782L8.22573 6.36245L8.42491 6.23327ZM7.43536 7.03509L7.80509 7.464L7.62564 7.61864L7.25591 7.18973L7.43536 7.03445V7.03509ZM6.60555 7.91964L7.03191 8.29382L6.87473 8.472L6.449 8.09845L6.60555 7.92027V7.91964ZM5.89855 8.99891L6.414 9.23373L6.31664 9.45009L5.80055 9.21464L5.89855 8.99891ZM5.44736 10.2545L6.00927 10.3321L5.97618 10.5675L5.41491 10.4893L5.44736 10.2538V10.2545ZM5.27173 11.4763L5.83809 11.4814L5.83618 11.7187L5.26982 11.713L5.27173 11.4763ZM5.32391 12.8075L5.88773 12.7503L5.91127 12.9857L5.34745 13.043L5.32391 12.8075ZM5.58036 14.0128L6.13273 13.8843L6.18682 14.1153L5.63445 14.2438L5.58036 14.0128ZM6.19827 15.4529L6.08118 15.2467L6.57309 14.9655L6.69082 15.1716L6.19827 15.4529ZM7.00136 16.4628L6.82891 16.2999L7.219 15.8882L7.39082 16.0511L7.00136 16.4628ZM7.90818 17.2691L7.71536 17.1316L8.04436 16.6696L8.23718 16.8077L7.90818 17.2691ZM8.96709 17.9761L8.75709 17.866L9.02055 17.3645L9.23055 17.4746L8.96709 17.9761ZM10.1386 18.4266L9.90445 18.3872L9.998 17.8285L10.2322 17.8679L10.1386 18.4266ZM11.1625 18.6188L11.1581 18.0518L11.3955 18.0493L11.3999 18.6163L11.1625 18.6188ZM6.10727 12C6.10727 8.75073 8.75073 6.10727 12 6.10727C15.2493 6.10727 17.8927 8.75073 17.8927 12C17.8927 15.2493 15.2493 17.8927 12 17.8927C8.75073 17.8927 6.10727 15.2493 6.10727 12ZM12.462 18.6697L12.4544 18.6704L12.4028 18.1065L12.6389 18.0849L12.6465 18.0836L12.6981 18.6481L12.462 18.6697ZM13.7252 18.4037L13.6265 17.8456L13.8601 17.8043L13.9587 18.363L13.7252 18.4037ZM14.9305 17.9875L14.7364 17.4549L14.9591 17.3741L15.1532 17.9067L14.9305 17.9875ZM16.0002 17.3321L15.6502 16.8866L15.836 16.739L16.1866 17.1845L16.0002 17.3315V17.3321ZM16.9127 16.4431L16.5055 16.0498L16.6696 15.8786L17.0769 16.2732L16.9127 16.4431ZM17.6585 15.4854L17.2004 15.1513L17.3404 14.9597L17.7985 15.2932L17.6585 15.4854ZM18.2644 14.3463L17.7285 14.1592L17.8068 13.9352L18.342 14.1223L18.2644 14.3456V14.3463ZM18.5985 13.0545L18.0321 13.029L18.0429 12.7916L18.6093 12.8177L18.5985 13.0545ZM14.2502 15.0113H14.2495C14.3444 15.1131 14.3469 15.2684 14.2534 15.3613C14.1598 15.4535 14.0052 15.4491 13.904 15.3524V15.353L13.7271 15.1748L13.3249 14.7669C13.0639 14.8914 12.7763 14.9497 12.4875 14.9368H11.3815C10.3798 14.9737 9.45455 14.4735 9.52964 12.847C9.53218 12.7789 9.52518 11.9033 9.52518 11.8339L9.52709 11.1772C9.52518 9.55445 9.92164 8.81882 11.0149 8.55855C11.139 8.52864 11.8155 8.514 11.9446 8.514H12.0025C12.1324 8.514 12.7293 8.52864 12.8534 8.55855C13.9466 8.81882 14.3431 9.55445 14.3412 11.1772L14.3431 11.8345C14.3431 11.9039 14.3361 12.7789 14.3393 12.8476C14.38 13.7258 14.128 14.1076 13.7303 14.4856L14.0739 14.8325L14.2502 15.0113ZM12.5581 14.4207C12.6847 14.4207 12.8101 14.4029 12.931 14.3673L12.7045 14.1382L12.5275 13.9587C12.4321 13.8569 12.4302 13.7023 12.5237 13.61C12.6173 13.5171 12.7719 13.5215 12.8731 13.6176L13.0494 13.7958L13.3669 14.1178C13.3832 14.103 13.3989 14.0875 13.414 14.0714C13.7105 13.7608 13.8518 13.5012 13.8232 12.8712C13.8213 12.8266 13.8206 12.826 13.8251 12.0356L13.8264 11.8339L13.8257 11.3897C13.8251 11.1186 13.8245 11.2141 13.8245 11.1765C13.8251 10.4575 13.7436 9.83255 13.5686 9.55064C13.4649 9.38264 13.2855 9.19427 12.7426 9.06318C12.4967 9.043 12.25 9.03217 12.0032 9.03073H11.9446C11.7811 9.03073 11.2338 9.04727 11.1269 9.06318C10.5835 9.19427 10.404 9.38264 10.3003 9.55064C10.1253 9.83255 10.0438 10.4575 10.0451 11.1765C10.0451 11.2147 10.0445 11.1186 10.0438 11.3897C10.0436 11.605 10.0436 11.8203 10.0438 12.0356C10.0483 12.826 10.0483 12.8273 10.0457 12.8712C10.0171 13.5012 10.159 13.7608 10.4555 14.0714C10.7311 14.3603 11.0728 14.4214 11.3108 14.4214L11.3624 14.4201L11.3719 14.4195H12.5065C12.5237 14.4207 12.5409 14.4207 12.5581 14.4207Z" fill="white"/>
</g>
<defs>
<clipPath id="clip0_1265_21018">
<rect width="24" height="24" fill="white"/>
</clipPath>
</defs>
</svg>