<svg width="24" height="24" viewBox="0 0 24 24" fill="none" xmlns="http://www.w3.org/2000/svg">
<g clip-path="url(#clip0_1265_21014)">
<path d="M12 24C18.6274 24 24 18.6274 24 12C24 5.37258 18.6274 0 12 0C5.37258 0 0 5.37258 0 12C0 18.6274 5.37258 24 12 24Z" fill="#FF8C00"/>
<path d="M15.9585 14.2393C15.9916 14.4999 15.9175 14.6007 15.835 14.6007C15.7524 14.6007 15.6367 14.4999 15.5132 14.2984C15.3897 14.0969 15.3397 13.8694 15.406 13.7524C15.4469 13.6764 15.5379 13.6426 15.6452 13.6848C15.8597 13.7693 15.9422 14.0963 15.9585 14.2393ZM14.8034 14.8113C15.0589 15.0297 15.1336 15.2812 15.001 15.4665C14.9594 15.5151 14.9075 15.5539 14.849 15.5799C14.7905 15.606 14.727 15.6188 14.663 15.6173C14.5205 15.6187 14.3825 15.5678 14.275 15.4743C14.0442 15.2728 13.9779 14.9367 14.1261 14.7521C14.1577 14.713 14.1982 14.6819 14.2442 14.6614C14.2902 14.641 14.3404 14.6317 14.3907 14.6345C14.5226 14.6345 14.6715 14.693 14.8034 14.8106V14.8113ZM5.82495 11.2811C5.82495 8.08766 8.36646 5.5 11.5021 5.5C14.6383 5.5 17.1798 8.08831 17.1798 11.2811C17.1799 12.3233 16.9038 13.3469 16.3797 14.2477C16.3628 14.2731 16.3212 14.2646 16.3134 14.2308C16.1158 12.8106 15.2656 12.0293 14.028 11.794C13.9201 11.7771 13.9038 11.7095 14.0442 11.6932C14.4238 11.6594 14.9601 11.6679 15.2402 11.7186C15.2573 11.5705 15.2658 11.4217 15.2656 11.2727C15.2656 9.16341 13.5821 7.44935 11.5105 7.44935C9.43961 7.44935 7.75611 9.16341 7.75611 11.2727C7.75611 13.3826 9.43961 15.0966 11.5105 15.0966H11.6841C11.6251 14.7554 11.6001 14.4092 11.6093 14.0631C11.6178 13.8278 11.6678 13.794 11.7666 13.9786C12.2866 14.8951 13.0289 15.7187 14.4817 16.0456C15.6699 16.3154 16.8581 16.6261 18.1373 18.2816C18.2523 18.4246 18.0794 18.5754 17.9475 18.4578C16.6436 17.2813 15.4554 16.8945 14.3744 16.8945C13.1609 16.9036 12.336 17.0635 11.5021 17.0635C8.36646 17.0635 5.82495 14.4739 5.82495 11.2805V11.2811Z" fill="white"/>
</g>
<defs>
<clipPath id="clip0_1265_21014">
<rect width="24" height="24" fill="white"/>
</clipPath>
</defs>
</svg>
