<svg width="24" height="24" viewBox="0 0 24 24" fill="none" xmlns="http://www.w3.org/2000/svg">
<g clip-path="url(#clip0_1265_21010)">
<path d="M12 24C18.6274 24 24 18.6274 24 12C24 5.37258 18.6274 0 12 0C5.37258 0 0 5.37258 0 12C0 18.6274 5.37258 24 12 24Z" fill="#610089"/>
<path fill-rule="evenodd" clip-rule="evenodd" d="M12.2897 5.50167C15.321 5.66477 17.7745 7.76842 18.3767 10.7419C18.4558 11.1343 18.4771 11.5402 18.499 11.9415C18.5185 12.296 18.2874 12.5353 17.9677 12.5347C17.6546 12.5347 17.4495 12.3078 17.4418 11.9556C17.3845 9.3633 15.6336 7.22537 13.1057 6.68468C12.7275 6.60432 12.3328 6.60314 11.9463 6.55941C11.6521 6.52632 11.4571 6.3 11.4653 6.01282C11.4736 5.72859 11.6863 5.51704 11.983 5.50227C12.0852 5.49754 12.1874 5.50167 12.2897 5.50167ZM11.7236 18.5C8.8145 18.4125 6.19793 16.2073 5.64602 13.352C5.56211 12.9147 5.5302 12.4662 5.50125 12.0212C5.48352 11.7494 5.65666 11.5544 5.90898 11.4894C6.11816 11.435 6.36162 11.5243 6.46798 11.7234C6.52116 11.8245 6.54657 11.9521 6.54894 12.0685C6.59207 14.5527 8.27204 16.6906 10.683 17.2851C11.1179 17.3926 11.5764 17.4098 12.0255 17.4576C12.282 17.4842 12.4876 17.6585 12.5219 17.9085C12.5544 18.1449 12.4055 18.409 12.1792 18.4651C12.0332 18.5012 11.8754 18.49 11.7236 18.5ZM11.9907 9.63452C13.2771 9.63039 14.3573 10.6852 14.3661 11.9539C14.3691 12.3911 13.9684 12.6665 13.5979 12.478C13.397 12.3764 13.3108 12.2062 13.3025 11.9799C13.2963 11.6736 13.1823 11.3793 12.9805 11.1489C12.7787 10.9184 12.502 10.7666 12.1993 10.72C11.5185 10.6042 10.8567 11.0663 10.7243 11.75C10.589 12.4485 11.0263 13.1286 11.707 13.2757C11.8004 13.2958 11.8961 13.3071 11.9907 13.3124C12.3074 13.3289 12.5296 13.547 12.5272 13.8442C12.5248 14.1456 12.2867 14.3689 11.9641 14.3719C10.9501 14.3807 9.99396 13.6409 9.71741 12.634C9.30437 11.1301 10.4342 9.63925 11.9907 9.63452ZM16.455 11.8546C16.4432 11.955 16.4473 12.0809 16.4107 12.1932C16.3339 12.4319 16.0798 12.5702 15.8316 12.53C15.5734 12.4875 15.3896 12.2759 15.3866 11.9864C15.3825 11.5455 15.311 11.1177 15.1302 10.7177C14.5316 9.39698 13.5075 8.68847 12.0551 8.61993C11.6999 8.6022 11.4642 8.3942 11.4665 8.07629C11.4695 7.75837 11.707 7.55096 12.0675 7.55214C14.2361 7.55628 16.1312 9.23448 16.406 11.3954C16.4249 11.5414 16.4373 11.6874 16.455 11.8546ZM7.55526 12.127C7.52513 11.8865 7.58658 11.6495 7.86136 11.5231C8.22299 11.3559 8.60177 11.6147 8.60886 12.0395C8.61595 12.4467 8.68568 12.8385 8.83223 13.2178C9.07064 13.8454 9.49081 14.3877 10.039 14.7752C10.5872 15.1628 11.2385 15.3781 11.9097 15.3936C12.3683 15.4054 12.6348 15.7375 12.4888 16.1145C12.4073 16.3272 12.2276 16.4507 11.9818 16.4483C10.6806 16.4365 9.58328 15.949 8.70577 14.9935C7.98297 14.2121 7.57339 13.1919 7.55526 12.1276V12.127ZM14.3709 13.7934C14.349 14.0575 14.2586 14.2247 14.06 14.3175C13.8627 14.4097 13.6624 14.3955 13.5046 14.2496C13.2187 13.9845 12.9425 13.7092 12.6767 13.4241C12.4935 13.2279 12.5113 12.9188 12.6909 12.7256C12.8741 12.5288 13.2014 12.488 13.4018 12.6718C13.6984 12.9425 13.9791 13.232 14.2527 13.5269C14.3248 13.6049 14.3449 13.7307 14.3709 13.7928V13.7934Z" fill="white"/>
</g>
<defs>
<clipPath id="clip0_1265_21010">
<rect width="24" height="24" fill="white"/>
</clipPath>
</defs>
</svg>
