<svg width="24" height="24" viewBox="0 0 24 24" fill="none" xmlns="http://www.w3.org/2000/svg">
<path fill-rule="evenodd" clip-rule="evenodd" d="M21.1667 22H18.6667C18.2058 22 17.8333 21.6267 17.8333 21.1667C17.8333 20.7067 18.2058 20.3333 18.6667 20.3333H20.3333V18.6667C20.3333 18.2067 20.7058 17.8333 21.1667 17.8333C21.6275 17.8333 22 18.2067 22 18.6667V21.1667C22 21.6267 21.6275 22 21.1667 22ZM21.1667 17.1108C20.7058 17.1108 20.3333 16.7375 20.3333 16.2775V15.055C20.3333 14.595 20.7058 14.2217 21.1667 14.2217C21.6275 14.2217 22 14.595 22 15.055V16.2775C22 16.7375 21.6275 17.1108 21.1667 17.1108ZM21.1667 13.6667H19.1667C18.7058 13.6667 18.3333 13.2933 18.3333 12.8333V12.0008L16.1658 12C15.7058 12 15.3333 11.6267 15.3333 11.1658C15.3333 10.7067 15.7067 10.3333 16.1667 10.3333C16.1667 10.3333 16.1667 10.3333 16.1675 10.3333L19.1675 10.335C19.6267 10.335 20 10.7083 20 11.1683V12H21.1667C21.6275 12 22 12.3733 22 12.8333C22 13.2933 21.6275 13.6667 21.1667 13.6667ZM21.1667 8.66667H16.1667C15.7058 8.66667 15.3333 8.29333 15.3333 7.83333V2.83333C15.3333 2.37333 15.7058 2 16.1667 2H21.1667C21.6275 2 22 2.37333 22 2.83333V7.83333C22 8.29333 21.6275 8.66667 21.1667 8.66667ZM20.3333 3.66667H17V7H20.3333V3.66667ZM18.6834 4.5H18.6917C19.1517 4.5 19.525 4.87333 19.525 5.33333C19.525 5.79333 19.1517 6.16667 18.6917 6.16667C18.2317 6.16667 17.8542 5.79333 17.8542 5.33333C17.8542 4.87333 18.2234 4.5 18.6834 4.5ZM18.6667 15.3342V16.5842C18.6667 17.0442 18.2942 17.4175 17.8333 17.4175C17.3725 17.4175 17 17.0442 17 16.5842V16.1675L15.3333 16.1667V17.8333C15.3333 18.2933 14.9608 18.6667 14.5 18.6667C14.0392 18.6667 13.6667 18.2933 13.6667 17.8333V15.3333C13.6667 15.24 13.6917 15.1542 13.72 15.07C13.7267 15.0508 13.7242 15.0275 13.7325 15.0092C13.7567 14.95 13.8008 14.9033 13.8375 14.8525C13.8633 14.8167 13.88 14.775 13.9108 14.7442C13.9317 14.7233 13.9617 14.7133 13.9842 14.6942C14.0442 14.6458 14.1033 14.5958 14.1758 14.565C14.2758 14.5233 14.385 14.5 14.5 14.5L17.8333 14.5008C18.2942 14.5008 18.6667 14.8733 18.6667 15.3342ZM12.8333 8.66667H11.1667C10.7058 8.66667 10.3333 8.29333 10.3333 7.83333C10.3333 7.37333 10.7058 7 11.1667 7H12.8333C13.2942 7 13.6667 7.37333 13.6667 7.83333C13.6667 8.29333 13.2942 8.66667 12.8333 8.66667ZM12.8333 6.16667H11.1667C10.7058 6.16667 10.3333 5.79333 10.3333 5.33333C10.3333 5.32583 10.3375 5.31917 10.3375 5.31167C10.3375 5.30333 10.3333 5.2975 10.3333 5.28917V2.83333C10.3333 2.37333 10.7058 2 11.1667 2C11.6275 2 12 2.37333 12 2.83333V4.5H12.8333C13.2942 4.5 13.6667 4.87333 13.6667 5.33333C13.6667 5.79333 13.2942 6.16667 12.8333 6.16667ZM7.83333 8.66667H2.83333C2.3725 8.66667 2 8.29333 2 7.83333V2.83333C2 2.37333 2.3725 2 2.83333 2H7.83333C8.29417 2 8.66667 2.37333 8.66667 2.83333V7.83333C8.66667 8.29333 8.29417 8.66667 7.83333 8.66667ZM7 3.66667H3.66667V7H7V3.66667ZM5.34919 4.5H5.35835C5.81835 4.5 6.19169 4.87333 6.19169 5.33333C6.19169 5.79333 5.81835 6.16667 5.35835 6.16667C4.89835 6.16667 4.52085 5.79333 4.52085 5.33333C4.52085 4.87333 4.89002 4.5 5.34919 4.5ZM2.83333 10.3333H4.49833H4.49917H4.5C4.96083 10.3333 5.33333 10.7067 5.33333 11.1667V12.8333C5.33333 13.2933 4.96083 13.6667 4.5 13.6667C4.03917 13.6667 3.66667 13.2933 3.66667 12.8333V12H2.83333C2.3725 12 2 11.6267 2 11.1667C2 10.7067 2.3725 10.3333 2.83333 10.3333ZM2.83333 15.3333H7.83333C8.29417 15.3333 8.66667 15.7067 8.66667 16.1667V21.1667C8.66667 21.6267 8.29417 22 7.83333 22H2.83333C2.3725 22 2 21.6267 2 21.1667V16.1667C2 15.7067 2.3725 15.3333 2.83333 15.3333ZM3.66667 20.3333H7V17H3.66667V20.3333ZM5.35835 19.5C4.89835 19.5 4.52085 19.1267 4.52085 18.6667C4.52085 18.2067 4.89002 17.8333 5.34919 17.8333H5.35835C5.81835 17.8333 6.19169 18.2067 6.19169 18.6667C6.19169 19.1267 5.81835 19.5 5.35835 19.5ZM12.8333 14.5C12.8333 14.96 12.4608 15.3333 12 15.3333C11.5392 15.3333 11.1667 14.96 11.1667 14.5V12.8333H7C6.53917 12.8333 6.16667 12.46 6.16667 12V11.1667C6.16667 10.7067 6.53917 10.3333 7 10.3333C7.46083 10.3333 7.83333 10.7067 7.83333 11.1667H12C12.4608 11.1667 12.8333 11.54 12.8333 12C12.8333 12.0492 12.8133 12.0917 12.805 12.1383C12.8133 12.1858 12.8333 12.2283 12.8333 12.2775V14.5ZM11.1667 17C11.6275 17 12 17.3733 12 17.8333V20.3333H12.8333C13.2942 20.3333 13.6667 20.7067 13.6667 21.1667C13.6667 21.6267 13.2942 22 12.8333 22H11.1667C10.7058 22 10.3333 21.6267 10.3333 21.1667V17.8333C10.3333 17.3733 10.7058 17 11.1667 17ZM16.1667 18.6667C16.6275 18.6667 17 19.04 17 19.5V21.1667C17 21.6267 16.6275 22 16.1667 22C15.7058 22 15.3333 21.6267 15.3333 21.1667V19.5C15.3333 19.04 15.7058 18.6667 16.1667 18.6667Z" fill="#6B7084"/>
</svg>
