<svg width="24" height="24" viewBox="0 0 24 24" fill="none" xmlns="http://www.w3.org/2000/svg">
<g clip-path="url(#clip0_1265_21006)">
<path d="M12 24C18.6274 24 24 18.6274 24 12C24 5.37258 18.6274 0 12 0C5.37258 0 0 5.37258 0 12C0 18.6274 5.37258 24 12 24Z" fill="#252525"/>
<path d="M18.7396 15.5963C18.8096 15.5978 18.8763 15.6268 18.9251 15.6771C18.9738 15.7275 19.0007 15.795 19 15.8651V17.2H14.6047L14.5879 16.038C14.5881 16.0001 14.5966 15.9627 14.6127 15.9284C14.6287 15.8941 14.652 15.8636 14.681 15.8392C14.6983 15.8168 14.7181 15.7964 14.7398 15.7783C16.6767 14.4273 17.4208 11.8548 16.5192 9.6295C15.6169 7.4042 13.3188 6.1449 11.0263 6.6195C8.7345 7.0934 7.0846 9.1703 7.0839 11.5825C7.0825 13.231 7.8679 14.7745 9.1846 15.709C9.21327 15.7251 9.23662 15.7491 9.2518 15.7783C9.29962 15.8006 9.3401 15.8361 9.36849 15.8806C9.39688 15.9251 9.412 15.9768 9.4121 16.0296L9.3953 17.1916H5V15.856C5 15.7076 5.1169 15.5872 5.2604 15.5872C5.4039 15.5872 5.5208 15.7076 5.5208 15.856V16.6624H8.8822L8.8906 16.1598H8.8822C6.9495 14.7584 6.12 12.2272 6.8312 9.9032C7.5445 7.5792 9.63399 6 11.9965 6C14.359 6 16.4485 7.5792 17.1604 9.9032C17.8723 12.2272 17.0428 14.7584 15.1094 16.1598L15.1185 16.6708H18.4799V15.8651C18.4791 15.795 18.5061 15.7275 18.5548 15.6771C18.6036 15.6268 18.6702 15.5978 18.7403 15.5963H18.7396ZM15.269 11.9731C15.8486 12.7102 16.025 13.3689 15.773 13.8022C15.5798 14.1403 15.1682 14.3223 14.5711 14.3223C14.1961 14.3132 13.8237 14.2579 13.4623 14.1578C13.1347 15.3023 12.6048 16.0394 12 16.0394C11.3952 16.0394 10.866 15.3023 10.5461 14.1578C10.1846 14.2579 9.81224 14.3132 9.43729 14.3223C8.8402 14.3223 8.4286 14.1403 8.2354 13.8022C7.9246 13.2646 8.2774 12.4239 9.0838 11.5657C8.96185 11.439 8.84688 11.3058 8.7394 11.1667C8.1598 10.4296 7.9834 9.7793 8.2354 9.3285C8.4286 8.9904 8.8402 8.8084 9.43729 8.8084C9.81227 8.81776 10.1847 8.87325 10.5461 8.9736C10.8737 7.8291 11.4036 7.092 12.0084 7.092C12.6132 7.092 13.1424 7.8291 13.4623 8.982C13.8237 8.88188 14.1961 8.82663 14.5711 8.8175C15.1682 8.8175 15.5798 8.9995 15.773 9.3376C16.025 9.7884 15.8486 10.4387 15.269 11.1758C15.1614 11.3149 15.0464 11.448 14.9246 11.5748C15.0464 11.7008 15.1612 11.8338 15.269 11.9731ZM14.5795 9.1381C14.2307 9.14907 13.8843 9.19837 13.5463 9.2851C13.6366 9.6967 13.7003 10.1139 13.7395 10.5339C14.0713 10.7789 14.3884 11.0456 14.6894 11.3319C14.807 11.2101 14.9162 11.0799 15.017 10.9588C15.4958 10.3428 15.6722 9.8143 15.4958 9.4937C15.3362 9.199 14.9078 9.1381 14.5795 9.1381ZM12.7315 12.8747C12.9751 12.7277 13.2103 12.5716 13.4287 12.4155C13.4539 12.1376 13.4623 11.8604 13.4623 11.5657C13.4623 11.271 13.4455 10.9847 13.4287 10.7159C13.2018 10.5569 12.969 10.4065 12.7308 10.2651C12.4908 10.1284 12.2471 9.9984 12 9.8752C11.7494 9.9914 11.5058 10.1216 11.2692 10.2651C11.0172 10.4121 10.7897 10.5598 10.5713 10.7159C10.5461 10.9847 10.5377 11.271 10.5377 11.5657C10.5377 11.8597 10.5545 12.1467 10.5713 12.4155C11.0254 12.7343 11.503 13.0181 12 13.2646C12.2506 13.1484 12.4942 13.0182 12.7308 12.8747H12.7315ZM13.3951 12.8488C13.2271 12.9524 13.0675 13.0567 12.8995 13.161C12.7315 13.2646 12.5635 13.3605 12.3955 13.4466C12.6713 13.5712 12.9548 13.6783 13.2439 13.7679C13.3027 13.4816 13.3531 13.1778 13.3951 12.8488ZM11.622 13.4466L11.118 13.161C10.95 13.0567 10.782 12.9524 10.6217 12.8488C10.6518 13.1582 10.7022 13.4648 10.7729 13.7679C11.0613 13.6769 11.3448 13.5698 11.622 13.4466ZM10.2437 12.1635C10.2337 11.9644 10.2281 11.7651 10.2269 11.5657C10.2269 11.3578 10.2353 11.1667 10.2437 10.9672C9.99939 11.152 9.76629 11.3515 9.54649 11.5657C9.76769 11.7778 10.0008 11.978 10.2437 12.1635ZM10.6217 10.3001C10.7796 10.1892 10.9422 10.085 11.1089 9.9879C11.286 9.8836 11.454 9.7884 11.622 9.7016C11.3455 9.577 11.062 9.4706 10.7729 9.381C10.7141 9.6666 10.6637 9.9704 10.6217 10.3001ZM12.3864 9.7016C12.5544 9.7884 12.7224 9.8836 12.8904 9.9879C13.0584 10.0915 13.2264 10.1958 13.3867 10.3001C13.3569 9.99069 13.3064 9.68363 13.2355 9.381C12.9471 9.472 12.6636 9.5784 12.3864 9.7016ZM13.7731 10.9756C13.7815 11.1758 13.7899 11.3662 13.7899 11.5741C13.7899 11.782 13.7815 11.9815 13.7731 12.1726C14.0167 11.9731 14.2519 11.7736 14.4619 11.5741C14.2459 11.3597 14.0157 11.16 13.7731 10.9763V10.9756ZM12.0084 7.4217C11.58 7.4217 11.1432 8.0286 10.8569 9.0597C11.2503 9.1836 11.6346 9.3341 12.0084 9.5098C12.3817 9.33436 12.7664 9.18422 13.1599 9.0604C12.8736 8.0286 12.4284 7.4217 12.0084 7.4217ZM8.521 9.4937C8.3362 9.8143 8.5126 10.3519 8.9998 10.9497C9.10059 11.0792 9.2098 11.2003 9.3274 11.3305C9.627 11.0435 9.94339 10.7775 10.2773 10.5339C10.3158 10.1139 10.3802 9.6967 10.4705 9.2858C10.1331 9.1948 9.78589 9.1458 9.43729 9.1381C9.10899 9.1381 8.689 9.199 8.521 9.4937ZM9.43729 14.0017C9.78659 13.9947 10.1338 13.9422 10.4705 13.8449C10.3804 13.4335 10.3159 13.0169 10.2773 12.5975C9.93919 12.3567 9.61929 12.09 9.31899 11.7995C8.5966 12.5716 8.311 13.2646 8.521 13.6461C8.6806 13.9408 9.10899 14.0017 9.43729 14.0017ZM12.0084 15.7181C12.4284 15.7181 12.8736 15.1112 13.1599 14.0801C12.7664 13.9558 12.3817 13.8052 12.0084 13.6293C11.635 13.8049 11.2503 13.9555 10.8569 14.0801C11.1432 15.1112 11.5884 15.7181 12.0084 15.7181ZM15.4958 13.6461C15.6722 13.3339 15.4958 12.797 15.017 12.181C14.9126 12.0527 14.8033 11.9285 14.6894 11.8086C14.3898 12.0956 14.0734 12.3616 13.7395 12.6066C13.701 13.0262 13.6365 13.4431 13.5463 13.8547C13.8837 13.945 14.2309 13.9947 14.5795 14.0017C14.9078 14.0017 15.3278 13.9408 15.4958 13.6461ZM12.0084 10.3001C12.6874 10.3001 13.239 10.865 13.2439 11.5657C13.2439 12.2636 12.6958 12.8299 12.0196 12.8313C11.3434 12.8327 10.7932 12.2692 10.7897 11.5713C10.7869 10.8734 11.3322 10.3043 12.0084 10.3001ZM12.0084 12.5107C12.5082 12.5065 12.9121 12.09 12.9163 11.5741C12.9163 11.0568 12.5103 10.6382 12.0084 10.6382C11.5065 10.6382 11.1005 11.0568 11.1005 11.5741C11.1005 12.0914 11.5072 12.5107 12.0084 12.5107Z" fill="white"/>
</g>
<defs>
<clipPath id="clip0_1265_21006">
<rect width="24" height="24" fill="white"/>
</clipPath>
</defs>
</svg>
