<svg width="24" height="24" viewBox="0 0 24 24" fill="none" xmlns="http://www.w3.org/2000/svg">
<g clip-path="url(#clip0_1265_21002)">
<path d="M12 24C18.6274 24 24 18.6274 24 12C24 5.37258 18.6274 0 12 0C5.37258 0 0 5.37258 0 12C0 18.6274 5.37258 24 12 24Z" fill="#454545"/>
<path fill-rule="evenodd" clip-rule="evenodd" d="M9 12C9 10.346 10.346 9 12 9C13.654 9 15 10.346 15 12C15 12.4353 14.9047 12.848 14.7373 13.222L12.7573 11.242L11.2427 12.7573L13.2227 14.7373C12.8383 14.9104 12.4216 14.9999 12 15C11.2046 14.9991 10.4421 14.6828 9.87965 14.1203C9.31724 13.5579 9.00088 12.7954 9 12ZM16.8753 12C16.8762 11.0584 16.6028 10.1369 16.0887 9.348L18 7.436L16.564 6L14.652 7.912C13.888 7.41533 12.9787 7.12467 12 7.12467C11.0213 7.12467 10.112 7.41533 9.348 7.91133L7.436 6L6 7.436L7.912 9.348C7.41533 10.112 7.12467 11.0213 7.12467 12C7.12467 12.9787 7.416 13.888 7.912 14.652L6 16.564L7.436 18L9.348 16.088C10.112 16.5847 11.0213 16.8753 12 16.8753C12.9787 16.8753 13.888 16.5847 14.652 16.088L16.564 18L18 16.564L16.088 14.652C16.6024 13.8632 16.876 12.9417 16.8753 12Z" fill="white"/>
</g>
<defs>
<clipPath id="clip0_1265_21002">
<rect width="24" height="24" fill="white"/>
</clipPath>
</defs>
</svg>
