<svg width="24" height="24" viewBox="0 0 24 24" fill="none" xmlns="http://www.w3.org/2000/svg">
<g clip-path="url(#clip0_1265_20998)">
<path d="M12 24C18.6274 24 24 18.6274 24 12C24 5.37258 18.6274 0 12 0C5.37258 0 0 5.37258 0 12C0 18.6274 5.37258 24 12 24Z" fill="#2E9AD0"/>
<path d="M17.6083 16.2229L16.3527 15.1054L13.8124 17.0114C13.8427 17.0779 13.8583 17.1502 13.8582 17.2233C13.8592 17.3557 13.8077 17.4831 13.7148 17.5776C13.622 17.6721 13.4955 17.7259 13.3631 17.7273C13.2468 17.7266 13.1344 17.6852 13.0454 17.6104C12.9563 17.5355 12.8963 17.4319 12.8756 17.3174H10.1329C10.1123 17.4318 10.0523 17.5354 9.96345 17.6102C9.87455 17.685 9.7623 17.7264 9.6461 17.7273C9.51355 17.7261 9.38689 17.6723 9.29394 17.5778C9.20099 17.4833 9.14935 17.3558 9.15037 17.2233C9.15023 17.1506 9.16564 17.0788 9.19555 17.0126L6.93901 15.3326C6.84908 15.4142 6.73203 15.4593 6.61065 15.4593C6.4781 15.4581 6.35144 15.4043 6.25849 15.3098C6.16554 15.2153 6.1139 15.0878 6.11492 14.9553C6.11492 14.7644 6.21928 14.5983 6.37328 14.5124L5.5441 11.8651C5.47471 11.8712 5.40481 11.8628 5.33888 11.8403C5.27294 11.8178 5.21243 11.7818 5.1612 11.7346C5.10998 11.6874 5.06919 11.63 5.04143 11.5662C5.01367 11.5023 4.99956 11.4333 5.00001 11.3636C4.99959 11.2926 5.01428 11.2224 5.04312 11.1575C5.07195 11.0927 5.11425 11.0347 5.16722 10.9874C5.22019 10.9402 5.28262 10.9047 5.35034 10.8835C5.41806 10.8622 5.48954 10.8556 5.56001 10.8641L6.37519 8.21618C6.29598 8.17226 6.23003 8.10787 6.18424 8.02972C6.13845 7.95158 6.11451 7.86257 6.11492 7.772C6.11492 7.49391 6.33701 7.268 6.61065 7.268C6.73919 7.268 6.85628 7.31763 6.9441 7.39909L9.21783 5.75727C9.17359 5.68019 9.15034 5.59287 9.15037 5.504C9.15037 5.22591 9.37246 5 9.6461 5C9.88792 5 10.0896 5.17627 10.1329 5.40982H12.8756C12.8963 5.29535 12.9563 5.19172 13.0454 5.11687C13.1344 5.04202 13.2468 5.00068 13.3631 5C13.6367 5 13.8582 5.22591 13.8582 5.504C13.8584 5.58837 13.8376 5.67147 13.7977 5.74582L16.0568 7.40673C16.1483 7.31774 16.2709 7.26797 16.3985 7.268C16.6722 7.268 16.8936 7.49391 16.8936 7.772C16.894 7.85566 16.8736 7.93811 16.8343 8.01197C16.795 8.08582 16.738 8.14877 16.6684 8.19518L17.4804 10.8609C17.5488 10.8562 17.6174 10.8658 17.6819 10.8891C17.7464 10.9123 17.8054 10.9488 17.8551 10.996C17.9047 11.0433 17.944 11.1004 17.9705 11.1637C17.9969 11.227 18.0099 11.2951 18.0085 11.3636C18.0091 11.4306 17.9961 11.497 17.9705 11.5589C17.9449 11.6208 17.9071 11.6769 17.8594 11.7239C17.8117 11.7709 17.755 11.8079 17.6927 11.8325C17.6305 11.8572 17.5639 11.8692 17.4969 11.8676L16.5443 14.9413L17.7642 16.0269C17.8991 15.9046 18.0747 15.837 18.2567 15.8373C18.6672 15.8373 19 16.1758 19 16.5933C19 17.0107 18.6672 17.3493 18.2567 17.3493C18.1583 17.3484 18.061 17.3282 17.9703 17.2898C17.8797 17.2513 17.7975 17.1954 17.7285 17.1252C17.6595 17.055 17.605 16.9719 17.5681 16.8806C17.5312 16.7894 17.5126 16.6917 17.5135 16.5933C17.5135 16.4584 17.5478 16.3324 17.6089 16.2229H17.6083ZM13.4051 16.7212L14.3514 14.59C14.2736 14.5258 14.2169 14.4398 14.1885 14.3431L11.993 14.6625C11.9774 14.7559 11.936 14.843 11.8734 14.9139L13.176 16.7562C13.2484 16.7262 13.327 16.7142 13.4051 16.7212ZM13.6552 16.8166L16.1173 14.9693L15.0558 14.5073C15.0011 14.5798 14.9273 14.6357 14.8427 14.6688C14.7582 14.7019 14.6661 14.711 14.5766 14.695L13.6393 16.8052C13.6446 16.8087 13.65 16.8123 13.6552 16.816V16.8166ZM12.9775 16.9064L11.6666 15.0533C11.5615 15.0903 11.447 15.0903 11.342 15.0533L10.0311 16.9064C10.0691 16.9538 10.0982 17.0077 10.117 17.0654H12.8916C12.9104 17.0077 12.9395 16.9538 12.9775 16.9064ZM17.2589 11.7964C17.1849 11.751 17.1239 11.6874 17.0816 11.6116C17.0394 11.5358 17.0174 11.4504 17.0177 11.3636C17.0177 11.1854 17.1081 11.0295 17.2449 10.9398L16.4775 8.41982L16.3056 10.8851C16.5029 10.9513 16.6461 11.1403 16.6461 11.3636C16.6466 11.4683 16.6144 11.5705 16.5541 11.6561C16.4937 11.7416 16.4082 11.8062 16.3095 11.8409L16.4787 14.3138L17.2589 11.7964ZM15.8245 10.9837L14.8165 9.00782C14.7344 9.03498 14.6466 9.03981 14.562 9.02181L13.6762 10.9735C13.7333 11.0212 13.7792 11.0809 13.8107 11.1483C13.8421 11.2157 13.8584 11.2892 13.8582 11.3636C13.8583 11.4392 13.8415 11.5139 13.809 11.5822C13.7766 11.6505 13.7292 11.7106 13.6705 11.7582L14.5836 13.7016C14.6492 13.6908 14.7164 13.6934 14.7809 13.7093L15.8112 11.7302C15.7617 11.6828 15.7223 11.626 15.6953 11.5629C15.6684 11.4999 15.6546 11.4321 15.6546 11.3636C15.6546 11.2122 15.7208 11.076 15.8245 10.9837ZM16.0625 11.86C16.051 11.8579 16.0395 11.8553 16.0282 11.8524L14.9992 13.8276C15.0595 13.884 15.1052 13.9543 15.1321 14.0324C15.1591 14.1105 15.1665 14.194 15.1538 14.2756L16.2611 14.758L16.0625 11.86ZM16.0587 10.8685L16.2407 8.25054C16.1449 8.21757 16.0614 8.15606 16.0015 8.07427L15.15 8.43C15.1649 8.50829 15.1615 8.58898 15.1399 8.66572C15.1184 8.74246 15.0794 8.81316 15.0259 8.87227L16.0466 10.8705C16.0507 10.8698 16.0547 10.8691 16.0587 10.8685ZM13.4446 11.8613C13.3735 11.8731 13.3007 11.8692 13.2314 11.8498L11.8804 14.2489C11.9208 14.2967 11.9521 14.3514 11.9726 14.4105L14.1795 14.0898C14.205 13.9746 14.2686 13.8734 14.3565 13.8034L13.4446 11.86V11.8613ZM13.4509 10.8679L14.3399 8.90982C14.2496 8.83043 14.1905 8.72147 14.1732 8.60245L11.9618 8.28109C11.9375 8.34048 11.9021 8.39468 11.8575 8.44082L13.2186 10.8813C13.2941 10.8581 13.374 10.8535 13.4516 10.8679H13.4509ZM13.0169 11.7244C12.9693 11.6772 12.9316 11.621 12.906 11.559C12.8803 11.4971 12.8672 11.4307 12.8674 11.3636C12.8674 11.2274 12.9208 11.1034 13.0074 11.013L11.6456 8.57063C11.5696 8.59363 11.4893 8.59778 11.4114 8.58272L10.0069 11.0181C10.0939 11.1121 10.1421 11.2355 10.1418 11.3636C10.1422 11.4966 10.0903 11.6243 9.99737 11.7194L11.377 14.0898C11.4758 14.0633 11.5804 14.0684 11.6761 14.1044L13.0169 11.7244ZM5.77701 11.7785L6.56737 14.3024L6.75383 11.8562C6.64241 11.8307 6.543 11.7681 6.47197 11.6785C6.40094 11.589 6.36254 11.4779 6.3631 11.3636C6.36251 11.2479 6.40189 11.1355 6.47459 11.0454C6.54728 10.9553 6.64883 10.8931 6.7621 10.8692L6.56928 8.42936L5.79101 10.9589C5.85349 11.0062 5.90412 11.0674 5.93891 11.1377C5.9737 11.2079 5.99169 11.2853 5.99146 11.3636C5.99146 11.5354 5.90619 11.6882 5.77701 11.7785ZM8.25119 13.7042C8.32462 13.6898 8.40038 13.6924 8.47264 13.7118L9.34446 11.7639C9.28378 11.7164 9.23476 11.6556 9.20113 11.5862C9.16749 11.5168 9.15013 11.4407 9.15037 11.3636C9.15037 11.2058 9.22164 11.0652 9.33301 10.9729L8.44719 9.02181C8.38602 9.03472 8.32295 9.0358 8.26137 9.025L7.19292 10.992C7.24399 11.0395 7.28471 11.097 7.31252 11.1609C7.34033 11.2249 7.35464 11.2939 7.35455 11.3636C7.35476 11.4314 7.34134 11.4986 7.31511 11.5611C7.28887 11.6236 7.25035 11.6803 7.20183 11.7276L8.25183 13.7042H8.25119ZM8.45737 14.6905C8.36668 14.7118 8.2718 14.7068 8.18387 14.676C8.09594 14.6452 8.01863 14.59 7.96101 14.5168L7.10192 14.891C7.11167 14.9692 7.10339 15.0487 7.07774 15.1233L9.35273 16.8173C9.3594 16.8122 9.36619 16.8073 9.3731 16.8026L8.45674 14.6899L8.45737 14.6905ZM7.85728 14.2877C7.84145 14.2004 7.84881 14.1105 7.87863 14.027C7.90845 13.9435 7.95967 13.8692 8.02719 13.8117L7.00074 11.8804L6.80155 14.4894C6.88507 14.5252 6.95724 14.5831 7.01028 14.6568L7.85728 14.2877ZM8.83092 14.0974L11.0359 14.4118C11.0615 14.3367 11.1045 14.2687 11.1613 14.2133L9.78419 11.8479C9.71568 11.8682 9.64356 11.8732 9.57292 11.8625L8.68837 13.8359C8.76122 13.9067 8.81091 13.9979 8.83092 14.0974ZM8.81819 14.3501C8.79165 14.4355 8.7429 14.5124 8.67692 14.5728L9.60792 16.7205C9.68455 16.7148 9.76147 16.727 9.83255 16.7562L11.1358 14.9139C11.0734 14.8433 11.032 14.7567 11.0162 14.6638L8.81819 14.3501ZM7.86174 8.41791L7.01474 8.06409C6.96161 8.14041 6.88821 8.20036 6.80283 8.23718L7.00646 10.8151L8.03483 8.92127C7.96222 8.86175 7.90758 8.78321 7.87702 8.69444C7.84645 8.60567 7.84116 8.51015 7.86174 8.41854V8.41791ZM8.46628 8.03927L9.34128 5.97745L7.08028 7.61036C7.10364 7.6806 7.11145 7.75508 7.10319 7.82863L7.97501 8.19327C8.03459 8.12461 8.11208 8.07385 8.19882 8.04666C8.28557 8.01946 8.37817 8.01691 8.46628 8.03927ZM8.83664 8.59482C8.82095 8.71665 8.76146 8.82862 8.66928 8.90982L9.55764 10.8679C9.6379 10.8531 9.72058 10.8586 9.79819 10.8838L11.1867 8.47454C11.1251 8.42181 11.0771 8.35502 11.0467 8.27982L8.83664 8.59482ZM8.68392 8.16082C8.73737 8.21172 8.77937 8.27472 8.80674 8.34472L11.0117 8.03036C11.0219 7.93821 11.0571 7.85061 11.1136 7.77709L9.84719 5.96473C9.76952 6.00002 9.68393 6.01429 9.59901 6.00609L8.68455 8.16082H8.68392ZM14.6167 8.02654C14.6966 8.01915 14.777 8.03134 14.8511 8.06206C14.9252 8.09277 14.9906 8.14109 15.0418 8.20282L15.9073 7.84136C15.8974 7.76729 15.9037 7.69195 15.9257 7.62054L13.68 5.96982L14.6161 8.02654H14.6167ZM14.1993 8.35109C14.235 8.25459 14.2994 8.17132 14.3838 8.11245L13.4229 6.00418C13.334 6.015 13.2438 6.00136 13.162 5.96473L11.8956 7.77709C11.9519 7.85119 11.9871 7.93915 11.9975 8.03163L14.1993 8.35172V8.35109ZM12.9673 5.80818C12.9344 5.76382 12.9091 5.71438 12.8922 5.66182H10.1164C10.0993 5.71442 10.0737 5.76386 10.0406 5.80818L11.3096 7.62373C11.3708 7.5971 11.4369 7.58336 11.5036 7.58336C11.5704 7.58336 11.6365 7.5971 11.6977 7.62373L12.9673 5.80818Z" fill="white"/>
</g>
<defs>
<clipPath id="clip0_1265_20998">
<rect width="24" height="24" fill="white"/>
</clipPath>
</defs>
</svg>
