<svg width="24" height="24" viewBox="0 0 24 24" fill="none" xmlns="http://www.w3.org/2000/svg">
<path d="M8.35508 19.7663H13.3738L17.4299 16.8224L18.9813 12.056L17.4299 7.28967L13.3738 4.34575H8.35508L4.29901 7.27098L2.74761 12.0373L4.29901 16.8037L8.35508 19.7663ZM13.4579 20.0373H8.26162L8.22424 20.0093L4.05602 16.9813L2.45789 12.0467L4.06536 7.10276L8.26162 4.05603H13.4579L17.6635 7.1121L19.271 12.056L17.6635 17L13.4579 20.0373Z" fill="#2EA6DF"/>
<path d="M8.84118 4.18688C8.84118 4.52332 8.57015 4.78501 8.24304 4.78501C7.9066 4.78501 7.64491 4.51398 7.64491 4.18688C7.64491 3.85977 7.91594 3.58875 8.24304 3.58875C8.57015 3.58875 8.84118 3.85977 8.84118 4.18688ZM14.0001 4.18688C14.0001 4.52332 13.729 4.78501 13.4019 4.78501C13.0655 4.78501 12.8038 4.51398 12.8038 4.18688C12.8038 3.85977 13.0748 3.58875 13.4019 3.58875C13.729 3.58875 14.0001 3.85977 14.0001 4.18688ZM8.87856 19.813C8.87856 20.1495 8.60753 20.4112 8.28043 20.4112C7.94398 20.4112 7.6823 20.1402 7.6823 19.813C7.6823 19.4859 7.95333 19.2149 8.28043 19.2149C8.60753 19.2056 8.87856 19.4766 8.87856 19.813ZM4.74772 16.9065C4.74772 17.243 4.47669 17.5046 4.14959 17.5046C3.82248 17.5046 3.55146 17.2336 3.55146 16.9065C3.55146 16.5701 3.82248 16.3084 4.14959 16.3084C4.47669 16.3084 4.74772 16.5701 4.74772 16.9065ZM3.20566 12.0467C3.20566 12.3831 2.93463 12.6448 2.60753 12.6448C2.27108 12.6448 2.0094 12.3738 2.0094 12.0467C2.0094 11.7102 2.28043 11.4486 2.60753 11.4486C2.93463 11.4392 3.20566 11.7102 3.20566 12.0467ZM4.74772 7.20557C4.74772 7.54202 4.47669 7.8037 4.14959 7.8037C3.82248 7.8037 3.55146 7.53267 3.55146 7.20557C3.55146 6.86912 3.82248 6.60744 4.14959 6.60744C4.47669 6.60744 4.74772 6.86912 4.74772 7.20557ZM18.5141 12.0373C18.5141 12.3738 18.7851 12.6355 19.1122 12.6355C19.4393 12.6355 19.7103 12.3644 19.7103 12.0373C19.7103 11.7102 19.4393 11.4392 19.1122 11.4392C18.7851 11.4392 18.5141 11.7009 18.5141 12.0373ZM16.972 7.19622C16.972 7.53267 17.243 7.79435 17.5701 7.79435C17.9066 7.79435 18.1683 7.52333 18.1683 7.19622C18.1683 6.85977 17.8973 6.59809 17.5701 6.59809C17.2337 6.59809 16.972 6.85977 16.972 7.19622ZM14.0468 19.813C14.0468 20.1495 13.7758 20.4112 13.4487 20.4112C13.1215 20.4112 12.8505 20.1402 12.8505 19.813C12.8505 19.4859 13.1215 19.2149 13.4487 19.2149C13.7758 19.2149 14.0468 19.4766 14.0468 19.813Z" fill="#2EA6DF"/>
<path d="M7.68228 15.5888L7.72901 15.6075L11.0842 16.7383L14.8785 15.5981L17.4393 16.6916V7.40188L14.8785 8.49534L11.0842 7.35516L7.68228 8.486L7.63555 8.47665L4.28976 7.39254V16.6823L7.68228 15.5888ZM17.7103 17.0841L14.8599 15.8692L11.0842 17.0094L7.69163 15.8692L4.02808 17.0561V7.01871L7.69163 8.20562L11.0842 7.06544L11.1215 7.07478L14.8599 8.19628L17.7103 6.98132V17.0841Z" fill="#2EA6DF"/>
<path d="M2.59814 12.2972V11.9101L19.1215 11.8972V12.2714L2.59814 12.2972Z" fill="#2EA6DF"/>
<path d="M11.2337 7.22421L13.2056 11.6635L14.7103 8.33636L13.3552 4.4672L11.2337 7.22421ZM7.82246 8.32702L9.14956 11.6728L10.9159 7.23356L8.33648 4.49524L7.82246 8.32702ZM4.33648 12.0466L7.6262 15.4859L8.99068 12.0466L7.6262 8.59804L4.33648 12.0466ZM9.29909 12.0466L11.0841 16.5139L13.0561 11.9999L11.0841 7.56066L9.29909 12.0466ZM7.82246 15.7476L8.37386 19.5139L10.9159 16.841L9.14956 12.4205L7.82246 15.7476ZM11.2337 16.8504L13.3926 19.5326L14.7103 15.7382L13.2056 12.3457L11.2337 16.8504ZM8.18694 20.1121L7.55143 15.7943L3.96265 12.0466L7.55143 8.28029L8.14022 3.87842L11.0654 6.99057L13.4486 3.89711L15.0094 8.35505L13.3552 11.9999L15.0094 15.7195L13.4954 20.084L11.0654 17.0747L8.18694 20.1121Z" fill="#2EA6DF"/>
<path d="M14.9721 15.813L14.7478 15.6448L17.402 12.0467L14.7478 8.42985L14.9721 8.26163L17.7384 12.0467L14.9721 15.813ZM7.03748 8.34574C7.03748 8.68219 7.3085 8.94387 7.63561 8.94387C7.97205 8.94387 8.23374 8.67284 8.23374 8.34574C8.23374 8.01864 7.96271 7.74761 7.63561 7.74761C7.3085 7.74761 7.03748 8.00929 7.03748 8.34574ZM10.4767 7.20555C10.4767 7.542 10.7478 7.80368 11.0749 7.80368C11.4113 7.80368 11.673 7.53266 11.673 7.20555C11.673 6.8691 11.402 6.60742 11.0749 6.60742C10.7384 6.60742 10.4767 6.8691 10.4767 7.20555Z" fill="#2EA6DF"/>
<path d="M15.2898 7.92523C15.0562 7.69159 14.673 7.69159 14.4394 7.92523C14.2057 8.15888 14.2057 8.54206 14.4394 8.7757C14.673 9.00935 15.0562 9.00935 15.2898 8.7757C15.5235 8.53271 15.5235 8.15888 15.2898 7.92523ZM4.74778 12C4.74778 11.6636 4.47675 11.4019 4.14964 11.4019C3.82254 11.4019 3.55151 11.6729 3.55151 12C3.55151 12.3364 3.82254 12.5981 4.14964 12.5981C4.47675 12.5981 4.74778 12.3364 4.74778 12ZM9.63563 12C9.63563 11.6636 9.3646 11.4019 9.0375 11.4019C8.70105 11.4019 8.43936 11.6729 8.43936 12C8.43936 12.3364 8.71039 12.5981 9.0375 12.5981C9.3646 12.5981 9.63563 12.3364 9.63563 12ZM13.7197 12C13.7197 11.6636 13.4487 11.4019 13.1216 11.4019C12.7852 11.4019 12.5235 11.6729 12.5235 12C12.5235 12.3364 12.7945 12.5981 13.1216 12.5981C13.4487 12.5981 13.7197 12.3364 13.7197 12ZM18.1683 12.0467C18.1683 11.7103 17.8973 11.4486 17.5702 11.4486C17.2431 11.4486 16.9721 11.7196 16.9721 12.0467C16.9721 12.3832 17.2431 12.6449 17.5702 12.6449C17.8973 12.6449 18.1683 12.3738 18.1683 12.0467ZM15.4581 15.729C15.4581 15.3925 15.187 15.1308 14.8599 15.1308C14.5235 15.1308 14.2618 15.4019 14.2618 15.729C14.2618 16.0561 14.5328 16.3271 14.8599 16.3271C15.1964 16.3271 15.4581 16.0654 15.4581 15.729ZM21.9908 18.757C21.9908 18.2897 21.6076 17.9065 21.1403 17.9065C20.673 17.9065 20.2898 18.2897 20.2898 18.757C20.2898 19.2243 20.673 19.6075 21.1403 19.6075C21.6076 19.6075 21.9908 19.2243 21.9908 18.757ZM10.8412 16.3271C10.5328 16.4579 10.3926 16.8131 10.5235 17.1121C10.6543 17.4206 11.0095 17.5607 11.3085 17.4299C11.6169 17.2991 11.7571 16.9439 11.6263 16.6449C11.4954 16.3458 11.1496 16.2056 10.8412 16.3271ZM7.40198 15.1776C7.09357 15.3084 6.95338 15.6636 7.08422 15.9626C7.21507 16.271 7.57021 16.4112 7.86927 16.2804C8.17768 16.1495 8.31787 15.7944 8.18703 15.4953C8.05619 15.1869 7.71039 15.0467 7.40198 15.1776Z" fill="#2EA6DF"/>
<path d="M21.0748 18.8784L17.4767 17.0186L17.6075 16.7756L21.2057 18.6354L21.0748 18.8784Z" fill="#2EA6DF"/>
</svg>
