<svg viewBox="0 0 24 24" fill="none" xmlns="http://www.w3.org/2000/svg">
<g clip-path="url(#clip0_620_13783)">
<path d="M6.6875 3.18702L11.7673 9.13872L15.1771 7.13299C15.1771 7.13299 11.0633 1.63155 9.96626 2.02042C8.93474 2.41338 6.6875 3.18702 6.6875 3.18702Z" fill="black"/>
<path d="M15.304 7.13302C15.304 7.13302 16.0776 5.77404 16.4624 3.96069C16.4624 3.96069 20.3224 5.51206 18.8406 9.39662L15.304 7.13302Z" fill="black"/>
<path d="M18.8406 9.40085L19.1639 13.4778L20.6416 13.2854C20.6416 13.2854 21.0264 13.1544 20.965 12.4463C20.8995 11.6686 20.7726 10.0517 20.7726 10.0517C20.7726 10.0517 20.8381 9.66282 19.9376 9.53593C18.8406 9.33535 18.8406 9.40085 18.8406 9.40085Z" fill="black"/>
<path d="M19.1598 13.4778L16.2003 15.8724L17.5511 18.5249C17.5511 18.5249 17.8745 19.5605 18.8364 18.3939C19.737 17.2273 20.1217 17.0349 20.0562 16.3227C19.9989 15.6104 19.8025 13.9281 19.1598 13.4778Z" fill="black"/>
<path d="M16.139 15.8683L12.0866 14.0549L8.54995 21.2387C8.54995 21.2387 8.29207 21.7545 9.1926 21.82C10.0931 21.951 11.5708 22.2744 12.3445 21.4966C13.1181 20.7885 16.139 15.8683 16.139 15.8683Z" fill="black"/>
<path d="M12.0865 13.9936L11.7018 9.20435L2.95431 9.78969C2.95431 9.78969 2.43855 9.85519 2.50404 10.8253C2.56953 12.1188 2.69643 13.5433 2.69643 13.5433C2.69643 13.5433 2.63093 14.1245 3.78934 14.19C4.94776 14.2514 11.9596 14.2514 12.0865 13.9936Z" fill="black"/>
</g>
<defs>
<clipPath id="clip0_620_13783">
<rect width="18.4732" height="20" fill="white" transform="translate(2.5 2)"/>
</clipPath>
</defs>
</svg>