<svg width="24" height="24" viewBox="0 0 24 24" fill="none" xmlns="http://www.w3.org/2000/svg">
<path fill-rule="evenodd" clip-rule="evenodd" d="M20.6117 11H19.5V13.5C19.5 13.8367 19.2967 14.1408 18.9858 14.27C18.8825 14.3125 18.7742 14.3333 18.6667 14.3333C18.45 14.3333 18.2367 14.2483 18.0775 14.0892L14.9883 11H11.7225C10.9567 11 10.3333 10.3592 10.3333 9.57167V2.42917C10.3333 1.64083 10.9567 1 11.7225 1H20.6117C21.3767 1 22 1.64083 22 2.42917V9.57167C22 10.3592 21.3767 11 20.6117 11ZM20.3333 2.66667H12V9.33333H15.3333C15.4417 9.33333 15.55 9.355 15.6517 9.3975C15.7542 9.44 15.8458 9.50083 15.9225 9.5775L17.8333 11.4883V10.1667C17.8333 9.70667 18.2067 9.33333 18.6667 9.33333H20.3333V2.66667ZM17.0133 8.5C16.5525 8.5 16.18 8.12667 16.18 7.66667V6.83333H15.4325C14.4658 6.83333 13.68 6.08583 13.68 5.16667C13.68 4.2475 14.4658 3.5 15.4325 3.5H17.0133C17.4733 3.5 17.8467 3.87333 17.8467 4.33333V7.66667C17.8467 8.12667 17.4733 8.5 17.0133 8.5ZM9.88582 15.0783C9.76582 15.1383 9.63832 15.1667 9.51415 15.1667C9.20748 15.1667 8.91332 14.9983 8.76748 14.7058L7.84665 12.8633L6.92498 14.7058C6.71915 15.1175 6.21915 15.285 5.80665 15.0783C5.39498 14.8725 5.22832 14.3725 5.43415 13.9608L7.10082 10.6275C7.38332 10.0625 8.30915 10.0625 8.59165 10.6275L10.2583 13.9608C10.4642 14.3725 10.2975 14.8725 9.88582 15.0783ZM8.66667 9.33333H3.66667V16H5.33333C5.79333 16 6.16667 16.3733 6.16667 16.8333V18.155L8.0775 16.2442C8.08 16.2417 8.08417 16.2408 8.08667 16.2375C8.16167 16.165 8.25 16.105 8.34833 16.0642C8.45 16.0225 8.55833 16 8.6675 16H12V12.6667C12 12.2058 12.3733 11.8325 12.8333 11.8325C13.2933 11.8325 13.6667 12.2058 13.6667 12.6667V16.2383C13.6667 17.0258 13.0433 17.6667 12.2775 17.6667H9.01167L5.9225 20.7558C5.76333 20.915 5.55 21 5.33333 21C5.22583 21 5.1175 20.9792 5.01417 20.9367C4.70333 20.8075 4.5 20.5033 4.5 20.1667V17.6667H3.38833C2.62333 17.6667 2 17.0258 2 16.2383V9.095C2 8.3075 2.62333 7.66667 3.38833 7.66667H8.66667C9.12667 7.66667 9.5 8.04 9.5 8.5C9.5 8.96 9.12667 9.33333 8.66667 9.33333Z" fill="#6B7084"/>
</svg>
