<svg viewBox="0 0 24 24" fill="none" xmlns="http://www.w3.org/2000/svg">
<path fill-rule="evenodd" clip-rule="evenodd" d="M18.6667 21.3333C18.2058 21.3333 17.8333 20.96 17.8333 20.5C17.8333 20.0433 18.2008 19.6717 18.6567 19.6667C18.9017 19.6592 19.9683 19.5292 20.2575 18H18.6667C18.2058 18 17.8333 17.6267 17.8333 17.1667V13.8333C17.8333 13.3733 18.2058 13 18.6667 13H21.1667C21.6275 13 22 13.3733 22 13.8333V17.1667C22 20.4625 19.82 21.3333 18.6667 21.3333ZM12.8333 21.3333C12.3725 21.3333 12 20.96 12 20.5C12 20.0433 12.3675 19.6717 12.8233 19.6667C13.0683 19.6592 14.135 19.5292 14.4242 18H12.8333C12.3725 18 12 17.6267 12 17.1667V13.8333C12 13.3733 12.3725 13 12.8333 13H15.3333C15.7942 13 16.1667 13.3733 16.1667 13.8333V17.1667C16.1667 20.4625 13.9867 21.3333 12.8333 21.3333ZM11.1667 11.3333H8.66667C8.20583 11.3333 7.83333 10.96 7.83333 10.5V7.16667C7.83333 3.87083 10.0133 3 11.1667 3C11.6275 3 12 3.37333 12 3.83333C12 4.29 11.6325 4.66167 11.1767 4.66667C10.9317 4.67417 9.865 4.80417 9.57583 6.33333H11.1667C11.6275 6.33333 12 6.70667 12 7.16667V10.5C12 10.96 11.6275 11.3333 11.1667 11.3333ZM5.33333 11.3333H2.83333C2.3725 11.3333 2 10.96 2 10.5V7.16667C2 3.87083 4.18 3 5.33333 3C5.79417 3 6.16667 3.37333 6.16667 3.83333C6.16667 4.29 5.79917 4.66167 5.34333 4.66667C5.09833 4.67417 4.03167 4.80417 3.7425 6.33333H5.33333C5.79417 6.33333 6.16667 6.70667 6.16667 7.16667V10.5C6.16667 10.96 5.79417 11.3333 5.33333 11.3333Z" fill="currentColor"/>
</svg>