<svg viewBox="0 0 24 24" fill="none" xmlns="http://www.w3.org/2000/svg">
<g clip-path="url(#clip0_1265_20990)">
<path d="M12 24C18.6274 24 24 18.6274 24 12C24 5.37258 18.6274 0 12 0C5.37258 0 0 5.37258 0 12C0 18.6274 5.37258 24 12 24Z" fill="#9D4BEF"/>
<path d="M9.01248 6.5C9.67859 6.5 10.3174 6.76461 10.7884 7.23562C11.2594 7.70663 11.524 8.34546 11.524 9.01157C11.524 9.67768 11.2594 10.3165 10.7884 10.7875C10.3174 11.2585 9.67859 11.5231 9.01248 11.5231C8.34637 11.5231 7.70754 11.2585 7.23653 10.7875C6.76552 10.3165 6.50091 9.67768 6.50091 9.01157C6.50091 8.34546 6.76552 7.70663 7.23653 7.23562C7.70754 6.76461 8.34637 6.5 9.01248 6.5ZM11.5234 14.9884C11.5234 15.4852 11.3761 15.9708 11.1001 16.3838C10.8241 16.7968 10.4319 17.1187 9.97295 17.3088C9.51402 17.4989 9.00903 17.5486 8.52183 17.4517C8.03464 17.3548 7.58712 17.1156 7.23587 16.7644C6.88462 16.4131 6.64541 15.9656 6.5485 15.4784C6.45159 14.9912 6.50133 14.4862 6.69143 14.0273C6.88152 13.5684 7.20344 13.1761 7.61646 12.9001C8.02949 12.6242 8.51508 12.4769 9.01182 12.4769C9.93069 12.4769 10.8119 12.1118 11.4617 11.4621C12.1114 10.8123 12.4764 9.93111 12.4764 9.01223C12.4764 8.51549 12.6237 8.0299 12.8997 7.61688C13.1757 7.20385 13.5679 6.88194 14.0269 6.69184C14.4858 6.50175 14.9908 6.45201 15.478 6.54892C15.9652 6.64583 16.4127 6.88503 16.764 7.23628C17.1152 7.58753 17.3544 8.03505 17.4513 8.52225C17.5482 9.00944 17.4985 9.51444 17.3084 9.97337C17.1183 10.4323 16.7964 10.8246 16.3834 11.1005C15.9703 11.3765 15.4848 11.5238 14.988 11.5238C14.0693 11.524 13.1882 11.8891 12.5386 12.5388C11.889 13.1885 11.524 14.0697 11.524 14.9884H11.5234ZM14.988 17.5C14.3219 17.5 13.6831 17.2354 13.2121 16.7644C12.7411 16.2934 12.4764 15.6545 12.4764 14.9884C12.4764 14.3223 12.7411 13.6835 13.2121 13.2125C13.6831 12.7415 14.3219 12.4769 14.988 12.4769C15.6541 12.4769 16.293 12.7415 16.764 13.2125C17.235 13.6835 17.4996 14.3223 17.4996 14.9884C17.4996 15.6545 17.235 16.2934 16.764 16.7644C16.293 17.2354 15.6541 17.5 14.988 17.5ZM14.988 15.7456C15.1888 15.7456 15.3814 15.6658 15.5234 15.5238C15.6654 15.3818 15.7452 15.1892 15.7452 14.9884C15.7452 14.7876 15.6654 14.595 15.5234 14.453C15.3814 14.311 15.1888 14.2313 14.988 14.2313C14.7872 14.2313 14.5946 14.311 14.4526 14.453C14.3106 14.595 14.2308 14.7876 14.2308 14.9884C14.2308 15.1892 14.3106 15.3818 14.4526 15.5238C14.5946 15.6658 14.7872 15.7456 14.988 15.7456ZM9.01248 15.7456C9.21329 15.7456 9.40588 15.6658 9.54787 15.5238C9.68987 15.3818 9.76964 15.1892 9.76964 14.9884C9.76964 14.7876 9.68987 14.595 9.54787 14.453C9.40588 14.311 9.21329 14.2313 9.01248 14.2313C8.81166 14.2313 8.61908 14.311 8.47708 14.453C8.33508 14.595 8.25531 14.7876 8.25531 14.9884C8.25531 15.1892 8.33508 15.3818 8.47708 15.5238C8.61908 15.6658 8.81166 15.7456 9.01248 15.7456ZM14.988 9.76874C15.1888 9.76874 15.3814 9.68896 15.5234 9.54697C15.6654 9.40497 15.7452 9.21238 15.7452 9.01157C15.7452 8.81076 15.6654 8.61817 15.5234 8.47618C15.3814 8.33418 15.1888 8.25441 14.988 8.25441C14.7872 8.25441 14.5946 8.33418 14.4526 8.47618C14.3106 8.61817 14.2308 8.81076 14.2308 9.01157C14.2308 9.21238 14.3106 9.40497 14.4526 9.54697C14.5946 9.68896 14.7872 9.76874 14.988 9.76874ZM9.01248 9.76874C9.21329 9.76874 9.40588 9.68896 9.54787 9.54697C9.68987 9.40497 9.76964 9.21238 9.76964 9.01157C9.76964 8.81076 9.68987 8.61817 9.54787 8.47618C9.40588 8.33418 9.21329 8.25441 9.01248 8.25441C8.81166 8.25441 8.61908 8.33418 8.47708 8.47618C8.33508 8.61817 8.25531 8.81076 8.25531 9.01157C8.25531 9.21238 8.33508 9.40497 8.47708 9.54697C8.61908 9.68896 8.81166 9.76874 9.01248 9.76874Z" fill="white"/>
</g>
<defs>
<clipPath id="clip0_1265_20990">
<rect width="24" height="24" fill="white"/>
</clipPath>
</defs>
</svg>