<svg width="24" height="24" viewBox="0 0 24 24" fill="none" xmlns="http://www.w3.org/2000/svg">
<g clip-path="url(#clip0_1265_20986)">
<path d="M12 24C18.6274 24 24 18.6274 24 12C24 5.37258 18.6274 0 12 0C5.37258 0 0 5.37258 0 12C0 18.6274 5.37258 24 12 24Z" fill="black"/>
<path d="M9.51096 6.26214V18H7.41504V6H9.51096V6.26214ZM11.0049 6H12.1836C14.6206 6 16.2452 7.54572 16.2452 9.7465C16.2452 11.5284 15.275 12.891 13.5196 13.3363L16.5851 18H14.1222L9.93038 11.5019H11.948C13.284 11.5019 14.1222 10.8993 14.1222 9.72058C14.1222 8.54125 13.2846 7.93863 11.948 7.93863H11.0308V6H11.0049Z" fill="white"/>
</g>
<defs>
<clipPath id="clip0_1265_20986">
<rect width="24" height="24" fill="white"/>
</clipPath>
</defs>
</svg>
