<svg width="24" height="24" viewBox="0 0 24 24" fill="none" xmlns="http://www.w3.org/2000/svg">
<g clip-path="url(#clip0_1265_20982)">
<path d="M12 24C18.6274 24 24 18.6274 24 12C24 5.37258 18.6274 0 12 0C5.37258 0 0 5.37258 0 12C0 18.6274 5.37258 24 12 24Z" fill="#3555F9"/>
<path d="M10.9565 6.08079C11.4974 5.98024 12.051 5.99169 12.5983 6.01906C13.2296 6.09288 13.8621 6.22524 14.4425 6.48615C15.6016 6.97051 16.5841 7.79906 17.2571 8.85981C17.5072 9.22445 17.6752 9.633 17.8439 10.0384C18.0004 9.78891 18.1404 9.52927 18.2766 9.26836C18.3352 9.14554 18.458 9.05072 18.6012 9.05708C18.6964 9.04965 18.7908 9.07924 18.8648 9.1397C18.9388 9.20015 18.9866 9.28681 18.9982 9.38163C19.0142 9.53436 18.9181 9.66609 18.8551 9.79845C18.6565 10.1994 18.4001 10.5697 18.1347 10.9312C18.0857 10.9834 18.1061 11.0559 18.1118 11.1196C18.4071 12.8613 17.8451 14.715 16.6481 16.0272C15.9581 16.7942 15.0885 17.378 14.1173 17.7263C12.9986 18.1177 11.7666 18.2062 10.6096 17.9325C8.93216 17.5692 7.44815 16.4631 6.60433 14.9957C6.41978 14.6985 6.30205 14.3682 6.15632 14.0526C5.99723 14.2976 5.86232 14.5553 5.72677 14.8124C5.69493 14.8761 5.647 14.9304 5.58774 14.9699C5.52847 15.0094 5.45992 15.0328 5.38886 15.0377C5.14641 15.0377 4.92622 14.7768 5.02359 14.5445C5.23232 14.0647 5.51805 13.6205 5.83814 13.2056C5.90687 13.1337 5.89732 13.0318 5.88459 12.9421C5.76574 12.1763 5.80035 11.3946 5.98641 10.6423C6.47642 8.52699 8.2328 6.76043 10.3614 6.20997C10.5587 6.16351 10.756 6.11451 10.9565 6.08079ZM9.45335 7.35989C8.32507 7.95298 7.41697 8.94508 6.94606 10.1166C6.67369 10.8243 6.53496 11.5854 6.57696 12.3427C6.69646 12.253 6.81037 12.156 6.91806 12.0525C7.55124 11.4874 8.29261 11.0496 9.06771 10.7008C10.5078 10.046 12.0936 9.76409 13.6693 9.68772C13.1367 9.13536 12.5588 8.62562 12.0262 8.07326C12.1942 7.88871 12.3762 7.71816 12.5582 7.54762C12.765 7.73471 12.9559 7.93771 13.1583 8.12926C13.8138 8.78153 14.4889 9.41472 15.1336 10.0759C14.4463 10.7613 13.7412 11.4295 13.0539 12.1148C12.996 12.1693 12.9352 12.2207 12.8719 12.2688C12.6988 12.0945 12.4977 11.9417 12.359 11.7375C12.7816 11.2946 13.2627 10.9064 13.668 10.4475C12.9413 10.4577 12.2184 10.5608 11.5069 10.7021C10.9323 10.8046 10.3799 10.9986 9.82817 11.1838C8.67253 11.6166 7.60661 12.3064 6.79397 13.2291C6.7456 13.2768 6.7526 13.3475 6.76533 13.4073C6.86142 13.8197 7.04279 14.2053 7.24133 14.5782C7.89679 15.76 9.02953 16.6731 10.3309 17.0855C11.092 17.3197 11.904 17.4101 12.6957 17.3C13.8023 17.1609 14.8399 16.6869 15.6694 15.9413C16.8562 14.8951 17.5219 13.301 17.4194 11.7362C17.2941 11.8336 17.1821 11.9443 17.065 12.0499C16.2689 12.7348 15.3534 13.2668 14.3642 13.6192C13.0787 14.0965 11.7093 14.3434 10.3379 14.3822C10.4575 14.5388 10.6052 14.6699 10.7445 14.8092C11.155 15.2089 11.5597 15.6136 11.9766 16.0069C11.8162 16.1959 11.6291 16.3607 11.4522 16.5338C11.2746 16.3893 11.1213 16.2213 10.9558 16.0629C10.336 15.4621 9.72254 14.8538 9.10398 14.2505C9.01833 14.1726 8.93956 14.0874 8.86853 13.9959C9.13644 13.7083 9.44444 13.4601 9.71872 13.1788C10.1896 12.7238 10.6478 12.2555 11.1245 11.8062C11.3026 11.9793 11.4897 12.1447 11.6482 12.3363C11.2244 12.7754 10.7732 13.1884 10.3436 13.6218C10.8145 13.6453 11.2791 13.5645 11.7462 13.5199C12.0835 13.4843 12.415 13.4079 12.7478 13.3386C14.4565 12.944 16.1206 12.1327 17.2673 10.7956C16.8282 8.89672 15.2138 7.3338 13.2926 6.89216C12.0128 6.56697 10.6173 6.75215 9.45335 7.35989Z" fill="white"/>
</g>
<defs>
<clipPath id="clip0_1265_20982">
<rect width="24" height="24" fill="white"/>
</clipPath>
</defs>
</svg>
