<svg width="24" height="24" viewBox="0 0 24 24" fill="none" xmlns="http://www.w3.org/2000/svg">
<g clip-path="url(#clip0_1265_20976)">
<path d="M12 24C18.6274 24 24 18.6274 24 12C24 5.37258 18.6274 0 12 0C5.37258 0 0 5.37258 0 12C0 18.6274 5.37258 24 12 24Z" fill="#E30613"/>
<path opacity="0.75" fill-rule="evenodd" clip-rule="evenodd" d="M11.6248 18.5001C8.24422 18.5001 5.50244 15.7861 5.50244 12.4387C5.50244 9.0912 8.24363 6.3772 11.6248 6.3772C15.0065 6.3772 17.7477 9.0912 17.7477 12.4387C17.7477 15.7861 15.0059 18.5001 11.6242 18.5001H11.6248ZM12.6819 8.11385C14.1095 8.69825 15.1353 9.79792 15.8633 11.2799L16.4128 10.8976C15.7959 9.41324 14.6561 8.24681 12.8225 7.49045L12.6819 8.11385Z" fill="white"/>
<path d="M18.4977 8.05328C18.4977 6.64339 17.3425 5.5 15.9184 5.5C14.4943 5.5 13.3391 6.64339 13.3391 8.05328C13.3391 8.18801 13.3497 8.32214 13.371 8.45509C14.2296 8.955 14.9192 9.67235 15.4705 10.5682C15.6182 10.5936 15.7683 10.6072 15.9184 10.6072C17.3425 10.6072 18.4977 9.46376 18.4977 8.05328Z" fill="white"/>
</g>
<defs>
<clipPath id="clip0_1265_20976">
<rect width="24" height="24" fill="white"/>
</clipPath>
</defs>
</svg>
