<svg viewBox="0 0 24 24" fill="none" xmlns="http://www.w3.org/2000/svg">
<g clip-path="url(#clip0_1265_20972)">
<path d="M12 24C18.6274 24 24 18.6274 24 12C24 5.37258 18.6274 0 12 0C5.37258 0 0 5.37258 0 12C0 18.6274 5.37258 24 12 24Z" fill="#2A2A2A"/>
<path d="M7.7749 5.50389H13.0471C13.1108 5.48439 13.1433 5.54289 13.1849 5.57539C13.6818 6.04477 14.1276 6.56552 14.5148 7.12889C15.0649 7.91676 15.4967 8.78088 15.7966 9.69379C16.1099 10.6584 16.2581 11.6789 16.2191 12.6929H13.5313C13.5445 12.5581 13.5493 12.4227 13.5456 12.2873C13.5177 11.3311 13.2226 10.3932 12.7578 9.56249C12.2606 8.67264 11.5664 7.90499 10.7773 7.26734C9.91795 6.57249 8.95075 6.02389 7.94325 5.58059C7.88735 5.55459 7.82885 5.53379 7.7749 5.50389ZM9.7262 10.2664C10.6279 11.8978 11.5282 13.5299 12.427 15.1629C12.6434 15.5568 12.8625 15.9494 13.077 16.3439C11.9583 17.0602 10.8429 17.783 9.7249 18.5V10.2664H9.7262Z" fill="white"/>
</g>
<defs>
<clipPath id="clip0_1265_20972">
<rect width="24" height="24" fill="white"/>
</clipPath>
</defs>
</svg>