<svg width="24" height="24" viewBox="0 0 24 24" fill="none" xmlns="http://www.w3.org/2000/svg">
<path fill-rule="evenodd" clip-rule="evenodd" d="M20.6667 12.0001C20.6667 15.8174 18.2025 19.23 14.6742 20.2975C14.5942 20.3218 14.5125 20.3335 14.4325 20.3335C14.075 20.3335 13.7442 20.1014 13.6359 19.7411C13.5017 19.3012 13.7509 18.8362 14.1917 18.7022C17.0225 17.8459 19 15.0893 19 12.0001C19 9.10279 17.3084 6.74923 14.7459 5.79575L15.5784 7.46058C15.785 7.87197 15.6175 8.37301 15.2059 8.57912C15.0867 8.63861 14.9592 8.6671 14.8342 8.6671C14.5284 8.6671 14.2342 8.49869 14.0875 8.20627L12.4209 4.87326C12.215 4.46187 12.3825 3.96083 12.7942 3.75555L16.1275 2.08821C16.5409 1.88209 17.04 2.04966 17.245 2.46105C17.4517 2.87244 17.2842 3.37349 16.8725 3.57876L15.4767 4.2767C18.58 5.51339 20.6667 8.48612 20.6667 12.0001ZM11.8725 20.2455L8.53917 21.912C8.42 21.9715 8.2925 22 8.1675 22C7.86167 22 7.5675 21.8316 7.42083 21.5392C7.215 21.1278 7.3825 20.6267 7.79417 20.4215L9.18833 19.7244C6.08667 18.4885 4 15.5158 4 12.0001C4 8.18365 6.46417 4.77188 9.99167 3.70277C10.4325 3.56955 10.8975 3.81839 11.0308 4.25827C11.165 4.69898 10.9158 5.164 10.4758 5.29806C7.64417 6.15603 5.66667 8.91176 5.66667 12.0001C5.66667 14.9 7.35917 17.2543 9.92083 18.2062L9.0875 16.5397C8.88167 16.1274 9.04917 15.6272 9.46083 15.4211C9.87333 15.215 10.3733 15.3834 10.5783 15.794L12.245 19.1278C12.4517 19.5392 12.2842 20.0394 11.8725 20.2455Z" fill="#6B7084"/>
</svg>
