<svg width="24" height="24" viewBox="0 0 24 24" fill="none" xmlns="http://www.w3.org/2000/svg">
<path fill-rule="evenodd" clip-rule="evenodd" d="M21.5391 17.2458C21.4195 17.305 21.2923 17.3333 21.1668 17.3333C20.861 17.3333 20.567 17.1642 20.4213 16.8725L19.723 15.4767C18.4864 18.58 15.5136 20.6667 12.0001 20.6667C8.18249 20.6667 4.77089 18.2025 3.70276 14.675C3.56967 14.2342 3.81817 13.7692 4.25873 13.6358C4.69676 13.5017 5.16428 13.7508 5.29821 14.1917C6.1549 17.0225 8.91114 19 12.0001 19C14.8979 19 17.2514 17.3083 18.205 14.7458L16.5388 15.5783C16.126 15.785 15.6265 15.6175 15.421 15.2058C15.2154 14.7942 15.3822 14.2942 15.7941 14.0883L19.1266 12.4208C19.5393 12.215 20.0397 12.3825 20.2452 12.7942L21.9114 16.1275C22.1178 16.5392 21.951 17.04 21.5391 17.2458ZM12.5915 15.075C12.7414 15.2333 12.8332 15.45 12.8332 15.6667C12.8332 15.8833 12.7414 16.1 12.5915 16.2583C12.4331 16.4083 12.2166 16.5 12.0001 16.5C11.7828 16.5 11.5663 16.4083 11.408 16.2583C11.258 16.1 11.258 15.8833 11.258 15.6667C11.258 15.45 11.258 15.2333 11.408 15.075C11.7163 14.7667 12.2832 14.7667 12.5915 15.075ZM11.258 9C11.258 8.54 11.5402 8.16667 12.0001 8.16667C12.4601 8.16667 12.9428 8.54 12.9428 9V13.1667C12.9428 13.6267 12.4601 14 12.0001 14C11.5402 14 11.258 13.6267 11.258 13.1667V9ZM19.7415 11.0317C19.3027 11.1642 18.836 10.9158 18.702 10.475C17.8445 7.64417 15.0883 5.66667 12.0001 5.66667C9.09987 5.66667 6.74545 7.35917 5.79357 9.92167L7.46062 9.0875C7.87338 8.88167 8.37291 9.04917 8.57929 9.46083C8.78482 9.8725 8.61803 10.3733 8.20612 10.5792L4.87286 12.245C4.75324 12.305 4.62604 12.3333 4.50137 12.3333C4.19559 12.3333 3.90076 12.165 3.75503 11.8733L2.08798 8.53917C1.88244 8.1275 2.04923 7.62667 2.46115 7.42083C2.87391 7.215 3.37344 7.3825 3.57898 7.79417L4.27646 9.18833C5.51137 6.08583 8.48494 4 12.0001 4C15.8161 4 19.2277 6.46417 20.2975 9.99167C20.4306 10.4325 20.1812 10.8975 19.7415 11.0317Z" fill="#6B7084"/>
</svg>
