<svg width="24" height="24" viewBox="0 0 24 24" fill="none" xmlns="http://www.w3.org/2000/svg">
<path fill-rule="evenodd" clip-rule="evenodd" d="M11.8 22C6.948 22 3 18.052 3 13.2005C3 8.83606 6.1968 5.21367 10.3688 4.52713L8.92 3.44025C8.5664 3.17496 8.4952 2.67333 8.76 2.31961C9.0256 1.96669 9.5264 1.89515 9.88 2.15963L13.08 4.56009C13.252 4.68872 13.3648 4.88246 13.3928 5.09549C13.4208 5.30933 13.3624 5.52478 13.2296 5.6936L10.9544 8.59328C10.7968 8.79426 10.5616 8.89957 10.3248 8.89957C10.152 8.89957 9.9776 8.8441 9.8312 8.72914C9.484 8.45581 9.4232 7.95337 9.696 7.60609L10.908 6.06098C7.3584 6.50313 4.6 9.53305 4.6 13.2005C4.6 17.1701 7.8304 20.4002 11.8 20.4002C15.7696 20.4002 19 17.1701 19 13.2005C19 10.7904 17.7416 8.37462 15.7928 7.04657C15.428 6.79816 15.3336 6.30054 15.5824 5.93557C15.832 5.5706 16.3296 5.47574 16.6944 5.72495C19.0664 7.3424 20.6 10.2767 20.6 13.2005C20.6 18.052 16.652 22 11.8 22ZM15.6144 11.312L11.6144 16.1122C11.4704 16.285 11.2608 16.3887 11.036 16.3991C11.024 16.4 11.012 16.4 11 16.4C10.788 16.4 10.5848 16.3163 10.4344 16.166L8.0344 13.7656C7.7216 13.4536 7.7216 12.9464 8.0344 12.6345C8.3472 12.3217 8.8528 12.3217 9.1656 12.6345L10.9464 14.4151L14.3856 10.2879C14.668 9.94862 15.1728 9.9028 15.512 10.1858C15.8512 10.4687 15.8976 10.9728 15.6144 11.312Z" fill="#6B7084"/>
</svg>
