<svg width="24" height="24" viewBox="0 0 24 24" fill="none" xmlns="http://www.w3.org/2000/svg">
<path fill-rule="evenodd" clip-rule="evenodd" d="M17.265 18.9583C16.885 19.2183 16.3667 19.1192 16.1075 18.7392C15.8483 18.3592 15.9458 17.84 16.3258 17.5808C18.3558 16.1975 19.6667 13.6808 19.6667 11.1692C19.6667 7.0325 16.3017 3.6675 12.1667 3.6675C8.03167 3.6675 4.66667 7.0325 4.66667 11.1692C4.66667 15.1367 7.76417 18.3867 11.6658 18.6458L10.4825 16.5783C10.255 16.1792 10.3933 15.67 10.7925 15.4417C11.1925 15.2125 11.7008 15.3508 11.93 15.7508L13.7233 18.8858C13.8342 19.0792 13.8625 19.3083 13.8033 19.5225C13.7442 19.7375 13.6008 19.9192 13.4067 20.0275L10.0733 21.8933C9.945 21.9658 9.805 22 9.6675 22C9.375 22 9.0925 21.8458 8.93917 21.5733C8.71417 21.1717 8.85833 20.6633 9.26 20.4392L9.945 20.055C5.9625 19.0575 3 15.4575 3 11.1692C3 6.11333 7.1125 2 12.1667 2C17.2208 2 21.3333 6.11333 21.3333 11.1692C21.3333 14.2158 19.7367 17.2733 17.265 18.9583Z" fill="#6B7084"/>
</svg>
