<svg viewBox="0 0 24 24" fill="none" xmlns="http://www.w3.org/2000/svg">
<g clip-path="url(#clip0_1265_20968)">
<path d="M12 24C18.6274 24 24 18.6274 24 12C24 5.37258 18.6274 0 12 0C5.37258 0 0 5.37258 0 12C0 18.6274 5.37258 24 12 24Z" fill="#080817"/>
<path d="M8.02914 8.24056L8.98079 7.69232L9.11587 7.9132L12.645 5.87482L12.3852 5.72088L12.1248 5.57728L12 5.5L6.24023 8.82773V8.97133L7.89406 8.01907L8.02914 8.24056ZM8.02914 10.3361L10.7977 8.74011L10.9224 8.9622L14.4619 6.92261L14.2027 6.76866L13.9429 6.62506L13.8169 6.54779L6.24023 10.913V11.0669L7.89406 10.1153L8.02914 10.3361ZM8.02914 11.3839L11.7019 9.26036L11.8266 9.48123L15.3661 7.44285L15.1069 7.29803L14.8452 7.14348L14.7211 7.06681L6.24023 11.962V12.1141L7.89406 11.1539L8.02914 11.3839ZM8.02914 12.4232L12.6341 9.76843L12.7606 9.99113L16.2703 7.96188L16.0093 7.81645L15.75 7.66433L15.6253 7.59558L6.24023 13.0104V13.154L7.89406 12.2023L8.02914 12.4232ZM8.02914 13.471L13.5382 10.2887L13.6642 10.5199L17.1745 8.49125L16.9128 8.3367L16.6646 8.19188L16.5295 8.11582L6.24023 14.0582V14.2018L7.89406 13.2501L8.02914 13.471ZM17.5669 8.71212L17.4331 8.63485L6.24023 15.1059V15.2495L7.89406 14.2979L8.02914 14.5188L13.5382 11.3365L13.6642 11.5579L17.7592 9.20255V8.82773L17.5669 8.71212ZM6.95215 15.8854L7.8752 15.356L8.00967 15.5775L13.5103 12.3952L13.6441 12.6246L17.7598 10.24V9.50009L6.82741 15.8087L6.95215 15.8854ZM13.5103 13.443L13.6441 13.6742L17.7598 11.289V10.5485L7.73099 16.3369L7.85512 16.4142L8.79825 15.8659L8.93151 16.0868L13.5103 13.443ZM8.75992 16.9332L9.71157 16.3856L9.83569 16.6168L13.5109 14.4908L13.6435 14.7117L17.7598 12.3374V11.5878L8.63396 16.8565L8.75992 16.9332ZM9.67323 17.4522L10.6158 16.9143L10.7399 17.1352L13.5103 15.5386L13.6441 15.7594L17.7598 13.3852V12.6349L9.53815 17.3853L9.67323 17.4522ZM10.4423 17.9043L10.5768 17.9816L11.5199 17.4327L11.6441 17.664L13.5103 16.587L13.6441 16.8091L17.7598 14.433V13.6839L10.4423 17.9043ZM11.481 18.5L12.4241 17.9621L12.5574 18.183L13.5103 17.6256L13.6441 17.8568L17.7598 15.4808V14.7311L11.355 18.4337L11.481 18.5ZM13.5577 6.39385L13.2985 6.25025L13.0387 6.09569L12.9042 6.01903L6.24023 9.87491V10.0185L7.89406 9.06686L8.02914 9.28774L9.8935 8.21196L10.0201 8.43283L13.5577 6.39385Z" fill="white"/>
</g>
<defs>
<clipPath id="clip0_1265_20968">
<rect width="24" height="24" fill="white"/>
</clipPath>
</defs>
</svg>