<svg viewBox="0 0 24 24" fill="none" xmlns="http://www.w3.org/2000/svg">
<g clip-path="url(#clip0_1265_20964)">
<path d="M12 24C18.6274 24 24 18.6274 24 12C24 5.37258 18.6274 0 12 0C5.37258 0 0 5.37258 0 12C0 18.6274 5.37258 24 12 24Z" fill="#602A52"/>
<path fill-rule="evenodd" clip-rule="evenodd" d="M14.4118 12.1846C14.2473 11.726 13.9539 11.3246 13.5668 11.0287L13.5626 11.024C13.5216 10.993 13.4796 10.9632 13.4368 10.9348L13.4285 10.9289C13.3863 10.9012 13.3433 10.8746 13.2997 10.8491L13.2879 10.842C13.2451 10.8172 13.2011 10.7945 13.1561 10.7741L13.1431 10.767C13.097 10.7453 13.0505 10.7246 13.0036 10.7049L12.9883 10.699C12.8364 10.636 12.6789 10.5877 12.5179 10.5548C12.4251 10.7231 12.3057 10.8754 12.1645 11.0057C12.4962 11.0322 12.8167 11.1382 13.0988 11.3148L13.1147 11.3242L13.1927 11.3774L13.2282 11.4022C13.2518 11.4199 13.2737 11.4377 13.2979 11.4554L13.3375 11.4873C13.3588 11.505 13.3783 11.5228 13.3984 11.5411L13.4385 11.5795L13.4935 11.635L13.5337 11.6782L13.5827 11.7355L13.6211 11.7834L13.6655 11.8425C13.6802 11.862 13.6903 11.8773 13.7021 11.8945C13.7139 11.9116 13.7293 11.934 13.7417 11.9547L13.776 12.0115C13.7866 12.0304 13.7996 12.0516 13.8102 12.0717C13.8221 12.0912 13.8315 12.1131 13.8421 12.1344C13.8522 12.1556 13.8622 12.1734 13.8711 12.1935C13.8822 12.2197 13.8928 12.2461 13.903 12.2727C13.9591 12.4126 13.9987 12.5585 14.0212 12.7076L14.0856 12.9463C14.1128 13.0456 14.3639 13.9249 14.946 14.2209C15.6132 14.5631 16.4966 14.9856 16.8441 15.1528L12.2549 17.8475V16.0008C12.2549 15.7095 12.8458 15.3685 13.1194 15.2486L13.1354 15.2397C13.1915 15.2119 13.2477 15.1818 13.3009 15.1499L13.3239 15.1381C13.4423 15.0668 13.5549 14.9864 13.6607 14.8976L13.6891 14.8722L13.7216 14.8432C13.7549 14.8133 13.7874 14.7826 13.8191 14.751L13.8356 14.7351C13.8705 14.7002 13.9054 14.6671 13.9361 14.6263L13.9651 14.5932C13.9911 14.5625 14.0159 14.5312 14.0401 14.4993L14.0614 14.4727C14.0909 14.4337 14.1181 14.3935 14.1453 14.3527L14.1547 14.3409C14.1914 14.2836 14.2239 14.2263 14.2582 14.1666C14.1295 14.0112 14.0192 13.8415 13.9296 13.6607C13.893 13.763 13.8469 13.8623 13.7937 13.9574C13.7712 13.9988 13.7476 14.0389 13.724 14.0779L13.7133 14.0939C13.691 14.1271 13.6678 14.1596 13.6436 14.1914L13.6223 14.2186C13.5982 14.2497 13.573 14.2798 13.5467 14.309L13.5325 14.3255C13.3615 14.5122 13.1573 14.6655 12.9303 14.7776L12.8872 14.7995C12.7708 14.8509 11.7449 15.3059 11.7449 15.9979V17.8451L7.14159 15.1458C7.43765 14.9649 8.30277 14.4615 9.01425 14.2399C9.29258 14.1548 9.88351 14.5194 10.2186 14.7871L10.2387 14.8048C10.283 14.8462 10.3297 14.8857 10.3781 14.923L10.3947 14.9377C10.501 15.0228 10.6145 15.0991 10.7333 15.1664L10.813 15.2096L10.829 15.2178C10.9064 15.2568 10.9856 15.2923 11.0665 15.3236L11.102 15.3372L11.1256 15.3467C11.2421 15.3892 11.362 15.4223 11.4832 15.4471C11.5785 15.2767 11.7015 15.1233 11.8472 14.9933C11.653 14.9789 11.4618 14.9371 11.2793 14.8692L11.248 14.8574L11.1877 14.8331L11.157 14.8201L11.0985 14.793C10.963 14.7272 10.8352 14.6468 10.7173 14.553L10.5341 14.39C10.3659 14.2451 10.1838 14.1172 9.99047 14.0082C9.53545 13.7541 9.15489 13.6714 8.86297 13.7612C8.25431 13.9491 7.56883 14.3143 7.15046 14.5554L11.7467 6.44963V9.99935C11.7467 10.1252 11.5576 10.4538 10.9259 10.7327L10.8822 10.7563C10.8207 10.7859 10.761 10.8178 10.7025 10.8521L10.6907 10.858C10.4962 10.9725 10.3178 11.1124 10.1601 11.274L10.1542 11.2799C10.0944 11.3414 10.0378 11.4059 9.98456 11.4731L9.97806 11.482C9.95237 11.5148 9.92735 11.5481 9.90301 11.5819L9.89473 11.5937C9.87282 11.6256 9.85154 11.6579 9.83091 11.6906L9.82382 11.7006C9.80301 11.7342 9.78311 11.7683 9.76414 11.8029L9.75055 11.8271C9.73341 11.8602 9.71627 11.8956 9.69914 11.9264L9.69145 11.9423C9.67623 11.9734 9.66185 12.005 9.64832 12.0369L9.63354 12.0723C9.61995 12.1054 9.60754 12.1409 9.59513 12.1728L9.58331 12.2082C9.57427 12.2336 9.566 12.2592 9.5585 12.2851C9.55436 12.2992 9.54963 12.3128 9.54609 12.3276C9.51216 12.4463 9.48747 12.5674 9.47222 12.6898L9.46631 12.7448C9.46352 12.7698 9.46135 12.7948 9.45981 12.8199C9.45863 12.8453 9.45981 12.8701 9.45567 12.8949C9.45154 12.9203 9.45567 12.9256 9.45567 12.9422V12.9983C9.45567 13.1224 9.46513 13.2465 9.48404 13.37C9.682 13.4183 9.87359 13.4897 10.0549 13.5827C9.99922 13.4043 9.96938 13.2189 9.96624 13.032V12.9983C9.96624 12.9534 9.96624 12.9091 9.97155 12.8618V12.8264C9.97155 12.7879 9.97924 12.7489 9.98456 12.7105V12.694C9.99066 12.6512 9.99895 12.6088 10.0094 12.5669L10.0165 12.5344C10.0253 12.499 10.0342 12.4647 10.0454 12.4298L10.0525 12.4074C10.0643 12.3666 10.0791 12.327 10.0945 12.2874L10.1063 12.2608C10.1193 12.2283 10.1335 12.1958 10.1482 12.1633L10.1595 12.1385C10.1778 12.1001 10.1979 12.0629 10.2186 12.0256L10.2298 12.0073C10.2484 11.9753 10.2679 11.9437 10.2883 11.9128L10.3031 11.8909C10.3273 11.8555 10.3521 11.8224 10.3787 11.7857L10.3834 11.7798C10.4088 11.7473 10.4354 11.716 10.4626 11.6853L10.4774 11.6675C10.6021 11.5304 10.7451 11.4105 10.9029 11.3112L11.1203 11.2108C11.2367 11.1593 12.2579 10.6919 12.2579 9.99935V6.44963L16.8902 14.6163C16.4765 14.4171 15.7497 14.0655 15.1824 13.7772C14.8585 13.6117 14.6375 13.0285 14.5808 12.8193L14.5182 12.574C14.495 12.4424 14.461 12.313 14.4165 12.187L14.4118 12.1846ZM17.5496 14.7551L12.444 5.75765C12.3989 5.67896 12.3338 5.61364 12.2552 5.56837C12.1766 5.52311 12.0874 5.49951 11.9967 5.50001C11.9062 5.49972 11.8172 5.52342 11.7389 5.56867C11.6605 5.61393 11.5955 5.67913 11.5505 5.75765L6.4508 14.7557C6.3866 14.8692 6.36983 15.0034 6.40415 15.1291C6.43846 15.2549 6.52107 15.3619 6.63398 15.427L11.7378 18.429C11.8175 18.4755 11.908 18.5 12.0002 18.5C12.0924 18.5 12.183 18.4755 12.2626 18.429L17.3659 15.4294C17.4787 15.3644 17.5613 15.2575 17.5958 15.1319C17.6302 15.0063 17.6136 14.8721 17.5496 14.7587L17.5508 14.7551H17.5496Z" fill="white"/>
</g>
<defs>
<clipPath id="clip0_1265_20964">
<rect width="24" height="24" fill="white"/>
</clipPath>
</defs>
</svg>