<svg viewBox="0 0 24 24" fill="none" xmlns="http://www.w3.org/2000/svg">
<g clip-path="url(#clip0_1265_20960)">
<path d="M12 24C18.6274 24 24 18.6274 24 12C24 5.37258 18.6274 0 12 0C5.37258 0 0 5.37258 0 12C0 18.6274 5.37258 24 12 24Z" fill="#0E0E21"/>
<path fill-rule="evenodd" clip-rule="evenodd" d="M9.10767 11.6714L8.30171 11.1482C8.26655 11.1254 8.24157 11.0898 8.232 11.049C8.22243 11.0082 8.22901 10.9653 8.25036 10.9292L11.3598 5.65729C11.3878 5.60965 11.4276 5.5701 11.4755 5.54253C11.5234 5.51495 11.5776 5.50029 11.6328 5.5H12.3666C12.4218 5.50029 12.4761 5.51495 12.5239 5.54253C12.5718 5.5701 12.6116 5.60965 12.6396 5.65729L15.749 10.9292C15.7704 10.9653 15.777 11.0082 15.7674 11.049C15.7578 11.0898 15.7329 11.1254 15.6977 11.1482L14.8917 11.6714C14.8738 11.6828 14.8537 11.6905 14.8327 11.694C14.8118 11.6975 14.7903 11.6967 14.7696 11.6918C14.7489 11.6868 14.7295 11.6777 14.7124 11.6651C14.6953 11.6524 14.6809 11.6365 14.6701 11.6181L12.0683 7.20747C12.0613 7.19561 12.0513 7.18578 12.0393 7.17896C12.0273 7.17213 12.0138 7.16855 12 7.16855C11.9863 7.16855 11.9727 7.17213 11.9607 7.17896C11.9488 7.18578 11.9388 7.19561 11.9318 7.20747L9.32996 11.6181C9.31922 11.6366 9.30485 11.6527 9.2877 11.6655C9.27056 11.6783 9.25101 11.6874 9.23023 11.6924C9.20944 11.6974 9.18787 11.6981 9.1668 11.6945C9.14574 11.6909 9.12562 11.683 9.10767 11.6714ZM16.5674 12.3182L17.8049 14.4163C17.8471 14.4884 17.8602 14.5739 17.8415 14.6553C17.8228 14.7367 17.7736 14.8079 17.7041 14.8543L12.1729 18.4487C12.1217 18.4822 12.0619 18.5 12.0007 18.5C11.9395 18.5 11.8796 18.4822 11.8284 18.4487L6.29721 14.8543C6.2271 14.8085 6.17741 14.7373 6.15852 14.6557C6.13962 14.574 6.15299 14.4883 6.19582 14.4163L7.43335 12.3182C7.44409 12.2997 7.45847 12.2836 7.47561 12.2708C7.49275 12.2581 7.51231 12.2489 7.53309 12.2439C7.55387 12.2389 7.57545 12.2382 7.59651 12.2418C7.61758 12.2454 7.63769 12.2533 7.65564 12.2649L8.46095 12.7881C8.49612 12.8109 8.5211 12.8465 8.53067 12.8873C8.54023 12.9281 8.53365 12.971 8.5123 13.0071L7.80514 14.2063C7.7949 14.2244 7.7919 14.2458 7.79672 14.266C7.80154 14.2863 7.81383 14.3039 7.83113 14.3155L11.9571 16.9966C11.9831 17.0142 12.0156 17.0142 12.0423 16.9966L16.1696 14.3155C16.1871 14.3042 16.1996 14.2865 16.2045 14.2661C16.2093 14.2458 16.2061 14.2244 16.1956 14.2063L15.4884 13.0071C15.4671 12.971 15.4605 12.9281 15.47 12.8873C15.4796 12.8465 15.5046 12.8109 15.5398 12.7881L16.3457 12.2649C16.3636 12.2534 16.3837 12.2456 16.4047 12.2421C16.4257 12.2385 16.4472 12.2393 16.4679 12.2443C16.4886 12.2492 16.5081 12.2583 16.5252 12.271C16.5423 12.2838 16.5566 12.2998 16.5674 12.3182Z" fill="white"/>
</g>
<defs>
<clipPath id="clip0_1265_20960">
<rect width="24" height="24" fill="white"/>
</clipPath>
</defs>
</svg>