<svg width="24" height="24" viewBox="0 0 24 24" fill="none" xmlns="http://www.w3.org/2000/svg">
<g clip-path="url(#clip0_1265_20956)">
<path d="M12 24C18.6274 24 24 18.6274 24 12C24 5.37258 18.6274 0 12 0C5.37258 0 0 5.37258 0 12C0 18.6274 5.37258 24 12 24Z" fill="#00E6A0"/>
<path d="M16.4243 6.5001C16.4818 6.49884 16.5389 6.50925 16.5922 6.53072C16.6455 6.55218 16.6939 6.58424 16.7345 6.62496L16.7306 6.62106C16.7948 6.68508 16.8368 6.76807 16.8502 6.85777L16.8561 6.9254L16.8515 9.1475C16.8515 9.43949 16.7358 9.71977 16.529 9.92592L13.7717 12.6748L16.7221 15.6161C16.8259 15.7175 16.9085 15.8385 16.9653 15.972C17.022 16.1055 17.0518 16.249 17.0528 16.3941C17.0538 16.5392 17.026 16.683 16.9711 16.8173C16.9162 16.9516 16.8352 17.0737 16.7329 17.1765C16.6305 17.2793 16.5088 17.3609 16.3748 17.4164C16.2407 17.4719 16.097 17.5003 15.9519 17.5C15.8068 17.4997 15.6632 17.4706 15.5295 17.4145C15.3957 17.3583 15.2743 17.2762 15.1724 17.1729L11.4429 13.4551C11.3401 13.3532 11.2584 13.2319 11.2027 13.0982C11.147 12.9646 11.1183 12.8212 11.1183 12.6764C11.1183 12.5316 11.147 12.3882 11.2027 12.2546C11.2584 12.1209 11.3401 11.9996 11.4429 11.8977L14.7088 8.63831H9.18247V16.3698C9.18493 16.5172 9.15772 16.6636 9.10244 16.8003C9.04717 16.9369 8.96496 17.0611 8.86073 17.1653C8.75649 17.2695 8.63234 17.3517 8.49568 17.407C8.35902 17.4623 8.21264 17.4895 8.06524 17.487L7.95469 17.4831C7.67724 17.459 7.41919 17.3308 7.23234 17.1243C7.0455 16.9178 6.94369 16.6483 6.94736 16.3698V7.70122C6.94736 7.00799 7.44355 6.5001 8.11531 6.5001H16.4243Z" fill="white"/>
</g>
<defs>
<clipPath id="clip0_1265_20956">
<rect width="24" height="24" fill="white"/>
</clipPath>
</defs>
</svg>
