<svg viewBox="0 0 24 24" fill="none" xmlns="http://www.w3.org/2000/svg">
<path d="M15.2114 13.1147L19.7713 8.61166C19.9407 8.44447 20.075 8.2457 20.1665 8.02682C20.258 7.80794 20.3048 7.57328 20.3042 7.33638L20.312 3.69674C20.3115 3.51002 20.2387 3.33061 20.1086 3.19556L11.3608 11.8419C11.1908 12.0089 11.0558 12.2075 10.9637 12.4264C10.8716 12.6453 10.8242 12.8801 10.8242 13.1172C10.8242 13.3544 10.8716 13.5891 10.9637 13.808C11.0558 14.0269 11.1908 14.2256 11.3608 14.3925L17.5287 20.4832C17.6977 20.6499 17.8982 20.7819 18.1188 20.8717C18.3394 20.9616 18.5757 21.0075 18.8141 21.007C19.0526 21.0064 19.2887 20.9592 19.5088 20.8683C19.7289 20.7773 19.9288 20.6443 20.097 20.4768C20.2652 20.3094 20.3985 20.1107 20.4892 19.8922C20.5799 19.6737 20.6263 19.4397 20.6257 19.2034C20.6251 18.9672 20.5775 18.7334 20.4857 18.5153C20.3939 18.2973 20.2596 18.0993 20.0905 17.9327L15.2114 13.1147Z" fill="#008C62"/>
<path d="M19.5988 3.00017H5.85859C4.74758 3.00017 3.92752 3.83165 3.92752 4.96665V19.1669C3.9244 19.4082 3.9701 19.6476 4.06192 19.8711C4.15373 20.0946 4.28981 20.2977 4.46212 20.4682C4.63443 20.6388 4.83948 20.7735 5.06517 20.8643C5.29086 20.955 5.53262 21.0002 5.7762 20.9969C6.01995 21.001 6.26206 20.9565 6.48808 20.866C6.71411 20.7755 6.91943 20.6409 7.09182 20.4701C7.26421 20.2994 7.40013 20.096 7.49149 19.8721C7.58285 19.6482 7.62777 19.4083 7.62359 19.1669V6.50336H16.764L20.1112 3.20422C20.0442 3.13764 19.9642 3.08523 19.8761 3.05016C19.7881 3.01509 19.6937 2.99808 19.5988 3.00017Z" fill="#00E6A0"/>
</svg>