<svg width="24" height="24" viewBox="0 0 24 24" fill="none" xmlns="http://www.w3.org/2000/svg">
<path fill-rule="evenodd" clip-rule="evenodd" d="M20.4225 21.7558C20.2601 21.9183 20.0467 22 19.8332 22C19.6206 22 19.4072 21.9183 19.244 21.7558L17.3498 19.8608C16.8534 20.1533 16.2834 20.3333 15.6673 20.3333C13.8284 20.3333 12.3326 18.8383 12.3326 17C12.3326 15.1617 13.8284 13.6667 15.6673 13.6667C17.5046 13.6667 19.0004 15.1617 19.0004 17C19.0004 17.6167 18.8204 18.1867 18.5275 18.6825L20.4225 20.5775C20.7481 20.9033 20.7481 21.4308 20.4225 21.7558ZM15.6673 15.3333C14.7474 15.3333 13.9991 16.0808 13.9991 17C13.9991 17.9183 14.7474 18.6667 15.6673 18.6667C16.126 18.6667 16.542 18.48 16.8434 18.1792C16.8442 18.1783 16.8442 18.1783 16.8442 18.1775C16.845 18.1775 16.845 18.1775 16.8459 18.1767C17.1472 17.875 17.3338 17.4592 17.3338 17C17.3338 16.0808 16.5864 15.3333 15.6673 15.3333ZM18.1667 12.8333C17.7063 12.8333 17.4092 12.4608 17.4092 12V7H6.5002C6.2064 7 5.92935 6.94 5.66736 6.84667V19.3483C5.66736 19.8917 6.10847 20.3333 6.6517 20.3333H12.3334C12.7938 20.3333 13.1671 20.7058 13.1671 21.1667C13.1671 21.6275 12.7938 22 12.3334 22H6.6517C5.29321 22 4.18331 20.9692 4.03097 19.6517C4.02093 19.6008 4 19.5542 4 19.5V4.95417C4 4.9 4.02093 4.85333 4.03097 4.8025C4.01841 4.7025 4 4.60333 4 4.5C4 3.12167 5.12162 2 6.5002 2H18.1667C18.627 2 19.0004 2.3725 19.0004 2.83333C19.0004 3.29417 18.627 3.66667 18.1667 3.66667C17.7071 3.66667 17.3338 4.04 17.3338 4.5C17.3338 4.96 17.7071 5.33333 18.1667 5.33333C18.627 5.33333 19.0004 5.70583 19.0004 6.16667C19.0004 6.2475 18.9761 6.32 18.9543 6.39333C18.9761 6.4675 19.0004 6.54 19.0004 6.62083V12C19.0004 12.4608 18.627 12.8333 18.1667 12.8333ZM6.50022 3.66667C6.04069 3.66667 5.66738 4.04 5.66738 4.5C5.66738 4.96 6.04069 5.33333 6.50022 5.33333H15.8138C15.7201 5.0725 15.6673 4.79333 15.6673 4.5C15.6673 4.20667 15.7268 3.92917 15.8205 3.66667H6.50022Z" fill="#6B7084"/>
</svg>
