<svg viewBox="0 0 24 24" fill="none" xmlns="http://www.w3.org/2000/svg">
<path fill-rule="evenodd" clip-rule="evenodd" d="M8.0961 5.44899C9.25995 4.43062 11.0814 5.25714 11.0814 6.80363V16.3961C11.0814 17.9426 9.25995 18.7691 8.0961 17.7507L2.61469 12.9545C1.7951 12.2374 1.7951 10.9624 2.61469 10.2452L8.0961 5.44899ZM9.48141 6.80363C9.48141 6.63179 9.27902 6.53996 9.14971 6.65311L3.6683 11.4493C3.57723 11.529 3.57723 11.6707 3.6683 11.7504L9.14971 16.5466C9.27902 16.6598 9.48141 16.5679 9.48141 16.3961V6.80363ZM18.0961 5.44899C19.26 4.43062 21.0814 5.25714 21.0814 6.80363V16.3961C21.0814 17.9426 19.2599 18.7691 18.0961 17.7507L12.6147 12.9545C11.7951 12.2374 11.7951 10.9624 12.6147 10.2452L18.0961 5.44899ZM19.4814 6.80363C19.4814 6.63179 19.279 6.53996 19.1497 6.65311L13.6683 11.4493C13.5772 11.529 13.5772 11.6707 13.6683 11.7504L19.1497 16.5466C19.279 16.6598 19.4814 16.5679 19.4814 16.3961V6.80363Z" fill="currentColor"/>
</svg>