<svg width="24" height="24" viewBox="0 0 24 24" fill="none" xmlns="http://www.w3.org/2000/svg">
<path fill-rule="evenodd" clip-rule="evenodd" d="M2.76923 11.2308C2.3444 11.2308 2 11.5752 2 12C2 17.5228 6.47715 22 12 22C17.5228 22 22 17.5228 22 12C22 6.47715 17.5228 2 12 2C9.3725 2 6.91258 3.02069 5.0769 4.78337V2.76923C5.0769 2.3444 4.73251 2 4.30767 2C3.88284 2 3.53844 2.3444 3.53844 2.76923V6.61538C3.53844 7.04022 3.88284 7.38462 4.30767 7.38462H8.15383C8.57866 7.38462 8.92306 7.04022 8.92306 6.61538C8.92306 6.19055 8.57866 5.84615 8.15383 5.84615H6.19172C7.73985 4.3832 9.79962 3.53846 12 3.53846C16.6732 3.53846 20.4615 7.32682 20.4615 12C20.4615 16.6732 16.6732 20.4615 12 20.4615C7.32682 20.4615 3.53846 16.6732 3.53846 12C3.53846 11.5752 3.19407 11.2308 2.76923 11.2308Z" fill="#6B7084"/>
<path d="M8 10.2544V9.01915H10.3078V16H8.92886V10.2544H8Z" fill="#6B7084"/>
<path d="M16.3244 10.1778H13.2218V11.8153C13.3559 11.6493 13.5474 11.5153 13.7964 11.4131C14.0453 11.3046 14.3103 11.2503 14.5912 11.2503C15.1019 11.2503 15.52 11.3621 15.8456 11.5855C16.1712 11.8089 16.4074 12.0962 16.5542 12.4473C16.701 12.7921 16.7745 13.1623 16.7745 13.5581C16.7745 14.2923 16.5638 14.8828 16.1425 15.3297C15.7275 15.7766 15.1338 16 14.3613 16C13.6336 16 13.0526 15.8181 12.6185 15.4542C12.1844 15.0903 11.9386 14.6147 11.8812 14.0274H13.1835C13.2409 14.2827 13.3686 14.487 13.5665 14.6402C13.7708 14.7934 14.0294 14.87 14.3422 14.87C14.7188 14.87 15.0029 14.7519 15.1944 14.5157C15.386 14.2795 15.4817 13.9667 15.4817 13.5773C15.4817 13.1815 15.3828 12.8814 15.1849 12.6772C14.9933 12.4665 14.7093 12.3611 14.3326 12.3611C14.0645 12.3611 13.841 12.4282 13.6623 12.5622C13.4835 12.6963 13.3559 12.8751 13.2793 13.0985H11.9961V9H16.3244V10.1778Z" fill="#6B7084"/>
</svg>
