<svg width="24" height="24" viewBox="0 0 24 24" fill="none" xmlns="http://www.w3.org/2000/svg">
<path fill-rule="evenodd" clip-rule="evenodd" d="M2 12C2 17.5142 6.48583 22 12 22C17.5142 22 22 17.5142 22 12C22 6.48583 17.5142 2 12 2C6.48583 2 2 6.48583 2 12ZM3.66667 12C3.66667 7.405 7.405 3.66667 12 3.66667C16.595 3.66667 20.3333 7.405 20.3333 12C20.3333 16.595 16.595 20.3333 12 20.3333C7.405 20.3333 3.66667 16.595 3.66667 12ZM6.39047 12.6108C5.76772 12.2186 5.76772 11.3108 6.39047 10.9185L11.3215 7.81281C11.9874 7.39339 12.8544 7.87197 12.8544 8.65897V9.63383L15.3069 7.93469C15.9701 7.47521 16.8764 7.94987 16.8764 8.75669V14.7727C16.8764 15.5795 15.9701 16.0542 15.3069 15.5947L12.8544 13.8956V14.8704C12.8544 15.6574 11.9874 16.136 11.3215 15.7166L6.39047 12.6108Z" fill="#6B7084"/>
</svg>
