<svg viewBox="0 0 24 24" fill="none" xmlns="http://www.w3.org/2000/svg">
<g clip-path="url(#clip0_1265_20952)">
<path d="M12 24C18.6274 24 24 18.6274 24 12C24 5.37258 18.6274 0 12 0C5.37258 0 0 5.37258 0 12C0 18.6274 5.37258 24 12 24Z" fill="#CC1E46"/>
<path d="M9.47968 8.20669C10.4138 7.50467 11.5264 7.07922 12.6906 6.97882C12.8089 6.95482 12.9373 7.02961 12.9333 7.16021C12.9445 7.47276 12.9367 7.78531 12.9367 8.09786C12.9445 8.19497 12.8932 8.3211 12.7815 8.3239C11.7512 8.43775 10.7723 8.85858 9.92171 9.44014C9.84134 9.48535 9.8592 9.58972 9.8659 9.66562C9.92506 10.2137 9.88488 10.7657 9.90106 11.3154C12.6772 11.3232 15.4544 11.3143 18.2316 11.3199C18.3639 11.3087 18.5034 11.3841 18.4928 11.532C18.5068 12.4668 18.4956 13.4017 18.4984 14.336C18.5006 14.8439 18.3923 15.3696 18.0848 15.7849C17.5993 16.4373 16.7453 16.8286 15.9338 16.6846C15.3589 16.5986 14.8622 16.242 14.514 15.7894C13.5659 16.5024 12.4347 16.9311 11.2523 17.0256C11.1323 17.0273 11.0424 16.9095 11.0608 16.7945C11.0647 16.4675 11.0541 16.1393 11.0664 15.8122C11.0943 15.6392 11.3075 15.6727 11.4342 15.6442C12.4076 15.4924 13.3385 15.0844 14.1333 14.5057C14.0923 13.8984 14.078 13.2897 14.0903 12.6812C11.3042 12.6633 8.51692 12.68 5.73077 12.6722C5.60798 12.6862 5.48966 12.5941 5.50138 12.4641C5.49915 11.4801 5.4997 10.4956 5.50249 9.51158C5.50807 8.99699 5.67049 8.47682 6.0115 8.08446C6.46079 7.57322 7.13835 7.24672 7.82596 7.2869C8.48455 7.31313 9.08899 7.68763 9.47968 8.20669ZM6.62432 9.68125C6.6232 10.2578 6.62265 10.8349 6.62544 11.4125C7.31416 11.412 8.00177 11.422 8.68993 11.407C8.69105 10.8444 8.69831 10.2823 8.68659 9.71976C8.67598 9.18061 8.18874 8.70398 7.64736 8.71514C7.11882 8.69337 6.63716 9.15606 6.62432 9.68069V9.68125ZM15.3919 12.6337C15.3863 13.1818 15.3908 13.7304 15.3885 14.2785C15.3852 14.4979 15.4516 14.7122 15.5783 14.8908C15.8428 15.2686 16.3697 15.4338 16.8006 15.2669C17.1985 15.1196 17.4614 14.7032 17.4569 14.2847C17.4569 13.7343 17.4597 13.1851 17.4547 12.6348C16.7671 12.6293 16.0795 12.632 15.3919 12.6332V12.6337Z" fill="white"/>
</g>
<defs>
<clipPath id="clip0_1265_20952">
<rect width="24" height="24" fill="white"/>
</clipPath>
</defs>
</svg>