<svg width="24" height="24" viewBox="0 0 24 24" fill="none" xmlns="http://www.w3.org/2000/svg">
<g clip-path="url(#clip0_1265_20948)">
<path d="M12 24C18.6274 24 24 18.6274 24 12C24 5.37258 18.6274 0 12 0C5.37258 0 0 5.37258 0 12C0 18.6274 5.37258 24 12 24Z" fill="#60E4DD"/>
<path fill-rule="evenodd" clip-rule="evenodd" d="M7.5436 14.9407C7.7386 14.6449 7.9232 14.368 8.0974 14.1087H6.1058C6.08977 14.1087 6.07439 14.1023 6.06306 14.091C6.05172 14.0797 6.04535 14.0643 6.04535 14.0482V13.6348C6.04535 13.6017 6.07265 13.5744 6.1058 13.5744H8.4601C9.71915 11.7355 10.3483 10.9783 10.3483 10.9009C10.3483 10.782 10.3223 10.7228 9.89335 10.7228C9.04575 10.7228 7.6515 10.1177 7.6515 8.4654C7.6515 7.56645 9.10555 6.4751 9.95445 6.4751C10.3483 6.4751 10.4088 6.64215 10.2274 6.6532C9.74255 6.6831 8.68175 7.6516 8.68175 8.5837C8.68175 9.2077 9.23555 10.2769 10.4693 10.2769C11.9265 10.2769 13.1713 7.96035 16.1971 7.96035C18.0151 7.96035 18.5 9.38255 18.5 9.77255C18.5 10.1625 17.9325 10.3666 17.1668 10.3666C16.4011 10.3666 16.3725 8.9997 14.8333 8.9997C12.4166 8.9997 10.3588 11.6166 9.3701 13.5744H11.0757C11.1095 13.5744 11.1361 13.6017 11.1361 13.6348V14.0482C11.1362 14.0562 11.1347 14.0642 11.1317 14.0716C11.1287 14.079 11.1243 14.0857 11.1187 14.0914C11.1131 14.0971 11.1064 14.1016 11.099 14.1047C11.0916 14.1078 11.0837 14.1093 11.0757 14.1093H9.1192C8.984 14.4213 8.88325 14.7041 8.8202 14.9413H10.5297C10.5635 14.9413 10.5908 14.9673 10.5908 15.0011V15.4152C10.5908 15.4312 10.5844 15.4466 10.5731 15.4579C10.5618 15.4693 10.5464 15.4756 10.5304 15.4756H8.7435C8.77535 16.2335 9.41105 16.9167 10.6519 17.5251H5.8939C6.32034 16.8376 6.7537 16.1544 7.1939 15.4756H5.5611C5.55311 15.4757 5.54518 15.4742 5.53777 15.4712C5.53036 15.4682 5.52362 15.4638 5.51793 15.4582C5.51225 15.4526 5.50774 15.4459 5.50466 15.4385C5.50158 15.4311 5.5 15.4232 5.5 15.4152V15.0011C5.5 14.968 5.5273 14.9407 5.56045 14.9407H7.5436Z" fill="white"/>
</g>
<defs>
<clipPath id="clip0_1265_20948">
<rect width="24" height="24" fill="white"/>
</clipPath>
</defs>
</svg>
