<svg viewBox="0 0 24 24" fill="none" xmlns="http://www.w3.org/2000/svg">
<g clip-path="url(#clip0_1265_20944)">
<path d="M12 24C18.6274 24 24 18.6274 24 12C24 5.37258 18.6274 0 12 0C5.37258 0 0 5.37258 0 12C0 18.6274 5.37258 24 12 24Z" fill="#F49352"/>
<path fill-rule="evenodd" clip-rule="evenodd" d="M9.79307 7.55075C9.23602 7.55075 8.78427 7.09185 8.78427 6.5257C8.78427 5.95955 9.23602 5.5 9.79307 5.5C10.3508 5.5 10.8025 5.9589 10.8025 6.5257C10.8025 7.0925 10.3508 7.55075 9.79307 7.55075ZM14.2404 18.5C14.1068 18.4989 13.9747 18.4715 13.8517 18.4193C13.7287 18.3672 13.6172 18.2913 13.5235 18.1961C13.4299 18.1008 13.3559 17.9881 13.3058 17.8642C13.2557 17.7404 13.2305 17.6079 13.2316 17.4743C13.2316 16.9088 13.6833 16.4492 14.2404 16.4492C14.7981 16.4492 15.2498 16.9081 15.2498 17.4743C15.2498 18.0411 14.7981 18.5 14.2404 18.5ZM10.2071 10.8365C10.1129 10.9099 10.0049 10.9637 9.8896 10.9948C9.77427 11.0259 9.65389 11.0337 9.53552 11.0176C9.41715 11.0016 9.30318 10.9621 9.2003 10.9014C9.09741 10.8407 9.00768 10.7601 8.93637 10.6642C8.79021 10.4697 8.72605 10.2256 8.75763 9.98434C8.78922 9.74305 8.91405 9.52373 9.10537 9.37335L13.7581 5.75805C13.8523 5.68466 13.9603 5.63083 14.0756 5.59973C14.1909 5.56862 14.3113 5.56086 14.4297 5.57691C14.548 5.59295 14.662 5.63248 14.7649 5.69316C14.8678 5.75385 14.9575 5.83447 15.0288 5.9303C15.1752 6.1249 15.2395 6.36912 15.2079 6.61056C15.1763 6.85201 15.0513 7.07146 14.8598 7.22185L10.2071 10.8365ZM10.2416 14.5213C10.1473 14.5947 10.0394 14.6486 9.92405 14.6797C9.80872 14.7108 9.68834 14.7185 9.56997 14.7025C9.4516 14.6864 9.33763 14.6469 9.23475 14.5862C9.13186 14.5256 9.04213 14.4449 8.97082 14.3491C8.82446 14.1545 8.76018 13.9103 8.79177 13.6688C8.82336 13.4274 8.94831 13.2079 9.13982 13.0576L13.7925 9.4429C13.8868 9.36951 13.9947 9.31568 14.1101 9.28458C14.2254 9.25347 14.3458 9.24571 14.4641 9.26176C14.5825 9.2778 14.6965 9.31733 14.7994 9.37801C14.9022 9.4387 14.992 9.51932 15.0633 9.61515C15.2094 9.80971 15.2736 10.0538 15.242 10.2951C15.2104 10.5364 15.0856 10.7557 14.8943 10.9061L10.2416 14.5213ZM10.2416 18.3102C10.1473 18.3836 10.0394 18.4374 9.92405 18.4685C9.80872 18.4996 9.68834 18.5074 9.56997 18.4913C9.4516 18.4753 9.33763 18.4358 9.23475 18.3751C9.13186 18.3144 9.04213 18.2338 8.97082 18.1379C8.82446 17.9433 8.76018 17.6991 8.79177 17.4577C8.82336 17.2162 8.94831 16.9968 9.13982 16.8464L13.7925 13.2318C13.8868 13.1584 13.9947 13.1045 14.1101 13.0734C14.2254 13.0423 14.3458 13.0346 14.4641 13.0506C14.5825 13.0667 14.6965 13.1062 14.7994 13.1669C14.9022 13.2275 14.992 13.3082 15.0633 13.404C15.2094 13.5986 15.2736 13.8426 15.242 14.0839C15.2104 14.3252 15.0856 14.5445 14.8943 14.6949L10.2416 18.3102Z" fill="white"/>
</g>
<defs>
<clipPath id="clip0_1265_20944">
<rect width="24" height="24" fill="white"/>
</clipPath>
</defs>
</svg>