<svg viewBox="0 0 24 24" fill="none" xmlns="http://www.w3.org/2000/svg">
<g clip-path="url(#clip0_1265_20940)">
<path d="M12 24C18.6274 24 24 18.6274 24 12C24 5.37258 18.6274 0 12 0C5.37258 0 0 5.37258 0 12C0 18.6274 5.37258 24 12 24Z" fill="#FFD800"/>
<path fill-rule="evenodd" clip-rule="evenodd" d="M16.6535 10.1599C16.6871 10.1262 16.7539 10.1262 16.8195 10.1262C17.8164 10.1262 18.6135 10.97 18.6135 11.9835C18.6135 12.9289 17.9162 13.6717 17.0192 13.8401H16.8195C16.4874 13.8401 16.1553 13.739 15.8563 13.57C15.7593 13.5017 15.6429 13.4663 15.5242 13.469C15.3913 13.469 15.2583 13.5027 15.159 13.57C14.9262 13.7054 14.827 13.9417 14.827 14.2118V14.5155C14.7919 14.9326 14.6142 15.3249 14.3237 15.6263C14.0332 15.9277 13.6477 16.1197 13.2321 16.17H13.033C12.7009 16.17 12.3688 16.069 12.0698 15.9C11.9368 15.8326 11.8375 15.799 11.7046 15.799C11.5716 15.799 11.4387 15.8326 11.3388 15.9C11.1066 16.0353 11.0067 16.2717 11.0067 16.5417V16.8455C10.9405 17.7235 10.2427 18.399 9.37937 18.5H9.21332C8.21646 18.5 7.41932 17.6556 7.41932 16.6428C7.45241 15.6973 8.11659 14.9209 9.01359 14.8192H9.21332C9.54541 14.8192 9.8775 14.9209 10.1765 15.0899C10.2735 15.1582 10.3899 15.1936 10.5086 15.1909C10.6415 15.1909 10.7745 15.1572 10.8738 15.0899C11.1066 14.9545 11.2059 14.7182 11.2059 14.4481C11.1397 13.469 11.8375 12.5909 12.8007 12.4899H12.9999C13.332 12.4899 13.664 12.5909 13.963 12.7599C14.096 12.8273 14.1959 12.861 14.3288 12.861C14.4612 12.861 14.5947 12.8273 14.694 12.7599C14.9262 12.6246 15.0261 12.3882 15.0261 12.1182C14.9599 11.139 15.6903 10.261 16.6535 10.1599ZM12.8344 7.82995C12.9006 7.79627 12.9343 7.79627 13.0335 7.79627C14.0304 7.79627 14.8275 8.64009 14.8275 9.6535C14.7945 10.599 14.1303 11.3754 13.2327 11.4765H13.0335C12.7015 11.4765 12.3694 11.3754 12.0704 11.2064C11.9733 11.1381 11.8569 11.1027 11.7383 11.1054C11.6053 11.1054 11.4724 11.139 11.3731 11.2064C11.1403 11.3417 11.0404 11.5781 11.0404 11.8481V12.1519C10.9742 13.0294 10.277 13.7048 9.41305 13.8064H9.247C8.25073 13.8064 7.453 12.9626 7.453 11.9492C7.453 11.038 8.11778 10.2946 9.01419 10.1599H9.21391C9.546 10.1599 9.87809 10.261 10.1771 10.43C10.2741 10.4983 10.3905 10.5337 10.5092 10.531C10.6421 10.531 10.7751 10.4973 10.8744 10.43C11.1072 10.2946 11.2065 10.0583 11.2065 9.78823C11.1403 8.80909 11.8712 7.931 12.8344 7.82995ZM9.18023 5.5C10.1706 5.5 10.9736 6.31664 10.9736 7.32355C10.9736 8.33045 10.17 9.1465 9.18023 9.1465C8.18928 9.1465 7.38623 8.33045 7.38623 7.32355C7.38623 6.31664 8.18987 5.5 9.18023 5.5Z" fill="white"/>
</g>
<defs>
<clipPath id="clip0_1265_20940">
<rect width="24" height="24" fill="white"/>
</clipPath>
</defs>
</svg>