<svg width="24" height="24" viewBox="0 0 24 24" fill="none" xmlns="http://www.w3.org/2000/svg">
<path fill-rule="evenodd" clip-rule="evenodd" d="M21.1667 17.6667C20.7067 17.6667 20.3333 17.2933 20.3333 16.8333V7.66667H5.33333C4.87333 7.66667 4.5 7.29333 4.5 6.83333C4.5 6.37333 4.87333 6 5.33333 6H21.1667C21.6267 6 22 6.37333 22 6.83333V16.8333C22 17.2933 21.6267 17.6667 21.1667 17.6667ZM19.5 9.33333V19.3333C19.5 19.7933 19.1267 20.1667 18.6667 20.1667H2.83333C2.37333 20.1667 2 19.7933 2 19.3333V9.33333C2 8.87333 2.37333 8.5 2.83333 8.5H18.6667C19.1267 8.5 19.5 8.87333 19.5 9.33333ZM17.8333 10.1667H3.66667V18.5H17.8333V10.1667ZM4.81502 15.8517L6.17002 15.1233C5.73419 14.7717 5.54502 14.0483 5.54502 13.7075V13.0808C5.54502 12.2475 6.31086 11.8333 7.00169 11.8333C7.69086 11.8333 8.46169 12.2475 8.46169 13.0808V13.7075C8.46169 14.0825 8.26169 14.7842 7.82752 15.1258L9.18836 15.8517C9.18836 15.8517 9.50002 15.9808 9.50002 16.1642V16.5192C9.50002 16.6917 9.36086 16.8317 9.18836 16.8317H4.81502C4.64336 16.8317 4.50336 16.6917 4.50336 16.5192V16.1642C4.50336 15.9917 4.81502 15.8517 4.81502 15.8517ZM11.1667 11.8333H16.1667C16.6267 11.8333 17 12.2067 17 12.6667C17 13.1267 16.6267 13.5 16.1667 13.5H11.1667C10.7067 13.5 10.3333 13.1267 10.3333 12.6667C10.3333 12.2067 10.7067 11.8333 11.1667 11.8333ZM11.1667 14.3333H14.5C14.96 14.3333 15.3333 14.7067 15.3333 15.1667C15.3333 15.6267 14.96 16 14.5 16H11.1667C10.7067 16 10.3333 15.6267 10.3333 15.1667C10.3333 14.7067 10.7067 14.3333 11.1667 14.3333Z" fill="#6B7084"/>
</svg>
