<svg viewBox="0 0 24 24" fill="none" xmlns="http://www.w3.org/2000/svg">
<g clip-path="url(#clip0_1265_20936)">
<path d="M12 24C18.6274 24 24 18.6274 24 12C24 5.37258 18.6274 0 12 0C5.37258 0 0 5.37258 0 12C0 18.6274 5.37258 24 12 24Z" fill="#8D181B"/>
<path d="M18.1307 11.8213C18.6107 11.8213 19 12.2013 19 12.6713C19 13.1413 18.6107 13.5213 18.1307 13.5213C17.764 13.5213 17.45 13.2986 17.3227 12.9846H14.8427L13.928 14.6113C13.7773 14.8793 13.3647 14.8 13.3287 14.4966L13.1233 12.7586L12.3633 18.3946C12.3127 18.7693 11.752 18.752 11.726 18.3746L11.1027 9.26331L10.4427 15.2993C10.4027 15.6593 9.874 15.678 9.80933 15.3213L9.11067 11.484L8.788 12.7473C8.76983 12.8157 8.72946 12.8761 8.67323 12.9191C8.617 12.962 8.54809 12.9851 8.47733 12.9846H5.32C5.14333 12.9846 5 12.8446 5 12.6713C5 12.498 5.14333 12.358 5.32 12.358H8.22667L8.85267 9.91065C8.93667 9.58265 9.418 9.59931 9.47933 9.93198L10.0453 13.0446L10.858 5.61332C10.9 5.23265 11.47 5.24332 11.496 5.62532L12.15 15.1853L12.826 10.1693C12.8753 9.80331 13.4187 9.80731 13.462 10.174L13.85 13.4506L14.3727 12.52C14.4009 12.4705 14.4418 12.4295 14.4911 12.401C14.5404 12.3725 14.5964 12.3577 14.6533 12.358H17.3227C17.3888 12.1984 17.5009 12.0621 17.6449 11.9665C17.7888 11.8709 17.9579 11.8204 18.1307 11.8213Z" fill="white"/>
</g>
<defs>
<clipPath id="clip0_1265_20936">
<rect width="24" height="24" fill="white"/>
</clipPath>
</defs>
</svg>