<svg viewBox="0 0 24 24" fill="none" xmlns="http://www.w3.org/2000/svg">
<path fill-rule="evenodd" clip-rule="evenodd" d="M4.38472 17.5453V6.45464C4.38472 5.31083 5.3106 4.38461 6.45475 4.38461H17.5454C18.6893 4.38461 19.6155 5.31049 19.6155 6.45464V17.5453C19.6155 18.6892 18.6896 19.6154 17.5454 19.6154H6.45475C5.31094 19.6154 4.38472 18.6895 4.38472 17.5453ZM6.45465 3C4.54569 3 3 4.54625 3 6.45465V17.5453C3 19.4543 4.54625 21 6.45465 21H17.5453C19.4543 21 21 19.4537 21 17.5453V6.45465C21 4.54569 19.4537 3 17.5453 3H6.45465ZM6.56795 7.20265C6.24842 7.20265 5.98938 7.46169 5.98938 7.78123V8.16694C5.98938 8.48648 6.24842 8.74551 6.56795 8.74551H6.76081C11.4473 8.74551 15.2465 12.5447 15.2465 17.2312V17.4241C15.2465 17.7436 15.5056 18.0027 15.8251 18.0027H16.2108C16.5303 18.0027 16.7894 17.7436 16.7894 17.4241V17.2312C16.7894 11.6926 12.2994 7.20265 6.76081 7.20265H6.56795ZM5.98938 11.6384C5.98938 11.3188 6.24842 11.0598 6.56795 11.0598H6.76081C10.1692 11.0598 12.9322 13.8228 12.9322 17.2312V17.4241C12.9322 17.7436 12.6732 18.0027 12.3537 18.0027H11.968C11.6484 18.0027 11.3894 17.7436 11.3894 17.4241V17.2312C11.3894 14.6749 9.3171 12.6027 6.76081 12.6027H6.56795C6.24842 12.6027 5.98938 12.3436 5.98938 12.0241V11.6384ZM7.53224 18.0027C8.38433 18.0027 9.07509 17.3119 9.07509 16.4598C9.07509 15.6077 8.38433 14.9169 7.53224 14.9169C6.68014 14.9169 5.98938 15.6077 5.98938 16.4598C5.98938 17.3119 6.68014 18.0027 7.53224 18.0027Z" fill="currentColor"/>
</svg>