<svg width="24" height="24" viewBox="0 0 24 24" fill="none" xmlns="http://www.w3.org/2000/svg">
<path fill-rule="evenodd" clip-rule="evenodd" d="M4 4.86624C4 4.38783 4.38783 4 4.86624 4H5.57962C13.5438 4 20 10.4562 20 18.4204V19.1338C20 19.6122 19.6122 20 19.1338 20C18.6553 20 18.2675 19.6122 18.2675 19.1338V18.4204C18.2675 11.4131 12.587 5.73248 5.57962 5.73248H4.86624C4.38783 5.73248 4 5.34465 4 4.86624ZM4 11.2866C4 10.8082 4.38783 10.4204 4.86624 10.4204H5.57962C9.9979 10.4204 13.5796 14.0021 13.5796 18.4204V19.1338C13.5796 19.6122 13.1918 20 12.7134 20C12.235 20 11.8471 19.6122 11.8471 19.1338V18.4204C11.8471 14.9589 9.04107 12.1529 5.57962 12.1529H4.86624C4.38783 12.1529 4 11.765 4 11.2866ZM4 18.4204C4 17.548 4.70722 16.8408 5.57962 16.8408C6.45202 16.8408 7.15924 17.548 7.15924 18.4204C7.15924 19.2928 6.45202 20 5.57962 20C4.70722 20 4 19.2928 4 18.4204Z" fill="#6B7084"/>
</svg>
