<svg width="24" height="24" viewBox="0 0 24 24" fill="none" xmlns="http://www.w3.org/2000/svg">
<g clip-path="url(#clip0_1265_20932)">
<path d="M12 24C18.6274 24 24 18.6274 24 12C24 5.37258 18.6274 0 12 0C5.37258 0 0 5.37258 0 12C0 18.6274 5.37258 24 12 24Z" fill="#64D1FF"/>
<path fill-rule="evenodd" clip-rule="evenodd" d="M7.6665 11.4497H8.9405V5.5H12.2244C12.834 5.5 13.3901 5.5715 13.8928 5.7145C14.3954 5.8575 14.8259 6.07561 15.1848 6.36739C15.5438 6.65917 15.8247 7.02967 16.0284 7.47672C16.2313 7.9245 16.3332 8.45894 16.3332 9.08078C16.3332 9.70261 16.2248 10.2436 16.0103 10.7036C15.8074 11.1474 15.5067 11.5395 15.1307 11.8505C14.7445 12.1633 14.2991 12.395 13.8213 12.5316C13.2906 12.6847 12.7406 12.7601 12.1883 12.7554H10.3756V14.639H13.2644V15.8704H10.3756V18.5H8.9405V15.8704H7.6665V14.639H8.9405V12.7554H7.6665V11.4497ZM12.2237 11.4497C13.0492 11.4497 13.6985 11.2539 14.1708 10.8625C14.6432 10.4703 14.8801 9.87667 14.8801 9.08078C14.8801 8.28561 14.6432 7.70711 14.1708 7.34672C13.6985 6.98561 13.0492 6.80506 12.2244 6.80506H10.3756V11.4497H12.2237Z" fill="white"/>
</g>
<defs>
<clipPath id="clip0_1265_20932">
<rect width="24" height="24" fill="white"/>
</clipPath>
</defs>
</svg>
