<svg viewBox="0 0 24 24" fill="none" xmlns="http://www.w3.org/2000/svg">
<g clip-path="url(#clip0_1265_20928)">
<path d="M12 24C18.6274 24 24 18.6274 24 12C24 5.37258 18.6274 0 12 0C5.37258 0 0 5.37258 0 12C0 18.6274 5.37258 24 12 24Z" fill="#384182"/>
<path fill-rule="evenodd" clip-rule="evenodd" d="M7.8623 19L10.1647 8.31609L11.4565 16.3343L7.8623 19ZM10.2092 8.255L13.7073 16.3425L11.5163 16.3044L10.2092 8.25436V8.255ZM10.2614 8.19391L14.8432 8.84491L13.7818 16.3425L10.2614 8.19391ZM13.8632 16.2274L14.896 8.91364L15.5718 9.77145L13.8632 16.2274ZM14.8286 8.77555L10.3575 8.13982L14.3831 6.81491L14.8286 8.77555ZM10.3359 8.07109L13.076 6.17155L14.3831 6.74618L10.3359 8.07109ZM10.2684 8.04818L10.7966 7.037L13.0315 6.141L10.2684 8.04818ZM10.7966 6.99182L11.0486 6.20273L12.8902 6.141L10.7966 6.99118V6.99182ZM11.0339 6.141L11.6277 5.50527L12.9055 6.07991L11.0339 6.141ZM11.6652 5.46709L12.5561 5.03055L13.7079 6.37836L11.6652 5.46709ZM12.6828 5.084L14.0121 5.66627L13.7741 6.386L12.6828 5.084ZM13.8187 6.40891L14.0637 5.67391L14.3608 6.68509L13.8187 6.40891ZM12.586 5H13.559L14.0408 5.53582C14.0452 5.54099 14.0478 5.54751 14.0482 5.55434C14.0485 5.56116 14.0465 5.5679 14.0425 5.57347C14.0386 5.57904 14.0329 5.58313 14.0263 5.58507C14.0198 5.58701 14.0128 5.5867 14.0064 5.58418L12.586 5ZM14.1235 5.61282L16.1026 6.16518C16.1126 6.16759 16.1215 6.17329 16.1278 6.18137C16.1342 6.18945 16.1377 6.19944 16.1377 6.20973C16.1377 6.22001 16.1342 6.23 16.1278 6.23808C16.1215 6.24616 16.1126 6.25187 16.1026 6.25427L14.4207 6.71564L14.1235 5.61282Z" fill="white"/>
</g>
<defs>
<clipPath id="clip0_1265_20928">
<rect width="24" height="24" fill="white"/>
</clipPath>
</defs>
</svg>