<svg viewBox="0 0 24 24" fill="none" xmlns="http://www.w3.org/2000/svg">
<g clip-path="url(#clip0_1265_20922)">
<path d="M12 24C18.6274 24 24 18.6274 24 12C24 5.37258 18.6274 0 12 0C5.37258 0 0 5.37258 0 12C0 18.6274 5.37258 24 12 24Z" fill="#3D58B0"/>
<path d="M12.0006 5C8.13992 5 5 8.13992 5 12.0006C5 15.8612 8.13992 19 12.0006 19C15.8612 19 19 15.8607 19 12.0006C19.0006 8.13992 15.8607 5 12.0006 5ZM12.0006 5.95319C12.795 5.95219 13.5818 6.10793 14.3159 6.4115C15.05 6.71506 15.7171 7.16048 16.2788 7.72224C16.8405 8.284 17.2858 8.95106 17.5893 9.68521C17.8928 10.4194 18.0485 11.2062 18.0474 12.0006C18.0484 12.7949 17.8927 13.5817 17.5891 14.3158C17.2856 15.0499 16.8402 15.7169 16.2786 16.2786C15.7169 16.8402 15.0499 17.2856 14.3158 17.5891C13.5817 17.8927 12.7949 18.0484 12.0006 18.0474C11.2062 18.0485 10.4194 17.8928 9.68521 17.5893C8.95106 17.2858 8.284 16.8405 7.72224 16.2788C7.16048 15.7171 6.71506 15.05 6.4115 14.3159C6.10793 13.5818 5.95219 12.795 5.95319 12.0006C5.95219 11.2061 6.10793 10.4193 6.41149 9.68517C6.71504 8.95101 7.16045 8.28395 7.7222 7.7222C8.28395 7.16045 8.95101 6.71504 9.68517 6.41149C10.4193 6.10793 11.2061 5.95219 12.0006 5.95319Z" fill="white"/>
<path d="M9.39978 9.41528V14.5842H14.6009V9.41528H9.39978ZM10.2467 10.2622H13.7534V13.7374H10.2473V10.2622H10.2467Z" fill="white"/>
</g>
<defs>
<clipPath id="clip0_1265_20922">
<rect width="24" height="24" fill="white"/>
</clipPath>
</defs>
</svg>