<svg viewBox="0 0 26 26" fill="none" xmlns="http://www.w3.org/2000/svg">
<path opacity="0.53" d="M24.4844 13.666C24.4844 16.6855 23.2387 19.5813 21.0215 21.7164C18.8042 23.8515 15.7969 25.051 12.6613 25.051C9.52556 25.051 6.51829 23.8515 4.30102 21.7164C2.08375 19.5813 0.838101 16.6855 0.838101 13.666C0.838101 10.6465 2.08375 7.75066 4.30102 5.61556C6.51829 3.48046 9.52556 2.28097 12.6613 2.28097C15.7969 2.28097 18.8042 3.48046 21.0215 5.61556C23.2387 7.75066 24.4844 10.6465 24.4844 13.666Z" fill="black"/>
<path d="M24.9339 12.6606C24.9339 15.9157 23.6409 19.0375 21.3392 21.3392C19.0375 23.6408 15.9157 24.9339 12.6607 24.9339C9.4056 24.9339 6.28385 23.6408 3.98218 21.3391C1.6805 19.0375 0.387438 15.9157 0.387438 12.6606C0.387438 9.40557 1.6805 6.28383 3.98218 3.98215C6.28385 1.68046 9.4056 0.387386 12.6607 0.387375C15.9157 0.387375 19.0375 1.68044 21.3392 3.98213C23.6409 6.28381 24.9339 9.40557 24.9339 12.6606Z" fill="url(#paint0_linear_4868_17272)" stroke="#CDCDCD" stroke-width="0.753985" stroke-linecap="round" stroke-linejoin="round"/>
<path d="M23.9722 12.6606C23.9722 15.6606 22.7804 18.5377 20.6591 20.6591C18.5378 22.7804 15.6606 23.9721 12.6606 23.9721C9.66062 23.9721 6.78348 22.7804 4.66216 20.6591C2.54084 18.5377 1.3491 15.6606 1.3491 12.6606C1.3491 9.66059 2.54084 6.78346 4.66216 4.66213C6.78348 2.5408 9.66062 1.34905 12.6606 1.34904C15.6606 1.34904 18.5378 2.54079 20.6591 4.66212C22.7804 6.78345 23.9722 9.66058 23.9722 12.6606Z" fill="url(#paint1_radial_4868_17272)"/>
<path d="M12.6607 1.93901C12.639 1.93896 12.6176 1.94319 12.5975 1.95146C12.5775 1.95973 12.5593 1.97188 12.544 1.98721C12.5286 2.00253 12.5165 2.02074 12.5082 2.04077C12.4999 2.06081 12.4957 2.08228 12.4958 2.10396V4.00619C12.4957 4.02787 12.4999 4.04934 12.5082 4.06938C12.5165 4.08941 12.5286 4.10762 12.544 4.12295C12.5593 4.13827 12.5775 4.15042 12.5975 4.15869C12.6176 4.16696 12.639 4.1712 12.6607 4.17114C12.6824 4.17118 12.7038 4.16695 12.7239 4.15867C12.7439 4.15039 12.7621 4.13824 12.7774 4.12292C12.7927 4.10759 12.8049 4.08939 12.8131 4.06936C12.8214 4.04933 12.8256 4.02786 12.8256 4.00619V2.10392C12.8256 2.08225 12.8214 2.06078 12.8131 2.04076C12.8049 2.02073 12.7927 2.00253 12.7774 1.98721C12.7621 1.97188 12.7439 1.95974 12.7238 1.95147C12.7038 1.9432 12.6823 1.93896 12.6607 1.93901H12.6607ZM11.5818 2.00718C11.5707 2.00599 11.5594 2.00604 11.5483 2.00734C11.5267 2.00954 11.5058 2.01598 11.4867 2.02628C11.4677 2.03658 11.4508 2.05055 11.4372 2.06738C11.4235 2.08421 11.4133 2.10357 11.4072 2.12435C11.401 2.14513 11.399 2.16692 11.4013 2.18847L11.4845 2.9843C11.4867 3.00586 11.4931 3.02677 11.5034 3.04583C11.5137 3.0649 11.5277 3.08174 11.5445 3.09539C11.5614 3.10904 11.5807 3.11923 11.6015 3.12538C11.6223 3.13153 11.6441 3.13352 11.6656 3.13122C11.6872 3.12902 11.7081 3.12259 11.7272 3.11228C11.7462 3.10197 11.7631 3.088 11.7767 3.07117C11.7904 3.05433 11.8006 3.03497 11.8067 3.01418C11.8129 2.9934 11.8148 2.97161 11.8125 2.95005L11.7295 2.15427C11.7256 2.11647 11.7088 2.08116 11.6819 2.05435C11.655 2.02754 11.6196 2.01088 11.5818 2.00718H11.5818ZM13.7471 2.00797C13.7093 2.01164 13.6739 2.02829 13.647 2.05508C13.6201 2.08188 13.6032 2.11717 13.5993 2.15497L13.5157 2.95072C13.5134 2.97227 13.5153 2.99407 13.5215 3.01486C13.5276 3.03565 13.5378 3.05502 13.5514 3.07186C13.5651 3.08871 13.5819 3.10269 13.601 3.11301C13.62 3.12333 13.6409 3.12979 13.6625 3.13201C13.6841 3.13432 13.7058 3.13235 13.7266 3.12622C13.7474 3.12009 13.7668 3.10991 13.7836 3.09627C13.8004 3.08263 13.8144 3.06581 13.8247 3.04675C13.8351 3.0277 13.8415 3.00679 13.8437 2.98524L13.9274 2.18941C13.9297 2.16786 13.9277 2.14607 13.9216 2.12529C13.9155 2.1045 13.9053 2.08513 13.8916 2.0683C13.878 2.05146 13.8611 2.03748 13.8421 2.02717C13.823 2.01686 13.8021 2.01041 13.7806 2.0082C13.7694 2.00706 13.7582 2.007 13.7471 2.00801L13.7471 2.00797ZM10.4735 2.1679C10.449 2.16796 10.4248 2.1735 10.4027 2.1841C10.3807 2.1947 10.3612 2.21009 10.3458 2.22917C10.3305 2.24824 10.3195 2.27051 10.3139 2.29434C10.3082 2.31818 10.3079 2.34298 10.313 2.36694L10.707 4.22795C10.7114 4.24917 10.72 4.26929 10.7322 4.28717C10.7445 4.30506 10.7601 4.32035 10.7783 4.33216C10.7964 4.34398 10.8168 4.35209 10.8381 4.35603C10.8594 4.35998 10.8813 4.35967 10.9025 4.35513C10.9237 4.3507 10.9438 4.34211 10.9617 4.32988C10.9796 4.31764 10.9948 4.302 11.0067 4.28384C11.0185 4.26568 11.0266 4.24537 11.0305 4.22407C11.0345 4.20276 11.0342 4.18089 11.0297 4.1597L10.6357 2.29864C10.6279 2.26146 10.6075 2.22811 10.578 2.20426C10.5484 2.18041 10.5115 2.16752 10.4735 2.16778V2.1679ZM14.8553 2.16947C14.8174 2.16914 14.7804 2.18199 14.7508 2.20582C14.7213 2.22965 14.7008 2.26299 14.6931 2.30017L14.2977 4.16092C14.2932 4.18211 14.2929 4.20398 14.2968 4.2253C14.3007 4.24661 14.3088 4.26694 14.3206 4.28511C14.3324 4.30328 14.3477 4.31894 14.3656 4.3312C14.3835 4.34345 14.4036 4.35205 14.4248 4.3565C14.446 4.36105 14.4679 4.36138 14.4892 4.35745C14.5105 4.35352 14.5308 4.34543 14.549 4.33362C14.5672 4.32182 14.5828 4.30655 14.5951 4.28867C14.6073 4.2708 14.6159 4.25069 14.6204 4.22948L15.0157 2.3687C15.0209 2.34475 15.0206 2.31995 15.0149 2.29611C15.0093 2.27227 14.9984 2.25 14.983 2.23092C14.9676 2.21184 14.9482 2.19643 14.9261 2.18582C14.904 2.17521 14.8798 2.16966 14.8553 2.16959V2.16947ZM9.41581 2.46614C9.39381 2.46415 9.37164 2.46673 9.35069 2.47374C9.33007 2.48039 9.31096 2.49105 9.29447 2.5051C9.27797 2.51915 9.26442 2.53632 9.25458 2.55563C9.24474 2.57493 9.23881 2.59599 9.23713 2.61759C9.23545 2.6392 9.23805 2.66092 9.24479 2.68151L9.49201 3.44255C9.49867 3.46318 9.50933 3.48229 9.52339 3.49879C9.53745 3.51528 9.55462 3.52884 9.57394 3.53868C9.59325 3.54852 9.61432 3.55445 9.63593 3.55613C9.65754 3.5578 9.67926 3.5552 9.69986 3.54845C9.72049 3.5418 9.7396 3.53114 9.7561 3.51708C9.77259 3.50302 9.78615 3.48584 9.79598 3.46652C9.80582 3.44721 9.81175 3.42615 9.81342 3.40454C9.81509 3.38293 9.81248 3.3612 9.80573 3.3406L9.55846 2.57961C9.54852 2.54874 9.52967 2.5215 9.50428 2.50131C9.4789 2.48112 9.44812 2.46889 9.41581 2.46614ZM15.9071 2.46653C15.8747 2.46928 15.844 2.48152 15.8186 2.50171C15.7932 2.5219 15.7744 2.54913 15.7644 2.58L15.517 3.34095C15.5102 3.36155 15.5076 3.38327 15.5093 3.40488C15.511 3.42648 15.5169 3.44754 15.5267 3.46685C15.5366 3.48616 15.5501 3.50334 15.5666 3.5174C15.5831 3.53145 15.6022 3.54211 15.6228 3.54877C15.6434 3.55551 15.6652 3.55812 15.6868 3.55645C15.7084 3.55478 15.7294 3.54885 15.7487 3.53902C15.768 3.52919 15.7852 3.51564 15.7993 3.49915C15.8133 3.48266 15.824 3.46356 15.8307 3.44294L16.0781 2.68191C16.0848 2.66131 16.0874 2.63959 16.0858 2.61799C16.0841 2.59639 16.0782 2.57533 16.0683 2.55602C16.0585 2.53671 16.045 2.51953 16.0285 2.50547C16.012 2.49141 15.9929 2.48075 15.9723 2.47409C15.9512 2.46725 15.9291 2.46468 15.9071 2.46653ZM8.36985 2.84893C8.34778 2.84937 8.32602 2.85425 8.30587 2.86327C8.28606 2.87203 8.26817 2.88462 8.25323 2.90031C8.23829 2.916 8.2266 2.93449 8.21882 2.95471C8.21105 2.97493 8.20734 2.99649 8.20792 3.01815C8.2085 3.03981 8.21334 3.06114 8.22218 3.08092L8.99482 4.81922C9.00357 4.83904 9.01616 4.85693 9.03185 4.87187C9.04754 4.88682 9.06603 4.89851 9.08625 4.90629C9.10647 4.91406 9.12803 4.91777 9.14969 4.91719C9.17135 4.91661 9.19268 4.91176 9.21246 4.90291C9.23228 4.89416 9.25018 4.88158 9.26513 4.86589C9.28007 4.8502 9.29177 4.83171 9.29956 4.81149C9.30734 4.79127 9.31105 4.76971 9.31048 4.74805C9.30991 4.72638 9.30507 4.70505 9.29623 4.68527L8.52356 2.947C8.51046 2.91731 8.48888 2.89216 8.46154 2.87471C8.43419 2.85725 8.40229 2.84827 8.36985 2.84889V2.84893ZM16.9648 2.85473C16.9324 2.85411 16.9005 2.86306 16.8731 2.88047C16.8458 2.89788 16.8242 2.92297 16.811 2.9526L16.036 4.68985C16.0271 4.70962 16.0223 4.73095 16.0217 4.75261C16.0211 4.77427 16.0247 4.79583 16.0325 4.81607C16.0402 4.8363 16.0519 4.8548 16.0668 4.87051C16.0818 4.88622 16.0996 4.89883 16.1195 4.90761C16.1392 4.91648 16.1606 4.92135 16.1822 4.92195C16.2039 4.92256 16.2254 4.91887 16.2457 4.91112C16.2659 4.90337 16.2844 4.89169 16.3001 4.87677C16.3158 4.86185 16.3284 4.84397 16.3372 4.82416L17.1122 3.08699C17.1211 3.06722 17.126 3.04588 17.1266 3.02422C17.1272 3.00256 17.1235 2.98099 17.1157 2.96075C17.108 2.94051 17.0963 2.922 17.0814 2.90629C17.0664 2.89058 17.0486 2.87797 17.0287 2.86919C17.0086 2.86016 16.9869 2.85525 16.9648 2.85473ZM7.39901 3.36258C7.3662 3.36022 7.33345 3.36784 7.30505 3.38444C7.28626 3.39524 7.26979 3.40964 7.25658 3.42682C7.24337 3.444 7.23369 3.46362 7.22808 3.48455C7.22248 3.50549 7.22106 3.52732 7.22391 3.5488C7.22677 3.57028 7.23384 3.59099 7.24472 3.60973L7.64478 4.30271C7.65558 4.3215 7.66998 4.33797 7.68716 4.35118C7.70434 4.36439 7.72396 4.37408 7.74489 4.37968C7.76583 4.38529 7.78766 4.3867 7.80914 4.38385C7.83062 4.381 7.85133 4.37393 7.87007 4.36305C7.88886 4.35225 7.90533 4.33785 7.91854 4.32067C7.93175 4.30349 7.94144 4.28387 7.94704 4.26294C7.95265 4.24201 7.95406 4.22017 7.95121 4.19869C7.94836 4.17721 7.94129 4.1565 7.93041 4.13776L7.53038 3.44482C7.51692 3.42138 7.4979 3.40162 7.475 3.38728C7.45209 3.37293 7.42601 3.36445 7.39905 3.36258H7.39901ZM17.9223 3.36258C17.8954 3.36442 17.8693 3.37288 17.8464 3.38722C17.8235 3.40156 17.8045 3.42133 17.7911 3.44478L17.3909 4.13776C17.3801 4.15651 17.373 4.17722 17.3701 4.1987C17.3673 4.22019 17.3687 4.24202 17.3743 4.26296C17.3799 4.28389 17.3896 4.30351 17.4029 4.32068C17.4161 4.33786 17.4326 4.35226 17.4513 4.36305C17.4701 4.37393 17.4908 4.381 17.5123 4.38385C17.5338 4.3867 17.5556 4.38529 17.5765 4.37968C17.5975 4.37408 17.6171 4.36439 17.6343 4.35118C17.6514 4.33797 17.6658 4.3215 17.6766 4.30271L18.0767 3.60969C18.0876 3.59095 18.0946 3.57024 18.0975 3.54876C18.1004 3.52728 18.0989 3.50545 18.0933 3.48451C18.0877 3.46358 18.078 3.44396 18.0648 3.42678C18.0516 3.4096 18.0352 3.3952 18.0164 3.38441C17.9879 3.36791 17.9552 3.3603 17.9223 3.36258ZM6.45625 3.95056C6.4234 3.95174 6.39164 3.9627 6.36504 3.98202C6.34747 3.99471 6.33258 4.01074 6.32123 4.0292C6.30987 4.04766 6.30228 4.06818 6.29887 4.08958C6.29547 4.11098 6.29632 4.13285 6.30139 4.15392C6.30646 4.17499 6.31564 4.19485 6.32841 4.21236L7.4454 5.75214C7.45809 5.76971 7.47413 5.78459 7.49259 5.79595C7.51105 5.8073 7.53158 5.8149 7.55298 5.8183C7.57438 5.8217 7.59625 5.82085 7.61732 5.81578C7.63839 5.81071 7.65826 5.80154 7.67578 5.78878C7.69334 5.77609 7.70822 5.76006 7.71958 5.7416C7.73093 5.72315 7.73853 5.70263 7.74193 5.68123C7.74533 5.65984 7.74448 5.63798 7.73941 5.61691C7.73435 5.59584 7.72517 5.57599 7.71241 5.55847L6.59538 4.01869C6.57957 3.99679 6.55861 3.97912 6.53436 3.96725C6.5101 3.95537 6.48329 3.94965 6.45629 3.9506L6.45625 3.95056ZM18.8769 3.95894C18.8499 3.95795 18.8231 3.96363 18.7988 3.97547C18.7745 3.98732 18.7536 4.00496 18.7378 4.02684L17.6186 5.56513C17.6059 5.58263 17.5967 5.60248 17.5916 5.62355C17.5865 5.64461 17.5856 5.66647 17.589 5.68788C17.5923 5.70928 17.5999 5.72981 17.6112 5.74828C17.6226 5.76675 17.6375 5.78281 17.655 5.79551C17.6725 5.8083 17.6923 5.8175 17.7134 5.8226C17.7345 5.8277 17.7563 5.82859 17.7777 5.82522C17.7991 5.82185 17.8197 5.81428 17.8381 5.80296C17.8566 5.79164 17.8727 5.77678 17.8854 5.75923L19.0044 4.22098C19.0172 4.20348 19.0264 4.18363 19.0315 4.16257C19.0366 4.14151 19.0375 4.11964 19.0341 4.09824C19.0307 4.07684 19.0231 4.05631 19.0118 4.03784C19.0005 4.01937 18.9856 4.00331 18.9681 3.9906C18.9415 3.97118 18.9097 3.96015 18.8769 3.95894ZM5.61361 4.65725C5.59196 4.65608 5.5703 4.65922 5.54987 4.66648C5.52945 4.67375 5.51066 4.68499 5.49462 4.69957C5.47848 4.71403 5.46536 4.73154 5.45601 4.75108C5.44666 4.77063 5.44126 4.79183 5.44013 4.81347C5.43899 4.83511 5.44214 4.85676 5.44939 4.87718C5.45665 4.8976 5.46786 4.91638 5.48239 4.93245L6.01779 5.52721C6.03225 5.54334 6.04976 5.55646 6.06931 5.56581C6.08886 5.57516 6.11006 5.58056 6.1317 5.58169C6.15334 5.58282 6.17499 5.57967 6.19541 5.57241C6.21583 5.56515 6.23461 5.55393 6.25068 5.53939C6.26681 5.52493 6.27993 5.50742 6.28928 5.48787C6.29863 5.46832 6.30403 5.44711 6.30517 5.42547C6.3063 5.40383 6.30315 5.38217 6.2959 5.36175C6.28865 5.34133 6.27743 5.32254 6.2629 5.30647L5.72758 4.71175C5.71312 4.69561 5.69561 4.68248 5.67605 4.67313C5.6565 4.66377 5.63529 4.65838 5.61365 4.65725H5.61361ZM19.7089 4.65843C19.6652 4.66078 19.6242 4.68039 19.595 4.71297L19.0596 5.30756C19.0451 5.32363 19.0338 5.34242 19.0266 5.36284C19.0193 5.38327 19.0161 5.40492 19.0173 5.42657C19.0184 5.44822 19.0238 5.46943 19.0331 5.48899C19.0425 5.50854 19.0556 5.52606 19.0718 5.54053C19.0878 5.55507 19.1066 5.56629 19.127 5.57354C19.1475 5.5808 19.1691 5.58395 19.1908 5.58281C19.2124 5.58168 19.2336 5.57628 19.2532 5.56692C19.2727 5.55757 19.2902 5.54445 19.3047 5.52831L19.8401 4.93371C19.8547 4.91763 19.8659 4.89884 19.8731 4.87841C19.8804 4.85799 19.8835 4.83633 19.8824 4.81469C19.8813 4.79304 19.8759 4.77183 19.8665 4.75228C19.8572 4.73273 19.844 4.71521 19.8279 4.70074C19.8118 4.6862 19.7931 4.67497 19.7727 4.66771C19.7523 4.66045 19.7306 4.65729 19.709 4.65843H19.7089ZM4.80599 5.43302C4.78435 5.43418 4.76315 5.4396 4.74361 5.44896C4.72407 5.45832 4.70656 5.47143 4.69209 5.48756C4.67755 5.50363 4.66633 5.52242 4.65908 5.54284C4.65182 5.56326 4.64867 5.58492 4.64981 5.60656C4.65094 5.6282 4.65634 5.64941 4.6657 5.66896C4.67505 5.68851 4.68817 5.70602 4.70431 5.72048L6.11813 6.99317C6.1342 7.0077 6.15299 7.01892 6.17341 7.02617C6.19382 7.03342 6.21547 7.03657 6.23711 7.03544C6.25875 7.0343 6.27995 7.0289 6.2995 7.01955C6.31905 7.0102 6.33655 6.99708 6.35102 6.98095C6.36556 6.96488 6.37678 6.9461 6.38403 6.92568C6.39129 6.90526 6.39445 6.88361 6.39332 6.86197C6.39218 6.84033 6.38679 6.81913 6.37744 6.79958C6.36809 6.78003 6.35497 6.76253 6.33883 6.74806L4.92498 5.47537C4.9089 5.46082 4.89011 5.44959 4.86969 5.44233C4.84926 5.43507 4.8276 5.43192 4.80595 5.43306L4.80599 5.43302ZM20.5205 5.43862C20.4988 5.43743 20.4772 5.44055 20.4567 5.4478C20.4363 5.45504 20.4175 5.46626 20.4014 5.48082L18.9868 6.75253C18.9706 6.76698 18.9575 6.78447 18.9481 6.80401C18.9387 6.82355 18.9333 6.84475 18.9322 6.86638C18.931 6.88802 18.9341 6.90968 18.9414 6.9301C18.9486 6.95053 18.9598 6.96933 18.9743 6.98542C18.9888 7.00156 19.0063 7.0147 19.0258 7.02406C19.0454 7.03343 19.0666 7.03884 19.0882 7.03999C19.1099 7.04114 19.1315 7.03801 19.152 7.03077C19.1724 7.02352 19.1912 7.01232 19.2073 6.9978L20.622 5.72609C20.6381 5.71163 20.6513 5.69413 20.6606 5.67459C20.67 5.65505 20.6754 5.63385 20.6766 5.61222C20.6777 5.59058 20.6746 5.56892 20.6673 5.5485C20.6601 5.52808 20.6489 5.50928 20.6344 5.4932C20.6199 5.47705 20.6024 5.46391 20.5829 5.45454C20.5633 5.44518 20.5421 5.43977 20.5205 5.43862ZM4.13436 6.29667C4.10736 6.29569 4.08054 6.30138 4.05628 6.31325C4.03201 6.32511 4.01104 6.34278 3.99523 6.36468C3.98245 6.38219 3.97325 6.40205 3.96816 6.42312C3.96308 6.44419 3.96221 6.46606 3.9656 6.48746C3.969 6.50887 3.97659 6.5294 3.98794 6.54786C3.99929 6.56633 4.01418 6.58237 4.03175 6.59506L4.67908 7.06534C4.69658 7.07813 4.71643 7.08733 4.73749 7.09242C4.75856 7.09751 4.78042 7.09839 4.80182 7.095C4.82323 7.09162 4.84375 7.08404 4.86222 7.07269C4.88068 7.06135 4.89673 7.04647 4.90942 7.02891C4.9222 7.0114 4.93139 6.99155 4.93648 6.97048C4.94156 6.94942 4.94244 6.92755 4.93905 6.90615C4.93567 6.88474 4.92809 6.86422 4.91675 6.84575C4.90541 6.82728 4.89054 6.81123 4.87298 6.79853L4.22561 6.32821C4.19902 6.30882 4.16724 6.29783 4.13436 6.29667ZM21.1914 6.30266C21.1586 6.30383 21.1268 6.31478 21.1002 6.33412L20.4526 6.80401C20.435 6.8167 20.4201 6.83274 20.4088 6.8512C20.3974 6.86966 20.3898 6.89018 20.3864 6.91159C20.383 6.93299 20.3839 6.95486 20.3889 6.97593C20.394 6.997 20.4032 7.01687 20.4159 7.03439C20.4286 7.05196 20.4446 7.06685 20.4631 7.07821C20.4816 7.08956 20.5021 7.09716 20.5235 7.10056C20.5449 7.10397 20.5667 7.10311 20.5878 7.09804C20.6089 7.09297 20.6287 7.08379 20.6463 7.07102L21.2939 6.6011C21.3115 6.58841 21.3264 6.57237 21.3377 6.55392C21.3491 6.53546 21.3567 6.51495 21.3601 6.49355C21.3635 6.47215 21.3626 6.45029 21.3575 6.42923C21.3525 6.40816 21.3433 6.38831 21.3305 6.3708C21.3147 6.34889 21.2938 6.33121 21.2695 6.31933C21.2453 6.30745 21.2184 6.30172 21.1914 6.30266ZM3.50677 7.21783C3.47982 7.21967 3.45373 7.22813 3.43084 7.24247C3.40794 7.25681 3.38894 7.27658 3.37552 7.30003C3.36464 7.31877 3.35757 7.33948 3.35472 7.36096C3.35186 7.38244 3.35328 7.40428 3.35888 7.42521C3.36449 7.44614 3.37418 7.46576 3.38738 7.48294C3.40059 7.50012 3.41707 7.51452 3.43585 7.52532L5.08326 8.47646C5.10201 8.48733 5.12271 8.4944 5.14419 8.49726C5.16567 8.50011 5.18751 8.4987 5.20844 8.49309C5.22937 8.48748 5.24899 8.4778 5.26617 8.46459C5.28335 8.45138 5.29775 8.43491 5.30855 8.41612C5.31943 8.39738 5.3265 8.37667 5.32935 8.35519C5.33221 8.33371 5.33079 8.31187 5.32518 8.29094C5.31958 8.27001 5.30989 8.25039 5.29668 8.23321C5.28347 8.21603 5.267 8.20163 5.24821 8.19083L3.6008 7.2397C3.57234 7.22318 3.53959 7.21557 3.50677 7.21783ZM21.8146 7.21783C21.7818 7.21547 21.749 7.2231 21.7206 7.2397L20.0732 8.19083C20.0545 8.20163 20.038 8.21603 20.0248 8.23321C20.0116 8.25039 20.0019 8.27001 19.9963 8.29094C19.9907 8.31187 19.9893 8.33371 19.9921 8.35519C19.995 8.37667 20.002 8.39738 20.0129 8.41612C20.0237 8.43491 20.0381 8.45138 20.0553 8.46459C20.0725 8.4778 20.0921 8.48748 20.113 8.49309C20.134 8.4987 20.1558 8.50011 20.1773 8.49726C20.1987 8.4944 20.2195 8.48733 20.2382 8.47646L21.8856 7.52536C21.9044 7.51456 21.9209 7.50016 21.9341 7.48298C21.9473 7.4658 21.957 7.44618 21.9626 7.42525C21.9682 7.40432 21.9696 7.38248 21.9668 7.361C21.9639 7.33952 21.9569 7.31881 21.946 7.30007C21.9325 7.27664 21.9135 7.25688 21.8906 7.24255C21.8677 7.22821 21.8416 7.21974 21.8146 7.21787V7.21783ZM3.03218 8.19973C2.99975 8.19902 2.96784 8.20793 2.94047 8.22534C2.9131 8.24275 2.8915 8.26788 2.8784 8.29756C2.86953 8.31733 2.86465 8.33866 2.86404 8.36032C2.86343 8.38198 2.86711 8.40355 2.87486 8.42379C2.88261 8.44403 2.89428 8.46253 2.9092 8.47825C2.92412 8.49396 2.942 8.50658 2.96181 8.51536L3.69264 8.84134C3.71241 8.85021 3.73374 8.85509 3.7554 8.8557C3.77707 8.85631 3.79864 8.85263 3.81887 8.84488C3.83911 8.83713 3.85762 8.82546 3.87333 8.81054C3.88905 8.79562 3.90166 8.77774 3.91044 8.75793C3.91932 8.73815 3.92419 8.71682 3.9248 8.69516C3.9254 8.67349 3.92172 8.65192 3.91397 8.63169C3.90622 8.61145 3.89454 8.59294 3.87961 8.57723C3.86469 8.56152 3.8468 8.54891 3.82699 8.54012L3.0962 8.21415C3.07604 8.2051 3.05427 8.20021 3.03218 8.19977V8.19973ZM22.2924 8.20654C22.2703 8.20699 22.2485 8.21188 22.2283 8.22092L21.4973 8.54635C21.4775 8.55512 21.4596 8.56771 21.4447 8.58341C21.4297 8.59911 21.418 8.61761 21.4103 8.63784C21.4025 8.65807 21.3988 8.67963 21.3994 8.7013C21.4 8.72296 21.4048 8.7443 21.4137 8.76408C21.4225 8.7839 21.4351 8.80179 21.4508 8.81673C21.4665 8.83167 21.485 8.84336 21.5052 8.85112C21.5255 8.85889 21.547 8.86259 21.5687 8.862C21.5904 8.86141 21.6117 8.85655 21.6315 8.84769L22.3625 8.52222C22.3823 8.51345 22.4002 8.50085 22.4151 8.48515C22.43 8.46944 22.4417 8.45095 22.4495 8.43072C22.4572 8.41049 22.4609 8.38892 22.4603 8.36726C22.4598 8.3456 22.4549 8.32427 22.446 8.30449C22.4329 8.27484 22.4113 8.24972 22.384 8.23229C22.3567 8.21487 22.3248 8.20591 22.2924 8.20654ZM2.60927 9.22601C2.57697 9.22873 2.54618 9.24094 2.52079 9.2611C2.49541 9.28126 2.47654 9.30847 2.46658 9.33932C2.45982 9.35991 2.45719 9.38163 2.45885 9.40323C2.4605 9.42484 2.46641 9.4459 2.47623 9.46522C2.48605 9.48453 2.49958 9.50172 2.51606 9.51579C2.53254 9.52986 2.55163 9.54054 2.57225 9.54721L4.38092 10.1366C4.40151 10.1433 4.42324 10.146 4.44485 10.1443C4.46646 10.1426 4.48753 10.1367 4.50685 10.1269C4.52617 10.1171 4.54336 10.1035 4.55743 10.0871C4.5715 10.0706 4.58218 10.0515 4.58885 10.0309C4.59561 10.0103 4.59823 9.98854 4.59657 9.96693C4.59491 9.94533 4.589 9.92426 4.57918 9.90495C4.56936 9.88563 4.55582 9.86844 4.53934 9.85437C4.52286 9.84031 4.50376 9.82963 4.48314 9.82296L2.67447 9.23357C2.65346 9.2267 2.63129 9.22411 2.60927 9.22597V9.22601ZM22.7145 9.23306C22.6925 9.23107 22.6703 9.23366 22.6494 9.24067L20.8403 9.82872C20.8197 9.83538 20.8005 9.84604 20.7841 9.8601C20.7676 9.87417 20.754 9.89135 20.7442 9.91066C20.7343 9.92997 20.7284 9.95104 20.7268 9.97264C20.7251 9.99425 20.7277 10.016 20.7344 10.0366C20.7411 10.0572 20.7518 10.0763 20.7658 10.0928C20.7799 10.1093 20.7971 10.1228 20.8164 10.1326C20.8357 10.1425 20.8568 10.1484 20.8784 10.1501C20.9 10.1517 20.9217 10.1491 20.9423 10.1424L22.7513 9.55434C22.772 9.54769 22.7911 9.53703 22.8076 9.52297C22.8241 9.50891 22.8376 9.49173 22.8475 9.47242C22.8573 9.4531 22.8632 9.43204 22.8649 9.41043C22.8666 9.38882 22.864 9.36709 22.8572 9.34649C22.8473 9.31562 22.8284 9.28838 22.803 9.26819C22.7776 9.24801 22.7468 9.23577 22.7145 9.23303V9.23306ZM2.34578 10.3032C2.30778 10.3029 2.27085 10.3158 2.24125 10.3396C2.21166 10.3634 2.19122 10.3968 2.18342 10.434C2.17887 10.4552 2.17855 10.477 2.18248 10.4984C2.18641 10.5197 2.19451 10.54 2.20632 10.5582C2.21812 10.5763 2.2334 10.592 2.25128 10.6043C2.26915 10.6165 2.28927 10.6251 2.31048 10.6296L3.09319 10.7959C3.11437 10.8005 3.13625 10.8008 3.15756 10.7969C3.17888 10.7929 3.1992 10.7848 3.21738 10.773C3.23555 10.7612 3.25121 10.7459 3.26346 10.7281C3.27572 10.7102 3.28432 10.6901 3.28877 10.6689C3.29332 10.6477 3.29364 10.6258 3.28972 10.6045C3.28579 10.5832 3.27769 10.5629 3.26589 10.5447C3.25409 10.5265 3.23881 10.5108 3.22094 10.4986C3.20307 10.4863 3.18296 10.4777 3.16175 10.4733L2.37909 10.3069C2.36814 10.3046 2.35698 10.3034 2.34578 10.3034V10.3032ZM22.9759 10.3048C22.9648 10.3051 22.9537 10.3062 22.9427 10.3083L22.16 10.4746C22.1388 10.4791 22.1187 10.4877 22.1008 10.4999C22.0829 10.5122 22.0677 10.5278 22.0559 10.546C22.0441 10.5641 22.036 10.5845 22.032 10.6058C22.0281 10.6271 22.0284 10.6489 22.033 10.6701C22.0374 10.6913 22.046 10.7114 22.0583 10.7293C22.0705 10.7472 22.0862 10.7625 22.1043 10.7743C22.1225 10.7861 22.1428 10.7942 22.1642 10.7982C22.1855 10.8021 22.2074 10.8018 22.2285 10.7973L23.0112 10.631C23.0324 10.6265 23.0525 10.6179 23.0704 10.6057C23.0883 10.5934 23.1036 10.5777 23.1154 10.5596C23.1272 10.5414 23.1353 10.5211 23.1392 10.4998C23.1432 10.4785 23.1428 10.4566 23.1383 10.4354C23.1305 10.3982 23.11 10.3649 23.0805 10.341C23.0509 10.3172 23.0139 10.3044 22.9759 10.3046V10.3048ZM2.14632 11.3868C2.10852 11.3905 2.07314 11.4071 2.0462 11.4339C2.01925 11.4606 2.0024 11.4959 1.99849 11.5336C1.99616 11.5552 1.9981 11.577 2.00422 11.5978C2.01033 11.6186 2.02049 11.638 2.03412 11.6548C2.04775 11.6717 2.06457 11.6857 2.08362 11.696C2.10268 11.7063 2.12358 11.7128 2.14514 11.7151L4.03684 11.915C4.05839 11.9174 4.08019 11.9154 4.10099 11.9093C4.12179 11.9032 4.14117 11.893 4.15803 11.8794C4.17489 11.8658 4.18888 11.8489 4.19922 11.8299C4.20955 11.8108 4.21602 11.7899 4.21824 11.7683C4.22057 11.7468 4.21862 11.725 4.2125 11.7042C4.20638 11.6834 4.19621 11.664 4.18257 11.6472C4.16894 11.6303 4.15211 11.6163 4.13305 11.606C4.11399 11.5957 4.09308 11.5892 4.07151 11.587L2.17978 11.387C2.16866 11.3858 2.15745 11.3858 2.14632 11.3868ZM23.1768 11.4011C23.1656 11.3999 23.1544 11.3999 23.1432 11.4012L21.2513 11.5986C21.2298 11.6008 21.2088 11.6073 21.1898 11.6176C21.1707 11.6279 21.1539 11.6419 21.1402 11.6587C21.1266 11.6755 21.1164 11.6949 21.1102 11.7157C21.1041 11.7364 21.1021 11.7582 21.1044 11.7798C21.1066 11.8013 21.113 11.8223 21.1233 11.8413C21.1336 11.8604 21.1476 11.8772 21.1644 11.8909C21.1813 11.9045 21.2006 11.9147 21.2214 11.9209C21.2422 11.927 21.264 11.929 21.2856 11.9267L23.1775 11.7292C23.199 11.727 23.22 11.7206 23.239 11.7103C23.2581 11.7 23.2749 11.686 23.2886 11.6692C23.3022 11.6524 23.3124 11.633 23.3186 11.6122C23.3247 11.5914 23.3267 11.5697 23.3244 11.5481C23.3206 11.5103 23.3038 11.475 23.2769 11.4482C23.2499 11.4214 23.2146 11.4047 23.1768 11.401V11.4011ZM2.11431 12.496C2.09263 12.496 2.07116 12.5002 2.05112 12.5085C2.03109 12.5168 2.01288 12.5289 1.99756 12.5442C1.98223 12.5596 1.97008 12.5778 1.96181 12.5978C1.95354 12.6178 1.94931 12.6393 1.94936 12.661C1.94932 12.6826 1.95356 12.7041 1.96183 12.7241C1.97011 12.7442 1.98226 12.7624 1.99758 12.7777C2.01291 12.793 2.03111 12.8051 2.05114 12.8134C2.07117 12.8217 2.09264 12.8259 2.11431 12.8258H2.91448C2.93616 12.8259 2.95762 12.8217 2.97765 12.8134C2.99768 12.8051 3.01588 12.793 3.03121 12.7777C3.04654 12.7623 3.05868 12.7441 3.06696 12.7241C3.07524 12.7041 3.07947 12.6826 3.07943 12.6609C3.07948 12.6393 3.07524 12.6178 3.06697 12.5978C3.0587 12.5777 3.04655 12.5595 3.03122 12.5442C3.0159 12.5289 2.9977 12.5167 2.97766 12.5085C2.95763 12.5002 2.93616 12.4959 2.91448 12.496L2.11431 12.496ZM22.4069 12.496C22.3852 12.496 22.3637 12.5002 22.3437 12.5085C22.3237 12.5168 22.3055 12.5289 22.2901 12.5442C22.2748 12.5596 22.2627 12.5778 22.2544 12.5978C22.2461 12.6178 22.2419 12.6393 22.2419 12.661C22.2419 12.6826 22.2461 12.7041 22.2544 12.7241C22.2627 12.7442 22.2748 12.7624 22.2902 12.7777C22.3055 12.793 22.3237 12.8051 22.3437 12.8134C22.3638 12.8217 22.3852 12.8259 22.4069 12.8258H23.2071C23.2287 12.8259 23.2502 12.8217 23.2702 12.8134C23.2903 12.8051 23.3085 12.793 23.3238 12.7777C23.3391 12.7623 23.3513 12.7441 23.3595 12.7241C23.3678 12.7041 23.372 12.6826 23.372 12.6609C23.372 12.6393 23.3678 12.6178 23.3595 12.5978C23.3513 12.5777 23.3391 12.5595 23.3238 12.5442C23.3085 12.5289 23.2903 12.5167 23.2702 12.5084C23.2502 12.5002 23.2287 12.4959 23.207 12.496L22.4069 12.496ZM4.06928 13.395C4.05816 13.3938 4.04693 13.3939 4.03582 13.3952L2.14381 13.5926C2.12225 13.5948 2.10134 13.6012 2.08228 13.6115C2.06321 13.6218 2.04637 13.6358 2.03272 13.6526C2.01907 13.6695 2.00887 13.6888 2.00272 13.7096C1.99657 13.7304 1.99459 13.7522 1.99688 13.7737C1.99908 13.7953 2.00552 13.8162 2.01582 13.8353C2.02613 13.8543 2.0401 13.8712 2.05693 13.8848C2.07376 13.8985 2.09312 13.9087 2.1139 13.9148C2.13468 13.921 2.15647 13.923 2.17801 13.9207L4.07003 13.7232C4.09158 13.721 4.1125 13.7146 4.13156 13.7043C4.15062 13.6939 4.16747 13.68 4.18112 13.6631C4.19477 13.6463 4.20496 13.627 4.21111 13.6062C4.21726 13.5854 4.21925 13.5636 4.21695 13.5421C4.21309 13.5043 4.19627 13.469 4.16934 13.4422C4.14242 13.4154 4.10705 13.3987 4.06924 13.395H4.06928ZM21.251 13.4067C21.2132 13.4103 21.1778 13.427 21.1509 13.4537C21.1239 13.4805 21.1071 13.5158 21.1032 13.5535C21.1008 13.5751 21.1028 13.5969 21.1089 13.6177C21.115 13.6385 21.1252 13.6578 21.1388 13.6747C21.1524 13.6915 21.1692 13.7055 21.1883 13.7159C21.2073 13.7262 21.2282 13.7327 21.2498 13.7349L23.1415 13.9349C23.1631 13.9372 23.1849 13.9353 23.2057 13.9291C23.2265 13.923 23.2458 13.9129 23.2627 13.8992C23.2795 13.8856 23.2935 13.8688 23.3039 13.8497C23.3142 13.8307 23.3207 13.8098 23.3229 13.7882C23.3252 13.7666 23.3233 13.7449 23.3171 13.7241C23.311 13.7033 23.3008 13.6839 23.2872 13.6671C23.2736 13.6502 23.2568 13.6362 23.2377 13.6259C23.2187 13.6156 23.1978 13.6091 23.1762 13.6069L21.2845 13.4068C21.2734 13.4057 21.2622 13.4056 21.251 13.4067ZM3.12621 14.5209C3.11502 14.5209 3.10387 14.5221 3.09291 14.5244L2.31021 14.6907C2.289 14.6951 2.26888 14.7037 2.251 14.716C2.23313 14.7282 2.21785 14.7439 2.20604 14.7621C2.19424 14.7802 2.18614 14.8006 2.18221 14.8219C2.17828 14.8432 2.1786 14.8651 2.18315 14.8863C2.1876 14.9075 2.1962 14.9276 2.20845 14.9455C2.22071 14.9633 2.23637 14.9786 2.25454 14.9904C2.27272 15.0022 2.29304 15.0103 2.31435 15.0143C2.33567 15.0182 2.35755 15.0179 2.37873 15.0133L3.16148 14.8471C3.18268 14.8427 3.2028 14.834 3.22067 14.8218C3.23854 14.8095 3.25381 14.7939 3.26562 14.7757C3.27742 14.7575 3.28552 14.7372 3.28944 14.7159C3.29337 14.6946 3.29305 14.6727 3.2885 14.6515C3.2807 14.6143 3.26028 14.581 3.2307 14.5572C3.20112 14.5333 3.1642 14.5205 3.12621 14.5207V14.5209ZM22.1949 14.5224C22.1569 14.5221 22.12 14.5349 22.0904 14.5588C22.0609 14.5826 22.0404 14.6159 22.0326 14.6531C22.0281 14.6743 22.0278 14.6962 22.0317 14.7175C22.0356 14.7388 22.0437 14.7591 22.0555 14.7773C22.0673 14.7955 22.0825 14.8111 22.1004 14.8234C22.1183 14.8356 22.1384 14.8443 22.1596 14.8487L22.9423 15.015C22.9635 15.0196 22.9854 15.0199 23.0067 15.016C23.028 15.0121 23.0483 15.004 23.0665 14.9922C23.0847 14.9804 23.1004 14.9652 23.1126 14.9473C23.1249 14.9294 23.1335 14.9093 23.138 14.8881C23.1425 14.8669 23.1428 14.845 23.1389 14.8237C23.135 14.8024 23.1269 14.782 23.1151 14.7638C23.1033 14.7457 23.088 14.73 23.0701 14.7177C23.0522 14.7055 23.0321 14.6969 23.0109 14.6924L22.2282 14.5261C22.2173 14.5237 22.2061 14.5226 22.1949 14.5225V14.5224ZM4.44424 15.172C4.42224 15.17 4.40006 15.1726 4.37912 15.1796L2.57001 15.7677C2.54939 15.7743 2.53029 15.785 2.5138 15.799C2.49731 15.8131 2.48377 15.8303 2.47393 15.8496C2.4641 15.8689 2.45818 15.8899 2.4565 15.9115C2.45483 15.9332 2.45744 15.9549 2.46419 15.9755C2.47084 15.9961 2.4815 16.0152 2.49556 16.0317C2.50961 16.0482 2.52679 16.0617 2.5461 16.0716C2.56541 16.0814 2.58647 16.0873 2.60808 16.089C2.62968 16.0907 2.6514 16.0881 2.672 16.0813L4.48103 15.4932C4.50165 15.4866 4.52076 15.4759 4.53725 15.4619C4.55374 15.4478 4.5673 15.4306 4.57714 15.4113C4.58698 15.392 4.59291 15.371 4.59459 15.3493C4.59627 15.3277 4.59367 15.306 4.58693 15.2854C4.57697 15.2546 4.55811 15.2273 4.53272 15.2071C4.50733 15.1869 4.47655 15.1747 4.44424 15.172V15.172ZM20.8753 15.1778C20.843 15.1805 20.8122 15.1928 20.7868 15.2129C20.7614 15.2331 20.7425 15.2603 20.7326 15.2911C20.7258 15.3117 20.7232 15.3335 20.7248 15.3551C20.7265 15.3767 20.7324 15.3977 20.7422 15.417C20.7521 15.4364 20.7656 15.4535 20.7821 15.4676C20.7986 15.4817 20.8177 15.4924 20.8383 15.499L22.6469 16.0884C22.6675 16.0951 22.6892 16.0978 22.7108 16.0961C22.7325 16.0945 22.7535 16.0886 22.7728 16.0787C22.7922 16.0689 22.8094 16.0554 22.8234 16.0389C22.8375 16.0224 22.8482 16.0033 22.8548 15.9827C22.8616 15.9621 22.8642 15.9404 22.8626 15.9188C22.8609 15.8971 22.855 15.8761 22.8452 15.8568C22.8354 15.8375 22.8218 15.8203 22.8053 15.8062C22.7888 15.7921 22.7698 15.7815 22.7491 15.7748L20.9405 15.1854C20.9195 15.1786 20.8973 15.176 20.8753 15.1778ZM3.75392 16.46C3.73184 16.4604 3.71006 16.4653 3.6899 16.4743L2.95884 16.7998C2.93903 16.8085 2.92114 16.8212 2.90622 16.8369C2.89129 16.8526 2.87961 16.8711 2.87185 16.8913C2.86409 16.9115 2.8604 16.9331 2.86099 16.9547C2.86158 16.9764 2.86645 16.9977 2.8753 17.0175C2.88408 17.0373 2.89667 17.0552 2.91238 17.0701C2.92808 17.0851 2.94658 17.0967 2.96681 17.1045C2.98704 17.1123 3.0086 17.116 3.03026 17.1154C3.05192 17.1148 3.07325 17.1099 3.09303 17.1011L3.82409 16.7756C3.8439 16.7669 3.86178 16.7543 3.87671 16.7386C3.89164 16.7229 3.90332 16.7044 3.91108 16.6841C3.91884 16.6639 3.92253 16.6423 3.92194 16.6207C3.92135 16.599 3.91648 16.5777 3.90762 16.5579C3.8945 16.5283 3.87291 16.5031 3.84555 16.4857C3.8182 16.4683 3.78631 16.4593 3.75388 16.46L3.75392 16.46ZM21.5648 16.4663C21.5323 16.4656 21.5004 16.4745 21.473 16.4919C21.4457 16.5093 21.424 16.5344 21.4109 16.5641C21.4021 16.5838 21.3972 16.6052 21.3966 16.6268C21.396 16.6485 21.3997 16.6701 21.4074 16.6903C21.4152 16.7105 21.4268 16.7291 21.4418 16.7448C21.4567 16.7605 21.4746 16.7731 21.4944 16.7819L22.2251 17.1078C22.2449 17.1167 22.2662 17.1216 22.2879 17.1222C22.3095 17.1228 22.3311 17.1191 22.3514 17.1114C22.3716 17.1036 22.3901 17.092 22.4058 17.077C22.4215 17.0621 22.4342 17.0442 22.4429 17.0244C22.4518 17.0046 22.4567 16.9833 22.4573 16.9616C22.4579 16.94 22.4542 16.9184 22.4464 16.8982C22.4387 16.8779 22.427 16.8594 22.4121 16.8437C22.3972 16.828 22.3793 16.8154 22.3595 16.8066L21.6288 16.4807C21.6086 16.4716 21.5868 16.4667 21.5648 16.4663ZM5.17722 16.8236C5.14439 16.8213 5.11161 16.8289 5.08319 16.8455L3.43582 17.7966C3.41703 17.8074 3.40055 17.8218 3.38735 17.839C3.37414 17.8562 3.36445 17.8758 3.35884 17.8967C3.35324 17.9177 3.35182 17.9395 3.35468 17.961C3.35753 17.9825 3.3646 18.0032 3.37548 18.0219C3.38627 18.0407 3.40067 18.0572 3.41785 18.0704C3.43503 18.0836 3.45464 18.0933 3.47557 18.0989C3.4965 18.1045 3.51833 18.1059 3.5398 18.103C3.56128 18.1002 3.58198 18.0931 3.60072 18.0823L5.24809 17.1312C5.26688 17.1204 5.28335 17.106 5.29656 17.0888C5.30976 17.0716 5.31945 17.052 5.32505 17.0311C5.33066 17.0101 5.33208 16.9883 5.32922 16.9668C5.32637 16.9453 5.31931 16.9246 5.30843 16.9059C5.29499 16.8824 5.27598 16.8627 5.25309 16.8483C5.2302 16.834 5.20413 16.8255 5.17718 16.8236H5.17722ZM20.1442 16.8236C20.1172 16.8255 20.0911 16.8339 20.0682 16.8483C20.0453 16.8626 20.0263 16.8824 20.0128 16.9058C20.0019 16.9246 19.9949 16.9453 19.992 16.9668C19.9892 16.9883 19.9906 17.0101 19.9962 17.031C20.0018 17.052 20.0115 17.0716 20.0247 17.0888C20.0379 17.106 20.0544 17.1204 20.0732 17.1312L21.7206 18.0823C21.7393 18.0931 21.76 18.1002 21.7815 18.1031C21.803 18.1059 21.8248 18.1045 21.8458 18.0989C21.8667 18.0933 21.8863 18.0836 21.9035 18.0704C21.9207 18.0572 21.9351 18.0407 21.9459 18.0219C21.9568 18.0032 21.9638 17.9825 21.9667 17.961C21.9696 17.9395 21.9681 17.9177 21.9625 17.8967C21.9569 17.8758 21.9472 17.8562 21.934 17.839C21.9208 17.8218 21.9044 17.8074 21.8856 17.7966L20.2381 16.8455C20.2097 16.829 20.177 16.8214 20.1442 16.8236ZM4.76634 18.2194C4.73344 18.2206 4.70165 18.2316 4.67505 18.251L4.0274 18.7209C4.00983 18.7335 3.99494 18.7496 3.98358 18.768C3.97223 18.7865 3.96463 18.807 3.96123 18.8284C3.95782 18.8498 3.95868 18.8717 3.96375 18.8928C3.96882 18.9138 3.978 18.9337 3.99076 18.9512C4.00345 18.9688 4.01948 18.9836 4.03794 18.995C4.05639 19.0064 4.07691 19.0139 4.09831 19.0173C4.1197 19.0208 4.14156 19.0199 4.16263 19.0148C4.1837 19.0098 4.20355 19.0006 4.22106 18.9878L4.86879 18.5179C4.88636 18.5052 4.90125 18.4892 4.9126 18.4707C4.92396 18.4523 4.93156 18.4318 4.93497 18.4104C4.93837 18.389 4.93752 18.3671 4.93246 18.346C4.9274 18.325 4.91822 18.3051 4.90546 18.2876C4.88964 18.2657 4.86867 18.248 4.8444 18.2361C4.82013 18.2242 4.79331 18.2185 4.7663 18.2194H4.76634ZM20.551 18.225C20.5241 18.224 20.4972 18.2297 20.473 18.2416C20.4487 18.2534 20.4277 18.2711 20.4119 18.293C20.3991 18.3105 20.3899 18.3304 20.3849 18.3514C20.3798 18.3725 20.3789 18.3944 20.3823 18.4158C20.3857 18.4372 20.3933 18.4577 20.4046 18.4762C20.416 18.4946 20.4309 18.5107 20.4484 18.5234L21.0958 18.9937C21.1133 19.0065 21.1331 19.0157 21.1542 19.0208C21.1753 19.0259 21.1971 19.0267 21.2185 19.0234C21.2399 19.02 21.2605 19.0124 21.2789 19.001C21.2974 18.9897 21.3134 18.9748 21.3261 18.9572C21.3389 18.9397 21.3481 18.9199 21.3531 18.8988C21.3582 18.8778 21.3591 18.8559 21.3557 18.8345C21.3523 18.8131 21.3448 18.7926 21.3334 18.7741C21.3221 18.7557 21.3072 18.7396 21.2897 18.7269L20.6423 18.2566C20.6157 18.2372 20.584 18.2261 20.551 18.225V18.225ZM6.23312 18.2819C6.21148 18.2807 6.18981 18.2839 6.16938 18.2911C6.14895 18.2983 6.13016 18.3096 6.11409 18.3241L4.69942 19.5958C4.68327 19.6103 4.67014 19.6278 4.66077 19.6473C4.65141 19.6669 4.646 19.6881 4.64485 19.7097C4.6437 19.7313 4.64683 19.753 4.65407 19.7734C4.66131 19.7938 4.67251 19.8126 4.68703 19.8287C4.70149 19.8449 4.71899 19.858 4.73853 19.8674C4.75807 19.8767 4.77927 19.8821 4.80091 19.8833C4.82254 19.8844 4.8442 19.8813 4.86462 19.8741C4.88505 19.8668 4.90384 19.8556 4.91992 19.8411L6.3346 18.5694C6.35074 18.5549 6.36388 18.5374 6.37324 18.5179C6.38261 18.4984 6.38802 18.4772 6.38917 18.4555C6.39032 18.4339 6.38718 18.4122 6.37994 18.3918C6.3727 18.3714 6.3615 18.3526 6.34698 18.3365C6.33254 18.3203 6.31504 18.3072 6.2955 18.2978C6.27596 18.2885 6.25476 18.2831 6.23312 18.2819ZM19.0842 18.2865C19.0405 18.2888 18.9995 18.3084 18.9703 18.341C18.9557 18.357 18.9445 18.3758 18.9373 18.3962C18.93 18.4167 18.9269 18.4383 18.928 18.46C18.9291 18.4816 18.9345 18.5028 18.9439 18.5224C18.9532 18.5419 18.9664 18.5594 18.9825 18.5739L20.3963 19.8466C20.4124 19.8611 20.4312 19.8723 20.4516 19.8796C20.472 19.8868 20.4937 19.89 20.5153 19.8888C20.537 19.8877 20.5582 19.8823 20.5777 19.873C20.5973 19.8636 20.6148 19.8505 20.6293 19.8344C20.6438 19.8183 20.655 19.7995 20.6622 19.7791C20.6695 19.7587 20.6726 19.737 20.6715 19.7154C20.6704 19.6937 20.665 19.6725 20.6556 19.653C20.6463 19.6334 20.6332 19.6159 20.617 19.6015L19.2032 18.3287C19.1871 18.3142 19.1683 18.303 19.1479 18.2957C19.1275 18.2885 19.1059 18.2853 19.0843 18.2865H19.0842ZM7.57528 19.4946C7.54828 19.4936 7.52145 19.4993 7.49717 19.5111C7.47289 19.5229 7.4519 19.5406 7.43607 19.5625L6.31705 21.1007C6.30426 21.1182 6.29505 21.1381 6.28995 21.1591C6.28485 21.1802 6.28396 21.2021 6.28733 21.2235C6.2907 21.2449 6.29827 21.2654 6.30959 21.2839C6.32092 21.3023 6.33578 21.3184 6.35333 21.3311C6.37082 21.3439 6.39067 21.3531 6.41173 21.3582C6.43279 21.3633 6.45465 21.3642 6.47605 21.3608C6.49746 21.3575 6.51799 21.3499 6.53646 21.3386C6.55494 21.3272 6.57099 21.3124 6.58371 21.2948L7.70277 19.7565C7.71556 19.7391 7.72477 19.7192 7.72987 19.6981C7.73497 19.6771 7.73586 19.6552 7.73249 19.6338C7.72912 19.6124 7.72155 19.5919 7.71023 19.5734C7.6989 19.5549 7.68404 19.5389 7.66649 19.5262C7.63994 19.5067 7.60816 19.4957 7.57528 19.4946ZM17.737 19.5015C17.7041 19.5026 17.6723 19.5136 17.6457 19.5329C17.6281 19.5456 17.6132 19.5617 17.6019 19.5801C17.5905 19.5986 17.5829 19.6191 17.5795 19.6405C17.5761 19.6619 17.577 19.6837 17.582 19.7048C17.5871 19.7259 17.5963 19.7457 17.609 19.7632L18.726 21.303C18.7387 21.3206 18.7547 21.3355 18.7732 21.3469C18.7916 21.3582 18.8121 21.3658 18.8335 21.3692C18.8549 21.3726 18.8768 21.3718 18.8979 21.3667C18.919 21.3616 18.9388 21.3525 18.9563 21.3397C18.9739 21.327 18.9888 21.311 19.0002 21.2925C19.0115 21.2741 19.0191 21.2536 19.0225 21.2321C19.0259 21.2107 19.0251 21.1889 19.02 21.1678C19.0149 21.1467 19.0058 21.1269 18.993 21.1094L17.876 19.5696C17.8602 19.5477 17.8393 19.53 17.815 19.5181C17.7907 19.5063 17.7639 19.5005 17.7369 19.5015H17.737ZM6.13071 19.7391C6.08699 19.7414 6.046 19.761 6.01673 19.7936L5.48133 20.3883C5.4668 20.4044 5.45558 20.4231 5.44832 20.4436C5.44107 20.464 5.43792 20.4856 5.43905 20.5073C5.44018 20.5289 5.44557 20.5501 5.45492 20.5697C5.46427 20.5892 5.47739 20.6067 5.49352 20.6212C5.50959 20.6357 5.52838 20.647 5.5488 20.6542C5.56922 20.6615 5.59087 20.6646 5.61251 20.6635C5.63415 20.6623 5.65535 20.6569 5.6749 20.6476C5.69444 20.6382 5.71195 20.6251 5.72641 20.6089L6.26188 20.0143C6.27642 19.9983 6.28763 19.9795 6.29488 19.9591C6.30214 19.9386 6.30529 19.917 6.30415 19.8953C6.30302 19.8737 6.29762 19.8525 6.28827 19.8329C6.27891 19.8134 6.26579 19.7959 6.24966 19.7814C6.2336 19.7668 6.21482 19.7556 6.1944 19.7484C6.17399 19.7411 6.15234 19.738 6.13071 19.7391V19.7391ZM19.1897 19.7399C19.1681 19.7387 19.1464 19.7418 19.126 19.7491C19.1056 19.7563 19.0869 19.7676 19.0708 19.7821C19.0547 19.7966 19.0416 19.8141 19.0322 19.8336C19.0229 19.8532 19.0175 19.8744 19.0163 19.896C19.0152 19.9177 19.0183 19.9393 19.0256 19.9597C19.0328 19.9802 19.044 19.9989 19.0586 20.015L19.5939 20.6098C19.6083 20.6259 19.6258 20.639 19.6454 20.6484C19.6649 20.6577 19.6861 20.6631 19.7078 20.6643C19.7294 20.6654 19.7511 20.6623 19.7715 20.655C19.7919 20.6478 19.8107 20.6365 19.8268 20.622C19.8429 20.6075 19.856 20.59 19.8654 20.5705C19.8747 20.5509 19.8801 20.5297 19.8813 20.5081C19.8824 20.4864 19.8793 20.4647 19.872 20.4443C19.8647 20.4239 19.8535 20.4051 19.839 20.389L19.3037 19.7944C19.2892 19.7782 19.2717 19.7651 19.2521 19.7557C19.2326 19.7463 19.2113 19.7409 19.1897 19.7398L19.1897 19.7399ZM9.13798 20.3995C9.10556 20.3988 9.07365 20.4077 9.04629 20.4251C9.01892 20.4425 8.99733 20.4676 8.98424 20.4973L8.20918 22.2345C8.20031 22.2543 8.19544 22.2756 8.19483 22.2973C8.19423 22.319 8.19791 22.3405 8.20567 22.3608C8.21342 22.381 8.2251 22.3995 8.24002 22.4152C8.25494 22.4309 8.27282 22.4435 8.29263 22.4523C8.3124 22.4612 8.33373 22.4661 8.35539 22.4667C8.37705 22.4673 8.39862 22.4636 8.41886 22.4558C8.4391 22.4481 8.4576 22.4364 8.47332 22.4215C8.48903 22.4066 8.50165 22.3887 8.51043 22.3689L9.28545 20.6317C9.29433 20.6119 9.29921 20.5906 9.29981 20.5689C9.30042 20.5472 9.29673 20.5257 9.28898 20.5054C9.28123 20.4852 9.26955 20.4667 9.25462 20.451C9.2397 20.4353 9.22181 20.4227 9.202 20.4139C9.18184 20.4048 9.16007 20.3999 9.13798 20.3995ZM16.173 20.4043C16.1509 20.4047 16.1291 20.4096 16.109 20.4186C16.0891 20.4273 16.0712 20.4399 16.0563 20.4556C16.0413 20.4713 16.0296 20.4898 16.0219 20.51C16.0141 20.5302 16.0104 20.5518 16.011 20.5735C16.0115 20.5951 16.0164 20.6165 16.0252 20.6363L16.7979 22.3745C16.8066 22.3943 16.8192 22.4122 16.8349 22.4272C16.8506 22.4421 16.8691 22.4538 16.8893 22.4616C16.9096 22.4694 16.9311 22.4731 16.9528 22.4725C16.9745 22.4719 16.9958 22.4671 17.0156 22.4582C17.0354 22.4495 17.0533 22.4369 17.0682 22.4212C17.0832 22.4055 17.0949 22.387 17.1026 22.3668C17.1104 22.3465 17.1141 22.325 17.1135 22.3033C17.113 22.2817 17.1081 22.2603 17.0993 22.2406L16.3266 20.5023C16.3135 20.4726 16.292 20.4475 16.2646 20.4301C16.2373 20.4126 16.2054 20.4037 16.173 20.4043ZM7.77608 20.9366C7.74912 20.9384 7.72304 20.9469 7.70014 20.9612C7.67724 20.9756 7.65824 20.9954 7.64482 21.0188L7.24476 21.7118C7.23388 21.7305 7.22681 21.7512 7.22395 21.7727C7.2211 21.7942 7.22252 21.816 7.22812 21.837C7.23373 21.8579 7.24341 21.8775 7.25662 21.8947C7.26983 21.9119 7.2863 21.9263 7.30509 21.9371C7.32383 21.948 7.34454 21.955 7.36602 21.9579C7.3875 21.9607 7.40934 21.9593 7.43027 21.9537C7.4512 21.9481 7.47082 21.9384 7.488 21.9252C7.50518 21.912 7.51958 21.8955 7.53038 21.8767L7.93049 21.1837C7.94136 21.165 7.94843 21.1443 7.95128 21.1228C7.95413 21.1013 7.95271 21.0795 7.9471 21.0585C7.94149 21.0376 7.9318 21.018 7.91859 21.0008C7.90538 20.9836 7.8889 20.9692 7.87011 20.9584C7.84165 20.9419 7.8089 20.9343 7.77608 20.9366ZM17.5453 20.9366C17.5125 20.9343 17.4798 20.9419 17.4514 20.9585C17.4326 20.9693 17.4161 20.9837 17.4029 21.0009C17.3897 21.018 17.38 21.0376 17.3744 21.0586C17.3688 21.0795 17.3674 21.1013 17.3702 21.1228C17.3731 21.1443 17.3802 21.165 17.391 21.1838L17.7911 21.8767C17.8019 21.8955 17.8163 21.912 17.8335 21.9252C17.8507 21.9384 17.8703 21.9481 17.8912 21.9537C17.9122 21.9593 17.934 21.9607 17.9555 21.9579C17.977 21.955 17.9977 21.948 18.0164 21.9371C18.0352 21.9263 18.0517 21.9119 18.0649 21.8947C18.0781 21.8775 18.0878 21.8579 18.0934 21.837C18.099 21.816 18.1004 21.7942 18.0975 21.7727C18.0947 21.7512 18.0876 21.7305 18.0767 21.7118L17.6767 21.0189C17.6632 20.9954 17.6442 20.9756 17.6213 20.9613C17.5984 20.947 17.5723 20.9385 17.5453 20.9366ZM10.8634 20.9615C10.8254 20.9611 10.7885 20.974 10.7589 20.9978C10.7293 21.0216 10.7089 21.0549 10.7011 21.0921L10.3057 22.9529C10.3012 22.9741 10.3009 22.996 10.3048 23.0173C10.3087 23.0386 10.3168 23.0589 10.3286 23.0771C10.3404 23.0953 10.3557 23.1109 10.3736 23.1232C10.3915 23.1354 10.4116 23.144 10.4328 23.1485C10.454 23.153 10.4759 23.1534 10.4972 23.1494C10.5185 23.1455 10.5388 23.1374 10.557 23.1256C10.5752 23.1138 10.5909 23.0985 10.6031 23.0806C10.6154 23.0628 10.624 23.0426 10.6284 23.0214L11.0238 21.1607C11.0289 21.1367 11.0286 21.1119 11.023 21.0881C11.0173 21.0642 11.0064 21.042 10.991 21.0229C10.9756 21.0038 10.9562 20.9884 10.9341 20.9778C10.912 20.9672 10.8879 20.9616 10.8634 20.9616V20.9615ZM14.4523 20.9626C14.4278 20.9627 14.4036 20.9682 14.3815 20.9788C14.3595 20.9894 14.34 21.0048 14.3247 21.0239C14.3093 21.043 14.2984 21.0652 14.2927 21.089C14.287 21.1129 14.2867 21.1376 14.2919 21.1616L14.6858 23.0226C14.6902 23.0439 14.6988 23.064 14.711 23.0819C14.7233 23.0998 14.7389 23.1151 14.7571 23.1269C14.7753 23.1387 14.7956 23.1468 14.8169 23.1508C14.8382 23.1547 14.8601 23.1544 14.8813 23.1499C14.9025 23.1454 14.9226 23.1368 14.9405 23.1246C14.9584 23.1124 14.9737 23.0967 14.9855 23.0785C14.9973 23.0604 15.0055 23.0401 15.0094 23.0187C15.0133 22.9974 15.013 22.9755 15.0085 22.9544L14.6145 21.0934C14.6067 21.0562 14.5863 21.0229 14.5567 20.999C14.5272 20.9752 14.4902 20.9623 14.4523 20.9626V20.9626ZM12.6607 21.1503C12.639 21.1503 12.6176 21.1545 12.5975 21.1628C12.5775 21.171 12.5593 21.1832 12.544 21.1985C12.5287 21.2138 12.5165 21.232 12.5082 21.2521C12.5 21.2721 12.4957 21.2936 12.4958 21.3152V23.2175C12.4957 23.2392 12.5 23.2606 12.5083 23.2807C12.5165 23.3007 12.5287 23.3189 12.544 23.3342C12.5593 23.3496 12.5775 23.3617 12.5976 23.37C12.6176 23.3783 12.6391 23.3825 12.6607 23.3824C12.6824 23.3825 12.7039 23.3782 12.7239 23.37C12.7439 23.3617 12.7621 23.3495 12.7774 23.3342C12.7928 23.3189 12.8049 23.3007 12.8132 23.2807C12.8214 23.2606 12.8257 23.2392 12.8256 23.2175V21.3153C12.8257 21.2936 12.8214 21.2721 12.8132 21.2521C12.8049 21.2321 12.7928 21.2139 12.7774 21.1986C12.7621 21.1832 12.7439 21.1711 12.7239 21.1628C12.7038 21.1545 12.6824 21.1503 12.6607 21.1503V21.1503ZM9.63345 21.765C9.60113 21.7678 9.57035 21.78 9.54495 21.8002C9.51956 21.8204 9.50069 21.8476 9.49072 21.8785L9.24338 22.6395C9.23663 22.6601 9.23401 22.6818 9.23569 22.7034C9.23736 22.725 9.24328 22.7461 9.25312 22.7654C9.26296 22.7847 9.27651 22.8019 9.29301 22.8159C9.3095 22.83 9.32861 22.8407 9.34924 22.8473C9.36984 22.854 9.39156 22.8567 9.41317 22.855C9.43477 22.8533 9.45583 22.8474 9.47514 22.8375C9.49445 22.8277 9.51162 22.8141 9.52568 22.7976C9.53974 22.7811 9.5504 22.762 9.55705 22.7414L9.8044 21.9804C9.81114 21.9599 9.81375 21.9381 9.81208 21.9165C9.81041 21.8949 9.80448 21.8739 9.79465 21.8546C9.78482 21.8353 9.77127 21.8181 9.75478 21.804C9.73829 21.79 9.71919 21.7793 9.69857 21.7726C9.67759 21.7658 9.65545 21.7632 9.63345 21.765ZM15.6867 21.7654C15.6647 21.7634 15.6426 21.766 15.6216 21.773C15.601 21.7796 15.5819 21.7903 15.5654 21.8043C15.5489 21.8184 15.5353 21.8356 15.5255 21.8549C15.5156 21.8742 15.5097 21.8953 15.508 21.9169C15.5063 21.9385 15.5089 21.9602 15.5157 21.9808L15.7629 22.7418C15.7696 22.7624 15.7802 22.7815 15.7943 22.798C15.8084 22.8145 15.8255 22.8281 15.8448 22.8379C15.8642 22.8478 15.8852 22.8537 15.9068 22.8554C15.9284 22.857 15.9502 22.8544 15.9708 22.8477C15.9914 22.841 16.0105 22.8304 16.027 22.8163C16.0435 22.8023 16.0571 22.7851 16.0669 22.7658C16.0767 22.7465 16.0827 22.7254 16.0844 22.7038C16.086 22.6822 16.0834 22.6605 16.0767 22.6399L15.8294 21.8789C15.8194 21.848 15.8006 21.8208 15.7752 21.8006C15.7498 21.7804 15.7191 21.7682 15.6868 21.7654H15.6867ZM11.6255 22.1892C11.5877 22.1929 11.5523 22.2095 11.5254 22.2363C11.4984 22.2631 11.4816 22.2984 11.4777 22.3362L11.3941 23.132C11.3917 23.1535 11.3937 23.1753 11.3998 23.1961C11.406 23.2169 11.4162 23.2363 11.4298 23.2531C11.4434 23.2699 11.4603 23.2839 11.4793 23.2942C11.4984 23.3045 11.5193 23.311 11.5408 23.3132C11.5624 23.3155 11.5842 23.3136 11.605 23.3074C11.6257 23.3013 11.6451 23.2911 11.662 23.2775C11.6788 23.2638 11.6928 23.247 11.7031 23.228C11.7134 23.2089 11.7199 23.188 11.7221 23.1664L11.8058 22.3707C11.8081 22.3491 11.8061 22.3273 11.8 22.3066C11.7939 22.2858 11.7837 22.2664 11.77 22.2495C11.7564 22.2327 11.7396 22.2187 11.7205 22.2084C11.7015 22.1981 11.6805 22.1916 11.659 22.1894C11.6479 22.1882 11.6367 22.1882 11.6255 22.1892ZM13.6893 22.19C13.6782 22.1888 13.6669 22.1889 13.6558 22.1902C13.6342 22.1924 13.6133 22.1988 13.5942 22.2091C13.5752 22.2194 13.5583 22.2334 13.5447 22.2502C13.531 22.2671 13.5208 22.2864 13.5147 22.3072C13.5085 22.328 13.5065 22.3498 13.5088 22.3713L13.592 23.1672C13.5942 23.1888 13.6006 23.2097 13.6109 23.2287C13.6212 23.2478 13.6352 23.2646 13.652 23.2783C13.6689 23.2919 13.6882 23.3021 13.709 23.3083C13.7298 23.3144 13.7516 23.3164 13.7731 23.3141C13.7947 23.3119 13.8156 23.3054 13.8347 23.2951C13.8537 23.2848 13.8706 23.2708 13.8842 23.254C13.8979 23.2372 13.9081 23.2178 13.9142 23.197C13.9204 23.1762 13.9223 23.1544 13.92 23.1329L13.837 22.3371C13.8331 22.2993 13.8163 22.264 13.7894 22.2372C13.7624 22.2104 13.7271 22.1937 13.6893 22.19H13.6893Z" fill="#F4F2F3"/>
<g opacity="0.409" filter="url(#filter0_f_4868_17272)">
<path d="M20.39 6.0639L11.3671 11.3062L5.66223 20.2874L14.0081 14.1057L20.39 6.0639Z" fill="black"/>
</g>
<path d="M13.9538 14.0148L11.3675 11.3064L20.542 5.13473L13.9538 14.0148Z" fill="#FF5150"/>
<path d="M13.9538 14.0148L11.3676 11.3064L4.77941 20.1865L13.9538 14.0148Z" fill="#F1F1F1"/>
<path opacity="0.243" d="M4.77934 20.1865L13.9538 14.0148L20.542 5.13473L4.77934 20.1865Z" fill="black"/>
<defs>
<filter id="filter0_f_4868_17272" x="0.0522828" y="0.453959" width="25.9477" height="25.4434" filterUnits="userSpaceOnUse" color-interpolation-filters="sRGB">
<feFlood flood-opacity="0" result="BackgroundImageFix"/>
<feBlend mode="normal" in="SourceGraphic" in2="BackgroundImageFix" result="shape"/>
<feGaussianBlur stdDeviation="2.72951" result="effect1_foregroundBlur_4868_17272"/>
</filter>
<linearGradient id="paint0_linear_4868_17272" x1="12.6602" y1="24.9337" x2="12.6602" y2="0.387311" gradientUnits="userSpaceOnUse">
<stop stop-color="#BDBDBD"/>
<stop offset="1" stop-color="white"/>
</linearGradient>
<radialGradient id="paint1_radial_4868_17272" cx="0" cy="0" r="1" gradientUnits="userSpaceOnUse" gradientTransform="translate(12.7116 11.0112) scale(12.2732 12.2732)">
<stop stop-color="#06C2E7"/>
<stop offset="0.25" stop-color="#0DB8EC"/>
<stop offset="0.5" stop-color="#12AEF1"/>
<stop offset="0.75" stop-color="#1F86F9"/>
<stop offset="1" stop-color="#107DDD"/>
</radialGradient>
</defs>
</svg>