<svg width="24" height="24" viewBox="0 0 24 24" fill="none" xmlns="http://www.w3.org/2000/svg">
<path fill-rule="evenodd" clip-rule="evenodd" d="M19.9442 19H19.5V19.8333C19.5 20.2933 19.1275 20.6667 18.6667 20.6667H17C16.5392 20.6667 16.1667 20.2933 16.1667 19.8333V19H7.83333V19.8333C7.83333 20.2933 7.46083 20.6667 7 20.6667H5.33333C4.8725 20.6667 4.5 20.2933 4.5 19.8333V19H4.05583C2.92167 19 2 18.0825 2 16.955V6.045C2 4.9175 2.92167 4 4.05583 4H19.9442C21.0783 4 22 4.9175 22 6.045V16.955C22 18.0825 21.0783 19 19.9442 19ZM20.3333 6.045C20.3333 5.84 20.155 5.66667 19.9442 5.66667H4.05583C3.845 5.66667 3.66667 5.84 3.66667 6.045V16.955C3.66667 17.16 3.845 17.3333 4.05583 17.3333H19.9442C20.155 17.3333 20.3333 17.16 20.3333 16.955V6.045ZM16.1667 14.8333C14.3283 14.8333 12.8333 13.3383 12.8333 11.5C12.8333 9.6625 14.3283 8.16667 16.1667 8.16667C18.005 8.16667 19.5 9.6625 19.5 11.5C19.5 13.3383 18.005 14.8333 16.1667 14.8333ZM14.5 11.5C14.5 12.4192 15.2483 13.1667 16.1667 13.1667C17.0858 13.1667 17.8333 12.4192 17.8333 11.5C17.8333 11.3525 17.8075 11.2108 17.7717 11.0742L16.7558 12.0892C16.5933 12.2517 16.38 12.3333 16.1667 12.3333C15.9533 12.3333 15.74 12.2517 15.5775 12.0892C15.2517 11.7642 15.2517 11.2358 15.5775 10.9108L16.5933 9.89583C16.4567 9.85917 16.315 9.83333 16.1667 9.83333C15.2483 9.83333 14.5 10.5808 14.5 11.5ZM9.5 13.1667H11.1667V14.8333H9.5V13.1667ZM9.5 10.6667H11.1667V12.3333H9.5V10.6667ZM9.5 8.16667H11.1667V9.83333H9.5V8.16667ZM7 13.1667H8.66667V14.8333H7V13.1667ZM7 10.6667H8.66667V12.3333H7V10.6667ZM7 8.16667H8.66667V9.83333H7V8.16667ZM4.5 13.1667H6.16667V14.8333H4.5V13.1667ZM4.5 10.6667H6.16667V12.3333H4.5V10.6667ZM4.5 8.16667H6.16667V9.83333H4.5V8.16667Z" fill="#6B7084"/>
</svg>
