<svg viewBox="0 0 24 24" fill="none" xmlns="http://www.w3.org/2000/svg">
<g clip-path="url(#clip0_1265_20916)">
<path d="M12 24C18.6274 24 24 18.6274 24 12C24 5.37258 18.6274 0 12 0C5.37258 0 0 5.37258 0 12C0 18.6274 5.37258 24 12 24Z" fill="#00688C"/>
<path d="M17.6398 15.2538V8.7518L11.9941 5.5L11.9864 5.5041L6.36011 8.75539V15.2559L11.991 18.4995L11.9915 18.5L17.6393 15.2544L17.6398 15.2538ZM15.1412 14.2144L14.1782 13.6623L12.0295 14.9096C12.0232 14.9132 12.0162 14.9152 12.0089 14.9152C12.0017 14.9152 11.9946 14.9132 11.9884 14.9096L9.52314 13.4807L9.52212 10.9949L7.35648 9.7533L11.973 7.04689C11.9749 7.04575 11.977 7.04515 11.9792 7.04515C11.9813 7.04515 11.9835 7.04575 11.9853 7.04689L16.273 9.4983L15.5147 9.93697L11.9874 7.90729L8.85924 9.74355L9.94437 10.3669L11.9894 9.17764L11.9905 9.17661L14.4891 10.6055L14.4881 12.9707L16.6178 14.1903L16.6173 14.2262L11.9915 16.9269L7.70331 14.4786L8.45392 14.0389L11.9843 16.064L15.1412 14.2139V14.2144Z" fill="white"/>
<path d="M12.6713 11.3924V11.375L12.6707 11.3637L12.6702 11.3576L12.6692 11.3447V11.3406L12.6677 11.3268V11.3232L12.6656 11.3088V11.3063L12.6636 11.2914V11.2893L12.661 11.2739L12.6605 11.2729L12.6574 11.2575L12.6569 11.256L12.6533 11.2406V11.2396C12.6523 11.2344 12.6511 11.2292 12.6497 11.2242V11.2231L12.6451 11.2077V11.2072L12.6405 11.1908C12.6377 11.1803 12.6343 11.1701 12.6302 11.16V11.1595L12.6241 11.1441C12.6222 11.1389 12.6201 11.1338 12.6179 11.1287L12.6112 11.1133L12.6046 11.099L12.5974 11.0836L12.5902 11.0692L12.582 11.0549C12.5792 11.0503 12.5765 11.0457 12.5738 11.041V11.0405L12.5656 11.0271L12.5651 11.0266C12.5623 11.0223 12.5594 11.018 12.5563 11.0138V11.0128L12.5476 11.0005C12.5476 11.0005 12.5476 10.9994 12.5466 10.9994L12.5379 10.9871L12.5368 10.9861C12.5338 10.982 12.5317 10.9779 12.5281 10.9738L12.5276 10.9728L12.5179 10.961L12.5168 10.9599L12.5076 10.9486L12.5066 10.9476L12.4963 10.9368C12.4959 10.9364 12.4955 10.9359 12.4953 10.9353L12.4855 10.9245C12.4851 10.9241 12.4848 10.9236 12.4845 10.923L12.4748 10.9127C12.4708 10.9088 12.4669 10.9049 12.463 10.9009L12.4614 10.8994L12.4512 10.8891C12.4472 10.8857 12.4433 10.8823 12.4394 10.8789L12.4378 10.8773C12.4343 10.874 12.4307 10.8707 12.427 10.8676L12.4255 10.866C12.422 10.863 12.4184 10.8601 12.4147 10.8573L12.4132 10.8563L12.4019 10.8471L12.4004 10.846L12.3886 10.8373L12.387 10.8363L12.3752 10.8276L12.3737 10.8265L12.3619 10.8183L12.3603 10.8178L12.348 10.8096L12.347 10.8086L12.3342 10.8009H12.3332L12.3198 10.7927H12.3188L12.3049 10.7845H12.3044C12.1407 10.7153 11.9565 10.7122 11.7905 10.7757C11.6245 10.8392 11.4895 10.9645 11.4137 11.1253C11.3379 11.2861 11.3273 11.47 11.384 11.6384C11.4407 11.8069 11.5604 11.9469 11.718 12.0292L11.4204 13.3898H12.5461L12.2459 12.0302C12.5035 11.9224 12.6713 11.671 12.6713 11.3924Z" fill="white"/>
</g>
<defs>
<clipPath id="clip0_1265_20916">
<rect width="24" height="24" fill="white"/>
</clipPath>
</defs>
</svg>