<svg width="24" height="24" viewBox="0 0 24 24" fill="none" xmlns="http://www.w3.org/2000/svg">
<g clip-path="url(#clip0_1265_20912)">
<path d="M12 24C18.6274 24 24 18.6274 24 12C24 5.37258 18.6274 0 12 0C5.37258 0 0 5.37258 0 12C0 18.6274 5.37258 24 12 24Z" fill="#B68900"/>
<path d="M18.5 12.0003L12.0003 5.5L5.5 12.0003L12.0003 14.4016L18.5 12.0003ZM7.52154 11.4492L11.9282 6.94344C11.9282 6.94344 16.2363 11.3501 16.4178 11.4384C16.5998 11.5262 13.4546 11.4384 13.4546 11.4384L12.0003 9.95112L10.5292 11.4492H7.52154ZM12.0003 14.8589L18.5 12.4408L12.0003 18.5L5.5 12.4738L12.0003 14.8595V14.8589Z" fill="white"/>
</g>
<defs>
<clipPath id="clip0_1265_20912">
<rect width="24" height="24" fill="white"/>
</clipPath>
</defs>
</svg>
