<svg width="24" height="24" viewBox="0 0 24 24" fill="none" xmlns="http://www.w3.org/2000/svg">
<g clip-path="url(#clip0_1265_20904)">
<path d="M12 24C18.6274 24 24 18.6274 24 12C24 5.37258 18.6274 0 12 0C5.37258 0 0 5.37258 0 12C0 18.6274 5.37258 24 12 24Z" fill="#2B77B3"/>
<path d="M19.0005 12.0251C18.9706 15.9121 15.8205 19.0291 11.9514 18.9998C8.07902 18.9712 4.96905 15.8071 5.00023 11.9284C5.03205 8.08658 8.19102 4.9747 12.0322 5.00016C15.9014 5.02625 19.0285 8.17949 19.0005 12.0257V12.0251ZM5.50679 12.0028C5.51379 15.5793 8.40739 18.4665 11.9908 18.4748C15.5781 18.4811 18.5048 15.5742 18.4927 11.9939C18.4793 8.26476 15.3903 5.45198 11.8349 5.51307C8.39721 5.57162 5.49979 8.49386 5.50679 12.0028ZM13.7065 8.96351L13.4475 9.79207C12.9651 9.71252 12.5184 9.6177 12.0659 9.57315C11.7974 9.54706 11.5186 9.61706 11.4149 9.91934C11.308 10.2293 11.2953 10.5595 11.5517 10.7988C11.8152 11.0438 12.1245 11.2379 12.4134 11.4556C12.6787 11.6554 12.9708 11.8297 13.2025 12.0633C13.8306 12.6971 13.942 13.4659 13.6842 14.2944C13.5315 14.7857 13.1675 15.0963 12.7017 15.2846C11.9889 15.5735 10.7753 15.431 10.0938 14.9728L10.3929 14.1048C10.8269 14.2193 11.224 14.3568 11.6325 14.4217C12.022 14.4834 12.4299 14.4236 12.6297 14.0259C12.8308 13.625 12.7672 13.203 12.4522 12.881C12.2091 12.6329 11.9043 12.4438 11.6198 12.237C11.4302 12.0996 11.2183 11.9914 11.0337 11.8476C10.6759 11.574 10.4211 11.1874 10.3108 10.7507C10.2004 10.314 10.241 9.85278 10.426 9.44206C10.5075 9.24593 10.6351 9.07233 10.7979 8.93597C10.9607 8.7996 11.1541 8.70449 11.3614 8.65868C12.1601 8.46904 12.9346 8.55495 13.7065 8.96414V8.96351ZM8.56458 11.8845C8.56459 12.0974 8.48057 12.3017 8.33079 12.453C8.18101 12.6044 7.97756 12.6905 7.76465 12.6927C7.31919 12.6946 6.93863 12.3064 6.94882 11.8628C6.9572 11.6501 7.04763 11.4488 7.20114 11.3012C7.35466 11.1536 7.55934 11.0712 7.77229 11.0712C8.21775 11.0775 8.56776 11.4371 8.56521 11.8845H8.56458ZM16.2603 11.0935C16.7045 11.0928 17.0354 11.4206 17.0411 11.8673C17.0436 11.9752 17.0244 12.0826 16.9846 12.1829C16.9448 12.2833 16.8853 12.3747 16.8096 12.4517C16.7339 12.5286 16.6435 12.5896 16.5438 12.631C16.4441 12.6724 16.3371 12.6934 16.2291 12.6927C16.016 12.6892 15.8129 12.6018 15.6638 12.4496C15.5146 12.2974 15.4315 12.0925 15.4323 11.8794C15.4323 11.4136 15.7696 11.0935 16.2603 11.0935Z" fill="white"/>
</g>
<defs>
<clipPath id="clip0_1265_20904">
<rect width="24" height="24" fill="white"/>
</clipPath>
</defs>
</svg>
