<svg viewBox="0 0 24 24" fill="none" xmlns="http://www.w3.org/2000/svg">
<g clip-path="url(#clip0_1265_20900)">
<path d="M12 24C18.6274 24 24 18.6274 24 12C24 5.37258 18.6274 0 12 0C5.37258 0 0 5.37258 0 12C0 18.6274 5.37258 24 12 24Z" fill="#4BA2F2"/>
<path d="M7.69613 6.90518C7.83775 6.92944 7.48501 7.86896 7.6817 8.94224C7.85217 9.86209 9.98101 13.4241 9.89316 14.6462C9.82497 15.4133 8.07705 17.213 7.89282 17.0931C7.69154 17.0373 8.42388 15.8146 8.15245 14.7957C7.83643 13.6077 5.96263 10.5367 5.9646 9.18089C5.9646 8.18891 7.56959 6.84093 7.69547 6.90518H7.69613ZM11.7014 5.50213C11.881 5.53294 11.4326 6.7321 11.683 8.09778C11.8994 9.27267 14.6157 13.8149 14.5029 15.372C14.4151 16.3515 12.1872 18.6443 11.9512 18.4928C11.6955 18.4227 12.6291 16.8629 12.2829 15.5635C11.881 14.0503 9.49125 10.1335 9.49322 8.40462C9.49322 7.13859 11.5401 5.42148 11.7014 5.50278V5.50213ZM15.8352 6.90518C15.9768 6.92944 15.6247 7.86896 15.8207 8.94224C15.9912 9.86209 18.12 13.4241 18.0328 14.6462C17.9653 15.4133 16.2167 17.213 16.0319 17.0931C15.8312 17.0373 16.5629 15.8146 16.2915 14.7957C15.9761 13.6077 14.1017 10.5367 14.1036 9.18089C14.1036 8.18891 15.7099 6.84093 15.8352 6.90518Z" fill="white"/>
</g>
<defs>
<clipPath id="clip0_1265_20900">
<rect width="24" height="24" fill="white"/>
</clipPath>
</defs>
</svg>