<svg width="24" height="24" viewBox="0 0 24 24" fill="none" xmlns="http://www.w3.org/2000/svg">
<g clip-path="url(#clip0_1265_20896)">
<path d="M12 24C18.6274 24 24 18.6274 24 12C24 5.37258 18.6274 0 12 0C5.37258 0 0 5.37258 0 12C0 18.6274 5.37258 24 12 24Z" fill="#48B254"/>
<path fill-rule="evenodd" clip-rule="evenodd" d="M15.9479 6.60377L16.5063 7.11077L9.45555 11.136L6.04246 9.17127L6.36155 8.53723L9.45555 10.2964L15.9479 6.60318V6.60377ZM14.5285 5.79541L15.2778 6.17596L9.45555 9.50396L6.74446 7.96641L7.20655 7.41214L9.45555 8.69559L14.5291 5.79541H14.5285ZM17.0009 7.63373L17.4151 8.18859L9.45555 12.7368L5.61168 10.5499L5.78718 9.85259L9.45555 11.9444L17.0009 7.63373ZM18.149 9.67827C18.383 10.3336 18.5 11.0196 18.5 11.7382C18.5 12.4567 18.383 13.1546 18.149 13.83L17.9895 14.2584C17.6618 15.0268 17.191 15.7259 16.602 16.3183C16.006 16.9035 15.3015 17.3666 14.5279 17.6815C13.7095 18.0302 12.8645 18.2045 11.9923 18.2045C11.1095 18.2045 10.2639 18.0302 9.45555 17.6815C8.69121 17.3584 7.99353 16.8962 7.398 16.3183C6.80226 15.7315 6.33045 15.031 6.01055 14.2584C5.67373 13.4607 5.49941 12.6039 5.5 11.7382V11.3104L9.45555 13.5452L17.798 8.79073L18.149 9.67827Z" fill="white"/>
</g>
<defs>
<clipPath id="clip0_1265_20896">
<rect width="24" height="24" fill="white"/>
</clipPath>
</defs>
</svg>
