<svg width="24" height="24" viewBox="0 0 24 24" fill="none" xmlns="http://www.w3.org/2000/svg">
<g clip-path="url(#clip0_1265_20892)">
<path d="M12 24C18.6274 24 24 18.6274 24 12C24 5.37258 18.6274 0 12 0C5.37258 0 0 5.37258 0 12C0 18.6274 5.37258 24 12 24Z" fill="#20EE82"/>
<path fill-rule="evenodd" clip-rule="evenodd" d="M12 6.5C13.4587 6.5 14.8576 7.07946 15.8891 8.11091C16.9205 9.14236 17.5 10.5413 17.5 12V17.5H12C10.5413 17.5 9.14236 16.9205 8.11091 15.8891C7.07946 14.8576 6.5 13.4587 6.5 12C6.5 10.5413 7.07946 9.14236 8.11091 8.11091C9.14236 7.07946 10.5413 6.5 12 6.5ZM15.3 15.3V12.0498C15.3 10.2251 13.8409 8.70906 12.0168 8.7C11.5808 8.69829 11.1487 8.78291 10.7455 8.94899C10.3423 9.11507 9.976 9.35932 9.66766 9.66766C9.35932 9.976 9.11507 10.3423 8.94899 10.7455C8.78291 11.1487 8.69829 11.5808 8.7 12.0168C8.70906 13.8409 10.2258 15.3 12.0498 15.3H15.3Z" fill="white"/>
</g>
<defs>
<clipPath id="clip0_1265_20892">
<rect width="24" height="24" fill="white"/>
</clipPath>
</defs>
</svg>
