<svg viewBox="0 0 24 24" fill="none" xmlns="http://www.w3.org/2000/svg">
<path fill-rule="evenodd" clip-rule="evenodd" d="M20.5558 17.3333H3.44417C2.64833 17.3333 2 16.6983 2 15.9175V5.41667C2 4.63583 2.64833 4 3.44417 4H20.5558C21.3517 4 22 4.63583 22 5.41667V15.9175C22 16.6983 21.3517 17.3333 20.5558 17.3333ZM20.3333 5.66667H3.66667V15.6667H20.3333V5.66667ZM8.16588 12.1592C8.16588 12.1592 8.58838 12.3333 9.08421 12.3333C9.28421 12.3333 9.50088 12.2525 9.50088 12.1217C9.50088 11.6475 8.88255 11.475 8.87588 11.4733C8.87088 11.4717 8.86671 11.4675 8.86171 11.4667C8.85255 11.4642 8.84421 11.465 8.83588 11.4625C8.15421 11.2492 7.00088 10.5458 7.00088 9.26C7.00088 8.17917 7.91588 7.33333 9.08421 7.33333C9.92505 7.33333 10.5942 7.615 10.6675 7.64667C11.0892 7.83083 11.2817 8.3225 11.0975 8.74417C10.9134 9.16583 10.4217 9.35667 10.0009 9.175C10.0009 9.175 9.58005 9 9.08421 9C8.85421 9 8.66755 9.11667 8.66755 9.26C8.66755 9.6275 9.32588 9.86917 9.33255 9.87167C9.33588 9.8725 9.33755 9.875 9.34088 9.87583C9.99921 10.0625 11.1675 10.7475 11.1675 12.1217C11.1675 13.1925 10.2717 14 9.08421 14C8.24505 14 7.57588 13.7192 7.50171 13.6875C7.08005 13.5042 6.88671 13.0133 7.07005 12.5908C7.25338 12.1692 7.74505 11.9758 8.16588 12.1592ZM12.8341 7.33333H14.6975C15.9675 7.33333 17.0008 8.39917 17.0008 9.70917V11.6142C17.0008 12.9292 15.9675 14 14.6975 14H12.8341C12.3741 14 12.0008 13.6267 12.0008 13.1667V8.16667C12.0008 7.70667 12.3741 7.33333 12.8341 7.33333ZM13.6675 12.3333H14.6975C15.0483 12.3333 15.3341 12.0108 15.3341 11.6142V9.70917C15.3341 9.31083 15.0541 9 14.6975 9H13.6675V12.3333ZM7 19H17C17.46 19 17.8333 19.3733 17.8333 19.8333C17.8333 20.2933 17.46 20.6667 17 20.6667H7C6.54 20.6667 6.16667 20.2933 6.16667 19.8333C6.16667 19.3733 6.54 19 7 19Z" fill="currentColor"/>
</svg>