<svg viewBox="0 0 24 24" fill="none" xmlns="http://www.w3.org/2000/svg">
<path d="M5.78889 14.6535C5.78889 14.1703 6.18059 13.7786 6.66378 13.7786H14.1628C14.646 13.7786 15.0377 14.1703 15.0377 14.6535C15.0377 15.1367 14.646 15.5284 14.1628 15.5284H6.66378C6.18059 15.5284 5.78889 15.1367 5.78889 14.6535Z" fill="currentColor"/>
<path d="M6.66378 9.84989C6.18059 9.84989 5.78889 10.2416 5.78889 10.7248C5.78889 11.208 6.18059 11.5997 6.66378 11.5997H14.1628C14.646 11.5997 15.0377 11.208 15.0377 10.7248C15.0377 10.2416 14.646 9.84989 14.1628 9.84989H6.66378Z" fill="currentColor"/>
<path fill-rule="evenodd" clip-rule="evenodd" d="M18.6996 17.1007C18.3747 17.9308 17.817 18.6438 17.1077 19.1594V21.1251C17.1077 21.481 16.8921 21.8015 16.5623 21.9355C16.2326 22.0696 15.8546 21.9906 15.6062 21.7356L13.9549 20.0408H6.6244C4.07042 20.0408 2 17.9704 2 15.4164V9.20082C2 6.64683 4.07041 4.57642 6.6244 4.57642H6.64398C7.15171 3.07824 8.56958 2 10.2393 2H17.3787C19.9327 2 22.0031 4.07042 22.0031 6.6244V13.4297C22.0031 15.3373 20.556 16.9069 18.6996 17.1007ZM8.59644 4.57642H14.3916C16.9456 4.57642 19.016 6.64683 19.016 9.20082V15.2394C19.7402 14.9575 20.2533 14.2535 20.2533 13.4297V6.6244C20.2533 5.03679 18.9663 3.74977 17.3787 3.74977H10.2393C9.5663 3.74977 8.96921 4.07479 8.59644 4.57642ZM3.74977 9.20082C3.74977 7.61321 5.03679 6.32619 6.6244 6.32619H14.3916C15.9792 6.32619 17.2663 7.61321 17.2663 9.20082V15.4164C17.2663 16.4899 16.6782 17.4271 15.8026 17.9217C15.5278 18.0769 15.3579 18.368 15.3579 18.6835V18.9734L14.9506 18.5554C14.786 18.3864 14.56 18.291 14.324 18.291H6.6244C5.03679 18.291 3.74977 17.004 3.74977 15.4164V9.20082Z" fill="currentColor"/>
</svg>