<svg viewBox="0 0 24 24" fill="none" xmlns="http://www.w3.org/2000/svg">
<path fill-rule="evenodd" clip-rule="evenodd" d="M4.38316 17.3322L5.12891 15.176H9.63583L10.3816 17.3322H12.7809L8.71175 6H6.0692L2 17.3322H4.38316ZM7.38237 8.62634L9.01977 13.3602H5.74496L7.38237 8.62634Z" fill="currentColor"/>
<path fill-rule="evenodd" clip-rule="evenodd" d="M13.1807 10.3934C12.824 11.096 12.6457 11.9011 12.6457 12.809C12.6457 13.7277 12.824 14.5437 13.1807 15.257C13.5482 15.9595 14.0399 16.5053 14.656 16.8944C15.2829 17.2835 15.9746 17.4781 16.7311 17.4781C17.4012 17.4781 17.9902 17.343 18.4982 17.0728C19.017 16.7918 19.4223 16.4405 19.7141 16.019V17.3322H22V8.35073H19.7141V9.63148C19.4115 9.22077 19.0062 8.88032 18.4982 8.61012C18.0011 8.33992 17.4174 8.20483 16.7473 8.20483C15.98 8.20483 15.2829 8.39396 14.656 8.77224C14.0399 9.15052 13.5482 9.69092 13.1807 10.3934ZM19.3899 11.431C19.606 11.8201 19.7141 12.2902 19.7141 12.8414C19.7141 13.3926 19.606 13.8682 19.3899 14.2681C19.1737 14.6572 18.8819 14.9598 18.5144 15.176C18.147 15.3813 17.7525 15.484 17.331 15.484C16.9203 15.484 16.5312 15.3759 16.1637 15.1598C15.807 14.9436 15.5152 14.6356 15.2883 14.2357C15.0721 13.825 14.964 13.3494 14.964 12.809C14.964 12.2686 15.0721 11.8039 15.2883 11.4148C15.5152 11.0149 15.807 10.7123 16.1637 10.5069C16.5204 10.3016 16.9094 10.1989 17.331 10.1989C17.7525 10.1989 18.147 10.307 18.5144 10.5231C18.8819 10.7285 19.1737 11.0311 19.3899 11.431Z" fill="currentColor"/>
</svg>