<svg viewBox="0 0 24 24" fill="none" xmlns="http://www.w3.org/2000/svg">
<path fill-rule="evenodd" clip-rule="evenodd" d="M2 10.4983C2 5.80482 5.80482 2 10.4983 2C15.1918 2 18.9966 5.80482 18.9966 10.4983C18.9966 12.3515 18.4034 14.0662 17.3966 15.4628L21.764 19.8303C22.0764 20.1427 22.0764 20.6492 21.764 20.9616C21.4516 21.2741 20.9451 21.2741 20.6327 20.9616L16.3408 16.6698C14.8178 18.112 12.7614 18.9966 10.4983 18.9966C5.80482 18.9966 2 15.1918 2 10.4983ZM10.4983 3.6C6.68848 3.6 3.6 6.68848 3.6 10.4983C3.6 14.3081 6.68848 17.3966 10.4983 17.3966C14.3081 17.3966 17.3966 14.3081 17.3966 10.4983C17.3966 6.68848 14.3081 3.6 10.4983 3.6ZM7.75 10C7.33579 10 7 10.3358 7 10.75C7 11.1642 7.33579 11.5 7.75 11.5H13.75C14.1642 11.5 14.5 11.1642 14.5 10.75C14.5 10.3358 14.1642 10 13.75 10H7.75Z" fill="currentColor"/>
</svg>