<svg viewBox="0 0 24 24" fill="none" xmlns="http://www.w3.org/2000/svg">
<path fill-rule="evenodd" clip-rule="evenodd" d="M2.2002 3.00001C2.2002 2.55818 2.55837 2.20001 3.0002 2.20001H15.0002C15.442 2.20001 15.8002 2.55818 15.8002 3.00001C15.8002 3.42505 15.4687 3.77267 15.0502 3.79848V6.70001H21.0002C21.442 6.70001 21.8002 7.05818 21.8002 7.50001C21.8002 7.92505 21.4687 8.27267 21.0502 8.29848V21C21.0502 21.4418 20.692 21.8 20.2502 21.8H3.7502C3.30837 21.8 2.9502 21.4418 2.9502 21V3.79848C2.53166 3.77267 2.2002 3.42505 2.2002 3.00001ZM4.5502 3.80001V20.2H5.9502V17.625C5.9502 16.5619 6.81205 15.7 7.8752 15.7H10.1252C11.1883 15.7 12.0502 16.5619 12.0502 17.625V20.2H13.4502V3.80001H4.5502ZM15.0502 8.30001V20.2H19.4502V8.30001H15.0502ZM10.4502 20.2V17.625C10.4502 17.4455 10.3047 17.3 10.1252 17.3H7.8752C7.6957 17.3 7.5502 17.4455 7.5502 17.625V20.2H10.4502ZM5.9502 6.75001C5.9502 6.30818 6.30837 5.95001 6.7502 5.95001H7.5002C7.94202 5.95001 8.3002 6.30818 8.3002 6.75001C8.3002 7.19184 7.94202 7.55001 7.5002 7.55001H6.7502C6.30837 7.55001 5.9502 7.19184 5.9502 6.75001ZM9.7002 6.75001C9.7002 6.30818 10.0584 5.95001 10.5002 5.95001H11.2502C11.692 5.95001 12.0502 6.30818 12.0502 6.75001C12.0502 7.19184 11.692 7.55001 11.2502 7.55001H10.5002C10.0584 7.55001 9.7002 7.19184 9.7002 6.75001ZM5.9502 9.75001C5.9502 9.30818 6.30837 8.95001 6.7502 8.95001H7.5002C7.94202 8.95001 8.3002 9.30818 8.3002 9.75001C8.3002 10.1918 7.94202 10.55 7.5002 10.55H6.7502C6.30837 10.55 5.9502 10.1918 5.9502 9.75001ZM9.7002 9.75001C9.7002 9.30818 10.0584 8.95001 10.5002 8.95001H11.2502C11.692 8.95001 12.0502 9.30818 12.0502 9.75001C12.0502 10.1918 11.692 10.55 11.2502 10.55H10.5002C10.0584 10.55 9.7002 10.1918 9.7002 9.75001ZM16.4502 11.25C16.4502 10.8082 16.8084 10.45 17.2502 10.45H17.2577C17.6995 10.45 18.0577 10.8082 18.0577 11.25V11.2575C18.0577 11.6993 17.6995 12.0575 17.2577 12.0575H17.2502C16.8084 12.0575 16.4502 11.6993 16.4502 11.2575V11.25ZM5.9502 12.75C5.9502 12.3082 6.30837 11.95 6.7502 11.95H7.5002C7.94202 11.95 8.3002 12.3082 8.3002 12.75C8.3002 13.1918 7.94202 13.55 7.5002 13.55H6.7502C6.30837 13.55 5.9502 13.1918 5.9502 12.75ZM9.7002 12.75C9.7002 12.3082 10.0584 11.95 10.5002 11.95H11.2502C11.692 11.95 12.0502 12.3082 12.0502 12.75C12.0502 13.1918 11.692 13.55 11.2502 13.55H10.5002C10.0584 13.55 9.7002 13.1918 9.7002 12.75ZM16.4502 14.25C16.4502 13.8082 16.8084 13.45 17.2502 13.45H17.2577C17.6995 13.45 18.0577 13.8082 18.0577 14.25V14.2575C18.0577 14.6993 17.6995 15.0575 17.2577 15.0575H17.2502C16.8084 15.0575 16.4502 14.6993 16.4502 14.2575V14.25ZM16.4502 17.25C16.4502 16.8082 16.8084 16.45 17.2502 16.45H17.2577C17.6995 16.45 18.0577 16.8082 18.0577 17.25V17.2575C18.0577 17.6993 17.6995 18.0575 17.2577 18.0575H17.2502C16.8084 18.0575 16.4502 17.6993 16.4502 17.2575V17.25Z" fill="currentColor"/>
</svg>