<svg viewBox="0 0 24 24" fill="none" xmlns="http://www.w3.org/2000/svg">
<path d="M8.40805 6.70538C8.40805 6.29117 8.07227 5.95538 7.65805 5.95538C7.24384 5.95538 6.90805 6.29117 6.90805 6.70538V7.58327H6.03003C5.61582 7.58327 5.28003 7.91905 5.28003 8.33327C5.28003 8.74748 5.61582 9.08327 6.03003 9.08327H6.90805V9.96138C6.90805 10.3756 7.24384 10.7114 7.65805 10.7114C8.07227 10.7114 8.40805 10.3756 8.40805 9.96138V9.08327H9.28601C9.70023 9.08327 10.036 8.74748 10.036 8.33327C10.036 7.91905 9.70023 7.58327 9.28601 7.58327H8.40805V6.70538Z" fill="currentColor"/>
<path d="M9.33961 18.1679C9.04672 18.4608 8.57185 18.4608 8.27895 18.1679L7.65812 17.547L7.0372 18.168C6.7443 18.4609 6.26943 18.4609 5.97654 18.168C5.68364 17.8751 5.68364 17.4002 5.97654 17.1073L6.59746 16.4864L5.97662 15.8656C5.68373 15.5727 5.68373 15.0978 5.97662 14.8049C6.26952 14.512 6.74439 14.512 7.03728 14.8049L7.65812 15.4257L8.27888 14.805C8.57177 14.5121 9.04664 14.5121 9.33954 14.805C9.63243 15.0979 9.63243 15.5727 9.33954 15.8656L8.71878 16.4864L9.33961 17.1072C9.63251 17.4001 9.63251 17.875 9.33961 18.1679Z" fill="currentColor"/>
<path d="M18.7705 8.33331C18.7705 8.74753 18.4347 9.08331 18.0205 9.08331H14.7645C14.3503 9.08331 14.0145 8.74753 14.0145 8.33331C14.0145 7.9191 14.3503 7.58331 14.7645 7.58331H18.0205C18.4347 7.58331 18.7705 7.9191 18.7705 8.33331Z" fill="currentColor"/>
<path d="M18.034 15.7459C18.4482 15.7459 18.784 15.4101 18.784 14.9959C18.784 14.5817 18.4482 14.2459 18.034 14.2459H14.778C14.3638 14.2459 14.028 14.5817 14.028 14.9959C14.028 15.4101 14.3638 15.7459 14.778 15.7459H18.034Z" fill="currentColor"/>
<path d="M18.784 17.2982C18.784 17.7124 18.4482 18.0482 18.034 18.0482H14.778C14.3638 18.0482 14.028 17.7124 14.028 17.2982C14.028 16.884 14.3638 16.5482 14.778 16.5482H18.034C18.4482 16.5482 18.784 16.884 18.784 17.2982Z" fill="currentColor"/>
<path fill-rule="evenodd" clip-rule="evenodd" d="M7 2C4.23858 2 2 4.23858 2 7V17C2 19.7614 4.23858 22 7 22H17C19.7614 22 22 19.7614 22 17V7C22 4.23858 19.7614 2 17 2H7ZM17 3.75H7C5.20507 3.75 3.75 5.20507 3.75 7V17C3.75 18.7949 5.20507 20.25 7 20.25H10.8781C10.7948 20.0009 10.7498 19.7344 10.7498 19.4573L10.7498 13.2073C10.7498 11.8266 11.8691 10.7073 13.2498 10.7073H19.4998C19.7612 10.7073 20.0132 10.7474 20.25 10.8218V7C20.25 5.20507 18.7949 3.75 17 3.75ZM20.2498 13.2073V16.9573C20.2498 18.7522 18.7947 20.2073 16.9998 20.2073H13.2498C12.8356 20.2073 12.4998 19.8715 12.4998 19.4573V13.2073C12.4998 12.7931 12.8356 12.4573 13.2498 12.4573H19.4998C19.914 12.4573 20.2498 12.7931 20.2498 13.2073Z" fill="currentColor"/>
</svg>