<svg width="24" height="24" viewBox="0 0 24 24" fill="none" xmlns="http://www.w3.org/2000/svg">
<path fill-rule="evenodd" clip-rule="evenodd" d="M10.4983 1.99994C5.80482 1.99994 2 5.80476 2 10.4982C2 15.1917 5.80482 18.9966 10.4983 18.9966C12.7614 18.9966 14.8178 18.112 16.3408 16.6697L20.6327 20.9616C20.9451 21.274 21.4516 21.274 21.764 20.9616C22.0764 20.6492 22.0764 20.1426 21.764 19.8302L17.3966 15.4627C18.4034 14.0661 18.9966 12.3515 18.9966 10.4982C18.9966 5.80476 15.1918 1.99994 10.4983 1.99994ZM3.6 10.4982C3.6 6.68842 6.68848 3.59994 10.4983 3.59994C14.3081 3.59994 17.3966 6.68842 17.3966 10.4982C17.3966 14.3081 14.3081 17.3966 10.4983 17.3966C6.68848 17.3966 3.6 14.3081 3.6 10.4982Z" fill="#6B7084"/>
</svg>
