<svg viewBox="0 0 24 24" fill="none" xmlns="http://www.w3.org/2000/svg">
<path d="M13.1615 8.87959C12.8327 8.55441 12.3025 8.55734 11.9773 8.88613C11.6522 9.21492 11.6551 9.74506 11.9839 10.0702L12.5879 10.6676H10.1772C9.7148 10.6676 9.33993 11.0425 9.33993 11.5049V14.5501C9.33993 15.0126 9.7148 15.3874 10.1772 15.3874C10.6397 15.3874 11.0145 15.0126 11.0145 14.5501V12.3422H12.5748L11.9774 12.9461C11.6522 13.2748 11.6551 13.8049 11.9838 14.1302C12.3125 14.4554 12.8427 14.4525 13.1679 14.1238L15.1981 12.0716C15.3543 11.9138 15.4413 11.7003 15.4401 11.4782C15.4389 11.2561 15.3495 11.0436 15.1916 10.8875L13.1615 8.87959Z" fill="currentColor"/>
<path fill-rule="evenodd" clip-rule="evenodd" d="M14.8907 3.19735C13.2942 1.60088 10.7058 1.60088 9.10933 3.19735L3.19735 9.10933C1.60088 10.7058 1.60088 13.2942 3.19735 14.8907L9.10933 20.8026C10.7058 22.3991 13.2942 22.3991 14.8907 20.8026L20.8026 14.8907C22.3991 13.2942 22.3991 10.7058 20.8026 9.10933L14.8907 3.19735ZM10.2935 4.38148C11.236 3.43899 12.764 3.43899 13.7065 4.38148L19.6185 10.2935C20.561 11.236 20.561 12.764 19.6185 13.7065L13.7065 19.6185C12.764 20.561 11.236 20.561 10.2935 19.6185L4.38148 13.7065C3.43899 12.764 3.43899 11.236 4.38148 10.2935L10.2935 4.38148Z" fill="currentColor"/>
</svg>