<svg viewBox="0 0 24 24" fill="none" xmlns="http://www.w3.org/2000/svg">
<path fill-rule="evenodd" clip-rule="evenodd" d="M13.87 9.82968C15.5632 9.82968 16.9358 8.43958 16.9358 6.72481C16.9358 5.01003 15.5632 3.61993 13.87 3.61993C12.1768 3.61993 10.8042 5.01003 10.8042 6.72481C10.8042 8.43958 12.1768 9.82968 13.87 9.82968ZM2.00732 7.66976C2.00732 9.23914 2.95173 10.5851 4.29639 11.1566V11.161C3.01903 11.2156 2 12.2816 2 13.5887V19.5701C2 20.9121 3.07422 22 4.39934 22H15.1045C16.3937 22 17.4455 20.9702 17.5015 19.6786L19.4499 21.1365C20.5058 21.9267 22 21.1633 22 19.8337V13.2551C22 11.9524 20.5588 11.1825 19.4972 11.9181L17.4883 13.3101C17.3647 12.2138 16.5208 11.3391 15.4478 11.1835V11.1726C17.2479 10.5175 18.5354 8.77343 18.5354 6.72481C18.5354 4.11537 16.4466 2 13.87 2C11.432 2 9.43072 3.89391 9.22248 6.30825C8.68287 4.89346 7.32697 3.88992 5.73963 3.88992C3.67833 3.88992 2.00732 5.58221 2.00732 7.66976ZM12.2548 11.1588H7.18506V11.1557C8.37505 10.649 9.25113 9.53563 9.43579 8.19785C9.87923 9.56775 10.9244 10.6616 12.2548 11.1588ZM7.87238 7.66976C7.87238 8.86265 6.91751 9.82967 5.73963 9.82967C4.56175 9.82967 3.60688 8.86265 3.60688 7.66976C3.60688 6.47687 4.56175 5.50985 5.73963 5.50985C6.91751 5.50985 7.87238 6.47687 7.87238 7.66976ZM3.59956 13.5887C3.59956 13.1414 3.95763 12.7787 4.39934 12.7787H15.1045C15.5462 12.7787 15.9043 13.1414 15.9043 13.5887V19.5701C15.9043 20.0174 15.5462 20.3801 15.1045 20.3801H4.39934C3.95763 20.3801 3.59956 20.0174 3.59956 19.5701V13.5887ZM20.4004 19.8337L17.5038 17.6661V15.2621L20.4004 13.2551V19.8337Z" fill="currentColor"/>
</svg>