<svg width="24" height="24" viewBox="0 0 24 24" fill="none" xmlns="http://www.w3.org/2000/svg">
<path fill-rule="evenodd" clip-rule="evenodd" d="M10.8502 3.0946C11.0214 2.99545 11.2264 2.97308 11.415 3.03297L18.1996 5.18829C18.3793 5.24537 18.5285 5.37228 18.6136 5.54047L20.8967 10.0494C21.2533 10.7536 20.6324 11.556 19.8612 11.3876L18.6894 11.1317V15.1887C18.6894 15.4561 18.5751 15.7107 18.3754 15.8885L13.5849 20.1507C13.3878 20.3261 13.109 20.3762 12.8632 20.2806L5.1901 17.2945C4.83019 17.1544 4.59314 16.8078 4.59314 16.4216V13.1815L3.58663 12.7757C3.10755 12.5825 2.8753 12.0379 3.0675 11.5584L5.04267 6.631C5.10111 6.4852 5.20673 6.3632 5.34265 6.28448L10.8502 3.0946ZM5.99814 13.7192V16.1013L12.4154 18.5987V14.1994L12.2023 14.9531C12.0533 15.4798 11.4864 15.7671 10.9735 15.5757L5.99814 13.7192ZM13.8204 9.50795L17.2844 7.17722V14.9785L13.8204 18.0605V9.50795ZM18.6894 8.8003V9.69356L19.198 9.80462L18.6894 8.8003ZM16.3879 6.08697L11.9048 4.66277V8.03375L13.0021 8.36511L16.3879 6.08697ZM10.4998 7.60949V4.9212L7.44888 6.68823L10.4998 7.60949ZM6.10746 7.75084L12.2541 9.6069L10.9886 14.0817L5.54985 12.0523L4.54553 11.6474L6.10746 7.75084Z" fill="#6B7084"/>
</svg>
