<svg width="24" height="24" viewBox="0 0 24 24" fill="none" xmlns="http://www.w3.org/2000/svg">
<path fill-rule="evenodd" clip-rule="evenodd" d="M12.9136 3.56603C12.1748 3.41934 11.432 3.42308 10.9246 3.43258C10.1101 3.44784 9.55251 3.71697 9.15365 4.1153C8.73947 4.52893 8.44687 5.13303 8.27857 5.88409C8.1631 6.39937 8.11172 6.95953 8.11181 7.5299C8.39994 7.36541 8.72966 7.27834 9.08558 7.26539C11.1967 7.1886 13.1065 6.10366 13.8593 5.52183C14.0697 5.35918 14.3631 5.27297 14.6668 5.34493C15.626 5.57222 16.2919 6.17324 16.6968 6.94201C16.8326 6.07251 16.6947 5.59212 16.5399 5.34163C16.2779 4.91774 15.7686 4.84392 15.4863 4.84499C15.189 4.84611 14.9025 4.7164 14.7091 4.48391C14.3043 3.99727 13.6602 3.71427 12.9136 3.56603ZM17.1697 10.1273C16.9996 11.6971 16.3529 13.3732 15.3505 14.5505L15.3495 15.4229C16.4184 15.4454 17.7548 15.6926 18.9147 16.3953C20.3038 17.2368 21.385 18.7032 21.461 21.0218C21.4787 21.5617 21.0398 22 20.5058 22H3.95476C3.42548 22 2.97794 21.5655 3.00084 21.0163C3.08896 18.9028 4.20692 17.5138 5.56075 16.6664C6.71699 15.9427 8.05179 15.6045 9.11197 15.4907V14.5747C8.18119 13.6044 7.51884 12.3116 7.22086 11.1164C6.72499 9.54125 6.46698 7.38884 6.87368 5.57392C7.07934 4.65614 7.46678 3.77345 8.13286 3.10825C8.81424 2.42776 9.73707 2.02601 10.8974 2.00427C11.4139 1.9946 12.292 1.98574 13.1959 2.16522C14.0369 2.3322 14.9874 2.67886 15.6851 3.42284C16.1921 3.45581 17.1791 3.64382 17.7667 4.59462C18.4307 5.66897 18.3795 7.39621 17.1697 10.1273ZM10.5512 15.6652V15.9256C10.5512 16.4478 10.135 16.8546 9.63544 16.8811C8.6909 16.9313 7.38905 17.2109 6.32841 17.8748C5.41197 18.4484 4.68468 19.2972 4.48751 20.5714H19.9859C19.8076 19.0524 19.0579 18.1556 18.165 17.6147C17.1357 16.9912 15.8615 16.8134 14.9226 16.8556C14.3881 16.8797 13.909 16.4616 13.9097 15.8979L13.9099 15.7246C13.4372 15.9664 12.9149 16.1102 12.3502 16.1102C11.6992 16.1102 11.0958 15.942 10.5512 15.6652ZM14.5426 6.79792C13.5454 7.50899 11.4802 8.60781 9.13829 8.693C8.9512 8.6998 8.84459 8.75056 8.7772 8.80328C8.70558 8.8593 8.63009 8.95582 8.57166 9.12403C8.4479 9.48033 8.44058 10.0513 8.6134 10.7549C8.87454 11.818 9.49687 12.978 10.3273 13.7613C10.9506 14.3493 11.6414 14.6816 12.3502 14.6816C12.9518 14.6816 13.5513 14.3803 14.1054 13.7915C14.9873 12.8544 15.6135 11.3252 15.7486 9.87663C15.8271 9.03454 15.7331 8.28549 15.4845 7.73336C15.2781 7.27507 14.972 6.95816 14.5426 6.79792Z" fill="#6B7084"/>
</svg>
