<svg width="24" height="24" viewBox="0 0 24 24" fill="none" xmlns="http://www.w3.org/2000/svg">
<path fill-rule="evenodd" clip-rule="evenodd" d="M4.39934 12.7787C3.95763 12.7787 3.59956 13.1414 3.59956 13.5887V19.5701C3.59956 20.0174 3.95763 20.3801 4.39934 20.3801H15.1045C15.5462 20.3801 15.9043 20.0174 15.9043 19.5701V13.5887C15.9043 13.1414 15.5462 12.7787 15.1045 12.7787H4.39934ZM2 13.5887C2 12.2467 3.07422 11.1588 4.39934 11.1588H15.1045C16.3366 11.1588 17.3518 12.0993 17.4883 13.3101L19.4972 11.9181C20.5588 11.1825 22 11.9524 22 13.2551V19.8337C22 21.1633 20.5058 21.9267 19.4499 21.1365L17.5015 19.6786C17.4455 20.9702 16.3937 22 15.1045 22H4.39934C3.07422 22 2 20.9121 2 19.5701V13.5887ZM17.5038 17.6661L20.4004 19.8337V13.2551L17.5038 15.2621V17.6661Z" fill="#6B7084"/>
<path fill-rule="evenodd" clip-rule="evenodd" d="M5.73963 9.82967C6.91751 9.82967 7.87238 8.86265 7.87238 7.66976C7.87238 6.47687 6.91751 5.50985 5.73963 5.50985C4.56175 5.50985 3.60688 6.47687 3.60688 7.66976C3.60688 8.86265 4.56175 9.82967 5.73963 9.82967ZM5.73963 11.4496C7.80092 11.4496 9.47193 9.75731 9.47193 7.66976C9.47193 5.58221 7.80092 3.88992 5.73963 3.88992C3.67833 3.88992 2.00732 5.58221 2.00732 7.66976C2.00732 9.75731 3.67833 11.4496 5.73963 11.4496Z" fill="#6B7084"/>
<path fill-rule="evenodd" clip-rule="evenodd" d="M13.87 9.82968C15.5632 9.82968 16.9358 8.43958 16.9358 6.72481C16.9358 5.01003 15.5632 3.61993 13.87 3.61993C12.1768 3.61993 10.8042 5.01003 10.8042 6.72481C10.8042 8.43958 12.1768 9.82968 13.87 9.82968ZM13.87 11.4496C16.4466 11.4496 18.5354 9.33424 18.5354 6.72481C18.5354 4.11537 16.4466 2 13.87 2C11.2934 2 9.20459 4.11537 9.20459 6.72481C9.20459 9.33424 11.2934 11.4496 13.87 11.4496Z" fill="#6B7084"/>
</svg>
