<svg viewBox="0 0 24 24" fill="none" xmlns="http://www.w3.org/2000/svg">
<path fill-rule="evenodd" clip-rule="evenodd" d="M4.59179 2.61878C5.41691 1.79366 6.7547 1.79366 7.57982 2.61878L9.9266 4.96556C10.7818 5.82077 10.6314 7.05653 10.2729 7.84145C9.89259 8.67423 10.0323 9.52333 10.5387 10.0298L14.4343 13.9253C14.9407 14.4318 15.7898 14.5715 16.6226 14.1911C17.4075 13.8326 18.6433 13.6822 19.4985 14.5375L21.3812 16.4201C22.2063 17.2452 22.2063 18.583 21.3812 19.4081L19.9021 20.8872C18.9329 21.8564 17.4749 22.3039 16.099 21.7751C14.1414 21.0226 10.8262 19.4097 7.70823 16.2917C4.59025 13.1737 2.97729 9.85853 2.22486 7.90096C1.696 6.52505 2.14351 5.06707 3.11273 4.09784L4.59179 2.61878ZM6.37261 3.82599C6.21421 3.66759 5.9574 3.66759 5.799 3.82599L4.31994 5.30505C3.75247 5.87252 3.5676 6.63581 3.81844 7.28843C4.51309 9.09565 6.01401 12.1831 8.91543 15.0845C11.8169 17.9859 14.9043 19.4869 16.7115 20.1815C17.3641 20.4323 18.1274 20.2475 18.6949 19.68L20.174 18.2009C20.3323 18.0425 20.3323 17.7857 20.174 17.6273L18.2913 15.7447C18.163 15.6164 17.8121 15.5247 17.3319 15.7441C15.979 16.3619 14.3304 16.2359 13.2271 15.1325L9.33154 11.237C8.22818 10.1336 8.10212 8.48503 8.71999 7.13218C8.93935 6.65191 8.8477 6.30107 8.71939 6.17277L6.37261 3.82599Z" fill="currentColor"/>
<path fill-rule="evenodd" clip-rule="evenodd" d="M13.139 3.27463C13.2049 2.80781 13.6368 2.48279 14.1036 2.54868L13.9843 3.39393C14.1036 2.54868 14.1036 2.54868 14.1036 2.54868L14.1062 2.54905L14.1097 2.54956L14.1195 2.55102L14.1497 2.55579C14.1746 2.55983 14.2086 2.56564 14.251 2.57353C14.3359 2.58932 14.4547 2.61348 14.6013 2.64854C14.8942 2.71855 15.3008 2.83266 15.7712 3.01157C16.7076 3.3677 17.9249 3.99141 18.9949 5.06137C20.0649 6.13133 20.6886 7.3487 21.0447 8.28504C21.2236 8.75545 21.3377 9.16207 21.4077 9.45493C21.4428 9.60159 21.467 9.72041 21.4827 9.80526C21.4906 9.8477 21.4964 9.88171 21.5005 9.90652L21.5052 9.93677L21.5067 9.94655L21.5072 9.95008L21.5074 9.9515C21.5074 9.9515 21.5076 9.95269 20.6623 10.072L21.5074 9.9515C21.5733 10.4183 21.2485 10.8514 20.7816 10.9172C20.3154 10.983 19.884 10.6589 19.8173 10.193L19.8154 10.1807C19.8133 10.1681 19.8097 10.1468 19.8043 10.1175C19.7934 10.0588 19.7751 9.96836 19.7473 9.85187C19.6915 9.61842 19.5978 9.28329 19.449 8.89195C19.1496 8.10479 18.6378 7.11865 17.7877 6.26858C16.9376 5.4185 15.9515 4.90669 15.1643 4.6073C14.773 4.45846 14.4378 4.36481 14.2044 4.30901C14.0879 4.28116 13.9974 4.2629 13.9388 4.25199C13.9095 4.24653 13.8882 4.24293 13.8756 4.24088L13.8634 4.23896C13.3969 4.17283 13.0732 3.74127 13.139 3.27463Z" fill="currentColor"/>
<path fill-rule="evenodd" clip-rule="evenodd" d="M12.2273 6.52038C12.297 6.05411 12.7315 5.7326 13.1977 5.80227L13.0716 6.64652C13.1977 5.80227 13.1977 5.80227 13.1977 5.80227L13.2002 5.80264L13.2032 5.80311L13.2112 5.80436L13.2342 5.80818C13.2527 5.81133 13.2773 5.81574 13.3075 5.82162C13.368 5.83337 13.4514 5.85102 13.5535 5.87624C13.7572 5.92657 14.0383 6.0077 14.3631 6.13356C15.0083 6.38361 15.8532 6.82082 16.6013 7.5689C17.3493 8.31697 17.7866 9.16188 18.0366 9.80707C18.1625 10.1318 18.2436 10.4129 18.2939 10.6167C18.3191 10.7188 18.3368 10.8021 18.3485 10.8626C18.3544 10.8929 18.3588 10.9175 18.362 10.936L18.3658 10.959L18.3671 10.9669L18.3675 10.97L18.3677 10.9713C18.3677 10.9713 18.3679 10.9724 17.5236 11.0986L18.3677 10.9713C18.4374 11.4375 18.1161 11.8732 17.6498 11.9428C17.1847 12.0123 16.7513 11.6927 16.6799 11.2284L16.6791 11.2236C16.6781 11.2173 16.6759 11.2053 16.6726 11.1881C16.6659 11.1535 16.6543 11.0983 16.6365 11.0261C16.6007 10.8812 16.5403 10.6708 16.4447 10.424C16.2518 9.92618 15.926 9.30805 15.3941 8.7761C14.8621 8.24416 14.244 7.91838 13.7462 7.72545C13.4994 7.62982 13.289 7.56946 13.1441 7.53367C13.0719 7.51583 13.0166 7.50427 12.9821 7.49757C12.9649 7.49422 12.9529 7.4921 12.9466 7.49102L12.9418 7.49022C12.4775 7.41883 12.1579 6.98542 12.2273 6.52038Z" fill="currentColor"/>
</svg>