<svg width="24" height="24" viewBox="0 0 24 24" fill="none" xmlns="http://www.w3.org/2000/svg">
<path fill-rule="evenodd" clip-rule="evenodd" d="M6.04046 6.94938C6.04046 5.88944 6.89972 5.03019 7.95966 5.03019H10.99C12.0499 5.03019 12.9092 5.88944 12.9092 6.94938V8.96959C12.9092 10.0295 12.0499 10.8888 10.99 10.8888H7.95966C6.89972 10.8888 6.04046 10.0295 6.04046 8.96959V6.94938ZM7.95966 6.84837C7.90387 6.84837 7.85865 6.89359 7.85865 6.94938V8.96959C7.85865 9.02537 7.90387 9.0706 7.95966 9.0706H10.99C11.0458 9.0706 11.091 9.02537 11.091 8.96959V6.94938C11.091 6.89359 11.0458 6.84837 10.99 6.84837H7.95966Z" fill="#6B7084"/>
<path fill-rule="evenodd" clip-rule="evenodd" d="M5.9394 1.99991C4.32159 1.99991 3.0101 3.3114 3.0101 4.92921V16.5735C3.0101 16.746 2.96994 16.9161 2.8928 17.0704L2.26852 18.319C2.09193 18.6721 2 19.0616 2 19.4564C2 20.8612 3.13875 21.9999 4.54347 21.9999H14.406C15.8108 21.9999 16.9495 20.8612 16.9495 19.4564C16.9495 19.0616 16.8576 18.6721 16.681 18.319L16.0567 17.0704C15.9796 16.9161 15.9394 16.746 15.9394 16.5735V9.87964L16.6219 9.88036C16.9145 9.88067 17.1515 10.118 17.1515 10.4106V15.6052C17.1515 16.9441 18.2369 18.0294 19.5758 18.0294C20.9147 18.0294 22 16.9441 22 15.6052V8.76127C22 8.06227 21.7501 7.38632 21.2953 6.85548L19.3178 4.54719C18.9912 4.1659 18.4173 4.1216 18.036 4.44825C17.6547 4.7749 17.6104 5.3488 17.937 5.73009L18.4515 6.33065C18.3439 6.84547 18.4386 7.52195 18.753 8.18717C19.1069 8.93606 19.6526 9.48743 20.1818 9.69946V15.6052C20.1818 15.9399 19.9105 16.2112 19.5758 16.2112C19.2411 16.2112 18.9697 15.9399 18.9697 15.6052V10.4106C18.9697 9.11456 17.9198 8.06354 16.6238 8.06217L15.9394 8.06145V4.92921C15.9394 3.3114 14.6279 1.99991 13.0101 1.99991H5.9394ZM4.82829 4.92921C4.82829 4.31556 5.32575 3.81809 5.9394 3.81809H13.0101C13.6238 3.81809 14.1212 4.31556 14.1212 4.92921V16.5735C14.1212 17.0283 14.2271 17.4768 14.4305 17.8835L15.0548 19.1321C15.1051 19.2328 15.1313 19.3438 15.1313 19.4564C15.1313 19.857 14.8066 20.1817 14.406 20.1817H4.54347C4.14291 20.1817 3.81818 19.857 3.81818 19.4564C3.81818 19.3438 3.8444 19.2328 3.89476 19.1321L4.51903 17.8835C4.72241 17.4768 4.82829 17.0283 4.82829 16.5735V4.92921Z" fill="#6B7084"/>
</svg>
