<svg viewBox="0 0 24 24" fill="none" xmlns="http://www.w3.org/2000/svg">
<path fill-rule="evenodd" clip-rule="evenodd" d="M4.59179 2.61878C5.41691 1.79366 6.7547 1.79366 7.57982 2.61878L9.9266 4.96556C10.7818 5.82077 10.6314 7.05653 10.2729 7.84145C9.89259 8.67423 10.0323 9.52333 10.5387 10.0298L14.4343 13.9253C14.9407 14.4318 15.7898 14.5715 16.6226 14.1911C17.4075 13.8326 18.6433 13.6822 19.4985 14.5375L21.3812 16.4201C22.2063 17.2452 22.2063 18.583 21.3812 19.4081L19.9021 20.8872C18.9329 21.8564 17.4749 22.3039 16.099 21.7751C14.1414 21.0226 10.8262 19.4097 7.70823 16.2917C4.59025 13.1737 2.97729 9.85853 2.22486 7.90096C1.696 6.52505 2.14351 5.06707 3.11273 4.09784L4.59179 2.61878ZM6.37261 3.82599C6.21421 3.66759 5.9574 3.66759 5.799 3.82599L4.31994 5.30505C3.75247 5.87252 3.5676 6.63581 3.81844 7.28843C4.51309 9.09565 6.01401 12.1831 8.91543 15.0845C11.8169 17.9859 14.9043 19.4869 16.7115 20.1815C17.3641 20.4323 18.1274 20.2475 18.6949 19.68L20.174 18.2009C20.3323 18.0425 20.3323 17.7857 20.174 17.6273L18.2913 15.7447C18.163 15.6164 17.8121 15.5247 17.3319 15.7441C15.979 16.3619 14.3304 16.2359 13.2271 15.1325L9.33154 11.237C8.22818 10.1336 8.10212 8.48503 8.71999 7.13218C8.93935 6.65191 8.8477 6.30107 8.71939 6.17277L6.37261 3.82599Z" fill="currentColor"/>
</svg>