<svg viewBox="0 0 24 24" fill="none" xmlns="http://www.w3.org/2000/svg">
<path fill-rule="evenodd" clip-rule="evenodd" d="M11.0253 17.2865L14.6919 15.1695C15.5067 14.6991 15.5067 13.523 14.6919 13.0526L11.0253 10.9356C10.2104 10.4652 9.19192 11.0533 9.19192 11.9941V16.228C9.19192 17.1689 10.2104 17.7569 11.0253 17.2865ZM10.7475 12.5715L13.4141 14.1111L10.7475 15.6507V12.5715Z" fill="currentColor"/>
<path fill-rule="evenodd" clip-rule="evenodd" d="M2 6.44444C2 3.98985 3.98985 2 6.44444 2H17.5556C20.0102 2 22 3.98985 22 6.44444V17.5556C22 20.0102 20.0102 22 17.5556 22H6.44444C3.98985 22 2 20.0102 2 17.5556V6.44444ZM14.854 3.55556H17.5556C17.8058 3.55556 18.0485 3.58737 18.2801 3.64716L14.8704 7.05684H11.3542L14.8285 3.5825C14.8373 3.5737 14.8458 3.56472 14.854 3.55556ZM12.9699 3.55556H9.58386C9.57565 3.56472 9.56714 3.57372 9.55833 3.58252L6.08402 7.05684L9.46858 7.05684L12.9699 3.55556ZM4.1984 7.05684L7.69968 3.55556H6.44444C4.84896 3.55556 3.55556 4.84896 3.55556 6.44444V7.05684H4.1984ZM16.756 7.05684H20.4444V6.44444C20.4444 5.59909 20.0814 4.83854 19.5026 4.31025L16.756 7.05684ZM3.55556 8.61239L20.4444 8.61239V17.5556C20.4444 19.151 19.151 20.4444 17.5556 20.4444H6.44444C4.84896 20.4444 3.55556 19.151 3.55556 17.5556V8.61239Z" fill="currentColor"/>
</svg>