<svg viewBox="0 0 24 24" fill="none" xmlns="http://www.w3.org/2000/svg">
<path fill-rule="evenodd" clip-rule="evenodd" d="M9.12644 6.14943C9.12644 5.51462 9.64105 5 10.2759 5H13.7241C14.3589 5 14.8736 5.51462 14.8736 6.14943V15.3448C14.8736 15.9796 14.3589 16.4943 13.7241 16.4943H10.2759C9.64105 16.4943 9.12644 15.9796 9.12644 15.3448V6.14943ZM13.2644 14.8851H10.7356V6.6092H13.2644V14.8851Z" fill="currentColor"/>
<path fill-rule="evenodd" clip-rule="evenodd" d="M2.17053 10.7471C2.17053 10.1123 2.68515 9.5977 3.31996 9.5977H6.76824C7.40305 9.5977 7.91766 10.1123 7.91766 10.7471V15.3448C7.91766 15.9796 7.40305 16.4943 6.76824 16.4943H3.31996C2.68515 16.4943 2.17053 15.9796 2.17053 15.3448V10.7471ZM3.77973 14.8851V11.2069H6.30847V14.8851H3.77973Z" fill="currentColor"/>
<path fill-rule="evenodd" clip-rule="evenodd" d="M17.2318 9.5977C16.597 9.5977 16.0823 10.1123 16.0823 10.7471V15.3448C16.0823 15.9796 16.597 16.4943 17.2318 16.4943H20.68C21.3148 16.4943 21.8295 15.9796 21.8295 15.3448V10.7471C21.8295 10.1123 21.3148 9.5977 20.68 9.5977H17.2318ZM17.6915 11.2069V14.8851H20.2203V11.2069H17.6915Z" fill="currentColor"/>
<path d="M2.8046 17.5752C2.36023 17.5752 2 17.9354 2 18.3798C2 18.8241 2.36023 19.1844 2.8046 19.1844H21.1954C21.6398 19.1844 22 18.8241 22 18.3798C22 17.9354 21.6398 17.5752 21.1954 17.5752H2.8046Z" fill="currentColor"/>
</svg>