<svg viewBox="0 0 24 24" fill="none" xmlns="http://www.w3.org/2000/svg">
<path fill-rule="evenodd" clip-rule="evenodd" d="M15.88 10.6491C15.9727 10.0983 15.5059 9.61334 14.9457 9.67859L4.44173 10.9021C3.98296 10.9555 3.65208 11.3631 3.69805 11.8182L4.25129 17.2957C4.28065 17.5864 4.52774 17.8078 4.82284 17.8078C6.12825 17.8078 7.14266 18.8887 7.08947 20.143C7.15817 20.1209 7.22777 20.0962 7.29751 20.0686C7.91846 19.8227 8.48174 19.3841 8.62915 18.5084C8.69721 18.1041 9.0505 17.8078 9.46446 17.8078H13.9575C14.3715 17.8078 14.7248 17.5115 14.7928 17.1072L15.88 10.6491ZM6.07714 21.1615C6.07714 21.9999 6.07788 21.9999 6.07788 21.9999L6.08053 21.9999L6.08504 21.9999L6.09733 21.9998C6.10696 21.9996 6.11944 21.9994 6.1346 21.999C6.16489 21.9981 6.20601 21.9965 6.25655 21.9935C6.35741 21.9874 6.497 21.9756 6.66389 21.9526C6.99453 21.9069 7.44867 21.8148 7.92652 21.6255C8.74447 21.3016 9.67945 20.6656 10.1152 19.4846H13.9575C15.1994 19.4846 16.2593 18.5957 16.4635 17.3829L17.5506 10.9248C17.8288 9.27233 16.4283 7.81748 14.7478 8.01322L4.24384 9.23672C2.86753 9.39703 1.8749 10.6198 2.01279 11.9851L2.56603 17.4625C2.68197 18.6105 3.65762 19.4846 4.82284 19.4846C5.17779 19.4846 5.44778 19.8002 5.38943 20.1468L5.24182 21.0237C5.2009 21.2668 5.27008 21.5154 5.43099 21.7034C5.59189 21.8915 5.82895 21.9999 6.07788 21.9999L6.07714 21.1615Z" fill="currentColor"/>
<path d="M5.23022 12.6935C5.23022 12.2768 5.56806 11.9389 5.98481 11.9389H12.944C13.3607 11.9389 13.6985 12.2768 13.6985 12.6935C13.6985 13.1103 13.3607 13.4481 12.944 13.4481H5.98481C5.56806 13.4481 5.23022 13.1103 5.23022 12.6935Z" fill="currentColor"/>
<path d="M5.23022 15.2088C5.23022 14.792 5.56806 14.4542 5.98481 14.4542H12.944C13.3607 14.4542 13.6985 14.792 13.6985 15.2088C13.6985 15.6255 13.3607 15.9634 12.944 15.9634H5.98481C5.56806 15.9634 5.23022 15.6255 5.23022 15.2088Z" fill="currentColor"/>
<path fill-rule="evenodd" clip-rule="evenodd" d="M8.14264 4.6654C8.04449 4.13091 8.47779 3.64654 9.02555 3.67844L19.509 4.28899C19.9895 4.31697 20.3498 4.73526 20.3019 5.2094L19.7053 11.1162C18.9157 11.2322 18.3502 11.9724 18.4859 12.7789L18.6186 13.5669C18.5965 13.561 18.5744 13.5547 18.5523 13.548C18.3156 13.4759 18.0975 13.3585 17.9221 13.1733C17.751 12.9927 17.5793 12.7044 17.4979 12.2202C17.421 11.7635 16.9847 11.4549 16.5233 11.5311C16.062 11.6072 15.7503 12.0392 15.8272 12.4959C15.9574 13.2695 16.2621 13.872 16.6865 14.3202C17.1065 14.7638 17.6029 15.0132 18.0542 15.1507C18.5021 15.2871 18.9219 15.3188 19.2229 15.3188C19.3754 15.3188 19.503 15.3106 19.5958 15.302C19.6423 15.2977 19.6805 15.2932 19.7091 15.2894C19.7235 15.2875 19.7354 15.2858 19.7449 15.2844L19.7572 15.2825L19.7619 15.2818L19.7639 15.2815C19.7639 15.2815 19.7657 15.2812 19.6265 14.4542L19.7657 15.2812C20.227 15.205 20.5387 14.7731 20.4618 14.3163L20.1983 12.7513C20.8192 12.633 21.3057 12.1232 21.3708 11.4792L21.9872 5.37625C22.1308 3.95384 21.0498 2.69898 19.6085 2.61503L9.125 2.00448C7.48174 1.90877 6.18183 3.36189 6.4763 4.96537L7 7C7.08366 7.45558 7.52451 7.75775 7.98466 7.67492C8.44481 7.59209 8.75001 7.15562 8.66635 6.70004L8.14264 4.6654Z" fill="currentColor"/>
<path d="M10.3113 6.23766C10.3113 5.82092 10.6491 5.48308 11.0659 5.48308H18.025C18.4418 5.48308 18.7796 5.82092 18.7796 6.23766C18.7796 6.65441 18.4418 6.99225 18.025 6.99225H11.0659C10.6491 6.99225 10.3113 6.65441 10.3113 6.23766Z" fill="currentColor"/>
</svg>