<svg width="24" height="24" viewBox="0 0 24 24" fill="none" xmlns="http://www.w3.org/2000/svg">
<path fill-rule="evenodd" clip-rule="evenodd" d="M2 10.4983C2 5.80482 5.80482 2 10.4983 2C15.1918 2 18.9966 5.80482 18.9966 10.4983C18.9966 12.3515 18.4034 14.0662 17.3966 15.4628L21.764 19.8303C22.0764 20.1427 22.0764 20.6492 21.764 20.9616C21.4516 21.2741 20.9451 21.2741 20.6327 20.9616L16.3408 16.6698C14.8178 18.112 12.7614 18.9966 10.4983 18.9966C5.80482 18.9966 2 15.1918 2 10.4983ZM10.4983 3.6C6.68848 3.6 3.6 6.68848 3.6 10.4983C3.6 14.3081 6.68848 17.3966 10.4983 17.3966C14.3081 17.3966 17.3966 14.3081 17.3966 10.4983C17.3966 6.68848 14.3081 3.6 10.4983 3.6ZM11.3231 9.9344H13.7231C14.1538 9.9344 14.4 10.3019 14.4 10.7306C14.4 11.1593 14.0308 11.5267 13.6 11.5267H11.2V13.9038C11.2 14.3325 10.8308 14.7 10.4 14.7C9.96922 14.7 9.59999 14.3325 9.59999 13.9038V11.5267H7.19999C6.76922 11.5267 6.39999 11.1593 6.39999 10.7306C6.39999 10.3019 6.76922 9.9344 7.19999 9.87316H9.66153V7.49612C9.66153 7.06742 10.0308 6.69995 10.5231 6.69995C10.9538 6.69995 11.3231 7.06742 11.3231 7.49612V9.9344Z" fill="#6B7084"/>
</svg>
