<svg width="24" height="24" viewBox="0 0 24 24" fill="none" xmlns="http://www.w3.org/2000/svg">
<path d="M14.8502 14.7408V9.81675C14.8502 9.54984 14.6338 9.33347 14.3669 9.33347C14.1251 9.33347 13.9016 9.4625 13.7807 9.67196L12.6325 11.661C12.3708 12.1143 12.3801 12.6748 12.6566 13.1191C12.9377 13.571 13.3154 13.9513 13.7595 14.2347L13.5088 18.2912C13.4806 18.7471 13.8428 19.1324 14.2997 19.1324C14.7584 19.1324 15.1213 18.7441 15.0902 18.2865L14.8502 14.7408Z" fill="#6B7084"/>
<path d="M8.03928 10.5802C8.10019 9.87496 8.69047 9.33347 9.39838 9.33347C10.1091 9.33347 10.7007 9.87915 10.7581 10.5876L10.8806 12.1004C10.8908 12.2267 10.8865 12.3538 10.8677 12.4792L10.8431 12.6437C10.7612 13.1913 10.3825 13.6302 9.88507 13.8068L10.1886 18.2865C10.2196 18.7441 9.85671 19.1324 9.39801 19.1324C8.94117 19.1324 8.57897 18.7471 8.60714 18.2912L8.8847 13.799C8.40237 13.6192 8.03535 13.1915 7.95018 12.6578L7.92371 12.4919C7.90236 12.3582 7.89746 12.2223 7.90911 12.0873L8.03928 10.5802Z" fill="#6B7084"/>
<path fill-rule="evenodd" clip-rule="evenodd" d="M13.6824 2.70301C13.6824 2.4555 13.5522 2.22622 13.3397 2.09936C13.1272 1.9725 12.8636 1.96675 12.6457 2.08422L5.77592 5.78851L5.7698 5.79185C4.74471 6.10888 4 7.06418 4 8.19341V19.4866C4 20.8747 5.12527 22 6.51337 22H16.5512C17.9393 22 19.0646 20.8747 19.0646 19.4866V8.19341C19.0646 6.80532 17.9393 5.68004 16.5512 5.68004H13.6824V2.70301ZM12.2764 5.68004V3.88079L8.93956 5.68004H12.2764ZM6.51337 7.08607H16.5512C17.1628 7.08607 17.6585 7.58184 17.6585 8.19341V19.4866C17.6585 20.0982 17.1628 20.594 16.5512 20.594H6.51337C5.9018 20.594 5.40603 20.0982 5.40603 19.4866V8.19341C5.40603 7.58184 5.9018 7.08607 6.51337 7.08607Z" fill="#6B7084"/>
</svg>
