<svg viewBox="0 0 24 24" fill="none" xmlns="http://www.w3.org/2000/svg">
<path d="M5.13252 2.86424C5.13252 2.38693 4.74558 2 4.26828 2C3.79097 2 3.40403 2.38693 3.40403 2.86424V18.9224H2.86424C2.38694 18.9224 2 19.3094 2 19.7867C2 20.264 2.38694 20.6509 2.86424 20.6509H3.40403V21.1358C3.40403 21.6131 3.79097 22 4.26828 22C4.74558 22 5.13252 21.6131 5.13252 21.1358V20.6509H21.1358C21.6131 20.6509 22 20.264 22 19.7867C22 19.3094 21.6131 18.9224 21.1358 18.9224H5.13252V2.86424Z" fill="currentColor"/>
<path fill-rule="evenodd" clip-rule="evenodd" d="M9.23499 6.0656C9.23499 5.0428 10.0641 4.21365 11.0869 4.21365C12.1097 4.21365 12.9389 5.0428 12.9389 6.0656C12.9389 7.08841 12.1097 7.91755 11.0869 7.91755C10.0641 7.91755 9.23499 7.08841 9.23499 6.0656ZM11.0869 5.44829C10.746 5.44829 10.4696 5.72467 10.4696 6.0656C10.4696 6.40654 10.746 6.68292 11.0869 6.68292C11.4279 6.68292 11.7043 6.40654 11.7043 6.0656C11.7043 5.72467 11.4279 5.44829 11.0869 5.44829Z" fill="currentColor"/>
<path fill-rule="evenodd" clip-rule="evenodd" d="M16.1534 13.851C15.1306 13.851 14.3014 14.6802 14.3014 15.703C14.3014 16.7258 15.1306 17.5549 16.1534 17.5549C17.1762 17.5549 18.0053 16.7258 18.0053 15.703C18.0053 14.6802 17.1762 13.851 16.1534 13.851ZM15.5361 15.703C15.5361 15.362 15.8125 15.0856 16.1534 15.0856C16.4943 15.0856 16.7707 15.362 16.7707 15.703C16.7707 16.0439 16.4943 16.3203 16.1534 16.3203C15.8125 16.3203 15.5361 16.0439 15.5361 15.703Z" fill="currentColor"/>
<path fill-rule="evenodd" clip-rule="evenodd" d="M16.5146 4.88842C18.0147 4.88842 19.2308 6.1045 19.2308 7.60461C19.2308 9.10472 18.0147 10.3208 16.5146 10.3208C15.0145 10.3208 13.7984 9.10472 13.7984 7.60461C13.7984 6.1045 15.0145 4.88842 16.5146 4.88842ZM17.5023 7.60461C17.5023 7.05911 17.0601 6.6169 16.5146 6.6169C15.9691 6.6169 15.5269 7.05911 15.5269 7.60461C15.5269 8.15011 15.9691 8.59232 16.5146 8.59232C17.0601 8.59232 17.5023 8.15011 17.5023 7.60461Z" fill="currentColor"/>
<path fill-rule="evenodd" clip-rule="evenodd" d="M14.3055 12.5205C14.3055 10.3386 12.5366 8.56972 10.3546 8.56971C8.17265 8.56971 6.40381 10.3386 6.40381 12.5205C6.40381 14.7025 8.17265 16.4714 10.3546 16.4714C12.5366 16.4714 14.3055 14.7025 14.3055 12.5205ZM10.3546 10.2982C11.582 10.2982 12.577 11.2932 12.577 12.5205C12.577 13.7479 11.582 14.7429 10.3546 14.7429C9.12727 14.7429 8.13229 13.7479 8.13229 12.5205C8.13229 11.2932 9.12727 10.2982 10.3546 10.2982Z" fill="currentColor"/>
</svg>