<svg viewBox="0 0 24 24" fill="none" xmlns="http://www.w3.org/2000/svg">
<path fill-rule="evenodd" clip-rule="evenodd" d="M22 16.5043C22 17.2208 21.8114 17.8932 21.4812 18.4746C21.4484 18.575 21.3913 18.6696 21.31 18.7496C20.5909 19.8061 19.3786 20.5 18.0043 20.5H5.99572C3.78894 20.5 2 18.7111 2 16.5043V6.99572C2 4.78894 3.78894 3 5.99572 3H18.0043C20.2111 3 22 4.78894 22 6.99572V16.5043ZM5.99572 4.3985H18.0043C19.4387 4.3985 20.6015 5.56132 20.6015 6.99572V7.37248L12.095 13.5274L3.3985 7.37083V6.99572C3.3985 5.56132 4.56132 4.3985 5.99572 4.3985ZM3.3985 9.08431V16.5043C3.3985 16.6255 3.40681 16.7449 3.42289 16.8617L8.04155 12.3713L3.3985 9.08431ZM9.20199 13.1929L4.03911 18.2123C4.51521 18.7573 5.21526 19.1015 5.99572 19.1015H18.0043C18.7315 19.1015 19.3889 18.8026 19.8604 18.321L14.7382 13.3411L12.5093 14.9538C12.2668 15.1293 11.9396 15.131 11.6954 14.958L9.20199 13.1929ZM15.8879 12.5092L20.5465 17.0384C20.5826 16.866 20.6015 16.6874 20.6015 16.5043V9.09867L15.8879 12.5092Z" fill="currentColor"/>
</svg>