<svg viewBox="0 0 24 24" fill="none" xmlns="http://www.w3.org/2000/svg">
<path d="M22 11.5939V8.44478C22 6.54589 20.4383 5 18.52 5C18.0826 5 17.7295 5.34952 17.7295 5.78251C17.7295 6.2155 18.0826 6.56502 18.52 6.56502C19.567 6.56502 20.419 7.40839 20.419 8.44478V10.1541C19.5424 9.35075 18.3689 8.86038 17.0812 8.86038H6.91875C5.63109 8.86038 4.45762 9.35075 3.58103 10.1541V8.44478C3.58103 7.40839 4.43303 6.56502 5.48002 6.56502C5.91744 6.56502 6.27053 6.2155 6.27053 5.78251C6.27053 5.34952 5.91744 5 5.48002 5C3.5617 5 2 6.54589 2 8.44478V11.5922C2 11.8217 2.10189 12.0252 2.25999 12.1695C2.0931 12.6599 2 13.185 2 13.7311C2 16.4194 4.2029 18.6 6.91875 18.6C9.63461 18.6 11.8375 16.4194 11.8375 13.7311C11.8375 12.4564 11.3421 11.2948 10.5305 10.4271H13.4695C12.6579 11.2948 12.1625 12.4564 12.1625 13.7311C12.1625 16.4194 14.3654 18.6 17.0812 18.6C19.7971 18.6 22 16.4194 22 13.7311C22 13.185 21.9087 12.6599 21.74 12.1695C21.8981 12.0269 22 11.8217 22 11.5922V11.5939ZM10.2565 13.7311C10.2565 15.5552 8.76153 17.035 6.91875 17.035C5.07598 17.035 3.58103 15.5552 3.58103 13.7311C3.58103 11.9069 5.07598 10.4271 6.91875 10.4271C8.76153 10.4271 10.2565 11.9069 10.2565 13.7311ZM17.0812 17.035C15.2385 17.035 13.7435 15.5552 13.7435 13.7311C13.7435 11.9069 15.2385 10.4271 17.0812 10.4271C18.924 10.4271 20.419 11.9069 20.419 13.7311C20.419 15.5552 18.924 17.035 17.0812 17.035Z" fill="currentColor"/>
</svg>