<svg width="24" height="24" viewBox="0 0 24 24" fill="none" xmlns="http://www.w3.org/2000/svg">
<path fill-rule="evenodd" clip-rule="evenodd" d="M13.327 2C12.8375 2 12.4407 2.39683 12.4407 2.88634V9.41708C12.4407 11.6071 14 13.4328 16.069 13.8447L16.0689 13.8573V20.2273H14.7783C14.2888 20.2273 13.892 20.6241 13.892 21.1137C13.892 21.6032 14.2888 22 14.7783 22H19.1321C19.6216 22 20.0185 21.6032 20.0185 21.1137C20.0185 20.6241 19.6216 20.2273 19.1321 20.2273H17.8416V13.8573L17.8415 13.8447C19.9104 13.4328 21.4697 11.6071 21.4697 9.41708V2.88634C21.4697 2.39683 21.0729 2 20.5834 2H13.327ZM14.2134 7.18829V3.77268H19.6971V5.73157C19.6523 5.73528 19.6072 5.74303 19.5622 5.75507L14.2134 7.18829ZM14.2134 8.74871V9.41708C14.2134 10.9314 15.4409 12.1589 16.9552 12.1589C18.4695 12.1589 19.6971 10.9314 19.6971 9.41708V7.29197L14.3482 8.72521C14.3032 8.73725 14.2581 8.745 14.2134 8.74871Z" fill="#6B7084"/>
<path d="M3.77268 2.88635C3.77268 2.39684 3.37585 2.00002 2.88634 2.00002C2.39683 2.00002 2 2.39684 2 2.88635V9.06162C2 10.9497 3.53062 12.4803 5.41873 12.4803H5.88212V21.1137C5.88212 21.6032 6.27895 22 6.76846 22C7.25797 22 7.6548 21.6032 7.6548 21.1137V12.4803H7.95112C9.83924 12.4803 11.3699 10.9497 11.3699 9.06162V2.88635C11.3699 2.39684 10.973 2.00002 10.4835 2.00002C9.99401 2.00002 9.59718 2.39684 9.59718 2.88635V9.06162C9.59718 9.97071 8.86021 10.7077 7.95112 10.7077H7.6548V2.88634C7.6548 2.39683 7.25797 2 6.76846 2C6.27895 2 5.88212 2.39683 5.88212 2.88634V10.7077H5.41873C4.50964 10.7077 3.77268 9.97071 3.77268 9.06162V2.88635Z" fill="#6B7084"/>
</svg>
