<svg width="24" height="24" viewBox="0 0 24 24" fill="none" xmlns="http://www.w3.org/2000/svg">
<path fill-rule="evenodd" clip-rule="evenodd" d="M21.783 20.5607C21.6383 20.7052 21.4489 20.7778 21.2595 20.7778C21.0701 20.7778 20.8806 20.7052 20.736 20.5607L15.0452 14.8704C13.905 15.7837 12.4612 16.3333 10.89 16.3333C9.04426 16.3333 7.32682 15.5963 6.05459 14.2578C5.77344 13.9615 5.78538 13.4926 6.08143 13.2111C6.37824 12.9296 6.84731 12.9407 7.1292 13.237C8.1188 14.2785 9.45442 14.8519 10.89 14.8519C13.7484 14.8519 16.0743 12.5259 16.0743 9.66667C16.0743 6.80741 13.7484 4.48148 10.89 4.48148C8.44618 4.48148 6.40434 6.18593 5.85846 8.46444L6.66162 7.66148C6.95097 7.37185 7.41929 7.37185 7.70864 7.66148C7.99799 7.95037 7.99799 8.42 7.70864 8.70889L5.6325 10.7859C5.51915 10.9726 5.3342 11.1133 5.10079 11.143C5.07319 11.1459 5.04784 11.1363 5.02099 11.137C5.00086 11.1385 4.98296 11.1481 4.96282 11.1481C4.91957 11.1481 4.87781 11.1311 4.8353 11.123C4.82188 11.12 4.80846 11.1193 4.79503 11.1156C4.66527 11.0852 4.54074 11.0319 4.43932 10.9311L2.21701 8.70889C1.92766 8.42 1.92766 7.95037 2.21701 7.66148C2.50636 7.37185 2.97543 7.37185 3.26477 7.66148L4.30061 8.69778C4.77266 5.48074 7.54309 3 10.89 3C14.565 3 17.5554 5.99111 17.5554 9.66667C17.5554 11.2385 17.0058 12.6822 16.093 13.823L21.783 19.5133C22.0723 19.8022 22.0723 20.2719 21.783 20.5607Z" fill="#6B7084"/>
</svg>
