<svg viewBox="0 0 24 24" fill="none" xmlns="http://www.w3.org/2000/svg">
<path fill-rule="evenodd" clip-rule="evenodd" d="M11.2124 9.95589C11.2124 11.0288 10.5366 11.9438 9.5874 12.2985V17C9.5874 17.4832 9.19565 17.875 8.7124 17.875C8.22915 17.875 7.8374 17.4832 7.8374 17V12.2985C6.88824 11.9438 6.21242 11.0288 6.21242 9.95589C6.21242 8.88301 6.88824 7.96799 7.8374 7.6133V6.99998C7.8374 6.51674 8.22915 6.12498 8.7124 6.12498C9.19565 6.12498 9.5874 6.51674 9.5874 6.99998V7.61329C10.5366 7.96797 11.2124 8.883 11.2124 9.95589ZM7.46242 9.95589C7.46242 9.60622 7.60599 9.29009 7.8374 9.06323V9.06723C8.06287 8.8462 8.37172 8.70991 8.7124 8.70991C9.05308 8.70991 9.36193 8.8462 9.5874 9.06723V9.0632C9.81883 9.29006 9.96242 9.60621 9.96242 9.95589C9.96242 10.6462 9.40277 11.2059 8.71242 11.2059C8.02206 11.2059 7.46242 10.6462 7.46242 9.95589Z" fill="currentColor"/>
<path fill-rule="evenodd" clip-rule="evenodd" d="M16.1626 16.1889C17.1117 15.8342 17.7876 14.9191 17.7876 13.8463C17.7876 12.7734 17.1117 11.8583 16.1626 11.5037V6.99998C16.1626 6.51674 15.7708 6.12498 15.2876 6.12498C14.8043 6.12498 14.4126 6.51674 14.4126 6.99998V11.5037C13.4634 11.8584 12.7876 12.7734 12.7876 13.8463C12.7876 14.9191 13.4634 15.8342 14.4126 16.1889V17C14.4126 17.4832 14.8043 17.875 15.2876 17.875C15.7708 17.875 16.1626 17.4832 16.1626 17V16.1889ZM14.4126 12.9536C14.1812 13.1805 14.0376 13.4966 14.0376 13.8463C14.0376 14.5366 14.5972 15.0963 15.2876 15.0963C15.9779 15.0963 16.5376 14.5366 16.5376 13.8463C16.5376 13.4966 16.394 13.1804 16.1626 12.9536C15.9371 12.7325 15.6282 12.5966 15.2876 12.5966C14.9469 12.5966 14.638 12.7326 14.4126 12.9536Z" fill="currentColor"/>
<path fill-rule="evenodd" clip-rule="evenodd" d="M7 2C4.23858 2 2 4.23858 2 7V17C2 19.7614 4.23858 22 7 22H17C19.7614 22 22 19.7614 22 17V7C22 4.23858 19.7614 2 17 2H7ZM17 3.75H7C5.20507 3.75 3.75 5.20507 3.75 7V17C3.75 18.7949 5.20507 20.25 7 20.25H17C18.7949 20.25 20.25 18.7949 20.25 17V7C20.25 5.20507 18.7949 3.75 17 3.75Z" fill="currentColor"/>
</svg>