<svg viewBox="0 0 24 24" fill="none" xmlns="http://www.w3.org/2000/svg">
<path fill-rule="evenodd" clip-rule="evenodd" d="M21.756 21.7558C21.5937 21.9183 21.3804 22 21.1671 22C20.9538 22 20.7405 21.9183 20.5774 21.7558L14.1783 15.3558C12.896 16.37 11.2774 16.9808 9.51576 16.9808C5.37185 16.9808 2 13.6217 2 9.49083C2 5.36 5.37185 2 9.51576 2C13.6614 2 17.0332 5.36 17.0332 9.49083C17.0332 11.2675 16.4067 12.9 15.3653 14.185L21.756 20.5775C22.0813 20.9033 22.0813 21.4308 21.756 21.7558ZM9.51575 3.6525C6.28611 3.6525 3.65789 6.27167 3.65789 9.49083C3.65789 12.71 6.28611 15.3283 9.51575 15.3283C12.7462 15.3283 15.3753 12.71 15.3753 9.49083C15.3753 6.27167 12.7462 3.6525 9.51575 3.6525ZM9.91645 8.66667C11.0658 8.66667 12.0001 9.60167 12.0001 10.75C12.0001 11.6025 11.4848 12.3342 10.7504 12.6567V12.8333C10.7504 13.2933 10.3773 13.6667 9.91645 13.6667C9.45638 13.6667 9.08331 13.2933 9.08331 12.8333H8.66675C8.20585 12.8333 7.83361 12.46 7.83361 12C7.83361 11.54 8.20585 11.1667 8.66675 11.1667H9.91645C10.1465 11.1667 10.3338 10.9792 10.3338 10.75C10.3338 10.5208 10.1465 10.3333 9.91645 10.3333C8.76796 10.3333 7.83361 9.39833 7.83361 8.25C7.83361 7.3975 8.34888 6.66583 9.08331 6.34333V6.16667C9.08331 5.70667 9.45638 5.33333 9.91645 5.33333C10.3773 5.33333 10.7504 5.70667 10.7504 6.16667H11.167C11.627 6.16667 12.0001 6.54 12.0001 7C12.0001 7.46 11.627 7.83333 11.167 7.83333H9.91645C9.68725 7.83333 9.49988 8.02083 9.49988 8.25C9.49988 8.48 9.68725 8.66667 9.91645 8.66667Z" fill="currentColor"/>
</svg>