<svg width="24" height="24" viewBox="0 0 24 24" fill="none" xmlns="http://www.w3.org/2000/svg">
<g clip-path="url(#clip0_1265_20888)">
<path d="M24 12C24 14.3734 23.2962 16.6935 21.9776 18.6668C20.6591 20.6402 18.7849 22.1783 16.5922 23.0866C14.3995 23.9948 11.9867 24.2324 9.65892 23.7694C7.33115 23.3064 5.19295 22.1635 3.51472 20.4853C1.83649 18.8071 0.693605 16.6689 0.230582 14.3411C-0.232441 12.0133 0.00519936 9.60051 0.913451 7.4078C1.8217 5.21509 3.35977 3.34094 5.33316 2.02236C7.30655 0.703788 9.62663 0 12 0C15.1826 0 18.2348 1.26428 20.4853 3.51472C22.7357 5.76516 24 8.8174 24 12Z" fill="#006AA8"/>
<path fill-rule="evenodd" clip-rule="evenodd" d="M15.0567 12.1856L14.1811 13.2052H14.1488L14.2563 11.556V7.27246H13.0927V16.6067H14.2563V14.0754L14.9664 13.5834L17.1453 16.6067H18.5001L15.7249 12.87L18.3249 10.0196H16.9572L15.0567 12.1856ZM10.8816 15.3056C11.0371 14.9798 11.1151 14.6224 11.1093 14.2613C11.1162 13.9562 11.0637 13.6526 10.9546 13.3675C10.8547 13.1159 10.7019 12.8887 10.5066 12.7013C10.2847 12.4938 10.0335 12.3201 9.76099 12.1856C9.42709 12.0165 9.08298 11.8683 8.73066 11.7419C8.3668 11.6101 8.05989 11.4862 7.80991 11.3702C7.59745 11.2702 7.39883 11.143 7.21901 10.992C7.07807 10.869 6.96771 10.7149 6.89669 10.5418C6.82753 10.3516 6.79438 10.1501 6.79892 9.94771C6.79211 9.7725 6.82761 9.59823 6.90242 9.43964C6.97723 9.28105 7.08913 9.14282 7.22868 9.03664C7.51876 8.80815 7.92738 8.69391 8.45454 8.69391C8.82469 8.69425 9.19341 8.73971 9.55256 8.82928C9.88166 8.9018 10.2043 9.00097 10.5173 9.12581L10.9471 8.19003C10.5941 8.04003 10.227 7.92558 9.85123 7.84838C9.3949 7.75246 8.9294 7.70707 8.46314 7.71301C8.07344 7.70896 7.68508 7.75923 7.30925 7.86234C6.98583 7.95017 6.68185 8.09815 6.41322 8.29854C6.16865 8.48239 5.97036 8.72078 5.83413 8.99474C5.69189 9.28814 5.62085 9.61096 5.62678 9.93697C5.62214 10.242 5.66565 10.5458 5.7557 10.8373C5.84517 11.0975 5.98417 11.3379 6.16504 11.5453C6.36852 11.7671 6.60431 11.9569 6.86446 12.1083C7.18613 12.2887 7.52254 12.4415 7.87008 12.5649C8.27261 12.7132 8.60531 12.851 8.86818 12.9785C9.09509 13.0787 9.30698 13.21 9.49776 13.3685C9.64447 13.4832 9.75856 13.6344 9.82867 13.8069C9.8967 13.987 9.92953 14.1785 9.92537 14.3709C9.93521 14.5709 9.89461 14.7702 9.80732 14.9504C9.72002 15.1307 9.58882 15.2861 9.42578 15.4023C9.09774 15.6423 8.58776 15.7622 7.89586 15.7622C7.67675 15.762 7.45786 15.748 7.24049 15.7203C7.01702 15.6881 6.80322 15.6473 6.59587 15.6C6.38851 15.5527 6.18545 15.5012 5.99959 15.4378C5.81372 15.3744 5.64719 15.3099 5.5 15.2465V16.3145C5.83186 16.4652 6.18349 16.5679 6.5443 16.6196C6.98988 16.6936 7.44096 16.7295 7.89264 16.727C8.34516 16.7328 8.79642 16.6782 9.23454 16.5648C9.59973 16.4688 9.94323 16.304 10.2466 16.0792C10.5165 15.8752 10.7341 15.6101 10.8816 15.3056Z" fill="white"/>
</g>
<defs>
<clipPath id="clip0_1265_20888">
<rect width="24" height="24" fill="white"/>
</clipPath>
</defs>
</svg>
