<svg viewBox="0 0 24 24" fill="none" xmlns="http://www.w3.org/2000/svg">
<path fill-rule="evenodd" clip-rule="evenodd" d="M19.2488 22H4.45846C3.09946 22 2.0636 20.8871 2.0636 19.5083V11.4848C1.97139 11.2607 1.9797 11.0115 2.08686 10.795C2.09101 10.7858 2.08935 10.7757 2.09434 10.7674C2.12424 10.7114 2.16577 10.6687 2.20648 10.6261C2.22558 10.6035 2.23389 10.5767 2.25549 10.5558L6.03177 6.99057C6.08743 6.93873 6.15305 6.90946 6.21702 6.87602V5.29405C6.21702 4.83418 6.46954 4.49973 6.92393 4.49973H8.82453L11.3008 2.21625C11.614 1.92778 12.0941 1.92778 12.4064 2.21708L14.8827 4.49973H16.7841C17.2377 4.49973 17.8466 4.83418 17.8466 5.29405V7.17117L21.3288 10.4405C21.6777 10.5701 22 10.8234 22 11.147V19.5083C22 20.8871 20.6086 22 19.2488 22ZM4.21008 10.9881L6.21701 12.0985V9.09344L4.21008 10.9881ZM11.854 3.95958L11.2676 4.49972H12.4405L11.854 3.95958ZM16.1852 12.8193V6.13019H9.2515C9.22243 6.13353 9.19419 6.14607 9.16428 6.14607C9.1377 6.14607 9.11361 6.13269 9.08703 6.13019H7.87839V12.8193C7.87839 12.8803 7.84931 12.9346 7.8327 12.9932L8.74645 13.4982C9.17923 12.1813 10.3978 11.2222 11.8474 11.2222C13.2994 11.2222 14.5205 12.1838 14.9508 13.504L16.1852 12.8209C16.1852 12.8201 16.1852 12.8201 16.1852 12.8193ZM10.2317 14.3201L11.854 15.2173L13.4647 14.326C13.3642 13.5183 12.6814 12.8895 11.8474 12.8895C11.0159 12.8895 10.3355 13.5149 10.2317 14.3201ZM17.8466 9.44295V11.902L19.4947 10.9898L17.8466 9.44295ZM20.3386 12.4213L12.2469 16.8979C12.1248 16.9656 11.9894 16.9999 11.854 16.9999C11.7186 16.9999 11.5824 16.9656 11.4603 16.8979L3.72496 12.6186V19.5083C3.72496 19.9682 4.00573 20.3336 4.45845 20.3336H19.2488C19.7023 20.3336 20.3386 19.9682 20.3386 19.5083V12.4213ZM9.38857 9.50064C8.93502 9.50064 8.56703 9.12689 8.56703 8.66702V7.83339C8.56703 7.37352 8.93502 6.99976 9.38857 6.99976C9.84296 6.99976 10.2109 7.37352 10.2109 7.83339V8.66702C10.2109 9.12689 9.84296 9.50064 9.38857 9.50064Z" fill="currentColor"/>
</svg>