<svg viewBox="0 0 24 24" fill="none" xmlns="http://www.w3.org/2000/svg">
<path fill-rule="evenodd" clip-rule="evenodd" d="M12 18.8577C11.9168 18.8577 11.8331 18.8563 11.7488 18.8533L10.6068 20.5931C10.3125 21.0416 9.75546 21.255 9.23805 21.1059C7.66745 20.6591 6.23822 19.8386 5.06709 18.7205C4.67473 18.3447 4.58181 17.7546 4.82781 17.2744L5.77704 15.4217C5.69093 15.2847 5.60959 15.1453 5.53316 15.0035L3.43522 14.8923C2.89901 14.8667 2.43449 14.4963 2.3009 13.9715C2.10249 13.1844 2 12.3835 2 11.5765C2 10.7695 2.10249 9.96848 2.30134 9.1797C2.43449 8.65662 2.89901 8.28622 3.43118 8.26078L5.53316 8.14938C5.60959 8.00765 5.69093 7.86823 5.77704 7.73125L4.82777 5.87846C4.58181 5.39826 4.67473 4.8082 5.06801 4.43151C6.23822 3.31427 7.66745 2.49385 9.2354 2.04781C9.75546 1.89789 10.3125 2.11129 10.6068 2.55976L11.7488 4.29959C11.8331 4.29666 11.9168 4.29517 12 4.29517C12.0832 4.29517 12.1669 4.29666 12.2512 4.29959L13.3932 2.55983C13.6876 2.11126 14.2443 1.89823 14.7629 2.04708C16.3328 2.49394 17.762 3.31445 18.9329 4.43238C19.3248 4.80778 19.4168 5.39633 19.1722 5.87855L18.2229 7.73142C18.3087 7.86811 18.3899 8.00747 18.4665 8.14936L20.5649 8.26059C21.1003 8.2863 21.5655 8.65672 21.6991 9.18144C21.8975 9.96848 22 10.7695 22 11.5765C22 12.3835 21.8975 13.1844 21.6987 13.9732C21.5655 14.4962 21.1003 14.8666 20.5688 14.8921L18.4665 15.0036C18.3899 15.1454 18.3087 15.2848 18.2229 15.4215L19.1736 17.2772C19.4168 17.7566 19.3248 18.3451 18.932 18.7214C17.762 19.8385 16.3328 20.659 14.7646 21.1054C14.2443 21.2547 13.6876 21.0417 13.3932 20.5932L12.2512 18.8533C12.1669 18.8563 12.0832 18.8577 12 18.8577ZM9.43147 19.5276L10.689 17.6119C10.8483 17.3691 11.1288 17.2344 11.4178 17.2617C11.6186 17.2807 11.8125 17.2904 12.0001 17.2904C12.1877 17.2904 12.3815 17.2807 12.5823 17.2617C12.8714 17.2344 13.1518 17.3691 13.3111 17.6119L14.5688 19.5278C15.7188 19.1642 16.7722 18.5609 17.6612 17.7624L16.6172 15.7246C16.4827 15.4622 16.5069 15.1465 16.6798 14.9077C16.9051 14.5966 17.0977 14.2667 17.2559 13.9199C17.3771 13.6543 17.6359 13.4781 17.9274 13.4626L20.2381 13.3402C20.3668 12.7573 20.4328 12.1681 20.4328 11.5765C20.4328 10.9844 20.3667 10.3949 20.2381 9.81277L17.9274 9.6903C17.6359 9.67485 17.3771 9.49864 17.2559 9.23305C17.0977 8.88626 16.9051 8.55632 16.6798 8.24523C16.5069 8.00641 16.4827 7.69075 16.6172 7.42835L17.6612 5.39056C16.772 4.59207 15.7192 3.98904 14.5688 3.62512L13.3111 5.54107C13.1518 5.78379 12.8714 5.91853 12.5823 5.89122C12.3815 5.87225 12.1877 5.86249 12.0001 5.86249C11.8125 5.86249 11.6186 5.87225 11.4178 5.89122C11.1288 5.91853 10.8483 5.78379 10.689 5.54107L9.43144 3.62527C8.28123 3.98886 7.22789 4.59209 6.33889 5.39053L7.38297 7.42835C7.51741 7.69075 7.49319 8.00641 7.32029 8.24523C7.0935 8.5585 6.90086 8.88815 6.74479 9.23179C6.62387 9.49805 6.36476 9.67483 6.07274 9.6903L3.76205 9.81275C3.63334 10.3957 3.56738 10.9848 3.56738 11.5765C3.56738 12.1685 3.63343 12.758 3.76201 13.3402L6.07274 13.4626C6.36476 13.4781 6.62387 13.6549 6.74479 13.9211C6.90086 14.2648 7.0935 14.5944 7.32029 14.9077C7.49319 15.1465 7.51741 15.4622 7.38297 15.7246L6.33891 17.7624C7.2279 18.5606 8.28038 19.1634 9.43147 19.5276ZM8.3562 11.5765C8.3562 9.56395 9.9876 7.93255 12.0001 7.93255C14.0126 7.93255 15.644 9.56395 15.644 11.5765C15.644 13.589 14.0126 15.2204 12.0001 15.2204C9.9876 15.2204 8.3562 13.589 8.3562 11.5765ZM9.92358 11.5765C9.92358 12.7234 10.8533 13.653 12.0002 13.653C13.1471 13.653 14.0768 12.7234 14.0768 11.5765C14.0768 10.4296 13.1471 9.49987 12.0002 9.49987C10.8533 9.49987 9.92358 10.4296 9.92358 11.5765Z" fill="currentColor"/>
</svg>