<svg width="24" height="24" viewBox="0 0 24 24" fill="none" xmlns="http://www.w3.org/2000/svg">
<path fill-rule="evenodd" clip-rule="evenodd" d="M11.4356 1.23379C11.7473 0.92207 12.2527 0.922071 12.5644 1.23379L15.5577 4.22706C15.8694 4.53877 15.8694 5.04417 15.5577 5.35589C15.2459 5.6676 14.7405 5.6676 14.4288 5.35589L12.7982 3.72524L12.7982 14.5196C12.7982 14.9604 12.4408 15.3178 12 15.3178C11.5591 15.3178 11.2018 14.9604 11.2018 14.5196L11.2018 3.72524L9.57112 5.35589C9.2594 5.6676 8.75401 5.6676 8.44229 5.35588C8.13057 5.04417 8.13057 4.53877 8.44229 4.22705L11.4356 1.23379ZM7.51007 8.58294C6.71106 8.58294 6.06333 9.23067 6.06333 10.0297V17.9568C6.06333 18.7559 6.71106 19.4036 7.51007 19.4036H16.4899C17.2889 19.4036 17.9366 18.7559 17.9366 17.9568V10.0297C17.9366 9.23067 17.2889 8.58294 16.4899 8.58294H14.9932C14.5524 8.58294 14.195 8.22557 14.195 7.78474C14.195 7.3439 14.5524 6.98653 14.9932 6.98653H16.4899C18.1706 6.98653 19.533 8.349 19.533 10.0297V17.9568C19.533 19.6375 18.1706 21 16.4899 21H7.51007C5.82939 21 4.46692 19.6375 4.46692 17.9568V10.0297C4.46692 8.349 5.82939 6.98653 7.51007 6.98653H9.0067C9.44754 6.98653 9.80491 7.3439 9.80491 7.78474C9.80491 8.22557 9.44754 8.58294 9.0067 8.58294H7.51007Z" fill="#6B7084"/>
</svg>
