<svg width="24" height="24" viewBox="0 0 24 24" fill="none" xmlns="http://www.w3.org/2000/svg">
<path d="M12 22C17.5228 22 22 17.5228 22 12C22 6.47715 17.5228 2 12 2C6.47715 2 2 6.47715 2 12C2 17.5228 6.47715 22 12 22Z" fill="#F00500"/>
<path d="M15.8176 12.6387C15.8113 12.6737 15.7094 12.7775 15.6069 12.8537C15.3069 13.0731 14.7701 13.2775 14.2244 13.3756C13.9138 13.4319 13.6032 13.4406 13.5094 13.395C13.4488 13.3644 13.4401 13.3406 13.4619 13.2625C13.5076 13.1 13.6557 12.9212 13.8857 12.7537C14.0032 12.6694 14.4794 12.38 14.7007 12.2581C15.0657 12.0581 15.3613 11.9394 15.5613 11.9106C15.6244 11.9019 15.7007 11.8994 15.7238 11.9106C15.7638 11.9256 15.8069 12.0412 15.8238 12.18C15.8332 12.2537 15.8288 12.58 15.8176 12.6387ZM10.6969 13.3581C10.6844 13.3844 10.6188 13.4125 10.5451 13.4231C10.4707 13.4344 10.2451 13.4275 10.1169 13.4125C9.6557 13.3512 9.16695 13.21 8.8107 13.0362C8.6107 12.9387 8.46695 12.8406 8.3607 12.7344L8.29945 12.6712L8.2932 12.5887C8.28195 12.445 8.28445 12.2194 8.30195 12.1387C8.31325 12.0716 8.33609 12.0069 8.36945 11.9475C8.38632 11.9256 8.38632 11.9256 8.46507 11.9256C8.5607 11.9256 8.6407 11.9406 8.77132 11.9819C9.03882 12.065 9.43632 12.265 9.92132 12.5562C10.3213 12.795 10.4713 12.9125 10.5863 13.0731C10.6644 13.1731 10.7163 13.3144 10.6969 13.3581ZM13.7751 16.3837C13.7751 16.39 13.7488 16.4944 13.7163 16.6181C13.6954 16.694 13.6758 16.7703 13.6576 16.8469C13.6332 16.8487 13.6119 16.8512 13.5876 16.8487H13.5188L13.4226 17.075C13.3707 17.1987 13.3226 17.3137 13.3163 17.3312L13.3032 17.3619L13.2576 17.2875L13.2119 17.2137V16.6119L13.1944 16.6162C13.1569 16.625 12.8944 16.66 12.7794 16.6706C12.3039 16.718 11.8244 16.7078 11.3513 16.64C11.3037 16.6318 11.2558 16.6259 11.2076 16.6225C11.2057 16.625 11.2076 16.7637 11.2119 16.9356L11.2182 17.2444L11.1819 17.3006C11.1619 17.3312 11.1426 17.3569 11.1426 17.3594C11.1363 17.3656 11.1144 17.3312 11.0644 17.2312C11.0107 17.1263 10.9698 17.0153 10.9426 16.9006L10.9276 16.8381L10.8601 16.8419L10.7926 16.8487L10.7751 16.7681C10.7655 16.7192 10.7576 16.67 10.7513 16.6206L10.7451 16.5512L10.6888 16.5012L10.6169 16.44C10.6057 16.4312 10.6013 16.4162 10.6013 16.4031V16.3769L10.8732 16.3794L11.1451 16.3812L11.1532 16.4094L11.1619 16.4381L11.2557 16.4425L11.6207 16.4531L11.8926 16.4594L11.9619 16.3512L12.0338 16.2425H12.1251L12.1232 16.0162L12.1207 15.79L12.0013 15.7381C11.6163 15.5687 11.3907 15.3756 11.3057 15.1406C11.2882 15.0925 11.2882 15.075 11.2838 14.8581C11.2819 14.6425 11.2819 14.6231 11.2969 14.575C11.3116 14.5218 11.34 14.4733 11.3793 14.4345C11.4185 14.3957 11.4673 14.3678 11.5207 14.3537C11.5582 14.3425 11.6557 14.3425 12.1688 14.3425L12.7726 14.345L12.8401 14.3775C12.9051 14.4042 12.9614 14.4486 13.0026 14.5056C13.0551 14.575 13.0707 14.6294 13.0707 14.7619C13.0707 14.9512 13.0576 15.1144 13.0382 15.1794C13.0094 15.2688 12.9668 15.3531 12.9119 15.4294C12.8032 15.5687 12.6057 15.7075 12.4244 15.7706L12.3726 15.79L12.3751 16.0187L12.3769 16.2469L12.4251 16.2512L12.4726 16.2556L12.5382 16.3531L12.6007 16.4512H12.8926C13.0532 16.4512 13.1944 16.4531 13.2076 16.455C13.2294 16.46 13.2338 16.4575 13.2551 16.4206L13.2813 16.3812H13.5313C13.7188 16.3725 13.7751 16.3769 13.7751 16.3837Z" fill="black"/>
<path d="M12.6269 17.0075C12.5857 17.0313 12.5576 17.0419 12.5513 17.0381C12.5451 17.0356 12.5138 17.0094 12.4813 16.9856L12.4226 16.9381L12.3619 17.0031C12.2294 17.1469 12.2244 17.1531 12.1857 17.155C12.1251 17.1613 12.1119 17.1506 12.0382 17.04C11.9988 16.9838 11.9688 16.9356 11.9688 16.9356C11.9688 16.9356 11.9401 16.9313 11.9076 16.9294L11.8469 16.9231L11.8188 16.9813L11.7901 17.04L11.7401 17.025C11.7009 17.0121 11.6625 16.9968 11.6251 16.9794L11.5601 16.9469V16.8225L12.1382 16.825L12.7163 16.8269L12.7182 16.8856C12.7207 16.955 12.7226 16.9531 12.6269 17.0075Z" fill="black"/>
<path d="M18.0606 14.3561C18.0587 14.3467 18.0587 14.3311 18.0569 14.308C17.4499 14.2505 16.8375 14.3137 16.2551 14.4939C15.6726 14.6741 15.1316 14.9677 14.6631 15.358C14.6631 15.358 14.2181 13.3142 12.1319 13.3142C10.0444 13.3142 9.27125 15.358 9.27125 15.358C8.10187 14.0992 6.53687 14.1905 5.97125 14.273L5.96937 14.3142C5.95187 14.6292 5.96062 14.7792 6.01312 14.9767C6.17562 15.5967 6.67812 16.2792 7.465 16.9486C8.75375 18.0442 10.5012 18.8348 11.825 18.9267C13.205 19.0205 15.2419 18.2136 16.5981 17.0355C16.8106 16.8467 17.0106 16.6467 17.1981 16.4336C17.3325 16.2773 17.5325 16.0073 17.5175 16.0073C17.5131 16.0073 17.5175 16.003 17.5262 15.9986C17.5325 15.9942 17.5387 15.988 17.535 15.9836C17.5325 15.9811 17.5369 15.9748 17.5437 15.973C17.55 15.9705 17.5544 15.9667 17.5525 15.9617C17.55 15.9573 17.5525 15.953 17.5612 15.9511C17.5675 15.9486 17.57 15.9423 17.5675 15.938C17.565 15.9336 17.5675 15.9292 17.5719 15.9292C17.5762 15.9292 17.5806 15.923 17.5806 15.9186C17.5806 15.9142 17.585 15.9073 17.5894 15.9073C17.5937 15.9073 17.5981 15.903 17.5981 15.8986C17.6053 15.8808 17.6148 15.864 17.6262 15.8486C17.6587 15.7986 17.7887 15.5661 17.8069 15.5273C17.9306 15.2467 18.0087 14.9967 18.0456 14.7467C18.0587 14.6273 18.0694 14.408 18.0606 14.3555V14.3561ZM12.6269 17.0073C12.5856 17.0311 12.5575 17.0417 12.5512 17.038C12.545 17.0355 12.5137 17.0092 12.4812 16.9855L12.4225 16.938L12.3619 17.003C12.2294 17.1467 12.2244 17.153 12.1856 17.1548C12.125 17.1611 12.1119 17.1505 12.0381 17.0398C11.9987 16.9836 11.9687 16.9355 11.9687 16.9355C11.9687 16.9355 11.94 16.9311 11.9075 16.9292L11.8469 16.923L11.8187 16.9811L11.79 17.0398L11.74 17.0248C11.7008 17.0119 11.6624 16.9967 11.625 16.9792L11.56 16.9467V16.8223L12.1381 16.8248L12.7162 16.8267L12.7181 16.8855C12.7206 16.9548 12.7225 16.953 12.6269 17.0073ZM13.7144 16.6161C13.6934 16.6918 13.6736 16.7679 13.655 16.8442C13.6312 16.8461 13.6094 16.8486 13.5856 16.8461H13.5162L13.4225 17.0748C13.3706 17.1986 13.3225 17.3136 13.3162 17.3311L13.3031 17.3617L13.2575 17.2873L13.2119 17.2136V16.6117L13.1944 16.6161C13.1569 16.6248 12.8944 16.6598 12.7794 16.6705C12.3038 16.7179 11.8243 16.7076 11.3512 16.6398C11.3036 16.6316 11.2557 16.6258 11.2075 16.6223C11.2056 16.6248 11.2075 16.7636 11.2119 16.9355L11.2181 17.2442L11.1819 17.3005C11.1619 17.3311 11.1425 17.3567 11.1425 17.3592C11.1362 17.3655 11.1144 17.3311 11.0644 17.2311C11.0106 17.1262 10.9697 17.0152 10.9425 16.9005L10.9275 16.838L10.86 16.8423L10.7925 16.8486L10.775 16.768C10.7655 16.7191 10.7575 16.6699 10.7512 16.6205L10.745 16.5511L10.6887 16.5011C10.6653 16.4801 10.6413 16.4597 10.6169 16.4398C10.6056 16.4311 10.6012 16.4161 10.6012 16.403V16.3767L10.8731 16.3792L11.145 16.3811L11.1531 16.4092L11.1619 16.438L11.2556 16.4423L11.6206 16.453L11.8925 16.4592L11.9619 16.3511L12.0337 16.2423H12.125L12.1231 16.0161L12.1206 15.7898L12.0012 15.738C11.6162 15.5686 11.3906 15.3755 11.3056 15.1405C11.2881 15.0923 11.2881 15.0748 11.2837 14.858C11.2819 14.6423 11.2819 14.623 11.2969 14.5748C11.3116 14.5216 11.3399 14.4732 11.3792 14.4343C11.4185 14.3955 11.4672 14.3677 11.5206 14.3536C11.5581 14.3423 11.6556 14.3423 12.1687 14.3423L12.7725 14.3448L12.84 14.3773C12.905 14.4041 12.9613 14.4485 13.0025 14.5055C13.055 14.5748 13.0706 14.6292 13.0706 14.7617C13.0706 14.9511 13.0575 15.1142 13.0381 15.1792C13.0093 15.2686 12.9667 15.353 12.9119 15.4292C12.8031 15.5686 12.6056 15.7073 12.4244 15.7705L12.3725 15.7898L12.375 16.0186L12.3769 16.2467L12.425 16.2511L12.4725 16.2555L12.5381 16.353L12.6006 16.4511H12.8925C13.0531 16.4511 13.1944 16.453 13.2075 16.4548C13.2294 16.4598 13.2337 16.4573 13.255 16.4205L13.2812 16.3811H13.5312C13.725 16.3811 13.7812 16.3836 13.7812 16.3898C13.775 16.388 13.7462 16.4942 13.7137 16.6161H13.7144Z" fill="white"/>
<path d="M18.0438 14.1344C18.0394 14.0335 18.0327 13.9326 18.0238 13.8319C17.93 12.8451 17.6782 12.0388 17.2 11.1844C17.1821 11.1551 17.1663 11.1246 17.1525 11.0932C17.1482 11.0869 17.1463 11.0807 17.1438 11.0763C17.2113 10.8738 17.4875 10.0282 17.7063 9.06131C18.0044 7.74881 18.1938 6.21381 17.6157 5.75318C17.6157 5.75318 16.6157 5.67943 15.2769 6.99193C14.9138 7.35443 14.5813 7.74818 14.2857 8.16756L14.1919 8.13756C13.654 7.96141 13.0961 7.85328 12.5313 7.81568C12.3619 7.80318 11.7294 7.80318 11.5232 7.81568C10.8994 7.85693 10.4207 7.95068 9.87754 8.13943C9.85756 8.14734 9.83734 8.15463 9.81692 8.16131C9.51055 7.74289 9.16798 7.35222 8.79317 6.99381C7.39942 5.67506 6.36254 5.75131 6.36254 5.75131C5.75004 6.22693 5.95879 7.83131 6.27504 9.18756C6.43209 9.85303 6.61937 10.511 6.83629 11.1594C6.82924 11.1757 6.82131 11.1915 6.81254 11.2069C6.30629 12.2332 6.03192 13.2219 5.96692 14.2738C6.53379 14.1913 8.09692 14.0976 9.26817 15.3582C9.26817 15.3582 10.0419 13.3151 12.1288 13.3151C14.215 13.3151 14.6607 15.3588 14.6607 15.3588C15.1294 14.9692 15.6703 14.6759 16.2526 14.4957C16.8349 14.3155 17.4469 14.252 18.0538 14.3088L18.0432 14.1344H18.0438ZM7.24754 10.3394C7.24754 10.3394 6.43504 8.30693 6.64317 7.14568C6.67817 6.95068 6.74317 6.77881 6.84567 6.64881C6.84567 6.64881 7.76692 6.74006 9.25379 8.39193C9.25379 8.39193 8.97129 8.52881 8.59317 8.82006C8.59317 8.82006 8.59067 8.82193 8.58879 8.82193C8.04703 9.23546 7.59139 9.75097 7.24754 10.3394ZM10.6975 13.3582C10.6838 13.3844 10.6188 13.4126 10.545 13.4232C10.4707 13.4344 10.245 13.4276 10.1169 13.4126C9.65567 13.3513 9.16692 13.2101 8.81067 13.0363C8.61067 12.9388 8.46692 12.8407 8.36067 12.7344L8.29942 12.6713L8.29317 12.5888C8.28192 12.4451 8.28442 12.2194 8.30192 12.1388C8.31321 12.0716 8.33605 12.0069 8.36942 11.9476C8.38629 11.9257 8.38629 11.9257 8.46504 11.9257C8.56067 11.9257 8.64067 11.9407 8.77129 11.9819C9.03879 12.0651 9.43629 12.2651 9.92129 12.5563C10.3213 12.7951 10.4713 12.9126 10.5863 13.0732C10.6644 13.1732 10.7163 13.3144 10.6969 13.3582H10.6975ZM15.8175 12.6388C15.8113 12.6738 15.7094 12.7776 15.6069 12.8538C15.3069 13.0732 14.77 13.2776 14.2244 13.3757C13.9138 13.4319 13.6032 13.4407 13.5094 13.3951C13.4488 13.3644 13.44 13.3407 13.4619 13.2626C13.5075 13.1001 13.6557 12.9213 13.8857 12.7538C14.0032 12.6688 14.4794 12.3801 14.7007 12.2582C15.0657 12.0582 15.3613 11.9394 15.5613 11.9107C15.6244 11.9019 15.7007 11.8994 15.7244 11.9107C15.7638 11.9257 15.8069 12.0413 15.8244 12.1801C15.8332 12.2538 15.8288 12.5801 15.8182 12.6388H15.8175ZM15.4569 8.82006L15.4525 8.81756C15.2537 8.65493 15.0398 8.51158 14.8138 8.38943C16.2507 6.73756 17.1388 6.64631 17.1388 6.64631C17.2369 6.77881 17.3 6.94818 17.335 7.14381C17.5369 8.30443 16.7525 10.3388 16.7525 10.3388C16.4233 9.7533 15.9832 9.23747 15.4569 8.82006Z" fill="#FFA409"/>
<path d="M17.3375 7.14374C17.1675 7.12249 16.3656 7.11812 15.4568 8.81999L15.4525 8.81749C15.2536 8.65486 15.0397 8.51151 14.8137 8.38937C16.2506 6.73749 17.1387 6.64624 17.1387 6.64624C17.2387 6.77874 17.3025 6.94811 17.3368 7.14374H17.3375Z" fill="#FF9300"/>
<path d="M16.7544 10.3392C16.4251 9.753 15.9843 9.23685 15.4569 8.81984C16.3657 7.11796 17.1657 7.12234 17.3369 7.14359C17.5394 8.30671 16.7544 10.3392 16.7544 10.3392ZM17.3694 7.14984L17.3369 7.14359L17.3694 7.14984Z" fill="#FF8300"/>
<path d="M9.25374 8.38937C9.25374 8.38937 8.97124 8.52687 8.59311 8.81749C8.59311 8.81749 8.59061 8.81999 8.58874 8.81999C7.64749 7.11562 6.81874 7.12249 6.64124 7.14374C6.67561 6.94811 6.74124 6.77687 6.84311 6.64624C6.84561 6.64624 7.76686 6.73749 9.25374 8.38999V8.38937Z" fill="#FF9300"/>
<path d="M8.59061 8.81984C8.04777 9.23325 7.59142 9.74927 7.24749 10.3386C7.24749 10.3386 6.43499 8.30671 6.64311 7.14359C6.81936 7.12234 7.64936 7.11796 8.59061 8.81984Z" fill="#FF8300"/>
<path d="M6.64376 7.1438L6.60876 7.15005L6.64314 7.1438H6.64376Z" fill="#FF8300"/>
<path d="M14.555 11.4674C14.555 11.4674 13.8593 11.5105 13.9462 10.9674C14.0337 10.4236 14.5768 10.3586 14.7287 10.3799C14.8812 10.4017 15.4893 10.6192 15.3812 11.0761C15.2725 11.5324 15.12 11.4449 15.0331 11.4674C14.9462 11.4886 14.555 11.4674 14.555 11.4674ZM9.42497 11.4674C9.42497 11.4674 8.72997 11.5105 8.81684 10.9674C8.90434 10.4236 9.44684 10.3586 9.59934 10.3799C9.75122 10.4017 10.36 10.6192 10.2512 11.0761C10.1425 11.5324 9.99059 11.4449 9.90372 11.4674C9.81622 11.4886 9.42559 11.4674 9.42559 11.4674H9.42497Z" fill="white"/>
</svg>
