<svg viewBox="0 0 24 24" fill="none" xmlns="http://www.w3.org/2000/svg">
<path d="M12 24C18.6274 24 24 18.6274 24 12C24 5.37258 18.6274 0 12 0C5.37258 0 0 5.37258 0 12C0 18.6274 5.37258 24 12 24Z" fill="#F00500"/>
<path d="M15.8051 12.2964C15.7989 12.3314 15.697 12.4352 15.5945 12.5114C15.2945 12.7308 14.7576 12.9352 14.212 13.0333C13.9014 13.0896 13.5907 13.0983 13.497 13.0527C13.4364 13.0221 13.4276 12.9983 13.4495 12.9202C13.4951 12.7577 13.6432 12.5789 13.8732 12.4114C13.9907 12.3271 14.467 12.0377 14.6882 11.9158C15.0532 11.7158 15.3489 11.5971 15.5489 11.5683C15.612 11.5596 15.6882 11.5571 15.7114 11.5683C15.7514 11.5833 15.7945 11.6989 15.8114 11.8377C15.8207 11.9114 15.8164 12.2377 15.8051 12.2964ZM10.6845 13.0158C10.672 13.0421 10.6064 13.0702 10.5326 13.0808C10.4582 13.0921 10.2326 13.0852 10.1045 13.0702C9.64325 13.0089 9.1545 12.8677 8.79825 12.6939C8.59825 12.5964 8.4545 12.4983 8.34825 12.3921L8.287 12.3289L8.28075 12.2464C8.2695 12.1027 8.272 11.8771 8.2895 11.7964C8.3008 11.7293 8.32364 11.6646 8.357 11.6052C8.37387 11.5833 8.37387 11.5833 8.45262 11.5833C8.54825 11.5833 8.62825 11.5983 8.75887 11.6396C9.02637 11.7227 9.42387 11.9227 9.90887 12.2139C10.3089 12.4527 10.4589 12.5702 10.5739 12.7308C10.652 12.8308 10.7039 12.9721 10.6845 13.0158ZM13.7626 16.0414C13.7626 16.0477 13.7364 16.1521 13.7039 16.2758C13.6829 16.3517 13.6633 16.428 13.6451 16.5046C13.6207 16.5064 13.5995 16.5089 13.5751 16.5064H13.5064L13.4101 16.7327C13.3582 16.8564 13.3101 16.9714 13.3039 16.9889L13.2907 17.0196L13.2451 16.9452L13.1995 16.8714V16.2696L13.182 16.2739C13.1445 16.2827 12.882 16.3177 12.767 16.3283C12.2915 16.3757 11.8119 16.3655 11.3389 16.2977C11.2913 16.2895 11.2433 16.2836 11.1951 16.2802C11.1932 16.2827 11.1951 16.4214 11.1995 16.5933L11.2057 16.9021L11.1695 16.9583C11.1495 16.9889 11.1301 17.0146 11.1301 17.0171C11.1239 17.0233 11.102 16.9889 11.052 16.8889C10.9982 16.784 10.9573 16.673 10.9301 16.5583L10.9151 16.4958L10.8476 16.4996L10.7801 16.5064L10.7626 16.4258C10.7531 16.3769 10.7452 16.3277 10.7389 16.2783L10.7326 16.2089L10.6764 16.1589L10.6045 16.0977C10.5932 16.0889 10.5889 16.0739 10.5889 16.0608V16.0346L10.8607 16.0371L11.1326 16.0389L11.1407 16.0671L11.1495 16.0958L11.2432 16.1002L11.6082 16.1108L11.8801 16.1171L11.9495 16.0089L12.0214 15.9002H12.1126L12.1107 15.6739L12.1082 15.4477L11.9889 15.3958C11.6039 15.2264 11.3782 15.0333 11.2932 14.7983C11.2757 14.7502 11.2757 14.7327 11.2714 14.5158C11.2695 14.3002 11.2695 14.2808 11.2845 14.2327C11.2992 14.1795 11.3276 14.131 11.3668 14.0922C11.4061 14.0534 11.4549 14.0255 11.5082 14.0114C11.5457 14.0002 11.6432 14.0002 12.1564 14.0002L12.7601 14.0027L12.8276 14.0352C12.8927 14.0619 12.9489 14.1063 12.9901 14.1633C13.0426 14.2327 13.0582 14.2871 13.0582 14.4196C13.0582 14.6089 13.0451 14.7721 13.0257 14.8371C12.9969 14.9265 12.9543 15.0108 12.8995 15.0871C12.7907 15.2264 12.5932 15.3652 12.412 15.4283L12.3601 15.4477L12.3626 15.6764L12.3645 15.9046L12.4126 15.9089L12.4601 15.9133L12.5257 16.0108L12.5882 16.1089H12.8801C13.0407 16.1089 13.182 16.1108 13.1951 16.1127C13.217 16.1177 13.2214 16.1152 13.2426 16.0783L13.2689 16.0389H13.5189C13.7064 16.0302 13.7626 16.0346 13.7626 16.0414Z" fill="black"/>
<path d="M12.6145 16.6652C12.5732 16.689 12.5451 16.6996 12.5389 16.6959C12.5326 16.6934 12.5014 16.6671 12.4689 16.6433L12.4101 16.5958L12.3495 16.6608C12.217 16.8046 12.212 16.8108 12.1732 16.8127C12.1126 16.819 12.0995 16.8083 12.0257 16.6977C11.9864 16.6415 11.9564 16.5933 11.9564 16.5933C11.9564 16.5933 11.9276 16.589 11.8951 16.5871L11.8345 16.5809L11.8064 16.639L11.7776 16.6977L11.7276 16.6827C11.6884 16.6698 11.65 16.6546 11.6126 16.6371L11.5476 16.6046V16.4802L12.1257 16.4827L12.7039 16.4846L12.7057 16.5433C12.7082 16.6127 12.7101 16.6108 12.6145 16.6652Z" fill="black"/>
<path d="M18.0482 14.0138C18.0463 14.0044 18.0463 13.9888 18.0444 13.9657C17.4374 13.9082 16.8251 13.9714 16.2426 14.1516C15.6602 14.3318 15.1191 14.6255 14.6507 15.0157C14.6507 15.0157 14.2057 12.9719 12.1194 12.9719C10.0319 12.9719 9.2588 15.0157 9.2588 15.0157C8.08942 13.7569 6.52442 13.8482 5.9588 13.9307L5.95692 13.9719C5.93942 14.2869 5.94817 14.4369 6.00067 14.6344C6.16317 15.2544 6.66567 15.9369 7.45255 16.6063C8.7413 17.7019 10.4888 18.4925 11.8125 18.5844C13.1925 18.6782 15.2294 17.8713 16.5857 16.6932C16.7982 16.5044 16.9982 16.3044 17.1857 16.0913C17.32 15.935 17.52 15.665 17.505 15.665C17.5007 15.665 17.505 15.6607 17.5138 15.6563C17.52 15.6519 17.5263 15.6457 17.5225 15.6413C17.52 15.6388 17.5244 15.6325 17.5313 15.6307C17.5375 15.6282 17.5419 15.6244 17.54 15.6194C17.5375 15.615 17.54 15.6107 17.5488 15.6088C17.555 15.6063 17.5575 15.6 17.555 15.5957C17.5525 15.5913 17.555 15.5869 17.5594 15.5869C17.5638 15.5869 17.5682 15.5807 17.5682 15.5763C17.5682 15.5719 17.5725 15.565 17.5769 15.565C17.5813 15.565 17.5857 15.5607 17.5857 15.5563C17.5929 15.5385 17.6023 15.5217 17.6138 15.5063C17.6463 15.4563 17.7763 15.2238 17.7944 15.185C17.9182 14.9044 17.9963 14.6544 18.0332 14.4044C18.0463 14.285 18.0569 14.0657 18.0482 14.0132V14.0138ZM12.6144 16.665C12.5732 16.6888 12.545 16.6994 12.5388 16.6957C12.5325 16.6932 12.5013 16.6669 12.4688 16.6432L12.41 16.5957L12.3494 16.6607C12.2169 16.8044 12.2119 16.8107 12.1732 16.8125C12.1125 16.8188 12.0994 16.8082 12.0257 16.6975C11.9863 16.6413 11.9563 16.5932 11.9563 16.5932C11.9563 16.5932 11.9275 16.5888 11.895 16.5869L11.8344 16.5807L11.8063 16.6388L11.7775 16.6975L11.7275 16.6825C11.6884 16.6696 11.65 16.6544 11.6125 16.6369L11.5475 16.6044V16.48L12.1257 16.4825L12.7038 16.4844L12.7057 16.5432C12.7082 16.6125 12.71 16.6107 12.6144 16.665ZM13.7019 16.2738C13.681 16.3495 13.6612 16.4256 13.6425 16.5019C13.6188 16.5038 13.5969 16.5063 13.5732 16.5038H13.5038L13.41 16.7325C13.3582 16.8563 13.31 16.9713 13.3038 16.9888L13.2907 17.0194L13.245 16.945L13.1994 16.8713V16.2694L13.1819 16.2738C13.1444 16.2825 12.8819 16.3175 12.7669 16.3282C12.2914 16.3756 11.8119 16.3653 11.3388 16.2975C11.2912 16.2894 11.2432 16.2835 11.195 16.28C11.1932 16.2825 11.195 16.4213 11.1994 16.5932L11.2057 16.9019L11.1694 16.9582C11.1494 16.9888 11.13 17.0144 11.13 17.0169C11.1238 17.0232 11.1019 16.9888 11.0519 16.8888C10.9982 16.7839 10.9572 16.6729 10.93 16.5582L10.915 16.4957L10.8475 16.5L10.78 16.5063L10.7625 16.4257C10.753 16.3768 10.7451 16.3276 10.7388 16.2782L10.7325 16.2088L10.6763 16.1588C10.6528 16.1378 10.6288 16.1174 10.6044 16.0975C10.5932 16.0888 10.5888 16.0738 10.5888 16.0607V16.0344L10.8607 16.0369L11.1325 16.0388L11.1407 16.0669L11.1494 16.0957L11.2432 16.1L11.6082 16.1107L11.88 16.1169L11.9494 16.0088L12.0213 15.9H12.1125L12.1107 15.6738L12.1082 15.4475L11.9888 15.3957C11.6038 15.2263 11.3782 15.0332 11.2932 14.7982C11.2757 14.75 11.2757 14.7325 11.2713 14.5157C11.2694 14.3 11.2694 14.2807 11.2844 14.2325C11.2991 14.1793 11.3275 14.1309 11.3668 14.0921C11.406 14.0532 11.4548 14.0254 11.5082 14.0113C11.5457 14 11.6432 14 12.1563 14L12.76 14.0025L12.8275 14.035C12.8926 14.0618 12.9488 14.1062 12.99 14.1632C13.0425 14.2325 13.0582 14.2869 13.0582 14.4194C13.0582 14.6088 13.045 14.7719 13.0257 14.8369C12.9969 14.9263 12.9543 15.0107 12.8994 15.0869C12.7907 15.2263 12.5932 15.365 12.4119 15.4282L12.36 15.4475L12.3625 15.6763L12.3644 15.9044L12.4125 15.9088L12.46 15.9132L12.5257 16.0107L12.5882 16.1088H12.88C13.0407 16.1088 13.1819 16.1107 13.195 16.1125C13.2169 16.1175 13.2213 16.115 13.2425 16.0782L13.2688 16.0388H13.5188C13.7125 16.0388 13.7688 16.0413 13.7688 16.0475C13.7625 16.0457 13.7338 16.1519 13.7013 16.2738H13.7019Z" fill="white"/>
<path d="M18.0312 13.7921C18.0268 13.6912 18.0202 13.5903 18.0112 13.4896C17.9175 12.5028 17.6656 11.6965 17.1875 10.8421C17.1696 10.8128 17.1537 10.7824 17.14 10.7509C17.1356 10.7446 17.1337 10.7384 17.1312 10.734C17.1987 10.5315 17.475 9.6859 17.6937 8.71902C17.9918 7.40652 18.1812 5.87152 17.6031 5.4109C17.6031 5.4109 16.6031 5.33715 15.2643 6.64965C14.9012 7.01215 14.5687 7.4059 14.2731 7.82527L14.1793 7.79527C13.6414 7.61912 13.0835 7.51099 12.5187 7.4734C12.3493 7.4609 11.7168 7.4609 11.5106 7.4734C10.8868 7.51465 10.4081 7.6084 9.86497 7.79715C9.84499 7.80505 9.82477 7.81235 9.80435 7.81902C9.49797 7.4006 9.15541 7.00993 8.7806 6.65152C7.38685 5.33277 6.34997 5.40902 6.34997 5.40902C5.73747 5.88465 5.94622 7.48902 6.26247 8.84527C6.41952 9.51074 6.6068 10.1687 6.82372 10.8171C6.81667 10.8334 6.80874 10.8493 6.79997 10.8646C6.29372 11.8909 6.01935 12.8796 5.95435 13.9315C6.52122 13.849 8.08435 13.7553 9.2556 15.0159C9.2556 15.0159 10.0293 12.9728 12.1162 12.9728C14.2025 12.9728 14.6481 15.0165 14.6481 15.0165C15.1168 14.6269 15.6578 14.3336 16.24 14.1534C16.8223 13.9732 17.4344 13.9097 18.0412 13.9665L18.0306 13.7921H18.0312ZM7.23497 9.99715C7.23497 9.99715 6.42247 7.96465 6.6306 6.8034C6.6656 6.6084 6.7306 6.43652 6.8331 6.30652C6.8331 6.30652 7.75435 6.39777 9.24122 8.04965C9.24122 8.04965 8.95872 8.18652 8.5806 8.47777C8.5806 8.47777 8.5781 8.47965 8.57622 8.47965C8.03446 8.89317 7.57882 9.40869 7.23497 9.99715ZM10.685 13.0159C10.6712 13.0421 10.6062 13.0703 10.5325 13.0809C10.4581 13.0921 10.2325 13.0853 10.1043 13.0703C9.6431 13.009 9.15435 12.8678 8.7981 12.694C8.5981 12.5965 8.45435 12.4984 8.3481 12.3921L8.28685 12.329L8.2806 12.2465C8.26935 12.1028 8.27185 11.8771 8.28935 11.7965C8.30064 11.7294 8.32348 11.6646 8.35685 11.6053C8.37372 11.5834 8.37372 11.5834 8.45247 11.5834C8.5481 11.5834 8.6281 11.5984 8.75872 11.6396C9.02622 11.7228 9.42372 11.9228 9.90872 12.214C10.3087 12.4528 10.4587 12.5703 10.5737 12.7309C10.6518 12.8309 10.7037 12.9721 10.6843 13.0159H10.685ZM15.805 12.2965C15.7987 12.3315 15.6968 12.4353 15.5943 12.5115C15.2943 12.7309 14.7575 12.9353 14.2118 13.0334C13.9012 13.0896 13.5906 13.0984 13.4968 13.0528C13.4362 13.0221 13.4275 12.9984 13.4493 12.9203C13.495 12.7578 13.6431 12.579 13.8731 12.4115C13.9906 12.3265 14.4668 12.0378 14.6881 11.9159C15.0531 11.7159 15.3487 11.5971 15.5487 11.5684C15.6118 11.5596 15.6881 11.5571 15.7118 11.5684C15.7512 11.5834 15.7943 11.699 15.8118 11.8378C15.8206 11.9115 15.8162 12.2378 15.8056 12.2965H15.805ZM15.4443 8.47777L15.44 8.47527C15.2411 8.31264 15.0272 8.16929 14.8012 8.04715C16.2381 6.39527 17.1262 6.30402 17.1262 6.30402C17.2243 6.43652 17.2875 6.6059 17.3225 6.80152C17.5243 7.96215 16.74 9.99652 16.74 9.99652C16.4107 9.41102 15.9707 8.89518 15.4443 8.47777Z" fill="#FFA409"/>
<path d="M17.325 6.80145C17.155 6.7802 16.3531 6.77583 15.4444 8.47771L15.44 8.47521C15.2412 8.31258 15.0273 8.16922 14.8013 8.04708C16.2381 6.3952 17.1263 6.30396 17.1263 6.30396C17.2263 6.43646 17.29 6.60583 17.3244 6.80145H17.325Z" fill="#FF9300"/>
<path d="M16.7418 9.99693C16.4125 9.41072 15.9718 8.89457 15.4443 8.47755C16.3531 6.77568 17.1531 6.78005 17.3243 6.8013C17.5268 7.96443 16.7418 9.99693 16.7418 9.99693ZM17.3568 6.80755L17.3243 6.8013L17.3568 6.80755Z" fill="#FF8300"/>
<path d="M9.24141 8.04708C9.24141 8.04708 8.95891 8.18458 8.58078 8.47521C8.58078 8.47521 8.57828 8.47771 8.57641 8.47771C7.63516 6.77333 6.80641 6.7802 6.62891 6.80145C6.66328 6.60583 6.72891 6.43458 6.83078 6.30396C6.83328 6.30396 7.75453 6.39521 9.24141 8.04771V8.04708Z" fill="#FF9300"/>
<path d="M8.57828 8.47755C8.03544 8.89096 7.57909 9.40698 7.23516 9.9963C7.23516 9.9963 6.42266 7.96443 6.63078 6.8013C6.80703 6.78005 7.63703 6.77568 8.57828 8.47755Z" fill="#FF8300"/>
<path d="M6.63119 6.80151L6.59619 6.80776L6.63057 6.80151H6.63119Z" fill="#FF8300"/>
<path d="M14.5425 11.1251C14.5425 11.1251 13.8469 11.1682 13.9338 10.6251C14.0213 10.0813 14.5644 10.0163 14.7163 10.0376C14.8688 10.0594 15.4769 10.277 15.3688 10.7338C15.26 11.1901 15.1075 11.1026 15.0206 11.1251C14.9338 11.1463 14.5425 11.1251 14.5425 11.1251ZM9.41252 11.1251C9.41252 11.1251 8.71752 11.1682 8.80439 10.6251C8.89189 10.0813 9.43439 10.0163 9.58689 10.0376C9.73877 10.0594 10.3475 10.277 10.2388 10.7338C10.13 11.1901 9.97814 11.1026 9.89127 11.1251C9.80377 11.1463 9.41314 11.1251 9.41314 11.1251H9.41252Z" fill="white"/>
</svg>