<svg width="24" height="24" viewBox="0 0 24 24" fill="none" xmlns="http://www.w3.org/2000/svg">
<path fill-rule="evenodd" clip-rule="evenodd" d="M14.967 10.5794L13.6786 10.3818L13.0948 9.13674C12.9572 8.84486 12.6637 8.65723 12.3393 8.65723C12.0166 8.65723 11.7222 8.84486 11.5846 9.13674L11 10.3818L9.71162 10.5794C9.40307 10.6261 9.14622 10.8421 9.04698 11.139C8.94775 11.435 9.0228 11.7628 9.24129 11.9863L10.1978 12.9653L9.97014 14.3604C9.91843 14.6757 10.0519 14.9925 10.3129 15.176C10.5747 15.3595 10.9175 15.3803 11.1968 15.2244L12.3393 14.5923L13.4818 15.2244C13.6077 15.2944 13.7461 15.3286 13.8854 15.3286C14.0539 15.3286 14.2223 15.2777 14.3657 15.176C14.6268 14.9934 14.7594 14.6765 14.7085 14.3604L14.4817 12.9653L15.4382 11.9863C15.6567 11.7628 15.7317 11.435 15.6325 11.139C15.5332 10.8421 15.2764 10.6261 14.967 10.5794ZM19.0106 4.48762H18.1767C14.675 4.48762 13.0981 2.41615 13.0356 2.33193C12.8579 2.08509 12.5711 1.97918 12.2892 2.00336C12.044 2.01254 11.8047 2.11594 11.6471 2.32776C11.5812 2.41615 10.0042 4.48762 6.50177 4.48762H5.66785C4.74803 4.48762 4 5.23648 4 6.15547V8.65723C4 9.11839 4.00417 9.87309 4.00917 10.3343C4.01001 10.421 4.19347 19.0904 12.0549 21.95C12.0599 21.9516 12.0657 21.9516 12.0715 21.9525C12.1574 21.9825 12.2467 22 12.3392 22C12.4318 22 12.5219 21.9825 12.6078 21.9525C12.6128 21.9516 12.6186 21.9516 12.6244 21.95C20.485 19.0904 20.6693 10.421 20.6701 10.3343C20.6743 9.87309 20.6785 9.11839 20.6785 8.65723V6.15547C20.6785 5.23648 19.9304 4.48762 19.0106 4.48762Z" fill="#6B7084"/>
</svg>
