<svg viewBox="0 0 24 24" fill="none" xmlns="http://www.w3.org/2000/svg">
<path fill-rule="evenodd" clip-rule="evenodd" d="M15.6749 12.8269C15.6749 14.6665 14.1789 16.1625 12.3392 16.1625C10.4996 16.1625 9.00354 14.6665 9.00354 12.8269C9.00354 12.3657 9.37714 11.9929 9.83746 11.9929C10.2978 11.9929 10.6714 12.3657 10.6714 12.8269C10.6714 13.7467 11.4194 14.4947 12.3392 14.4947C13.259 14.4947 14.0071 13.7467 14.0071 12.8269C14.0071 12.0455 13.465 11.3925 12.7387 11.2124L12.9288 11.4033C13.2549 11.7294 13.2549 12.2564 12.9288 12.5825C12.7662 12.7451 12.5527 12.8269 12.3392 12.8269C12.1257 12.8269 11.9123 12.7451 11.7496 12.5825L10.0818 10.9147C9.75574 10.5886 9.75574 10.0616 10.0818 9.7355L11.7496 8.06765C12.0757 7.74159 12.6027 7.74159 12.9288 8.06765C13.2549 8.39372 13.2549 8.92076 12.9288 9.24682L12.6519 9.52452C14.3507 9.6913 15.6749 11.0998 15.6749 12.8269ZM19.0106 4.48762H18.1767C14.6742 4.48762 13.0973 2.41615 13.0347 2.33193C12.8579 2.08509 12.5702 1.97918 12.2884 2.00336C12.044 2.01254 11.8039 2.11594 11.6462 2.32776C11.5812 2.41615 10.0042 4.48762 6.50177 4.48762H5.66785C4.74803 4.48762 4 5.23565 4 6.15547V8.65723C4 9.11839 4.00417 9.87309 4.00917 10.3343C4.01001 10.421 4.19347 19.0904 12.054 21.9491C12.0599 21.9508 12.0657 21.9508 12.0707 21.9525C12.1566 21.9825 12.2467 22 12.3392 22C12.4318 22 12.521 21.9825 12.6069 21.9525C12.6128 21.9508 12.6186 21.9508 12.6244 21.9491C20.485 19.0904 20.6685 10.421 20.6693 10.3343C20.6743 9.87309 20.6785 9.11839 20.6785 8.65723V6.15547C20.6785 5.23565 19.9304 4.48762 19.0106 4.48762Z" fill="currentColor"/>
</svg>