<svg width="24" height="24" viewBox="0 0 24 24" fill="none" xmlns="http://www.w3.org/2000/svg">
<path fill-rule="evenodd" clip-rule="evenodd" d="M20.6575 10.334C20.6567 10.4212 20.4733 19.0898 12.6183 21.9497C12.6125 21.9514 12.6067 21.9505 12.6008 21.9522C12.515 21.9816 12.4258 22 12.3333 22C12.2408 22 12.1517 21.9816 12.0658 21.9522C12.06 21.9505 12.0542 21.9514 12.0483 21.9497C4.19333 19.0898 4.01 10.4212 4.00917 10.334C4.00417 9.873 4 9.11862 4 8.65762V6.15561C4 5.23611 4.7475 4.4876 5.66667 4.4876H6.5C10 4.4876 11.5758 2.41642 11.6408 2.32841C11.7983 2.11635 12.0367 2.01325 12.2817 2.00319C12.5642 1.97972 12.8508 2.08533 13.0283 2.3326C13.0908 2.41642 14.6667 4.4876 18.1667 4.4876H19C19.9192 4.4876 20.6667 5.23611 20.6667 6.15561V8.65762C20.6667 9.11862 20.6625 9.873 20.6575 10.334ZM19 6.15572H18.1667C15.1217 6.15572 13.2417 4.85065 12.3334 4.00659C11.425 4.85065 9.54502 6.15572 6.50002 6.15572H5.66669V8.65773C5.66669 9.11371 5.67085 9.86054 5.67585 10.3165C5.68002 10.6199 5.87002 17.696 12.3325 20.2592C18.8225 17.6809 18.99 10.3911 18.9909 10.3165C18.9959 9.86054 19 9.11371 19 8.65773V6.15572ZM15.4225 15.0841C15.26 15.2475 15.0467 15.3288 14.8333 15.3288C14.62 15.3288 14.4067 15.2475 14.2442 15.0841L12.3333 13.1721L10.4225 15.0841C10.26 15.2475 10.0467 15.3288 9.83334 15.3288C9.62 15.3288 9.40667 15.2475 9.24417 15.0841C8.91834 14.7588 8.91834 14.2308 9.24417 13.9056L11.155 11.9928L9.24417 10.0809C8.91834 9.75482 8.91834 9.22759 9.24417 8.90153C9.57 8.57548 10.0967 8.57548 10.4225 8.90153L12.3333 10.8135L14.2442 8.90153C14.57 8.57548 15.0967 8.57548 15.4225 8.90153C15.7483 9.22759 15.7483 9.75482 15.4225 10.0809L13.5117 11.9928L15.4225 13.9056C15.7483 14.2308 15.7483 14.7588 15.4225 15.0841Z" fill="#6B7084"/>
</svg>
