<svg width="24" height="24" viewBox="0 0 24 24" fill="none" xmlns="http://www.w3.org/2000/svg">
<path fill-rule="evenodd" clip-rule="evenodd" d="M20.6575 10.3345C20.6567 10.4216 20.4733 19.0905 12.6183 21.9497C12.6125 21.9522 12.6067 21.9514 12.6008 21.9531C12.515 21.9824 12.425 22 12.3333 22C12.2408 22 12.1517 21.9824 12.0658 21.9531C12.06 21.9514 12.0542 21.9522 12.0483 21.9497C4.19333 19.0905 4.01 10.4216 4.00917 10.3345C4.00417 9.87345 4 9.11905 4 8.65719V6.15593C4 5.2364 4.7475 4.48787 5.66667 4.48787H6.5C10 4.48787 11.5758 2.41663 11.6408 2.32861C11.7983 2.11654 12.0367 2.01344 12.2817 2.00338C12.5642 1.97907 12.8517 2.08553 13.0292 2.33196C13.0908 2.41663 14.6667 4.48787 18.1667 4.48787H19C19.9192 4.48787 20.6667 5.2364 20.6667 6.15593V8.65719C20.6667 9.11905 20.6625 9.87345 20.6575 10.3345ZM19 6.15593H18.1667C15.1217 6.15593 13.2417 4.85082 12.3333 4.00673C11.425 4.85082 9.545 6.15593 6.5 6.15593H5.66667V8.65719C5.66667 9.11318 5.67083 9.86003 5.67583 10.3169C5.68 10.6203 5.87 17.6966 12.3325 20.2599C18.8225 17.6815 18.99 10.3915 18.9908 10.3169C18.9958 9.86003 19 9.11318 19 8.65719V6.15593ZM12.3333 16.3454C12.1167 16.3454 11.9 16.2607 11.7417 16.1031C11.5917 15.9447 11.5 15.736 11.5 15.5113C11.5 15.2942 11.5917 15.0771 11.7417 14.9187C12.0583 14.6102 12.6167 14.6186 12.925 14.9187C13.075 15.0771 13.1667 15.2942 13.1667 15.5113C13.1667 15.736 13.075 15.9447 12.925 16.1031C12.7667 16.2532 12.55 16.3454 12.3333 16.3454ZM12.3333 13.2448C11.8733 13.2448 11.5 12.8709 11.5 12.4099V9.07462C11.5 8.6136 11.8733 8.24059 12.3333 8.24059C12.7933 8.24059 13.1667 8.6136 13.1667 9.07462V12.4099C13.1667 12.8709 12.7933 13.2448 12.3333 13.2448Z" fill="#6B7084"/>
</svg>
