<svg viewBox="0 0 24 24" fill="none" xmlns="http://www.w3.org/2000/svg">
<path fill-rule="evenodd" clip-rule="evenodd" d="M20.6785 6.15547V8.65723C20.6785 9.11839 20.6743 9.87309 20.6693 10.3343C20.6685 10.421 20.485 19.0904 12.6244 21.9491C12.6186 21.9508 12.6128 21.9508 12.6069 21.9525C12.521 21.9825 12.4318 22 12.3392 22C12.2467 22 12.1566 21.9825 12.0707 21.9525C12.0657 21.9508 12.0599 21.9508 12.054 21.9491C4.19347 19.0904 4.01001 10.421 4.00917 10.3343C4.00417 9.87309 4 9.11839 4 8.65723V6.15547C4 5.23565 4.74803 4.48762 5.66785 4.48762H6.50177C10.0042 4.48762 11.5812 2.41615 11.6462 2.32776C11.8039 2.11594 12.044 2.0117 12.2884 2.00336C12.5711 1.97918 12.8579 2.08509 13.0347 2.33193C13.0973 2.41615 14.6742 4.48762 18.1767 4.48762H19.0106C19.9304 4.48762 20.6785 5.23565 20.6785 6.15547ZM12.3392 8.24027C11.8789 8.24027 11.5053 8.61304 11.5053 9.07419V12.4099C11.5053 12.871 11.8789 13.2438 12.3392 13.2438C12.7996 13.2438 13.1732 12.871 13.1732 12.4099V9.07419C13.1732 8.61304 12.7996 8.24027 12.3392 8.24027ZM12.9313 14.3196C13.0814 14.4772 13.1732 14.6949 13.1732 14.9117C13.1732 15.0201 13.1565 15.1285 13.1064 15.2286C13.0647 15.3286 13.0064 15.4195 12.9313 15.5038C12.7729 15.6614 12.5644 15.7456 12.3392 15.7456C12.1141 15.7456 11.9056 15.6614 11.7471 15.5038C11.6721 15.4195 11.6137 15.3286 11.572 15.2286C11.522 15.1285 11.5053 15.0201 11.5053 14.9117C11.5053 14.6949 11.597 14.4772 11.7471 14.3196C11.9806 14.0861 12.3559 14.0194 12.6561 14.1445C12.7645 14.1862 12.8479 14.2445 12.9313 14.3196Z" fill="currentColor"/>
</svg>