<svg viewBox="0 0 24 24" fill="none" xmlns="http://www.w3.org/2000/svg">
<path fill-rule="evenodd" clip-rule="evenodd" d="M20.6575 10.334C20.6567 10.4212 20.4733 19.0898 12.6183 21.9497C12.6125 21.9514 12.6067 21.9505 12.6008 21.9522C12.515 21.9816 12.4258 22 12.3333 22C12.2408 22 12.1517 21.9816 12.0658 21.9522C12.06 21.9505 12.0542 21.9514 12.0483 21.9497C4.19333 19.0898 4.01 10.4212 4.00917 10.334C4.00417 9.873 4 9.11862 4 8.65762V6.15561C4 5.23611 4.7475 4.4876 5.66667 4.4876H6.5C10 4.4876 11.5758 2.41642 11.6408 2.32841C11.7983 2.11635 12.0367 2.01325 12.2817 2.00319C12.5642 1.97972 12.8508 2.08533 13.0283 2.3326C13.0908 2.41642 14.6667 4.4876 18.1667 4.4876H19C19.9192 4.4876 20.6667 5.23611 20.6667 6.15561V8.65762C20.6667 9.11862 20.6625 9.873 20.6575 10.334ZM19 6.15572H18.1667C15.1217 6.15572 13.2417 4.85065 12.3333 4.00659C11.425 4.85065 9.54499 6.15572 6.49999 6.15572H5.66666V8.65773C5.66666 9.11371 5.67082 9.86054 5.67582 10.3165C5.67999 10.6199 5.86999 17.696 12.3325 20.2592C18.8225 17.6809 18.99 10.3911 18.9908 10.3165C18.9958 9.86054 19 9.11371 19 8.65773V6.15572ZM12.332 16.363C12.1015 16.3637 11.8932 16.2703 11.7423 16.1195C11.5915 15.9686 11.4981 15.7603 11.4988 15.5298L11.4995 12.8267L8.79645 12.8275C8.56597 12.8282 8.35763 12.7348 8.20678 12.584C8.05593 12.4331 7.96257 12.2248 7.96324 11.9943C7.96281 11.5339 8.3362 11.1605 8.79657 11.161L11.5003 11.1596L11.501 8.45651C11.5012 7.99555 11.874 7.62275 12.3349 7.62259C12.7959 7.62243 13.1683 7.99484 13.1682 8.4558L13.1674 11.1589L15.8705 11.1581C16.3314 11.158 16.7038 11.5304 16.7037 11.9913C16.7035 12.4523 16.3307 12.8251 15.8698 12.8253L13.1667 12.826L13.1653 15.5297C13.1657 15.9901 12.7923 16.3635 12.332 16.363Z" fill="currentColor"/>
</svg>