<svg width="24" height="24" viewBox="0 0 24 24" fill="none" xmlns="http://www.w3.org/2000/svg">
<path fill-rule="evenodd" clip-rule="evenodd" d="M16.1707 8.82026C16.541 9.09294 16.621 9.61496 16.3475 9.98521L12.6617 14.9886C12.5249 15.1746 12.3181 15.2955 12.0896 15.323C12.0563 15.3272 12.0229 15.3288 11.9904 15.3288C11.7953 15.3288 11.6052 15.2604 11.455 15.1337L8.4697 12.632C8.11613 12.3368 8.07026 11.8106 8.36546 11.457C8.66066 11.1051 9.18685 11.0568 9.54042 11.3536L11.8453 13.2849L15.0049 8.99705C15.2785 8.6268 15.7997 8.54674 16.1707 8.82026ZM19.0101 4.48817H18.1762C14.6739 4.48817 13.097 2.41593 13.0344 2.33254C12.8577 2.08571 12.5708 1.97981 12.2881 2.00315C12.0429 2.01316 11.8036 2.11656 11.646 2.32837C11.581 2.41593 10.0032 4.48817 6.50169 4.48817H5.66779C4.74801 4.48817 4 5.23617 4 6.15596V8.65765C4 9.11796 4.00417 9.87347 4.00917 10.3338C4.01001 10.4213 4.19346 19.0897 12.0538 21.9491C12.0596 21.9508 12.0654 21.9508 12.0705 21.9525C12.1563 21.9817 12.2464 22 12.339 22C12.4315 22 12.5208 21.9817 12.6066 21.9525C12.6125 21.9508 12.6183 21.9508 12.6242 21.9491C20.4845 19.0897 20.6679 10.4213 20.6688 10.3338C20.6738 9.87347 20.6779 9.11796 20.6779 8.65765V6.15596C20.6779 5.23617 19.9299 4.48817 19.0101 4.48817Z" fill="#6B7084"/>
</svg>
