<svg width="24" height="24" viewBox="0 0 24 24" fill="none" xmlns="http://www.w3.org/2000/svg">
<path fill-rule="evenodd" clip-rule="evenodd" d="M20.6575 10.3345C20.6567 10.4216 20.4733 19.0905 12.6183 21.9497C12.6125 21.9522 12.6067 21.9514 12.6008 21.9531C12.515 21.9824 12.425 22 12.3333 22C12.2408 22 12.1517 21.9824 12.0658 21.9531C12.06 21.9514 12.0542 21.9522 12.0483 21.9497C4.19333 19.0905 4.01 10.4216 4.00917 10.3345C4.00417 9.87345 4 9.11905 4 8.65719V6.15593C4 5.2364 4.7475 4.48787 5.66667 4.48787H6.5C10 4.48787 11.5758 2.41663 11.6408 2.32861C11.7983 2.11654 12.0367 2.01344 12.2817 2.00338C12.5633 1.97907 12.8508 2.08553 13.0292 2.33196C13.0908 2.41663 14.6667 4.48787 18.1667 4.48787H19C19.9192 4.48787 20.6667 5.2364 20.6667 6.15593V8.65719C20.6667 9.11905 20.6625 9.87345 20.6575 10.3345ZM19 6.15604H18.1667C15.1217 6.15604 13.2417 4.85093 12.3333 4.00684C11.425 4.85093 9.545 6.15604 6.50001 6.15604H5.66667V8.65729C5.66667 9.11328 5.67084 9.86014 5.67584 10.317C5.68001 10.6204 5.87001 17.6967 12.3325 20.2591C18.8225 17.6816 18.99 10.3916 18.9908 10.317C18.9958 9.86014 19 9.11328 19 8.65729V6.15604ZM12.3333 16.1633C10.495 16.1633 9 14.6671 9 12.8272C9 12.3662 9.37333 11.9932 9.83333 11.9932C10.2933 11.9932 10.6667 12.3662 10.6667 12.8272C10.6667 13.7467 11.4142 14.4953 12.3333 14.4953C13.2525 14.4953 14 13.7467 14 12.8272C14 12.046 13.4583 11.393 12.7317 11.2128L12.9225 11.4031C13.2483 11.7291 13.2483 12.2572 12.9225 12.5825C12.76 12.7451 12.5467 12.8272 12.3333 12.8272C12.12 12.8272 11.9067 12.7451 11.7442 12.5825L10.0775 10.9144C9.75167 10.5892 9.75167 10.0611 10.0775 9.73585L11.7442 8.06779C12.07 7.74172 12.5967 7.74172 12.9225 8.06779C13.2483 8.39386 13.2483 8.9211 12.9225 9.24717L12.645 9.52462C14.3433 9.69143 15.6667 11.0996 15.6667 12.8272C15.6667 14.6671 14.1717 16.1633 12.3333 16.1633Z" fill="#6B7084"/>
</svg>
