<svg width="24" height="24" viewBox="0 0 24 24" fill="none" xmlns="http://www.w3.org/2000/svg">
<path fill-rule="evenodd" clip-rule="evenodd" d="M12.3392 14.4947C11.9548 14.4947 11.5937 14.4005 11.2676 14.2437L14.5908 10.9213C14.7468 11.2474 14.841 11.6085 14.841 11.9929C14.841 13.3722 13.7185 14.4947 12.3392 14.4947ZM12.3392 9.49116C12.7245 9.49116 13.0856 9.58539 13.4117 9.74217L10.0885 13.0654C9.93253 12.7393 9.83746 12.3782 9.83746 11.9929C9.83746 10.6136 10.9599 9.49116 12.3392 9.49116ZM12.3392 7.82331C10.0401 7.82331 8.16961 9.6938 8.16961 11.9929C8.16961 14.2921 10.0401 16.1625 12.3392 16.1625C14.6384 16.1625 16.5088 14.2921 16.5088 11.9929C16.5088 9.6938 14.6384 7.82331 12.3392 7.82331ZM19.0106 4.48762H18.1767C14.6742 4.48762 13.0973 2.41615 13.0347 2.33193C12.8579 2.08509 12.5702 1.97918 12.2884 2.00336C12.044 2.01254 11.8039 2.11594 11.6462 2.32776C11.5812 2.41615 10.0042 4.48762 6.50177 4.48762H5.66785C4.74803 4.48762 4 5.23565 4 6.15547V8.65723C4 9.11839 4.00417 9.87309 4.00917 10.3343C4.01001 10.421 4.19347 19.0904 12.054 21.9491C12.0599 21.9508 12.0657 21.9508 12.0707 21.9525C12.1566 21.9825 12.2467 22 12.3392 22C12.4318 22 12.521 21.9825 12.6069 21.9525C12.6128 21.9508 12.6186 21.9508 12.6244 21.9491C20.485 19.0904 20.6685 10.421 20.6693 10.3343C20.6743 9.87309 20.6785 9.11839 20.6785 8.65723V6.15547C20.6785 5.23565 19.9304 4.48762 19.0106 4.48762Z" fill="#6B7084"/>
</svg>
