<svg width="24" height="24" viewBox="0 0 24 24" fill="none" xmlns="http://www.w3.org/2000/svg">
<path fill-rule="evenodd" clip-rule="evenodd" d="M20.6575 10.3335C20.6567 10.4207 20.4733 19.0905 12.6183 21.9497C12.6125 21.9514 12.6067 21.9505 12.6017 21.9522C12.5158 21.9816 12.4258 22 12.3333 22C12.2408 22 12.1508 21.9816 12.065 21.9522C12.0592 21.9505 12.0542 21.9514 12.0483 21.9497C4.19333 19.0905 4.01 10.4207 4.00917 10.3335C4.00417 9.87248 4 9.11807 4 8.65705V6.15493C4 5.23623 4.7475 4.48685 5.66667 4.48685H6.5C10 4.48685 11.5758 2.41558 11.6408 2.32757C11.7992 2.11466 12.0392 2.01156 12.285 2.00317C12.5667 1.9797 12.8525 2.08616 13.0283 2.33176C13.0908 2.41558 14.6667 4.48685 18.1667 4.48685H19C19.9192 4.48685 20.6667 5.23623 20.6667 6.15493V8.65705C20.6667 9.11807 20.6625 9.87248 20.6575 10.3335ZM19 6.15493H18.1667C15.1217 6.15493 13.2417 4.8498 12.3333 4.0057C11.425 4.8498 9.545 6.15493 6.5 6.15493H5.66667V8.65704C5.66667 9.11304 5.67083 9.85991 5.67583 10.3159C5.68 10.6193 5.87 17.6957 12.3325 20.259C18.8225 17.6806 18.99 10.3905 18.9908 10.3159C18.9958 9.85991 19 9.11304 19 8.65704V6.15493ZM12.6558 14.989C12.52 15.1743 12.3125 15.295 12.0841 15.3227C12.0508 15.3268 12.0183 15.3285 11.985 15.3285C11.79 15.3285 11.6008 15.2598 11.45 15.1341L8.46665 12.6319C8.11331 12.336 8.06748 11.8105 8.36248 11.4567C8.65748 11.1047 9.18415 11.0561 9.53665 11.3536L11.84 13.2849L14.9975 8.99653C15.2708 8.62603 15.7916 8.5464 16.1625 8.81966C16.5333 9.09293 16.6125 9.61514 16.3391 9.98564L12.6558 14.989Z" fill="#6B7084"/>
</svg>
