<svg viewBox="0 0 24 24" fill="none" xmlns="http://www.w3.org/2000/svg">
<path fill-rule="evenodd" clip-rule="evenodd" d="M20.6785 6.15547V8.65723C20.6785 9.11839 20.6743 9.87309 20.6693 10.3343C20.6685 10.421 20.485 19.0904 12.6244 21.9491C12.6186 21.9508 12.6128 21.9508 12.6069 21.9525C12.521 21.9825 12.4318 22 12.3392 22C12.2467 22 12.1566 21.9825 12.0707 21.9525C12.0657 21.9508 12.0599 21.9508 12.054 21.9491C4.19347 19.0904 4.01001 10.421 4.00917 10.3343C4.00417 9.87309 4 9.11839 4 8.65723V6.15547C4 5.23565 4.74803 4.48762 5.66785 4.48762H6.50177C10.0042 4.48762 11.5812 2.41615 11.6462 2.32776C11.8039 2.11594 12.044 2.01254 12.2884 2.00336C12.5702 1.97918 12.8579 2.08509 13.0347 2.33193C13.0973 2.41615 14.6742 4.48762 18.1767 4.48762H19.0106C19.9304 4.48762 20.6785 5.23565 20.6785 6.15547ZM15.4306 10.0807L13.5184 11.9929L15.4306 13.9051C15.7567 14.2312 15.7567 14.7582 15.4306 15.0843C15.268 15.2469 15.0545 15.3286 14.841 15.3286C14.6275 15.3286 14.414 15.2469 14.2514 15.0843L12.3392 13.1721L10.427 15.0843C10.2644 15.2469 10.0509 15.3286 9.83747 15.3286C9.62398 15.3286 9.4105 15.2469 9.24788 15.0843C8.92182 14.7582 8.92182 14.2312 9.24788 13.9051L11.1601 11.9929L9.24788 10.0807C8.92182 9.75468 8.92182 9.22764 9.24788 8.90157C9.57395 8.57551 10.101 8.57551 10.427 8.90157L12.3392 10.8138L14.2514 8.90157C14.5775 8.57551 15.1045 8.57551 15.4306 8.90157C15.7567 9.22764 15.7567 9.75468 15.4306 10.0807Z" fill="currentColor"/>
</svg>