<svg viewBox="0 0 24 24" fill="none" xmlns="http://www.w3.org/2000/svg">
<path fill-rule="evenodd" clip-rule="evenodd" d="M16.5083 12.0069C16.5083 12.4672 16.1347 12.8408 15.6744 12.8408H13.1727V15.3425C13.1727 15.8028 12.7991 16.1764 12.3388 16.1764C11.8785 16.1764 11.5049 15.8028 11.5049 15.3425V12.8408H9.00321C8.5429 12.8408 8.16931 12.4672 8.16931 12.0069C8.16931 11.5466 8.5429 11.173 9.00321 11.173H11.5049V8.6713C11.5049 8.21099 11.8785 7.8374 12.3388 7.8374C12.7991 7.8374 13.1727 8.21099 13.1727 8.6713V11.173H15.6744C16.1347 11.173 16.5083 11.5466 16.5083 12.0069ZM19.0101 4.48817H18.1762C14.6739 4.48817 13.097 2.41593 13.0344 2.33254C12.8577 2.08571 12.5708 1.97981 12.2881 2.00315C12.0429 2.01316 11.8036 2.11656 11.646 2.32837C11.581 2.41593 10.0032 4.48817 6.50169 4.48817H5.66779C4.74801 4.48817 4 5.23617 4 6.15596V8.65765C4 9.11796 4.00417 9.87347 4.00917 10.3338C4.01001 10.4213 4.19346 19.0897 12.0538 21.9491C12.0596 21.9508 12.0654 21.9508 12.0705 21.9525C12.1563 21.9817 12.2464 22 12.339 22C12.4315 22 12.5208 21.9817 12.6066 21.9525C12.6125 21.9508 12.6183 21.9508 12.6242 21.9491C20.4845 19.0897 20.6679 10.4213 20.6688 10.3338C20.6738 9.87347 20.6779 9.11796 20.6779 8.65765V6.15596C20.6779 5.23617 19.9299 4.48817 19.0101 4.48817Z" fill="currentColor"/>
</svg>