<svg viewBox="0 0 24 24" fill="none" xmlns="http://www.w3.org/2000/svg">
<path fill-rule="evenodd" clip-rule="evenodd" d="M20.6575 10.3336C20.6567 10.4208 20.4733 19.0905 12.6183 21.9497C12.6125 21.9514 12.6067 21.9505 12.6017 21.9522C12.5158 21.9816 12.4258 22 12.3333 22C12.2408 22 12.1508 21.9816 12.065 21.9522C12.0592 21.9505 12.0542 21.9514 12.0483 21.9497C4.19333 19.0905 4.01 10.4208 4.00917 10.3336C4.00417 9.87261 4 9.11821 4 8.65719V6.15509C4 5.2364 4.7475 4.48703 5.66667 4.48703H6.5C10 4.48703 11.5758 2.41579 11.6408 2.32777C11.7992 2.11487 12.0383 2.01176 12.2833 2.00338C12.565 1.97907 12.8517 2.08553 13.0283 2.33196C13.0908 2.41579 14.6667 4.48703 18.1667 4.48703H19C19.9192 4.48703 20.6667 5.2364 20.6667 6.15509V8.65719C20.6667 9.11821 20.6625 9.87261 20.6575 10.3336ZM19 6.1551H18.1667C15.1217 6.1551 13.2417 4.84998 12.3333 4.00589C11.425 4.84998 9.545 6.1551 6.5 6.1551H5.66667V8.65719C5.66667 9.11318 5.67083 9.86004 5.67583 10.316C5.68 10.6195 5.87 17.6957 12.3325 20.259C18.8225 17.6806 18.99 10.3906 18.9908 10.316C18.9958 9.86004 19 9.11318 19 8.65719V6.1551ZM13.1683 12.6731V12.8265C13.1683 13.2875 12.795 13.6605 12.335 13.6605C11.875 13.6605 11.5017 13.2875 11.5017 12.8265V12.5004C11.5017 12.4979 11.5 12.4954 11.5 12.4929C11.5 12.4895 11.5017 12.487 11.5017 12.4845V12.1886C11.5017 12.1534 11.5175 12.1241 11.5217 12.0905C11.5175 12.057 11.5017 12.0277 11.5017 11.9933C11.5017 11.5314 11.875 11.1593 12.335 11.1593C12.7933 11.1593 13.1667 10.7846 13.1667 10.3252C13.1667 9.86506 12.7933 9.49122 12.335 9.49122C11.875 9.49122 11.5 9.86506 11.5 10.3252C11.5 10.7854 11.1267 11.1593 10.6667 11.1593C10.2067 11.1593 9.83333 10.7854 9.83333 10.3252C9.83333 8.94553 10.9558 7.82315 12.335 7.82315C13.7125 7.82315 14.8333 8.94553 14.8333 10.3252C14.8333 11.4107 14.135 12.3278 13.1683 12.6731ZM12.925 14.7368C13.0833 14.8944 13.1667 15.1115 13.1667 15.3286C13.1667 15.5457 13.0833 15.762 12.925 15.9204C12.7667 16.0704 12.5583 16.1626 12.3333 16.1626C12.1167 16.1626 11.9 16.0704 11.7417 15.9204C11.5917 15.762 11.5 15.5457 11.5 15.3286C11.5 15.1115 11.5917 14.8944 11.7417 14.7368C12.0583 14.4275 12.6167 14.4275 12.925 14.7368Z" fill="currentColor"/>
</svg>