<svg width="24" height="24" viewBox="0 0 24 24" fill="none" xmlns="http://www.w3.org/2000/svg">
<path fill-rule="evenodd" clip-rule="evenodd" d="M20.6575 10.334C20.6567 10.4212 20.4733 19.0898 12.6183 21.9497C12.6125 21.9514 12.6067 21.9505 12.6008 21.9522C12.515 21.9816 12.425 22 12.3333 22C12.2408 22 12.1517 21.9816 12.0658 21.9522C12.06 21.9505 12.0542 21.9514 12.0483 21.9497C4.19333 19.0898 4.01 10.4212 4.00917 10.334C4.00417 9.873 4 9.11862 4 8.65762V6.15561C4 5.23611 4.7475 4.4876 5.66667 4.4876H6.5C10 4.4876 11.5758 2.41642 11.6408 2.32841C11.7983 2.11635 12.0367 2.01325 12.2817 2.00319C12.5642 1.97972 12.8508 2.08533 13.0292 2.3326C13.0908 2.41642 14.6667 4.4876 18.1667 4.4876H19C19.9192 4.4876 20.6667 5.23611 20.6667 6.15561V8.65762C20.6667 9.11862 20.6625 9.873 20.6575 10.334ZM19 6.15572H18.1667C15.1217 6.15572 13.2417 4.85065 12.3334 4.00659C11.425 4.85065 9.54502 6.15572 6.50002 6.15572H5.66669V8.65773C5.66669 9.11371 5.67085 9.86054 5.67585 10.3165C5.68002 10.6199 5.87002 17.696 12.3325 20.2592C18.8225 17.6809 18.99 10.3911 18.9909 10.3165C18.9959 9.86054 19 9.11371 19 8.65773V6.15572ZM12.3334 16.1629C10.0359 16.1629 8.16669 14.2921 8.16669 11.9937C8.16669 9.69458 10.0359 7.82373 12.3334 7.82373C14.6309 7.82373 16.5 9.69458 16.5 11.9937C16.5 14.2921 14.6309 16.1629 12.3334 16.1629ZM14.8333 11.9936C14.8333 11.6081 14.7391 11.2476 14.5833 10.9216L11.2625 14.2442C11.5883 14.4001 11.9483 14.4948 12.3333 14.4948C13.7116 14.4948 14.8333 13.3725 14.8333 11.9936ZM9.83333 11.9936C9.83333 12.3784 9.92833 12.7396 10.0842 13.0657L13.405 9.74224C13.0792 9.58634 12.7183 9.49078 12.3333 9.49078C10.955 9.49078 9.83333 10.614 9.83333 11.9936Z" fill="#6B7084"/>
</svg>
