<svg width="24" height="24" viewBox="0 0 24 24" fill="none" xmlns="http://www.w3.org/2000/svg">
<path fill-rule="evenodd" clip-rule="evenodd" d="M20.6575 10.3345C20.6567 10.4216 20.4733 19.0905 12.6183 21.9497C12.6125 21.9522 12.6067 21.9514 12.6008 21.9531C12.515 21.9824 12.425 22 12.3333 22C12.2408 22 12.1517 21.9824 12.0658 21.9531C12.06 21.9514 12.0542 21.9522 12.0483 21.9497C4.19333 19.0905 4.01 10.4216 4.00917 10.3345C4.00417 9.87345 4 9.11905 4 8.65719V6.15593C4 5.2364 4.7475 4.48787 5.66667 4.48787H6.5C10 4.48787 11.5758 2.41663 11.6408 2.32861C11.7983 2.11654 12.0375 2.01344 12.2817 2.00338C12.5642 1.97907 12.8517 2.08553 13.0292 2.33196C13.0908 2.41663 14.6667 4.48787 18.1667 4.48787H19C19.9192 4.48787 20.6667 5.2364 20.6667 6.15593V8.65719C20.6667 9.11905 20.6625 9.87345 20.6575 10.3345ZM19 6.15604H18.1667C15.1217 6.15604 13.2417 4.85093 12.3334 4.00684C11.425 4.85093 9.54502 6.15604 6.50002 6.15604H5.66669V8.65729C5.66669 9.11328 5.67085 9.86014 5.67585 10.317C5.68002 10.6204 5.87002 17.6967 12.3325 20.2591C18.8225 17.6816 18.99 10.3916 18.9909 10.317C18.9959 9.86014 19 9.11328 19 8.65729V6.15604ZM14.4733 12.9656L14.7 14.3604C14.7516 14.6765 14.6183 14.9933 14.3575 15.1769C14.2141 15.2775 14.0466 15.3294 13.8775 15.3294C13.7391 15.3294 13.6 15.2951 13.475 15.2247L12.3333 14.5926L11.1908 15.2247C10.9125 15.3806 10.5691 15.3596 10.3075 15.1769C10.0466 14.9925 9.91412 14.6756 9.96579 14.3604L10.1933 12.9656L9.23746 11.9866C9.01912 11.7628 8.94412 11.4359 9.04329 11.1392C9.14162 10.8424 9.39829 10.627 9.70746 10.5792L10.995 10.3822L11.5791 9.13749C11.7158 8.84495 12.01 8.65719 12.3333 8.65719C12.6566 8.65719 12.9508 8.84495 13.0875 9.13749L13.6716 10.3822L14.9591 10.5792C15.2675 10.627 15.525 10.8424 15.6233 11.1392C15.7225 11.4359 15.6475 11.7628 15.4291 11.9866L14.4733 12.9656ZM12.9798 11.964C12.7048 11.9221 12.469 11.7452 12.3515 11.4946L12.3331 11.4552L12.314 11.4946C12.1965 11.7452 11.9606 11.9221 11.6856 11.964L11.564 11.9832L11.679 12.1006C11.864 12.2909 11.9481 12.5566 11.9056 12.8181L11.8865 12.9338L11.9298 12.9103C12.1806 12.772 12.4865 12.772 12.7365 12.9103L12.7798 12.9338L12.7606 12.8181C12.7181 12.5566 12.8023 12.2909 12.9873 12.1006L13.1023 11.9832L12.9798 11.964Z" fill="#6B7084"/>
</svg>
