<svg viewBox="0 0 24 24" fill="none" xmlns="http://www.w3.org/2000/svg">
<path fill-rule="evenodd" clip-rule="evenodd" d="M14.841 10.3251C14.841 11.4108 14.143 12.3273 13.1749 12.6726V12.8268C13.1749 13.288 12.8013 13.6608 12.3409 13.6608C11.8806 13.6608 11.507 13.288 11.507 12.8268V12.5008C11.507 12.4974 11.5053 12.4958 11.5053 12.4933C11.5053 12.4908 11.507 12.4883 11.507 12.4849V12.1881C11.507 12.1539 11.5229 12.1239 11.5262 12.0905C11.5229 12.0571 11.507 12.0271 11.507 11.9929C11.507 11.5318 11.8806 11.159 12.3409 11.159C12.7996 11.159 13.1732 10.7854 13.1732 10.3251C13.1732 9.86475 12.7996 9.49116 12.3409 9.49116C11.8806 9.49116 11.5053 9.86475 11.5053 10.3251C11.5053 10.7862 11.1318 11.159 10.6714 11.159C10.2111 11.159 9.8375 10.7862 9.8375 10.3251C9.8375 8.94577 10.9608 7.82331 12.3409 7.82331C13.7194 7.82331 14.841 8.94577 14.841 10.3251ZM13.1148 15.0117C13.1565 15.1118 13.1731 15.2202 13.1731 15.3286C13.1731 15.437 13.1565 15.5454 13.1148 15.6455C13.0731 15.7456 13.0064 15.8365 12.9313 15.9207C12.7729 16.0783 12.5644 16.1625 12.3392 16.1625C12.2308 16.1625 12.1224 16.1375 12.0223 16.0958C11.9223 16.0541 11.8305 15.9958 11.7555 15.9207C11.6721 15.8365 11.6137 15.7456 11.572 15.6455C11.5303 15.5454 11.5053 15.437 11.5053 15.3286C11.5053 15.2202 11.5303 15.1118 11.572 15.0117C11.6137 14.9117 11.6721 14.8199 11.7555 14.7365C11.9806 14.503 12.3559 14.4363 12.6561 14.5614C12.7645 14.6031 12.8562 14.6615 12.9313 14.7365C13.0064 14.8199 13.0647 14.9117 13.1148 15.0117ZM19.0106 4.48762H18.1767C14.6742 4.48762 13.0973 2.41615 13.0347 2.33193C12.8579 2.08509 12.5702 1.97918 12.2884 2.00336C12.044 2.01254 11.8039 2.11594 11.6462 2.32776C11.5812 2.41615 10.0042 4.48762 6.50177 4.48762H5.66785C4.74803 4.48762 4 5.23565 4 6.15547V8.65723C4 9.11839 4.00417 9.87309 4.00917 10.3343C4.01001 10.421 4.19347 19.0904 12.054 21.9491C12.0599 21.9508 12.0657 21.9508 12.0707 21.9525C12.1566 21.9825 12.2467 22 12.3392 22C12.4318 22 12.521 21.9825 12.6069 21.9525C12.6128 21.9508 12.6186 21.9508 12.6244 21.9491C20.485 19.0904 20.6685 10.421 20.6693 10.3343C20.6743 9.87309 20.6785 9.11839 20.6785 8.65723V6.15547C20.6785 5.23565 19.9304 4.48762 19.0106 4.48762Z" fill="currentColor"/>
</svg>