<svg width="24" height="24" viewBox="0 0 24 24" fill="none" xmlns="http://www.w3.org/2000/svg">
<path fill-rule="evenodd" clip-rule="evenodd" d="M22 9.50021C22 10.1565 21.7232 10.7501 21.2795 11.1966V20.3388C21.2795 21.2576 20.419 22 19.4998 22H15.3331C14.4147 22 13.7311 21.2576 13.7311 20.3388V15.3225L10.3335 15.3333V20.3329C10.3335 21.2526 9.58534 22 8.66695 22H4.50021C3.58098 22 2.83368 21.2526 2.83368 20.3329V11.3061C2.32291 10.8504 2 10.2117 2 9.50021C2 9.47346 2.01258 9.45088 2.0151 9.42496C2.01761 9.39905 2.00923 9.3748 2.01426 9.34972L3.23627 2.68222C3.24214 2.65128 3.26059 2.62787 3.26981 2.59861C3.28575 2.54427 3.3042 2.49411 3.3302 2.44561C3.35704 2.39629 3.3864 2.35281 3.42162 2.31017C3.45349 2.27172 3.4862 2.23744 3.52478 2.20483C3.5684 2.16721 3.61453 2.13711 3.66485 2.11036C3.70846 2.08695 3.75124 2.06772 3.79821 2.05184C3.8544 2.03344 3.90975 2.02341 3.9693 2.01672C3.9995 2.01421 4.0255 2 4.05569 2H19.9443C19.9762 2 20.003 2.01421 20.034 2.01756C20.0894 2.02425 20.1414 2.03344 20.1934 2.05016C20.2454 2.06688 20.2924 2.08695 20.3402 2.11287C20.3863 2.13878 20.4282 2.16637 20.4685 2.19982C20.5104 2.23409 20.5457 2.27088 20.5801 2.31268C20.6136 2.35281 20.6421 2.39462 20.6673 2.44143C20.6941 2.49076 20.7134 2.54176 20.7302 2.5961C20.7386 2.62537 20.757 2.64794 20.7629 2.67804L21.9857 9.13653C22.0034 9.23016 21.995 9.32129 21.9824 9.40992C21.9857 9.44085 22 9.4676 22 9.50021ZM4.5002 20.3329L8.69881 20.3388V15.3225C8.69881 14.4036 9.41424 13.6663 10.3335 13.6663H13.6665C14.5858 13.6663 15.333 14.4145 15.333 15.3333V20.3329L19.6021 20.3388V11.9741C19.5124 11.9824 19.4251 12 19.332 12C18.6208 12 17.9775 11.7333 17.4986 11.3061C17.0205 11.7333 16.3772 12 15.666 12C14.9556 12 14.3115 11.7333 13.8334 11.3061C13.3545 11.7333 12.7104 12 11.9992 12C11.2879 12 10.6446 11.7333 10.1657 11.3061C9.68766 11.7333 9.04436 12 8.33313 12C7.6219 12 6.97861 11.7333 6.50054 11.3061C6.02163 11.7333 5.3775 12 4.66627 12C4.60924 12 4.5564 11.9875 4.5002 11.9841V20.3329ZM4.66627 10.3329C5.21814 10.3329 5.66685 9.9592 5.66685 9.50021C5.66685 9.03954 6.04008 8.66583 6.50054 8.66583C6.96099 8.66583 7.33338 9.03954 7.33338 9.50021C7.33338 9.9592 7.78209 10.3329 8.33313 10.3329C8.88417 10.3329 9.33288 9.9592 9.33288 9.50021C9.33288 9.03954 9.70527 8.66583 10.1657 8.66583C10.6262 8.66583 10.9994 9.03954 10.9994 9.50021C10.9994 9.9592 11.4473 10.3329 11.9992 10.3329C12.551 10.3329 13.0006 9.9592 13.0006 9.50021C13.0006 9.03954 13.373 8.66583 13.8334 8.66583C14.2939 8.66583 14.6671 9.03954 14.6671 9.50021C14.6671 9.9592 15.115 10.3329 15.666 10.3329C16.2171 10.3329 16.6658 9.9592 16.6658 9.50021C16.6658 9.03954 17.0382 8.66583 17.4986 8.66583C17.9599 8.66583 18.3323 9.03954 18.3323 9.50021C18.3323 9.9592 18.781 10.3329 19.332 10.3329C19.8839 10.3329 20.3335 9.9592 20.3335 9.50021C20.3335 9.47763 20.3444 9.45841 20.346 9.43583L19.2448 3.61776H4.75853L3.67491 9.53198C3.69587 9.97592 4.12865 10.3329 4.66627 10.3329Z" fill="#6B7084"/>
</svg>
H15.3333V14.6659H16.9994V16.3332Z" fill="#6B7084"/>
</svg>
