<svg viewBox="0 0 24 24" fill="none" xmlns="http://www.w3.org/2000/svg">
<path fill-rule="evenodd" clip-rule="evenodd" d="M18.3814 12.6517C18.2251 12.7842 18.033 12.85 17.8408 12.85C17.6486 12.85 17.4564 12.7842 17.3002 12.6517C17.1532 12.5258 13.6807 9.53417 13.6807 6.155C13.6807 3.7475 15.4303 2 17.8408 2C20.2505 2 22 3.7475 22 6.155C22 9.53417 18.5284 12.5258 18.3814 12.6517ZM17.8408 3.66667C16.3502 3.66667 15.3476 4.66667 15.3476 6.155C15.3476 7.94917 16.8415 9.85583 17.8374 10.87C18.7081 9.98333 20.3323 8.07167 20.3323 6.155C20.3323 4.66667 19.3314 3.66667 17.8408 3.66667ZM14.3015 12.0475C14.7426 12.1767 14.9966 12.64 14.8671 13.0808C14.761 13.445 14.4285 13.6808 14.0675 13.6808C13.9898 13.6808 13.9113 13.67 13.8327 13.6467C13.4225 13.5267 13.0849 13.3075 12.8109 13.0383C12.3923 13.4142 11.8408 13.6667 11.1707 13.6667C10.5073 13.6667 9.94836 13.3967 9.52308 12.9967C9.09947 13.3958 8.53131 13.6667 7.83615 13.6667C7.17275 13.6667 6.61378 13.3967 6.18849 12.9967C5.76488 13.3958 5.19672 13.6667 4.50157 13.6667C4.48653 13.6667 4.47316 13.6617 4.45812 13.6617V20.3333H7.83615V17C7.83615 16.0808 8.58395 15.3333 9.50303 15.3333H12.0046C12.9237 15.3333 13.6715 16.0808 13.6715 17V20.3333H17.0061V15.3333C17.0061 14.8733 17.3787 14.5 17.8399 14.5C18.3003 14.5 18.6738 14.8733 18.6738 15.3333V20.3333C18.6738 21.2525 17.9251 22 17.0061 22H13.6715C12.7524 22 12.0046 21.2525 12.0046 20.3333V17H9.47128V20.3333C9.47128 21.2525 8.75523 22 7.83615 22H4.50157C3.58249 22 2.83386 21.2525 2.83386 20.3333V13.185C2.83386 13.1233 2.85641 13.0683 2.86895 13.0108C2.32586 12.5083 2 11.79 2 11.0908C2 11.0692 2.01086 11.0517 2.01253 11.03C2.0142 11.01 2.00668 10.9917 2.00919 10.9717L2.84305 5.21333C2.84806 5.1775 2.86895 5.14833 2.87814 5.11333C2.89318 5.06 2.90822 5.00833 2.93328 4.95917C2.95835 4.90833 2.99093 4.865 3.02603 4.82167C3.05694 4.7825 3.08618 4.74583 3.12295 4.71333C3.16723 4.675 3.21402 4.64667 3.26499 4.61833C3.30843 4.59333 3.34938 4.57083 3.397 4.55417C3.45047 4.53583 3.50645 4.52833 3.56494 4.52083C3.60003 4.51583 3.63095 4.5 3.66771 4.5H11.1707C11.6311 4.5 12.0046 4.87333 12.0046 5.33333C12.0046 5.79333 11.6311 6.16667 11.1707 6.16667H4.38877L3.67272 11.115C3.68526 11.485 4.00276 12 4.50157 12C5.04549 12 5.33459 11.5158 5.33459 11.1667C5.33459 11.1583 5.3396 11.1508 5.3396 11.1417C5.3396 11.125 5.33459 11.1075 5.33459 11.0908C5.33459 10.6308 5.70807 10.2575 6.16844 10.2575C6.62965 10.2575 7.0023 10.6308 7.0023 11.0908C7.0023 11.4617 7.32732 12 7.83615 12C8.38008 12 8.67001 11.5158 8.67001 11.1667C8.67001 11.1583 8.67419 11.1508 8.67502 11.1417C8.67419 11.125 8.67001 11.1075 8.67001 11.0908C8.67001 10.6308 9.04265 10.2575 9.50303 10.2575C9.96424 10.2575 10.3369 10.6308 10.3369 11.0908C10.3369 11.4617 10.6619 12 11.1707 12C11.7147 12 12.0046 11.5158 12.0046 11.1667C12.0046 10.7067 12.3772 10.3333 12.8376 10.3333C13.2988 10.3333 13.6715 10.7067 13.6715 11.1667C13.6715 11.5033 13.9246 11.9375 14.3015 12.0475Z" fill="currentColor"/>
</svg>