<svg viewBox="0 0 24 24" fill="none" xmlns="http://www.w3.org/2000/svg">
<path fill-rule="evenodd" clip-rule="evenodd" d="M19 22H5.66667C4.74833 22 4 21.2525 4 20.3333V7C4 6.08083 4.74833 5.33333 5.66667 5.33333H9V4.5C9 3.12167 10.1217 2 11.5 2H13.1667C14.545 2 15.6667 3.12167 15.6667 4.5V5.33333H19C19.9192 5.33333 20.6667 6.08083 20.6667 7V20.3333C20.6667 21.2525 19.9192 22 19 22ZM14 4.5C14 4.04 13.6267 3.66667 13.1667 3.66667H11.5C11.04 3.66667 10.6667 4.04 10.6667 4.5V5.33333H14V4.5ZM15.6667 7V7.83333C15.6667 8.29333 15.2942 8.66667 14.8333 8.66667C14.3725 8.66667 14 8.29333 14 7.83333V7H10.6667V7.83333C10.6667 8.29333 10.2942 8.66667 9.83333 8.66667C9.3725 8.66667 9 8.29333 9 7.83333V7H5.66667V20.3333H18.9975L19 7H15.6667Z" fill="currentColor"/>
</svg>