<svg viewBox="0 0 24 24" fill="none" xmlns="http://www.w3.org/2000/svg">
<path fill-rule="evenodd" clip-rule="evenodd" d="M19 22H5.66667C4.7475 22 4 21.2525 4 20.3333V6.99917C4 6.08 4.7475 5.3325 5.66667 5.3325H9V4.5C9 3.12167 10.1217 2 11.5 2H13.1667C14.545 2 15.6667 3.12167 15.6667 4.5V5.3325H19C19.9183 5.3325 20.6667 6.08 20.6667 6.99917V20.3333C20.6667 21.2525 19.9183 22 19 22ZM14 4.5C14 4.04 13.6267 3.66667 13.1667 3.66667H11.5C11.04 3.66667 10.6667 4.04 10.6667 4.5V5.3325H14V4.5ZM15.6667 6.99916V7.83249C15.6667 8.29249 15.2942 8.66583 14.8333 8.66583C14.3725 8.66583 14 8.29249 14 7.83249V6.99916H10.6667V7.83249C10.6667 8.29249 10.2942 8.66583 9.83333 8.66583C9.3725 8.66583 9 8.29249 9 7.83249V6.99916H5.66667V20.3333H18.9975L19 6.99916H15.6667ZM12.8867 18.4567C12.8417 18.4967 12.7883 18.5183 12.7375 18.5467C12.7067 18.5642 12.68 18.5875 12.6467 18.6008C12.5458 18.6425 12.44 18.6667 12.3333 18.6667C12.2267 18.6667 12.1208 18.6425 12.02 18.6008C11.9867 18.5875 11.96 18.5642 11.9292 18.5467C11.8783 18.5183 11.825 18.4967 11.78 18.4567L8.27833 15.35C7.67417 14.755 7.33333 13.9708 7.33333 13.2225C7.33333 11.6292 8.64167 10.3333 10.25 10.3333C11.0583 10.3333 11.7942 10.66 12.3333 11.185C12.8725 10.66 13.6083 10.3333 14.4167 10.3333C16.025 10.3333 17.3333 11.6292 17.3333 13.2225C17.3333 13.9708 16.9925 14.755 16.42 15.3192L12.8867 18.4567ZM14.4167 12C13.805 12 13.26 12.4258 13.1517 12.9908C13.1517 12.9942 13.1492 12.9967 13.1483 12.9992C13.1375 13.0558 13.1075 13.1042 13.085 13.1558C12.9758 13.41 12.7633 13.5975 12.4967 13.6492C12.4942 13.65 12.4933 13.6508 12.4917 13.6517C12.4517 13.6592 12.4142 13.6483 12.375 13.65C12.3092 13.6533 12.2442 13.665 12.175 13.6517C12.1725 13.6508 12.17 13.6483 12.1667 13.6475C12.0783 13.63 11.9983 13.5908 11.9217 13.5475C11.905 13.5375 11.8842 13.535 11.8683 13.5242C11.7442 13.4417 11.6567 13.3183 11.5917 13.1783C11.5642 13.12 11.5308 13.0633 11.5183 12.9992C11.5175 12.9958 11.515 12.9942 11.515 12.9908C11.4067 12.4258 10.8617 12 10.25 12C9.56083 12 9 12.5483 9 13.2225C9 13.5208 9.1675 13.8867 9.41667 14.1333L12.3333 16.7192L15.2817 14.1025C15.4992 13.8867 15.6667 13.5208 15.6667 13.2225C15.6667 12.5483 15.1058 12 14.4167 12Z" fill="currentColor"/>
</svg>