<svg width="24" height="24" viewBox="0 0 24 24" fill="none" xmlns="http://www.w3.org/2000/svg">
<path fill-rule="evenodd" clip-rule="evenodd" d="M21.1658 12.345L12.3567 21.5017C12.0308 21.8267 11.6125 22 11.1667 22C10.72 22 10.3017 21.8267 9.98833 21.5125L2.4875 14.0117C2.17333 13.6983 2 13.28 2 12.8333C2 12.3867 2.17333 11.9683 2.48833 11.6542L11.6658 2.8225C12.1367 2.35 12.9833 2 13.6667 2H20.3333C21.2525 2 22 2.7475 22 3.66667V10.3333C22 11.0158 21.6492 11.8617 21.1658 12.345ZM20.3333 3.66667H13.6667C13.4292 3.66667 13.0008 3.84417 12.8325 4.01167L3.65415 12.845L11.1667 20.335V20.3333C11.1683 20.3333 11.1683 20.3333 11.1692 20.3325L19.9758 11.1783C20.1558 10.9983 20.3333 10.57 20.3333 10.3333V3.66667ZM16.9992 9.5C15.6217 9.5 14.5 8.37917 14.5 7C14.5 5.62167 15.6217 4.5 16.9992 4.5C18.3775 4.5 19.5 5.62167 19.5 7C19.5 8.37917 18.3775 9.5 16.9992 9.5ZM16.9992 6.16667C16.5408 6.16667 16.1667 6.54 16.1667 7C16.1667 7.45917 16.5408 7.83333 16.9992 7.83333C17.4592 7.83333 17.8333 7.45917 17.8333 7C17.8333 6.54 17.4592 6.16667 16.9992 6.16667Z" fill="#6B7084"/>
</svg>
