<svg viewBox="0 0 24 24" fill="none" xmlns="http://www.w3.org/2000/svg">
<path fill-rule="evenodd" clip-rule="evenodd" d="M21.9065 6.65219C21.8647 6.75427 21.8037 6.84631 21.7267 6.92329L19.231 9.42258C19.0679 9.58491 18.8554 9.6669 18.6422 9.6669C18.4297 9.6669 18.2165 9.58491 18.0542 9.42258C17.7288 9.0971 17.7288 8.56996 18.0542 8.24364L19.1298 7.16678H17.3391C16.8599 7.16678 16.4074 7.39938 16.1305 7.78846L9.19449 17.5129C8.60652 18.3395 7.64887 18.8332 6.63267 18.8332H2.83219C2.37219 18.8332 2 18.46 2 17.9998C2 17.5396 2.37219 17.1665 2.83219 17.1665H6.63267C7.11108 17.1665 7.56356 16.9338 7.8404 16.5448L10.9927 12.1252C10.9626 12.0942 10.9233 12.0792 10.8973 12.0432L7.84207 7.74495C7.57527 7.38851 7.13199 7.16678 6.66613 7.16678H2.83219C2.37219 7.16678 2 6.7936 2 6.3334C2 5.8732 2.37219 5.50002 2.83219 5.50002H6.66613C7.65305 5.50002 8.59481 5.97194 9.18612 6.76264L11.9972 10.717L14.7756 6.82037C15.3644 5.99369 16.3229 5.50002 17.3391 5.50002H19.1306L18.0559 4.42232C17.7305 4.09684 17.7305 3.56887 18.0559 3.24338C18.3804 2.91873 18.9073 2.91873 19.2326 3.24422L21.7267 5.74435C21.7276 5.74435 21.7276 5.74435 21.7276 5.74435C21.8037 5.82049 21.8647 5.91336 21.9065 6.01461C21.991 6.21877 21.991 6.44803 21.9065 6.65219ZM14.6652 14.664L16.1155 16.5824C16.3915 16.9472 16.8339 17.1665 17.2948 17.1665H19.159L18.0835 16.0896C17.7581 15.7633 17.7581 15.2361 18.0835 14.9106C18.4088 14.5852 18.9349 14.5852 19.2602 14.9106L21.756 17.4108C22.0813 17.7363 22.0813 18.2634 21.756 18.5889L19.2619 21.089C19.0988 21.2522 18.8864 21.3333 18.6731 21.3333C18.4607 21.3333 18.2474 21.2522 18.0851 21.0898C17.7598 20.7644 17.7598 20.2364 18.0851 19.9109L19.1599 18.8332H17.2948C16.317 18.8332 15.3786 18.3672 14.7873 17.5873L13.3362 15.6672C13.0593 15.2999 13.1329 14.7769 13.5001 14.5C13.8664 14.2214 14.3883 14.2975 14.6652 14.664Z" fill="currentColor"/>
</svg>