<svg viewBox="0 0 24 24" fill="none" xmlns="http://www.w3.org/2000/svg">
<path fill-rule="evenodd" clip-rule="evenodd" d="M4 0C1.79086 0 0 1.79086 0 4V20C0 22.2091 1.79086 24 4 24H20C22.2091 24 24 22.2091 24 20V4C24 1.79086 22.2091 0 20 0H4ZM21.7267 6.92329C21.8037 6.84631 21.8647 6.75427 21.9065 6.65219C21.991 6.44803 21.991 6.21877 21.9065 6.01461C21.8647 5.91336 21.8028 5.82049 21.7267 5.74435L19.2326 3.24422C18.9073 2.91873 18.3804 2.91873 18.0559 3.24338C17.7305 3.56887 17.7305 4.09684 18.0559 4.42232L19.1306 5.50002H17.3391C16.3229 5.50002 15.3644 5.99369 14.7756 6.82037L12.3137 10.2731L11.9868 10.7315L9.18612 6.76262C8.59481 5.97191 7.65305 5.5 6.66613 5.5H2.83219C2.37219 5.5 2 5.87318 2 6.33338C2 6.79357 2.37219 7.16675 2.83219 7.16675H6.66613C7.13199 7.16675 7.57527 7.38848 7.84207 7.74493L10.9627 12.1673L10.7254 12.5L7.8404 16.5448C7.56356 16.9338 7.11108 17.1665 6.63267 17.1665H2.83219C2.37219 17.1665 2 17.5396 2 17.9998C2 18.46 2.37219 18.8332 2.83219 18.8332H6.63267C7.64887 18.8332 8.60652 18.3395 9.19449 17.5129L11.9795 13.6082L14.7874 17.5873C15.3787 18.3671 16.3171 18.8332 17.2948 18.8332H19.1599L18.0852 19.9109C17.7598 20.2364 17.7598 20.7643 18.0852 21.0898C18.2474 21.2521 18.4607 21.3333 18.6731 21.3333C18.8864 21.3333 19.0989 21.2521 19.262 21.089L21.756 18.5889C22.0814 18.2634 22.0814 17.7362 21.756 17.4107L19.2603 14.9106C18.9349 14.5851 18.4089 14.5851 18.0835 14.9106C17.7582 15.2361 17.7582 15.7632 18.0835 16.0896L19.1591 17.1664H17.2948C16.834 17.1664 16.3915 16.9472 16.1155 16.5824L13.0036 12.1724L16.1305 7.78846C16.4074 7.39938 16.8599 7.16678 17.3391 7.16678H19.1298L18.0542 8.24364C17.7288 8.56996 17.7288 9.0971 18.0542 9.42258C18.2165 9.58491 18.4297 9.6669 18.6422 9.6669C18.8554 9.6669 19.0679 9.58491 19.231 9.42258L21.7267 6.92329Z" fill="currentColor"/>
</svg>