<svg viewBox="0 0 24 24" fill="none" xmlns="http://www.w3.org/2000/svg">
<g clip-path="url(#clip0_1265_20876)">
<path d="M12 24C18.6274 24 24 18.6274 24 12C24 5.37258 18.6274 0 12 0C5.37258 0 0 5.37258 0 12C0 18.6274 5.37258 24 12 24Z" fill="#057BC1"/>
<path d="M12 5.5C8.41038 5.5 5.5 8.41038 5.5 12C5.5 15.5896 8.41038 18.5 12 18.5C15.5896 18.5 18.5 15.5896 18.5 12C18.5 10.2761 17.8152 8.62279 16.5962 7.40381C15.3772 6.18482 13.7239 5.5 12 5.5ZM14.262 14.4521H13.9977V15.932H13.1093V14.4521H11.7568V13.9023H13.131V12.9089C12.4175 13.3065 11.5871 13.4411 10.7845 13.2892C10.3403 13.1835 9.89671 12.9409 9.66433 12.539C9.44355 12.146 9.33383 11.7004 9.34692 11.2498V8.90329H10.2455V11.3343C10.2667 11.8624 10.6047 12.3911 11.123 12.5498C11.8047 12.7063 12.5206 12.5925 13.1202 12.2324C13.1202 11.4925 13.1093 10.3831 13.1202 8.90329H14.0291V13.9029H14.262V14.4521Z" fill="white"/>
</g>
<defs>
<clipPath id="clip0_1265_20876">
<rect width="24" height="24" fill="white"/>
</clipPath>
</defs>
</svg>