<svg width="24" height="24" viewBox="0 0 24 24" fill="none" xmlns="http://www.w3.org/2000/svg">
<path fill-rule="evenodd" clip-rule="evenodd" d="M20.2499 19.5C19.8359 19.5 19.4999 19.1647 19.4999 18.75V17.361C19.4999 10.269 13.7301 4.5 6.63885 4.5H5.24985C4.83585 4.5 4.49985 4.16475 4.49985 3.75C4.49985 3.33525 4.83585 3 5.24985 3H6.63885C14.5574 3 20.9999 9.4425 20.9999 17.361V18.75C20.9999 19.1647 20.6639 19.5 20.2499 19.5ZM9.75 17.625C9.75 19.4858 8.23575 21 6.375 21C4.51425 21 3 19.4858 3 17.625C3 15.7642 4.51425 14.25 6.375 14.25C8.23575 14.25 9.75 15.7642 9.75 17.625ZM4.49985 17.625C4.49985 18.6593 5.34135 19.5 6.37485 19.5C7.40835 19.5 8.24985 18.6593 8.24985 17.625C8.24985 16.5908 7.40835 15.75 6.37485 15.75C5.34135 15.75 4.49985 16.5908 4.49985 17.625ZM5.24985 10.5015C4.83585 10.5015 4.49985 10.1663 4.49985 9.7515C4.49985 9.33675 4.83585 9.0015 5.24985 9.0015H5.93385C10.9326 9.0015 14.9999 13.068 14.9999 18.066V18.75C14.9999 19.1648 14.6639 19.5 14.2499 19.5C13.8359 19.5 13.4999 19.1648 13.4999 18.75V18.066C13.4999 13.8953 10.1061 10.5015 5.93385 10.5015H5.24985Z" fill="#6B7084"/>
</svg>
