<svg viewBox="0 0 24 24" fill="none" xmlns="http://www.w3.org/2000/svg">
<g clip-path="url(#clip0_1265_20870)">
<path d="M12 24C18.6274 24 24 18.6274 24 12C24 5.37258 18.6274 0 12 0C5.37258 0 0 5.37258 0 12C0 18.6274 5.37258 24 12 24Z" fill="#F5342E"/>
<path d="M5.5001 12.0804C5.49269 11.3562 5.60402 10.6357 5.82968 9.94757C6.08444 9.1672 6.48478 8.44217 7.00951 7.81087C7.60485 7.08655 8.3529 6.50276 9.20016 6.10125C9.76166 5.8341 10.3605 5.65372 10.9761 5.56626C11.3461 5.5115 11.7204 5.49061 12.0942 5.50386C12.8324 5.53085 13.56 5.68843 14.2432 5.96929C14.2536 5.97384 14.266 5.97839 14.2673 5.99139C14.2686 6.00829 14.2536 6.01349 14.2413 6.01869L14.0073 6.1097C13.4974 6.30774 12.9991 6.53432 12.5147 6.78835C11.9772 7.07242 11.461 7.39094 10.9819 7.77122C10.5659 8.10209 10.1856 8.47002 9.87686 8.91075C9.66885 9.20717 9.50504 9.52569 9.41533 9.88127C9.30092 10.3311 9.32887 10.7764 9.45888 11.2178C9.55444 11.5441 9.6981 11.8496 9.85671 12.1473C10.0569 12.5244 10.2838 12.8851 10.4925 13.257C10.6823 13.595 10.8591 13.9395 10.9761 14.3133C11.0573 14.5739 11.1061 14.8411 11.1009 15.1154C11.0921 15.4712 11.0004 15.82 10.8331 16.1341C10.6361 16.5137 10.3663 16.8335 10.066 17.1286C9.78846 17.401 9.48683 17.6409 9.17546 17.8697C9.12996 17.9035 9.09421 17.9022 9.04675 17.8775C8.59312 17.647 8.16866 17.363 7.78241 17.0318C7.31401 16.6301 6.90535 16.1637 6.56878 15.6465C6.01619 14.7974 5.66613 13.8326 5.54561 12.8266C5.51344 12.5792 5.49824 12.3299 5.5001 12.0804Z" fill="white"/>
<path d="M9.43042 18.0066C9.44212 17.9787 9.47137 17.978 9.49347 17.9702C9.94767 17.8042 10.3945 17.6185 10.8326 17.4138C11.3461 17.172 11.846 16.9042 12.3192 16.5915C12.6888 16.3513 13.0369 16.0795 13.3593 15.7789C13.6765 15.4799 13.9573 15.1523 14.1758 14.7753C14.3526 14.4697 14.4722 14.1441 14.5112 13.7924C14.5435 13.4726 14.5132 13.1496 14.4221 12.8414C14.3246 12.4975 14.1719 12.177 14.0002 11.8644C13.7948 11.4893 13.5615 11.1298 13.3463 10.7606C13.1636 10.4466 12.9933 10.1268 12.8698 9.78421C12.7453 9.45506 12.6926 9.10312 12.7151 8.75193C12.7327 8.51142 12.7951 8.28 12.8919 8.05768C13.0375 7.72356 13.2475 7.43169 13.4913 7.16257C13.8475 6.76799 14.2616 6.44102 14.6932 6.1329C14.7406 6.09845 14.7803 6.09454 14.833 6.1212C15.2919 6.35131 15.7209 6.62563 16.1168 6.95131C16.5218 7.28478 16.8819 7.65986 17.1959 8.07784C17.9415 9.06454 18.3866 10.2455 18.4778 11.4789C18.4921 11.6836 18.5051 11.8884 18.4992 12.0938C18.4852 12.6916 18.3908 13.2848 18.2184 13.8574C17.8822 14.9586 17.2602 15.9511 16.4158 16.7338C15.4845 17.5973 14.3248 18.1749 13.0746 18.398C12.6343 18.4753 12.1875 18.5088 11.7407 18.4981C10.9714 18.4784 10.2112 18.3256 9.49412 18.0463C9.47072 18.0359 9.44342 18.0333 9.43042 18.0073V18.0066Z" fill="white"/>
</g>
<defs>
<clipPath id="clip0_1265_20870">
<rect width="24" height="24" fill="white"/>
</clipPath>
</defs>
</svg>