<svg width="24" height="24" viewBox="0 0 24 24" fill="none" xmlns="http://www.w3.org/2000/svg">
<path d="M12.9602 21.5785L20.2482 17.3536C21.0351 16.8946 21.3817 16.5012 21.3817 15.911C21.3817 15.3115 21.0351 14.9274 20.2482 14.459L16.0047 12.0047L20.2482 9.54098C21.0351 9.08197 21.3817 8.68852 21.3817 8.09836C21.3817 7.49883 21.0351 7.11475 20.2482 6.64637L12.9602 2.42155C12.4731 2.14052 12.089 2 11.6955 2C11.2927 2 10.9087 2.14052 10.4215 2.42155L3.13349 6.64637C2.3466 7.11475 2 7.49883 2 8.09836C2 8.68852 2.3466 9.08197 3.13349 9.54098L7.37705 12.0047L3.13349 14.459C2.3466 14.9274 2 15.3115 2 15.911C2 16.5012 2.3466 16.8946 3.13349 17.3536L10.4215 21.5785C10.9087 21.8595 11.2927 22 11.6955 22C12.089 22 12.4731 21.8595 12.9602 21.5785ZM11.6955 14.1874C12.089 14.1874 12.4731 14.0562 12.9602 13.7658L14.1499 13.0726L18.9742 15.8173C19.0117 15.8454 19.0398 15.8642 19.0398 15.911C19.0398 15.9485 19.0117 15.9766 18.9742 15.9953L12.0703 19.9297C11.9297 20.0047 11.8173 20.0515 11.6955 20.0515C11.5644 20.0515 11.452 20.0047 11.3115 19.9297L4.41686 15.9953C4.37002 15.9766 4.35129 15.9485 4.35129 15.911C4.35129 15.8642 4.37002 15.8454 4.41686 15.8173L9.22248 13.0726L10.4215 13.7658C10.9087 14.0562 11.2927 14.1874 11.6955 14.1874Z" fill="#6B7084"/>
</svg>
