<svg width="24" height="24" viewBox="0 0 24 24" fill="none" xmlns="http://www.w3.org/2000/svg">
<g clip-path="url(#clip0_1265_20866)">
<path d="M12 24C18.6274 24 24 18.6274 24 12C24 5.37258 18.6274 0 12 0C5.37258 0 0 5.37258 0 12C0 18.6274 5.37258 24 12 24Z" fill="#0072FF"/>
<path d="M16.7432 10.7018L13.8998 17.0227H12.7635L15.7564 10.3691C16.1014 10.4251 16.4348 10.5375 16.7432 10.7018ZM11.7678 6.98852L7.39327 16.7143C6.27764 16.1848 5.5 15.0249 5.5 13.6741C5.5 11.8245 6.95482 10.326 8.75 10.326C8.75 8.5562 10.0819 7.11143 11.7678 6.98852ZM15.2506 10.326L12.2375 17.0227H11.0067L14.7897 8.61411C15.081 9.1152 15.2506 9.69902 15.2506 10.326ZM16.3698 16.8153L18.2997 12.5277C18.4273 12.887 18.5 13.2723 18.5 13.6758C18.5 15.1165 17.6136 16.3438 16.3698 16.8153ZM17.2219 11.0162C17.4913 11.2289 17.73 11.4818 17.9227 11.7719L15.5673 17.0062C15.4621 17.0174 15.3564 17.0229 15.2506 17.0227H14.5202L17.2219 11.0162ZM12.0118 6.97729C12.4727 6.97907 12.9094 7.08011 13.3059 7.26152L8.91545 17.0227H8.75C8.34227 17.0227 7.95227 16.9424 7.59359 16.8L12.0118 6.97729ZM14.5332 8.22884L10.5771 17.0227H9.24991L13.5795 7.3998C13.947 7.61134 14.2709 7.8938 14.5332 8.22884Z" fill="white"/>
</g>
<defs>
<clipPath id="clip0_1265_20866">
<rect width="24" height="24" fill="white"/>
</clipPath>
</defs>
</svg>
