<svg width="24" height="24" viewBox="0 0 24 24" fill="none" xmlns="http://www.w3.org/2000/svg">
<path d="M5.05968 15.1598C5.05968 16.5536 3.93318 17.6801 2.53939 17.6801C1.1456 17.6801 0.019104 16.5536 0.019104 15.1598C0.019104 13.766 1.1456 12.6395 2.53939 12.6395H5.05968V15.1598ZM6.31982 15.1598C6.31982 13.766 7.44631 12.6395 8.84011 12.6395C10.2339 12.6395 11.3604 13.766 11.3604 15.1598V21.4605C11.3604 22.8543 10.2339 23.9808 8.84011 23.9808C7.44631 23.9808 6.31982 22.8543 6.31982 21.4605V15.1598Z" fill="#E01E5A"/>
<path d="M8.8401 5.04057C7.4463 5.04057 6.31981 3.91408 6.31981 2.52029C6.31981 1.12649 7.4463 0 8.8401 0C10.2339 0 11.3604 1.12649 11.3604 2.52029V5.04057H8.8401ZM8.8401 6.31981C10.2339 6.31981 11.3604 7.4463 11.3604 8.8401C11.3604 10.2339 10.2339 11.3604 8.8401 11.3604H2.52029C1.12649 11.3604 0 10.2339 0 8.8401C0 7.4463 1.12649 6.31981 2.52029 6.31981H8.8401Z" fill="#36C5F0"/>
<path d="M18.9404 8.8401C18.9404 7.4463 20.0669 6.31981 21.4607 6.31981C22.8544 6.31981 23.9809 7.4463 23.9809 8.8401C23.9809 10.2339 22.8544 11.3604 21.4607 11.3604H18.9404V8.8401ZM17.6802 8.8401C17.6802 10.2339 16.5537 11.3604 15.1599 11.3604C13.7661 11.3604 12.6396 10.2339 12.6396 8.8401V2.52029C12.6396 1.12649 13.7661 0 15.1599 0C16.5537 0 17.6802 1.12649 17.6802 2.52029V8.8401Z" fill="#2EB67D"/>
<path d="M15.1599 18.9402C16.5537 18.9402 17.6802 20.0667 17.6802 21.4605C17.6802 22.8543 16.5537 23.9808 15.1599 23.9808C13.7661 23.9808 12.6396 22.8543 12.6396 21.4605V18.9402H15.1599ZM15.1599 17.6801C13.7661 17.6801 12.6396 16.5536 12.6396 15.1598C12.6396 13.766 13.7661 12.6395 15.1599 12.6395H21.4797C22.8735 12.6395 24 13.766 24 15.1598C24 16.5536 22.8735 17.6801 21.4797 17.6801H15.1599Z" fill="#ECB22E"/>
</svg>
