<svg viewBox="0 0 24 24" fill="none" xmlns="http://www.w3.org/2000/svg">
<g clip-path="url(#clip0_1265_20862)">
<path d="M12 24C18.6274 24 24 18.6274 24 12C24 5.37258 18.6274 0 12 0C5.37258 0 0 5.37258 0 12C0 18.6274 5.37258 24 12 24Z" fill="#FDA616"/>
<path d="M9.67333 15.9C9.74938 16.1366 10.6906 17.1116 11.6701 17.1116C13.1222 17.1116 13.9705 16.2354 13.9705 14.9679C13.9705 13.794 13.3829 13.1232 11.8983 12.4706C10.1036 11.7439 8.99408 10.6811 8.99408 8.91055C8.99408 6.95405 10.4137 5.5 12.5509 5.5C13.6767 5.5 14.8174 6.2085 15.1957 6.6817L14.2877 7.62745C13.9289 7.40385 13.4979 6.8416 12.5021 6.8416C11.0013 6.8416 10.4299 7.86665 10.4299 8.724C10.4299 9.89855 11.0994 10.4764 12.6159 11.1472C14.4762 11.9675 15.4226 12.9925 15.4226 14.8372C15.4226 16.7762 14.159 18.5 11.5648 18.5C10.504 18.5 9.37108 17.7915 8.68988 16.9244L9.67333 15.9ZM10.8836 9.20305C10.6568 8.7305 10.8082 8.25795 10.8082 8.25795C16.5568 7.3122 15.498 12.9054 15.498 12.9054C15.0443 12.0396 14.5906 11.8817 14.5906 11.8817C14.666 8.6512 10.8836 9.20305 10.8836 9.20305ZM13.4557 14.3244C13.6832 14.8762 13.4206 15.4502 13.4206 15.4502C6.87508 16.2939 8.64308 10.3087 8.64113 10.3087C8.98823 11.2278 9.41983 11.4429 9.41983 11.4429C9.29633 15.1908 13.4557 14.3244 13.4557 14.3244Z" fill="white"/>
</g>
<defs>
<clipPath id="clip0_1265_20862">
<rect width="24" height="24" fill="white"/>
</clipPath>
</defs>
</svg>