<svg viewBox="0 0 24 24" fill="none" xmlns="http://www.w3.org/2000/svg">
<g clip-path="url(#clip0_1265_20858)">
<path d="M12 24C18.6274 24 24 18.6274 24 12C24 5.37258 18.6274 0 12 0C5.37258 0 0 5.37258 0 12C0 18.6274 5.37258 24 12 24Z" fill="#8E9495"/>
<path d="M5.94994 15.4023C5.78452 15.0456 5.66185 14.6706 5.5845 14.2851C5.53993 14.082 5.51167 13.8758 5.5 13.6683H6.14567C6.16042 13.8351 6.18453 14.001 6.21789 14.1652C6.28794 14.5039 6.39339 14.8404 6.53783 15.1474C6.92494 15.9678 7.51283 16.4358 8.3665 16.4358C9.03383 16.4358 9.55094 16.1686 9.91494 15.6977C10.2241 15.2998 10.3988 14.7718 10.3988 14.3284C10.3988 13.76 10.1836 13.3411 9.75389 12.9865C9.40433 12.6976 9.00206 12.4954 8.1715 12.1502L8.02489 12.0895C7.16111 11.732 6.76244 11.5356 6.37461 11.2293C5.83872 10.8061 5.55417 10.2811 5.55417 9.60867C5.55417 8.80339 5.84378 8.12089 6.36233 7.63844C6.85408 7.18831 7.49764 6.94043 8.16428 6.94439C9.08872 6.94439 9.79433 7.32933 10.2638 8.00389V7.08666H12.3496V16.2928H12.9692V13.7094C12.9682 13.6883 12.9682 13.6671 12.9692 13.6459L13.6149 13.6676V13.7001C13.6276 13.8567 13.6493 14.0125 13.6799 14.1666C13.7471 14.5024 13.8511 14.8397 13.9955 15.1467C14.3804 15.9664 14.9691 16.4351 15.822 16.4351C16.4893 16.4351 17.0064 16.1679 17.3704 15.697C17.6796 15.2991 17.8543 14.7711 17.8543 14.3277C17.8543 13.7593 17.6391 13.3404 17.2094 12.9858C16.8598 12.6969 16.4576 12.4947 15.627 12.1494L15.4804 12.0888C14.6166 11.7313 14.2179 11.5348 13.8301 11.2286C13.2942 10.8054 13.0097 10.2803 13.0097 9.60794C13.0097 8.80267 13.2993 8.12017 13.8178 7.63772C14.3097 7.18785 14.9532 6.94024 15.6198 6.94439C16.5442 6.94439 17.2498 7.32933 17.7193 8.00389V7.12567H18.3657V10.3193H17.7193C17.7193 9.652 17.5662 8.976 17.265 8.47694C16.9097 7.88689 16.3752 7.56478 15.6198 7.56478C15.1197 7.56115 14.6366 7.74633 14.2671 8.08333C13.8771 8.44733 13.6553 8.96805 13.6553 9.60794C13.6553 10.0846 13.8474 10.4385 14.2403 10.7491C14.5653 11.0054 14.9293 11.1846 15.7361 11.5189L15.8827 11.5796C16.7732 11.9487 17.2144 12.1718 17.6304 12.5149C18.1988 12.9843 18.5 13.5722 18.5 14.3277C18.5 14.9026 18.2819 15.5598 17.889 16.0682C17.4058 16.6915 16.7002 17.0555 15.822 17.0555C15.2132 17.0555 14.691 16.8706 14.262 16.5283C14.0052 16.3207 13.7863 16.0702 13.6149 15.788V16.9132H11.7039V7.70705H10.9094V10.3193H10.2638C10.2638 9.652 10.1107 8.976 9.8095 8.47694C9.45417 7.88689 8.91972 7.56478 8.16428 7.56478C7.66416 7.56115 7.18109 7.74633 6.81156 8.08333C6.42156 8.44733 6.19983 8.96805 6.19983 9.60794C6.19983 10.0846 6.39194 10.4385 6.78483 10.7491C7.10983 11.0054 7.47383 11.1846 8.28056 11.5189L8.42717 11.5796C9.31767 11.9487 9.75894 12.1718 10.1749 12.5149C10.7433 12.9843 11.0445 13.5722 11.0445 14.3277C11.0445 14.9026 10.8264 15.5598 10.4335 16.0682C9.95033 16.6915 9.24472 17.0555 8.3665 17.0555C7.75767 17.0555 7.2355 16.8706 6.8065 16.5283C6.54331 16.3155 6.31963 16.0581 6.14567 15.7678V16.8742H5.5V13.6676H6.14567V15.7678C6.07388 15.6496 6.00854 15.5276 5.94994 15.4023Z" fill="white"/>
</g>
<defs>
<clipPath id="clip0_1265_20858">
<rect width="24" height="24" fill="white"/>
</clipPath>
</defs>
</svg>