<svg width="24" height="24" viewBox="0 0 24 24" fill="none" xmlns="http://www.w3.org/2000/svg">
<path fill-rule="evenodd" clip-rule="evenodd" d="M15.8333 18C13.5358 18 11.6667 16.1242 11.6667 13.8183C11.6667 11.5292 13.5325 9.66667 15.8258 9.66667H16.31L16.0633 9.40834C15.7467 9.075 15.7583 8.5475 16.0917 8.23C16.425 7.91334 16.9525 7.925 17.27 8.25834L18.925 9.99417C19.2417 10.3258 19.23 10.8508 18.9008 11.1692L17.245 12.7667C17.0833 12.9225 16.875 13 16.6667 13C16.4483 13 16.2308 12.9142 16.0667 12.745C15.7475 12.4142 15.7567 11.8867 16.0883 11.5667L16.33 11.3333H15.8258C14.4283 11.3333 13.3333 12.4242 13.3333 13.8183C13.3333 15.2058 14.455 16.3333 15.8333 16.3333C17.2117 16.3333 18.3333 15.2058 18.3333 13.8183C18.3333 13.3583 18.7058 12.985 19.1667 12.985C19.6275 12.985 20 13.3583 20 13.8183C20 16.1242 18.1308 18 15.8333 18ZM9.24998 6.33333C9.24998 5.8725 9.62248 5.5 10.0833 5.5H11.75C12.21 5.5 12.5833 5.8725 12.5833 6.33333C12.5833 6.79417 12.21 7.16667 11.75 7.16667H10.0833C9.62248 7.16667 9.24998 6.79417 9.24998 6.33333ZM10.9417 19.6667C10.4808 19.6667 10.1042 19.2933 10.1042 18.8333C10.1042 18.3725 10.4725 18 10.9325 18H10.9417C11.4017 18 11.775 18.3725 11.775 18.8333C11.775 19.2933 11.4017 19.6667 10.9417 19.6667ZM15.8333 7.16667C15.3725 7.16667 15 6.79417 15 6.33333V5.5C15 5.125 14.615 4.66667 14.1667 4.66667H7.5C7.04 4.66667 6.66667 5.04 6.66667 5.5V20.5C6.66667 20.96 7.04 21.3333 7.5 21.3333H14.1667C14.5817 21.3333 15 20.7625 15 20.5V19.6667C15 19.2067 15.3725 18.8333 15.8333 18.8333C16.2942 18.8333 16.6667 19.2067 16.6667 19.6667V20.5C16.6667 21.6317 15.5517 23 14.1667 23H7.5C6.12167 23 5 21.8783 5 20.5V5.5C5 4.12083 6.12167 3 7.5 3H14.1667C15.4983 3 16.6667 4.16833 16.6667 5.5V6.33333C16.6667 6.79417 16.2942 7.16667 15.8333 7.16667Z" fill="#6B7084"/>
</svg>
