<svg width="24" height="24" viewBox="0 0 24 24" fill="none" xmlns="http://www.w3.org/2000/svg">
<path fill-rule="evenodd" clip-rule="evenodd" d="M20.0558 21.3333H15.6117C14.5392 21.3333 13.6667 20.4158 13.6667 19.2875V8.37833C13.6667 7.25 14.5392 6.33333 15.6117 6.33333H20.0558C21.1283 6.33333 22 7.25 22 8.37833V19.2875C22 20.4158 21.1283 21.3333 20.0558 21.3333ZM20.3333 8.37833C20.3333 8.155 20.1875 8 20.0558 8H15.6117C15.48 8 15.3333 8.155 15.3333 8.37833V19.2875C15.3333 19.5108 15.48 19.6667 15.6117 19.6667H20.0558C20.1875 19.6667 20.3333 19.5108 20.3333 19.2875V8.37833ZM18.6667 10.5H17C16.54 10.5 16.1667 10.1275 16.1667 9.66667C16.1667 9.20583 16.54 8.83333 17 8.83333H18.6667C19.1267 8.83333 19.5 9.20583 19.5 9.66667C19.5 10.1275 19.1267 10.5 18.6667 10.5ZM18.6667 18.8333H17V17.1667H18.6667V18.8333ZM5.33333 12.1667V10.5C5.33333 10.0392 5.70667 9.66667 6.16667 9.66667C6.62667 9.66667 7 10.0392 7 10.5V12.1667C7 12.6267 6.62667 13 6.16667 13C5.70667 13 5.33333 12.6267 5.33333 12.1667ZM19.5 5.5C19.0492 5.5 18.6825 5.14167 18.6667 4.695C18.6042 4.68167 18.4925 4.66667 18.3092 4.66667H4.02417C3.83 4.66667 3.66667 4.85833 3.66667 5.08417V17.5833C3.66667 17.8092 3.83 18 4.02417 18H11.1667C11.6267 18 12 18.3733 12 18.8333C12 19.2942 11.6267 19.6667 11.1667 19.6667H4.02417C2.9075 19.6667 2 18.7325 2 17.5833V5.08417C2 3.935 2.9075 3 4.02417 3H18.3092C20.1358 3 20.3333 4.16583 20.3333 4.66667C20.3333 5.1275 19.96 5.5 19.5 5.5Z" fill="#6B7084"/>
</svg>
42C13.485 2 13.6308 2.00834 13.7683 2.02503C13.7683 2.02503 13.7683 2.02503 13.7692 2.02503C13.7692 2.02503 13.77 2.02503 13.7708 2.02503C14.75 2.14933 15.3342 2.76336 15.3342 3.66688C15.3342 4.12656 14.9608 4.49948 14.5008 4.49948Z" fill="#6B7084"/>
</svg>
