<svg width="24" height="24" viewBox="0 0 24 24" fill="none" xmlns="http://www.w3.org/2000/svg">
<path fill-rule="evenodd" clip-rule="evenodd" d="M20.5558 16.3333H12C11.5392 16.3333 11.1667 15.9608 11.1667 15.5C11.1667 15.0392 11.5392 14.6667 12 14.6667H20.3333V4.66667H3.66667V6.33333C3.66667 6.79417 3.29417 7.16667 2.83333 7.16667C2.3725 7.16667 2 6.79417 2 6.33333V4.44833C2 3.64917 2.6475 3 3.44417 3H20.5558C21.3525 3 22 3.64917 22 4.44833V14.8867C22 15.6842 21.3525 16.3333 20.5558 16.3333ZM4.03 8H8.30333C9.4225 8 10.3333 8.92417 10.3333 10.0617V19.2717C10.3333 20.4083 9.4225 21.3333 8.30333 21.3333H4.03C2.91083 21.3333 2 20.4083 2 19.2717V10.0617C2 8.92417 2.91083 8 4.03 8ZM3.66667 19.2717C3.66667 19.4858 3.8325 19.6667 4.03 19.6667H8.30333C8.5 19.6667 8.66667 19.4858 8.66667 19.2717V10.0617C8.66667 9.8475 8.5 9.66667 8.30333 9.66667H4.03C3.8325 9.66667 3.66667 9.8475 3.66667 10.0617V19.2717ZM5.33333 10.5H7C7.46083 10.5 7.83333 10.8725 7.83333 11.3333C7.83333 11.7942 7.46083 12.1667 7 12.1667H5.33333C4.8725 12.1667 4.5 11.7942 4.5 11.3333C4.5 10.8725 4.8725 10.5 5.33333 10.5ZM7 18.8333H5.33333V17.1667H7V18.8333ZM12 18H17C17.4608 18 17.8333 18.3725 17.8333 18.8333C17.8333 19.2942 17.4608 19.6667 17 19.6667H12C11.5392 19.6667 11.1667 19.2942 11.1667 18.8333C11.1667 18.3725 11.5392 18 12 18Z" fill="#6B7084"/>
</svg>
