<svg width="24" height="24" viewBox="0 0 24 24" fill="none" xmlns="http://www.w3.org/2000/svg">
<g clip-path="url(#clip0_1265_20854)">
<path d="M12 24C18.6274 24 24 18.6274 24 12C24 5.37258 18.6274 0 12 0C5.37258 0 0 5.37258 0 12C0 18.6274 5.37258 24 12 24Z" fill="#FEC60D"/>
<path d="M17.4638 8.64629L15.7024 7.63236C15.6419 7.5965 15.5861 7.56525 15.5261 7.53092C15.4677 7.49762 15.4108 7.46175 15.3514 7.42743C14.9984 7.22556 14.6444 7.02985 14.2955 6.82082L12.6222 5.85454C12.5248 5.79562 12.0217 5.5 12.0002 5.5C11.9915 5.5 11.9279 5.54099 11.9141 5.5497L9.62804 6.86641C9.59474 6.88537 9.57168 6.90023 9.53787 6.91867C9.50881 6.93477 9.48011 6.95151 9.4518 6.96888L9.27658 7.07135C9.24676 7.08935 9.2167 7.10695 9.1864 7.12412L9.01426 7.22351C8.9538 7.25938 8.89693 7.29012 8.8375 7.32445L8.48347 7.52682C8.45273 7.5427 8.42711 7.55961 8.3974 7.57652L7.95474 7.83269C7.89326 7.86855 7.83639 7.89827 7.77644 7.93259L7.42651 8.13907C7.25078 8.23949 7.07453 8.34657 6.89624 8.4434C6.81785 8.48541 6.40644 8.73646 6.36597 8.74722V15.2611C6.39876 15.2642 6.84859 15.5321 6.89521 15.5598L7.6002 15.9676C7.65912 16.0035 7.71803 16.0358 7.77644 16.0696L8.12483 16.2704C8.15455 16.2858 8.18119 16.3032 8.21193 16.3201C8.24575 16.3386 8.26778 16.3545 8.3021 16.3714C8.39176 16.4175 8.47784 16.4723 8.5634 16.524L9.00708 16.7797C9.03782 16.7966 9.06242 16.8115 9.09265 16.8294C9.26582 16.9339 9.44565 17.0277 9.61831 17.1317L10.2367 17.4903C10.645 17.7316 11.0616 17.9565 11.4679 18.2004L11.951 18.4802C12.0278 18.5319 12.056 18.4735 12.1769 18.4074L13.2354 17.7967C13.2938 17.7629 13.3507 17.7301 13.4122 17.6958L13.5849 17.5969C13.6141 17.581 13.6412 17.5641 13.6704 17.5462L14.6413 16.9841C14.9313 16.8104 15.2305 16.6531 15.5205 16.479L17.4535 15.359C17.4817 15.3421 17.5099 15.3252 17.5396 15.3088C17.5703 15.2924 17.5996 15.2693 17.6344 15.2616V8.74722C17.5796 8.71033 17.5227 8.68215 17.4638 8.64629ZM13.985 15.0219H12.3378V15.4532C12.3378 15.4584 12.3358 15.4599 12.3306 15.4599H11.5365V15.0219H10.0154V13.8025C10.0154 13.7897 10.0307 13.7789 10.0384 13.7717L10.1926 13.6052C10.1972 13.6011 10.2015 13.5966 10.2054 13.5919C10.209 13.587 10.2129 13.5824 10.2172 13.5781L10.3069 13.4828L10.3079 13.4812L10.3346 13.4541L10.3463 13.4397L10.375 13.4095L10.3781 13.4059L10.4739 13.3024C10.4944 13.2814 10.5149 13.2615 10.5344 13.2384L10.5354 13.2374L10.5385 13.2333L10.603 13.1646C10.6122 13.1544 10.6194 13.1487 10.6281 13.1375L10.706 13.0545L10.7188 13.0417C10.723 13.0371 10.727 13.0323 10.7306 13.0273L10.8612 12.888L10.8623 12.8869L10.8653 12.8833L10.8853 12.8629C10.9109 12.8301 10.9571 12.7891 10.9842 12.7563L10.9873 12.7522C10.996 12.7419 11.0057 12.7348 11.0139 12.725L11.0646 12.6702C11.1005 12.6343 11.1312 12.5954 11.1671 12.5595L11.2824 12.4356L11.2952 12.4228L11.3454 12.3674C11.3551 12.3577 11.3644 12.3505 11.372 12.3403C11.3797 12.33 11.3895 12.3228 11.3982 12.3126L11.4489 12.2578C11.454 12.2527 11.4581 12.2491 11.4627 12.2434L11.5012 12.2019C11.5088 12.1917 11.5186 12.1845 11.5273 12.1743C11.5498 12.1492 11.6144 12.0831 11.6282 12.0646C11.6364 12.0544 11.6462 12.0482 11.6533 12.038C11.6331 12.0131 11.6113 11.9895 11.5883 11.9673L11.538 11.9119L11.5247 11.8991C11.5196 11.893 11.5181 11.8899 11.5119 11.8838C11.4725 11.8438 11.4361 11.8013 11.3961 11.7608L11.3321 11.6916C11.3284 11.6867 11.3243 11.6821 11.3198 11.6778L10.7306 11.0456C10.7267 11.0402 10.7224 11.0351 10.7178 11.0302L10.6307 10.9365L10.6297 10.9354L10.4365 10.7274C10.4324 10.7223 10.4283 10.7192 10.4237 10.7146L10.3725 10.6582C10.3376 10.6224 10.3043 10.5834 10.269 10.5481L10.2577 10.5358L10.2567 10.5348L10.2188 10.4933C10.2014 10.4743 10.1829 10.4569 10.166 10.4379C10.1604 10.4318 10.1593 10.4287 10.1532 10.4226C10.1184 10.3872 10.0866 10.3488 10.0507 10.314C10.0466 10.3088 10.0425 10.3058 10.0384 10.3011C10.0338 10.296 10.0154 10.2781 10.0154 10.2725V9.04847H11.536V8.54023C11.8034 8.54023 12.0678 8.54535 12.3353 8.54535V9.03208C12.3353 9.03771 12.3368 9.03976 12.3424 9.03976H13.985V10.275H11.7189C11.7322 10.2955 11.7527 10.3124 11.7686 10.3309L11.8946 10.4692C11.9023 10.4794 11.9105 10.4866 11.9192 10.4969C11.9407 10.5225 11.9648 10.5445 11.9858 10.5701L12.1693 10.7715C12.2051 10.8063 12.2359 10.8458 12.2702 10.8816L12.738 11.3955L12.741 11.3996L12.9086 11.584L12.9214 11.5963C12.9439 11.6189 12.9624 11.6445 12.9849 11.667L13.2862 11.9965C13.2985 12.0098 13.3118 12.0221 13.322 12.0375C13.3174 12.0446 13.3138 12.0467 13.3082 12.0528C13.3045 12.0577 13.3006 12.0623 13.2964 12.0667L13.2334 12.1348C13.2298 12.1397 13.2258 12.1443 13.2216 12.1486L13.0705 12.3141C13.0602 12.3239 13.0551 12.3321 13.0448 12.3418C13.0243 12.3623 12.9936 12.4007 12.9695 12.4238L12.864 12.5411C12.843 12.5662 12.7866 12.6221 12.7697 12.6436L12.6196 12.8075C12.5873 12.847 12.5509 12.8808 12.5182 12.9197L12.4567 12.9863C12.4259 13.0176 12.3993 13.0509 12.3696 13.0826C12.3645 13.0878 12.3604 13.0914 12.3557 13.097C12.3209 13.1364 12.283 13.1738 12.2487 13.2148L12.2435 13.221L12.1119 13.3639L12.1088 13.3675L12.1042 13.3726L12.1032 13.3742L12.0427 13.4408C12.0384 13.4449 12.0345 13.4494 12.0309 13.4541C12.027 13.4588 12.0227 13.4633 12.0181 13.4674C11.992 13.493 11.9694 13.5238 11.9433 13.5494C11.9391 13.5537 11.9352 13.5584 11.9315 13.5632L11.8813 13.6186C11.8772 13.6237 11.8731 13.6268 11.8685 13.6314L11.7189 13.7963H13.922C13.943 13.7963 13.985 13.7912 13.985 13.803V15.0224V15.0219Z" fill="white"/>
</g>
<defs>
<clipPath id="clip0_1265_20854">
<rect width="24" height="24" fill="white"/>
</clipPath>
</defs>
</svg>
