<svg width="24" height="24" viewBox="0 0 24 24" fill="none" xmlns="http://www.w3.org/2000/svg">
<path fill-rule="evenodd" clip-rule="evenodd" d="M15.1667 22H8.5C7.12167 22 6 20.8783 6 19.5V4.5C6 3.12083 7.12167 2 8.5 2H15.1667C16.545 2 17.6667 3.12083 17.6667 4.5V19.5C17.6667 20.8783 16.545 22 15.1667 22ZM16 4.5C16 4.04 15.6258 3.66667 15.1667 3.66667H8.5C8.04083 3.66667 7.66667 4.04 7.66667 4.5V19.5C7.66667 19.96 8.04083 20.3333 8.5 20.3333H15.1667C15.6258 20.3333 16 19.96 16 19.5V4.5ZM12.6667 6.16667H11C10.54 6.16667 10.1667 5.79417 10.1667 5.33333C10.1667 4.8725 10.54 4.5 11 4.5H12.6667C13.1267 4.5 13.5 4.8725 13.5 5.33333C13.5 5.79417 13.1267 6.16667 12.6667 6.16667ZM11.85 17.055H11.8584C12.3192 17.055 12.6917 17.4283 12.6917 17.8892C12.6917 18.3492 12.3192 18.7225 11.8584 18.7225C11.3975 18.7225 11.0209 18.3492 11.0209 17.8892C11.0209 17.4283 11.39 17.055 11.85 17.055Z" fill="#6B7084"/>
</svg>
