<svg width="24" height="24" viewBox="0 0 24 24" fill="none" xmlns="http://www.w3.org/2000/svg">
<path fill-rule="evenodd" clip-rule="evenodd" d="M19.5 18.6667H4.5C3.12167 18.6667 2 17.545 2 16.1667V9.5C2 8.12167 3.12167 7 4.5 7H19.5C20.8783 7 22 8.12167 22 9.5V16.1667C22 17.545 20.8783 18.6667 19.5 18.6667ZM20.3333 9.5C20.3333 9.04 19.9592 8.66667 19.5 8.66667H4.5C4.04083 8.66667 3.66667 9.04 3.66667 9.5V16.1667C3.66667 16.6267 4.04083 17 4.5 17H19.5C19.9592 17 20.3333 16.6267 20.3333 16.1667V9.5ZM17.9133 13.6667C17.4533 13.6667 17.0758 13.2933 17.0758 12.8333C17.0758 12.3725 17.445 12 17.905 12H17.9133C18.3741 12 18.7466 12.3725 18.7466 12.8333C18.7466 13.2933 18.3741 13.6667 17.9133 13.6667ZM5.33333 14.5C4.87333 14.5 4.5 14.1275 4.5 13.6667V12C4.5 11.5392 4.87333 11.1667 5.33333 11.1667C5.79333 11.1667 6.16667 11.5392 6.16667 12V13.6667C6.16667 14.1275 5.79333 14.5 5.33333 14.5Z" fill="#6B7084"/>
</svg>
