<svg width="24" height="24" viewBox="0 0 24 24" fill="none" xmlns="http://www.w3.org/2000/svg">
<path fill-rule="evenodd" clip-rule="evenodd" d="M21.7597 9.80558L20.1594 11.3712C20.1313 11.3993 20.0959 11.4106 20.0646 11.4331C20.0132 11.4716 19.9643 11.5133 19.904 11.5382C19.8061 11.5784 19.7033 11.6001 19.5997 11.6001C19.4953 11.6001 19.3917 11.5784 19.2938 11.5382C19.1958 11.4973 19.1075 11.4387 19.0336 11.3648L17.4341 9.76543C17.1217 9.45311 17.1217 8.94648 17.4341 8.63415C17.7464 8.32182 18.2531 8.32182 18.5655 8.63415L18.755 8.82444C18.5325 7.12952 16.876 5.47234 15.1793 5.24752L15.3656 5.4338C15.6779 5.74693 15.6779 6.25275 15.3656 6.56508C15.209 6.72165 15.0042 6.79953 14.8003 6.79953C14.5955 6.79953 14.3908 6.72165 14.2342 6.56508L12.6354 4.96651C12.5608 4.89264 12.5021 4.80352 12.462 4.70557C12.3809 4.50966 12.3809 4.28967 12.462 4.09376C12.5021 3.9958 12.5608 3.90749 12.6354 3.83362L14.2342 2.23425C14.5465 1.92192 15.0532 1.92192 15.3656 2.23425C15.6779 2.54657 15.6779 3.0532 15.3656 3.36553L15.1126 3.61844C17.7352 3.80552 20.2043 6.30334 20.369 8.92721L20.6404 8.66145C20.9559 8.35233 21.4618 8.35715 21.771 8.67429C22.0809 8.98983 22.0753 9.49566 21.7597 9.80558ZM18.8 16.3997V17.9999C18.8 18.4415 18.4418 18.7996 18.0002 18.7996C17.5585 18.7996 17.1996 18.4415 17.1996 17.9999V16.3997C17.1996 15.9573 17.5585 15.6 18.0002 15.6C18.4418 15.6 18.8 15.9573 18.8 16.3997ZM12.4002 13.2003C12.4002 12.7579 12.8137 12.4352 13.2553 12.4352H19.6792C20.6861 12.4352 21.2 13.2196 21.2 14.2264V20.1735C21.2 21.1803 20.3802 22.0001 19.3733 22.0001H5.37328C5.26568 22.0001 5.16049 21.9905 5.05771 21.9728C4.6233 21.8941 4.33422 21.4782 4.41292 21.043C4.4908 20.6087 4.78951 20.3855 5.22553 20.4641H19.6792C19.8021 20.4641 19.5997 20.2963 19.5997 20.1735V14.2264C19.5997 14.1044 19.4961 14 19.3733 14H13.1999C12.7583 14 12.4002 13.6419 12.4002 13.2003ZM9.77366 19.6531H3.82678C2.81984 19.6531 2 18.8333 2 17.8265V4.62601C2 3.61917 2.81984 2.79941 3.82678 2.79941H9.77366C10.7806 2.79941 11.5996 3.61917 11.5996 4.62601V17.8265C11.5996 18.8333 10.7806 19.6531 9.77366 19.6531ZM10.0435 4.40612C10.0435 4.28327 9.89657 4.3997 9.77371 4.3997H3.82683C3.70398 4.3997 3.60039 4.50407 3.60039 4.62611V17.8266C3.60039 17.9486 3.70398 18.053 3.82683 18.053H9.77371C9.89657 18.053 10.0435 18.1782 10.0435 18.0554V4.40612ZM7.59992 6.79957H6.00038C5.55874 6.79957 5.1998 6.44148 5.1998 5.99988C5.1998 5.55749 5.55874 5.2002 6.00038 5.2002H7.59992C8.04156 5.2002 8.39969 5.55749 8.39969 5.99988C8.39969 6.44148 8.04156 6.79957 7.59992 6.79957ZM6.81628 15.6H6.82431C7.26595 15.6 7.62408 15.9573 7.62408 16.3997C7.62408 16.8421 7.26595 17.2002 6.82431 17.2002C6.38187 17.2002 6.01973 16.8421 6.01973 16.3997C6.01973 15.9573 6.37464 15.6 6.81628 15.6Z" fill="#6B7084"/>
</svg>
