<svg width="24" height="24" viewBox="0 0 24 24" fill="none" xmlns="http://www.w3.org/2000/svg">
<path fill-rule="evenodd" clip-rule="evenodd" d="M21.7563 4.42258L17.5893 8.58891C17.5893 8.58891 17.5893 8.58975 17.5885 8.58975L7.58951 18.5886L7.58867 18.5894L3.42251 22.7558C3.25963 22.918 3.04637 23 2.83311 23C2.61984 23 2.40658 22.918 2.2437 22.7558C1.91877 22.4304 1.91877 21.9026 2.2437 21.5772L6.16637 17.6551V5.49992C6.16637 4.12146 7.28809 3.00063 8.66674 3.00063H15.3333C16.7119 3.00063 17.8336 4.12146 17.8336 5.49992V5.9884L20.5775 3.24403C20.9033 2.91866 21.4305 2.91866 21.7563 3.24403C22.0812 3.57025 22.0812 4.09721 21.7563 4.42258ZM16.2216 5.5133C16.2216 5.05326 15.7926 4.66682 15.3333 4.66682H8.66676C8.2075 4.66682 7.83303 5.04071 7.83303 5.49992V15.9881L16.2216 7.60023V5.5133ZM11.1662 5.49992H12.8337C13.2938 5.49992 13.6666 5.87298 13.6666 6.33386C13.6666 6.79474 13.2938 7.16696 12.8337 7.16696H11.1662C10.7061 7.16696 10.3333 6.79474 10.3333 6.33386C10.3333 5.87298 10.7061 5.49992 11.1662 5.49992ZM11.1872 18.8337C11.1872 18.3728 11.5566 17.9997 12.0168 17.9997H12.0251C12.4853 17.9997 12.858 18.3728 12.858 18.8337C12.858 19.2937 12.4853 19.6668 12.0251 19.6668C11.5642 19.6668 11.1872 19.2937 11.1872 18.8337ZM8.12438 21.1297C8.27551 21.261 8.46694 21.4057 8.66509 21.4057H15.382C15.8413 21.4057 16.2216 21.0293 16.2216 20.5693V12.2049C16.2216 11.7448 16.5398 11.3851 16.9999 11.3851C17.46 11.3851 17.8337 11.7582 17.8337 12.2191V20.4999C17.8337 21.8783 16.7119 23 15.3333 23H8.66677C8.06813 23 7.48711 22.7834 7.03288 22.3894C6.68528 22.0883 6.6475 21.5621 6.94892 21.2142C7.2495 20.8662 7.77594 20.8278 8.12438 21.1297Z" fill="#6B7084"/>
</svg>
