<svg viewBox="0 0 24 24" fill="none" xmlns="http://www.w3.org/2000/svg">
<path fill-rule="evenodd" clip-rule="evenodd" d="M20.6356 17.1358C20.5602 17.5658 19.5689 20.1408 18.9848 21.6358C18.9731 21.6667 18.9521 21.6892 18.9379 21.7175C18.9228 21.7467 18.9077 21.7742 18.8884 21.8017C18.8407 21.8717 18.7845 21.9317 18.72 21.9825C18.7091 21.9908 18.7049 22.0025 18.694 22.0108C18.6924 22.0117 18.6798 22.02 18.6764 22.0217C18.6739 22.0233 18.6714 22.025 18.6689 22.0275C18.5197 22.1308 17.2016 23 15.0622 23C12.9899 23 11.3851 22.1925 11.1798 22.0842C11.179 22.0833 11.1782 22.0833 11.1773 22.0825C11.1689 22.0783 11.1472 22.0675 11.1438 22.0658C11.0399 22.0092 10.9536 21.9325 10.8857 21.8442C10.884 21.8425 10.8815 21.8425 10.8798 21.84C10.8572 21.81 10.2991 21.08 9.25163 19.5375C8.11952 17.8733 6.91366 17.0283 6.90193 17.0192C6.705 16.8833 6.57595 16.6683 6.54746 16.4308C6.51981 16.1933 6.59439 15.955 6.75444 15.7767C7.66198 14.7658 9.348 14.3017 10.7139 15.1467L10.7298 10.9658C10.7298 9.75083 11.6047 8.83333 12.7653 8.83333C13.9544 8.83333 14.8871 9.78333 14.8871 10.995V13.5325C15.0002 13.5317 15.12 13.5392 15.2457 13.56C15.7678 13.6467 16.1382 13.9183 16.3929 14.2058C16.7122 14.1167 17.0994 14.0892 17.525 14.225C17.9692 14.3675 18.2868 14.6342 18.5047 14.9233C18.8164 14.8742 19.1809 14.8875 19.5505 15.05C20.4848 15.4625 20.7689 16.395 20.6356 17.1358ZM18.8784 16.575C18.7904 16.5367 18.5717 16.6167 18.5181 16.65C18.2826 16.7975 17.9893 16.8175 17.7354 16.7017C17.4815 16.5883 17.3013 16.3542 17.2561 16.08C17.251 16.0633 17.1991 15.8708 17.0156 15.8117C16.848 15.7592 16.646 15.9083 16.6435 15.9092C16.4348 16.1 16.1424 16.1692 15.87 16.0975C15.5977 16.0242 15.3798 15.8183 15.2927 15.55C15.2717 15.4933 15.1435 15.2317 14.9717 15.2042C14.8561 15.185 14.7672 15.24 14.7664 15.2417C14.5946 15.4367 14.3533 15.5208 14.1128 15.5133C14.0918 15.515 14.0742 15.525 14.0533 15.525C13.5932 15.525 13.2203 15.1525 13.2203 14.6925V10.995C13.2203 10.7125 13.0242 10.5 12.7653 10.5C12.4444 10.5 12.3966 10.7933 12.3966 10.9692L12.3748 16.7658C12.3748 16.7983 12.3597 16.8258 12.3564 16.8575C12.3497 16.9133 12.3404 16.9667 12.3228 17.0208C12.3044 17.0767 12.2793 17.1258 12.2499 17.175C12.2349 17.2025 12.2307 17.2333 12.2114 17.2592C12.1988 17.2758 12.1796 17.2842 12.1661 17.3C12.1284 17.3433 12.0857 17.3783 12.0396 17.4142C11.9977 17.4458 11.9583 17.4767 11.9122 17.5C11.8661 17.5225 11.8184 17.5367 11.7689 17.5508C11.712 17.5667 11.6583 17.5808 11.5997 17.585C11.5796 17.5867 11.562 17.5967 11.541 17.5967C11.5402 17.5967 11.5393 17.5967 11.5385 17.5967C11.5067 17.5967 11.4798 17.5817 11.4497 17.5783C11.3918 17.5717 11.3374 17.5625 11.2821 17.5433C11.2268 17.525 11.1782 17.5008 11.1287 17.4717C11.1019 17.4558 11.0717 17.4517 11.0458 17.4325L9.93878 16.6142C9.56169 16.3333 9.14018 16.3117 8.7698 16.4158C9.29354 16.9067 9.9723 17.6333 10.6301 18.6008C11.3818 19.7075 11.877 20.3875 12.0874 20.6717C12.4745 20.8508 13.6427 21.3333 15.0622 21.3333C16.3024 21.3333 17.1706 20.9575 17.5351 20.7642C18.2189 19.0075 18.9295 17.1158 18.9982 16.8267C19.0192 16.7092 18.9798 16.62 18.8784 16.575ZM11.4999 5.5C11.96 5.5 12.3329 5.8725 12.3329 6.33333C12.3329 6.79417 11.96 7.16667 11.4999 7.16667H9.83318C9.37313 7.16667 8.99939 6.79417 8.99939 6.33333C8.99939 5.8725 9.37313 5.5 9.83318 5.5H11.4999ZM16.5002 13C16.0401 13 15.751 12.6275 15.751 12.1667V5.5C15.751 5.04 15.2927 4.66667 14.8335 4.66667H6.49971C6.04049 4.66667 5.66675 5.04 5.66675 5.5V18.8333C5.66675 19.2933 6.04049 19.6667 6.49971 19.6667H7.3335C7.79355 19.6667 8.16645 20.0392 8.16645 20.5C8.16645 20.9608 7.79355 21.3333 7.3335 21.3333H6.49971C5.12122 21.3333 4 20.2117 4 18.8333V5.5C4 4.12167 5.12122 3 6.49971 3H14.8335C16.2119 3 17.427 4.12167 17.427 5.5V12.1667C17.427 12.6275 16.9603 13 16.5002 13Z" fill="currentColor"/>
</svg>