<svg width="24" height="24" viewBox="0 0 24 24" fill="none" xmlns="http://www.w3.org/2000/svg">
<path fill-rule="evenodd" clip-rule="evenodd" d="M15.6667 18C13.3692 18 11.5 16.1242 11.5 13.8183C11.5 13.3583 11.8733 12.985 12.3333 12.985C12.7933 12.985 13.1667 13.3583 13.1667 13.8183C13.1667 15.2058 14.2883 16.3333 15.6667 16.3333C17.045 16.3333 18.1667 15.2058 18.1667 13.8183C18.1667 12.4242 17.0717 11.3333 15.6742 11.3333H15.17L15.4117 11.5667C15.7433 11.8867 15.7525 12.4142 15.4333 12.745C15.2692 12.9142 15.0517 13 14.8333 13C14.625 13 14.4158 12.9225 14.255 12.7667L12.5992 11.1692C12.2692 10.8508 12.2592 10.3258 12.575 9.99417L14.23 8.25834C14.5483 7.925 15.0767 7.91334 15.4083 8.23C15.7417 8.5475 15.7542 9.075 15.4367 9.40834L15.19 9.66667H15.6742C17.9675 9.66667 19.8333 11.5292 19.8333 13.8183C19.8333 16.1242 17.9642 18 15.6667 18ZM9.94083 18C10.4017 18 10.7742 18.3725 10.7742 18.8333C10.7742 19.2933 10.4017 19.6667 9.94083 19.6667C9.48083 19.6667 9.10417 19.2933 9.10417 18.8333C9.10417 18.3725 9.4725 18 9.93333 18H9.94083ZM8.24998 6.33333C8.24998 5.8725 8.62248 5.5 9.08331 5.5H10.75C11.21 5.5 11.5833 5.8725 11.5833 6.33333C11.5833 6.79417 11.21 7.16667 10.75 7.16667H9.08331C8.62248 7.16667 8.24998 6.79417 8.24998 6.33333ZM14.8333 7.16667C14.3733 7.16667 14 6.79417 14 6.33333V5.5C14 5.125 13.6158 4.66667 13.1667 4.66667H6.5C6.04083 4.66667 5.66667 5.04 5.66667 5.5V20.5C5.66667 20.96 6.04083 21.3333 6.5 21.3333H13.1667C13.5817 21.3333 14 20.7625 14 20.5V19.6667C14 19.2067 14.3733 18.8333 14.8333 18.8333C15.2933 18.8333 15.6667 19.2067 15.6667 19.6667V20.5C15.6667 21.6317 14.5517 23 13.1667 23H6.5C5.12167 23 4 21.8783 4 20.5V5.5C4 4.12083 5.12167 3 6.5 3H13.1667C14.4983 3 15.6667 4.16833 15.6667 5.5V6.33333C15.6667 6.79417 15.2933 7.16667 14.8333 7.16667Z" fill="#6B7084"/>
</svg>
