<svg width="24" height="24" viewBox="0 0 24 24" fill="none" xmlns="http://www.w3.org/2000/svg">
<path fill-rule="evenodd" clip-rule="evenodd" d="M16.31 22H10.3575C9.24083 22 8.33333 21.0658 8.33333 19.9167V7.41667C8.33333 6.2675 9.24083 5.33333 10.3575 5.33333H16.31C17.4258 5.33333 18.3333 6.2675 18.3333 7.41667V19.9167C18.3333 21.0658 17.4258 22 16.31 22ZM16.6667 7.41667C16.6667 7.19 16.5033 7 16.31 7H10.3575C10.1633 7 10 7.19 10 7.41667V19.9167C10 20.1433 10.1633 20.3333 10.3575 20.3333H16.31C16.5033 20.3333 16.6667 20.1433 16.6667 19.9167V7.41667ZM11.6941 7.83333H15.0275V9.5H11.6941V7.83333ZM14.1941 19.5H12.5275V17.8333H14.1941V19.5ZM14.1667 4.5C13.7158 4.5 13.3492 4.14167 13.3342 3.695C13.2708 3.68167 13.16 3.66667 12.9758 3.66667H7.02333C6.83 3.66667 6.66667 3.85833 6.66667 4.08417V16.5833C6.66667 16.8067 6.69083 16.935 6.71 17.0017C7.13917 17.0358 7.4875 17.3958 7.4875 17.8325C7.4875 18.2933 7.12667 18.6667 6.66667 18.6667C6.27583 18.6667 5 18.5158 5 16.5833V4.08417C5 2.935 5.9075 2 7.02333 2H12.9758C14.8025 2 15 3.16583 15 3.66667C15 4.1275 14.6267 4.5 14.1667 4.5Z" fill="#6B7084"/>
</svg>
