<svg width="24" height="24" viewBox="0 0 24 24" fill="none" xmlns="http://www.w3.org/2000/svg">
<path fill-rule="evenodd" clip-rule="evenodd" d="M20.5417 22H16.7917C15.9875 22 15.3333 21.3525 15.3333 20.555V12.6108C15.3333 11.8142 15.9875 11.1667 16.7917 11.1667H20.5417C21.3458 11.1667 22 11.8142 22 12.6108V20.555C22 21.3525 21.3458 22 20.5417 22ZM20.3333 12.8333H17V20.3333H20.3333V12.8333ZM21.1667 10.3333C20.7067 10.3333 20.3333 9.96083 20.3333 9.5V3.66667H5.33333V7C5.33333 7.46083 4.96 7.83333 4.5 7.83333C4.04 7.83333 3.66667 7.46083 3.66667 7V3.44417C3.66667 2.6475 4.3075 2 5.095 2H20.5717C21.3592 2 22 2.6475 22 3.44417V9.5C22 9.96083 21.6267 10.3333 21.1667 10.3333ZM8.38833 8.66667C9.46083 8.66667 10.3333 9.59167 10.3333 10.7283V19.9383C10.3333 21.075 9.46083 22 8.38833 22H3.94417C2.87167 22 2 21.075 2 19.9383V10.7283C2 9.59167 2.87167 8.66667 3.94417 8.66667H8.38833ZM3.66667 10.7283V19.9383C3.66667 20.165 3.81333 20.3333 3.94417 20.3333H8.38833C8.52 20.3333 8.66667 20.165 8.66667 19.9383V10.7283C8.66667 10.5017 8.52 10.3333 8.38833 10.3333H3.94417C3.81333 10.3333 3.66667 10.5017 3.66667 10.7283ZM12 15.3333H13.6667C14.1267 15.3333 14.5 15.7058 14.5 16.1667C14.5 16.6267 14.1267 17 13.6667 17H12C11.54 17 11.1667 16.6267 11.1667 16.1667C11.1667 15.7058 11.54 15.3333 12 15.3333Z" fill="#6B7084"/>
</svg>
