<svg viewBox="0 0 24 24" fill="none" xmlns="http://www.w3.org/2000/svg">
<path fill-rule="evenodd" clip-rule="evenodd" d="M12 3.80001C7.47122 3.80001 3.79995 7.47128 3.79995 12C3.79995 16.5287 7.47122 20.2 12 20.2C16.5287 20.2 20.2 16.5287 20.2 12C20.2 7.47128 16.5287 3.80001 12 3.80001ZM2.19995 12C2.19995 6.58762 6.58756 2.20001 12 2.20001C17.4123 2.20001 21.7999 6.58762 21.7999 12C21.7999 17.4124 17.4123 21.8 12 21.8C6.58756 21.8 2.19995 17.4124 2.19995 12ZM8.39424 8.86191C8.50463 8.64114 8.80514 8.20001 9.37495 8.20001C9.94477 8.20001 10.2453 8.64114 10.3557 8.86191C10.49 9.13053 10.55 9.44564 10.55 9.75001C10.55 10.0544 10.49 10.3695 10.3557 10.6381C10.2453 10.8589 9.94477 11.3 9.37495 11.3C8.80514 11.3 8.50463 10.8589 8.39424 10.6381C8.25994 10.3695 8.19995 10.0544 8.19995 9.75001C8.19995 9.44564 8.25994 9.13053 8.39424 8.86191ZM13.6442 8.86191C13.7546 8.64114 14.0551 8.20001 14.625 8.20001C15.1948 8.20001 15.4953 8.64114 15.6057 8.86191C15.74 9.13053 15.8 9.44564 15.8 9.75001C15.8 10.0544 15.74 10.3695 15.6057 10.6381C15.4953 10.8589 15.1948 11.3 14.625 11.3C14.0551 11.3 13.7546 10.8589 13.6442 10.6381C13.5099 10.3695 13.45 10.0544 13.45 9.75001C13.45 9.44564 13.5099 9.13053 13.6442 8.86191ZM8.25229 14.6163C8.5647 14.3039 9.07124 14.3039 9.38366 14.6163C10.8286 16.0612 13.1713 16.0612 14.6162 14.6163C14.9287 14.3039 15.4352 14.3039 15.7476 14.6163C16.06 14.9287 16.06 15.4353 15.7476 15.7477C13.6778 17.8175 10.3221 17.8175 8.25229 15.7477C7.93987 15.4353 7.93987 14.9287 8.25229 14.6163Z" fill="currentColor"/>
</svg>