<svg viewBox="0 0 24 24" fill="none" xmlns="http://www.w3.org/2000/svg">
<g clip-path="url(#clip0_1265_20850)">
<path d="M12 24C18.6274 24 24 18.6274 24 12C24 5.37258 18.6274 0 12 0C5.37258 0 0 5.37258 0 12C0 18.6274 5.37258 24 12 24Z" fill="#B30D23"/>
<path d="M12.5941 15.0275L12 16.1341L11.4059 15.0275C7.81696 14.7489 5 12.0728 5 12.0728C5 12.0665 7.73727 9.47326 11.2529 9.13158L11.7182 8.33475L12 7.86621L12.4781 8.66304L12.7471 9.13158C16.2621 9.46688 19 12.0728 19 12.0728C19 12.0728 16.1824 14.7489 12.5935 15.0275H12.5941ZM5.59412 12.0728C5.58774 12.0728 8.30079 13.9266 11.026 14.3186L9.69748 11.8325L10.0583 11.2065L10.3898 11.8261L10.3834 11.8325L11.6755 14.376C11.7794 14.3824 11.8833 14.3824 11.9879 14.3824C12.0918 14.3824 12.19 14.3824 12.2939 14.376L13.2431 12.484L13.9353 11.1938L14.2961 11.8198L12.9677 14.3123C15.6928 13.9266 18.4052 12.1175 18.4052 12.0665C18.4052 12.0218 15.8216 10.2956 13.1634 9.85255L13.5675 10.555L13.2309 11.2314L12.3551 9.76394C12.2368 9.75654 12.1184 9.75229 12 9.75119C11.8833 9.75119 11.761 9.75757 11.6386 9.76394L10.7442 11.2314L10.414 10.5863L10.836 9.85893C8.1784 10.3083 5.59412 12.0728 5.59412 12.0728Z" fill="white"/>
</g>
<defs>
<clipPath id="clip0_1265_20850">
<rect width="24" height="24" fill="white"/>
</clipPath>
</defs>
</svg>