<svg width="24" height="24" viewBox="0 0 24 24" fill="none" xmlns="http://www.w3.org/2000/svg">
<g clip-path="url(#clip0_1265_20846)">
<path d="M12 24C18.6274 24 24 18.6274 24 12C24 5.37258 18.6274 0 12 0C5.37258 0 0 5.37258 0 12C0 18.6274 5.37258 24 12 24Z" fill="#0B1C26"/>
<path d="M12 18.5C8.41436 18.4894 5.5 15.5791 5.5 12C5.5 8.42086 8.41436 5.51064 12 5.5C15.5856 5.51064 18.5 8.42086 18.5 12C18.5 15.5791 15.5856 18.4929 12 18.5ZM17.7643 13.0341C17.6957 13.1923 17.5678 13.3173 17.408 13.3823C17.2483 13.4472 17.0694 13.447 16.9099 13.3815C17.1397 13.6215 17.2833 13.9435 17.2833 14.2975C17.2833 14.4015 17.2691 14.4984 17.2479 14.5953C17.4913 14.1013 17.6656 13.576 17.7643 13.0347V13.0341ZM17.1616 13.0991C17.2481 13.0992 17.3311 13.065 17.3924 13.004C17.4537 12.9429 17.4882 12.86 17.4884 12.7735C17.4885 12.687 17.4543 12.604 17.3932 12.5427C17.3322 12.4814 17.2493 12.4469 17.1628 12.4467C17.1199 12.4466 17.0775 12.4549 17.0379 12.4712C16.9983 12.4875 16.9622 12.5114 16.9319 12.5416C16.8705 12.6026 16.8359 12.6855 16.8357 12.772C16.8355 12.8585 16.8696 12.9416 16.9306 13.0029C16.9916 13.0643 17.0745 13.0989 17.161 13.0991H17.1616ZM17.3081 9.53768C17.4691 9.9881 17.5087 10.4729 17.4231 10.9435C17.3374 11.4141 17.1294 11.8538 16.82 12.2186C16.922 12.1567 17.0387 12.1233 17.158 12.1217C17.499 12.1217 17.7785 12.3829 17.8075 12.7197C17.8364 12.4834 17.8541 12.247 17.8541 12.0035C17.8581 11.1512 17.6716 10.3087 17.3081 9.53768ZM16.9749 10.45C16.9735 9.85131 16.7345 9.2776 16.3106 8.85484C15.8866 8.43208 15.3122 8.19482 14.7135 8.19514C14.1147 8.19482 13.5403 8.43208 13.1163 8.85484C12.6924 9.2776 12.4535 9.85131 12.452 10.45C12.4535 11.0488 12.6924 11.6225 13.1163 12.0452C13.5403 12.468 14.1147 12.7053 14.7135 12.705C15.312 12.7046 15.886 12.4672 16.3099 12.0446C16.7337 11.6219 16.9728 11.0486 16.9749 10.45ZM14.6236 14.2986C14.6236 13.8082 14.8955 13.3573 15.331 13.1286C14.7793 13.2568 14.2015 13.2116 13.6764 12.9992C14.1229 13.3415 14.4535 13.8126 14.6236 14.3489C14.6272 14.327 14.6236 14.3128 14.6236 14.2986ZM14.753 15.172C14.7524 15.3891 14.7258 15.6053 14.6739 15.8161C14.7814 15.6016 15.0006 15.4657 15.2411 15.4657C15.2749 15.4655 15.3086 15.4691 15.3416 15.4763C15.0651 15.3342 14.8467 15.1002 14.7241 14.8145C14.743 14.9327 14.7525 15.052 14.753 15.172ZM15.9514 15.1324C16.1732 15.1327 16.3862 15.0452 16.5436 14.8889C16.7011 14.7327 16.7903 14.5205 16.7917 14.2986C16.7917 13.8371 16.4147 13.4649 15.9514 13.4649C15.4881 13.4649 15.1153 13.8407 15.1153 14.298C15.1153 14.7601 15.4923 15.1324 15.952 15.1324H15.9514ZM16.5039 12.7776C16.5051 12.6671 16.5335 12.559 16.5866 12.4621C16.3481 12.6824 16.0738 12.8602 15.7753 12.988C15.8332 12.9815 15.8905 12.9744 15.9514 12.9744C16.1902 12.9738 16.4247 13.0382 16.6298 13.1605C16.548 13.0494 16.5041 12.915 16.5045 12.777L16.5039 12.7776ZM11.9994 12.4231C12.354 12.4231 12.705 12.491 13.0335 12.6234C12.4818 12.2008 12.112 11.5837 11.9994 10.898C11.8864 11.5834 11.5169 12.2003 10.9659 12.6234C11.295 12.4923 11.6458 12.4241 12 12.4225L11.9994 12.4231ZM11.9994 8.77541C11.7493 8.77591 11.5041 8.7052 11.2927 8.57155C11.6652 8.96482 11.9116 9.46059 12 9.99505C12.0906 9.46112 12.3366 8.96577 12.7073 8.57095C12.4957 8.70472 12.2504 8.77543 12 8.77482L11.9994 8.77541ZM13.342 7.437C13.342 7.73659 13.2409 8.02791 13.0548 8.26427C13.3338 8.05313 13.6507 7.89747 13.9884 7.80573C13.9736 7.80573 13.963 7.80927 13.9524 7.80927C13.6758 7.80927 13.4383 7.63791 13.342 7.39386C13.339 7.40805 13.342 7.42282 13.342 7.437ZM14.3613 6.64636C14.509 6.76809 14.6053 6.94655 14.6053 7.151C14.6053 7.40982 14.4517 7.64441 14.2141 7.74841C14.6902 7.66074 15.1809 7.69994 15.637 7.86206C16.0931 8.02419 16.4985 8.30353 16.8124 8.672C16.1952 7.78616 15.3479 7.08558 14.3619 6.64577L14.3613 6.64636ZM13.9488 6.82895C13.906 6.82884 13.8635 6.83716 13.8239 6.85344C13.7843 6.86973 13.7483 6.89366 13.7179 6.92386C13.6875 6.95407 13.6634 6.98996 13.6469 7.02949C13.6304 7.06902 13.6219 7.11142 13.6217 7.15425C13.6216 7.19708 13.63 7.23952 13.6462 7.27914C13.6625 7.31876 13.6865 7.35478 13.7167 7.38515C13.7469 7.41553 13.7828 7.43965 13.8223 7.45615C13.8618 7.47265 13.9042 7.4812 13.947 7.48132C14.0336 7.48155 14.1168 7.44738 14.1782 7.38632C14.2396 7.32526 14.2742 7.24231 14.2744 7.15573C14.2746 7.06914 14.2405 6.98601 14.1794 6.92461C14.1184 6.86322 14.0354 6.8286 13.9488 6.82836V6.82895ZM12.4054 6.15945C12.6214 6.22803 12.8165 6.35039 12.9722 6.51505C13.128 6.67971 13.2394 6.88126 13.2959 7.10077C13.3079 6.93653 13.3816 6.78292 13.5022 6.67071C13.6227 6.5585 13.7812 6.49598 13.9459 6.49568C13.9673 6.49632 13.9886 6.49869 14.0097 6.50277C13.4934 6.3146 12.9535 6.19906 12.4054 6.15945ZM11.1526 7.437C11.1585 7.65778 11.2503 7.86756 11.4085 8.02166C11.5667 8.17576 11.7788 8.26199 11.9997 8.26199C12.2206 8.26199 12.4327 8.17576 12.5909 8.02166C12.7491 7.86756 12.8409 7.65778 12.8468 7.437C12.8386 7.2179 12.7458 7.0105 12.5879 6.85838C12.43 6.70626 12.2193 6.62128 12 6.62128C11.7807 6.62128 11.57 6.70626 11.4121 6.85838C11.2542 7.0105 11.1614 7.2179 11.1532 7.437H11.1526ZM9.98677 6.50277C10.008 6.49866 10.0296 6.49628 10.0512 6.49568C10.2161 6.49529 10.3749 6.55757 10.4956 6.66992C10.6163 6.78227 10.6898 6.93628 10.7012 7.10077C10.7576 6.88133 10.8689 6.67982 11.0245 6.51516C11.1802 6.35051 11.3752 6.22811 11.5911 6.15945C11.0309 6.202 10.492 6.31664 9.98677 6.50277ZM10.6575 7.437C10.6568 7.42253 10.658 7.40804 10.661 7.39386C10.6126 7.51619 10.5286 7.62118 10.4199 7.69525C10.3112 7.76931 10.1827 7.80903 10.0512 7.80927C10.0364 7.80927 10.0258 7.80573 10.0151 7.80573C10.352 7.89791 10.6693 8.05391 10.9488 8.26368C10.7602 8.02944 10.6574 7.73773 10.6575 7.437ZM9.72441 7.15395C9.72445 7.19679 9.73292 7.2392 9.74935 7.27876C9.76578 7.31832 9.78984 7.35425 9.82015 7.38451C9.85047 7.41477 9.88645 7.43877 9.92604 7.45512C9.96563 7.47148 10.0081 7.47988 10.0509 7.47984C10.0937 7.4798 10.1361 7.47133 10.1757 7.4549C10.2152 7.43847 10.2512 7.41441 10.2814 7.3841C10.3117 7.35378 10.3357 7.3178 10.3521 7.27821C10.3684 7.23862 10.3768 7.1962 10.3768 7.15336C10.3767 7.06685 10.3423 6.98392 10.281 6.9228C10.2198 6.86169 10.1368 6.8274 10.0503 6.82748C9.96379 6.82756 9.88085 6.862 9.81974 6.92322C9.75862 6.98445 9.72433 7.06745 9.72441 7.15395ZM7.18705 8.67554C7.50022 8.30616 7.90551 8.02617 8.36182 7.86396C8.81813 7.70176 9.30921 7.66312 9.78527 7.75195C9.68274 7.70724 9.59347 7.63682 9.52612 7.5475C9.45877 7.45819 9.41561 7.353 9.40082 7.24212C9.38602 7.13124 9.40009 7.01842 9.44167 6.91457C9.48324 6.81072 9.55091 6.71936 9.63814 6.64932C8.65046 7.0867 7.80239 7.78776 7.18705 8.67554ZM7.02514 10.4506C7.02654 11.0494 7.26546 11.6231 7.68944 12.0458C8.11341 12.4686 8.68781 12.7059 9.28655 12.7055C9.88528 12.7059 10.4597 12.4686 10.8837 12.0458C11.3076 11.6231 11.5465 11.0494 11.548 10.4506C11.5465 9.8519 11.3076 9.27819 10.8837 8.85543C10.4597 8.43267 9.88528 8.19541 9.28655 8.19573C8.04091 8.19927 7.02514 9.20855 7.02514 10.4506ZM9.37636 14.2986C9.37636 14.3128 9.37282 14.3311 9.37282 14.3453C9.54391 13.8096 9.87436 13.3387 10.32 12.9957C9.79493 13.2079 9.21713 13.2528 8.6655 13.1245C8.87962 13.237 9.05898 13.4058 9.18425 13.6127C9.30951 13.8196 9.37594 14.0568 9.37636 14.2986ZM7.4955 12.777C7.49609 12.9159 7.45059 13.0506 7.36609 13.16C7.57127 13.0379 7.80572 12.9738 8.04445 12.9744C8.10355 12.9738 8.16264 12.9785 8.22055 12.9886C7.92069 12.8635 7.64586 12.6853 7.40923 12.4627C7.46595 12.5572 7.4955 12.6665 7.4955 12.777ZM7.20832 14.2986C7.20832 14.5204 7.29641 14.7331 7.45322 14.8899C7.61002 15.0467 7.8227 15.1348 8.04445 15.1348C8.26621 15.1348 8.47889 15.0467 8.63569 14.8899C8.7925 14.7331 8.88059 14.5204 8.88059 14.2986C8.88059 13.8365 8.50418 13.4643 8.04445 13.4643C7.93469 13.4639 7.82593 13.4852 7.72443 13.527C7.62292 13.5687 7.53067 13.6301 7.45298 13.7077C7.37528 13.7852 7.31367 13.8773 7.27168 13.9787C7.2297 14.0802 7.20816 14.1889 7.20832 14.2986ZM8.65486 15.4763C8.68736 15.4728 8.71986 15.4651 8.75532 15.4651C8.99582 15.4657 9.21505 15.601 9.32259 15.8161C9.27068 15.6053 9.2441 15.3891 9.24341 15.172C9.24459 15.0509 9.25286 14.9297 9.26882 14.8104C9.14886 15.0975 8.932 15.3333 8.65486 15.4763ZM6.189 12.7168C6.20316 12.554 6.2777 12.4023 6.39798 12.2917C6.51825 12.181 6.67557 12.1193 6.839 12.1188C6.95777 12.1194 7.07477 12.153 7.17582 12.2157C6.86645 11.8509 6.65848 11.4111 6.57281 10.9406C6.48714 10.47 6.52677 9.98514 6.68773 9.53473C6.22372 10.5266 6.05077 11.6299 6.189 12.7162V12.7168ZM6.839 12.4515C6.79616 12.4514 6.75373 12.4597 6.71413 12.4761C6.67453 12.4924 6.63853 12.5163 6.60818 12.5466C6.57784 12.5768 6.55375 12.6127 6.53728 12.6523C6.52082 12.6918 6.5123 12.7342 6.51223 12.777C6.51215 12.8199 6.52051 12.8623 6.53683 12.9019C6.55315 12.9415 6.57711 12.9775 6.60735 13.0079C6.63758 13.0382 6.67349 13.0623 6.71304 13.0788C6.75258 13.0952 6.79498 13.1037 6.83782 13.1038C6.92433 13.104 7.00735 13.0698 7.06864 13.0087C7.12992 12.9476 7.16443 12.8647 7.16459 12.7782C7.16475 12.6917 7.13053 12.6087 7.06947 12.5474C7.00841 12.4861 6.92551 12.4516 6.839 12.4515ZM6.71727 14.2986C6.71727 13.9559 6.85082 13.6274 7.09014 13.3827C6.93056 13.448 6.75177 13.4482 6.59205 13.3832C6.43234 13.3183 6.30442 13.1934 6.23568 13.0353C6.33614 13.586 6.50927 14.109 6.75273 14.5953C6.72983 14.498 6.71794 14.3985 6.71727 14.2986ZM8.39664 15.5762C8.17888 15.6357 7.94955 15.6386 7.73033 15.5848C7.51112 15.5309 7.30927 15.422 7.14391 15.2683C7.45709 15.731 7.83409 16.1464 8.26368 16.5033C8.16968 16.3909 8.11767 16.2492 8.11655 16.1027C8.11655 15.8917 8.22173 15.695 8.39664 15.5768V15.5762ZM8.44686 16.1021C8.44686 16.1839 8.47936 16.2624 8.53721 16.3202C8.59505 16.378 8.67351 16.4105 8.75532 16.4105C8.83713 16.4105 8.91558 16.378 8.97343 16.3202C9.03127 16.2624 9.06377 16.1839 9.06377 16.1021C9.06377 16.0203 9.03127 15.9418 8.97343 15.884C8.91558 15.8261 8.83713 15.7936 8.75532 15.7936C8.67351 15.7936 8.59505 15.8261 8.53721 15.884C8.47936 15.9418 8.44686 16.0203 8.44686 16.1021ZM11.207 17.8027C10.7863 17.6754 10.4021 17.4496 10.0863 17.1439C9.77047 16.8382 9.53215 16.4616 9.39114 16.0454C9.39114 16.0631 9.39823 16.0808 9.39823 16.1027C9.3981 16.2106 9.37059 16.3167 9.31826 16.4111C9.26593 16.5055 9.1905 16.585 9.09903 16.6423C9.00756 16.6996 8.90306 16.7327 8.7953 16.7386C8.68754 16.7445 8.58005 16.7229 8.48291 16.6759C9.28001 17.2776 10.2177 17.6655 11.207 17.8027ZM14.2579 15.172C14.2579 14.5733 14.02 13.999 13.5966 13.5757C13.1733 13.1523 12.599 12.9144 12.0003 12.9144C11.4016 12.9144 10.8273 13.1523 10.404 13.5757C9.98058 13.999 9.74273 14.5733 9.74273 15.172C9.74398 15.77 9.98229 16.3431 10.4054 16.7657C10.8286 17.1883 11.402 17.4258 12 17.4263C12.5979 17.4252 13.1711 17.1874 13.5941 16.7648C14.0171 16.3422 14.2556 15.7693 14.2573 15.1714L14.2579 15.172ZM15.5212 16.6753C15.424 16.7226 15.3163 16.7445 15.2083 16.7388C15.1003 16.7331 14.9955 16.7001 14.9037 16.6428C14.8122 16.5855 14.7368 16.5059 14.6847 16.4114C14.6326 16.3169 14.6055 16.2106 14.6059 16.1027C14.6065 16.0834 14.6089 16.0642 14.613 16.0454C14.4719 16.4617 14.2335 16.8384 13.9176 17.144C13.6017 17.4497 13.2173 17.6755 12.7965 17.8027C13.7855 17.6639 14.7228 17.2759 15.5206 16.6753H15.5212ZM15.5537 16.1021C15.5537 16.0411 15.5357 15.9815 15.5018 15.9308C15.4679 15.8801 15.4198 15.8405 15.3634 15.8172C15.3071 15.7938 15.2451 15.7877 15.1853 15.7995C15.1255 15.8114 15.0705 15.8407 15.0274 15.8838C14.9842 15.9269 14.9548 15.9818 14.9428 16.0416C14.9308 16.1013 14.9369 16.1633 14.9601 16.2197C14.9834 16.2761 15.0228 16.3243 15.0735 16.3583C15.1241 16.3922 15.1837 16.4104 15.2447 16.4105C15.3262 16.4099 15.4042 16.3773 15.4619 16.3197C15.5196 16.2621 15.5524 16.1842 15.5531 16.1027L15.5537 16.1021ZM16.8561 15.2689C16.6907 15.4226 16.4889 15.5314 16.2696 15.5852C16.0504 15.639 15.8211 15.6359 15.6034 15.5762C15.7783 15.6944 15.8835 15.8917 15.8835 16.1021C15.8835 16.2563 15.8261 16.3922 15.7363 16.5033C16.166 16.1466 16.543 15.7308 16.8561 15.2683V15.2689Z" fill="white"/>
</g>
<defs>
<clipPath id="clip0_1265_20846">
<rect width="24" height="24" fill="white"/>
</clipPath>
</defs>
</svg>
