<svg viewBox="0 0 24 24" fill="none" xmlns="http://www.w3.org/2000/svg">
<g clip-path="url(#clip0_1265_20842)">
<path d="M12 24C18.6274 24 24 18.6274 24 12C24 5.37258 18.6274 0 12 0C5.37258 0 0 5.37258 0 12C0 18.6274 5.37258 24 12 24Z" fill="#5B6DEE"/>
<path d="M10.0199 11.2814C9.61077 11.2793 9.20232 11.3146 8.79964 11.3869C9.1311 8.32168 11.686 6 14.7278 6C16.5904 6 17.8664 6.91225 17.8664 8.7998C17.8664 10.6881 16.3345 11.6003 14.1001 11.6003C12.4501 11.6003 11.6698 11.2821 10.0199 11.2821V11.2814ZM9.89962 12.3997C7.6652 12.3997 6.1333 13.3126 6.1333 15.2002C6.1333 17.0878 7.40927 18 9.2719 18C12.3137 18 14.8686 15.6791 15.2 12.6131C14.7974 12.6854 14.3889 12.7208 13.9798 12.7187C12.3298 12.7187 11.5488 12.3997 9.89962 12.3997Z" fill="white"/>
</g>
<defs>
<clipPath id="clip0_1265_20842">
<rect width="24" height="24" fill="white"/>
</clipPath>
</defs>
</svg>