<svg width="24" height="24" viewBox="0 0 24 24" fill="none" xmlns="http://www.w3.org/2000/svg">
<g clip-path="url(#clip0_1265_20836)">
<path d="M12 24C18.6274 24 24 18.6274 24 12C24 5.37258 18.6274 0 12 0C5.37258 0 0 5.37258 0 12C0 18.6274 5.37258 24 12 24Z" fill="url(#paint0_linear_1265_20836)"/>
<path d="M8.64164 9.5511C8.56015 9.44994 8.4365 9.39374 8.30443 9.39374H5.58149C5.55901 9.39374 5.53934 9.38531 5.52248 9.37126C5.50843 9.35721 5.5 9.34035 5.5 9.32068V7.48572C5.5 7.46605 5.50843 7.44918 5.52248 7.43513C5.53934 7.41827 5.55901 7.40984 5.58149 7.41265H8.45898C9.18398 7.41265 9.81062 7.71052 10.3389 8.30344L11.0386 9.1577L9.67574 10.8184L8.64164 9.5511ZM13.6716 8.29501C14.1971 7.70771 14.8266 7.41265 15.56 7.41265H18.429C18.4487 7.40984 18.4684 7.41827 18.4824 7.42951C18.4965 7.44356 18.5021 7.46324 18.4993 7.48572V9.32068C18.4993 9.34035 18.4937 9.35721 18.4824 9.37126C18.4684 9.38812 18.4487 9.39655 18.429 9.39374H15.7061C15.5768 9.39093 15.4532 9.44994 15.3689 9.5511L13.3625 11.993L15.3773 14.4518C15.4588 14.5446 15.5797 14.6008 15.7033 14.598H18.4262C18.4459 14.5951 18.4684 14.6064 18.4796 14.6204C18.4909 14.6373 18.4993 14.6598 18.4965 14.6794V16.5144C18.4965 16.5341 18.4909 16.5509 18.4796 16.565C18.4656 16.5819 18.4459 16.5903 18.4262 16.5875H15.56C14.8266 16.5875 14.2027 16.2896 13.6801 15.6967L12.0109 13.6594L10.3417 15.6967C9.81624 16.2896 9.18679 16.5875 8.45336 16.5875H5.58149C5.56182 16.5903 5.53934 16.579 5.5281 16.565C5.51405 16.5481 5.50843 16.5257 5.51124 16.506V14.671C5.51124 14.6513 5.51686 14.6345 5.5281 14.6204C5.54215 14.6036 5.56182 14.5951 5.58149 14.598H8.30443C8.43369 14.598 8.55734 14.5389 8.64164 14.4406L10.6115 12.0352L13.6716 8.29501Z" fill="#00D1FF"/>
</g>
<defs>
<linearGradient id="paint0_linear_1265_20836" x1="12.0017" y1="-6.94598e-05" x2="12.0017" y2="6.35054" gradientUnits="userSpaceOnUse">
<stop stop-color="#090220"/>
<stop offset="1" stop-color="#170659"/>
</linearGradient>
<clipPath id="clip0_1265_20836">
<rect width="24" height="24" fill="white"/>
</clipPath>
</defs>
</svg>
