<svg viewBox="0 0 24 24" fill="none" xmlns="http://www.w3.org/2000/svg">
<g clip-path="url(#clip0_1265_20830)">
<path d="M12 24C18.6274 24 24 18.6274 24 12C24 5.37258 18.6274 0 12 0C5.37258 0 0 5.37258 0 12C0 18.6274 5.37258 24 12 24Z" fill="#199248"/>
<path d="M12 5.5C8.41038 5.5 5.5 8.41038 5.5 12C5.5 15.5896 8.41038 18.5 12 18.5C15.5896 18.5 18.5 15.5896 18.5 12C18.5 10.2761 17.8152 8.62279 16.5962 7.40381C15.3772 6.18482 13.7239 5.5 12 5.5ZM13.4858 17.5445C12.738 17.7438 11.9577 17.7897 11.1917 17.6797C10.4257 17.5697 9.68992 17.3058 9.0285 16.9041C8.36709 16.5024 7.79374 15.9711 7.34292 15.3421C6.89211 14.7131 6.57315 13.9995 6.40521 13.2441C6.23727 12.4887 6.22383 11.7071 6.36569 10.9464C6.50755 10.1856 6.80178 9.46145 7.2307 8.81734C7.65961 8.17324 8.21435 7.62252 8.86156 7.1983C9.50877 6.77408 10.2351 6.48512 10.9968 6.34879C12.453 6.0915 13.9524 6.40613 15.1823 7.22711C16.4123 8.04809 17.2779 9.31208 17.5988 10.7556C17.9197 12.1991 17.6712 13.7108 16.9049 14.9756C16.1387 16.2403 14.9139 17.1606 13.4858 17.5445Z" fill="white"/>
<path d="M13.587 7.28057C13.587 7.56061 13.587 7.84011 13.5978 8.12015C13.2232 7.97478 12.8332 7.87265 12.4354 7.81573C12.4192 7.56169 12.4918 7.28273 12.4176 7.04169C12.1342 7.02149 11.8498 7.01805 11.5661 7.0314C11.552 7.29248 11.5574 7.55465 11.5661 7.81682C11.1681 7.87635 10.7782 7.98065 10.4036 8.12773C10.4118 7.84498 10.4145 7.56277 10.4107 7.27948C9.4219 7.61242 8.56255 8.2473 7.9538 9.09462C7.34504 9.94193 7.01758 10.9589 7.01758 12.0023C7.01758 13.0456 7.34504 14.0626 7.9538 14.9099C8.56255 15.7572 9.4219 16.3921 10.4107 16.7251C10.4107 16.4477 10.408 16.1715 10.4026 15.8952C10.7742 16.0407 11.1622 16.1406 11.5579 16.1926C11.5579 16.4466 11.5579 16.7007 11.5428 16.952C11.8461 16.9954 12.1538 16.9954 12.4571 16.952C12.4433 16.7018 12.4361 16.4513 12.4354 16.2007C12.8314 16.1451 13.2201 16.0463 13.5946 15.9061C13.586 16.1804 13.586 16.455 13.5946 16.7294C14.583 16.3957 15.4417 15.7603 16.0498 14.9126C16.6578 14.065 16.9846 13.0479 16.9839 12.0047C16.9833 10.9616 16.6552 9.94488 16.0461 9.09802C15.437 8.25115 14.5774 7.61679 13.5886 7.28436L13.5876 7.28057H13.587ZM14.3291 14.8287C13.6748 15.4218 12.7453 15.5621 11.8916 15.5496C11.1425 15.5496 10.3495 15.3465 9.80834 14.8043C9.52126 14.527 9.35876 14.1565 9.21305 13.7887C9.7363 13.6533 10.2763 13.6078 10.8034 13.4951C10.8361 13.6545 10.9104 13.8023 11.0186 13.9238C11.1269 14.0453 11.2653 14.136 11.4198 14.1868C11.8981 14.3363 12.4907 14.3574 12.8893 14.0162C13.1721 13.7816 13.1802 13.2687 12.8298 13.0932C12.0081 12.6685 10.9843 12.8126 10.2076 12.2753C9.13776 11.6009 9.05868 9.81231 10.1057 9.08431C10.9063 8.52261 11.9766 8.45273 12.9051 8.67806C13.7446 8.8904 14.3432 9.60215 14.6313 10.3903C14.1146 10.4796 13.5984 10.5712 13.0816 10.6584C12.9457 9.83777 11.7968 9.64277 11.2259 10.1211C10.9009 10.3914 10.9843 10.9671 11.3906 11.1112C12.2789 11.4796 13.346 11.3734 14.133 11.9898C15.0468 12.6095 15.1421 14.0893 14.3286 14.8281L14.3291 14.8287Z" fill="white"/>
</g>
<defs>
<clipPath id="clip0_1265_20830">
<rect width="24" height="24" fill="white"/>
</clipPath>
</defs>
</svg>