<svg viewBox="0 0 24 24" fill="none" xmlns="http://www.w3.org/2000/svg">
<path fill-rule="evenodd" clip-rule="evenodd" d="M22.4286 7.76303L21.6738 5.75347L22.1982 4.59907C22.2655 4.45046 22.2331 4.27607 22.1165 4.16073L20.6899 2.74538C20.066 2.1269 19.1351 1.91424 18.2966 2.19946L17.8978 2.33506L15.8141 0H12.7487H10.806H8.15216L6.09509 2.36334L5.70723 2.22948C4.86108 1.93751 3.91899 2.15242 3.29101 2.78066L1.83909 4.22253C1.74595 4.31485 1.72043 4.45346 1.77453 4.5718L2.32238 5.76998L1.57141 7.77854L2.05751 9.58945L4.27138 17.8436C4.52629 18.7953 5.1137 19.6287 5.93076 20.1994C5.93076 20.1994 8.61873 22.0584 11.2712 23.7467C11.5045 23.8953 11.7484 24.0039 12.0102 23.9999C12.272 24.0034 12.516 23.8953 12.7487 23.7459C15.7278 21.8312 18.0848 20.1919 18.0848 20.1919C18.9011 19.6202 19.4875 18.7858 19.7414 17.8339L21.9448 9.57644L22.4286 7.76303Z" fill="currentColor"/>
<path fill-rule="evenodd" clip-rule="evenodd" d="M20.0731 8.16163L20.0386 8.26923L19.9836 8.46216C19.8369 8.64133 19.5277 8.98515 19.2962 9.22663L17.1679 11.4447C16.9364 11.6859 16.8058 11.9885 16.9379 12.2933L17.2249 12.9869C17.3568 13.2914 17.3698 13.7954 17.2433 14.1337C17.1148 14.4781 16.8935 14.7823 16.6034 15.0143L16.3813 15.1917C16.1194 15.4012 15.6553 15.4562 15.3499 15.3138L14.3696 14.8579C14.0645 14.716 13.6091 14.4185 13.3576 14.1968L12.4302 13.3795C12.2493 13.2199 12.2391 12.9456 12.4075 12.774L14.6661 11.2801C14.9461 11.0949 15.0944 10.7523 14.9352 10.4603L14.1322 9.02794C13.973 8.73567 13.9094 8.34756 13.9906 8.16513C14.0721 7.98271 14.3972 7.73748 14.7136 7.62012L17.3354 6.66523C17.6515 6.54787 17.6346 6.42675 17.2981 6.39572L15.6228 6.27361C15.286 6.24258 15.0392 6.29063 14.7136 6.37971L13.4456 6.68725C13.1201 6.77633 13.0512 7.1159 13.1123 7.4412L13.6354 10.2218C13.6967 10.5474 13.7266 10.8752 13.7021 10.9505C13.6776 11.0258 13.3878 11.1472 13.0581 11.2205L12.6244 11.3168C12.2948 11.3902 11.7545 11.3934 11.4241 11.3246L10.8994 11.215C10.5687 11.1459 10.2782 11.0278 10.2534 10.9527C10.2289 10.8774 10.2585 10.5491 10.3196 10.2238L10.8394 7.44271C10.9005 7.11715 10.8311 6.77808 10.5055 6.68925L9.23705 6.38321C8.91148 6.29438 8.66441 6.24733 8.32784 6.27836L6.65258 6.40198C6.31601 6.43326 6.2994 6.55437 6.61552 6.67123L9.23884 7.62338C9.55496 7.74049 9.88054 7.98521 9.96206 8.16764C10.0438 8.34981 9.98046 8.73792 9.82176 9.0302L9.02029 10.463C8.86159 10.7553 9.01012 11.0979 9.29046 11.2828L11.5511 12.7745C11.7198 12.9459 11.7098 13.2204 11.5291 13.38L10.6025 14.1985C10.3515 14.4205 9.89638 14.7183 9.59125 14.8609L8.61171 15.3181C8.30658 15.4605 7.84224 15.4062 7.58029 15.1972L7.35821 15.0201C7.06765 14.7883 6.84583 14.4843 6.70655 14.1127C6.59002 13.8017 6.60228 13.2982 6.73364 12.9932L7.02017 12.2995C7.15178 11.9945 7.02063 11.6919 6.78884 11.451L4.65802 9.23539C4.42649 8.99441 4.11676 8.65084 3.97007 8.47217L3.91462 8.27899L3.88012 8.17139C3.87679 8.04752 3.92203 7.65265 3.97339 7.5458C4.02476 7.43945 4.22154 7.12766 4.4109 6.8534L4.86681 6.19253C5.05618 5.91828 5.38354 5.48212 5.59412 5.22312L6.2624 4.40235C6.47297 4.14361 6.65263 3.93291 6.67972 3.93467C6.681 3.93291 6.95367 3.98271 7.28564 4.04502L8.29789 4.23545C8.62986 4.29776 8.99606 4.36632 9.11183 4.38759C9.22734 4.40911 9.58512 4.34305 9.90686 4.24095L10.6349 4.00999C10.9564 3.90764 11.4445 3.77301 11.7193 3.71046L11.9738 3.71421L12.2283 3.71021C12.503 3.77226 12.9912 3.90639 13.3129 4.00823L14.0415 4.23845C14.3632 4.3403 14.721 4.40586 14.8365 4.38434C14.9359 4.36586 15.2198 4.31215 15.5082 4.25757L15.6502 4.23069L16.6622 4.03951C16.9942 3.97671 17.2668 3.92666 17.2863 3.92816C17.2952 3.92666 17.4749 4.13661 17.6859 4.3956L18.3552 5.21562C18.5663 5.47411 18.894 5.90977 19.0838 6.18403L19.5405 6.84414C19.7301 7.11815 20.0263 7.61687 20.0447 7.73023C20.0636 7.84358 20.0761 8.03776 20.0731 8.16163ZM12.1118 14.7807C12.1414 14.7807 12.4215 14.884 12.7338 15.0109L13.0236 15.1285C13.3359 15.2551 13.8383 15.4814 14.1396 15.6312L14.9947 16.0566C15.296 16.2063 15.3177 16.4865 15.0427 16.6792L14.3134 17.1902C14.0384 17.3829 13.606 17.7172 13.3528 17.9339L12.433 18.7201C12.1805 18.9361 11.7714 18.9371 11.5238 18.7229C11.2759 18.5084 10.8657 18.1574 10.6119 17.9429C10.3584 17.7282 9.92501 17.3964 9.64876 17.2057L8.92196 16.7027C8.6457 16.5116 8.66538 16.2301 8.96515 16.0772L9.82483 15.6388C10.1246 15.4856 10.6252 15.2564 10.9375 15.1298L11.2273 15.0117C11.5393 14.8848 11.8192 14.7807 11.8491 14.7807H11.9804H12.1118Z" fill="currentColor"/>
<defs>
<linearGradient id="paint0_linear_4280_17018" x1="1.57141" y1="24.1693" x2="22.4286" y2="24.1693" gradientUnits="userSpaceOnUse">
<stop stop-color="#FF5500"/>
<stop offset="1" stop-color="#FF2000"/>
</linearGradient>
</defs>
</svg>