<svg viewBox="0 0 24 24" fill="none" xmlns="http://www.w3.org/2000/svg">
<path d="M23.9884 6.81206C23.8816 9.15279 22.2498 12.358 19.0938 16.426C15.8307 20.6755 13.07 22.8 10.8116 22.8C9.4131 22.8 8.22869 21.5064 7.26197 18.9182C6.61588 16.5458 5.97052 14.1736 5.32467 11.8012C4.60635 9.21447 3.83618 7.91942 3.01274 7.91942C2.83322 7.91942 2.20489 8.29791 1.12921 9.05199L0 7.59446C1.18441 6.55165 2.35298 5.50909 3.50258 4.46508C5.08227 3.09731 6.26812 2.37803 7.05845 2.30531C8.92638 2.12554 10.076 3.40475 10.5075 6.14317C10.9738 9.09759 11.2964 10.9353 11.4778 11.6546C12.0162 14.1057 12.6085 15.3297 13.2558 15.3297C13.7581 15.3297 14.5127 14.5348 15.5187 12.9451C16.5239 11.3548 17.0622 10.145 17.1349 9.31383C17.278 7.9415 16.7394 7.25366 15.5187 7.25366C14.9442 7.25366 14.3519 7.38614 13.7425 7.64798C14.9219 3.777 17.1755 1.89706 20.5019 2.00434C22.9679 2.07682 24.1305 3.67931 23.9884 6.81206Z" fill="#32B8E8"/>
</svg>