<svg viewBox="0 0 24 24" fill="none" xmlns="http://www.w3.org/2000/svg">
<path fill-rule="evenodd" clip-rule="evenodd" d="M0.0406472 21.3871L7.11971 17.2284L12 8.67547V0.429077C11.8713 0.429077 11.7426 0.514909 11.6449 0.685612L5.86401 10.8169L0.083555 20.9483C-0.0138764 21.1192 -0.0231217 21.2743 0.0406472 21.3871Z" fill="currentColor"/>
<path fill-rule="evenodd" clip-rule="evenodd" d="M12.0001 0.429077V8.67547L16.8802 17.2284L23.9592 21.3871C24.0232 21.2743 24.014 21.1192 23.9166 20.9483L18.1359 10.8169L12.3549 0.685612C12.2573 0.514669 12.1285 0.429077 12.0001 0.429077Z" fill="currentColor"/>
<path fill-rule="evenodd" clip-rule="evenodd" d="M23.9593 21.3872L16.8802 17.2285H7.11977L0.0407104 21.3872C0.104479 21.5004 0.241737 21.5706 0.437073 21.5706H23.5627C23.758 21.5706 23.8953 21.5004 23.9593 21.3872Z" fill="currentColor"/>
<path fill-rule="evenodd" clip-rule="evenodd" d="M7.11981 17.2285H16.8803L12.0002 8.67554L7.11981 17.2285Z" fill="currentColor"/>
</svg>