<svg width="24" height="24" viewBox="0 0 24 24" fill="none" xmlns="http://www.w3.org/2000/svg">
<path fill-rule="evenodd" clip-rule="evenodd" d="M24 12C24 18.6274 18.6274 24 12 24C5.37258 24 0 18.6274 0 12C0 5.37258 5.37258 0 12 0C18.6274 0 24 5.37258 24 12ZM12.43 8.85896C11.2628 9.34442 8.93014 10.3492 5.43189 11.8734C4.86383 12.0993 4.56626 12.3202 4.53917 12.5363C4.49339 12.9015 4.95071 13.0453 5.57347 13.2412C5.65818 13.2678 5.74595 13.2954 5.83594 13.3246C6.44864 13.5238 7.27283 13.7568 7.70129 13.7661C8.08994 13.7745 8.52373 13.6142 9.00264 13.2854C12.2712 11.079 13.9584 9.96384 14.0643 9.9398C14.139 9.92283 14.2426 9.90151 14.3128 9.96387C14.3829 10.0262 14.376 10.1443 14.3686 10.176C14.3233 10.3692 12.5281 12.0381 11.5991 12.9018C11.3095 13.1711 11.1041 13.3621 11.0621 13.4057C10.968 13.5034 10.8721 13.5958 10.78 13.6846C10.2108 14.2334 9.78391 14.6449 10.8036 15.3168C11.2936 15.6397 11.6858 15.9068 12.0769 16.1732C12.5042 16.4641 12.9303 16.7543 13.4816 17.1157C13.6221 17.2078 13.7562 17.3034 13.8869 17.3966C14.3841 17.751 14.8307 18.0695 15.3826 18.0187C15.7032 17.9892 16.0345 17.6876 16.2027 16.7884C16.6002 14.6632 17.3816 10.0585 17.5622 8.161C17.578 7.99476 17.5581 7.782 17.5422 7.6886C17.5262 7.5952 17.4928 7.46213 17.3714 7.36362C17.2276 7.24696 17.0056 7.22236 16.9064 7.22411C16.455 7.23206 15.7626 7.47284 12.43 8.85896Z" fill="url(#paint0_linear_112_5755)"/>
<defs>
<linearGradient id="paint0_linear_112_5755" x1="12" y1="0" x2="12" y2="23.822" gradientUnits="userSpaceOnUse">
<stop stop-color="#2AABEE"/>
<stop offset="1" stop-color="#229ED9"/>
</linearGradient>
</defs>
</svg>
