<svg viewBox="0 0 24 24" fill="none" xmlns="http://www.w3.org/2000/svg">
<path d="M24 14.2894C24.0037 12.6327 22.6798 11.2913 21.0558 11.2913C20.6507 11.2913 20.2644 11.3749 19.9081 11.5231C19.6681 8.83273 17.4402 6.71997 14.721 6.71997C14.0534 6.71997 13.4083 6.84537 12.8345 7.07716C12.6057 7.16076 12.542 7.24436 12.542 7.42676V16.9152C12.542 17.1052 12.6882 17.242 12.8645 17.2648H21.052C22.676 17.2648 24 15.9348 24 14.2894Z" fill="#FF5500"/>
<path d="M12.2757 7.74215C12.2607 7.62815 12.2007 7.52176 12.1069 7.46856C12.0656 7.43816 12.0019 7.41536 11.9494 7.41536C11.8668 7.41536 11.7918 7.44576 11.7393 7.48756C11.6681 7.55215 11.6231 7.64715 11.6156 7.74215V7.77255L11.4918 14.487L11.5555 15.722L11.6193 16.9266C11.6306 17.1052 11.7768 17.2534 11.9531 17.2534C12.1294 17.2534 12.2757 17.1052 12.2757 16.9266L12.4219 14.487L12.2757 7.74215Z" fill="#FF5500"/>
<path d="M5.93717 9.36092C6.04219 9.36092 6.13595 9.44452 6.13595 9.56232L6.33473 14.5022L6.13595 17.0786C6.13595 17.1964 6.04219 17.28 5.93717 17.28C5.8209 17.28 5.73839 17.1964 5.72714 17.0786L5.56211 14.5022L5.72714 9.56232C5.73839 9.44452 5.8209 9.36092 5.93717 9.36092Z" fill="#FF5500"/>
<path d="M5.15706 10.4667C5.15706 10.3603 5.07454 10.2767 4.98078 10.2767C4.87576 10.2767 4.8045 10.3603 4.79325 10.4667L4.60572 14.4794L4.79325 17.0748C4.8045 17.1812 4.87576 17.2648 4.98078 17.2648C5.07454 17.2648 5.15706 17.1812 5.15706 17.0748L5.37459 14.4794L5.15706 10.4667Z" fill="#FF5500"/>
<path d="M4.39569 14.4794L4.17815 12.0095C4.1669 11.9259 4.09564 11.8499 4.01313 11.8499C3.92687 11.8499 3.8556 11.9259 3.8556 12.0095L3.64557 14.4794L3.8556 17.0748C3.8556 17.1698 3.93062 17.242 4.01313 17.242C4.09564 17.242 4.1669 17.1698 4.17815 17.0748L4.39569 14.4794Z" fill="#FF5500"/>
<path d="M0.363807 13.1266C0.352555 13.0734 0.32255 13.0317 0.270042 13.0317C0.217534 13.0317 0.187529 13.0734 0.176277 13.1266L0 14.4794L0.176277 15.8094C0.187529 15.8626 0.217534 15.9044 0.270042 15.9044C0.32255 15.9044 0.352555 15.8626 0.363807 15.8094L0.573839 14.4794L0.363807 13.1266Z" fill="#FF5500"/>
<path d="M1.15518 12.1995C1.20769 12.1995 1.24894 12.2413 1.2602 12.2945L1.53024 14.4794L1.2602 16.6226C1.24894 16.6758 1.20769 16.7176 1.15518 16.7176C1.10267 16.7176 1.06141 16.6758 1.06141 16.6112L0.821377 14.4794L1.06141 12.2945C1.06141 12.2413 1.10267 12.1995 1.15518 12.1995Z" fill="#FF5500"/>
<path d="M2.22035 11.8917C2.22035 11.8195 2.16784 11.7663 2.10408 11.7663C2.04032 11.7663 1.98781 11.8195 1.98031 11.8917L1.76278 14.4794L1.98031 16.9798C1.99156 17.0444 2.04407 17.0976 2.10408 17.0976C2.16784 17.0976 2.22035 17.0444 2.22035 16.9798L2.47914 14.4794L2.22035 11.8917Z" fill="#FF5500"/>
<path d="M3.05297 11.6827C3.12423 11.6827 3.18799 11.7359 3.19924 11.8195L3.43928 14.4794L3.19924 17.0558C3.18799 17.1394 3.12423 17.1926 3.05297 17.1926C2.98171 17.1926 2.91795 17.1394 2.91795 17.0558L2.70042 14.4794L2.91795 11.8195C2.91795 11.7359 2.98171 11.6827 3.05297 11.6827Z" fill="#FF5500"/>
<path d="M11.1055 8.04995C11.188 8.10314 11.2405 8.19814 11.2517 8.30454L11.3755 14.4908L11.2592 16.7176L11.248 16.9722C11.248 17.0596 11.218 17.1318 11.1542 17.185C11.1017 17.2382 11.0267 17.28 10.9442 17.28C10.8504 17.28 10.7679 17.2344 10.7042 17.1622C10.6629 17.109 10.6404 17.0482 10.6404 16.9836V16.9722C10.5241 14.4908 10.5241 14.4794 10.5241 14.4794L10.6292 8.36914L10.6404 8.30454C10.6404 8.19814 10.6929 8.10314 10.7754 8.04995C10.8242 8.01955 10.8804 7.99675 10.9404 7.99675C11.0005 7.99675 11.053 8.01955 11.1055 8.04995Z" fill="#FF5500"/>
<path d="M7.15612 9.13672C7.14862 9.01133 7.05485 8.90493 6.92733 8.90493C6.81106 8.90493 6.7098 9.01133 6.7098 9.13672L6.54477 14.4794L6.7098 17.033C6.72105 17.1584 6.81481 17.2534 6.92733 17.2534C7.0511 17.2534 7.14487 17.1584 7.15612 17.033L7.34365 14.4794L7.15612 9.13672Z" fill="#FF5500"/>
<path d="M9.9278 8.99993C10.0853 8.99993 10.1978 9.12532 10.2091 9.29632L10.3554 14.4908L10.2091 16.9836C10.2091 17.1432 10.0853 17.2686 9.9278 17.2686C9.77027 17.2686 9.6465 17.1432 9.63525 16.9836L9.51148 14.4908L9.63525 9.29632C9.6465 9.12532 9.77027 8.99993 9.9278 8.99993Z" fill="#FF5500"/>
<path d="M8.16877 8.95813C8.15752 8.82133 8.0525 8.70353 7.91748 8.70353C7.79371 8.70353 7.67745 8.82133 7.67745 8.95813L7.53117 14.4794L7.67745 17.0216C7.6887 17.1584 7.79371 17.2648 7.91748 17.2648C8.0525 17.2648 8.15752 17.1584 8.16877 17.0216L8.3338 14.4794L8.16877 8.95813Z" fill="#FF5500"/>
<path d="M8.91889 8.83273C9.06517 8.83273 9.17768 8.94673 9.17768 9.09493L9.33521 14.4794L9.17768 17.0026C9.17768 17.147 9.06142 17.2648 8.91889 17.2648C8.77637 17.2648 8.67136 17.1508 8.6601 17.0026L8.51383 14.4794L8.6601 9.09493C8.6601 8.95053 8.77262 8.83273 8.91889 8.83273Z" fill="#FF5500"/>
</svg>