<svg width="24" height="24" viewBox="0 0 24 24" fill="none" xmlns="http://www.w3.org/2000/svg">
<path fill-rule="evenodd" clip-rule="evenodd" d="M0 11.9998C0 5.37241 5.3727 0 12.0001 0C18.6276 0 24 5.37241 24 11.9998C24 18.6276 18.6276 23.9999 12.0001 23.9999C5.3727 23.9999 0 18.6276 0 11.9998ZM5.1573 9.25059C8.84987 8.12989 15.2302 8.3411 19.0983 10.6383C19.6304 10.9549 20.3198 10.7791 20.6362 10.2458C20.9524 9.71329 20.7774 9.02448 20.244 8.70779C15.7909 6.06443 8.74455 5.81596 4.50574 7.10261C3.91236 7.28287 3.57791 7.9095 3.7576 8.50274C3.93729 9.09569 4.56435 9.43043 5.1573 9.25059ZM17.6849 14.3487C18.1246 14.619 18.7004 14.481 18.9716 14.0407C19.242 13.6013 19.1036 13.0253 18.6638 12.7544C14.96 10.4782 9.54198 9.83767 5.18353 11.1601C4.68973 11.3106 4.41059 11.8322 4.55976 12.327C4.70994 12.8208 5.23253 13.0998 5.72733 12.9503C9.54255 11.7922 14.46 12.3664 17.6849 14.3487ZM16.475 17.5571C16.8272 17.7726 17.2878 17.6617 17.5033 17.3082C17.719 16.9557 17.6079 16.495 17.2553 16.2796C14.0923 14.3469 10.1712 13.8971 5.60008 14.9421C5.19671 15.034 4.94537 15.4351 5.03765 15.8376C5.1295 16.2399 5.53059 16.4923 5.9331 16.4C10.1101 15.4458 13.657 15.8348 16.475 17.5571Z" fill="#1ED760"/>
</svg>
