<svg viewBox="0 0 24 24" fill="none" xmlns="http://www.w3.org/2000/svg">
<rect x="2" y="9" width="20" height="8" fill="white"/>
<path fill-rule="evenodd" clip-rule="evenodd" d="M15.4319 2.85451C17.147 3.15069 18.7873 3.6678 20.317 4.36968C20.3303 4.3754 20.3416 4.38493 20.3482 4.39825C23.0585 8.38475 24.3971 12.8817 23.8967 18.0586C23.8948 18.0805 23.8834 18.1005 23.8654 18.1138C21.8126 19.6214 19.8241 20.5366 17.8631 21.1432C17.8319 21.1528 17.7978 21.1413 17.7789 21.1147C17.3258 20.4842 16.9143 19.8195 16.5538 19.1214C16.533 19.0805 16.552 19.0309 16.5945 19.0148C17.2482 18.7681 17.8697 18.4729 18.4676 18.1234C18.5149 18.0958 18.5177 18.0281 18.4742 17.9957C18.3475 17.9015 18.2216 17.8024 18.1015 17.7034C18.0788 17.6853 18.0485 17.6815 18.023 17.6938C14.1415 19.4871 9.88928 19.4871 5.96153 17.6938C5.93598 17.6824 5.90569 17.6862 5.88396 17.7043C5.76382 17.8034 5.63797 17.9015 5.51216 17.9957C5.46865 18.0281 5.47244 18.0958 5.51973 18.1234C6.1176 18.4662 6.73913 18.7681 7.39186 19.0157C7.43442 19.0319 7.4543 19.0805 7.43348 19.1214C7.08064 19.8204 6.66913 20.4852 6.20748 21.1156C6.18761 21.1413 6.15451 21.1528 6.12328 21.1432C4.17171 20.5366 2.18321 19.6214 0.130398 18.1138C0.11337 18.1005 0.101072 18.0796 0.0991801 18.0577C-0.31895 13.5798 0.533392 9.04566 3.64479 4.3973C3.65233 4.38493 3.66368 4.3754 3.67693 4.36968C5.20756 3.66686 6.84791 3.14974 8.56205 2.85451C8.59328 2.84975 8.62449 2.86404 8.64058 2.89165C8.85248 3.26687 9.09465 3.74781 9.25832 4.14111C11.0652 3.86494 12.9004 3.86494 14.7451 4.14111C14.9087 3.75637 15.1424 3.26687 15.3534 2.89165C15.3695 2.86308 15.4007 2.8488 15.4319 2.85451ZM8.02 15.331C6.83748 15.331 5.86311 14.2454 5.86311 12.9121C5.86311 11.5788 6.81858 10.4932 8.02 10.4932C9.23085 10.4932 10.1958 11.5883 10.1769 12.9121C10.1769 14.2454 9.22139 15.331 8.02 15.331ZM15.9947 15.331C14.8122 15.331 13.8379 14.2454 13.8379 12.9121C13.8379 11.5788 14.7933 10.4932 15.9947 10.4932C17.2056 10.4932 18.1705 11.5883 18.1516 12.9121C18.1516 14.2454 17.2056 15.331 15.9947 15.331Z" fill="#5865F2"/>
</svg>