<svg viewBox="0 0 24 24" fill="none" xmlns="http://www.w3.org/2000/svg">
<path d="M17.1209 8.66347C18.6706 9.77064 20.569 10.4221 22.6193 10.4221V6.47861C22.2313 6.47869 21.8443 6.43825 21.4646 6.35786V9.46193C19.4144 9.46193 17.5163 8.81049 15.9662 7.7034V15.7509C15.9662 19.7766 12.7011 23.0399 8.6735 23.0399C7.17072 23.0399 5.77395 22.5858 4.61365 21.807C5.93794 23.1604 7.78476 24 9.82795 24C13.8558 24 17.1211 20.7367 17.1211 16.7108V8.66347H17.1209ZM18.5454 4.68499C17.7534 3.82023 17.2335 2.70267 17.1209 1.46717V0.959961H16.0267C16.3021 2.53028 17.2416 3.87187 18.5454 4.68499ZM7.16108 18.7178C6.71861 18.1379 6.4795 17.4286 6.48057 16.6992C6.48057 14.858 7.97404 13.3651 9.81659 13.3651C10.16 13.365 10.5013 13.4176 10.8285 13.5214V9.48977C10.4461 9.43739 10.0601 9.41515 9.67434 9.4233V12.5613C9.34685 12.4575 9.00536 12.4048 8.66189 12.4051C6.81934 12.4051 5.32595 13.8979 5.32595 15.7393C5.32595 17.0414 6.07244 18.1687 7.16108 18.7178Z" fill="#EE1D52"/>
<path d="M15.9663 7.70332C17.5163 8.81041 19.4145 9.46185 21.4647 9.46185V6.35778C20.3203 6.11414 19.3071 5.5164 18.5454 4.68499C17.2416 3.87179 16.3022 2.5302 16.0267 0.959961H13.1525V16.7106C13.146 18.5468 11.655 20.0336 9.81645 20.0336C8.733 20.0336 7.77046 19.5174 7.16087 18.7178C6.07231 18.1687 5.32582 17.0413 5.32582 15.7394C5.32582 13.8981 6.81921 12.4052 8.66175 12.4052C9.01478 12.4052 9.35503 12.4602 9.6742 12.5614V9.42338C5.71739 9.50509 2.53516 12.7365 2.53516 16.7107C2.53516 18.6946 3.32761 20.493 4.61376 21.8071C5.77406 22.5858 7.17083 23.04 8.67361 23.04C12.7013 23.04 15.9664 19.7765 15.9664 15.7509V7.70332H15.9663Z" fill="#010101"/>
<path d="M21.4647 6.3578V5.51848C20.4327 5.52005 19.421 5.23119 18.5454 4.68493C19.3205 5.53306 20.3411 6.11787 21.4647 6.3578ZM16.0267 0.959984C16.0005 0.809911 15.9803 0.658851 15.9663 0.507214V0H11.9977V15.7508C11.9914 17.5868 10.5005 19.0736 8.66177 19.0736C8.12194 19.0736 7.61225 18.9455 7.16088 18.7179C7.77048 19.5174 8.73301 20.0336 9.81647 20.0336C11.6549 20.0336 13.1461 18.5469 13.1525 16.7107V0.959984H16.0267ZM9.67438 9.42341V8.52989C9.34277 8.48459 9.00845 8.46186 8.67371 8.46202C4.64573 8.46202 1.38055 11.7254 1.38055 15.7508C1.38055 18.2745 2.66383 20.4987 4.61386 21.807C3.3277 20.493 2.53525 18.6944 2.53525 16.7106C2.53525 12.7365 5.71741 9.50511 9.67438 9.42341Z" fill="#69C9D0"/>
</svg>