<svg viewBox="0 0 24 24" fill="none" xmlns="http://www.w3.org/2000/svg">
<path d="M24 4.31793C23.1628 4.7432 22.186 5.02671 21.2093 5.16847C22.2558 4.53056 23.0233 3.53826 23.4419 2.33332C22.4651 2.90035 21.4186 3.32562 20.3023 3.53826C18.7428 1.91556 16.3163 1.53312 14.3461 2.59951C12.376 3.66591 11.3349 5.92525 11.7907 8.14538C7.88372 7.93274 4.11628 6.08989 1.67442 2.90035C1.00332 3.98931 0.787951 5.3054 1.07614 6.55638C1.36433 7.80735 2.13223 8.88966 3.2093 9.56295C2.44186 9.56295 1.67442 9.42119 0.976744 9.0668C1.04651 11.4058 2.65116 13.4613 4.88372 13.9574C4.18605 14.1701 3.4186 14.1701 2.65116 14.0283C3.34884 16.0838 5.23256 17.5014 7.32558 17.5722C5.30233 19.2733 2.5814 20.053 0 19.6277C4.40067 22.611 10.0877 22.7942 14.6656 20.1C19.2434 17.4059 21.9162 12.3028 21.5581 6.94044C22.5349 6.23165 23.3721 5.38111 24 4.31793Z" fill="#1DA1F3"/>
</svg>