<svg width="24" height="24" viewBox="0 0 24 24" fill="none" xmlns="http://www.w3.org/2000/svg">
<path d="M9.12 0.350591L9.39 1.44176C8.32787 1.70294 7.31137 2.12329 6.375 2.68853L5.7975 1.72486C6.82938 1.10191 7.94954 0.638578 9.12 0.350591ZM14.88 0.350591L14.61 1.44176C15.6721 1.70294 16.6886 2.12329 17.625 2.68853L18.2063 1.72486C17.1732 1.10156 16.0518 0.63822 14.88 0.350591ZM1.72499 5.79704C1.10199 6.82884 0.638628 7.94892 0.350618 9.11929L1.44187 9.38927C1.70308 8.32722 2.12346 7.3108 2.68874 6.3745L1.72499 5.79704ZM1.12499 11.9991C1.12463 11.4537 1.16537 10.9091 1.24687 10.3698L0.134993 10.2011C-0.0449977 11.393 -0.0449977 12.6051 0.134993 13.797L1.24687 13.6283C1.16537 13.0891 1.12463 12.5444 1.12499 11.9991ZM18.2025 22.2733L17.625 21.3096C16.6898 21.8745 15.6746 22.2948 14.6138 22.5564L14.8838 23.6475C16.0529 23.3592 17.1718 22.8959 18.2025 22.2733ZM22.875 11.9991C22.8754 12.5444 22.8346 13.0891 22.7531 13.6283L23.865 13.797C24.045 12.6051 24.045 11.393 23.865 10.2011L22.7531 10.3698C22.8346 10.9091 22.8754 11.4537 22.875 11.9991ZM23.6494 14.8788L22.5581 14.6089C22.2969 15.6709 21.8765 16.6873 21.3113 17.6236L22.275 18.2048C22.8984 17.1719 23.3617 16.0505 23.6494 14.8788ZM13.6294 22.7532C12.5492 22.9157 11.4508 22.9157 10.3706 22.7532L10.2019 23.865C11.3939 24.045 12.6061 24.045 13.7981 23.865L13.6294 22.7532ZM20.7544 18.4504C20.1058 19.3288 19.329 20.1049 18.45 20.7528L19.1175 21.6583C20.0871 20.9454 20.9442 20.091 21.66 19.1235L20.7544 18.4504ZM18.45 3.24537C19.3291 3.89379 20.1059 4.67051 20.7544 5.54956L21.66 4.87461C20.9465 3.90771 20.092 3.05327 19.125 2.33981L18.45 3.24537ZM3.24562 5.54956C3.89409 4.67051 4.67088 3.89379 5.55 3.24537L4.875 2.33981C3.90801 3.05327 3.05351 3.90771 2.33999 4.87461L3.24562 5.54956ZM22.275 5.79704L21.3113 6.3745C21.8762 7.30964 22.2966 8.32477 22.5581 9.38552L23.6494 9.11554C23.361 7.94647 22.8977 6.82768 22.275 5.79704ZM10.3706 1.24677C11.4508 1.08427 12.5492 1.08427 13.6294 1.24677L13.7981 0.134983C12.6061 -0.0449942 11.3939 -0.0449942 10.2019 0.134983L10.3706 1.24677ZM3.82312 21.9564L1.49999 22.4982L2.04187 20.1753L0.946869 19.9184L0.404993 22.2414C0.316257 22.6203 0.429672 23.0181 0.704865 23.2933C0.980059 23.5685 1.37794 23.6819 1.75687 23.5932L4.07812 23.0607L3.82312 21.9564ZM1.18124 18.9154L2.27624 19.1704L2.65124 17.5599C2.10465 16.6413 1.69711 15.6468 1.44187 14.6089L0.350618 14.8788C0.595251 15.873 0.967067 16.8314 1.45687 17.7305L1.18124 18.9154ZM6.43125 21.3527L4.82062 21.7277L5.07562 22.8226L6.26062 22.547C7.15974 23.0368 8.11827 23.4085 9.1125 23.6532L9.3825 22.562C8.34663 22.3037 7.35464 21.8937 6.43875 21.3452L6.43125 21.3527ZM12 2.24982C8.45217 2.25166 5.18536 4.18037 3.47016 7.2858C1.75497 10.3912 1.86214 14.1832 3.74999 17.1868L2.81249 21.1859L6.81187 20.2484C10.3198 22.4577 14.8413 22.2072 18.0837 19.624C21.3261 17.0408 22.5803 12.6898 21.2103 8.77732C19.8403 4.8648 16.1457 2.24641 12 2.24982Z" fill="#3A76F0"/>
</svg>
