<svg viewBox="0 0 24 24" fill="none" xmlns="http://www.w3.org/2000/svg">
<circle cx="12" cy="12" r="12" fill="#EA4C89"/>
<path fill-rule="evenodd" clip-rule="evenodd" d="M12 0C5.37528 0 0 5.37528 0 12C0 18.6247 5.37528 24 12 24C18.6117 24 24 18.6247 24 12C24 5.37528 18.6117 0 12 0ZM19.9262 5.5314C21.3579 7.27543 22.2169 9.50104 22.243 11.9088C21.9046 11.8438 18.5206 11.154 15.1106 11.5835C15.0325 11.4143 14.9675 11.232 14.8894 11.0498C14.6811 10.5553 14.4468 10.0477 14.2126 9.56611C17.987 8.03032 19.705 5.81774 19.9262 5.5314ZM12 1.77012C14.603 1.77012 16.9848 2.74625 18.7939 4.34712C18.6117 4.60743 17.0629 6.67685 13.4186 8.04344C11.7397 4.95884 9.87848 2.43389 9.59216 2.04344C10.36 1.86122 11.167 1.77012 12 1.77012ZM7.63996 2.73325C7.91327 3.09767 9.7354 5.63564 11.4404 8.65516C6.6508 9.93064 2.42087 9.90462 1.96533 9.90462C2.6291 6.72892 4.77662 4.08683 7.63996 2.73325ZM1.74402 12.013C1.74402 11.9089 1.74402 11.8047 1.74402 11.7006C2.18654 11.7136 7.15834 11.7787 12.2733 10.2429C12.5726 10.8156 12.846 11.4013 13.1063 11.987C12.9761 12.026 12.833 12.065 12.7028 12.1041C7.41865 13.8091 4.60736 18.4685 4.3731 18.859C2.74618 17.0498 1.74402 14.642 1.74402 12.013ZM12 22.256C9.63122 22.256 7.44465 21.449 5.71362 20.0955C5.89585 19.718 7.97829 15.7094 13.757 13.692C13.783 13.679 13.7961 13.679 13.8221 13.666C15.2668 17.4013 15.8525 20.538 16.0086 21.436C14.7722 21.9697 13.4186 22.256 12 22.256ZM17.7136 20.4989C17.6095 19.8742 17.0629 16.8807 15.7223 13.1974C18.937 12.6898 21.7483 13.5228 22.0997 13.6399C21.6572 16.4903 20.0173 18.9501 17.7136 20.4989Z" fill="#C32361"/>
</svg>