<svg width="24" height="24" viewBox="0 0 24 24" fill="none" xmlns="http://www.w3.org/2000/svg">
<path fill-rule="evenodd" clip-rule="evenodd" d="M7.01345 20.4075L6.65221 20.1933L2.90979 21.1745L3.90895 17.527L3.6736 17.1531C2.68374 15.5792 2.1612 13.7604 2.16194 11.8927C2.16411 6.44263 6.59957 2.00871 12.0537 2.00871C14.6949 2.00979 17.1772 3.0393 19.0442 4.90752C20.9112 6.7758 21.9385 9.25942 21.9377 11.9008C21.9354 17.351 17.4998 21.7855 12.05 21.7855H12.0461C10.2716 21.7846 8.53133 21.3082 7.01345 20.4075ZM1.74127 17.8375L0.0535278 24L6.36006 22.3464C8.0976 23.294 10.054 23.7933 12.0449 23.7941H12.05C18.6064 23.7941 23.9436 18.4584 23.9464 11.9015C23.9475 8.72364 22.7111 5.73562 20.4652 3.48769C18.219 1.23993 15.2322 0.00136895 12.05 0C5.49249 0 0.156028 5.33475 0.153404 11.8919C0.152606 13.9879 0.7003 16.034 1.74127 17.8375ZM8.40778 6.41117C8.61963 6.41984 8.854 6.42976 9.07668 6.92475C9.22887 7.26314 9.48493 7.894 9.68899 8.39674C9.83936 8.7672 9.96149 9.0681 9.99303 9.13116C10.0673 9.27981 10.1169 9.45338 10.0178 9.65188C10.003 9.68154 9.98923 9.70954 9.97613 9.73629C9.90166 9.88829 9.84694 9.99996 9.72083 10.1476C9.67141 10.2053 9.62032 10.2674 9.56922 10.3296C9.46661 10.4544 9.36399 10.5792 9.2749 10.6681C9.1258 10.8163 8.97093 10.9773 9.14433 11.2746C9.31779 11.5722 9.91437 12.5452 10.798 13.333C11.7473 14.1794 12.572 14.5374 12.9907 14.7192C13.073 14.7549 13.1396 14.7838 13.1884 14.8083C13.4857 14.9569 13.6591 14.9322 13.8325 14.7335C14.0059 14.5353 14.5752 13.8659 14.7735 13.5686C14.9716 13.271 15.1698 13.3206 15.4423 13.4197C15.7148 13.5188 17.1762 14.238 17.4735 14.3866C17.5314 14.4156 17.5856 14.4418 17.6359 14.466C17.8433 14.5661 17.9834 14.6337 18.0433 14.7335C18.1176 14.8578 18.1176 15.4527 17.8699 16.1467C17.6221 16.8408 16.4085 17.5102 15.8635 17.5597C15.811 17.5645 15.7589 17.5706 15.7053 17.5769C15.2016 17.6362 14.5659 17.7109 12.2965 16.8161C9.50416 15.7149 7.66299 12.986 7.28261 12.4222C7.25142 12.376 7.23005 12.3443 7.21879 12.3293L7.21548 12.3249C7.05519 12.1107 6.00504 10.7072 6.00504 9.25505C6.00504 7.88616 6.67792 7.1686 6.98751 6.83845C7.00867 6.81589 7.02813 6.79514 7.04556 6.77611C7.31787 6.47865 7.63997 6.40421 7.83813 6.40421C7.84899 6.40421 7.85986 6.40421 7.87072 6.40421C8.05786 6.40418 8.24405 6.40416 8.40778 6.41117Z" fill="url(#paint0_linear_2495_18371)"/>
<defs>
<linearGradient id="paint0_linear_2495_18371" x1="0.0535278" y1="12.0013" x2="23.9464" y2="12.0013" gradientUnits="userSpaceOnUse">
<stop stop-color="#20B038"/>
<stop offset="1" stop-color="#60D66A"/>
</linearGradient>
</defs>
</svg>
