<svg viewBox="0 0 24 24" fill="none" xmlns="http://www.w3.org/2000/svg">
<path fill-rule="evenodd" clip-rule="evenodd" d="M5.22897 10.6076C5.22896 10.6076 5.22897 10.6076 5.22897 10.6076C5.05364 10.6076 4.95369 10.7902 5.02127 10.9317C5.03227 10.9548 5.04772 10.9767 5.06801 10.9966L7.27584 13.2018C7.36168 13.2876 7.47704 13.3359 7.59776 13.3359H18.771C18.924 13.3359 19.0196 13.197 18.9966 13.0675C18.989 13.0244 18.9682 12.9824 18.932 12.9469L16.7242 10.7418C16.6383 10.6559 16.523 10.6076 16.4022 10.6076H5.22897ZM16.4022 9.24223C16.523 9.24223 16.6383 9.19394 16.7242 9.1081L18.932 6.90295C19.0769 6.76077 18.9749 6.51396 18.771 6.51396H7.59775C7.47703 6.51396 7.36167 6.56225 7.27583 6.6481L5.068 8.85324C5.04771 8.87316 5.03227 8.89512 5.02126 8.91817C4.95369 9.05971 5.05363 9.24223 5.22896 9.24223H16.4022ZM3.52974 9.92494C3.15548 9.22822 3.19747 8.31335 3.86999 7.6471L6.07375 5.44602C6.07389 5.44587 6.0736 5.44617 6.07375 5.44602C6.07384 5.44592 6.07438 5.44538 6.07448 5.44529C6.47467 5.04547 7.02033 4.81396 7.59775 4.81396H18.771C20.4694 4.81396 21.3679 6.88266 20.13 8.10906L18.312 9.92493L20.1299 11.7407C20.8112 12.4156 20.8455 13.3455 20.4556 14.0455C20.8454 14.7453 20.8112 15.675 20.1304 16.3498L17.9262 18.554C17.526 18.9542 16.98 19.186 16.4022 19.186H5.22897C3.53075 19.186 2.63231 17.1178 3.86953 15.8914L5.71518 14.0457L3.87 12.2028C3.19748 11.5365 3.15549 10.6217 3.52974 9.92494ZM5.06801 17.097C4.92314 17.2392 5.02508 17.486 5.22897 17.486H16.4022C16.523 17.486 16.6383 17.4377 16.7242 17.3519L18.932 15.1441C18.9682 15.1086 18.989 15.0665 18.9966 15.0235C19.0196 14.894 18.924 14.7551 18.771 14.7551H7.59776C7.47704 14.7551 7.36168 14.8034 7.27584 14.8892L5.06801 17.097Z" fill="currentColor"/>
</svg>