<svg width="24" height="24" viewBox="0 0 24 24" fill="none" xmlns="http://www.w3.org/2000/svg">
<path fill-rule="evenodd" clip-rule="evenodd" d="M20.6011 3.39898C20.2691 3.06704 19.7309 3.06704 19.399 3.39898L3.39899 19.399C3.06705 19.7309 3.06705 20.2691 3.39899 20.6011C3.73094 20.933 4.26913 20.933 4.60108 20.6011L20.6011 4.60107C20.933 4.26912 20.933 3.73093 20.6011 3.39898Z" fill="#6B7084"/>
<path fill-rule="evenodd" clip-rule="evenodd" d="M5.02127 10.9317C4.95369 10.7902 5.05364 10.6076 5.22897 10.6076H14.5838L15.9492 9.24223H5.22896C5.05363 9.24223 4.95369 9.05971 5.02126 8.91817C5.03227 8.89512 5.04771 8.87316 5.068 8.85324L7.27583 6.6481C7.36167 6.56225 7.47703 6.51396 7.59775 6.51396H18.6775L19.399 5.79248C19.6515 5.54001 20.0232 5.47956 20.3328 5.61112C19.9944 5.14055 19.4459 4.81396 18.771 4.81396H7.59775C7.02033 4.81396 6.47467 5.04547 6.07448 5.44529L6.07375 5.44602L3.86999 7.6471C3.19747 8.31335 3.15548 9.22822 3.52974 9.92494C3.15549 10.6217 3.19748 11.5365 3.87 12.2028L5.71518 14.0457L3.86953 15.8914C2.63231 17.1178 3.53075 19.186 5.22897 19.186H6.00544L7.70544 17.486H5.22897C5.02508 17.486 4.92314 17.2392 5.06801 17.097L7.27584 14.8892C7.36168 14.8034 7.47704 14.7551 7.59776 14.7551H10.4364L11.8556 13.3359H7.59776C7.47704 13.3359 7.36168 13.2876 7.27584 13.2018L5.06801 10.9966C5.04772 10.9767 5.03227 10.9548 5.02127 10.9317ZM14.2597 13.3359L12.8406 14.7551H18.771C18.924 14.7551 19.0196 14.894 18.9966 15.0235C18.989 15.0665 18.9682 15.1086 18.932 15.1441L16.7242 17.3519C16.6383 17.4377 16.523 17.486 16.4022 17.486H10.1096L8.40961 19.186H16.4022C16.98 19.186 17.526 18.9542 17.9262 18.554L20.1304 16.3498C20.8112 15.675 20.8454 14.7453 20.4556 14.0455C20.8455 13.3455 20.8112 12.4156 20.1299 11.7407L18.312 9.92493L20.13 8.10906C20.4969 7.74557 20.6761 7.30808 20.7025 6.87239C20.6731 6.91542 20.6393 6.95636 20.6011 6.99456L16.7891 10.8066L18.932 12.9469C18.9682 12.9824 18.989 13.0244 18.9966 13.0675C19.0196 13.197 18.924 13.3359 18.771 13.3359H14.2597Z" fill="#6B7084"/>
</svg>
