<svg width="24" height="24" viewBox="0 0 24 24" fill="none" xmlns="http://www.w3.org/2000/svg">
<path fill-rule="evenodd" clip-rule="evenodd" d="M12 22C6.48583 22 2 17.5142 2 12C2 6.48583 6.48583 2 12 2C17.5142 2 22 6.48583 22 12C22 17.5142 17.5142 22 12 22ZM19.9492 14.5H16.3042C15.8675 15.2492 15.2483 15.8675 14.5 16.305V19.9492C17.0875 19.1333 19.1333 17.0875 19.9492 14.5ZM12 8.66833C10.1617 8.66833 8.66667 10.1625 8.66667 12C8.66667 13.8383 10.1617 15.3333 12 15.3333C13.8383 15.3333 15.3333 13.8383 15.3333 12C15.3333 10.1625 13.8383 8.66833 12 8.66833ZM12 20.3333C12.2817 20.3333 12.5592 20.3183 12.8333 20.2908V16.9158C12.5608 16.9617 12.285 17 12 17C11.715 17 11.4392 16.9617 11.1667 16.9158V20.2908C11.4408 20.3183 11.7183 20.3333 12 20.3333ZM9.5 19.9492V16.3042C8.75083 15.8675 8.1325 15.2492 7.69583 14.5H4.05083C4.86667 17.0875 6.9125 19.1333 9.5 19.9492ZM3.66667 12C3.66667 12.2808 3.68167 12.5592 3.70917 12.8333H7.08417C7.03833 12.5608 7 12.285 7 12C7 11.715 7.03833 11.4392 7.08417 11.1667H3.70917C3.68167 11.4408 3.66667 11.7192 3.66667 12ZM4.05083 9.5H7.69583C8.1325 8.75167 8.75167 8.13333 9.5 7.69667V4.05083C6.9125 4.86667 4.86667 6.9125 4.05083 9.5ZM12 3.66667C11.7183 3.66667 11.4408 3.68167 11.1667 3.70917V7.08583C11.4392 7.04 11.715 7.00167 12 7.00167C12.285 7.00167 12.5608 7.04 12.8333 7.08583V3.70917C12.5592 3.68167 12.2817 3.66667 12 3.66667ZM14.5 4.05083V7.69667C15.2483 8.13333 15.8675 8.75167 16.3042 9.5H19.9492C19.1333 6.9125 17.0875 4.86667 14.5 4.05083ZM16.9158 11.1667C16.9617 11.4392 17 11.715 17 12C17 12.285 16.9617 12.5608 16.9158 12.8333H20.2908C20.3183 12.5592 20.3333 12.2808 20.3333 12C20.3333 11.7192 20.3183 11.4408 20.2908 11.1667H16.9158Z" fill="#6B7084"/>
</svg>
