<svg viewBox="0 0 24 24" fill="none" xmlns="http://www.w3.org/2000/svg">
<g clip-path="url(#clip0_1265_20826)">
<path d="M12 24C18.6274 24 24 18.6274 24 12C24 5.37258 18.6274 0 12 0C5.37258 0 0 5.37258 0 12C0 18.6274 5.37258 24 12 24Z" fill="#FF3B81"/>
<path d="M7.54405 15.629V15.7123H6.67123V14.1363L6.64405 14.2237L5.81024 13.972L6.28122 12.4533L6.22331 12.5384L5.5 12.058L6.40413 10.7378L6.31786 10.8064L5.76828 10.1386L7.06894 9.10092L6.90347 9.16415L6.59028 8.36166L8.14385 7.77427L7.96184 7.78609L7.90156 6.92923L9.52782 6.81695L9.38068 6.78386L9.57687 5.9465L11.131 6.29988L11.0329 6.24434L11.4685 5.49976L12.8235 6.27034L12.7703 6.21479L13.4085 5.62858L14.4639 6.74309L14.4415 6.69817L15.2256 6.32116L15.9028 7.68858L15.8969 7.65017L16.7579 7.51544L17.012 9.09501L17.0298 8.98273L17.8919 9.11687L17.6343 10.7195L17.6975 10.5907L18.4817 10.9677L17.756 12.4338L17.8624 12.3215L18.5 12.9083L17.3719 14.0996L17.5084 14.0222L17.9445 14.7668L16.5269 15.5728L16.6693 15.5403L16.8661 16.3777L15.2989 16.734L15.42 16.7423L15.3592 17.5998L13.7908 17.4916L13.8706 17.5218L13.5574 18.3242L12.0564 17.7569L12.1516 17.8326L11.6026 18.5003L10.3634 17.5117L10.4249 17.6009L9.70155 18.082L8.81515 16.7878L8.84174 16.8729L8.00734 17.1246L7.54405 15.629ZM7.54405 14.6079L8.08889 14.4436L8.512 15.8086L8.98357 15.4954L9.78842 16.6714L10.1483 16.2341L11.264 17.1241L11.4637 16.6117L12.8087 17.1199L12.8477 16.565L14.2872 16.6643L14.1572 16.1118L15.5684 15.7909L15.2759 15.2922L16.5351 14.5759L16.1038 14.18L17.0983 13.1293L16.5676 12.874L17.2076 11.5823L16.6273 11.4913L16.8554 10.073L16.2999 10.1593L16.0724 8.74104L15.5725 8.98096L14.9372 7.69863L14.5295 8.07269L13.5474 7.03442L13.2661 7.51426L12.0222 6.80691L11.8933 7.35529L10.494 7.03678L10.5348 7.6094L9.09821 7.70808L9.31035 8.25352L7.95711 8.76527L8.32172 9.20788L7.18594 10.1138L7.66519 10.4323L6.84733 11.6278L7.39868 11.7944L6.97143 13.1719H7.54464L7.54405 14.6079ZM11.8283 12.9976C11.8283 12.7801 11.7515 12.614 11.5985 12.4988C11.4448 12.3812 11.17 12.2583 10.7717 12.1306C10.3734 12.0006 10.0585 11.8724 9.82624 11.7465C9.19394 11.4038 8.8772 10.9429 8.8772 10.362C8.8772 10.06 8.96111 9.79113 9.12953 9.55594C9.3009 9.31779 9.54437 9.13224 9.86052 8.99928C10.1796 8.86632 10.5371 8.80013 10.9325 8.80013C11.3308 8.80013 11.6853 8.87282 11.9962 9.01878C12.3076 9.16179 12.5487 9.36507 12.7201 9.62863C12.8945 9.89535 12.985 10.2082 12.9801 10.5268H11.8319C11.8319 10.271 11.7515 10.0724 11.5908 9.93178C11.43 9.78877 11.2043 9.71727 10.9136 9.71727C10.6329 9.71727 10.4142 9.77695 10.2588 9.8975C10.1847 9.95053 10.1246 10.0209 10.0839 10.1025C10.0432 10.1841 10.0231 10.2744 10.0254 10.3655C10.0254 10.5469 10.1158 10.6994 10.2972 10.8223C10.4804 10.9446 10.7499 11.0599 11.1044 11.1674C11.758 11.3642 12.2337 11.6089 12.5321 11.9002C12.8312 12.1921 12.9801 12.5555 12.9801 12.9899C12.9801 13.4738 12.7975 13.8532 12.4329 14.1298C12.0677 14.4034 11.5766 14.5405 10.9591 14.5405C10.5565 14.5458 10.1574 14.4661 9.78783 14.3065C9.43622 14.1475 9.16676 13.9312 8.98061 13.6576C8.79683 13.384 8.70465 13.0667 8.70465 12.7062H9.85697C9.85697 13.3226 10.2245 13.631 10.9591 13.631C11.2321 13.631 11.4454 13.5761 11.5985 13.4656C11.6726 13.4128 11.7324 13.3423 11.7726 13.2606C11.8127 13.1789 11.8319 13.0885 11.8283 12.9976ZM15.3326 9.5713L14.2258 13.6204L13.3139 13.5566L14.0036 9.3822L15.3326 9.5713ZM14.367 14.0423L14.0792 15.473L12.8666 15.119L13.1449 13.7469L14.367 14.0423Z" fill="white"/>
</g>
<defs>
<clipPath id="clip0_1265_20826">
<rect width="24" height="24" fill="white"/>
</clipPath>
</defs>
</svg>