<svg width="24" height="24" viewBox="0 0 24 24" fill="none" xmlns="http://www.w3.org/2000/svg">
<path fill-rule="evenodd" clip-rule="evenodd" d="M12 18.8333H10.8033C9.17333 21.2033 5.51917 21.3292 5.355 21.3333C5.34833 21.3333 5.34083 21.3333 5.33333 21.3333C5.01833 21.3333 4.72917 21.155 4.5875 20.8717C4.44417 20.5817 4.48083 20.2342 4.68167 19.98C4.695 19.9633 5.87917 18.4567 6.11417 16.88C4.03833 15.8408 2 13.6458 2 10.8842C2 6.53667 6.48583 3 12 3C17.5142 3 22 6.53667 22 10.8842C22 15.2675 17.5142 18.8333 12 18.8333ZM12 4.66667C7.405 4.66667 3.66667 7.45583 3.66667 10.8842C3.66667 13.0208 5.49167 14.8658 7.295 15.585C7.6125 15.7117 7.82 16.0183 7.82 16.3592C7.82 17.465 7.42667 18.5467 7.00333 19.3892C7.96583 19.125 9.07917 18.6117 9.5925 17.6175C9.73583 17.3408 10.0217 17.1667 10.3333 17.1667H12C16.595 17.1667 20.3333 14.3483 20.3333 10.8842C20.3333 7.45583 16.595 4.66667 12 4.66667ZM14.9792 14.5242C14.8334 14.6258 14.6659 14.6758 14.5009 14.6758C14.2384 14.6758 13.9809 14.5525 13.8184 14.3217C13.5584 13.9525 13.6409 13.4458 13.9984 13.1767C14.035 13.145 14.3267 12.8692 14.4642 12.1758H13.7025C13.2417 12.1758 12.8692 11.8025 12.8692 11.3417V9.67583C12.8692 9.215 13.2417 8.8425 13.7025 8.8425H15.3692C15.83 8.8425 16.2025 9.215 16.2025 9.67583V11.3417C16.2025 11.3517 16.1975 11.36 16.1967 11.37C16.1975 11.3792 16.2025 11.3875 16.2025 11.3975C16.2025 13.6 15.105 14.4358 14.9792 14.5242ZM9.97917 14.5242C9.83333 14.6258 9.66583 14.6758 9.50083 14.6758C9.23833 14.6758 8.98083 14.5525 8.81833 14.3217C8.55833 13.9525 8.64083 13.4458 8.99833 13.1767C9.035 13.145 9.32667 12.8692 9.46417 12.1758H8.66667C8.20583 12.1758 7.83333 11.8025 7.83333 11.3417V9.67583C7.83333 9.215 8.20583 8.8425 8.66667 8.8425H10.3333C10.7942 8.8425 11.1667 9.215 11.1667 9.67583V11.22C11.18 11.2792 11.2025 11.335 11.2025 11.3975C11.2025 13.6 10.105 14.4358 9.97917 14.5242Z" fill="#6B7084"/>
</svg>
