<svg viewBox="0 0 24 24" fill="none" xmlns="http://www.w3.org/2000/svg">
<path fill-rule="evenodd" clip-rule="evenodd" d="M12 18.8333H10.8033C9.17333 21.2042 5.51917 21.3292 5.355 21.3333C5.34833 21.3333 5.34083 21.3333 5.33333 21.3333C5.01833 21.3333 4.72917 21.155 4.5875 20.8717C4.44333 20.5817 4.48083 20.2342 4.68167 19.98C4.695 19.9633 5.87917 18.4575 6.11417 16.88C4.03833 15.8417 2 13.6458 2 10.8842C2 6.53667 6.48583 3 12 3C17.5142 3 22 6.53667 22 10.8842C22 15.2675 17.5142 18.8333 12 18.8333ZM12 4.66667C7.405 4.66667 3.66667 7.45583 3.66667 10.8842C3.66667 13.0208 5.4925 14.8667 7.29583 15.5858C7.6125 15.7117 7.82 16.0192 7.82 16.36C7.82 17.4658 7.42667 18.5467 7.00333 19.3892C7.96667 19.125 9.08 18.6117 9.5925 17.6175C9.73583 17.3408 10.0217 17.1667 10.3333 17.1667H12C16.595 17.1667 20.3333 14.3483 20.3333 10.8842C20.3333 7.45583 16.595 4.66667 12 4.66667ZM16.0675 12.1667C16.0625 12.1717 16.06 12.1783 16.055 12.1833L12.5533 15.29C12.5083 15.33 12.455 15.3508 12.405 15.3792C12.3733 15.3967 12.3467 15.4208 12.3133 15.4342C12.2125 15.4758 12.1075 15.5 12.0008 15.5C12 15.5 12 15.5 12 15.5C11.8925 15.5 11.7875 15.4758 11.6867 15.4342C11.6533 15.4208 11.6267 15.3967 11.595 15.3792C11.545 15.3508 11.4917 15.33 11.4467 15.29L7.945 12.1833C7.94 12.1783 7.9375 12.1717 7.9325 12.1667C7.92667 12.1608 7.91833 12.1592 7.9125 12.1533C7.34167 11.5883 7 10.805 7 10.0558C7 8.4625 8.30833 7.16667 9.91667 7.16667C10.725 7.16667 11.4608 7.49333 12 8.01833C12.5392 7.49333 13.275 7.16667 14.0833 7.16667C15.6917 7.16667 17 8.4625 17 10.0558C17 10.805 16.6583 11.5883 16.0875 12.1533C16.0817 12.1592 16.0733 12.1608 16.0675 12.1667ZM14.0833 8.83333C13.4708 8.83333 12.9275 9.25917 12.8183 9.825C12.8175 9.8275 12.8158 9.82917 12.815 9.83167C12.8008 9.9025 12.7667 9.96417 12.735 10.0283C12.67 10.1608 12.5833 10.2783 12.4642 10.3583C12.4583 10.3625 12.45 10.3633 12.4442 10.3675C12.3592 10.4208 12.265 10.4617 12.1642 10.4817C12.1617 10.4825 12.16 10.4842 12.1575 10.485C12.1042 10.495 12.0542 10.4833 12.0017 10.4833C11.9483 10.4833 11.8967 10.495 11.8425 10.485C11.84 10.4842 11.8375 10.4825 11.8358 10.4817C11.7417 10.4633 11.6558 10.4233 11.575 10.375C11.5625 10.3675 11.5467 10.3658 11.535 10.3583C11.4533 10.3033 11.3842 10.2308 11.3258 10.1492C11.3217 10.1433 11.3142 10.14 11.31 10.1333C11.2892 10.1025 11.2825 10.0633 11.2658 10.0292C11.2342 9.965 11.1992 9.9025 11.185 9.83167C11.1842 9.82917 11.1825 9.8275 11.1817 9.825C11.0725 9.25917 10.5292 8.83333 9.91667 8.83333C9.2275 8.83333 8.66667 9.38167 8.66667 10.0558C8.66667 10.3583 8.83 10.7142 9.08167 10.9633L12 13.5525L14.9183 10.9633C15.17 10.7142 15.3333 10.3583 15.3333 10.0558C15.3333 9.38167 14.7725 8.83333 14.0833 8.83333Z" fill="currentColor"/>
</svg>