<svg width="24" height="24" viewBox="0 0 24 24" fill="none" xmlns="http://www.w3.org/2000/svg">
<path fill-rule="evenodd" clip-rule="evenodd" d="M12 18.8333H10.8042C9.17333 21.2042 5.51917 21.3292 5.355 21.3333C5.34833 21.3333 5.34083 21.3333 5.33333 21.3333C5.01833 21.3333 4.72917 21.155 4.58833 20.8717C4.44333 20.5817 4.48083 20.2342 4.68167 19.98C4.695 19.9633 5.87917 18.4575 6.11333 16.88C4.03833 15.8417 2 13.6458 2 10.8842C2 6.53667 6.48583 3 12 3C17.5142 3 22 6.53667 22 10.8842C22 15.2675 17.5142 18.8333 12 18.8333ZM12 4.66667C7.405 4.66667 3.66667 7.45583 3.66667 10.8842C3.66667 13.0208 5.4925 14.8667 7.29583 15.5858C7.6125 15.7117 7.82 16.0192 7.82 16.36C7.82 17.4658 7.42667 18.5467 7.00333 19.3892C7.96667 19.125 9.08 18.6117 9.5925 17.6175C9.73583 17.3408 10.0217 17.1667 10.3333 17.1667H12C16.595 17.1667 20.3333 14.3483 20.3333 10.8842C20.3333 7.45583 16.595 4.66667 12 4.66667ZM15.6775 13.4333C15.4775 14.1283 14.8425 14.6408 14.0833 14.6408C13.1642 14.6408 12.4167 13.8942 12.4167 12.9758C12.4167 12.0558 13.1642 11.3075 14.0833 11.3075C14.2283 11.3075 14.3658 11.3317 14.5 11.3667V8.8075L12 9.64083V13.8067C12 14.0633 11.7533 14.29 11.4567 14.4425C11.2067 15.0467 10.6108 15.4742 9.91667 15.4742C8.9975 15.4742 8.25 14.7275 8.25 13.8092C8.25 12.8892 8.9975 12.1408 9.91667 12.1408C10.0617 12.1408 10.1992 12.165 10.3333 12.2V8.8075C10.3333 8.42917 10.1708 8.3775 10.535 8.28L14.7017 7.16833C14.9525 7.1025 15.2192 7.15584 15.4242 7.31333C15.63 7.47084 16.1667 7.715 16.1667 7.97333V12.9733C16.1667 13.2142 15.95 13.3533 15.6775 13.4333Z" fill="#6B7084"/>
</svg>
