<svg width="24" height="24" viewBox="0 0 24 24" fill="none" xmlns="http://www.w3.org/2000/svg">
<path fill-rule="evenodd" clip-rule="evenodd" d="M12 18.8333H10.8042C9.17333 21.2042 5.51917 21.3292 5.355 21.3333C5.34833 21.3333 5.34083 21.3333 5.33333 21.3333C5.01833 21.3333 4.72917 21.155 4.58833 20.8717C4.44333 20.5817 4.48083 20.2342 4.68167 19.98C4.695 19.9633 5.87917 18.4575 6.11333 16.88C4.03833 15.8417 2 13.6458 2 10.8842C2 6.53667 6.48583 3 12 3C17.5142 3 22 6.53667 22 10.8842C22 15.2675 17.5142 18.8333 12 18.8333ZM12 4.66667C7.405 4.66667 3.66667 7.45583 3.66667 10.8842C3.66667 13.0208 5.4925 14.8667 7.29583 15.5858C7.6125 15.7117 7.82 16.0192 7.82 16.36C7.82 17.4658 7.42667 18.5467 7.00333 19.3892C7.96667 19.125 9.08 18.6117 9.5925 17.6175C9.73583 17.3408 10.0217 17.1667 10.3333 17.1667H12C16.595 17.1667 20.3333 14.3483 20.3333 10.8842C20.3333 7.45583 16.595 4.66667 12 4.66667ZM14.5 10.5H16.1667V12.1667H14.5V10.5ZM11.1667 10.5H12.8333V12.1667H11.1667V10.5ZM7.83333 10.5H9.5V12.1667H7.83333V10.5Z" fill="#6B7084"/>
</svg>
