<svg viewBox="0 0 24 24" fill="none" xmlns="http://www.w3.org/2000/svg">
<path fill-rule="evenodd" clip-rule="evenodd" d="M19.0842 17.0145C19.2934 18.2519 19.9642 18.7893 19.9959 18.8135C20.2634 19.0184 20.3875 19.3693 20.2992 19.6951C20.2117 20.02 19.9409 20.265 19.6059 20.3075C19.5775 20.3117 19.395 20.3333 19.1109 20.3333C18.2542 20.3333 16.4742 20.1208 15.1309 18.6493H14.0817C12.5734 18.6493 11.1467 18.3302 9.95585 17.7269C9.54585 17.5194 9.38169 17.0178 9.59002 16.6078C9.79752 16.1987 10.3 16.0346 10.7109 16.242C11.6684 16.7278 12.835 16.9845 14.0834 16.9845H15.4992C15.5184 16.9845 15.535 16.9945 15.5534 16.9961C15.6109 16.9995 15.6642 17.0136 15.7192 17.0295C15.77 17.0436 15.8192 17.0553 15.8659 17.0786C15.9117 17.1011 15.95 17.1328 15.9917 17.1636C16.0384 17.1986 16.0825 17.2328 16.1209 17.2769C16.1334 17.2903 16.15 17.2969 16.1617 17.3128C16.6325 17.9277 17.2234 18.2694 17.77 18.4552C17.575 17.9902 17.4275 17.4186 17.3767 16.7445C17.375 16.7337 17.3734 16.7245 17.3725 16.7137C17.3709 16.6953 17.3659 16.6812 17.3642 16.662C17.3625 16.622 17.3775 16.587 17.38 16.5487C17.385 16.4887 17.3875 16.4304 17.405 16.3737C17.42 16.322 17.4459 16.2787 17.4709 16.232C17.495 16.1837 17.5175 16.137 17.5517 16.0945C17.5884 16.0487 17.6342 16.0137 17.68 15.9771C17.7109 15.9521 17.7309 15.9187 17.7659 15.8979C18.7242 15.3196 20.3334 14.0439 20.3334 11.9899C20.3334 10.9842 19.7825 9.87095 19.0242 9.3435C18.6467 9.08019 18.5534 8.5619 18.8159 8.18444C19.0784 7.80697 19.5975 7.71364 19.9759 7.97695C21.1867 8.81854 22 10.4317 22 11.9899C22 13.9297 20.9375 15.7312 19.0842 17.0145ZM9.91667 15.3196H8.86917C7.525 16.7903 5.74583 17.0036 4.88917 17.0036C4.605 17.0036 4.4225 16.982 4.39417 16.9778C4.05417 16.9345 3.77583 16.6878 3.69167 16.3562C3.60833 16.0246 3.73583 15.6754 4.01417 15.4763C4.03667 15.4588 4.70667 14.9222 4.91417 13.6848C3.06167 12.4016 2 10.6001 2 8.66023C2 4.98806 5.55167 2 9.91667 2C14.2817 2 17.8333 4.98806 17.8333 8.66023C17.8333 12.3324 14.2817 15.3196 9.91667 15.3196ZM9.91667 3.66485C6.47 3.66485 3.66667 5.90548 3.66667 8.66023C3.66667 10.7142 5.27417 11.9899 6.2325 12.5682C6.26667 12.589 6.28667 12.6215 6.31667 12.6457C6.36333 12.6832 6.40917 12.7182 6.44667 12.7649C6.48083 12.8065 6.5025 12.8532 6.5275 12.9007C6.55167 12.9482 6.57833 12.9915 6.59333 13.0432C6.61083 13.1007 6.61333 13.1582 6.61833 13.2181C6.62083 13.2565 6.63583 13.2915 6.63333 13.3306C6.6325 13.3498 6.6275 13.364 6.62583 13.3831C6.625 13.394 6.62333 13.404 6.62167 13.4156C6.57167 14.0889 6.42333 14.6613 6.22917 15.1255C6.77583 14.9397 7.36667 14.5989 7.83833 13.9822C7.85 13.9672 7.86667 13.9606 7.87917 13.9472C7.9175 13.9023 7.9625 13.8681 8.00917 13.8331C8.05083 13.8023 8.08917 13.7706 8.135 13.7489C8.18083 13.7256 8.23 13.7139 8.28083 13.6998C8.33667 13.6839 8.39 13.6698 8.4475 13.6656C8.46583 13.6648 8.48167 13.6548 8.50083 13.6548H9.91833C13.3633 13.6548 16.1667 11.4141 16.1667 8.66023C16.1667 5.90548 13.3633 3.66485 9.91667 3.66485ZM12.7267 8.66939H7.72667C7.26667 8.66939 6.89334 8.29609 6.89334 7.83696C6.89334 7.37701 7.26667 7.00454 7.72667 7.00454H12.7267C13.1867 7.00454 13.56 7.37701 13.56 7.83696C13.56 8.29609 13.1867 8.66939 12.7267 8.66939ZM7.72667 9.50182H11.06C11.52 9.50182 11.8933 9.87512 11.8933 10.3342C11.8933 10.7942 11.52 11.1667 11.06 11.1667H7.72667C7.26667 11.1667 6.89334 10.7942 6.89334 10.3342C6.89334 9.87512 7.26667 9.50182 7.72667 9.50182Z" fill="currentColor"/>
</svg>