<svg viewBox="0 0 24 24" fill="none" xmlns="http://www.w3.org/2000/svg">
<path fill-rule="evenodd" clip-rule="evenodd" d="M12 18.8333H10.8042C9.17333 21.2033 5.51917 21.3283 5.355 21.3325C5.34833 21.3333 5.34083 21.3333 5.33333 21.3333C5.01833 21.3333 4.72917 21.155 4.58833 20.8717C4.44333 20.5817 4.48083 20.2342 4.68167 19.9808C4.695 19.9642 5.87917 18.4567 6.11333 16.88C4.03833 15.8408 2 13.645 2 10.8842C2 6.53667 6.48583 3 12 3C17.5142 3 22 6.53667 22 10.8842C22 15.2675 17.5142 18.8333 12 18.8333ZM12 4.66667C7.405 4.66667 3.66667 7.45583 3.66667 10.8842C3.66667 13.02 5.4925 14.8658 7.29583 15.5858C7.6125 15.7117 7.82 16.0183 7.82 16.3592C7.82 17.465 7.42667 18.5467 7.00333 19.39C7.96667 19.125 9.08 18.6117 9.5925 17.6175C9.73583 17.34 10.0217 17.1667 10.3333 17.1667H12C16.595 17.1667 20.3333 14.3483 20.3333 10.8842C20.3333 7.45583 16.595 4.66667 12 4.66667ZM17 11.3333C17 11.7933 16.6267 12.1667 16.1667 12.1667H14.5C14.1925 12.1667 13.9108 11.9975 13.765 11.7267C13.62 11.4558 13.6358 11.1267 13.8067 10.8717L14.6092 9.66667H14.5C14.04 9.66667 13.6667 9.29333 13.6667 8.83333C13.6667 8.37333 14.04 8 14.5 8H16.1667C16.4742 8 16.7558 8.16917 16.9017 8.44C17.0467 8.71167 17.0308 9.04 16.86 9.29583L16.0575 10.5H16.1667C16.6267 10.5 17 10.8733 17 11.3333ZM12.8334 13C12.8334 13.46 12.46 13.8333 12 13.8333H8.66669C8.34669 13.8333 8.05419 13.65 7.91586 13.3608C7.77669 13.0725 7.81586 12.7292 8.01586 12.4792L10.2659 9.66667H8.66669C8.20669 9.66667 7.83336 9.29333 7.83336 8.83333C7.83336 8.37333 8.20669 8 8.66669 8H12C12.32 8 12.6125 8.18333 12.7509 8.4725C12.89 8.76083 12.8509 9.10417 12.6509 9.35417L10.4009 12.1667H12C12.46 12.1667 12.8334 12.54 12.8334 13Z" fill="currentColor"/>
</svg>