<svg width="24" height="24" viewBox="0 0 24 24" fill="none" xmlns="http://www.w3.org/2000/svg">
<path fill-rule="evenodd" clip-rule="evenodd" d="M12 18.8333H10.8042C9.17333 21.2042 5.51917 21.3292 5.355 21.3333C5.34833 21.3333 5.34083 21.3333 5.33333 21.3333C5.01833 21.3333 4.72917 21.155 4.58833 20.8717C4.44333 20.5817 4.48083 20.2342 4.68167 19.9808C4.695 19.9633 5.87917 18.4567 6.11333 16.88C4.03833 15.8408 2 13.6458 2 10.8842C2 6.53667 6.48583 3 12 3C17.5142 3 22 6.53667 22 10.8842C22 15.2675 17.5142 18.8333 12 18.8333ZM12 4.66667C7.405 4.66667 3.66667 7.45583 3.66667 10.8842C3.66667 13.0208 5.4925 14.8658 7.29583 15.585C7.6125 15.7117 7.82 16.0183 7.82 16.3592C7.82 17.465 7.42667 18.5467 7.00333 19.3892C7.96583 19.125 9.08 18.6117 9.5925 17.6175C9.73583 17.3408 10.0217 17.1667 10.3333 17.1667H12C16.595 17.1667 20.3333 14.3483 20.3333 10.8842C20.3333 7.45583 16.595 4.66667 12 4.66667ZM12 14.6667C9.18667 14.6667 7.3225 12.8342 7.24417 12.7558C6.91834 12.43 6.91834 11.9033 7.24417 11.5775C7.57 11.2517 8.09667 11.2517 8.4225 11.5775C8.435 11.5892 9.895 13 12 13C14.13 13 15.5633 11.5917 15.5775 11.5775C15.9033 11.2517 16.43 11.2517 16.7558 11.5775C17.0817 11.9033 17.0817 12.43 16.7558 12.7558C16.6775 12.8342 14.8125 14.6667 12 14.6667ZM14.5 9.66667C14.0392 9.66667 13.6667 9.29417 13.6667 8.83333C13.6667 8.3725 14.0392 8 14.5 8C14.9608 8 15.3333 8.3725 15.3333 8.83333C15.3333 9.29417 14.9608 9.66667 14.5 9.66667ZM9.5 9.66667C9.03917 9.66667 8.66667 9.29417 8.66667 8.83333C8.66667 8.3725 9.03917 8 9.5 8C9.96083 8 10.3333 8.3725 10.3333 8.83333C10.3333 9.29417 9.96083 9.66667 9.5 9.66667Z" fill="#6B7084"/>
</svg>
