<svg viewBox="0 0 24 24" fill="none" xmlns="http://www.w3.org/2000/svg">
<path fill-rule="evenodd" clip-rule="evenodd" d="M19.0842 18.0145C19.2934 19.2519 19.9642 19.7893 19.9959 19.8126C20.2642 20.0185 20.3867 20.3693 20.2992 20.6951C20.2109 21.02 19.9409 21.265 19.6059 21.3075C19.5775 21.3117 19.3959 21.3333 19.1109 21.3333C18.2542 21.3333 16.4742 21.1209 15.1309 19.6493H14.0817C12.5734 19.6493 11.1467 19.3302 9.95585 18.7269C9.54585 18.5194 9.38169 18.0178 9.59002 17.6078C9.79835 17.1987 10.3 17.0346 10.7109 17.242C11.6684 17.7278 12.8342 17.9845 14.0834 17.9845H15.4992C15.5184 17.9845 15.5342 17.9945 15.5534 17.9953C15.6109 17.9995 15.6642 18.0136 15.7209 18.0295C15.7709 18.0436 15.8192 18.0553 15.865 18.0778C15.9109 18.1011 15.9509 18.1328 15.9925 18.1636C16.0384 18.1986 16.0825 18.2328 16.1209 18.2761C16.1334 18.2903 16.15 18.2969 16.1617 18.3128C16.6325 18.9277 17.2225 19.2694 17.77 19.4543C17.575 18.9902 17.4275 18.4186 17.3767 17.7453C17.375 17.7345 17.3734 17.7237 17.3725 17.7128C17.3709 17.6945 17.3659 17.6803 17.365 17.6612C17.3625 17.622 17.3775 17.5862 17.38 17.5478C17.385 17.4887 17.3875 17.4304 17.405 17.3737C17.42 17.322 17.4459 17.2779 17.4709 17.2304C17.4959 17.1837 17.5175 17.137 17.5517 17.0946C17.5884 17.0479 17.635 17.0129 17.6817 16.9754C17.7117 16.9512 17.7317 16.9187 17.7659 16.8979C18.7242 16.3196 20.3334 15.0439 20.3334 12.9899C20.3334 11.9842 19.7825 10.871 19.0242 10.3435C18.6467 10.0802 18.5534 9.5619 18.8159 9.18444C19.0784 8.80697 19.5984 8.71448 19.9759 8.97696C21.1867 9.81855 22 11.4317 22 12.9899C22 14.9297 20.9375 16.7313 19.0842 18.0145ZM9.91667 16.3196H8.86833C7.525 17.7903 5.74583 18.0036 4.88917 18.0036C4.60417 18.0036 4.4225 17.982 4.39417 17.9778C4.05417 17.9345 3.77583 17.6878 3.69167 17.3562C3.60833 17.0246 3.73583 16.6754 4.01417 16.4763C4.03667 16.4579 4.70667 15.9222 4.915 14.6839C3.06167 13.4016 2 11.6001 2 9.66023C2 5.98806 5.55167 3 9.91667 3C14.2817 3 17.8333 5.98806 17.8333 9.66023C17.8333 13.3324 14.2817 16.3196 9.91667 16.3196ZM9.91667 4.66485C6.47 4.66485 3.66667 6.90548 3.66667 9.66023C3.66667 11.7142 5.27417 12.9899 6.2325 13.5682C6.26667 13.589 6.28667 13.6215 6.31667 13.6457C6.36333 13.6832 6.40917 13.7182 6.44667 13.7649C6.48083 13.8065 6.5025 13.8532 6.5275 13.9007C6.55167 13.9482 6.57833 13.9915 6.59333 14.0432C6.61083 14.1007 6.61333 14.1582 6.61833 14.2181C6.62083 14.2565 6.63583 14.2915 6.63417 14.3306C6.6325 14.3498 6.6275 14.364 6.62583 14.3831C6.625 14.394 6.62333 14.404 6.62167 14.4148C6.57167 15.0889 6.42333 15.6613 6.22917 16.1255C6.77583 15.9397 7.36667 15.5989 7.83833 14.9822C7.85 14.9672 7.86667 14.9606 7.87917 14.9472C7.9175 14.9031 7.96167 14.8681 8.00917 14.8331C8.05 14.8023 8.08917 14.7706 8.135 14.7481C8.18083 14.7256 8.22917 14.7139 8.28 14.6998C8.33583 14.6839 8.38917 14.6698 8.4475 14.6656C8.46583 14.6648 8.48167 14.6548 8.50083 14.6548H9.91833C13.3633 14.6548 16.1667 12.4141 16.1667 9.66023C16.1667 6.90548 13.3633 4.66485 9.91667 4.66485Z" fill="currentColor"/>
</svg>