<svg width="24" height="24" viewBox="0 0 24 24" fill="none" xmlns="http://www.w3.org/2000/svg">
<path fill-rule="evenodd" clip-rule="evenodd" d="M12 18.8333H10.8033C9.17333 21.2033 5.51917 21.3283 5.355 21.3325C5.34833 21.3333 5.34083 21.3333 5.33333 21.3333C5.01833 21.3333 4.72917 21.155 4.58833 20.8717C4.44333 20.5817 4.48083 20.2342 4.68167 19.9808C4.695 19.9642 5.87917 18.4567 6.11333 16.88C4.03833 15.8408 2 13.645 2 10.8842C2 6.53667 6.48583 3 12 3C17.5142 3 22 6.53667 22 10.8842C22 15.2675 17.5142 18.8333 12 18.8333ZM12 4.66667C7.405 4.66667 3.66667 7.45583 3.66667 10.8842C3.66667 13.02 5.4925 14.8658 7.29583 15.5858C7.6125 15.7117 7.82 16.0183 7.82 16.3592C7.82 17.465 7.42667 18.5467 7.00333 19.39C7.96583 19.125 9.08 18.6117 9.5925 17.6175C9.73583 17.34 10.0217 17.1667 10.3333 17.1667H12C16.595 17.1667 20.3333 14.3483 20.3333 10.8842C20.3333 7.45583 16.595 4.66667 12 4.66667ZM16.1667 10.5H7.83333C7.37333 10.5 7 10.1267 7 9.66667C7 9.20667 7.37333 8.83333 7.83333 8.83333H16.1667C16.6267 8.83333 17 9.20667 17 9.66667C17 10.1267 16.6267 10.5 16.1667 10.5ZM7.83333 11.3333H13.6667C14.1267 11.3333 14.5 11.7067 14.5 12.1667C14.5 12.6267 14.1267 13 13.6667 13H7.83333C7.37333 13 7 12.6267 7 12.1667C7 11.7067 7.37333 11.3333 7.83333 11.3333Z" fill="#6B7084"/>
</svg>
