<svg viewBox="0 0 24 24" fill="none" xmlns="http://www.w3.org/2000/svg">
<path fill-rule="evenodd" clip-rule="evenodd" d="M11.0074 10.1742C11.3328 9.84833 11.8605 9.84833 12.1858 10.1742L14.0743 12.0617C14.2106 12.0258 14.352 12 14.5 12C15.4191 12 16.1668 12.7475 16.1668 13.6667C16.1668 14.5858 15.4191 15.3333 14.5 15.3333C13.5817 15.3333 12.8332 14.5858 12.8332 13.6667C12.8332 13.5183 12.8591 13.3775 12.8959 13.24L11.0074 11.3525C10.6821 11.0267 10.6821 10.4992 11.0074 10.1742ZM22.5891 7.58917L21.3037 8.87417C22.263 10.2317 22.8333 11.8817 22.8333 13.6667C22.8333 18.2617 19.0949 22 14.5 22C12.1332 22 9.87001 20.9875 8.29015 19.2233C7.98321 18.88 8.01248 18.3533 8.35539 18.0467C8.69912 17.7392 9.22518 17.7692 9.53212 18.1117C10.7958 19.5233 12.6065 20.3333 14.5 20.3333C18.1757 20.3333 21.1665 17.3425 21.1665 13.6667C21.1665 9.99083 18.1757 7 14.5 7C12.5488 7 10.7013 7.85167 9.43176 9.33583C9.13319 9.68583 8.60629 9.72667 8.25753 9.42833C7.90794 9.12917 7.86612 8.6025 8.16554 8.25333C9.56976 6.61 11.5402 5.59167 13.667 5.37833V3.66667H12.8332C12.3732 3.66667 12.0002 3.29333 12.0002 2.83333C12.0002 2.37333 12.3732 2 12.8332 2H16.1668C16.6277 2 16.9998 2.37333 16.9998 2.83333C16.9998 3.29333 16.6277 3.66667 16.1668 3.66667H15.3338V5.37583C16.7991 5.52167 18.1481 6.05583 19.2923 6.86333L20.5777 5.5775C20.9031 5.25167 21.4308 5.25167 21.7561 5.5775L22.5891 6.41083C22.9145 6.73667 22.9145 7.26417 22.5891 7.58917ZM7.0005 12H2.83384C2.37301 12 2 11.6267 2 11.1667C2 10.7067 2.37301 10.3333 2.83384 10.3333H7.0005C7.46049 10.3333 7.8335 10.7067 7.8335 11.1667C7.8335 11.6267 7.46049 12 7.0005 12ZM4.49987 12.8333H9.50037C9.96036 12.8333 10.3334 13.2067 10.3334 13.6667C10.3334 14.1267 9.96036 14.5 9.50037 14.5H4.49987C4.03988 14.5 3.66687 14.1267 3.66687 13.6667C3.66687 13.2067 4.03988 12.8333 4.49987 12.8333ZM5.33363 15.3333H7.83346C8.29429 15.3333 8.66646 15.7067 8.66646 16.1667C8.66646 16.6267 8.29429 17 7.83346 17H5.33363C4.87281 17 4.4998 16.6267 4.4998 16.1667C4.4998 15.7067 4.87281 15.3333 5.33363 15.3333Z" fill="currentColor"/>
</svg>