<svg width="24" height="24" viewBox="0 0 24 24" fill="none" xmlns="http://www.w3.org/2000/svg">
<path fill-rule="evenodd" clip-rule="evenodd" d="M12 18.8333H10.8033C9.17333 21.2033 5.51917 21.3292 5.355 21.3333C5.34833 21.3333 5.34083 21.3333 5.33333 21.3333C5.01833 21.3333 4.72917 21.155 4.58833 20.8717C4.44333 20.5817 4.48083 20.2342 4.68167 19.98C4.695 19.9633 5.87917 18.4567 6.11417 16.88C4.03833 15.8408 2 13.6458 2 10.8842C2 6.53667 6.48583 3 12 3C17.5142 3 22 6.53667 22 10.8842C22 15.2675 17.5142 18.8333 12 18.8333ZM12 4.66667C7.405 4.66667 3.66667 7.45583 3.66667 10.8842C3.66667 13.0208 5.4925 14.8658 7.29583 15.585C7.6125 15.7117 7.82 16.0183 7.82 16.3592C7.82 17.465 7.42667 18.5467 7.00333 19.3892C7.96667 19.125 9.08 18.6117 9.59333 17.6175C9.73583 17.3408 10.0217 17.1667 10.3333 17.1667H12C16.595 17.1667 20.3333 14.3483 20.3333 10.8842C20.3333 7.45583 16.595 4.66667 12 4.66667ZM15.3333 9.66667H14.7342L14.3175 11.3333H14.5C14.96 11.3333 15.3333 11.7067 15.3333 12.1667C15.3333 12.6267 14.96 13 14.5 13H13.9008L13.6417 14.0358C13.5467 14.4142 13.2075 14.6667 12.8342 14.6667C12.7667 14.6667 12.6992 14.6592 12.6308 14.6417C12.185 14.5308 11.9133 14.0783 12.025 13.6308L12.1825 13H10.5675L10.3083 14.0358C10.2133 14.4142 9.87417 14.6667 9.50083 14.6667C9.43333 14.6667 9.36583 14.6592 9.2975 14.6417C8.85167 14.5308 8.58 14.0783 8.69167 13.6308L8.84917 13H8.66667C8.20667 13 7.83333 12.6267 7.83333 12.1667C7.83333 11.7067 8.20667 11.3333 8.66667 11.3333H9.26583L9.6825 9.66667H9.5C9.04 9.66667 8.66667 9.29333 8.66667 8.83333C8.66667 8.37333 9.04 8 9.5 8H10.0992L10.3583 6.965C10.4708 6.51833 10.9225 6.24583 11.3692 6.35833C11.815 6.47 12.0867 6.92167 11.975 7.36917L11.8175 8H13.4325L13.6917 6.965C13.8042 6.51833 14.2583 6.24583 14.7025 6.35833C15.1483 6.47 15.42 6.92167 15.3083 7.36917L15.1508 8H15.3333C15.7933 8 16.1667 8.37333 16.1667 8.83333C16.1667 9.29333 15.7933 9.66667 15.3333 9.66667ZM11.4008 9.66667L10.9842 11.3333H12.5992L13.0158 9.66667H11.4008Z" fill="#6B7084"/>
</svg>
