<svg viewBox="0 0 24 24" fill="none" xmlns="http://www.w3.org/2000/svg">
<path fill-rule="evenodd" clip-rule="evenodd" d="M12 18.8333H10.8042C9.17333 21.2033 5.51917 21.3283 5.355 21.3325C5.34833 21.3333 5.34083 21.3333 5.33333 21.3333C5.01833 21.3333 4.72917 21.155 4.58833 20.8717C4.44333 20.5817 4.48083 20.2342 4.68167 19.9808C4.695 19.9642 5.87917 18.4567 6.11417 16.88C4.03833 15.8408 2 13.645 2 10.8842C2 6.53667 6.48583 3 12 3C17.5142 3 22 6.53667 22 10.8842C22 15.2675 17.5142 18.8333 12 18.8333ZM12 4.66667C7.405 4.66667 3.66667 7.45583 3.66667 10.8842C3.66667 13.02 5.4925 14.8658 7.29583 15.5858C7.6125 15.7117 7.82 16.0183 7.82 16.3592C7.82 17.465 7.42667 18.5467 7.00333 19.39C7.96667 19.125 9.08 18.6117 9.5925 17.6175C9.73583 17.34 10.0217 17.1667 10.3333 17.1667H12C16.595 17.1667 20.3333 14.3483 20.3333 10.8842C20.3333 7.45583 16.595 4.66667 12 4.66667ZM14.5158 14.6667H11.8175C10.9167 14.6667 10.3333 13.8333 10.3333 13.8333H9.5C9.5 14.2933 9.12667 14.6667 8.66667 14.6667C8.20667 14.6667 7.83333 14.2933 7.83333 13.8333V9.66667C7.83333 9.20667 8.20667 8.83333 8.66667 8.83333C9.12667 8.83333 9.5 9.20667 9.5 9.66667H10.3333C10.3333 9.66667 11.0992 7.3175 11.245 7.02583C11.4008 6.71333 11.6375 6.33333 12 6.33333C12.4667 6.33333 12.8333 6.61667 12.8333 7.16667V9.66667H15.6625C15.9725 9.66667 16.1975 9.91417 16.1633 10.2175L15.1408 14.115C15.1075 14.4183 14.8267 14.6667 14.5158 14.6667Z" fill="currentColor"/>
</svg>