<svg viewBox="0 0 24 24" fill="none" xmlns="http://www.w3.org/2000/svg">
<path fill-rule="evenodd" clip-rule="evenodd" d="M12 18.8333H10.8042C9.17333 21.2042 5.51917 21.3292 5.355 21.3333C5.34833 21.3333 5.34083 21.3333 5.33333 21.3333C5.01833 21.3333 4.72917 21.155 4.58833 20.8717C4.44333 20.5817 4.48083 20.2342 4.68167 19.98C4.695 19.9633 5.87917 18.4567 6.11333 16.88C4.03833 15.8408 2 13.6458 2 10.8842C2 6.53667 6.48583 3 12 3C17.5142 3 22 6.53667 22 10.8842C22 15.2675 17.5142 18.8333 12 18.8333ZM12 4.66667C7.405 4.66667 3.66667 7.45583 3.66667 10.8842C3.66667 13.0208 5.4925 14.8658 7.29583 15.585C7.6125 15.7117 7.82 16.0183 7.82 16.3592C7.82 17.465 7.42667 18.5467 7.00333 19.3892C7.96667 19.125 9.08 18.6117 9.5925 17.6175C9.73583 17.3408 10.0217 17.1667 10.3333 17.1667H12C16.595 17.1667 20.3333 14.3483 20.3333 10.8842C20.3333 7.45583 16.595 4.66667 12 4.66667ZM12.8333 12.0133V12.1667C12.8333 12.26 12.8117 12.3458 12.78 12.4275C12.7392 12.5492 12.68 12.665 12.5917 12.7583C12.5508 12.7967 12.4975 12.8192 12.45 12.85C12.3883 12.8892 12.3283 12.9242 12.2592 12.9475C12.1783 12.9792 12.0925 13 12 13C11.9075 13 11.8217 12.9792 11.7408 12.9475C11.6183 12.9067 11.5025 12.8475 11.4083 12.7583C11.32 12.665 11.2608 12.5492 11.2192 12.4267C11.1883 12.3458 11.1667 12.26 11.1667 12.1667V11.3333C11.1667 10.8733 11.54 10.5 12 10.5C12.4592 10.5 12.8333 10.1258 12.8333 9.66667C12.8333 9.2075 12.4592 8.83333 12 8.83333C11.5408 8.83333 11.1667 9.2075 11.1667 9.66667C11.1667 10.1267 10.7933 10.5 10.3333 10.5C9.87333 10.5 9.5 10.1267 9.5 9.66667C9.5 8.28833 10.6217 7.16667 12 7.16667C13.3783 7.16667 14.5 8.28833 14.5 9.66667C14.5 10.7517 13.8008 11.6683 12.8333 12.0133ZM12.5917 14.075C12.7417 14.2333 12.8333 14.45 12.8333 14.6667C12.8333 14.8833 12.7417 15.1 12.5917 15.2583C12.4333 15.4083 12.2167 15.5 12 15.5C11.7833 15.5 11.5667 15.4083 11.4083 15.2583C11.2583 15.1 11.1667 14.8833 11.1667 14.6667C11.1667 14.45 11.2583 14.2333 11.4083 14.075C11.725 13.7667 12.2833 13.7667 12.5917 14.075Z" fill="currentColor"/>
</svg>