<svg viewBox="0 0 24 24" fill="none" xmlns="http://www.w3.org/2000/svg">
<path fill-rule="evenodd" clip-rule="evenodd" d="M12 18.8333H10.6383C9.025 21.2025 5.51417 21.3292 5.35667 21.3333C5.34917 21.3333 5.34083 21.3333 5.33333 21.3333C5.00083 21.3333 4.6975 21.1342 4.56667 20.8267C4.4325 20.5125 4.50417 20.1483 4.7475 19.9075C4.78167 19.8725 6.00833 18.625 6.24083 17.145C3.50083 15.5617 2 13.3542 2 10.8842C2 6.53667 6.48583 3 12 3C17.5142 3 22 6.53667 22 10.8842C22 15.2675 17.5142 18.8333 12 18.8333ZM12 4.66667C7.405 4.66667 3.66667 7.45583 3.66667 10.8842C3.66667 13.5317 6.0675 15.1858 7.49833 15.9358C7.77333 16.0792 7.945 16.3642 7.945 16.6742C7.945 17.655 7.61833 18.5608 7.22667 19.2933C8.06917 19.0067 8.96833 18.5033 9.42583 17.6175C9.56917 17.3408 9.855 17.1667 10.1667 17.1667H12C16.595 17.1667 20.3333 14.3483 20.3333 10.8842C20.3333 7.45583 16.595 4.66667 12 4.66667ZM12 9.66667C13.4025 9.66667 14.5 10.5817 14.5 11.75C14.5 12.6792 13.8 13.44 12.81 13.7158C12.8158 13.7558 12.8333 13.7917 12.8333 13.8333V14.6667C12.8333 15.1267 12.4608 15.5 12 15.5C11.5392 15.5 11.1667 15.1267 11.1667 14.6667V13.8333H10.3333C9.8725 13.8333 9.5 13.46 9.5 13C9.5 12.54 9.8725 12.1667 10.3333 12.1667H12C12.5167 12.1667 12.8333 11.8975 12.8333 11.75C12.8333 11.6033 12.5167 11.3333 12 11.3333C10.5975 11.3333 9.5 10.4183 9.5 9.25C9.5 8.32083 10.2 7.56 11.19 7.28417C11.1842 7.24417 11.1667 7.20833 11.1667 7.16667V6.33333C11.1667 5.87333 11.5392 5.5 12 5.5C12.4608 5.5 12.8333 5.87333 12.8333 6.33333V7.16667H13.6667C14.1275 7.16667 14.5 7.54 14.5 8C14.5 8.46 14.1275 8.83333 13.6667 8.83333H12C11.4833 8.83333 11.1667 9.10333 11.1667 9.25C11.1667 9.39667 11.4833 9.66667 12 9.66667Z" fill="currentColor"/>
</svg>