<svg viewBox="0 0 24 24" fill="none" xmlns="http://www.w3.org/2000/svg">
<path fill-rule="evenodd" clip-rule="evenodd" d="M20.3068 16.7L16.1403 21.7C15.9912 21.8783 15.7747 21.9867 15.5422 21.9983C15.5279 21.9992 15.5136 21.9992 15.5001 21.9992C15.2828 21.9992 15.073 21.9142 14.9172 21.7617L12.417 19.3117C12.0885 18.99 12.0826 18.4625 12.4052 18.1342C12.727 17.805 13.2552 17.8008 13.5829 18.1217L15.4386 19.9392L19.0264 15.6325C19.3212 15.2792 19.8468 15.2325 20.1998 15.5267C20.5536 15.8208 20.6016 16.3458 20.3068 16.7ZM15.7924 16.9467C15.362 17.1067 14.8818 16.89 14.7201 16.4592L13.9847 14.5H7.14451L4.61651 21.4517C4.49352 21.7892 4.17426 22 3.83309 22C3.73875 22 3.64271 21.9842 3.54837 21.9492C3.11622 21.7925 2.89299 21.3142 3.05052 20.8817L9.71716 2.54833C9.83593 2.22083 10.1468 2.00167 10.4964 2C10.4972 2 10.4989 2 10.4997 2C10.8468 2 11.1585 2.215 11.2806 2.54083L16.2802 15.8742C16.4419 16.3042 16.2237 16.785 15.7924 16.9467ZM10.5124 5.23917L7.75108 12.8333H13.3597L10.5124 5.23917Z" fill="currentColor"/>
</svg>