<svg width="24" height="24" viewBox="0 0 24 24" fill="none" xmlns="http://www.w3.org/2000/svg">
<g clip-path="url(#clip0_1265_20822)">
<path d="M12 24C18.6274 24 24 18.6274 24 12C24 5.37258 18.6274 0 12 0C5.37258 0 0 5.37258 0 12C0 18.6274 5.37258 24 12 24Z" fill="#00B098"/>
<path d="M5 8.9737V8.7245H10.8919V8.9737H5ZM5 8.2492V8H10.8919V8.2492H5ZM7.485 15.6972V9.4721H7.7216V15.6972H7.485ZM8.171 15.6972V9.4721H8.4069V15.6972H8.171ZM18.8334 15.1876L16.1748 12.3785L16.3414 12.2028L19 15.0112L18.8334 15.1876ZM12.3633 8L15.0219 10.8091L14.8553 10.9848L12.1967 8.1764L12.3633 8ZM18.3483 15.7L15.6897 12.8909L15.8563 12.7145L18.5149 15.5236L18.3483 15.7ZM11.8789 8.5124L14.5375 11.3208L14.3702 11.4972L11.7116 8.6888L11.8789 8.5124ZM15.6736 11.85L15.8409 11.6736L18.8334 8.5124L19 8.6888L16.0075 11.85L15.8409 12.0264L15.5231 12.3624L15.3558 12.5388L12.364 15.7L12.1974 15.5236L15.1899 12.3624L15.3565 12.186L15.6736 11.85ZM15.3558 11.1612L18.349 8L18.5156 8.1764L15.5231 11.3376L15.3565 11.514L15.0387 11.85L14.8714 12.0264L11.8796 15.1876L11.7123 15.0112L14.7048 11.85L14.8714 11.6736L15.1899 11.3376L15.3558 11.1612Z" fill="white"/>
</g>
<defs>
<clipPath id="clip0_1265_20822">
<rect width="24" height="24" fill="white"/>
</clipPath>
</defs>
</svg>
