<svg viewBox="0 0 24 24" fill="none" xmlns="http://www.w3.org/2000/svg">
<g clip-path="url(#clip0_1265_20818)">
<path d="M12 24C18.6274 24 24 18.6274 24 12C24 5.37258 18.6274 0 12 0C5.37258 0 0 5.37258 0 12C0 18.6274 5.37258 24 12 24Z" fill="#1C1C1C"/>
<path d="M11.8315 10.4831C12.0124 10.557 12.1932 10.5197 12.338 10.4831C12.4467 10.8518 12.6275 11.1833 12.8077 11.3305C12.6996 12.2523 12.374 12.5838 12.0124 12.5838C11.5065 12.5838 11.253 11.5148 11.253 11.3311C11.3618 11.2572 11.6874 11.0356 11.8321 10.4831H11.8315ZM11.2891 13.7266C11.5065 13.5423 11.6507 13.2474 11.8315 12.7682C11.9763 12.842 12.1932 12.8048 12.338 12.7682C12.4467 13.284 12.5548 13.6161 12.8077 13.7633C12.7356 14.353 12.374 14.7584 12.0484 14.7584C11.5786 14.7584 11.3618 14.0215 11.2891 13.7266ZM8.39655 14.8689C8.54132 14.6845 8.54132 14.3902 8.46923 13.8371C8.57737 13.8738 8.68609 13.8738 8.75878 13.8371C8.97505 14.353 9.15587 14.6845 9.44542 14.8689C9.48147 15.1271 9.44542 15.422 9.33669 15.4586C8.93901 15.643 8.57737 15.1637 8.39714 14.8689H8.39655ZM6.87789 13.8738C6.95057 13.8738 6.98662 13.8738 7.05871 13.911C7.31222 14.574 7.74595 14.9427 7.74595 14.9427C7.89072 15.2376 7.96281 15.5325 7.85409 15.5325C7.52908 15.5691 7.27558 15.3481 7.02267 14.8689C7.05871 14.7584 7.02267 14.6845 6.87789 13.8738ZM5.9017 13.8738C6.26334 15.422 6.95057 15.3481 6.91453 15.2742C6.76975 15.0166 6.62498 14.9061 6.48021 14.7956C6.1552 14.4635 5.9017 13.7633 5.9017 13.8738ZM10.3129 14.8689C10.5664 14.6845 10.6024 14.2791 10.6385 13.7639C10.7833 13.7999 10.9635 13.7999 11.0722 13.7639C11.1449 14.0948 11.253 14.574 11.5786 14.7956C11.5426 15.201 11.4339 15.422 11.1809 15.4586C11.0001 15.5325 10.4937 15.5325 10.3129 14.8689ZM7.20349 13.7266C7.34826 13.5423 7.38431 13.2474 7.42035 12.842C7.52908 12.8787 7.67386 12.8787 7.74536 12.842C7.85409 13.3207 8.03491 13.6161 8.25236 13.7639C8.32445 14.5374 8.25236 14.7956 8.10759 14.7956C7.78258 14.7956 7.34826 14.0948 7.20349 13.726V13.7266ZM6.08252 13.7266C6.08252 13.6528 6.11857 13.1735 6.1552 12.842H6.29939C6.48021 13.5423 6.73371 13.7639 6.73371 13.7639C6.91453 14.6112 6.91453 14.8322 6.76916 14.7584C6.44416 14.6479 6.19125 14.0215 6.08252 13.7266ZM8.97505 13.7266C9.15587 13.5789 9.2646 13.3213 9.33669 12.842C9.51751 12.9153 9.69833 12.8787 9.80706 12.842C9.9152 13.3207 10.0966 13.6161 10.3495 13.7639C10.3495 14.1686 10.3129 14.8322 9.80706 14.7211C9.37274 14.6112 9.01169 13.8738 8.97505 13.7266ZM8.65005 13.6161C8.21573 13.6161 7.96281 12.9153 7.96281 12.6943C8.17968 12.4733 8.28782 12.0679 8.39655 11.3677C8.46923 11.4043 8.57737 11.4043 8.68609 11.3677C8.72214 12.1418 8.93901 12.4733 9.11983 12.6577C9.04774 13.284 8.86691 13.6161 8.65005 13.6161ZM6.40811 12.6943C6.48021 12.5466 6.48021 12.5099 6.69766 11.3677H6.87789C6.87789 12.1418 7.09476 12.5099 7.20349 12.6577C7.16744 13.063 7.23953 13.6161 6.91394 13.6161C6.76975 13.6161 6.58893 13.4318 6.40811 12.6943ZM5.68483 11.4043C5.79356 11.4416 5.72088 12.3994 5.86565 12.7315C5.86565 12.7315 5.86565 13.6528 5.79356 13.5789C5.2511 12.9153 5.61274 11.3677 5.68483 11.4043ZM10.0239 12.6943C10.2768 12.5099 10.4216 12.1046 10.6385 11.3677C10.7833 11.4043 10.9635 11.4043 11.0722 11.3677C11.1449 11.9202 11.2891 12.3262 11.5786 12.6204C11.5065 13.2102 11.217 13.6161 10.8553 13.6161C10.2768 13.6161 10.06 12.8048 10.0239 12.6943ZM7.05871 11.2572C7.34826 11.1467 7.52908 10.5197 7.56513 10.4459C7.60491 10.4815 7.65647 10.5013 7.7099 10.5013C7.76334 10.5013 7.81489 10.4815 7.85468 10.4459C7.85468 10.9251 7.99886 11.1467 8.10759 11.22C7.99886 11.8463 7.85408 12.5838 7.52849 12.5838C7.23953 12.5838 7.09476 11.9202 7.05871 11.2572ZM6.15461 12.6204C5.9017 12.6204 5.82961 11.6626 5.9017 11.2572C5.9017 11.2572 6.11857 10.9251 6.26334 10.4459C6.29939 10.4459 6.37207 10.4831 6.40811 10.4459C6.37207 10.9251 6.44416 11.1467 6.51625 11.2572C6.51625 11.2572 6.33602 12.6204 6.1552 12.6204H6.15461ZM8.90296 11.2572C9.04773 11.1833 9.33669 10.778 9.48147 10.4092C9.62624 10.4831 9.77102 10.4831 9.95125 10.4459C10.0239 10.8518 10.1321 11.1095 10.3856 11.2572C10.2768 11.9202 10.06 12.5838 9.5902 12.5838C9.15587 12.5838 8.93901 11.6992 8.90296 11.2572ZM9.22796 10.2621C9.01169 10.8518 8.79423 11.1833 8.50527 11.1833C8.14363 11.1833 8.10759 10.4092 8.10759 10.3354C8.39714 10.1144 8.61341 9.67236 8.79423 9.30363H9.04773C8.97505 9.85614 9.11983 10.1144 9.22856 10.2621H9.22796ZM7.4564 9.34027C7.27558 9.85614 7.34826 10.1144 7.42094 10.2987C7.1314 11.0356 6.98662 11.2206 6.76975 11.2206C6.55289 11.1833 6.55289 10.7407 6.62498 10.3726C6.84185 10.2249 7.31222 9.3775 7.31222 9.34027H7.4564ZM6.40811 9.3775C6.51625 9.34027 6.11857 9.89336 6.1552 10.1516C6.19066 10.5197 5.75692 11.1467 5.72088 11.1095C5.5767 11.0728 5.86565 9.74564 6.40811 9.3775ZM11.5426 10.2621C11.4339 10.6675 11.2891 11.1833 10.6745 11.1833C10.3495 11.1467 10.1687 10.7047 10.096 10.3354C10.4577 10.0777 10.6385 9.63513 10.7472 9.30363C10.8553 9.34027 11.0368 9.34027 11.1449 9.30363C11.217 9.85614 11.3978 10.1144 11.5426 10.2621ZM6.62498 9.2664C6.69707 9.22977 7.16744 8.6034 7.42035 8.6034C7.56513 8.64003 7.16744 9.00876 7.20349 9.19313C7.09476 9.3775 6.58893 10.2981 6.40811 10.2981C6.26334 10.2981 6.26334 9.8195 6.62498 9.2664ZM15.52 13.8371C15.4834 14.3896 15.4834 14.6845 15.5921 14.8689C15.4474 15.1643 15.0497 15.6063 14.6526 15.4586C14.5072 15.422 14.5072 15.1271 14.5433 14.8689C14.8688 14.6845 15.0857 14.3164 15.2305 13.8371C15.3026 13.8738 15.4113 13.8738 15.52 13.8371ZM16.966 13.8371C17.0021 13.8738 17.0747 13.8738 17.1468 13.7999C17.0021 14.6112 16.966 14.6845 17.0021 14.7956C16.7491 15.2742 16.4962 15.4586 16.1706 15.4586C16.0259 15.4586 16.0985 15.201 16.2794 14.8689C16.2794 14.8689 16.7131 14.5007 16.966 13.8371ZM17.5451 14.7956C17.3997 14.9427 17.2556 15.0166 17.1468 15.2742C17.1108 15.3481 17.798 15.422 18.1591 13.8738C18.087 13.7633 17.8695 14.4635 17.5445 14.7956H17.5451ZM13.3862 13.8371C13.3862 14.2791 13.495 14.6845 13.7118 14.9427C13.531 15.5691 13.0252 15.5691 12.8444 15.5325C12.5909 15.4586 12.5188 15.2376 12.4467 14.8689C12.7356 14.6112 12.8804 14.1686 12.9525 13.8371C13.0973 13.8738 13.2421 13.8738 13.3862 13.8371ZM16.6404 12.8048C16.6404 13.2474 16.677 13.5423 16.8579 13.6894C16.7131 14.0581 16.2433 14.759 15.9538 14.759C15.809 14.759 15.7369 14.5007 15.809 13.7266C16.0259 13.5789 16.2067 13.2102 16.3154 12.8048C16.365 12.8327 16.421 12.8473 16.4779 12.8473C16.5348 12.8473 16.5908 12.8327 16.6404 12.8048ZM17.9422 12.8787C17.9422 13.1741 17.9422 13.6528 18.0149 13.7633C17.8701 14.0587 17.6172 14.6851 17.3276 14.7956C17.1468 14.8322 17.1829 14.6112 17.3637 13.7999C17.3637 13.7999 17.6172 13.5423 17.798 12.8787H17.9422ZM14.7241 12.8048C14.7968 13.3213 14.8688 13.5789 15.0857 13.6894C15.0503 13.8738 14.652 14.6112 14.2543 14.6845C13.7479 14.7956 13.7118 14.0948 13.7118 13.7266C13.9647 13.5789 14.1456 13.2474 14.2543 12.8048C14.363 12.842 14.5438 12.8787 14.7241 12.8048ZM16.0985 12.6943C16.0619 12.9153 15.7729 13.6161 15.4113 13.6161C15.1944 13.6161 15.0136 13.2474 14.9415 12.6577C15.1224 12.5099 15.3392 12.1418 15.3753 11.3677C15.4682 11.4046 15.5718 11.4046 15.6648 11.3677C15.809 12.0313 15.9177 12.4733 16.0985 12.6943ZM17.3637 11.3677C17.5445 12.5099 17.5806 12.5472 17.6532 12.6943C17.4724 13.3945 17.2916 13.6161 17.1468 13.6161C16.8218 13.6161 16.8939 13.0264 16.8573 12.6577C17.0021 12.5099 17.1829 12.1418 17.1829 11.3677C17.2556 11.4043 17.2916 11.3677 17.3637 11.3677ZM18.123 12.6943C18.3038 12.3994 18.2317 11.4416 18.3038 11.3677C18.4126 11.3305 18.7376 12.9525 18.1957 13.5423C18.123 13.6161 18.123 12.6943 18.123 12.6943ZM13.495 11.3677C13.6037 12.1046 13.7845 12.5099 14.1095 12.6943C14.0735 12.8048 13.7845 13.6161 13.2781 13.6161C12.8804 13.6528 12.6635 13.1735 12.5548 12.6204C12.8077 12.3262 12.9886 11.9202 13.0612 11.3677C13.1333 11.4043 13.3141 11.4043 13.495 11.3677ZM16.4962 10.4459C16.4962 10.5197 16.7131 11.1467 16.966 11.3305C16.966 11.9568 16.7852 12.6577 16.4962 12.6577C16.1706 12.6577 16.0259 11.9574 15.9171 11.2938C16.0259 11.1833 16.1706 10.9251 16.1706 10.4831C16.2237 10.5042 16.2811 10.5119 16.3378 10.5054C16.3945 10.4989 16.4488 10.4784 16.4956 10.4459H16.4962ZM18.123 11.2572C18.1591 11.6626 18.087 12.6204 17.9062 12.5838C17.7253 12.5838 17.5445 11.22 17.5445 11.22C17.6172 11.1095 17.6893 10.8518 17.6532 10.4459C17.6731 10.4638 17.6989 10.4737 17.7256 10.4737C17.7524 10.4737 17.7782 10.4638 17.798 10.4459C17.9422 10.9251 18.123 11.2572 18.123 11.2572ZM14.5799 10.4459C14.7241 10.778 14.9776 11.1833 15.1944 11.2938C15.1584 11.7364 14.9049 12.6204 14.5072 12.6204C13.9647 12.6577 13.8206 11.9941 13.7118 11.2938C13.9287 11.1461 14.0735 10.8518 14.1095 10.4831C14.2543 10.5197 14.4345 10.5197 14.5799 10.4459ZM15.484 11.1467C15.2305 11.1833 15.0136 10.8512 14.7607 10.2621C14.9049 10.1144 15.0136 9.8195 14.9415 9.30363C15.0497 9.34027 15.1223 9.34027 15.1944 9.30363C15.4113 9.709 15.6282 10.1144 15.8811 10.2987C15.8811 10.4092 15.8456 11.1467 15.4834 11.1467H15.484ZM16.6404 10.2621C16.677 10.1144 16.7491 9.85614 16.5323 9.30363H16.677C16.677 9.34027 17.1829 10.2255 17.3637 10.3354C17.4364 10.7407 17.4364 11.1467 17.2189 11.1833C17.0387 11.1833 16.8939 10.999 16.6404 10.2615V10.2621ZM17.8695 10.151C17.9062 9.89337 17.5445 9.34027 17.5806 9.3769C18.1597 9.74564 18.3765 11.0728 18.2678 11.1095C18.2317 11.1467 17.8341 10.4831 17.8701 10.151H17.8695ZM13.2781 11.1467C12.7356 11.1833 12.5909 10.6675 12.4827 10.2621C12.6635 10.151 12.8444 9.8195 12.8804 9.30363C12.9886 9.34027 13.17 9.34027 13.2781 9.30363C13.3862 9.63513 13.5677 10.0777 13.8566 10.2987C13.8206 10.7407 13.6397 11.1095 13.2775 11.1467H13.2781ZM16.6404 8.6034C16.8212 8.6034 17.3637 9.22977 17.3997 9.2664C17.798 9.85614 17.798 10.2987 17.6532 10.2987C17.4364 10.2987 16.966 9.3769 16.8579 9.19313C16.8933 9.00876 16.4962 8.6034 16.6404 8.6034ZM8.61341 8.7139C8.54132 8.9349 8.50527 9.1559 8.61341 9.2664C8.39655 9.709 8.03491 10.336 7.70931 10.2987C7.34826 10.2249 7.63722 9.3769 7.67386 9.30363C7.89072 9.19313 8.39655 8.49289 8.57796 8.49289C8.68609 8.52953 8.61341 8.7139 8.61341 8.7139ZM10.3129 8.67726C10.3129 8.89826 10.3495 9.1559 10.5298 9.2664C10.3856 9.709 10.096 10.2987 9.62565 10.2621C9.30065 10.2249 9.22856 9.67236 9.30065 9.2664C9.62565 9.1559 9.9152 8.45567 10.1321 8.45567C10.3129 8.45567 10.3129 8.64003 10.3129 8.67726ZM15.4479 9.2664C15.52 9.1559 15.52 8.93549 15.4479 8.7139C15.4479 8.67726 15.3753 8.49289 15.4834 8.49289C15.6642 8.49289 16.1706 9.19313 16.3875 9.30363C16.4235 9.3775 16.7125 10.2255 16.3515 10.2987C15.9898 10.3354 15.6642 9.67236 15.4474 9.2664H15.4479ZM13.531 9.2664C13.6758 9.1559 13.7118 8.89826 13.7479 8.67726C13.7479 8.64003 13.7479 8.45567 13.9287 8.45567C14.1095 8.41903 14.4712 9.1559 14.7607 9.2664C14.8688 9.74564 14.7962 10.2249 14.4351 10.2621C13.9287 10.3354 13.6758 9.67236 13.531 9.2664ZM12.0124 8.45567C12.374 8.45567 12.374 9.1559 12.6635 9.30363C12.6635 9.488 12.5548 10.2987 11.9763 10.2987C11.4699 10.2987 11.3618 9.63513 11.3257 9.30363C11.7594 9.11927 11.6153 8.45567 12.0124 8.45567Z" fill="white"/>
</g>
<defs>
<clipPath id="clip0_1265_20818">
<rect width="24" height="24" fill="white"/>
</clipPath>
</defs>
</svg>