<svg viewBox="0 0 24 24" fill="none" xmlns="http://www.w3.org/2000/svg">
<g clip-path="url(#clip0_1265_20814)">
<path d="M12 24C18.6274 24 24 18.6274 24 12C24 5.37258 18.6274 0 12 0C5.37258 0 0 5.37258 0 12C0 18.6274 5.37258 24 12 24Z" fill="#F2941B"/>
<path d="M12.3356 5.8418H12.3416C13.4687 6.95695 14.5834 8.08299 15.7039 9.20413H18.5L12.2062 18.1216C12.1017 17.0744 12.0212 16.0273 11.9287 14.9806C12.8404 13.6691 13.7766 12.3695 14.6883 11.064L12.6065 8.98871C12.6047 8.74326 12.5841 8.49831 12.5451 8.25597C12.4771 7.45524 12.4341 6.64253 12.3356 5.8418ZM5.50598 14.7957C7.61825 11.8277 9.71203 8.84728 11.8183 5.8728L12.0832 9.0257C11.1655 10.3372 10.2419 11.6308 9.32417 12.9364C10.008 13.6196 10.6912 14.3154 11.3875 14.9991C11.48 16.0457 11.5599 17.1054 11.6649 18.1586H11.6519L8.30802 14.8082C7.37237 14.8207 6.43619 14.8022 5.5 14.8207V14.7957H5.50598Z" fill="white"/>
</g>
<defs>
<clipPath id="clip0_1265_20814">
<rect width="24" height="24" fill="white"/>
</clipPath>
</defs>
</svg>