<svg width="24" height="24" viewBox="0 0 24 24" fill="none" xmlns="http://www.w3.org/2000/svg">
<g clip-path="url(#clip0_1265_20810)">
<path d="M12 24C18.6274 24 24 18.6274 24 12C24 5.37258 18.6274 0 12 0C5.37258 0 0 5.37258 0 12C0 18.6274 5.37258 24 12 24Z" fill="#01AEF0"/>
<path fill-rule="evenodd" clip-rule="evenodd" d="M15.2949 13.8784C15.2865 15.2265 14.5078 16.3744 13.2656 16.8457C12.9744 16.9562 12.6715 17.0374 12.3699 17.1128C12.1899 17.1583 12.0917 17.2474 12.0774 17.4443C12.0592 17.6926 12.0339 17.9403 11.9994 18.1853C11.9578 18.4752 11.8584 18.5415 11.5919 18.4778C11.133 18.3686 11.0836 18.2945 11.1447 17.8129C11.1499 17.7719 11.1557 17.731 11.1603 17.6894C11.2058 17.2948 11.1499 17.2383 10.7722 17.2571C10.6026 17.2656 10.5317 17.3494 10.5155 17.5158C10.4934 17.755 10.47 17.9949 10.431 18.2308C10.392 18.4726 10.2906 18.5324 10.0579 18.4817C9.56129 18.3745 9.52489 18.3192 9.58989 17.794C9.67179 17.1421 9.66984 17.1492 9.06794 16.9679C8.80144 16.8873 8.54274 16.7755 8.28209 16.6721C8.12349 16.6097 8.07149 16.4914 8.11439 16.3153C8.16899 16.091 8.20669 15.8616 8.25349 15.6347C8.33409 15.248 8.52129 15.131 8.87879 15.2714C9.51189 15.5203 10.1619 15.6737 10.8385 15.69C11.4489 15.7049 12.0527 15.6646 12.6098 15.365C12.9777 15.1667 13.2481 14.8762 13.3839 14.4595C13.5854 13.8407 13.4047 13.3402 12.8249 13.0913C12.3472 12.8865 11.8343 12.7728 11.3527 12.5765C10.925 12.4023 10.4804 12.2281 10.1112 11.9544C9.28114 11.3408 9.13619 10.4334 9.31819 9.46425C9.52489 8.3716 10.1937 7.6631 11.1863 7.28675C11.4508 7.1873 11.5704 7.0482 11.575 6.75114C11.5789 6.42939 11.6302 6.10764 11.6692 5.78719C11.6991 5.54084 11.7953 5.47194 12.0254 5.50964C12.5142 5.58959 12.5727 5.66694 12.5246 6.17459C12.5058 6.37284 12.4895 6.57109 12.4661 6.76804C12.4466 6.9338 12.4993 7.00985 12.6728 7.01505C13.0687 7.02675 13.0856 7.0196 13.1324 6.61009C13.1623 6.34684 13.1844 6.08294 13.2201 5.82034C13.2591 5.52914 13.3534 5.46284 13.6218 5.51744C14.0736 5.61039 14.1236 5.67929 14.0794 6.14989C14.0599 6.35594 14.0502 6.56394 14.0144 6.76739C13.9735 7.00139 14.045 7.10995 14.2777 7.1639C14.7203 7.2666 15.1584 7.3966 15.5933 7.5318C15.9202 7.6332 15.9332 7.67025 15.8702 8.0102C15.8331 8.21365 15.7961 8.41775 15.748 8.6186C15.6583 8.9969 15.4698 9.10935 15.1097 8.98845C14.4935 8.78045 13.8747 8.5926 13.2214 8.56465C12.6494 8.5406 12.0852 8.54905 11.5886 8.9085C10.8892 9.4142 10.8853 10.4425 11.6289 10.8754C12.1021 11.151 12.6488 11.2914 13.1616 11.4942C13.4743 11.6177 13.7954 11.7243 14.0957 11.8738C14.9004 12.2755 15.304 12.947 15.2949 13.8791" fill="white"/>
</g>
<defs>
<clipPath id="clip0_1265_20810">
<rect width="24" height="24" fill="white"/>
</clipPath>
</defs>
</svg>
