<svg width="24" height="24" viewBox="0 0 24 24" fill="none" xmlns="http://www.w3.org/2000/svg">
<path fill-rule="evenodd" clip-rule="evenodd" d="M12 22C6.48583 22 2 17.5142 2 12C2 6.48583 6.48583 2 12 2C17.5142 2 22 6.48583 22 12C22 17.5142 17.5142 22 12 22ZM12 3.66667C7.405 3.66667 3.66667 7.405 3.66667 12C3.66667 16.595 7.405 20.3333 12 20.3333C16.595 20.3333 20.3333 16.595 20.3333 12C20.3333 7.405 16.595 3.66667 12 3.66667ZM15.3066 12.7942L16.15 15.7775C16.2775 16.225 16.1166 16.5292 16.01 16.6708C15.8525 16.8792 15.55 17.0275 15.2883 17.0275C15.0833 17.0275 14.8825 16.9617 14.6916 16.8325L11.9525 14.9583L9.21748 16.83C9.02332 16.9617 8.82165 17.0275 8.61665 17.0275C8.35582 17.0275 8.05332 16.8792 7.89582 16.6708C7.78832 16.5292 7.62832 16.225 7.75582 15.7767L8.59915 12.7942L6.42665 10.5833C6.13082 10.2825 6.03498 9.8875 6.16832 9.52584C6.30248 9.16417 6.63248 8.9275 7.05082 8.89083L9.90165 8.62333L11.0508 5.975C11.2191 5.585 11.565 5.3425 11.9525 5.3425C12.3416 5.3425 12.6875 5.58583 12.855 5.97917L14.0033 8.62333L16.8608 8.89C17.2791 8.92917 17.6058 9.16833 17.7383 9.52917C17.87 9.89 17.7733 10.2833 17.48 10.5825L15.3066 12.7942ZM13.7008 10.2692C13.2075 10.2225 12.7283 9.87416 12.5333 9.42166L11.9525 8.08416L11.3716 9.42333C11.175 9.87583 10.6958 10.2225 10.2066 10.2692L8.60248 10.42L9.88498 11.725C10.2283 12.0725 10.375 12.645 10.2408 13.1167L9.89164 14.3492L11.1975 13.4558C11.4091 13.31 11.6775 13.23 11.9516 13.23C12.2275 13.23 12.4958 13.31 12.7091 13.4567L14.0141 14.35L13.665 13.1133C13.5308 12.645 13.6775 12.0725 14.0225 11.7242L15.3041 10.4192L13.7008 10.2692Z" fill="#6B7084"/>
</svg>
