<svg viewBox="0 0 24 24" fill="none" xmlns="http://www.w3.org/2000/svg">
<path fill-rule="evenodd" clip-rule="evenodd" d="M10.7419 3.19149C11.2074 2.07248 12.7926 2.07248 13.258 3.19149L15.3283 8.16901L20.7019 8.59981C21.91 8.69666 22.3998 10.2043 21.4794 10.9927L17.3852 14.4998L18.6361 19.7436C18.9173 20.9224 17.6348 21.8542 16.6006 21.2225L12 18.4124L7.39937 21.2225C6.3651 21.8542 5.08264 20.9224 5.36385 19.7436L6.61468 14.4998L2.52053 10.9927C1.60011 10.2043 2.08996 8.69666 3.29803 8.59981L8.67167 8.16901L10.7419 3.19149ZM12 4.33317L10.0933 8.9174C9.89707 9.38915 9.45342 9.71147 8.94414 9.7523L3.99508 10.1491L7.76574 13.379C8.15376 13.7114 8.32322 14.233 8.20467 14.7299L7.05267 19.5594L11.2898 16.9714C11.7258 16.7051 12.2742 16.7051 12.7102 16.9714L16.9473 19.5594L15.7953 14.7299C15.6767 14.233 15.8462 13.7114 16.2342 13.379L20.0048 10.1491L15.0558 9.7523C14.5465 9.71147 14.1029 9.38914 13.9067 8.9174L12 4.33317Z" fill="currentColor"/>
</svg>