<svg viewBox="0 0 24 24" fill="none" xmlns="http://www.w3.org/2000/svg">
<path d="M12 22C17.5228 22 22 17.5228 22 12C22 6.47715 17.5228 2 12 2C6.47715 2 2 6.47715 2 12C2 17.5228 6.47715 22 12 22Z" fill="#01AEF0"/>
<path fill-rule="evenodd" clip-rule="evenodd" d="M15.1681 13.8061C15.16 15.1024 14.4112 16.2061 13.2169 16.6593C12.9369 16.7655 12.6456 16.8436 12.3556 16.9161C12.1825 16.9599 12.0881 17.0455 12.0744 17.2349C12.0569 17.4736 12.0325 17.7118 11.9994 17.9474C11.9594 18.2261 11.8637 18.2899 11.6075 18.2286C11.1662 18.1236 11.1187 18.0524 11.1775 17.5893C11.1825 17.5499 11.1881 17.5105 11.1925 17.4705C11.2362 17.0911 11.1825 17.0368 10.8194 17.0549C10.6562 17.063 10.5881 17.1436 10.5725 17.3036C10.5512 17.5336 10.5287 17.7643 10.4912 17.9911C10.4537 18.2236 10.3562 18.2811 10.1325 18.2324C9.65499 18.1293 9.61999 18.0761 9.68249 17.5711C9.76124 16.9443 9.75936 16.9511 9.18061 16.7768C8.92436 16.6993 8.67561 16.5918 8.42499 16.4924C8.27249 16.4324 8.22249 16.3186 8.26374 16.1493C8.31624 15.9336 8.35249 15.713 8.39749 15.4949C8.47499 15.123 8.65499 15.0105 8.99874 15.1455C9.60749 15.3849 10.2325 15.5324 10.8831 15.548C11.47 15.5624 12.0506 15.5236 12.5862 15.2355C12.94 15.0449 13.2 14.7655 13.3306 14.3649C13.5244 13.7699 13.3506 13.2886 12.7931 13.0493C12.3337 12.8524 11.8406 12.743 11.3775 12.5543C10.9662 12.3868 10.5387 12.2193 10.1837 11.9561C9.38561 11.3661 9.24624 10.4936 9.42124 9.56177C9.61999 8.51115 10.2631 7.8299 11.2175 7.46802C11.4719 7.3724 11.5869 7.23865 11.5912 6.95302C11.595 6.64365 11.6444 6.33427 11.6819 6.02615C11.7106 5.78927 11.8031 5.72302 12.0244 5.75927C12.4944 5.83615 12.5506 5.91052 12.5044 6.39865C12.4862 6.58927 12.4706 6.7799 12.4481 6.96927C12.4294 7.12865 12.48 7.20177 12.6469 7.20677C13.0275 7.21802 13.0437 7.21115 13.0887 6.8174C13.1175 6.56427 13.1387 6.31052 13.1731 6.05802C13.2106 5.77802 13.3012 5.71427 13.5594 5.76677C13.9937 5.85615 14.0419 5.9224 13.9994 6.3749C13.9806 6.57302 13.9712 6.77302 13.9369 6.96865C13.8975 7.19365 13.9662 7.29802 14.19 7.3499C14.6156 7.44865 15.0369 7.57365 15.455 7.70365C15.7694 7.80115 15.7819 7.83677 15.7212 8.16365C15.6856 8.35927 15.65 8.55552 15.6037 8.74865C15.5175 9.1124 15.3362 9.22052 14.99 9.10427C14.3975 8.90427 13.8025 8.72365 13.1744 8.69677C12.6244 8.67365 12.0819 8.68177 11.6044 9.0274C10.9319 9.51365 10.9281 10.5024 11.6431 10.9186C12.0981 11.1836 12.6237 11.3186 13.1169 11.5136C13.4175 11.6324 13.7262 11.7349 14.015 11.8786C14.7887 12.2649 15.1769 12.9105 15.1681 13.8068" fill="white"/>
</svg>