<svg width="24" height="24" viewBox="0 0 24 24" fill="none" xmlns="http://www.w3.org/2000/svg">
<path fill-rule="evenodd" clip-rule="evenodd" d="M18.5462 4.27654C19.7451 3.52724 21.3002 4.38915 21.3002 5.80294V17.1944C21.3002 18.6082 19.7451 19.4701 18.5462 18.7208L9.43299 13.0251C8.30499 12.3201 8.30499 10.6773 9.43299 9.97229L18.5462 4.27654ZM19.7002 5.80294C19.7002 5.64585 19.5274 5.55008 19.3942 5.63334L10.281 11.3291C10.1557 11.4074 10.1557 11.59 10.281 11.6683L19.3942 17.364C19.5274 17.4473 19.7002 17.3515 19.7002 17.1944V5.80294Z" fill="#6B7084"/>
<path fill-rule="evenodd" clip-rule="evenodd" d="M4.5002 4.19869C4.94202 4.19869 5.3002 4.55686 5.3002 4.99869V18.9987C5.3002 19.4405 4.94202 19.7987 4.5002 19.7987C4.05837 19.7987 3.7002 19.4405 3.7002 18.9987V4.99869C3.7002 4.55686 4.05837 4.19869 4.5002 4.19869Z" fill="#6B7084"/>
</svg>
