<svg viewBox="0 0 24 24" fill="none" xmlns="http://www.w3.org/2000/svg">
<path fill-rule="evenodd" clip-rule="evenodd" d="M12 22C6.48583 22 2 17.5142 2 12C2 6.48583 6.48583 2 12 2C17.5142 2 22 6.48583 22 12C22 17.5142 17.5142 22 12 22ZM12 3.66667C7.405 3.66667 3.66667 7.405 3.66667 12C3.66667 16.595 7.405 20.3333 12 20.3333C16.595 20.3333 20.3333 16.595 20.3333 12C20.3333 7.405 16.595 3.66667 12 3.66667Z" fill="currentColor"/>
<path fill-rule="evenodd" clip-rule="evenodd" d="M8 7C7.44772 7 7 7.44772 7 8V16C7 16.5523 7.44772 17 8 17C8.55228 17 9 16.5523 9 16V12.4841C9.07778 12.6253 9.19226 12.7509 9.34345 12.8462L14.7171 16.2307C15.383 16.6501 16.25 16.1715 16.25 15.3845V8.6155C16.25 7.82851 15.383 7.34993 14.7171 7.76935L9.34345 11.1538C9.19226 11.2491 9.07778 11.3747 9 11.5159V8C9 7.44772 8.55228 7 8 7Z" fill="currentColor"/>
</svg>