<svg width="24" height="24" viewBox="0 0 24 24" fill="none" xmlns="http://www.w3.org/2000/svg">
<path fill-rule="evenodd" clip-rule="evenodd" d="M0.000244139 20.5515C0.000244139 22.456 1.54411 23.9999 3.44832 23.9999H20.5516C20.6664 23.9999 21.0292 23.9941 21.4869 23.8648C21.6998 23.8048 22.3913 23.5843 22.9899 22.9895C23.9307 22.0559 23.9928 20.8415 24 20.5515V13.8542C19.3266 13.7513 14.2612 13.8552 8.86404 14.2748C5.77355 14.5155 2.8161 14.8405 0.000244139 15.2269V20.5515Z" fill="#1C2846"/>
<path fill-rule="evenodd" clip-rule="evenodd" d="M8.75614 12.0276C14.1801 11.8171 19.2776 11.8926 23.9997 12.1545V3.44842C23.9997 1.54387 22.4559 0 20.5517 0H3.44842C1.54387 0 0 1.54387 0 3.44842V12.606C2.79597 12.3451 5.71742 12.1459 8.75614 12.0276Z" fill="#606DB3"/>
<path fill-rule="evenodd" clip-rule="evenodd" d="M8.75614 12.0277C5.71742 12.146 2.79597 12.3452 0 12.6061V15.2269C2.81586 14.8405 5.77331 14.5154 8.86379 14.2751C14.261 13.8551 19.3263 13.7512 23.9997 13.8541V12.1545C19.2776 11.8926 14.1801 11.8172 8.75614 12.0277Z" fill="#FEFEFE"/>
</svg>
