<svg viewBox="0 0 24 24" fill="none" xmlns="http://www.w3.org/2000/svg">
<path d="M19.1772 5.8143L16.769 7.04124L5.14013 12.9644C5.1008 12.6645 5.08102 12.3623 5.08089 12.0599C5.08248 10.853 5.39935 9.66742 6.0001 8.62067C6.60086 7.57392 7.46465 6.70227 8.50593 6.09207C9.54721 5.48187 10.7298 5.1543 11.9367 5.14179C13.1435 5.12928 14.3327 5.43228 15.3864 6.02077L16.7648 5.31845L16.9704 5.21352C15.7077 4.29703 14.2162 3.74751 12.6607 3.62569C11.1052 3.50387 9.54629 3.81449 8.1563 4.52324C6.76631 5.23198 5.59934 6.31124 4.78437 7.64173C3.9694 8.97223 3.53817 10.5021 3.53833 12.0624C3.53833 12.2779 3.54651 12.4925 3.56287 12.7063C3.58578 13.0091 3.51863 13.3119 3.36988 13.5766C3.22112 13.8413 2.99739 14.056 2.72686 14.1939L2 14.5645V16.2932L4.13996 15.2025L4.83297 14.8488L5.51582 14.5011L17.7751 8.25465L19.1526 7.55318L22 6.102V4.37413L19.1772 5.8143ZM22 7.83156L6.21222 15.8702L4.83466 16.5733L2 18.0177V19.7447L4.8152 18.3105L7.22339 17.0836L18.8641 11.1519C18.9035 11.4538 18.9232 11.7579 18.9233 12.0624C18.9226 13.2707 18.6058 14.4578 18.0045 15.5058C17.4031 16.5538 16.5381 17.4263 15.4954 18.0367C14.4526 18.6471 13.2683 18.9742 12.06 18.9854C10.8518 18.9966 9.66164 18.6916 8.60772 18.1006L8.5231 18.1455L7.02877 18.907C8.29119 19.8236 9.7824 20.3732 11.3377 20.4954C12.8929 20.6175 14.4516 20.3073 15.8416 19.599C17.2316 18.8907 18.3988 17.812 19.2141 16.482C20.0294 15.152 20.4612 13.6224 20.4617 12.0624C20.4617 11.8449 20.4532 11.6275 20.4371 11.4125C20.4143 11.1099 20.4813 10.8072 20.6299 10.5426C20.7785 10.2779 21.002 10.063 21.2723 9.92498L22 9.55436V7.83156Z" fill="black"/>
</svg>