<svg width="24" height="24" viewBox="0 0 24 24" fill="none" xmlns="http://www.w3.org/2000/svg">
<path fill-rule="evenodd" clip-rule="evenodd" d="M12 22C6.48583 22 2 17.5142 2 12C2 6.48583 6.48583 2 12 2C17.5142 2 22 6.48583 22 12C22 17.5142 17.5142 22 12 22ZM12 3.66667C7.405 3.66667 3.66667 7.405 3.66667 12C3.66667 16.595 7.405 20.3333 12 20.3333C16.595 20.3333 20.3333 16.595 20.3333 12C20.3333 7.405 16.595 3.66667 12 3.66667ZM8.83333 7.83333C8.28105 7.83333 7.83333 8.28105 7.83333 8.83333V15.1667C7.83333 15.719 8.28105 16.1667 8.83333 16.1667H15.1667C15.719 16.1667 16.1667 15.719 16.1667 15.1667V8.83333C16.1667 8.28105 15.719 7.83333 15.1667 7.83333H8.83333Z" fill="#6B7084"/>
</svg>
