<svg viewBox="0 0 24 24" fill="none" xmlns="http://www.w3.org/2000/svg">
<g clip-path="url(#clip0_1265_20802)">
<path d="M12 24C18.6274 24 24 18.6274 24 12C24 5.37258 18.6274 0 12 0C5.37258 0 0 5.37258 0 12C0 18.6274 5.37258 24 12 24Z" fill="#2683FF"/>
<path d="M17.713 13.8906C17.98 14.0508 18.1741 14.3087 18.254 14.6097C18.334 14.9106 18.2935 15.2309 18.1412 15.5025C17.8142 16.0765 17.0709 16.2801 16.4861 15.9594C16.4288 15.9282 16.3792 15.8913 16.3283 15.8544L13.1936 17.626C13.2012 17.6833 13.2056 17.7412 13.2063 17.7991C13.2063 17.8672 13.2063 17.9289 13.1936 17.9964C13.0866 18.6454 12.4636 19.0896 11.8025 18.9846C11.1419 18.8796 10.6888 18.2681 10.7958 17.6203L7.64132 15.8359C7.59248 15.8709 7.54216 15.9038 7.4905 15.9346C7.43959 15.9594 7.38932 15.9899 7.33269 16.0084C7.03531 16.1275 6.70302 16.1251 6.40745 16.0015C6.11187 15.878 5.87669 15.6432 5.75261 15.3478C5.50124 14.7369 5.80351 14.0452 6.42651 13.7983V10.2296C6.36931 10.2112 6.31443 10.1862 6.26297 10.1551C6.21577 10.1259 6.1695 10.0951 6.12424 10.0629C5.95274 9.93827 5.81786 9.76989 5.73368 9.57534C5.6495 9.38078 5.61911 9.16719 5.6457 8.95688C5.67386 8.74607 5.75769 8.54658 5.88855 8.37892C6.01941 8.21126 6.19258 8.0815 6.39024 8.00298C6.58927 7.92273 6.80577 7.89567 7.01843 7.92446C7.23109 7.95325 7.4326 8.03689 7.60314 8.16716L10.7888 6.35799C10.7824 6.30263 10.776 6.25363 10.776 6.19763C10.776 5.54345 11.336 5 12.0036 5C12.6705 5 13.2177 5.53072 13.2184 6.19126C13.2184 6.24726 13.212 6.29626 13.2056 6.35226L16.4161 8.17352C16.5556 8.07129 16.7151 7.99957 16.8842 7.96305C17.0532 7.92653 17.2281 7.92603 17.3974 7.96156C17.5667 7.9971 17.7266 8.06789 17.8667 8.16931C18.0068 8.27074 18.124 8.40053 18.2106 8.55025C18.5371 9.12424 18.3232 9.85287 17.7378 10.1742C17.6812 10.1984 17.6245 10.2296 17.5679 10.2481V13.8231C17.6182 13.8422 17.6665 13.8645 17.7123 13.8906H17.713ZM17.9338 15.3847C17.996 15.2821 18.037 15.1681 18.0545 15.0494C18.072 14.9307 18.0656 14.8097 18.0356 14.6935C18.0057 14.5773 17.9528 14.4682 17.8802 14.3728C17.8075 14.2773 17.7165 14.1973 17.6124 14.1375C17.441 14.0387 17.2427 13.9968 17.046 14.018C16.8493 14.0391 16.6644 14.1222 16.5179 14.2552L15.0759 13.4343C15.2485 13.0857 15.2874 12.6859 15.1854 12.3105C15.0834 11.9351 14.8475 11.6101 14.5223 11.3967C14.4818 11.2604 14.4289 11.1282 14.3645 11.0015L16.5427 9.79115C16.7693 10.0011 17.0881 10.0871 17.3922 10.0202C17.5107 9.99466 17.623 9.94581 17.7224 9.8765C17.8218 9.80719 17.9065 9.71882 17.9715 9.61652C18.0365 9.51421 18.0806 9.40001 18.1011 9.28055C18.1216 9.16108 18.1181 9.03874 18.091 8.92061C17.9777 8.42679 17.4737 8.12452 16.971 8.23525C16.8525 8.26076 16.7403 8.30954 16.6408 8.37878C16.5413 8.44801 16.4566 8.53631 16.3916 8.63855C16.3265 8.74079 16.2824 8.85494 16.2618 8.97436C16.2412 9.09379 16.2446 9.21612 16.2716 9.33424L14.0685 10.5631C13.6409 10.0629 12.281 9.72942 12.281 9.72942V7.00644C12.4171 6.96733 12.5412 6.89496 12.6423 6.79586C12.7434 6.69677 12.8183 6.57406 12.8601 6.43881C12.8929 6.33102 12.9039 6.21778 12.8924 6.1057C12.881 5.99361 12.8473 5.88494 12.7934 5.786C12.7395 5.68707 12.6664 5.59987 12.5785 5.52949C12.4905 5.45911 12.3894 5.40696 12.281 5.37609C11.8216 5.24054 11.3367 5.48745 11.1979 5.93863C11.1652 6.04638 11.1543 6.15955 11.1658 6.27156C11.1773 6.38358 11.211 6.49218 11.2649 6.59104C11.3188 6.6899 11.3918 6.77703 11.4798 6.84737C11.5677 6.91771 11.6687 6.96983 11.777 7.00071V9.77906C11.777 9.77906 11.035 10.0196 10.7455 10.2538C10.4379 10.2609 10.1362 10.3393 9.86412 10.4829L7.79277 9.31579C7.82767 9.16997 7.82521 9.01771 7.78561 8.8731C7.74601 8.72849 7.67055 8.59621 7.56623 8.48852C7.39755 8.31067 7.1656 8.20641 6.92061 8.19831C6.67562 8.19021 6.4373 8.27892 6.25724 8.44525C6.16807 8.52614 6.09603 8.62409 6.04537 8.7333C5.99472 8.84252 5.96648 8.96079 5.96233 9.08111C5.95817 9.20143 5.97819 9.32136 6.02119 9.43381C6.0642 9.54626 6.12931 9.64894 6.21269 9.73579C6.38149 9.91368 6.61354 10.018 6.85863 10.0261C7.10373 10.0342 7.34215 9.94542 7.52232 9.77906L9.39194 10.8284C9.06402 11.1474 8.86193 11.5737 8.82266 12.0295C8.7834 12.4852 8.90958 12.9399 9.17813 13.3102L7.53505 14.2425C7.42116 14.1387 7.2837 14.0643 7.13457 14.0256C6.98544 13.9869 6.82912 13.9851 6.67914 14.0204C6.56071 14.0468 6.44871 14.0964 6.34962 14.1665C6.25054 14.2365 6.16635 14.3255 6.10194 14.4284C6.03753 14.5312 5.99418 14.6458 5.97442 14.7655C5.95465 14.8852 5.95885 15.0077 5.98679 15.1257C6.10706 15.6183 6.61105 15.9218 7.11314 15.8041C7.2315 15.7777 7.34345 15.7281 7.44248 15.6581C7.54152 15.5881 7.62568 15.4991 7.69008 15.3964C7.75448 15.2936 7.79784 15.1791 7.81766 15.0594C7.83747 14.9398 7.83334 14.8174 7.8055 14.6994L9.56185 13.7054C10.0137 14.0637 10.6036 14.2062 11.1731 14.0942C11.3487 14.1744 11.5295 14.2425 11.714 14.2978V16.8916C11.5892 16.9303 11.4733 16.9933 11.3729 17.077C11.2726 17.1606 11.1897 17.2633 11.1292 17.3791C11.072 17.4917 11.0378 17.6146 11.0288 17.7405C11.0197 17.8665 11.0359 17.993 11.0764 18.1126C11.1169 18.2322 11.1808 18.3426 11.2645 18.4371C11.3483 18.5317 11.45 18.6086 11.5638 18.6633C11.602 18.6824 11.6396 18.7002 11.6835 18.7129C11.6898 18.7129 11.6962 18.7193 11.7026 18.7193C12.218 18.8733 12.7666 18.5952 12.9237 18.0893C12.9614 17.9684 12.9745 17.8413 12.9625 17.7153C12.9504 17.5893 12.9134 17.4669 12.8536 17.3554C12.7938 17.2439 12.7123 17.1453 12.614 17.0656C12.5157 16.9859 12.4025 16.9265 12.281 16.891V14.3481C12.281 14.3481 12.7532 14.3048 12.9734 14.2368C13.5875 14.4786 14.29 14.3354 14.7552 13.8728L16.2277 14.7191C16.1825 14.9095 16.2004 15.1095 16.2788 15.2888C16.3572 15.4681 16.4918 15.617 16.6623 15.7131C16.8753 15.8344 17.1271 15.868 17.3645 15.8068C17.6018 15.7457 17.806 15.5945 17.9338 15.3854V15.3847ZM6.89932 14.5206C7.03932 14.5212 7.16787 14.5938 7.23914 14.7115C7.27126 14.7705 7.28851 14.8365 7.28941 14.9037C7.28824 15.0061 7.24652 15.1038 7.1734 15.1755C7.10028 15.2472 7.00172 15.287 6.89932 15.2861C6.79682 15.2871 6.6981 15.2474 6.62484 15.1757C6.55158 15.104 6.50978 15.0062 6.5086 14.9037C6.5086 14.6917 6.6836 14.5206 6.89932 14.5206ZM12.4134 6.1919C12.4117 6.29425 12.3697 6.3918 12.2966 6.4634C12.2234 6.535 12.125 6.57487 12.0227 6.57435C11.9203 6.5752 11.8217 6.53542 11.7486 6.46373C11.6755 6.39205 11.6337 6.29429 11.6326 6.1919C11.6326 5.97999 11.8076 5.80881 12.0227 5.80881C12.239 5.80881 12.4134 5.98063 12.4134 6.1919ZM17.1721 9.5137C17.0699 9.51355 16.9718 9.47336 16.8989 9.40175C16.8259 9.33013 16.784 9.23279 16.782 9.13061C16.782 8.91934 16.957 8.74752 17.1721 8.74752C17.3884 8.74752 17.5628 8.91934 17.5628 9.13061C17.5616 9.23311 17.5198 9.33096 17.4466 9.40267C17.3733 9.47437 17.2746 9.51408 17.1721 9.51306V9.5137ZM7.08132 8.77806C7.12556 8.80193 7.16454 8.83446 7.19592 8.87372C7.22731 8.91298 7.25046 8.95816 7.26401 9.00657C7.27755 9.05497 7.2812 9.10561 7.27474 9.15546C7.26828 9.20531 7.25184 9.25334 7.22641 9.2967C7.17491 9.38543 7.09038 9.45017 6.99129 9.47677C6.89219 9.50336 6.7866 9.48964 6.6976 9.43861C6.65323 9.41487 6.61413 9.38241 6.58264 9.34316C6.55115 9.30392 6.52793 9.25871 6.51437 9.21025C6.50082 9.1618 6.49721 9.1111 6.50376 9.06121C6.51032 9.01133 6.5269 8.96328 6.55251 8.91997C6.60401 8.83124 6.68854 8.7665 6.78763 8.7399C6.88673 8.71331 6.99232 8.72703 7.08132 8.77806ZM17.3293 14.5944C17.3734 14.6183 17.4123 14.6508 17.4436 14.69C17.475 14.7292 17.4981 14.7743 17.5116 14.8226C17.5252 14.871 17.5288 14.9215 17.5224 14.9713C17.516 15.0211 17.4997 15.0691 17.4743 15.1124C17.4382 15.1703 17.3881 15.2182 17.3286 15.2517C17.2691 15.2852 17.2022 15.3031 17.1339 15.3039C17.0652 15.3051 16.9974 15.2882 16.9373 15.2549C16.8773 15.2216 16.827 15.1731 16.7915 15.1143C16.7567 15.0559 16.7383 14.9892 16.7383 14.9212C16.7383 14.8532 16.7567 14.7864 16.7915 14.728C16.827 14.6692 16.8773 14.6207 16.9373 14.5874C16.9974 14.5541 17.0652 14.5372 17.1339 14.5384C17.2026 14.5406 17.2696 14.5596 17.3293 14.5938V14.5944ZM11.6326 17.7857C11.6332 17.7809 11.6354 17.7764 11.6389 17.773C11.6561 17.673 11.7119 17.5837 11.7943 17.5244C11.8766 17.4652 11.979 17.4406 12.0793 17.4561C12.1796 17.4695 12.2705 17.5223 12.3319 17.6027C12.3934 17.6831 12.4204 17.7847 12.407 17.885C12.3881 17.9777 12.3377 18.061 12.2642 18.1207C12.1907 18.1804 12.0988 18.2127 12.0042 18.2121C11.9513 18.2098 11.8995 18.1968 11.8518 18.1739C11.8041 18.151 11.7616 18.1186 11.7269 18.0787C11.6921 18.0388 11.6658 17.9923 11.6496 17.9419C11.6334 17.8915 11.6276 17.8384 11.6326 17.7857ZM13.8738 11.8771C14.061 11.9347 14.2246 12.0511 14.3403 12.2091C14.456 12.3671 14.5176 12.5582 14.5159 12.754C14.5159 12.7852 14.5095 12.8164 14.5095 12.8469C14.5032 12.8718 14.5032 12.8966 14.4968 12.9208V12.9399C14.4841 12.9952 14.4714 13.0506 14.4459 13.1059C14.3761 13.2761 14.2554 13.4206 14.1004 13.5196C14.0622 13.5387 14.0304 13.5571 13.9935 13.5756L13.9744 13.5819C13.9006 13.6162 13.8221 13.6391 13.7415 13.65L13.7096 13.6558C13.6657 13.6558 13.6282 13.6621 13.5843 13.6621C13.3787 13.6621 13.1796 13.5947 13.0179 13.4706L12.8474 13.5444C12.7952 13.5698 12.7405 13.5883 12.6838 13.6004H12.6775C12.2879 13.7047 11.8737 13.6628 11.5129 13.4827H11.5066C11.469 13.4642 11.4315 13.4458 11.3997 13.4273L11.3869 13.4209C11.3494 13.3968 11.3182 13.3719 11.28 13.3471C11.1274 13.414 10.9623 13.4476 10.7958 13.4458C10.7448 13.4458 10.7009 13.4458 10.657 13.4394L10.6316 13.433L10.5183 13.4152L10.5056 13.4089C10.4652 13.4013 10.4254 13.3909 10.3866 13.3777C10.2851 13.344 10.1879 13.2985 10.097 13.2421C9.90744 13.1248 9.75806 12.9526 9.66876 12.7483C9.66876 12.7356 9.6624 12.7292 9.65603 12.7171C9.64864 12.6961 9.64014 12.6755 9.63058 12.6554C9.62308 12.6415 9.61669 12.627 9.61149 12.6121C9.60512 12.5937 9.59303 12.5752 9.59303 12.5568C9.59179 12.5377 9.58749 12.5191 9.58031 12.5014C9.57394 12.4823 9.57394 12.4759 9.56758 12.4518C9.56121 12.4269 9.56121 12.4028 9.55549 12.3779C9.55549 12.3589 9.54912 12.3468 9.54912 12.3347C9.54385 12.2957 9.54172 12.2563 9.54276 12.2169C9.54202 12.1696 9.54415 12.1222 9.54912 12.075C9.54912 12.0566 9.55549 12.0445 9.55549 12.0318C9.56185 11.9949 9.56821 11.9643 9.57458 11.9331C9.58094 11.9204 9.58094 11.9026 9.58731 11.8899C9.59483 11.8561 9.60526 11.8231 9.61849 11.7912C9.62485 11.7785 9.62485 11.7728 9.63121 11.7607C9.64509 11.7223 9.6619 11.6851 9.68149 11.6493L9.68785 11.6366C9.79119 11.4471 9.94153 11.2875 10.1244 11.1729C10.3073 11.0583 10.5166 10.9927 10.7321 10.9824C10.7512 10.976 10.7703 10.976 10.7958 10.976C10.8715 10.976 10.9472 10.9824 11.0223 10.9951C11.0541 10.957 11.0853 10.9264 11.1228 10.8895L11.1547 10.859C11.1922 10.8278 11.2234 10.7972 11.2616 10.7724L11.2807 10.7597C11.3055 10.7412 11.3494 10.7107 11.3685 10.698C11.3876 10.6859 11.4187 10.6611 11.4378 10.6547C11.46 10.647 11.4811 10.6368 11.5008 10.6241C11.5384 10.6051 11.6014 10.5745 11.6389 10.5624L11.6707 10.5376C11.9228 10.4397 12.1958 10.4079 12.4636 10.4453H12.47C12.5209 10.4504 12.5712 10.4581 12.6208 10.4695H12.6272C12.6781 10.4759 12.722 10.495 12.7723 10.5071L12.7786 10.5134C12.8289 10.5312 12.8728 10.5497 12.9167 10.5688L12.9295 10.5751C12.9727 10.593 13.0147 10.6133 13.0555 10.6362L13.0618 10.6426C13.0994 10.6617 13.1433 10.6922 13.1815 10.7164L13.1878 10.7228C13.2317 10.7476 13.2693 10.7781 13.3068 10.8093L13.3132 10.8157C13.5237 10.9926 13.6861 11.2198 13.7854 11.4762V11.4826C13.7981 11.5195 13.8108 11.5628 13.8235 11.5997C13.8235 11.6124 13.8299 11.6245 13.8299 11.6366C13.8401 11.6684 13.849 11.7021 13.8547 11.7352L13.8738 11.8771Z" fill="white"/>
</g>
<defs>
<clipPath id="clip0_1265_20802">
<rect width="24" height="24" fill="white"/>
</clipPath>
</defs>
</svg>