<svg width="24" height="24" viewBox="0 0 24 24" fill="none" xmlns="http://www.w3.org/2000/svg">
<g clip-path="url(#clip0_1265_20794)">
<path d="M12 24C18.6274 24 24 18.6274 24 12C24 5.37258 18.6274 0 12 0C5.37258 0 0 5.37258 0 12C0 18.6274 5.37258 24 12 24Z" fill="#2DC4E7"/>
<path d="M6.02452 7.21739C6.67445 7.21739 7.34622 7.1737 7.99675 7.23195C8.2856 7.55661 8.35054 8.01174 8.57446 8.38737C11.4934 8.40194 14.4262 8.38737 17.3451 8.38737C17.5617 8.40194 17.8288 8.40922 17.9374 8.62586C18.0672 8.86435 17.9738 9.14592 17.8506 9.36257C17.2583 10.3669 16.6946 11.3858 16.1169 12.3968C15.9002 12.7584 15.7552 13.1626 15.4305 13.4448C15.1635 13.6687 14.7946 13.6827 14.4553 13.6827H10.4089C10.1923 13.6827 9.96109 13.6614 9.83122 13.4879C9.4125 13.0182 9.18797 12.4186 8.91368 11.8694C8.43867 10.9184 7.97381 9.96239 7.51917 9.0015C7.42511 8.78485 7.30981 8.59006 7.20118 8.38737C6.81888 8.38737 6.43535 8.38737 6.06033 8.37281C5.98751 7.9905 5.98751 7.6003 6.02392 7.21739H6.02452ZM10.5831 14.463C10.8771 14.3932 11.1827 14.3882 11.4788 14.4485C11.8107 14.5213 12.1002 14.7737 12.1797 15.1063C12.2659 15.4886 12.2659 15.9013 12.1142 16.269C11.9697 16.6015 11.6087 16.7605 11.2694 16.7897C10.8792 16.8182 10.4314 16.7897 10.1419 16.5002C9.83183 16.1537 9.83183 15.6482 9.89676 15.2143C9.93985 14.8532 10.2287 14.5425 10.5825 14.463H10.5831ZM14.195 14.463C14.5561 14.3842 14.9463 14.3908 15.2934 14.5207C15.6253 14.6584 15.7989 15.0195 15.8274 15.3587C15.8711 15.7562 15.8274 16.2113 15.5385 16.5148C15.2715 16.7678 14.8813 16.8036 14.5275 16.7963C14.1804 16.7824 13.8054 16.6519 13.6246 16.3273C13.4523 15.9751 13.4062 15.5745 13.4941 15.1925C13.5669 14.8387 13.8412 14.5431 14.195 14.463Z" fill="white"/>
</g>
<defs>
<clipPath id="clip0_1265_20794">
<rect width="24" height="24" fill="white"/>
</clipPath>
</defs>
</svg>
