<svg width="24" height="24" viewBox="0 0 24 24" fill="none" xmlns="http://www.w3.org/2000/svg">
<g clip-path="url(#clip0_1265_20790)">
<path d="M12 24C18.6274 24 24 18.6274 24 12C24 5.37258 18.6274 0 12 0C5.37258 0 0 5.37258 0 12C0 18.6274 5.37258 24 12 24Z" fill="#1387C9"/>
<path d="M12.0314 13.4022L17.7005 10.1026L12.0314 6.74397L6.41907 10.1026L12.0314 13.4022ZM6.1189 11.6768C6.11878 11.7553 6.13923 11.8324 6.17821 11.9005C6.2172 11.9687 6.27335 12.0254 6.34108 12.065L12.0297 15.3788L17.8116 11.9587C17.878 11.9203 17.9533 11.9 18.03 11.9C18.1067 11.9 18.1821 11.9201 18.2485 11.9585C18.3149 11.9968 18.3701 12.0519 18.4084 12.1184C18.4468 12.1848 18.467 12.2601 18.4669 12.3368V13.8885C18.4669 13.9644 18.4472 14.0389 18.4099 14.1048C18.3725 14.1708 18.3186 14.226 18.2536 14.2649L12.2518 17.8476C12.1853 17.8874 12.1092 17.9085 12.0317 17.9088C11.9541 17.9091 11.8779 17.8886 11.811 17.8493L5.65386 14.2295C5.58291 14.1875 5.53138 14.1192 5.51048 14.0394C5.48957 13.9597 5.50096 13.8749 5.54218 13.8035C5.56243 13.7681 5.58948 13.7372 5.62177 13.7124C5.65406 13.6876 5.69094 13.6695 5.73029 13.659C5.76964 13.6486 5.81067 13.646 5.851 13.6516C5.89133 13.6571 5.93017 13.6706 5.96526 13.6912L12.0297 17.2561L17.8483 13.7828V12.6601L12.2507 15.9709C12.1844 16.0102 12.1088 16.0311 12.0317 16.0314C11.9546 16.0317 11.8788 16.0114 11.8122 15.9726L6.03144 12.6045C5.8695 12.5098 5.73522 12.3744 5.64201 12.2116C5.54879 12.0488 5.4999 11.8644 5.50023 11.6768V10.2155C5.50004 10.1499 5.51714 10.0855 5.54982 10.0286C5.58249 9.97178 5.62958 9.92455 5.68633 9.89171C5.74309 9.85887 5.8075 9.84157 5.87307 9.84157C5.93864 9.84157 6.00305 9.85886 6.05981 9.8917L6.41907 10.1026L5.96763 10.3727C5.92445 10.3988 5.87553 10.4139 5.82515 10.4166C5.77478 10.4194 5.72451 10.4097 5.67875 10.3884C5.63299 10.3672 5.59316 10.335 5.56275 10.2948C5.53234 10.2545 5.51229 10.2074 5.50436 10.1576C5.49389 10.0956 5.50238 10.0318 5.52874 9.97464C5.5551 9.9175 5.59809 9.86964 5.65209 9.83733L11.8087 6.15248C11.8756 6.11234 11.9521 6.09103 12.0301 6.09082C12.1081 6.09061 12.1847 6.11151 12.2518 6.1513L18.2855 9.72624C18.3512 9.76538 18.4055 9.82094 18.4431 9.88746C18.4807 9.95398 18.5003 10.0291 18.5 10.1056C18.4997 10.182 18.4795 10.257 18.4414 10.3232C18.4032 10.3894 18.3485 10.4446 18.2826 10.4832L12.2483 13.9955C12.1819 14.0343 12.1064 14.0546 12.0296 14.0545C11.9527 14.0544 11.8773 14.0338 11.811 13.9949L5.7484 10.43C5.78046 10.4489 5.81639 10.4602 5.85347 10.4631C5.89054 10.466 5.9278 10.4604 5.96241 10.4468C5.99702 10.4332 6.02809 10.4119 6.05326 10.3846C6.07842 10.3572 6.09703 10.3244 6.10767 10.2888C6.11523 10.2651 6.11922 10.2404 6.11949 10.2155V11.6774L6.1189 11.6768Z" fill="white"/>
</g>
<defs>
<clipPath id="clip0_1265_20790">
<rect width="24" height="24" fill="white"/>
</clipPath>
</defs>
</svg>
