<svg width="24" height="24" viewBox="0 0 24 24" fill="none" xmlns="http://www.w3.org/2000/svg">
<g clip-path="url(#clip0_1265_20786)">
<path d="M12 24C18.6274 24 24 18.6274 24 12C24 5.37258 18.6274 0 12 0C5.37258 0 0 5.37258 0 12C0 18.6274 5.37258 24 12 24Z" fill="#7324F0"/>
<path d="M19.4937 10.3927V10.1001C19.0139 10.101 18.5521 10.2832 18.201 10.6102C17.8498 10.9372 17.6352 11.3847 17.6001 11.8632C17.5662 11.3854 17.3528 10.938 17.0027 10.611C16.6527 10.284 16.1918 10.1015 15.7128 10.1001V10.3927C16.1391 10.3927 16.5479 10.562 16.8494 10.8635C17.1508 11.1649 17.3201 11.5737 17.3201 12C17.3207 12.2113 17.2795 12.4206 17.199 12.6158C17.1184 12.8111 17 12.9885 16.8507 13.1379C16.7013 13.2873 16.5239 13.4057 16.3286 13.4862C16.1333 13.5668 15.924 13.608 15.7128 13.6074V13.9C16.1926 13.899 16.6543 13.7168 17.0055 13.3899C17.3566 13.0629 17.5713 12.6153 17.6064 12.1368C17.6405 12.6157 17.8549 13.0639 18.2062 13.391C18.5576 13.7182 19.0199 13.9001 19.5 13.9V13.6074C19.0738 13.6072 18.6651 13.4378 18.3638 13.1364C18.0625 12.835 17.8933 12.4262 17.8933 12C17.8926 11.7894 17.9335 11.5806 18.0136 11.3858C18.0937 11.1909 18.2115 11.0137 18.3601 10.8644C18.5088 10.7151 18.6854 10.5966 18.8799 10.5157C19.0744 10.4347 19.283 10.3929 19.4937 10.3927ZM9.3404 13.9V13.6821L9.33407 12H9.05351V13.9H9.3404ZM13.1403 10.1001C12.0934 10.1001 11.2403 10.9538 11.2403 12C11.2403 13.0463 12.0934 13.9 13.1403 13.9C13.6442 13.9 14.1274 13.6998 14.4837 13.3435C14.84 12.9872 15.0402 12.5039 15.0402 12C15.0402 11.4961 14.84 11.0129 14.4837 10.6566C14.1274 10.3003 13.6442 10.1001 13.1403 10.1001ZM13.1403 13.6074C12.9266 13.6116 12.7141 13.5732 12.5154 13.4943C12.3168 13.4155 12.1358 13.2978 11.9831 13.1481C11.8305 12.9985 11.7092 12.8199 11.6265 12.6228C11.5437 12.4257 11.501 12.2141 11.501 12.0004C11.501 11.7866 11.5437 11.575 11.6265 11.3779C11.7092 11.1808 11.8305 11.0022 11.9831 10.8526C12.1358 10.7029 12.3168 10.5852 12.5154 10.5064C12.7141 10.4275 12.9266 10.3891 13.1403 10.3933C13.5664 10.3935 13.9749 10.5628 14.2762 10.8641C14.5775 11.1654 14.7468 11.574 14.747 12C14.7476 12.2112 14.7064 12.4204 14.6259 12.6157C14.5454 12.8109 14.427 12.9883 14.2777 13.1377C14.1284 13.287 13.9511 13.4054 13.7559 13.486C13.5607 13.5666 13.3515 13.6079 13.1403 13.6074ZM8.00728 10.1001C6.96042 10.1001 6.10735 10.9538 6.10735 12C6.10634 12.426 5.93668 12.8343 5.63546 13.1355C5.33424 13.4367 4.92599 13.6064 4.5 13.6074V13.9C5.54623 13.9 6.39994 13.0463 6.39994 12C6.40094 11.574 6.57061 11.1658 6.87183 10.8646C7.17304 10.5634 7.5813 10.3937 8.00728 10.3927H10.4487V10.1001H8.00728Z" fill="white"/>
</g>
<defs>
<clipPath id="clip0_1265_20786">
<rect width="24" height="24" fill="white"/>
</clipPath>
</defs>
</svg>
