<svg width="24" height="24" viewBox="0 0 24 24" fill="none" xmlns="http://www.w3.org/2000/svg">
<g clip-path="url(#clip0_1265_20782)">
<path d="M12 24C18.6274 24 24 18.6274 24 12C24 5.37258 18.6274 0 12 0C5.37258 0 0 5.37258 0 12C0 18.6274 5.37258 24 12 24Z" fill="#E53431"/>
<path d="M9.76535 5.03356C9.79318 5.01208 9.82745 5.00066 9.86259 5.00115C9.89766 5.00115 9.93177 5.01252 9.95983 5.03356L10.7747 5.6442C10.7917 5.65701 10.806 5.67305 10.8168 5.6914C10.8277 5.70975 10.8348 5.73006 10.8378 5.75116C10.8407 5.77225 10.8395 5.79373 10.8342 5.81437C10.8289 5.835 10.8196 5.85438 10.8067 5.87141C10.7939 5.88843 10.7779 5.90277 10.7595 5.91359C10.7412 5.92442 10.7209 5.93153 10.6998 5.93451C10.6787 5.93749 10.6572 5.93628 10.6366 5.93096C10.6159 5.92564 10.5966 5.91631 10.5795 5.90349L9.86259 5.3674L7.53088 7.1157L17.773 14.7999C17.7933 14.8151 17.8097 14.8348 17.8211 14.8575C17.8324 14.8802 17.8383 14.9052 17.8383 14.9305C17.8383 14.9559 17.8324 14.9809 17.8211 15.0035C17.8097 15.0262 17.7933 15.0459 17.773 15.0611L17.0204 15.6251C16.9859 15.6509 16.9425 15.6619 16.8998 15.6557C16.8571 15.6495 16.8187 15.6266 16.7929 15.592C16.7671 15.5575 16.7561 15.5141 16.7623 15.4714C16.7685 15.4288 16.7914 15.3903 16.826 15.3645L17.4048 14.9302L7.16203 7.24729C7.14167 7.23236 7.12511 7.21284 7.11369 7.19031C7.10228 7.16779 7.09633 7.14289 7.09633 7.11764C7.09633 7.09239 7.10228 7.06749 7.11369 7.04497C7.12511 7.02244 7.14167 7.00293 7.16203 6.98799L9.76535 5.03421V5.03356ZM12.3693 5.03356C12.3971 5.01203 12.4312 5.00024 12.4663 5C12.5015 4.99977 12.5357 5.01111 12.5638 5.03226L17.7724 8.93919C17.7998 8.95943 17.82 8.98791 17.83 9.02045C17.84 9.053 17.8394 9.0879 17.8281 9.12005C17.8176 9.15248 17.797 9.18074 17.7694 9.20077C17.7418 9.2208 17.7086 9.23157 17.6745 9.23154H15.0705C15.0355 9.23131 15.0015 9.21996 14.9733 9.19913L11.5551 6.636C11.538 6.62319 11.5236 6.60713 11.5127 6.58875C11.5018 6.57036 11.4946 6.55001 11.4916 6.52885C11.4885 6.5077 11.4897 6.48615 11.495 6.46543C11.5003 6.44472 11.5096 6.42526 11.5224 6.40815C11.5352 6.39104 11.5513 6.37662 11.5697 6.36571C11.588 6.3548 11.6084 6.34763 11.6295 6.34459C11.6507 6.34155 11.6723 6.34271 11.693 6.34799C11.7137 6.35328 11.7331 6.3626 11.7503 6.37541L15.1256 8.90613H17.1864L12.4672 5.36675L9.20009 7.81709C9.18298 7.8299 9.16352 7.83922 9.1428 7.84451C9.12209 7.84979 9.10054 7.85095 9.07938 7.84791C9.03665 7.84177 8.99811 7.81891 8.97224 7.78435C8.94636 7.7498 8.93528 7.70638 8.94141 7.66365C8.94755 7.62092 8.97042 7.58237 9.00497 7.5565L12.3693 5.03356ZM7.88093 8.40115C7.91565 8.38017 7.95694 8.37286 7.99675 8.38065C8.03657 8.38843 8.07206 8.41075 8.09633 8.44327C8.12059 8.47578 8.13189 8.51616 8.12802 8.55654C8.12415 8.59693 8.10539 8.63443 8.0754 8.66174L7.53023 9.07013L17.773 16.7543C17.7934 16.7694 17.81 16.789 17.8214 16.8117C17.8328 16.8343 17.8387 16.8593 17.8387 16.8846C17.8387 16.91 17.8328 16.935 17.8214 16.9576C17.81 16.9802 17.7934 16.9999 17.773 17.0149L15.1691 18.9681C15.1409 18.9888 15.1068 19 15.0718 19C15.0368 19 15.0028 18.9888 14.9746 18.9681L14.2207 18.4028C14.1861 18.3768 14.1633 18.338 14.1573 18.2952C14.1513 18.2523 14.1626 18.2089 14.1886 18.1743C14.2146 18.1397 14.2534 18.117 14.2962 18.1109C14.3391 18.1049 14.3825 18.1162 14.4171 18.1422L15.0718 18.6329L17.4055 16.8827L7.16009 9.20043C7.14006 9.18512 7.12384 9.1654 7.11267 9.1428C7.1015 9.12021 7.09569 9.09534 7.09569 9.07013C7.09569 9.04493 7.1015 9.02006 7.11267 8.99746C7.12384 8.97486 7.14006 8.95515 7.16009 8.93984L7.87963 8.4018L7.88093 8.40115ZM7.25927 14.7662V14.7675H9.86194C9.89708 14.767 9.93136 14.7784 9.95918 14.7999L13.3404 17.3352C13.3575 17.3479 13.3719 17.3639 13.3828 17.3823C13.3938 17.4006 13.401 17.4209 13.404 17.4421C13.4071 17.4632 13.406 17.4847 13.4007 17.5054C13.3955 17.5261 13.3862 17.5456 13.3734 17.5627C13.3607 17.5798 13.3447 17.5942 13.3263 17.6051C13.308 17.6161 13.2877 17.6233 13.2665 17.6263C13.2454 17.6294 13.2239 17.6283 13.2032 17.623C13.1825 17.6178 13.163 17.6085 13.1459 17.5957L9.81008 15.0929H7.74804L12.4679 18.6323L15.7285 16.1871C15.7456 16.1743 15.7651 16.1649 15.7858 16.1596C15.8065 16.1543 15.8281 16.1531 15.8493 16.1561C15.8705 16.1591 15.8909 16.1662 15.9093 16.1771C15.9277 16.188 15.9438 16.2024 15.9567 16.2195C15.9695 16.2367 15.9789 16.2561 15.9842 16.2769C15.9895 16.2976 15.9907 16.3192 15.9877 16.3403C15.9847 16.3615 15.9776 16.3819 15.9667 16.4003C15.9558 16.4188 15.9414 16.4349 15.9243 16.4477L12.5657 18.9655C12.5377 18.9865 12.5036 18.9979 12.4685 18.9979C12.4332 18.9982 12.3988 18.9868 12.3706 18.9655L7.16074 15.0598C7.1351 15.0595 7.10989 15.0532 7.08718 15.0413C7.06447 15.0294 7.04489 15.0123 7.03005 14.9914C7.0152 14.9704 7.0055 14.9463 7.00175 14.921C6.998 14.8956 7.0003 14.8697 7.00845 14.8454C7.01661 14.8211 7.0304 14.799 7.04869 14.7811C7.06698 14.7631 7.08926 14.7497 7.11372 14.742C7.13817 14.7343 7.1641 14.7324 7.18939 14.7366C7.21469 14.7409 7.23863 14.751 7.25927 14.7662Z" fill="white"/>
</g>
<defs>
<clipPath id="clip0_1265_20782">
<rect width="24" height="24" fill="white"/>
</clipPath>
</defs>
</svg>
