<svg width="24" height="24" viewBox="0 0 24 24" fill="none" xmlns="http://www.w3.org/2000/svg">
<g clip-path="url(#clip0_1265_20778)">
<path d="M12 24C18.6274 24 24 18.6274 24 12C24 5.37258 18.6274 0 12 0C5.37258 0 0 5.37258 0 12C0 18.6274 5.37258 24 12 24Z" fill="#2D9CDB"/>
<path d="M13.3396 7.5046C15.5522 9.8225 16.1138 10.232 16.6513 10.3795C14.7826 10.1455 13.7283 10.0129 11.9674 9.08865L10.8559 10.3821L17.8499 11.935C15.662 13.7953 14.7143 14.7865 13.3396 16.4941H10.6934C9.53055 14.7924 8.7551 14.2399 7.2614 13.5515C9.2491 13.7348 10.3541 13.857 11.9674 14.8125L13.1771 13.454L6.1499 11.935C7.784 10.5882 8.73495 9.6899 10.6928 7.5046H13.3396ZM10.8559 7.18155C11.4604 6.4373 11.7074 6.07525 12.0324 5.5C12.3509 6.0928 12.5973 6.45875 13.1764 7.18155H10.8559ZM13.1764 16.8184C12.5713 17.5627 12.3236 17.9247 11.9999 18.5C11.6814 17.9072 11.4344 17.5412 10.8559 16.8184H13.1764Z" fill="white"/>
</g>
<defs>
<clipPath id="clip0_1265_20778">
<rect width="24" height="24" fill="white"/>
</clipPath>
</defs>
</svg>
