<svg viewBox="0 0 24 24" fill="none" xmlns="http://www.w3.org/2000/svg">
<path fill-rule="evenodd" clip-rule="evenodd" d="M21.495 19.4325L15.6617 21.9325C15.5575 21.9767 15.4467 22 15.3333 22H12.8333H12.6092H11.1667C10.7058 22 10.3333 21.6267 10.3333 21.1667V20.3333C10.3333 19.8733 10.7058 19.5 11.1667 19.5H12.8333C13.2942 19.5 13.6667 19.8733 13.6667 20.3333H15.1625L19.0475 18.6683H18.6667C17.7475 18.6683 17 17.9208 17 17.0017V13.6683C17 12.7492 17.7475 12.0017 18.6667 12.0017H20.3333C20.3333 7.40583 16.595 3.66667 12 3.66667C7.405 3.66667 3.66667 7.40583 3.66667 12.0017H5.33333C6.25167 12.0017 7 12.7492 7 13.6683V17.0017C7 17.9208 6.25167 18.6683 5.33333 18.6683H3.66667C2.7475 18.6683 2 17.9208 2 17.0017V13.6683V12.0017C2 6.48667 6.48583 2 12 2C17.5142 2 22 6.48667 22 12.0017V12.6133V13.6683V17.0017V18.6667C22 19 21.8017 19.3017 21.495 19.4325ZM3.66667 17.0017H5.33083L5.33333 13.6683H3.66667V17.0017ZM18.6667 13.6683V17.0017H20.3308L20.3333 13.6683H18.6667Z" fill="currentColor"/>
</svg>