<svg width="24" height="24" viewBox="0 0 24 24" fill="none" xmlns="http://www.w3.org/2000/svg">
<path d="M6.12677 4.05591L21.6632 14.6641L17.8209 20.3441L2.28442 9.65237L6.12677 4.05591Z" fill="url(#paint0_linear_620_13712)"/>
<path d="M21.6632 14.6641C20.3268 16.5853 15.8162 15.8335 11.5562 12.8265C7.21267 9.90293 4.87385 5.97705 6.12679 4.05588C7.46326 2.13471 11.9738 2.88647 16.2338 5.89352C20.5773 8.73352 22.9162 12.7429 21.6632 14.6641Z" fill="url(#paint1_linear_620_13712)"/>
<path d="M17.8209 20.2606C16.4844 22.1817 11.9739 21.43 7.71387 18.4229C3.45388 15.4159 1.03153 11.5735 2.368 9.56882C3.70446 7.64765 8.21504 8.39941 12.475 11.4065C16.735 14.4135 19.0738 18.3394 17.8209 20.2606Z" fill="url(#paint2_linear_620_13712)"/>
<path d="M21.6632 14.6641L17.8209 20.3441C16.4844 22.2652 11.9738 21.43 7.71382 18.5064C6.87853 17.9217 6.12676 17.337 5.375 16.6688C5.9597 16.5853 6.71147 16.2511 7.46323 15.4158C8.7997 13.9959 9.46793 13.6617 10.0526 13.7453C10.6373 13.7453 11.3056 14.33 12.3915 15.75C13.4773 17.17 14.9809 17.5876 15.8997 16.8358C15.9832 16.7523 16.0667 16.7523 16.1503 16.6688C16.902 16.0841 17.1526 15.8335 18.5726 13.1606C18.9067 12.4923 20.0761 11.4064 21.6632 11.9076C22.0808 12.9935 22.0808 13.9123 21.6632 14.6641Z" fill="#0E0F23"/>
<path fill-rule="evenodd" clip-rule="evenodd" d="M21.0785 14.33C19.9091 16.0006 15.8162 15.1653 11.8903 12.4088C7.88091 9.65237 5.5421 6.14414 6.71151 4.47355C7.88091 2.80297 11.9738 3.63826 15.8997 6.39473C19.8256 9.15119 22.1644 12.6594 21.0785 14.33ZM17.4032 11.8241C16.8185 12.6594 14.8138 12.2418 12.8091 10.9053C10.888 9.56884 9.71856 7.81472 10.3033 6.97943C10.888 6.14414 12.8927 6.56178 14.8974 7.89825C16.8185 9.23472 17.988 10.9888 17.4032 11.8241Z" fill="white"/>
<path d="M5.79274 5.97701C5.79274 5.89349 5.70921 5.80996 5.62568 5.89349C5.54215 5.97701 5.45862 5.97701 5.45862 6.06054C5.54215 6.31113 5.62568 6.47819 5.62568 6.64525C5.62568 6.72878 5.70921 6.81231 5.79274 6.72878C5.87626 6.72878 5.95979 6.64525 5.87626 6.56172C5.87626 6.39466 5.87626 6.2276 5.79274 5.97701Z" fill="white"/>
<path d="M6.2103 7.31344C6.2103 7.22991 6.12678 7.14638 6.04325 7.22991C5.95972 7.31344 5.95972 7.31344 5.95972 7.39697C6.87854 9.4852 8.79971 11.7405 11.3056 13.4111C11.3891 13.4946 11.4726 13.4111 11.5562 13.4111C11.6397 13.3275 11.5562 13.244 11.5562 13.1605C8.96677 11.4899 7.12913 9.31814 6.2103 7.31344Z" fill="white"/>
<path d="M16.3173 15.4995C16.2338 15.4995 16.1503 15.4995 16.1503 15.583C16.1503 15.6666 16.1503 15.7501 16.2338 15.7501C16.4844 15.8336 16.8185 15.9172 17.0691 16.0007C17.1526 16.0007 17.2361 16.0007 17.2361 15.9172C17.2361 15.8336 17.2361 15.7501 17.1526 15.7501C16.902 15.6666 16.5679 15.583 16.3173 15.4995Z" fill="white"/>
<path d="M17.8209 15.8335C17.7373 15.8335 17.6538 15.917 17.6538 16.0006C17.6538 16.0841 17.7373 16.1676 17.8209 16.1676C18.4891 16.2511 19.2409 16.3347 19.8256 16.2511C19.9091 16.2511 19.9926 16.1676 19.9926 16.0841C19.9926 16.0006 19.9091 15.917 19.8256 15.917C19.1573 16.0006 18.4891 15.917 17.8209 15.8335Z" fill="white"/>
<defs>
<linearGradient id="paint0_linear_620_13712" x1="9.17074" y1="2.54762" x2="12.2518" y2="13.1276" gradientUnits="userSpaceOnUse">
<stop stop-color="#03B8FF"/>
<stop offset="1" stop-color="#FA52A0"/>
</linearGradient>
<linearGradient id="paint1_linear_620_13712" x1="11.708" y1="1.80861" x2="14.7892" y2="12.3887" gradientUnits="userSpaceOnUse">
<stop stop-color="#03B8FF"/>
<stop offset="1" stop-color="#FA52A0"/>
</linearGradient>
<linearGradient id="paint2_linear_620_13712" x1="6.64135" y1="3.28417" x2="9.72249" y2="13.8642" gradientUnits="userSpaceOnUse">
<stop stop-color="#03B8FF"/>
<stop offset="1" stop-color="#FA52A0"/>
</linearGradient>
</defs>
</svg>
