<svg width="24" height="24" viewBox="0 0 24 24" fill="none" xmlns="http://www.w3.org/2000/svg">
<g clip-path="url(#clip0_1265_20765)">
<path d="M12 24C18.6274 24 24 18.6274 24 12C24 5.37258 18.6274 0 12 0C5.37258 0 0 5.37258 0 12C0 18.6274 5.37258 24 12 24Z" fill="#FBECF3"/>
<path d="M8.18212 6.71289L18.2809 13.6083L15.7834 17.3003L5.68457 10.3506L8.18212 6.71289Z" fill="#FA52A0"/>
<path d="M18.2811 13.6086C17.4123 14.8574 14.4804 14.3687 11.7114 12.4141C8.8881 10.5138 7.36785 7.96196 8.18227 6.71319C9.05098 5.46441 11.9829 5.95306 14.7519 7.90767C17.5752 9.75368 19.0955 12.3598 18.2811 13.6086Z" fill="#FA52A0"/>
<path d="M15.7837 17.2461C14.915 18.4949 11.9831 18.0063 9.21405 16.0517C6.44503 14.0971 4.87049 11.5995 5.7392 10.2964C6.60791 9.04766 9.53982 9.53631 12.3088 11.4909C15.0779 13.4455 16.5981 15.9974 15.7837 17.2461Z" fill="#FA52A0"/>
<path d="M18.2815 13.6086L15.784 17.3006C14.9153 18.5494 11.9834 18.0065 9.21434 16.1062C8.67139 15.7261 8.18274 15.346 7.69409 14.9117C8.07415 14.8574 8.5628 14.6402 9.05146 14.0973C9.92017 13.1743 10.3545 12.9571 10.7346 13.0114C11.1146 13.0114 11.549 13.3914 12.2548 14.3144C12.9607 15.2375 13.938 15.5089 14.5352 15.0203C14.5895 14.966 14.6438 14.966 14.6981 14.9117C15.1867 14.5316 15.3496 14.3687 16.2726 12.6313C16.4898 12.197 17.2499 11.4911 18.2815 11.8169C18.553 12.5227 18.553 13.12 18.2815 13.6086Z" fill="black"/>
<path fill-rule="evenodd" clip-rule="evenodd" d="M17.9011 13.3914C17.141 14.4773 14.4805 13.9344 11.9287 12.1427C9.32254 10.3509 7.80229 8.07056 8.56241 6.98467C9.32254 5.89878 11.983 6.44173 14.5348 8.23345C17.0867 10.0252 18.6069 12.3055 17.9011 13.3914ZM15.5121 11.7626C15.1321 12.3055 13.829 12.0341 12.5259 11.1654C11.2771 10.2966 10.517 9.15645 10.8971 8.61351C11.2771 8.07056 12.5802 8.34204 13.8833 9.21075C15.1321 10.0795 15.8922 11.2196 15.5121 11.7626Z" fill="white"/>
<path d="M7.96547 7.96204C7.96547 7.90774 7.91117 7.85345 7.85688 7.90774C7.80259 7.96204 7.74829 7.96204 7.74829 8.01633C7.80259 8.17922 7.85688 8.28781 7.85688 8.39639C7.85688 8.45069 7.91117 8.50498 7.96547 8.45069C8.01976 8.45069 8.07406 8.39639 8.01976 8.3421C8.01976 8.23351 8.01976 8.12492 7.96547 7.96204Z" fill="white"/>
<path d="M8.23661 8.83069C8.23661 8.7764 8.18232 8.7221 8.12802 8.7764C8.07373 8.83069 8.07373 8.83069 8.07373 8.88499C8.67097 10.2423 9.91975 11.7083 11.5486 12.7942C11.6029 12.8485 11.6572 12.7942 11.7115 12.7942C11.7658 12.7399 11.7115 12.6856 11.7115 12.6313C10.0283 11.5454 8.83385 10.1338 8.23661 8.83069Z" fill="white"/>
<path d="M14.8068 14.1514C14.7525 14.1514 14.6982 14.1514 14.6982 14.2057C14.6982 14.26 14.6982 14.3143 14.7525 14.3143C14.9154 14.3685 15.1326 14.4228 15.2955 14.4771C15.3498 14.4771 15.4041 14.4771 15.4041 14.4228C15.4041 14.3685 15.4041 14.3143 15.3498 14.3143C15.1869 14.26 14.9697 14.2057 14.8068 14.1514Z" fill="white"/>
<path d="M15.7836 14.3689C15.7293 14.3689 15.675 14.4232 15.675 14.4775C15.675 14.5318 15.7293 14.5861 15.7836 14.5861C16.218 14.6404 16.7066 14.6947 17.0867 14.6404C17.141 14.6404 17.1953 14.5861 17.1953 14.5318C17.1953 14.4775 17.141 14.4232 17.0867 14.4232C16.6524 14.4775 16.218 14.4232 15.7836 14.3689Z" fill="white"/>
</g>
<defs>
<clipPath id="clip0_1265_20765">
<rect width="24" height="24" fill="white"/>
</clipPath>
</defs>
</svg>
