<svg width="24" height="24" viewBox="0 0 24 24" fill="none" xmlns="http://www.w3.org/2000/svg">
<path fill-rule="evenodd" clip-rule="evenodd" d="M17.7802 12.0888C17.6336 12.252 17.4417 12.3332 17.2498 12.3332C17.0578 12.3332 16.8659 12.252 16.7201 12.0888C16.4269 11.7641 16.4269 11.2359 16.7201 10.9111L18.4686 8.96754H3.71861C3.30452 8.96754 3 8.62687 3 8.16651C3 7.70615 3.3355 7.33283 3.75035 7.33283H18.4391L16.7201 5.42274C16.4269 5.09713 16.4269 4.56897 16.7201 4.2442C17.0125 3.9186 17.487 3.9186 17.7802 4.2442L20.7794 7.57641C20.8489 7.65341 20.904 7.74632 20.9418 7.84844C20.9804 7.95056 21 8.05853 21 8.16735C21 8.46198 20.8904 8.69551 20.7098 8.83446L17.7802 12.0888ZM3.05826 16.181C3.09604 16.0798 3.15044 15.9877 3.21996 15.9107L6.21984 12.5776C6.51302 12.252 6.98756 12.252 7.27999 12.5776C7.57318 12.9024 7.57318 13.4306 7.27999 13.7562L5.56092 15.6671H20.2497C20.6646 15.6671 21.0001 16.0396 21.0001 16.4999C21.0001 16.9603 20.6646 17.3328 20.2497 17.3328H5.56092L7.27999 19.2437C7.57318 19.5693 7.57318 20.0966 7.27999 20.4223C7.13416 20.5846 6.94222 20.6667 6.75029 20.6667C6.55836 20.6667 6.36643 20.5846 6.21984 20.4223L3.21996 17.0892C3.15044 17.0122 3.09604 16.9201 3.05826 16.8189C2.98194 16.6146 2.98194 16.3853 3.05826 16.181Z" fill="#6B7084"/>
</svg>
