<svg width="24" height="24" viewBox="0 0 24 24" fill="none" xmlns="http://www.w3.org/2000/svg">
<path fill-rule="evenodd" clip-rule="evenodd" d="M20.4227 17.7802L17.0891 20.7802C17.0126 20.8494 16.9201 20.9036 16.8183 20.942C16.7166 20.9797 16.6082 21 16.4997 21C16.287 21 16.0734 20.927 15.9103 20.7802L12.5776 17.7802C12.2514 17.4873 12.2514 17.0123 12.5776 16.7194C12.903 16.4266 13.4301 16.4266 13.7555 16.7194L15.743 18.5082V3.69711C15.743 3.28306 16.0398 3 16.4997 3C16.9604 3 17.3329 3.33576 17.3329 3.74981V18.4389L19.2439 16.7194C19.5693 16.4266 20.0973 16.4266 20.4227 16.7194C20.748 17.0123 20.748 17.4873 20.4227 17.7802ZM11.4997 7.49973C11.2862 7.49973 11.0735 7.4267 10.9104 7.2799L8.99933 5.56045V20.2495C8.99933 20.6643 8.62687 21.0001 8.16614 21.0001C7.70625 21.0001 7.33295 20.6643 7.33295 20.2495V5.56045L5.42192 7.2799C5.09655 7.57275 4.5694 7.57275 4.24403 7.2799C3.91866 6.98781 3.91866 6.51202 4.24403 6.21993L7.57677 3.22068C7.65328 3.15142 7.74576 3.09571 7.8475 3.05807C8.0518 2.98203 8.28132 2.98203 8.48479 3.05807C8.58736 3.09571 8.67984 3.15142 8.75635 3.22068L12.0891 6.21993C12.4145 6.51202 12.4145 6.98781 12.0891 7.2799C11.926 7.4267 11.7133 7.49973 11.4997 7.49973Z" fill="#6B7084"/>
</svg>
