<svg viewBox="0 0 24 24" fill="none" xmlns="http://www.w3.org/2000/svg">
<path d="M17.373 8.55591C14.4675 8.55591 12.0718 10.8879 9.90542 12.8249C9.281 12.2769 8.58012 11.6016 8.0449 10.9644C7.99392 10.9007 7.91746 10.8879 7.87923 10.9134C7.82826 10.9516 7.81552 11.0281 7.86649 11.0791C8.36348 11.6908 9.02613 12.4299 9.65055 13.0543C8.49091 14.1502 6.7196 15.4755 5.29235 15.4755C2.41236 15.4755 2.39962 11.4869 4.92279 10.735C5.03748 10.7095 5.03748 10.5693 4.92279 10.6076C1.62228 11.4231 1.80069 16.0744 5.35606 16.0744C7.05092 16.0744 8.6056 14.9403 10.173 13.6023C11.8679 15.1314 14.0088 16.3803 16.7613 16.3803C23.7446 16.3803 23.5407 8.55591 17.373 8.55591ZM16.7103 15.7814C14.5057 15.7686 12.3649 14.8001 10.4916 13.3346C12.6197 11.4869 14.7734 9.37148 17.3093 9.37148C22.2537 9.37148 22.3811 15.8196 16.7103 15.7814Z" fill="#333333"/>
<path d="M6.42652 10.9133C6.82065 10.9133 7.14016 10.5938 7.14016 10.1997C7.14016 9.80558 6.82065 9.48608 6.42652 9.48608C6.03239 9.48608 5.71289 9.80558 5.71289 10.1997C5.71289 10.5938 6.03239 10.9133 6.42652 10.9133Z" fill="#333333"/>
</svg>