<svg viewBox="0 0 24 24" fill="none" xmlns="http://www.w3.org/2000/svg">
<path fill-rule="evenodd" clip-rule="evenodd" d="M16.5809 11.086H7.71085C7.67359 11.0869 7.63906 11.0969 7.60089 11.0969C5.10552 11.0969 3.07452 9.05968 3.07452 6.55434C3.07452 4.14081 4.96558 2.17908 7.33554 2.03818C7.39915 2.02454 7.45822 2 7.52637 2H16.5809C19.0772 2 21.1073 4.03809 21.1073 6.54343C21.1073 9.04786 19.0772 11.086 16.5809 11.086ZM7.6009 3.82906C6.10331 3.82906 4.88471 5.05173 4.88471 6.55439C4.88471 8.02705 6.05697 9.22336 7.51275 9.27154C7.51729 9.27154 7.52184 9.26881 7.52638 9.26881H7.7154C9.15936 9.20699 10.3171 8.01796 10.3171 6.55439C10.3171 5.05173 9.09848 3.82906 7.6009 3.82906ZM16.5809 3.81729H11.1904C11.7701 4.5809 12.1282 5.52267 12.1282 6.55444C12.1282 7.57621 11.7783 8.5089 11.2094 9.26886H16.5809C18.0785 9.26886 19.2962 8.04619 19.2962 6.54353C19.2962 5.03997 18.0785 3.81729 16.5809 3.81729ZM7.52637 12.904H16.5809C16.6027 12.904 16.62 12.914 16.6409 12.9158C16.6455 12.9158 16.65 12.914 16.6545 12.914C19.1508 12.914 21.1818 14.9521 21.1818 17.4574C21.1818 19.9628 19.1508 21.9999 16.6545 21.9999C16.6173 21.9999 16.5827 21.9899 16.5455 21.989H7.52637C5.0301 21.989 3 19.9518 3 17.4465C3 14.9412 5.0301 12.904 7.52637 12.904ZM19.3707 17.4575C19.3707 15.9548 18.1521 14.7322 16.6545 14.7322C15.1569 14.7322 13.9383 15.9548 13.9383 17.4575C13.9383 18.9247 15.1015 20.1165 16.55 20.1728H16.5809C16.5927 20.1728 16.6018 20.1783 16.6127 20.1792C16.6273 20.1792 16.64 20.1828 16.6545 20.1828C18.1521 20.1828 19.3707 18.9601 19.3707 17.4575ZM7.52636 20.1729H13.0478C12.478 19.4129 12.1282 18.4793 12.1282 17.4575C12.1282 16.4257 12.4853 15.4849 13.0651 14.7213H7.52636C6.02877 14.7213 4.81108 15.943 4.81108 17.4466C4.81108 18.9502 6.02877 20.1729 7.52636 20.1729Z" fill="currentColor"/>
</svg>