<svg width="24" height="24" viewBox="0 0 24 24" fill="none" xmlns="http://www.w3.org/2000/svg">
<path fill-rule="evenodd" clip-rule="evenodd" d="M18.0878 10.6843H9.53043C8.7513 11.2348 7.80696 11.5652 6.78261 11.5652C4.14609 11.5652 2 9.42 2 6.78261C2 4.14522 4.14609 2 6.78261 2C7.79391 2 8.72956 2.32 9.50348 2.85826H18.0878C20.2443 2.85826 22 4.61391 22 6.7713C22 8.9287 20.2443 10.6843 18.0878 10.6843ZM6.78261 3.73913C5.10435 3.73913 3.73913 5.10435 3.73913 6.78261C3.73913 8.46087 5.10435 9.82609 6.78261 9.82609C8.46087 9.82609 9.82609 8.46087 9.82609 6.78261C9.82609 5.10435 8.46087 3.73913 6.78261 3.73913ZM18.0878 4.59744H11.0122C11.3539 5.2557 11.5652 5.99136 11.5652 6.78266C11.5652 7.56527 11.3583 8.2931 11.0244 8.94527H18.0878C19.2861 8.94527 20.2609 7.97049 20.2609 6.77136C20.2609 5.5731 19.2861 4.59744 18.0878 4.59744ZM5.91217 13.293H14.4183C14.4409 13.293 14.4591 13.3043 14.4809 13.3061C15.2574 12.7609 16.1983 12.4348 17.2174 12.4348C19.8539 12.4348 22 14.5809 22 17.2174C22 19.8548 19.8539 22 17.2174 22C16.1809 22 15.2278 21.66 14.4435 21.0974C14.407 21.1026 14.3748 21.1191 14.3365 21.1191H5.91217C3.75565 21.1191 2 19.3643 2 17.207C2 15.0487 3.75565 13.293 5.91217 13.293ZM20.2609 17.2174C20.2609 15.5391 18.8957 14.1739 17.2174 14.1739C15.5391 14.1739 14.1739 15.5391 14.1739 17.2174C14.1739 18.8957 15.5391 20.2609 17.2174 20.2609C18.8957 20.2609 20.2609 18.8957 20.2609 17.2174ZM5.91217 19.3801H12.9765C12.6417 18.7279 12.4348 18.0001 12.4348 17.2174C12.4348 16.4261 12.6461 15.6905 12.9878 15.0322H5.91217C4.71391 15.0322 3.73913 16.0079 3.73913 17.207C3.73913 18.4044 4.71391 19.3801 5.91217 19.3801Z" fill="#6B7084"/>
</svg>
