<svg viewBox="0 0 24 24" fill="none" xmlns="http://www.w3.org/2000/svg">
<path fill-rule="evenodd" clip-rule="evenodd" d="M16.1667 17.6667H7.83333C4.61667 17.6667 2 15.05 2 11.8333C2 8.61667 4.61667 6 7.83333 6H16.1667C19.3833 6 22 8.61667 22 11.8333C22 15.05 19.3833 17.6667 16.1667 17.6667ZM3.66667 11.8333C3.66667 14.1308 5.53583 16 7.83333 16C10.1308 16 12.0008 14.1308 12.0008 11.8333C12.0008 9.53583 10.1308 7.66667 7.83333 7.66667C5.53583 7.66667 3.66667 9.53583 3.66667 11.8333ZM16.1667 7.66667H11.9092C12.9925 8.72667 13.6675 10.2017 13.6675 11.8333C13.6675 13.465 12.9925 14.94 11.9092 16H16.1667C18.4642 16 20.3333 14.1308 20.3333 11.8333C20.3333 9.53583 18.4642 7.66667 16.1667 7.66667Z" fill="currentColor"/>
</svg>