<svg viewBox="0 0 24 24" fill="none" xmlns="http://www.w3.org/2000/svg">
<path d="M11.9973 3.02406C15.0828 3.02406 17.9935 3.96417 20.6752 5.50089L20.8741 5.59128L20.8138 5.8022C20.8078 8.8214 19.9882 11.7803 18.4455 14.3717C16.9509 17.0232 14.7754 19.2349 12.1419 20.7716L11.9973 20.8741L11.8406 20.7656C9.17697 19.2229 7.15815 17.0473 5.62746 14.3777C4.09677 11.714 3.17474 8.74908 3.17474 5.66962L3.15063 5.52499L3.25308 5.44062C5.92275 3.90391 8.90579 3.00598 11.9913 3.00598" fill="#8D33E5"/>
<path d="M20.7717 5.41658C18.108 3.86781 15.0828 3.0422 11.9973 3.03015V20.7717L12.1962 20.8922C14.8538 19.3434 17.0534 17.1258 18.5781 14.4621C20.1268 11.8105 20.9464 8.80338 20.9525 5.73598V5.51903L20.7717 5.41658Z" fill="#7000DF"/>
<path d="M20.9826 5.6998V5.46477L20.7837 5.35027C18.108 3.81356 15.0768 3 11.9913 3C8.90581 3 5.87456 3.81356 3.2049 5.35027L3 5.46477V5.6998C3.01205 8.78528 3.82561 11.8105 5.36835 14.4741C6.91109 17.1438 9.12878 19.3555 11.7985 20.8982L11.9973 21.0127L12.1962 20.8982C14.8659 19.3615 17.0835 17.1438 18.6263 14.4802C20.1751 11.8105 20.9946 8.78528 21.0007 5.6998H20.9826ZM11.9853 20.1208C6.80865 17.0956 3.49416 11.684 3.458 5.68775C6.06741 4.22335 9.00223 3.45198 11.9973 3.45198C14.9924 3.45198 17.9272 4.22335 20.5366 5.68775C20.5065 11.696 17.186 17.0956 11.9973 20.1148L11.9853 20.1208Z" fill="#7000DF"/>
<path d="M11.9973 20.1148C6.80865 17.0956 3.49416 11.684 3.458 5.68775C6.06741 4.22335 9.00826 3.45198 11.9973 3.45198V3C8.91184 3 5.87456 3.80753 3.19887 5.35027L3 5.46477V5.6998C3.00603 8.78528 3.82561 11.8105 5.36835 14.4741C6.91109 17.1438 9.12878 19.3555 11.7985 20.8982L11.9973 21.0127V20.1148Z" fill="#8D33E5"/>
<path d="M17.65 8.6045C17.65 8.53821 17.6379 8.4659 17.6138 8.40564C17.415 7.82711 17.1136 7.28474 16.734 6.80866C16.6436 6.6821 16.5351 6.5676 16.4387 6.44708L16.3603 6.35668C16.3302 6.32052 16.288 6.29039 16.2458 6.26629C16.1615 6.21808 16.0711 6.19397 15.9747 6.19397C15.9264 6.2 15.8843 6.20602 15.8361 6.2241C15.8119 6.23013 15.7939 6.23615 15.7758 6.24821C15.7758 6.24821 12.5035 8.01995 11.9913 8.28511C11.485 8.01995 8.23082 6.23615 8.15247 6.23013C8.11029 6.21205 8.06208 6.20602 8.01387 6.2C7.91745 6.2 7.82102 6.2241 7.74268 6.27231C7.7005 6.29642 7.66434 6.32655 7.63421 6.36271L7.55587 6.4531C7.45342 6.5676 7.357 6.6821 7.26058 6.81468C6.899 7.27871 6.6037 7.79095 6.39278 8.33935C6.3506 8.42371 6.33252 8.51411 6.33252 8.6045C6.33252 8.6949 6.3506 8.79132 6.38676 8.86966C6.42291 8.95403 6.48318 9.02635 6.55549 9.08661C6.56755 9.09866 6.5796 9.11072 6.59768 9.11674L6.63986 9.14687L6.70013 9.18906L7.21839 9.50846L8.24287 10.1472L9.26735 10.7921L10.1171 11.3043L10.1291 14.902V15.2998V15.4986C10.1291 15.5348 10.1291 15.577 10.1291 15.6131C10.1351 15.6794 10.1532 15.7517 10.1773 15.812C10.2316 15.9325 10.3099 16.035 10.4123 16.1133C10.5148 16.1917 10.6353 16.2459 10.7619 16.276C10.8884 16.3062 11.021 16.3363 11.1536 16.3544C11.708 16.4327 12.2624 16.4327 12.8169 16.3544C13.0157 16.3242 13.0639 16.3122 13.1965 16.2821C13.3291 16.2519 13.4496 16.1977 13.5521 16.1133C13.6545 16.035 13.7389 15.9325 13.7871 15.812C13.8112 15.7457 13.8293 15.6794 13.8353 15.6131C13.8353 15.571 13.8353 15.5348 13.8353 15.4986C13.8353 15.4986 13.8775 12.2504 13.8654 11.3103L14.7091 10.7981L15.7577 10.1472L16.7882 9.50243L17.3005 9.18303C17.4089 9.1288 17.4993 9.05045 17.5596 8.94801C17.6198 8.83953 17.656 8.72503 17.65 8.6045Z" fill="#3F017F"/>
<path d="M10.5088 11.0994C10.5088 10.7981 10.4425 10.4967 10.3099 10.2195C10.1774 9.94835 9.98452 9.70729 9.74949 9.52048C9.07454 8.98413 8.02596 8.79129 7.00751 9.00824C6.94122 9.02029 6.7544 8.90579 6.68811 8.89374C6.68811 8.89374 6.67003 8.88169 6.70619 8.91182C6.74235 8.94195 6.73632 8.97208 6.74235 8.97811L10.5028 11.1355V11.0994H10.5088Z" fill="#F4A900"/>
<path d="M13.7992 8.73702C14.6007 8.42365 15.2938 7.61612 15.6132 6.6278C15.6373 6.55549 15.7638 6.53741 15.812 6.4892C15.8301 6.47715 15.7698 6.41086 15.7879 6.3988L11.9913 8.58636L12.0395 8.61047C12.3047 8.76113 12.594 8.85755 12.9013 8.87563C13.2026 8.89973 13.51 8.85152 13.7932 8.73702H13.7992Z" fill="#78B6E4"/>
<path d="M13.4195 11.2019C13.1604 11.3525 12.9374 11.5634 12.7687 11.8165C12.5999 12.0696 12.4975 12.3529 12.4553 12.6542C12.3348 13.5039 12.6903 14.5043 13.3894 15.2636C13.4436 15.3178 13.4376 15.4263 13.4496 15.4986C13.4496 15.5167 13.4737 15.5167 13.4918 15.5288L13.5099 11.1597L13.4195 11.2019Z" fill="#20B5AC"/>
<path d="M12.636 12.8108C12.6903 12.5095 12.8108 12.2323 12.9855 11.9852C13.1603 11.7381 13.3953 11.5393 13.6605 11.3946L13.5038 11.1536L13.4194 11.2078C13.1603 11.3585 12.9373 11.5694 12.7686 11.8225C12.5999 12.0756 12.4974 12.3588 12.4552 12.6601C12.3528 13.4014 12.6119 14.2692 13.1543 14.9863C12.7505 14.3355 12.5637 13.5762 12.636 12.8108Z" fill="#3F017F"/>
<path d="M13.8354 8.51406C13.5522 8.61651 13.2448 8.65267 12.9435 8.62254C12.6422 8.59241 12.3529 8.48996 12.0938 8.32725L11.9552 8.58035L12.0396 8.63459C12.2987 8.78525 12.594 8.87564 12.8953 8.89372C13.1966 8.91783 13.4979 8.86962 13.7752 8.75512C14.5706 8.39354 15.2094 7.76077 15.577 6.9653C15.577 6.95324 15.5228 6.88695 15.4686 7.00748C15.107 7.6764 14.5345 8.20672 13.8354 8.51406Z" fill="#3F017F"/>
<path d="M9.53257 9.65303C9.75555 9.83382 9.93634 10.0688 10.0508 10.334C10.1653 10.5992 10.2135 10.8884 10.1955 11.1777L10.4847 11.2681L10.5751 11.1717C10.5932 10.569 10.328 9.80368 9.85197 9.41197C9.29754 8.94192 8.12843 8.78523 7.34501 8.90576C7.31488 8.90576 7.30283 8.95397 7.50772 8.94794C8.24294 8.93589 8.96007 9.18297 9.53257 9.65303Z" fill="#3F017F"/>
<path d="M11.9973 16.0289C11.5935 16.0289 11.1897 15.9747 10.798 15.8722C10.7136 15.8481 10.6413 15.7999 10.5931 15.7336C10.5389 15.6673 10.5087 15.583 10.5087 15.4986V11.0994C10.5087 10.7981 10.4425 10.4967 10.3159 10.2256C10.1894 9.95437 9.99651 9.71331 9.76148 9.5265C9.08653 8.99015 8.03795 8.79731 7.0195 9.01426C6.97129 9.02631 6.91705 9.02631 6.86281 9.02028C6.80858 9.01426 6.76037 8.99015 6.71818 8.96605C6.62779 8.91181 6.5615 8.82141 6.53739 8.71897C6.51931 8.64062 6.52534 8.56228 6.55547 8.48997C6.68202 8.12839 6.84473 7.77283 7.03155 7.43536C7.23042 7.08583 7.47147 6.76041 7.76074 6.47717C7.821 6.41691 7.90537 6.38075 7.98974 6.3687C8.07411 6.35664 8.1645 6.37472 8.23682 6.41691L11.943 8.55023L12.0394 8.61049C12.3046 8.76115 12.5939 8.85757 12.9012 8.87565C13.2025 8.89976 13.5099 8.85155 13.7871 8.73102C14.5886 8.41765 15.2816 7.61012 15.601 6.6218C15.6191 6.57359 15.6432 6.52538 15.6733 6.4832C15.7095 6.44101 15.7517 6.41088 15.7999 6.38677C15.8481 6.36267 15.8963 6.34459 15.9505 6.33856C16.0048 6.33254 16.059 6.33856 16.1072 6.35664C16.1795 6.38075 16.2458 6.42293 16.294 6.4832C16.5471 6.77849 16.7701 7.09186 16.969 7.42933C17.1739 7.77886 17.3306 8.15249 17.433 8.5442C17.4511 8.62857 17.4451 8.71897 17.4149 8.79731C17.3788 8.87565 17.3245 8.94194 17.2462 8.98413L13.5159 11.1355L13.4134 11.1958C13.1543 11.3464 12.9313 11.5574 12.7686 11.8105C12.6059 12.0636 12.4914 12.3468 12.4553 12.6421C12.3347 13.4918 12.6903 14.4922 13.3893 15.2515C13.4375 15.3058 13.4737 15.372 13.4858 15.4383C13.4978 15.5106 13.4978 15.583 13.4737 15.6493C13.4496 15.7155 13.4074 15.7758 13.3532 15.824C13.2929 15.8722 13.2266 15.9024 13.1543 15.9144C12.7686 15.9867 12.3829 16.0229 11.9973 16.0289Z" fill="white"/>
</svg>