<svg viewBox="0 0 24 24" fill="none" xmlns="http://www.w3.org/2000/svg">
<path fill-rule="evenodd" clip-rule="evenodd" d="M21.7552 14.2549C21.5924 14.4181 21.3797 14.4993 21.1669 14.4993C20.9533 14.4993 20.7405 14.4181 20.5777 14.2549L19.4782 13.1563C19.2477 17.6823 15.6864 21.1666 11.1681 21.1666C10.7078 21.1666 10.3348 20.7926 10.3348 20.3332C10.3348 19.8721 10.7078 19.4998 11.1681 19.4998C14.7378 19.4998 17.5615 16.7711 17.8091 13.2023L16.7562 14.2549C16.4307 14.5813 15.9034 14.5813 15.5787 14.2549C15.2524 13.9303 15.2524 13.4023 15.5787 13.0776L18.0778 10.5774C18.0786 10.5766 18.0795 10.5766 18.0795 10.5757C18.1566 10.4996 18.2473 10.4393 18.3482 10.3975C18.4499 10.3556 18.5585 10.3331 18.6661 10.3331C18.667 10.3331 18.667 10.3331 18.667 10.3331C18.7755 10.3331 18.8831 10.3556 18.9857 10.3975C19.0857 10.4393 19.1773 10.4996 19.2527 10.5749C19.2536 10.5757 19.2553 10.5766 19.2561 10.5774L21.7552 13.0776C22.0816 13.4023 22.0816 13.9303 21.7552 14.2549ZM18.3007 9.38835C18.1702 9.4645 18.0261 9.49964 17.8854 9.49964C17.5971 9.49964 17.3174 9.3507 17.1623 9.08293C15.427 6.07562 11.8081 4.79119 8.4613 5.86475L9.69473 6.19527C10.1389 6.31493 10.4034 6.77096 10.2839 7.21612C10.1839 7.58848 9.84732 7.83365 9.48025 7.83365C9.4082 7.83365 9.33614 7.82445 9.26324 7.8052L5.97749 6.92325C5.61806 6.82703 5.38917 6.50822 5.37307 6.15511C5.35103 6.00282 5.37985 5.85471 5.43919 5.71497L6.26741 2.61812C6.38609 2.17297 6.84385 1.91022 7.28806 2.02821C7.73226 2.14786 7.9959 2.60474 7.87722 3.04906L7.50507 4.44142C11.7564 2.86413 16.4044 4.43473 18.6059 8.24952C18.8365 8.64865 18.6992 9.15824 18.3007 9.38835ZM3.904 14.2993C4.35075 15.9904 5.39683 17.392 6.83626 18.3082L6.54379 17.2146C6.42511 16.7702 6.68875 16.3134 7.13296 16.1946C7.57716 16.0766 8.03493 16.3393 8.15361 16.7845L9.03269 20.0704C9.15137 20.5147 8.88773 20.9716 8.44353 21.0904L5.15947 21.9707C5.08657 21.99 5.01451 22 4.94331 22C4.5754 22 4.23885 21.754 4.13882 21.3816C4.01929 20.9373 4.28378 20.4804 4.72798 20.3608L6.27931 19.9449L6.23946 19.9223C4.28209 18.7927 2.87996 16.9468 2.29249 14.7252C1.70672 12.5103 2.00681 10.21 3.13852 8.25035C3.36825 7.85122 3.87857 7.71483 4.27615 7.94494C4.67543 8.17505 4.81191 8.68463 4.58133 9.08293C3.67173 10.6594 3.43098 12.512 3.904 14.2993Z" fill="currentColor"/>
</svg>