<svg width="24" height="24" viewBox="0 0 24 24" fill="none" xmlns="http://www.w3.org/2000/svg">
<g clip-path="url(#clip0_620_19461)">
<path d="M11.9989 21.9978C17.5212 21.9978 21.9978 17.5212 21.9978 11.9989C21.9978 6.47667 17.5212 2 11.9989 2C6.47667 2 2 6.47667 2 11.9989C2 17.5212 6.47667 21.9978 11.9989 21.9978Z" fill="url(#paint0_linear_620_19461)"/>
<path d="M8.70528 9.51292C8.62535 9.4137 8.50409 9.35858 8.37455 9.35858H5.70395C5.6819 9.35858 5.66261 9.35031 5.64607 9.33653C5.63229 9.32275 5.62402 9.30622 5.62402 9.28692V7.48723C5.62402 7.46794 5.63229 7.4514 5.64607 7.43762C5.66261 7.42109 5.6819 7.41282 5.70395 7.41557H8.52614C9.2372 7.41557 9.85179 7.70771 10.3699 8.28924L11.0562 9.12707L9.7195 10.7559L8.70528 9.51292ZM13.6386 8.28097C14.154 7.70496 14.7713 7.41557 15.4907 7.41557H18.3046C18.3239 7.41282 18.3432 7.42109 18.3569 7.43211C18.3707 7.44589 18.3762 7.46518 18.3735 7.48723V9.28692C18.3735 9.30622 18.368 9.32275 18.3569 9.33653C18.3432 9.35307 18.3239 9.36134 18.3046 9.35858H15.634C15.5072 9.35583 15.3859 9.4137 15.3032 9.51292L13.3354 11.9079L15.3115 14.3195C15.3914 14.4104 15.5099 14.4655 15.6312 14.4628H18.3018C18.3211 14.46 18.3432 14.471 18.3542 14.4848C18.3652 14.5014 18.3735 14.5234 18.3707 14.5427V16.3424C18.3707 16.3617 18.3652 16.3782 18.3542 16.392C18.3404 16.4085 18.3211 16.4168 18.3018 16.414H15.4907C14.7713 16.414 14.1595 16.1219 13.6469 15.5404L12.0098 13.5423L10.3727 15.5404C9.85731 16.1219 9.23995 16.414 8.52062 16.414H5.70395C5.68466 16.4168 5.66261 16.4058 5.65158 16.392C5.6378 16.3755 5.63229 16.3534 5.63505 16.3341V14.5344C5.63505 14.5151 5.64056 14.4986 5.65158 14.4848C5.66536 14.4683 5.68466 14.46 5.70395 14.4628H8.37455C8.50133 14.4628 8.6226 14.4049 8.70528 14.3084L10.6373 11.9493L13.6386 8.28097Z" fill="#00D1FF"/>
</g>
<defs>
<linearGradient id="paint0_linear_620_19461" x1="12.0003" y1="1.99994" x2="12.0003" y2="7.29154" gradientUnits="userSpaceOnUse">
<stop stop-color="#090220"/>
<stop offset="1" stop-color="#170659"/>
</linearGradient>
<clipPath id="clip0_620_19461">
<rect width="20" height="20" fill="white" transform="translate(2 2)"/>
</clipPath>
</defs>
</svg>
