<svg viewBox="0 0 24 24" fill="none" xmlns="http://www.w3.org/2000/svg">
<g clip-path="url(#clip0_1265_20761)">
<path d="M12 24C18.6274 24 24 18.6274 24 12C24 5.37258 18.6274 0 12 0C5.37258 0 0 5.37258 0 12C0 18.6274 5.37258 24 12 24Z" fill="#0082C6"/>
<path d="M13.1935 11.9766C13.1813 11.9741 13.1686 11.9751 13.1569 11.9793C13.1452 11.9835 13.1348 11.9908 13.127 12.0005C13.1216 12.0073 13.1177 12.015 13.1155 12.0234C13.1132 12.0317 13.1127 12.0404 13.114 12.0489C13.1152 12.0575 13.1182 12.0656 13.1228 12.073C13.1273 12.0803 13.1333 12.0866 13.1404 12.0915C15.6948 13.9453 12.0589 18.1897 5 13.6729C10.985 19.305 19.3191 13.0838 13.1935 11.9766ZM9.7845 9.4986C4.48433 11.1943 10.5563 15.1937 11.083 13.1736C11.0853 13.1652 11.0859 13.1563 11.0847 13.1477C11.0835 13.139 11.0806 13.1307 11.0761 13.1232C11.0715 13.1157 11.0655 13.1092 11.0584 13.1041C11.0512 13.0991 11.0431 13.0955 11.0346 13.0937C11.0223 13.0905 11.0094 13.0907 10.9973 13.0943C10.2173 13.348 5.92167 12.1469 9.78392 9.4986H9.7845ZM19 10.5177C14.4109 7.24518 5.80033 9.94368 10.2424 12.2543C10.2583 12.2623 10.2766 12.2639 10.2937 12.2588C10.3107 12.2537 10.3252 12.2423 10.334 12.2268C10.3387 12.2181 10.3413 12.2084 10.3416 12.1985C10.3419 12.1886 10.3399 12.1787 10.3358 12.1697C8.52917 8.35235 17.7056 9.51318 19 10.5177ZM15.192 15.2724C17.6181 14.1699 15.6452 10.3952 12.4363 11.1238C12.4191 11.1276 12.401 11.1246 12.386 11.1154C12.3709 11.1061 12.3601 11.0913 12.3558 11.0742C12.3531 11.0624 12.3538 11.05 12.3579 11.0386C12.3621 11.0272 12.3695 11.0173 12.3792 11.01C14.8758 9.13402 19.5623 13.5137 15.192 15.2724Z" fill="white"/>
</g>
<defs>
<clipPath id="clip0_1265_20761">
<rect width="24" height="24" fill="white"/>
</clipPath>
</defs>
</svg>