<svg width="24" height="24" viewBox="0 0 24 24" fill="none" xmlns="http://www.w3.org/2000/svg">
<g clip-path="url(#clip0_620_19476)">
<path fill-rule="evenodd" clip-rule="evenodd" d="M19.9829 9.20165C19.0002 8.26841 17.6124 7.491 15.8118 6.99739H15.8014C11.5166 5.82735 9.99007 8.59487 13.4595 10.3395C17.3982 12.3174 17.9455 15.5567 15.7224 17.5825C15.1561 18.0979 13.3155 19.0625 11.6224 19.2941C8.93363 19.6684 5.94992 19.0947 3.52478 18.3216C4.8438 19.35 6.35116 20.1084 7.96132 20.5538C11.7421 21.5984 16.3088 20.8289 19.335 18.1885C22.3829 15.5254 22.6743 11.7507 19.9829 9.20165ZM15.8135 6.99826L15.8526 7.00958L15.8135 6.99826Z" fill="#008DD0"/>
<path fill-rule="evenodd" clip-rule="evenodd" d="M7.57507 2.95865C9.66186 2.10494 11.9353 1.81556 14.1683 2.1194C16.4014 2.42324 18.5159 3.30967 20.301 4.6902C15.7733 3.24507 12.2605 3.37043 9.95597 4.30106L9.92214 4.31499C7.07634 5.48328 6.09015 7.87471 7.32874 10.0372C7.99574 11.2029 9.17188 12.0743 10.3645 12.6724C13.5182 14.2577 12.5485 16.6857 9.13371 16.2417C8.75472 16.191 8.3797 16.1139 8.01135 16.011C1.3058 14.1732 0.324818 8.45799 4.48987 4.82339C5.40931 4.03604 6.45166 3.40603 7.57507 2.95865Z" fill="#008DD0"/>
</g>
<defs>
<clipPath id="clip0_620_19476">
<rect width="19.8261" height="19" fill="white" transform="translate(2 2)"/>
</clipPath>
</defs>
</svg>
