<svg viewBox="0 0 24 24" fill="none" xmlns="http://www.w3.org/2000/svg">
<g clip-path="url(#clip0_1265_20757)">
<path d="M12 24C18.6274 24 24 18.6274 24 12C24 5.37258 18.6274 0 12 0C5.37258 0 0 5.37258 0 12C0 18.6274 5.37258 24 12 24Z" fill="#002342"/>
<path d="M5 10.25H5.75717V10.9622H5V10.25ZM5.75717 13.0348H7.96042V13.75H5V11.6745H7.2225V12.3862H5.75775V13.0348H5.75717ZM16.0396 11.6745H19V13.75H16.7775V13.0348H18.2428V12.3867H16.0396V11.6745ZM18.2551 10.9967H16.0384V10.2844H18.2551V10.9961V10.9967ZM8.682 11.6745H11.6424V13.0652H10.9051V13.75H8.682V11.6745ZM10.8852 13.0348V12.3867H9.43917V13.0343H10.8858L10.8852 13.0348ZM8.682 10.25H11.6424V10.9622H8.682V10.25ZM12.3768 11.6745H15.3372V13.0652H14.5999V13.75H12.3774V11.6745H12.3768ZM14.5772 13.0348V12.3867H13.1305V13.0343H14.5772V13.0348ZM12.3768 10.25H15.3372V10.9622H12.3768V10.25Z" fill="white"/>
</g>
<defs>
<clipPath id="clip0_1265_20757">
<rect width="24" height="24" fill="white"/>
</clipPath>
</defs>
</svg>