<svg width="24" height="24" viewBox="0 0 24 24" fill="none" xmlns="http://www.w3.org/2000/svg">
<path fill-rule="evenodd" clip-rule="evenodd" d="M20.5558 15.3333H14.5C14.04 15.3333 13.6667 14.9608 13.6667 14.5C13.6667 14.0392 14.04 13.6667 14.5 13.6667H20.3333V3.66667H3.66667V5.33333C3.66667 5.79417 3.29333 6.16667 2.83333 6.16667C2.37333 6.16667 2 5.79417 2 5.33333V3.4475C2 2.64917 2.64833 2 3.44417 2H20.5558C21.3517 2 22 2.64917 22 3.4475V13.8867C22 14.6842 21.3517 15.3333 20.5558 15.3333ZM4.03 7H10.8033C11.9225 7 12.8333 7.925 12.8333 9.06167V18.2717C12.8333 19.4092 11.9225 20.3333 10.8033 20.3333H4.03C2.91083 20.3333 2 19.4092 2 18.2717V9.06167C2 7.925 2.91083 7 4.03 7ZM3.66667 18.2717C3.66667 18.4858 3.8325 18.6667 4.03 18.6667H10.8033C11 18.6667 11.1667 18.4858 11.1667 18.2717V9.06167C11.1667 8.8475 11 8.66667 10.8033 8.66667H4.03C3.8325 8.66667 3.66667 8.8475 3.66667 9.06167V18.2717ZM6.16667 9.5H8.66667C9.12667 9.5 9.5 9.8725 9.5 10.3333C9.5 10.7942 9.12667 11.1667 8.66667 11.1667H6.16667C5.70667 11.1667 5.33333 10.7942 5.33333 10.3333C5.33333 9.8725 5.70667 9.5 6.16667 9.5ZM8.66667 17.8333H6.16667V16.1667H8.66667V17.8333ZM14.5 17H17C17.46 17 17.8333 17.3733 17.8333 17.8333C17.8333 18.2942 17.46 18.6667 17 18.6667H14.5C14.04 18.6667 13.6667 18.2942 13.6667 17.8333C13.6667 17.3733 14.04 17 14.5 17Z" fill="#6B7084"/>
</svg>
