<svg width="24" height="24" viewBox="0 0 24 24" fill="none" xmlns="http://www.w3.org/2000/svg">
<path fill-rule="evenodd" clip-rule="evenodd" d="M19.9167 22H7.41667C6.26833 22 5.33333 21.0439 5.33333 19.8696V12.4629C5.33333 11.2885 6.685 10.3684 7.83333 10.3684H20.3333C21.4817 10.3684 22 11.2885 22 12.4629V19.8696C22 21.0439 21.065 22 19.9167 22ZM20.3333 19.8696V12.4629C20.3333 12.2119 20.1425 11.9995 19.9167 11.9995H7.41667C7.19083 11.9995 7 12.2119 7 12.4629V19.8696C7 20.1205 7.6075 20.4057 7.83333 20.4057H20.3333C20.5592 20.4057 20.3333 20.1205 20.3333 19.8696ZM17.8333 15.3327H19.5V16.9989H17.8333V15.3327ZM7.83333 14.4996H9.5V17.832H7.83333V14.4996ZM9.25583 8.42284C9.09333 8.58595 8.88 8.66708 8.66667 8.66708C8.45333 8.66708 8.24 8.58595 8.0775 8.42284C7.75167 8.09747 7.75167 7.56967 8.0775 7.24429L9.155 6.16695H5.27833C4.38917 6.16695 3.66667 6.88964 3.66667 7.77711V12.8334C3.66667 13.2943 3.29333 13.6665 2.83333 13.6665C2.37333 13.6665 2 13.2943 2 12.8334V7.77711C2 5.96955 3.47083 4.49992 5.27833 4.49992H9.155L8.0775 3.42258C7.75167 3.09721 7.75167 2.57025 8.0775 2.24403C8.40333 1.91866 8.93 1.91866 9.25583 2.24403L11.7558 4.74416C12.0817 5.06954 12.0817 5.59734 11.7558 5.92271L9.25583 8.42284Z" fill="#6B7084"/>
</svg>
