<svg viewBox="0 0 24 24" fill="none" xmlns="http://www.w3.org/2000/svg">
<path fill-rule="evenodd" clip-rule="evenodd" d="M17.5 22H7.5C6.12167 22 5 20.8783 5 19.5V4.5C5 3.12083 6.12167 2 7.5 2H17.5C18.8783 2 20 3.12083 20 4.5V19.5C20 20.8783 18.8783 22 17.5 22ZM18.3333 4.5C18.3333 4.04 17.9592 3.66667 17.5 3.66667H7.5C7.04083 3.66667 6.66667 4.04 6.66667 4.5V19.5C6.66667 19.96 7.04083 20.3333 7.5 20.3333H17.5C17.9592 20.3333 18.3333 19.96 18.3333 19.5V4.5ZM13.3333 6.16667H11.6667C11.2067 6.16667 10.8333 5.79417 10.8333 5.33333C10.8333 4.8725 11.2067 4.5 11.6667 4.5H13.3333C13.7933 4.5 14.1667 4.8725 14.1667 5.33333C14.1667 5.79417 13.7933 6.16667 13.3333 6.16667ZM12.5167 17H12.525C12.9859 17 13.3584 17.3725 13.3584 17.8333C13.3584 18.2933 12.9859 18.6667 12.525 18.6667C12.0642 18.6667 11.6875 18.2933 11.6875 17.8333C11.6875 17.3725 12.0567 17 12.5167 17Z" fill="currentColor"/>
</svg>