<svg width="24" height="24" viewBox="0 0 24 24" fill="none" xmlns="http://www.w3.org/2000/svg">
<path fill-rule="evenodd" clip-rule="evenodd" d="M19.5 20H4.5C3.12167 20 2 18.8783 2 17.5V7.5C2 6.12167 3.12167 5 4.5 5H19.5C20.8783 5 22 6.12167 22 7.5V17.5C22 18.8783 20.8783 20 19.5 20ZM20.3333 7.5C20.3333 7.04 19.9592 6.66667 19.5 6.66667H4.5C4.04083 6.66667 3.66667 7.04 3.66667 7.5V17.5C3.66667 17.96 4.04083 18.3333 4.5 18.3333H19.5C19.9592 18.3333 20.3333 17.96 20.3333 17.5V7.5ZM17.8584 13.3333C17.3984 13.3333 17.0209 12.96 17.0209 12.5C17.0209 12.0392 17.39 11.6667 17.85 11.6667H17.8584C18.3184 11.6667 18.6917 12.0392 18.6917 12.5C18.6917 12.96 18.3184 13.3333 17.8584 13.3333ZM5.33333 14.1667C4.87333 14.1667 4.5 13.7942 4.5 13.3333V11.6667C4.5 11.2058 4.87333 10.8333 5.33333 10.8333C5.79333 10.8333 6.16667 11.2058 6.16667 11.6667V13.3333C6.16667 13.7942 5.79333 14.1667 5.33333 14.1667Z" fill="#6B7084"/>
</svg>
