<svg width="24" height="24" viewBox="0 0 24 24" fill="none" xmlns="http://www.w3.org/2000/svg">
<path fill-rule="evenodd" clip-rule="evenodd" d="M21.3892 8.0575C21.3808 8.06583 21.3683 8.06917 21.3592 8.0775C21.3508 8.08583 21.3483 8.09833 21.34 8.10667L15.3475 14.1C15.3425 14.105 15.3358 14.1067 15.33 14.1108C15.3017 14.1392 15.2625 14.155 15.2292 14.1783C15.1708 14.2192 15.115 14.2625 15.05 14.2867C15.0458 14.2883 15.0433 14.2917 15.04 14.2933L12.2817 15.2842C12.19 15.3167 12.0942 15.3333 12 15.3333C11.7825 15.3333 11.57 15.2483 11.4108 15.0892C11.1825 14.8608 11.1067 14.5225 11.215 14.2183L12.205 11.4592C12.2075 11.4525 12.2133 11.4475 12.2167 11.4408C12.23 11.4058 12.2567 11.3775 12.2742 11.3442C12.3108 11.2792 12.345 11.2133 12.3958 11.1617C12.3983 11.1592 12.3992 11.1558 12.4017 11.1525L18.3942 5.16083C18.4025 5.1525 18.4133 5.15 18.4217 5.1425C18.4308 5.1325 18.4342 5.11917 18.4442 5.10917C19.2558 4.29917 20.5775 4.29917 21.39 5.10917C21.7833 5.50417 22 6.0275 22 6.58417C22 7.14083 21.7833 7.66417 21.3892 8.0575ZM20.2117 6.28833C20.0492 6.12583 19.7833 6.12666 19.6217 6.28916C19.6125 6.29833 19.6017 6.30083 19.5925 6.30833C19.5842 6.3175 19.5817 6.33 19.5725 6.33916L13.71 12.2017L13.3808 13.1183L14.305 12.7858L20.1617 6.92833C20.17 6.91916 20.1825 6.91666 20.1917 6.90833C20.2008 6.89833 20.2033 6.88666 20.2125 6.8775C20.3175 6.7725 20.3333 6.64833 20.3333 6.58416C20.3333 6.51916 20.3175 6.395 20.2117 6.28833ZM9.52502 17C9.98502 17 10.3584 17.3725 10.3584 17.8333C10.3584 18.2942 9.98502 18.6667 9.52502 18.6667C9.06419 18.6667 8.68752 18.2942 8.68752 17.8333C8.68752 17.3725 9.05669 17 9.51669 17H9.52502ZM7.83333 5.33333C7.83333 4.8725 8.20667 4.5 8.66667 4.5H10.3333C10.7933 4.5 11.1667 4.8725 11.1667 5.33333C11.1667 5.79417 10.7933 6.16667 10.3333 6.16667H8.66667C8.20667 6.16667 7.83333 5.79417 7.83333 5.33333ZM16.1667 5.33333C15.7058 5.33333 15.3333 4.96083 15.3333 4.5V3.83833C15.2033 3.7675 14.915 3.66667 14.5 3.66667H4.5C4.04083 3.66667 3.66667 4.04 3.66667 4.5V19.5C3.66667 19.96 4.04083 20.3333 4.5 20.3333H14.5C14.9592 20.3333 15.3333 19.96 15.3333 19.5V16.1667C15.3333 15.7058 15.7058 15.3333 16.1667 15.3333C16.6267 15.3333 17 15.7058 17 16.1667V19.5C17 20.8783 15.8783 22 14.5 22H4.5C3.12167 22 2 20.8783 2 19.5V4.5C2 3.12167 3.12167 2 4.5 2H14.5C15.9483 2 17 2.70083 17 3.66667V4.5C17 4.96083 16.6267 5.33333 16.1667 5.33333Z" fill="#6B7084"/>
</svg>
