<svg width="24" height="24" viewBox="0 0 24 24" fill="none" xmlns="http://www.w3.org/2000/svg">
<path fill-rule="evenodd" clip-rule="evenodd" d="M19.8695 22H12.4633C11.2889 22 10.3328 21.065 10.3328 19.9158V7.41667C10.3328 6.2675 11.2889 5.33333 12.4633 5.33333H19.8695C21.0448 5.33333 22 6.2675 22 7.41667V19.9158C22 21.065 21.0448 22 19.8695 22ZM20.3338 7.41667C20.3338 7.19083 20.1213 7 19.8695 7H12.4633C12.2116 7 11.969 7.60667 11.969 7.83333V20.3333C11.969 20.56 12.2116 20.3333 12.4633 20.3333H19.8695C20.1213 20.3333 20.3338 20.1417 20.3338 19.9158V7.41667ZM14.5001 7.83333H17.8335V9.5H14.5001V7.83333ZM17.0003 19.5H15.3332V17.8333H17.0003V19.5ZM12.833 3.66667H7.77735C6.88901 3.66667 6.11359 4.445 6.11359 5.33333V9.2075L7.24451 8.0775C7.5699 7.75167 8.09688 7.75167 8.42228 8.0775C8.7485 8.40333 8.7485 8.93083 8.42228 9.25583L5.92288 11.7558C5.75976 11.9183 5.54646 12 5.33316 12C5.11986 12 4.90739 11.9183 4.74428 11.7558L2.24404 9.25583C1.91865 8.93083 1.91865 8.40333 2.24404 8.0775C2.56943 7.75167 3.09725 7.75167 3.42264 8.0775L4.50003 9.155V5.2775C4.50003 3.47083 5.97056 2 7.77735 2H12.833C13.2939 2 13.667 2.3725 13.667 2.83333C13.667 3.29417 13.2939 3.66667 12.833 3.66667Z" fill="#6B7084"/>
</svg>
