<svg width="24" height="24" viewBox="0 0 24 24" fill="none" xmlns="http://www.w3.org/2000/svg">
<path fill-rule="evenodd" clip-rule="evenodd" d="M19.1667 22H5.83333C5.3725 22 5 21.6267 5 21.1667V4.5C5 4.04 5.3725 3.66667 5.83333 3.66667H8.33333V2.83333C8.33333 2.37333 8.70583 2 9.16667 2H15.8333C16.2942 2 16.6667 2.37333 16.6667 2.83333V3.66667H19.1667C19.6275 3.66667 20 4.04 20 4.5V21.1667C20 21.6267 19.6275 22 19.1667 22ZM15 3.66667H10V4.08333C10 4.30917 10.2267 4.5 10.4967 4.5H14.5033C14.7725 4.5 15 4.30917 15 4.08333V3.66667ZM18.3333 5.33333H16.2233C15.8283 5.83583 15.2075 6.16667 14.5033 6.16667H10.4967C9.7925 6.16667 9.17167 5.83583 8.77667 5.33333H6.66667V20.3333H18.3333V5.33333ZM8.93915 7.85L9.33332 8.2675L10.2108 7.28C10.5158 6.935 11.0425 6.90417 11.3867 7.21083C11.7308 7.51583 11.7617 8.0425 11.4558 8.38667L9.97499 10.0533C9.81999 10.2283 9.59915 10.3292 9.36499 10.3333C9.36082 10.3333 9.35665 10.3333 9.35249 10.3333C9.12332 10.3333 8.90415 10.2392 8.74665 10.0725L7.72749 8.995C7.41165 8.66 7.42665 8.13333 7.75999 7.81667C8.09499 7.50083 8.62249 7.515 8.93915 7.85ZM8.93915 12.0167L9.33332 12.4333L10.2108 11.4467C10.5158 11.1017 11.0425 11.0717 11.3867 11.3767C11.7308 11.6825 11.7617 12.21 11.4558 12.5533L9.97499 14.22C9.81999 14.395 9.59915 14.4967 9.36499 14.5C9.36082 14.5 9.35665 14.5 9.35249 14.5C9.12332 14.5 8.90415 14.4058 8.74665 14.2392L7.72749 13.1617C7.41165 12.8275 7.42665 12.3 7.75999 11.9842C8.09499 11.6675 8.62249 11.6817 8.93915 12.0167ZM8.93915 16.1833L9.33332 16.6008L10.2108 15.6133C10.5158 15.2683 11.0425 15.2375 11.3867 15.5442C11.7308 15.8492 11.7617 16.3758 11.4558 16.72L9.97499 18.3867C9.81999 18.5617 9.59915 18.6633 9.36499 18.6667C9.36082 18.6667 9.35665 18.6667 9.35249 18.6667C9.12332 18.6667 8.90415 18.5725 8.74665 18.4058L7.72749 17.3283C7.41165 16.9942 7.42665 16.4667 7.75999 16.15C8.09499 15.8342 8.62249 15.8483 8.93915 16.1833ZM13.3333 7.83333H16.6667C17.1275 7.83333 17.5 8.20667 17.5 8.66667C17.5 9.12667 17.1275 9.5 16.6667 9.5H13.3333C12.8725 9.5 12.5 9.12667 12.5 8.66667C12.5 8.20667 12.8725 7.83333 13.3333 7.83333ZM13.3333 12H16.6667C17.1275 12 17.5 12.3733 17.5 12.8333C17.5 13.2933 17.1275 13.6667 16.6667 13.6667H13.3333C12.8725 13.6667 12.5 13.2933 12.5 12.8333C12.5 12.3733 12.8725 12 13.3333 12ZM13.3333 16.1667H16.6667C17.1275 16.1667 17.5 16.54 17.5 17C17.5 17.46 17.1275 17.8333 16.6667 17.8333H13.3333C12.8725 17.8333 12.5 17.46 12.5 17C12.5 16.54 12.8725 16.1667 13.3333 16.1667Z" fill="#6B7084"/>
</svg>
