<svg width="24" height="24" viewBox="0 0 24 24" fill="none" xmlns="http://www.w3.org/2000/svg">
<path fill-rule="evenodd" clip-rule="evenodd" d="M20.5281 17.46L17.7576 21.6267C17.6221 21.83 17.4051 21.9642 17.1628 21.9942C17.1291 21.9983 17.0946 22 17.0601 22C16.8532 22 16.6521 21.9233 16.4964 21.7825L14.2509 19.74C13.9093 19.4308 13.8849 18.9033 14.1962 18.5633C14.5075 18.2225 15.0359 18.1992 15.3774 18.5092L16.9028 19.895L19.1332 16.54C19.3881 16.1558 19.9064 16.05 20.2926 16.305C20.6771 16.56 20.7822 17.0767 20.5281 17.46ZM9.04806 16.1667H7.36538V14.5H9.04806V16.1667ZM7.36538 7.83333H9.04806V9.5H7.36538V7.83333ZM9.04806 12.8333H7.36538V11.1667H9.04806V12.8333ZM14.7708 16.1667H11.4265C10.9646 16.1667 10.5902 15.7933 10.5902 15.3333C10.5902 14.8733 10.9646 14.5 11.4265 14.5H14.7708C15.2327 14.5 15.6071 14.8733 15.6071 15.3333C15.6071 15.7933 15.2327 16.1667 14.7708 16.1667ZM14.7708 9.5H11.4265C10.9646 9.5 10.5902 9.12667 10.5902 8.66667C10.5902 8.20667 10.9646 7.83333 11.4265 7.83333H14.7708C15.2327 7.83333 15.6071 8.20667 15.6071 8.66667C15.6071 9.12667 15.2327 9.5 14.7708 9.5ZM14.7708 12.8333H11.4265C10.9646 12.8333 10.5902 12.46 10.5902 12C10.5902 11.54 10.9646 11.1667 11.4265 11.1667H14.7708C15.2327 11.1667 15.6071 11.54 15.6071 12C15.6071 12.46 15.2327 12.8333 14.7708 12.8333ZM18.1581 14.5C17.6962 14.5 17.4614 14.1267 17.4614 13.6667V5.33333H15.205C14.8087 5.83583 14.1861 6.16667 13.4802 6.16667H9.45946C8.75357 6.16667 8.13098 5.83583 7.73471 5.33333H5.61706V20.3333H11.4703C11.9322 20.3333 12.3057 20.7067 12.3057 21.1667C12.3057 21.6267 11.9322 22 11.4703 22H4.78161C4.31887 22 4 21.6267 4 21.1667V4.5C4 4.04 4.31887 3.66667 4.78161 3.66667H7.28964V2.83333C7.28964 2.37333 7.66319 2 8.12593 2H14.8137C15.2765 2 15.65 2.37333 15.65 2.83333V3.66667H18.1581C18.6208 3.66667 19.1441 4.04 19.1441 4.5V13.6667C19.1441 14.1267 18.6208 14.5 18.1581 14.5ZM13.9783 3.66667H8.9614V4.08333C8.9614 4.30917 9.1894 4.5 9.45947 4.5H13.4802C13.7503 4.5 13.9783 4.30917 13.9783 4.08333V3.66667Z" fill="#6B7084"/>
</svg>
