<svg width="24" height="24" viewBox="0 0 24 24" fill="none" xmlns="http://www.w3.org/2000/svg">
<g clip-path="url(#clip0_1265_20753)">
<path d="M12 24C18.6274 24 24 18.6274 24 12C24 5.37258 18.6274 0 12 0C5.37258 0 0 5.37258 0 12C0 18.6274 5.37258 24 12 24Z" fill="#7B346E"/>
<path d="M6.4658 10.3746L7.9428 11.8516H5L6.4658 10.3746ZM7.9428 12.1596L6.4658 13.6254L5 12.1596H7.9428ZM9.9392 10.1625L8.4622 11.6283V8.6862L9.9392 10.1625ZM8.1542 11.6283L6.6891 10.1625L8.1549 8.6855L8.1542 11.6283ZM10.152 9.9392L8.6862 8.4734H11.6283L10.152 9.9392ZM10.152 6.6891L11.6283 8.1654H8.6862L10.152 6.6891ZM13.6254 6.4763L12.1484 7.9421V5L13.6254 6.4763ZM11.8404 7.9421L10.3746 6.477L11.8404 5V7.9421ZM9.9392 13.848L8.4622 15.3138V12.3717L9.9392 13.848ZM6.6891 13.848L8.1549 12.3717V15.3138L6.6891 13.848ZM13.8375 9.9392L12.3717 8.4734H15.3138L13.8375 9.9392ZM12.3717 8.1654L13.8375 6.6884L15.3145 8.1654H12.3717ZM11.629 15.8451L10.152 17.3109L8.6869 15.8451H11.629ZM10.152 14.0601L11.629 15.5371H8.6869L10.152 14.0601ZM17.3116 10.1625L15.8353 11.6283V8.6862L17.3116 10.1625ZM14.0615 10.1625L15.5273 8.6855V11.6283L14.0615 10.1625ZM10.3753 17.5335L11.8411 16.0579V19L10.3753 17.5335ZM12.1491 16.0579L13.6261 17.5342L12.1484 19L12.1491 16.0579ZM13.8382 17.3109L12.3724 15.8451H15.3145L13.8382 17.3109ZM13.8382 14.0608L15.3152 15.5378H12.371L13.8382 14.0608ZM15.8353 12.3717L17.3123 13.8487L15.8353 15.3138V12.3717ZM14.0615 13.8487L15.5273 12.3717V15.3138L14.0615 13.8487ZM17.5244 13.6247L16.0586 12.1596H19L17.5244 13.6247ZM17.5244 10.3746L19 11.8516H16.0579L17.5244 10.3746Z" fill="white"/>
</g>
<defs>
<clipPath id="clip0_1265_20753">
<rect width="24" height="24" fill="white"/>
</clipPath>
</defs>
</svg>
