<svg width="24" height="24" viewBox="0 0 24 24" fill="none" xmlns="http://www.w3.org/2000/svg">
<g clip-path="url(#clip0_1265_20749)">
<path d="M12 24C18.6274 24 24 18.6274 24 12C24 5.37258 18.6274 0 12 0C5.37258 0 0 5.37258 0 12C0 18.6274 5.37258 24 12 24Z" fill="#5244D4"/>
<path d="M12 18.5C8.41 18.5 5.5 15.59 5.5 12C5.5 8.41 8.41 5.5 12 5.5C15.59 5.5 18.5 8.41 18.5 12C18.5 15.59 15.59 18.5 12 18.5ZM13.6056 14.2222L12 12L10.3944 14.2222L9.08889 12L10.5444 9.51111H13.4556L14.9111 12L13.6056 14.2222ZM14.0833 8.44444H9.91667L7.83889 12L9.92222 15.5556H14.0833L16.1611 12L14.0833 8.44444Z" fill="white"/>
</g>
<defs>
<clipPath id="clip0_1265_20749">
<rect width="24" height="24" fill="white"/>
</clipPath>
</defs>
</svg>
