<svg viewBox="0 0 24 25" fill="none" xmlns="http://www.w3.org/2000/svg">
<path fill-rule="evenodd" clip-rule="evenodd" d="M21.5745 21.1667C21.5745 21.6267 21.2091 22 20.7589 22H14.2341C13.7839 22 13.4185 21.6267 13.4185 21.1667C13.4185 19.4092 14.4926 17.91 16.0023 17.2983C15.4273 16.8408 15.0497 16.1342 15.0497 15.3333C15.0497 13.955 16.1475 12.8333 17.4965 12.8333C18.8455 12.8333 19.9433 13.955 19.9433 15.3333C19.9433 16.1342 19.5657 16.8408 18.9907 17.2983C20.5004 17.91 21.5745 19.4092 21.5745 21.1667ZM17.4964 14.5C17.047 14.5 16.6808 14.8741 16.6808 15.3333C16.6808 15.7925 17.047 16.1666 17.4964 16.1666C17.9458 16.1666 18.312 15.7925 18.312 15.3333C18.312 14.8741 17.9458 14.5 17.4964 14.5ZM17.4964 18.6667C16.4329 18.6667 15.5259 19.3634 15.1891 20.3334H19.8038C19.4669 19.3634 18.56 18.6667 17.4964 18.6667ZM15.0659 11.1667C15.0601 11.1667 15.0544 11.1667 15.0495 11.1667H8.52473C8.07452 11.1667 7.70913 10.7933 7.70913 10.3333C7.70913 8.57583 8.78328 7.07667 10.293 6.46583C9.71795 6.0075 9.34033 5.30167 9.34033 4.5C9.34033 3.12167 10.4381 2 11.7871 2C13.1361 2 14.2339 3.12167 14.2339 4.5C14.2339 5.3 13.8579 6.005 13.2846 6.4625C14.7396 7.0525 15.7885 8.47083 15.8611 10.1475C15.8741 10.2075 15.8815 10.2692 15.8815 10.3333C15.8815 10.7933 15.5161 11.1667 15.0659 11.1667ZM11.7873 3.66665C11.3379 3.66665 10.9717 4.04081 10.9717 4.49998C10.9717 4.95915 11.3379 5.33331 11.7873 5.33331C12.2367 5.33331 12.6029 4.95915 12.6029 4.49998C12.6029 4.04081 12.2367 3.66665 11.7873 3.66665ZM11.7871 7.83338C10.7235 7.83338 9.81656 8.53005 9.47972 9.50005H14.0944C13.7575 8.53005 12.8506 7.83338 11.7871 7.83338ZM8.52481 15.3333C8.52481 16.1342 8.14719 16.8408 7.57219 17.2983C9.08186 17.91 10.156 19.4092 10.156 21.1667C10.156 21.6267 9.79062 22 9.34041 22H2.8156C2.36539 22 2 21.6267 2 21.1667C2 19.4092 3.07415 17.91 4.58382 17.2983C4.00883 16.8408 3.6312 16.1342 3.6312 15.3333C3.6312 13.955 4.729 12.8333 6.07801 12.8333C7.42701 12.8333 8.52481 13.955 8.52481 15.3333ZM3.77059 20.3334H8.38526C8.04842 19.3634 7.14147 18.6667 6.07792 18.6667C5.01438 18.6667 4.10743 19.3634 3.77059 20.3334ZM6.07793 14.5C5.62853 14.5 5.26233 14.8741 5.26233 15.3333C5.26233 15.7925 5.62853 16.1666 6.07793 16.1666C6.52732 16.1666 6.89353 15.7925 6.89353 15.3333C6.89353 14.8741 6.52732 14.5 6.07793 14.5ZM9.42686 15.7068C9.22459 15.2943 9.38852 14.7943 9.79143 14.5884L10.9716 13.9851V12.8334C10.9716 12.3734 11.337 12.0001 11.7872 12.0001C12.2374 12.0001 12.6028 12.3734 12.6028 12.8334V13.9851L13.783 14.5884C14.1859 14.7943 14.3498 15.2943 14.1484 15.7068C14.0048 15.9984 13.7169 16.1668 13.4176 16.1668C13.2953 16.1668 13.1705 16.1384 13.0538 16.0784L11.7872 15.4318L10.5206 16.0784C10.4039 16.1384 10.2792 16.1668 10.1568 16.1668C9.85749 16.1668 9.56959 15.9984 9.42686 15.7068Z" fill="currentColor"/>
</svg>