<svg width="24" height="24" viewBox="0 0 24 24" fill="none" xmlns="http://www.w3.org/2000/svg">
<path fill-rule="evenodd" clip-rule="evenodd" d="M20.1283 8.27888C21.2325 8.81523 22 9.92468 22 11.2171C22 11.6707 21.6267 12.0383 21.1667 12.0383H16.1667C15.7067 12.0383 15.3333 11.6707 15.3333 11.2171C15.3333 9.92468 16.1008 8.81523 17.205 8.27888C16.5792 7.83109 16.1667 7.10844 16.1667 6.28972C16.1667 4.93131 17.2883 3.82603 18.6667 3.82603C20.045 3.82603 21.1667 4.93131 21.1667 6.28972C21.1667 7.10844 20.7542 7.83109 20.1283 8.27888ZM18.6667 5.46765C18.2075 5.46765 17.8333 5.83692 17.8333 6.28972C17.8333 6.74169 18.2075 7.11011 18.6667 7.11011C19.1258 7.11011 19.5 6.74169 19.5 6.28972C19.5 5.83692 19.1258 5.46765 18.6667 5.46765ZM18.6667 9.57463C18.0509 9.57463 17.5125 9.90547 17.2242 10.395H20.1092C19.8209 9.90547 19.2825 9.57463 18.6667 9.57463ZM14.5 5.46766C14.3166 5.46766 14.1316 5.40834 13.9783 5.2872C12.9033 4.43673 11.0925 4.43673 10.0225 5.28637C9.66413 5.57041 9.13913 5.51528 8.85079 5.16189C8.56246 4.8085 8.61913 4.29137 8.97746 4.00732C10.6708 2.66478 13.3258 2.66395 15.0225 4.00649C15.3808 4.29053 15.4375 4.80766 15.1491 5.16105C14.985 5.36323 14.7433 5.46766 14.5 5.46766ZM8.66167 11.0283C8.67583 11.0884 8.68333 11.1519 8.68333 11.2171C8.68333 11.6707 8.31 12.0383 7.85 12.0383C7.84417 12.0383 7.83917 12.0383 7.83333 12.0383H2.83333C2.37333 12.0383 2 11.6707 2 11.2171C2 9.92468 2.7675 8.81523 3.87167 8.27888C3.245 7.83109 2.83333 7.10844 2.83333 6.28972C2.83333 4.93131 3.955 3.82603 5.33333 3.82603C6.71167 3.82603 7.83333 4.93131 7.83333 6.28972C7.83333 7.10928 7.42083 7.83109 6.79417 8.27972C7.84417 8.78933 8.59167 9.81607 8.66167 11.0283ZM5.33333 5.46765C4.87417 5.46765 4.5 5.83692 4.5 6.28972C4.5 6.74169 4.87417 7.11011 5.33333 7.11011C5.7925 7.11011 6.16667 6.74169 6.16667 6.28972C6.16667 5.83692 5.7925 5.46765 5.33333 5.46765ZM5.33337 9.57463C4.71754 9.57463 4.1792 9.90547 3.89087 10.395H6.77587C6.48754 9.90547 5.9492 9.57463 5.33337 9.57463ZM5.01005 12.9239C5.43505 12.7476 5.92338 12.9439 6.10172 13.3616C6.66838 14.6883 7.48171 15.776 8.27838 16.2715C8.66755 16.5137 8.78421 17.02 8.53838 17.4035C8.37922 17.6516 8.10921 17.7869 7.83255 17.7869C7.68005 17.7869 7.52671 17.746 7.38838 17.6599C5.84088 16.6975 4.89838 14.7794 4.56505 13.9999C4.38671 13.5814 4.58588 13.0993 5.01005 12.9239ZM10.5383 17.5739C9.91167 17.1261 9.5 16.4035 9.5 15.5847C9.5 14.2255 10.6217 13.1202 12 13.1202C13.3783 13.1202 14.5 14.2255 14.5 15.5847C14.5 16.4035 14.0875 17.1253 13.4617 17.5739C14.5658 18.1094 15.3333 19.2189 15.3333 20.5121C15.3333 20.9649 14.96 21.3333 14.5 21.3333H9.5C9.04 21.3333 8.66667 20.9649 8.66667 20.5121C8.66667 19.2189 9.43417 18.1102 10.5383 17.5739ZM12 14.7627C11.5408 14.7627 11.1667 15.1311 11.1667 15.5847C11.1667 16.0367 11.5408 16.4051 12 16.4051C12.4592 16.4051 12.8333 16.0367 12.8333 15.5847C12.8333 15.1311 12.4592 14.7627 12 14.7627ZM13.4425 19.69C13.1542 19.2005 12.6159 18.8688 12 18.8688C11.3842 18.8688 10.8459 19.2005 10.5575 19.69H13.4425ZM17.8984 13.3616C18.0767 12.9439 18.565 12.7476 18.99 12.9239C19.4142 13.0993 19.6134 13.5814 19.435 13.9999C19.1017 14.7794 18.1592 16.6975 16.6117 17.6599C16.4734 17.746 16.3192 17.7869 16.1675 17.7869C15.8909 17.7869 15.6209 17.6516 15.4617 17.4035C15.2159 17.02 15.3325 16.5137 15.7217 16.2715C16.5184 15.776 17.3317 14.6883 17.8984 13.3616Z" fill="#6B7084"/>
</svg>
