<svg viewBox="0 0 24 24" fill="none" xmlns="http://www.w3.org/2000/svg">
<g clip-path="url(#clip0_1265_20745)">
<path d="M12 24C18.6274 24 24 18.6274 24 12C24 5.37258 18.6274 0 12 0C5.37258 0 0 5.37258 0 12C0 18.6274 5.37258 24 12 24Z" fill="#14C8FF"/>
<path d="M17.902 9.06079C18.3134 9.39423 18.5728 10.0839 18.4818 10.5902L17.5978 15.4808C17.5055 15.9904 17.018 16.5514 16.5162 16.7275L11.6938 18.4208C11.192 18.5969 10.4458 18.4695 10.035 18.1361L6.09735 14.94C5.6859 14.6066 5.4259 13.9202 5.51885 13.4106L6.40285 8.51999C6.4945 8.01039 6.982 7.45009 7.48444 7.27329L12.3074 5.57939C12.8099 5.40259 13.5554 5.53129 13.9669 5.86409L17.902 9.06079ZM13.7998 11.2565L13.9961 10.262L12.1553 10.2652L12.4153 8.95484H11.8206C11.3916 9.61229 10.7667 10.1182 10.0344 10.4011L9.86734 11.2584H10.672C10.672 11.2584 10.3997 12.4895 10.308 12.9439C10.0805 14.1009 10.6525 14.9212 11.5313 14.9212H13.0185L13.2785 13.8227H12.0344C11.4819 13.8227 11.5112 13.5204 11.6184 12.9842L11.961 11.2539L13.7998 11.2565Z" fill="white"/>
</g>
<defs>
<clipPath id="clip0_1265_20745">
<rect width="24" height="24" fill="white"/>
</clipPath>
</defs>
</svg>