<svg viewBox="0 0 24 24" fill="none" xmlns="http://www.w3.org/2000/svg">
<path fill-rule="evenodd" clip-rule="evenodd" d="M20.9808 15.8575C20.6908 16.2158 20.1658 16.2708 19.8092 15.9808C19.4508 15.6917 19.3958 15.1667 19.6858 14.8083C20.0908 14.3083 20.3333 13.2583 20.3333 12C20.3333 7.405 16.595 3.66667 12 3.66667C7.405 3.66667 3.66667 7.405 3.66667 12C3.66667 16.595 7.405 20.3333 12 20.3333C13.5958 20.3333 15.1475 19.8808 16.4858 19.0233C16.5392 18.9925 16.9083 18.7783 16.955 18.4342C16.995 18.135 16.7875 17.7292 16.39 17.28L16.3092 17.3708C16.2933 17.3892 16.2675 17.4158 16.25 17.4325C16.075 17.6075 15.7333 17.8325 15.1808 17.8325C13.6183 17.8325 11.1925 15.96 9.59083 14.3567C7.37083 12.1375 5.25083 9.07333 6.58333 7.73833L8.1125 6.37583C8.27917 6.22833 8.49833 6.1525 8.72 6.1675C8.9425 6.18167 9.15 6.285 9.29583 6.45333L11.2658 8.72667C11.4867 8.98083 11.5325 9.34333 11.3817 9.64417L10.7417 10.925L13.0733 13.2583L14.3542 12.6175C14.655 12.4658 15.0167 12.5108 15.2708 12.7308L17.5442 14.6908C17.7125 14.8358 17.8158 15.0425 17.8317 15.2642C17.8467 15.4858 17.7725 15.705 17.6258 15.8725L17.4933 16.0233C18.3483 16.9292 18.7325 17.8267 18.6017 18.6917C18.4267 19.8492 17.4358 20.4025 17.3242 20.4625C15.7775 21.4558 13.915 22 12 22C6.48583 22 2 17.5142 2 12C2 6.48583 6.48583 2 12 2C17.5142 2 22 6.48583 22 12C22 13.1858 21.8233 14.8175 20.9808 15.8575Z" fill="currentColor"/>
</svg>