<svg viewBox="0 0 24 24" fill="none" xmlns="http://www.w3.org/2000/svg">
<g clip-path="url(#clip0_1265_20741)">
<path d="M12 24C18.6274 24 24 18.6274 24 12C24 5.37258 18.6274 0 12 0C5.37258 0 0 5.37258 0 12C0 18.6274 5.37258 24 12 24Z" fill="#0899CD"/>
<path d="M18.4823 12.5123C18.3718 14.0895 17.7425 15.4497 16.5943 16.5943C16.3048 16.8845 16.0016 17.1415 15.6843 17.3655C15.6704 17.3444 15.6552 17.3243 15.6388 17.3052L18.4102 12.504C18.4338 12.5082 18.4575 12.5111 18.4823 12.5123ZM15.3877 17.5634C14.389 18.188 13.2592 18.5 12 18.5C10.7963 18.5 9.71082 18.2146 8.7435 17.6444C8.88886 17.73 9.03659 17.8086 9.18727 17.8807C9.20219 17.8563 9.21485 17.8306 9.22509 17.8039H14.7749C14.7849 17.8306 14.7974 17.8563 14.8121 17.8807C15.0089 17.7862 15.2004 17.6798 15.3877 17.5634ZM8.31568 17.3684C7.9887 17.1372 7.68226 16.8782 7.39977 16.5943C6.25518 15.4497 5.62823 14.0889 5.51773 12.5123C5.54174 12.5114 5.56564 12.5086 5.58923 12.504L8.36118 17.3052C8.34425 17.3249 8.32903 17.3461 8.31568 17.3684ZM5.5 11.8995C5.52364 10.1463 6.15591 8.646 7.39918 7.39918C8.67023 6.13345 10.2036 5.5 12 5.5C13.7964 5.5 15.328 6.13345 16.5943 7.39977C17.8589 8.66432 18.4941 10.19 18.5 11.9758C18.4998 11.8167 18.4939 11.6576 18.4823 11.4989C18.4582 11.5 18.4343 11.503 18.4108 11.5078L15.6418 6.69777C15.6588 6.67779 15.6743 6.65645 15.6879 6.63395C15.4117 6.43837 15.1198 6.26602 14.8151 6.11868C14.7991 6.14535 14.7857 6.17344 14.7749 6.20259H9.22509C9.21436 6.17342 9.2009 6.14533 9.18491 6.11868C8.88295 6.26405 8.59223 6.43482 8.31273 6.63159C8.32632 6.65523 8.34227 6.67886 8.36118 6.70014L5.58923 11.5078C5.56546 11.5029 5.54136 11.5 5.51714 11.4989C5.50827 11.6313 5.50236 11.7648 5.50059 11.9001L5.5 11.8995ZM18.1135 11.6797C18.0738 11.7245 18.0426 11.7762 18.0214 11.8322H15.7304C15.7038 11.7629 15.6625 11.7002 15.6093 11.6484C15.5573 11.5951 15.4944 11.5538 15.4249 11.5273V7.01982L18.1135 11.6803V11.6797ZM18.0214 12.1779C18.0426 12.2338 18.0739 12.2855 18.1135 12.3303L15.4249 16.9855V12.4828C15.4944 12.4564 15.5573 12.4153 15.6093 12.3622C15.6625 12.3103 15.7038 12.2474 15.7304 12.1779H18.0214ZM5.97864 11.8328C5.95738 11.7768 5.92615 11.7251 5.88645 11.6803L8.57509 7.01982V11.5279C8.50558 11.5544 8.44267 11.5957 8.39073 11.649C8.33754 11.7008 8.29621 11.7635 8.26959 11.8328H5.97864ZM9.21977 6.5595C9.22214 6.55577 9.22412 6.55181 9.22568 6.54768H14.7755C14.797 6.60353 14.8282 6.65514 14.8677 6.70014L13.1718 9.63105C13.0553 9.6081 12.9345 9.62848 12.832 9.68836L9.21977 6.5595ZM9.22568 11.8328C9.19908 11.7635 9.15775 11.7008 9.10455 11.649C9.05259 11.5957 8.98969 11.5544 8.92018 11.5279V7.01982L11.6118 11.6744C11.5729 11.7214 11.5428 11.775 11.5231 11.8328H9.22568ZM13.5582 10.31C13.5795 10.2519 13.5901 10.1905 13.5895 10.1286C13.5909 10.0095 13.5489 9.89398 13.4714 9.80359L15.081 7.02041V11.5273C15.055 11.5367 15.0299 11.5484 15.006 11.5621L13.5582 10.3094V10.31ZM12.611 9.94777C12.5876 10.0052 12.5757 10.0666 12.5761 10.1286C12.5761 10.2527 12.6163 10.3614 12.6973 10.4542L12.0898 11.5019C12.0309 11.4901 11.9703 11.4901 11.9114 11.5019L9.40945 7.17818L12.6104 9.94777H12.611ZM12.481 11.8328C12.4601 11.7752 12.4291 11.7217 12.3894 11.675L12.9939 10.6267C13.1104 10.6497 13.2312 10.6293 13.3337 10.5694L14.7814 11.8215C14.7798 11.8256 14.7778 11.8296 14.7755 11.8334H12.481V11.8328ZM14.8966 12.3628C14.9486 12.4161 15.0115 12.4574 15.081 12.484V16.9855L12.3894 12.3226C12.4263 12.2799 12.4554 12.2311 12.4757 12.1785H14.7755C14.8021 12.248 14.8434 12.3109 14.8966 12.3628ZM11.9173 12.5011C11.9746 12.5088 12.0328 12.5078 12.0898 12.4981L14.5911 16.8301L11.3931 14.064C11.4146 14.006 11.4254 13.9445 11.425 13.8826C11.4265 13.7635 11.3845 13.648 11.3069 13.5576L11.9173 12.5011ZM14.7814 17.4464C14.7797 17.4505 14.7778 17.4544 14.7755 17.4582H9.22568C9.2053 17.4023 9.17508 17.3505 9.13645 17.3052L10.8288 14.3802C10.9453 14.4032 11.0661 14.3828 11.1686 14.3229L14.7814 17.4464ZM11.0073 13.3845C10.8908 13.3614 10.7699 13.3818 10.6675 13.4418L9.21977 12.1903C9.2221 12.1865 9.22408 12.1826 9.22568 12.1785H11.5255C11.5456 12.2316 11.5751 12.2819 11.6147 12.328L11.0073 13.3845ZM10.4459 13.7012C10.4226 13.7588 10.4109 13.8205 10.4116 13.8826C10.4116 14.0067 10.4518 14.1149 10.5328 14.2076L8.92018 16.9885V12.4834C8.94614 12.4741 8.97125 12.4627 8.99523 12.4491L10.4459 13.7018V13.7012ZM8.39073 12.3628C8.44269 12.4161 8.50559 12.4574 8.57509 12.484V16.9855L5.88645 12.3309C5.92614 12.2861 5.95737 12.2344 5.97864 12.1785H8.26959C8.29615 12.248 8.33748 12.3109 8.39073 12.3628Z" fill="white"/>
</g>
<defs>
<clipPath id="clip0_1265_20741">
<rect width="24" height="24" fill="white"/>
</clipPath>
</defs>
</svg>