<svg viewBox="0 0 24 24" fill="none" xmlns="http://www.w3.org/2000/svg">
<g clip-path="url(#clip0_1265_20737)">
<path d="M12 24C18.6274 24 24 18.6274 24 12C24 5.37258 18.6274 0 12 0C5.37258 0 0 5.37258 0 12C0 18.6274 5.37258 24 12 24Z" fill="#F4C257"/>
<path d="M8.13452 14.9335L7.54324 14.59V9.41048L8.4958 8.85686L9.08707 9.19982L8.13452 9.75395V11.5543L10.5434 12.9546V13.6207L8.13452 12.2208V14.933V14.9335ZM16.4567 13.9031V14.59L12.0002 17.1801L11.0477 16.6259V15.939L12.0002 16.4926L13.5497 15.5925V12.7928L14.1226 12.4595V15.2597L16.4567 13.9031ZM17.5929 12V11.883L15.293 13.2202V12.5536L17.5929 11.2169V8.75L11.9992 5.5L9.20309 7.12525L9.10234 7.18377L11.4023 8.52051L10.8294 8.8533L8.52938 7.51656L6.40698 8.75V15.25L9.20309 16.8753L9.30435 16.9338V14.2603L9.87731 14.5931V17.2671L12.0002 18.5L17.5929 15.25V12ZM14.6951 10.7666L12.3798 12.113V14.9126L12.0002 15.133L11.7137 14.9666V12.2748L9.30435 10.8744V10.4338L9.59083 10.2669L11.9071 11.6128L14.3165 10.2134L14.6956 10.4338V10.7671L14.6951 10.7666ZM11.4089 7.16393L11.9997 6.82096L16.4562 9.41099V10.5177L15.8659 10.8607V9.75344L14.3155 8.8533L11.9066 10.2531L11.3331 9.92035L13.7425 8.52L11.4089 7.16393Z" fill="white"/>
</g>
<defs>
<clipPath id="clip0_1265_20737">
<rect width="24" height="24" fill="white"/>
</clipPath>
</defs>
</svg>