<svg viewBox="0 0 24 24" fill="none" xmlns="http://www.w3.org/2000/svg">
<path fill-rule="evenodd" clip-rule="evenodd" d="M10.8365 17.9418C11.3671 19.9662 13.2718 21.511 14.2333 21.4477C14.2669 21.4454 17.8818 20.7508 19.8605 17.3425C21.4007 14.6906 20.8761 12.1301 18.7816 12.0745C18.0282 12.1309 9.82463 14.0844 10.8365 17.9418ZM12.6557 2.69973C11.2917 2.69973 9.99696 2.99252 8.82578 3.51482C8.62086 3.60071 8.42124 3.69874 8.22799 3.80838C8.09532 3.87929 7.96264 3.94944 7.83455 4.02569L7.86505 4.0356C7.47694 4.30476 7.14297 4.61814 6.86924 4.98108C4.16013 8.56781 13.2398 11.1748 18.0938 11.1839C20.3279 12.7905 20.9546 6.65931 18.7724 4.95745C17.0698 3.49637 14.8993 2.69519 12.6557 2.69973Z" fill="#0E3CA5"/>
<path fill-rule="evenodd" clip-rule="evenodd" d="M9.2435 4.80265C8.0159 6.60593 3.92593 7.87699 3.25342 7.67874L3.25037 7.67112L3.33424 7.50871C4.03692 6.19021 5.0348 5.05195 6.24998 4.18275C6.5016 4.00204 6.76237 3.83353 7.03153 3.67646C7.60263 3.3524 8.18975 3.33258 8.38266 3.32495C10.2035 3.3585 9.25265 4.78816 9.24274 4.80265" fill="#5493F7"/>
<mask id="mask0_620_13695" style="mask-type:alpha" maskUnits="userSpaceOnUse" x="2" y="8" width="7" height="14">
<path d="M2 8.94946H8.25009V21.4489H2V8.94946Z" fill="white"/>
</mask>
<g mask="url(#mask0_620_13695)">
<path fill-rule="evenodd" clip-rule="evenodd" d="M8.21351 18.3158C8.30501 18.9083 8.21122 21.2499 8.0877 21.4474C7.98247 21.4535 7.76135 21.4672 7.12315 21.1134C5.88482 20.4157 4.80658 19.466 3.95808 18.3257C3.33736 17.4905 2.85112 16.5633 2.51698 15.5777C2.17301 14.5583 1.99838 13.4894 2.00001 12.4134C1.99811 11.2307 2.20939 10.0573 2.62373 8.94946H2.62525C3.35724 9.90943 4.2036 10.7779 4.92262 11.7478C5.60809 12.6704 6.55053 14.1748 6.74191 14.4965C7.93291 16.492 8.12277 17.7234 8.21351 18.3158Z" fill="#5493F7"/>
</g>
<path fill-rule="evenodd" clip-rule="evenodd" d="M22.0001 12.5244C22.0001 13.8046 21.7561 15.0284 21.3146 16.1508C20.1556 17.4012 12.3386 14.3238 12.2616 14.2903C11.1926 13.8206 7.93834 12.3902 7.64478 10.1439C7.22237 6.91249 13.7584 4.66011 16.6307 4.57471C16.9746 4.57852 18.023 4.59072 18.6337 5.08938C19.6928 6.01662 20.5411 7.15977 21.1218 8.44205C21.7024 9.72432 22.0019 11.116 22.0001 12.5236V12.5244ZM15.1644 20.5175C15.6318 18.8629 19.7187 17.1672 20.6208 17.0757C20.7321 17.0642 20.7794 17.1428 20.7306 17.2327C19.7897 18.9437 18.3966 20.3528 16.7107 21.2663C15.8583 21.6795 14.9204 21.3784 15.1644 20.5175Z" fill="#5493F7"/>
</svg>