<svg width="24" height="24" viewBox="0 0 24 24" fill="none" xmlns="http://www.w3.org/2000/svg">
<path fill-rule="evenodd" clip-rule="evenodd" d="M5.66461 3.38845L2.01636 11.05C2.00177 11.0778 1.99675 11.1096 2.00206 11.1405C2.00738 11.1714 2.02275 11.1997 2.04578 11.221L11.894 20.6626C11.9223 20.6881 11.9591 20.7023 11.9973 20.7023C12.0354 20.7023 12.0722 20.6881 12.1005 20.6626L21.9546 11.221C21.9774 11.1996 21.9926 11.1713 21.9979 11.1404C22.0032 11.1096 21.9983 11.0779 21.984 11.05L18.3358 3.38845C18.3261 3.3618 18.3082 3.33889 18.2848 3.32298C18.2613 3.30708 18.2334 3.29899 18.205 3.29987H5.79404C5.76608 3.30064 5.73891 3.30938 5.71575 3.32507C5.69258 3.34077 5.67439 3.36275 5.66331 3.38845H5.66461Z" fill="#50AF95"/>
<path fill-rule="evenodd" clip-rule="evenodd" d="M13.2676 11.8338C13.197 11.8397 12.8316 11.8632 12.0181 11.8632C11.37 11.8632 10.9101 11.8456 10.745 11.8338C8.24042 11.7221 6.37216 11.2857 6.37216 10.767C6.37216 10.2483 8.24042 9.80641 10.745 9.69462V11.3978C10.9085 11.4096 11.3759 11.439 12.024 11.439C12.8019 11.439 13.1908 11.4037 13.2618 11.3978V9.69462C15.7605 9.80641 17.6287 10.2427 17.6287 10.7611C17.6287 11.2795 15.7657 11.7221 13.2676 11.8338ZM13.2676 9.52368V7.99699H16.7567V5.66919H7.25628V7.99699H10.745V9.52368C7.9103 9.65442 5.77698 10.213 5.77698 10.8909C5.77698 11.5688 7.9103 12.1228 10.745 12.2581V17.1441H13.2676V12.2581C16.0965 12.1273 18.2243 11.5684 18.2243 10.8968C18.2243 10.2251 16.0965 9.65312 13.2676 9.52401V9.52368Z" fill="white"/>
</svg>
