<svg viewBox="0 0 24 24" fill="none" xmlns="http://www.w3.org/2000/svg">
<path fill-rule="evenodd" clip-rule="evenodd" d="M21.1667 17.5H10.3333C9.87333 17.5 9.5 17.1267 9.5 16.6667C9.5 16.2067 9.87333 15.8333 10.3333 15.8333H20.3333V9.16667H10.3333C9.87333 9.16667 9.5 8.79333 9.5 8.33333C9.5 7.87333 9.87333 7.5 10.3333 7.5H21.1667C21.6267 7.5 22 7.87333 22 8.33333V16.6667C22 17.1267 21.6267 17.5 21.1667 17.5ZM9.5 6.66667H8.66667V18.3333H9.5C9.96 18.3333 10.3333 18.7067 10.3333 19.1667C10.3333 19.6267 9.96 20 9.5 20H6.16667C5.70667 20 5.33333 19.6267 5.33333 19.1667C5.33333 18.7067 5.70667 18.3333 6.16667 18.3333H7V6.66667H6.16667C5.70667 6.66667 5.33333 6.29333 5.33333 5.83333C5.33333 5.37333 5.70667 5 6.16667 5H9.5C9.96 5 10.3333 5.37333 10.3333 5.83333C10.3333 6.29333 9.96 6.66667 9.5 6.66667ZM6.16667 8.33333C6.16667 8.79333 5.79333 9.16667 5.33333 9.16667H3.66667V15.8333H5.33333C5.79333 15.8333 6.16667 16.2067 6.16667 16.6667C6.16667 17.1267 5.79333 17.5 5.33333 17.5H2.83333C2.37333 17.5 2 17.1267 2 16.6667V8.33333C2 7.87333 2.37333 7.5 2.83333 7.5H5.33333C5.79333 7.5 6.16667 7.87333 6.16667 8.33333Z" fill="currentColor"/>
</svg>