<svg width="24" height="24" viewBox="0 0 24 24" fill="none" xmlns="http://www.w3.org/2000/svg">
<path d="M13.7322 21.8999C12.2962 21.8999 11.2522 21.5559 10.5922 20.8679C9.93619 20.1799 9.60819 19.4399 9.60819 18.6439C9.60819 18.3519 9.6642 18.1079 9.78019 17.9119C9.89219 17.7159 10.0562 17.5519 10.2482 17.4439C10.4482 17.3279 10.6922 17.2719 10.9802 17.2719C11.2722 17.2719 11.5162 17.3279 11.7122 17.4439C11.9122 17.5599 12.0682 17.7159 12.1802 17.9119C12.2962 18.1119 12.3522 18.3559 12.3522 18.6439C12.3522 18.9959 12.2682 19.2799 12.1002 19.5039C11.9322 19.7239 11.7322 19.8719 11.5042 19.9399C11.7042 20.2159 12.0162 20.4079 12.4442 20.5239C12.8722 20.6479 13.3002 20.7079 13.7282 20.7079C14.3242 20.7079 14.8602 20.5479 15.3442 20.2279C15.8242 19.9079 16.1802 19.4319 16.4082 18.8079C16.6362 18.1799 16.7522 17.4719 16.7522 16.6759C16.7522 15.8119 16.6242 15.0759 16.3722 14.4639C16.1282 13.8439 15.7642 13.3879 15.2842 13.0879C14.8162 12.7959 14.2762 12.6399 13.7282 12.6399C13.3602 12.6399 12.9042 12.7919 12.3522 13.0999L11.3442 13.6039V13.0999L15.8802 7.0519H9.60819V13.3279C9.60819 13.8479 9.7242 14.2759 9.95219 14.6119C10.1802 14.9479 10.5322 15.1159 11.0082 15.1159C11.3762 15.1159 11.7242 14.9919 12.0602 14.7479C12.4002 14.4999 12.6922 14.1999 12.9322 13.8559C12.9642 13.7879 13.0002 13.7359 13.0482 13.7079C13.0882 13.6719 13.1442 13.6519 13.1962 13.6519C13.2802 13.6519 13.3802 13.6919 13.4922 13.7799C13.6002 13.8999 13.6522 14.0439 13.6522 14.2039C13.6402 14.3119 13.6202 14.4199 13.5962 14.5239C13.3362 15.1039 12.9762 15.5479 12.5202 15.8519C12.0722 16.1519 11.5482 16.3119 11.0082 16.3119C9.64819 16.3119 8.70819 16.0439 8.18819 15.5119C7.6682 14.9759 7.4082 14.2519 7.4082 13.3359V7.0559H4.2002V5.8879H7.4082V3.2279L6.6762 2.4959V1.8999H8.8082L9.60819 2.3119V5.8839L17.9002 5.8639L18.7242 6.6879L13.6402 11.7719C13.9482 11.6479 14.2722 11.5719 14.6042 11.5439C15.1522 11.5439 15.7722 11.7199 16.4602 12.0719C17.1562 12.4159 17.6882 12.8879 18.0642 13.4919C18.4402 14.0879 18.6802 14.6599 18.7842 15.2119C18.9002 15.7639 18.9562 16.2519 18.9562 16.6799C18.9562 17.6559 18.7482 18.5679 18.3362 19.4079C17.9242 20.2479 17.2962 20.8719 16.4562 21.2879C15.6162 21.6919 14.7082 21.8999 13.7322 21.8999Z" fill="#2C7DF7"/>
</svg>
