<svg viewBox="0 0 24 24" fill="none" xmlns="http://www.w3.org/2000/svg">
<g clip-path="url(#clip0_1265_20731)">
<path d="M12 24C18.6274 24 24 18.6274 24 12C24 5.37258 18.6274 0 12 0C5.37258 0 0 5.37258 0 12C0 18.6274 5.37258 24 12 24Z" fill="#434247"/>
<path d="M12 5C10.1435 5 8.36301 5.7375 7.05025 7.05025C5.7375 8.36301 5 10.1435 5 12C5 13.8565 5.7375 15.637 7.05025 16.9497C8.36301 18.2625 10.1435 19 12 19C15.8663 19 18.9997 15.866 18.9997 11.9997C18.9997 8.13403 15.8669 5 12 5ZM12 18.7167C8.28712 18.7167 5.27709 15.7067 5.27709 11.9938C5.27709 8.28212 8.28771 5.27209 12 5.27209C15.7123 5.27209 18.7229 8.28212 18.7229 11.995C18.7229 15.7073 15.7129 18.7173 12 18.7173" fill="white"/>
<path d="M12.7686 12.6877H14.5433V15.3063C14.5433 15.5661 14.2771 15.7048 14.0232 15.8382C13.7747 15.971 13.3698 15.9422 12.6875 15.9422H11.8553C10.5778 15.971 10.2193 15.8728 9.9131 15.7394C9.60693 15.6007 9.45061 15.4045 9.45061 15.15V12.6877H8.53149V15.4621C8.53149 15.6125 8.60672 15.7859 8.72249 15.9422C8.8553 16.1214 8.83826 16.1731 9.1268 16.3177C9.38714 16.4505 9.64747 16.5545 10.1153 16.6127C10.4796 16.6585 10.4161 16.6474 11.0638 16.6585H12.6011C13.757 16.6356 13.9939 16.7167 14.6814 16.37C15.2427 16.092 15.4336 15.7688 15.4736 15.5602V11.7862H12.7745V12.6877H12.7686ZM10.3756 7.34637C9.90722 7.37575 9.51995 7.52032 9.21965 7.6355C8.91348 7.75127 8.84942 7.88996 8.72249 8.04041C8.60495 8.17674 8.53913 8.35128 8.53737 8.5317V11.607H9.46236V8.82553C9.46236 8.5887 9.60693 8.3983 9.89018 8.25961C10.1793 8.11504 10.6013 8.04569 10.9944 8.04569H12.7974C13.4849 8.04569 13.8552 8.03394 14.0691 8.16088C14.2889 8.29957 14.5492 8.42121 14.5492 8.68155V9.41555H15.4736V8.42768C15.4566 8.30015 15.3179 7.93639 14.6644 7.62963C14.075 7.35225 13.8846 7.33521 12.9596 7.33521" fill="white"/>
</g>
<defs>
<clipPath id="clip0_1265_20731">
<rect width="24" height="24" fill="white"/>
</clipPath>
</defs>
</svg>