<svg width="24" height="24" viewBox="0 0 24 24" fill="none" xmlns="http://www.w3.org/2000/svg">
<path fill-rule="evenodd" clip-rule="evenodd" d="M12.0001 2C12.4767 2 12.8631 2.38635 12.8631 2.86294V5.14721C12.8631 5.6238 12.4767 6.01015 12.0001 6.01015C11.5235 6.01015 11.1372 5.6238 11.1372 5.14721V2.86294C11.1372 2.38635 11.5235 2 12.0001 2ZM4.92905 4.92893C5.26605 4.59193 5.81244 4.59193 6.14944 4.92893L7.76466 6.54415C8.10166 6.88115 8.10166 7.42754 7.76466 7.76454C7.42766 8.10154 6.88127 8.10154 6.54427 7.76454L4.92905 6.14932C4.59205 5.81232 4.59205 5.26593 4.92905 4.92893ZM19.0712 4.92893C19.4082 5.26593 19.4082 5.81232 19.0712 6.14932L17.456 7.76454C17.119 8.10154 16.5726 8.10154 16.2356 7.76454C15.8986 7.42754 15.8986 6.88115 16.2356 6.54415L17.8508 4.92893C18.1878 4.59193 18.7342 4.59193 19.0712 4.92893ZM12.0001 9.05584C10.3741 9.05584 9.05596 10.374 9.05596 12C9.05596 13.626 10.3741 14.9442 12.0001 14.9442C13.6261 14.9442 14.9443 13.626 14.9443 12C14.9443 10.374 13.6261 9.05584 12.0001 9.05584ZM7.33007 12C7.33007 9.4208 9.42092 7.32995 12.0001 7.32995C14.5793 7.32995 16.6702 9.4208 16.6702 12C16.6702 14.5792 14.5793 16.6701 12.0001 16.6701C9.42092 16.6701 7.33007 14.5792 7.33007 12ZM2.00012 12C2.00012 11.5234 2.38648 11.1371 2.86307 11.1371H5.14733C5.62392 11.1371 6.01027 11.5234 6.01027 12C6.01027 12.4766 5.62392 12.8629 5.14733 12.8629H2.86307C2.38648 12.8629 2.00012 12.4766 2.00012 12ZM17.99 12C17.99 11.5234 18.3763 11.1371 18.8529 11.1371H21.1372C21.6138 11.1371 22.0001 11.5234 22.0001 12C22.0001 12.4766 21.6138 12.8629 21.1372 12.8629H18.8529C18.3763 12.8629 17.99 12.4766 17.99 12ZM7.76466 16.2355C8.10166 16.5725 8.10166 17.1188 7.76466 17.4558L6.14944 19.0711C5.81244 19.4081 5.26605 19.4081 4.92905 19.0711C4.59205 18.7341 4.59205 18.1877 4.92905 17.8507L6.54427 16.2355C6.88127 15.8985 7.42766 15.8985 7.76466 16.2355ZM16.2356 16.2355C16.5726 15.8985 17.119 15.8985 17.456 16.2355L19.0712 17.8507C19.4082 18.1877 19.4082 18.7341 19.0712 19.0711C18.7342 19.4081 18.1878 19.4081 17.8508 19.0711L16.2356 17.4558C15.8986 17.1188 15.8986 16.5725 16.2356 16.2355ZM12.0001 17.9898C12.4767 17.9898 12.8631 18.3762 12.8631 18.8528V21.1371C12.8631 21.6136 12.4767 22 12.0001 22C11.5235 22 11.1372 21.6136 11.1372 21.1371V18.8528C11.1372 18.3762 11.5235 17.9898 12.0001 17.9898Z" fill="#6B7084"/>
</svg>
