<svg viewBox="0 0 24 24" fill="none" xmlns="http://www.w3.org/2000/svg">
<path fill-rule="evenodd" clip-rule="evenodd" d="M21.7555 11.1735L14.8495 18.0811C14.456 18.4759 13.9375 18.6733 13.4181 18.6733C12.9003 18.6733 12.3809 18.4768 11.9867 18.0828L10.6104 16.7051L6.54992 21.3459C6.17622 21.7064 5.59016 22 4.91684 22C4.29538 22 3.60066 21.7507 2.92735 21.0774C1.52309 19.6729 1.96676 18.1714 2.6088 17.5048L7.2965 13.391L5.92352 12.0175C5.13497 11.227 5.13497 9.94216 5.9227 9.15168L12.8287 2.24404C13.1547 1.91865 13.6815 1.91865 14.0074 2.24404L18.1774 6.41473C18.3824 6.61883 18.4663 6.91494 18.3996 7.196L18.1354 8.31521L19.1775 8.01993C19.4672 7.93795 19.7792 8.01909 19.9932 8.23323L21.7555 9.99486C21.9185 10.1571 22 10.3704 22 10.5837C22 10.7979 21.9185 11.0112 21.7555 11.1735ZM3.80232 18.67C3.64099 18.8732 3.49365 19.2856 4.10606 19.8988C4.84193 20.6349 5.29547 20.2426 5.34568 20.1949L9.42839 15.5231L8.47768 14.5721L3.80232 18.67ZM7.10228 10.8389L13.1646 16.9025C13.3021 17.0397 13.5342 17.0405 13.6717 16.9025L14.7392 15.8343L8.16988 9.2621L7.10146 10.3303C6.96482 10.4683 6.96482 10.7008 7.10228 10.8389ZM19.161 9.7573L17.2267 10.3052C16.9427 10.3855 16.6365 10.3094 16.4233 10.1053C16.2101 9.90117 16.1204 9.5992 16.1879 9.31145L16.6702 7.26543L13.4181 4.01236L9.34853 8.0835L15.9179 14.6549L19.9874 10.5846L19.161 9.7573Z" fill="currentColor"/>
</svg>