<svg viewBox="0 0 24 24" fill="none" xmlns="http://www.w3.org/2000/svg">
<path d="M6.16388 11.506C6.1639 11.3942 6.18601 11.2835 6.22894 11.1802C6.27188 11.0769 6.33479 10.9832 6.41406 10.9043C6.49333 10.8254 6.58741 10.7629 6.69088 10.7205C6.79436 10.6781 6.9052 10.6565 7.01703 10.657L8.43147 10.6616C8.657 10.6616 8.87329 10.7512 9.03276 10.9107C9.19223 11.0702 9.28182 11.2865 9.28182 11.512V16.8607C9.44113 16.8135 9.645 16.7631 9.86935 16.7103C10.0248 16.6737 10.1633 16.5857 10.2625 16.4606C10.3616 16.3354 10.4156 16.1804 10.4156 16.0208V9.38653C10.4156 9.16099 10.5052 8.94468 10.6647 8.78518C10.8241 8.62569 11.0404 8.53606 11.266 8.53602H12.6847C12.9102 8.53606 13.1265 8.62569 13.286 8.78518C13.4455 8.94468 13.535 9.16099 13.535 9.38653V15.5442C13.535 15.5442 13.89 15.4005 14.2355 15.2546C14.3639 15.2003 14.4735 15.1094 14.5505 14.9932C14.6276 14.8771 14.6687 14.7408 14.6688 14.6014V7.26058C14.6688 7.03508 14.7584 6.81881 14.9178 6.65935C15.0773 6.49988 15.2935 6.41027 15.519 6.41023H16.9363C17.1617 6.41045 17.3777 6.50013 17.537 6.65958C17.6963 6.81903 17.7858 7.03519 17.7858 7.26058V13.3055C19.0145 12.415 20.2597 11.3439 21.2479 10.0561C21.3913 9.86917 21.4862 9.64966 21.5241 9.41714C21.562 9.18463 21.5418 8.94634 21.4652 8.72355C21.0078 7.40752 20.2806 6.20148 19.3303 5.18259C18.3801 4.1637 17.2275 3.35441 15.9465 2.80651C14.6655 2.2586 13.2842 1.98415 11.8911 2.00071C10.4979 2.01727 9.12353 2.32448 7.85591 2.90267C6.58829 3.48087 5.45533 4.31733 4.52952 5.35852C3.60372 6.3997 2.90547 7.62269 2.47944 8.94922C2.05342 10.2758 1.90901 11.6766 2.05545 13.0622C2.20189 14.4477 2.63596 15.7874 3.32988 16.9956C3.45077 17.204 3.62864 17.3736 3.84258 17.4844C4.05652 17.5952 4.29765 17.6427 4.53763 17.6213C4.80573 17.5976 5.13953 17.5643 5.53639 17.5177C5.70911 17.4981 5.86858 17.4156 5.98441 17.286C6.10024 17.1564 6.16436 16.9887 6.16454 16.8148V11.506" fill="currentColor"/>
<path d="M6.13367 20.0839C7.62755 21.1707 9.39295 21.823 11.2346 21.9688C13.0762 22.1145 14.9222 21.7479 16.5684 20.9095C18.2146 20.0712 19.5968 18.7938 20.5621 17.2187C21.5273 15.6436 22.038 13.8321 22.0377 11.9847C22.0377 11.7536 22.027 11.5261 22.0116 11.2993C18.3529 16.7562 11.5973 19.3072 6.13367 20.0839Z" fill="currentColor"/>
</svg>