<svg viewBox="0 0 24 24" fill="none" xmlns="http://www.w3.org/2000/svg">
<path d="M12 2C17.522 2 22 6.478 22 12C22 17.522 17.522 22 12 22C6.478 22 2 17.522 2 12C2 6.478 6.478 2 12 2Z" fill="url(#paint0_linear_620_19484)"/>
<path d="M15.84 8.93992C15.714 9.08992 15.722 9.42192 15.52 9.31992C15.52 9.31992 14.114 8.78192 14.98 7.19992C15.214 6.83392 15.456 6.80992 15.42 5.91992C15.636 6.24792 16.344 6.90592 16.4 7.93992C16.456 8.62992 16.044 8.72192 15.84 8.93992Z" fill="white"/>
<path d="M14.72 11.4C15.066 11.284 15.626 11.1 15.66 9.91996C16.194 10.738 18.006 11.886 17.14 15.4C16.788 16.77 15.476 17.436 14.24 17.94C13.468 18.268 12.68 18.816 12.36 19.64C12.36 19.64 6.51797 18.902 6.69997 13.1C6.84597 10.09 9.66597 8.93996 10.86 6.73996C11.496 5.35196 11.28 3.95996 11.28 3.95996C11.28 3.95996 15 6.27396 13.32 9.83996C12.774 11.1 14.078 11.526 14.72 11.4Z" fill="white"/>
<path d="M8.97998 12.4399V14.3799H11.04V16.4399H12.98V14.3799H15.04V12.4399H8.97998Z" fill="url(#paint1_linear_620_19484)"/>
<defs>
<linearGradient id="paint0_linear_620_19484" x1="2" y1="12" x2="22" y2="12" gradientUnits="userSpaceOnUse">
<stop stop-color="#FFA50D"/>
<stop offset="1" stop-color="#FE5413"/>
</linearGradient>
<linearGradient id="paint1_linear_620_19484" x1="8.97998" y1="14.4399" x2="15.04" y2="14.4399" gradientUnits="userSpaceOnUse">
<stop stop-color="#FFA50D"/>
<stop offset="1" stop-color="#FE5413"/>
</linearGradient>
</defs>
</svg>