<svg width="24" height="24" viewBox="0 0 24 24" fill="none" xmlns="http://www.w3.org/2000/svg">
<g clip-path="url(#clip0_1265_20727)">
<path d="M12 24C18.6274 24 24 18.6274 24 12C24 5.37258 18.6274 0 12 0C5.37258 0 0 5.37258 0 12C0 18.6274 5.37258 24 12 24Z" fill="#2AB8E6"/>
<path d="M8.7241 5.5H15.2761L15.9001 6.14545V17.8545L15.2761 18.5H8.7241L8.1001 17.8545V6.14545L8.7241 5.5ZM9.3481 17.2085H14.6521V6.79155H9.3481V17.2085ZM13.9852 13.8479H12.6286V15.3189H11.404V13.8486H10.0475V12.5817H13.9852V13.8479ZM13.9852 10.2196V11.4858H10.0475V10.2196H11.404V8.7487H12.6286V10.2196H13.9852Z" fill="white"/>
</g>
<defs>
<clipPath id="clip0_1265_20727">
<rect width="24" height="24" fill="white"/>
</clipPath>
</defs>
</svg>
