<svg width="24" height="24" viewBox="0 0 24 24" fill="none" xmlns="http://www.w3.org/2000/svg">
<g clip-path="url(#clip0_1265_20718)">
<path d="M12 24C18.6274 24 24 18.6274 24 12C24 5.37258 18.6274 0 12 0C5.37258 0 0 5.37258 0 12C0 18.6274 5.37258 24 12 24Z" fill="#49BF87"/>
<path d="M5.69783 6.96526L4.99989 7.75254L7.76379 8.4875L8.81658 11.1221L9.51688 10.3322L8.53155 7.62143L5.69783 6.96526Z" fill="white"/>
<path d="M9.86433 6.50213L9.16639 7.28941L11.9303 8.02437L12.9831 10.659L13.6834 9.86906L12.6981 7.15829L9.86433 6.50213Z" fill="white"/>
<path d="M13.7996 6.03924L13.1017 6.82652L15.8656 7.56147L16.9184 10.1961L17.6187 9.40617L16.6334 6.6954L13.7996 6.03924Z" fill="white"/>
<path d="M13.7996 9.9743L13.1017 10.7616L15.8656 11.4965L16.9184 14.1312L17.6187 13.3412L16.6334 10.6305L13.7996 9.9743Z" fill="white"/>
<path d="M13.7996 14.8354L13.1017 15.6227L15.8656 16.3576L16.9184 18.9923L17.6187 18.2023L16.6334 15.4915L13.7996 14.8354Z" fill="white"/>
</g>
<defs>
<clipPath id="clip0_1265_20718">
<rect width="24" height="24" fill="white"/>
</clipPath>
</defs>
</svg>
