<svg viewBox="0 0 24 24" fill="none" xmlns="http://www.w3.org/2000/svg">
<path d="M5.73522 11.2304C5.04471 11.2304 4.48495 11.7902 4.48495 12.4807C4.48495 13.1712 5.04471 13.7309 5.73522 13.7309C6.42572 13.7309 6.98548 13.1712 6.98548 12.4807C6.98548 11.7902 6.42572 11.2304 5.73522 11.2304Z" fill="currentColor"/>
<path fill-rule="evenodd" clip-rule="evenodd" d="M13.3034 2.2392C14.8067 1.49209 16.5713 2.58562 16.5713 4.26433V8.88478H19.6544C21.1874 8.88478 22.3099 10.329 21.9316 11.8146L19.7278 20.4683C19.4984 21.3693 18.687 22 17.7572 22H2.78329C2.35069 22 2 21.6493 2 21.2167V9.66807C2 9.23547 2.35069 8.88478 2.78329 8.88478H10.8945L12.109 3.74437C12.2636 3.09004 12.7013 2.53843 13.3034 2.2392ZM15.0047 4.26433C15.0047 3.74853 14.4625 3.41254 14.0006 3.64209C13.8156 3.73403 13.6811 3.90352 13.6336 4.10457L12.2766 9.84817C12.1931 10.2017 11.8776 10.4514 11.5143 10.4514H9.60657V20.4334H17.7572C17.9707 20.4334 18.157 20.2886 18.2097 20.0817L20.4135 11.428C20.5396 10.9328 20.1654 10.4514 19.6544 10.4514H15.788C15.3554 10.4514 15.0047 10.1007 15.0047 9.66807V4.26433ZM3.56659 10.4514H8.03998V20.4334H3.56659V10.4514Z" fill="currentColor"/>
</svg>