<svg width="24" height="24" viewBox="0 0 24 24" fill="none" xmlns="http://www.w3.org/2000/svg">
<path d="M5.73522 12.7696C5.04471 12.7696 4.48495 12.2098 4.48495 11.5193C4.48495 10.8288 5.04471 10.2691 5.73522 10.2691C6.42572 10.2691 6.98548 10.8288 6.98548 11.5193C6.98548 12.2098 6.42572 12.7696 5.73522 12.7696Z" fill="#6B7084"/>
<path fill-rule="evenodd" clip-rule="evenodd" d="M13.3034 21.7608C14.8067 22.5079 16.5713 21.4144 16.5713 19.7357V15.1152H19.6544C21.1874 15.1152 22.3099 13.671 21.9316 12.1854L19.7278 3.53171C19.4984 2.63066 18.687 2 17.7572 2H2.78329C2.35069 2 2 2.35069 2 2.78329V14.3319C2 14.7645 2.35069 15.1152 2.78329 15.1152H10.8945L12.109 20.2556C12.2636 20.91 12.7013 21.4616 13.3034 21.7608ZM15.0047 19.7357C15.0047 20.2515 14.4625 20.5875 14.0006 20.3579C13.8156 20.266 13.6811 20.0965 13.6336 19.8954L12.2766 14.1518C12.1931 13.7983 11.8776 13.5486 11.5143 13.5486H9.60657V3.56659H17.7572C17.9707 3.56659 18.157 3.71141 18.2097 3.91832L20.4135 12.572C20.5396 13.0672 20.1654 13.5486 19.6544 13.5486H15.788C15.3554 13.5486 15.0047 13.8993 15.0047 14.3319V19.7357ZM3.56659 13.5486H8.03998V3.56659H3.56659V13.5486Z" fill="#6B7084"/>
</svg>
