<svg width="24" height="24" viewBox="0 0 24 24" fill="none" xmlns="http://www.w3.org/2000/svg">
<path fill-rule="evenodd" clip-rule="evenodd" d="M21.7557 10.9229L10.9224 21.7558C10.7595 21.918 10.5462 22 10.333 22C10.1197 22 9.90647 21.918 9.74443 21.7558L8.12653 20.1389C8.10302 20.1197 8.07363 20.1105 8.05096 20.0887C7.72688 19.7625 7.72688 19.2347 8.05264 18.9101C8.44893 18.5153 8.66639 17.99 8.66639 17.4313C8.66723 16.8709 8.44893 16.3439 8.0518 15.9483C7.65635 15.5518 7.13077 15.3335 6.5716 15.3335C6.01159 15.3335 5.48432 15.5518 5.08887 15.9474C4.76395 16.2736 4.23668 16.2736 3.91092 15.9483C3.88825 15.9257 3.87985 15.8964 3.86054 15.8721L2.24432 14.2561C1.91856 13.9307 1.91856 13.4029 2.24432 13.0776L13.0776 2.24466C13.4034 1.91845 13.9306 1.91845 14.2556 2.24466L15.8735 3.86153C15.897 3.88076 15.9264 3.88913 15.9482 3.91171C16.2731 4.23793 16.2731 4.76573 15.9474 5.09027C15.5511 5.48424 15.3336 6.00954 15.3336 6.56912C15.3328 7.12871 15.5511 7.65567 15.9474 8.05215C16.3428 8.44779 16.8692 8.66611 17.4284 8.66611C17.9884 8.66611 18.5157 8.44863 18.9111 8.05215C19.2361 7.72677 19.7633 7.72677 20.0891 8.05215C20.1117 8.07474 20.1201 8.10401 20.1395 8.12827L21.7557 9.7443C22.0814 10.0697 22.0814 10.5975 21.7557 10.9229ZM17.4284 10.3332C16.4226 10.3332 15.4789 9.94086 14.7686 9.22988C14.0574 8.51973 13.6662 7.5737 13.667 6.56829C13.667 5.85479 13.8727 5.17643 14.2421 4.58757L13.667 4.01209L4.01167 13.6664L4.58763 14.2427C5.17787 13.873 5.8571 13.6673 6.57159 13.6673C7.57659 13.6673 8.52113 14.0587 9.23143 14.7697C9.94257 15.4807 10.3338 16.4267 10.333 17.4321C10.333 18.1456 10.1273 18.8232 9.75786 19.4129L10.333 19.9883L19.9883 10.3332L19.4124 9.75768C18.8221 10.1266 18.1429 10.3332 17.4284 10.3332ZM14.4999 13.6664C14.2866 13.6664 14.0734 13.5853 13.9105 13.4222L10.5773 10.0889C10.2515 9.76437 10.2515 9.23657 10.5773 8.91119C10.9031 8.58497 11.4303 8.58497 11.7561 8.91119L15.0893 12.2445C15.415 12.5698 15.415 13.0976 15.0893 13.4222C14.9264 13.5853 14.7131 13.6664 14.4999 13.6664Z" fill="#6B7084"/>
</svg>
