<svg width="24" height="24" viewBox="0 0 24 24" fill="none" xmlns="http://www.w3.org/2000/svg">
<path fill-rule="evenodd" clip-rule="evenodd" d="M21.1663 13.8338H19.5007C19.0409 13.8338 18.6662 14.2073 18.6662 14.6662C18.6662 15.1267 19.0409 15.5011 19.5007 15.5011C20.8782 15.5011 22 16.6216 22 18.0007C22 19.0857 21.3013 20.0025 20.3335 20.3473V21.3335C20.3335 21.794 19.9604 22.1667 19.4998 22.1667C19.0393 22.1667 18.6662 21.794 18.6662 21.3335V20.5011H17.8333C17.3728 20.5011 16.9996 20.1285 16.9996 19.6679C16.9996 19.2074 17.3728 18.8347 17.8333 18.8347H19.5007C19.9595 18.8347 20.3335 18.4604 20.3335 18.0007C20.3335 17.5418 19.9595 17.1675 19.5007 17.1675C18.1223 17.1675 16.9996 16.0453 16.9996 14.6662C16.9996 13.582 17.6984 12.666 18.6662 12.3204V11.3342C18.6662 10.8745 19.0393 10.501 19.4998 10.501C19.9604 10.501 20.3335 10.8745 20.3335 11.3342V12.1666H21.1663C21.6277 12.1666 22 12.5401 22 12.9998C22 13.4603 21.6277 13.8338 21.1663 13.8338ZM10.3411 13.0116C10.3178 13.0116 10.2986 12.9922 10.2753 12.9896C9.84305 12.9584 9.49908 12.6077 9.49908 12.1674V8.00144C9.49908 7.5409 9.8722 7.1674 10.3328 7.1674C10.7933 7.1674 11.1664 7.5409 11.1664 8.00144V11.3216H14.5053C14.9658 11.3216 15.3331 11.6891 15.3331 12.1497C15.3331 12.6102 14.9658 13.0116 14.5053 13.0116H10.3411ZM18.1931 9.08139C17.7742 9.28082 17.2795 9.10505 17.0813 8.6893C16.131 6.70432 14.3587 5.29819 12.2175 4.83089C10.3827 4.43035 8.50137 4.76921 6.91897 5.78662C5.32742 6.80911 4.23058 8.39269 3.82831 10.2458C3.00297 14.0637 5.4232 17.8427 9.22344 18.6708C11.0648 19.0713 12.9496 18.7299 14.5336 17.7083C14.9184 17.459 15.4364 17.5697 15.6854 17.9567C15.9353 18.3429 15.8237 18.8592 15.4372 19.1085C14.0131 20.0271 12.3916 20.502 10.7375 20.502C10.1162 20.502 9.49078 20.4344 8.86865 20.2992C4.17228 19.275 1.17989 14.6079 2.19928 9.89346C2.69566 7.60428 4.05151 5.64804 6.01784 4.38472C7.97501 3.12731 10.302 2.70733 12.5723 3.20252C15.2199 3.78052 17.4111 5.5179 18.5854 7.97018C18.7836 8.38509 18.6079 8.88281 18.1931 9.08139Z" fill="#6B7084"/>
</svg>
