<svg viewBox="0 0 24 24" fill="none" xmlns="http://www.w3.org/2000/svg">
<path fill-rule="evenodd" clip-rule="evenodd" d="M19.1366 8.87417C20.0958 10.2317 20.6667 11.8817 20.6667 13.6667C20.6667 18.2617 16.9277 22 12.3333 22C7.73811 22 4 18.2617 4 13.6667C4 9.3525 7.2945 5.795 11.4997 5.37583V3.66667H10.666C10.2056 3.66667 9.83317 3.29333 9.83317 2.83333C9.83317 2.37333 10.2056 2 10.666 2H13.9998C14.4602 2 14.8327 2.37333 14.8327 2.83333C14.8327 3.29333 14.4602 3.66667 13.9998 3.66667H13.1662V5.37583C14.6318 5.52167 15.981 6.05583 17.1244 6.86333L18.4101 5.5775C18.7357 5.25167 19.263 5.25167 19.5886 5.5775L20.4223 6.41083C20.7479 6.73667 20.7479 7.26417 20.4223 7.58917L19.1366 8.87417ZM12.3333 7C8.65712 7 5.66646 9.99083 5.66646 13.6667C5.66646 17.3425 8.65712 20.3333 12.3333 20.3333C16.0086 20.3333 18.9993 17.3425 18.9993 13.6667C18.9993 9.99083 16.0086 7 12.3333 7ZM12.3333 15.3333C11.4143 15.3333 10.666 14.5858 10.666 13.6667C10.666 13.5183 10.6919 13.3775 10.7288 13.24L8.84045 11.3525C8.51485 11.0267 8.51485 10.4992 8.84045 10.1742C9.16605 9.84833 9.69337 9.84833 10.019 10.1742L11.9073 12.0617C12.0437 12.0258 12.1852 12 12.3333 12C13.2515 12 13.9998 12.7475 13.9998 13.6667C13.9998 14.5858 13.2515 15.3333 12.3333 15.3333Z" fill="currentColor"/>
</svg>