<svg width="24" height="24" viewBox="0 0 24 24" fill="none" xmlns="http://www.w3.org/2000/svg">
<g clip-path="url(#clip0_1265_20714)">
<path d="M12 24C18.6274 24 24 18.6274 24 12C24 5.37258 18.6274 0 12 0C5.37258 0 0 5.37258 0 12C0 18.6274 5.37258 24 12 24Z" fill="#EF494D"/>
<path fill-rule="evenodd" clip-rule="evenodd" d="M5 8.77021C5 8.62111 5.12111 8.5 5.27091 8.5H8.78789C10.4106 8.5 11.4256 9.33724 11.4256 10.5196C11.4256 11.0131 11.2002 11.4618 10.7494 11.8658C11.3801 12.2249 11.6958 12.7632 11.6958 13.4807C11.6958 15.1643 10.0725 15.5003 8.9902 15.5003H5.27021C5.19855 15.5003 5.12982 15.4719 5.07914 15.4212C5.02847 15.3705 5 15.3018 5 15.2301V14.4251C5 14.2753 5.12111 14.1542 5.27021 14.1542H8.9902C9.75674 14.1542 10.1404 13.9071 10.1404 13.4135C10.1404 12.92 9.75674 12.6505 8.9902 12.6057H5.27021C5.19867 12.6057 5.13005 12.5773 5.07939 12.5268C5.02874 12.4763 5.00019 12.4077 5 12.3362V11.5312C5 11.3813 5.12111 11.2602 5.27021 11.2602H8.9902C9.53133 11.1706 9.80224 10.9466 9.80224 10.5875C9.80224 10.094 9.53133 9.84687 8.9902 9.84687H5.27021C5.23467 9.84687 5.19948 9.83985 5.16665 9.82623C5.13382 9.81261 5.104 9.79264 5.0789 9.76748C5.0538 9.74231 5.03391 9.71244 5.02037 9.67958C5.00683 9.64671 4.99991 9.6115 5 9.57595V8.77091V8.77021ZM12.3049 8.77021C12.3049 8.62111 12.426 8.5 12.5751 8.5H16.16C16.3091 8.5 16.4309 8.62111 16.4309 8.77021V15.2301C16.4309 15.2657 16.4239 15.3009 16.4102 15.3337C16.3966 15.3665 16.3766 15.3964 16.3515 15.4215C16.3263 15.4466 16.2964 15.4664 16.2636 15.48C16.2307 15.4935 16.1955 15.5004 16.16 15.5003H15.1449C15.0732 15.5003 15.0045 15.4719 14.9538 15.4212C14.9032 15.3705 14.8747 15.3018 14.8747 15.2301V10.1171C14.8748 10.0815 14.8679 10.0463 14.8543 10.0135C14.8408 9.98059 14.8209 9.95072 14.7958 9.92556C14.7707 9.90039 14.7409 9.88043 14.708 9.8668C14.6752 9.85318 14.64 9.84617 14.6045 9.84617H12.5744C12.5027 9.84617 12.434 9.8177 12.3833 9.76702C12.3326 9.71635 12.3042 9.64762 12.3042 9.57595L12.3049 8.77021ZM17.3766 8.5H18.7298C18.8789 8.5 19 8.62111 19 8.77021V9.57525C19.0001 9.6108 18.9932 9.64601 18.9796 9.67887C18.9661 9.71174 18.9462 9.74161 18.9211 9.76678C18.896 9.79194 18.8662 9.81191 18.8334 9.82553C18.8005 9.83915 18.7653 9.84617 18.7298 9.84617H17.3766C17.305 9.84617 17.2362 9.8177 17.1855 9.76702C17.1349 9.71635 17.1064 9.64762 17.1064 9.57595V8.77091C17.1064 8.62111 17.2275 8.5 17.3766 8.5Z" fill="white"/>
</g>
<defs>
<clipPath id="clip0_1265_20714">
<rect width="24" height="24" fill="white"/>
</clipPath>
</defs>
</svg>
