<svg width="24" height="24" viewBox="0 0 24 24" fill="none" xmlns="http://www.w3.org/2000/svg">
<g clip-path="url(#clip0_1265_20710)">
<path d="M12 24C18.6274 24 24 18.6274 24 12C24 5.37258 18.6274 0 12 0C5.37258 0 0 5.37258 0 12C0 18.6274 5.37258 24 12 24Z" fill="#24DD7B"/>
<path d="M10.7596 6.74346L13.6216 5.5L13.5982 8.78447H17.1999V11.0595H13.5742V15.0005C13.5742 16.1965 15.6022 16.3375 16.3653 15.9391L17.0569 18.0035C15.363 18.9882 10.7356 18.7536 10.7356 15.0239V6.74281H10.7596V6.74346ZM8.08811 11.6692C7.37636 11.6692 6.7998 10.9763 6.7998 10.1215C6.7998 9.26613 7.37636 8.57322 8.08811 8.57322C8.79922 8.57322 9.37577 9.26613 9.37577 10.1215C9.37577 10.9763 8.79922 11.6692 8.08811 11.6692Z" fill="white"/>
</g>
<defs>
<clipPath id="clip0_1265_20710">
<rect width="24" height="24" fill="white"/>
</clipPath>
</defs>
</svg>
