<svg viewBox="0 0 24 24" fill="none" xmlns="http://www.w3.org/2000/svg">
<g clip-path="url(#clip0_1265_20704)">
<path d="M12 24C18.6274 24 24 18.6274 24 12C24 5.37258 18.6274 0 12 0C5.37258 0 0 5.37258 0 12C0 18.6274 5.37258 24 12 24Z" fill="#895AF8"/>
<path fill-rule="evenodd" clip-rule="evenodd" d="M12.9588 11.0521C13.0453 11.0469 13.1322 11.0469 13.2188 11.0521C14.0204 11.1063 14.3888 12.195 14.8979 12.1354C14.4207 12.5255 13.8672 12.8115 13.2729 12.975C13.0259 13.0111 12.7739 12.9607 12.5597 12.8324C12.3456 12.7041 12.1823 12.5057 12.0975 12.2709V14.4375L15.25 12.6392V9.83335L12.9588 11.0521ZM11.3933 11.0467C11.2738 10.9476 11.1764 10.8246 11.1074 10.6856C11.0383 10.5466 10.9992 10.3947 10.9925 10.2396V10.1963C10.9925 9.56794 12.0054 8.57127 12.0379 8.57127C12.0704 8.60377 13.0833 9.57335 13.0833 10.1963V10.245C13.0737 10.5232 12.9573 10.787 12.7583 10.9817L15.25 9.64377L12 8.05127L8.75 9.62752L11.3933 11.0467ZM11.9242 12.2925C11.8404 12.5284 11.6775 12.7279 11.4632 12.8573C11.2489 12.9867 10.9965 13.0378 10.7487 13.0021C10.1545 12.8386 9.60095 12.5526 9.12375 12.1625C9.63292 12.2004 9.99583 11.1063 10.8029 11.0792C10.8895 11.074 10.9763 11.074 11.0629 11.0792L8.75 9.83335V12.6446L11.9296 14.4809L11.9242 12.2925Z" fill="white"/>
<path d="M12 5.5C8.41038 5.5 5.5 8.41038 5.5 12C5.5 15.5896 8.41038 18.5 12 18.5C15.5896 18.5 18.5 15.5896 18.5 12C18.5 10.2761 17.8152 8.62279 16.5962 7.40381C15.3772 6.18482 13.7239 5.5 12 5.5ZM8.37083 9.39458L12 7.63417L15.6346 9.39458V12.8558L12 14.9521L8.37083 12.8558V9.39458ZM15.6454 14.2696L12.0271 16.3604L8.36542 14.2479V14.0475L12.0271 16.16L15.6454 14.0692V14.2696ZM15.6454 13.8633L12.0271 15.9542L8.36542 13.8417V13.625L12.0271 15.7429L15.6454 13.6521V13.8633ZM15.6454 13.4571L12.0271 15.5479L8.36542 13.4354V13.235L12.0271 15.3529L15.6454 13.2621V13.4571Z" fill="white"/>
</g>
<defs>
<clipPath id="clip0_1265_20704">
<rect width="24" height="24" fill="white"/>
</clipPath>
</defs>
</svg>