<svg width="24" height="24" viewBox="0 0 24 24" fill="none" xmlns="http://www.w3.org/2000/svg">
<g clip-path="url(#clip0_1265_20700)">
<path d="M12 24C18.6274 24 24 18.6274 24 12C24 5.37258 18.6274 0 12 0C5.37258 0 0 5.37258 0 12C0 18.6274 5.37258 24 12 24Z" fill="#FFC04E"/>
<path d="M11.7442 9.22718H11.7461L11.727 9.30991L11.5615 10.0907H11.5425L10.4524 14.7273H9.06573L10.1775 10.0907H8.31164L7.26418 14.7273H5.73945L7.12545 9H11.7919L11.7442 9.22718ZM14.3794 9H16.6894C18.6767 9.091 18.4915 10.4089 18.4915 10.4089H19L18.8155 10.9543H18.3528C18.2147 11.4545 17.2901 11.7275 17.2901 11.7275C18.3528 11.8636 18.307 12.682 18.307 12.682H18.8155L18.6767 13.2274H18.2605C18.1543 13.9846 17.4829 14.3525 16.9312 14.5275C16.5975 14.6316 16.2498 14.6838 15.9003 14.6821H12.9927L14.3794 9ZM6.47827 10.0907H5L5.27745 9H6.75573L6.47827 10.0907ZM12.8088 14.0909L11.6074 11.2725L12.1158 9.091L13.3166 11.7726L12.8088 14.0909ZM16.3432 11.2725C16.5086 11.2725 16.6677 11.2088 16.7842 11.093C16.9006 10.9772 16.9668 10.8219 16.9668 10.659C16.9668 10.4961 16.9013 10.3402 16.7842 10.225C16.6671 10.1098 16.5086 10.0455 16.3432 10.0455H15.4427L15.1659 11.2725H16.3432ZM16.032 13.6365C16.4463 13.6365 16.7823 13.3209 16.7823 12.9321C16.7823 12.5426 16.4482 12.227 16.032 12.227H14.9489L14.6155 13.6365H16.032Z" fill="white"/>
</g>
<defs>
<clipPath id="clip0_1265_20700">
<rect width="24" height="24" fill="white"/>
</clipPath>
</defs>
</svg>
