<svg viewBox="0 0 24 24" fill="none" xmlns="http://www.w3.org/2000/svg">
<g clip-path="url(#clip0_1265_20696)">
<path d="M12 24C18.6274 24 24 18.6274 24 12C24 5.37258 18.6274 0 12 0C5.37258 0 0 5.37258 0 12C0 18.6274 5.37258 24 12 24Z" fill="#FF439B"/>
<path fill-rule="evenodd" clip-rule="evenodd" d="M13.4469 11.2227L17.1083 17.5251H6.95925L8.1754 15.5081L13.6432 15.5094L12.2574 13.2474L13.4469 11.2227ZM9.7094 12.6891L13.4319 6.5011L18.5 15.0336H16.0664L13.3884 10.3796L12.0877 12.6897L9.7094 12.6891ZM12.8846 15.0414L5.5 15.0063L10.5746 6.4751L11.7835 8.52L8.9866 13.0167H11.6951L12.8846 15.0414Z" fill="white"/>
</g>
<defs>
<clipPath id="clip0_1265_20696">
<rect width="24" height="24" fill="white"/>
</clipPath>
</defs>
</svg>