<svg viewBox="0 0 24 24" fill="none" xmlns="http://www.w3.org/2000/svg">
<g clip-path="url(#clip0_1265_20692)">
<path d="M12 24C18.6274 24 24 18.6274 24 12C24 5.37258 18.6274 0 12 0C5.37258 0 0 5.37258 0 12C0 18.6274 5.37258 24 12 24Z" fill="#FF4081"/>
<path d="M10.6285 15.252L10.7312 17.525C10.7312 17.525 11.9499 17.3183 13.2194 17.525L13.3208 15.252H10.6285ZM9.1569 13.495C9.1569 13.495 12.7118 13.185 14.7937 13.495L14.9965 11.0153C13.0191 10.8619 11.0329 10.8619 9.0555 11.0153L9.1569 13.495ZM18.5 7.0886C18.5 7.0886 11.6951 5.6417 5.5 7.19195L5.95695 10.0331L6.51595 8.94825C6.51595 8.94825 12.3556 8.0701 17.5855 8.94825L18.0938 10.0338L18.5 7.0886Z" fill="white"/>
</g>
<defs>
<clipPath id="clip0_1265_20692">
<rect width="24" height="24" fill="white"/>
</clipPath>
</defs>
</svg>