<svg viewBox="0 0 24 24" fill="none" xmlns="http://www.w3.org/2000/svg">
<g clip-path="url(#clip0_1265_20688)">
<path d="M12 24C18.6274 24 24 18.6274 24 12C24 5.37258 18.6274 0 12 0C5.37258 0 0 5.37258 0 12C0 18.6274 5.37258 24 12 24Z" fill="#1A1F36"/>
<path d="M13.3291 10.9165C13.4096 10.9167 13.487 10.8858 13.5452 10.8302C13.6035 10.7746 13.6379 10.6986 13.6415 10.6182C13.645 10.5378 13.6173 10.4591 13.5642 10.3986C13.511 10.3382 13.4366 10.3006 13.3564 10.2937H11.1702V9.74714C11.1488 9.67153 11.1033 9.60498 11.0406 9.55759C10.9779 9.5102 10.9015 9.48456 10.8229 9.48456C10.7443 9.48456 10.6679 9.5102 10.6052 9.55759C10.5425 9.60498 10.497 9.67153 10.4756 9.74714V10.2937H9.89093C9.80834 10.2937 9.72913 10.3265 9.67073 10.3849C9.61232 10.4433 9.57951 10.5225 9.57951 10.6051C9.57951 10.6877 9.61232 10.7669 9.67073 10.8253C9.72913 10.8837 9.80834 10.9165 9.89093 10.9165H10.4762V12.8181C10.4789 13.2965 10.6705 13.7545 11.0092 14.0924C11.348 14.4303 11.8065 14.6207 12.2849 14.6222C12.6839 14.6162 13.069 14.4755 13.378 14.2231L13.509 14.1138C13.5511 14.0843 13.5865 14.0462 13.613 14.002C13.6394 13.9579 13.6562 13.9087 13.6623 13.8576C13.6684 13.8065 13.6637 13.7547 13.6485 13.7055C13.6332 13.6564 13.6077 13.611 13.5738 13.5724C13.5398 13.5337 13.4981 13.5027 13.4513 13.4812C13.4045 13.4598 13.3537 13.4485 13.3023 13.448C13.2508 13.4475 13.1998 13.4579 13.1526 13.4785C13.1055 13.499 13.0632 13.5293 13.0285 13.5673L12.93 13.6493C12.7735 13.7788 12.5827 13.8601 12.3809 13.8834C12.1791 13.9066 11.9749 13.8708 11.793 13.7802C11.6071 13.6916 11.4499 13.5522 11.3397 13.3781C11.2295 13.2041 11.1708 13.0024 11.1702 12.7964V10.9165H13.3291ZM16.8816 13.0372C16.8889 13.002 16.8891 12.9657 16.8822 12.9304C16.8754 12.8951 16.8617 12.8615 16.8419 12.8315C16.822 12.8015 16.7965 12.7758 16.7667 12.7557C16.7369 12.7356 16.7034 12.7216 16.6681 12.7144H16.5315C16.4707 12.7142 16.4117 12.7346 16.3641 12.7724C16.3165 12.8102 16.2832 12.863 16.2696 12.9222C16.137 13.5024 15.8843 14.0484 15.5279 14.5251C15.1715 15.0017 14.7192 15.3985 14.2002 15.6898C13.6812 15.9811 13.107 16.1604 12.5144 16.2164C11.9219 16.2723 11.3242 16.2036 10.7599 16.0146C10.1955 15.8256 9.67701 15.5205 9.23769 15.119C8.79838 14.7174 8.448 14.2284 8.20912 13.6833C7.97024 13.1381 7.84815 12.549 7.8507 11.9539C7.85326 11.3587 7.98041 10.7707 8.22396 10.2276C8.41987 9.7547 8.70704 9.325 9.06906 8.96307C9.43109 8.60114 9.86087 8.31409 10.3339 8.11831C11.2566 7.70633 12.2951 7.63283 13.2667 7.91075C14.2383 8.18866 15.0809 8.80019 15.6462 9.63783C15.6862 9.69622 15.7473 9.7368 15.8167 9.75103C15.886 9.76526 15.9582 9.75203 16.018 9.71412L16.0669 9.6811C16.1326 9.63959 16.1792 9.57386 16.1967 9.49818C16.2142 9.4225 16.2011 9.34297 16.1603 9.27688C15.5436 8.36911 14.641 7.69366 13.5962 7.35797C12.5513 7.02227 11.4242 7.04563 10.3942 7.42431C9.74077 7.64888 9.14613 8.01738 8.65421 8.5026C8.1623 8.98781 7.78567 9.57734 7.55216 10.2276C7.30948 10.8554 7.19911 11.5265 7.22798 12.199C7.25685 12.8714 7.42433 13.5306 7.71993 14.1352C8.01552 14.7399 8.43285 15.277 8.94574 15.7127C9.45864 16.1485 10.056 16.4737 10.7005 16.6678C11.3449 16.8618 12.0225 16.9207 12.6908 16.8406C13.3591 16.7605 14.0036 16.5432 14.5839 16.2023C15.1642 15.8615 15.6679 15.4044 16.0633 14.8597C16.4587 14.3151 16.7373 13.6946 16.8816 13.0372ZM12.3891 5.5H11.8426C10.855 5.5415 9.88983 5.80716 9.02014 6.27689C8.15045 6.74661 7.39904 7.40807 6.82282 8.21117C6.24661 9.01428 5.86069 9.93797 5.69429 10.9123C5.5279 11.8866 5.58539 12.886 5.86241 13.8349C5.88635 13.9139 5.9407 13.9802 6.01352 14.0192C6.08633 14.0581 6.17165 14.0666 6.25069 14.0427H6.29453C6.36061 14.0107 6.4133 13.9565 6.4433 13.8895C6.4733 13.8226 6.47868 13.7471 6.45849 13.6766C6.09639 12.4364 6.15197 11.1116 6.61668 9.90604C7.08139 8.70052 7.92945 7.68118 9.03032 7.00493C10.1312 6.32868 11.4238 6.03302 12.7092 6.16348C13.9946 6.29393 15.2014 6.84327 16.144 7.72691C17.0865 8.61055 17.7125 9.7795 17.9255 11.0538C18.1386 12.3281 17.9268 13.6371 17.3229 14.7792C16.719 15.9214 15.7565 16.8334 14.5834 17.3748C13.4103 17.9163 12.0918 18.0571 10.8309 17.7757C10.7763 17.7641 10.7196 17.7682 10.6673 17.7876C10.615 17.8069 10.5693 17.8407 10.5354 17.885C10.5016 17.9272 10.4791 17.9773 10.4701 18.0306C10.4611 18.0839 10.4658 18.1386 10.4839 18.1895C10.502 18.2405 10.5328 18.2859 10.5734 18.3216C10.614 18.3573 10.663 18.382 10.7159 18.3934C11.5848 18.5526 12.4771 18.5333 13.3384 18.3366C14.1996 18.1399 15.0118 17.77 15.7255 17.2493C16.4392 16.7286 17.0395 16.0682 17.4897 15.3081C17.94 14.548 18.2308 13.7042 18.3445 12.8281C18.4582 11.9521 18.3924 11.062 18.1511 10.2122C17.9097 9.36233 17.4979 8.57052 16.9408 7.88493C16.3836 7.19935 15.6928 6.63434 14.9102 6.22433C14.1277 5.81431 13.2699 5.56787 12.3891 5.5Z" fill="white"/>
</g>
<defs>
<clipPath id="clip0_1265_20688">
<rect width="24" height="24" fill="white"/>
</clipPath>
</defs>
</svg>