<svg viewBox="0 0 24 24" fill="none" xmlns="http://www.w3.org/2000/svg">
<path d="M13.1887 1.79159L12.5321 4.32806C13.4622 2.5366 14.9394 1.18855 16.6356 0C15.3954 1.4013 14.2648 2.80273 13.5717 4.20402C14.739 2.60751 16.3074 1.72068 18.0763 1.1353C15.7237 3.17523 13.8563 5.36417 12.4337 7.56372L11.303 7.08484C11.5035 5.32871 12.1856 3.53006 13.1887 1.79159Z" fill="#ABCD03"/>
<path d="M10.1692 6.61865L12.3212 7.48704C12.3212 8.01929 12.2768 9.64269 12.6189 10.1216C16.1981 14.605 15.5959 23.5921 11.8939 23.8226C6.25644 23.8226 4.10645 20.0977 4.10645 16.6742C4.10645 13.5522 7.95444 11.4768 10.2525 9.63208C10.836 9.13541 10.7347 8.03774 10.1692 6.61865Z" fill="#FFFCDB"/>
<path d="M12.3218 7.45544L13.0974 7.84026C13.0245 8.3368 13.1338 9.43677 13.6443 9.72043C15.9059 11.0863 18.0396 12.5763 18.8786 14.0663C21.8695 19.3169 16.7812 24.1771 12.386 23.7159C14.7751 21.9952 15.4682 18.4654 14.5745 14.6161C14.2099 13.1083 13.6443 11.7424 12.6412 10.1992C12.2066 9.44165 12.3584 8.50216 12.3218 7.45544Z" fill="#7D4698"/>
<path fill-rule="evenodd" clip-rule="evenodd" d="M12.3129 7.37431L13.5533 7.53885C13.0791 9.06432 14.4835 10.1286 14.9394 10.377C15.9607 10.927 16.9456 11.4945 17.7298 12.1863C19.2071 13.4989 20.046 15.3437 20.046 17.2949C20.046 19.2284 19.1341 21.0909 17.6022 22.3326C16.1614 23.5033 14.1736 24 12.2404 24C11.0367 24 9.96066 23.9469 8.79355 23.5742C6.13097 22.705 4.14301 20.4878 3.97889 17.8269C3.83293 15.7516 4.30712 14.1728 5.96685 12.5232C6.59934 11.8818 7.70873 11.1727 8.72315 10.5243C9.08329 10.2941 9.43145 10.0716 9.74206 9.86244C10.3258 9.47215 10.9458 8.3723 9.76022 6.29705L9.99739 6.11963L11.7543 7.26415L10.271 6.66955C10.3987 6.84697 10.7452 7.64522 10.8182 7.87576C10.9824 8.53206 10.9094 9.17082 10.7635 9.45448C10.2544 10.3482 9.50019 10.7979 8.77706 11.229C8.43809 11.4311 8.10596 11.6291 7.80912 11.8669C7.67013 11.9781 7.53009 12.0873 7.3903 12.1963C5.87926 13.3751 4.39742 14.531 4.58101 17.8269C4.67221 19.6007 6.09478 21.7648 8.22843 22.776C8.64875 22.9742 9.09133 23.1313 9.54915 23.2549C9.02299 23.0336 8.57562 22.758 8.22823 22.3681C8.22823 22.3505 8.10057 22.2262 8.10057 22.2262C7.33461 21.3747 6.40439 19.9557 6.058 18.6253L6.04327 18.564C5.92225 18.0613 5.82661 17.6639 5.96679 17.1352C6.57291 15.0197 7.87635 14.1585 9.21238 13.2758L9.30427 13.2151C9.40975 13.1487 9.52154 13.0844 9.63463 13.0193L9.63464 13.0193L9.63465 13.0193L9.63466 13.0193L9.63467 13.0193L9.6347 13.0193C9.85406 12.893 10.0783 12.764 10.2708 12.6119C10.7679 12.2533 11.0675 11.2497 11.3435 10.3253L11.3435 10.3253L11.3436 10.3252L11.3436 10.325L11.3437 10.3247C11.3815 10.1981 11.4189 10.073 11.4562 9.95127C11.4356 10.0536 11.4148 10.1663 11.3926 10.2862L11.3925 10.2865L11.3924 10.2868L11.3924 10.2869L11.3924 10.287L11.3924 10.287C11.2376 11.1229 11.018 12.3087 10.3802 12.7895L10.3615 12.8023C10.0577 13.0107 9.75345 13.2195 9.4318 13.428L9.31459 13.5055C8.04121 14.3469 6.78763 15.1753 6.20382 17.2062C6.07616 17.6498 6.18566 18.1286 6.29516 18.5721C6.62339 19.8492 7.55347 21.2328 8.28298 22.0489C8.28298 22.0666 8.31947 22.0976 8.35596 22.1287C8.39245 22.1597 8.42894 22.1908 8.42894 22.2085C9.00335 22.8688 9.1957 23.0766 11.1939 23.5259C10.6473 23.35 10.0456 23.0836 9.66903 22.8272C8.37426 21.9579 7.71692 20.8762 7.60756 19.2798C7.53464 18.0381 8.32071 16.728 9.85264 15.9475C10.9104 15.4154 11.2187 14.5827 11.5469 13.5893C11.3099 14.7246 11.0553 15.4322 9.96114 16.053C8.66637 16.7802 7.73765 18.219 7.82873 19.1945C7.93823 20.3831 8.7943 21.7474 9.76083 22.5634C10.2419 22.9644 11.0459 23.2071 11.7474 23.3526V23.3069C11.5422 23.2192 11.2213 22.9861 10.9627 22.616C10.7929 22.3908 10.6771 22.1031 10.5571 21.8048L10.5571 21.8048L10.5571 21.8048C10.5354 21.7507 10.5135 21.6963 10.4911 21.6419C10.3633 21.305 10.2324 20.9506 10.2324 20.6312C10.2324 19.8686 10.3264 18.9279 10.8917 18.2893C10.9904 18.1762 11.0761 18.0823 11.1518 17.9995C11.4451 17.6783 11.5871 17.5228 11.7474 17.0553V7.27764H12.3129V7.37431ZM12.3129 7.5031V8.20106C12.3172 8.12054 12.322 8.03537 12.3272 7.94473C12.3004 9.0124 12.6344 9.80383 12.8053 10.2091L12.8238 10.2528C12.8523 10.3249 12.9576 10.4788 13.104 10.6925L13.104 10.6926C13.4254 11.1617 13.9445 11.9196 14.2828 12.736C14.6292 13.5343 14.994 15.4323 15.0123 15.6451C15.2859 17.8447 15.1581 19.9377 14.4835 21.6939C14.1771 22.5099 13.5208 23.2502 13.0256 23.5972C14.335 23.4174 16.1314 22.774 17.2013 21.9068C18.6056 20.7716 19.3898 19.0509 19.3898 17.2949C19.3898 15.521 18.6603 13.8359 17.2925 12.6474C16.5082 11.9556 15.2135 11.1219 14.411 10.6784C13.6086 10.2349 12.6055 8.99327 12.9337 7.80485L12.3129 7.5031ZM12.3129 9.2728V11.9857C12.3443 12.1207 12.3752 12.2262 12.4044 12.2925C12.4345 12.3686 12.534 12.543 12.6721 12.7853C12.9529 13.2777 13.3934 14.0503 13.7357 14.8469C14.0482 15.5509 14.153 16.2113 14.1974 16.4904C14.2022 16.5208 14.2063 16.5467 14.2099 16.5676C14.4833 18.7671 14.2463 19.6896 13.6626 21.6762C13.5821 21.9483 13.4671 22.2079 13.333 22.4464C13.7134 21.9943 13.9977 21.4994 14.1005 21.0908C14.6842 18.6253 14.8848 15.4679 14.0823 13.0554C13.8574 12.3799 13.4593 11.7504 13.1075 11.1942L13.1075 11.1942C12.8034 10.7133 12.5339 10.2871 12.4409 9.93345C12.375 9.68325 12.3348 9.47788 12.3129 9.2728ZM12.3129 12.4718V15.1322C12.3299 15.1705 12.3485 15.2056 12.369 15.2372C12.4024 15.2933 12.4388 15.3533 12.4771 15.4167C12.6693 15.7337 12.9112 16.1328 13.0784 16.532C13.4432 17.4011 13.6443 18.3615 13.6626 18.8049C13.681 19.5677 13.5732 20.7709 13.2996 21.711C13.0967 22.3906 12.7612 22.9551 12.4182 23.2914L12.4415 23.2751C12.9921 22.7561 13.4394 21.8956 13.5896 21.1796C13.9544 19.5654 14.228 17.8625 14.0092 16.8514C13.9966 16.7984 13.9831 16.7165 13.9657 16.6114C13.9075 16.2587 13.8061 15.6448 13.5531 14.9889C13.2404 14.1814 12.8403 13.4666 12.5833 13.0074L12.5833 13.0074C12.4507 12.7706 12.3562 12.6018 12.3314 12.5233C12.3251 12.5068 12.319 12.4896 12.3129 12.4718ZM12.3129 15.5909V18.1097C12.3982 18.3931 12.4817 18.6872 12.5484 18.9793C12.676 19.6178 12.7157 20.239 12.6611 20.7002C12.6462 20.8494 12.6338 20.9922 12.6219 21.1302L12.6219 21.1302C12.5898 21.5009 12.5606 21.8375 12.4941 22.1736C12.462 22.3454 12.4016 22.5167 12.3129 22.688V22.9652C12.7215 22.5335 12.9827 21.9532 13.1159 21.3051C13.353 20.2407 13.3872 19.2479 13.3872 18.7156C13.4056 18.2544 13.1872 17.4917 12.9866 16.7998C12.9035 16.5072 12.7083 16.2087 12.5285 15.934C12.4502 15.8143 12.3748 15.6991 12.3129 15.5909ZM12.3129 21.2109C12.3323 21.0503 12.3444 20.9013 12.3481 20.7733C12.3504 20.7073 12.353 20.6402 12.3556 20.5721V20.5721C12.3742 20.0909 12.3947 19.5605 12.3147 19.0321C12.3141 19.0276 12.3135 19.0232 12.3129 19.0188V21.2109ZM11.7474 17.1107C11.6256 17.6313 11.5174 17.7811 11.2301 18.1787C11.1734 18.2571 11.1098 18.3452 11.0378 18.4476C10.4178 19.2991 10.3973 20.1316 10.4702 20.6637C10.5236 21.0085 10.6459 21.306 10.7532 21.5668L10.7623 21.5891C10.9083 21.9438 11.0569 22.2454 11.2756 22.547L11.2848 22.5585C11.4371 22.7511 11.5388 22.8797 11.7474 22.9897V17.1107Z" fill="black"/>
</svg>