<svg width="24" height="24" viewBox="0 0 24 24" fill="none" xmlns="http://www.w3.org/2000/svg">
<g clip-path="url(#clip0_1265_20681)">
<path d="M12 24C18.6274 24 24 18.6274 24 12C24 5.37258 18.6274 0 12 0C5.37258 0 0 5.37258 0 12C0 18.6274 5.37258 24 12 24Z" fill="#3058A6"/>
<path d="M12 18.1107C8.62531 18.1107 5.8893 15.3747 5.8893 12C5.8893 8.62531 8.62531 5.8893 12 5.8893C15.3747 5.8893 18.1107 8.62531 18.1107 12C18.1107 15.3747 15.3747 18.1107 12 18.1107ZM12 5.5C8.41569 5.5 5.5 8.41569 5.5 12C5.5 15.5843 8.41569 18.5 12 18.5C15.5843 18.5 18.5 15.5843 18.5 12C18.5 8.41569 15.5843 5.5 12 5.5Z" fill="white"/>
<path fill-rule="evenodd" clip-rule="evenodd" d="M14.289 14.325L13.9497 15.7945L13.8681 16.15H13.5033L11.6275 16.149H11.6199C10.868 16.1364 10.2778 15.9366 9.89064 15.5838C10.225 16.1735 10.935 16.5148 11.9259 16.5312H11.9335L13.8087 16.5323H14.1735L14.2557 16.1767L14.595 14.7072L14.3303 14.1458L14.289 14.325ZM13.6993 8.02478L13.4314 7.46777L13.3933 7.64201L13.139 8.80012H13.5289L13.6993 8.02478ZM15.0534 9.36474L14.7158 10.794L14.632 11.1468H12.5994L12.0833 13.5033C12.0724 13.5708 12.0658 13.6395 12.0658 13.6776C12.0658 13.7108 12.0697 13.732 12.0729 13.7424C12.1117 13.7569 12.1529 13.7639 12.1943 13.763H12.4165L12.9054 11.5296H14.938L15.0213 11.1762L15.3589 9.74697L15.0964 9.18288L15.0529 9.36474H15.0534ZM10.0104 11.1468H8.59424L9.08209 11.5296H9.92712L10.0104 11.1468Z" fill="white"/>
<path fill-rule="evenodd" clip-rule="evenodd" d="M12.239 14.222H12.1873C11.7931 14.2116 11.6069 14.0064 11.6069 13.6775C11.6069 13.5991 11.6199 13.4951 11.633 13.4172L12.2308 10.6883H14.2694L14.607 9.25906H12.5684L12.9452 7.54395H11.2824L10.905 9.25906H9.10063L8.77612 10.6883H10.5805L9.87815 13.898C9.84004 14.0537 9.82642 14.2356 9.82642 14.3265C9.82642 15.2423 10.5489 15.6725 11.6276 15.6905L13.5028 15.691L13.842 14.222H12.239Z" fill="white"/>
</g>
<defs>
<clipPath id="clip0_1265_20681">
<rect width="24" height="24" fill="white"/>
</clipPath>
</defs>
</svg>
