<svg viewBox="0 0 24 24" fill="none" xmlns="http://www.w3.org/2000/svg">
<path fill-rule="evenodd" clip-rule="evenodd" d="M12.0001 3.85714C11.5047 3.85714 11.011 3.86507 10.5194 3.88079C9.83666 3.90263 9.28586 4.47594 9.28586 5.19455V5.29646C10.1837 5.24194 11.0887 5.21429 12.0001 5.21429C12.9116 5.21429 13.8166 5.24194 14.7144 5.29646V5.19455C14.7144 4.47594 14.1636 3.90263 13.4809 3.88079C12.9893 3.86507 12.4956 3.85714 12.0001 3.85714ZM16.0716 5.39974V5.19455C16.0716 3.77907 14.9745 2.57074 13.5243 2.52434C13.0182 2.50816 12.5101 2.5 12.0001 2.5C11.4902 2.5 10.9821 2.50816 10.476 2.52434C9.02577 2.57074 7.92872 3.77908 7.92872 5.19455V5.39974C7.06492 5.47881 6.20827 5.5828 5.35952 5.71098C5.04526 5.75844 4.73209 5.80921 4.42004 5.86327C4.05078 5.92723 3.80328 6.27844 3.86725 6.6477C3.93121 7.01697 4.28241 7.26446 4.65168 7.2005C4.71466 7.18959 4.77768 7.17882 4.84075 7.16818L5.75042 18.9939C5.8592 20.408 7.0384 21.5 8.45671 21.5H15.5436C16.9619 21.5 18.1411 20.408 18.2499 18.9939L19.1595 7.16818C19.2226 7.17882 19.2856 7.18959 19.3486 7.2005C19.7179 7.26446 20.0691 7.01697 20.133 6.6477C20.197 6.27844 19.9495 5.92723 19.5802 5.86327C19.2682 5.80921 18.955 5.75844 18.6408 5.71098C17.792 5.5828 16.9354 5.47881 16.0716 5.39974ZM17.8141 6.96338C16.9968 6.85226 16.1721 6.76424 15.3407 6.69999C14.2385 6.61482 13.1245 6.57143 12.0001 6.57143C10.8758 6.57143 9.76178 6.61482 8.65957 6.69999C7.82816 6.76424 7.00346 6.85226 6.18615 6.96338L7.10356 18.8898C7.15795 19.5969 7.74755 20.1429 8.45671 20.1429H15.5436C16.2527 20.1429 16.8423 19.5969 16.8967 18.8898L17.8141 6.96338ZM9.49467 8.60764C9.86916 8.59324 10.1844 8.88515 10.1988 9.25963L10.512 17.4025C10.5264 17.777 10.2345 18.0922 9.86002 18.1066C9.48553 18.121 9.17027 17.8291 9.15587 17.4546L8.84268 9.31179C8.82828 8.93731 9.12018 8.62205 9.49467 8.60764ZM14.5056 8.60764C14.8801 8.62205 15.172 8.93731 15.1576 9.31179L14.8444 17.4546C14.83 17.8291 14.5148 18.121 14.1403 18.1066C13.7658 18.0922 13.4739 17.777 13.4883 17.4025L13.8015 9.25963C13.8159 8.88515 14.1311 8.59324 14.5056 8.60764Z" fill="currentColor"/>
</svg>