<svg width="24" height="24" viewBox="0 0 24 24" fill="none" xmlns="http://www.w3.org/2000/svg">
<path fill-rule="evenodd" clip-rule="evenodd" d="M10.5192 3.88079C11.0108 3.86507 11.5044 3.85714 11.9999 3.85714C12.4954 3.85714 12.989 3.86507 13.4806 3.88079C14.1634 3.90263 14.7142 4.47594 14.7142 5.19455V5.29646C13.8163 5.24194 12.9113 5.21429 11.9999 5.21429C11.0885 5.21429 10.1835 5.24194 9.28562 5.29646V5.19455C9.28562 4.47594 9.83642 3.90263 10.5192 3.88079ZM16.0713 5.19455V5.39974C16.9351 5.47881 17.7918 5.5828 18.6405 5.71098C18.9548 5.75844 19.268 5.80921 19.58 5.86327C19.9493 5.92723 20.1968 6.27844 20.1328 6.6477C20.0688 7.01697 19.7176 7.26446 19.3484 7.2005C19.2854 7.18959 19.2224 7.17882 19.1593 7.16818L18.2496 18.9939C18.1409 20.408 16.9617 21.5 15.5433 21.5H8.45646C7.03815 21.5 5.85895 20.408 5.75017 18.9939L4.8405 7.16818C4.77743 7.17882 4.71441 7.18959 4.65144 7.2005C4.28217 7.26446 3.93097 7.01697 3.867 6.6477C3.80304 6.27844 4.05053 5.92723 4.4198 5.86327C4.73185 5.80921 5.04502 5.75844 5.35927 5.71098C6.20803 5.5828 7.06467 5.47881 7.92847 5.39974V5.19455C7.92847 3.77908 9.02552 2.57074 10.4758 2.52434C10.9819 2.50816 11.4899 2.5 11.9999 2.5C12.5099 2.5 13.018 2.50816 13.524 2.52434C14.9743 2.57074 16.0713 3.77907 16.0713 5.19455ZM15.3405 6.69999C16.1719 6.76424 16.9966 6.85226 17.8139 6.96338L16.8965 18.8898C16.8421 19.5969 16.2525 20.1429 15.5433 20.1429H8.45646C7.74731 20.1429 7.15771 19.5969 7.10332 18.8898L6.1859 6.96338C7.00321 6.85226 7.82791 6.76424 8.65933 6.69999C9.76154 6.61482 10.8756 6.57143 11.9999 6.57143C13.1242 6.57143 14.2383 6.61482 15.3405 6.69999ZM10.6979 10.1568C11.1276 10.1244 11.5618 10.1079 12.0001 10.1079C12.4384 10.1079 12.8726 10.1244 13.3024 10.1568C13.6689 10.1845 13.9565 10.4721 13.9841 10.8386C13.99 10.9169 13.9954 10.9953 14.0002 11.0738C14.0257 11.4873 14.3815 11.8017 14.795 11.7762C15.2084 11.7508 15.5229 11.3949 15.4974 10.9815C15.4921 10.8961 15.4863 10.8109 15.4799 10.7258C15.3964 9.61981 14.5211 8.74451 13.4152 8.66108C12.948 8.62584 12.4761 8.60791 12.0001 8.60791C11.5241 8.60791 11.0522 8.62584 10.585 8.66108C9.57854 8.737 8.76307 9.46878 8.56166 10.4334C8.26752 10.2063 7.84342 10.2276 7.57367 10.4973C7.28078 10.7902 7.28078 11.2651 7.57367 11.558L8.68685 12.6712C8.8275 12.8118 9.01826 12.8908 9.21718 12.8908C9.41609 12.8908 9.60685 12.8118 9.74751 12.6712L10.8607 11.558C11.1536 11.2651 11.1536 10.7902 10.8607 10.4973C10.7176 10.3542 10.531 10.281 10.3434 10.2778C10.446 10.2098 10.5669 10.1667 10.6979 10.1568ZM15.3134 13.3184C15.0205 13.0255 14.5456 13.0255 14.2527 13.3184L13.1395 14.4315C12.8466 14.7244 12.8466 15.1993 13.1395 15.4922C13.2826 15.6353 13.4692 15.7085 13.6568 15.7118C13.5542 15.7798 13.4333 15.8228 13.3024 15.8327C12.8726 15.8651 12.4384 15.8816 12.0001 15.8816C11.5618 15.8816 11.1276 15.8651 10.6979 15.8327C10.3313 15.8051 10.0437 15.5175 10.0161 15.1509C10.0102 15.0727 10.0048 14.9943 9.99997 14.9157C9.97448 14.5023 9.61866 14.1878 9.20523 14.2133C8.79181 14.2388 8.47732 14.5946 8.50282 15.008C8.50808 15.0934 8.51393 15.1787 8.52035 15.2638C8.60377 16.3697 9.47908 17.245 10.585 17.3285C11.0522 17.3637 11.5241 17.3816 12.0001 17.3816C12.4761 17.3816 12.948 17.3637 13.4152 17.3285C14.4217 17.2525 15.2371 16.5208 15.4385 15.5562C15.7327 15.7833 16.1568 15.7619 16.4265 15.4922C16.7194 15.1993 16.7194 14.7244 16.4265 14.4315L15.3134 13.3184Z" fill="#6B7084"/>
</svg>
