<svg width="24" height="24" viewBox="0 0 24 24" fill="none" xmlns="http://www.w3.org/2000/svg">
<g clip-path="url(#clip0_1265_20677)">
<path d="M12 24C18.6274 24 24 18.6274 24 12C24 5.37258 18.6274 0 12 0C5.37258 0 0 5.37258 0 12C0 18.6274 5.37258 24 12 24Z" fill="#30C0F2"/>
<path d="M8.17984 5.5H15.8329C15.8329 5.5 16.0357 6.5101 17.1199 6.5777C17.1199 6.5777 20.7092 14.9302 11.9726 18.5C11.9726 18.5 3.91324 15.9403 6.75764 6.6453C6.75764 6.6453 7.97704 6.5777 8.17984 5.5ZM15.4273 6.16495H8.58934L8.58024 6.31055C8.52304 6.6284 8.36379 6.85005 8.13044 6.99955C7.98582 7.09073 7.82376 7.15073 7.65464 7.1757L7.53504 7.1874L7.50124 7.3031C6.87139 9.4546 6.84994 11.3136 7.34589 12.8996C7.75279 14.1996 8.48924 15.2656 9.45969 16.1171C9.97186 16.5662 10.5386 16.9491 11.1464 17.2565C11.3479 17.3586 11.5364 17.4424 11.7048 17.51C11.8068 17.551 11.8816 17.5776 11.9225 17.5913L11.9862 17.6108L12.048 17.5848C14.4569 16.5552 15.9142 14.9991 16.5668 13.0608C17.1063 11.4618 17.0582 9.75945 16.6558 8.14745C16.5785 7.8382 16.4852 7.53316 16.3763 7.23355C16.3676 7.20981 16.3585 7.18619 16.349 7.1627L16.3074 7.06L16.1963 7.05285C15.8804 7.03205 15.6795 6.90335 15.5554 6.69665C15.4893 6.58551 15.4483 6.46129 15.4351 6.33265L15.4273 6.16495ZM8.89809 6.5192C13.0366 6.51985 15.1056 6.5205 15.1056 6.52115C15.1342 6.6427 15.1803 6.7636 15.2486 6.87865C15.415 7.1549 15.6821 7.34145 16.0565 7.39475C16.1548 7.66992 16.2394 7.94976 16.31 8.23325C16.6974 9.78545 16.7429 11.4221 16.2288 12.9483C15.6145 14.7729 14.2489 16.2419 11.9706 17.2318C11.7447 17.1467 11.5236 17.0492 11.3083 16.94C10.7272 16.6464 10.1854 16.2808 9.69564 15.8519C8.77199 15.0407 8.07259 14.0293 7.68649 12.7949C7.21979 11.3032 7.23214 9.5495 7.81259 7.50785C7.99322 7.46659 8.16569 7.39541 8.32284 7.29725C8.60619 7.1201 8.81178 6.84204 8.89809 6.5192ZM13.6821 10.1475H13.4851C13.5046 9.7523 13.4169 8.8917 12.3476 8.6525C12.037 8.57822 11.7116 8.59309 11.409 8.6954C10.9917 8.8436 10.4938 9.21605 10.475 10.1475H10.33C10.1823 10.1475 10.0406 10.2059 9.93591 10.3101C9.83117 10.4142 9.77189 10.5556 9.77104 10.7032V13.027C9.77189 13.1747 9.83117 13.316 9.93591 13.4202C10.0406 13.5243 10.1823 13.5828 10.33 13.5827H13.6827C13.8304 13.5828 13.9721 13.5243 14.0769 13.4202C14.1816 13.316 14.2409 13.1747 14.2417 13.027V10.7032C14.2409 10.5556 14.1816 10.4142 14.0769 10.3101C13.9721 10.2059 13.8304 10.1475 13.6827 10.1475H13.6821ZM12.3788 12.7748H11.6339L11.8309 11.7952C11.7383 11.7553 11.6623 11.6846 11.6158 11.5951C11.5693 11.5056 11.5552 11.4027 11.5759 11.304C11.5965 11.2053 11.6507 11.1167 11.7291 11.0533C11.8076 10.9899 11.9055 10.9556 12.0064 10.9561C12.0659 10.9304 12.1305 10.9183 12.1953 10.9206C12.2601 10.923 12.3236 10.9397 12.3811 10.9695C12.4387 10.9994 12.4889 11.0417 12.5281 11.0934C12.5673 11.145 12.5945 11.2048 12.6078 11.2683C12.621 11.3317 12.62 11.3974 12.6048 11.4604C12.5896 11.5234 12.5606 11.5823 12.5198 11.6328C12.4791 11.6832 12.4276 11.7239 12.3691 11.752C12.3107 11.7802 12.2467 11.7949 12.1819 11.7952L12.3788 12.7748ZM10.9566 10.1475C10.9748 9.8433 11.1035 9.1231 11.905 9.0698C11.905 9.0698 12.9619 9.01195 12.943 10.1475H10.9566Z" fill="white"/>
</g>
<defs>
<clipPath id="clip0_1265_20677">
<rect width="24" height="24" fill="white"/>
</clipPath>
</defs>
</svg>
