<svg width="24" height="24" viewBox="0 0 24 24" fill="none" xmlns="http://www.w3.org/2000/svg">
<g clip-path="url(#clip0_1265_20671)">
<path d="M12 24C18.6274 24 24 18.6274 24 12C24 5.37258 18.6274 0 12 0C5.37258 0 0 5.37258 0 12C0 18.6274 5.37258 24 12 24Z" fill="#00843D"/>
<path d="M12.0014 6.33566C12.2121 6.33566 12.419 6.39073 12.6013 6.49605L16.4294 8.70629C16.6119 8.81171 16.7634 8.96331 16.8687 9.14585C16.974 9.3284 17.0294 9.53545 17.0293 9.74619V14.2554C17.0293 14.6842 16.801 15.0804 16.4294 15.2948L12.6008 17.5056C12.4183 17.6109 12.2113 17.6664 12.0006 17.6664C11.7899 17.6664 11.5829 17.6109 11.4005 17.5056L7.5713 15.2948C7.38884 15.1894 7.23731 15.0379 7.13192 14.8555C7.02653 14.6731 6.971 14.4661 6.97089 14.2554V9.74619C6.97089 9.3174 7.19972 8.92122 7.5713 8.70629L11.3994 6.49605C11.5822 6.39073 11.7897 6.33512 11.9998 6.33512H12.0009L12.0014 6.33566ZM12.0003 5.50107C11.6433 5.50128 11.2927 5.59531 10.9834 5.77374L7.15428 7.98345C6.84531 8.16245 6.58873 8.41942 6.41019 8.72865C6.23165 9.03789 6.13739 9.38857 6.13684 9.74565V14.2549C6.13739 14.612 6.23165 14.9626 6.41019 15.2719C6.58873 15.5811 6.84531 15.8381 7.15428 16.0171L10.9824 18.2273C11.6122 18.5909 12.388 18.5909 13.0172 18.2273L16.8459 16.0171C17.1548 15.8381 17.4114 15.5811 17.59 15.2719C17.7685 14.9626 17.8628 14.612 17.8633 14.2549V9.74565C17.8628 9.38857 17.7685 9.03789 17.59 8.72865C17.4114 8.41942 17.1548 8.16245 16.8459 7.98345L13.0178 5.77267C12.7082 5.59406 12.3572 5.50002 11.9998 5.5L12.0003 5.50107Z" fill="white"/>
<path d="M11.5314 12.7088C11.4874 12.7089 11.4442 12.6974 11.4061 12.6754C11.368 12.6534 11.3363 12.6218 11.3143 12.5837L10.854 11.7855C10.832 11.7475 10.8205 11.7043 10.8205 11.6604C10.8205 11.6165 10.832 11.5733 10.854 11.5353L11.3143 10.7371C11.3363 10.699 11.368 10.6673 11.4061 10.6454C11.4442 10.6234 11.4874 10.6119 11.5314 10.6119H12.4713C12.5152 10.6121 12.5583 10.6237 12.5963 10.6456C12.6342 10.6676 12.6658 10.6991 12.6879 10.7371L13.1487 11.5353C13.1707 11.5733 13.1822 11.6165 13.1822 11.6604C13.1822 11.7043 13.1707 11.7475 13.1487 11.7855L12.6879 12.5837C12.6659 12.6217 12.6343 12.6533 12.5963 12.6753C12.5583 12.6972 12.5152 12.7088 12.4713 12.7088H11.5314ZM10.2755 11.4519C10.3195 11.4518 10.3627 11.4403 10.4008 11.4183C10.4388 11.3964 10.4705 11.3648 10.4926 11.3268L10.9529 10.5285C10.9749 10.4905 10.9864 10.4474 10.9864 10.4034C10.9864 10.3595 10.9749 10.3164 10.9529 10.2783L10.3787 9.28334L9.25755 9.89498C9.21735 9.917 9.18398 9.94964 9.16107 9.98933C9.13816 10.029 9.12659 10.0742 9.12763 10.1201C9.13672 10.5681 9.18911 11.014 9.28321 11.4519H10.2755ZM13.7267 11.4519C13.6828 11.4518 13.6397 11.4403 13.6017 11.4183C13.5637 11.3964 13.5321 11.3648 13.5101 11.3268L13.0493 10.5285C13.0273 10.4905 13.0158 10.4474 13.0158 10.4034C13.0158 10.3595 13.0273 10.3164 13.0493 10.2783L13.6235 9.28334L14.7441 9.89498C14.7843 9.91689 14.8178 9.94941 14.8408 9.989C14.8638 10.0286 14.8755 10.0737 14.8746 10.1195C14.8654 10.5676 14.8135 11.0137 14.7195 11.4519H13.7267ZM12.1211 8.46265C12.0844 8.44262 12.0432 8.43213 12.0014 8.43213C11.9595 8.43213 11.9183 8.44262 11.8816 8.46265L10.7449 9.08284L11.3149 10.0698C11.3368 10.1078 11.3684 10.1394 11.4064 10.1614C11.4444 10.1833 11.4875 10.1949 11.5314 10.1949H12.4713C12.5152 10.1949 12.5584 10.1834 12.5964 10.1614C12.6344 10.1395 12.666 10.1079 12.6879 10.0698L13.2578 9.08338L12.1211 8.46319V8.46265ZM9.38693 11.8689C9.60137 12.6318 9.94397 13.3526 10.4001 14.0006L10.9535 13.0425C10.9754 13.0044 10.987 12.9613 10.987 12.9174C10.987 12.8734 10.9754 12.8303 10.9535 12.7922L10.4926 11.994C10.4706 11.956 10.4391 11.9244 10.4011 11.9025C10.3631 11.8805 10.3199 11.8689 10.2761 11.8689H9.38693ZM14.6147 11.8689C14.4005 12.6317 14.058 13.3525 13.6021 14.0006L13.0487 13.0425C13.0268 13.0044 13.0152 12.9613 13.0152 12.9174C13.0152 12.8734 13.0268 12.8303 13.0487 12.7922L13.5101 11.994C13.5321 11.956 13.5637 11.9244 13.6017 11.9025C13.6397 11.8805 13.6828 11.8689 13.7267 11.8689H14.6153H14.6147ZM11.5314 13.1259C11.4874 13.1258 11.4442 13.1373 11.4061 13.1593C11.368 13.1813 11.3363 13.2129 11.3143 13.251L10.6728 14.363C11.0183 14.7924 11.4129 15.1798 11.8485 15.5174C11.8924 15.5511 11.9462 15.5694 12.0016 15.5694C12.057 15.5694 12.1109 15.5511 12.1548 15.5174C12.5902 15.1796 12.9846 14.792 13.33 14.3625L12.6884 13.251C12.6664 13.213 12.6349 13.1814 12.5969 13.1594C12.5589 13.1375 12.5158 13.1259 12.4719 13.1259H11.5309H11.5314Z" fill="white"/>
</g>
<defs>
<clipPath id="clip0_1265_20671">
<rect width="24" height="24" fill="white"/>
</clipPath>
</defs>
</svg>
