<svg viewBox="0 0 24 24" fill="none" xmlns="http://www.w3.org/2000/svg">
<g clip-path="url(#clip0_620_13656)">
<path d="M12 22C6.5 22 2 17.5 2 12C2 6.5 6.5 2 12 2C17.5 2 22 6.5 22 12C22 17.5 17.5 22 12 22Z" fill="#002868"/>
<path d="M17.04 18H6.96C6.432 18 6 17.568 6 17.04V6.96C6 6.432 6.432 6 6.96 6H17.04C17.568 6 18 6.432 18 6.96V17.04C18 17.568 17.568 18 17.04 18Z" fill="white"/>
<path d="M8.34166 16.792C8.31006 16.792 8.28446 16.7632 8.28446 16.7316V15.1192C8.28446 15.0876 8.25886 15.0588 8.22726 15.0588H7.65806C7.62606 15.0588 7.59766 15.0332 7.59766 15.0016V14.69C7.59766 14.6584 7.62646 14.6296 7.65806 14.6296H9.41006C9.44166 14.6296 9.47046 14.658 9.47046 14.69V15.0016C9.47046 15.0332 9.44166 15.0588 9.41006 15.0588H8.84406C8.81246 15.0588 8.78366 15.0872 8.78366 15.1192V16.7316C8.78366 16.7632 8.75806 16.792 8.72646 16.792H8.34166Z" fill="#002868"/>
<path d="M11.2193 14.69C11.2193 14.6584 11.2449 14.6296 11.2765 14.6296H11.6581C11.6897 14.6296 11.7185 14.658 11.7185 14.69V15.7904C11.7185 16.4424 11.3497 16.8208 10.7645 16.8208C10.1825 16.8208 9.81689 16.4424 9.81689 15.7904V14.69C9.81689 14.6584 9.84249 14.6296 9.87409 14.6296H10.2557C10.2873 14.6296 10.3161 14.658 10.3161 14.69V15.806C10.3161 16.1272 10.4813 16.356 10.7677 16.356C11.0541 16.356 11.2193 16.1272 11.2193 15.806V14.69Z" fill="#002868"/>
<path d="M13.4708 15.3357C13.42 15.3357 13.404 15.3165 13.3848 15.2785C13.318 15.1225 13.1716 15.0241 12.9492 15.0241C12.7488 15.0241 12.5804 15.0941 12.5804 15.2277C12.5804 15.3741 12.7364 15.4345 13.0796 15.4757C13.6012 15.5361 13.9001 15.6953 13.9001 16.1085C13.9001 16.5729 13.4928 16.8177 12.9716 16.8177C12.52 16.8177 12.132 16.5981 12.0716 16.1373C12.0652 16.0929 12.0876 16.0769 12.132 16.0769H12.482C12.5264 16.0769 12.552 16.0961 12.5648 16.1309C12.6124 16.2837 12.7748 16.4013 13.01 16.4013C13.2168 16.4013 13.398 16.3249 13.398 16.1629C13.398 15.9689 13.2072 15.9341 12.8256 15.8861C12.3868 15.8289 12.0816 15.7017 12.0816 15.2977C12.0816 14.8937 12.4284 14.6045 12.972 14.6045C13.4616 14.6045 13.8021 14.8685 13.8721 15.2629C13.8817 15.3073 13.8689 15.3361 13.8213 15.3361H13.4708V15.3357Z" fill="#002868"/>
<path d="M14.3325 16.792C14.3009 16.792 14.2753 16.7632 14.2753 16.7316V14.69C14.2753 14.6584 14.3009 14.6296 14.3325 14.6296H15.1973C15.8397 14.6296 16.3389 15.0716 16.3389 15.7172C16.3389 16.3532 15.8461 16.792 15.1973 16.792H14.3325ZM15.1973 16.3624C15.5441 16.3624 15.8141 16.0888 15.8141 15.7104C15.8141 15.332 15.5437 15.0584 15.1941 15.0584H14.8349C14.8033 15.0584 14.7777 15.0868 14.7777 15.1188V16.3048C14.7777 16.3364 14.8033 16.362 14.8349 16.362H15.1973V16.3624Z" fill="#002868"/>
<path d="M17.68 13.4399H6.32003C6.23203 13.4399 6.16003 13.3679 6.16003 13.2799V6.95991C6.16003 6.51991 6.52003 6.15991 6.96003 6.15991H17.04C17.48 6.15991 17.84 6.51991 17.84 6.95991V13.2799C17.84 13.3679 17.768 13.4399 17.68 13.4399Z" fill="#002868"/>
<path d="M12.5892 12.1424H11.5492C11.4832 12.1424 11.4292 12.0884 11.4292 12.0224V7.62244C11.4292 7.55644 11.4832 7.50244 11.5492 7.50244H12.5892C12.6552 7.50244 12.7092 7.55644 12.7092 7.62244V12.0224C12.7092 12.0884 12.6552 12.1424 12.5892 12.1424Z" fill="white"/>
<path d="M14.36 8.78244H9.64002C9.57402 8.78244 9.52002 8.72844 9.52002 8.66244V7.62244C9.52002 7.55644 9.57402 7.50244 9.64002 7.50244H14.36C14.426 7.50244 14.48 7.55644 14.48 7.62244V8.66244C14.48 8.72844 14.426 8.78244 14.36 8.78244Z" fill="white"/>
</g>
<defs>
<clipPath id="clip0_620_13656">
<rect width="20" height="20" fill="white" transform="translate(2 2)"/>
</clipPath>
</defs>
</svg>