<svg width="24" height="24" viewBox="0 0 24 24" fill="none" xmlns="http://www.w3.org/2000/svg">
<path d="M12.1007 22C17.5597 22 21.9851 17.5228 21.9851 12C21.9851 6.47715 17.5597 2 12.1007 2C6.64162 2 2.21619 6.47715 2.21619 12C2.21619 17.5228 6.64162 22 12.1007 22Z" fill="#5E464D"/>
<path d="M8.99219 20.8672C9.39654 21.0052 10.7545 21.4468 10.8122 21.015C10.8436 20.7781 10.1269 20.5353 9.15667 20.0213C7.77674 19.292 6.51434 18.3593 5.41181 17.2545C3.80254 15.6766 2.87719 13.5299 2.83496 11.2764C2.75272 8.25118 3.93541 5.80552 5.88078 4.22729C4.70611 5.13395 3.74853 6.29126 3.07782 7.6149C2.40711 8.93853 2.04017 10.3951 2.00375 11.8786C1.94598 14.0667 2.55789 15.9103 3.70729 17.5884C4.06421 18.0494 4.48142 18.4603 4.94775 18.8102C6.04918 19.6434 7.65971 20.4139 8.99219 20.8662" fill="white"/>
<path d="M22.1213 9.70815C21.5084 6.82583 19.6032 4.80801 17.0547 3.38251C19.0001 4.76983 21.7463 7.7197 20.1289 10.322C18.7582 12.4064 15.4246 11.9981 13.6035 11.0073C11.4379 9.83249 8.72495 7.18905 11.4007 4.60437C13.1326 2.93215 18.6456 4.80703 17.6754 7.30654C17.1095 8.76043 14.9067 8.43734 13.9159 7.72655C13.1855 7.20178 12.5707 6.30008 12.8957 5.369C13.0005 5.07039 12.9858 4.6073 12.5638 4.94801C12.2495 5.20257 12.0909 5.6216 12.0361 6.01126C11.575 9.27051 17.3817 11.7974 19.1038 8.64392C19.9987 7.00695 18.5497 4.62982 16.7257 3.65665C15.3551 2.92236 13.9276 2.4064 12.18 2.53172C9.38385 2.72753 7.03707 4.48003 6.74336 7.33689C6.44964 10.1761 8.34802 12.7314 10.5832 14.2597C12.9329 15.8654 16.0913 16.9237 18.9815 15.9662C21.572 15.1076 22.6421 12.1342 22.1213 9.70717" fill="white"/>
<path d="M18.4752 7.50033C18.7533 5.6323 17.0644 4.34975 15.5048 3.76722C13.6661 3.08188 11.2371 3.38147 9.89777 4.90389C8.91872 6.02197 8.98236 7.64523 9.48754 8.95911C10.2512 10.9436 11.9753 12.3779 13.9824 12.9977C15.4079 13.4383 17.1329 13.6301 18.578 13.1651C20.6859 12.4866 21.3722 10.2887 20.9365 8.27476C20.8433 7.83939 20.7 7.41625 20.5097 7.01374C20.2434 6.4547 19.4327 5.32292 20.5518 6.70143C20.6696 6.85505 20.7781 7.01558 20.8768 7.18214C21.1087 7.56301 21.2925 7.97111 21.4241 8.39714C22.037 10.2769 21.5563 12.47 19.8576 13.6047C18.5545 14.4731 16.898 14.5769 15.3863 14.3595C13.3597 14.0658 11.4496 13.0868 10.122 11.5115C8.90991 10.0752 8.08261 8.01237 8.58095 6.12672C8.94613 4.74724 10.0662 3.71729 11.4075 3.28748C13.1041 2.73824 14.9712 2.99377 16.4985 3.88568C17.2641 4.33115 17.9671 4.94795 18.3538 5.75664C18.5309 6.12095 18.6262 6.51962 18.6328 6.92465C18.6367 7.0887 18.6239 7.25271 18.5947 7.41417C18.5839 7.47292 18.4595 7.63837 18.4772 7.50229" fill="#3FE0C5"/>
</svg>
