<svg viewBox="0 0 24 24" fill="none" xmlns="http://www.w3.org/2000/svg">
<g clip-path="url(#clip0_1265_20667)">
<path d="M12 24C18.6274 24 24 18.6274 24 12C24 5.37258 18.6274 0 12 0C5.37258 0 0 5.37258 0 12C0 18.6274 5.37258 24 12 24Z" fill="#EF0027"/>
<path d="M15.6343 7.30661L5.81763 5.5L10.9838 18.5L18.1823 9.72949L15.6343 7.30661ZM15.4765 8.10245L16.9784 9.53019L12.8713 10.2736L15.4765 8.10245ZM11.9789 10.1247L7.65009 6.53459L14.7255 7.83649L11.9789 10.1247ZM11.6708 10.76L10.9647 16.5961L7.15898 7.01685L11.6708 10.7593V10.76ZM12.3237 11.0695L16.8723 10.2464L11.6551 16.6016L12.3237 11.0695Z" fill="white"/>
</g>
<defs>
<clipPath id="clip0_1265_20667">
<rect width="24" height="24" fill="white"/>
</clipPath>
</defs>
</svg>