<svg width="24" height="24" viewBox="0 0 24 24" fill="none" xmlns="http://www.w3.org/2000/svg">
<path fill-rule="evenodd" clip-rule="evenodd" d="M19.9442 21.3333H4.05583C2.92167 21.3333 2 20.4117 2 19.2775V5.05583C2 3.92167 2.92167 3 4.05583 3H19.9442C21.0783 3 22 3.92167 22 5.05583V19.2775C22 20.4117 21.0783 21.3333 19.9442 21.3333ZM20.3333 5.05583C20.3333 4.845 20.155 4.66667 19.9442 4.66667H4.05583C3.845 4.66667 3.66667 4.845 3.66667 5.05583V19.2775C3.66667 19.4883 3.845 19.6667 4.05583 19.6667H19.9442C20.155 19.6667 20.3333 19.4883 20.3333 19.2775V5.05583ZM19.255 16.9233L17.5892 18.5892C17.4267 18.7517 17.2133 18.8333 17 18.8333C16.7867 18.8333 16.5733 18.7517 16.4108 18.5892C16.085 18.2633 16.085 17.7367 16.4108 17.4108L17.8333 15.9883V6.33333C17.8333 5.87333 18.2067 5.5 18.6667 5.5C19.1267 5.5 19.5 5.87333 19.5 6.33333V16.3333C19.5 16.4417 19.4775 16.55 19.4358 16.6517C19.3933 16.7542 19.3317 16.8467 19.255 16.9233ZM10.3325 18C7.11667 18 4.5 15.3833 4.5 12.1667C4.5 8.95 7.11667 6.33333 10.3325 6.33333C13.5492 6.33333 16.1658 8.95 16.1658 12.1667C16.1658 15.3833 13.5492 18 10.3325 18ZM10.3325 8C8.03583 8 6.16667 9.86917 6.16667 12.1667C6.16667 14.4642 8.03583 16.3333 10.3325 16.3333C12.63 16.3333 14.4992 14.4642 14.4992 12.1667C14.4992 9.86917 12.63 8 10.3325 8ZM10.3333 13C9.8725 13 9.5 12.6275 9.5 12.1667C9.5 11.7058 9.8725 11.3333 10.3333 11.3333C10.7942 11.3333 11.1667 11.7058 11.1667 12.1667C11.1667 12.6275 10.7942 13 10.3333 13ZM4.5 5.5H6.16667V7.16667H4.5V5.5Z" fill="#6B7084"/>
</svg>
