<svg viewBox="0 0 24 24" fill="none" xmlns="http://www.w3.org/2000/svg">
<g clip-path="url(#clip0_1265_20660)">
<path d="M12 24C18.6274 24 24 18.6274 24 12C24 5.37258 18.6274 0 12 0C5.37258 0 0 5.37258 0 12C0 18.6274 5.37258 24 12 24Z" fill="#2B2E7F"/>
<path d="M12.5913 13.9271V10.6408H13.0231C14.4503 10.6408 14.802 9.31006 14.802 9.31006H11.0542C9.27534 9.31006 8.97363 10.6414 8.97363 10.6414H11.1848V15.5859C11.1848 15.5859 12.5913 15.1636 12.5913 13.9271Z" fill="white"/>
<path d="M16.7062 16.4876C17.9669 15.1776 18.4503 13.3584 17.9966 11.6182C17.7572 10.7077 17.2767 9.87853 16.6058 9.21802C16.5452 9.15858 16.4847 9.09801 16.414 9.03857L16.3535 8.97856C16.3123 8.93891 16.2685 8.90218 16.2222 8.86865L16.1415 8.80864L16.0209 8.71891L15.9497 8.66844C15.9015 8.63692 15.8546 8.60362 15.8089 8.56862L15.7175 8.50918C15.6798 8.48177 15.6394 8.45828 15.5969 8.43908L15.5061 8.37907C15.4657 8.35889 15.4253 8.3286 15.385 8.30897L15.2941 8.2585C15.2537 8.23888 15.2134 8.21869 15.1629 8.19906L15.132 8.18896C15.2431 8.27869 15.3536 8.37907 15.4545 8.47889C15.9146 8.93508 16.2798 9.47786 16.529 10.0759C16.7782 10.674 16.9065 11.3155 16.9065 11.9634C16.9065 12.6113 16.7782 13.2528 16.529 13.8508C16.2798 14.4489 15.9146 14.9917 15.4545 15.4479C12.9949 17.8873 9.00258 17.8873 6.54183 15.4479C6.45098 15.3581 6.37022 15.2684 6.27994 15.1787L6.20928 15.0985C6.15644 15.037 6.10593 14.9736 6.05786 14.9084C6.37417 15.5287 6.78595 16.0955 7.27815 16.588C9.84882 19.1373 14.0222 19.1373 16.5929 16.588C16.6377 16.5632 16.6764 16.5287 16.7062 16.487V16.4876Z" fill="white"/>
<path d="M8.85804 15.8103C8.74585 15.7188 8.63805 15.6221 8.53502 15.5204C8.07446 15.0638 7.70889 14.5205 7.45941 13.9218C7.20993 13.3232 7.08149 12.6811 7.08149 12.0325C7.08149 11.384 7.20993 10.7419 7.45941 10.1432C7.70889 9.54459 8.07446 9.00129 8.53502 8.54468C10.9975 6.10299 14.9931 6.10299 17.4556 8.54468C17.6272 8.71516 17.7881 8.89518 17.9395 9.08529C17.6229 8.46757 17.2109 7.9036 16.7187 7.41413C14.1458 4.86196 9.96785 4.86196 7.39493 7.41413C7.36465 7.44385 7.33437 7.48422 7.29399 7.51395C5.58862 9.29559 5.35645 11.9577 6.71918 13.9793C7.25417 14.7588 8.00003 15.4093 8.85804 15.8103Z" fill="white"/>
</g>
<defs>
<clipPath id="clip0_1265_20660">
<rect width="24" height="24" fill="white"/>
</clipPath>
</defs>
</svg>