<svg viewBox="0 0 24 24" fill="none" xmlns="http://www.w3.org/2000/svg">
<path fill-rule="evenodd" clip-rule="evenodd" d="M20.5558 17.3333H3.44417C2.64833 17.3333 2 16.6975 2 15.9167V5.41667C2 4.63583 2.64833 4 3.44417 4H20.5558C21.3517 4 22 4.63583 22 5.41667V15.9167C22 16.6975 21.3517 17.3333 20.5558 17.3333ZM20.3333 5.66667H3.66667V15.6667H20.3333V5.66667ZM7 19H17C17.46 19 17.8333 19.3725 17.8333 19.8333C17.8333 20.2942 17.46 20.6667 17 20.6667H7C6.54 20.6667 6.16667 20.2942 6.16667 19.8333C6.16667 19.3725 6.54 19 7 19Z" fill="currentColor"/>
</svg>