<svg viewBox="0 0 24 24" fill="none" xmlns="http://www.w3.org/2000/svg">
<g clip-path="url(#clip0_1265_20656)">
<path d="M12 24C18.6274 24 24 18.6274 24 12C24 5.37258 18.6274 0 12 0C5.37258 0 0 5.37258 0 12C0 18.6274 5.37258 24 12 24Z" fill="#374851"/>
<path fill-rule="evenodd" clip-rule="evenodd" d="M13.1049 11.6095V16.5478C13.2375 16.5153 13.3674 16.4783 13.4948 16.4354V18.3267C12.6423 18.5273 11.7581 18.5541 10.8951 18.4054V11.6095H8.62023V9.78965H15.3797V11.6095H13.1049ZM14.0148 18.1805V16.2241C14.973 15.767 15.7473 14.9977 16.2105 14.0425C16.6738 13.0873 16.7985 12.003 16.5642 10.9676C16.3298 9.93215 15.7504 9.00716 14.921 8.34449C14.0916 7.68182 13.0616 7.32085 12 7.32085C10.9383 7.32085 9.90828 7.68182 9.07889 8.34449C8.2495 9.00716 7.67008 9.93215 7.43575 10.9676C7.20143 12.003 7.32614 13.0873 7.7894 14.0425C8.25267 14.9977 9.02695 15.767 9.98512 16.2241V18.1805C7.38208 17.3323 5.50049 14.8852 5.50049 11.9995C5.50049 8.40981 8.4103 5.5 12 5.5C15.5896 5.5 18.4994 8.40981 18.4994 11.9995C18.4994 14.8852 16.6178 17.3323 14.0148 18.1805Z" fill="white"/>
</g>
<defs>
<clipPath id="clip0_1265_20656">
<rect width="24" height="24" fill="white"/>
</clipPath>
</defs>
</svg>