<svg width="24" height="24" viewBox="0 0 24 24" fill="none" xmlns="http://www.w3.org/2000/svg">
<g clip-path="url(#clip0_1265_20651)">
<path d="M12 24C18.6274 24 24 18.6274 24 12C24 5.37258 18.6274 0 12 0C5.37258 0 0 5.37258 0 12C0 18.6274 5.37258 24 12 24Z" fill="#00EA90"/>
<path d="M13.3089 6.98193L17.9044 9.38575L13.4767 12.0998L13.3089 6.98193ZM10.6912 16.9925L6.0957 14.5887L10.5234 11.8741L10.6912 16.9925Z" fill="white" fill-opacity="0.698"/>
<path d="M17.9044 14.7649L11.5149 18.5V13.2592L17.9044 9.38582V14.7649ZM6.0957 9.21032L12.4852 5.5V10.7201L6.0957 14.5888V9.20973V9.21032Z" fill="white"/>
</g>
<defs>
<clipPath id="clip0_1265_20651">
<rect width="24" height="24" fill="white"/>
</clipPath>
</defs>
</svg>
