<svg viewBox="0 0 24 24" fill="none" xmlns="http://www.w3.org/2000/svg">
<g clip-path="url(#clip0_1265_20645)">
<path d="M12 24C18.6274 24 24 18.6274 24 12C24 5.37258 18.6274 0 12 0C5.37258 0 0 5.37258 0 12C0 18.6274 5.37258 24 12 24Z" fill="#FF4A4A"/>
<path d="M13.9694 13.7499H13.3772C13.3505 13.7499 13.3241 13.7447 13.2994 13.7346C13.2747 13.7244 13.2523 13.7094 13.2334 13.6906C13.2146 13.6717 13.1996 13.6493 13.1894 13.6246C13.1793 13.5999 13.1741 13.5735 13.1741 13.5468V11.9891L12.1372 12.6363C12.0945 12.6632 12.045 12.6775 11.9944 12.6775C11.9439 12.6775 11.8944 12.6632 11.8517 12.6363L10.8206 11.9891V13.5468C10.8206 13.6568 10.7328 13.7499 10.6176 13.7499H10.0306C10.004 13.7499 9.97751 13.7447 9.95284 13.7346C9.92817 13.7244 9.90576 13.7094 9.88689 13.6906C9.86802 13.6717 9.85306 13.6493 9.84289 13.6246C9.83271 13.5999 9.82751 13.5735 9.82759 13.5468V10.5408C9.82759 10.4694 9.85595 10.401 9.90643 10.3505C9.95691 10.3 10.0254 10.2717 10.0968 10.2717C10.1512 10.2717 10.2003 10.2886 10.2442 10.3214L11.8792 11.4461C11.9117 11.4703 11.9512 11.4833 11.9918 11.4833C12.0324 11.4833 12.0719 11.4703 12.1045 11.4461L13.7388 10.3214C13.7792 10.2943 13.8262 10.2786 13.8748 10.2759C13.9234 10.2732 13.9718 10.2836 14.015 10.3061C14.0582 10.3285 14.0945 10.3621 14.1203 10.4034C14.146 10.4447 14.1602 10.4922 14.1613 10.5408V13.5468C14.1626 13.5729 14.1587 13.599 14.1497 13.6235C14.1406 13.648 14.1267 13.6704 14.1088 13.6894C14.0908 13.7084 14.0692 13.7235 14.0453 13.7339C14.0213 13.7443 13.9955 13.7497 13.9694 13.7499ZM8.94399 13.7446H5.26917C5.19779 13.7446 5.12932 13.7162 5.07884 13.6658C5.02836 13.6153 5 13.5468 5 13.4754V10.4531C5.00108 10.3986 5.02353 10.3468 5.06252 10.3088C5.1015 10.2708 5.15388 10.2497 5.20832 10.25H5.80167C5.9111 10.25 6.00472 10.3378 6.00472 10.4531V12.7516H8.23185V10.4531C8.23185 10.343 8.31962 10.25 8.4349 10.25H9.0107C9.12071 10.25 9.21375 10.3378 9.21375 10.4531V13.476C9.2136 13.5473 9.18517 13.6156 9.13471 13.666C9.08424 13.7163 9.01587 13.7446 8.94458 13.7446H8.94399ZM15.0554 10.25H18.7314C18.8027 10.2502 18.871 10.2786 18.9214 10.329C18.9717 10.3795 19 10.4479 19 10.5192V13.5415C19 13.6516 18.9122 13.7446 18.8022 13.7446H18.21C18.1833 13.7447 18.1569 13.7395 18.1322 13.7293C18.1076 13.7191 18.0852 13.7042 18.0663 13.6853C18.0474 13.6664 18.0325 13.644 18.0223 13.6193C18.0121 13.5947 18.0069 13.5682 18.007 13.5415V11.3747C18.0065 11.3399 17.9925 11.3067 17.9679 11.2821C17.9433 11.2575 17.9101 11.2435 17.8753 11.243H15.9168C15.882 11.2435 15.8488 11.2575 15.8242 11.2821C15.7996 11.3067 15.7856 11.3399 15.7851 11.3747V13.5415C15.7851 13.6516 15.6973 13.7446 15.5821 13.7446H14.9899C14.9632 13.7447 14.9368 13.7395 14.9121 13.7293C14.8874 13.7191 14.865 13.7042 14.8461 13.6853C14.8273 13.6664 14.8123 13.644 14.8021 13.6193C14.792 13.5947 14.7868 13.5682 14.7868 13.5415V10.5186C14.787 10.4473 14.8154 10.379 14.8659 10.3286C14.9163 10.2783 14.9847 10.25 15.056 10.25H15.0554Z" fill="white"/>
<path d="M16.5973 11.8792H17.1843C17.2937 11.8792 17.3873 11.9669 17.3873 12.0822V12.6802C17.3873 12.7902 17.2995 12.8833 17.1843 12.8833H16.5973C16.5707 12.8834 16.5442 12.8782 16.5195 12.868C16.4949 12.8578 16.4725 12.8429 16.4536 12.824C16.4347 12.8051 16.4198 12.7827 16.4096 12.758C16.3994 12.7334 16.3942 12.7069 16.3943 12.6802V12.0769C16.3943 11.9669 16.4879 11.8792 16.5973 11.8792Z" fill="white"/>
</g>
<defs>
<clipPath id="clip0_1265_20645">
<rect width="24" height="24" fill="white"/>
</clipPath>
</defs>
</svg>