<svg viewBox="0 0 24 24" fill="none" xmlns="http://www.w3.org/2000/svg">
<path d="M14.5389 14.2498H13.778C13.637 14.2498 13.5173 14.1371 13.5173 13.9891V11.9881L12.1856 12.8195C12.0728 12.89 11.9319 12.89 11.8192 12.8195L10.4946 11.9881V13.9891C10.4946 14.1301 10.3818 14.2498 10.2339 14.2498H9.47994C9.33902 14.2498 9.21924 14.1371 9.21924 13.9891V10.128C9.21924 9.93773 9.37425 9.78271 9.56449 9.78271C9.63495 9.78271 9.69836 9.80385 9.75473 9.84613L11.8544 11.2905C11.939 11.354 12.0588 11.354 12.1433 11.2905L14.243 9.84613C14.398 9.74044 14.6164 9.78271 14.7221 9.93773C14.7644 9.99409 14.7785 10.0646 14.7855 10.128V13.9891C14.7926 14.1301 14.6798 14.2498 14.5389 14.2498Z" fill="#FF4A4A"/>
<path d="M8.08484 14.2429H3.36405C3.17381 14.2429 3.0188 14.0879 3.0188 13.8977V10.0153C3.02584 9.86737 3.13858 9.75464 3.28654 9.75464H4.04751C4.18843 9.75464 4.30821 9.86737 4.30821 10.0153V12.9676H7.16886V10.0153C7.16886 9.87442 7.2816 9.75464 7.42956 9.75464H8.16939C8.31031 9.75464 8.43009 9.86737 8.43009 10.0153V13.8977C8.43009 14.0879 8.27508 14.2429 8.08484 14.2429Z" fill="#FF4A4A"/>
<path d="M15.934 9.75464H20.6548C20.845 9.75464 21 9.90965 21 10.0999V13.9822C21 14.1231 20.8873 14.2429 20.7464 14.2429H19.9854C19.8445 14.2429 19.7247 14.1302 19.7247 13.9822V11.1991C19.7247 11.1075 19.6472 11.03 19.5556 11.03H17.0402C16.9486 11.03 16.8711 11.1075 16.8711 11.1991V13.9822C16.8711 14.1231 16.7584 14.2429 16.6104 14.2429H15.8494C15.7085 14.2429 15.5887 14.1302 15.5887 13.9822V10.0999C15.5887 9.90965 15.7438 9.75464 15.934 9.75464Z" fill="#FF4A4A"/>
<path d="M17.914 11.8472H18.6679C18.8089 11.8472 18.9286 11.9599 18.9286 12.1079V12.8759C18.9286 13.0168 18.8159 13.1366 18.6679 13.1366H17.914C17.7731 13.1366 17.6533 13.0238 17.6533 12.8759V12.1008C17.6533 11.9599 17.7731 11.8472 17.914 11.8472Z" fill="#FF4A4A"/>
</svg>