<svg width="24" height="24" viewBox="0 0 24 24" fill="none" xmlns="http://www.w3.org/2000/svg">
<g clip-path="url(#clip0_1265_20637)">
<path d="M12 24C18.6274 24 24 18.6274 24 12C24 5.37258 18.6274 0 12 0C5.37258 0 0 5.37258 0 12C0 18.6274 5.37258 24 12 24Z" fill="#FF007A"/>
<path fill-rule="evenodd" clip-rule="evenodd" d="M6.0003 4.10018L6 4.09981V4.10042L6.0003 4.10018ZM6.0003 4.10018L6.05843 4.17102C8.31514 6.93409 9.48123 8.36797 9.55548 8.47022C9.6772 8.63941 9.63156 8.79095 9.4222 8.91024C9.30595 8.97658 9.06616 9.04353 8.94687 9.04353C8.81116 9.04353 8.65839 8.9784 8.54702 8.87312C8.46851 8.79826 8.15143 8.32476 7.41927 7.18849C7.07641 6.65145 6.72909 6.11728 6.37734 5.58603C6.34807 5.55855 6.34811 5.55863 7.30663 7.27372L7.36206 7.3729C7.99866 8.51221 8.21411 8.9145 8.21411 8.96867C8.21411 9.07822 8.18368 9.13543 8.04857 9.28636C7.82339 9.53771 7.72297 9.82011 7.64993 10.4044C7.56838 11.0598 7.33954 11.5224 6.70416 12.3142C6.33291 12.7779 6.27205 12.8631 6.17771 13.05C6.05964 13.2849 6.02739 13.417 6.014 13.714C6 14.028 6.02739 14.2313 6.12355 14.5313C6.20753 14.7943 6.29517 14.9683 6.51914 15.3152C6.71268 15.6153 6.82405 15.838 6.82405 15.925C6.82405 15.9944 6.83744 15.9944 7.13749 15.9269C7.85503 15.765 8.43747 15.4795 8.76551 15.1302C8.96818 14.9141 9.01565 14.7949 9.01747 14.4985C9.01808 14.3049 9.01139 14.2642 8.95905 14.1528C8.87384 13.9714 8.71865 13.8205 8.37661 13.5868C7.92807 13.28 7.73696 13.0329 7.68402 12.694C7.6402 12.4158 7.69071 12.2192 7.93902 11.6995C8.19524 11.1615 8.25915 10.9326 8.30236 10.3904C8.32975 10.0398 8.36809 9.90166 8.46912 9.7909C8.5738 9.67526 8.66874 9.6357 8.92862 9.6004C9.35221 9.54258 9.62182 9.43303 9.84335 9.22915C10.0357 9.05144 10.116 8.88042 10.1282 8.62359L10.1379 8.42883L10.0302 8.30346C9.87561 8.12331 8.59693 6.71256 6.19354 4.06999L6.12902 4L6.0003 4.10018ZM7.07868 13.8224C7.09829 13.9064 7.08561 13.9948 7.04315 14.07H7.04376C6.95856 14.2191 6.79788 14.2684 6.68468 14.1796C6.61408 14.1242 6.60922 14.0426 6.67068 13.9501C6.73094 13.8594 6.72546 13.8144 6.64817 13.7748C6.60252 13.7511 6.58244 13.7243 6.58244 13.6878C6.58244 13.5673 6.79849 13.5235 6.93725 13.616C7.00859 13.6646 7.05907 13.7383 7.07868 13.8224ZM9.9529 10.1956C10.0132 9.97469 10.2061 9.76351 10.4051 9.70265C10.5317 9.6637 10.7928 9.68865 10.9157 9.75073C11.1537 9.87245 11.3271 10.1481 11.2894 10.3472C11.2431 10.59 10.85 10.7841 10.3972 10.7872C10.1659 10.789 10.0801 10.758 9.99185 10.6399C9.93708 10.5669 9.91639 10.3301 9.9529 10.1956ZM10.8555 9.83776C10.9735 9.90957 11.0046 10.0173 10.9346 10.1165C10.8865 10.1847 10.738 10.2498 10.6285 10.2498C10.4653 10.2498 10.287 10.1335 10.287 10.0276C10.287 9.81341 10.6291 9.6996 10.8555 9.83776ZM9.59204 5.52827C9.51048 5.54044 9.51779 5.54409 9.69124 5.57087C10.3236 5.66947 10.8178 5.92021 11.3211 6.39858C11.542 6.60855 11.7648 6.86964 12.1245 7.34192C12.9351 8.40515 13.279 8.70155 13.9612 8.92369C14.3617 9.05454 14.7664 9.1154 15.4809 9.15313C16.2721 9.19513 16.5709 9.25842 16.8533 9.44526C17.0103 9.54934 17.1321 9.67836 17.2538 9.86703L17.325 9.97658L17.3098 9.85546C17.2532 9.39292 16.9227 8.74232 16.5016 8.26517L16.4249 8.17814L16.3859 8.35281C16.2885 8.79284 16.078 9.10931 15.882 9.10931C15.8346 9.10897 15.7882 9.09532 15.7482 9.06993C15.7082 9.04453 15.6761 9.00842 15.6556 8.96568C15.6124 8.86222 15.616 8.82448 15.6805 8.70398C15.7986 8.48184 15.8278 8.18484 15.7694 7.79716C15.753 7.68517 15.728 7.57988 15.714 7.56406C15.6714 7.51233 15.33 7.31331 15.1133 7.2135C14.3264 6.85016 13.3849 6.73148 12.4598 6.88059L12.2407 6.91528L12.0873 6.74487C11.5091 6.10158 10.9681 5.73946 10.3735 5.59765C10.1185 5.5374 9.74845 5.50392 9.59204 5.52827ZM16.0227 5.90976C15.9362 6.10026 15.8936 6.30901 15.8754 6.62548C15.8638 6.82937 15.8523 6.89875 15.8285 6.90788C15.7926 6.92188 15.7445 6.90727 15.4512 6.79468C15.2546 6.7186 14.7653 6.57619 14.7513 6.59018C14.8244 6.63248 14.9005 6.66949 14.9789 6.70095C15.1376 6.77387 15.2928 6.85429 15.4439 6.94196C15.946 7.23896 16.0318 7.4118 16.0318 8.13239C16.0318 8.49086 16.0275 8.53834 15.9831 8.64667C15.9235 8.79212 15.9338 8.8189 15.9995 8.6911C16.1219 8.45374 16.1724 8.21517 16.1797 7.84513C16.1839 7.60717 16.1913 7.55726 16.2247 7.52318C16.2612 7.48727 16.2704 7.48666 16.3294 7.51709C16.4177 7.56213 16.8169 7.88043 16.9904 8.04293L17.1322 8.17621L16.9904 7.98998C16.9125 7.88713 16.697 7.64855 16.5114 7.45928C16.117 7.05577 16.0854 7.00221 16.0306 6.62853C15.9874 6.33457 15.9977 6.08139 16.0604 5.89637C16.0772 5.85671 16.0885 5.81494 16.0939 5.77222C16.089 5.77222 16.0567 5.83429 16.0227 5.90976ZM9.50509 6.07226C9.45823 6.62853 9.67611 7.37285 10.0285 7.85791C10.3018 8.23403 10.7254 8.52616 11.0382 8.55477C11.2427 8.57303 11.3047 8.50912 11.2122 8.37401C11.0832 8.18595 10.925 7.89686 10.8836 7.77332C10.8574 7.69602 10.8008 7.46901 10.7576 7.26817C10.6109 6.58288 10.4661 6.3157 10.1326 6.11304C10.0108 6.03879 9.75097 5.94202 9.60004 5.91463L9.5197 5.90002L9.50509 6.07226ZM13.2206 9.25953C13.2206 10.2309 13.8006 10.8066 15.4481 11.47H15.4475C16.5449 11.9112 16.9934 12.1401 17.3275 12.4267C17.6215 12.6793 17.7961 13.0165 17.8132 13.3622C17.8168 13.4273 17.829 13.4741 17.8412 13.4705C17.8856 13.4559 18.0542 13.0792 18.109 12.8698C18.179 12.605 18.2039 12.1029 18.1613 11.8352C18.0128 10.9137 17.3908 10.237 16.3854 9.90344C16.0689 9.79876 15.7257 9.72694 15.1165 9.63748C14.0812 9.48655 13.7069 9.37213 13.3728 9.10434C13.301 9.04652 13.2371 8.99966 13.231 8.99966C13.2255 8.99966 13.2206 9.11651 13.2206 9.25953ZM14.2121 11.397C14.2457 11.5113 14.2723 11.6275 14.2918 11.7451H14.2912C14.4232 12.5308 14.0112 13.165 13.2091 13.4108C13.1245 13.437 12.7897 13.5021 12.466 13.5563C11.8105 13.6652 11.5184 13.7425 11.2244 13.8843C11.0157 13.9848 10.7637 14.1351 10.7783 14.1503C10.8149 14.1484 10.8508 14.1397 10.8842 14.1247C11.2548 13.9945 11.6669 13.9276 12.2937 13.8947C12.5427 13.8819 12.825 13.8612 12.9224 13.849C13.4811 13.7784 13.8676 13.6092 14.1688 13.3025C14.3263 13.148 14.4453 12.9587 14.5164 12.7499C14.5675 12.6075 14.5742 12.5551 14.5742 12.3032C14.5748 12.047 14.5687 12.0001 14.5133 11.8425C14.4415 11.6355 14.3557 11.481 14.248 11.3592L14.1695 11.2716L14.2121 11.397ZM15.0464 13.0866C14.8273 12.6161 14.7774 12.1615 14.8973 11.7379C14.9101 11.6929 14.9308 11.6558 14.943 11.6558C14.9842 11.6707 15.0229 11.6916 15.058 11.7178C15.159 11.786 15.3611 11.9004 15.8997 12.1938C16.5722 12.5608 16.9556 12.845 17.2167 13.1688C17.445 13.453 17.5862 13.7768 17.6543 14.1711C17.6927 14.3945 17.6701 14.9319 17.6129 15.1571C17.4322 15.8667 17.0116 16.4242 16.4128 16.7492C16.3562 16.7819 16.2977 16.811 16.2375 16.8362C16.229 16.8362 16.2606 16.7553 16.3087 16.6555C16.5095 16.2343 16.5333 15.8241 16.3805 15.3677C16.2874 15.0883 16.0969 14.7469 15.7129 14.1711C15.2661 13.5017 15.1566 13.3227 15.0464 13.0866ZM8.85873 15.6251C9.47038 15.109 10.2305 14.7426 10.9237 14.63C11.222 14.5813 11.7198 14.6008 11.9961 14.6714C12.4392 14.7846 12.836 15.039 13.0423 15.3415C13.2431 15.6373 13.3302 15.8953 13.4196 16.4686C13.4561 16.695 13.4945 16.922 13.5061 16.9738C13.573 17.2708 13.7051 17.5087 13.8682 17.628C14.1268 17.8173 14.5729 17.8289 15.0111 17.6585C15.0569 17.6374 15.1052 17.6223 15.1548 17.6134C15.1706 17.6292 14.9503 17.7771 14.7945 17.855C14.6106 17.9534 14.4047 18.0033 14.1962 17.9999C13.7945 17.9999 13.461 17.796 13.1829 17.3791C13.1281 17.2969 13.0052 17.0517 12.909 16.8332C12.6157 16.1637 12.4708 15.9592 12.13 15.7359C11.8324 15.5411 11.4496 15.5064 11.1617 15.6476C10.7831 15.8332 10.6779 16.3171 10.9487 16.6232C11.0564 16.7449 11.2573 16.8502 11.4216 16.8703C11.4933 16.8798 11.5661 16.8738 11.6353 16.8527C11.7045 16.8316 11.7683 16.7959 11.8225 16.748C11.8767 16.7001 11.9199 16.6412 11.9494 16.5751C11.9788 16.5091 11.9937 16.4375 11.9931 16.3652C11.9931 16.1631 11.9152 16.0487 11.7204 15.9604C11.4544 15.8405 11.1684 15.9805 11.1696 16.2307C11.1702 16.3372 11.2165 16.4041 11.3236 16.4528C11.3924 16.4832 11.3936 16.4863 11.3376 16.4747C11.0935 16.4236 11.0363 16.1296 11.2329 15.9343C11.4684 15.6993 11.9559 15.8028 12.1233 16.1229C12.1939 16.2574 12.2018 16.5258 12.1403 16.6877C12.0034 17.0498 11.6029 17.2397 11.197 17.1363C10.9207 17.0657 10.8081 16.9896 10.4752 16.6463C9.89641 16.0499 9.67183 15.9343 8.83682 15.804L8.67676 15.7791L8.85934 15.6251H8.85873Z" fill="white"/>
</g>
<defs>
<clipPath id="clip0_1265_20637">
<rect width="24" height="24" fill="white"/>
</clipPath>
</defs>
</svg>
