<svg viewBox="0 0 24 24" fill="none" xmlns="http://www.w3.org/2000/svg">
<g clip-path="url(#clip0_1265_20619)">
<path d="M12 24C18.6274 24 24 18.6274 24 12C24 5.37258 18.6274 0 12 0C5.37258 0 0 5.37258 0 12C0 18.6274 5.37258 24 12 24Z" fill="#F58634"/>
<path d="M10.4117 16.0107H10.4141C11.1187 15.9254 11.7114 15.712 12.192 15.3706C12.8285 14.9143 13.1467 14.3347 13.1467 13.6319C13.1467 13.0392 12.9138 12.5432 12.4486 12.1372C11.9822 11.7325 11.3505 11.4865 10.5534 11.4012C10.2825 11.3662 9.89851 11.3407 9.40544 11.3123C8.3304 11.2471 7.63288 11.1001 7.3093 10.8696C7.19427 10.7871 7.09744 10.6818 7.02483 10.5602C6.96333 10.4497 6.93148 10.3252 6.93238 10.1987C6.93238 9.86627 7.1244 9.58536 7.51139 9.36431C7.89778 9.14385 8.38611 9.03125 8.97993 9.03125C9.54234 9.03125 10.1 9.12726 10.6274 9.31571C12.8949 10.1241 15.0603 12.9497 16.5022 14.973C15.327 15.6871 13.7263 16.1274 11.9627 16.1274C11.4435 16.1274 10.925 16.0889 10.4117 16.0107ZM7.87585 14.8598C5.80579 14.1042 4.89965 12.2368 5.92194 10.4233C5.95039 10.6782 6.04462 10.9229 6.19633 11.1345C6.38598 11.4006 6.66451 11.6169 7.03017 11.787C8.30729 12.3417 10.6559 11.9873 11.6231 12.6919C11.9484 12.929 12.1114 13.2318 12.1114 13.601C12.1114 14.0651 11.8844 14.445 11.4305 14.7401C10.9771 15.0352 10.3868 15.1828 9.66027 15.1828C9.05144 15.1794 8.44783 15.0701 7.87645 14.8598H7.87585Z" fill="white"/>
<path opacity="0.5" d="M17.8933 13.7248V10.2556C18.2826 10.7824 18.5001 11.3709 18.5001 11.9902C18.5001 12.6101 18.2826 13.1974 17.8933 13.7248ZM16.916 9.3038L16.919 13.7254C15.5304 11.7543 13.4556 9.27416 10.9055 8.44566C10.4644 8.3016 10.0086 8.2068 9.54663 8.16298C10.3372 7.96816 11.1486 7.87064 11.9628 7.87259C13.9422 7.87259 15.7171 8.42729 16.916 9.3038Z" fill="white"/>
</g>
<defs>
<clipPath id="clip0_1265_20619">
<rect width="24" height="24" fill="white"/>
</clipPath>
</defs>
</svg>