<svg viewBox="0 0 24 24" fill="none" xmlns="http://www.w3.org/2000/svg">
<path d="M12 22C17.5228 22 22 17.5228 22 12C22 6.47715 17.5228 2 12 2C6.47715 2 2 6.47715 2 12C2 17.5228 6.47715 22 12 22Z" fill="#093687"/>
<path d="M11.3898 15.5839L13.1736 10.1641L14.0328 10.4437L13.4189 8.41504H18.7284C19.6918 8.41504 20.1931 9.2758 19.8468 10.3343L19.5105 11.3584C19.5061 11.3716 19.5013 11.3844 19.4961 11.3983L19.4817 11.4359C19.389 11.6879 19.2608 11.9254 19.1011 12.1413C18.5958 12.8283 17.8265 13.274 17.1415 13.278H14.4758L13.7192 15.5827L11.3898 15.5839ZM14.8692 12.0814H16.2836C16.6374 12.0814 17.0289 11.765 17.1559 11.3764L17.5034 10.3191C17.6312 9.93006 17.4471 9.61411 17.094 9.61411H15.6792L14.8692 12.0814ZM5.26701 15.5835C5.20657 15.5815 5.1463 15.576 5.08647 15.5671C4.98629 15.5551 4.88796 15.5308 4.79369 15.4948C4.60636 15.4242 4.4402 15.3287 4.31439 15.1685C4.23842 15.071 4.17817 14.9623 4.13584 14.8462C4.11397 14.7872 4.09622 14.7267 4.08272 14.6652C4.01442 14.3549 4.04278 14.0433 4.12825 13.7398C4.13544 13.7134 4.17059 13.5996 4.17059 13.5996L5.87454 8.41624H8.22316L6.49365 13.6811C6.39938 13.969 6.47248 14.2251 6.67898 14.3333C6.74538 14.3696 6.82022 14.3877 6.89587 14.3856H8.057L10.0174 8.41624H12.6735L10.7272 10.4449L11.778 10.1653L9.99341 15.5839L5.26701 15.5835Z" fill="white"/>
</svg>