<svg viewBox="0 0 24 24" fill="none" xmlns="http://www.w3.org/2000/svg">
<path d="M14.0391 20.5984C13.4162 20.7764 12.7932 20.8877 12.1926 20.8877H12.1036C11.5029 20.8877 10.8578 20.7987 10.2348 20.5984C9.94563 20.5095 9.63417 20.6874 9.54519 20.9766C9.4562 21.2659 9.63417 21.5773 9.92338 21.6663C10.6575 21.8888 11.3917 22 12.1036 22H12.1926C12.9045 22 13.6386 21.8888 14.3505 21.6663C14.6397 21.5773 14.8177 21.2659 14.7287 20.9766C14.6397 20.6874 14.3283 20.5095 14.0391 20.5984ZM18.8889 6.91657V6.89433C17.9323 3.95773 15.2404 2 12.1481 2C9.03351 2 6.31938 3.97998 5.38501 6.91657V6.93882C4.76209 8.78532 4.98456 11.2547 5.98568 13.5462C7.36499 16.683 9.87889 18.8854 12.1036 18.8854H12.1481C14.3728 18.8854 16.8867 16.7052 18.266 13.5462C19.3116 11.2325 19.5341 8.76307 18.8889 6.91657ZM15.6408 4.22469C14.5063 4.1802 13.2827 4.66963 12.1481 5.62625C10.9912 4.66963 9.76766 4.1802 8.65531 4.22469C9.65642 3.51279 10.8578 3.11235 12.1481 3.11235C13.4384 3.11235 14.6397 3.51279 15.6408 4.22469ZM13.0602 17.5506C12.771 17.6841 12.4595 17.7508 12.1481 17.7508C11.8144 17.7508 11.5029 17.6841 11.236 17.5506C9.34496 16.683 8.94452 13.168 10.3906 9.87542C10.8578 8.82981 11.4584 7.89544 12.1481 7.13904C12.8377 7.89544 13.4384 8.82981 13.9056 9.87542C15.3294 13.168 14.9512 16.683 13.0602 17.5506ZM7.00903 13.1012C6.09691 11.0323 5.89669 8.85206 6.43061 7.27252C6.71982 6.42714 7.20926 5.82647 7.83217 5.53726C8.81104 5.09232 10.1014 5.40378 11.3249 6.40489C10.5463 7.25028 9.87889 8.29588 9.36721 9.45272C8.38835 11.6552 8.18812 13.9466 8.63306 15.7041C8.01015 14.97 7.43173 14.0801 7.00903 13.1012ZM17.2649 13.1012C16.8199 14.0801 16.2638 14.97 15.6408 15.7041C16.0858 13.9466 15.8633 11.6552 14.9067 9.45272C14.395 8.29588 13.7276 7.25028 12.949 6.40489C14.1725 5.42603 15.4406 5.09232 16.4417 5.53726C17.0647 5.82647 17.5541 6.42714 17.8433 7.27252C18.3995 8.85206 18.177 11.0323 17.2649 13.1012Z" fill="#49CC68"/>
</svg>