<svg viewBox="0 0 24 24" fill="none" xmlns="http://www.w3.org/2000/svg">
<path fill-rule="evenodd" clip-rule="evenodd" d="M3.27551 15.5867C3.70381 15.5867 4.05102 15.9339 4.05102 16.3622V18.5434C4.05102 19.3197 4.68034 19.949 5.45663 19.949H18.5434C19.3197 19.949 19.949 19.3197 19.949 18.5434V16.3622C19.949 15.9339 20.2962 15.5867 20.7245 15.5867C21.1528 15.5867 21.5 15.9339 21.5 16.3622V18.5434C21.5 20.1763 20.1763 21.5 18.5434 21.5H5.45663C3.82373 21.5 2.5 20.1763 2.5 18.5434V16.3622C2.5 15.9339 2.84721 15.5867 3.27551 15.5867ZM12 17.1378C12.4283 17.1378 12.7755 16.7906 12.7755 16.3623V5.14776L15.8139 8.18613C16.1167 8.48898 16.6078 8.48898 16.9106 8.18613C17.2135 7.88327 17.2135 7.39224 16.9106 7.08939L12.5484 2.72714C12.2455 2.42429 11.7545 2.42429 11.4516 2.72714L7.08939 7.08939C6.78653 7.39224 6.78653 7.88327 7.08939 8.18613C7.39224 8.48898 7.88327 8.48898 8.18613 8.18613L11.2245 5.14776V16.3623C11.2245 16.7906 11.5717 17.1378 12 17.1378Z" fill="currentColor"/>
</svg>