<svg width="24" height="24" viewBox="0 0 24 24" fill="none" xmlns="http://www.w3.org/2000/svg">
<path fill-rule="evenodd" clip-rule="evenodd" d="M12.2308 2C12.3435 2 12.4507 2.02322 12.548 2.06513C12.6244 2.09798 12.6966 2.14326 12.7617 2.20096C12.7748 2.21251 12.7874 2.22448 12.7997 2.23684L14.6444 4.07394C14.9566 4.38481 14.9566 4.88882 14.6444 5.19969C14.3323 5.51055 13.8262 5.51055 13.514 5.19969L13.0301 4.71781V12.7044L16.5149 11.4425V9.57461H15.9282C15.4868 9.57461 15.1289 9.21822 15.1289 8.77859V6.01739C15.1289 5.57776 15.4868 5.22137 15.9282 5.22137H18.7009C19.1423 5.22137 19.5002 5.57776 19.5002 6.01739V8.77859C19.5002 9.21822 19.1423 9.57461 18.7009 9.57461H18.1135V12C18.1135 12.3347 17.9033 12.6337 17.5874 12.7481L13.0301 14.3984V15.6567C13.0306 15.6729 13.0306 15.6892 13.0301 15.7055V15.9092C14.3604 16.2604 15.3409 17.4677 15.3409 18.903C15.3409 20.6134 13.9486 22 12.231 22C10.5135 22 9.12115 20.6134 9.12115 18.903C9.12115 17.6887 9.82284 16.6377 10.8444 16.1301L6.93747 15.069C6.58971 14.9745 6.34846 14.66 6.34846 14.301V11.7533C5.2768 11.4158 4.5 10.4177 4.5 9.23881C4.5 7.78253 5.68544 6.60199 7.14776 6.60199C8.61008 6.60199 9.79552 7.78253 9.79552 9.23881C9.79552 10.4176 9.01874 11.4158 7.94711 11.7533V13.693L11.4315 14.6393V13.8409V4.71776L10.9476 5.19969C10.6354 5.51055 10.1293 5.51055 9.81714 5.19969C9.50498 4.88882 9.50498 4.38481 9.81714 4.07394L11.6656 2.23315C11.7453 2.15379 11.8376 2.09469 11.9361 2.05585C12.0273 2.01981 12.1267 2 12.2308 2ZM12.231 17.398C11.3964 17.398 10.7198 18.0718 10.7198 18.903C10.7198 19.7342 11.3964 20.408 12.231 20.408C13.0656 20.408 13.7422 19.7342 13.7422 18.903C13.7422 18.0718 13.0656 17.398 12.231 17.398ZM16.7275 7.98257V6.81341H17.9015V7.98257H16.7275ZM6.09865 9.23881C6.09865 8.66179 6.56835 8.19403 7.14776 8.19403C7.72717 8.19403 8.19687 8.66179 8.19687 9.23881C8.19687 9.81582 7.72717 10.2836 7.14776 10.2836C6.56835 10.2836 6.09865 9.81582 6.09865 9.23881Z" fill="#6B7084"/>
</svg>
