<svg viewBox="0 0 24 24" fill="none" xmlns="http://www.w3.org/2000/svg">
<g clip-path="url(#clip0_1265_20615)">
<path d="M12 24C18.6274 24 24 18.6274 24 12C24 5.37258 18.6274 0 12 0C5.37258 0 0 5.37258 0 12C0 18.6274 5.37258 24 12 24Z" fill="#5F5CF1"/>
<path fill-rule="evenodd" clip-rule="evenodd" d="M16.2249 14.0501C16.2249 15.7206 14.869 16.8295 12.867 16.9965V18.5H11.4955V16.9816C10.1413 16.8289 8.85473 16.3088 7.7749 15.4775L8.7837 14.0956C9.68265 14.7944 10.5335 15.25 11.5586 15.4021V12.4251C9.2569 11.8479 8.18505 11.0126 8.18505 9.29665C8.18505 7.6567 9.5247 6.53285 11.4955 6.38075V5.5H12.867V6.4113C13.9389 6.53036 14.9609 6.9284 15.831 7.5657L14.9477 8.9931C14.2541 8.49195 13.545 8.1728 12.804 8.02135V10.9067C15.2005 11.4839 16.2249 12.4101 16.2249 14.0501ZM11.5579 10.5875V7.91475C10.5654 7.9908 10.0454 8.5225 10.0454 9.1907C10.0454 9.8277 10.3444 10.2385 11.5586 10.5882L11.5579 10.5875ZM14.3646 14.156C14.3646 13.4735 14.0331 13.0634 12.804 12.7137V15.4632C13.7972 15.3865 14.3646 14.8854 14.3646 14.1567V14.156Z" fill="white"/>
</g>
<defs>
<clipPath id="clip0_1265_20615">
<rect width="24" height="24" fill="white"/>
</clipPath>
</defs>
</svg>