<svg width="24" height="24" viewBox="0 0 24 24" fill="none" xmlns="http://www.w3.org/2000/svg">
<path fill-rule="evenodd" clip-rule="evenodd" d="M12 22C6.48583 22 2 17.5133 2 12C2 6.48583 6.48583 2 12 2C17.5142 2 22 6.48583 22 12C22 17.5133 17.5142 22 12 22ZM12 3.66667C7.405 3.66667 3.66667 7.405 3.66667 12C3.66667 16.595 7.405 20.3333 12 20.3333C16.595 20.3333 20.3333 16.595 20.3333 12C20.3333 7.405 16.595 3.66667 12 3.66667ZM12 11.1667C13.3783 11.1667 14.5 12.2883 14.5 13.6667C14.5 14.7517 13.8017 15.6675 12.8333 16.0133V17C12.8333 17.46 12.4608 17.8333 12 17.8333C11.5392 17.8333 11.1667 17.46 11.1667 17V16.1667H10.3333C9.8725 16.1667 9.5 15.7933 9.5 15.3333C9.5 14.8733 9.8725 14.5 10.3333 14.5H12C12.46 14.5 12.8333 14.1267 12.8333 13.6667C12.8333 13.2067 12.46 12.8333 12 12.8333C10.6217 12.8333 9.5 11.7117 9.5 10.3325C9.5 9.24833 10.1992 8.33167 11.1667 7.98667V7C11.1667 6.54 11.5392 6.16667 12 6.16667C12.4608 6.16667 12.8333 6.54 12.8333 7V7.83333H13.6667C14.1275 7.83333 14.5 8.20667 14.5 8.66667C14.5 9.12667 14.1275 9.5 13.6667 9.5H12C11.54 9.5 11.1667 9.87333 11.1667 10.3325C11.1667 10.7925 11.54 11.1667 12 11.1667Z" fill="#6B7084"/>
</svg>
