<svg width="24" height="24" viewBox="0 0 24 24" fill="none" xmlns="http://www.w3.org/2000/svg">
<path fill-rule="evenodd" clip-rule="evenodd" d="M15.5 9.5C15.0392 9.5 14.6667 9.12667 14.6667 8.66667C14.6667 7.58167 13.9683 6.665 13 6.32V11.2492C14.8992 11.6358 16.3333 13.32 16.3333 15.3317C16.3333 17.3442 14.8992 19.0283 13 19.4158V21.1667C13 21.6267 12.6275 22 12.1667 22C11.7058 22 11.3333 21.6267 11.3333 21.1667V19.4158C9.43417 19.0283 8 17.345 8 15.3317C8 14.8717 8.3725 14.4983 8.83333 14.4983C9.29417 14.4983 9.66667 14.8717 9.66667 15.3317C9.66667 16.4175 10.3658 17.3342 11.3333 17.6792V12.7492C9.43417 12.3625 8 10.6792 8 8.66667C8 6.65417 9.43417 4.97083 11.3333 4.58417V2.83333C11.3333 2.37333 11.7058 2 12.1667 2C12.6275 2 13 2.37333 13 2.83333V4.58417C14.8992 4.97167 16.3333 6.65417 16.3333 8.66667C16.3333 9.12667 15.9608 9.5 15.5 9.5ZM14.6667 15.3317C14.6667 14.2467 13.9675 13.3308 13 12.9858V17.6792C13.9683 17.3342 14.6667 16.4175 14.6667 15.3317ZM9.66667 8.66667C9.66667 9.75167 10.3658 10.6675 11.3333 11.0125V6.32C10.3658 6.665 9.66667 7.58167 9.66667 8.66667Z" fill="#6B7084"/>
</svg>
