<svg width="24" height="24" viewBox="0 0 24 24" fill="none" xmlns="http://www.w3.org/2000/svg">
<g clip-path="url(#clip0_1265_20611)">
<path d="M12 24C14.3734 24 16.6935 23.2962 18.6669 21.9776C20.6403 20.6591 22.1783 18.7849 23.0866 16.5922C23.9948 14.3995 24.2325 11.9867 23.7695 9.65892C23.3064 7.33115 22.1635 5.19295 20.4853 3.51472C18.8071 1.83649 16.6689 0.693605 14.3411 0.230582C12.0133 -0.232441 9.60055 0.00519936 7.40784 0.913451C5.21512 1.8217 3.34098 3.35977 2.0224 5.33316C0.703824 7.30655 3.63305e-05 9.62663 3.63305e-05 12C-0.00384869 13.577 0.303889 15.1391 0.905569 16.5968C1.50725 18.0545 2.39101 19.3789 3.50609 20.4939C4.62117 21.609 5.94558 22.4928 7.40324 23.0945C8.8609 23.6962 10.4231 24.0039 12 24Z" fill="#2775CA"/>
<path fill-rule="evenodd" clip-rule="evenodd" d="M7.60025 15.1997C8.23264 16.1436 9.12782 16.8623 10.1648 17.2588C10.2733 17.3342 10.3818 17.4842 10.3818 17.5973V18.1226C10.3818 18.198 10.3818 18.2357 10.3456 18.2734C10.3384 18.3087 10.3232 18.3418 10.3014 18.3698C10.2795 18.3978 10.2516 18.4201 10.2199 18.4347C10.1883 18.4494 10.1537 18.456 10.1191 18.454C10.0845 18.452 10.0508 18.4415 10.0209 18.4234C8.70887 17.9887 7.56361 17.1302 6.75085 15.972C5.93809 14.8138 5.5 13.4161 5.5 11.9811C5.5 10.5462 5.93809 9.14849 6.75085 7.99031C7.56361 6.83213 8.70887 5.97358 10.0209 5.53892C10.0631 5.50905 10.114 5.4957 10.1648 5.50122C10.2297 5.51551 10.2875 5.55386 10.3274 5.60916C10.3673 5.66447 10.3866 5.73298 10.3818 5.802V6.32816C10.3877 6.4065 10.3699 6.48479 10.331 6.55209C10.2921 6.61939 10.234 6.67233 10.1648 6.70353C9.12782 7.09996 8.23264 7.81869 7.60025 8.76255C6.96786 9.70642 6.62875 10.8299 6.62875 11.9811C6.62875 13.1324 6.96786 14.2559 7.60025 15.1997ZM13.887 5.50839C13.9216 5.51031 13.9554 5.52077 13.9854 5.53892C15.2969 5.97959 16.4405 6.84248 17.2517 8.00347C18.063 9.16446 18.5 10.5637 18.5 12C18.5 13.4363 18.063 14.8355 17.2517 15.9965C16.4405 17.1575 15.2969 18.0204 13.9854 18.4611C13.9432 18.4909 13.8922 18.5043 13.8415 18.4988C13.7767 18.4843 13.7191 18.4459 13.6793 18.3906C13.6396 18.3353 13.6204 18.2669 13.6253 18.198V17.6718C13.6192 17.5936 13.6368 17.5153 13.6756 17.448C13.7144 17.3807 13.7724 17.3277 13.8415 17.2965C14.8784 16.9 15.7736 16.1813 16.406 15.2374C17.0384 14.2936 17.3775 13.1701 17.3775 12.0188C17.3775 10.8676 17.0384 9.74412 16.406 8.80025C15.7736 7.85639 14.8784 7.13766 13.8415 6.74123C13.7803 6.69991 13.7289 6.64452 13.6915 6.57931C13.654 6.5141 13.6313 6.4408 13.6253 6.36504V5.8397C13.6253 5.7643 13.6253 5.7266 13.6606 5.68972C13.6678 5.65432 13.6829 5.6212 13.7047 5.59306C13.7265 5.56492 13.7544 5.54257 13.7861 5.52786C13.8177 5.51314 13.8523 5.50646 13.887 5.50839ZM12.1117 11.3613C13.6253 11.5489 14.3818 12.0038 14.3818 13.3151L14.3786 13.3118C14.3786 14.3256 13.6576 15.1149 12.5764 15.3026V16.2041C12.541 16.3918 12.4325 16.5049 12.2886 16.5049H11.7477C11.5676 16.4672 11.4599 16.3541 11.4599 16.2041V15.3026C10.2702 15.1149 9.69387 14.4387 9.54919 13.4995V13.4618C9.54844 13.4271 9.55445 13.3925 9.56687 13.3602C9.57929 13.3279 9.59785 13.2986 9.62144 13.274C9.64503 13.2495 9.67315 13.2301 9.70412 13.2172C9.73508 13.2042 9.76824 13.1979 9.80159 13.1987H10.4173C10.4789 13.1996 10.5383 13.2229 10.5852 13.2647C10.632 13.3065 10.6633 13.364 10.6736 13.4274C10.7852 13.9945 11.1061 14.4043 12.0433 14.4043C12.7282 14.4043 13.2322 13.9937 13.2322 13.3897C13.2322 12.7857 12.9043 12.5636 11.8955 12.3759C10.3819 12.1882 9.66084 11.6997 9.66084 10.4597C9.66084 9.5205 10.3457 8.77305 11.43 8.61897V7.75187C11.4662 7.56419 11.5739 7.4519 11.7178 7.4519H12.2588C12.4388 7.4896 12.5473 7.60189 12.5473 7.75187V8.65339C12.9427 8.68815 13.316 8.85804 13.6092 9.13667C13.9023 9.41529 14.099 9.78705 14.1687 10.1942V10.2311C14.1695 10.2659 14.1636 10.3005 14.1512 10.3328C14.1388 10.3651 14.1203 10.3945 14.0967 10.4191C14.0731 10.4437 14.0449 10.4631 14.0139 10.476C13.9829 10.4889 13.9497 10.4951 13.9163 10.4941H13.3399C13.2843 10.4944 13.23 10.4769 13.1843 10.4439C13.1386 10.4109 13.1037 10.3641 13.0844 10.3097C12.9043 9.74588 12.5442 9.5205 11.8947 9.5205C11.1745 9.5205 10.8143 9.8598 10.8143 10.3851C10.8143 10.9105 11.0298 11.2113 12.1117 11.3613Z" fill="white"/>
</g>
<defs>
<clipPath id="clip0_1265_20611">
<rect width="24" height="24" fill="white"/>
</clipPath>
</defs>
</svg>
