<svg viewBox="0 0 24 24" fill="none" xmlns="http://www.w3.org/2000/svg">
<g clip-path="url(#clip0_1265_20603)">
<path d="M12 24C18.6274 24 24 18.6274 24 12C24 5.37258 18.6274 0 12 0C5.37258 0 0 5.37258 0 12C0 18.6274 5.37258 24 12 24Z" fill="#26A17B"/>
<path fill-rule="evenodd" clip-rule="evenodd" d="M13.2201 12.4152V12.414C13.1518 12.419 12.7995 12.4401 12.0137 12.4401C11.3862 12.4401 10.9445 12.4214 10.7892 12.414V12.4159C8.37378 12.3096 6.57093 11.889 6.57093 11.3858C6.57093 10.8832 8.37378 10.4627 10.7892 10.3546V11.9971C10.947 12.0083 11.3993 12.035 12.0242 12.035C12.7741 12.035 13.1499 12.004 13.2201 11.9978V10.3558C15.6306 10.4633 17.4291 10.8839 17.4291 11.3858C17.4291 11.889 15.6306 12.3084 13.2201 12.4152ZM13.2201 10.185V8.71509H16.5836V6.47363H7.42576V8.71509H10.7892V10.1843C8.05571 10.3098 6 10.8516 6 11.5001C6 12.1487 8.05571 12.6898 10.7892 12.8159V17.5262H13.2201V12.8147C15.9493 12.6892 18 12.1481 18 11.5001C18 10.8522 15.9493 10.3111 13.2201 10.185Z" fill="white"/>
</g>
<defs>
<clipPath id="clip0_1265_20603">
<rect width="24" height="24" fill="white"/>
</clipPath>
</defs>
</svg>