<svg viewBox="0 0 25 24" fill="none" xmlns="http://www.w3.org/2000/svg">
<path fill-rule="evenodd" clip-rule="evenodd" d="M23.3333 12.8333H20.8333V15.3333C20.8333 15.7933 20.46 16.1667 20 16.1667C19.54 16.1667 19.1667 15.7933 19.1667 15.3333V12.8333H16.6667C16.2067 12.8333 15.8333 12.46 15.8333 12C15.8333 11.54 16.2067 11.1667 16.6667 11.1667H19.1667V8.66667C19.1667 8.20667 19.54 7.83333 20 7.83333C20.46 7.83333 20.8333 8.20667 20.8333 8.66667V11.1667H23.3333C23.7933 11.1667 24.1667 11.54 24.1667 12C24.1667 12.46 23.7933 12.8333 23.3333 12.8333ZM10.6858 13.1667C14.1 14.1417 16.6667 17.155 16.6667 20.6117V21.1667C16.6667 21.6267 16.2933 22 15.8333 22H0.833333C0.373333 22 0 21.6267 0 21.1667V20.6117C0 17.155 2.56667 14.1417 5.98083 13.1667C3.93333 12.26 2.5 10.2125 2.5 7.83333C2.5 4.61667 5.11667 2 8.33333 2C11.55 2 14.1667 4.61667 14.1667 7.83333C14.1667 10.2125 12.7333 12.26 10.6858 13.1667ZM1.67432 20.3333H14.9927C14.8285 17.1442 11.8451 14.5 8.33348 14.5C4.82182 14.5 1.83932 17.1442 1.67432 20.3333ZM8.33333 3.66667C6.03583 3.66667 4.16667 5.53583 4.16667 7.83333C4.16667 10.1308 6.03583 12 8.33333 12C10.6308 12 12.5 10.1308 12.5 7.83333C12.5 5.53583 10.6308 3.66667 8.33333 3.66667Z" fill="currentColor"/>
</svg>