<svg viewBox="0 0 24 24" fill="none" xmlns="http://www.w3.org/2000/svg">
<path fill-rule="evenodd" clip-rule="evenodd" d="M22 19.2233C22 20.0183 21.3517 20.6667 20.5558 20.6667H3.44417C2.64833 20.6667 2 20.0183 2 19.2233V17.3883C2 17.3792 2.005 17.3708 2.00583 17.3608C2.005 17.3508 2 17.3433 2 17.3333C2 16.8733 2.37333 16.5 2.83333 16.5V5.45833C2.83333 4.65417 3.495 4 4.30833 4H19.6925C20.505 4 21.1667 4.65417 21.1667 5.45833V16.5C21.6267 16.5 22 16.8733 22 17.3333C22 17.3433 21.995 17.3508 21.9942 17.3608C21.995 17.3708 22 17.3792 22 17.3883V19.2233ZM3.66667 18.1667V19H9.555C9.095 19 8.72167 18.6267 8.72167 18.1667H3.66667ZM19.5 5.66667H4.5V16.5H9.555C10.0158 16.5 10.3883 16.8733 10.3883 17.3333H13.6117C13.6117 16.8733 13.9842 16.5 14.445 16.5H19.5V5.66667ZM20.3334 18.1667H15.2784C15.2784 18.6267 14.9051 19 14.4451 19H20.3334V18.1667ZM7.83333 14.2075V13.5817C7.83333 13.5558 7.84583 13.5333 7.84833 13.5083C7.85333 13.4508 7.865 13.3975 7.88167 13.3425C7.8975 13.2917 7.91417 13.2442 7.93917 13.1975C7.96333 13.1517 7.9925 13.1108 8.025 13.07C8.06167 13.0242 8.09917 12.9842 8.14417 12.9475C8.16333 12.9317 8.175 12.9092 8.19583 12.8942L9.78417 11.8067C9.52083 11.1992 9.49417 10.6808 9.50167 10.4708C9.50167 10.4675 9.5 10.465 9.5 10.4617L9.50167 8.58417C9.50167 8.5625 9.5125 8.545 9.51417 8.52417C9.51583 8.4975 9.50667 8.47333 9.51167 8.44667C9.71417 7.245 10.9608 6.50167 12 6.50167C12.0017 6.50167 12.0033 6.50167 12.005 6.50167C13.0417 6.50167 14.2867 7.24417 14.4883 8.44667C14.4933 8.47333 14.4842 8.4975 14.4858 8.52417C14.4875 8.545 14.4983 8.56333 14.4983 8.58417L14.5 10.4617C14.5 10.465 14.4983 10.4675 14.4983 10.47C14.5058 10.6792 14.4792 11.195 14.2175 11.8008L15.8058 12.8958C15.8275 12.91 15.8375 12.9325 15.8575 12.9483C15.9017 12.985 15.9392 13.025 15.975 13.0708C16.0083 13.1117 16.0375 13.1525 16.0617 13.1992C16.0867 13.245 16.1033 13.2925 16.1183 13.3433C16.135 13.3983 16.1467 13.4525 16.1525 13.51C16.1542 13.535 16.1667 13.5558 16.1667 13.5817V14.2075C16.1667 15.0125 15.5433 15.6667 14.7783 15.6667H9.22167C8.45667 15.6667 7.83333 15.0125 7.83333 14.2075ZM12.6584 12.7492C12.6401 12.7375 12.6201 12.7333 12.6034 12.72C12.5284 12.6625 12.4743 12.5892 12.4251 12.515C12.4201 12.5075 12.4126 12.5025 12.4076 12.495C12.3651 12.4258 12.3418 12.3517 12.3209 12.275C12.3126 12.245 12.2976 12.2183 12.2926 12.1875C12.2843 12.1358 12.2918 12.0842 12.2943 12.0308C12.2951 11.9733 12.2918 11.9167 12.3051 11.86C12.3118 11.8325 12.3284 11.8083 12.3384 11.7817C12.3626 11.7117 12.3818 11.6408 12.4259 11.5775C12.4326 11.5675 12.4434 11.5633 12.4509 11.5533C12.4509 11.5525 12.4509 11.5517 12.4518 11.5508C12.8559 11.0267 12.8343 10.5492 12.8334 10.5292C12.8326 10.515 12.8384 10.5025 12.8384 10.4892C12.8384 10.48 12.8334 10.4725 12.8334 10.4633L12.8318 8.6975C12.7676 8.45833 12.3734 8.16667 12.0001 8.16667C11.6268 8.1675 11.2318 8.45917 11.1684 8.6975L11.1668 10.4633C11.1668 10.4717 11.1626 10.4783 11.1618 10.4858C11.1618 10.5017 11.1684 10.5158 11.1676 10.5317C11.1651 10.5717 11.1534 11.0383 11.5493 11.5508C11.5543 11.5575 11.5551 11.5658 11.5601 11.5725C11.5651 11.5792 11.5726 11.5825 11.5768 11.5892C11.6043 11.6292 11.6118 11.6758 11.6318 11.7183C11.6551 11.77 11.6843 11.8183 11.6968 11.8717C11.7093 11.9258 11.7051 11.9783 11.7068 12.0325C11.7084 12.085 11.7168 12.1367 11.7084 12.1892C11.7001 12.2425 11.6759 12.29 11.6576 12.34C11.6401 12.3908 11.6276 12.4417 11.5993 12.4875C11.5718 12.5342 11.5293 12.5708 11.4918 12.6117C11.4593 12.6475 11.4376 12.6892 11.3984 12.72C11.3909 12.725 11.3818 12.7267 11.3751 12.7325C11.3684 12.7367 11.3659 12.7433 11.3601 12.7475L9.53092 14H14.4718L12.6584 12.7492Z" fill="currentColor"/>
</svg>