<svg viewBox="0 0 24 24" fill="none" xmlns="http://www.w3.org/2000/svg">
<path fill-rule="evenodd" clip-rule="evenodd" d="M19.9442 22H4.05583C2.92167 22 2 21.0783 2 19.9442V4.05583C2 2.9225 2.92167 2 4.05583 2H19.9442C21.0783 2 22 2.9225 22 4.05583V19.9442C22 21.0783 21.0783 22 19.9442 22ZM20.3333 4.05583C20.3333 3.845 20.155 3.66667 19.9442 3.66667H4.05583C3.845 3.66667 3.66667 3.845 3.66667 4.05583V19.9442C3.66667 20.155 3.845 20.3333 4.05583 20.3333H19.9442C20.155 20.3333 20.3333 20.155 20.3333 19.9442V4.05583ZM17.0167 18.6667C17.0108 18.6667 17.005 18.6667 17 18.6667H7C6.54 18.6667 6.16667 18.2933 6.16667 17.8333C6.16667 15.5942 7.72583 13.805 10.0017 13.1333C8.71667 12.4233 7.83333 11.0692 7.83333 9.5C7.83333 7.2025 9.7025 5.33333 12 5.33333C14.2975 5.33333 16.1667 7.2025 16.1667 9.5C16.1667 11.0683 15.285 12.4208 14.0017 13.1317C16.2142 13.785 17.7483 15.4967 17.83 17.6508C17.8433 17.7092 17.85 17.7708 17.85 17.8333C17.85 18.2933 17.4767 18.6667 17.0167 18.6667ZM12 7C10.6217 7 9.5 8.12167 9.5 9.5C9.5 10.8783 10.6217 12 12 12C13.3783 12 14.5 10.8783 14.5 9.5C14.5 8.12167 13.3783 7 12 7ZM12 14.5C9.9492 14.5 8.37586 15.5117 7.9492 17H16.0509C15.6242 15.5117 14.0509 14.5 12 14.5Z" fill="currentColor"/>
</svg>