<svg width="25" height="24" viewBox="0 0 25 24" fill="none" xmlns="http://www.w3.org/2000/svg">
<path fill-rule="evenodd" clip-rule="evenodd" d="M24.0126 9.14917L19.8704 14.9825C19.729 15.1817 19.5072 15.3092 19.2636 15.33L19.1917 15.3333C18.9732 15.3333 18.7615 15.2475 18.6049 15.0925L16.0807 12.5917C15.7534 12.2683 15.7509 11.7408 16.0748 11.4133C16.3979 11.0867 16.926 11.0833 17.2532 11.4083L19.0803 13.2167L22.6542 8.18417C22.9212 7.80917 23.4409 7.72167 23.8159 7.98667C24.1908 8.25333 24.2796 8.77417 24.0126 9.14917ZM10.6863 13.1667C14.1003 14.1417 16.6664 17.155 16.6664 20.6117V21.1667C16.6664 21.6267 16.294 22 15.8337 22H0.833615C0.373286 22 0 21.6267 0 21.1667V20.6117C0 17.155 2.56697 14.1417 5.98094 13.1667C3.93373 12.26 2.50001 10.2125 2.50001 7.83333C2.50001 4.61667 5.11719 2 8.33364 2C11.5501 2 14.1673 4.61667 14.1673 7.83333C14.1673 10.2125 12.7336 12.26 10.6863 13.1667ZM1.67399 20.3333H14.9926C14.8285 17.1442 11.8456 14.5 8.33371 14.5C4.82181 14.5 1.83887 17.1442 1.67399 20.3333ZM8.33368 3.66667C6.03622 3.66667 4.16728 5.53583 4.16728 7.83333C4.16728 10.1308 6.03622 12 8.33368 12C10.6311 12 12.5001 10.1308 12.5001 7.83333C12.5001 5.53583 10.6311 3.66667 8.33368 3.66667Z" fill="#6B7084"/>
</svg>
