<svg viewBox="0 0 24 24" fill="none" xmlns="http://www.w3.org/2000/svg">
<path fill-rule="evenodd" clip-rule="evenodd" d="M19.8333 22H4.83333C4.37333 22 4 21.6267 4 21.1667V20.6108C4 17.1542 6.56667 14.1417 9.98083 13.1667C7.93333 12.26 6.5 10.2125 6.5 7.83333C6.5 4.61667 9.11667 2 12.3333 2C15.55 2 18.1667 4.61667 18.1667 7.83333C18.1667 10.2125 16.7333 12.26 14.6858 13.1667C18.1 14.1417 20.6667 17.1542 20.6667 20.6108V21.1667C20.6667 21.6267 20.2933 22 19.8333 22ZM16.5 7.83333C16.5 5.53583 14.6308 3.66667 12.3333 3.66667C10.0358 3.66667 8.16667 5.53583 8.16667 7.83333C8.16667 10.1308 10.0358 12 12.3333 12C14.6308 12 16.5 10.1308 16.5 7.83333ZM12.3334 14.5C8.82086 14.5 5.83836 17.1442 5.67419 20.3333H18.9925C18.8284 17.1442 15.8459 14.5 12.3334 14.5Z" fill="currentColor"/>
</svg>