<svg viewBox="0 0 24 24" fill="none" xmlns="http://www.w3.org/2000/svg">
<path fill-rule="evenodd" clip-rule="evenodd" d="M12 22C6.48583 22 2 17.5142 2 12C2 6.48583 6.48583 2 12 2C17.5142 2 22 6.48583 22 12C22 17.5142 17.5142 22 12 22ZM16.4167 19.0533C16.4117 19.0258 16.3967 19.0025 16.3942 18.9733C16.2425 16.9658 14.2717 15.3333 12 15.3333C9.78171 15.3333 7.81338 17.0075 7.60588 19.0675C8.88338 19.865 10.3867 20.3333 12 20.3333C13.6234 20.3333 15.135 19.8592 16.4167 19.0533ZM14.5183 10.3333C14.5183 8.955 13.3975 7.83333 12.0191 7.83333C10.64 7.83333 9.51831 8.955 9.51831 10.3333C9.51831 11.7125 10.64 12.8333 12.0191 12.8333C13.3975 12.8333 14.5183 11.7125 14.5183 10.3333ZM12 3.66667C7.405 3.66667 3.66667 7.405 3.66667 12C3.66667 14.3158 4.6175 16.4125 6.14833 17.9242C6.69667 16.1 8.21417 14.6242 10.0825 14C8.76333 13.3 7.85167 11.9283 7.85167 10.3333C7.85167 8.03583 9.72167 6.16667 12.0192 6.16667C14.3158 6.16667 16.185 8.03583 16.185 10.3333C16.185 11.9208 15.2825 13.2875 13.9725 13.9908C15.8892 14.6017 17.3842 16.0592 17.8825 17.8967C19.3958 16.3867 20.3333 14.3008 20.3333 12C20.3333 7.405 16.595 3.66667 12 3.66667Z" fill="currentColor"/>
</svg>