<svg width="24" height="24" viewBox="0 0 24 24" fill="none" xmlns="http://www.w3.org/2000/svg">
<path fill-rule="evenodd" clip-rule="evenodd" d="M21.1664 10.5053H17.345L15.0887 12.7629C14.9296 12.9221 14.7167 13.0071 14.4997 13.0071C14.3925 13.0071 14.2844 12.9863 14.1805 12.9438C13.8697 12.8146 13.6661 12.5104 13.6661 12.1729V10.5053H12.8316C12.3716 10.5053 11.998 10.132 11.998 9.67114V3.8342C11.998 3.37335 12.3716 3 12.8316 3H21.1664C21.6264 3 22.0001 3.37335 22.0001 3.8342V9.67114C22.0001 10.132 21.6264 10.5053 21.1664 10.5053ZM20.3328 4.66757H13.6401V8.83443L14.4998 8.83776C14.9597 8.83776 15.3334 9.21111 15.3334 9.67113V10.1595L16.41 9.08194C16.4871 9.00527 16.5793 8.94443 16.6815 8.90193C16.7829 8.85943 16.8909 8.83776 16.9999 8.83776H20.3328V4.66757ZM13.2069 18.0857C13.2446 18.1049 13.2689 18.1365 13.3024 18.1607C13.351 18.1949 13.4013 18.2257 13.4415 18.269C13.4784 18.309 13.5027 18.3557 13.5311 18.4024C13.5588 18.4474 13.589 18.4882 13.6082 18.539C13.63 18.5949 13.635 18.654 13.6434 18.7149C13.6493 18.754 13.6669 18.7899 13.6669 18.8316V19.6658C13.6669 20.585 12.9195 21.3333 12.0004 21.3333H3.66646C2.74735 21.3333 2 20.585 2 19.6658V18.8316C2 18.7891 2.01759 18.7532 2.0243 18.7124C2.03268 18.6524 2.0377 18.594 2.05949 18.5374C2.07876 18.4874 2.10976 18.4449 2.13741 18.3999C2.16589 18.354 2.18935 18.3074 2.22622 18.2682C2.26727 18.224 2.3167 18.194 2.3653 18.1599C2.39965 18.1357 2.42478 18.1032 2.46332 18.084L4.96343 16.8431C4.49843 15.8881 4.49256 14.963 4.50346 14.6905C4.50346 14.6847 4.5001 14.6805 4.5001 14.6747L4.50178 12.1729C4.50178 12.1479 4.51351 12.1271 4.51602 12.1029C4.5177 12.0746 4.50932 12.0471 4.51435 12.0179C4.52524 11.9629 4.55037 11.9137 4.56462 11.8604C4.56713 11.8554 4.56797 11.8496 4.56965 11.8446C4.94081 10.502 6.5084 9.6728 7.83302 9.6728C7.83469 9.6728 7.83637 9.6728 7.83805 9.6728C9.21964 9.6728 10.8794 10.5687 11.1525 12.0187C11.1777 12.1512 11.1617 12.2788 11.1266 12.4004V14.4939C11.1349 14.5322 11.155 14.5647 11.1584 14.6047C11.1634 14.6605 11.2346 15.7272 10.7034 16.8331L13.2069 18.0857ZM8.69767 17.0031C8.70689 16.959 8.71611 16.9173 8.73202 16.8756C8.74292 16.8473 8.74124 16.8181 8.75548 16.7906C8.77811 16.744 8.81665 16.7131 8.84681 16.6723C8.8577 16.659 8.86021 16.6423 8.87194 16.6298C9.56819 15.8272 9.49864 14.7555 9.49781 14.7455C9.49613 14.7264 9.50451 14.7105 9.50367 14.6914C9.50367 14.6855 9.50032 14.6814 9.50032 14.6755L9.49948 12.2979C9.38637 11.8587 8.62059 11.3395 7.83302 11.3395C7.0463 11.3404 6.28051 11.8596 6.16824 12.2979L6.16657 14.6755C6.16657 14.6814 6.16322 14.6864 6.16322 14.6922C6.16322 14.7089 6.16992 14.723 6.16908 14.7397C6.16657 14.7689 6.10792 15.8372 6.79662 16.6298C6.82092 16.6573 6.82846 16.6915 6.84857 16.7206C6.86868 16.7506 6.898 16.7723 6.91476 16.8065C6.92397 16.8248 6.9223 16.8456 6.93068 16.8648C6.95246 16.9181 6.96335 16.9715 6.97424 17.0281C6.98346 17.0798 6.99351 17.129 6.99268 17.1815C6.99268 17.2348 6.98262 17.2848 6.97173 17.3373C6.96168 17.3898 6.95162 17.4407 6.93068 17.4898C6.91141 17.5373 6.88376 17.579 6.85527 17.6232C6.82427 17.6715 6.79243 17.7173 6.75138 17.7582C6.73713 17.7732 6.73043 17.7923 6.71535 17.8057C6.68351 17.8332 6.64497 17.8457 6.61062 17.8673C6.58465 17.884 6.56705 17.9098 6.53857 17.924L3.66646 19.3491V19.6658H12.0004V19.3466L9.2364 17.964C9.20121 17.9523 9.16937 17.9307 9.13586 17.914L9.12832 17.9098C9.12665 17.909 9.12581 17.9073 9.12413 17.9065C9.06632 17.8765 9.006 17.8507 8.95405 17.8065C8.92724 17.7832 8.91467 17.7507 8.89205 17.7248C8.87194 17.704 8.85686 17.6807 8.84011 17.6582C8.79486 17.5957 8.75716 17.534 8.73119 17.4648C8.7161 17.4265 8.70856 17.3882 8.69935 17.3482C8.68762 17.2898 8.67673 17.2331 8.67673 17.1731C8.67589 17.1156 8.68678 17.0606 8.69767 17.0031Z" fill="#6B7084"/>
</svg>
383C6.9836 17.0899 6.99365 17.1391 6.99281 17.1916C6.99281 17.2449 6.98276 17.2949 6.97187 17.3474C6.96181 17.3999 6.95176 17.4499 6.93165 17.499C6.91154 17.5474 6.88389 17.589 6.85457 17.6332C6.82356 17.6807 6.79256 17.7257 6.75235 17.7665C6.73726 17.7815 6.73056 17.8006 6.71548 17.8148C6.68364 17.8423 6.6451 17.8548 6.60991 17.8765C6.58393 17.8931 6.56634 17.9181 6.53869 17.9323L3.66646 19.3537V19.6695H12.0008V19.352L9.23663 17.9723C9.20061 17.9598 9.16877 17.9381 9.13358 17.9206L9.12771 17.9181C9.12687 17.9173 9.12604 17.9165 9.1252 17.9156C9.06655 17.8856 9.00622 17.8598 8.95427 17.8148C8.92746 17.7915 8.91489 17.7598 8.89143 17.734C8.87216 17.7123 8.85708 17.6898 8.84032 17.6673C8.79508 17.6048 8.75653 17.5432 8.73056 17.474C8.71632 17.4357 8.70878 17.3974 8.69956 17.3582C8.68699 17.2999 8.67694 17.2432 8.67694 17.1833C8.6761 17.1258 8.68615 17.0708 8.69788 17.0133Z" fill="#6B7084"/>
</svg>
