<svg width="26" height="26" viewBox="0 0 26 26" fill="none" xmlns="http://www.w3.org/2000/svg">
<path fill-rule="evenodd" clip-rule="evenodd" d="M25.1448 5.13099H22.5793V7.69648C22.5793 8.16854 22.1962 8.55165 21.7241 8.55165C21.2521 8.55165 20.869 8.16854 20.869 7.69648V5.13099H18.3035C17.8314 5.13099 17.4483 4.74788 17.4483 4.27582C17.4483 3.80377 17.8314 3.42066 18.3035 3.42066H20.869V0.855165C20.869 0.383114 21.2521 0 21.7241 0C22.1962 0 22.5793 0.383114 22.5793 0.855165V3.42066H25.1448C25.6169 3.42066 26 3.80377 26 4.27582C26 4.74788 25.6169 5.13099 25.1448 5.13099ZM14.3714 14.844C16.6418 15.5145 18.2162 17.271 18.3 19.4816L18.3205 19.6689C18.3205 20.1409 17.9374 20.5241 17.4654 20.5241H17.4483H7.18629C6.71423 20.5241 6.33112 20.1409 6.33112 19.6689C6.33112 17.3711 7.93113 15.535 10.2666 14.8458C8.94793 14.1172 8.04145 12.7275 8.04145 11.1172C8.04145 8.75955 9.95959 6.84141 12.3173 6.84141C14.675 6.84141 16.5931 8.75955 16.5931 11.1172C16.5931 12.7267 15.6883 14.1146 14.3714 14.844ZM8.16011 18.8138H16.474C16.0362 17.2864 14.4216 16.2483 12.3171 16.2483C10.2125 16.2483 8.59795 17.2864 8.16011 18.8138ZM12.3172 8.55183C10.9028 8.55183 9.7517 9.70288 9.7517 11.1173C9.7517 12.5318 10.9028 13.6828 12.3172 13.6828C13.7316 13.6828 14.8827 12.5318 14.8827 11.1173C14.8827 9.70288 13.7316 8.55183 12.3172 8.55183ZM14.8828 5.13108H4.16502C3.94867 5.13108 3.76566 5.31409 3.76566 5.53044V21.835C3.76566 22.0514 3.94867 22.2344 4.16502 22.2344H20.4696C20.686 22.2344 20.869 22.0514 20.869 21.835V11.1172C20.869 10.6452 21.2521 10.2621 21.7241 10.2621C22.1962 10.2621 22.5793 10.6452 22.5793 11.1172V21.835C22.5793 22.9989 21.6335 23.9447 20.4696 23.9447H4.16502C3.00114 23.9447 2.05533 22.9989 2.05533 21.835V5.53044C2.05533 4.36742 3.00114 3.42075 4.16502 3.42075H14.8828C15.3549 3.42075 15.738 3.80387 15.738 4.27592C15.738 4.74797 15.3549 5.13108 14.8828 5.13108Z" fill="#6B7084"/>
</svg>
