<svg width="24" height="24" viewBox="0 0 24 24" fill="none" xmlns="http://www.w3.org/2000/svg">
<path fill-rule="evenodd" clip-rule="evenodd" d="M21.7553 21.7558C21.5931 21.9192 21.3798 22 21.1665 22C20.9532 22 20.7399 21.9192 20.5776 21.7558L15.6032 16.7817C14.1662 17.9583 12.331 18.6667 10.3336 18.6667C5.73811 18.6667 2 14.9283 2 10.3333C2 5.73833 5.73811 2 10.3336 2C14.9282 2 18.6663 5.73833 18.6663 10.3333C18.6663 12.3317 17.9587 14.1667 16.7818 15.6033L21.7553 20.5775C22.0816 20.9025 22.0816 21.43 21.7553 21.7558ZM17.0001 10.3333C17.0001 6.6575 14.009 3.66667 10.3336 3.66667C6.65739 3.66667 3.66707 6.6575 3.66707 10.3333C3.66707 14.0092 6.65739 17 10.3336 17C14.009 17 17.0001 14.0092 17.0001 10.3333ZM12.8329 14.5H7.83341C6.91415 14.5 6.16636 13.8458 6.16636 13.0417V12.4167C6.16636 12.3792 6.18309 12.3475 6.18811 12.3117C6.19564 12.2533 6.20233 12.1975 6.2224 12.1425C6.23997 12.0917 6.2659 12.0475 6.2935 12.0017C6.32027 11.9558 6.34536 11.9117 6.38133 11.8717C6.41981 11.8275 6.46581 11.7933 6.51265 11.7583C6.54193 11.7367 6.56117 11.7075 6.59379 11.6892L8.10191 10.8475C7.83425 10.1592 7.82672 9.52417 7.83508 9.305C7.83508 9.3 7.83257 9.29583 7.83257 9.29083L7.83425 7.41583C7.83425 7.39417 7.84512 7.375 7.84679 7.35417C7.84847 7.32833 7.8401 7.30417 7.84429 7.2775C8.04671 6.0775 9.29386 5.335 10.3327 5.335C10.3344 5.335 10.3361 5.335 10.3378 5.335C11.375 5.335 12.6196 6.0775 12.8212 7.27917C12.8254 7.30417 12.817 7.3275 12.8187 7.3525C12.8203 7.375 12.8312 7.39333 12.8312 7.41583L12.8321 9.29083C12.8321 9.295 12.8304 9.29833 12.8304 9.30167C12.8396 9.51667 12.8329 10.1517 12.5661 10.8417L14.075 11.6908C14.1068 11.7083 14.126 11.7383 14.1553 11.7592C14.2022 11.7942 14.2473 11.8283 14.2858 11.8725C14.3218 11.9133 14.3477 11.9575 14.3745 12.0033C14.4012 12.0492 14.4272 12.0925 14.4447 12.1433C14.464 12.1983 14.4715 12.255 14.479 12.3133C14.4832 12.3483 14.4999 12.38 14.4999 12.4167V13.0417C14.4999 13.8458 13.7521 14.5 12.8329 14.5ZM11.0345 11.8933C11.0194 11.8842 11.0111 11.8692 10.996 11.86C10.9751 11.8467 10.9517 11.8408 10.9324 11.8258C10.9023 11.8025 10.8873 11.77 10.8622 11.7442C10.8229 11.705 10.7861 11.6675 10.7568 11.6225C10.7258 11.575 10.7041 11.5267 10.6832 11.4758C10.6639 11.4283 10.6464 11.3833 10.6363 11.3333C10.6246 11.2775 10.623 11.2233 10.623 11.1667C10.6221 11.1167 10.623 11.0692 10.6322 11.02C10.643 10.9617 10.6631 10.9083 10.6865 10.8525C10.6991 10.8217 10.6999 10.7883 10.7166 10.7583C10.7267 10.7408 10.7442 10.7308 10.7551 10.7142C10.7668 10.6958 10.7702 10.6742 10.7836 10.6567C11.2018 10.1167 11.165 9.36167 11.165 9.35417C11.1641 9.34 11.1708 9.3275 11.17 9.31333C11.17 9.30583 11.1658 9.3 11.1658 9.2925L11.165 7.53C11.1031 7.29167 10.7074 7 10.3327 7C9.95965 7.00083 9.56568 7.29167 9.50043 7.52917L9.49876 9.2925C9.49876 9.29833 9.49625 9.3025 9.49625 9.30833C9.49541 9.3225 9.50211 9.335 9.50127 9.34917C9.4996 9.38 9.46781 10.1225 9.88102 10.6575C9.89942 10.6817 9.9036 10.71 9.9195 10.7358C9.92786 10.7492 9.94124 10.7567 9.94877 10.77C9.96215 10.7933 9.96215 10.8192 9.97219 10.8425C9.99896 10.9042 10.0215 10.9642 10.0324 11.0292C10.0416 11.0808 10.0425 11.13 10.0425 11.1808C10.0416 11.2308 10.0399 11.2792 10.0299 11.3283C10.0174 11.3925 9.99561 11.4508 9.96968 11.5108C9.95379 11.5442 9.94041 11.5758 9.92033 11.6075C9.87851 11.675 9.82581 11.7317 9.76559 11.7858C9.75221 11.7983 9.74551 11.815 9.73129 11.8258C9.72126 11.8333 9.70871 11.8358 9.69867 11.8433C9.67274 11.8617 9.65601 11.8883 9.62757 11.9042L7.96303 12.8333H12.7066L11.0345 11.8933Z" fill="#6B7084"/>
</svg>
