<svg width="24" height="24" viewBox="0 0 24 24" fill="none" xmlns="http://www.w3.org/2000/svg">
<path fill-rule="evenodd" clip-rule="evenodd" d="M21.1781 12L23.0894 13.9108C23.4146 14.2358 23.4146 14.7633 23.0894 15.0892C22.9263 15.2517 22.7132 15.3333 22.5 15.3333C22.2868 15.3333 22.0736 15.2517 21.9105 15.0892L20.0001 13.1783L18.0889 15.0892C17.9259 15.2517 17.7127 15.3333 17.4995 15.3333C17.2863 15.3333 17.0731 15.2517 16.9109 15.0892C16.5848 14.7633 16.5848 14.2358 16.9109 13.9108L18.8213 12L16.9109 10.0892C16.5848 9.76333 16.5848 9.23583 16.9109 8.91083C17.2361 8.585 17.7637 8.585 18.0889 8.91083L20.0001 10.8217L21.9105 8.91083C22.2358 8.585 22.7633 8.585 23.0894 8.91083C23.4146 9.23583 23.4146 9.76333 23.0894 10.0892L21.1781 12ZM16.6668 20.6117V21.1667C16.6668 21.6267 16.2931 22 15.8333 22H0.832714C0.372882 22 0 21.6267 0 21.1667V20.6117C0 17.1525 2.57004 14.1383 5.98701 13.165C3.937 12.26 2.49981 10.2142 2.49981 7.83333C2.49981 4.61667 5.11668 2 8.33299 2C11.5493 2 14.1662 4.61667 14.1662 7.83333C14.1662 10.2142 12.729 12.26 10.679 13.165C14.0959 14.1383 16.6668 17.1525 16.6668 20.6117ZM12.4999 7.83333C12.4999 5.53583 10.6305 3.66667 8.33297 3.66667C6.03548 3.66667 4.16606 5.53583 4.16606 7.83333C4.16606 10.1308 6.03548 12 8.33297 12C10.6305 12 12.4999 10.1308 12.4999 7.83333ZM8.33299 14.5C4.82071 14.5 1.83849 17.1442 1.67379 20.3333H14.9922C14.8275 17.1442 11.8453 14.5 8.33299 14.5Z" fill="#6B7084"/>
</svg>
