<svg width="24" height="24" viewBox="0 0 24 24" fill="none" xmlns="http://www.w3.org/2000/svg">
<path fill-rule="evenodd" clip-rule="evenodd" d="M18 22H5.63167C5.60833 22 5.58917 21.9883 5.56583 21.9867C5.54333 21.9883 5.52333 22 5.5 22C5.03917 22 4.66667 21.6275 4.66667 21.1667V17.8333H3.83333C3.3725 17.8333 3 17.4608 3 17C3 16.54 3.3725 16.1667 3.83333 16.1667H4.66667V12.8333H3.83333C3.3725 12.8333 3 12.4608 3 12C3 11.5392 3.3725 11.1667 3.83333 11.1667H4.66667V7.83333H3.83333C3.3725 7.83333 3 7.46083 3 7C3 6.53917 3.3725 6.16667 3.83333 6.16667H4.66667V2.83333C4.66667 2.3725 5.03917 2 5.5 2C5.52333 2 5.54333 2.01167 5.56583 2.01333C5.58917 2.01167 5.60833 2 5.63167 2H18C19.3783 2 20.5 3.12167 20.5 4.5V19.5C20.5 20.8783 19.3783 22 18 22ZM18.8333 4.5C18.8333 4.04 18.46 3.66667 18 3.66667H6.33333V6.16667C6.79417 6.16667 7.16667 6.53917 7.16667 7C7.16667 7.46083 6.79417 7.83333 6.33333 7.83333V11.1667C6.79417 11.1667 7.16667 11.5392 7.16667 12C7.16667 12.4608 6.79417 12.8333 6.33333 12.8333V16.1667C6.79417 16.1667 7.16667 16.54 7.16667 17C7.16667 17.4608 6.79417 17.8333 6.33333 17.8333V20.3333H18C18.46 20.3333 18.8333 19.96 18.8333 19.5V4.5ZM14.2725 12.445C13.1158 13.2067 13.005 13.5883 13 13.6667H12.1667H11.3333C11.3333 13.3658 11.4792 12.2883 13.3567 11.0525C13.7217 10.8133 13.845 10.5467 13.845 9.99667C13.845 9.22667 13.3167 8.66667 12.5892 8.66667C11.85 8.66667 11.3333 9.18333 11.3333 9.9225C11.3333 10.3825 10.9608 10.7558 10.5 10.7558C10.0392 10.7558 9.66667 10.3825 9.66667 9.9225C9.66667 8.25667 10.9233 7 12.5892 7C14.2283 7 15.5117 8.31667 15.5117 9.99667C15.5117 11.0967 15.1058 11.8975 14.2725 12.445ZM12.7583 15.5808C12.9083 15.7308 13 15.9467 13 16.1642C13 16.3892 12.9083 16.5967 12.7583 16.7558C12.6 16.9142 12.3833 16.9975 12.1667 16.9975C11.95 16.9975 11.7333 16.9142 11.575 16.7558C11.4242 16.605 11.3333 16.3892 11.3333 16.1642C11.3333 15.9467 11.4242 15.7308 11.575 15.5725C11.8833 15.2725 12.45 15.2642 12.7583 15.5808Z" fill="#6B7084"/>
</svg>
