<svg viewBox="0 0 24 24" fill="none" xmlns="http://www.w3.org/2000/svg">
<g clip-path="url(#clip0_1265_22570)">
<path opacity="0.98" d="M12 24C9.62663 24 7.30655 23.2962 5.33316 21.9776C3.35977 20.6591 1.8217 18.7849 0.913451 16.5922C0.00519937 14.3995 -0.232441 11.9867 0.230582 9.65892C0.693605 7.33115 1.83649 5.19295 3.51472 3.51472C5.19295 1.83649 7.33115 0.693605 9.65892 0.230582C11.9867 -0.232441 14.3995 0.00519937 16.5922 0.913451C18.7849 1.8217 20.6591 3.35977 21.9776 5.33316C23.2962 7.30655 24 9.62663 24 12C24 15.1826 22.7357 18.2349 20.4853 20.4853C18.2349 22.7357 15.1826 24 12 24Z" fill="#112451"/>
<path d="M12.4412 13.3201C12.4412 13.3201 11.0191 14.065 11.0868 15.2365C11.1545 16.4081 12.7256 18.189 13.6737 17.8369C14.6217 17.4848 17.2627 15.9543 17.5336 14.451C17.8045 12.9477 15.177 12.2028 15.177 12.2028L12.4412 13.3201Z" fill="#2844AD"/>
<path d="M16.1112 6.93462C15.2427 6.22774 14.193 5.77926 13.0818 5.64036C11.9706 5.50147 10.8428 5.67775 9.827 6.14909L8.28979 8.34316C8.36338 8.5899 8.49725 8.81444 8.67932 8.9965C8.86138 9.17857 9.08592 9.31243 9.33266 9.38602C10.213 9.67721 14.0255 8.20773 14.0255 8.20773L16.1112 6.93462Z" fill="#2844AD"/>
<path d="M6.0957 9.0878C6.0957 9.0878 7.38235 6.72444 9.10239 6.17592C10.8224 5.6274 10.5786 7.34745 9.10239 8.04494C7.62613 8.74244 6.69839 9.14198 6.0957 9.0878Z" fill="#5493F7"/>
<path d="M5.85208 9.81934C5.85208 9.81934 3.87471 15.3655 9.29216 17.8913C9.29216 17.8913 9.71202 15.677 8.9468 14.2752C8.37904 13.1537 7.69348 12.0958 6.90171 11.1195C6.52403 10.7093 6.17342 10.275 5.85208 9.81934Z" fill="#5493F7"/>
<path d="M17.7164 15.1826C17.7164 15.1826 16.3011 17.8913 14.256 17.8913C14.2037 17.8749 14.1555 17.8477 14.1143 17.8116C14.0732 17.7754 14.0401 17.731 14.0171 17.6812C13.9941 17.6315 13.9818 17.5775 13.981 17.5227C13.9802 17.4679 13.9908 17.4136 14.0122 17.3631C14.1409 16.9704 15.4207 15.5754 17.7164 15.1826Z" fill="#5493F7"/>
<path d="M16.1585 6.97541C16.9495 7.57934 17.5683 8.38024 17.953 9.29815C18.5798 10.802 18.6707 12.4756 18.2103 14.0384C17.865 14.9526 17.33 14.7156 16.1788 14.4718C15.0276 14.228 10.6462 12.9956 9.51531 11.4922C8.38442 9.98887 9.25798 8.78349 10.7207 8.00473C12.1834 7.22597 15.1901 6.37949 16.1585 6.97541Z" fill="#5493F7"/>
<path d="M10.0711 16.3272L9.96948 13.9029L13.247 13.7065C13.247 13.8149 13.247 13.9232 13.247 14.0316C13.247 14.1399 13.247 14.2618 13.247 14.377C13.247 14.4921 13.247 14.614 13.247 14.7291C13.247 14.8442 13.247 14.9593 13.247 15.0745C13.247 15.1896 13.247 15.3115 13.247 15.4266C13.247 15.5417 13.247 15.6636 13.247 15.7787C13.247 15.8938 13.247 15.9954 13.247 16.097C13.247 16.1986 13.247 16.097 13.247 16.097L10.0643 16.2866C10.0643 16.2866 10.0914 16.3408 10.0711 16.3272Z" fill="#3C3B6E"/>
<path d="M18.3799 17.5797C18.3799 17.6881 18.3799 17.8032 18.3799 17.9115C18.3799 18.0199 18.3799 17.9115 18.3799 17.9115L10.186 18.4059C10.186 18.4059 10.186 18.1892 10.186 18.0808H10.2402L18.3664 17.5933C18.3664 17.5933 18.3596 17.5662 18.3799 17.5797Z" fill="#B12234"/>
<path d="M18.38 17.58H18.3461L10.1658 18.0743V17.7222H10.2199L18.3461 17.2346C18.3637 17.2284 18.3828 17.2284 18.4003 17.2346L18.38 17.58Z" fill="#FEFEFE"/>
<path d="M18.3394 16.5369V16.889H18.2988L10.1726 17.3833C10.1551 17.3895 10.1359 17.3895 10.1184 17.3833V17.0312H10.1794L18.3055 16.5369C18.3055 16.5369 18.3259 16.5369 18.3394 16.5369Z" fill="#FEFEFE"/>
<path d="M18.3392 16.5371L10.1453 17.0315V16.6861L18.2714 16.1918C18.2714 16.1918 18.3121 16.1918 18.3324 16.1918L18.3392 16.5371Z" fill="#B12234"/>
<path d="M18.3326 16.1778H18.2987L10.1116 16.6722V16.32L13.3553 16.1304H13.4365L18.2784 15.8392C18.2784 15.8392 18.3122 15.8392 18.3326 15.8392V16.1778Z" fill="#FEFEFE"/>
<path d="M10.1116 17.3765L18.2987 16.8822V17.2276L10.1116 17.7219V17.3765Z" fill="#B12234"/>
<path d="M13.301 14.0313V13.6792L18.2241 13.3812C18.2241 13.3812 18.2241 13.6047 18.2241 13.713H18.1632L13.3552 14.0313C13.3552 14.0313 13.3146 14.0449 13.301 14.0313Z" fill="#B12234"/>
<path d="M13.301 14.0316L13.8969 13.991L18.2106 13.7336V14.079L13.3552 14.3837C13.3478 14.3904 13.3381 14.3941 13.3281 14.3941C13.3181 14.3941 13.3085 14.3904 13.301 14.3837V14.0316Z" fill="#FEFEFE"/>
<path d="M13.3552 15.7784V15.4263H13.4094L18.2445 15.1283C18.2445 15.1283 18.2851 15.1283 18.2987 15.1283V15.4804L13.45 15.7716C13.45 15.7716 13.3552 15.7919 13.3552 15.7784Z" fill="#FEFEFE"/>
<path d="M18.2919 15.1286L13.3552 15.4265V15.0744H13.4094L18.2445 14.7832C18.2445 14.7832 18.2851 14.7832 18.2987 14.7832L18.2919 15.1286Z" fill="#B12234"/>
<path d="M18.2783 14.7766L17.2897 14.8375L13.3552 15.0745V14.7292L18.2106 14.438H18.258L18.2783 14.7766Z" fill="#FEFEFE"/>
<path d="M13.3552 15.7788L18.2648 15.4808V15.8262L13.3688 16.1174L13.3552 15.7788Z" fill="#B12234"/>
<path d="M18.2716 14.4242H18.2377L13.3552 14.729V14.3768L14.8721 14.2888L18.258 14.0789L18.2716 14.4242Z" fill="#B12234"/>
<path d="M12.448 15.5617V15.4805C12.448 15.4805 12.448 15.4805 12.448 15.4466C12.4269 15.4376 12.4083 15.4237 12.3938 15.406H12.4683V15.3247C12.4683 15.3247 12.4683 15.3653 12.4683 15.3857C12.4683 15.406 12.4683 15.4195 12.5157 15.3857H12.5699L12.5157 15.4331C12.5139 15.4579 12.5139 15.4827 12.5157 15.5075L12.448 15.4669V15.5617Z" fill="#FDFDFD"/>
<path d="M10.7548 15.5075H10.8157C10.8157 15.5075 10.8157 15.5075 10.8496 15.5075C10.8444 15.4853 10.8444 15.4621 10.8496 15.4398C10.8496 15.4398 10.8496 15.4872 10.8496 15.5143C10.8496 15.5414 10.8496 15.5143 10.8496 15.5143H10.9309C10.9309 15.5143 10.9309 15.5482 10.8767 15.5549C10.8225 15.5617 10.8767 15.5549 10.8767 15.6091C10.8787 15.6294 10.8787 15.6498 10.8767 15.6701L10.8157 15.6294C10.7985 15.6489 10.7779 15.6649 10.7548 15.6768C10.7578 15.6521 10.7578 15.6271 10.7548 15.6023C10.7548 15.6023 10.7548 15.6023 10.7548 15.5685L10.6938 15.5279L10.7548 15.5075Z" fill="#FDFDFD"/>
<path d="M11.7502 14.8645L11.6893 14.8238L11.6283 14.878C11.6267 14.851 11.6267 14.8238 11.6283 14.7968L11.5674 14.7494H11.6419C11.6399 14.7223 11.6399 14.6951 11.6419 14.6681V14.729C11.6419 14.729 11.6419 14.729 11.6825 14.729H11.7435L11.6893 14.7764C11.6868 14.7818 11.6856 14.7875 11.6856 14.7934C11.6856 14.7992 11.6868 14.805 11.6893 14.8103C11.7125 14.8248 11.7331 14.8431 11.7502 14.8645Z" fill="#FDFDFD"/>
<path d="M12.59 13.9295L12.5426 13.9633C12.5384 13.9665 12.535 13.9706 12.5327 13.9753C12.5303 13.98 12.5291 13.9852 12.5291 13.9904C12.5291 13.9957 12.5303 14.0009 12.5327 14.0056C12.535 14.0103 12.5384 14.0144 12.5426 14.0175V14.0785L12.4749 14.0378L12.414 14.092V14.0108L12.353 13.9633H12.4207C12.4207 13.9633 12.4207 13.9633 12.4546 13.9633C12.4515 13.9409 12.4515 13.9181 12.4546 13.8956C12.4546 13.8956 12.4546 13.8956 12.4546 13.9363C12.4546 13.9769 12.4546 13.9837 12.5156 13.9769H12.563L12.59 13.9295Z" fill="#FDFDFD"/>
<path d="M10.4501 14.7896H10.5246V14.7151C10.5274 14.7398 10.5274 14.7648 10.5246 14.7896H10.5991C10.5841 14.8068 10.5657 14.8206 10.545 14.8302V14.8776V14.9453L10.484 14.9047C10.484 14.9047 10.484 14.9047 10.4501 14.9047L10.3892 14.9521C10.3853 14.9297 10.3853 14.9068 10.3892 14.8844C10.3892 14.8844 10.3892 14.8505 10.3892 14.837H10.3418L10.4501 14.7896Z" fill="#FDFDFD"/>
<path d="M12.3392 14.6815L12.2783 14.7289C12.2832 14.7535 12.2832 14.7788 12.2783 14.8034L12.2173 14.7627C12.2173 14.7627 12.2173 14.7627 12.1835 14.7627C12.1664 14.7841 12.1457 14.8024 12.1225 14.8169C12.1225 14.7831 12.1225 14.756 12.1225 14.7357C12.1225 14.7153 12.1225 14.7357 12.1225 14.7357C12.1015 14.7236 12.0831 14.7075 12.0684 14.6883H12.1361C12.1334 14.6635 12.1334 14.6385 12.1361 14.6138V14.6679C12.1361 14.7086 12.1361 14.7086 12.1835 14.7018H12.2377L12.3392 14.6815Z" fill="#FDFDFD"/>
<path d="M13.064 15.2705C13.0658 15.2953 13.0658 15.3202 13.064 15.345H13.1384L13.0843 15.3856C13.0843 15.3856 13.0843 15.3856 13.0843 15.4263C13.0911 15.4483 13.0911 15.4719 13.0843 15.494L13.0233 15.4533C13.0075 15.4742 12.9865 15.4906 12.9624 15.5007V15.433C12.9624 15.433 12.9624 15.433 12.9624 15.3924C12.9413 15.3834 12.9227 15.3695 12.9082 15.3518H12.9827L13.064 15.2705Z" fill="#FDFDFE"/>
<path d="M11.3239 15.4739H11.3916C11.3886 15.4492 11.3886 15.4242 11.3916 15.3994V15.4671H11.4322H11.4932L11.439 15.5145C11.439 15.5145 11.439 15.5145 11.439 15.5484C11.4407 15.5732 11.4407 15.5981 11.439 15.6229L11.3781 15.5823L11.3171 15.6364V15.5552C11.3195 15.5499 11.3208 15.5441 11.3208 15.5382C11.3208 15.5324 11.3195 15.5266 11.3171 15.5213H11.2629L11.3239 15.4739Z" fill="#FDFDFE"/>
<path d="M10.2671 13.9705C10.266 13.993 10.266 14.0156 10.2671 14.0382H10.3348L10.2874 14.0788C10.2874 14.0788 10.2874 14.0788 10.2874 14.1262C10.2886 14.1488 10.2886 14.1714 10.2874 14.1939L10.2197 14.1465L10.1588 14.1872V14.1194L10.0911 14.0788H10.1656C10.1656 14.0788 10.1656 14.0788 10.1994 14.0788C10.2155 14.039 10.2384 14.0023 10.2671 13.9705Z" fill="#FDFDFD"/>
<path d="M11.4458 14.1466L11.3848 14.106L11.3239 14.1601C11.3223 14.1331 11.3223 14.1059 11.3239 14.0789L11.2629 14.0315H11.3239V13.9637C11.3267 13.9885 11.3267 14.0135 11.3239 14.0382H11.3984L11.3374 14.0856C11.3374 14.0856 11.3374 14.0856 11.3374 14.1195C11.3754 14.1178 11.413 14.1273 11.4458 14.1466Z" fill="#FDFDFD"/>
<path d="M11.9129 13.8685C11.9147 13.8933 11.9147 13.9182 11.9129 13.943H11.9874L11.9265 13.9972C11.9265 13.9972 11.9265 14.0446 11.9265 14.0717L11.8723 14.0311C11.8723 14.0311 11.8384 14.0311 11.8249 14.0311L11.7775 14.0717C11.7737 14.0493 11.7737 14.0264 11.7775 14.004V13.9633L11.7166 13.9227H11.7978L11.9129 13.8685Z" fill="#FDFDFD"/>
<path d="M12.9759 13.9298C12.9706 13.9053 12.9706 13.8799 12.9759 13.8553C12.9721 13.88 12.9721 13.9052 12.9759 13.9298Z" fill="#FDFDFD"/>
<path d="M11.8995 15.5818V15.5141L11.8318 15.4667H11.9063V15.3922C11.9063 15.3922 11.9063 15.4464 11.9063 15.4667C11.9063 15.487 11.9063 15.4667 11.9063 15.4667H11.9875L11.9266 15.5209C11.9248 15.5457 11.9248 15.5706 11.9266 15.5954L11.8589 15.5547L11.8047 15.6021L11.8995 15.5818Z" fill="#FDFDFD"/>
<path d="M11.1138 14.6542C11.1138 14.7151 11.1138 14.7151 11.2018 14.7151L11.1477 14.7625C11.1515 14.7872 11.1515 14.8123 11.1477 14.837L11.0867 14.7964C11.0867 14.7964 11.0867 14.7964 11.0529 14.7964L10.9987 14.8438C10.9949 14.8191 10.9949 14.794 10.9987 14.7693L10.9377 14.7219H11.0055L11.1138 14.6542Z" fill="#FDFDFD"/>
<path d="M10.2131 16.029H10.2943V15.9478C10.2932 15.9703 10.2932 15.9929 10.2943 16.0155H10.3688L10.3079 16.0696C10.3061 16.0944 10.3061 16.1193 10.3079 16.1441L10.2401 16.1035L10.1792 16.1509V16.0764L10.2131 16.029Z" fill="#FDFDFE"/>
<path d="M11.9198 16.0764C11.9198 16.0764 11.9198 16.029 11.9198 16.0087C11.9198 15.9884 11.9198 16.0087 11.9198 16.0087L11.8521 15.9613H11.9333L12.001 15.8597C12.0038 15.8845 12.0038 15.9095 12.001 15.9342C12.0231 15.9274 12.0467 15.9274 12.0687 15.9342L12.0078 15.9816C12.0106 16.0064 12.0106 16.0314 12.0078 16.0561L12.001 16.029C12.001 16.029 12.001 16.029 11.9672 16.029L11.913 16.0697L11.9198 16.0764Z" fill="#FDFDFE"/>
<path d="M13.0843 15.7579C13.0843 15.7579 13.0843 15.8121 13.0843 15.8392C13.0843 15.8663 13.0843 15.8392 13.0843 15.8392H13.1656L13.1046 15.8934C13.1046 15.8934 13.1046 15.8934 13.1046 15.9272V16.0017L13.0369 15.9543L12.9759 16.0085V15.9272L12.9624 15.8595H13.0369C13.0486 15.8239 13.0645 15.7898 13.0843 15.7579Z" fill="#FDFDFE"/>
<path d="M10.9648 14.5053C10.9416 14.5198 10.921 14.5382 10.9038 14.5595C10.9066 14.5843 10.9066 14.6092 10.9038 14.634L10.8361 14.5934L10.7684 14.6475C10.7707 14.6205 10.7707 14.5933 10.7684 14.5663L10.7007 14.5189C10.7254 14.5155 10.7505 14.5155 10.7752 14.5189C10.7752 14.5189 10.7752 14.5189 10.809 14.485C10.8059 14.4648 10.8059 14.4443 10.809 14.4241C10.8145 14.4463 10.8145 14.4695 10.809 14.4918L10.9648 14.5053Z" fill="#FEFEFE"/>
<path d="M12.5694 14.5728L12.5017 14.5254L12.4408 14.5796V14.4983L12.373 14.4509H12.4272C12.4679 14.4509 12.4679 14.4509 12.4814 14.4035V14.3494V14.4306H12.5559L12.4949 14.4848L12.5694 14.5728Z" fill="#FEFEFE"/>
<path d="M10.6465 15.4195V15.3788C10.6465 15.3788 10.6465 15.3788 10.6058 15.3788L10.5517 15.4262C10.5517 15.3924 10.5517 15.3721 10.5517 15.345C10.5517 15.3179 10.5517 15.345 10.5517 15.345L10.4907 15.2976H10.5652C10.5591 15.2708 10.5591 15.2431 10.5652 15.2163C10.5652 15.2163 10.5652 15.2705 10.5652 15.2908H10.6465L10.5788 15.345C10.6029 15.3683 10.6255 15.3932 10.6465 15.4195Z" fill="#FEFEFE"/>
<path d="M12.1093 15.1825H12.1905V15.1012C12.1923 15.126 12.1923 15.1509 12.1905 15.1757H12.265L12.2041 15.2299C12.2022 15.2569 12.2022 15.2841 12.2041 15.3111L12.1431 15.2637C12.1431 15.2637 12.1431 15.2637 12.1093 15.2637L12.0483 15.3111V15.2366C12.0483 15.2366 12.0483 15.2366 12.0483 15.2028L12.1093 15.1825Z" fill="#FEFEFE"/>
<path d="M11.2559 14.5051H11.3236C11.3236 14.5051 11.3574 14.5051 11.3642 14.4713V14.4036C11.3642 14.4036 11.3642 14.4577 11.3642 14.4848C11.3642 14.5119 11.3642 14.4848 11.3642 14.4848H11.4455L11.3845 14.539C11.3873 14.5638 11.3873 14.5887 11.3845 14.6135L11.3236 14.5729C11.3064 14.5942 11.2858 14.6125 11.2626 14.627C11.2626 14.5932 11.2626 14.5729 11.2626 14.5458C11.2626 14.5187 11.2626 14.5458 11.2626 14.5458L11.2559 14.5051Z" fill="#FEFEFE"/>
<path d="M10.7617 15.9951H10.8294C10.8294 15.9951 10.8632 15.9951 10.87 15.9613C10.8674 15.9388 10.8674 15.9161 10.87 15.8936C10.8718 15.9184 10.8718 15.9432 10.87 15.968H10.9445L10.8835 16.0222C10.8817 16.047 10.8817 16.0719 10.8835 16.0967L10.8158 16.0561L10.7549 16.1103V16.0358C10.7549 16.0358 10.7549 16.0358 10.7549 15.9951H10.7617Z" fill="#FDFDFE"/>
<path d="M12.617 16.0429L12.5561 15.9955L12.4884 16.0497C12.4884 16.0497 12.4884 15.9955 12.4884 15.9752C12.4884 15.9549 12.4884 15.9752 12.4884 15.9414L12.4207 15.8939H12.5019C12.4959 15.8695 12.4959 15.8439 12.5019 15.8195V15.8669C12.5019 15.9075 12.5019 15.9075 12.5629 15.9075H12.678L12.617 15.9617C12.617 15.9617 12.617 15.9617 12.617 15.9955C12.6177 16.0113 12.6177 16.0271 12.617 16.0429Z" fill="#FDFDFE"/>
<path d="M11.0123 15.2438H11.08C11.08 15.2438 11.08 15.2438 11.08 15.2099V15.1422C11.08 15.1422 11.08 15.1964 11.08 15.2235C11.08 15.2506 11.08 15.2235 11.08 15.2235H11.1613L11.1003 15.2776C11.0985 15.3024 11.0985 15.3273 11.1003 15.3521L11.0326 15.3115C11.0136 15.3289 10.9932 15.3448 10.9717 15.3589V15.2844L11.0123 15.2438Z" fill="#FEFEFE"/>
<path d="M11.5607 15.1825H11.642C11.642 15.1825 11.642 15.1351 11.642 15.1012V15.1757H11.7165L11.6555 15.2299V15.2976L11.5946 15.2637H11.5539L11.4998 15.3111C11.4998 15.2773 11.4998 15.2569 11.4998 15.2299C11.4998 15.2028 11.4998 15.2299 11.4998 15.2299L11.5607 15.1825Z" fill="#FEFEFE"/>
<path d="M12.8676 15.2908L12.8066 15.2434C12.8066 15.2434 12.8066 15.2434 12.7728 15.2434L12.7118 15.2908C12.7101 15.266 12.7101 15.2411 12.7118 15.2163L12.678 15.1825H12.7592C12.7592 15.1825 12.7592 15.1351 12.7592 15.1012V15.1621C12.7592 15.1621 12.7592 15.2028 12.7999 15.196H12.8608L12.8066 15.2434C12.8066 15.2434 12.8066 15.2434 12.8066 15.284L12.8676 15.2908Z" fill="#FEFEFE"/>
<path d="M12.0618 14.4444L12.0009 14.5054V14.5866L11.9399 14.5392H11.8993L11.8451 14.5866C11.8412 14.562 11.8412 14.5368 11.8451 14.5121C11.8451 14.5121 11.8451 14.5121 11.8451 14.4783L11.7842 14.4376H11.8519V14.3632C11.8519 14.3632 11.8519 14.4173 11.8519 14.4376L12.0618 14.4444Z" fill="#FEFEFE"/>
<path d="M10.2198 14.7083C10.2166 14.6836 10.2166 14.6586 10.2198 14.6338L10.1521 14.5864H10.213C10.2469 14.5864 10.2469 14.5864 10.2604 14.539C10.2587 14.521 10.2587 14.5029 10.2604 14.4849V14.5594H10.3417L10.274 14.6135C10.2778 14.6382 10.2778 14.6633 10.274 14.688L10.213 14.6474C10.213 14.6474 10.213 14.6474 10.1792 14.6474C10.1967 14.6648 10.2105 14.6855 10.2198 14.7083Z" fill="#FEFEFE"/>
<path d="M11.8249 15.6902C11.8249 15.6902 11.764 15.7241 11.7572 15.7512C11.7552 15.7805 11.7552 15.8099 11.7572 15.8392L11.6963 15.7918C11.6963 15.7918 11.6963 15.7918 11.6624 15.7918L11.6015 15.8392C11.6015 15.8392 11.6015 15.785 11.6015 15.7579C11.6015 15.7309 11.6015 15.7579 11.6015 15.7579L11.5405 15.7173H11.615V15.6428C11.6177 15.6653 11.6177 15.688 11.615 15.7105C11.615 15.7105 11.615 15.7105 11.6489 15.7105L11.8249 15.6902Z" fill="#FEFEFE"/>
<path d="M10.728 15.0199H10.8025V14.9386C10.8045 14.9657 10.8045 14.9928 10.8025 15.0199H10.8838L10.8228 15.074C10.8209 15.1011 10.8209 15.1282 10.8228 15.1553L10.7619 15.1079C10.7619 15.1079 10.7619 15.1079 10.728 15.1079L10.7822 15.1824V15.1011L10.728 15.0199Z" fill="#FEFEFE"/>
<path d="M11.2221 14.2549L11.1679 14.3023C11.1679 14.3023 11.1679 14.3023 11.1679 14.3361V14.4106L11.1002 14.3632L11.0461 14.4106V14.3294L10.9851 14.2887H11.0596C11.0596 14.2887 11.0596 14.2413 11.0596 14.2075C11.0596 14.1736 11.0596 14.2616 11.0596 14.2887C11.0596 14.3158 11.0596 14.2887 11.0596 14.2887H11.1341L11.2221 14.2549Z" fill="#FEFEFE"/>
<path d="M12.8679 14.1598L12.8205 14.2004C12.8205 14.2004 12.8205 14.2004 12.8205 14.241C12.8243 14.2634 12.8243 14.2863 12.8205 14.3087L12.7596 14.2681C12.7596 14.2681 12.7596 14.2681 12.7257 14.2681L12.6648 14.3223C12.6631 14.2952 12.6631 14.2681 12.6648 14.241V14.2072L12.6106 14.1665H12.6783V14.092C12.6811 14.1168 12.6811 14.1418 12.6783 14.1665H12.746L12.8679 14.1598Z" fill="#FEFEFE"/>
<path d="M10.2333 15.1825C10.2333 15.1486 10.2333 15.1283 10.2333 15.1012C10.2333 15.0742 10.2333 15.1012 10.2333 15.1012L10.1724 15.0606H10.2469C10.2469 15.0606 10.2469 15.0132 10.2469 14.9793C10.2469 14.9455 10.2469 15.0335 10.2469 15.0538C10.2469 15.0742 10.2469 15.0538 10.2469 15.0538H10.3146C10.3146 15.0538 10.3146 15.0538 10.2807 15.0945C10.2469 15.1351 10.2807 15.0945 10.2807 15.1622V15.2164L10.213 15.169L10.2333 15.1825Z" fill="#FEFEFE"/>
<path d="M11.8791 15.1012V15.0267C11.8791 15.0267 11.8791 15.0267 11.8791 14.9928C11.8559 14.9841 11.8351 14.9702 11.8181 14.9522H11.8858C11.8875 14.9274 11.8875 14.9025 11.8858 14.8777V14.9589H11.9671L11.8994 15.0131C11.8994 15.0131 11.8994 15.0605 11.8994 15.0944L12.001 15.047L11.8791 15.1012Z" fill="#FEFEFE"/>
<path d="M12.6783 15.6366H12.7392V15.5688C12.7392 15.5688 12.7392 15.6163 12.7392 15.6433C12.7392 15.6704 12.7392 15.6433 12.7392 15.6433H12.8069C12.7966 15.6622 12.7798 15.6767 12.7595 15.684C12.7595 15.684 12.7595 15.684 12.7595 15.7314C12.7607 15.7539 12.7607 15.7765 12.7595 15.7991L12.7053 15.7652C12.7053 15.7652 12.6715 15.7652 12.6512 15.7652L12.6038 15.8059C12.5998 15.7835 12.5998 15.7605 12.6038 15.7381V15.6975L12.6783 15.6433V15.6366Z" fill="#FEFEFE"/>
<path d="M12.3734 15.6568L12.3192 15.7042C12.3192 15.7042 12.3192 15.7042 12.3192 15.738C12.3174 15.7628 12.3174 15.7877 12.3192 15.8125L12.2583 15.7719C12.2583 15.7719 12.2583 15.7719 12.2177 15.7719L12.1635 15.8193V15.738C12.1412 15.7277 12.1206 15.714 12.1025 15.6974H12.177C12.1748 15.6726 12.1748 15.6477 12.177 15.6229C12.18 15.6454 12.18 15.6682 12.177 15.6906H12.2177L12.3734 15.6568Z" fill="#FEFEFE"/>
<path d="M11.2831 15.7177L11.2221 15.7719C11.2221 15.7719 11.2221 15.7719 11.2221 15.8057C11.2271 15.8303 11.2271 15.8556 11.2221 15.8802L11.1815 15.8599C11.1815 15.8599 11.1815 15.8599 11.1409 15.8599L11.0799 15.9073V15.8328C11.0799 15.8328 11.0799 15.8328 11.0799 15.799L11.0122 15.7583H11.0867C11.0884 15.7335 11.0884 15.7086 11.0867 15.6838C11.0895 15.7086 11.0895 15.7336 11.0867 15.7583C11.0867 15.7583 11.0867 15.7583 11.1206 15.7583L11.2831 15.7177Z" fill="#FEFEFE"/>
<path d="M10.5991 15.6633C10.601 15.6904 10.601 15.7175 10.5991 15.7446H10.6736L10.6126 15.7988C10.6146 15.8258 10.6146 15.853 10.6126 15.88L10.6465 15.8597C10.6294 15.8811 10.6088 15.8994 10.5855 15.9139C10.5855 15.88 10.5855 15.8597 10.5855 15.8326C10.5855 15.8055 10.5855 15.8326 10.5855 15.8326L10.5178 15.792H10.5991C10.5991 15.792 10.5923 15.6972 10.5991 15.6633Z" fill="#FEFEFE"/>
<path d="M11.6082 14.2346C11.6059 14.2099 11.6059 14.1849 11.6082 14.1602C11.611 14.1849 11.611 14.2099 11.6082 14.2346Z" fill="#FEFEFE"/>
<path d="M12.1973 14.092C12.1993 14.1191 12.1993 14.1463 12.1973 14.1733H12.2718L12.2176 14.2207C12.2176 14.2207 12.2176 14.2681 12.2176 14.2952L12.1567 14.2546L12.0957 14.302C12.0918 14.2796 12.0918 14.2567 12.0957 14.2342C12.0957 14.2342 12.0957 14.2004 12.0957 14.1868L12.0483 14.153H12.1161C12.1161 14.153 12.1905 14.1259 12.1973 14.092Z" fill="#FEFEFE"/>
<path d="M11.2831 14.986H11.3576V14.9048C11.3576 14.9048 11.3576 14.9386 11.3576 14.959C11.3583 14.9651 11.3603 14.971 11.3636 14.9762C11.3669 14.9814 11.3713 14.9858 11.3765 14.9891C11.3817 14.9923 11.3876 14.9943 11.3937 14.995C11.3998 14.9956 11.406 14.9949 11.4118 14.9928C11.4118 14.9928 11.4118 14.9928 11.4592 14.9928L11.405 15.0402C11.4071 15.065 11.4071 15.0899 11.405 15.1147L11.3373 15.0673L11.2764 15.1215V15.0402L11.2831 14.986Z" fill="#FEFEFE"/>
<path d="M13.1724 14.878L13.1182 14.9187C13.1182 14.9187 13.1182 14.9187 13.1182 14.9525V15.027L13.0573 14.9864L13.0031 15.0338C12.9992 15.0091 12.9992 14.984 13.0031 14.9593C13.0055 14.954 13.0068 14.9482 13.0068 14.9424C13.0068 14.9365 13.0055 14.9307 13.0031 14.9254C12.9799 14.9167 12.9591 14.9028 12.9421 14.8848H13.0166C13.0113 14.8602 13.0113 14.8348 13.0166 14.8103V14.878C13.0166 14.878 13.0166 14.878 13.0505 14.878H13.1182H13.1724Z" fill="#FEFEFE"/>
</g>
<defs>
<clipPath id="clip0_1265_22570">
<rect width="24" height="24" fill="white"/>
</clipPath>
</defs>
</svg>