<svg width="24" height="24" viewBox="0 0 24 24" fill="none" xmlns="http://www.w3.org/2000/svg">
<g clip-path="url(#clip0_1265_20599)">
<path d="M12 24C18.6274 24 24 18.6274 24 12C24 5.37258 18.6274 0 12 0C5.37258 0 0 5.37258 0 12C0 18.6274 5.37258 24 12 24Z" fill="#30367A"/>
<path d="M10.9295 16.0937V7.4682H8.42505V5.5H15.575V7.4682H13.0706V16.0937H10.9295ZM10.3529 18.5C9.0601 18.5 8.44845 17.8786 8.44845 16.5643V8.0324H10.3295V16.4772C10.3295 16.6852 10.3978 16.7541 10.6019 16.7541H13.4222C13.6263 16.7541 13.6952 16.6846 13.6952 16.4772V8.0324H15.575V16.5643C15.575 17.8786 14.9627 18.5 13.6705 18.5H10.3529Z" fill="white"/>
</g>
<defs>
<clipPath id="clip0_1265_20599">
<rect width="24" height="24" fill="white"/>
</clipPath>
</defs>
</svg>
