<svg viewBox="0 0 24 24" fill="none" xmlns="http://www.w3.org/2000/svg">
<path d="M20.9866 13.2797C20.9345 12.8651 20.7955 12.5956 20.7086 12.4297C20.1701 11.4139 18.9021 9.27859 18.6763 8.8847C18.6068 8.78104 18.5199 8.61519 18.4505 8.38715C18.3636 8.13838 18.3289 7.8896 18.3115 7.82741C18.2941 7.72375 18.2941 7.72375 18.2767 7.64083C18.2767 7.59937 18.2246 7.30913 18.103 7.06035C17.9988 6.83231 17.8772 6.68719 17.7904 6.5628C17.0608 5.73356 16.0538 5.12804 15.8275 4.42749C15.7977 4.3354 15.7551 4.23635 15.7018 4.13405C15.696 4.12278 15.6369 2.46413 15.6307 2.45279C15.2698 1.78378 14.525 2.64203 13.9167 2.74826C12.0233 3.07996 10.8225 4.38328 9.17225 5.66862C9.06132 5.76027 8.59694 6.33396 7.8109 7.06035C7.28687 7.54461 6.55876 8.71565 5.62657 10.5735L5.24999 12.2335L4.62094 14.3394C4.63755 14.4625 4.66905 14.8433 4.71543 15.4817C4.83603 17.1418 5.63862 18.9681 5.84707 19.8388C6.40293 19.6315 11.019 20.6759 13.1382 21.0698C13.4754 21.1294 13.8686 21.1622 14.3171 21.1317C14.4442 21.1231 12.7293 17.7714 9.17225 11.0768C13.1804 17.6937 15.2305 20.9902 15.3228 20.9664C15.896 20.8186 16.5347 20.5649 17.2377 20.1576C16.9135 20.0609 15.2781 17.8436 12.3317 13.5058C12.0044 12.9245 11.8408 12.3617 11.8408 11.8175C11.8408 11.2052 12.0757 10.5244 12.5455 9.7751C12.5653 10.2354 12.6141 10.6122 12.692 10.9054C12.8088 11.3451 14.266 13.135 14.7158 13.3004C15.443 13.568 15.1408 13.1119 16.2525 13.5058C16.4609 13.568 16.7041 13.6716 16.9647 13.9204C17.2947 14.2314 17.6368 14.6238 17.6368 14.6238C17.6889 14.7275 17.7063 14.7689 17.7584 14.8933C17.8279 15.0384 18.2767 15.6431 18.4678 15.8089C18.6589 15.9748 18.8326 16.0577 18.9542 16.0992C19.0584 16.1406 19.1453 16.1614 19.1626 16.1614C19.4058 16.2236 19.6143 16.2028 19.7185 16.2028C19.8373 16.1826 20.3433 15.6564 20.4406 15.5822C20.5164 15.5245 14.9616 11.0961 14.9765 11.0768C14.9984 11.0484 15.6111 10.5623 16.2525 11.5139C18.3408 14.6122 20.4157 15.6237 20.4406 15.5822C20.5197 15.4508 20.575 15.3331 20.6044 15.2699C20.7607 14.9382 20.8129 14.648 20.8997 14.1712C20.9866 13.8395 21.0213 13.5907 20.9866 13.2797ZM16.6773 5.15682C16.7239 5.18404 16.7243 5.0985 16.6952 4.99286C16.6661 4.88722 16.5917 3.28548 16.5856 3.27414C16.4195 2.96628 16.1644 2.90267 15.8942 3.09869C15.8673 3.11816 15.8756 3.45929 15.9191 4.12209C16.1892 4.67454 16.4419 5.01945 16.6773 5.15682ZM17.1023 8.79914L16.1102 8.28242C15.9141 8.10407 15.7916 7.80682 15.7916 7.47985V7.0637C15.7916 6.88535 16.1279 6.72248 16.2055 6.87111L17.2623 8.63912C17.4339 8.90665 17.3559 8.90665 17.1023 8.79914ZM20.7077 13.6707C20.6727 13.9101 20.6924 13.8029 20.6771 13.8784C20.6466 14.0106 20.591 14.2994 20.5604 14.4127C20.5132 14.5189 20.431 14.5189 20.4082 14.4275C20.4082 14.3898 20.3049 14.0448 20.2438 13.8938C20.1979 13.7805 20.349 13.388 20.456 13.3125C20.5709 13.2431 20.7426 13.4313 20.7077 13.6707Z" fill="#222222"/>
<path d="M9.43124 10.8783C9.43124 10.8783 8.50885 10.1073 6.22686 11.2342C4.75238 11.9625 4.27456 13.5096 3.30401 14.8258C2.3335 16.1417 1.80889 16.0851 1.80889 16.0851C1.80889 16.0851 3.94114 16.8934 5.90058 15.7616C7.85993 14.6297 8.70957 10.8783 8.70957 10.8783L9.43124 10.8783Z" fill="#222222"/>
<path fill-rule="evenodd" clip-rule="evenodd" d="M1.80896 16.0851C2.27134 16.1536 2.89912 16.1307 3.6923 16.0165C4.88206 15.8452 5.36244 15.5573 5.57768 15.5149C5.72118 15.4866 5.94125 15.4866 6.23791 15.5149C5.95502 15.7327 5.65912 15.9 5.3502 16.0165C4.88681 16.1914 4.64218 16.2818 4.1298 16.3392C3.61742 16.3966 3.30827 16.3766 2.68774 16.3059C2.27404 16.2588 1.98112 16.1852 1.80896 16.0851Z" fill="#414141"/>
<path d="M7.68245 9.25976C6.00091 9.61695 4.98037 10.8834 3.57 11.8528C2.15972 12.8222 1.67597 12.6722 1.67597 12.6722C1.67597 12.6722 3.43243 13.7892 5.72652 13.1706C8.02057 12.5519 10.2848 8.70707 7.68245 9.25976Z" fill="#222222"/>
<path fill-rule="evenodd" clip-rule="evenodd" d="M1.6759 12.6721C2.10894 12.829 2.4932 12.9257 2.82867 12.9624C3.33188 13.0175 3.52035 12.8947 3.89306 13.0348C4.14153 13.1283 4.261 13.2382 4.25148 13.3646C4.07575 13.3725 3.84632 13.3565 3.56318 13.3166C3.13847 13.2567 3.12657 13.2465 2.78841 13.1582C2.45026 13.07 2.48758 13.0816 2.1967 12.96C2.00278 12.879 1.82918 12.783 1.6759 12.6721Z" fill="#414141"/>
<path d="M9.49078 7.16668C7.73246 7.19115 6.24827 8.33779 4.50736 9.0806C2.76658 9.82329 2.36115 9.5578 2.36115 9.5578C2.36115 9.5578 3.60574 11.139 6.05676 10.9641C8.50776 10.789 12.212 7.12894 9.49078 7.16668Z" fill="#222222"/>
<path fill-rule="evenodd" clip-rule="evenodd" d="M2.36108 9.55786C2.68208 9.68167 2.98781 9.80021 3.27827 9.91346C3.71395 10.0833 3.86579 10.0834 4.09928 10.3051C4.25494 10.4528 4.48987 10.6508 4.80407 10.8989C4.36661 10.8209 4.04355 10.7333 3.8349 10.6362C3.52193 10.4905 3.49077 10.4682 3.23282 10.3051C2.97487 10.142 2.86189 10.042 2.66184 9.86794C2.52848 9.75192 2.42822 9.64856 2.36108 9.55786Z" fill="#414141"/>
<path fill-rule="evenodd" clip-rule="evenodd" d="M14.3685 21.1432C13.9519 20.2204 13.5277 19.3433 13.0958 18.5122C12.664 17.681 11.8984 16.225 10.7992 14.1441L9.17224 11.0767L10.9949 20.6508L13.5467 21.1432H14.3685Z" fill="#414141"/>
<path fill-rule="evenodd" clip-rule="evenodd" d="M17.2377 20.1578C16.5461 19.3256 15.579 18.0505 14.3365 16.3324C13.0939 14.6142 12.4314 13.6701 12.349 13.4999L12.1459 13.0325C12.0444 12.7989 11.966 12.5559 11.9116 12.3071L11.9085 12.2931C11.8565 12.0547 11.8445 11.8092 11.8731 11.5669C11.9017 11.3242 11.9666 11.0871 12.0655 10.8636L12.5549 9.75732L11.42 11.5721L15.3228 20.9665C15.5175 20.9364 15.8342 20.8281 16.2729 20.6416C16.7117 20.4551 17.0333 20.2938 17.2377 20.1578Z" fill="#414141"/>
<path fill-rule="evenodd" clip-rule="evenodd" d="M12.5455 9.77515C12.5497 9.97981 12.6511 10.231 12.8497 10.5289C13.1475 10.9756 14.2248 12.3631 14.6104 12.7334C14.8675 12.9802 15.2567 13.1914 15.778 13.367C15.6512 13.3462 15.5713 13.3357 15.5384 13.3357C15.4593 13.3357 15.3719 13.3538 15.2654 13.3705C15.032 13.4072 14.983 13.3891 14.7158 13.3005C14.4486 13.2118 13.9139 12.5937 13.3665 11.9654C12.819 11.3371 12.748 11.1984 12.6685 10.8922C12.6155 10.688 12.5745 10.3156 12.5455 9.77515Z" fill="#414141"/>
<path fill-rule="evenodd" clip-rule="evenodd" d="M17.5873 13.2104L14.8192 11.0278L15.3147 11.1832L17.5873 13.2104Z" fill="#414141"/>
<path fill-rule="evenodd" clip-rule="evenodd" d="M16.6309 5.12463L16.0161 3.02637C15.9838 3.03885 15.9513 3.05397 15.9186 3.07172C15.8858 3.08946 15.8604 3.09421 15.8422 3.08596C15.8346 3.21954 15.8346 3.38192 15.8422 3.5731C15.8498 3.76428 15.8638 3.95382 15.8842 4.1417C15.9719 4.33507 16.0958 4.53928 16.2559 4.75432C16.416 4.96936 16.541 5.0928 16.6309 5.12463Z" fill="#414141"/>
<path fill-rule="evenodd" clip-rule="evenodd" d="M15.7703 6.25439L17.4914 9.04605L16.0414 6.41578L15.7703 6.25439Z" fill="#414141"/>
<path fill-rule="evenodd" clip-rule="evenodd" d="M20.1393 13.699C20.3189 13.9984 20.4292 14.2044 20.4703 14.3168C20.5113 14.4292 20.5113 14.5335 20.4703 14.6295" fill="#414141"/>
<path d="M15.5334 5.30978C16.1908 5.65159 16.4744 5.56188 17.0103 5.59795C17.6342 5.63995 18.2089 6.01468 18.2089 6.01468C18.2089 6.01468 17.7159 5.90744 17.3291 5.92485C16.2693 5.97256 15.5227 6.30659 14.4758 6.0689C12.9463 5.7216 14.4752 4.75958 15.5334 5.30978Z" fill="#222222"/>
<path d="M15.0038 5.97928C15.6613 5.63747 15.9448 5.72718 16.4808 5.69111C17.1047 5.64912 17.6794 5.27438 17.6794 5.27438C17.6794 5.27438 17.1863 5.38163 16.7995 5.36421C15.7398 5.3165 14.9932 4.98248 13.9463 5.22017C12.4168 5.56747 13.9456 6.52949 15.0038 5.97928Z" fill="#222222"/>
<path d="M16.526 6.33366C17.0243 6.71295 18.0992 6.33366 18.0992 6.33366C18.0992 6.33366 17.6474 6.24891 17.3669 5.98097C17.0793 5.7063 16.4992 5.70661 16.2766 5.44195C15.9042 4.99925 16.0979 6.00783 16.526 6.33366Z" fill="#222222"/>
</svg>