<svg viewBox="0 0 24 24" fill="none" xmlns="http://www.w3.org/2000/svg">
<path d="M22.1606 12.0402C22.1606 6.49513 17.6655 2 12.1205 2C6.57546 2 2.08032 6.49513 2.08032 12.0402C2.08032 17.5852 6.57546 22.0803 12.1205 22.0803C17.6655 22.0803 22.1606 17.5852 22.1606 12.0402Z" fill="black"/>
<path d="M9.6104 7.42163H8.10437V15.0235H9.6104V7.42163Z" fill="white"/>
<path d="M15.6344 7.42163H14.1284V12.9963H15.6344V7.42163Z" fill="white"/>
<path d="M17.1405 12.9963H15.6345V14.5167H17.1405V12.9963Z" fill="white"/>
<path d="M14.1285 15.0234H12.6224V16.5438H14.1285V15.0234Z" fill="white"/>
<path d="M11.1164 15.0234H9.61035V16.5438H11.1164V15.0234Z" fill="white"/>
<path d="M12.6225 16.5439H11.1165V18.0643H12.6225V16.5439Z" fill="white"/>
</svg>