<svg width="24" height="24" viewBox="0 0 24 24" fill="none" xmlns="http://www.w3.org/2000/svg">
<path fill-rule="evenodd" clip-rule="evenodd" d="M20.5081 15.0005L20.0723 15.3314L20.1473 15.8747C20.2973 16.9581 19.9722 18.0507 19.2563 18.874C18.4246 19.8291 17.1894 20.3166 15.8951 20.1374L15.3517 20.0641L15.0208 20.5016C14.2999 21.4541 13.2022 22 12.0071 22C10.8169 22.0008 9.72014 21.4575 9.00005 20.5091L8.66751 20.0724L8.12494 20.1483C6.82811 20.3258 5.59046 19.8432 4.75785 18.8882C4.0411 18.0673 3.71439 16.9756 3.86191 15.8947L3.93608 15.3522L3.49936 15.0214C2.54758 14.3022 2.00168 13.2055 2.00001 12.0129C1.99834 10.8204 2.54174 9.72199 3.49103 9.00029L3.92775 8.66778L3.85274 8.12525C3.70272 7.04271 4.02776 5.94933 4.74452 5.12596C5.57545 4.17176 6.81811 3.68424 8.1041 3.86258L8.64917 3.93675L8.97921 3.49923C9.6993 2.54669 10.7978 2 11.9929 2C13.1831 2 14.2799 2.54336 15 3.4909L15.3317 3.92841L15.8742 3.85258C17.1694 3.67507 18.4079 4.15676 19.2413 5.11263C19.9581 5.93266 20.2848 7.02354 20.1381 8.10525L20.0639 8.64861L20.5015 8.97946C21.4516 9.69865 21.9983 10.7954 22 11.9879C22.0008 13.1805 21.4574 14.278 20.5081 15.0005ZM19.4955 10.3095L18.6696 9.68365C18.4287 9.50197 18.3054 9.20446 18.3462 8.90612L18.4862 7.88024C18.5696 7.26688 18.3929 6.67352 17.9862 6.2085C17.5178 5.67265 16.8185 5.40347 16.1043 5.50431L15.0783 5.64598C14.7799 5.68765 14.4824 5.56431 14.299 5.3243L13.6723 4.5001C13.2706 3.97008 12.6572 3.66673 11.9929 3.66673C11.3245 3.66673 10.7111 3.97174 10.3094 4.50427L9.68345 5.33097C9.5026 5.57098 9.20339 5.69681 8.90669 5.65348L7.8799 5.51347C7.16481 5.41514 6.46889 5.68515 6.00133 6.221C5.59545 6.68686 5.41876 7.28188 5.50377 7.89607L5.64545 8.92195C5.68712 9.21946 5.56461 9.51697 5.32541 9.69948L4.50031 10.327C3.96941 10.7304 3.66604 11.3446 3.66687 12.0112C3.66771 12.6771 3.97274 13.2896 4.50364 13.6913L5.33041 14.3163C5.57128 14.498 5.69462 14.7947 5.65379 15.0939L5.51377 16.1197C5.43042 16.7339 5.60795 17.3273 6.013 17.7915C6.48056 18.3282 7.17898 18.5957 7.8949 18.4965L8.92169 18.354C8.96003 18.349 8.99754 18.3465 9.03587 18.3465C9.29424 18.3465 9.54094 18.4665 9.69929 18.6757L10.3269 19.4999C10.7294 20.0299 11.342 20.3341 12.0071 20.3341C12.6747 20.3341 13.2881 20.0282 13.6915 19.4957L14.3157 18.669C14.4974 18.4298 14.7999 18.3065 15.0933 18.3465L16.1193 18.4865C16.8318 18.5824 17.5303 18.3148 17.9987 17.779C18.4045 17.3131 18.5812 16.7181 18.4971 16.1039L18.3545 15.0789C18.3129 14.7805 18.4345 14.483 18.6746 14.3013L19.4988 13.6738C20.0297 13.2705 20.3339 12.6571 20.3331 11.9904C20.3323 11.3237 20.0264 10.7112 19.4955 10.3095ZM11.8071 15.0339C11.6562 15.2139 11.4387 15.3222 11.2045 15.3331C11.192 15.3331 11.1787 15.3339 11.167 15.3339C10.9461 15.3339 10.7336 15.2464 10.5777 15.0897L8.07743 12.5896C7.75156 12.2638 7.75156 11.7362 8.07743 11.4112C8.40331 11.0854 8.93004 11.0854 9.25591 11.4112L11.1103 13.2655L14.6933 8.96696C14.9883 8.61361 15.5125 8.56528 15.8676 8.86029C16.2201 9.15447 16.2685 9.68032 15.9742 10.0337L11.8071 15.0339Z" fill="#6B7084"/>
</svg>
