<svg width="24" height="24" viewBox="0 0 24 24" fill="none" xmlns="http://www.w3.org/2000/svg">
<g clip-path="url(#clip0_1265_20595)">
<path d="M12 24C18.6274 24 24 18.6274 24 12C24 5.37258 18.6274 0 12 0C5.37258 0 0 5.37258 0 12C0 18.6274 5.37258 24 12 24Z" fill="#FF9933"/>
<path d="M5.5 6.80005C6.2176 6.80135 6.93585 6.80135 7.6528 6.80005L9.01194 14.067C9.03339 14.1743 9.05939 14.2802 9.08734 14.3855C9.19394 13.963 9.26089 13.5314 9.34994 13.105L10.5875 6.80005L12.6701 6.8007C11.9064 10.2015 11.1426 13.6029 10.3776 17.0037H7.79254C7.0275 13.6049 6.26375 10.206 5.5 6.80655V6.80005ZM13.5041 10.0058C13.9571 9.43644 14.6812 9.17839 15.3793 9.13289C16.0683 9.08479 16.8106 9.14719 17.3943 9.55799C17.9111 9.91939 18.1945 10.5304 18.329 11.1381C18.4922 11.8999 18.5006 12.6825 18.5 13.4586H14.6845C14.6877 14.0326 14.652 14.6247 14.8437 15.1746C14.9367 15.445 15.1102 15.7141 15.3858 15.8123C15.6796 15.9078 16.0332 15.8454 16.2477 15.6088C16.5337 15.2851 16.5935 14.8314 16.6559 14.4161H18.3875C18.3485 15.1051 18.2211 15.8331 17.77 16.3745C17.3176 16.9374 16.5883 17.1675 15.898 17.1955C15.1479 17.2241 14.3335 17.122 13.7355 16.617C13.1797 16.1535 12.9373 15.419 12.8411 14.7151C12.7449 13.9045 12.7397 13.0842 12.7845 12.2698C12.845 11.4755 12.9886 10.6344 13.5034 10.0052L13.5041 10.0058ZM14.9822 10.8151C14.6871 11.2402 14.6793 11.7875 14.6845 12.2886H16.6553C16.6247 11.8122 16.628 11.3091 16.4135 10.8729C16.147 10.3347 15.3046 10.3328 14.9835 10.8157H14.9822V10.8151Z" fill="white"/>
</g>
<defs>
<clipPath id="clip0_1265_20595">
<rect width="24" height="24" fill="white"/>
</clipPath>
</defs>
</svg>
