<svg width="24" height="24" viewBox="0 0 24 24" fill="none" xmlns="http://www.w3.org/2000/svg">
<g clip-path="url(#clip0_1265_20591)">
<path d="M12 24C18.6274 24 24 18.6274 24 12C24 5.37258 18.6274 0 12 0C5.37258 0 0 5.37258 0 12C0 18.6274 5.37258 24 12 24Z" fill="#15BDFF"/>
<path d="M11.0877 17.5862L5.52758 6.25496C5.5073 6.21322 5.49795 6.16702 5.50038 6.12068C5.50281 6.07434 5.51695 6.02937 5.54148 5.98998C5.56601 5.95059 5.60013 5.91806 5.64064 5.89543C5.68116 5.8728 5.72675 5.86082 5.77315 5.8606H7.70022C7.8035 5.8606 7.90029 5.91838 7.94579 6.00939L12.0065 14.2297C12.3676 14.9665 13.4157 14.9665 13.7775 14.2297L17.8252 6.01589C17.8486 5.97094 17.8838 5.93327 17.9272 5.90703C17.9705 5.88078 18.0202 5.86697 18.0708 5.8671H18.3106C18.4529 5.8671 18.5432 6.01589 18.4789 6.13868L12.8595 17.5869C12.4977 18.3237 11.4503 18.3237 11.0877 17.5869V17.5862Z" fill="white"/>
</g>
<defs>
<clipPath id="clip0_1265_20591">
<rect width="24" height="24" fill="white"/>
</clipPath>
</defs>
</svg>
