<svg viewBox="0 0 24 24" fill="none" xmlns="http://www.w3.org/2000/svg">
<g clip-path="url(#clip0_1265_20587)">
<path d="M12 24C18.6274 24 24 18.6274 24 12C24 5.37258 18.6274 0 12 0C5.37258 0 0 5.37258 0 12C0 18.6274 5.37258 24 12 24Z" fill="#565656"/>
<path d="M8.8365 10.2424H6.8033V9.12505H8.4088L7.17705 5.90755L8.19365 5.5L10.5011 11.5236L13.4918 11.5431L15.8064 5.5L16.8237 5.90755L15.5913 9.12505H17.1968V10.243H15.1636L14.6624 11.5495L17.2 11.5658L17.1935 12.6832L14.236 12.6643L12 18.5L9.75365 12.6363L6.80005 12.6168L6.80655 11.5002L9.32465 11.5164L8.8365 10.2424ZM10.9295 12.6435L12 15.4372L13.0647 12.6571L10.9295 12.6435Z" fill="white"/>
</g>
<defs>
<clipPath id="clip0_1265_20587">
<rect width="24" height="24" fill="white"/>
</clipPath>
</defs>
</svg>