<svg width="24" height="24" viewBox="0 0 24 24" fill="none" xmlns="http://www.w3.org/2000/svg">
<g clip-path="url(#clip0_1265_20579)">
<path d="M12 24C18.6274 24 24 18.6274 24 12C24 5.37258 18.6274 0 12 0C5.37258 0 0 5.37258 0 12C0 18.6274 5.37258 24 12 24Z" fill="#338BE5"/>
<path d="M16.3095 11.9466C16.784 12.074 17.252 12.2216 17.6732 12.4809C17.8604 12.596 18.0352 12.7312 18.1932 12.8833C18.4272 13.1433 18.4116 13.4176 18.1984 13.6925C18.0112 13.9317 17.7564 14.0845 17.4853 14.2119C16.7989 14.5428 16.0709 14.7313 15.3273 14.8431C14.7234 14.9341 14.1098 14.9861 13.5008 15.0621C13.4721 15.0682 13.445 15.0799 13.4209 15.0965C13.3968 15.1132 13.3762 15.1344 13.3603 15.159C12.9339 15.7947 12.5127 16.431 12.0863 17.0674C12.0521 17.1094 12.0208 17.1537 11.9927 17.2C11.5424 16.5243 11.0967 15.8454 10.6556 15.1635C10.6371 15.1316 10.6105 15.105 10.5786 15.0863C10.5468 15.0676 10.5106 15.0575 10.4736 15.0569C9.25617 14.9705 8.05494 14.8125 6.90507 14.4004C6.54106 14.273 6.19266 14.115 5.89105 13.8758C5.8748 13.8602 5.854 13.8498 5.83905 13.8349C5.39704 13.4637 5.38599 13.0666 5.81305 12.6844C6.15105 12.3789 6.56706 12.206 6.99867 12.0734C7.43028 11.9408 7.86709 11.8446 8.30455 11.7328C8.32535 11.7276 8.34615 11.7276 8.38255 11.7172C7.44068 10.2767 6.50986 8.85125 5.55759 7.40562C5.61479 7.40042 5.65639 7.39522 5.6928 7.39522C6.28106 7.39002 6.86867 7.39522 7.45628 7.39002C7.49783 7.38752 7.53919 7.39728 7.57524 7.41808C7.6113 7.43888 7.64045 7.4698 7.65908 7.50702C9.08261 9.67806 10.5048 11.8498 11.9251 14.0234C11.946 14.0597 11.9704 14.0939 11.9979 14.1254C12.3255 13.6314 12.6427 13.1582 12.9547 12.6844C14.0988 10.9553 15.2434 9.22825 16.3881 7.50247C16.4297 7.44137 16.4609 7.39522 16.5545 7.39522C17.1733 7.40042 17.7928 7.40042 18.4116 7.40042C18.4408 7.40042 18.4701 7.40172 18.5 7.40562C17.5342 8.86284 16.5665 10.3189 15.597 11.7737C15.8421 11.8342 16.0761 11.8855 16.3101 11.9466H16.3095ZM7.38348 13.1686C7.50438 13.3032 7.64673 13.4189 7.80469 13.5092C8.4547 13.8557 9.17296 13.9824 9.91723 14.0942C9.90683 14.0591 9.90683 14.0435 9.90163 14.0338C9.47977 13.3968 9.06376 12.7559 8.64255 12.1195C8.62565 12.1029 8.60506 12.0906 8.58247 12.0834C8.55987 12.0763 8.53592 12.0746 8.51255 12.0786C8.26555 12.1598 8.02374 12.2567 7.78909 12.3691C7.63719 12.4528 7.50156 12.5631 7.38868 12.6948C7.32558 12.757 7.28964 12.8417 7.28866 12.9303C7.28769 13.0189 7.32177 13.1044 7.38348 13.168V13.1686ZM15.5762 13.7179C15.8597 13.6413 16.1191 13.4942 16.3303 13.2902C16.5389 13.0822 16.5389 12.8475 16.3303 12.6337C16.2787 12.5778 16.2193 12.5297 16.1541 12.4907C15.9305 12.3789 15.6965 12.2723 15.467 12.1605C15.389 12.1195 15.3422 12.1501 15.2954 12.2216C15.051 12.5986 14.8014 12.9691 14.5518 13.3415C14.3958 13.5755 14.2398 13.8147 14.0786 14.0591C14.12 14.0644 14.162 14.0644 14.2034 14.0591C14.661 13.9473 15.1238 13.8453 15.5762 13.7179ZM15.5814 6.7998L12.0187 12.4757L8.40855 6.7998H15.5814Z" fill="white"/>
</g>
<defs>
<clipPath id="clip0_1265_20579">
<rect width="24" height="24" fill="white"/>
</clipPath>
</defs>
</svg>
