<svg width="24" height="24" viewBox="0 0 24 24" fill="none" xmlns="http://www.w3.org/2000/svg">
<path fill-rule="evenodd" clip-rule="evenodd" d="M21.56 19.068C21.4367 19.1349 21.3017 19.1667 21.1667 19.1667C21.005 19.1667 20.8442 19.1199 20.7042 19.0271L17 16.5573V17.5001C17 18.4195 16.2525 19.1667 15.3333 19.1667H3.66667C2.7475 19.1667 2 18.4195 2 17.5001V6.66657C2 5.74803 2.7475 5 3.66667 5H15.3333C16.2525 5 17 5.74803 17 6.66657V7.61018L20.7042 5.14041C20.9592 4.96991 21.2892 4.9532 21.56 5.09862C21.8308 5.24405 22 5.52655 22 5.83328V18.3334C22 18.641 21.8308 18.9226 21.56 19.068ZM20.3334 7.39116L16.6292 9.86008C16.6076 9.87429 16.5826 9.87596 16.5601 9.8885C16.5101 9.91608 16.4584 9.93614 16.4017 9.95286C16.3484 9.96874 16.2976 9.9796 16.2434 9.98462C16.2167 9.98712 16.1934 10.0005 16.1667 10.0005C16.1384 10.0005 16.1142 9.98712 16.0859 9.98378C16.0301 9.97877 15.9784 9.9679 15.9251 9.95119C15.8726 9.93531 15.8242 9.91608 15.7776 9.89101C15.7317 9.86677 15.6909 9.83835 15.6501 9.80576C15.6051 9.76898 15.5659 9.7297 15.5292 9.68457C15.5126 9.66367 15.4884 9.65197 15.4734 9.62941C15.4592 9.60768 15.4567 9.58177 15.4451 9.5592C15.4176 9.50989 15.3984 9.45974 15.3817 9.40458C15.3651 9.34942 15.3534 9.29676 15.3484 9.2416C15.3459 9.21569 15.3334 9.19312 15.3334 9.16721V6.66653H3.66674V17.5318H15.3334V15.0002C15.3334 14.9743 15.3459 14.9517 15.3484 14.9258C15.3534 14.8698 15.3651 14.8172 15.3817 14.7628C15.3984 14.7077 15.4176 14.6575 15.4451 14.6074C15.4567 14.5848 15.4592 14.5597 15.4734 14.538C15.4884 14.5154 15.5126 14.5029 15.5301 14.482C15.5659 14.4377 15.6042 14.3993 15.6492 14.3625C15.6909 14.3291 15.7326 14.2998 15.7801 14.2747C15.8251 14.2505 15.8709 14.2321 15.9209 14.2162C15.9767 14.1987 16.0317 14.1878 16.0901 14.1828C16.1167 14.1795 16.1392 14.1669 16.1667 14.1669C16.1926 14.1669 16.2142 14.1795 16.2392 14.182C16.2959 14.187 16.3492 14.1978 16.4042 14.2146C16.4592 14.2313 16.5101 14.2513 16.5592 14.2789C16.5817 14.2906 16.6076 14.2923 16.6292 14.3073L20.3334 16.7763V7.39116Z" fill="#6B7084"/>
</svg>
