<svg width="24" height="24" viewBox="0 0 24 24" fill="none" xmlns="http://www.w3.org/2000/svg">
<path fill-rule="evenodd" clip-rule="evenodd" d="M20.5558 20.3333H3.44417C2.64833 20.3333 2 19.6883 2 18.895V6.7725C2 5.97917 2.64833 5.33333 3.44417 5.33333H9.5V2.83333C9.5 2.37333 9.87333 2 10.3333 2H13.6667C14.1267 2 14.5 2.37333 14.5 2.83333V5.33333H20.5558C21.3517 5.33333 22 5.97917 22 6.7725V18.895C22 19.6883 21.3517 20.3333 20.5558 20.3333ZM12.8333 3.66667H11.1667V7.00083H12.8333V3.66667ZM20.3333 7H14.5V7.83417C14.5 8.29417 14.1267 8.6675 13.6667 8.6675H10.3333C9.87333 8.6675 9.5 8.29417 9.5 7.83417V7H3.66667V18.6667H20.3333V7ZM5.8566 10.3925C6.28577 10.2233 6.7691 10.43 6.94077 10.8567L7.83327 13.0892L8.72577 10.8567C8.8966 10.43 9.38077 10.2208 9.80993 10.3925C10.2366 10.5642 10.4449 11.0492 10.2741 11.4767L8.60743 15.6425C8.47993 15.9592 8.1741 16.1667 7.83327 16.1667C7.49243 16.1667 7.1866 15.9592 7.0591 15.6425L5.39243 11.4767C5.2216 11.0492 5.42993 10.5642 5.8566 10.3925ZM12 10.3333C12.46 10.3333 12.8333 10.7067 12.8333 11.1667V15.3333C12.8333 15.7933 12.46 16.1667 12 16.1667C11.54 16.1667 11.1667 15.7933 11.1667 15.3333V11.1667C11.1667 10.7067 11.54 10.3333 12 10.3333ZM14.5 10.3333C14.5125 10.3333 14.5225 10.34 14.535 10.34C14.5467 10.34 14.5567 10.3333 14.5692 10.3333H16.5833C17.7317 10.3333 18.6667 11.2683 18.6667 12.4167C18.6667 13.5658 17.7317 14.5 16.5833 14.5H15.3333V15.3333C15.3333 15.7933 14.96 16.1667 14.5 16.1667C14.04 16.1667 13.6667 15.7933 13.6667 15.3333V11.1667C13.6667 10.7067 14.04 10.3333 14.5 10.3333ZM16.5833 12.8333C16.8133 12.8333 17 12.6467 17 12.4167C17 12.1867 16.8133 12 16.5833 12H15.3333V12.8333H16.5833Z" fill="#6B7084"/>
</svg>
