<svg viewBox="0 0 24 24" fill="none" xmlns="http://www.w3.org/2000/svg">
<path d="M12 23.9552C17.2566 23.9552 20.1775 23.9552 22.0914 22.0518C24 20.1485 24 17.2381 24 11.9973C24 6.75657 24 3.84621 22.0914 1.94287C20.1775 0.0447998 17.2566 0.0447998 12 0.0447998C6.74341 0.0447998 3.8225 0.0447998 1.90861 1.94814C0 3.85148 0 6.76185 0 12.0026C0 17.2434 0 20.1538 1.90861 22.0571C3.8225 23.9552 6.74341 23.9552 12 23.9552Z" fill="#EF3939"/>
<path d="M19.8032 7.57912C18.6538 5.57033 16.7293 4.00442 14.3093 3.35592C9.50615 2.07472 4.57118 4.91128 3.28471 9.69335C2.6362 12.0976 3.03691 14.5387 4.20738 16.5317C4.2232 16.558 4.23902 16.5897 4.26011 16.616L8.48858 23.9183C9.18981 23.9394 9.94903 23.9447 10.7663 23.9447H11.9578C14.2935 23.9447 16.1705 23.9447 17.7047 23.776C19.6186 23.5651 20.9895 23.0958 22.0492 22.0413C23.594 20.5018 23.8893 18.2979 23.9473 14.7285C21.4798 10.4684 19.8084 7.58439 19.8032 7.57912Z" fill="url(#paint0_linear_4868_17273)"/>
<path d="M18.3163 5.67571C14.8102 2.17483 9.12126 2.17483 5.60984 5.67571C2.10369 9.17659 2.10369 14.8497 5.60984 18.3453C9.11599 21.8462 14.8049 21.8462 18.3163 18.3453C21.8278 14.8444 21.8278 9.17131 18.3163 5.67571ZM17.7786 9.79346C16.297 12.3611 14.8155 14.9288 13.3339 17.5017C13.0597 17.9815 12.659 18.2662 12.1107 18.3084C11.4991 18.3506 11.0141 18.0922 10.703 17.565C9.76449 15.9569 8.83655 14.3383 7.90861 12.7249C7.34446 11.7442 6.77504 10.7636 6.21089 9.77764C5.64147 8.78643 6.28471 7.57905 7.42355 7.52105C8.0246 7.48942 8.48857 7.76885 8.79437 8.29082C9.21089 9.0026 9.62214 9.72492 10.0387 10.442C10.3392 10.9587 10.6292 11.4806 10.935 11.9868C11.3779 12.7302 12.0316 13.1467 12.9016 13.1994C14.13 13.2732 15.2742 12.3822 15.4218 11.0799C15.4323 10.985 15.4376 10.8848 15.4429 10.8374C15.4376 10.4156 15.3585 10.0571 15.1898 9.72492C14.7311 8.80752 15.2214 7.7794 16.2179 7.55796C17.0299 7.3787 17.8735 7.97448 17.9789 8.79697C18.0316 9.15022 17.9578 9.48239 17.7786 9.79346Z" fill="white"/>
<defs>
<linearGradient id="paint0_linear_4868_17273" x1="7.50245" y1="4.24121" x2="18.8765" y2="24.0838" gradientUnits="userSpaceOnUse">
<stop stop-opacity="0.2"/>
<stop offset="0.7908" stop-opacity="0.05"/>
</linearGradient>
</defs>
</svg>