<svg width="24" height="24" viewBox="0 0 24 24" fill="none" xmlns="http://www.w3.org/2000/svg">
<g clip-path="url(#clip0_1265_20575)">
<path d="M12 24C18.6274 24 24 18.6274 24 12C24 5.37258 18.6274 0 12 0C5.37258 0 0 5.37258 0 12C0 18.6274 5.37258 24 12 24Z" fill="#408AF1"/>
<path d="M16.5818 7.62979C16.6511 7.51205 16.7432 7.40938 16.8528 7.32783C16.9624 7.24629 17.0873 7.18751 17.2199 7.15498C17.3526 7.12245 17.4905 7.11681 17.6253 7.13841C17.7602 7.16001 17.8894 7.2084 18.0053 7.28074C18.4928 7.58624 18.6462 8.23624 18.3472 8.7348C17.2396 10.5795 15.9896 12.51 14.9477 13.9842C13.4267 16.1357 13.0971 16.8748 11.9999 16.8748C10.9027 16.8748 10.6557 16.2228 9.09116 13.9784C8.16165 12.6459 6.99619 10.8616 5.66563 8.75495C5.51659 8.51916 5.46546 8.23452 5.52313 7.96161C5.5808 7.6887 5.7427 7.44907 5.97439 7.29374C6.0885 7.2186 6.21651 7.1671 6.35086 7.14227C6.48521 7.11744 6.62317 7.11979 6.7566 7.14918C6.89002 7.17857 7.01621 7.2344 7.1277 7.31337C7.23918 7.39235 7.33371 7.49287 7.4057 7.60899C8.72065 9.6903 11.6912 14.0284 12.0084 14.4152C12.3399 14.0226 15.5002 9.4316 16.5818 7.62914V7.62979Z" fill="white"/>
</g>
<defs>
<clipPath id="clip0_1265_20575">
<rect width="24" height="24" fill="white"/>
</clipPath>
</defs>
</svg>
