<svg width="24" height="24" viewBox="0 0 24 24" fill="none" xmlns="http://www.w3.org/2000/svg">
<path fill-rule="evenodd" clip-rule="evenodd" d="M17.8333 16.3333H6.16667C3.86917 16.3333 2 14.4642 2 12.1667C2 9.86917 3.86917 8 6.16667 8C8.46417 8 10.3333 9.86917 10.3333 12.1667C10.3333 13.105 10.0175 13.9692 9.4925 14.6667H14.5083C13.9825 13.9692 13.6667 13.105 13.6667 12.1667C13.6667 9.86917 15.5358 8 17.8333 8C20.1308 8 22 9.86917 22 12.1667C22 14.4642 20.1308 16.3333 17.8333 16.3333ZM8.66667 12.1667C8.66667 10.7883 7.545 9.66667 6.16667 9.66667C4.78833 9.66667 3.66667 10.7883 3.66667 12.1667C3.66667 13.545 4.78833 14.6667 6.16667 14.6667C7.545 14.6667 8.66667 13.545 8.66667 12.1667ZM17.8333 9.66667C16.455 9.66667 15.3333 10.7883 15.3333 12.1667C15.3333 13.545 16.455 14.6667 17.8333 14.6667C19.2117 14.6667 20.3333 13.545 20.3333 12.1667C20.3333 10.7883 19.2117 9.66667 17.8333 9.66667Z" fill="#6B7084"/>
</svg>
