<svg viewBox="0 0 24 24" fill="none" xmlns="http://www.w3.org/2000/svg">
<path fill-rule="evenodd" clip-rule="evenodd" d="M17.2634 18.7891C17.1784 18.8166 17.0908 18.83 17.0058 18.83C16.6541 18.83 16.3266 18.606 16.2115 18.2541C16.0698 17.8162 16.3099 17.3456 16.7483 17.2035C18.8911 16.5098 20.3306 14.4862 20.3306 12.1668C20.3306 9.87576 18.8528 7.80206 16.7358 7.12337C16.2974 6.98211 16.0557 6.51321 16.1965 6.0744C16.3366 5.63642 16.805 5.39487 17.2467 5.53696C20.0905 6.44885 22 9.11348 22 12.1668C22 15.21 20.0964 17.8722 17.2634 18.7891ZM18.7037 12.1668C18.7037 14.0048 17.2051 15.5001 15.3639 15.5001C14.903 15.5001 14.5288 15.1273 14.5288 14.6667C14.5288 14.2062 14.903 13.8334 15.3639 13.8334C16.2849 13.8334 17.0334 13.0853 17.0334 12.1668C17.0334 11.2474 16.2849 10.4993 15.3639 10.4993C14.903 10.4993 14.5288 10.1265 14.5288 9.66596C14.5288 9.20625 14.903 8.83263 15.3639 8.83263C17.2051 8.83263 18.7037 10.3288 18.7037 12.1668ZM13.2019 21.2573C13.0902 21.3083 12.971 21.3333 12.8526 21.3333C12.6568 21.3333 12.4642 21.2648 12.3092 21.1327L6.69995 16.3334H3.66944C2.74846 16.3334 2 15.5862 2 14.6667V9.66596C2 8.74739 2.74846 8.00015 3.66944 8.00015H6.69995L12.3092 3.19997C12.5576 2.98934 12.9052 2.94003 13.2019 3.07627C13.4978 3.21251 13.6878 3.50756 13.6878 3.83353V20.5C13.6878 20.8251 13.4978 21.1202 13.2019 21.2573ZM12.0183 5.64478L7.55256 9.4662C7.52089 9.49295 7.48255 9.50214 7.44838 9.52387C7.3992 9.5548 7.35253 9.5874 7.29668 9.60829C7.24001 9.62919 7.18333 9.63504 7.12499 9.64256C7.08498 9.64841 7.04998 9.66597 7.00914 9.66597H3.66941V14.6667H7.00914C7.05164 14.6667 7.08748 14.6843 7.12832 14.691C7.18583 14.6985 7.24084 14.7044 7.29585 14.7244C7.35253 14.7453 7.3992 14.7779 7.44921 14.8097C7.48255 14.8306 7.52089 14.8406 7.55256 14.8673L12.0183 18.6879V5.64478Z" fill="currentColor"/>
</svg>