<svg width="24" height="24" viewBox="0 0 24 24" fill="none" xmlns="http://www.w3.org/2000/svg">
<path fill-rule="evenodd" clip-rule="evenodd" d="M19.8421 12.1666L21.7553 14.0773C22.0815 14.4033 22.0815 14.9307 21.7553 15.2559C21.5922 15.4189 21.3788 15.5008 21.1655 15.5008C20.9522 15.5008 20.738 15.4189 20.5749 15.2559L18.6617 13.3451L16.7477 15.2559C16.5845 15.4189 16.3712 15.5008 16.1579 15.5008C15.9446 15.5008 15.7312 15.4189 15.5681 15.2559C15.2419 14.9307 15.2419 14.4033 15.5681 14.0773L17.4813 12.1666L15.5681 10.2558C15.2419 9.92984 15.2419 9.40325 15.5681 9.07727C15.8935 8.75212 16.4222 8.75212 16.7477 9.07727L18.6617 10.988L20.5749 9.07727C20.9012 8.75212 21.429 8.75212 21.7553 9.07727C22.0815 9.40325 22.0815 9.92984 21.7553 10.2558L19.8421 12.1666ZM13.1982 21.2573C13.0861 21.3083 12.9673 21.3333 12.8493 21.3333C12.6536 21.3333 12.4603 21.2648 12.3056 21.1336L6.69811 16.3333H3.66893C2.74872 16.3333 2 15.586 2 14.6666V9.66654C2 8.7471 2.74872 7.99985 3.66893 7.99985H6.69894L12.3056 3.2004C12.554 2.98893 12.9012 2.94045 13.1982 3.07586C13.4935 3.2121 13.6834 3.50716 13.6834 3.83314V20.5C13.6834 20.826 13.4935 21.121 13.1982 21.2573ZM12.0454 5.48979L7.55058 9.46593C7.51963 9.49268 7.48115 9.50187 7.44769 9.5236C7.39749 9.55536 7.35065 9.58796 7.29376 9.60886C7.23855 9.62892 7.1825 9.63477 7.12561 9.64313C7.08546 9.64898 7.04948 9.66653 7.00682 9.66653H3.66896V14.6666H7.00682C7.04865 14.6666 7.08378 14.685 7.1231 14.69C7.18166 14.6983 7.23855 14.7042 7.2946 14.7251C7.35065 14.7452 7.39666 14.7778 7.44601 14.8095C7.48031 14.8304 7.51879 14.8404 7.55058 14.8672L12.0454 18.8634V5.48979Z" fill="#6B7084"/>
</svg>
