<svg viewBox="0 0 24 24" fill="none" xmlns="http://www.w3.org/2000/svg">
<g clip-path="url(#clip0_1265_20571)">
<path d="M12 24C18.6274 24 24 18.6274 24 12C24 5.37258 18.6274 0 12 0C5.37258 0 0 5.37258 0 12C0 18.6274 5.37258 24 12 24Z" fill="#418BCA"/>
<path d="M14.8433 6H18L12 18L6 6H9.136L12.0207 12.0753L14.8433 6ZM12 9.306C11.4747 9.306 11.0487 8.86867 11.0487 8.32933C11.0487 7.79 11.4747 7.352 12 7.352C12.5253 7.352 12.9513 7.79 12.9513 8.32933C12.9513 8.86867 12.5247 9.306 12 9.306ZM16.31 11.9993C16.8353 11.9993 17.2613 12.4373 17.2607 12.9767C17.2607 13.5167 16.8353 13.9533 16.31 13.9533C15.7847 13.9533 15.3587 13.516 15.3587 12.9767C15.3587 12.4373 15.7847 12 16.31 12V11.9993Z" fill="white"/>
</g>
<defs>
<clipPath id="clip0_1265_20571">
<rect width="24" height="24" fill="white"/>
</clipPath>
</defs>
</svg>