<svg width="24" height="24" viewBox="0 0 24 24" fill="none" xmlns="http://www.w3.org/2000/svg">
<g clip-path="url(#clip0_1265_20565)">
<path d="M12 24C18.6274 24 24 18.6274 24 12C24 5.37258 18.6274 0 12 0C5.37258 0 0 5.37258 0 12C0 18.6274 5.37258 24 12 24Z" fill="#FFB500"/>
<path d="M18.4515 11.202C18.2947 9.93817 17.7705 8.74814 16.944 7.77929C16.3657 7.09929 15.6522 6.54713 14.8488 6.15796C13.7705 5.63139 12.5673 5.41422 11.373 5.53057C10.2654 5.63768 9.20385 6.02741 8.29008 6.66241C7.37631 7.29742 6.64091 8.15643 6.15433 9.15715C5.57374 10.3521 5.37242 11.6961 5.57738 13.0088C5.77349 14.2629 6.33348 15.4319 7.18786 16.3707C8.40521 17.7274 10.2196 18.5207 12.0421 18.4996C12.9595 18.4937 13.8653 18.2937 14.6999 17.9128C15.5345 17.5318 16.279 16.9784 16.8844 16.2891C17.4899 15.5998 17.9425 14.7901 18.2126 13.9133C18.4827 13.0365 18.5641 12.1125 18.4515 11.202ZM16.4701 9.79755C16.4404 9.83898 16.4146 9.88309 16.3931 9.92931L13.5311 15.9581C13.3939 16.246 13.2562 16.5372 13.1 16.8148C12.3913 16.8094 11.6826 16.8121 10.9733 16.8121C9.84381 14.4869 8.71972 12.1596 7.5875 9.83713C7.56418 9.79212 7.54032 9.74441 7.51646 9.6994C7.5349 9.68638 7.5772 9.66253 7.59563 9.65168C8.03757 9.10184 8.48492 8.55416 8.92903 8.00378C8.98434 7.93275 9.04832 7.86388 9.11122 7.80044C9.14051 7.84761 9.16925 7.89533 9.1931 7.94847C9.43929 8.51458 9.69035 9.0834 9.94141 9.64897C10.1963 9.64897 10.4495 9.65439 10.706 9.63812C10.7987 9.72597 10.8491 9.84255 10.886 9.96131C10.9337 9.83984 10.9522 9.71024 10.9576 9.57793C11.0395 8.81878 11.053 8.0515 11.1349 7.29235C11.1479 7.12859 11.3941 7.12859 11.4152 7.28692C11.4944 8.00649 11.5129 8.73419 11.5714 9.45593C11.5823 9.67283 11.5899 9.88973 11.6376 10.1012C11.746 9.95859 11.7113 9.70753 11.9098 9.64897C12.0741 9.59366 12.259 9.68638 12.4152 9.58824C12.6293 9.45864 12.7085 9.20487 12.8435 9.0064C12.9205 8.8768 13.0973 8.78408 13.2405 8.85837C13.3831 8.91368 13.4438 9.06713 13.5181 9.18914C13.6027 9.32904 13.6797 9.48521 13.8169 9.57793C13.9389 9.63053 14.0761 9.63867 14.2084 9.63596C14.4757 9.03297 14.7506 8.43216 15.0234 7.83189C15.4995 8.42999 15.949 9.04653 16.4251 9.64409C16.4967 9.67554 16.5097 9.72868 16.4701 9.79755Z" fill="white"/>
<path d="M13.124 9.04084C12.9098 9.274 12.8333 9.64924 12.5129 9.76854C12.3491 9.8477 12.1506 9.78155 11.9869 9.84282C11.8437 10.1232 11.8622 10.4534 11.7537 10.7446C11.68 10.8823 11.4576 10.8135 11.4576 10.6627C11.3655 9.87156 11.3573 9.07283 11.2727 8.28223C11.1827 8.99366 11.1589 9.71268 11.0477 10.4187C11.0477 10.602 10.7592 10.6307 10.7332 10.4485C10.6773 10.2425 10.6643 10.0256 10.5608 9.83198C10.3818 9.82934 10.2029 9.82934 10.0239 9.83198C10.6985 11.3611 11.3676 12.8897 12.0422 14.4189C12.7249 12.8897 13.4309 11.3714 14.1082 9.84011L14.1109 9.83469C13.9336 9.813 13.7405 9.79511 13.5925 9.68394C13.3864 9.51205 13.3067 9.23659 13.124 9.04084Z" fill="white"/>
</g>
<defs>
<clipPath id="clip0_1265_20565">
<rect width="24" height="24" fill="white"/>
</clipPath>
</defs>
</svg>
