<svg viewBox="0 0 24 24" fill="none" xmlns="http://www.w3.org/2000/svg">
<g clip-path="url(#clip0_1265_20561)">
<path d="M12 24C18.6274 24 24 18.6274 24 12C24 5.37258 18.6274 0 12 0C5.37258 0 0 5.37258 0 12C0 18.6274 5.37258 24 12 24Z" fill="#048657"/>
<path fill-rule="evenodd" clip-rule="evenodd" d="M21.9915 5.35164C21.4316 4.51188 20.7686 3.74669 20.0207 3.07417L11.5467 13.9733L9.19132 11.0371H5.35793L4.28052 12.2363L6.28506 12.2358L11.0704 18.2799C11.2301 18.4268 11.3887 18.5002 11.5467 18.5002C11.7042 18.5002 11.8545 18.4268 11.9976 18.2799L21.9915 5.35164Z" fill="white"/>
</g>
<defs>
<clipPath id="clip0_1265_20561">
<rect width="24" height="24" fill="white"/>
</clipPath>
</defs>
</svg>