<svg viewBox="0 0 24 24" fill="none" xmlns="http://www.w3.org/2000/svg">
<path fill-rule="evenodd" clip-rule="evenodd" d="M21.1304 17.7826H18.5217C18.0409 17.7826 17.6522 17.393 17.6522 16.913C17.6522 16.433 18.0409 16.0435 18.5217 16.0435H21.1304C21.6113 16.0435 22 16.433 22 16.913C22 17.393 21.6113 17.7826 21.1304 17.7826ZM21.1304 15.1739H18.5217C18.0409 15.1739 17.6522 14.7843 17.6522 14.3043C17.6522 13.8243 18.0409 13.4348 18.5217 13.4348H21.1304C21.6113 13.4348 22 13.8243 22 14.3043C22 14.7843 21.6113 15.1739 21.1304 15.1739ZM21.1304 12.5652H18.5217C18.0409 12.5652 17.6522 12.1757 17.6522 11.6957C17.6522 11.2157 18.0409 10.8261 18.5217 10.8261H21.1304C21.6113 10.8261 22 11.2157 22 11.6957C22 12.1757 21.6113 12.5652 21.1304 12.5652ZM21.1304 9.95652H18.5217C18.0409 9.95652 17.6522 9.56696 17.6522 9.08696C17.6522 8.60696 18.0409 8.21739 18.5217 8.21739H21.1304C21.6113 8.21739 22 8.60696 22 9.08696C22 9.56696 21.6113 9.95652 21.1304 9.95652ZM21.1304 7.34783H18.5217C18.0409 7.34783 17.6522 6.95826 17.6522 6.47826C17.6522 5.99826 18.0409 5.6087 18.5217 5.6087H21.1304C21.6113 5.6087 22 5.99826 22 6.47826C22 6.95826 21.6113 7.34783 21.1304 7.34783ZM15.913 20.3913H13.3043C12.8235 20.3913 12.4348 20.0017 12.4348 19.5217C12.4348 19.0417 12.8235 18.6522 13.3043 18.6522H15.913C16.3939 18.6522 16.7826 19.0417 16.7826 19.5217C16.7826 20.0017 16.3939 20.3913 15.913 20.3913ZM15.913 17.7826H13.3043C12.8235 17.7826 12.4348 17.393 12.4348 16.913C12.4348 16.433 12.8235 16.0435 13.3043 16.0435H15.913C16.3939 16.0435 16.7826 16.433 16.7826 16.913C16.7826 17.393 16.3939 17.7826 15.913 17.7826ZM15.913 15.1739H13.3043C12.8235 15.1739 12.4348 14.7843 12.4348 14.3043C12.4348 13.8243 12.8235 13.4348 13.3043 13.4348H15.913C16.3939 13.4348 16.7826 13.8243 16.7826 14.3043C16.7826 14.7843 16.3939 15.1739 15.913 15.1739ZM10.6957 20.3913H8.08696C7.60609 20.3913 7.21739 20.0017 7.21739 19.5217C7.21739 19.0417 7.60609 18.6522 8.08696 18.6522H10.6957C11.1765 18.6522 11.5652 19.0417 11.5652 19.5217C11.5652 20.0017 11.1765 20.3913 10.6957 20.3913ZM10.6957 17.7826H8.08696C7.60609 17.7826 7.21739 17.393 7.21739 16.913C7.21739 16.433 7.60609 16.0435 8.08696 16.0435H10.6957C11.1765 16.0435 11.5652 16.433 11.5652 16.913C11.5652 17.393 11.1765 17.7826 10.6957 17.7826ZM10.6957 15.1739H8.08696C7.60609 15.1739 7.21739 14.7843 7.21739 14.3043C7.21739 13.8243 7.60609 13.4348 8.08696 13.4348H10.6957C11.1765 13.4348 11.5652 13.8243 11.5652 14.3043C11.5652 14.7843 11.1765 15.1739 10.6957 15.1739ZM10.6957 12.5652H8.08696C7.60609 12.5652 7.21739 12.1757 7.21739 11.6957C7.21739 11.2157 7.60609 10.8261 8.08696 10.8261H10.6957C11.1765 10.8261 11.5652 11.2157 11.5652 11.6957C11.5652 12.1757 11.1765 12.5652 10.6957 12.5652ZM10.6957 9.95652H8.08696C7.60609 9.95652 7.21739 9.56696 7.21739 9.08696C7.21739 8.60696 7.60609 8.21739 8.08696 8.21739H10.6957C11.1765 8.21739 11.5652 8.60696 11.5652 9.08696C11.5652 9.56696 11.1765 9.95652 10.6957 9.95652ZM10.6957 7.34783H8.08696C7.60609 7.34783 7.21739 6.95826 7.21739 6.47826C7.21739 5.99826 7.60609 5.6087 8.08696 5.6087H10.6957C11.1765 5.6087 11.5652 5.99826 11.5652 6.47826C11.5652 6.95826 11.1765 7.34783 10.6957 7.34783ZM10.6957 4.73913H8.08696C7.60609 4.73913 7.21739 4.34957 7.21739 3.86957C7.21739 3.38957 7.60609 3 8.08696 3H10.6957C11.1765 3 11.5652 3.38957 11.5652 3.86957C11.5652 4.34957 11.1765 4.73913 10.6957 4.73913ZM5.47826 20.3913H2.86957C2.3887 20.3913 2 20.0017 2 19.5217C2 19.0417 2.3887 18.6522 2.86957 18.6522H5.47826C5.95913 18.6522 6.34783 19.0417 6.34783 19.5217C6.34783 20.0017 5.95913 20.3913 5.47826 20.3913ZM5.47826 17.7826H2.86957C2.3887 17.7826 2 17.393 2 16.913C2 16.433 2.3887 16.0435 2.86957 16.0435H5.47826C5.95913 16.0435 6.34783 16.433 6.34783 16.913C6.34783 17.393 5.95913 17.7826 5.47826 17.7826ZM5.47826 15.1739H2.86957C2.3887 15.1739 2 14.7843 2 14.3043C2 13.8243 2.3887 13.4348 2.86957 13.4348H5.47826C5.95913 13.4348 6.34783 13.8243 6.34783 14.3043C6.34783 14.7843 5.95913 15.1739 5.47826 15.1739ZM5.47826 12.5652H2.86957C2.3887 12.5652 2 12.1757 2 11.6957C2 11.2157 2.3887 10.8261 2.86957 10.8261H5.47826C5.95913 10.8261 6.34783 11.2157 6.34783 11.6957C6.34783 12.1757 5.95913 12.5652 5.47826 12.5652ZM5.47826 9.95652H2.86957C2.3887 9.95652 2 9.56696 2 9.08696C2 8.60696 2.3887 8.21739 2.86957 8.21739H5.47826C5.95913 8.21739 6.34783 8.60696 6.34783 9.08696C6.34783 9.56696 5.95913 9.95652 5.47826 9.95652ZM18.5217 18.6522H21.1304C21.6113 18.6522 22 19.0417 22 19.5217C22 20.0017 21.6113 20.3913 21.1304 20.3913H18.5217C18.0409 20.3913 17.6522 20.0017 17.6522 19.5217C17.6522 19.0417 18.0409 18.6522 18.5217 18.6522Z" fill="currentColor"/>
</svg>