<svg width="24" height="24" viewBox="0 0 24 24" fill="none" xmlns="http://www.w3.org/2000/svg">
<g clip-path="url(#clip0_1265_20551)">
<path d="M12 24C18.6274 24 24 18.6274 24 12C24 5.37258 18.6274 0 12 0C5.37258 0 0 5.37258 0 12C0 18.6274 5.37258 24 12 24Z" fill="#399B32"/>
<path d="M16.1229 6.02744C16.0473 6.33124 16.0606 6.72044 16.1446 6.75544C16.2286 6.79114 16.44 6.59024 16.5639 6.36204C16.6829 6.15204 16.7886 6.08974 16.9349 6.14364C17.1288 6.21924 17.098 6.28644 16.7004 6.63014C16.37 6.91644 16.3035 7.01934 16.3924 7.10824C16.4449 7.16213 16.4841 7.15303 16.6738 7.05014C16.9118 6.92554 17.0448 6.93394 17.0448 7.07744C17.0448 7.14394 16.9566 7.19783 16.6346 7.32243C16.405 7.41203 16.1796 7.52823 16.1271 7.58633C16.0214 7.70253 15.8359 8.06933 15.6154 8.60973C15.4257 9.07872 15.2444 9.42312 15.1254 9.55682C15.0281 9.66392 14.702 9.73182 14.0139 9.78502C13.6919 9.81162 13.652 9.80742 13.6345 9.73112C13.5849 9.52312 13.5452 9.31288 13.5155 9.10113C13.5155 9.08783 13.6786 9.09203 13.8816 9.10602C14.2435 9.13262 14.6047 9.23062 14.7727 9.34682C14.9008 9.43642 14.9141 9.42312 14.9714 9.17252C15.0414 8.88693 15.1919 8.51173 15.4208 8.04693C15.593 7.70253 15.5979 7.67593 15.5797 7.34973C15.558 6.98784 15.4957 6.83174 15.2801 6.59444C15.2003 6.51044 15.152 6.41594 15.1653 6.38024C15.1766 6.3528 15.1855 6.32446 15.1919 6.29554C15.1919 6.28644 15.2311 6.27734 15.2759 6.27734C15.3284 6.27734 15.4208 6.35784 15.5048 6.47824C15.7386 6.80934 15.8093 6.74634 15.8093 6.19684C15.8093 5.94694 15.8268 5.83984 15.8842 5.77684C15.9724 5.67884 16.0431 5.67464 16.118 5.76354C16.1621 5.81744 16.1621 5.87554 16.1229 6.02744ZM12.6153 7.89923C12.6461 8.23033 12.7077 8.34583 12.9065 8.41723C12.9856 8.44873 13.0955 8.49423 13.1487 8.51173C13.2768 8.56493 13.3125 8.75673 13.449 10.0083C13.5946 11.3663 13.6254 11.5588 13.7626 11.9788C13.9698 12.6172 13.9516 13.3592 13.7094 14.1054C13.5855 14.4897 13.449 14.664 13.1669 14.8159C12.602 15.1148 12.0189 14.8964 11.5653 14.2167C11.2279 13.7267 11.1033 13.1177 11.2209 12.5325C11.2874 12.2196 11.3224 11.7464 11.2909 11.6295C11.2783 11.5721 11.1369 11.3936 10.978 11.2235C10.4838 10.7097 9.96298 9.78922 10.0652 9.62402C10.096 9.57922 10.1177 9.44062 10.1177 9.32022C10.1177 9.07453 10.0477 8.97583 9.73828 8.80223C9.53528 8.68603 9.52198 8.56983 9.68998 8.24783C9.78238 8.06023 9.83558 8.02033 10.299 7.78303C10.7708 7.54223 10.9829 7.47503 11.6843 7.34973C11.9755 7.29583 12.1869 7.30073 12.3458 7.36793C12.5313 7.44843 12.5838 7.55063 12.6153 7.89993V7.89923ZM8.44118 9.56592C8.44118 9.79342 8.51608 10.0174 8.56928 9.95932C8.59168 9.93692 8.63928 9.81162 8.68408 9.68212C8.75408 9.45812 8.88288 9.32512 8.97108 9.38252C9.04598 9.43152 9.01938 9.69052 8.92208 9.85152C8.78978 10.0706 8.78978 10.4864 8.92698 10.7636C9.06348 11.0317 9.34558 11.3264 9.46948 11.3264C9.54438 11.3215 9.63258 11.2144 9.87548 10.7993L10.1835 10.2764L10.2325 10.5893C10.2815 10.9421 10.2591 11.0492 10.0603 11.3936C9.83978 11.7821 9.59268 12.0859 9.50028 12.0859C9.39458 12.0859 9.15588 11.8493 8.95288 11.5455C8.87378 11.4195 8.65328 11.1787 8.46778 11.0044L8.12828 10.6873L7.92109 10.723C7.79426 10.7467 7.66576 10.7603 7.53679 10.7636C7.37789 10.7678 7.36039 10.7587 7.34779 10.6474C7.33379 10.5494 7.35619 10.5179 7.44859 10.4955C7.54919 10.4778 7.65197 10.4761 7.75309 10.4906C7.87629 10.5088 7.96938 10.4997 8.01768 10.464C8.09258 10.4101 8.08838 10.401 8.01348 10.3121C7.96939 10.2582 7.83709 10.1868 7.71319 10.1469C7.40519 10.0489 7.20569 9.91452 7.20569 9.81162C7.20569 9.67792 7.37369 9.64642 7.51019 9.75772C7.96519 10.1336 8.09258 10.1868 8.21228 10.0657C8.29628 9.98172 8.27388 9.82072 8.13248 9.53932C8.00929 9.28872 7.96448 9.05632 8.03098 8.98983C8.07508 8.94083 8.18988 8.95413 8.26898 9.01643C8.36208 9.09202 8.44118 9.33842 8.44118 9.56592ZM16.5107 13.5909C16.4008 13.7078 16.083 14.0788 15.8051 14.4134C14.984 15.4053 14.9008 15.5124 14.9358 15.5488C14.9707 15.5838 15.6679 15.2758 15.8268 15.1554C16.0256 14.9986 16.3868 14.615 16.4533 14.4848C16.4841 14.4316 16.5282 14.2664 16.5597 14.1229C16.6122 13.8548 16.7578 13.6497 16.8901 13.6497C16.9783 13.6497 17.0182 13.7526 16.9832 13.8863C16.9231 14.0374 16.8493 14.1826 16.7627 14.3203C16.6521 14.503 16.5772 14.6682 16.5856 14.6864C16.6297 14.7529 16.7935 14.7214 16.9832 14.6101C17.0931 14.5471 17.252 14.3826 17.371 14.2125C17.6048 13.8821 17.7637 13.7393 17.9051 13.7393C18.0241 13.7393 18.1655 13.8912 18.1347 13.9801C18.1207 14.0158 17.9177 14.1901 17.6888 14.3651C17.2919 14.664 17.168 14.8201 17.2387 14.9363C17.2786 15.0035 17.6447 14.9139 18.0332 14.7403C18.6947 14.4407 18.876 14.4225 18.9817 14.6234C19.0699 14.7893 18.8536 14.8915 18.0066 15.0791C17.7728 15.133 17.5166 15.2177 17.4375 15.2667L17.2919 15.3563L17.3934 15.441C17.4816 15.5131 17.574 15.5264 18.0108 15.5264C18.4035 15.5264 18.5498 15.5439 18.6156 15.5929C18.6996 15.6601 18.6947 15.665 18.5715 15.7763C18.4917 15.8435 18.4175 15.8792 18.3727 15.861C18.1788 15.7805 17.5215 15.6601 17.2828 15.6601C16.8551 15.6601 16.8194 15.8169 17.2079 15.9681C17.3843 16.0402 17.4508 16.1207 17.4151 16.2145C17.3759 16.3216 17.2695 16.3034 16.8859 16.1249C16.1089 15.763 15.9682 15.7448 15.0379 15.8659C14.5963 15.924 14.4682 15.9289 14.4199 15.8834C14.3226 15.8029 14.3401 15.7273 14.4773 15.6069C14.5872 15.5131 15.439 13.9269 15.3991 13.8912C15.3767 13.8688 14.5172 14.1768 13.8942 14.4358C13.8151 14.4673 13.8151 14.4631 13.8942 14.3378C14.1861 13.8597 15.0281 13.3228 16.0081 12.9882C16.5156 12.8139 16.5464 12.8097 16.7578 12.8139C16.8992 12.823 16.9391 12.8412 16.9475 12.9119C16.9615 13.0239 16.7844 13.3011 16.5107 13.5909ZM6.39439 15.1694C6.55749 15.4018 6.93269 15.7952 6.98939 15.7952C7.04749 15.7952 6.99849 15.406 6.89279 14.9993C6.79549 14.6283 6.78709 14.4498 6.86199 14.3742C6.91939 14.3161 7.11399 14.3028 7.19309 14.356C7.22389 14.3742 7.25889 14.629 7.28549 15.0133C7.33449 15.7147 7.36949 15.8442 7.54099 15.9555C7.65159 16.0318 7.65999 16.0318 7.71319 15.9604C7.73979 15.9198 7.77059 15.7546 7.77549 15.5894C7.78809 15.147 7.89449 14.9503 8.08348 15.0133C8.22978 15.0574 8.24308 15.2408 8.13248 15.5894C8.00439 15.9954 7.98269 16.2908 8.04009 16.6884C8.12408 17.2295 8.32708 17.7118 8.42788 17.6089C8.45028 17.5914 8.46288 16.988 8.46778 16.2733C8.47198 15.1561 8.48108 14.9328 8.54758 14.7228C8.67078 14.3378 8.69738 14.3203 9.18248 14.3203C9.98117 14.3203 11.4638 14.5352 11.6619 14.6773C11.874 14.8299 11.8299 14.8838 11.4106 15.0175C10.4971 15.2989 10.0519 15.3528 9.50028 15.2457C9.31968 15.2093 9.15588 15.1876 9.13838 15.1967C9.12088 15.2051 9.13838 15.308 9.17338 15.4242C9.28398 15.7861 9.25318 16.0094 8.99278 16.8046C8.85628 17.2113 8.72818 17.6852 8.71068 17.8546C8.69318 18.0247 8.64418 18.1941 8.61758 18.2298C8.50278 18.3684 8.37538 18.3061 8.16748 18.0156C7.90779 17.6586 7.49689 17.2652 7.25889 17.1399C7.15739 17.086 6.82209 16.988 6.51759 16.9159C5.9709 16.7913 5.7945 16.7059 5.8603 16.5995C5.8827 16.5589 5.9793 16.5547 6.19139 16.5722C6.57919 16.6128 6.61069 16.5589 6.35029 16.3132C6.06635 16.0611 5.74096 15.8601 5.3885 15.7189C5.0574 15.5852 5 15.5404 5 15.4333C5 15.3479 5.1232 15.2583 5.2429 15.2583C5.2821 15.2583 5.4592 15.3794 5.6307 15.5313C5.9926 15.8393 6.24389 15.987 6.38109 15.9653C6.63309 15.9289 6.33209 15.3437 5.8603 14.9503C5.6881 14.8075 5.5208 14.6332 5.4851 14.566C5.4277 14.454 5.4277 14.4414 5.5075 14.3833C5.58071 14.3407 5.66533 14.3219 5.7497 14.3294C5.8869 14.3434 5.9177 14.37 6.08079 14.6556C6.17809 14.8299 6.31879 15.0616 6.39439 15.1694ZM12.721 7.49743C12.9464 7.46243 12.994 7.64513 12.994 7.64093C13.1137 7.94893 13.043 8.33393 13.043 8.33393C12.8841 8.30243 12.7651 8.10573 12.7651 8.10573C12.6727 7.88663 12.721 7.49813 12.721 7.49813V7.49743ZM9.54018 8.77143C9.54018 8.77143 9.87968 8.95903 10.0078 9.15992C10.0078 9.15992 10.096 9.36992 10.0295 9.52182C10.0295 9.52182 9.67668 9.35662 9.50028 9.07943C9.50028 9.08433 9.38548 8.93663 9.54018 8.77143Z" fill="white"/>
</g>
<defs>
<clipPath id="clip0_1265_20551">
<rect width="24" height="24" fill="white"/>
</clipPath>
</defs>
</svg>
