<svg viewBox="0 0 24 24" fill="none" xmlns="http://www.w3.org/2000/svg">
<g clip-path="url(#clip0_1265_20547)">
<path d="M12 24C18.6274 24 24 18.6274 24 12C24 5.37258 18.6274 0 12 0C5.37258 0 0 5.37258 0 12C0 18.6274 5.37258 24 12 24Z" fill="#136AAD"/>
<path fill-rule="evenodd" clip-rule="evenodd" d="M6.42859 8.96048L8.07959 9.66V13.5928L12 11.2485L15.9582 13.5928V9.66L17.5714 8.96048V16.373L12 13.0827L6.42859 16.373V8.96048ZM6.61616 8.65776L12 5.5L17.4216 8.65776L15.9582 9.26319L12 6.97519L8.07959 9.26319L6.61616 8.65776ZM7.77935 15.9755L8.99887 15.276L12.0186 17.0248L15.0012 15.276L16.2578 15.9755L12.0186 18.5L7.77935 15.9755Z" fill="white"/>
</g>
<defs>
<clipPath id="clip0_1265_20547">
<rect width="24" height="24" fill="white"/>
</clipPath>
</defs>
</svg>