<svg viewBox="0 0 24 24" fill="none" xmlns="http://www.w3.org/2000/svg">
<path fill-rule="evenodd" clip-rule="evenodd" d="M14.5085 4.45141C13.394 2.51961 10.6059 2.51961 9.49145 4.45141L2.39186 16.7574C1.27798 18.6881 2.67141 21.1007 4.90041 21.1007H19.0996C21.3286 21.1007 22.722 18.6881 21.6081 16.7574L14.5085 4.45141ZM11.9999 8.15384C12.4248 8.15384 12.7692 8.49823 12.7692 8.92307V12.7692C12.7692 13.1941 12.4248 13.5385 11.9999 13.5385C11.5751 13.5385 11.2307 13.1941 11.2307 12.7692V8.92307C11.2307 8.49823 11.5751 8.15384 11.9999 8.15384ZM13.1 16.1C13.1 16.7075 12.6075 17.2 12 17.2C11.3925 17.2 10.9 16.7075 10.9 16.1C10.9 15.4925 11.3925 15 12 15C12.6075 15 13.1 15.4925 13.1 16.1Z" fill="currentColor"/>
</svg>