<svg viewBox="0 0 24 24" fill="none" xmlns="http://www.w3.org/2000/svg">
<path fill-rule="evenodd" clip-rule="evenodd" d="M10.7934 5.18047C11.3294 4.25126 12.6706 4.25126 13.2066 5.18047L20.2721 17.4272C20.8079 18.3559 20.1376 19.5164 19.0654 19.5164H4.93456C3.86239 19.5164 3.19214 18.3559 3.72793 17.4272L10.7934 5.18047ZM14.5381 4.41232C13.4105 2.45777 10.5895 2.45777 9.46191 4.41232L2.39647 16.6591C1.26947 18.6125 2.67931 21.0536 4.93456 21.0536H19.0654C21.3207 21.0536 22.7305 18.6125 21.6035 16.6591L14.5381 4.41232ZM11.9999 8.15384C12.4248 8.15384 12.7692 8.49823 12.7692 8.92307V12.7692C12.7692 13.1941 12.4248 13.5385 11.9999 13.5385C11.5751 13.5385 11.2307 13.1941 11.2307 12.7692V8.92307C11.2307 8.49823 11.5751 8.15384 11.9999 8.15384ZM13.1 16.1C13.1 16.7075 12.6075 17.2 12 17.2C11.3925 17.2 10.9 16.7075 10.9 16.1C10.9 15.4925 11.3925 15 12 15C12.6075 15 13.1 15.4925 13.1 16.1Z" fill="currentColor"/>
</svg>