<svg viewBox="0 0 24 24" fill="none" xmlns="http://www.w3.org/2000/svg">
<g clip-path="url(#clip0_1265_20539)">
<path d="M12 24C18.6274 24 24 18.6274 24 12C24 5.37258 18.6274 0 12 0C5.37258 0 0 5.37258 0 12C0 18.6274 5.37258 24 12 24Z" fill="#F89022"/>
<path fill-rule="evenodd" clip-rule="evenodd" d="M19.5 13.5387H18.0225L16.9744 12.6412L15.93 13.535H14.6813L14.0844 12.81H12.0269L12.5475 12.1669H13.5594L12.7887 11.2244L10.0981 14.5H8.85L9.62875 13.5488H8.32812L7.625 11.5775L6.9275 13.5338H5.60812L4.5 10.4631H5.5125L6.2575 12.5544L7 10.4725H8.25L8.99063 12.55L9.73063 10.4719H10.7463L9.62875 13.5488L9.8775 13.245L12.16 10.4669H13.4163L15.3156 12.7844L16.2294 11.9987L13.3375 9.5H14.8219L19.5 13.5387ZM18.0344 11.6812L17.3375 11.0838L18.0331 10.4913L19.4394 10.4925L18.0344 11.6812Z" fill="white"/>
</g>
<defs>
<clipPath id="clip0_1265_20539">
<rect width="24" height="24" fill="white"/>
</clipPath>
</defs>
</svg>