<svg viewBox="0 0 24 24" fill="none" xmlns="http://www.w3.org/2000/svg">
<g clip-path="url(#clip0_1265_20533)">
<path d="M12 24C18.6274 24 24 18.6274 24 12C24 5.37258 18.6274 0 12 0C5.37258 0 0 5.37258 0 12C0 18.6274 5.37258 24 12 24Z" fill="#201A2D"/>
<path d="M16.1002 8.22807L15.7432 8.58502C16.595 9.51645 17.0673 10.7329 17.0673 11.995C17.0673 13.2572 16.595 14.4736 15.7432 15.4051L16.1002 15.762C17.0474 14.7346 17.5733 13.3883 17.5733 11.9909C17.5733 10.5934 17.0474 9.24718 16.1002 8.21974V8.22807ZM8.59359 8.25901C9.52502 7.40727 10.7415 6.93494 12.0036 6.93494C13.2658 6.93494 14.4822 7.40727 15.4137 8.25901L15.7706 7.90206C14.7432 6.95484 13.3969 6.42896 11.9995 6.42896C10.602 6.42896 9.25575 6.95484 8.22831 7.90206L8.59359 8.25901ZM8.25925 15.4086C7.40853 14.4774 6.93682 13.2617 6.93682 12.0004C6.93682 10.7391 7.40853 9.52338 8.25925 8.59216L7.9023 8.23521C6.95509 9.26264 6.4292 10.6089 6.4292 12.0064C6.4292 13.4038 6.95509 14.7501 7.9023 15.7775L8.25925 15.4086ZM15.4089 15.7382C14.4775 16.59 13.261 17.0623 11.9989 17.0623C10.7367 17.0623 9.52026 16.59 8.58883 15.7382L8.23188 16.0952C9.25932 17.0424 10.6056 17.5683 12.003 17.5683C13.4005 17.5683 14.7467 17.0424 15.7742 16.0952L15.4089 15.7382ZM14.2536 10.8088C14.1822 10.064 13.5397 9.8141 12.727 9.73795V8.71233H12.0988V9.71892H11.5967V8.71233H10.9732V9.74509H9.69894V10.4173C9.69894 10.4173 10.163 10.409 10.1558 10.4173C10.2395 10.4081 10.3235 10.4318 10.3901 10.4833C10.4566 10.5348 10.5006 10.6101 10.5128 10.6934V13.5204C10.511 13.5498 10.5033 13.5785 10.4902 13.6049C10.4772 13.6312 10.4589 13.6547 10.4366 13.6739C10.4147 13.6934 10.3891 13.7084 10.3613 13.7178C10.3335 13.7272 10.3041 13.7309 10.2748 13.7286C10.2831 13.7358 9.81792 13.7286 9.81792 13.7286L9.69894 14.4794H10.9613V15.5288H11.5896V14.4949H12.0917V15.5241H12.7211V14.4865C13.7824 14.4223 14.5225 14.1605 14.6153 13.167C14.6902 12.3675 14.3143 12.0105 13.7134 11.8665C14.0787 11.6869 14.3047 11.3537 14.2536 10.8088ZM13.3731 13.0433C13.3731 13.8238 12.0357 13.7346 11.6098 13.7346V12.3496C12.0357 12.3508 13.3731 12.2283 13.3731 13.0433ZM13.0816 11.092C13.0816 11.8059 11.9655 11.719 11.611 11.719V10.4602C11.9655 10.4602 13.0816 10.3483 13.0816 11.092Z" fill="white"/>
<path d="M11.9988 18.5C8.40912 18.4994 5.5 15.5891 5.5 11.9994C5.5 8.41031 8.41031 5.5 11.9994 5.5C15.5891 5.5 18.4994 8.40912 18.5 11.9988C18.5002 12.8526 18.3321 13.6981 18.0054 14.4869C17.6788 15.2757 17.1999 15.9925 16.5962 16.5962C15.9925 17.1999 15.2757 17.6788 14.4869 18.0054C13.6981 18.3321 12.8526 18.5002 11.9988 18.5ZM11.9988 6.00686C8.6917 6.00924 6.01281 8.6917 6.014 11.9988C6.01519 15.3059 8.69705 17.986 12.0036 17.986C15.3107 17.986 17.9919 15.3059 17.9931 11.9988C17.9934 11.2116 17.8386 10.4321 17.5374 9.70487C17.2363 8.9776 16.7947 8.31682 16.238 7.76033C15.6813 7.20383 15.0203 6.76253 14.2929 6.46165C13.5655 6.16078 12.786 6.00624 11.9988 6.00686Z" fill="white"/>
</g>
<defs>
<clipPath id="clip0_1265_20533">
<rect width="24" height="24" fill="white"/>
</clipPath>
</defs>
</svg>