<svg viewBox="0 0 24 24" fill="none" xmlns="http://www.w3.org/2000/svg">
<path fill-rule="evenodd" clip-rule="evenodd" d="M12.0103 5.02514C12.4349 5.02514 12.8287 4.89367 13.1534 4.66923L17.0408 6.93383C17.0052 7.11122 16.9865 7.29472 16.9865 7.48258C16.9865 7.73024 17.019 7.97033 17.0798 8.19883L12.827 10.5589L12.827 7.69329C12.827 7.20268 12.4614 6.80496 12.0103 6.80496C11.5592 6.80496 11.1936 7.20268 11.1936 7.69329L11.1936 10.5279L6.94083 8.11615C6.98834 7.91265 7.01346 7.70055 7.01346 7.48258C7.01346 7.29472 6.9948 7.11123 6.95923 6.93385L10.8578 4.66271C11.1843 4.89112 11.5816 5.02514 12.0103 5.02514ZM14.0009 3.31122L17.7967 5.52253C18.2993 5.01846 18.9945 4.70654 19.7626 4.70654C21.2957 4.70654 22.5386 5.94942 22.5386 7.48258C22.5386 8.7756 21.6546 9.86216 20.4579 10.1708V14.4416C21.233 14.7226 21.7868 15.4654 21.7868 16.3375C21.7868 17.451 20.8841 18.3537 19.7706 18.3537C19.3445 18.3537 18.9492 18.2215 18.6236 17.9958L14.7863 20.2312L14.7863 20.224C14.7863 21.7571 13.5435 23 12.0103 23C10.4836 23 9.24469 21.7675 9.23433 20.2432L5.36958 17.9918C5.04464 18.2171 4.65014 18.3491 4.22481 18.3491C3.11384 18.3491 2.21323 17.4485 2.21323 16.3375C2.21323 15.4662 2.76717 14.7243 3.54208 14.4447V10.1708C2.34544 9.86217 1.4614 8.77561 1.4614 7.48258C1.4614 5.94942 2.70427 4.70654 4.23743 4.70654C5.00549 4.70654 5.70069 5.01846 6.20328 5.52253L10.0181 3.30019C10.0047 3.20625 9.99772 3.11022 9.99772 3.01257C9.99772 1.90106 10.8988 1 12.0103 1C13.1218 1 14.0229 1.90106 14.0229 3.01257C14.0229 3.11405 14.0153 3.21378 14.0009 3.31122ZM9.7104 18.6689C10.0613 18.151 10.5825 17.7579 11.1936 17.57L11.1936 13.3703L8.5177 14.8553C8.11802 15.0829 7.6095 14.9434 7.38187 14.5437C7.15425 14.1441 7.29373 13.6355 7.6934 13.4079L10.3226 11.9488L6.0911 9.54907C5.81812 9.7941 5.49633 9.98582 5.14208 10.1079V14.5468C5.79183 14.8802 6.2364 15.557 6.2364 16.3375C6.2364 16.4378 6.22907 16.5363 6.21492 16.6326L9.7104 18.6689ZM12.827 17.57C13.4348 17.7568 13.9536 18.1466 14.3044 18.6603L17.7766 16.6375C17.762 16.5396 17.7544 16.4395 17.7544 16.3375C17.7544 15.5525 18.2031 14.8723 18.8579 14.5393V10.1079C18.532 9.99557 18.2335 9.82427 17.9752 9.60673L13.7267 11.9645L16.2731 13.4085C16.6725 13.6368 16.8112 14.1455 16.583 14.5448C16.3548 14.9442 15.846 15.0829 15.4467 14.8547L12.827 13.3691L12.827 17.57ZM5.49615 7.48257C5.49615 8.17775 4.9326 8.74131 4.23742 8.74131C3.54224 8.74131 2.97868 8.17775 2.97868 7.48257C2.97868 6.78739 3.54224 6.22384 4.23742 6.22384C4.9326 6.22384 5.49615 6.78739 5.49615 7.48257ZM19.7626 8.74131C20.4578 8.74131 21.0213 8.17775 21.0213 7.48257C21.0213 6.78739 20.4578 6.22384 19.7626 6.22384C19.0674 6.22384 18.5038 6.78739 18.5038 7.48257C18.5038 8.17775 19.0674 8.74131 19.7626 8.74131ZM13.269 20.224C13.269 20.9192 12.7055 21.4827 12.0103 21.4827C11.3151 21.4827 10.7515 20.9192 10.7515 20.224C10.7515 19.5288 11.3151 18.9653 12.0103 18.9653C12.7055 18.9653 13.269 19.5288 13.269 20.224Z" fill="currentColor"/>
</svg>