<svg viewBox="0 0 24 24" fill="none" xmlns="http://www.w3.org/2000/svg">
<g clip-path="url(#clip0_1265_21835)">
<path fill-rule="evenodd" clip-rule="evenodd" d="M11.9531 0C14.3265 0 16.6466 0.703788 18.62 2.02236C20.5934 3.34094 22.1314 5.21509 23.0397 7.4078C23.9479 9.60051 24.1856 12.0133 23.7225 14.3411C23.2595 16.6689 22.1166 18.8071 20.4384 20.4853C18.7602 22.1635 16.622 23.3064 14.2942 23.7694C11.9664 24.2324 9.55364 23.9948 7.36092 23.0866C5.16821 22.1783 3.29407 20.6402 1.97549 18.6668C0.656913 16.6935 -0.046875 14.3734 -0.046875 12C-0.046875 8.8174 1.21741 5.76516 3.46784 3.51472C5.71828 1.26428 8.77053 0 11.9531 0V0Z" fill="#EDEFF1"/>
<path fill-rule="evenodd" clip-rule="evenodd" d="M11.9999 5.5L14.1762 8.75169L16.3525 12.0041L11.9999 14.197L7.64722 11.9959L9.82354 8.74342L11.9999 5.5ZM11.9999 15.0731L7.88861 12.8795L11.9999 18.4917L16.1111 12.8795L11.9999 15.0731Z" fill="#343434"/>
<path fill-rule="evenodd" clip-rule="evenodd" d="M12 5.5L14.1763 8.74342L16.3526 11.9959L12 10.3527V5.5Z" fill="#303030"/>
<path fill-rule="evenodd" clip-rule="evenodd" d="M12 15.0731L16.1195 12.8795L12 18.5V15.0731Z" fill="#303030"/>
<path fill-rule="evenodd" clip-rule="evenodd" d="M12 10.3528L16.3526 11.9959L12 14.1888V10.3528Z" fill="#131313"/>
<path fill-rule="evenodd" clip-rule="evenodd" d="M11.9999 5.5L9.82354 8.74342L7.64722 11.9959L11.9999 10.3527V5.5Z" fill="#818384"/>
<path fill-rule="evenodd" clip-rule="evenodd" d="M11.9999 15.0731L7.88867 12.8795L11.9999 18.5V15.0731Z" fill="#818384"/>
<path fill-rule="evenodd" clip-rule="evenodd" d="M11.9999 10.3528L7.64722 11.9959L11.9999 14.1888V10.3528Z" fill="#343434"/>
</g>
<defs>
<clipPath id="clip0_1265_21835">
<rect width="24" height="24" fill="white"/>
</clipPath>
</defs>
</svg>