<svg viewBox="0 0 24 24" fill="none" xmlns="http://www.w3.org/2000/svg">
<g clip-path="url(#clip0_1265_20529)">
<path d="M12 24C18.6274 24 24 18.6274 24 12C24 5.37258 18.6274 0 12 0C5.37258 0 0 5.37258 0 12C0 18.6274 5.37258 24 12 24Z" fill="#B80000"/>
<path d="M18.925 8.07046C19.0342 8.25596 19.0195 8.45056 18.911 8.64096C18.7486 8.89996 18.5988 9.16386 18.4441 9.42496C18.0199 10.1502 17.5957 10.8754 17.1701 11.6006C16.3207 13.0435 15.4704 14.486 14.6193 15.928C14.5716 16.0166 14.4992 16.0894 14.4108 16.1375C14.3224 16.1856 14.2219 16.2069 14.1216 16.1989C13.9067 16.1891 13.7541 16.0827 13.6526 15.8972C13.5483 15.7117 13.4398 15.5283 13.3306 15.3435C12.9736 14.7331 12.6152 14.1241 12.2575 13.5158C12.1777 13.3779 12.0958 13.2428 12.0041 13.0902C11.9145 13.2421 11.8298 13.3772 11.75 13.5158L10.6769 15.3428C10.5673 15.5262 10.46 15.711 10.3549 15.8972C10.2534 16.0827 10.1015 16.1891 9.88592 16.1989C9.78569 16.2064 9.68541 16.1848 9.59713 16.1368C9.50884 16.0887 9.43631 16.0162 9.38822 15.928C8.98432 15.2483 8.58532 14.5686 8.18422 13.8861C7.73375 13.1251 7.28482 12.3633 6.83742 11.6006C6.41392 10.8754 5.98902 10.1502 5.56342 9.42496C5.40942 9.16386 5.25682 8.89996 5.09722 8.64096C4.98102 8.45056 4.96422 8.25596 5.07272 8.07046C5.17912 7.88776 5.35062 7.79956 5.57112 7.79956C6.94872 7.80446 8.32702 7.81356 9.70462 7.80166C10.0525 7.79956 10.2604 7.93256 10.4228 8.22236C10.7707 8.84326 11.141 9.44876 11.4987 10.0627C11.6485 10.3217 11.7962 10.5828 11.9481 10.8418C11.96 10.8607 11.9796 10.8754 11.9971 10.8915C12.0158 10.8781 12.0319 10.8615 12.0447 10.8425C12.1952 10.5835 12.3422 10.3217 12.4948 10.0627C12.8546 9.44876 13.2228 8.84046 13.5707 8.22236C13.7324 7.93256 13.9403 7.79956 14.2882 7.80236C15.6665 7.81356 17.0441 7.80446 18.4224 7.79956C18.6471 7.79956 18.8186 7.88776 18.925 8.07046ZM11.3349 12.099C11.3484 12.0704 11.3556 12.0394 11.3559 12.0078C11.3563 11.9763 11.3498 11.9451 11.337 11.9163C11.267 11.7735 11.1746 11.6384 11.0927 11.4977C10.5999 10.6563 10.1064 9.81766 9.61572 8.97416C9.56532 8.88806 9.50722 8.85726 9.40572 8.85726C8.48732 8.86216 7.56822 8.86216 6.64982 8.86426C6.60642 8.86426 6.56302 8.87126 6.50002 8.87616C7.62142 10.7893 8.73302 12.6884 9.85792 14.6064C9.95452 14.4454 10.0364 14.3166 10.1141 14.1836C10.5243 13.4906 10.931 12.7955 11.3349 12.099ZM14.1419 14.6064C15.2654 12.6884 16.3777 10.7893 17.5019 8.87616C17.4368 8.87126 17.3955 8.86426 17.3521 8.86426C16.433 8.86216 15.5146 8.86216 14.5962 8.85726C14.4947 8.85726 14.4366 8.88806 14.3862 8.97346C13.8945 9.81522 13.4022 10.6566 12.9092 11.4977C12.8266 11.6356 12.737 11.7707 12.6642 11.9163C12.6511 11.9449 12.6443 11.9761 12.6443 12.0076C12.6443 12.0391 12.6511 12.0703 12.6642 12.099C13.0702 12.7948 13.4769 13.4899 13.8857 14.1836C13.9627 14.3166 14.0453 14.4475 14.1419 14.6064Z" fill="white"/>
</g>
<defs>
<clipPath id="clip0_1265_20529">
<rect width="24" height="24" fill="white"/>
</clipPath>
</defs>
</svg>