<svg width="24" height="24" viewBox="0 0 24 24" fill="none" xmlns="http://www.w3.org/2000/svg">
<g clip-path="url(#clip0_1265_20523)">
<path d="M12 24C18.6274 24 24 18.6274 24 12C24 5.37258 18.6274 0 12 0C5.37258 0 0 5.37258 0 12C0 18.6274 5.37258 24 12 24Z" fill="#5783CB"/>
<path d="M11.6259 5.5H12.2976C13.7642 5.5706 15.1596 6.1533 16.2409 7.14667C16.4251 7.26583 16.4251 7.55833 16.2084 7.63417C16.0243 7.6775 15.8834 7.515 15.7426 7.4175C14.5453 6.50572 13.0413 6.0934 11.5464 6.26713C10.0516 6.44085 8.68219 7.18712 7.72593 8.34917C6.94512 9.30948 6.49888 10.4983 6.45492 11.7352C6.41097 12.9721 6.77169 14.1896 7.48237 15.2029C8.19304 16.2162 9.21486 16.9701 10.3928 17.35C11.5707 17.73 12.8404 17.7154 14.0093 17.3083C14.9653 16.9774 15.8192 16.4043 16.4876 15.6447C17.156 14.8852 17.6159 13.9654 17.8226 12.975C17.9179 12.5801 17.9797 12.1777 18.0068 11.7725C18.0137 11.7131 18.0436 11.6589 18.0901 11.6213C18.1366 11.5837 18.196 11.5659 18.2555 11.5716C18.315 11.5772 18.3699 11.606 18.4084 11.6516C18.447 11.6973 18.4661 11.7562 18.4618 11.8158L18.4401 12.4875C18.3558 14.054 17.6916 15.533 16.5768 16.6367C15.4463 17.7574 13.9416 18.4209 12.3518 18.5H11.7126C10.0976 18.4184 8.57076 17.7387 7.42933 16.5933C6.2879 15.4478 5.61356 13.9186 5.5376 12.3033V11.6967C5.61636 10.097 6.28002 8.58208 7.40247 7.43965C8.52492 6.29723 10.0279 5.60696 11.6259 5.5Z" fill="white"/>
<path d="M16.9125 8.8694C17.3458 8.39273 18.245 8.65273 18.3425 9.2919C18.4833 9.86607 17.9308 10.3536 17.3675 10.3102C16.62 11.0686 16.0242 11.9677 15.515 12.9102C15.3092 13.1919 15.5692 13.5602 15.4067 13.8527C15.2117 14.4269 14.3667 14.5461 13.9983 14.0694C13.7275 13.7661 13.8033 13.3436 13.9442 13.0077C13.738 12.5798 13.4636 12.1883 13.1317 11.8486L12.8067 11.8594C12.0952 12.6434 11.5071 13.5311 11.0625 14.4919C11.1383 14.7844 11.1925 15.1311 10.9867 15.3911C10.7158 15.8352 10.0008 15.8786 9.66499 15.4669C9.41582 15.1852 9.44833 14.7844 9.57833 14.4486C9.20433 13.4315 8.67039 12.4807 7.99666 11.6319C7.57416 11.6102 7.12999 11.3611 7.07583 10.9169C6.93499 10.3102 7.62833 9.72523 8.20249 9.99607C8.71166 10.1802 8.85249 10.8302 8.60333 11.2744C9.01258 12.3131 9.58692 13.2789 10.3042 14.1344C11.0838 13.3616 11.7185 12.4554 12.1783 11.4586C12.0917 11.1661 12.0375 10.8302 12.2325 10.5594C12.525 10.0827 13.305 10.0719 13.6083 10.5486C13.8358 10.8411 13.76 11.2311 13.63 11.5452C13.8311 11.974 14.0979 12.3688 14.4208 12.7152L14.7458 12.6936C15.5367 11.8594 16.2625 10.9386 16.75 9.88773C16.6958 9.54107 16.6308 9.1294 16.9233 8.8694H16.9125Z" fill="white"/>
</g>
<defs>
<clipPath id="clip0_1265_20523">
<rect width="24" height="24" fill="white"/>
</clipPath>
</defs>
</svg>
