<svg width="24" height="24" viewBox="0 0 24 24" fill="none" xmlns="http://www.w3.org/2000/svg">
<path fill-rule="evenodd" clip-rule="evenodd" d="M2.20001 18.5455C2.20001 20.3429 3.65712 21.8 5.45456 21.8H7.9091C9.70654 21.8 11.1636 20.3429 11.1636 18.5455V16.0909C11.1636 14.2935 9.70654 12.8364 7.9091 12.8364H5.45456C3.65712 12.8364 2.20001 14.2935 2.20001 16.0909V18.5455ZM5.45456 20.2C4.54078 20.2 3.80001 19.4592 3.80001 18.5455V16.0909C3.80001 15.1771 4.54078 14.4364 5.45456 14.4364H7.9091C8.82288 14.4364 9.56365 15.1771 9.56365 16.0909V18.5455C9.56365 19.4592 8.82288 20.2 7.9091 20.2H5.45456ZM12.8364 18.5455C12.8364 20.3429 14.2935 21.8 16.0909 21.8H18.5455C20.3429 21.8 21.8 20.3429 21.8 18.5455V16.0909C21.8 14.2935 20.3429 12.8364 18.5455 12.8364H16.0909C14.2935 12.8364 12.8364 14.2935 12.8364 16.0909V18.5455ZM16.0909 20.2C15.1771 20.2 14.4364 19.4592 14.4364 18.5455V16.0909C14.4364 15.1771 15.1771 14.4364 16.0909 14.4364H18.5455C19.4592 14.4364 20.2 15.1771 20.2 16.0909V18.5455C20.2 19.4592 19.4592 20.2 18.5455 20.2H16.0909ZM2.20001 7.9091C2.20001 9.70654 3.65712 11.1636 5.45456 11.1636H7.9091C9.70654 11.1636 11.1636 9.70654 11.1636 7.9091V5.45456C11.1636 3.65712 9.70654 2.20001 7.9091 2.20001H5.45456C3.65712 2.20001 2.20001 3.65712 2.20001 5.45456V7.9091ZM5.45456 9.56365C4.54078 9.56365 3.80001 8.82288 3.80001 7.9091V5.45456C3.80001 4.54078 4.54078 3.80001 5.45456 3.80001H7.9091C8.82288 3.80001 9.56365 4.54078 9.56365 5.45456V7.9091C9.56365 8.82288 8.82288 9.56365 7.9091 9.56365H5.45456ZM17.3182 11.1636C17.76 11.1636 18.1182 10.8055 18.1182 10.3636V7.48183H21C21.4418 7.48183 21.8 7.12366 21.8 6.68183C21.8 6.24 21.4418 5.88183 21 5.88183H18.1182V3.00001C18.1182 2.55818 17.76 2.20001 17.3182 2.20001C16.8764 2.20001 16.5182 2.55818 16.5182 3.00001V5.88183H13.6364C13.1945 5.88183 12.8364 6.24 12.8364 6.68183C12.8364 7.12366 13.1945 7.48183 13.6364 7.48183H16.5182V10.3636C16.5182 10.8055 16.8764 11.1636 17.3182 11.1636Z" fill="#6B7084"/>
</svg>
