<svg width="24" height="24" viewBox="0 0 24 24" fill="none" xmlns="http://www.w3.org/2000/svg">
<path fill-rule="evenodd" clip-rule="evenodd" d="M19.33 6C19.33 7.28682 18.2868 8.33 17 8.33C15.7132 8.33 14.67 7.28682 14.67 6C14.67 4.71318 15.7132 3.67 17 3.67C18.2868 3.67 19.33 4.71318 19.33 6ZM19.1761 9.35686C18.5498 9.76369 17.8025 10 17 10C14.7909 10 13 8.20914 13 6C13 3.79086 14.7909 2 17 2C19.2091 2 21 3.79086 21 6C21 6.80244 20.7637 7.5497 20.3569 8.17598L21.7505 9.56954C22.0766 9.89563 22.0766 10.4243 21.7505 10.7504C21.4244 11.0765 20.8957 11.0765 20.5696 10.7504L19.1761 9.35686ZM2.20001 18.5454C2.20001 20.3429 3.65712 21.8 5.45456 21.8H7.9091C9.70654 21.8 11.1636 20.3429 11.1636 18.5454V16.0909C11.1636 14.2935 9.70654 12.8364 7.9091 12.8364H5.45456C3.65712 12.8364 2.20001 14.2935 2.20001 16.0909V18.5454ZM5.45456 20.2C4.54078 20.2 3.80001 19.4592 3.80001 18.5454V16.0909C3.80001 15.1771 4.54078 14.4364 5.45456 14.4364H7.9091C8.82288 14.4364 9.56365 15.1771 9.56365 16.0909V18.5454C9.56365 19.4592 8.82288 20.2 7.9091 20.2H5.45456ZM12.8364 18.5454C12.8364 20.3429 14.2935 21.8 16.0909 21.8H18.5455C20.3429 21.8 21.8 20.3429 21.8 18.5454V16.0909C21.8 14.2935 20.3429 12.8364 18.5455 12.8364H16.0909C14.2935 12.8364 12.8364 14.2935 12.8364 16.0909V18.5454ZM16.0909 20.2C15.1771 20.2 14.4364 19.4592 14.4364 18.5454V16.0909C14.4364 15.1771 15.1771 14.4364 16.0909 14.4364H18.5455C19.4592 14.4364 20.2 15.1771 20.2 16.0909V18.5454C20.2 19.4592 19.4592 20.2 18.5455 20.2H16.0909ZM2.20001 7.90908C2.20001 9.70651 3.65712 11.1636 5.45456 11.1636H7.9091C9.70654 11.1636 11.1636 9.70651 11.1636 7.90908V5.45453C11.1636 3.6571 9.70654 2.19999 7.9091 2.19999H5.45456C3.65712 2.19999 2.20001 3.6571 2.20001 5.45453V7.90908ZM5.45456 9.56362C4.54078 9.56362 3.80001 8.82286 3.80001 7.90908V5.45453C3.80001 4.54075 4.54078 3.79999 5.45456 3.79999H7.9091C8.82288 3.79999 9.56365 4.54075 9.56365 5.45453V7.90908C9.56365 8.82286 8.82288 9.56362 7.9091 9.56362H5.45456Z" fill="#6B7084"/>
</svg>
