<svg viewBox="0 0 24 24" fill="none" xmlns="http://www.w3.org/2000/svg">
<path fill-rule="evenodd" clip-rule="evenodd" d="M2.20001 18.5454C2.20001 20.3428 3.65712 21.7999 5.45456 21.7999H7.9091C9.70654 21.7999 11.1636 20.3428 11.1636 18.5454V16.0908C11.1636 14.2934 9.70654 12.8363 7.9091 12.8363H5.45456C3.65712 12.8363 2.20001 14.2934 2.20001 16.0908V18.5454ZM5.45456 20.1999C4.54078 20.1999 3.80001 19.4592 3.80001 18.5454V16.0908C3.80001 15.1771 4.54078 14.4363 5.45456 14.4363H7.9091C8.82288 14.4363 9.56365 15.1771 9.56365 16.0908V18.5454C9.56365 19.4592 8.82288 20.1999 7.9091 20.1999H5.45456ZM12.8364 18.5454C12.8364 20.3428 14.2935 21.7999 16.0909 21.7999H18.5455C20.3429 21.7999 21.8 20.3428 21.8 18.5454V16.0908C21.8 14.2934 20.3429 12.8363 18.5455 12.8363H16.0909C14.2935 12.8363 12.8364 14.2934 12.8364 16.0908V18.5454ZM16.0909 20.1999C15.1771 20.1999 14.4364 19.4592 14.4364 18.5454V16.0908C14.4364 15.1771 15.1771 14.4363 16.0909 14.4363H18.5455C19.4592 14.4363 20.2 15.1771 20.2 16.0908V18.5454C20.2 19.4592 19.4592 20.1999 18.5455 20.1999H16.0909Z" fill="currentColor"/>
<path fill-rule="evenodd" clip-rule="evenodd" d="M6.62245 8.29386C6.9793 8.29386 7.31161 8.18877 7.59011 8.00786L8.20977 8.62752C8.35478 8.77253 8.58987 8.77253 8.73488 8.62752C8.87988 8.48252 8.87988 8.24742 8.73488 8.10242L8.1152 7.48275C8.29609 7.20426 8.40116 6.87197 8.40116 6.51515C8.40116 5.5328 7.6048 4.73645 6.62245 4.73645C5.6401 4.73645 4.84375 5.5328 4.84375 6.51515C4.84375 7.4975 5.6401 8.29386 6.62245 8.29386ZM6.62233 7.2947C7.05284 7.2947 7.40184 6.9457 7.40184 6.51519C7.40184 6.08468 7.05284 5.73568 6.62233 5.73568C6.19182 5.73568 5.84282 6.08468 5.84282 6.51519C5.84282 6.9457 6.19182 7.2947 6.62233 7.2947Z" fill="currentColor"/>
<path fill-rule="evenodd" clip-rule="evenodd" d="M17.5 3.67H6.5C4.93703 3.67 3.67 4.93703 3.67 6.5C3.67 8.06297 4.93703 9.33 6.5 9.33H17.5C19.063 9.33 20.33 8.06297 20.33 6.5C20.33 4.93703 19.063 3.67 17.5 3.67ZM6.5 2C4.01472 2 2 4.01472 2 6.5C2 8.98528 4.01472 11 6.5 11H17.5C19.9853 11 22 8.98528 22 6.5C22 4.01472 19.9853 2 17.5 2H6.5Z" fill="currentColor"/>
</svg>