<svg viewBox="0 0 24 24" fill="none" xmlns="http://www.w3.org/2000/svg">
<path fill-rule="evenodd" clip-rule="evenodd" d="M21.755 8.30424C21.5948 8.46422 21.3842 8.54504 21.1753 8.54504C20.9631 8.54504 20.75 8.46255 20.5889 8.29674C18.2978 5.95624 15.2366 4.66726 11.9664 4.66726C8.73574 4.66726 5.69631 5.93458 3.40604 8.23509C3.08222 8.55921 2.56041 8.55587 2.23994 8.23175C1.91863 7.90513 1.92031 7.37604 2.24329 7.05275C4.8448 4.43896 8.29782 3 11.9664 3C15.6804 3 19.1594 4.46479 21.7617 7.12524C22.0822 7.45186 22.0788 7.98012 21.755 8.30424ZM12 7.14274C14.302 7.14274 16.5529 7.94679 18.339 9.40492C18.6938 9.69488 18.7492 10.2198 18.4631 10.5773C18.177 10.9364 17.6578 10.9914 17.3037 10.7022C15.7886 9.46408 13.9539 8.81 12 8.81C9.57806 8.81 7.2685 9.86735 5.66112 11.7104C5.49837 11.8979 5.27018 11.9929 5.04283 11.9929C4.8482 11.9929 4.65441 11.9246 4.49753 11.7846C4.15608 11.4805 4.12337 10.953 4.42454 10.6081C6.344 8.40506 9.10491 7.14274 12 7.14274ZM12 11.3113C13.0067 11.3113 13.9715 11.5421 14.8675 11.997C15.2735 12.2037 15.438 12.7061 15.2333 13.1169C15.0294 13.5277 14.5361 13.6951 14.1267 13.4868C13.4631 13.1502 12.7475 12.9794 12 12.9794C10.3918 12.9794 8.90943 13.791 8.03359 15.1508C7.87588 15.3966 7.61161 15.5299 7.34232 15.5299C7.1888 15.5299 7.03192 15.4874 6.89349 15.3949C6.51178 15.1441 6.40356 14.6275 6.65188 14.2417C7.83225 12.407 9.83141 11.3113 12 11.3113ZM12 15.494C13.3641 15.494 14.4732 16.6156 14.4732 17.9945C14.4732 19.3743 13.3641 20.4967 12 20.4967C10.6359 20.4967 9.52604 19.3743 9.52604 17.9945C9.52604 16.6156 10.6359 15.494 12 15.494ZM12 18.8286C12.4547 18.8286 12.8246 18.4553 12.8246 17.9945C12.8246 17.5354 12.4547 17.1613 12 17.1613C11.5444 17.1613 11.1753 17.5354 11.1753 17.9945C11.1753 18.4553 11.5444 18.8286 12 18.8286ZM16.099 15.5007V14.6675C16.099 13.2885 17.2525 12.1679 18.6158 12.1679C19.9799 12.1679 21.1326 13.2885 21.1326 14.6675C21.1326 14.6675 21.1854 14.7941 21.1426 15.5024C21.594 15.5082 21.9715 15.8765 21.9715 16.3339V19.6668C21.9715 20.1276 21.5881 20.5 21.1326 20.5H16.099C15.6435 20.5 15.2601 20.1276 15.2601 19.6668V16.3339C15.2601 15.8732 15.6435 15.5007 16.099 15.5007ZM19.4547 14.6675C19.4547 14.2076 19.0705 13.8343 18.6158 13.8343C18.1619 13.8343 17.7769 14.2076 17.7769 14.6675V15.5007H19.4547V14.6675ZM16.9379 18.8336H20.2936V17.1671H16.9379V18.8336Z" fill="currentColor"/>
</svg>