<svg viewBox="0 0 24 24" fill="none" xmlns="http://www.w3.org/2000/svg">
<path fill-rule="evenodd" clip-rule="evenodd" d="M21.7554 8.30525C21.5944 8.46526 21.3855 8.5461 21.1757 8.5461C20.9626 8.5461 20.7504 8.46443 20.5893 8.29859C18.299 5.95764 15.236 4.66841 11.9667 4.66841C8.73595 4.66841 5.69563 5.93514 3.40533 8.23608C3.08234 8.5611 2.55968 8.5586 2.23921 8.23275C1.91873 7.90607 1.92041 7.37771 2.2434 7.05353C4.84411 4.43924 8.29802 3 11.9667 3C15.6798 3 19.1589 4.46507 21.7613 7.12603C22.0818 7.45355 22.0793 7.98107 21.7554 8.30525ZM11.9994 7.14353C14.898 7.14353 17.6589 8.40442 19.5751 10.6037C19.8762 10.9487 19.8435 11.4754 19.5021 11.7796C19.1598 12.0846 18.6388 12.0521 18.3385 11.7062C16.7353 9.86616 14.4248 8.81194 11.9994 8.81194C9.57827 8.81194 7.26783 9.86866 5.66043 11.7121C5.49767 11.8996 5.27032 11.9954 5.04213 11.9954C4.84834 11.9954 4.6537 11.9263 4.49682 11.7863C4.15537 11.4821 4.12265 10.9554 4.42383 10.6095C6.34332 8.40692 9.10427 7.14353 11.9994 7.14353ZM11.9994 11.3137C14.1689 11.3137 16.1681 12.4088 17.3477 14.2447C17.596 14.6306 17.4878 15.1464 17.1052 15.3981C16.9676 15.4898 16.8116 15.5331 16.6572 15.5331C16.3871 15.5331 16.1228 15.3989 15.9651 15.1531C15.0909 13.793 13.6085 12.9813 11.9994 12.9813C10.3912 12.9813 8.90879 13.793 8.03378 15.1531C7.78462 15.5398 7.27454 15.6498 6.89282 15.3981C6.51111 15.1464 6.40372 14.6306 6.65121 14.2447C7.8316 12.4088 9.83163 11.3137 11.9994 11.3137ZM11.9995 15.4964C13.3636 15.4964 14.4735 16.6181 14.4735 17.9982C14.4735 19.3774 13.3636 20.5 11.9995 20.5C10.6353 20.5 9.52543 19.3774 9.52543 17.9982C9.52543 16.6181 10.6353 15.4964 11.9995 15.4964ZM11.9994 18.8324C12.4541 18.8324 12.8241 18.4582 12.8241 17.9982C12.8241 17.5374 12.4541 17.164 11.9994 17.164C11.5447 17.164 11.1747 17.5374 11.1747 17.9982C11.1747 18.4582 11.5447 18.8324 11.9994 18.8324Z" fill="currentColor"/>
</svg>