<svg width="24" height="24" viewBox="0 0 24 24" fill="none" xmlns="http://www.w3.org/2000/svg">
<path fill-rule="evenodd" clip-rule="evenodd" d="M20.3333 21.3333H3.66667C2.7475 21.3333 2 20.5858 2 19.6667V4.66667C2 3.74833 2.7475 3 3.66667 3H20.3333C21.2525 3 22 3.74833 22 4.66667V19.6667C22 20.5858 21.2525 21.3333 20.3333 21.3333ZM3.66667 19.6667H20.3308L20.3325 8H3.66667V19.6667ZM3.66667 4.66667V6.33333H20.3333V4.66667H3.66667ZM15.535 13.3433L15.5342 13.3442C15.5333 13.3442 15.5333 13.345 15.5333 13.345C15.5325 13.3458 15.5325 13.3458 15.5325 13.3458L11.5808 17.3C11.5583 17.3225 11.5292 17.3308 11.5058 17.35C11.4683 17.38 11.43 17.405 11.3875 17.4283C11.33 17.46 11.2742 17.4842 11.2125 17.5008C11.1908 17.5075 11.1733 17.5225 11.15 17.5267L8.82751 17.9842C8.77418 17.995 8.72085 18 8.66668 18C8.44751 18 8.23501 17.9133 8.07751 17.7558C7.88168 17.56 7.79585 17.2792 7.84918 17.0067L8.30418 14.6825C8.31001 14.6542 8.32835 14.6333 8.33585 14.6058C8.35085 14.5558 8.37085 14.51 8.39585 14.4633C8.42418 14.4083 8.45585 14.3592 8.49501 14.3133C8.51085 14.295 8.51668 14.2717 8.53418 14.255L12.4875 10.3C12.4883 10.2992 12.4883 10.2992 12.4883 10.2983C12.8958 9.89167 13.4367 9.66667 14.0125 9.66667C14.5883 9.66667 15.1292 9.89167 15.535 10.2992C15.9417 10.7042 16.1667 11.245 16.1667 11.8217C16.1658 12.3967 15.9417 12.9367 15.535 13.3425V13.3433ZM14.3566 11.4775C14.2633 11.3833 14.1416 11.3333 14.0125 11.3333C13.8825 11.3333 13.76 11.3833 13.6675 11.4767C13.6675 11.4767 13.6675 11.4775 13.6666 11.4775L9.89079 15.2542L9.72329 16.1092L10.5833 15.94L14.3558 12.165C14.3566 12.1642 14.3566 12.1633 14.3575 12.1633C14.4483 12.0725 14.4991 11.9508 14.5 11.8217C14.5 11.6917 14.4483 11.5692 14.3566 11.4775Z" fill="#6B7084"/>
</svg>
