<svg viewBox="0 0 24 24" fill="none" xmlns="http://www.w3.org/2000/svg">
<path fill-rule="evenodd" clip-rule="evenodd" d="M20.3333 21.3333H3.66667C2.7475 21.3333 2 20.5858 2 19.6667V4.66667C2 3.74833 2.7475 3 3.66667 3H20.3333C21.2525 3 22 3.74833 22 4.66667V19.6667C22 20.5858 21.2525 21.3333 20.3333 21.3333ZM3.66667 19.6667H20.3308L20.3325 8H3.66667V19.6667ZM3.66667 4.66667V6.33333H20.3333V4.66667H3.66667ZM14.2558 16.9233C14.0933 17.0858 13.88 17.1675 13.6667 17.1675C13.4533 17.1675 13.24 17.0858 13.0775 16.9233C12.7517 16.5983 12.7517 16.0708 13.0775 15.745L14.9883 13.8342L13.0775 11.9233C12.7517 11.5975 12.7517 11.0708 13.0775 10.745C13.4033 10.42 13.93 10.42 14.2558 10.745L16.7558 13.245C17.0817 13.5708 17.0817 14.0983 16.7558 14.4233L14.2558 16.9233ZM10.9225 16.9225C10.76 17.085 10.5467 17.1667 10.3333 17.1667C10.12 17.1667 9.90667 17.085 9.74417 16.9225L7.24417 14.4225C6.91834 14.0967 6.91834 13.57 7.24417 13.2442L9.74417 10.7442C10.07 10.4183 10.5967 10.4183 10.9225 10.7442C11.2483 11.0692 11.2483 11.5967 10.9225 11.9225L9.01167 13.8333L10.9225 15.7442C11.2483 16.07 11.2483 16.5975 10.9225 16.9225Z" fill="currentColor"/>
</svg>