<svg viewBox="0 0 24 24" fill="none" xmlns="http://www.w3.org/2000/svg">
<path fill-rule="evenodd" clip-rule="evenodd" d="M20.3333 21.3333H3.66667C2.7475 21.3333 2 20.585 2 19.6667V4.66667C2 3.7475 2.7475 3 3.66667 3H20.3333C21.2525 3 22 3.7475 22 4.66667V19.6667C22 20.585 21.2525 21.3333 20.3333 21.3333ZM20.3308 19.6667L20.3325 8H3.66667V19.6667H20.3308ZM3.66667 4.66667V6.33333H20.3333V4.66667H3.66667ZM11.1667 9.63083C13.005 9.63083 14.5 11.1258 14.5 12.9642C14.5 13.5808 14.3208 14.1508 14.0275 14.6467L15.9225 16.5417C16.2483 16.8667 16.2483 17.3942 15.9225 17.72C15.76 17.8833 15.5467 17.9642 15.3333 17.9642C15.12 17.9642 14.9067 17.8833 14.7442 17.72L12.8492 15.825C12.3533 16.1183 11.7833 16.2975 11.1667 16.2975C9.32833 16.2975 7.83333 14.8025 7.83333 12.9642C7.83333 11.1258 9.32833 9.63083 11.1667 9.63083ZM11.1667 14.6309C11.4917 14.6309 11.7933 14.5334 12.0508 14.3718C12.09 14.2518 12.1483 14.1376 12.2442 14.0418C12.34 13.9468 12.4542 13.8876 12.5742 13.8484C12.7358 13.5909 12.8333 13.2901 12.8333 12.9643C12.8333 12.0459 12.0858 11.2976 11.1667 11.2976C10.2475 11.2976 9.5 12.0459 9.5 12.9643C9.5 13.8834 10.2475 14.6309 11.1667 14.6309Z" fill="currentColor"/>
</svg>