<svg width="24" height="24" viewBox="0 0 24 24" fill="none" xmlns="http://www.w3.org/2000/svg">
<path fill-rule="evenodd" clip-rule="evenodd" d="M22 19.6667C22 20.5852 21.2519 21.3333 20.3333 21.3333H3.66667C2.7481 21.3333 2 20.5852 2 19.6667V7.16666V4.66667C2 3.7481 2.7481 3 3.66667 3H20.3333C21.2519 3 22 3.7481 22 4.66667V7.16666V19.6667ZM20.3333 6.33333V4.66667H3.66667V6.33333H20.3333ZM3.66667 7.99999H20.3333V19.6667H3.66667V7.99999ZM11.1667 10.5C11.1667 10.0398 11.5398 9.66667 12 9.66667C12.4602 9.66667 12.8333 10.0398 12.8333 10.5V13H15.3333C15.7936 13 16.1667 13.3731 16.1667 13.8333C16.1667 14.2936 15.7936 14.6667 15.3333 14.6667H12.8333V17.1667C12.8333 17.6269 12.4602 18 12 18C11.5398 18 11.1667 17.6269 11.1667 17.1667V14.6667H8.66667C8.20643 14.6667 7.83333 14.2936 7.83333 13.8333C7.83333 13.3731 8.20643 13 8.66667 13H11.1667V10.5Z" fill="#6B7084"/>
</svg>
