<svg viewBox="0 0 24 24" fill="none" xmlns="http://www.w3.org/2000/svg">
<path fill-rule="evenodd" clip-rule="evenodd" d="M20.3333 21.3333H3.66667C2.7475 21.3333 2 20.585 2 19.6667V4.66667C2 3.7475 2.7475 3 3.66667 3H20.3333C21.2525 3 22 3.7475 22 4.66667V19.6667C22 20.585 21.2525 21.3333 20.3333 21.3333ZM3.66667 19.6667H20.3308L20.3325 8H3.66667V19.6667ZM3.66667 4.66667V6.33333H20.3333V4.66667H3.66667ZM15.3333 16.75V17.1667C15.7933 17.1667 16.1667 17.5392 16.1667 18C16.1667 18.46 15.7933 18.8333 15.3333 18.8333H8.66667C8.20667 18.8333 7.83333 18.46 7.83333 18C7.83333 17.5392 8.20667 17.1667 8.66667 17.1667V16.75C8.66667 15.4867 9.38167 14.3983 10.42 13.8333C9.38167 13.2683 8.66667 12.18 8.66667 10.9167V10.5C8.20667 10.5 7.83333 10.1275 7.83333 9.66667C7.83333 9.20583 8.20667 8.83333 8.66667 8.83333H15.3333C15.7933 8.83333 16.1667 9.20583 16.1667 9.66667C16.1667 10.1275 15.7933 10.5 15.3333 10.5V10.9167C15.3333 12.18 14.6183 13.2683 13.58 13.8333C14.6183 14.3983 15.3333 15.4867 15.3333 16.75ZM13.6667 10.9167V10.5H10.3333V10.9167C10.3333 11.8358 11.0808 12.5833 12 12.5833C12.9192 12.5833 13.6667 11.8358 13.6667 10.9167ZM13.6667 16.75C13.6667 15.8308 12.9192 15.0833 12 15.0833C11.0808 15.0833 10.3333 15.8308 10.3333 16.75V17.1667H13.6667V16.75Z" fill="currentColor"/>
</svg>