<svg width="24" height="24" viewBox="0 0 24 24" fill="none" xmlns="http://www.w3.org/2000/svg">
<path fill-rule="evenodd" clip-rule="evenodd" d="M20.3333 21.3333C21.2519 21.3333 22 20.5852 22 19.6667V7.16666V4.66667C22 3.7481 21.2519 3 20.3333 3H3.66667C2.7481 3 2 3.7481 2 4.66667V7.16666V19.6667C2 20.5852 2.7481 21.3333 3.66667 21.3333H20.3333ZM3.66667 19.6667V7.99999H20.3333V19.6667H3.66667ZM3.66667 6.33333H20.3333V4.66667H3.66667V6.33333ZM9.72969 10.6553C9.36926 10.2944 8.78461 10.2944 8.42419 10.6553C8.06376 11.0153 8.06376 11.5996 8.42419 11.9606L10.5413 14.0772L8.42419 16.1938C8.06376 16.5548 8.06376 17.1382 8.42419 17.4991C8.60486 17.6791 8.84113 17.7695 9.0774 17.7695C9.31367 17.7695 9.54901 17.6791 9.72969 17.4991L11.8459 15.3824L13.9631 17.4991C14.1428 17.6791 14.3791 17.7695 14.6153 17.7695C14.8516 17.7695 15.0879 17.6791 15.2676 17.4991C15.629 17.1382 15.629 16.5548 15.2676 16.1938L13.1514 14.0772L15.2676 11.9606C15.629 11.5996 15.629 11.0153 15.2676 10.6553C14.9072 10.2944 14.3235 10.2944 13.9631 10.6553L11.8459 12.772L9.72969 10.6553Z" fill="#6B7084"/>
</svg>
