<svg viewBox="0 0 24 24" fill="none" xmlns="http://www.w3.org/2000/svg">
<path fill-rule="evenodd" clip-rule="evenodd" d="M20.3333 21.3333H3.66667C2.7475 21.3333 2 20.5858 2 19.6667V4.66667C2 3.74833 2.7475 3 3.66667 3H20.3333C21.2525 3 22 3.74833 22 4.66667V19.6667C22 20.5858 21.2525 21.3333 20.3333 21.3333ZM3.66667 19.6667H20.3308L20.3325 8H3.66667V19.6667ZM3.66667 4.66667V6.33333H20.3333V4.66667H3.66667ZM17.8333 18H14.5C14.04 18 13.6667 17.6275 13.6667 17.1667V10.5C13.6667 10.0392 14.04 9.66667 14.5 9.66667H17.8333C18.2933 9.66667 18.6667 10.0392 18.6667 10.5V17.1667C18.6667 17.6275 18.2933 18 17.8333 18ZM17 11.3333H15.3333V16.3333H17V11.3333ZM11.1667 18H6.16667C5.70667 18 5.33333 17.6275 5.33333 17.1667V10.5C5.33333 10.0392 5.70667 9.66667 6.16667 9.66667H11.1667C11.6267 9.66667 12 10.0392 12 10.5V17.1667C12 17.6275 11.6267 18 11.1667 18ZM10.3333 11.3333H7V16.3333H10.3333V11.3333Z" fill="currentColor"/>
</svg>