<svg width="24" height="24" viewBox="0 0 24 24" fill="none" xmlns="http://www.w3.org/2000/svg">
<path fill-rule="evenodd" clip-rule="evenodd" d="M20.3333 21.3333H3.66667C2.7475 21.3333 2 20.5858 2 19.6667V4.66667C2 3.74833 2.7475 3 3.66667 3H20.3333C21.2525 3 22 3.74833 22 4.66667V19.6667C22 20.5858 21.2525 21.3333 20.3333 21.3333ZM3.66667 19.6667H20.3308L20.3325 8H3.66667V19.6667ZM3.66667 4.66667V6.33333H20.3333V4.66667H3.66667ZM14.5 18H9.5C8.565 18 7.83333 17.39 7.83333 16.61V16.0533C7.83333 16.0117 7.85083 15.9758 7.8575 15.935C7.86583 15.875 7.87083 15.8167 7.8925 15.76C7.91167 15.7092 7.9425 15.6675 7.97083 15.6225C7.99917 15.5767 8.0225 15.53 8.06 15.4908C8.10083 15.4458 8.15167 15.415 8.20167 15.3808C8.235 15.3575 8.25833 15.3258 8.29583 15.3075L9.74 14.5908C9.53417 14.0475 9.49583 13.5508 9.50083 13.3275C9.5 13.3117 9.5 13.2958 9.5 13.2808L9.50167 11.6117C9.50167 11.5608 9.50667 11.51 9.51583 11.4592C9.7225 10.3517 10.9667 9.66667 12 9.66667C13.0325 9.66667 14.2758 10.3508 14.485 11.4575C14.495 11.5083 14.5 11.5608 14.5 11.6125V13.2817C14.5 13.2975 14.4992 13.3125 14.4983 13.3283C14.5042 13.5517 14.4658 14.045 14.2625 14.585L15.7067 15.3075C15.7458 15.3275 15.7717 15.3608 15.8067 15.3858C15.8533 15.4192 15.9017 15.4483 15.9408 15.4908C15.9783 15.5317 16.0025 15.5783 16.0308 15.625C16.0583 15.67 16.0892 15.7108 16.1075 15.7608C16.1292 15.8175 16.1342 15.8767 16.1433 15.9358C16.1492 15.9758 16.1667 16.0117 16.1667 16.0533V16.61C16.1667 17.39 15.435 18 14.5 18ZM12.835 15.735C12.8175 15.7292 12.8034 15.7175 12.7867 15.7108L12.7375 15.6858C12.7292 15.6817 12.7234 15.6733 12.715 15.6683C12.6642 15.6408 12.6109 15.6192 12.565 15.58C12.5409 15.5592 12.53 15.53 12.5092 15.5075C12.4834 15.48 12.4634 15.4508 12.4425 15.4208C12.4025 15.3642 12.3675 15.3083 12.3434 15.245C12.3267 15.2033 12.3184 15.1608 12.3092 15.1175C12.2975 15.0608 12.2867 15.0067 12.2867 14.9483C12.2867 14.8933 12.2959 14.84 12.3067 14.7842C12.3167 14.7358 12.3267 14.6908 12.345 14.6442C12.355 14.6192 12.3534 14.5925 12.3659 14.5683C12.3867 14.5267 12.4217 14.5 12.4475 14.4633C12.4617 14.445 12.4659 14.4217 12.4817 14.4042C12.865 13.9608 12.8317 13.3492 12.8317 13.3425C12.8292 13.3008 12.83 13.2592 12.8334 13.2167L12.8317 11.7275C12.7525 11.5742 12.3842 11.3333 12 11.3333C11.6159 11.3333 11.2467 11.575 11.1667 11.7275V13.2017C11.1717 13.2517 11.1717 13.3017 11.1675 13.3525C11.1675 13.3525 11.1359 13.9617 11.5192 14.4042C11.5434 14.4317 11.5517 14.4658 11.5717 14.4958C11.5917 14.5258 11.62 14.5467 11.6367 14.5792C11.6459 14.5983 11.6442 14.6183 11.6517 14.6367C11.6742 14.6917 11.6859 14.7458 11.6959 14.8033C11.7059 14.8542 11.715 14.9025 11.715 14.9533C11.7142 15.0075 11.7042 15.0592 11.6934 15.1117C11.6834 15.1642 11.6734 15.2133 11.6534 15.2625C11.6334 15.3108 11.6059 15.3525 11.5767 15.3967C11.5459 15.445 11.5142 15.49 11.4725 15.5317C11.4584 15.5458 11.4525 15.565 11.4367 15.5792C11.4084 15.6033 11.3742 15.6117 11.345 15.6308C11.315 15.6508 11.2942 15.68 11.2609 15.6967L9.97668 16.3333H14.0309L12.835 15.735Z" fill="#6B7084"/>
</svg>
