<svg width="24" height="24" viewBox="0 0 24 24" fill="none" xmlns="http://www.w3.org/2000/svg">
<path fill-rule="evenodd" clip-rule="evenodd" d="M20.3333 21.3333H3.66667C2.7475 21.3333 2 20.5858 2 19.6667V4.66667C2 3.74833 2.7475 3 3.66667 3H20.3333C21.2525 3 22 3.74833 22 4.66667V19.6667C22 20.5858 21.2525 21.3333 20.3333 21.3333ZM3.66667 19.6667H20.3308L20.3325 8H3.66667V19.6667ZM3.66667 4.66667V6.33333H20.3333V4.66667H3.66667ZM16.1667 17.1667C15.7067 17.1667 15.3333 16.7933 15.3333 16.3333V11.3333C15.3333 10.8733 15.7067 10.5 16.1667 10.5C16.6267 10.5 17 10.8733 17 11.3333V16.3333C17 16.7933 16.6267 17.1667 16.1667 17.1667ZM9.5 17.1667C7.66167 17.1667 6.16667 15.6717 6.16667 13.8333C6.16667 11.995 7.66167 10.5 9.5 10.5C11.3383 10.5 12.8333 11.995 12.8333 13.8333C12.8333 15.6717 11.3383 17.1667 9.5 17.1667ZM9.5 12.1667C8.58083 12.1667 7.83333 12.9142 7.83333 13.8333C7.83333 14.7525 8.58083 15.5 9.5 15.5C10.4192 15.5 11.1667 14.7525 11.1667 13.8333C11.1667 12.9142 10.4192 12.1667 9.5 12.1667Z" fill="#6B7084"/>
</svg>
