<svg width="24" height="24" viewBox="0 0 24 24" fill="none" xmlns="http://www.w3.org/2000/svg">
<path fill-rule="evenodd" clip-rule="evenodd" d="M20.3333 21.3333C21.2519 21.3333 22 20.5852 22 19.6667V4.66667C22 3.7481 21.2519 3 20.3333 3H3.66667C2.7481 3 2 3.7481 2 4.66667V19.6667C2 20.5852 2.7481 21.3333 3.66667 21.3333H20.3333ZM3.66667 4.66667H20.3333V6.29999L3.66667 6.29999V4.66667ZM3.66667 7.99999L20.3333 7.99999V19.6667H7.84998L7.84998 8H7H6.14998H3.66667V7.99999ZM14.9335 16.9669C15.1469 16.9669 15.3602 16.8852 15.5227 16.7227C15.8485 16.3977 15.8485 15.8702 15.5227 15.5444L13.6119 13.6335L15.5227 11.7227C15.8485 11.3969 15.8485 10.8694 15.5227 10.5444C15.1969 10.2185 14.6702 10.2185 14.3444 10.5444L11.8444 13.0444C11.5185 13.3702 11.5185 13.8969 11.8444 14.2227L14.3444 16.7227C14.5069 16.8852 14.7202 16.9669 14.9335 16.9669Z" fill="#6B7084"/>
</svg>
