<svg width="24" height="24" viewBox="0 0 24 24" fill="none" xmlns="http://www.w3.org/2000/svg">
<path fill-rule="evenodd" clip-rule="evenodd" d="M17.9293 11.1602C17.5087 11.1602 17.0905 11.0868 16.6798 10.9399L15.163 12.4559L16.4282 12.8781C16.5511 12.9182 16.6624 12.9874 16.754 13.0792L21.753 18.0769C22.0788 18.4023 22.0788 18.9296 21.753 19.255L19.2531 21.7539C19.0906 21.9166 18.8778 21.9983 18.6642 21.9983C18.4514 21.9983 18.2378 21.9166 18.0753 21.7539L13.0755 16.7553C12.9848 16.6652 12.9155 16.5534 12.8751 16.4308L12.4528 15.1659L10.889 16.7286C11.4276 18.0836 11.0836 19.5454 9.91327 20.7443C9.13221 21.5419 7.96679 22 6.71313 22C6.19847 22 5.70195 21.9241 5.2376 21.7731C4.9613 21.6838 4.7518 21.4577 4.68335 21.1765C4.61571 20.8945 4.69984 20.5975 4.90439 20.3922L6.29167 19.0055L5.64174 18.3556C5.61782 18.3314 5.59473 18.3055 5.57328 18.2788L5.00254 17.7073L3.61526 19.0948C3.40989 19.2984 3.11214 19.3818 2.83089 19.3159C2.54882 19.2475 2.322 19.0381 2.23375 18.7619C1.70094 17.1174 2.12488 15.1959 3.2639 14.0871C4.45241 12.9299 5.95928 12.5744 7.28058 13.0976L9.59821 10.7798L6.65457 7.83619H5.27554C5.0545 7.83619 4.84253 7.74859 4.68665 7.59256L2.24365 5.15128C1.92281 4.83005 1.91786 4.31026 2.23458 3.9832L3.90063 2.25944C4.05569 2.09925 4.26931 2.00747 4.492 2.00497C4.69159 1.9741 4.93078 2.09091 5.08831 2.24943L7.58822 4.74829C7.7441 4.90431 7.83235 5.11623 7.83235 5.33733V6.65893L10.7768 9.6025L13.1208 7.25883C12.5781 5.81958 12.9105 4.44459 14.1007 3.25231C14.89 2.46052 16.0587 2.00497 17.3049 2.00497C17.8163 2.00497 18.3087 2.08006 18.7689 2.23024C19.0452 2.31952 19.2547 2.54562 19.3232 2.8268C19.3908 3.1088 19.3067 3.40583 19.1021 3.61108L17.7149 4.99776L18.2732 5.55593C18.359 5.616 18.4332 5.6936 18.4902 5.78204L19.004 6.29599L20.3904 4.90848C20.5958 4.70407 20.8911 4.61813 21.1756 4.68738C21.4569 4.7558 21.6837 4.96522 21.7728 5.24138C22.3039 6.88254 21.8808 8.8032 20.7443 9.91538C19.9104 10.7297 18.9364 11.1602 17.9293 11.1602ZM14.3934 15.7174L18.6642 19.9867L19.9855 18.666L15.7147 14.3958L13.8903 13.7876L13.7856 13.8927L14.3934 15.7174ZM6.16629 5.68275L4.50931 4.02658L4.00124 4.55222L5.62111 6.17001H6.16629V5.68275ZM19.5937 8.06313C19.2812 8.37517 18.7277 8.37517 18.4151 8.06313L17.1771 6.82413C17.1524 6.79993 17.1293 6.7749 17.1087 6.7482L15.9474 5.5868C15.7915 5.43078 15.7033 5.21969 15.7033 4.99775C15.7033 4.77832 15.7915 4.56556 15.9474 4.40954L16.6155 3.74123C16.0868 3.85136 15.6183 4.08832 15.2801 4.42873C14.4471 5.26391 14.3193 6.04819 14.8521 7.05024C15.0245 7.37396 14.9651 7.77194 14.7053 8.02975L8.03363 14.7012C7.75651 14.9765 7.32927 15.0241 7.00101 14.8171C6.18613 14.3057 5.25 14.4792 4.42522 15.281C4.05819 15.6381 3.83798 16.1162 3.73818 16.616L4.41367 15.941C4.72544 15.6281 5.27887 15.6281 5.59146 15.941L6.83028 17.1792C6.8542 17.2034 6.87729 17.2292 6.89791 17.2559L8.05837 18.4165C8.38416 18.7419 8.38416 19.2692 8.05837 19.5937L7.38453 20.2679C7.91899 20.1594 8.38664 19.9216 8.72067 19.5804C9.28812 18.9997 9.8267 18.0786 9.16605 16.9973C8.96563 16.6685 9.01594 16.2455 9.28812 15.9744L15.9045 9.3597C16.1643 9.09938 16.5627 9.04098 16.8852 9.21369C17.8172 9.71012 18.7417 9.54242 19.5789 8.72393C19.9459 8.36516 20.1653 7.88792 20.2668 7.38981L19.5937 8.06313Z" fill="#6B7084"/>
</svg>
