<svg width="24" height="24" viewBox="0 0 24 24" fill="none" xmlns="http://www.w3.org/2000/svg">
<path fill-rule="evenodd" clip-rule="evenodd" d="M20.3333 21.3333H3.66667C2.7475 21.3333 2 20.585 2 19.6667V4.66667C2 3.7475 2.7475 3 3.66667 3H20.3333C21.2525 3 22 3.7475 22 4.66667V19.6667C22 20.585 21.2525 21.3333 20.3333 21.3333ZM3.66667 19.6667H20.3308L20.3325 8H3.66667V19.6667ZM3.66667 4.66667V6.33333H20.3333V4.66667H3.66667ZM14.8608 15.5167L15.535 16.1892L14.3575 17.3692L13.6817 16.695C13.4192 16.85 13.1358 16.97 12.8342 17.0483L12.8333 18.0008L11.1667 17.9992L11.1675 17.0483C10.8642 16.97 10.5808 16.85 10.3175 16.6942L9.61417 17.3975L8.43583 16.2192L9.13917 15.5158C8.98417 15.2525 8.86417 14.9692 8.78583 14.6667H7.83333V13H8.78583C8.86417 12.6975 8.98417 12.4142 9.13917 12.1517L8.46417 11.4767L9.6425 10.2983L10.3175 10.9733C10.5808 10.8175 10.865 10.6975 11.1675 10.6192V9.66667H12.8342V10.6192C13.1367 10.6983 13.42 10.8175 13.6825 10.9733L14.3267 10.3275L15.5067 11.5058L14.8617 12.1517C15.0167 12.4142 15.1367 12.6975 15.215 13H16.1667V14.6667H15.215C15.1358 14.9692 15.0158 15.2533 14.8608 15.5167ZM12 12.1675C11.0816 12.1675 10.3341 12.915 10.3341 13.8333C10.3341 14.7517 11.0816 15.5 12 15.5C12.9191 15.5 13.6666 14.7517 13.6666 13.8333C13.6666 12.915 12.9191 12.1675 12 12.1675Z" fill="#6B7084"/>
</svg>
