<svg width="24" height="24" viewBox="0 0 24 24" fill="none" xmlns="http://www.w3.org/2000/svg">
<path fill-rule="evenodd" clip-rule="evenodd" d="M20.3333 21.3333H3.66667C2.7475 21.3333 2 20.5858 2 19.6667V4.66667C2 3.74833 2.7475 3 3.66667 3H20.3333C21.2525 3 22 3.74833 22 4.66667V19.6667C22 20.5858 21.2525 21.3333 20.3333 21.3333ZM20.3308 19.6667L20.3325 8H3.66667V19.6667H20.3308ZM3.66667 4.66667V6.33333H20.3333V4.66667H3.66667ZM9.19967 14.1701C8.84588 13.8712 8.32045 13.9201 8.02609 14.2794C7.73173 14.6386 7.77991 15.1721 8.1337 15.471C9.3854 16.5285 10.6786 17.0747 12 17.0747C13.3214 17.0747 14.6146 16.5285 15.8663 15.471C16.2201 15.1721 16.2683 14.6386 15.974 14.2794C15.6796 13.9201 15.1542 13.8712 14.8004 14.1701C13.8298 14.99 12.9009 15.3824 12 15.3824C11.0992 15.3824 10.1702 14.99 9.19967 14.1701ZM9.5 12.2821C9.96024 12.2821 10.3333 11.9032 10.3333 11.4359C10.3333 10.9686 9.96024 10.5898 9.5 10.5898C9.03976 10.5898 8.66667 10.9686 8.66667 11.4359C8.66667 11.9032 9.03976 12.2821 9.5 12.2821ZM14.5 12.2821C14.9602 12.2821 15.3333 11.9032 15.3333 11.4359C15.3333 10.9686 14.9602 10.5898 14.5 10.5898C14.0398 10.5898 13.6667 10.9686 13.6667 11.4359C13.6667 11.9032 14.0398 12.2821 14.5 12.2821Z" fill="#6B7084"/>
</svg>
