<svg viewBox="0 0 24 24" fill="none" xmlns="http://www.w3.org/2000/svg">
<path fill-rule="evenodd" clip-rule="evenodd" d="M20.3333 21.3333C21.2519 21.3333 22 20.5852 22 19.6667V7.16667V4.66667C22 3.7481 21.2519 3 20.3333 3H3.66667C2.7481 3 2 3.7481 2 4.66667V7.16667V19.6667C2 20.5852 2.7481 21.3333 3.66667 21.3333H20.3333ZM20.3333 4.66667V6.33333H3.66667V4.66667H20.3333ZM9.55188 8H3.66667L3.66667 9.66668H9.55188V8ZM11.2185 8V10.5C11.2185 10.9603 10.8455 11.3334 10.3852 11.3334H3.66667L3.66667 19.6667H20.3333V8H11.2185Z" fill="currentColor"/>
</svg>