<svg width="24" height="24" viewBox="0 0 24 24" fill="none" xmlns="http://www.w3.org/2000/svg">
<path fill-rule="evenodd" clip-rule="evenodd" d="M20.3333 21.3333H3.66667C2.7475 21.3333 2 20.585 2 19.6667V4.66667C2 3.7475 2.7475 3 3.66667 3H20.3333C21.2525 3 22 3.7475 22 4.66667V19.6667C22 20.585 21.2525 21.3333 20.3333 21.3333ZM3.66667 19.6667H20.3308L20.3325 8H3.66667V19.6667ZM3.66667 4.66667V6.33333H20.3333V4.66667H3.66667ZM19.4992 17.1667C19.4992 17.6275 19.1258 18 18.6658 18C18.2058 18 17.8325 17.6275 17.8325 17.1667V15.5H16.1667C16.1667 15.5 16.1667 15.5 16.1658 15.5C16.165 15.5 16.1642 15.4992 16.1633 15.4992C16.0233 15.4992 15.8967 15.455 15.7808 15.3925C15.7667 15.3858 15.7517 15.3892 15.7383 15.3808C15.71 15.3642 15.6933 15.3367 15.6675 15.3167C15.6208 15.2808 15.5775 15.245 15.54 15.2C15.5058 15.16 15.4792 15.1175 15.4542 15.0725C15.4267 15.0258 15.4033 14.98 15.3858 14.9275C15.3675 14.8733 15.3592 14.82 15.3525 14.7633C15.3492 14.73 15.3333 14.7008 15.3333 14.6667C15.3333 14.6467 15.3433 14.63 15.345 14.61C15.3483 14.555 15.3625 14.5033 15.3775 14.4492C15.3925 14.3933 15.4075 14.3408 15.4333 14.2908C15.4417 14.2742 15.4417 14.255 15.4525 14.2383L17.9517 10.0708C17.9692 10.0417 17.9967 10.025 18.0175 9.99917C18.0525 9.95333 18.0875 9.91167 18.1308 9.87417C18.1725 9.83833 18.2167 9.81083 18.2642 9.78417C18.3092 9.75917 18.3525 9.73667 18.4017 9.72C18.4583 9.70083 18.515 9.69167 18.575 9.685C18.6058 9.68167 18.6333 9.66667 18.6658 9.66667C18.685 9.66667 18.7008 9.67667 18.7192 9.6775C18.7767 9.68083 18.83 9.69583 18.8867 9.71083C18.9408 9.72667 18.9925 9.74167 19.0417 9.76667C19.0583 9.775 19.0775 9.77583 19.0942 9.78583C19.1225 9.8025 19.1392 9.83 19.165 9.85C19.2117 9.88583 19.255 9.92167 19.2925 9.96667C19.3267 10.0067 19.3533 10.0492 19.3792 10.0942C19.4058 10.1408 19.4292 10.1867 19.4467 10.2383C19.465 10.2933 19.4733 10.3467 19.48 10.4042C19.4842 10.4367 19.4992 10.4658 19.4992 10.5V14.6625C19.4992 14.6642 19.5 14.665 19.5 14.6667C19.5 14.6683 19.4992 14.6692 19.4992 14.6708V17.1667ZM17.8325 13.5092L17.6383 13.8333H17.8325V13.5092ZM12 18C10.4575 18 9.5 16.4033 9.5 13.8333C9.5 11.2633 10.4575 9.66667 12 9.66667C13.5425 9.66667 14.5 11.2633 14.5 13.8333C14.5 16.4033 13.5425 18 12 18ZM12 11.3333C11.5992 11.3333 11.1667 12.29 11.1667 13.8333C11.1667 15.3767 11.5992 16.3333 12 16.3333C12.4008 16.3333 12.8333 15.3767 12.8333 13.8333C12.8333 12.29 12.4008 11.3333 12 11.3333ZM8.66583 17.1667C8.66583 17.6275 8.2925 18 7.8325 18C7.3725 18 6.99917 17.6275 6.99917 17.1667V15.5H5.33333C5.33333 15.5 5.33333 15.5 5.3325 15.5C5.33167 15.5 5.33083 15.4992 5.33 15.4992C5.18917 15.4992 5.06333 15.455 4.9475 15.3925C4.93333 15.3858 4.91833 15.3892 4.905 15.3808C4.87667 15.3642 4.86 15.3367 4.835 15.3167C4.7875 15.2808 4.74417 15.245 4.70667 15.2C4.6725 15.16 4.64583 15.1175 4.62 15.0725C4.59333 15.0258 4.57 14.98 4.5525 14.9283C4.53417 14.8733 4.52583 14.82 4.51917 14.7625C4.51583 14.73 4.5 14.7008 4.5 14.6667C4.5 14.6467 4.51 14.63 4.51167 14.6108C4.515 14.555 4.52917 14.5033 4.54417 14.4483C4.55917 14.3933 4.57417 14.3408 4.6 14.2908C4.60917 14.2733 4.60917 14.255 4.61917 14.2383L7.11833 10.0708C7.13583 10.0417 7.16333 10.025 7.18417 9.99833C7.21917 9.95333 7.25333 9.91167 7.2975 9.87417C7.33917 9.83833 7.38333 9.81083 7.43167 9.78417C7.47583 9.75917 7.51917 9.73667 7.56833 9.72C7.625 9.70083 7.68167 9.69167 7.74167 9.685C7.7725 9.68167 7.8 9.66667 7.8325 9.66667C7.85167 9.66667 7.8675 9.67583 7.88583 9.6775C7.94333 9.68083 7.99667 9.69583 8.0525 9.71083C8.10667 9.72667 8.15917 9.74167 8.20833 9.76667C8.225 9.77583 8.24417 9.77583 8.26083 9.78583C8.28917 9.8025 8.30583 9.83 8.33083 9.84917C8.37833 9.88583 8.42167 9.92167 8.46 9.96667C8.49333 10.0067 8.52 10.0492 8.54583 10.0942C8.5725 10.1408 8.59583 10.1867 8.61333 10.2392C8.63167 10.2933 8.64 10.3467 8.64667 10.4042C8.65 10.4367 8.66583 10.4658 8.66583 10.5V14.6625C8.66583 14.6642 8.66667 14.665 8.66667 14.6667C8.66667 14.6683 8.66583 14.6692 8.66583 14.6708V17.1667ZM6.99912 13.5092L6.80496 13.8333H6.99912V13.5092Z" fill="#6B7084"/>
</svg>
