<svg width="24" height="24" viewBox="0 0 24 24" fill="none" xmlns="http://www.w3.org/2000/svg">
<path fill-rule="evenodd" clip-rule="evenodd" d="M20.3333 21.3333H3.66667C2.7475 21.3333 2 20.5858 2 19.6667V4.66667C2 3.74833 2.7475 3 3.66667 3H12.8333H17.8333H20.3333C21.2517 3 22 3.74833 22 4.66667V19.6667C22 20.5858 21.2517 21.3333 20.3333 21.3333ZM3.66667 19.6667H20.3308L20.3325 8H18.6667V12.1667C18.6667 12.4742 18.4975 12.7567 18.2267 12.9017C18.1033 12.9675 17.9683 13 17.8333 13C17.6717 13 17.51 12.9533 17.3708 12.86L15.3342 11.5017L13.2958 12.86C13.04 13.03 12.7108 13.0467 12.44 12.9017C12.1692 12.7567 12 12.4742 12 12.1667V8H3.66667V19.6667ZM3.66667 6.33333H12V4.66667H3.66667V6.33333ZM13.6667 4.66667V10.61L14.8717 9.80667C15.1517 9.62 15.5167 9.62 15.7967 9.80667L17 10.6092V4.66667H13.6667ZM18.6667 4.66667V6.33333H20.3333V4.66667H18.6667Z" fill="#6B7084"/>
</svg>
