<svg viewBox="0 0 24 24" fill="none" xmlns="http://www.w3.org/2000/svg">
<path fill-rule="evenodd" clip-rule="evenodd" d="M20.3333 21.3333H3.66667C2.7475 21.3333 2 20.5858 2 19.6667V4.66667C2 3.74833 2.7475 3 3.66667 3H20.3333C21.2525 3 22 3.74833 22 4.66667V19.6667C22 20.5858 21.2525 21.3333 20.3333 21.3333ZM3.66667 19.6667H20.3308L20.3325 8H3.66667V19.6667ZM3.66667 4.66667V6.33333H20.3333V4.66667H3.66667ZM17.8333 14.6667H12.8333C12.3733 14.6667 12 14.2942 12 13.8333C12 13.3725 12.3733 13 12.8333 13H17.8333C18.2933 13 18.6667 13.3725 18.6667 13.8333C18.6667 14.2942 18.2933 14.6667 17.8333 14.6667ZM17.8333 12.1667H12.8333C12.3733 12.1667 12 11.7942 12 11.3333C12 10.8733 12.3733 10.5 12.8333 10.5H17.8333C18.2933 10.5 18.6667 10.8733 18.6667 11.3333C18.6667 11.7942 18.2933 12.1667 17.8333 12.1667ZM9.5 17.1667H6.16667C5.70667 17.1667 5.33333 16.7933 5.33333 16.3333V11.3333C5.33333 10.8733 5.70667 10.5 6.16667 10.5H9.5C9.96 10.5 10.3333 10.8733 10.3333 11.3333V16.3333C10.3333 16.7933 9.96 17.1667 9.5 17.1667ZM8.66667 12.1667H7V15.5H8.66667V12.1667ZM12.8333 15.5H14.5C14.96 15.5 15.3333 15.8725 15.3333 16.3333C15.3333 16.7933 14.96 17.1667 14.5 17.1667H12.8333C12.3733 17.1667 12 16.7933 12 16.3333C12 15.8725 12.3733 15.5 12.8333 15.5Z" fill="currentColor"/>
</svg>