<svg width="24" height="24" viewBox="0 0 24 24" fill="none" xmlns="http://www.w3.org/2000/svg">
<path fill-rule="evenodd" clip-rule="evenodd" d="M20.3333 21.3333H3.66667C2.7475 21.3333 2 20.5858 2 19.6667V4.66667C2 3.74833 2.7475 3 3.66667 3H20.3333C21.2525 3 22 3.74833 22 4.66667V19.6667C22 20.5858 21.2525 21.3333 20.3333 21.3333ZM20.3308 19.6667L20.3325 8H3.66667V19.6667H20.3308ZM3.66667 4.66667V6.33333H20.3333V4.66667H3.66667ZM9.19967 16.879C8.84588 17.1779 8.32045 17.129 8.02609 16.7697C7.73173 16.4105 7.77991 15.877 8.1337 15.5781C9.3854 14.5206 10.6786 13.9744 12 13.9744C13.3214 13.9744 14.6146 14.5206 15.8663 15.5781C16.2201 15.877 16.2683 16.4105 15.974 16.7697C15.6796 17.129 15.1542 17.1779 14.8004 16.879C13.8298 16.0591 12.9009 15.6667 12 15.6667C11.0992 15.6667 10.1702 16.0591 9.19967 16.879ZM9.5 12.2821C9.96024 12.2821 10.3333 11.9032 10.3333 11.4359C10.3333 10.9686 9.96024 10.5898 9.5 10.5898C9.03976 10.5898 8.66667 10.9686 8.66667 11.4359C8.66667 11.9032 9.03976 12.2821 9.5 12.2821ZM14.5 12.2821C14.9602 12.2821 15.3333 11.9032 15.3333 11.4359C15.3333 10.9686 14.9602 10.5898 14.5 10.5898C14.0398 10.5898 13.6667 10.9686 13.6667 11.4359C13.6667 11.9032 14.0398 12.2821 14.5 12.2821Z" fill="#6B7084"/>
</svg>
