<svg width="24" height="24" viewBox="0 0 24 24" fill="none" xmlns="http://www.w3.org/2000/svg">
<path fill-rule="evenodd" clip-rule="evenodd" d="M20.3333 21.3333H3.66667C2.7475 21.3333 2 20.585 2 19.6667V4.66667C2 3.7475 2.7475 3 3.66667 3H20.3333C21.2525 3 22 3.7475 22 4.66667V19.6667C22 20.585 21.2525 21.3333 20.3333 21.3333ZM3.66667 19.6667H20.3308L20.3325 8H3.66667V19.6667ZM3.66667 4.66667V6.33333H20.3333V4.66667H3.66667Z" fill="#6B7084"/>
<path fill-rule="evenodd" clip-rule="evenodd" d="M12 18.3C8.1025 18.3 6 15.106 6 13.8C6 12.494 8.1025 9.30005 12 9.30005C15.8975 9.30005 18 12.494 18 13.8C18 15.106 15.8975 18.3 12 18.3ZM12 10.6499C8.94724 10.6499 7.50005 13.1766 7.50005 13.7998C7.50005 14.4231 8.94724 16.9498 12 16.9498C15.0528 16.9498 16.5 14.4231 16.5 13.7998C16.5 13.1766 15.0528 10.6499 12 10.6499ZM12 15.9878C10.7938 15.9878 9.81252 15.0065 9.81252 13.8003C9.81252 12.5942 10.7938 11.6128 12 11.6128C13.2062 11.6128 14.1875 12.5942 14.1875 13.8003C14.1875 15.0065 13.2062 15.9878 12 15.9878Z" fill="#6B7084"/>
</svg>
