<svg width="24" height="24" viewBox="0 0 24 24" fill="none" xmlns="http://www.w3.org/2000/svg">
<path fill-rule="evenodd" clip-rule="evenodd" d="M21.1667 18.6667C20.7067 18.6667 20.3333 18.2933 20.3333 17.8333V3.66667H6.16667C5.70667 3.66667 5.33333 3.29417 5.33333 2.83333C5.33333 2.3725 5.70667 2 6.16667 2H20.3333C21.2525 2 22 2.7475 22 3.66667V17.8333C22 18.2933 21.6267 18.6667 21.1667 18.6667ZM18.6667 7V20.3333C18.6667 21.2525 17.9192 22 17 22H3.66667C2.7475 22 2 21.2525 2 20.3333V7C2 6.08083 2.7475 5.33333 3.66667 5.33333H17C17.9192 5.33333 18.6667 6.08083 18.6667 7ZM3.66667 20.3333H16.9975L16.9992 10.3333H3.66667V20.3333ZM3.66667 8.66667H17V7H3.66667V8.66667Z" fill="#6B7084"/>
</svg>
