<svg viewBox="0 0 24 24" fill="none" xmlns="http://www.w3.org/2000/svg">
<path fill-rule="evenodd" clip-rule="evenodd" d="M20.3333 21.3333H3.66667C2.7475 21.3333 2 20.585 2 19.6667V4.66667C2 3.7475 2.7475 3 3.66667 3H20.3333C21.2525 3 22 3.7475 22 4.66667V19.6667C22 20.585 21.2525 21.3333 20.3333 21.3333ZM3.66667 19.6667H20.3308L20.3325 8H3.66667V19.6667ZM3.66667 4.66667V6.33333H20.3333V4.66667H3.66667ZM15.6983 14.0875C15.4383 16.2842 13.5849 18 11.3183 18C10.9066 18 10.5074 17.9425 10.1008 17.8242C9.65911 17.6967 9.40494 17.2342 9.53328 16.7925C9.66078 16.3492 10.1224 16.0925 10.5658 16.2242C12.1466 16.6817 13.6766 15.6442 14.0116 14.1683C13.9016 14.2192 13.7858 14.2508 13.6666 14.2508C13.4533 14.2508 13.2399 14.1692 13.0774 14.0067C12.7516 13.6817 12.7516 13.1542 13.0774 12.8283L14.3283 11.5775C14.4841 11.4217 14.6966 11.3333 14.9174 11.3333C15.1391 11.3333 15.3508 11.4217 15.5066 11.5775L16.7558 12.8283C17.0816 13.1542 17.0816 13.6817 16.7549 14.0075C16.4649 14.2967 16.0233 14.3125 15.6983 14.0875ZM12.6007 11.4425C11.0191 10.9858 9.48907 12.0225 9.15491 13.4983C9.46241 13.3567 9.83574 13.4067 10.0891 13.66C10.4149 13.985 10.4149 14.5125 10.0891 14.8383L8.83824 16.0892C8.68241 16.245 8.46991 16.3333 8.24907 16.3333H8.24824C8.02741 16.3333 7.81574 16.245 7.65991 16.0892L6.40991 14.8383C6.08491 14.5125 6.08491 13.985 6.41074 13.6592C6.70074 13.3708 7.14324 13.3533 7.46824 13.5792C7.72824 11.3825 9.58157 9.66667 11.8482 9.66667C12.2599 9.66667 12.6591 9.72417 13.0657 9.8425C13.5074 9.97 13.7616 10.4325 13.6332 10.8742C13.5057 11.3167 13.0441 11.5708 12.6007 11.4425Z" fill="currentColor"/>
</svg>