<svg width="24" height="24" viewBox="0 0 24 24" fill="none" xmlns="http://www.w3.org/2000/svg">
<path fill-rule="evenodd" clip-rule="evenodd" d="M20.3333 21.3333H3.66667C2.7475 21.3333 2 20.5858 2 19.6667V4.66667C2 3.74833 2.7475 3 3.66667 3H20.3333C21.2525 3 22 3.74833 22 4.66667V19.6667C22 20.5858 21.2525 21.3333 20.3333 21.3333ZM3.66667 19.6667H20.3308L20.3325 8H3.66667V19.6667ZM3.66667 4.66667V6.33333H20.3333V4.66667H3.66667ZM16.1667 17.1667H12.8333C12.3733 17.1667 12 16.7933 12 16.3333C12 15.8725 12.3733 15.5 12.8333 15.5H16.1667C16.6267 15.5 17 15.8725 17 16.3333C17 16.7933 16.6267 17.1667 16.1667 17.1667ZM8.4225 16.9225C8.26 17.085 8.04667 17.1667 7.83334 17.1667C7.62 17.1667 7.40667 17.085 7.24417 16.9225C6.91834 16.5975 6.91834 16.07 7.24417 15.7442L9.155 13.8333L7.24417 11.9225C6.91834 11.5967 6.91834 11.0692 7.24417 10.7442C7.57 10.4183 8.09667 10.4183 8.4225 10.7442L10.9225 13.2442C11.2483 13.57 11.2483 14.0967 10.9225 14.4225L8.4225 16.9225Z" fill="#6B7084"/>
</svg>
