<svg width="24" height="24" viewBox="0 0 24 24" fill="none" xmlns="http://www.w3.org/2000/svg">
<path fill-rule="evenodd" clip-rule="evenodd" d="M20.3333 21.3333C21.2519 21.3333 22 20.5852 22 19.6667V4.66667C22 3.7481 21.2519 3 20.3333 3H3.66667C2.7481 3 2 3.7481 2 4.66667V19.6667C2 20.5852 2.7481 21.3333 3.66667 21.3333H20.3333ZM3.66667 4.66667H20.3333V6.29999L3.66667 6.29999V4.66667ZM3.66667 7.99999L20.3333 7.99999V19.6667H7.84998L7.84998 8H7H6.14998H3.66667V7.99999ZM12.8665 16.9669C12.6531 16.9669 12.4398 16.8852 12.2773 16.7227C11.9515 16.3977 11.9515 15.8702 12.2773 15.5444L14.1881 13.6335L12.2773 11.7227C11.9515 11.3969 11.9515 10.8694 12.2773 10.5444C12.6031 10.2185 13.1298 10.2185 13.4556 10.5444L15.9556 13.0444C16.2815 13.3702 16.2815 13.8969 15.9556 14.2227L13.4556 16.7227C13.2931 16.8852 13.0798 16.9669 12.8665 16.9669Z" fill="#6B7084"/>
</svg>
