<svg width="24" height="24" viewBox="0 0 24 24" fill="none" xmlns="http://www.w3.org/2000/svg">
<g clip-path="url(#clip0_1265_20512)">
<path d="M12 24C18.6274 24 24 18.6274 24 12C24 5.37258 18.6274 0 12 0C5.37258 0 0 5.37258 0 12C0 18.6274 5.37258 24 12 24Z" fill="#FFE600"/>
<path fill-rule="evenodd" clip-rule="evenodd" d="M5.03809 6.34042C5.47906 5.8401 5.97444 5.39052 6.51506 5L8.99636 13.8719L10.096 9.16896H12.1805L13.2796 13.8719L14.5821 9.16896H16.6716L16.6911 9.25256L18.9617 17.4534C18.5502 18.0228 18.0732 18.5419 17.5405 19L15.6249 12.0833L14.5325 16.0282L14.513 16.1118H12.1799L11.1382 12.2483L10.096 16.1118H7.76296L7.74345 16.0282L5.03809 6.34042Z" fill="black"/>
</g>
<defs>
<clipPath id="clip0_1265_20512">
<rect width="24" height="24" fill="white"/>
</clipPath>
</defs>
</svg>
