<svg width="24" height="24" viewBox="0 0 24 24" fill="none" xmlns="http://www.w3.org/2000/svg">
<path fill-rule="evenodd" clip-rule="evenodd" d="M20.0603 10.536C20.0503 10.5452 20.0378 10.5485 20.0286 10.5569C20.0202 10.5661 20.0177 10.5778 20.0093 10.5861L13.2269 17.3701C13.2236 17.3734 13.2186 17.3743 13.2152 17.3776C13.1893 17.4035 13.1525 17.4169 13.1224 17.4395C13.0622 17.4838 13.0028 17.5306 12.935 17.5565C12.9334 17.5573 12.9325 17.559 12.93 17.5598L10.1259 18.613C10.0306 18.649 9.93189 18.6665 9.8332 18.6665C9.6166 18.6665 9.40335 18.5813 9.24361 18.4224C9.01279 18.1909 8.93836 17.8465 9.05293 17.5398L10.1067 14.7362C10.1083 14.7329 10.1117 14.7304 10.1125 14.727C10.1293 14.6852 10.1619 14.651 10.1845 14.6117C10.2187 14.5548 10.248 14.4938 10.2932 14.4479C10.2948 14.4462 10.2957 14.4437 10.2974 14.442L17.0806 7.65553C17.0898 7.64634 17.1023 7.64383 17.1124 7.63463C17.1199 7.62711 17.1216 7.61624 17.1299 7.60872C17.5205 7.2167 18.0415 7.0002 18.5943 7.0002C18.5951 7.0002 18.5951 7.0002 18.5951 7.0002C19.1488 7.0002 19.6698 7.21586 20.0612 7.60789C20.4517 7.99908 20.6667 8.51983 20.6667 9.07234C20.6667 9.62653 20.4509 10.1456 20.0603 10.536ZM18.882 8.78564C18.7783 8.68199 18.6579 8.66611 18.5951 8.66611C18.5332 8.66611 18.4128 8.68199 18.3108 8.78564C18.3008 8.79567 18.2874 8.79818 18.2765 8.80737C18.269 8.81573 18.2673 8.8266 18.2589 8.83412L11.6028 15.4935L11.2599 16.4072L12.1782 16.0619L18.831 9.40836C18.8402 9.39833 18.8527 9.39583 18.8628 9.38663C18.8711 9.37744 18.8736 9.36574 18.8828 9.35738C18.9849 9.25456 18.9999 9.13503 18.9999 9.07234C18.9999 9.00965 18.9849 8.88845 18.882 8.78564ZM18.1661 6.16684C17.7062 6.16684 17.3323 5.79404 17.3323 5.33347V3.66674H10.6352V7.83776C10.6352 8.29832 10.2932 8.66778 9.83321 8.66778H5.61741V20.3759H17.3256L17.3323 15.3331C17.3323 14.8733 17.7062 14.4997 18.1661 14.4997C18.6261 14.4997 18.9991 14.8733 18.9991 15.3331V20.5556C18.9991 21.3514 18.3535 22 17.5598 22H5.43928C4.64563 22 4 21.3514 4 20.5556V7.83441C4 7.81602 4.0092 7.80098 4.01087 7.78259C4.01505 7.70736 4.03011 7.6338 4.0552 7.56192C4.0644 7.53601 4.07109 7.50926 4.08279 7.48418C4.12294 7.39725 4.17395 7.31533 4.2442 7.24428L9.24361 2.24408H9.24445C9.3147 2.17303 9.39749 2.12204 9.48531 2.08108C9.50872 2.07105 9.53298 2.06436 9.55723 2.056C9.63082 2.02926 9.70693 2.01421 9.7847 2.01003C9.80143 2.00919 9.81648 2 9.83321 2H17.5598C18.3535 2 18.9991 2.64864 18.9991 3.44439V5.33347C18.9991 5.79404 18.6261 6.16684 18.1661 6.16684ZM8.99942 7.00021V4.84532L6.8451 7.00021H8.99942Z" fill="#6B7084"/>
</svg>
