<svg width="24" height="24" viewBox="0 0 24 24" fill="none" xmlns="http://www.w3.org/2000/svg">
<g clip-path="url(#clip0_1265_20507)">
<path d="M12 24C18.6274 24 24 18.6274 24 12C24 5.37258 18.6274 0 12 0C5.37258 0 0 5.37258 0 12C0 18.6274 5.37258 24 12 24Z" fill="#8200FF"/>
<path fill-rule="evenodd" clip-rule="evenodd" d="M13.5691 9.87352L13.1271 9.98207C12.728 10.0796 12.4485 10.4306 12.4485 10.8336V13.7833L10.9879 14.1408C10.8735 14.1697 10.7523 14.1523 10.6506 14.0925C10.5488 14.0326 10.4748 13.9351 10.4446 13.821C10.4358 13.7861 10.4314 13.7503 10.4315 13.7144V8.80362C10.4315 8.60212 10.5713 8.42662 10.7708 8.37722L13.012 7.82862C13.1265 7.79969 13.2477 7.81705 13.3494 7.87691C13.4512 7.93678 13.5252 8.03433 13.5554 8.14842C13.5645 8.18287 13.5684 8.21862 13.5684 8.25437V9.87352H13.5691ZM8.6382 9.84622L8.0844 9.98207C7.6853 10.0796 7.40515 10.4306 7.40515 10.8336V13.8106L6.05705 14.1408C5.94262 14.1697 5.82139 14.1523 5.71967 14.0925C5.61795 14.0326 5.54392 13.9351 5.51365 13.821C5.50466 13.7861 5.50008 13.7503 5.5 13.7144V8.80362C5.5 8.60212 5.63975 8.42662 5.8393 8.37722L8.08115 7.82862C8.19558 7.79969 8.31681 7.81705 8.41853 7.87691C8.52025 7.93678 8.59428 8.03433 8.62455 8.14842C8.63365 8.18287 8.63755 8.21862 8.63755 8.25437V9.84687L8.6382 9.84622ZM15.7017 8.39087L17.9429 7.84227C18.0573 7.81332 18.1784 7.83058 18.2801 7.89032C18.3819 7.95005 18.4559 8.04745 18.4864 8.16142C18.4954 8.19623 18.5 8.23205 18.5 8.26802V13.1794C18.5 13.3809 18.3602 13.5564 18.1607 13.6052L15.9188 14.1538C15.8045 14.1827 15.6834 14.1654 15.5817 14.1057C15.4799 14.046 15.4059 13.9486 15.3755 13.8346C15.3667 13.7998 15.3623 13.764 15.3624 13.728V8.81662C15.3624 8.61512 15.5022 8.43962 15.7017 8.39087Z" fill="white"/>
<path opacity="0.504" fill-rule="evenodd" clip-rule="evenodd" d="M9.98292 9.96997V13.7146C9.98292 13.7861 9.99137 13.8576 10.0089 13.9278C10.065 14.138 10.1955 14.3207 10.3761 14.4418C10.5568 14.5629 10.7754 14.6143 10.9911 14.5863V15.1966C10.9911 15.3981 10.8513 15.5736 10.6518 15.6224L8.41057 16.171C8.29613 16.2001 8.17482 16.1829 8.07296 16.1232C7.97111 16.0634 7.89692 15.9659 7.86652 15.8518C7.85775 15.817 7.85338 15.7812 7.85352 15.7452V10.8338C7.85352 10.6323 7.99327 10.4568 8.19282 10.4081L9.98292 9.96997ZM14.9138 9.99727V13.7283C14.9138 13.7998 14.9229 13.8713 14.9398 13.9415C15.0607 14.4114 15.5476 14.6974 16.0279 14.5798L16.0344 14.5785V15.196C16.0336 15.2947 15.9998 15.3904 15.9383 15.4677C15.8768 15.545 15.7912 15.5994 15.6951 15.6224L13.4533 16.171C13.3389 16.1999 13.2178 16.1827 13.1161 16.1229C13.0144 16.0632 12.9403 15.9658 12.9099 15.8518C12.9011 15.817 12.8967 15.7812 12.8969 15.7452V10.8338C12.8969 10.6323 13.0366 10.4568 13.2362 10.4081L14.9132 9.99727H14.9138Z" fill="white"/>
</g>
<defs>
<clipPath id="clip0_1265_20507">
<rect width="24" height="24" fill="white"/>
</clipPath>
</defs>
</svg>
