<svg viewBox="0 0 24 24" fill="none" xmlns="http://www.w3.org/2000/svg">
<g clip-path="url(#clip0_1265_20500)">
<path d="M12 24C18.6274 24 24 18.6274 24 12C24 5.37258 18.6274 0 12 0C5.37258 0 0 5.37258 0 12C0 18.6274 5.37258 24 12 24Z" fill="#3B5998"/>
<path fill-rule="evenodd" clip-rule="evenodd" d="M10.7761 5.67969H11.9998V9.50816L10.7761 8.23048V5.67969Z" fill="white"/>
<path fill-rule="evenodd" clip-rule="evenodd" d="M5.50065 6.97038H8.72185C9.81337 8.11267 10.9095 9.25301 12.001 10.3979C12.633 9.74117 13.263 9.07988 13.8924 8.42119C14.3578 7.93889 14.8212 7.45398 15.2853 6.96973H18.4987C16.9991 8.48627 15.5014 10.0041 14.0011 11.5194C13.8436 11.6775 13.6855 11.837 13.5312 11.9971C13.5689 12.0375 13.6093 12.0772 13.6431 12.1201L18.0502 16.576L18.5 17.0291H16.0071C15.9427 17.0291 15.8783 17.033 15.8151 17.0245C15.6374 17.0193 15.4591 17.0271 15.2814 17.0206C14.9592 16.688 14.6409 16.3508 14.3188 16.0169C13.6855 15.3583 13.0547 14.6957 12.4214 14.0357C12.2809 13.8899 12.1435 13.7402 11.9997 13.5983C11.6938 13.9237 11.38 14.2446 11.0722 14.57L9.32977 16.3886C9.1267 16.6001 8.92623 16.813 8.72185 17.0206C8.54611 17.0258 8.36907 17.0206 8.19203 17.0232C8.09115 17.0356 7.98896 17.0271 7.88807 17.0297H5.5L10.2306 12.2457C10.3119 12.1637 10.3927 12.0811 10.4714 11.9971L5.5 6.97038H5.50065Z" fill="white"/>
<path fill-rule="evenodd" clip-rule="evenodd" d="M12.0025 14.4805C12.41 14.912 12.8226 15.339 13.2314 15.7692C13.234 16.6199 13.2314 17.4693 13.2314 18.3207H12.0012C12.0012 17.0404 12.0012 15.7607 12.0038 14.4805H12.0025Z" fill="white"/>
</g>
<defs>
<clipPath id="clip0_1265_20500">
<rect width="24" height="24" fill="white"/>
</clipPath>
</defs>
</svg>