<svg width="24" height="24" viewBox="0 0 24 24" fill="none" xmlns="http://www.w3.org/2000/svg">
<g clip-path="url(#clip0_1265_20496)">
<path d="M12 24C18.6274 24 24 18.6274 24 12C24 5.37258 18.6274 0 12 0C5.37258 0 0 5.37258 0 12C0 18.6274 5.37258 24 12 24Z" fill="#FAA00D"/>
<path d="M18.9944 10.2297L12.3661 17.9367L12.0686 18.3L5.0049 10.3074L5.0273 10.2983L5 10.2941L7.7454 5.70415L7.7468 5.70555L7.7454 5.69995H16.3232L16.3218 5.70485L19 10.229L18.9944 10.2297ZM9.7992 10.551L8.2802 13.1228L12.0266 17.4012L15.7807 13.0878L14.2953 10.5433L9.7992 10.551ZM7.8546 12.637L9.0866 10.5517L6.0332 10.5566L7.8546 12.637ZM14.6607 9.94475L18.1285 9.93915L15.9515 6.29355L12.5341 6.30055L14.6607 9.94475ZM18.0004 10.537L15.0093 10.5419L16.2084 12.5964L18.0004 10.537ZM13.9467 9.94615L12.063 6.71775L10.152 9.95175L13.9467 9.94615ZM8.0674 6.31035L5.8974 9.95945L9.4394 9.95315L11.5954 6.30335L8.0674 6.31035Z" fill="white"/>
</g>
<defs>
<clipPath id="clip0_1265_20496">
<rect width="24" height="24" fill="white"/>
</clipPath>
</defs>
</svg>
