<svg width="24" height="24" viewBox="0 0 24 24" fill="none" xmlns="http://www.w3.org/2000/svg">
<g clip-path="url(#clip0_1265_20492)">
<path d="M12 24C18.6274 24 24 18.6274 24 12C24 5.37258 18.6274 0 12 0C5.37258 0 0 5.37258 0 12C0 18.6274 5.37258 24 12 24Z" fill="#F7931A"/>
<path d="M16.9157 14.6391L16.5765 15.9976L15.6711 15.7723L16.0096 14.4132L14.6512 14.0747L14.8771 13.1693L16.2355 13.5078L16.5747 12.1494L17.4801 12.3753L17.1416 13.7337L18.5 14.0722L18.2741 14.9783L16.9157 14.6391ZM13.5759 10.9092C13.4496 11.7493 12.9916 12.1575 12.3861 12.3031C13.2144 12.7406 13.6338 13.4151 13.225 14.5912C12.7172 16.0517 11.5286 16.1811 9.95053 15.8855L9.55849 17.4549L8.63379 17.2247L9.02022 15.6752C8.77393 15.6143 8.52833 15.5506 8.28345 15.4842L7.89515 17.0399L6.97169 16.8096L7.36372 15.2365C7.14717 15.1811 6.92813 15.1226 6.70411 15.0666L5.5 14.7661L5.96546 13.6821C5.96546 13.6821 6.64686 13.8631 6.63752 13.8501C6.90012 13.9142 7.01711 13.7393 7.06378 13.6229L7.68233 11.1413L7.78065 11.1656C7.74924 11.153 7.71701 11.1426 7.68419 11.1345L8.12601 9.36284C8.13846 9.16184 8.07187 8.9092 7.69664 8.81523C7.71157 8.8059 7.0252 8.64846 7.0252 8.64846L7.27722 7.63789L8.55289 7.95649L8.55165 7.96085C8.74331 8.00876 8.94119 8.05419 9.14281 8.09961L9.53049 6.54517L10.4552 6.77541L10.075 8.29999C10.3233 8.35599 10.5728 8.41324 10.8155 8.47423L11.1932 6.96022L12.1185 7.19047L11.7309 8.74554C12.8983 9.15002 13.7502 9.76172 13.5759 10.9092ZM11.4434 13.949C11.7489 12.7231 9.73709 12.4182 9.10983 12.2614L8.59147 14.3442C9.21873 14.4997 11.1521 15.1239 11.4446 13.9484L11.4434 13.949ZM11.7464 10.9024C12.024 9.78661 10.3413 9.54765 9.81923 9.4176L9.34816 11.3075C9.87025 11.4381 11.4795 11.9714 11.7464 10.9024Z" fill="white"/>
</g>
<defs>
<clipPath id="clip0_1265_20492">
<rect width="24" height="24" fill="white"/>
</clipPath>
</defs>
</svg>
