<svg width="24" height="24" viewBox="0 0 24 24" fill="none" xmlns="http://www.w3.org/2000/svg">
<g clip-path="url(#clip0_1265_20488)">
<path d="M12 24C18.6274 24 24 18.6274 24 12C24 5.37258 18.6274 0 12 0C5.37258 0 0 5.37258 0 12C0 18.6274 5.37258 24 12 24Z" fill="#21AF67"/>
<path d="M12 18.5C8.41038 18.5 5.5 15.5896 5.5 12C5.5 8.41038 8.41038 5.5 12 5.5C15.5896 5.5 18.5 8.41038 18.5 12C18.5 15.5896 15.5896 18.5 12 18.5ZM14.4987 9.64429C14.4034 9.51429 14.2479 9.40867 14.0345 9.32633C13.8216 9.24454 13.5286 9.20338 13.157 9.20338H12.3716L13.0091 7.45108L13.4343 6.28271C13.0071 6.1761 12.5692 6.11778 12.1289 6.10883C12.0856 6.10883 12.0423 6.10558 11.9989 6.10558C11.9324 6.10603 11.866 6.10783 11.7996 6.111C8.64221 6.21608 6.10558 8.81608 6.10558 12C6.10558 13.697 6.83792 15.3112 8.11517 16.4276L8.57721 15.1574C7.78125 14.2986 7.33916 13.1709 7.3395 12C7.3395 9.65567 9.07933 7.71163 11.3354 7.38771C11.447 7.37146 11.5623 7.36062 11.6766 7.35088L9.97471 12.0276L13.3704 11.6934C13.3687 11.6925 13.3669 11.6918 13.365 11.6913C13.4706 11.6571 13.5719 11.6122 13.6683 11.5558C13.9162 11.4136 14.1342 11.2247 14.3102 10.9995C14.4066 10.875 14.4835 10.7352 14.5366 10.5863C14.5962 10.427 14.6303 10.2591 14.6374 10.0895C14.6441 9.92955 14.5951 9.77218 14.4987 9.64429ZM13.0503 10.7845C12.9761 10.986 12.8607 11.1279 12.7009 11.2097C12.5513 11.2894 12.3846 11.3318 12.215 11.3332H11.603L12.0135 10.2044H12.6256C12.6988 10.2044 12.7719 10.2136 12.8423 10.2325C12.9068 10.2478 12.9664 10.2791 13.0156 10.3235C13.0636 10.3713 13.0926 10.4348 13.0974 10.5023C13.1036 10.5987 13.0875 10.6953 13.0503 10.7845ZM13.7333 6.36558L13.3103 7.52854C13.9193 7.70658 14.4856 8.00712 14.9744 8.41175C15.4631 8.81637 15.8641 9.31656 16.1528 9.88164C16.4414 10.4467 16.6116 11.0648 16.6529 11.698C16.6942 12.3312 16.6057 12.9661 16.393 13.5639C16.1802 14.1617 15.8476 14.7097 15.4155 15.1744C14.9834 15.6391 14.461 16.0107 13.8803 16.2663C13.2995 16.522 12.6727 16.6563 12.0382 16.6611C11.4037 16.666 10.7749 16.5411 10.1903 16.2943C10.0952 16.2536 10.0014 16.2097 9.90917 16.1627L10.3923 14.8383H11.1767C11.8873 14.8383 12.4702 14.7181 12.9262 14.4765C13.3818 14.2355 13.7063 13.8503 13.8996 13.3206C13.9706 13.1245 13.9971 12.9523 13.976 12.8038C13.9605 12.6687 13.9157 12.5386 13.8449 12.4225C13.7813 12.3206 13.6963 12.2337 13.5957 12.1679C13.5171 12.1169 13.4336 12.0737 13.3466 12.039L9.92 12.377L8.81771 15.4L8.36813 16.6372C8.79506 16.9723 9.26602 17.2472 9.76779 17.454C10.4757 17.7455 11.2341 17.895 12 17.8944C15.25 17.8944 17.8944 15.2505 17.8944 12C17.8944 9.35287 16.1405 7.10767 13.7333 6.36558ZM11.22 12.5812H11.935C12.0206 12.5818 12.1056 12.5899 12.1896 12.6056C12.2708 12.6186 12.3494 12.6484 12.4193 12.6923C12.4843 12.7367 12.5308 12.8028 12.5503 12.8786C12.5731 12.9604 12.5612 13.0676 12.513 13.2003C12.4703 13.3275 12.4009 13.4441 12.3093 13.5421C12.2324 13.6218 12.1414 13.6862 12.0406 13.7328C11.9478 13.7749 11.8492 13.803 11.7481 13.8162C11.6589 13.8286 11.569 13.8351 11.4789 13.8357H10.7623L11.22 12.5812Z" fill="white"/>
</g>
<defs>
<clipPath id="clip0_1265_20488">
<rect width="24" height="24" fill="white"/>
</clipPath>
</defs>
</svg>
