<svg width="24" height="24" viewBox="0 0 24 24" fill="none" xmlns="http://www.w3.org/2000/svg">
<g clip-path="url(#clip0_1265_20484)">
<path d="M12 24C18.6274 24 24 18.6274 24 12C24 5.37258 18.6274 0 12 0C5.37258 0 0 5.37258 0 12C0 18.6274 5.37258 24 12 24Z" fill="#56F4F1"/>
<path d="M5.5 6.4855C5.5 6.47575 5.6365 6.4751 7.3967 6.4764L9.29405 6.47835L10.373 8.2938L11.4703 10.1404L11.4885 10.171L11.66 9.8785C11.7536 9.7173 11.8303 9.58275 11.8291 9.57885C11.8278 9.57495 11.415 8.87815 10.9125 8.03185C10.4101 7.18555 9.99865 6.4894 9.99865 6.48485C9.99865 6.4764 10.284 6.4751 11.9961 6.4751C13.105 6.4751 13.9929 6.4777 13.9929 6.4816C13.9929 6.4946 9.75815 13.6946 9.7484 13.6966C9.74125 13.6979 9.1218 12.6514 7.619 10.0975C6.45355 8.117 5.5 6.492 5.5 6.4855ZM14.691 6.47965C14.691 6.47705 15.549 6.4751 16.5961 6.4751H18.5L18.4974 6.4894C18.4955 6.49785 17.5464 8.11505 16.3888 10.0832C14.9854 12.4668 14.2789 13.6621 14.2698 13.6634C14.2613 13.6647 14.0624 13.3339 13.3955 12.2113C12.9197 11.4118 12.5291 10.7553 12.5265 10.754C12.5213 10.7508 12.18 11.3299 12.1826 11.3377C12.1833 11.341 12.5752 12.0007 13.0523 12.8041C13.3456 13.2919 13.6337 13.7827 13.9168 14.2764C13.911 14.2991 12.0084 17.5231 12.0006 17.5251C11.9883 17.5277 10.0968 14.3141 10.1007 14.2978C10.104 14.2907 14.6208 6.59535 14.6903 6.47965H14.691Z" fill="black"/>
</g>
<defs>
<clipPath id="clip0_1265_20484">
<rect width="24" height="24" fill="white"/>
</clipPath>
</defs>
</svg>
