<svg viewBox="0 0 24 24" fill="none" xmlns="http://www.w3.org/2000/svg">
<g clip-path="url(#clip0_1265_20469)">
<path d="M12 24C18.6274 24 24 18.6274 24 12C24 5.37258 18.6274 0 12 0C5.37258 0 0 5.37258 0 12C0 18.6274 5.37258 24 12 24Z" fill="#FFCE47"/>
<path fill-rule="evenodd" clip-rule="evenodd" d="M14.9906 16.5819H9.01449C9.00845 16.5931 9.00146 16.6038 8.99358 16.6138L8.80652 16.8806H15.196L15.0099 16.6149C15.0027 16.6044 14.9962 16.5933 14.9906 16.5819ZM8.07246 17.9274L8.45398 17.3833H15.5482L15.9294 17.9274H8.07246ZM7.37223 18.0408L6.98145 18.5965C6.95463 18.6343 6.93871 18.6788 6.93542 18.7251C6.93303 18.7709 6.9428 18.8165 6.96374 18.8573C6.98469 18.8982 7.01655 18.9325 7.05579 18.9564C7.09534 18.9802 7.14062 18.9929 7.18679 18.993C7.22875 18.9951 7.27055 18.9865 7.30834 18.9682C7.34394 18.9491 7.37463 18.922 7.39803 18.8891L7.71992 18.4301H16.2816L16.6031 18.8891C16.6277 18.9213 16.6597 18.9472 16.6963 18.9646C16.7327 18.9837 16.7733 18.9935 16.8143 18.9929L16.8191 19C16.8649 18.9999 16.9098 18.9873 16.9489 18.9634C16.9887 18.9391 17.0209 18.9041 17.0417 18.8623C17.0626 18.8206 17.0713 18.7738 17.0669 18.7274C17.0637 18.6816 17.0482 18.6376 17.0221 18.5999L15.6015 16.5819H16.9572C16.9904 16.5825 17.0233 16.5765 17.054 16.5642C17.1159 16.5384 17.1652 16.4892 17.1909 16.4273C17.2037 16.3966 17.2101 16.3637 17.2098 16.3305V11.7667C17.2146 11.7467 17.217 11.7262 17.2168 11.7055C17.217 11.6847 17.2146 11.6639 17.2098 11.6437V8.57379C17.2141 8.55591 17.2164 8.53758 17.2168 8.51911C17.217 8.49843 17.2146 8.47785 17.2098 8.45784V7.62581C17.2095 6.92949 16.9327 6.26179 16.4404 5.76943C15.948 5.27706 15.2803 5.00031 14.584 5H9.4197C8.72319 5 8.05518 5.27661 7.56256 5.76901C7.06994 6.26141 6.79303 6.92929 6.79272 7.62581V8.47478C6.78963 8.49051 6.78803 8.50654 6.78796 8.52265C6.78803 8.53894 6.78963 8.55516 6.79272 8.57108V11.6345C6.78652 11.6568 6.78331 11.6799 6.7832 11.7032C6.78331 11.7261 6.78652 11.749 6.79272 11.771V16.3305C6.79247 16.3637 6.79889 16.3966 6.8116 16.4273C6.82421 16.4577 6.84265 16.4854 6.86589 16.5087C6.88894 16.5323 6.91668 16.5508 6.94732 16.563C6.97798 16.5757 7.01089 16.5821 7.04409 16.5819H8.39814L7.38142 18.0277C7.37821 18.0319 7.37515 18.0363 7.37223 18.0408ZM16.7059 11.9534V16.0803H7.29428V11.9534H9.34652V11.9557C9.35939 11.9559 9.37222 11.9551 9.3849 11.9534H10.8414C10.8455 11.9535 10.8495 11.9535 10.8536 11.9535L10.8623 11.9534H16.7059ZM11.406 11.4542H16.7059V8.77284H7.29428V11.4542H9.23225L10.3036 10.2338C10.3369 10.1986 10.3797 10.1738 10.4268 10.1623C10.4739 10.1508 10.5233 10.1532 10.5691 10.1692C10.6148 10.1851 10.655 10.214 10.6848 10.2523C10.7145 10.2905 10.7325 10.3366 10.7367 10.3849C10.7426 10.4497 10.7227 10.5141 10.6813 10.5643L9.90071 11.4542H10.7374L12.9566 8.92523C12.9785 8.90068 13.0049 8.88063 13.0345 8.86622C13.064 8.85169 13.0961 8.84326 13.1289 8.84144C13.162 8.83886 13.1953 8.84287 13.2269 8.85324C13.258 8.86438 13.2868 8.88118 13.3118 8.90281C13.3614 8.94693 13.3915 9.00886 13.3956 9.07511C13.3983 9.10783 13.3942 9.14075 13.3838 9.17188C13.3734 9.20337 13.3566 9.23232 13.3342 9.25685L11.406 11.4542ZM16.7059 8.26774H7.29428V7.62581C7.29428 7.06242 7.51808 6.52211 7.91645 6.12374C8.31483 5.72536 8.85514 5.50156 9.41852 5.50156H14.5816C15.145 5.50156 15.6853 5.72536 16.0837 6.12374C16.4821 6.52211 16.7059 7.06242 16.7059 7.62581V8.26774ZM9.34662 15.0243C9.10458 15.0248 8.86985 14.9414 8.68246 14.7882C8.49507 14.635 8.36663 14.4215 8.31906 14.1842C8.27149 13.9469 8.30772 13.7004 8.42158 13.4868C8.53545 13.2732 8.71988 13.1057 8.94343 13.0129C9.16698 12.9202 9.4158 12.9078 9.64745 12.978C9.87909 13.0482 10.0792 13.1965 10.2137 13.3978C10.3481 13.599 10.4086 13.8407 10.3848 14.0816C10.361 14.3225 10.2543 14.5476 10.083 14.7186C9.88778 14.9141 9.6229 15.024 9.34662 15.0243ZM9.34662 13.4405C9.23954 13.4405 9.13484 13.4721 9.04569 13.5314C8.95696 13.5913 8.88765 13.6758 8.84624 13.7745C8.80522 13.8735 8.79453 13.9824 8.81554 14.0875C8.83655 14.1925 8.88832 14.289 8.96426 14.3646C9.02723 14.4271 9.10463 14.4732 9.18962 14.4987C9.27461 14.5242 9.36457 14.5284 9.45157 14.5109C9.53858 14.4934 9.61994 14.4548 9.68847 14.3984C9.757 14.3421 9.8106 14.2697 9.84453 14.1877C9.87846 14.1057 9.89168 14.0166 9.88302 13.9283C9.87436 13.84 9.84409 13.7551 9.79488 13.6813C9.74567 13.6074 9.67903 13.5468 9.60085 13.5049C9.52268 13.4629 9.43536 13.4408 9.34662 13.4405ZM13.9917 14.7873C14.1783 14.9404 14.4122 15.0241 14.6536 15.024C14.7906 15.0241 14.9263 14.9971 15.0528 14.9446C15.1794 14.8922 15.2944 14.8153 15.3912 14.7184C15.5618 14.5477 15.668 14.3231 15.6916 14.0829C15.7153 13.8427 15.6549 13.6017 15.5208 13.4011C15.3866 13.2004 15.1871 13.0525 14.9561 12.9824C14.7251 12.9124 14.477 12.9246 14.254 13.017C14.0311 13.1094 13.847 13.2763 13.7333 13.4892C13.6195 13.702 13.5831 13.9478 13.6303 14.1845C13.6774 14.4212 13.8051 14.6343 13.9917 14.7873ZM14.3539 13.5312C14.4427 13.4721 14.5469 13.4405 14.6536 13.4403C14.7516 13.4402 14.8478 13.4667 14.9319 13.517C15.016 13.5674 15.0848 13.6396 15.131 13.7261C15.1772 13.8125 15.199 13.9099 15.1941 14.0077C15.1892 14.1056 15.1578 14.2003 15.1032 14.2817C15.0439 14.3706 14.9595 14.4399 14.8608 14.4809C14.7621 14.5219 14.6534 14.5326 14.5486 14.5119C14.4438 14.4907 14.3476 14.439 14.2721 14.3633C14.1967 14.2876 14.1453 14.1912 14.1245 14.0864C14.1037 13.9815 14.1143 13.8729 14.1551 13.7741C14.196 13.6753 14.2651 13.5907 14.3539 13.5312ZM13.5076 6.85156H10.4924C10.4595 6.85159 10.427 6.84515 10.3966 6.83259C10.3662 6.82004 10.3386 6.80162 10.3154 6.77839C10.2921 6.75516 10.2736 6.72756 10.2611 6.69719C10.2485 6.66682 10.242 6.63426 10.242 6.60137C10.242 6.56849 10.2485 6.53593 10.2611 6.50556C10.2736 6.47518 10.2921 6.44759 10.3154 6.42435C10.3386 6.40113 10.3662 6.38271 10.3966 6.37016C10.427 6.3576 10.4595 6.35116 10.4924 6.35118H13.5076C13.5743 6.35118 13.6382 6.37767 13.6854 6.42481C13.7325 6.47195 13.759 6.53589 13.759 6.60255C13.759 6.66922 13.7325 6.73316 13.6854 6.7803C13.6382 6.82744 13.5743 6.85392 13.5076 6.85392V6.85156Z" fill="#32407B"/>
</g>
<defs>
<clipPath id="clip0_1265_20469">
<rect width="24" height="24" fill="white"/>
</clipPath>
</defs>
</svg>