<svg viewBox="0 0 24 24" fill="none" xmlns="http://www.w3.org/2000/svg">
<g clip-path="url(#clip0_1265_20465)">
<path d="M12 24C18.6274 24 24 18.6274 24 12C24 5.37258 18.6274 0 12 0C5.37258 0 0 5.37258 0 12C0 18.6274 5.37258 24 12 24Z" fill="#ED1650"/>
<path fill-rule="evenodd" clip-rule="evenodd" d="M16.7792 7.54565H14.2014C14.1491 7.54575 14.0973 7.55628 14.0492 7.57664C14.001 7.597 13.9574 7.62678 13.9209 7.66422L9.21982 12.4635C9.18332 12.5009 9.13971 12.5307 9.09155 12.551C9.04339 12.5714 8.99164 12.5819 8.93935 12.582H8.07754C8.02525 12.5819 7.97351 12.5714 7.92534 12.551C7.87718 12.5307 7.83357 12.5009 7.79707 12.4635L7.18768 11.8426C7.11301 11.7665 7.07114 11.6643 7.07103 11.5577V10.6799C7.07104 10.5731 7.11292 10.4706 7.18768 10.3944L7.79707 9.77349C7.83359 9.73608 7.87721 9.70632 7.92536 9.68597C7.97352 9.66561 8.02526 9.65506 8.07754 9.65493H8.93935C9.04453 9.65493 9.14524 9.69764 9.21982 9.77349L9.594 10.1547C9.63047 10.1921 9.67408 10.2219 9.72225 10.2423C9.77042 10.2626 9.82218 10.2731 9.87447 10.2731C9.92676 10.2731 9.97852 10.2626 10.0267 10.2423C10.0749 10.2219 10.1185 10.1921 10.1549 10.1547L11.0595 9.23422C11.1339 9.1578 11.1756 9.05534 11.1756 8.94865C11.1756 8.84196 11.1339 8.7395 11.0595 8.66308L10.0778 7.66422C10.0413 7.6268 9.99767 7.59705 9.94952 7.57669C9.90136 7.55633 9.84963 7.54578 9.79734 7.54565H7.21955C7.16727 7.54578 7.11553 7.55633 7.06738 7.57669C7.01922 7.59705 6.9756 7.6268 6.93908 7.66422L5.11601 9.52043C5.04149 9.59679 4.99984 9.6993 5 9.806V12.431C5 12.538 5.04207 12.6413 5.11601 12.7165L6.93908 14.5734C6.97566 14.6107 7.01929 14.6403 7.06745 14.6606C7.11561 14.6808 7.16731 14.6913 7.21955 14.6913H9.79798C9.85026 14.6912 9.902 14.6806 9.95015 14.6603C9.99831 14.6399 10.0419 14.6102 10.0785 14.5727L14.7795 9.77413C14.816 9.7366 14.8596 9.70673 14.9078 9.68626C14.9559 9.66579 15.0077 9.65514 15.06 9.65493H15.9218C16.027 9.65493 16.1277 9.69764 16.2023 9.77349L16.8117 10.3944C16.8864 10.4706 16.9283 10.5731 16.9283 10.6799V11.5577C16.9282 11.6642 16.8863 11.7665 16.8117 11.8426L16.2023 12.4635C16.1658 12.5009 16.1222 12.5307 16.074 12.551C16.0259 12.5714 15.9741 12.5819 15.9218 12.582H15.06C15.0077 12.5819 14.956 12.5714 14.9078 12.551C14.8596 12.5307 14.816 12.5009 14.7795 12.4635L14.4022 12.0791C14.366 12.0419 14.3227 12.0123 14.275 11.992C14.2272 11.9716 14.1759 11.961 14.124 11.9607C14.0721 11.9604 14.0206 11.9705 13.9726 11.9902C13.9246 12.01 13.881 12.0391 13.8444 12.0759L12.7289 13.1863C12.691 13.2243 12.661 13.2693 12.6406 13.3188C12.6201 13.3684 12.6096 13.4215 12.6097 13.4751V16.0503C12.6097 16.2734 12.7876 16.4545 13.0062 16.4545H14.3066C14.3591 16.454 14.4111 16.4433 14.4595 16.4228C14.5079 16.4023 14.5518 16.3724 14.5887 16.335C14.6256 16.2975 14.6547 16.2531 14.6744 16.2044C14.6942 16.1557 14.7041 16.1035 14.7037 16.051V15.0948C14.7037 14.8717 14.8815 14.6913 15.1002 14.6913H16.7798C16.8321 14.6913 16.8838 14.6808 16.9319 14.6606C16.9801 14.6403 17.0237 14.6107 17.0603 14.5734L18.8833 12.7165C18.9581 12.6403 19 12.5377 19 12.431V9.806C19.0002 9.6993 18.9585 9.59679 18.884 9.52043L17.0609 7.66422C17.0244 7.6268 16.9808 7.59705 16.9326 7.57669C16.8845 7.55633 16.8327 7.54578 16.7804 7.54565" fill="white"/>
</g>
<defs>
<clipPath id="clip0_1265_20465">
<rect width="24" height="24" fill="white"/>
</clipPath>
</defs>
</svg>