<svg width="24" height="24" viewBox="0 0 24 24" fill="none" xmlns="http://www.w3.org/2000/svg">
<g clip-path="url(#clip0_1265_20461)">
<path d="M12 24C18.6274 24 24 18.6274 24 12C24 5.37258 18.6274 0 12 0C5.37258 0 0 5.37258 0 12C0 18.6274 5.37258 24 12 24Z" fill="#4F7AA2"/>
<path d="M10.2875 9.45459H12.0299C12.8712 9.45459 14.3736 9.96559 14.3736 12C14.3736 14.0345 12.8718 14.5455 12.0299 14.5455H10.2882L10.2875 9.45459ZM11.2485 13.5146H11.9701C12.5708 13.5146 13.2918 13.1468 13.2918 12C13.2918 10.8533 12.5708 10.4855 11.9701 10.4855H11.2491L11.2485 13.5146ZM15.0355 9.45459H15.3956L18.6398 13.9257V9.45459H19V14.5455H18.6392L15.395 10.1724V14.5455H15.0342L15.0355 9.45459ZM5 9.45459H6.20145V10.7273H5V9.45459ZM6.80282 9.45459H8.00364V10.7273H6.80282V9.45459ZM8.605 9.45459H9.80709V10.7273H8.605V9.45459ZM8.605 11.3637H9.80709V12.6364H8.605V11.3637ZM8.605 13.2728H9.80709V14.5455H8.605V13.2728ZM6.80282 11.3637H8.00364V12.6364H6.80282V11.3637Z" fill="white"/>
</g>
<defs>
<clipPath id="clip0_1265_20461">
<rect width="24" height="24" fill="white"/>
</clipPath>
</defs>
</svg>
