<svg width="24" height="24" viewBox="0 0 24 24" fill="none" xmlns="http://www.w3.org/2000/svg">
<g clip-path="url(#clip0_1265_20457)">
<path d="M12 24C18.6274 24 24 18.6274 24 12C24 5.37258 18.6274 0 12 0C5.37258 0 0 5.37258 0 12C0 18.6274 5.37258 24 12 24Z" fill="#67B2E8"/>
<path fill-rule="evenodd" clip-rule="evenodd" d="M6.087 8.97291C6.03085 8.51143 6.0018 8.04705 6 7.58218C6.78747 7.13363 7.62314 6.77557 8.49108 6.51483C9.70885 6.14838 10.9767 5.97568 12.2481 6.00306C12.5889 6.00965 13.082 6.04745 13.4564 6.08765C12.9814 6.34241 12.5695 6.70053 12.2513 7.1356C11.933 7.57068 11.7164 8.07163 11.6175 8.60153C11.5815 8.78992 11.5617 8.98551 11.5551 9.1943C11.5455 9.51588 11.5143 9.76907 11.4471 10.0061C11.2961 10.5402 10.985 11.0153 10.5559 11.3674C10.1268 11.7195 9.60019 11.9318 9.04685 11.9757C8.4935 12.0196 7.93997 11.893 7.4607 11.613C6.98143 11.3329 6.5994 10.9129 6.36598 10.4092C6.33959 10.3516 6.31948 10.2912 6.30598 10.2292C6.21096 9.8146 6.13786 9.39524 6.087 8.97291ZM16.0543 14.1087C15.9115 14.3306 15.7603 14.5466 15.6031 14.7596C15.608 14.1537 15.4572 13.5566 15.1651 13.0257C14.8647 12.4664 14.4202 11.9976 13.8776 11.668L13.8236 11.635C13.7936 11.6173 13.7638 11.5993 13.7342 11.581C13.052 11.1472 12.6363 10.54 12.4899 9.75647C12.3628 9.0739 12.5025 8.3686 12.8802 7.786C13.2578 7.2034 13.8446 6.78792 14.5196 6.62522C15.0116 6.50643 15.4975 6.52323 15.9817 6.67502C16.3531 6.79202 16.7287 6.94501 17.1864 7.1592C17.4504 7.28339 17.7168 7.42138 18 7.58158C17.9961 8.41829 17.9052 9.25234 17.7288 10.0703C17.4209 11.5069 16.8537 12.8754 16.0549 14.1087H16.0543ZM14.2322 16.3123C13.5548 16.9579 12.806 17.5241 12.0003 18.0001C11.7921 17.8801 11.5886 17.7522 11.3901 17.6167C9.46573 16.3224 7.94919 14.5075 7.01755 12.3837C7.46137 12.6448 7.95694 12.8055 8.46948 12.8547C9.22297 12.931 9.98141 12.7688 10.6378 12.3909C10.9533 12.2112 11.3011 12.0952 11.6613 12.0496C12.3001 11.9689 12.9467 12.1181 13.4856 12.4705C14.0244 12.8229 14.4203 13.3555 14.6024 13.9731C14.8034 14.6456 14.7446 15.3062 14.4326 15.9572C14.4062 16.0124 14.3834 16.0568 14.3294 16.1629L14.303 16.2151C14.2852 16.2514 14.2612 16.2843 14.2322 16.3123Z" fill="white"/>
</g>
<defs>
<clipPath id="clip0_1265_20457">
<rect width="24" height="24" fill="white"/>
</clipPath>
</defs>
</svg>
