<svg viewBox="0 0 24 24" fill="none" xmlns="http://www.w3.org/2000/svg">
<path d="M6.42932 17.3302L7.02604 17.9269C7.96316 17.4423 9.02444 17.166 10.1538 17.166C12.2243 17.166 14.0785 18.0911 15.328 19.5488L17.7149 17.162C16.2051 15.9245 14.2747 15.1836 12.1722 15.1836C9.97357 15.1876 7.96717 15.9966 6.42932 17.3302Z" fill="black"/>
<path d="M8.85632 19.7574L10.5103 21.4114C11.3273 22.2284 12.6529 22.2284 13.4699 21.4114L15.1359 19.7414C14.2869 19.0366 13.1935 18.6121 12.0041 18.6121C10.8067 18.6121 9.70534 19.0446 8.85632 19.7574Z" fill="black"/>
<path d="M10.362 9.1646C14.5951 9.1646 18.4157 10.9187 21.139 13.7381L21.3873 13.4898C22.2042 12.6728 22.2042 11.3472 21.3873 10.5302L13.4698 2.61274C12.6528 1.79575 11.3272 1.79575 10.5102 2.61274L2.58871 10.5302C2.25631 10.8626 2.06007 11.2831 2 11.7157C4.38686 10.1057 7.26632 9.1646 10.362 9.1646Z" fill="black"/>
<path d="M12.1722 11.1389C8.85222 11.1389 5.82459 12.3804 3.51782 14.4188L4.13857 15.0396C5.85262 13.8381 7.93913 13.1333 10.1938 13.1333C13.3616 13.1333 16.205 14.531 18.1394 16.7376L20.6304 14.2466C18.3516 12.3123 15.3961 11.1389 12.1722 11.1389Z" fill="black"/>
</svg>