<svg width="24" height="24" viewBox="0 0 24 24" fill="none" xmlns="http://www.w3.org/2000/svg">
<g clip-path="url(#clip0_1265_20453)">
<path d="M12 24C18.6274 24 24 18.6274 24 12C24 5.37258 18.6274 0 12 0C5.37258 0 0 5.37258 0 12C0 18.6274 5.37258 24 12 24Z" fill="#1EB5FA"/>
<path d="M18.1975 6.86006L16.0441 7.81511C15.9813 7.84947 15.9289 7.90009 15.8924 7.96166C15.8559 8.02324 15.8366 8.0935 15.8365 8.1651V15.8648C15.8363 15.9372 15.8561 16.0082 15.8938 16.07C15.9315 16.1318 15.9856 16.1819 16.0501 16.2148L18.2034 17.1461C18.2341 17.1629 18.2686 17.1713 18.3036 17.1706C18.3385 17.1699 18.3727 17.1601 18.4027 17.1421C18.4326 17.1241 18.4574 17.0986 18.4745 17.0681C18.4915 17.0376 18.5003 17.0031 18.5 16.9682V7.03802C18.4989 7.003 18.4889 6.96884 18.471 6.93871C18.4532 6.90858 18.4279 6.88347 18.3977 6.8657C18.3675 6.84794 18.3333 6.83811 18.2983 6.83712C18.2633 6.83613 18.2286 6.84402 18.1975 6.86006ZM7.88467 7.80325L5.79661 6.85413C5.76593 6.83737 5.73139 6.82892 5.69644 6.82963C5.66149 6.83034 5.62732 6.84018 5.59734 6.85816C5.56737 6.87615 5.54261 6.90166 5.52554 6.93217C5.50846 6.96268 5.49966 6.99713 5.50001 7.03209V16.9623C5.50004 16.9982 5.50966 17.0336 5.5279 17.0646C5.54614 17.0956 5.57233 17.1212 5.60377 17.1388C5.6352 17.1563 5.67075 17.1651 5.70673 17.1643C5.74272 17.1636 5.77784 17.1532 5.80847 17.1343L7.9084 16.025C7.9664 15.9897 8.01433 15.94 8.04757 15.8808C8.08082 15.8216 8.09826 15.7548 8.09823 15.6869V8.15323C8.09596 8.0814 8.07509 8.01139 8.03766 7.95004C8.00023 7.8887 7.94751 7.83812 7.88467 7.80325ZM14.4336 10.4311L12.1854 9.14388C12.125 9.10888 12.0564 9.09045 11.9867 9.09045C11.9169 9.09045 11.8483 9.10888 11.7879 9.14388L9.49818 10.4193C9.43692 10.4549 9.38607 10.506 9.35069 10.5674C9.3153 10.6288 9.29661 10.6984 9.29649 10.7692V13.3793C9.29649 13.5235 9.37361 13.6569 9.49818 13.7293L11.7879 15.0462C11.9107 15.1174 12.0626 15.1174 12.1854 15.0462L14.4336 13.7412C14.4949 13.7055 14.5457 13.6545 14.5811 13.5931C14.6165 13.5317 14.6352 13.4621 14.6353 13.3912V10.7811C14.6359 10.7101 14.6175 10.6402 14.5821 10.5787C14.5466 10.5171 14.4953 10.4662 14.4336 10.4311Z" fill="white"/>
</g>
<defs>
<clipPath id="clip0_1265_20453">
<rect width="24" height="24" fill="white"/>
</clipPath>
</defs>
</svg>
