<svg width="24" height="24" viewBox="0 0 24 24" fill="none" xmlns="http://www.w3.org/2000/svg">
<g clip-path="url(#clip0_1265_20449)">
<path d="M12 24.0252C14.3734 24.0252 16.6935 23.3214 18.6668 22.0028C20.6402 20.6842 22.1783 18.8101 23.0866 16.6174C23.9948 14.4246 24.2324 12.0118 23.7694 9.68407C23.3064 7.3563 22.1635 5.2181 20.4853 3.53987C18.8071 1.86164 16.6689 0.718751 14.3411 0.255729C12.0133 -0.207294 9.60051 0.0303458 7.4078 0.938597C5.21509 1.84685 3.34094 3.38492 2.02236 5.35831C0.703788 7.3317 0 9.65178 0 12.0252C0 15.2078 1.26428 18.26 3.51472 20.5104C5.76516 22.7609 8.8174 24.0252 12 24.0252Z" fill="#EAEAEA"/>
<path fill-rule="evenodd" clip-rule="evenodd" d="M15.1009 8.73172L16.6661 7.93898L18.4956 7.00443V8.12572L16.6459 9.06907L15.7501 9.52446L7.78132 13.5886L7.34091 13.8149L6.89081 14.0448L5.5 14.7495V13.6264L5.97212 13.386C6.14807 13.296 6.29351 13.156 6.3902 12.9836C6.48688 12.8112 6.5305 12.6141 6.51558 12.4171C6.50501 12.2779 6.49973 12.1387 6.49973 11.9987C6.50043 10.9852 6.78123 9.99166 7.31113 9.12776C7.84103 8.26386 8.59939 7.56324 9.50247 7.10327C10.4055 6.64331 11.4182 6.4419 12.4285 6.52129C13.4389 6.60069 14.4076 6.9578 15.2278 7.55318L15.0939 7.62101L14.1998 8.07287C13.4719 7.66742 12.6456 7.47198 11.8132 7.50829C10.9807 7.54461 10.1746 7.81127 9.4847 8.27857C8.7948 8.74587 8.24812 9.39549 7.90555 10.1551C7.56298 10.9147 7.43795 11.7544 7.54438 12.5809L15.1009 8.73172ZM8.2367 14.473L18.4956 9.24976L18.5 10.3675L18.027 10.608C17.851 10.6978 17.7055 10.8378 17.609 11.0103C17.5124 11.1827 17.4691 11.3798 17.4844 11.5769C17.495 11.716 17.5003 11.8579 17.5003 11.9988C17.5001 13.0125 17.2196 14.0064 16.6899 14.8707C16.1602 15.7349 15.4019 16.4359 14.4987 16.8962C13.5955 17.3565 12.5827 17.5582 11.5721 17.4789C10.5616 17.3996 9.59256 17.0424 8.77224 16.4469L9.74114 15.9519L9.79575 15.9228C10.4805 16.3058 11.2535 16.5031 12.038 16.4953C12.8226 16.4876 13.5915 16.2749 14.2685 15.8785C14.9456 15.4821 15.5073 14.9156 15.898 14.2353C16.2888 13.5549 16.4949 12.7842 16.4961 11.9997C16.4963 11.802 16.4836 11.6046 16.4583 11.4086L8.89379 15.2657L7.32946 16.0585L5.5 16.9913V15.8691L7.34179 14.9319L8.2367 14.473Z" fill="black"/>
</g>
<defs>
<clipPath id="clip0_1265_20449">
<rect width="24" height="24" fill="white"/>
</clipPath>
</defs>
</svg>
