<svg viewBox="0 0 24 24" fill="none" xmlns="http://www.w3.org/2000/svg">
<path d="M12 22C17.5228 22 22 17.5228 22 12C22 6.47715 17.5228 2 12 2C6.47715 2 2 6.47715 2 12C2 17.5228 6.47715 22 12 22Z" fill="#1E1E1E"/>
<path d="M6.79638 5.32438L15.0912 5.48103C17.0877 5.5202 17.7301 8.08537 15.9695 8.99395L7.081 13.5917C6.66219 13.8071 6.15393 13.5173 6.15393 13.0591V5.93141C6.15393 5.59069 6.44262 5.31655 6.79638 5.32438Z" fill="white"/>
<path d="M17.1037 18.668L8.23557 18.5061C6.037 18.4675 5.34946 15.5412 7.30331 14.5388L17.0066 9.55755C17.3834 9.36478 17.8301 9.63466 17.8301 10.0549V17.9586C17.8301 18.3557 17.4999 18.6757 17.1037 18.668Z" fill="white"/>
<path d="M14.7905 16.4515C15.4095 16.4515 15.9114 15.9497 15.9114 15.3306C15.9114 14.7116 15.4095 14.2097 14.7905 14.2097C14.1714 14.2097 13.6696 14.7116 13.6696 15.3306C13.6696 15.9497 14.1714 16.4515 14.7905 16.4515Z" fill="#00F97D"/>
</svg>