<svg viewBox="0 0 24 24" fill="none" xmlns="http://www.w3.org/2000/svg">
<g clip-path="url(#clip0_1265_20441)">
<path d="M12 24C18.6274 24 24 18.6274 24 12C24 5.37258 18.6274 0 12 0C5.37258 0 0 5.37258 0 12C0 18.6274 5.37258 24 12 24Z" fill="#DD0632"/>
<path d="M15.6194 7.09912H12.8244L11.9935 8.53562L11.1653 7.09912H8.36921L5.5 12.0689L8.27821 16.8789L10.1616 13.6186L12 16.7928L13.833 13.6186L15.7207 16.9011L18.5 12.0911L15.6194 7.09912ZM8.27442 14.9771L6.59417 12.0705L7.93046 9.75654L9.60962 12.6653L8.27388 14.9798V14.9771H8.27442ZM8.48242 8.80104L8.9255 8.03133H10.5998L11.4421 9.49004L10.1616 11.7103L8.48242 8.80104ZM11.9924 14.885L10.713 12.6631L11.9935 10.4439L12.5655 11.4325L13.2751 12.6637L11.9935 14.8829L11.9924 14.8856V14.885ZM12.5433 9.49004L13.3872 8.03133H15.0615L15.51 8.8005L13.82 11.7103L12.5433 9.4895V9.49004ZM16.8593 13.0309L15.7256 14.9977L14.3779 12.6577L16.0571 9.75491L16.5099 10.5349L17.4053 12.0857L16.8593 13.0309Z" fill="white"/>
</g>
<defs>
<clipPath id="clip0_1265_20441">
<rect width="24" height="24" fill="white"/>
</clipPath>
</defs>
</svg>