<svg viewBox="0 0 24 24" fill="none" xmlns="http://www.w3.org/2000/svg">
<g clip-path="url(#clip0_1265_20437)">
<path d="M12 24C18.6274 24 24 18.6274 24 12C24 5.37258 18.6274 0 12 0C5.37258 0 0 5.37258 0 12C0 18.6274 5.37258 24 12 24Z" fill="#004A80"/>
<path fill-rule="evenodd" clip-rule="evenodd" d="M16.2777 14.1633L15.3714 17.5H7.72217V16.9421L11.8716 12.2249L7.80589 7.10622V6.5H15.3415L15.6043 9.09844H15.1215C14.8031 8.50628 14.533 8.06322 14.3099 7.76928C14.0875 7.47533 13.8889 7.29261 13.7141 7.21989C13.5907 7.16 13.4208 7.11722 13.2044 7.09156C12.9461 7.06312 12.6864 7.04986 12.4265 7.05183H10.2858L13.4935 11.0485V11.241L9.52861 15.7418H14.0539C14.2763 15.7418 14.4804 15.6887 14.665 15.5829C14.8496 15.4766 15.0097 15.3434 15.1447 15.1833C15.2866 15.0178 15.4125 14.8391 15.5206 14.6498C15.6363 14.4489 15.738 14.2402 15.8249 14.0252L16.2777 14.1633Z" fill="white"/>
</g>
<defs>
<clipPath id="clip0_1265_20437">
<rect width="24" height="24" fill="white"/>
</clipPath>
</defs>
</svg>