<svg width="24" height="24" viewBox="0 0 24 24" fill="none" xmlns="http://www.w3.org/2000/svg">
<g clip-path="url(#clip0_1265_20430)">
<path d="M12 24C18.6274 24 24 18.6274 24 12C24 5.37258 18.6274 0 12 0C5.37258 0 0 5.37258 0 12C0 18.6274 5.37258 24 12 24Z" fill="#FF6600"/>
<path d="M18.5001 11.9999C18.5001 15.5901 15.5903 18.4999 12.0001 18.4999C8.40986 18.4999 5.5 15.5901 5.5 11.9999C5.5 10.5477 5.97721 9.20702 6.77943 8.1253L7.84111 9.18698C7.27741 10.0167 6.97655 10.9968 6.97768 11.9999C6.97768 14.7678 9.22725 17.0168 11.9952 17.0168C14.7626 17.0168 17.0122 14.7673 17.0122 11.9999C17.0117 10.9969 16.711 10.017 16.1487 9.18643L17.2104 8.12476C18.0504 9.24178 18.5032 10.6023 18.5001 11.9999Z" fill="white"/>
<path d="M15.5951 12.0002C15.5941 12.9534 15.215 13.8672 14.541 14.5412C13.867 15.2152 12.9532 15.5943 12 15.5953C11.0468 15.5944 10.1328 15.2154 9.45869 14.5414C8.78459 13.8674 8.40542 12.9535 8.40442 12.0002C8.40442 11.3757 8.56692 10.7614 8.87676 10.2181L12 13.3403L15.1233 10.217C15.433 10.7603 15.5958 11.3749 15.5957 12.0002" fill="white"/>
<path d="M16.2505 7.08441L12 11.3295L8.76027 8.09517L7.74951 7.08441C8.92776 6.05902 10.4381 5.49605 12 5.50002C13.625 5.50002 15.1081 6.09424 16.2505 7.08441Z" fill="white"/>
</g>
<defs>
<clipPath id="clip0_1265_20430">
<rect width="24" height="24" fill="white"/>
</clipPath>
</defs>
</svg>
