<svg viewBox="0 0 24 24" fill="none" xmlns="http://www.w3.org/2000/svg">
<g clip-path="url(#clip0_1265_20426)">
<path d="M12 24C18.6274 24 24 18.6274 24 12C24 5.37258 18.6274 0 12 0C5.37258 0 0 5.37258 0 12C0 18.6274 5.37258 24 12 24Z" fill="#FF6600"/>
<path d="M11.9994 5.5C15.5935 5.5 18.5 8.41054 18.5 12.009C18.4976 12.7103 18.3845 13.4069 18.1649 14.0729H16.2276V8.60417L12 12.8377L7.77236 8.60417V14.0729H5.83449C5.61513 13.4068 5.50224 12.7103 5.5 12.009C5.5 8.41054 8.4065 5.5 12 5.5H11.9994ZM11.0314 13.7896L12.0174 14.7608L12.9861 13.7902L14.8182 11.9381V15.3778H17.5488C16.9696 16.3317 16.1548 17.12 15.1829 17.6669C14.211 18.2138 13.1148 18.5007 12 18.5C9.65678 18.5 7.59581 17.248 6.45122 15.3778H9.18117V11.9381L11.0308 13.7902L11.0314 13.7896Z" fill="white"/>
</g>
<defs>
<clipPath id="clip0_1265_20426">
<rect width="24" height="24" fill="white"/>
</clipPath>
</defs>
</svg>