<svg width="24" height="24" viewBox="0 0 24 24" fill="none" xmlns="http://www.w3.org/2000/svg">
<path d="M21.4449 22.0001L11.9598 19.7146V18.6284L21.4449 20.926V22.0001Z" fill="#56B3ED"/>
<path d="M21.4449 19.7144L11.9598 17.429V16.3428L21.4449 18.6403V19.7144Z" fill="#56B3ED"/>
<path d="M21.4449 17.3886L11.9598 15.0991V14.0129L21.4449 16.3145V17.3886Z" fill="#56B3ED"/>
<path d="M11.9278 9.98713L2.44275 7.70168V6.61548L11.9278 8.91305V9.98713Z" fill="#56B3ED"/>
<path d="M11.9278 7.70173L2.44275 5.41224V4.33008L11.9278 6.62764V7.70173Z" fill="#56B3ED"/>
<path d="M11.9278 5.37165L2.44275 3.0862V2L11.9278 4.29757V5.37165Z" fill="#56B3ED"/>
<path d="M2.41809 14.6146L2.4302 13.375L21.4528 4.2251V5.45666L2.41809 14.6146Z" fill="#6835CF"/>
<path d="M2.41809 17.2272L2.4302 15.9875L21.4528 6.83765V8.06517L2.41809 17.2272Z" fill="#6835CF"/>
<path d="M2.41809 19.7871L2.4302 18.5434L21.4528 9.39355V10.6251L2.41809 19.7871Z" fill="#6835CF"/>
</svg>
