<svg viewBox="0 0 24 24" fill="none" xmlns="http://www.w3.org/2000/svg">
<g clip-path="url(#clip0_1265_20422)">
<path d="M12 24C18.6274 24 24 18.6274 24 12C24 5.37258 18.6274 0 12 0C5.37258 0 0 5.37258 0 12C0 18.6274 5.37258 24 12 24Z" fill="#EC1076"/>
<path fill-rule="evenodd" clip-rule="evenodd" d="M15.2191 15.3545C14.8365 15.3545 14.4165 15.162 14.4165 14.5843C14.4165 14.2997 14.6389 13.4246 15.0825 11.9587C15.1733 11.7324 15.2184 11.5291 15.2184 11.3493C15.2184 11.0029 14.9515 10.6566 14.4546 10.6566C14.1661 10.6566 13.5377 10.771 13.347 11.3874C13.2199 11.7985 12.927 12.8896 12.4682 14.6612C12.2903 15.1232 11.9719 15.3545 11.5138 15.3545C10.8262 15.3545 10.7112 14.8538 10.7112 14.5456C10.7112 14.4236 10.8942 13.6858 11.2609 12.3342C11.4038 11.883 11.475 11.5545 11.475 11.3493C11.475 11.0411 11.2462 10.6566 10.7112 10.6566C10.1768 10.6566 9.67986 11.0411 9.45109 11.8881C9.29859 12.4537 9.0819 13.3007 8.80167 14.4299C8.64916 15.0463 8.30474 15.3545 7.77033 15.3545C7.28612 15.3545 7.03194 15.0851 7.00652 14.5456L7.88471 10.8873H5.93706C5.81636 10.8915 5.69605 10.8715 5.58319 10.8285C5.47034 10.7855 5.36722 10.7204 5.27991 10.637C5.1926 10.5535 5.12286 10.4535 5.0748 10.3427C5.02674 10.2319 5.00132 10.1126 5.00005 9.99185C4.99878 9.87109 5.02168 9.7513 5.06739 9.63952C5.11311 9.52774 5.18073 9.42624 5.26626 9.34098C5.35179 9.25573 5.45352 9.18844 5.56544 9.14309C5.67737 9.09773 5.79724 9.07523 5.91799 9.07689H9.18357C9.64173 9.07689 9.92196 9.29548 10.0236 9.7314C10.4824 9.15441 11.0931 9 11.6288 9C12.1645 9 12.8508 9.30819 13.1564 10.0015C13.5758 9.53886 14.3021 9 15.3335 9C16.2879 9 17.0905 9.65451 17.0905 10.8098C17.0905 11.2463 16.8738 12.1582 16.441 13.5447L18.1167 13.5333C18.6067 13.5333 19 13.9413 19 14.4439C19 14.9465 18.6067 15.3545 18.1212 15.3545H15.2191Z" fill="white"/>
</g>
<defs>
<clipPath id="clip0_1265_20422">
<rect width="24" height="24" fill="white"/>
</clipPath>
</defs>
</svg>