<svg viewBox="0 0 24 24" fill="none" xmlns="http://www.w3.org/2000/svg">
<g clip-path="url(#clip0_1265_20418)">
<path d="M12 24C18.6274 24 24 18.6274 24 12C24 5.37258 18.6274 0 12 0C5.37258 0 0 5.37258 0 12C0 18.6274 5.37258 24 12 24Z" fill="#008200"/>
<path d="M11.285 16.1365H10.2225L9.58318 13.6251L11.1461 12.8085L11.6549 14.2621L12.0337 12.3446L14.1107 11.2591L13.9961 11.8359L15.1956 11.8471C15.6589 11.84 16.0176 11.6834 16.2729 11.3785C16.5281 11.073 16.6493 10.6635 16.6363 10.1476C16.6342 10.0812 16.6273 10.0151 16.6156 9.94968L18.2288 9.10645C18.4521 9.51713 18.5372 10.0011 18.4852 10.5571C18.3989 11.3679 18.0479 12.0167 17.434 12.503C16.82 12.9899 16.0371 13.2334 15.0863 13.2334L13.7237 13.2274L13.1464 16.1365H11.285ZM11.5338 9.6424H12.5679L10.9742 11.9026L7.03873 13.9596L8.49709 11.8973L7.09545 7.86377H9.15181L9.87863 10.6936L10.5003 9.64181H11.5344H10.5003L11.61 7.86377H12.9189L15.9479 7.86968C16.6363 7.88859 17.2006 8.07118 17.6414 8.41745L15.9869 9.28254C15.9462 9.275 15.9052 9.26987 15.8639 9.26718L14.5084 9.25536L14.3311 10.1476L12.2529 11.2337L12.5673 9.64181L11.5338 9.6424ZM5.96445 15.5172L9.11222 13.8715L7.72477 16.1365H5.5L5.95323 15.4954L5.96445 15.5172Z" fill="white"/>
</g>
<defs>
<clipPath id="clip0_1265_20418">
<rect width="24" height="24" fill="white"/>
</clipPath>
</defs>
</svg>