<svg viewBox="0 0 24 24" fill="none" xmlns="http://www.w3.org/2000/svg">
<g clip-path="url(#clip0_1265_20414)">
<path d="M12 24C18.6274 24 24 18.6274 24 12C24 5.37258 18.6274 0 12 0C5.37258 0 0 5.37258 0 12C0 18.6274 5.37258 24 12 24Z" fill="#4FA784"/>
<path fill-rule="evenodd" clip-rule="evenodd" d="M18.1923 8.99995L12.3351 7.32153L10.3317 10.734L8.00477 8.03507L9.0592 7.8993L10.1461 9.17617L11.3522 7.03915L6.04397 5.51745C5.97265 5.49631 5.89703 5.49434 5.82471 5.51174C5.75239 5.52914 5.68594 5.56529 5.63204 5.61655C5.57814 5.66781 5.53871 5.73237 5.51771 5.80373C5.49671 5.87508 5.49488 5.95071 5.51242 6.02299L7.86394 15.4666L10.3895 11.2142L12.7165 13.9132L11.662 14.0489L10.5758 12.7721L8.18532 16.7565L8.53921 18.1793C8.55762 18.2514 8.59462 18.3175 8.64652 18.3709C8.69843 18.4243 8.76342 18.4631 8.83502 18.4836C8.90662 18.5041 8.98234 18.5054 9.05462 18.4875C9.1269 18.4696 9.19322 18.433 9.24697 18.3815L18.3685 9.70772C18.4224 9.6567 18.4617 9.59229 18.4825 9.52108C18.5033 9.44986 18.5048 9.37441 18.4869 9.30242C18.469 9.23043 18.4323 9.16449 18.3805 9.11135C18.3287 9.0582 18.2638 9.01976 18.1923 8.99995Z" fill="white"/>
</g>
<defs>
<clipPath id="clip0_1265_20414">
<rect width="24" height="24" fill="white"/>
</clipPath>
</defs>
</svg>