<svg width="24" height="24" viewBox="0 0 24 24" fill="none" xmlns="http://www.w3.org/2000/svg">
<g clip-path="url(#clip0_1265_20410)">
<path d="M12 24C18.6274 24 24 18.6274 24 12C24 5.37258 18.6274 0 12 0C5.37258 0 0 5.37258 0 12C0 18.6274 5.37258 24 12 24Z" fill="#FFD81B"/>
<path d="M17.3332 11.0413C17.3332 13.99 15.0492 14.9927 13.1265 14.9927V15.7613H14.6098V16.8027H13.1272V18H10.8072V16.8027H9.38917V15.7613H10.8045V14.9827C10.1892 14.9827 6.6665 14.8367 6.6665 10.8273V6H8.96984V11.012C8.96984 13.1047 10.8138 13.0853 10.8138 13.0853V6H13.1272V13.0853C13.1272 13.0853 15.0298 13.192 15.0298 10.9833V6H17.3332V11.0413Z" fill="black"/>
</g>
<defs>
<clipPath id="clip0_1265_20410">
<rect width="24" height="24" fill="white"/>
</clipPath>
</defs>
</svg>
