<svg viewBox="0 0 24 24" fill="none" xmlns="http://www.w3.org/2000/svg">
<g clip-path="url(#clip0_1265_20406)">
<path d="M12 24C18.6274 24 24 18.6274 24 12C24 5.37258 18.6274 0 12 0C5.37258 0 0 5.37258 0 12C0 18.6274 5.37258 24 12 24Z" fill="#23292F"/>
<path d="M16.242 7.03125H17.976L14.367 10.6054C13.736 11.2271 12.8858 11.5756 12 11.5756C11.1142 11.5756 10.264 11.2271 9.633 10.6054L6.021 7.03125H7.758L10.5 9.74505C10.8993 10.1392 11.4378 10.3601 11.9988 10.3601C12.5598 10.3601 13.0983 10.1392 13.4976 9.74505L16.242 7.03125ZM7.737 16.9691H6L9.633 13.3733C10.264 12.7516 11.1142 12.4031 12 12.4031C12.8858 12.4031 13.736 12.7516 14.367 13.3733L18 16.9685H16.263L13.5 14.2313C13.1007 13.8371 12.5622 13.6162 12.0012 13.6162C11.4402 13.6162 10.9017 13.8371 10.5024 14.2313L7.7364 16.9691H7.737Z" fill="white"/>
</g>
<defs>
<clipPath id="clip0_1265_20406">
<rect width="24" height="24" fill="white"/>
</clipPath>
</defs>
</svg>