<svg width="24" height="24" viewBox="0 0 24 24" fill="none" xmlns="http://www.w3.org/2000/svg">
<g clip-path="url(#clip0_1265_20402)">
<path d="M12 24C18.6274 24 24 18.6274 24 12C24 5.37258 18.6274 0 12 0C5.37258 0 0 5.37258 0 12C0 18.6274 5.37258 24 12 24Z" fill="#D21E2B"/>
<path d="M12.0847 6.97657V5.5L17.5803 8.67139L16.3096 9.40993L12.0847 6.97657ZM16.3939 14.4328V9.56715L17.677 8.82861V15.1714L16.3944 14.4328H16.3939ZM12.0847 17.0234L16.3096 14.5906L17.5803 15.3286L12.0847 18.5V17.0234ZM6.40806 15.3286L7.69068 14.5906L11.9032 17.0234V18.5L6.40806 15.3286ZM6.32324 8.82861L7.59397 9.56715V14.4328L6.32324 15.1714V8.82861ZM6.40806 8.67139L11.9032 5.5V6.97657L7.6912 9.40993L6.40806 8.67139ZM12.0061 7.11569L7.76981 9.54957V14.4396L12.0061 16.8848L16.2305 14.4396V9.54957L12.0061 7.11621V7.11569ZM15.4076 11.4859L15.2261 11.8004L14.0159 11.1229L12.4664 11.9938L14.0154 12.8653L15.2256 12.1877L15.4076 12.5022L14.3908 13.0711L15.4076 13.64L15.2261 13.955L14.2093 13.3861V14.5239H13.8338V13.1802L12.2849 12.3088V14.0517L13.4832 14.7173L13.3016 15.0261L12.2849 14.4572V15.595H11.9089V14.4572L10.8921 15.0261L10.6986 14.7116L11.9089 14.0455V12.3088L10.3594 13.1802V14.5239H9.97199V13.3861L8.96762 13.955L8.77367 13.64L9.79046 13.0711L8.77367 12.5022L8.96762 12.1877L10.1659 12.8653L11.7273 11.9938L10.1654 11.1223L8.96762 11.7998L8.77367 11.4854L9.79046 10.9165L8.77367 10.3476L8.96762 10.0331L9.97199 10.602V9.45803H10.3599V10.8017L11.9089 11.6731V9.93643L10.7105 9.27029L10.8921 8.95584L11.9089 9.52475V8.38693H12.2843V9.52475L13.3011 8.95584L13.4821 9.27029L12.2843 9.93643V11.6793L13.8333 10.8079V9.45803H14.2088V10.5958L15.2256 10.0269L15.4066 10.3419L14.3903 10.9108L15.4071 11.4854L15.4076 11.4859Z" fill="white"/>
</g>
<defs>
<clipPath id="clip0_1265_20402">
<rect width="24" height="24" fill="white"/>
</clipPath>
</defs>
</svg>
