<svg viewBox="0 0 24 24" fill="none" xmlns="http://www.w3.org/2000/svg">
<g clip-path="url(#clip0_1265_20397)">
<path d="M12 24C18.6274 24 24 18.6274 24 12C24 5.37258 18.6274 0 12 0C5.37258 0 0 5.37258 0 12C0 18.6274 5.37258 24 12 24Z" fill="white"/>
<path d="M12 23.161C18.1641 23.161 23.161 18.1641 23.161 12C23.161 5.83586 18.1641 0.838867 12 0.838867C5.83586 0.838867 0.838867 5.83586 0.838867 12C0.838867 18.1641 5.83586 23.161 12 23.161Z" fill="#D8E3F3"/>
<path d="M13.3925 18.5C12.4645 18.5 11.7877 18.2764 11.3621 17.8293C10.9668 17.4516 10.7375 16.9325 10.7245 16.3859C10.7183 16.22 10.7552 16.0553 10.8316 15.9079C10.9046 15.7814 11.0097 15.6763 11.1362 15.6033C11.2836 15.5298 11.4461 15.4916 11.6108 15.4916C11.7754 15.4916 11.9379 15.5298 12.0853 15.6033C12.2114 15.6761 12.3159 15.7813 12.388 15.9079C12.4679 16.0543 12.5078 16.2191 12.5038 16.3859C12.5119 16.5845 12.4548 16.7804 12.3412 16.9436C12.2453 17.0774 12.1088 17.1767 11.9519 17.2268C12.1045 17.4206 12.3201 17.5549 12.5612 17.6064C12.8314 17.6846 13.1112 17.7249 13.3925 17.7262C13.7643 17.729 14.1285 17.6201 14.4378 17.4137C14.7586 17.1869 14.9976 16.8626 15.1192 16.489C15.2741 16.0446 15.3499 15.5765 15.343 15.1059C15.3548 14.6155 15.2719 14.1273 15.0987 13.6683C14.9684 13.3011 14.7208 12.9871 14.394 12.7748C14.0906 12.5821 13.7382 12.4807 13.3788 12.4828C13.067 12.5095 12.7663 12.6117 12.5028 12.7806L11.8507 13.1076V12.7796L14.7814 8.8483H10.7245V12.9285C10.713 13.2227 10.7907 13.5135 10.9474 13.7627C11.0233 13.8712 11.1258 13.9583 11.2452 14.0156C11.3645 14.0729 11.4967 14.0984 11.6288 14.0897C11.8732 14.0847 12.1096 14.0014 12.3033 13.8523C12.5227 13.6904 12.7135 13.4931 12.8678 13.2682C12.8815 13.2291 12.907 13.1951 12.9408 13.1709C12.968 13.1478 13.0025 13.135 13.0382 13.1349C13.1101 13.14 13.1784 13.1684 13.2328 13.2157C13.301 13.2914 13.3379 13.3902 13.336 13.4921C13.3284 13.5603 13.3164 13.6279 13.3 13.6946C13.1558 14.0441 12.9138 14.3445 12.6031 14.5599C12.3157 14.7542 11.9766 14.8576 11.6297 14.8567C10.7505 14.8567 10.1415 14.6835 9.80277 14.337C9.62833 14.1454 9.49388 13.921 9.4073 13.6768C9.32072 13.4326 9.28376 13.1736 9.29858 12.9149V8.85122H7.23022V8.09396H9.30247V6.3653L8.82748 5.88934V5.5H10.2057L10.7245 5.77156V8.09396L16.0876 8.07741L16.622 8.61372L13.3321 11.9231C13.5307 11.8432 13.7399 11.7927 13.9531 11.7732C14.3754 11.7919 14.7874 11.9092 15.1562 12.1158C15.5824 12.319 15.9418 12.6398 16.1918 13.0405C16.4154 13.3801 16.5738 13.7584 16.659 14.1559C16.7285 14.4693 16.7657 14.7889 16.77 15.1098C16.7727 15.723 16.6338 16.3286 16.3641 16.8793C16.1084 17.4124 15.6785 17.8423 15.1454 18.098C14.5998 18.3651 13.9999 18.5027 13.3925 18.5Z" fill="#2C7DF7"/>
</g>
<defs>
<clipPath id="clip0_1265_20397">
<rect width="24" height="24" fill="white"/>
</clipPath>
</defs>
</svg>