<svg viewBox="0 0 24 24" fill="none" xmlns="http://www.w3.org/2000/svg">
<g clip-path="url(#clip0_1265_20389)">
<path d="M12 24C18.6274 24 24 18.6274 24 12C24 5.37258 18.6274 0 12 0C5.37258 0 0 5.37258 0 12C0 18.6274 5.37258 24 12 24Z" fill="#25AAE3"/>
<path d="M18.5 12C18.5 15.5898 15.5898 18.5 12 18.5C8.41023 18.5 5.5 15.5898 5.5 12C5.5 8.40964 8.41023 5.5 12 5.5C15.5898 5.5 18.5 8.41023 18.5 12ZM16.2723 12.2045C16.2764 12.1306 16.2723 12.2045 16.2723 12.1294C16.2723 9.998 14.6975 8.10473 12.6547 7.78623V6.54532L11.3311 6.95777V7.78682C9.2895 8.10473 7.72536 9.86682 7.72536 11.997C7.72536 14.1775 9.36218 15.9739 11.4741 16.2309V17.4529L12.7977 17.0405V16.186C13.528 16.0448 14.2088 15.7154 14.7727 15.2304C15.3366 14.7453 15.7641 14.1215 16.0129 13.4205H14.6414C14.3851 13.8999 14.0035 14.3007 13.5372 14.5801C13.071 14.8595 12.5377 15.0071 11.9941 15.0071C11.2338 15.0066 10.5019 14.7183 9.94534 14.2003C9.38883 13.6823 9.04897 12.9728 8.99405 12.2145L16.2729 12.2045H16.2723ZM9.19318 10.895C9.41442 10.3325 9.79994 9.84956 10.2995 9.50923C10.7991 9.16891 11.3896 8.98691 11.9941 8.98695C12.5983 8.98748 13.1884 9.16979 13.6876 9.51018C14.1868 9.85058 14.5721 10.3333 14.7932 10.8956H9.19377L9.19318 10.895Z" fill="white"/>
</g>
<defs>
<clipPath id="clip0_1265_20389">
<rect width="24" height="24" fill="white"/>
</clipPath>
</defs>
</svg>