<svg viewBox="0 0 24 24" fill="none" xmlns="http://www.w3.org/2000/svg">
<g clip-path="url(#clip0_1265_20376)">
<path d="M12 24C18.6274 24 24 18.6274 24 12C24 5.37258 18.6274 0 12 0C5.37258 0 0 5.37258 0 12C0 18.6274 5.37258 24 12 24Z" fill="#23B852"/>
<path d="M13.6653 13.9238H15.737V15.7351H9.5128L17.2391 8.00335C17.3616 7.87936 17.4453 7.72235 17.4801 7.55153C17.5148 7.3807 17.499 7.20346 17.4346 7.04146C17.3663 6.88046 17.252 6.7432 17.106 6.64688C16.96 6.55056 16.7888 6.49948 16.6139 6.50002H7.38614C7.26944 6.49921 7.15375 6.52161 7.0458 6.56593C6.93784 6.61025 6.83978 6.6756 6.75732 6.75817C6.67486 6.84075 6.60964 6.9389 6.56547 7.04692C6.5213 7.15494 6.49906 7.27066 6.50003 7.38735V13.9238L10.3347 10.086H8.26308V8.26491H14.4769L6.76097 15.9967C6.63845 16.1207 6.5547 16.2777 6.51998 16.4485C6.48525 16.6193 6.50104 16.7966 6.56542 16.9586C6.70536 17.2855 7.02253 17.5 7.38614 17.5H16.6139C16.7304 17.5 16.8457 17.477 16.9533 17.4324C17.0609 17.3878 17.1586 17.3224 17.2409 17.24C17.3232 17.1576 17.3885 17.0598 17.4329 16.9521C17.4774 16.8445 17.5002 16.7291 17.5 16.6127V10.086L13.6653 13.9238Z" fill="white"/>
</g>
<defs>
<clipPath id="clip0_1265_20376">
<rect width="24" height="24" fill="white"/>
</clipPath>
</defs>
</svg>