<svg viewBox="0 0 24 24" fill="none" xmlns="http://www.w3.org/2000/svg">
<rect width="24" height="24" rx="2" fill="#6001D2"/>
<path d="M6.35784 17.7281L2.30762 7.90936V7.47979L2.55309 7.23432H5.56007L5.8669 7.47979L6.11237 7.66389L8.32158 13.0642L10.4081 7.90936L10.5922 7.47979L10.9604 7.23432H14.0287L14.2742 7.47979V7.90936L9.11935 20.551L8.93525 20.7964L8.68978 20.9192H5.56007L5.3146 20.7964V20.551L6.35784 17.9735V17.7281Z" fill="white"/>
<path d="M14.6424 10.9777L17.7107 3.49094L17.9562 3.12273L18.263 3H21.3314L21.5768 3.24547V3.5523L18.5085 11.1004L18.263 11.3459L17.9562 11.53H14.8878L14.6424 11.2845V10.9777Z" fill="white"/>
<circle cx="15.4401" cy="15.1506" r="2.39331" fill="white"/>
</svg>