<svg width="24" height="24" viewBox="0 0 24 24" fill="none" xmlns="http://www.w3.org/2000/svg">
<g clip-path="url(#clip0_620_13561)">
<path fill-rule="evenodd" clip-rule="evenodd" d="M22 12C22 10.7 21.74 9.38 21.24 8.18C20.74 6.98 20 5.86 19.08 4.92C18.14 4 17.04 3.26 15.82 2.76C14.6 2.26 13.3 2 12 2C10.7 2 9.38 2.26 8.18 2.76C6.98 3.26 5.86 4 4.92 4.92C4 5.86 3.26 6.96 2.76 8.18C2.26 9.4 2 10.7 2 12C2 13.3 2.26 14.62 2.76 15.82C3.26 17.02 4 18.14 4.92 19.08C5.84 20 6.96 20.74 8.16 21.24C9.36 21.74 10.7 22 12 22C13.3 22 14.62 21.74 15.82 21.24C17.02 20.74 18.14 20 19.08 19.08C20 18.16 20.74 17.04 21.24 15.84C21.74 14.64 22 13.3 22 12Z" fill="url(#paint0_linear_620_13561)"/>
<path fill-rule="evenodd" clip-rule="evenodd" d="M11.48 7.47998H12.52V16.52H11.48V7.47998Z" fill="white"/>
<path fill-rule="evenodd" clip-rule="evenodd" d="M10.9 11.7399V10.6599C10.08 10.2599 9.49998 9.3999 9.49998 8.4199C9.49998 7.0399 10.62 5.9199 12 5.9199C13.56 5.9199 14.68 7.0399 14.68 8.4199C14.68 8.7599 14.6 9.0999 14.44 9.4999L14 8.0599L13.12 8.3399L13.9 11.3199L16.94 10.1999L16.56 9.3199L15.42 9.6999C15.62 9.2599 15.66 8.9199 15.66 8.3999C15.66 6.4599 14.1 4.8999 11.98 4.8999C10.04 4.8999 8.47998 6.4599 8.47998 8.3999C8.49998 9.9599 9.49998 11.2799 10.9 11.7399Z" fill="white"/>
<path fill-rule="evenodd" clip-rule="evenodd" d="M13.0999 12.26V13.34C13.9199 13.74 14.4999 14.6 14.4999 15.58C14.4999 16.96 13.3799 18.08 11.9999 18.08C10.4399 18.08 9.31994 16.96 9.31994 15.58C9.31994 15.24 9.39994 14.9 9.55994 14.5L9.99994 15.94L10.8799 15.66L10.0999 12.68L7.05994 13.8L7.43994 14.68L8.57994 14.3C8.37994 14.74 8.33994 15.08 8.33994 15.6C8.33994 17.54 9.89994 19.1 12.0199 19.1C13.9599 19.1 15.5199 17.54 15.5199 15.6C15.4999 14.04 14.4999 12.72 13.0999 12.26Z" fill="white"/>
</g>
<defs>
<linearGradient id="paint0_linear_620_13561" x1="2" y1="2" x2="22" y2="22" gradientUnits="userSpaceOnUse">
<stop stop-color="#0077FC"/>
<stop offset="1" stop-color="#095EB5"/>
</linearGradient>
<clipPath id="clip0_620_13561">
<rect width="20" height="20" fill="white" transform="translate(2 2)"/>
</clipPath>
</defs>
</svg>
