<svg width="24" height="24" viewBox="0 0 24 24" fill="none" xmlns="http://www.w3.org/2000/svg">
<g clip-path="url(#clip0_1265_20370)">
<path d="M12 24C18.6274 24 24 18.6274 24 12C24 5.37258 18.6274 0 12 0C5.37258 0 0 5.37258 0 12C0 18.6274 5.37258 24 12 24Z" fill="#006AE3"/>
<path d="M11.5518 16.4856V7.6355H12.515V16.4856H11.5518Z" fill="white"/>
<path d="M16.457 10.584L13.4802 11.3731L12.8168 8.28405L13.7014 8.08467L14.051 9.54775C14.051 9.54775 14.8549 8.22929 13.7828 6.86309C13.151 6.16104 12.8512 6.13155 12.1428 6.02063C11.5194 5.93146 10.0704 6.14208 9.6386 7.83333C9.45607 8.92292 9.66177 9.72888 11.0659 10.7841L10.9873 11.9586C10.9873 11.9586 9.41956 10.8543 9.01518 10.0799C8.70276 9.46701 8.16569 8.25667 9.13453 6.57174C9.65545 5.72927 10.6833 4.92121 12.4939 5.00616C13.4037 5.04407 15.6271 6.15753 15.2824 8.75653C15.2227 9.24376 14.97 9.89246 14.97 9.89246L16.1916 9.62076L16.457 10.584ZM14.7573 17.5091C14.2125 18.3368 13.1636 19.1168 11.3572 18.9855C10.4467 18.9237 8.25555 17.7513 8.66836 15.1621C8.74067 14.6777 9.01097 14.0367 9.01097 14.0367L7.78307 14.2754L7.54297 13.3073L10.5407 12.5968L11.1234 15.7027L10.2318 15.8796L9.92153 14.4053C9.92153 14.4053 9.08328 15.7006 10.1174 17.0962C10.7296 17.8151 11.028 17.8517 11.7363 17.9808C12.3556 18.0875 13.8102 17.9134 14.2869 16.2348C14.4975 15.1516 14.3122 14.3393 12.9383 13.2455L13.0485 12.073C13.0485 12.073 14.5867 13.2174 14.97 14.003C15.2635 14.6264 15.7675 15.8515 14.7573 17.5091Z" fill="white"/>
</g>
<defs>
<clipPath id="clip0_1265_20370">
<rect width="24" height="24" fill="white"/>
</clipPath>
</defs>
</svg>
