<svg width="24" height="24" viewBox="0 0 24 24" fill="none" xmlns="http://www.w3.org/2000/svg">
<g clip-path="url(#clip0_1265_20366)">
<path d="M12 24C18.6274 24 24 18.6274 24 12C24 5.37258 18.6274 0 12 0C5.37258 0 0 5.37258 0 12C0 18.6274 5.37258 24 12 24Z" fill="#21A5DE"/>
<path d="M15.843 12.4025C16.081 12.6573 16.2252 12.9968 16.2252 13.3692C16.2252 14.1595 15.5756 14.8 14.7748 14.8C13.9747 14.8 13.3258 14.1595 13.3258 13.3692C13.3258 12.9968 13.47 12.6573 13.7066 12.4025C13.6303 12.461 13.5392 12.4972 13.4435 12.5071C13.3478 12.517 13.2513 12.5001 13.1646 12.4584C13.0779 12.4167 13.0045 12.3518 12.9525 12.2708C12.9005 12.1899 12.872 12.0961 12.8701 12C12.8699 11.8855 12.9087 11.7744 12.98 11.685C12.7217 11.9188 12.378 12.0616 12 12.0616C11.622 12.0616 11.2783 11.9188 11.02 11.685C11.0913 11.7744 11.1301 11.8855 11.1299 12C11.1299 12.2821 10.8989 12.511 10.6119 12.511C10.4966 12.5111 10.3846 12.4729 10.2934 12.4025C10.53 12.6573 10.6749 12.9968 10.6749 13.3692C10.6749 14.1595 10.0253 14.8 9.2252 14.8C8.4244 14.8 7.7748 14.1595 7.7748 13.3692C7.7748 12.9968 7.9197 12.6573 8.1563 12.4025C8.07997 12.461 7.9889 12.4972 7.89321 12.5071C7.79752 12.517 7.70097 12.5001 7.61429 12.4584C7.52761 12.4167 7.45419 12.3518 7.4022 12.2708C7.35021 12.1899 7.32169 12.0961 7.3198 12C7.31961 11.8855 7.35837 11.7744 7.4297 11.685C7.1714 11.9188 6.8277 12.0616 6.4497 12.0616C5.6489 12.0616 5 11.4211 5 10.6308C5 9.84045 5.6489 9.19995 6.4497 9.19995C7.2505 9.19995 7.8994 9.84045 7.8994 10.6308C7.89955 10.9897 7.76317 11.3353 7.5179 11.5975C7.59423 11.5387 7.68537 11.5023 7.78116 11.4923C7.87696 11.4824 7.97364 11.4992 8.06045 11.5409C8.14725 11.5826 8.22076 11.6476 8.27278 11.7287C8.32481 11.8097 8.35331 11.9037 8.3551 12C8.35529 12.1144 8.31653 12.2255 8.2452 12.315C8.5028 12.0812 8.8472 11.9384 9.2252 11.9384C9.6032 11.9384 9.9462 12.0812 10.2052 12.315C10.1336 12.2256 10.0946 12.1145 10.0946 12C10.0242 11.9458 9.9689 11.8745 9.93387 11.7929C9.89884 11.7114 9.88529 11.6222 9.89449 11.5338C9.9037 11.4455 9.93536 11.361 9.98646 11.2884C10.0376 11.2158 10.1064 11.1575 10.1864 11.119C10.2665 11.0806 10.355 11.0632 10.4436 11.0686C10.5322 11.0741 10.618 11.1021 10.6927 11.1501C10.7675 11.198 10.8287 11.2643 10.8705 11.3426C10.9124 11.421 10.9335 11.5087 10.9318 11.5975C10.6867 11.3353 10.5503 10.9897 10.5503 10.6308C10.5503 9.84045 11.1992 9.19995 12 9.19995C12.8008 9.19995 13.4497 9.84045 13.4497 10.6308C13.4499 10.9897 13.3135 11.3353 13.0682 11.5975C13.1445 11.5387 13.2357 11.5023 13.3315 11.4923C13.4273 11.4824 13.5239 11.4992 13.6107 11.5409C13.6975 11.5826 13.7711 11.6476 13.8231 11.7287C13.8751 11.8097 13.9036 11.9037 13.9054 12C13.9056 12.1144 13.8668 12.2255 13.7955 12.315C14.0531 12.0812 14.3975 11.9384 14.7755 11.9384C15.1535 11.9384 15.4965 12.0812 15.7555 12.315C15.6839 12.2256 15.6449 12.1145 15.6449 12C15.5745 11.9458 15.5192 11.8745 15.4842 11.7929C15.4491 11.7114 15.4356 11.6222 15.4448 11.5338C15.454 11.4455 15.4857 11.361 15.5368 11.2884C15.5879 11.2158 15.6567 11.1575 15.7367 11.119C15.8168 11.0806 15.9053 11.0632 15.9939 11.0686C16.0825 11.0741 16.1683 11.1021 16.243 11.1501C16.3178 11.198 16.379 11.2643 16.4208 11.3426C16.4627 11.421 16.4838 11.5087 16.4821 11.5975C16.237 11.3353 16.1006 10.9897 16.1006 10.6308C16.1006 9.84045 16.7495 9.19995 17.5503 9.19995C18.3511 9.19995 19 9.84045 19 10.6308C19 11.4211 18.3511 12.0616 17.5503 12.0616C17.1723 12.0616 16.8286 11.9188 16.5703 11.685C16.6416 11.7744 16.6804 11.8855 16.6802 12C16.6802 12.2821 16.4492 12.511 16.1622 12.511C16.0469 12.5111 15.9349 12.4729 15.8437 12.4025H15.843Z" fill="white"/>
</g>
<defs>
<clipPath id="clip0_1265_20366">
<rect width="24" height="24" fill="white"/>
</clipPath>
</defs>
</svg>
