<svg viewBox="0 0 24 24" fill="none" xmlns="http://www.w3.org/2000/svg">
<path d="M14.6853 7.1853C16.6208 7.1853 17.1915 9.44337 16.6208 10.56C16.0501 11.6766 14.7546 12.9702 13.8086 13.8189C12.9483 14.5798 11.7077 15.3243 10.1444 13.761C10.0723 13.7019 9.98935 13.6294 9.90162 13.5502L11.0529 12.3578C11.0678 12.3702 11.0864 12.389 11.1002 12.3996C11.7992 13.0987 12.1604 13.1054 12.8607 12.405C13.384 11.8861 14.4089 10.7788 14.854 10.2456C15.2864 9.72772 15.5277 8.61753 13.5845 8.61753H10.5194C9.22498 8.61753 8.55629 9.29449 9.23429 10.2456C9.28015 10.3035 9.33145 10.3679 9.38149 10.431L8.15657 11.7048C7.86269 11.3417 7.62535 11.0047 7.51416 10.7585C6.72006 9.19524 7.3901 7.1853 9.22634 7.1853H14.6853ZM9.33106 16.9626C7.39558 16.9626 6.82489 14.7045 7.39558 13.5878C7.96627 12.4713 9.26176 11.1777 10.2078 10.329C11.068 9.56808 12.3087 8.82359 13.872 10.3869C13.9441 10.4459 14.027 10.5185 14.1148 10.5976L12.9634 11.7901C12.9486 11.7777 12.9299 11.7589 12.9162 11.7482C12.2172 11.0492 11.856 11.0425 11.1557 11.7429C10.6324 12.2618 9.60746 13.3691 9.1624 13.9022C8.73001 14.4202 8.48869 15.5304 10.4319 15.5304H13.497C14.7914 15.5304 15.4601 14.8534 14.7821 13.9022C14.7362 13.8443 14.6849 13.78 14.6349 13.7169L15.8598 12.4431C16.1537 12.8062 16.391 13.1432 16.5022 13.3893C17.2963 14.9526 16.6263 16.9626 14.79 16.9626H9.33106Z" fill="#E91C41"/>
<path d="M12 20.3871C7.368 20.3871 3.61292 16.6321 3.61292 11.9999C3.61292 7.36793 7.368 3.61283 12 3.61283C16.632 3.61283 20.3871 7.36793 20.3871 11.9999C20.3871 16.6321 16.632 20.3871 12 20.3871ZM12 2C6.47716 2 2 6.47707 2 11.9999C2 17.5228 6.47716 22 12 22C17.5228 22 22 17.5228 22 11.9999C22 6.47707 17.5228 2 12 2Z" fill="#E91C41"/>
</svg>