<svg width="24" height="24" viewBox="0 0 24 24" fill="none" xmlns="http://www.w3.org/2000/svg">
<path d="M22 12.0218C21.9978 17.575 17.5516 22.0038 11.9827 22C6.44302 21.9962 1.99695 17.5303 2 11.9728C2.00304 6.44383 6.50749 1.99183 12.0903 2.00001C17.5576 2.00802 22.0022 6.50294 22 12.0218ZM19.7975 11.8836C19.7019 9.76239 18.9959 7.90271 17.4717 6.41472C15.4842 4.47451 13.0928 3.91481 10.4263 4.35337C7.42511 4.84699 4.139 7.78424 4.21005 12.1349C4.27839 16.3195 7.70474 19.7829 12.01 19.7632C16.4077 19.7431 19.8667 16.1653 19.7975 11.8836Z" fill="#030302"/>
<path d="M19.797 11.8837C19.8668 16.1652 16.4078 19.7431 12.0101 19.7632C7.7048 19.7828 4.27845 16.3194 4.21012 12.1348C4.13907 7.7842 7.42519 4.84695 10.4264 4.35334C13.0929 3.91477 15.4843 4.47448 17.4717 6.41468C18.996 7.90267 19.702 9.76235 19.797 11.8837Z" fill="#DEA038"/>
<path d="M10.9195 16.7678C10.0037 16.7678 9.16072 16.7678 8.30977 16.7678C8.14076 15.7605 8.26076 14.8899 8.9347 14.0753C10.1188 12.644 11.0878 11.0396 12.3937 9.58196C11.0776 9.58196 9.85299 9.58196 8.59924 9.58196C8.59924 8.79158 8.59924 8.04521 8.59924 7.24393C9.34858 7.24393 10.1068 7.24393 10.9033 7.24393C10.9033 6.64168 10.9033 6.09272 10.9033 5.51245C11.6224 5.51245 12.3029 5.51245 13.0355 5.51245C13.0355 6.07273 13.0355 6.63212 13.0355 7.23471C13.9125 7.23471 14.739 7.23471 15.5939 7.23471C15.6059 8.18742 15.7016 9.04383 15.0273 9.86902C13.8528 11.3062 12.8757 12.905 11.6119 14.4028C13.0404 14.4028 14.3831 14.4028 15.745 14.4028C15.745 15.2065 15.745 15.9551 15.745 16.7492C14.8579 16.7492 13.9789 16.7492 13.0572 16.7492C13.0572 17.3288 13.0572 17.8644 13.0572 18.4287C12.3312 18.4287 11.6483 18.4287 10.9195 18.4287C10.9195 17.893 10.9195 17.3579 10.9195 16.7678Z" fill="#030302"/>
</svg>
