<svg width="24" height="24" viewBox="0 0 24 24" fill="none" xmlns="http://www.w3.org/2000/svg">
<g clip-path="url(#clip0_1265_20362)">
<path d="M12 24C18.6274 24 24 18.6274 24 12C24 5.37258 18.6274 0 12 0C5.37258 0 0 5.37258 0 12C0 18.6274 5.37258 24 12 24Z" fill="#C87035"/>
<path d="M11.9953 18.5C8.4055 18.4976 5.5 15.5868 5.5 11.9917C5.5 8.40432 8.41436 5.49764 12.0089 5.5C15.5927 5.50237 18.5047 8.41555 18.5 12.0012C18.4929 15.5478 15.6424 18.4953 11.9953 18.5ZM9.34623 14.9723C9.36454 14.9374 9.37873 14.9096 9.39232 14.8872C9.97377 13.8614 10.5564 12.8367 11.139 11.8133C11.6496 10.9163 12.159 10.0181 12.6665 9.11991C12.6736 9.10266 12.686 9.08816 12.702 9.07858C12.718 9.06899 12.7366 9.06483 12.7552 9.06673C13.3485 9.06968 13.9441 9.06968 14.5368 9.06968H14.6213C13.7975 10.5233 12.9797 11.9669 12.1554 13.4188C12.185 13.4211 12.2015 13.4211 12.2175 13.4211C13.706 13.4211 15.1933 13.4217 16.68 13.4235C16.7302 13.4235 16.7462 13.4052 16.7574 13.3615C16.9827 12.5667 17.004 11.728 16.8195 10.9228C16.5973 9.94777 16.1098 9.12464 15.3906 8.43623C15.0679 8.12859 14.7016 7.87033 14.3034 7.66982C13.3142 7.16518 12.2724 7.00505 11.1804 7.19709C10.0931 7.39032 9.17723 7.90382 8.42618 8.71573C8.3275 8.82209 8.23827 8.93614 8.14432 9.04664C8.14668 9.05314 8.15141 9.05846 8.15377 9.06436H12.3965C12.3729 9.10868 12.3569 9.14059 12.3386 9.17073C12.0804 9.62927 11.8186 10.0855 11.5627 10.5446C11.5526 10.5672 11.5356 10.586 11.5142 10.5983C11.4927 10.6106 11.4679 10.6158 11.4434 10.6131C10.1067 10.6108 8.77009 10.6102 7.43464 10.6108H7.35427C6.67709 12.7398 7.63377 15.4101 10.0335 16.4785C12.3569 17.5161 14.7932 16.5612 15.9355 14.9675C13.7402 14.9717 11.5438 14.9735 9.34682 14.9717L9.34623 14.9723ZM16.8171 16.0938C17.6414 15.1779 18.3741 13.6711 18.328 11.8611C18.2914 10.3703 17.7809 9.06023 16.8265 7.90205C16.5287 8.20223 16.238 8.49355 15.9496 8.78486C17.4624 10.6043 17.5274 13.2947 15.9656 15.2264L16.8171 16.0938Z" fill="white"/>
</g>
<defs>
<clipPath id="clip0_1265_20362">
<rect width="24" height="24" fill="white"/>
</clipPath>
</defs>
</svg>
