<svg width="24" height="24" viewBox="0 0 24 24" fill="none" xmlns="http://www.w3.org/2000/svg">
<g clip-path="url(#clip0_1265_20358)">
<path d="M12 24C18.6274 24 24 18.6274 24 12C24 5.37258 18.6274 0 12 0C5.37258 0 0 5.37258 0 12C0 18.6274 5.37258 24 12 24Z" fill="#ECB244"/>
<path d="M11.4122 14.4999H15.5053V16.6774H12.9865C13.0281 17.3001 13.0496 17.8779 13.0912 18.5H10.9715V16.6995H8.45212C8.45212 15.989 8.36827 15.2779 8.49437 14.611C8.55742 14.2555 8.93507 13.9441 9.16582 13.6334C9.96418 12.6358 10.7689 11.6432 11.5799 10.6558C11.8952 10.2775 12.2098 9.92195 12.5666 9.5001H8.64062V7.3226H10.9715V5.5H13.0073V7.27775H15.5475C15.5475 8.01095 15.6314 8.72205 15.5053 9.38895C15.4422 9.7445 15.0646 10.0559 14.813 10.3665C14.0147 11.3642 13.2099 12.3568 12.3989 13.3442C12.0823 13.7397 11.7532 14.1251 11.4122 14.4999Z" fill="white"/>
</g>
<defs>
<clipPath id="clip0_1265_20358">
<rect width="24" height="24" fill="white"/>
</clipPath>
</defs>
</svg>
