<svg width="24" height="24" viewBox="0 0 24 24" fill="none" xmlns="http://www.w3.org/2000/svg">
<g clip-path="url(#clip0_1265_20354)">
<path d="M12 24C18.6274 24 24 18.6274 24 12C24 5.37258 18.6274 0 12 0C5.37258 0 0 5.37258 0 12C0 18.6274 5.37258 24 12 24Z" fill="#183C87"/>
<path fill-rule="evenodd" clip-rule="evenodd" d="M5.5 12.0681L8.15614 10.5684L10.8117 12.0681V14.9323L8.15614 16.432L5.5 14.9323V12.0681ZM13.1877 12.0681L15.8439 10.5684L18.5 12.0681V14.9323L15.8439 16.432L13.1883 14.9323V12.0681H13.1877ZM12.9088 14.5559L11.977 15.0682L11.0912 14.5819V11.8406L8.66845 10.4721V9.477L11.977 7.56836L15.2849 9.477V10.4993L12.9088 11.8406V14.5565V14.5559Z" fill="white"/>
</g>
<defs>
<clipPath id="clip0_1265_20354">
<rect width="24" height="24" fill="white"/>
</clipPath>
</defs>
</svg>
