<svg viewBox="0 0 24 24" fill="none" xmlns="http://www.w3.org/2000/svg">
<g clip-path="url(#clip0_1265_20347)">
<path d="M12 24C18.6274 24 24 18.6274 24 12C24 5.37258 18.6274 0 12 0C5.37258 0 0 5.37258 0 12C0 18.6274 5.37258 24 12 24Z" fill="#00EAAB"/>
<path d="M17.2767 8.21582L16.2185 9.86265C16.5561 10.5243 16.7306 11.2571 16.7274 12C16.7274 14.6158 14.6109 16.7222 12.0051 16.7222C11.2657 16.7256 10.5363 16.551 9.87847 16.2133L8.22095 17.2817C9.2893 18.0403 10.5871 18.4999 11.995 18.4999C15.5793 18.4999 18.4949 15.5944 18.4949 12C18.4949 10.582 18.0454 9.28418 17.2767 8.21582Z" fill="white"/>
<path d="M12.0051 15.2446C12.7664 15.2446 13.5037 14.978 14.0891 14.4912C14.6744 14.0043 15.0708 13.3279 15.2096 12.5794C14.1933 12.3581 13.1419 12.3532 12.1235 12.5648C11.1052 12.7764 10.1428 13.1998 9.29883 13.8076C9.59659 14.2516 9.99944 14.6152 10.4716 14.866C10.9437 15.1168 11.4705 15.247 12.0051 15.2452V15.2446Z" fill="white"/>
<path d="M13.6025 11.8198C14.1715 11.8198 14.7202 11.8798 15.26 11.9999C15.2597 11.1341 14.9156 10.3037 14.3034 9.69149C13.6911 9.07923 12.8608 8.73513 11.9949 8.73481C11.5296 8.73519 11.0698 8.83522 10.6464 9.02819C10.223 9.22115 9.84589 9.50256 9.54037 9.85349C9.23484 10.2044 9.00803 10.6167 8.87519 11.0626C8.74235 11.5086 8.70656 11.9778 8.77024 12.4387C7.95159 13.0683 7.56218 13.5576 7.54196 13.5772C7.36542 13.0735 7.27439 12.5438 7.27264 12.01C7.27264 9.39414 9.38914 7.28715 11.9949 7.28715C12.7636 7.28715 13.4824 7.4667 14.1215 7.79666L15.769 6.7283C14.6777 5.92734 13.3587 5.4969 12.005 5.50002C11.1512 5.49923 10.3057 5.66683 9.51671 5.9932C8.72775 6.31957 8.01089 6.79832 7.40716 7.40205C6.80344 8.00578 6.32469 8.72263 5.99831 9.51159C5.67194 10.3006 5.50435 11.1461 5.50513 11.9999C5.50513 13.4476 5.9748 14.7757 6.77324 15.8536C7.0824 15.2948 7.45219 14.7853 7.88143 14.3257C7.88143 14.3257 8.52055 13.6575 9.00984 13.318C10.3421 12.3422 11.9511 11.8173 13.6025 11.8198Z" fill="white"/>
</g>
<defs>
<clipPath id="clip0_1265_20347">
<rect width="24" height="24" fill="white"/>
</clipPath>
</defs>
</svg>