<svg width="24" height="24" viewBox="0 0 24 24" fill="none" xmlns="http://www.w3.org/2000/svg">
<path d="M12 22C17.5228 22 22 17.5228 22 12C22 6.47715 17.5228 2 12 2C6.47715 2 2 6.47715 2 12C2 17.5228 6.47715 22 12 22Z" fill="white"/>
<path d="M17.4003 7.41277L16.6403 6.65277L14.9843 8.30877L13.4243 6.74877L12.6643 5.98877L11.9803 6.67277L5.99634 12.6568L6.75634 13.4168L8.31634 14.9768L6.61234 16.6808L7.37234 17.4408L9.06834 15.7448C9.90834 16.4968 11.0163 16.9568 12.2363 16.9568C14.8603 16.9568 16.9843 14.8328 16.9843 12.2088C16.9843 10.9928 16.5283 9.88077 15.7723 9.04077L17.4003 7.41277ZM7.44034 12.7288L12.7403 7.42877L14.3003 8.98877L9.00434 14.2888L7.44034 12.7288ZM15.9083 12.1288C15.9083 14.2128 14.2203 15.9008 12.1363 15.9008C11.2323 15.9008 10.4043 15.5848 9.75634 15.0528L15.0603 9.74877C15.5923 10.3968 15.9083 11.2288 15.9083 12.1288Z" fill="black"/>
</svg>
