<svg width="24" height="24" viewBox="0 0 24 24" fill="none" xmlns="http://www.w3.org/2000/svg">
<g clip-path="url(#clip0_1265_20340)">
<path d="M12 24C18.6274 24 24 18.6274 24 12C24 5.37258 18.6274 0 12 0C5.37258 0 0 5.37258 0 12C0 18.6274 5.37258 24 12 24Z" fill="#07BC9C"/>
<path fill-rule="evenodd" clip-rule="evenodd" d="M16.1917 7.10927C15.8669 7.02821 15.11 7.03905 14.8776 7.35815C15.11 7.48774 15.2721 7.68753 15.5101 7.69324C15.7482 7.69895 16.0239 7.47118 16.3264 7.60133C16.1969 7.60133 15.6129 7.70979 15.5752 7.8879C15.6568 8.02205 15.755 8.14535 15.8669 8.25552C16.0188 8.37996 16.0347 8.42335 16.2619 8.2989C16.54 8.12334 16.7499 7.85812 16.8568 7.5471C16.8568 7.38498 16.9053 7.49287 16.7865 7.35815C16.612 7.22708 16.4076 7.14154 16.1917 7.10927ZM13.1417 7.39583C13.5809 7.16154 14.0912 7.0979 14.5745 7.21716C14.5278 6.69634 14.2842 6.21293 13.8935 5.8654C14.3616 6.15653 14.691 6.62462 14.8069 7.16293C15.0723 7.12011 15.348 7.01736 15.602 6.97911C15.5562 6.46143 15.3283 5.97677 14.9587 5.61137C14.78 5.44355 14.2771 5 13.99 5C13.7028 5 13.3301 5.64905 13.2222 5.91392C13.0371 6.38646 13.0087 6.90593 13.1411 7.39583H13.1417Z" fill="white"/>
<path fill-rule="evenodd" clip-rule="evenodd" d="M13.0709 8.24462C12.9739 8.01229 13.4009 7.92038 13.531 7.93637C13.7633 8.00487 13.9763 8.12703 14.1532 8.29314C14.4934 8.54774 15.1636 9.29954 15.6563 9.12087C16.1483 8.94219 15.5644 8.07166 15.2938 7.84446C15.0727 7.63604 14.806 7.4821 14.5149 7.39489C14.2239 7.30768 13.9165 7.28961 13.6172 7.34212C13.3443 7.42375 13.1206 7.62183 13.0064 7.88214C12.9739 8.00144 12.8551 8.24462 13.0715 8.24462H13.0709Z" fill="white"/>
<path d="M15.3315 11.489C15.0289 11.3052 14.9204 10.7641 14.7315 10.4672C14.4718 10.0505 14.0933 9.71029 13.8661 9.27759C13.6389 8.84489 13.6121 8.51494 13.2228 8.30944C13.0735 8.2308 12.9074 8.1897 12.7387 8.1897C12.57 8.1897 12.4038 8.2308 12.2546 8.30944C11.7711 8.52864 11.2625 8.68848 10.7402 8.78552C10.5086 8.84036 10.2811 8.91093 10.0591 8.99673C9.8739 9.10081 9.68028 9.18922 9.48031 9.26103C8.98254 9.33125 8.06348 8.72044 8.15025 9.66633C8.15025 9.83987 8.32835 9.93177 8.27412 10.1533C8.22046 10.3753 7.98242 10.57 7.86882 10.7429C7.63555 11.1343 7.45367 11.5541 7.32766 11.9919C7.02034 12.9837 7.07991 14.0528 7.49549 15.0043C7.69529 15.4724 7.96187 15.9096 8.28497 16.3024C8.44309 16.4868 8.5818 16.686 8.70168 16.8972C8.79302 17.1472 8.90719 17.3881 9.04248 17.6165C9.1594 17.7634 9.31476 17.8751 9.49131 17.939C9.66785 18.003 9.85867 18.0168 10.0426 17.979C10.2316 17.914 10.413 17.8288 10.5838 17.7249C10.8753 17.609 11.1806 17.5307 11.492 17.492C12.6282 17.3139 13.6647 16.7392 14.4175 15.8697C14.7742 15.4393 15.0509 14.9484 15.2344 14.4203C15.3411 14.1258 15.4189 13.8216 15.4667 13.5121C15.4941 13.3174 15.4348 12.8248 15.5752 12.6958C15.6665 12.6085 15.8835 12.5873 15.9485 12.5057C15.9978 12.3983 16.0357 12.286 16.0616 12.1706C16.1643 11.8515 15.5644 11.5975 15.332 11.489H15.3315ZM15.7425 12.2625C15.6614 12.4463 15.3429 12.5548 15.2019 12.7495C14.9997 13.1142 14.7301 13.4371 14.4073 13.7011C14.0821 13.8705 13.7079 13.9211 13.3494 13.8441C12.9908 13.7671 12.6705 13.5673 12.4436 13.2792C12.2041 12.9801 12.0744 12.608 12.0759 12.2249C12.0759 11.9274 12.4007 11.1808 12.0759 11.0187C11.7517 10.8565 11.6004 11.3811 11.476 11.5598C11.2583 11.9212 10.9274 12.2005 10.5347 12.3544C10.2291 12.4579 9.90115 12.4763 9.58593 12.4077C9.2707 12.3391 8.98005 12.1861 8.74507 11.9651C8.58795 11.7415 8.48343 11.4853 8.43934 11.2157C8.39525 10.946 8.41273 10.6698 8.49047 10.4079C8.49772 10.141 8.47416 9.87415 8.42026 9.61267C8.42026 9.22336 8.76105 9.36378 9.03677 9.41801C9.72031 9.53974 10.3696 9.80725 10.9405 10.2024C11.4767 10.6478 12.1197 10.9458 12.806 11.0672C13.2656 11.1106 13.7211 11.1882 14.1692 11.3001C14.3907 11.3652 14.5962 11.4731 14.8126 11.549C15.0409 11.6232 15.2624 11.7185 15.4725 11.8355C15.6186 11.9 15.8292 12.0296 15.7482 12.2408L15.7425 12.2625Z" fill="white"/>
</g>
<defs>
<clipPath id="clip0_1265_20340">
<rect width="24" height="24" fill="white"/>
</clipPath>
</defs>
</svg>
