<svg viewBox="0 0 24 24" fill="none" xmlns="http://www.w3.org/2000/svg">
<g clip-path="url(#clip0_1265_20333)">
<path d="M12 24C18.6274 24 24 18.6274 24 12C24 5.37258 18.6274 0 12 0C5.37258 0 0 5.37258 0 12C0 18.6274 5.37258 24 12 24Z" fill="#49C1BF"/>
<path d="M7.45361 6.33444L14.6932 9.8409L16.5464 9.00581L9.3368 5.5L7.45361 6.33444Z" fill="white" fill-opacity="0.304"/>
<path d="M14.6931 9.83248L16.5463 8.99805V10.8643L14.6931 11.6987V9.83248ZM14.6931 18.4856V12.6641L16.5463 11.8205V17.6512L14.6931 18.4856Z" fill="white" fill-opacity="0.646"/>
<path d="M7.45361 6.33643V8.22352L12.4648 10.6578L7.45361 13.1396V15L14.6932 18.4999V16.6278L9.77649 14.2366L14.6932 11.7085V9.84224L7.45361 6.33643Z" fill="white"/>
</g>
<defs>
<clipPath id="clip0_1265_20333">
<rect width="24" height="24" fill="white"/>
</clipPath>
</defs>
</svg>