<svg width="24" height="24" viewBox="0 0 24 24" fill="none" xmlns="http://www.w3.org/2000/svg">
<path d="M15.8681 20.8523C15.7559 20.9514 15.6667 20.8571 15.5756 20.8134C13.7296 19.9283 11.8849 19.0404 10.0387 18.1557C8.67318 17.5012 7.30729 16.8476 5.93775 16.2017C5.77247 16.1237 5.69957 16.0359 5.70241 15.846C5.71325 15.1203 5.71019 14.3942 5.70461 13.6684C5.70341 13.5123 5.73864 13.4224 5.89705 13.3458C8.05541 12.3032 10.2089 11.2505 12.3631 10.1994C12.4358 10.1639 12.5531 10.149 12.5537 10.0609C12.5544 9.9705 12.4341 9.9579 12.3626 9.92351C10.2177 8.89166 8.0724 7.86067 5.92405 6.83608C5.76726 6.76131 5.69993 6.67809 5.70249 6.49813C5.71279 5.77235 5.70494 5.04634 5.70935 4.32045C5.70989 4.23355 5.65329 4.10773 5.81002 4.08008C5.81531 4.16225 5.8805 4.18482 5.94097 4.21348C6.18859 4.33083 6.43633 4.44792 6.68309 4.56703C8.03226 5.2182 9.37997 5.87231 10.7304 6.52082C12.4109 7.32788 14.0936 8.13047 15.7754 8.93498C15.7756 9.69587 15.7747 10.4567 15.7771 11.2176C15.7775 11.3132 15.7453 11.4186 15.8317 11.4989C15.3547 11.8041 14.8387 12.0354 14.3352 12.2904C12.6129 13.1624 10.8902 14.0337 9.16792 14.9059C9.11714 14.9317 9.04272 14.9463 9.0385 15.0114C9.03359 15.0873 9.11656 15.0825 9.1651 15.1059C10.7167 15.8546 12.2678 16.6041 13.8207 17.35C14.4735 17.6636 15.1299 17.9695 15.7847 18.2788C15.7819 19.0783 15.7789 19.8778 15.7765 20.6773C15.7763 20.7507 15.7617 20.8337 15.8681 20.8523Z" fill="#4DC0BE"/>
<path d="M15.7752 8.93498C14.0934 8.13047 12.4107 7.32788 10.7302 6.52082C9.37975 5.87231 8.03204 5.21819 6.68289 4.56705C6.43612 4.44795 6.18838 4.33085 5.94077 4.2135C5.8803 4.18484 5.81511 4.16227 5.80981 4.0801C6.60846 3.72902 7.40779 3.37937 8.20522 3.02547C8.35073 2.96089 8.46391 3.03277 8.58247 3.08987C9.65466 3.60631 10.7251 4.1264 11.7984 4.64052C13.9363 5.66459 16.0757 6.68552 18.2143 7.70818C18.2363 7.71873 18.2555 7.73535 18.276 7.74914C18.292 7.84766 18.226 7.86944 18.1512 7.90108C17.9289 7.99513 17.7127 8.10355 17.4912 8.19944C16.92 8.4466 16.3473 8.69004 15.7752 8.93498Z" fill="#077A8D"/>
<path d="M15.868 20.8522C15.7617 20.8336 15.7762 20.7507 15.7764 20.6772C15.7788 19.8777 15.7818 19.0782 15.7846 18.2788C15.787 18.2646 15.7945 18.2539 15.8068 18.2468C15.8483 18.1685 15.8298 18.0838 15.8299 18.002C15.8311 16.8218 15.8323 15.6417 15.8302 14.4615C15.8293 13.9383 15.8213 13.4152 15.8165 12.892C15.9005 12.7472 16.0627 12.7341 16.1946 12.6745C16.8541 12.3767 17.5181 12.0886 18.1771 11.7896C18.3382 11.7165 18.3885 11.7344 18.3882 11.9246C18.3838 14.4669 18.3852 17.0092 18.388 19.5515C18.3882 19.6834 18.3522 19.7548 18.2187 19.8123C17.4318 20.1512 16.6509 20.5041 15.868 20.8522Z" fill="#2E8D94"/>
<path d="M15.7751 8.93487C16.3472 8.68993 16.9199 8.44649 17.4911 8.19932C17.7126 8.10344 17.9288 7.99501 18.1511 7.90096C18.2259 7.86932 18.2919 7.84756 18.2759 7.74902C18.3987 7.77999 18.3851 7.88027 18.3852 7.97022C18.3862 8.71213 18.3819 9.45409 18.3892 10.1959C18.3906 10.3414 18.3242 10.3987 18.2054 10.4506C17.4127 10.7969 16.6225 11.1487 15.8314 11.4988C15.745 11.4185 15.7772 11.313 15.7768 11.2175C15.7744 10.4566 15.7753 9.69575 15.7751 8.93487Z" fill="#2F8D94"/>
</svg>
