<svg width="24" height="24" viewBox="0 0 24 24" fill="none" xmlns="http://www.w3.org/2000/svg">
<g clip-path="url(#clip0_1265_20329)">
<path d="M12 24C18.6274 24 24 18.6274 24 12C24 5.37258 18.6274 0 12 0C5.37258 0 0 5.37258 0 12C0 18.6274 5.37258 24 12 24Z" fill="#00004D"/>
<path d="M11.7202 6.33318C11.6682 6.55363 11.5122 7.24888 11.441 7.71465C11.4128 7.90571 11.294 8.16063 11.6253 8.29799C11.5495 8.31269 11.5264 8.3223 11.5026 8.31721C11.2664 8.28782 11.025 8.2539 10.7887 8.22451C10.7367 8.21942 10.6706 8.20981 10.6231 8.23412C10.3066 8.40087 10.1652 8.79767 10.3252 9.13569C10.4156 9.32675 10.4439 9.5031 10.406 9.70433C10.4012 9.75647 10.411 9.80893 10.4343 9.85582C10.6186 10.3069 10.6519 10.7574 10.505 11.2277C10.4812 11.3012 10.4959 11.3899 10.5004 11.4679C10.51 11.62 10.5191 11.772 10.5332 11.9235C10.3015 11.7375 10.0471 11.5708 9.85266 11.3453C9.75599 11.2317 9.68282 11.1001 9.63741 10.958C9.592 10.816 9.57525 10.6663 9.58812 10.5177C9.59264 10.4589 9.54573 10.39 9.50786 10.3363C9.39876 10.1746 9.27158 10.0277 9.18171 9.85582C9.05396 9.61107 8.89795 9.50819 8.64246 9.58676C8.51528 9.62576 8.39657 9.70885 8.28805 9.79251C8.19365 9.86034 8.11282 9.94909 8.02803 10.0277C8.01842 10.0175 8.00429 10.0079 7.99525 9.99826C8.00938 9.96378 8.0139 9.92478 8.03312 9.8903C8.16539 9.64555 8.1603 9.65007 7.97659 9.44432C7.62162 9.04751 7.31412 8.62131 7.18185 8.08206C7.11572 7.813 7.03489 7.5479 6.9648 7.28336C6.60982 7.72426 6.5629 9.31261 6.91279 9.93948C6.8037 9.38553 6.69517 8.86154 6.81783 8.3223C6.84157 8.44495 6.8557 8.56253 6.86079 8.68519C6.87944 9.12099 6.98345 9.53306 7.16772 9.91969C7.20559 10.0028 7.31469 10.052 7.39495 10.1107C7.42321 10.1305 7.46109 10.1401 7.49387 10.1548C7.48935 10.1746 7.48935 10.1944 7.48426 10.2085C7.3096 10.1989 7.13946 10.1791 6.96423 10.1746C6.85118 10.1695 6.71891 10.1401 6.62904 10.1893C6.51033 10.2526 6.41594 10.3758 6.3498 10.4979C6.33115 10.5319 6.42555 10.6692 6.49677 10.7235C6.68556 10.8654 6.81331 11.0219 6.78505 11.2865C6.77996 11.3503 6.85118 11.4634 6.91279 11.4877C7.08237 11.5516 7.12985 11.6788 7.15811 11.8404C7.17733 11.9433 7.19146 12.0756 7.2576 12.1343C7.47013 12.3305 7.53626 12.5656 7.54135 12.85C7.54587 13.0308 7.64027 13.2174 7.61709 13.3937C7.59788 13.5458 7.62614 13.6583 7.68775 13.7464H7.68323L7.69736 13.7611C7.73523 13.8199 7.78723 13.8685 7.84828 13.9132L7.97151 14.0308C7.97151 14.0308 8.18404 14.2608 8.18856 14.4864C8.19365 14.7119 8.17443 14.7407 8.24057 14.9419C8.30727 15.1381 8.39657 15.2947 8.4254 15.4614C8.45367 15.6282 8.39205 15.6768 8.49154 15.7847C8.59046 15.8921 8.69955 15.9656 8.8126 16.0888C8.92169 16.216 9.0777 16.2601 9.18171 16.3681C9.28571 16.4755 9.45077 16.6767 9.57851 16.8039C9.64465 16.8728 9.73452 16.9265 9.80066 16.9655C9.81988 16.9853 9.82892 16.9949 9.8244 17.0051C9.73452 17.2007 9.91879 17.1962 9.99002 17.2595C10.1127 17.3674 10.2879 17.4358 10.3772 17.5681C10.5383 17.8083 10.7463 17.931 11.0063 18.0045C11.0301 18.0096 11.0583 18.0141 11.0674 18.0288C11.1007 18.0683 11.1239 18.117 11.1527 18.161C11.1431 18.1757 11.129 18.1904 11.1194 18.2051C11.3794 18.2984 11.6394 18.3962 11.8994 18.4844C11.9514 18.5042 12.0181 18.5042 12.065 18.49C12.2827 18.4165 12.5003 18.3374 12.7173 18.2594C12.7597 18.2447 12.8259 18.2006 12.8214 18.1808C12.7886 18.0243 12.9158 18.0486 12.987 18.0096C13.1565 17.9163 13.3555 17.8479 13.4833 17.7156C13.6393 17.5489 13.7811 17.377 13.9892 17.2646C14.0739 17.2154 14.2441 17.1962 14.1587 17.0102C14.1542 17 14.2017 16.961 14.2254 16.9367C14.2582 16.9068 14.2961 16.8824 14.3436 16.8434C14.3764 16.8287 14.4142 16.8039 14.4758 16.7598C14.6681 16.6019 14.8468 16.4281 15.01 16.2403C15.1231 16.0984 15.3079 15.9221 15.3079 15.9221C15.3079 15.9221 15.1892 15.6429 15.2655 15.3975L15.6668 15.0991C15.7522 14.9176 15.7759 14.8487 15.8703 14.6627C15.9602 14.4762 15.9834 14.1189 16.1117 13.9765C16.2247 13.8544 16.3621 13.756 16.357 13.678C16.3867 13.5948 16.3964 13.5057 16.3853 13.418C16.3717 13.2908 16.4135 13.158 16.4282 13.0308C16.4378 12.9234 16.4282 12.8155 16.4565 12.7126C16.504 12.5458 16.5367 12.3503 16.6408 12.2321C16.7538 12.105 16.8301 11.9925 16.8442 11.8206C16.8584 11.6737 16.9149 11.5561 17.0619 11.4871C17.1325 11.4532 17.2032 11.3356 17.2032 11.2571C17.1987 11.0366 17.2693 10.8801 17.4491 10.7625C17.5011 10.7286 17.5395 10.6692 17.5909 10.6302C17.6757 10.5663 17.6622 10.4929 17.6147 10.4098C17.492 10.1893 17.3072 10.1107 17.0619 10.1554C16.877 10.1893 16.5984 10.2085 16.4989 10.2085C16.4 10.2085 16.4706 10.1351 16.4706 10.1351C16.8205 10.1254 16.8629 9.8366 16.9432 9.60146C17.0099 9.40531 17.0472 9.19956 17.0805 8.99381C17.1139 8.79767 17.1139 8.7044 17.1512 8.4003C17.189 8.09676 17.2789 8.98873 17.137 9.71903C17.4208 9.28774 17.3309 7.72426 17.0144 7.26415C17.0048 7.27376 16.9952 7.27884 16.9952 7.28845C16.981 7.34724 16.972 7.40602 16.9579 7.46481C16.8205 8.21433 16.5367 8.88585 16.0122 9.43471C15.8183 9.63537 15.8279 9.64046 15.9602 9.89991C15.9743 9.92478 15.9743 9.95869 15.9788 9.99318C15.8658 9.93948 15.781 9.86091 15.6957 9.78742C15.6212 9.71545 15.5329 9.65927 15.4361 9.62226C15.3394 9.58525 15.2362 9.56818 15.1327 9.57206C14.9066 9.57206 14.8444 9.73825 14.7783 9.89991C14.6556 10.1938 14.3673 10.3753 14.3577 10.7676C14.3436 11.3407 13.8332 11.6296 13.5019 12.0117C13.4974 12.0173 13.4833 12.0072 13.464 12.0072C13.4595 11.9874 13.4454 11.9631 13.4499 11.9433C13.4499 11.5906 13.5449 11.2328 13.3889 10.8947C13.3793 10.875 13.3838 10.8456 13.3889 10.8264C13.4499 10.3312 13.507 9.84112 13.5731 9.35105C13.5822 9.28774 13.6155 9.22896 13.6438 9.17017C13.8094 8.81745 13.6862 8.41556 13.351 8.2392C13.3096 8.22043 13.2638 8.21358 13.2187 8.21942C13.0339 8.24373 12.8547 8.27821 12.675 8.30251C12.5845 8.31721 12.4907 8.31721 12.4008 8.3223C12.3957 8.3076 12.3912 8.2929 12.3867 8.28273C12.5376 8.23412 12.6133 8.14142 12.5806 7.97467L12.2397 6.27891C12.2307 6.23483 12.2211 6.01438 12.2731 6.12743C12.3251 6.245 12.4907 6.7492 12.5851 7.068C12.675 7.37663 12.7456 7.69543 12.8259 8.00858C12.6936 7.13188 12.4907 6.27892 11.9893 5.5C11.8559 5.66722 11.7491 5.85408 11.6728 6.05395C11.5511 6.41061 11.4377 6.77002 11.3325 7.13188C11.2522 7.41111 11.0442 7.95997 11.1341 7.9741C11.2234 7.98936 11.6632 6.34279 11.6914 6.22522C11.7197 6.10764 11.7722 6.11217 11.7197 6.33261L11.7202 6.33318Z" fill="white"/>
</g>
<defs>
<clipPath id="clip0_1265_20329">
<rect width="24" height="24" fill="white"/>
</clipPath>
</defs>
</svg>
