<svg viewBox="0 0 24 24" fill="none" xmlns="http://www.w3.org/2000/svg">
<g clip-path="url(#clip0_1265_20325)">
<path d="M12 24C18.6274 24 24 18.6274 24 12C24 5.37258 18.6274 0 12 0C5.37258 0 0 5.37258 0 12C0 18.6274 5.37258 24 12 24Z" fill="#302C2C"/>
<path fill-rule="evenodd" clip-rule="evenodd" d="M11.7026 18.5C11.543 18.4835 11.3835 18.4687 11.224 18.4498C10.3661 18.3475 9.53774 18.0734 8.78823 17.6438C8.777 17.6379 8.76696 17.629 8.74509 17.6142C10.0486 16.6392 11.3463 15.6701 12.651 14.6951L13.044 15.0775C13.2626 15.2914 13.4824 15.5029 13.6969 15.7198C13.7501 15.773 13.7885 15.7724 13.8505 15.7405C14.5003 15.4161 15.0555 14.9297 15.4625 14.3282L15.5258 14.2348C15.5441 14.2561 15.5612 14.2732 15.5754 14.2921C16.0286 14.896 16.4813 15.5 16.9363 16.1021C16.9759 16.1541 16.9711 16.1848 16.9292 16.2321C15.8756 17.4293 14.5661 18.1667 12.9878 18.419C12.7893 18.451 12.5878 18.4628 12.3875 18.4846C12.3609 18.4876 12.3343 18.4947 12.3083 18.5H11.7026ZM12.2758 5.5C12.3857 5.51123 12.4962 5.52305 12.6067 5.53309C13.538 5.62173 14.409 5.89768 15.2203 6.36036C15.2321 6.36745 15.2421 6.37573 15.2616 6.38991L11.2919 9.2375C11.2393 9.18786 11.1885 9.14059 11.1383 9.09155C10.8594 8.81973 10.5793 8.5485 10.3021 8.27432C10.2578 8.23059 10.2241 8.22586 10.1686 8.25364C9.50729 8.57999 8.94297 9.07383 8.53178 9.686L8.47269 9.77464L7.01432 7.83173C7.16146 7.67573 7.29737 7.52032 7.4445 7.37673C8.40355 6.44132 9.54223 5.84627 10.8617 5.60695C11.1158 5.56086 11.3752 5.5455 11.6323 5.51536C11.6612 5.51241 11.6902 5.50532 11.7185 5.5H12.2752H12.2758ZM6.36196 8.77009L9.31355 12.6394L8.71791 13.2504C8.56959 13.4022 8.42246 13.5559 8.27119 13.7054C8.22864 13.7479 8.22687 13.7804 8.25287 13.8324C8.57876 14.4938 9.07244 15.0582 9.68464 15.4692C9.70532 15.4822 9.726 15.4958 9.7455 15.5106C9.74905 15.513 9.75082 15.5189 9.76146 15.539L7.8345 16.9843C6.68223 15.9922 5.93473 14.7696 5.63455 13.287C5.31309 11.6998 5.57369 10.2001 6.36255 8.77009H6.36196ZM14.7381 11.3524L15.2805 10.7892C15.4318 10.632 15.5807 10.4731 15.7355 10.32C15.784 10.2722 15.7834 10.2361 15.755 10.1794C15.4271 9.51003 14.9275 8.93954 14.3073 8.52605C14.2855 8.51127 14.2642 8.49532 14.227 8.46873L16.1645 7.01509C17.2619 7.95464 17.9905 9.11282 18.3249 10.5103C18.7427 12.2547 18.3704 13.9801 17.6471 15.195L14.7381 11.3524Z" fill="white"/>
</g>
<defs>
<clipPath id="clip0_1265_20325">
<rect width="24" height="24" fill="white"/>
</clipPath>
</defs>
</svg>